<svg xmlns="http://www.w3.org/2000/svg" xmlns:xlink="http://www.w3.org/1999/xlink" contentStyleType="text/css" data-diagram-type="STATE" height="843px" preserveAspectRatio="none" style="width:686px;height:843px;background:#FFFFFF;" version="1.1" viewBox="0 0 686 843" width="686px" zoomAndPan="magnify"><?plantuml 1.2026.6?><defs/><g><g class="entity" data-qualified-name="in1" data-source-line="3" id="ent0001"><rect fill="#F1F1F1" height="50" rx="12.5" ry="12.5" style="stroke:#181818;stroke-width:0.5;" width="182.5996" x="132.5" y="7"/><line style="stroke:#181818;stroke-width:0.5;" x1="132.5" x2="315.0996" y1="34.6094" y2="34.6094"/><text fill="#000000" font-family="sans-serif" font-size="14" lengthAdjust="spacing" textLength="162.5996" x="142.5" y="26.5332">PUBLICACION_ABIERTA</text></g><g class="entity" data-qualified-name="in2" data-source-line="4" id="ent0002"><rect fill="#F1F1F1" height="50" rx="12.5" ry="12.5" style="stroke:#181818;stroke-width:0.5;" width="205.9375" x="351" y="7"/><line style="stroke:#181818;stroke-width:0.5;" x1="351" x2="556.9375" y1="34.6094" y2="34.6094"/><text fill="#000000" font-family="sans-serif" font-size="14" lengthAdjust="spacing" textLength="185.9375" x="361" y="26.5332">MI_PUBLICACION_ABIERTA</text></g><g class="entity" data-qualified-name="eliminarPublicacion" data-source-line="8" id="ent0003"><path d="M19.5,135 L658.5,135 A12.5,12.5 0 0 1 671,147.5 L671,162.6094 L7,162.6094 L7,147.5 A12.5,12.5 0 0 1 19.5,135" fill="#F1F1F1"/><rect fill="none" height="565.6094" rx="12.5" ry="12.5" style="stroke:#181818;stroke-width:0.5;" width="664" x="7" y="135"/><line style="stroke:#181818;stroke-width:0.5;" x1="7" x2="671" y1="162.6094" y2="162.6094"/><text fill="#000000" font-family="sans-serif" font-size="14" lengthAdjust="spacing" textLength="129.9375" x="274.0313" y="154.5332">eliminarPublicacion()</text><g class="entity" data-qualified-name="eliminarPublicacion.VerificandoPermiso" data-source-line="9" id="ent0004"><rect fill="#F1F1F1" height="50" rx="12.5" ry="12.5" style="stroke:#181818;stroke-width:0.5;" width="50" x="202" y="265.6094"/><line style="stroke:#181818;stroke-width:0.5;" x1="202" x2="252" y1="293.2188" y2="293.2188"/><text fill="#000000" font-family="sans-serif" font-size="14" lengthAdjust="spacing" textLength="3.8896" x="225.0552" y="285.1426">&#160;</text></g><g class="entity" data-qualified-name="eliminarPublicacion.ConfirmandoRetirada" data-source-line="10" id="ent0005"><rect fill="#F1F1F1" height="50" rx="12.5" ry="12.5" style="stroke:#181818;stroke-width:0.5;" width="50" x="202" y="403.6094"/><line style="stroke:#181818;stroke-width:0.5;" x1="202" x2="252" y1="431.2188" y2="431.2188"/><text fill="#000000" font-family="sans-serif" font-size="14" lengthAdjust="spacing" textLength="3.8896" x="225.0552" y="423.1426">&#160;</text></g><g class="entity" data-qualified-name="eliminarPublicacion.PublicacionRetirada" data-source-line="11" id="ent0006"><rect fill="#F1F1F1" height="50" rx="12.5" ry="12.5" style="stroke:#181818;stroke-width:0.5;" width="50" x="19" y="526.6094"/><line style="stroke:#181818;stroke-width:0.5;" x1="19" x2="69" y1="554.2188" y2="554.2188"/><text fill="#000000" font-family="sans-serif" font-size="14" lengthAdjust="spacing" textLength="3.8896" x="42.0552" y="546.1426">&#160;</text></g><g class="start_entity" data-qualified-name="eliminarPublicacion..start.eliminarPublicacion" data-source-line="13" id="ent0009"><ellipse cx="227" cy="183.6094" fill="#222222" rx="10" ry="10" style="stroke:#222222;stroke-width:1;"/></g><g class="end_entity" data-qualified-name="eliminarPublicacion..end.eliminarPublicacion" data-source-line="29" id="ent0013"><ellipse cx="215" cy="676.6094" fill="none" rx="11" ry="11" style="stroke:#222222;stroke-width:1;"/><ellipse cx="215" cy="676.6094" fill="#222222" rx="6" ry="6" style="stroke:#222222;stroke-width:1;"/></g><!--link *start*eliminarPublicacion to VerificandoPermiso--><g class="link" data-entity-1="ent0009" data-entity-2="ent0004" data-link-type="dependency" data-source-line="13" id="lnk10"><path d="M227,193.9294 C227,209.7894 227,237.5194 227,260.2494" fill="none" id="*start*eliminarPublicacion-to-VerificandoPermiso" style="stroke:#008000;stroke-width:1;"/><polygon fill="#008000" points="227,265.2494,231,256.2494,227,260.2494,223,256.2494,227,265.2494" style="stroke:#008000;stroke-width:1;stroke-linejoin:miter;stroke-miterlimit:10;"/><path d="M232,216.6094 L232,242.6094 L480,242.6094 L480,226.6094 L470,216.6094 L232,216.6094" fill="#FEFFDD" style="stroke:#181818;stroke-width:0.5;"/><path d="M470,216.6094 L470,226.6094 L480,226.6094 L470,216.6094" fill="#FEFFDD" style="stroke:#181818;stroke-width:0.5;"/><text fill="#000000" font-family="sans-serif" font-size="13" font-weight="700" lengthAdjust="spacing" textLength="77.9937" x="238" y="235.1045">Coordinador</text><text fill="#000000" font-family="sans-serif" font-size="13" lengthAdjust="spacing" textLength="145.9517" x="319.6055" y="235.1045">solicita retirar publicacion</text></g><!--link VerificandoPermiso to ConfirmandoRetirada--><g class="link" data-entity-1="ent0004" data-entity-2="ent0005" data-link-type="dependency" data-source-line="18" id="lnk11"><path d="M227,315.6094 C227,340.3194 227,373.6094 227,398.3894" fill="none" id="VerificandoPermiso-to-ConfirmandoRetirada" style="stroke:#008000;stroke-width:1;"/><polygon fill="#008000" points="227,403.3894,231,394.3894,227,398.3894,223,394.3894,227,403.3894" style="stroke:#008000;stroke-width:1;stroke-linejoin:miter;stroke-miterlimit:10;"/><path d="M232,338.6094 L232,380.6094 L552,380.6094 L552,348.6094 L542,338.6094 L232,338.6094" fill="#FEFFDD" style="stroke:#181818;stroke-width:0.5;"/><path d="M542,338.6094 L542,348.6094 L552,348.6094 L542,338.6094" fill="#FEFFDD" style="stroke:#181818;stroke-width:0.5;"/><text fill="#000000" font-family="sans-serif" font-size="13" font-weight="700" lengthAdjust="spacing" textLength="49.8608" x="238" y="357.1045">Sistema</text><text fill="#000000" font-family="sans-serif" font-size="13" lengthAdjust="spacing" textLength="239.1797" x="291.4727" y="357.1045">verifica el permiso global del Coordinador</text><text fill="#000000" font-family="sans-serif" font-size="13" font-weight="700" lengthAdjust="spacing" textLength="49.8608" x="238" y="373.4561">Sistema</text><text fill="#000000" font-family="sans-serif" font-size="13" lengthAdjust="spacing" textLength="246.4097" x="291.4727" y="373.4561">presenta la publicacion y solicita un motivo</text></g><!--link ConfirmandoRetirada to PublicacionRetirada--><g class="link" data-entity-1="ent0005" data-entity-2="ent0006" data-link-type="dependency" data-source-line="24" id="lnk12"><path d="M201.81,436.2694 C156.97,448.1094 68,471.6094 68,471.6094 C68,471.6094 59.8439,498.4654 52.7839,521.6954" fill="none" id="ConfirmandoRetirada-to-PublicacionRetirada" style="stroke:#008000;stroke-width:1;"/><polygon fill="#008000" points="51.33,526.4794,57.7742,519.0314,52.7839,521.6954,50.1199,516.7051,51.33,526.4794" style="stroke:#008000;stroke-width:1;stroke-linejoin:miter;stroke-miterlimit:10;"/><path d="M73,476.6094 L73,502.6094 L390,502.6094 L390,486.6094 L380,476.6094 L73,476.6094" fill="#FEFFDD" style="stroke:#181818;stroke-width:0.5;"/><path d="M380,476.6094 L380,486.6094 L390,486.6094 L380,476.6094" fill="#FEFFDD" style="stroke:#181818;stroke-width:0.5;"/><text fill="#000000" font-family="sans-serif" font-size="13" font-weight="700" lengthAdjust="spacing" textLength="77.9937" x="79" y="495.1045">Coordinador</text><text fill="#000000" font-family="sans-serif" font-size="13" lengthAdjust="spacing" textLength="214.5889" x="160.6055" y="495.1045">indica el motivo y confirma la retirada</text></g><!--link PublicacionRetirada to *end*eliminarPublicacion--><g class="link" data-entity-1="ent0006" data-entity-2="ent0013" data-link-type="dependency" data-source-line="29" id="lnk14"><path d="M32.27,576.6194 C27.46,586.4694 23,595.6094 23,595.6094 C23,595.6094 23,647.6094 23,647.6094 C23,647.6094 158.5623,667.3783 199.1823,673.2983" fill="none" id="PublicacionRetirada-to-*end*eliminarPublicacion" style="stroke:#008000;stroke-width:1;"/><polygon fill="#008000" points="204.13,674.0194,195.801,668.7632,199.1823,673.2983,194.6472,676.6796,204.13,674.0194" style="stroke:#008000;stroke-width:1;stroke-linejoin:miter;stroke-miterlimit:10;"/><path d="M28,600.6094 L28,642.6094 L390,642.6094 L390,610.6094 L380,600.6094 L28,600.6094" fill="#FEFFDD" style="stroke:#181818;stroke-width:0.5;"/><path d="M380,600.6094 L380,610.6094 L390,610.6094 L380,600.6094" fill="#FEFFDD" style="stroke:#181818;stroke-width:0.5;"/><text fill="#000000" font-family="sans-serif" font-size="13" font-weight="700" lengthAdjust="spacing" textLength="49.8608" x="34" y="619.1045">Sistema</text><text fill="#000000" font-family="sans-serif" font-size="13" lengthAdjust="spacing" textLength="242.0679" x="87.4727" y="619.1045">retira la publicacion de los listados activos</text><text fill="#000000" font-family="sans-serif" font-size="13" lengthAdjust="spacing" textLength="341.7896" x="34" y="635.4561">y conserva autoria, relaciones, fecha, motivo y responsable</text></g><!--link ConfirmandoRetirada to *end*eliminarPublicacion--><g class="link" data-entity-1="ent0005" data-entity-2="ent0013" data-link-type="dependency" data-source-line="35" id="lnk15"><path d="M252.15,435.8994 C299.02,447.6094 395,471.6094 395,471.6094 C395,471.6094 395,647.6094 395,647.6094 C395,647.6094 269.4105,667.1406 230.6605,673.1706" fill="none" id="ConfirmandoRetirada-to-*end*eliminarPublicacion" style="stroke:#FF0000;stroke-width:1;"/><polygon fill="#FF0000" points="225.72,673.9394,235.228,676.5079,230.6605,673.1706,233.9979,668.6031,225.72,673.9394" style="stroke:#FF0000;stroke-width:1;stroke-linejoin:miter;stroke-miterlimit:10;"/><path d="M400,530.6094 L400,572.6094 L647,572.6094 L647,540.6094 L637,530.6094 L400,530.6094" fill="#FEFFDD" style="stroke:#181818;stroke-width:0.5;"/><path d="M637,530.6094 L637,540.6094 L647,540.6094 L637,530.6094" fill="#FEFFDD" style="stroke:#181818;stroke-width:0.5;"/><text fill="#000000" font-family="sans-serif" font-size="13" font-weight="700" lengthAdjust="spacing" textLength="77.9937" x="406" y="549.1045">Coordinador</text><text fill="#000000" font-family="sans-serif" font-size="13" lengthAdjust="spacing" textLength="92.4854" x="487.6055" y="549.1045">solicita cancelar</text><text fill="#000000" font-family="sans-serif" font-size="13" font-weight="700" lengthAdjust="spacing" textLength="49.8608" x="406" y="565.4561">Sistema</text><text fill="#000000" font-family="sans-serif" font-size="13" lengthAdjust="spacing" textLength="173.437" x="459.4727" y="565.4561">mantiene la publicacion activa</text></g></g><g class="entity" data-qualified-name="PUBLICACIONES_ABIERTAS" data-source-line="42" id="ent0016"><rect fill="#F1F1F1" height="50" rx="12.5" ry="12.5" style="stroke:#181818;stroke-width:0.5;" width="210.6133" x="102.5" y="779"/><line style="stroke:#181818;stroke-width:0.5;" x1="102.5" x2="313.1133" y1="806.6094" y2="806.6094"/><text fill="#000000" font-family="sans-serif" font-size="14" lengthAdjust="spacing" textLength="190.6133" x="112.5" y="798.5332">PUBLICACIONES_ABIERTAS</text></g><g class="entity" data-qualified-name="MIS_PUBLICACIONES_ABIERTAS" data-source-line="43" id="ent0018"><rect fill="#F1F1F1" height="50" rx="12.5" ry="12.5" style="stroke:#181818;stroke-width:0.5;" width="243.2891" x="348.5" y="779"/><line style="stroke:#181818;stroke-width:0.5;" x1="348.5" x2="591.7891" y1="806.6094" y2="806.6094"/><text fill="#000000" font-family="sans-serif" font-size="14" lengthAdjust="spacing" textLength="223.2891" x="358.5" y="798.5332">MIS_PUBLICACIONES_ABIERTAS</text></g><!--link in1 to eliminarPublicacion--><g class="link" data-entity-1="ent0001" data-entity-2="ent0003" data-link-type="dependency" data-source-line="5" id="lnk7"><path d="M231.19,57.02 C236.7,75.41 243.5253,98.1902 253.0653,130.0402" fill="none" id="in1-to-eliminarPublicacion" style="stroke:#008000;stroke-width:1;"/><polygon fill="#008000" points="254.5,134.83,255.7494,125.0607,253.0653,130.0402,248.0858,127.3562,254.5,134.83" style="stroke:#008000;stroke-width:1;stroke-linejoin:miter;stroke-miterlimit:10;"/><text fill="#000000" font-family="sans-serif" font-size="13" lengthAdjust="spacing" textLength="120.6563" x="245" y="101.4951">eliminarPublicacion()</text></g><!--link in2 to eliminarPublicacion--><g class="link" data-entity-1="ent0002" data-entity-2="ent0003" data-link-type="dependency" data-source-line="6" id="lnk8"><path d="M446.81,57.02 C441.3,75.41 434.4747,98.1902 424.9347,130.0402" fill="none" id="in2-to-eliminarPublicacion" style="stroke:#008000;stroke-width:1;"/><polygon fill="#008000" points="423.5,134.83,429.9142,127.3562,424.9347,130.0402,422.2506,125.0607,423.5,134.83" style="stroke:#008000;stroke-width:1;stroke-linejoin:miter;stroke-miterlimit:10;"/><text fill="#000000" font-family="sans-serif" font-size="13" lengthAdjust="spacing" textLength="120.6563" x="438" y="101.4951">eliminarPublicacion()</text></g><!--link eliminarPublicacion to PUBLICACIONES_ABIERTAS--><g class="link" data-entity-1="ent0003" data-entity-2="ent0016" data-link-type="dependency" data-source-line="42" id="lnk17"><path d="M242.76,701.1 C231.93,732.85 224.165,755.618 217.885,774.018" fill="none" id="eliminarPublicacion-to-PUBLICACIONES_ABIERTAS" style="stroke:#008000;stroke-width:1;"/><polygon fill="#008000" points="216.27,778.75,222.9627,771.5245,217.885,774.018,215.3915,768.9404,216.27,778.75" style="stroke:#008000;stroke-width:1;stroke-linejoin:miter;stroke-miterlimit:10;"/><text fill="#000000" font-family="sans-serif" font-size="13" lengthAdjust="spacing" textLength="152.4834" x="231" y="745.4951">Publicacion global retirada</text></g><!--link eliminarPublicacion to MIS_PUBLICACIONES_ABIERTAS--><g class="link" data-entity-1="ent0003" data-entity-2="ent0018" data-link-type="dependency" data-source-line="43" id="lnk19"><path d="M435.24,701.1 C446.07,732.85 453.835,755.618 460.115,774.018" fill="none" id="eliminarPublicacion-to-MIS_PUBLICACIONES_ABIERTAS" style="stroke:#008000;stroke-width:1;"/><polygon fill="#008000" points="461.73,778.75,462.6085,768.9404,460.115,774.018,455.0373,771.5245,461.73,778.75" style="stroke:#008000;stroke-width:1;stroke-linejoin:miter;stroke-miterlimit:10;"/><text fill="#000000" font-family="sans-serif" font-size="13" lengthAdjust="spacing" textLength="153.9243" x="451" y="745.4951">Publicacion propia retirada</text></g><?plantuml-src dLHVQzim47_tfpYobssqbFLnb40Q-c1Osz1iUoaboDQbEofBugG4mjXttrdn4ZjHQ5Zo4elVtzF5uOsiLwmQC6GnRZo2TsRJFXH5Y2eYaFq2Ai1ezkFsMpcTJCl7XyNajhnx-ZuPxI3N2N9VBhAeLkBo-SCh8zgNop6WeOQiujcgCbIhcfo5hxdJZv-ALlj_kLsy7AMDcoMDu7S1yjbIH_8Lw4zaMWh4QZT3RYYuOypKsILnqsAUC18hhOv1FQiTAA6UFxyCQfvmj4wq9BvSq5iwkAd6K-TOIm_j-EQg6aDmOa5H0IS71hytJHoqEWbjdO-T1a5ErSebcLE8sAYKOjt9olJ1TxglnbNAW9QZNkWSspC6jDB1g7vysEpRhImqBjBQPJfbGWzAvQxXtF6IrLsjhRragZkxDYttzOQfCgw3LB83PursQt4u6erWN12IB9oM7wfkquKaa286vBK2jOgEILs8Yab431UmnFgN7EqAoVIz45HbyFpfCkhtMfnSLLc_Ml9aTq6C8g75myAfuC6S_nH5xjy-kFlz6-fk_kyTDPTtI9_GRUhkCjyJlI_dYxE4FJjF-otv2m00?></g></svg>