<svg xmlns="http://www.w3.org/2000/svg" xmlns:xlink="http://www.w3.org/1999/xlink" contentStyleType="text/css" data-diagram-type="STATE" height="756px" preserveAspectRatio="none" style="width:649px;height:756px;background:#FFFFFF;" version="1.1" viewBox="0 0 649 756" width="649px" zoomAndPan="magnify"><?plantuml 1.2026.5?><defs/><g><g class="entity" data-qualified-name="in2" data-source-line="4" id="ent0001"><rect fill="#F1F1F1" height="50" rx="12.5" ry="12.5" style="stroke:#181818;stroke-width:0.5;" width="182.5996" x="229" y="7"/><line style="stroke:#181818;stroke-width:0.5;" x1="229" x2="411.5996" y1="34.6094" y2="34.6094"/><text fill="#000000" font-family="sans-serif" font-size="14" lengthAdjust="spacing" textLength="162.5996" x="239" y="26.5332">PUBLICACION_ABIERTA</text></g><g class="entity" data-qualified-name="eliminarPublicacion" data-source-line="10" id="ent0002"><path d="M19.5,153 L621.5,153 A12.5,12.5 0 0 1 634,165.5 L634,180.6094 L7,180.6094 L7,165.5 A12.5,12.5 0 0 1 19.5,153" fill="#F1F1F1"/><rect fill="none" height="442.6094" rx="12.5" ry="12.5" style="stroke:#181818;stroke-width:0.5;" width="627" x="7" y="153"/><line style="stroke:#181818;stroke-width:0.5;" x1="7" x2="634" y1="180.6094" y2="180.6094"/><text fill="#000000" font-family="sans-serif" font-size="14" lengthAdjust="spacing" textLength="129.9375" x="255.5313" y="172.5332">eliminarPublicacion()</text><g class="entity" data-qualified-name="eliminarPublicacion.ConfirmandoRetirada" data-source-line="12" id="ent0003"><rect fill="#F1F1F1" height="50" rx="12.5" ry="12.5" style="stroke:#181818;stroke-width:0.5;" width="50" x="169" y="283.6094"/><line style="stroke:#181818;stroke-width:0.5;" x1="169" x2="219" y1="311.2188" y2="311.2188"/><text fill="#000000" font-family="sans-serif" font-size="14" lengthAdjust="spacing" textLength="3.8896" x="192.0552" y="303.1426">&#160;</text></g><g class="entity" data-qualified-name="eliminarPublicacion.PublicacionRetirada" data-source-line="13" id="ent0004"><rect fill="#F1F1F1" height="50" rx="12.5" ry="12.5" style="stroke:#181818;stroke-width:0.5;" width="50" x="19" y="438.6094"/><line style="stroke:#181818;stroke-width:0.5;" x1="19" x2="69" y1="466.2188" y2="466.2188"/><text fill="#000000" font-family="sans-serif" font-size="14" lengthAdjust="spacing" textLength="3.8896" x="42.0552" y="458.1426">&#160;</text></g><g class="start_entity" data-qualified-name="eliminarPublicacion..start.eliminarPublicacion" data-source-line="15" id="ent0006"><ellipse cx="194" cy="201.6094" fill="#222222" rx="10" ry="10" style="stroke:#222222;stroke-width:1;"/></g><g class="end_entity" data-qualified-name="eliminarPublicacion..end.eliminarPublicacion" data-source-line="27" id="ent0009"><ellipse cx="199" cy="571.6094" fill="none" rx="11" ry="11" style="stroke:#222222;stroke-width:1;"/><ellipse cx="199" cy="571.6094" fill="#222222" rx="6" ry="6" style="stroke:#222222;stroke-width:1;"/></g><!--link *start*eliminarPublicacion to ConfirmandoRetirada--><g class="link" data-entity-1="ent0006" data-entity-2="ent0003" data-link-type="dependency" data-source-line="15" id="lnk7"><path d="M194,211.9294 C194,227.7894 194,255.5194 194,278.2494" fill="none" id="*start*eliminarPublicacion-to-ConfirmandoRetirada" style="stroke:#008000;stroke-width:1;"/><polygon fill="#008000" points="194,283.2494,198,274.2494,194,278.2494,190,274.2494,194,283.2494" style="stroke:#008000;stroke-width:1;stroke-linejoin:miter;stroke-miterlimit:10;"/><path d="M199,234.6094 L199,260.6094 L447,260.6094 L447,244.6094 L437,234.6094 L199,234.6094" fill="#FEFFDD" style="stroke:#181818;stroke-width:0.5;"/><path d="M437,234.6094 L437,244.6094 L447,244.6094 L437,234.6094" fill="#FEFFDD" style="stroke:#181818;stroke-width:0.5;"/><text fill="#000000" font-family="sans-serif" font-size="13" font-weight="700" lengthAdjust="spacing" textLength="77.9937" x="205" y="253.1045">Coordinador</text><text fill="#000000" font-family="sans-serif" font-size="13" lengthAdjust="spacing" textLength="145.9517" x="286.6055" y="253.1045">solicita retirar publicaci&#243;n</text></g><!--link ConfirmandoRetirada to PublicacionRetirada--><g class="link" data-entity-1="ent0003" data-entity-2="ent0004" data-link-type="dependency" data-source-line="20" id="lnk8"><path d="M168.91,316.4494 C125.28,328.3494 40,351.6094 40,351.6094 C40,351.6094 40,420.6094 40,420.6094 C40,420.6094 40.316,423.9619 41.196,433.2019" fill="none" id="ConfirmandoRetirada-to-PublicacionRetirada" style="stroke:#008000;stroke-width:1;"/><polygon fill="#008000" points="41.67,438.1794,44.7987,428.8407,41.196,433.2019,36.8347,429.5992,41.67,438.1794" style="stroke:#008000;stroke-width:1;stroke-linejoin:miter;stroke-miterlimit:10;"/><path d="M45,356.6094 L45,415.6094 L331,415.6094 L331,366.6094 L321,356.6094 L45,356.6094" fill="#FEFFDD" style="stroke:#181818;stroke-width:0.5;"/><path d="M321,356.6094 L321,366.6094 L331,366.6094 L321,356.6094" fill="#FEFFDD" style="stroke:#181818;stroke-width:0.5;"/><text fill="#000000" font-family="sans-serif" font-size="13" font-weight="700" lengthAdjust="spacing" textLength="49.8608" x="51" y="375.1045">Sistema</text><text fill="#000000" font-family="sans-serif" font-size="13" lengthAdjust="spacing" textLength="193.6606" x="104.4727" y="375.1045">presenta confirmaci&#243;n de retirada</text><text fill="#000000" font-family="sans-serif" font-size="13" font-weight="700" lengthAdjust="spacing" textLength="77.9937" x="51" y="391.4561">Coordinador</text><text fill="#000000" font-family="sans-serif" font-size="13" lengthAdjust="spacing" textLength="145.2153" x="132.6055" y="391.4561">solicita confirmar retirada</text><text fill="#000000" font-family="sans-serif" font-size="13" font-weight="700" lengthAdjust="spacing" textLength="49.8608" x="51" y="407.8076">Sistema</text><text fill="#000000" font-family="sans-serif" font-size="13" lengthAdjust="spacing" textLength="212.4688" x="104.4727" y="407.8076">presenta la retirada de la publicaci&#243;n</text></g><!--link ConfirmandoRetirada to *end*eliminarPublicacion--><g class="link" data-entity-1="ent0003" data-entity-2="ent0009" data-link-type="dependency" data-source-line="27" id="lnk10"><path d="M219.06,317.0194 C259.83,329.0794 336,351.6094 336,351.6094 C336,351.6094 336,542.6094 336,542.6094 C336,542.6094 246.9488,560.8084 214.6488,567.4084" fill="none" id="ConfirmandoRetirada-to-*end*eliminarPublicacion" style="stroke:#FF0000;stroke-width:1;"/><polygon fill="#FF0000" points="209.75,568.4094,219.3686,570.5266,214.6488,567.4084,217.767,562.6886,209.75,568.4094" style="stroke:#FF0000;stroke-width:1;stroke-linejoin:miter;stroke-miterlimit:10;"/><path d="M341,450.6094 L341,476.6094 L610,476.6094 L610,460.6094 L600,450.6094 L341,450.6094" fill="#FEFFDD" style="stroke:#181818;stroke-width:0.5;"/><path d="M600,450.6094 L600,460.6094 L610,460.6094 L600,450.6094" fill="#FEFFDD" style="stroke:#181818;stroke-width:0.5;"/><text fill="#000000" font-family="sans-serif" font-size="13" font-weight="700" lengthAdjust="spacing" textLength="77.9937" x="347" y="469.1045">Coordinador</text><text fill="#000000" font-family="sans-serif" font-size="13" lengthAdjust="spacing" textLength="166.9243" x="428.6055" y="469.1045">solicita cancelar la operaci&#243;n</text></g><!--link PublicacionRetirada to *end*eliminarPublicacion--><g class="link" data-entity-1="ent0004" data-entity-2="ent0009" data-link-type="dependency" data-source-line="32" id="lnk11"><path d="M48.35,488.8594 C52.46,511.7594 58,542.6094 58,542.6094 C58,542.6094 150.706,561.0143 183.496,567.5343" fill="none" id="PublicacionRetirada-to-*end*eliminarPublicacion" style="stroke:#008000;stroke-width:1;"/><polygon fill="#008000" points="188.4,568.5094,180.3529,562.831,183.496,567.5343,178.7927,570.6774,188.4,568.5094" style="stroke:#008000;stroke-width:1;stroke-linejoin:miter;stroke-miterlimit:10;"/><path d="M63,511.6094 L63,537.6094 L331,537.6094 L331,521.6094 L321,511.6094 L63,511.6094" fill="#FEFFDD" style="stroke:#181818;stroke-width:0.5;"/><path d="M321,511.6094 L321,521.6094 L331,521.6094 L321,511.6094" fill="#FEFFDD" style="stroke:#181818;stroke-width:0.5;"/><text fill="#000000" font-family="sans-serif" font-size="13" font-weight="700" lengthAdjust="spacing" textLength="49.8608" x="69" y="530.1045">Sistema</text><text fill="#000000" font-family="sans-serif" font-size="13" lengthAdjust="spacing" textLength="193.6606" x="122.4727" y="530.1045">presenta confirmaci&#243;n de retirada</text></g></g><g class="entity" data-qualified-name="PUBLICACIONES_ABIERTAS" data-source-line="40" id="ent0012"><rect fill="#F1F1F1" height="50" rx="12.5" ry="12.5" style="stroke:#181818;stroke-width:0.5;" width="210.6133" x="215" y="692"/><line style="stroke:#181818;stroke-width:0.5;" x1="215" x2="425.6133" y1="719.6094" y2="719.6094"/><text fill="#000000" font-family="sans-serif" font-size="14" lengthAdjust="spacing" textLength="190.6133" x="225" y="711.5332">PUBLICACIONES_ABIERTAS</text></g><!--link in2 to eliminarPublicacion--><g class="link" data-entity-1="ent0001" data-entity-2="ent0002" data-link-type="dependency" data-source-line="5" id="lnk5"><path d="M320.5,57.21 C320.5,79.25 320.5,109.16 320.5,147.91" fill="none" id="in2-to-eliminarPublicacion" style="stroke:#008000;stroke-width:1;"/><polygon fill="#008000" points="320.5,152.91,324.5,143.91,320.5,147.91,316.5,143.91,320.5,152.91" style="stroke:#008000;stroke-width:1;stroke-linejoin:miter;stroke-miterlimit:10;"/><path d="M325.5,92 L325.5,118 L466.5,118 L466.5,102 L456.5,92 L325.5,92" fill="#FEFFDD" style="stroke:#181818;stroke-width:0.5;"/><path d="M456.5,92 L456.5,102 L466.5,102 L456.5,92" fill="#FEFFDD" style="stroke:#181818;stroke-width:0.5;"/><text fill="#000000" font-family="sans-serif" font-size="13" lengthAdjust="spacing" textLength="120.6563" x="331.5" y="110.4951">eliminarPublicacion()</text></g><!--link eliminarPublicacion to PUBLICACIONES_ABIERTAS--><g class="link" data-entity-1="ent0002" data-entity-2="ent0012" data-link-type="dependency" data-source-line="40" id="lnk13"><path d="M320.5,596.43 C320.5,634.92 320.5,664.6 320.5,686.58" fill="none" id="eliminarPublicacion-to-PUBLICACIONES_ABIERTAS" style="stroke:#008000;stroke-width:1;"/><polygon fill="#008000" points="320.5,691.58,324.5,682.58,320.5,686.58,316.5,682.58,320.5,691.58" style="stroke:#008000;stroke-width:1;stroke-linejoin:miter;stroke-miterlimit:10;"/><path d="M325.5,631 L325.5,657 L460.5,657 L460.5,641 L450.5,631 L325.5,631" fill="#FEFFDD" style="stroke:#181818;stroke-width:0.5;"/><path d="M450.5,631 L450.5,641 L460.5,641 L450.5,631" fill="#FEFFDD" style="stroke:#181818;stroke-width:0.5;"/><text fill="#000000" font-family="sans-serif" font-size="13" lengthAdjust="spacing" textLength="114.8799" x="331.5" y="649.4951">abrirPublicaciones()</text></g><?plantuml-src dLF1IiD04BtlLmpnea8HF9T26teeY9PMJwN893lAqcGspCP34R_AJ_37t8rDsz1DmMvEaxmtxxtPZDiOhb2mXC8mrTkAeBB5DXHAkHfh0iFtW0wI-SlaOPQEqzdJu-juCfikdiU92Xy7gwjt8UBrO0HKcD8molmZAqoEkR6isFekbeF2HaK0rpUAM4E0jPeHLECXoaxWKodmvu-R-CTZKyjlHafaRHTK6q6Dfw2ZFdjGWrhThZkv-hfrieKNmsoKMYlQkzHMXdVP29pr6gP6a8OfKBMgFz_Sa0xnGnNHwdY9cUxpiZIkfX8R7vMG8_O-yfr0Om0qxOpjsfnBq3BbX18LAd2F2pA-l2owa0x1_QNyV-WvSaw5T-pLRKNIgnqPQsVivzGl6FDU_4lv4_lXEtT-MBxfibs_PNUrC1Dpt83SyMRz0W00?></g></svg>