<svg xmlns="http://www.w3.org/2000/svg" xmlns:xlink="http://www.w3.org/1999/xlink" contentStyleType="text/css" height="832px" preserveAspectRatio="none" style="width:669px;height:832px;background:#FFFFFF;" version="1.1" viewBox="0 0 669 832" width="669px" zoomAndPan="magnify"><defs/><g><g id="in1"><rect fill="#F1F1F1" height="50" rx="12.5" ry="12.5" style="stroke:#181818;stroke-width:0.5;" width="182.5996" x="125" y="7"/><line style="stroke:#181818;stroke-width:0.5;" x1="125" x2="307.5996" y1="34.6094" y2="34.6094"/><text fill="#000000" font-family="sans-serif" font-size="14" lengthAdjust="spacing" textLength="162.5996" x="135" y="26.5332">PUBLICACION_ABIERTA</text></g><g id="in2"><rect fill="#F1F1F1" height="50" rx="12.5" ry="12.5" style="stroke:#181818;stroke-width:0.5;" width="205.9375" x="343.5" y="7"/><line style="stroke:#181818;stroke-width:0.5;" x1="343.5" x2="549.4375" y1="34.6094" y2="34.6094"/><text fill="#000000" font-family="sans-serif" font-size="14" lengthAdjust="spacing" textLength="185.9375" x="353.5" y="26.5332">MI_PUBLICACION_ABIERTA</text></g><path d="M19.5,135 L643.5,135 A12.5,12.5 0 0 1 656,147.5 L656,162.6094 L7,162.6094 L7,147.5 A12.5,12.5 0 0 1 19.5,135 " fill="#F1F1F1" style="stroke:#F1F1F1;stroke-width:1;"/><rect fill="none" height="562.6094" rx="12.5" ry="12.5" style="stroke:#181818;stroke-width:0.5;" width="649" x="7" y="135"/><line style="stroke:#181818;stroke-width:0.5;" x1="7" x2="656" y1="162.6094" y2="162.6094"/><text fill="#000000" font-family="sans-serif" font-size="14" lengthAdjust="spacing" textLength="129.9375" x="266.5313" y="154.5332">eliminarPublicacion()</text><g id="eliminarPublicacion.VerificandoPermiso"><rect fill="#F1F1F1" height="50" rx="12.5" ry="12.5" style="stroke:#181818;stroke-width:0.5;" width="50" x="202" y="265.6094"/><line style="stroke:#181818;stroke-width:0.5;" x1="202" x2="252" y1="293.2188" y2="293.2188"/><text fill="#000000" font-family="sans-serif" font-size="14" lengthAdjust="spacing" textLength="3.8896" x="225.0552" y="285.1426">&#160;</text></g><g id="eliminarPublicacion.ConfirmandoRetirada"><rect fill="#F1F1F1" height="50" rx="12.5" ry="12.5" style="stroke:#181818;stroke-width:0.5;" width="50" x="202" y="403.6094"/><line style="stroke:#181818;stroke-width:0.5;" x1="202" x2="252" y1="431.2188" y2="431.2188"/><text fill="#000000" font-family="sans-serif" font-size="14" lengthAdjust="spacing" textLength="3.8896" x="225.0552" y="423.1426">&#160;</text></g><g id="eliminarPublicacion.PublicacionRetirada"><rect fill="#F1F1F1" height="50" rx="12.5" ry="12.5" style="stroke:#181818;stroke-width:0.5;" width="50" x="19" y="526.6094"/><line style="stroke:#181818;stroke-width:0.5;" x1="19" x2="69" y1="554.2188" y2="554.2188"/><text fill="#000000" font-family="sans-serif" font-size="14" lengthAdjust="spacing" textLength="3.8896" x="42.0552" y="546.1426">&#160;</text></g><ellipse cx="227" cy="183.6094" fill="#222222" rx="10" ry="10" style="stroke:#222222;stroke-width:1;"/><ellipse cx="215" cy="676.6094" fill="none" rx="11" ry="11" style="stroke:#222222;stroke-width:1;"/><ellipse cx="215" cy="676.6094" fill="#222222" rx="6" ry="6" style="stroke:#222222;stroke-width:1;"/><!--link *start*eliminarPublicacion to VerificandoPermiso--><g id="link_*start*eliminarPublicacion_VerificandoPermiso"><path d="M227,193.9294 C227,209.7894 227,236.5194 227,259.2494 " fill="none" id="*start*eliminarPublicacion-to-VerificandoPermiso" style="stroke:#008000;stroke-width:1;"/><polygon fill="#008000" points="227,265.2494,231,256.2494,227,260.2494,223,256.2494,227,265.2494" style="stroke:#008000;stroke-width:1;"/><path d="M232,216.6094 L232,242.6094 L480,242.6094 L480,226.6094 L470,216.6094 L232,216.6094 " fill="#FEFFDD" style="stroke:#181818;stroke-width:0.5;"/><path d="M470,216.6094 L470,226.6094 L480,226.6094 L470,216.6094 " fill="#FEFFDD" style="stroke:#181818;stroke-width:0.5;"/><text fill="#000000" font-family="sans-serif" font-size="13" font-weight="bold" lengthAdjust="spacing" textLength="77.9937" x="238" y="235.1045">Coordinador</text><text fill="#000000" font-family="sans-serif" font-size="13" lengthAdjust="spacing" textLength="145.9517" x="319.6055" y="235.1045">solicita retirar publicacion</text></g><!--link VerificandoPermiso to ConfirmandoRetirada--><g id="link_VerificandoPermiso_ConfirmandoRetirada"><path d="M227,315.6094 C227,340.3194 227,372.6094 227,397.3894 " fill="none" id="VerificandoPermiso-to-ConfirmandoRetirada" style="stroke:#008000;stroke-width:1;"/><polygon fill="#008000" points="227,403.3894,231,394.3894,227,398.3894,223,394.3894,227,403.3894" style="stroke:#008000;stroke-width:1;"/><path d="M232,338.6094 L232,380.6094 L552,380.6094 L552,348.6094 L542,338.6094 L232,338.6094 " fill="#FEFFDD" style="stroke:#181818;stroke-width:0.5;"/><path d="M542,338.6094 L542,348.6094 L552,348.6094 L542,338.6094 " fill="#FEFFDD" style="stroke:#181818;stroke-width:0.5;"/><text fill="#000000" font-family="sans-serif" font-size="13" font-weight="bold" lengthAdjust="spacing" textLength="49.8608" x="238" y="357.1045">Sistema</text><text fill="#000000" font-family="sans-serif" font-size="13" lengthAdjust="spacing" textLength="239.1797" x="291.4727" y="357.1045">verifica el permiso global del Coordinador</text><text fill="#000000" font-family="sans-serif" font-size="13" font-weight="bold" lengthAdjust="spacing" textLength="49.8608" x="238" y="373.4561">Sistema</text><text fill="#000000" font-family="sans-serif" font-size="13" lengthAdjust="spacing" textLength="246.4097" x="291.4727" y="373.4561">presenta la publicacion y solicita un motivo</text></g><!--link ConfirmandoRetirada to PublicacionRetirada--><g id="link_ConfirmandoRetirada_PublicacionRetirada"><path d="M201.81,436.2694 C156.97,448.1094 68,471.6094 68,471.6094 C68,471.6094 60.1347,497.5086 53.0747,520.7386 " fill="none" id="ConfirmandoRetirada-to-PublicacionRetirada" style="stroke:#008000;stroke-width:1;"/><polygon fill="#008000" points="51.33,526.4794,57.7742,519.0314,52.7839,521.6954,50.1199,516.7051,51.33,526.4794" style="stroke:#008000;stroke-width:1;"/><path d="M73,476.6094 L73,502.6094 L390,502.6094 L390,486.6094 L380,476.6094 L73,476.6094 " fill="#FEFFDD" style="stroke:#181818;stroke-width:0.5;"/><path d="M380,476.6094 L380,486.6094 L390,486.6094 L380,476.6094 " fill="#FEFFDD" style="stroke:#181818;stroke-width:0.5;"/><text fill="#000000" font-family="sans-serif" font-size="13" font-weight="bold" lengthAdjust="spacing" textLength="77.9937" x="79" y="495.1045">Coordinador</text><text fill="#000000" font-family="sans-serif" font-size="13" lengthAdjust="spacing" textLength="214.5889" x="160.6055" y="495.1045">indica el motivo y confirma la retirada</text></g><!--link PublicacionRetirada to *end*eliminarPublicacion--><g id="link_PublicacionRetirada_*end*eliminarPublicacion"><path d="M32.27,576.6194 C27.46,586.4694 23,595.6094 23,595.6094 C23,595.6094 23,647.6094 23,647.6094 C23,647.6094 157.5727,667.2341 198.1927,673.1541 " fill="none" id="PublicacionRetirada-to-*end*eliminarPublicacion" style="stroke:#008000;stroke-width:1;"/><polygon fill="#008000" points="204.13,674.0194,195.801,668.7632,199.1823,673.2983,194.6472,676.6796,204.13,674.0194" style="stroke:#008000;stroke-width:1;"/><path d="M28,600.6094 L28,642.6094 L390,642.6094 L390,610.6094 L380,600.6094 L28,600.6094 " fill="#FEFFDD" style="stroke:#181818;stroke-width:0.5;"/><path d="M380,600.6094 L380,610.6094 L390,610.6094 L380,600.6094 " fill="#FEFFDD" style="stroke:#181818;stroke-width:0.5;"/><text fill="#000000" font-family="sans-serif" font-size="13" font-weight="bold" lengthAdjust="spacing" textLength="49.8608" x="34" y="619.1045">Sistema</text><text fill="#000000" font-family="sans-serif" font-size="13" lengthAdjust="spacing" textLength="242.0679" x="87.4727" y="619.1045">retira la publicacion de los listados activos</text><text fill="#000000" font-family="sans-serif" font-size="13" lengthAdjust="spacing" textLength="341.7896" x="34" y="635.4561">y conserva autoria, relaciones, fecha, motivo y responsable</text></g><!--link ConfirmandoRetirada to *end*eliminarPublicacion--><g id="link_ConfirmandoRetirada_*end*eliminarPublicacion"><path d="M252.15,435.8994 C299.02,447.6094 395,471.6094 395,471.6094 C395,471.6094 395,647.6094 395,647.6094 C395,647.6094 270.3986,666.9868 231.6486,673.0168 " fill="none" id="ConfirmandoRetirada-to-*end*eliminarPublicacion" style="stroke:#FF0000;stroke-width:1;"/><polygon fill="#FF0000" points="225.72,673.9394,235.228,676.5079,230.6605,673.1706,233.9979,668.6031,225.72,673.9394" style="stroke:#FF0000;stroke-width:1;"/><path d="M400,530.6094 L400,572.6094 L647,572.6094 L647,540.6094 L637,530.6094 L400,530.6094 " fill="#FEFFDD" style="stroke:#181818;stroke-width:0.5;"/><path d="M637,530.6094 L637,540.6094 L647,540.6094 L637,530.6094 " fill="#FEFFDD" style="stroke:#181818;stroke-width:0.5;"/><text fill="#000000" font-family="sans-serif" font-size="13" font-weight="bold" lengthAdjust="spacing" textLength="77.9937" x="406" y="549.1045">Coordinador</text><text fill="#000000" font-family="sans-serif" font-size="13" lengthAdjust="spacing" textLength="92.4854" x="487.6055" y="549.1045">solicita cancelar</text><text fill="#000000" font-family="sans-serif" font-size="13" font-weight="bold" lengthAdjust="spacing" textLength="49.8608" x="406" y="565.4561">Sistema</text><text fill="#000000" font-family="sans-serif" font-size="13" lengthAdjust="spacing" textLength="173.437" x="459.4727" y="565.4561">mantiene la publicacion activa</text></g><g id="PUBLICACIONES_ABIERTAS"><rect fill="#F1F1F1" height="50" rx="12.5" ry="12.5" style="stroke:#181818;stroke-width:0.5;" width="210.6133" x="95" y="776"/><line style="stroke:#181818;stroke-width:0.5;" x1="95" x2="305.6133" y1="803.6094" y2="803.6094"/><text fill="#000000" font-family="sans-serif" font-size="14" lengthAdjust="spacing" textLength="190.6133" x="105" y="795.5332">PUBLICACIONES_ABIERTAS</text></g><g id="MIS_PUBLICACIONES_ABIERTAS"><rect fill="#F1F1F1" height="50" rx="12.5" ry="12.5" style="stroke:#181818;stroke-width:0.5;" width="243.2891" x="341" y="776"/><line style="stroke:#181818;stroke-width:0.5;" x1="341" x2="584.2891" y1="803.6094" y2="803.6094"/><text fill="#000000" font-family="sans-serif" font-size="14" lengthAdjust="spacing" textLength="223.2891" x="351" y="795.5332">MIS_PUBLICACIONES_ABIERTAS</text></g><!--link in1 to eliminarPublicacion--><g id="link_in1_eliminarPublicacion"><path d="M223.78,57.22 C229.31,75.61 235.8541,97.3536 245.3841,129.0836 " fill="none" id="in1-to-eliminarPublicacion" style="stroke:#008000;stroke-width:1;"/><polygon fill="#008000" points="247.11,134.83,248.3521,125.0598,245.6717,130.0413,240.6902,127.361,247.11,134.83" style="stroke:#008000;stroke-width:1;"/><text fill="#000000" font-family="sans-serif" font-size="13" lengthAdjust="spacing" textLength="120.6563" x="237.5" y="101.4951">eliminarPublicacion()</text></g><!--link in2 to eliminarPublicacion--><g id="link_in2_eliminarPublicacion"><path d="M439.22,57.22 C433.69,75.61 427.1459,97.3536 417.6159,129.0836 " fill="none" id="in2-to-eliminarPublicacion" style="stroke:#008000;stroke-width:1;"/><polygon fill="#008000" points="415.89,134.83,422.3098,127.361,417.3283,130.0413,414.6479,125.0598,415.89,134.83" style="stroke:#008000;stroke-width:1;"/><text fill="#000000" font-family="sans-serif" font-size="13" lengthAdjust="spacing" textLength="120.6563" x="430.5" y="101.4951">eliminarPublicacion()</text></g><!--link eliminarPublicacion to PUBLICACIONES_ABIERTAS--><g id="link_eliminarPublicacion_PUBLICACIONES_ABIERTAS"><path d="M235.35,698.25 C224.49,729.94 217.0355,751.7242 210.7355,770.1042 " fill="none" id="eliminarPublicacion-to-PUBLICACIONES_ABIERTAS" style="stroke:#008000;stroke-width:1;"/><polygon fill="#008000" points="208.79,775.78,215.4921,768.5632,210.4112,771.0501,207.9243,765.9693,208.79,775.78" style="stroke:#008000;stroke-width:1;"/><text fill="#000000" font-family="sans-serif" font-size="13" lengthAdjust="spacing" textLength="152.4834" x="223.5" y="742.4951">Publicacion global retirada</text></g><!--link eliminarPublicacion to MIS_PUBLICACIONES_ABIERTAS--><g id="link_eliminarPublicacion_MIS_PUBLICACIONES_ABIERTAS"><path d="M427.65,698.25 C438.51,729.94 445.9645,751.7242 452.2645,770.1042 " fill="none" id="eliminarPublicacion-to-MIS_PUBLICACIONES_ABIERTAS" style="stroke:#008000;stroke-width:1;"/><polygon fill="#008000" points="454.21,775.78,455.0757,765.9693,452.5888,771.0501,447.5079,768.5632,454.21,775.78" style="stroke:#008000;stroke-width:1;"/><text fill="#000000" font-family="sans-serif" font-size="13" lengthAdjust="spacing" textLength="153.9243" x="443.5" y="742.4951">Publicacion propia retirada</text></g><!--SRC=[dLHVQzim47_tfpYobssqbFLnb40Q-c1Osz1iUoaboDQbEofBugG4mjXttrdn4ZjHQ5Zo4elVtzF5uOsiLwmQC6GnRZo2TsRJFXH5Y2eYaFq2Ai1ezkFsMpcTJCl7XyNajhnx-ZuPxI3N2N9VBhAeLkBo-SCh8zgNop6WeOQiujcgCbIhcfo5hxdJZv-ALlj_kLsy7AMDcoMDu7S1yjbIH_8Lw4zaMWh4QZT3RYYuOypKsILnqsAUC18hhOv1FQiTAA6UFxyCQfvmj4wq9BvSq5iwkAd6K-TOIm_j-EQg6aDmOa5H0IS71hytJHoqEWbjdO-T1a5ErSebcLE8sAYKOjt9olJ1TxglnbNAW9QZNkWSspC6jDB1g7vysEpRhImqBjBQPJfbGWzAvQxXtF6IrLsjhRragZkxDYttzOQfCgw3LB83PursQt4u6erWN12IB9oM7wfkquKaa286vBK2jOgEILs8Yab431UmnFgN7EqAoVIz45HbyFpfCkhtMfnSLLc_Ml9aTq6C8g75myAfuC6S_nH5xjy-kFlz6-fk_kyTDPTtI9_GRUhkCjyJlI_dYxE4FJjF-otv2m00]--></g></svg>