<svg xmlns="http://www.w3.org/2000/svg" xmlns:xlink="http://www.w3.org/1999/xlink" contentStyleType="text/css" data-diagram-type="STATE" height="805px" preserveAspectRatio="none" style="width:1290px;height:805px;background:#FFFFFF;" version="1.1" viewBox="0 0 1290 805" width="1290px" zoomAndPan="magnify"><?plantuml 1.2026.6?><defs/><g><g class="entity" data-qualified-name="in1" data-source-line="4" id="ent0001"><rect fill="#F1F1F1" height="50" rx="12.5" ry="12.5" style="stroke:#181818;stroke-width:0.5;" width="195.0342" x="217.5" y="7"/><line style="stroke:#181818;stroke-width:0.5;" x1="217.5" x2="412.5342" y1="34.6094" y2="34.6094"/><text fill="#000000" font-family="sans-serif" font-size="14" lengthAdjust="spacing" textLength="175.0342" x="227.5" y="26.5332">INVESTIGADOR_ABIERTO</text></g><g class="entity" data-qualified-name="in2" data-source-line="11" id="ent0002"><rect fill="#F1F1F1" height="50" rx="12.5" ry="12.5" style="stroke:#181818;stroke-width:0.5;" width="216.8477" x="447.5" y="7"/><line style="stroke:#181818;stroke-width:0.5;" x1="447.5" x2="664.3477" y1="34.6094" y2="34.6094"/><text fill="#000000" font-family="sans-serif" font-size="14" lengthAdjust="spacing" textLength="196.8477" x="457.5" y="26.5332">PANEL_PRINCIPAL_ABIERTO</text></g><g class="entity" data-qualified-name="in3" data-source-line="18" id="ent0003"><rect fill="#F1F1F1" height="50" rx="12.5" ry="12.5" style="stroke:#181818;stroke-width:0.5;" width="345.9785" x="700" y="7"/><line style="stroke:#181818;stroke-width:0.5;" x1="700" x2="1045.9785" y1="34.6094" y2="34.6094"/><text fill="#000000" font-family="sans-serif" font-size="14" lengthAdjust="spacing" textLength="325.9785" x="710" y="26.5332">SOLICITUDES_ELIMINACION_PERFIL_ABIERTAS</text></g><g class="entity" data-qualified-name="abrirOpcionesPerfil" data-source-line="26" id="ent0004"><path d="M376,153 L736,153 A12.5,12.5 0 0 1 748.5,165.5 L748.5,180.6094 L363.5,180.6094 L363.5,165.5 A12.5,12.5 0 0 1 376,153" fill="#F1F1F1"/><rect fill="none" height="491.6094" rx="12.5" ry="12.5" style="stroke:#181818;stroke-width:0.5;" width="385" x="363.5" y="153"/><line style="stroke:#181818;stroke-width:0.5;" x1="363.5" x2="748.5" y1="180.6094" y2="180.6094"/><text fill="#000000" font-family="sans-serif" font-size="14" lengthAdjust="spacing" textLength="128.3721" x="491.814" y="172.5332">abrirOpcionesPerfil()</text><g class="entity" data-qualified-name="abrirOpcionesPerfil.MostrandoLista" data-source-line="28" id="ent0005"><rect fill="#F1F1F1" height="50" rx="12.5" ry="12.5" style="stroke:#181818;stroke-width:0.5;" width="50" x="375.5" y="283.6094"/><line style="stroke:#181818;stroke-width:0.5;" x1="375.5" x2="425.5" y1="311.2188" y2="311.2188"/><text fill="#000000" font-family="sans-serif" font-size="14" lengthAdjust="spacing" textLength="3.8896" x="398.5552" y="303.1426">&#160;</text></g><g class="entity" data-qualified-name="abrirOpcionesPerfil.FiltrandoLista" data-source-line="29" id="ent0006"><rect fill="#F1F1F1" height="50" rx="12.5" ry="12.5" style="stroke:#181818;stroke-width:0.5;" width="50" x="375.5" y="487.6094"/><line style="stroke:#181818;stroke-width:0.5;" x1="375.5" x2="425.5" y1="515.2188" y2="515.2188"/><text fill="#000000" font-family="sans-serif" font-size="14" lengthAdjust="spacing" textLength="3.8896" x="398.5552" y="507.1426">&#160;</text></g><g class="start_entity" data-qualified-name="abrirOpcionesPerfil..start.abrirOpcionesPerfil" data-source-line="31" id="ent0010"><ellipse cx="400.5" cy="201.6094" fill="#222222" rx="10" ry="10" style="stroke:#222222;stroke-width:1;"/></g><g class="end_entity" data-qualified-name="abrirOpcionesPerfil..end.abrirOpcionesPerfil" data-source-line="46" id="ent0013"><ellipse cx="400.5" cy="620.6094" fill="none" rx="11" ry="11" style="stroke:#222222;stroke-width:1;"/><ellipse cx="400.5" cy="620.6094" fill="#222222" rx="6" ry="6" style="stroke:#222222;stroke-width:1;"/></g><!--link *start*abrirOpcionesPerfil to MostrandoLista--><g class="link" data-entity-1="ent0010" data-entity-2="ent0005" data-link-type="dependency" data-source-line="31" id="lnk11"><path d="M400.5,211.9294 C400.5,227.7894 400.5,255.5194 400.5,278.2494" fill="none" id="*start*abrirOpcionesPerfil-to-MostrandoLista" style="stroke:#008000;stroke-width:1;"/><polygon fill="#008000" points="400.5,283.2494,404.5,274.2494,400.5,278.2494,396.5,274.2494,400.5,283.2494" style="stroke:#008000;stroke-width:1;stroke-linejoin:miter;stroke-miterlimit:10;"/><path d="M405.5,234.6094 L405.5,260.6094 L664.5,260.6094 L664.5,244.6094 L654.5,234.6094 L405.5,234.6094" fill="#FEFFDD" style="stroke:#181818;stroke-width:0.5;"/><path d="M654.5,234.6094 L654.5,244.6094 L664.5,244.6094 L654.5,234.6094" fill="#FEFFDD" style="stroke:#181818;stroke-width:0.5;"/><text fill="#000000" font-family="sans-serif" font-size="13" font-weight="700" lengthAdjust="spacing" textLength="77.9937" x="411.5" y="253.1045">Coordinador</text><text fill="#000000" font-family="sans-serif" font-size="13" lengthAdjust="spacing" textLength="156.7935" x="493.1055" y="253.1045">solicita abrir opciones perfil</text></g><!--link MostrandoLista to FiltrandoLista--><g class="link" data-entity-1="ent0005" data-entity-2="ent0006" data-link-type="dependency" data-source-line="36" id="lnk12"><path d="M400.5,333.9794 C400.5,372.9094 400.5,443.6894 400.5,482.4694" fill="none" id="MostrandoLista-to-FiltrandoLista" style="stroke:#008000;stroke-width:1;"/><polygon fill="#008000" points="400.5,487.4694,404.5,478.4694,400.5,482.4694,396.5,478.4694,400.5,487.4694" style="stroke:#008000;stroke-width:1;stroke-linejoin:miter;stroke-miterlimit:10;"/><path d="M405.5,356.6094 L405.5,464.6094 L724.5,464.6094 L724.5,366.6094 L714.5,356.6094 L405.5,356.6094" fill="#FEFFDD" style="stroke:#181818;stroke-width:0.5;"/><path d="M714.5,356.6094 L714.5,366.6094 L724.5,366.6094 L714.5,356.6094" fill="#FEFFDD" style="stroke:#181818;stroke-width:0.5;"/><text fill="#000000" font-family="sans-serif" font-size="13" font-weight="700" lengthAdjust="spacing" textLength="49.8608" x="411.5" y="375.1045">Sistema</text><text fill="#000000" font-family="sans-serif" font-size="13" lengthAdjust="spacing" textLength="244.9878" x="464.9727" y="375.1045">presenta las opciones disponibles en perfil</text><text fill="#000000" font-family="sans-serif" font-size="13" lengthAdjust="spacing" textLength="243.02" x="411.5" y="391.4561">&#8226; ID, nombre, campo de cada investigador</text><text fill="#000000" font-family="sans-serif" font-size="13" lengthAdjust="spacing" textLength="169.2793" x="411.5" y="407.8076">&#8226; Permite solicitar editar perfil</text><text fill="#000000" font-family="sans-serif" font-size="13" lengthAdjust="spacing" textLength="270.4292" x="411.5" y="424.1592">&#8226; Permite solicitar resolver solicitud eliminacion</text><text fill="#000000" font-family="sans-serif" font-size="13" lengthAdjust="spacing" textLength="240.8237" x="411.5" y="440.5107">&#8226; Permite solicitar volver al panel principal</text><text fill="#000000" font-family="sans-serif" font-size="13" lengthAdjust="spacing" textLength="227.0874" x="411.5" y="456.8623">&#8226; Permite solicitar volver al investigador</text></g><!--link FiltrandoLista to *end*abrirOpcionesPerfil--><g class="link" data-entity-1="ent0006" data-entity-2="ent0013" data-link-type="dependency" data-source-line="46" id="lnk14"><path d="M400.5,537.6594 C400.5,560.2594 400.5,587.9894 400.5,604.4094" fill="none" id="FiltrandoLista-to-*end*abrirOpcionesPerfil" style="stroke:#008000;stroke-width:1;"/><polygon fill="#008000" points="400.5,609.4094,404.5,600.4094,400.5,604.4094,396.5,600.4094,400.5,609.4094" style="stroke:#008000;stroke-width:1;stroke-linejoin:miter;stroke-miterlimit:10;"/><path d="M405.5,560.6094 L405.5,586.6094 L666.5,586.6094 L666.5,570.6094 L656.5,560.6094 L405.5,560.6094" fill="#FEFFDD" style="stroke:#181818;stroke-width:0.5;"/><path d="M656.5,560.6094 L656.5,570.6094 L666.5,570.6094 L656.5,560.6094" fill="#FEFFDD" style="stroke:#181818;stroke-width:0.5;"/><text fill="#000000" font-family="sans-serif" font-size="13" font-weight="700" lengthAdjust="spacing" textLength="77.9937" x="411.5" y="579.1045">Coordinador</text><text fill="#000000" font-family="sans-serif" font-size="13" lengthAdjust="spacing" textLength="158.9897" x="493.1055" y="579.1045">solicita una de las opciones</text></g></g><g class="entity" data-qualified-name="OPCIONES_PERFIL_ABIERTO" data-source-line="52" id="ent0015"><rect fill="#F1F1F1" height="50" rx="12.5" ry="12.5" style="stroke:#181818;stroke-width:0.5;" width="219.9443" x="7" y="741"/><line style="stroke:#181818;stroke-width:0.5;" x1="7" x2="226.9443" y1="768.6094" y2="768.6094"/><text fill="#000000" font-family="sans-serif" font-size="14" lengthAdjust="spacing" textLength="199.9443" x="17" y="760.5332">OPCIONES_PERFIL_ABIERTO</text></g><g class="entity" data-qualified-name="SESION_CERRADA" data-source-line="58" id="ent0017"><rect fill="#F1F1F1" height="50" rx="12.5" ry="12.5" style="stroke:#181818;stroke-width:0.5;" width="149.1445" x="262.5" y="741"/><line style="stroke:#181818;stroke-width:0.5;" x1="262.5" x2="411.6445" y1="768.6094" y2="768.6094"/><text fill="#000000" font-family="sans-serif" font-size="14" lengthAdjust="spacing" textLength="129.1445" x="272.5" y="760.5332">SESION_CERRADA</text></g><g class="entity" data-qualified-name="PANEL_PRINCIPAL_ABIERTO" data-source-line="65" id="ent0019"><rect fill="#F1F1F1" height="50" rx="12.5" ry="12.5" style="stroke:#181818;stroke-width:0.5;" width="216.8477" x="447.5" y="741"/><line style="stroke:#181818;stroke-width:0.5;" x1="447.5" x2="664.3477" y1="768.6094" y2="768.6094"/><text fill="#000000" font-family="sans-serif" font-size="14" lengthAdjust="spacing" textLength="196.8477" x="457.5" y="760.5332">PANEL_PRINCIPAL_ABIERTO</text></g><g class="entity" data-qualified-name="INVESTIGADOR_ABIERTO" data-source-line="70" id="ent0021"><rect fill="#F1F1F1" height="50" rx="12.5" ry="12.5" style="stroke:#181818;stroke-width:0.5;" width="195.0342" x="699.5" y="741"/><line style="stroke:#181818;stroke-width:0.5;" x1="699.5" x2="894.5342" y1="768.6094" y2="768.6094"/><text fill="#000000" font-family="sans-serif" font-size="14" lengthAdjust="spacing" textLength="175.0342" x="709.5" y="760.5332">INVESTIGADOR_ABIERTO</text></g><g class="entity" data-qualified-name="SOLICITUDES_ELIMINACION_PERFIL_ABIERTAS" data-source-line="76" id="ent0023"><rect fill="#F1F1F1" height="50" rx="12.5" ry="12.5" style="stroke:#181818;stroke-width:0.5;" width="345.9785" x="930" y="741"/><line style="stroke:#181818;stroke-width:0.5;" x1="930" x2="1275.9785" y1="768.6094" y2="768.6094"/><text fill="#000000" font-family="sans-serif" font-size="14" lengthAdjust="spacing" textLength="325.9785" x="940" y="760.5332">SOLICITUDES_ELIMINACION_PERFIL_ABIERTAS</text></g><!--link in1 to abrirOpcionesPerfil--><g class="link" data-entity-1="ent0001" data-entity-2="ent0004" data-link-type="dependency" data-source-line="5" id="lnk7"><path d="M331,57.23 C345.45,79.12 365.6143,109.668 391.4143,148.728" fill="none" id="in1-to-abrirOpcionesPerfil" style="stroke:#0000FF;stroke-width:1;"/><polygon fill="#0000FF" points="394.17,152.9,392.5473,143.1857,391.4143,148.728,385.8721,147.5949,394.17,152.9" style="stroke:#0000FF;stroke-width:1;stroke-linejoin:miter;stroke-miterlimit:10;"/><path d="M379,92 L379,118 L532,118 L532,102 L522,92 L379,92" fill="#FEFFDD" style="stroke:#181818;stroke-width:0.5;"/><path d="M522,92 L522,102 L532,102 L522,92" fill="#FEFFDD" style="stroke:#181818;stroke-width:0.5;"/><text fill="#000000" font-family="sans-serif" font-size="13" lengthAdjust="spacing" textLength="132.2026" x="385" y="110.4951">abrirOpcionesPerfil(ID)</text></g><!--link in2 to abrirOpcionesPerfil--><g class="link" data-entity-1="ent0002" data-entity-2="ent0004" data-link-type="dependency" data-source-line="12" id="lnk8"><path d="M556,57.23 C556,79.12 556,108.84 556,147.9" fill="none" id="in2-to-abrirOpcionesPerfil" style="stroke:#008000;stroke-width:1;"/><polygon fill="#008000" points="556,152.9,560,143.9,556,147.9,552,143.9,556,152.9" style="stroke:#008000;stroke-width:1;stroke-linejoin:miter;stroke-miterlimit:10;"/><path d="M561,92 L561,118 L701,118 L701,102 L691,92 L561,92" fill="#FEFFDD" style="stroke:#181818;stroke-width:0.5;"/><path d="M691,92 L691,102 L701,102 L691,92" fill="#FEFFDD" style="stroke:#181818;stroke-width:0.5;"/><text fill="#000000" font-family="sans-serif" font-size="13" lengthAdjust="spacing" textLength="119.2026" x="567" y="110.4951">abrirOpcionesPerfil()</text></g><!--link in3 to abrirOpcionesPerfil--><g class="link" data-entity-1="ent0003" data-entity-2="ent0004" data-link-type="dependency" data-source-line="19" id="lnk9"><path d="M851.96,57.23 C829.28,83.34 794.0386,123.915 752.1586,172.135" fill="none" id="in3-to-abrirOpcionesPerfil" style="stroke:#000000;stroke-width:1;"/><polygon fill="#000000" points="748.88,175.91,757.8015,171.7379,752.1586,172.135,751.7616,166.4921,748.88,175.91" style="stroke:#000000;stroke-width:1;stroke-linejoin:miter;stroke-miterlimit:10;"/><path d="M824,92 L824,118 L964,118 L964,102 L954,92 L824,92" fill="#FEFFDD" style="stroke:#181818;stroke-width:0.5;"/><path d="M954,92 L954,102 L964,102 L954,92" fill="#FEFFDD" style="stroke:#181818;stroke-width:0.5;"/><text fill="#000000" font-family="sans-serif" font-size="13" lengthAdjust="spacing" textLength="119.2026" x="830" y="110.4951">abrirOpcionesPerfil()</text></g><!--link abrirOpcionesPerfil to OPCIONES_PERFIL_ABIERTO--><g class="link" data-entity-1="ent0004" data-entity-2="ent0015" data-link-type="dependency" data-source-line="52" id="lnk16"><path d="M363.45,560.09 C279.82,629.63 194.7446,700.3633 150.0646,737.5133" fill="none" id="abrirOpcionesPerfil-to-OPCIONES_PERFIL_ABIERTO" style="stroke:#008000;stroke-width:1;"/><polygon fill="#008000" points="146.22,740.71,155.6977,738.0317,150.0646,737.5133,150.583,731.8803,146.22,740.71" style="stroke:#008000;stroke-width:1;stroke-linejoin:miter;stroke-miterlimit:10;"/><path d="M229,680 L229,706 L320,706 L320,690 L310,680 L229,680" fill="#FEFFDD" style="stroke:#181818;stroke-width:0.5;"/><path d="M310,680 L310,690 L320,690 L310,680" fill="#FEFFDD" style="stroke:#181818;stroke-width:0.5;"/><text fill="#000000" font-family="sans-serif" font-size="13" lengthAdjust="spacing" textLength="70.7954" x="235" y="698.4951">editarPerfil()</text></g><!--link abrirOpcionesPerfil to SESION_CERRADA--><g class="link" data-entity-1="ent0004" data-entity-2="ent0017" data-link-type="dependency" data-source-line="58" id="lnk18"><path d="M389.37,645.05 C376.86,663.43 369,675 369,675 C369,675 356.7236,709.5084 347.2536,736.1684" fill="none" id="abrirOpcionesPerfil-to-SESION_CERRADA" style="stroke:#008000;stroke-width:1;"/><polygon fill="#008000" points="345.58,740.88,352.3618,733.738,347.2536,736.1684,344.8232,731.0603,345.58,740.88" style="stroke:#008000;stroke-width:1;stroke-linejoin:miter;stroke-miterlimit:10;"/><path d="M374,680 L374,706 L543,706 L543,690 L533,680 L374,680" fill="#FEFFDD" style="stroke:#181818;stroke-width:0.5;"/><path d="M533,680 L533,690 L543,690 L533,680" fill="#FEFFDD" style="stroke:#181818;stroke-width:0.5;"/><text fill="#000000" font-family="sans-serif" font-size="13" lengthAdjust="spacing" textLength="148.8145" x="380" y="698.4951">solicitarEliminacionPerfil()</text></g><!--link abrirOpcionesPerfil to PANEL_PRINCIPAL_ABIERTO--><g class="link" data-entity-1="ent0004" data-entity-2="ent0019" data-link-type="dependency" data-source-line="65" id="lnk20"><path d="M556,645.23 C556,684.25 556,713.9 556,735.77" fill="none" id="abrirOpcionesPerfil-to-PANEL_PRINCIPAL_ABIERTO" style="stroke:#008000;stroke-width:1;"/><polygon fill="#008000" points="556,740.77,560,731.77,556,735.77,552,731.77,556,740.77" style="stroke:#008000;stroke-width:1;stroke-linejoin:miter;stroke-miterlimit:10;"/><path d="M561,680 L561,706 L699,706 L699,690 L689,680 L561,680" fill="#FEFFDD" style="stroke:#181818;stroke-width:0.5;"/><path d="M689,680 L689,690 L699,690 L689,680" fill="#FEFFDD" style="stroke:#181818;stroke-width:0.5;"/><text fill="#000000" font-family="sans-serif" font-size="13" lengthAdjust="spacing" textLength="117.7681" x="567" y="698.4951">abrirPanelPrincipal()</text></g><!--link abrirOpcionesPerfil to INVESTIGADOR_ABIERTO--><g class="link" data-entity-1="ent0004" data-entity-2="ent0021" data-link-type="dependency" data-source-line="70" id="lnk22"><path d="M717.92,645.23 C743.68,684.25 763.805,714.7275 778.245,736.5975" fill="none" id="abrirOpcionesPerfil-to-INVESTIGADOR_ABIERTO" style="stroke:#0000FF;stroke-width:1;"/><polygon fill="#0000FF" points="781,740.77,779.3791,731.0554,778.245,736.5975,772.703,735.4634,781,740.77" style="stroke:#0000FF;stroke-width:1;stroke-linejoin:miter;stroke-miterlimit:10;"/><path d="M761,680 L761,706 L900,706 L900,690 L890,680 L761,680" fill="#FEFFDD" style="stroke:#181818;stroke-width:0.5;"/><path d="M890,680 L890,690 L900,690 L890,680" fill="#FEFFDD" style="stroke:#181818;stroke-width:0.5;"/><text fill="#000000" font-family="sans-serif" font-size="13" lengthAdjust="spacing" textLength="118.4854" x="767" y="698.4951">abrirInvestigador(ID)</text></g><!--link abrirOpcionesPerfil to SOLICITUDES_ELIMINACION_PERFIL_ABIERTAS--><g class="link" data-entity-1="ent0004" data-entity-2="ent0023" data-link-type="dependency" data-source-line="76" id="lnk24"><path d="M748.85,528.69 C865.12,606.27 998.5806,695.3252 1062.6606,738.0752" fill="none" id="abrirOpcionesPerfil-to-SOLICITUDES_ELIMINACION_PERFIL_ABIERTAS" style="stroke:#000000;stroke-width:1;"/><polygon fill="#000000" points="1066.82,740.85,1061.553,732.5278,1062.6606,738.0752,1057.1133,739.1828,1066.82,740.85" style="stroke:#000000;stroke-width:1;stroke-linejoin:miter;stroke-miterlimit:10;"/><path d="M1016,680 L1016,706 L1230,706 L1230,690 L1220,680 L1016,680" fill="#FEFFDD" style="stroke:#181818;stroke-width:0.5;"/><path d="M1220,680 L1220,690 L1230,690 L1220,680" fill="#FEFFDD" style="stroke:#181818;stroke-width:0.5;"/><text fill="#000000" font-family="sans-serif" font-size="13" lengthAdjust="spacing" textLength="193.6226" x="1022" y="698.4951">abrirSolicitudesEliminacionPerfil()</text></g><?plantuml-src hLJTQjim5BxNKuZiPXijO-rj2RYsEmIkRUniDwK4EJuh8h9a92TGnc3FiaVRaqnoQjTAbAKhjK6MfNFEzvrVlMQYfOesc3C1tMCBk9NyqVuWf3lQ0MRYCwOQpqZwBIuNv4iGPSKok2PniSXcoDwUtxsh-0Rkp-UOLegfh5qnAK3deBupZeGqLgIm26la4NXFeWy8H8sj87g6lUXXyo2DasLUa3GaUP1CaIyiyeC24A-6zW9Vzi1bbf2GBBv6SRcC4t9BqY0aMRhCu-A633o2qXAvj4IkELsjtuR84nEFNC_Cgp_3Fn32vjdfpinhP6-bxXGLjKoOEJ-yls5yUjyBt7syTmBhsi2zZEEFFRYgvg6KgcQ2rb9TVQhcM4lELinez7onV2ACsrr8hDRWizsZSTa3d7BPutkCIcbkeQ4zZLQ11c7iSEFlIA9ckfM2LTpiGKmv_Vdr6vFepDXjAWLdU4MRLk8QpAQcfZgse3lsOBqSnKqE6cPO31uh37N_sJDxA6UuIRu5DHnjQWoSDIQAbkS_5BSxDSfnImMOLJ6nOYtbBz8vy68ilZ49RgIT99W2-VyYs0XgWpXDWely4_aQmm7ESjk1fX-T7ipSxjg5tjTMfyoNSMaRF8oB8eW2r-eOnVWvFTxMFGLoP9vv9aHk4viFUNLWZe0CKzWtgZq0P585-qFu2C8uv5uu7JsevL3fe4_54lq5?></g></svg>