<?xml version="1.0" encoding="us-ascii" standalone="no"?><svg xmlns="http://www.w3.org/2000/svg" xmlns:xlink="http://www.w3.org/1999/xlink" contentStyleType="text/css" height="1141px" preserveAspectRatio="none" style="width:2060px;height:1141px;background:#FFFFFF;" version="1.1" viewBox="0 0 2060 1141" width="2060px" zoomAndPan="magnify"><defs/><g><text fill="#000000" font-family="sans-serif" font-size="14" font-weight="bold" lengthAdjust="spacing" textLength="410" x="826" y="29.5332">Diagrama de secuencia - Abrir proyecto como Coordinador</text><rect fill="#FFFFFF" height="895.8672" style="stroke:#181818;stroke-width:1.0;" width="10" x="287.5" y="153.5703"/><rect fill="#FFFFFF" height="323.8672" style="stroke:#181818;stroke-width:1.0;" width="10" x="511.5" y="200.2734"/><rect fill="#FFFFFF" height="55.7031" style="stroke:#181818;stroke-width:1.0;" width="10" x="857.5" y="230.625"/><rect fill="#FFFFFF" height="177.1094" style="stroke:#181818;stroke-width:1.0;" width="10" x="978" y="316.6797"/><rect fill="none" height="796.8125" style="stroke:#000000;stroke-width:1.5;" width="2043" x="10" y="245.625"/><rect fill="none" height="475.4609" style="stroke:#000000;stroke-width:1.5;" width="2023" x="20" y="453.0859"/><line style="stroke:#181818;stroke-width:0.5;stroke-dasharray:5.0,5.0;" x1="72" x2="72" y1="121.2188" y2="1059.4375"/><line style="stroke:#181818;stroke-width:0.5;stroke-dasharray:5.0,5.0;" x1="292" x2="292" y1="121.2188" y2="1059.4375"/><line style="stroke:#181818;stroke-width:0.5;stroke-dasharray:5.0,5.0;" x1="516.5" x2="516.5" y1="121.2188" y2="1059.4375"/><line style="stroke:#181818;stroke-width:0.5;stroke-dasharray:5.0,5.0;" x1="862.5" x2="862.5" y1="121.2188" y2="1059.4375"/><line style="stroke:#181818;stroke-width:0.5;stroke-dasharray:5.0,5.0;" x1="982.5" x2="982.5" y1="121.2188" y2="1059.4375"/><line style="stroke:#181818;stroke-width:0.5;stroke-dasharray:5.0,5.0;" x1="1138" x2="1138" y1="121.2188" y2="1059.4375"/><line style="stroke:#181818;stroke-width:0.5;stroke-dasharray:5.0,5.0;" x1="1296" x2="1296" y1="121.2188" y2="1059.4375"/><line style="stroke:#181818;stroke-width:0.5;stroke-dasharray:5.0,5.0;" x1="1461" x2="1461" y1="121.2188" y2="1059.4375"/><line style="stroke:#181818;stroke-width:0.5;stroke-dasharray:5.0,5.0;" x1="1983" x2="1983" y1="121.2188" y2="1059.4375"/><text fill="#000000" font-family="sans-serif" font-size="14" lengthAdjust="spacing" textLength="79" x="30" y="118.1426">Coordinador</text><ellipse cx="72.5" cy="52.1094" fill="#E2E2F0" rx="8" ry="8" style="stroke:#181818;stroke-width:0.5;"/><path d="M72.5,60.1094 L72.5,87.1094 M59.5,68.1094 L85.5,68.1094 M72.5,87.1094 L59.5,102.1094 M72.5,87.1094 L85.5,102.1094 " fill="none" style="stroke:#181818;stroke-width:0.5;"/><text fill="#000000" font-family="sans-serif" font-size="14" lengthAdjust="spacing" textLength="79" x="30" y="1072.9707">Coordinador</text><ellipse cx="72.5" cy="1084.5469" fill="#E2E2F0" rx="8" ry="8" style="stroke:#181818;stroke-width:0.5;"/><path d="M72.5,1092.5469 L72.5,1119.5469 M59.5,1100.5469 L85.5,1100.5469 M72.5,1119.5469 L59.5,1134.5469 M72.5,1119.5469 L85.5,1134.5469 " fill="none" style="stroke:#181818;stroke-width:0.5;"/><rect fill="#E2E2F0" height="49.2188" rx="2.5" ry="2.5" style="stroke:#181818;stroke-width:0.5;" width="147" x="219" y="71"/><text fill="#000000" font-family="sans-serif" font-size="14" lengthAdjust="spacing" textLength="133" x="226" y="92.5332">ProyectoDetallePage</text><text fill="#000000" font-family="sans-serif" font-size="14" lengthAdjust="spacing" textLength="47" x="269" y="110.1426">(React)</text><rect fill="#E2E2F0" height="49.2188" rx="2.5" ry="2.5" style="stroke:#181818;stroke-width:0.5;" width="147" x="219" y="1058.4375"/><text fill="#000000" font-family="sans-serif" font-size="14" lengthAdjust="spacing" textLength="133" x="226" y="1079.9707">ProyectoDetallePage</text><text fill="#000000" font-family="sans-serif" font-size="14" lengthAdjust="spacing" textLength="47" x="269" y="1097.5801">(React)</text><rect fill="#E2E2F0" height="49.2188" rx="2.5" ry="2.5" style="stroke:#181818;stroke-width:0.5;" width="132" x="450.5" y="71"/><text fill="#000000" font-family="sans-serif" font-size="14" lengthAdjust="spacing" textLength="118" x="457.5" y="92.5332">ProyectoController</text><text fill="#000000" font-family="sans-serif" font-size="14" lengthAdjust="spacing" textLength="84" x="474.5" y="110.1426">(Spring Boot)</text><rect fill="#E2E2F0" height="49.2188" rx="2.5" ry="2.5" style="stroke:#181818;stroke-width:0.5;" width="132" x="450.5" y="1058.4375"/><text fill="#000000" font-family="sans-serif" font-size="14" lengthAdjust="spacing" textLength="118" x="457.5" y="1079.9707">ProyectoController</text><text fill="#000000" font-family="sans-serif" font-size="14" lengthAdjust="spacing" textLength="84" x="474.5" y="1097.5801">(Spring Boot)</text><rect fill="#E2E2F0" height="31.6094" rx="2.5" ry="2.5" style="stroke:#181818;stroke-width:0.5;" width="104" x="810.5" y="88.6094"/><text fill="#000000" font-family="sans-serif" font-size="14" lengthAdjust="spacing" textLength="90" x="817.5" y="110.1426">SesionService</text><rect fill="#E2E2F0" height="31.6094" rx="2.5" ry="2.5" style="stroke:#181818;stroke-width:0.5;" width="104" x="810.5" y="1058.4375"/><text fill="#000000" font-family="sans-serif" font-size="14" lengthAdjust="spacing" textLength="90" x="817.5" y="1079.9707">SesionService</text><rect fill="#E2E2F0" height="31.6094" rx="2.5" ry="2.5" style="stroke:#181818;stroke-width:0.5;" width="117" x="924.5" y="88.6094"/><text fill="#000000" font-family="sans-serif" font-size="14" lengthAdjust="spacing" textLength="103" x="931.5" y="110.1426">ProyectoService</text><rect fill="#E2E2F0" height="31.6094" rx="2.5" ry="2.5" style="stroke:#181818;stroke-width:0.5;" width="117" x="924.5" y="1058.4375"/><text fill="#000000" font-family="sans-serif" font-size="14" lengthAdjust="spacing" textLength="103" x="931.5" y="1079.9707">ProyectoService</text><rect fill="#E2E2F0" height="31.6094" rx="2.5" ry="2.5" style="stroke:#181818;stroke-width:0.5;" width="138" x="1069" y="88.6094"/><text fill="#000000" font-family="sans-serif" font-size="14" lengthAdjust="spacing" textLength="124" x="1076" y="110.1426">ProyectoRepository</text><rect fill="#E2E2F0" height="31.6094" rx="2.5" ry="2.5" style="stroke:#181818;stroke-width:0.5;" width="138" x="1069" y="1058.4375"/><text fill="#000000" font-family="sans-serif" font-size="14" lengthAdjust="spacing" textLength="124" x="1076" y="1079.9707">ProyectoRepository</text><rect fill="#E2E2F0" height="31.6094" rx="2.5" ry="2.5" style="stroke:#181818;stroke-width:0.5;" width="159" x="1217" y="88.6094"/><text fill="#000000" font-family="sans-serif" font-size="14" lengthAdjust="spacing" textLength="145" x="1224" y="110.1426">InvestigadorRepository</text><rect fill="#E2E2F0" height="31.6094" rx="2.5" ry="2.5" style="stroke:#181818;stroke-width:0.5;" width="159" x="1217" y="1058.4375"/><text fill="#000000" font-family="sans-serif" font-size="14" lengthAdjust="spacing" textLength="145" x="1224" y="1079.9707">InvestigadorRepository</text><rect fill="#E2E2F0" height="31.6094" rx="2.5" ry="2.5" style="stroke:#181818;stroke-width:0.5;" width="151" x="1386" y="88.6094"/><text fill="#000000" font-family="sans-serif" font-size="14" lengthAdjust="spacing" textLength="137" x="1393" y="110.1426">EntregableRepository</text><rect fill="#E2E2F0" height="31.6094" rx="2.5" ry="2.5" style="stroke:#181818;stroke-width:0.5;" width="151" x="1386" y="1058.4375"/><text fill="#000000" font-family="sans-serif" font-size="14" lengthAdjust="spacing" textLength="137" x="1393" y="1079.9707">EntregableRepository</text><text fill="#000000" font-family="sans-serif" font-size="14" lengthAdjust="spacing" textLength="93" x="1934" y="118.1426">Base de Datos</text><path d="M1965.5,67.6094 C1965.5,57.6094 1983.5,57.6094 1983.5,57.6094 C1983.5,57.6094 2001.5,57.6094 2001.5,67.6094 L2001.5,93.6094 C2001.5,103.6094 1983.5,103.6094 1983.5,103.6094 C1983.5,103.6094 1965.5,103.6094 1965.5,93.6094 L1965.5,67.6094 " fill="#E2E2F0" style="stroke:#181818;stroke-width:1.5;"/><path d="M1965.5,67.6094 C1965.5,77.6094 1983.5,77.6094 1983.5,77.6094 C1983.5,77.6094 2001.5,77.6094 2001.5,67.6094 " fill="none" style="stroke:#181818;stroke-width:1.5;"/><text fill="#000000" font-family="sans-serif" font-size="14" lengthAdjust="spacing" textLength="93" x="1934" y="1072.9707">Base de Datos</text><path d="M1965.5,1086.0469 C1965.5,1076.0469 1983.5,1076.0469 1983.5,1076.0469 C1983.5,1076.0469 2001.5,1076.0469 2001.5,1086.0469 L2001.5,1112.0469 C2001.5,1122.0469 1983.5,1122.0469 1983.5,1122.0469 C1983.5,1122.0469 1965.5,1122.0469 1965.5,1112.0469 L1965.5,1086.0469 " fill="#E2E2F0" style="stroke:#181818;stroke-width:1.5;"/><path d="M1965.5,1086.0469 C1965.5,1096.0469 1983.5,1096.0469 1983.5,1096.0469 C1983.5,1096.0469 2001.5,1096.0469 2001.5,1086.0469 " fill="none" style="stroke:#181818;stroke-width:1.5;"/><rect fill="#FFFFFF" height="895.8672" style="stroke:#181818;stroke-width:1.0;" width="10" x="287.5" y="153.5703"/><rect fill="#FFFFFF" height="323.8672" style="stroke:#181818;stroke-width:1.0;" width="10" x="511.5" y="200.2734"/><rect fill="#FFFFFF" height="55.7031" style="stroke:#181818;stroke-width:1.0;" width="10" x="857.5" y="230.625"/><rect fill="#FFFFFF" height="177.1094" style="stroke:#181818;stroke-width:1.0;" width="10" x="978" y="316.6797"/><polygon fill="#181818" points="275.5,149.5703,285.5,153.5703,275.5,157.5703,279.5,153.5703" style="stroke:#181818;stroke-width:1.0;"/><line style="stroke:#181818;stroke-width:1.0;" x1="72.5" x2="281.5" y1="153.5703" y2="153.5703"/><text fill="#000000" font-family="sans-serif" font-size="13" lengthAdjust="spacing" textLength="118" x="79.5" y="148.7139">Selecciona proyecto</text><polygon fill="#181818" points="499.5,196.2734,509.5,200.2734,499.5,204.2734,503.5,200.2734" style="stroke:#181818;stroke-width:1.0;"/><line style="stroke:#181818;stroke-width:1.0;" x1="297.5" x2="505.5" y1="200.2734" y2="200.2734"/><text fill="#000000" font-family="sans-serif" font-size="13" lengthAdjust="spacing" textLength="134" x="304.5" y="179.0654">GET /api/proyectos/{id}</text><text fill="#000000" font-family="sans-serif" font-size="13" lengthAdjust="spacing" textLength="100" x="304.5" y="195.417">Cookie de sesion</text><polygon fill="#181818" points="845.5,226.625,855.5,230.625,845.5,234.625,849.5,230.625" style="stroke:#181818;stroke-width:1.0;"/><line style="stroke:#181818;stroke-width:1.0;" x1="521.5" x2="851.5" y1="230.625" y2="230.625"/><text fill="#000000" font-family="sans-serif" font-size="13" lengthAdjust="spacing" textLength="189" x="528.5" y="225.7686">exigirCoordinador(authentication)</text><path d="M10,245.625 L71,245.625 L71,253.9766 L61,263.9766 L10,263.9766 L10,245.625 " fill="#EEEEEE" style="stroke:#000000;stroke-width:1.5;"/><rect fill="none" height="796.8125" style="stroke:#000000;stroke-width:1.5;" width="2043" x="10" y="245.625"/><text fill="#000000" font-family="sans-serif" font-size="13" font-weight="bold" lengthAdjust="spacing" textLength="16" x="25" y="260.1201">alt</text><text fill="#000000" font-family="sans-serif" font-size="11" font-weight="bold" lengthAdjust="spacing" textLength="169" x="86" y="259.0439">[Sesion de Coordinador activa]</text><polygon fill="#181818" points="532.5,282.3281,522.5,286.3281,532.5,290.3281,528.5,286.3281" style="stroke:#181818;stroke-width:1.0;"/><line style="stroke:#181818;stroke-width:1.0;stroke-dasharray:2.0,2.0;" x1="526.5" x2="861.5" y1="286.3281" y2="286.3281"/><text fill="#000000" font-family="sans-serif" font-size="13" lengthAdjust="spacing" textLength="140" x="538.5" y="281.4717">Coordinador autenticado</text><polygon fill="#181818" points="966,312.6797,976,316.6797,966,320.6797,970,316.6797" style="stroke:#181818;stroke-width:1.0;"/><line style="stroke:#181818;stroke-width:1.0;" x1="521.5" x2="972" y1="316.6797" y2="316.6797"/><text fill="#000000" font-family="sans-serif" font-size="13" lengthAdjust="spacing" textLength="138" x="528.5" y="311.8232">obtenerDetalleGlobal(id)</text><polygon fill="#181818" points="1126,343.0313,1136,347.0313,1126,351.0313,1130,347.0313" style="stroke:#181818;stroke-width:1.0;"/><line style="stroke:#181818;stroke-width:1.0;" x1="988" x2="1132" y1="347.0313" y2="347.0313"/><text fill="#000000" font-family="sans-serif" font-size="13" lengthAdjust="spacing" textLength="126" x="995" y="342.1748">obtenerActivoPorId(id)</text><polygon fill="#181818" points="1971.5,373.3828,1981.5,377.3828,1971.5,381.3828,1975.5,377.3828" style="stroke:#181818;stroke-width:1.0;"/><line style="stroke:#181818;stroke-width:1.0;" x1="1138" x2="1977.5" y1="377.3828" y2="377.3828"/><text fill="#000000" font-family="sans-serif" font-size="13" lengthAdjust="spacing" textLength="384" x="1145" y="372.5264">SELECT * FROM proyectos WHERE id = ? AND archivado = false</text><polygon fill="#181818" points="1149,403.7344,1139,407.7344,1149,411.7344,1145,407.7344" style="stroke:#181818;stroke-width:1.0;"/><line style="stroke:#181818;stroke-width:1.0;stroke-dasharray:2.0,2.0;" x1="1143" x2="1982.5" y1="407.7344" y2="407.7344"/><text fill="#000000" font-family="sans-serif" font-size="13" lengthAdjust="spacing" textLength="150" x="1155" y="402.8779">Resultado de persistencia</text><polygon fill="#181818" points="999,434.0859,989,438.0859,999,442.0859,995,438.0859" style="stroke:#181818;stroke-width:1.0;"/><line style="stroke:#181818;stroke-width:1.0;stroke-dasharray:2.0,2.0;" x1="993" x2="1137" y1="438.0859" y2="438.0859"/><text fill="#000000" font-family="sans-serif" font-size="13" lengthAdjust="spacing" textLength="93" x="1005" y="433.2295">Proyecto / vacio</text><path d="M20,453.0859 L81,453.0859 L81,461.4375 L71,471.4375 L20,471.4375 L20,453.0859 " fill="#EEEEEE" style="stroke:#000000;stroke-width:1.5;"/><rect fill="none" height="475.4609" style="stroke:#000000;stroke-width:1.5;" width="2023" x="20" y="453.0859"/><text fill="#000000" font-family="sans-serif" font-size="13" font-weight="bold" lengthAdjust="spacing" textLength="16" x="35" y="467.5811">alt</text><text fill="#000000" font-family="sans-serif" font-size="11" font-weight="bold" lengthAdjust="spacing" textLength="188" x="96" y="466.5049">[Proyecto inexistente o archivado]</text><polygon fill="#181818" points="532.5,489.7891,522.5,493.7891,532.5,497.7891,528.5,493.7891" style="stroke:#181818;stroke-width:1.0;"/><line style="stroke:#181818;stroke-width:1.0;stroke-dasharray:2.0,2.0;" x1="526.5" x2="982" y1="493.7891" y2="493.7891"/><text fill="#000000" font-family="sans-serif" font-size="13" lengthAdjust="spacing" textLength="188" x="538.5" y="488.9326">RecursoNoEncontradoException</text><polygon fill="#181818" points="308.5,520.1406,298.5,524.1406,308.5,528.1406,304.5,524.1406" style="stroke:#181818;stroke-width:1.0;"/><line style="stroke:#181818;stroke-width:1.0;stroke-dasharray:2.0,2.0;" x1="302.5" x2="515.5" y1="524.1406" y2="524.1406"/><text fill="#000000" font-family="sans-serif" font-size="13" lengthAdjust="spacing" textLength="85" x="314.5" y="519.2842">404 Not Found</text><polygon fill="#181818" points="83.5,550.4922,73.5,554.4922,83.5,558.4922,79.5,554.4922" style="stroke:#181818;stroke-width:1.0;"/><line style="stroke:#181818;stroke-width:1.0;stroke-dasharray:2.0,2.0;" x1="77.5" x2="286.5" y1="554.4922" y2="554.4922"/><text fill="#000000" font-family="sans-serif" font-size="13" lengthAdjust="spacing" textLength="186" x="89.5" y="549.6357">Presenta proyecto no disponible</text><line style="stroke:#000000;stroke-width:1.0;stroke-dasharray:2.0,2.0;" x1="20" x2="2043" y1="563.4922" y2="563.4922"/><text fill="#000000" font-family="sans-serif" font-size="11" font-weight="bold" lengthAdjust="spacing" textLength="112" x="25" y="574.9111">[Proyecto existente]</text><polygon fill="#181818" points="1284.5,596.6797,1294.5,600.6797,1284.5,604.6797,1288.5,600.6797" style="stroke:#181818;stroke-width:1.0;"/><line style="stroke:#181818;stroke-width:1.0;" x1="983" x2="1290.5" y1="600.6797" y2="600.6797"/><text fill="#000000" font-family="sans-serif" font-size="13" lengthAdjust="spacing" textLength="101" x="990" y="595.8232">obtenerEquipo(id)</text><polygon fill="#181818" points="1971.5,627.0313,1981.5,631.0313,1971.5,635.0313,1975.5,631.0313" style="stroke:#181818;stroke-width:1.0;"/><line style="stroke:#181818;stroke-width:1.0;" x1="1296.5" x2="1977.5" y1="631.0313" y2="631.0313"/><text fill="#000000" font-family="sans-serif" font-size="13" lengthAdjust="spacing" textLength="663" x="1303.5" y="626.1748">SELECT u.* FROM usuarios u JOIN proyecto_investigadores pi ON pi.usuario_id = u.id WHERE pi.proyecto_id = ?</text><polygon fill="#181818" points="1307.5,657.3828,1297.5,661.3828,1307.5,665.3828,1303.5,661.3828" style="stroke:#181818;stroke-width:1.0;"/><line style="stroke:#181818;stroke-width:1.0;stroke-dasharray:2.0,2.0;" x1="1301.5" x2="1982.5" y1="661.3828" y2="661.3828"/><text fill="#000000" font-family="sans-serif" font-size="13" lengthAdjust="spacing" textLength="150" x="1313.5" y="656.5264">Resultado de persistencia</text><polygon fill="#181818" points="994,687.7344,984,691.7344,994,695.7344,990,691.7344" style="stroke:#181818;stroke-width:1.0;"/><line style="stroke:#181818;stroke-width:1.0;stroke-dasharray:2.0,2.0;" x1="988" x2="1295.5" y1="691.7344" y2="691.7344"/><text fill="#000000" font-family="sans-serif" font-size="13" lengthAdjust="spacing" textLength="40" x="1000" y="686.8779">Equipo</text><polygon fill="#181818" points="1449.5,718.0859,1459.5,722.0859,1449.5,726.0859,1453.5,722.0859" style="stroke:#181818;stroke-width:1.0;"/><line style="stroke:#181818;stroke-width:1.0;" x1="983" x2="1455.5" y1="722.0859" y2="722.0859"/><text fill="#000000" font-family="sans-serif" font-size="13" lengthAdjust="spacing" textLength="133" x="990" y="717.2295">obtenerPorProyecto(id)</text><polygon fill="#181818" points="1971.5,748.4375,1981.5,752.4375,1971.5,756.4375,1975.5,752.4375" style="stroke:#181818;stroke-width:1.0;"/><line style="stroke:#181818;stroke-width:1.0;" x1="1461.5" x2="1977.5" y1="752.4375" y2="752.4375"/><text fill="#000000" font-family="sans-serif" font-size="13" lengthAdjust="spacing" textLength="440" x="1468.5" y="747.5811">SELECT * FROM entregables WHERE proyecto_id = ? AND retirado = false</text><polygon fill="#181818" points="1472.5,778.7891,1462.5,782.7891,1472.5,786.7891,1468.5,782.7891" style="stroke:#181818;stroke-width:1.0;"/><line style="stroke:#181818;stroke-width:1.0;stroke-dasharray:2.0,2.0;" x1="1466.5" x2="1982.5" y1="782.7891" y2="782.7891"/><text fill="#000000" font-family="sans-serif" font-size="13" lengthAdjust="spacing" textLength="150" x="1478.5" y="777.9326">Resultado de persistencia</text><polygon fill="#181818" points="994,809.1406,984,813.1406,994,817.1406,990,813.1406" style="stroke:#181818;stroke-width:1.0;"/><line style="stroke:#181818;stroke-width:1.0;stroke-dasharray:2.0,2.0;" x1="988" x2="1460.5" y1="813.1406" y2="813.1406"/><text fill="#000000" font-family="sans-serif" font-size="13" lengthAdjust="spacing" textLength="69" x="1000" y="808.2842">Entregables</text><polygon fill="#181818" points="527.5,839.4922,517.5,843.4922,527.5,847.4922,523.5,843.4922" style="stroke:#181818;stroke-width:1.0;"/><line style="stroke:#181818;stroke-width:1.0;stroke-dasharray:2.0,2.0;" x1="521.5" x2="982" y1="843.4922" y2="843.4922"/><text fill="#000000" font-family="sans-serif" font-size="13" lengthAdjust="spacing" textLength="150" x="533.5" y="838.6357">ProyectoDetalleResponse</text><polygon fill="#181818" points="308.5,886.1953,298.5,890.1953,308.5,894.1953,304.5,890.1953" style="stroke:#181818;stroke-width:1.0;"/><line style="stroke:#181818;stroke-width:1.0;stroke-dasharray:2.0,2.0;" x1="302.5" x2="515.5" y1="890.1953" y2="890.1953"/><text fill="#000000" font-family="sans-serif" font-size="13" lengthAdjust="spacing" textLength="44" x="314.5" y="868.9873">200 OK</text><text fill="#000000" font-family="sans-serif" font-size="13" lengthAdjust="spacing" textLength="115" x="314.5" y="885.3389">Detalle del proyecto</text><polygon fill="#181818" points="83.5,916.5469,73.5,920.5469,83.5,924.5469,79.5,920.5469" style="stroke:#181818;stroke-width:1.0;"/><line style="stroke:#181818;stroke-width:1.0;stroke-dasharray:2.0,2.0;" x1="77.5" x2="286.5" y1="920.5469" y2="920.5469"/><text fill="#000000" font-family="sans-serif" font-size="13" lengthAdjust="spacing" textLength="191" x="89.5" y="915.6904">Presenta PROYECTO_ABIERTO</text><line style="stroke:#000000;stroke-width:1.0;stroke-dasharray:2.0,2.0;" x1="10" x2="2053" y1="936.5469" y2="936.5469"/><text fill="#000000" font-family="sans-serif" font-size="11" font-weight="bold" lengthAdjust="spacing" textLength="167" x="15" y="947.9658">[Sesion ausente o rol invalido]</text><polygon fill="#181818" points="527.5,969.7344,517.5,973.7344,527.5,977.7344,523.5,973.7344" style="stroke:#181818;stroke-width:1.0;"/><line style="stroke:#181818;stroke-width:1.0;stroke-dasharray:2.0,2.0;" x1="521.5" x2="861.5" y1="973.7344" y2="973.7344"/><text fill="#000000" font-family="sans-serif" font-size="13" lengthAdjust="spacing" textLength="322" x="533.5" y="968.8779">SesionNoValidaException / AccesoDenegadoException</text><polygon fill="#181818" points="308.5,1000.0859,298.5,1004.0859,308.5,1008.0859,304.5,1004.0859" style="stroke:#181818;stroke-width:1.0;"/><line style="stroke:#181818;stroke-width:1.0;stroke-dasharray:2.0,2.0;" x1="302.5" x2="515.5" y1="1004.0859" y2="1004.0859"/><text fill="#000000" font-family="sans-serif" font-size="13" lengthAdjust="spacing" textLength="195" x="314.5" y="999.2295">401 Unauthorized / 403 Forbidden</text><polygon fill="#181818" points="83.5,1030.4375,73.5,1034.4375,83.5,1038.4375,79.5,1034.4375" style="stroke:#181818;stroke-width:1.0;"/><line style="stroke:#181818;stroke-width:1.0;stroke-dasharray:2.0,2.0;" x1="77.5" x2="286.5" y1="1034.4375" y2="1034.4375"/><text fill="#000000" font-family="sans-serif" font-size="13" lengthAdjust="spacing" textLength="146" x="89.5" y="1029.5811">Presenta error de acceso</text><!--SRC=[fLLjRzCm4FxUNt7QfmrfQu5zgiHGksQZlBHLDa18aoOtEReJcHrifzf0_7VEJkAyjBo9IcqJ-xdpFS-zs9BD46OaDbhS2qWH32O5oeG47CDahKb3hjKZ9bP1ekuLd2kbKv8YLNem4BoiEqkvq9OIoeMqSB2gB6TeHPRXIcpmHXx6o6P71o0CN6WbBSfqlzavRsh5Xfgjhd9DSWDJfIhRIKvTioiqfEGLwYqbw27bodxdNPn_tW-CCLU6cEUZnxhNBd0kjsWiRHp_7hY_rJMCc1vkn3h3dbbtOv0AAzR281nCtIydQIQiCXuwcmu6BVtX-2o8EcPU6IO9Io124btAQ2iiDjhN3ywMHHt3PNGDGv7Ji3Oom- -K_hYHVD0Nmh9AlBB1cKi6VvsBKlGnu0DjIBTYEnI5lKF9_8Lbn55ZNUL9PBPwT4UqMPN80V2d0XpNmNPWXItzfyfZK-mVuLP3d3xfOr1hja9T5UbbfjOYEwJqo8DR3ieQAMFmpywBIr1mCN5WjL9wdWO73k20iodd8teRdL_34xY8b-z2IWnyV1N54L0AB-0bJ1Op43gvusDJnIkVHMRAOsTJJxiyCaPJPDP1MAiSjI5ZVT-sJcsphCiPXh0LN1CbErOyR93ab3adp5Or8NXWXtKjVSoZGXkrK95CNAioE7f8CBUrqZivQ2GCYUWKxEde51RAmeKgk33tk71rLYytTSi-McNWkA9X6atLWsIPoEHA4ZULzu2iQiCzCDzbUxRJnI7VqTU2SXLIxJvzR2_rnKcL_C8KGXFdle3No_aYH7fBBGTeW2LQyYwTL0QtlagA4_uhguQt6bjVGI6Mgbvsm_zzxUodqQwbalS-gRgJAmZ5BL5BtL6h2z_V9XWmTQFq-FgEqMX9znkc9K8_i3zBq8-j8q0Jqw_RetVxyObSVwt8_gapder6i7np8ojdR9mrC_t_6sKLBp-nvilRoNGUnTVBiaMu1tsRL3DN5AOQ3dmhyxZOYeog-T2VokNxGdrm416c0W-VIPAWOKqaRdRcnM_cTMzCF8NtqbqdIjCtJDdjwUWvJmszfZJ57MUr67yX16hD5mdNXF1n3fm6BK-rXvy0]--></g></svg>