<svg xmlns="http://www.w3.org/2000/svg" xmlns:xlink="http://www.w3.org/1999/xlink" contentStyleType="text/css" height="868px" preserveAspectRatio="none" style="width:1966px;height:868px;background:#FFFFFF;" version="1.1" viewBox="0 0 1966 868" width="1966px" zoomAndPan="magnify"><title>Diagrama de secuencia - editarPublicacion</title><defs/><g><text fill="#000000" font-family="sans-serif" font-size="14" font-weight="bold" lengthAdjust="spacing" textLength="284.7715" x="842.3369" y="29.5332">Diagrama de secuencia - editarPublicacion</text><line style="stroke:#181818;stroke-width:0.5;stroke-dasharray:5.0,5.0;" x1="46" x2="46" y1="121.2188" y2="785.9531"/><line style="stroke:#181818;stroke-width:0.5;stroke-dasharray:5.0,5.0;" x1="283.7944" x2="283.7944" y1="121.2188" y2="785.9531"/><line style="stroke:#181818;stroke-width:0.5;stroke-dasharray:5.0,5.0;" x1="705.7729" x2="705.7729" y1="121.2188" y2="785.9531"/><line style="stroke:#181818;stroke-width:0.5;stroke-dasharray:5.0,5.0;" x1="938.7534" x2="938.7534" y1="121.2188" y2="785.9531"/><line style="stroke:#181818;stroke-width:0.5;stroke-dasharray:5.0,5.0;" x1="1067.2427" x2="1067.2427" y1="121.2188" y2="785.9531"/><line style="stroke:#181818;stroke-width:0.5;stroke-dasharray:5.0,5.0;" x1="1208.5249" x2="1208.5249" y1="121.2188" y2="785.9531"/><line style="stroke:#181818;stroke-width:0.5;stroke-dasharray:5.0,5.0;" x1="1360.2554" x2="1360.2554" y1="121.2188" y2="785.9531"/><line style="stroke:#181818;stroke-width:0.5;stroke-dasharray:5.0,5.0;" x1="1545.772" x2="1545.772" y1="121.2188" y2="785.9531"/><line style="stroke:#181818;stroke-width:0.5;stroke-dasharray:5.0,5.0;" x1="1915.6113" x2="1915.6113" y1="121.2188" y2="785.9531"/><text fill="#000000" font-family="sans-serif" font-size="14" lengthAdjust="spacing" textLength="77.0479" x="5" y="118.1426">Coordinador</text><ellipse cx="46.5239" cy="52.1094" fill="#E2E2F0" rx="8" ry="8" style="stroke:#181818;stroke-width:0.5;"/><path d="M46.5239,60.1094 L46.5239,87.1094 M33.5239,68.1094 L59.5239,68.1094 M46.5239,87.1094 L33.5239,102.1094 M46.5239,87.1094 L59.5239,102.1094 " fill="none" style="stroke:#181818;stroke-width:0.5;"/><text fill="#000000" font-family="sans-serif" font-size="14" lengthAdjust="spacing" textLength="77.0479" x="5" y="799.4863">Coordinador</text><ellipse cx="46.5239" cy="811.0625" fill="#E2E2F0" rx="8" ry="8" style="stroke:#181818;stroke-width:0.5;"/><path d="M46.5239,819.0625 L46.5239,846.0625 M33.5239,827.0625 L59.5239,827.0625 M46.5239,846.0625 L33.5239,861.0625 M46.5239,846.0625 L59.5239,861.0625 " fill="none" style="stroke:#181818;stroke-width:0.5;"/><rect fill="#E2E2F0" height="49.2188" rx="2.5" ry="2.5" style="stroke:#181818;stroke-width:0.5;" width="153.3164" x="207.7944" y="71"/><text fill="#000000" font-family="sans-serif" font-size="14" lengthAdjust="spacing" textLength="139.3164" x="214.7944" y="92.5332">editarPublicacionPage</text><text fill="#000000" font-family="sans-serif" font-size="14" lengthAdjust="spacing" textLength="45.8965" x="261.5044" y="110.1426">(React)</text><rect fill="#E2E2F0" height="49.2188" rx="2.5" ry="2.5" style="stroke:#181818;stroke-width:0.5;" width="153.3164" x="207.7944" y="784.9531"/><text fill="#000000" font-family="sans-serif" font-size="14" lengthAdjust="spacing" textLength="139.3164" x="214.7944" y="806.4863">editarPublicacionPage</text><text fill="#000000" font-family="sans-serif" font-size="14" lengthAdjust="spacing" textLength="45.8965" x="261.5044" y="824.0957">(React)</text><rect fill="#E2E2F0" height="49.2188" rx="2.5" ry="2.5" style="stroke:#181818;stroke-width:0.5;" width="146.2891" x="632.7729" y="71"/><text fill="#000000" font-family="sans-serif" font-size="14" lengthAdjust="spacing" textLength="132.2891" x="639.7729" y="92.5332">PublicacionController</text><text fill="#000000" font-family="sans-serif" font-size="14" lengthAdjust="spacing" textLength="82.4824" x="664.6763" y="110.1426">(Spring Boot)</text><rect fill="#E2E2F0" height="49.2188" rx="2.5" ry="2.5" style="stroke:#181818;stroke-width:0.5;" width="146.2891" x="632.7729" y="784.9531"/><text fill="#000000" font-family="sans-serif" font-size="14" lengthAdjust="spacing" textLength="132.2891" x="639.7729" y="806.4863">PublicacionController</text><text fill="#000000" font-family="sans-serif" font-size="14" lengthAdjust="spacing" textLength="82.4824" x="664.6763" y="824.0957">(Spring Boot)</text><rect fill="#E2E2F0" height="31.6094" rx="2.5" ry="2.5" style="stroke:#181818;stroke-width:0.5;" width="103.4893" x="887.7534" y="88.6094"/><text fill="#000000" font-family="sans-serif" font-size="14" lengthAdjust="spacing" textLength="89.4893" x="894.7534" y="110.1426">SesionService</text><rect fill="#E2E2F0" height="31.6094" rx="2.5" ry="2.5" style="stroke:#181818;stroke-width:0.5;" width="103.4893" x="887.7534" y="784.9531"/><text fill="#000000" font-family="sans-serif" font-size="14" lengthAdjust="spacing" textLength="89.4893" x="894.7534" y="806.4863">SesionService</text><rect fill="#E2E2F0" height="31.6094" rx="2.5" ry="2.5" style="stroke:#181818;stroke-width:0.5;" width="132.2822" x="1001.2427" y="88.6094"/><text fill="#000000" font-family="sans-serif" font-size="14" lengthAdjust="spacing" textLength="118.2822" x="1008.2427" y="110.1426">PublicacionService</text><rect fill="#E2E2F0" height="31.6094" rx="2.5" ry="2.5" style="stroke:#181818;stroke-width:0.5;" width="132.2822" x="1001.2427" y="784.9531"/><text fill="#000000" font-family="sans-serif" font-size="14" lengthAdjust="spacing" textLength="118.2822" x="1008.2427" y="806.4863">PublicacionService</text><rect fill="#E2E2F0" height="31.6094" rx="2.5" ry="2.5" style="stroke:#181818;stroke-width:0.5;" width="130.7305" x="1143.5249" y="88.6094"/><text fill="#000000" font-family="sans-serif" font-size="14" lengthAdjust="spacing" textLength="116.7305" x="1150.5249" y="110.1426">PoliticaPublicacion</text><rect fill="#E2E2F0" height="31.6094" rx="2.5" ry="2.5" style="stroke:#181818;stroke-width:0.5;" width="130.7305" x="1143.5249" y="784.9531"/><text fill="#000000" font-family="sans-serif" font-size="14" lengthAdjust="spacing" textLength="116.7305" x="1150.5249" y="806.4863">PoliticaPublicacion</text><rect fill="#E2E2F0" height="31.6094" rx="2.5" ry="2.5" style="stroke:#181818;stroke-width:0.5;" width="152.5166" x="1284.2554" y="88.6094"/><text fill="#000000" font-family="sans-serif" font-size="14" lengthAdjust="spacing" textLength="138.5166" x="1291.2554" y="110.1426">PublicacionRepository</text><rect fill="#E2E2F0" height="31.6094" rx="2.5" ry="2.5" style="stroke:#181818;stroke-width:0.5;" width="152.5166" x="1284.2554" y="784.9531"/><text fill="#000000" font-family="sans-serif" font-size="14" lengthAdjust="spacing" textLength="138.5166" x="1291.2554" y="806.4863">PublicacionRepository</text><rect fill="#E2E2F0" height="31.6094" rx="2.5" ry="2.5" style="stroke:#181818;stroke-width:0.5;" width="199.1992" x="1446.772" y="88.6094"/><text fill="#000000" font-family="sans-serif" font-size="14" lengthAdjust="spacing" textLength="185.1992" x="1453.772" y="110.1426">ArchivoPublicacionRepository</text><rect fill="#E2E2F0" height="31.6094" rx="2.5" ry="2.5" style="stroke:#181818;stroke-width:0.5;" width="199.1992" x="1446.772" y="784.9531"/><text fill="#000000" font-family="sans-serif" font-size="14" lengthAdjust="spacing" textLength="185.1992" x="1453.772" y="806.4863">ArchivoPublicacionRepository</text><text fill="#000000" font-family="sans-serif" font-size="14" lengthAdjust="spacing" textLength="91.834" x="1867.6113" y="118.1426">Base de Datos</text><path d="M1898.5283,67.6094 C1898.5283,57.6094 1916.5283,57.6094 1916.5283,57.6094 C1916.5283,57.6094 1934.5283,57.6094 1934.5283,67.6094 L1934.5283,93.6094 C1934.5283,103.6094 1916.5283,103.6094 1916.5283,103.6094 C1916.5283,103.6094 1898.5283,103.6094 1898.5283,93.6094 L1898.5283,67.6094 " fill="#E2E2F0" style="stroke:#181818;stroke-width:1.5;"/><path d="M1898.5283,67.6094 C1898.5283,77.6094 1916.5283,77.6094 1916.5283,77.6094 C1916.5283,77.6094 1934.5283,77.6094 1934.5283,67.6094 " fill="none" style="stroke:#181818;stroke-width:1.5;"/><text fill="#000000" font-family="sans-serif" font-size="14" lengthAdjust="spacing" textLength="91.834" x="1867.6113" y="799.4863">Base de Datos</text><path d="M1898.5283,812.5625 C1898.5283,802.5625 1916.5283,802.5625 1916.5283,802.5625 C1916.5283,802.5625 1934.5283,802.5625 1934.5283,812.5625 L1934.5283,838.5625 C1934.5283,848.5625 1916.5283,848.5625 1916.5283,848.5625 C1916.5283,848.5625 1898.5283,848.5625 1898.5283,838.5625 L1898.5283,812.5625 " fill="#E2E2F0" style="stroke:#181818;stroke-width:1.5;"/><path d="M1898.5283,812.5625 C1898.5283,822.5625 1916.5283,822.5625 1916.5283,822.5625 C1916.5283,822.5625 1934.5283,822.5625 1934.5283,812.5625 " fill="none" style="stroke:#181818;stroke-width:1.5;"/><polygon fill="#181818" points="272.4526,149.5703,282.4526,153.5703,272.4526,157.5703,276.4526,153.5703" style="stroke:#181818;stroke-width:1;"/><line style="stroke:#181818;stroke-width:1;" x1="46.5239" x2="278.4526" y1="153.5703" y2="153.5703"/><text fill="#000000" font-family="sans-serif" font-size="13" lengthAdjust="spacing" textLength="153.1816" x="53.5239" y="148.7139">Solicita editarPublicacion()</text><polygon fill="#181818" points="693.9175,179.9219,703.9175,183.9219,693.9175,187.9219,697.9175,183.9219" style="stroke:#181818;stroke-width:1;"/><line style="stroke:#181818;stroke-width:1;" x1="284.4526" x2="699.9175" y1="183.9219" y2="183.9219"/><text fill="#000000" font-family="sans-serif" font-size="13" lengthAdjust="spacing" textLength="397.4648" x="291.4526" y="179.0654">PATCH /api/publicaciones/{id} + PublicacionUpdateRequest + cookie</text><polygon fill="#181818" points="927.498,210.2734,937.498,214.2734,927.498,218.2734,931.498,214.2734" style="stroke:#181818;stroke-width:1;"/><line style="stroke:#181818;stroke-width:1;" x1="705.9175" x2="933.498" y1="214.2734" y2="214.2734"/><text fill="#000000" font-family="sans-serif" font-size="13" lengthAdjust="spacing" textLength="209.5806" x="712.9175" y="209.417">obtenerSesionActual(authentication)</text><polygon fill="#181818" points="716.9175,240.625,706.9175,244.625,716.9175,248.625,712.9175,244.625" style="stroke:#181818;stroke-width:1;"/><line style="stroke:#181818;stroke-width:1;stroke-dasharray:2.0,2.0;" x1="710.9175" x2="938.498" y1="244.625" y2="244.625"/><text fill="#000000" font-family="sans-serif" font-size="13" lengthAdjust="spacing" textLength="101.1753" x="722.9175" y="239.7686">Actor autenticado</text><polygon fill="#181818" points="1055.3838,270.9766,1065.3838,274.9766,1055.3838,278.9766,1059.3838,274.9766" style="stroke:#181818;stroke-width:1;"/><line style="stroke:#181818;stroke-width:1;" x1="705.9175" x2="1061.3838" y1="274.9766" y2="274.9766"/><text fill="#000000" font-family="sans-serif" font-size="13" lengthAdjust="spacing" textLength="166.1689" x="712.9175" y="270.1201">actualizar(id, cambios, actor)</text><polygon fill="#181818" points="1348.5137,301.3281,1358.5137,305.3281,1348.5137,309.3281,1352.5137,305.3281" style="stroke:#181818;stroke-width:1;"/><line style="stroke:#181818;stroke-width:1;" x1="1067.3838" x2="1354.5137" y1="305.3281" y2="305.3281"/><text fill="#000000" font-family="sans-serif" font-size="13" lengthAdjust="spacing" textLength="138.0171" x="1074.3838" y="300.4717">findByIdAndRetirada(id)</text><polygon fill="#181818" points="1904.5283,331.6797,1914.5283,335.6797,1904.5283,339.6797,1908.5283,335.6797" style="stroke:#181818;stroke-width:1;"/><line style="stroke:#181818;stroke-width:1;" x1="1360.5137" x2="1910.5283" y1="335.6797" y2="335.6797"/><text fill="#000000" font-family="sans-serif" font-size="13" lengthAdjust="spacing" textLength="392.3105" x="1367.5137" y="330.8232">SELECT * FROM publicaciones WHERE id = ? AND retirada = false</text><polygon fill="#181818" points="1371.5137,362.0313,1361.5137,366.0313,1371.5137,370.0313,1367.5137,366.0313" style="stroke:#181818;stroke-width:1;"/><line style="stroke:#181818;stroke-width:1;stroke-dasharray:2.0,2.0;" x1="1365.5137" x2="1915.5283" y1="366.0313" y2="366.0313"/><text fill="#000000" font-family="sans-serif" font-size="13" lengthAdjust="spacing" textLength="107.6689" x="1377.5137" y="361.1748">Publicacion / vacio</text><path d="M1213,379.0313 L1213,405.0313 L1506,405.0313 L1506,389.0313 L1496,379.0313 L1213,379.0313 " fill="#FEFFDD" style="stroke:#181818;stroke-width:0.5;"/><path d="M1496,379.0313 L1496,389.0313 L1506,389.0313 L1496,379.0313 " fill="#FEFFDD" style="stroke:#181818;stroke-width:0.5;"/><text fill="#000000" font-family="sans-serif" font-size="13" lengthAdjust="spacing" textLength="272.4224" x="1219" y="397.5264">Responsabilidad interna: permitirGestionGlobal</text><line style="stroke:#181818;stroke-width:1;" x1="1067.3838" x2="1109.3838" y1="432.7344" y2="432.7344"/><line style="stroke:#181818;stroke-width:1;" x1="1109.3838" x2="1109.3838" y1="432.7344" y2="445.7344"/><line style="stroke:#181818;stroke-width:1;" x1="1068.3838" x2="1109.3838" y1="445.7344" y2="445.7344"/><polygon fill="#181818" points="1078.3838,441.7344,1068.3838,445.7344,1078.3838,449.7344,1074.3838,445.7344" style="stroke:#181818;stroke-width:1;"/><text fill="#000000" font-family="sans-serif" font-size="13" lengthAdjust="spacing" textLength="64.2954" x="1074.3838" y="427.8779">actualizar()</text><polygon fill="#181818" points="1348.5137,472.0859,1358.5137,476.0859,1348.5137,480.0859,1352.5137,476.0859" style="stroke:#181818;stroke-width:1;"/><line style="stroke:#181818;stroke-width:1;" x1="1067.3838" x2="1354.5137" y1="476.0859" y2="476.0859"/><text fill="#000000" font-family="sans-serif" font-size="13" lengthAdjust="spacing" textLength="101.1626" x="1074.3838" y="471.2295">save(publicacion)</text><polygon fill="#181818" points="1904.5283,518.7891,1914.5283,522.7891,1904.5283,526.7891,1908.5283,522.7891" style="stroke:#181818;stroke-width:1;"/><line style="stroke:#181818;stroke-width:1;" x1="1360.5137" x2="1910.5283" y1="522.7891" y2="522.7891"/><text fill="#000000" font-family="sans-serif" font-size="13" lengthAdjust="spacing" textLength="306.3887" x="1367.5137" y="501.5811">UPDATE publicaciones SET titulo = ?, contenido = ?,</text><text fill="#000000" font-family="sans-serif" font-size="13" lengthAdjust="spacing" textLength="355.5068" x="1367.5137" y="517.9326">estado = ?, visibilidad = ? WHERE id = ? AND retirada = false</text><polygon fill="#181818" points="1371.5137,549.1406,1361.5137,553.1406,1371.5137,557.1406,1367.5137,553.1406" style="stroke:#181818;stroke-width:1;"/><line style="stroke:#181818;stroke-width:1;stroke-dasharray:2.0,2.0;" x1="1365.5137" x2="1915.5283" y1="553.1406" y2="553.1406"/><text fill="#000000" font-family="sans-serif" font-size="13" lengthAdjust="spacing" textLength="135.8652" x="1377.5137" y="548.2842">Publicacion actualizada</text><polygon fill="#181818" points="1534.3716,579.4922,1544.3716,583.4922,1534.3716,587.4922,1538.3716,583.4922" style="stroke:#181818;stroke-width:1;"/><line style="stroke:#181818;stroke-width:1;" x1="1067.3838" x2="1540.3716" y1="583.4922" y2="583.4922"/><text fill="#000000" font-family="sans-serif" font-size="13" lengthAdjust="spacing" textLength="193.6606" x="1074.3838" y="578.6357">save(publicacion, adjuntos, actor)</text><polygon fill="#181818" points="1904.5283,642.5469,1914.5283,646.5469,1904.5283,650.5469,1908.5283,646.5469" style="stroke:#181818;stroke-width:1;"/><line style="stroke:#181818;stroke-width:1;" x1="1546.3716" x2="1910.5283" y1="646.5469" y2="646.5469"/><text fill="#000000" font-family="sans-serif" font-size="13" lengthAdjust="spacing" textLength="206.6289" x="1553.3716" y="608.9873">INSERT INTO archivos_publicacion</text><text fill="#000000" font-family="sans-serif" font-size="13" lengthAdjust="spacing" textLength="346.1567" x="1553.3716" y="625.3389">(publicacion_id, nombre, contenido, subido_por_id, retirado)</text><text fill="#000000" font-family="sans-serif" font-size="13" lengthAdjust="spacing" textLength="148.8462" x="1553.3716" y="641.6904">VALUES (?, ?, ?, ?, false)</text><polygon fill="#181818" points="1557.3716,672.8984,1547.3716,676.8984,1557.3716,680.8984,1553.3716,676.8984" style="stroke:#181818;stroke-width:1;"/><line style="stroke:#181818;stroke-width:1;stroke-dasharray:2.0,2.0;" x1="1551.3716" x2="1915.5283" y1="676.8984" y2="676.8984"/><text fill="#000000" font-family="sans-serif" font-size="13" lengthAdjust="spacing" textLength="141.6353" x="1563.3716" y="672.042">Adjuntos creados / vacio</text><polygon fill="#181818" points="716.9175,703.25,706.9175,707.25,716.9175,711.25,712.9175,707.25" style="stroke:#181818;stroke-width:1;"/><line style="stroke:#181818;stroke-width:1;stroke-dasharray:2.0,2.0;" x1="710.9175" x2="1066.3838" y1="707.25" y2="707.25"/><text fill="#000000" font-family="sans-serif" font-size="13" lengthAdjust="spacing" textLength="153.2134" x="722.9175" y="702.3936">Resultado del caso de uso</text><polygon fill="#181818" points="295.4526,733.6016,285.4526,737.6016,295.4526,741.6016,291.4526,737.6016" style="stroke:#181818;stroke-width:1;"/><line style="stroke:#181818;stroke-width:1;stroke-dasharray:2.0,2.0;" x1="289.4526" x2="704.9175" y1="737.6016" y2="737.6016"/><text fill="#000000" font-family="sans-serif" font-size="13" lengthAdjust="spacing" textLength="181.3779" x="301.4526" y="732.7451">200 OK (PublicacionResponse)</text><polygon fill="#181818" points="57.5239,763.9531,47.5239,767.9531,57.5239,771.9531,53.5239,767.9531" style="stroke:#181818;stroke-width:1;"/><line style="stroke:#181818;stroke-width:1;stroke-dasharray:2.0,2.0;" x1="51.5239" x2="283.4526" y1="767.9531" y2="767.9531"/><text fill="#000000" font-family="sans-serif" font-size="13" lengthAdjust="spacing" textLength="213.9287" x="63.5239" y="763.0967">Presenta Estado de detalle de origen</text><!--SRC=[fLJBRjim4BphAnOvsMq21pqQQ0lPLXvecWIsqru216jnusmhaof96KYB_dkNbEnGUPmA218VColEx2uz-ufWnhYsk45G18xAXdJ924T0YZtQwsPLSOab6vrXwOs5gJ5MiKPbR5QZzLnoZTh3mGl2DQxfLW_c9CJX0Q234skq9wtwn8GobNrhgegi41UrPRs6YJ4TFQ-vproG4zA2x9PBYf1svStuVMWSFyEQYcM62IU2mthv-6RSETN6iTZp6D5XsiVcjdpWhNcRqW4YKw775Jg2WqbuIs9cw8sBkDaaov8KmD6dlQjZM8HJIXPU9cymp7QmG14dnt2TBwTdCCAQH_KJajpe3wk_y1uI-aqjPw8v_Mh8UTagZVd9b4cO4AqrVGnc9V79jjEyz0rM0spy0-bWgPV5OTPkmj7k47aiAa6r86MUWiRqZ05Z8FwDTi3g44hShDYuGuZb6096NA04yyPmprfD7izLhjMSF5jKACHX5dO3QZOHeugBOhg4Tt0ol_eAFVNm_QoO5y0AFi9do2zdOBieid2FbQDiDeddRt-Nk0GZs8P1feqdiBn-y63kkzeP2zxLHZjSSSKA5R2amseSGqrs8rLdJyLS2NDQcHLMgR3Nl7X5kSCj3H8nVSqtrxDyMJmJkoYMuDatbGbonTrO8wpQwQr0F7OJsBBZtTc3D_zXr5w7mbH6qWGlrKZ6rOz6-oJt2NwdylnoKSoNybbU0RRRxYw98lTAChiB5QNDPcKfqNu8hbd9zwusDY8wOMPugx_b5pV50WRYn_w9OeSxjJqHUNTaA2r90BSlaRtgNID8TJHLD5jH9LNkmW0QrpL4hyy_71_3rHSOzAwJM5oKzhbmagj2Cc39IPiX5AxxaJmUvReDGoC5I_eV]--></g></svg>