<svg xmlns="http://www.w3.org/2000/svg" xmlns:xlink="http://www.w3.org/1999/xlink" contentStyleType="text/css" data-diagram-type="DESCRIPTION" height="682px" preserveAspectRatio="none" style="width:1840px;height:682px;background:#FFFFFF;" version="1.1" viewBox="0 0 1840 682" width="1840px" zoomAndPan="magnify"><?plantuml 1.2026.6?><defs/><g><!--cluster abrirInvestigador--><g class="cluster" data-qualified-name="abrirInvestigador" data-source-line="5" id="ent0003"><path d="M253,130.5 L473.3721,130.5 A3.75,3.75 0 0 1 475.8721,133 L482.8721,154.1094 L1105,154.1094 A2.5,2.5 0 0 1 1107.5,156.6094 L1107.5,665 A2.5,2.5 0 0 1 1105,667.5 L253,667.5 A2.5,2.5 0 0 1 250.5,665 L250.5,133 A2.5,2.5 0 0 1 253,130.5" fill="none" style="stroke:#000000;stroke-width:1.5;"/><line style="stroke:#000000;stroke-width:1.5;" x1="250.5" x2="482.8721" y1="154.1094" y2="154.1094"/><text fill="#000000" font-family="sans-serif" font-size="14" font-weight="700" lengthAdjust="spacing" textLength="219.3721" x="254.5" y="147.0332">abrirInvestigador(idInvestigador)</text></g><!--entity DetalleInvestigadorView--><g class="entity" data-qualified-name="abrirInvestigador.DetalleInvestigadorView" data-source-line="6" id="ent0004"><rect fill="#629EF9" height="37.6094" rx="2.5" ry="2.5" style="stroke:#181818;stroke-width:0.5;" width="170.1924" x="750.5" y="166.5"/><text fill="#000000" font-family="sans-serif" font-size="14" lengthAdjust="spacing" textLength="150.1924" x="760.5" y="191.0332">DetalleInvestigadorView</text></g><!--entity InvestigadorController--><g class="entity" data-qualified-name="abrirInvestigador.InvestigadorController" data-source-line="7" id="ent0005"><rect fill="#B5BD68" height="37.6094" rx="2.5" ry="2.5" style="stroke:#181818;stroke-width:0.5;" width="156.958" x="375" y="282.5"/><text fill="#000000" font-family="sans-serif" font-size="14" lengthAdjust="spacing" textLength="136.958" x="385" y="307.0332">InvestigadorController</text></g><!--entity InvestigadorService--><g class="entity" data-qualified-name="abrirInvestigador.InvestigadorService" data-source-line="8" id="ent0006"><rect fill="#B5BD68" height="37.6094" rx="2.5" ry="2.5" style="stroke:#181818;stroke-width:0.5;" width="142.9512" x="324" y="398.5"/><text fill="#000000" font-family="sans-serif" font-size="14" lengthAdjust="spacing" textLength="122.9512" x="334" y="423.0332">InvestigadorService</text></g><!--entity SesionService--><g class="entity" data-qualified-name="abrirInvestigador.SesionService" data-source-line="9" id="ent0007"><rect fill="#B5BD68" height="37.6094" rx="2.5" ry="2.5" style="stroke:#181818;stroke-width:0.5;" width="109.4893" x="565" y="398.5"/><text fill="#000000" font-family="sans-serif" font-size="14" lengthAdjust="spacing" textLength="89.4893" x="575" y="423.0332">SesionService</text></g><!--entity InvestigadorRepository--><g class="entity" data-qualified-name="abrirInvestigador.InvestigadorRepository" data-source-line="10" id="ent0008"><rect fill="#F2AC4E" height="37.6094" rx="2.5" ry="2.5" style="stroke:#181818;stroke-width:0.5;" width="163.1855" x="267" y="514.5"/><text fill="#000000" font-family="sans-serif" font-size="14" lengthAdjust="spacing" textLength="143.1855" x="277" y="539.0332">InvestigadorRepository</text></g><!--entity ProyectoRepository--><g class="entity" data-qualified-name="abrirInvestigador.ProyectoRepository" data-source-line="11" id="ent0009"><rect fill="#F2AC4E" height="37.6094" rx="2.5" ry="2.5" style="stroke:#181818;stroke-width:0.5;" width="142.165" x="560.5" y="514.5"/><text fill="#000000" font-family="sans-serif" font-size="14" lengthAdjust="spacing" textLength="122.165" x="570.5" y="539.0332">ProyectoRepository</text></g><!--entity Investigador--><g class="entity" data-qualified-name="abrirInvestigador.Investigador" data-source-line="12" id="ent0010"><rect fill="#F2AC4E" height="37.6094" rx="2.5" ry="2.5" style="stroke:#181818;stroke-width:0.5;" width="96.2686" x="300.5" y="613.5"/><text fill="#000000" font-family="sans-serif" font-size="14" lengthAdjust="spacing" textLength="76.2686" x="310.5" y="638.0332">Investigador</text></g><!--entity Proyecto--><g class="entity" data-qualified-name="abrirInvestigador.Proyecto" data-source-line="13" id="ent0011"><rect fill="#F2AC4E" height="37.6094" rx="2.5" ry="2.5" style="stroke:#181818;stroke-width:0.5;" width="75.248" x="594" y="613.5"/><text fill="#000000" font-family="sans-serif" font-size="14" lengthAdjust="spacing" textLength="55.248" x="604" y="638.0332">Proyecto</text></g><!--entity ActorInvestigador--><g class="entity" data-qualified-name="ActorInvestigador" data-source-line="3" id="ent0001"><ellipse cx="120.6343" cy="14" fill="#F1F1F1" rx="8" ry="8" style="stroke:#181818;stroke-width:0.5;"/><path d="M120.6343,22 L120.6343,49 M107.6343,30 L133.6343,30 M120.6343,49 L107.6343,64 M120.6343,49 L133.6343,64" fill="none" style="stroke:#181818;stroke-width:0.5;"/><text fill="#000000" font-family="sans-serif" font-size="14" lengthAdjust="spacing" textLength="76.2686" x="82.5" y="80.0332">Investigador</text></g><!--entity InvestigadoresAbiertos--><g class="entity" data-qualified-name="InvestigadoresAbiertos" data-source-line="4" id="ent0002"><rect fill="#CDEBA5" height="37.6094" rx="2.5" ry="2.5" style="stroke:#181818;stroke-width:0.5;" width="226.9375" x="7" y="166.5"/><text fill="#000000" font-family="sans-serif" font-size="14" lengthAdjust="spacing" textLength="206.9375" x="17" y="191.0332">:INVESTIGADORES_ABIERTOS</text></g><!--entity InvestigadorAbierto--><g class="entity" data-qualified-name="InvestigadorAbierto" data-source-line="15" id="ent0012"><rect fill="#CDEBA5" height="37.6094" rx="2.5" ry="2.5" style="stroke:#181818;stroke-width:0.5;" width="198.9238" x="1124" y="282.5"/><text fill="#000000" font-family="sans-serif" font-size="14" lengthAdjust="spacing" textLength="178.9238" x="1134" y="307.0332">:INVESTIGADOR_ABIERTO</text></g><!--entity AbrirInvestigadores--><g class="entity" data-qualified-name="AbrirInvestigadores" data-source-line="16" id="ent0013"><rect fill="#CDEBA5" height="37.6094" rx="2.5" ry="2.5" style="stroke:#181818;stroke-width:0.5;" width="230.8887" x="1358" y="282.5"/><text fill="#000000" font-family="sans-serif" font-size="14" lengthAdjust="spacing" textLength="210.8887" x="1368" y="307.0332">:Collaboration AbrirInvestigadores</text></g><!--entity AbrirProyectos--><g class="entity" data-qualified-name="AbrirProyectos" data-source-line="17" id="ent0014"><rect fill="#CDEBA5" height="37.6094" rx="2.5" ry="2.5" style="stroke:#181818;stroke-width:0.5;" width="202.082" x="1624.5" y="282.5"/><text fill="#000000" font-family="sans-serif" font-size="14" lengthAdjust="spacing" textLength="182.082" x="1634.5" y="307.0332">:Collaboration AbrirProyectos</text></g><!--link ActorInvestigador to InvestigadoresAbiertos--><g class="link" data-entity-1="ent0001" data-entity-2="ent0002" data-link-type="association" data-source-line="19" id="lnk15"><path d="M120.5,83.85 C120.5,110.69 120.5,145.34 120.5,166.2" fill="none" id="ActorInvestigador-InvestigadoresAbiertos" style="stroke:#181818;stroke-width:1;"/></g><!--link InvestigadoresAbiertos to DetalleInvestigadorView--><g class="link" data-entity-1="ent0002" data-entity-2="ent0004" data-link-type="dependency" data-source-line="20" id="lnk16"><path d="M234.19,185.5 C377.81,185.5 616.7,185.5 745.3,185.5" fill="none" id="InvestigadoresAbiertos-to-DetalleInvestigadorView" style="stroke:#181818;stroke-width:1;"/><polygon fill="#181818" points="750.3,185.5,741.3,181.5,745.3,185.5,741.3,189.5,750.3,185.5" style="stroke:#181818;stroke-width:1;stroke-linejoin:miter;stroke-miterlimit:10;"/><text fill="#000000" font-family="sans-serif" font-size="13" lengthAdjust="spacing" textLength="186.4243" x="399.25" y="178.9951">abrirInvestigador(idInvestigador)</text></g><!--link DetalleInvestigadorView to InvestigadorController--><g class="link" data-entity-1="ent0004" data-entity-2="ent0005" data-link-type="dependency" data-source-line="21" id="lnk17"><path d="M750.41,194.11 C598.99,207.64 298.5,234.5 298.5,234.5 C298.5,234.5 298.5,252.5 298.5,252.5 C298.5,252.5 346.5838,267.3909 390.5638,281.0109" fill="none" id="DetalleInvestigadorView-to-InvestigadorController" style="stroke:#181818;stroke-width:1;"/><polygon fill="#181818" points="395.34,282.49,387.9261,276.0066,390.5638,281.0109,385.5595,283.6485,395.34,282.49" style="stroke:#181818;stroke-width:1;stroke-linejoin:miter;stroke-miterlimit:10;"/><text fill="#000000" font-family="sans-serif" font-size="13" lengthAdjust="spacing" textLength="321.5659" x="299.5" y="248.9951">obtenerInvestigadorActivo(idInvestigador) : Investigador</text></g><!--link DetalleInvestigadorView to InvestigadorController--><g class="link" data-entity-1="ent0004" data-entity-2="ent0005" data-link-type="dependency" data-source-line="25" id="lnk21"><path d="M778.12,204.53 C715.94,224.08 625.5,252.5 625.5,252.5 C625.5,252.5 571.6559,267.5259 522.8559,281.1459" fill="none" id="DetalleInvestigadorView-to-InvestigadorController-1" style="stroke:#181818;stroke-width:1;"/><polygon fill="#181818" points="518.04,282.49,527.784,283.9233,522.8559,281.1459,525.6334,276.2178,518.04,282.49" style="stroke:#181818;stroke-width:1;stroke-linejoin:miter;stroke-miterlimit:10;"/><text fill="#000000" font-family="sans-serif" font-size="13" lengthAdjust="spacing" textLength="425.5786" x="682.5" y="248.9951">listarProyectosVisibles(idInvestigador, ActorInvestigador) : List&lt;Proyecto&gt;</text></g><!--link InvestigadorController to InvestigadorService--><g class="link" data-entity-1="ent0005" data-entity-2="ent0006" data-link-type="dependency" data-source-line="22" id="lnk18"><path d="M430.44,320.65 C413.16,334.24 392.5,350.5 392.5,350.5 C392.5,350.5 392.5,368.5 392.5,368.5 C392.5,368.5 393.2079,379.7698 394.0579,393.3598" fill="none" id="InvestigadorController-to-InvestigadorService" style="stroke:#181818;stroke-width:1;"/><polygon fill="#181818" points="394.37,398.35,397.8004,389.1179,394.0579,393.3598,389.816,389.6172,394.37,398.35" style="stroke:#181818;stroke-width:1;stroke-linejoin:miter;stroke-miterlimit:10;"/><text fill="#000000" font-family="sans-serif" font-size="13" lengthAdjust="spacing" textLength="182.8252" x="393.5" y="364.9951">obtener(sesion, id, proyectoId?)</text></g><!--link InvestigadorController to SesionService--><g class="link" data-entity-1="ent0005" data-entity-2="ent0007" data-link-type="dependency" data-source-line="23" id="lnk19"><path d="M501.15,320.51 C537.19,334.13 580.5,350.5 580.5,350.5 C580.5,350.5 594.7584,374.6142 606.2984,394.1642" fill="none" id="InvestigadorController-to-SesionService" style="stroke:#181818;stroke-width:1;"/><polygon fill="#181818" points="608.84,398.47,607.7097,388.6862,606.2984,394.1642,600.8204,392.7528,608.84,398.47" style="stroke:#181818;stroke-width:1;stroke-linejoin:miter;stroke-miterlimit:10;"/><text fill="#000000" font-family="sans-serif" font-size="13" lengthAdjust="spacing" textLength="209.5806" x="591.5" y="364.9951">obtenerSesionActual(authentication)</text></g><!--link InvestigadorService to InvestigadorRepository--><g class="link" data-entity-1="ent0006" data-entity-2="ent0008" data-link-type="dependency" data-source-line="24" id="lnk20"><path d="M361.73,436.51 C336.19,450.13 305.5,466.5 305.5,466.5 C305.5,466.5 305.5,484.5 305.5,484.5 C305.5,484.5 316.7344,497.0352 328.9044,510.6252" fill="none" id="InvestigadorService-to-InvestigadorRepository" style="stroke:#181818;stroke-width:1;"/><polygon fill="#181818" points="332.24,514.35,329.2158,504.9769,328.9044,510.6252,323.2561,510.3139,332.24,514.35" style="stroke:#181818;stroke-width:1;stroke-linejoin:miter;stroke-miterlimit:10;"/><text fill="#000000" font-family="sans-serif" font-size="13" lengthAdjust="spacing" textLength="281.8169" x="306.5" y="480.9951">obtenerActivoPorId(idInvestigador) : Investigador</text></g><!--link InvestigadorService to ProyectoRepository--><g class="link" data-entity-1="ent0006" data-entity-2="ent0009" data-link-type="dependency" data-source-line="26" id="lnk22"><path d="M467.18,435.96 C523.51,449.69 592.5,466.5 592.5,466.5 C592.5,466.5 606.7584,490.6142 618.2984,510.1642" fill="none" id="InvestigadorService-to-ProyectoRepository" style="stroke:#181818;stroke-width:1;"/><polygon fill="#181818" points="620.84,514.47,619.7097,504.6862,618.2984,510.1642,612.8204,508.7528,620.84,514.47" style="stroke:#181818;stroke-width:1;stroke-linejoin:miter;stroke-miterlimit:10;"/><text fill="#000000" font-family="sans-serif" font-size="13" lengthAdjust="spacing" textLength="458.1167" x="603.5" y="480.9951">obtenerVisiblesCompartidos(idInvestigador, ActorInvestigador) : List&lt;Proyecto&gt;</text></g><!--link InvestigadorRepository to Investigador--><g class="link" data-entity-1="ent0008" data-entity-2="ent0010" data-link-type="association" data-source-line="27" id="lnk23"><path d="M348.5,552.74 C348.5,570.09 348.5,596.02 348.5,613.34" fill="none" id="InvestigadorRepository-Investigador" style="stroke:#181818;stroke-width:1;"/></g><!--link ProyectoRepository to Proyecto--><g class="link" data-entity-1="ent0009" data-entity-2="ent0011" data-link-type="association" data-source-line="28" id="lnk24"><path d="M631.5,552.74 C631.5,570.09 631.5,596.02 631.5,613.34" fill="none" id="ProyectoRepository-Proyecto" style="stroke:#181818;stroke-width:1;"/></g><!--link DetalleInvestigadorView to InvestigadorAbierto--><g class="link" data-entity-1="ent0004" data-entity-2="ent0012" data-link-type="dependency" data-source-line="29" id="lnk25"><path d="M920.57,201.03 C1003.28,215.16 1116.5,234.5 1116.5,234.5 C1116.5,234.5 1158.325,260.2942 1190.005,279.8442" fill="none" id="DetalleInvestigadorView-to-InvestigadorAbierto" style="stroke:#181818;stroke-width:1;stroke-dasharray:7,7;"/><polygon fill="#181818" points="1194.26,282.47,1188.7016,274.3395,1190.005,279.8442,1184.5003,281.1476,1194.26,282.47" style="stroke:#181818;stroke-width:1;stroke-linejoin:miter;stroke-miterlimit:10;"/><text fill="#000000" font-family="sans-serif" font-size="13" lengthAdjust="spacing" textLength="145.2471" x="1145.5" y="248.9951">investigadorPresentado()</text></g><!--link DetalleInvestigadorView to AbrirInvestigadores--><g class="link" data-entity-1="ent0004" data-entity-2="ent0013" data-link-type="dependency" data-source-line="30" id="lnk26"><path d="M920.6,195.3 C1054.56,209.16 1299.5,234.5 1299.5,234.5 C1299.5,234.5 1369.7654,261.1458 1421.2754,280.6958" fill="none" id="DetalleInvestigadorView-to-AbrirInvestigadores" style="stroke:#181818;stroke-width:1;stroke-dasharray:7,7;"/><polygon fill="#181818" points="1425.95,282.47,1418.955,275.5367,1421.2754,280.6958,1416.1163,283.0161,1425.95,282.47" style="stroke:#181818;stroke-width:1;stroke-linejoin:miter;stroke-miterlimit:10;"/><text fill="#000000" font-family="sans-serif" font-size="13" lengthAdjust="spacing" textLength="119.2153" x="1346.5" y="248.9951">abrirInvestigadores()</text></g><!--link DetalleInvestigadorView to AbrirProyectos--><g class="link" data-entity-1="ent0004" data-entity-2="ent0014" data-link-type="dependency" data-source-line="31" id="lnk27"><path d="M920.68,192.9 C1094.66,205.97 1474.5,234.5 1474.5,234.5 C1474.5,234.5 1577.7645,261.6479 1652.0745,281.1979" fill="none" id="DetalleInvestigadorView-to-AbrirProyectos" style="stroke:#181818;stroke-width:1;stroke-dasharray:7,7;"/><polygon fill="#181818" points="1656.91,282.47,1649.2239,276.3118,1652.0745,281.1979,1647.1885,284.0485,1656.91,282.47" style="stroke:#181818;stroke-width:1;stroke-linejoin:miter;stroke-miterlimit:10;"/><text fill="#000000" font-family="sans-serif" font-size="13" lengthAdjust="spacing" textLength="92.4663" x="1542.5" y="248.9951">abrirProyectos()</text></g><?plantuml-src fLJRQjj047tVhnZK5nciF8GcD2AuAB9I1AKnLl1hMKc3EqJHYjsDYodzzwvyaNLRsr0zQGypPoxdxAetAYik-JiKLABULWYLABRrWJ6UQI71YSiDAarhdWlf05SGr7WRPH8ppSjrWV0fd4TFmHquVlnZ5IMlyRTW_hACaf_1KnmjNr-I7KCx6LMG4aej5AjuziRN23oLr2bGvpW3rAMyVPmuy8U1-LhTtDy-HCyFC4VDYmBRqIl2t_tez2xDxxzqkWj5gQKmkVAAu0JbXZAqH2QeI9IMcEVR8FmSTTYMM0b5PjLRI_12Ygq1nSN0ZbRdkTZVYs8UfHmeUT1nb20qE-Ifa5oR7K3GbnBLtbb3_5gsum0jeWPYR61Py3oR2yTXyAGtind9XulcP9PKy7B3Esuv7qIgiSGEiHc5Dg9F3tvNvN52C_LipB5D8LVjJ3e5ogTG7VONvrydvmWxncwezgZfzeCNBl_Glx3KbEqKwx8T4WUzdMpTSEvdNnWfyqiBiAxxpBOBKfgVRBCYHMc1gbTgEdm0w-hVJVBZCNTcdN1uQPlfZlL2yMxUP4sv-F_Ifp9znxDX9tL8yn3O5dXpCnkxzJvG2roOcsFqDh_kv2pJo8qVkKn6Woje6k4E3CtPdVm3?></g></svg>