<svg xmlns="http://www.w3.org/2000/svg" xmlns:xlink="http://www.w3.org/1999/xlink" contentStyleType="text/css" data-diagram-type="DESCRIPTION" height="442px" preserveAspectRatio="none" style="width:1474px;height:442px;background:#FFFFFF;" version="1.1" viewBox="0 0 1474 442" width="1474px" zoomAndPan="magnify"><?plantuml 1.2026.4?><defs/><g><!--cluster abrirInvestigador--><g class="cluster" data-qualified-name="abrirInvestigador" data-source-line="4" id="ent0002"><path d="M253,6 L377.6895,6 A3.75,3.75 0 0 1 380.1895,8.5 L387.1895,29.6094 L739,29.6094 A2.5,2.5 0 0 1 741.5,32.1094 L741.5,424.5 A2.5,2.5 0 0 1 739,427 L253,427 A2.5,2.5 0 0 1 250.5,424.5 L250.5,8.5 A2.5,2.5 0 0 1 253,6" fill="none" style="stroke:#000000;stroke-width:1.5;"/><line style="stroke:#000000;stroke-width:1.5;" x1="250.5" x2="387.1895" y1="29.6094" y2="29.6094"/><text fill="#000000" font-family="sans-serif" font-size="14" font-weight="700" lengthAdjust="spacing" textLength="123.6895" x="254.5" y="22.5332">abrirInvestigador()</text></g><!--entity DetalleInvestigadorView--><g class="entity" data-qualified-name="abrirInvestigador.DetalleInvestigadorView" data-source-line="5" id="ent0003"><rect fill="#629EF9" height="37.6094" rx="2.5" ry="2.5" style="stroke:#181818;stroke-width:0.5;" width="170.1924" x="473.5" y="42"/><text fill="#000000" font-family="sans-serif" font-size="14" lengthAdjust="spacing" textLength="150.1924" x="483.5" y="66.5332">DetalleInvestigadorView</text></g><!--entity InvestigadorController--><g class="entity" data-qualified-name="abrirInvestigador.InvestigadorController" data-source-line="6" id="ent0004"><rect fill="#B5BD68" height="37.6094" rx="2.5" ry="2.5" style="stroke:#181818;stroke-width:0.5;" width="156.958" x="312" y="158"/><text fill="#000000" font-family="sans-serif" font-size="14" lengthAdjust="spacing" textLength="136.958" x="322" y="182.5332">InvestigadorController</text></g><!--entity InvestigadorRepository--><g class="entity" data-qualified-name="abrirInvestigador.InvestigadorRepository" data-source-line="7" id="ent0005"><rect fill="#F2AC4E" height="37.6094" rx="2.5" ry="2.5" style="stroke:#181818;stroke-width:0.5;" width="163.1855" x="322" y="274"/><text fill="#000000" font-family="sans-serif" font-size="14" lengthAdjust="spacing" textLength="143.1855" x="332" y="298.5332">InvestigadorRepository</text></g><!--entity Investigador--><g class="entity" data-qualified-name="abrirInvestigador.Investigador" data-source-line="8" id="ent0006"><rect fill="#F2AC4E" height="37.6094" rx="2.5" ry="2.5" style="stroke:#181818;stroke-width:0.5;" width="96.2686" x="355.5" y="373"/><text fill="#000000" font-family="sans-serif" font-size="14" lengthAdjust="spacing" textLength="76.2686" x="365.5" y="397.5332">Investigador</text></g><!--entity EstadoEntrada--><g class="entity" data-qualified-name="EstadoEntrada" data-source-line="3" id="ent0001"><rect fill="#CDEBA5" height="37.6094" rx="2.5" ry="2.5" style="stroke:#181818;stroke-width:0.5;" width="226.9375" x="7" y="42"/><text fill="#000000" font-family="sans-serif" font-size="14" lengthAdjust="spacing" textLength="206.9375" x="17" y="66.5332">:INVESTIGADORES_ABIERTOS</text></g><!--entity EstadoSalida--><g class="entity" data-qualified-name="EstadoSalida" data-source-line="11" id="ent0007"><rect fill="#CDEBA5" height="37.6094" rx="2.5" ry="2.5" style="stroke:#181818;stroke-width:0.5;" width="198.9238" x="758" y="158"/><text fill="#000000" font-family="sans-serif" font-size="14" lengthAdjust="spacing" textLength="178.9238" x="768" y="182.5332">:INVESTIGADOR_ABIERTO</text></g><!--entity AbrirInvestigadores--><g class="entity" data-qualified-name="AbrirInvestigadores" data-source-line="12" id="ent0008"><rect fill="#CDEBA5" height="37.6094" rx="2.5" ry="2.5" style="stroke:#181818;stroke-width:0.5;" width="230.8887" x="992" y="158"/><text fill="#000000" font-family="sans-serif" font-size="14" lengthAdjust="spacing" textLength="210.8887" x="1002" y="182.5332">:Collaboration AbrirInvestigadores</text></g><!--entity AbrirProyectos--><g class="entity" data-qualified-name="AbrirProyectos" data-source-line="13" id="ent0009"><rect fill="#CDEBA5" height="37.6094" rx="2.5" ry="2.5" style="stroke:#181818;stroke-width:0.5;" width="202.082" x="1258.5" y="158"/><text fill="#000000" font-family="sans-serif" font-size="14" lengthAdjust="spacing" textLength="182.082" x="1268.5" y="182.5332">:Collaboration AbrirProyectos</text></g><!--link EstadoEntrada to DetalleInvestigadorView--><g class="link" data-entity-1="ent0001" data-entity-2="ent0003" data-link-type="dependency" data-source-line="15" id="lnk10"><path d="M234.15,61 C308.92,61 400.21,61 468.39,61" fill="none" id="EstadoEntrada-to-DetalleInvestigadorView" style="stroke:#181818;stroke-width:1;"/><polygon fill="#181818" points="473.39,61,464.39,57,468.39,61,464.39,65,473.39,61" style="stroke:#181818;stroke-width:1;stroke-linejoin:miter;stroke-miterlimit:10;"/><text fill="#000000" font-family="sans-serif" font-size="13" lengthAdjust="spacing" textLength="105.4854" x="301.25" y="54.4951">abrirInvestigador()</text></g><!--link DetalleInvestigadorView to InvestigadorController--><g class="link" data-entity-1="ent0003" data-entity-2="ent0004" data-link-type="dependency" data-source-line="17" id="lnk11"><path d="M473.37,77.72 C397.54,91.72 298.5,110 298.5,110 C298.5,110 298.5,128 298.5,128 C298.5,128 325.4473,142.0568 351.5473,155.6768" fill="none" id="DetalleInvestigadorView-to-InvestigadorController" style="stroke:#181818;stroke-width:1;"/><polygon fill="#181818" points="355.98,157.99,349.8516,150.2801,351.5473,155.6768,346.1505,157.3725,355.98,157.99" style="stroke:#181818;stroke-width:1;stroke-linejoin:miter;stroke-miterlimit:10;"/><text fill="#000000" font-family="sans-serif" font-size="13" lengthAdjust="spacing" textLength="133.688" x="299.5" y="124.4951">obtenerInvestigador(id)</text></g><!--link DetalleInvestigadorView to InvestigadorController--><g class="link" data-entity-1="ent0003" data-entity-2="ent0004" data-link-type="dependency" data-source-line="18" id="lnk12"><path d="M531.88,80.06 C500.51,101.35 452.8372,133.6923 421.4072,155.0223" fill="none" id="DetalleInvestigadorView-to-InvestigadorController-1" style="stroke:#181818;stroke-width:1;"/><polygon fill="#181818" points="417.27,157.83,426.9632,156.0859,421.4072,155.0223,422.4708,149.4663,417.27,157.83" style="stroke:#181818;stroke-width:1;stroke-linejoin:miter;stroke-miterlimit:10;"/><text fill="#000000" font-family="sans-serif" font-size="13" lengthAdjust="spacing" textLength="247.8442" x="485.5" y="124.4951">prepararAccionesDisponibles(investigador)</text></g><!--link InvestigadorController to InvestigadorRepository--><g class="link" data-entity-1="ent0004" data-entity-2="ent0005" data-link-type="dependency" data-source-line="19" id="lnk13"><path d="M364.41,196.15 C344.87,209.74 321.5,226 321.5,226 C321.5,226 321.5,244 321.5,244 C321.5,244 344.9647,257.7344 368.1847,271.3244" fill="none" id="InvestigadorController-to-InvestigadorRepository" style="stroke:#181818;stroke-width:1;"/><polygon fill="#181818" points="372.5,273.85,366.753,265.8517,368.1847,271.3244,362.7121,272.7561,372.5,273.85" style="stroke:#181818;stroke-width:1;stroke-linejoin:miter;stroke-miterlimit:10;"/><text fill="#000000" font-family="sans-serif" font-size="13" lengthAdjust="spacing" textLength="93.939" x="322.5" y="240.4951">obtenerPorId(id)</text></g><!--link InvestigadorController to InvestigadorRepository--><g class="link" data-entity-1="ent0004" data-entity-2="ent0005" data-link-type="dependency" data-source-line="20" id="lnk14"><path d="M401.84,196.15 C410.34,209.74 420.5,226 420.5,226 C420.5,226 420.5,244 420.5,244 C420.5,244 416.4083,255.5465 411.5983,269.1365" fill="none" id="InvestigadorController-to-InvestigadorRepository-1" style="stroke:#181818;stroke-width:1;"/><polygon fill="#181818" points="409.93,273.85,416.7037,266.7004,411.5983,269.1365,409.1621,264.0311,409.93,273.85" style="stroke:#181818;stroke-width:1;stroke-linejoin:miter;stroke-miterlimit:10;"/><text fill="#000000" font-family="sans-serif" font-size="13" lengthAdjust="spacing" textLength="137.2427" x="421.5" y="240.4951">verificarPermisos(actor)</text></g><!--link InvestigadorRepository to Investigador--><g class="link" data-entity-1="ent0005" data-entity-2="ent0006" data-link-type="association" data-source-line="21" id="lnk15"><path d="M403.5,312.24 C403.5,329.59 403.5,355.52 403.5,372.84" fill="none" id="InvestigadorRepository-Investigador" style="stroke:#181818;stroke-width:1;"/></g><!--link DetalleInvestigadorView to EstadoSalida--><g class="link" data-entity-1="ent0003" data-entity-2="ent0007" data-link-type="dependency" data-source-line="22" id="lnk16"><path d="M627.16,80.01 C679.09,93.63 741.5,110 741.5,110 C741.5,110 787.1148,135.9463 821.4548,155.4963" fill="none" id="DetalleInvestigadorView-to-EstadoSalida" style="stroke:#181818;stroke-width:1;stroke-dasharray:7,7;"/><polygon fill="#181818" points="825.8,157.97,819.9577,150.0411,821.4548,155.4963,815.9997,156.9934,825.8,157.97" style="stroke:#181818;stroke-width:1;stroke-linejoin:miter;stroke-miterlimit:10;"/><text fill="#000000" font-family="sans-serif" font-size="13" lengthAdjust="spacing" textLength="130.7935" x="773.5" y="124.4951">continuarNavegacion()</text></g><!--link DetalleInvestigadorView to AbrirInvestigadores--><g class="link" data-entity-1="ent0003" data-entity-2="ent0008" data-link-type="dependency" data-source-line="23" id="lnk17"><path d="M643.74,73.56 C748.49,87.76 912.5,110 912.5,110 C912.5,110 991.7441,136.8165 1049.4841,156.3665" fill="none" id="DetalleInvestigadorView-to-AbrirInvestigadores" style="stroke:#181818;stroke-width:1;stroke-dasharray:7,7;"/><polygon fill="#181818" points="1054.22,157.97,1046.9782,151.295,1049.4841,156.3665,1044.4126,158.8724,1054.22,157.97" style="stroke:#181818;stroke-width:1;stroke-linejoin:miter;stroke-miterlimit:10;"/><text fill="#000000" font-family="sans-serif" font-size="13" lengthAdjust="spacing" textLength="119.2153" x="965.5" y="124.4951">abrirInvestigadores()</text></g><!--link DetalleInvestigadorView to AbrirProyectos--><g class="link" data-entity-1="ent0003" data-entity-2="ent0009" data-link-type="dependency" data-source-line="24" id="lnk18"><path d="M643.57,69.63 C794.52,83.18 1093.5,110 1093.5,110 C1093.5,110 1203.2073,137.2153 1281.9573,156.7653" fill="none" id="DetalleInvestigadorView-to-AbrirProyectos" style="stroke:#181818;stroke-width:1;stroke-dasharray:7,7;"/><polygon fill="#181818" points="1286.81,157.97,1279.0389,151.9194,1281.9573,156.7653,1277.1114,159.6837,1286.81,157.97" style="stroke:#181818;stroke-width:1;stroke-linejoin:miter;stroke-miterlimit:10;"/><text fill="#000000" font-family="sans-serif" font-size="13" lengthAdjust="spacing" textLength="92.4663" x="1165.5" y="124.4951">abrirProyectos()</text></g><?plantuml-src dP91Ru9048Nl-oiczY87FPXggWSJL6oug57JQpF0r6p4NJAxjI5D_tjNqoeWMbDkkxptyNWpPYjLXemxIAKYcsS4cKxpmq48fjYYsgG43-D9CFAxq1Y4ivTWjGwV_Sby6QnU_L4OBDVpLGFGG60i9ZfGbZ51aM6ynGq1HYmvL7ioLcxSUpv86nUtJQy1dmBSK_XihzCFfdsOaCKqfQByHT97LHrrewJt14NPMBiqsdcvAfvs_F5ZK18lATD6Mitv7MBnzNT1l_KKsbbXAbqvTSwnoucHPhHIA_2h1P4vOchkxwKjMETEgGkWqvKGfUb1Yrl3QxqFe6PwGbnHGojngFgX3417bXILMJBnhiDki3Acmowp7yVkdybCfCcqab5AfYaB7a_K4oxWvuKu1Lre3fDZmdymziJoJSR82-ATDDeqqNLVoNCsE5PvvQwLqcuFI-irWDW5akeTUOPxsk2XZwPtqr-pLpLpTatUWJbjrG_XT7RcRm00?></g></svg>