<svg xmlns="http://www.w3.org/2000/svg" xmlns:xlink="http://www.w3.org/1999/xlink" contentStyleType="text/css" data-diagram-type="DESCRIPTION" height="442px" preserveAspectRatio="none" style="width:1051px;height:442px;background:#FFFFFF;" version="1.1" viewBox="0 0 1051 442" width="1051px" zoomAndPan="magnify"><?plantuml 1.2026.4?><defs/><g><!--cluster eliminarEntregable--><g class="cluster" data-qualified-name="eliminarEntregable" data-source-line="4" id="ent0002"><path d="M214,6 L350.3652,6 A3.75,3.75 0 0 1 352.8652,8.5 L359.8652,29.6094 L570,29.6094 A2.5,2.5 0 0 1 572.5,32.1094 L572.5,424.5 A2.5,2.5 0 0 1 570,427 L214,427 A2.5,2.5 0 0 1 211.5,424.5 L211.5,8.5 A2.5,2.5 0 0 1 214,6" fill="none" style="stroke:#000000;stroke-width:1.5;"/><line style="stroke:#000000;stroke-width:1.5;" x1="211.5" x2="359.8652" y1="29.6094" y2="29.6094"/><text fill="#000000" font-family="sans-serif" font-size="14" font-weight="700" lengthAdjust="spacing" textLength="135.3652" x="215.5" y="22.5332">eliminarEntregable()</text></g><!--entity EliminarEntregableView--><g class="entity" data-qualified-name="eliminarEntregable.EliminarEntregableView" data-source-line="5" id="ent0003"><rect fill="#629EF9" height="37.6094" rx="2.5" ry="2.5" style="stroke:#181818;stroke-width:0.5;" width="168.627" x="348" y="42"/><text fill="#000000" font-family="sans-serif" font-size="14" lengthAdjust="spacing" textLength="148.627" x="358" y="66.5332">EliminarEntregableView</text></g><!--entity EntregableController--><g class="entity" data-qualified-name="eliminarEntregable.EntregableController" data-source-line="6" id="ent0004"><rect fill="#B5BD68" height="37.6094" rx="2.5" ry="2.5" style="stroke:#181818;stroke-width:0.5;" width="148.4063" x="275.5" y="158"/><text fill="#000000" font-family="sans-serif" font-size="14" lengthAdjust="spacing" textLength="128.4063" x="285.5" y="182.5332">EntregableController</text></g><!--entity EntregableRepository--><g class="entity" data-qualified-name="eliminarEntregable.EntregableRepository" data-source-line="7" id="ent0005"><rect fill="#F2AC4E" height="37.6094" rx="2.5" ry="2.5" style="stroke:#181818;stroke-width:0.5;" width="154.6338" x="284" y="274"/><text fill="#000000" font-family="sans-serif" font-size="14" lengthAdjust="spacing" textLength="134.6338" x="294" y="298.5332">EntregableRepository</text></g><!--entity Entregable--><g class="entity" data-qualified-name="eliminarEntregable.Entregable" data-source-line="8" id="ent0006"><rect fill="#F2AC4E" height="37.6094" rx="2.5" ry="2.5" style="stroke:#181818;stroke-width:0.5;" width="87.7168" x="317.5" y="373"/><text fill="#000000" font-family="sans-serif" font-size="14" lengthAdjust="spacing" textLength="67.7168" x="327.5" y="397.5332">Entregable</text></g><!--entity EstadoEntrada--><g class="entity" data-qualified-name="EstadoEntrada" data-source-line="3" id="ent0001"><rect fill="#CDEBA5" height="37.6094" rx="2.5" ry="2.5" style="stroke:#181818;stroke-width:0.5;" width="187.2686" x="7" y="42"/><text fill="#000000" font-family="sans-serif" font-size="14" lengthAdjust="spacing" textLength="167.2686" x="17" y="66.5332">:ENTREGABLE_ABIERTO</text></g><!--entity EstadoSalida--><g class="entity" data-qualified-name="EstadoSalida" data-source-line="11" id="ent0007"><rect fill="#CDEBA5" height="37.6094" rx="2.5" ry="2.5" style="stroke:#181818;stroke-width:0.5;" width="205.9443" x="588.5" y="158"/><text fill="#000000" font-family="sans-serif" font-size="14" lengthAdjust="spacing" textLength="185.9443" x="598.5" y="182.5332">:ENTREGABLES_ABIERTOS</text></g><!--entity AbrirEntregable--><g class="entity" data-qualified-name="AbrirEntregable" data-source-line="12" id="ent0008"><rect fill="#CDEBA5" height="37.6094" rx="2.5" ry="2.5" style="stroke:#181818;stroke-width:0.5;" width="207.5508" x="829.5" y="158"/><text fill="#000000" font-family="sans-serif" font-size="14" lengthAdjust="spacing" textLength="187.5508" x="839.5" y="182.5332">:Collaboration AbrirEntregable</text></g><!--link EstadoEntrada to EliminarEntregableView--><g class="link" data-entity-1="ent0001" data-entity-2="ent0003" data-link-type="dependency" data-source-line="14" id="lnk9"><path d="M194.31,61 C242.63,61 296.08,61 342.99,61" fill="none" id="EstadoEntrada-to-EliminarEntregableView" style="stroke:#181818;stroke-width:1;"/><polygon fill="#181818" points="347.99,61,338.99,57,342.99,61,338.99,65,347.99,61" style="stroke:#181818;stroke-width:1;stroke-linejoin:miter;stroke-miterlimit:10;"/><text fill="#000000" font-family="sans-serif" font-size="13" lengthAdjust="spacing" textLength="117.0508" x="212.5" y="54.4951">eliminarEntregable()</text></g><!--link EliminarEntregableView to EntregableController--><g class="link" data-entity-1="ent0003" data-entity-2="ent0004" data-link-type="dependency" data-source-line="16" id="lnk10"><path d="M367.59,80.01 C318.5,93.63 259.5,110 259.5,110 C259.5,110 259.5,128 259.5,128 C259.5,128 285.7781,142.0172 311.3181,155.6372" fill="none" id="EliminarEntregableView-to-EntregableController" style="stroke:#181818;stroke-width:1;"/><polygon fill="#181818" points="315.73,157.99,309.6709,150.2255,311.3181,155.6372,305.9064,157.2845,315.73,157.99" style="stroke:#181818;stroke-width:1;stroke-linejoin:miter;stroke-miterlimit:10;"/><text fill="#000000" font-family="sans-serif" font-size="13" lengthAdjust="spacing" textLength="127.1689" x="260.5" y="124.4951">eliminarEntregable(id)</text></g><!--link EliminarEntregableView to EntregableController--><g class="link" data-entity-1="ent0003" data-entity-2="ent0004" data-link-type="dependency" data-source-line="17" id="lnk11"><path d="M421.57,80.03 C409.73,99.58 392.5,128 392.5,128 C392.5,128 381.2656,140.5352 369.0956,154.1252" fill="none" id="EliminarEntregableView-to-EntregableController-1" style="stroke:#181818;stroke-width:1;"/><polygon fill="#181818" points="365.76,157.85,374.7439,153.8139,369.0956,154.1252,368.7842,148.4769,365.76,157.85" style="stroke:#181818;stroke-width:1;stroke-linejoin:miter;stroke-miterlimit:10;"/><text fill="#000000" font-family="sans-serif" font-size="13" lengthAdjust="spacing" textLength="123.5444" x="403.5" y="124.4951">validarEliminacion(id)</text></g><!--link EntregableController to EntregableRepository--><g class="link" data-entity-1="ent0004" data-entity-2="ent0005" data-link-type="dependency" data-source-line="18" id="lnk12"><path d="M323.41,196.15 C303.87,209.74 280.5,226 280.5,226 C280.5,226 280.5,244 280.5,244 C280.5,244 303.6382,257.7116 326.5782,271.3016" fill="none" id="EntregableController-to-EntregableRepository" style="stroke:#181818;stroke-width:1;"/><polygon fill="#181818" points="330.88,273.85,325.1755,265.8214,326.5782,271.3016,321.098,272.7042,330.88,273.85" style="stroke:#181818;stroke-width:1;stroke-linejoin:miter;stroke-miterlimit:10;"/><text fill="#000000" font-family="sans-serif" font-size="13" lengthAdjust="spacing" textLength="93.939" x="281.5" y="240.4951">obtenerPorId(id)</text></g><!--link EntregableController to EntregableRepository--><g class="link" data-entity-1="ent0004" data-entity-2="ent0005" data-link-type="dependency" data-source-line="19" id="lnk13"><path d="M360.84,196.15 C369.34,209.74 379.5,226 379.5,226 C379.5,226 379.5,244 379.5,244 C379.5,244 375.1537,255.5776 370.0637,269.1676" fill="none" id="EntregableController-to-EntregableRepository-1" style="stroke:#181818;stroke-width:1;"/><polygon fill="#181818" points="368.31,273.85,375.2126,266.8247,370.0637,269.1676,367.7208,264.0188,368.31,273.85" style="stroke:#181818;stroke-width:1;stroke-linejoin:miter;stroke-miterlimit:10;"/><text fill="#000000" font-family="sans-serif" font-size="13" lengthAdjust="spacing" textLength="64.2891" x="380.5" y="240.4951">eliminar(id)</text></g><!--link EntregableRepository to Entregable--><g class="link" data-entity-1="ent0005" data-entity-2="ent0006" data-link-type="association" data-source-line="20" id="lnk14"><path d="M361.5,312.24 C361.5,329.59 361.5,355.52 361.5,372.84" fill="none" id="EntregableRepository-Entregable" style="stroke:#181818;stroke-width:1;"/></g><!--link EliminarEntregableView to EstadoSalida--><g class="link" data-entity-1="ent0003" data-entity-2="ent0007" data-link-type="dependency" data-source-line="21" id="lnk15"><path d="M473.54,80.06 C521.89,101.35 597.1938,134.4854 645.6438,155.8154" fill="none" id="EliminarEntregableView-to-EstadoSalida" style="stroke:#181818;stroke-width:1;stroke-dasharray:7,7;"/><polygon fill="#181818" points="650.22,157.83,643.5946,150.5427,645.6438,155.8154,640.3712,157.8646,650.22,157.83" style="stroke:#181818;stroke-width:1;stroke-linejoin:miter;stroke-miterlimit:10;"/><text fill="#000000" font-family="sans-serif" font-size="13" lengthAdjust="spacing" textLength="130.7935" x="578.5" y="124.4951">continuarNavegacion()</text></g><!--link EliminarEntregableView to AbrirEntregable--><g class="link" data-entity-1="ent0003" data-entity-2="ent0008" data-link-type="dependency" data-source-line="22" id="lnk16"><path d="M517.24,76.27 C601.25,90.42 717.5,110 717.5,110 C717.5,110 805.7384,136.9585 869.6984,156.5085" fill="none" id="EliminarEntregableView-to-AbrirEntregable" style="stroke:#181818;stroke-width:1;stroke-dasharray:7,7;"/><polygon fill="#181818" points="874.48,157.97,867.0423,151.5139,869.6984,156.5085,864.7038,159.1645,874.48,157.97" style="stroke:#181818;stroke-width:1;stroke-linejoin:miter;stroke-miterlimit:10;"/><text fill="#000000" font-family="sans-serif" font-size="13" lengthAdjust="spacing" textLength="97.5444" x="775.5" y="124.4951">abrirEntregable()</text></g><?plantuml-src dP5FQy904CNl-oc6z58FyI1LQWv2JDSY55iIwRLCaaKMrzqmsLgazBjtjPNyCQdGFMM7ttkRzwRSIbqWuGwKrC8U2W65KOVZXJ4IcKMzKG9keWS-3yVW1NorZlbZE7_YR-5yoUFrimTO0YyjvePhIvWZAp3RuaQ0K78dDT9nBZQOEYV7UfVZsu47dmpSgRqv6KtvOWhyWdwLugCDf-Cqdzn31KN6VHgb1BNHnIYCxdWDZKLXIcaD7QwYxEjQBScvbwHMJ89Akbwwb97xHqmDePL6GvYIh2KzMRHcZ3NA1f_yMKz90NHLxGmwQV3perD7Wvq-CX_q6lNwx4z5qAykSv5_V3hWbakrf01CQeKMz69ecVz7VqxJqbQ8qzQNtXDpE9mrzXj0vbwN-XrfXNi7dl8D_fAtTXi0DWTE_Gq0?></g></svg>