<svg xmlns="http://www.w3.org/2000/svg" xmlns:xlink="http://www.w3.org/1999/xlink" contentStyleType="text/css" data-diagram-type="DESCRIPTION" height="563px" preserveAspectRatio="none" style="width:2024px;height:563px;background:#FFFFFF;" version="1.1" viewBox="0 0 2024 563" width="2024px" zoomAndPan="magnify"><?plantuml 1.2026.6?><defs/><g><!--cluster eliminarEntregable--><g class="cluster" data-qualified-name="eliminarEntregable" data-source-line="4" id="ent0002"><path d="M213,6 L349.3652,6 A3.75,3.75 0 0 1 351.8652,8.5 L358.8652,29.6094 L1070,29.6094 A2.5,2.5 0 0 1 1072.5,32.1094 L1072.5,545.5 A2.5,2.5 0 0 1 1070,548 L213,548 A2.5,2.5 0 0 1 210.5,545.5 L210.5,8.5 A2.5,2.5 0 0 1 213,6" fill="none" style="stroke:#000000;stroke-width:1.5;"/><line style="stroke:#000000;stroke-width:1.5;" x1="210.5" x2="358.8652" y1="29.6094" y2="29.6094"/><text fill="#000000" font-family="sans-serif" font-size="14" font-weight="700" lengthAdjust="spacing" textLength="135.3652" x="214.5" y="22.5332">eliminarEntregable()</text></g><!--entity EliminarEntregableView--><g class="entity" data-qualified-name="eliminarEntregable.EliminarEntregableView" data-source-line="5" id="ent0003"><rect fill="#629EF9" height="37.6094" rx="2.5" ry="2.5" style="stroke:#181818;stroke-width:0.5;" width="168.627" x="830" y="42"/><text fill="#000000" font-family="sans-serif" font-size="14" lengthAdjust="spacing" textLength="148.627" x="840" y="66.5332">EliminarEntregableView</text></g><!--entity EntregableController--><g class="entity" data-qualified-name="eliminarEntregable.EntregableController" data-source-line="6" id="ent0004"><rect fill="#B5BD68" height="37.6094" rx="2.5" ry="2.5" style="stroke:#181818;stroke-width:0.5;" width="148.4063" x="623.5" y="158"/><text fill="#000000" font-family="sans-serif" font-size="14" lengthAdjust="spacing" textLength="128.4063" x="633.5" y="182.5332">EntregableController</text></g><!--entity EntregableService--><g class="entity" data-qualified-name="eliminarEntregable.EntregableService" data-source-line="7" id="ent0005"><rect fill="#B5BD68" height="37.6094" rx="2.5" ry="2.5" style="stroke:#181818;stroke-width:0.5;" width="134.3994" x="523.5" y="274"/><text fill="#000000" font-family="sans-serif" font-size="14" lengthAdjust="spacing" textLength="114.3994" x="533.5" y="298.5332">EntregableService</text></g><!--entity SesionService--><g class="entity" data-qualified-name="eliminarEntregable.SesionService" data-source-line="8" id="ent0006"><rect fill="#B5BD68" height="37.6094" rx="2.5" ry="2.5" style="stroke:#181818;stroke-width:0.5;" width="109.4893" x="753" y="274"/><text fill="#000000" font-family="sans-serif" font-size="14" lengthAdjust="spacing" textLength="89.4893" x="763" y="298.5332">SesionService</text></g><!--entity EntregableRepository--><g class="entity" data-qualified-name="eliminarEntregable.EntregableRepository" data-source-line="9" id="ent0007"><rect fill="#F2AC4E" height="37.6094" rx="2.5" ry="2.5" style="stroke:#181818;stroke-width:0.5;" width="154.6338" x="763" y="392.5"/><text fill="#000000" font-family="sans-serif" font-size="14" lengthAdjust="spacing" textLength="134.6338" x="773" y="417.0332">EntregableRepository</text></g><!--entity Entregable--><g class="entity" data-qualified-name="eliminarEntregable.Entregable" data-source-line="10" id="ent0008"><rect fill="#F2AC4E" height="37.6094" rx="2.5" ry="2.5" style="stroke:#181818;stroke-width:0.5;" width="87.7168" x="796.5" y="494"/><text fill="#000000" font-family="sans-serif" font-size="14" lengthAdjust="spacing" textLength="67.7168" x="806.5" y="518.5332">Entregable</text></g><!--entity EstadoEntrada--><g class="entity" data-qualified-name="EstadoEntrada" data-source-line="3" id="ent0001"><rect fill="#CDEBA5" height="37.6094" rx="2.5" ry="2.5" style="stroke:#181818;stroke-width:0.5;" width="187.2686" x="7" y="42"/><text fill="#000000" font-family="sans-serif" font-size="14" lengthAdjust="spacing" textLength="167.2686" x="17" y="66.5332">:ENTREGABLE_ABIERTO</text></g><!--entity EstadoSalidaExitosa--><g class="entity" data-qualified-name="EstadoSalidaExitosa" data-source-line="13" id="ent0009"><rect fill="#CDEBA5" height="37.6094" rx="2.5" ry="2.5" style="stroke:#181818;stroke-width:0.5;" width="205.9443" x="1088.5" y="158"/><text fill="#000000" font-family="sans-serif" font-size="14" lengthAdjust="spacing" textLength="185.9443" x="1098.5" y="182.5332">:ENTREGABLES_ABIERTOS</text></g><!--entity EstadoSalidaCancelada--><g class="entity" data-qualified-name="EstadoSalidaCancelada" data-source-line="14" id="ent0010"><rect fill="#CDEBA5" height="37.6094" rx="2.5" ry="2.5" style="stroke:#181818;stroke-width:0.5;" width="187.2686" x="1330" y="158"/><text fill="#000000" font-family="sans-serif" font-size="14" lengthAdjust="spacing" textLength="167.2686" x="1340" y="182.5332">:ENTREGABLE_ABIERTO</text></g><!--entity AbrirEntregables--><g class="entity" data-qualified-name="AbrirEntregables" data-source-line="15" id="ent0011"><rect fill="#CDEBA5" height="37.6094" rx="2.5" ry="2.5" style="stroke:#181818;stroke-width:0.5;" width="214.5508" x="1552" y="158"/><text fill="#000000" font-family="sans-serif" font-size="14" lengthAdjust="spacing" textLength="194.5508" x="1562" y="182.5332">:Collaboration AbrirEntregables</text></g><!--entity AbrirEntregable--><g class="entity" data-qualified-name="AbrirEntregable" data-source-line="16" id="ent0012"><rect fill="#CDEBA5" height="37.6094" rx="2.5" ry="2.5" style="stroke:#181818;stroke-width:0.5;" width="207.5508" x="1802.5" y="158"/><text fill="#000000" font-family="sans-serif" font-size="14" lengthAdjust="spacing" textLength="187.5508" x="1812.5" y="182.5332">:Collaboration AbrirEntregable</text></g><g class="entity" data-qualified-name="GMN27" data-source-line="35" id="ent0028"><path d="M1088.5,390 L1088.5,432.7031 L1290.8716,432.7031 L1290.8716,400 L1280.8716,390 L1088.5,390" fill="#FEFFDD" style="stroke:#181818;stroke-width:0.5;"/><path d="M1280.8716,390 L1280.8716,400 L1290.8716,400 L1280.8716,390" fill="#FEFFDD" style="stroke:#181818;stroke-width:1;"/><text fill="#000000" font-family="sans-serif" font-size="13" lengthAdjust="spacing" textLength="181.3716" x="1094.5" y="408.4951">La retirada conserva versiones,</text><text fill="#000000" font-family="sans-serif" font-size="13" lengthAdjust="spacing" textLength="174.8589" x="1094.5" y="424.8467">autoria y relaciones historicas.</text></g><!--link EstadoEntrada to EliminarEntregableView--><g class="link" data-entity-1="ent0001" data-entity-2="ent0003" data-link-type="dependency" data-source-line="18" id="lnk13"><path d="M194.27,61 C354.07,61 671.71,61 824.97,61" fill="none" id="EstadoEntrada-to-EliminarEntregableView" style="stroke:#181818;stroke-width:1;"/><polygon fill="#181818" points="829.97,61,820.97,57,824.97,61,820.97,65,829.97,61" style="stroke:#181818;stroke-width:1;stroke-linejoin:miter;stroke-miterlimit:10;"/><text fill="#000000" font-family="sans-serif" font-size="13" lengthAdjust="spacing" textLength="117.0508" x="453.5" y="54.4951">eliminarEntregable()</text></g><!--link EliminarEntregableView to EntregableController--><g class="link" data-entity-1="ent0003" data-entity-2="ent0004" data-link-type="dependency" data-source-line="20" id="lnk14"><path d="M829.75,68.2 C652.41,81.18 258.5,110 258.5,110 C258.5,110 258.5,128 258.5,128 C258.5,128 492.8096,153.6163 618.0596,167.3163" fill="none" id="EliminarEntregableView-to-EntregableController" style="stroke:#181818;stroke-width:1;"/><polygon fill="#181818" points="623.03,167.86,614.5183,162.9051,618.0596,167.3163,613.6484,170.8577,623.03,167.86" style="stroke:#181818;stroke-width:1;stroke-linejoin:miter;stroke-miterlimit:10;"/><text fill="#000000" font-family="sans-serif" font-size="13" lengthAdjust="spacing" textLength="139.4263" x="259.5" y="124.4951">solicitarConfirmacion(id)</text></g><!--link EntregableController to EliminarEntregableView--><g class="link" data-entity-1="ent0004" data-entity-2="ent0003" data-link-type="dependency" data-source-line="23" id="lnk17"><path d="M764.29,157.99 C814.8,144.37 875.5,128 875.5,128 C875.5,128 889.7584,103.8858 901.2984,84.3358" fill="none" id="EntregableController-to-EliminarEntregableView" style="stroke:#181818;stroke-width:1;"/><polygon fill="#181818" points="903.84,80.03,895.8204,85.7472,901.2984,84.3358,902.7097,89.8138,903.84,80.03" style="stroke:#181818;stroke-width:1;stroke-linejoin:miter;stroke-miterlimit:10;"/><text fill="#000000" font-family="sans-serif" font-size="13" lengthAdjust="spacing" textLength="140.1626" x="886.5" y="124.4951">presentarConfirmacion()</text></g><!--link EliminarEntregableView to EntregableController--><g class="link" data-entity-1="ent0003" data-entity-2="ent0004" data-link-type="dependency" data-source-line="24" id="lnk18"><path d="M829.85,70.55 C693.29,84.35 439.5,110 439.5,110 C439.5,110 439.5,128 439.5,128 C439.5,128 542.0843,147.0855 618.3043,161.2655" fill="none" id="EliminarEntregableView-to-EntregableController-1" style="stroke:#181818;stroke-width:1;"/><polygon fill="#181818" points="623.22,162.18,615.1034,156.6014,618.3043,161.2655,613.6402,164.4664,623.22,162.18" style="stroke:#181818;stroke-width:1;stroke-linejoin:miter;stroke-miterlimit:10;"/><text fill="#000000" font-family="sans-serif" font-size="13" lengthAdjust="spacing" textLength="282.5024" x="440.5" y="124.4951">confirmarRetiradaPropia(id, motivo, investigador)</text></g><!--link EliminarEntregableView to EntregableController--><g class="link" data-entity-1="ent0003" data-entity-2="ent0004" data-link-type="dependency" data-source-line="25" id="lnk19"><path d="M856.34,80.01 C812.36,93.63 759.5,110 759.5,110 C759.5,110 736.2229,134.7753 717.8629,154.3253" fill="none" id="EliminarEntregableView-to-EntregableController-2" style="stroke:#181818;stroke-width:1;"/><polygon fill="#181818" points="714.44,157.97,723.5169,154.1478,717.8629,154.3253,717.6854,148.6712,714.44,157.97" style="stroke:#181818;stroke-width:1;stroke-linejoin:miter;stroke-miterlimit:10;"/><text fill="#000000" font-family="sans-serif" font-size="13" lengthAdjust="spacing" textLength="106.9326" x="760.5" y="124.4951">cancelarRetirada()</text></g><!--link EntregableController to EntregableService--><g class="link" data-entity-1="ent0004" data-entity-2="ent0005" data-link-type="dependency" data-source-line="21" id="lnk15"><path d="M656.23,196.01 C625.01,209.63 587.5,226 587.5,226 C587.5,226 587.5,244 587.5,244 C587.5,244 588.2079,255.2698 589.0579,268.8598" fill="none" id="EntregableController-to-EntregableService" style="stroke:#181818;stroke-width:1;"/><polygon fill="#181818" points="589.37,273.85,592.8004,264.6179,589.0579,268.8598,584.816,265.1172,589.37,273.85" style="stroke:#181818;stroke-width:1;stroke-linejoin:miter;stroke-miterlimit:10;"/><text fill="#000000" font-family="sans-serif" font-size="13" lengthAdjust="spacing" textLength="175.5571" x="588.5" y="240.4951">retirar(id, motivo, investigador)</text></g><!--link EntregableController to SesionService--><g class="link" data-entity-1="ent0004" data-entity-2="ent0006" data-link-type="dependency" data-source-line="22" id="lnk16"><path d="M724.34,196.15 C744.45,209.74 768.5,226 768.5,226 C768.5,226 782.7584,250.1142 794.2984,269.6642" fill="none" id="EntregableController-to-SesionService" style="stroke:#181818;stroke-width:1;"/><polygon fill="#181818" points="796.84,273.97,795.7097,264.1862,794.2984,269.6642,788.8204,268.2528,796.84,273.97" style="stroke:#181818;stroke-width:1;stroke-linejoin:miter;stroke-miterlimit:10;"/><text fill="#000000" font-family="sans-serif" font-size="13" lengthAdjust="spacing" textLength="209.5806" x="779.5" y="240.4951">obtenerSesionActual(authentication)</text></g><!--link EntregableService to EntregableRepository--><g class="link" data-entity-1="ent0005" data-entity-2="ent0007" data-link-type="dependency" data-source-line="26" id="lnk20"><path d="M575,312.15 C563.39,325.74 549.5,342 549.5,342 C549.5,342 549.5,360 549.5,360 C549.5,360 671.7736,381.215 757.9736,396.175" fill="none" id="EntregableService-to-EntregableRepository" style="stroke:#181818;stroke-width:1;"/><polygon fill="#181818" points="762.9,397.03,754.7165,391.55,757.9736,396.175,753.3486,399.4321,762.9,397.03" style="stroke:#181818;stroke-width:1;stroke-linejoin:miter;stroke-miterlimit:10;"/><text fill="#000000" font-family="sans-serif" font-size="13" lengthAdjust="spacing" textLength="246.4033" x="550.5" y="356.4951">obtenerActivoPorIdYAutor(id, investigador)</text></g><!--link EntregableService to EntregableRepository--><g class="link" data-entity-1="ent0005" data-entity-2="ent0007" data-link-type="dependency" data-source-line="27" id="lnk21"><path d="M657.55,309.25 C719.34,323.31 801.5,342 801.5,342 C801.5,342 816.0265,367.5047 827.5765,387.7947" fill="none" id="EntregableService-to-EntregableRepository-1" style="stroke:#181818;stroke-width:1;"/><polygon fill="#181818" points="830.05,392.14,829.0739,382.3396,827.5765,387.7947,822.1214,386.2973,830.05,392.14" style="stroke:#181818;stroke-width:1;stroke-linejoin:miter;stroke-miterlimit:10;"/><text fill="#000000" font-family="sans-serif" font-size="13" lengthAdjust="spacing" textLength="214.5825" x="811.5" y="356.4951">retirar(id, fecha, investigador, motivo)</text></g><!--link EntregableRepository to Entregable--><g class="link" data-entity-1="ent0007" data-entity-2="ent0008" data-link-type="association" data-source-line="28" id="lnk22"><path d="M840.5,430.75 C840.5,448.7 840.5,475.95 840.5,493.87" fill="none" id="EntregableRepository-Entregable" style="stroke:#181818;stroke-width:1;"/></g><!--link EliminarEntregableView to EstadoSalidaExitosa--><g class="link" data-entity-1="ent0003" data-entity-2="ent0009" data-link-type="dependency" data-source-line="29" id="lnk23"><path d="M959.9,80.01 C994.23,93.63 1035.5,110 1035.5,110 C1035.5,110 1098.0755,136.4711 1144.2655,156.0211" fill="none" id="EliminarEntregableView-to-EstadoSalidaExitosa" style="stroke:#181818;stroke-width:1;stroke-dasharray:7,7;"/><polygon fill="#181818" points="1148.87,157.97,1142.1409,150.7784,1144.2655,156.0211,1139.0227,158.1456,1148.87,157.97" style="stroke:#181818;stroke-width:1;stroke-linejoin:miter;stroke-miterlimit:10;"/><text fill="#000000" font-family="sans-serif" font-size="13" lengthAdjust="spacing" textLength="119.2344" x="1077.5" y="124.4951">entregableRetirado()</text></g><!--link EliminarEntregableView to EstadoSalidaCancelada--><g class="link" data-entity-1="ent0003" data-entity-2="ent0010" data-link-type="dependency" data-source-line="30" id="lnk24"><path d="M999.06,75.95 C1084.98,90.12 1205.5,110 1205.5,110 C1205.5,110 1294.5947,136.9707 1359.1447,156.5207" fill="none" id="EliminarEntregableView-to-EstadoSalidaCancelada" style="stroke:#181818;stroke-width:1;stroke-dasharray:7,7;"/><polygon fill="#181818" points="1363.93,157.97,1356.4758,151.533,1359.1447,156.5207,1354.1569,159.1895,1363.93,157.97" style="stroke:#181818;stroke-width:1;stroke-linejoin:miter;stroke-miterlimit:10;"/><text fill="#000000" font-family="sans-serif" font-size="13" lengthAdjust="spacing" textLength="114.8926" x="1264.5" y="124.4951">retiradaCancelada()</text></g><!--link EliminarEntregableView to AbrirEntregables--><g class="link" data-entity-1="ent0003" data-entity-2="ent0011" data-link-type="dependency" data-source-line="31" id="lnk25"><path d="M999.06,70.58 C1135.11,84.39 1387.5,110 1387.5,110 C1387.5,110 1499.7811,137.2404 1580.3111,156.7904" fill="none" id="EliminarEntregableView-to-AbrirEntregables" style="stroke:#181818;stroke-width:1;stroke-dasharray:7,7;"/><polygon fill="#181818" points="1585.17,157.97,1577.3677,151.9597,1580.3111,156.7904,1575.4804,159.7339,1585.17,157.97" style="stroke:#181818;stroke-width:1;stroke-linejoin:miter;stroke-miterlimit:10;"/><text fill="#000000" font-family="sans-serif" font-size="13" lengthAdjust="spacing" textLength="104.0444" x="1460.5" y="124.4951">abrirEntregables()</text></g><!--link EliminarEntregableView to AbrirEntregable--><g class="link" data-entity-1="ent0003" data-entity-2="ent0012" data-link-type="dependency" data-source-line="32" id="lnk26"><path d="M999.3,68.18 C1177.29,81.14 1573.5,110 1573.5,110 C1573.5,110 1712.0055,137.4476 1810.6055,156.9976" fill="none" id="EliminarEntregableView-to-AbrirEntregable" style="stroke:#181818;stroke-width:1;stroke-dasharray:7,7;"/><polygon fill="#181818" points="1815.51,157.97,1807.4598,152.296,1810.6055,156.9976,1805.9039,160.1432,1815.51,157.97" style="stroke:#181818;stroke-width:1;stroke-linejoin:miter;stroke-miterlimit:10;"/><text fill="#000000" font-family="sans-serif" font-size="13" lengthAdjust="spacing" textLength="97.5444" x="1663.5" y="124.4951">abrirEntregable()</text></g><!--link EntregableRepository to GMN27--><g class="link" data-entity-1="ent0007" data-entity-2="ent0028" data-link-type="association" data-source-line="35" id="lnk29"><path d="M918.1,411.5 C939.44,411.5 956.83,411.5 956.83,411.5 C956.83,411.5 1073.17,411.5 1073.17,411.5 C1073.17,411.5 1079.14,411.5 1088.38,411.5" fill="none" id="EntregableRepository-GMN27" style="stroke:#181818;stroke-width:1;stroke-dasharray:7,7;"/></g><?plantuml-src bLHDRzf04BtlhnZH2qY1GzH4ZG-H3DrKaQ8sWYXIJzNO7c2KPTVQNMXHrV_UjVaonWRX4nxUl9bvyyRkWtME5XUWM9DVvmIvKUlYHGXBgKSzKmIVHb_bCBw3JYI_lutbjtZu8d_5msSvVllH0NGWdSVCIEqjPYXoJ3zmHa2A5wpH5d6QOHAO0hPp6kxsEl1NG7WgDUzl7-JJ0yWJz3lJxpeukKko-ozm08rC-6cK8diHEY6xufHQS1DoR7GBvkas7dsM5QunvSQnDtPz4Ih-NP9uijDuKX5vWeepb7z24OVNxsYJFaATaYfsrKGm2hfXOYpwC3d4YUMA-guagmUlvscY4UB8ID2t_SSM0qJGPAD0q8Y6VbOmDRWZ0cSKf-pHXk2KxGBJq6sNivvemaF_Y6ZhYoXishD56_9kO64yhymDi5wHypmB4zapR4SEYy0adZJPJJHE_H9L5vT-JjfpMafvhhCMiN9BBX3KXkorojMgLhhDj-Dou0nVhSaPpyrzTOcDEVSLkjLvjpBLqWzdjzSlA1UQUJNsEViPByDVPOjjAxbCMrtmbD8v7fFjfg-I7j83R_NoMoGP31wRZZnOlK9PQcBQLrSdsP_wReHAw3nB_SOZm5hagloJzE9SjV44bcTp3sRQ_1rzmNtZXVjSs1J2Ycnn7kHk11RBPOHrWAdIr-HWpgw8fkW6WdG6HHtn7m00?></g></svg>