<svg xmlns="http://www.w3.org/2000/svg" xmlns:xlink="http://www.w3.org/1999/xlink" contentStyleType="text/css" data-diagram-type="DESCRIPTION" height="434px" preserveAspectRatio="none" style="width:1806px;height:434px;background:#FFFFFF;" version="1.1" viewBox="0 0 1806 434" width="1806px" zoomAndPan="magnify"><defs/><g><!--cluster eliminarEntregable--><g class="cluster" data-entity="eliminarEntregable" data-source-line="4" data-uid="ent0003" id="cluster_eliminarEntregable"><path d="M213,6 L349.3652,6 A3.75,3.75 0 0 1 351.8652,8.5 L358.8652,29.6094 L1110,29.6094 A2.5,2.5 0 0 1 1112.5,32.1094 L1112.5,424.5 A2.5,2.5 0 0 1 1110,427 L213,427 A2.5,2.5 0 0 1 210.5,424.5 L210.5,8.5 A2.5,2.5 0 0 1 213,6" fill="none" style="stroke:#000000;stroke-width:1.5;"/><line style="stroke:#000000;stroke-width:1.5;" x1="210.5" x2="358.8652" y1="29.6094" y2="29.6094"/><text fill="#000000" font-family="sans-serif" font-size="14" font-weight="bold" lengthAdjust="spacing" textLength="135.3652" x="214.5" y="22.5332">eliminarEntregable()</text></g><!--entity EliminarEntregableView--><g class="entity" data-entity="EliminarEntregableView" data-source-line="5" data-uid="ent0004" id="entity_EliminarEntregableView"><rect fill="#629EF9" height="37.6094" rx="2.5" ry="2.5" style="stroke:#181818;stroke-width:0.5;" width="168.627" x="705" y="42"/><text fill="#000000" font-family="sans-serif" font-size="14" lengthAdjust="spacing" textLength="148.627" x="715" y="66.5332">EliminarEntregableView</text></g><!--entity EntregableController--><g class="entity" data-entity="EntregableController" data-source-line="6" data-uid="ent0005" id="entity_EntregableController"><rect fill="#B5BD68" height="37.6094" rx="2.5" ry="2.5" style="stroke:#181818;stroke-width:0.5;" width="148.4063" x="549.5" y="158"/><text fill="#000000" font-family="sans-serif" font-size="14" lengthAdjust="spacing" textLength="128.4063" x="559.5" y="182.5332">EntregableController</text></g><!--entity EntregableRepository--><g class="entity" data-entity="EntregableRepository" data-source-line="7" data-uid="ent0006" id="entity_EntregableRepository"><rect fill="#F2AC4E" height="37.6094" rx="2.5" ry="2.5" style="stroke:#181818;stroke-width:0.5;" width="154.6338" x="545" y="274"/><text fill="#000000" font-family="sans-serif" font-size="14" lengthAdjust="spacing" textLength="134.6338" x="555" y="298.5332">EntregableRepository</text></g><!--entity Entregable--><g class="entity" data-entity="Entregable" data-source-line="8" data-uid="ent0007" id="entity_Entregable"><rect fill="#F2AC4E" height="37.6094" rx="2.5" ry="2.5" style="stroke:#181818;stroke-width:0.5;" width="87.7168" x="578.5" y="373"/><text fill="#000000" font-family="sans-serif" font-size="14" lengthAdjust="spacing" textLength="67.7168" x="588.5" y="397.5332">Entregable</text></g><!--entity EstadoEntrada--><g class="entity" data-entity="EstadoEntrada" data-source-line="3" data-uid="ent0002" id="entity_EstadoEntrada"><rect fill="#CDEBA5" height="37.6094" rx="2.5" ry="2.5" style="stroke:#181818;stroke-width:0.5;" width="187.2686" x="7" y="42"/><text fill="#000000" font-family="sans-serif" font-size="14" lengthAdjust="spacing" textLength="167.2686" x="17" y="66.5332">:ENTREGABLE_ABIERTO</text></g><!--entity EstadoSalidaExitosa--><g class="entity" data-entity="EstadoSalidaExitosa" data-source-line="11" data-uid="ent0008" id="entity_EstadoSalidaExitosa"><rect fill="#CDEBA5" height="37.6094" rx="2.5" ry="2.5" style="stroke:#181818;stroke-width:0.5;" width="205.9443" x="1128.5" y="158"/><text fill="#000000" font-family="sans-serif" font-size="14" lengthAdjust="spacing" textLength="185.9443" x="1138.5" y="182.5332">:ENTREGABLES_ABIERTOS</text></g><!--entity EstadoSalidaCancelada--><g class="entity" data-entity="EstadoSalidaCancelada" data-source-line="12" data-uid="ent0009" id="entity_EstadoSalidaCancelada"><rect fill="#CDEBA5" height="37.6094" rx="2.5" ry="2.5" style="stroke:#181818;stroke-width:0.5;" width="187.2686" x="1370" y="158"/><text fill="#000000" font-family="sans-serif" font-size="14" lengthAdjust="spacing" textLength="167.2686" x="1380" y="182.5332">:ENTREGABLE_ABIERTO</text></g><!--entity AbrirEntregable--><g class="entity" data-entity="AbrirEntregable" data-source-line="13" data-uid="ent0010" id="entity_AbrirEntregable"><rect fill="#CDEBA5" height="37.6094" rx="2.5" ry="2.5" style="stroke:#181818;stroke-width:0.5;" width="207.5508" x="1592.5" y="158"/><text fill="#000000" font-family="sans-serif" font-size="14" lengthAdjust="spacing" textLength="187.5508" x="1602.5" y="182.5332">:Collaboration AbrirEntregable</text></g><!--link EstadoEntrada to EliminarEntregableView--><g class="link" data-entity-1="EstadoEntrada" data-entity-2="EliminarEntregableView" data-source-line="15" data-uid="lnk11" id="link_EstadoEntrada_EliminarEntregableView"><path d="M194.14,61 C328.9,61 569.51,61 698.99,61" fill="none" id="EstadoEntrada-to-EliminarEntregableView" style="stroke:#181818;stroke-width:1;"/><polygon fill="#181818" points="704.99,61,695.99,57,699.99,61,695.99,65,704.99,61" style="stroke:#181818;stroke-width:1;"/><text fill="#000000" font-family="sans-serif" font-size="13" lengthAdjust="spacing" textLength="117.0508" x="391" y="54.4951">eliminarEntregable()</text></g><!--link EliminarEntregableView to EntregableController--><g class="link" data-entity-1="EliminarEntregableView" data-entity-2="EntregableController" data-source-line="17" data-uid="lnk12" id="link_EliminarEntregableView_EntregableController"><path d="M704.77,69.66 C554.86,83.21 258.5,110 258.5,110 C258.5,110 258.5,128 258.5,128 C258.5,128 436.5313,151.4074 543.2513,165.4474" fill="none" id="EliminarEntregableView-to-EntregableController" style="stroke:#181818;stroke-width:1;"/><polygon fill="#181818" points="549.2,166.23,540.7986,161.0903,544.2427,165.5778,539.7551,169.0219,549.2,166.23" style="stroke:#181818;stroke-width:1;"/><text fill="#000000" font-family="sans-serif" font-size="13" lengthAdjust="spacing" textLength="139.4263" x="259.5" y="124.4951">solicitarConfirmacion(id)</text></g><!--link EntregableController to EliminarEntregableView--><g class="link" data-entity-1="EntregableController" data-entity-2="EliminarEntregableView" data-source-line="18" data-uid="lnk13" id="link_EntregableController_EliminarEntregableView"><path d="M697.56,163.83 C784.07,149.61 915.5,128 915.5,128 C915.5,128 915.5,110 915.5,110 C915.5,110 878.1369,95.7661 842.3869,82.1461" fill="none" id="EntregableController-to-EliminarEntregableView" style="stroke:#181818;stroke-width:1;"/><polygon fill="#181818" points="836.78,80.01,843.7662,86.9521,841.4524,81.7901,846.6144,79.4762,836.78,80.01" style="stroke:#181818;stroke-width:1;"/><text fill="#000000" font-family="sans-serif" font-size="13" lengthAdjust="spacing" textLength="140.1626" x="916.5" y="124.4951">presentarConfirmacion()</text></g><!--link EliminarEntregableView to EntregableController--><g class="link" data-entity-1="EliminarEntregableView" data-entity-2="EntregableController" data-source-line="19" data-uid="lnk14" id="link_EliminarEntregableView_EntregableController"><path d="M704.77,73.62 C601.19,87.83 439.5,110 439.5,110 C439.5,110 439.5,128 439.5,128 C439.5,128 496.4443,142.8555 548.6543,156.4755" fill="none" id="EliminarEntregableView-to-EntregableController-1" style="stroke:#181818;stroke-width:1;"/><polygon fill="#181818" points="554.46,157.99,546.7611,151.8477,549.6219,156.7279,544.7418,159.5887,554.46,157.99" style="stroke:#181818;stroke-width:1;"/><text fill="#000000" font-family="sans-serif" font-size="13" lengthAdjust="spacing" textLength="139.4263" x="440.5" y="124.4951">confirmarEliminacion(id)</text></g><!--link EliminarEntregableView to EntregableController--><g class="link" data-entity-1="EliminarEntregableView" data-entity-2="EntregableController" data-source-line="20" data-uid="lnk15" id="link_EliminarEntregableView_EntregableController"><path d="M726.09,80.01 C678.14,93.63 620.5,110 620.5,110 C620.5,110 620.5,128 620.5,128 C620.5,128 621.1455,138.2717 621.9955,151.8617" fill="none" id="EliminarEntregableView-to-EntregableController-2" style="stroke:#181818;stroke-width:1;"/><polygon fill="#181818" points="622.37,157.85,625.8004,148.6179,622.0579,152.8598,617.816,149.1172,622.37,157.85" style="stroke:#181818;stroke-width:1;"/><text fill="#000000" font-family="sans-serif" font-size="13" lengthAdjust="spacing" textLength="124.2681" x="621.5" y="124.4951">cancelarEliminacion()</text></g><!--link EliminarEntregableView to EntregableController--><g class="link" data-entity-1="EliminarEntregableView" data-entity-2="EntregableController" data-source-line="21" data-uid="lnk16" id="link_EliminarEntregableView_EntregableController"><path d="M778.84,80.03 C767.3,99.58 750.5,128 750.5,128 C750.5,128 712.8026,142.2489 676.7626,155.8689" fill="none" id="EliminarEntregableView-to-EntregableController-3" style="stroke:#181818;stroke-width:1;"/><polygon fill="#181818" points="671.15,157.99,680.9829,158.5501,675.8272,156.2224,678.1548,151.0667,671.15,157.99" style="stroke:#181818;stroke-width:1;"/><text fill="#000000" font-family="sans-serif" font-size="13" lengthAdjust="spacing" textLength="123.5444" x="761.5" y="124.4951">validarEliminacion(id)</text></g><!--link EntregableController to EntregableRepository--><g class="link" data-entity-1="EntregableController" data-entity-2="EntregableRepository" data-source-line="22" data-uid="lnk17" id="link_EntregableController_EntregableRepository"><path d="M596.66,196.15 C576.55,209.74 552.5,226 552.5,226 C552.5,226 552.5,244 552.5,244 C552.5,244 571.2607,256.8681 591.0907,270.4581" fill="none" id="EntregableController-to-EntregableRepository" style="stroke:#181818;stroke-width:1;"/><polygon fill="#181818" points="596.04,273.85,590.8773,265.4627,591.9156,271.0234,586.3549,272.0617,596.04,273.85" style="stroke:#181818;stroke-width:1;"/><text fill="#000000" font-family="sans-serif" font-size="13" lengthAdjust="spacing" textLength="93.939" x="553.5" y="240.4951">obtenerPorId(id)</text></g><!--link EntregableController to EntregableRepository--><g class="link" data-entity-1="EntregableController" data-entity-2="EntregableRepository" data-source-line="23" data-uid="lnk18" id="link_EntregableController_EntregableRepository"><path d="M634.09,196.15 C642.01,209.74 651.5,226 651.5,226 C651.5,226 651.5,244 651.5,244 C651.5,244 644.7853,255.1261 636.5653,268.7161" fill="none" id="EntregableController-to-EntregableRepository-1" style="stroke:#181818;stroke-width:1;"/><polygon fill="#181818" points="633.46,273.85,641.5405,268.2193,636.0477,269.5717,634.6953,264.0789,633.46,273.85" style="stroke:#181818;stroke-width:1;"/><text fill="#000000" font-family="sans-serif" font-size="13" lengthAdjust="spacing" textLength="64.2891" x="652.5" y="240.4951">eliminar(id)</text></g><!--link EntregableRepository to Entregable--><g class="link" data-entity-1="EntregableRepository" data-entity-2="Entregable" data-source-line="24" data-uid="lnk19" id="link_EntregableRepository_Entregable"><path d="M622.5,312.24 C622.5,329.59 622.5,355.52 622.5,372.84" fill="none" id="EntregableRepository-Entregable" style="stroke:#181818;stroke-width:1;"/></g><!--link EliminarEntregableView to EstadoSalidaExitosa--><g class="link" data-entity-1="EliminarEntregableView" data-entity-2="EstadoSalidaExitosa" data-source-line="25" data-uid="lnk20" id="link_EliminarEntregableView_EstadoSalidaExitosa"><path d="M874.18,76.73 C955.32,90.84 1065.5,110 1065.5,110 C1065.5,110 1131.4148,136.2024 1180.5648,155.7524" fill="none" id="EliminarEntregableView-to-EstadoSalidaExitosa" style="stroke:#181818;stroke-width:1;stroke-dasharray:7,7;"/><polygon fill="#181818" points="1186.14,157.97,1179.2557,150.9269,1181.494,156.122,1176.2989,158.3604,1186.14,157.97" style="stroke:#181818;stroke-width:1;"/><text fill="#000000" font-family="sans-serif" font-size="13" lengthAdjust="spacing" textLength="127.1816" x="1110.5" y="124.4951">entregableEliminado()</text></g><!--link EliminarEntregableView to EstadoSalidaCancelada--><g class="link" data-entity-1="EliminarEntregableView" data-entity-2="EstadoSalidaCancelada" data-source-line="26" data-uid="lnk21" id="link_EliminarEntregableView_EstadoSalidaCancelada"><path d="M874.12,70.89 C1006.22,84.76 1246.5,110 1246.5,110 C1246.5,110 1334.2098,136.6734 1398.4598,156.2234" fill="none" id="EliminarEntregableView-to-EstadoSalidaCancelada" style="stroke:#181818;stroke-width:1;stroke-dasharray:7,7;"/><polygon fill="#181818" points="1404.2,157.97,1396.7542,151.5233,1399.4165,156.5145,1394.4254,159.1768,1404.2,157.97" style="stroke:#181818;stroke-width:1;"/><text fill="#000000" font-family="sans-serif" font-size="13" lengthAdjust="spacing" textLength="135.8462" x="1305.5" y="124.4951">eliminacionCancelada()</text></g><!--link EliminarEntregableView to AbrirEntregable--><g class="link" data-entity-1="EliminarEntregableView" data-entity-2="AbrirEntregable" data-source-line="27" data-uid="lnk22" id="link_EliminarEntregableView_AbrirEntregable"><path d="M874.1,68.15 C1052.19,81.1 1449.5,110 1449.5,110 C1449.5,110 1550.0735,136.8706 1623.2135,156.4206" fill="none" id="EliminarEntregableView-to-AbrirEntregable" style="stroke:#181818;stroke-width:1;stroke-dasharray:7,7;"/><polygon fill="#181818" points="1629.01,157.97,1621.3482,151.7816,1624.1796,156.6789,1619.2823,159.5103,1629.01,157.97" style="stroke:#181818;stroke-width:1;"/><text fill="#000000" font-family="sans-serif" font-size="13" lengthAdjust="spacing" textLength="97.5444" x="1516.5" y="124.4951">abrirEntregable()</text></g><!--SRC=[dLFBRi8m4BpxArRf1GxXW0egEI25r5H8LLi1whNQn2woC7RaM6rHrN-lmoE4a80WfsGqCnxFPhEbK2aQN84KYjjroY7LSfr_469uOb4j98Uxw96EmXvu0NsPJ-bJE7gc7-5eGgVpLmym0vfPP9egQv0XIJ5Pue83bs8b59eSvmkCdPFZUgTmg-t1Bm7tbCxiTmTqF01wmduN_BjAZdinwp_0WHHfzwgbvAPA7NV3w9wMg5EUwanORTONgUJlKYspVI-pKZ4pb88X_N67P7XzhrjvX2hXCk-tpY1oTyLO6xH2AmXZ8qgDRRmg6257GmFV-CE6iWEe6vapg6M3ptAdcaa4a6af4c7HEF1Jc1KcBcrBi3QfuuD_9b9gUCPLrQhT6AenKxBJcvto4Ebgf-s4ZenkiFdQZFiqJcD3DNzo03gsN77pfis4tQBVZxoYFL2SjhmP3TViT8PrI-3y2zvEoNHpMLMNOXUAd7bD1NhUgB880U0nuDJ_]--></g></svg>