<?xml version="1.0" encoding="us-ascii" standalone="no"?><svg xmlns="http://www.w3.org/2000/svg" xmlns:xlink="http://www.w3.org/1999/xlink" contentStyleType="text/css" height="439px" preserveAspectRatio="none" style="width:2001px;height:439px;background:#FFFFFF;" version="1.1" viewBox="0 0 2001 439" width="2001px" zoomAndPan="magnify"><defs/><g><!--cluster eliminarEntregable--><g id="cluster_eliminarEntregable"><path d="M209.5,6 L353.5,6 A3.75,3.75 0 0 1 356,8.5 L363,29.6094 L1056.5,29.6094 A2.5,2.5 0 0 1 1059,32.1094 L1059,429.5 A2.5,2.5 0 0 1 1056.5,432 L209.5,432 A2.5,2.5 0 0 1 207,429.5 L207,8.5 A2.5,2.5 0 0 1 209.5,6 " fill="none" style="stroke:#000000;stroke-width:1.5;"/><line style="stroke:#000000;stroke-width:1.5;" x1="207" x2="363" y1="29.6094" y2="29.6094"/><text fill="#000000" font-family="sans-serif" font-size="14" font-weight="bold" lengthAdjust="spacing" textLength="143" x="211" y="22.5332">eliminarEntregable()</text></g><!--entity EliminarEntregableView--><g id="elem_EliminarEntregableView"><rect fill="#629EF9" height="37.6094" rx="2.5" ry="2.5" style="stroke:#181818;stroke-width:0.5;" width="168" x="820" y="42"/><text fill="#000000" font-family="sans-serif" font-size="14" lengthAdjust="spacing" textLength="148" x="830" y="66.5332">EliminarEntregableView</text></g><!--entity EntregableController--><g id="elem_EntregableController"><rect fill="#B5BD68" height="37.6094" rx="2.5" ry="2.5" style="stroke:#181818;stroke-width:0.5;" width="151" x="575.5" y="158"/><text fill="#000000" font-family="sans-serif" font-size="14" lengthAdjust="spacing" textLength="131" x="585.5" y="182.5332">EntregableController</text></g><!--entity EntregableRepository--><g id="elem_EntregableRepository"><rect fill="#F2AC4E" height="37.6094" rx="2.5" ry="2.5" style="stroke:#181818;stroke-width:0.5;" width="157" x="751.5" y="276.5"/><text fill="#000000" font-family="sans-serif" font-size="14" lengthAdjust="spacing" textLength="137" x="761.5" y="301.0332">EntregableRepository</text></g><!--entity Entregable--><g id="elem_Entregable"><rect fill="#F2AC4E" height="37.6094" rx="2.5" ry="2.5" style="stroke:#181818;stroke-width:0.5;" width="89" x="785.5" y="378"/><text fill="#000000" font-family="sans-serif" font-size="14" lengthAdjust="spacing" textLength="69" x="795.5" y="402.5332">Entregable</text></g><!--entity EstadoEntrada--><g id="elem_EstadoEntrada"><rect fill="#CDEBA5" height="37.6094" rx="2.5" ry="2.5" style="stroke:#181818;stroke-width:0.5;" width="184" x="7" y="42"/><text fill="#000000" font-family="sans-serif" font-size="14" lengthAdjust="spacing" textLength="164" x="17" y="66.5332">:ENTREGABLE_ABIERTO</text></g><!--entity EstadoSalidaExitosa--><g id="elem_EstadoSalidaExitosa"><rect fill="#CDEBA5" height="37.6094" rx="2.5" ry="2.5" style="stroke:#181818;stroke-width:0.5;" width="202" x="1075" y="158"/><text fill="#000000" font-family="sans-serif" font-size="14" lengthAdjust="spacing" textLength="182" x="1085" y="182.5332">:ENTREGABLES_ABIERTOS</text></g><!--entity EstadoSalidaCancelada--><g id="elem_EstadoSalidaCancelada"><rect fill="#CDEBA5" height="37.6094" rx="2.5" ry="2.5" style="stroke:#181818;stroke-width:0.5;" width="184" x="1312" y="158"/><text fill="#000000" font-family="sans-serif" font-size="14" lengthAdjust="spacing" textLength="164" x="1322" y="182.5332">:ENTREGABLE_ABIERTO</text></g><!--entity AbrirEntregables--><g id="elem_AbrirEntregables"><rect fill="#CDEBA5" height="37.6094" rx="2.5" ry="2.5" style="stroke:#181818;stroke-width:0.5;" width="218" x="1531" y="158"/><text fill="#000000" font-family="sans-serif" font-size="14" lengthAdjust="spacing" textLength="198" x="1541" y="182.5332">:Collaboration AbrirEntregables</text></g><!--entity AbrirEntregable--><g id="elem_AbrirEntregable"><rect fill="#CDEBA5" height="37.6094" rx="2.5" ry="2.5" style="stroke:#181818;stroke-width:0.5;" width="211" x="1784.5" y="158"/><text fill="#000000" font-family="sans-serif" font-size="14" lengthAdjust="spacing" textLength="191" x="1794.5" y="182.5332">:Collaboration AbrirEntregable</text></g><g id="elem_GMN24"><path d="M1075.5,274 L1075.5,316.7031 L1274.5,316.7031 L1274.5,284 L1264.5,274 L1075.5,274 " fill="#FEFFDD" style="stroke:#181818;stroke-width:0.5;"/><path d="M1264.5,274 L1264.5,284 L1274.5,284 L1264.5,274 " fill="#FEFFDD" style="stroke:#181818;stroke-width:1.0;"/><text fill="#000000" font-family="sans-serif" font-size="13" lengthAdjust="spacing" textLength="178" x="1081.5" y="292.4951">La retirada conserva versiones,</text><text fill="#000000" font-family="sans-serif" font-size="13" lengthAdjust="spacing" textLength="177" x="1081.5" y="308.8467">autoria y relaciones historicas.</text></g><!--link EstadoEntrada to EliminarEntregableView--><g id="link_EstadoEntrada_EliminarEntregableView"><path d="M191.34,61 C349,61 661.74,61 813.71,61 " fill="none" id="EstadoEntrada-to-EliminarEntregableView" style="stroke:#181818;stroke-width:1.0;"/><polygon fill="#181818" points="819.71,61,810.71,57,814.71,61,810.71,65,819.71,61" style="stroke:#181818;stroke-width:1.0;"/><text fill="#000000" font-family="sans-serif" font-size="13" lengthAdjust="spacing" textLength="115" x="448" y="54.4951">eliminarEntregable()</text></g><!--link EliminarEntregableView to EntregableController--><g id="link_EliminarEntregableView_EntregableController"><path d="M819.82,68.23 C644.22,81.21 255,110 255,110 C255,110 255,128 255,128 C255,128 454.1736,152.1379 569.1636,166.0779 " fill="none" id="EliminarEntregableView-to-EntregableController" style="stroke:#181818;stroke-width:1.0;"/><polygon fill="#181818" points="575.12,166.8,566.6668,161.746,570.1563,166.1983,565.704,169.6878,575.12,166.8" style="stroke:#181818;stroke-width:1.0;"/><text fill="#000000" font-family="sans-serif" font-size="13" lengthAdjust="spacing" textLength="138" x="256" y="124.4951">solicitarConfirmacion(id)</text></g><!--link EntregableController to EliminarEntregableView--><g id="link_EntregableController_EliminarEntregableView"><path d="M726.75,159.01 C788.31,145.2 865,128 865,128 C865,128 878.75,104.747 890.29,85.197 " fill="none" id="EntregableController-to-EliminarEntregableView" style="stroke:#181818;stroke-width:1.0;"/><polygon fill="#181818" points="893.34,80.03,885.3204,85.7472,890.7984,84.3358,892.2097,89.8138,893.34,80.03" style="stroke:#181818;stroke-width:1.0;"/><text fill="#000000" font-family="sans-serif" font-size="13" lengthAdjust="spacing" textLength="137" x="876" y="124.4951">presentarConfirmacion()</text></g><!--link EliminarEntregableView to EntregableController--><g id="link_EliminarEntregableView_EntregableController"><path d="M819.88,70.61 C684.92,84.42 435,110 435,110 C435,110 435,128 435,128 C435,128 507.3129,144.0684 569.5929,157.9084 " fill="none" id="EliminarEntregableView-to-EntregableController-1" style="stroke:#181818;stroke-width:1.0;"/><polygon fill="#181818" points="575.45,159.21,567.532,153.3529,570.5691,158.1253,565.7966,161.1624,575.45,159.21" style="stroke:#181818;stroke-width:1.0;"/><text fill="#000000" font-family="sans-serif" font-size="13" lengthAdjust="spacing" textLength="277" x="436" y="124.4951">confirmarRetiradaPropia(id, motivo, investigador)</text></g><!--link EliminarEntregableView to EntregableController--><g id="link_EliminarEntregableView_EntregableController"><path d="M846.22,80.01 C802.52,93.63 750,110 750,110 C750,110 712.3515,135.0906 683.0415,154.6406 " fill="none" id="EliminarEntregableView-to-EntregableController-2" style="stroke:#181818;stroke-width:1.0;"/><polygon fill="#181818" points="678.05,157.97,687.7569,156.3036,682.2096,155.1955,683.3177,149.6483,678.05,157.97" style="stroke:#181818;stroke-width:1.0;"/><text fill="#000000" font-family="sans-serif" font-size="13" lengthAdjust="spacing" textLength="105" x="751" y="124.4951">cancelarRetirada()</text></g><!--link EntregableController to EntregableRepository--><g id="link_EntregableController_EntregableRepository"><path d="M610.48,196.01 C579.83,209.63 543,226 543,226 C543,226 543,244 543,244 C543,244 660.3208,264.6403 745.2908,279.5903 " fill="none" id="EntregableController-to-EntregableRepository" style="stroke:#181818;stroke-width:1.0;"/><polygon fill="#181818" points="751.2,280.63,743.0293,275.131,746.2756,279.7636,741.643,283.0099,751.2,280.63" style="stroke:#181818;stroke-width:1.0;"/><text fill="#000000" font-family="sans-serif" font-size="13" lengthAdjust="spacing" textLength="242" x="544" y="240.4951">obtenerActivoPorIdYAutor(id, investigador)</text></g><!--link EntregableController to EntregableRepository--><g id="link_EntregableController_EntregableRepository"><path d="M703.53,196.01 C743.25,209.63 791,226 791,226 C791,226 805.0317,250.6356 816.5817,270.9256 " fill="none" id="EntregableController-to-EntregableRepository-1" style="stroke:#181818;stroke-width:1.0;"/><polygon fill="#181818" points="819.55,276.14,818.5739,266.3396,817.0765,271.7947,811.6214,270.2973,819.55,276.14" style="stroke:#181818;stroke-width:1.0;"/><text fill="#000000" font-family="sans-serif" font-size="13" lengthAdjust="spacing" textLength="211" x="801" y="240.4951">retirar(id, fecha, investigador, motivo)</text></g><!--link EntregableRepository to Entregable--><g id="link_EntregableRepository_Entregable"><path d="M830,314.75 C830,332.7 830,359.95 830,377.87 " fill="none" id="EntregableRepository-Entregable" style="stroke:#181818;stroke-width:1.0;"/></g><!--link EliminarEntregableView to EstadoSalidaExitosa--><g id="link_EliminarEntregableView_EstadoSalidaExitosa"><path d="M948.27,80.01 C981.76,93.63 1022,110 1022,110 C1022,110 1082.8054,136.0558 1128.4054,155.6058 " fill="none" id="EliminarEntregableView-to-EstadoSalidaExitosa" style="stroke:#181818;stroke-width:1.0;stroke-dasharray:7.0,7.0;"/><polygon fill="#181818" points="1133.92,157.97,1127.2243,150.7473,1129.3245,155.9998,1124.072,158.1,1133.92,157.97" style="stroke:#181818;stroke-width:1.0;"/><text fill="#000000" font-family="sans-serif" font-size="13" lengthAdjust="spacing" textLength="116" x="1064" y="124.4951">entregableRetirado()</text></g><!--link EliminarEntregableView to EstadoSalidaCancelada--><g id="link_EliminarEntregableView_EstadoSalidaCancelada"><path d="M988.35,76.21 C1072.39,90.36 1189,110 1189,110 C1189,110 1275.8544,136.6586 1339.5144,156.2086 " fill="none" id="EliminarEntregableView-to-EstadoSalidaCancelada" style="stroke:#181818;stroke-width:1.0;stroke-dasharray:7.0,7.0;"/><polygon fill="#181818" points="1345.25,157.97,1337.8208,151.5041,1340.4703,156.5022,1335.4723,159.1516,1345.25,157.97" style="stroke:#181818;stroke-width:1.0;"/><text fill="#000000" font-family="sans-serif" font-size="13" lengthAdjust="spacing" textLength="112" x="1247" y="124.4951">retiradaCancelada()</text></g><!--link EliminarEntregableView to AbrirEntregables--><g id="link_EliminarEntregableView_AbrirEntregables"><path d="M988.03,70.69 C1121.74,84.52 1368,110 1368,110 C1368,110 1479.3094,137.0045 1559.8394,156.5545 " fill="none" id="EliminarEntregableView-to-AbrirEntregables" style="stroke:#181818;stroke-width:1.0;stroke-dasharray:7.0,7.0;"/><polygon fill="#181818" points="1565.67,157.97,1557.8677,151.9597,1560.8111,156.7904,1555.9804,159.7339,1565.67,157.97" style="stroke:#181818;stroke-width:1.0;"/><text fill="#000000" font-family="sans-serif" font-size="13" lengthAdjust="spacing" textLength="102" x="1441" y="124.4951">abrirEntregables()</text></g><!--link EliminarEntregableView to AbrirEntregable--><g id="link_EliminarEntregableView_AbrirEntregable"><path d="M988.05,68.23 C1163.38,81.21 1552,110 1552,110 C1552,110 1691.6713,137.2697 1791.7513,156.8197 " fill="none" id="EliminarEntregableView-to-AbrirEntregable" style="stroke:#181818;stroke-width:1.0;stroke-dasharray:7.0,7.0;"/><polygon fill="#181818" points="1797.64,157.97,1789.5738,152.3187,1792.7328,157.0114,1788.0401,160.1703,1797.64,157.97" style="stroke:#181818;stroke-width:1.0;"/><text fill="#000000" font-family="sans-serif" font-size="13" lengthAdjust="spacing" textLength="95" x="1643" y="124.4951">abrirEntregable()</text></g><!--link EntregableRepository to GMN24--><g id="link_EntregableRepository_GMN24"><path d="M908.61,295.5 C928.83,295.5 945,295.5 945,295.5 C945,295.5 1060,295.5 1060,295.5 C1060,295.5 1065.9,295.5 1075.03,295.5 " fill="none" id="EntregableRepository-GMN24" style="stroke:#181818;stroke-width:1.0;stroke-dasharray:7.0,7.0;"/></g><!--SRC=[dLJ1Rjf04BtlLup81IJW43LHuqCaGpTLfAYD8AhKKpMs1nZ5x5gpMrfKzT-x2uKunX0Hd-pncpTltyoiUsPJeU0IIZRarnL1PSjr_51AAFTevYN1nVYJ7gLNq4dqbwU9_foE7lIFT7Il9qzVEu0EjFDOM6syO86gmlmPvmHKyf8DIepJ7BF05B2Tmt2tru4_2i9JgtbzUQFlRa0VeByn_Mg2iwkikFu8Bw2n3Q-sB4cQqBlBTFn1rw0JggnZRsNz9bJzVSkMwSwNQSsOAPPSeFuTYZWytzTj-XXDJcNqjurW7CwAcHNqR0sacN3DCRSXQmRFvscZKUfLys4WWziZJKkWhVM1e1KDWo8ojNGq0MTBpjcZXE2CPObvKDlbegVQy30u8QaIScIQLBsZeevgol_douGyHoiUnLQCGLKVbjRpolQ1pOgSvtdmIzvJOZi2-mhTK-TjcUy4RER9aAHvrFDevRxudluClpOg6-hEOvQDfYtHZF85lkRRUL3dVKaFlFKjEsBCS7ZRjb1Xh6gK6sViyGOsIVPhjJj2BNIQfRbF2M0ZSbR-GNfS3MCzWV1yuS7Esk-i1zmBZpFeI5O8An8NvfXSNs7iBoEi0wpSJ3SvMB2BqHpTK94f8DPH_m00]--></g></svg>