<?xml version="1.0" encoding="us-ascii" standalone="no"?><svg xmlns="http://www.w3.org/2000/svg" xmlns:xlink="http://www.w3.org/1999/xlink" contentStyleType="text/css" height="439px" preserveAspectRatio="none" style="width:1748px;height:439px;background:#FFFFFF;" version="1.1" viewBox="0 0 1748 439" width="1748px" zoomAndPan="magnify"><defs/><g><!--cluster eliminarEntregable--><g id="cluster_eliminarEntregable"><path d="M209.5,6 L353.5,6 A3.75,3.75 0 0 1 356,8.5 L363,29.6094 L1056.5,29.6094 A2.5,2.5 0 0 1 1059,32.1094 L1059,429.5 A2.5,2.5 0 0 1 1056.5,432 L209.5,432 A2.5,2.5 0 0 1 207,429.5 L207,8.5 A2.5,2.5 0 0 1 209.5,6 " fill="none" style="stroke:#000000;stroke-width:1.5;"/><line style="stroke:#000000;stroke-width:1.5;" x1="207" x2="363" y1="29.6094" y2="29.6094"/><text fill="#000000" font-family="sans-serif" font-size="14" font-weight="bold" lengthAdjust="spacing" textLength="143" x="211" y="22.5332">eliminarEntregable()</text></g><!--entity EliminarEntregableView--><g id="elem_EliminarEntregableView"><rect fill="#629EF9" height="37.6094" rx="2.5" ry="2.5" style="stroke:#181818;stroke-width:0.5;" width="168" x="746" y="42"/><text fill="#000000" font-family="sans-serif" font-size="14" lengthAdjust="spacing" textLength="148" x="756" y="66.5332">EliminarEntregableView</text></g><!--entity EntregableController--><g id="elem_EntregableController"><rect fill="#B5BD68" height="37.6094" rx="2.5" ry="2.5" style="stroke:#181818;stroke-width:0.5;" width="151" x="575.5" y="158"/><text fill="#000000" font-family="sans-serif" font-size="14" lengthAdjust="spacing" textLength="131" x="585.5" y="182.5332">EntregableController</text></g><!--entity EntregableRepository--><g id="elem_EntregableRepository"><rect fill="#F2AC4E" height="37.6094" rx="2.5" ry="2.5" style="stroke:#181818;stroke-width:0.5;" width="157" x="751.5" y="276.5"/><text fill="#000000" font-family="sans-serif" font-size="14" lengthAdjust="spacing" textLength="137" x="761.5" y="301.0332">EntregableRepository</text></g><!--entity Entregable--><g id="elem_Entregable"><rect fill="#F2AC4E" height="37.6094" rx="2.5" ry="2.5" style="stroke:#181818;stroke-width:0.5;" width="89" x="785.5" y="378"/><text fill="#000000" font-family="sans-serif" font-size="14" lengthAdjust="spacing" textLength="69" x="795.5" y="402.5332">Entregable</text></g><!--entity EstadoEntrada--><g id="elem_EstadoEntrada"><rect fill="#CDEBA5" height="37.6094" rx="2.5" ry="2.5" style="stroke:#181818;stroke-width:0.5;" width="184" x="7" y="42"/><text fill="#000000" font-family="sans-serif" font-size="14" lengthAdjust="spacing" textLength="164" x="17" y="66.5332">:ENTREGABLE_ABIERTO</text></g><!--entity EstadoSalidaExitosa--><g id="elem_EstadoSalidaExitosa"><rect fill="#CDEBA5" height="37.6094" rx="2.5" ry="2.5" style="stroke:#181818;stroke-width:0.5;" width="202" x="1075" y="158"/><text fill="#000000" font-family="sans-serif" font-size="14" lengthAdjust="spacing" textLength="182" x="1085" y="182.5332">:ENTREGABLES_ABIERTOS</text></g><!--entity EstadoSalidaCancelada--><g id="elem_EstadoSalidaCancelada"><rect fill="#CDEBA5" height="37.6094" rx="2.5" ry="2.5" style="stroke:#181818;stroke-width:0.5;" width="184" x="1312" y="158"/><text fill="#000000" font-family="sans-serif" font-size="14" lengthAdjust="spacing" textLength="164" x="1322" y="182.5332">:ENTREGABLE_ABIERTO</text></g><!--entity AbrirEntregable--><g id="elem_AbrirEntregable"><rect fill="#CDEBA5" height="37.6094" rx="2.5" ry="2.5" style="stroke:#181818;stroke-width:0.5;" width="211" x="1531.5" y="158"/><text fill="#000000" font-family="sans-serif" font-size="14" lengthAdjust="spacing" textLength="191" x="1541.5" y="182.5332">:Collaboration AbrirEntregable</text></g><g id="elem_GMN22"><path d="M1075.5,274 L1075.5,316.7031 L1274.5,316.7031 L1274.5,284 L1264.5,274 L1075.5,274 " fill="#FEFFDD" style="stroke:#181818;stroke-width:0.5;"/><path d="M1264.5,274 L1264.5,284 L1274.5,284 L1264.5,274 " fill="#FEFFDD" style="stroke:#181818;stroke-width:1.0;"/><text fill="#000000" font-family="sans-serif" font-size="13" lengthAdjust="spacing" textLength="178" x="1081.5" y="292.4951">La retirada conserva versiones,</text><text fill="#000000" font-family="sans-serif" font-size="13" lengthAdjust="spacing" textLength="177" x="1081.5" y="308.8467">autoria y relaciones historicas.</text></g><!--link EstadoEntrada to EliminarEntregableView--><g id="link_EstadoEntrada_EliminarEntregableView"><path d="M191.21,61 C334.38,61 601.97,61 739.98,61 " fill="none" id="EstadoEntrada-to-EliminarEntregableView" style="stroke:#181818;stroke-width:1.0;"/><polygon fill="#181818" points="745.98,61,736.98,57,740.98,61,736.98,65,745.98,61" style="stroke:#181818;stroke-width:1.0;"/><text fill="#000000" font-family="sans-serif" font-size="13" lengthAdjust="spacing" textLength="115" x="411" y="54.4951">eliminarEntregable()</text></g><!--link EliminarEntregableView to EntregableController--><g id="link_EliminarEntregableView_EntregableController"><path d="M745.77,69.03 C586.06,82.36 255,110 255,110 C255,110 255,128 255,128 C255,128 454.1736,152.1379 569.1636,166.0779 " fill="none" id="EliminarEntregableView-to-EntregableController" style="stroke:#181818;stroke-width:1.0;"/><polygon fill="#181818" points="575.12,166.8,566.6668,161.746,570.1563,166.1983,565.704,169.6878,575.12,166.8" style="stroke:#181818;stroke-width:1.0;"/><text fill="#000000" font-family="sans-serif" font-size="13" lengthAdjust="spacing" textLength="138" x="256" y="124.4951">solicitarConfirmacion(id)</text></g><!--link EntregableController to EliminarEntregableView--><g id="link_EntregableController_EliminarEntregableView"><path d="M726.75,159.01 C788.31,145.2 865,128 865,128 C865,128 865,110 865,110 C865,110 856.6752,98.5879 846.7652,84.9979 " fill="none" id="EntregableController-to-EliminarEntregableView" style="stroke:#181818;stroke-width:1.0;"/><polygon fill="#181818" points="843.23,80.15,845.3008,89.7787,846.176,84.1899,851.7647,85.0651,843.23,80.15" style="stroke:#181818;stroke-width:1.0;"/><text fill="#000000" font-family="sans-serif" font-size="13" lengthAdjust="spacing" textLength="137" x="866" y="124.4951">presentarConfirmacion()</text></g><!--link EliminarEntregableView to EntregableController--><g id="link_EliminarEntregableView_EntregableController"><path d="M745.75,72.24 C629.74,86.34 435,110 435,110 C435,110 435,128 435,128 C435,128 507.3129,144.0684 569.5929,157.9084 " fill="none" id="EliminarEntregableView-to-EntregableController-1" style="stroke:#181818;stroke-width:1.0;"/><polygon fill="#181818" points="575.45,159.21,567.532,153.3529,570.5691,158.1253,565.7966,161.1624,575.45,159.21" style="stroke:#181818;stroke-width:1.0;"/><text fill="#000000" font-family="sans-serif" font-size="13" lengthAdjust="spacing" textLength="277" x="436" y="124.4951">confirmarRetiradaPropia(id, motivo, investigador)</text></g><!--link EliminarEntregableView to EntregableController--><g id="link_EliminarEntregableView_EntregableController"><path d="M799.76,80.15 C777.1,93.74 750,110 750,110 C750,110 712.3515,135.0906 683.0415,154.6406 " fill="none" id="EliminarEntregableView-to-EntregableController-2" style="stroke:#181818;stroke-width:1.0;"/><polygon fill="#181818" points="678.05,157.97,687.7569,156.3036,682.2096,155.1955,683.3177,149.6483,678.05,157.97" style="stroke:#181818;stroke-width:1.0;"/><text fill="#000000" font-family="sans-serif" font-size="13" lengthAdjust="spacing" textLength="105" x="751" y="124.4951">cancelarRetirada()</text></g><!--link EntregableController to EntregableRepository--><g id="link_EntregableController_EntregableRepository"><path d="M610.48,196.01 C579.83,209.63 543,226 543,226 C543,226 543,244 543,244 C543,244 660.3208,264.6403 745.2908,279.5903 " fill="none" id="EntregableController-to-EntregableRepository" style="stroke:#181818;stroke-width:1.0;"/><polygon fill="#181818" points="751.2,280.63,743.0293,275.131,746.2756,279.7636,741.643,283.0099,751.2,280.63" style="stroke:#181818;stroke-width:1.0;"/><text fill="#000000" font-family="sans-serif" font-size="13" lengthAdjust="spacing" textLength="242" x="544" y="240.4951">obtenerActivoPorIdYAutor(id, investigador)</text></g><!--link EntregableController to EntregableRepository--><g id="link_EntregableController_EntregableRepository"><path d="M703.53,196.01 C743.25,209.63 791,226 791,226 C791,226 805.0317,250.6356 816.5817,270.9256 " fill="none" id="EntregableController-to-EntregableRepository-1" style="stroke:#181818;stroke-width:1.0;"/><polygon fill="#181818" points="819.55,276.14,818.5739,266.3396,817.0765,271.7947,811.6214,270.2973,819.55,276.14" style="stroke:#181818;stroke-width:1.0;"/><text fill="#000000" font-family="sans-serif" font-size="13" lengthAdjust="spacing" textLength="211" x="801" y="240.4951">retirar(id, fecha, investigador, motivo)</text></g><!--link EntregableRepository to Entregable--><g id="link_EntregableRepository_Entregable"><path d="M830,314.75 C830,332.7 830,359.95 830,377.87 " fill="none" id="EntregableRepository-Entregable" style="stroke:#181818;stroke-width:1.0;"/></g><!--link EliminarEntregableView to EstadoSalidaExitosa--><g id="link_EliminarEntregableView_EstadoSalidaExitosa"><path d="M898.29,80.01 C949.93,93.63 1012,110 1012,110 C1012,110 1077.0641,136.1792 1125.6241,155.7292 " fill="none" id="EliminarEntregableView-to-EstadoSalidaExitosa" style="stroke:#181818;stroke-width:1.0;stroke-dasharray:7.0,7.0;"/><polygon fill="#181818" points="1131.19,157.97,1124.3351,150.8982,1126.5518,156.1027,1121.3473,158.3194,1131.19,157.97" style="stroke:#181818;stroke-width:1.0;"/><text fill="#000000" font-family="sans-serif" font-size="13" lengthAdjust="spacing" textLength="116" x="1056" y="124.4951">entregableRetirado()</text></g><!--link EliminarEntregableView to EstadoSalidaCancelada--><g id="link_EliminarEntregableView_EstadoSalidaCancelada"><path d="M914.07,73.5 C1017.91,87.7 1181,110 1181,110 C1181,110 1271.2869,136.7164 1337.3069,156.2664 " fill="none" id="EliminarEntregableView-to-EstadoSalidaCancelada" style="stroke:#181818;stroke-width:1.0;stroke-dasharray:7.0,7.0;"/><polygon fill="#181818" points="1343.06,157.97,1335.5661,151.5792,1338.2658,156.5503,1333.2947,159.25,1343.06,157.97" style="stroke:#181818;stroke-width:1.0;"/><text fill="#000000" font-family="sans-serif" font-size="13" lengthAdjust="spacing" textLength="112" x="1241" y="124.4951">retiradaCancelada()</text></g><!--link EliminarEntregableView to AbrirEntregable--><g id="link_EliminarEntregableView_AbrirEntregable"><path d="M914,69.58 C1063.92,83.11 1362,110 1362,110 C1362,110 1474.5958,137.0193 1556.0258,156.5693 " fill="none" id="EliminarEntregableView-to-AbrirEntregable" style="stroke:#181818;stroke-width:1.0;stroke-dasharray:7.0,7.0;"/><polygon fill="#181818" points="1561.86,157.97,1554.0425,151.9795,1556.9982,156.8028,1552.1749,159.7584,1561.86,157.97" style="stroke:#181818;stroke-width:1.0;"/><text fill="#000000" font-family="sans-serif" font-size="13" lengthAdjust="spacing" textLength="95" x="1436" y="124.4951">abrirEntregable()</text></g><!--link EntregableRepository to GMN22--><g id="link_EntregableRepository_GMN22"><path d="M908.61,295.5 C928.83,295.5 945,295.5 945,295.5 C945,295.5 1060,295.5 1060,295.5 C1060,295.5 1065.9,295.5 1075.03,295.5 " fill="none" id="EntregableRepository-GMN22" style="stroke:#181818;stroke-width:1.0;stroke-dasharray:7.0,7.0;"/></g><!--SRC=[dLJ1Rjf04BtlLupe1IJW43LHmo6ISJTLfAYD8AhKKpMs1nZ5x5gpMrfKzT-xQmenZY5AVSAFjs_UlfcnUs9JeU0QIZRajnL1PSjjV55AAFTebYN1k_IZdYQNq9lepuyp_IcPtklloVHEpnw_z00TQEUniDfumG9LXVaJBWcev3KRb8ZJ4hEW5BYzbt1_q8FV2iBJg7brSQrlhq6_O7zb-jacPvTPSVK1dacf3JzjMPAqgRSNIVfUDwWpggnZRsNxAbNzUIsM-JwNUIEOEPPSeFuLYZXyUwwxuocQdCgORvT06kwAcHNqR0qacN0ZiLghXIbrr3GOoUZcHDWJw6fP4EXamwY8IXsTc82p9UViKGAuO5bZ7jpskHYeBZwCpbYgX1oPjjJWfAcJdl9_vsL6dcCK3s8hnk1g26lhUME7m6P3plCov2N_KsBNkaE5_hdxTipb16pcoP0aUVJpOEMk-9Ry27_LBblktgOijQUTq8Bo5HxhxJDewZuV3xhDxJWHp7XyqxK8OQmQadKozdG3soA7TTXVeG6TLsajmWJm68YZRQmd45wkFDX5zxVY7W-5ummvaWt2XiI5EIGtL1ZxmmZRG2lhwIG7AtOHpT6D5Pa2OXtr5m00]--></g></svg>