<svg xmlns="http://www.w3.org/2000/svg" xmlns:xlink="http://www.w3.org/1999/xlink" contentStyleType="text/css" data-diagram-type="STATE" height="805px" preserveAspectRatio="none" style="width:870px;height:805px;background:#FFFFFF;" version="1.1" viewBox="0 0 870 805" width="870px" zoomAndPan="magnify"><?plantuml 1.2026.3?><defs/><g><g class="entity" data-qualified-name="in1" id="ent0002"><rect fill="#F1F1F1" height="50" rx="12.5" ry="12.5" style="stroke:#181818;stroke-width:0.5;" width="187.2617" x="259.5" y="7"/><line style="stroke:#181818;stroke-width:0.5;" x1="259.5" x2="446.7617" y1="34.6094" y2="34.6094"/><text fill="#000000" font-family="sans-serif" font-size="14" lengthAdjust="spacing" textLength="167.2617" x="269.5" y="26.5332">RECOMPENSA_ABIERTA</text></g><g class="entity" data-qualified-name="in2" id="ent0003"><rect fill="#F1F1F1" height="50" rx="12.5" ry="12.5" style="stroke:#181818;stroke-width:0.5;" width="216.8477" x="481.5" y="7"/><line style="stroke:#181818;stroke-width:0.5;" x1="481.5" x2="698.3477" y1="34.6094" y2="34.6094"/><text fill="#000000" font-family="sans-serif" font-size="14" lengthAdjust="spacing" textLength="196.8477" x="491.5" y="26.5332">PANEL_PRINCIPAL_ABIERTO</text></g><path d="M315,153 L627,153 A12.5,12.5 0 0 1 639.5,165.5 L639.5,180.6094 L302.5,180.6094 L302.5,165.5 A12.5,12.5 0 0 1 315,153" fill="#F1F1F1"/><rect fill="none" height="491.6094" rx="12.5" ry="12.5" style="stroke:#181818;stroke-width:0.5;" width="337" x="302.5" y="153"/><line style="stroke:#181818;stroke-width:0.5;" x1="302.5" x2="639.5" y1="180.6094" y2="180.6094"/><text fill="#000000" font-family="sans-serif" font-size="14" lengthAdjust="spacing" textLength="126.8203" x="407.5898" y="172.5332">abrirRecompensas()</text><g class="entity" data-qualified-name="abrirRecompensas.MostrandoListado" id="ent0005"><rect fill="#F1F1F1" height="50" rx="12.5" ry="12.5" style="stroke:#181818;stroke-width:0.5;" width="50" x="314.5" y="283.6094"/><line style="stroke:#181818;stroke-width:0.5;" x1="314.5" x2="364.5" y1="311.2188" y2="311.2188"/><text fill="#000000" font-family="sans-serif" font-size="14" lengthAdjust="spacing" textLength="3.8896" x="337.5552" y="303.1426">&#160;</text></g><g class="entity" data-qualified-name="abrirRecompensas.FiltrandoListado" id="ent0006"><rect fill="#F1F1F1" height="50" rx="12.5" ry="12.5" style="stroke:#181818;stroke-width:0.5;" width="50" x="314.5" y="487.6094"/><line style="stroke:#181818;stroke-width:0.5;" x1="314.5" x2="364.5" y1="515.2188" y2="515.2188"/><text fill="#000000" font-family="sans-serif" font-size="14" lengthAdjust="spacing" textLength="3.8896" x="337.5552" y="507.1426">&#160;</text></g><g class="start_entity" data-qualified-name="abrirRecompensas..start.abrirRecompensas" data-source-line="21" id="ent0004"><ellipse cx="339.5" cy="201.6094" fill="#222222" rx="10" ry="10" style="stroke:#222222;stroke-width:1;"/></g><g class="end_entity" data-qualified-name="abrirRecompensas..end.abrirRecompensas" data-source-line="36" id="ent0007"><ellipse cx="339.5" cy="620.6094" fill="none" rx="11" ry="11" style="stroke:#222222;stroke-width:1;"/><ellipse cx="339.5" cy="620.6094" fill="#222222" rx="6" ry="6" style="stroke:#222222;stroke-width:1;"/></g><!--link *start*abrirRecompensas to MostrandoListado--><g class="link" data-entity-1="ent0004" data-entity-2="ent0005" data-link-type="dependency" data-source-line="21" id="lnk5"><path d="M339.5,211.9294 C339.5,227.7894 339.5,254.5194 339.5,277.2494" fill="none" id="*start*abrirRecompensas-to-MostrandoListado" style="stroke:#008000;stroke-width:1;"/><polygon fill="#008000" points="339.5,283.2494,343.5,274.2494,339.5,278.2494,335.5,274.2494,339.5,283.2494" style="stroke:#008000;stroke-width:1;"/><path d="M344.5,234.6094 L344.5,260.6094 L597.5,260.6094 L597.5,244.6094 L587.5,234.6094 L344.5,234.6094" fill="#FEFFDD" style="stroke:#181818;stroke-width:0.5;"/><path d="M587.5,234.6094 L587.5,244.6094 L597.5,244.6094 L587.5,234.6094" fill="#FEFFDD" style="stroke:#181818;stroke-width:0.5;"/><text fill="#000000" font-family="sans-serif" font-size="13" font-weight="700" lengthAdjust="spacing" textLength="77.9937" x="350.5" y="253.1045">Coordinador</text><text fill="#000000" font-family="sans-serif" font-size="13" lengthAdjust="spacing" textLength="151.0044" x="432.1055" y="253.1045">solicita abrir recompensas</text></g><!--link MostrandoListado to FiltrandoListado--><g class="link" data-entity-1="ent0005" data-entity-2="ent0006" data-link-type="dependency" data-source-line="26" id="lnk6"><path d="M339.5,333.9794 C339.5,372.9094 339.5,442.6894 339.5,481.4694" fill="none" id="MostrandoListado-to-FiltrandoListado" style="stroke:#008000;stroke-width:1;"/><polygon fill="#008000" points="339.5,487.4694,343.5,478.4694,339.5,482.4694,335.5,478.4694,339.5,487.4694" style="stroke:#008000;stroke-width:1;"/><path d="M344.5,356.6094 L344.5,464.6094 L609.5,464.6094 L609.5,366.6094 L599.5,356.6094 L344.5,356.6094" fill="#FEFFDD" style="stroke:#181818;stroke-width:0.5;"/><path d="M599.5,356.6094 L599.5,366.6094 L609.5,366.6094 L599.5,356.6094" fill="#FEFFDD" style="stroke:#181818;stroke-width:0.5;"/><text fill="#000000" font-family="sans-serif" font-size="13" font-weight="700" lengthAdjust="spacing" textLength="49.8608" x="350.5" y="375.1045">Sistema</text><text fill="#000000" font-family="sans-serif" font-size="13" lengthAdjust="spacing" textLength="191.5024" x="403.9727" y="375.1045">presenta listado de recompensas</text><text fill="#000000" font-family="sans-serif" font-size="13" lengthAdjust="spacing" textLength="34.1821" x="350.5" y="391.4561">&#8226; Tipo</text><text fill="#000000" font-family="sans-serif" font-size="13" lengthAdjust="spacing" textLength="60.9312" x="350.5" y="407.8076">&#8226; Cantidad</text><text fill="#000000" font-family="sans-serif" font-size="13" font-weight="700" lengthAdjust="spacing" textLength="49.8608" x="350.5" y="424.1592">Sistema</text><text fill="#000000" font-family="sans-serif" font-size="13" lengthAdjust="spacing" textLength="94.6372" x="403.9727" y="424.1592">permite solicitar:</text><text fill="#000000" font-family="sans-serif" font-size="13" lengthAdjust="spacing" textLength="110.0493" x="350.5" y="440.5107">&#8226; abrir recompensa</text><text fill="#000000" font-family="sans-serif" font-size="13" lengthAdjust="spacing" textLength="113.6611" x="350.5" y="456.8623">&#8226; crear recompensa</text></g><!--link FiltrandoListado to *end*abrirRecompensas--><g class="link" data-entity-1="ent0006" data-entity-2="ent0007" data-link-type="dependency" data-source-line="36" id="lnk8"><path d="M339.5,537.6594 C339.5,560.2594 339.5,586.9894 339.5,603.4094" fill="none" id="FiltrandoListado-to-*end*abrirRecompensas" style="stroke:#008000;stroke-width:1;"/><polygon fill="#008000" points="339.5,609.4094,343.5,600.4094,339.5,604.4094,335.5,600.4094,339.5,609.4094" style="stroke:#008000;stroke-width:1;"/><path d="M344.5,560.6094 L344.5,586.6094 L615.5,586.6094 L615.5,570.6094 L605.5,560.6094 L344.5,560.6094" fill="#FEFFDD" style="stroke:#181818;stroke-width:0.5;"/><path d="M605.5,560.6094 L605.5,570.6094 L615.5,570.6094 L605.5,560.6094" fill="#FEFFDD" style="stroke:#181818;stroke-width:0.5;"/><text fill="#000000" font-family="sans-serif" font-size="13" font-weight="700" lengthAdjust="spacing" textLength="77.9937" x="350.5" y="579.1045">Coordinador</text><text fill="#000000" font-family="sans-serif" font-size="13" lengthAdjust="spacing" textLength="169.1079" x="432.1055" y="579.1045">solicita una opci&#243;n del listado</text></g><g class="entity" data-qualified-name="RECOMPENSAS_ABIERTAS" id="ent0009"><rect fill="#F1F1F1" height="50" rx="12.5" ry="12.5" style="stroke:#181818;stroke-width:0.5;" width="205.9375" x="7" y="741"/><line style="stroke:#181818;stroke-width:0.5;" x1="7" x2="212.9375" y1="768.6094" y2="768.6094"/><text fill="#000000" font-family="sans-serif" font-size="14" lengthAdjust="spacing" textLength="185.9375" x="17" y="760.5332">RECOMPENSAS_ABIERTAS</text></g><g class="entity" data-qualified-name="RECOMPENSA_ABIERTA" id="ent0011"><rect fill="#F1F1F1" height="50" rx="12.5" ry="12.5" style="stroke:#181818;stroke-width:0.5;" width="187.2617" x="351.5" y="741"/><line style="stroke:#181818;stroke-width:0.5;" x1="351.5" x2="538.7617" y1="768.6094" y2="768.6094"/><text fill="#000000" font-family="sans-serif" font-size="14" lengthAdjust="spacing" textLength="167.2617" x="361.5" y="760.5332">RECOMPENSA_ABIERTA</text></g><g class="entity" data-qualified-name="PANEL_PRINCIPAL_ABIERTO" id="ent0014"><rect fill="#F1F1F1" height="50" rx="12.5" ry="12.5" style="stroke:#181818;stroke-width:0.5;" width="216.8477" x="638.5" y="741"/><line style="stroke:#181818;stroke-width:0.5;" x1="638.5" x2="855.3477" y1="768.6094" y2="768.6094"/><text fill="#000000" font-family="sans-serif" font-size="14" lengthAdjust="spacing" textLength="196.8477" x="648.5" y="760.5332">PANEL_PRINCIPAL_ABIERTO</text></g><!--link in1 to abrirRecompensas--><g class="link" data-entity-1="ent0002" data-entity-2="ent0004" data-link-type="dependency" data-source-line="5" id="lnk2"><path d="M360.83,57.23 C367.91,79.12 377.284,108.131 389.914,147.191" fill="none" id="in1-to-abrirRecompensas" style="stroke:#008000;stroke-width:1;"/><polygon fill="#008000" points="391.76,152.9,392.797,143.1059,390.2217,148.1425,385.185,145.5672,391.76,152.9" style="stroke:#008000;stroke-width:1;"/><path d="M387,92 L387,118 L519,118 L519,102 L509,92 L387,92" fill="#FEFFDD" style="stroke:#181818;stroke-width:0.5;"/><path d="M509,92 L509,102 L519,102 L509,92" fill="#FEFFDD" style="stroke:#181818;stroke-width:0.5;"/><text fill="#000000" font-family="sans-serif" font-size="13" lengthAdjust="spacing" textLength="111.2617" x="393" y="110.4951">abrirRecompensa()</text></g><!--link in2 to abrirRecompensas--><g class="link" data-entity-1="ent0003" data-entity-2="ent0004" data-link-type="dependency" data-source-line="11" id="lnk3"><path d="M582.1,57.23 C574.96,79.12 565.5105,108.1358 552.7705,147.1958" fill="none" id="in2-to-abrirRecompensas" style="stroke:#008000;stroke-width:1;"/><polygon fill="#008000" points="550.91,152.9,557.5036,145.584,552.4604,148.1465,549.898,143.1033,550.91,152.9" style="stroke:#008000;stroke-width:1;"/><path d="M575,92 L575,118 L713,118 L713,102 L703,92 L575,92" fill="#FEFFDD" style="stroke:#181818;stroke-width:0.5;"/><path d="M703,92 L703,102 L713,102 L703,92" fill="#FEFFDD" style="stroke:#181818;stroke-width:0.5;"/><text fill="#000000" font-family="sans-serif" font-size="13" lengthAdjust="spacing" textLength="117.7617" x="581" y="110.4951">abrirRecompensas()</text></g><!--link abrirRecompensas to RECOMPENSAS_ABIERTAS--><g class="link" data-entity-1="ent0004" data-entity-2="ent0009" data-link-type="dependency" data-source-line="43" id="lnk10"><path d="M302.08,539.92 C220.07,607.85 139,675 139,675 C139,675 128.2001,708.5091 119.6101,735.1691" fill="none" id="abrirRecompensas-to-RECOMPENSAS_ABIERTAS" style="stroke:#008000;stroke-width:1;"/><polygon fill="#008000" points="117.77,740.88,124.3374,733.5404,119.3034,736.1209,116.7229,731.087,117.77,740.88" style="stroke:#008000;stroke-width:1;"/><path d="M144,680 L144,706 L364,706 L364,690 L354,680 L144,680" fill="#FEFFDD" style="stroke:#181818;stroke-width:0.5;"/><path d="M354,680 L354,690 L364,690 L354,680" fill="#FEFFDD" style="stroke:#181818;stroke-width:0.5;"/><text fill="#000000" font-family="sans-serif" font-size="13" lengthAdjust="spacing" textLength="199.4434" x="150" y="698.4951">Listado de recompensas mostrado</text></g><!--link abrirRecompensas to RECOMPENSA_ABIERTA--><g class="link" data-entity-1="ent0004" data-entity-2="ent0011" data-link-type="dependency" data-source-line="48" id="lnk12"><path d="M387.24,645.05 C380.95,663.43 377,675 377,675 C377,675 377,711 377,711 C377,711 391.7699,722.7405 409.8799,737.1105" fill="none" id="abrirRecompensas-to-RECOMPENSA_ABIERTA" style="stroke:#008000;stroke-width:1;"/><polygon fill="#008000" points="414.58,740.84,410.0161,732.1124,410.6632,737.7321,405.0435,738.3792,414.58,740.84" style="stroke:#008000;stroke-width:1;"/><path d="M382,680 L382,706 L514,706 L514,690 L504,680 L382,680" fill="#FEFFDD" style="stroke:#181818;stroke-width:0.5;"/><path d="M504,680 L504,690 L514,690 L504,680" fill="#FEFFDD" style="stroke:#181818;stroke-width:0.5;"/><text fill="#000000" font-family="sans-serif" font-size="13" lengthAdjust="spacing" textLength="111.2617" x="388" y="698.4951">abrirRecompensa()</text></g><!--link abrirRecompensas to RECOMPENSA_ABIERTA--><g class="link" data-entity-1="ent0004" data-entity-2="ent0011" data-link-type="dependency" data-source-line="53" id="lnk13"><path d="M517.34,645.05 C520.81,663.43 523,675 523,675 C523,675 523,711 523,711 C523,711 505.5942,723.0562 484.8242,737.4262" fill="none" id="abrirRecompensas-to-RECOMPENSA_ABIERTA-1" style="stroke:#008000;stroke-width:1;"/><polygon fill="#008000" points="479.89,740.84,489.5671,739.0088,484.0018,737.9952,485.0154,732.4299,479.89,740.84" style="stroke:#008000;stroke-width:1;"/><path d="M528,680 L528,706 L663,706 L663,690 L653,680 L528,680" fill="#FEFFDD" style="stroke:#181818;stroke-width:0.5;"/><path d="M653,680 L653,690 L663,690 L653,680" fill="#FEFFDD" style="stroke:#181818;stroke-width:0.5;"/><text fill="#000000" font-family="sans-serif" font-size="13" lengthAdjust="spacing" textLength="114.8735" x="534" y="698.4951">crearRecompensa()</text></g><!--link abrirRecompensas to PANEL_PRINCIPAL_ABIERTO--><g class="link" data-entity-1="ent0004" data-entity-2="ent0014" data-link-type="dependency" data-source-line="58" id="lnk15"><path d="M639.5,622.84 C675.64,670.63 705.22,709.7551 724.89,735.7551" fill="none" id="abrirRecompensas-to-PANEL_PRINCIPAL_ABIERTO" style="stroke:#008000;stroke-width:1;"/><polygon fill="#008000" points="728.51,740.54,726.27,730.9493,725.4933,736.5525,719.8901,735.7759,728.51,740.54" style="stroke:#008000;stroke-width:1;"/><path d="M705,680 L705,706 L843,706 L843,690 L833,680 L705,680" fill="#FEFFDD" style="stroke:#181818;stroke-width:0.5;"/><path d="M833,680 L833,690 L843,690 L833,680" fill="#FEFFDD" style="stroke:#181818;stroke-width:0.5;"/><text fill="#000000" font-family="sans-serif" font-size="13" lengthAdjust="spacing" textLength="117.7681" x="711" y="698.4951">abrirPanelPrincipal()</text></g><?plantuml-src fPJHIiCm58RlynIXtgWmn5tA6DHIOT1jfTtT69ArGSBIav3KYo62p-8h-0Y-YKzYqgthqdOmPtkLd7F-x_mdJVM6WIIA59WpeELMKYm5tze5Ghea9SKCxZ7Hs4l2O3wDmrdgF_kFap1P-1woiS7owaLH2gl169ErOYgXcIWa1Kqq0c4K15Zr3Mf5hsyGXHpRb8Orh5YnFmkZvpYPp899x4TxuDm2XvS3TG-ndLBXktKUVaC8csTNvPdN94w5BXM1N4JCxEUYc_74k9jHfInlLuwBNXt7YTqOhSU142fdO5BKw6uznbfmbh6Ix6nWTJG8Mz6OjQisnMcXq-Yf5b8JfmMfy59HJS7W-LunfvqUVZu-yO99SLW414gMaxnNaAg26MRjIpqSojeE3u5CKT89kCxRvXpdvZ3-FkzN85Z8Z7r_WJ7Dwm6ux7U4Ef-WWswkL5hVgTJzWgFUmUAYEah3QtoU2Qevvz_CVmbNXtE9y8a_G4_RCG7AOyKWOvBmOy8l?></g></svg>