<svg xmlns="http://www.w3.org/2000/svg" xmlns:xlink="http://www.w3.org/1999/xlink" contentStyleType="text/css" height="846px" preserveAspectRatio="none" style="width:1594px;height:846px;background:#FFFFFF;" version="1.1" viewBox="0 0 1594 846" width="1594px" zoomAndPan="magnify"><title>Diagrama de secuencia - Abrir solicitud de eliminaci&#243;n de perfil</title><defs/><g><text fill="#000000" font-family="sans-serif" font-size="14" font-weight="bold" lengthAdjust="spacing" textLength="422.4541" x="587.1035" y="29.5332">Diagrama de secuencia - Abrir solicitud de eliminaci&#243;n de perfil</text><rect fill="#FFFFFF" height="600.5156" style="stroke:#181818;stroke-width:1;" width="10" x="417.8491" y="153.5703"/><rect fill="#FFFFFF" height="314.8672" style="stroke:#181818;stroke-width:1;" width="10" x="696.0815" y="243.625"/><rect fill="#FFFFFF" height="55.7031" style="stroke:#181818;stroke-width:1;" width="10" x="970.833" y="273.9766"/><rect fill="#FFFFFF" height="151.7578" style="stroke:#181818;stroke-width:1;" width="10" x="1078.8672" y="360.0313"/><rect fill="#FFFFFF" height="30.3516" style="stroke:#181818;stroke-width:1;" width="10" x="1258.0952" y="451.0859"/><rect fill="none" height="458.1094" style="stroke:#000000;stroke-width:1.5;" width="1577.6611" x="10" y="288.9766"/><line style="stroke:#181818;stroke-width:0.5;stroke-dasharray:5.0,5.0;" x1="61" x2="61" y1="121.2188" y2="764.0859"/><line style="stroke:#181818;stroke-width:0.5;stroke-dasharray:5.0,5.0;" x1="422.5117" x2="422.5117" y1="121.2188" y2="764.0859"/><line style="stroke:#181818;stroke-width:0.5;stroke-dasharray:5.0,5.0;" x1="700.5371" x2="700.5371" y1="121.2188" y2="764.0859"/><line style="stroke:#181818;stroke-width:0.5;stroke-dasharray:5.0,5.0;" x1="975.0884" x2="975.0884" y1="121.2188" y2="764.0859"/><line style="stroke:#181818;stroke-width:0.5;stroke-dasharray:5.0,5.0;" x1="1083.5776" x2="1083.5776" y1="121.2188" y2="764.0859"/><line style="stroke:#181818;stroke-width:0.5;stroke-dasharray:5.0,5.0;" x1="1262.437" x2="1262.437" y1="121.2188" y2="764.0859"/><line style="stroke:#181818;stroke-width:0.5;stroke-dasharray:5.0,5.0;" x1="1527.8271" x2="1527.8271" y1="121.2188" y2="764.0859"/><text fill="#000000" font-family="sans-serif" font-size="14" lengthAdjust="spacing" textLength="77.0479" x="20" y="118.1426">Coordinador</text><ellipse cx="61.5239" cy="52.1094" fill="#E2E2F0" rx="8" ry="8" style="stroke:#181818;stroke-width:0.5;"/><path d="M61.5239,60.1094 L61.5239,87.1094 M48.5239,68.1094 L74.5239,68.1094 M61.5239,87.1094 L48.5239,102.1094 M61.5239,87.1094 L74.5239,102.1094 " fill="none" style="stroke:#181818;stroke-width:0.5;"/><text fill="#000000" font-family="sans-serif" font-size="14" lengthAdjust="spacing" textLength="77.0479" x="20" y="777.6191">Coordinador</text><ellipse cx="61.5239" cy="789.1953" fill="#E2E2F0" rx="8" ry="8" style="stroke:#181818;stroke-width:0.5;"/><path d="M61.5239,797.1953 L61.5239,824.1953 M48.5239,805.1953 L74.5239,805.1953 M61.5239,824.1953 L48.5239,839.1953 M61.5239,824.1953 L74.5239,839.1953 " fill="none" style="stroke:#181818;stroke-width:0.5;"/><rect fill="#E2E2F0" height="49.2188" rx="2.5" ry="2.5" style="stroke:#181818;stroke-width:0.5;" width="246.6748" x="299.5117" y="71"/><text fill="#000000" font-family="sans-serif" font-size="14" lengthAdjust="spacing" textLength="232.6748" x="306.5117" y="92.5332">SolicitudEliminacionPerfilDetallePage</text><text fill="#000000" font-family="sans-serif" font-size="14" lengthAdjust="spacing" textLength="45.8965" x="399.9009" y="110.1426">(React)</text><rect fill="#E2E2F0" height="49.2188" rx="2.5" ry="2.5" style="stroke:#181818;stroke-width:0.5;" width="246.6748" x="299.5117" y="763.0859"/><text fill="#000000" font-family="sans-serif" font-size="14" lengthAdjust="spacing" textLength="232.6748" x="306.5117" y="784.6191">SolicitudEliminacionPerfilDetallePage</text><text fill="#000000" font-family="sans-serif" font-size="14" lengthAdjust="spacing" textLength="45.8965" x="399.9009" y="802.2285">(React)</text><rect fill="#E2E2F0" height="49.2188" rx="2.5" ry="2.5" style="stroke:#181818;stroke-width:0.5;" width="231.0889" x="585.5371" y="71"/><text fill="#000000" font-family="sans-serif" font-size="14" lengthAdjust="spacing" textLength="217.0889" x="592.5371" y="92.5332">SolicitudEliminacionPerfilController</text><text fill="#000000" font-family="sans-serif" font-size="14" lengthAdjust="spacing" textLength="82.4824" x="659.8403" y="110.1426">(Spring Boot)</text><rect fill="#E2E2F0" height="49.2188" rx="2.5" ry="2.5" style="stroke:#181818;stroke-width:0.5;" width="231.0889" x="585.5371" y="763.0859"/><text fill="#000000" font-family="sans-serif" font-size="14" lengthAdjust="spacing" textLength="217.0889" x="592.5371" y="784.6191">SolicitudEliminacionPerfilController</text><text fill="#000000" font-family="sans-serif" font-size="14" lengthAdjust="spacing" textLength="82.4824" x="659.8403" y="802.2285">(Spring Boot)</text><rect fill="#E2E2F0" height="31.6094" rx="2.5" ry="2.5" style="stroke:#181818;stroke-width:0.5;" width="103.4893" x="924.0884" y="88.6094"/><text fill="#000000" font-family="sans-serif" font-size="14" lengthAdjust="spacing" textLength="89.4893" x="931.0884" y="110.1426">SesionService</text><rect fill="#E2E2F0" height="31.6094" rx="2.5" ry="2.5" style="stroke:#181818;stroke-width:0.5;" width="103.4893" x="924.0884" y="763.0859"/><text fill="#000000" font-family="sans-serif" font-size="14" lengthAdjust="spacing" textLength="89.4893" x="931.0884" y="784.6191">SesionService</text><rect fill="#E2E2F0" height="31.6094" rx="2.5" ry="2.5" style="stroke:#181818;stroke-width:0.5;" width="92.5791" x="1037.5776" y="88.6094"/><text fill="#000000" font-family="sans-serif" font-size="14" lengthAdjust="spacing" textLength="78.5791" x="1044.5776" y="110.1426">PerfilService</text><rect fill="#E2E2F0" height="31.6094" rx="2.5" ry="2.5" style="stroke:#181818;stroke-width:0.5;" width="92.5791" x="1037.5776" y="763.0859"/><text fill="#000000" font-family="sans-serif" font-size="14" lengthAdjust="spacing" textLength="78.5791" x="1044.5776" y="784.6191">PerfilService</text><rect fill="#E2E2F0" height="31.6094" rx="2.5" ry="2.5" style="stroke:#181818;stroke-width:0.5;" width="237.3164" x="1144.437" y="88.6094"/><text fill="#000000" font-family="sans-serif" font-size="14" lengthAdjust="spacing" textLength="223.3164" x="1151.437" y="110.1426">SolicitudEliminacionPerfilRepository</text><rect fill="#E2E2F0" height="31.6094" rx="2.5" ry="2.5" style="stroke:#181818;stroke-width:0.5;" width="237.3164" x="1144.437" y="763.0859"/><text fill="#000000" font-family="sans-serif" font-size="14" lengthAdjust="spacing" textLength="223.3164" x="1151.437" y="784.6191">SolicitudEliminacionPerfilRepository</text><text fill="#000000" font-family="sans-serif" font-size="14" lengthAdjust="spacing" textLength="91.834" x="1479.8271" y="118.1426">Base de Datos</text><path d="M1510.7441,67.6094 C1510.7441,57.6094 1528.7441,57.6094 1528.7441,57.6094 C1528.7441,57.6094 1546.7441,57.6094 1546.7441,67.6094 L1546.7441,93.6094 C1546.7441,103.6094 1528.7441,103.6094 1528.7441,103.6094 C1528.7441,103.6094 1510.7441,103.6094 1510.7441,93.6094 L1510.7441,67.6094 " fill="#E2E2F0" style="stroke:#181818;stroke-width:1.5;"/><path d="M1510.7441,67.6094 C1510.7441,77.6094 1528.7441,77.6094 1528.7441,77.6094 C1528.7441,77.6094 1546.7441,77.6094 1546.7441,67.6094 " fill="none" style="stroke:#181818;stroke-width:1.5;"/><text fill="#000000" font-family="sans-serif" font-size="14" lengthAdjust="spacing" textLength="91.834" x="1479.8271" y="777.6191">Base de Datos</text><path d="M1510.7441,790.6953 C1510.7441,780.6953 1528.7441,780.6953 1528.7441,780.6953 C1528.7441,780.6953 1546.7441,780.6953 1546.7441,790.6953 L1546.7441,816.6953 C1546.7441,826.6953 1528.7441,826.6953 1528.7441,826.6953 C1528.7441,826.6953 1510.7441,826.6953 1510.7441,816.6953 L1510.7441,790.6953 " fill="#E2E2F0" style="stroke:#181818;stroke-width:1.5;"/><path d="M1510.7441,790.6953 C1510.7441,800.6953 1528.7441,800.6953 1528.7441,800.6953 C1528.7441,800.6953 1546.7441,800.6953 1546.7441,790.6953 " fill="none" style="stroke:#181818;stroke-width:1.5;"/><rect fill="#FFFFFF" height="600.5156" style="stroke:#181818;stroke-width:1;" width="10" x="417.8491" y="153.5703"/><rect fill="#FFFFFF" height="314.8672" style="stroke:#181818;stroke-width:1;" width="10" x="696.0815" y="243.625"/><rect fill="#FFFFFF" height="55.7031" style="stroke:#181818;stroke-width:1;" width="10" x="970.833" y="273.9766"/><rect fill="#FFFFFF" height="151.7578" style="stroke:#181818;stroke-width:1;" width="10" x="1078.8672" y="360.0313"/><rect fill="#FFFFFF" height="30.3516" style="stroke:#181818;stroke-width:1;" width="10" x="1258.0952" y="451.0859"/><polygon fill="#181818" points="405.8491,149.5703,415.8491,153.5703,405.8491,157.5703,409.8491,153.5703" style="stroke:#181818;stroke-width:1;"/><line style="stroke:#181818;stroke-width:1;" x1="61.5239" x2="411.8491" y1="153.5703" y2="153.5703"/><text fill="#000000" font-family="sans-serif" font-size="13" lengthAdjust="spacing" textLength="200.8906" x="68.5239" y="148.7139">Selecciona solicitud de eliminaci&#243;n</text><line style="stroke:#181818;stroke-width:1;" x1="427.8491" x2="469.8491" y1="183.9219" y2="183.9219"/><line style="stroke:#181818;stroke-width:1;" x1="469.8491" x2="469.8491" y1="183.9219" y2="196.9219"/><line style="stroke:#181818;stroke-width:1;" x1="428.8491" x2="469.8491" y1="196.9219" y2="196.9219"/><polygon fill="#181818" points="438.8491,192.9219,428.8491,196.9219,438.8491,200.9219,434.8491,196.9219" style="stroke:#181818;stroke-width:1;"/><text fill="#000000" font-family="sans-serif" font-size="13" lengthAdjust="spacing" textLength="136.5635" x="434.8491" y="179.0654">Comprobar sesi&#243;n local</text><polygon fill="#181818" points="684.0815,239.625,694.0815,243.625,684.0815,247.625,688.0815,243.625" style="stroke:#181818;stroke-width:1;"/><line style="stroke:#181818;stroke-width:1;" x1="427.8491" x2="690.0815" y1="243.625" y2="243.625"/><text fill="#000000" font-family="sans-serif" font-size="13" lengthAdjust="spacing" textLength="239.8843" x="434.8491" y="222.417">GET /api/solicitudes-eliminacion-perfil/{id}</text><text fill="#000000" font-family="sans-serif" font-size="13" lengthAdjust="spacing" textLength="99.728" x="434.8491" y="238.7686">Cookie de sesi&#243;n</text><polygon fill="#181818" points="958.833,269.9766,968.833,273.9766,958.833,277.9766,962.833,273.9766" style="stroke:#181818;stroke-width:1;"/><line style="stroke:#181818;stroke-width:1;" x1="706.0815" x2="964.833" y1="273.9766" y2="273.9766"/><text fill="#000000" font-family="sans-serif" font-size="13" lengthAdjust="spacing" textLength="209.5806" x="713.0815" y="269.1201">obtenerSesionActual(authentication)</text><path d="M10,288.9766 L70.1709,288.9766 L70.1709,297.3281 L60.1709,307.3281 L10,307.3281 L10,288.9766 " fill="#EEEEEE" style="stroke:#000000;stroke-width:1.5;"/><rect fill="none" height="458.1094" style="stroke:#000000;stroke-width:1.5;" width="1577.6611" x="10" y="288.9766"/><text fill="#000000" font-family="sans-serif" font-size="13" font-weight="bold" lengthAdjust="spacing" textLength="15.1709" x="25" y="303.4717">alt</text><text fill="#000000" font-family="sans-serif" font-size="11" font-weight="bold" lengthAdjust="spacing" textLength="162.583" x="85.1709" y="302.3955">[Sesi&#243;n de Coordinador activa]</text><polygon fill="#181818" points="717.0815,325.6797,707.0815,329.6797,717.0815,333.6797,713.0815,329.6797" style="stroke:#181818;stroke-width:1;"/><line style="stroke:#181818;stroke-width:1;stroke-dasharray:2.0,2.0;" x1="711.0815" x2="974.833" y1="329.6797" y2="329.6797"/><text fill="#000000" font-family="sans-serif" font-size="13" lengthAdjust="spacing" textLength="98.2871" x="723.0815" y="324.8232">SesionResponse</text><polygon fill="#181818" points="1066.8672,356.0313,1076.8672,360.0313,1066.8672,364.0313,1070.8672,360.0313" style="stroke:#181818;stroke-width:1;"/><line style="stroke:#181818;stroke-width:1;" x1="706.0815" x2="1072.8672" y1="360.0313" y2="360.0313"/><text fill="#000000" font-family="sans-serif" font-size="13" lengthAdjust="spacing" textLength="112.0044" x="713.0815" y="355.1748">obtenerSolicitud(id)</text><polygon fill="#181818" points="1251.0952,386.3828,1261.0952,390.3828,1251.0952,394.3828,1255.0952,390.3828" style="stroke:#181818;stroke-width:1;"/><line style="stroke:#181818;stroke-width:1;" x1="1088.8672" x2="1257.0952" y1="390.3828" y2="390.3828"/><text fill="#000000" font-family="sans-serif" font-size="13" lengthAdjust="spacing" textLength="65.749" x="1095.8672" y="385.5264">findById(id)</text><polygon fill="#181818" points="1516.7441,416.7344,1526.7441,420.7344,1516.7441,424.7344,1520.7441,420.7344" style="stroke:#181818;stroke-width:1;"/><line style="stroke:#181818;stroke-width:1;" x1="1263.0952" x2="1522.7441" y1="420.7344" y2="420.7344"/><text fill="#000000" font-family="sans-serif" font-size="13" lengthAdjust="spacing" textLength="241.6489" x="1270.0952" y="415.8779">SELECT * FROM usuarios WHERE id = ?</text><polygon fill="#181818" points="1279.0952,447.0859,1269.0952,451.0859,1279.0952,455.0859,1275.0952,451.0859" style="stroke:#181818;stroke-width:1;"/><line style="stroke:#181818;stroke-width:1;stroke-dasharray:2.0,2.0;" x1="1273.0952" x2="1527.7441" y1="451.0859" y2="451.0859"/><text fill="#000000" font-family="sans-serif" font-size="13" lengthAdjust="spacing" textLength="149.5889" x="1285.0952" y="446.2295">Resultado de persistencia</text><polygon fill="#181818" points="1099.8672,477.4375,1089.8672,481.4375,1099.8672,485.4375,1095.8672,481.4375" style="stroke:#181818;stroke-width:1;"/><line style="stroke:#181818;stroke-width:1;stroke-dasharray:2.0,2.0;" x1="1093.8672" x2="1262.0952" y1="481.4375" y2="481.4375"/><text fill="#000000" font-family="sans-serif" font-size="13" lengthAdjust="spacing" textLength="145.228" x="1105.8672" y="476.5811">SolicitudEliminacionPerfil</text><polygon fill="#181818" points="717.0815,507.7891,707.0815,511.7891,717.0815,515.7891,713.0815,511.7891" style="stroke:#181818;stroke-width:1;"/><line style="stroke:#181818;stroke-width:1;stroke-dasharray:2.0,2.0;" x1="711.0815" x2="1082.8672" y1="511.7891" y2="511.7891"/><text fill="#000000" font-family="sans-serif" font-size="13" lengthAdjust="spacing" textLength="244.2324" x="723.0815" y="506.9326">SolicitudEliminacionPerfilDetalleResponse</text><polygon fill="#181818" points="438.8491,554.4922,428.8491,558.4922,438.8491,562.4922,434.8491,558.4922" style="stroke:#181818;stroke-width:1;"/><line style="stroke:#181818;stroke-width:1;stroke-dasharray:2.0,2.0;" x1="432.8491" x2="700.0815" y1="558.4922" y2="558.4922"/><text fill="#000000" font-family="sans-serif" font-size="13" lengthAdjust="spacing" textLength="44.0845" x="444.8491" y="537.2842">200 OK</text><text fill="#000000" font-family="sans-serif" font-size="13" lengthAdjust="spacing" textLength="244.2324" x="444.8491" y="553.6357">SolicitudEliminacionPerfilDetalleResponse</text><line style="stroke:#181818;stroke-width:1;" x1="427.8491" x2="469.8491" y1="588.8438" y2="588.8438"/><line style="stroke:#181818;stroke-width:1;" x1="469.8491" x2="469.8491" y1="588.8438" y2="601.8438"/><line style="stroke:#181818;stroke-width:1;" x1="428.8491" x2="469.8491" y1="601.8438" y2="601.8438"/><polygon fill="#181818" points="438.8491,597.8438,428.8491,601.8438,438.8491,605.8438,434.8491,601.8438" style="stroke:#181818;stroke-width:1;"/><text fill="#000000" font-family="sans-serif" font-size="13" lengthAdjust="spacing" textLength="174.1543" x="434.8491" y="583.9873">Renderizar detalle de solicitud</text><polygon fill="#181818" points="72.5239,628.1953,62.5239,632.1953,72.5239,636.1953,68.5239,632.1953" style="stroke:#181818;stroke-width:1;"/><line style="stroke:#181818;stroke-width:1;stroke-dasharray:2.0,2.0;" x1="66.5239" x2="416.8491" y1="632.1953" y2="632.1953"/><text fill="#000000" font-family="sans-serif" font-size="13" lengthAdjust="spacing" textLength="332.3252" x="78.5239" y="627.3389">Presenta SOLICITUD_ELIMINACION_PERFIL_ABIERTA</text><line style="stroke:#000000;stroke-width:1;stroke-dasharray:2.0,2.0;" x1="10" x2="1587.6611" y1="641.1953" y2="641.1953"/><text fill="#000000" font-family="sans-serif" font-size="11" font-weight="bold" lengthAdjust="spacing" textLength="231.0269" x="15" y="652.6143">[Solicitud no encontrada o sesi&#243;n no v&#225;lida]</text><polygon fill="#181818" points="712.0815,674.3828,702.0815,678.3828,712.0815,682.3828,708.0815,678.3828" style="stroke:#181818;stroke-width:1;"/><line style="stroke:#181818;stroke-width:1;stroke-dasharray:2.0,2.0;" x1="706.0815" x2="974.833" y1="678.3828" y2="678.3828"/><text fill="#000000" font-family="sans-serif" font-size="13" lengthAdjust="spacing" textLength="250.7515" x="718.0815" y="673.5264">SesionNoValidaException / error de acceso</text><polygon fill="#181818" points="438.8491,704.7344,428.8491,708.7344,438.8491,712.7344,434.8491,708.7344" style="stroke:#181818;stroke-width:1;"/><line style="stroke:#181818;stroke-width:1;stroke-dasharray:2.0,2.0;" x1="432.8491" x2="700.0815" y1="708.7344" y2="708.7344"/><text fill="#000000" font-family="sans-serif" font-size="13" lengthAdjust="spacing" textLength="199.4688" x="444.8491" y="703.8779">401 Unauthorized / 404 Not Found</text><polygon fill="#181818" points="72.5239,735.0859,62.5239,739.0859,72.5239,743.0859,68.5239,739.0859" style="stroke:#181818;stroke-width:1;"/><line style="stroke:#181818;stroke-width:1;stroke-dasharray:2.0,2.0;" x1="66.5239" x2="416.8491" y1="739.0859" y2="739.0859"/><text fill="#000000" font-family="sans-serif" font-size="13" lengthAdjust="spacing" textLength="153.1943" x="78.5239" y="734.2295">Presenta error de consulta</text><!--SRC=[dLHTRjf047xtAKPvIYeXQ9KdfBR2sBHM2I13sfT8qU2TfAiwkzRkEkgFUfYUeKV8nJfhOumfbAX8MDxnp3SptpUpJhgS899uR_01GH1OoafIcKJemMXjf06hSvb9Lmh_cNBv81LcykctykU2p9tCWm0pfmsCjJQ2FmjjWWADuxW2bOEpPOCHD_5QBQhGY1pcEItmdcxKUKeCT746Q65Yj7Aan7E1nknkD4CPnbaMHgfx2BNUe8qAkGT4baENP1vbHfLBRUbwrT0ThwQ0ZV6vvQLKQ2kPf6zTcDOU27IuHajm5ledinkXqxRoZy8Ws64NUc-s10svyfmodmgFY-KLae_eg2MsUUc2ZVL3OVGQMNWcnCkSwmppZZUpEOHtyGhwMCZ-DYVP7hLzz-hPwF-GukUDukA_IAedp7OByjhmtmFN6Wn1hpaLcVeuobo9-JcMxZCfvXeT6o_Q-8rmcBlgTJEPkspLhW7mhtQ6NjD5VKx95bfPgbm4xKDxQrFXdlvjhSs7SoakgeWMPNzcgaBsZ1tmTYg6S2UL2BybBUu1BnySXTnDF8t7AtW1atH-1QKjqKXjuTFxE8r12dWDRok8AAmOE9YFkIXpnxnjzjjAwweRuKXJEnDyjBg3n1rVbhzaE9Lho-5MrbCNpb753sbLQT_PabU30Sm_tAZ_pkE7tfiEBs7AJpBoEs-Xg76gpMcIxKLowCwq3s5XoFAc82pdqsIShAwZstYQN2MpqJYPpsuNSJf9fhUZC8dJrIYWtEwq3Ke3g-qlKnG8UdiBiFtnwLSknR_sQAO_edU9lsPK-3M5Ff0nshV1evEHrQTMhCF3vU0bN2k_-PhP8C5mbuDBc6a74rqgSPhLeznio-9Ugu4F_9suWzLW_040]--></g></svg>