<?xml version="1.0" encoding="us-ascii" standalone="no"?><svg xmlns="http://www.w3.org/2000/svg" xmlns:xlink="http://www.w3.org/1999/xlink" contentStyleType="text/css" height="846px" preserveAspectRatio="none" style="width:1713px;height:846px;background:#FFFFFF;" version="1.1" viewBox="0 0 1713 846" width="1713px" zoomAndPan="magnify"><defs/><g><text fill="#000000" font-family="sans-serif" font-size="14" font-weight="bold" lengthAdjust="spacing" textLength="443" x="636" y="29.5332">Diagrama de secuencia - Abrir solicitud de eliminaci&#243;n de perfil</text><rect fill="#FFFFFF" height="600.5156" style="stroke:#181818;stroke-width:1.0;" width="10" x="411.5" y="153.5703"/><rect fill="#FFFFFF" height="314.8672" style="stroke:#181818;stroke-width:1.0;" width="10" x="689.5" y="243.625"/><rect fill="#FFFFFF" height="55.7031" style="stroke:#181818;stroke-width:1.0;" width="10" x="965.5" y="273.9766"/><rect fill="#FFFFFF" height="151.7578" style="stroke:#181818;stroke-width:1.0;" width="10" x="1136" y="360.0313"/><rect fill="#FFFFFF" height="30.3516" style="stroke:#181818;stroke-width:1.0;" width="10" x="1373.5" y="451.0859"/><rect fill="none" height="458.1094" style="stroke:#000000;stroke-width:1.5;" width="1696" x="10" y="288.9766"/><line style="stroke:#181818;stroke-width:0.5;stroke-dasharray:5.0,5.0;" x1="62" x2="62" y1="121.2188" y2="764.0859"/><line style="stroke:#181818;stroke-width:0.5;stroke-dasharray:5.0,5.0;" x1="416" x2="416" y1="121.2188" y2="764.0859"/><line style="stroke:#181818;stroke-width:0.5;stroke-dasharray:5.0,5.0;" x1="694.5" x2="694.5" y1="121.2188" y2="764.0859"/><line style="stroke:#181818;stroke-width:0.5;stroke-dasharray:5.0,5.0;" x1="970.5" x2="970.5" y1="121.2188" y2="764.0859"/><line style="stroke:#181818;stroke-width:0.5;stroke-dasharray:5.0,5.0;" x1="1140.5" x2="1140.5" y1="121.2188" y2="764.0859"/><line style="stroke:#181818;stroke-width:0.5;stroke-dasharray:5.0,5.0;" x1="1378.5" x2="1378.5" y1="121.2188" y2="764.0859"/><line style="stroke:#181818;stroke-width:0.5;stroke-dasharray:5.0,5.0;" x1="1646" x2="1646" y1="121.2188" y2="764.0859"/><text fill="#000000" font-family="sans-serif" font-size="14" lengthAdjust="spacing" textLength="79" x="20" y="118.1426">Coordinador</text><ellipse cx="62.5" cy="52.1094" fill="#E2E2F0" rx="8" ry="8" style="stroke:#181818;stroke-width:0.5;"/><path d="M62.5,60.1094 L62.5,87.1094 M49.5,68.1094 L75.5,68.1094 M62.5,87.1094 L49.5,102.1094 M62.5,87.1094 L75.5,102.1094 " fill="none" style="stroke:#181818;stroke-width:0.5;"/><text fill="#000000" font-family="sans-serif" font-size="14" lengthAdjust="spacing" textLength="79" x="20" y="777.6191">Coordinador</text><ellipse cx="62.5" cy="789.1953" fill="#E2E2F0" rx="8" ry="8" style="stroke:#181818;stroke-width:0.5;"/><path d="M62.5,797.1953 L62.5,824.1953 M49.5,805.1953 L75.5,805.1953 M62.5,824.1953 L49.5,839.1953 M62.5,824.1953 L75.5,839.1953 " fill="none" style="stroke:#181818;stroke-width:0.5;"/><rect fill="#E2E2F0" height="49.2188" rx="2.5" ry="2.5" style="stroke:#181818;stroke-width:0.5;" width="247" x="293" y="71"/><text fill="#000000" font-family="sans-serif" font-size="14" lengthAdjust="spacing" textLength="233" x="300" y="92.5332">SolicitudEliminacionPerfilDetallePage</text><text fill="#000000" font-family="sans-serif" font-size="14" lengthAdjust="spacing" textLength="47" x="393" y="110.1426">(React)</text><rect fill="#E2E2F0" height="49.2188" rx="2.5" ry="2.5" style="stroke:#181818;stroke-width:0.5;" width="247" x="293" y="763.0859"/><text fill="#000000" font-family="sans-serif" font-size="14" lengthAdjust="spacing" textLength="233" x="300" y="784.6191">SolicitudEliminacionPerfilDetallePage</text><text fill="#000000" font-family="sans-serif" font-size="14" lengthAdjust="spacing" textLength="47" x="393" y="802.2285">(React)</text><rect fill="#E2E2F0" height="49.2188" rx="2.5" ry="2.5" style="stroke:#181818;stroke-width:0.5;" width="232" x="578.5" y="71"/><text fill="#000000" font-family="sans-serif" font-size="14" lengthAdjust="spacing" textLength="218" x="585.5" y="92.5332">SolicitudEliminacionPerfilController</text><text fill="#000000" font-family="sans-serif" font-size="14" lengthAdjust="spacing" textLength="84" x="652.5" y="110.1426">(Spring Boot)</text><rect fill="#E2E2F0" height="49.2188" rx="2.5" ry="2.5" style="stroke:#181818;stroke-width:0.5;" width="232" x="578.5" y="763.0859"/><text fill="#000000" font-family="sans-serif" font-size="14" lengthAdjust="spacing" textLength="218" x="585.5" y="784.6191">SolicitudEliminacionPerfilController</text><text fill="#000000" font-family="sans-serif" font-size="14" lengthAdjust="spacing" textLength="84" x="652.5" y="802.2285">(Spring Boot)</text><rect fill="#E2E2F0" height="31.6094" rx="2.5" ry="2.5" style="stroke:#181818;stroke-width:0.5;" width="104" x="918.5" y="88.6094"/><text fill="#000000" font-family="sans-serif" font-size="14" lengthAdjust="spacing" textLength="90" x="925.5" y="110.1426">SesionService</text><rect fill="#E2E2F0" height="31.6094" rx="2.5" ry="2.5" style="stroke:#181818;stroke-width:0.5;" width="104" x="918.5" y="763.0859"/><text fill="#000000" font-family="sans-serif" font-size="14" lengthAdjust="spacing" textLength="90" x="925.5" y="784.6191">SesionService</text><rect fill="#E2E2F0" height="31.6094" rx="2.5" ry="2.5" style="stroke:#181818;stroke-width:0.5;" width="217" x="1032.5" y="88.6094"/><text fill="#000000" font-family="sans-serif" font-size="14" lengthAdjust="spacing" textLength="203" x="1039.5" y="110.1426">SolicitudEliminacionPerfilService</text><rect fill="#E2E2F0" height="31.6094" rx="2.5" ry="2.5" style="stroke:#181818;stroke-width:0.5;" width="217" x="1032.5" y="763.0859"/><text fill="#000000" font-family="sans-serif" font-size="14" lengthAdjust="spacing" textLength="203" x="1039.5" y="784.6191">SolicitudEliminacionPerfilService</text><rect fill="#E2E2F0" height="31.6094" rx="2.5" ry="2.5" style="stroke:#181818;stroke-width:0.5;" width="238" x="1259.5" y="88.6094"/><text fill="#000000" font-family="sans-serif" font-size="14" lengthAdjust="spacing" textLength="224" x="1266.5" y="110.1426">SolicitudEliminacionPerfilRepository</text><rect fill="#E2E2F0" height="31.6094" rx="2.5" ry="2.5" style="stroke:#181818;stroke-width:0.5;" width="238" x="1259.5" y="763.0859"/><text fill="#000000" font-family="sans-serif" font-size="14" lengthAdjust="spacing" textLength="224" x="1266.5" y="784.6191">SolicitudEliminacionPerfilRepository</text><text fill="#000000" font-family="sans-serif" font-size="14" lengthAdjust="spacing" textLength="93" x="1597" y="118.1426">Base de Datos</text><path d="M1628.5,67.6094 C1628.5,57.6094 1646.5,57.6094 1646.5,57.6094 C1646.5,57.6094 1664.5,57.6094 1664.5,67.6094 L1664.5,93.6094 C1664.5,103.6094 1646.5,103.6094 1646.5,103.6094 C1646.5,103.6094 1628.5,103.6094 1628.5,93.6094 L1628.5,67.6094 " fill="#E2E2F0" style="stroke:#181818;stroke-width:1.5;"/><path d="M1628.5,67.6094 C1628.5,77.6094 1646.5,77.6094 1646.5,77.6094 C1646.5,77.6094 1664.5,77.6094 1664.5,67.6094 " fill="none" style="stroke:#181818;stroke-width:1.5;"/><text fill="#000000" font-family="sans-serif" font-size="14" lengthAdjust="spacing" textLength="93" x="1597" y="777.6191">Base de Datos</text><path d="M1628.5,790.6953 C1628.5,780.6953 1646.5,780.6953 1646.5,780.6953 C1646.5,780.6953 1664.5,780.6953 1664.5,790.6953 L1664.5,816.6953 C1664.5,826.6953 1646.5,826.6953 1646.5,826.6953 C1646.5,826.6953 1628.5,826.6953 1628.5,816.6953 L1628.5,790.6953 " fill="#E2E2F0" style="stroke:#181818;stroke-width:1.5;"/><path d="M1628.5,790.6953 C1628.5,800.6953 1646.5,800.6953 1646.5,800.6953 C1646.5,800.6953 1664.5,800.6953 1664.5,790.6953 " fill="none" style="stroke:#181818;stroke-width:1.5;"/><rect fill="#FFFFFF" height="600.5156" style="stroke:#181818;stroke-width:1.0;" width="10" x="411.5" y="153.5703"/><rect fill="#FFFFFF" height="314.8672" style="stroke:#181818;stroke-width:1.0;" width="10" x="689.5" y="243.625"/><rect fill="#FFFFFF" height="55.7031" style="stroke:#181818;stroke-width:1.0;" width="10" x="965.5" y="273.9766"/><rect fill="#FFFFFF" height="151.7578" style="stroke:#181818;stroke-width:1.0;" width="10" x="1136" y="360.0313"/><rect fill="#FFFFFF" height="30.3516" style="stroke:#181818;stroke-width:1.0;" width="10" x="1373.5" y="451.0859"/><polygon fill="#181818" points="399.5,149.5703,409.5,153.5703,399.5,157.5703,403.5,153.5703" style="stroke:#181818;stroke-width:1.0;"/><line style="stroke:#181818;stroke-width:1.0;" x1="62.5" x2="405.5" y1="153.5703" y2="153.5703"/><text fill="#000000" font-family="sans-serif" font-size="13" lengthAdjust="spacing" textLength="203" x="69.5" y="148.7139">Selecciona solicitud de eliminaci&#243;n</text><line style="stroke:#181818;stroke-width:1.0;" x1="421.5" x2="463.5" y1="183.9219" y2="183.9219"/><line style="stroke:#181818;stroke-width:1.0;" x1="463.5" x2="463.5" y1="183.9219" y2="196.9219"/><line style="stroke:#181818;stroke-width:1.0;" x1="422.5" x2="463.5" y1="196.9219" y2="196.9219"/><polygon fill="#181818" points="432.5,192.9219,422.5,196.9219,432.5,200.9219,428.5,196.9219" style="stroke:#181818;stroke-width:1.0;"/><text fill="#000000" font-family="sans-serif" font-size="13" lengthAdjust="spacing" textLength="136" x="428.5" y="179.0654">Comprobar sesi&#243;n local</text><polygon fill="#181818" points="677.5,239.625,687.5,243.625,677.5,247.625,681.5,243.625" style="stroke:#181818;stroke-width:1.0;"/><line style="stroke:#181818;stroke-width:1.0;" x1="421.5" x2="683.5" y1="243.625" y2="243.625"/><text fill="#000000" font-family="sans-serif" font-size="13" lengthAdjust="spacing" textLength="239" x="428.5" y="222.417">GET /api/solicitudes-eliminacion-perfil/{id}</text><text fill="#000000" font-family="sans-serif" font-size="13" lengthAdjust="spacing" textLength="100" x="428.5" y="238.7686">Cookie de sesi&#243;n</text><polygon fill="#181818" points="953.5,269.9766,963.5,273.9766,953.5,277.9766,957.5,273.9766" style="stroke:#181818;stroke-width:1.0;"/><line style="stroke:#181818;stroke-width:1.0;" x1="699.5" x2="959.5" y1="273.9766" y2="273.9766"/><text fill="#000000" font-family="sans-serif" font-size="13" lengthAdjust="spacing" textLength="209" x="706.5" y="269.1201">obtenerSesionActual(authentication)</text><path d="M10,288.9766 L71,288.9766 L71,297.3281 L61,307.3281 L10,307.3281 L10,288.9766 " fill="#EEEEEE" style="stroke:#000000;stroke-width:1.5;"/><rect fill="none" height="458.1094" style="stroke:#000000;stroke-width:1.5;" width="1696" x="10" y="288.9766"/><text fill="#000000" font-family="sans-serif" font-size="13" font-weight="bold" lengthAdjust="spacing" textLength="16" x="25" y="303.4717">alt</text><text fill="#000000" font-family="sans-serif" font-size="11" font-weight="bold" lengthAdjust="spacing" textLength="169" x="86" y="302.3955">[Sesi&#243;n de Coordinador activa]</text><polygon fill="#181818" points="710.5,325.6797,700.5,329.6797,710.5,333.6797,706.5,329.6797" style="stroke:#181818;stroke-width:1.0;"/><line style="stroke:#181818;stroke-width:1.0;stroke-dasharray:2.0,2.0;" x1="704.5" x2="969.5" y1="329.6797" y2="329.6797"/><text fill="#000000" font-family="sans-serif" font-size="13" lengthAdjust="spacing" textLength="202" x="716.5" y="324.8232">SesionResponse(COORDINADOR)</text><polygon fill="#181818" points="1124,356.0313,1134,360.0313,1124,364.0313,1128,360.0313" style="stroke:#181818;stroke-width:1.0;"/><line style="stroke:#181818;stroke-width:1.0;" x1="699.5" x2="1130" y1="360.0313" y2="360.0313"/><text fill="#000000" font-family="sans-serif" font-size="13" lengthAdjust="spacing" textLength="111" x="706.5" y="355.1748">obtenerSolicitud(id)</text><polygon fill="#181818" points="1366.5,386.3828,1376.5,390.3828,1366.5,394.3828,1370.5,390.3828" style="stroke:#181818;stroke-width:1.0;"/><line style="stroke:#181818;stroke-width:1.0;" x1="1146" x2="1372.5" y1="390.3828" y2="390.3828"/><text fill="#000000" font-family="sans-serif" font-size="13" lengthAdjust="spacing" textLength="91" x="1153" y="385.5264">obtenerPorId(id)</text><polygon fill="#181818" points="1634.5,416.7344,1644.5,420.7344,1634.5,424.7344,1638.5,420.7344" style="stroke:#181818;stroke-width:1.0;"/><line style="stroke:#181818;stroke-width:1.0;" x1="1378.5" x2="1640.5" y1="420.7344" y2="420.7344"/><text fill="#000000" font-family="sans-serif" font-size="13" lengthAdjust="spacing" textLength="244" x="1385.5" y="415.8779">SELECT * FROM usuarios WHERE id = ?</text><polygon fill="#181818" points="1394.5,447.0859,1384.5,451.0859,1394.5,455.0859,1390.5,451.0859" style="stroke:#181818;stroke-width:1.0;"/><line style="stroke:#181818;stroke-width:1.0;stroke-dasharray:2.0,2.0;" x1="1388.5" x2="1645.5" y1="451.0859" y2="451.0859"/><text fill="#000000" font-family="sans-serif" font-size="13" lengthAdjust="spacing" textLength="150" x="1400.5" y="446.2295">Resultado de persistencia</text><polygon fill="#181818" points="1157,477.4375,1147,481.4375,1157,485.4375,1153,481.4375" style="stroke:#181818;stroke-width:1.0;"/><line style="stroke:#181818;stroke-width:1.0;stroke-dasharray:2.0,2.0;" x1="1151" x2="1377.5" y1="481.4375" y2="481.4375"/><text fill="#000000" font-family="sans-serif" font-size="13" lengthAdjust="spacing" textLength="146" x="1163" y="476.5811">SolicitudEliminacionPerfil</text><polygon fill="#181818" points="710.5,507.7891,700.5,511.7891,710.5,515.7891,706.5,511.7891" style="stroke:#181818;stroke-width:1.0;"/><line style="stroke:#181818;stroke-width:1.0;stroke-dasharray:2.0,2.0;" x1="704.5" x2="1140" y1="511.7891" y2="511.7891"/><text fill="#000000" font-family="sans-serif" font-size="13" lengthAdjust="spacing" textLength="244" x="716.5" y="506.9326">SolicitudEliminacionPerfilDetalleResponse</text><polygon fill="#181818" points="432.5,554.4922,422.5,558.4922,432.5,562.4922,428.5,558.4922" style="stroke:#181818;stroke-width:1.0;"/><line style="stroke:#181818;stroke-width:1.0;stroke-dasharray:2.0,2.0;" x1="426.5" x2="693.5" y1="558.4922" y2="558.4922"/><text fill="#000000" font-family="sans-serif" font-size="13" lengthAdjust="spacing" textLength="44" x="438.5" y="537.2842">200 OK</text><text fill="#000000" font-family="sans-serif" font-size="13" lengthAdjust="spacing" textLength="244" x="438.5" y="553.6357">SolicitudEliminacionPerfilDetalleResponse</text><line style="stroke:#181818;stroke-width:1.0;" x1="421.5" x2="463.5" y1="588.8438" y2="588.8438"/><line style="stroke:#181818;stroke-width:1.0;" x1="463.5" x2="463.5" y1="588.8438" y2="601.8438"/><line style="stroke:#181818;stroke-width:1.0;" x1="422.5" x2="463.5" y1="601.8438" y2="601.8438"/><polygon fill="#181818" points="432.5,597.8438,422.5,601.8438,432.5,605.8438,428.5,601.8438" style="stroke:#181818;stroke-width:1.0;"/><text fill="#000000" font-family="sans-serif" font-size="13" lengthAdjust="spacing" textLength="174" x="428.5" y="583.9873">Renderizar detalle de solicitud</text><polygon fill="#181818" points="73.5,628.1953,63.5,632.1953,73.5,636.1953,69.5,632.1953" style="stroke:#181818;stroke-width:1.0;"/><line style="stroke:#181818;stroke-width:1.0;stroke-dasharray:2.0,2.0;" x1="67.5" x2="410.5" y1="632.1953" y2="632.1953"/><text fill="#000000" font-family="sans-serif" font-size="13" lengthAdjust="spacing" textLength="325" x="79.5" y="627.3389">Presenta SOLICITUD_ELIMINACION_PERFIL_ABIERTA</text><line style="stroke:#000000;stroke-width:1.0;stroke-dasharray:2.0,2.0;" x1="10" x2="1706" y1="641.1953" y2="641.1953"/><text fill="#000000" font-family="sans-serif" font-size="11" font-weight="bold" lengthAdjust="spacing" textLength="239" x="15" y="652.6143">[Solicitud no encontrada o sesi&#243;n no v&#225;lida]</text><polygon fill="#181818" points="705.5,674.3828,695.5,678.3828,705.5,682.3828,701.5,678.3828" style="stroke:#181818;stroke-width:1.0;"/><line style="stroke:#181818;stroke-width:1.0;stroke-dasharray:2.0,2.0;" x1="699.5" x2="969.5" y1="678.3828" y2="678.3828"/><text fill="#000000" font-family="sans-serif" font-size="13" lengthAdjust="spacing" textLength="252" x="711.5" y="673.5264">SesionNoValidaException / error de acceso</text><polygon fill="#181818" points="432.5,704.7344,422.5,708.7344,432.5,712.7344,428.5,708.7344" style="stroke:#181818;stroke-width:1.0;"/><line style="stroke:#181818;stroke-width:1.0;stroke-dasharray:2.0,2.0;" x1="426.5" x2="693.5" y1="708.7344" y2="708.7344"/><text fill="#000000" font-family="sans-serif" font-size="13" lengthAdjust="spacing" textLength="198" x="438.5" y="703.8779">401 Unauthorized / 404 Not Found</text><polygon fill="#181818" points="73.5,735.0859,63.5,739.0859,73.5,743.0859,69.5,739.0859" style="stroke:#181818;stroke-width:1.0;"/><line style="stroke:#181818;stroke-width:1.0;stroke-dasharray:2.0,2.0;" x1="67.5" x2="410.5" y1="739.0859" y2="739.0859"/><text fill="#000000" font-family="sans-serif" font-size="13" lengthAdjust="spacing" textLength="153" x="79.5" y="734.2295">Presenta error de consulta</text><!--SRC=[dLHTZjf037xFAQnzOYiXQBLFI6q59BHHAQ30jYyhhKp6tOwQdObc9gl-g8Vf6Ng4lLWz2I49XR8g4b76iJ-FFt-saouZ22NU6Rn740IMqe9KAX7wCDuQQS3gJARI5S9_fapUIuMfVFoj_3adyqbcGO2fqmQcMXl1duKsGOx6SLoEoi75kiQ8wdYjLcLeI0wpZ5PuHpUgbn03NLu0MfWPhHmfyLIWARiRpL26STQvaUeE9bhlqCQvF00Yow5hCWyofTAbiZmrNIUozjePdugHKAwjPEA-TM4QUo3GuHOjmSN4Fvdn49ssfNyu2O8Muz1_jITjnDLabFfKUBg1lclo0HqrPDSlNR2fli-DtYABWKdohSzqYbd7cnaUmPje0mFCvM2VasoVchhxbLu6FwJuUQFuybyaLQgptGlvVl7V0rTz6O7USYeorN6SkWAp7XRkCodc6XqRBvluNJCnS-NhJgrjjYhN0FXNEKE_hg8w9sHphIprfijb4iQBSRXCBaj_GOTvlBM-xe4OcelN7tfIL3WDog60obiT63lWZKJs-2jjuWRxYAS722TSNZIFfXju1hDa-HuAMw2HsiB7jr4IWHJm4bwN4E6afEHeJYQdo1mJkLi2LbfNheqJXRKaVV9sHyaxFJr_jU9ShZsF-pwVsqgr14wcQlUhx7zdR5uCXx1yTwF-Eu-V0cywFfK9Fyd8xpoMei8fHwbETX39eItvZs1boFBe8AoNytWQRwx3ssWUlsUTJ-FbudOL9RDuVZkUn56o6GUKsLRPe3Hmj_t6HO6Wzsk1xG-Flp8f_ZLO2_q1lKlqDQNSpoqCW8pHlWoMJafMdnkp3WzNm-TmhVmgqCm62OQx6bx1GZkOwKA9ywoUv6P_BQwr57pWbsGBgyRu0m00]--></g></svg>