<svg xmlns="http://www.w3.org/2000/svg" xmlns:xlink="http://www.w3.org/1999/xlink" contentStyleType="text/css" data-diagram-type="STATE" height="666px" preserveAspectRatio="none" style="width:467px;height:666px;background:#FFFFFF;" version="1.1" viewBox="0 0 467 666" width="467px" zoomAndPan="magnify"><?plantuml 1.2026.3?><defs/><g><g class="entity" data-qualified-name="in2" id="ent0002"><rect fill="#F1F1F1" height="50" rx="12.5" ry="12.5" style="stroke:#181818;stroke-width:0.5;" width="205.9375" x="113.5" y="7"/><line style="stroke:#181818;stroke-width:0.5;" x1="113.5" x2="319.4375" y1="34.6094" y2="34.6094"/><text fill="#000000" font-family="sans-serif" font-size="14" lengthAdjust="spacing" textLength="185.9375" x="123.5" y="26.5332">RECOMPENSAS_ABIERTAS</text></g><path d="M45,153 L388,153 A12.5,12.5 0 0 1 400.5,165.5 L400.5,180.6094 L32.5,180.6094 L32.5,165.5 A12.5,12.5 0 0 1 45,153" fill="#F1F1F1"/><rect fill="none" height="352.6094" rx="12.5" ry="12.5" style="stroke:#181818;stroke-width:0.5;" width="368" x="32.5" y="153"/><line style="stroke:#181818;stroke-width:0.5;" x1="32.5" x2="400.5" y1="180.6094" y2="180.6094"/><text fill="#000000" font-family="sans-serif" font-size="14" lengthAdjust="spacing" textLength="119.8203" x="156.5898" y="172.5332">abrirRecompensa()</text><g class="entity" data-qualified-name="abrirRecompensa.MostrandoRecompensa" id="ent0004"><rect fill="#F1F1F1" height="50" rx="12.5" ry="12.5" style="stroke:#181818;stroke-width:0.5;" width="50" x="44.5" y="283.6094"/><line style="stroke:#181818;stroke-width:0.5;" x1="44.5" x2="94.5" y1="311.2188" y2="311.2188"/><text fill="#000000" font-family="sans-serif" font-size="14" lengthAdjust="spacing" textLength="3.8896" x="67.5552" y="303.1426">&#160;</text></g><g class="start_entity" data-qualified-name="abrirRecompensa..start.abrirRecompensa" data-source-line="14" id="ent0003"><ellipse cx="69.5" cy="201.6094" fill="#222222" rx="10" ry="10" style="stroke:#222222;stroke-width:1;"/></g><g class="end_entity" data-qualified-name="abrirRecompensa..end.abrirRecompensa" data-source-line="19" id="ent0005"><ellipse cx="69.5" cy="481.6094" fill="none" rx="11" ry="11" style="stroke:#222222;stroke-width:1;"/><ellipse cx="69.5" cy="481.6094" fill="#222222" rx="6" ry="6" style="stroke:#222222;stroke-width:1;"/></g><!--link *start*abrirRecompensa to MostrandoRecompensa--><g class="link" data-entity-1="ent0003" data-entity-2="ent0004" data-link-type="dependency" data-source-line="14" id="lnk4"><path d="M69.5,211.9294 C69.5,227.7894 69.5,254.5194 69.5,277.2494" fill="none" id="*start*abrirRecompensa-to-MostrandoRecompensa" style="stroke:#008000;stroke-width:1;"/><polygon fill="#008000" points="69.5,283.2494,73.5,274.2494,69.5,278.2494,65.5,274.2494,69.5,283.2494" style="stroke:#008000;stroke-width:1;"/><path d="M74.5,234.6094 L74.5,260.6094 L345.5,260.6094 L345.5,244.6094 L335.5,234.6094 L74.5,234.6094" fill="#FEFFDD" style="stroke:#181818;stroke-width:0.5;"/><path d="M335.5,234.6094 L335.5,244.6094 L345.5,244.6094 L335.5,234.6094" fill="#FEFFDD" style="stroke:#181818;stroke-width:0.5;"/><text fill="#000000" font-family="sans-serif" font-size="13" font-weight="700" lengthAdjust="spacing" textLength="77.2954" x="80.5" y="253.1045">Investigador</text><text fill="#000000" font-family="sans-serif" font-size="13" lengthAdjust="spacing" textLength="169.8062" x="161.4072" y="253.1045">solicita abrir una recompensa</text></g><!--link MostrandoRecompensa to *end*abrirRecompensa--><g class="link" data-entity-1="ent0004" data-entity-2="ent0005" data-link-type="dependency" data-source-line="19" id="lnk6"><path d="M69.5,333.7494 C69.5,371.6794 69.5,437.6594 69.5,464.3294" fill="none" id="MostrandoRecompensa-to-*end*abrirRecompensa" style="stroke:#008000;stroke-width:1;"/><polygon fill="#008000" points="69.5,470.3294,73.5,461.3294,69.5,465.3294,65.5,461.3294,69.5,470.3294" style="stroke:#008000;stroke-width:1;"/><path d="M74.5,356.6094 L74.5,447.6094 L376.5,447.6094 L376.5,366.6094 L366.5,356.6094 L74.5,356.6094" fill="#FEFFDD" style="stroke:#181818;stroke-width:0.5;"/><path d="M366.5,356.6094 L366.5,366.6094 L376.5,366.6094 L366.5,356.6094" fill="#FEFFDD" style="stroke:#181818;stroke-width:0.5;"/><text fill="#000000" font-family="sans-serif" font-size="13" font-weight="700" lengthAdjust="spacing" textLength="49.8608" x="80.5" y="375.1045">Sistema</text><text fill="#000000" font-family="sans-serif" font-size="13" lengthAdjust="spacing" textLength="228.3506" x="133.9727" y="375.1045">presenta informaci&#243;n de la recompensa</text><text fill="#000000" font-family="sans-serif" font-size="13" lengthAdjust="spacing" textLength="34.1821" x="80.5" y="391.4561">&#8226; Tipo</text><text fill="#000000" font-family="sans-serif" font-size="13" lengthAdjust="spacing" textLength="60.9312" x="80.5" y="407.8076">&#8226; Cantidad</text><text fill="#000000" font-family="sans-serif" font-size="13" lengthAdjust="spacing" textLength="3.6118" x="80.5" y="424.1592">&#160;</text><text fill="#000000" font-family="sans-serif" font-size="13" lengthAdjust="spacing" textLength="3.6118" x="80.5" y="440.5107">&#160;</text></g><g class="entity" data-qualified-name="RECOMPENSA_ABIERTA" id="ent0007"><rect fill="#F1F1F1" height="50" rx="12.5" ry="12.5" style="stroke:#181818;stroke-width:0.5;" width="187.2617" x="7" y="602"/><line style="stroke:#181818;stroke-width:0.5;" x1="7" x2="194.2617" y1="629.6094" y2="629.6094"/><text fill="#000000" font-family="sans-serif" font-size="14" lengthAdjust="spacing" textLength="167.2617" x="17" y="621.5332">RECOMPENSA_ABIERTA</text></g><g class="entity" data-qualified-name="RECOMPENSAS_ABIERTAS" id="ent0009"><rect fill="#F1F1F1" height="50" rx="12.5" ry="12.5" style="stroke:#181818;stroke-width:0.5;" width="205.9375" x="229.5" y="602"/><line style="stroke:#181818;stroke-width:0.5;" x1="229.5" x2="435.4375" y1="629.6094" y2="629.6094"/><text fill="#000000" font-family="sans-serif" font-size="14" lengthAdjust="spacing" textLength="185.9375" x="239.5" y="621.5332">RECOMPENSAS_ABIERTAS</text></g><!--link in2 to abrirRecompensa--><g class="link" data-entity-1="ent0002" data-entity-2="ent0003" data-link-type="dependency" data-source-line="5" id="lnk2"><path d="M216.5,57.18 C216.5,79.51 216.5,108.87 216.5,146.79" fill="none" id="in2-to-abrirRecompensa" style="stroke:#008000;stroke-width:1;"/><polygon fill="#008000" points="216.5,152.79,220.5,143.79,216.5,147.79,212.5,143.79,216.5,152.79" style="stroke:#008000;stroke-width:1;"/><path d="M221.5,92 L221.5,118 L353.5,118 L353.5,102 L343.5,92 L221.5,92" fill="#FEFFDD" style="stroke:#181818;stroke-width:0.5;"/><path d="M343.5,92 L343.5,102 L353.5,102 L343.5,92" fill="#FEFFDD" style="stroke:#181818;stroke-width:0.5;"/><text fill="#000000" font-family="sans-serif" font-size="13" lengthAdjust="spacing" textLength="111.2617" x="227.5" y="110.4951">abrirRecompensa()</text></g><!--link abrirRecompensa to RECOMPENSA_ABIERTA--><g class="link" data-entity-1="ent0003" data-entity-2="ent0007" data-link-type="dependency" data-source-line="30" id="lnk8"><path d="M147.51,506.23 C132.63,544.16 120.9312,573.9444 112.1712,596.2744" fill="none" id="abrirRecompensa-to-RECOMPENSA_ABIERTA" style="stroke:#008000;stroke-width:1;"/><polygon fill="#008000" points="109.98,601.86,116.9905,594.9424,111.806,597.2054,109.5431,592.0208,109.98,601.86" style="stroke:#008000;stroke-width:1;"/><path d="M140.5,541 L140.5,567 L280.5,567 L280.5,551 L270.5,541 L140.5,541" fill="#FEFFDD" style="stroke:#181818;stroke-width:0.5;"/><path d="M270.5,541 L270.5,551 L280.5,551 L270.5,541" fill="#FEFFDD" style="stroke:#181818;stroke-width:0.5;"/><text fill="#000000" font-family="sans-serif" font-size="13" lengthAdjust="spacing" textLength="119.958" x="146.5" y="559.4951">Recompensa abierta</text></g><!--link abrirRecompensa to RECOMPENSAS_ABIERTAS--><g class="link" data-entity-1="ent0003" data-entity-2="ent0009" data-link-type="dependency" data-source-line="35" id="lnk10"><path d="M285.49,506.23 C300.37,544.16 312.0688,573.9444 320.8288,596.2744" fill="none" id="abrirRecompensa-to-RECOMPENSAS_ABIERTAS" style="stroke:#008000;stroke-width:1;"/><polygon fill="#008000" points="323.02,601.86,323.4569,592.0208,321.194,597.2054,316.0095,594.9424,323.02,601.86" style="stroke:#008000;stroke-width:1;"/><path d="M314.5,541 L314.5,567 L452.5,567 L452.5,551 L442.5,541 L314.5,541" fill="#FEFFDD" style="stroke:#181818;stroke-width:0.5;"/><path d="M442.5,541 L442.5,551 L452.5,551 L442.5,541" fill="#FEFFDD" style="stroke:#181818;stroke-width:0.5;"/><text fill="#000000" font-family="sans-serif" font-size="13" lengthAdjust="spacing" textLength="117.7617" x="320.5" y="559.4951">abrirRecompensas()</text></g><?plantuml-src ZLB1IWCn4BtdAuRrea8HF9U5MlRGGrMwlPKYizrf6RexMP8e517y5d_1J_1F_1AJBUqsRHKJ2CpCctallB5hbWODrb2naDiq18skDY5GoZfq12otW1QIIJPy63zcz_aWVnhSZRB9T90dAbHxiukL8P9vBmKi39i9BNJTa5XKelq8BM7yMXqLBwyKIGa1iYCxGhJ49rq9l2e5_cnx4dyzRgojCoYbFc1lKRFhUIJn733W8gaXqI_IaRoGTRp2Kfl-JP62rHKlsE5MAJmBWed7T5yAqHcoI8mNzojvpjPHZIrlOyYIU5wMfJOrBlZhKw0ag4u4VBz_m9GRlG-6A8vBBDj4z-o5lYbrR4saiND-Ptniww5V1PDnUE3h_mPtA_NdnjXePVpv0G00?></g></svg>