<svg xmlns="http://www.w3.org/2000/svg" xmlns:xlink="http://www.w3.org/1999/xlink" contentStyleType="text/css" data-diagram-type="STATE" height="954px" preserveAspectRatio="none" style="width:725px;height:954px;background:#FFFFFF;" version="1.1" viewBox="0 0 725 954" width="725px" zoomAndPan="magnify"><?plantuml 1.2026.4beta2?><defs/><g><g class="entity" data-qualified-name="in1" id="ent0002"><rect fill="#F1F1F1" height="50" rx="12.5" ry="12.5" style="stroke:#181818;stroke-width:0.5;" width="315.7568" x="202.31" y="7"/><line style="stroke:#181818;stroke-width:0.5;" x1="202.31" x2="518.0668" y1="33.2969" y2="33.2969"/><text fill="#000000" font-family="sans-serif" font-size="14" lengthAdjust="spacing" textLength="295.7568" x="212.31" y="24.9951">SOLICITUD_ELIMINACION_PERFIL_ABIERTA</text></g><path d="M22.69,118 L697.69,118 A12.5,12.5 0 0 1 710.19,130.5 L710.19,144.2969 L10.19,144.2969 L10.19,130.5 A12.5,12.5 0 0 1 22.69,118" fill="#F1F1F1"/><rect fill="none" height="677.2969" rx="12.5" ry="12.5" style="stroke:#181818;stroke-width:0.5;" width="700" x="10.19" y="118"/><line style="stroke:#181818;stroke-width:0.5;" x1="10.19" x2="710.19" y1="144.2969" y2="144.2969"/><text fill="#000000" font-family="sans-serif" font-size="14" lengthAdjust="spacing" textLength="103.5713" x="308.4044" y="135.9951">eliminarPerfil()</text><g class="entity" data-qualified-name="eliminarPerfil.MostrandoSolicitud" id="ent0004"><rect fill="#F1F1F1" height="50" rx="12.5" ry="12.5" style="stroke:#181818;stroke-width:0.5;" width="50" x="189.19" y="261.2969"/><line style="stroke:#181818;stroke-width:0.5;" x1="189.19" x2="239.19" y1="287.5938" y2="287.5938"/><text fill="#000000" font-family="sans-serif" font-size="14" lengthAdjust="spacing" textLength="4.4502" x="211.9649" y="279.292">&#160;</text></g><g class="entity" data-qualified-name="eliminarPerfil.ConfirmandoEliminacion" id="ent0005"><rect fill="#F1F1F1" height="50" rx="12.5" ry="12.5" style="stroke:#181818;stroke-width:0.5;" width="50" x="189.19" y="624.2969"/><line style="stroke:#181818;stroke-width:0.5;" x1="189.19" x2="239.19" y1="650.5938" y2="650.5938"/><text fill="#000000" font-family="sans-serif" font-size="14" lengthAdjust="spacing" textLength="4.4502" x="211.9649" y="642.292">&#160;</text></g><g class="start_entity" data-qualified-name="eliminarPerfil..start.eliminarPerfil" data-source-line="12" id="ent0003"><ellipse cx="214.19" cy="165.2969" fill="#222222" rx="10" ry="10" style="stroke:#222222;stroke-width:1;"/></g><g class="end_entity" data-qualified-name="eliminarPerfil..end.eliminarPerfil" data-source-line="39" id="ent0006"><ellipse cx="214.19" cy="771.2969" fill="none" rx="11" ry="11" style="stroke:#222222;stroke-width:1;"/><ellipse cx="214.19" cy="771.2969" fill="#222222" rx="6" ry="6" style="stroke:#222222;stroke-width:1;"/></g><!--link *start*eliminarPerfil to MostrandoSolicitud--><g class="link" data-entity-1="ent0003" data-entity-2="ent0004" data-link-type="dependency" data-source-line="12" id="lnk4"><path d="M214.19,175.6369 C214.19,193.8269 214.19,228.5369 214.19,254.9069" fill="none" id="*start*eliminarPerfil-to-MostrandoSolicitud" style="stroke:#008000;stroke-width:1;"/><polygon fill="#008000" points="214.19,260.9069,218.19,251.9069,214.19,255.9069,210.19,251.9069,214.19,260.9069" style="stroke:#008000;stroke-width:1;"/><path d="M219.19,198.2969 L219.19,238.2969 L661.19,238.2969 L661.19,208.2969 L651.19,198.2969 L219.19,198.2969" fill="#FEFFDD" style="stroke:#181818;stroke-width:0.5;"/><path d="M651.19,198.2969 L651.19,208.2969 L661.19,208.2969 L651.19,198.2969" fill="#FEFFDD" style="stroke:#181818;stroke-width:0.5;"/><text fill="#000000" font-family="sans-serif" font-size="13" font-weight="700" lengthAdjust="spacing" textLength="90.251" x="225.19" y="215.3638">Coordinador</text><text fill="#000000" font-family="sans-serif" font-size="13" lengthAdjust="spacing" textLength="327.3994" x="319.5733" y="215.3638">tiene una solicitud de eliminaci&#243;n de perfil abierta</text><text fill="#000000" font-family="sans-serif" font-size="13" font-weight="700" lengthAdjust="spacing" textLength="90.251" x="225.19" y="230.4966">Coordinador</text><text fill="#000000" font-family="sans-serif" font-size="13" lengthAdjust="spacing" textLength="156.2222" x="319.5733" y="230.4966">solicita eliminar el perfil</text></g><!--link MostrandoSolicitud to ConfirmandoEliminacion--><g class="link" data-entity-1="ent0004" data-entity-2="ent0005" data-link-type="dependency" data-source-line="18" id="lnk5"><path d="M188.96,292.7869 C136.64,304.1769 21.19,329.2969 21.19,329.2969 C21.19,329.2969 21.19,606.2969 21.19,606.2969 C21.19,606.2969 130.7773,630.1406 183.0973,641.5306" fill="none" id="MostrandoSolicitud-to-ConfirmandoEliminacion" style="stroke:#008000;stroke-width:1;"/><polygon fill="#008000" points="188.96,642.8069,181.0168,636.984,184.0744,641.7433,179.3151,644.8009,188.96,642.8069" style="stroke:#008000;stroke-width:1;"/><path d="M26.19,334.2969 L26.19,601.2969 L381.19,601.2969 L381.19,344.2969 L371.19,334.2969 L26.19,334.2969" fill="#FEFFDD" style="stroke:#181818;stroke-width:0.5;"/><path d="M371.19,334.2969 L371.19,344.2969 L381.19,344.2969 L371.19,334.2969" fill="#FEFFDD" style="stroke:#181818;stroke-width:0.5;"/><text fill="#000000" font-family="sans-serif" font-size="13" font-weight="700" lengthAdjust="spacing" textLength="58.9063" x="32.19" y="351.3638">Sistema</text><text fill="#000000" font-family="sans-serif" font-size="13" lengthAdjust="spacing" textLength="219.2163" x="95.2286" y="351.3638">presenta los datos de la solicitud:</text><text fill="#000000" font-family="sans-serif" font-size="13" lengthAdjust="spacing" textLength="172.6563" x="32.19" y="366.4966">&#8226; Nombre del investigador</text><text fill="#000000" font-family="sans-serif" font-size="13" lengthAdjust="spacing" textLength="131.7075" x="32.19" y="381.6294">&#8226; Correo electr&#243;nico</text><text fill="#000000" font-family="sans-serif" font-size="13" lengthAdjust="spacing" textLength="129.4414" x="32.19" y="396.7622">&#8226; Fecha de solicitud</text><text fill="#000000" font-family="sans-serif" font-size="13" lengthAdjust="spacing" textLength="55.3262" x="32.19" y="411.895">&#8226; Motivo</text><text fill="#000000" font-family="sans-serif" font-size="13" lengthAdjust="spacing" textLength="4.1323" x="32.19" y="427.0278">&#160;</text><text fill="#000000" font-family="sans-serif" font-size="13" lengthAdjust="spacing" textLength="277.3418" x="32.19" y="442.1606">y presenta la confirmaci&#243;n de eliminaci&#243;n:</text><text fill="#000000" font-family="sans-serif" font-size="13" lengthAdjust="spacing" textLength="249.4312" x="32.19" y="457.2935">&#8226; &#191;Est&#225; seguro de eliminar este perfil?</text><text fill="#000000" font-family="sans-serif" font-size="13" lengthAdjust="spacing" textLength="324.6699" x="32.19" y="472.4263">&#8226; Advertencia: esta acci&#243;n no se puede deshacer.</text><text fill="#000000" font-family="sans-serif" font-size="13" lengthAdjust="spacing" textLength="4.1323" x="32.19" y="487.5591">&#160;</text><text fill="#000000" font-family="sans-serif" font-size="13" font-weight="700" lengthAdjust="spacing" textLength="95.3862" x="32.19" y="502.6919">Al confirmar:</text><text fill="#000000" font-family="sans-serif" font-size="13" lengthAdjust="spacing" textLength="334.3945" x="32.19" y="517.8247">&#8226; Se eliminar&#225; el perfil del investigador del sistema</text><text fill="#000000" font-family="sans-serif" font-size="13" lengthAdjust="spacing" textLength="315.9038" x="32.19" y="532.9575">&#8226; Se volver&#225; al listado de solicitudes actualizado</text><text fill="#000000" font-family="sans-serif" font-size="13" lengthAdjust="spacing" textLength="4.1323" x="32.19" y="548.0903">&#160;</text><text fill="#000000" font-family="sans-serif" font-size="13" lengthAdjust="spacing" textLength="276.5991" x="32.19" y="563.2231">y permite solicitar las siguientes acciones:</text><text fill="#000000" font-family="sans-serif" font-size="13" lengthAdjust="spacing" textLength="155.3652" x="32.19" y="578.356">&#8226; Confirmar eliminaci&#243;n</text><text fill="#000000" font-family="sans-serif" font-size="13" lengthAdjust="spacing" textLength="69.1514" x="32.19" y="593.4888">&#8226; Cancelar</text></g><!--link ConfirmandoEliminacion to *end*eliminarPerfil--><g class="link" data-entity-1="ent0005" data-entity-2="ent0006" data-link-type="dependency" data-source-line="39" id="lnk7"><path d="M214.19,674.5769 C214.19,700.7469 214.19,735.1469 214.19,753.9769" fill="none" id="ConfirmandoEliminacion-to-*end*eliminarPerfil" style="stroke:#008000;stroke-width:1;"/><polygon fill="#008000" points="214.19,759.9769,218.19,750.9769,214.19,754.9769,210.19,750.9769,214.19,759.9769" style="stroke:#008000;stroke-width:1;"/><path d="M219.19,697.2969 L219.19,737.2969 L594.19,737.2969 L594.19,707.2969 L584.19,697.2969 L219.19,697.2969" fill="#FEFFDD" style="stroke:#181818;stroke-width:0.5;"/><path d="M584.19,697.2969 L584.19,707.2969 L594.19,707.2969 L584.19,697.2969" fill="#FEFFDD" style="stroke:#181818;stroke-width:0.5;"/><text fill="#000000" font-family="sans-serif" font-size="13" font-weight="700" lengthAdjust="spacing" textLength="90.251" x="225.19" y="714.3638">Coordinador</text><text fill="#000000" font-family="sans-serif" font-size="13" lengthAdjust="spacing" textLength="191.5405" x="319.5733" y="714.3638">solicita confirmar eliminaci&#243;n</text><text fill="#000000" font-family="sans-serif" font-size="13" font-weight="700" lengthAdjust="spacing" textLength="58.9063" x="225.19" y="729.4966">Sistema</text><text fill="#000000" font-family="sans-serif" font-size="13" lengthAdjust="spacing" textLength="291.7891" x="288.2286" y="729.4966">visualiza el listado de solicitudes actualizado</text></g><!--link ConfirmandoEliminacion to MostrandoSolicitud--><g class="link" data-entity-1="ent0005" data-entity-2="ent0004" data-link-type="dependency" data-source-line="45" id="lnk8"><path d="M239.57,642.0969 C287.41,630.4169 386.19,606.2969 386.19,606.2969 C386.19,606.2969 386.19,329.2969 386.19,329.2969 C386.19,329.2969 293.2388,306.6 245.3988,294.92" fill="none" id="ConfirmandoEliminacion-to-MostrandoSolicitud" style="stroke:#FF0000;stroke-width:1;"/><polygon fill="#FF0000" points="239.57,293.4969,247.3645,299.5174,244.4273,294.6828,249.2619,291.7456,239.57,293.4969" style="stroke:#FF0000;stroke-width:1;"/><path d="M391.19,447.7969 L391.19,487.7969 L686.19,487.7969 L686.19,457.7969 L676.19,447.7969 L391.19,447.7969" fill="#FEFFDD" style="stroke:#181818;stroke-width:0.5;"/><path d="M676.19,447.7969 L676.19,457.7969 L686.19,457.7969 L676.19,447.7969" fill="#FEFFDD" style="stroke:#181818;stroke-width:0.5;"/><text fill="#000000" font-family="sans-serif" font-size="13" font-weight="700" lengthAdjust="spacing" textLength="90.251" x="397.19" y="464.8638">Coordinador</text><text fill="#000000" font-family="sans-serif" font-size="13" lengthAdjust="spacing" textLength="128.8638" x="491.5733" y="464.8638">cancela eliminaci&#243;n</text><text fill="#000000" font-family="sans-serif" font-size="13" font-weight="700" lengthAdjust="spacing" textLength="58.9063" x="397.19" y="479.9966">Sistema</text><text fill="#000000" font-family="sans-serif" font-size="13" lengthAdjust="spacing" textLength="211.6943" x="460.2286" y="479.9966">visualiza la solicitud sin cambios</text></g><g class="entity" data-qualified-name="SOLICITUDES_ELIMINACION_PERFIL_ABIERTAS" id="ent0009"><rect fill="#F1F1F1" height="50" rx="12.5" ry="12.5" style="stroke:#181818;stroke-width:0.5;" width="342.376" x="7" y="890.3"/><line style="stroke:#181818;stroke-width:0.5;" x1="7" x2="349.376" y1="916.5969" y2="916.5969"/><text fill="#000000" font-family="sans-serif" font-size="14" lengthAdjust="spacing" textLength="322.376" x="17" y="908.2951">SOLICITUDES_ELIMINACION_PERFIL_ABIERTAS</text></g><g class="entity" data-qualified-name="SOLICITUD_ELIMINACION_PERFIL_ABIERTA" id="ent0011"><rect fill="#F1F1F1" height="50" rx="12.5" ry="12.5" style="stroke:#181818;stroke-width:0.5;" width="315.7568" x="384.31" y="890.3"/><line style="stroke:#181818;stroke-width:0.5;" x1="384.31" x2="700.0668" y1="916.5969" y2="916.5969"/><text fill="#000000" font-family="sans-serif" font-size="14" lengthAdjust="spacing" textLength="295.7568" x="394.31" y="908.2951">SOLICITUD_ELIMINACION_PERFIL_ABIERTA</text></g><!--link in1 to eliminarPerfil--><g class="link" data-entity-1="ent0002" data-entity-2="ent0003" data-link-type="dependency" data-source-line="4" id="lnk2"><path d="M360.19,57.24 C360.19,72.15 360.19,87.09 360.19,111.65" fill="none" id="in1-to-eliminarPerfil" style="stroke:#008000;stroke-width:1;"/><polygon fill="#008000" points="360.19,117.65,364.19,108.65,360.19,112.65,356.19,108.65,360.19,117.65" style="stroke:#008000;stroke-width:1;"/></g><!--link eliminarPerfil to SOLICITUDES_ELIMINACION_PERFIL_ABIERTAS--><g class="link" data-entity-1="ent0003" data-entity-2="ent0009" data-link-type="dependency" data-source-line="52" id="lnk10"><path d="M225.53,795.51 C209.79,835 198.562,863.1966 190.062,884.5166" fill="none" id="eliminarPerfil-to-SOLICITUDES_ELIMINACION_PERFIL_ABIERTAS" style="stroke:#008000;stroke-width:1;"/><polygon fill="#008000" points="187.84,890.09,194.8886,883.2113,189.6917,885.4455,187.4575,880.2486,187.84,890.09" style="stroke:#008000;stroke-width:1;"/><path d="M218.19,830.3 L218.19,855.3 L458.19,855.3 L458.19,840.3 L448.19,830.3 L218.19,830.3" fill="#FEFFDD" style="stroke:#181818;stroke-width:0.5;"/><path d="M448.19,830.3 L448.19,840.3 L458.19,840.3 L448.19,830.3" fill="#FEFFDD" style="stroke:#181818;stroke-width:0.5;"/><text fill="#000000" font-family="sans-serif" font-size="13" lengthAdjust="spacing" textLength="219.064" x="224.19" y="847.3669">abrirSolicitudesEliminacionPerfil()</text></g><!--link eliminarPerfil to SOLICITUD_ELIMINACION_PERFIL_ABIERTA--><g class="link" data-entity-1="ent0003" data-entity-2="ent0011" data-link-type="dependency" data-source-line="57" id="lnk12"><path d="M494.84,795.51 C510.58,835 521.818,863.1966 530.318,884.5166" fill="none" id="eliminarPerfil-to-SOLICITUD_ELIMINACION_PERFIL_ABIERTA" style="stroke:#FF0000;stroke-width:1;"/><polygon fill="#FF0000" points="532.54,890.09,532.9225,880.2486,530.6883,885.4455,525.4914,883.2113,532.54,890.09" style="stroke:#FF0000;stroke-width:1;"/><path d="M524.19,830.3 L524.19,855.3 L690.19,855.3 L690.19,840.3 L680.19,830.3 L524.19,830.3" fill="#FEFFDD" style="stroke:#181818;stroke-width:0.5;"/><path d="M680.19,830.3 L680.19,840.3 L690.19,840.3 L680.19,830.3" fill="#FEFFDD" style="stroke:#181818;stroke-width:0.5;"/><text fill="#000000" font-family="sans-serif" font-size="13" lengthAdjust="spacing" textLength="145.2979" x="530.19" y="847.3669">Eliminaci&#243;n cancelada</text></g><?plantuml-src fPNHQjim58Rl_HGYkza6tTXjA1bPve8XIKlTNPKI5EaqFLIMZ2G7iZ7Ogsoli0SOh6-o9zcHxIXsquoK9H1YwPoZ__zq9Bjxr2Mtl60ADVXD2QmqQXCUaiHvxe6XViUuOuFyV9fDigjF7nVfD9jby_4aEvylBjBBisow67_8qikhyI09qIVNBrOMGD-SZ1WeB51pUm7s5bMoBTeVhkltXrw-6h0lISBeqsGCw4jXC-EyvLgQt2WKw2kv7pCn-XPj4QBIfgX0evjYrwzlUleErDE6oXaTgDpN0wVBqSGOAwcODFRqxNB4F886LcdEt3QNoMXDuCDF7PxBrk8ImNf-g5XRWaSozATDhLD0orfKus9VTS_K0G27ZENeF1Iyrb5QSA19XpAEIUx3Bp3LyJYiq_vy-y7cfbXQe7b5JR86vt4L_CJvYR4M31a1uItHG67Yt1c8EnvAknxtC3Kp7jUcCRhf2E9CjBuYsoxhdQxVlrBd7xup1wlAcauSGIMdBTRtCNuirxGre0NoOOZWZ8jc2Mse22ihaC6ck-C2x9jaossieY8x3FHYnNot9Ec8Exc7gXvm3VvkyjeeaaIfND5EaI9fUgp0aKHVSOMVQIgY0bkWZs5aLz5fSBYgg5DzdHFw0DomiqMj_XxAtJJN0XItJxJWqptMQqCwQqSVfjZ_uh2YHwswHjSG282FeFGS3nRaVzuEea7t31VTGqQxfgb4iKJZ-iA_9icZoxEBF5xIQVwFQpfFUWxuqgBDTzGwBBQNSR83jxzw2-kO5qH_uRHxLRR098zh_GK0?></g></svg>