<svg xmlns="http://www.w3.org/2000/svg" xmlns:xlink="http://www.w3.org/1999/xlink" contentStyleType="text/css" data-diagram-type="DESCRIPTION" height="442px" preserveAspectRatio="none" style="width:1725px;height:442px;background:#FFFFFF;" version="1.1" viewBox="0 0 1725 442" width="1725px" zoomAndPan="magnify"><?plantuml 1.2026.4?><defs/><g><!--cluster abrirMisPublicaciones--><g class="cluster" data-qualified-name="abrirMisPublicaciones" data-source-line="4" id="ent0002"><path d="M247,6 L405.9307,6 A3.75,3.75 0 0 1 408.4307,8.5 L415.4307,29.6094 L667,29.6094 A2.5,2.5 0 0 1 669.5,32.1094 L669.5,424.5 A2.5,2.5 0 0 1 667,427 L247,427 A2.5,2.5 0 0 1 244.5,424.5 L244.5,8.5 A2.5,2.5 0 0 1 247,6" fill="none" style="stroke:#000000;stroke-width:1.5;"/><line style="stroke:#000000;stroke-width:1.5;" x1="244.5" x2="415.4307" y1="29.6094" y2="29.6094"/><text fill="#000000" font-family="sans-serif" font-size="14" font-weight="700" lengthAdjust="spacing" textLength="157.9307" x="248.5" y="22.5332">abrirMisPublicaciones()</text></g><!--entity ListarPublicacionesView--><g class="entity" data-qualified-name="abrirMisPublicaciones.ListarPublicacionesView" data-source-line="5" id="ent0003"><rect fill="#629EF9" height="37.6094" rx="2.5" ry="2.5" style="stroke:#181818;stroke-width:0.5;" width="170.9648" x="482" y="42"/><text fill="#000000" font-family="sans-serif" font-size="14" lengthAdjust="spacing" textLength="150.9648" x="492" y="66.5332">ListarPublicacionesView</text></g><!--entity PublicacionController--><g class="entity" data-qualified-name="abrirMisPublicaciones.PublicacionController" data-source-line="6" id="ent0004"><rect fill="#B5BD68" height="37.6094" rx="2.5" ry="2.5" style="stroke:#181818;stroke-width:0.5;" width="152.2891" x="340.5" y="158"/><text fill="#000000" font-family="sans-serif" font-size="14" lengthAdjust="spacing" textLength="132.2891" x="350.5" y="182.5332">PublicacionController</text></g><!--entity PublicacionRepository--><g class="entity" data-qualified-name="abrirMisPublicaciones.PublicacionRepository" data-source-line="7" id="ent0005"><rect fill="#F2AC4E" height="37.6094" rx="2.5" ry="2.5" style="stroke:#181818;stroke-width:0.5;" width="158.5166" x="342" y="274"/><text fill="#000000" font-family="sans-serif" font-size="14" lengthAdjust="spacing" textLength="138.5166" x="352" y="298.5332">PublicacionRepository</text></g><!--entity Publicacion--><g class="entity" data-qualified-name="abrirMisPublicaciones.Publicacion" data-source-line="8" id="ent0006"><rect fill="#F2AC4E" height="37.6094" rx="2.5" ry="2.5" style="stroke:#181818;stroke-width:0.5;" width="91.5996" x="375.5" y="373"/><text fill="#000000" font-family="sans-serif" font-size="14" lengthAdjust="spacing" textLength="71.5996" x="385.5" y="397.5332">Publicacion</text></g><!--entity EstadoEntrada--><g class="entity" data-qualified-name="EstadoEntrada" data-source-line="3" id="ent0001"><rect fill="#CDEBA5" height="37.6094" rx="2.5" ry="2.5" style="stroke:#181818;stroke-width:0.5;" width="220.7373" x="7" y="42"/><text fill="#000000" font-family="sans-serif" font-size="14" lengthAdjust="spacing" textLength="200.7373" x="17" y="66.5332">:PANEL_PRINCIPAL_ABIERTO</text></g><!--entity EstadoSalida--><g class="entity" data-qualified-name="EstadoSalida" data-source-line="11" id="ent0007"><rect fill="#CDEBA5" height="37.6094" rx="2.5" ry="2.5" style="stroke:#181818;stroke-width:0.5;" width="247.1787" x="686" y="158"/><text fill="#000000" font-family="sans-serif" font-size="14" lengthAdjust="spacing" textLength="227.1787" x="696" y="182.5332">:MIS_PUBLICACIONES_ABIERTAS</text></g><!--entity AbrirMiPublicacion--><g class="entity" data-qualified-name="AbrirMiPublicacion" data-source-line="12" id="ent0008"><rect fill="#CDEBA5" height="37.6094" rx="2.5" ry="2.5" style="stroke:#181818;stroke-width:0.5;" width="226.2061" x="968.5" y="158"/><text fill="#000000" font-family="sans-serif" font-size="14" lengthAdjust="spacing" textLength="206.2061" x="978.5" y="182.5332">:Collaboration AbrirMiPublicacion</text></g><!--entity CrearPublicacion--><g class="entity" data-qualified-name="CrearPublicacion" data-source-line="13" id="ent0009"><rect fill="#CDEBA5" height="37.6094" rx="2.5" ry="2.5" style="stroke:#181818;stroke-width:0.5;" width="216.8818" x="1230" y="158"/><text fill="#000000" font-family="sans-serif" font-size="14" lengthAdjust="spacing" textLength="196.8818" x="1240" y="182.5332">:Collaboration CrearPublicacion</text></g><!--entity AbrirPanelPrincipal--><g class="entity" data-qualified-name="AbrirPanelPrincipal" data-source-line="14" id="ent0010"><rect fill="#CDEBA5" height="37.6094" rx="2.5" ry="2.5" style="stroke:#181818;stroke-width:0.5;" width="229.3301" x="1482" y="158"/><text fill="#000000" font-family="sans-serif" font-size="14" lengthAdjust="spacing" textLength="209.3301" x="1492" y="182.5332">:Collaboration AbrirPanelPrincipal</text></g><!--link EstadoEntrada to ListarPublicacionesView--><g class="link" data-entity-1="ent0001" data-entity-2="ent0003" data-link-type="dependency" data-source-line="16" id="lnk11"><path d="M228.16,61 C306.36,61 404.66,61 476.66,61" fill="none" id="EstadoEntrada-to-ListarPublicacionesView" style="stroke:#181818;stroke-width:1;"/><polygon fill="#181818" points="481.66,61,472.66,57,476.66,61,472.66,65,481.66,61" style="stroke:#181818;stroke-width:1;stroke-linejoin:miter;stroke-miterlimit:10;"/><text fill="#000000" font-family="sans-serif" font-size="13" lengthAdjust="spacing" textLength="135.0972" x="287.5" y="54.4951">abrirMisPublicaciones()</text></g><!--link ListarPublicacionesView to PublicacionController--><g class="link" data-entity-1="ent0003" data-entity-2="ent0004" data-link-type="dependency" data-source-line="18" id="lnk12"><path d="M481.73,79.67 C415.3,93.36 334.5,110 334.5,110 C334.5,110 334.5,128 334.5,128 C334.5,128 357.9647,141.7344 381.1847,155.3244" fill="none" id="ListarPublicacionesView-to-PublicacionController" style="stroke:#181818;stroke-width:1;"/><polygon fill="#181818" points="385.5,157.85,379.753,149.8517,381.1847,155.3244,375.7121,156.7561,385.5,157.85" style="stroke:#181818;stroke-width:1;stroke-linejoin:miter;stroke-miterlimit:10;"/><text fill="#000000" font-family="sans-serif" font-size="13" lengthAdjust="spacing" textLength="116.3208" x="335.5" y="124.4951">listarPublicaciones()</text></g><!--link ListarPublicacionesView to PublicacionController--><g class="link" data-entity-1="ent0003" data-entity-2="ent0004" data-link-type="dependency" data-source-line="19" id="lnk13"><path d="M543.57,80.06 C515.38,101.35 472.8003,133.4871 444.5503,154.8171" fill="none" id="ListarPublicacionesView-to-PublicacionController-1" style="stroke:#181818;stroke-width:1;"/><polygon fill="#181818" points="440.56,157.83,450.1529,155.5991,444.5503,154.8171,445.3323,149.2146,440.56,157.83" style="stroke:#181818;stroke-width:1;stroke-linejoin:miter;stroke-miterlimit:10;"/><text fill="#000000" font-family="sans-serif" font-size="13" lengthAdjust="spacing" textLength="156.7681" x="501.5" y="124.4951">filtrarPublicaciones(criterio)</text></g><!--link PublicacionController to PublicacionRepository--><g class="link" data-entity-1="ent0004" data-entity-2="ent0005" data-link-type="dependency" data-source-line="20" id="lnk14"><path d="M369.97,196.01 C334.79,209.63 292.5,226 292.5,226 C292.5,226 292.5,244 292.5,244 C292.5,244 331.8038,258.6266 368.4138,272.2466" fill="none" id="PublicacionController-to-PublicacionRepository" style="stroke:#181818;stroke-width:1;"/><polygon fill="#181818" points="373.1,273.99,366.0596,267.1029,368.4138,272.2466,363.2701,274.6008,373.1,273.99" style="stroke:#181818;stroke-width:1;stroke-linejoin:miter;stroke-miterlimit:10;"/><text fill="#000000" font-family="sans-serif" font-size="13" lengthAdjust="spacing" textLength="166.9243" x="293.5" y="240.4951">obtenerPropios(investigador)</text></g><!--link PublicacionController to PublicacionRepository--><g class="link" data-entity-1="ent0004" data-entity-2="ent0005" data-link-type="dependency" data-source-line="21" id="lnk15"><path d="M434.65,196.15 C448.24,209.74 464.5,226 464.5,226 C464.5,226 464.5,244 464.5,244 C464.5,244 453.2656,256.5352 441.0956,270.1252" fill="none" id="PublicacionController-to-PublicacionRepository-1" style="stroke:#181818;stroke-width:1;"/><polygon fill="#181818" points="437.76,273.85,446.7439,269.8139,441.0956,270.1252,440.7842,264.4769,437.76,273.85" style="stroke:#181818;stroke-width:1;stroke-linejoin:miter;stroke-miterlimit:10;"/><text fill="#000000" font-family="sans-serif" font-size="13" lengthAdjust="spacing" textLength="148.8081" x="465.5" y="240.4951">buscarPorCriterio(criterio)</text></g><!--link PublicacionRepository to Publicacion--><g class="link" data-entity-1="ent0005" data-entity-2="ent0006" data-link-type="association" data-source-line="22" id="lnk16"><path d="M421.5,312.24 C421.5,329.59 421.5,355.52 421.5,372.84" fill="none" id="PublicacionRepository-Publicacion" style="stroke:#181818;stroke-width:1;"/></g><!--link ListarPublicacionesView to EstadoSalida--><g class="link" data-entity-1="ent0003" data-entity-2="ent0007" data-link-type="dependency" data-source-line="23" id="lnk17"><path d="M605.85,80.06 C651.03,101.35 721.1369,134.3688 766.4069,155.6988" fill="none" id="ListarPublicacionesView-to-EstadoSalida" style="stroke:#181818;stroke-width:1;stroke-dasharray:7,7;"/><polygon fill="#181818" points="770.93,157.83,764.4934,150.3755,766.4069,155.6988,761.0835,157.6124,770.93,157.83" style="stroke:#181818;stroke-width:1;stroke-linejoin:miter;stroke-miterlimit:10;"/><text fill="#000000" font-family="sans-serif" font-size="13" lengthAdjust="spacing" textLength="130.7935" x="703.5" y="124.4951">continuarNavegacion()</text></g><!--link ListarPublicacionesView to AbrirMiPublicacion--><g class="link" data-entity-1="ent0003" data-entity-2="ent0008" data-link-type="dependency" data-source-line="24" id="lnk18"><path d="M653,76.92 C733.73,91.01 842.5,110 842.5,110 C842.5,110 940.6106,137.0885 1011.3706,156.6385" fill="none" id="ListarPublicacionesView-to-AbrirMiPublicacion" style="stroke:#181818;stroke-width:1;stroke-dasharray:7,7;"/><polygon fill="#181818" points="1016.19,157.97,1008.5802,151.7177,1011.3706,156.6385,1006.4498,159.4288,1016.19,157.97" style="stroke:#181818;stroke-width:1;stroke-linejoin:miter;stroke-miterlimit:10;"/><text fill="#000000" font-family="sans-serif" font-size="13" lengthAdjust="spacing" textLength="114.8672" x="907.5" y="124.4951">abrirMiPublicacion()</text></g><!--link ListarPublicacionesView to CrearPublicacion--><g class="link" data-entity-1="ent0003" data-entity-2="ent0009" data-link-type="dependency" data-source-line="25" id="lnk19"><path d="M653.23,70.89 C787.07,84.76 1030.5,110 1030.5,110 C1030.5,110 1158.2511,137.372 1249.4511,156.922" fill="none" id="ListarPublicacionesView-to-CrearPublicacion" style="stroke:#181818;stroke-width:1;stroke-dasharray:7,7;"/><polygon fill="#181818" points="1254.34,157.97,1246.3783,152.1724,1249.4511,156.922,1244.7015,159.9947,1254.34,157.97" style="stroke:#181818;stroke-width:1;stroke-linejoin:miter;stroke-miterlimit:10;"/><text fill="#000000" font-family="sans-serif" font-size="13" lengthAdjust="spacing" textLength="104.7617" x="1113.5" y="124.4951">crearPublicacion()</text></g><!--link ListarPublicacionesView to AbrirPanelPrincipal--><g class="link" data-entity-1="ent0003" data-entity-2="ent0010" data-link-type="dependency" data-source-line="26" id="lnk20"><path d="M653.31,68.25 C831.78,81.25 1226.5,110 1226.5,110 C1226.5,110 1380.9278,137.5416 1490.4778,157.0916" fill="none" id="ListarPublicacionesView-to-AbrirPanelPrincipal" style="stroke:#181818;stroke-width:1;stroke-dasharray:7,7;"/><polygon fill="#181818" points="1495.4,157.97,1487.2427,152.4511,1490.4778,157.0916,1485.8372,160.3267,1495.4,157.97" style="stroke:#181818;stroke-width:1;stroke-linejoin:miter;stroke-miterlimit:10;"/><text fill="#000000" font-family="sans-serif" font-size="13" lengthAdjust="spacing" textLength="117.7681" x="1326.5" y="124.4951">abrirPanelPrincipal()</text></g><?plantuml-src dP91Jy9048Nl-oicUD4378mQxS6ah3LfWjY0UYNJifA9wsupksY8yR-x896sj4hanlJDDozldtiXKoBZAsWoogzA1QNLg_KV8LWL7ir2ApYIDyamFeTUbCNZP3JB9kbOfbayciN3D9aytFS07IJEuzmcnZFEKPHOlE120UPCV4SkM-QQ2Yp86kNMybxhb-EJ7dm82B_A-OlJg-Js2aOKBd1D_aJglQdEp_FvnILKTD86KrPhnKtjxMaipvAgTg9AwyXRNlsj5P_jATsbqrdsE1obCfRf_JYPRdEAfvMWfgWfvDIsBuDNp2sZ3qSW_iwfSdT3sHyVm9AiQWbkICtXePuoD4fdJAQW4lNEL7qkHAqOqEV-TTTJHj1H2Y4wDg0_3xZMjuv2gVTs0ggJr0rw9XtCDqW5arTCzaIqRZLvks95O7ElZEACRKdM7PDvKyxJ8gJ4_w3bIrS4SvRbrb6xjTrAWDLgt9N8O71TAsi4HJ14PeaynZUrs6X_INIzlr_JdqUkpFw0D1iQZ3GcXxYezt9hepuCc2y0?></g></svg>