<svg xmlns="http://www.w3.org/2000/svg" xmlns:xlink="http://www.w3.org/1999/xlink" contentStyleType="text/css" data-diagram-type="DESCRIPTION" height="595px" preserveAspectRatio="none" style="width:980px;height:595px;background:#FFFFFF;" version="1.1" viewBox="0 0 980 595" width="980px" zoomAndPan="magnify"><?plantuml 1.2026.6?><defs/><g><!--cluster abrirMisPublicaciones--><g class="cluster" data-qualified-name="abrirMisPublicaciones" data-source-line="4" id="ent0002"><path d="M274,6 L432.9307,6 A3.75,3.75 0 0 1 435.4307,8.5 L442.4307,29.6094 L700,29.6094 A2.5,2.5 0 0 1 702.5,32.1094 L702.5,577.5 A2.5,2.5 0 0 1 700,580 L274,580 A2.5,2.5 0 0 1 271.5,577.5 L271.5,8.5 A2.5,2.5 0 0 1 274,6" fill="none" style="stroke:#000000;stroke-width:1.5;"/><line style="stroke:#000000;stroke-width:1.5;" x1="271.5" x2="442.4307" y1="29.6094" y2="29.6094"/><text fill="#000000" font-family="sans-serif" font-size="14" font-weight="700" lengthAdjust="spacing" textLength="157.9307" x="275.5" y="22.5332">abrirMisPublicaciones()</text></g><!--entity View--><g class="entity" data-qualified-name="abrirMisPublicaciones.View" data-source-line="5" id="ent0003"><rect fill="#629EF9" height="37.6094" rx="2.5" ry="2.5" style="stroke:#181818;stroke-width:0.5;" width="186.5098" x="400" y="42"/><text fill="#000000" font-family="sans-serif" font-size="14" lengthAdjust="spacing" textLength="166.5098" x="410" y="66.5332">abrirMisPublicacionesView</text></g><!--entity PublicacionController--><g class="entity" data-qualified-name="abrirMisPublicaciones.PublicacionController" data-source-line="6" id="ent0004"><rect fill="#B5BD68" height="37.6094" rx="2.5" ry="2.5" style="stroke:#181818;stroke-width:0.5;" width="152.2891" x="390.5" y="158"/><text fill="#000000" font-family="sans-serif" font-size="14" lengthAdjust="spacing" textLength="132.2891" x="400.5" y="182.5332">PublicacionController</text></g><!--entity PublicacionService--><g class="entity" data-qualified-name="abrirMisPublicaciones.PublicacionService" data-source-line="7" id="ent0005"><rect fill="#B5BD68" height="37.6094" rx="2.5" ry="2.5" style="stroke:#181818;stroke-width:0.5;" width="138.2822" x="287.5" y="274"/><text fill="#000000" font-family="sans-serif" font-size="14" lengthAdjust="spacing" textLength="118.2822" x="297.5" y="298.5332">PublicacionService</text></g><!--entity SesionService--><g class="entity" data-qualified-name="abrirMisPublicaciones.SesionService" data-source-line="8" id="ent0006"><rect fill="#B5BD68" height="37.6094" rx="2.5" ry="2.5" style="stroke:#181818;stroke-width:0.5;" width="109.4893" x="461" y="274"/><text fill="#000000" font-family="sans-serif" font-size="14" lengthAdjust="spacing" textLength="89.4893" x="471" y="298.5332">SesionService</text></g><!--entity PoliticaPublicacion--><g class="entity" data-qualified-name="abrirMisPublicaciones.PoliticaPublicacion" data-source-line="9" id="ent0007"><rect fill="#B5BD68" height="37.6094" rx="2.5" ry="2.5" style="stroke:#181818;stroke-width:0.5;" width="136.7305" x="288" y="408.5"/><text fill="#000000" font-family="sans-serif" font-size="14" lengthAdjust="spacing" textLength="116.7305" x="298" y="433.0332">PoliticaPublicacion</text></g><!--entity PublicacionRepository--><g class="entity" data-qualified-name="abrirMisPublicaciones.PublicacionRepository" data-source-line="10" id="ent0008"><rect fill="#F2AC4E" height="37.6094" rx="2.5" ry="2.5" style="stroke:#181818;stroke-width:0.5;" width="158.5166" x="460" y="408.5"/><text fill="#000000" font-family="sans-serif" font-size="14" lengthAdjust="spacing" textLength="138.5166" x="470" y="433.0332">PublicacionRepository</text></g><!--entity Publicacion--><g class="entity" data-qualified-name="abrirMisPublicaciones.Publicacion" data-source-line="11" id="ent0009"><rect fill="#F2AC4E" height="37.6094" rx="2.5" ry="2.5" style="stroke:#181818;stroke-width:0.5;" width="91.5996" x="493.5" y="526"/><text fill="#000000" font-family="sans-serif" font-size="14" lengthAdjust="spacing" textLength="71.5996" x="503.5" y="550.5332">Publicacion</text></g><!--entity EstadoEntrada--><g class="entity" data-qualified-name="EstadoEntrada" data-source-line="3" id="ent0001"><rect fill="#CDEBA5" height="37.6094" rx="2.5" ry="2.5" style="stroke:#181818;stroke-width:0.5;" width="220.7373" x="7" y="42"/><text fill="#000000" font-family="sans-serif" font-size="14" lengthAdjust="spacing" textLength="200.7373" x="17" y="66.5332">:PANEL_PRINCIPAL_ABIERTO</text></g><!--entity EstadoSalida--><g class="entity" data-qualified-name="EstadoSalida" data-source-line="14" id="ent0010"><rect fill="#CDEBA5" height="37.6094" rx="2.5" ry="2.5" style="stroke:#181818;stroke-width:0.5;" width="247.1787" x="719" y="158"/><text fill="#000000" font-family="sans-serif" font-size="14" lengthAdjust="spacing" textLength="227.1787" x="729" y="182.5332">:MIS_PUBLICACIONES_ABIERTAS</text></g><g class="entity" data-qualified-name="GMN19" data-source-line="27" id="ent0020"><path d="M718.5,390 L718.5,465.4063 L946.1226,465.4063 L946.1226,400 L936.1226,390 L718.5,390" fill="#FEFFDD" style="stroke:#181818;stroke-width:0.5;"/><path d="M936.1226,390 L936.1226,400 L946.1226,400 L936.1226,390" fill="#FEFFDD" style="stroke:#181818;stroke-width:1;"/><text fill="#000000" font-family="sans-serif" font-size="13" lengthAdjust="spacing" textLength="134.4243" x="724.5" y="408.4951">Responsabilidad unica:</text><text fill="#000000" font-family="sans-serif" font-size="13" lengthAdjust="spacing" textLength="191.4707" x="724.5" y="424.8467">autoriza sin persistir ni presentar.</text><text fill="#000000" font-family="sans-serif" font-size="13" lengthAdjust="spacing" textLength="206.6226" x="724.5" y="441.1982">Permite ampliar reglas sin modificar</text><text fill="#000000" font-family="sans-serif" font-size="13" lengthAdjust="spacing" textLength="185.7324" x="724.5" y="457.5498">la coordinacion del caso de uso.</text></g><!--link EstadoEntrada to View--><g class="link" data-entity-1="ent0001" data-entity-2="ent0003" data-link-type="dependency" data-source-line="16" id="lnk11"><path d="M228.03,61 C282.62,61 342.79,61 394.89,61" fill="none" id="EstadoEntrada-to-View" style="stroke:#181818;stroke-width:1;"/><polygon fill="#181818" points="399.89,61,390.89,57,394.89,61,390.89,65,399.89,61" style="stroke:#181818;stroke-width:1;stroke-linejoin:miter;stroke-miterlimit:10;"/><text fill="#000000" font-family="sans-serif" font-size="13" lengthAdjust="spacing" textLength="135.0972" x="246.5" y="54.4951">abrirMisPublicaciones()</text></g><!--link View to PublicacionController--><g class="link" data-entity-1="ent0003" data-entity-2="ent0004" data-link-type="dependency" data-source-line="17" id="lnk12"><path d="M489.22,80.06 C484.2,101.28 477.0514,131.4344 472.0014,152.7744" fill="none" id="View-to-PublicacionController" style="stroke:#181818;stroke-width:1;"/><polygon fill="#181818" points="470.85,157.64,476.8151,149.803,472.0014,152.7744,469.0301,147.9608,470.85,157.64" style="stroke:#181818;stroke-width:1;stroke-linejoin:miter;stroke-miterlimit:10;"/><text fill="#000000" font-family="sans-serif" font-size="13" lengthAdjust="spacing" textLength="218.188" x="482.5" y="124.4951">abrirMisPublicaciones(solicitud, actor)</text></g><!--link PublicacionController to PublicacionService--><g class="link" data-entity-1="ent0004" data-entity-2="ent0005" data-link-type="dependency" data-source-line="18" id="lnk13"><path d="M434.37,196.15 C410.29,209.74 381.5,226 381.5,226 C381.5,226 372.5,249.7438 365.1,269.2938" fill="none" id="PublicacionController-to-PublicacionService" style="stroke:#181818;stroke-width:1;"/><polygon fill="#181818" points="363.33,273.97,370.257,266.9688,365.1,269.2938,362.7751,264.1368,363.33,273.97" style="stroke:#181818;stroke-width:1;stroke-linejoin:miter;stroke-miterlimit:10;"/><text fill="#000000" font-family="sans-serif" font-size="13" lengthAdjust="spacing" textLength="96.7891" x="382.5" y="240.4951">listar(filtro, actor)</text></g><!--link PublicacionController to SesionService--><g class="link" data-entity-1="ent0004" data-entity-2="ent0006" data-link-type="dependency" data-source-line="19" id="lnk14"><path d="M474.26,196.06 C483.39,217.28 496.4542,247.707 505.6342,269.047" fill="none" id="PublicacionController-to-SesionService" style="stroke:#181818;stroke-width:1;"/><polygon fill="#181818" points="507.61,273.64,507.7279,263.7918,505.6342,269.047,500.3791,266.9532,507.61,273.64" style="stroke:#181818;stroke-width:1;stroke-linejoin:miter;stroke-miterlimit:10;"/><text fill="#000000" font-family="sans-serif" font-size="13" lengthAdjust="spacing" textLength="209.5806" x="494.5" y="240.4951">obtenerSesionActual(authentication)</text></g><!--link PublicacionService to PoliticaPublicacion--><g class="link" data-entity-1="ent0005" data-entity-2="ent0007" data-link-type="dependency" data-source-line="20" id="lnk15"><path d="M342.51,312.15 C332.03,325.74 319.5,342 319.5,342 C319.5,342 319.5,360 319.5,360 C319.5,360 332.9982,384.2712 343.9582,403.9612" fill="none" id="PublicacionService-to-PoliticaPublicacion" style="stroke:#181818;stroke-width:1;"/><polygon fill="#181818" points="346.39,408.33,345.5078,398.5207,343.9582,403.9612,338.5177,402.4116,346.39,408.33" style="stroke:#181818;stroke-width:1;stroke-linejoin:miter;stroke-miterlimit:10;"/><text fill="#000000" font-family="sans-serif" font-size="13" lengthAdjust="spacing" textLength="119.9453" x="320.5" y="356.4951">alcancePropio(actor)</text></g><!--link PublicacionService to PublicacionRepository--><g class="link" data-entity-1="ent0005" data-entity-2="ent0008" data-link-type="dependency" data-source-line="21" id="lnk16"><path d="M389.52,312.01 C414.49,325.63 444.5,342 444.5,342 C444.5,342 487.2139,379.9871 515.1539,404.8371" fill="none" id="PublicacionService-to-PublicacionRepository" style="stroke:#181818;stroke-width:1;"/><polygon fill="#181818" points="518.89,408.16,514.8234,399.1899,515.1539,404.8371,509.5067,405.1677,518.89,408.16" style="stroke:#181818;stroke-width:1;stroke-linejoin:miter;stroke-miterlimit:10;"/><text fill="#000000" font-family="sans-serif" font-size="13" lengthAdjust="spacing" textLength="201.5635" x="463.5" y="356.4951">buscarActivasPorAutor(actor, filtro)</text></g><!--link PublicacionRepository to Publicacion--><g class="link" data-entity-1="ent0008" data-entity-2="ent0009" data-link-type="association" data-source-line="22" id="lnk17"><path d="M539.5,446.55 C539.5,468.12 539.5,504.02 539.5,525.7" fill="none" id="PublicacionRepository-Publicacion" style="stroke:#181818;stroke-width:1;"/></g><!--link View to EstadoSalida--><g class="link" data-entity-1="ent0003" data-entity-2="ent0010" data-link-type="dependency" data-source-line="24" id="lnk18"><path d="M574.54,80.01 C635.84,93.63 709.5,110 709.5,110 C709.5,110 762.3015,136.1967 801.6815,155.7467" fill="none" id="View-to-EstadoSalida" style="stroke:#181818;stroke-width:1;stroke-dasharray:7,7;"/><polygon fill="#181818" points="806.16,157.97,799.8774,150.3852,801.6815,155.7467,796.3201,157.5508,806.16,157.97" style="stroke:#181818;stroke-width:1;stroke-linejoin:miter;stroke-miterlimit:10;"/><text fill="#000000" font-family="sans-serif" font-size="13" lengthAdjust="spacing" textLength="130.7935" x="745.5" y="124.4951">continuarNavegacion()</text></g><!--link PoliticaPublicacion to GMN19--><g class="link" data-entity-1="ent0007" data-entity-2="ent0020" data-link-type="association" data-source-line="27" id="lnk21"><path d="M382.35,408.39 C413.01,385.73 460,351 460,351 C460,351 685,351 685,351 C685,351 722.74,370.58 760.05,389.92" fill="none" id="PoliticaPublicacion-GMN19" style="stroke:#181818;stroke-width:1;stroke-dasharray:7,7;"/></g><?plantuml-src ZLB1Rjf04BtlLupeXKY1GzH4ZG-H37KaIuHOkEqLZTSB6MNPjMRNL6dLV-yOa8eJ4FLfFVlUcxVp9hoIQv1n0vQSYM-DWSRRj-v7AJOwebjR0v-cNxD9UWk3f4ZdsMnPBFBvD2_IsJATvDdYs_C0C40M8jO-Sv6nHjMWViMr0QoO-8b2qLQMD6hopeGEFZXvCxmQm6y5yXsrlxkvpnxlpp1-aFcvwzyTtZEhswg--m97XAaNWzvQmvUnfU4jQNC6M9fm4LDuIr7KZaJV8nzlqkddxBZjmZG-KFJyTXchr9-JGJtbvRBuFfdbqtIQFy-pyX1LMXvbLQ8bYKhraeCHZnvsmqpWJ4IgkuLHBRYJapr7338DJR6jhm6rlEzAdQJ3g2zy674YIof6URWYAyZ_qEWbb82led66zzLKnnRj4DluObmNKPHYJ-p0sxlvcACyqcfqsXJi6_B3Zsvw0gVYJQ1gWqOMBxJ5K7XEMwdlfQvX_ywUv3-kgFRtO9V9UFpGopO1BICXroBFSMlMEwm4g9oF1fZMBn7ywkIQBanel0jOKITKG-la9b7OEQHV284SD8Q3P48CZg1X4sIKo6DL6DwGDC1DOmbPLdXjPUiwoiRNj18bLXR5dEUQtAuXrCQ2nk3b06tmOsLS3PtFlm00?></g></svg>