<svg xmlns="http://www.w3.org/2000/svg" xmlns:xlink="http://www.w3.org/1999/xlink" contentStyleType="text/css" height="914px" preserveAspectRatio="none" style="width:1664px;height:914px;background:#FFFFFF;" version="1.1" viewBox="0 0 1664 914" width="1664px" zoomAndPan="magnify"><title>Diagrama de secuencia - Abrir entregable visible</title><defs/><g><text fill="#000000" font-family="sans-serif" font-size="14" font-weight="bold" lengthAdjust="spacing" textLength="323.6816" x="672.1045" y="29.5332">Diagrama de secuencia - Abrir entregable visible</text><line style="stroke:#181818;stroke-width:0.5;stroke-dasharray:5.0,5.0;" x1="46" x2="46" y1="121.2188" y2="832.3594"/><line style="stroke:#181818;stroke-width:0.5;stroke-dasharray:5.0,5.0;" x1="276.4907" x2="276.4907" y1="121.2188" y2="832.3594"/><line style="stroke:#181818;stroke-width:0.5;stroke-dasharray:5.0,5.0;" x1="446.5435" x2="446.5435" y1="121.2188" y2="832.3594"/><line style="stroke:#181818;stroke-width:0.5;stroke-dasharray:5.0,5.0;" x1="679.5825" x2="679.5825" y1="121.2188" y2="832.3594"/><line style="stroke:#181818;stroke-width:0.5;stroke-dasharray:5.0,5.0;" x1="806.0718" x2="806.0718" y1="121.2188" y2="832.3594"/><line style="stroke:#181818;stroke-width:0.5;stroke-dasharray:5.0,5.0;" x1="1034.7041" x2="1034.7041" y1="121.2188" y2="832.3594"/><line style="stroke:#181818;stroke-width:0.5;stroke-dasharray:5.0,5.0;" x1="1186.8691" x2="1186.8691" y1="121.2188" y2="832.3594"/><line style="stroke:#181818;stroke-width:0.5;stroke-dasharray:5.0,5.0;" x1="1368.5029" x2="1368.5029" y1="121.2188" y2="832.3594"/><line style="stroke:#181818;stroke-width:0.5;stroke-dasharray:5.0,5.0;" x1="1614.0566" x2="1614.0566" y1="121.2188" y2="832.3594"/><text fill="#000000" font-family="sans-serif" font-size="14" lengthAdjust="spacing" textLength="76.2686" x="5" y="118.1426">Investigador</text><ellipse cx="46.1343" cy="52.1094" fill="#E2E2F0" rx="8" ry="8" style="stroke:#181818;stroke-width:0.5;"/><path d="M46.1343,60.1094 L46.1343,87.1094 M33.1343,68.1094 L59.1343,68.1094 M46.1343,87.1094 L33.1343,102.1094 M46.1343,87.1094 L59.1343,102.1094 " fill="none" style="stroke:#181818;stroke-width:0.5;"/><text fill="#000000" font-family="sans-serif" font-size="14" lengthAdjust="spacing" textLength="76.2686" x="5" y="845.8926">Investigador</text><ellipse cx="46.1343" cy="857.4688" fill="#E2E2F0" rx="8" ry="8" style="stroke:#181818;stroke-width:0.5;"/><path d="M46.1343,865.4688 L46.1343,892.4688 M33.1343,873.4688 L59.1343,873.4688 M46.1343,892.4688 L33.1343,907.4688 M46.1343,892.4688 L59.1343,907.4688 " fill="none" style="stroke:#181818;stroke-width:0.5;"/><rect fill="#E2E2F0" height="49.2188" rx="2.5" ry="2.5" style="stroke:#181818;stroke-width:0.5;" width="157.9922" x="198.4907" y="71"/><text fill="#000000" font-family="sans-serif" font-size="14" lengthAdjust="spacing" textLength="143.9922" x="205.4907" y="92.5332">EntregableDetallePage</text><text fill="#000000" font-family="sans-serif" font-size="14" lengthAdjust="spacing" textLength="45.8965" x="254.5386" y="110.1426">(React)</text><rect fill="#E2E2F0" height="49.2188" rx="2.5" ry="2.5" style="stroke:#181818;stroke-width:0.5;" width="157.9922" x="198.4907" y="831.3594"/><text fill="#000000" font-family="sans-serif" font-size="14" lengthAdjust="spacing" textLength="143.9922" x="205.4907" y="852.8926">EntregableDetallePage</text><text fill="#000000" font-family="sans-serif" font-size="14" lengthAdjust="spacing" textLength="45.8965" x="254.5386" y="870.502">(React)</text><rect fill="#E2E2F0" height="49.2188" rx="2.5" ry="2.5" style="stroke:#181818;stroke-width:0.5;" width="142.4063" x="375.5435" y="71"/><text fill="#000000" font-family="sans-serif" font-size="14" lengthAdjust="spacing" textLength="128.4063" x="382.5435" y="92.5332">EntregableController</text><text fill="#000000" font-family="sans-serif" font-size="14" lengthAdjust="spacing" textLength="82.4824" x="405.5054" y="110.1426">(Spring Boot)</text><rect fill="#E2E2F0" height="49.2188" rx="2.5" ry="2.5" style="stroke:#181818;stroke-width:0.5;" width="142.4063" x="375.5435" y="831.3594"/><text fill="#000000" font-family="sans-serif" font-size="14" lengthAdjust="spacing" textLength="128.4063" x="382.5435" y="852.8926">EntregableController</text><text fill="#000000" font-family="sans-serif" font-size="14" lengthAdjust="spacing" textLength="82.4824" x="405.5054" y="870.502">(Spring Boot)</text><rect fill="#E2E2F0" height="31.6094" rx="2.5" ry="2.5" style="stroke:#181818;stroke-width:0.5;" width="103.4893" x="628.5825" y="88.6094"/><text fill="#000000" font-family="sans-serif" font-size="14" lengthAdjust="spacing" textLength="89.4893" x="635.5825" y="110.1426">SesionService</text><rect fill="#E2E2F0" height="31.6094" rx="2.5" ry="2.5" style="stroke:#181818;stroke-width:0.5;" width="103.4893" x="628.5825" y="831.3594"/><text fill="#000000" font-family="sans-serif" font-size="14" lengthAdjust="spacing" textLength="89.4893" x="635.5825" y="852.8926">SesionService</text><rect fill="#E2E2F0" height="31.6094" rx="2.5" ry="2.5" style="stroke:#181818;stroke-width:0.5;" width="128.3994" x="742.0718" y="88.6094"/><text fill="#000000" font-family="sans-serif" font-size="14" lengthAdjust="spacing" textLength="114.3994" x="749.0718" y="110.1426">EntregableService</text><rect fill="#E2E2F0" height="31.6094" rx="2.5" ry="2.5" style="stroke:#181818;stroke-width:0.5;" width="128.3994" x="742.0718" y="831.3594"/><text fill="#000000" font-family="sans-serif" font-size="14" lengthAdjust="spacing" textLength="114.3994" x="749.0718" y="852.8926">EntregableService</text><rect fill="#E2E2F0" height="31.6094" rx="2.5" ry="2.5" style="stroke:#181818;stroke-width:0.5;" width="136.165" x="966.7041" y="88.6094"/><text fill="#000000" font-family="sans-serif" font-size="14" lengthAdjust="spacing" textLength="122.165" x="973.7041" y="110.1426">ProyectoRepository</text><rect fill="#E2E2F0" height="31.6094" rx="2.5" ry="2.5" style="stroke:#181818;stroke-width:0.5;" width="136.165" x="966.7041" y="831.3594"/><text fill="#000000" font-family="sans-serif" font-size="14" lengthAdjust="spacing" textLength="122.165" x="973.7041" y="852.8926">ProyectoRepository</text><rect fill="#E2E2F0" height="31.6094" rx="2.5" ry="2.5" style="stroke:#181818;stroke-width:0.5;" width="148.6338" x="1112.8691" y="88.6094"/><text fill="#000000" font-family="sans-serif" font-size="14" lengthAdjust="spacing" textLength="134.6338" x="1119.8691" y="110.1426">EntregableRepository</text><rect fill="#E2E2F0" height="31.6094" rx="2.5" ry="2.5" style="stroke:#181818;stroke-width:0.5;" width="148.6338" x="1112.8691" y="831.3594"/><text fill="#000000" font-family="sans-serif" font-size="14" lengthAdjust="spacing" textLength="134.6338" x="1119.8691" y="852.8926">EntregableRepository</text><rect fill="#E2E2F0" height="31.6094" rx="2.5" ry="2.5" style="stroke:#181818;stroke-width:0.5;" width="195.3164" x="1271.5029" y="88.6094"/><text fill="#000000" font-family="sans-serif" font-size="14" lengthAdjust="spacing" textLength="181.3164" x="1278.5029" y="110.1426">ArchivoEntregableRepository</text><rect fill="#E2E2F0" height="31.6094" rx="2.5" ry="2.5" style="stroke:#181818;stroke-width:0.5;" width="195.3164" x="1271.5029" y="831.3594"/><text fill="#000000" font-family="sans-serif" font-size="14" lengthAdjust="spacing" textLength="181.3164" x="1278.5029" y="852.8926">ArchivoEntregableRepository</text><text fill="#000000" font-family="sans-serif" font-size="14" lengthAdjust="spacing" textLength="91.834" x="1566.0566" y="118.1426">Base de Datos</text><path d="M1596.9736,67.6094 C1596.9736,57.6094 1614.9736,57.6094 1614.9736,57.6094 C1614.9736,57.6094 1632.9736,57.6094 1632.9736,67.6094 L1632.9736,93.6094 C1632.9736,103.6094 1614.9736,103.6094 1614.9736,103.6094 C1614.9736,103.6094 1596.9736,103.6094 1596.9736,93.6094 L1596.9736,67.6094 " fill="#E2E2F0" style="stroke:#181818;stroke-width:1.5;"/><path d="M1596.9736,67.6094 C1596.9736,77.6094 1614.9736,77.6094 1614.9736,77.6094 C1614.9736,77.6094 1632.9736,77.6094 1632.9736,67.6094 " fill="none" style="stroke:#181818;stroke-width:1.5;"/><text fill="#000000" font-family="sans-serif" font-size="14" lengthAdjust="spacing" textLength="91.834" x="1566.0566" y="845.8926">Base de Datos</text><path d="M1596.9736,858.9688 C1596.9736,848.9688 1614.9736,848.9688 1614.9736,848.9688 C1614.9736,848.9688 1632.9736,848.9688 1632.9736,858.9688 L1632.9736,884.9688 C1632.9736,894.9688 1614.9736,894.9688 1614.9736,894.9688 C1614.9736,894.9688 1596.9736,894.9688 1596.9736,884.9688 L1596.9736,858.9688 " fill="#E2E2F0" style="stroke:#181818;stroke-width:1.5;"/><path d="M1596.9736,858.9688 C1596.9736,868.9688 1614.9736,868.9688 1614.9736,868.9688 C1614.9736,868.9688 1632.9736,868.9688 1632.9736,858.9688 " fill="none" style="stroke:#181818;stroke-width:1.5;"/><polygon fill="#181818" points="265.4868,149.5703,275.4868,153.5703,265.4868,157.5703,269.4868,153.5703" style="stroke:#181818;stroke-width:1;"/><line style="stroke:#181818;stroke-width:1;" x1="46.1343" x2="271.4868" y1="153.5703" y2="153.5703"/><text fill="#000000" font-family="sans-serif" font-size="13" lengthAdjust="spacing" textLength="128.6479" x="53.1343" y="148.7139">Selecciona entregable</text><polygon fill="#181818" points="434.7466,196.2734,444.7466,200.2734,434.7466,204.2734,438.7466,200.2734" style="stroke:#181818;stroke-width:1;"/><line style="stroke:#181818;stroke-width:1;" x1="277.4868" x2="440.7466" y1="200.2734" y2="200.2734"/><text fill="#000000" font-family="sans-serif" font-size="13" lengthAdjust="spacing" textLength="145.2598" x="284.4868" y="179.0654">GET /api/entregables/{id}</text><text fill="#000000" font-family="sans-serif" font-size="13" lengthAdjust="spacing" textLength="99.728" x="284.4868" y="195.417">Cookie de sesion</text><polygon fill="#181818" points="668.3271,226.625,678.3271,230.625,668.3271,234.625,672.3271,230.625" style="stroke:#181818;stroke-width:1;"/><line style="stroke:#181818;stroke-width:1;" x1="446.7466" x2="674.3271" y1="230.625" y2="230.625"/><text fill="#000000" font-family="sans-serif" font-size="13" lengthAdjust="spacing" textLength="209.5806" x="453.7466" y="225.7686">obtenerSesionActual(authentication)</text><polygon fill="#181818" points="457.7466,256.9766,447.7466,260.9766,457.7466,264.9766,453.7466,260.9766" style="stroke:#181818;stroke-width:1;"/><line style="stroke:#181818;stroke-width:1;stroke-dasharray:2.0,2.0;" x1="451.7466" x2="679.3271" y1="260.9766" y2="260.9766"/><text fill="#000000" font-family="sans-serif" font-size="13" lengthAdjust="spacing" textLength="141.6543" x="463.7466" y="256.1201">Investigador autenticado</text><polygon fill="#181818" points="794.2715,287.3281,804.2715,291.3281,794.2715,295.3281,798.2715,291.3281" style="stroke:#181818;stroke-width:1;"/><line style="stroke:#181818;stroke-width:1;" x1="446.7466" x2="800.2715" y1="291.3281" y2="291.3281"/><text fill="#000000" font-family="sans-serif" font-size="13" lengthAdjust="spacing" textLength="140.188" x="453.7466" y="286.4717">obtener(id, investigador)</text><polygon fill="#181818" points="1175.186,317.6797,1185.186,321.6797,1175.186,325.6797,1179.186,321.6797" style="stroke:#181818;stroke-width:1;"/><line style="stroke:#181818;stroke-width:1;" x1="806.2715" x2="1181.186" y1="321.6797" y2="321.6797"/><text fill="#000000" font-family="sans-serif" font-size="13" lengthAdjust="spacing" textLength="138.0171" x="813.2715" y="316.8232">findByIdAndRetirado(id)</text><polygon fill="#181818" points="1602.9736,364.3828,1612.9736,368.3828,1602.9736,372.3828,1606.9736,368.3828" style="stroke:#181818;stroke-width:1;"/><line style="stroke:#181818;stroke-width:1;" x1="1187.186" x2="1608.9736" y1="368.3828" y2="368.3828"/><text fill="#000000" font-family="sans-serif" font-size="13" lengthAdjust="spacing" textLength="172.6753" x="1194.186" y="347.1748">SELECT * FROM entregables</text><text fill="#000000" font-family="sans-serif" font-size="13" lengthAdjust="spacing" textLength="205.188" x="1194.186" y="363.5264">WHERE id = ? AND retirado = false</text><polygon fill="#181818" points="1198.186,394.7344,1188.186,398.7344,1198.186,402.7344,1194.186,398.7344" style="stroke:#181818;stroke-width:1;"/><line style="stroke:#181818;stroke-width:1;stroke-dasharray:2.0,2.0;" x1="1192.186" x2="1613.9736" y1="398.7344" y2="398.7344"/><text fill="#000000" font-family="sans-serif" font-size="13" lengthAdjust="spacing" textLength="104.0635" x="1204.186" y="393.8779">Entregable / vacio</text><polygon fill="#181818" points="817.2715,425.0859,807.2715,429.0859,817.2715,433.0859,813.2715,429.0859" style="stroke:#181818;stroke-width:1;"/><line style="stroke:#181818;stroke-width:1;stroke-dasharray:2.0,2.0;" x1="811.2715" x2="1186.186" y1="429.0859" y2="429.0859"/><text fill="#000000" font-family="sans-serif" font-size="13" lengthAdjust="spacing" textLength="104.0635" x="823.2715" y="424.2295">Entregable / vacio</text><polygon fill="#181818" points="1022.7866,455.4375,1032.7866,459.4375,1022.7866,463.4375,1026.7866,459.4375" style="stroke:#181818;stroke-width:1;"/><line style="stroke:#181818;stroke-width:1;" x1="806.2715" x2="1028.7866" y1="459.4375" y2="459.4375"/><text fill="#000000" font-family="sans-serif" font-size="13" lengthAdjust="spacing" textLength="193.6543" x="813.2715" y="454.5811">findById(proyectoId, investigador)</text><polygon fill="#181818" points="1602.9736,518.4922,1612.9736,522.4922,1602.9736,526.4922,1606.9736,522.4922" style="stroke:#181818;stroke-width:1;"/><line style="stroke:#181818;stroke-width:1;" x1="1034.7866" x2="1608.9736" y1="522.4922" y2="522.4922"/><text fill="#000000" font-family="sans-serif" font-size="13" lengthAdjust="spacing" textLength="247.8252" x="1041.7866" y="484.9326">SELECT 1 FROM proyecto_investigadores</text><text fill="#000000" font-family="sans-serif" font-size="13" lengthAdjust="spacing" textLength="285.416" x="1041.7866" y="501.2842">WHERE proyecto_id = ? AND investigador_id = ?</text><text fill="#000000" font-family="sans-serif" font-size="13" lengthAdjust="spacing" textLength="102.2354" x="1041.7866" y="517.6357">AND activo = true</text><polygon fill="#181818" points="1045.7866,548.8438,1035.7866,552.8438,1045.7866,556.8438,1041.7866,552.8438" style="stroke:#181818;stroke-width:1;"/><line style="stroke:#181818;stroke-width:1;stroke-dasharray:2.0,2.0;" x1="1039.7866" x2="1613.9736" y1="552.8438" y2="552.8438"/><text fill="#000000" font-family="sans-serif" font-size="13" lengthAdjust="spacing" textLength="115.6099" x="1051.7866" y="547.9873">Participacion / vacio</text><polygon fill="#181818" points="817.2715,579.1953,807.2715,583.1953,817.2715,587.1953,813.2715,583.1953" style="stroke:#181818;stroke-width:1;"/><line style="stroke:#181818;stroke-width:1;stroke-dasharray:2.0,2.0;" x1="811.2715" x2="1033.7866" y1="583.1953" y2="583.1953"/><text fill="#000000" font-family="sans-serif" font-size="13" lengthAdjust="spacing" textLength="204.5151" x="823.2715" y="578.3389">Proyecto visible / acceso denegado</text><polygon fill="#181818" points="1357.1611,609.5469,1367.1611,613.5469,1357.1611,617.5469,1361.1611,613.5469" style="stroke:#181818;stroke-width:1;"/><line style="stroke:#181818;stroke-width:1;" x1="806.2715" x2="1363.1611" y1="613.5469" y2="613.5469"/><text fill="#000000" font-family="sans-serif" font-size="13" lengthAdjust="spacing" textLength="250.7261" x="813.2715" y="608.6904">findByEntregableIdOrderByVersionDesc(id)</text><polygon fill="#181818" points="1602.9736,672.6016,1612.9736,676.6016,1602.9736,680.6016,1606.9736,676.6016" style="stroke:#181818;stroke-width:1;"/><line style="stroke:#181818;stroke-width:1;" x1="1369.1611" x2="1608.9736" y1="676.6016" y2="676.6016"/><text fill="#000000" font-family="sans-serif" font-size="13" lengthAdjust="spacing" textLength="221.8125" x="1376.1611" y="639.042">SELECT * FROM archivos_entregable</text><text fill="#000000" font-family="sans-serif" font-size="13" lengthAdjust="spacing" textLength="152.8325" x="1376.1611" y="655.3936">WHERE entregable_id = ?</text><text fill="#000000" font-family="sans-serif" font-size="13" lengthAdjust="spacing" textLength="153.1499" x="1376.1611" y="671.7451">ORDER BY version DESC</text><polygon fill="#181818" points="1380.1611,702.9531,1370.1611,706.9531,1380.1611,710.9531,1376.1611,706.9531" style="stroke:#181818;stroke-width:1;"/><line style="stroke:#181818;stroke-width:1;stroke-dasharray:2.0,2.0;" x1="1374.1611" x2="1613.9736" y1="706.9531" y2="706.9531"/><text fill="#000000" font-family="sans-serif" font-size="13" lengthAdjust="spacing" textLength="119.209" x="1386.1611" y="702.0967">Archivos y versiones</text><polygon fill="#181818" points="457.7466,733.3047,447.7466,737.3047,457.7466,741.3047,453.7466,737.3047" style="stroke:#181818;stroke-width:1;"/><line style="stroke:#181818;stroke-width:1;stroke-dasharray:2.0,2.0;" x1="451.7466" x2="805.2715" y1="737.3047" y2="737.3047"/><text fill="#000000" font-family="sans-serif" font-size="13" lengthAdjust="spacing" textLength="221.5015" x="463.7466" y="732.4482">EntregableDetalleResponse + esAutor</text><polygon fill="#181818" points="288.4868,763.6563,278.4868,767.6563,288.4868,771.6563,284.4868,767.6563" style="stroke:#181818;stroke-width:1;"/><line style="stroke:#181818;stroke-width:1;stroke-dasharray:2.0,2.0;" x1="282.4868" x2="445.7466" y1="767.6563" y2="767.6563"/><text fill="#000000" font-family="sans-serif" font-size="13" lengthAdjust="spacing" textLength="44.0845" x="294.4868" y="762.7998">200 OK</text><polygon fill="#181818" points="57.1343,810.3594,47.1343,814.3594,57.1343,818.3594,53.1343,814.3594" style="stroke:#181818;stroke-width:1;"/><line style="stroke:#181818;stroke-width:1;stroke-dasharray:2.0,2.0;" x1="51.1343" x2="276.4868" y1="814.3594" y2="814.3594"/><text fill="#000000" font-family="sans-serif" font-size="13" lengthAdjust="spacing" textLength="207.3525" x="63.1343" y="793.1514">Presenta ENTREGABLE_ABIERTO</text><text fill="#000000" font-family="sans-serif" font-size="13" lengthAdjust="spacing" textLength="172.6753" x="63.1343" y="809.5029">Editar y retirar solo si es autor</text><!--SRC=[TLHDRzim3BtxLn0zfTkAT3i6s0OxLhjWtL8umOO10Gh6ObDXdcH8Ie1Ws7yVvOzORfkBRP7lKUGZQQzyHP0ht5dyWo0979LxqgL2k89qQvK5qjxI3hSCF2Yd-9rWwOs5XJwGysg7qjYaHkjLgMhK7Yx4YPAJnwgYUzpHHayAOkRb1Q236skq9otF4UVijeQfbdchsYgzWyoOZftMQanSaLD6hyWUL4aDfBMS2pz6DjzZwBqrH-8o2wgDKrpkiS76vdEndr5UGbDRFgc3ESle_0rHeiSjEeABB3ovGpbwunfSdYL9t0Iu-dJITSPbLLIMh056BKnwVy2oYZEu5MkOOgsc0yXD_ohvRwFdnlnMr4v58oOJ0g-LTWPcov78jiUqz7ki9hZtJnn9bUZPU9cqJhZghnlbo-0MAyqGksd6AVX4oNUW8b88sK02EaWqWqUbPNPSo5JBWhoo36FQPHAy0PLdh8Qu4_Crl86ROlaj4iHjzCyleX2W97o4pv1-py5sGTZmY9MZ9C-Q0jhRXhR150x82dSNnTc_0ehIZgTeI7zIT-R5Yv9ZmhEAthSLzTo7c3XKDxY7CcDaPz_euE0bvV7ZixVxK_7ZdE_xUGu3TYfnd6QiH-_fVo5CmR8aPtYwD8KKOdsY1UZb6GHToAMLPBFZ3x9Xjd9oPTFkYFLwrx45k8UX_Rq-W-ManBB8HG7PBpYqzq0kLlDUZL66tS71iSUI6yhf9__5Jx4WLnlDI_qMoALxNlzs2KPR_E7w6fPVexLbRxn3GLfod3w2-Bukn6sQtOc7D5k8OhtSQ26LHyk9jJDjmPdAW5DyOzW-O_y3]--></g></svg>