<?xml version="1.0" encoding="us-ascii" standalone="no"?><svg xmlns="http://www.w3.org/2000/svg" xmlns:xlink="http://www.w3.org/1999/xlink" contentStyleType="text/css" height="914px" preserveAspectRatio="none" style="width:1667px;height:914px;background:#FFFFFF;" version="1.1" viewBox="0 0 1667 914" width="1667px" zoomAndPan="magnify"><defs/><g><text fill="#000000" font-family="sans-serif" font-size="14" font-weight="bold" lengthAdjust="spacing" textLength="342" x="664.25" y="29.5332">Diagrama de secuencia - Abrir entregable visible</text><line style="stroke:#181818;stroke-width:0.5;stroke-dasharray:5.0,5.0;" x1="46" x2="46" y1="121.2188" y2="832.3594"/><line style="stroke:#181818;stroke-width:0.5;stroke-dasharray:5.0,5.0;" x1="276.5" x2="276.5" y1="121.2188" y2="832.3594"/><line style="stroke:#181818;stroke-width:0.5;stroke-dasharray:5.0,5.0;" x1="444" x2="444" y1="121.2188" y2="832.3594"/><line style="stroke:#181818;stroke-width:0.5;stroke-dasharray:5.0,5.0;" x1="656.5" x2="656.5" y1="121.2188" y2="832.3594"/><line style="stroke:#181818;stroke-width:0.5;stroke-dasharray:5.0,5.0;" x1="783.5" x2="783.5" y1="121.2188" y2="832.3594"/><line style="stroke:#181818;stroke-width:0.5;stroke-dasharray:5.0,5.0;" x1="1069.5" x2="1069.5" y1="121.2188" y2="832.3594"/><line style="stroke:#181818;stroke-width:0.5;stroke-dasharray:5.0,5.0;" x1="1223.5" x2="1223.5" y1="121.2188" y2="832.3594"/><line style="stroke:#181818;stroke-width:0.5;stroke-dasharray:5.0,5.0;" x1="1373.5" x2="1373.5" y1="121.2188" y2="832.3594"/><line style="stroke:#181818;stroke-width:0.5;stroke-dasharray:5.0,5.0;" x1="1616.5" x2="1616.5" y1="121.2188" y2="832.3594"/><text fill="#000000" font-family="sans-serif" font-size="14" lengthAdjust="spacing" textLength="77" x="5" y="118.1426">Investigador</text><ellipse cx="46.5" cy="52.1094" fill="#E2E2F0" rx="8" ry="8" style="stroke:#181818;stroke-width:0.5;"/><path d="M46.5,60.1094 L46.5,87.1094 M33.5,68.1094 L59.5,68.1094 M46.5,87.1094 L33.5,102.1094 M46.5,87.1094 L59.5,102.1094 " fill="none" style="stroke:#181818;stroke-width:0.5;"/><text fill="#000000" font-family="sans-serif" font-size="14" lengthAdjust="spacing" textLength="77" x="5" y="845.8926">Investigador</text><ellipse cx="46.5" cy="857.4688" fill="#E2E2F0" rx="8" ry="8" style="stroke:#181818;stroke-width:0.5;"/><path d="M46.5,865.4688 L46.5,892.4688 M33.5,873.4688 L59.5,873.4688 M46.5,892.4688 L33.5,907.4688 M46.5,892.4688 L59.5,907.4688 " fill="none" style="stroke:#181818;stroke-width:0.5;"/><rect fill="#E2E2F0" height="49.2188" rx="2.5" ry="2.5" style="stroke:#181818;stroke-width:0.5;" width="160" x="196.5" y="71"/><text fill="#000000" font-family="sans-serif" font-size="14" lengthAdjust="spacing" textLength="146" x="203.5" y="92.5332">EntregableDetallePage</text><text fill="#000000" font-family="sans-serif" font-size="14" lengthAdjust="spacing" textLength="47" x="253" y="110.1426">(React)</text><rect fill="#E2E2F0" height="49.2188" rx="2.5" ry="2.5" style="stroke:#181818;stroke-width:0.5;" width="160" x="196.5" y="831.3594"/><text fill="#000000" font-family="sans-serif" font-size="14" lengthAdjust="spacing" textLength="146" x="203.5" y="852.8926">EntregableDetallePage</text><text fill="#000000" font-family="sans-serif" font-size="14" lengthAdjust="spacing" textLength="47" x="253" y="870.502">(React)</text><rect fill="#E2E2F0" height="49.2188" rx="2.5" ry="2.5" style="stroke:#181818;stroke-width:0.5;" width="145" x="372" y="71"/><text fill="#000000" font-family="sans-serif" font-size="14" lengthAdjust="spacing" textLength="131" x="379" y="92.5332">EntregableController</text><text fill="#000000" font-family="sans-serif" font-size="14" lengthAdjust="spacing" textLength="84" x="402.5" y="110.1426">(Spring Boot)</text><rect fill="#E2E2F0" height="49.2188" rx="2.5" ry="2.5" style="stroke:#181818;stroke-width:0.5;" width="145" x="372" y="831.3594"/><text fill="#000000" font-family="sans-serif" font-size="14" lengthAdjust="spacing" textLength="131" x="379" y="852.8926">EntregableController</text><text fill="#000000" font-family="sans-serif" font-size="14" lengthAdjust="spacing" textLength="84" x="402.5" y="870.502">(Spring Boot)</text><rect fill="#E2E2F0" height="31.6094" rx="2.5" ry="2.5" style="stroke:#181818;stroke-width:0.5;" width="104" x="604.5" y="88.6094"/><text fill="#000000" font-family="sans-serif" font-size="14" lengthAdjust="spacing" textLength="90" x="611.5" y="110.1426">SesionService</text><rect fill="#E2E2F0" height="31.6094" rx="2.5" ry="2.5" style="stroke:#181818;stroke-width:0.5;" width="104" x="604.5" y="831.3594"/><text fill="#000000" font-family="sans-serif" font-size="14" lengthAdjust="spacing" textLength="90" x="611.5" y="852.8926">SesionService</text><rect fill="#E2E2F0" height="31.6094" rx="2.5" ry="2.5" style="stroke:#181818;stroke-width:0.5;" width="130" x="718.5" y="88.6094"/><text fill="#000000" font-family="sans-serif" font-size="14" lengthAdjust="spacing" textLength="116" x="725.5" y="110.1426">EntregableService</text><rect fill="#E2E2F0" height="31.6094" rx="2.5" ry="2.5" style="stroke:#181818;stroke-width:0.5;" width="130" x="718.5" y="831.3594"/><text fill="#000000" font-family="sans-serif" font-size="14" lengthAdjust="spacing" textLength="116" x="725.5" y="852.8926">EntregableService</text><rect fill="#E2E2F0" height="31.6094" rx="2.5" ry="2.5" style="stroke:#181818;stroke-width:0.5;" width="138" x="1000.5" y="88.6094"/><text fill="#000000" font-family="sans-serif" font-size="14" lengthAdjust="spacing" textLength="124" x="1007.5" y="110.1426">ProyectoRepository</text><rect fill="#E2E2F0" height="31.6094" rx="2.5" ry="2.5" style="stroke:#181818;stroke-width:0.5;" width="138" x="1000.5" y="831.3594"/><text fill="#000000" font-family="sans-serif" font-size="14" lengthAdjust="spacing" textLength="124" x="1007.5" y="852.8926">ProyectoRepository</text><rect fill="#E2E2F0" height="31.6094" rx="2.5" ry="2.5" style="stroke:#181818;stroke-width:0.5;" width="151" x="1148.5" y="88.6094"/><text fill="#000000" font-family="sans-serif" font-size="14" lengthAdjust="spacing" textLength="137" x="1155.5" y="110.1426">EntregableRepository</text><rect fill="#E2E2F0" height="31.6094" rx="2.5" ry="2.5" style="stroke:#181818;stroke-width:0.5;" width="151" x="1148.5" y="831.3594"/><text fill="#000000" font-family="sans-serif" font-size="14" lengthAdjust="spacing" textLength="137" x="1155.5" y="852.8926">EntregableRepository</text><rect fill="#E2E2F0" height="31.6094" rx="2.5" ry="2.5" style="stroke:#181818;stroke-width:0.5;" width="129" x="1309.5" y="88.6094"/><text fill="#000000" font-family="sans-serif" font-size="14" lengthAdjust="spacing" textLength="115" x="1316.5" y="110.1426">ArchivoRepository</text><rect fill="#E2E2F0" height="31.6094" rx="2.5" ry="2.5" style="stroke:#181818;stroke-width:0.5;" width="129" x="1309.5" y="831.3594"/><text fill="#000000" font-family="sans-serif" font-size="14" lengthAdjust="spacing" textLength="115" x="1316.5" y="852.8926">ArchivoRepository</text><text fill="#000000" font-family="sans-serif" font-size="14" lengthAdjust="spacing" textLength="93" x="1567.5" y="118.1426">Base de Datos</text><path d="M1599,67.6094 C1599,57.6094 1617,57.6094 1617,57.6094 C1617,57.6094 1635,57.6094 1635,67.6094 L1635,93.6094 C1635,103.6094 1617,103.6094 1617,103.6094 C1617,103.6094 1599,103.6094 1599,93.6094 L1599,67.6094 " fill="#E2E2F0" style="stroke:#181818;stroke-width:1.5;"/><path d="M1599,67.6094 C1599,77.6094 1617,77.6094 1617,77.6094 C1617,77.6094 1635,77.6094 1635,67.6094 " fill="none" style="stroke:#181818;stroke-width:1.5;"/><text fill="#000000" font-family="sans-serif" font-size="14" lengthAdjust="spacing" textLength="93" x="1567.5" y="845.8926">Base de Datos</text><path d="M1599,858.9688 C1599,848.9688 1617,848.9688 1617,848.9688 C1617,848.9688 1635,848.9688 1635,858.9688 L1635,884.9688 C1635,894.9688 1617,894.9688 1617,894.9688 C1617,894.9688 1599,894.9688 1599,884.9688 L1599,858.9688 " fill="#E2E2F0" style="stroke:#181818;stroke-width:1.5;"/><path d="M1599,858.9688 C1599,868.9688 1617,868.9688 1617,868.9688 C1617,868.9688 1635,868.9688 1635,858.9688 " fill="none" style="stroke:#181818;stroke-width:1.5;"/><polygon fill="#181818" points="264.5,149.5703,274.5,153.5703,264.5,157.5703,268.5,153.5703" style="stroke:#181818;stroke-width:1.0;"/><line style="stroke:#181818;stroke-width:1.0;" x1="46.5" x2="270.5" y1="153.5703" y2="153.5703"/><text fill="#000000" font-family="sans-serif" font-size="13" lengthAdjust="spacing" textLength="128" x="53.5" y="148.7139">Selecciona entregable</text><polygon fill="#181818" points="432.5,196.2734,442.5,200.2734,432.5,204.2734,436.5,200.2734" style="stroke:#181818;stroke-width:1.0;"/><line style="stroke:#181818;stroke-width:1.0;" x1="276.5" x2="438.5" y1="200.2734" y2="200.2734"/><text fill="#000000" font-family="sans-serif" font-size="13" lengthAdjust="spacing" textLength="144" x="283.5" y="179.0654">GET /api/entregables/{id}</text><text fill="#000000" font-family="sans-serif" font-size="13" lengthAdjust="spacing" textLength="100" x="283.5" y="195.417">Cookie de sesion</text><polygon fill="#181818" points="644.5,226.625,654.5,230.625,644.5,234.625,648.5,230.625" style="stroke:#181818;stroke-width:1.0;"/><line style="stroke:#181818;stroke-width:1.0;" x1="444.5" x2="650.5" y1="230.625" y2="230.625"/><text fill="#000000" font-family="sans-serif" font-size="13" lengthAdjust="spacing" textLength="188" x="451.5" y="225.7686">exigirInvestigador(authentication)</text><polygon fill="#181818" points="455.5,256.9766,445.5,260.9766,455.5,264.9766,451.5,260.9766" style="stroke:#181818;stroke-width:1.0;"/><line style="stroke:#181818;stroke-width:1.0;stroke-dasharray:2.0,2.0;" x1="449.5" x2="655.5" y1="260.9766" y2="260.9766"/><text fill="#000000" font-family="sans-serif" font-size="13" lengthAdjust="spacing" textLength="139" x="461.5" y="256.1201">Investigador autenticado</text><polygon fill="#181818" points="771.5,287.3281,781.5,291.3281,771.5,295.3281,775.5,291.3281" style="stroke:#181818;stroke-width:1.0;"/><line style="stroke:#181818;stroke-width:1.0;" x1="444.5" x2="777.5" y1="291.3281" y2="291.3281"/><text fill="#000000" font-family="sans-serif" font-size="13" lengthAdjust="spacing" textLength="216" x="451.5" y="286.4717">obtenerDetalleVisible(id, investigador)</text><polygon fill="#181818" points="1212,317.6797,1222,321.6797,1212,325.6797,1216,321.6797" style="stroke:#181818;stroke-width:1.0;"/><line style="stroke:#181818;stroke-width:1.0;" x1="783.5" x2="1218" y1="321.6797" y2="321.6797"/><text fill="#000000" font-family="sans-serif" font-size="13" lengthAdjust="spacing" textLength="126" x="790.5" y="316.8232">obtenerActivoPorId(id)</text><polygon fill="#181818" points="1605,364.3828,1615,368.3828,1605,372.3828,1609,368.3828" style="stroke:#181818;stroke-width:1.0;"/><line style="stroke:#181818;stroke-width:1.0;" x1="1224" x2="1611" y1="368.3828" y2="368.3828"/><text fill="#000000" font-family="sans-serif" font-size="13" lengthAdjust="spacing" textLength="172" x="1231" y="347.1748">SELECT * FROM entregables</text><text fill="#000000" font-family="sans-serif" font-size="13" lengthAdjust="spacing" textLength="207" x="1231" y="363.5264">WHERE id = ? AND retirado = false</text><polygon fill="#181818" points="1235,394.7344,1225,398.7344,1235,402.7344,1231,398.7344" style="stroke:#181818;stroke-width:1.0;"/><line style="stroke:#181818;stroke-width:1.0;stroke-dasharray:2.0,2.0;" x1="1229" x2="1616" y1="398.7344" y2="398.7344"/><text fill="#000000" font-family="sans-serif" font-size="13" lengthAdjust="spacing" textLength="103" x="1241" y="393.8779">Entregable / vacio</text><polygon fill="#181818" points="794.5,425.0859,784.5,429.0859,794.5,433.0859,790.5,429.0859" style="stroke:#181818;stroke-width:1.0;"/><line style="stroke:#181818;stroke-width:1.0;stroke-dasharray:2.0,2.0;" x1="788.5" x2="1223" y1="429.0859" y2="429.0859"/><text fill="#000000" font-family="sans-serif" font-size="13" lengthAdjust="spacing" textLength="103" x="800.5" y="424.2295">Entregable / vacio</text><polygon fill="#181818" points="1057.5,455.4375,1067.5,459.4375,1057.5,463.4375,1061.5,459.4375" style="stroke:#181818;stroke-width:1.0;"/><line style="stroke:#181818;stroke-width:1.0;" x1="783.5" x2="1063.5" y1="459.4375" y2="459.4375"/><text fill="#000000" font-family="sans-serif" font-size="13" lengthAdjust="spacing" textLength="262" x="790.5" y="454.5811">verificarParticipacion(proyectoId, investigador)</text><polygon fill="#181818" points="1605,518.4922,1615,522.4922,1605,526.4922,1609,522.4922" style="stroke:#181818;stroke-width:1.0;"/><line style="stroke:#181818;stroke-width:1.0;" x1="1069.5" x2="1611" y1="522.4922" y2="522.4922"/><text fill="#000000" font-family="sans-serif" font-size="13" lengthAdjust="spacing" textLength="246" x="1076.5" y="484.9326">SELECT 1 FROM proyecto_investigadores</text><text fill="#000000" font-family="sans-serif" font-size="13" lengthAdjust="spacing" textLength="286" x="1076.5" y="501.2842">WHERE proyecto_id = ? AND investigador_id = ?</text><text fill="#000000" font-family="sans-serif" font-size="13" lengthAdjust="spacing" textLength="102" x="1076.5" y="517.6357">AND activo = true</text><polygon fill="#181818" points="1080.5,548.8438,1070.5,552.8438,1080.5,556.8438,1076.5,552.8438" style="stroke:#181818;stroke-width:1.0;"/><line style="stroke:#181818;stroke-width:1.0;stroke-dasharray:2.0,2.0;" x1="1074.5" x2="1616" y1="552.8438" y2="552.8438"/><text fill="#000000" font-family="sans-serif" font-size="13" lengthAdjust="spacing" textLength="116" x="1086.5" y="547.9873">Participacion / vacio</text><polygon fill="#181818" points="794.5,579.1953,784.5,583.1953,794.5,587.1953,790.5,583.1953" style="stroke:#181818;stroke-width:1.0;"/><line style="stroke:#181818;stroke-width:1.0;stroke-dasharray:2.0,2.0;" x1="788.5" x2="1068.5" y1="583.1953" y2="583.1953"/><text fill="#000000" font-family="sans-serif" font-size="13" lengthAdjust="spacing" textLength="205" x="800.5" y="578.3389">Proyecto visible / acceso denegado</text><polygon fill="#181818" points="1362,609.5469,1372,613.5469,1362,617.5469,1366,613.5469" style="stroke:#181818;stroke-width:1.0;"/><line style="stroke:#181818;stroke-width:1.0;" x1="783.5" x2="1368" y1="613.5469" y2="613.5469"/><text fill="#000000" font-family="sans-serif" font-size="13" lengthAdjust="spacing" textLength="143" x="790.5" y="608.6904">obtenerPorEntregable(id)</text><polygon fill="#181818" points="1605,672.6016,1615,676.6016,1605,680.6016,1609,676.6016" style="stroke:#181818;stroke-width:1.0;"/><line style="stroke:#181818;stroke-width:1.0;" x1="1374" x2="1611" y1="676.6016" y2="676.6016"/><text fill="#000000" font-family="sans-serif" font-size="13" lengthAdjust="spacing" textLength="219" x="1381" y="639.042">SELECT * FROM archivos_entregable</text><text fill="#000000" font-family="sans-serif" font-size="13" lengthAdjust="spacing" textLength="153" x="1381" y="655.3936">WHERE entregable_id = ?</text><text fill="#000000" font-family="sans-serif" font-size="13" lengthAdjust="spacing" textLength="152" x="1381" y="671.7451">ORDER BY version DESC</text><polygon fill="#181818" points="1385,702.9531,1375,706.9531,1385,710.9531,1381,706.9531" style="stroke:#181818;stroke-width:1.0;"/><line style="stroke:#181818;stroke-width:1.0;stroke-dasharray:2.0,2.0;" x1="1379" x2="1616" y1="706.9531" y2="706.9531"/><text fill="#000000" font-family="sans-serif" font-size="13" lengthAdjust="spacing" textLength="118" x="1391" y="702.0967">Archivos y versiones</text><polygon fill="#181818" points="455.5,733.3047,445.5,737.3047,455.5,741.3047,451.5,737.3047" style="stroke:#181818;stroke-width:1.0;"/><line style="stroke:#181818;stroke-width:1.0;stroke-dasharray:2.0,2.0;" x1="449.5" x2="782.5" y1="737.3047" y2="737.3047"/><text fill="#000000" font-family="sans-serif" font-size="13" lengthAdjust="spacing" textLength="221" x="461.5" y="732.4482">EntregableDetalleResponse + esAutor</text><polygon fill="#181818" points="287.5,763.6563,277.5,767.6563,287.5,771.6563,283.5,767.6563" style="stroke:#181818;stroke-width:1.0;"/><line style="stroke:#181818;stroke-width:1.0;stroke-dasharray:2.0,2.0;" x1="281.5" x2="443.5" y1="767.6563" y2="767.6563"/><text fill="#000000" font-family="sans-serif" font-size="13" lengthAdjust="spacing" textLength="44" x="293.5" y="762.7998">200 OK</text><polygon fill="#181818" points="57.5,810.3594,47.5,814.3594,57.5,818.3594,53.5,814.3594" style="stroke:#181818;stroke-width:1.0;"/><line style="stroke:#181818;stroke-width:1.0;stroke-dasharray:2.0,2.0;" x1="51.5" x2="275.5" y1="814.3594" y2="814.3594"/><text fill="#000000" font-family="sans-serif" font-size="13" lengthAdjust="spacing" textLength="206" x="63.5" y="793.1514">Presenta ENTREGABLE_ABIERTO</text><text fill="#000000" font-family="sans-serif" font-size="13" lengthAdjust="spacing" textLength="175" x="63.5" y="809.5029">Editar y retirar solo si es autor</text><!--SRC=[TLHTRzim37ptho3wb6mhqkqnm3ROiTi5wvh02JOC210mDfiIooH3Ke8Lm_xxA3ksvNwynB5uH_6Ef1sx0q7Ak3Vu6w4ai5GSIHMCS0dnph01KixG7dS2FB5bUKPOE6rWhava7U-nr2Qgq3Wkk4Bbu2BhA2avF1neYNlQg55EmXnV05guDbevKkLhn9c4ZHQg4TwgCgpsa6XzPiSL3uahigpLYio92weXpSbhwOV8-lyGkZJwaKHcJfMsB78VQsnu_5hk9vJdqDWK3tnwcZeuZKfqk4DBS97uN-bBYaxR6fScKHHQ3vUVEZUd8kP0HI7ACMXSrCOzLhoRmassXWbMFEb1TlANotyRDTFw5rCp2xM5Gl2ynj0fq1_Uimah6E7HFKWYBj09P1mrKBXiRnkKA-06M-e-TTs1AUYTnCYSf-PxCsuZBjy11ody1JN1SxrV7J4kd5Yur6PU2ciS-Q07fOauazrcipMyWUjyyIqmnsxKZozPdW6Ny14-GtoNWY77HgwIWtiyM8hIf5RJNDQt6YPmGd7xV54evGLGK7KuHrCuaU5xSSGisp7n7HnLPz3ycVwG_aJV-qPVozs6n5vh7-v5XyZp-KRv0DQkohipnywAeO91uPtWOPcXEssa_QG81Ok2h9QvK-HB2DqALgDhjJIvjxXkTe1wkUVO0EosRtxhHt_IAL_aQPP3yjDtfnxdD5lDMlM3Yiul5XvRBDc-_7O9ddqKSxALLhBURu5iV9GFGRCFWtt-S7K5Yw_10aiqN2Tl9Laf7o6xM-VPJPpSPjiucMVvUh5HMSaEZHJMJBG1gmyQBCkDVX6r-Gy0]--></g></svg>