<?xml version="1.0" encoding="us-ascii" standalone="no"?><svg xmlns="http://www.w3.org/2000/svg" xmlns:xlink="http://www.w3.org/1999/xlink" contentStyleType="text/css" height="844px" preserveAspectRatio="none" style="width:868px;height:844px;background:#FFFFFF;" version="1.1" viewBox="0 0 868 844" width="868px" zoomAndPan="magnify"><defs/><g><text fill="#000000" font-family="sans-serif" font-size="14" font-weight="bold" lengthAdjust="spacing" textLength="390" x="240.25" y="29.5332">Diagrama de secuencia - Cerrar sesi&#243;n del Coordinador</text><rect fill="#FFFFFF" height="546.5156" style="stroke:#181818;stroke-width:1.0;" width="10" x="323.5" y="206.2734"/><rect fill="#FFFFFF" height="116.4063" style="stroke:#181818;stroke-width:1.0;" width="10" x="500" y="236.625"/><rect fill="#FFFFFF" height="46.7031" style="stroke:#181818;stroke-width:1.0;" width="10" x="660.5" y="506.625"/><rect fill="#FFFFFF" height="107.4063" style="stroke:#181818;stroke-width:1.0;" width="10" x="660.5" y="600.0313"/><rect fill="#FFFFFF" height="30.3516" style="stroke:#181818;stroke-width:1.0;" width="10" x="794.5" y="630.3828"/><rect fill="none" height="463.8125" style="stroke:#000000;stroke-width:1.5;" width="851.5" x="10" y="281.9766"/><line style="stroke:#181818;stroke-width:0.5;stroke-dasharray:5.0,5.0;" x1="62" x2="62" y1="121.2188" y2="762.7891"/><line style="stroke:#181818;stroke-width:0.5;stroke-dasharray:5.0,5.0;" x1="328" x2="328" y1="121.2188" y2="762.7891"/><line style="stroke:#181818;stroke-width:0.5;stroke-dasharray:5.0,5.0;" x1="505" x2="505" y1="121.2188" y2="762.7891"/><line style="stroke:#181818;stroke-width:0.5;stroke-dasharray:5.0,5.0;" x1="665" x2="665" y1="121.2188" y2="762.7891"/><line style="stroke:#181818;stroke-width:0.5;stroke-dasharray:5.0,5.0;" x1="799.5" x2="799.5" y1="121.2188" y2="762.7891"/><text fill="#000000" font-family="sans-serif" font-size="14" lengthAdjust="spacing" textLength="79" x="20" y="118.1426">Coordinador</text><ellipse cx="62.5" cy="52.1094" fill="#E2E2F0" rx="8" ry="8" style="stroke:#181818;stroke-width:0.5;"/><path d="M62.5,60.1094 L62.5,87.1094 M49.5,68.1094 L75.5,68.1094 M62.5,87.1094 L49.5,102.1094 M62.5,87.1094 L75.5,102.1094 " fill="none" style="stroke:#181818;stroke-width:0.5;"/><text fill="#000000" font-family="sans-serif" font-size="14" lengthAdjust="spacing" textLength="79" x="20" y="776.3223">Coordinador</text><ellipse cx="62.5" cy="787.8984" fill="#E2E2F0" rx="8" ry="8" style="stroke:#181818;stroke-width:0.5;"/><path d="M62.5,795.8984 L62.5,822.8984 M49.5,803.8984 L75.5,803.8984 M62.5,822.8984 L49.5,837.8984 M62.5,822.8984 L75.5,837.8984 " fill="none" style="stroke:#181818;stroke-width:0.5;"/><rect fill="#E2E2F0" height="49.2188" rx="2.5" ry="2.5" style="stroke:#181818;stroke-width:0.5;" width="137" x="260" y="71"/><text fill="#000000" font-family="sans-serif" font-size="14" lengthAdjust="spacing" textLength="123" x="267" y="92.5332">PanelPrincipalPage</text><text fill="#000000" font-family="sans-serif" font-size="14" lengthAdjust="spacing" textLength="47" x="305" y="110.1426">(React)</text><rect fill="#E2E2F0" height="49.2188" rx="2.5" ry="2.5" style="stroke:#181818;stroke-width:0.5;" width="137" x="260" y="761.7891"/><text fill="#000000" font-family="sans-serif" font-size="14" lengthAdjust="spacing" textLength="123" x="267" y="783.3223">PanelPrincipalPage</text><text fill="#000000" font-family="sans-serif" font-size="14" lengthAdjust="spacing" textLength="47" x="305" y="800.9316">(React)</text><rect fill="#E2E2F0" height="49.2188" rx="2.5" ry="2.5" style="stroke:#181818;stroke-width:0.5;" width="196" x="407" y="71"/><text fill="#000000" font-family="sans-serif" font-size="14" lengthAdjust="spacing" textLength="182" x="414" y="92.5332">ConfirmarCierreSesionModal</text><text fill="#000000" font-family="sans-serif" font-size="14" lengthAdjust="spacing" textLength="47" x="481.5" y="110.1426">(React)</text><rect fill="#E2E2F0" height="49.2188" rx="2.5" ry="2.5" style="stroke:#181818;stroke-width:0.5;" width="196" x="407" y="761.7891"/><text fill="#000000" font-family="sans-serif" font-size="14" lengthAdjust="spacing" textLength="182" x="414" y="783.3223">ConfirmarCierreSesionModal</text><text fill="#000000" font-family="sans-serif" font-size="14" lengthAdjust="spacing" textLength="47" x="481.5" y="800.9316">(React)</text><rect fill="#E2E2F0" height="49.2188" rx="2.5" ry="2.5" style="stroke:#181818;stroke-width:0.5;" width="105" x="613" y="71"/><text fill="#000000" font-family="sans-serif" font-size="14" lengthAdjust="spacing" textLength="91" x="620" y="92.5332">AuthController</text><text fill="#000000" font-family="sans-serif" font-size="14" lengthAdjust="spacing" textLength="84" x="623.5" y="110.1426">(Spring Boot)</text><rect fill="#E2E2F0" height="49.2188" rx="2.5" ry="2.5" style="stroke:#181818;stroke-width:0.5;" width="105" x="613" y="761.7891"/><text fill="#000000" font-family="sans-serif" font-size="14" lengthAdjust="spacing" textLength="91" x="620" y="783.3223">AuthController</text><text fill="#000000" font-family="sans-serif" font-size="14" lengthAdjust="spacing" textLength="84" x="623.5" y="800.9316">(Spring Boot)</text><rect fill="#E2E2F0" height="31.6094" rx="2.5" ry="2.5" style="stroke:#181818;stroke-width:0.5;" width="104" x="747.5" y="88.6094"/><text fill="#000000" font-family="sans-serif" font-size="14" lengthAdjust="spacing" textLength="90" x="754.5" y="110.1426">SesionService</text><rect fill="#E2E2F0" height="31.6094" rx="2.5" ry="2.5" style="stroke:#181818;stroke-width:0.5;" width="104" x="747.5" y="761.7891"/><text fill="#000000" font-family="sans-serif" font-size="14" lengthAdjust="spacing" textLength="90" x="754.5" y="783.3223">SesionService</text><rect fill="#FFFFFF" height="546.5156" style="stroke:#181818;stroke-width:1.0;" width="10" x="323.5" y="206.2734"/><rect fill="#FFFFFF" height="116.4063" style="stroke:#181818;stroke-width:1.0;" width="10" x="500" y="236.625"/><rect fill="#FFFFFF" height="46.7031" style="stroke:#181818;stroke-width:1.0;" width="10" x="660.5" y="506.625"/><rect fill="#FFFFFF" height="107.4063" style="stroke:#181818;stroke-width:1.0;" width="10" x="660.5" y="600.0313"/><rect fill="#FFFFFF" height="30.3516" style="stroke:#181818;stroke-width:1.0;" width="10" x="794.5" y="630.3828"/><path d="M615,136.2188 L615,178.2188 L848,178.2188 L848,146.2188 L838,136.2188 L615,136.2188 " fill="#FEFFDD" style="stroke:#181818;stroke-width:0.5;"/><path d="M838,136.2188 L838,146.2188 L848,146.2188 L838,136.2188 " fill="#FEFFDD" style="stroke:#181818;stroke-width:0.5;"/><text fill="#000000" font-family="sans-serif" font-size="13" lengthAdjust="spacing" textLength="167" x="631.75" y="154.7139">No accede a Base de Datos:</text><text fill="#000000" font-family="sans-serif" font-size="13" lengthAdjust="spacing" textLength="191" x="631.75" y="171.0654">se invalida la sesi&#243;n y su cookie.</text><polygon fill="#181818" points="311.5,202.2734,321.5,206.2734,311.5,210.2734,315.5,206.2734" style="stroke:#181818;stroke-width:1.0;"/><line style="stroke:#181818;stroke-width:1.0;" x1="62.5" x2="317.5" y1="206.2734" y2="206.2734"/><text fill="#000000" font-family="sans-serif" font-size="13" lengthAdjust="spacing" textLength="122" x="69.5" y="201.417">Solicita cerrar sesi&#243;n</text><polygon fill="#181818" points="488,232.625,498,236.625,488,240.625,492,236.625" style="stroke:#181818;stroke-width:1.0;"/><line style="stroke:#181818;stroke-width:1.0;" x1="333.5" x2="494" y1="236.625" y2="236.625"/><text fill="#000000" font-family="sans-serif" font-size="13" lengthAdjust="spacing" textLength="33" x="340.5" y="231.7686">abrir()</text><polygon fill="#181818" points="73.5,262.9766,63.5,266.9766,73.5,270.9766,69.5,266.9766" style="stroke:#181818;stroke-width:1.0;"/><line style="stroke:#181818;stroke-width:1.0;stroke-dasharray:2.0,2.0;" x1="67.5" x2="499" y1="266.9766" y2="266.9766"/><text fill="#000000" font-family="sans-serif" font-size="13" lengthAdjust="spacing" textLength="120" x="79.5" y="262.1201">Solicita confirmaci&#243;n</text><path d="M10,281.9766 L71,281.9766 L71,290.3281 L61,300.3281 L10,300.3281 L10,281.9766 " fill="#EEEEEE" style="stroke:#000000;stroke-width:1.5;"/><rect fill="none" height="463.8125" style="stroke:#000000;stroke-width:1.5;" width="851.5" x="10" y="281.9766"/><text fill="#000000" font-family="sans-serif" font-size="13" font-weight="bold" lengthAdjust="spacing" textLength="16" x="25" y="296.4717">alt</text><text fill="#000000" font-family="sans-serif" font-size="11" font-weight="bold" lengthAdjust="spacing" textLength="100" x="86" y="295.3955">[Cancela el cierre]</text><polygon fill="#181818" points="488,318.6797,498,322.6797,488,326.6797,492,322.6797" style="stroke:#181818;stroke-width:1.0;"/><line style="stroke:#181818;stroke-width:1.0;" x1="62.5" x2="494" y1="322.6797" y2="322.6797"/><text fill="#000000" font-family="sans-serif" font-size="13" lengthAdjust="spacing" textLength="57" x="69.5" y="317.8232">cancelar()</text><polygon fill="#181818" points="344.5,349.0313,334.5,353.0313,344.5,357.0313,340.5,353.0313" style="stroke:#181818;stroke-width:1.0;"/><line style="stroke:#181818;stroke-width:1.0;stroke-dasharray:2.0,2.0;" x1="338.5" x2="504" y1="353.0313" y2="353.0313"/><text fill="#000000" font-family="sans-serif" font-size="13" lengthAdjust="spacing" textLength="41" x="350.5" y="348.1748">cerrar()</text><polygon fill="#181818" points="73.5,379.3828,63.5,383.3828,73.5,387.3828,69.5,383.3828" style="stroke:#181818;stroke-width:1.0;"/><line style="stroke:#181818;stroke-width:1.0;stroke-dasharray:2.0,2.0;" x1="67.5" x2="322.5" y1="383.3828" y2="383.3828"/><text fill="#000000" font-family="sans-serif" font-size="13" lengthAdjust="spacing" textLength="237" x="79.5" y="378.5264">Mantiene PANEL_PRINCIPAL_ABIERTO</text><line style="stroke:#000000;stroke-width:1.0;stroke-dasharray:2.0,2.0;" x1="10" x2="861.5" y1="392.3828" y2="392.3828"/><text fill="#000000" font-family="sans-serif" font-size="11" font-weight="bold" lengthAdjust="spacing" textLength="108" x="15" y="403.8018">[Confirma el cierre]</text><polygon fill="#181818" points="493,425.5703,503,429.5703,493,433.5703,497,429.5703" style="stroke:#181818;stroke-width:1.0;"/><line style="stroke:#181818;stroke-width:1.0;" x1="62.5" x2="499" y1="429.5703" y2="429.5703"/><text fill="#000000" font-family="sans-serif" font-size="13" lengthAdjust="spacing" textLength="61" x="69.5" y="424.7139">confirmar()</text><polygon fill="#181818" points="344.5,455.9219,334.5,459.9219,344.5,463.9219,340.5,459.9219" style="stroke:#181818;stroke-width:1.0;"/><line style="stroke:#181818;stroke-width:1.0;stroke-dasharray:2.0,2.0;" x1="338.5" x2="504" y1="459.9219" y2="459.9219"/><text fill="#000000" font-family="sans-serif" font-size="13" lengthAdjust="spacing" textLength="95" x="350.5" y="455.0654">confirmarCierre()</text><polygon fill="#181818" points="648.5,502.625,658.5,506.625,648.5,510.625,652.5,506.625" style="stroke:#181818;stroke-width:1.0;"/><line style="stroke:#181818;stroke-width:1.0;" x1="333.5" x2="654.5" y1="506.625" y2="506.625"/><text fill="#000000" font-family="sans-serif" font-size="13" lengthAdjust="spacing" textLength="105" x="340.5" y="485.417">GET /api/auth/csrf</text><text fill="#000000" font-family="sans-serif" font-size="13" lengthAdjust="spacing" textLength="126" x="340.5" y="501.7686">Obtener token vigente</text><polygon fill="#181818" points="344.5,549.3281,334.5,553.3281,344.5,557.3281,340.5,553.3281" style="stroke:#181818;stroke-width:1.0;"/><line style="stroke:#181818;stroke-width:1.0;stroke-dasharray:2.0,2.0;" x1="338.5" x2="664.5" y1="553.3281" y2="553.3281"/><text fill="#000000" font-family="sans-serif" font-size="13" lengthAdjust="spacing" textLength="44" x="350.5" y="532.1201">200 OK</text><text fill="#000000" font-family="sans-serif" font-size="13" lengthAdjust="spacing" textLength="116" x="350.5" y="548.4717">CsrfTokenResponse</text><polygon fill="#181818" points="648.5,596.0313,658.5,600.0313,648.5,604.0313,652.5,600.0313" style="stroke:#181818;stroke-width:1.0;"/><line style="stroke:#181818;stroke-width:1.0;" x1="333.5" x2="654.5" y1="600.0313" y2="600.0313"/><text fill="#000000" font-family="sans-serif" font-size="13" lengthAdjust="spacing" textLength="128" x="340.5" y="578.8232">POST /api/auth/logout</text><text fill="#000000" font-family="sans-serif" font-size="13" lengthAdjust="spacing" textLength="187" x="340.5" y="595.1748">Cookie de sesi&#243;n + token CSRF</text><polygon fill="#181818" points="782.5,626.3828,792.5,630.3828,782.5,634.3828,786.5,630.3828" style="stroke:#181818;stroke-width:1.0;"/><line style="stroke:#181818;stroke-width:1.0;" x1="670.5" x2="788.5" y1="630.3828" y2="630.3828"/><text fill="#000000" font-family="sans-serif" font-size="13" lengthAdjust="spacing" textLength="81" x="677.5" y="625.5264">cerrarSesion()</text><polygon fill="#181818" points="681.5,656.7344,671.5,660.7344,681.5,664.7344,677.5,660.7344" style="stroke:#181818;stroke-width:1.0;"/><line style="stroke:#181818;stroke-width:1.0;stroke-dasharray:2.0,2.0;" x1="675.5" x2="798.5" y1="660.7344" y2="660.7344"/><text fill="#000000" font-family="sans-serif" font-size="13" lengthAdjust="spacing" textLength="100" x="687.5" y="655.8779">Sesi&#243;n invalidada</text><polygon fill="#181818" points="344.5,703.4375,334.5,707.4375,344.5,711.4375,340.5,707.4375" style="stroke:#181818;stroke-width:1.0;"/><line style="stroke:#181818;stroke-width:1.0;stroke-dasharray:2.0,2.0;" x1="338.5" x2="664.5" y1="707.4375" y2="707.4375"/><text fill="#000000" font-family="sans-serif" font-size="13" lengthAdjust="spacing" textLength="90" x="350.5" y="686.2295">204 No Content</text><text fill="#000000" font-family="sans-serif" font-size="13" lengthAdjust="spacing" textLength="100" x="350.5" y="702.5811">Sesi&#243;n invalidada</text><polygon fill="#181818" points="73.5,733.7891,63.5,737.7891,73.5,741.7891,69.5,737.7891" style="stroke:#181818;stroke-width:1.0;"/><line style="stroke:#181818;stroke-width:1.0;stroke-dasharray:2.0,2.0;" x1="67.5" x2="322.5" y1="737.7891" y2="737.7891"/><text fill="#000000" font-family="sans-serif" font-size="13" lengthAdjust="spacing" textLength="175" x="79.5" y="732.9326">Presenta SESION_CERRADA</text><!--SRC=[ZLDDRzim3BthLn0zjTZI5CDEEGHmd7G8rYQ6dME0W9NPLAWg6R8IOBzhFs5_R9I_Ohj3rnmSY-OZ7vyUlVAQOAdmwF0D8ISeIPx8I8KmWPYSGyUXKltvRVYhXjXQbok3kNL2eFJM3K85Eg-aAj1uk4hGa4wSCY6W4ppItbodnAYRAy0Ixfqrdam-HCNMF2ltXYvMt9uoRcxDeyrH3z5LQ0YDJlw5uTvPhSbnUbPmzoCih6r0KQ66aBfyHkwi95KfTKG8Ops1FPCBeAzjU6C1fIGM2c619GN9bkXjEHDyKEQCMkK86ZlLVa5v0cdjgw9RmTD2A2n4JpMOp3ijPf1PpUmyWXoe7yHMPsHEdMpjIy1NQim0dvnorpUNv5gbwWaJpkkrxRTgD9TL9u7QGun64e_1TowhYn30ln7hfgkiSqFZa7JfTfcg7gP9o6d4BmGlqunfFl9DAJ84IRHPFHoITBs9rqdqS8WMwrMwsmhIh7thcyynRats4UMX4J_7VHxSCeCVgnrCiL1JP4jEPUcUzsRxn2bi9szVoS1P7Oan5Roh6EmP0lm_8lFjxWwsF_ScvbAxK22bih2cf36fjiGxIiaswtFIzcXFdWjMpgmtlpRibuPXdANt7z2RDolHtcrzQbJg8CtQX5ZzMirL4SgQVktIv3YUfGV-boBVWRSnhiuyoF_BlPTcxBJ4KSd54B9Ljjvk3l4gJQDb5DPMz0fr6_WN]--></g></svg>