<svg xmlns="http://www.w3.org/2000/svg" xmlns:xlink="http://www.w3.org/1999/xlink" contentStyleType="text/css" height="874px" preserveAspectRatio="none" style="width:869px;height:874px;background:#FFFFFF;" version="1.1" viewBox="0 0 869 874" width="869px" zoomAndPan="magnify"><title>Diagrama de secuencia - Cerrar sesi&#243;n del Coordinador</title><defs/><g><text fill="#000000" font-family="sans-serif" font-size="14" font-weight="bold" lengthAdjust="spacing" textLength="370.3438" x="250.5293" y="29.5332">Diagrama de secuencia - Cerrar sesi&#243;n del Coordinador</text><rect fill="#FFFFFF" height="576.5156" style="stroke:#181818;stroke-width:1;" width="10" x="325.4019" y="206.2734"/><rect fill="#FFFFFF" height="66.7031" style="stroke:#181818;stroke-width:1;" width="10" x="500.7529" y="206.2734"/><rect fill="#FFFFFF" height="46.7031" style="stroke:#181818;stroke-width:1;" width="10" x="659.7524" y="536.625"/><rect fill="#FFFFFF" height="107.4063" style="stroke:#181818;stroke-width:1;" width="10" x="659.7524" y="630.0313"/><rect fill="#FFFFFF" height="30.3516" style="stroke:#181818;stroke-width:1;" width="10" x="795.6577" y="660.3828"/><rect fill="none" height="487.8125" style="stroke:#000000;stroke-width:1.5;" width="852.4023" x="10" y="287.9766"/><line style="stroke:#181818;stroke-width:0.5;stroke-dasharray:5.0,5.0;" x1="61" x2="61" y1="121.2188" y2="792.7891"/><line style="stroke:#181818;stroke-width:0.5;stroke-dasharray:5.0,5.0;" x1="330.3057" x2="330.3057" y1="121.2188" y2="792.7891"/><line style="stroke:#181818;stroke-width:0.5;stroke-dasharray:5.0,5.0;" x1="505.498" x2="505.498" y1="121.2188" y2="792.7891"/><line style="stroke:#181818;stroke-width:0.5;stroke-dasharray:5.0,5.0;" x1="664.0078" x2="664.0078" y1="121.2188" y2="792.7891"/><line style="stroke:#181818;stroke-width:0.5;stroke-dasharray:5.0,5.0;" x1="799.9131" x2="799.9131" y1="121.2188" y2="792.7891"/><text fill="#000000" font-family="sans-serif" font-size="14" lengthAdjust="spacing" textLength="77.0479" x="20" y="118.1426">Coordinador</text><ellipse cx="61.5239" cy="52.1094" fill="#E2E2F0" rx="8" ry="8" style="stroke:#181818;stroke-width:0.5;"/><path d="M61.5239,60.1094 L61.5239,87.1094 M48.5239,68.1094 L74.5239,68.1094 M61.5239,87.1094 L48.5239,102.1094 M61.5239,87.1094 L74.5239,102.1094 " fill="none" style="stroke:#181818;stroke-width:0.5;"/><text fill="#000000" font-family="sans-serif" font-size="14" lengthAdjust="spacing" textLength="77.0479" x="20" y="806.3223">Coordinador</text><ellipse cx="61.5239" cy="817.8984" fill="#E2E2F0" rx="8" ry="8" style="stroke:#181818;stroke-width:0.5;"/><path d="M61.5239,825.8984 L61.5239,852.8984 M48.5239,833.8984 L74.5239,833.8984 M61.5239,852.8984 L48.5239,867.8984 M61.5239,852.8984 L74.5239,867.8984 " fill="none" style="stroke:#181818;stroke-width:0.5;"/><rect fill="#E2E2F0" height="49.2188" rx="2.5" ry="2.5" style="stroke:#181818;stroke-width:0.5;" width="136.1924" x="262.3057" y="71"/><text fill="#000000" font-family="sans-serif" font-size="14" lengthAdjust="spacing" textLength="122.1924" x="269.3057" y="92.5332">PanelPrincipalPage</text><text fill="#000000" font-family="sans-serif" font-size="14" lengthAdjust="spacing" textLength="45.8965" x="307.4536" y="110.1426">(React)</text><rect fill="#E2E2F0" height="49.2188" rx="2.5" ry="2.5" style="stroke:#181818;stroke-width:0.5;" width="136.1924" x="262.3057" y="791.7891"/><text fill="#000000" font-family="sans-serif" font-size="14" lengthAdjust="spacing" textLength="122.1924" x="269.3057" y="813.3223">PanelPrincipalPage</text><text fill="#000000" font-family="sans-serif" font-size="14" lengthAdjust="spacing" textLength="45.8965" x="307.4536" y="830.9316">(React)</text><rect fill="#E2E2F0" height="49.2188" rx="2.5" ry="2.5" style="stroke:#181818;stroke-width:0.5;" width="194.5098" x="408.498" y="71"/><text fill="#000000" font-family="sans-serif" font-size="14" lengthAdjust="spacing" textLength="180.5098" x="415.498" y="92.5332">ConfirmarCierreSesionModal</text><text fill="#000000" font-family="sans-serif" font-size="14" lengthAdjust="spacing" textLength="45.8965" x="482.8047" y="110.1426">(React)</text><rect fill="#E2E2F0" height="49.2188" rx="2.5" ry="2.5" style="stroke:#181818;stroke-width:0.5;" width="194.5098" x="408.498" y="791.7891"/><text fill="#000000" font-family="sans-serif" font-size="14" lengthAdjust="spacing" textLength="180.5098" x="415.498" y="813.3223">ConfirmarCierreSesionModal</text><text fill="#000000" font-family="sans-serif" font-size="14" lengthAdjust="spacing" textLength="45.8965" x="482.8047" y="830.9316">(React)</text><rect fill="#E2E2F0" height="49.2188" rx="2.5" ry="2.5" style="stroke:#181818;stroke-width:0.5;" width="103.4893" x="613.0078" y="71"/><text fill="#000000" font-family="sans-serif" font-size="14" lengthAdjust="spacing" textLength="89.4893" x="620.0078" y="92.5332">AuthController</text><text fill="#000000" font-family="sans-serif" font-size="14" lengthAdjust="spacing" textLength="82.4824" x="623.5112" y="110.1426">(Spring Boot)</text><rect fill="#E2E2F0" height="49.2188" rx="2.5" ry="2.5" style="stroke:#181818;stroke-width:0.5;" width="103.4893" x="613.0078" y="791.7891"/><text fill="#000000" font-family="sans-serif" font-size="14" lengthAdjust="spacing" textLength="89.4893" x="620.0078" y="813.3223">AuthController</text><text fill="#000000" font-family="sans-serif" font-size="14" lengthAdjust="spacing" textLength="82.4824" x="623.5112" y="830.9316">(Spring Boot)</text><rect fill="#E2E2F0" height="31.6094" rx="2.5" ry="2.5" style="stroke:#181818;stroke-width:0.5;" width="103.4893" x="748.9131" y="88.6094"/><text fill="#000000" font-family="sans-serif" font-size="14" lengthAdjust="spacing" textLength="89.4893" x="755.9131" y="110.1426">SesionService</text><rect fill="#E2E2F0" height="31.6094" rx="2.5" ry="2.5" style="stroke:#181818;stroke-width:0.5;" width="103.4893" x="748.9131" y="791.7891"/><text fill="#000000" font-family="sans-serif" font-size="14" lengthAdjust="spacing" textLength="89.4893" x="755.9131" y="813.3223">SesionService</text><rect fill="#FFFFFF" height="576.5156" style="stroke:#181818;stroke-width:1;" width="10" x="325.4019" y="206.2734"/><rect fill="#FFFFFF" height="66.7031" style="stroke:#181818;stroke-width:1;" width="10" x="500.7529" y="206.2734"/><rect fill="#FFFFFF" height="46.7031" style="stroke:#181818;stroke-width:1;" width="10" x="659.7524" y="536.625"/><rect fill="#FFFFFF" height="107.4063" style="stroke:#181818;stroke-width:1;" width="10" x="659.7524" y="630.0313"/><rect fill="#FFFFFF" height="30.3516" style="stroke:#181818;stroke-width:1;" width="10" x="795.6577" y="660.3828"/><path d="M615,136.2188 L615,178.2188 L849,178.2188 L849,146.2188 L839,136.2188 L615,136.2188 " fill="#FEFFDD" style="stroke:#181818;stroke-width:0.5;"/><path d="M839,136.2188 L839,146.2188 L849,146.2188 L839,136.2188 " fill="#FEFFDD" style="stroke:#181818;stroke-width:0.5;"/><text fill="#000000" font-family="sans-serif" font-size="13" lengthAdjust="spacing" textLength="165.4897" x="633.3965" y="154.7139">No accede a Base de Datos:</text><text fill="#000000" font-family="sans-serif" font-size="13" lengthAdjust="spacing" textLength="188.6016" x="633.3965" y="171.0654">se invalida la sesi&#243;n y su cookie.</text><polygon fill="#181818" points="313.4019,202.2734,323.4019,206.2734,313.4019,210.2734,317.4019,206.2734" style="stroke:#181818;stroke-width:1;"/><line style="stroke:#181818;stroke-width:1;" x1="61.5239" x2="319.4019" y1="206.2734" y2="206.2734"/><text fill="#000000" font-family="sans-serif" font-size="13" lengthAdjust="spacing" textLength="120.6563" x="68.5239" y="201.417">Solicita cerrar sesi&#243;n</text><path d="M515,219.2734 L515,245.2734 L708,245.2734 L708,229.2734 L698,219.2734 L515,219.2734 " fill="#FEFFDD" style="stroke:#181818;stroke-width:0.5;"/><path d="M698,219.2734 L698,229.2734 L708,229.2734 L698,219.2734 " fill="#FEFFDD" style="stroke:#181818;stroke-width:0.5;"/><text fill="#000000" font-family="sans-serif" font-size="13" lengthAdjust="spacing" textLength="172.7134" x="521" y="237.7686">Responsabilidad interna: abrir</text><polygon fill="#181818" points="72.5239,268.9766,62.5239,272.9766,72.5239,276.9766,68.5239,272.9766" style="stroke:#181818;stroke-width:1;"/><line style="stroke:#181818;stroke-width:1;stroke-dasharray:2.0,2.0;" x1="66.5239" x2="504.7529" y1="272.9766" y2="272.9766"/><text fill="#000000" font-family="sans-serif" font-size="13" lengthAdjust="spacing" textLength="119.2153" x="78.5239" y="268.1201">Solicita confirmaci&#243;n</text><path d="M10,287.9766 L70.1709,287.9766 L70.1709,296.3281 L60.1709,306.3281 L10,306.3281 L10,287.9766 " fill="#EEEEEE" style="stroke:#000000;stroke-width:1.5;"/><rect fill="none" height="487.8125" style="stroke:#000000;stroke-width:1.5;" width="852.4023" x="10" y="287.9766"/><text fill="#000000" font-family="sans-serif" font-size="13" font-weight="bold" lengthAdjust="spacing" textLength="15.1709" x="25" y="302.4717">alt</text><text fill="#000000" font-family="sans-serif" font-size="11" font-weight="bold" lengthAdjust="spacing" textLength="94.7729" x="85.1709" y="301.3955">[Cancela el cierre]</text><path d="M510,311.3281 L510,337.3281 L726,337.3281 L726,321.3281 L716,311.3281 L510,311.3281 " fill="#FEFFDD" style="stroke:#181818;stroke-width:0.5;"/><path d="M716,311.3281 L716,321.3281 L726,321.3281 L716,311.3281 " fill="#FEFFDD" style="stroke:#181818;stroke-width:0.5;"/><text fill="#000000" font-family="sans-serif" font-size="13" lengthAdjust="spacing" textLength="195.8442" x="516" y="329.8232">Responsabilidad interna: cancelar</text><path d="M340,347.6797 L340,373.6797 L541,373.6797 L541,357.6797 L531,347.6797 L340,347.6797 " fill="#FEFFDD" style="stroke:#181818;stroke-width:0.5;"/><path d="M531,347.6797 L531,357.6797 L541,357.6797 L531,347.6797 " fill="#FEFFDD" style="stroke:#181818;stroke-width:0.5;"/><text fill="#000000" font-family="sans-serif" font-size="13" lengthAdjust="spacing" textLength="180.6543" x="346" y="366.1748">Responsabilidad interna: cerrar</text><polygon fill="#181818" points="72.5239,397.3828,62.5239,401.3828,72.5239,405.3828,68.5239,401.3828" style="stroke:#181818;stroke-width:1;"/><line style="stroke:#181818;stroke-width:1;stroke-dasharray:2.0,2.0;" x1="66.5239" x2="324.4019" y1="401.3828" y2="401.3828"/><text fill="#000000" font-family="sans-serif" font-size="13" lengthAdjust="spacing" textLength="239.8779" x="78.5239" y="396.5264">Mantiene PANEL_PRINCIPAL_ABIERTO</text><line style="stroke:#000000;stroke-width:1;stroke-dasharray:2.0,2.0;" x1="10" x2="862.4023" y1="410.3828" y2="410.3828"/><text fill="#000000" font-family="sans-serif" font-size="11" font-weight="bold" lengthAdjust="spacing" textLength="100.8638" x="15" y="421.8018">[Confirma el cierre]</text><path d="M510,430.2188 L510,456.2188 L731,456.2188 L731,440.2188 L721,430.2188 L510,430.2188 " fill="#FEFFDD" style="stroke:#181818;stroke-width:0.5;"/><path d="M721,430.2188 L721,440.2188 L731,440.2188 L721,430.2188 " fill="#FEFFDD" style="stroke:#181818;stroke-width:0.5;"/><text fill="#000000" font-family="sans-serif" font-size="13" lengthAdjust="spacing" textLength="200.8843" x="516" y="448.7139">Responsabilidad interna: confirmar</text><path d="M340,466.5703 L340,492.5703 L597,492.5703 L597,476.5703 L587,466.5703 L340,466.5703 " fill="#FEFFDD" style="stroke:#181818;stroke-width:0.5;"/><path d="M587,466.5703 L587,476.5703 L597,476.5703 L587,466.5703 " fill="#FEFFDD" style="stroke:#181818;stroke-width:0.5;"/><text fill="#000000" font-family="sans-serif" font-size="13" lengthAdjust="spacing" textLength="236.2788" x="346" y="485.0654">Responsabilidad interna: confirmarCierre</text><polygon fill="#181818" points="647.7524,532.625,657.7524,536.625,647.7524,540.625,651.7524,536.625" style="stroke:#181818;stroke-width:1;"/><line style="stroke:#181818;stroke-width:1;" x1="335.4019" x2="653.7524" y1="536.625" y2="536.625"/><text fill="#000000" font-family="sans-serif" font-size="13" lengthAdjust="spacing" textLength="104.7617" x="342.4019" y="515.417">GET /api/auth/csrf</text><text fill="#000000" font-family="sans-serif" font-size="13" lengthAdjust="spacing" textLength="127.918" x="342.4019" y="531.7686">Obtener token vigente</text><polygon fill="#181818" points="346.4019,579.3281,336.4019,583.3281,346.4019,587.3281,342.4019,583.3281" style="stroke:#181818;stroke-width:1;"/><line style="stroke:#181818;stroke-width:1;stroke-dasharray:2.0,2.0;" x1="340.4019" x2="663.7524" y1="583.3281" y2="583.3281"/><text fill="#000000" font-family="sans-serif" font-size="13" lengthAdjust="spacing" textLength="44.0845" x="352.4019" y="562.1201">200 OK</text><text fill="#000000" font-family="sans-serif" font-size="13" lengthAdjust="spacing" textLength="118.498" x="352.4019" y="578.4717">CsrfTokenResponse</text><polygon fill="#181818" points="647.7524,626.0313,657.7524,630.0313,647.7524,634.0313,651.7524,630.0313" style="stroke:#181818;stroke-width:1;"/><line style="stroke:#181818;stroke-width:1;" x1="335.4019" x2="653.7524" y1="630.0313" y2="630.0313"/><text fill="#000000" font-family="sans-serif" font-size="13" lengthAdjust="spacing" textLength="127.9116" x="342.4019" y="608.8232">POST /api/auth/logout</text><text fill="#000000" font-family="sans-serif" font-size="13" lengthAdjust="spacing" textLength="185.3452" x="342.4019" y="625.1748">Cookie de sesi&#243;n + token CSRF</text><polygon fill="#181818" points="783.6577,656.3828,793.6577,660.3828,783.6577,664.3828,787.6577,660.3828" style="stroke:#181818;stroke-width:1;"/><line style="stroke:#181818;stroke-width:1;" x1="669.7524" x2="789.6577" y1="660.3828" y2="660.3828"/><text fill="#000000" font-family="sans-serif" font-size="13" lengthAdjust="spacing" textLength="82.3545" x="676.7524" y="655.5264">cerrarSesion()</text><polygon fill="#181818" points="680.7524,686.7344,670.7524,690.7344,680.7524,694.7344,676.7524,690.7344" style="stroke:#181818;stroke-width:1;"/><line style="stroke:#181818;stroke-width:1;stroke-dasharray:2.0,2.0;" x1="674.7524" x2="799.6577" y1="690.7344" y2="690.7344"/><text fill="#000000" font-family="sans-serif" font-size="13" lengthAdjust="spacing" textLength="101.9053" x="686.7524" y="685.8779">Sesi&#243;n invalidada</text><polygon fill="#181818" points="346.4019,733.4375,336.4019,737.4375,346.4019,741.4375,342.4019,737.4375" style="stroke:#181818;stroke-width:1;"/><line style="stroke:#181818;stroke-width:1;stroke-dasharray:2.0,2.0;" x1="340.4019" x2="663.7524" y1="737.4375" y2="737.4375"/><text fill="#000000" font-family="sans-serif" font-size="13" lengthAdjust="spacing" textLength="91.0635" x="352.4019" y="716.2295">204 No Content</text><text fill="#000000" font-family="sans-serif" font-size="13" lengthAdjust="spacing" textLength="101.9053" x="352.4019" y="732.5811">Sesi&#243;n invalidada</text><polygon fill="#181818" points="72.5239,763.7891,62.5239,767.7891,72.5239,771.7891,68.5239,767.7891" style="stroke:#181818;stroke-width:1;"/><line style="stroke:#181818;stroke-width:1;stroke-dasharray:2.0,2.0;" x1="66.5239" x2="324.4019" y1="767.7891" y2="767.7891"/><text fill="#000000" font-family="sans-serif" font-size="13" lengthAdjust="spacing" textLength="175.5635" x="78.5239" y="762.9326">Presenta SESION_CERRADA</text><!--SRC=[dLHDZzem4BtdLupsjAkMigfwue0K0bkXxaAKS4H2WpDahVNQo358_Ltz2VrZ7Ji99B3zMWuG3txFxptFn4cd2AOIIukl20L1HU90MaY40IHaBLekLVBd3yt_AaYCiONKM1WRHIYSiRtI7gsJGkvHExX9KPDAhTI-e58iQQrlCsBKtGrW1G_MQ4UwwACIetVIlg9D91zFEHzkz9CfKFNHeTI7nWVtp71dZL9aUNk-vzDBc1ZJWEAzx4Dg-fpiKGeAM-fA56dZ2CoHh0TzRCiB0oW4SL084wp8HpP5PwfHn0kfZwXaWQ3mbDftg0uWZ7cHz2bYj-29ewYJ6Wp6fon6a1l5wXo2wANlmvP7P4sds892Ayjd1sPNvp62ZAgzqHLkfHTIi2H7LkC8S6kbFRFKyOLl6B20ZfwkXkOoH90GeNAGe1R4_hWPHBYX_zGXQhozW9q3-3qo1181VmgwCEABBSMrdoU-QqcQ88qNiyTDciqNoJoD7pVnP3xBLik85DzUstdljzQsxZkyzRl-NqoEVMEEuEji1KFSoo5ozmz5PNThlTpo5kvSPrv8mr6Mn9W0Fp7wIV05_WrvdJL-lh-7vRUrJfXgvGaQqLUYMeehIUaoxsfIfZG7nuHX2EgNJ3qR7ng5IPuz_47Uk9c-jWNgrUrT7z9CgA_LZy5N49GtvxNpMU2bbmxuhKI-00z-4jPivEzqrz5SjcHggM8oX7oMpvUBJJBBidWQ-pT4r24w3Vil]--></g></svg>