<svg xmlns="http://www.w3.org/2000/svg" xmlns:xlink="http://www.w3.org/1999/xlink" contentStyleType="text/css" data-diagram-type="STATE" height="867px" preserveAspectRatio="none" style="width:1494px;height:867px;background:#FFFFFF;" version="1.1" viewBox="0 0 1494 867" width="1494px" zoomAndPan="magnify"><?plantuml 1.2026.3?><defs/><g><g class="entity" data-qualified-name="in1" id="ent0002"><rect fill="#F1F1F1" height="50" rx="12.5" ry="12.5" style="stroke:#181818;stroke-width:0.5;" width="186.4824" x="590" y="7"/><line style="stroke:#181818;stroke-width:0.5;" x1="590" x2="776.4824" y1="34.6094" y2="34.6094"/><text fill="#000000" font-family="sans-serif" font-size="14" lengthAdjust="spacing" textLength="166.4824" x="600" y="26.5332">PROYECTOS_ABIERTOS</text></g><path d="M431,118 L935,118 A12.5,12.5 0 0 1 947.5,130.5 L947.5,145.6094 L418.5,145.6094 L418.5,130.5 A12.5,12.5 0 0 1 431,118" fill="#F1F1F1"/><rect fill="none" height="588.6094" rx="12.5" ry="12.5" style="stroke:#181818;stroke-width:0.5;" width="529" x="418.5" y="118"/><line style="stroke:#181818;stroke-width:0.5;" x1="418.5" x2="947.5" y1="145.6094" y2="145.6094"/><text fill="#000000" font-family="sans-serif" font-size="14" lengthAdjust="spacing" textLength="96.4688" x="634.7656" y="137.5332">crearProyecto()</text><g class="entity" data-qualified-name="crearProyecto.SolicitandoDatos" id="ent0004"><rect fill="#F1F1F1" height="50" rx="12.5" ry="12.5" style="stroke:#181818;stroke-width:0.5;" width="50" x="430.5" y="248.6094"/><line style="stroke:#181818;stroke-width:0.5;" x1="430.5" x2="480.5" y1="276.2188" y2="276.2188"/><text fill="#000000" font-family="sans-serif" font-size="14" lengthAdjust="spacing" textLength="3.8896" x="453.5552" y="268.1426">&#160;</text></g><g class="entity" data-qualified-name="crearProyecto.RegistrandoProyecto" id="ent0005"><rect fill="#F1F1F1" height="50" rx="12.5" ry="12.5" style="stroke:#181818;stroke-width:0.5;" width="50" x="430.5" y="533.6094"/><line style="stroke:#181818;stroke-width:0.5;" x1="430.5" x2="480.5" y1="561.2188" y2="561.2188"/><text fill="#000000" font-family="sans-serif" font-size="14" lengthAdjust="spacing" textLength="3.8896" x="453.5552" y="553.1426">&#160;</text></g><g class="start_entity" data-qualified-name="crearProyecto..start.crearProyecto" data-source-line="11" id="ent0003"><ellipse cx="455.5" cy="166.6094" fill="#222222" rx="10" ry="10" style="stroke:#222222;stroke-width:1;"/></g><g class="end_entity" data-qualified-name="crearProyecto..end.crearProyecto" data-source-line="31" id="ent0006"><ellipse cx="455.5" cy="682.6094" fill="none" rx="11" ry="11" style="stroke:#222222;stroke-width:1;"/><ellipse cx="455.5" cy="682.6094" fill="#222222" rx="6" ry="6" style="stroke:#222222;stroke-width:1;"/></g><!--link *start*crearProyecto to SolicitandoDatos--><g class="link" data-entity-1="ent0003" data-entity-2="ent0004" data-link-type="dependency" data-source-line="11" id="lnk4"><path d="M455.5,176.9294 C455.5,192.7894 455.5,219.5194 455.5,242.2494" fill="none" id="*start*crearProyecto-to-SolicitandoDatos" style="stroke:#008000;stroke-width:1;"/><polygon fill="#008000" points="455.5,248.2494,459.5,239.2494,455.5,243.2494,451.5,239.2494,455.5,248.2494" style="stroke:#008000;stroke-width:1;"/><path d="M460.5,199.6094 L460.5,225.6094 L746.5,225.6094 L746.5,209.6094 L736.5,199.6094 L460.5,199.6094" fill="#FEFFDD" style="stroke:#181818;stroke-width:0.5;"/><path d="M736.5,199.6094 L736.5,209.6094 L746.5,209.6094 L736.5,199.6094" fill="#FEFFDD" style="stroke:#181818;stroke-width:0.5;"/><text fill="#000000" font-family="sans-serif" font-size="13" font-weight="700" lengthAdjust="spacing" textLength="77.9937" x="466.5" y="218.1045">Coordinador</text><text fill="#000000" font-family="sans-serif" font-size="13" lengthAdjust="spacing" textLength="183.5425" x="548.1055" y="218.1045">solicita crear un nuevo proyecto</text></g><!--link SolicitandoDatos to RegistrandoProyecto--><g class="link" data-entity-1="ent0004" data-entity-2="ent0005" data-link-type="dependency" data-source-line="16" id="lnk5"><path d="M455.5,298.7394 C455.5,352.2094 455.5,474.1294 455.5,527.5394" fill="none" id="SolicitandoDatos-to-RegistrandoProyecto" style="stroke:#008000;stroke-width:1;"/><polygon fill="#008000" points="455.5,533.5394,459.5,524.5394,455.5,528.5394,451.5,524.5394,455.5,533.5394" style="stroke:#008000;stroke-width:1;"/><path d="M460.5,321.6094 L460.5,510.6094 L923.5,510.6094 L923.5,331.6094 L913.5,321.6094 L460.5,321.6094" fill="#FEFFDD" style="stroke:#181818;stroke-width:0.5;"/><path d="M913.5,321.6094 L913.5,331.6094 L923.5,331.6094 L913.5,321.6094" fill="#FEFFDD" style="stroke:#181818;stroke-width:0.5;"/><text fill="#000000" font-family="sans-serif" font-size="13" font-weight="700" lengthAdjust="spacing" textLength="49.8608" x="466.5" y="340.1045">Sistema</text><text fill="#000000" font-family="sans-serif" font-size="13" lengthAdjust="spacing" textLength="388.7432" x="519.9727" y="340.1045">presenta el formulario de creaci&#243;n del proyecto y permite introducir:</text><text fill="#000000" font-family="sans-serif" font-size="13" lengthAdjust="spacing" textLength="41.4058" x="466.5" y="356.4561">&#8226; T&#237;tulo</text><text fill="#000000" font-family="sans-serif" font-size="13" lengthAdjust="spacing" textLength="85.4902" x="466.5" y="372.8076">&#8226; Estado inicial</text><text fill="#000000" font-family="sans-serif" font-size="13" lengthAdjust="spacing" textLength="96.332" x="466.5" y="389.1592">&#8226; Fecha de inicio</text><text fill="#000000" font-family="sans-serif" font-size="13" lengthAdjust="spacing" textLength="80.4375" x="466.5" y="405.5107">&#8226; Fecha de fin</text><text fill="#000000" font-family="sans-serif" font-size="13" lengthAdjust="spacing" textLength="76.8066" x="466.5" y="421.8623">&#8226; Descripci&#243;n</text><text fill="#000000" font-family="sans-serif" font-size="13" font-style="italic" lengthAdjust="spacing" textLength="267.3696" x="466.5" y="438.2139">El ID del proyecto se genera autom&#225;ticamente</text><text fill="#000000" font-family="sans-serif" font-size="13" lengthAdjust="spacing" textLength="3.6118" x="466.5" y="454.5654">&#160;</text><text fill="#000000" font-family="sans-serif" font-size="13" lengthAdjust="spacing" textLength="242.0488" x="466.5" y="470.917">y permite solicitar las siguientes acciones:</text><text fill="#000000" font-family="sans-serif" font-size="13" lengthAdjust="spacing" textLength="94.8721" x="466.5" y="487.2686">&#8226; Crear proyecto</text><text fill="#000000" font-family="sans-serif" font-size="13" lengthAdjust="spacing" textLength="45.7412" x="466.5" y="503.6201">&#8226; Volver</text></g><!--link RegistrandoProyecto to *end*crearProyecto--><g class="link" data-entity-1="ent0005" data-entity-2="ent0006" data-link-type="dependency" data-source-line="31" id="lnk7"><path d="M455.5,583.7094 C455.5,610.3794 455.5,646.1094 455.5,665.3094" fill="none" id="RegistrandoProyecto-to-*end*crearProyecto" style="stroke:#008000;stroke-width:1;"/><polygon fill="#008000" points="455.5,671.3094,459.5,662.3094,455.5,666.3094,451.5,662.3094,455.5,671.3094" style="stroke:#008000;stroke-width:1;"/><path d="M460.5,606.6094 L460.5,648.6094 L736.5,648.6094 L736.5,616.6094 L726.5,606.6094 L460.5,606.6094" fill="#FEFFDD" style="stroke:#181818;stroke-width:0.5;"/><path d="M726.5,606.6094 L726.5,616.6094 L736.5,616.6094 L726.5,606.6094" fill="#FEFFDD" style="stroke:#181818;stroke-width:0.5;"/><text fill="#000000" font-family="sans-serif" font-size="13" font-weight="700" lengthAdjust="spacing" textLength="77.9937" x="466.5" y="625.1045">Coordinador</text><text fill="#000000" font-family="sans-serif" font-size="13" lengthAdjust="spacing" textLength="173.4307" x="548.1055" y="625.1045">introduce los datos solicitados</text><text fill="#000000" font-family="sans-serif" font-size="13" font-weight="700" lengthAdjust="spacing" textLength="49.8608" x="466.5" y="641.4561">Sistema</text><text fill="#000000" font-family="sans-serif" font-size="13" lengthAdjust="spacing" textLength="149.5825" x="519.9727" y="641.4561">registra el nuevo proyecto</text></g><g class="entity" data-qualified-name="PROYECTO_ABIERTO" id="ent0008"><rect fill="#F1F1F1" height="50" rx="12.5" ry="12.5" style="stroke:#181818;stroke-width:0.5;" width="167.8066" x="226" y="803"/><line style="stroke:#181818;stroke-width:0.5;" x1="226" x2="393.8066" y1="830.6094" y2="830.6094"/><text fill="#000000" font-family="sans-serif" font-size="14" lengthAdjust="spacing" textLength="147.8066" x="236" y="822.5332">PROYECTO_ABIERTO</text></g><g class="entity" data-qualified-name="PROYECTOS_ABIERTOS" id="ent0011"><rect fill="#F1F1F1" height="50" rx="12.5" ry="12.5" style="stroke:#181818;stroke-width:0.5;" width="186.4824" x="743" y="803"/><line style="stroke:#181818;stroke-width:0.5;" x1="743" x2="929.4824" y1="830.6094" y2="830.6094"/><text fill="#000000" font-family="sans-serif" font-size="14" lengthAdjust="spacing" textLength="166.4824" x="753" y="822.5332">PROYECTOS_ABIERTOS</text></g><g class="entity" data-qualified-name="ENTREGABLES_ABIERTOS" id="ent0015"><rect fill="#F1F1F1" height="50" rx="12.5" ry="12.5" style="stroke:#181818;stroke-width:0.5;" width="202.0547" x="1019" y="803"/><line style="stroke:#181818;stroke-width:0.5;" x1="1019" x2="1221.0547" y1="830.6094" y2="830.6094"/><text fill="#000000" font-family="sans-serif" font-size="14" lengthAdjust="spacing" textLength="182.0547" x="1029" y="822.5332">ENTREGABLES_ABIERTOS</text></g><g class="entity" data-qualified-name="INVESTIGADORES_ABIERTOS" id="ent0017"><rect fill="#F1F1F1" height="50" rx="12.5" ry="12.5" style="stroke:#181818;stroke-width:0.5;" width="223.0479" x="1256.5" y="803"/><line style="stroke:#181818;stroke-width:0.5;" x1="1256.5" x2="1479.5479" y1="830.6094" y2="830.6094"/><text fill="#000000" font-family="sans-serif" font-size="14" lengthAdjust="spacing" textLength="203.0479" x="1266.5" y="822.5332">INVESTIGADORES_ABIERTOS</text></g><!--link in1 to crearProyecto--><g class="link" data-entity-1="ent0002" data-entity-2="ent0003" data-link-type="dependency" data-source-line="4" id="lnk2"><path d="M683,57.25 C683,72.26 683,87.32 683,111.76" fill="none" id="in1-to-crearProyecto" style="stroke:#008000;stroke-width:1;"/><polygon fill="#008000" points="683,117.76,687,108.76,683,112.76,679,108.76,683,117.76" style="stroke:#008000;stroke-width:1;"/></g><!--link crearProyecto to PROYECTO_ABIERTO--><g class="link" data-entity-1="ent0003" data-entity-2="ent0008" data-link-type="dependency" data-source-line="38" id="lnk9"><path d="M418.35,539.96 C228.47,630.7 6,737 6,737 C6,737 6,773 6,773 C6,773 129.8525,795.0006 219.8125,810.9806" fill="none" id="crearProyecto-to-PROYECTO_ABIERTO" style="stroke:#008000;stroke-width:1;"/><polygon fill="#008000" points="225.72,812.03,217.5583,806.5176,220.7971,811.1555,216.1591,814.3943,225.72,812.03" style="stroke:#008000;stroke-width:1;"/><path d="M11,742 L11,768 L180,768 L180,752 L170,742 L11,742" fill="#FEFFDD" style="stroke:#181818;stroke-width:0.5;"/><path d="M170,742 L170,752 L180,752 L170,742" fill="#FEFFDD" style="stroke:#181818;stroke-width:0.5;"/><text fill="#000000" font-family="sans-serif" font-size="13" lengthAdjust="spacing" textLength="148.1353" x="17" y="760.4951">Proyecto creado y abierto</text></g><!--link crearProyecto to PROYECTO_ABIERTO--><g class="link" data-entity-1="ent0003" data-entity-2="ent0008" data-link-type="dependency" data-source-line="43" id="lnk10"><path d="M418.24,600.51 C316.82,672.14 225,737 225,737 C225,737 225,773 225,773 C225,773 244.2743,785.2547 266.9143,799.6247" fill="none" id="crearProyecto-to-PROYECTO_ABIERTO-1" style="stroke:#008000;stroke-width:1;"/><polygon fill="#008000" points="271.98,802.84,266.5249,794.6399,267.7585,800.1606,262.2378,801.3942,271.98,802.84" style="stroke:#008000;stroke-width:1;"/><path d="M230,742 L230,768 L343,768 L343,752 L333,742 L230,742" fill="#FEFFDD" style="stroke:#181818;stroke-width:0.5;"/><path d="M333,742 L333,752 L343,752 L333,742" fill="#FEFFDD" style="stroke:#181818;stroke-width:0.5;"/><text fill="#000000" font-family="sans-serif" font-size="13" lengthAdjust="spacing" textLength="92.479" x="236" y="760.4951">editarProyecto()</text></g><!--link crearProyecto to PROYECTO_ABIERTO--><g class="link" data-entity-1="ent0003" data-entity-2="ent0008" data-link-type="dependency" data-source-line="53" id="lnk13"><path d="M418.46,703.6 C399.71,724.16 388,737 388,737 C388,737 357.94,771.6863 334.83,798.3463" fill="none" id="crearProyecto-to-PROYECTO_ABIERTO-2" style="stroke:#008000;stroke-width:1;"/><polygon fill="#008000" points="330.9,802.88,339.8175,798.6994,334.175,799.1019,333.7726,793.4594,330.9,802.88" style="stroke:#008000;stroke-width:1;"/><path d="M393,742 L393,768 L538,768 L538,752 L528,742 L393,742" fill="#FEFFDD" style="stroke:#181818;stroke-width:0.5;"/><path d="M528,742 L528,752 L538,752 L528,742" fill="#FEFFDD" style="stroke:#181818;stroke-width:0.5;"/><text fill="#000000" font-family="sans-serif" font-size="13" lengthAdjust="spacing" textLength="124.2871" x="399" y="760.4951">agregarInvestigador()</text></g><!--link crearProyecto to PROYECTO_ABIERTO--><g class="link" data-entity-1="ent0003" data-entity-2="ent0008" data-link-type="dependency" data-source-line="58" id="lnk14"><path d="M571.94,707.06 C557.17,746.12 547,773 547,773 C547,773 468.2001,790.9573 400.0701,806.4773" fill="none" id="crearProyecto-to-PROYECTO_ABIERTO-3" style="stroke:#008000;stroke-width:1;"/><polygon fill="#008000" points="394.22,807.81,403.8836,809.7111,399.0951,806.6995,402.1068,801.9109,394.22,807.81" style="stroke:#008000;stroke-width:1;"/><path d="M564,742 L564,768 L709,768 L709,752 L699,742 L564,742" fill="#FEFFDD" style="stroke:#181818;stroke-width:0.5;"/><path d="M699,742 L699,752 L709,752 L699,742" fill="#FEFFDD" style="stroke:#181818;stroke-width:0.5;"/><text fill="#000000" font-family="sans-serif" font-size="13" lengthAdjust="spacing" textLength="124.9917" x="570" y="760.4951">eliminarInvestigador()</text></g><!--link crearProyecto to PROYECTOS_ABIERTOS--><g class="link" data-entity-1="ent0003" data-entity-2="ent0011" data-link-type="dependency" data-source-line="48" id="lnk12"><path d="M760.58,707.06 C770.9,746.12 778,773 778,773 C778,773 790.2179,784.3823 805.6579,798.7523" fill="none" id="crearProyecto-to-PROYECTOS_ABIERTOS" style="stroke:#008000;stroke-width:1;"/><polygon fill="#008000" points="810.05,802.84,806.187,793.7804,806.3899,799.4336,800.7367,799.6365,810.05,802.84" style="stroke:#008000;stroke-width:1;"/><path d="M783,742 L783,768 L909,768 L909,752 L899,742 L783,742" fill="#FEFFDD" style="stroke:#181818;stroke-width:0.5;"/><path d="M899,742 L899,752 L909,752 L899,742" fill="#FEFFDD" style="stroke:#181818;stroke-width:0.5;"/><text fill="#000000" font-family="sans-serif" font-size="13" lengthAdjust="spacing" textLength="105.4727" x="789" y="760.4951">eliminarProyecto()</text></g><!--link crearProyecto to PROYECTOS_ABIERTOS--><g class="link" data-entity-1="ent0003" data-entity-2="ent0011" data-link-type="dependency" data-source-line="73" id="lnk19"><path d="M896.31,707.15 C909.74,725.63 918,737 918,737 C918,737 918,773 918,773 C918,773 899.5323,785.172 877.6923,799.542" fill="none" id="crearProyecto-to-PROYECTOS_ABIERTOS-1" style="stroke:#008000;stroke-width:1;"/><polygon fill="#008000" points="872.68,802.84,882.3971,801.2346,876.8569,800.0917,877.9999,794.5515,872.68,802.84" style="stroke:#008000;stroke-width:1;"/><path d="M923,742 L923,768 L1036,768 L1036,752 L1026,742 L923,742" fill="#FEFFDD" style="stroke:#181818;stroke-width:0.5;"/><path d="M1026,742 L1026,752 L1036,752 L1026,742" fill="#FEFFDD" style="stroke:#181818;stroke-width:0.5;"/><text fill="#000000" font-family="sans-serif" font-size="13" lengthAdjust="spacing" textLength="92.4663" x="929" y="760.4951">abrirProyectos()</text></g><!--link crearProyecto to ENTREGABLES_ABIERTOS--><g class="link" data-entity-1="ent0003" data-entity-2="ent0015" data-link-type="dependency" data-source-line="63" id="lnk16"><path d="M947.53,647.32 C1005.01,698.12 1049,737 1049,737 C1049,737 1076.224,771.5092 1097.254,798.1692" fill="none" id="crearProyecto-to-ENTREGABLES_ABIERTOS" style="stroke:#008000;stroke-width:1;"/><polygon fill="#008000" points="1100.97,802.88,1098.5366,793.3365,1097.8734,798.9543,1092.2555,798.2911,1100.97,802.88" style="stroke:#008000;stroke-width:1;"/><path d="M1082,742 L1082,768 L1207,768 L1207,752 L1197,742 L1082,742" fill="#FEFFDD" style="stroke:#181818;stroke-width:0.5;"/><path d="M1197,742 L1197,752 L1207,752 L1197,742" fill="#FEFFDD" style="stroke:#181818;stroke-width:0.5;"/><text fill="#000000" font-family="sans-serif" font-size="13" lengthAdjust="spacing" textLength="104.0444" x="1088" y="760.4951">abrirEntregables()</text></g><!--link crearProyecto to INVESTIGADORES_ABIERTOS--><g class="link" data-entity-1="ent0003" data-entity-2="ent0017" data-link-type="dependency" data-source-line="68" id="lnk18"><path d="M947.57,572.88 C1083.12,654.54 1220,737 1220,737 C1220,737 1279.3735,773.1025 1323.2135,799.7625" fill="none" id="crearProyecto-to-INVESTIGADORES_ABIERTOS" style="stroke:#008000;stroke-width:1;"/><polygon fill="#008000" points="1328.34,802.88,1322.7286,794.786,1324.0679,800.2821,1318.5719,801.6214,1328.34,802.88" style="stroke:#008000;stroke-width:1;"/><path d="M1281,742 L1281,768 L1421,768 L1421,752 L1411,742 L1281,742" fill="#FEFFDD" style="stroke:#181818;stroke-width:0.5;"/><path d="M1411,742 L1411,752 L1421,752 L1411,742" fill="#FEFFDD" style="stroke:#181818;stroke-width:0.5;"/><text fill="#000000" font-family="sans-serif" font-size="13" lengthAdjust="spacing" textLength="119.2153" x="1287" y="760.4951">abrirInvestigadores()</text></g><?plantuml-src hPJ1Qjj048RlUeh1kRI5K7ejmU3OQZ2KEDWcK48eA-r47RBQ5RChWoc5lafxxwcFu3VfatHtRLcHuoIkgNpHZcR_-NR-MTjxqfLWKO8YZMvP8LH6BSCYIQmJ3e7qEn0MUbVJoQTqE9_CFW_En-dKl_IIyEtqvgHWH7rxseUSKV0LcoNcpZG2dM2KwaHUlUx1roG1_wppU_xdisP6KKvEQ6b6mXdxE6EA1Ld78QEj6R9ktjnsiFPAQUELZ0u7lu-1iwm_D8ObQI4DdxtD-c0t6zTdW5g3hd5Xe6hAXNsePHHRrzwjrG7PH_mKoyndOYaYHyLeKNiEL71dkAoLO38WrytDQVLR-uNQSi4IAkIIedsEZQnpulTH-S_tdp1V_NArCjjrwjigZK_rv49jmnym_o92aVZ1F8xVaTu6HsXpfYgoh8z0_LJ1UDG5imW5QcG1edQcNFrmb8lIdstJlXQywJs3ybvRAceAQHP4xc4qslOym-XEnvGGlZPgWRp7epqsT6poytFmY3JzHL3UR1ajRz3bPjHstEHD-U3cS_FqBKcwT-SXOtCTczkOT62tMuA03FCWCaBs5TfE7AkDChZINjz_acp_FNP45PM-gyVAxYSLFgyGFDOBj8wAuDb_qMrWZn1EB-VJz69m_Z5zgXCYO-BKJvL7pnJQ0uN7bzVfR3w-68mcq-Ur7r8VBF-IVr6vsTaH_Gi0?></g></svg>