<svg xmlns="http://www.w3.org/2000/svg" xmlns:xlink="http://www.w3.org/1999/xlink" contentStyleType="text/css" height="752px" preserveAspectRatio="none" style="width:1735px;height:752px;background:#FFFFFF;" version="1.1" viewBox="0 0 1735 752" width="1735px" zoomAndPan="magnify"><title>Diagrama de secuencia - abrirConvocatorias</title><defs/><g><text fill="#000000" font-family="sans-serif" font-size="14" font-weight="bold" lengthAdjust="spacing" textLength="296.4473" x="721.1553" y="29.5332">Diagrama de secuencia - abrirConvocatorias</text><line style="stroke:#181818;stroke-width:0.5;stroke-dasharray:5.0,5.0;" x1="46" x2="46" y1="121.2188" y2="670.25"/><line style="stroke:#181818;stroke-width:0.5;stroke-dasharray:5.0,5.0;" x1="311.7212" x2="311.7212" y1="121.2188" y2="670.25"/><line style="stroke:#181818;stroke-width:0.5;stroke-dasharray:5.0,5.0;" x1="663.3193" x2="663.3193" y1="121.2188" y2="670.25"/><line style="stroke:#181818;stroke-width:0.5;stroke-dasharray:5.0,5.0;" x1="896.7446" x2="896.7446" y1="121.2188" y2="670.25"/><line style="stroke:#181818;stroke-width:0.5;stroke-dasharray:5.0,5.0;" x1="1058.2339" x2="1058.2339" y1="121.2188" y2="670.25"/><line style="stroke:#181818;stroke-width:0.5;stroke-dasharray:5.0,5.0;" x1="1237.6606" x2="1237.6606" y1="121.2188" y2="670.25"/><line style="stroke:#181818;stroke-width:0.5;stroke-dasharray:5.0,5.0;" x1="1400.2808" x2="1400.2808" y1="121.2188" y2="670.25"/><line style="stroke:#181818;stroke-width:0.5;stroke-dasharray:5.0,5.0;" x1="1684.9238" x2="1684.9238" y1="121.2188" y2="670.25"/><text fill="#000000" font-family="sans-serif" font-size="14" lengthAdjust="spacing" textLength="77.0479" x="5" y="118.1426">Coordinador</text><ellipse cx="46.5239" cy="52.1094" fill="#E2E2F0" rx="8" ry="8" style="stroke:#181818;stroke-width:0.5;"/><path d="M46.5239,60.1094 L46.5239,87.1094 M33.5239,68.1094 L59.5239,68.1094 M46.5239,87.1094 L33.5239,102.1094 M46.5239,87.1094 L59.5239,102.1094 " fill="none" style="stroke:#181818;stroke-width:0.5;"/><text fill="#000000" font-family="sans-serif" font-size="14" lengthAdjust="spacing" textLength="77.0479" x="5" y="683.7832">Coordinador</text><ellipse cx="46.5239" cy="695.3594" fill="#E2E2F0" rx="8" ry="8" style="stroke:#181818;stroke-width:0.5;"/><path d="M46.5239,703.3594 L46.5239,730.3594 M33.5239,711.3594 L59.5239,711.3594 M46.5239,730.3594 L33.5239,745.3594 M46.5239,730.3594 L59.5239,745.3594 " fill="none" style="stroke:#181818;stroke-width:0.5;"/><rect fill="#E2E2F0" height="49.2188" rx="2.5" ry="2.5" style="stroke:#181818;stroke-width:0.5;" width="164.1924" x="229.7212" y="71"/><text fill="#000000" font-family="sans-serif" font-size="14" lengthAdjust="spacing" textLength="150.1924" x="236.7212" y="92.5332">abrirConvocatoriasPage</text><text fill="#000000" font-family="sans-serif" font-size="14" lengthAdjust="spacing" textLength="45.8965" x="288.8691" y="110.1426">(React)</text><rect fill="#E2E2F0" height="49.2188" rx="2.5" ry="2.5" style="stroke:#181818;stroke-width:0.5;" width="164.1924" x="229.7212" y="669.25"/><text fill="#000000" font-family="sans-serif" font-size="14" lengthAdjust="spacing" textLength="150.1924" x="236.7212" y="690.7832">abrirConvocatoriasPage</text><text fill="#000000" font-family="sans-serif" font-size="14" lengthAdjust="spacing" textLength="45.8965" x="288.8691" y="708.3926">(React)</text><rect fill="#E2E2F0" height="49.2188" rx="2.5" ry="2.5" style="stroke:#181818;stroke-width:0.5;" width="157.1787" x="585.3193" y="71"/><text fill="#000000" font-family="sans-serif" font-size="14" lengthAdjust="spacing" textLength="143.1787" x="592.3193" y="92.5332">ConvocatoriaController</text><text fill="#000000" font-family="sans-serif" font-size="14" lengthAdjust="spacing" textLength="82.4824" x="622.6675" y="110.1426">(Spring Boot)</text><rect fill="#E2E2F0" height="49.2188" rx="2.5" ry="2.5" style="stroke:#181818;stroke-width:0.5;" width="157.1787" x="585.3193" y="669.25"/><text fill="#000000" font-family="sans-serif" font-size="14" lengthAdjust="spacing" textLength="143.1787" x="592.3193" y="690.7832">ConvocatoriaController</text><text fill="#000000" font-family="sans-serif" font-size="14" lengthAdjust="spacing" textLength="82.4824" x="622.6675" y="708.3926">(Spring Boot)</text><rect fill="#E2E2F0" height="31.6094" rx="2.5" ry="2.5" style="stroke:#181818;stroke-width:0.5;" width="103.4893" x="845.7446" y="88.6094"/><text fill="#000000" font-family="sans-serif" font-size="14" lengthAdjust="spacing" textLength="89.4893" x="852.7446" y="110.1426">SesionService</text><rect fill="#E2E2F0" height="31.6094" rx="2.5" ry="2.5" style="stroke:#181818;stroke-width:0.5;" width="103.4893" x="845.7446" y="669.25"/><text fill="#000000" font-family="sans-serif" font-size="14" lengthAdjust="spacing" textLength="89.4893" x="852.7446" y="690.7832">SesionService</text><rect fill="#E2E2F0" height="31.6094" rx="2.5" ry="2.5" style="stroke:#181818;stroke-width:0.5;" width="198.4268" x="959.2339" y="88.6094"/><text fill="#000000" font-family="sans-serif" font-size="14" lengthAdjust="spacing" textLength="184.4268" x="966.2339" y="110.1426">ConsultaConvocatoriaService</text><rect fill="#E2E2F0" height="31.6094" rx="2.5" ry="2.5" style="stroke:#181818;stroke-width:0.5;" width="198.4268" x="959.2339" y="669.25"/><text fill="#000000" font-family="sans-serif" font-size="14" lengthAdjust="spacing" textLength="184.4268" x="966.2339" y="690.7832">ConsultaConvocatoriaService</text><rect fill="#E2E2F0" height="31.6094" rx="2.5" ry="2.5" style="stroke:#181818;stroke-width:0.5;" width="141.6201" x="1167.6606" y="88.6094"/><text fill="#000000" font-family="sans-serif" font-size="14" lengthAdjust="spacing" textLength="127.6201" x="1174.6606" y="110.1426">PoliticaConvocatoria</text><rect fill="#E2E2F0" height="31.6094" rx="2.5" ry="2.5" style="stroke:#181818;stroke-width:0.5;" width="141.6201" x="1167.6606" y="669.25"/><text fill="#000000" font-family="sans-serif" font-size="14" lengthAdjust="spacing" textLength="127.6201" x="1174.6606" y="690.7832">PoliticaConvocatoria</text><rect fill="#E2E2F0" height="31.6094" rx="2.5" ry="2.5" style="stroke:#181818;stroke-width:0.5;" width="163.4063" x="1319.2808" y="88.6094"/><text fill="#000000" font-family="sans-serif" font-size="14" lengthAdjust="spacing" textLength="149.4063" x="1326.2808" y="110.1426">ConvocatoriaRepository</text><rect fill="#E2E2F0" height="31.6094" rx="2.5" ry="2.5" style="stroke:#181818;stroke-width:0.5;" width="163.4063" x="1319.2808" y="669.25"/><text fill="#000000" font-family="sans-serif" font-size="14" lengthAdjust="spacing" textLength="149.4063" x="1326.2808" y="690.7832">ConvocatoriaRepository</text><text fill="#000000" font-family="sans-serif" font-size="14" lengthAdjust="spacing" textLength="91.834" x="1636.9238" y="118.1426">Base de Datos</text><path d="M1667.8408,67.6094 C1667.8408,57.6094 1685.8408,57.6094 1685.8408,57.6094 C1685.8408,57.6094 1703.8408,57.6094 1703.8408,67.6094 L1703.8408,93.6094 C1703.8408,103.6094 1685.8408,103.6094 1685.8408,103.6094 C1685.8408,103.6094 1667.8408,103.6094 1667.8408,93.6094 L1667.8408,67.6094 " fill="#E2E2F0" style="stroke:#181818;stroke-width:1.5;"/><path d="M1667.8408,67.6094 C1667.8408,77.6094 1685.8408,77.6094 1685.8408,77.6094 C1685.8408,77.6094 1703.8408,77.6094 1703.8408,67.6094 " fill="none" style="stroke:#181818;stroke-width:1.5;"/><text fill="#000000" font-family="sans-serif" font-size="14" lengthAdjust="spacing" textLength="91.834" x="1636.9238" y="683.7832">Base de Datos</text><path d="M1667.8408,696.8594 C1667.8408,686.8594 1685.8408,686.8594 1685.8408,686.8594 C1685.8408,686.8594 1703.8408,686.8594 1703.8408,696.8594 L1703.8408,722.8594 C1703.8408,732.8594 1685.8408,732.8594 1685.8408,732.8594 C1685.8408,732.8594 1667.8408,732.8594 1667.8408,722.8594 L1667.8408,696.8594 " fill="#E2E2F0" style="stroke:#181818;stroke-width:1.5;"/><path d="M1667.8408,696.8594 C1667.8408,706.8594 1685.8408,706.8594 1685.8408,706.8594 C1685.8408,706.8594 1703.8408,706.8594 1703.8408,696.8594 " fill="none" style="stroke:#181818;stroke-width:1.5;"/><polygon fill="#181818" points="299.8174,149.5703,309.8174,153.5703,299.8174,157.5703,303.8174,153.5703" style="stroke:#181818;stroke-width:1;"/><line style="stroke:#181818;stroke-width:1;" x1="46.5239" x2="305.8174" y1="153.5703" y2="153.5703"/><text fill="#000000" font-family="sans-serif" font-size="13" lengthAdjust="spacing" textLength="163.2808" x="53.5239" y="148.7139">Solicita abrirConvocatorias()</text><polygon fill="#181818" points="651.9087,179.9219,661.9087,183.9219,651.9087,187.9219,655.9087,183.9219" style="stroke:#181818;stroke-width:1;"/><line style="stroke:#181818;stroke-width:1;" x1="311.8174" x2="657.9087" y1="183.9219" y2="183.9219"/><text fill="#000000" font-family="sans-serif" font-size="13" lengthAdjust="spacing" textLength="328.0913" x="318.8174" y="179.0654">GET /api/convocatorias?texto=&amp;area=&amp;estado= + cookie</text><polygon fill="#181818" points="885.4893,210.2734,895.4893,214.2734,885.4893,218.2734,889.4893,214.2734" style="stroke:#181818;stroke-width:1;"/><line style="stroke:#181818;stroke-width:1;" x1="663.9087" x2="891.4893" y1="214.2734" y2="214.2734"/><text fill="#000000" font-family="sans-serif" font-size="13" lengthAdjust="spacing" textLength="209.5806" x="670.9087" y="209.417">obtenerSesionActual(authentication)</text><polygon fill="#181818" points="674.9087,240.625,664.9087,244.625,674.9087,248.625,670.9087,244.625" style="stroke:#181818;stroke-width:1;"/><line style="stroke:#181818;stroke-width:1;stroke-dasharray:2.0,2.0;" x1="668.9087" x2="896.4893" y1="244.625" y2="244.625"/><text fill="#000000" font-family="sans-serif" font-size="13" lengthAdjust="spacing" textLength="142.3779" x="680.9087" y="239.7686">Coordinador autenticado</text><polygon fill="#181818" points="1046.4473,270.9766,1056.4473,274.9766,1046.4473,278.9766,1050.4473,274.9766" style="stroke:#181818;stroke-width:1;"/><line style="stroke:#181818;stroke-width:1;" x1="663.9087" x2="1052.4473" y1="274.9766" y2="274.9766"/><text fill="#000000" font-family="sans-serif" font-size="13" lengthAdjust="spacing" textLength="96.7891" x="670.9087" y="270.1201">listar(filtro, actor)</text><polygon fill="#181818" points="1226.4707,301.3281,1236.4707,305.3281,1226.4707,309.3281,1230.4707,305.3281" style="stroke:#181818;stroke-width:1;"/><line style="stroke:#181818;stroke-width:1;" x1="1058.4473" x2="1232.4707" y1="305.3281" y2="305.3281"/><text fill="#000000" font-family="sans-serif" font-size="13" lengthAdjust="spacing" textLength="119.9326" x="1065.4473" y="300.4717">exigirConsulta(actor)</text><polygon fill="#181818" points="1388.9839,331.6797,1398.9839,335.6797,1388.9839,339.6797,1392.9839,335.6797" style="stroke:#181818;stroke-width:1;"/><line style="stroke:#181818;stroke-width:1;" x1="1058.4473" x2="1394.9839" y1="335.6797" y2="335.6797"/><text fill="#000000" font-family="sans-serif" font-size="13" lengthAdjust="spacing" textLength="225.3926" x="1065.4473" y="330.8232">findAllByOrderByFechaCierreAsc(filtro)</text><polygon fill="#181818" points="1673.8408,427.4375,1683.8408,431.4375,1673.8408,435.4375,1677.8408,431.4375" style="stroke:#181818;stroke-width:1;"/><line style="stroke:#181818;stroke-width:1;" x1="1400.9839" x2="1679.8408" y1="431.4375" y2="431.4375"/><text fill="#000000" font-family="sans-serif" font-size="13" lengthAdjust="spacing" textLength="260.8569" x="1407.9839" y="361.1748">SELECT id, titulo, area, estado, fecha_cierre,</text><text fill="#000000" font-family="sans-serif" font-size="13" lengthAdjust="spacing" textLength="184.2788" x="1407.9839" y="377.5264">referencia_externa, incorporada</text><text fill="#000000" font-family="sans-serif" font-size="13" lengthAdjust="spacing" textLength="122.0908" x="1407.9839" y="393.8779">FROM convocatorias</text><text fill="#000000" font-family="sans-serif" font-size="13" lengthAdjust="spacing" textLength="168.7017" x="1407.9839" y="410.2295">WHERE coincide_filtro = true</text><text fill="#000000" font-family="sans-serif" font-size="13" lengthAdjust="spacing" textLength="143.0508" x="1407.9839" y="426.5811">ORDER BY fecha_cierre</text><polygon fill="#181818" points="1411.9839,457.7891,1401.9839,461.7891,1411.9839,465.7891,1407.9839,461.7891" style="stroke:#181818;stroke-width:1;"/><line style="stroke:#181818;stroke-width:1;stroke-dasharray:2.0,2.0;" x1="1405.9839" x2="1684.8408" y1="461.7891" y2="461.7891"/><text fill="#000000" font-family="sans-serif" font-size="13" lengthAdjust="spacing" textLength="151.7534" x="1417.9839" y="456.9326">Convocatorias disponibles</text><polygon fill="#181818" points="1069.4473,488.1406,1059.4473,492.1406,1069.4473,496.1406,1065.4473,492.1406" style="stroke:#181818;stroke-width:1;"/><line style="stroke:#181818;stroke-width:1;stroke-dasharray:2.0,2.0;" x1="1063.4473" x2="1399.9839" y1="492.1406" y2="492.1406"/><text fill="#000000" font-family="sans-serif" font-size="13" lengthAdjust="spacing" textLength="151.7534" x="1075.4473" y="487.2842">Convocatorias disponibles</text><polygon fill="#181818" points="674.9087,518.4922,664.9087,522.4922,674.9087,526.4922,670.9087,522.4922" style="stroke:#181818;stroke-width:1;"/><line style="stroke:#181818;stroke-width:1;stroke-dasharray:2.0,2.0;" x1="668.9087" x2="1057.4473" y1="522.4922" y2="522.4922"/><text fill="#000000" font-family="sans-serif" font-size="13" lengthAdjust="spacing" textLength="167.6479" x="680.9087" y="517.6357">List&lt;ConvocatoriaResumen&gt;</text><polygon fill="#181818" points="322.8174,548.8438,312.8174,552.8438,322.8174,556.8438,318.8174,552.8438" style="stroke:#181818;stroke-width:1;"/><line style="stroke:#181818;stroke-width:1;stroke-dasharray:2.0,2.0;" x1="316.8174" x2="662.9087" y1="552.8438" y2="552.8438"/><text fill="#000000" font-family="sans-serif" font-size="13" lengthAdjust="spacing" textLength="254.3506" x="328.8174" y="547.9873">200 OK (ConvocatoriaResumenResponse[])</text><polygon fill="#181818" points="57.5239,579.1953,47.5239,583.1953,57.5239,587.1953,53.5239,583.1953" style="stroke:#181818;stroke-width:1;"/><line style="stroke:#181818;stroke-width:1;stroke-dasharray:2.0,2.0;" x1="51.5239" x2="310.8174" y1="583.1953" y2="583.1953"/><text fill="#000000" font-family="sans-serif" font-size="13" lengthAdjust="spacing" textLength="241.2935" x="63.5239" y="578.3389">Presenta CONVOCATORIAS_ABIERTAS</text><path d="M316,596.1953 L316,655.1953 L548,655.1953 L548,606.1953 L538,596.1953 L316,596.1953 " fill="#FEFFDD" style="stroke:#181818;stroke-width:0.5;"/><path d="M538,596.1953 L538,606.1953 L548,606.1953 L538,596.1953 " fill="#FEFFDD" style="stroke:#181818;stroke-width:0.5;"/><text fill="#000000" font-family="sans-serif" font-size="13" lengthAdjust="spacing" textLength="211.7197" x="322" y="614.6904">La misma secuencia se utiliza desde</text><text fill="#000000" font-family="sans-serif" font-size="13" lengthAdjust="spacing" textLength="192.8989" x="322" y="631.042">PANEL_PRINCIPAL_ABIERTO y</text><text fill="#000000" font-family="sans-serif" font-size="13" lengthAdjust="spacing" textLength="171.9199" x="322" y="647.3936">CONVOCATORIA_ABIERTA.</text><!--SRC=[TLHTRzim37pNho3wK2HOkXPx39OEjkDkmR8wS88Dmp84Yioan5p9aEIYwQyVPIUjZROljZxkUDIHaYTV8an9xgsybr0WE5GrQaKIBa1kBTd4w0UZf3UMf1D2AXv1OemjICl2M559wqbH9RM7izUKXTpZMWzoPERm3AI36skqHrtqcLqIZxqrPOcMcSlAajv3RCoH7rNKfoxHaT5Bj0-ai86qAwy4N5rwsHNgSvfndxGm9V6iHshGOKCTtZz2ZfLnnCD30mzJKKWljz8XdCNXosvF6UmQm3GMekCgN5m_-pI6PH0ZBz-eo60eJhZ0OM_6y3LTmQMiw59raLyyFdepEPSMvUGSdMUT2Nm0PSm_Gi7C4A1rRWncoo7HjjD8-LgM0rdxEzJ13i-BGz5kmiL9jvi_OrjeOLv2DmQFeIGMjuCTbLpb4JGj5Q8rsm7PcZi6VAHzSzwcS8FNm63h67QaYwWiuqDc2xJnuGRLdKm8hSN8gQFEK0Hm84rZTZITfyaAg1Y19r-N8GtsPGIjBoFOXHWRrGGPhRN57ThcNcpOHRIQeQILiPMnif1hVPDdFw3dzrh_-fRcAIyoa0hSj7d01Boj-Kfa-JJD8VxTanBJkF6pFLYlqb2GguocROdkU9QkgUzZd_qwrMdE_d_kDwkhxr5VjvNgjTwdgol8liFW3JZ_MCFXdx_T7cHsfm_6iB3ek1Ca9Ddjpoo9Lba-YvQRA9wb-IfQ2g6DHx2ql_DWTY-Fmrp2FJb-b5vU9BupjQUIdi9BvGeKY-WsdMyM-UmscIsY-J5e1WVH5JjfVHGXmI3t7m00]--></g></svg>