<svg xmlns="http://www.w3.org/2000/svg" xmlns:xlink="http://www.w3.org/1999/xlink" contentStyleType="text/css" height="2094px" preserveAspectRatio="none" style="width:2299px;height:2094px;background:#FFFFFF;" version="1.1" viewBox="0 0 2299 2094" width="2299px" zoomAndPan="magnify"><title>Diagrama de secuencia - Editar carga de trabajo por Coordinador</title><defs/><g><text fill="#000000" font-family="sans-serif" font-size="14" font-weight="bold" lengthAdjust="spacing" textLength="434.1162" x="933.6902" y="29.5332">Diagrama de secuencia - Editar carga de trabajo por Coordinador</text><rect fill="#FFFFFF" height="1848.6016" style="stroke:#181818;stroke-width:1;" width="10" x="411.9609" y="153.5703"/><rect fill="#FFFFFF" height="436.2734" style="stroke:#181818;stroke-width:1;" width="10" x="663.1797" y="243.625"/><rect fill="#FFFFFF" height="1012.2734" style="stroke:#181818;stroke-width:1;" width="10" x="663.1797" y="787.3047"/><rect fill="#FFFFFF" height="55.7031" style="stroke:#181818;stroke-width:1;" width="10" x="1007.3301" y="273.9766"/><rect fill="#FFFFFF" height="30.3516" style="stroke:#181818;stroke-width:1;" width="10" x="1007.3301" y="817.6563"/><rect fill="#FFFFFF" height="273.1641" style="stroke:#181818;stroke-width:1;" width="10" x="1142.2158" y="360.0313"/><rect fill="#FFFFFF" height="874.5156" style="stroke:#181818;stroke-width:1;" width="10" x="1142.2158" y="878.3594"/><rect fill="#FFFFFF" height="30.3516" style="stroke:#181818;stroke-width:1;" width="10" x="1448.6318" y="451.0859"/><rect fill="#FFFFFF" height="30.3516" style="stroke:#181818;stroke-width:1;" width="10" x="1448.6318" y="969.4141"/><rect fill="#FFFFFF" height="30.3516" style="stroke:#181818;stroke-width:1;" width="10" x="1606.4692" y="572.4922"/><rect fill="#FFFFFF" height="227.8125" style="stroke:#181818;stroke-width:1;" width="10" x="1606.4692" y="1373.3047"/><rect fill="none" height="1706.1953" style="stroke:#000000;stroke-width:1.5;" width="2282.4966" x="10" y="288.9766"/><rect fill="none" height="823.1641" style="stroke:#000000;stroke-width:1.5;" width="2262.4966" x="20" y="1058.1172"/><line style="stroke:#181818;stroke-width:0.5;stroke-dasharray:5.0,5.0;" x1="71" x2="71" y1="121.2188" y2="2012.1719"/><line style="stroke:#181818;stroke-width:0.5;stroke-dasharray:5.0,5.0;" x1="416.5439" x2="416.5439" y1="121.2188" y2="2012.1719"/><line style="stroke:#181818;stroke-width:0.5;stroke-dasharray:5.0,5.0;" x1="668.0352" x2="668.0352" y1="121.2188" y2="2012.1719"/><line style="stroke:#181818;stroke-width:0.5;stroke-dasharray:5.0,5.0;" x1="1011.5854" x2="1011.5854" y1="121.2188" y2="2012.1719"/><line style="stroke:#181818;stroke-width:0.5;stroke-dasharray:5.0,5.0;" x1="1147.0747" x2="1147.0747" y1="121.2188" y2="2012.1719"/><line style="stroke:#181818;stroke-width:0.5;stroke-dasharray:5.0,5.0;" x1="1453.0527" x2="1453.0527" y1="121.2188" y2="2012.1719"/><line style="stroke:#181818;stroke-width:0.5;stroke-dasharray:5.0,5.0;" x1="1611.2109" x2="1611.2109" y1="121.2188" y2="2012.1719"/><line style="stroke:#181818;stroke-width:0.5;stroke-dasharray:5.0,5.0;" x1="2222.6626" x2="2222.6626" y1="121.2188" y2="2012.1719"/><text fill="#000000" font-family="sans-serif" font-size="14" lengthAdjust="spacing" textLength="77.0479" x="30" y="118.1426">Coordinador</text><ellipse cx="71.5239" cy="52.1094" fill="#E2E2F0" rx="8" ry="8" style="stroke:#181818;stroke-width:0.5;"/><path d="M71.5239,60.1094 L71.5239,87.1094 M58.5239,68.1094 L84.5239,68.1094 M71.5239,87.1094 L58.5239,102.1094 M71.5239,87.1094 L84.5239,102.1094 " fill="none" style="stroke:#181818;stroke-width:0.5;"/><text fill="#000000" font-family="sans-serif" font-size="14" lengthAdjust="spacing" textLength="77.0479" x="30" y="2025.7051">Coordinador</text><ellipse cx="71.5239" cy="2037.2813" fill="#E2E2F0" rx="8" ry="8" style="stroke:#181818;stroke-width:0.5;"/><path d="M71.5239,2045.2813 L71.5239,2072.2813 M58.5239,2053.2813 L84.5239,2053.2813 M71.5239,2072.2813 L58.5239,2087.2813 M71.5239,2072.2813 L84.5239,2087.2813 " fill="none" style="stroke:#181818;stroke-width:0.5;"/><rect fill="#E2E2F0" height="49.2188" rx="2.5" ry="2.5" style="stroke:#181818;stroke-width:0.5;" width="168.834" x="332.5439" y="71"/><text fill="#000000" font-family="sans-serif" font-size="14" lengthAdjust="spacing" textLength="154.834" x="339.5439" y="92.5332">EditarCargaTrabajoForm</text><text fill="#000000" font-family="sans-serif" font-size="14" lengthAdjust="spacing" textLength="45.8965" x="394.0127" y="110.1426">(React)</text><rect fill="#E2E2F0" height="49.2188" rx="2.5" ry="2.5" style="stroke:#181818;stroke-width:0.5;" width="168.834" x="332.5439" y="2011.1719"/><text fill="#000000" font-family="sans-serif" font-size="14" lengthAdjust="spacing" textLength="154.834" x="339.5439" y="2032.7051">EditarCargaTrabajoForm</text><text fill="#000000" font-family="sans-serif" font-size="14" lengthAdjust="spacing" textLength="45.8965" x="394.0127" y="2050.3145">(React)</text><rect fill="#E2E2F0" height="49.2188" rx="2.5" ry="2.5" style="stroke:#181818;stroke-width:0.5;" width="160.2891" x="588.0352" y="71"/><text fill="#000000" font-family="sans-serif" font-size="14" lengthAdjust="spacing" textLength="146.2891" x="595.0352" y="92.5332">CargaTrabajoController</text><text fill="#000000" font-family="sans-serif" font-size="14" lengthAdjust="spacing" textLength="82.4824" x="626.9385" y="110.1426">(Spring Boot)</text><rect fill="#E2E2F0" height="49.2188" rx="2.5" ry="2.5" style="stroke:#181818;stroke-width:0.5;" width="160.2891" x="588.0352" y="2011.1719"/><text fill="#000000" font-family="sans-serif" font-size="14" lengthAdjust="spacing" textLength="146.2891" x="595.0352" y="2032.7051">CargaTrabajoController</text><text fill="#000000" font-family="sans-serif" font-size="14" lengthAdjust="spacing" textLength="82.4824" x="626.9385" y="2050.3145">(Spring Boot)</text><rect fill="#E2E2F0" height="31.6094" rx="2.5" ry="2.5" style="stroke:#181818;stroke-width:0.5;" width="103.4893" x="960.5854" y="88.6094"/><text fill="#000000" font-family="sans-serif" font-size="14" lengthAdjust="spacing" textLength="89.4893" x="967.5854" y="110.1426">SesionService</text><rect fill="#E2E2F0" height="31.6094" rx="2.5" ry="2.5" style="stroke:#181818;stroke-width:0.5;" width="103.4893" x="960.5854" y="2011.1719"/><text fill="#000000" font-family="sans-serif" font-size="14" lengthAdjust="spacing" textLength="89.4893" x="967.5854" y="2032.7051">SesionService</text><rect fill="#E2E2F0" height="31.6094" rx="2.5" ry="2.5" style="stroke:#181818;stroke-width:0.5;" width="146.2822" x="1074.0747" y="88.6094"/><text fill="#000000" font-family="sans-serif" font-size="14" lengthAdjust="spacing" textLength="132.2822" x="1081.0747" y="110.1426">CargaTrabajoService</text><rect fill="#E2E2F0" height="31.6094" rx="2.5" ry="2.5" style="stroke:#181818;stroke-width:0.5;" width="146.2822" x="1074.0747" y="2011.1719"/><text fill="#000000" font-family="sans-serif" font-size="14" lengthAdjust="spacing" textLength="132.2822" x="1081.0747" y="2032.7051">CargaTrabajoService</text><rect fill="#E2E2F0" height="31.6094" rx="2.5" ry="2.5" style="stroke:#181818;stroke-width:0.5;" width="129.1582" x="1389.0527" y="88.6094"/><text fill="#000000" font-family="sans-serif" font-size="14" lengthAdjust="spacing" textLength="115.1582" x="1396.0527" y="110.1426">UsuarioRepository</text><rect fill="#E2E2F0" height="31.6094" rx="2.5" ry="2.5" style="stroke:#181818;stroke-width:0.5;" width="129.1582" x="1389.0527" y="2011.1719"/><text fill="#000000" font-family="sans-serif" font-size="14" lengthAdjust="spacing" textLength="115.1582" x="1396.0527" y="2032.7051">UsuarioRepository</text><rect fill="#E2E2F0" height="31.6094" rx="2.5" ry="2.5" style="stroke:#181818;stroke-width:0.5;" width="166.5166" x="1528.2109" y="88.6094"/><text fill="#000000" font-family="sans-serif" font-size="14" lengthAdjust="spacing" textLength="152.5166" x="1535.2109" y="110.1426">CargaTrabajoRepository</text><rect fill="#E2E2F0" height="31.6094" rx="2.5" ry="2.5" style="stroke:#181818;stroke-width:0.5;" width="166.5166" x="1528.2109" y="2011.1719"/><text fill="#000000" font-family="sans-serif" font-size="14" lengthAdjust="spacing" textLength="152.5166" x="1535.2109" y="2032.7051">CargaTrabajoRepository</text><text fill="#000000" font-family="sans-serif" font-size="14" lengthAdjust="spacing" textLength="91.834" x="2174.6626" y="118.1426">Base de Datos</text><path d="M2205.5796,67.6094 C2205.5796,57.6094 2223.5796,57.6094 2223.5796,57.6094 C2223.5796,57.6094 2241.5796,57.6094 2241.5796,67.6094 L2241.5796,93.6094 C2241.5796,103.6094 2223.5796,103.6094 2223.5796,103.6094 C2223.5796,103.6094 2205.5796,103.6094 2205.5796,93.6094 L2205.5796,67.6094 " fill="#E2E2F0" style="stroke:#181818;stroke-width:1.5;"/><path d="M2205.5796,67.6094 C2205.5796,77.6094 2223.5796,77.6094 2223.5796,77.6094 C2223.5796,77.6094 2241.5796,77.6094 2241.5796,67.6094 " fill="none" style="stroke:#181818;stroke-width:1.5;"/><text fill="#000000" font-family="sans-serif" font-size="14" lengthAdjust="spacing" textLength="91.834" x="2174.6626" y="2025.7051">Base de Datos</text><path d="M2205.5796,2038.7813 C2205.5796,2028.7813 2223.5796,2028.7813 2223.5796,2028.7813 C2223.5796,2028.7813 2241.5796,2028.7813 2241.5796,2038.7813 L2241.5796,2064.7813 C2241.5796,2074.7813 2223.5796,2074.7813 2223.5796,2074.7813 C2223.5796,2074.7813 2205.5796,2074.7813 2205.5796,2064.7813 L2205.5796,2038.7813 " fill="#E2E2F0" style="stroke:#181818;stroke-width:1.5;"/><path d="M2205.5796,2038.7813 C2205.5796,2048.7813 2223.5796,2048.7813 2223.5796,2048.7813 C2223.5796,2048.7813 2241.5796,2048.7813 2241.5796,2038.7813 " fill="none" style="stroke:#181818;stroke-width:1.5;"/><rect fill="#FFFFFF" height="1848.6016" style="stroke:#181818;stroke-width:1;" width="10" x="411.9609" y="153.5703"/><rect fill="#FFFFFF" height="436.2734" style="stroke:#181818;stroke-width:1;" width="10" x="663.1797" y="243.625"/><rect fill="#FFFFFF" height="1012.2734" style="stroke:#181818;stroke-width:1;" width="10" x="663.1797" y="787.3047"/><rect fill="#FFFFFF" height="55.7031" style="stroke:#181818;stroke-width:1;" width="10" x="1007.3301" y="273.9766"/><rect fill="#FFFFFF" height="30.3516" style="stroke:#181818;stroke-width:1;" width="10" x="1007.3301" y="817.6563"/><rect fill="#FFFFFF" height="273.1641" style="stroke:#181818;stroke-width:1;" width="10" x="1142.2158" y="360.0313"/><rect fill="#FFFFFF" height="874.5156" style="stroke:#181818;stroke-width:1;" width="10" x="1142.2158" y="878.3594"/><rect fill="#FFFFFF" height="30.3516" style="stroke:#181818;stroke-width:1;" width="10" x="1448.6318" y="451.0859"/><rect fill="#FFFFFF" height="30.3516" style="stroke:#181818;stroke-width:1;" width="10" x="1448.6318" y="969.4141"/><rect fill="#FFFFFF" height="30.3516" style="stroke:#181818;stroke-width:1;" width="10" x="1606.4692" y="572.4922"/><rect fill="#FFFFFF" height="227.8125" style="stroke:#181818;stroke-width:1;" width="10" x="1606.4692" y="1373.3047"/><polygon fill="#181818" points="399.9609,149.5703,409.9609,153.5703,399.9609,157.5703,403.9609,153.5703" style="stroke:#181818;stroke-width:1;"/><line style="stroke:#181818;stroke-width:1;" x1="71.5239" x2="405.9609" y1="153.5703" y2="153.5703"/><text fill="#000000" font-family="sans-serif" font-size="13" lengthAdjust="spacing" textLength="208.1333" x="78.5239" y="148.7139">Solicita editar carga de una persona</text><line style="stroke:#181818;stroke-width:1;" x1="421.9609" x2="463.9609" y1="183.9219" y2="183.9219"/><line style="stroke:#181818;stroke-width:1;" x1="463.9609" x2="463.9609" y1="183.9219" y2="196.9219"/><line style="stroke:#181818;stroke-width:1;" x1="422.9609" x2="463.9609" y1="196.9219" y2="196.9219"/><polygon fill="#181818" points="432.9609,192.9219,422.9609,196.9219,432.9609,200.9219,428.9609,196.9219" style="stroke:#181818;stroke-width:1;"/><text fill="#000000" font-family="sans-serif" font-size="13" lengthAdjust="spacing" textLength="136.5635" x="428.9609" y="179.0654">Comprobar sesion local</text><polygon fill="#181818" points="651.1797,239.625,661.1797,243.625,651.1797,247.625,655.1797,243.625" style="stroke:#181818;stroke-width:1;"/><line style="stroke:#181818;stroke-width:1;" x1="421.9609" x2="657.1797" y1="243.625" y2="243.625"/><text fill="#000000" font-family="sans-serif" font-size="13" lengthAdjust="spacing" textLength="201.6206" x="428.9609" y="222.417">GET /api/carga-trabajo/{personaId}</text><text fill="#000000" font-family="sans-serif" font-size="13" lengthAdjust="spacing" textLength="99.728" x="428.9609" y="238.7686">Cookie de sesion</text><polygon fill="#181818" points="995.3301,269.9766,1005.3301,273.9766,995.3301,277.9766,999.3301,273.9766" style="stroke:#181818;stroke-width:1;"/><line style="stroke:#181818;stroke-width:1;" x1="673.1797" x2="1001.3301" y1="273.9766" y2="273.9766"/><text fill="#000000" font-family="sans-serif" font-size="13" lengthAdjust="spacing" textLength="209.5806" x="680.1797" y="269.1201">obtenerSesionActual(authentication)</text><path d="M10,288.9766 L70.1709,288.9766 L70.1709,297.3281 L60.1709,307.3281 L10,307.3281 L10,288.9766 " fill="#EEEEEE" style="stroke:#000000;stroke-width:1.5;"/><rect fill="none" height="1706.1953" style="stroke:#000000;stroke-width:1.5;" width="2282.4966" x="10" y="288.9766"/><text fill="#000000" font-family="sans-serif" font-size="13" font-weight="bold" lengthAdjust="spacing" textLength="15.1709" x="25" y="303.4717">alt</text><text fill="#000000" font-family="sans-serif" font-size="11" font-weight="bold" lengthAdjust="spacing" textLength="162.583" x="85.1709" y="302.3955">[Sesion de Coordinador activa]</text><polygon fill="#181818" points="684.1797,325.6797,674.1797,329.6797,684.1797,333.6797,680.1797,329.6797" style="stroke:#181818;stroke-width:1;"/><line style="stroke:#181818;stroke-width:1;stroke-dasharray:2.0,2.0;" x1="678.1797" x2="1011.3301" y1="329.6797" y2="329.6797"/><text fill="#000000" font-family="sans-serif" font-size="13" lengthAdjust="spacing" textLength="98.2871" x="690.1797" y="324.8232">SesionResponse</text><polygon fill="#181818" points="1130.2158,356.0313,1140.2158,360.0313,1130.2158,364.0313,1134.2158,360.0313" style="stroke:#181818;stroke-width:1;"/><line style="stroke:#181818;stroke-width:1;" x1="673.1797" x2="1136.2158" y1="360.0313" y2="360.0313"/><text fill="#000000" font-family="sans-serif" font-size="13" lengthAdjust="spacing" textLength="271.7051" x="680.1797" y="355.1748">obtenerCargaPorPerfil(coordinador, personaId)</text><polygon fill="#181818" points="1441.6318,386.3828,1451.6318,390.3828,1441.6318,394.3828,1445.6318,390.3828" style="stroke:#181818;stroke-width:1;"/><line style="stroke:#181818;stroke-width:1;" x1="1152.2158" x2="1447.6318" y1="390.3828" y2="390.3828"/><text fill="#000000" font-family="sans-serif" font-size="13" lengthAdjust="spacing" textLength="113.4517" x="1159.2158" y="385.5264">findById(personaId)</text><polygon fill="#181818" points="2211.5796,416.7344,2221.5796,420.7344,2211.5796,424.7344,2215.5796,420.7344" style="stroke:#181818;stroke-width:1;"/><line style="stroke:#181818;stroke-width:1;" x1="1453.6318" x2="2217.5796" y1="420.7344" y2="420.7344"/><text fill="#000000" font-family="sans-serif" font-size="13" lengthAdjust="spacing" textLength="241.6489" x="1460.6318" y="415.8779">SELECT * FROM usuarios WHERE id = ?</text><polygon fill="#181818" points="1469.6318,447.0859,1459.6318,451.0859,1469.6318,455.0859,1465.6318,451.0859" style="stroke:#181818;stroke-width:1;"/><line style="stroke:#181818;stroke-width:1;stroke-dasharray:2.0,2.0;" x1="1463.6318" x2="2222.5796" y1="451.0859" y2="451.0859"/><text fill="#000000" font-family="sans-serif" font-size="13" lengthAdjust="spacing" textLength="149.5889" x="1475.6318" y="446.2295">Resultado de persistencia</text><polygon fill="#181818" points="1163.2158,477.4375,1153.2158,481.4375,1163.2158,485.4375,1159.2158,481.4375" style="stroke:#181818;stroke-width:1;"/><line style="stroke:#181818;stroke-width:1;stroke-dasharray:2.0,2.0;" x1="1157.2158" x2="1452.6318" y1="481.4375" y2="481.4375"/><text fill="#000000" font-family="sans-serif" font-size="13" lengthAdjust="spacing" textLength="104.7935" x="1169.2158" y="476.5811">Persona con sede</text><polygon fill="#181818" points="1599.4692,507.7891,1609.4692,511.7891,1599.4692,515.7891,1603.4692,511.7891" style="stroke:#181818;stroke-width:1;"/><line style="stroke:#181818;stroke-width:1;" x1="1152.2158" x2="1605.4692" y1="511.7891" y2="511.7891"/><text fill="#000000" font-family="sans-serif" font-size="13" lengthAdjust="spacing" textLength="147.4053" x="1159.2158" y="506.9326">findByUsuario(personaId)</text><polygon fill="#181818" points="2211.5796,538.1406,2221.5796,542.1406,2211.5796,546.1406,2215.5796,542.1406" style="stroke:#181818;stroke-width:1;"/><line style="stroke:#181818;stroke-width:1;" x1="1611.4692" x2="2217.5796" y1="542.1406" y2="542.1406"/><text fill="#000000" font-family="sans-serif" font-size="13" lengthAdjust="spacing" textLength="328.377" x="1618.4692" y="537.2842">SELECT * FROM cargas_trabajo WHERE usuario_id = ?</text><polygon fill="#181818" points="1627.4692,568.4922,1617.4692,572.4922,1627.4692,576.4922,1623.4692,572.4922" style="stroke:#181818;stroke-width:1;"/><line style="stroke:#181818;stroke-width:1;stroke-dasharray:2.0,2.0;" x1="1621.4692" x2="2222.5796" y1="572.4922" y2="572.4922"/><text fill="#000000" font-family="sans-serif" font-size="13" lengthAdjust="spacing" textLength="149.5889" x="1633.4692" y="567.6357">Resultado de persistencia</text><polygon fill="#181818" points="1163.2158,598.8438,1153.2158,602.8438,1163.2158,606.8438,1159.2158,602.8438" style="stroke:#181818;stroke-width:1;"/><line style="stroke:#181818;stroke-width:1;stroke-dasharray:2.0,2.0;" x1="1157.2158" x2="1610.4692" y1="602.8438" y2="602.8438"/><text fill="#000000" font-family="sans-serif" font-size="13" lengthAdjust="spacing" textLength="79.4854" x="1169.2158" y="597.9873">CargaTrabajo</text><polygon fill="#181818" points="684.1797,629.1953,674.1797,633.1953,684.1797,637.1953,680.1797,633.1953" style="stroke:#181818;stroke-width:1;"/><line style="stroke:#181818;stroke-width:1;stroke-dasharray:2.0,2.0;" x1="678.1797" x2="1146.2158" y1="633.1953" y2="633.1953"/><text fill="#000000" font-family="sans-serif" font-size="13" lengthAdjust="spacing" textLength="138.0234" x="690.1797" y="628.3389">CargaTrabajoResponse</text><polygon fill="#181818" points="432.9609,675.8984,422.9609,679.8984,432.9609,683.8984,428.9609,679.8984" style="stroke:#181818;stroke-width:1;"/><line style="stroke:#181818;stroke-width:1;stroke-dasharray:2.0,2.0;" x1="426.9609" x2="667.1797" y1="679.8984" y2="679.8984"/><text fill="#000000" font-family="sans-serif" font-size="13" lengthAdjust="spacing" textLength="44.0845" x="438.9609" y="658.6904">200 OK</text><text fill="#000000" font-family="sans-serif" font-size="13" lengthAdjust="spacing" textLength="138.0234" x="438.9609" y="675.042">CargaTrabajoResponse</text><polygon fill="#181818" points="82.5239,706.25,72.5239,710.25,82.5239,714.25,78.5239,710.25" style="stroke:#181818;stroke-width:1;"/><line style="stroke:#181818;stroke-width:1;stroke-dasharray:2.0,2.0;" x1="76.5239" x2="410.9609" y1="710.25" y2="710.25"/><text fill="#000000" font-family="sans-serif" font-size="13" lengthAdjust="spacing" textLength="244.2324" x="88.5239" y="705.3936">Muestra formulario con datos precargados</text><polygon fill="#181818" points="399.9609,736.6016,409.9609,740.6016,399.9609,744.6016,403.9609,740.6016" style="stroke:#181818;stroke-width:1;"/><line style="stroke:#181818;stroke-width:1;" x1="71.5239" x2="405.9609" y1="740.6016" y2="740.6016"/><text fill="#000000" font-family="sans-serif" font-size="13" lengthAdjust="spacing" textLength="138.7407" x="78.5239" y="735.7451">Modifica horas y guarda</text><polygon fill="#181818" points="651.1797,783.3047,661.1797,787.3047,651.1797,791.3047,655.1797,787.3047" style="stroke:#181818;stroke-width:1;"/><line style="stroke:#181818;stroke-width:1;" x1="421.9609" x2="657.1797" y1="787.3047" y2="787.3047"/><text fill="#000000" font-family="sans-serif" font-size="13" lengthAdjust="spacing" textLength="218.9561" x="428.9609" y="766.0967">PATCH /api/carga-trabajo/{personaId}</text><text fill="#000000" font-family="sans-serif" font-size="13" lengthAdjust="spacing" textLength="222.2188" x="428.9609" y="782.4482">CargaTrabajoUpdateRequest + cookie</text><polygon fill="#181818" points="995.3301,813.6563,1005.3301,817.6563,995.3301,821.6563,999.3301,817.6563" style="stroke:#181818;stroke-width:1;"/><line style="stroke:#181818;stroke-width:1;" x1="673.1797" x2="1001.3301" y1="817.6563" y2="817.6563"/><text fill="#000000" font-family="sans-serif" font-size="13" lengthAdjust="spacing" textLength="209.5806" x="680.1797" y="812.7998">obtenerSesionActual(authentication)</text><polygon fill="#181818" points="684.1797,844.0078,674.1797,848.0078,684.1797,852.0078,680.1797,848.0078" style="stroke:#181818;stroke-width:1;"/><line style="stroke:#181818;stroke-width:1;stroke-dasharray:2.0,2.0;" x1="678.1797" x2="1011.3301" y1="848.0078" y2="848.0078"/><text fill="#000000" font-family="sans-serif" font-size="13" lengthAdjust="spacing" textLength="98.2871" x="690.1797" y="843.1514">SesionResponse</text><polygon fill="#181818" points="1130.2158,874.3594,1140.2158,878.3594,1130.2158,882.3594,1134.2158,878.3594" style="stroke:#181818;stroke-width:1;"/><line style="stroke:#181818;stroke-width:1;" x1="673.1797" x2="1136.2158" y1="878.3594" y2="878.3594"/><text fill="#000000" font-family="sans-serif" font-size="13" lengthAdjust="spacing" textLength="322.2769" x="680.1797" y="873.5029">actualizarCargaPorPerfil(coordinador, personaId, datos)</text><polygon fill="#181818" points="1441.6318,904.7109,1451.6318,908.7109,1441.6318,912.7109,1445.6318,908.7109" style="stroke:#181818;stroke-width:1;"/><line style="stroke:#181818;stroke-width:1;" x1="1152.2158" x2="1447.6318" y1="908.7109" y2="908.7109"/><text fill="#000000" font-family="sans-serif" font-size="13" lengthAdjust="spacing" textLength="113.4517" x="1159.2158" y="903.8545">findById(personaId)</text><polygon fill="#181818" points="2211.5796,935.0625,2221.5796,939.0625,2211.5796,943.0625,2215.5796,939.0625" style="stroke:#181818;stroke-width:1;"/><line style="stroke:#181818;stroke-width:1;" x1="1453.6318" x2="2217.5796" y1="939.0625" y2="939.0625"/><text fill="#000000" font-family="sans-serif" font-size="13" lengthAdjust="spacing" textLength="241.6489" x="1460.6318" y="934.2061">SELECT * FROM usuarios WHERE id = ?</text><polygon fill="#181818" points="1469.6318,965.4141,1459.6318,969.4141,1469.6318,973.4141,1465.6318,969.4141" style="stroke:#181818;stroke-width:1;"/><line style="stroke:#181818;stroke-width:1;stroke-dasharray:2.0,2.0;" x1="1463.6318" x2="2222.5796" y1="969.4141" y2="969.4141"/><text fill="#000000" font-family="sans-serif" font-size="13" lengthAdjust="spacing" textLength="149.5889" x="1475.6318" y="964.5576">Resultado de persistencia</text><polygon fill="#181818" points="1163.2158,995.7656,1153.2158,999.7656,1163.2158,1003.7656,1159.2158,999.7656" style="stroke:#181818;stroke-width:1;"/><line style="stroke:#181818;stroke-width:1;stroke-dasharray:2.0,2.0;" x1="1157.2158" x2="1452.6318" y1="999.7656" y2="999.7656"/><text fill="#000000" font-family="sans-serif" font-size="13" lengthAdjust="spacing" textLength="104.7935" x="1169.2158" y="994.9092">Persona con sede</text><line style="stroke:#181818;stroke-width:1;" x1="1152.2158" x2="1194.2158" y1="1030.1172" y2="1030.1172"/><line style="stroke:#181818;stroke-width:1;" x1="1194.2158" x2="1194.2158" y1="1030.1172" y2="1043.1172"/><line style="stroke:#181818;stroke-width:1;" x1="1153.2158" x2="1194.2158" y1="1043.1172" y2="1043.1172"/><polygon fill="#181818" points="1163.2158,1039.1172,1153.2158,1043.1172,1163.2158,1047.1172,1159.2158,1043.1172" style="stroke:#181818;stroke-width:1;"/><text fill="#000000" font-family="sans-serif" font-size="13" lengthAdjust="spacing" textLength="272.416" x="1159.2158" y="1025.2607">validarCargaDocente(datos, sede, maximo16h)</text><path d="M20,1058.1172 L80.1709,1058.1172 L80.1709,1066.4688 L70.1709,1076.4688 L20,1076.4688 L20,1058.1172 " fill="#EEEEEE" style="stroke:#000000;stroke-width:1.5;"/><rect fill="none" height="823.1641" style="stroke:#000000;stroke-width:1.5;" width="2262.4966" x="20" y="1058.1172"/><text fill="#000000" font-family="sans-serif" font-size="13" font-weight="bold" lengthAdjust="spacing" textLength="15.1709" x="35" y="1072.6123">alt</text><text fill="#000000" font-family="sans-serif" font-size="11" font-weight="bold" lengthAdjust="spacing" textLength="231.0752" x="95.1709" y="1071.5361">[Sede sin docencia registra horas docentes]</text><polygon fill="#181818" points="684.1797,1094.8203,674.1797,1098.8203,684.1797,1102.8203,680.1797,1098.8203" style="stroke:#181818;stroke-width:1;"/><line style="stroke:#181818;stroke-width:1;stroke-dasharray:2.0,2.0;" x1="678.1797" x2="1141.2158" y1="1098.8203" y2="1098.8203"/><text fill="#000000" font-family="sans-serif" font-size="13" lengthAdjust="spacing" textLength="95.3926" x="690.1797" y="1093.9639">validacion fallida</text><polygon fill="#181818" points="432.9609,1125.1719,422.9609,1129.1719,432.9609,1133.1719,428.9609,1129.1719" style="stroke:#181818;stroke-width:1;"/><line style="stroke:#181818;stroke-width:1;stroke-dasharray:2.0,2.0;" x1="426.9609" x2="662.1797" y1="1129.1719" y2="1129.1719"/><text fill="#000000" font-family="sans-serif" font-size="13" lengthAdjust="spacing" textLength="100.4644" x="438.9609" y="1124.3154">400 Bad Request</text><polygon fill="#181818" points="82.5239,1155.5234,72.5239,1159.5234,82.5239,1163.5234,78.5239,1159.5234" style="stroke:#181818;stroke-width:1;"/><line style="stroke:#181818;stroke-width:1;stroke-dasharray:2.0,2.0;" x1="76.5239" x2="410.9609" y1="1159.5234" y2="1159.5234"/><text fill="#000000" font-family="sans-serif" font-size="13" lengthAdjust="spacing" textLength="229.8105" x="88.5239" y="1154.667">Presenta error de docencia no aplicable</text><line style="stroke:#000000;stroke-width:1;stroke-dasharray:2.0,2.0;" x1="20" x2="2282.4966" y1="1168.5234" y2="1168.5234"/><text fill="#000000" font-family="sans-serif" font-size="11" font-weight="bold" lengthAdjust="spacing" textLength="257.3452" x="25" y="1179.9424">[Investigador-docente supera 16 horas docentes]</text><polygon fill="#181818" points="684.1797,1201.7109,674.1797,1205.7109,684.1797,1209.7109,680.1797,1205.7109" style="stroke:#181818;stroke-width:1;"/><line style="stroke:#181818;stroke-width:1;stroke-dasharray:2.0,2.0;" x1="678.1797" x2="1141.2158" y1="1205.7109" y2="1205.7109"/><text fill="#000000" font-family="sans-serif" font-size="13" lengthAdjust="spacing" textLength="95.3926" x="690.1797" y="1200.8545">validacion fallida</text><polygon fill="#181818" points="432.9609,1232.0625,422.9609,1236.0625,432.9609,1240.0625,428.9609,1236.0625" style="stroke:#181818;stroke-width:1;"/><line style="stroke:#181818;stroke-width:1;stroke-dasharray:2.0,2.0;" x1="426.9609" x2="662.1797" y1="1236.0625" y2="1236.0625"/><text fill="#000000" font-family="sans-serif" font-size="13" lengthAdjust="spacing" textLength="100.4644" x="438.9609" y="1231.2061">400 Bad Request</text><polygon fill="#181818" points="82.5239,1262.4141,72.5239,1266.4141,82.5239,1270.4141,78.5239,1266.4141" style="stroke:#181818;stroke-width:1;"/><line style="stroke:#181818;stroke-width:1;stroke-dasharray:2.0,2.0;" x1="76.5239" x2="410.9609" y1="1266.4141" y2="1266.4141"/><text fill="#000000" font-family="sans-serif" font-size="13" lengthAdjust="spacing" textLength="184.9834" x="88.5239" y="1261.5576">Presenta error de limite docente</text><line style="stroke:#000000;stroke-width:1;stroke-dasharray:2.0,2.0;" x1="20" x2="2282.4966" y1="1275.4141" y2="1275.4141"/><text fill="#000000" font-family="sans-serif" font-size="11" font-weight="bold" lengthAdjust="spacing" textLength="72.7461" x="25" y="1286.833">[Carga valida]</text><polygon fill="#181818" points="1599.4692,1308.6016,1609.4692,1312.6016,1599.4692,1316.6016,1603.4692,1312.6016" style="stroke:#181818;stroke-width:1;"/><line style="stroke:#181818;stroke-width:1;" x1="1152.2158" x2="1605.4692" y1="1312.6016" y2="1312.6016"/><text fill="#000000" font-family="sans-serif" font-size="13" lengthAdjust="spacing" textLength="147.4053" x="1159.2158" y="1307.7451">findByUsuario(personaId)</text><polygon fill="#181818" points="2211.5796,1338.9531,2221.5796,1342.9531,2211.5796,1346.9531,2215.5796,1342.9531" style="stroke:#181818;stroke-width:1;"/><line style="stroke:#181818;stroke-width:1;" x1="1611.4692" x2="2217.5796" y1="1342.9531" y2="1342.9531"/><text fill="#000000" font-family="sans-serif" font-size="13" lengthAdjust="spacing" textLength="328.377" x="1618.4692" y="1338.0967">SELECT * FROM cargas_trabajo WHERE usuario_id = ?</text><polygon fill="#181818" points="1627.4692,1369.3047,1617.4692,1373.3047,1627.4692,1377.3047,1623.4692,1373.3047" style="stroke:#181818;stroke-width:1;"/><line style="stroke:#181818;stroke-width:1;stroke-dasharray:2.0,2.0;" x1="1621.4692" x2="2222.5796" y1="1373.3047" y2="1373.3047"/><text fill="#000000" font-family="sans-serif" font-size="13" lengthAdjust="spacing" textLength="149.5889" x="1633.4692" y="1368.4482">Resultado de persistencia</text><polygon fill="#181818" points="1163.2158,1399.6563,1153.2158,1403.6563,1163.2158,1407.6563,1159.2158,1403.6563" style="stroke:#181818;stroke-width:1;"/><line style="stroke:#181818;stroke-width:1;stroke-dasharray:2.0,2.0;" x1="1157.2158" x2="1605.4692" y1="1403.6563" y2="1403.6563"/><text fill="#000000" font-family="sans-serif" font-size="13" lengthAdjust="spacing" textLength="79.4854" x="1169.2158" y="1398.7998">CargaTrabajo</text><line style="stroke:#181818;stroke-width:1;" x1="1152.2158" x2="1194.2158" y1="1434.0078" y2="1434.0078"/><line style="stroke:#181818;stroke-width:1;" x1="1194.2158" x2="1194.2158" y1="1434.0078" y2="1447.0078"/><line style="stroke:#181818;stroke-width:1;" x1="1153.2158" x2="1194.2158" y1="1447.0078" y2="1447.0078"/><polygon fill="#181818" points="1163.2158,1443.0078,1153.2158,1447.0078,1163.2158,1451.0078,1159.2158,1447.0078" style="stroke:#181818;stroke-width:1;"/><text fill="#000000" font-family="sans-serif" font-size="13" lengthAdjust="spacing" textLength="215.3252" x="1159.2158" y="1429.1514">actualizarCarga(cargaTrabajo, datos)</text><polygon fill="#181818" points="1594.4692,1473.3594,1604.4692,1477.3594,1594.4692,1481.3594,1598.4692,1477.3594" style="stroke:#181818;stroke-width:1;"/><line style="stroke:#181818;stroke-width:1;" x1="1152.2158" x2="1600.4692" y1="1477.3594" y2="1477.3594"/><text fill="#000000" font-family="sans-serif" font-size="13" lengthAdjust="spacing" textLength="179.9243" x="1159.2158" y="1472.5029">save(cargaTrabajoActualizada)</text><polygon fill="#181818" points="2211.5796,1536.4141,2221.5796,1540.4141,2211.5796,1544.4141,2215.5796,1540.4141" style="stroke:#181818;stroke-width:1;"/><line style="stroke:#181818;stroke-width:1;" x1="1616.4692" x2="2217.5796" y1="1540.4141" y2="1540.4141"/><text fill="#000000" font-family="sans-serif" font-size="13" lengthAdjust="spacing" textLength="436.4648" x="1623.4692" y="1502.8545">UPDATE cargas_trabajo SET horas_docencia = ?, horas_investigacion = ?,</text><text fill="#000000" font-family="sans-serif" font-size="13" lengthAdjust="spacing" textLength="569.7529" x="1623.4692" y="1519.2061">horas_gestion_academica = ?, observaciones = ?, fecha_actualizacion = CURRENT_TIMESTAMP</text><text fill="#000000" font-family="sans-serif" font-size="13" lengthAdjust="spacing" textLength="134.0308" x="1623.4692" y="1535.5576">WHERE usuario_id = ?</text><polygon fill="#181818" points="1627.4692,1566.7656,1617.4692,1570.7656,1627.4692,1574.7656,1623.4692,1570.7656" style="stroke:#181818;stroke-width:1;"/><line style="stroke:#181818;stroke-width:1;stroke-dasharray:2.0,2.0;" x1="1621.4692" x2="2222.5796" y1="1570.7656" y2="1570.7656"/><text fill="#000000" font-family="sans-serif" font-size="13" lengthAdjust="spacing" textLength="149.5889" x="1633.4692" y="1565.9092">Resultado de persistencia</text><polygon fill="#181818" points="1163.2158,1597.1172,1153.2158,1601.1172,1163.2158,1605.1172,1159.2158,1601.1172" style="stroke:#181818;stroke-width:1;"/><line style="stroke:#181818;stroke-width:1;stroke-dasharray:2.0,2.0;" x1="1157.2158" x2="1610.4692" y1="1601.1172" y2="1601.1172"/><text fill="#000000" font-family="sans-serif" font-size="13" lengthAdjust="spacing" textLength="148.8652" x="1169.2158" y="1596.2607">CargaTrabajo actualizada</text><polygon fill="#181818" points="1599.4692,1627.4688,1609.4692,1631.4688,1599.4692,1635.4688,1603.4692,1631.4688" style="stroke:#181818;stroke-width:1;"/><line style="stroke:#181818;stroke-width:1;" x1="1152.2158" x2="1605.4692" y1="1631.4688" y2="1631.4688"/><text fill="#000000" font-family="sans-serif" font-size="13" lengthAdjust="spacing" textLength="93.939" x="1159.2158" y="1626.6123">save(personaId)</text><polygon fill="#181818" points="2211.5796,1657.8203,2221.5796,1661.8203,2211.5796,1665.8203,2215.5796,1661.8203" style="stroke:#181818;stroke-width:1;"/><line style="stroke:#181818;stroke-width:1;" x1="1611.4692" x2="2217.5796" y1="1661.8203" y2="1661.8203"/><text fill="#000000" font-family="sans-serif" font-size="13" lengthAdjust="spacing" textLength="588.1104" x="1618.4692" y="1656.9639">UPDATE cargas_trabajo SET fecha_actualizacion = CURRENT_TIMESTAMP WHERE usuario_id = ?</text><polygon fill="#181818" points="1622.4692,1688.1719,1612.4692,1692.1719,1622.4692,1696.1719,1618.4692,1692.1719" style="stroke:#181818;stroke-width:1;"/><line style="stroke:#181818;stroke-width:1;stroke-dasharray:2.0,2.0;" x1="1616.4692" x2="2222.5796" y1="1692.1719" y2="1692.1719"/><text fill="#000000" font-family="sans-serif" font-size="13" lengthAdjust="spacing" textLength="149.5889" x="1628.4692" y="1687.3154">Resultado de persistencia</text><polygon fill="#181818" points="1163.2158,1718.5234,1153.2158,1722.5234,1163.2158,1726.5234,1159.2158,1722.5234" style="stroke:#181818;stroke-width:1;"/><line style="stroke:#181818;stroke-width:1;stroke-dasharray:2.0,2.0;" x1="1157.2158" x2="1610.4692" y1="1722.5234" y2="1722.5234"/><text fill="#000000" font-family="sans-serif" font-size="13" lengthAdjust="spacing" textLength="121.4053" x="1169.2158" y="1717.667">Prioridad actualizada</text><polygon fill="#181818" points="684.1797,1748.875,674.1797,1752.875,684.1797,1756.875,680.1797,1752.875" style="stroke:#181818;stroke-width:1;"/><line style="stroke:#181818;stroke-width:1;stroke-dasharray:2.0,2.0;" x1="678.1797" x2="1146.2158" y1="1752.875" y2="1752.875"/><text fill="#000000" font-family="sans-serif" font-size="13" lengthAdjust="spacing" textLength="138.0234" x="690.1797" y="1748.0186">CargaTrabajoResponse</text><polygon fill="#181818" points="432.9609,1795.5781,422.9609,1799.5781,432.9609,1803.5781,428.9609,1799.5781" style="stroke:#181818;stroke-width:1;"/><line style="stroke:#181818;stroke-width:1;stroke-dasharray:2.0,2.0;" x1="426.9609" x2="667.1797" y1="1799.5781" y2="1799.5781"/><text fill="#000000" font-family="sans-serif" font-size="13" lengthAdjust="spacing" textLength="44.0845" x="438.9609" y="1778.3701">200 OK</text><text fill="#000000" font-family="sans-serif" font-size="13" lengthAdjust="spacing" textLength="138.0234" x="438.9609" y="1794.7217">CargaTrabajoResponse</text><line style="stroke:#181818;stroke-width:1;" x1="421.9609" x2="463.9609" y1="1829.9297" y2="1829.9297"/><line style="stroke:#181818;stroke-width:1;" x1="463.9609" x2="463.9609" y1="1829.9297" y2="1842.9297"/><line style="stroke:#181818;stroke-width:1;" x1="422.9609" x2="463.9609" y1="1842.9297" y2="1842.9297"/><polygon fill="#181818" points="432.9609,1838.9297,422.9609,1842.9297,432.9609,1846.9297,428.9609,1842.9297" style="stroke:#181818;stroke-width:1;"/><text fill="#000000" font-family="sans-serif" font-size="13" lengthAdjust="spacing" textLength="177.7344" x="428.9609" y="1825.0732">Actualizar vista y notificar exito</text><polygon fill="#181818" points="82.5239,1869.2813,72.5239,1873.2813,82.5239,1877.2813,78.5239,1873.2813" style="stroke:#181818;stroke-width:1;"/><line style="stroke:#181818;stroke-width:1;stroke-dasharray:2.0,2.0;" x1="76.5239" x2="410.9609" y1="1873.2813" y2="1873.2813"/><text fill="#000000" font-family="sans-serif" font-size="13" lengthAdjust="spacing" textLength="316.437" x="88.5239" y="1868.4248">Presenta OPCIONES_CARGA_TRABAJO_ABIERTAS</text><line style="stroke:#000000;stroke-width:1;stroke-dasharray:2.0,2.0;" x1="10" x2="2292.4966" y1="1889.2813" y2="1889.2813"/><text fill="#000000" font-family="sans-serif" font-size="11" font-weight="bold" lengthAdjust="spacing" textLength="159.5269" x="15" y="1900.7002">[Sesion ausente o rol invalido]</text><polygon fill="#181818" points="679.1797,1922.4688,669.1797,1926.4688,679.1797,1930.4688,675.1797,1926.4688" style="stroke:#181818;stroke-width:1;"/><line style="stroke:#181818;stroke-width:1;stroke-dasharray:2.0,2.0;" x1="673.1797" x2="1011.3301" y1="1926.4688" y2="1926.4688"/><text fill="#000000" font-family="sans-serif" font-size="13" lengthAdjust="spacing" textLength="320.1504" x="685.1797" y="1921.6123">SesionNoValidaException / AccesoDenegadoException</text><polygon fill="#181818" points="432.9609,1952.8203,422.9609,1956.8203,432.9609,1960.8203,428.9609,1956.8203" style="stroke:#181818;stroke-width:1;"/><line style="stroke:#181818;stroke-width:1;stroke-dasharray:2.0,2.0;" x1="426.9609" x2="667.1797" y1="1956.8203" y2="1956.8203"/><text fill="#000000" font-family="sans-serif" font-size="13" lengthAdjust="spacing" textLength="197.3042" x="438.9609" y="1951.9639">401 Unauthorized / 403 Forbidden</text><polygon fill="#181818" points="82.5239,1983.1719,72.5239,1987.1719,82.5239,1991.1719,78.5239,1987.1719" style="stroke:#181818;stroke-width:1;"/><line style="stroke:#181818;stroke-width:1;stroke-dasharray:2.0,2.0;" x1="76.5239" x2="410.9609" y1="1987.1719" y2="1987.1719"/><text fill="#000000" font-family="sans-serif" font-size="13" lengthAdjust="spacing" textLength="145.9707" x="88.5239" y="1982.3154">Presenta error de edicion</text><!--SRC=[xLVVR-9647xdhnZbYRIW9Etf7f3Qoe1pHtiao43x4WaDteLiQtRTNHibL_L_x-okCRO92OcYgW-DbCXPptmxyyrFPo9BE0m5hZLk41W7m-ESorWWT25a8aCDCUgrUvTfNEBl2bAbOQ2KPa8YKxhLmZXh7AMeCn6B56K6PnvdO65c7k9QwSsTR4USDC_F00rSQoKpBbbTiwep806jaeHhqfocMiWrz9Kgz8DKr5Mdt0WbfrnlHSoTY3yvVa5TrZtNXUScHorKn5Db17dyw4GdN1ibqPuUnsxek5TEWs560eR3MT_-9PQ7c2dZf8RzLgj2AdH_B6dgmLGbT5E6m1jHoYL2wcsoWH5RpFYUtjr37MoWDgbMIu8nZYH8L8n9JPW8xi6dS0ONc8eBTrktI8YBluhxHkplEqaM_o6upoL7U6c4ZH7zMZGVYnwe9U5pxVyDuYp7f8rvTiybyOWP7PxlzOi0Of8LZ_QIAa5UiWNqKmXqTvRx_oDkKYKDToACDv7jQMcWIu3IGXUnYT8KxPL8sl7-rWwKtfyxX0ggJo9lZtksq9M4wS5AIDP_7B5s0wGYP7M6VN8X_18EPl0DN4UtOyXzCXhuxNCOXI0O_00_ETLXtxbTkuOSpvECpBMKsQk4oLoProskvlA15LLMYXSG4yU6imD2cq0LzylStpbVb5MJWLBkQVzT1fh5hYTv5WfI5eTiL6uzaOjzZJQigV9GhV4c1tM0ae5THjRRmx6yt6UGIynQrNvtUGctlr35dO1aQyyUxKlQahBFuXwCSsw8JLXHRyuJIwEBBhFj25BD7U5C6K_7iROqLaoig7JXNcbgOO-mfeWmRDnTK309PeFFBpUKYdlpbEpX4V_J6WlVaeMssTG3jtFr3QscKRvbKtYtReBkNl4LJsie7K___ttbXBvIOco9O5OGF5GnnPUt7OqT1zc13Jw8ZRhwU5_mwkQ9dLU2qjqgsFL7yxLmzU0JcNaWd_rFrhE_DhPviiB4FfUoXwNxWKgtZmoAJ2ubZvVdH7D35j2yrvgAZimjJPKACALj09U99umdj4gCv9QGXQrPtItC1vDJa12kFlvttKh4HcHyPzdU7nVFmfn3Sq-VA-yuMzuoNvwPCQ-PCyUIlz5Wsd55iTPDZhDdSCjhUi4Ea-4p5Cudms0MDhcRqiReKcrHfYknrodEn2v7NNxP5tVIlrdRSoKN62FZ6pjGd9fQ6hBPYNFZZrOyliT5wNU1D9X7KNWpMyn6ut0w2yQJE_dkOJmXLljuL9Bsw8xmGanEIUJZKJYH9_YtQ9eGlAPQPazoTFgwzCpAzCQrwSZgr5nXzeXbWMZOalj8QuzKcTk3DF07-kvxJIUydGn6jpVXT348ea_1OXO5_U3dsqNG7uNHB9ZwZaYVSguh5fi9viRrTmNqYGnKLhPDgcTsbnlrg-kauKFCKrjfS45knDoe8Mr9TcYKRrvQRneJu0hcqkvL5Dold17iXyllWJxubu8nBb-_bnvE2FhYjTdRiYHKe7OG_m00]--></g></svg>