<svg xmlns="http://www.w3.org/2000/svg" xmlns:xlink="http://www.w3.org/1999/xlink" contentStyleType="text/css" height="1646px" preserveAspectRatio="none" style="width:2065px;height:1646px;background:#FFFFFF;" version="1.1" viewBox="0 0 2065 1646" width="2065px" zoomAndPan="magnify"><title>Diagrama de secuencia - Editar carga de trabajo por Coordinador</title><defs/><g><text fill="#000000" font-family="sans-serif" font-size="14" font-weight="bold" lengthAdjust="spacing" textLength="434.1162" x="816.5518" y="29.5332">Diagrama de secuencia - Editar carga de trabajo por Coordinador</text><rect fill="#FFFFFF" height="1401.1406" style="stroke:#181818;stroke-width:1;" width="10" x="401.9609" y="153.5703"/><rect fill="#FFFFFF" height="314.8672" style="stroke:#181818;stroke-width:1;" width="10" x="739.5649" y="243.625"/><rect fill="#FFFFFF" height="693.2188" style="stroke:#181818;stroke-width:1;" width="10" x="739.5649" y="665.8984"/><rect fill="#FFFFFF" height="55.7031" style="stroke:#181818;stroke-width:1;" width="10" x="1019.3882" y="273.9766"/><rect fill="#FFFFFF" height="30.3516" style="stroke:#181818;stroke-width:1;" width="10" x="1019.3882" y="696.25"/><rect fill="#FFFFFF" height="151.7578" style="stroke:#181818;stroke-width:1;" width="10" x="1154.2739" y="360.0313"/><rect fill="#FFFFFF" height="555.4609" style="stroke:#181818;stroke-width:1;" width="10" x="1154.2739" y="756.9531"/><rect fill="#FFFFFF" height="30.3516" style="stroke:#181818;stroke-width:1;" width="10" x="1616.7661" y="390.3828"/><rect fill="#FFFFFF" height="30.3516" style="stroke:#181818;stroke-width:1;" width="10" x="1616.7661" y="934.7109"/><rect fill="#FFFFFF" height="30.3516" style="stroke:#181818;stroke-width:1;" width="10" x="1776.5552" y="451.0859"/><rect fill="#FFFFFF" height="299.1641" style="stroke:#181818;stroke-width:1;" width="10" x="1776.5552" y="830.6563"/><rect fill="#FFFFFF" height="30.3516" style="stroke:#181818;stroke-width:1;" width="10" x="1951.5166" y="1185.5234"/><rect fill="none" height="1258.7344" style="stroke:#000000;stroke-width:1.5;" width="2048.2197" x="10" y="288.9766"/><rect fill="none" height="138.2422" style="stroke:#000000;stroke-width:1.5;" width="972.0869" x="1076.1328" y="1144.8203"/><line style="stroke:#181818;stroke-width:0.5;stroke-dasharray:5.0,5.0;" x1="61" x2="61" y1="121.2188" y2="1564.7109"/><line style="stroke:#181818;stroke-width:0.5;stroke-dasharray:5.0,5.0;" x1="406.5439" x2="406.5439" y1="121.2188" y2="1564.7109"/><line style="stroke:#181818;stroke-width:0.5;stroke-dasharray:5.0,5.0;" x1="744.4204" x2="744.4204" y1="121.2188" y2="1564.7109"/><line style="stroke:#181818;stroke-width:0.5;stroke-dasharray:5.0,5.0;" x1="1023.6436" x2="1023.6436" y1="121.2188" y2="1564.7109"/><line style="stroke:#181818;stroke-width:0.5;stroke-dasharray:5.0,5.0;" x1="1159.1328" x2="1159.1328" y1="121.2188" y2="1564.7109"/><line style="stroke:#181818;stroke-width:0.5;stroke-dasharray:5.0,5.0;" x1="1621.2354" x2="1621.2354" y1="121.2188" y2="1564.7109"/><line style="stroke:#181818;stroke-width:0.5;stroke-dasharray:5.0,5.0;" x1="1781.2969" x2="1781.2969" y1="121.2188" y2="1564.7109"/><line style="stroke:#181818;stroke-width:0.5;stroke-dasharray:5.0,5.0;" x1="1955.8135" x2="1955.8135" y1="121.2188" y2="1564.7109"/><text fill="#000000" font-family="sans-serif" font-size="14" lengthAdjust="spacing" textLength="77.0479" x="20" y="118.1426">Coordinador</text><ellipse cx="61.5239" cy="52.1094" fill="#E2E2F0" rx="8" ry="8" style="stroke:#181818;stroke-width:0.5;"/><path d="M61.5239,60.1094 L61.5239,87.1094 M48.5239,68.1094 L74.5239,68.1094 M61.5239,87.1094 L48.5239,102.1094 M61.5239,87.1094 L74.5239,102.1094 " fill="none" style="stroke:#181818;stroke-width:0.5;"/><text fill="#000000" font-family="sans-serif" font-size="14" lengthAdjust="spacing" textLength="77.0479" x="20" y="1578.2441">Coordinador</text><ellipse cx="61.5239" cy="1589.8203" fill="#E2E2F0" rx="8" ry="8" style="stroke:#181818;stroke-width:0.5;"/><path d="M61.5239,1597.8203 L61.5239,1624.8203 M48.5239,1605.8203 L74.5239,1605.8203 M61.5239,1624.8203 L48.5239,1639.8203 M61.5239,1624.8203 L74.5239,1639.8203 " fill="none" style="stroke:#181818;stroke-width:0.5;"/><rect fill="#E2E2F0" height="49.2188" rx="2.5" ry="2.5" style="stroke:#181818;stroke-width:0.5;" width="168.834" x="322.5439" y="71"/><text fill="#000000" font-family="sans-serif" font-size="14" lengthAdjust="spacing" textLength="154.834" x="329.5439" y="92.5332">EditarCargaTrabajoForm</text><text fill="#000000" font-family="sans-serif" font-size="14" lengthAdjust="spacing" textLength="45.8965" x="384.0127" y="110.1426">(React)</text><rect fill="#E2E2F0" height="49.2188" rx="2.5" ry="2.5" style="stroke:#181818;stroke-width:0.5;" width="168.834" x="322.5439" y="1563.7109"/><text fill="#000000" font-family="sans-serif" font-size="14" lengthAdjust="spacing" textLength="154.834" x="329.5439" y="1585.2441">EditarCargaTrabajoForm</text><text fill="#000000" font-family="sans-serif" font-size="14" lengthAdjust="spacing" textLength="45.8965" x="384.0127" y="1602.8535">(React)</text><rect fill="#E2E2F0" height="49.2188" rx="2.5" ry="2.5" style="stroke:#181818;stroke-width:0.5;" width="160.2891" x="664.4204" y="71"/><text fill="#000000" font-family="sans-serif" font-size="14" lengthAdjust="spacing" textLength="146.2891" x="671.4204" y="92.5332">CargaTrabajoController</text><text fill="#000000" font-family="sans-serif" font-size="14" lengthAdjust="spacing" textLength="82.4824" x="703.3237" y="110.1426">(Spring Boot)</text><rect fill="#E2E2F0" height="49.2188" rx="2.5" ry="2.5" style="stroke:#181818;stroke-width:0.5;" width="160.2891" x="664.4204" y="1563.7109"/><text fill="#000000" font-family="sans-serif" font-size="14" lengthAdjust="spacing" textLength="146.2891" x="671.4204" y="1585.2441">CargaTrabajoController</text><text fill="#000000" font-family="sans-serif" font-size="14" lengthAdjust="spacing" textLength="82.4824" x="703.3237" y="1602.8535">(Spring Boot)</text><rect fill="#E2E2F0" height="31.6094" rx="2.5" ry="2.5" style="stroke:#181818;stroke-width:0.5;" width="103.4893" x="972.6436" y="88.6094"/><text fill="#000000" font-family="sans-serif" font-size="14" lengthAdjust="spacing" textLength="89.4893" x="979.6436" y="110.1426">SesionService</text><rect fill="#E2E2F0" height="31.6094" rx="2.5" ry="2.5" style="stroke:#181818;stroke-width:0.5;" width="103.4893" x="972.6436" y="1563.7109"/><text fill="#000000" font-family="sans-serif" font-size="14" lengthAdjust="spacing" textLength="89.4893" x="979.6436" y="1585.2441">SesionService</text><rect fill="#E2E2F0" height="31.6094" rx="2.5" ry="2.5" style="stroke:#181818;stroke-width:0.5;" width="146.2822" x="1086.1328" y="88.6094"/><text fill="#000000" font-family="sans-serif" font-size="14" lengthAdjust="spacing" textLength="132.2822" x="1093.1328" y="110.1426">CargaTrabajoService</text><rect fill="#E2E2F0" height="31.6094" rx="2.5" ry="2.5" style="stroke:#181818;stroke-width:0.5;" width="146.2822" x="1086.1328" y="1563.7109"/><text fill="#000000" font-family="sans-serif" font-size="14" lengthAdjust="spacing" textLength="132.2822" x="1093.1328" y="1585.2441">CargaTrabajoService</text><rect fill="#E2E2F0" height="31.6094" rx="2.5" ry="2.5" style="stroke:#181818;stroke-width:0.5;" width="133.0615" x="1555.2354" y="88.6094"/><text fill="#000000" font-family="sans-serif" font-size="14" lengthAdjust="spacing" textLength="119.0615" x="1562.2354" y="110.1426">PersonaRepository</text><rect fill="#E2E2F0" height="31.6094" rx="2.5" ry="2.5" style="stroke:#181818;stroke-width:0.5;" width="133.0615" x="1555.2354" y="1563.7109"/><text fill="#000000" font-family="sans-serif" font-size="14" lengthAdjust="spacing" textLength="119.0615" x="1562.2354" y="1585.2441">PersonaRepository</text><rect fill="#E2E2F0" height="31.6094" rx="2.5" ry="2.5" style="stroke:#181818;stroke-width:0.5;" width="166.5166" x="1698.2969" y="88.6094"/><text fill="#000000" font-family="sans-serif" font-size="14" lengthAdjust="spacing" textLength="152.5166" x="1705.2969" y="110.1426">CargaTrabajoRepository</text><rect fill="#E2E2F0" height="31.6094" rx="2.5" ry="2.5" style="stroke:#181818;stroke-width:0.5;" width="166.5166" x="1698.2969" y="1563.7109"/><text fill="#000000" font-family="sans-serif" font-size="14" lengthAdjust="spacing" textLength="152.5166" x="1705.2969" y="1585.2441">CargaTrabajoRepository</text><rect fill="#E2E2F0" height="31.6094" rx="2.5" ry="2.5" style="stroke:#181818;stroke-width:0.5;" width="163.4063" x="1874.8135" y="88.6094"/><text fill="#000000" font-family="sans-serif" font-size="14" lengthAdjust="spacing" textLength="149.4063" x="1881.8135" y="110.1426">RecompensaRepository</text><rect fill="#E2E2F0" height="31.6094" rx="2.5" ry="2.5" style="stroke:#181818;stroke-width:0.5;" width="163.4063" x="1874.8135" y="1563.7109"/><text fill="#000000" font-family="sans-serif" font-size="14" lengthAdjust="spacing" textLength="149.4063" x="1881.8135" y="1585.2441">RecompensaRepository</text><rect fill="#FFFFFF" height="1401.1406" style="stroke:#181818;stroke-width:1;" width="10" x="401.9609" y="153.5703"/><rect fill="#FFFFFF" height="314.8672" style="stroke:#181818;stroke-width:1;" width="10" x="739.5649" y="243.625"/><rect fill="#FFFFFF" height="693.2188" style="stroke:#181818;stroke-width:1;" width="10" x="739.5649" y="665.8984"/><rect fill="#FFFFFF" height="55.7031" style="stroke:#181818;stroke-width:1;" width="10" x="1019.3882" y="273.9766"/><rect fill="#FFFFFF" height="30.3516" style="stroke:#181818;stroke-width:1;" width="10" x="1019.3882" y="696.25"/><rect fill="#FFFFFF" height="151.7578" style="stroke:#181818;stroke-width:1;" width="10" x="1154.2739" y="360.0313"/><rect fill="#FFFFFF" height="555.4609" style="stroke:#181818;stroke-width:1;" width="10" x="1154.2739" y="756.9531"/><rect fill="#FFFFFF" height="30.3516" style="stroke:#181818;stroke-width:1;" width="10" x="1616.7661" y="390.3828"/><rect fill="#FFFFFF" height="30.3516" style="stroke:#181818;stroke-width:1;" width="10" x="1616.7661" y="934.7109"/><rect fill="#FFFFFF" height="30.3516" style="stroke:#181818;stroke-width:1;" width="10" x="1776.5552" y="451.0859"/><rect fill="#FFFFFF" height="299.1641" style="stroke:#181818;stroke-width:1;" width="10" x="1776.5552" y="830.6563"/><rect fill="#FFFFFF" height="30.3516" style="stroke:#181818;stroke-width:1;" width="10" x="1951.5166" y="1185.5234"/><polygon fill="#181818" points="389.9609,149.5703,399.9609,153.5703,389.9609,157.5703,393.9609,153.5703" style="stroke:#181818;stroke-width:1;"/><line style="stroke:#181818;stroke-width:1;" x1="61.5239" x2="395.9609" y1="153.5703" y2="153.5703"/><text fill="#000000" font-family="sans-serif" font-size="13" lengthAdjust="spacing" textLength="208.1333" x="68.5239" y="148.7139">Solicita editar carga de una persona</text><line style="stroke:#181818;stroke-width:1;" x1="411.9609" x2="453.9609" y1="183.9219" y2="183.9219"/><line style="stroke:#181818;stroke-width:1;" x1="453.9609" x2="453.9609" y1="183.9219" y2="196.9219"/><line style="stroke:#181818;stroke-width:1;" x1="412.9609" x2="453.9609" y1="196.9219" y2="196.9219"/><polygon fill="#181818" points="422.9609,192.9219,412.9609,196.9219,422.9609,200.9219,418.9609,196.9219" style="stroke:#181818;stroke-width:1;"/><text fill="#000000" font-family="sans-serif" font-size="13" lengthAdjust="spacing" textLength="136.5635" x="418.9609" y="179.0654">Comprobar sesion local</text><polygon fill="#181818" points="727.5649,239.625,737.5649,243.625,727.5649,247.625,731.5649,243.625" style="stroke:#181818;stroke-width:1;"/><line style="stroke:#181818;stroke-width:1;" x1="411.9609" x2="733.5649" y1="243.625" y2="243.625"/><text fill="#000000" font-family="sans-serif" font-size="13" lengthAdjust="spacing" textLength="201.6206" x="418.9609" y="222.417">GET /api/carga-trabajo/{personaId}</text><text fill="#000000" font-family="sans-serif" font-size="13" lengthAdjust="spacing" textLength="99.728" x="418.9609" y="238.7686">Cookie de sesion</text><polygon fill="#181818" points="1007.3882,269.9766,1017.3882,273.9766,1007.3882,277.9766,1011.3882,273.9766" style="stroke:#181818;stroke-width:1;"/><line style="stroke:#181818;stroke-width:1;" x1="749.5649" x2="1013.3882" y1="273.9766" y2="273.9766"/><text fill="#000000" font-family="sans-serif" font-size="13" lengthAdjust="spacing" textLength="209.5806" x="756.5649" y="269.1201">obtenerSesionActual(authentication)</text><path d="M10,288.9766 L70.1709,288.9766 L70.1709,297.3281 L60.1709,307.3281 L10,307.3281 L10,288.9766 " fill="#EEEEEE" style="stroke:#000000;stroke-width:1.5;"/><rect fill="none" height="1258.7344" style="stroke:#000000;stroke-width:1.5;" width="2048.2197" x="10" y="288.9766"/><text fill="#000000" font-family="sans-serif" font-size="13" font-weight="bold" lengthAdjust="spacing" textLength="15.1709" x="25" y="303.4717">alt</text><text fill="#000000" font-family="sans-serif" font-size="11" font-weight="bold" lengthAdjust="spacing" textLength="162.583" x="85.1709" y="302.3955">[Sesion de Coordinador activa]</text><polygon fill="#181818" points="760.5649,325.6797,750.5649,329.6797,760.5649,333.6797,756.5649,329.6797" style="stroke:#181818;stroke-width:1;"/><line style="stroke:#181818;stroke-width:1;stroke-dasharray:2.0,2.0;" x1="754.5649" x2="1023.3882" y1="329.6797" y2="329.6797"/><text fill="#000000" font-family="sans-serif" font-size="13" lengthAdjust="spacing" textLength="205.8926" x="766.5649" y="324.8232">SesionResponse(COORDINADOR)</text><polygon fill="#181818" points="1142.2739,356.0313,1152.2739,360.0313,1142.2739,364.0313,1146.2739,360.0313" style="stroke:#181818;stroke-width:1;"/><line style="stroke:#181818;stroke-width:1;" x1="749.5649" x2="1148.2739" y1="360.0313" y2="360.0313"/><text fill="#000000" font-family="sans-serif" font-size="13" lengthAdjust="spacing" textLength="286.895" x="756.5649" y="355.1748">obtenerCargaDePersona(coordinador, personaId)</text><polygon fill="#181818" points="1604.7661,386.3828,1614.7661,390.3828,1604.7661,394.3828,1608.7661,390.3828" style="stroke:#181818;stroke-width:1;"/><line style="stroke:#181818;stroke-width:1;" x1="1164.2739" x2="1610.7661" y1="390.3828" y2="390.3828"/><text fill="#000000" font-family="sans-serif" font-size="13" lengthAdjust="spacing" textLength="141.6416" x="1171.2739" y="385.5264">obtenerPorId(personaId)</text><polygon fill="#181818" points="1175.2739,416.7344,1165.2739,420.7344,1175.2739,424.7344,1171.2739,420.7344" style="stroke:#181818;stroke-width:1;"/><line style="stroke:#181818;stroke-width:1;stroke-dasharray:2.0,2.0;" x1="1169.2739" x2="1620.7661" y1="420.7344" y2="420.7344"/><text fill="#000000" font-family="sans-serif" font-size="13" lengthAdjust="spacing" textLength="48.4199" x="1181.2739" y="415.8779">Persona</text><polygon fill="#181818" points="1764.5552,447.0859,1774.5552,451.0859,1764.5552,455.0859,1768.5552,451.0859" style="stroke:#181818;stroke-width:1;"/><line style="stroke:#181818;stroke-width:1;" x1="1164.2739" x2="1770.5552" y1="451.0859" y2="451.0859"/><text fill="#000000" font-family="sans-serif" font-size="13" lengthAdjust="spacing" textLength="179.2197" x="1171.2739" y="446.2295">obtenerPorPersona(personaId)</text><polygon fill="#181818" points="1175.2739,477.4375,1165.2739,481.4375,1175.2739,485.4375,1171.2739,481.4375" style="stroke:#181818;stroke-width:1;"/><line style="stroke:#181818;stroke-width:1;stroke-dasharray:2.0,2.0;" x1="1169.2739" x2="1780.5552" y1="481.4375" y2="481.4375"/><text fill="#000000" font-family="sans-serif" font-size="13" lengthAdjust="spacing" textLength="79.4854" x="1181.2739" y="476.5811">CargaTrabajo</text><polygon fill="#181818" points="760.5649,507.7891,750.5649,511.7891,760.5649,515.7891,756.5649,511.7891" style="stroke:#181818;stroke-width:1;"/><line style="stroke:#181818;stroke-width:1;stroke-dasharray:2.0,2.0;" x1="754.5649" x2="1158.2739" y1="511.7891" y2="511.7891"/><text fill="#000000" font-family="sans-serif" font-size="13" lengthAdjust="spacing" textLength="138.0234" x="766.5649" y="506.9326">CargaTrabajoResponse</text><polygon fill="#181818" points="422.9609,554.4922,412.9609,558.4922,422.9609,562.4922,418.9609,558.4922" style="stroke:#181818;stroke-width:1;"/><line style="stroke:#181818;stroke-width:1;stroke-dasharray:2.0,2.0;" x1="416.9609" x2="743.5649" y1="558.4922" y2="558.4922"/><text fill="#000000" font-family="sans-serif" font-size="13" lengthAdjust="spacing" textLength="44.0845" x="428.9609" y="537.2842">200 OK</text><text fill="#000000" font-family="sans-serif" font-size="13" lengthAdjust="spacing" textLength="138.0234" x="428.9609" y="553.6357">CargaTrabajoResponse</text><polygon fill="#181818" points="72.5239,584.8438,62.5239,588.8438,72.5239,592.8438,68.5239,588.8438" style="stroke:#181818;stroke-width:1;"/><line style="stroke:#181818;stroke-width:1;stroke-dasharray:2.0,2.0;" x1="66.5239" x2="400.9609" y1="588.8438" y2="588.8438"/><text fill="#000000" font-family="sans-serif" font-size="13" lengthAdjust="spacing" textLength="244.2324" x="78.5239" y="583.9873">Muestra formulario con datos precargados</text><polygon fill="#181818" points="389.9609,615.1953,399.9609,619.1953,389.9609,623.1953,393.9609,619.1953" style="stroke:#181818;stroke-width:1;"/><line style="stroke:#181818;stroke-width:1;" x1="61.5239" x2="395.9609" y1="619.1953" y2="619.1953"/><text fill="#000000" font-family="sans-serif" font-size="13" lengthAdjust="spacing" textLength="138.7407" x="68.5239" y="614.3389">Modifica horas y guarda</text><polygon fill="#181818" points="727.5649,661.8984,737.5649,665.8984,727.5649,669.8984,731.5649,665.8984" style="stroke:#181818;stroke-width:1;"/><line style="stroke:#181818;stroke-width:1;" x1="411.9609" x2="733.5649" y1="665.8984" y2="665.8984"/><text fill="#000000" font-family="sans-serif" font-size="13" lengthAdjust="spacing" textLength="218.9561" x="418.9609" y="644.6904">PATCH /api/carga-trabajo/{personaId}</text><text fill="#000000" font-family="sans-serif" font-size="13" lengthAdjust="spacing" textLength="222.2188" x="418.9609" y="661.042">CargaTrabajoUpdateRequest + cookie</text><polygon fill="#181818" points="1007.3882,692.25,1017.3882,696.25,1007.3882,700.25,1011.3882,696.25" style="stroke:#181818;stroke-width:1;"/><line style="stroke:#181818;stroke-width:1;" x1="749.5649" x2="1013.3882" y1="696.25" y2="696.25"/><text fill="#000000" font-family="sans-serif" font-size="13" lengthAdjust="spacing" textLength="209.5806" x="756.5649" y="691.3936">obtenerSesionActual(authentication)</text><polygon fill="#181818" points="760.5649,722.6016,750.5649,726.6016,760.5649,730.6016,756.5649,726.6016" style="stroke:#181818;stroke-width:1;"/><line style="stroke:#181818;stroke-width:1;stroke-dasharray:2.0,2.0;" x1="754.5649" x2="1023.3882" y1="726.6016" y2="726.6016"/><text fill="#000000" font-family="sans-serif" font-size="13" lengthAdjust="spacing" textLength="205.8926" x="766.5649" y="721.7451">SesionResponse(COORDINADOR)</text><polygon fill="#181818" points="1142.2739,752.9531,1152.2739,756.9531,1142.2739,760.9531,1146.2739,756.9531" style="stroke:#181818;stroke-width:1;"/><line style="stroke:#181818;stroke-width:1;" x1="749.5649" x2="1148.2739" y1="756.9531" y2="756.9531"/><text fill="#000000" font-family="sans-serif" font-size="13" lengthAdjust="spacing" textLength="337.4668" x="756.5649" y="752.0967">actualizarCargaDePersona(coordinador, personaId, datos)</text><line style="stroke:#181818;stroke-width:1;" x1="1164.2739" x2="1206.2739" y1="787.3047" y2="787.3047"/><line style="stroke:#181818;stroke-width:1;" x1="1206.2739" x2="1206.2739" y1="787.3047" y2="800.3047"/><line style="stroke:#181818;stroke-width:1;" x1="1165.2739" x2="1206.2739" y1="800.3047" y2="800.3047"/><polygon fill="#181818" points="1175.2739,796.3047,1165.2739,800.3047,1175.2739,804.3047,1171.2739,800.3047" style="stroke:#181818;stroke-width:1;"/><text fill="#000000" font-family="sans-serif" font-size="13" lengthAdjust="spacing" textLength="113.4326" x="1171.2739" y="782.4482">validarHoras(datos)</text><polygon fill="#181818" points="1764.5552,826.6563,1774.5552,830.6563,1764.5552,834.6563,1768.5552,830.6563" style="stroke:#181818;stroke-width:1;"/><line style="stroke:#181818;stroke-width:1;" x1="1164.2739" x2="1770.5552" y1="830.6563" y2="830.6563"/><text fill="#000000" font-family="sans-serif" font-size="13" lengthAdjust="spacing" textLength="179.2197" x="1171.2739" y="825.7998">obtenerPorPersona(personaId)</text><polygon fill="#181818" points="1175.2739,857.0078,1165.2739,861.0078,1175.2739,865.0078,1171.2739,861.0078" style="stroke:#181818;stroke-width:1;"/><line style="stroke:#181818;stroke-width:1;stroke-dasharray:2.0,2.0;" x1="1169.2739" x2="1775.5552" y1="861.0078" y2="861.0078"/><text fill="#000000" font-family="sans-serif" font-size="13" lengthAdjust="spacing" textLength="79.4854" x="1181.2739" y="856.1514">CargaTrabajo</text><line style="stroke:#181818;stroke-width:1;" x1="1164.2739" x2="1206.2739" y1="891.3594" y2="891.3594"/><line style="stroke:#181818;stroke-width:1;" x1="1206.2739" x2="1206.2739" y1="891.3594" y2="904.3594"/><line style="stroke:#181818;stroke-width:1;" x1="1165.2739" x2="1206.2739" y1="904.3594" y2="904.3594"/><polygon fill="#181818" points="1175.2739,900.3594,1165.2739,904.3594,1175.2739,908.3594,1171.2739,904.3594" style="stroke:#181818;stroke-width:1;"/><text fill="#000000" font-family="sans-serif" font-size="13" lengthAdjust="spacing" textLength="228.3252" x="1171.2739" y="886.5029">actualizarCampos(cargaTrabajo, datos)</text><polygon fill="#181818" points="1604.7661,930.7109,1614.7661,934.7109,1604.7661,938.7109,1608.7661,934.7109" style="stroke:#181818;stroke-width:1;"/><line style="stroke:#181818;stroke-width:1;" x1="1164.2739" x2="1610.7661" y1="934.7109" y2="934.7109"/><text fill="#000000" font-family="sans-serif" font-size="13" lengthAdjust="spacing" textLength="141.6416" x="1171.2739" y="929.8545">obtenerPorId(personaId)</text><polygon fill="#181818" points="1175.2739,961.0625,1165.2739,965.0625,1175.2739,969.0625,1171.2739,965.0625" style="stroke:#181818;stroke-width:1;"/><line style="stroke:#181818;stroke-width:1;stroke-dasharray:2.0,2.0;" x1="1169.2739" x2="1620.7661" y1="965.0625" y2="965.0625"/><text fill="#000000" font-family="sans-serif" font-size="13" lengthAdjust="spacing" textLength="104.7935" x="1181.2739" y="960.2061">Persona con sede</text><line style="stroke:#181818;stroke-width:1;" x1="1164.2739" x2="1206.2739" y1="995.4141" y2="995.4141"/><line style="stroke:#181818;stroke-width:1;" x1="1206.2739" x2="1206.2739" y1="995.4141" y2="1008.4141"/><line style="stroke:#181818;stroke-width:1;" x1="1165.2739" x2="1206.2739" y1="1008.4141" y2="1008.4141"/><polygon fill="#181818" points="1175.2739,1004.4141,1165.2739,1008.4141,1175.2739,1012.4141,1171.2739,1008.4141" style="stroke:#181818;stroke-width:1;"/><text fill="#000000" font-family="sans-serif" font-size="13" lengthAdjust="spacing" textLength="428.4922" x="1171.2739" y="990.5576">calcularExcesoDocenteSiAplica(cargaTrabajo, persona.sede, maximo16h)</text><polygon fill="#181818" points="1764.5552,1034.7656,1774.5552,1038.7656,1764.5552,1042.7656,1768.5552,1038.7656" style="stroke:#181818;stroke-width:1;"/><line style="stroke:#181818;stroke-width:1;" x1="1164.2739" x2="1770.5552" y1="1038.7656" y2="1038.7656"/><text fill="#000000" font-family="sans-serif" font-size="13" lengthAdjust="spacing" textLength="197.2725" x="1171.2739" y="1033.9092">guardar(cargaTrabajoActualizada)</text><polygon fill="#181818" points="1175.2739,1065.1172,1165.2739,1069.1172,1175.2739,1073.1172,1171.2739,1069.1172" style="stroke:#181818;stroke-width:1;"/><line style="stroke:#181818;stroke-width:1;stroke-dasharray:2.0,2.0;" x1="1169.2739" x2="1775.5552" y1="1069.1172" y2="1069.1172"/><text fill="#000000" font-family="sans-serif" font-size="13" lengthAdjust="spacing" textLength="148.8652" x="1181.2739" y="1064.2607">CargaTrabajo actualizada</text><polygon fill="#181818" points="1764.5552,1095.4688,1774.5552,1099.4688,1764.5552,1103.4688,1768.5552,1099.4688" style="stroke:#181818;stroke-width:1;"/><line style="stroke:#181818;stroke-width:1;" x1="1164.2739" x2="1770.5552" y1="1099.4688" y2="1099.4688"/><text fill="#000000" font-family="sans-serif" font-size="13" lengthAdjust="spacing" textLength="295.5278" x="1171.2739" y="1094.6123">recalcularPrioridadParaProyectosLibres(personaId)</text><polygon fill="#181818" points="1175.2739,1125.8203,1165.2739,1129.8203,1175.2739,1133.8203,1171.2739,1129.8203" style="stroke:#181818;stroke-width:1;"/><line style="stroke:#181818;stroke-width:1;stroke-dasharray:2.0,2.0;" x1="1169.2739" x2="1780.5552" y1="1129.8203" y2="1129.8203"/><text fill="#000000" font-family="sans-serif" font-size="13" lengthAdjust="spacing" textLength="121.4053" x="1181.2739" y="1124.9639">Prioridad actualizada</text><path d="M1076.1328,1144.8203 L1136.3037,1144.8203 L1136.3037,1153.1719 L1126.3037,1163.1719 L1076.1328,1163.1719 L1076.1328,1144.8203 " fill="#EEEEEE" style="stroke:#000000;stroke-width:1.5;"/><rect fill="none" height="138.2422" style="stroke:#000000;stroke-width:1.5;" width="972.0869" x="1076.1328" y="1144.8203"/><text fill="#000000" font-family="sans-serif" font-size="13" font-weight="bold" lengthAdjust="spacing" textLength="15.1709" x="1091.1328" y="1159.3154">alt</text><text fill="#000000" font-family="sans-serif" font-size="11" font-weight="bold" lengthAdjust="spacing" textLength="256.1582" x="1151.3037" y="1158.2393">[Sede con docencia y excede 16 horas docentes]</text><polygon fill="#181818" points="1939.5166,1181.5234,1949.5166,1185.5234,1939.5166,1189.5234,1943.5166,1185.5234" style="stroke:#181818;stroke-width:1;"/><line style="stroke:#181818;stroke-width:1;" x1="1164.2739" x2="1945.5166" y1="1185.5234" y2="1185.5234"/><text fill="#000000" font-family="sans-serif" font-size="13" lengthAdjust="spacing" textLength="333.1187" x="1171.2739" y="1180.667">registrarCompensacionPendienteSiExcede(cargaTrabajo)</text><polygon fill="#181818" points="1175.2739,1211.875,1165.2739,1215.875,1175.2739,1219.875,1171.2739,1215.875" style="stroke:#181818;stroke-width:1;"/><line style="stroke:#181818;stroke-width:1;stroke-dasharray:2.0,2.0;" x1="1169.2739" x2="1955.5166" y1="1215.875" y2="1215.875"/><text fill="#000000" font-family="sans-serif" font-size="13" lengthAdjust="spacing" textLength="137.3188" x="1181.2739" y="1211.0186">Recompensa pendiente</text><line style="stroke:#000000;stroke-width:1;stroke-dasharray:2.0,2.0;" x1="1076.1328" x2="2048.2197" y1="1224.875" y2="1224.875"/><text fill="#000000" font-family="sans-serif" font-size="11" font-weight="bold" lengthAdjust="spacing" textLength="246.9575" x="1081.1328" y="1236.2939">[Sede sin docencia o no excede limite docente]</text><line style="stroke:#181818;stroke-width:1;" x1="1164.2739" x2="1206.2739" y1="1262.0625" y2="1262.0625"/><line style="stroke:#181818;stroke-width:1;" x1="1206.2739" x2="1206.2739" y1="1262.0625" y2="1275.0625"/><line style="stroke:#181818;stroke-width:1;" x1="1165.2739" x2="1206.2739" y1="1275.0625" y2="1275.0625"/><polygon fill="#181818" points="1175.2739,1271.0625,1165.2739,1275.0625,1175.2739,1279.0625,1171.2739,1275.0625" style="stroke:#181818;stroke-width:1;"/><text fill="#000000" font-family="sans-serif" font-size="13" lengthAdjust="spacing" textLength="237.7515" x="1171.2739" y="1257.2061">Mantener carga sin compensacion nueva</text><polygon fill="#181818" points="760.5649,1308.4141,750.5649,1312.4141,760.5649,1316.4141,756.5649,1312.4141" style="stroke:#181818;stroke-width:1;"/><line style="stroke:#181818;stroke-width:1;stroke-dasharray:2.0,2.0;" x1="754.5649" x2="1158.2739" y1="1312.4141" y2="1312.4141"/><text fill="#000000" font-family="sans-serif" font-size="13" lengthAdjust="spacing" textLength="138.0234" x="766.5649" y="1307.5576">CargaTrabajoResponse</text><polygon fill="#181818" points="422.9609,1355.1172,412.9609,1359.1172,422.9609,1363.1172,418.9609,1359.1172" style="stroke:#181818;stroke-width:1;"/><line style="stroke:#181818;stroke-width:1;stroke-dasharray:2.0,2.0;" x1="416.9609" x2="743.5649" y1="1359.1172" y2="1359.1172"/><text fill="#000000" font-family="sans-serif" font-size="13" lengthAdjust="spacing" textLength="44.0845" x="428.9609" y="1337.9092">200 OK</text><text fill="#000000" font-family="sans-serif" font-size="13" lengthAdjust="spacing" textLength="138.0234" x="428.9609" y="1354.2607">CargaTrabajoResponse</text><line style="stroke:#181818;stroke-width:1;" x1="411.9609" x2="453.9609" y1="1389.4688" y2="1389.4688"/><line style="stroke:#181818;stroke-width:1;" x1="453.9609" x2="453.9609" y1="1389.4688" y2="1402.4688"/><line style="stroke:#181818;stroke-width:1;" x1="412.9609" x2="453.9609" y1="1402.4688" y2="1402.4688"/><polygon fill="#181818" points="422.9609,1398.4688,412.9609,1402.4688,422.9609,1406.4688,418.9609,1402.4688" style="stroke:#181818;stroke-width:1;"/><text fill="#000000" font-family="sans-serif" font-size="13" lengthAdjust="spacing" textLength="177.7344" x="418.9609" y="1384.6123">Actualizar vista y notificar exito</text><polygon fill="#181818" points="72.5239,1428.8203,62.5239,1432.8203,72.5239,1436.8203,68.5239,1432.8203" style="stroke:#181818;stroke-width:1;"/><line style="stroke:#181818;stroke-width:1;stroke-dasharray:2.0,2.0;" x1="66.5239" x2="400.9609" y1="1432.8203" y2="1432.8203"/><text fill="#000000" font-family="sans-serif" font-size="13" lengthAdjust="spacing" textLength="316.437" x="78.5239" y="1427.9639">Presenta OPCIONES_CARGA_TRABAJO_ABIERTAS</text><line style="stroke:#000000;stroke-width:1;stroke-dasharray:2.0,2.0;" x1="10" x2="2058.2197" y1="1441.8203" y2="1441.8203"/><text fill="#000000" font-family="sans-serif" font-size="11" font-weight="bold" lengthAdjust="spacing" textLength="245.7114" x="15" y="1453.2393">[Sesion ausente, rol invalido o datos invalidos]</text><polygon fill="#181818" points="755.5649,1475.0078,745.5649,1479.0078,755.5649,1483.0078,751.5649,1479.0078" style="stroke:#181818;stroke-width:1;"/><line style="stroke:#181818;stroke-width:1;stroke-dasharray:2.0,2.0;" x1="749.5649" x2="1023.3882" y1="1479.0078" y2="1479.0078"/><text fill="#000000" font-family="sans-serif" font-size="13" lengthAdjust="spacing" textLength="255.8232" x="761.5649" y="1474.1514">SesionNoValidaException / validacion fallida</text><polygon fill="#181818" points="422.9609,1505.3594,412.9609,1509.3594,422.9609,1513.3594,418.9609,1509.3594" style="stroke:#181818;stroke-width:1;"/><line style="stroke:#181818;stroke-width:1;stroke-dasharray:2.0,2.0;" x1="416.9609" x2="743.5649" y1="1509.3594" y2="1509.3594"/><text fill="#000000" font-family="sans-serif" font-size="13" lengthAdjust="spacing" textLength="308.604" x="428.9609" y="1504.5029">400 Bad Request / 401 Unauthorized / 403 Forbidden</text><polygon fill="#181818" points="72.5239,1535.7109,62.5239,1539.7109,72.5239,1543.7109,68.5239,1539.7109" style="stroke:#181818;stroke-width:1;"/><line style="stroke:#181818;stroke-width:1;stroke-dasharray:2.0,2.0;" x1="66.5239" x2="400.9609" y1="1539.7109" y2="1539.7109"/><text fill="#000000" font-family="sans-serif" font-size="13" lengthAdjust="spacing" textLength="145.9707" x="78.5239" y="1534.8545">Presenta error de edicion</text><!--SRC=[pLVVRzis47xtNt7eauqbSxCDVSZ30CLsMszBRCZkdWe4P_7YS9D9ZPA3fiN-znr9YIQLE4a7x4U001B5- -xutNTtT2ERac0gSMjmXo08QYhsf0g9S0ep8HiqKA3Pkc-DmGt-fg7I1YPQ6o4L2cq60ooQtbA5ff65h50ryChZJ2pCsaEyrMRtKGrpOilHAy0QtXgj6b8YjOnj9hp1wB8amvQhoaYrXGkjM_kiagdfYcgfrOhCdIp8RV4hnnsaUzrpkdb9fjOASwfqBVd4zsvhj7eSksVZFZsqoAdGkufKtVUHVXWC8ghXzCT0tZciTCbe3GBrShTN29MFrAPBtc531zAxXnHimZwDtZ1CxQY3KXTO9fkPzdDuDrl362ivTjvEMvcClxJ-vkBFZueZ_bsILvXBGmZ2Pex_BPhFq3de3UEJyQzPqUon7EA-kIN5N673YwE3VPjMB9lsqJg92V8x1y1_xORJBdB_dbDTQLNJSB9OvDFvLJPTv2EtNr3VZLqDqJgDX71TKgVKwc5O748uWK25nurGlSvySExPGaUQ2l1BRUPYU0meLg7z4BsxuuPWsm_zu_Njes22MEDGkbCUY-UWSBiStj9OuWhf1vG2X72wpAN5vVFtC6K7SbtE4dL_z_erB7vcPRu0oMhKBXsaRtav9FWSBlTKi_3XXZlRlaGZDHHMYjZe6Yf3hZI4hZqTnyhtKWjvmnA7MssuxEzXkqSZiEUxfM2PhIVldo-yw7WVAew7Slh31WlVS8IsADF4TKVz6oNPKtQebt-cwj058J_ZomhlnEVYPVKNdDon1u7clKt7C0BuRyhZiGXZ6dOyD8P5P9KS-b_jBqxzDGdwYaOJC7ZA5BQ8PfyAglLK5wmoMiciuk66lGEs0NzhVPt03Z_9dJvxS_jKcdnHcGGewsWKE7ffJWxS2tp2dIr-VvubjmN3UX9BDBWq-fxuubJ_8ZU6wZxpH_m7Y0VEZ_PEFnbvABg6PCcqrxjx86QNLy_UjDr6U9vzY-eT9xs0s3DjfUrtPj8k5rocI-vEqgTgvh0JXaS1DyJPkzPqtzFbzFo7RvpvrbqmZ2Xu19hAcZmHjOo8qA1qnqKfTvADMoOU8o84SedAbKrxnRAGHSG5g3srbmvxmVfVph0OAUZVm1rdrkf3wSOD8yFiy5NqcG6uP0qpQGYBvMI-k9gjhYTP_YwxNkVPHVRJuZgxcC_oTROQj6bm8m7treRhbY_s89NhjfepuiTcjr0_CKMkzA-kHLl1LNOCmRXjsYuBDrZQv-V6IaB53qpg1HTODoV7l7867vGTTrnxdqcufU-1VyLif12allww4DWYO_WImDBZ2xkDU63L4a5r47y1]--></g></svg>