<svg xmlns="http://www.w3.org/2000/svg" xmlns:xlink="http://www.w3.org/1999/xlink" contentStyleType="text/css" height="1586px" preserveAspectRatio="none" style="width:1874px;height:1586px;background:#FFFFFF;" version="1.1" viewBox="0 0 1874 1586" width="1874px" zoomAndPan="magnify"><title>Diagrama de secuencia - Editar carga de trabajo por Coordinador</title><defs/><g><text fill="#000000" font-family="sans-serif" font-size="14" font-weight="bold" lengthAdjust="spacing" textLength="434.1162" x="721.1814" y="29.5332">Diagrama de secuencia - Editar carga de trabajo por Coordinador</text><rect fill="#FFFFFF" height="1340.4375" style="stroke:#181818;stroke-width:1;" width="10" x="401.9609" y="153.5703"/><rect fill="#FFFFFF" height="314.8672" style="stroke:#181818;stroke-width:1;" width="10" x="739.5649" y="243.625"/><rect fill="#FFFFFF" height="632.5156" style="stroke:#181818;stroke-width:1;" width="10" x="739.5649" y="665.8984"/><rect fill="#FFFFFF" height="55.7031" style="stroke:#181818;stroke-width:1;" width="10" x="1019.3882" y="273.9766"/><rect fill="#FFFFFF" height="30.3516" style="stroke:#181818;stroke-width:1;" width="10" x="1019.3882" y="696.25"/><rect fill="#FFFFFF" height="151.7578" style="stroke:#181818;stroke-width:1;" width="10" x="1154.2739" y="360.0313"/><rect fill="#FFFFFF" height="494.7578" style="stroke:#181818;stroke-width:1;" width="10" x="1154.2739" y="756.9531"/><rect fill="#FFFFFF" height="30.3516" style="stroke:#181818;stroke-width:1;" width="10" x="1426.0254" y="390.3828"/><rect fill="#FFFFFF" height="30.3516" style="stroke:#181818;stroke-width:1;" width="10" x="1585.8145" y="451.0859"/><rect fill="#FFFFFF" height="238.4609" style="stroke:#181818;stroke-width:1;" width="10" x="1585.8145" y="830.6563"/><rect fill="#FFFFFF" height="30.3516" style="stroke:#181818;stroke-width:1;" width="10" x="1760.7759" y="1124.8203"/><rect fill="none" height="1198.0313" style="stroke:#000000;stroke-width:1.5;" width="1857.479" x="10" y="288.9766"/><rect fill="none" height="138.2422" style="stroke:#000000;stroke-width:1.5;" width="781.3462" x="1076.1328" y="1084.1172"/><line style="stroke:#181818;stroke-width:0.5;stroke-dasharray:5.0,5.0;" x1="61" x2="61" y1="121.2188" y2="1504.0078"/><line style="stroke:#181818;stroke-width:0.5;stroke-dasharray:5.0,5.0;" x1="406.5439" x2="406.5439" y1="121.2188" y2="1504.0078"/><line style="stroke:#181818;stroke-width:0.5;stroke-dasharray:5.0,5.0;" x1="744.4204" x2="744.4204" y1="121.2188" y2="1504.0078"/><line style="stroke:#181818;stroke-width:0.5;stroke-dasharray:5.0,5.0;" x1="1023.6436" x2="1023.6436" y1="121.2188" y2="1504.0078"/><line style="stroke:#181818;stroke-width:0.5;stroke-dasharray:5.0,5.0;" x1="1159.1328" x2="1159.1328" y1="121.2188" y2="1504.0078"/><line style="stroke:#181818;stroke-width:0.5;stroke-dasharray:5.0,5.0;" x1="1430.4946" x2="1430.4946" y1="121.2188" y2="1504.0078"/><line style="stroke:#181818;stroke-width:0.5;stroke-dasharray:5.0,5.0;" x1="1590.5562" x2="1590.5562" y1="121.2188" y2="1504.0078"/><line style="stroke:#181818;stroke-width:0.5;stroke-dasharray:5.0,5.0;" x1="1765.0728" x2="1765.0728" y1="121.2188" y2="1504.0078"/><text fill="#000000" font-family="sans-serif" font-size="14" lengthAdjust="spacing" textLength="77.0479" x="20" y="118.1426">Coordinador</text><ellipse cx="61.5239" cy="52.1094" fill="#E2E2F0" rx="8" ry="8" style="stroke:#181818;stroke-width:0.5;"/><path d="M61.5239,60.1094 L61.5239,87.1094 M48.5239,68.1094 L74.5239,68.1094 M61.5239,87.1094 L48.5239,102.1094 M61.5239,87.1094 L74.5239,102.1094 " fill="none" style="stroke:#181818;stroke-width:0.5;"/><text fill="#000000" font-family="sans-serif" font-size="14" lengthAdjust="spacing" textLength="77.0479" x="20" y="1517.541">Coordinador</text><ellipse cx="61.5239" cy="1529.1172" fill="#E2E2F0" rx="8" ry="8" style="stroke:#181818;stroke-width:0.5;"/><path d="M61.5239,1537.1172 L61.5239,1564.1172 M48.5239,1545.1172 L74.5239,1545.1172 M61.5239,1564.1172 L48.5239,1579.1172 M61.5239,1564.1172 L74.5239,1579.1172 " fill="none" style="stroke:#181818;stroke-width:0.5;"/><rect fill="#E2E2F0" height="49.2188" rx="2.5" ry="2.5" style="stroke:#181818;stroke-width:0.5;" width="168.834" x="322.5439" y="71"/><text fill="#000000" font-family="sans-serif" font-size="14" lengthAdjust="spacing" textLength="154.834" x="329.5439" y="92.5332">EditarCargaTrabajoForm</text><text fill="#000000" font-family="sans-serif" font-size="14" lengthAdjust="spacing" textLength="45.8965" x="384.0127" y="110.1426">(React)</text><rect fill="#E2E2F0" height="49.2188" rx="2.5" ry="2.5" style="stroke:#181818;stroke-width:0.5;" width="168.834" x="322.5439" y="1503.0078"/><text fill="#000000" font-family="sans-serif" font-size="14" lengthAdjust="spacing" textLength="154.834" x="329.5439" y="1524.541">EditarCargaTrabajoForm</text><text fill="#000000" font-family="sans-serif" font-size="14" lengthAdjust="spacing" textLength="45.8965" x="384.0127" y="1542.1504">(React)</text><rect fill="#E2E2F0" height="49.2188" rx="2.5" ry="2.5" style="stroke:#181818;stroke-width:0.5;" width="160.2891" x="664.4204" y="71"/><text fill="#000000" font-family="sans-serif" font-size="14" lengthAdjust="spacing" textLength="146.2891" x="671.4204" y="92.5332">CargaTrabajoController</text><text fill="#000000" font-family="sans-serif" font-size="14" lengthAdjust="spacing" textLength="82.4824" x="703.3237" y="110.1426">(Spring Boot)</text><rect fill="#E2E2F0" height="49.2188" rx="2.5" ry="2.5" style="stroke:#181818;stroke-width:0.5;" width="160.2891" x="664.4204" y="1503.0078"/><text fill="#000000" font-family="sans-serif" font-size="14" lengthAdjust="spacing" textLength="146.2891" x="671.4204" y="1524.541">CargaTrabajoController</text><text fill="#000000" font-family="sans-serif" font-size="14" lengthAdjust="spacing" textLength="82.4824" x="703.3237" y="1542.1504">(Spring Boot)</text><rect fill="#E2E2F0" height="31.6094" rx="2.5" ry="2.5" style="stroke:#181818;stroke-width:0.5;" width="103.4893" x="972.6436" y="88.6094"/><text fill="#000000" font-family="sans-serif" font-size="14" lengthAdjust="spacing" textLength="89.4893" x="979.6436" y="110.1426">SesionService</text><rect fill="#E2E2F0" height="31.6094" rx="2.5" ry="2.5" style="stroke:#181818;stroke-width:0.5;" width="103.4893" x="972.6436" y="1503.0078"/><text fill="#000000" font-family="sans-serif" font-size="14" lengthAdjust="spacing" textLength="89.4893" x="979.6436" y="1524.541">SesionService</text><rect fill="#E2E2F0" height="31.6094" rx="2.5" ry="2.5" style="stroke:#181818;stroke-width:0.5;" width="146.2822" x="1086.1328" y="88.6094"/><text fill="#000000" font-family="sans-serif" font-size="14" lengthAdjust="spacing" textLength="132.2822" x="1093.1328" y="110.1426">CargaTrabajoService</text><rect fill="#E2E2F0" height="31.6094" rx="2.5" ry="2.5" style="stroke:#181818;stroke-width:0.5;" width="146.2822" x="1086.1328" y="1503.0078"/><text fill="#000000" font-family="sans-serif" font-size="14" lengthAdjust="spacing" textLength="132.2822" x="1093.1328" y="1524.541">CargaTrabajoService</text><rect fill="#E2E2F0" height="31.6094" rx="2.5" ry="2.5" style="stroke:#181818;stroke-width:0.5;" width="133.0615" x="1364.4946" y="88.6094"/><text fill="#000000" font-family="sans-serif" font-size="14" lengthAdjust="spacing" textLength="119.0615" x="1371.4946" y="110.1426">PersonaRepository</text><rect fill="#E2E2F0" height="31.6094" rx="2.5" ry="2.5" style="stroke:#181818;stroke-width:0.5;" width="133.0615" x="1364.4946" y="1503.0078"/><text fill="#000000" font-family="sans-serif" font-size="14" lengthAdjust="spacing" textLength="119.0615" x="1371.4946" y="1524.541">PersonaRepository</text><rect fill="#E2E2F0" height="31.6094" rx="2.5" ry="2.5" style="stroke:#181818;stroke-width:0.5;" width="166.5166" x="1507.5562" y="88.6094"/><text fill="#000000" font-family="sans-serif" font-size="14" lengthAdjust="spacing" textLength="152.5166" x="1514.5562" y="110.1426">CargaTrabajoRepository</text><rect fill="#E2E2F0" height="31.6094" rx="2.5" ry="2.5" style="stroke:#181818;stroke-width:0.5;" width="166.5166" x="1507.5562" y="1503.0078"/><text fill="#000000" font-family="sans-serif" font-size="14" lengthAdjust="spacing" textLength="152.5166" x="1514.5562" y="1524.541">CargaTrabajoRepository</text><rect fill="#E2E2F0" height="31.6094" rx="2.5" ry="2.5" style="stroke:#181818;stroke-width:0.5;" width="163.4063" x="1684.0728" y="88.6094"/><text fill="#000000" font-family="sans-serif" font-size="14" lengthAdjust="spacing" textLength="149.4063" x="1691.0728" y="110.1426">RecompensaRepository</text><rect fill="#E2E2F0" height="31.6094" rx="2.5" ry="2.5" style="stroke:#181818;stroke-width:0.5;" width="163.4063" x="1684.0728" y="1503.0078"/><text fill="#000000" font-family="sans-serif" font-size="14" lengthAdjust="spacing" textLength="149.4063" x="1691.0728" y="1524.541">RecompensaRepository</text><rect fill="#FFFFFF" height="1340.4375" style="stroke:#181818;stroke-width:1;" width="10" x="401.9609" y="153.5703"/><rect fill="#FFFFFF" height="314.8672" style="stroke:#181818;stroke-width:1;" width="10" x="739.5649" y="243.625"/><rect fill="#FFFFFF" height="632.5156" style="stroke:#181818;stroke-width:1;" width="10" x="739.5649" y="665.8984"/><rect fill="#FFFFFF" height="55.7031" style="stroke:#181818;stroke-width:1;" width="10" x="1019.3882" y="273.9766"/><rect fill="#FFFFFF" height="30.3516" style="stroke:#181818;stroke-width:1;" width="10" x="1019.3882" y="696.25"/><rect fill="#FFFFFF" height="151.7578" style="stroke:#181818;stroke-width:1;" width="10" x="1154.2739" y="360.0313"/><rect fill="#FFFFFF" height="494.7578" style="stroke:#181818;stroke-width:1;" width="10" x="1154.2739" y="756.9531"/><rect fill="#FFFFFF" height="30.3516" style="stroke:#181818;stroke-width:1;" width="10" x="1426.0254" y="390.3828"/><rect fill="#FFFFFF" height="30.3516" style="stroke:#181818;stroke-width:1;" width="10" x="1585.8145" y="451.0859"/><rect fill="#FFFFFF" height="238.4609" style="stroke:#181818;stroke-width:1;" width="10" x="1585.8145" y="830.6563"/><rect fill="#FFFFFF" height="30.3516" style="stroke:#181818;stroke-width:1;" width="10" x="1760.7759" y="1124.8203"/><polygon fill="#181818" points="389.9609,149.5703,399.9609,153.5703,389.9609,157.5703,393.9609,153.5703" style="stroke:#181818;stroke-width:1;"/><line style="stroke:#181818;stroke-width:1;" x1="61.5239" x2="395.9609" y1="153.5703" y2="153.5703"/><text fill="#000000" font-family="sans-serif" font-size="13" lengthAdjust="spacing" textLength="208.1333" x="68.5239" y="148.7139">Solicita editar carga de una persona</text><line style="stroke:#181818;stroke-width:1;" x1="411.9609" x2="453.9609" y1="183.9219" y2="183.9219"/><line style="stroke:#181818;stroke-width:1;" x1="453.9609" x2="453.9609" y1="183.9219" y2="196.9219"/><line style="stroke:#181818;stroke-width:1;" x1="412.9609" x2="453.9609" y1="196.9219" y2="196.9219"/><polygon fill="#181818" points="422.9609,192.9219,412.9609,196.9219,422.9609,200.9219,418.9609,196.9219" style="stroke:#181818;stroke-width:1;"/><text fill="#000000" font-family="sans-serif" font-size="13" lengthAdjust="spacing" textLength="136.5635" x="418.9609" y="179.0654">Comprobar sesion local</text><polygon fill="#181818" points="727.5649,239.625,737.5649,243.625,727.5649,247.625,731.5649,243.625" style="stroke:#181818;stroke-width:1;"/><line style="stroke:#181818;stroke-width:1;" x1="411.9609" x2="733.5649" y1="243.625" y2="243.625"/><text fill="#000000" font-family="sans-serif" font-size="13" lengthAdjust="spacing" textLength="201.6206" x="418.9609" y="222.417">GET /api/carga-trabajo/{personaId}</text><text fill="#000000" font-family="sans-serif" font-size="13" lengthAdjust="spacing" textLength="99.728" x="418.9609" y="238.7686">Cookie de sesion</text><polygon fill="#181818" points="1007.3882,269.9766,1017.3882,273.9766,1007.3882,277.9766,1011.3882,273.9766" style="stroke:#181818;stroke-width:1;"/><line style="stroke:#181818;stroke-width:1;" x1="749.5649" x2="1013.3882" y1="273.9766" y2="273.9766"/><text fill="#000000" font-family="sans-serif" font-size="13" lengthAdjust="spacing" textLength="209.5806" x="756.5649" y="269.1201">obtenerSesionActual(authentication)</text><path d="M10,288.9766 L70.1709,288.9766 L70.1709,297.3281 L60.1709,307.3281 L10,307.3281 L10,288.9766 " fill="#EEEEEE" style="stroke:#000000;stroke-width:1.5;"/><rect fill="none" height="1198.0313" style="stroke:#000000;stroke-width:1.5;" width="1857.479" x="10" y="288.9766"/><text fill="#000000" font-family="sans-serif" font-size="13" font-weight="bold" lengthAdjust="spacing" textLength="15.1709" x="25" y="303.4717">alt</text><text fill="#000000" font-family="sans-serif" font-size="11" font-weight="bold" lengthAdjust="spacing" textLength="162.583" x="85.1709" y="302.3955">[Sesion de Coordinador activa]</text><polygon fill="#181818" points="760.5649,325.6797,750.5649,329.6797,760.5649,333.6797,756.5649,329.6797" style="stroke:#181818;stroke-width:1;"/><line style="stroke:#181818;stroke-width:1;stroke-dasharray:2.0,2.0;" x1="754.5649" x2="1023.3882" y1="329.6797" y2="329.6797"/><text fill="#000000" font-family="sans-serif" font-size="13" lengthAdjust="spacing" textLength="205.8926" x="766.5649" y="324.8232">SesionResponse(COORDINADOR)</text><polygon fill="#181818" points="1142.2739,356.0313,1152.2739,360.0313,1142.2739,364.0313,1146.2739,360.0313" style="stroke:#181818;stroke-width:1;"/><line style="stroke:#181818;stroke-width:1;" x1="749.5649" x2="1148.2739" y1="360.0313" y2="360.0313"/><text fill="#000000" font-family="sans-serif" font-size="13" lengthAdjust="spacing" textLength="286.895" x="756.5649" y="355.1748">obtenerCargaDePersona(coordinador, personaId)</text><polygon fill="#181818" points="1414.0254,386.3828,1424.0254,390.3828,1414.0254,394.3828,1418.0254,390.3828" style="stroke:#181818;stroke-width:1;"/><line style="stroke:#181818;stroke-width:1;" x1="1164.2739" x2="1420.0254" y1="390.3828" y2="390.3828"/><text fill="#000000" font-family="sans-serif" font-size="13" lengthAdjust="spacing" textLength="141.6416" x="1171.2739" y="385.5264">obtenerPorId(personaId)</text><polygon fill="#181818" points="1175.2739,416.7344,1165.2739,420.7344,1175.2739,424.7344,1171.2739,420.7344" style="stroke:#181818;stroke-width:1;"/><line style="stroke:#181818;stroke-width:1;stroke-dasharray:2.0,2.0;" x1="1169.2739" x2="1430.0254" y1="420.7344" y2="420.7344"/><text fill="#000000" font-family="sans-serif" font-size="13" lengthAdjust="spacing" textLength="48.4199" x="1181.2739" y="415.8779">Persona</text><polygon fill="#181818" points="1573.8145,447.0859,1583.8145,451.0859,1573.8145,455.0859,1577.8145,451.0859" style="stroke:#181818;stroke-width:1;"/><line style="stroke:#181818;stroke-width:1;" x1="1164.2739" x2="1579.8145" y1="451.0859" y2="451.0859"/><text fill="#000000" font-family="sans-serif" font-size="13" lengthAdjust="spacing" textLength="179.2197" x="1171.2739" y="446.2295">obtenerPorPersona(personaId)</text><polygon fill="#181818" points="1175.2739,477.4375,1165.2739,481.4375,1175.2739,485.4375,1171.2739,481.4375" style="stroke:#181818;stroke-width:1;"/><line style="stroke:#181818;stroke-width:1;stroke-dasharray:2.0,2.0;" x1="1169.2739" x2="1589.8145" y1="481.4375" y2="481.4375"/><text fill="#000000" font-family="sans-serif" font-size="13" lengthAdjust="spacing" textLength="79.4854" x="1181.2739" y="476.5811">CargaTrabajo</text><polygon fill="#181818" points="760.5649,507.7891,750.5649,511.7891,760.5649,515.7891,756.5649,511.7891" style="stroke:#181818;stroke-width:1;"/><line style="stroke:#181818;stroke-width:1;stroke-dasharray:2.0,2.0;" x1="754.5649" x2="1158.2739" y1="511.7891" y2="511.7891"/><text fill="#000000" font-family="sans-serif" font-size="13" lengthAdjust="spacing" textLength="138.0234" x="766.5649" y="506.9326">CargaTrabajoResponse</text><polygon fill="#181818" points="422.9609,554.4922,412.9609,558.4922,422.9609,562.4922,418.9609,558.4922" style="stroke:#181818;stroke-width:1;"/><line style="stroke:#181818;stroke-width:1;stroke-dasharray:2.0,2.0;" x1="416.9609" x2="743.5649" y1="558.4922" y2="558.4922"/><text fill="#000000" font-family="sans-serif" font-size="13" lengthAdjust="spacing" textLength="44.0845" x="428.9609" y="537.2842">200 OK</text><text fill="#000000" font-family="sans-serif" font-size="13" lengthAdjust="spacing" textLength="138.0234" x="428.9609" y="553.6357">CargaTrabajoResponse</text><polygon fill="#181818" points="72.5239,584.8438,62.5239,588.8438,72.5239,592.8438,68.5239,588.8438" style="stroke:#181818;stroke-width:1;"/><line style="stroke:#181818;stroke-width:1;stroke-dasharray:2.0,2.0;" x1="66.5239" x2="400.9609" y1="588.8438" y2="588.8438"/><text fill="#000000" font-family="sans-serif" font-size="13" lengthAdjust="spacing" textLength="244.2324" x="78.5239" y="583.9873">Muestra formulario con datos precargados</text><polygon fill="#181818" points="389.9609,615.1953,399.9609,619.1953,389.9609,623.1953,393.9609,619.1953" style="stroke:#181818;stroke-width:1;"/><line style="stroke:#181818;stroke-width:1;" x1="61.5239" x2="395.9609" y1="619.1953" y2="619.1953"/><text fill="#000000" font-family="sans-serif" font-size="13" lengthAdjust="spacing" textLength="138.7407" x="68.5239" y="614.3389">Modifica horas y guarda</text><polygon fill="#181818" points="727.5649,661.8984,737.5649,665.8984,727.5649,669.8984,731.5649,665.8984" style="stroke:#181818;stroke-width:1;"/><line style="stroke:#181818;stroke-width:1;" x1="411.9609" x2="733.5649" y1="665.8984" y2="665.8984"/><text fill="#000000" font-family="sans-serif" font-size="13" lengthAdjust="spacing" textLength="218.9561" x="418.9609" y="644.6904">PATCH /api/carga-trabajo/{personaId}</text><text fill="#000000" font-family="sans-serif" font-size="13" lengthAdjust="spacing" textLength="222.2188" x="418.9609" y="661.042">CargaTrabajoUpdateRequest + cookie</text><polygon fill="#181818" points="1007.3882,692.25,1017.3882,696.25,1007.3882,700.25,1011.3882,696.25" style="stroke:#181818;stroke-width:1;"/><line style="stroke:#181818;stroke-width:1;" x1="749.5649" x2="1013.3882" y1="696.25" y2="696.25"/><text fill="#000000" font-family="sans-serif" font-size="13" lengthAdjust="spacing" textLength="209.5806" x="756.5649" y="691.3936">obtenerSesionActual(authentication)</text><polygon fill="#181818" points="760.5649,722.6016,750.5649,726.6016,760.5649,730.6016,756.5649,726.6016" style="stroke:#181818;stroke-width:1;"/><line style="stroke:#181818;stroke-width:1;stroke-dasharray:2.0,2.0;" x1="754.5649" x2="1023.3882" y1="726.6016" y2="726.6016"/><text fill="#000000" font-family="sans-serif" font-size="13" lengthAdjust="spacing" textLength="205.8926" x="766.5649" y="721.7451">SesionResponse(COORDINADOR)</text><polygon fill="#181818" points="1142.2739,752.9531,1152.2739,756.9531,1142.2739,760.9531,1146.2739,756.9531" style="stroke:#181818;stroke-width:1;"/><line style="stroke:#181818;stroke-width:1;" x1="749.5649" x2="1148.2739" y1="756.9531" y2="756.9531"/><text fill="#000000" font-family="sans-serif" font-size="13" lengthAdjust="spacing" textLength="337.4668" x="756.5649" y="752.0967">actualizarCargaDePersona(coordinador, personaId, datos)</text><line style="stroke:#181818;stroke-width:1;" x1="1164.2739" x2="1206.2739" y1="787.3047" y2="787.3047"/><line style="stroke:#181818;stroke-width:1;" x1="1206.2739" x2="1206.2739" y1="787.3047" y2="800.3047"/><line style="stroke:#181818;stroke-width:1;" x1="1165.2739" x2="1206.2739" y1="800.3047" y2="800.3047"/><polygon fill="#181818" points="1175.2739,796.3047,1165.2739,800.3047,1175.2739,804.3047,1171.2739,800.3047" style="stroke:#181818;stroke-width:1;"/><text fill="#000000" font-family="sans-serif" font-size="13" lengthAdjust="spacing" textLength="113.4326" x="1171.2739" y="782.4482">validarHoras(datos)</text><polygon fill="#181818" points="1573.8145,826.6563,1583.8145,830.6563,1573.8145,834.6563,1577.8145,830.6563" style="stroke:#181818;stroke-width:1;"/><line style="stroke:#181818;stroke-width:1;" x1="1164.2739" x2="1579.8145" y1="830.6563" y2="830.6563"/><text fill="#000000" font-family="sans-serif" font-size="13" lengthAdjust="spacing" textLength="179.2197" x="1171.2739" y="825.7998">obtenerPorPersona(personaId)</text><polygon fill="#181818" points="1175.2739,857.0078,1165.2739,861.0078,1175.2739,865.0078,1171.2739,861.0078" style="stroke:#181818;stroke-width:1;"/><line style="stroke:#181818;stroke-width:1;stroke-dasharray:2.0,2.0;" x1="1169.2739" x2="1584.8145" y1="861.0078" y2="861.0078"/><text fill="#000000" font-family="sans-serif" font-size="13" lengthAdjust="spacing" textLength="79.4854" x="1181.2739" y="856.1514">CargaTrabajo</text><line style="stroke:#181818;stroke-width:1;" x1="1164.2739" x2="1206.2739" y1="891.3594" y2="891.3594"/><line style="stroke:#181818;stroke-width:1;" x1="1206.2739" x2="1206.2739" y1="891.3594" y2="904.3594"/><line style="stroke:#181818;stroke-width:1;" x1="1165.2739" x2="1206.2739" y1="904.3594" y2="904.3594"/><polygon fill="#181818" points="1175.2739,900.3594,1165.2739,904.3594,1175.2739,908.3594,1171.2739,904.3594" style="stroke:#181818;stroke-width:1;"/><text fill="#000000" font-family="sans-serif" font-size="13" lengthAdjust="spacing" textLength="228.3252" x="1171.2739" y="886.5029">actualizarCampos(cargaTrabajo, datos)</text><line style="stroke:#181818;stroke-width:1;" x1="1164.2739" x2="1206.2739" y1="934.7109" y2="934.7109"/><line style="stroke:#181818;stroke-width:1;" x1="1206.2739" x2="1206.2739" y1="934.7109" y2="947.7109"/><line style="stroke:#181818;stroke-width:1;" x1="1165.2739" x2="1206.2739" y1="947.7109" y2="947.7109"/><polygon fill="#181818" points="1175.2739,943.7109,1165.2739,947.7109,1175.2739,951.7109,1171.2739,947.7109" style="stroke:#181818;stroke-width:1;"/><text fill="#000000" font-family="sans-serif" font-size="13" lengthAdjust="spacing" textLength="211.7007" x="1171.2739" y="929.8545">calcularExcesoDocente(maximo16h)</text><polygon fill="#181818" points="1573.8145,974.0625,1583.8145,978.0625,1573.8145,982.0625,1577.8145,978.0625" style="stroke:#181818;stroke-width:1;"/><line style="stroke:#181818;stroke-width:1;" x1="1164.2739" x2="1579.8145" y1="978.0625" y2="978.0625"/><text fill="#000000" font-family="sans-serif" font-size="13" lengthAdjust="spacing" textLength="197.2725" x="1171.2739" y="973.2061">guardar(cargaTrabajoActualizada)</text><polygon fill="#181818" points="1175.2739,1004.4141,1165.2739,1008.4141,1175.2739,1012.4141,1171.2739,1008.4141" style="stroke:#181818;stroke-width:1;"/><line style="stroke:#181818;stroke-width:1;stroke-dasharray:2.0,2.0;" x1="1169.2739" x2="1584.8145" y1="1008.4141" y2="1008.4141"/><text fill="#000000" font-family="sans-serif" font-size="13" lengthAdjust="spacing" textLength="148.8652" x="1181.2739" y="1003.5576">CargaTrabajo actualizada</text><polygon fill="#181818" points="1573.8145,1034.7656,1583.8145,1038.7656,1573.8145,1042.7656,1577.8145,1038.7656" style="stroke:#181818;stroke-width:1;"/><line style="stroke:#181818;stroke-width:1;" x1="1164.2739" x2="1579.8145" y1="1038.7656" y2="1038.7656"/><text fill="#000000" font-family="sans-serif" font-size="13" lengthAdjust="spacing" textLength="295.5278" x="1171.2739" y="1033.9092">recalcularPrioridadParaProyectosLibres(personaId)</text><polygon fill="#181818" points="1175.2739,1065.1172,1165.2739,1069.1172,1175.2739,1073.1172,1171.2739,1069.1172" style="stroke:#181818;stroke-width:1;"/><line style="stroke:#181818;stroke-width:1;stroke-dasharray:2.0,2.0;" x1="1169.2739" x2="1589.8145" y1="1069.1172" y2="1069.1172"/><text fill="#000000" font-family="sans-serif" font-size="13" lengthAdjust="spacing" textLength="121.4053" x="1181.2739" y="1064.2607">Prioridad actualizada</text><path d="M1076.1328,1084.1172 L1136.3037,1084.1172 L1136.3037,1092.4688 L1126.3037,1102.4688 L1076.1328,1102.4688 L1076.1328,1084.1172 " fill="#EEEEEE" style="stroke:#000000;stroke-width:1.5;"/><rect fill="none" height="138.2422" style="stroke:#000000;stroke-width:1.5;" width="781.3462" x="1076.1328" y="1084.1172"/><text fill="#000000" font-family="sans-serif" font-size="13" font-weight="bold" lengthAdjust="spacing" textLength="15.1709" x="1091.1328" y="1098.6123">alt</text><text fill="#000000" font-family="sans-serif" font-size="11" font-weight="bold" lengthAdjust="spacing" textLength="145.5029" x="1151.3037" y="1097.5361">[Excede 16 horas docentes]</text><polygon fill="#181818" points="1748.7759,1120.8203,1758.7759,1124.8203,1748.7759,1128.8203,1752.7759,1124.8203" style="stroke:#181818;stroke-width:1;"/><line style="stroke:#181818;stroke-width:1;" x1="1164.2739" x2="1754.7759" y1="1124.8203" y2="1124.8203"/><text fill="#000000" font-family="sans-serif" font-size="13" lengthAdjust="spacing" textLength="333.1187" x="1171.2739" y="1119.9639">registrarCompensacionPendienteSiExcede(cargaTrabajo)</text><polygon fill="#181818" points="1175.2739,1151.1719,1165.2739,1155.1719,1175.2739,1159.1719,1171.2739,1155.1719" style="stroke:#181818;stroke-width:1;"/><line style="stroke:#181818;stroke-width:1;stroke-dasharray:2.0,2.0;" x1="1169.2739" x2="1764.7759" y1="1155.1719" y2="1155.1719"/><text fill="#000000" font-family="sans-serif" font-size="13" lengthAdjust="spacing" textLength="137.3188" x="1181.2739" y="1150.3154">Recompensa pendiente</text><line style="stroke:#000000;stroke-width:1;stroke-dasharray:2.0,2.0;" x1="1076.1328" x2="1857.479" y1="1164.1719" y2="1164.1719"/><text fill="#000000" font-family="sans-serif" font-size="11" font-weight="bold" lengthAdjust="spacing" textLength="139.3691" x="1081.1328" y="1175.5908">[No excede limite docente]</text><line style="stroke:#181818;stroke-width:1;" x1="1164.2739" x2="1206.2739" y1="1201.3594" y2="1201.3594"/><line style="stroke:#181818;stroke-width:1;" x1="1206.2739" x2="1206.2739" y1="1201.3594" y2="1214.3594"/><line style="stroke:#181818;stroke-width:1;" x1="1165.2739" x2="1206.2739" y1="1214.3594" y2="1214.3594"/><polygon fill="#181818" points="1175.2739,1210.3594,1165.2739,1214.3594,1175.2739,1218.3594,1171.2739,1214.3594" style="stroke:#181818;stroke-width:1;"/><text fill="#000000" font-family="sans-serif" font-size="13" lengthAdjust="spacing" textLength="237.7515" x="1171.2739" y="1196.5029">Mantener carga sin compensacion nueva</text><polygon fill="#181818" points="760.5649,1247.7109,750.5649,1251.7109,760.5649,1255.7109,756.5649,1251.7109" style="stroke:#181818;stroke-width:1;"/><line style="stroke:#181818;stroke-width:1;stroke-dasharray:2.0,2.0;" x1="754.5649" x2="1158.2739" y1="1251.7109" y2="1251.7109"/><text fill="#000000" font-family="sans-serif" font-size="13" lengthAdjust="spacing" textLength="138.0234" x="766.5649" y="1246.8545">CargaTrabajoResponse</text><polygon fill="#181818" points="422.9609,1294.4141,412.9609,1298.4141,422.9609,1302.4141,418.9609,1298.4141" style="stroke:#181818;stroke-width:1;"/><line style="stroke:#181818;stroke-width:1;stroke-dasharray:2.0,2.0;" x1="416.9609" x2="743.5649" y1="1298.4141" y2="1298.4141"/><text fill="#000000" font-family="sans-serif" font-size="13" lengthAdjust="spacing" textLength="44.0845" x="428.9609" y="1277.2061">200 OK</text><text fill="#000000" font-family="sans-serif" font-size="13" lengthAdjust="spacing" textLength="138.0234" x="428.9609" y="1293.5576">CargaTrabajoResponse</text><line style="stroke:#181818;stroke-width:1;" x1="411.9609" x2="453.9609" y1="1328.7656" y2="1328.7656"/><line style="stroke:#181818;stroke-width:1;" x1="453.9609" x2="453.9609" y1="1328.7656" y2="1341.7656"/><line style="stroke:#181818;stroke-width:1;" x1="412.9609" x2="453.9609" y1="1341.7656" y2="1341.7656"/><polygon fill="#181818" points="422.9609,1337.7656,412.9609,1341.7656,422.9609,1345.7656,418.9609,1341.7656" style="stroke:#181818;stroke-width:1;"/><text fill="#000000" font-family="sans-serif" font-size="13" lengthAdjust="spacing" textLength="177.7344" x="418.9609" y="1323.9092">Actualizar vista y notificar exito</text><polygon fill="#181818" points="72.5239,1368.1172,62.5239,1372.1172,72.5239,1376.1172,68.5239,1372.1172" style="stroke:#181818;stroke-width:1;"/><line style="stroke:#181818;stroke-width:1;stroke-dasharray:2.0,2.0;" x1="66.5239" x2="400.9609" y1="1372.1172" y2="1372.1172"/><text fill="#000000" font-family="sans-serif" font-size="13" lengthAdjust="spacing" textLength="316.437" x="78.5239" y="1367.2607">Presenta OPCIONES_CARGA_TRABAJO_ABIERTAS</text><line style="stroke:#000000;stroke-width:1;stroke-dasharray:2.0,2.0;" x1="10" x2="1867.479" y1="1381.1172" y2="1381.1172"/><text fill="#000000" font-family="sans-serif" font-size="11" font-weight="bold" lengthAdjust="spacing" textLength="245.7114" x="15" y="1392.5361">[Sesion ausente, rol invalido o datos invalidos]</text><polygon fill="#181818" points="755.5649,1414.3047,745.5649,1418.3047,755.5649,1422.3047,751.5649,1418.3047" style="stroke:#181818;stroke-width:1;"/><line style="stroke:#181818;stroke-width:1;stroke-dasharray:2.0,2.0;" x1="749.5649" x2="1023.3882" y1="1418.3047" y2="1418.3047"/><text fill="#000000" font-family="sans-serif" font-size="13" lengthAdjust="spacing" textLength="255.8232" x="761.5649" y="1413.4482">SesionNoValidaException / validacion fallida</text><polygon fill="#181818" points="422.9609,1444.6563,412.9609,1448.6563,422.9609,1452.6563,418.9609,1448.6563" style="stroke:#181818;stroke-width:1;"/><line style="stroke:#181818;stroke-width:1;stroke-dasharray:2.0,2.0;" x1="416.9609" x2="743.5649" y1="1448.6563" y2="1448.6563"/><text fill="#000000" font-family="sans-serif" font-size="13" lengthAdjust="spacing" textLength="308.604" x="428.9609" y="1443.7998">400 Bad Request / 401 Unauthorized / 403 Forbidden</text><polygon fill="#181818" points="72.5239,1475.0078,62.5239,1479.0078,72.5239,1483.0078,68.5239,1479.0078" style="stroke:#181818;stroke-width:1;"/><line style="stroke:#181818;stroke-width:1;stroke-dasharray:2.0,2.0;" x1="66.5239" x2="400.9609" y1="1479.0078" y2="1479.0078"/><text fill="#000000" font-family="sans-serif" font-size="13" lengthAdjust="spacing" textLength="145.9707" x="78.5239" y="1474.1514">Presenta error de edicion</text><!--SRC=[pLPHRzis47xthpZqoSOIkEc6FkHXW6AxhRibDcHtJmM2itXnsCgaHib1qs7_VKTIeaabJh81mnOWW4polllkxhiZ6zcK15E9MuCx145GKx4dLKY4KvW9sQ210itMxJK6D_X5GwKDJBGsGYeKsWm6M3IzfGfD8mjPeMhWbSUPM9YrXtYdpUwp6kR4bgDNW3MyCrerf4Hg6TjC-83HPKc6BLULaMeB5rgtzbabKzCLrLAh5PaxMP0xubUEEqZFkk_qy99ChHNcLEbQSiJtxcYqUXoxP-Es7bhaLEXTHQhk-qWt1eCerN3wSqZUEQnqoMWD0lLgjrS8bMTgooNliA53qhkF56p2FetUC4pjKWUbBh1C3dFQp-7zR0rZhEJOUJjjPJB-e_Kt5tz-LipugoIlC5U6GC9MZlyjcg_GEUWDuvFnFxEYsMCvn7rpIufpXGqlZWxsRLcnRDfFwoHEa3yv0Fvh3vnspFtldEfAgvg6ayKYdywlikaY7xdpWlfkx6fWwpGIwBgYJgdLmx0uK3Y1a0gF6w5wdNboxjj2HveAy4jjvc9u32XMeTs8Vhjm0zbsenzUtpuY4yGQK-cYFCRde72x77wbNE8EwHDA0GAThd9fS_dwFIpP8RckPecwtxn-3OjVM9alGB8QjKi7wTky70fy3fTxgbduSCEJRL-YaHeAAqLiT0sL8TSQGjS-7SVQzr8BUSCIXrjjkEtlORj78x3dkqt1CbjFFZpVU55udohcGpdzRid23ypGDcLQk2xKVz2IFMM7VlbtkWuT2VaTNzPu9xuMB-k_uEIEFGWq7smvXX70VzCUZp6Cqx3ZIsDOH5P9q8zPypmlh5ndtmggzLGNN4yQxl2RtEcpjxTF1UkbQH9_MKT6uEYbaHqY4FY4Ezj2dkkIcyjmLSGI3IwDlYT-VjI_oesXkf_m8_u3n0FdHoUGlLziblXoENlRzgVm-V9DtQEUNjcM_rRQ2M4cxNB1mbvoFqiBiP8UEydcAE06Jhs7GBUVBgUn7lQu6LftmJ0Azn5eAck2AmtauoxbJlB1Dkh7WWvEBr6vLcWV8BLKK4HnWzfJUoNRvyV_SiB7I47N1kwuYiYJMUd6ZMh3sU67sZFNmvAroKb3M2mdyyNLR7KzoVBtsVKwpowoZulhx68-ozVPQk1ItWvCt5iREW5-ze9KRXPfqEsbqYtKJypOA_sR6s1MN9KTqZ1kHvghmWsMzlkvePkauYTEwWKtJdUBZ7db33ufUnbmJtqduPP-17xZRwGGfFx-PHgoHSRm5SdIu-UiPJomQecWEeY_0000]--></g></svg>