<?xml version="1.0" encoding="us-ascii" standalone="no"?><svg xmlns="http://www.w3.org/2000/svg" xmlns:xlink="http://www.w3.org/1999/xlink" contentStyleType="text/css" height="1002px" preserveAspectRatio="none" style="width:2210px;height:1002px;background:#FFFFFF;" version="1.1" viewBox="0 0 2210 1002" width="2210px" zoomAndPan="magnify"><defs/><g><text fill="#000000" font-family="sans-serif" font-size="14" font-weight="bold" lengthAdjust="spacing" textLength="443" x="884.5" y="29.5332">Diagrama de secuencia - Abrir recompensas como Coordinador</text><rect fill="#FFFFFF" height="756.625" style="stroke:#181818;stroke-width:1.0;" width="10" x="315.5" y="153.5703"/><rect fill="#FFFFFF" height="557.6797" style="stroke:#181818;stroke-width:1.0;" width="10" x="578.5" y="200.2734"/><rect fill="#FFFFFF" height="55.7031" style="stroke:#181818;stroke-width:1.0;" width="10" x="924.5" y="230.625"/><rect fill="#FFFFFF" height="394.5703" style="stroke:#181818;stroke-width:1.0;" width="10" x="1058.5" y="316.6797"/><rect fill="#FFFFFF" height="30.3516" style="stroke:#181818;stroke-width:1.0;" width="10" x="1324.5" y="407.7344"/><rect fill="none" height="657.5703" style="stroke:#000000;stroke-width:1.5;" width="2193" x="10" y="245.625"/><line style="stroke:#181818;stroke-width:0.5;stroke-dasharray:5.0,5.0;" x1="62" x2="62" y1="121.2188" y2="920.1953"/><line style="stroke:#181818;stroke-width:0.5;stroke-dasharray:5.0,5.0;" x1="320" x2="320" y1="121.2188" y2="920.1953"/><line style="stroke:#181818;stroke-width:0.5;stroke-dasharray:5.0,5.0;" x1="583" x2="583" y1="121.2188" y2="920.1953"/><line style="stroke:#181818;stroke-width:0.5;stroke-dasharray:5.0,5.0;" x1="929.5" x2="929.5" y1="121.2188" y2="920.1953"/><line style="stroke:#181818;stroke-width:0.5;stroke-dasharray:5.0,5.0;" x1="1063.5" x2="1063.5" y1="121.2188" y2="920.1953"/><line style="stroke:#181818;stroke-width:0.5;stroke-dasharray:5.0,5.0;" x1="1329" x2="1329" y1="121.2188" y2="920.1953"/><line style="stroke:#181818;stroke-width:0.5;stroke-dasharray:5.0,5.0;" x1="1491" x2="1491" y1="121.2188" y2="920.1953"/><line style="stroke:#181818;stroke-width:0.5;stroke-dasharray:5.0,5.0;" x1="1649" x2="1649" y1="121.2188" y2="920.1953"/><line style="stroke:#181818;stroke-width:0.5;stroke-dasharray:5.0,5.0;" x1="2143" x2="2143" y1="121.2188" y2="920.1953"/><text fill="#000000" font-family="sans-serif" font-size="14" lengthAdjust="spacing" textLength="79" x="20" y="118.1426">Coordinador</text><ellipse cx="62.5" cy="52.1094" fill="#E2E2F0" rx="8" ry="8" style="stroke:#181818;stroke-width:0.5;"/><path d="M62.5,60.1094 L62.5,87.1094 M49.5,68.1094 L75.5,68.1094 M62.5,87.1094 L49.5,102.1094 M62.5,87.1094 L75.5,102.1094 " fill="none" style="stroke:#181818;stroke-width:0.5;"/><text fill="#000000" font-family="sans-serif" font-size="14" lengthAdjust="spacing" textLength="79" x="20" y="933.7285">Coordinador</text><ellipse cx="62.5" cy="945.3047" fill="#E2E2F0" rx="8" ry="8" style="stroke:#181818;stroke-width:0.5;"/><path d="M62.5,953.3047 L62.5,980.3047 M49.5,961.3047 L75.5,961.3047 M62.5,980.3047 L49.5,995.3047 M62.5,980.3047 L75.5,995.3047 " fill="none" style="stroke:#181818;stroke-width:0.5;"/><rect fill="#E2E2F0" height="49.2188" rx="2.5" ry="2.5" style="stroke:#181818;stroke-width:0.5;" width="137" x="252" y="71"/><text fill="#000000" font-family="sans-serif" font-size="14" lengthAdjust="spacing" textLength="123" x="259" y="92.5332">RecompensasPage</text><text fill="#000000" font-family="sans-serif" font-size="14" lengthAdjust="spacing" textLength="47" x="297" y="110.1426">(React)</text><rect fill="#E2E2F0" height="49.2188" rx="2.5" ry="2.5" style="stroke:#181818;stroke-width:0.5;" width="137" x="252" y="919.1953"/><text fill="#000000" font-family="sans-serif" font-size="14" lengthAdjust="spacing" textLength="123" x="259" y="940.7285">RecompensasPage</text><text fill="#000000" font-family="sans-serif" font-size="14" lengthAdjust="spacing" textLength="47" x="297" y="958.3379">(React)</text><rect fill="#E2E2F0" height="49.2188" rx="2.5" ry="2.5" style="stroke:#181818;stroke-width:0.5;" width="159" x="504" y="71"/><text fill="#000000" font-family="sans-serif" font-size="14" lengthAdjust="spacing" textLength="145" x="511" y="92.5332">RecompensaController</text><text fill="#000000" font-family="sans-serif" font-size="14" lengthAdjust="spacing" textLength="84" x="541.5" y="110.1426">(Spring Boot)</text><rect fill="#E2E2F0" height="49.2188" rx="2.5" ry="2.5" style="stroke:#181818;stroke-width:0.5;" width="159" x="504" y="919.1953"/><text fill="#000000" font-family="sans-serif" font-size="14" lengthAdjust="spacing" textLength="145" x="511" y="940.7285">RecompensaController</text><text fill="#000000" font-family="sans-serif" font-size="14" lengthAdjust="spacing" textLength="84" x="541.5" y="958.3379">(Spring Boot)</text><rect fill="#E2E2F0" height="31.6094" rx="2.5" ry="2.5" style="stroke:#181818;stroke-width:0.5;" width="104" x="877.5" y="88.6094"/><text fill="#000000" font-family="sans-serif" font-size="14" lengthAdjust="spacing" textLength="90" x="884.5" y="110.1426">SesionService</text><rect fill="#E2E2F0" height="31.6094" rx="2.5" ry="2.5" style="stroke:#181818;stroke-width:0.5;" width="104" x="877.5" y="919.1953"/><text fill="#000000" font-family="sans-serif" font-size="14" lengthAdjust="spacing" textLength="90" x="884.5" y="940.7285">SesionService</text><rect fill="#E2E2F0" height="31.6094" rx="2.5" ry="2.5" style="stroke:#181818;stroke-width:0.5;" width="144" x="991.5" y="88.6094"/><text fill="#000000" font-family="sans-serif" font-size="14" lengthAdjust="spacing" textLength="130" x="998.5" y="110.1426">RecompensaService</text><rect fill="#E2E2F0" height="31.6094" rx="2.5" ry="2.5" style="stroke:#181818;stroke-width:0.5;" width="144" x="991.5" y="919.1953"/><text fill="#000000" font-family="sans-serif" font-size="14" lengthAdjust="spacing" textLength="130" x="998.5" y="940.7285">RecompensaService</text><rect fill="#E2E2F0" height="31.6094" rx="2.5" ry="2.5" style="stroke:#181818;stroke-width:0.5;" width="165" x="1247" y="88.6094"/><text fill="#000000" font-family="sans-serif" font-size="14" lengthAdjust="spacing" textLength="151" x="1254" y="110.1426">RecompensaRepository</text><rect fill="#E2E2F0" height="31.6094" rx="2.5" ry="2.5" style="stroke:#181818;stroke-width:0.5;" width="165" x="1247" y="919.1953"/><text fill="#000000" font-family="sans-serif" font-size="14" lengthAdjust="spacing" textLength="151" x="1254" y="940.7285">RecompensaRepository</text><rect fill="#E2E2F0" height="31.6094" rx="2.5" ry="2.5" style="stroke:#181818;stroke-width:0.5;" width="138" x="1422" y="88.6094"/><text fill="#000000" font-family="sans-serif" font-size="14" lengthAdjust="spacing" textLength="124" x="1429" y="110.1426">ProyectoRepository</text><rect fill="#E2E2F0" height="31.6094" rx="2.5" ry="2.5" style="stroke:#181818;stroke-width:0.5;" width="138" x="1422" y="919.1953"/><text fill="#000000" font-family="sans-serif" font-size="14" lengthAdjust="spacing" textLength="124" x="1429" y="940.7285">ProyectoRepository</text><rect fill="#E2E2F0" height="31.6094" rx="2.5" ry="2.5" style="stroke:#181818;stroke-width:0.5;" width="159" x="1570" y="88.6094"/><text fill="#000000" font-family="sans-serif" font-size="14" lengthAdjust="spacing" textLength="145" x="1577" y="110.1426">InvestigadorRepository</text><rect fill="#E2E2F0" height="31.6094" rx="2.5" ry="2.5" style="stroke:#181818;stroke-width:0.5;" width="159" x="1570" y="919.1953"/><text fill="#000000" font-family="sans-serif" font-size="14" lengthAdjust="spacing" textLength="145" x="1577" y="940.7285">InvestigadorRepository</text><text fill="#000000" font-family="sans-serif" font-size="14" lengthAdjust="spacing" textLength="93" x="2094" y="118.1426">Base de Datos</text><path d="M2125.5,67.6094 C2125.5,57.6094 2143.5,57.6094 2143.5,57.6094 C2143.5,57.6094 2161.5,57.6094 2161.5,67.6094 L2161.5,93.6094 C2161.5,103.6094 2143.5,103.6094 2143.5,103.6094 C2143.5,103.6094 2125.5,103.6094 2125.5,93.6094 L2125.5,67.6094 " fill="#E2E2F0" style="stroke:#181818;stroke-width:1.5;"/><path d="M2125.5,67.6094 C2125.5,77.6094 2143.5,77.6094 2143.5,77.6094 C2143.5,77.6094 2161.5,77.6094 2161.5,67.6094 " fill="none" style="stroke:#181818;stroke-width:1.5;"/><text fill="#000000" font-family="sans-serif" font-size="14" lengthAdjust="spacing" textLength="93" x="2094" y="933.7285">Base de Datos</text><path d="M2125.5,946.8047 C2125.5,936.8047 2143.5,936.8047 2143.5,936.8047 C2143.5,936.8047 2161.5,936.8047 2161.5,946.8047 L2161.5,972.8047 C2161.5,982.8047 2143.5,982.8047 2143.5,982.8047 C2143.5,982.8047 2125.5,982.8047 2125.5,972.8047 L2125.5,946.8047 " fill="#E2E2F0" style="stroke:#181818;stroke-width:1.5;"/><path d="M2125.5,946.8047 C2125.5,956.8047 2143.5,956.8047 2143.5,956.8047 C2143.5,956.8047 2161.5,956.8047 2161.5,946.8047 " fill="none" style="stroke:#181818;stroke-width:1.5;"/><rect fill="#FFFFFF" height="756.625" style="stroke:#181818;stroke-width:1.0;" width="10" x="315.5" y="153.5703"/><rect fill="#FFFFFF" height="557.6797" style="stroke:#181818;stroke-width:1.0;" width="10" x="578.5" y="200.2734"/><rect fill="#FFFFFF" height="55.7031" style="stroke:#181818;stroke-width:1.0;" width="10" x="924.5" y="230.625"/><rect fill="#FFFFFF" height="394.5703" style="stroke:#181818;stroke-width:1.0;" width="10" x="1058.5" y="316.6797"/><rect fill="#FFFFFF" height="30.3516" style="stroke:#181818;stroke-width:1.0;" width="10" x="1324.5" y="407.7344"/><polygon fill="#181818" points="303.5,149.5703,313.5,153.5703,303.5,157.5703,307.5,153.5703" style="stroke:#181818;stroke-width:1.0;"/><line style="stroke:#181818;stroke-width:1.0;" x1="62.5" x2="309.5" y1="153.5703" y2="153.5703"/><text fill="#000000" font-family="sans-serif" font-size="13" lengthAdjust="spacing" textLength="154" x="69.5" y="148.7139">Solicita abrir recompensas</text><polygon fill="#181818" points="566.5,196.2734,576.5,200.2734,566.5,204.2734,570.5,200.2734" style="stroke:#181818;stroke-width:1.0;"/><line style="stroke:#181818;stroke-width:1.0;" x1="325.5" x2="572.5" y1="200.2734" y2="200.2734"/><text fill="#000000" font-family="sans-serif" font-size="13" lengthAdjust="spacing" textLength="234" x="332.5" y="179.0654">GET /api/recompensas?criterio={criterio}</text><text fill="#000000" font-family="sans-serif" font-size="13" lengthAdjust="spacing" textLength="100" x="332.5" y="195.417">Cookie de sesion</text><polygon fill="#181818" points="912.5,226.625,922.5,230.625,912.5,234.625,916.5,230.625" style="stroke:#181818;stroke-width:1.0;"/><line style="stroke:#181818;stroke-width:1.0;" x1="588.5" x2="918.5" y1="230.625" y2="230.625"/><text fill="#000000" font-family="sans-serif" font-size="13" lengthAdjust="spacing" textLength="189" x="595.5" y="225.7686">exigirCoordinador(authentication)</text><path d="M10,245.625 L71,245.625 L71,253.9766 L61,263.9766 L10,263.9766 L10,245.625 " fill="#EEEEEE" style="stroke:#000000;stroke-width:1.5;"/><rect fill="none" height="657.5703" style="stroke:#000000;stroke-width:1.5;" width="2193" x="10" y="245.625"/><text fill="#000000" font-family="sans-serif" font-size="13" font-weight="bold" lengthAdjust="spacing" textLength="16" x="25" y="260.1201">alt</text><text fill="#000000" font-family="sans-serif" font-size="11" font-weight="bold" lengthAdjust="spacing" textLength="169" x="86" y="259.0439">[Sesion de Coordinador activa]</text><polygon fill="#181818" points="599.5,282.3281,589.5,286.3281,599.5,290.3281,595.5,286.3281" style="stroke:#181818;stroke-width:1.0;"/><line style="stroke:#181818;stroke-width:1.0;stroke-dasharray:2.0,2.0;" x1="593.5" x2="928.5" y1="286.3281" y2="286.3281"/><text fill="#000000" font-family="sans-serif" font-size="13" lengthAdjust="spacing" textLength="140" x="605.5" y="281.4717">Coordinador autenticado</text><polygon fill="#181818" points="1046.5,312.6797,1056.5,316.6797,1046.5,320.6797,1050.5,316.6797" style="stroke:#181818;stroke-width:1.0;"/><line style="stroke:#181818;stroke-width:1.0;" x1="588.5" x2="1052.5" y1="316.6797" y2="316.6797"/><text fill="#000000" font-family="sans-serif" font-size="13" lengthAdjust="spacing" textLength="126" x="595.5" y="311.8232">listarGlobales(criterio)</text><polygon fill="#181818" points="1317.5,343.0313,1327.5,347.0313,1317.5,351.0313,1321.5,347.0313" style="stroke:#181818;stroke-width:1.0;"/><line style="stroke:#181818;stroke-width:1.0;" x1="1068.5" x2="1323.5" y1="347.0313" y2="347.0313"/><text fill="#000000" font-family="sans-serif" font-size="13" lengthAdjust="spacing" textLength="237" x="1075.5" y="342.1748">buscarDeProyectosCompletados(criterio)</text><polygon fill="#181818" points="2131.5,373.3828,2141.5,377.3828,2131.5,381.3828,2135.5,377.3828" style="stroke:#181818;stroke-width:1.0;"/><line style="stroke:#181818;stroke-width:1.0;" x1="1329.5" x2="2137.5" y1="377.3828" y2="377.3828"/><text fill="#000000" font-family="sans-serif" font-size="13" lengthAdjust="spacing" textLength="790" x="1336.5" y="372.5264">SELECT r.* FROM recompensas r JOIN proyectos p ON p.id = r.proyecto_id WHERE p.estado = 'COMPLETADO' AND r.anulada = false</text><polygon fill="#181818" points="1345.5,403.7344,1335.5,407.7344,1345.5,411.7344,1341.5,407.7344" style="stroke:#181818;stroke-width:1.0;"/><line style="stroke:#181818;stroke-width:1.0;stroke-dasharray:2.0,2.0;" x1="1339.5" x2="2142.5" y1="407.7344" y2="407.7344"/><text fill="#000000" font-family="sans-serif" font-size="13" lengthAdjust="spacing" textLength="150" x="1351.5" y="402.8779">Resultado de persistencia</text><polygon fill="#181818" points="1079.5,434.0859,1069.5,438.0859,1079.5,442.0859,1075.5,438.0859" style="stroke:#181818;stroke-width:1.0;"/><line style="stroke:#181818;stroke-width:1.0;stroke-dasharray:2.0,2.0;" x1="1073.5" x2="1328.5" y1="438.0859" y2="438.0859"/><text fill="#000000" font-family="sans-serif" font-size="13" lengthAdjust="spacing" textLength="120" x="1085.5" y="433.2295">Lista&lt;Recompensa&gt;</text><polygon fill="#181818" points="1479,464.4375,1489,468.4375,1479,472.4375,1483,468.4375" style="stroke:#181818;stroke-width:1.0;"/><line style="stroke:#181818;stroke-width:1.0;" x1="1068.5" x2="1485" y1="468.4375" y2="468.4375"/><text fill="#000000" font-family="sans-serif" font-size="13" lengthAdjust="spacing" textLength="187" x="1075.5" y="463.5811">obtenerResumenes(proyectoIds)</text><polygon fill="#181818" points="2131.5,494.7891,2141.5,498.7891,2131.5,502.7891,2135.5,498.7891" style="stroke:#181818;stroke-width:1.0;"/><line style="stroke:#181818;stroke-width:1.0;" x1="1491" x2="2137.5" y1="498.7891" y2="498.7891"/><text fill="#000000" font-family="sans-serif" font-size="13" lengthAdjust="spacing" textLength="264" x="1498" y="493.9326">SELECT * FROM proyectos WHERE id IN (?)</text><polygon fill="#181818" points="1502,525.1406,1492,529.1406,1502,533.1406,1498,529.1406" style="stroke:#181818;stroke-width:1.0;"/><line style="stroke:#181818;stroke-width:1.0;stroke-dasharray:2.0,2.0;" x1="1496" x2="2142.5" y1="529.1406" y2="529.1406"/><text fill="#000000" font-family="sans-serif" font-size="13" lengthAdjust="spacing" textLength="150" x="1508" y="524.2842">Resultado de persistencia</text><polygon fill="#181818" points="1079.5,555.4922,1069.5,559.4922,1079.5,563.4922,1075.5,559.4922" style="stroke:#181818;stroke-width:1.0;"/><line style="stroke:#181818;stroke-width:1.0;stroke-dasharray:2.0,2.0;" x1="1073.5" x2="1490" y1="559.4922" y2="559.4922"/><text fill="#000000" font-family="sans-serif" font-size="13" lengthAdjust="spacing" textLength="137" x="1085.5" y="554.6357">Proyectos completados</text><polygon fill="#181818" points="1637.5,585.8438,1647.5,589.8438,1637.5,593.8438,1641.5,589.8438" style="stroke:#181818;stroke-width:1.0;"/><line style="stroke:#181818;stroke-width:1.0;" x1="1068.5" x2="1643.5" y1="589.8438" y2="589.8438"/><text fill="#000000" font-family="sans-serif" font-size="13" lengthAdjust="spacing" textLength="202" x="1075.5" y="584.9873">obtenerResumenes(beneficiarioIds)</text><polygon fill="#181818" points="2131.5,616.1953,2141.5,620.1953,2131.5,624.1953,2135.5,620.1953" style="stroke:#181818;stroke-width:1.0;"/><line style="stroke:#181818;stroke-width:1.0;" x1="1649.5" x2="2137.5" y1="620.1953" y2="620.1953"/><text fill="#000000" font-family="sans-serif" font-size="13" lengthAdjust="spacing" textLength="256" x="1656.5" y="615.3389">SELECT * FROM usuarios WHERE id IN (?)</text><polygon fill="#181818" points="1660.5,646.5469,1650.5,650.5469,1660.5,654.5469,1656.5,650.5469" style="stroke:#181818;stroke-width:1.0;"/><line style="stroke:#181818;stroke-width:1.0;stroke-dasharray:2.0,2.0;" x1="1654.5" x2="2142.5" y1="650.5469" y2="650.5469"/><text fill="#000000" font-family="sans-serif" font-size="13" lengthAdjust="spacing" textLength="150" x="1666.5" y="645.6904">Resultado de persistencia</text><polygon fill="#181818" points="1079.5,676.8984,1069.5,680.8984,1079.5,684.8984,1075.5,680.8984" style="stroke:#181818;stroke-width:1.0;"/><line style="stroke:#181818;stroke-width:1.0;stroke-dasharray:2.0,2.0;" x1="1073.5" x2="1648.5" y1="680.8984" y2="680.8984"/><text fill="#000000" font-family="sans-serif" font-size="13" lengthAdjust="spacing" textLength="74" x="1085.5" y="676.042">Beneficiarios</text><polygon fill="#181818" points="599.5,707.25,589.5,711.25,599.5,715.25,595.5,711.25" style="stroke:#181818;stroke-width:1.0;"/><line style="stroke:#181818;stroke-width:1.0;stroke-dasharray:2.0,2.0;" x1="593.5" x2="1062.5" y1="711.25" y2="711.25"/><text fill="#000000" font-family="sans-serif" font-size="13" lengthAdjust="spacing" textLength="233" x="605.5" y="706.3936">Lista&lt;RecompensaResumenResponse&gt;</text><polygon fill="#181818" points="336.5,753.9531,326.5,757.9531,336.5,761.9531,332.5,757.9531" style="stroke:#181818;stroke-width:1.0;"/><line style="stroke:#181818;stroke-width:1.0;stroke-dasharray:2.0,2.0;" x1="330.5" x2="582.5" y1="757.9531" y2="757.9531"/><text fill="#000000" font-family="sans-serif" font-size="13" lengthAdjust="spacing" textLength="44" x="342.5" y="736.7451">200 OK</text><text fill="#000000" font-family="sans-serif" font-size="13" lengthAdjust="spacing" textLength="128" x="342.5" y="753.0967">Lista de recompensas</text><polygon fill="#181818" points="73.5,784.3047,63.5,788.3047,73.5,792.3047,69.5,788.3047" style="stroke:#181818;stroke-width:1.0;"/><line style="stroke:#181818;stroke-width:1.0;stroke-dasharray:2.0,2.0;" x1="67.5" x2="314.5" y1="788.3047" y2="788.3047"/><text fill="#000000" font-family="sans-serif" font-size="13" lengthAdjust="spacing" textLength="229" x="79.5" y="783.4482">Presenta RECOMPENSAS_ABIERTAS</text><line style="stroke:#000000;stroke-width:1.0;stroke-dasharray:2.0,2.0;" x1="10" x2="2203" y1="797.3047" y2="797.3047"/><text fill="#000000" font-family="sans-serif" font-size="11" font-weight="bold" lengthAdjust="spacing" textLength="167" x="15" y="808.7236">[Sesion ausente o rol invalido]</text><polygon fill="#181818" points="594.5,830.4922,584.5,834.4922,594.5,838.4922,590.5,834.4922" style="stroke:#181818;stroke-width:1.0;"/><line style="stroke:#181818;stroke-width:1.0;stroke-dasharray:2.0,2.0;" x1="588.5" x2="928.5" y1="834.4922" y2="834.4922"/><text fill="#000000" font-family="sans-serif" font-size="13" lengthAdjust="spacing" textLength="322" x="600.5" y="829.6357">SesionNoValidaException / AccesoDenegadoException</text><polygon fill="#181818" points="336.5,860.8438,326.5,864.8438,336.5,868.8438,332.5,864.8438" style="stroke:#181818;stroke-width:1.0;"/><line style="stroke:#181818;stroke-width:1.0;stroke-dasharray:2.0,2.0;" x1="330.5" x2="582.5" y1="864.8438" y2="864.8438"/><text fill="#000000" font-family="sans-serif" font-size="13" lengthAdjust="spacing" textLength="195" x="342.5" y="859.9873">401 Unauthorized / 403 Forbidden</text><polygon fill="#181818" points="73.5,891.1953,63.5,895.1953,73.5,899.1953,69.5,895.1953" style="stroke:#181818;stroke-width:1.0;"/><line style="stroke:#181818;stroke-width:1.0;stroke-dasharray:2.0,2.0;" x1="67.5" x2="314.5" y1="895.1953" y2="895.1953"/><text fill="#000000" font-family="sans-serif" font-size="13" lengthAdjust="spacing" textLength="146" x="79.5" y="890.3389">Presenta error de acceso</text><!--SRC=[fLNRJjj047ttLunu8Qa4f9Udg82Ss51QI92JjYz8Q68FwQfcrzfTHz2g_zvPEuxNvjA7HagotZqpE-VCnLROd20IkDPuZv0H64fBagb0E81mfOK6JQcwBqWQDC0h1LEbT2OaPae70QPMwSvMWTgAL1GeBUmbhV4rhkb63X9Ya-4UiBSphQGbcRraCkLZhVASDDij2Yta6YPARQt3GdGD5sI4aWlI6v5I1QbtNdBVHLRhbw095Se8PlfOeTrZ5tgjrIEn53sWlzqrk90RCbQidMGze_vHaA755Hg2lOdxvIn5Q9MfmD4a23pruU1a9-iO5Yhd2oq2zZFfyYOsQAbDGhDmBbZRCPp7IpZ2GXnvTgUf5fQqKCU_czMV6ya1_1HKbq-b-CwxIn9_dSyw6MEW1x4MsejvWANzGPArGSk8OMkzpH_cThjqL_XiQsG0_Da23fheEx3IrlupLM4pwb_XTdTnLgKmXbmOY_eyLolCoGmQliCAx3ceAwUEeLexBovnOrYL9aKTKLC7Pif2vcGvaBv3P-0CemddBRwCfqlGXs_WB9bVTLfGm-VvnGoAnYCKCEV7Gv71CLiq-xVy_FrJdCHynDN45_Bn_dH-TNqPByDelW_XB68yoZB73Fdm3dDJquWcbOmrXOHCcLVsh7r1sh0grO3eob0LQil3r_7IwVYnRQQJVWvsjfv-VkUCGQtuJj8kbdjUc453yo8pjNm-lYVZLiHMiLeN5eXr79mEVSxTQr_dthtIPxnBjnkOJRxx3Fjj_WpB5V_USGSZLycEQT_kURQbAPtLgsIVHl0wuQSt-wGdNh0ziarFzYjXovJ_2YKDdJnjphQtgkxiJBTten7Clzp8ogiBs9zlFKzk3hcjTiYnAsz4k9oHuI61aCIkI-BP8bpSXfEBE5c6Yu2uDveHWwK34YZWbnC8kS5SPEhP8LG_pzGt1y7u8QN2ZJWuWZ1DoQY8DNDoxax-DPuw0dmOlOMlqarFfSKlojZjXz5xE5Dw9RACv7-8G5hpt6HDiOepS2y8prFZuIy0]--></g></svg>