<svg xmlns="http://www.w3.org/2000/svg" xmlns:xlink="http://www.w3.org/1999/xlink" contentStyleType="text/css" data-diagram-type="STATE" height="776px" preserveAspectRatio="none" style="width:621px;height:776px;background:#FFFFFF;" version="1.1" viewBox="0 0 621 776" width="621px" zoomAndPan="magnify"><title>Diagrama de estados de un proyecto (contexto de gesti&#243;n de proyectos)</title><defs/><g><g class="title" data-source-line="2"><text fill="#000000" font-family="sans-serif" font-size="14" font-weight="bold" lengthAdjust="spacing" textLength="481.5439" x="63.0516" y="24.5332">Diagrama de estados de un proyecto (contexto de gesti&#243;n de proyectos)</text></g><ellipse cx="516.51" cy="54.6094" fill="#222222" rx="10" ry="10" style="stroke:#222222;stroke-width:1;"/><g id="Creado"><rect fill="#F1F1F1" height="50" rx="12.5" ry="12.5" style="stroke:#181818;stroke-width:0.5;" width="65.917" x="483.51" y="125.6094"/><line style="stroke:#181818;stroke-width:0.5;" x1="483.51" x2="549.427" y1="153.2188" y2="153.2188"/><text fill="#000000" font-family="sans-serif" font-size="14" lengthAdjust="spacing" textLength="45.917" x="493.51" y="145.1426">Creado</text></g><g id="Aprobado"><rect fill="#F1F1F1" height="50" rx="12.5" ry="12.5" style="stroke:#181818;stroke-width:0.5;" width="80.7168" x="429.01" y="253.6094"/><line style="stroke:#181818;stroke-width:0.5;" x1="429.01" x2="509.7268" y1="281.2188" y2="281.2188"/><text fill="#000000" font-family="sans-serif" font-size="14" lengthAdjust="spacing" textLength="60.7168" x="439.01" y="273.1426">Aprobado</text></g><g id="EnCurso"><rect fill="#F1F1F1" height="50" rx="12.5" ry="12.5" style="stroke:#181818;stroke-width:0.5;" width="74.4688" x="262.51" y="381.6094"/><line style="stroke:#181818;stroke-width:0.5;" x1="262.51" x2="336.9788" y1="409.2188" y2="409.2188"/><text fill="#000000" font-family="sans-serif" font-size="14" lengthAdjust="spacing" textLength="54.4688" x="272.51" y="401.1426">EnCurso</text></g><g id="EnRevision"><rect fill="#F1F1F1" height="50" rx="12.5" ry="12.5" style="stroke:#181818;stroke-width:0.5;" width="90.8135" x="173.01" y="509.6094"/><line style="stroke:#181818;stroke-width:0.5;" x1="173.01" x2="263.8235" y1="537.2188" y2="537.2188"/><text fill="#000000" font-family="sans-serif" font-size="14" lengthAdjust="spacing" textLength="70.8135" x="183.01" y="529.1426">EnRevision</text></g><g id="Finalizado"><rect fill="#F1F1F1" height="50" rx="12.5" ry="12.5" style="stroke:#181818;stroke-width:0.5;" width="83.8135" x="189.51" y="637.6094"/><line style="stroke:#181818;stroke-width:0.5;" x1="189.51" x2="273.3235" y1="665.2188" y2="665.2188"/><text fill="#000000" font-family="sans-serif" font-size="14" lengthAdjust="spacing" textLength="63.8135" x="199.51" y="657.1426">Finalizado</text></g><g id="Denegado"><rect fill="#F1F1F1" height="50" rx="12.5" ry="12.5" style="stroke:#181818;stroke-width:0.5;" width="84.6133" x="329.01" y="637.6094"/><line style="stroke:#181818;stroke-width:0.5;" x1="329.01" x2="413.6233" y1="665.2188" y2="665.2188"/><text fill="#000000" font-family="sans-serif" font-size="14" lengthAdjust="spacing" textLength="64.6133" x="339.01" y="657.1426">Denegado</text></g><ellipse cx="290.51" cy="759.6094" fill="none" rx="11" ry="11" style="stroke:#222222;stroke-width:1;"/><ellipse cx="290.51" cy="759.6094" fill="#222222" rx="6" ry="6" style="stroke:#222222;stroke-width:1;"/><!--link *start* to Creado--><g class="link" data-entity-1=".start." data-entity-2="Creado" data-source-line="4" data-uid="lnk4" id="link_.start._Creado"><path d="M516.51,64.6194 C516.51,78.4994 516.51,99.5794 516.51,119.4494" fill="none" id="*start*-to-Creado" style="stroke:#181818;stroke-width:1;"/><polygon fill="#181818" points="516.51,125.4494,520.51,116.4494,516.51,120.4494,512.51,116.4494,516.51,125.4494" style="stroke:#181818;stroke-width:1;"/></g><!--link Creado to Aprobado--><g class="link" data-entity-1="Creado" data-entity-2="Aprobado" data-source-line="6" data-uid="lnk6" id="link_Creado_Aprobado"><path d="M492.79,175.7694 C485.65,184.4894 478.62,194.8494 474.51,205.6094 C468.69,220.8194 467.3939,233.1501 467.6239,247.5101" fill="none" id="Creado-to-Aprobado" style="stroke:#181818;stroke-width:1;"/><polygon fill="#181818" points="467.72,253.5094,471.5754,244.4465,467.6399,248.51,463.5764,244.5746,467.72,253.5094" style="stroke:#181818;stroke-width:1;"/><text fill="#000000" font-family="sans-serif" font-size="13" lengthAdjust="spacing" textLength="61.4263" x="475.51" y="220.1045">definirPlan</text></g><!--link Aprobado to EnCurso--><g class="link" data-entity-1="Aprobado" data-entity-2="EnCurso" data-source-line="7" data-uid="lnk8" id="link_Aprobado_EnCurso"><path d="M436.73,303.8994 C406.53,326.2894 366.7901,355.7364 336.7201,378.0264" fill="none" id="Aprobado-to-EnCurso" style="stroke:#181818;stroke-width:1;"/><polygon fill="#181818" points="331.9,381.5994,341.5122,379.4533,335.9168,378.6219,336.7482,373.0264,331.9,381.5994" style="stroke:#181818;stroke-width:1;"/><text fill="#000000" font-family="sans-serif" font-size="13" lengthAdjust="spacing" textLength="33.9536" x="395.51" y="348.1045">iniciar</text></g><!--link EnCurso to EnRevision--><g class="link" data-entity-1="EnCurso" data-entity-2="EnRevision" data-source-line="8" data-uid="lnk10" id="link_EnCurso_EnRevision"><path d="M262.4,409.8594 C198.2,414.6194 70.65,428.1394 43.51,461.6094 C6,507.8594 103.3557,524.1546 166.8957,530.0546" fill="none" id="EnCurso-to-EnRevision" style="stroke:#181818;stroke-width:1;"/><polygon fill="#181818" points="172.87,530.6094,164.2784,525.7944,167.8914,530.1471,163.5387,533.7601,172.87,530.6094" style="stroke:#181818;stroke-width:1;"/><text fill="#000000" font-family="sans-serif" font-size="13" lengthAdjust="spacing" textLength="138.7471" x="44.51" y="476.1045">entregarDocumentacion</text></g><!--link EnRevision to EnCurso--><g class="link" data-entity-1="EnRevision" data-entity-2="EnCurso" data-source-line="9" data-uid="lnk11" id="link_EnRevision_EnCurso"><path d="M215.19,509.4494 C214.34,494.7294 215.42,476.0394 223.51,461.6094 C232.3,445.9394 242.6075,436.8005 257.2975,427.9705" fill="none" id="EnRevision-to-EnCurso" style="stroke:#181818;stroke-width:1;"/><polygon fill="#181818" points="262.44,424.8794,252.6655,426.0877,258.1546,427.4553,256.787,432.9443,262.44,424.8794" style="stroke:#181818;stroke-width:1;"/><text fill="#000000" font-family="sans-serif" font-size="13" lengthAdjust="spacing" textLength="120.6499" x="224.51" y="476.1045">solicitarCorrecciones</text></g><!--link EnRevision to Finalizado--><g class="link" data-entity-1="EnRevision" data-entity-2="Finalizado" data-source-line="10" data-uid="lnk13" id="link_EnRevision_Finalizado"><path d="M211.08,559.7394 C207.78,573.7794 205.28,591.7794 208.51,607.6094 C210.59,617.7894 212.1727,622.9792 216.3227,632.0892" fill="none" id="EnRevision-to-Finalizado" style="stroke:#181818;stroke-width:1;"/><polygon fill="#181818" points="218.81,637.5494,218.7191,627.7009,216.7372,632.9993,211.4389,631.0174,218.81,637.5494" style="stroke:#181818;stroke-width:1;"/><text fill="#000000" font-family="sans-serif" font-size="13" lengthAdjust="spacing" textLength="44.8081" x="209.51" y="604.1045">aprobar</text></g><!--link Creado to Denegado--><g class="link" data-entity-1="Creado" data-entity-2="Denegado" data-source-line="11" data-uid="lnk15" id="link_Creado_Denegado"><path d="M531.38,175.7194 C545.15,200.3694 563.51,240.2494 563.51,277.6094 C563.51,277.6094 563.51,277.6094 563.51,535.6094 C563.51,606.5794 476.5128,638.3627 419.9528,652.0027" fill="none" id="Creado-to-Denegado" style="stroke:#181818;stroke-width:1;"/><polygon fill="#181818" points="414.12,653.4094,423.8069,655.1879,418.9807,652.2372,421.9314,647.4109,414.12,653.4094" style="stroke:#181818;stroke-width:1;"/><text fill="#000000" font-family="sans-serif" font-size="13" lengthAdjust="spacing" textLength="49.1372" x="564.51" y="412.1045">cancelar</text></g><!--link Aprobado to Denegado--><g class="link" data-entity-1="Aprobado" data-entity-2="Denegado" data-source-line="12" data-uid="lnk16" id="link_Aprobado_Denegado"><path d="M469.4,303.9494 C468.5,353.4794 462.88,468.9794 431.51,559.6094 C421.63,588.1494 406.7354,612.6133 392.9254,632.4733" fill="none" id="Aprobado-to-Denegado" style="stroke:#181818;stroke-width:1;"/><polygon fill="#181818" points="389.5,637.3994,397.9222,632.2939,392.3545,633.2943,391.3541,627.7266,389.5,637.3994" style="stroke:#181818;stroke-width:1;"/><text fill="#000000" font-family="sans-serif" font-size="13" lengthAdjust="spacing" textLength="49.1372" x="455.51" y="476.1045">cancelar</text></g><!--link EnCurso to Denegado--><g class="link" data-entity-1="EnCurso" data-entity-2="Denegado" data-source-line="13" data-uid="lnk17" id="link_EnCurso_Denegado"><path d="M327.98,431.7194 C336.28,440.2894 344.47,450.5694 349.51,461.6094 C376.34,520.3994 376.2373,592.68 373.9173,631.57" fill="none" id="EnCurso-to-Denegado" style="stroke:#181818;stroke-width:1;"/><polygon fill="#181818" points="373.56,637.5594,378.0888,628.8135,373.8577,632.5682,370.103,628.3371,373.56,637.5594" style="stroke:#181818;stroke-width:1;"/><text fill="#000000" font-family="sans-serif" font-size="13" lengthAdjust="spacing" textLength="49.1372" x="373.51" y="540.1045">cancelar</text></g><!--link EnRevision to Denegado--><g class="link" data-entity-1="EnRevision" data-entity-2="Denegado" data-source-line="14" data-uid="lnk18" id="link_EnRevision_Denegado"><path d="M242.32,559.8994 C256.9,574.3294 276.21,592.6594 294.51,607.6094 C307.15,617.9394 316.731,625.0326 329.721,633.9926" fill="none" id="EnRevision-to-Denegado" style="stroke:#181818;stroke-width:1;"/><polygon fill="#181818" points="334.66,637.3994,329.5226,628.9966,330.5441,634.5604,324.9803,635.5819,334.66,637.3994" style="stroke:#181818;stroke-width:1;"/><text fill="#000000" font-family="sans-serif" font-size="13" lengthAdjust="spacing" textLength="49.1372" x="295.51" y="604.1045">cancelar</text></g><!--link Finalizado to *end*--><g class="link" data-entity-1="Finalizado" data-entity-2=".end." data-source-line="16" data-uid="lnk20" id="link_Finalizado_.end."><path d="M246.7,688.0694 C259.27,708.3094 273.2358,730.7915 281.8758,744.7115" fill="none" id="Finalizado-to-*end*" style="stroke:#181818;stroke-width:1;"/><polygon fill="#181818" points="285.04,749.8094,283.6923,740.0532,282.4032,745.5612,276.8952,744.2721,285.04,749.8094" style="stroke:#181818;stroke-width:1;"/></g><!--link Denegado to *end*--><g class="link" data-entity-1="Denegado" data-entity-2=".end." data-source-line="17" data-uid="lnk21" id="link_Denegado_.end."><path d="M350.65,688.0694 C333.02,708.7494 312.7437,732.5344 301.1437,746.1344" fill="none" id="Denegado-to-*end*" style="stroke:#181818;stroke-width:1;"/><polygon fill="#181818" points="297.25,750.6994,306.1339,746.4477,300.4947,746.8952,300.0472,741.2561,297.25,750.6994" style="stroke:#181818;stroke-width:1;"/></g><!--SRC=[RP0nRiCm34Ltda9Z6o0Nw52WiDEvw1faO1J6821J1IK7RQ-L8_HYfMpOa0DF8lz_eZwLEGToBMEdsAExaAEKyH9JAGTnNnf_oEVeddoKJDzMcT4Pn7ztAVLCf6U0u-xazljNroZP383f7AKtuywbUR5BLnRMZu02YroOWpI3feAOxnaLPcLoF-d6YQCOG9ALEjGs-g6t1htfK27hUIa66vXHcwXAli2K7l5t5WpyEuN4CPZMAxGazkJeUXHFmUnL_YsWtc3RNsNOGg0ALXZxPLYuMVW7]--></g></svg>