<svg xmlns="http://www.w3.org/2000/svg" xmlns:xlink="http://www.w3.org/1999/xlink" contentStyleType="text/css" data-diagram-type="STATE" height="665px" preserveAspectRatio="none" style="width:650px;height:665px;background:#FFFFFF;" version="1.1" viewBox="0 0 650 665" width="650px" zoomAndPan="magnify"><title>Diagrama de estados de un investigador/docente (contexto de gesti&#243;n de un proyecto)</title><defs/><g><g class="title" data-source-line="2"><text fill="#000000" font-family="sans-serif" font-size="14" font-weight="bold" lengthAdjust="spacing" textLength="576.4336" x="30.1082" y="24.5332">Diagrama de estados de un investigador/docente (contexto de gesti&#243;n de un proyecto)</text></g><ellipse cx="53" cy="54.6094" fill="#222222" rx="10" ry="10" style="stroke:#222222;stroke-width:1;"/><g id="EnProyecto"><rect fill="#F1F1F1" height="50" rx="12.5" ry="12.5" style="stroke:#181818;stroke-width:0.5;" width="92.3721" x="7" y="125.6094"/><line style="stroke:#181818;stroke-width:0.5;" x1="7" x2="99.3721" y1="153.2188" y2="153.2188"/><text fill="#000000" font-family="sans-serif" font-size="14" lengthAdjust="spacing" textLength="72.3721" x="17" y="145.1426">EnProyecto</text></g><g id="Investigando"><rect fill="#F1F1F1" height="50" rx="12.5" ry="12.5" style="stroke:#181818;stroke-width:0.5;" width="99.3926" x="175.5" y="253.6094"/><line style="stroke:#181818;stroke-width:0.5;" x1="175.5" x2="274.8926" y1="281.2188" y2="281.2188"/><text fill="#000000" font-family="sans-serif" font-size="14" lengthAdjust="spacing" textLength="79.3926" x="185.5" y="273.1426">Investigando</text></g><g id="PreparandoEntregables"><rect fill="#F1F1F1" height="50" rx="12.5" ry="12.5" style="stroke:#181818;stroke-width:0.5;" width="167.8818" x="303" y="381.6094"/><line style="stroke:#181818;stroke-width:0.5;" x1="303" x2="470.8818" y1="409.2188" y2="409.2188"/><text fill="#000000" font-family="sans-serif" font-size="14" lengthAdjust="spacing" textLength="147.8818" x="313" y="401.1426">PreparandoEntregables</text></g><g id="RevisandoEntregables"><rect fill="#F1F1F1" height="50" rx="12.5" ry="12.5" style="stroke:#181818;stroke-width:0.5;" width="160.8682" x="390.5" y="509.6094"/><line style="stroke:#181818;stroke-width:0.5;" x1="390.5" x2="551.3682" y1="537.2188" y2="537.2188"/><text fill="#000000" font-family="sans-serif" font-size="14" lengthAdjust="spacing" textLength="140.8682" x="400.5" y="529.1426">RevisandoEntregables</text></g><g id="Pausado"><rect fill="#F1F1F1" height="50" rx="12.5" ry="12.5" style="stroke:#181818;stroke-width:0.5;" width="75.2686" x="114.5" y="509.6094"/><line style="stroke:#181818;stroke-width:0.5;" x1="114.5" x2="189.7686" y1="537.2188" y2="537.2188"/><text fill="#000000" font-family="sans-serif" font-size="14" lengthAdjust="spacing" textLength="55.2686" x="124.5" y="529.1426">Pausado</text></g><ellipse cx="471" cy="648.6094" fill="none" rx="11" ry="11" style="stroke:#222222;stroke-width:1;"/><ellipse cx="471" cy="648.6094" fill="#222222" rx="6" ry="6" style="stroke:#222222;stroke-width:1;"/><!--link *start* to EnProyecto--><g class="link" data-entity-1=".start." data-entity-2="EnProyecto" data-source-line="4" data-uid="lnk4" id="link_.start._EnProyecto"><path d="M53,64.6194 C53,78.4994 53,99.5794 53,119.4494" fill="none" id="*start*-to-EnProyecto" style="stroke:#181818;stroke-width:1;"/><polygon fill="#181818" points="53,125.4494,57,116.4494,53,120.4494,49,116.4494,53,125.4494" style="stroke:#181818;stroke-width:1;"/></g><!--link EnProyecto to Investigando--><g class="link" data-entity-1="EnProyecto" data-entity-2="Investigando" data-source-line="6" data-uid="lnk6" id="link_EnProyecto_Investigando"><path d="M86.16,175.8994 C116.72,198.2894 156.9596,227.7638 187.3896,250.0538" fill="none" id="EnProyecto-to-Investigando" style="stroke:#181818;stroke-width:1;"/><polygon fill="#181818" points="192.23,253.5994,187.3332,245.0541,188.1964,250.6447,182.6058,251.5079,192.23,253.5994" style="stroke:#181818;stroke-width:1;"/><text fill="#000000" font-family="sans-serif" font-size="13" lengthAdjust="spacing" textLength="85.2554" x="150" y="220.1045">iniciarProyecto</text></g><!--link Investigando to PreparandoEntregables--><g class="link" data-entity-1="Investigando" data-entity-2="PreparandoEntregables" data-source-line="7" data-uid="lnk8" id="link_Investigando_PreparandoEntregables"><path d="M256.24,303.8994 C285.01,326.2894 322.7438,355.6258 351.4038,377.9158" fill="none" id="Investigando-to-PreparandoEntregables" style="stroke:#181818;stroke-width:1;"/><polygon fill="#181818" points="356.14,381.5994,351.4914,372.9166,352.1932,378.5298,346.58,379.2315,356.14,381.5994" style="stroke:#181818;stroke-width:1;"/><text fill="#000000" font-family="sans-serif" font-size="13" lengthAdjust="spacing" textLength="93.939" x="316" y="348.1045">resultadosListos</text></g><!--link PreparandoEntregables to RevisandoEntregables--><g class="link" data-entity-1="PreparandoEntregables" data-entity-2="RevisandoEntregables" data-source-line="8" data-uid="lnk10" id="link_PreparandoEntregables_RevisandoEntregables"><path d="M392.58,431.6194 C396.72,446.2894 403.33,464.9694 413,479.6094 C420.2,490.5194 425.5909,496.7448 435.1209,505.3248" fill="none" id="PreparandoEntregables-to-RevisandoEntregables" style="stroke:#181818;stroke-width:1;"/><polygon fill="#181818" points="439.58,509.3394,435.5678,500.3448,435.8641,505.9939,430.215,506.2902,439.58,509.3394" style="stroke:#181818;stroke-width:1;"/><text fill="#000000" font-family="sans-serif" font-size="13" lengthAdjust="spacing" textLength="100.4453" x="414" y="476.1045">enviarResultados</text></g><!--link Investigando to Pausado--><g class="link" data-entity-1="Investigando" data-entity-2="Pausado" data-source-line="9" data-uid="lnk12" id="link_Investigando_Pausado"><path d="M208.43,303.9994 C195.73,323.9594 178.91,353.4094 170,381.6094 C156.18,425.3194 152.9518,473.1411 152.2318,503.6011" fill="none" id="Investigando-to-Pausado" style="stroke:#181818;stroke-width:1;"/><polygon fill="#181818" points="152.09,509.5994,156.3016,500.6964,152.2082,504.6008,148.3038,500.5074,152.09,509.5994" style="stroke:#181818;stroke-width:1;"/><text fill="#000000" font-family="sans-serif" font-size="13" lengthAdjust="spacing" textLength="114.8862" x="171" y="412.1045">pausarPorRecursos</text></g><!--link PreparandoEntregables to Pausado--><g class="link" data-entity-1="PreparandoEntregables" data-entity-2="Pausado" data-source-line="10" data-uid="lnk13" id="link_PreparandoEntregables_Pausado"><path d="M341.97,431.7494 C297.72,455.4794 236.2679,488.4241 194.8079,510.6541" fill="none" id="PreparandoEntregables-to-Pausado" style="stroke:#181818;stroke-width:1;"/><polygon fill="#181818" points="189.52,513.4894,199.3419,512.7618,193.9265,511.1267,195.5616,505.7113,189.52,513.4894" style="stroke:#181818;stroke-width:1;"/><text fill="#000000" font-family="sans-serif" font-size="13" lengthAdjust="spacing" textLength="93.9326" x="284" y="476.1045">esperarRevision</text></g><!--link Pausado to EnProyecto--><g class="link" data-entity-1="Pausado" data-entity-2="EnProyecto" data-source-line="11" data-uid="lnk14" id="link_Pausado_EnProyecto"><path d="M137.74,509.5994 C118.4,475.6994 84.48,411.2794 69,351.6094 C52.95,289.7394 51.6001,219.8087 52.1701,181.7587" fill="none" id="Pausado-to-EnProyecto" style="stroke:#181818;stroke-width:1;"/><polygon fill="#181818" points="52.26,175.7594,48.1256,184.6985,52.1851,180.7588,56.1247,184.8183,52.26,175.7594" style="stroke:#181818;stroke-width:1;"/><text fill="#000000" font-family="sans-serif" font-size="13" lengthAdjust="spacing" textLength="103.3398" x="70" y="348.1045">reanudarProyecto</text></g><!--link RevisandoEntregables to Investigando--><g class="link" data-entity-1="RevisandoEntregables" data-entity-2="Investigando" data-source-line="12" data-uid="lnk15" id="link_RevisandoEntregables_Investigando"><path d="M499.3,509.3494 C507.23,500.8394 514.81,490.6294 519,479.6094 C535.19,437.0294 517.2,417.3794 489,381.6094 C436.68,315.2394 341.4374,292.8021 280.6674,284.7021" fill="none" id="RevisandoEntregables-to-Investigando" style="stroke:#181818;stroke-width:1;"/><polygon fill="#181818" points="274.72,283.9094,283.1126,289.0634,279.6762,284.57,284.1696,281.1335,274.72,283.9094" style="stroke:#181818;stroke-width:1;"/><text fill="#000000" font-family="sans-serif" font-size="13" lengthAdjust="spacing" textLength="120.6499" x="522" y="412.1045">solicitarCorrecciones</text></g><!--link RevisandoEntregables to *end*--><g class="link" data-entity-1="RevisandoEntregables" data-entity-2=".end." data-source-line="13" data-uid="lnk17" id="link_RevisandoEntregables_.end."><path d="M471,559.6394 C471,583.7994 471,613.9194 471,631.3994" fill="none" id="RevisandoEntregables-to-*end*" style="stroke:#181818;stroke-width:1;"/><polygon fill="#181818" points="471,637.3994,475,628.3994,471,632.3994,467,628.3994,471,637.3994" style="stroke:#181818;stroke-width:1;"/><text fill="#000000" font-family="sans-serif" font-size="13" lengthAdjust="spacing" textLength="112.7407" x="472" y="604.1045">aceptarEntregables</text></g><!--SRC=[VL6zQWCn3Dxz51xRGkYUeKkQeT3Xo1eoABOu35V9IFRHFbSUeIzM-SWlkNIohEzFbaig0_ht1Bt05_Y87hL0P6rb9Pzej4RghIMlaGDIGVyKs8xlmetKD_ptG4T15lx1KFZPkUtBpYyMRtvDtR7ftAMUe8-JFKNsIqjB8O6SwJTmutU26QHTrrG4UzWFg2OKr3fCStycBQnkdjWiDZWclNT06YrvS_QPoOQgC8sPMoKT6prKqN_ZBYhKZD8YB3ynkHDokwBfCK0rNgrXTkIPzIaFjhy2ic8H3C5IK1-hs_yiFGJC9ha2tHy0]--></g></svg>