<svg xmlns="http://www.w3.org/2000/svg" xmlns:xlink="http://www.w3.org/1999/xlink" contentStyleType="text/css" data-diagram-type="STATE" height="665px" preserveAspectRatio="none" style="width:513px;height:665px;background:#FFFFFF;" version="1.1" viewBox="0 0 513 665" width="513px" zoomAndPan="magnify"><title>Diagrama de estados de un proyecto (contexto de red de investigadores)</title><defs/><g><g class="title" data-source-line="2"><text fill="#000000" font-family="sans-serif" font-size="14" font-weight="bold" lengthAdjust="spacing" textLength="485.4541" x="10" y="24.5332">Diagrama de estados de un proyecto (contexto de red de investigadores)</text></g><ellipse cx="300.1284" cy="54.6094" fill="#222222" rx="10" ry="10" style="stroke:#222222;stroke-width:1;"/><g id="Disponible"><rect fill="#F1F1F1" height="50" rx="12.5" ry="12.5" style="stroke:#181818;stroke-width:0.5;" width="85.3721" x="257.6284" y="125.6094"/><line style="stroke:#181818;stroke-width:0.5;" x1="257.6284" x2="343.0005" y1="153.2188" y2="153.2188"/><text fill="#000000" font-family="sans-serif" font-size="14" lengthAdjust="spacing" textLength="65.3721" x="267.6284" y="145.1426">Disponible</text></g><g id="EnReclutamiento"><rect fill="#F1F1F1" height="50" rx="12.5" ry="12.5" style="stroke:#181818;stroke-width:0.5;" width="126.6133" x="152.6284" y="253.6094"/><line style="stroke:#181818;stroke-width:0.5;" x1="152.6284" x2="279.2417" y1="281.2188" y2="281.2188"/><text fill="#000000" font-family="sans-serif" font-size="14" lengthAdjust="spacing" textLength="106.6133" x="162.6284" y="273.1426">EnReclutamiento</text></g><g id="Inactivo"><rect fill="#F1F1F1" height="50" rx="12.5" ry="12.5" style="stroke:#181818;stroke-width:0.5;" width="68.248" x="231.1284" y="509.6094"/><line style="stroke:#181818;stroke-width:0.5;" x1="231.1284" x2="299.3765" y1="537.2188" y2="537.2188"/><text fill="#000000" font-family="sans-serif" font-size="14" lengthAdjust="spacing" textLength="48.248" x="241.1284" y="529.1426">Inactivo</text></g><g id="Activo"><rect fill="#F1F1F1" height="50" rx="12.5" ry="12.5" style="stroke:#181818;stroke-width:0.5;" width="58.124" x="187.1284" y="381.6094"/><line style="stroke:#181818;stroke-width:0.5;" x1="187.1284" x2="245.2525" y1="409.2188" y2="409.2188"/><text fill="#000000" font-family="sans-serif" font-size="14" lengthAdjust="spacing" textLength="38.124" x="197.1284" y="401.1426">Activo</text></g><ellipse cx="265.1284" cy="648.6094" fill="none" rx="11" ry="11" style="stroke:#222222;stroke-width:1;"/><ellipse cx="265.1284" cy="648.6094" fill="#222222" rx="6" ry="6" style="stroke:#222222;stroke-width:1;"/><!--link *start* to Disponible--><g class="link" data-entity-1=".start." data-entity-2="Disponible" data-source-line="4" data-uid="lnk4" id="link_.start._Disponible"><path d="M300.1284,64.6194 C300.1284,78.4994 300.1284,99.5794 300.1284,119.4494" fill="none" id="*start*-to-Disponible" style="stroke:#181818;stroke-width:1;"/><polygon fill="#181818" points="300.1284,125.4494,304.1284,116.4494,300.1284,120.4494,296.1284,116.4494,300.1284,125.4494" style="stroke:#181818;stroke-width:1;"/></g><!--link Disponible to EnReclutamiento--><g class="link" data-entity-1="Disponible" data-entity-2="EnReclutamiento" data-source-line="6" data-uid="lnk6" id="link_Disponible_EnReclutamiento"><path d="M261.5384,175.6594 C250.9384,183.9594 240.3784,194.1094 233.1284,205.6094 C224.0884,219.9494 220.6612,232.7033 218.6712,247.4433" fill="none" id="Disponible-to-EnReclutamiento" style="stroke:#181818;stroke-width:1;"/><polygon fill="#181818" points="217.8684,253.3894,223.0366,245.0055,218.5374,248.4343,215.1085,243.9351,217.8684,253.3894" style="stroke:#181818;stroke-width:1;"/><text fill="#000000" font-family="sans-serif" font-size="13" lengthAdjust="spacing" textLength="117.0508" x="234.1284" y="220.1045">iniciarReclutamiento</text></g><!--link Disponible to Inactivo--><g class="link" data-entity-1="Disponible" data-entity-2="Inactivo" data-source-line="7" data-uid="lnk8" id="link_Disponible_Inactivo"><path d="M333.6484,175.6194 C342.6684,183.9794 351.2684,194.1694 356.1284,205.6094 C359.2584,212.9694 356.6084,215.6194 356.1284,223.6094 C349.2284,338.0094 377.9784,377.9094 325.1284,479.6094 C318.9884,491.4194 313.7101,498.0118 303.7501,506.5218" fill="none" id="Disponible-to-Inactivo" style="stroke:#181818;stroke-width:1;"/><polygon fill="#181818" points="299.1884,510.4194,308.6293,507.6141,302.9898,507.1714,303.4326,501.5319,299.1884,510.4194" style="stroke:#181818;stroke-width:1;"/><text fill="#000000" font-family="sans-serif" font-size="13" lengthAdjust="spacing" textLength="49.1372" x="359.1284" y="348.1045">cancelar</text></g><!--link EnReclutamiento to Activo--><g class="link" data-entity-1="EnReclutamiento" data-entity-2="Activo" data-source-line="9" data-uid="lnk10" id="link_EnReclutamiento_Activo"><path d="M209.9584,303.8694 C207.1084,317.8094 204.6684,335.6494 206.1284,351.6094 C207.0384,361.4794 207.6939,366.3635 209.5339,375.6635" fill="none" id="EnReclutamiento-to-Activo" style="stroke:#181818;stroke-width:1;"/><polygon fill="#181818" points="210.6984,381.5494,212.8756,371.9442,209.728,376.6445,205.0277,373.4969,210.6984,381.5494" style="stroke:#181818;stroke-width:1;"/><text fill="#000000" font-family="sans-serif" font-size="13" lengthAdjust="spacing" textLength="127.188" x="207.1284" y="348.1045">asignarInvestigadores</text></g><!--link Activo to Inactivo--><g class="link" data-entity-1="Activo" data-entity-2="Inactivo" data-source-line="11" data-uid="lnk11" id="link_Activo_Inactivo"><path d="M245.2184,427.6794 C255.7684,436.6894 266.4784,448.3094 272.1284,461.6094 C278.5184,476.6394 277.9949,489.1318 274.5749,503.5318" fill="none" id="Activo-to-Inactivo" style="stroke:#181818;stroke-width:1;"/><polygon fill="#181818" points="273.1884,509.3694,279.1598,501.5372,274.3438,504.5047,271.3764,499.6887,273.1884,509.3694" style="stroke:#181818;stroke-width:1;"/><text fill="#000000" font-family="sans-serif" font-size="13" lengthAdjust="spacing" textLength="39.749" x="277.1284" y="476.1045">pausar</text></g><!--link Activo to Inactivo--><g class="link" data-entity-1="Activo" data-entity-2="Inactivo" data-source-line="12" data-uid="lnk12" id="link_Activo_Inactivo"><path d="M186.8984,417.0294 C154.5084,429.0894 109.1884,451.7894 128.1284,479.6094 C150.9984,513.2094 192.3723,525.0364 224.9423,529.8264" fill="none" id="Activo-to-Inactivo-1" style="stroke:#181818;stroke-width:1;"/><polygon fill="#181818" points="230.8784,530.6994,222.5562,525.4324,225.9317,529.9719,221.3922,533.3473,230.8784,530.6994" style="stroke:#181818;stroke-width:1;"/><text fill="#000000" font-family="sans-serif" font-size="13" lengthAdjust="spacing" textLength="47.6772" x="129.1284" y="476.1045">terminar</text></g><!--link Inactivo to Activo--><g class="link" data-entity-1="Inactivo" data-entity-2="Activo" data-source-line="15" data-uid="lnk13" id="link_Inactivo_Activo"><path d="M234.2384,509.4594 C225.7584,501.0294 217.6584,490.8394 213.1284,479.6094 C207.0484,464.5294 206.9594,452.1122 209.2894,437.7222" fill="none" id="Inactivo-to-Activo" style="stroke:#181818;stroke-width:1;"/><polygon fill="#181818" points="210.2484,431.7994,204.8613,440.0443,209.4493,436.7351,212.7585,441.323,210.2484,431.7994" style="stroke:#181818;stroke-width:1;"/><text fill="#000000" font-family="sans-serif" font-size="13" lengthAdjust="spacing" textLength="49.8481" x="214.1284" y="476.1045">reactivar</text></g><!--link Inactivo to *end*--><g class="link" data-entity-1="Inactivo" data-entity-2=".end." data-source-line="16" data-uid="lnk15" id="link_Inactivo_.end."><path d="M265.1284,559.6394 C265.1284,583.7994 265.1284,613.9194 265.1284,631.3994" fill="none" id="Inactivo-to-*end*" style="stroke:#181818;stroke-width:1;"/><polygon fill="#181818" points="265.1284,637.3994,269.1284,628.3994,265.1284,632.3994,261.1284,628.3994,265.1284,637.3994" style="stroke:#181818;stroke-width:1;"/><text fill="#000000" font-family="sans-serif" font-size="13" lengthAdjust="spacing" textLength="44.7954" x="266.1284" y="604.1045">finalizar</text></g><!--SRC=[RP3D2i9038JlUOezgj0Ny208UkZLgtY8srW2ssp9fg8-lQa_I8kd7MQ-JC8QMwAmOsmLEmmD1Ig6JIwZ72JqckyKBOT5p69qS-M1KZC-B5UdkNLUgIm1ZgjJgAgDzvK-2vyJ0Vpq6EtbG34DXXsJM5vx1qT6dRYpcL0BHkEhqn4bKa85c1MzkEs7miAjeDQJym3UyQonnw5utz_CI3kMSHjypSaUfPVfm2JsNrY7YmycVdZs1000]--></g></svg>