<svg xmlns="http://www.w3.org/2000/svg" xmlns:xlink="http://www.w3.org/1999/xlink" contentStyleType="text/css" data-diagram-type="STATE" height="850px" preserveAspectRatio="none" style="width:479px;height:850px;background:#FFFFFF;" version="1.1" viewBox="0 0 479 850" width="479px" zoomAndPan="magnify"><?plantuml 1.2026.6?><defs/><g><g class="entity" data-qualified-name="iniciarSesion" data-source-line="6" id="ent0001"><path d="M19.5,118 L408.5,118 A12.5,12.5 0 0 1 421,130.5 L421,145.6094 L7,145.6094 L7,130.5 A12.5,12.5 0 0 1 19.5,118" fill="#F1F1F1"/><rect fill="none" height="571.6094" rx="12.5" ry="12.5" style="stroke:#181818;stroke-width:0.5;" width="414" x="7" y="118"/><line style="stroke:#181818;stroke-width:0.5;" x1="7" x2="421" y1="145.6094" y2="145.6094"/><text fill="#000000" font-family="sans-serif" font-size="14" lengthAdjust="spacing" textLength="88.6963" x="169.6519" y="137.5332">iniciarSesion()</text><g class="entity" data-qualified-name="iniciarSesion.SolicitandoAcceso" data-source-line="8" id="ent0002"><rect fill="#F1F1F1" height="50" rx="12.5" ry="12.5" style="stroke:#181818;stroke-width:0.5;" width="50" x="113" y="248.6094"/><line style="stroke:#181818;stroke-width:0.5;" x1="113" x2="163" y1="276.2188" y2="276.2188"/><text fill="#000000" font-family="sans-serif" font-size="14" lengthAdjust="spacing" textLength="3.8896" x="136.0552" y="268.1426">&#160;</text></g><g class="entity" data-qualified-name="iniciarSesion.ProporcionandoCredenciales" data-source-line="9" id="ent0003"><rect fill="#F1F1F1" height="50" rx="12.5" ry="12.5" style="stroke:#181818;stroke-width:0.5;" width="50" x="19" y="403.6094"/><line style="stroke:#181818;stroke-width:0.5;" x1="19" x2="69" y1="431.2188" y2="431.2188"/><text fill="#000000" font-family="sans-serif" font-size="14" lengthAdjust="spacing" textLength="3.8896" x="42.0552" y="423.1426">&#160;</text></g><g class="entity" data-qualified-name="iniciarSesion.c" id="ent0004"><polygon fill="#F1F1F1" points="143,558.6094,155,570.6094,143,582.6094,131,570.6094,143,558.6094" style="stroke:#181818;stroke-width:0.5;stroke-linejoin:miter;stroke-miterlimit:10;"/></g><g class="start_entity" data-qualified-name="iniciarSesion..start.iniciarSesion" data-source-line="12" id="ent0007"><ellipse cx="138" cy="166.6094" fill="#222222" rx="10" ry="10" style="stroke:#222222;stroke-width:1;"/></g><g class="end_entity" data-qualified-name="iniciarSesion..end.iniciarSesion" data-source-line="36" id="ent0012"><ellipse cx="143" cy="665.6094" fill="none" rx="11" ry="11" style="stroke:#222222;stroke-width:1;"/><ellipse cx="143" cy="665.6094" fill="#222222" rx="6" ry="6" style="stroke:#222222;stroke-width:1;"/></g><!--link *start*iniciarSesion to SolicitandoAcceso--><g class="link" data-entity-1="ent0007" data-entity-2="ent0002" data-link-type="dependency" data-source-line="12" id="lnk8"><path d="M138,176.9294 C138,192.7894 138,220.5194 138,243.2494" fill="none" id="*start*iniciarSesion-to-SolicitandoAcceso" style="stroke:#008000;stroke-width:1;"/><polygon fill="#008000" points="138,248.2494,142,239.2494,138,243.2494,134,239.2494,138,248.2494" style="stroke:#008000;stroke-width:1;stroke-linejoin:miter;stroke-miterlimit:10;"/><path d="M143,199.6094 L143,225.6094 L397,225.6094 L397,209.6094 L387,199.6094 L143,199.6094" fill="#FEFFDD" style="stroke:#181818;stroke-width:0.5;"/><path d="M387,199.6094 L387,209.6094 L397,209.6094 L387,199.6094" fill="#FEFFDD" style="stroke:#181818;stroke-width:0.5;"/><text fill="#000000" font-family="sans-serif" font-size="13" font-weight="700" lengthAdjust="spacing" textLength="77.9937" x="149" y="218.1045">Coordinador</text><text fill="#000000" font-family="sans-serif" font-size="13" lengthAdjust="spacing" textLength="151.728" x="230.6055" y="218.1045">solicita acceder al sistema</text></g><!--link SolicitandoAcceso to ProporcionandoCredenciales--><g class="link" data-entity-1="ent0002" data-entity-2="ent0003" data-link-type="dependency" data-source-line="17" id="lnk9"><path d="M112.76,285.4294 C83.73,297.8694 40,316.6094 40,316.6094 C40,316.6094 40,385.6094 40,385.6094 C40,385.6094 40.316,388.9619 41.196,398.2019" fill="none" id="SolicitandoAcceso-to-ProporcionandoCredenciales" style="stroke:#008000;stroke-width:1;"/><polygon fill="#008000" points="41.67,403.1794,44.7987,393.8407,41.196,398.2019,36.8347,394.5992,41.67,403.1794" style="stroke:#008000;stroke-width:1;stroke-linejoin:miter;stroke-miterlimit:10;"/><path d="M45,321.6094 L45,380.6094 L219,380.6094 L219,331.6094 L209,321.6094 L45,321.6094" fill="#FEFFDD" style="stroke:#181818;stroke-width:0.5;"/><path d="M209,321.6094 L209,331.6094 L219,331.6094 L209,321.6094" fill="#FEFFDD" style="stroke:#181818;stroke-width:0.5;"/><text fill="#000000" font-family="sans-serif" font-size="13" font-weight="700" lengthAdjust="spacing" textLength="49.8608" x="51" y="340.1045">Sistema</text><text fill="#000000" font-family="sans-serif" font-size="13" lengthAdjust="spacing" textLength="100.4263" x="104.4727" y="340.1045">permite introducir</text><text fill="#000000" font-family="sans-serif" font-size="13" lengthAdjust="spacing" textLength="51.5303" x="51" y="356.4561">&#8226; usuario</text><text fill="#000000" font-family="sans-serif" font-size="13" lengthAdjust="spacing" textLength="73.2139" x="51" y="372.8076">&#8226; contrase&#241;a</text></g><!--link ProporcionandoCredenciales to c--><g class="link" data-entity-1="ent0003" data-entity-2="ent0004" data-link-type="dependency" data-source-line="24" id="lnk10"><path d="M47.04,453.6994 C51.16,486.3394 58,540.6094 58,540.6094 C58,540.6094 108.3075,557.7759 129.8075,565.1059" fill="none" id="ProporcionandoCredenciales-to-c" style="stroke:#008000;stroke-width:1;"/><polygon fill="#008000" points="134.54,566.7194,127.3122,560.0291,129.8075,565.1059,124.7307,567.6012,134.54,566.7194" style="stroke:#008000;stroke-width:1;stroke-linejoin:miter;stroke-miterlimit:10;"/><path d="M63,476.6094 L63,535.6094 L219,535.6094 L219,486.6094 L209,476.6094 L63,476.6094" fill="#FEFFDD" style="stroke:#181818;stroke-width:0.5;"/><path d="M209,476.6094 L209,486.6094 L219,486.6094 L209,476.6094" fill="#FEFFDD" style="stroke:#181818;stroke-width:0.5;"/><text fill="#000000" font-family="sans-serif" font-size="13" font-weight="700" lengthAdjust="spacing" textLength="77.9937" x="69" y="495.1045">Coordinador</text><text fill="#000000" font-family="sans-serif" font-size="13" lengthAdjust="spacing" textLength="53.479" x="150.6055" y="495.1045">introduce</text><text fill="#000000" font-family="sans-serif" font-size="13" lengthAdjust="spacing" textLength="51.5303" x="69" y="511.4561">&#8226; usuario</text><text fill="#000000" font-family="sans-serif" font-size="13" lengthAdjust="spacing" textLength="73.2139" x="69" y="527.8076">&#8226; contrase&#241;a</text></g><!--link c to SolicitandoAcceso--><g class="link" data-entity-1="ent0004" data-entity-2="ent0002" data-link-type="dependency" data-source-line="31" id="lnk11"><path d="M151.36,566.6194 C172.06,559.2094 224,540.6094 224,540.6094 C224,540.6094 224,316.6094 224,316.6094 C224,316.6094 193.2028,301.5636 167.8328,289.1736" fill="none" id="c-to-SolicitandoAcceso" style="stroke:#FF0000;stroke-width:1;"/><polygon fill="#FF0000" points="163.34,286.9794,169.6718,294.5232,167.8328,289.1736,173.1824,287.3346,163.34,286.9794" style="stroke:#FF0000;stroke-width:1;stroke-linejoin:miter;stroke-miterlimit:10;"/><path d="M229,415.6094 L229,441.6094 L390,441.6094 L390,425.6094 L380,415.6094 L229,415.6094" fill="#FEFFDD" style="stroke:#181818;stroke-width:0.5;"/><path d="M380,415.6094 L380,425.6094 L390,425.6094 L380,415.6094" fill="#FEFFDD" style="stroke:#181818;stroke-width:0.5;"/><text fill="#000000" font-family="sans-serif" font-size="13" lengthAdjust="spacing" textLength="140.1753" x="235" y="434.1045">credenciales incorrectas</text></g><!--link c to *end*iniciarSesion--><g class="link" data-entity-1="ent0004" data-entity-2="ent0012" data-link-type="dependency" data-source-line="36" id="lnk13"><path d="M143,582.6394 C143,600.8294 143,631.8394 143,649.4394" fill="none" id="c-to-*end*iniciarSesion" style="stroke:#008000;stroke-width:1;"/><polygon fill="#008000" points="143,654.4394,147,645.4394,143,649.4394,139,645.4394,143,654.4394" style="stroke:#008000;stroke-width:1;stroke-linejoin:miter;stroke-miterlimit:10;"/><path d="M148,605.6094 L148,631.6094 L299,631.6094 L299,615.6094 L289,605.6094 L148,605.6094" fill="#FEFFDD" style="stroke:#181818;stroke-width:0.5;"/><path d="M289,605.6094 L289,615.6094 L299,615.6094 L289,605.6094" fill="#FEFFDD" style="stroke:#181818;stroke-width:0.5;"/><text fill="#000000" font-family="sans-serif" font-size="13" lengthAdjust="spacing" textLength="130.0571" x="154" y="624.1045">credenciales correctas</text></g></g><g class="entity" data-qualified-name="SESION_CERRADA" data-source-line="4" id="ent0005"><rect fill="#F1F1F1" height="50" rx="12.5" ry="12.5" style="stroke:#181818;stroke-width:0.5;" width="149.1445" x="139.5" y="7"/><line style="stroke:#181818;stroke-width:0.5;" x1="139.5" x2="288.6445" y1="34.6094" y2="34.6094"/><text fill="#000000" font-family="sans-serif" font-size="14" lengthAdjust="spacing" textLength="129.1445" x="149.5" y="26.5332">SESION_CERRADA</text></g><g class="entity" data-qualified-name="PANEL_PRINCIPAL_ABIERTO" data-source-line="42" id="ent0014"><rect fill="#F1F1F1" height="50" rx="12.5" ry="12.5" style="stroke:#181818;stroke-width:0.5;" width="216.8477" x="105.5" y="786"/><line style="stroke:#181818;stroke-width:0.5;" x1="105.5" x2="322.3477" y1="813.6094" y2="813.6094"/><text fill="#000000" font-family="sans-serif" font-size="14" lengthAdjust="spacing" textLength="196.8477" x="115.5" y="805.5332">PANEL_PRINCIPAL_ABIERTO</text></g><!--link SESION_CERRADA to iniciarSesion--><g class="link" data-entity-1="ent0005" data-entity-2="ent0001" data-link-type="dependency" data-source-line="4" id="lnk6"><path d="M214,57.28 C214,72.31 214,88.38 214,112.78" fill="none" id="SESION_CERRADA-to-iniciarSesion" style="stroke:#008000;stroke-width:1;"/><polygon fill="#008000" points="214,117.78,218,108.78,214,112.78,210,108.78,214,117.78" style="stroke:#008000;stroke-width:1;stroke-linejoin:miter;stroke-miterlimit:10;"/></g><!--link iniciarSesion to PANEL_PRINCIPAL_ABIERTO--><g class="link" data-entity-1="ent0001" data-entity-2="ent0014" data-link-type="dependency" data-source-line="42" id="lnk15"><path d="M214,690.13 C214,729.55 214,758.93 214,780.64" fill="none" id="iniciarSesion-to-PANEL_PRINCIPAL_ABIERTO" style="stroke:#008000;stroke-width:1;"/><polygon fill="#008000" points="214,785.64,218,776.64,214,780.64,210,776.64,214,785.64" style="stroke:#008000;stroke-width:1;stroke-linejoin:miter;stroke-miterlimit:10;"/><path d="M219,725 L219,751 L464,751 L464,735 L454,725 L219,725" fill="#FEFFDD" style="stroke:#181818;stroke-width:0.5;"/><path d="M454,725 L454,735 L464,735 L454,725" fill="#FEFFDD" style="stroke:#181818;stroke-width:0.5;"/><text fill="#000000" font-family="sans-serif" font-size="13" font-weight="700" lengthAdjust="spacing" textLength="77.9937" x="225" y="743.4951">Coordinador</text><text fill="#000000" font-family="sans-serif" font-size="13" lengthAdjust="spacing" textLength="143.0952" x="306.6055" y="743.4951">accede al panel principal</text></g><?plantuml-src dP9HIiD048RVznHBVL6XU84GY34FWTAMnBTIodGpwD9qPvbD7ue8diKRU0PluadS95fScc8r2u4T_fd_czbn6sqiC6nbhGqsUulIKhrlBqAKMPdFfgiqAuhaBf7ZnSK38vhbE9RQQAM1ItIQZ12kWGR3e0GdHq7ayceaduIG_klr8t-yggJQgnem5ILAeQDZoPp94YjVf5MbZ1KQNxX6zqEhP1IfHz8AuxYtMLml0-fX9qC-sGFxfZTT85h7AH5Nsa157DsiO-c-CYNul0fPGYsTTWrkeKj1KtLrUjyZdu3YbsQ6SChUgaEno5lTJRjXgdPASwVwU7cLExS3rdIuA_8QSFZ-DaHvcYF0LMSFwPi8_mcaMb-FyOUdKZ-fjL74ZAe1TwhweIk_6cTKF57lMOXmruFdJQRPP3KlyccQpvF9AhdDi-9-9WAdWUdrczKkbWM3_i--7ssX5WVVJm00?></g></svg>