<?xml version="1.0" encoding="us-ascii" standalone="no"?><svg xmlns="http://www.w3.org/2000/svg" xmlns:xlink="http://www.w3.org/1999/xlink" contentStyleType="text/css" height="603px" preserveAspectRatio="none" style="width:1480px;height:603px;background:#FFFFFF;" version="1.1" viewBox="0 0 1480 603" width="1480px" zoomAndPan="magnify"><defs/><g><text fill="#000000" font-family="sans-serif" font-size="14" font-weight="bold" lengthAdjust="spacing" textLength="387" x="545.75" y="29.5332">Diagrama de secuencia - Abrir entregables de proyecto</text><line style="stroke:#181818;stroke-width:0.5;stroke-dasharray:5.0,5.0;" x1="46" x2="46" y1="121.2188" y2="521.7891"/><line style="stroke:#181818;stroke-width:0.5;stroke-dasharray:5.0,5.0;" x1="294" x2="294" y1="121.2188" y2="521.7891"/><line style="stroke:#181818;stroke-width:0.5;stroke-dasharray:5.0,5.0;" x1="612" x2="612" y1="121.2188" y2="521.7891"/><line style="stroke:#181818;stroke-width:0.5;stroke-dasharray:5.0,5.0;" x1="824.5" x2="824.5" y1="121.2188" y2="521.7891"/><line style="stroke:#181818;stroke-width:0.5;stroke-dasharray:5.0,5.0;" x1="958.5" x2="958.5" y1="121.2188" y2="521.7891"/><line style="stroke:#181818;stroke-width:0.5;stroke-dasharray:5.0,5.0;" x1="1244.5" x2="1244.5" y1="121.2188" y2="521.7891"/><line style="stroke:#181818;stroke-width:0.5;stroke-dasharray:5.0,5.0;" x1="1398.5" x2="1398.5" y1="121.2188" y2="521.7891"/><text fill="#000000" font-family="sans-serif" font-size="14" lengthAdjust="spacing" textLength="77" x="5" y="118.1426">Investigador</text><ellipse cx="46.5" cy="52.1094" fill="#E2E2F0" rx="8" ry="8" style="stroke:#181818;stroke-width:0.5;"/><path d="M46.5,60.1094 L46.5,87.1094 M33.5,68.1094 L59.5,68.1094 M46.5,87.1094 L33.5,102.1094 M46.5,87.1094 L59.5,102.1094 " fill="none" style="stroke:#181818;stroke-width:0.5;"/><text fill="#000000" font-family="sans-serif" font-size="14" lengthAdjust="spacing" textLength="77" x="5" y="535.3223">Investigador</text><ellipse cx="46.5" cy="546.8984" fill="#E2E2F0" rx="8" ry="8" style="stroke:#181818;stroke-width:0.5;"/><path d="M46.5,554.8984 L46.5,581.8984 M33.5,562.8984 L59.5,562.8984 M46.5,581.8984 L33.5,596.8984 M46.5,581.8984 L59.5,596.8984 " fill="none" style="stroke:#181818;stroke-width:0.5;"/><rect fill="#E2E2F0" height="49.2188" rx="2.5" ry="2.5" style="stroke:#181818;stroke-width:0.5;" width="123" x="233" y="71"/><text fill="#000000" font-family="sans-serif" font-size="14" lengthAdjust="spacing" textLength="109" x="240" y="92.5332">EntregablesPage</text><text fill="#000000" font-family="sans-serif" font-size="14" lengthAdjust="spacing" textLength="47" x="271" y="110.1426">(React)</text><rect fill="#E2E2F0" height="49.2188" rx="2.5" ry="2.5" style="stroke:#181818;stroke-width:0.5;" width="123" x="233" y="520.7891"/><text fill="#000000" font-family="sans-serif" font-size="14" lengthAdjust="spacing" textLength="109" x="240" y="542.3223">EntregablesPage</text><text fill="#000000" font-family="sans-serif" font-size="14" lengthAdjust="spacing" textLength="47" x="271" y="559.9316">(React)</text><rect fill="#E2E2F0" height="49.2188" rx="2.5" ry="2.5" style="stroke:#181818;stroke-width:0.5;" width="145" x="540" y="71"/><text fill="#000000" font-family="sans-serif" font-size="14" lengthAdjust="spacing" textLength="131" x="547" y="92.5332">EntregableController</text><text fill="#000000" font-family="sans-serif" font-size="14" lengthAdjust="spacing" textLength="84" x="570.5" y="110.1426">(Spring Boot)</text><rect fill="#E2E2F0" height="49.2188" rx="2.5" ry="2.5" style="stroke:#181818;stroke-width:0.5;" width="145" x="540" y="520.7891"/><text fill="#000000" font-family="sans-serif" font-size="14" lengthAdjust="spacing" textLength="131" x="547" y="542.3223">EntregableController</text><text fill="#000000" font-family="sans-serif" font-size="14" lengthAdjust="spacing" textLength="84" x="570.5" y="559.9316">(Spring Boot)</text><rect fill="#E2E2F0" height="31.6094" rx="2.5" ry="2.5" style="stroke:#181818;stroke-width:0.5;" width="104" x="772.5" y="88.6094"/><text fill="#000000" font-family="sans-serif" font-size="14" lengthAdjust="spacing" textLength="90" x="779.5" y="110.1426">SesionService</text><rect fill="#E2E2F0" height="31.6094" rx="2.5" ry="2.5" style="stroke:#181818;stroke-width:0.5;" width="104" x="772.5" y="520.7891"/><text fill="#000000" font-family="sans-serif" font-size="14" lengthAdjust="spacing" textLength="90" x="779.5" y="542.3223">SesionService</text><rect fill="#E2E2F0" height="31.6094" rx="2.5" ry="2.5" style="stroke:#181818;stroke-width:0.5;" width="130" x="893.5" y="88.6094"/><text fill="#000000" font-family="sans-serif" font-size="14" lengthAdjust="spacing" textLength="116" x="900.5" y="110.1426">EntregableService</text><rect fill="#E2E2F0" height="31.6094" rx="2.5" ry="2.5" style="stroke:#181818;stroke-width:0.5;" width="130" x="893.5" y="520.7891"/><text fill="#000000" font-family="sans-serif" font-size="14" lengthAdjust="spacing" textLength="116" x="900.5" y="542.3223">EntregableService</text><rect fill="#E2E2F0" height="31.6094" rx="2.5" ry="2.5" style="stroke:#181818;stroke-width:0.5;" width="138" x="1175.5" y="88.6094"/><text fill="#000000" font-family="sans-serif" font-size="14" lengthAdjust="spacing" textLength="124" x="1182.5" y="110.1426">ProyectoRepository</text><rect fill="#E2E2F0" height="31.6094" rx="2.5" ry="2.5" style="stroke:#181818;stroke-width:0.5;" width="138" x="1175.5" y="520.7891"/><text fill="#000000" font-family="sans-serif" font-size="14" lengthAdjust="spacing" textLength="124" x="1182.5" y="542.3223">ProyectoRepository</text><rect fill="#E2E2F0" height="31.6094" rx="2.5" ry="2.5" style="stroke:#181818;stroke-width:0.5;" width="151" x="1323.5" y="88.6094"/><text fill="#000000" font-family="sans-serif" font-size="14" lengthAdjust="spacing" textLength="137" x="1330.5" y="110.1426">EntregableRepository</text><rect fill="#E2E2F0" height="31.6094" rx="2.5" ry="2.5" style="stroke:#181818;stroke-width:0.5;" width="151" x="1323.5" y="520.7891"/><text fill="#000000" font-family="sans-serif" font-size="14" lengthAdjust="spacing" textLength="137" x="1330.5" y="542.3223">EntregableRepository</text><polygon fill="#181818" points="282.5,149.5703,292.5,153.5703,282.5,157.5703,286.5,153.5703" style="stroke:#181818;stroke-width:1.0;"/><line style="stroke:#181818;stroke-width:1.0;" x1="46.5" x2="288.5" y1="153.5703" y2="153.5703"/><text fill="#000000" font-family="sans-serif" font-size="13" lengthAdjust="spacing" textLength="218" x="53.5" y="148.7139">Solicita abrir entregables del proyecto</text><polygon fill="#181818" points="600.5,196.2734,610.5,200.2734,600.5,204.2734,604.5,200.2734" style="stroke:#181818;stroke-width:1.0;"/><line style="stroke:#181818;stroke-width:1.0;" x1="294.5" x2="606.5" y1="200.2734" y2="200.2734"/><text fill="#000000" font-family="sans-serif" font-size="13" lengthAdjust="spacing" textLength="294" x="301.5" y="179.0654">GET /api/proyectos/{proyectoId}/entregables?filtro=</text><text fill="#000000" font-family="sans-serif" font-size="13" lengthAdjust="spacing" textLength="100" x="301.5" y="195.417">Cookie de sesion</text><polygon fill="#181818" points="812.5,226.625,822.5,230.625,812.5,234.625,816.5,230.625" style="stroke:#181818;stroke-width:1.0;"/><line style="stroke:#181818;stroke-width:1.0;" x1="612.5" x2="818.5" y1="230.625" y2="230.625"/><text fill="#000000" font-family="sans-serif" font-size="13" lengthAdjust="spacing" textLength="188" x="619.5" y="225.7686">exigirInvestigador(authentication)</text><polygon fill="#181818" points="623.5,256.9766,613.5,260.9766,623.5,264.9766,619.5,260.9766" style="stroke:#181818;stroke-width:1.0;"/><line style="stroke:#181818;stroke-width:1.0;stroke-dasharray:2.0,2.0;" x1="617.5" x2="823.5" y1="260.9766" y2="260.9766"/><text fill="#000000" font-family="sans-serif" font-size="13" lengthAdjust="spacing" textLength="139" x="629.5" y="256.1201">Investigador autenticado</text><polygon fill="#181818" points="946.5,287.3281,956.5,291.3281,946.5,295.3281,950.5,291.3281" style="stroke:#181818;stroke-width:1.0;"/><line style="stroke:#181818;stroke-width:1.0;" x1="612.5" x2="952.5" y1="291.3281" y2="291.3281"/><text fill="#000000" font-family="sans-serif" font-size="13" lengthAdjust="spacing" textLength="322" x="619.5" y="286.4717">listarVisiblesPorProyecto(proyectoId, filtro, investigador)</text><polygon fill="#181818" points="1232.5,317.6797,1242.5,321.6797,1232.5,325.6797,1236.5,321.6797" style="stroke:#181818;stroke-width:1.0;"/><line style="stroke:#181818;stroke-width:1.0;" x1="958.5" x2="1238.5" y1="321.6797" y2="321.6797"/><text fill="#000000" font-family="sans-serif" font-size="13" lengthAdjust="spacing" textLength="262" x="965.5" y="316.8232">verificarParticipacion(proyectoId, investigador)</text><polygon fill="#181818" points="969.5,348.0313,959.5,352.0313,969.5,356.0313,965.5,352.0313" style="stroke:#181818;stroke-width:1.0;"/><line style="stroke:#181818;stroke-width:1.0;stroke-dasharray:2.0,2.0;" x1="963.5" x2="1243.5" y1="352.0313" y2="352.0313"/><text fill="#000000" font-family="sans-serif" font-size="13" lengthAdjust="spacing" textLength="205" x="975.5" y="347.1748">Proyecto visible / acceso denegado</text><polygon fill="#181818" points="1387,378.3828,1397,382.3828,1387,386.3828,1391,382.3828" style="stroke:#181818;stroke-width:1.0;"/><line style="stroke:#181818;stroke-width:1.0;" x1="958.5" x2="1393" y1="382.3828" y2="382.3828"/><text fill="#000000" font-family="sans-serif" font-size="13" lengthAdjust="spacing" textLength="253" x="965.5" y="377.5264">buscarActivosPorProyecto(proyectoId, filtro)</text><polygon fill="#181818" points="969.5,408.7344,959.5,412.7344,969.5,416.7344,965.5,412.7344" style="stroke:#181818;stroke-width:1.0;"/><line style="stroke:#181818;stroke-width:1.0;stroke-dasharray:2.0,2.0;" x1="963.5" x2="1398" y1="412.7344" y2="412.7344"/><text fill="#000000" font-family="sans-serif" font-size="13" lengthAdjust="spacing" textLength="113" x="975.5" y="407.8779">Entregables activos</text><polygon fill="#181818" points="623.5,439.0859,613.5,443.0859,623.5,447.0859,619.5,443.0859" style="stroke:#181818;stroke-width:1.0;"/><line style="stroke:#181818;stroke-width:1.0;stroke-dasharray:2.0,2.0;" x1="617.5" x2="957.5" y1="443.0859" y2="443.0859"/><text fill="#000000" font-family="sans-serif" font-size="13" lengthAdjust="spacing" textLength="212" x="629.5" y="438.2295">List&lt;EntregableResumenResponse&gt;</text><polygon fill="#181818" points="305.5,469.4375,295.5,473.4375,305.5,477.4375,301.5,473.4375" style="stroke:#181818;stroke-width:1.0;"/><line style="stroke:#181818;stroke-width:1.0;stroke-dasharray:2.0,2.0;" x1="299.5" x2="611.5" y1="473.4375" y2="473.4375"/><text fill="#000000" font-family="sans-serif" font-size="13" lengthAdjust="spacing" textLength="44" x="311.5" y="468.5811">200 OK</text><polygon fill="#181818" points="57.5,499.7891,47.5,503.7891,57.5,507.7891,53.5,503.7891" style="stroke:#181818;stroke-width:1.0;"/><line style="stroke:#181818;stroke-width:1.0;stroke-dasharray:2.0,2.0;" x1="51.5" x2="293.5" y1="503.7891" y2="503.7891"/><text fill="#000000" font-family="sans-serif" font-size="13" lengthAdjust="spacing" textLength="224" x="63.5" y="498.9326">Presenta ENTREGABLES_ABIERTOS</text><!--SRC=[XLF1Qjj04BthAuQSR8XHw54qANAg1fFG6Clq52ZZrKGTekoAtRL8AFttZbPHj6fhUf74xdjlvhqPUVODmMV6sk8pGaNWI1r9AqPOGNwmR86qjrJZeI7N0rfhNabvaw0yB6nqHyvpZPMnIOlMi-8MjOUpOk9jiQO7lTYHS9PdW0w-MACzwUeKvLgkhMaQii8hMykwXhKnR-oyvJcn9CT6bsGxLXGWmyaf-JaoVC-XspUNEsgDOp7w6h3nyIdjFoW1ciGnmUhgtNy6fMb4n2FWFz9kfhX7HiyM_ndS57j8iULqXBZqv_YvgNwbaTAdHsuapii7VMtC4zCmw12GIFMAGrmPq0lNREDk5tZqFqIB5Ng1B9C12gknZvar0G_OoapI8TyC6dOUxJTs77R2s37DnTJsEGojdWD7idtH8DBhnJF8e2FBZrBFRiTfAEbkfZXNYkd1n7j_umrqGukG0Yf5paXScdfwtCPG_d1qKZjNdZlp7qlBvE-IqJyYjOB8L6CC-4vo-nZlbpi-avPNQxIZgo7dsKvzkBY0-zjePUGs7bFlbPmC2g7ukjyLD_dwhYY_v-jDiTlVbxy1]--></g></svg>