<?xml version="1.0" encoding="us-ascii" standalone="no"?><svg xmlns="http://www.w3.org/2000/svg" xmlns:xlink="http://www.w3.org/1999/xlink" contentStyleType="text/css" height="807px" preserveAspectRatio="none" style="width:1737px;height:807px;background:#FFFFFF;" version="1.1" viewBox="0 0 1737 807" width="1737px" zoomAndPan="magnify"><defs/><g><text fill="#000000" font-family="sans-serif" font-size="14" font-weight="bold" lengthAdjust="spacing" textLength="387" x="676.75" y="29.5332">Diagrama de secuencia - Abrir entregables de proyecto</text><line style="stroke:#181818;stroke-width:0.5;stroke-dasharray:5.0,5.0;" x1="46" x2="46" y1="121.2188" y2="724.9531"/><line style="stroke:#181818;stroke-width:0.5;stroke-dasharray:5.0,5.0;" x1="294" x2="294" y1="121.2188" y2="724.9531"/><line style="stroke:#181818;stroke-width:0.5;stroke-dasharray:5.0,5.0;" x1="612" x2="612" y1="121.2188" y2="724.9531"/><line style="stroke:#181818;stroke-width:0.5;stroke-dasharray:5.0,5.0;" x1="824.5" x2="824.5" y1="121.2188" y2="724.9531"/><line style="stroke:#181818;stroke-width:0.5;stroke-dasharray:5.0,5.0;" x1="958.5" x2="958.5" y1="121.2188" y2="724.9531"/><line style="stroke:#181818;stroke-width:0.5;stroke-dasharray:5.0,5.0;" x1="1244.5" x2="1244.5" y1="121.2188" y2="724.9531"/><line style="stroke:#181818;stroke-width:0.5;stroke-dasharray:5.0,5.0;" x1="1398.5" x2="1398.5" y1="121.2188" y2="724.9531"/><line style="stroke:#181818;stroke-width:0.5;stroke-dasharray:5.0,5.0;" x1="1686.5" x2="1686.5" y1="121.2188" y2="724.9531"/><text fill="#000000" font-family="sans-serif" font-size="14" lengthAdjust="spacing" textLength="77" x="5" y="118.1426">Investigador</text><ellipse cx="46.5" cy="52.1094" fill="#E2E2F0" rx="8" ry="8" style="stroke:#181818;stroke-width:0.5;"/><path d="M46.5,60.1094 L46.5,87.1094 M33.5,68.1094 L59.5,68.1094 M46.5,87.1094 L33.5,102.1094 M46.5,87.1094 L59.5,102.1094 " fill="none" style="stroke:#181818;stroke-width:0.5;"/><text fill="#000000" font-family="sans-serif" font-size="14" lengthAdjust="spacing" textLength="77" x="5" y="738.4863">Investigador</text><ellipse cx="46.5" cy="750.0625" fill="#E2E2F0" rx="8" ry="8" style="stroke:#181818;stroke-width:0.5;"/><path d="M46.5,758.0625 L46.5,785.0625 M33.5,766.0625 L59.5,766.0625 M46.5,785.0625 L33.5,800.0625 M46.5,785.0625 L59.5,800.0625 " fill="none" style="stroke:#181818;stroke-width:0.5;"/><rect fill="#E2E2F0" height="49.2188" rx="2.5" ry="2.5" style="stroke:#181818;stroke-width:0.5;" width="123" x="233" y="71"/><text fill="#000000" font-family="sans-serif" font-size="14" lengthAdjust="spacing" textLength="109" x="240" y="92.5332">EntregablesPage</text><text fill="#000000" font-family="sans-serif" font-size="14" lengthAdjust="spacing" textLength="47" x="271" y="110.1426">(React)</text><rect fill="#E2E2F0" height="49.2188" rx="2.5" ry="2.5" style="stroke:#181818;stroke-width:0.5;" width="123" x="233" y="723.9531"/><text fill="#000000" font-family="sans-serif" font-size="14" lengthAdjust="spacing" textLength="109" x="240" y="745.4863">EntregablesPage</text><text fill="#000000" font-family="sans-serif" font-size="14" lengthAdjust="spacing" textLength="47" x="271" y="763.0957">(React)</text><rect fill="#E2E2F0" height="49.2188" rx="2.5" ry="2.5" style="stroke:#181818;stroke-width:0.5;" width="145" x="540" y="71"/><text fill="#000000" font-family="sans-serif" font-size="14" lengthAdjust="spacing" textLength="131" x="547" y="92.5332">EntregableController</text><text fill="#000000" font-family="sans-serif" font-size="14" lengthAdjust="spacing" textLength="84" x="570.5" y="110.1426">(Spring Boot)</text><rect fill="#E2E2F0" height="49.2188" rx="2.5" ry="2.5" style="stroke:#181818;stroke-width:0.5;" width="145" x="540" y="723.9531"/><text fill="#000000" font-family="sans-serif" font-size="14" lengthAdjust="spacing" textLength="131" x="547" y="745.4863">EntregableController</text><text fill="#000000" font-family="sans-serif" font-size="14" lengthAdjust="spacing" textLength="84" x="570.5" y="763.0957">(Spring Boot)</text><rect fill="#E2E2F0" height="31.6094" rx="2.5" ry="2.5" style="stroke:#181818;stroke-width:0.5;" width="104" x="772.5" y="88.6094"/><text fill="#000000" font-family="sans-serif" font-size="14" lengthAdjust="spacing" textLength="90" x="779.5" y="110.1426">SesionService</text><rect fill="#E2E2F0" height="31.6094" rx="2.5" ry="2.5" style="stroke:#181818;stroke-width:0.5;" width="104" x="772.5" y="723.9531"/><text fill="#000000" font-family="sans-serif" font-size="14" lengthAdjust="spacing" textLength="90" x="779.5" y="745.4863">SesionService</text><rect fill="#E2E2F0" height="31.6094" rx="2.5" ry="2.5" style="stroke:#181818;stroke-width:0.5;" width="130" x="893.5" y="88.6094"/><text fill="#000000" font-family="sans-serif" font-size="14" lengthAdjust="spacing" textLength="116" x="900.5" y="110.1426">EntregableService</text><rect fill="#E2E2F0" height="31.6094" rx="2.5" ry="2.5" style="stroke:#181818;stroke-width:0.5;" width="130" x="893.5" y="723.9531"/><text fill="#000000" font-family="sans-serif" font-size="14" lengthAdjust="spacing" textLength="116" x="900.5" y="745.4863">EntregableService</text><rect fill="#E2E2F0" height="31.6094" rx="2.5" ry="2.5" style="stroke:#181818;stroke-width:0.5;" width="138" x="1175.5" y="88.6094"/><text fill="#000000" font-family="sans-serif" font-size="14" lengthAdjust="spacing" textLength="124" x="1182.5" y="110.1426">ProyectoRepository</text><rect fill="#E2E2F0" height="31.6094" rx="2.5" ry="2.5" style="stroke:#181818;stroke-width:0.5;" width="138" x="1175.5" y="723.9531"/><text fill="#000000" font-family="sans-serif" font-size="14" lengthAdjust="spacing" textLength="124" x="1182.5" y="745.4863">ProyectoRepository</text><rect fill="#E2E2F0" height="31.6094" rx="2.5" ry="2.5" style="stroke:#181818;stroke-width:0.5;" width="151" x="1323.5" y="88.6094"/><text fill="#000000" font-family="sans-serif" font-size="14" lengthAdjust="spacing" textLength="137" x="1330.5" y="110.1426">EntregableRepository</text><rect fill="#E2E2F0" height="31.6094" rx="2.5" ry="2.5" style="stroke:#181818;stroke-width:0.5;" width="151" x="1323.5" y="723.9531"/><text fill="#000000" font-family="sans-serif" font-size="14" lengthAdjust="spacing" textLength="137" x="1330.5" y="745.4863">EntregableRepository</text><text fill="#000000" font-family="sans-serif" font-size="14" lengthAdjust="spacing" textLength="93" x="1637.5" y="118.1426">Base de Datos</text><path d="M1669,67.6094 C1669,57.6094 1687,57.6094 1687,57.6094 C1687,57.6094 1705,57.6094 1705,67.6094 L1705,93.6094 C1705,103.6094 1687,103.6094 1687,103.6094 C1687,103.6094 1669,103.6094 1669,93.6094 L1669,67.6094 " fill="#E2E2F0" style="stroke:#181818;stroke-width:1.5;"/><path d="M1669,67.6094 C1669,77.6094 1687,77.6094 1687,77.6094 C1687,77.6094 1705,77.6094 1705,67.6094 " fill="none" style="stroke:#181818;stroke-width:1.5;"/><text fill="#000000" font-family="sans-serif" font-size="14" lengthAdjust="spacing" textLength="93" x="1637.5" y="738.4863">Base de Datos</text><path d="M1669,751.5625 C1669,741.5625 1687,741.5625 1687,741.5625 C1687,741.5625 1705,741.5625 1705,751.5625 L1705,777.5625 C1705,787.5625 1687,787.5625 1687,787.5625 C1687,787.5625 1669,787.5625 1669,777.5625 L1669,751.5625 " fill="#E2E2F0" style="stroke:#181818;stroke-width:1.5;"/><path d="M1669,751.5625 C1669,761.5625 1687,761.5625 1687,761.5625 C1687,761.5625 1705,761.5625 1705,751.5625 " fill="none" style="stroke:#181818;stroke-width:1.5;"/><polygon fill="#181818" points="282.5,149.5703,292.5,153.5703,282.5,157.5703,286.5,153.5703" style="stroke:#181818;stroke-width:1.0;"/><line style="stroke:#181818;stroke-width:1.0;" x1="46.5" x2="288.5" y1="153.5703" y2="153.5703"/><text fill="#000000" font-family="sans-serif" font-size="13" lengthAdjust="spacing" textLength="218" x="53.5" y="148.7139">Solicita abrir entregables del proyecto</text><polygon fill="#181818" points="600.5,196.2734,610.5,200.2734,600.5,204.2734,604.5,200.2734" style="stroke:#181818;stroke-width:1.0;"/><line style="stroke:#181818;stroke-width:1.0;" x1="294.5" x2="606.5" y1="200.2734" y2="200.2734"/><text fill="#000000" font-family="sans-serif" font-size="13" lengthAdjust="spacing" textLength="294" x="301.5" y="179.0654">GET /api/proyectos/{proyectoId}/entregables?filtro=</text><text fill="#000000" font-family="sans-serif" font-size="13" lengthAdjust="spacing" textLength="100" x="301.5" y="195.417">Cookie de sesion</text><polygon fill="#181818" points="812.5,226.625,822.5,230.625,812.5,234.625,816.5,230.625" style="stroke:#181818;stroke-width:1.0;"/><line style="stroke:#181818;stroke-width:1.0;" x1="612.5" x2="818.5" y1="230.625" y2="230.625"/><text fill="#000000" font-family="sans-serif" font-size="13" lengthAdjust="spacing" textLength="188" x="619.5" y="225.7686">exigirInvestigador(authentication)</text><polygon fill="#181818" points="623.5,256.9766,613.5,260.9766,623.5,264.9766,619.5,260.9766" style="stroke:#181818;stroke-width:1.0;"/><line style="stroke:#181818;stroke-width:1.0;stroke-dasharray:2.0,2.0;" x1="617.5" x2="823.5" y1="260.9766" y2="260.9766"/><text fill="#000000" font-family="sans-serif" font-size="13" lengthAdjust="spacing" textLength="139" x="629.5" y="256.1201">Investigador autenticado</text><polygon fill="#181818" points="946.5,287.3281,956.5,291.3281,946.5,295.3281,950.5,291.3281" style="stroke:#181818;stroke-width:1.0;"/><line style="stroke:#181818;stroke-width:1.0;" x1="612.5" x2="952.5" y1="291.3281" y2="291.3281"/><text fill="#000000" font-family="sans-serif" font-size="13" lengthAdjust="spacing" textLength="322" x="619.5" y="286.4717">listarVisiblesPorProyecto(proyectoId, filtro, investigador)</text><polygon fill="#181818" points="1232.5,317.6797,1242.5,321.6797,1232.5,325.6797,1236.5,321.6797" style="stroke:#181818;stroke-width:1.0;"/><line style="stroke:#181818;stroke-width:1.0;" x1="958.5" x2="1238.5" y1="321.6797" y2="321.6797"/><text fill="#000000" font-family="sans-serif" font-size="13" lengthAdjust="spacing" textLength="262" x="965.5" y="316.8232">verificarParticipacion(proyectoId, investigador)</text><polygon fill="#181818" points="1675,397.0859,1685,401.0859,1675,405.0859,1679,401.0859" style="stroke:#181818;stroke-width:1.0;"/><line style="stroke:#181818;stroke-width:1.0;" x1="1244.5" x2="1681" y1="401.0859" y2="401.0859"/><text fill="#000000" font-family="sans-serif" font-size="13" lengthAdjust="spacing" textLength="184" x="1251.5" y="347.1748">SELECT p.* FROM proyectos p</text><text fill="#000000" font-family="sans-serif" font-size="13" lengthAdjust="spacing" textLength="330" x="1251.5" y="363.5264">JOIN proyecto_investigadores pi ON pi.proyecto_id = p.id</text><text fill="#000000" font-family="sans-serif" font-size="13" lengthAdjust="spacing" textLength="254" x="1251.5" y="379.8779">WHERE p.id = ? AND pi.investigador_id = ?</text><text fill="#000000" font-family="sans-serif" font-size="13" lengthAdjust="spacing" textLength="259" x="1251.5" y="396.2295">AND pi.activo = true AND p.archivado = false</text><polygon fill="#181818" points="1255.5,427.4375,1245.5,431.4375,1255.5,435.4375,1251.5,431.4375" style="stroke:#181818;stroke-width:1.0;"/><line style="stroke:#181818;stroke-width:1.0;stroke-dasharray:2.0,2.0;" x1="1249.5" x2="1686" y1="431.4375" y2="431.4375"/><text fill="#000000" font-family="sans-serif" font-size="13" lengthAdjust="spacing" textLength="132" x="1261.5" y="426.5811">Proyecto visible / vacio</text><polygon fill="#181818" points="969.5,457.7891,959.5,461.7891,969.5,465.7891,965.5,461.7891" style="stroke:#181818;stroke-width:1.0;"/><line style="stroke:#181818;stroke-width:1.0;stroke-dasharray:2.0,2.0;" x1="963.5" x2="1243.5" y1="461.7891" y2="461.7891"/><text fill="#000000" font-family="sans-serif" font-size="13" lengthAdjust="spacing" textLength="205" x="975.5" y="456.9326">Proyecto visible / acceso denegado</text><polygon fill="#181818" points="1387,488.1406,1397,492.1406,1387,496.1406,1391,492.1406" style="stroke:#181818;stroke-width:1.0;"/><line style="stroke:#181818;stroke-width:1.0;" x1="958.5" x2="1393" y1="492.1406" y2="492.1406"/><text fill="#000000" font-family="sans-serif" font-size="13" lengthAdjust="spacing" textLength="253" x="965.5" y="487.2842">buscarActivosPorProyecto(proyectoId, filtro)</text><polygon fill="#181818" points="1675,551.1953,1685,555.1953,1675,559.1953,1679,555.1953" style="stroke:#181818;stroke-width:1.0;"/><line style="stroke:#181818;stroke-width:1.0;" x1="1399" x2="1681" y1="555.1953" y2="555.1953"/><text fill="#000000" font-family="sans-serif" font-size="13" lengthAdjust="spacing" textLength="172" x="1406" y="517.6357">SELECT * FROM entregables</text><text fill="#000000" font-family="sans-serif" font-size="13" lengthAdjust="spacing" textLength="264" x="1406" y="533.9873">WHERE proyecto_id = ? AND retirado = false</text><text fill="#000000" font-family="sans-serif" font-size="13" lengthAdjust="spacing" textLength="148" x="1406" y="550.3389">AND coincide_filtro = true</text><polygon fill="#181818" points="1410,581.5469,1400,585.5469,1410,589.5469,1406,585.5469" style="stroke:#181818;stroke-width:1.0;"/><line style="stroke:#181818;stroke-width:1.0;stroke-dasharray:2.0,2.0;" x1="1404" x2="1686" y1="585.5469" y2="585.5469"/><text fill="#000000" font-family="sans-serif" font-size="13" lengthAdjust="spacing" textLength="113" x="1416" y="580.6904">Entregables activos</text><polygon fill="#181818" points="969.5,611.8984,959.5,615.8984,969.5,619.8984,965.5,615.8984" style="stroke:#181818;stroke-width:1.0;"/><line style="stroke:#181818;stroke-width:1.0;stroke-dasharray:2.0,2.0;" x1="963.5" x2="1398" y1="615.8984" y2="615.8984"/><text fill="#000000" font-family="sans-serif" font-size="13" lengthAdjust="spacing" textLength="113" x="975.5" y="611.042">Entregables activos</text><polygon fill="#181818" points="623.5,642.25,613.5,646.25,623.5,650.25,619.5,646.25" style="stroke:#181818;stroke-width:1.0;"/><line style="stroke:#181818;stroke-width:1.0;stroke-dasharray:2.0,2.0;" x1="617.5" x2="957.5" y1="646.25" y2="646.25"/><text fill="#000000" font-family="sans-serif" font-size="13" lengthAdjust="spacing" textLength="212" x="629.5" y="641.3936">List&lt;EntregableResumenResponse&gt;</text><polygon fill="#181818" points="305.5,672.6016,295.5,676.6016,305.5,680.6016,301.5,676.6016" style="stroke:#181818;stroke-width:1.0;"/><line style="stroke:#181818;stroke-width:1.0;stroke-dasharray:2.0,2.0;" x1="299.5" x2="611.5" y1="676.6016" y2="676.6016"/><text fill="#000000" font-family="sans-serif" font-size="13" lengthAdjust="spacing" textLength="44" x="311.5" y="671.7451">200 OK</text><polygon fill="#181818" points="57.5,702.9531,47.5,706.9531,57.5,710.9531,53.5,706.9531" style="stroke:#181818;stroke-width:1.0;"/><line style="stroke:#181818;stroke-width:1.0;stroke-dasharray:2.0,2.0;" x1="51.5" x2="293.5" y1="706.9531" y2="706.9531"/><text fill="#000000" font-family="sans-serif" font-size="13" lengthAdjust="spacing" textLength="224" x="63.5" y="702.0967">Presenta ENTREGABLES_ABIERTOS</text><!--SRC=[XPHHRzem4CVVyobEVIfJWMgFQ6r58EtOEgW0RIz8w4WEUbfgHxQ9Latxxhl419oEQYyXsF_x- -vtvpXsES6OSMVm1I4Zi9JkIQMCq8NXnh01KixG3ZSvsKfG6FrAgTCHoiF0H9La7UymqoOgq3XEkK3bu28vnJtXZbRgSauIqxa0j71lj7AailT2Hh9jT9wJaRX5OLZj8DRw43qik1su8CjQBSYKd58jyIllsRULzNjR-dIeSaw5jYo5ljRQSFazxpSXjJH3Xnkq11TnzHICOtJQre9n74KXHUZU7l4COA5pESCXu9bcvATkD15LjE0Pm4EoX3uMt6yajl-xUPraV_g1qzsMSw5zir8ZhNyo-Jce-ObLvUXf3e1-yOvDcEqbxjspU76AJYITo4kXs-JHAat4NflfatMDVm0vMuVcErkkHqQR1lRbAUqhyAbU0GUsrQ6rIUKNjcW09HdUoddcgMbMAjcr7DjEONXbDuwb1ybZCbf2qVi0z_FPjoDq2yLAVPbDfiULTMWcBP8IPxBBlPCWWnjnucobVdnEvadzBajtC9oEAsNeuDLtAtNOa-l3fPObP_Ra0tfeqcSkHItBMymjHUEufjy6qVo3qWE6FfGLYpS5Xmqv4u9fIbRBV2Yg4Wov-sCsUokmXtMU_-bX9ph3-40u6CuZfnP1ZykGOnEKxa6bckK3bj7QdtF0rM3nUGOV9_1KRVGlWNEgOydDW3_At7uAhx_Tlv2Idq8hIxT-pbjt-kFrDSo-1bTMTiDhKg4dAmmGakbodZmCuyTaiHx6asI-d2t-0W00]--></g></svg>