<svg xmlns="http://www.w3.org/2000/svg" xmlns:xlink="http://www.w3.org/1999/xlink" contentStyleType="text/css" data-diagram-type="DESCRIPTION" height="442px" preserveAspectRatio="none" style="width:1350px;height:442px;background:#FFFFFF;" version="1.1" viewBox="0 0 1350 442" width="1350px" zoomAndPan="magnify"><?plantuml 1.2026.4?><defs/><g><!--cluster editarPublicacion--><g class="cluster" data-qualified-name="editarPublicacion" data-source-line="4" id="ent0002"><path d="M211.5,6 L338.5205,6 A3.75,3.75 0 0 1 341.0205,8.5 L348.0205,29.6094 L603.5,29.6094 A2.5,2.5 0 0 1 606,32.1094 L606,424.5 A2.5,2.5 0 0 1 603.5,427 L211.5,427 A2.5,2.5 0 0 1 209,424.5 L209,8.5 A2.5,2.5 0 0 1 211.5,6" fill="none" style="stroke:#000000;stroke-width:1.5;"/><line style="stroke:#000000;stroke-width:1.5;" x1="209" x2="348.0205" y1="29.6094" y2="29.6094"/><text fill="#000000" font-family="sans-serif" font-size="14" font-weight="700" lengthAdjust="spacing" textLength="126.0205" x="213" y="22.5332">editarPublicacion()</text></g><!--entity EditarPublicacionView--><g class="entity" data-qualified-name="editarPublicacion.EditarPublicacionView" data-source-line="5" id="ent0003"><rect fill="#629EF9" height="37.6094" rx="2.5" ry="2.5" style="stroke:#181818;stroke-width:0.5;" width="158.5166" x="404.5" y="42"/><text fill="#000000" font-family="sans-serif" font-size="14" lengthAdjust="spacing" textLength="138.5166" x="414.5" y="66.5332">EditarPublicacionView</text></g><!--entity PublicacionController--><g class="entity" data-qualified-name="editarPublicacion.PublicacionController" data-source-line="6" id="ent0004"><rect fill="#B5BD68" height="37.6094" rx="2.5" ry="2.5" style="stroke:#181818;stroke-width:0.5;" width="152.2891" x="272" y="158"/><text fill="#000000" font-family="sans-serif" font-size="14" lengthAdjust="spacing" textLength="132.2891" x="282" y="182.5332">PublicacionController</text></g><!--entity PublicacionRepository--><g class="entity" data-qualified-name="editarPublicacion.PublicacionRepository" data-source-line="7" id="ent0005"><rect fill="#F2AC4E" height="37.6094" rx="2.5" ry="2.5" style="stroke:#181818;stroke-width:0.5;" width="158.5166" x="281.5" y="274"/><text fill="#000000" font-family="sans-serif" font-size="14" lengthAdjust="spacing" textLength="138.5166" x="291.5" y="298.5332">PublicacionRepository</text></g><!--entity Publicacion--><g class="entity" data-qualified-name="editarPublicacion.Publicacion" data-source-line="8" id="ent0006"><rect fill="#F2AC4E" height="37.6094" rx="2.5" ry="2.5" style="stroke:#181818;stroke-width:0.5;" width="91.5996" x="315" y="373"/><text fill="#000000" font-family="sans-serif" font-size="14" lengthAdjust="spacing" textLength="71.5996" x="325" y="397.5332">Publicacion</text></g><!--entity EstadoEntrada--><g class="entity" data-qualified-name="EstadoEntrada" data-source-line="3" id="ent0001"><rect fill="#CDEBA5" height="37.6094" rx="2.5" ry="2.5" style="stroke:#181818;stroke-width:0.5;" width="186.4893" x="7" y="42"/><text fill="#000000" font-family="sans-serif" font-size="14" lengthAdjust="spacing" textLength="166.4893" x="17" y="66.5332">:PUBLICACION_ABIERTA</text></g><!--entity EstadoSalida--><g class="entity" data-qualified-name="EstadoSalida" data-source-line="11" id="ent0007"><rect fill="#CDEBA5" height="37.6094" rx="2.5" ry="2.5" style="stroke:#181818;stroke-width:0.5;" width="186.4893" x="622" y="158"/><text fill="#000000" font-family="sans-serif" font-size="14" lengthAdjust="spacing" textLength="166.4893" x="632" y="182.5332">:PUBLICACION_ABIERTA</text></g><!--entity EliminarPublicacion--><g class="entity" data-qualified-name="EliminarPublicacion" data-source-line="12" id="ent0008"><rect fill="#CDEBA5" height="37.6094" rx="2.5" ry="2.5" style="stroke:#181818;stroke-width:0.5;" width="232.4404" x="843" y="158"/><text fill="#000000" font-family="sans-serif" font-size="14" lengthAdjust="spacing" textLength="212.4404" x="853" y="182.5332">:Collaboration EliminarPublicacion</text></g><!--entity AbrirPublicaciones--><g class="entity" data-qualified-name="AbrirPublicaciones" data-source-line="13" id="ent0009"><rect fill="#CDEBA5" height="37.6094" rx="2.5" ry="2.5" style="stroke:#181818;stroke-width:0.5;" width="226.2197" x="1110" y="158"/><text fill="#000000" font-family="sans-serif" font-size="14" lengthAdjust="spacing" textLength="206.2197" x="1120" y="182.5332">:Collaboration AbrirPublicaciones</text></g><!--link EstadoEntrada to EditarPublicacionView--><g class="link" data-entity-1="ent0001" data-entity-2="ent0003" data-link-type="dependency" data-source-line="15" id="lnk10"><path d="M193.45,61 C258.05,61 338.07,61 399.44,61" fill="none" id="EstadoEntrada-to-EditarPublicacionView" style="stroke:#181818;stroke-width:1;"/><polygon fill="#181818" points="404.44,61,395.44,57,399.44,61,395.44,65,404.44,61" style="stroke:#181818;stroke-width:1;stroke-linejoin:miter;stroke-miterlimit:10;"/><text fill="#000000" font-family="sans-serif" font-size="13" lengthAdjust="spacing" textLength="107.6626" x="245.25" y="54.4951">editarPublicacion()</text></g><!--link EditarPublicacionView to PublicacionController--><g class="link" data-entity-1="ent0003" data-entity-2="ent0004" data-link-type="dependency" data-source-line="17" id="lnk11"><path d="M404.29,78.86 C338.88,92.69 257,110 257,110 C257,110 257,128 257,128 C257,128 283.6072,142.0379 309.4372,155.6579" fill="none" id="EditarPublicacionView-to-PublicacionController" style="stroke:#181818;stroke-width:1;"/><polygon fill="#181818" points="313.86,157.99,307.7646,150.2539,309.4372,155.6579,304.0333,157.3304,313.86,157.99" style="stroke:#181818;stroke-width:1;stroke-linejoin:miter;stroke-miterlimit:10;"/><text fill="#000000" font-family="sans-serif" font-size="13" lengthAdjust="spacing" textLength="156.8062" x="258" y="124.4951">editarPublicacion(id, datos)</text></g><!--link EditarPublicacionView to PublicacionController--><g class="link" data-entity-1="ent0003" data-entity-2="ent0004" data-link-type="dependency" data-source-line="18" id="lnk12"><path d="M466.24,80.03 C446.99,99.58 419,128 419,128 C419,128 399.0927,141.4604 378.9827,155.0504" fill="none" id="EditarPublicacionView-to-PublicacionController-1" style="stroke:#181818;stroke-width:1;"/><polygon fill="#181818" points="374.84,157.85,384.5366,156.1249,378.9827,155.0504,380.0573,149.4965,374.84,157.85" style="stroke:#181818;stroke-width:1;stroke-linejoin:miter;stroke-miterlimit:10;"/><text fill="#000000" font-family="sans-serif" font-size="13" lengthAdjust="spacing" textLength="130.0508" x="437" y="124.4951">validarCambios(datos)</text></g><!--link PublicacionController to PublicacionRepository--><g class="link" data-entity-1="ent0004" data-entity-2="ent0005" data-link-type="dependency" data-source-line="19" id="lnk13"><path d="M321.91,196.15 C302.37,209.74 279,226 279,226 C279,226 279,244 279,244 C279,244 302.4647,257.7344 325.6847,271.3244" fill="none" id="PublicacionController-to-PublicacionRepository" style="stroke:#181818;stroke-width:1;"/><polygon fill="#181818" points="330,273.85,324.253,265.8517,325.6847,271.3244,320.2121,272.7561,330,273.85" style="stroke:#181818;stroke-width:1;stroke-linejoin:miter;stroke-miterlimit:10;"/><text fill="#000000" font-family="sans-serif" font-size="13" lengthAdjust="spacing" textLength="93.939" x="280" y="240.4951">obtenerPorId(id)</text></g><!--link PublicacionController to PublicacionRepository--><g class="link" data-entity-1="ent0004" data-entity-2="ent0005" data-link-type="dependency" data-source-line="20" id="lnk14"><path d="M359.34,196.15 C367.84,209.74 378,226 378,226 C378,226 378,244 378,244 C378,244 373.9083,255.5465 369.0983,269.1365" fill="none" id="PublicacionController-to-PublicacionRepository-1" style="stroke:#181818;stroke-width:1;"/><polygon fill="#181818" points="367.43,273.85,374.2037,266.7004,369.0983,269.1365,366.6621,264.0311,367.43,273.85" style="stroke:#181818;stroke-width:1;stroke-linejoin:miter;stroke-miterlimit:10;"/><text fill="#000000" font-family="sans-serif" font-size="13" lengthAdjust="spacing" textLength="106.9453" x="379" y="240.4951">actualizar(entidad)</text></g><!--link PublicacionRepository to Publicacion--><g class="link" data-entity-1="ent0005" data-entity-2="ent0006" data-link-type="association" data-source-line="21" id="lnk15"><path d="M361,312.24 C361,329.59 361,355.52 361,372.84" fill="none" id="PublicacionRepository-Publicacion" style="stroke:#181818;stroke-width:1;"/></g><!--link EditarPublicacionView to EstadoSalida--><g class="link" data-entity-1="ent0003" data-entity-2="ent0007" data-link-type="dependency" data-source-line="22" id="lnk16"><path d="M520.6,80.06 C563.73,101.35 630.4863,134.2872 673.7063,155.6172" fill="none" id="EditarPublicacionView-to-EstadoSalida" style="stroke:#181818;stroke-width:1;stroke-dasharray:7,7;"/><polygon fill="#181818" points="678.19,157.83,671.8896,150.26,673.7063,155.6172,668.3491,157.4339,678.19,157.83" style="stroke:#181818;stroke-width:1;stroke-linejoin:miter;stroke-miterlimit:10;"/><text fill="#000000" font-family="sans-serif" font-size="13" lengthAdjust="spacing" textLength="130.7935" x="614" y="124.4951">continuarNavegacion()</text></g><!--link EditarPublicacionView to EliminarPublicacion--><g class="link" data-entity-1="ent0003" data-entity-2="ent0008" data-link-type="dependency" data-source-line="23" id="lnk17"><path d="M563.62,76.21 C642.94,90.36 753,110 753,110 C753,110 836.9586,136.8938 897.9486,156.4438" fill="none" id="EditarPublicacionView-to-EliminarPublicacion" style="stroke:#181818;stroke-width:1;stroke-dasharray:7,7;"/><polygon fill="#181818" points="902.71,157.97,895.3605,151.4137,897.9486,156.4438,892.9186,159.0319,902.71,157.97" style="stroke:#181818;stroke-width:1;stroke-linejoin:miter;stroke-miterlimit:10;"/><text fill="#000000" font-family="sans-serif" font-size="13" lengthAdjust="spacing" textLength="120.6563" x="809" y="124.4951">eliminarPublicacion()</text></g><!--link EditarPublicacionView to AbrirPublicaciones--><g class="link" data-entity-1="ent0003" data-entity-2="ent0009" data-link-type="dependency" data-source-line="24" id="lnk18"><path d="M563.6,70.42 C693.81,84.18 938,110 938,110 C938,110 1055.869,137.2914 1140.249,156.8414" fill="none" id="EditarPublicacionView-to-AbrirPublicaciones" style="stroke:#181818;stroke-width:1;stroke-dasharray:7,7;"/><polygon fill="#181818" points="1145.12,157.97,1137.2551,152.0418,1140.249,156.8414,1135.4494,159.8354,1145.12,157.97" style="stroke:#181818;stroke-width:1;stroke-linejoin:miter;stroke-miterlimit:10;"/><text fill="#000000" font-family="sans-serif" font-size="13" lengthAdjust="spacing" textLength="114.8799" x="1015" y="124.4951">abrirPublicaciones()</text></g><?plantuml-src dP9DQm8n48Rl-HN3zgBGzI1LwXw4THjXeLYn7zSokmaIZCcIZHPR-jyRROlx4MrnRndUUVQTTwPS2LMWmJL8eRZT5HmABNVx1o66vnRLKdAuIkxe91v04CsV9_Tf4YVfm-mrdgHqyHG7W2NGqYBJL5c334c1-GgN73WJ5iryaqcHOowqsak3LhNJ3U23WFiglnpsHtGw0jeKlmZ-rjHcWumDRw6YIhIpegNafgcTzkFaXbQr2rxeKbXjTdzhoUSbkJoY52uMNsFYJ6Ac3TfzF5IAjL2rURynxVe_Q75cHBM5bmTOkqn8RNyGcd3iJpu2p_PSkqyB8NCOxr9y6C6kWQ7LPVSKxZHjUmZO9BZEX2uxFnYlk8avRZy2dLckk9bhapBdvm82vdRZlBoZwN1bdQSwv2XraDfT-KVkzSQr4ueWTpQ4sg2PuPOlVnTmfhjzEIxyTl4if7qnRj9MpI6-0000?></g></svg>