<svg xmlns="http://www.w3.org/2000/svg" xmlns:xlink="http://www.w3.org/1999/xlink" contentStyleType="text/css" data-diagram-type="DESCRIPTION" height="479px" preserveAspectRatio="none" style="width:1656px;height:479px;background:#FFFFFF;" version="1.1" viewBox="0 0 1656 479" width="1656px" zoomAndPan="magnify"><?plantuml 1.2026.6?><defs/><g><!--cluster editarPublicacion--><g class="cluster" data-qualified-name="editarPublicacion" data-source-line="4" id="ent0002"><path d="M413.5,6 L540.5205,6 A3.75,3.75 0 0 1 543.0205,8.5 L550.0205,29.6094 L1395.5,29.6094 A2.5,2.5 0 0 1 1398,32.1094 L1398,461.5 A2.5,2.5 0 0 1 1395.5,464 L413.5,464 A2.5,2.5 0 0 1 411,461.5 L411,8.5 A2.5,2.5 0 0 1 413.5,6" fill="none" style="stroke:#000000;stroke-width:1.5;"/><line style="stroke:#000000;stroke-width:1.5;" x1="411" x2="550.0205" y1="29.6094" y2="29.6094"/><text fill="#000000" font-family="sans-serif" font-size="14" font-weight="700" lengthAdjust="spacing" textLength="126.0205" x="415" y="22.5332">editarPublicacion()</text></g><!--entity View--><g class="entity" data-qualified-name="editarPublicacion.View" data-source-line="5" id="ent0003"><rect fill="#629EF9" height="37.6094" rx="2.5" ry="2.5" style="stroke:#181818;stroke-width:0.5;" width="156.9648" x="745.5" y="42"/><text fill="#000000" font-family="sans-serif" font-size="14" lengthAdjust="spacing" textLength="136.9648" x="755.5" y="66.5332">editarPublicacionView</text></g><!--entity PublicacionController--><g class="entity" data-qualified-name="editarPublicacion.PublicacionController" data-source-line="6" id="ent0004"><rect fill="#B5BD68" height="37.6094" rx="2.5" ry="2.5" style="stroke:#181818;stroke-width:0.5;" width="152.2891" x="748" y="158"/><text fill="#000000" font-family="sans-serif" font-size="14" lengthAdjust="spacing" textLength="132.2891" x="758" y="182.5332">PublicacionController</text></g><!--entity PoliticaPublicacion--><g class="entity" data-qualified-name="editarPublicacion.PoliticaPublicacion" data-source-line="7" id="ent0005"><rect fill="#B5BD68" height="37.6094" rx="2.5" ry="2.5" style="stroke:#181818;stroke-width:0.5;" width="136.7305" x="519.5" y="292.5"/><text fill="#000000" font-family="sans-serif" font-size="14" lengthAdjust="spacing" textLength="116.7305" x="529.5" y="317.0332">PoliticaPublicacion</text></g><!--entity PublicacionRepository--><g class="entity" data-qualified-name="editarPublicacion.PublicacionRepository" data-source-line="8" id="ent0006"><rect fill="#F2AC4E" height="37.6094" rx="2.5" ry="2.5" style="stroke:#181818;stroke-width:0.5;" width="158.5166" x="721.5" y="292.5"/><text fill="#000000" font-family="sans-serif" font-size="14" lengthAdjust="spacing" textLength="138.5166" x="731.5" y="317.0332">PublicacionRepository</text></g><!--entity Publicacion--><g class="entity" data-qualified-name="editarPublicacion.Publicacion" data-source-line="9" id="ent0007"><rect fill="#F2AC4E" height="37.6094" rx="2.5" ry="2.5" style="stroke:#181818;stroke-width:0.5;" width="91.5996" x="755" y="410"/><text fill="#000000" font-family="sans-serif" font-size="14" lengthAdjust="spacing" textLength="71.5996" x="765" y="434.5332">Publicacion</text></g><!--entity ArchivoPublicacionRepository--><g class="entity" data-qualified-name="editarPublicacion.ArchivoPublicacionRepository" data-source-line="10" id="ent0008"><rect fill="#F2AC4E" height="37.6094" rx="2.5" ry="2.5" style="stroke:#181818;stroke-width:0.5;" width="205.1992" x="978.5" y="292.5"/><text fill="#000000" font-family="sans-serif" font-size="14" lengthAdjust="spacing" textLength="185.1992" x="988.5" y="317.0332">ArchivoPublicacionRepository</text></g><!--entity ArchivoPublicacion--><g class="entity" data-qualified-name="editarPublicacion.ArchivoPublicacion" data-source-line="11" id="ent0009"><rect fill="#F2AC4E" height="37.6094" rx="2.5" ry="2.5" style="stroke:#181818;stroke-width:0.5;" width="138.2822" x="1012" y="410"/><text fill="#000000" font-family="sans-serif" font-size="14" lengthAdjust="spacing" textLength="118.2822" x="1022" y="434.5332">ArchivoPublicacion</text></g><!--entity EstadoEntrada--><g class="entity" data-qualified-name="EstadoEntrada" data-source-line="3" id="ent0001"><rect fill="#CDEBA5" height="37.6094" rx="2.5" ry="2.5" style="stroke:#181818;stroke-width:0.5;" width="387.9922" x="7" y="42"/><text fill="#000000" font-family="sans-serif" font-size="14" lengthAdjust="spacing" textLength="367.9922" x="17" y="66.5332">:PUBLICACION_ABIERTA o MI_PUBLICACION_ABIERTA</text></g><!--entity EstadoSalida--><g class="entity" data-qualified-name="EstadoSalida" data-source-line="13" id="ent0010"><rect fill="#CDEBA5" height="37.6094" rx="2.5" ry="2.5" style="stroke:#181818;stroke-width:0.5;" width="194.3506" x="1414" y="158"/><text fill="#000000" font-family="sans-serif" font-size="14" lengthAdjust="spacing" textLength="174.3506" x="1424" y="182.5332">:Estado de detalle de origen</text></g><g class="entity" data-qualified-name="GMN20" data-source-line="26" id="ent0021"><path d="M1414,274 L1414,349.4063 L1641.6226,349.4063 L1641.6226,284 L1631.6226,274 L1414,274" fill="#FEFFDD" style="stroke:#181818;stroke-width:0.5;"/><path d="M1631.6226,274 L1631.6226,284 L1641.6226,284 L1631.6226,274" fill="#FEFFDD" style="stroke:#181818;stroke-width:1;"/><text fill="#000000" font-family="sans-serif" font-size="13" lengthAdjust="spacing" textLength="134.4243" x="1420" y="292.4951">Responsabilidad unica:</text><text fill="#000000" font-family="sans-serif" font-size="13" lengthAdjust="spacing" textLength="191.4707" x="1420" y="308.8467">autoriza sin persistir ni presentar.</text><text fill="#000000" font-family="sans-serif" font-size="13" lengthAdjust="spacing" textLength="206.6226" x="1420" y="325.1982">Permite ampliar reglas sin modificar</text><text fill="#000000" font-family="sans-serif" font-size="13" lengthAdjust="spacing" textLength="185.7324" x="1420" y="341.5498">la coordinacion del caso de uso.</text></g><!--link EstadoEntrada to View--><g class="link" data-entity-1="ent0001" data-entity-2="ent0003" data-link-type="dependency" data-source-line="15" id="lnk11"><path d="M395.13,61 C513.33,61 652.95,61 740.42,61" fill="none" id="EstadoEntrada-to-View" style="stroke:#181818;stroke-width:1;"/><polygon fill="#181818" points="745.42,61,736.42,57,740.42,61,736.42,65,745.42,61" style="stroke:#181818;stroke-width:1;stroke-linejoin:miter;stroke-miterlimit:10;"/><text fill="#000000" font-family="sans-serif" font-size="13" lengthAdjust="spacing" textLength="107.6626" x="516.75" y="54.4951">editarPublicacion()</text></g><!--link View to PublicacionController--><g class="link" data-entity-1="ent0003" data-entity-2="ent0004" data-link-type="dependency" data-source-line="16" id="lnk12"><path d="M824,80.06 C824,101.28 824,131.3 824,152.64" fill="none" id="View-to-PublicacionController" style="stroke:#181818;stroke-width:1;"/><polygon fill="#181818" points="824,157.64,828,148.64,824,152.64,820,148.64,824,157.64" style="stroke:#181818;stroke-width:1;stroke-linejoin:miter;stroke-miterlimit:10;"/><text fill="#000000" font-family="sans-serif" font-size="13" lengthAdjust="spacing" textLength="190.7534" x="825" y="124.4951">editarPublicacion(solicitud, actor)</text></g><!--link PublicacionController to PublicacionRepository--><g class="link" data-entity-1="ent0004" data-entity-2="ent0006" data-link-type="dependency" data-source-line="17" id="lnk13"><path d="M790.98,196.01 C766.01,209.63 736,226 736,226 C736,226 736,244 736,244 C736,244 760.4946,269.0647 779.7446,288.7547" fill="none" id="PublicacionController-to-PublicacionRepository" style="stroke:#181818;stroke-width:1;"/><polygon fill="#181818" points="783.24,292.33,779.8086,283.0983,779.7446,288.7547,774.0881,288.6908,783.24,292.33" style="stroke:#181818;stroke-width:1;stroke-linejoin:miter;stroke-miterlimit:10;"/><text fill="#000000" font-family="sans-serif" font-size="13" lengthAdjust="spacing" textLength="129.3398" x="737" y="240.4951">obtenerActivaPorId(id)</text></g><!--link PublicacionController to PublicacionRepository--><g class="link" data-entity-1="ent0004" data-entity-2="ent0006" data-link-type="dependency" data-source-line="19" id="lnk15"><path d="M841.77,196.15 C855.08,209.74 871,226 871,226 C871,226 871,244 871,244 C871,244 844.4745,269.1957 823.7545,288.8857" fill="none" id="PublicacionController-to-PublicacionRepository-1" style="stroke:#181818;stroke-width:1;"/><polygon fill="#181818" points="820.13,292.33,829.4095,289.0298,823.7545,288.8857,823.8986,283.2307,820.13,292.33" style="stroke:#181818;stroke-width:1;stroke-linejoin:miter;stroke-miterlimit:10;"/><text fill="#000000" font-family="sans-serif" font-size="13" lengthAdjust="spacing" textLength="129.3398" x="872" y="240.4951">actualizar(publicacion)</text></g><!--link PublicacionController to PoliticaPublicacion--><g class="link" data-entity-1="ent0004" data-entity-2="ent0005" data-link-type="dependency" data-source-line="18" id="lnk14"><path d="M747.6,189.01 C649.29,203.18 491,226 491,226 C491,226 491,244 491,244 C491,244 528.6461,269.8127 557.3661,289.5027" fill="none" id="PublicacionController-to-PoliticaPublicacion" style="stroke:#181818;stroke-width:1;"/><polygon fill="#181818" points="561.49,292.33,556.3288,283.9418,557.3661,289.5027,551.8052,290.54,561.49,292.33" style="stroke:#181818;stroke-width:1;stroke-linejoin:miter;stroke-miterlimit:10;"/><text fill="#000000" font-family="sans-serif" font-size="13" lengthAdjust="spacing" textLength="235.5425" x="492" y="240.4951">permitirGestionGlobal(actor, publicacion)</text></g><!--link PublicacionRepository to Publicacion--><g class="link" data-entity-1="ent0006" data-entity-2="ent0007" data-link-type="association" data-source-line="20" id="lnk16"><path d="M801,330.55 C801,352.12 801,388.02 801,409.7" fill="none" id="PublicacionRepository-Publicacion" style="stroke:#181818;stroke-width:1;"/></g><!--link PublicacionController to ArchivoPublicacionRepository--><g class="link" data-entity-1="ent0004" data-entity-2="ent0008" data-link-type="dependency" data-source-line="21" id="lnk17"><path d="M893.79,196.01 C946.57,209.63 1010,226 1010,226 C1010,226 1041.4935,263.4819 1062.3735,288.3319" fill="none" id="PublicacionController-to-ArchivoPublicacionRepository" style="stroke:#181818;stroke-width:1;"/><polygon fill="#181818" points="1065.59,292.16,1062.8628,282.6963,1062.3735,288.3319,1056.7378,287.8427,1065.59,292.16" style="stroke:#181818;stroke-width:1;stroke-linejoin:miter;stroke-miterlimit:10;"/><text fill="#000000" font-family="sans-serif" font-size="13" lengthAdjust="spacing" textLength="299.1841" x="1024" y="240.4951">gestionarAdjuntosOpcionales(publicacion, adjuntos)</text></g><!--link ArchivoPublicacionRepository to ArchivoPublicacion--><g class="link" data-entity-1="ent0008" data-entity-2="ent0009" data-link-type="association" data-source-line="22" id="lnk18"><path d="M1081,330.55 C1081,352.12 1081,388.02 1081,409.7" fill="none" id="ArchivoPublicacionRepository-ArchivoPublicacion" style="stroke:#181818;stroke-width:1;"/></g><!--link View to EstadoSalida--><g class="link" data-entity-1="ent0003" data-entity-2="ent0010" data-link-type="dependency" data-source-line="23" id="lnk19"><path d="M902.81,75.08 C1029.16,96.04 1271.8174,136.3115 1408.9174,159.0615" fill="none" id="View-to-EstadoSalida" style="stroke:#181818;stroke-width:1;stroke-dasharray:7,7;"/><polygon fill="#181818" points="1413.85,159.88,1405.6262,154.4607,1408.9174,159.0615,1404.3166,162.3528,1413.85,159.88" style="stroke:#181818;stroke-width:1;stroke-linejoin:miter;stroke-miterlimit:10;"/><text fill="#000000" font-family="sans-serif" font-size="13" lengthAdjust="spacing" textLength="130.7935" x="1209" y="124.4951">continuarNavegacion()</text></g><!--link PoliticaPublicacion to GMN20--><g class="link" data-entity-1="ent0005" data-entity-2="ent0021" data-link-type="association" data-source-line="26" id="lnk22"><path d="M621.34,292.39 C660.89,269.73 721.5,235 721.5,235 C721.5,235 1380.5,235 1380.5,235 C1380.5,235 1418.24,254.58 1455.55,273.92" fill="none" id="PoliticaPublicacion-GMN20" style="stroke:#181818;stroke-width:1;stroke-dasharray:7,7;"/></g><?plantuml-src dLJ1Rjim3BthAuZiaW1D3iLQh3uKS3At2B2rGRhjMj0MwsfL946ICsJ3_dsKio5EusJO31zayV7faOzoU576eSSLQ6KeRXo1itgJFeJmL4KqjIPuCtjVJFCB66IBpzCFyra-cz_VFURJUR7yb8E5Z_F7di00C40H8afRcEXHed1OlM1DG595z8kcrAh2IbcJe8E3tU5e03y4yDFHSdb-LTnSzQ2_AFhMdfaMhxFAYr9UleCEV6PPbDMQ_36irIeok9Fp6dbpdi_U5btM9JaRLBH-ytVi4KJkgsUrjlz2UfWYVlRwjxK39F4RaOjFI-jLJQPZrmDgnMw9FVDWxCVNRMypw75Af0YC9MDwczoN5BZ3bOgDF0EikBoHw4s5yJxfhXqPs3AI8PzNKQrnOVrS3fKyoNFeQWQE_8ft_Is5o1ktsfQeXwscCt0xv7y8P9A6s_aT_V0OqGxEH7i3SloqKqEIGRsj0tqklpOcsd3l4WGrXQuARlll-4YS8aooUaQiTNmokTwRcWmgLgfCW_uErrJ_6GzXR2JWINkEO9zwBzUIWhCcOAaIaOJ6S2GJsB06RY04PP9JGN5n7em2vocGuQ6QY4Nh806kd5Re-OxKckSvfQoiL4_Cv8L65cUzL6Rxqv6aeSBGteScs8aW8o7f_0K0?></g></svg>