<svg xmlns="http://www.w3.org/2000/svg" xmlns:xlink="http://www.w3.org/1999/xlink" contentStyleType="text/css" data-diagram-type="DESCRIPTION" height="595px" preserveAspectRatio="none" style="width:1656px;height:595px;background:#FFFFFF;" version="1.1" viewBox="0 0 1656 595" width="1656px" zoomAndPan="magnify"><?plantuml 1.2026.6?><defs/><g><!--cluster editarPublicacion--><g class="cluster" data-qualified-name="editarPublicacion" data-source-line="4" id="ent0002"><path d="M413.5,6 L540.5205,6 A3.75,3.75 0 0 1 543.0205,8.5 L550.0205,29.6094 L1395.5,29.6094 A2.5,2.5 0 0 1 1398,32.1094 L1398,577.5 A2.5,2.5 0 0 1 1395.5,580 L413.5,580 A2.5,2.5 0 0 1 411,577.5 L411,8.5 A2.5,2.5 0 0 1 413.5,6" fill="none" style="stroke:#000000;stroke-width:1.5;"/><line style="stroke:#000000;stroke-width:1.5;" x1="411" x2="550.0205" y1="29.6094" y2="29.6094"/><text fill="#000000" font-family="sans-serif" font-size="14" font-weight="700" lengthAdjust="spacing" textLength="126.0205" x="415" y="22.5332">editarPublicacion()</text></g><!--entity View--><g class="entity" data-qualified-name="editarPublicacion.View" data-source-line="5" id="ent0003"><rect fill="#629EF9" height="37.6094" rx="2.5" ry="2.5" style="stroke:#181818;stroke-width:0.5;" width="156.9648" x="849.5" y="42"/><text fill="#000000" font-family="sans-serif" font-size="14" lengthAdjust="spacing" textLength="136.9648" x="859.5" y="66.5332">editarPublicacionView</text></g><!--entity PublicacionController--><g class="entity" data-qualified-name="editarPublicacion.PublicacionController" data-source-line="6" id="ent0004"><rect fill="#B5BD68" height="37.6094" rx="2.5" ry="2.5" style="stroke:#181818;stroke-width:0.5;" width="152.2891" x="852" y="158"/><text fill="#000000" font-family="sans-serif" font-size="14" lengthAdjust="spacing" textLength="132.2891" x="862" y="182.5332">PublicacionController</text></g><!--entity PublicacionService--><g class="entity" data-qualified-name="editarPublicacion.PublicacionService" data-source-line="7" id="ent0005"><rect fill="#B5BD68" height="37.6094" rx="2.5" ry="2.5" style="stroke:#181818;stroke-width:0.5;" width="138.2822" x="755" y="274"/><text fill="#000000" font-family="sans-serif" font-size="14" lengthAdjust="spacing" textLength="118.2822" x="765" y="298.5332">PublicacionService</text></g><!--entity SesionService--><g class="entity" data-qualified-name="editarPublicacion.SesionService" data-source-line="8" id="ent0006"><rect fill="#B5BD68" height="37.6094" rx="2.5" ry="2.5" style="stroke:#181818;stroke-width:0.5;" width="109.4893" x="977.5" y="274"/><text fill="#000000" font-family="sans-serif" font-size="14" lengthAdjust="spacing" textLength="89.4893" x="987.5" y="298.5332">SesionService</text></g><!--entity PoliticaPublicacion--><g class="entity" data-qualified-name="editarPublicacion.PoliticaPublicacion" data-source-line="9" id="ent0007"><rect fill="#B5BD68" height="37.6094" rx="2.5" ry="2.5" style="stroke:#181818;stroke-width:0.5;" width="136.7305" x="519.5" y="408.5"/><text fill="#000000" font-family="sans-serif" font-size="14" lengthAdjust="spacing" textLength="116.7305" x="529.5" y="433.0332">PoliticaPublicacion</text></g><!--entity PublicacionRepository--><g class="entity" data-qualified-name="editarPublicacion.PublicacionRepository" data-source-line="10" id="ent0008"><rect fill="#F2AC4E" height="37.6094" rx="2.5" ry="2.5" style="stroke:#181818;stroke-width:0.5;" width="158.5166" x="721.5" y="408.5"/><text fill="#000000" font-family="sans-serif" font-size="14" lengthAdjust="spacing" textLength="138.5166" x="731.5" y="433.0332">PublicacionRepository</text></g><!--entity Publicacion--><g class="entity" data-qualified-name="editarPublicacion.Publicacion" data-source-line="11" id="ent0009"><rect fill="#F2AC4E" height="37.6094" rx="2.5" ry="2.5" style="stroke:#181818;stroke-width:0.5;" width="91.5996" x="755" y="526"/><text fill="#000000" font-family="sans-serif" font-size="14" lengthAdjust="spacing" textLength="71.5996" x="765" y="550.5332">Publicacion</text></g><!--entity ArchivoPublicacionRepository--><g class="entity" data-qualified-name="editarPublicacion.ArchivoPublicacionRepository" data-source-line="12" id="ent0010"><rect fill="#F2AC4E" height="37.6094" rx="2.5" ry="2.5" style="stroke:#181818;stroke-width:0.5;" width="205.1992" x="978.5" y="408.5"/><text fill="#000000" font-family="sans-serif" font-size="14" lengthAdjust="spacing" textLength="185.1992" x="988.5" y="433.0332">ArchivoPublicacionRepository</text></g><!--entity ArchivoPublicacion--><g class="entity" data-qualified-name="editarPublicacion.ArchivoPublicacion" data-source-line="13" id="ent0011"><rect fill="#F2AC4E" height="37.6094" rx="2.5" ry="2.5" style="stroke:#181818;stroke-width:0.5;" width="138.2822" x="1012" y="526"/><text fill="#000000" font-family="sans-serif" font-size="14" lengthAdjust="spacing" textLength="118.2822" x="1022" y="550.5332">ArchivoPublicacion</text></g><!--entity EstadoEntrada--><g class="entity" data-qualified-name="EstadoEntrada" data-source-line="3" id="ent0001"><rect fill="#CDEBA5" height="37.6094" rx="2.5" ry="2.5" style="stroke:#181818;stroke-width:0.5;" width="387.9922" x="7" y="42"/><text fill="#000000" font-family="sans-serif" font-size="14" lengthAdjust="spacing" textLength="367.9922" x="17" y="66.5332">:PUBLICACION_ABIERTA o MI_PUBLICACION_ABIERTA</text></g><!--entity EstadoSalida--><g class="entity" data-qualified-name="EstadoSalida" data-source-line="15" id="ent0012"><rect fill="#CDEBA5" height="37.6094" rx="2.5" ry="2.5" style="stroke:#181818;stroke-width:0.5;" width="194.3506" x="1414" y="158"/><text fill="#000000" font-family="sans-serif" font-size="14" lengthAdjust="spacing" textLength="174.3506" x="1424" y="182.5332">:Estado de detalle de origen</text></g><g class="entity" data-qualified-name="GMN24" data-source-line="30" id="ent0025"><path d="M1414,390 L1414,465.4063 L1641.6226,465.4063 L1641.6226,400 L1631.6226,390 L1414,390" fill="#FEFFDD" style="stroke:#181818;stroke-width:0.5;"/><path d="M1631.6226,390 L1631.6226,400 L1641.6226,400 L1631.6226,390" fill="#FEFFDD" style="stroke:#181818;stroke-width:1;"/><text fill="#000000" font-family="sans-serif" font-size="13" lengthAdjust="spacing" textLength="134.4243" x="1420" y="408.4951">Responsabilidad unica:</text><text fill="#000000" font-family="sans-serif" font-size="13" lengthAdjust="spacing" textLength="191.4707" x="1420" y="424.8467">autoriza sin persistir ni presentar.</text><text fill="#000000" font-family="sans-serif" font-size="13" lengthAdjust="spacing" textLength="206.6226" x="1420" y="441.1982">Permite ampliar reglas sin modificar</text><text fill="#000000" font-family="sans-serif" font-size="13" lengthAdjust="spacing" textLength="185.7324" x="1420" y="457.5498">la coordinacion del caso de uso.</text></g><!--link EstadoEntrada to View--><g class="link" data-entity-1="ent0001" data-entity-2="ent0003" data-link-type="dependency" data-source-line="17" id="lnk13"><path d="M395.34,61 C544.03,61 736.32,61 844.21,61" fill="none" id="EstadoEntrada-to-View" style="stroke:#181818;stroke-width:1;"/><polygon fill="#181818" points="849.21,61,840.21,57,844.21,61,840.21,65,849.21,61" style="stroke:#181818;stroke-width:1;stroke-linejoin:miter;stroke-miterlimit:10;"/><text fill="#000000" font-family="sans-serif" font-size="13" lengthAdjust="spacing" textLength="107.6626" x="568.75" y="54.4951">editarPublicacion()</text></g><!--link View to PublicacionController--><g class="link" data-entity-1="ent0003" data-entity-2="ent0004" data-link-type="dependency" data-source-line="18" id="lnk14"><path d="M928,80.06 C928,101.28 928,131.3 928,152.64" fill="none" id="View-to-PublicacionController" style="stroke:#181818;stroke-width:1;"/><polygon fill="#181818" points="928,157.64,932,148.64,928,152.64,924,148.64,928,157.64" style="stroke:#181818;stroke-width:1;stroke-linejoin:miter;stroke-miterlimit:10;"/><text fill="#000000" font-family="sans-serif" font-size="13" lengthAdjust="spacing" textLength="190.7534" x="929" y="124.4951">editarPublicacion(solicitud, actor)</text></g><!--link PublicacionController to PublicacionService--><g class="link" data-entity-1="ent0004" data-entity-2="ent0005" data-link-type="dependency" data-source-line="19" id="lnk15"><path d="M887.85,196.01 C857.49,209.63 821,226 821,226 C821,226 821,244 821,244 C821,244 821.7079,255.2698 822.5579,268.8598" fill="none" id="PublicacionController-to-PublicacionService" style="stroke:#181818;stroke-width:1;"/><polygon fill="#181818" points="822.87,273.85,826.3004,264.6179,822.5579,268.8598,818.316,265.1172,822.87,273.85" style="stroke:#181818;stroke-width:1;stroke-linejoin:miter;stroke-miterlimit:10;"/><text fill="#000000" font-family="sans-serif" font-size="13" lengthAdjust="spacing" textLength="166.1689" x="822" y="240.4951">actualizar(id, cambios, actor)</text></g><!--link PublicacionController to SesionService--><g class="link" data-entity-1="ent0004" data-entity-2="ent0006" data-link-type="dependency" data-source-line="20" id="lnk16"><path d="M952.57,196.15 C970.98,209.74 993,226 993,226 C993,226 1007.2584,250.1142 1018.7984,269.6642" fill="none" id="PublicacionController-to-SesionService" style="stroke:#181818;stroke-width:1;"/><polygon fill="#181818" points="1021.34,273.97,1020.2097,264.1862,1018.7984,269.6642,1013.3204,268.2528,1021.34,273.97" style="stroke:#181818;stroke-width:1;stroke-linejoin:miter;stroke-miterlimit:10;"/><text fill="#000000" font-family="sans-serif" font-size="13" lengthAdjust="spacing" textLength="209.5806" x="1004" y="240.4951">obtenerSesionActual(authentication)</text></g><!--link PublicacionService to PublicacionRepository--><g class="link" data-entity-1="ent0005" data-entity-2="ent0008" data-link-type="dependency" data-source-line="21" id="lnk17"><path d="M790.98,312.01 C766.01,325.63 736,342 736,342 C736,342 736,360 736,360 C736,360 760.4946,385.0647 779.7446,404.7547" fill="none" id="PublicacionService-to-PublicacionRepository" style="stroke:#181818;stroke-width:1;"/><polygon fill="#181818" points="783.24,408.33,779.8086,399.0983,779.7446,404.7547,774.0881,404.6908,783.24,408.33" style="stroke:#181818;stroke-width:1;stroke-linejoin:miter;stroke-miterlimit:10;"/><text fill="#000000" font-family="sans-serif" font-size="13" lengthAdjust="spacing" textLength="129.3398" x="737" y="356.4951">obtenerActivaPorId(id)</text></g><!--link PublicacionService to PublicacionRepository--><g class="link" data-entity-1="ent0005" data-entity-2="ent0008" data-link-type="dependency" data-source-line="23" id="lnk19"><path d="M841.77,312.15 C855.08,325.74 871,342 871,342 C871,342 871,360 871,360 C871,360 844.4745,385.1957 823.7545,404.8857" fill="none" id="PublicacionService-to-PublicacionRepository-1" style="stroke:#181818;stroke-width:1;"/><polygon fill="#181818" points="820.13,408.33,829.4095,405.0298,823.7545,404.8857,823.8986,399.2307,820.13,408.33" style="stroke:#181818;stroke-width:1;stroke-linejoin:miter;stroke-miterlimit:10;"/><text fill="#000000" font-family="sans-serif" font-size="13" lengthAdjust="spacing" textLength="129.3398" x="872" y="356.4951">actualizar(publicacion)</text></g><!--link PublicacionService to PoliticaPublicacion--><g class="link" data-entity-1="ent0005" data-entity-2="ent0007" data-link-type="dependency" data-source-line="22" id="lnk18"><path d="M754.6,304 C657,318.07 491,342 491,342 C491,342 491,360 491,360 C491,360 528.6461,385.8127 557.3661,405.5027" fill="none" id="PublicacionService-to-PoliticaPublicacion" style="stroke:#181818;stroke-width:1;"/><polygon fill="#181818" points="561.49,408.33,556.3288,399.9418,557.3661,405.5027,551.8052,406.54,561.49,408.33" style="stroke:#181818;stroke-width:1;stroke-linejoin:miter;stroke-miterlimit:10;"/><text fill="#000000" font-family="sans-serif" font-size="13" lengthAdjust="spacing" textLength="235.5425" x="492" y="356.4951">permitirGestionGlobal(actor, publicacion)</text></g><!--link PublicacionRepository to Publicacion--><g class="link" data-entity-1="ent0008" data-entity-2="ent0009" data-link-type="association" data-source-line="24" id="lnk20"><path d="M801,446.55 C801,468.12 801,504.02 801,525.7" fill="none" id="PublicacionRepository-Publicacion" style="stroke:#181818;stroke-width:1;"/></g><!--link PublicacionService to ArchivoPublicacionRepository--><g class="link" data-entity-1="ent0005" data-entity-2="ent0010" data-link-type="dependency" data-source-line="25" id="lnk21"><path d="M893.26,311.87 C946.14,325.52 1010,342 1010,342 C1010,342 1041.4935,379.4819 1062.3735,404.3319" fill="none" id="PublicacionService-to-ArchivoPublicacionRepository" style="stroke:#181818;stroke-width:1;"/><polygon fill="#181818" points="1065.59,408.16,1062.8628,398.6963,1062.3735,404.3319,1056.7378,403.8427,1065.59,408.16" style="stroke:#181818;stroke-width:1;stroke-linejoin:miter;stroke-miterlimit:10;"/><text fill="#000000" font-family="sans-serif" font-size="13" lengthAdjust="spacing" textLength="299.1841" x="1024" y="356.4951">gestionarAdjuntosOpcionales(publicacion, adjuntos)</text></g><!--link ArchivoPublicacionRepository to ArchivoPublicacion--><g class="link" data-entity-1="ent0010" data-entity-2="ent0011" data-link-type="association" data-source-line="26" id="lnk22"><path d="M1081,446.55 C1081,468.12 1081,504.02 1081,525.7" fill="none" id="ArchivoPublicacionRepository-ArchivoPublicacion" style="stroke:#181818;stroke-width:1;"/></g><!--link View to EstadoSalida--><g class="link" data-entity-1="ent0003" data-entity-2="ent0012" data-link-type="dependency" data-source-line="27" id="lnk23"><path d="M1006.63,77.37 C1113.7,98.31 1300.1229,134.7604 1413.8529,157.0004" fill="none" id="View-to-EstadoSalida" style="stroke:#181818;stroke-width:1;stroke-dasharray:7,7;"/><polygon fill="#181818" points="1418.76,157.96,1410.695,152.3071,1413.8529,157.0004,1409.1596,160.1584,1418.76,157.96" style="stroke:#181818;stroke-width:1;stroke-linejoin:miter;stroke-miterlimit:10;"/><text fill="#000000" font-family="sans-serif" font-size="13" lengthAdjust="spacing" textLength="130.7935" x="1255" y="124.4951">continuarNavegacion()</text></g><!--link PoliticaPublicacion to GMN24--><g class="link" data-entity-1="ent0007" data-entity-2="ent0025" data-link-type="association" data-source-line="30" id="lnk26"><path d="M621.34,408.39 C660.89,385.73 721.5,351 721.5,351 C721.5,351 1380.5,351 1380.5,351 C1380.5,351 1418.24,370.58 1455.55,389.92" fill="none" id="PoliticaPublicacion-GMN24" style="stroke:#181818;stroke-width:1;stroke-dasharray:7,7;"/></g><?plantuml-src bLJHRjem57ttLron5v0A3zLQhNce55XQ8MqjAjrUgvluDdWrTcGxJ7JQl-yQs0WGoXhbmR7FFJxsEJV-HPaA7Sv1AqDXMH5KLY_ZXn2EYe2cr0GVHf-pONe1dMJoRVXbF4f7u_kxftGupXuUKx3mTVpKij01z93vWD9c9ZYKA2eiNh0a8Aa2kacTQrLWeQo9qCx1RBVNWLy2-6bekJo_ocwkMj3V5VrSxHa7-rNvHIulFq43Fh8iocfDxZHsIcwX2Ze2d98_YPbOhGApDKZtaJVdwUXZrjpsWIhhLR1kUHfx196wOgOMzZsaXoNYTsiOrjw297u3yat6eNMg9DFmVefQiVLY9mdGT_thbL49jDWkuWhq9MDQ7Mihydp3XGgrF0Ci-7WzqLeA_LtIZMr9BAfPwYkwhcAE0kUvilu_o7RiJy3cWGovzMow8krY7MPael-19tV8DdNxihOk_MDaBhN0YNLZoGgFanmcBO6At9ndtItvgE1MsppAYaSxWsgBVA-qngKTOzd2cMWdiKUsUYko2PJh4w1BvO_Q1EllgmX1JRufWNtRhFV4MuHHKqlWL_aR3AvtCfn0mSuhKwExmmMLVyCgZ0q4dFjP0FlSskeFv2jhFEOg4ace3QyaWdF1_VAAu9M97dd5XtDW55IEF2S6tK1CLjuHuBpI2XrtRAcvksB9t4hrp4nEQ6HnrabbrlzJIPeZx5VTMNix46GaH9r_0000?></g></svg>