<svg xmlns="http://www.w3.org/2000/svg" xmlns:xlink="http://www.w3.org/1999/xlink" contentStyleType="text/css" data-diagram-type="STATE" height="860px" preserveAspectRatio="none" style="width:933px;height:860px;background:#FFFFFF;" version="1.1" viewBox="0 0 933 860" width="933px" zoomAndPan="magnify"><?plantuml 1.2026.6?><defs/><g><g class="entity" data-qualified-name="in1" data-source-line="3" id="ent0001"><rect fill="#F1F1F1" height="50" rx="12.5" ry="12.5" style="stroke:#181818;stroke-width:0.5;" width="300.8545" x="312" y="7"/><line style="stroke:#181818;stroke-width:0.5;" x1="312" x2="612.8545" y1="34.6094" y2="34.6094"/><text fill="#000000" font-family="sans-serif" font-size="14" lengthAdjust="spacing" textLength="280.8545" x="322" y="26.5332">OPCIONES_CARGA_TRABAJO_ABIERTAS</text></g><g class="entity" data-qualified-name="editarCargaTrabajo" data-source-line="6" id="ent0002"><path d="M19.5,118 L905.5,118 A12.5,12.5 0 0 1 918,130.5 L918,145.6094 L7,145.6094 L7,130.5 A12.5,12.5 0 0 1 19.5,118" fill="#F1F1F1"/><rect fill="none" height="581.6094" rx="12.5" ry="12.5" style="stroke:#181818;stroke-width:0.5;" width="911" x="7" y="118"/><line style="stroke:#181818;stroke-width:0.5;" x1="7" x2="918" y1="145.6094" y2="145.6094"/><text fill="#000000" font-family="sans-serif" font-size="14" lengthAdjust="spacing" textLength="129.9443" x="397.5278" y="137.5332">editarCargaTrabajo()</text><g class="entity" data-qualified-name="editarCargaTrabajo.MostrandoCarga" data-source-line="8" id="ent0003"><rect fill="#F1F1F1" height="50" rx="12.5" ry="12.5" style="stroke:#181818;stroke-width:0.5;" width="50" x="288" y="248.6094"/><line style="stroke:#181818;stroke-width:0.5;" x1="288" x2="338" y1="276.2188" y2="276.2188"/><text fill="#000000" font-family="sans-serif" font-size="14" lengthAdjust="spacing" textLength="3.8896" x="311.0552" y="268.1426">&#160;</text></g><g class="entity" data-qualified-name="editarCargaTrabajo.EditandoCarga" data-source-line="9" id="ent0004"><rect fill="#F1F1F1" height="50" rx="12.5" ry="12.5" style="stroke:#181818;stroke-width:0.5;" width="50" x="288" y="386.6094"/><line style="stroke:#181818;stroke-width:0.5;" x1="288" x2="338" y1="414.2188" y2="414.2188"/><text fill="#000000" font-family="sans-serif" font-size="14" lengthAdjust="spacing" textLength="3.8896" x="311.0552" y="406.1426">&#160;</text></g><g class="entity" data-qualified-name="editarCargaTrabajo.ValidandoDatos" data-source-line="10" id="ent0005"><rect fill="#F1F1F1" height="50" rx="12.5" ry="12.5" style="stroke:#181818;stroke-width:0.5;" width="50" x="159" y="525.6094"/><line style="stroke:#181818;stroke-width:0.5;" x1="159" x2="209" y1="553.2188" y2="553.2188"/><text fill="#000000" font-family="sans-serif" font-size="14" lengthAdjust="spacing" textLength="3.8896" x="182.0552" y="545.1426">&#160;</text></g><g class="start_entity" data-qualified-name="editarCargaTrabajo..start.editarCargaTrabajo" data-source-line="12" id="ent0007"><ellipse cx="313" cy="166.6094" fill="#222222" rx="10" ry="10" style="stroke:#222222;stroke-width:1;"/></g><g class="end_entity" data-qualified-name="editarCargaTrabajo..end.editarCargaTrabajo" data-source-line="28" id="ent0011"><ellipse cx="390" cy="675.6094" fill="none" rx="11" ry="11" style="stroke:#222222;stroke-width:1;"/><ellipse cx="390" cy="675.6094" fill="#222222" rx="6" ry="6" style="stroke:#222222;stroke-width:1;"/></g><!--link *start*editarCargaTrabajo to MostrandoCarga--><g class="link" data-entity-1="ent0007" data-entity-2="ent0003" data-link-type="dependency" data-source-line="12" id="lnk8"><path d="M313,176.9294 C313,192.7894 313,220.5194 313,243.2494" fill="none" id="*start*editarCargaTrabajo-to-MostrandoCarga" style="stroke:#008000;stroke-width:1;"/><polygon fill="#008000" points="313,248.2494,317,239.2494,313,243.2494,309,239.2494,313,248.2494" style="stroke:#008000;stroke-width:1;stroke-linejoin:miter;stroke-miterlimit:10;"/><path d="M318,199.6094 L318,225.6094 L701,225.6094 L701,209.6094 L691,199.6094 L318,199.6094" fill="#FEFFDD" style="stroke:#181818;stroke-width:0.5;"/><path d="M691,199.6094 L691,209.6094 L701,209.6094 L691,199.6094" fill="#FEFFDD" style="stroke:#181818;stroke-width:0.5;"/><text fill="#000000" font-family="sans-serif" font-size="13" font-weight="700" lengthAdjust="spacing" textLength="77.9937" x="324" y="218.1045">Coordinador</text><text fill="#000000" font-family="sans-serif" font-size="13" lengthAdjust="spacing" textLength="281.125" x="405.6055" y="218.1045">solicita editar la carga de trabajo de una persona</text></g><!--link MostrandoCarga to EditandoCarga--><g class="link" data-entity-1="ent0003" data-entity-2="ent0004" data-link-type="dependency" data-source-line="17" id="lnk9"><path d="M313,298.6094 C313,323.3194 313,356.6094 313,381.3894" fill="none" id="MostrandoCarga-to-EditandoCarga" style="stroke:#008000;stroke-width:1;"/><polygon fill="#008000" points="313,386.3894,317,377.3894,313,381.3894,309,377.3894,313,386.3894" style="stroke:#008000;stroke-width:1;stroke-linejoin:miter;stroke-miterlimit:10;"/><path d="M318,321.6094 L318,363.6094 L592,363.6094 L592,331.6094 L582,321.6094 L318,321.6094" fill="#FEFFDD" style="stroke:#181818;stroke-width:0.5;"/><path d="M582,321.6094 L582,331.6094 L592,331.6094 L582,321.6094" fill="#FEFFDD" style="stroke:#181818;stroke-width:0.5;"/><text fill="#000000" font-family="sans-serif" font-size="13" font-weight="700" lengthAdjust="spacing" textLength="49.8608" x="324" y="340.1045">Sistema</text><text fill="#000000" font-family="sans-serif" font-size="13" lengthAdjust="spacing" textLength="200.186" x="377.4727" y="340.1045">presenta la carga de trabajo actual</text><text fill="#000000" font-family="sans-serif" font-size="13" font-weight="700" lengthAdjust="spacing" textLength="49.8608" x="324" y="356.4561">Sistema</text><text fill="#000000" font-family="sans-serif" font-size="13" lengthAdjust="spacing" textLength="190.0234" x="377.4727" y="356.4561">permite introducir modificaciones</text></g><!--link EditandoCarga to ValidandoDatos--><g class="link" data-entity-1="ent0004" data-entity-2="ent0005" data-link-type="dependency" data-source-line="23" id="lnk10"><path d="M287.85,416.1894 C216.51,426.3494 18,454.6094 18,454.6094 C18,454.6094 18,506.6094 18,506.6094 C18,506.6094 107.5098,529.7955 153.9498,541.8255" fill="none" id="EditandoCarga-to-ValidandoDatos" style="stroke:#008000;stroke-width:1;"/><polygon fill="#008000" points="158.79,543.0794,151.0806,536.9503,153.9498,541.8255,149.0745,544.6947,158.79,543.0794" style="stroke:#008000;stroke-width:1;stroke-linejoin:miter;stroke-miterlimit:10;"/><path d="M23,467.6094 L23,493.6094 L286,493.6094 L286,477.6094 L276,467.6094 L23,467.6094" fill="#FEFFDD" style="stroke:#181818;stroke-width:0.5;"/><path d="M276,467.6094 L276,477.6094 L286,477.6094 L276,467.6094" fill="#FEFFDD" style="stroke:#181818;stroke-width:0.5;"/><text fill="#000000" font-family="sans-serif" font-size="13" font-weight="700" lengthAdjust="spacing" textLength="77.9937" x="29" y="486.1045">Coordinador</text><text fill="#000000" font-family="sans-serif" font-size="13" lengthAdjust="spacing" textLength="160.4053" x="110.6055" y="486.1045">solicita guardar los cambios</text></g><!--link ValidandoDatos to *end*editarCargaTrabajo--><g class="link" data-entity-1="ent0005" data-entity-2="ent0011" data-link-type="dependency" data-source-line="28" id="lnk12"><path d="M184.26,576.0694 C184.55,604.2194 185,646.6094 185,646.6094 C185,646.6094 332.136,666.7029 374.316,672.4629" fill="none" id="ValidandoDatos-to-*end*editarCargaTrabajo" style="stroke:#008000;stroke-width:1;"/><polygon fill="#008000" points="379.27,673.1394,370.894,667.9584,374.316,672.4629,369.8116,675.8849,379.27,673.1394" style="stroke:#008000;stroke-width:1;stroke-linejoin:miter;stroke-miterlimit:10;"/><path d="M190,599.6094 L190,641.6094 L577,641.6094 L577,609.6094 L567,599.6094 L190,599.6094" fill="#FEFFDD" style="stroke:#181818;stroke-width:0.5;"/><path d="M567,599.6094 L567,609.6094 L577,609.6094 L567,599.6094" fill="#FEFFDD" style="stroke:#181818;stroke-width:0.5;"/><text fill="#000000" font-family="sans-serif" font-size="13" font-weight="700" lengthAdjust="spacing" textLength="49.8608" x="196" y="618.1045">Sistema</text><text fill="#000000" font-family="sans-serif" font-size="13" lengthAdjust="spacing" textLength="312.8887" x="249.4727" y="618.1045">permite solicitar la actualizaci&#243;n de la carga de trabajo</text><text fill="#000000" font-family="sans-serif" font-size="13" font-weight="700" lengthAdjust="spacing" textLength="49.8608" x="196" y="634.4561">Sistema</text><text fill="#000000" font-family="sans-serif" font-size="13" lengthAdjust="spacing" textLength="231.2642" x="249.4727" y="634.4561">presenta la carga de trabajo actualizada</text></g><!--link ValidandoDatos to EditandoCarga--><g class="link" data-entity-1="ent0005" data-entity-2="ent0004" data-link-type="dependency" data-source-line="34" id="lnk13"><path d="M209.09,539.5294 C240.71,526.8194 291,506.6094 291,506.6094 C291,506.6094 299.6819,469.5381 306.1919,441.6881" fill="none" id="ValidandoDatos-to-EditandoCarga" style="stroke:#FF0000;stroke-width:1;"/><polygon fill="#FF0000" points="307.33,436.8194,301.3864,444.6727,306.1919,441.6881,309.1765,446.4936,307.33,436.8194" style="stroke:#FF0000;stroke-width:1;stroke-linejoin:miter;stroke-miterlimit:10;"/><path d="M308,459.6094 L308,501.6094 L566,501.6094 L566,469.6094 L556,459.6094 L308,459.6094" fill="#FEFFDD" style="stroke:#181818;stroke-width:0.5;"/><path d="M556,459.6094 L556,469.6094 L566,469.6094 L556,459.6094" fill="#FEFFDD" style="stroke:#181818;stroke-width:0.5;"/><text fill="#000000" font-family="sans-serif" font-size="13" font-weight="700" lengthAdjust="spacing" textLength="49.8608" x="314" y="478.1045">Sistema</text><text fill="#000000" font-family="sans-serif" font-size="13" lengthAdjust="spacing" textLength="183.5298" x="367.4727" y="478.1045">muestra errores de introducci&#243;n</text><text fill="#000000" font-family="sans-serif" font-size="13" font-weight="700" lengthAdjust="spacing" textLength="49.8608" x="314" y="494.4561">Sistema</text><text fill="#000000" font-family="sans-serif" font-size="13" lengthAdjust="spacing" textLength="177.7344" x="367.4727" y="494.4561">permite introducir correcciones</text></g><!--link EditandoCarga to *end*editarCargaTrabajo--><g class="link" data-entity-1="ent0004" data-entity-2="ent0011" data-link-type="dependency" data-source-line="40" id="lnk14"><path d="M338.12,416.6394 C403.7,427.1494 575,454.6094 575,454.6094 C575,454.6094 582,594.6094 582,594.6094 C582,594.6094 582,646.6094 582,646.6094 C582,646.6094 446.4377,666.3783 405.8177,672.2983" fill="none" id="EditandoCarga-to-*end*editarCargaTrabajo" style="stroke:#FF0000;stroke-width:1;"/><polygon fill="#FF0000" points="400.87,673.0194,410.3528,675.6796,405.8177,672.2983,409.199,667.7632,400.87,673.0194" style="stroke:#FF0000;stroke-width:1;stroke-linejoin:miter;stroke-miterlimit:10;"/><path d="M586,529.6094 L586,571.6094 L894,571.6094 L894,539.6094 L884,529.6094 L586,529.6094" fill="#FEFFDD" style="stroke:#181818;stroke-width:0.5;"/><path d="M884,529.6094 L884,539.6094 L894,539.6094 L884,529.6094" fill="#FEFFDD" style="stroke:#181818;stroke-width:0.5;"/><text fill="#000000" font-family="sans-serif" font-size="13" font-weight="700" lengthAdjust="spacing" textLength="77.9937" x="592" y="548.1045">Coordinador</text><text fill="#000000" font-family="sans-serif" font-size="13" lengthAdjust="spacing" textLength="151.0234" x="673.6055" y="548.1045">solicita cancelar la edici&#243;n</text><text fill="#000000" font-family="sans-serif" font-size="13" font-weight="700" lengthAdjust="spacing" textLength="49.8608" x="592" y="564.4561">Sistema</text><text fill="#000000" font-family="sans-serif" font-size="13" lengthAdjust="spacing" textLength="234.1333" x="645.4727" y="564.4561">presenta la carga de trabajo sin cambios</text></g></g><g class="entity" data-qualified-name="OPCIONES_CARGA_TRABAJO_ABIERTAS" data-source-line="47" id="ent0015"><rect fill="#F1F1F1" height="50" rx="12.5" ry="12.5" style="stroke:#181818;stroke-width:0.5;" width="300.8545" x="167" y="796"/><line style="stroke:#181818;stroke-width:0.5;" x1="167" x2="467.8545" y1="823.6094" y2="823.6094"/><text fill="#000000" font-family="sans-serif" font-size="14" lengthAdjust="spacing" textLength="280.8545" x="177" y="815.5332">OPCIONES_CARGA_TRABAJO_ABIERTAS</text></g><g class="entity" data-qualified-name="PANEL_PRINCIPAL_ABIERTO" data-source-line="57" id="ent0018"><rect fill="#F1F1F1" height="50" rx="12.5" ry="12.5" style="stroke:#181818;stroke-width:0.5;" width="216.8477" x="530" y="796"/><line style="stroke:#181818;stroke-width:0.5;" x1="530" x2="746.8477" y1="823.6094" y2="823.6094"/><text fill="#000000" font-family="sans-serif" font-size="14" lengthAdjust="spacing" textLength="196.8477" x="540" y="815.5332">PANEL_PRINCIPAL_ABIERTO</text></g><!--link in1 to editarCargaTrabajo--><g class="link" data-entity-1="ent0001" data-entity-2="ent0002" data-link-type="dependency" data-source-line="4" id="lnk6"><path d="M462.5,57.03 C462.5,72.06 462.5,88.21 462.5,112.77" fill="none" id="in1-to-editarCargaTrabajo" style="stroke:#008000;stroke-width:1;"/><polygon fill="#008000" points="462.5,117.77,466.5,108.77,462.5,112.77,458.5,108.77,462.5,117.77" style="stroke:#008000;stroke-width:1;stroke-linejoin:miter;stroke-miterlimit:10;"/></g><!--link editarCargaTrabajo to OPCIONES_CARGA_TRABAJO_ABIERTAS--><g class="link" data-entity-1="ent0002" data-entity-2="ent0015" data-link-type="dependency" data-source-line="47" id="lnk16"><path d="M303.81,700.18 C293.72,718.63 287.5,730 287.5,730 C287.5,730 287.5,766 287.5,766 C287.5,766 293.6602,777.1001 301.6502,791.4701" fill="none" id="editarCargaTrabajo-to-OPCIONES_CARGA_TRABAJO_ABIERTAS" style="stroke:#008000;stroke-width:1;"/><polygon fill="#008000" points="304.08,795.84,303.2024,786.0303,301.6502,791.4701,296.2105,789.9179,304.08,795.84" style="stroke:#008000;stroke-width:1;stroke-linejoin:miter;stroke-miterlimit:10;"/><path d="M292.5,735 L292.5,761 L414.5,761 L414.5,745 L404.5,735 L292.5,735" fill="#FEFFDD" style="stroke:#181818;stroke-width:0.5;"/><path d="M404.5,735 L404.5,745 L414.5,745 L404.5,735" fill="#FEFFDD" style="stroke:#181818;stroke-width:0.5;"/><text fill="#000000" font-family="sans-serif" font-size="13" lengthAdjust="spacing" textLength="101.1753" x="298.5" y="753.4951">Edici&#243;n finalizada</text></g><!--link editarCargaTrabajo to OPCIONES_CARGA_TRABAJO_ABIERTAS--><g class="link" data-entity-1="ent0002" data-entity-2="ent0015" data-link-type="dependency" data-source-line="52" id="lnk17"><path d="M430.7,700.29 C426.44,739.19 423.5,766 423.5,766 C423.5,766 397.5956,779.2012 369.3756,793.5712" fill="none" id="editarCargaTrabajo-to-OPCIONES_CARGA_TRABAJO_ABIERTAS-1" style="stroke:#FF0000;stroke-width:1;"/><polygon fill="#FF0000" points="364.92,795.84,374.7551,795.3205,369.3756,793.5712,371.125,788.1916,364.92,795.84" style="stroke:#FF0000;stroke-width:1;stroke-linejoin:miter;stroke-miterlimit:10;"/><path d="M431.5,735 L431.5,761 L557.5,761 L557.5,745 L547.5,735 L431.5,735" fill="#FEFFDD" style="stroke:#181818;stroke-width:0.5;"/><path d="M547.5,735 L547.5,745 L557.5,745 L547.5,735" fill="#FEFFDD" style="stroke:#181818;stroke-width:0.5;"/><text fill="#000000" font-family="sans-serif" font-size="13" lengthAdjust="spacing" textLength="105.5171" x="437.5" y="753.4951">Edici&#243;n cancelada</text></g><!--link editarCargaTrabajo to PANEL_PRINCIPAL_ABIERTO--><g class="link" data-entity-1="ent0002" data-entity-2="ent0018" data-link-type="dependency" data-source-line="57" id="lnk19"><path d="M587,700.03 C603.97,739.55 616.7576,769.3555 626.0776,791.0655" fill="none" id="editarCargaTrabajo-to-PANEL_PRINCIPAL_ABIERTO" style="stroke:#008000;stroke-width:1;"/><polygon fill="#008000" points="628.05,795.66,628.1753,785.8119,626.0776,791.0655,620.8241,788.9678,628.05,795.66" style="stroke:#008000;stroke-width:1;stroke-linejoin:miter;stroke-miterlimit:10;"/><path d="M617.5,735 L617.5,761 L755.5,761 L755.5,745 L745.5,735 L617.5,735" fill="#FEFFDD" style="stroke:#181818;stroke-width:0.5;"/><path d="M745.5,735 L745.5,745 L755.5,745 L745.5,735" fill="#FEFFDD" style="stroke:#181818;stroke-width:0.5;"/><text fill="#000000" font-family="sans-serif" font-size="13" lengthAdjust="spacing" textLength="117.7681" x="623.5" y="753.4951">abrirPanelPrincipal()</text></g><?plantuml-src dLHVRvim47_dKrZPIpkfclPUHQ8CJPcw12NHNgegEknhv1Lyw6mUkccVQXzXNsmsa7OiJiS2B-2pV__km3vgqm13BIfjq3qrA1ggdi9BabW73eKsxmLOCLiLsMArp3UxB5r_J7VRTNgJVbhjqfj5ljwccraIDbxTlTapehc_cWjKsW5dm7lOCfJmbGwGnvMEuNZvud8clYU9y5T_SkPll_KpMSTW57MRZ-jvG3fT_WALLg7-0HpP7l_kxVr8VOJ2a8SW4w9wx1Qkotb6n4eRKCJNxygvi5HfwSa7Zw828GE0K2ZSuDK_jWP4Wsp9zD1eL0VVQnbpZsGTEukfscZhi8PEKSDeqNX5CIaWNGjLz1XohRlsEoRLIisY9gKVj0IfoQ2Dw1w96yd-A_7_JdFV0giG9rbleYurnVZ7B2C1lhtJqXfi7vYx3lOfwM_U-Q-V9kGNoVBCx3sgWabU6DLv4r2t6EP983DvGK73eQkTeOdjbyICSdhp1xsl9N-otnACnAfFttz9fsM-5h3L9ZuiFv8ayWlwSrp-yRDBHcRoGQ1uy5Q6Xhva4sSQmZcFPqXd0ispeI9TvhUxOhrOPeiYlHqOLcC2A5bp0GQhWhMHke7gulA5upS0?></g></svg>