<svg xmlns="http://www.w3.org/2000/svg" xmlns:xlink="http://www.w3.org/1999/xlink" contentStyleType="text/css" data-diagram-type="SEQUENCE" height="1240px" preserveAspectRatio="none" style="width:1452px;height:1240px;background:#FFFFFF;" version="1.1" viewBox="0 0 1452 1240" width="1452px" zoomAndPan="magnify"><title>Diagrama de secuencia - Iniciar sesi&#243;n</title><defs/><g><text fill="#000000" font-family="sans-serif" font-size="14" font-weight="bold" lengthAdjust="spacing" textLength="257.5576" x="598.5195" y="29.5332">Diagrama de secuencia - Iniciar sesi&#243;n</text><g><title>LoginPage</title><rect fill="#FFFFFF" height="958.7891" style="stroke:#181818;stroke-width:1;" width="10" x="299.3828" y="189.9219"/></g><g><title>AuthController</title><rect fill="#FFFFFF" height="107.4063" style="stroke:#181818;stroke-width:1;" width="10" x="518.438" y="280.9766"/></g><g><title>AuthController</title><rect fill="#FFFFFF" height="390.9219" style="stroke:#181818;stroke-width:1;" width="10" x="518.438" y="435.0859"/></g><g><title>AuthController</title><rect fill="#FFFFFF" height="107.4063" style="stroke:#181818;stroke-width:1;" width="10" x="518.438" y="872.7109"/></g><g><title>Spring Security</title><rect fill="#FFFFFF" height="30.3516" style="stroke:#181818;stroke-width:1;" width="10" x="728.7568" y="311.3281"/></g><g><title>Spring Security</title><rect fill="#FFFFFF" height="30.3516" style="stroke:#181818;stroke-width:1;" width="10" x="728.7568" y="903.0625"/></g><g><title>AuthService</title><rect fill="#FFFFFF" height="220.4609" style="stroke:#181818;stroke-width:1;" width="10" x="837.9634" y="465.4375"/></g><g><title>UsuarioRepository</title><rect fill="#FFFFFF" height="91.0547" style="stroke:#181818;stroke-width:1;" width="10" x="1150.1558" y="495.7891"/></g><g><title>PostgreSQL</title><rect fill="#FFFFFF" height="30.3516" style="stroke:#181818;stroke-width:1;" width="10" x="1275.9766" y="526.1406"/></g><g><title>SesionService</title><rect fill="#FFFFFF" height="30.3516" style="stroke:#181818;stroke-width:1;" width="10" x="1378.8521" y="716.25"/></g><rect fill="none" height="496.5156" style="stroke:#000000;stroke-width:1.5;" width="1435.5967" x="10" y="645.1953"/><g><title>Coordinador</title><rect fill="#000000" fill-opacity="0.00000" height="1037.4922" width="8" x="57.5239" y="121.2188"/><line style="stroke:#181818;stroke-width:0.5;stroke-dasharray:5,5;" x1="61" x2="61" y1="121.2188" y2="1158.7109"/></g><g><title>LoginPage</title><rect fill="#000000" fill-opacity="0.00000" height="1037.4922" width="8" x="300.3828" y="121.2188"/><line style="stroke:#181818;stroke-width:0.5;stroke-dasharray:5,5;" x1="303.9072" x2="303.9072" y1="121.2188" y2="1158.7109"/></g><g><title>AuthController</title><rect fill="#000000" fill-opacity="0.00000" height="1037.4922" width="8" x="519.438" y="121.2188"/><line style="stroke:#181818;stroke-width:0.5;stroke-dasharray:5,5;" x1="522.6934" x2="522.6934" y1="121.2188" y2="1158.7109"/></g><g><title>Spring Security</title><rect fill="#000000" fill-opacity="0.00000" height="1037.4922" width="8" x="729.7568" y="121.2188"/><line style="stroke:#181818;stroke-width:0.5;stroke-dasharray:5,5;" x1="733.2915" x2="733.2915" y1="121.2188" y2="1158.7109"/></g><g><title>AuthService</title><rect fill="#000000" fill-opacity="0.00000" height="1037.4922" width="8" x="838.9634" y="121.2188"/><line style="stroke:#181818;stroke-width:0.5;stroke-dasharray:5,5;" x1="842.2222" x2="842.2222" y1="121.2188" y2="1158.7109"/></g><g><title>UsuarioRepository</title><rect fill="#000000" fill-opacity="0.00000" height="1037.4922" width="8" x="1151.1558" y="121.2188"/><line style="stroke:#181818;stroke-width:0.5;stroke-dasharray:5,5;" x1="1154.5767" x2="1154.5767" y1="121.2188" y2="1158.7109"/></g><g><title>PostgreSQL</title><rect fill="#000000" fill-opacity="0.00000" height="1037.4922" width="8" x="1276.9766" y="121.2188"/><line style="stroke:#181818;stroke-width:0.5;stroke-dasharray:5,5;" x1="1280.8457" x2="1280.8457" y1="121.2188" y2="1158.7109"/></g><g><title>SesionService</title><rect fill="#000000" fill-opacity="0.00000" height="1037.4922" width="8" x="1379.8521" y="121.2188"/><line style="stroke:#181818;stroke-width:0.5;stroke-dasharray:5,5;" x1="1383.1074" x2="1383.1074" y1="121.2188" y2="1158.7109"/></g><g class="participant participant-head" data-participant="Coordinador"><text fill="#000000" font-family="sans-serif" font-size="14" lengthAdjust="spacing" textLength="77.0479" x="20" y="118.1426">Coordinador</text><ellipse cx="61.5239" cy="52.1094" fill="#E2E2F0" rx="8" ry="8" style="stroke:#181818;stroke-width:0.5;"/><path d="M61.5239,60.1094 L61.5239,87.1094 M48.5239,68.1094 L74.5239,68.1094 M61.5239,87.1094 L48.5239,102.1094 M61.5239,87.1094 L74.5239,102.1094" fill="none" style="stroke:#181818;stroke-width:0.5;"/></g><g class="participant participant-tail" data-participant="Coordinador"><text fill="#000000" font-family="sans-serif" font-size="14" lengthAdjust="spacing" textLength="77.0479" x="20" y="1172.2441">Coordinador</text><ellipse cx="61.5239" cy="1183.8203" fill="#E2E2F0" rx="8" ry="8" style="stroke:#181818;stroke-width:0.5;"/><path d="M61.5239,1191.8203 L61.5239,1218.8203 M48.5239,1199.8203 L74.5239,1199.8203 M61.5239,1218.8203 L48.5239,1233.8203 M61.5239,1218.8203 L74.5239,1233.8203" fill="none" style="stroke:#181818;stroke-width:0.5;"/></g><g class="participant participant-head" data-participant="Frontend"><rect fill="#E2E2F0" height="49.2188" rx="2.5" ry="2.5" style="stroke:#181818;stroke-width:0.5;" width="80.9512" x="263.9072" y="71"/><text fill="#000000" font-family="sans-serif" font-size="14" lengthAdjust="spacing" textLength="66.9512" x="270.9072" y="92.5332">LoginPage</text><text fill="#000000" font-family="sans-serif" font-size="14" lengthAdjust="spacing" textLength="45.8965" x="281.4346" y="110.1426">(React)</text></g><g class="participant participant-tail" data-participant="Frontend"><rect fill="#E2E2F0" height="49.2188" rx="2.5" ry="2.5" style="stroke:#181818;stroke-width:0.5;" width="80.9512" x="263.9072" y="1157.7109"/><text fill="#000000" font-family="sans-serif" font-size="14" lengthAdjust="spacing" textLength="66.9512" x="270.9072" y="1179.2441">LoginPage</text><text fill="#000000" font-family="sans-serif" font-size="14" lengthAdjust="spacing" textLength="45.8965" x="281.4346" y="1196.8535">(React)</text></g><g class="participant participant-head" data-participant="Api"><rect fill="#E2E2F0" height="49.2188" rx="2.5" ry="2.5" style="stroke:#181818;stroke-width:0.5;" width="103.4893" x="471.6934" y="71"/><text fill="#000000" font-family="sans-serif" font-size="14" lengthAdjust="spacing" textLength="89.4893" x="478.6934" y="92.5332">AuthController</text><text fill="#000000" font-family="sans-serif" font-size="14" lengthAdjust="spacing" textLength="82.4824" x="482.1968" y="110.1426">(Spring Boot)</text></g><g class="participant participant-tail" data-participant="Api"><rect fill="#E2E2F0" height="49.2188" rx="2.5" ry="2.5" style="stroke:#181818;stroke-width:0.5;" width="103.4893" x="471.6934" y="1157.7109"/><text fill="#000000" font-family="sans-serif" font-size="14" lengthAdjust="spacing" textLength="89.4893" x="478.6934" y="1179.2441">AuthController</text><text fill="#000000" font-family="sans-serif" font-size="14" lengthAdjust="spacing" textLength="82.4824" x="482.1968" y="1196.8535">(Spring Boot)</text></g><g class="participant participant-head" data-participant="Security"><rect fill="#E2E2F0" height="31.6094" rx="2.5" ry="2.5" style="stroke:#181818;stroke-width:0.5;" width="108.9307" x="679.2915" y="88.6094"/><text fill="#000000" font-family="sans-serif" font-size="14" lengthAdjust="spacing" textLength="94.9307" x="686.2915" y="110.1426">Spring Security</text></g><g class="participant participant-tail" data-participant="Security"><rect fill="#E2E2F0" height="31.6094" rx="2.5" ry="2.5" style="stroke:#181818;stroke-width:0.5;" width="108.9307" x="679.2915" y="1157.7109"/><text fill="#000000" font-family="sans-serif" font-size="14" lengthAdjust="spacing" textLength="94.9307" x="686.2915" y="1179.2441">Spring Security</text></g><g class="participant participant-head" data-participant="Auth"><rect fill="#E2E2F0" height="31.6094" rx="2.5" ry="2.5" style="stroke:#181818;stroke-width:0.5;" width="89.4824" x="798.2222" y="88.6094"/><text fill="#000000" font-family="sans-serif" font-size="14" lengthAdjust="spacing" textLength="75.4824" x="805.2222" y="110.1426">AuthService</text></g><g class="participant participant-tail" data-participant="Auth"><rect fill="#E2E2F0" height="31.6094" rx="2.5" ry="2.5" style="stroke:#181818;stroke-width:0.5;" width="89.4824" x="798.2222" y="1157.7109"/><text fill="#000000" font-family="sans-serif" font-size="14" lengthAdjust="spacing" textLength="75.4824" x="805.2222" y="1179.2441">AuthService</text></g><g class="participant participant-head" data-participant="Repo"><rect fill="#E2E2F0" height="31.6094" rx="2.5" ry="2.5" style="stroke:#181818;stroke-width:0.5;" width="129.1582" x="1090.5767" y="88.6094"/><text fill="#000000" font-family="sans-serif" font-size="14" lengthAdjust="spacing" textLength="115.1582" x="1097.5767" y="110.1426">UsuarioRepository</text></g><g class="participant participant-tail" data-participant="Repo"><rect fill="#E2E2F0" height="31.6094" rx="2.5" ry="2.5" style="stroke:#181818;stroke-width:0.5;" width="129.1582" x="1090.5767" y="1157.7109"/><text fill="#000000" font-family="sans-serif" font-size="14" lengthAdjust="spacing" textLength="115.1582" x="1097.5767" y="1179.2441">UsuarioRepository</text></g><g class="participant participant-head" data-participant="Database"><text fill="#000000" font-family="sans-serif" font-size="14" lengthAdjust="spacing" textLength="76.2617" x="1239.8457" y="118.1426">PostgreSQL</text><path d="M1262.9766,67.6094 C1262.9766,57.6094 1280.9766,57.6094 1280.9766,57.6094 C1280.9766,57.6094 1298.9766,57.6094 1298.9766,67.6094 L1298.9766,93.6094 C1298.9766,103.6094 1280.9766,103.6094 1280.9766,103.6094 C1280.9766,103.6094 1262.9766,103.6094 1262.9766,93.6094 L1262.9766,67.6094" fill="#E2E2F0" style="stroke:#181818;stroke-width:0.5;"/><path d="M1262.9766,67.6094 C1262.9766,77.6094 1280.9766,77.6094 1280.9766,77.6094 C1280.9766,77.6094 1298.9766,77.6094 1298.9766,67.6094" fill="none" style="stroke:#181818;stroke-width:0.5;"/></g><g class="participant participant-tail" data-participant="Database"><text fill="#000000" font-family="sans-serif" font-size="14" lengthAdjust="spacing" textLength="76.2617" x="1239.8457" y="1172.2441">PostgreSQL</text><path d="M1262.9766,1185.3203 C1262.9766,1175.3203 1280.9766,1175.3203 1280.9766,1175.3203 C1280.9766,1175.3203 1298.9766,1175.3203 1298.9766,1185.3203 L1298.9766,1211.3203 C1298.9766,1221.3203 1280.9766,1221.3203 1280.9766,1221.3203 C1280.9766,1221.3203 1262.9766,1221.3203 1262.9766,1211.3203 L1262.9766,1185.3203" fill="#E2E2F0" style="stroke:#181818;stroke-width:0.5;"/><path d="M1262.9766,1185.3203 C1262.9766,1195.3203 1280.9766,1195.3203 1280.9766,1195.3203 C1280.9766,1195.3203 1298.9766,1195.3203 1298.9766,1185.3203" fill="none" style="stroke:#181818;stroke-width:0.5;"/></g><g class="participant participant-head" data-participant="Sesion"><rect fill="#E2E2F0" height="31.6094" rx="2.5" ry="2.5" style="stroke:#181818;stroke-width:0.5;" width="103.4893" x="1332.1074" y="88.6094"/><text fill="#000000" font-family="sans-serif" font-size="14" lengthAdjust="spacing" textLength="89.4893" x="1339.1074" y="110.1426">SesionService</text></g><g class="participant participant-tail" data-participant="Sesion"><rect fill="#E2E2F0" height="31.6094" rx="2.5" ry="2.5" style="stroke:#181818;stroke-width:0.5;" width="103.4893" x="1332.1074" y="1157.7109"/><text fill="#000000" font-family="sans-serif" font-size="14" lengthAdjust="spacing" textLength="89.4893" x="1339.1074" y="1179.2441">SesionService</text></g><g><title>LoginPage</title><rect fill="#FFFFFF" height="958.7891" style="stroke:#181818;stroke-width:1;" width="10" x="299.3828" y="189.9219"/></g><g><title>AuthController</title><rect fill="#FFFFFF" height="107.4063" style="stroke:#181818;stroke-width:1;" width="10" x="518.438" y="280.9766"/></g><g><title>AuthController</title><rect fill="#FFFFFF" height="390.9219" style="stroke:#181818;stroke-width:1;" width="10" x="518.438" y="435.0859"/></g><g><title>AuthController</title><rect fill="#FFFFFF" height="107.4063" style="stroke:#181818;stroke-width:1;" width="10" x="518.438" y="872.7109"/></g><g><title>Spring Security</title><rect fill="#FFFFFF" height="30.3516" style="stroke:#181818;stroke-width:1;" width="10" x="728.7568" y="311.3281"/></g><g><title>Spring Security</title><rect fill="#FFFFFF" height="30.3516" style="stroke:#181818;stroke-width:1;" width="10" x="728.7568" y="903.0625"/></g><g><title>AuthService</title><rect fill="#FFFFFF" height="220.4609" style="stroke:#181818;stroke-width:1;" width="10" x="837.9634" y="465.4375"/></g><g><title>UsuarioRepository</title><rect fill="#FFFFFF" height="91.0547" style="stroke:#181818;stroke-width:1;" width="10" x="1150.1558" y="495.7891"/></g><g><title>PostgreSQL</title><rect fill="#FFFFFF" height="30.3516" style="stroke:#181818;stroke-width:1;" width="10" x="1275.9766" y="526.1406"/></g><g><title>SesionService</title><rect fill="#FFFFFF" height="30.3516" style="stroke:#181818;stroke-width:1;" width="10" x="1378.8521" y="716.25"/></g><path d="M23,136.2188 L23,162.2188 L342,162.2188 L342,146.2188 L332,136.2188 L23,136.2188" fill="#FEFFDD" style="stroke:#181818;stroke-width:0.5;"/><path d="M332,136.2188 L332,146.2188 L342,146.2188 L332,136.2188" fill="#FEFFDD" style="stroke:#181818;stroke-width:0.5;"/><text fill="#000000" font-family="sans-serif" font-size="13" lengthAdjust="spacing" textLength="206.6353" x="75.1116" y="154.7139">Estado previo: SESION_CERRADA</text><g class="message" data-participant-1="Coordinador" data-participant-2="Frontend"><polygon fill="#181818" points="287.3828,185.9219,297.3828,189.9219,287.3828,193.9219,291.3828,189.9219" style="stroke:#181818;stroke-width:1;"/><line style="stroke:#181818;stroke-width:1;" x1="61.5239" x2="293.3828" y1="189.9219" y2="189.9219"/><text fill="#000000" font-family="sans-serif" font-size="13" lengthAdjust="spacing" textLength="153.8989" x="68.5239" y="185.0654">Solicita acceder al sistema</text></g><g class="message" data-participant-1="Frontend" data-participant-2="Coordinador"><polygon fill="#181818" points="72.5239,216.2734,62.5239,220.2734,72.5239,224.2734,68.5239,220.2734" style="stroke:#181818;stroke-width:1;"/><line style="stroke:#181818;stroke-width:1;stroke-dasharray:2,2;" x1="66.5239" x2="298.3828" y1="220.2734" y2="220.2734"/><text fill="#000000" font-family="sans-serif" font-size="13" lengthAdjust="spacing" textLength="176.3125" x="78.5239" y="215.417">Presenta formulario de acceso</text></g><g class="message" data-participant-1="Coordinador" data-participant-2="Frontend"><polygon fill="#181818" points="287.3828,246.625,297.3828,250.625,287.3828,254.625,291.3828,250.625" style="stroke:#181818;stroke-width:1;"/><line style="stroke:#181818;stroke-width:1;" x1="61.5239" x2="293.3828" y1="250.625" y2="250.625"/><text fill="#000000" font-family="sans-serif" font-size="13" lengthAdjust="spacing" textLength="178.4961" x="68.5239" y="245.7686">Introduce usuario y contrase&#241;a</text></g><g class="message" data-participant-1="Frontend" data-participant-2="Api"><polygon fill="#181818" points="506.438,276.9766,516.438,280.9766,506.438,284.9766,510.438,280.9766" style="stroke:#181818;stroke-width:1;"/><line style="stroke:#181818;stroke-width:1;" x1="309.3828" x2="512.438" y1="280.9766" y2="280.9766"/><text fill="#000000" font-family="sans-serif" font-size="13" lengthAdjust="spacing" textLength="104.7617" x="316.3828" y="276.1201">GET /api/auth/csrf</text></g><g class="message" data-participant-1="Api" data-participant-2="Security"><polygon fill="#181818" points="716.7568,307.3281,726.7568,311.3281,716.7568,315.3281,720.7568,311.3281" style="stroke:#181818;stroke-width:1;"/><line style="stroke:#181818;stroke-width:1;" x1="528.438" x2="722.7568" y1="311.3281" y2="311.3281"/><text fill="#000000" font-family="sans-serif" font-size="13" lengthAdjust="spacing" textLength="112.709" x="535.438" y="306.4717">obtenerTokenCsrf()</text></g><g class="message" data-participant-1="Security" data-participant-2="Api"><polygon fill="#181818" points="539.438,337.6797,529.438,341.6797,539.438,345.6797,535.438,341.6797" style="stroke:#181818;stroke-width:1;"/><line style="stroke:#181818;stroke-width:1;stroke-dasharray:2,2;" x1="533.438" x2="732.7568" y1="341.6797" y2="341.6797"/><text fill="#000000" font-family="sans-serif" font-size="13" lengthAdjust="spacing" textLength="118.498" x="545.438" y="336.8232">CsrfTokenResponse</text></g><g class="message" data-participant-1="Api" data-participant-2="Frontend"><polygon fill="#181818" points="320.3828,384.3828,310.3828,388.3828,320.3828,392.3828,316.3828,388.3828" style="stroke:#181818;stroke-width:1;"/><line style="stroke:#181818;stroke-width:1;stroke-dasharray:2,2;" x1="314.3828" x2="522.438" y1="388.3828" y2="388.3828"/><text fill="#000000" font-family="sans-serif" font-size="13" lengthAdjust="spacing" textLength="44.0845" x="326.3828" y="367.1748">200 OK</text><text fill="#000000" font-family="sans-serif" font-size="13" lengthAdjust="spacing" textLength="118.498" x="326.3828" y="383.5264">CsrfTokenResponse</text></g><g class="message" data-participant-1="Frontend" data-participant-2="Api"><polygon fill="#181818" points="506.438,431.0859,516.438,435.0859,506.438,439.0859,510.438,435.0859" style="stroke:#181818;stroke-width:1;"/><line style="stroke:#181818;stroke-width:1;" x1="309.3828" x2="512.438" y1="435.0859" y2="435.0859"/><text fill="#000000" font-family="sans-serif" font-size="13" lengthAdjust="spacing" textLength="119.958" x="316.3828" y="413.8779">POST /api/auth/login</text><text fill="#000000" font-family="sans-serif" font-size="13" lengthAdjust="spacing" textLength="165.8452" x="316.3828" y="430.2295">LoginRequest + token CSRF</text></g><g class="message" data-participant-1="Api" data-participant-2="Auth"><polygon fill="#181818" points="825.9634,461.4375,835.9634,465.4375,825.9634,469.4375,829.9634,465.4375" style="stroke:#181818;stroke-width:1;"/><line style="stroke:#181818;stroke-width:1;" x1="528.438" x2="831.9634" y1="465.4375" y2="465.4375"/><text fill="#000000" font-family="sans-serif" font-size="13" lengthAdjust="spacing" textLength="179.9307" x="535.438" y="460.5811">autenticar(usuario, contrasena)</text></g><g class="message" data-participant-1="Auth" data-participant-2="Repo"><polygon fill="#181818" points="1138.1558,491.7891,1148.1558,495.7891,1138.1558,499.7891,1142.1558,495.7891" style="stroke:#181818;stroke-width:1;"/><line style="stroke:#181818;stroke-width:1;" x1="847.9634" x2="1144.1558" y1="495.7891" y2="495.7891"/><text fill="#000000" font-family="sans-serif" font-size="13" lengthAdjust="spacing" textLength="178.458" x="854.9634" y="490.9326">findByNombreUsuario(usuario)</text></g><g class="message" data-participant-1="Repo" data-participant-2="Database"><polygon fill="#181818" points="1263.9766,522.1406,1273.9766,526.1406,1263.9766,530.1406,1267.9766,526.1406" style="stroke:#181818;stroke-width:1;"/><line style="stroke:#181818;stroke-width:1;" x1="1160.1558" x2="1269.9766" y1="526.1406" y2="526.1406"/><text fill="#000000" font-family="sans-serif" font-size="13" lengthAdjust="spacing" textLength="96.8208" x="1167.1558" y="521.2842">SELECT usuario</text></g><g class="message" data-participant-1="Database" data-participant-2="Repo"><polygon fill="#181818" points="1171.1558,552.4922,1161.1558,556.4922,1171.1558,560.4922,1167.1558,556.4922" style="stroke:#181818;stroke-width:1;"/><line style="stroke:#181818;stroke-width:1;stroke-dasharray:2,2;" x1="1165.1558" x2="1279.9766" y1="556.4922" y2="556.4922"/><text fill="#000000" font-family="sans-serif" font-size="13" lengthAdjust="spacing" textLength="90.3208" x="1177.1558" y="551.6357">Usuario o vac&#237;o</text></g><g class="message" data-participant-1="Repo" data-participant-2="Auth"><polygon fill="#181818" points="858.9634,582.8438,848.9634,586.8438,858.9634,590.8438,854.9634,586.8438" style="stroke:#181818;stroke-width:1;"/><line style="stroke:#181818;stroke-width:1;stroke-dasharray:2,2;" x1="852.9634" x2="1154.1558" y1="586.8438" y2="586.8438"/><text fill="#000000" font-family="sans-serif" font-size="13" lengthAdjust="spacing" textLength="108.3989" x="864.9634" y="581.9873">Optional&lt;Usuario&gt;</text></g><g class="message" data-participant-1="Auth" data-participant-2="Auth"><line style="stroke:#181818;stroke-width:1;" x1="847.9634" x2="889.9634" y1="617.1953" y2="617.1953"/><line style="stroke:#181818;stroke-width:1;" x1="889.9634" x2="889.9634" y1="617.1953" y2="630.1953"/><line style="stroke:#181818;stroke-width:1;" x1="848.9634" x2="889.9634" y1="630.1953" y2="630.1953"/><polygon fill="#181818" points="858.9634,626.1953,848.9634,630.1953,858.9634,634.1953,854.9634,630.1953" style="stroke:#181818;stroke-width:1;"/><text fill="#000000" font-family="sans-serif" font-size="13" lengthAdjust="spacing" textLength="278.1924" x="854.9634" y="612.3389">validarCredenciales(usuario, contrasena, activo)</text></g><path d="M10,645.1953 L70.1709,645.1953 L70.1709,653.5469 L60.1709,663.5469 L10,663.5469 L10,645.1953" fill="#EEEEEE" style="stroke:#000000;stroke-width:1.5;"/><rect fill="none" height="496.5156" style="stroke:#000000;stroke-width:1.5;" width="1435.5967" x="10" y="645.1953"/><text fill="#000000" font-family="sans-serif" font-size="13" font-weight="bold" lengthAdjust="spacing" textLength="15.1709" x="25" y="659.6904">alt</text><text fill="#000000" font-family="sans-serif" font-size="11" font-weight="bold" lengthAdjust="spacing" textLength="215.2036" x="85.1709" y="658.6143">[Credenciales correctas y usuario activo]</text><g class="message" data-participant-1="Auth" data-participant-2="Api"><polygon fill="#181818" points="539.438,681.8984,529.438,685.8984,539.438,689.8984,535.438,685.8984" style="stroke:#181818;stroke-width:1;"/><line style="stroke:#181818;stroke-width:1;stroke-dasharray:2,2;" x1="533.438" x2="841.9634" y1="685.8984" y2="685.8984"/><text fill="#000000" font-family="sans-serif" font-size="13" lengthAdjust="spacing" textLength="115.6289" x="545.438" y="681.042">Usuario autenticado</text></g><g class="message" data-participant-1="Api" data-participant-2="Sesion"><polygon fill="#181818" points="1366.8521,712.25,1376.8521,716.25,1366.8521,720.25,1370.8521,716.25" style="stroke:#181818;stroke-width:1;"/><line style="stroke:#181818;stroke-width:1;" x1="528.438" x2="1372.8521" y1="716.25" y2="716.25"/><text fill="#000000" font-family="sans-serif" font-size="13" lengthAdjust="spacing" textLength="142.3335" x="535.438" y="711.3936">crearSesion(usuario, rol)</text></g><g class="message" data-participant-1="Sesion" data-participant-2="Api"><polygon fill="#181818" points="539.438,742.6016,529.438,746.6016,539.438,750.6016,535.438,746.6016" style="stroke:#181818;stroke-width:1;"/><line style="stroke:#181818;stroke-width:1;stroke-dasharray:2,2;" x1="533.438" x2="1382.8521" y1="746.6016" y2="746.6016"/><text fill="#000000" font-family="sans-serif" font-size="13" lengthAdjust="spacing" textLength="98.2871" x="545.438" y="741.7451">SesionResponse</text></g><g class="message" data-participant-1="Api" data-participant-2="Frontend"><polygon fill="#181818" points="320.3828,822.0078,310.3828,826.0078,320.3828,830.0078,316.3828,826.0078" style="stroke:#181818;stroke-width:1;"/><line style="stroke:#181818;stroke-width:1;stroke-dasharray:2,2;" x1="314.3828" x2="522.438" y1="826.0078" y2="826.0078"/><text fill="#000000" font-family="sans-serif" font-size="13" lengthAdjust="spacing" textLength="155.7397" x="326.3828" y="772.0967">200 OK + cookie de sesi&#243;n</text><text fill="#000000" font-family="sans-serif" font-size="13" lengthAdjust="spacing" textLength="142.708" x="326.3828" y="788.4482">HttpOnly, SameSite=Lax</text><text fill="#000000" font-family="sans-serif" font-size="13" lengthAdjust="spacing" textLength="126.4707" x="326.3828" y="804.7998">Secure en producci&#243;n</text><text fill="#000000" font-family="sans-serif" font-size="13" lengthAdjust="spacing" textLength="98.2871" x="326.3828" y="821.1514">SesionResponse</text></g><g class="message" data-participant-1="Frontend" data-participant-2="Api"><polygon fill="#181818" points="506.438,868.7109,516.438,872.7109,506.438,876.7109,510.438,872.7109" style="stroke:#181818;stroke-width:1;"/><line style="stroke:#181818;stroke-width:1;" x1="309.3828" x2="512.438" y1="872.7109" y2="872.7109"/><text fill="#000000" font-family="sans-serif" font-size="13" lengthAdjust="spacing" textLength="104.7617" x="316.3828" y="851.5029">GET /api/auth/csrf</text><text fill="#000000" font-family="sans-serif" font-size="13" lengthAdjust="spacing" textLength="190.0552" x="316.3828" y="867.8545">Renovar token tras autenticaci&#243;n</text></g><g class="message" data-participant-1="Api" data-participant-2="Security"><polygon fill="#181818" points="716.7568,899.0625,726.7568,903.0625,716.7568,907.0625,720.7568,903.0625" style="stroke:#181818;stroke-width:1;"/><line style="stroke:#181818;stroke-width:1;" x1="528.438" x2="722.7568" y1="903.0625" y2="903.0625"/><text fill="#000000" font-family="sans-serif" font-size="13" lengthAdjust="spacing" textLength="112.709" x="535.438" y="898.2061">obtenerTokenCsrf()</text></g><g class="message" data-participant-1="Security" data-participant-2="Api"><polygon fill="#181818" points="539.438,929.4141,529.438,933.4141,539.438,937.4141,535.438,933.4141" style="stroke:#181818;stroke-width:1;"/><line style="stroke:#181818;stroke-width:1;stroke-dasharray:2,2;" x1="533.438" x2="732.7568" y1="933.4141" y2="933.4141"/><text fill="#000000" font-family="sans-serif" font-size="13" lengthAdjust="spacing" textLength="176.3188" x="545.438" y="928.5576">CsrfTokenResponse renovado</text></g><g class="message" data-participant-1="Api" data-participant-2="Frontend"><polygon fill="#181818" points="320.3828,976.1172,310.3828,980.1172,320.3828,984.1172,316.3828,980.1172" style="stroke:#181818;stroke-width:1;"/><line style="stroke:#181818;stroke-width:1;stroke-dasharray:2,2;" x1="314.3828" x2="522.438" y1="980.1172" y2="980.1172"/><text fill="#000000" font-family="sans-serif" font-size="13" lengthAdjust="spacing" textLength="44.0845" x="326.3828" y="958.9092">200 OK</text><text fill="#000000" font-family="sans-serif" font-size="13" lengthAdjust="spacing" textLength="176.3188" x="326.3828" y="975.2607">CsrfTokenResponse renovado</text></g><g class="message" data-participant-1="Frontend" data-participant-2="Coordinador"><polygon fill="#181818" points="72.5239,1006.4688,62.5239,1010.4688,72.5239,1014.4688,68.5239,1010.4688" style="stroke:#181818;stroke-width:1;"/><line style="stroke:#181818;stroke-width:1;stroke-dasharray:2,2;" x1="66.5239" x2="298.3828" y1="1010.4688" y2="1010.4688"/><text fill="#000000" font-family="sans-serif" font-size="13" lengthAdjust="spacing" textLength="213.8589" x="78.5239" y="1005.6123">Abre PANEL_PRINCIPAL_ABIERTO</text></g><line style="stroke:#000000;stroke-width:1;stroke-dasharray:2,2;" x1="10" x2="1445.5967" y1="1019.4688" y2="1019.4688"/><text fill="#000000" font-family="sans-serif" font-size="11" font-weight="bold" lengthAdjust="spacing" textLength="235.356" x="15" y="1030.8877">[Credenciales incorrectas o usuario inactivo]</text><g class="message" data-participant-1="Auth" data-participant-2="Api"><polygon fill="#181818" points="534.438,1052.6563,524.438,1056.6563,534.438,1060.6563,530.438,1056.6563" style="stroke:#181818;stroke-width:1;"/><line style="stroke:#181818;stroke-width:1;stroke-dasharray:2,2;" x1="528.438" x2="841.9634" y1="1056.6563" y2="1056.6563"/><text fill="#000000" font-family="sans-serif" font-size="13" lengthAdjust="spacing" textLength="197.2661" x="540.438" y="1051.7998">CredencialesIncorrectasException</text></g><g class="message" data-participant-1="Api" data-participant-2="Frontend"><polygon fill="#181818" points="320.3828,1083.0078,310.3828,1087.0078,320.3828,1091.0078,316.3828,1087.0078" style="stroke:#181818;stroke-width:1;"/><line style="stroke:#181818;stroke-width:1;stroke-dasharray:2,2;" x1="314.3828" x2="522.438" y1="1087.0078" y2="1087.0078"/><text fill="#000000" font-family="sans-serif" font-size="13" lengthAdjust="spacing" textLength="102.6289" x="326.3828" y="1082.1514">401 Unauthorized</text></g><g class="message" data-participant-1="Frontend" data-participant-2="Coordinador"><polygon fill="#181818" points="72.5239,1129.7109,62.5239,1133.7109,72.5239,1137.7109,68.5239,1133.7109" style="stroke:#181818;stroke-width:1;"/><line style="stroke:#181818;stroke-width:1;stroke-dasharray:2,2;" x1="66.5239" x2="298.3828" y1="1133.7109" y2="1133.7109"/><text fill="#000000" font-family="sans-serif" font-size="13" lengthAdjust="spacing" textLength="195.8188" x="78.5239" y="1112.5029">Presenta credenciales incorrectas</text><text fill="#000000" font-family="sans-serif" font-size="13" lengthAdjust="spacing" textLength="103.3208" x="78.5239" y="1128.8545">Permite reintentar</text></g><!--SRC=[bLNRJXin47tVhnZn16eGjEfJr2A54DgeKPBkXhT8QF0EgSN6tdgTYFIV-b3r4_YnZktiBI4Ka8ZitJbpENDcragR4Ln9N1XS8gG41OaLAI4HJc6e91yCFolaqryLHIYiDj3NsgHIOQfDbAEnR9IZid0qqWkffhYWkJgEYOrFZW0Bk3PQML9fsxYtiZ_w_CBeB2F3Y2GtKYtWKkijhfVBDcHhaN2AHjgDDoel-yuJCcifABZYUzlYfbYXaJgcN1UIgmhUt3LAqU8T5WH7KrtOXQ7a-yY_lTg-sCcAsT6g6IqyYIAbBO5UKukoJit7eB3y1793Qwcxa0oIuMHysn_4SU-g5x45E0zHr433wKM5PuJEE0sBW49God4mWq8MbfReUYNNo0bKuSe3dBAJXiykJ0qLfDZFlJRBLUQ8SLfmNWjzEFpGTIzT2O9LO1Cs85nBcQEdFzW8UE6QsOKlWncSOIxFaFjn9WfpNwVfkit_phRiQHVq7UF9pFG3gJwR7v_KWAhpvS7NvUCuKu-9gSYruewbj8_pqLe5VJW_XyctkNeHxnBTgsmwIPgbPMuIvieFH4m_LrHOU0VMkOH-4by_MxOJQHSOpwsG0itnbjLEHQh2HlrUq-x7OPrmkt0lLNgv6UlbdQ6jm4id3Q0NkVjnm5BJJdwZGNzMjh8shrHV7Znf8U0s26XOetZwhPiyLRWGgYfmabkU3im-RS4NJP3FhImgsAynaocQlc65kyMKKV4SCntmJhZG23CBJNEsCeQ4vT7SL58DrX7mNuXNjhAigMf46goQ4d3KUsGfM3VmNH26q8HBdI8lk1Dlt52Wtm_kMJZMmSEzajrEt0Rma7XPPaBh1qbXcVl5FLTVhSqdAjjq8C4b9TBIvn4-pfMV1G9MPUudMGJpbxDmadMFNZ7UStQYz9g_8K7xhbSriJvQcvhIzsismGwdswaEhFvt8u3nYUttjkNe3IlYeCDzkdRNRu_75QQzyM1qEus7u_vmsXlTzYw7WtWsYIXZtoqrIrNhMLTwPcU75Dr43slmu56GdyMNvTqg_-FvUxXHhh_Qo5-KlhtOwbiZ3jGqLrCoIvOeCogT4ul6VGoRQwBwflq3]--></g></svg>