<svg xmlns="http://www.w3.org/2000/svg" xmlns:xlink="http://www.w3.org/1999/xlink" contentStyleType="text/css" height="1252px" preserveAspectRatio="none" style="width:1631px;height:1252px;background:#FFFFFF;" version="1.1" viewBox="0 0 1631 1252" width="1631px" zoomAndPan="magnify"><title>Diagrama de secuencia - Iniciar sesi&#243;n</title><defs/><g><text fill="#000000" font-family="sans-serif" font-size="14" font-weight="bold" lengthAdjust="spacing" textLength="257.5576" x="688.2012" y="29.5332">Diagrama de secuencia - Iniciar sesi&#243;n</text><rect fill="#FFFFFF" height="970.7891" style="stroke:#181818;stroke-width:1;" width="10" x="299.3828" y="189.9219"/><rect fill="#FFFFFF" height="113.4063" style="stroke:#181818;stroke-width:1;" width="10" x="518.438" y="280.9766"/><rect fill="#FFFFFF" height="390.9219" style="stroke:#181818;stroke-width:1;" width="10" x="518.438" y="441.0859"/><rect fill="#FFFFFF" height="113.4063" style="stroke:#181818;stroke-width:1;" width="10" x="518.438" y="878.7109"/><rect fill="#FFFFFF" height="66.7031" style="stroke:#181818;stroke-width:1;" width="10" x="728.7568" y="280.9766"/><rect fill="#FFFFFF" height="66.7031" style="stroke:#181818;stroke-width:1;" width="10" x="728.7568" y="878.7109"/><rect fill="#FFFFFF" height="220.4609" style="stroke:#181818;stroke-width:1;" width="10" x="837.9634" y="471.4375"/><rect fill="#FFFFFF" height="91.0547" style="stroke:#181818;stroke-width:1;" width="10" x="1093.0776" y="501.7891"/><rect fill="#FFFFFF" height="30.3516" style="stroke:#181818;stroke-width:1;" width="10" x="1447.5537" y="532.1406"/><rect fill="#FFFFFF" height="30.3516" style="stroke:#181818;stroke-width:1;" width="10" x="1558.2153" y="722.25"/><rect fill="none" height="502.5156" style="stroke:#000000;stroke-width:1.5;" width="1614.96" x="10" y="651.1953"/><line style="stroke:#181818;stroke-width:0.5;stroke-dasharray:5.0,5.0;" x1="61" x2="61" y1="121.2188" y2="1170.7109"/><line style="stroke:#181818;stroke-width:0.5;stroke-dasharray:5.0,5.0;" x1="303.9072" x2="303.9072" y1="121.2188" y2="1170.7109"/><line style="stroke:#181818;stroke-width:0.5;stroke-dasharray:5.0,5.0;" x1="522.6934" x2="522.6934" y1="121.2188" y2="1170.7109"/><line style="stroke:#181818;stroke-width:0.5;stroke-dasharray:5.0,5.0;" x1="733.2915" x2="733.2915" y1="121.2188" y2="1170.7109"/><line style="stroke:#181818;stroke-width:0.5;stroke-dasharray:5.0,5.0;" x1="842.2222" x2="842.2222" y1="121.2188" y2="1170.7109"/><line style="stroke:#181818;stroke-width:0.5;stroke-dasharray:5.0,5.0;" x1="1097.4985" x2="1097.4985" y1="121.2188" y2="1170.7109"/><line style="stroke:#181818;stroke-width:0.5;stroke-dasharray:5.0,5.0;" x1="1451.6367" x2="1451.6367" y1="121.2188" y2="1170.7109"/><line style="stroke:#181818;stroke-width:0.5;stroke-dasharray:5.0,5.0;" x1="1562.4707" x2="1562.4707" y1="121.2188" y2="1170.7109"/><text fill="#000000" font-family="sans-serif" font-size="14" lengthAdjust="spacing" textLength="77.0479" x="20" y="118.1426">Coordinador</text><ellipse cx="61.5239" cy="52.1094" fill="#E2E2F0" rx="8" ry="8" style="stroke:#181818;stroke-width:0.5;"/><path d="M61.5239,60.1094 L61.5239,87.1094 M48.5239,68.1094 L74.5239,68.1094 M61.5239,87.1094 L48.5239,102.1094 M61.5239,87.1094 L74.5239,102.1094 " fill="none" style="stroke:#181818;stroke-width:0.5;"/><text fill="#000000" font-family="sans-serif" font-size="14" lengthAdjust="spacing" textLength="77.0479" x="20" y="1184.2441">Coordinador</text><ellipse cx="61.5239" cy="1195.8203" fill="#E2E2F0" rx="8" ry="8" style="stroke:#181818;stroke-width:0.5;"/><path d="M61.5239,1203.8203 L61.5239,1230.8203 M48.5239,1211.8203 L74.5239,1211.8203 M61.5239,1230.8203 L48.5239,1245.8203 M61.5239,1230.8203 L74.5239,1245.8203 " fill="none" style="stroke:#181818;stroke-width:0.5;"/><rect fill="#E2E2F0" height="49.2188" rx="2.5" ry="2.5" style="stroke:#181818;stroke-width:0.5;" width="80.9512" x="263.9072" y="71"/><text fill="#000000" font-family="sans-serif" font-size="14" lengthAdjust="spacing" textLength="66.9512" x="270.9072" y="92.5332">LoginPage</text><text fill="#000000" font-family="sans-serif" font-size="14" lengthAdjust="spacing" textLength="45.8965" x="281.4346" y="110.1426">(React)</text><rect fill="#E2E2F0" height="49.2188" rx="2.5" ry="2.5" style="stroke:#181818;stroke-width:0.5;" width="80.9512" x="263.9072" y="1169.7109"/><text fill="#000000" font-family="sans-serif" font-size="14" lengthAdjust="spacing" textLength="66.9512" x="270.9072" y="1191.2441">LoginPage</text><text fill="#000000" font-family="sans-serif" font-size="14" lengthAdjust="spacing" textLength="45.8965" x="281.4346" y="1208.8535">(React)</text><rect fill="#E2E2F0" height="49.2188" rx="2.5" ry="2.5" style="stroke:#181818;stroke-width:0.5;" width="103.4893" x="471.6934" y="71"/><text fill="#000000" font-family="sans-serif" font-size="14" lengthAdjust="spacing" textLength="89.4893" x="478.6934" y="92.5332">AuthController</text><text fill="#000000" font-family="sans-serif" font-size="14" lengthAdjust="spacing" textLength="82.4824" x="482.1968" y="110.1426">(Spring Boot)</text><rect fill="#E2E2F0" height="49.2188" rx="2.5" ry="2.5" style="stroke:#181818;stroke-width:0.5;" width="103.4893" x="471.6934" y="1169.7109"/><text fill="#000000" font-family="sans-serif" font-size="14" lengthAdjust="spacing" textLength="89.4893" x="478.6934" y="1191.2441">AuthController</text><text fill="#000000" font-family="sans-serif" font-size="14" lengthAdjust="spacing" textLength="82.4824" x="482.1968" y="1208.8535">(Spring Boot)</text><rect fill="#E2E2F0" height="31.6094" rx="2.5" ry="2.5" style="stroke:#181818;stroke-width:0.5;" width="108.9307" x="679.2915" y="88.6094"/><text fill="#000000" font-family="sans-serif" font-size="14" lengthAdjust="spacing" textLength="94.9307" x="686.2915" y="110.1426">Spring Security</text><rect fill="#E2E2F0" height="31.6094" rx="2.5" ry="2.5" style="stroke:#181818;stroke-width:0.5;" width="108.9307" x="679.2915" y="1169.7109"/><text fill="#000000" font-family="sans-serif" font-size="14" lengthAdjust="spacing" textLength="94.9307" x="686.2915" y="1191.2441">Spring Security</text><rect fill="#E2E2F0" height="31.6094" rx="2.5" ry="2.5" style="stroke:#181818;stroke-width:0.5;" width="89.4824" x="798.2222" y="88.6094"/><text fill="#000000" font-family="sans-serif" font-size="14" lengthAdjust="spacing" textLength="75.4824" x="805.2222" y="110.1426">AuthService</text><rect fill="#E2E2F0" height="31.6094" rx="2.5" ry="2.5" style="stroke:#181818;stroke-width:0.5;" width="89.4824" x="798.2222" y="1169.7109"/><text fill="#000000" font-family="sans-serif" font-size="14" lengthAdjust="spacing" textLength="75.4824" x="805.2222" y="1191.2441">AuthService</text><rect fill="#E2E2F0" height="31.6094" rx="2.5" ry="2.5" style="stroke:#181818;stroke-width:0.5;" width="129.1582" x="1033.4985" y="88.6094"/><text fill="#000000" font-family="sans-serif" font-size="14" lengthAdjust="spacing" textLength="115.1582" x="1040.4985" y="110.1426">UsuarioRepository</text><rect fill="#E2E2F0" height="31.6094" rx="2.5" ry="2.5" style="stroke:#181818;stroke-width:0.5;" width="129.1582" x="1033.4985" y="1169.7109"/><text fill="#000000" font-family="sans-serif" font-size="14" lengthAdjust="spacing" textLength="115.1582" x="1040.4985" y="1191.2441">UsuarioRepository</text><text fill="#000000" font-family="sans-serif" font-size="14" lengthAdjust="spacing" textLength="91.834" x="1403.6367" y="118.1426">Base de Datos</text><path d="M1434.5537,67.6094 C1434.5537,57.6094 1452.5537,57.6094 1452.5537,57.6094 C1452.5537,57.6094 1470.5537,57.6094 1470.5537,67.6094 L1470.5537,93.6094 C1470.5537,103.6094 1452.5537,103.6094 1452.5537,103.6094 C1452.5537,103.6094 1434.5537,103.6094 1434.5537,93.6094 L1434.5537,67.6094 " fill="#E2E2F0" style="stroke:#181818;stroke-width:1.5;"/><path d="M1434.5537,67.6094 C1434.5537,77.6094 1452.5537,77.6094 1452.5537,77.6094 C1452.5537,77.6094 1470.5537,77.6094 1470.5537,67.6094 " fill="none" style="stroke:#181818;stroke-width:1.5;"/><text fill="#000000" font-family="sans-serif" font-size="14" lengthAdjust="spacing" textLength="91.834" x="1403.6367" y="1184.2441">Base de Datos</text><path d="M1434.5537,1197.3203 C1434.5537,1187.3203 1452.5537,1187.3203 1452.5537,1187.3203 C1452.5537,1187.3203 1470.5537,1187.3203 1470.5537,1197.3203 L1470.5537,1223.3203 C1470.5537,1233.3203 1452.5537,1233.3203 1452.5537,1233.3203 C1452.5537,1233.3203 1434.5537,1233.3203 1434.5537,1223.3203 L1434.5537,1197.3203 " fill="#E2E2F0" style="stroke:#181818;stroke-width:1.5;"/><path d="M1434.5537,1197.3203 C1434.5537,1207.3203 1452.5537,1207.3203 1452.5537,1207.3203 C1452.5537,1207.3203 1470.5537,1207.3203 1470.5537,1197.3203 " fill="none" style="stroke:#181818;stroke-width:1.5;"/><rect fill="#E2E2F0" height="31.6094" rx="2.5" ry="2.5" style="stroke:#181818;stroke-width:0.5;" width="103.4893" x="1511.4707" y="88.6094"/><text fill="#000000" font-family="sans-serif" font-size="14" lengthAdjust="spacing" textLength="89.4893" x="1518.4707" y="110.1426">SesionService</text><rect fill="#E2E2F0" height="31.6094" rx="2.5" ry="2.5" style="stroke:#181818;stroke-width:0.5;" width="103.4893" x="1511.4707" y="1169.7109"/><text fill="#000000" font-family="sans-serif" font-size="14" lengthAdjust="spacing" textLength="89.4893" x="1518.4707" y="1191.2441">SesionService</text><rect fill="#FFFFFF" height="970.7891" style="stroke:#181818;stroke-width:1;" width="10" x="299.3828" y="189.9219"/><rect fill="#FFFFFF" height="113.4063" style="stroke:#181818;stroke-width:1;" width="10" x="518.438" y="280.9766"/><rect fill="#FFFFFF" height="390.9219" style="stroke:#181818;stroke-width:1;" width="10" x="518.438" y="441.0859"/><rect fill="#FFFFFF" height="113.4063" style="stroke:#181818;stroke-width:1;" width="10" x="518.438" y="878.7109"/><rect fill="#FFFFFF" height="66.7031" style="stroke:#181818;stroke-width:1;" width="10" x="728.7568" y="280.9766"/><rect fill="#FFFFFF" height="66.7031" style="stroke:#181818;stroke-width:1;" width="10" x="728.7568" y="878.7109"/><rect fill="#FFFFFF" height="220.4609" style="stroke:#181818;stroke-width:1;" width="10" x="837.9634" y="471.4375"/><rect fill="#FFFFFF" height="91.0547" style="stroke:#181818;stroke-width:1;" width="10" x="1093.0776" y="501.7891"/><rect fill="#FFFFFF" height="30.3516" style="stroke:#181818;stroke-width:1;" width="10" x="1447.5537" y="532.1406"/><rect fill="#FFFFFF" height="30.3516" style="stroke:#181818;stroke-width:1;" width="10" x="1558.2153" y="722.25"/><path d="M23,136.2188 L23,162.2188 L342,162.2188 L342,146.2188 L332,136.2188 L23,136.2188 " fill="#FEFFDD" style="stroke:#181818;stroke-width:0.5;"/><path d="M332,136.2188 L332,146.2188 L342,146.2188 L332,136.2188 " fill="#FEFFDD" style="stroke:#181818;stroke-width:0.5;"/><text fill="#000000" font-family="sans-serif" font-size="13" lengthAdjust="spacing" textLength="206.6353" x="75.1116" y="154.7139">Estado previo: SESION_CERRADA</text><polygon fill="#181818" points="287.3828,185.9219,297.3828,189.9219,287.3828,193.9219,291.3828,189.9219" style="stroke:#181818;stroke-width:1;"/><line style="stroke:#181818;stroke-width:1;" x1="61.5239" x2="293.3828" y1="189.9219" y2="189.9219"/><text fill="#000000" font-family="sans-serif" font-size="13" lengthAdjust="spacing" textLength="153.8989" x="68.5239" y="185.0654">Solicita acceder al sistema</text><polygon fill="#181818" points="72.5239,216.2734,62.5239,220.2734,72.5239,224.2734,68.5239,220.2734" style="stroke:#181818;stroke-width:1;"/><line style="stroke:#181818;stroke-width:1;stroke-dasharray:2.0,2.0;" x1="66.5239" x2="298.3828" y1="220.2734" y2="220.2734"/><text fill="#000000" font-family="sans-serif" font-size="13" lengthAdjust="spacing" textLength="176.3125" x="78.5239" y="215.417">Presenta formulario de acceso</text><polygon fill="#181818" points="287.3828,246.625,297.3828,250.625,287.3828,254.625,291.3828,250.625" style="stroke:#181818;stroke-width:1;"/><line style="stroke:#181818;stroke-width:1;" x1="61.5239" x2="293.3828" y1="250.625" y2="250.625"/><text fill="#000000" font-family="sans-serif" font-size="13" lengthAdjust="spacing" textLength="178.4961" x="68.5239" y="245.7686">Introduce usuario y contrase&#241;a</text><polygon fill="#181818" points="506.438,276.9766,516.438,280.9766,506.438,284.9766,510.438,280.9766" style="stroke:#181818;stroke-width:1;"/><line style="stroke:#181818;stroke-width:1;" x1="309.3828" x2="512.438" y1="280.9766" y2="280.9766"/><text fill="#000000" font-family="sans-serif" font-size="13" lengthAdjust="spacing" textLength="104.7617" x="316.3828" y="276.1201">GET /api/auth/csrf</text><path d="M743,293.9766 L743,319.9766 L1014,319.9766 L1014,303.9766 L1004,293.9766 L743,293.9766 " fill="#FEFFDD" style="stroke:#181818;stroke-width:0.5;"/><path d="M1004,293.9766 L1004,303.9766 L1014,303.9766 L1004,293.9766 " fill="#FEFFDD" style="stroke:#181818;stroke-width:0.5;"/><text fill="#000000" font-family="sans-serif" font-size="13" lengthAdjust="spacing" textLength="250.7578" x="749" y="312.4717">Responsabilidad interna: obtenerTokenCsrf</text><polygon fill="#181818" points="539.438,343.6797,529.438,347.6797,539.438,351.6797,535.438,347.6797" style="stroke:#181818;stroke-width:1;"/><line style="stroke:#181818;stroke-width:1;stroke-dasharray:2.0,2.0;" x1="533.438" x2="732.7568" y1="347.6797" y2="347.6797"/><text fill="#000000" font-family="sans-serif" font-size="13" lengthAdjust="spacing" textLength="118.498" x="545.438" y="342.8232">CsrfTokenResponse</text><polygon fill="#181818" points="320.3828,390.3828,310.3828,394.3828,320.3828,398.3828,316.3828,394.3828" style="stroke:#181818;stroke-width:1;"/><line style="stroke:#181818;stroke-width:1;stroke-dasharray:2.0,2.0;" x1="314.3828" x2="522.438" y1="394.3828" y2="394.3828"/><text fill="#000000" font-family="sans-serif" font-size="13" lengthAdjust="spacing" textLength="44.0845" x="326.3828" y="373.1748">200 OK</text><text fill="#000000" font-family="sans-serif" font-size="13" lengthAdjust="spacing" textLength="118.498" x="326.3828" y="389.5264">CsrfTokenResponse</text><polygon fill="#181818" points="506.438,437.0859,516.438,441.0859,506.438,445.0859,510.438,441.0859" style="stroke:#181818;stroke-width:1;"/><line style="stroke:#181818;stroke-width:1;" x1="309.3828" x2="512.438" y1="441.0859" y2="441.0859"/><text fill="#000000" font-family="sans-serif" font-size="13" lengthAdjust="spacing" textLength="119.958" x="316.3828" y="419.8779">POST /api/auth/login</text><text fill="#000000" font-family="sans-serif" font-size="13" lengthAdjust="spacing" textLength="165.8452" x="316.3828" y="436.2295">LoginRequest + token CSRF</text><polygon fill="#181818" points="825.9634,467.4375,835.9634,471.4375,825.9634,475.4375,829.9634,471.4375" style="stroke:#181818;stroke-width:1;"/><line style="stroke:#181818;stroke-width:1;" x1="528.438" x2="831.9634" y1="471.4375" y2="471.4375"/><text fill="#000000" font-family="sans-serif" font-size="13" lengthAdjust="spacing" textLength="179.9307" x="535.438" y="466.5811">autenticar(usuario, contrasena)</text><polygon fill="#181818" points="1081.0776,497.7891,1091.0776,501.7891,1081.0776,505.7891,1085.0776,501.7891" style="stroke:#181818;stroke-width:1;"/><line style="stroke:#181818;stroke-width:1;" x1="847.9634" x2="1087.0776" y1="501.7891" y2="501.7891"/><text fill="#000000" font-family="sans-serif" font-size="13" lengthAdjust="spacing" textLength="178.458" x="854.9634" y="496.9326">findByNombreUsuario(usuario)</text><polygon fill="#181818" points="1435.5537,528.1406,1445.5537,532.1406,1435.5537,536.1406,1439.5537,532.1406" style="stroke:#181818;stroke-width:1;"/><line style="stroke:#181818;stroke-width:1;" x1="1103.0776" x2="1441.5537" y1="532.1406" y2="532.1406"/><text fill="#000000" font-family="sans-serif" font-size="13" lengthAdjust="spacing" textLength="325.4761" x="1110.0776" y="527.2842">SELECT * FROM usuarios WHERE nombre_usuario = ?</text><polygon fill="#181818" points="1114.0776,558.4922,1104.0776,562.4922,1114.0776,566.4922,1110.0776,562.4922" style="stroke:#181818;stroke-width:1;"/><line style="stroke:#181818;stroke-width:1;stroke-dasharray:2.0,2.0;" x1="1108.0776" x2="1451.5537" y1="562.4922" y2="562.4922"/><text fill="#000000" font-family="sans-serif" font-size="13" lengthAdjust="spacing" textLength="90.3208" x="1120.0776" y="557.6357">Usuario o vac&#237;o</text><polygon fill="#181818" points="858.9634,588.8438,848.9634,592.8438,858.9634,596.8438,854.9634,592.8438" style="stroke:#181818;stroke-width:1;"/><line style="stroke:#181818;stroke-width:1;stroke-dasharray:2.0,2.0;" x1="852.9634" x2="1097.0776" y1="592.8438" y2="592.8438"/><text fill="#000000" font-family="sans-serif" font-size="13" lengthAdjust="spacing" textLength="108.3989" x="864.9634" y="587.9873">Optional&lt;Usuario&gt;</text><line style="stroke:#181818;stroke-width:1;" x1="847.9634" x2="889.9634" y1="623.1953" y2="623.1953"/><line style="stroke:#181818;stroke-width:1;" x1="889.9634" x2="889.9634" y1="623.1953" y2="636.1953"/><line style="stroke:#181818;stroke-width:1;" x1="848.9634" x2="889.9634" y1="636.1953" y2="636.1953"/><polygon fill="#181818" points="858.9634,632.1953,848.9634,636.1953,858.9634,640.1953,854.9634,636.1953" style="stroke:#181818;stroke-width:1;"/><text fill="#000000" font-family="sans-serif" font-size="13" lengthAdjust="spacing" textLength="221.1143" x="854.9634" y="618.3389">autenticar(usuario, contrasena, activo)</text><path d="M10,651.1953 L70.1709,651.1953 L70.1709,659.5469 L60.1709,669.5469 L10,669.5469 L10,651.1953 " fill="#EEEEEE" style="stroke:#000000;stroke-width:1.5;"/><rect fill="none" height="502.5156" style="stroke:#000000;stroke-width:1.5;" width="1614.96" x="10" y="651.1953"/><text fill="#000000" font-family="sans-serif" font-size="13" font-weight="bold" lengthAdjust="spacing" textLength="15.1709" x="25" y="665.6904">alt</text><text fill="#000000" font-family="sans-serif" font-size="11" font-weight="bold" lengthAdjust="spacing" textLength="215.2036" x="85.1709" y="664.6143">[Credenciales correctas y usuario activo]</text><polygon fill="#181818" points="539.438,687.8984,529.438,691.8984,539.438,695.8984,535.438,691.8984" style="stroke:#181818;stroke-width:1;"/><line style="stroke:#181818;stroke-width:1;stroke-dasharray:2.0,2.0;" x1="533.438" x2="841.9634" y1="691.8984" y2="691.8984"/><text fill="#000000" font-family="sans-serif" font-size="13" lengthAdjust="spacing" textLength="115.6289" x="545.438" y="687.042">Usuario autenticado</text><polygon fill="#181818" points="1546.2153,718.25,1556.2153,722.25,1546.2153,726.25,1550.2153,722.25" style="stroke:#181818;stroke-width:1;"/><line style="stroke:#181818;stroke-width:1;" x1="528.438" x2="1552.2153" y1="722.25" y2="722.25"/><text fill="#000000" font-family="sans-serif" font-size="13" lengthAdjust="spacing" textLength="142.3335" x="535.438" y="717.3936">crearSesion(usuario, rol)</text><polygon fill="#181818" points="539.438,748.6016,529.438,752.6016,539.438,756.6016,535.438,752.6016" style="stroke:#181818;stroke-width:1;"/><line style="stroke:#181818;stroke-width:1;stroke-dasharray:2.0,2.0;" x1="533.438" x2="1562.2153" y1="752.6016" y2="752.6016"/><text fill="#000000" font-family="sans-serif" font-size="13" lengthAdjust="spacing" textLength="98.2871" x="545.438" y="747.7451">SesionResponse</text><polygon fill="#181818" points="320.3828,828.0078,310.3828,832.0078,320.3828,836.0078,316.3828,832.0078" style="stroke:#181818;stroke-width:1;"/><line style="stroke:#181818;stroke-width:1;stroke-dasharray:2.0,2.0;" x1="314.3828" x2="522.438" y1="832.0078" y2="832.0078"/><text fill="#000000" font-family="sans-serif" font-size="13" lengthAdjust="spacing" textLength="155.7397" x="326.3828" y="778.0967">200 OK + cookie de sesi&#243;n</text><text fill="#000000" font-family="sans-serif" font-size="13" lengthAdjust="spacing" textLength="142.708" x="326.3828" y="794.4482">HttpOnly, SameSite=Lax</text><text fill="#000000" font-family="sans-serif" font-size="13" lengthAdjust="spacing" textLength="126.4707" x="326.3828" y="810.7998">Secure en producci&#243;n</text><text fill="#000000" font-family="sans-serif" font-size="13" lengthAdjust="spacing" textLength="98.2871" x="326.3828" y="827.1514">SesionResponse</text><polygon fill="#181818" points="506.438,874.7109,516.438,878.7109,506.438,882.7109,510.438,878.7109" style="stroke:#181818;stroke-width:1;"/><line style="stroke:#181818;stroke-width:1;" x1="309.3828" x2="512.438" y1="878.7109" y2="878.7109"/><text fill="#000000" font-family="sans-serif" font-size="13" lengthAdjust="spacing" textLength="104.7617" x="316.3828" y="857.5029">GET /api/auth/csrf</text><text fill="#000000" font-family="sans-serif" font-size="13" lengthAdjust="spacing" textLength="190.0552" x="316.3828" y="873.8545">Renovar token tras autenticaci&#243;n</text><path d="M743,891.7109 L743,917.7109 L1014,917.7109 L1014,901.7109 L1004,891.7109 L743,891.7109 " fill="#FEFFDD" style="stroke:#181818;stroke-width:0.5;"/><path d="M1004,891.7109 L1004,901.7109 L1014,901.7109 L1004,891.7109 " fill="#FEFFDD" style="stroke:#181818;stroke-width:0.5;"/><text fill="#000000" font-family="sans-serif" font-size="13" lengthAdjust="spacing" textLength="250.7578" x="749" y="910.2061">Responsabilidad interna: obtenerTokenCsrf</text><polygon fill="#181818" points="539.438,941.4141,529.438,945.4141,539.438,949.4141,535.438,945.4141" style="stroke:#181818;stroke-width:1;"/><line style="stroke:#181818;stroke-width:1;stroke-dasharray:2.0,2.0;" x1="533.438" x2="732.7568" y1="945.4141" y2="945.4141"/><text fill="#000000" font-family="sans-serif" font-size="13" lengthAdjust="spacing" textLength="176.3188" x="545.438" y="940.5576">CsrfTokenResponse renovado</text><polygon fill="#181818" points="320.3828,988.1172,310.3828,992.1172,320.3828,996.1172,316.3828,992.1172" style="stroke:#181818;stroke-width:1;"/><line style="stroke:#181818;stroke-width:1;stroke-dasharray:2.0,2.0;" x1="314.3828" x2="522.438" y1="992.1172" y2="992.1172"/><text fill="#000000" font-family="sans-serif" font-size="13" lengthAdjust="spacing" textLength="44.0845" x="326.3828" y="970.9092">200 OK</text><text fill="#000000" font-family="sans-serif" font-size="13" lengthAdjust="spacing" textLength="176.3188" x="326.3828" y="987.2607">CsrfTokenResponse renovado</text><polygon fill="#181818" points="72.5239,1018.4688,62.5239,1022.4688,72.5239,1026.4688,68.5239,1022.4688" style="stroke:#181818;stroke-width:1;"/><line style="stroke:#181818;stroke-width:1;stroke-dasharray:2.0,2.0;" x1="66.5239" x2="298.3828" y1="1022.4688" y2="1022.4688"/><text fill="#000000" font-family="sans-serif" font-size="13" lengthAdjust="spacing" textLength="213.8589" x="78.5239" y="1017.6123">Abre PANEL_PRINCIPAL_ABIERTO</text><line style="stroke:#000000;stroke-width:1;stroke-dasharray:2.0,2.0;" x1="10" x2="1624.96" y1="1031.4688" y2="1031.4688"/><text fill="#000000" font-family="sans-serif" font-size="11" font-weight="bold" lengthAdjust="spacing" textLength="235.356" x="15" y="1042.8877">[Credenciales incorrectas o usuario inactivo]</text><polygon fill="#181818" points="534.438,1064.6563,524.438,1068.6563,534.438,1072.6563,530.438,1068.6563" style="stroke:#181818;stroke-width:1;"/><line style="stroke:#181818;stroke-width:1;stroke-dasharray:2.0,2.0;" x1="528.438" x2="841.9634" y1="1068.6563" y2="1068.6563"/><text fill="#000000" font-family="sans-serif" font-size="13" lengthAdjust="spacing" textLength="197.2661" x="540.438" y="1063.7998">CredencialesIncorrectasException</text><polygon fill="#181818" points="320.3828,1095.0078,310.3828,1099.0078,320.3828,1103.0078,316.3828,1099.0078" style="stroke:#181818;stroke-width:1;"/><line style="stroke:#181818;stroke-width:1;stroke-dasharray:2.0,2.0;" x1="314.3828" x2="522.438" y1="1099.0078" y2="1099.0078"/><text fill="#000000" font-family="sans-serif" font-size="13" lengthAdjust="spacing" textLength="102.6289" x="326.3828" y="1094.1514">401 Unauthorized</text><polygon fill="#181818" points="72.5239,1141.7109,62.5239,1145.7109,72.5239,1149.7109,68.5239,1145.7109" style="stroke:#181818;stroke-width:1;"/><line style="stroke:#181818;stroke-width:1;stroke-dasharray:2.0,2.0;" x1="66.5239" x2="298.3828" y1="1145.7109" y2="1145.7109"/><text fill="#000000" font-family="sans-serif" font-size="13" lengthAdjust="spacing" textLength="195.8188" x="78.5239" y="1124.5029">Presenta credenciales incorrectas</text><text fill="#000000" font-family="sans-serif" font-size="13" lengthAdjust="spacing" textLength="103.3208" x="78.5239" y="1140.8545">Permite reintentar</text><!--SRC=[hLNRRjiu47tNLmpor6mJ95liaz6cy4LfZNLZGqhH5mF1X9guH6LIIz96tN_QXqK_8J_M8MdTOZXjWVM38D9ppjpEZ9nq9S54uihW6g4Wi2Gsf8H4E8UfalnY-CxAn-ygIL0uRM2ijIcamaARf4BZsAX2vU1afbTIBN15I_KY8pO-FG6qS6sqSgIAll5mupwF-G-Zov8C8_BAIBM2aTPxtB2IVSZU8kSGZNIxO5GV3ibpCbifA5BnkM_nqMxGI9rHfQtah2ARFoO5Ehn7It0oyaykoWITji5WCdeI4fT6gwwhU9CaIZi2lQLUlSxQOgJMyGrKXhPI3o1Fy-dyvcwSPjbmCapO0Zn3adJGS7xLu1cXImx38Q0GLB0VBC5AwsYDlb5oYnn0uwv-WNCcwN0EO678acAU1stMcz9NnUViMQq-xdxgMrTi1C4cbX9s87m_kMQF_s77uPNlv03UfRTmWPMyG6x6XR3ceGtJjpeKpCZLPmVweUdhW7jYAwqitijI5bY0P5gZS03wdld9tEelfCOzkaOKzKl8EaJX3GDYJqj9GOSuDWsGDjrNbvSm_tkfdiNxD0xoNippRkAb7vAb2hEIqJyRiWvUWlEKCCwpwtvHGY1NGRy3O3mtIWeqB_OrFsjAhl2qW_Hozm-FzPeUm8DKnMXtezVtXlRQhqawmA1___30oSZBSfQER-4FkCxc7-fEM_ZqFirI5gXdkwlx_mRUjamyA9DHg67ql_S96hOe7l_LtRAnRVJPP3gl70yHbg_tiAkkUGYopkvNAdC60Sk99bWw61iU5x_YIh9iPGm9nuExQuGShHFWNtHJjx9Eed5NHAkk17pf0p9sBgw30GX3QEAX3P5ttsamxYWmR0z_5rzRv_7SoEw9tmxmc7XPPaBhBvBYdWyxVQdUErVDLRaxWnpNb4j7RsRuTQd2B12mAgimvoAQFn-5bwo_-eNXNpA9qbl-l4Jj-rwrXGtU-gNvVtR4ashlvptM-wUx0am8-R3hFQBVM1v72GyB-NHj3tdqO36yIMTtYsnwCvukXhExuMYQPhVpX4hcxkbSgbRfkb4wantJUXSzRS7fLq5XE9yNVY_zlox_X8_ATruR-OsAtq-s-KQ98pajrOBCMdfra6y-snh_4UtkZUPR-0C0]--></g></svg>