<svg xmlns="http://www.w3.org/2000/svg" xmlns:xlink="http://www.w3.org/1999/xlink" contentStyleType="text/css" data-diagram-type="DESCRIPTION" height="537px" preserveAspectRatio="none" style="width:2389px;height:537px;background:#FFFFFF;" version="1.1" viewBox="0 0 2389 537" width="2389px" zoomAndPan="magnify"><defs/><g><!--cluster abrirOpcionesPerfil--><g class="cluster" data-entity="abrirOpcionesPerfil" data-source-line="6" data-uid="ent0005" id="cluster_abrirOpcionesPerfil"><path d="M225,109 L365.2549,109 A3.75,3.75 0 0 1 367.7549,111.5 L374.7549,132.6094 L764,132.6094 A2.5,2.5 0 0 1 766.5,135.1094 L766.5,527.5 A2.5,2.5 0 0 1 764,530 L225,530 A2.5,2.5 0 0 1 222.5,527.5 L222.5,111.5 A2.5,2.5 0 0 1 225,109" fill="none" style="stroke:#000000;stroke-width:1.5;"/><line style="stroke:#000000;stroke-width:1.5;" x1="222.5" x2="374.7549" y1="132.6094" y2="132.6094"/><text fill="#000000" font-family="sans-serif" font-size="14" font-weight="bold" lengthAdjust="spacing" textLength="139.2549" x="226.5" y="125.5332">abrirOpcionesPerfil()</text></g><!--entity OpcionesPerfilView--><g class="entity" data-entity="OpcionesPerfilView" data-source-line="7" data-uid="ent0006" id="entity_OpcionesPerfilView"><rect fill="#629EF9" height="37.6094" rx="2.5" ry="2.5" style="stroke:#181818;stroke-width:0.5;" width="141.3857" x="609" y="145"/><text fill="#000000" font-family="sans-serif" font-size="14" lengthAdjust="spacing" textLength="121.3857" x="619" y="169.5332">OpcionesPerfilView</text></g><!--entity PerfilController--><g class="entity" data-entity="PerfilController" data-source-line="8" data-uid="ent0007" id="entity_PerfilController"><rect fill="#B5BD68" height="37.6094" rx="2.5" ry="2.5" style="stroke:#181818;stroke-width:0.5;" width="112.5859" x="314" y="261"/><text fill="#000000" font-family="sans-serif" font-size="14" lengthAdjust="spacing" textLength="92.5859" x="324" y="285.5332">PerfilController</text></g><!--entity PerfilRepository--><g class="entity" data-entity="PerfilRepository" data-source-line="9" data-uid="ent0008" id="entity_PerfilRepository"><rect fill="#F2AC4E" height="37.6094" rx="2.5" ry="2.5" style="stroke:#181818;stroke-width:0.5;" width="118.8135" x="378" y="377"/><text fill="#000000" font-family="sans-serif" font-size="14" lengthAdjust="spacing" textLength="98.8135" x="388" y="401.5332">PerfilRepository</text></g><!--entity Perfil--><g class="entity" data-entity="Perfil" data-source-line="10" data-uid="ent0009" id="entity_Perfil"><rect fill="#F2AC4E" height="37.6094" rx="2.5" ry="2.5" style="stroke:#181818;stroke-width:0.5;" width="51.8965" x="411.5" y="476"/><text fill="#000000" font-family="sans-serif" font-size="14" lengthAdjust="spacing" textLength="31.8965" x="421.5" y="500.5332">Perfil</text></g><!--entity EstadoEntradaInvestigador--><g class="entity" data-entity="EstadoEntradaInvestigador" data-source-line="3" data-uid="ent0002" id="entity_EstadoEntradaInvestigador"><rect fill="#CDEBA5" height="37.6094" rx="2.5" ry="2.5" style="stroke:#181818;stroke-width:0.5;" width="198.9238" x="7" y="145"/><text fill="#000000" font-family="sans-serif" font-size="14" lengthAdjust="spacing" textLength="178.9238" x="17" y="169.5332">:INVESTIGADOR_ABIERTO</text></g><!--entity EstadoEntradaPanel--><g class="entity" data-entity="EstadoEntradaPanel" data-source-line="4" data-uid="ent0003" id="entity_EstadoEntradaPanel"><rect fill="#CDEBA5" height="37.6094" rx="2.5" ry="2.5" style="stroke:#181818;stroke-width:0.5;" width="220.7373" x="408" y="7"/><text fill="#000000" font-family="sans-serif" font-size="14" lengthAdjust="spacing" textLength="200.7373" x="418" y="31.5332">:PANEL_PRINCIPAL_ABIERTO</text></g><!--entity EstadoEntradaSolicitudes--><g class="entity" data-entity="EstadoEntradaSolicitudes" data-source-line="5" data-uid="ent0004" id="entity_EstadoEntradaSolicitudes"><rect fill="#CDEBA5" height="37.6094" rx="2.5" ry="2.5" style="stroke:#181818;stroke-width:0.5;" width="349.8682" x="664.5" y="7"/><text fill="#000000" font-family="sans-serif" font-size="14" lengthAdjust="spacing" textLength="329.8682" x="674.5" y="31.5332">:SOLICITUDES_ELIMINACION_PERFIL_ABIERTAS</text></g><!--entity EstadoSalida--><g class="entity" data-entity="EstadoSalida" data-source-line="13" data-uid="ent0010" id="entity_EstadoSalida"><rect fill="#CDEBA5" height="37.6094" rx="2.5" ry="2.5" style="stroke:#181818;stroke-width:0.5;" width="223.834" x="782.5" y="261"/><text fill="#000000" font-family="sans-serif" font-size="14" lengthAdjust="spacing" textLength="203.834" x="792.5" y="285.5332">:OPCIONES_PERFIL_ABIERTO</text></g><!--entity EditarPerfil--><g class="entity" data-entity="EditarPerfil" data-source-line="14" data-uid="ent0011" id="entity_EditarPerfil"><rect fill="#CDEBA5" height="37.6094" rx="2.5" ry="2.5" style="stroke:#181818;stroke-width:0.5;" width="178.7441" x="1042" y="261"/><text fill="#000000" font-family="sans-serif" font-size="14" lengthAdjust="spacing" textLength="158.7441" x="1052" y="285.5332">:Collaboration EditarPerfil</text></g><!--entity SolicitarEliminacionPerfil--><g class="entity" data-entity="SolicitarEliminacionPerfil" data-source-line="15" data-uid="ent0012" id="entity_SolicitarEliminacionPerfil"><rect fill="#CDEBA5" height="37.6094" rx="2.5" ry="2.5" style="stroke:#181818;stroke-width:0.5;" width="263.5508" x="1256.5" y="261"/><text fill="#000000" font-family="sans-serif" font-size="14" lengthAdjust="spacing" textLength="243.5508" x="1266.5" y="285.5332">:Collaboration SolicitarEliminacionPerfil</text></g><!--entity AbrirPanelPrincipal--><g class="entity" data-entity="AbrirPanelPrincipal" data-source-line="16" data-uid="ent0013" id="entity_AbrirPanelPrincipal"><rect fill="#CDEBA5" height="37.6094" rx="2.5" ry="2.5" style="stroke:#181818;stroke-width:0.5;" width="229.3301" x="1556" y="261"/><text fill="#000000" font-family="sans-serif" font-size="14" lengthAdjust="spacing" textLength="209.3301" x="1566" y="285.5332">:Collaboration AbrirPanelPrincipal</text></g><!--entity AbrirInvestigador--><g class="entity" data-entity="AbrirInvestigador" data-source-line="17" data-uid="ent0014" id="entity_AbrirInvestigador"><rect fill="#CDEBA5" height="37.6094" rx="2.5" ry="2.5" style="stroke:#181818;stroke-width:0.5;" width="216.1025" x="1820.5" y="261"/><text fill="#000000" font-family="sans-serif" font-size="14" lengthAdjust="spacing" textLength="196.1025" x="1830.5" y="285.5332">:Collaboration AbrirInvestigador</text></g><!--entity AbrirSolicitudesEliminacionPerfil--><g class="entity" data-entity="AbrirSolicitudesEliminacionPerfil" data-source-line="18" data-uid="ent0015" id="entity_AbrirSolicitudesEliminacionPerfil"><rect fill="#CDEBA5" height="37.6094" rx="2.5" ry="2.5" style="stroke:#181818;stroke-width:0.5;" width="311.0195" x="2072" y="261"/><text fill="#000000" font-family="sans-serif" font-size="14" lengthAdjust="spacing" textLength="291.0195" x="2082" y="285.5332">:Collaboration AbrirSolicitudesEliminacionPerfil</text></g><!--link EstadoEntradaInvestigador to OpcionesPerfilView--><g class="link" data-entity-1="EstadoEntradaInvestigador" data-entity-2="OpcionesPerfilView" data-source-line="20" data-uid="lnk16" id="link_EstadoEntradaInvestigador_OpcionesPerfilView"><path d="M206.31,164 C321.42,164 501.75,164 602.83,164" fill="none" id="EstadoEntradaInvestigador-to-OpcionesPerfilView" style="stroke:#181818;stroke-width:1;"/><polygon fill="#181818" points="608.83,164,599.83,160,603.83,164,599.83,168,608.83,164" style="stroke:#181818;stroke-width:1;"/><text fill="#000000" font-family="sans-serif" font-size="13" lengthAdjust="spacing" textLength="129.3208" x="343" y="157.4951">abrirOpcionesPerfil(id)</text></g><!--link EstadoEntradaPanel to OpcionesPerfilView--><g class="link" data-entity-1="EstadoEntradaPanel" data-entity-2="OpcionesPerfilView" data-source-line="21" data-uid="lnk17" id="link_EstadoEntradaPanel_OpcionesPerfilView"><path d="M539.88,45.06 C570.67,71.07 622.6071,114.9374 653.4471,140.9974" fill="none" id="EstadoEntradaPanel-to-OpcionesPerfilView" style="stroke:#181818;stroke-width:1;"/><polygon fill="#181818" points="658.03,144.87,653.7374,136.0058,654.2109,141.6428,648.5739,142.1164,658.03,144.87" style="stroke:#181818;stroke-width:1;"/><text fill="#000000" font-family="sans-serif" font-size="13" lengthAdjust="spacing" textLength="119.2026" x="594.5" y="89.4951">abrirOpcionesPerfil()</text></g><!--link EstadoEntradaSolicitudes to OpcionesPerfilView--><g class="link" data-entity-1="EstadoEntradaSolicitudes" data-entity-2="OpcionesPerfilView" data-source-line="22" data-uid="lnk18" id="link_EstadoEntradaSolicitudes_OpcionesPerfilView"><path d="M818.25,45.06 C787.65,71.07 736.0617,114.9242 705.4017,140.9842" fill="none" id="EstadoEntradaSolicitudes-to-OpcionesPerfilView" style="stroke:#181818;stroke-width:1;"/><polygon fill="#181818" points="700.83,144.87,710.2781,142.0891,704.6398,141.6318,705.097,135.9935,700.83,144.87" style="stroke:#181818;stroke-width:1;"/><text fill="#000000" font-family="sans-serif" font-size="13" lengthAdjust="spacing" textLength="119.2026" x="779.5" y="89.4951">abrirOpcionesPerfil()</text></g><!--link OpcionesPerfilView to PerfilController--><g class="link" data-entity-1="OpcionesPerfilView" data-entity-2="PerfilController" data-source-line="24" data-uid="lnk19" id="link_OpcionesPerfilView_PerfilController"><path d="M608.72,173.31 C491.66,187.04 270.5,213 270.5,213 C270.5,213 270.5,231 270.5,231 C270.5,231 299.1907,244.774 327.5707,258.394" fill="none" id="OpcionesPerfilView-to-PerfilController" style="stroke:#181818;stroke-width:1;"/><polygon fill="#181818" points="332.98,260.99,326.5967,253.4898,328.4722,258.8267,323.1353,260.7022,332.98,260.99" style="stroke:#181818;stroke-width:1;"/><text fill="#000000" font-family="sans-serif" font-size="13" lengthAdjust="spacing" textLength="131.5107" x="271.5" y="227.4951">obtenerPerfil(contexto)</text></g><!--link OpcionesPerfilView to PerfilController--><g class="link" data-entity-1="OpcionesPerfilView" data-entity-2="PerfilController" data-source-line="25" data-uid="lnk20" id="link_OpcionesPerfilView_PerfilController"><path d="M608.72,180.58 C545.07,194.6 461.5,213 461.5,213 C461.5,213 427.1661,237.896 400.2261,257.446" fill="none" id="OpcionesPerfilView-to-PerfilController-1" style="stroke:#181818;stroke-width:1;"/><polygon fill="#181818" points="395.37,260.97,405.0034,258.9214,399.4167,258.0333,400.3048,252.4466,395.37,260.97" style="stroke:#181818;stroke-width:1;"/><text fill="#000000" font-family="sans-serif" font-size="13" lengthAdjust="spacing" textLength="302.7705" x="462.5" y="227.4951">prepararAccionesDisponibles(coordinador, contexto)</text></g><!--link PerfilController to PerfilRepository--><g class="link" data-entity-1="PerfilController" data-entity-2="PerfilRepository" data-source-line="26" data-uid="lnk21" id="link_PerfilController_PerfilRepository"><path d="M337.48,299.01 C312.51,312.63 282.5,329 282.5,329 C282.5,329 282.5,347 282.5,347 C282.5,347 329.6285,361.595 373.6085,375.215" fill="none" id="PerfilController-to-PerfilRepository" style="stroke:#181818;stroke-width:1;"/><polygon fill="#181818" points="379.34,376.99,371.9261,370.5066,374.5638,375.5109,369.5595,378.1485,379.34,376.99" style="stroke:#181818;stroke-width:1;"/><text fill="#000000" font-family="sans-serif" font-size="13" lengthAdjust="spacing" textLength="250.0215" x="283.5" y="343.4951">obtenerPerfilPropioOInvestigador(contexto)</text></g><!--link PerfilController to PerfilRepository--><g class="link" data-entity-1="PerfilController" data-entity-2="PerfilRepository" data-source-line="27" data-uid="lnk22" id="link_PerfilController_PerfilRepository"><path d="M427.38,297.25 C476.12,311.18 538.5,329 538.5,329 C538.5,329 538.5,347 538.5,347 C538.5,347 509.4792,360.7947 480.8192,374.4147" fill="none" id="PerfilController-to-PerfilRepository-1" style="stroke:#181818;stroke-width:1;"/><polygon fill="#181818" points="475.4,376.99,485.2457,376.7398,479.916,374.8439,481.8119,369.5142,475.4,376.99" style="stroke:#181818;stroke-width:1;"/><text fill="#000000" font-family="sans-serif" font-size="13" lengthAdjust="spacing" textLength="137.2427" x="539.5" y="343.4951">verificarPermisos(actor)</text></g><!--link PerfilRepository to Perfil--><g class="link" data-entity-1="PerfilRepository" data-entity-2="Perfil" data-source-line="28" data-uid="lnk23" id="link_PerfilRepository_Perfil"><path d="M437.5,415.24 C437.5,432.59 437.5,458.52 437.5,475.84" fill="none" id="PerfilRepository-Perfil" style="stroke:#181818;stroke-width:1;"/></g><!--link OpcionesPerfilView to EstadoSalida--><g class="link" data-entity-1="OpcionesPerfilView" data-entity-2="EstadoSalida" data-source-line="29" data-uid="lnk24" id="link_OpcionesPerfilView_EstadoSalida"><path d="M713.57,183.06 C753.71,204.35 814.709,236.6894 854.939,258.0194" fill="none" id="OpcionesPerfilView-to-EstadoSalida" style="stroke:#181818;stroke-width:1;stroke-dasharray:7,7;"/><polygon fill="#181818" points="860.24,260.83,854.1622,253.0801,855.8225,258.4878,850.4148,260.1481,860.24,260.83" style="stroke:#181818;stroke-width:1;"/><text fill="#000000" font-family="sans-serif" font-size="13" lengthAdjust="spacing" textLength="131.5044" x="800.5" y="227.4951">opcionesPerfilAbierto()</text></g><!--link OpcionesPerfilView to EditarPerfil--><g class="link" data-entity-1="OpcionesPerfilView" data-entity-2="EditarPerfil" data-source-line="30" data-uid="lnk25" id="link_OpcionesPerfilView_EditarPerfil"><path d="M750.13,177.99 C827.43,192.2 940.5,213 940.5,213 C940.5,213 1017.0893,239.4596 1073.6393,259.0096" fill="none" id="OpcionesPerfilView-to-EditarPerfil" style="stroke:#181818;stroke-width:1;stroke-dasharray:7,7;"/><polygon fill="#181818" points="1079.31,260.97,1072.1109,254.2489,1074.5844,259.3363,1069.497,261.8098,1079.31,260.97" style="stroke:#181818;stroke-width:1;"/><text fill="#000000" font-family="sans-serif" font-size="13" lengthAdjust="spacing" textLength="70.7954" x="992.5" y="227.4951">editarPerfil()</text></g><!--link OpcionesPerfilView to SolicitarEliminacionPerfil--><g class="link" data-entity-1="OpcionesPerfilView" data-entity-2="SolicitarEliminacionPerfil" data-source-line="31" data-uid="lnk26" id="link_OpcionesPerfilView_SolicitarEliminacionPerfil"><path d="M750.03,173.64 C862.89,187.46 1071.5,213 1071.5,213 C1071.5,213 1202.1461,240.1965 1296.0061,259.7465" fill="none" id="OpcionesPerfilView-to-SolicitarEliminacionPerfil" style="stroke:#181818;stroke-width:1;stroke-dasharray:7,7;"/><polygon fill="#181818" points="1301.88,260.97,1293.8847,255.2188,1296.9851,259.9504,1292.2534,263.0507,1301.88,260.97" style="stroke:#181818;stroke-width:1;"/><text fill="#000000" font-family="sans-serif" font-size="13" lengthAdjust="spacing" textLength="148.8145" x="1157.5" y="227.4951">solicitarEliminacionPerfil()</text></g><!--link OpcionesPerfilView to AbrirPanelPrincipal--><g class="link" data-entity-1="OpcionesPerfilView" data-entity-2="AbrirPanelPrincipal" data-source-line="32" data-uid="lnk27" id="link_OpcionesPerfilView_AbrirPanelPrincipal"><path d="M750.19,170.34 C915.7,182.85 1314.5,213 1314.5,213 C1314.5,213 1461.9206,240.3258 1567.3206,259.8758" fill="none" id="OpcionesPerfilView-to-AbrirPanelPrincipal" style="stroke:#181818;stroke-width:1;stroke-dasharray:7,7;"/><polygon fill="#181818" points="1573.22,260.97,1565.1004,255.3957,1568.3039,260.0581,1563.6414,263.2616,1573.22,260.97" style="stroke:#181818;stroke-width:1;"/><text fill="#000000" font-family="sans-serif" font-size="13" lengthAdjust="spacing" textLength="117.7681" x="1410.5" y="227.4951">abrirPanelPrincipal()</text></g><!--link OpcionesPerfilView to AbrirInvestigador--><g class="link" data-entity-1="OpcionesPerfilView" data-entity-2="AbrirInvestigador" data-source-line="33" data-uid="lnk28" id="link_OpcionesPerfilView_AbrirInvestigador"><path d="M750.36,168.97 C955.69,180.47 1536.5,213 1536.5,213 C1536.5,213 1699.4034,240.4234 1815.4634,259.9734" fill="none" id="OpcionesPerfilView-to-AbrirInvestigador" style="stroke:#181818;stroke-width:1;stroke-dasharray:7,7;"/><polygon fill="#181818" points="1821.38,260.97,1813.1695,255.5306,1816.4495,260.1395,1811.8406,263.4195,1821.38,260.97" style="stroke:#181818;stroke-width:1;"/><text fill="#000000" font-family="sans-serif" font-size="13" lengthAdjust="spacing" textLength="115.6035" x="1642.5" y="227.4951">abrirInvestigador(id)</text></g><!--link OpcionesPerfilView to AbrirSolicitudesEliminacionPerfil--><g class="link" data-entity-1="OpcionesPerfilView" data-entity-2="AbrirSolicitudesEliminacionPerfil" data-source-line="34" data-uid="lnk29" id="link_OpcionesPerfilView_AbrirSolicitudesEliminacionPerfil"><path d="M750.4,168.13 C991.75,178.79 1766.5,213 1766.5,213 C1766.5,213 1959.1006,240.5693 2095.5906,260.1193" fill="none" id="OpcionesPerfilView-to-AbrirSolicitudesEliminacionPerfil" style="stroke:#181818;stroke-width:1;stroke-dasharray:7,7;"/><polygon fill="#181818" points="2101.53,260.97,2093.1881,255.7343,2096.5805,260.2611,2092.0538,263.6535,2101.53,260.97" style="stroke:#181818;stroke-width:1;"/><text fill="#000000" font-family="sans-serif" font-size="13" lengthAdjust="spacing" textLength="193.6226" x="1890.5" y="227.4951">abrirSolicitudesEliminacionPerfil()</text></g><!--SRC=[bPHHRzem58NVyoiizXAaqOTghLOUAhd1J9OOYGZjAt8I5rtLn97jTKFJ_lkS9WWdE1HuYttEbvjxxq6_GLannNP8GCdDlkAeac9VFmI1uhbXvLPmz2MQaITyXqPJkdmXwPh-mBDujS5FbApMyGWnZOWsh92aD8eLZ9RlN1lOsXFbnIHuIHQRP4MN4KtmOfYKi98BBoAD5pIYw-SPIJTaGN_I9OvelDmaP3Md1o9EJv6f5923-LLm7LGiVsDRZbYcGCLL3hBaEk7g5KJj6tdEm_48_GsG_JbLtTy-aFa3wYfVWF_k2xExhBZ_ZXf196r5KWYk-hBvBOw-aLQsufNKOAJQdvK5__mZYvEwBxPBdSwulKwPW89vpP4jZsLICMC_394235FDwng_St21lsqzKqJ03afMTykX3LzVmCRrg3xM9L5Gvb2n1kevlvJchl6HzUboUqZEpla__LDL40mc34tKvD6pUrFVMeTGZ8FJYA59SGMZHt3glfOJd4eRH3yXKoGpmqlUBbkOsnl-nyYnb-05L8hN_tKAvurX1hgI9MI2QukJgh0Dj-tyYexiFiGX7rFPAorHiW8PknCAhoQ-SmMla7zaQmTQwf3bzkRWFqgj_v1_JoDkRXux6RUbTaGu0wwC3CU3PYVWKyITfs7FS8odI0_U3VCy2MxNgNlu2S4TIEllpAWEnZd_kNIsl7CIMzr_]--></g></svg>