<svg xmlns="http://www.w3.org/2000/svg" xmlns:xlink="http://www.w3.org/1999/xlink" contentStyleType="text/css" height="537px" preserveAspectRatio="none" style="width:1921px;height:537px;background:#FFFFFF;" version="1.1" viewBox="0 0 1921 537" width="1921px" zoomAndPan="magnify"><defs/><g><!--cluster abrirOpcionesPerfil--><g id="cluster_abrirOpcionesPerfil"><path d="M8.5,109 L148.7549,109 A3.75,3.75 0 0 1 151.2549,111.5 L158.2549,132.6094 L548.5,132.6094 A2.5,2.5 0 0 1 551,135.1094 L551,527.5 A2.5,2.5 0 0 1 548.5,530 L8.5,530 A2.5,2.5 0 0 1 6,527.5 L6,111.5 A2.5,2.5 0 0 1 8.5,109 " fill="none" style="stroke:#000000;stroke-width:1.5;"/><line style="stroke:#000000;stroke-width:1.5;" x1="6" x2="158.2549" y1="132.6094" y2="132.6094"/><text fill="#000000" font-family="sans-serif" font-size="14" font-weight="bold" lengthAdjust="spacing" textLength="139.2549" x="10" y="125.5332">abrirOpcionesPerfil()</text></g><!--entity OpcionesPerfilView--><g id="elem_OpcionesPerfilView"><rect fill="#629EF9" height="37.6094" rx="2.5" ry="2.5" style="stroke:#181818;stroke-width:0.5;" width="141.3857" x="393.5" y="145"/><text fill="#000000" font-family="sans-serif" font-size="14" lengthAdjust="spacing" textLength="121.3857" x="403.5" y="169.5332">OpcionesPerfilView</text></g><!--entity PerfilController--><g id="elem_PerfilController"><rect fill="#B5BD68" height="37.6094" rx="2.5" ry="2.5" style="stroke:#181818;stroke-width:0.5;" width="112.5859" x="125.5" y="261"/><text fill="#000000" font-family="sans-serif" font-size="14" lengthAdjust="spacing" textLength="92.5859" x="135.5" y="285.5332">PerfilController</text></g><!--entity PerfilRepository--><g id="elem_PerfilRepository"><rect fill="#F2AC4E" height="37.6094" rx="2.5" ry="2.5" style="stroke:#181818;stroke-width:0.5;" width="118.8135" x="129.5" y="377"/><text fill="#000000" font-family="sans-serif" font-size="14" lengthAdjust="spacing" textLength="98.8135" x="139.5" y="401.5332">PerfilRepository</text></g><!--entity Perfil--><g id="elem_Perfil"><rect fill="#F2AC4E" height="37.6094" rx="2.5" ry="2.5" style="stroke:#181818;stroke-width:0.5;" width="51.8965" x="163" y="476"/><text fill="#000000" font-family="sans-serif" font-size="14" lengthAdjust="spacing" textLength="31.8965" x="173" y="500.5332">Perfil</text></g><!--entity EstadoEntradaPanel--><g id="elem_EstadoEntradaPanel"><rect fill="#CDEBA5" height="37.6094" rx="2.5" ry="2.5" style="stroke:#181818;stroke-width:0.5;" width="220.7373" x="193.5" y="7"/><text fill="#000000" font-family="sans-serif" font-size="14" lengthAdjust="spacing" textLength="200.7373" x="203.5" y="31.5332">:PANEL_PRINCIPAL_ABIERTO</text></g><!--entity EstadoEntradaSolicitudes--><g id="elem_EstadoEntradaSolicitudes"><rect fill="#CDEBA5" height="37.6094" rx="2.5" ry="2.5" style="stroke:#181818;stroke-width:0.5;" width="349.8682" x="450" y="7"/><text fill="#000000" font-family="sans-serif" font-size="14" lengthAdjust="spacing" textLength="329.8682" x="460" y="31.5332">:SOLICITUDES_ELIMINACION_PERFIL_ABIERTAS</text></g><!--entity EstadoSalida--><g id="elem_EstadoSalida"><rect fill="#CDEBA5" height="37.6094" rx="2.5" ry="2.5" style="stroke:#181818;stroke-width:0.5;" width="223.834" x="567" y="261"/><text fill="#000000" font-family="sans-serif" font-size="14" lengthAdjust="spacing" textLength="203.834" x="577" y="285.5332">:OPCIONES_PERFIL_ABIERTO</text></g><!--entity EditarPerfil--><g id="elem_EditarPerfil"><rect fill="#CDEBA5" height="37.6094" rx="2.5" ry="2.5" style="stroke:#181818;stroke-width:0.5;" width="178.7441" x="826.5" y="261"/><text fill="#000000" font-family="sans-serif" font-size="14" lengthAdjust="spacing" textLength="158.7441" x="836.5" y="285.5332">:Collaboration EditarPerfil</text></g><!--entity SolicitarEliminacionPerfil--><g id="elem_SolicitarEliminacionPerfil"><rect fill="#CDEBA5" height="37.6094" rx="2.5" ry="2.5" style="stroke:#181818;stroke-width:0.5;" width="263.5508" x="1041" y="261"/><text fill="#000000" font-family="sans-serif" font-size="14" lengthAdjust="spacing" textLength="243.5508" x="1051" y="285.5332">:Collaboration SolicitarEliminacionPerfil</text></g><!--entity AbrirPanelPrincipal--><g id="elem_AbrirPanelPrincipal"><rect fill="#CDEBA5" height="37.6094" rx="2.5" ry="2.5" style="stroke:#181818;stroke-width:0.5;" width="229.3301" x="1340.5" y="261"/><text fill="#000000" font-family="sans-serif" font-size="14" lengthAdjust="spacing" textLength="209.3301" x="1350.5" y="285.5332">:Collaboration AbrirPanelPrincipal</text></g><!--entity AbrirSolicitudesEliminacionPerfil--><g id="elem_AbrirSolicitudesEliminacionPerfil"><rect fill="#CDEBA5" height="37.6094" rx="2.5" ry="2.5" style="stroke:#181818;stroke-width:0.5;" width="311.0195" x="1604.5" y="261"/><text fill="#000000" font-family="sans-serif" font-size="14" lengthAdjust="spacing" textLength="291.0195" x="1614.5" y="285.5332">:Collaboration AbrirSolicitudesEliminacionPerfil</text></g><!--link EstadoEntradaPanel to OpcionesPerfilView--><g id="link_EstadoEntradaPanel_OpcionesPerfilView"><path d="M325.25,45.06 C355.85,71.07 407.4383,114.9242 438.0983,140.9842 " fill="none" id="EstadoEntradaPanel-to-OpcionesPerfilView" style="stroke:#181818;stroke-width:1;"/><polygon fill="#181818" points="442.67,144.87,438.403,135.9935,438.8602,141.6318,433.2219,142.0891,442.67,144.87" style="stroke:#181818;stroke-width:1;"/><text fill="#000000" font-family="sans-serif" font-size="13" lengthAdjust="spacing" textLength="119.2026" x="380" y="89.4951">abrirOpcionesPerfil()</text></g><!--link EstadoEntradaSolicitudes to OpcionesPerfilView--><g id="link_EstadoEntradaSolicitudes_OpcionesPerfilView"><path d="M603.62,45.06 C572.83,71.07 520.8929,114.9374 490.0529,140.9974 " fill="none" id="EstadoEntradaSolicitudes-to-OpcionesPerfilView" style="stroke:#181818;stroke-width:1;"/><polygon fill="#181818" points="485.47,144.87,494.9261,142.1164,489.2891,141.6428,489.7626,136.0058,485.47,144.87" style="stroke:#181818;stroke-width:1;"/><text fill="#000000" font-family="sans-serif" font-size="13" lengthAdjust="spacing" textLength="119.2026" x="564" y="89.4951">abrirOpcionesPerfil()</text></g><!--link OpcionesPerfilView to PerfilController--><g id="link_OpcionesPerfilView_PerfilController"><path d="M393.05,173.31 C275.7,187.04 54,213 54,213 C54,213 54,231 54,231 C54,231 92.032,245.2633 128.352,258.8833 " fill="none" id="OpcionesPerfilView-to-PerfilController" style="stroke:#181818;stroke-width:1;"/><polygon fill="#181818" points="133.97,260.99,126.9475,254.0846,129.2884,259.2344,124.1385,261.5752,133.97,260.99" style="stroke:#181818;stroke-width:1;"/><text fill="#000000" font-family="sans-serif" font-size="13" lengthAdjust="spacing" textLength="188.6016" x="55" y="227.4951">obtenerPerfilPropio(coordinador)</text></g><!--link OpcionesPerfilView to PerfilController--><g id="link_OpcionesPerfilView_PerfilController"><path d="M403.22,183.01 C357.25,196.63 302,213 302,213 C302,213 255.5768,238.5275 220.0468,258.0775 " fill="none" id="OpcionesPerfilView-to-PerfilController-1" style="stroke:#181818;stroke-width:1;"/><polygon fill="#181818" points="214.79,260.97,224.6035,260.1358,219.1706,258.5596,220.7468,253.1268,214.79,260.97" style="stroke:#181818;stroke-width:1;"/><text fill="#000000" font-family="sans-serif" font-size="13" lengthAdjust="spacing" textLength="246.4033" x="303" y="227.4951">prepararAccionesDisponibles(coordinador)</text></g><!--link PerfilController to PerfilRepository--><g id="link_PerfilController_PerfilRepository"><path d="M138.48,299.01 C105.56,312.63 66,329 66,329 C66,329 66,347 66,347 C66,347 102.3606,361.1887 137.2606,374.8087 " fill="none" id="PerfilController-to-PerfilRepository" style="stroke:#181818;stroke-width:1;"/><polygon fill="#181818" points="142.85,376.99,135.9201,369.9917,138.1921,375.1722,133.0116,377.4443,142.85,376.99" style="stroke:#181818;stroke-width:1;"/><text fill="#000000" font-family="sans-serif" font-size="13" lengthAdjust="spacing" textLength="186.4307" x="67" y="343.4951">obtenerPorUsuario(coordinador)</text></g><!--link PerfilController to PerfilRepository--><g id="link_PerfilController_PerfilRepository"><path d="M210.73,299.15 C232.25,312.74 258,329 258,329 C258,329 258,347 258,347 C258,347 239.5558,359.8341 220.0158,373.4241 " fill="none" id="PerfilController-to-PerfilRepository-1" style="stroke:#181818;stroke-width:1;"/><polygon fill="#181818" points="215.09,376.85,224.7626,374.9951,219.1948,373.9951,220.1948,368.4273,215.09,376.85" style="stroke:#181818;stroke-width:1;"/><text fill="#000000" font-family="sans-serif" font-size="13" lengthAdjust="spacing" textLength="137.2427" x="259" y="343.4951">verificarPermisos(actor)</text></g><!--link PerfilRepository to Perfil--><g id="link_PerfilRepository_Perfil"><path d="M189,415.24 C189,432.59 189,458.52 189,475.84 " fill="none" id="PerfilRepository-Perfil" style="stroke:#181818;stroke-width:1;"/></g><!--link OpcionesPerfilView to EstadoSalida--><g id="link_OpcionesPerfilView_EstadoSalida"><path d="M498.07,183.06 C538.21,204.35 599.209,236.6894 639.439,258.0194 " fill="none" id="OpcionesPerfilView-to-EstadoSalida" style="stroke:#181818;stroke-width:1;stroke-dasharray:7.0,7.0;"/><polygon fill="#181818" points="644.74,260.83,638.6622,253.0801,640.3225,258.4878,634.9148,260.1481,644.74,260.83" style="stroke:#181818;stroke-width:1;"/><text fill="#000000" font-family="sans-serif" font-size="13" lengthAdjust="spacing" textLength="131.5044" x="585" y="227.4951">opcionesPerfilAbierto()</text></g><!--link OpcionesPerfilView to EditarPerfil--><g id="link_OpcionesPerfilView_EditarPerfil"><path d="M534.63,177.99 C611.93,192.2 725,213 725,213 C725,213 801.5893,239.4596 858.1393,259.0096 " fill="none" id="OpcionesPerfilView-to-EditarPerfil" style="stroke:#181818;stroke-width:1;stroke-dasharray:7.0,7.0;"/><polygon fill="#181818" points="863.81,260.97,856.6109,254.2489,859.0844,259.3363,853.997,261.8098,863.81,260.97" style="stroke:#181818;stroke-width:1;"/><text fill="#000000" font-family="sans-serif" font-size="13" lengthAdjust="spacing" textLength="70.7954" x="777" y="227.4951">editarPerfil()</text></g><!--link OpcionesPerfilView to SolicitarEliminacionPerfil--><g id="link_OpcionesPerfilView_SolicitarEliminacionPerfil"><path d="M534.53,173.64 C647.39,187.46 856,213 856,213 C856,213 986.6461,240.1965 1080.5061,259.7465 " fill="none" id="OpcionesPerfilView-to-SolicitarEliminacionPerfil" style="stroke:#181818;stroke-width:1;stroke-dasharray:7.0,7.0;"/><polygon fill="#181818" points="1086.38,260.97,1078.3847,255.2188,1081.4851,259.9504,1076.7534,263.0507,1086.38,260.97" style="stroke:#181818;stroke-width:1;"/><text fill="#000000" font-family="sans-serif" font-size="13" lengthAdjust="spacing" textLength="148.8145" x="942" y="227.4951">solicitarEliminacionPerfil()</text></g><!--link OpcionesPerfilView to AbrirPanelPrincipal--><g id="link_OpcionesPerfilView_AbrirPanelPrincipal"><path d="M534.69,170.34 C700.2,182.85 1099,213 1099,213 C1099,213 1246.4206,240.3258 1351.8206,259.8758 " fill="none" id="OpcionesPerfilView-to-AbrirPanelPrincipal" style="stroke:#181818;stroke-width:1;stroke-dasharray:7.0,7.0;"/><polygon fill="#181818" points="1357.72,260.97,1349.6004,255.3957,1352.8039,260.0581,1348.1414,263.2616,1357.72,260.97" style="stroke:#181818;stroke-width:1;"/><text fill="#000000" font-family="sans-serif" font-size="13" lengthAdjust="spacing" textLength="117.7681" x="1195" y="227.4951">abrirPanelPrincipal()</text></g><!--link OpcionesPerfilView to AbrirSolicitudesEliminacionPerfil--><g id="link_OpcionesPerfilView_AbrirSolicitudesEliminacionPerfil"><path d="M534.86,168.97 C740.19,180.47 1321,213 1321,213 C1321,213 1504.1267,240.5276 1634.1067,260.0776 " fill="none" id="OpcionesPerfilView-to-AbrirSolicitudesEliminacionPerfil" style="stroke:#181818;stroke-width:1;stroke-dasharray:7.0,7.0;"/><polygon fill="#181818" points="1640.04,260.97,1631.735,255.6759,1635.0956,260.2263,1630.5452,263.5869,1640.04,260.97" style="stroke:#181818;stroke-width:1;"/><text fill="#000000" font-family="sans-serif" font-size="13" lengthAdjust="spacing" textLength="193.6226" x="1439" y="227.4951">abrirSolicitudesEliminacionPerfil()</text></g><!--SRC=[bPH1RwCm48Nl_0ehUqaExQ5ggsqEbLpYI4XfGA7jDHh0hKPri3LsTnMjzhyl5Ae0CMcMc-ttFiR36-mxbWO8TanXATtUI6QqsjUB822PEoZVb6G_meLuu3TiCa_uMgosoIPQXr72Lrl-48dDKpnXO9cm3WejIaTGG0AbL5v46g-YC7fwNeXqArRHOxJcOHIljudOBACl8a-FaQbMcAFxAAGD3EJly2OPP8GKcnnrAMqYwHLLxPjuzgUp2ViJiEhfL7LxTIUMTwolV47vUoZCRhBYzYTh1A6kAj9AIHhAbbSyl1QjR2EDjkWqxK_AWh_-NiT9tPUgIxtET7kTWi82lEQmAWyoJU2gYp5He0DgNjVuEnjd-DlM0mc5EooXxbQ7Ddvy1flNd-epBWbXcQE11khPFvVMIOg_u6zLGN2SPdPHNDnxeZ9dthG5O-7zNqvmB6qGmp3EcSwSB6NxNHFI1lKqrvgAwdA5ffaNvIKPalMFWNZU61PeZIunKzBsYKDhXtV8_w4oJS_s0sXOrvcKNvBm5VFFvExGQZk5t1ty1sdb_vekpvKlB-zx4rILrnFn32KvFPsDcZlZCsUoinhtZ0_9dDdHit6UPpxQ1FKtlo6SceAMTqfIqVy1]--></g></svg>