<svg xmlns="http://www.w3.org/2000/svg" xmlns:xlink="http://www.w3.org/1999/xlink" contentStyleType="text/css" data-diagram-type="STATE" height="991px" preserveAspectRatio="none" style="width:956px;height:991px;background:#FFFFFF;" version="1.1" viewBox="0 0 956 991" width="956px" zoomAndPan="magnify"><?plantuml 1.2026.3?><defs/><g><g class="entity" data-qualified-name="in1" id="ent0002"><rect fill="#F1F1F1" height="50" rx="12.5" ry="12.5" style="stroke:#181818;stroke-width:0.5;" width="202.0547" x="373" y="7"/><line style="stroke:#181818;stroke-width:0.5;" x1="373" x2="575.0547" y1="34.6094" y2="34.6094"/><text fill="#000000" font-family="sans-serif" font-size="14" lengthAdjust="spacing" textLength="182.0547" x="383" y="26.5332">ENTREGABLES_ABIERTOS</text></g><path d="M19.5,118 L928.5,118 A12.5,12.5 0 0 1 941,130.5 L941,145.6094 L7,145.6094 L7,130.5 A12.5,12.5 0 0 1 19.5,118" fill="#F1F1F1"/><rect fill="none" height="712.6094" rx="12.5" ry="12.5" style="stroke:#181818;stroke-width:0.5;" width="934" x="7" y="118"/><line style="stroke:#181818;stroke-width:0.5;" x1="7" x2="941" y1="145.6094" y2="145.6094"/><text fill="#000000" font-family="sans-serif" font-size="14" lengthAdjust="spacing" textLength="108.9375" x="419.5313" y="137.5332">crearEntregable()</text><g class="entity" data-qualified-name="crearEntregable.SolicitandoDatos" id="ent0004"><rect fill="#F1F1F1" height="50" rx="12.5" ry="12.5" style="stroke:#181818;stroke-width:0.5;" width="50" x="278" y="248.6094"/><line style="stroke:#181818;stroke-width:0.5;" x1="278" x2="328" y1="276.2188" y2="276.2188"/><text fill="#000000" font-family="sans-serif" font-size="14" lengthAdjust="spacing" textLength="3.8896" x="301.0552" y="268.1426">&#160;</text></g><g class="entity" data-qualified-name="crearEntregable.RegistrandoEntregable" id="ent0005"><rect fill="#F1F1F1" height="50" rx="12.5" ry="12.5" style="stroke:#181818;stroke-width:0.5;" width="50" x="278" y="533.6094"/><line style="stroke:#181818;stroke-width:0.5;" x1="278" x2="328" y1="561.2188" y2="561.2188"/><text fill="#000000" font-family="sans-serif" font-size="14" lengthAdjust="spacing" textLength="3.8896" x="301.0552" y="553.1426">&#160;</text></g><g class="entity" data-qualified-name="crearEntregable.ValidandoDatos" id="ent0006"><rect fill="#F1F1F1" height="50" rx="12.5" ry="12.5" style="stroke:#181818;stroke-width:0.5;" width="50" x="226" y="672.6094"/><line style="stroke:#181818;stroke-width:0.5;" x1="226" x2="276" y1="700.2188" y2="700.2188"/><text fill="#000000" font-family="sans-serif" font-size="14" lengthAdjust="spacing" textLength="3.8896" x="249.0552" y="692.1426">&#160;</text></g><g class="start_entity" data-qualified-name="crearEntregable..start.crearEntregable" data-source-line="12" id="ent0003"><ellipse cx="303" cy="166.6094" fill="#222222" rx="10" ry="10" style="stroke:#222222;stroke-width:1;"/></g><g class="end_entity" data-qualified-name="crearEntregable..end.crearEntregable" data-source-line="37" id="ent0007"><ellipse cx="418" cy="806.6094" fill="none" rx="11" ry="11" style="stroke:#222222;stroke-width:1;"/><ellipse cx="418" cy="806.6094" fill="#222222" rx="6" ry="6" style="stroke:#222222;stroke-width:1;"/></g><!--link *start*crearEntregable to SolicitandoDatos--><g class="link" data-entity-1="ent0003" data-entity-2="ent0004" data-link-type="dependency" data-source-line="12" id="lnk4"><path d="M303,176.9294 C303,192.7894 303,219.5194 303,242.2494" fill="none" id="*start*crearEntregable-to-SolicitandoDatos" style="stroke:#008000;stroke-width:1;"/><polygon fill="#008000" points="303,248.2494,307,239.2494,303,243.2494,299,239.2494,303,248.2494" style="stroke:#008000;stroke-width:1;"/><path d="M308,199.6094 L308,225.6094 L565,225.6094 L565,209.6094 L555,199.6094 L308,199.6094" fill="#FEFFDD" style="stroke:#181818;stroke-width:0.5;"/><path d="M555,199.6094 L555,209.6094 L565,209.6094 L555,199.6094" fill="#FEFFDD" style="stroke:#181818;stroke-width:0.5;"/><text fill="#000000" font-family="sans-serif" font-size="13" font-weight="700" lengthAdjust="spacing" textLength="77.2954" x="314" y="218.1045">Investigador</text><text fill="#000000" font-family="sans-serif" font-size="13" lengthAdjust="spacing" textLength="156.0889" x="394.9072" y="218.1045">solicita crear un entregable</text></g><!--link SolicitandoDatos to RegistrandoEntregable--><g class="link" data-entity-1="ent0004" data-entity-2="ent0005" data-link-type="dependency" data-source-line="17" id="lnk5"><path d="M303,298.7394 C303,352.2094 303,474.1294 303,527.5394" fill="none" id="SolicitandoDatos-to-RegistrandoEntregable" style="stroke:#008000;stroke-width:1;"/><polygon fill="#008000" points="303,533.5394,307,524.5394,303,528.5394,299,524.5394,303,533.5394" style="stroke:#008000;stroke-width:1;"/><path d="M308,321.6094 L308,510.6094 L727,510.6094 L727,331.6094 L717,321.6094 L308,321.6094" fill="#FEFFDD" style="stroke:#181818;stroke-width:0.5;"/><path d="M717,321.6094 L717,331.6094 L727,331.6094 L717,321.6094" fill="#FEFFDD" style="stroke:#181818;stroke-width:0.5;"/><text fill="#000000" font-family="sans-serif" font-size="13" font-weight="700" lengthAdjust="spacing" textLength="49.8608" x="314" y="340.1045">Sistema</text><text fill="#000000" font-family="sans-serif" font-size="13" lengthAdjust="spacing" textLength="345.4077" x="367.4727" y="340.1045">muestra y permite introducir los datos del nuevo entregable:</text><text fill="#000000" font-family="sans-serif" font-size="13" lengthAdjust="spacing" textLength="41.4058" x="314" y="356.4561">&#8226; T&#237;tulo</text><text fill="#000000" font-family="sans-serif" font-size="13" lengthAdjust="spacing" textLength="261.79" x="314" y="372.8076">&#8226; Tipo (informe / dataset / presentaci&#243;n / otro)</text><text fill="#000000" font-family="sans-serif" font-size="13" lengthAdjust="spacing" textLength="79.6948" x="314" y="389.1592">&#8226; Fecha l&#237;mite</text><text fill="#000000" font-family="sans-serif" font-size="13" lengthAdjust="spacing" textLength="284.9526" x="314" y="405.5107">&#8226; Estado inicial (pendiente / en curso / entregado)</text><text fill="#000000" font-family="sans-serif" font-size="13" lengthAdjust="spacing" textLength="137.5029" x="314" y="421.8623">&#8226; Descripci&#243;n (opcional)</text><text fill="#000000" font-family="sans-serif" font-size="13" lengthAdjust="spacing" textLength="159.1992" x="314" y="438.2139">&#8226; Archivo adjunto (opcional)</text><text fill="#000000" font-family="sans-serif" font-size="13" lengthAdjust="spacing" textLength="3.6118" x="314" y="454.5654">&#160;</text><text fill="#000000" font-family="sans-serif" font-size="13" font-weight="700" lengthAdjust="spacing" textLength="49.8608" x="314" y="470.917">Sistema</text><text fill="#000000" font-family="sans-serif" font-size="13" lengthAdjust="spacing" textLength="94.6372" x="367.4727" y="470.917">permite solicitar:</text><text fill="#000000" font-family="sans-serif" font-size="13" lengthAdjust="spacing" textLength="106.4502" x="314" y="487.2686">&#8226; Crear entregable</text><text fill="#000000" font-family="sans-serif" font-size="13" lengthAdjust="spacing" textLength="128.1338" x="314" y="503.6201">&#8226; Volver a entregables</text></g><!--link RegistrandoEntregable to ValidandoDatos--><g class="link" data-entity-1="ent0005" data-entity-2="ent0006" data-link-type="dependency" data-source-line="32" id="lnk6"><path d="M277.71,563.3394 C207.96,573.6194 18,601.6094 18,601.6094 C18,601.6094 18,653.6094 18,653.6094 C18,653.6094 159.3297,679.69 219.7197,690.84" fill="none" id="RegistrandoEntregable-to-ValidandoDatos" style="stroke:#008000;stroke-width:1;"/><polygon fill="#008000" points="225.62,691.9294,217.4958,686.3618,220.7031,691.0216,216.0433,694.2288,225.62,691.9294" style="stroke:#008000;stroke-width:1;"/><path d="M23,614.6094 L23,640.6094 L276,640.6094 L276,624.6094 L266,614.6094 L23,614.6094" fill="#FEFFDD" style="stroke:#181818;stroke-width:0.5;"/><path d="M266,614.6094 L266,624.6094 L276,624.6094 L266,614.6094" fill="#FEFFDD" style="stroke:#181818;stroke-width:0.5;"/><text fill="#000000" font-family="sans-serif" font-size="13" font-weight="700" lengthAdjust="spacing" textLength="77.2954" x="29" y="633.1045">Investigador</text><text fill="#000000" font-family="sans-serif" font-size="13" lengthAdjust="spacing" textLength="151.7471" x="109.9072" y="633.1045">solicita crear el entregable</text></g><!--link ValidandoDatos to *end*crearEntregable--><g class="link" data-entity-1="ent0006" data-entity-2="ent0007" data-link-type="dependency" data-source-line="37" id="lnk8"><path d="M251.31,722.7394 C251.6,745.9694 252,777.6094 252,777.6094 C252,777.6094 364.2636,796.5413 401.1936,802.7713" fill="none" id="ValidandoDatos-to-*end*crearEntregable" style="stroke:#008000;stroke-width:1;"/><polygon fill="#008000" points="407.11,803.7694,398.9008,798.328,402.1797,802.9376,397.57,806.2165,407.11,803.7694" style="stroke:#008000;stroke-width:1;"/><path d="M257,746.6094 L257,772.6094 L567,772.6094 L567,756.6094 L557,746.6094 L257,746.6094" fill="#FEFFDD" style="stroke:#181818;stroke-width:0.5;"/><path d="M557,746.6094 L557,756.6094 L567,756.6094 L557,746.6094" fill="#FEFFDD" style="stroke:#181818;stroke-width:0.5;"/><text fill="#000000" font-family="sans-serif" font-size="13" font-weight="700" lengthAdjust="spacing" textLength="49.8608" x="263" y="765.1045">Sistema</text><text fill="#000000" font-family="sans-serif" font-size="13" lengthAdjust="spacing" textLength="236.3105" x="316.4727" y="765.1045">presenta y visualiza el entregable creado</text></g><!--link ValidandoDatos to RegistrandoEntregable--><g class="link" data-entity-1="ent0006" data-entity-2="ent0005" data-link-type="dependency" data-source-line="42" id="lnk9"><path d="M267.75,672.5994 C274.63,662.7494 281,653.6094 281,653.6094 C281,653.6094 289.4543,617.5119 295.9643,589.6619" fill="none" id="ValidandoDatos-to-RegistrandoEntregable" style="stroke:#FF0000;stroke-width:1;"/><polygon fill="#FF0000" points="297.33,583.8194,291.3864,591.6727,296.1919,588.6881,299.1765,593.4936,297.33,583.8194" style="stroke:#FF0000;stroke-width:1;"/><path d="M298,606.6094 L298,648.6094 L556,648.6094 L556,616.6094 L546,606.6094 L298,606.6094" fill="#FEFFDD" style="stroke:#181818;stroke-width:0.5;"/><path d="M546,606.6094 L546,616.6094 L556,616.6094 L546,606.6094" fill="#FEFFDD" style="stroke:#181818;stroke-width:0.5;"/><text fill="#000000" font-family="sans-serif" font-size="13" font-weight="700" lengthAdjust="spacing" textLength="49.8608" x="304" y="625.1045">Sistema</text><text fill="#000000" font-family="sans-serif" font-size="13" lengthAdjust="spacing" textLength="183.5298" x="357.4727" y="625.1045">muestra errores de introducci&#243;n</text><text fill="#000000" font-family="sans-serif" font-size="13" font-weight="700" lengthAdjust="spacing" textLength="49.8608" x="304" y="641.4561">Sistema</text><text fill="#000000" font-family="sans-serif" font-size="13" lengthAdjust="spacing" textLength="177.7344" x="357.4727" y="641.4561">permite introducir correcciones</text></g><!--link RegistrandoEntregable to *end*crearEntregable--><g class="link" data-entity-1="ent0005" data-entity-2="ent0007" data-link-type="dependency" data-source-line="48" id="lnk10"><path d="M328.12,563.6394 C393.7,574.1494 565,601.6094 565,601.6094 C565,601.6094 572,741.6094 572,741.6094 C572,741.6094 572,777.6094 572,777.6094 C572,777.6094 470.2932,796.1061 434.9832,802.5261" fill="none" id="RegistrandoEntregable-to-*end*crearEntregable" style="stroke:#FF0000;stroke-width:1;"/><polygon fill="#FF0000" points="429.08,803.5994,438.6504,805.9249,433.9993,802.7049,437.2193,798.0539,429.08,803.5994" style="stroke:#FF0000;stroke-width:1;"/><path d="M576,676.6094 L576,718.6094 L917,718.6094 L917,686.6094 L907,676.6094 L576,676.6094" fill="#FEFFDD" style="stroke:#181818;stroke-width:0.5;"/><path d="M907,676.6094 L907,686.6094 L917,686.6094 L907,676.6094" fill="#FEFFDD" style="stroke:#181818;stroke-width:0.5;"/><text fill="#000000" font-family="sans-serif" font-size="13" font-weight="700" lengthAdjust="spacing" textLength="77.2954" x="582" y="695.1045">Investigador</text><text fill="#000000" font-family="sans-serif" font-size="13" lengthAdjust="spacing" textLength="158.9644" x="662.9072" y="695.1045">solicita cancelar la creaci&#243;n</text><text fill="#000000" font-family="sans-serif" font-size="13" font-weight="700" lengthAdjust="spacing" textLength="49.8608" x="582" y="711.4561">Sistema</text><text fill="#000000" font-family="sans-serif" font-size="13" lengthAdjust="spacing" textLength="267.3823" x="635.4727" y="711.4561">presenta el listado de entregables sin cambios</text></g><g class="entity" data-qualified-name="ENTREGABLE_ABIERTO" id="ent0011"><rect fill="#F1F1F1" height="50" rx="12.5" ry="12.5" style="stroke:#181818;stroke-width:0.5;" width="183.3789" x="224.5" y="927"/><line style="stroke:#181818;stroke-width:0.5;" x1="224.5" x2="407.8789" y1="954.6094" y2="954.6094"/><text fill="#000000" font-family="sans-serif" font-size="14" lengthAdjust="spacing" textLength="163.3789" x="234.5" y="946.5332">ENTREGABLE_ABIERTO</text></g><g class="entity" data-qualified-name="ENTREGABLES_ABIERTOS" id="ent0014"><rect fill="#F1F1F1" height="50" rx="12.5" ry="12.5" style="stroke:#181818;stroke-width:0.5;" width="202.0547" x="531" y="927"/><line style="stroke:#181818;stroke-width:0.5;" x1="531" x2="733.0547" y1="954.6094" y2="954.6094"/><text fill="#000000" font-family="sans-serif" font-size="14" lengthAdjust="spacing" textLength="182.0547" x="541" y="946.5332">ENTREGABLES_ABIERTOS</text></g><!--link in1 to crearEntregable--><g class="link" data-entity-1="ent0002" data-entity-2="ent0003" data-link-type="dependency" data-source-line="4" id="lnk2"><path d="M474,57.31 C474,72.19 474,87.08 474,111.66" fill="none" id="in1-to-crearEntregable" style="stroke:#008000;stroke-width:1;"/><polygon fill="#008000" points="474,117.66,478,108.66,474,112.66,470,108.66,474,117.66" style="stroke:#008000;stroke-width:1;"/></g><!--link crearEntregable to ENTREGABLE_ABIERTO--><g class="link" data-entity-1="ent0003" data-entity-2="ent0011" data-link-type="dependency" data-source-line="55" id="lnk12"><path d="M178.84,831.07 C163.35,849.74 154,861 154,861 C154,861 154,897 154,897 C154,897 194.7076,910.5734 237.8376,924.9434" fill="none" id="crearEntregable-to-ENTREGABLE_ABIERTO" style="stroke:#008000;stroke-width:1;"/><polygon fill="#008000" points="243.53,926.84,236.2558,920.2002,238.7864,925.2595,233.7271,927.79,243.53,926.84" style="stroke:#008000;stroke-width:1;"/><path d="M159,866 L159,892 L339,892 L339,876 L329,866 L159,866" fill="#FEFFDD" style="stroke:#181818;stroke-width:0.5;"/><path d="M329,866 L329,876 L339,876 L329,866" fill="#FEFFDD" style="stroke:#181818;stroke-width:0.5;"/><text fill="#000000" font-family="sans-serif" font-size="13" lengthAdjust="spacing" textLength="159.7134" x="165" y="884.4951">Entregable creado y abierto</text></g><!--link crearEntregable to ENTREGABLE_ABIERTO--><g class="link" data-entity-1="ent0003" data-entity-2="ent0011" data-link-type="dependency" data-source-line="60" id="lnk13"><path d="M367.69,831.14 C355.88,870.66 348,897 348,897 C348,897 341.9,907.309 333.38,921.679" fill="none" id="crearEntregable-to-ENTREGABLE_ABIERTO-1" style="stroke:#008000;stroke-width:1;"/><polygon fill="#008000" points="330.32,926.84,338.3507,921.1384,332.87,922.5391,331.4693,917.0584,330.32,926.84" style="stroke:#008000;stroke-width:1;"/><path d="M362,866 L362,892 L487,892 L487,876 L477,866 L362,866" fill="#FEFFDD" style="stroke:#181818;stroke-width:0.5;"/><path d="M477,866 L477,876 L487,876 L477,866" fill="#FEFFDD" style="stroke:#181818;stroke-width:0.5;"/><text fill="#000000" font-family="sans-serif" font-size="13" lengthAdjust="spacing" textLength="104.0571" x="368" y="884.4951">editarEntregable()</text></g><!--link crearEntregable to ENTREGABLES_ABIERTOS--><g class="link" data-entity-1="ent0003" data-entity-2="ent0014" data-link-type="dependency" data-source-line="65" id="lnk15"><path d="M545.72,831.14 C553.69,870.66 559,897 559,897 C559,897 575.086,908.9023 594.516,923.2723" fill="none" id="crearEntregable-to-ENTREGABLES_ABIERTOS" style="stroke:#008000;stroke-width:1;"/><polygon fill="#008000" points="599.34,926.84,594.4825,918.2724,595.32,923.8669,589.7255,924.7044,599.34,926.84" style="stroke:#008000;stroke-width:1;"/><path d="M564,866 L564,892 L702,892 L702,876 L692,866 L564,866" fill="#FEFFDD" style="stroke:#181818;stroke-width:0.5;"/><path d="M692,866 L692,876 L702,876 L692,866" fill="#FEFFDD" style="stroke:#181818;stroke-width:0.5;"/><text fill="#000000" font-family="sans-serif" font-size="13" lengthAdjust="spacing" textLength="117.0508" x="570" y="884.4951">eliminarEntregable()</text></g><!--link crearEntregable to ENTREGABLES_ABIERTOS--><g class="link" data-entity-1="ent0003" data-entity-2="ent0014" data-link-type="dependency" data-source-line="70" id="lnk16"><path d="M692.6,831.07 C704.08,849.74 711,861 711,861 C711,861 711,897 711,897 C711,897 693.3347,909.086 672.2947,923.456" fill="none" id="crearEntregable-to-ENTREGABLES_ABIERTOS-1" style="stroke:#008000;stroke-width:1;"/><polygon fill="#008000" points="667.34,926.84,677.028,925.0672,671.4689,924.02,672.516,918.4609,667.34,926.84" style="stroke:#008000;stroke-width:1;"/><path d="M716,866 L716,892 L841,892 L841,876 L831,866 L716,866" fill="#FEFFDD" style="stroke:#181818;stroke-width:0.5;"/><path d="M831,866 L831,876 L841,876 L831,866" fill="#FEFFDD" style="stroke:#181818;stroke-width:0.5;"/><text fill="#000000" font-family="sans-serif" font-size="13" lengthAdjust="spacing" textLength="104.0444" x="722" y="884.4951">abrirEntregables()</text></g><?plantuml-src jLLBQXj14DtFAHfb8mUCoJOOWMnFWY4a80blZ0azqnMvufwkeRf7e8H0pfAzLpc2RvAJfAR7qdmi2piVQTEVwlTUrQlkyJVeIiswK1OTX7K9gYIxhYT9ueCEeD2zKjghKVf-CKlVJa_UfVEFqvFpTBRuC1ybzUxXvOib0xYhmudA6JIdBZ0iTMQt88Fb23XO6n-CrDSaKV9hpepaBt5pifXZqCxGcGxa7qRCO8a-S1tHONuGTg4jcXOc1bo-lEh9tqdcI438rIMwYGl7sUJShS07N6f3V7oKJPI_FzcagYgdeAy5d8b83V6GgAVYyOHsIPbBB1GwgYWgg0-gjIg12ups1IPJvSZA2es9P0QiSXMig2FoTSJxzVs7MjpTXifIEyUIr1ZT9-82r56DeJq46PKCNX1qZdS_dSn9k0wsvzv0VgsLlRkjXMnNKp75aEYI_BLLur8AWm9I8uDJUSMUuZ0ACnsyC_0vOzcGZKa6vBHjzwUSNwFafCtdoWNgXkogrQP26-UuhS1fz71WOBrnGNO5h7Hdp-zmTwU1FOi7pVYdRIO-xcspFarFWRJ-arfgux7qr0fz9O1VT9ytQZ7q97e6ysyw79X9b4ahRriyDiO-fpjt8ITcoElsU9w1z_ht5M-FPzhbOCKss_ZtkE1DpQNE5fiB8ubscavvbBkYYmnfeFzRaWnVswxjxJE-USMJNXBfq5RnNMS872XfQ_Gt363gozPz-9yDt7w11j0M2tJ_2LndZ9tJlWlz6m00?></g></svg>