<svg xmlns="http://www.w3.org/2000/svg" xmlns:xlink="http://www.w3.org/1999/xlink" contentStyleType="text/css" data-diagram-type="DESCRIPTION" height="566px" preserveAspectRatio="none" style="width:1338px;height:566px;background:#FFFFFF;" version="1.1" viewBox="0 0 1338 566" width="1338px" zoomAndPan="magnify"><?plantuml 1.2026.5?><defs/><g><!--cluster crearInvestigador--><g class="cluster" data-qualified-name="crearInvestigador" data-source-line="5" id="ent0003"><path d="M253,130.5 L380.8203,130.5 A3.75,3.75 0 0 1 383.3203,133 L390.3203,154.1094 L845,154.1094 A2.5,2.5 0 0 1 847.5,156.6094 L847.5,549 A2.5,2.5 0 0 1 845,551.5 L253,551.5 A2.5,2.5 0 0 1 250.5,549 L250.5,133 A2.5,2.5 0 0 1 253,130.5" fill="none" style="stroke:#000000;stroke-width:1.5;"/><line style="stroke:#000000;stroke-width:1.5;" x1="250.5" x2="390.3203" y1="154.1094" y2="154.1094"/><text fill="#000000" font-family="sans-serif" font-size="14" font-weight="700" lengthAdjust="spacing" textLength="126.8203" x="254.5" y="147.0332">crearInvestigador()</text></g><!--entity CrearInvestigadorView--><g class="entity" data-qualified-name="crearInvestigador.CrearInvestigadorView" data-source-line="6" id="ent0004"><rect fill="#629EF9" height="37.6094" rx="2.5" ry="2.5" style="stroke:#181818;stroke-width:0.5;" width="161.6201" x="564.5" y="166.5"/><text fill="#000000" font-family="sans-serif" font-size="14" lengthAdjust="spacing" textLength="141.6201" x="574.5" y="191.0332">CrearInvestigadorView</text></g><!--entity CrearInvestigadorController--><g class="entity" data-qualified-name="crearInvestigador.CrearInvestigadorController" data-source-line="7" id="ent0005"><rect fill="#B5BD68" height="37.6094" rx="2.5" ry="2.5" style="stroke:#181818;stroke-width:0.5;" width="191.9648" x="482.5" y="282.5"/><text fill="#000000" font-family="sans-serif" font-size="14" lengthAdjust="spacing" textLength="171.9648" x="492.5" y="307.0332">CrearInvestigadorController</text></g><!--entity InvestigadorRepository--><g class="entity" data-qualified-name="crearInvestigador.InvestigadorRepository" data-source-line="8" id="ent0006"><rect fill="#F2AC4E" height="37.6094" rx="2.5" ry="2.5" style="stroke:#181818;stroke-width:0.5;" width="163.1855" x="396" y="398.5"/><text fill="#000000" font-family="sans-serif" font-size="14" lengthAdjust="spacing" textLength="143.1855" x="406" y="423.0332">InvestigadorRepository</text></g><!--entity Investigador--><g class="entity" data-qualified-name="crearInvestigador.Investigador" data-source-line="9" id="ent0007"><rect fill="#F2AC4E" height="37.6094" rx="2.5" ry="2.5" style="stroke:#181818;stroke-width:0.5;" width="96.2686" x="505.5" y="497.5"/><text fill="#000000" font-family="sans-serif" font-size="14" lengthAdjust="spacing" textLength="76.2686" x="515.5" y="522.0332">Investigador</text></g><!--entity Coordinador--><g class="entity" data-qualified-name="Coordinador" data-source-line="3" id="ent0001"><ellipse cx="120.5239" cy="14" fill="#F1F1F1" rx="8" ry="8" style="stroke:#181818;stroke-width:0.5;"/><path d="M120.5239,22 L120.5239,49 M107.5239,30 L133.5239,30 M120.5239,49 L107.5239,64 M120.5239,49 L133.5239,64" fill="none" style="stroke:#181818;stroke-width:0.5;"/><text fill="#000000" font-family="sans-serif" font-size="14" lengthAdjust="spacing" textLength="77.0479" x="82" y="80.0332">Coordinador</text></g><!--entity InvestigadoresAbiertos--><g class="entity" data-qualified-name="InvestigadoresAbiertos" data-source-line="4" id="ent0002"><rect fill="#CDEBA5" height="37.6094" rx="2.5" ry="2.5" style="stroke:#181818;stroke-width:0.5;" width="226.9375" x="7" y="166.5"/><text fill="#000000" font-family="sans-serif" font-size="14" lengthAdjust="spacing" textLength="206.9375" x="17" y="191.0332">:INVESTIGADORES_ABIERTOS</text></g><!--entity InvestigadorAbierto--><g class="entity" data-qualified-name="InvestigadorAbierto" data-source-line="11" id="ent0008"><rect fill="#CDEBA5" height="37.6094" rx="2.5" ry="2.5" style="stroke:#181818;stroke-width:0.5;" width="198.9238" x="864" y="282.5"/><text fill="#000000" font-family="sans-serif" font-size="14" lengthAdjust="spacing" textLength="178.9238" x="874" y="307.0332">:INVESTIGADOR_ABIERTO</text></g><!--entity CreacionCancelada--><g class="entity" data-qualified-name="CreacionCancelada" data-source-line="12" id="ent0009"><rect fill="#CDEBA5" height="37.6094" rx="2.5" ry="2.5" style="stroke:#181818;stroke-width:0.5;" width="226.9375" x="1098" y="282.5"/><text fill="#000000" font-family="sans-serif" font-size="14" lengthAdjust="spacing" textLength="206.9375" x="1108" y="307.0332">:INVESTIGADORES_ABIERTOS</text></g><!--link Coordinador to InvestigadoresAbiertos--><g class="link" data-entity-1="ent0001" data-entity-2="ent0002" data-link-type="association" data-source-line="14" id="lnk10"><path d="M120.5,83.85 C120.5,110.69 120.5,145.34 120.5,166.2" fill="none" id="Coordinador-InvestigadoresAbiertos" style="stroke:#181818;stroke-width:1;"/></g><!--link InvestigadoresAbiertos to CrearInvestigadorView--><g class="link" data-entity-1="ent0002" data-entity-2="ent0004" data-link-type="dependency" data-source-line="15" id="lnk11"><path d="M234.09,185.5 C333.59,185.5 470.74,185.5 559.22,185.5" fill="none" id="InvestigadoresAbiertos-to-CrearInvestigadorView" style="stroke:#181818;stroke-width:1;"/><polygon fill="#181818" points="564.22,185.5,555.22,181.5,559.22,185.5,555.22,189.5,564.22,185.5" style="stroke:#181818;stroke-width:1;stroke-linejoin:miter;stroke-miterlimit:10;"/><text fill="#000000" font-family="sans-serif" font-size="13" lengthAdjust="spacing" textLength="109.0972" x="344.75" y="178.9951">crearInvestigador()</text></g><!--link CrearInvestigadorView to CrearInvestigadorController--><g class="link" data-entity-1="ent0004" data-entity-2="ent0005" data-link-type="dependency" data-source-line="16" id="lnk12"><path d="M634.88,204.56 C622.41,225.78 604.3632,256.4892 591.8232,277.8292" fill="none" id="CrearInvestigadorView-to-CrearInvestigadorController" style="stroke:#181818;stroke-width:1;"/><polygon fill="#181818" points="589.29,282.14,597.2983,276.4071,591.8232,277.8292,590.401,272.354,589.29,282.14" style="stroke:#181818;stroke-width:1;stroke-linejoin:miter;stroke-miterlimit:10;"/><text fill="#000000" font-family="sans-serif" font-size="13" lengthAdjust="spacing" textLength="289.0088" x="616.5" y="248.9951">registrarInvestigador(datosMinimos) : Investigador</text></g><!--link CrearInvestigadorController to InvestigadorRepository--><g class="link" data-entity-1="ent0005" data-entity-2="ent0006" data-link-type="dependency" data-source-line="17" id="lnk13"><path d="M482.14,319.02 C401.15,332.9 298.5,350.5 298.5,350.5 C298.5,350.5 298.5,368.5 298.5,368.5 C298.5,368.5 354.7206,383.5749 405.5106,397.1949" fill="none" id="CrearInvestigadorController-to-InvestigadorRepository" style="stroke:#181818;stroke-width:1;"/><polygon fill="#181818" points="410.34,398.49,402.6832,392.2954,405.5106,397.1949,400.6111,400.0224,410.34,398.49" style="stroke:#181818;stroke-width:1;stroke-linejoin:miter;stroke-miterlimit:10;"/><text fill="#000000" font-family="sans-serif" font-size="13" lengthAdjust="spacing" textLength="274.5615" x="299.5" y="364.9951">existeUsuarioOCorreo(datosMinimos) : boolean</text></g><!--link CrearInvestigadorController to InvestigadorRepository--><g class="link" data-entity-1="ent0005" data-entity-2="ent0006" data-link-type="dependency" data-source-line="19" id="lnk15"><path d="M578.5,320.53 C578.5,340.08 578.5,368.5 578.5,368.5 C578.5,368.5 548.576,382.7239 519.916,396.3439" fill="none" id="CrearInvestigadorController-to-InvestigadorRepository-1" style="stroke:#181818;stroke-width:1;"/><polygon fill="#181818" points="515.4,398.49,525.2457,398.2398,519.916,396.3439,521.8119,391.0142,515.4,398.49" style="stroke:#181818;stroke-width:1;stroke-linejoin:miter;stroke-miterlimit:10;"/><text fill="#000000" font-family="sans-serif" font-size="13" lengthAdjust="spacing" textLength="205.9434" x="579.5" y="364.9951">guardar(Investigador) : Investigador</text></g><!--link CrearInvestigadorController to Investigador--><g class="link" data-entity-1="ent0005" data-entity-2="ent0007" data-link-type="dependency" data-source-line="18" id="lnk14"><path d="M659.17,320.51 C720.18,334.13 793.5,350.5 793.5,350.5 C793.5,350.5 793.5,368.5 793.5,368.5 C793.5,368.5 651.2839,455.6087 587.1939,494.8587" fill="none" id="CrearInvestigadorController-to-Investigador" style="stroke:#181818;stroke-width:1;"/><polygon fill="#181818" points="582.93,497.47,592.6941,496.1808,587.1939,494.8587,588.516,489.3585,582.93,497.47" style="stroke:#181818;stroke-width:1;stroke-linejoin:miter;stroke-miterlimit:10;"/><text fill="#000000" font-family="sans-serif" font-size="13" lengthAdjust="spacing" textLength="200.1289" x="743.5" y="422.9951">crear(datosMinimos) : Investigador</text></g><!--link InvestigadorRepository to Investigador--><g class="link" data-entity-1="ent0006" data-entity-2="ent0007" data-link-type="association" data-source-line="20" id="lnk16"><path d="M491.8,436.74 C505.38,454.09 525.7,480.02 539.27,497.34" fill="none" id="InvestigadorRepository-Investigador" style="stroke:#181818;stroke-width:1;"/></g><!--link CrearInvestigadorView to InvestigadorAbierto--><g class="link" data-entity-1="ent0004" data-entity-2="ent0008" data-link-type="dependency" data-source-line="21" id="lnk17"><path d="M726.57,200.97 C805.78,215.1 914.5,234.5 914.5,234.5 C914.5,234.5 932.6201,258.905 947.1301,278.455" fill="none" id="CrearInvestigadorView-to-InvestigadorAbierto" style="stroke:#181818;stroke-width:1;stroke-dasharray:7,7;"/><polygon fill="#181818" points="950.11,282.47,947.9581,272.8591,947.1301,278.455,941.5342,277.627,950.11,282.47" style="stroke:#181818;stroke-width:1;stroke-linejoin:miter;stroke-miterlimit:10;"/><text fill="#000000" font-family="sans-serif" font-size="13" lengthAdjust="spacing" textLength="186.4243" x="928.5" y="248.9951">abrirInvestigador(idInvestigador)</text></g><!--link CrearInvestigadorView to CreacionCancelada--><g class="link" data-entity-1="ent0004" data-entity-2="ent0009" data-link-type="dependency" data-source-line="22" id="lnk18"><path d="M726.59,194.64 C862.96,208.34 1123.5,234.5 1123.5,234.5 C1123.5,234.5 1157.4009,259.9188 1183.4509,279.4688" fill="none" id="CrearInvestigadorView-to-CreacionCancelada" style="stroke:#181818;stroke-width:1;stroke-dasharray:7,7;"/><polygon fill="#181818" points="1187.45,282.47,1182.6526,273.8685,1183.4509,279.4688,1177.8507,280.2671,1187.45,282.47" style="stroke:#181818;stroke-width:1;stroke-linejoin:miter;stroke-miterlimit:10;"/><text fill="#000000" font-family="sans-serif" font-size="13" lengthAdjust="spacing" textLength="109.8208" x="1147.5" y="248.9951">cancelarCreacion()</text></g><?plantuml-src jP8zRy8m48Pt_ufJki0G1bHGoO0KGgWoj4X0MIidFaKMmOxEwGUg-j_hgA3c2rg6PdBizzuxFw_DJggS4zz39XKMXnmXrzcX_66C9uKc2BGc8HKNcXXXKd2LPWWtmJoS-IDmlEXn6wutqRq_Nwx2zRC_YyBLPhbsW1k8r2kQGgPbCHe_baY5DYpdoOwd20aXfwgch75Qkxs-0nyCx5VfFnvEmiK4WgPuA_6jgOr7iHZVjRM1LWNfB4DgLYo6Vd0RrkPVOQwDj4GEVn2pprzPdKYrG1qnNGsxl5uYjGguIZ3ZWZDMoGvSzrmStTlWaZljvkj1HqQiKmgkw7Bv8UzPagaq1JNy1BSpF4WbzzhqmQlJlU1dxpazavi7-6uxuPDvuIJrCj14g5kTOgqpvEgg9aSY_pDrQiSLrhnwtZBlBcwcVYQamM3QzGGzu379UYvIrCQuODXwZnRIzv9EHxt-5m00?></g></svg>