<svg xmlns="http://www.w3.org/2000/svg" xmlns:xlink="http://www.w3.org/1999/xlink" contentStyleType="text/css" data-diagram-type="DESCRIPTION" height="603px" preserveAspectRatio="none" style="width:2397px;height:603px;background:#FFFFFF;" version="1.1" viewBox="0 0 2397 603" width="2397px" zoomAndPan="magnify"><?plantuml 1.2026.5?><defs/><g><!--cluster abrirInvestigadores--><g class="cluster" data-qualified-name="abrirInvestigadores" data-source-line="6" id="ent0004"><path d="M454,147.5 L728.0615,147.5 A3.75,3.75 0 0 1 730.5615,150 L737.5615,171.1094 L1364,171.1094 A2.5,2.5 0 0 1 1366.5,173.6094 L1366.5,586 A2.5,2.5 0 0 1 1364,588.5 L454,588.5 A2.5,2.5 0 0 1 451.5,586 L451.5,150 A2.5,2.5 0 0 1 454,147.5" fill="none" style="stroke:#000000;stroke-width:1.5;"/><line style="stroke:#000000;stroke-width:1.5;" x1="451.5" x2="737.5615" y1="171.1094" y2="171.1094"/><text fill="#000000" font-family="sans-serif" font-size="14" font-weight="700" lengthAdjust="spacing" textLength="273.0615" x="455.5" y="164.0332">abrirInvestigadores(idProyecto opcional)</text></g><!--entity ListarInvestigadoresView--><g class="entity" data-qualified-name="abrirInvestigadores.ListarInvestigadoresView" data-source-line="7" id="ent0005"><rect fill="#629EF9" height="37.6094" rx="2.5" ry="2.5" style="stroke:#181818;stroke-width:0.5;" width="175.6338" x="914.5" y="203.5"/><text fill="#000000" font-family="sans-serif" font-size="14" lengthAdjust="spacing" textLength="155.6338" x="924.5" y="228.0332">ListarInvestigadoresView</text></g><!--entity InvestigadoresController--><g class="entity" data-qualified-name="abrirInvestigadores.InvestigadoresController" data-source-line="8" id="ent0006"><rect fill="#B5BD68" height="37.6094" rx="2.5" ry="2.5" style="stroke:#181818;stroke-width:0.5;" width="171.7441" x="669.5" y="319.5"/><text fill="#000000" font-family="sans-serif" font-size="14" lengthAdjust="spacing" textLength="151.7441" x="679.5" y="344.0332">InvestigadoresController</text></g><!--entity InvestigadorRepository--><g class="entity" data-qualified-name="abrirInvestigadores.InvestigadorRepository" data-source-line="9" id="ent0007"><rect fill="#F2AC4E" height="37.6094" rx="2.5" ry="2.5" style="stroke:#181818;stroke-width:0.5;" width="163.1855" x="674" y="435.5"/><text fill="#000000" font-family="sans-serif" font-size="14" lengthAdjust="spacing" textLength="143.1855" x="684" y="460.0332">InvestigadorRepository</text></g><!--entity ProyectoRepository--><g class="entity" data-qualified-name="abrirInvestigadores.ProyectoRepository" data-source-line="10" id="ent0008"><rect fill="#F2AC4E" height="37.6094" rx="2.5" ry="2.5" style="stroke:#181818;stroke-width:0.5;" width="142.165" x="921.5" y="435.5"/><text fill="#000000" font-family="sans-serif" font-size="14" lengthAdjust="spacing" textLength="122.165" x="931.5" y="460.0332">ProyectoRepository</text></g><!--entity Investigador--><g class="entity" data-qualified-name="abrirInvestigadores.Investigador" data-source-line="11" id="ent0009"><rect fill="#F2AC4E" height="37.6094" rx="2.5" ry="2.5" style="stroke:#181818;stroke-width:0.5;" width="96.2686" x="825.5" y="534.5"/><text fill="#000000" font-family="sans-serif" font-size="14" lengthAdjust="spacing" textLength="76.2686" x="835.5" y="559.0332">Investigador</text></g><!--entity Coordinador--><g class="entity" data-qualified-name="Coordinador" data-source-line="3" id="ent0001"><ellipse cx="232.5239" cy="14" fill="#F1F1F1" rx="8" ry="8" style="stroke:#181818;stroke-width:0.5;"/><path d="M232.5239,22 L232.5239,49 M219.5239,30 L245.5239,30 M232.5239,49 L219.5239,64 M232.5239,49 L245.5239,64" fill="none" style="stroke:#181818;stroke-width:0.5;"/><text fill="#000000" font-family="sans-serif" font-size="14" lengthAdjust="spacing" textLength="77.0479" x="194" y="80.0332">Coordinador</text></g><!--entity Panel--><g class="entity" data-qualified-name="Panel" data-source-line="4" id="ent0002"><rect fill="#CDEBA5" height="37.6094" rx="2.5" ry="2.5" style="stroke:#181818;stroke-width:0.5;" width="220.7373" x="7" y="203.5"/><text fill="#000000" font-family="sans-serif" font-size="14" lengthAdjust="spacing" textLength="200.7373" x="17" y="228.0332">:PANEL_PRINCIPAL_ABIERTO</text></g><!--entity ProyectoAbierto--><g class="entity" data-qualified-name="ProyectoAbierto" data-source-line="5" id="ent0003"><rect fill="#CDEBA5" height="37.6094" rx="2.5" ry="2.5" style="stroke:#181818;stroke-width:0.5;" width="171.6963" x="263.5" y="203.5"/><text fill="#000000" font-family="sans-serif" font-size="14" lengthAdjust="spacing" textLength="151.6963" x="273.5" y="228.0332">:PROYECTO_ABIERTO</text></g><!--entity InvestigadoresAbiertos--><g class="entity" data-qualified-name="InvestigadoresAbiertos" data-source-line="13" id="ent0010"><rect fill="#CDEBA5" height="37.6094" rx="2.5" ry="2.5" style="stroke:#181818;stroke-width:0.5;" width="226.9375" x="1383" y="319.5"/><text fill="#000000" font-family="sans-serif" font-size="14" lengthAdjust="spacing" textLength="206.9375" x="1393" y="344.0332">:INVESTIGADORES_ABIERTOS</text></g><!--entity AbrirInvestigador--><g class="entity" data-qualified-name="AbrirInvestigador" data-source-line="14" id="ent0011"><rect fill="#CDEBA5" height="37.6094" rx="2.5" ry="2.5" style="stroke:#181818;stroke-width:0.5;" width="216.1025" x="1645.5" y="319.5"/><text fill="#000000" font-family="sans-serif" font-size="14" lengthAdjust="spacing" textLength="196.1025" x="1655.5" y="344.0332">:Collaboration AbrirInvestigador</text></g><!--entity CrearInvestigador--><g class="entity" data-qualified-name="CrearInvestigador" data-source-line="15" id="ent0012"><rect fill="#CDEBA5" height="37.6094" rx="2.5" ry="2.5" style="stroke:#181818;stroke-width:0.5;" width="221.5508" x="1896.5" y="319.5"/><text fill="#000000" font-family="sans-serif" font-size="14" lengthAdjust="spacing" textLength="201.5508" x="1906.5" y="344.0332">:Collaboration CrearInvestigador</text></g><!--entity AbrirPanel--><g class="entity" data-qualified-name="AbrirPanel" data-source-line="16" id="ent0013"><rect fill="#CDEBA5" height="37.6094" rx="2.5" ry="2.5" style="stroke:#181818;stroke-width:0.5;" width="229.3301" x="2154" y="319.5"/><text fill="#000000" font-family="sans-serif" font-size="14" lengthAdjust="spacing" textLength="209.3301" x="2164" y="344.0332">:Collaboration AbrirPanelPrincipal</text></g><!--link Coordinador to Panel--><g class="link" data-entity-1="ent0001" data-entity-2="ent0002" data-link-type="association" data-source-line="18" id="lnk14"><path d="M207.55,83.69 C183.37,120.69 147.74,175.21 129.39,203.3" fill="none" id="Coordinador-Panel" style="stroke:#181818;stroke-width:1;"/></g><!--link Coordinador to ProyectoAbierto--><g class="link" data-entity-1="ent0001" data-entity-2="ent0003" data-link-type="association" data-source-line="19" id="lnk15"><path d="M257.89,83.69 C282.49,120.69 318.73,175.21 337.4,203.3" fill="none" id="Coordinador-ProyectoAbierto" style="stroke:#181818;stroke-width:1;"/></g><!--link Panel to ListarInvestigadoresView--><g class="link" data-entity-1="ent0002" data-entity-2="ent0005" data-link-type="dependency" data-source-line="20" id="lnk16"><path d="M147.19,203.48 C185,179.26 245.5,140.5 245.5,140.5 C245.5,140.5 453.5,140.5 453.5,140.5 C453.5,140.5 754.1549,185.4114 909.3449,208.5914" fill="none" id="Panel-to-ListarInvestigadoresView" style="stroke:#181818;stroke-width:1;"/><polygon fill="#181818" points="914.29,209.33,905.9797,204.0443,909.3449,208.5914,904.7978,211.9566,914.29,209.33" style="stroke:#181818;stroke-width:1;stroke-linejoin:miter;stroke-miterlimit:10;"/><text fill="#000000" font-family="sans-serif" font-size="13" lengthAdjust="spacing" textLength="119.2153" x="512" y="127.9951">abrirInvestigadores()</text></g><!--link ProyectoAbierto to ListarInvestigadoresView--><g class="link" data-entity-1="ent0003" data-entity-2="ent0005" data-link-type="dependency" data-source-line="21" id="lnk17"><path d="M435.54,222.5 C559.96,222.5 783.91,222.5 909.44,222.5" fill="none" id="ProyectoAbierto-to-ListarInvestigadoresView" style="stroke:#181818;stroke-width:1;"/><polygon fill="#181818" points="914.44,222.5,905.44,218.5,909.44,222.5,905.44,226.5,914.44,222.5" style="stroke:#181818;stroke-width:1;stroke-linejoin:miter;stroke-miterlimit:10;"/><text fill="#000000" font-family="sans-serif" font-size="13" lengthAdjust="spacing" textLength="180.6353" x="585" y="215.9951">abrirInvestigadores(idProyecto)</text></g><!--link ListarInvestigadoresView to InvestigadoresController--><g class="link" data-entity-1="ent0005" data-entity-2="ent0006" data-link-type="dependency" data-source-line="22" id="lnk18"><path d="M914.36,235.8 C812.44,250.02 658.5,271.5 658.5,271.5 C658.5,271.5 658.5,289.5 658.5,289.5 C658.5,289.5 687.0988,303.6522 714.6188,317.2722" fill="none" id="ListarInvestigadoresView-to-InvestigadoresController" style="stroke:#181818;stroke-width:1;"/><polygon fill="#181818" points="719.1,319.49,712.8081,311.913,714.6188,317.2722,709.2596,319.0829,719.1,319.49" style="stroke:#181818;stroke-width:1;stroke-linejoin:miter;stroke-miterlimit:10;"/><text fill="#000000" font-family="sans-serif" font-size="13" lengthAdjust="spacing" textLength="299.146" x="659.5" y="285.9951">listarInvestigadores(idProyecto) : List&lt;Investigador&gt;</text></g><!--link ListarInvestigadoresView to InvestigadoresController--><g class="link" data-entity-1="ent0005" data-entity-2="ent0006" data-link-type="dependency" data-source-line="25" id="lnk21"><path d="M991.84,241.53 C980.3,261.08 963.5,289.5 963.5,289.5 C963.5,289.5 897.432,304.7457 838.412,318.3657" fill="none" id="ListarInvestigadoresView-to-InvestigadoresController-1" style="stroke:#181818;stroke-width:1;"/><polygon fill="#181818" points="833.54,319.49,843.209,321.3638,838.412,318.3657,841.4101,313.5687,833.54,319.49" style="stroke:#181818;stroke-width:1;stroke-linejoin:miter;stroke-miterlimit:10;"/><text fill="#000000" font-family="sans-serif" font-size="13" lengthAdjust="spacing" textLength="346.8169" x="974.5" y="285.9951">filtrarInvestigadores(idProyecto, criterio) : List&lt;Investigador&gt;</text></g><!--link InvestigadoresController to InvestigadorRepository--><g class="link" data-entity-1="ent0006" data-entity-2="ent0007" data-link-type="dependency" data-source-line="23" id="lnk19"><path d="M669.19,355.68 C594.87,369.62 499.5,387.5 499.5,387.5 C499.5,387.5 499.5,405.5 499.5,405.5 C499.5,405.5 593.9657,423.2084 668.8857,437.2584" fill="none" id="InvestigadoresController-to-InvestigadorRepository" style="stroke:#181818;stroke-width:1;"/><polygon fill="#181818" points="673.8,438.18,665.6915,432.5897,668.8857,437.2584,664.2169,440.4526,673.8,438.18" style="stroke:#181818;stroke-width:1;stroke-linejoin:miter;stroke-miterlimit:10;"/><text fill="#000000" font-family="sans-serif" font-size="13" lengthAdjust="spacing" textLength="211.7197" x="500.5" y="401.9951">obtenerActivos() : List&lt;Investigador&gt;</text></g><!--link InvestigadoresController to InvestigadorRepository--><g class="link" data-entity-1="ent0006" data-entity-2="ent0007" data-link-type="dependency" data-source-line="26" id="lnk22"><path d="M754.37,357.65 C753.52,371.24 752.5,387.5 752.5,387.5 C752.5,387.5 752.5,405.5 752.5,405.5 C752.5,405.5 753.2079,416.7698 754.0579,430.3598" fill="none" id="InvestigadoresController-to-InvestigadorRepository-1" style="stroke:#181818;stroke-width:1;"/><polygon fill="#181818" points="754.37,435.35,757.8004,426.1179,754.0579,430.3598,749.816,426.6172,754.37,435.35" style="stroke:#181818;stroke-width:1;stroke-linejoin:miter;stroke-miterlimit:10;"/><text fill="#000000" font-family="sans-serif" font-size="13" lengthAdjust="spacing" textLength="245.6543" x="753.5" y="401.9951">buscarActivos(criterio) : List&lt;Investigador&gt;</text></g><!--link InvestigadoresController to ProyectoRepository--><g class="link" data-entity-1="ent0006" data-entity-2="ent0008" data-link-type="dependency" data-source-line="24" id="lnk20"><path d="M841.54,356.15 C913.17,370.02 1003.5,387.5 1003.5,387.5 C1003.5,387.5 1003.5,405.5 1003.5,405.5 C1003.5,405.5 1000.8854,416.886 997.7754,430.476" fill="none" id="InvestigadoresController-to-ProyectoRepository" style="stroke:#181818;stroke-width:1;"/><polygon fill="#181818" points="996.66,435.35,1002.5669,427.4691,997.7754,430.476,994.7685,425.6845,996.66,435.35" style="stroke:#181818;stroke-width:1;stroke-linejoin:miter;stroke-miterlimit:10;"/><text fill="#000000" font-family="sans-serif" font-size="13" lengthAdjust="spacing" textLength="306.3887" x="1004.5" y="401.9951">obtenerParticipantes(idProyecto) : List&lt;Investigador&gt;</text></g><!--link InvestigadorRepository to Investigador--><g class="link" data-entity-1="ent0007" data-entity-2="ent0009" data-link-type="association" data-source-line="27" id="lnk23"><path d="M777.42,473.52 C798.48,490.83 830.14,516.86 851.3,534.25" fill="none" id="InvestigadorRepository-Investigador" style="stroke:#181818;stroke-width:1;"/></g><!--link ProyectoRepository to Investigador--><g class="link" data-entity-1="ent0008" data-entity-2="ent0009" data-link-type="association" data-source-line="28" id="lnk24"><path d="M970.4,473.52 C949.16,490.83 917.22,516.86 895.89,534.25" fill="none" id="ProyectoRepository-Investigador" style="stroke:#181818;stroke-width:1;"/></g><!--link ListarInvestigadoresView to InvestigadoresAbiertos--><g class="link" data-entity-1="ent0005" data-entity-2="ent0010" data-link-type="dependency" data-source-line="29" id="lnk25"><path d="M1090.56,236.43 C1187.41,250.64 1329.5,271.5 1329.5,271.5 C1329.5,271.5 1396.7702,298.0817 1446.2202,317.6317" fill="none" id="ListarInvestigadoresView-to-InvestigadoresAbiertos" style="stroke:#181818;stroke-width:1;stroke-dasharray:7,7;"/><polygon fill="#181818" points="1450.87,319.47,1443.971,312.4412,1446.2202,317.6317,1441.0297,319.8809,1450.87,319.47" style="stroke:#181818;stroke-width:1;stroke-linejoin:miter;stroke-miterlimit:10;"/><text fill="#000000" font-family="sans-serif" font-size="13" lengthAdjust="spacing" textLength="165.4771" x="1374.5" y="285.9951">investigadoresPresentados()</text></g><!--link ListarInvestigadoresView to AbrirInvestigador--><g class="link" data-entity-1="ent0005" data-entity-2="ent0011" data-link-type="dependency" data-source-line="30" id="lnk26"><path d="M1090.53,231.24 C1244.96,244.82 1548.5,271.5 1548.5,271.5 C1548.5,271.5 1632.0308,298.3869 1692.7208,317.9369" fill="none" id="ListarInvestigadoresView-to-AbrirInvestigador" style="stroke:#181818;stroke-width:1;stroke-dasharray:7,7;"/><polygon fill="#181818" points="1697.48,319.47,1690.1399,312.9031,1692.7208,317.9369,1687.687,320.5178,1697.48,319.47" style="stroke:#181818;stroke-width:1;stroke-linejoin:miter;stroke-miterlimit:10;"/><text fill="#000000" font-family="sans-serif" font-size="13" lengthAdjust="spacing" textLength="186.4243" x="1603.5" y="285.9951">abrirInvestigador(idInvestigador)</text></g><!--link ListarInvestigadoresView to CrearInvestigador--><g class="link" data-entity-1="ent0005" data-entity-2="ent0012" data-link-type="dependency" data-source-line="31" id="lnk27"><path d="M1090.73,228.82 C1297.98,241.32 1798.5,271.5 1798.5,271.5 C1798.5,271.5 1883.7423,298.4137 1945.6223,317.9637" fill="none" id="ListarInvestigadoresView-to-CrearInvestigador" style="stroke:#181818;stroke-width:1;stroke-dasharray:7,7;"/><polygon fill="#181818" points="1950.39,319.47,1943.0131,312.9445,1945.6223,317.9637,1940.6031,320.5729,1950.39,319.47" style="stroke:#181818;stroke-width:1;stroke-linejoin:miter;stroke-miterlimit:10;"/><text fill="#000000" font-family="sans-serif" font-size="13" lengthAdjust="spacing" textLength="109.0972" x="1855.5" y="285.9951">crearInvestigador()</text></g><!--link ListarInvestigadoresView to AbrirPanel--><g class="link" data-entity-1="ent0005" data-entity-2="ent0013" data-link-type="dependency" data-source-line="32" id="lnk28"><path d="M1090.81,227.87 C1330.17,239.7 1973.5,271.5 1973.5,271.5 C1973.5,271.5 2095.6707,298.8278 2183.0107,318.3778" fill="none" id="ListarInvestigadoresView-to-AbrirPanel" style="stroke:#181818;stroke-width:1;stroke-dasharray:7,7;"/><polygon fill="#181818" points="2187.89,319.47,2179.9811,313.6007,2183.0107,318.3778,2178.2336,321.4075,2187.89,319.47" style="stroke:#181818;stroke-width:1;stroke-linejoin:miter;stroke-miterlimit:10;"/><text fill="#000000" font-family="sans-serif" font-size="13" lengthAdjust="spacing" textLength="117.7681" x="2053.5" y="285.9951">abrirPanelPrincipal()</text></g><?plantuml-src hPHHQzim58NVzIiksKi2Sn_AMbOp0gxh3aD8Z1CAUogohOLBDSbSQnrXxBzFTfF6jkmqApFuGPUZuwlFHxTwGbLouZz0eX9cLmeejTpL2yPuRZH1g3KLg7YXYP783LTRAU13U1VT1bSmyPDW6IqUapHUXd4IB1w3spXADwi9y0eIheGStfMklaNXPjMLazvPhGuo56GqAtd-nBS2U4P8iNeMbS5jtOYeQlbae3x5uk02kinHAovd4_ZDm3wjHgulRwBx6rXWPNZFuW75hxuykygAwy_G5OPQ6T9I2khBxo-3y5FKaQUYr1LQeBiHyQ7jDuLjL_Pda6wyV8ZMc_XhSBTAe_M1yRg1t3t37dKrQ1FQm_5C4pUM8mHzsesTKpt3AIJ1NIUdUcvFJSeIGfLZoUMngvVqiLQ0mVFscUmNUybhHE2HDn-DY3yKo-cCzQpUOtBCy8oDxGIliBvZWVJjVNRtjOt1RvhwqbRCsPYVPJGVYRCFEZD22GfoWy_Q8dY7jHl-Lzk4ay7wpofppWd6UPt4zHsbeHEyFa9EQ0JXVoMN_Qno_Whk7xvmDAdJsxaqBaf7Ciheuc8-CXzym4uziQzGnYxgp9yqT2R4GEWjwVRo3KTdKlZsx_HAPtNLNFDzEzqfCftz1G00?></g></svg>