<svg xmlns="http://www.w3.org/2000/svg" xmlns:xlink="http://www.w3.org/1999/xlink" contentStyleType="text/css" data-diagram-type="STATE" height="1130px" preserveAspectRatio="none" style="width:1306px;height:1130px;background:#FFFFFF;" version="1.1" viewBox="0 0 1306 1130" width="1306px" zoomAndPan="magnify"><?plantuml 1.2026.6?><defs/><g><g class="entity" data-qualified-name="in1" data-source-line="4" id="ent0001"><rect fill="#F1F1F1" height="50" rx="12.5" ry="12.5" style="stroke:#181818;stroke-width:0.5;" width="205.9375" x="546" y="7"/><line style="stroke:#181818;stroke-width:0.5;" x1="546" x2="751.9375" y1="34.6094" y2="34.6094"/><text fill="#000000" font-family="sans-serif" font-size="14" lengthAdjust="spacing" textLength="185.9375" x="556" y="26.5332">RECOMPENSAS_ABIERTAS</text></g><g class="entity" data-qualified-name="crearRecompensa" data-source-line="10" id="ent0002"><path d="M19.5,153 L1278.5,153 A12.5,12.5 0 0 1 1291,165.5 L1291,180.6094 L7,180.6094 L7,165.5 A12.5,12.5 0 0 1 19.5,153" fill="#F1F1F1"/><rect fill="none" height="816.6094" rx="12.5" ry="12.5" style="stroke:#181818;stroke-width:0.5;" width="1284" x="7" y="153"/><line style="stroke:#181818;stroke-width:0.5;" x1="7" x2="1291" y1="180.6094" y2="180.6094"/><text fill="#000000" font-family="sans-serif" font-size="14" lengthAdjust="spacing" textLength="123.71" x="587.145" y="172.5332">crearRecompensa()</text><g class="entity" data-qualified-name="crearRecompensa.SeleccionandoProyecto" data-source-line="12" id="ent0003"><rect fill="#F1F1F1" height="50" rx="12.5" ry="12.5" style="stroke:#181818;stroke-width:0.5;" width="50" x="785" y="299.6094"/><line style="stroke:#181818;stroke-width:0.5;" x1="785" x2="835" y1="327.2188" y2="327.2188"/><text fill="#000000" font-family="sans-serif" font-size="14" lengthAdjust="spacing" textLength="3.8896" x="808.0552" y="319.1426">&#160;</text></g><g class="entity" data-qualified-name="crearRecompensa.SeleccionandoBeneficiario" data-source-line="13" id="ent0004"><rect fill="#F1F1F1" height="50" rx="12.5" ry="12.5" style="stroke:#181818;stroke-width:0.5;" width="50" x="602" y="437.6094"/><line style="stroke:#181818;stroke-width:0.5;" x1="602" x2="652" y1="465.2188" y2="465.2188"/><text fill="#000000" font-family="sans-serif" font-size="14" lengthAdjust="spacing" textLength="3.8896" x="625.0552" y="457.1426">&#160;</text></g><g class="entity" data-qualified-name="crearRecompensa.IntroduciendoDatos" data-source-line="14" id="ent0005"><rect fill="#F1F1F1" height="50" rx="12.5" ry="12.5" style="stroke:#181818;stroke-width:0.5;" width="50" x="316" y="641.6094"/><line style="stroke:#181818;stroke-width:0.5;" x1="316" x2="366" y1="669.2188" y2="669.2188"/><text fill="#000000" font-family="sans-serif" font-size="14" lengthAdjust="spacing" textLength="3.8896" x="339.0552" y="661.1426">&#160;</text></g><g class="entity" data-qualified-name="crearRecompensa.RecompensaCreada" data-source-line="15" id="ent0006"><rect fill="#F1F1F1" height="50" rx="12.5" ry="12.5" style="stroke:#181818;stroke-width:0.5;" width="50" x="19" y="812.6094"/><line style="stroke:#181818;stroke-width:0.5;" x1="19" x2="69" y1="840.2188" y2="840.2188"/><text fill="#000000" font-family="sans-serif" font-size="14" lengthAdjust="spacing" textLength="3.8896" x="42.0552" y="832.1426">&#160;</text></g><g class="start_entity" data-qualified-name="crearRecompensa..start.crearRecompensa" data-source-line="17" id="ent0008"><ellipse cx="810" cy="201.6094" fill="#222222" rx="10" ry="10" style="stroke:#222222;stroke-width:1;"/></g><g class="end_entity" data-qualified-name="crearRecompensa..end.crearRecompensa" data-source-line="47" id="ent0013"><ellipse cx="545" cy="945.6094" fill="none" rx="11" ry="11" style="stroke:#222222;stroke-width:1;"/><ellipse cx="545" cy="945.6094" fill="#222222" rx="6" ry="6" style="stroke:#222222;stroke-width:1;"/></g><!--link *start*crearRecompensa to SeleccionandoProyecto--><g class="link" data-entity-1="ent0008" data-entity-2="ent0003" data-link-type="dependency" data-source-line="17" id="lnk9"><path d="M810,211.6994 C810,230.1694 810,267.5894 810,294.5794" fill="none" id="*start*crearRecompensa-to-SeleccionandoProyecto" style="stroke:#008000;stroke-width:1;"/><polygon fill="#008000" points="810,299.5794,814,290.5794,810,294.5794,806,290.5794,810,299.5794" style="stroke:#008000;stroke-width:1;stroke-linejoin:miter;stroke-miterlimit:10;"/><path d="M815,234.6094 L815,276.6094 L1237,276.6094 L1237,244.6094 L1227,234.6094 L815,234.6094" fill="#FEFFDD" style="stroke:#181818;stroke-width:0.5;"/><path d="M1227,234.6094 L1227,244.6094 L1237,244.6094 L1227,234.6094" fill="#FEFFDD" style="stroke:#181818;stroke-width:0.5;"/><text fill="#000000" font-family="sans-serif" font-size="13" font-weight="700" lengthAdjust="spacing" textLength="77.9937" x="821" y="253.1045">Coordinador</text><text fill="#000000" font-family="sans-serif" font-size="13" lengthAdjust="spacing" textLength="148.1162" x="902.6055" y="253.1045">solicita crear recompensa</text><text fill="#000000" font-family="sans-serif" font-size="13" font-weight="700" lengthAdjust="spacing" textLength="49.8608" x="821" y="269.4561">Sistema</text><text fill="#000000" font-family="sans-serif" font-size="13" lengthAdjust="spacing" textLength="348.3276" x="874.4727" y="269.4561">presenta proyectos completados pendientes de recompensa</text></g><!--link SeleccionandoProyecto to SeleccionandoBeneficiario--><g class="link" data-entity-1="ent0003" data-entity-2="ent0004" data-link-type="dependency" data-source-line="23" id="lnk10"><path d="M784.69,331.4494 C734.69,342.9894 628,367.6094 628,367.6094 C628,367.6094 627.6021,404.5496 627.3121,432.3996" fill="none" id="SeleccionandoProyecto-to-SeleccionandoBeneficiario" style="stroke:#008000;stroke-width:1;"/><polygon fill="#008000" points="627.26,437.3994,631.3535,428.4415,627.3121,432.3996,623.3539,428.3582,627.26,437.3994" style="stroke:#008000;stroke-width:1;stroke-linejoin:miter;stroke-miterlimit:10;"/><path d="M633,372.6094 L633,414.6094 L974,414.6094 L974,382.6094 L964,372.6094 L633,372.6094" fill="#FEFFDD" style="stroke:#181818;stroke-width:0.5;"/><path d="M964,372.6094 L964,382.6094 L974,382.6094 L964,372.6094" fill="#FEFFDD" style="stroke:#181818;stroke-width:0.5;"/><text fill="#000000" font-family="sans-serif" font-size="13" font-weight="700" lengthAdjust="spacing" textLength="77.9937" x="639" y="391.1045">Coordinador</text><text fill="#000000" font-family="sans-serif" font-size="13" lengthAdjust="spacing" textLength="203.7915" x="720.6055" y="391.1045">selecciona un proyecto completado</text><text fill="#000000" font-family="sans-serif" font-size="13" font-weight="700" lengthAdjust="spacing" textLength="49.8608" x="639" y="407.4561">Sistema</text><text fill="#000000" font-family="sans-serif" font-size="13" lengthAdjust="spacing" textLength="267.3887" x="692.4727" y="407.4561">presenta investigadores elegibles del proyecto</text></g><!--link SeleccionandoBeneficiario to IntroduciendoDatos--><g class="link" data-entity-1="ent0004" data-entity-2="ent0005" data-link-type="dependency" data-source-line="29" id="lnk11"><path d="M601.71,467.3394 C531.96,477.6194 342,505.6094 342,505.6094 C342,505.6094 341.4613,591.5495 341.1813,636.3095" fill="none" id="SeleccionandoBeneficiario-to-IntroduciendoDatos" style="stroke:#008000;stroke-width:1;"/><polygon fill="#008000" points="341.15,641.3094,345.2062,632.3346,341.1813,636.3095,337.2064,632.2845,341.15,641.3094" style="stroke:#008000;stroke-width:1;stroke-linejoin:miter;stroke-miterlimit:10;"/><path d="M347,510.6094 L347,618.6094 L680,618.6094 L680,520.6094 L670,510.6094 L347,510.6094" fill="#FEFFDD" style="stroke:#181818;stroke-width:0.5;"/><path d="M670,510.6094 L670,520.6094 L680,520.6094 L670,510.6094" fill="#FEFFDD" style="stroke:#181818;stroke-width:0.5;"/><text fill="#000000" font-family="sans-serif" font-size="13" font-weight="700" lengthAdjust="spacing" textLength="77.9937" x="353" y="529.1045">Coordinador</text><text fill="#000000" font-family="sans-serif" font-size="13" lengthAdjust="spacing" textLength="218.9624" x="434.6055" y="529.1045">selecciona el investigador beneficiario</text><text fill="#000000" font-family="sans-serif" font-size="13" font-weight="700" lengthAdjust="spacing" textLength="49.8608" x="353" y="545.4561">Sistema</text><text fill="#000000" font-family="sans-serif" font-size="13" lengthAdjust="spacing" textLength="258.6924" x="406.4727" y="545.4561">presenta los tipos de recompensa permitidos</text><text fill="#000000" font-family="sans-serif" font-size="13" font-weight="700" lengthAdjust="spacing" textLength="49.8608" x="353" y="561.8076">Sistema</text><text fill="#000000" font-family="sans-serif" font-size="13" lengthAdjust="spacing" textLength="104.0381" x="406.4727" y="561.8076">permite introducir:</text><text fill="#000000" font-family="sans-serif" font-size="13" lengthAdjust="spacing" textLength="64.543" x="353" y="578.1592">&#8226; Concepto</text><text fill="#000000" font-family="sans-serif" font-size="13" lengthAdjust="spacing" textLength="127.4038" x="353" y="594.5107">&#8226; Tipo de recompensa</text><text fill="#000000" font-family="sans-serif" font-size="13" lengthAdjust="spacing" textLength="226.4146" x="353" y="610.8623">&#8226; Valor econ&#243;mico o reducci&#243;n docente</text></g><!--link IntroduciendoDatos to RecompensaCreada--><g class="link" data-entity-1="ent0005" data-entity-2="ent0006" data-link-type="dependency" data-source-line="39" id="lnk12"><path d="M316,670.9794 C241.96,680.9394 29,709.6094 29,709.6094 C29,709.6094 29,794.6094 29,794.6094 C29,794.6094 30.2883,798.2307 33.5883,807.4707" fill="none" id="IntroduciendoDatos-to-RecompensaCreada" style="stroke:#008000;stroke-width:1;"/><polygon fill="#008000" points="35.27,812.1794,36.0099,802.3584,33.5883,807.4707,28.476,805.049,35.27,812.1794" style="stroke:#008000;stroke-width:1;stroke-linejoin:miter;stroke-miterlimit:10;"/><path d="M34,714.6094 L34,789.6094 L373,789.6094 L373,724.6094 L363,714.6094 L34,714.6094" fill="#FEFFDD" style="stroke:#181818;stroke-width:0.5;"/><path d="M363,714.6094 L363,724.6094 L373,724.6094 L363,714.6094" fill="#FEFFDD" style="stroke:#181818;stroke-width:0.5;"/><text fill="#000000" font-family="sans-serif" font-size="13" font-weight="700" lengthAdjust="spacing" textLength="77.9937" x="40" y="733.1045">Coordinador</text><text fill="#000000" font-family="sans-serif" font-size="13" lengthAdjust="spacing" textLength="190.7725" x="121.6055" y="733.1045">introduce datos y solicita guardar</text><text fill="#000000" font-family="sans-serif" font-size="13" font-weight="700" lengthAdjust="spacing" textLength="49.8608" x="40" y="749.4561">Sistema</text><text fill="#000000" font-family="sans-serif" font-size="13" lengthAdjust="spacing" textLength="265.2114" x="93.4727" y="749.4561">valida proyecto, beneficiario, tipo y duplicados</text><text fill="#000000" font-family="sans-serif" font-size="13" font-weight="700" lengthAdjust="spacing" textLength="49.8608" x="40" y="765.8076">Sistema</text><text fill="#000000" font-family="sans-serif" font-size="13" lengthAdjust="spacing" textLength="132.228" x="93.4727" y="765.8076">registra la recompensa</text><text fill="#000000" font-family="sans-serif" font-size="13" font-weight="700" lengthAdjust="spacing" textLength="49.8608" x="40" y="782.1592">Sistema</text><text fill="#000000" font-family="sans-serif" font-size="13" lengthAdjust="spacing" textLength="218.2324" x="93.4727" y="782.1592">presenta el registro de la recompensa</text></g><!--link SeleccionandoProyecto to *end*crearRecompensa--><g class="link" data-entity-1="ent0003" data-entity-2="ent0013" data-link-type="dependency" data-source-line="47" id="lnk14"><path d="M835.3,331.8994 C882.45,343.6094 979,367.6094 979,367.6094 C979,367.6094 993,461.6094 993,461.6094 C993,461.6094 993,461.6094 993,838.6094 C993,838.6094 628.3357,924.8882 560.4957,940.9382" fill="none" id="SeleccionandoProyecto-to-*end*crearRecompensa" style="stroke:#FF0000;stroke-width:1;"/><polygon fill="#FF0000" points="555.63,942.0894,565.3091,943.9098,560.4957,940.9382,563.4673,936.1248,555.63,942.0894" style="stroke:#FF0000;stroke-width:1;stroke-linejoin:miter;stroke-miterlimit:10;"/><path d="M998,653.6094 L998,679.6094 L1267,679.6094 L1267,663.6094 L1257,653.6094 L998,653.6094" fill="#FEFFDD" style="stroke:#181818;stroke-width:0.5;"/><path d="M1257,653.6094 L1257,663.6094 L1267,663.6094 L1257,653.6094" fill="#FEFFDD" style="stroke:#181818;stroke-width:0.5;"/><text fill="#000000" font-family="sans-serif" font-size="13" font-weight="700" lengthAdjust="spacing" textLength="77.9937" x="1004" y="672.1045">Coordinador</text><text fill="#000000" font-family="sans-serif" font-size="13" lengthAdjust="spacing" textLength="166.9243" x="1085.6055" y="672.1045">solicita cancelar la operaci&#243;n</text></g><!--link SeleccionandoBeneficiario to *end*crearRecompensa--><g class="link" data-entity-1="ent0004" data-entity-2="ent0013" data-link-type="dependency" data-source-line="52" id="lnk15"><path d="M652.27,481.9094 C667.9,493.2294 685,505.6094 685,505.6094 C685,505.6094 685,862.6094 685,862.6094 C685,862.6094 589.6444,918.4623 558.5044,936.7023" fill="none" id="SeleccionandoBeneficiario-to-*end*crearRecompensa" style="stroke:#FF0000;stroke-width:1;"/><polygon fill="#FF0000" points="554.19,939.2294,563.9775,938.1321,558.5044,936.7023,559.9342,931.2291,554.19,939.2294" style="stroke:#FF0000;stroke-width:1;stroke-linejoin:miter;stroke-miterlimit:10;"/><path d="M690,739.1094 L690,765.1094 L959,765.1094 L959,749.1094 L949,739.1094 L690,739.1094" fill="#FEFFDD" style="stroke:#181818;stroke-width:0.5;"/><path d="M949,739.1094 L949,749.1094 L959,749.1094 L949,739.1094" fill="#FEFFDD" style="stroke:#181818;stroke-width:0.5;"/><text fill="#000000" font-family="sans-serif" font-size="13" font-weight="700" lengthAdjust="spacing" textLength="77.9937" x="696" y="757.6045">Coordinador</text><text fill="#000000" font-family="sans-serif" font-size="13" lengthAdjust="spacing" textLength="166.9243" x="777.6055" y="757.6045">solicita cancelar la operaci&#243;n</text></g><!--link IntroduciendoDatos to *end*crearRecompensa--><g class="link" data-entity-1="ent0005" data-entity-2="ent0013" data-link-type="dependency" data-source-line="57" id="lnk16"><path d="M362.52,692.0394 C370.66,701.2794 378,709.6094 378,709.6094 C378,709.6094 406,862.6094 406,862.6094 C406,862.6094 500.6535,918.4489 531.5735,936.6889" fill="none" id="IntroduciendoDatos-to-*end*crearRecompensa" style="stroke:#FF0000;stroke-width:1;"/><polygon fill="#FF0000" points="535.88,939.2294,530.1606,931.2113,531.5735,936.6889,526.0959,938.1018,535.88,939.2294" style="stroke:#FF0000;stroke-width:1;stroke-linejoin:miter;stroke-miterlimit:10;"/><path d="M411,824.6094 L411,850.6094 L680,850.6094 L680,834.6094 L670,824.6094 L411,824.6094" fill="#FEFFDD" style="stroke:#181818;stroke-width:0.5;"/><path d="M670,824.6094 L670,834.6094 L680,834.6094 L670,824.6094" fill="#FEFFDD" style="stroke:#181818;stroke-width:0.5;"/><text fill="#000000" font-family="sans-serif" font-size="13" font-weight="700" lengthAdjust="spacing" textLength="77.9937" x="417" y="843.1045">Coordinador</text><text fill="#000000" font-family="sans-serif" font-size="13" lengthAdjust="spacing" textLength="166.9243" x="498.6055" y="843.1045">solicita cancelar la operaci&#243;n</text></g><!--link RecompensaCreada to *end*crearRecompensa--><g class="link" data-entity-1="ent0006" data-entity-2="ent0013" data-link-type="dependency" data-source-line="62" id="lnk17"><path d="M59.86,862.8594 C74.83,885.7594 95,916.6094 95,916.6094 C95,916.6094 459.5896,939.299 528.8896,943.609" fill="none" id="RecompensaCreada-to-*end*crearRecompensa" style="stroke:#008000;stroke-width:1;"/><polygon fill="#008000" points="533.88,943.9194,525.1456,939.3684,528.8896,943.609,524.6491,947.353,533.88,943.9194" style="stroke:#008000;stroke-width:1;stroke-linejoin:miter;stroke-miterlimit:10;"/><path d="M100,885.6094 L100,911.6094 L373,911.6094 L373,895.6094 L363,885.6094 L100,885.6094" fill="#FEFFDD" style="stroke:#181818;stroke-width:0.5;"/><path d="M363,885.6094 L363,895.6094 L373,895.6094 L363,885.6094" fill="#FEFFDD" style="stroke:#181818;stroke-width:0.5;"/><text fill="#000000" font-family="sans-serif" font-size="13" font-weight="700" lengthAdjust="spacing" textLength="49.8608" x="106" y="904.1045">Sistema</text><text fill="#000000" font-family="sans-serif" font-size="13" lengthAdjust="spacing" textLength="198.7197" x="159.4727" y="904.1045">presenta confirmaci&#243;n de creaci&#243;n</text></g></g><g class="entity" data-qualified-name="RECOMPENSA_ABIERTA" data-source-line="68" id="ent0018"><rect fill="#F1F1F1" height="50" rx="12.5" ry="12.5" style="stroke:#181818;stroke-width:0.5;" width="187.2617" x="439.5" y="1066"/><line style="stroke:#181818;stroke-width:0.5;" x1="439.5" x2="626.7617" y1="1093.6094" y2="1093.6094"/><text fill="#000000" font-family="sans-serif" font-size="14" lengthAdjust="spacing" textLength="167.2617" x="449.5" y="1085.5332">RECOMPENSA_ABIERTA</text></g><g class="entity" data-qualified-name="RECOMPENSAS_ABIERTAS" data-source-line="73" id="ent0020"><rect fill="#F1F1F1" height="50" rx="12.5" ry="12.5" style="stroke:#181818;stroke-width:0.5;" width="205.9375" x="662" y="1066"/><line style="stroke:#181818;stroke-width:0.5;" x1="662" x2="867.9375" y1="1093.6094" y2="1093.6094"/><text fill="#000000" font-family="sans-serif" font-size="14" lengthAdjust="spacing" textLength="185.9375" x="672" y="1085.5332">RECOMPENSAS_ABIERTAS</text></g><!--link in1 to crearRecompensa--><g class="link" data-entity-1="ent0001" data-entity-2="ent0002" data-link-type="dependency" data-source-line="5" id="lnk7"><path d="M649,57.04 C649,78.35 649,107.34 649,147.85" fill="none" id="in1-to-crearRecompensa" style="stroke:#008000;stroke-width:1;"/><polygon fill="#008000" points="649,152.85,653,143.85,649,147.85,645,143.85,649,152.85" style="stroke:#008000;stroke-width:1;stroke-linejoin:miter;stroke-miterlimit:10;"/><path d="M654,92 L654,118 L789,118 L789,102 L779,92 L654,92" fill="#FEFFDD" style="stroke:#181818;stroke-width:0.5;"/><path d="M779,92 L779,102 L789,102 L779,92" fill="#FEFFDD" style="stroke:#181818;stroke-width:0.5;"/><text fill="#000000" font-family="sans-serif" font-size="13" lengthAdjust="spacing" textLength="114.8735" x="660" y="110.4951">crearRecompensa()</text></g><!--link crearRecompensa to RECOMPENSA_ABIERTA--><g class="link" data-entity-1="ent0002" data-entity-2="ent0018" data-link-type="dependency" data-source-line="68" id="lnk19"><path d="M559.32,970.3 C550.43,1010.73 544.0435,1039.7666 539.3635,1061.0566" fill="none" id="crearRecompensa-to-RECOMPENSA_ABIERTA" style="stroke:#008000;stroke-width:1;"/><polygon fill="#008000" points="538.29,1065.94,544.129,1058.0087,539.3635,1061.0566,536.3155,1056.2911,538.29,1065.94" style="stroke:#008000;stroke-width:1;stroke-linejoin:miter;stroke-miterlimit:10;"/><path d="M558,1005 L558,1031 L690,1031 L690,1015 L680,1005 L558,1005" fill="#FEFFDD" style="stroke:#181818;stroke-width:0.5;"/><path d="M680,1005 L680,1015 L690,1015 L680,1005" fill="#FEFFDD" style="stroke:#181818;stroke-width:0.5;"/><text fill="#000000" font-family="sans-serif" font-size="13" lengthAdjust="spacing" textLength="111.2617" x="564" y="1023.4951">abrirRecompensa()</text></g><!--link crearRecompensa to RECOMPENSAS_ABIERTAS--><g class="link" data-entity-1="ent0002" data-entity-2="ent0020" data-link-type="dependency" data-source-line="73" id="lnk21"><path d="M738.68,970.3 C747.57,1010.73 753.9565,1039.7666 758.6365,1061.0566" fill="none" id="crearRecompensa-to-RECOMPENSAS_ABIERTAS" style="stroke:#FF0000;stroke-width:1;"/><polygon fill="#FF0000" points="759.71,1065.94,761.6845,1056.2911,758.6365,1061.0566,753.871,1058.0087,759.71,1065.94" style="stroke:#FF0000;stroke-width:1;stroke-linejoin:miter;stroke-miterlimit:10;"/><path d="M757,1005 L757,1031 L892,1031 L892,1015 L882,1005 L757,1005" fill="#FEFFDD" style="stroke:#181818;stroke-width:0.5;"/><path d="M882,1005 L882,1015 L892,1015 L882,1005" fill="#FEFFDD" style="stroke:#181818;stroke-width:0.5;"/><text fill="#000000" font-family="sans-serif" font-size="13" lengthAdjust="spacing" textLength="114.9053" x="763" y="1023.4951">Creaci&#243;n cancelada</text></g><?plantuml-src lLLBRXin3DtFAGHtqnO9YcwBm83ZUf55sy0EkWc2WfOOWuX674Xo0ACeqBFq2Zb2RjAJb1hFs9vVudGHUpKI-VZuI8hXZbm17d9boM7S5AWAjflqaMKXGaH5xgE2e4RpsVJRbylPryLayMDoVZ6RNqqMeopTdbw_MNb4TtCwLjeZ-3bgpWjq0JB70i4kmTzbhSktxp9qHYMJEbZBeWpSyHgfdrccvBVr6SbVx1PeKMjY1yxmfUSDwiZFc9sZmrlI19vwJ2zSz6pMceGbVuR8eMkpvpKLcWQsnAxVtpHK6URMq2STd2t7KsPlo85XV_PXELQ1hN2Ci5L7-RswbSE2GiGSIkF2Oq0dnaKL9gXaRZ4ANb3YPoIVY44PR4Fjgv6-UaaFfzNHygZKTWXgxNQK3nW_cIAvUmoHLWbE4XAi5IrjcPhTWJsNsI7lHdO3vNzXMiBaaAPQjcKQIivAjI8Lt2gKLD3d5CbKTDhkvMsQsegy_rIQ_VtzHqtPQImgHTB1bS3tj46w-WvMoCgvUtp8IRDYiH8yJOyFJXdMgOTwfEsArj2qCox7AbhdWygKe9lzLApMu0tuFZNkmPBPZy99G_sJKbv1Ckj2e610KIzD5QANWi2neoSrhxnAURkEHmwQA9v4azVaFzuAa69RUIuaEajNG5cvbmx3gp3exvbN2TtknqQpFXMwj-uoBRVaSwY6PBlEUaB_ojghi3aakqrRBzhc6eMbfw4rseDR2TctlvkuqvfjhP_Cvmxv7m00?></g></svg>