<?xml version="1.0" encoding="us-ascii" standalone="no"?><svg xmlns="http://www.w3.org/2000/svg" xmlns:xlink="http://www.w3.org/1999/xlink" contentStyleType="text/css" height="795px" preserveAspectRatio="none" style="width:1349px;height:795px;background:#FFFFFF;" version="1.1" viewBox="0 0 1349 795" width="1349px" zoomAndPan="magnify"><defs/><g><text fill="#000000" font-family="sans-serif" font-size="14" font-weight="bold" lengthAdjust="spacing" textLength="355" x="498" y="29.5332">Diagrama de secuencia - Retirar entregable propio</text><rect fill="none" height="497.8125" style="stroke:#000000;stroke-width:1.5;" width="1332" x="10" y="198.9219"/><line style="stroke:#181818;stroke-width:0.5;stroke-dasharray:5.0,5.0;" x1="61" x2="61" y1="121.2188" y2="713.7344"/><line style="stroke:#181818;stroke-width:0.5;stroke-dasharray:5.0,5.0;" x1="311.5" x2="311.5" y1="121.2188" y2="713.7344"/><line style="stroke:#181818;stroke-width:0.5;stroke-dasharray:5.0,5.0;" x1="543" x2="543" y1="121.2188" y2="713.7344"/><line style="stroke:#181818;stroke-width:0.5;stroke-dasharray:5.0,5.0;" x1="755.5" x2="755.5" y1="121.2188" y2="713.7344"/><line style="stroke:#181818;stroke-width:0.5;stroke-dasharray:5.0,5.0;" x1="882.5" x2="882.5" y1="121.2188" y2="713.7344"/><line style="stroke:#181818;stroke-width:0.5;stroke-dasharray:5.0,5.0;" x1="1148" x2="1148" y1="121.2188" y2="713.7344"/><text fill="#000000" font-family="sans-serif" font-size="14" lengthAdjust="spacing" textLength="77" x="20" y="118.1426">Investigador</text><ellipse cx="61.5" cy="52.1094" fill="#E2E2F0" rx="8" ry="8" style="stroke:#181818;stroke-width:0.5;"/><path d="M61.5,60.1094 L61.5,87.1094 M48.5,68.1094 L74.5,68.1094 M61.5,87.1094 L48.5,102.1094 M61.5,87.1094 L74.5,102.1094 " fill="none" style="stroke:#181818;stroke-width:0.5;"/><text fill="#000000" font-family="sans-serif" font-size="14" lengthAdjust="spacing" textLength="77" x="20" y="727.2676">Investigador</text><ellipse cx="61.5" cy="738.8438" fill="#E2E2F0" rx="8" ry="8" style="stroke:#181818;stroke-width:0.5;"/><path d="M61.5,746.8438 L61.5,773.8438 M48.5,754.8438 L74.5,754.8438 M61.5,773.8438 L48.5,788.8438 M61.5,773.8438 L74.5,788.8438 " fill="none" style="stroke:#181818;stroke-width:0.5;"/><rect fill="#E2E2F0" height="49.2188" rx="2.5" ry="2.5" style="stroke:#181818;stroke-width:0.5;" width="160" x="231.5" y="71"/><text fill="#000000" font-family="sans-serif" font-size="14" lengthAdjust="spacing" textLength="146" x="238.5" y="92.5332">EntregableDetallePage</text><text fill="#000000" font-family="sans-serif" font-size="14" lengthAdjust="spacing" textLength="47" x="288" y="110.1426">(React)</text><rect fill="#E2E2F0" height="49.2188" rx="2.5" ry="2.5" style="stroke:#181818;stroke-width:0.5;" width="160" x="231.5" y="712.7344"/><text fill="#000000" font-family="sans-serif" font-size="14" lengthAdjust="spacing" textLength="146" x="238.5" y="734.2676">EntregableDetallePage</text><text fill="#000000" font-family="sans-serif" font-size="14" lengthAdjust="spacing" textLength="47" x="288" y="751.877">(React)</text><rect fill="#E2E2F0" height="49.2188" rx="2.5" ry="2.5" style="stroke:#181818;stroke-width:0.5;" width="145" x="471" y="71"/><text fill="#000000" font-family="sans-serif" font-size="14" lengthAdjust="spacing" textLength="131" x="478" y="92.5332">EntregableController</text><text fill="#000000" font-family="sans-serif" font-size="14" lengthAdjust="spacing" textLength="84" x="501.5" y="110.1426">(Spring Boot)</text><rect fill="#E2E2F0" height="49.2188" rx="2.5" ry="2.5" style="stroke:#181818;stroke-width:0.5;" width="145" x="471" y="712.7344"/><text fill="#000000" font-family="sans-serif" font-size="14" lengthAdjust="spacing" textLength="131" x="478" y="734.2676">EntregableController</text><text fill="#000000" font-family="sans-serif" font-size="14" lengthAdjust="spacing" textLength="84" x="501.5" y="751.877">(Spring Boot)</text><rect fill="#E2E2F0" height="31.6094" rx="2.5" ry="2.5" style="stroke:#181818;stroke-width:0.5;" width="104" x="703.5" y="88.6094"/><text fill="#000000" font-family="sans-serif" font-size="14" lengthAdjust="spacing" textLength="90" x="710.5" y="110.1426">SesionService</text><rect fill="#E2E2F0" height="31.6094" rx="2.5" ry="2.5" style="stroke:#181818;stroke-width:0.5;" width="104" x="703.5" y="712.7344"/><text fill="#000000" font-family="sans-serif" font-size="14" lengthAdjust="spacing" textLength="90" x="710.5" y="734.2676">SesionService</text><rect fill="#E2E2F0" height="31.6094" rx="2.5" ry="2.5" style="stroke:#181818;stroke-width:0.5;" width="130" x="817.5" y="88.6094"/><text fill="#000000" font-family="sans-serif" font-size="14" lengthAdjust="spacing" textLength="116" x="824.5" y="110.1426">EntregableService</text><rect fill="#E2E2F0" height="31.6094" rx="2.5" ry="2.5" style="stroke:#181818;stroke-width:0.5;" width="130" x="817.5" y="712.7344"/><text fill="#000000" font-family="sans-serif" font-size="14" lengthAdjust="spacing" textLength="116" x="824.5" y="734.2676">EntregableService</text><rect fill="#E2E2F0" height="31.6094" rx="2.5" ry="2.5" style="stroke:#181818;stroke-width:0.5;" width="151" x="1073" y="88.6094"/><text fill="#000000" font-family="sans-serif" font-size="14" lengthAdjust="spacing" textLength="137" x="1080" y="110.1426">EntregableRepository</text><rect fill="#E2E2F0" height="31.6094" rx="2.5" ry="2.5" style="stroke:#181818;stroke-width:0.5;" width="151" x="1073" y="712.7344"/><text fill="#000000" font-family="sans-serif" font-size="14" lengthAdjust="spacing" textLength="137" x="1080" y="734.2676">EntregableRepository</text><polygon fill="#181818" points="299.5,149.5703,309.5,153.5703,299.5,157.5703,303.5,153.5703" style="stroke:#181818;stroke-width:1.0;"/><line style="stroke:#181818;stroke-width:1.0;" x1="61.5" x2="305.5" y1="153.5703" y2="153.5703"/><text fill="#000000" font-family="sans-serif" font-size="13" lengthAdjust="spacing" textLength="183" x="68.5" y="148.7139">Solicita retirar entregable propio</text><polygon fill="#181818" points="72.5,179.9219,62.5,183.9219,72.5,187.9219,68.5,183.9219" style="stroke:#181818;stroke-width:1.0;"/><line style="stroke:#181818;stroke-width:1.0;stroke-dasharray:2.0,2.0;" x1="66.5" x2="310.5" y1="183.9219" y2="183.9219"/><text fill="#000000" font-family="sans-serif" font-size="13" lengthAdjust="spacing" textLength="226" x="78.5" y="179.0654">Presenta confirmacion y solicita motivo</text><path d="M10,198.9219 L71,198.9219 L71,207.2734 L61,217.2734 L10,217.2734 L10,198.9219 " fill="#EEEEEE" style="stroke:#000000;stroke-width:1.5;"/><rect fill="none" height="497.8125" style="stroke:#000000;stroke-width:1.5;" width="1332" x="10" y="198.9219"/><text fill="#000000" font-family="sans-serif" font-size="13" font-weight="bold" lengthAdjust="spacing" textLength="16" x="25" y="213.417">alt</text><text fill="#000000" font-family="sans-serif" font-size="11" font-weight="bold" lengthAdjust="spacing" textLength="121" x="86" y="212.3408">[Investigador cancela]</text><polygon fill="#181818" points="72.5,235.625,62.5,239.625,72.5,243.625,68.5,239.625" style="stroke:#181818;stroke-width:1.0;"/><line style="stroke:#181818;stroke-width:1.0;stroke-dasharray:2.0,2.0;" x1="66.5" x2="310.5" y1="239.625" y2="239.625"/><text fill="#000000" font-family="sans-serif" font-size="13" lengthAdjust="spacing" textLength="207" x="78.5" y="234.7686">Conserva ENTREGABLE_ABIERTO</text><line style="stroke:#000000;stroke-width:1.0;stroke-dasharray:2.0,2.0;" x1="10" x2="1342" y1="248.625" y2="248.625"/><text fill="#000000" font-family="sans-serif" font-size="11" font-weight="bold" lengthAdjust="spacing" textLength="129" x="15" y="260.0439">[Investigador confirma]</text><polygon fill="#181818" points="299.5,281.8125,309.5,285.8125,299.5,289.8125,303.5,285.8125" style="stroke:#181818;stroke-width:1.0;"/><line style="stroke:#181818;stroke-width:1.0;" x1="61.5" x2="305.5" y1="285.8125" y2="285.8125"/><text fill="#000000" font-family="sans-serif" font-size="13" lengthAdjust="spacing" textLength="164" x="68.5" y="280.9561">Confirma retirada con motivo</text><polygon fill="#181818" points="531.5,328.5156,541.5,332.5156,531.5,336.5156,535.5,332.5156" style="stroke:#181818;stroke-width:1.0;"/><line style="stroke:#181818;stroke-width:1.0;" x1="311.5" x2="537.5" y1="332.5156" y2="332.5156"/><text fill="#000000" font-family="sans-serif" font-size="13" lengthAdjust="spacing" textLength="208" x="318.5" y="311.3076">PATCH /api/entregables/{id}/retirada</text><text fill="#000000" font-family="sans-serif" font-size="13" lengthAdjust="spacing" textLength="91" x="318.5" y="327.6592">motivo + cookie</text><polygon fill="#181818" points="743.5,358.8672,753.5,362.8672,743.5,366.8672,747.5,362.8672" style="stroke:#181818;stroke-width:1.0;"/><line style="stroke:#181818;stroke-width:1.0;" x1="543.5" x2="749.5" y1="362.8672" y2="362.8672"/><text fill="#000000" font-family="sans-serif" font-size="13" lengthAdjust="spacing" textLength="188" x="550.5" y="358.0107">exigirInvestigador(authentication)</text><polygon fill="#181818" points="554.5,389.2188,544.5,393.2188,554.5,397.2188,550.5,393.2188" style="stroke:#181818;stroke-width:1.0;"/><line style="stroke:#181818;stroke-width:1.0;stroke-dasharray:2.0,2.0;" x1="548.5" x2="754.5" y1="393.2188" y2="393.2188"/><text fill="#000000" font-family="sans-serif" font-size="13" lengthAdjust="spacing" textLength="139" x="560.5" y="388.3623">Investigador autenticado</text><polygon fill="#181818" points="870.5,419.5703,880.5,423.5703,870.5,427.5703,874.5,423.5703" style="stroke:#181818;stroke-width:1.0;"/><line style="stroke:#181818;stroke-width:1.0;" x1="543.5" x2="876.5" y1="423.5703" y2="423.5703"/><text fill="#000000" font-family="sans-serif" font-size="13" lengthAdjust="spacing" textLength="209" x="550.5" y="418.7139">retirarPropio(id, motivo, investigador)</text><polygon fill="#181818" points="1136.5,449.9219,1146.5,453.9219,1136.5,457.9219,1140.5,453.9219" style="stroke:#181818;stroke-width:1.0;"/><line style="stroke:#181818;stroke-width:1.0;" x1="882.5" x2="1142.5" y1="453.9219" y2="453.9219"/><text fill="#000000" font-family="sans-serif" font-size="13" lengthAdjust="spacing" textLength="242" x="889.5" y="449.0654">obtenerActivoPorIdYAutor(id, investigador)</text><polygon fill="#181818" points="893.5,480.2734,883.5,484.2734,893.5,488.2734,889.5,484.2734" style="stroke:#181818;stroke-width:1.0;"/><line style="stroke:#181818;stroke-width:1.0;stroke-dasharray:2.0,2.0;" x1="887.5" x2="1147.5" y1="484.2734" y2="484.2734"/><text fill="#000000" font-family="sans-serif" font-size="13" lengthAdjust="spacing" textLength="142" x="899.5" y="479.417">Entregable propio / vacio</text><polygon fill="#181818" points="1136.5,510.625,1146.5,514.625,1136.5,518.625,1140.5,514.625" style="stroke:#181818;stroke-width:1.0;"/><line style="stroke:#181818;stroke-width:1.0;" x1="882.5" x2="1142.5" y1="514.625" y2="514.625"/><text fill="#000000" font-family="sans-serif" font-size="13" lengthAdjust="spacing" textLength="211" x="889.5" y="509.7686">retirar(id, fecha, investigador, motivo)</text><polygon fill="#181818" points="893.5,540.9766,883.5,544.9766,893.5,548.9766,889.5,544.9766" style="stroke:#181818;stroke-width:1.0;"/><line style="stroke:#181818;stroke-width:1.0;stroke-dasharray:2.0,2.0;" x1="887.5" x2="1147.5" y1="544.9766" y2="544.9766"/><text fill="#000000" font-family="sans-serif" font-size="13" lengthAdjust="spacing" textLength="109" x="899.5" y="540.1201">Entregable retirado</text><path d="M1153,557.9766 L1153,599.9766 L1332,599.9766 L1332,567.9766 L1322,557.9766 L1153,557.9766 " fill="#FEFFDD" style="stroke:#181818;stroke-width:0.5;"/><path d="M1322,557.9766 L1322,567.9766 L1332,567.9766 L1322,557.9766 " fill="#FEFFDD" style="stroke:#181818;stroke-width:0.5;"/><text fill="#000000" font-family="sans-serif" font-size="13" lengthAdjust="spacing" textLength="158" x="1159" y="576.4717">Conserva autoria, proyecto,</text><text fill="#000000" font-family="sans-serif" font-size="13" lengthAdjust="spacing" textLength="120" x="1159" y="592.8232">archivos y versiones.</text><polygon fill="#181818" points="554.5,624.0313,544.5,628.0313,554.5,632.0313,550.5,628.0313" style="stroke:#181818;stroke-width:1.0;"/><line style="stroke:#181818;stroke-width:1.0;stroke-dasharray:2.0,2.0;" x1="548.5" x2="881.5" y1="628.0313" y2="628.0313"/><text fill="#000000" font-family="sans-serif" font-size="13" lengthAdjust="spacing" textLength="168" x="560.5" y="623.1748">EntregableRetiradoResponse</text><polygon fill="#181818" points="322.5,654.3828,312.5,658.3828,322.5,662.3828,318.5,658.3828" style="stroke:#181818;stroke-width:1.0;"/><line style="stroke:#181818;stroke-width:1.0;stroke-dasharray:2.0,2.0;" x1="316.5" x2="542.5" y1="658.3828" y2="658.3828"/><text fill="#000000" font-family="sans-serif" font-size="13" lengthAdjust="spacing" textLength="44" x="328.5" y="653.5264">200 OK</text><polygon fill="#181818" points="72.5,684.7344,62.5,688.7344,72.5,692.7344,68.5,688.7344" style="stroke:#181818;stroke-width:1.0;"/><line style="stroke:#181818;stroke-width:1.0;stroke-dasharray:2.0,2.0;" x1="66.5" x2="310.5" y1="688.7344" y2="688.7344"/><text fill="#000000" font-family="sans-serif" font-size="13" lengthAdjust="spacing" textLength="224" x="78.5" y="683.8779">Presenta ENTREGABLES_ABIERTOS</text><!--SRC=[XLHDZzem4BtdLupsnAfGLZroM0dOj4MjkYZXKccbQjOPmgZ1Zco3Ygh-zuwT119KjhTyl8zvdfTuzXN14sDfSOzG43XI1zAA4IQGaMUB5aXxIoM-2hIsfcQJeFB6maeVoNakiJ0sgT5wLboZzd2NdXbFvB6gQ8qblUXHHiAylmDqyD4QxKaNjuXBUMsDKAtmyjgoBc5XJCkUrpmavkJOw9piaHL5IFFablmG6QzlGJEgZMC9V8heS9ia_UmmUJp7cK5kAX7n2FRcyNLWc0YphpI3jIKd10Hbz9Rj7fM4W1EuJdLlF1zb0vKVC46XLbHX0l26kXogax08wRTDbdwQBxwcF-QBLPfjdXEg75r9jYE8vksuonRKnYtYvDsK_M4Umz8au7op_0nJh7bwEHWt_St5dsadyQ8RFhmJCVEJIOI473IQhSw0Vd79jZ_M20z-9vAiq0laNZWDE9v3z1wa47Y3BanVFbPXrYrl7HSsucBSHXe3zqGQaqW9x52D6PXN4IOxLm6_DdPLV9yVf3vHvPeTA770itDwNHUOmZ7Ku5zUxPXHUajgXqE7Rkh_EhKd7poqyNBFvSw3sJPjXqjnC2HXiP7PJYI_WR6yHQjsukAafqUouSp9lPVdOUz1hZzvjul-zzLuP-JgODDjOr2p3myFyFpbxNQVlvrBk_EktdaYdBy0]--></g></svg>