<svg xmlns="http://www.w3.org/2000/svg" xmlns:xlink="http://www.w3.org/1999/xlink" contentStyleType="text/css" height="1020px" preserveAspectRatio="none" style="width:2156px;height:1020px;background:#FFFFFF;" version="1.1" viewBox="0 0 2156 1020" width="2156px" zoomAndPan="magnify"><title>Diagrama de secuencia - Abrir investigador como Coordinador</title><defs/><g><text fill="#000000" font-family="sans-serif" font-size="14" font-weight="bold" lengthAdjust="spacing" textLength="417.7646" x="870.4067" y="29.5332">Diagrama de secuencia - Abrir investigador como Coordinador</text><rect fill="#FFFFFF" height="774.4609" style="stroke:#181818;stroke-width:1;" width="10" x="313.6992" y="153.5703"/><rect fill="#FFFFFF" height="323.8672" style="stroke:#181818;stroke-width:1;" width="10" x="605.4033" y="200.2734"/><rect fill="#FFFFFF" height="55.7031" style="stroke:#181818;stroke-width:1;" width="10" x="843.9839" y="230.625"/><rect fill="#FFFFFF" height="177.1094" style="stroke:#181818;stroke-width:1;" width="10" x="974.2041" y="316.6797"/><rect fill="none" height="675.4063" style="stroke:#000000;stroke-width:1.5;" width="2139.5781" x="10" y="245.625"/><rect fill="none" height="354.0547" style="stroke:#000000;stroke-width:1.5;" width="2119.5781" x="20" y="453.0859"/><line style="stroke:#181818;stroke-width:0.5;stroke-dasharray:5.0,5.0;" x1="71" x2="71" y1="121.2188" y2="938.0313"/><line style="stroke:#181818;stroke-width:0.5;stroke-dasharray:5.0,5.0;" x1="318.4272" x2="318.4272" y1="121.2188" y2="938.0313"/><line style="stroke:#181818;stroke-width:0.5;stroke-dasharray:5.0,5.0;" x1="609.9243" x2="609.9243" y1="121.2188" y2="938.0313"/><line style="stroke:#181818;stroke-width:0.5;stroke-dasharray:5.0,5.0;" x1="848.2393" x2="848.2393" y1="121.2188" y2="938.0313"/><line style="stroke:#181818;stroke-width:0.5;stroke-dasharray:5.0,5.0;" x1="978.7285" x2="978.7285" y1="121.2188" y2="938.0313"/><line style="stroke:#181818;stroke-width:0.5;stroke-dasharray:5.0,5.0;" x1="1121.6797" x2="1121.6797" y1="121.2188" y2="938.0313"/><line style="stroke:#181818;stroke-width:0.5;stroke-dasharray:5.0,5.0;" x1="1387.5039" x2="1387.5039" y1="121.2188" y2="938.0313"/><line style="stroke:#181818;stroke-width:0.5;stroke-dasharray:5.0,5.0;" x1="2079.7441" x2="2079.7441" y1="121.2188" y2="938.0313"/><text fill="#000000" font-family="sans-serif" font-size="14" lengthAdjust="spacing" textLength="77.0479" x="30" y="118.1426">Coordinador</text><ellipse cx="71.5239" cy="52.1094" fill="#E2E2F0" rx="8" ry="8" style="stroke:#181818;stroke-width:0.5;"/><path d="M71.5239,60.1094 L71.5239,87.1094 M58.5239,68.1094 L84.5239,68.1094 M71.5239,87.1094 L58.5239,102.1094 M71.5239,87.1094 L84.5239,102.1094 " fill="none" style="stroke:#181818;stroke-width:0.5;"/><text fill="#000000" font-family="sans-serif" font-size="14" lengthAdjust="spacing" textLength="77.0479" x="30" y="951.5645">Coordinador</text><ellipse cx="71.5239" cy="963.1406" fill="#E2E2F0" rx="8" ry="8" style="stroke:#181818;stroke-width:0.5;"/><path d="M71.5239,971.1406 L71.5239,998.1406 M58.5239,979.1406 L84.5239,979.1406 M71.5239,998.1406 L58.5239,1013.1406 M71.5239,998.1406 L84.5239,1013.1406 " fill="none" style="stroke:#181818;stroke-width:0.5;"/><rect fill="#E2E2F0" height="49.2188" rx="2.5" ry="2.5" style="stroke:#181818;stroke-width:0.5;" width="166.5439" x="235.4272" y="71"/><text fill="#000000" font-family="sans-serif" font-size="14" lengthAdjust="spacing" textLength="152.5439" x="242.4272" y="92.5332">InvestigadorDetallePage</text><text fill="#000000" font-family="sans-serif" font-size="14" lengthAdjust="spacing" textLength="45.8965" x="295.751" y="110.1426">(React)</text><rect fill="#E2E2F0" height="49.2188" rx="2.5" ry="2.5" style="stroke:#181818;stroke-width:0.5;" width="166.5439" x="235.4272" y="937.0313"/><text fill="#000000" font-family="sans-serif" font-size="14" lengthAdjust="spacing" textLength="152.5439" x="242.4272" y="958.5645">InvestigadorDetallePage</text><text fill="#000000" font-family="sans-serif" font-size="14" lengthAdjust="spacing" textLength="45.8965" x="295.751" y="976.1738">(React)</text><rect fill="#E2E2F0" height="49.2188" rx="2.5" ry="2.5" style="stroke:#181818;stroke-width:0.5;" width="150.958" x="534.9243" y="71"/><text fill="#000000" font-family="sans-serif" font-size="14" lengthAdjust="spacing" textLength="136.958" x="541.9243" y="92.5332">InvestigadorController</text><text fill="#000000" font-family="sans-serif" font-size="14" lengthAdjust="spacing" textLength="82.4824" x="569.1621" y="110.1426">(Spring Boot)</text><rect fill="#E2E2F0" height="49.2188" rx="2.5" ry="2.5" style="stroke:#181818;stroke-width:0.5;" width="150.958" x="534.9243" y="937.0313"/><text fill="#000000" font-family="sans-serif" font-size="14" lengthAdjust="spacing" textLength="136.958" x="541.9243" y="958.5645">InvestigadorController</text><text fill="#000000" font-family="sans-serif" font-size="14" lengthAdjust="spacing" textLength="82.4824" x="569.1621" y="976.1738">(Spring Boot)</text><rect fill="#E2E2F0" height="31.6094" rx="2.5" ry="2.5" style="stroke:#181818;stroke-width:0.5;" width="103.4893" x="797.2393" y="88.6094"/><text fill="#000000" font-family="sans-serif" font-size="14" lengthAdjust="spacing" textLength="89.4893" x="804.2393" y="110.1426">SesionService</text><rect fill="#E2E2F0" height="31.6094" rx="2.5" ry="2.5" style="stroke:#181818;stroke-width:0.5;" width="103.4893" x="797.2393" y="937.0313"/><text fill="#000000" font-family="sans-serif" font-size="14" lengthAdjust="spacing" textLength="89.4893" x="804.2393" y="958.5645">SesionService</text><rect fill="#E2E2F0" height="31.6094" rx="2.5" ry="2.5" style="stroke:#181818;stroke-width:0.5;" width="136.9512" x="910.7285" y="88.6094"/><text fill="#000000" font-family="sans-serif" font-size="14" lengthAdjust="spacing" textLength="122.9512" x="917.7285" y="110.1426">InvestigadorService</text><rect fill="#E2E2F0" height="31.6094" rx="2.5" ry="2.5" style="stroke:#181818;stroke-width:0.5;" width="136.9512" x="910.7285" y="937.0313"/><text fill="#000000" font-family="sans-serif" font-size="14" lengthAdjust="spacing" textLength="122.9512" x="917.7285" y="958.5645">InvestigadorService</text><rect fill="#E2E2F0" height="31.6094" rx="2.5" ry="2.5" style="stroke:#181818;stroke-width:0.5;" width="129.1582" x="1057.6797" y="88.6094"/><text fill="#000000" font-family="sans-serif" font-size="14" lengthAdjust="spacing" textLength="115.1582" x="1064.6797" y="110.1426">UsuarioRepository</text><rect fill="#E2E2F0" height="31.6094" rx="2.5" ry="2.5" style="stroke:#181818;stroke-width:0.5;" width="129.1582" x="1057.6797" y="937.0313"/><text fill="#000000" font-family="sans-serif" font-size="14" lengthAdjust="spacing" textLength="115.1582" x="1064.6797" y="958.5645">UsuarioRepository</text><rect fill="#E2E2F0" height="31.6094" rx="2.5" ry="2.5" style="stroke:#181818;stroke-width:0.5;" width="136.165" x="1319.5039" y="88.6094"/><text fill="#000000" font-family="sans-serif" font-size="14" lengthAdjust="spacing" textLength="122.165" x="1326.5039" y="110.1426">ProyectoRepository</text><rect fill="#E2E2F0" height="31.6094" rx="2.5" ry="2.5" style="stroke:#181818;stroke-width:0.5;" width="136.165" x="1319.5039" y="937.0313"/><text fill="#000000" font-family="sans-serif" font-size="14" lengthAdjust="spacing" textLength="122.165" x="1326.5039" y="958.5645">ProyectoRepository</text><text fill="#000000" font-family="sans-serif" font-size="14" lengthAdjust="spacing" textLength="91.834" x="2031.7441" y="118.1426">Base de Datos</text><path d="M2062.6611,67.6094 C2062.6611,57.6094 2080.6611,57.6094 2080.6611,57.6094 C2080.6611,57.6094 2098.6611,57.6094 2098.6611,67.6094 L2098.6611,93.6094 C2098.6611,103.6094 2080.6611,103.6094 2080.6611,103.6094 C2080.6611,103.6094 2062.6611,103.6094 2062.6611,93.6094 L2062.6611,67.6094 " fill="#E2E2F0" style="stroke:#181818;stroke-width:1.5;"/><path d="M2062.6611,67.6094 C2062.6611,77.6094 2080.6611,77.6094 2080.6611,77.6094 C2080.6611,77.6094 2098.6611,77.6094 2098.6611,67.6094 " fill="none" style="stroke:#181818;stroke-width:1.5;"/><text fill="#000000" font-family="sans-serif" font-size="14" lengthAdjust="spacing" textLength="91.834" x="2031.7441" y="951.5645">Base de Datos</text><path d="M2062.6611,964.6406 C2062.6611,954.6406 2080.6611,954.6406 2080.6611,954.6406 C2080.6611,954.6406 2098.6611,954.6406 2098.6611,964.6406 L2098.6611,990.6406 C2098.6611,1000.6406 2080.6611,1000.6406 2080.6611,1000.6406 C2080.6611,1000.6406 2062.6611,1000.6406 2062.6611,990.6406 L2062.6611,964.6406 " fill="#E2E2F0" style="stroke:#181818;stroke-width:1.5;"/><path d="M2062.6611,964.6406 C2062.6611,974.6406 2080.6611,974.6406 2080.6611,974.6406 C2080.6611,974.6406 2098.6611,974.6406 2098.6611,964.6406 " fill="none" style="stroke:#181818;stroke-width:1.5;"/><rect fill="#FFFFFF" height="774.4609" style="stroke:#181818;stroke-width:1;" width="10" x="313.6992" y="153.5703"/><rect fill="#FFFFFF" height="323.8672" style="stroke:#181818;stroke-width:1;" width="10" x="605.4033" y="200.2734"/><rect fill="#FFFFFF" height="55.7031" style="stroke:#181818;stroke-width:1;" width="10" x="843.9839" y="230.625"/><rect fill="#FFFFFF" height="177.1094" style="stroke:#181818;stroke-width:1;" width="10" x="974.2041" y="316.6797"/><polygon fill="#181818" points="301.6992,149.5703,311.6992,153.5703,301.6992,157.5703,305.6992,153.5703" style="stroke:#181818;stroke-width:1;"/><line style="stroke:#181818;stroke-width:1;" x1="71.5239" x2="307.6992" y1="153.5703" y2="153.5703"/><text fill="#000000" font-family="sans-serif" font-size="13" lengthAdjust="spacing" textLength="137.3062" x="78.5239" y="148.7139">Selecciona investigador</text><polygon fill="#181818" points="593.4033,196.2734,603.4033,200.2734,593.4033,204.2734,597.4033,200.2734" style="stroke:#181818;stroke-width:1;"/><line style="stroke:#181818;stroke-width:1;" x1="323.6992" x2="599.4033" y1="200.2734" y2="200.2734"/><text fill="#000000" font-family="sans-serif" font-size="13" lengthAdjust="spacing" textLength="262.7041" x="330.6992" y="179.0654">GET /api/investigadores/{id}?proyectoId={id?}</text><text fill="#000000" font-family="sans-serif" font-size="13" lengthAdjust="spacing" textLength="99.728" x="330.6992" y="195.417">Cookie de sesion</text><polygon fill="#181818" points="831.9839,226.625,841.9839,230.625,831.9839,234.625,835.9839,230.625" style="stroke:#181818;stroke-width:1;"/><line style="stroke:#181818;stroke-width:1;" x1="615.4033" x2="837.9839" y1="230.625" y2="230.625"/><text fill="#000000" font-family="sans-serif" font-size="13" lengthAdjust="spacing" textLength="209.5806" x="622.4033" y="225.7686">obtenerSesionActual(authentication)</text><path d="M10,245.625 L70.1709,245.625 L70.1709,253.9766 L60.1709,263.9766 L10,263.9766 L10,245.625 " fill="#EEEEEE" style="stroke:#000000;stroke-width:1.5;"/><rect fill="none" height="675.4063" style="stroke:#000000;stroke-width:1.5;" width="2139.5781" x="10" y="245.625"/><text fill="#000000" font-family="sans-serif" font-size="13" font-weight="bold" lengthAdjust="spacing" textLength="15.1709" x="25" y="260.1201">alt</text><text fill="#000000" font-family="sans-serif" font-size="11" font-weight="bold" lengthAdjust="spacing" textLength="77.6338" x="85.1709" y="259.0439">[Sesion valida]</text><polygon fill="#181818" points="626.4033,282.3281,616.4033,286.3281,626.4033,290.3281,622.4033,286.3281" style="stroke:#181818;stroke-width:1;"/><line style="stroke:#181818;stroke-width:1;stroke-dasharray:2.0,2.0;" x1="620.4033" x2="847.9839" y1="286.3281" y2="286.3281"/><text fill="#000000" font-family="sans-serif" font-size="13" lengthAdjust="spacing" textLength="98.2871" x="632.4033" y="281.4717">SesionResponse</text><polygon fill="#181818" points="962.2041,312.6797,972.2041,316.6797,962.2041,320.6797,966.2041,316.6797" style="stroke:#181818;stroke-width:1;"/><line style="stroke:#181818;stroke-width:1;" x1="615.4033" x2="968.2041" y1="316.6797" y2="316.6797"/><text fill="#000000" font-family="sans-serif" font-size="13" lengthAdjust="spacing" textLength="182.8252" x="622.4033" y="311.8232">obtener(sesion, id, proyectoId?)</text><polygon fill="#181818" points="1110.2588,343.0313,1120.2588,347.0313,1110.2588,351.0313,1114.2588,347.0313" style="stroke:#181818;stroke-width:1;"/><line style="stroke:#181818;stroke-width:1;" x1="984.2041" x2="1116.2588" y1="347.0313" y2="347.0313"/><text fill="#000000" font-family="sans-serif" font-size="13" lengthAdjust="spacing" textLength="65.749" x="991.2041" y="342.1748">findById(id)</text><polygon fill="#181818" points="2068.6611,373.3828,2078.6611,377.3828,2068.6611,381.3828,2072.6611,377.3828" style="stroke:#181818;stroke-width:1;"/><line style="stroke:#181818;stroke-width:1;" x1="1122.2588" x2="2074.6611" y1="377.3828" y2="377.3828"/><text fill="#000000" font-family="sans-serif" font-size="13" lengthAdjust="spacing" textLength="241.6489" x="1129.2588" y="372.5264">SELECT * FROM usuarios WHERE id = ?</text><polygon fill="#181818" points="1133.2588,403.7344,1123.2588,407.7344,1133.2588,411.7344,1129.2588,407.7344" style="stroke:#181818;stroke-width:1;"/><line style="stroke:#181818;stroke-width:1;stroke-dasharray:2.0,2.0;" x1="1127.2588" x2="2079.6611" y1="407.7344" y2="407.7344"/><text fill="#000000" font-family="sans-serif" font-size="13" lengthAdjust="spacing" textLength="149.5889" x="1139.2588" y="402.8779">Resultado de persistencia</text><polygon fill="#181818" points="995.2041,434.0859,985.2041,438.0859,995.2041,442.0859,991.2041,438.0859" style="stroke:#181818;stroke-width:1;"/><line style="stroke:#181818;stroke-width:1;stroke-dasharray:2.0,2.0;" x1="989.2041" x2="1121.2588" y1="438.0859" y2="438.0859"/><text fill="#000000" font-family="sans-serif" font-size="13" lengthAdjust="spacing" textLength="85.979" x="1001.2041" y="433.2295">Usuario / vacio</text><path d="M20,453.0859 L80.1709,453.0859 L80.1709,461.4375 L70.1709,471.4375 L20,471.4375 L20,453.0859 " fill="#EEEEEE" style="stroke:#000000;stroke-width:1.5;"/><rect fill="none" height="354.0547" style="stroke:#000000;stroke-width:1.5;" width="2119.5781" x="20" y="453.0859"/><text fill="#000000" font-family="sans-serif" font-size="13" font-weight="bold" lengthAdjust="spacing" textLength="15.1709" x="35" y="467.5811">alt</text><text fill="#000000" font-family="sans-serif" font-size="11" font-weight="bold" lengthAdjust="spacing" textLength="265.8691" x="95.1709" y="466.5049">[Investigador inexistente, inactivo o no autorizado]</text><polygon fill="#181818" points="626.4033,489.7891,616.4033,493.7891,626.4033,497.7891,622.4033,493.7891" style="stroke:#181818;stroke-width:1;"/><line style="stroke:#181818;stroke-width:1;stroke-dasharray:2.0,2.0;" x1="620.4033" x2="978.2041" y1="493.7891" y2="493.7891"/><text fill="#000000" font-family="sans-serif" font-size="13" lengthAdjust="spacing" textLength="188.6079" x="632.4033" y="488.9326">RecursoNoEncontradoException</text><polygon fill="#181818" points="334.6992,520.1406,324.6992,524.1406,334.6992,528.1406,330.6992,524.1406" style="stroke:#181818;stroke-width:1;"/><line style="stroke:#181818;stroke-width:1;stroke-dasharray:2.0,2.0;" x1="328.6992" x2="609.4033" y1="524.1406" y2="524.1406"/><text fill="#000000" font-family="sans-serif" font-size="13" lengthAdjust="spacing" textLength="86.0044" x="340.6992" y="519.2842">404 Not Found</text><polygon fill="#181818" points="82.5239,550.4922,72.5239,554.4922,82.5239,558.4922,78.5239,554.4922" style="stroke:#181818;stroke-width:1;"/><line style="stroke:#181818;stroke-width:1;stroke-dasharray:2.0,2.0;" x1="76.5239" x2="312.6992" y1="554.4922" y2="554.4922"/><text fill="#000000" font-family="sans-serif" font-size="13" lengthAdjust="spacing" textLength="205.9688" x="88.5239" y="549.6357">Presenta investigador no disponible</text><line style="stroke:#000000;stroke-width:1;stroke-dasharray:2.0,2.0;" x1="20" x2="2139.5781" y1="563.4922" y2="563.4922"/><text fill="#000000" font-family="sans-serif" font-size="11" font-weight="bold" lengthAdjust="spacing" textLength="123.4761" x="25" y="574.9111">[Investigador existente]</text><polygon fill="#181818" points="1375.5864,596.6797,1385.5864,600.6797,1375.5864,604.6797,1379.5864,600.6797" style="stroke:#181818;stroke-width:1;"/><line style="stroke:#181818;stroke-width:1;" x1="979.2041" x2="1381.5864" y1="600.6797" y2="600.6797"/><text fill="#000000" font-family="sans-serif" font-size="13" lengthAdjust="spacing" textLength="384.3823" x="986.2041" y="595.8232">findDistinctByInvestigadoresIdOrderByNombreAsc(id, proyectoId?)</text><polygon fill="#181818" points="2068.6611,627.0313,2078.6611,631.0313,2068.6611,635.0313,2072.6611,631.0313" style="stroke:#181818;stroke-width:1;"/><line style="stroke:#181818;stroke-width:1;" x1="1387.5864" x2="2074.6611" y1="631.0313" y2="631.0313"/><text fill="#000000" font-family="sans-serif" font-size="13" lengthAdjust="spacing" textLength="669.0747" x="1394.5864" y="626.1748">SELECT p.* FROM proyectos p JOIN proyecto_investigadores pi ON pi.proyecto_id = p.id WHERE pi.usuario_id = ?</text><polygon fill="#181818" points="1398.5864,657.3828,1388.5864,661.3828,1398.5864,665.3828,1394.5864,661.3828" style="stroke:#181818;stroke-width:1;"/><line style="stroke:#181818;stroke-width:1;stroke-dasharray:2.0,2.0;" x1="1392.5864" x2="2079.6611" y1="661.3828" y2="661.3828"/><text fill="#000000" font-family="sans-serif" font-size="13" lengthAdjust="spacing" textLength="149.5889" x="1404.5864" y="656.5264">Resultado de persistencia</text><polygon fill="#181818" points="990.2041,687.7344,980.2041,691.7344,990.2041,695.7344,986.2041,691.7344" style="stroke:#181818;stroke-width:1;"/><line style="stroke:#181818;stroke-width:1;stroke-dasharray:2.0,2.0;" x1="984.2041" x2="1386.5864" y1="691.7344" y2="691.7344"/><text fill="#000000" font-family="sans-serif" font-size="13" lengthAdjust="spacing" textLength="149.5825" x="996.2041" y="686.8779">Lista&lt;ProyectoResumen&gt;</text><polygon fill="#181818" points="621.4033,718.0859,611.4033,722.0859,621.4033,726.0859,617.4033,722.0859" style="stroke:#181818;stroke-width:1;"/><line style="stroke:#181818;stroke-width:1;stroke-dasharray:2.0,2.0;" x1="615.4033" x2="978.2041" y1="722.0859" y2="722.0859"/><text fill="#000000" font-family="sans-serif" font-size="13" lengthAdjust="spacing" textLength="169.8252" x="627.4033" y="717.2295">InvestigadorDetalleResponse</text><polygon fill="#181818" points="334.6992,764.7891,324.6992,768.7891,334.6992,772.7891,330.6992,768.7891" style="stroke:#181818;stroke-width:1;"/><line style="stroke:#181818;stroke-width:1;stroke-dasharray:2.0,2.0;" x1="328.6992" x2="609.4033" y1="768.7891" y2="768.7891"/><text fill="#000000" font-family="sans-serif" font-size="13" lengthAdjust="spacing" textLength="44.0845" x="340.6992" y="747.5811">200 OK</text><text fill="#000000" font-family="sans-serif" font-size="13" lengthAdjust="spacing" textLength="135.1353" x="340.6992" y="763.9326">Detalle del investigador</text><polygon fill="#181818" points="82.5239,795.1406,72.5239,799.1406,82.5239,803.1406,78.5239,799.1406" style="stroke:#181818;stroke-width:1;"/><line style="stroke:#181818;stroke-width:1;stroke-dasharray:2.0,2.0;" x1="76.5239" x2="312.6992" y1="799.1406" y2="799.1406"/><text fill="#000000" font-family="sans-serif" font-size="13" lengthAdjust="spacing" textLength="218.1753" x="88.5239" y="794.2842">Presenta INVESTIGADOR_ABIERTO</text><line style="stroke:#000000;stroke-width:1;stroke-dasharray:2.0,2.0;" x1="10" x2="2149.5781" y1="815.1406" y2="815.1406"/><text fill="#000000" font-family="sans-serif" font-size="11" font-weight="bold" lengthAdjust="spacing" textLength="141.813" x="15" y="826.5596">[Sesion ausente o invalida]</text><polygon fill="#181818" points="621.4033,848.3281,611.4033,852.3281,621.4033,856.3281,617.4033,852.3281" style="stroke:#181818;stroke-width:1;"/><line style="stroke:#181818;stroke-width:1;stroke-dasharray:2.0,2.0;" x1="615.4033" x2="847.9839" y1="852.3281" y2="852.3281"/><text fill="#000000" font-family="sans-serif" font-size="13" lengthAdjust="spacing" textLength="149.5952" x="627.4033" y="847.4717">SesionNoValidaException</text><polygon fill="#181818" points="334.6992,878.6797,324.6992,882.6797,334.6992,886.6797,330.6992,882.6797" style="stroke:#181818;stroke-width:1;"/><line style="stroke:#181818;stroke-width:1;stroke-dasharray:2.0,2.0;" x1="328.6992" x2="609.4033" y1="882.6797" y2="882.6797"/><text fill="#000000" font-family="sans-serif" font-size="13" lengthAdjust="spacing" textLength="102.6289" x="340.6992" y="877.8232">401 Unauthorized</text><polygon fill="#181818" points="82.5239,909.0313,72.5239,913.0313,82.5239,917.0313,78.5239,913.0313" style="stroke:#181818;stroke-width:1;"/><line style="stroke:#181818;stroke-width:1;stroke-dasharray:2.0,2.0;" x1="76.5239" x2="312.6992" y1="913.0313" y2="913.0313"/><text fill="#000000" font-family="sans-serif" font-size="13" lengthAdjust="spacing" textLength="145.9644" x="88.5239" y="908.1748">Presenta error de acceso</text><!--SRC=[fLLHRzem47xdLvpwHAUrT5EVq5f4Ijfbww02shrKganyOzQ27TbELJRrl-_i1B2XT9iM2N3EtvtllllEM64BX85WSyqM33Y2mRn2cGi6Hz2VQQ51o4SqLimPLnfojL1mePJcGZf3gyLoI_RGL39jHIvA9YqSP87t02qh2hnXSxoNxJ6Iw-41C0ENMacBakztlI20LkIioNDIQY7da2ZL-FTB4RjEq0Wb9wWVHOuUKbls7n1Z_Je6tvgAQQ76M2eZgEIbXmRM67wZrHA9cYryQ6vnPjcC6OI3n7qJ-mDcbV70GT9g1QJ2qVcQfIubM62UKpqiwexhXNXa5ZU4hXREdrZgmbKwXGuhHITqHDFv9VXphsooo_WPlVUUxoMby4DWBGnFuFe8npbzNE2Qsowe6Hs5kdxjvxPYHPjLzZjAueLPCXvk_9k6iC8sItXaXU2i1VGqbgDLrlNx64sff44FuRWTobdN6VaEhbDgrzc_1S7VmgRAtg5t2WBLZQzJy6iNBMXo5xu9oPDbnjk2rzx1hWCF4aetlKulfl06BiUZBr3L00DVFwRZb5A0C-Xvrq7YIupYKv5LOQahZlGIjH76-e7SFImijDc03j58ogZh8cv3ZPDOyCc7iqXKI5-t0WLI0VL9QV6JODurOc3LXJ7T3TgeeKfbxkQHmEbJZgLTiR_JbmsTw-P4GZuzEOMXid2fAXBh2o6SobRcZPOfHZ0RNPegD5HKF0skAYwSOiIig9F0WiOiOcJDnsxLvz6mreqV45h8t980el79-4XprCbog1OpZNsJjrzKcdl2g5k2AOyRoQmS3PJmQPGDruQ7U6o161tHhZZU09oyocFwgUL6Uuq07mBb1UgBgtnTVhlvXngy9YpxiDatrGBb-NuzlV3V48tuFylf_Sa9Z3xVooOOEHVn1Vd_2ik6T-bacbtr1wFnGp_9ql5qL6kB1EprrTnTh78EIDD56VpfPXkgEm-9n-cLAsvhYjx1hNGthHjXvAqz9Vv5UQWrJGMrdkKv6jLoLGMHLX5-0m00]--></g></svg>