<svg xmlns="http://www.w3.org/2000/svg" xmlns:xlink="http://www.w3.org/1999/xlink" contentStyleType="text/css" data-diagram-type="STATE" height="772px" preserveAspectRatio="none" style="width:738px;height:772px;background:#FFFFFF;" version="1.1" viewBox="0 0 738 772" width="738px" zoomAndPan="magnify"><?plantuml 1.2026.6?><defs/><g><g class="entity" data-qualified-name="in1" data-source-line="4" id="ent0001"><rect fill="#F1F1F1" height="50" rx="12.5" ry="12.5" style="stroke:#181818;stroke-width:0.5;" width="187.2617" x="236.5" y="7"/><line style="stroke:#181818;stroke-width:0.5;" x1="236.5" x2="423.7617" y1="34.6094" y2="34.6094"/><text fill="#000000" font-family="sans-serif" font-size="14" lengthAdjust="spacing" textLength="167.2617" x="246.5" y="26.5332">RECOMPENSA_ABIERTA</text></g><g class="entity" data-qualified-name="editarRecompensa" data-source-line="10" id="ent0002"><path d="M19.5,153 L640.5,153 A12.5,12.5 0 0 1 653,165.5 L653,180.6094 L7,180.6094 L7,165.5 A12.5,12.5 0 0 1 19.5,153" fill="#F1F1F1"/><rect fill="none" height="458.6094" rx="12.5" ry="12.5" style="stroke:#181818;stroke-width:0.5;" width="646" x="7" y="153"/><line style="stroke:#181818;stroke-width:0.5;" x1="7" x2="653" y1="180.6094" y2="180.6094"/><text fill="#000000" font-family="sans-serif" font-size="14" lengthAdjust="spacing" textLength="126.834" x="266.583" y="172.5332">editarRecompensa()</text><g class="entity" data-qualified-name="editarRecompensa.EditandoDatos" data-source-line="12" id="ent0003"><rect fill="#F1F1F1" height="50" rx="12.5" ry="12.5" style="stroke:#181818;stroke-width:0.5;" width="50" x="197" y="283.6094"/><line style="stroke:#181818;stroke-width:0.5;" x1="197" x2="247" y1="311.2188" y2="311.2188"/><text fill="#000000" font-family="sans-serif" font-size="14" lengthAdjust="spacing" textLength="3.8896" x="220.0552" y="303.1426">&#160;</text></g><g class="entity" data-qualified-name="editarRecompensa.CambiosGuardados" data-source-line="13" id="ent0004"><rect fill="#F1F1F1" height="50" rx="12.5" ry="12.5" style="stroke:#181818;stroke-width:0.5;" width="50" x="19" y="454.6094"/><line style="stroke:#181818;stroke-width:0.5;" x1="19" x2="69" y1="482.2188" y2="482.2188"/><text fill="#000000" font-family="sans-serif" font-size="14" lengthAdjust="spacing" textLength="3.8896" x="42.0552" y="474.1426">&#160;</text></g><g class="start_entity" data-qualified-name="editarRecompensa..start.editarRecompensa" data-source-line="15" id="ent0006"><ellipse cx="222" cy="201.6094" fill="#222222" rx="10" ry="10" style="stroke:#222222;stroke-width:1;"/></g><g class="end_entity" data-qualified-name="editarRecompensa..end.editarRecompensa" data-source-line="28" id="ent0009"><ellipse cx="218" cy="587.6094" fill="none" rx="11" ry="11" style="stroke:#222222;stroke-width:1;"/><ellipse cx="218" cy="587.6094" fill="#222222" rx="6" ry="6" style="stroke:#222222;stroke-width:1;"/></g><!--link *start*editarRecompensa to EditandoDatos--><g class="link" data-entity-1="ent0006" data-entity-2="ent0003" data-link-type="dependency" data-source-line="15" id="lnk7"><path d="M222,211.9294 C222,227.7894 222,255.5194 222,278.2494" fill="none" id="*start*editarRecompensa-to-EditandoDatos" style="stroke:#008000;stroke-width:1;"/><polygon fill="#008000" points="222,283.2494,226,274.2494,222,278.2494,218,274.2494,222,283.2494" style="stroke:#008000;stroke-width:1;stroke-linejoin:miter;stroke-miterlimit:10;"/><path d="M227,234.6094 L227,260.6094 L480,260.6094 L480,244.6094 L470,234.6094 L227,234.6094" fill="#FEFFDD" style="stroke:#181818;stroke-width:0.5;"/><path d="M470,234.6094 L470,244.6094 L480,244.6094 L470,234.6094" fill="#FEFFDD" style="stroke:#181818;stroke-width:0.5;"/><text fill="#000000" font-family="sans-serif" font-size="13" font-weight="700" lengthAdjust="spacing" textLength="77.9937" x="233" y="253.1045">Coordinador</text><text fill="#000000" font-family="sans-serif" font-size="13" lengthAdjust="spacing" textLength="151.0171" x="314.6055" y="253.1045">solicita editar recompensa</text></g><!--link EditandoDatos to CambiosGuardados--><g class="link" data-entity-1="ent0003" data-entity-2="ent0004" data-link-type="dependency" data-source-line="20" id="lnk8"><path d="M196.92,315.8094 C149.63,327.4894 52,351.6094 52,351.6094 C52,351.6094 48.1543,412.5893 45.8343,449.4293" fill="none" id="EditandoDatos-to-CambiosGuardados" style="stroke:#008000;stroke-width:1;"/><polygon fill="#008000" points="45.52,454.4194,50.0777,445.6886,45.8343,449.4293,42.0936,445.1858,45.52,454.4194" style="stroke:#008000;stroke-width:1;stroke-linejoin:miter;stroke-miterlimit:10;"/><path d="M57,356.6094 L57,431.6094 L380,431.6094 L380,366.6094 L370,356.6094 L57,356.6094" fill="#FEFFDD" style="stroke:#181818;stroke-width:0.5;"/><path d="M370,356.6094 L370,366.6094 L380,366.6094 L370,356.6094" fill="#FEFFDD" style="stroke:#181818;stroke-width:0.5;"/><text fill="#000000" font-family="sans-serif" font-size="13" font-weight="700" lengthAdjust="spacing" textLength="49.8608" x="63" y="375.1045">Sistema</text><text fill="#000000" font-family="sans-serif" font-size="13" lengthAdjust="spacing" textLength="248.606" x="116.4727" y="375.1045">presenta datos editables de la recompensa</text><text fill="#000000" font-family="sans-serif" font-size="13" font-weight="700" lengthAdjust="spacing" textLength="49.8608" x="63" y="391.4561">Sistema</text><text fill="#000000" font-family="sans-serif" font-size="13" lengthAdjust="spacing" textLength="190.0234" x="116.4727" y="391.4561">permite introducir modificaciones</text><text fill="#000000" font-family="sans-serif" font-size="13" font-weight="700" lengthAdjust="spacing" textLength="77.9937" x="63" y="407.8076">Coordinador</text><text fill="#000000" font-family="sans-serif" font-size="13" lengthAdjust="spacing" textLength="207.3779" x="144.6055" y="407.8076">introduce cambios y solicita guardar</text><text fill="#000000" font-family="sans-serif" font-size="13" font-weight="700" lengthAdjust="spacing" textLength="49.8608" x="63" y="424.1592">Sistema</text><text fill="#000000" font-family="sans-serif" font-size="13" lengthAdjust="spacing" textLength="115.5972" x="116.4727" y="424.1592">registra los cambios</text></g><!--link EditandoDatos to *end*editarRecompensa--><g class="link" data-entity-1="ent0003" data-entity-2="ent0009" data-link-type="dependency" data-source-line="28" id="lnk10"><path d="M247.11,316.0794 C292.83,327.8594 385,351.6094 385,351.6094 C385,351.6094 385,558.6094 385,558.6094 C385,558.6094 270.4912,577.8126 233.6312,583.9926" fill="none" id="EditandoDatos-to-*end*editarRecompensa" style="stroke:#FF0000;stroke-width:1;"/><polygon fill="#FF0000" points="228.7,584.8194,238.2375,587.2761,233.6312,583.9926,236.9147,579.3863,228.7,584.8194" style="stroke:#FF0000;stroke-width:1;stroke-linejoin:miter;stroke-miterlimit:10;"/><path d="M390,466.6094 L390,492.6094 L629,492.6094 L629,476.6094 L619,466.6094 L390,466.6094" fill="#FEFFDD" style="stroke:#181818;stroke-width:0.5;"/><path d="M619,466.6094 L619,476.6094 L629,476.6094 L619,466.6094" fill="#FEFFDD" style="stroke:#181818;stroke-width:0.5;"/><text fill="#000000" font-family="sans-serif" font-size="13" font-weight="700" lengthAdjust="spacing" textLength="77.9937" x="396" y="485.1045">Coordinador</text><text fill="#000000" font-family="sans-serif" font-size="13" lengthAdjust="spacing" textLength="137.2935" x="477.6055" y="485.1045">solicita cancelar edici&#243;n</text></g><!--link CambiosGuardados to *end*editarRecompensa--><g class="link" data-entity-1="ent0004" data-entity-2="ent0009" data-link-type="dependency" data-source-line="33" id="lnk11"><path d="M40.51,505.0394 C39.19,514.2794 38,522.6094 38,522.6094 C38,522.6094 38,558.6094 38,558.6094 C38,558.6094 163.5895,578.1406 202.3395,584.1706" fill="none" id="CambiosGuardados-to-*end*editarRecompensa" style="stroke:#008000;stroke-width:1;"/><polygon fill="#008000" points="207.28,584.9394,199.0021,579.6031,202.3395,584.1706,197.772,587.5079,207.28,584.9394" style="stroke:#008000;stroke-width:1;stroke-linejoin:miter;stroke-miterlimit:10;"/><path d="M43,527.6094 L43,553.6094 L380,553.6094 L380,537.6094 L370,527.6094 L43,527.6094" fill="#FEFFDD" style="stroke:#181818;stroke-width:0.5;"/><path d="M370,527.6094 L370,537.6094 L380,537.6094 L370,527.6094" fill="#FEFFDD" style="stroke:#181818;stroke-width:0.5;"/><text fill="#000000" font-family="sans-serif" font-size="13" font-weight="700" lengthAdjust="spacing" textLength="49.8608" x="49" y="546.1045">Sistema</text><text fill="#000000" font-family="sans-serif" font-size="13" lengthAdjust="spacing" textLength="263.0405" x="102.4727" y="546.1045">presenta confirmaci&#243;n de cambios guardados</text></g></g><g class="entity" data-qualified-name="RECOMPENSA_ABIERTA" data-source-line="40" id="ent0012"><rect fill="#F1F1F1" height="50" rx="12.5" ry="12.5" style="stroke:#181818;stroke-width:0.5;" width="187.2617" x="86.5" y="708"/><line style="stroke:#181818;stroke-width:0.5;" x1="86.5" x2="273.7617" y1="735.6094" y2="735.6094"/><text fill="#000000" font-family="sans-serif" font-size="14" lengthAdjust="spacing" textLength="167.2617" x="96.5" y="727.5332">RECOMPENSA_ABIERTA</text></g><g class="entity" data-qualified-name="RECOMPENSAS_ABIERTAS" data-source-line="50" id="ent0015"><rect fill="#F1F1F1" height="50" rx="12.5" ry="12.5" style="stroke:#181818;stroke-width:0.5;" width="205.9375" x="377" y="708"/><line style="stroke:#181818;stroke-width:0.5;" x1="377" x2="582.9375" y1="735.6094" y2="735.6094"/><text fill="#000000" font-family="sans-serif" font-size="14" lengthAdjust="spacing" textLength="185.9375" x="387" y="727.5332">RECOMPENSAS_ABIERTAS</text></g><!--link in1 to editarRecompensa--><g class="link" data-entity-1="ent0001" data-entity-2="ent0002" data-link-type="dependency" data-source-line="5" id="lnk5"><path d="M330,57.23 C330,79.23 330,109.1 330,147.97" fill="none" id="in1-to-editarRecompensa" style="stroke:#008000;stroke-width:1;"/><polygon fill="#008000" points="330,152.97,334,143.97,330,147.97,326,143.97,330,152.97" style="stroke:#008000;stroke-width:1;stroke-linejoin:miter;stroke-miterlimit:10;"/><path d="M335,92 L335,118 L473,118 L473,102 L463,92 L335,92" fill="#FEFFDD" style="stroke:#181818;stroke-width:0.5;"/><path d="M463,92 L463,102 L473,102 L463,92" fill="#FEFFDD" style="stroke:#181818;stroke-width:0.5;"/><text fill="#000000" font-family="sans-serif" font-size="13" lengthAdjust="spacing" textLength="117.7744" x="341" y="110.4951">editarRecompensa()</text></g><!--link editarRecompensa to RECOMPENSA_ABIERTA--><g class="link" data-entity-1="ent0002" data-entity-2="ent0012" data-link-type="dependency" data-source-line="40" id="lnk13"><path d="M78.86,612.09 C58.75,630.39 46,642 46,642 C46,642 46,678 46,678 C46,678 79.7422,691.6016 115.4122,705.9716" fill="none" id="editarRecompensa-to-RECOMPENSA_ABIERTA" style="stroke:#008000;stroke-width:1;"/><polygon fill="#008000" points="120.05,707.84,113.1967,700.7667,115.4122,705.9716,110.2073,708.1872,120.05,707.84" style="stroke:#008000;stroke-width:1;stroke-linejoin:miter;stroke-miterlimit:10;"/><path d="M51,647 L51,673 L194,673 L194,657 L184,647 L51,647" fill="#FEFFDD" style="stroke:#181818;stroke-width:0.5;"/><path d="M184,647 L184,657 L194,657 L184,647" fill="#FEFFDD" style="stroke:#181818;stroke-width:0.5;"/><text fill="#000000" font-family="sans-serif" font-size="13" lengthAdjust="spacing" textLength="122.8589" x="57" y="665.4951">Recompensa editada</text></g><!--link editarRecompensa to RECOMPENSA_ABIERTA--><g class="link" data-entity-1="ent0002" data-entity-2="ent0012" data-link-type="dependency" data-source-line="45" id="lnk14"><path d="M231.62,612.07 C214.94,650.81 201.9569,680.9874 192.4869,702.9874" fill="none" id="editarRecompensa-to-RECOMPENSA_ABIERTA-1" style="stroke:#FF0000;stroke-width:1;"/><polygon fill="#FF0000" points="190.51,707.58,197.7425,700.8949,192.4869,702.9874,190.3944,697.7318,190.51,707.58" style="stroke:#FF0000;stroke-width:1;stroke-linejoin:miter;stroke-miterlimit:10;"/><path d="M222,647 L222,673 L348,673 L348,657 L338,647 L222,647" fill="#FEFFDD" style="stroke:#181818;stroke-width:0.5;"/><path d="M338,647 L338,657 L348,657 L338,647" fill="#FEFFDD" style="stroke:#181818;stroke-width:0.5;"/><text fill="#000000" font-family="sans-serif" font-size="13" lengthAdjust="spacing" textLength="105.5171" x="228" y="665.4951">Edici&#243;n cancelada</text></g><!--link editarRecompensa to RECOMPENSAS_ABIERTAS--><g class="link" data-entity-1="ent0002" data-entity-2="ent0015" data-link-type="dependency" data-source-line="50" id="lnk16"><path d="M396.03,612.28 C407.06,650.48 415,678 415,678 C415,678 429.7738,690.2752 447.0738,704.6452" fill="none" id="editarRecompensa-to-RECOMPENSAS_ABIERTAS" style="stroke:#008000;stroke-width:1;"/><polygon fill="#008000" points="450.92,707.84,446.5527,699.0124,447.0738,704.6452,441.441,705.1663,450.92,707.84" style="stroke:#008000;stroke-width:1;stroke-linejoin:miter;stroke-miterlimit:10;"/><path d="M420,647 L420,673 L571,673 L571,657 L561,647 L420,647" fill="#FEFFDD" style="stroke:#181818;stroke-width:0.5;"/><path d="M561,647 L561,657 L571,657 L561,647" fill="#FEFFDD" style="stroke:#181818;stroke-width:0.5;"/><text fill="#000000" font-family="sans-serif" font-size="13" lengthAdjust="spacing" textLength="130.7681" x="426" y="665.4951">eliminarRecompensa()</text></g><!--link editarRecompensa to RECOMPENSAS_ABIERTAS--><g class="link" data-entity-1="ent0002" data-entity-2="ent0015" data-link-type="dependency" data-source-line="55" id="lnk17"><path d="M551.08,612.09 C568.77,630.39 580,642 580,642 C580,642 580,678 580,678 C580,678 555.7599,691.0949 529.1399,705.4649" fill="none" id="editarRecompensa-to-RECOMPENSAS_ABIERTAS-1" style="stroke:#008000;stroke-width:1;"/><polygon fill="#008000" points="524.74,707.84,534.5598,707.0847,529.1399,705.4649,530.7596,700.0449,524.74,707.84" style="stroke:#008000;stroke-width:1;stroke-linejoin:miter;stroke-miterlimit:10;"/><path d="M585,647 L585,673 L723,673 L723,657 L713,647 L585,647" fill="#FEFFDD" style="stroke:#181818;stroke-width:0.5;"/><path d="M713,647 L713,657 L723,657 L713,647" fill="#FEFFDD" style="stroke:#181818;stroke-width:0.5;"/><text fill="#000000" font-family="sans-serif" font-size="13" lengthAdjust="spacing" textLength="117.7617" x="591" y="665.4951">abrirRecompensas()</text></g><?plantuml-src fLJBRjim4BppAnRk9IaG1Bq71XnN27Be0tPkHX2ioBMni4GAI_bW1FsgVa9_h2HZrQOaDmaYdIZkpEpEOEMtR1iKhA5YI-s-8MXSjOy7fNoBBG7RBu0U9ejY_kFRp-BxSlOqkxql5W-pYOftLwjF6o6oZrTJ8CCjoeAqgnko7fLrWS7PoBvL_TkBIqNMGApfnFebINc8cy2pKX2U5zGalA6mY7NMkA_OEZ-ydcDTilDtEnI39bIaajNdnso48KasG_nmKqxdpebX6sZavhgSWdSLwm0y301oj20YZcF6KoQHYGzQFAU_PDzIZKcx4V9aWxP9VAc3iY8FXg32VYjzC4dDAULMdDbf5gYTuJLhrEmi-NCJTm02_T8qx8ykRD80CYOej0adGQW2v01zYqT29ZeKudf_A1gjfYh44hpH_EUt7H7iMv_byZ_LqIYqiskM6fDQ3A8pQPD5-w-5NqeDrYFhOBXz-MwTm1AFmPFT6cC--FaQRt5mhFFmLTwHZfSTzRBtFwYu3d6T-oDya1rBuHEqpxZ_0W00?></g></svg>