<?xml version="1.0" encoding="us-ascii" standalone="no"?><svg xmlns="http://www.w3.org/2000/svg" xmlns:xlink="http://www.w3.org/1999/xlink" contentStyleType="text/css" height="1003px" preserveAspectRatio="none" style="width:1709px;height:1003px;background:#FFFFFF;" version="1.1" viewBox="0 0 1709 1003" width="1709px" zoomAndPan="magnify"><defs/><g><text fill="#000000" font-family="sans-serif" font-size="14" font-weight="bold" lengthAdjust="spacing" textLength="298" x="706.5" y="29.5332">Diagrama de secuencia - Editar entregable</text><rect fill="none" height="417.1094" style="stroke:#000000;stroke-width:1.5;" width="1692" x="10" y="487.4375"/><line style="stroke:#181818;stroke-width:0.5;stroke-dasharray:5.0,5.0;" x1="62" x2="62" y1="121.2188" y2="921.5469"/><line style="stroke:#181818;stroke-width:0.5;stroke-dasharray:5.0,5.0;" x1="362" x2="362" y1="121.2188" y2="921.5469"/><line style="stroke:#181818;stroke-width:0.5;stroke-dasharray:5.0,5.0;" x1="654" x2="654" y1="121.2188" y2="921.5469"/><line style="stroke:#181818;stroke-width:0.5;stroke-dasharray:5.0,5.0;" x1="867.5" x2="867.5" y1="121.2188" y2="921.5469"/><line style="stroke:#181818;stroke-width:0.5;stroke-dasharray:5.0,5.0;" x1="996.5" x2="996.5" y1="121.2188" y2="921.5469"/><line style="stroke:#181818;stroke-width:0.5;stroke-dasharray:5.0,5.0;" x1="1156" x2="1156" y1="121.2188" y2="921.5469"/><line style="stroke:#181818;stroke-width:0.5;stroke-dasharray:5.0,5.0;" x1="1349" x2="1349" y1="121.2188" y2="921.5469"/><line style="stroke:#181818;stroke-width:0.5;stroke-dasharray:5.0,5.0;" x1="1642" x2="1642" y1="121.2188" y2="921.5469"/><text fill="#000000" font-family="sans-serif" font-size="14" lengthAdjust="spacing" textLength="79" x="20" y="118.1426">Coordinador</text><ellipse cx="62.5" cy="52.1094" fill="#E2E2F0" rx="8" ry="8" style="stroke:#181818;stroke-width:0.5;"/><path d="M62.5,60.1094 L62.5,87.1094 M49.5,68.1094 L75.5,68.1094 M62.5,87.1094 L49.5,102.1094 M62.5,87.1094 L75.5,102.1094 " fill="none" style="stroke:#181818;stroke-width:0.5;"/><text fill="#000000" font-family="sans-serif" font-size="14" lengthAdjust="spacing" textLength="79" x="20" y="935.0801">Coordinador</text><ellipse cx="62.5" cy="946.6563" fill="#E2E2F0" rx="8" ry="8" style="stroke:#181818;stroke-width:0.5;"/><path d="M62.5,954.6563 L62.5,981.6563 M49.5,962.6563 L75.5,962.6563 M62.5,981.6563 L49.5,996.6563 M62.5,981.6563 L75.5,996.6563 " fill="none" style="stroke:#181818;stroke-width:0.5;"/><rect fill="#E2E2F0" height="49.2188" rx="2.5" ry="2.5" style="stroke:#181818;stroke-width:0.5;" width="153" x="286" y="71"/><text fill="#000000" font-family="sans-serif" font-size="14" lengthAdjust="spacing" textLength="139" x="293" y="92.5332">EditarEntregableForm</text><text fill="#000000" font-family="sans-serif" font-size="14" lengthAdjust="spacing" textLength="47" x="339" y="110.1426">(React)</text><rect fill="#E2E2F0" height="49.2188" rx="2.5" ry="2.5" style="stroke:#181818;stroke-width:0.5;" width="153" x="286" y="920.5469"/><text fill="#000000" font-family="sans-serif" font-size="14" lengthAdjust="spacing" textLength="139" x="293" y="942.0801">EditarEntregableForm</text><text fill="#000000" font-family="sans-serif" font-size="14" lengthAdjust="spacing" textLength="47" x="339" y="959.6895">(React)</text><rect fill="#E2E2F0" height="49.2188" rx="2.5" ry="2.5" style="stroke:#181818;stroke-width:0.5;" width="145" x="582" y="71"/><text fill="#000000" font-family="sans-serif" font-size="14" lengthAdjust="spacing" textLength="131" x="589" y="92.5332">EntregableController</text><text fill="#000000" font-family="sans-serif" font-size="14" lengthAdjust="spacing" textLength="84" x="612.5" y="110.1426">(Spring Boot)</text><rect fill="#E2E2F0" height="49.2188" rx="2.5" ry="2.5" style="stroke:#181818;stroke-width:0.5;" width="145" x="582" y="920.5469"/><text fill="#000000" font-family="sans-serif" font-size="14" lengthAdjust="spacing" textLength="131" x="589" y="942.0801">EntregableController</text><text fill="#000000" font-family="sans-serif" font-size="14" lengthAdjust="spacing" textLength="84" x="612.5" y="959.6895">(Spring Boot)</text><rect fill="#E2E2F0" height="31.6094" rx="2.5" ry="2.5" style="stroke:#181818;stroke-width:0.5;" width="104" x="815.5" y="88.6094"/><text fill="#000000" font-family="sans-serif" font-size="14" lengthAdjust="spacing" textLength="90" x="822.5" y="110.1426">SesionService</text><rect fill="#E2E2F0" height="31.6094" rx="2.5" ry="2.5" style="stroke:#181818;stroke-width:0.5;" width="104" x="815.5" y="920.5469"/><text fill="#000000" font-family="sans-serif" font-size="14" lengthAdjust="spacing" textLength="90" x="822.5" y="942.0801">SesionService</text><rect fill="#E2E2F0" height="31.6094" rx="2.5" ry="2.5" style="stroke:#181818;stroke-width:0.5;" width="130" x="931.5" y="88.6094"/><text fill="#000000" font-family="sans-serif" font-size="14" lengthAdjust="spacing" textLength="116" x="938.5" y="110.1426">EntregableService</text><rect fill="#E2E2F0" height="31.6094" rx="2.5" ry="2.5" style="stroke:#181818;stroke-width:0.5;" width="130" x="931.5" y="920.5469"/><text fill="#000000" font-family="sans-serif" font-size="14" lengthAdjust="spacing" textLength="116" x="938.5" y="942.0801">EntregableService</text><rect fill="#E2E2F0" height="31.6094" rx="2.5" ry="2.5" style="stroke:#181818;stroke-width:0.5;" width="151" x="1081" y="88.6094"/><text fill="#000000" font-family="sans-serif" font-size="14" lengthAdjust="spacing" textLength="137" x="1088" y="110.1426">EntregableRepository</text><rect fill="#E2E2F0" height="31.6094" rx="2.5" ry="2.5" style="stroke:#181818;stroke-width:0.5;" width="151" x="1081" y="920.5469"/><text fill="#000000" font-family="sans-serif" font-size="14" lengthAdjust="spacing" textLength="137" x="1088" y="942.0801">EntregableRepository</text><rect fill="#E2E2F0" height="31.6094" rx="2.5" ry="2.5" style="stroke:#181818;stroke-width:0.5;" width="129" x="1285" y="88.6094"/><text fill="#000000" font-family="sans-serif" font-size="14" lengthAdjust="spacing" textLength="115" x="1292" y="110.1426">ArchivoRepository</text><rect fill="#E2E2F0" height="31.6094" rx="2.5" ry="2.5" style="stroke:#181818;stroke-width:0.5;" width="129" x="1285" y="920.5469"/><text fill="#000000" font-family="sans-serif" font-size="14" lengthAdjust="spacing" textLength="115" x="1292" y="942.0801">ArchivoRepository</text><text fill="#000000" font-family="sans-serif" font-size="14" lengthAdjust="spacing" textLength="93" x="1593" y="118.1426">Base de Datos</text><path d="M1624.5,67.6094 C1624.5,57.6094 1642.5,57.6094 1642.5,57.6094 C1642.5,57.6094 1660.5,57.6094 1660.5,67.6094 L1660.5,93.6094 C1660.5,103.6094 1642.5,103.6094 1642.5,103.6094 C1642.5,103.6094 1624.5,103.6094 1624.5,93.6094 L1624.5,67.6094 " fill="#E2E2F0" style="stroke:#181818;stroke-width:1.5;"/><path d="M1624.5,67.6094 C1624.5,77.6094 1642.5,77.6094 1642.5,77.6094 C1642.5,77.6094 1660.5,77.6094 1660.5,67.6094 " fill="none" style="stroke:#181818;stroke-width:1.5;"/><text fill="#000000" font-family="sans-serif" font-size="14" lengthAdjust="spacing" textLength="93" x="1593" y="935.0801">Base de Datos</text><path d="M1624.5,948.1563 C1624.5,938.1563 1642.5,938.1563 1642.5,938.1563 C1642.5,938.1563 1660.5,938.1563 1660.5,948.1563 L1660.5,974.1563 C1660.5,984.1563 1642.5,984.1563 1642.5,984.1563 C1642.5,984.1563 1624.5,984.1563 1624.5,974.1563 L1624.5,948.1563 " fill="#E2E2F0" style="stroke:#181818;stroke-width:1.5;"/><path d="M1624.5,948.1563 C1624.5,958.1563 1642.5,958.1563 1642.5,958.1563 C1642.5,958.1563 1660.5,958.1563 1660.5,948.1563 " fill="none" style="stroke:#181818;stroke-width:1.5;"/><polygon fill="#181818" points="350.5,149.5703,360.5,153.5703,350.5,157.5703,354.5,153.5703" style="stroke:#181818;stroke-width:1.0;"/><line style="stroke:#181818;stroke-width:1.0;" x1="62.5" x2="356.5" y1="153.5703" y2="153.5703"/><text fill="#000000" font-family="sans-serif" font-size="13" lengthAdjust="spacing" textLength="138" x="69.5" y="148.7139">Modifica datos y guarda</text><polygon fill="#181818" points="642.5,196.2734,652.5,200.2734,642.5,204.2734,646.5,200.2734" style="stroke:#181818;stroke-width:1.0;"/><line style="stroke:#181818;stroke-width:1.0;" x1="362.5" x2="648.5" y1="200.2734" y2="200.2734"/><text fill="#000000" font-family="sans-serif" font-size="13" lengthAdjust="spacing" textLength="161" x="369.5" y="179.0654">PATCH /api/entregables/{id}</text><text fill="#000000" font-family="sans-serif" font-size="13" lengthAdjust="spacing" textLength="268" x="369.5" y="195.417">EntregableUpdateRequest + archivo? + cookie</text><polygon fill="#181818" points="855.5,226.625,865.5,230.625,855.5,234.625,859.5,230.625" style="stroke:#181818;stroke-width:1.0;"/><line style="stroke:#181818;stroke-width:1.0;" x1="654.5" x2="861.5" y1="230.625" y2="230.625"/><text fill="#000000" font-family="sans-serif" font-size="13" lengthAdjust="spacing" textLength="189" x="661.5" y="225.7686">exigirCoordinador(authentication)</text><polygon fill="#181818" points="665.5,256.9766,655.5,260.9766,665.5,264.9766,661.5,260.9766" style="stroke:#181818;stroke-width:1.0;"/><line style="stroke:#181818;stroke-width:1.0;stroke-dasharray:2.0,2.0;" x1="659.5" x2="866.5" y1="260.9766" y2="260.9766"/><text fill="#000000" font-family="sans-serif" font-size="13" lengthAdjust="spacing" textLength="140" x="671.5" y="256.1201">Coordinador autenticado</text><polygon fill="#181818" points="984.5,287.3281,994.5,291.3281,984.5,295.3281,988.5,291.3281" style="stroke:#181818;stroke-width:1.0;"/><line style="stroke:#181818;stroke-width:1.0;" x1="654.5" x2="990.5" y1="291.3281" y2="291.3281"/><text fill="#000000" font-family="sans-serif" font-size="13" lengthAdjust="spacing" textLength="261" x="661.5" y="286.4717">actualizar(id, cambios, archivo?, coordinador)</text><polygon fill="#181818" points="1144.5,317.6797,1154.5,321.6797,1144.5,325.6797,1148.5,321.6797" style="stroke:#181818;stroke-width:1.0;"/><line style="stroke:#181818;stroke-width:1.0;" x1="996.5" x2="1150.5" y1="321.6797" y2="321.6797"/><text fill="#000000" font-family="sans-serif" font-size="13" lengthAdjust="spacing" textLength="126" x="1003.5" y="316.8232">obtenerActivoPorId(id)</text><polygon fill="#181818" points="1630.5,364.3828,1640.5,368.3828,1630.5,372.3828,1634.5,368.3828" style="stroke:#181818;stroke-width:1.0;"/><line style="stroke:#181818;stroke-width:1.0;" x1="1156.5" x2="1636.5" y1="368.3828" y2="368.3828"/><text fill="#000000" font-family="sans-serif" font-size="13" lengthAdjust="spacing" textLength="172" x="1163.5" y="347.1748">SELECT * FROM entregables</text><text fill="#000000" font-family="sans-serif" font-size="13" lengthAdjust="spacing" textLength="207" x="1163.5" y="363.5264">WHERE id = ? AND retirado = false</text><polygon fill="#181818" points="1167.5,394.7344,1157.5,398.7344,1167.5,402.7344,1163.5,398.7344" style="stroke:#181818;stroke-width:1.0;"/><line style="stroke:#181818;stroke-width:1.0;stroke-dasharray:2.0,2.0;" x1="1161.5" x2="1641.5" y1="398.7344" y2="398.7344"/><text fill="#000000" font-family="sans-serif" font-size="13" lengthAdjust="spacing" textLength="103" x="1173.5" y="393.8779">Entregable / vacio</text><polygon fill="#181818" points="1007.5,425.0859,997.5,429.0859,1007.5,433.0859,1003.5,429.0859" style="stroke:#181818;stroke-width:1.0;"/><line style="stroke:#181818;stroke-width:1.0;stroke-dasharray:2.0,2.0;" x1="1001.5" x2="1155.5" y1="429.0859" y2="429.0859"/><text fill="#000000" font-family="sans-serif" font-size="13" lengthAdjust="spacing" textLength="103" x="1013.5" y="424.2295">Entregable / vacio</text><line style="stroke:#181818;stroke-width:1.0;" x1="996.5" x2="1038.5" y1="459.4375" y2="459.4375"/><line style="stroke:#181818;stroke-width:1.0;" x1="1038.5" x2="1038.5" y1="459.4375" y2="472.4375"/><line style="stroke:#181818;stroke-width:1.0;" x1="997.5" x2="1038.5" y1="472.4375" y2="472.4375"/><polygon fill="#181818" points="1007.5,468.4375,997.5,472.4375,1007.5,476.4375,1003.5,472.4375" style="stroke:#181818;stroke-width:1.0;"/><text fill="#000000" font-family="sans-serif" font-size="13" lengthAdjust="spacing" textLength="146" x="1003.5" y="454.5811">aplicarCambiosYValidar()</text><path d="M10,487.4375 L71,487.4375 L71,495.7891 L61,505.7891 L10,505.7891 L10,487.4375 " fill="#EEEEEE" style="stroke:#000000;stroke-width:1.5;"/><rect fill="none" height="417.1094" style="stroke:#000000;stroke-width:1.5;" width="1692" x="10" y="487.4375"/><text fill="#000000" font-family="sans-serif" font-size="13" font-weight="bold" lengthAdjust="spacing" textLength="16" x="25" y="501.9326">alt</text><text fill="#000000" font-family="sans-serif" font-size="11" font-weight="bold" lengthAdjust="spacing" textLength="211" x="86" y="500.8564">[Datos invalidos o entregable retirado]</text><polygon fill="#181818" points="665.5,524.1406,655.5,528.1406,665.5,532.1406,661.5,528.1406" style="stroke:#181818;stroke-width:1.0;"/><line style="stroke:#181818;stroke-width:1.0;stroke-dasharray:2.0,2.0;" x1="659.5" x2="995.5" y1="528.1406" y2="528.1406"/><text fill="#000000" font-family="sans-serif" font-size="13" lengthAdjust="spacing" textLength="318" x="671.5" y="523.2842">ValidacionException / RecursoNoEncontradoException</text><polygon fill="#181818" points="373.5,554.4922,363.5,558.4922,373.5,562.4922,369.5,558.4922" style="stroke:#181818;stroke-width:1.0;"/><line style="stroke:#181818;stroke-width:1.0;stroke-dasharray:2.0,2.0;" x1="367.5" x2="653.5" y1="558.4922" y2="558.4922"/><text fill="#000000" font-family="sans-serif" font-size="13" lengthAdjust="spacing" textLength="197" x="379.5" y="553.6357">400 Bad Request / 404 Not Found</text><line style="stroke:#000000;stroke-width:1.0;stroke-dasharray:2.0,2.0;" x1="10" x2="1702" y1="567.4922" y2="567.4922"/><text fill="#000000" font-family="sans-serif" font-size="11" font-weight="bold" lengthAdjust="spacing" textLength="99" x="15" y="578.9111">[Cambios validos]</text><polygon fill="#181818" points="1144.5,600.6797,1154.5,604.6797,1144.5,608.6797,1148.5,604.6797" style="stroke:#181818;stroke-width:1.0;"/><line style="stroke:#181818;stroke-width:1.0;" x1="996.5" x2="1150.5" y1="604.6797" y2="604.6797"/><text fill="#000000" font-family="sans-serif" font-size="13" lengthAdjust="spacing" textLength="111" x="1003.5" y="599.8232">guardar(entregable)</text><polygon fill="#181818" points="1630.5,647.3828,1640.5,651.3828,1630.5,655.3828,1634.5,651.3828" style="stroke:#181818;stroke-width:1.0;"/><line style="stroke:#181818;stroke-width:1.0;" x1="1156.5" x2="1636.5" y1="651.3828" y2="651.3828"/><text fill="#000000" font-family="sans-serif" font-size="13" lengthAdjust="spacing" textLength="211" x="1163.5" y="630.1748">UPDATE entregables SET titulo = ?,</text><text fill="#000000" font-family="sans-serif" font-size="13" lengthAdjust="spacing" textLength="249" x="1163.5" y="646.5264">descripcion = ?, estado = ? WHERE id = ?</text><polygon fill="#181818" points="1167.5,677.7344,1157.5,681.7344,1167.5,685.7344,1163.5,681.7344" style="stroke:#181818;stroke-width:1.0;"/><line style="stroke:#181818;stroke-width:1.0;stroke-dasharray:2.0,2.0;" x1="1161.5" x2="1641.5" y1="681.7344" y2="681.7344"/><text fill="#000000" font-family="sans-serif" font-size="13" lengthAdjust="spacing" textLength="132" x="1173.5" y="676.8779">Entregable actualizado</text><polygon fill="#181818" points="1337.5,708.0859,1347.5,712.0859,1337.5,716.0859,1341.5,712.0859" style="stroke:#181818;stroke-width:1.0;"/><line style="stroke:#181818;stroke-width:1.0;" x1="996.5" x2="1343.5" y1="712.0859" y2="712.0859"/><text fill="#000000" font-family="sans-serif" font-size="13" lengthAdjust="spacing" textLength="329" x="1003.5" y="707.2295">agregarVersionOpcional(entregable, archivo, coordinador)</text><polygon fill="#181818" points="1630.5,771.1406,1640.5,775.1406,1630.5,779.1406,1634.5,775.1406" style="stroke:#181818;stroke-width:1.0;"/><line style="stroke:#181818;stroke-width:1.0;" x1="1349.5" x2="1636.5" y1="775.1406" y2="775.1406"/><text fill="#000000" font-family="sans-serif" font-size="13" lengthAdjust="spacing" textLength="197" x="1356.5" y="737.5811">INSERT INTO archivos_entregable</text><text fill="#000000" font-family="sans-serif" font-size="13" lengthAdjust="spacing" textLength="269" x="1356.5" y="753.9326">(entregable_id, version, archivo, subido_por_id)</text><text fill="#000000" font-family="sans-serif" font-size="13" lengthAdjust="spacing" textLength="208" x="1356.5" y="770.2842">VALUES (?, siguiente_version, ?, ?)</text><polygon fill="#181818" points="1360.5,801.4922,1350.5,805.4922,1360.5,809.4922,1356.5,805.4922" style="stroke:#181818;stroke-width:1.0;"/><line style="stroke:#181818;stroke-width:1.0;stroke-dasharray:2.0,2.0;" x1="1354.5" x2="1641.5" y1="805.4922" y2="805.4922"/><text fill="#000000" font-family="sans-serif" font-size="13" lengthAdjust="spacing" textLength="120" x="1366.5" y="800.6357">Nueva version / vacio</text><polygon fill="#181818" points="665.5,831.8438,655.5,835.8438,665.5,839.8438,661.5,835.8438" style="stroke:#181818;stroke-width:1.0;"/><line style="stroke:#181818;stroke-width:1.0;stroke-dasharray:2.0,2.0;" x1="659.5" x2="995.5" y1="835.8438" y2="835.8438"/><text fill="#000000" font-family="sans-serif" font-size="13" lengthAdjust="spacing" textLength="160" x="671.5" y="830.9873">EntregableDetalleResponse</text><polygon fill="#181818" points="373.5,862.1953,363.5,866.1953,373.5,870.1953,369.5,866.1953" style="stroke:#181818;stroke-width:1.0;"/><line style="stroke:#181818;stroke-width:1.0;stroke-dasharray:2.0,2.0;" x1="367.5" x2="653.5" y1="866.1953" y2="866.1953"/><text fill="#000000" font-family="sans-serif" font-size="13" lengthAdjust="spacing" textLength="44" x="379.5" y="861.3389">200 OK</text><polygon fill="#181818" points="73.5,892.5469,63.5,896.5469,73.5,900.5469,69.5,896.5469" style="stroke:#181818;stroke-width:1.0;"/><line style="stroke:#181818;stroke-width:1.0;stroke-dasharray:2.0,2.0;" x1="67.5" x2="361.5" y1="896.5469" y2="896.5469"/><text fill="#000000" font-family="sans-serif" font-size="13" lengthAdjust="spacing" textLength="276" x="79.5" y="891.6904">Presenta ENTREGABLE_ABIERTO actualizado</text><!--SRC=[TLHHRzem47xFhpZr2JOgggbFI2iA9ApLMgY0Tfg4X8xOfQUbTcOxgDsq_xvpqYIcQb_0iR_xxhllpdRaSWa9uTxW4uAGO6LMIfKHmYcaWXmQaCePkSTTBYFCd3OmrTe8KYYqYGeqZZ8gK3augGFI5Z_JvccZUal9SVqJG0ipevMJIho9QoEcV6nqdal3SQl2aDh3HElNwBYWuy2LjAJLIfe3PRA2r3iVqHyZg_L7qAKij2KkzwL2-yzZQ6ooHpheDxXWDnBeS8TMmid4_xAx2JfjArmoYQB0HpYzQBqPmOqMz40PDyJZuGNs9Hg1KOFmQFPY1BVnUde9Gones7N93l-I-BTHNIrt1HDnHRzBQHry1gn5ZdcPQVsBPCHidhHsRmJocVPa0dqzBDqZfs1HZX7zg4R2QQCah8MnDLJeZhWoUmGy2INcz0TDZyG0CdpQaRQ3LjB0AsgOV9egpbDuIqUWTymjJPmvHjzgSoMOfn_vGmzA9YDOfTVfT0sVOBPSt0JJQpVgnsMwJ844V8KnnFC4Z7HaE1LlF61kPPHCgfhgP9s3C8G3PgHV4uKLlGCAL7U55paxOgPrmJ_lsGJ19lGZp5qz5q3gu7TvfGFPhSO8e2LkRAzfEATAdpDP-DwmYYLVOcFrNASgynUAWzjZPgbwSZHmvsTdC441pOWCUUSSvjh1J9TyMoLR0w_IuLLaAASnh9vJq-lKznaMDkVkDedNQTWLxjSQ7BaozrqO3pPAI9iPAdnLrGwmfBf7OmWxoDGVjQiTisFRBiBxoJtPUxovbyOFywBAY7cWlftBDsC98KzJsjLybIxN_BTUD65sst7nWzPzRFtm7-gyGH9RxjZQRQ4D0_eRTHzVtwKhwB47blObCO7Sjc6yE-vt9XoLDY_b0PiCxM2-Cq6TQObqcFk7pnPQyLLuRr2-yA0illDHznJnUN3v-Kqoqh9EX7I-NgRVuibrkeqdLspDugWj7FmV]--></g></svg>