<?xml version="1.0" encoding="us-ascii" standalone="no"?><svg xmlns="http://www.w3.org/2000/svg" xmlns:xlink="http://www.w3.org/1999/xlink" contentStyleType="text/css" height="756px" preserveAspectRatio="none" style="width:1431px;height:756px;background:#FFFFFF;" version="1.1" viewBox="0 0 1431 756" width="1431px" zoomAndPan="magnify"><defs/><g><text fill="#000000" font-family="sans-serif" font-size="14" font-weight="bold" lengthAdjust="spacing" textLength="298" x="567.5" y="29.5332">Diagrama de secuencia - Editar entregable</text><rect fill="none" height="246.6484" style="stroke:#000000;stroke-width:1.5;" width="1414" x="10" y="410.3828"/><line style="stroke:#181818;stroke-width:0.5;stroke-dasharray:5.0,5.0;" x1="62" x2="62" y1="121.2188" y2="674.0313"/><line style="stroke:#181818;stroke-width:0.5;stroke-dasharray:5.0,5.0;" x1="362" x2="362" y1="121.2188" y2="674.0313"/><line style="stroke:#181818;stroke-width:0.5;stroke-dasharray:5.0,5.0;" x1="654" x2="654" y1="121.2188" y2="674.0313"/><line style="stroke:#181818;stroke-width:0.5;stroke-dasharray:5.0,5.0;" x1="867.5" x2="867.5" y1="121.2188" y2="674.0313"/><line style="stroke:#181818;stroke-width:0.5;stroke-dasharray:5.0,5.0;" x1="996.5" x2="996.5" y1="121.2188" y2="674.0313"/><line style="stroke:#181818;stroke-width:0.5;stroke-dasharray:5.0,5.0;" x1="1156" x2="1156" y1="121.2188" y2="674.0313"/><line style="stroke:#181818;stroke-width:0.5;stroke-dasharray:5.0,5.0;" x1="1349" x2="1349" y1="121.2188" y2="674.0313"/><text fill="#000000" font-family="sans-serif" font-size="14" lengthAdjust="spacing" textLength="79" x="20" y="118.1426">Coordinador</text><ellipse cx="62.5" cy="52.1094" fill="#E2E2F0" rx="8" ry="8" style="stroke:#181818;stroke-width:0.5;"/><path d="M62.5,60.1094 L62.5,87.1094 M49.5,68.1094 L75.5,68.1094 M62.5,87.1094 L49.5,102.1094 M62.5,87.1094 L75.5,102.1094 " fill="none" style="stroke:#181818;stroke-width:0.5;"/><text fill="#000000" font-family="sans-serif" font-size="14" lengthAdjust="spacing" textLength="79" x="20" y="687.5645">Coordinador</text><ellipse cx="62.5" cy="699.1406" fill="#E2E2F0" rx="8" ry="8" style="stroke:#181818;stroke-width:0.5;"/><path d="M62.5,707.1406 L62.5,734.1406 M49.5,715.1406 L75.5,715.1406 M62.5,734.1406 L49.5,749.1406 M62.5,734.1406 L75.5,749.1406 " fill="none" style="stroke:#181818;stroke-width:0.5;"/><rect fill="#E2E2F0" height="49.2188" rx="2.5" ry="2.5" style="stroke:#181818;stroke-width:0.5;" width="153" x="286" y="71"/><text fill="#000000" font-family="sans-serif" font-size="14" lengthAdjust="spacing" textLength="139" x="293" y="92.5332">EditarEntregableForm</text><text fill="#000000" font-family="sans-serif" font-size="14" lengthAdjust="spacing" textLength="47" x="339" y="110.1426">(React)</text><rect fill="#E2E2F0" height="49.2188" rx="2.5" ry="2.5" style="stroke:#181818;stroke-width:0.5;" width="153" x="286" y="673.0313"/><text fill="#000000" font-family="sans-serif" font-size="14" lengthAdjust="spacing" textLength="139" x="293" y="694.5645">EditarEntregableForm</text><text fill="#000000" font-family="sans-serif" font-size="14" lengthAdjust="spacing" textLength="47" x="339" y="712.1738">(React)</text><rect fill="#E2E2F0" height="49.2188" rx="2.5" ry="2.5" style="stroke:#181818;stroke-width:0.5;" width="145" x="582" y="71"/><text fill="#000000" font-family="sans-serif" font-size="14" lengthAdjust="spacing" textLength="131" x="589" y="92.5332">EntregableController</text><text fill="#000000" font-family="sans-serif" font-size="14" lengthAdjust="spacing" textLength="84" x="612.5" y="110.1426">(Spring Boot)</text><rect fill="#E2E2F0" height="49.2188" rx="2.5" ry="2.5" style="stroke:#181818;stroke-width:0.5;" width="145" x="582" y="673.0313"/><text fill="#000000" font-family="sans-serif" font-size="14" lengthAdjust="spacing" textLength="131" x="589" y="694.5645">EntregableController</text><text fill="#000000" font-family="sans-serif" font-size="14" lengthAdjust="spacing" textLength="84" x="612.5" y="712.1738">(Spring Boot)</text><rect fill="#E2E2F0" height="31.6094" rx="2.5" ry="2.5" style="stroke:#181818;stroke-width:0.5;" width="104" x="815.5" y="88.6094"/><text fill="#000000" font-family="sans-serif" font-size="14" lengthAdjust="spacing" textLength="90" x="822.5" y="110.1426">SesionService</text><rect fill="#E2E2F0" height="31.6094" rx="2.5" ry="2.5" style="stroke:#181818;stroke-width:0.5;" width="104" x="815.5" y="673.0313"/><text fill="#000000" font-family="sans-serif" font-size="14" lengthAdjust="spacing" textLength="90" x="822.5" y="694.5645">SesionService</text><rect fill="#E2E2F0" height="31.6094" rx="2.5" ry="2.5" style="stroke:#181818;stroke-width:0.5;" width="130" x="931.5" y="88.6094"/><text fill="#000000" font-family="sans-serif" font-size="14" lengthAdjust="spacing" textLength="116" x="938.5" y="110.1426">EntregableService</text><rect fill="#E2E2F0" height="31.6094" rx="2.5" ry="2.5" style="stroke:#181818;stroke-width:0.5;" width="130" x="931.5" y="673.0313"/><text fill="#000000" font-family="sans-serif" font-size="14" lengthAdjust="spacing" textLength="116" x="938.5" y="694.5645">EntregableService</text><rect fill="#E2E2F0" height="31.6094" rx="2.5" ry="2.5" style="stroke:#181818;stroke-width:0.5;" width="151" x="1081" y="88.6094"/><text fill="#000000" font-family="sans-serif" font-size="14" lengthAdjust="spacing" textLength="137" x="1088" y="110.1426">EntregableRepository</text><rect fill="#E2E2F0" height="31.6094" rx="2.5" ry="2.5" style="stroke:#181818;stroke-width:0.5;" width="151" x="1081" y="673.0313"/><text fill="#000000" font-family="sans-serif" font-size="14" lengthAdjust="spacing" textLength="137" x="1088" y="694.5645">EntregableRepository</text><rect fill="#E2E2F0" height="31.6094" rx="2.5" ry="2.5" style="stroke:#181818;stroke-width:0.5;" width="129" x="1285" y="88.6094"/><text fill="#000000" font-family="sans-serif" font-size="14" lengthAdjust="spacing" textLength="115" x="1292" y="110.1426">ArchivoRepository</text><rect fill="#E2E2F0" height="31.6094" rx="2.5" ry="2.5" style="stroke:#181818;stroke-width:0.5;" width="129" x="1285" y="673.0313"/><text fill="#000000" font-family="sans-serif" font-size="14" lengthAdjust="spacing" textLength="115" x="1292" y="694.5645">ArchivoRepository</text><polygon fill="#181818" points="350.5,149.5703,360.5,153.5703,350.5,157.5703,354.5,153.5703" style="stroke:#181818;stroke-width:1.0;"/><line style="stroke:#181818;stroke-width:1.0;" x1="62.5" x2="356.5" y1="153.5703" y2="153.5703"/><text fill="#000000" font-family="sans-serif" font-size="13" lengthAdjust="spacing" textLength="138" x="69.5" y="148.7139">Modifica datos y guarda</text><polygon fill="#181818" points="642.5,196.2734,652.5,200.2734,642.5,204.2734,646.5,200.2734" style="stroke:#181818;stroke-width:1.0;"/><line style="stroke:#181818;stroke-width:1.0;" x1="362.5" x2="648.5" y1="200.2734" y2="200.2734"/><text fill="#000000" font-family="sans-serif" font-size="13" lengthAdjust="spacing" textLength="161" x="369.5" y="179.0654">PATCH /api/entregables/{id}</text><text fill="#000000" font-family="sans-serif" font-size="13" lengthAdjust="spacing" textLength="268" x="369.5" y="195.417">EntregableUpdateRequest + archivo? + cookie</text><polygon fill="#181818" points="855.5,226.625,865.5,230.625,855.5,234.625,859.5,230.625" style="stroke:#181818;stroke-width:1.0;"/><line style="stroke:#181818;stroke-width:1.0;" x1="654.5" x2="861.5" y1="230.625" y2="230.625"/><text fill="#000000" font-family="sans-serif" font-size="13" lengthAdjust="spacing" textLength="189" x="661.5" y="225.7686">exigirCoordinador(authentication)</text><polygon fill="#181818" points="665.5,256.9766,655.5,260.9766,665.5,264.9766,661.5,260.9766" style="stroke:#181818;stroke-width:1.0;"/><line style="stroke:#181818;stroke-width:1.0;stroke-dasharray:2.0,2.0;" x1="659.5" x2="866.5" y1="260.9766" y2="260.9766"/><text fill="#000000" font-family="sans-serif" font-size="13" lengthAdjust="spacing" textLength="140" x="671.5" y="256.1201">Coordinador autenticado</text><polygon fill="#181818" points="984.5,287.3281,994.5,291.3281,984.5,295.3281,988.5,291.3281" style="stroke:#181818;stroke-width:1.0;"/><line style="stroke:#181818;stroke-width:1.0;" x1="654.5" x2="990.5" y1="291.3281" y2="291.3281"/><text fill="#000000" font-family="sans-serif" font-size="13" lengthAdjust="spacing" textLength="261" x="661.5" y="286.4717">actualizar(id, cambios, archivo?, coordinador)</text><polygon fill="#181818" points="1144.5,317.6797,1154.5,321.6797,1144.5,325.6797,1148.5,321.6797" style="stroke:#181818;stroke-width:1.0;"/><line style="stroke:#181818;stroke-width:1.0;" x1="996.5" x2="1150.5" y1="321.6797" y2="321.6797"/><text fill="#000000" font-family="sans-serif" font-size="13" lengthAdjust="spacing" textLength="126" x="1003.5" y="316.8232">obtenerActivoPorId(id)</text><polygon fill="#181818" points="1007.5,348.0313,997.5,352.0313,1007.5,356.0313,1003.5,352.0313" style="stroke:#181818;stroke-width:1.0;"/><line style="stroke:#181818;stroke-width:1.0;stroke-dasharray:2.0,2.0;" x1="1001.5" x2="1155.5" y1="352.0313" y2="352.0313"/><text fill="#000000" font-family="sans-serif" font-size="13" lengthAdjust="spacing" textLength="103" x="1013.5" y="347.1748">Entregable / vacio</text><line style="stroke:#181818;stroke-width:1.0;" x1="996.5" x2="1038.5" y1="382.3828" y2="382.3828"/><line style="stroke:#181818;stroke-width:1.0;" x1="1038.5" x2="1038.5" y1="382.3828" y2="395.3828"/><line style="stroke:#181818;stroke-width:1.0;" x1="997.5" x2="1038.5" y1="395.3828" y2="395.3828"/><polygon fill="#181818" points="1007.5,391.3828,997.5,395.3828,1007.5,399.3828,1003.5,395.3828" style="stroke:#181818;stroke-width:1.0;"/><text fill="#000000" font-family="sans-serif" font-size="13" lengthAdjust="spacing" textLength="146" x="1003.5" y="377.5264">aplicarCambiosYValidar()</text><path d="M10,410.3828 L71,410.3828 L71,418.7344 L61,428.7344 L10,428.7344 L10,410.3828 " fill="#EEEEEE" style="stroke:#000000;stroke-width:1.5;"/><rect fill="none" height="246.6484" style="stroke:#000000;stroke-width:1.5;" width="1414" x="10" y="410.3828"/><text fill="#000000" font-family="sans-serif" font-size="13" font-weight="bold" lengthAdjust="spacing" textLength="16" x="25" y="424.8779">alt</text><text fill="#000000" font-family="sans-serif" font-size="11" font-weight="bold" lengthAdjust="spacing" textLength="211" x="86" y="423.8018">[Datos invalidos o entregable retirado]</text><polygon fill="#181818" points="665.5,447.0859,655.5,451.0859,665.5,455.0859,661.5,451.0859" style="stroke:#181818;stroke-width:1.0;"/><line style="stroke:#181818;stroke-width:1.0;stroke-dasharray:2.0,2.0;" x1="659.5" x2="995.5" y1="451.0859" y2="451.0859"/><text fill="#000000" font-family="sans-serif" font-size="13" lengthAdjust="spacing" textLength="318" x="671.5" y="446.2295">ValidacionException / RecursoNoEncontradoException</text><polygon fill="#181818" points="373.5,477.4375,363.5,481.4375,373.5,485.4375,369.5,481.4375" style="stroke:#181818;stroke-width:1.0;"/><line style="stroke:#181818;stroke-width:1.0;stroke-dasharray:2.0,2.0;" x1="367.5" x2="653.5" y1="481.4375" y2="481.4375"/><text fill="#000000" font-family="sans-serif" font-size="13" lengthAdjust="spacing" textLength="197" x="379.5" y="476.5811">400 Bad Request / 404 Not Found</text><line style="stroke:#000000;stroke-width:1.0;stroke-dasharray:2.0,2.0;" x1="10" x2="1424" y1="490.4375" y2="490.4375"/><text fill="#000000" font-family="sans-serif" font-size="11" font-weight="bold" lengthAdjust="spacing" textLength="99" x="15" y="501.8564">[Cambios validos]</text><polygon fill="#181818" points="1144.5,523.625,1154.5,527.625,1144.5,531.625,1148.5,527.625" style="stroke:#181818;stroke-width:1.0;"/><line style="stroke:#181818;stroke-width:1.0;" x1="996.5" x2="1150.5" y1="527.625" y2="527.625"/><text fill="#000000" font-family="sans-serif" font-size="13" lengthAdjust="spacing" textLength="111" x="1003.5" y="522.7686">guardar(entregable)</text><polygon fill="#181818" points="1337.5,553.9766,1347.5,557.9766,1337.5,561.9766,1341.5,557.9766" style="stroke:#181818;stroke-width:1.0;"/><line style="stroke:#181818;stroke-width:1.0;" x1="996.5" x2="1343.5" y1="557.9766" y2="557.9766"/><text fill="#000000" font-family="sans-serif" font-size="13" lengthAdjust="spacing" textLength="329" x="1003.5" y="553.1201">agregarVersionOpcional(entregable, archivo, coordinador)</text><polygon fill="#181818" points="665.5,584.3281,655.5,588.3281,665.5,592.3281,661.5,588.3281" style="stroke:#181818;stroke-width:1.0;"/><line style="stroke:#181818;stroke-width:1.0;stroke-dasharray:2.0,2.0;" x1="659.5" x2="995.5" y1="588.3281" y2="588.3281"/><text fill="#000000" font-family="sans-serif" font-size="13" lengthAdjust="spacing" textLength="160" x="671.5" y="583.4717">EntregableDetalleResponse</text><polygon fill="#181818" points="373.5,614.6797,363.5,618.6797,373.5,622.6797,369.5,618.6797" style="stroke:#181818;stroke-width:1.0;"/><line style="stroke:#181818;stroke-width:1.0;stroke-dasharray:2.0,2.0;" x1="367.5" x2="653.5" y1="618.6797" y2="618.6797"/><text fill="#000000" font-family="sans-serif" font-size="13" lengthAdjust="spacing" textLength="44" x="379.5" y="613.8232">200 OK</text><polygon fill="#181818" points="73.5,645.0313,63.5,649.0313,73.5,653.0313,69.5,649.0313" style="stroke:#181818;stroke-width:1.0;"/><line style="stroke:#181818;stroke-width:1.0;stroke-dasharray:2.0,2.0;" x1="67.5" x2="361.5" y1="649.0313" y2="649.0313"/><text fill="#000000" font-family="sans-serif" font-size="13" lengthAdjust="spacing" textLength="276" x="79.5" y="644.1748">Presenta ENTREGABLE_ABIERTO actualizado</text><!--SRC=[TLF1Jjj04BtxAqQS4XKKL77AeLKIJ8lQ0WeKgH9IDUnEmwXcnvtTHD2AV- -iJMm7mMszyzxRDs_6YLD5SCouKhn7y0IHt9g2OuG3A3qdLA2Gb5PuMr61Bed2GaGz1_IYHOsQs76D8S5UIoWx_8de_KqOBSbuupt022Sg8L7mBtWTOs5bbQeYDTvbhHnMC1TvPizgtYLUKcG9bwGRTjH0sfktv7UHpVajw99gYMpjFZRe_BaBdQcxuusym0rkYs8G51nyw9gVmZVn_8kT9Ov98Zp2QetgiTWYCjgQdSB5x6hn6IPOywGVGvpyO_zq4tgptsiJCij_rXGJl0DiNNoqenFvpLIOMXPjuva2FV2ATU1lXEjqPq-OgMI8ST4YuM3hPDYBOLkebrwuINCADkerLlmNTSH-7npUtxB4_SxIVdQqLShFDBmiaJERWjoQDkdC9KDVY9vwqnaNkTYOwHxgkuS9RD2n3CLwFtLbHdNH-lXnRTwyUHiNM2KuRkBdiCctTfB1ieDIOiqj0dJ2spHQ6Nipb0-EwXoPkLZQpwDHpgGCBY-oaRkogJHHxUp1qU4XpD73Td8Jkpc2Cqbm8clxIwYA1C_MuTdaqCusj7PzTDIx7-_21cjfaQmoIAz9yuZFwzm6LWDoDwqNmtebY7uAnvImolzDh2L4UhNVzzRl-HShzOjkzS5gsSOhHNE2K9vTBSjFi_dNykTiVbekhyxxtRAX6Fa_]--></g></svg>