<?xml version="1.0" encoding="us-ascii" standalone="no"?><svg xmlns="http://www.w3.org/2000/svg" xmlns:xlink="http://www.w3.org/1999/xlink" contentStyleType="text/css" height="2259px" preserveAspectRatio="none" style="width:2254px;height:2259px;background:#FFFFFF;" version="1.1" viewBox="0 0 2254 2259" width="2254px" zoomAndPan="magnify"><defs/><g><text fill="#000000" font-family="sans-serif" font-size="14" font-weight="bold" lengthAdjust="spacing" textLength="308" x="974" y="29.5332">Diagrama de secuencia - Editar recompensa</text><rect fill="#FFFFFF" height="2013.8984" style="stroke:#181818;stroke-width:1.0;" width="10" x="329.5" y="153.5703"/><rect fill="#FFFFFF" height="323.8672" style="stroke:#181818;stroke-width:1.0;" width="10" x="577.5" y="200.2734"/><rect fill="#FFFFFF" height="601.0313" style="stroke:#181818;stroke-width:1.0;" width="10" x="577.5" y="1132.1953"/><rect fill="#FFFFFF" height="55.7031" style="stroke:#181818;stroke-width:1.0;" width="10" x="923.5" y="230.625"/><rect fill="#FFFFFF" height="177.1094" style="stroke:#181818;stroke-width:1.0;" width="10" x="1057.5" y="316.6797"/><rect fill="#FFFFFF" height="479.625" style="stroke:#181818;stroke-width:1.0;" width="10" x="1057.5" y="1223.25"/><rect fill="none" height="1914.8438" style="stroke:#000000;stroke-width:1.5;" width="2237" x="10" y="245.625"/><rect fill="none" height="1593.4922" style="stroke:#000000;stroke-width:1.5;" width="2217" x="20" y="453.0859"/><rect fill="none" height="1071.3281" style="stroke:#000000;stroke-width:1.5;" width="2197" x="30" y="968.25"/><rect fill="none" height="370.4063" style="stroke:#000000;stroke-width:1.5;" width="2177" x="40" y="1662.1719"/><line style="stroke:#181818;stroke-width:0.5;stroke-dasharray:5.0,5.0;" x1="92" x2="92" y1="121.2188" y2="2177.4688"/><line style="stroke:#181818;stroke-width:0.5;stroke-dasharray:5.0,5.0;" x1="334" x2="334" y1="121.2188" y2="2177.4688"/><line style="stroke:#181818;stroke-width:0.5;stroke-dasharray:5.0,5.0;" x1="582" x2="582" y1="121.2188" y2="2177.4688"/><line style="stroke:#181818;stroke-width:0.5;stroke-dasharray:5.0,5.0;" x1="928.5" x2="928.5" y1="121.2188" y2="2177.4688"/><line style="stroke:#181818;stroke-width:0.5;stroke-dasharray:5.0,5.0;" x1="1062.5" x2="1062.5" y1="121.2188" y2="2177.4688"/><line style="stroke:#181818;stroke-width:0.5;stroke-dasharray:5.0,5.0;" x1="1298" x2="1298" y1="121.2188" y2="2177.4688"/><line style="stroke:#181818;stroke-width:0.5;stroke-dasharray:5.0,5.0;" x1="1460" x2="1460" y1="121.2188" y2="2177.4688"/><line style="stroke:#181818;stroke-width:0.5;stroke-dasharray:5.0,5.0;" x1="1618" x2="1618" y1="121.2188" y2="2177.4688"/><line style="stroke:#181818;stroke-width:0.5;stroke-dasharray:5.0,5.0;" x1="2157" x2="2157" y1="121.2188" y2="2177.4688"/><text fill="#000000" font-family="sans-serif" font-size="14" lengthAdjust="spacing" textLength="79" x="50" y="118.1426">Coordinador</text><ellipse cx="92.5" cy="52.1094" fill="#E2E2F0" rx="8" ry="8" style="stroke:#181818;stroke-width:0.5;"/><path d="M92.5,60.1094 L92.5,87.1094 M79.5,68.1094 L105.5,68.1094 M92.5,87.1094 L79.5,102.1094 M92.5,87.1094 L105.5,102.1094 " fill="none" style="stroke:#181818;stroke-width:0.5;"/><text fill="#000000" font-family="sans-serif" font-size="14" lengthAdjust="spacing" textLength="79" x="50" y="2191.002">Coordinador</text><ellipse cx="92.5" cy="2202.5781" fill="#E2E2F0" rx="8" ry="8" style="stroke:#181818;stroke-width:0.5;"/><path d="M92.5,2210.5781 L92.5,2237.5781 M79.5,2218.5781 L105.5,2218.5781 M92.5,2237.5781 L79.5,2252.5781 M92.5,2237.5781 L105.5,2252.5781 " fill="none" style="stroke:#181818;stroke-width:0.5;"/><rect fill="#E2E2F0" height="49.2188" rx="2.5" ry="2.5" style="stroke:#181818;stroke-width:0.5;" width="167" x="251" y="71"/><text fill="#000000" font-family="sans-serif" font-size="14" lengthAdjust="spacing" textLength="153" x="258" y="92.5332">EditarRecompensaForm</text><text fill="#000000" font-family="sans-serif" font-size="14" lengthAdjust="spacing" textLength="47" x="311" y="110.1426">(React)</text><rect fill="#E2E2F0" height="49.2188" rx="2.5" ry="2.5" style="stroke:#181818;stroke-width:0.5;" width="167" x="251" y="2176.4688"/><text fill="#000000" font-family="sans-serif" font-size="14" lengthAdjust="spacing" textLength="153" x="258" y="2198.002">EditarRecompensaForm</text><text fill="#000000" font-family="sans-serif" font-size="14" lengthAdjust="spacing" textLength="47" x="311" y="2215.6113">(React)</text><rect fill="#E2E2F0" height="49.2188" rx="2.5" ry="2.5" style="stroke:#181818;stroke-width:0.5;" width="159" x="503" y="71"/><text fill="#000000" font-family="sans-serif" font-size="14" lengthAdjust="spacing" textLength="145" x="510" y="92.5332">RecompensaController</text><text fill="#000000" font-family="sans-serif" font-size="14" lengthAdjust="spacing" textLength="84" x="540.5" y="110.1426">(Spring Boot)</text><rect fill="#E2E2F0" height="49.2188" rx="2.5" ry="2.5" style="stroke:#181818;stroke-width:0.5;" width="159" x="503" y="2176.4688"/><text fill="#000000" font-family="sans-serif" font-size="14" lengthAdjust="spacing" textLength="145" x="510" y="2198.002">RecompensaController</text><text fill="#000000" font-family="sans-serif" font-size="14" lengthAdjust="spacing" textLength="84" x="540.5" y="2215.6113">(Spring Boot)</text><rect fill="#E2E2F0" height="31.6094" rx="2.5" ry="2.5" style="stroke:#181818;stroke-width:0.5;" width="104" x="876.5" y="88.6094"/><text fill="#000000" font-family="sans-serif" font-size="14" lengthAdjust="spacing" textLength="90" x="883.5" y="110.1426">SesionService</text><rect fill="#E2E2F0" height="31.6094" rx="2.5" ry="2.5" style="stroke:#181818;stroke-width:0.5;" width="104" x="876.5" y="2176.4688"/><text fill="#000000" font-family="sans-serif" font-size="14" lengthAdjust="spacing" textLength="90" x="883.5" y="2198.002">SesionService</text><rect fill="#E2E2F0" height="31.6094" rx="2.5" ry="2.5" style="stroke:#181818;stroke-width:0.5;" width="144" x="990.5" y="88.6094"/><text fill="#000000" font-family="sans-serif" font-size="14" lengthAdjust="spacing" textLength="130" x="997.5" y="110.1426">RecompensaService</text><rect fill="#E2E2F0" height="31.6094" rx="2.5" ry="2.5" style="stroke:#181818;stroke-width:0.5;" width="144" x="990.5" y="2176.4688"/><text fill="#000000" font-family="sans-serif" font-size="14" lengthAdjust="spacing" textLength="130" x="997.5" y="2198.002">RecompensaService</text><rect fill="#E2E2F0" height="31.6094" rx="2.5" ry="2.5" style="stroke:#181818;stroke-width:0.5;" width="165" x="1216" y="88.6094"/><text fill="#000000" font-family="sans-serif" font-size="14" lengthAdjust="spacing" textLength="151" x="1223" y="110.1426">RecompensaRepository</text><rect fill="#E2E2F0" height="31.6094" rx="2.5" ry="2.5" style="stroke:#181818;stroke-width:0.5;" width="165" x="1216" y="2176.4688"/><text fill="#000000" font-family="sans-serif" font-size="14" lengthAdjust="spacing" textLength="151" x="1223" y="2198.002">RecompensaRepository</text><rect fill="#E2E2F0" height="31.6094" rx="2.5" ry="2.5" style="stroke:#181818;stroke-width:0.5;" width="138" x="1391" y="88.6094"/><text fill="#000000" font-family="sans-serif" font-size="14" lengthAdjust="spacing" textLength="124" x="1398" y="110.1426">ProyectoRepository</text><rect fill="#E2E2F0" height="31.6094" rx="2.5" ry="2.5" style="stroke:#181818;stroke-width:0.5;" width="138" x="1391" y="2176.4688"/><text fill="#000000" font-family="sans-serif" font-size="14" lengthAdjust="spacing" textLength="124" x="1398" y="2198.002">ProyectoRepository</text><rect fill="#E2E2F0" height="31.6094" rx="2.5" ry="2.5" style="stroke:#181818;stroke-width:0.5;" width="159" x="1539" y="88.6094"/><text fill="#000000" font-family="sans-serif" font-size="14" lengthAdjust="spacing" textLength="145" x="1546" y="110.1426">InvestigadorRepository</text><rect fill="#E2E2F0" height="31.6094" rx="2.5" ry="2.5" style="stroke:#181818;stroke-width:0.5;" width="159" x="1539" y="2176.4688"/><text fill="#000000" font-family="sans-serif" font-size="14" lengthAdjust="spacing" textLength="145" x="1546" y="2198.002">InvestigadorRepository</text><text fill="#000000" font-family="sans-serif" font-size="14" lengthAdjust="spacing" textLength="93" x="2108" y="118.1426">Base de Datos</text><path d="M2139.5,67.6094 C2139.5,57.6094 2157.5,57.6094 2157.5,57.6094 C2157.5,57.6094 2175.5,57.6094 2175.5,67.6094 L2175.5,93.6094 C2175.5,103.6094 2157.5,103.6094 2157.5,103.6094 C2157.5,103.6094 2139.5,103.6094 2139.5,93.6094 L2139.5,67.6094 " fill="#E2E2F0" style="stroke:#181818;stroke-width:1.5;"/><path d="M2139.5,67.6094 C2139.5,77.6094 2157.5,77.6094 2157.5,77.6094 C2157.5,77.6094 2175.5,77.6094 2175.5,67.6094 " fill="none" style="stroke:#181818;stroke-width:1.5;"/><text fill="#000000" font-family="sans-serif" font-size="14" lengthAdjust="spacing" textLength="93" x="2108" y="2191.002">Base de Datos</text><path d="M2139.5,2204.0781 C2139.5,2194.0781 2157.5,2194.0781 2157.5,2194.0781 C2157.5,2194.0781 2175.5,2194.0781 2175.5,2204.0781 L2175.5,2230.0781 C2175.5,2240.0781 2157.5,2240.0781 2157.5,2240.0781 C2157.5,2240.0781 2139.5,2240.0781 2139.5,2230.0781 L2139.5,2204.0781 " fill="#E2E2F0" style="stroke:#181818;stroke-width:1.5;"/><path d="M2139.5,2204.0781 C2139.5,2214.0781 2157.5,2214.0781 2157.5,2214.0781 C2157.5,2214.0781 2175.5,2214.0781 2175.5,2204.0781 " fill="none" style="stroke:#181818;stroke-width:1.5;"/><rect fill="#FFFFFF" height="2013.8984" style="stroke:#181818;stroke-width:1.0;" width="10" x="329.5" y="153.5703"/><rect fill="#FFFFFF" height="323.8672" style="stroke:#181818;stroke-width:1.0;" width="10" x="577.5" y="200.2734"/><rect fill="#FFFFFF" height="601.0313" style="stroke:#181818;stroke-width:1.0;" width="10" x="577.5" y="1132.1953"/><rect fill="#FFFFFF" height="55.7031" style="stroke:#181818;stroke-width:1.0;" width="10" x="923.5" y="230.625"/><rect fill="#FFFFFF" height="177.1094" style="stroke:#181818;stroke-width:1.0;" width="10" x="1057.5" y="316.6797"/><rect fill="#FFFFFF" height="479.625" style="stroke:#181818;stroke-width:1.0;" width="10" x="1057.5" y="1223.25"/><polygon fill="#181818" points="317.5,149.5703,327.5,153.5703,317.5,157.5703,321.5,153.5703" style="stroke:#181818;stroke-width:1.0;"/><line style="stroke:#181818;stroke-width:1.0;" x1="92.5" x2="323.5" y1="153.5703" y2="153.5703"/><text fill="#000000" font-family="sans-serif" font-size="13" lengthAdjust="spacing" textLength="154" x="99.5" y="148.7139">Solicita editar recompensa</text><polygon fill="#181818" points="565.5,196.2734,575.5,200.2734,565.5,204.2734,569.5,200.2734" style="stroke:#181818;stroke-width:1.0;"/><line style="stroke:#181818;stroke-width:1.0;" x1="339.5" x2="571.5" y1="200.2734" y2="200.2734"/><text fill="#000000" font-family="sans-serif" font-size="13" lengthAdjust="spacing" textLength="200" x="346.5" y="179.0654">GET /api/recompensas/{id}/edicion</text><text fill="#000000" font-family="sans-serif" font-size="13" lengthAdjust="spacing" textLength="100" x="346.5" y="195.417">Cookie de sesion</text><polygon fill="#181818" points="911.5,226.625,921.5,230.625,911.5,234.625,915.5,230.625" style="stroke:#181818;stroke-width:1.0;"/><line style="stroke:#181818;stroke-width:1.0;" x1="587.5" x2="917.5" y1="230.625" y2="230.625"/><text fill="#000000" font-family="sans-serif" font-size="13" lengthAdjust="spacing" textLength="189" x="594.5" y="225.7686">exigirCoordinador(authentication)</text><path d="M10,245.625 L71,245.625 L71,253.9766 L61,263.9766 L10,263.9766 L10,245.625 " fill="#EEEEEE" style="stroke:#000000;stroke-width:1.5;"/><rect fill="none" height="1914.8438" style="stroke:#000000;stroke-width:1.5;" width="2237" x="10" y="245.625"/><text fill="#000000" font-family="sans-serif" font-size="13" font-weight="bold" lengthAdjust="spacing" textLength="16" x="25" y="260.1201">alt</text><text fill="#000000" font-family="sans-serif" font-size="11" font-weight="bold" lengthAdjust="spacing" textLength="169" x="86" y="259.0439">[Sesion de Coordinador activa]</text><polygon fill="#181818" points="598.5,282.3281,588.5,286.3281,598.5,290.3281,594.5,286.3281" style="stroke:#181818;stroke-width:1.0;"/><line style="stroke:#181818;stroke-width:1.0;stroke-dasharray:2.0,2.0;" x1="592.5" x2="927.5" y1="286.3281" y2="286.3281"/><text fill="#000000" font-family="sans-serif" font-size="13" lengthAdjust="spacing" textLength="140" x="604.5" y="281.4717">Coordinador autenticado</text><polygon fill="#181818" points="1045.5,312.6797,1055.5,316.6797,1045.5,320.6797,1049.5,316.6797" style="stroke:#181818;stroke-width:1.0;"/><line style="stroke:#181818;stroke-width:1.0;" x1="587.5" x2="1051.5" y1="316.6797" y2="316.6797"/><text fill="#000000" font-family="sans-serif" font-size="13" lengthAdjust="spacing" textLength="108" x="594.5" y="311.8232">prepararEdicion(id)</text><polygon fill="#181818" points="1286.5,343.0313,1296.5,347.0313,1286.5,351.0313,1290.5,347.0313" style="stroke:#181818;stroke-width:1.0;"/><line style="stroke:#181818;stroke-width:1.0;" x1="1067.5" x2="1292.5" y1="347.0313" y2="347.0313"/><text fill="#000000" font-family="sans-serif" font-size="13" lengthAdjust="spacing" textLength="91" x="1074.5" y="342.1748">obtenerPorId(id)</text><polygon fill="#181818" points="2145.5,373.3828,2155.5,377.3828,2145.5,381.3828,2149.5,377.3828" style="stroke:#181818;stroke-width:1.0;"/><line style="stroke:#181818;stroke-width:1.0;" x1="1298.5" x2="2151.5" y1="377.3828" y2="377.3828"/><text fill="#000000" font-family="sans-serif" font-size="13" lengthAdjust="spacing" textLength="273" x="1305.5" y="372.5264">SELECT * FROM recompensas WHERE id = ?</text><polygon fill="#181818" points="1309.5,403.7344,1299.5,407.7344,1309.5,411.7344,1305.5,407.7344" style="stroke:#181818;stroke-width:1.0;"/><line style="stroke:#181818;stroke-width:1.0;stroke-dasharray:2.0,2.0;" x1="1303.5" x2="2156.5" y1="407.7344" y2="407.7344"/><text fill="#000000" font-family="sans-serif" font-size="13" lengthAdjust="spacing" textLength="150" x="1315.5" y="402.8779">Resultado de persistencia</text><polygon fill="#181818" points="1078.5,434.0859,1068.5,438.0859,1078.5,442.0859,1074.5,438.0859" style="stroke:#181818;stroke-width:1.0;"/><line style="stroke:#181818;stroke-width:1.0;stroke-dasharray:2.0,2.0;" x1="1072.5" x2="1297.5" y1="438.0859" y2="438.0859"/><text fill="#000000" font-family="sans-serif" font-size="13" lengthAdjust="spacing" textLength="117" x="1084.5" y="433.2295">Recompensa / vacio</text><path d="M20,453.0859 L81,453.0859 L81,461.4375 L71,471.4375 L20,471.4375 L20,453.0859 " fill="#EEEEEE" style="stroke:#000000;stroke-width:1.5;"/><rect fill="none" height="1593.4922" style="stroke:#000000;stroke-width:1.5;" width="2217" x="20" y="453.0859"/><text fill="#000000" font-family="sans-serif" font-size="13" font-weight="bold" lengthAdjust="spacing" textLength="16" x="35" y="467.5811">alt</text><text fill="#000000" font-family="sans-serif" font-size="11" font-weight="bold" lengthAdjust="spacing" textLength="145" x="96" y="466.5049">[Recompensa inexistente]</text><polygon fill="#181818" points="598.5,489.7891,588.5,493.7891,598.5,497.7891,594.5,493.7891" style="stroke:#181818;stroke-width:1.0;"/><line style="stroke:#181818;stroke-width:1.0;stroke-dasharray:2.0,2.0;" x1="592.5" x2="1061.5" y1="493.7891" y2="493.7891"/><text fill="#000000" font-family="sans-serif" font-size="13" lengthAdjust="spacing" textLength="188" x="604.5" y="488.9326">RecursoNoEncontradoException</text><polygon fill="#181818" points="350.5,520.1406,340.5,524.1406,350.5,528.1406,346.5,524.1406" style="stroke:#181818;stroke-width:1.0;"/><line style="stroke:#181818;stroke-width:1.0;stroke-dasharray:2.0,2.0;" x1="344.5" x2="581.5" y1="524.1406" y2="524.1406"/><text fill="#000000" font-family="sans-serif" font-size="13" lengthAdjust="spacing" textLength="85" x="356.5" y="519.2842">404 Not Found</text><polygon fill="#181818" points="103.5,550.4922,93.5,554.4922,103.5,558.4922,99.5,554.4922" style="stroke:#181818;stroke-width:1.0;"/><line style="stroke:#181818;stroke-width:1.0;stroke-dasharray:2.0,2.0;" x1="97.5" x2="328.5" y1="554.4922" y2="554.4922"/><text fill="#000000" font-family="sans-serif" font-size="13" lengthAdjust="spacing" textLength="213" x="109.5" y="549.6357">Presenta recompensa no encontrada</text><line style="stroke:#000000;stroke-width:1.0;stroke-dasharray:2.0,2.0;" x1="20" x2="2237" y1="563.4922" y2="563.4922"/><text fill="#000000" font-family="sans-serif" font-size="11" font-weight="bold" lengthAdjust="spacing" textLength="135" x="25" y="574.9111">[Recompensa existente]</text><polygon fill="#181818" points="1448,596.6797,1458,600.6797,1448,604.6797,1452,600.6797" style="stroke:#181818;stroke-width:1.0;"/><line style="stroke:#181818;stroke-width:1.0;" x1="1062.5" x2="1454" y1="600.6797" y2="600.6797"/><text fill="#000000" font-family="sans-serif" font-size="13" lengthAdjust="spacing" textLength="255" x="1069.5" y="595.8232">obtenerCompletado(recompensa.proyectoId)</text><polygon fill="#181818" points="2145.5,627.0313,2155.5,631.0313,2145.5,635.0313,2149.5,631.0313" style="stroke:#181818;stroke-width:1.0;"/><line style="stroke:#181818;stroke-width:1.0;" x1="1460" x2="2151.5" y1="631.0313" y2="631.0313"/><text fill="#000000" font-family="sans-serif" font-size="13" lengthAdjust="spacing" textLength="436" x="1467" y="626.1748">SELECT * FROM proyectos WHERE id = ? AND estado = 'COMPLETADO'</text><polygon fill="#181818" points="1471,657.3828,1461,661.3828,1471,665.3828,1467,661.3828" style="stroke:#181818;stroke-width:1.0;"/><line style="stroke:#181818;stroke-width:1.0;stroke-dasharray:2.0,2.0;" x1="1465" x2="2156.5" y1="661.3828" y2="661.3828"/><text fill="#000000" font-family="sans-serif" font-size="13" lengthAdjust="spacing" textLength="150" x="1477" y="656.5264">Resultado de persistencia</text><polygon fill="#181818" points="1073.5,687.7344,1063.5,691.7344,1073.5,695.7344,1069.5,691.7344" style="stroke:#181818;stroke-width:1.0;"/><line style="stroke:#181818;stroke-width:1.0;stroke-dasharray:2.0,2.0;" x1="1067.5" x2="1459" y1="691.7344" y2="691.7344"/><text fill="#000000" font-family="sans-serif" font-size="13" lengthAdjust="spacing" textLength="123" x="1079.5" y="686.8779">Proyecto completado</text><polygon fill="#181818" points="1606.5,718.0859,1616.5,722.0859,1606.5,726.0859,1610.5,722.0859" style="stroke:#181818;stroke-width:1.0;"/><line style="stroke:#181818;stroke-width:1.0;" x1="1062.5" x2="1612.5" y1="722.0859" y2="722.0859"/><text fill="#000000" font-family="sans-serif" font-size="13" lengthAdjust="spacing" textLength="311" x="1069.5" y="717.2295">obtenerElegiblesPorProyecto(recompensa.proyectoId)</text><polygon fill="#181818" points="2145.5,781.1406,2155.5,785.1406,2145.5,789.1406,2149.5,785.1406" style="stroke:#181818;stroke-width:1.0;"/><line style="stroke:#181818;stroke-width:1.0;" x1="1618.5" x2="2151.5" y1="785.1406" y2="785.1406"/><text fill="#000000" font-family="sans-serif" font-size="13" lengthAdjust="spacing" textLength="176" x="1625.5" y="747.5811">SELECT u.* FROM usuarios u</text><text fill="#000000" font-family="sans-serif" font-size="13" lengthAdjust="spacing" textLength="322" x="1625.5" y="763.9326">JOIN proyecto_investigadores pi ON pi.usuario_id = u.id</text><text fill="#000000" font-family="sans-serif" font-size="13" lengthAdjust="spacing" textLength="274" x="1625.5" y="780.2842">WHERE pi.proyecto_id = ? AND u.activo = true</text><polygon fill="#181818" points="1629.5,811.4922,1619.5,815.4922,1629.5,819.4922,1625.5,815.4922" style="stroke:#181818;stroke-width:1.0;"/><line style="stroke:#181818;stroke-width:1.0;stroke-dasharray:2.0,2.0;" x1="1623.5" x2="2156.5" y1="815.4922" y2="815.4922"/><text fill="#000000" font-family="sans-serif" font-size="13" lengthAdjust="spacing" textLength="150" x="1635.5" y="810.6357">Resultado de persistencia</text><polygon fill="#181818" points="1073.5,841.8438,1063.5,845.8438,1073.5,849.8438,1069.5,845.8438" style="stroke:#181818;stroke-width:1.0;"/><line style="stroke:#181818;stroke-width:1.0;stroke-dasharray:2.0,2.0;" x1="1067.5" x2="1617.5" y1="845.8438" y2="845.8438"/><text fill="#000000" font-family="sans-serif" font-size="13" lengthAdjust="spacing" textLength="250" x="1079.5" y="840.9873">Beneficiarios elegibles con tipos permitidos</text><polygon fill="#181818" points="593.5,872.1953,583.5,876.1953,593.5,880.1953,589.5,876.1953" style="stroke:#181818;stroke-width:1.0;"/><line style="stroke:#181818;stroke-width:1.0;stroke-dasharray:2.0,2.0;" x1="587.5" x2="1061.5" y1="876.1953" y2="876.1953"/><text fill="#000000" font-family="sans-serif" font-size="13" lengthAdjust="spacing" textLength="333" x="599.5" y="871.3389">RecompensaEdicionResponse con beneficiarios elegibles</text><polygon fill="#181818" points="350.5,918.8984,340.5,922.8984,350.5,926.8984,346.5,922.8984" style="stroke:#181818;stroke-width:1.0;"/><line style="stroke:#181818;stroke-width:1.0;stroke-dasharray:2.0,2.0;" x1="344.5" x2="581.5" y1="922.8984" y2="922.8984"/><text fill="#000000" font-family="sans-serif" font-size="13" lengthAdjust="spacing" textLength="44" x="356.5" y="901.6904">200 OK</text><text fill="#000000" font-family="sans-serif" font-size="13" lengthAdjust="spacing" textLength="141" x="356.5" y="918.042">Datos y tipos permitidos</text><polygon fill="#181818" points="103.5,949.25,93.5,953.25,103.5,957.25,99.5,953.25" style="stroke:#181818;stroke-width:1.0;"/><line style="stroke:#181818;stroke-width:1.0;stroke-dasharray:2.0,2.0;" x1="97.5" x2="328.5" y1="953.25" y2="953.25"/><text fill="#000000" font-family="sans-serif" font-size="13" lengthAdjust="spacing" textLength="180" x="109.5" y="948.3936">Presenta formulario precargado</text><path d="M30,968.25 L91,968.25 L91,976.6016 L81,986.6016 L30,986.6016 L30,968.25 " fill="#EEEEEE" style="stroke:#000000;stroke-width:1.5;"/><rect fill="none" height="1071.3281" style="stroke:#000000;stroke-width:1.5;" width="2197" x="30" y="968.25"/><text fill="#000000" font-family="sans-serif" font-size="13" font-weight="bold" lengthAdjust="spacing" textLength="16" x="45" y="982.7451">alt</text><text fill="#000000" font-family="sans-serif" font-size="11" font-weight="bold" lengthAdjust="spacing" textLength="121" x="106" y="981.6689">[Coordinador cancela]</text><polygon fill="#181818" points="317.5,1004.9531,327.5,1008.9531,317.5,1012.9531,321.5,1008.9531" style="stroke:#181818;stroke-width:1.0;"/><line style="stroke:#181818;stroke-width:1.0;" x1="92.5" x2="323.5" y1="1008.9531" y2="1008.9531"/><text fill="#000000" font-family="sans-serif" font-size="13" lengthAdjust="spacing" textLength="92" x="99.5" y="1004.0967">Cancela edicion</text><polygon fill="#181818" points="103.5,1035.3047,93.5,1039.3047,103.5,1043.3047,99.5,1039.3047" style="stroke:#181818;stroke-width:1.0;"/><line style="stroke:#181818;stroke-width:1.0;stroke-dasharray:2.0,2.0;" x1="97.5" x2="328.5" y1="1039.3047" y2="1039.3047"/><text fill="#000000" font-family="sans-serif" font-size="13" lengthAdjust="spacing" textLength="212" x="109.5" y="1034.4482">Conserva RECOMPENSA_ABIERTA</text><line style="stroke:#000000;stroke-width:1.0;stroke-dasharray:2.0,2.0;" x1="30" x2="2227" y1="1048.3047" y2="1048.3047"/><text fill="#000000" font-family="sans-serif" font-size="11" font-weight="bold" lengthAdjust="spacing" textLength="168" x="35" y="1059.7236">[Coordinador guarda cambios]</text><polygon fill="#181818" points="317.5,1081.4922,327.5,1085.4922,317.5,1089.4922,321.5,1085.4922" style="stroke:#181818;stroke-width:1.0;"/><line style="stroke:#181818;stroke-width:1.0;" x1="92.5" x2="323.5" y1="1085.4922" y2="1085.4922"/><text fill="#000000" font-family="sans-serif" font-size="13" lengthAdjust="spacing" textLength="138" x="99.5" y="1080.6357">Modifica datos y guarda</text><polygon fill="#181818" points="565.5,1128.1953,575.5,1132.1953,565.5,1136.1953,569.5,1132.1953" style="stroke:#181818;stroke-width:1.0;"/><line style="stroke:#181818;stroke-width:1.0;" x1="339.5" x2="571.5" y1="1132.1953" y2="1132.1953"/><text fill="#000000" font-family="sans-serif" font-size="13" lengthAdjust="spacing" textLength="172" x="346.5" y="1110.9873">PATCH /api/recompensas/{id}</text><text fill="#000000" font-family="sans-serif" font-size="13" lengthAdjust="spacing" textLength="219" x="346.5" y="1127.3389">RecompensaUpdateRequest + cookie</text><polygon fill="#181818" points="916.5,1158.5469,926.5,1162.5469,916.5,1166.5469,920.5,1162.5469" style="stroke:#181818;stroke-width:1.0;"/><line style="stroke:#181818;stroke-width:1.0;" x1="587.5" x2="922.5" y1="1162.5469" y2="1162.5469"/><text fill="#000000" font-family="sans-serif" font-size="13" lengthAdjust="spacing" textLength="189" x="594.5" y="1157.6904">exigirCoordinador(authentication)</text><polygon fill="#181818" points="598.5,1188.8984,588.5,1192.8984,598.5,1196.8984,594.5,1192.8984" style="stroke:#181818;stroke-width:1.0;"/><line style="stroke:#181818;stroke-width:1.0;stroke-dasharray:2.0,2.0;" x1="592.5" x2="927.5" y1="1192.8984" y2="1192.8984"/><text fill="#000000" font-family="sans-serif" font-size="13" lengthAdjust="spacing" textLength="140" x="604.5" y="1188.042">Coordinador autenticado</text><polygon fill="#181818" points="1045.5,1219.25,1055.5,1223.25,1045.5,1227.25,1049.5,1223.25" style="stroke:#181818;stroke-width:1.0;"/><line style="stroke:#181818;stroke-width:1.0;" x1="587.5" x2="1051.5" y1="1223.25" y2="1223.25"/><text fill="#000000" font-family="sans-serif" font-size="13" lengthAdjust="spacing" textLength="114" x="594.5" y="1218.3936">actualizar(id, datos)</text><polygon fill="#181818" points="1286.5,1249.6016,1296.5,1253.6016,1286.5,1257.6016,1290.5,1253.6016" style="stroke:#181818;stroke-width:1.0;"/><line style="stroke:#181818;stroke-width:1.0;" x1="1067.5" x2="1292.5" y1="1253.6016" y2="1253.6016"/><text fill="#000000" font-family="sans-serif" font-size="13" lengthAdjust="spacing" textLength="91" x="1074.5" y="1248.7451">obtenerPorId(id)</text><polygon fill="#181818" points="2145.5,1279.9531,2155.5,1283.9531,2145.5,1287.9531,2149.5,1283.9531" style="stroke:#181818;stroke-width:1.0;"/><line style="stroke:#181818;stroke-width:1.0;" x1="1298.5" x2="2151.5" y1="1283.9531" y2="1283.9531"/><text fill="#000000" font-family="sans-serif" font-size="13" lengthAdjust="spacing" textLength="273" x="1305.5" y="1279.0967">SELECT * FROM recompensas WHERE id = ?</text><polygon fill="#181818" points="1309.5,1310.3047,1299.5,1314.3047,1309.5,1318.3047,1305.5,1314.3047" style="stroke:#181818;stroke-width:1.0;"/><line style="stroke:#181818;stroke-width:1.0;stroke-dasharray:2.0,2.0;" x1="1303.5" x2="2156.5" y1="1314.3047" y2="1314.3047"/><text fill="#000000" font-family="sans-serif" font-size="13" lengthAdjust="spacing" textLength="150" x="1315.5" y="1309.4482">Resultado de persistencia</text><polygon fill="#181818" points="1078.5,1340.6563,1068.5,1344.6563,1078.5,1348.6563,1074.5,1344.6563" style="stroke:#181818;stroke-width:1.0;"/><line style="stroke:#181818;stroke-width:1.0;stroke-dasharray:2.0,2.0;" x1="1072.5" x2="1297.5" y1="1344.6563" y2="1344.6563"/><text fill="#000000" font-family="sans-serif" font-size="13" lengthAdjust="spacing" textLength="133" x="1084.5" y="1339.7998">Recompensa existente</text><polygon fill="#181818" points="1448,1371.0078,1458,1375.0078,1448,1379.0078,1452,1375.0078" style="stroke:#181818;stroke-width:1.0;"/><line style="stroke:#181818;stroke-width:1.0;" x1="1067.5" x2="1454" y1="1375.0078" y2="1375.0078"/><text fill="#000000" font-family="sans-serif" font-size="13" lengthAdjust="spacing" textLength="255" x="1074.5" y="1370.1514">obtenerCompletado(recompensa.proyectoId)</text><polygon fill="#181818" points="2145.5,1401.3594,2155.5,1405.3594,2145.5,1409.3594,2149.5,1405.3594" style="stroke:#181818;stroke-width:1.0;"/><line style="stroke:#181818;stroke-width:1.0;" x1="1460" x2="2151.5" y1="1405.3594" y2="1405.3594"/><text fill="#000000" font-family="sans-serif" font-size="13" lengthAdjust="spacing" textLength="436" x="1467" y="1400.5029">SELECT * FROM proyectos WHERE id = ? AND estado = 'COMPLETADO'</text><polygon fill="#181818" points="1471,1431.7109,1461,1435.7109,1471,1439.7109,1467,1435.7109" style="stroke:#181818;stroke-width:1.0;"/><line style="stroke:#181818;stroke-width:1.0;stroke-dasharray:2.0,2.0;" x1="1465" x2="2156.5" y1="1435.7109" y2="1435.7109"/><text fill="#000000" font-family="sans-serif" font-size="13" lengthAdjust="spacing" textLength="150" x="1477" y="1430.8545">Resultado de persistencia</text><polygon fill="#181818" points="1078.5,1462.0625,1068.5,1466.0625,1078.5,1470.0625,1074.5,1466.0625" style="stroke:#181818;stroke-width:1.0;"/><line style="stroke:#181818;stroke-width:1.0;stroke-dasharray:2.0,2.0;" x1="1072.5" x2="1459" y1="1466.0625" y2="1466.0625"/><text fill="#000000" font-family="sans-serif" font-size="13" lengthAdjust="spacing" textLength="123" x="1084.5" y="1461.2061">Proyecto completado</text><polygon fill="#181818" points="1606.5,1492.4141,1616.5,1496.4141,1606.5,1500.4141,1610.5,1496.4141" style="stroke:#181818;stroke-width:1.0;"/><line style="stroke:#181818;stroke-width:1.0;" x1="1067.5" x2="1612.5" y1="1496.4141" y2="1496.4141"/><text fill="#000000" font-family="sans-serif" font-size="13" lengthAdjust="spacing" textLength="354" x="1074.5" y="1491.5576">obtenerElegible(recompensa.proyectoId, datos.investigadorId)</text><polygon fill="#181818" points="2145.5,1522.7656,2155.5,1526.7656,2145.5,1530.7656,2149.5,1526.7656" style="stroke:#181818;stroke-width:1.0;"/><line style="stroke:#181818;stroke-width:1.0;" x1="1618.5" x2="2151.5" y1="1526.7656" y2="1526.7656"/><text fill="#000000" font-family="sans-serif" font-size="13" lengthAdjust="spacing" textLength="515" x="1625.5" y="1521.9092">SELECT * FROM usuarios WHERE id = ? AND rol = 'INVESTIGADOR' AND activo = true</text><polygon fill="#181818" points="1629.5,1553.1172,1619.5,1557.1172,1629.5,1561.1172,1625.5,1557.1172" style="stroke:#181818;stroke-width:1.0;"/><line style="stroke:#181818;stroke-width:1.0;stroke-dasharray:2.0,2.0;" x1="1623.5" x2="2156.5" y1="1557.1172" y2="1557.1172"/><text fill="#000000" font-family="sans-serif" font-size="13" lengthAdjust="spacing" textLength="150" x="1635.5" y="1552.2607">Resultado de persistencia</text><polygon fill="#181818" points="1078.5,1583.4688,1068.5,1587.4688,1078.5,1591.4688,1074.5,1587.4688" style="stroke:#181818;stroke-width:1.0;"/><line style="stroke:#181818;stroke-width:1.0;stroke-dasharray:2.0,2.0;" x1="1072.5" x2="1617.5" y1="1587.4688" y2="1587.4688"/><text fill="#000000" font-family="sans-serif" font-size="13" lengthAdjust="spacing" textLength="194" x="1084.5" y="1582.6123">Beneficiario con sede y condicion</text><line style="stroke:#181818;stroke-width:1.0;" x1="1067.5" x2="1109.5" y1="1634.1719" y2="1634.1719"/><line style="stroke:#181818;stroke-width:1.0;" x1="1109.5" x2="1109.5" y1="1634.1719" y2="1647.1719"/><line style="stroke:#181818;stroke-width:1.0;" x1="1068.5" x2="1109.5" y1="1647.1719" y2="1647.1719"/><polygon fill="#181818" points="1078.5,1643.1719,1068.5,1647.1719,1078.5,1651.1719,1074.5,1647.1719" style="stroke:#181818;stroke-width:1.0;"/><text fill="#000000" font-family="sans-serif" font-size="13" lengthAdjust="spacing" textLength="212" x="1074.5" y="1612.9639">validarTipoYValor(datos, beneficiario)</text><text fill="#000000" font-family="sans-serif" font-size="13" lengthAdjust="spacing" textLength="178" x="1074.5" y="1629.3154">Reduccion: 4, 8, 12 o 16 horas</text><path d="M40,1662.1719 L101,1662.1719 L101,1670.5234 L91,1680.5234 L40,1680.5234 L40,1662.1719 " fill="#EEEEEE" style="stroke:#000000;stroke-width:1.5;"/><rect fill="none" height="370.4063" style="stroke:#000000;stroke-width:1.5;" width="2177" x="40" y="1662.1719"/><text fill="#000000" font-family="sans-serif" font-size="13" font-weight="bold" lengthAdjust="spacing" textLength="16" x="55" y="1676.667">alt</text><text fill="#000000" font-family="sans-serif" font-size="11" font-weight="bold" lengthAdjust="spacing" textLength="95" x="116" y="1675.5908">[Cambio invalido]</text><polygon fill="#181818" points="598.5,1698.875,588.5,1702.875,598.5,1706.875,594.5,1702.875" style="stroke:#181818;stroke-width:1.0;"/><line style="stroke:#181818;stroke-width:1.0;stroke-dasharray:2.0,2.0;" x1="592.5" x2="1061.5" y1="1702.875" y2="1702.875"/><text fill="#000000" font-family="sans-serif" font-size="13" lengthAdjust="spacing" textLength="118" x="604.5" y="1698.0186">ValidacionException</text><polygon fill="#181818" points="350.5,1729.2266,340.5,1733.2266,350.5,1737.2266,346.5,1733.2266" style="stroke:#181818;stroke-width:1.0;"/><line style="stroke:#181818;stroke-width:1.0;stroke-dasharray:2.0,2.0;" x1="344.5" x2="581.5" y1="1733.2266" y2="1733.2266"/><text fill="#000000" font-family="sans-serif" font-size="13" lengthAdjust="spacing" textLength="100" x="356.5" y="1728.3701">400 Bad Request</text><polygon fill="#181818" points="103.5,1759.5781,93.5,1763.5781,103.5,1767.5781,99.5,1763.5781" style="stroke:#181818;stroke-width:1.0;"/><line style="stroke:#181818;stroke-width:1.0;stroke-dasharray:2.0,2.0;" x1="97.5" x2="328.5" y1="1763.5781" y2="1763.5781"/><text fill="#000000" font-family="sans-serif" font-size="13" lengthAdjust="spacing" textLength="208" x="109.5" y="1758.7217">Presenta error y conserva formulario</text><line style="stroke:#000000;stroke-width:1.0;stroke-dasharray:2.0,2.0;" x1="40" x2="2217" y1="1772.5781" y2="1772.5781"/><text fill="#000000" font-family="sans-serif" font-size="11" font-weight="bold" lengthAdjust="spacing" textLength="85" x="45" y="1783.9971">[Cambio valido]</text><polygon fill="#181818" points="1286.5,1805.7656,1296.5,1809.7656,1286.5,1813.7656,1290.5,1809.7656" style="stroke:#181818;stroke-width:1.0;"/><line style="stroke:#181818;stroke-width:1.0;" x1="1062.5" x2="1292.5" y1="1809.7656" y2="1809.7656"/><text fill="#000000" font-family="sans-serif" font-size="13" lengthAdjust="spacing" textLength="190" x="1069.5" y="1804.9092">guardar(recompensaActualizada)</text><polygon fill="#181818" points="2145.5,1852.4688,2155.5,1856.4688,2145.5,1860.4688,2149.5,1856.4688" style="stroke:#181818;stroke-width:1.0;"/><line style="stroke:#181818;stroke-width:1.0;" x1="1298.5" x2="2151.5" y1="1856.4688" y2="1856.4688"/><text fill="#000000" font-family="sans-serif" font-size="13" lengthAdjust="spacing" textLength="443" x="1305.5" y="1835.2607">UPDATE recompensas SET tipo = ?, concepto = ?, importe_economico = ?,</text><text fill="#000000" font-family="sans-serif" font-size="13" lengthAdjust="spacing" textLength="367" x="1305.5" y="1851.6123">horas_reduccion_docente = ? WHERE id = ? AND activa = true</text><polygon fill="#181818" points="1309.5,1882.8203,1299.5,1886.8203,1309.5,1890.8203,1305.5,1886.8203" style="stroke:#181818;stroke-width:1.0;"/><line style="stroke:#181818;stroke-width:1.0;stroke-dasharray:2.0,2.0;" x1="1303.5" x2="2156.5" y1="1886.8203" y2="1886.8203"/><text fill="#000000" font-family="sans-serif" font-size="13" lengthAdjust="spacing" textLength="150" x="1315.5" y="1881.9639">Resultado de persistencia</text><polygon fill="#181818" points="1073.5,1913.1719,1063.5,1917.1719,1073.5,1921.1719,1069.5,1917.1719" style="stroke:#181818;stroke-width:1.0;"/><line style="stroke:#181818;stroke-width:1.0;stroke-dasharray:2.0,2.0;" x1="1067.5" x2="1297.5" y1="1917.1719" y2="1917.1719"/><text fill="#000000" font-family="sans-serif" font-size="13" lengthAdjust="spacing" textLength="146" x="1079.5" y="1912.3154">Recompensa actualizada</text><polygon fill="#181818" points="593.5,1943.5234,583.5,1947.5234,593.5,1951.5234,589.5,1947.5234" style="stroke:#181818;stroke-width:1.0;"/><line style="stroke:#181818;stroke-width:1.0;stroke-dasharray:2.0,2.0;" x1="587.5" x2="1061.5" y1="1947.5234" y2="1947.5234"/><text fill="#000000" font-family="sans-serif" font-size="13" lengthAdjust="spacing" textLength="174" x="599.5" y="1942.667">RecompensaDetalleResponse</text><polygon fill="#181818" points="350.5,1990.2266,340.5,1994.2266,350.5,1998.2266,346.5,1994.2266" style="stroke:#181818;stroke-width:1.0;"/><line style="stroke:#181818;stroke-width:1.0;stroke-dasharray:2.0,2.0;" x1="344.5" x2="581.5" y1="1994.2266" y2="1994.2266"/><text fill="#000000" font-family="sans-serif" font-size="13" lengthAdjust="spacing" textLength="44" x="356.5" y="1973.0186">200 OK</text><text fill="#000000" font-family="sans-serif" font-size="13" lengthAdjust="spacing" textLength="146" x="356.5" y="1989.3701">Recompensa actualizada</text><polygon fill="#181818" points="103.5,2020.5781,93.5,2024.5781,103.5,2028.5781,99.5,2024.5781" style="stroke:#181818;stroke-width:1.0;"/><line style="stroke:#181818;stroke-width:1.0;stroke-dasharray:2.0,2.0;" x1="97.5" x2="328.5" y1="2024.5781" y2="2024.5781"/><text fill="#000000" font-family="sans-serif" font-size="13" lengthAdjust="spacing" textLength="211" x="109.5" y="2019.7217">Presenta RECOMPENSA_ABIERTA</text><line style="stroke:#000000;stroke-width:1.0;stroke-dasharray:2.0,2.0;" x1="10" x2="2247" y1="2054.5781" y2="2054.5781"/><text fill="#000000" font-family="sans-serif" font-size="11" font-weight="bold" lengthAdjust="spacing" textLength="167" x="15" y="2065.9971">[Sesion ausente o rol invalido]</text><polygon fill="#181818" points="593.5,2087.7656,583.5,2091.7656,593.5,2095.7656,589.5,2091.7656" style="stroke:#181818;stroke-width:1.0;"/><line style="stroke:#181818;stroke-width:1.0;stroke-dasharray:2.0,2.0;" x1="587.5" x2="927.5" y1="2091.7656" y2="2091.7656"/><text fill="#000000" font-family="sans-serif" font-size="13" lengthAdjust="spacing" textLength="322" x="599.5" y="2086.9092">SesionNoValidaException / AccesoDenegadoException</text><polygon fill="#181818" points="350.5,2118.1172,340.5,2122.1172,350.5,2126.1172,346.5,2122.1172" style="stroke:#181818;stroke-width:1.0;"/><line style="stroke:#181818;stroke-width:1.0;stroke-dasharray:2.0,2.0;" x1="344.5" x2="581.5" y1="2122.1172" y2="2122.1172"/><text fill="#000000" font-family="sans-serif" font-size="13" lengthAdjust="spacing" textLength="195" x="356.5" y="2117.2607">401 Unauthorized / 403 Forbidden</text><polygon fill="#181818" points="103.5,2148.4688,93.5,2152.4688,103.5,2156.4688,99.5,2152.4688" style="stroke:#181818;stroke-width:1.0;"/><line style="stroke:#181818;stroke-width:1.0;stroke-dasharray:2.0,2.0;" x1="97.5" x2="328.5" y1="2152.4688" y2="2152.4688"/><text fill="#000000" font-family="sans-serif" font-size="13" lengthAdjust="spacing" textLength="146" x="109.5" y="2147.6123">Presenta error de acceso</text><!--SRC=[jLTjRzis4FxkNt78boHRugHTC0m6si4lIkkjiGFRoJ30W46Bh4jC9ZMACfeE- -yxadgXPFabIIUWZIpT7O_FFNSFfRcE60muMIco9a0P92nCcGWvWKi8ADT4WMAXNCTC9AJL8g6M2lfIAie5eLArOg8q3tbCX8OJvp4f76wbMi_5sOIXt_a9a0HkbHIQ2LhrAptw-5h9A68A_QQnuc85FIapxsxCguvJbd0ffanjUCYiYNkoAtpLqjxlCfsmM2OSj_jahStFgkczaayCyQWP-e-h3aEnOOdcAuDRpQd-gaM99akIC3ZfcV-nCWEYPMAD1xrMooi1NBulOEt0L4Que2R0jgg7HU0RebbPXFp6X41iE_0XcC4LYVbLwPPS_SFflrSOBaHWvm9N_eipnnKBTH7ML0V_cM2k2XrWN_cAAo_PCvBgBqmWA4IZnNdfdHMEH3gxDKlustIMBS0hCxZCqwwOfTh5fzBQKbPVmZmjyhGSw42i6DQAgC1jyupJSsld-JgskENjlGbWYjK1kSGrcRgNQaWBL_FAc0nwM9NWKz2VmGzmEndVUJL9u8-FmIG0Jk4T_6hT1ZsxBnTumf8qqhWL0qRCLC8JRTlJMy7VHabVk88DmQsuNI2etYiki2uca7RxgUmfnnJjKvN8aGn4Q9eIamY-XYpMEOHRu9O05GXNg7bpVGCZgU5MfiYzXX26GFdZafeOmwjl1nkC9PWwyM048O7bQJfiM8Hju-rvpuxVLtgsg6OVNIDcm3yhLsh7cUamgxAvVFVcYkTUrNf3TpG0x7jJttTmsX_VtNyAPjt1-BG8dR6Xck1-Lcndv3CaVmDXiRqcHEe3gK0bYDYABoEM8DdpM8VmgGUhOPIsCvJI92MA8qZfNFms7euAs1RSYy0IG6gDyIrlPnuBYsVQvdGk7C3uhdGkmKxRbcm6RgrILeTvUzU7eTxUd0zt3p7xZ2F5xOlbu27w0ZH73J11rrnpAfEzlPZXcyqdJ2kM0XbkuYoRrtXPaxwzleRnxtDXvGQUTYVvyhxzZAU2D3BPch4R4cMmQnKHpB3o1tf8HCYY4d1pxPI_lZE6JAugJhjJwniirOR0931D68octKMtDmmcisuHmGuKVzqLKeyIJ6-zv1ukUzExavHZgV2ebS7hWkn8Cwl-VNVM_zWiotDHKkCXng1imlvEaO_m8rB327KbT6F5Ad9uh6pxpizHuwq5ipx1p58IyMz4eNvUE7ZEctElS_XuHSwl5ofpRLWSEo0EAlMsD7rVUVgV9UeLClLogNgkN3LZb16jxSjB7Ra3ubMNhYtmy6l683SSFGRJsV03GZSvjI-QbUYLQlGyHRBoaJ0CzcHk6sQcXt4HOOEDIecQeJBy-KWYd0uMnOkA49sRqKJJCBG3vUO2Vhc0Dsz1mfkVuOjKf3emxSotWnGFfpP-jTIDglXeyp0BR1zCZz2-VGVLQ-WH2jaitHUqFaYFb42c50v72xeJdb8JA-6Sw3XW3i6IJoGdASfZV3SVhfIKtFQv_70_wCw2olIRufUWqNx3umkJfq4u-yNNiLIQBT1So3KFtUEvi7LTgBpi2of3CzPiAsprXOEmYVuldB47vomfOJXChj9lW9CdYbX-vFe-5CkFMKUczth6xJdPMA9vNsJvlVbh2PW9F4aJMqvfPrgbJ-j70FTx95sB5ks97wNTC6I97E2aM6rzKUxvLA_rvnju4EP88XN_nYY6lRd-2RyhrP9JohQ2vP0TtPX8CsBpR1aCl4XvXFy0]--></g></svg>