<svg xmlns="http://www.w3.org/2000/svg" xmlns:xlink="http://www.w3.org/1999/xlink" contentStyleType="text/css" height="2259px" preserveAspectRatio="none" style="width:2218px;height:2259px;background:#FFFFFF;" version="1.1" viewBox="0 0 2218 2259" width="2218px" zoomAndPan="magnify"><title>Diagrama de secuencia - Editar recompensa</title><defs/><g><text fill="#000000" font-family="sans-serif" font-size="14" font-weight="bold" lengthAdjust="spacing" textLength="294.123" x="963.0972" y="29.5332">Diagrama de secuencia - Editar recompensa</text><rect fill="#FFFFFF" height="2013.8984" style="stroke:#181818;stroke-width:1;" width="10" x="330.0874" y="153.5703"/><rect fill="#FFFFFF" height="323.8672" style="stroke:#181818;stroke-width:1;" width="10" x="578.418" y="200.2734"/><rect fill="#FFFFFF" height="601.0313" style="stroke:#181818;stroke-width:1;" width="10" x="578.418" y="1132.1953"/><rect fill="#FFFFFF" height="55.7031" style="stroke:#181818;stroke-width:1;" width="10" x="922.5684" y="230.625"/><rect fill="#FFFFFF" height="177.1094" style="stroke:#181818;stroke-width:1;" width="10" x="1055.8989" y="316.6797"/><rect fill="#FFFFFF" height="479.625" style="stroke:#181818;stroke-width:1;" width="10" x="1055.8989" y="1223.25"/><rect fill="none" height="1914.8438" style="stroke:#000000;stroke-width:1.5;" width="2201.3174" x="10" y="245.625"/><rect fill="none" height="1593.4922" style="stroke:#000000;stroke-width:1.5;" width="2181.3174" x="20" y="453.0859"/><rect fill="none" height="1071.3281" style="stroke:#000000;stroke-width:1.5;" width="2161.3174" x="30" y="968.25"/><rect fill="none" height="370.4063" style="stroke:#000000;stroke-width:1.5;" width="2141.3174" x="40" y="1662.1719"/><line style="stroke:#181818;stroke-width:0.5;stroke-dasharray:5.0,5.0;" x1="91" x2="91" y1="121.2188" y2="2177.4688"/><line style="stroke:#181818;stroke-width:0.5;stroke-dasharray:5.0,5.0;" x1="334.2256" x2="334.2256" y1="121.2188" y2="2177.4688"/><line style="stroke:#181818;stroke-width:0.5;stroke-dasharray:5.0,5.0;" x1="582.8286" x2="582.8286" y1="121.2188" y2="2177.4688"/><line style="stroke:#181818;stroke-width:0.5;stroke-dasharray:5.0,5.0;" x1="926.8237" x2="926.8237" y1="121.2188" y2="2177.4688"/><line style="stroke:#181818;stroke-width:0.5;stroke-dasharray:5.0,5.0;" x1="1060.313" x2="1060.313" y1="121.2188" y2="2177.4688"/><line style="stroke:#181818;stroke-width:0.5;stroke-dasharray:5.0,5.0;" x1="1280.6201" x2="1280.6201" y1="121.2188" y2="2177.4688"/><line style="stroke:#181818;stroke-width:0.5;stroke-dasharray:5.0,5.0;" x1="1441.0264" x2="1441.0264" y1="121.2188" y2="2177.4688"/><line style="stroke:#181818;stroke-width:0.5;stroke-dasharray:5.0,5.0;" x1="1583.1914" x2="1583.1914" y1="121.2188" y2="2177.4688"/><line style="stroke:#181818;stroke-width:0.5;stroke-dasharray:5.0,5.0;" x1="2121.4834" x2="2121.4834" y1="121.2188" y2="2177.4688"/><text fill="#000000" font-family="sans-serif" font-size="14" lengthAdjust="spacing" textLength="77.0479" x="50" y="118.1426">Coordinador</text><ellipse cx="91.5239" cy="52.1094" fill="#E2E2F0" rx="8" ry="8" style="stroke:#181818;stroke-width:0.5;"/><path d="M91.5239,60.1094 L91.5239,87.1094 M78.5239,68.1094 L104.5239,68.1094 M91.5239,87.1094 L78.5239,102.1094 M91.5239,87.1094 L104.5239,102.1094 " fill="none" style="stroke:#181818;stroke-width:0.5;"/><text fill="#000000" font-family="sans-serif" font-size="14" lengthAdjust="spacing" textLength="77.0479" x="50" y="2191.002">Coordinador</text><ellipse cx="91.5239" cy="2202.5781" fill="#E2E2F0" rx="8" ry="8" style="stroke:#181818;stroke-width:0.5;"/><path d="M91.5239,2210.5781 L91.5239,2237.5781 M78.5239,2218.5781 L104.5239,2218.5781 M91.5239,2237.5781 L78.5239,2252.5781 M91.5239,2237.5781 L104.5239,2252.5781 " fill="none" style="stroke:#181818;stroke-width:0.5;"/><rect fill="#E2E2F0" height="49.2188" rx="2.5" ry="2.5" style="stroke:#181818;stroke-width:0.5;" width="165.7236" x="252.2256" y="71"/><text fill="#000000" font-family="sans-serif" font-size="14" lengthAdjust="spacing" textLength="151.7236" x="259.2256" y="92.5332">EditarRecompensaForm</text><text fill="#000000" font-family="sans-serif" font-size="14" lengthAdjust="spacing" textLength="45.8965" x="312.1392" y="110.1426">(React)</text><rect fill="#E2E2F0" height="49.2188" rx="2.5" ry="2.5" style="stroke:#181818;stroke-width:0.5;" width="165.7236" x="252.2256" y="2176.4688"/><text fill="#000000" font-family="sans-serif" font-size="14" lengthAdjust="spacing" textLength="151.7236" x="259.2256" y="2198.002">EditarRecompensaForm</text><text fill="#000000" font-family="sans-serif" font-size="14" lengthAdjust="spacing" textLength="45.8965" x="312.1392" y="2215.6113">(React)</text><rect fill="#E2E2F0" height="49.2188" rx="2.5" ry="2.5" style="stroke:#181818;stroke-width:0.5;" width="157.1787" x="504.8286" y="71"/><text fill="#000000" font-family="sans-serif" font-size="14" lengthAdjust="spacing" textLength="143.1787" x="511.8286" y="92.5332">RecompensaController</text><text fill="#000000" font-family="sans-serif" font-size="14" lengthAdjust="spacing" textLength="82.4824" x="542.1768" y="110.1426">(Spring Boot)</text><rect fill="#E2E2F0" height="49.2188" rx="2.5" ry="2.5" style="stroke:#181818;stroke-width:0.5;" width="157.1787" x="504.8286" y="2176.4688"/><text fill="#000000" font-family="sans-serif" font-size="14" lengthAdjust="spacing" textLength="143.1787" x="511.8286" y="2198.002">RecompensaController</text><text fill="#000000" font-family="sans-serif" font-size="14" lengthAdjust="spacing" textLength="82.4824" x="542.1768" y="2215.6113">(Spring Boot)</text><rect fill="#E2E2F0" height="31.6094" rx="2.5" ry="2.5" style="stroke:#181818;stroke-width:0.5;" width="103.4893" x="875.8237" y="88.6094"/><text fill="#000000" font-family="sans-serif" font-size="14" lengthAdjust="spacing" textLength="89.4893" x="882.8237" y="110.1426">SesionService</text><rect fill="#E2E2F0" height="31.6094" rx="2.5" ry="2.5" style="stroke:#181818;stroke-width:0.5;" width="103.4893" x="875.8237" y="2176.4688"/><text fill="#000000" font-family="sans-serif" font-size="14" lengthAdjust="spacing" textLength="89.4893" x="882.8237" y="2198.002">SesionService</text><rect fill="#E2E2F0" height="31.6094" rx="2.5" ry="2.5" style="stroke:#181818;stroke-width:0.5;" width="143.1719" x="989.313" y="88.6094"/><text fill="#000000" font-family="sans-serif" font-size="14" lengthAdjust="spacing" textLength="129.1719" x="996.313" y="110.1426">RecompensaService</text><rect fill="#E2E2F0" height="31.6094" rx="2.5" ry="2.5" style="stroke:#181818;stroke-width:0.5;" width="143.1719" x="989.313" y="2176.4688"/><text fill="#000000" font-family="sans-serif" font-size="14" lengthAdjust="spacing" textLength="129.1719" x="996.313" y="2198.002">RecompensaService</text><rect fill="#E2E2F0" height="31.6094" rx="2.5" ry="2.5" style="stroke:#181818;stroke-width:0.5;" width="163.4063" x="1199.6201" y="88.6094"/><text fill="#000000" font-family="sans-serif" font-size="14" lengthAdjust="spacing" textLength="149.4063" x="1206.6201" y="110.1426">RecompensaRepository</text><rect fill="#E2E2F0" height="31.6094" rx="2.5" ry="2.5" style="stroke:#181818;stroke-width:0.5;" width="163.4063" x="1199.6201" y="2176.4688"/><text fill="#000000" font-family="sans-serif" font-size="14" lengthAdjust="spacing" textLength="149.4063" x="1206.6201" y="2198.002">RecompensaRepository</text><rect fill="#E2E2F0" height="31.6094" rx="2.5" ry="2.5" style="stroke:#181818;stroke-width:0.5;" width="136.165" x="1373.0264" y="88.6094"/><text fill="#000000" font-family="sans-serif" font-size="14" lengthAdjust="spacing" textLength="122.165" x="1380.0264" y="110.1426">ProyectoRepository</text><rect fill="#E2E2F0" height="31.6094" rx="2.5" ry="2.5" style="stroke:#181818;stroke-width:0.5;" width="136.165" x="1373.0264" y="2176.4688"/><text fill="#000000" font-family="sans-serif" font-size="14" lengthAdjust="spacing" textLength="122.165" x="1380.0264" y="2198.002">ProyectoRepository</text><rect fill="#E2E2F0" height="31.6094" rx="2.5" ry="2.5" style="stroke:#181818;stroke-width:0.5;" width="129.1582" x="1519.1914" y="88.6094"/><text fill="#000000" font-family="sans-serif" font-size="14" lengthAdjust="spacing" textLength="115.1582" x="1526.1914" y="110.1426">UsuarioRepository</text><rect fill="#E2E2F0" height="31.6094" rx="2.5" ry="2.5" style="stroke:#181818;stroke-width:0.5;" width="129.1582" x="1519.1914" y="2176.4688"/><text fill="#000000" font-family="sans-serif" font-size="14" lengthAdjust="spacing" textLength="115.1582" x="1526.1914" y="2198.002">UsuarioRepository</text><text fill="#000000" font-family="sans-serif" font-size="14" lengthAdjust="spacing" textLength="91.834" x="2073.4834" y="118.1426">Base de Datos</text><path d="M2104.4004,67.6094 C2104.4004,57.6094 2122.4004,57.6094 2122.4004,57.6094 C2122.4004,57.6094 2140.4004,57.6094 2140.4004,67.6094 L2140.4004,93.6094 C2140.4004,103.6094 2122.4004,103.6094 2122.4004,103.6094 C2122.4004,103.6094 2104.4004,103.6094 2104.4004,93.6094 L2104.4004,67.6094 " fill="#E2E2F0" style="stroke:#181818;stroke-width:1.5;"/><path d="M2104.4004,67.6094 C2104.4004,77.6094 2122.4004,77.6094 2122.4004,77.6094 C2122.4004,77.6094 2140.4004,77.6094 2140.4004,67.6094 " fill="none" style="stroke:#181818;stroke-width:1.5;"/><text fill="#000000" font-family="sans-serif" font-size="14" lengthAdjust="spacing" textLength="91.834" x="2073.4834" y="2191.002">Base de Datos</text><path d="M2104.4004,2204.0781 C2104.4004,2194.0781 2122.4004,2194.0781 2122.4004,2194.0781 C2122.4004,2194.0781 2140.4004,2194.0781 2140.4004,2204.0781 L2140.4004,2230.0781 C2140.4004,2240.0781 2122.4004,2240.0781 2122.4004,2240.0781 C2122.4004,2240.0781 2104.4004,2240.0781 2104.4004,2230.0781 L2104.4004,2204.0781 " fill="#E2E2F0" style="stroke:#181818;stroke-width:1.5;"/><path d="M2104.4004,2204.0781 C2104.4004,2214.0781 2122.4004,2214.0781 2122.4004,2214.0781 C2122.4004,2214.0781 2140.4004,2214.0781 2140.4004,2204.0781 " fill="none" style="stroke:#181818;stroke-width:1.5;"/><rect fill="#FFFFFF" height="2013.8984" style="stroke:#181818;stroke-width:1;" width="10" x="330.0874" y="153.5703"/><rect fill="#FFFFFF" height="323.8672" style="stroke:#181818;stroke-width:1;" width="10" x="578.418" y="200.2734"/><rect fill="#FFFFFF" height="601.0313" style="stroke:#181818;stroke-width:1;" width="10" x="578.418" y="1132.1953"/><rect fill="#FFFFFF" height="55.7031" style="stroke:#181818;stroke-width:1;" width="10" x="922.5684" y="230.625"/><rect fill="#FFFFFF" height="177.1094" style="stroke:#181818;stroke-width:1;" width="10" x="1055.8989" y="316.6797"/><rect fill="#FFFFFF" height="479.625" style="stroke:#181818;stroke-width:1;" width="10" x="1055.8989" y="1223.25"/><polygon fill="#181818" points="318.0874,149.5703,328.0874,153.5703,318.0874,157.5703,322.0874,153.5703" style="stroke:#181818;stroke-width:1;"/><line style="stroke:#181818;stroke-width:1;" x1="91.5239" x2="324.0874" y1="153.5703" y2="153.5703"/><text fill="#000000" font-family="sans-serif" font-size="13" lengthAdjust="spacing" textLength="153.188" x="98.5239" y="148.7139">Solicita editar recompensa</text><polygon fill="#181818" points="566.418,196.2734,576.418,200.2734,566.418,204.2734,570.418,200.2734" style="stroke:#181818;stroke-width:1;"/><line style="stroke:#181818;stroke-width:1;" x1="340.0874" x2="572.418" y1="200.2734" y2="200.2734"/><text fill="#000000" font-family="sans-serif" font-size="13" lengthAdjust="spacing" textLength="200.167" x="347.0874" y="179.0654">GET /api/recompensas/{id}/edicion</text><text fill="#000000" font-family="sans-serif" font-size="13" lengthAdjust="spacing" textLength="99.728" x="347.0874" y="195.417">Cookie de sesion</text><polygon fill="#181818" points="910.5684,226.625,920.5684,230.625,910.5684,234.625,914.5684,230.625" style="stroke:#181818;stroke-width:1;"/><line style="stroke:#181818;stroke-width:1;" x1="588.418" x2="916.5684" y1="230.625" y2="230.625"/><text fill="#000000" font-family="sans-serif" font-size="13" lengthAdjust="spacing" textLength="209.5806" x="595.418" y="225.7686">obtenerSesionActual(authentication)</text><path d="M10,245.625 L70.1709,245.625 L70.1709,253.9766 L60.1709,263.9766 L10,263.9766 L10,245.625 " fill="#EEEEEE" style="stroke:#000000;stroke-width:1.5;"/><rect fill="none" height="1914.8438" style="stroke:#000000;stroke-width:1.5;" width="2201.3174" x="10" y="245.625"/><text fill="#000000" font-family="sans-serif" font-size="13" font-weight="bold" lengthAdjust="spacing" textLength="15.1709" x="25" y="260.1201">alt</text><text fill="#000000" font-family="sans-serif" font-size="11" font-weight="bold" lengthAdjust="spacing" textLength="162.583" x="85.1709" y="259.0439">[Sesion de Coordinador activa]</text><polygon fill="#181818" points="599.418,282.3281,589.418,286.3281,599.418,290.3281,595.418,286.3281" style="stroke:#181818;stroke-width:1;"/><line style="stroke:#181818;stroke-width:1;stroke-dasharray:2.0,2.0;" x1="593.418" x2="926.5684" y1="286.3281" y2="286.3281"/><text fill="#000000" font-family="sans-serif" font-size="13" lengthAdjust="spacing" textLength="142.3779" x="605.418" y="281.4717">Coordinador autenticado</text><polygon fill="#181818" points="1043.8989,312.6797,1053.8989,316.6797,1043.8989,320.6797,1047.8989,316.6797" style="stroke:#181818;stroke-width:1;"/><line style="stroke:#181818;stroke-width:1;" x1="588.418" x2="1049.8989" y1="316.6797" y2="316.6797"/><text fill="#000000" font-family="sans-serif" font-size="13" lengthAdjust="spacing" textLength="110.5508" x="595.418" y="311.8232">prepararEdicion(id)</text><polygon fill="#181818" points="1269.3232,343.0313,1279.3232,347.0313,1269.3232,351.0313,1273.3232,347.0313" style="stroke:#181818;stroke-width:1;"/><line style="stroke:#181818;stroke-width:1;" x1="1065.8989" x2="1275.3232" y1="347.0313" y2="347.0313"/><text fill="#000000" font-family="sans-serif" font-size="13" lengthAdjust="spacing" textLength="65.749" x="1072.8989" y="342.1748">findById(id)</text><polygon fill="#181818" points="2110.4004,373.3828,2120.4004,377.3828,2110.4004,381.3828,2114.4004,377.3828" style="stroke:#181818;stroke-width:1;"/><line style="stroke:#181818;stroke-width:1;" x1="1281.3232" x2="2116.4004" y1="377.3828" y2="377.3828"/><text fill="#000000" font-family="sans-serif" font-size="13" lengthAdjust="spacing" textLength="270.5498" x="1288.3232" y="372.5264">SELECT * FROM recompensas WHERE id = ?</text><polygon fill="#181818" points="1292.3232,403.7344,1282.3232,407.7344,1292.3232,411.7344,1288.3232,407.7344" style="stroke:#181818;stroke-width:1;"/><line style="stroke:#181818;stroke-width:1;stroke-dasharray:2.0,2.0;" x1="1286.3232" x2="2121.4004" y1="407.7344" y2="407.7344"/><text fill="#000000" font-family="sans-serif" font-size="13" lengthAdjust="spacing" textLength="149.5889" x="1298.3232" y="402.8779">Resultado de persistencia</text><polygon fill="#181818" points="1076.8989,434.0859,1066.8989,438.0859,1076.8989,442.0859,1072.8989,438.0859" style="stroke:#181818;stroke-width:1;"/><line style="stroke:#181818;stroke-width:1;stroke-dasharray:2.0,2.0;" x1="1070.8989" x2="1280.3232" y1="438.0859" y2="438.0859"/><text fill="#000000" font-family="sans-serif" font-size="13" lengthAdjust="spacing" textLength="117.7808" x="1082.8989" y="433.2295">Recompensa / vacio</text><path d="M20,453.0859 L80.1709,453.0859 L80.1709,461.4375 L70.1709,471.4375 L20,471.4375 L20,453.0859 " fill="#EEEEEE" style="stroke:#000000;stroke-width:1.5;"/><rect fill="none" height="1593.4922" style="stroke:#000000;stroke-width:1.5;" width="2181.3174" x="20" y="453.0859"/><text fill="#000000" font-family="sans-serif" font-size="13" font-weight="bold" lengthAdjust="spacing" textLength="15.1709" x="35" y="467.5811">alt</text><text fill="#000000" font-family="sans-serif" font-size="11" font-weight="bold" lengthAdjust="spacing" textLength="136.3184" x="95.1709" y="466.5049">[Recompensa inexistente]</text><polygon fill="#181818" points="599.418,489.7891,589.418,493.7891,599.418,497.7891,595.418,493.7891" style="stroke:#181818;stroke-width:1;"/><line style="stroke:#181818;stroke-width:1;stroke-dasharray:2.0,2.0;" x1="593.418" x2="1059.8989" y1="493.7891" y2="493.7891"/><text fill="#000000" font-family="sans-serif" font-size="13" lengthAdjust="spacing" textLength="188.6079" x="605.418" y="488.9326">RecursoNoEncontradoException</text><polygon fill="#181818" points="351.0874,520.1406,341.0874,524.1406,351.0874,528.1406,347.0874,524.1406" style="stroke:#181818;stroke-width:1;"/><line style="stroke:#181818;stroke-width:1;stroke-dasharray:2.0,2.0;" x1="345.0874" x2="582.418" y1="524.1406" y2="524.1406"/><text fill="#000000" font-family="sans-serif" font-size="13" lengthAdjust="spacing" textLength="86.0044" x="357.0874" y="519.2842">404 Not Found</text><polygon fill="#181818" points="102.5239,550.4922,92.5239,554.4922,102.5239,558.4922,98.5239,554.4922" style="stroke:#181818;stroke-width:1;"/><line style="stroke:#181818;stroke-width:1;stroke-dasharray:2.0,2.0;" x1="96.5239" x2="329.0874" y1="554.4922" y2="554.4922"/><text fill="#000000" font-family="sans-serif" font-size="13" lengthAdjust="spacing" textLength="213.916" x="108.5239" y="549.6357">Presenta recompensa no encontrada</text><line style="stroke:#000000;stroke-width:1;stroke-dasharray:2.0,2.0;" x1="20" x2="2201.3174" y1="563.4922" y2="563.4922"/><text fill="#000000" font-family="sans-serif" font-size="11" font-weight="bold" lengthAdjust="spacing" textLength="126.543" x="25" y="574.9111">[Recompensa existente]</text><polygon fill="#181818" points="1429.1089,596.6797,1439.1089,600.6797,1429.1089,604.6797,1433.1089,600.6797" style="stroke:#181818;stroke-width:1;"/><line style="stroke:#181818;stroke-width:1;" x1="1060.8989" x2="1435.1089" y1="600.6797" y2="600.6797"/><text fill="#000000" font-family="sans-serif" font-size="13" lengthAdjust="spacing" textLength="191.4834" x="1067.8989" y="595.8232">findById(recompensa.proyectoId)</text><polygon fill="#181818" points="2110.4004,627.0313,2120.4004,631.0313,2110.4004,635.0313,2114.4004,631.0313" style="stroke:#181818;stroke-width:1;"/><line style="stroke:#181818;stroke-width:1;" x1="1441.1089" x2="2116.4004" y1="631.0313" y2="631.0313"/><text fill="#000000" font-family="sans-serif" font-size="13" lengthAdjust="spacing" textLength="433.3672" x="1448.1089" y="626.1748">SELECT * FROM proyectos WHERE id = ? AND estado = 'COMPLETADO'</text><polygon fill="#181818" points="1452.1089,657.3828,1442.1089,661.3828,1452.1089,665.3828,1448.1089,661.3828" style="stroke:#181818;stroke-width:1;"/><line style="stroke:#181818;stroke-width:1;stroke-dasharray:2.0,2.0;" x1="1446.1089" x2="2121.4004" y1="661.3828" y2="661.3828"/><text fill="#000000" font-family="sans-serif" font-size="13" lengthAdjust="spacing" textLength="149.5889" x="1458.1089" y="656.5264">Resultado de persistencia</text><polygon fill="#181818" points="1071.8989,687.7344,1061.8989,691.7344,1071.8989,695.7344,1067.8989,691.7344" style="stroke:#181818;stroke-width:1;"/><line style="stroke:#181818;stroke-width:1;stroke-dasharray:2.0,2.0;" x1="1065.8989" x2="1440.1089" y1="691.7344" y2="691.7344"/><text fill="#000000" font-family="sans-serif" font-size="13" lengthAdjust="spacing" textLength="122.1226" x="1077.8989" y="686.8779">Proyecto completado</text><polygon fill="#181818" points="1571.7705,718.0859,1581.7705,722.0859,1571.7705,726.0859,1575.7705,722.0859" style="stroke:#181818;stroke-width:1;"/><line style="stroke:#181818;stroke-width:1;" x1="1060.8989" x2="1577.7705" y1="722.0859" y2="722.0859"/><text fill="#000000" font-family="sans-serif" font-size="13" lengthAdjust="spacing" textLength="457.355" x="1067.8989" y="717.2295">findByRolAndActivoTrueOrderByNombreCompletoAsc(recompensa.proyectoId)</text><polygon fill="#181818" points="2110.4004,781.1406,2120.4004,785.1406,2110.4004,789.1406,2114.4004,785.1406" style="stroke:#181818;stroke-width:1;"/><line style="stroke:#181818;stroke-width:1;" x1="1583.7705" x2="2116.4004" y1="785.1406" y2="785.1406"/><text fill="#000000" font-family="sans-serif" font-size="13" lengthAdjust="spacing" textLength="175.5571" x="1590.7705" y="747.5811">SELECT u.* FROM usuarios u</text><text fill="#000000" font-family="sans-serif" font-size="13" lengthAdjust="spacing" textLength="324.0859" x="1590.7705" y="763.9326">JOIN proyecto_investigadores pi ON pi.usuario_id = u.id</text><text fill="#000000" font-family="sans-serif" font-size="13" lengthAdjust="spacing" textLength="271.6733" x="1590.7705" y="780.2842">WHERE pi.proyecto_id = ? AND u.activo = true</text><polygon fill="#181818" points="1594.7705,811.4922,1584.7705,815.4922,1594.7705,819.4922,1590.7705,815.4922" style="stroke:#181818;stroke-width:1;"/><line style="stroke:#181818;stroke-width:1;stroke-dasharray:2.0,2.0;" x1="1588.7705" x2="2121.4004" y1="815.4922" y2="815.4922"/><text fill="#000000" font-family="sans-serif" font-size="13" lengthAdjust="spacing" textLength="149.5889" x="1600.7705" y="810.6357">Resultado de persistencia</text><polygon fill="#181818" points="1071.8989,841.8438,1061.8989,845.8438,1071.8989,849.8438,1067.8989,845.8438" style="stroke:#181818;stroke-width:1;"/><line style="stroke:#181818;stroke-width:1;stroke-dasharray:2.0,2.0;" x1="1065.8989" x2="1582.7705" y1="845.8438" y2="845.8438"/><text fill="#000000" font-family="sans-serif" font-size="13" lengthAdjust="spacing" textLength="248.5742" x="1077.8989" y="840.9873">Beneficiarios elegibles con tipos permitidos</text><polygon fill="#181818" points="594.418,872.1953,584.418,876.1953,594.418,880.1953,590.418,876.1953" style="stroke:#181818;stroke-width:1;"/><line style="stroke:#181818;stroke-width:1;stroke-dasharray:2.0,2.0;" x1="588.418" x2="1059.8989" y1="876.1953" y2="876.1953"/><text fill="#000000" font-family="sans-serif" font-size="13" lengthAdjust="spacing" textLength="333.8677" x="600.418" y="871.3389">RecompensaEdicionResponse con beneficiarios elegibles</text><polygon fill="#181818" points="351.0874,918.8984,341.0874,922.8984,351.0874,926.8984,347.0874,922.8984" style="stroke:#181818;stroke-width:1;"/><line style="stroke:#181818;stroke-width:1;stroke-dasharray:2.0,2.0;" x1="345.0874" x2="582.418" y1="922.8984" y2="922.8984"/><text fill="#000000" font-family="sans-serif" font-size="13" lengthAdjust="spacing" textLength="44.0845" x="357.0874" y="901.6904">200 OK</text><text fill="#000000" font-family="sans-serif" font-size="13" lengthAdjust="spacing" textLength="138.7217" x="357.0874" y="918.042">Datos y tipos permitidos</text><polygon fill="#181818" points="102.5239,949.25,92.5239,953.25,102.5239,957.25,98.5239,953.25" style="stroke:#181818;stroke-width:1;"/><line style="stroke:#181818;stroke-width:1;stroke-dasharray:2.0,2.0;" x1="96.5239" x2="329.0874" y1="953.25" y2="953.25"/><text fill="#000000" font-family="sans-serif" font-size="13" lengthAdjust="spacing" textLength="182.8188" x="108.5239" y="948.3936">Presenta formulario precargado</text><path d="M30,968.25 L90.1709,968.25 L90.1709,976.6016 L80.1709,986.6016 L30,986.6016 L30,968.25 " fill="#EEEEEE" style="stroke:#000000;stroke-width:1.5;"/><rect fill="none" height="1071.3281" style="stroke:#000000;stroke-width:1.5;" width="2161.3174" x="30" y="968.25"/><text fill="#000000" font-family="sans-serif" font-size="13" font-weight="bold" lengthAdjust="spacing" textLength="15.1709" x="45" y="982.7451">alt</text><text fill="#000000" font-family="sans-serif" font-size="11" font-weight="bold" lengthAdjust="spacing" textLength="116.7407" x="105.1709" y="981.6689">[Coordinador cancela]</text><polygon fill="#181818" points="318.0874,1004.9531,328.0874,1008.9531,318.0874,1012.9531,322.0874,1008.9531" style="stroke:#181818;stroke-width:1;"/><line style="stroke:#181818;stroke-width:1;" x1="91.5239" x2="324.0874" y1="1008.9531" y2="1008.9531"/><text fill="#000000" font-family="sans-serif" font-size="13" lengthAdjust="spacing" textLength="92.5044" x="98.5239" y="1004.0967">Cancela edicion</text><polygon fill="#181818" points="102.5239,1035.3047,92.5239,1039.3047,102.5239,1043.3047,98.5239,1039.3047" style="stroke:#181818;stroke-width:1;"/><line style="stroke:#181818;stroke-width:1;stroke-dasharray:2.0,2.0;" x1="96.5239" x2="329.0874" y1="1039.3047" y2="1039.3047"/><text fill="#000000" font-family="sans-serif" font-size="13" lengthAdjust="spacing" textLength="214.5635" x="108.5239" y="1034.4482">Conserva RECOMPENSA_ABIERTA</text><line style="stroke:#000000;stroke-width:1;stroke-dasharray:2.0,2.0;" x1="30" x2="2191.3174" y1="1048.3047" y2="1048.3047"/><text fill="#000000" font-family="sans-serif" font-size="11" font-weight="bold" lengthAdjust="spacing" textLength="160.7354" x="35" y="1059.7236">[Coordinador guarda cambios]</text><polygon fill="#181818" points="318.0874,1081.4922,328.0874,1085.4922,318.0874,1089.4922,322.0874,1085.4922" style="stroke:#181818;stroke-width:1;"/><line style="stroke:#181818;stroke-width:1;" x1="91.5239" x2="324.0874" y1="1085.4922" y2="1085.4922"/><text fill="#000000" font-family="sans-serif" font-size="13" lengthAdjust="spacing" textLength="138.0234" x="98.5239" y="1080.6357">Modifica datos y guarda</text><polygon fill="#181818" points="566.418,1128.1953,576.418,1132.1953,566.418,1136.1953,570.418,1132.1953" style="stroke:#181818;stroke-width:1;"/><line style="stroke:#181818;stroke-width:1;" x1="340.0874" x2="572.418" y1="1132.1953" y2="1132.1953"/><text fill="#000000" font-family="sans-serif" font-size="13" lengthAdjust="spacing" textLength="172.6943" x="347.0874" y="1110.9873">PATCH /api/recompensas/{id}</text><text fill="#000000" font-family="sans-serif" font-size="13" lengthAdjust="spacing" textLength="219.3306" x="347.0874" y="1127.3389">RecompensaUpdateRequest + cookie</text><polygon fill="#181818" points="915.5684,1158.5469,925.5684,1162.5469,915.5684,1166.5469,919.5684,1162.5469" style="stroke:#181818;stroke-width:1;"/><line style="stroke:#181818;stroke-width:1;" x1="588.418" x2="921.5684" y1="1162.5469" y2="1162.5469"/><text fill="#000000" font-family="sans-serif" font-size="13" lengthAdjust="spacing" textLength="209.5806" x="595.418" y="1157.6904">obtenerSesionActual(authentication)</text><polygon fill="#181818" points="599.418,1188.8984,589.418,1192.8984,599.418,1196.8984,595.418,1192.8984" style="stroke:#181818;stroke-width:1;"/><line style="stroke:#181818;stroke-width:1;stroke-dasharray:2.0,2.0;" x1="593.418" x2="926.5684" y1="1192.8984" y2="1192.8984"/><text fill="#000000" font-family="sans-serif" font-size="13" lengthAdjust="spacing" textLength="142.3779" x="605.418" y="1188.042">Coordinador autenticado</text><polygon fill="#181818" points="1043.8989,1219.25,1053.8989,1223.25,1043.8989,1227.25,1047.8989,1223.25" style="stroke:#181818;stroke-width:1;"/><line style="stroke:#181818;stroke-width:1;" x1="588.418" x2="1049.8989" y1="1223.25" y2="1223.25"/><text fill="#000000" font-family="sans-serif" font-size="13" lengthAdjust="spacing" textLength="113.439" x="595.418" y="1218.3936">actualizar(id, datos)</text><polygon fill="#181818" points="1269.3232,1249.6016,1279.3232,1253.6016,1269.3232,1257.6016,1273.3232,1253.6016" style="stroke:#181818;stroke-width:1;"/><line style="stroke:#181818;stroke-width:1;" x1="1065.8989" x2="1275.3232" y1="1253.6016" y2="1253.6016"/><text fill="#000000" font-family="sans-serif" font-size="13" lengthAdjust="spacing" textLength="65.749" x="1072.8989" y="1248.7451">findById(id)</text><polygon fill="#181818" points="2110.4004,1279.9531,2120.4004,1283.9531,2110.4004,1287.9531,2114.4004,1283.9531" style="stroke:#181818;stroke-width:1;"/><line style="stroke:#181818;stroke-width:1;" x1="1281.3232" x2="2116.4004" y1="1283.9531" y2="1283.9531"/><text fill="#000000" font-family="sans-serif" font-size="13" lengthAdjust="spacing" textLength="270.5498" x="1288.3232" y="1279.0967">SELECT * FROM recompensas WHERE id = ?</text><polygon fill="#181818" points="1292.3232,1310.3047,1282.3232,1314.3047,1292.3232,1318.3047,1288.3232,1314.3047" style="stroke:#181818;stroke-width:1;"/><line style="stroke:#181818;stroke-width:1;stroke-dasharray:2.0,2.0;" x1="1286.3232" x2="2121.4004" y1="1314.3047" y2="1314.3047"/><text fill="#000000" font-family="sans-serif" font-size="13" lengthAdjust="spacing" textLength="149.5889" x="1298.3232" y="1309.4482">Resultado de persistencia</text><polygon fill="#181818" points="1076.8989,1340.6563,1066.8989,1344.6563,1076.8989,1348.6563,1072.8989,1344.6563" style="stroke:#181818;stroke-width:1;"/><line style="stroke:#181818;stroke-width:1;stroke-dasharray:2.0,2.0;" x1="1070.8989" x2="1280.3232" y1="1344.6563" y2="1344.6563"/><text fill="#000000" font-family="sans-serif" font-size="13" lengthAdjust="spacing" textLength="132.2407" x="1082.8989" y="1339.7998">Recompensa existente</text><polygon fill="#181818" points="1429.1089,1371.0078,1439.1089,1375.0078,1429.1089,1379.0078,1433.1089,1375.0078" style="stroke:#181818;stroke-width:1;"/><line style="stroke:#181818;stroke-width:1;" x1="1065.8989" x2="1435.1089" y1="1375.0078" y2="1375.0078"/><text fill="#000000" font-family="sans-serif" font-size="13" lengthAdjust="spacing" textLength="191.4834" x="1072.8989" y="1370.1514">findById(recompensa.proyectoId)</text><polygon fill="#181818" points="2110.4004,1401.3594,2120.4004,1405.3594,2110.4004,1409.3594,2114.4004,1405.3594" style="stroke:#181818;stroke-width:1;"/><line style="stroke:#181818;stroke-width:1;" x1="1441.1089" x2="2116.4004" y1="1405.3594" y2="1405.3594"/><text fill="#000000" font-family="sans-serif" font-size="13" lengthAdjust="spacing" textLength="433.3672" x="1448.1089" y="1400.5029">SELECT * FROM proyectos WHERE id = ? AND estado = 'COMPLETADO'</text><polygon fill="#181818" points="1452.1089,1431.7109,1442.1089,1435.7109,1452.1089,1439.7109,1448.1089,1435.7109" style="stroke:#181818;stroke-width:1;"/><line style="stroke:#181818;stroke-width:1;stroke-dasharray:2.0,2.0;" x1="1446.1089" x2="2121.4004" y1="1435.7109" y2="1435.7109"/><text fill="#000000" font-family="sans-serif" font-size="13" lengthAdjust="spacing" textLength="149.5889" x="1458.1089" y="1430.8545">Resultado de persistencia</text><polygon fill="#181818" points="1076.8989,1462.0625,1066.8989,1466.0625,1076.8989,1470.0625,1072.8989,1466.0625" style="stroke:#181818;stroke-width:1;"/><line style="stroke:#181818;stroke-width:1;stroke-dasharray:2.0,2.0;" x1="1070.8989" x2="1440.1089" y1="1466.0625" y2="1466.0625"/><text fill="#000000" font-family="sans-serif" font-size="13" lengthAdjust="spacing" textLength="122.1226" x="1082.8989" y="1461.2061">Proyecto completado</text><polygon fill="#181818" points="1571.7705,1492.4141,1581.7705,1496.4141,1571.7705,1500.4141,1575.7705,1496.4141" style="stroke:#181818;stroke-width:1;"/><line style="stroke:#181818;stroke-width:1;" x1="1065.8989" x2="1577.7705" y1="1496.4141" y2="1496.4141"/><text fill="#000000" font-family="sans-serif" font-size="13" lengthAdjust="spacing" textLength="315.0596" x="1072.8989" y="1491.5576">findById(recompensa.proyectoId, datos.investigadorId)</text><polygon fill="#181818" points="2110.4004,1522.7656,2120.4004,1526.7656,2110.4004,1530.7656,2114.4004,1526.7656" style="stroke:#181818;stroke-width:1;"/><line style="stroke:#181818;stroke-width:1;" x1="1583.7705" x2="2116.4004" y1="1526.7656" y2="1526.7656"/><text fill="#000000" font-family="sans-serif" font-size="13" lengthAdjust="spacing" textLength="514.6299" x="1590.7705" y="1521.9092">SELECT * FROM usuarios WHERE id = ? AND rol = 'INVESTIGADOR' AND activo = true</text><polygon fill="#181818" points="1594.7705,1553.1172,1584.7705,1557.1172,1594.7705,1561.1172,1590.7705,1557.1172" style="stroke:#181818;stroke-width:1;"/><line style="stroke:#181818;stroke-width:1;stroke-dasharray:2.0,2.0;" x1="1588.7705" x2="2121.4004" y1="1557.1172" y2="1557.1172"/><text fill="#000000" font-family="sans-serif" font-size="13" lengthAdjust="spacing" textLength="149.5889" x="1600.7705" y="1552.2607">Resultado de persistencia</text><polygon fill="#181818" points="1076.8989,1583.4688,1066.8989,1587.4688,1076.8989,1591.4688,1072.8989,1587.4688" style="stroke:#181818;stroke-width:1;"/><line style="stroke:#181818;stroke-width:1;stroke-dasharray:2.0,2.0;" x1="1070.8989" x2="1582.7705" y1="1587.4688" y2="1587.4688"/><text fill="#000000" font-family="sans-serif" font-size="13" lengthAdjust="spacing" textLength="192.9497" x="1082.8989" y="1582.6123">Beneficiario con sede y condicion</text><line style="stroke:#181818;stroke-width:1;" x1="1065.8989" x2="1107.8989" y1="1634.1719" y2="1634.1719"/><line style="stroke:#181818;stroke-width:1;" x1="1107.8989" x2="1107.8989" y1="1634.1719" y2="1647.1719"/><line style="stroke:#181818;stroke-width:1;" x1="1066.8989" x2="1107.8989" y1="1647.1719" y2="1647.1719"/><polygon fill="#181818" points="1076.8989,1643.1719,1066.8989,1647.1719,1076.8989,1651.1719,1072.8989,1647.1719" style="stroke:#181818;stroke-width:1;"/><text fill="#000000" font-family="sans-serif" font-size="13" lengthAdjust="spacing" textLength="186.4243" x="1072.8989" y="1612.9639">validarDatos(datos, beneficiario)</text><text fill="#000000" font-family="sans-serif" font-size="13" lengthAdjust="spacing" textLength="177.0615" x="1072.8989" y="1629.3154">Reduccion: 4, 8, 12 o 16 horas</text><path d="M40,1662.1719 L100.1709,1662.1719 L100.1709,1670.5234 L90.1709,1680.5234 L40,1680.5234 L40,1662.1719 " fill="#EEEEEE" style="stroke:#000000;stroke-width:1.5;"/><rect fill="none" height="370.4063" style="stroke:#000000;stroke-width:1.5;" width="2141.3174" x="40" y="1662.1719"/><text fill="#000000" font-family="sans-serif" font-size="13" font-weight="bold" lengthAdjust="spacing" textLength="15.1709" x="55" y="1676.667">alt</text><text fill="#000000" font-family="sans-serif" font-size="11" font-weight="bold" lengthAdjust="spacing" textLength="92.2808" x="115.1709" y="1675.5908">[Cambio invalido]</text><polygon fill="#181818" points="599.418,1698.875,589.418,1702.875,599.418,1706.875,595.418,1702.875" style="stroke:#181818;stroke-width:1;"/><line style="stroke:#181818;stroke-width:1;stroke-dasharray:2.0,2.0;" x1="593.418" x2="1059.8989" y1="1702.875" y2="1702.875"/><text fill="#000000" font-family="sans-serif" font-size="13" lengthAdjust="spacing" textLength="117.0762" x="605.418" y="1698.0186">ValidacionException</text><polygon fill="#181818" points="351.0874,1729.2266,341.0874,1733.2266,351.0874,1737.2266,347.0874,1733.2266" style="stroke:#181818;stroke-width:1;"/><line style="stroke:#181818;stroke-width:1;stroke-dasharray:2.0,2.0;" x1="345.0874" x2="582.418" y1="1733.2266" y2="1733.2266"/><text fill="#000000" font-family="sans-serif" font-size="13" lengthAdjust="spacing" textLength="100.4644" x="357.0874" y="1728.3701">400 Bad Request</text><polygon fill="#181818" points="102.5239,1759.5781,92.5239,1763.5781,102.5239,1767.5781,98.5239,1763.5781" style="stroke:#181818;stroke-width:1;"/><line style="stroke:#181818;stroke-width:1;stroke-dasharray:2.0,2.0;" x1="96.5239" x2="329.0874" y1="1763.5781" y2="1763.5781"/><text fill="#000000" font-family="sans-serif" font-size="13" lengthAdjust="spacing" textLength="210.9707" x="108.5239" y="1758.7217">Presenta error y conserva formulario</text><line style="stroke:#000000;stroke-width:1;stroke-dasharray:2.0,2.0;" x1="40" x2="2181.3174" y1="1772.5781" y2="1772.5781"/><text fill="#000000" font-family="sans-serif" font-size="11" font-weight="bold" lengthAdjust="spacing" textLength="82.5054" x="45" y="1783.9971">[Cambio valido]</text><polygon fill="#181818" points="1269.3232,1805.7656,1279.3232,1809.7656,1269.3232,1813.7656,1273.3232,1809.7656" style="stroke:#181818;stroke-width:1;"/><line style="stroke:#181818;stroke-width:1;" x1="1060.8989" x2="1275.3232" y1="1809.7656" y2="1809.7656"/><text fill="#000000" font-family="sans-serif" font-size="13" lengthAdjust="spacing" textLength="174.8652" x="1067.8989" y="1804.9092">save(recompensaActualizada)</text><polygon fill="#181818" points="2110.4004,1852.4688,2120.4004,1856.4688,2110.4004,1860.4688,2114.4004,1856.4688" style="stroke:#181818;stroke-width:1;"/><line style="stroke:#181818;stroke-width:1;" x1="1281.3232" x2="2116.4004" y1="1856.4688" y2="1856.4688"/><text fill="#000000" font-family="sans-serif" font-size="13" lengthAdjust="spacing" textLength="438.2485" x="1288.3232" y="1835.2607">UPDATE recompensas SET tipo = ?, concepto = ?, importe_economico = ?,</text><text fill="#000000" font-family="sans-serif" font-size="13" lengthAdjust="spacing" textLength="365.2759" x="1288.3232" y="1851.6123">horas_reduccion_docente = ? WHERE id = ? AND activa = true</text><polygon fill="#181818" points="1292.3232,1882.8203,1282.3232,1886.8203,1292.3232,1890.8203,1288.3232,1886.8203" style="stroke:#181818;stroke-width:1;"/><line style="stroke:#181818;stroke-width:1;stroke-dasharray:2.0,2.0;" x1="1286.3232" x2="2121.4004" y1="1886.8203" y2="1886.8203"/><text fill="#000000" font-family="sans-serif" font-size="13" lengthAdjust="spacing" textLength="149.5889" x="1298.3232" y="1881.9639">Resultado de persistencia</text><polygon fill="#181818" points="1071.8989,1913.1719,1061.8989,1917.1719,1071.8989,1921.1719,1067.8989,1917.1719" style="stroke:#181818;stroke-width:1;"/><line style="stroke:#181818;stroke-width:1;stroke-dasharray:2.0,2.0;" x1="1065.8989" x2="1280.3232" y1="1917.1719" y2="1917.1719"/><text fill="#000000" font-family="sans-serif" font-size="13" lengthAdjust="spacing" textLength="145.9771" x="1077.8989" y="1912.3154">Recompensa actualizada</text><polygon fill="#181818" points="594.418,1943.5234,584.418,1947.5234,594.418,1951.5234,590.418,1947.5234" style="stroke:#181818;stroke-width:1;"/><line style="stroke:#181818;stroke-width:1;stroke-dasharray:2.0,2.0;" x1="588.418" x2="1059.8989" y1="1947.5234" y2="1947.5234"/><text fill="#000000" font-family="sans-serif" font-size="13" lengthAdjust="spacing" textLength="175.6016" x="600.418" y="1942.667">RecompensaDetalleResponse</text><polygon fill="#181818" points="351.0874,1990.2266,341.0874,1994.2266,351.0874,1998.2266,347.0874,1994.2266" style="stroke:#181818;stroke-width:1;"/><line style="stroke:#181818;stroke-width:1;stroke-dasharray:2.0,2.0;" x1="345.0874" x2="582.418" y1="1994.2266" y2="1994.2266"/><text fill="#000000" font-family="sans-serif" font-size="13" lengthAdjust="spacing" textLength="44.0845" x="357.0874" y="1973.0186">200 OK</text><text fill="#000000" font-family="sans-serif" font-size="13" lengthAdjust="spacing" textLength="145.9771" x="357.0874" y="1989.3701">Recompensa actualizada</text><polygon fill="#181818" points="102.5239,2020.5781,92.5239,2024.5781,102.5239,2028.5781,98.5239,2024.5781" style="stroke:#181818;stroke-width:1;"/><line style="stroke:#181818;stroke-width:1;stroke-dasharray:2.0,2.0;" x1="96.5239" x2="329.0874" y1="2024.5781" y2="2024.5781"/><text fill="#000000" font-family="sans-serif" font-size="13" lengthAdjust="spacing" textLength="210.958" x="108.5239" y="2019.7217">Presenta RECOMPENSA_ABIERTA</text><line style="stroke:#000000;stroke-width:1;stroke-dasharray:2.0,2.0;" x1="10" x2="2211.3174" y1="2054.5781" y2="2054.5781"/><text fill="#000000" font-family="sans-serif" font-size="11" font-weight="bold" lengthAdjust="spacing" textLength="159.5269" x="15" y="2065.9971">[Sesion ausente o rol invalido]</text><polygon fill="#181818" points="594.418,2087.7656,584.418,2091.7656,594.418,2095.7656,590.418,2091.7656" style="stroke:#181818;stroke-width:1;"/><line style="stroke:#181818;stroke-width:1;stroke-dasharray:2.0,2.0;" x1="588.418" x2="926.5684" y1="2091.7656" y2="2091.7656"/><text fill="#000000" font-family="sans-serif" font-size="13" lengthAdjust="spacing" textLength="320.1504" x="600.418" y="2086.9092">SesionNoValidaException / AccesoDenegadoException</text><polygon fill="#181818" points="351.0874,2118.1172,341.0874,2122.1172,351.0874,2126.1172,347.0874,2122.1172" style="stroke:#181818;stroke-width:1;"/><line style="stroke:#181818;stroke-width:1;stroke-dasharray:2.0,2.0;" x1="345.0874" x2="582.418" y1="2122.1172" y2="2122.1172"/><text fill="#000000" font-family="sans-serif" font-size="13" lengthAdjust="spacing" textLength="197.3042" x="357.0874" y="2117.2607">401 Unauthorized / 403 Forbidden</text><polygon fill="#181818" points="102.5239,2148.4688,92.5239,2152.4688,102.5239,2156.4688,98.5239,2152.4688" style="stroke:#181818;stroke-width:1;"/><line style="stroke:#181818;stroke-width:1;stroke-dasharray:2.0,2.0;" x1="96.5239" x2="329.0874" y1="2152.4688" y2="2152.4688"/><text fill="#000000" font-family="sans-serif" font-size="13" lengthAdjust="spacing" textLength="145.9644" x="108.5239" y="2147.6123">Presenta error de acceso</text><!--SRC=[jLTjRzis4FxkNt78boHRuYHTC0m6sa6sbTPTOmUsqtqn4D0YunAJIOsYZBh3_lkEf5ue-RL9Pw2DNkwEn-UUkuVINCSC-fmi55aIe0nI5cLCH9p09OIKQw90iKWk4oPIqcgHI4i5FIaLvO9GgLe9KPf7F252mudp69SETr8jP-9ipD3l_0H82dTA2iq4hVjL7ZryhMGSCuL-aqHniO2kbBbtaF2wuuIbN8e9KoiUCMlYdkmANxUqrxjCnooHASVjhgsrkQsRFYYvPeX7mz1_N7TuJ3EYUDD-85OirNnXqBG-b6Wo9oc3awxv7ulI9rgcrhZVRRKyzE7oNObe1oOonhKq0RPHECIVhuXc5Vx5XGc1i7RWVJY5AvBmgyejlVg7qt-lC5o4cCu4hlmNPuuc5kKoh2aC_ZF1N04w8ESOdYbt6qGw8_4PoVGN9X0Hel7XUUMVLut4EhyqY_WRTPOjm5zkS5aaNZFBj8jFfRMbhBc4ULfcQWdGWKGnB1HHeTle6QVdrixpTLHnozjh4y2KgmFFND3kUa1BD_FOlEvtiIRXfx0tXP_WRZowzogImfyVmd48dC9R-DswzRjsJoxecALPh74R1eY4gPIdslQbjuA_XOgtS0KhWjjmEq10lLTSiAysa7PxgUsdm1FjCvNAeGn5PBeHamY_HYpH1NmRm5RWbEZMY7bxVGj3gU5EPiYyBI4CVOh75J4nXbVR3dOMIp5rui48GW8hqdJOi1YRnjlpdXs_gpMhLybgWNQIMmpoufgVxxMzq8LNlSmG3Fk0pMxA-XPEUwFxXq_XDEYFJilGEGdgUUqdmsP6FZ6ADs1s53DTT4O3YEOKAi0OopWGD325abELiP6YJ7NNGxcSAzPp8MMGHeSWQyPlm9QrS-0oDoDJo6RYusWmB95yubu4bWAIR8HlUJltUB8GPsrEPy9XZkygvmh_h6rfPogWSKDDv3U1E8p-vkRy2dHn33xZO77xOZ5Ry7cCEq3MWkQe1IReacjEPRgtAtDyyoc5QILI8DTDdFdsDLxMhc-khs7qnqnOsO7rxYHVti7FU338OfEj6RuHKGQxLXd1Z2r_h4T4H2ok03U_dJBOSyQGorRDQNTgFOEbMX4OXwOlm-4aU0gwWt0y3Se8ThJuwowGUfHWUiivzt3Pczwzf1nBXQUj75uNP4UQUVKVWcdlmtPvdecA6ey91cLZzdU6V8IVaHf6i6kXjrQi9eh7oxVl_ZsglB5atYd4BiE_4OLQUk40Ej-UVPF5nobpyNkXGZT6nR7ZuQ1YRqhK3v6f_rcgNY5NBvUi8sLh5pWvgTg-c3GXEo1LJQ7QG0q_NmnaW-7dS38Tl4VCngVsnNRTUQNsV9_-MB586GPRcyij4z83juommgQaH5azEBC0NjGKvzpC89f5aPqSjnVmsmNSl049Dx_25wb8VJBQuMud9fv7RUXwURVAtsURWbbWyonwXCZjEvjUGvTGo8Vclg3DYNcarZ6bS0PQl9t2LE9N2-VKnG5p29PY-AHanJoc1yK0fQJYjC_XnuT-C0rhKsw2ttr6uGr_BqoI1jxyZYyJgJHxGdCXbpnoZsV25lL95JL_eZ8ouyksm4O_EFosqVw5i_JWF2KL38UPLVdrSTJ4CIiELZ-6NyLXwiZqNa-tFUSNopBl2wouDdyj-t8H9rbgoodjBAirQLFctVrGkluiUnC_GeCeOgdiuvXOR7n1xlaiRpJd3JmAS-oGYdzZ5CFUNl-2tv5gpYbb6y4Ao8xkIgGPiNcs30PUf2B2Vm00]--></g></svg>