<svg xmlns="http://www.w3.org/2000/svg" xmlns:xlink="http://www.w3.org/1999/xlink" contentStyleType="text/css" data-diagram-type="DESCRIPTION" height="612px" preserveAspectRatio="none" style="width:2382px;height:612px;background:#FFFFFF;" version="1.1" viewBox="0 0 2382 612" width="2382px" zoomAndPan="magnify"><?plantuml 1.2026.6?><defs/><g><!--cluster crearRecompensa--><g class="cluster" data-qualified-name="crearRecompensa" data-source-line="4" id="ent0002"><path d="M235.5,6 L367.2236,6 A3.75,3.75 0 0 1 369.7236,8.5 L376.7236,29.6094 L1403.5,29.6094 A2.5,2.5 0 0 1 1406,32.1094 L1406,594.5 A2.5,2.5 0 0 1 1403.5,597 L235.5,597 A2.5,2.5 0 0 1 233,594.5 L233,8.5 A2.5,2.5 0 0 1 235.5,6" fill="none" style="stroke:#000000;stroke-width:1.5;"/><line style="stroke:#000000;stroke-width:1.5;" x1="233" x2="376.7236" y1="29.6094" y2="29.6094"/><text fill="#000000" font-family="sans-serif" font-size="14" font-weight="700" lengthAdjust="spacing" textLength="130.7236" x="237" y="22.5332">crearRecompensa()</text></g><!--entity CrearRecompensaView--><g class="entity" data-qualified-name="crearRecompensa.CrearRecompensaView" data-source-line="5" id="ent0003"><rect fill="#629EF9" height="37.6094" rx="2.5" ry="2.5" style="stroke:#181818;stroke-width:0.5;" width="167.8408" x="1025" y="42"/><text fill="#000000" font-family="sans-serif" font-size="14" lengthAdjust="spacing" textLength="147.8408" x="1035" y="66.5332">CrearRecompensaView</text></g><!--entity RecompensaController--><g class="entity" data-qualified-name="crearRecompensa.RecompensaController" data-source-line="6" id="ent0004"><rect fill="#B5BD68" height="37.6094" rx="2.5" ry="2.5" style="stroke:#181818;stroke-width:0.5;" width="163.1787" x="781.5" y="185"/><text fill="#000000" font-family="sans-serif" font-size="14" lengthAdjust="spacing" textLength="143.1787" x="791.5" y="209.5332">RecompensaController</text></g><!--entity RecompensaService--><g class="entity" data-qualified-name="crearRecompensa.RecompensaService" data-source-line="7" id="ent0005"><rect fill="#B5BD68" height="37.6094" rx="2.5" ry="2.5" style="stroke:#181818;stroke-width:0.5;" width="149.1719" x="517.5" y="328"/><text fill="#000000" font-family="sans-serif" font-size="14" lengthAdjust="spacing" textLength="129.1719" x="527.5" y="352.5332">RecompensaService</text></g><!--entity SesionService--><g class="entity" data-qualified-name="crearRecompensa.SesionService" data-source-line="8" id="ent0006"><rect fill="#B5BD68" height="37.6094" rx="2.5" ry="2.5" style="stroke:#181818;stroke-width:0.5;" width="109.4893" x="1128.5" y="328"/><text fill="#000000" font-family="sans-serif" font-size="14" lengthAdjust="spacing" textLength="89.4893" x="1138.5" y="352.5332">SesionService</text></g><!--entity RecompensaRepository--><g class="entity" data-qualified-name="crearRecompensa.RecompensaRepository" data-source-line="9" id="ent0007"><rect fill="#F2AC4E" height="37.6094" rx="2.5" ry="2.5" style="stroke:#181818;stroke-width:0.5;" width="169.4063" x="285.5" y="444"/><text fill="#000000" font-family="sans-serif" font-size="14" lengthAdjust="spacing" textLength="149.4063" x="295.5" y="468.5332">RecompensaRepository</text></g><!--entity ProyectoRepository--><g class="entity" data-qualified-name="crearRecompensa.ProyectoRepository" data-source-line="10" id="ent0008"><rect fill="#F2AC4E" height="37.6094" rx="2.5" ry="2.5" style="stroke:#181818;stroke-width:0.5;" width="142.165" x="525" y="444"/><text fill="#000000" font-family="sans-serif" font-size="14" lengthAdjust="spacing" textLength="122.165" x="535" y="468.5332">ProyectoRepository</text></g><!--entity InvestigadorRepository--><g class="entity" data-qualified-name="crearRecompensa.InvestigadorRepository" data-source-line="11" id="ent0009"><rect fill="#F2AC4E" height="37.6094" rx="2.5" ry="2.5" style="stroke:#181818;stroke-width:0.5;" width="163.1855" x="965.5" y="444"/><text fill="#000000" font-family="sans-serif" font-size="14" lengthAdjust="spacing" textLength="143.1855" x="975.5" y="468.5332">InvestigadorRepository</text></g><!--entity Recompensa--><g class="entity" data-qualified-name="crearRecompensa.Recompensa" data-source-line="12" id="ent0010"><rect fill="#F2AC4E" height="37.6094" rx="2.5" ry="2.5" style="stroke:#181818;stroke-width:0.5;" width="102.4893" x="319" y="543"/><text fill="#000000" font-family="sans-serif" font-size="14" lengthAdjust="spacing" textLength="82.4893" x="329" y="567.5332">Recompensa</text></g><!--entity Proyecto--><g class="entity" data-qualified-name="crearRecompensa.Proyecto" data-source-line="13" id="ent0011"><rect fill="#F2AC4E" height="37.6094" rx="2.5" ry="2.5" style="stroke:#181818;stroke-width:0.5;" width="75.248" x="558.5" y="543"/><text fill="#000000" font-family="sans-serif" font-size="14" lengthAdjust="spacing" textLength="55.248" x="568.5" y="567.5332">Proyecto</text></g><!--entity Investigador--><g class="entity" data-qualified-name="crearRecompensa.Investigador" data-source-line="14" id="ent0012"><rect fill="#F2AC4E" height="37.6094" rx="2.5" ry="2.5" style="stroke:#181818;stroke-width:0.5;" width="96.2686" x="999" y="543"/><text fill="#000000" font-family="sans-serif" font-size="14" lengthAdjust="spacing" textLength="76.2686" x="1009" y="567.5332">Investigador</text></g><!--entity EstadoEntrada--><g class="entity" data-qualified-name="EstadoEntrada" data-source-line="3" id="ent0001"><rect fill="#CDEBA5" height="37.6094" rx="2.5" ry="2.5" style="stroke:#181818;stroke-width:0.5;" width="209.8271" x="7" y="42"/><text fill="#000000" font-family="sans-serif" font-size="14" lengthAdjust="spacing" textLength="189.8271" x="17" y="66.5332">:RECOMPENSAS_ABIERTAS</text></g><!--entity EstadoSalida--><g class="entity" data-qualified-name="EstadoSalida" data-source-line="17" id="ent0013"><rect fill="#CDEBA5" height="37.6094" rx="2.5" ry="2.5" style="stroke:#181818;stroke-width:0.5;" width="191.1514" x="1422.5" y="185"/><text fill="#000000" font-family="sans-serif" font-size="14" lengthAdjust="spacing" textLength="171.1514" x="1432.5" y="209.5332">:RECOMPENSA_ABIERTA</text></g><!--entity EstadoSalidaCancelada--><g class="entity" data-qualified-name="EstadoSalidaCancelada" data-source-line="18" id="ent0014"><rect fill="#CDEBA5" height="37.6094" rx="2.5" ry="2.5" style="stroke:#181818;stroke-width:0.5;" width="209.8271" x="1649" y="185"/><text fill="#000000" font-family="sans-serif" font-size="14" lengthAdjust="spacing" textLength="189.8271" x="1659" y="209.5332">:RECOMPENSAS_ABIERTAS</text></g><!--entity AbrirRecompensa--><g class="entity" data-qualified-name="AbrirRecompensa" data-source-line="19" id="ent0015"><rect fill="#CDEBA5" height="37.6094" rx="2.5" ry="2.5" style="stroke:#181818;stroke-width:0.5;" width="222.3232" x="1894" y="185"/><text fill="#000000" font-family="sans-serif" font-size="14" lengthAdjust="spacing" textLength="202.3232" x="1904" y="209.5332">:Collaboration AbrirRecompensa</text></g><g class="entity" data-qualified-name="GMN36" data-source-line="43" id="ent0037"><path d="M2151,158 L2151,249.7578 L2367.1143,249.7578 L2367.1143,168 L2357.1143,158 L2151,158" fill="#FEFFDD" style="stroke:#181818;stroke-width:0.5;"/><path d="M2357.1143,158 L2357.1143,168 L2367.1143,168 L2357.1143,158" fill="#FEFFDD" style="stroke:#181818;stroke-width:1;"/><text fill="#000000" font-family="sans-serif" font-size="13" lengthAdjust="spacing" textLength="106.228" x="2157" y="176.4951">Origen obligatorio:</text><text fill="#000000" font-family="sans-serif" font-size="13" lengthAdjust="spacing" textLength="128.6226" x="2157" y="192.8467">- proyecto completado</text><text fill="#000000" font-family="sans-serif" font-size="13" lengthAdjust="spacing" textLength="122.8525" x="2157" y="209.1982">- beneficiario elegible</text><text fill="#000000" font-family="sans-serif" font-size="13" lengthAdjust="spacing" textLength="195.1143" x="2157" y="225.5498">- docente: economica o reduccion</text><text fill="#000000" font-family="sans-serif" font-size="13" lengthAdjust="spacing" textLength="169.8252" x="2157" y="241.9014">- no docente: solo economica</text></g><!--link EstadoEntrada to CrearRecompensaView--><g class="link" data-entity-1="ent0001" data-entity-2="ent0003" data-link-type="dependency" data-source-line="21" id="lnk16"><path d="M217.28,61 C416.13,61 838.22,61 1019.67,61" fill="none" id="EstadoEntrada-to-CrearRecompensaView" style="stroke:#181818;stroke-width:1;"/><polygon fill="#181818" points="1024.67,61,1015.67,57,1019.67,61,1015.67,65,1024.67,61" style="stroke:#181818;stroke-width:1;stroke-linejoin:miter;stroke-miterlimit:10;"/><text fill="#000000" font-family="sans-serif" font-size="13" lengthAdjust="spacing" textLength="114.8735" x="564" y="54.4951">crearRecompensa()</text></g><!--link CrearRecompensaView to RecompensaController--><g class="link" data-entity-1="ent0003" data-entity-2="ent0004" data-link-type="dependency" data-source-line="23" id="lnk17"><path d="M1024.99,69.85 C879.25,83.46 595,110 595,110 C595,110 595,128 595,128 C595,128 714.355,161.4026 793.655,183.5926" fill="none" id="CrearRecompensaView-to-RecompensaController" style="stroke:#181818;stroke-width:1;"/><polygon fill="#181818" points="798.47,184.94,790.8808,178.6627,793.655,183.5926,788.725,186.3668,798.47,184.94" style="stroke:#181818;stroke-width:1;stroke-linejoin:miter;stroke-miterlimit:10;"/><text fill="#000000" font-family="sans-serif" font-size="13" lengthAdjust="spacing" textLength="109.8208" x="596" y="124.4951">prepararCreacion()</text></g><!--link CrearRecompensaView to RecompensaController--><g class="link" data-entity-1="ent0003" data-entity-2="ent0004" data-link-type="dependency" data-source-line="30" id="lnk24"><path d="M1024.81,73.13 C917.57,87.31 746,110 746,110 C746,110 746,128 746,128 C746,128 795.8401,159.9524 830.4701,182.1424" fill="none" id="CrearRecompensaView-to-RecompensaController-1" style="stroke:#181818;stroke-width:1;"/><polygon fill="#181818" points="834.68,184.84,829.2603,176.6165,830.4701,182.1424,824.9442,183.3523,834.68,184.84" style="stroke:#181818;stroke-width:1;stroke-linejoin:miter;stroke-miterlimit:10;"/><text fill="#000000" font-family="sans-serif" font-size="13" lengthAdjust="spacing" textLength="186.418" x="747" y="124.4951">seleccionarProyecto(proyectoId)</text></g><!--link CrearRecompensaView to RecompensaController--><g class="link" data-entity-1="ent0003" data-entity-2="ent0004" data-link-type="dependency" data-source-line="32" id="lnk26"><path d="M1058.35,80.01 C1020.04,93.63 974,110 974,110 C974,110 920.8021,154.5684 888.5021,181.6384" fill="none" id="CrearRecompensaView-to-RecompensaController-2" style="stroke:#181818;stroke-width:1;"/><polygon fill="#181818" points="884.67,184.85,894.1372,182.1348,888.5021,181.6384,888.9985,176.0033,884.67,184.85" style="stroke:#181818;stroke-width:1;stroke-linejoin:miter;stroke-miterlimit:10;"/><text fill="#000000" font-family="sans-serif" font-size="13" lengthAdjust="spacing" textLength="223.2788" x="975" y="124.4951">seleccionarBeneficiario(investigadorId)</text></g><!--link CrearRecompensaView to RecompensaController--><g class="link" data-entity-1="ent0003" data-entity-2="ent0004" data-link-type="dependency" data-source-line="35" id="lnk29"><path d="M1144.27,80.01 C1170.94,93.63 1203,110 1203,110 C1203,110 1203,128 1203,128 C1203,128 1050.3627,161.6731 949.7527,183.8631" fill="none" id="CrearRecompensaView-to-RecompensaController-3" style="stroke:#181818;stroke-width:1;"/><polygon fill="#181818" points="944.87,184.94,954.5203,186.9077,949.7527,183.8631,952.7973,179.0955,944.87,184.94" style="stroke:#181818;stroke-width:1;stroke-linejoin:miter;stroke-miterlimit:10;"/><text fill="#000000" font-family="sans-serif" font-size="13" lengthAdjust="spacing" textLength="146.6753" x="1204" y="124.4951">crearRecompensa(datos)</text></g><!--link RecompensaController to RecompensaService--><g class="link" data-entity-1="ent0004" data-entity-2="ent0005" data-link-type="dependency" data-source-line="24" id="lnk18"><path d="M781.32,215.79 C624.14,236.54 295,280 295,280 C295,280 295,298 295,298 C295,298 424.5241,318.9322 512.5041,333.1522" fill="none" id="RecompensaController-to-RecompensaService" style="stroke:#181818;stroke-width:1;"/><polygon fill="#181818" points="517.44,333.95,509.1935,328.5652,512.5041,333.1522,507.9171,336.4627,517.44,333.95" style="stroke:#181818;stroke-width:1;stroke-linejoin:miter;stroke-miterlimit:10;"/><text fill="#000000" font-family="sans-serif" font-size="13" lengthAdjust="spacing" textLength="109.8208" x="296" y="294.4951">prepararCreacion()</text></g><!--link RecompensaController to RecompensaService--><g class="link" data-entity-1="ent0004" data-entity-2="ent0005" data-link-type="dependency" data-source-line="25" id="lnk19"><path d="M781.11,219.73 C659.67,241.57 446,280 446,280 C446,280 446,298 446,298 C446,298 491.0401,312.8085 532.4701,326.4285" fill="none" id="RecompensaController-to-RecompensaService-1" style="stroke:#181818;stroke-width:1;"/><polygon fill="#181818" points="537.22,327.99,529.9194,321.3793,532.4701,326.4285,527.4209,328.9792,537.22,327.99" style="stroke:#181818;stroke-width:1;stroke-linejoin:miter;stroke-miterlimit:10;"/><text fill="#000000" font-family="sans-serif" font-size="13" lengthAdjust="spacing" textLength="240.6333" x="447" y="294.4951">obtenerBeneficiariosElegibles(proyectoId)</text></g><!--link RecompensaController to RecompensaService--><g class="link" data-entity-1="ent0004" data-entity-2="ent0005" data-link-type="dependency" data-source-line="26" id="lnk20"><path d="M829.62,223.15 C779.86,250.22 692,298 692,298 C692,298 662.4078,312.2067 634.0278,325.8267" fill="none" id="RecompensaController-to-RecompensaService-2" style="stroke:#181818;stroke-width:1;"/><polygon fill="#181818" points="629.52,327.99,639.3647,327.7022,634.0278,325.8267,635.9033,320.4898,629.52,327.99" style="stroke:#181818;stroke-width:1;stroke-linejoin:miter;stroke-miterlimit:10;"/><text fill="#000000" font-family="sans-serif" font-size="13" lengthAdjust="spacing" textLength="294.8105" x="725" y="294.4951">obtenerTiposPermitidos(proyectoId, investigadorId)</text></g><!--link RecompensaController to RecompensaService--><g class="link" data-entity-1="ent0004" data-entity-2="ent0005" data-link-type="dependency" data-source-line="27" id="lnk21"><path d="M902.94,223.16 C951.77,245.35 1028,280 1028,280 C1028,280 1028,298 1028,298 C1028,298 796.5799,323.4726 671.9199,337.2026" fill="none" id="RecompensaController-to-RecompensaService-3" style="stroke:#181818;stroke-width:1;"/><polygon fill="#181818" points="666.95,337.75,676.3338,340.7407,671.9199,337.2026,675.458,332.7887,666.95,337.75" style="stroke:#181818;stroke-width:1;stroke-linejoin:miter;stroke-miterlimit:10;"/><text fill="#000000" font-family="sans-serif" font-size="13" lengthAdjust="spacing" textLength="70.0781" x="1029" y="294.4951">crear(datos)</text></g><!--link RecompensaController to SesionService--><g class="link" data-entity-1="ent0004" data-entity-2="ent0006" data-link-type="dependency" data-source-line="28" id="lnk22"><path d="M922,223.06 C994.49,245.25 1108,280 1108,280 C1108,280 1136.5469,305.1164 1158.7569,324.6664" fill="none" id="RecompensaController-to-SesionService" style="stroke:#181818;stroke-width:1;"/><polygon fill="#181818" points="1162.51,327.97,1158.3973,319.021,1158.7569,324.6664,1153.1115,325.026,1162.51,327.97" style="stroke:#181818;stroke-width:1;stroke-linejoin:miter;stroke-miterlimit:10;"/><text fill="#000000" font-family="sans-serif" font-size="13" lengthAdjust="spacing" textLength="209.5806" x="1129" y="294.4951">obtenerSesionActual(authentication)</text></g><!--link RecompensaService to ProyectoRepository--><g class="link" data-entity-1="ent0005" data-entity-2="ent0008" data-link-type="dependency" data-source-line="29" id="lnk23"><path d="M592.27,366.03 C592.57,385.58 593,414 593,414 C593,414 593.7079,425.2698 594.5579,438.8598" fill="none" id="RecompensaService-to-ProyectoRepository" style="stroke:#181818;stroke-width:1;"/><polygon fill="#181818" points="594.87,443.85,598.3004,434.6179,594.5579,438.8598,590.316,435.1172,594.87,443.85" style="stroke:#181818;stroke-width:1;stroke-linejoin:miter;stroke-miterlimit:10;"/><text fill="#000000" font-family="sans-serif" font-size="13" lengthAdjust="spacing" textLength="270.9941" x="594" y="410.4951">obtenerCompletadosPendientesRecompensa()</text></g><!--link RecompensaService to InvestigadorRepository--><g class="link" data-entity-1="ent0005" data-entity-2="ent0009" data-link-type="dependency" data-source-line="31" id="lnk25"><path d="M666.6,360.93 C748.64,375.14 869,396 869,396 C869,396 905,414 905,414 C905,414 948.6933,428.7688 988.9833,442.3888" fill="none" id="RecompensaService-to-InvestigadorRepository" style="stroke:#181818;stroke-width:1;"/><polygon fill="#181818" points="993.72,443.99,986.475,437.3185,988.9833,442.3888,983.913,444.8971,993.72,443.99" style="stroke:#181818;stroke-width:1;stroke-linejoin:miter;stroke-miterlimit:10;"/><text fill="#000000" font-family="sans-serif" font-size="13" lengthAdjust="spacing" textLength="237.7388" x="906" y="410.4951">obtenerElegiblesPorProyecto(proyectoId)</text></g><!--link RecompensaService to InvestigadorRepository--><g class="link" data-entity-1="ent0005" data-entity-2="ent0009" data-link-type="dependency" data-source-line="33" id="lnk27"><path d="M666.7,354.45 C818.33,367.54 1148,396 1148,396 C1148,396 1148,414 1148,414 C1148,414 1118.076,428.2239 1089.416,441.8439" fill="none" id="RecompensaService-to-InvestigadorRepository-1" style="stroke:#181818;stroke-width:1;"/><polygon fill="#181818" points="1084.9,443.99,1094.7457,443.7398,1089.416,441.8439,1091.3119,436.5142,1084.9,443.99" style="stroke:#181818;stroke-width:1;stroke-linejoin:miter;stroke-miterlimit:10;"/><text fill="#000000" font-family="sans-serif" font-size="13" lengthAdjust="spacing" textLength="201.6143" x="1149" y="410.4951">obtenerBeneficiario(investigadorId)</text></g><!--link RecompensaService to RecompensaService--><g class="link" data-entity-1="ent0005" data-entity-2="ent0005" data-link-type="dependency" data-source-line="34" id="lnk28"><path d="M666.72,341.61 C686.51,341.92 701.5,343.71 701.5,347 C701.5,350.29 691.5094,352.0017 671.7194,352.3117" fill="none" id="RecompensaService-to-RecompensaService" style="stroke:#181818;stroke-width:1;"/><polygon fill="#181818" points="666.72,352.39,675.7815,356.2485,671.7194,352.3117,675.6562,348.2495,666.72,352.39" style="stroke:#181818;stroke-width:1;stroke-linejoin:miter;stroke-miterlimit:10;"/><text fill="#000000" font-family="sans-serif" font-size="13" lengthAdjust="spacing" textLength="212.4307" x="707.5" y="352.4951">obtenerTiposPermitidos(beneficiario)</text></g><!--link RecompensaService to RecompensaService--><g class="link" data-entity-1="ent0005" data-entity-2="ent0005" data-link-type="dependency" data-source-line="36" id="lnk30"><path d="M666.8,338.72 C767.5,333.45 925.5,336.21 925.5,347 C925.5,357.79 772.4932,360.8113 671.7932,355.5413" fill="none" id="RecompensaService-to-RecompensaService-1" style="stroke:#181818;stroke-width:1;"/><polygon fill="#181818" points="666.8,355.28,675.5787,359.7449,671.7932,355.5413,675.9967,351.7558,666.8,355.28" style="stroke:#181818;stroke-width:1;stroke-linejoin:miter;stroke-miterlimit:10;"/><text fill="#000000" font-family="sans-serif" font-size="13" lengthAdjust="spacing" textLength="155.3525" x="931.5" y="352.4951">validarRecompensa(datos)</text></g><!--link RecompensaService to RecompensaRepository--><g class="link" data-entity-1="ent0005" data-entity-2="ent0007" data-link-type="dependency" data-source-line="37" id="lnk31"><path d="M517.11,359.56 C425.09,373.76 281,396 281,396 C281,396 281,414 281,414 C281,414 306.949,427.997 332.209,441.617" fill="none" id="RecompensaService-to-RecompensaRepository" style="stroke:#181818;stroke-width:1;"/><polygon fill="#181818" points="336.61,443.99,330.5866,436.1978,332.209,441.617,326.7898,443.2394,336.61,443.99" style="stroke:#181818;stroke-width:1;stroke-linejoin:miter;stroke-miterlimit:10;"/><text fill="#000000" font-family="sans-serif" font-size="13" lengthAdjust="spacing" textLength="132.2344" x="282" y="410.4951">existeDuplicado(datos)</text></g><!--link RecompensaService to RecompensaRepository--><g class="link" data-entity-1="ent0005" data-entity-2="ent0007" data-link-type="dependency" data-source-line="38" id="lnk32"><path d="M552.23,366.01 C522.15,379.63 486,396 486,396 C486,396 440.3852,421.9463 406.0452,441.4963" fill="none" id="RecompensaService-to-RecompensaRepository-1" style="stroke:#181818;stroke-width:1;"/><polygon fill="#181818" points="401.7,443.97,411.5003,442.9934,406.0452,441.4963,407.5423,436.0411,401.7,443.97" style="stroke:#181818;stroke-width:1;stroke-linejoin:miter;stroke-miterlimit:10;"/><text fill="#000000" font-family="sans-serif" font-size="13" lengthAdjust="spacing" textLength="96.1162" x="487" y="410.4951">guardar(entidad)</text></g><!--link RecompensaRepository to Recompensa--><g class="link" data-entity-1="ent0007" data-entity-2="ent0010" data-link-type="association" data-source-line="39" id="lnk33"><path d="M370,482.24 C370,499.59 370,525.52 370,542.84" fill="none" id="RecompensaRepository-Recompensa" style="stroke:#181818;stroke-width:1;"/></g><!--link ProyectoRepository to Proyecto--><g class="link" data-entity-1="ent0008" data-entity-2="ent0011" data-link-type="association" data-source-line="40" id="lnk34"><path d="M596,482.24 C596,499.59 596,525.52 596,542.84" fill="none" id="ProyectoRepository-Proyecto" style="stroke:#181818;stroke-width:1;"/></g><!--link InvestigadorRepository to Investigador--><g class="link" data-entity-1="ent0009" data-entity-2="ent0012" data-link-type="association" data-source-line="41" id="lnk35"><path d="M1047,482.24 C1047,499.59 1047,525.52 1047,542.84" fill="none" id="InvestigadorRepository-Investigador" style="stroke:#181818;stroke-width:1;"/></g><!--link RecompensaController to GMN36--><g class="link" data-entity-1="ent0004" data-entity-2="ent0037" data-link-type="association" data-source-line="43" id="lnk38"><path d="M944.66,191.59 C1099.95,168 1422.5,119 1422.5,119 C1422.5,119 2116.5,119 2116.5,119 C2116.5,119 2148.07,137.83 2181.49,157.77" fill="none" id="RecompensaController-GMN36" style="stroke:#181818;stroke-width:1;stroke-dasharray:7,7;"/></g><!--link CrearRecompensaView to EstadoSalida--><g class="link" data-entity-1="ent0003" data-entity-2="ent0013" data-link-type="dependency" data-source-line="49" id="lnk39"><path d="M1193.29,78.18 C1265.87,92.12 1359,110 1359,110 C1359,110 1436.3741,155.2555 1482.6541,182.3255" fill="none" id="CrearRecompensaView-to-EstadoSalida" style="stroke:#181818;stroke-width:1;stroke-dasharray:7,7;"/><polygon fill="#181818" points="1486.97,184.85,1481.2209,176.8532,1482.6541,182.3255,1477.1818,183.7587,1486.97,184.85" style="stroke:#181818;stroke-width:1;stroke-linejoin:miter;stroke-miterlimit:10;"/><text fill="#000000" font-family="sans-serif" font-size="13" lengthAdjust="spacing" textLength="130.7935" x="1390" y="124.4951">continuarNavegacion()</text></g><!--link CrearRecompensaView to EstadoSalidaCancelada--><g class="link" data-entity-1="ent0003" data-entity-2="ent0014" data-link-type="dependency" data-source-line="50" id="lnk40"><path d="M1193.24,71.63 C1315.84,85.64 1529,110 1529,110 C1529,110 1640.2993,155.9997 1705.7293,183.0497" fill="none" id="CrearRecompensaView-to-EstadoSalidaCancelada" style="stroke:#181818;stroke-width:1;stroke-dasharray:7,7;"/><polygon fill="#181818" points="1710.35,184.96,1703.561,177.8249,1705.7293,183.0497,1700.5045,185.218,1710.35,184.96" style="stroke:#181818;stroke-width:1;stroke-linejoin:miter;stroke-miterlimit:10;"/><text fill="#000000" font-family="sans-serif" font-size="13" lengthAdjust="spacing" textLength="109.8208" x="1573" y="124.4951">cancelarCreacion()</text></g><!--link CrearRecompensaView to AbrirRecompensa--><g class="link" data-entity-1="ent0003" data-entity-2="ent0015" data-link-type="dependency" data-source-line="51" id="lnk41"><path d="M1193.01,68.93 C1354.18,82.22 1691,110 1691,110 C1691,110 1877,158 1877,158 C1877,158 1913.3429,170.782 1948.9629,183.302" fill="none" id="CrearRecompensaView-to-AbrirRecompensa" style="stroke:#181818;stroke-width:1;stroke-dasharray:7,7;"/><polygon fill="#181818" points="1953.68,184.96,1946.5156,178.2019,1948.9629,183.302,1943.8628,185.7493,1953.68,184.96" style="stroke:#181818;stroke-width:1;stroke-linejoin:miter;stroke-miterlimit:10;"/><text fill="#000000" font-family="sans-serif" font-size="13" lengthAdjust="spacing" textLength="111.2617" x="1757" y="124.4951">abrirRecompensa()</text></g><?plantuml-src fLLDRzf04BtxLupeXKebXwY96WwHZED8EJH14ELQhTSJPvLbnzfTQ57L_zun7sODTWcK0yB3cxVZUMzstBiofR1Y1bePzCiIeIIzh1wYoABqmXGQuLDobuxYA-WD9sdoz7sSFaxZwOzuz91EdkDf3uI3r7cHKsgy5Rc8IY7VHO4WBGexGKcp4eqJ5R2t5-j_xi7l2FWJd7TzUPFUtq3IXBue_BcFpAwo_FeRx409SGsaDTgZq2dQXPBOWPkYKsGwCFUNSV8r3RWcM99Jdkoo0pgsjEGW7GK-c0KwhmfkfpqAtXLmvDWF71RzEQRvLl90yQdGYWK_molhp4GOYLfqK2GifCZ82izIG9nP5TXXnRKNYwA64M5W1xTjDXh2WGsZg0K7Wvm9sjmrXD9YDJksIfDS7rEq0M7GODWOwh_JAVDeq8xuwrL99QmYbseiLARHzSkDx0_vMQpFYdqtHZjJNkKKqdq15LZcLFfLq_kvyEJ-aTYOlBgcTJIMVYvqNypz6nglvCeP8TScRKLqE7CrMy9mZPLL-3rDhfWCNSCEhMxeD8D3ZRAIKTZjgHqYX0MsptfTPAtdcDfPpwunj4s_Mz4JQZs3yUF-omBoKzzwVz0Ft7UafCNgdZg38MmI_bBEuzsyr6pPdCwXAER2SXtzolQvQ3Hr1-FyS2SS3a05g7T2kwGLfB4N37a4guet3_JQlcgV-6yqB9_c72PHD8m6iBKgo7hQE1gA2RYnECTpajKKShCa6Pfneu1uPUNpbMSPO6Y7SQHf1unuXA4gizKR5nUtZPt3dk3AbU66Fee55jlhzoEvzRvYalNFy0BlOjZRKaCGpG2d_WK0?></g></svg>