<svg xmlns="http://www.w3.org/2000/svg" xmlns:xlink="http://www.w3.org/1999/xlink" contentStyleType="text/css" data-diagram-type="DESCRIPTION" height="442px" preserveAspectRatio="none" style="width:1124px;height:442px;background:#FFFFFF;" version="1.1" viewBox="0 0 1124 442" width="1124px" zoomAndPan="magnify"><?plantuml 1.2026.4?><defs/><g><!--cluster crearRecompensa--><g class="cluster" data-qualified-name="crearRecompensa" data-source-line="4" id="ent0002"><path d="M235.5,6 L367.2236,6 A3.75,3.75 0 0 1 369.7236,8.5 L376.7236,29.6094 L642.5,29.6094 A2.5,2.5 0 0 1 645,32.1094 L645,424.5 A2.5,2.5 0 0 1 642.5,427 L235.5,427 A2.5,2.5 0 0 1 233,424.5 L233,8.5 A2.5,2.5 0 0 1 235.5,6" fill="none" style="stroke:#000000;stroke-width:1.5;"/><line style="stroke:#000000;stroke-width:1.5;" x1="233" x2="376.7236" y1="29.6094" y2="29.6094"/><text fill="#000000" font-family="sans-serif" font-size="14" font-weight="700" lengthAdjust="spacing" textLength="130.7236" x="237" y="22.5332">crearRecompensa()</text></g><!--entity CrearRecompensaView--><g class="entity" data-qualified-name="crearRecompensa.CrearRecompensaView" data-source-line="5" id="ent0003"><rect fill="#629EF9" height="37.6094" rx="2.5" ry="2.5" style="stroke:#181818;stroke-width:0.5;" width="167.8408" x="388" y="42"/><text fill="#000000" font-family="sans-serif" font-size="14" lengthAdjust="spacing" textLength="147.8408" x="398" y="66.5332">CrearRecompensaView</text></g><!--entity RecompensaController--><g class="entity" data-qualified-name="crearRecompensa.RecompensaController" data-source-line="6" id="ent0004"><rect fill="#B5BD68" height="37.6094" rx="2.5" ry="2.5" style="stroke:#181818;stroke-width:0.5;" width="163.1787" x="312.5" y="158"/><text fill="#000000" font-family="sans-serif" font-size="14" lengthAdjust="spacing" textLength="143.1787" x="322.5" y="182.5332">RecompensaController</text></g><!--entity RecompensaRepository--><g class="entity" data-qualified-name="crearRecompensa.RecompensaRepository" data-source-line="7" id="ent0005"><rect fill="#F2AC4E" height="37.6094" rx="2.5" ry="2.5" style="stroke:#181818;stroke-width:0.5;" width="169.4063" x="323.5" y="274"/><text fill="#000000" font-family="sans-serif" font-size="14" lengthAdjust="spacing" textLength="149.4063" x="333.5" y="298.5332">RecompensaRepository</text></g><!--entity Recompensa--><g class="entity" data-qualified-name="crearRecompensa.Recompensa" data-source-line="8" id="ent0006"><rect fill="#F2AC4E" height="37.6094" rx="2.5" ry="2.5" style="stroke:#181818;stroke-width:0.5;" width="102.4893" x="357" y="373"/><text fill="#000000" font-family="sans-serif" font-size="14" lengthAdjust="spacing" textLength="82.4893" x="367" y="397.5332">Recompensa</text></g><!--entity EstadoEntrada--><g class="entity" data-qualified-name="EstadoEntrada" data-source-line="3" id="ent0001"><rect fill="#CDEBA5" height="37.6094" rx="2.5" ry="2.5" style="stroke:#181818;stroke-width:0.5;" width="209.8271" x="7" y="42"/><text fill="#000000" font-family="sans-serif" font-size="14" lengthAdjust="spacing" textLength="189.8271" x="17" y="66.5332">:RECOMPENSAS_ABIERTAS</text></g><!--entity EstadoSalida--><g class="entity" data-qualified-name="EstadoSalida" data-source-line="11" id="ent0007"><rect fill="#CDEBA5" height="37.6094" rx="2.5" ry="2.5" style="stroke:#181818;stroke-width:0.5;" width="191.1514" x="661.5" y="158"/><text fill="#000000" font-family="sans-serif" font-size="14" lengthAdjust="spacing" textLength="171.1514" x="671.5" y="182.5332">:RECOMPENSA_ABIERTA</text></g><!--entity AbrirRecompensa--><g class="entity" data-qualified-name="AbrirRecompensa" data-source-line="12" id="ent0008"><rect fill="#CDEBA5" height="37.6094" rx="2.5" ry="2.5" style="stroke:#181818;stroke-width:0.5;" width="222.3232" x="888" y="158"/><text fill="#000000" font-family="sans-serif" font-size="14" lengthAdjust="spacing" textLength="202.3232" x="898" y="182.5332">:Collaboration AbrirRecompensa</text></g><!--link EstadoEntrada to CrearRecompensaView--><g class="link" data-entity-1="ent0001" data-entity-2="ent0003" data-link-type="dependency" data-source-line="14" id="lnk9"><path d="M217.09,61 C271.47,61 331.94,61 382.92,61" fill="none" id="EstadoEntrada-to-CrearRecompensaView" style="stroke:#181818;stroke-width:1;"/><polygon fill="#181818" points="387.92,61,378.92,57,382.92,61,378.92,65,387.92,61" style="stroke:#181818;stroke-width:1;stroke-linejoin:miter;stroke-miterlimit:10;"/><text fill="#000000" font-family="sans-serif" font-size="13" lengthAdjust="spacing" textLength="114.8735" x="245.5" y="54.4951">crearRecompensa()</text></g><!--link CrearRecompensaView to RecompensaController--><g class="link" data-entity-1="ent0003" data-entity-2="ent0004" data-link-type="dependency" data-source-line="16" id="lnk10"><path d="M400.34,80.01 C346.14,93.63 281,110 281,110 C281,110 281,128 281,128 C281,128 314.9381,142.415 346.9981,156.035" fill="none" id="CrearRecompensaView-to-RecompensaController" style="stroke:#181818;stroke-width:1;"/><polygon fill="#181818" points="351.6,157.99,344.8805,150.7894,346.9981,156.035,341.7525,158.1525,351.6,157.99" style="stroke:#181818;stroke-width:1;stroke-linejoin:miter;stroke-miterlimit:10;"/><text fill="#000000" font-family="sans-serif" font-size="13" lengthAdjust="spacing" textLength="146.6753" x="282" y="124.4951">crearRecompensa(datos)</text></g><!--link CrearRecompensaView to RecompensaController--><g class="link" data-entity-1="ent0003" data-entity-2="ent0004" data-link-type="dependency" data-source-line="17" id="lnk11"><path d="M461.34,80.03 C449.8,99.58 433,128 433,128 C433,128 422.9444,140.3806 411.8944,153.9706" fill="none" id="CrearRecompensaView-to-RecompensaController-1" style="stroke:#181818;stroke-width:1;"/><polygon fill="#181818" points="408.74,157.85,417.5214,153.3905,411.8944,153.9706,411.3143,148.3435,408.74,157.85" style="stroke:#181818;stroke-width:1;stroke-linejoin:miter;stroke-miterlimit:10;"/><text fill="#000000" font-family="sans-serif" font-size="13" lengthAdjust="spacing" textLength="155.3525" x="444" y="124.4951">validarRecompensa(datos)</text></g><!--link RecompensaController to RecompensaRepository--><g class="link" data-entity-1="ent0004" data-entity-2="ent0005" data-link-type="dependency" data-source-line="18" id="lnk12"><path d="M360.98,196.01 C336.01,209.63 306,226 306,226 C306,226 306,244 306,244 C306,244 336.266,258.2409 365.206,271.8609" fill="none" id="RecompensaController-to-RecompensaRepository" style="stroke:#181818;stroke-width:1;"/><polygon fill="#181818" points="369.73,273.99,363.2901,266.5383,365.206,271.8609,359.8835,273.7768,369.73,273.99" style="stroke:#181818;stroke-width:1;stroke-linejoin:miter;stroke-miterlimit:10;"/><text fill="#000000" font-family="sans-serif" font-size="13" lengthAdjust="spacing" textLength="132.2344" x="307" y="240.4951">existeDuplicado(datos)</text></g><!--link RecompensaController to RecompensaRepository--><g class="link" data-entity-1="ent0004" data-entity-2="ent0005" data-link-type="dependency" data-source-line="19" id="lnk13"><path d="M412.9,196.15 C427.06,209.74 444,226 444,226 C444,226 444,244 444,244 C444,244 434.7995,256.2596 424.6095,269.8496" fill="none" id="RecompensaController-to-RecompensaRepository-1" style="stroke:#181818;stroke-width:1;"/><polygon fill="#181818" points="421.61,273.85,430.2094,269.049,424.6095,269.8496,423.8089,264.2497,421.61,273.85" style="stroke:#181818;stroke-width:1;stroke-linejoin:miter;stroke-miterlimit:10;"/><text fill="#000000" font-family="sans-serif" font-size="13" lengthAdjust="spacing" textLength="96.1162" x="445" y="240.4951">guardar(entidad)</text></g><!--link RecompensaRepository to Recompensa--><g class="link" data-entity-1="ent0005" data-entity-2="ent0006" data-link-type="association" data-source-line="20" id="lnk14"><path d="M408,312.24 C408,329.59 408,355.52 408,372.84" fill="none" id="RecompensaRepository-Recompensa" style="stroke:#181818;stroke-width:1;"/></g><!--link CrearRecompensaView to EstadoSalida--><g class="link" data-entity-1="ent0003" data-entity-2="ent0007" data-link-type="dependency" data-source-line="21" id="lnk15"><path d="M523.03,80.01 C561.62,93.63 608,110 608,110 C608,110 667.5987,136.3944 711.7187,155.9444" fill="none" id="CrearRecompensaView-to-EstadoSalida" style="stroke:#181818;stroke-width:1;stroke-dasharray:7,7;"/><polygon fill="#181818" points="716.29,157.97,709.6821,150.6669,711.7187,155.9444,706.4411,157.981,716.29,157.97" style="stroke:#181818;stroke-width:1;stroke-linejoin:miter;stroke-miterlimit:10;"/><text fill="#000000" font-family="sans-serif" font-size="13" lengthAdjust="spacing" textLength="130.7935" x="648" y="124.4951">continuarNavegacion()</text></g><!--link CrearRecompensaView to AbrirRecompensa--><g class="link" data-entity-1="ent0003" data-entity-2="ent0008" data-link-type="dependency" data-source-line="22" id="lnk16"><path d="M556,74.8 C649.31,89.02 787,110 787,110 C787,110 873.5262,136.9332 936.2962,156.4832" fill="none" id="CrearRecompensaView-to-AbrirRecompensa" style="stroke:#181818;stroke-width:1;stroke-dasharray:7,7;"/><polygon fill="#181818" points="941.07,157.97,933.6666,151.4747,936.2962,156.4832,931.2877,159.1128,941.07,157.97" style="stroke:#181818;stroke-width:1;stroke-linejoin:miter;stroke-miterlimit:10;"/><text fill="#000000" font-family="sans-serif" font-size="13" lengthAdjust="spacing" textLength="111.2617" x="844" y="124.4951">abrirRecompensa()</text></g><?plantuml-src dP51Qy9048Nl-ok6zA87FKYLceCGumezr9Qaz5ecoH0MrzrbizfAwN_lMYWcSKLeRXc-ztRclMOhb46BEv12aJiQ0gFbyVJ3cANIeQebmLswuija2b6SyVJvwOLlyYH_JvQFF7jDyWYm0Tuuh3HNpcA5p62vnPgWj8GserBl3Aa6Js3Kcms64Nmny5_hlTbapjTpIBlecw2FFbbCYshs06SerNu7BINPFhgU9EazRw4P6Tq8f-tn9ig-R-Nn5qShZHoby664TAdV40jjqGcj82ciQDtvQz6RCTP964Psj0Zb4yD5lem5E1XLtY0KswL3XKutmx3BLPF3x_41cn3UypaN4mDzYiRHQc-aAFtz_tIfzsZzDWDIpczLjVLdpElRbOVk7OyNdN9zMFvveRpz1WzKO-dx70olQdkjne3TWPV-0000?></g></svg>