<svg xmlns="http://www.w3.org/2000/svg" xmlns:xlink="http://www.w3.org/1999/xlink" contentStyleType="text/css" data-diagram-type="DESCRIPTION" height="479px" preserveAspectRatio="none" style="width:1817px;height:479px;background:#FFFFFF;" version="1.1" viewBox="0 0 1817 479" width="1817px" zoomAndPan="magnify"><?plantuml 1.2026.5?><defs/><g><!--cluster crearRecompensa--><g class="cluster" data-qualified-name="crearRecompensa" data-source-line="4" id="ent0002"><path d="M235.5,6 L367.2236,6 A3.75,3.75 0 0 1 369.7236,8.5 L376.7236,29.6094 L1108.5,29.6094 A2.5,2.5 0 0 1 1111,32.1094 L1111,461.5 A2.5,2.5 0 0 1 1108.5,464 L235.5,464 A2.5,2.5 0 0 1 233,461.5 L233,8.5 A2.5,2.5 0 0 1 235.5,6" fill="none" style="stroke:#000000;stroke-width:1.5;"/><line style="stroke:#000000;stroke-width:1.5;" x1="233" x2="376.7236" y1="29.6094" y2="29.6094"/><text fill="#000000" font-family="sans-serif" font-size="14" font-weight="700" lengthAdjust="spacing" textLength="130.7236" x="237" y="22.5332">crearRecompensa()</text></g><!--entity CrearRecompensaView--><g class="entity" data-qualified-name="crearRecompensa.CrearRecompensaView" data-source-line="5" id="ent0003"><rect fill="#629EF9" height="37.6094" rx="2.5" ry="2.5" style="stroke:#181818;stroke-width:0.5;" width="167.8408" x="777" y="42"/><text fill="#000000" font-family="sans-serif" font-size="14" lengthAdjust="spacing" textLength="147.8408" x="787" y="66.5332">CrearRecompensaView</text></g><!--entity RecompensaController--><g class="entity" data-qualified-name="crearRecompensa.RecompensaController" data-source-line="6" id="ent0004"><rect fill="#B5BD68" height="37.6094" rx="2.5" ry="2.5" style="stroke:#181818;stroke-width:0.5;" width="163.1787" x="591.5" y="176.5"/><text fill="#000000" font-family="sans-serif" font-size="14" lengthAdjust="spacing" textLength="143.1787" x="601.5" y="201.0332">RecompensaController</text></g><!--entity RecompensaRepository--><g class="entity" data-qualified-name="crearRecompensa.RecompensaRepository" data-source-line="7" id="ent0005"><rect fill="#F2AC4E" height="37.6094" rx="2.5" ry="2.5" style="stroke:#181818;stroke-width:0.5;" width="169.4063" x="285.5" y="311"/><text fill="#000000" font-family="sans-serif" font-size="14" lengthAdjust="spacing" textLength="149.4063" x="295.5" y="335.5332">RecompensaRepository</text></g><!--entity ProyectoRepository--><g class="entity" data-qualified-name="crearRecompensa.ProyectoRepository" data-source-line="8" id="ent0006"><rect fill="#F2AC4E" height="37.6094" rx="2.5" ry="2.5" style="stroke:#181818;stroke-width:0.5;" width="142.165" x="525" y="311"/><text fill="#000000" font-family="sans-serif" font-size="14" lengthAdjust="spacing" textLength="122.165" x="535" y="335.5332">ProyectoRepository</text></g><!--entity InvestigadorRepository--><g class="entity" data-qualified-name="crearRecompensa.InvestigadorRepository" data-source-line="9" id="ent0007"><rect fill="#F2AC4E" height="37.6094" rx="2.5" ry="2.5" style="stroke:#181818;stroke-width:0.5;" width="163.1855" x="774.5" y="311"/><text fill="#000000" font-family="sans-serif" font-size="14" lengthAdjust="spacing" textLength="143.1855" x="784.5" y="335.5332">InvestigadorRepository</text></g><!--entity Recompensa--><g class="entity" data-qualified-name="crearRecompensa.Recompensa" data-source-line="10" id="ent0008"><rect fill="#F2AC4E" height="37.6094" rx="2.5" ry="2.5" style="stroke:#181818;stroke-width:0.5;" width="102.4893" x="319" y="410"/><text fill="#000000" font-family="sans-serif" font-size="14" lengthAdjust="spacing" textLength="82.4893" x="329" y="434.5332">Recompensa</text></g><!--entity Proyecto--><g class="entity" data-qualified-name="crearRecompensa.Proyecto" data-source-line="11" id="ent0009"><rect fill="#F2AC4E" height="37.6094" rx="2.5" ry="2.5" style="stroke:#181818;stroke-width:0.5;" width="75.248" x="558.5" y="410"/><text fill="#000000" font-family="sans-serif" font-size="14" lengthAdjust="spacing" textLength="55.248" x="568.5" y="434.5332">Proyecto</text></g><!--entity Investigador--><g class="entity" data-qualified-name="crearRecompensa.Investigador" data-source-line="12" id="ent0010"><rect fill="#F2AC4E" height="37.6094" rx="2.5" ry="2.5" style="stroke:#181818;stroke-width:0.5;" width="96.2686" x="808" y="410"/><text fill="#000000" font-family="sans-serif" font-size="14" lengthAdjust="spacing" textLength="76.2686" x="818" y="434.5332">Investigador</text></g><!--entity EstadoEntrada--><g class="entity" data-qualified-name="EstadoEntrada" data-source-line="3" id="ent0001"><rect fill="#CDEBA5" height="37.6094" rx="2.5" ry="2.5" style="stroke:#181818;stroke-width:0.5;" width="209.8271" x="7" y="42"/><text fill="#000000" font-family="sans-serif" font-size="14" lengthAdjust="spacing" textLength="189.8271" x="17" y="66.5332">:RECOMPENSAS_ABIERTAS</text></g><!--entity EstadoSalida--><g class="entity" data-qualified-name="EstadoSalida" data-source-line="15" id="ent0011"><rect fill="#CDEBA5" height="37.6094" rx="2.5" ry="2.5" style="stroke:#181818;stroke-width:0.5;" width="191.1514" x="1127.5" y="176.5"/><text fill="#000000" font-family="sans-serif" font-size="14" lengthAdjust="spacing" textLength="171.1514" x="1137.5" y="201.0332">:RECOMPENSA_ABIERTA</text></g><!--entity AbrirRecompensa--><g class="entity" data-qualified-name="AbrirRecompensa" data-source-line="16" id="ent0012"><rect fill="#CDEBA5" height="37.6094" rx="2.5" ry="2.5" style="stroke:#181818;stroke-width:0.5;" width="222.3232" x="1354" y="176.5"/><text fill="#000000" font-family="sans-serif" font-size="14" lengthAdjust="spacing" textLength="202.3232" x="1364" y="201.0332">:Collaboration AbrirRecompensa</text></g><g class="entity" data-qualified-name="GMN24" data-source-line="31" id="ent0025"><path d="M1611.5,158 L1611.5,233.4063 L1802.3252,233.4063 L1802.3252,168 L1792.3252,158 L1611.5,158" fill="#FEFFDD" style="stroke:#181818;stroke-width:0.5;"/><path d="M1792.3252,158 L1792.3252,168 L1802.3252,168 L1792.3252,158" fill="#FEFFDD" style="stroke:#181818;stroke-width:1;"/><text fill="#000000" font-family="sans-serif" font-size="13" lengthAdjust="spacing" textLength="106.228" x="1617.5" y="176.4951">Origen obligatorio:</text><text fill="#000000" font-family="sans-serif" font-size="13" lengthAdjust="spacing" textLength="128.6226" x="1617.5" y="192.8467">- proyecto completado</text><text fill="#000000" font-family="sans-serif" font-size="13" lengthAdjust="spacing" textLength="143.8062" x="1617.5" y="209.1982">- beneficiario identificado</text><text fill="#000000" font-family="sans-serif" font-size="13" lengthAdjust="spacing" textLength="169.8252" x="1617.5" y="225.5498">- no docente: solo economica</text></g><!--link EstadoEntrada to CrearRecompensaView--><g class="link" data-entity-1="ent0001" data-entity-2="ent0003" data-link-type="dependency" data-source-line="18" id="lnk13"><path d="M217.33,61 C367.32,61 634.45,61 771.84,61" fill="none" id="EstadoEntrada-to-CrearRecompensaView" style="stroke:#181818;stroke-width:1;"/><polygon fill="#181818" points="776.84,61,767.84,57,771.84,61,767.84,65,776.84,61" style="stroke:#181818;stroke-width:1;stroke-linejoin:miter;stroke-miterlimit:10;"/><text fill="#000000" font-family="sans-serif" font-size="13" lengthAdjust="spacing" textLength="114.8735" x="440" y="54.4951">crearRecompensa()</text></g><!--link CrearRecompensaView to RecompensaController--><g class="link" data-entity-1="ent0003" data-entity-2="ent0004" data-link-type="dependency" data-source-line="20" id="lnk14"><path d="M789.34,80.01 C735.14,93.63 670,110 670,110 C670,110 670,128 670,128 C670,128 671.0642,151.6451 671.9542,171.3351" fill="none" id="CrearRecompensaView-to-RecompensaController" style="stroke:#181818;stroke-width:1;"/><polygon fill="#181818" points="672.18,176.33,675.7695,167.1586,671.9542,171.3351,667.7777,167.5198,672.18,176.33" style="stroke:#181818;stroke-width:1;stroke-linejoin:miter;stroke-miterlimit:10;"/><text fill="#000000" font-family="sans-serif" font-size="13" lengthAdjust="spacing" textLength="146.6753" x="671" y="124.4951">crearRecompensa(datos)</text></g><!--link CrearRecompensaView to RecompensaController--><g class="link" data-entity-1="ent0003" data-entity-2="ent0004" data-link-type="dependency" data-source-line="21" id="lnk15"><path d="M850.34,80.03 C838.8,99.58 822,128 822,128 C822,128 762.3959,154.6023 718.2759,174.2923" fill="none" id="CrearRecompensaView-to-RecompensaController-1" style="stroke:#181818;stroke-width:1;"/><polygon fill="#181818" points="713.71,176.33,723.5588,176.3149,718.2759,174.2923,720.2985,169.0094,713.71,176.33" style="stroke:#181818;stroke-width:1;stroke-linejoin:miter;stroke-miterlimit:10;"/><text fill="#000000" font-family="sans-serif" font-size="13" lengthAdjust="spacing" textLength="155.3525" x="833" y="124.4951">validarRecompensa(datos)</text></g><!--link RecompensaController to ProyectoRepository--><g class="link" data-entity-1="ent0004" data-entity-2="ent0006" data-link-type="dependency" data-source-line="22" id="lnk16"><path d="M651.14,214.67 C627.45,234.36 593,263 593,263 C593,263 593,281 593,281 C593,281 593.7079,292.2698 594.5579,305.8598" fill="none" id="RecompensaController-to-ProyectoRepository" style="stroke:#181818;stroke-width:1;"/><polygon fill="#181818" points="594.87,310.85,598.3004,301.6179,594.5579,305.8598,590.316,302.1172,594.87,310.85" style="stroke:#181818;stroke-width:1;stroke-linejoin:miter;stroke-miterlimit:10;"/><text fill="#000000" font-family="sans-serif" font-size="13" lengthAdjust="spacing" textLength="218.9624" x="594" y="277.4951">obtenerCompletado(datos.proyectoId)</text></g><!--link RecompensaController to InvestigadorRepository--><g class="link" data-entity-1="ent0004" data-entity-2="ent0007" data-link-type="dependency" data-source-line="23" id="lnk17"><path d="M712.35,214.67 C754.98,234.36 817,263 817,263 C817,263 831.2584,287.1142 842.7984,306.6642" fill="none" id="RecompensaController-to-InvestigadorRepository" style="stroke:#181818;stroke-width:1;"/><polygon fill="#181818" points="845.34,310.97,844.2097,301.1862,842.7984,306.6642,837.3204,305.2528,845.34,310.97" style="stroke:#181818;stroke-width:1;stroke-linejoin:miter;stroke-miterlimit:10;"/><text fill="#000000" font-family="sans-serif" font-size="13" lengthAdjust="spacing" textLength="237.0278" x="828" y="277.4951">obtenerBeneficiario(datos.investigadorId)</text></g><!--link RecompensaController to RecompensaController--><g class="link" data-entity-1="ent0004" data-entity-2="ent0004" data-link-type="dependency" data-source-line="24" id="lnk18"><path d="M754.66,181.47 C774.63,182.51 789.5,187.19 789.5,195.5 C789.5,203.81 779.6232,208.23 759.6532,209.27" fill="none" id="RecompensaController-to-RecompensaController" style="stroke:#181818;stroke-width:1;"/><polygon fill="#181818" points="754.66,209.53,763.8559,213.0565,759.6532,209.27,763.4398,205.0673,754.66,209.53" style="stroke:#181818;stroke-width:1;stroke-linejoin:miter;stroke-miterlimit:10;"/><text fill="#000000" font-family="sans-serif" font-size="13" lengthAdjust="spacing" textLength="177.7598" x="795.5" y="200.9951">validarTipoSegunBeneficiario()</text></g><!--link RecompensaController to RecompensaRepository--><g class="link" data-entity-1="ent0004" data-entity-2="ent0005" data-link-type="dependency" data-source-line="25" id="lnk19"><path d="M591.3,210.36 C476.42,229.85 281,263 281,263 C281,263 281,281 281,281 C281,281 306.949,294.997 332.209,308.617" fill="none" id="RecompensaController-to-RecompensaRepository" style="stroke:#181818;stroke-width:1;"/><polygon fill="#181818" points="336.61,310.99,330.5866,303.1978,332.209,308.617,326.7898,310.2394,336.61,310.99" style="stroke:#181818;stroke-width:1;stroke-linejoin:miter;stroke-miterlimit:10;"/><text fill="#000000" font-family="sans-serif" font-size="13" lengthAdjust="spacing" textLength="132.2344" x="282" y="277.4951">existeDuplicado(datos)</text></g><!--link RecompensaController to RecompensaRepository--><g class="link" data-entity-1="ent0004" data-entity-2="ent0005" data-link-type="dependency" data-source-line="26" id="lnk20"><path d="M622.17,214.67 C567.1,234.36 487,263 487,263 C487,263 440.9644,288.9625 406.3244,308.5125" fill="none" id="RecompensaController-to-RecompensaRepository-1" style="stroke:#181818;stroke-width:1;"/><polygon fill="#181818" points="401.97,310.97,411.7739,310.03,406.3244,308.5125,407.8419,303.063,401.97,310.97" style="stroke:#181818;stroke-width:1;stroke-linejoin:miter;stroke-miterlimit:10;"/><text fill="#000000" font-family="sans-serif" font-size="13" lengthAdjust="spacing" textLength="96.1162" x="488" y="277.4951">guardar(entidad)</text></g><!--link RecompensaRepository to Recompensa--><g class="link" data-entity-1="ent0005" data-entity-2="ent0008" data-link-type="association" data-source-line="27" id="lnk21"><path d="M370,349.24 C370,366.59 370,392.52 370,409.84" fill="none" id="RecompensaRepository-Recompensa" style="stroke:#181818;stroke-width:1;"/></g><!--link ProyectoRepository to Proyecto--><g class="link" data-entity-1="ent0006" data-entity-2="ent0009" data-link-type="association" data-source-line="28" id="lnk22"><path d="M596,349.24 C596,366.59 596,392.52 596,409.84" fill="none" id="ProyectoRepository-Proyecto" style="stroke:#181818;stroke-width:1;"/></g><!--link InvestigadorRepository to Investigador--><g class="link" data-entity-1="ent0007" data-entity-2="ent0010" data-link-type="association" data-source-line="29" id="lnk23"><path d="M856,349.24 C856,366.59 856,392.52 856,409.84" fill="none" id="InvestigadorRepository-Investigador" style="stroke:#181818;stroke-width:1;"/></g><!--link RecompensaController to GMN24--><g class="link" data-entity-1="ent0004" data-entity-2="ent0025" data-link-type="association" data-source-line="31" id="lnk26"><path d="M754.52,181.78 C885.31,159.76 1127.5,119 1127.5,119 C1127.5,119 1576.5,119 1576.5,119 C1576.5,119 1609.89,138.58 1642.9,157.92" fill="none" id="RecompensaController-GMN24" style="stroke:#181818;stroke-width:1;stroke-dasharray:7,7;"/></g><!--link CrearRecompensaView to EstadoSalida--><g class="link" data-entity-1="ent0003" data-entity-2="ent0011" data-link-type="dependency" data-source-line="36" id="lnk27"><path d="M912.03,80.01 C950.62,93.63 997,110 997,110 C997,110 1103.7368,149.9086 1170.1068,174.7286" fill="none" id="CrearRecompensaView-to-EstadoSalida" style="stroke:#181818;stroke-width:1;stroke-dasharray:7,7;"/><polygon fill="#181818" points="1174.79,176.48,1167.7613,169.581,1170.1068,174.7286,1164.9591,177.0741,1174.79,176.48" style="stroke:#181818;stroke-width:1;stroke-linejoin:miter;stroke-miterlimit:10;"/><text fill="#000000" font-family="sans-serif" font-size="13" lengthAdjust="spacing" textLength="130.7935" x="1041" y="124.4951">continuarNavegacion()</text></g><!--link CrearRecompensaView to AbrirRecompensa--><g class="link" data-entity-1="ent0003" data-entity-2="ent0012" data-link-type="dependency" data-source-line="37" id="lnk28"><path d="M945.23,74.67 C1039.74,88.9 1180,110 1180,110 C1180,110 1315.7163,150.2385 1399.4163,175.0585" fill="none" id="CrearRecompensaView-to-AbrirRecompensa" style="stroke:#181818;stroke-width:1;stroke-dasharray:7,7;"/><polygon fill="#181818" points="1404.21,176.48,1396.7186,170.0864,1399.4163,175.0585,1394.4442,177.7563,1404.21,176.48" style="stroke:#181818;stroke-width:1;stroke-linejoin:miter;stroke-miterlimit:10;"/><text fill="#000000" font-family="sans-serif" font-size="13" lengthAdjust="spacing" textLength="111.2617" x="1235" y="124.4951">abrirRecompensa()</text></g><?plantuml-src bLHDRzf04BtlhnZH2npW42LHuqCaupWIXoOHZdgDnlRWh69shFL2Ywh-zuvf0TiiaFfWoJDltdoy6TSVsbHeSGcbDkGs5K75vQRvKCfIvj0K9S6Nw26UXZSm2EPnzFpj9NvAmkGjdCxY-MkO301hY6k7ESV6MSnHLPXzO46GMK8xfuoN5PaQ6-2WPnkE1l1BWJojVBTNT_7Z7KHTw7TDF_h8z2RDRx_20HInrC1bIROFVRmAe-ku1PrJnRLsR3Sde2-MDsBaYy2PMLFjT24Zi1V1Xm8kfFr4ClNxaauxcLeg9LXg4SaN5ydaC6MBJhE1CBMwDVyjHS-cL4Tv6DlnlK-t08vqLyg3Wt4k13uvZnboT5oF_2mdITRRvZqqFlYMvtWB0k3KaI4RIKH9JVz_MIRLF-miFqFetvOzwLHU2vrfj7f7griHPwdFzlogAqweM9bEXa-njSkadxfszB2gIftjE_zlbcA5LceQad5IMwUd0qpYs-Toh4G3s9-BVwuDf7CoXXs1rSMx0rxu_npFuYOZWfGI8oIQ0pM6dRYGxMKNQzeQ9kYywMUn7Opu34FEcPWeW9fB1abcU2bkHIQ7fXBl-auczvrRbTsNuhIHcJtXcWhCv3o7evEnlICD0Bi62Vq3?></g></svg>