<svg xmlns="http://www.w3.org/2000/svg" xmlns:xlink="http://www.w3.org/1999/xlink" contentStyleType="text/css" data-diagram-type="DESCRIPTION" height="558px" preserveAspectRatio="none" style="width:1582px;height:558px;background:#FFFFFF;" version="1.1" viewBox="0 0 1582 558" width="1582px" zoomAndPan="magnify"><?plantuml 1.2026.6?><defs/><g><!--cluster solicitarEliminacionPerfil--><g class="cluster" data-qualified-name="solicitarEliminacionPerfil" data-source-line="4" id="ent0002"><path d="M249.5,6 L427.0996,6 A3.75,3.75 0 0 1 429.5996,8.5 L436.5996,29.6094 L1137.5,29.6094 A2.5,2.5 0 0 1 1140,32.1094 L1140,540.5 A2.5,2.5 0 0 1 1137.5,543 L249.5,543 A2.5,2.5 0 0 1 247,540.5 L247,8.5 A2.5,2.5 0 0 1 249.5,6" fill="none" style="stroke:#000000;stroke-width:1.5;"/><line style="stroke:#000000;stroke-width:1.5;" x1="247" x2="436.5996" y1="29.6094" y2="29.6094"/><text fill="#000000" font-family="sans-serif" font-size="14" font-weight="700" lengthAdjust="spacing" textLength="176.5996" x="251" y="22.5332">solicitarEliminacionPerfil()</text></g><!--entity SolicitarEliminacionPerfilView--><g class="entity" data-qualified-name="solicitarEliminacionPerfil.SolicitarEliminacionPerfilView" data-source-line="5" id="ent0003"><rect fill="#629EF9" height="37.6094" rx="2.5" ry="2.5" style="stroke:#181818;stroke-width:0.5;" width="203.6201" x="805" y="42"/><text fill="#000000" font-family="sans-serif" font-size="14" lengthAdjust="spacing" textLength="183.6201" x="815" y="66.5332">SolicitarEliminacionPerfilView</text></g><!--entity PerfilController--><g class="entity" data-qualified-name="solicitarEliminacionPerfil.PerfilController" data-source-line="6" id="ent0004"><rect fill="#B5BD68" height="37.6094" rx="2.5" ry="2.5" style="stroke:#181818;stroke-width:0.5;" width="112.5859" x="628.5" y="158"/><text fill="#000000" font-family="sans-serif" font-size="14" lengthAdjust="spacing" textLength="92.5859" x="638.5" y="182.5332">PerfilController</text></g><!--entity PerfilService--><g class="entity" data-qualified-name="solicitarEliminacionPerfil.PerfilService" data-source-line="7" id="ent0005"><rect fill="#B5BD68" height="37.6094" rx="2.5" ry="2.5" style="stroke:#181818;stroke-width:0.5;" width="98.5791" x="271.5" y="274"/><text fill="#000000" font-family="sans-serif" font-size="14" lengthAdjust="spacing" textLength="78.5791" x="281.5" y="298.5332">PerfilService</text></g><!--entity SesionService--><g class="entity" data-qualified-name="solicitarEliminacionPerfil.SesionService" data-source-line="8" id="ent0006"><rect fill="#B5BD68" height="37.6094" rx="2.5" ry="2.5" style="stroke:#181818;stroke-width:0.5;" width="109.4893" x="667.5" y="274"/><text fill="#000000" font-family="sans-serif" font-size="14" lengthAdjust="spacing" textLength="89.4893" x="677.5" y="298.5332">SesionService</text></g><!--entity PerfilRepository--><g class="entity" data-qualified-name="solicitarEliminacionPerfil.PerfilRepository" data-source-line="9" id="ent0007"><rect fill="#F2AC4E" height="37.6094" rx="2.5" ry="2.5" style="stroke:#181818;stroke-width:0.5;" width="118.8135" x="263.5" y="390"/><text fill="#000000" font-family="sans-serif" font-size="14" lengthAdjust="spacing" textLength="98.8135" x="273.5" y="414.5332">PerfilRepository</text></g><!--entity Perfil--><g class="entity" data-qualified-name="solicitarEliminacionPerfil.Perfil" data-source-line="10" id="ent0008"><rect fill="#F2AC4E" height="37.6094" rx="2.5" ry="2.5" style="stroke:#181818;stroke-width:0.5;" width="51.8965" x="297" y="489"/><text fill="#000000" font-family="sans-serif" font-size="14" lengthAdjust="spacing" textLength="31.8965" x="307" y="513.5332">Perfil</text></g><!--entity SolicitudEliminacionPerfilRepository--><g class="entity" data-qualified-name="solicitarEliminacionPerfil.SolicitudEliminacionPerfilRepository" data-source-line="11" id="ent0009"><rect fill="#F2AC4E" height="37.6094" rx="2.5" ry="2.5" style="stroke:#181818;stroke-width:0.5;" width="243.3164" x="419.5" y="390"/><text fill="#000000" font-family="sans-serif" font-size="14" lengthAdjust="spacing" textLength="223.3164" x="429.5" y="414.5332">SolicitudEliminacionPerfilRepository</text></g><!--entity SolicitudEliminacionPerfil--><g class="entity" data-qualified-name="solicitarEliminacionPerfil.SolicitudEliminacionPerfil" data-source-line="12" id="ent0010"><rect fill="#F2AC4E" height="37.6094" rx="2.5" ry="2.5" style="stroke:#181818;stroke-width:0.5;" width="176.3994" x="453" y="489"/><text fill="#000000" font-family="sans-serif" font-size="14" lengthAdjust="spacing" textLength="156.3994" x="463" y="513.5332">SolicitudEliminacionPerfil</text></g><!--entity EstadoEntrada--><g class="entity" data-qualified-name="EstadoEntrada" data-source-line="3" id="ent0001"><rect fill="#CDEBA5" height="37.6094" rx="2.5" ry="2.5" style="stroke:#181818;stroke-width:0.5;" width="223.834" x="7" y="42"/><text fill="#000000" font-family="sans-serif" font-size="14" lengthAdjust="spacing" textLength="203.834" x="17" y="66.5332">:OPCIONES_PERFIL_ABIERTO</text></g><!--entity EstadoSalidaExitosa--><g class="entity" data-qualified-name="EstadoSalidaExitosa" data-source-line="15" id="ent0011"><rect fill="#CDEBA5" height="37.6094" rx="2.5" ry="2.5" style="stroke:#181818;stroke-width:0.5;" width="153.0342" x="1156.5" y="158"/><text fill="#000000" font-family="sans-serif" font-size="14" lengthAdjust="spacing" textLength="133.0342" x="1166.5" y="182.5332">:SESION_CERRADA</text></g><!--entity EstadoSalidaCancelada--><g class="entity" data-qualified-name="EstadoSalidaCancelada" data-source-line="16" id="ent0012"><rect fill="#CDEBA5" height="37.6094" rx="2.5" ry="2.5" style="stroke:#181818;stroke-width:0.5;" width="223.834" x="1345" y="158"/><text fill="#000000" font-family="sans-serif" font-size="14" lengthAdjust="spacing" textLength="203.834" x="1355" y="182.5332">:OPCIONES_PERFIL_ABIERTO</text></g><!--link EstadoEntrada to SolicitarEliminacionPerfilView--><g class="link" data-entity-1="ent0001" data-entity-2="ent0003" data-link-type="dependency" data-source-line="19" id="lnk13"><path d="M231.06,61 C384.24,61 651.82,61 799.71,61" fill="none" id="EstadoEntrada-to-SolicitarEliminacionPerfilView" style="stroke:#181818;stroke-width:1;"/><polygon fill="#181818" points="804.71,61,795.71,57,799.71,61,795.71,65,804.71,61" style="stroke:#181818;stroke-width:1;stroke-linejoin:miter;stroke-miterlimit:10;"/><text fill="#000000" font-family="sans-serif" font-size="13" lengthAdjust="spacing" textLength="148.8145" x="444" y="54.4951">solicitarEliminacionPerfil()</text></g><!--link SolicitarEliminacionPerfilView to PerfilController--><g class="link" data-entity-1="ent0003" data-entity-2="ent0004" data-link-type="dependency" data-source-line="21" id="lnk14"><path d="M822.58,80.01 C758.73,93.63 682,110 682,110 C682,110 682,128 682,128 C682,128 682.7079,139.2698 683.5579,152.8598" fill="none" id="SolicitarEliminacionPerfilView-to-PerfilController" style="stroke:#181818;stroke-width:1;"/><polygon fill="#181818" points="683.87,157.85,687.3004,148.6179,683.5579,152.8598,679.316,149.1172,683.87,157.85" style="stroke:#181818;stroke-width:1;stroke-linejoin:miter;stroke-miterlimit:10;"/><text fill="#000000" font-family="sans-serif" font-size="13" lengthAdjust="spacing" textLength="180.6162" x="683" y="124.4951">solicitarEliminacionPerfil(datos)</text></g><!--link SolicitarEliminacionPerfilView to PerfilController--><g class="link" data-entity-1="ent0003" data-entity-2="ent0004" data-link-type="dependency" data-source-line="25" id="lnk18"><path d="M896.34,80.03 C884.8,99.58 868,128 868,128 C868,128 800.4564,145.7215 746.7364,159.8115" fill="none" id="SolicitarEliminacionPerfilView-to-PerfilController-1" style="stroke:#181818;stroke-width:1;"/><polygon fill="#181818" points="741.9,161.08,751.6204,162.6658,746.7364,159.8115,749.5907,154.9275,741.9,161.08" style="stroke:#181818;stroke-width:1;stroke-linejoin:miter;stroke-miterlimit:10;"/><text fill="#000000" font-family="sans-serif" font-size="13" lengthAdjust="spacing" textLength="127.8926" x="879" y="124.4951">validarSolicitud(datos)</text></g><!--link PerfilController to SesionService--><g class="link" data-entity-1="ent0004" data-entity-2="ent0006" data-link-type="dependency" data-source-line="22" id="lnk15"><path d="M650.86,196.01 C625.03,209.63 594,226 594,226 C594,226 594,244 594,244 C594,244 632.9684,258.6144 669.2884,272.2344" fill="none" id="PerfilController-to-SesionService" style="stroke:#181818;stroke-width:1;"/><polygon fill="#181818" points="673.97,273.99,666.9475,267.0846,669.2884,272.2344,664.1385,274.5752,673.97,273.99" style="stroke:#181818;stroke-width:1;stroke-linejoin:miter;stroke-miterlimit:10;"/><text fill="#000000" font-family="sans-serif" font-size="13" lengthAdjust="spacing" textLength="209.5806" x="595" y="240.4951">obtenerSesionActual(authentication)</text></g><!--link PerfilController to SesionService--><g class="link" data-entity-1="ent0004" data-entity-2="ent0006" data-link-type="dependency" data-source-line="24" id="lnk17"><path d="M731.53,196.01 C766.71,209.63 809,226 809,226 C809,226 809,244 809,244 C809,244 783.9082,257.8452 759.2682,271.4352" fill="none" id="PerfilController-to-SesionService-1" style="stroke:#181818;stroke-width:1;"/><polygon fill="#181818" points="754.89,273.85,764.7026,273.006,759.2682,271.4352,760.839,266.0008,754.89,273.85" style="stroke:#181818;stroke-width:1;stroke-linejoin:miter;stroke-miterlimit:10;"/><text fill="#000000" font-family="sans-serif" font-size="13" lengthAdjust="spacing" textLength="274.5933" x="810" y="240.4951">cerrarSesion(request, response, authentication)</text></g><!--link PerfilController to PerfilService--><g class="link" data-entity-1="ent0004" data-entity-2="ent0005" data-link-type="dependency" data-source-line="23" id="lnk16"><path d="M628.27,185.61 C527.33,199.14 327,226 327,226 C327,226 324.8734,249.4406 323.0934,268.9906" fill="none" id="PerfilController-to-PerfilService" style="stroke:#181818;stroke-width:1;"/><polygon fill="#181818" points="322.64,273.97,327.4396,265.3698,323.0934,268.9906,319.4725,264.6444,322.64,273.97" style="stroke:#181818;stroke-width:1;stroke-linejoin:miter;stroke-miterlimit:10;"/><text fill="#000000" font-family="sans-serif" font-size="13" lengthAdjust="spacing" textLength="257.937" x="328" y="240.4951">solicitarEliminacionPerfil(investigador, datos)</text></g><!--link PerfilService to PerfilRepository--><g class="link" data-entity-1="ent0005" data-entity-2="ent0007" data-link-type="dependency" data-source-line="26" id="lnk19"><path d="M319.87,312.15 C319.02,325.74 318,342 318,342 C318,342 318,360 318,360 C318,360 319.1704,371.2871 320.5904,384.8771" fill="none" id="PerfilService-to-PerfilRepository" style="stroke:#181818;stroke-width:1;"/><polygon fill="#181818" points="321.11,389.85,324.153,380.483,320.5904,384.8771,316.1964,381.3144,321.11,389.85" style="stroke:#181818;stroke-width:1;stroke-linejoin:miter;stroke-miterlimit:10;"/><text fill="#000000" font-family="sans-serif" font-size="13" lengthAdjust="spacing" textLength="178.4834" x="319" y="356.4951">existeSolicitudPendiente(perfil)</text></g><!--link PerfilService to SolicitudEliminacionPerfilRepository--><g class="link" data-entity-1="ent0005" data-entity-2="ent0009" data-link-type="dependency" data-source-line="27" id="lnk20"><path d="M370.94,307.24 C424.51,321.45 502,342 502,342 C502,342 516.2584,366.1142 527.7984,385.6642" fill="none" id="PerfilService-to-SolicitudEliminacionPerfilRepository" style="stroke:#181818;stroke-width:1;"/><polygon fill="#181818" points="530.34,389.97,529.2097,380.1862,527.7984,385.6642,522.3204,384.2528,530.34,389.97" style="stroke:#181818;stroke-width:1;stroke-linejoin:miter;stroke-miterlimit:10;"/><text fill="#000000" font-family="sans-serif" font-size="13" lengthAdjust="spacing" textLength="100.4326" x="513" y="356.4951">guardar(solicitud)</text></g><!--link PerfilRepository to Perfil--><g class="link" data-entity-1="ent0007" data-entity-2="ent0008" data-link-type="association" data-source-line="28" id="lnk21"><path d="M323,428.24 C323,445.59 323,471.52 323,488.84" fill="none" id="PerfilRepository-Perfil" style="stroke:#181818;stroke-width:1;"/></g><!--link SolicitudEliminacionPerfilRepository to SolicitudEliminacionPerfil--><g class="link" data-entity-1="ent0009" data-entity-2="ent0010" data-link-type="association" data-source-line="29" id="lnk22"><path d="M541,428.24 C541,445.59 541,471.52 541,488.84" fill="none" id="SolicitudEliminacionPerfilRepository-SolicitudEliminacionPerfil" style="stroke:#181818;stroke-width:1;"/></g><!--link SolicitarEliminacionPerfilView to EstadoSalidaExitosa--><g class="link" data-entity-1="ent0003" data-entity-2="ent0011" data-link-type="dependency" data-source-line="30" id="lnk23"><path d="M958.66,80.06 C1019.61,101.38 1115.6302,134.9596 1176.6002,156.2796" fill="none" id="SolicitarEliminacionPerfilView-to-EstadoSalidaExitosa" style="stroke:#181818;stroke-width:1;stroke-dasharray:7,7;"/><polygon fill="#181818" points="1181.32,157.93,1174.1448,151.1835,1176.6002,156.2796,1171.5041,158.7351,1181.32,157.93" style="stroke:#181818;stroke-width:1;stroke-linejoin:miter;stroke-miterlimit:10;"/><text fill="#000000" font-family="sans-serif" font-size="13" lengthAdjust="spacing" textLength="102.6035" x="1090" y="124.4951">solicitudEnviada()</text></g><!--link SolicitarEliminacionPerfilView to EstadoSalidaCancelada--><g class="link" data-entity-1="ent0003" data-entity-2="ent0012" data-link-type="dependency" data-source-line="31" id="lnk24"><path d="M1009,78.65 C1093.92,92.52 1201,110 1201,110 C1201,110 1306.4084,137.1713 1382.2084,156.7213" fill="none" id="SolicitarEliminacionPerfilView-to-EstadoSalidaCancelada" style="stroke:#181818;stroke-width:1;stroke-dasharray:7,7;"/><polygon fill="#181818" points="1387.05,157.97,1379.3342,151.8491,1382.2084,156.7213,1377.3362,159.5956,1387.05,157.97" style="stroke:#181818;stroke-width:1;stroke-linejoin:miter;stroke-miterlimit:10;"/><text fill="#000000" font-family="sans-serif" font-size="13" lengthAdjust="spacing" textLength="106.9326" x="1270" y="124.4951">cancelarSolicitud()</text></g><?plantuml-src dLDDJ-Cm5BpxLpoLIogr7D2280Ua45ofqcfR9QkzLg_Ess9XxApj52h4Vr-7Vf1scnIsfpIP6O_Vp7EFKfTeyGcKrEHN9K5frAh-mvWbuL4l5C5PUi_laalenPDfEfxyuFbiohFH-FiikHlpxEUa1-Y0Eu-5uTfRB92LA1vnGU2Caa9wj5p99wbHIAEdP7zBLNDwxP-ZVWzU6OHVmyZLnGqVtK3UolebwVcGDB-S5rVNi0Qa9XWqIf7jXELabr9G2oOd5qvimOmkalGRt-XaL1edlR6hJbZBnyqzg-AVUvxKRQUoj-FPvZmFsSvIdcN9VTA8D4Sb2-GluJY7_rcBjKQAMf2gwy7ONbrWQ8Ut9sADeQiiZ7MpOLY44muxqAbPOBXmdnroO5XRRJOW1ZFtfCcktoR2LwWYhFm3QIy5-l2oHMUlRPrkf5wIyt8HXcO7y0LlWgp5ZRN8qfygo0n2OrnfjAC17FeyDSUZOro-vsjthTiVtiPBW_lHtnZeHJfFE-gKT2638OhAT-WnaSyiHWoB2cqm5RajUYlr0GfgsnNyZ6ODxzYi4wCxFxyzjbAxs8EaNigm3b7_grAxpGfvhnyRMOJb-0i0?></g></svg>