<svg xmlns="http://www.w3.org/2000/svg" xmlns:xlink="http://www.w3.org/1999/xlink" contentStyleType="text/css" data-diagram-type="DESCRIPTION" height="434px" preserveAspectRatio="none" style="width:1111px;height:434px;background:#FFFFFF;" version="1.1" viewBox="0 0 1111 434" width="1111px" zoomAndPan="magnify"><defs/><g><!--cluster solicitarEliminacionPerfil--><g class="cluster" data-entity="solicitarEliminacionPerfil" data-source-line="4" data-uid="ent0003" id="cluster_solicitarEliminacionPerfil"><path d="M249.5,6 L427.0996,6 A3.75,3.75 0 0 1 429.5996,8.5 L436.5996,29.6094 L674.5,29.6094 A2.5,2.5 0 0 1 677,32.1094 L677,424.5 A2.5,2.5 0 0 1 674.5,427 L249.5,427 A2.5,2.5 0 0 1 247,424.5 L247,8.5 A2.5,2.5 0 0 1 249.5,6" fill="none" style="stroke:#000000;stroke-width:1.5;"/><line style="stroke:#000000;stroke-width:1.5;" x1="247" x2="436.5996" y1="29.6094" y2="29.6094"/><text fill="#000000" font-family="sans-serif" font-size="14" font-weight="bold" lengthAdjust="spacing" textLength="176.5996" x="251" y="22.5332">solicitarEliminacionPerfil()</text></g><!--entity SolicitarEliminacionPerfilView--><g class="entity" data-entity="SolicitarEliminacionPerfilView" data-source-line="5" data-uid="ent0004" id="entity_SolicitarEliminacionPerfilView"><rect fill="#629EF9" height="37.6094" rx="2.5" ry="2.5" style="stroke:#181818;stroke-width:0.5;" width="203.6201" x="430" y="42"/><text fill="#000000" font-family="sans-serif" font-size="14" lengthAdjust="spacing" textLength="183.6201" x="440" y="66.5332">SolicitarEliminacionPerfilView</text></g><!--entity PerfilController--><g class="entity" data-entity="PerfilController" data-source-line="6" data-uid="ent0005" id="entity_PerfilController"><rect fill="#B5BD68" height="37.6094" rx="2.5" ry="2.5" style="stroke:#181818;stroke-width:0.5;" width="112.5859" x="369.5" y="158"/><text fill="#000000" font-family="sans-serif" font-size="14" lengthAdjust="spacing" textLength="92.5859" x="379.5" y="182.5332">PerfilController</text></g><!--entity PerfilRepository--><g class="entity" data-entity="PerfilRepository" data-source-line="7" data-uid="ent0006" id="entity_PerfilRepository"><rect fill="#F2AC4E" height="37.6094" rx="2.5" ry="2.5" style="stroke:#181818;stroke-width:0.5;" width="118.8135" x="263.5" y="274"/><text fill="#000000" font-family="sans-serif" font-size="14" lengthAdjust="spacing" textLength="98.8135" x="273.5" y="298.5332">PerfilRepository</text></g><!--entity Perfil--><g class="entity" data-entity="Perfil" data-source-line="8" data-uid="ent0007" id="entity_Perfil"><rect fill="#F2AC4E" height="37.6094" rx="2.5" ry="2.5" style="stroke:#181818;stroke-width:0.5;" width="51.8965" x="297" y="373"/><text fill="#000000" font-family="sans-serif" font-size="14" lengthAdjust="spacing" textLength="31.8965" x="307" y="397.5332">Perfil</text></g><!--entity SolicitudEliminacionPerfilRepository--><g class="entity" data-entity="SolicitudEliminacionPerfilRepository" data-source-line="9" data-uid="ent0008" id="entity_SolicitudEliminacionPerfilRepository"><rect fill="#F2AC4E" height="37.6094" rx="2.5" ry="2.5" style="stroke:#181818;stroke-width:0.5;" width="243.3164" x="417.5" y="274"/><text fill="#000000" font-family="sans-serif" font-size="14" lengthAdjust="spacing" textLength="223.3164" x="427.5" y="298.5332">SolicitudEliminacionPerfilRepository</text></g><!--entity SolicitudEliminacionPerfil--><g class="entity" data-entity="SolicitudEliminacionPerfil" data-source-line="10" data-uid="ent0009" id="entity_SolicitudEliminacionPerfil"><rect fill="#F2AC4E" height="37.6094" rx="2.5" ry="2.5" style="stroke:#181818;stroke-width:0.5;" width="176.3994" x="451" y="373"/><text fill="#000000" font-family="sans-serif" font-size="14" lengthAdjust="spacing" textLength="156.3994" x="461" y="397.5332">SolicitudEliminacionPerfil</text></g><!--entity EstadoEntrada--><g class="entity" data-entity="EstadoEntrada" data-source-line="3" data-uid="ent0002" id="entity_EstadoEntrada"><rect fill="#CDEBA5" height="37.6094" rx="2.5" ry="2.5" style="stroke:#181818;stroke-width:0.5;" width="223.834" x="7" y="42"/><text fill="#000000" font-family="sans-serif" font-size="14" lengthAdjust="spacing" textLength="203.834" x="17" y="66.5332">:OPCIONES_PERFIL_ABIERTO</text></g><!--entity EstadoSalidaExitosa--><g class="entity" data-entity="EstadoSalidaExitosa" data-source-line="13" data-uid="ent0010" id="entity_EstadoSalidaExitosa"><rect fill="#CDEBA5" height="37.6094" rx="2.5" ry="2.5" style="stroke:#181818;stroke-width:0.5;" width="153.0342" x="693.5" y="158"/><text fill="#000000" font-family="sans-serif" font-size="14" lengthAdjust="spacing" textLength="133.0342" x="703.5" y="182.5332">:SESION_CERRADA</text></g><!--entity EstadoSalidaCancelada--><g class="entity" data-entity="EstadoSalidaCancelada" data-source-line="14" data-uid="ent0011" id="entity_EstadoSalidaCancelada"><rect fill="#CDEBA5" height="37.6094" rx="2.5" ry="2.5" style="stroke:#181818;stroke-width:0.5;" width="223.834" x="882" y="158"/><text fill="#000000" font-family="sans-serif" font-size="14" lengthAdjust="spacing" textLength="203.834" x="892" y="182.5332">:OPCIONES_PERFIL_ABIERTO</text></g><!--link EstadoEntrada to SolicitarEliminacionPerfilView--><g class="link" data-entity-1="EstadoEntrada" data-entity-2="SolicitarEliminacionPerfilView" data-source-line="17" data-uid="lnk12" id="link_EstadoEntrada_SolicitarEliminacionPerfilView"><path d="M231.04,61 C293.02,61 363.49,61 423.83,61" fill="none" id="EstadoEntrada-to-SolicitarEliminacionPerfilView" style="stroke:#181818;stroke-width:1;"/><polygon fill="#181818" points="429.83,61,420.83,57,424.83,61,420.83,65,429.83,61" style="stroke:#181818;stroke-width:1;"/><text fill="#000000" font-family="sans-serif" font-size="13" lengthAdjust="spacing" textLength="148.8145" x="256.5" y="54.4951">solicitarEliminacionPerfil()</text></g><!--link SolicitarEliminacionPerfilView to PerfilController--><g class="link" data-entity-1="SolicitarEliminacionPerfilView" data-entity-2="PerfilController" data-source-line="19" data-uid="lnk13" id="link_SolicitarEliminacionPerfilView_PerfilController"><path d="M447.58,80.01 C383.73,93.63 307,110 307,110 C307,110 307,128 307,128 C307,128 342.0155,142.1258 375.7855,155.7458" fill="none" id="SolicitarEliminacionPerfilView-to-PerfilController" style="stroke:#181818;stroke-width:1;"/><polygon fill="#181818" points="381.35,157.99,374.4995,150.914,376.7129,156.1198,371.5071,158.3333,381.35,157.99" style="stroke:#181818;stroke-width:1;"/><text fill="#000000" font-family="sans-serif" font-size="13" lengthAdjust="spacing" textLength="180.6162" x="308" y="124.4951">solicitarEliminacionPerfil(datos)</text></g><!--link SolicitarEliminacionPerfilView to PerfilController--><g class="link" data-entity-1="SolicitarEliminacionPerfilView" data-entity-2="PerfilController" data-source-line="20" data-uid="lnk14" id="link_SolicitarEliminacionPerfilView_PerfilController"><path d="M521.34,80.03 C509.8,99.58 493,128 493,128 C493,128 475.1775,140.7658 456.2075,154.3558" fill="none" id="SolicitarEliminacionPerfilView-to-PerfilController-1" style="stroke:#181818;stroke-width:1;"/><polygon fill="#181818" points="451.33,157.85,460.9758,155.8603,455.3946,154.9381,456.3168,149.357,451.33,157.85" style="stroke:#181818;stroke-width:1;"/><text fill="#000000" font-family="sans-serif" font-size="13" lengthAdjust="spacing" textLength="127.8926" x="504" y="124.4951">validarSolicitud(datos)</text></g><!--link PerfilController to PerfilRepository--><g class="link" data-entity-1="PerfilController" data-entity-2="PerfilRepository" data-source-line="21" data-uid="lnk15" id="link_PerfilController_PerfilRepository"><path d="M385.48,196.01 C354.83,209.63 318,226 318,226 C318,226 318,244 318,244 C318,244 319.0665,254.2925 320.4865,267.8825" fill="none" id="PerfilController-to-PerfilRepository" style="stroke:#181818;stroke-width:1;"/><polygon fill="#181818" points="321.11,273.85,324.153,264.483,320.5904,268.8771,316.1964,265.3144,321.11,273.85" style="stroke:#181818;stroke-width:1;"/><text fill="#000000" font-family="sans-serif" font-size="13" lengthAdjust="spacing" textLength="178.4834" x="319" y="240.4951">existeSolicitudPendiente(perfil)</text></g><!--link PerfilController to SolicitudEliminacionPerfilRepository--><g class="link" data-entity-1="PerfilController" data-entity-2="SolicitudEliminacionPerfilRepository" data-source-line="22" data-uid="lnk16" id="link_PerfilController_SolicitudEliminacionPerfilRepository"><path d="M454.73,196.15 C476.25,209.74 502,226 502,226 C502,226 514.9959,249.1863 525.9559,268.7363" fill="none" id="PerfilController-to-SolicitudEliminacionPerfilRepository" style="stroke:#181818;stroke-width:1;"/><polygon fill="#181818" points="528.89,273.97,527.978,264.1635,526.4449,269.6086,520.9998,268.0755,528.89,273.97" style="stroke:#181818;stroke-width:1;"/><text fill="#000000" font-family="sans-serif" font-size="13" lengthAdjust="spacing" textLength="100.4326" x="512" y="240.4951">guardar(solicitud)</text></g><!--link PerfilRepository to Perfil--><g class="link" data-entity-1="PerfilRepository" data-entity-2="Perfil" data-source-line="23" data-uid="lnk17" id="link_PerfilRepository_Perfil"><path d="M323,312.24 C323,329.59 323,355.52 323,372.84" fill="none" id="PerfilRepository-Perfil" style="stroke:#181818;stroke-width:1;"/></g><!--link SolicitudEliminacionPerfilRepository to SolicitudEliminacionPerfil--><g class="link" data-entity-1="SolicitudEliminacionPerfilRepository" data-entity-2="SolicitudEliminacionPerfil" data-source-line="24" data-uid="lnk18" id="link_SolicitudEliminacionPerfilRepository_SolicitudEliminacionPerfil"><path d="M539,312.24 C539,329.59 539,355.52 539,372.84" fill="none" id="SolicitudEliminacionPerfilRepository-SolicitudEliminacionPerfil" style="stroke:#181818;stroke-width:1;"/></g><!--link SolicitarEliminacionPerfilView to EstadoSalidaExitosa--><g class="link" data-entity-1="SolicitarEliminacionPerfilView" data-entity-2="EstadoSalidaExitosa" data-source-line="25" data-uid="lnk19" id="link_SolicitarEliminacionPerfilView_EstadoSalidaExitosa"><path d="M572.52,80.01 C603.17,93.63 640,110 640,110 C640,110 690.6405,135.7029 729.1305,155.2529" fill="none" id="SolicitarEliminacionPerfilView-to-EstadoSalidaExitosa" style="stroke:#181818;stroke-width:1;stroke-dasharray:7,7;"/><polygon fill="#181818" points="734.48,157.97,728.2672,150.328,730.0221,155.7057,724.6443,157.4606,734.48,157.97" style="stroke:#181818;stroke-width:1;"/><text fill="#000000" font-family="sans-serif" font-size="13" lengthAdjust="spacing" textLength="102.6035" x="675" y="124.4951">solicitudEnviada()</text></g><!--link SolicitarEliminacionPerfilView to EstadoSalidaCancelada--><g class="link" data-entity-1="SolicitarEliminacionPerfilView" data-entity-2="EstadoSalidaCancelada" data-source-line="26" data-uid="lnk20" id="link_SolicitarEliminacionPerfilView_EstadoSalidaCancelada"><path d="M627.3,80.01 C699.38,93.63 786,110 786,110 C786,110 869.8613,136.6045 931.4413,156.1545" fill="none" id="SolicitarEliminacionPerfilView-to-EstadoSalidaCancelada" style="stroke:#181818;stroke-width:1;stroke-dasharray:7,7;"/><polygon fill="#181818" points="937.16,157.97,929.7923,151.4342,932.3944,156.457,927.3716,159.0592,937.16,157.97" style="stroke:#181818;stroke-width:1;"/><text fill="#000000" font-family="sans-serif" font-size="13" lengthAdjust="spacing" textLength="106.9326" x="842" y="124.4951">cancelarSolicitud()</text></g><!--SRC=[dPB1Ru8m6CNl_Ik-i0iUz62ccHnC46jYiam2owxc4phJM0ifw3JB_lSL5MHCm8rJITzx_ThVIpPSngXm2u9BbXvZ1d4aZjaF8Oe5ASgrOF3WJEd47e1XBLndldYX_jAbtcp-lBGdS-gzBWp016YIOXXHcIeCaSGOR73D88a43tYAYWg-vH837acNgNSkCezHlsrs3FWaeB_I8CF-YCv6uDUwtZZxg9fMWrKuV8Apm8dqW94GJ5LbixxjFDABp6DnbF0qKiT6MStcPRvT-6k-rjnwA_cwpSIdlcQoTAZdsLExXC97mKEa1trSWl_4USvmK0PCP5W9-O4PkgexRi5XGHDaGfhTq0tr2LLsZPaXwWjtMdDlnkvFzrK5XJoigYpPhqWjO0UUfAnmkqo6dCcKcV59MfDpJrqiMEzGwT7C95VdQLUHJikBUKzc9c_eMyi3zdhZMqKhqEX8kUUw96Rdhr55tom8piiI4LsPRm00]--></g></svg>