<svg xmlns="http://www.w3.org/2000/svg" xmlns:xlink="http://www.w3.org/1999/xlink" contentStyleType="text/css" height="1141px" preserveAspectRatio="none" style="width:2156px;height:1141px;background:#FFFFFF;" version="1.1" viewBox="0 0 2156 1141" width="2156px" zoomAndPan="magnify"><title>Diagrama de secuencia - Abrir proyecto como Investigador</title><defs/><g><text fill="#000000" font-family="sans-serif" font-size="14" font-weight="bold" lengthAdjust="spacing" textLength="392.8955" x="883.0154" y="29.5332">Diagrama de secuencia - Abrir proyecto como Investigador</text><rect fill="#FFFFFF" height="895.8672" style="stroke:#181818;stroke-width:1;" width="10" x="288.0269" y="153.5703"/><rect fill="#FFFFFF" height="323.8672" style="stroke:#181818;stroke-width:1;" width="10" x="514.3311" y="200.2734"/><rect fill="#FFFFFF" height="55.7031" style="stroke:#181818;stroke-width:1;" width="10" x="858.4814" y="230.625"/><rect fill="#FFFFFF" height="177.1094" style="stroke:#181818;stroke-width:1;" width="10" x="978.1914" y="316.6797"/><rect fill="none" height="796.8125" style="stroke:#000000;stroke-width:1.5;" width="2139.9263" x="10" y="245.625"/><rect fill="none" height="475.4609" style="stroke:#000000;stroke-width:1.5;" width="2119.9263" x="20" y="453.0859"/><line style="stroke:#181818;stroke-width:0.5;stroke-dasharray:5.0,5.0;" x1="71" x2="71" y1="121.2188" y2="1059.4375"/><line style="stroke:#181818;stroke-width:0.5;stroke-dasharray:5.0,5.0;" x1="292.2651" x2="292.2651" y1="121.2188" y2="1059.4375"/><line style="stroke:#181818;stroke-width:0.5;stroke-dasharray:5.0,5.0;" x1="518.3623" x2="518.3623" y1="121.2188" y2="1059.4375"/><line style="stroke:#181818;stroke-width:0.5;stroke-dasharray:5.0,5.0;" x1="862.7368" x2="862.7368" y1="121.2188" y2="1059.4375"/><line style="stroke:#181818;stroke-width:0.5;stroke-dasharray:5.0,5.0;" x1="982.2261" x2="982.2261" y1="121.2188" y2="1059.4375"/><line style="stroke:#181818;stroke-width:0.5;stroke-dasharray:5.0,5.0;" x1="1166.0205" x2="1166.0205" y1="121.2188" y2="1059.4375"/><line style="stroke:#181818;stroke-width:0.5;stroke-dasharray:5.0,5.0;" x1="1338.2329" x2="1338.2329" y1="121.2188" y2="1059.4375"/><line style="stroke:#181818;stroke-width:0.5;stroke-dasharray:5.0,5.0;" x1="1487.3911" x2="1487.3911" y1="121.2188" y2="1059.4375"/><line style="stroke:#181818;stroke-width:0.5;stroke-dasharray:5.0,5.0;" x1="2080.0923" x2="2080.0923" y1="121.2188" y2="1059.4375"/><text fill="#000000" font-family="sans-serif" font-size="14" lengthAdjust="spacing" textLength="76.2686" x="30" y="118.1426">Investigador</text><ellipse cx="71.1343" cy="52.1094" fill="#E2E2F0" rx="8" ry="8" style="stroke:#181818;stroke-width:0.5;"/><path d="M71.1343,60.1094 L71.1343,87.1094 M58.1343,68.1094 L84.1343,68.1094 M71.1343,87.1094 L58.1343,102.1094 M71.1343,87.1094 L84.1343,102.1094 " fill="none" style="stroke:#181818;stroke-width:0.5;"/><text fill="#000000" font-family="sans-serif" font-size="14" lengthAdjust="spacing" textLength="76.2686" x="30" y="1072.9707">Investigador</text><ellipse cx="71.1343" cy="1084.5469" fill="#E2E2F0" rx="8" ry="8" style="stroke:#181818;stroke-width:0.5;"/><path d="M71.1343,1092.5469 L71.1343,1119.5469 M58.1343,1100.5469 L84.1343,1100.5469 M71.1343,1119.5469 L58.1343,1134.5469 M71.1343,1119.5469 L84.1343,1134.5469 " fill="none" style="stroke:#181818;stroke-width:0.5;"/><rect fill="#E2E2F0" height="49.2188" rx="2.5" ry="2.5" style="stroke:#181818;stroke-width:0.5;" width="145.5234" x="220.2651" y="71"/><text fill="#000000" font-family="sans-serif" font-size="14" lengthAdjust="spacing" textLength="131.5234" x="227.2651" y="92.5332">ProyectoDetallePage</text><text fill="#000000" font-family="sans-serif" font-size="14" lengthAdjust="spacing" textLength="45.8965" x="270.0786" y="110.1426">(React)</text><rect fill="#E2E2F0" height="49.2188" rx="2.5" ry="2.5" style="stroke:#181818;stroke-width:0.5;" width="145.5234" x="220.2651" y="1058.4375"/><text fill="#000000" font-family="sans-serif" font-size="14" lengthAdjust="spacing" textLength="131.5234" x="227.2651" y="1079.9707">ProyectoDetallePage</text><text fill="#000000" font-family="sans-serif" font-size="14" lengthAdjust="spacing" textLength="45.8965" x="270.0786" y="1097.5801">(React)</text><rect fill="#E2E2F0" height="49.2188" rx="2.5" ry="2.5" style="stroke:#181818;stroke-width:0.5;" width="129.9375" x="454.3623" y="71"/><text fill="#000000" font-family="sans-serif" font-size="14" lengthAdjust="spacing" textLength="115.9375" x="461.3623" y="92.5332">ProyectoController</text><text fill="#000000" font-family="sans-serif" font-size="14" lengthAdjust="spacing" textLength="82.4824" x="478.0898" y="110.1426">(Spring Boot)</text><rect fill="#E2E2F0" height="49.2188" rx="2.5" ry="2.5" style="stroke:#181818;stroke-width:0.5;" width="129.9375" x="454.3623" y="1058.4375"/><text fill="#000000" font-family="sans-serif" font-size="14" lengthAdjust="spacing" textLength="115.9375" x="461.3623" y="1079.9707">ProyectoController</text><text fill="#000000" font-family="sans-serif" font-size="14" lengthAdjust="spacing" textLength="82.4824" x="478.0898" y="1097.5801">(Spring Boot)</text><rect fill="#E2E2F0" height="31.6094" rx="2.5" ry="2.5" style="stroke:#181818;stroke-width:0.5;" width="103.4893" x="811.7368" y="88.6094"/><text fill="#000000" font-family="sans-serif" font-size="14" lengthAdjust="spacing" textLength="89.4893" x="818.7368" y="110.1426">SesionService</text><rect fill="#E2E2F0" height="31.6094" rx="2.5" ry="2.5" style="stroke:#181818;stroke-width:0.5;" width="103.4893" x="811.7368" y="1058.4375"/><text fill="#000000" font-family="sans-serif" font-size="14" lengthAdjust="spacing" textLength="89.4893" x="818.7368" y="1079.9707">SesionService</text><rect fill="#E2E2F0" height="31.6094" rx="2.5" ry="2.5" style="stroke:#181818;stroke-width:0.5;" width="115.9307" x="925.2261" y="88.6094"/><text fill="#000000" font-family="sans-serif" font-size="14" lengthAdjust="spacing" textLength="101.9307" x="932.2261" y="110.1426">ProyectoService</text><rect fill="#E2E2F0" height="31.6094" rx="2.5" ry="2.5" style="stroke:#181818;stroke-width:0.5;" width="115.9307" x="925.2261" y="1058.4375"/><text fill="#000000" font-family="sans-serif" font-size="14" lengthAdjust="spacing" textLength="101.9307" x="932.2261" y="1079.9707">ProyectoService</text><rect fill="#E2E2F0" height="31.6094" rx="2.5" ry="2.5" style="stroke:#181818;stroke-width:0.5;" width="136.165" x="1098.0205" y="88.6094"/><text fill="#000000" font-family="sans-serif" font-size="14" lengthAdjust="spacing" textLength="122.165" x="1105.0205" y="110.1426">ProyectoRepository</text><rect fill="#E2E2F0" height="31.6094" rx="2.5" ry="2.5" style="stroke:#181818;stroke-width:0.5;" width="136.165" x="1098.0205" y="1058.4375"/><text fill="#000000" font-family="sans-serif" font-size="14" lengthAdjust="spacing" textLength="122.165" x="1105.0205" y="1079.9707">ProyectoRepository</text><rect fill="#E2E2F0" height="31.6094" rx="2.5" ry="2.5" style="stroke:#181818;stroke-width:0.5;" width="129.1582" x="1274.2329" y="88.6094"/><text fill="#000000" font-family="sans-serif" font-size="14" lengthAdjust="spacing" textLength="115.1582" x="1281.2329" y="110.1426">UsuarioRepository</text><rect fill="#E2E2F0" height="31.6094" rx="2.5" ry="2.5" style="stroke:#181818;stroke-width:0.5;" width="129.1582" x="1274.2329" y="1058.4375"/><text fill="#000000" font-family="sans-serif" font-size="14" lengthAdjust="spacing" textLength="115.1582" x="1281.2329" y="1079.9707">UsuarioRepository</text><rect fill="#E2E2F0" height="31.6094" rx="2.5" ry="2.5" style="stroke:#181818;stroke-width:0.5;" width="148.6338" x="1413.3911" y="88.6094"/><text fill="#000000" font-family="sans-serif" font-size="14" lengthAdjust="spacing" textLength="134.6338" x="1420.3911" y="110.1426">EntregableRepository</text><rect fill="#E2E2F0" height="31.6094" rx="2.5" ry="2.5" style="stroke:#181818;stroke-width:0.5;" width="148.6338" x="1413.3911" y="1058.4375"/><text fill="#000000" font-family="sans-serif" font-size="14" lengthAdjust="spacing" textLength="134.6338" x="1420.3911" y="1079.9707">EntregableRepository</text><text fill="#000000" font-family="sans-serif" font-size="14" lengthAdjust="spacing" textLength="91.834" x="2032.0923" y="118.1426">Base de Datos</text><path d="M2063.0093,67.6094 C2063.0093,57.6094 2081.0093,57.6094 2081.0093,57.6094 C2081.0093,57.6094 2099.0093,57.6094 2099.0093,67.6094 L2099.0093,93.6094 C2099.0093,103.6094 2081.0093,103.6094 2081.0093,103.6094 C2081.0093,103.6094 2063.0093,103.6094 2063.0093,93.6094 L2063.0093,67.6094 " fill="#E2E2F0" style="stroke:#181818;stroke-width:1.5;"/><path d="M2063.0093,67.6094 C2063.0093,77.6094 2081.0093,77.6094 2081.0093,77.6094 C2081.0093,77.6094 2099.0093,77.6094 2099.0093,67.6094 " fill="none" style="stroke:#181818;stroke-width:1.5;"/><text fill="#000000" font-family="sans-serif" font-size="14" lengthAdjust="spacing" textLength="91.834" x="2032.0923" y="1072.9707">Base de Datos</text><path d="M2063.0093,1086.0469 C2063.0093,1076.0469 2081.0093,1076.0469 2081.0093,1076.0469 C2081.0093,1076.0469 2099.0093,1076.0469 2099.0093,1086.0469 L2099.0093,1112.0469 C2099.0093,1122.0469 2081.0093,1122.0469 2081.0093,1122.0469 C2081.0093,1122.0469 2063.0093,1122.0469 2063.0093,1112.0469 L2063.0093,1086.0469 " fill="#E2E2F0" style="stroke:#181818;stroke-width:1.5;"/><path d="M2063.0093,1086.0469 C2063.0093,1096.0469 2081.0093,1096.0469 2081.0093,1096.0469 C2081.0093,1096.0469 2099.0093,1096.0469 2099.0093,1086.0469 " fill="none" style="stroke:#181818;stroke-width:1.5;"/><rect fill="#FFFFFF" height="895.8672" style="stroke:#181818;stroke-width:1;" width="10" x="288.0269" y="153.5703"/><rect fill="#FFFFFF" height="323.8672" style="stroke:#181818;stroke-width:1;" width="10" x="514.3311" y="200.2734"/><rect fill="#FFFFFF" height="55.7031" style="stroke:#181818;stroke-width:1;" width="10" x="858.4814" y="230.625"/><rect fill="#FFFFFF" height="177.1094" style="stroke:#181818;stroke-width:1;" width="10" x="978.1914" y="316.6797"/><polygon fill="#181818" points="276.0269,149.5703,286.0269,153.5703,276.0269,157.5703,280.0269,153.5703" style="stroke:#181818;stroke-width:1;"/><line style="stroke:#181818;stroke-width:1;" x1="71.1343" x2="282.0269" y1="153.5703" y2="153.5703"/><text fill="#000000" font-family="sans-serif" font-size="13" lengthAdjust="spacing" textLength="117.0698" x="78.1343" y="148.7139">Selecciona proyecto</text><polygon fill="#181818" points="502.3311,196.2734,512.3311,200.2734,502.3311,204.2734,506.3311,200.2734" style="stroke:#181818;stroke-width:1;"/><line style="stroke:#181818;stroke-width:1;" x1="298.0269" x2="508.3311" y1="200.2734" y2="200.2734"/><text fill="#000000" font-family="sans-serif" font-size="13" lengthAdjust="spacing" textLength="155.3525" x="305.0269" y="179.0654">GET /api/proyectos/me/{id}</text><text fill="#000000" font-family="sans-serif" font-size="13" lengthAdjust="spacing" textLength="99.728" x="305.0269" y="195.417">Cookie de sesion</text><polygon fill="#181818" points="846.4814,226.625,856.4814,230.625,846.4814,234.625,850.4814,230.625" style="stroke:#181818;stroke-width:1;"/><line style="stroke:#181818;stroke-width:1;" x1="524.3311" x2="852.4814" y1="230.625" y2="230.625"/><text fill="#000000" font-family="sans-serif" font-size="13" lengthAdjust="spacing" textLength="209.5806" x="531.3311" y="225.7686">obtenerSesionActual(authentication)</text><path d="M10,245.625 L70.1709,245.625 L70.1709,253.9766 L60.1709,263.9766 L10,263.9766 L10,245.625 " fill="#EEEEEE" style="stroke:#000000;stroke-width:1.5;"/><rect fill="none" height="796.8125" style="stroke:#000000;stroke-width:1.5;" width="2139.9263" x="10" y="245.625"/><text fill="#000000" font-family="sans-serif" font-size="13" font-weight="bold" lengthAdjust="spacing" textLength="15.1709" x="25" y="260.1201">alt</text><text fill="#000000" font-family="sans-serif" font-size="11" font-weight="bold" lengthAdjust="spacing" textLength="161.9922" x="85.1709" y="259.0439">[Sesion de Investigador activa]</text><polygon fill="#181818" points="535.3311,282.3281,525.3311,286.3281,535.3311,290.3281,531.3311,286.3281" style="stroke:#181818;stroke-width:1;"/><line style="stroke:#181818;stroke-width:1;stroke-dasharray:2.0,2.0;" x1="529.3311" x2="862.4814" y1="286.3281" y2="286.3281"/><text fill="#000000" font-family="sans-serif" font-size="13" lengthAdjust="spacing" textLength="141.6543" x="541.3311" y="281.4717">Investigador autenticado</text><polygon fill="#181818" points="966.1914,312.6797,976.1914,316.6797,966.1914,320.6797,970.1914,316.6797" style="stroke:#181818;stroke-width:1;"/><line style="stroke:#181818;stroke-width:1;" x1="524.3311" x2="972.1914" y1="316.6797" y2="316.6797"/><text fill="#000000" font-family="sans-serif" font-size="13" lengthAdjust="spacing" textLength="151.0298" x="531.3311" y="311.8232">obtener(id, investigadorId)</text><polygon fill="#181818" points="1154.103,343.0313,1164.103,347.0313,1154.103,351.0313,1158.103,347.0313" style="stroke:#181818;stroke-width:1;"/><line style="stroke:#181818;stroke-width:1;" x1="988.1914" x2="1160.103" y1="347.0313" y2="347.0313"/><text fill="#000000" font-family="sans-serif" font-size="13" lengthAdjust="spacing" textLength="153.9116" x="995.1914" y="342.1748">findById(id, investigadorId)</text><polygon fill="#181818" points="2069.0093,373.3828,2079.0093,377.3828,2069.0093,381.3828,2073.0093,377.3828" style="stroke:#181818;stroke-width:1;"/><line style="stroke:#181818;stroke-width:1;" x1="1166.103" x2="2075.0093" y1="377.3828" y2="377.3828"/><text fill="#000000" font-family="sans-serif" font-size="13" lengthAdjust="spacing" textLength="890.9063" x="1173.103" y="372.5264">SELECT p.* FROM proyectos p JOIN proyecto_investigadores pi ON pi.proyecto_id = p.id WHERE p.id = ? AND pi.usuario_id = ? AND p.archivado = false</text><polygon fill="#181818" points="1177.103,403.7344,1167.103,407.7344,1177.103,411.7344,1173.103,407.7344" style="stroke:#181818;stroke-width:1;"/><line style="stroke:#181818;stroke-width:1;stroke-dasharray:2.0,2.0;" x1="1171.103" x2="2080.0093" y1="407.7344" y2="407.7344"/><text fill="#000000" font-family="sans-serif" font-size="13" lengthAdjust="spacing" textLength="149.5889" x="1183.103" y="402.8779">Resultado de persistencia</text><polygon fill="#181818" points="999.1914,434.0859,989.1914,438.0859,999.1914,442.0859,995.1914,438.0859" style="stroke:#181818;stroke-width:1;"/><line style="stroke:#181818;stroke-width:1;stroke-dasharray:2.0,2.0;" x1="993.1914" x2="1165.103" y1="438.0859" y2="438.0859"/><text fill="#000000" font-family="sans-serif" font-size="13" lengthAdjust="spacing" textLength="92.4854" x="1005.1914" y="433.2295">Proyecto / vacio</text><path d="M20,453.0859 L80.1709,453.0859 L80.1709,461.4375 L70.1709,471.4375 L20,471.4375 L20,453.0859 " fill="#EEEEEE" style="stroke:#000000;stroke-width:1.5;"/><rect fill="none" height="475.4609" style="stroke:#000000;stroke-width:1.5;" width="2119.9263" x="20" y="453.0859"/><text fill="#000000" font-family="sans-serif" font-size="13" font-weight="bold" lengthAdjust="spacing" textLength="15.1709" x="35" y="467.5811">alt</text><text fill="#000000" font-family="sans-serif" font-size="11" font-weight="bold" lengthAdjust="spacing" textLength="236.5645" x="95.1709" y="466.5049">[Proyecto inexistente, archivado o no visible]</text><polygon fill="#181818" points="535.3311,489.7891,525.3311,493.7891,535.3311,497.7891,531.3311,493.7891" style="stroke:#181818;stroke-width:1;"/><line style="stroke:#181818;stroke-width:1;stroke-dasharray:2.0,2.0;" x1="529.3311" x2="982.1914" y1="493.7891" y2="493.7891"/><text fill="#000000" font-family="sans-serif" font-size="13" lengthAdjust="spacing" textLength="188.6079" x="541.3311" y="488.9326">RecursoNoEncontradoException</text><polygon fill="#181818" points="309.0269,520.1406,299.0269,524.1406,309.0269,528.1406,305.0269,524.1406" style="stroke:#181818;stroke-width:1;"/><line style="stroke:#181818;stroke-width:1;stroke-dasharray:2.0,2.0;" x1="303.0269" x2="518.3311" y1="524.1406" y2="524.1406"/><text fill="#000000" font-family="sans-serif" font-size="13" lengthAdjust="spacing" textLength="86.0044" x="315.0269" y="519.2842">404 Not Found</text><polygon fill="#181818" points="82.1343,550.4922,72.1343,554.4922,82.1343,558.4922,78.1343,554.4922" style="stroke:#181818;stroke-width:1;"/><line style="stroke:#181818;stroke-width:1;stroke-dasharray:2.0,2.0;" x1="76.1343" x2="287.0269" y1="554.4922" y2="554.4922"/><text fill="#000000" font-family="sans-serif" font-size="13" lengthAdjust="spacing" textLength="192.2388" x="88.1343" y="549.6357">Presenta proyecto no encontrado</text><line style="stroke:#000000;stroke-width:1;stroke-dasharray:2.0,2.0;" x1="20" x2="2139.9263" y1="563.4922" y2="563.4922"/><text fill="#000000" font-family="sans-serif" font-size="11" font-weight="bold" lengthAdjust="spacing" textLength="91.6953" x="25" y="574.9111">[Proyecto visible]</text><polygon fill="#181818" points="1326.812,596.6797,1336.812,600.6797,1326.812,604.6797,1330.812,600.6797" style="stroke:#181818;stroke-width:1;"/><line style="stroke:#181818;stroke-width:1;" x1="983.1914" x2="1332.812" y1="600.6797" y2="600.6797"/><text fill="#000000" font-family="sans-serif" font-size="13" lengthAdjust="spacing" textLength="331.6206" x="990.1914" y="595.8232">findByRolAndActivoTrueOrderByNombreCompletoAsc(id)</text><polygon fill="#181818" points="2069.0093,627.0313,2079.0093,631.0313,2069.0093,635.0313,2073.0093,631.0313" style="stroke:#181818;stroke-width:1;"/><line style="stroke:#181818;stroke-width:1;" x1="1338.812" x2="2075.0093" y1="631.0313" y2="631.0313"/><text fill="#000000" font-family="sans-serif" font-size="13" lengthAdjust="spacing" textLength="661.8511" x="1345.812" y="626.1748">SELECT u.* FROM usuarios u JOIN proyecto_investigadores pi ON pi.usuario_id = u.id WHERE pi.proyecto_id = ?</text><polygon fill="#181818" points="1349.812,657.3828,1339.812,661.3828,1349.812,665.3828,1345.812,661.3828" style="stroke:#181818;stroke-width:1;"/><line style="stroke:#181818;stroke-width:1;stroke-dasharray:2.0,2.0;" x1="1343.812" x2="2080.0093" y1="661.3828" y2="661.3828"/><text fill="#000000" font-family="sans-serif" font-size="13" lengthAdjust="spacing" textLength="149.5889" x="1355.812" y="656.5264">Resultado de persistencia</text><polygon fill="#181818" points="994.1914,687.7344,984.1914,691.7344,994.1914,695.7344,990.1914,691.7344" style="stroke:#181818;stroke-width:1;"/><line style="stroke:#181818;stroke-width:1;stroke-dasharray:2.0,2.0;" x1="988.1914" x2="1337.812" y1="691.7344" y2="691.7344"/><text fill="#000000" font-family="sans-serif" font-size="13" lengthAdjust="spacing" textLength="80.2153" x="1000.1914" y="686.8779">Equipo visible</text><polygon fill="#181818" points="1475.708,718.0859,1485.708,722.0859,1475.708,726.0859,1479.708,722.0859" style="stroke:#181818;stroke-width:1;"/><line style="stroke:#181818;stroke-width:1;" x1="983.1914" x2="1481.708" y1="722.0859" y2="722.0859"/><text fill="#000000" font-family="sans-serif" font-size="13" lengthAdjust="spacing" textLength="443.6567" x="990.1914" y="717.2295">findByProyectoIdAndRetiradoOrderByFechaCreacionDesc(id, investigadorId)</text><polygon fill="#181818" points="2069.0093,748.4375,2079.0093,752.4375,2069.0093,756.4375,2073.0093,752.4375" style="stroke:#181818;stroke-width:1;"/><line style="stroke:#181818;stroke-width:1;" x1="1487.708" x2="2075.0093" y1="752.4375" y2="752.4375"/><text fill="#000000" font-family="sans-serif" font-size="13" lengthAdjust="spacing" textLength="438.5659" x="1494.708" y="747.5811">SELECT * FROM entregables WHERE proyecto_id = ? AND retirado = false</text><polygon fill="#181818" points="1498.708,778.7891,1488.708,782.7891,1498.708,786.7891,1494.708,782.7891" style="stroke:#181818;stroke-width:1;"/><line style="stroke:#181818;stroke-width:1;stroke-dasharray:2.0,2.0;" x1="1492.708" x2="2080.0093" y1="782.7891" y2="782.7891"/><text fill="#000000" font-family="sans-serif" font-size="13" lengthAdjust="spacing" textLength="149.5889" x="1504.708" y="777.9326">Resultado de persistencia</text><polygon fill="#181818" points="994.1914,809.1406,984.1914,813.1406,994.1914,817.1406,990.1914,813.1406" style="stroke:#181818;stroke-width:1;"/><line style="stroke:#181818;stroke-width:1;stroke-dasharray:2.0,2.0;" x1="988.1914" x2="1486.708" y1="813.1406" y2="813.1406"/><text fill="#000000" font-family="sans-serif" font-size="13" lengthAdjust="spacing" textLength="115.6162" x="1000.1914" y="808.2842">Entregables visibles</text><polygon fill="#181818" points="530.3311,839.4922,520.3311,843.4922,530.3311,847.4922,526.3311,843.4922" style="stroke:#181818;stroke-width:1;"/><line style="stroke:#181818;stroke-width:1;stroke-dasharray:2.0,2.0;" x1="524.3311" x2="982.1914" y1="843.4922" y2="843.4922"/><text fill="#000000" font-family="sans-serif" font-size="13" lengthAdjust="spacing" textLength="150.3062" x="536.3311" y="838.6357">ProyectoDetalleResponse</text><polygon fill="#181818" points="309.0269,886.1953,299.0269,890.1953,309.0269,894.1953,305.0269,890.1953" style="stroke:#181818;stroke-width:1;"/><line style="stroke:#181818;stroke-width:1;stroke-dasharray:2.0,2.0;" x1="303.0269" x2="518.3311" y1="890.1953" y2="890.1953"/><text fill="#000000" font-family="sans-serif" font-size="13" lengthAdjust="spacing" textLength="44.0845" x="315.0269" y="868.9873">200 OK</text><text fill="#000000" font-family="sans-serif" font-size="13" lengthAdjust="spacing" textLength="80.2026" x="315.0269" y="885.3389">Detalle visible</text><polygon fill="#181818" points="82.1343,916.5469,72.1343,920.5469,82.1343,924.5469,78.1343,920.5469" style="stroke:#181818;stroke-width:1;"/><line style="stroke:#181818;stroke-width:1;stroke-dasharray:2.0,2.0;" x1="76.1343" x2="287.0269" y1="920.5469" y2="920.5469"/><text fill="#000000" font-family="sans-serif" font-size="13" lengthAdjust="spacing" textLength="192.8926" x="88.1343" y="915.6904">Presenta PROYECTO_ABIERTO</text><line style="stroke:#000000;stroke-width:1;stroke-dasharray:2.0,2.0;" x1="10" x2="2149.9263" y1="936.5469" y2="936.5469"/><text fill="#000000" font-family="sans-serif" font-size="11" font-weight="bold" lengthAdjust="spacing" textLength="159.5269" x="15" y="947.9658">[Sesion ausente o rol invalido]</text><polygon fill="#181818" points="530.3311,969.7344,520.3311,973.7344,530.3311,977.7344,526.3311,973.7344" style="stroke:#181818;stroke-width:1;"/><line style="stroke:#181818;stroke-width:1;stroke-dasharray:2.0,2.0;" x1="524.3311" x2="862.4814" y1="973.7344" y2="973.7344"/><text fill="#000000" font-family="sans-serif" font-size="13" lengthAdjust="spacing" textLength="320.1504" x="536.3311" y="968.8779">SesionNoValidaException / AccesoDenegadoException</text><polygon fill="#181818" points="309.0269,1000.0859,299.0269,1004.0859,309.0269,1008.0859,305.0269,1004.0859" style="stroke:#181818;stroke-width:1;"/><line style="stroke:#181818;stroke-width:1;stroke-dasharray:2.0,2.0;" x1="303.0269" x2="518.3311" y1="1004.0859" y2="1004.0859"/><text fill="#000000" font-family="sans-serif" font-size="13" lengthAdjust="spacing" textLength="197.3042" x="315.0269" y="999.2295">401 Unauthorized / 403 Forbidden</text><polygon fill="#181818" points="82.1343,1030.4375,72.1343,1034.4375,82.1343,1038.4375,78.1343,1034.4375" style="stroke:#181818;stroke-width:1;"/><line style="stroke:#181818;stroke-width:1;stroke-dasharray:2.0,2.0;" x1="76.1343" x2="287.0269" y1="1034.4375" y2="1034.4375"/><text fill="#000000" font-family="sans-serif" font-size="13" lengthAdjust="spacing" textLength="145.9644" x="88.1343" y="1029.5811">Presenta error de acceso</text><!--SRC=[fLPjJzim4FxUNt7Y4vs0ierFbG2bRRfrBoqAPTCa9EJ6Hx6MsfdjL7JJ_llEpakJj32cLMfnxBidTyyzTyOAco2C15jgjcB04Gp66SfOC3Y6OA65XbIh3SPMGQnM2YPoZSQA9UDATpgCzdLpBsNQYbYaJ5euk2fyHsXPak0LM-AjF8oG_Be7m0oCjP8M9T_lDgH3hSXHazTrgeLSma2fmZT8HTFj6erGyXhrMiJeJVAT_U1DEx_URnXXgeoWH3VUrZqs3MzCnhHeszLPsVK9AJDSiaM2BRVcGOSponRC81mCt2zLQCIiCjvqDEXqwc-1uukAq3xbb60SK_giAg6hbrWpYrlUouNp9KBxy2wSGu-bebSwcTuAUxy4_tqhXqfz5vZBn1DRuRbQqDUXv9ptGIq85tN-6CGsOyaXo-m3IcA1MThiRlsBGh745altaaPkkMa7w5DO79SXD-qocx-1As_CiVqIjrl5wkjU1Nie-1686jo4Txrz3IDNIXw7NpiWLwi-t0l91vi9VnB6cJdpqO3g4tuAXtD8Jrx1E9fzhefa88KFiycqshYh8o4T2vZHgJZP6d0u9o3wy_Lz68NvyXmk8PYEd66M2_Ikldl2TFn0EN55U_SiCNbEeu7dDSydGfCbrfbGDLBKHXZhXqCjcJgBPST03zQCf9TJHpMj3eJ4HmzYyGYs4IYG2jR229AzTshGMzOvejcaZPggKCPkCf1d-1XZQikgxjHxMwkgw8qUEJizWwcoC5OPzS8U2AVhSdlRAeHHrvnB70tbjEqqbmzMKNe898gtH3oPxCNEu2Xr5Qaaa3nmeQcvpd2cEUh1PgfM2ur3jKeJj2emCQclM-6smLhgoqhr5H8naBrGV0rDPJNjjNLvMSLIQ6itl-TrjZ-Dkkx27vb8d-MqELLBHijgJ3WH6w4LhbW5hMEC7zXGezEn7A6dTNzJkqyJlqLoGJ5MDgRagacKRqnTXD7eoXfxxKp-pbqxjWPpjPWA-ipJ3TYwpkdLgPAr4F-fzzwSdiBiuwqim7QgznzTU1NDlX7nixjWC0cZ-IplF-fmtuF5zS4oPumqU-XV35TObeYYLTiNJFuyLL-S2Qjc3esv88xH41yIbplJw9cRfpM4NiEDT5UZqk8dSe8zEtrBCqal1EUu0rQoyH8cK6kw4qaPp0VQSIJKe4g8Fm00]--></g></svg>