<svg xmlns="http://www.w3.org/2000/svg" xmlns:xlink="http://www.w3.org/1999/xlink" contentStyleType="text/css" data-diagram-type="DESCRIPTION" height="442px" preserveAspectRatio="none" style="width:4154px;height:442px;background:#FFFFFF;" version="1.1" viewBox="0 0 4154 442" width="4154px" zoomAndPan="magnify"><?plantuml 1.2026.5?><defs/><g><!--cluster eliminarProyecto--><g class="cluster" data-qualified-name="eliminarProyecto" data-source-line="4" id="ent0002"><path d="M197.5,6 L321.4238,6 A3.75,3.75 0 0 1 323.9238,8.5 L330.9238,29.6094 L1208.5,29.6094 A2.5,2.5 0 0 1 1211,32.1094 L1211,424.5 A2.5,2.5 0 0 1 1208.5,427 L197.5,427 A2.5,2.5 0 0 1 195,424.5 L195,8.5 A2.5,2.5 0 0 1 197.5,6" fill="none" style="stroke:#000000;stroke-width:1.5;"/><line style="stroke:#000000;stroke-width:1.5;" x1="195" x2="330.9238" y1="29.6094" y2="29.6094"/><text fill="#000000" font-family="sans-serif" font-size="14" font-weight="700" lengthAdjust="spacing" textLength="122.9238" x="199" y="22.5332">eliminarProyecto()</text></g><!--entity EliminarProyectoView--><g class="entity" data-qualified-name="eliminarProyecto.EliminarProyectoView" data-source-line="5" id="ent0003"><rect fill="#629EF9" height="37.6094" rx="2.5" ry="2.5" style="stroke:#181818;stroke-width:0.5;" width="156.1582" x="1039" y="42"/><text fill="#000000" font-family="sans-serif" font-size="14" lengthAdjust="spacing" textLength="136.1582" x="1049" y="66.5332">EliminarProyectoView</text></g><!--entity ProyectoController--><g class="entity" data-qualified-name="eliminarProyecto.ProyectoController" data-source-line="6" id="ent0004"><rect fill="#B5BD68" height="37.6094" rx="2.5" ry="2.5" style="stroke:#181818;stroke-width:0.5;" width="135.9375" x="622" y="158"/><text fill="#000000" font-family="sans-serif" font-size="14" lengthAdjust="spacing" textLength="115.9375" x="632" y="182.5332">ProyectoController</text></g><!--entity ProyectoRepository--><g class="entity" data-qualified-name="eliminarProyecto.ProyectoRepository" data-source-line="7" id="ent0005"><rect fill="#F2AC4E" height="37.6094" rx="2.5" ry="2.5" style="stroke:#181818;stroke-width:0.5;" width="142.165" x="361" y="274"/><text fill="#000000" font-family="sans-serif" font-size="14" lengthAdjust="spacing" textLength="122.165" x="371" y="298.5332">ProyectoRepository</text></g><!--entity EntregableRepository--><g class="entity" data-qualified-name="eliminarProyecto.EntregableRepository" data-source-line="8" id="ent0006"><rect fill="#F2AC4E" height="37.6094" rx="2.5" ry="2.5" style="stroke:#181818;stroke-width:0.5;" width="154.6338" x="705.5" y="274"/><text fill="#000000" font-family="sans-serif" font-size="14" lengthAdjust="spacing" textLength="134.6338" x="715.5" y="298.5332">EntregableRepository</text></g><!--entity RecompensaRepository--><g class="entity" data-qualified-name="eliminarProyecto.RecompensaRepository" data-source-line="9" id="ent0007"><rect fill="#F2AC4E" height="37.6094" rx="2.5" ry="2.5" style="stroke:#181818;stroke-width:0.5;" width="169.4063" x="924.5" y="274"/><text fill="#000000" font-family="sans-serif" font-size="14" lengthAdjust="spacing" textLength="149.4063" x="934.5" y="298.5332">RecompensaRepository</text></g><!--entity Proyecto--><g class="entity" data-qualified-name="eliminarProyecto.Proyecto" data-source-line="10" id="ent0008"><rect fill="#F2AC4E" height="37.6094" rx="2.5" ry="2.5" style="stroke:#181818;stroke-width:0.5;" width="75.248" x="394.5" y="373"/><text fill="#000000" font-family="sans-serif" font-size="14" lengthAdjust="spacing" textLength="55.248" x="404.5" y="397.5332">Proyecto</text></g><!--entity Entregable--><g class="entity" data-qualified-name="eliminarProyecto.Entregable" data-source-line="11" id="ent0009"><rect fill="#F2AC4E" height="37.6094" rx="2.5" ry="2.5" style="stroke:#181818;stroke-width:0.5;" width="87.7168" x="739" y="373"/><text fill="#000000" font-family="sans-serif" font-size="14" lengthAdjust="spacing" textLength="67.7168" x="749" y="397.5332">Entregable</text></g><!--entity Recompensa--><g class="entity" data-qualified-name="eliminarProyecto.Recompensa" data-source-line="12" id="ent0010"><rect fill="#F2AC4E" height="37.6094" rx="2.5" ry="2.5" style="stroke:#181818;stroke-width:0.5;" width="102.4893" x="958" y="373"/><text fill="#000000" font-family="sans-serif" font-size="14" lengthAdjust="spacing" textLength="82.4893" x="968" y="397.5332">Recompensa</text></g><!--entity EstadoEntrada--><g class="entity" data-qualified-name="EstadoEntrada" data-source-line="3" id="ent0001"><rect fill="#CDEBA5" height="37.6094" rx="2.5" ry="2.5" style="stroke:#181818;stroke-width:0.5;" width="171.6963" x="7" y="42"/><text fill="#000000" font-family="sans-serif" font-size="14" lengthAdjust="spacing" textLength="151.6963" x="17" y="66.5332">:PROYECTO_ABIERTO</text></g><!--entity EstadoSalida--><g class="entity" data-qualified-name="EstadoSalida" data-source-line="15" id="ent0011"><rect fill="#CDEBA5" height="37.6094" rx="2.5" ry="2.5" style="stroke:#181818;stroke-width:0.5;" width="190.3721" x="1227" y="158"/><text fill="#000000" font-family="sans-serif" font-size="14" lengthAdjust="spacing" textLength="170.3721" x="1237" y="182.5332">:PROYECTOS_ABIERTOS</text></g><!--entity EstadoSalidaSinCambios--><g class="entity" data-qualified-name="EstadoSalidaSinCambios" data-source-line="16" id="ent0012"><rect fill="#CDEBA5" height="37.6094" rx="2.5" ry="2.5" style="stroke:#181818;stroke-width:0.5;" width="171.6963" x="1452" y="158"/><text fill="#000000" font-family="sans-serif" font-size="14" lengthAdjust="spacing" textLength="151.6963" x="1462" y="182.5332">:PROYECTO_ABIERTO</text></g><!--entity AbrirProyecto--><g class="entity" data-qualified-name="AbrirProyecto" data-source-line="17" id="ent0013"><rect fill="#CDEBA5" height="37.6094" rx="2.5" ry="2.5" style="stroke:#181818;stroke-width:0.5;" width="195.082" x="1659.5" y="158"/><text fill="#000000" font-family="sans-serif" font-size="14" lengthAdjust="spacing" textLength="175.082" x="1669.5" y="182.5332">:Collaboration AbrirProyecto</text></g><!--entity CrearProyecto--><g class="entity" data-qualified-name="CrearProyecto" data-source-line="18" id="ent0014"><rect fill="#CDEBA5" height="37.6094" rx="2.5" ry="2.5" style="stroke:#181818;stroke-width:0.5;" width="200.5303" x="1889.5" y="158"/><text fill="#000000" font-family="sans-serif" font-size="14" lengthAdjust="spacing" textLength="180.5303" x="1899.5" y="182.5332">:Collaboration CrearProyecto</text></g><!--entity AbrirPanelPrincipal--><g class="entity" data-qualified-name="AbrirPanelPrincipal" data-source-line="19" id="ent0015"><rect fill="#CDEBA5" height="37.6094" rx="2.5" ry="2.5" style="stroke:#181818;stroke-width:0.5;" width="229.3301" x="2125.5" y="158"/><text fill="#000000" font-family="sans-serif" font-size="14" lengthAdjust="spacing" textLength="209.3301" x="2135.5" y="182.5332">:Collaboration AbrirPanelPrincipal</text></g><!--entity EditarProyecto--><g class="entity" data-qualified-name="EditarProyecto" data-source-line="20" id="ent0016"><rect fill="#CDEBA5" height="37.6094" rx="2.5" ry="2.5" style="stroke:#181818;stroke-width:0.5;" width="202.0957" x="2390" y="158"/><text fill="#000000" font-family="sans-serif" font-size="14" lengthAdjust="spacing" textLength="182.0957" x="2400" y="182.5332">:Collaboration EditarProyecto</text></g><!--entity EliminarProyecto--><g class="entity" data-qualified-name="EliminarProyecto" data-source-line="21" id="ent0017"><rect fill="#CDEBA5" height="37.6094" rx="2.5" ry="2.5" style="stroke:#181818;stroke-width:0.5;" width="216.0889" x="2627" y="158"/><text fill="#000000" font-family="sans-serif" font-size="14" lengthAdjust="spacing" textLength="196.0889" x="2637" y="182.5332">:Collaboration EliminarProyecto</text></g><!--entity AgregarInvestigador--><g class="entity" data-qualified-name="AgregarInvestigador" data-source-line="22" id="ent0018"><rect fill="#CDEBA5" height="37.6094" rx="2.5" ry="2.5" style="stroke:#181818;stroke-width:0.5;" width="236.3506" x="2878" y="158"/><text fill="#000000" font-family="sans-serif" font-size="14" lengthAdjust="spacing" textLength="216.3506" x="2888" y="182.5332">:Collaboration AgregarInvestigador</text></g><!--entity EliminarInvestigador--><g class="entity" data-qualified-name="EliminarInvestigador" data-source-line="23" id="ent0019"><rect fill="#CDEBA5" height="37.6094" rx="2.5" ry="2.5" style="stroke:#181818;stroke-width:0.5;" width="237.1094" x="3149.5" y="158"/><text fill="#000000" font-family="sans-serif" font-size="14" lengthAdjust="spacing" textLength="217.1094" x="3159.5" y="182.5332">:Collaboration EliminarInvestigador</text></g><!--entity AbrirEntregables--><g class="entity" data-qualified-name="AbrirEntregables" data-source-line="24" id="ent0020"><rect fill="#CDEBA5" height="37.6094" rx="2.5" ry="2.5" style="stroke:#181818;stroke-width:0.5;" width="214.5508" x="3421.5" y="158"/><text fill="#000000" font-family="sans-serif" font-size="14" lengthAdjust="spacing" textLength="194.5508" x="3431.5" y="182.5332">:Collaboration AbrirEntregables</text></g><!--entity AbrirInvestigadores--><g class="entity" data-qualified-name="AbrirInvestigadores" data-source-line="25" id="ent0021"><rect fill="#CDEBA5" height="37.6094" rx="2.5" ry="2.5" style="stroke:#181818;stroke-width:0.5;" width="230.8887" x="3671.5" y="158"/><text fill="#000000" font-family="sans-serif" font-size="14" lengthAdjust="spacing" textLength="210.8887" x="3681.5" y="182.5332">:Collaboration AbrirInvestigadores</text></g><!--entity AbrirProyectos--><g class="entity" data-qualified-name="AbrirProyectos" data-source-line="26" id="ent0022"><rect fill="#CDEBA5" height="37.6094" rx="2.5" ry="2.5" style="stroke:#181818;stroke-width:0.5;" width="202.082" x="3938" y="158"/><text fill="#000000" font-family="sans-serif" font-size="14" lengthAdjust="spacing" textLength="182.082" x="3948" y="182.5332">:Collaboration AbrirProyectos</text></g><!--link EstadoEntrada to EliminarProyectoView--><g class="link" data-entity-1="ent0001" data-entity-2="ent0003" data-link-type="dependency" data-source-line="28" id="lnk23"><path d="M179.42,61 C375.43,61 846.2,61 1033.95,61" fill="none" id="EstadoEntrada-to-EliminarProyectoView" style="stroke:#181818;stroke-width:1;"/><polygon fill="#181818" points="1038.95,61,1029.95,57,1033.95,61,1029.95,65,1038.95,61" style="stroke:#181818;stroke-width:1;stroke-linejoin:miter;stroke-miterlimit:10;"/><text fill="#000000" font-family="sans-serif" font-size="13" lengthAdjust="spacing" textLength="166.1753" x="526" y="54.4951">eliminarProyecto(proyectoId)</text></g><!--link EliminarProyectoView to ProyectoController--><g class="link" data-entity-1="ent0003" data-entity-2="ent0004" data-link-type="dependency" data-source-line="30" id="lnk24"><path d="M1038.84,68.2 C875.29,81.18 512,110 512,110 C512,110 512,128 512,128 C512,128 567.8724,143.0682 618.3824,156.6882" fill="none" id="EliminarProyectoView-to-ProyectoController" style="stroke:#181818;stroke-width:1;"/><polygon fill="#181818" points="623.21,157.99,615.5618,151.7848,618.3824,156.6882,613.479,159.5089,623.21,157.99" style="stroke:#181818;stroke-width:1;stroke-linejoin:miter;stroke-miterlimit:10;"/><text fill="#000000" font-family="sans-serif" font-size="13" lengthAdjust="spacing" textLength="197.9707" x="513" y="124.4951">comprobarEliminacion(proyectoId)</text></g><!--link ProyectoController to EliminarProyectoView--><g class="link" data-entity-1="ent0004" data-entity-2="ent0003" data-link-type="dependency" data-source-line="36" id="lnk30"><path d="M758.2,163.26 C834.33,149.04 947,128 947,128 C947,128 990,110 990,110 C990,110 1028.6328,95.3976 1064.6728,81.7776" fill="none" id="ProyectoController-to-EliminarProyectoView" style="stroke:#181818;stroke-width:1;"/><polygon fill="#181818" points="1069.35,80.01,1059.5171,79.4499,1064.6728,81.7776,1062.3452,86.9333,1069.35,80.01" style="stroke:#181818;stroke-width:1;stroke-linejoin:miter;stroke-miterlimit:10;"/><text fill="#000000" font-family="sans-serif" font-size="13" lengthAdjust="spacing" textLength="207.3716" x="991" y="124.4951">presentarResultadoYConfirmacion()</text></g><!--link EliminarProyectoView to ProyectoController--><g class="link" data-entity-1="ent0003" data-entity-2="ent0004" data-link-type="dependency" data-source-line="37" id="lnk31"><path d="M1038.98,72.12 C930.43,86.2 747,110 747,110 C747,110 725.7165,134.6345 708.8465,154.1845" fill="none" id="EliminarProyectoView-to-ProyectoController-1" style="stroke:#181818;stroke-width:1;"/><polygon fill="#181818" points="705.58,157.97,714.4881,153.7694,708.8465,154.1845,708.4314,148.5429,705.58,157.97" style="stroke:#181818;stroke-width:1;stroke-linejoin:miter;stroke-miterlimit:10;"/><text fill="#000000" font-family="sans-serif" font-size="13" lengthAdjust="spacing" textLength="190.0107" x="748" y="124.4951">confirmarEliminacion(proyectoId)</text></g><!--link ProyectoController to ProyectoRepository--><g class="link" data-entity-1="ent0004" data-entity-2="ent0005" data-link-type="dependency" data-source-line="31" id="lnk25"><path d="M621.62,185.34 C496.41,198.79 243,226 243,226 C243,226 243,244 243,244 C243,244 302.6138,259.1393 356.2438,272.7593" fill="none" id="ProyectoController-to-ProyectoRepository" style="stroke:#181818;stroke-width:1;"/><polygon fill="#181818" points="361.09,273.99,353.3515,267.8977,356.2438,272.7593,351.3823,275.6516,361.09,273.99" style="stroke:#181818;stroke-width:1;stroke-linejoin:miter;stroke-miterlimit:10;"/><text fill="#000000" font-family="sans-serif" font-size="13" lengthAdjust="spacing" textLength="144.5234" x="244" y="240.4951">obtenerPorId(proyectoId)</text></g><!--link ProyectoController to ProyectoRepository--><g class="link" data-entity-1="ent0004" data-entity-2="ent0005" data-link-type="dependency" data-source-line="34" id="lnk28"><path d="M621.77,190.55 C544.43,204.77 429,226 429,226 C429,226 429,244 429,244 C429,244 429.7079,255.2698 430.5579,268.8598" fill="none" id="ProyectoController-to-ProyectoRepository-1" style="stroke:#181818;stroke-width:1;"/><polygon fill="#181818" points="430.87,273.85,434.3004,264.6179,430.5579,268.8598,426.316,265.1172,430.87,273.85" style="stroke:#181818;stroke-width:1;stroke-linejoin:miter;stroke-miterlimit:10;"/><text fill="#000000" font-family="sans-serif" font-size="13" lengthAdjust="spacing" textLength="153.9307" x="430" y="240.4951">obtenerEquipo(proyectoId)</text></g><!--link ProyectoController to ProyectoRepository--><g class="link" data-entity-1="ent0004" data-entity-2="ent0005" data-link-type="dependency" data-source-line="38" id="lnk32"><path d="M662.13,196.03 C631.93,215.58 588,244 588,244 C588,244 539.5789,258.8997 495.3089,272.5197" fill="none" id="ProyectoController-to-ProyectoRepository-2" style="stroke:#181818;stroke-width:1;"/><polygon fill="#181818" points="490.53,273.99,500.3083,275.1667,495.3089,272.5197,497.9559,267.5203,490.53,273.99" style="stroke:#181818;stroke-width:1;stroke-linejoin:miter;stroke-miterlimit:10;"/><text fill="#000000" font-family="sans-serif" font-size="13" lengthAdjust="spacing" textLength="114.8735" x="616" y="240.4951">eliminar(proyectoId)</text></g><!--link ProyectoController to EntregableRepository--><g class="link" data-entity-1="ent0004" data-entity-2="ent0006" data-link-type="dependency" data-source-line="32" id="lnk26"><path d="M710.42,196.15 C725.71,209.74 744,226 744,226 C744,226 758.2584,250.1142 769.7984,269.6642" fill="none" id="ProyectoController-to-EntregableRepository" style="stroke:#181818;stroke-width:1;"/><polygon fill="#181818" points="772.34,273.97,771.2097,264.1862,769.7984,269.6642,764.3204,268.2528,772.34,273.97" style="stroke:#181818;stroke-width:1;stroke-linejoin:miter;stroke-miterlimit:10;"/><text fill="#000000" font-family="sans-serif" font-size="13" lengthAdjust="spacing" textLength="184.9834" x="755" y="240.4951">obtenerPorProyecto(proyectoId)</text></g><!--link ProyectoController to RecompensaRepository--><g class="link" data-entity-1="ent0004" data-entity-2="ent0007" data-link-type="dependency" data-source-line="33" id="lnk27"><path d="M758.12,190.67 C834.56,204.9 948,226 948,226 C948,226 970.8772,250.7473 988.9372,270.2973" fill="none" id="ProyectoController-to-RecompensaRepository" style="stroke:#181818;stroke-width:1;"/><polygon fill="#181818" points="992.33,273.97,989.1611,264.6449,988.9372,270.2973,983.2848,270.0733,992.33,273.97" style="stroke:#181818;stroke-width:1;stroke-linejoin:miter;stroke-miterlimit:10;"/><text fill="#000000" font-family="sans-serif" font-size="13" lengthAdjust="spacing" textLength="184.9834" x="965" y="240.4951">obtenerPorProyecto(proyectoId)</text></g><!--link ProyectoController to ProyectoController--><g class="link" data-entity-1="ent0004" data-entity-2="ent0004" data-link-type="dependency" data-source-line="35" id="lnk29"><path d="M758.35,166.17 C777.91,166.59 793,170.2 793,177 C793,183.8 782.9088,187.3027 763.3488,187.7227" fill="none" id="ProyectoController-to-ProyectoController" style="stroke:#181818;stroke-width:1;"/><polygon fill="#181818" points="758.35,187.83,767.4338,191.6359,763.3488,187.7227,767.2621,183.6377,758.35,187.83" style="stroke:#181818;stroke-width:1;stroke-linejoin:miter;stroke-miterlimit:10;"/><text fill="#000000" font-family="sans-serif" font-size="13" lengthAdjust="spacing" textLength="198.7261" x="799" y="182.4951">validarTrazabilidad(dependencias)</text></g><!--link ProyectoRepository to Proyecto--><g class="link" data-entity-1="ent0005" data-entity-2="ent0008" data-link-type="association" data-source-line="39" id="lnk33"><path d="M432,312.24 C432,329.59 432,355.52 432,372.84" fill="none" id="ProyectoRepository-Proyecto" style="stroke:#181818;stroke-width:1;"/></g><!--link EntregableRepository to Entregable--><g class="link" data-entity-1="ent0006" data-entity-2="ent0009" data-link-type="association" data-source-line="40" id="lnk34"><path d="M783,312.24 C783,329.59 783,355.52 783,372.84" fill="none" id="EntregableRepository-Entregable" style="stroke:#181818;stroke-width:1;"/></g><!--link RecompensaRepository to Recompensa--><g class="link" data-entity-1="ent0007" data-entity-2="ent0010" data-link-type="association" data-source-line="41" id="lnk35"><path d="M1009,312.24 C1009,329.59 1009,355.52 1009,372.84" fill="none" id="RecompensaRepository-Recompensa" style="stroke:#181818;stroke-width:1;"/></g><!--link EliminarProyectoView to EstadoSalida--><g class="link" data-entity-1="ent0003" data-entity-2="ent0011" data-link-type="dependency" data-source-line="42" id="lnk36"><path d="M1149.48,80.06 C1187.76,101.35 1246.6104,134.0697 1284.9604,155.3997" fill="none" id="EliminarProyectoView-to-EstadoSalida" style="stroke:#181818;stroke-width:1;stroke-dasharray:7,7;"/><polygon fill="#181818" points="1289.33,157.83,1283.409,149.9597,1284.9604,155.3997,1279.5204,156.9511,1289.33,157.83" style="stroke:#181818;stroke-width:1;stroke-linejoin:miter;stroke-miterlimit:10;"/><text fill="#000000" font-family="sans-serif" font-size="13" lengthAdjust="spacing" textLength="115.6035" x="1232" y="124.4951">proyectoEliminado()</text></g><!--link EliminarProyectoView to EstadoSalidaSinCambios--><g class="link" data-entity-1="ent0003" data-entity-2="ent0012" data-link-type="dependency" data-source-line="43" id="lnk37"><path d="M1195.26,77.72 C1264.96,91.72 1356,110 1356,110 C1356,110 1429.6797,136.7149 1483.5697,156.2649" fill="none" id="EliminarProyectoView-to-EstadoSalidaSinCambios" style="stroke:#181818;stroke-width:1;stroke-dasharray:7,7;"/><polygon fill="#181818" points="1488.27,157.97,1481.1736,151.1405,1483.5697,156.2649,1478.4454,158.661,1488.27,157.97" style="stroke:#181818;stroke-width:1;stroke-linejoin:miter;stroke-miterlimit:10;"/><text fill="#000000" font-family="sans-serif" font-size="13" lengthAdjust="spacing" textLength="177.728" x="1405" y="124.4951">cancelarOImpedirEliminacion()</text></g><!--link EliminarProyectoView to AbrirProyecto--><g class="link" data-entity-1="ent0003" data-entity-2="ent0013" data-link-type="dependency" data-source-line="44" id="lnk38"><path d="M1195.01,69.9 C1329.56,83.52 1591,110 1591,110 C1591,110 1657.844,136.572 1706.994,156.122" fill="none" id="EliminarProyectoView-to-AbrirProyecto" style="stroke:#181818;stroke-width:1;stroke-dasharray:7,7;"/><polygon fill="#181818" points="1711.64,157.97,1704.7557,150.9269,1706.994,156.122,1701.7989,158.3604,1711.64,157.97" style="stroke:#181818;stroke-width:1;stroke-linejoin:miter;stroke-miterlimit:10;"/><text fill="#000000" font-family="sans-serif" font-size="13" lengthAdjust="spacing" textLength="85.9663" x="1636" y="124.4951">abrirProyecto()</text></g><!--link EliminarProyectoView to CrearProyecto--><g class="link" data-entity-1="ent0003" data-entity-2="ent0014" data-link-type="dependency" data-source-line="45" id="lnk39"><path d="M1195.26,68.13 C1360.52,81.07 1730,110 1730,110 C1730,110 1837.1238,137.1893 1914.1038,156.7393" fill="none" id="EliminarProyectoView-to-CrearProyecto" style="stroke:#181818;stroke-width:1;stroke-dasharray:7,7;"/><polygon fill="#181818" points="1918.95,157.97,1911.2115,151.8777,1914.1038,156.7393,1909.2423,159.6316,1918.95,157.97" style="stroke:#181818;stroke-width:1;stroke-linejoin:miter;stroke-miterlimit:10;"/><text fill="#000000" font-family="sans-serif" font-size="13" lengthAdjust="spacing" textLength="89.5781" x="1800" y="124.4951">crearProyecto()</text></g><!--link EliminarProyectoView to AbrirPanelPrincipal--><g class="link" data-entity-1="ent0003" data-entity-2="ent0015" data-link-type="dependency" data-source-line="46" id="lnk40"><path d="M1195.1,66.8 C1392.9,78.96 1898,110 1898,110 C1898,110 2040.3807,137.4722 2141.6407,157.0222" fill="none" id="EliminarProyectoView-to-AbrirPanelPrincipal" style="stroke:#181818;stroke-width:1;stroke-dasharray:7,7;"/><polygon fill="#181818" points="2146.55,157.97,2138.4715,152.3364,2141.6407,157.0222,2136.9549,160.1914,2146.55,157.97" style="stroke:#181818;stroke-width:1;stroke-linejoin:miter;stroke-miterlimit:10;"/><text fill="#000000" font-family="sans-serif" font-size="13" lengthAdjust="spacing" textLength="117.7681" x="1990" y="124.4951">abrirPanelPrincipal()</text></g><!--link EliminarProyectoView to EditarProyecto--><g class="link" data-entity-1="ent0003" data-entity-2="ent0016" data-link-type="dependency" data-source-line="47" id="lnk41"><path d="M1195.39,65.77 C1430.89,77.08 2116,110 2116,110 C2116,110 2273.5357,137.7232 2384.5957,157.2732" fill="none" id="EliminarProyectoView-to-EditarProyecto" style="stroke:#181818;stroke-width:1;stroke-dasharray:7,7;"/><polygon fill="#181818" points="2389.52,158.14,2381.3497,152.6403,2384.5957,157.2732,2379.9628,160.5191,2389.52,158.14" style="stroke:#181818;stroke-width:1;stroke-linejoin:miter;stroke-miterlimit:10;"/><text fill="#000000" font-family="sans-serif" font-size="13" lengthAdjust="spacing" textLength="92.479" x="2217" y="124.4951">editarProyecto()</text></g><!--link EliminarProyectoView to EliminarProyecto--><g class="link" data-entity-1="ent0003" data-entity-2="ent0017" data-link-type="dependency" data-source-line="48" id="lnk42"><path d="M1195.34,65.13 C1462,75.79 2318,110 2318,110 C2318,110 2498.3014,138.5386 2621.8614,158.0886" fill="none" id="EliminarProyectoView-to-EliminarProyecto" style="stroke:#181818;stroke-width:1;stroke-dasharray:7,7;"/><polygon fill="#181818" points="2626.8,158.87,2618.5357,153.5126,2621.8614,158.0886,2617.2855,161.4143,2626.8,158.87" style="stroke:#181818;stroke-width:1;stroke-linejoin:miter;stroke-miterlimit:10;"/><text fill="#000000" font-family="sans-serif" font-size="13" lengthAdjust="spacing" textLength="105.4727" x="2430" y="124.4951">eliminarProyecto()</text></g><!--link EliminarProyectoView to AgregarInvestigador--><g class="link" data-entity-1="ent0003" data-entity-2="ent0018" data-link-type="dependency" data-source-line="49" id="lnk43"><path d="M1195.24,64.63 C1493.71,74.67 2544,110 2544,110 C2544,110 2738.9625,138.4674 2872.8825,158.0274" fill="none" id="EliminarProyectoView-to-AgregarInvestigador" style="stroke:#181818;stroke-width:1;stroke-dasharray:7,7;"/><polygon fill="#181818" points="2877.83,158.75,2869.5026,153.4913,2872.8825,158.0274,2868.3464,161.4073,2877.83,158.75" style="stroke:#181818;stroke-width:1;stroke-linejoin:miter;stroke-miterlimit:10;"/><text fill="#000000" font-family="sans-serif" font-size="13" lengthAdjust="spacing" textLength="124.2871" x="2666" y="124.4951">agregarInvestigador()</text></g><!--link EliminarProyectoView to EliminarInvestigador--><g class="link" data-entity-1="ent0003" data-entity-2="ent0019" data-link-type="dependency" data-source-line="50" id="lnk44"><path d="M1195.03,64.23 C1526.27,73.68 2799,110 2799,110 C2799,110 3005.4588,139.0533 3144.3988,158.6033" fill="none" id="EliminarProyectoView-to-EliminarInvestigador" style="stroke:#181818;stroke-width:1;stroke-dasharray:7,7;"/><polygon fill="#181818" points="3149.35,159.3,3140.9951,154.085,3144.3988,158.6033,3139.8805,162.007,3149.35,159.3" style="stroke:#181818;stroke-width:1;stroke-linejoin:miter;stroke-miterlimit:10;"/><text fill="#000000" font-family="sans-serif" font-size="13" lengthAdjust="spacing" textLength="124.9917" x="2925" y="124.4951">eliminarInvestigador()</text></g><!--link EliminarProyectoView to AbrirEntregables--><g class="link" data-entity-1="ent0003" data-entity-2="ent0020" data-link-type="dependency" data-source-line="51" id="lnk45"><path d="M1195.19,63.93 C1557.79,72.9 3058,110 3058,110 C3058,110 3404,158 3404,158 C3404,158 3405.9208,158.2789 3416.4308,159.7889" fill="none" id="EliminarProyectoView-to-AbrirEntregables" style="stroke:#181818;stroke-width:1;stroke-dasharray:7,7;"/><polygon fill="#181818" points="3421.38,160.5,3413.0403,155.2607,3416.4308,159.7889,3411.9026,163.1794,3421.38,160.5" style="stroke:#181818;stroke-width:1;stroke-linejoin:miter;stroke-miterlimit:10;"/><text fill="#000000" font-family="sans-serif" font-size="13" lengthAdjust="spacing" textLength="104.0444" x="3180" y="124.4951">abrirEntregables()</text></g><!--link EliminarProyectoView to AbrirInvestigadores--><g class="link" data-entity-1="ent0003" data-entity-2="ent0021" data-link-type="dependency" data-source-line="52" id="lnk46"><path d="M1195.09,63.72 C1583.96,72.3 3293,110 3293,110 C3293,110 3654,158 3654,158 C3654,158 3655.8752,158.249 3666.4352,159.679" fill="none" id="EliminarProyectoView-to-AbrirInvestigadores" style="stroke:#181818;stroke-width:1;stroke-dasharray:7,7;"/><polygon fill="#181818" points="3671.39,160.35,3663.0082,155.1785,3666.4352,159.679,3661.9346,163.1061,3671.39,160.35" style="stroke:#181818;stroke-width:1;stroke-linejoin:miter;stroke-miterlimit:10;"/><text fill="#000000" font-family="sans-serif" font-size="13" lengthAdjust="spacing" textLength="119.2153" x="3421" y="124.4951">abrirInvestigadores()</text></g><!--link EliminarProyectoView to AbrirProyectos--><g class="link" data-entity-1="ent0003" data-entity-2="ent0022" data-link-type="dependency" data-source-line="53" id="lnk47"><path d="M1195.16,63.54 C1611.44,71.76 3549,110 3549,110 C3549,110 3920,158 3920,158 C3920,158 3922.146,158.3236 3932.876,159.9436" fill="none" id="EliminarProyectoView-to-AbrirProyectos" style="stroke:#181818;stroke-width:1;stroke-dasharray:7,7;"/><polygon fill="#181818" points="3937.82,160.69,3929.518,155.3912,3932.876,159.9436,3928.3237,163.3016,3937.82,160.69" style="stroke:#181818;stroke-width:1;stroke-linejoin:miter;stroke-miterlimit:10;"/><text fill="#000000" font-family="sans-serif" font-size="13" lengthAdjust="spacing" textLength="92.4663" x="3680" y="124.4951">abrirProyectos()</text></g><?plantuml-src hLLDRzim3BtxLmZP9JcaXs8jrXmAf9uBv9GW2GRqDD0M6mYL9KzoEsJ3_lkaEgabM_x8C9-iP_AH8fz9_S940Gfomfd0ybWWAIG_saCKASnA40UEv5FyDNbOtf39OhDTFoNnVlrz-R1AjllrX80cYIw1oaIK2YX41MGlS422dELCWDeeUJHCqbfEck1qDY6_8s8U9zhjzLtoU4UIXkqtXZ-RfkbDIc-_aBD9B4qIadDKJSF7wsNyEVamt68XDIkbEdOOsjlW0LAEWwPRp6HUeD0mQ7eEFnXqC5Jqfxz1ktE7TawBTi2PwT25ZQsyTap4aATCwg1_RAeEgLHGCYd8CbNies_lL1uoWY5M23w3XupE0GJoZM8YOmLm9nCF7y6MK5Os4lAXCHmDGLSi3N3CpGvM9Mebtb2Nx61QfAgRjV4BichHXJwChNkjP5qNtG77yhYnNIeVlrIHkYr97KNU62DpDRyFZg15Qx9DYzFBYiuCJS27pAbXQq-f1R7_iv8fg9DRPfBr-DfEPEvmrIDdGMHQea2raMf5nt24PfpB4hnV1rTe2FuhLy_TaX-lhBY8n2tss_iaKti5lo1bzfrEAPgiAPf10BgxKa4T54PwACmCsA9-vLOyJyRlcQcyQkEiGmkTKgXy_uSKpX8D-jU6nh_UII4vM0DdAuMwR4sSlHIyyjNLlRTCREsgpoTpAhkgrNIjzv2f68WCEQZroWIdp2jS3vttuoy8kCS-Fsy3cUZkSJYUjt7EKJsmjmJUiZ4DziwzdeqFWVdLbtjxfvZSs-2O37mI3A23LNHMoAc43ZBexM-D4u4FZjQDRWZ7Ulu5?></g></svg>