<svg xmlns="http://www.w3.org/2000/svg" xmlns:xlink="http://www.w3.org/1999/xlink" contentStyleType="text/css" data-diagram-type="DESCRIPTION" height="434px" preserveAspectRatio="none" style="width:1562px;height:434px;background:#FFFFFF;" version="1.1" viewBox="0 0 1562 434" width="1562px" zoomAndPan="magnify"><defs/><g><!--cluster eliminarProyecto--><g class="cluster" data-entity="eliminarProyecto" data-source-line="4" data-uid="ent0003" id="cluster_eliminarProyecto"><path d="M197.5,6 L321.4238,6 A3.75,3.75 0 0 1 323.9238,8.5 L330.9238,29.6094 L1094.5,29.6094 A2.5,2.5 0 0 1 1097,32.1094 L1097,424.5 A2.5,2.5 0 0 1 1094.5,427 L197.5,427 A2.5,2.5 0 0 1 195,424.5 L195,8.5 A2.5,2.5 0 0 1 197.5,6" fill="none" style="stroke:#000000;stroke-width:1.5;"/><line style="stroke:#000000;stroke-width:1.5;" x1="195" x2="330.9238" y1="29.6094" y2="29.6094"/><text fill="#000000" font-family="sans-serif" font-size="14" font-weight="bold" lengthAdjust="spacing" textLength="122.9238" x="199" y="22.5332">eliminarProyecto()</text></g><!--entity EliminarProyectoView--><g class="entity" data-entity="EliminarProyectoView" data-source-line="5" data-uid="ent0004" id="entity_EliminarProyectoView"><rect fill="#629EF9" height="37.6094" rx="2.5" ry="2.5" style="stroke:#181818;stroke-width:0.5;" width="156.1582" x="696" y="42"/><text fill="#000000" font-family="sans-serif" font-size="14" lengthAdjust="spacing" textLength="136.1582" x="706" y="66.5332">EliminarProyectoView</text></g><!--entity ProyectoController--><g class="entity" data-entity="ProyectoController" data-source-line="6" data-uid="ent0005" id="entity_ProyectoController"><rect fill="#B5BD68" height="37.6094" rx="2.5" ry="2.5" style="stroke:#181818;stroke-width:0.5;" width="135.9375" x="540" y="158"/><text fill="#000000" font-family="sans-serif" font-size="14" lengthAdjust="spacing" textLength="115.9375" x="550" y="182.5332">ProyectoController</text></g><!--entity ProyectoRepository--><g class="entity" data-entity="ProyectoRepository" data-source-line="7" data-uid="ent0006" id="entity_ProyectoRepository"><rect fill="#F2AC4E" height="37.6094" rx="2.5" ry="2.5" style="stroke:#181818;stroke-width:0.5;" width="142.165" x="536" y="274"/><text fill="#000000" font-family="sans-serif" font-size="14" lengthAdjust="spacing" textLength="122.165" x="546" y="298.5332">ProyectoRepository</text></g><!--entity Proyecto--><g class="entity" data-entity="Proyecto" data-source-line="8" data-uid="ent0007" id="entity_Proyecto"><rect fill="#F2AC4E" height="37.6094" rx="2.5" ry="2.5" style="stroke:#181818;stroke-width:0.5;" width="75.248" x="569.5" y="373"/><text fill="#000000" font-family="sans-serif" font-size="14" lengthAdjust="spacing" textLength="55.248" x="579.5" y="397.5332">Proyecto</text></g><!--entity EstadoEntrada--><g class="entity" data-entity="EstadoEntrada" data-source-line="3" data-uid="ent0002" id="entity_EstadoEntrada"><rect fill="#CDEBA5" height="37.6094" rx="2.5" ry="2.5" style="stroke:#181818;stroke-width:0.5;" width="171.6963" x="7" y="42"/><text fill="#000000" font-family="sans-serif" font-size="14" lengthAdjust="spacing" textLength="151.6963" x="17" y="66.5332">:PROYECTO_ABIERTO</text></g><!--entity EstadoSalida--><g class="entity" data-entity="EstadoSalida" data-source-line="11" data-uid="ent0008" id="entity_EstadoSalida"><rect fill="#CDEBA5" height="37.6094" rx="2.5" ry="2.5" style="stroke:#181818;stroke-width:0.5;" width="171.6963" x="1130" y="158"/><text fill="#000000" font-family="sans-serif" font-size="14" lengthAdjust="spacing" textLength="151.6963" x="1140" y="182.5332">:PROYECTO_ABIERTO</text></g><!--entity AbrirProyectos--><g class="entity" data-entity="AbrirProyectos" data-source-line="12" data-uid="ent0009" id="entity_AbrirProyectos"><rect fill="#CDEBA5" height="37.6094" rx="2.5" ry="2.5" style="stroke:#181818;stroke-width:0.5;" width="202.082" x="1354" y="158"/><text fill="#000000" font-family="sans-serif" font-size="14" lengthAdjust="spacing" textLength="182.082" x="1364" y="182.5332">:Collaboration AbrirProyectos</text></g><!--link EstadoEntrada to EliminarProyectoView--><g class="link" data-entity-1="EstadoEntrada" data-entity-2="EliminarProyectoView" data-source-line="14" data-uid="lnk10" id="link_EstadoEntrada_EliminarProyectoView"><path d="M179.25,61 C312.75,61 561.39,61 689.81,61" fill="none" id="EstadoEntrada-to-EliminarProyectoView" style="stroke:#181818;stroke-width:1;"/><polygon fill="#181818" points="695.81,61,686.81,57,690.81,61,686.81,65,695.81,61" style="stroke:#181818;stroke-width:1;"/><text fill="#000000" font-family="sans-serif" font-size="13" lengthAdjust="spacing" textLength="105.4727" x="385" y="54.4951">eliminarProyecto()</text></g><!--link EliminarProyectoView to ProyectoController--><g class="link" data-entity-1="EliminarProyectoView" data-entity-2="ProyectoController" data-source-line="16" data-uid="lnk11" id="link_EliminarProyectoView_ProyectoController"><path d="M695.93,69.06 C548.34,82.4 243,110 243,110 C243,110 243,128 243,128 C243,128 428.1813,152.3473 533.8213,166.2473" fill="none" id="EliminarProyectoView-to-ProyectoController" style="stroke:#181818;stroke-width:1;"/><polygon fill="#181818" points="539.77,167.03,531.3687,161.8901,534.8127,166.3777,530.3251,169.8217,539.77,167.03" style="stroke:#181818;stroke-width:1;"/><text fill="#000000" font-family="sans-serif" font-size="13" lengthAdjust="spacing" textLength="139.4263" x="244" y="124.4951">solicitarConfirmacion(id)</text></g><!--link ProyectoController to EliminarProyectoView--><g class="link" data-entity-1="ProyectoController" data-entity-2="EliminarProyectoView" data-source-line="17" data-uid="lnk12" id="link_ProyectoController_EliminarProyectoView"><path d="M676.09,164.81 C762.38,150.62 900,128 900,128 C900,128 900,110 900,110 C900,110 862.6369,95.7661 826.8869,82.1461" fill="none" id="ProyectoController-to-EliminarProyectoView" style="stroke:#181818;stroke-width:1;"/><polygon fill="#181818" points="821.28,80.01,828.2662,86.9521,825.9524,81.7901,831.1144,79.4762,821.28,80.01" style="stroke:#181818;stroke-width:1;"/><text fill="#000000" font-family="sans-serif" font-size="13" lengthAdjust="spacing" textLength="140.1626" x="901" y="124.4951">presentarConfirmacion()</text></g><!--link EliminarProyectoView to ProyectoController--><g class="link" data-entity-1="EliminarProyectoView" data-entity-2="ProyectoController" data-source-line="18" data-uid="lnk13" id="link_EliminarProyectoView_ProyectoController"><path d="M695.89,72.71 C592.74,86.86 424,110 424,110 C424,110 424,128 424,128 C424,128 481.5742,143.0156 533.9442,156.6756" fill="none" id="EliminarProyectoView-to-ProyectoController-1" style="stroke:#181818;stroke-width:1;"/><polygon fill="#181818" points="539.75,158.19,532.0509,152.048,534.9119,156.928,530.0318,159.789,539.75,158.19" style="stroke:#181818;stroke-width:1;"/><text fill="#000000" font-family="sans-serif" font-size="13" lengthAdjust="spacing" textLength="139.4263" x="425" y="124.4951">confirmarEliminacion(id)</text></g><!--link EliminarProyectoView to ProyectoController--><g class="link" data-entity-1="EliminarProyectoView" data-entity-2="ProyectoController" data-source-line="19" data-uid="lnk14" id="link_EliminarProyectoView_ProyectoController"><path d="M710.59,80.01 C662.64,93.63 605,110 605,110 C605,110 605,128 605,128 C605,128 605.6455,138.2717 606.4955,151.8617" fill="none" id="EliminarProyectoView-to-ProyectoController-2" style="stroke:#181818;stroke-width:1;"/><polygon fill="#181818" points="606.87,157.85,610.3004,148.6179,606.5579,152.8598,602.316,149.1172,606.87,157.85" style="stroke:#181818;stroke-width:1;"/><text fill="#000000" font-family="sans-serif" font-size="13" lengthAdjust="spacing" textLength="124.2681" x="606" y="124.4951">cancelarEliminacion()</text></g><!--link EliminarProyectoView to ProyectoController--><g class="link" data-entity-1="EliminarProyectoView" data-entity-2="ProyectoController" data-source-line="20" data-uid="lnk15" id="link_EliminarProyectoView_ProyectoController"><path d="M763.34,80.03 C751.8,99.58 735,128 735,128 C735,128 697.3026,142.2489 661.2626,155.8689" fill="none" id="EliminarProyectoView-to-ProyectoController-3" style="stroke:#181818;stroke-width:1;"/><polygon fill="#181818" points="655.65,157.99,665.4829,158.5501,660.3272,156.2224,662.6548,151.0667,655.65,157.99" style="stroke:#181818;stroke-width:1;"/><text fill="#000000" font-family="sans-serif" font-size="13" lengthAdjust="spacing" textLength="123.5444" x="746" y="124.4951">validarEliminacion(id)</text></g><!--link ProyectoController to ProyectoRepository--><g class="link" data-entity-1="ProyectoController" data-entity-2="ProyectoRepository" data-source-line="21" data-uid="lnk16" id="link_ProyectoController_ProyectoRepository"><path d="M581.16,196.15 C561.05,209.74 537,226 537,226 C537,226 537,244 537,244 C537,244 555.7607,256.8681 575.5907,270.4581" fill="none" id="ProyectoController-to-ProyectoRepository" style="stroke:#181818;stroke-width:1;"/><polygon fill="#181818" points="580.54,273.85,575.3773,265.4627,576.4156,271.0234,570.8549,272.0617,580.54,273.85" style="stroke:#181818;stroke-width:1;"/><text fill="#000000" font-family="sans-serif" font-size="13" lengthAdjust="spacing" textLength="93.939" x="538" y="240.4951">obtenerPorId(id)</text></g><!--link ProyectoController to ProyectoRepository--><g class="link" data-entity-1="ProyectoController" data-entity-2="ProyectoRepository" data-source-line="22" data-uid="lnk17" id="link_ProyectoController_ProyectoRepository"><path d="M618.59,196.15 C626.51,209.74 636,226 636,226 C636,226 636,244 636,244 C636,244 629.2853,255.1261 621.0653,268.7161" fill="none" id="ProyectoController-to-ProyectoRepository-1" style="stroke:#181818;stroke-width:1;"/><polygon fill="#181818" points="617.96,273.85,626.0405,268.2193,620.5477,269.5717,619.1953,264.0789,617.96,273.85" style="stroke:#181818;stroke-width:1;"/><text fill="#000000" font-family="sans-serif" font-size="13" lengthAdjust="spacing" textLength="64.2891" x="637" y="240.4951">eliminar(id)</text></g><!--link ProyectoRepository to Proyecto--><g class="link" data-entity-1="ProyectoRepository" data-entity-2="Proyecto" data-source-line="23" data-uid="lnk18" id="link_ProyectoRepository_Proyecto"><path d="M607,312.24 C607,329.59 607,355.52 607,372.84" fill="none" id="ProyectoRepository-Proyecto" style="stroke:#181818;stroke-width:1;"/></g><!--link EliminarProyectoView to EstadoSalida--><g class="link" data-entity-1="EliminarProyectoView" data-entity-2="EstadoSalida" data-source-line="24" data-uid="lnk19" id="link_EliminarProyectoView_EstadoSalida"><path d="M852.35,75.63 C933.95,89.82 1050,110 1050,110 C1050,110 1115.9148,136.2024 1165.0648,155.7524" fill="none" id="EliminarProyectoView-to-EstadoSalida" style="stroke:#181818;stroke-width:1;stroke-dasharray:7,7;"/><polygon fill="#181818" points="1170.64,157.97,1163.7557,150.9269,1165.994,156.122,1160.7989,158.3604,1170.64,157.97" style="stroke:#181818;stroke-width:1;"/><text fill="#000000" font-family="sans-serif" font-size="13" lengthAdjust="spacing" textLength="115.6035" x="1095" y="124.4951">proyectoEliminado()</text></g><!--link EliminarProyectoView to EstadoSalida--><g class="link" data-entity-1="EliminarProyectoView" data-entity-2="EstadoSalida" data-source-line="25" data-uid="lnk20" id="link_EliminarProyectoView_EstadoSalida"><path d="M852.02,70.42 C979.65,84.18 1219,110 1219,110 C1219,110 1219,128 1219,128 C1219,128 1218.3545,138.2717 1217.5045,151.8617" fill="none" id="EliminarProyectoView-to-EstadoSalida-1" style="stroke:#181818;stroke-width:1;stroke-dasharray:7,7;"/><polygon fill="#181818" points="1217.13,157.85,1221.684,149.1172,1217.4421,152.8598,1213.6996,148.6179,1217.13,157.85" style="stroke:#181818;stroke-width:1;"/><text fill="#000000" font-family="sans-serif" font-size="13" lengthAdjust="spacing" textLength="135.8462" x="1220" y="124.4951">eliminacionCancelada()</text></g><!--link EliminarProyectoView to AbrirProyectos--><g class="link" data-entity-1="EliminarProyectoView" data-entity-2="AbrirProyectos" data-source-line="26" data-uid="lnk21" id="link_EliminarProyectoView_AbrirProyectos"><path d="M852.04,68.35 C1012.39,81.39 1364,110 1364,110 C1364,110 1398.3339,134.896 1425.2739,154.446" fill="none" id="EliminarProyectoView-to-AbrirProyectos" style="stroke:#181818;stroke-width:1;stroke-dasharray:7,7;"/><polygon fill="#181818" points="1430.13,157.97,1425.1952,149.4466,1426.0833,155.0333,1420.4966,155.9214,1430.13,157.97" style="stroke:#181818;stroke-width:1;"/><text fill="#000000" font-family="sans-serif" font-size="13" lengthAdjust="spacing" textLength="92.4663" x="1389" y="124.4951">abrirProyectos()</text></g><!--SRC=[bP9BRy8m48Jl_XMhz087EA22IWv88JKI9n15bNggDh6BB8mTRQnMKTN_NlCeDAzMoStED-FnUFEzCXaI7a0h8rsHISYiBeuBnaYc3irEIxYB7_ay6aCGhZUh5nvlLw_HVCatsrK0c0FF7GhBZICKo39CzxYJ8BKwA8Eq9bju9tiaW-fchn_09mF__JfjCfhonHHuXNrMygEA9kD4J1xW1ucj3s6rbbG55wCelkTNS2CpcojdgVW7P5-TYtX2hNmFJQhOPyF44Zfb3KG9gUljyfD3UOknKhKmeC6iiPOGwiLwSGC90-4zwds5a5kjKkMG_EQReWEcFcDFYJwhqp1e3PAHpAMfslHRmhHaIIzQkgYkKRgve4cbBfjqj7W_lMKjHaiZzUaAmIPE6abhIqlHLVlpg2NT3V2wsvmsNciud9M6ylWyvzyNNDYsHkfIUIiXFZShy2zrUPP3mDBQAxy1]--></g></svg>