<svg xmlns="http://www.w3.org/2000/svg" xmlns:xlink="http://www.w3.org/1999/xlink" contentStyleType="text/css" data-diagram-type="STATE" height="837px" preserveAspectRatio="none" style="width:696px;height:837px;background:#FFFFFF;" version="1.1" viewBox="0 0 696 837" width="696px" zoomAndPan="magnify"><?plantuml 1.2026.3?><defs/><g><g class="entity" data-qualified-name="in2" id="ent0002"><rect fill="#F1F1F1" height="50" rx="12.5" ry="12.5" style="stroke:#181818;stroke-width:0.5;" width="223.0479" x="237" y="7"/><line style="stroke:#181818;stroke-width:0.5;" x1="237" x2="460.0479" y1="34.6094" y2="34.6094"/><text fill="#000000" font-family="sans-serif" font-size="14" lengthAdjust="spacing" textLength="203.0479" x="247" y="26.5332">INVESTIGADORES_ABIERTOS</text></g><path d="M108.5,153 L588.5,153 A12.5,12.5 0 0 1 601,165.5 L601,180.6094 L96,180.6094 L96,165.5 A12.5,12.5 0 0 1 108.5,153" fill="#F1F1F1"/><rect fill="none" height="523.6094" rx="12.5" ry="12.5" style="stroke:#181818;stroke-width:0.5;" width="505" x="96" y="153"/><line style="stroke:#181818;stroke-width:0.5;" x1="96" x2="601" y1="180.6094" y2="180.6094"/><text fill="#000000" font-family="sans-serif" font-size="14" lengthAdjust="spacing" textLength="113.5996" x="291.7002" y="172.5332">abrirInvestigador()</text><g class="entity" data-qualified-name="abrirInvestigador.MostrandoLista" id="ent0004"><rect fill="#F1F1F1" height="50" rx="12.5" ry="12.5" style="stroke:#181818;stroke-width:0.5;" width="50" x="108" y="283.6094"/><line style="stroke:#181818;stroke-width:0.5;" x1="108" x2="158" y1="311.2188" y2="311.2188"/><text fill="#000000" font-family="sans-serif" font-size="14" lengthAdjust="spacing" textLength="3.8896" x="131.0552" y="303.1426">&#160;</text></g><g class="entity" data-qualified-name="abrirInvestigador.FiltrandoLista" id="ent0005"><rect fill="#F1F1F1" height="50" rx="12.5" ry="12.5" style="stroke:#181818;stroke-width:0.5;" width="50" x="108" y="519.6094"/><line style="stroke:#181818;stroke-width:0.5;" x1="108" x2="158" y1="547.2188" y2="547.2188"/><text fill="#000000" font-family="sans-serif" font-size="14" lengthAdjust="spacing" textLength="3.8896" x="131.0552" y="539.1426">&#160;</text></g><g class="start_entity" data-qualified-name="abrirInvestigador..start.abrirInvestigador" data-source-line="18" id="ent0003"><ellipse cx="133" cy="201.6094" fill="#222222" rx="10" ry="10" style="stroke:#222222;stroke-width:1;"/></g><g class="end_entity" data-qualified-name="abrirInvestigador..end.abrirInvestigador" data-source-line="34" id="ent0006"><ellipse cx="133" cy="652.6094" fill="none" rx="11" ry="11" style="stroke:#222222;stroke-width:1;"/><ellipse cx="133" cy="652.6094" fill="#222222" rx="6" ry="6" style="stroke:#222222;stroke-width:1;"/></g><!--link *start*abrirInvestigador to MostrandoLista--><g class="link" data-entity-1="ent0003" data-entity-2="ent0004" data-link-type="dependency" data-source-line="18" id="lnk4"><path d="M133,211.9294 C133,227.7894 133,254.5194 133,277.2494" fill="none" id="*start*abrirInvestigador-to-MostrandoLista" style="stroke:#008000;stroke-width:1;"/><polygon fill="#008000" points="133,283.2494,137,274.2494,133,278.2494,129,274.2494,133,283.2494" style="stroke:#008000;stroke-width:1;"/><path d="M138,234.6094 L138,260.6094 L382,260.6094 L382,244.6094 L372,234.6094 L138,234.6094" fill="#FEFFDD" style="stroke:#181818;stroke-width:0.5;"/><path d="M372,234.6094 L372,244.6094 L382,244.6094 L372,234.6094" fill="#FEFFDD" style="stroke:#181818;stroke-width:0.5;"/><text fill="#000000" font-family="sans-serif" font-size="13" font-weight="700" lengthAdjust="spacing" textLength="77.2954" x="144" y="253.1045">Investigador</text><text fill="#000000" font-family="sans-serif" font-size="13" lengthAdjust="spacing" textLength="143.0635" x="224.9072" y="253.1045">solicita abrir investigador</text></g><!--link MostrandoLista to FiltrandoLista--><g class="link" data-entity-1="ent0004" data-entity-2="ent0005" data-link-type="dependency" data-source-line="23" id="lnk5"><path d="M133,333.7694 C133,378.7294 133,468.7194 133,513.5794" fill="none" id="MostrandoLista-to-FiltrandoLista" style="stroke:#008000;stroke-width:1;"/><polygon fill="#008000" points="133,519.5794,137,510.5794,133,514.5794,129,510.5794,133,519.5794" style="stroke:#008000;stroke-width:1;"/><path d="M138,356.6094 L138,496.6094 L577,496.6094 L577,366.6094 L567,356.6094 L138,356.6094" fill="#FEFFDD" style="stroke:#181818;stroke-width:0.5;"/><path d="M567,356.6094 L567,366.6094 L577,366.6094 L567,356.6094" fill="#FEFFDD" style="stroke:#181818;stroke-width:0.5;"/><text fill="#000000" font-family="sans-serif" font-size="13" font-weight="700" lengthAdjust="spacing" textLength="49.8608" x="144" y="375.1045">Sistema</text><text fill="#000000" font-family="sans-serif" font-size="13" lengthAdjust="spacing" textLength="174.1606" x="197.4727" y="375.1045">presenta perfil de investigador</text><text fill="#000000" font-family="sans-serif" font-size="13" lengthAdjust="spacing" textLength="418.5835" x="144" y="391.4561">&#8226; ID, nombre, apellido, campo, carrera, master y rol de cada investigador</text><text fill="#000000" font-family="sans-serif" font-size="13" lengthAdjust="spacing" textLength="3.6118" x="144" y="407.8076">&#160;</text><text fill="#000000" font-family="sans-serif" font-size="13" lengthAdjust="spacing" textLength="215.5283" x="144" y="424.1592">&#8226; Permite solicitar abrirInvestigadores</text><text fill="#000000" font-family="sans-serif" font-size="13" lengthAdjust="spacing" textLength="3.6118" x="144" y="440.5107">&#160;</text><text fill="#000000" font-family="sans-serif" font-size="13" lengthAdjust="spacing" textLength="3.6118" x="144" y="456.8623">&#160;</text><text fill="#000000" font-family="sans-serif" font-size="13" lengthAdjust="spacing" textLength="3.6118" x="144" y="473.2139">&#160;</text><text fill="#000000" font-family="sans-serif" font-size="13" lengthAdjust="spacing" textLength="3.6118" x="144" y="489.5654">&#160;</text></g><!--link FiltrandoLista to *end*abrirInvestigador--><g class="link" data-entity-1="ent0005" data-entity-2="ent0006" data-link-type="dependency" data-source-line="34" id="lnk7"><path d="M133,569.6594 C133,592.2594 133,618.9894 133,635.4094" fill="none" id="FiltrandoLista-to-*end*abrirInvestigador" style="stroke:#008000;stroke-width:1;"/><polygon fill="#008000" points="133,641.4094,137,632.4094,133,636.4094,129,632.4094,133,641.4094" style="stroke:#008000;stroke-width:1;"/><path d="M138,592.6094 L138,618.6094 L398,618.6094 L398,602.6094 L388,592.6094 L138,592.6094" fill="#FEFFDD" style="stroke:#181818;stroke-width:0.5;"/><path d="M388,592.6094 L388,602.6094 L398,602.6094 L388,592.6094" fill="#FEFFDD" style="stroke:#181818;stroke-width:0.5;"/><text fill="#000000" font-family="sans-serif" font-size="13" font-weight="700" lengthAdjust="spacing" textLength="77.2954" x="144" y="611.1045">Investigador</text><text fill="#000000" font-family="sans-serif" font-size="13" lengthAdjust="spacing" textLength="158.9897" x="224.9072" y="611.1045">solicita una de las opciones</text></g><g class="entity" data-qualified-name="INVESTIGADOR_ABIERTO" id="ent0008"><rect fill="#F1F1F1" height="50" rx="12.5" ry="12.5" style="stroke:#181818;stroke-width:0.5;" width="195.0342" x="7" y="773"/><line style="stroke:#181818;stroke-width:0.5;" x1="7" x2="202.0342" y1="800.6094" y2="800.6094"/><text fill="#000000" font-family="sans-serif" font-size="14" lengthAdjust="spacing" textLength="175.0342" x="17" y="792.5332">INVESTIGADOR_ABIERTO</text></g><g class="entity" data-qualified-name="INVESTIGADORES_ABIERTOS" id="ent0010"><rect fill="#F1F1F1" height="50" rx="12.5" ry="12.5" style="stroke:#181818;stroke-width:0.5;" width="223.0479" x="237" y="773"/><line style="stroke:#181818;stroke-width:0.5;" x1="237" x2="460.0479" y1="800.6094" y2="800.6094"/><text fill="#000000" font-family="sans-serif" font-size="14" lengthAdjust="spacing" textLength="203.0479" x="247" y="792.5332">INVESTIGADORES_ABIERTOS</text></g><g class="entity" data-qualified-name="PROYECTOS_ABIERTOS" id="ent0012"><rect fill="#F1F1F1" height="50" rx="12.5" ry="12.5" style="stroke:#181818;stroke-width:0.5;" width="186.4824" x="495.5" y="773"/><line style="stroke:#181818;stroke-width:0.5;" x1="495.5" x2="681.9824" y1="800.6094" y2="800.6094"/><text fill="#000000" font-family="sans-serif" font-size="14" lengthAdjust="spacing" textLength="166.4824" x="505.5" y="792.5332">PROYECTOS_ABIERTOS</text></g><!--link in2 to abrirInvestigador--><g class="link" data-entity-1="ent0002" data-entity-2="ent0003" data-link-type="dependency" data-source-line="7" id="lnk2"><path d="M348.5,57.12 C348.5,78.88 348.5,107.41 348.5,146.62" fill="none" id="in2-to-abrirInvestigador" style="stroke:#008000;stroke-width:1;"/><polygon fill="#008000" points="348.5,152.62,352.5,143.62,348.5,147.62,344.5,143.62,348.5,152.62" style="stroke:#008000;stroke-width:1;"/><path d="M353.5,92 L353.5,118 L479.5,118 L479.5,102 L469.5,92 L353.5,92" fill="#FEFFDD" style="stroke:#181818;stroke-width:0.5;"/><path d="M469.5,92 L469.5,102 L479.5,102 L469.5,92" fill="#FEFFDD" style="stroke:#181818;stroke-width:0.5;"/><text fill="#000000" font-family="sans-serif" font-size="13" lengthAdjust="spacing" textLength="105.4854" x="359.5" y="110.4951">abrirInvestigador()</text></g><!--link abrirInvestigador to INVESTIGADOR_ABIERTO--><g class="link" data-entity-1="ent0003" data-entity-2="ent0008" data-link-type="dependency" data-source-line="42" id="lnk9"><path d="M181.2,677.23 C156.04,716.52 137.1161,746.0775 123.1661,767.8575" fill="none" id="abrirInvestigador-to-INVESTIGADOR_ABIERTO" style="stroke:#008000;stroke-width:1;"/><polygon fill="#008000" points="119.93,772.91,128.1525,767.4887,122.6267,768.6996,121.4158,763.1739,119.93,772.91" style="stroke:#008000;stroke-width:1;"/><path d="M162.5,712 L162.5,738 L297.5,738 L297.5,722 L287.5,712 L162.5,712" fill="#FEFFDD" style="stroke:#181818;stroke-width:0.5;"/><path d="M287.5,712 L287.5,722 L297.5,722 L287.5,712" fill="#FEFFDD" style="stroke:#181818;stroke-width:0.5;"/><text fill="#000000" font-family="sans-serif" font-size="13" lengthAdjust="spacing" textLength="114.1816" x="168.5" y="730.4951">Investigador abierto</text></g><!--link abrirInvestigador to INVESTIGADORES_ABIERTOS--><g class="link" data-entity-1="ent0003" data-entity-2="ent0010" data-link-type="dependency" data-source-line="47" id="lnk11"><path d="M348.5,677.23 C348.5,716.52 348.5,745.13 348.5,766.91" fill="none" id="abrirInvestigador-to-INVESTIGADORES_ABIERTOS" style="stroke:#008000;stroke-width:1;"/><polygon fill="#008000" points="348.5,772.91,352.5,763.91,348.5,767.91,344.5,763.91,348.5,772.91" style="stroke:#008000;stroke-width:1;"/><path d="M353.5,712 L353.5,738 L493.5,738 L493.5,722 L483.5,712 L353.5,712" fill="#FEFFDD" style="stroke:#181818;stroke-width:0.5;"/><path d="M483.5,712 L483.5,722 L493.5,722 L483.5,712" fill="#FEFFDD" style="stroke:#181818;stroke-width:0.5;"/><text fill="#000000" font-family="sans-serif" font-size="13" lengthAdjust="spacing" textLength="119.2153" x="359.5" y="730.4951">abrirInvestigadores()</text></g><!--link abrirInvestigador to PROYECTOS_ABIERTOS--><g class="link" data-entity-1="ent0003" data-entity-2="ent0012" data-link-type="dependency" data-source-line="52" id="lnk13"><path d="M513.06,677.23 C537.8,716.52 556.412,746.0533 570.132,767.8333" fill="none" id="abrirInvestigador-to-PROYECTOS_ABIERTOS" style="stroke:#008000;stroke-width:1;"/><polygon fill="#008000" points="573.33,772.91,571.9175,763.163,570.665,768.6794,565.1485,767.427,573.33,772.91" style="stroke:#008000;stroke-width:1;"/><path d="M558.5,712 L558.5,738 L671.5,738 L671.5,722 L661.5,712 L558.5,712" fill="#FEFFDD" style="stroke:#181818;stroke-width:0.5;"/><path d="M661.5,712 L661.5,722 L671.5,722 L661.5,712" fill="#FEFFDD" style="stroke:#181818;stroke-width:0.5;"/><text fill="#000000" font-family="sans-serif" font-size="13" lengthAdjust="spacing" textLength="92.4663" x="564.5" y="730.4951">abrirProyectos()</text></g><?plantuml-src dLFXIiCm4FwVfpZc7vKEmTzZC5sLWhgn3a76aBGzHrYRb4iLYWW-Yu_catZfs6XMdM8ARPEx--wxkozshNGfIHQGAurLNIAK9g_THl2obQmGb3u7QQ4NtTs7yJow7eqdip1-75r4uMm-YNl2EVGNHoj2rCl-46H2YYBzWhPIAvaP4jemZj4korfqpCSd0dK6pccNjEFKKFWcj0UlGW2lJLoF7_QyDROYgJDpe_YyQxzIUTlUE2nEbruPFWOqFbuXxc2G3Djy1cV94Ap9LQeufA7B_MjrmiLiYtN_OlVQIzTciiVs9o8nMx6G3OUIqA9cd1BfIUMGOPV7v_i7HEE0iOg4C01POfwhp0IGog9iFaH8Ce12CZ913MGQg5Hciekt0vqY5OhvRHj1tN6YTKtVX7bDQJP-mLulU4h_cCIpbevtpgCtPQgCvlnUrZUdzwxesfdR-j-gtrUshzT48LMc9Us_mxUkrozt1wrtUmwdcCuc3-4bWnv2dvAfCQsC3oo-0000?></g></svg>