<svg xmlns="http://www.w3.org/2000/svg" xmlns:xlink="http://www.w3.org/1999/xlink" contentStyleType="text/css" data-diagram-type="STATE" height="769px" preserveAspectRatio="none" style="width:696px;height:769px;background:#FFFFFF;" version="1.1" viewBox="0 0 696 769" width="696px" zoomAndPan="magnify"><?plantuml 1.2026.6?><defs/><g><g class="entity" data-qualified-name="Investigadores" data-source-line="3" id="ent0001"><rect fill="#F1F1F1" height="50" rx="12.5" ry="12.5" style="stroke:#181818;stroke-width:0.5;" width="223.0479" x="237" y="7"/><line style="stroke:#181818;stroke-width:0.5;" x1="237" x2="460.0479" y1="34.6094" y2="34.6094"/><text fill="#000000" font-family="sans-serif" font-size="14" lengthAdjust="spacing" textLength="203.0479" x="247" y="26.5332">INVESTIGADORES_ABIERTOS</text></g><g class="entity" data-qualified-name="abrirInvestigador" data-source-line="6" id="ent0002"><path d="M178,135 L519,135 A12.5,12.5 0 0 1 531.5,147.5 L531.5,162.6094 L165.5,162.6094 L165.5,147.5 A12.5,12.5 0 0 1 178,135" fill="#F1F1F1"/><rect fill="none" height="491.6094" rx="12.5" ry="12.5" style="stroke:#181818;stroke-width:0.5;" width="366" x="165.5" y="135"/><line style="stroke:#181818;stroke-width:0.5;" x1="165.5" x2="531.5" y1="162.6094" y2="162.6094"/><text fill="#000000" font-family="sans-serif" font-size="14" lengthAdjust="spacing" textLength="200.7646" x="248.1177" y="154.5332">abrirInvestigador(idInvestigador)</text><g class="entity" data-qualified-name="abrirInvestigador.ConsultandoInvestigador" data-source-line="7" id="ent0003"><rect fill="#F1F1F1" height="50" rx="12.5" ry="12.5" style="stroke:#181818;stroke-width:0.5;" width="50" x="177.5" y="265.6094"/><line style="stroke:#181818;stroke-width:0.5;" x1="177.5" x2="227.5" y1="293.2188" y2="293.2188"/><text fill="#000000" font-family="sans-serif" font-size="14" lengthAdjust="spacing" textLength="3.8896" x="200.5552" y="285.1426">&#160;</text></g><g class="entity" data-qualified-name="abrirInvestigador.PresentandoInvestigador" data-source-line="8" id="ent0004"><rect fill="#F1F1F1" height="50" rx="12.5" ry="12.5" style="stroke:#181818;stroke-width:0.5;" width="50" x="177.5" y="469.6094"/><line style="stroke:#181818;stroke-width:0.5;" x1="177.5" x2="227.5" y1="497.2188" y2="497.2188"/><text fill="#000000" font-family="sans-serif" font-size="14" lengthAdjust="spacing" textLength="3.8896" x="200.5552" y="489.1426">&#160;</text></g><g class="start_entity" data-qualified-name="abrirInvestigador..start.abrirInvestigador" data-source-line="10" id="ent0006"><ellipse cx="202.5" cy="183.6094" fill="#222222" rx="10" ry="10" style="stroke:#222222;stroke-width:1;"/></g><g class="end_entity" data-qualified-name="abrirInvestigador..end.abrirInvestigador" data-source-line="25" id="ent0009"><ellipse cx="202.5" cy="602.6094" fill="none" rx="11" ry="11" style="stroke:#222222;stroke-width:1;"/><ellipse cx="202.5" cy="602.6094" fill="#222222" rx="6" ry="6" style="stroke:#222222;stroke-width:1;"/></g><!--link *start*abrirInvestigador to ConsultandoInvestigador--><g class="link" data-entity-1="ent0006" data-entity-2="ent0003" data-link-type="dependency" data-source-line="10" id="lnk7"><path d="M202.5,193.9294 C202.5,209.7894 202.5,237.5194 202.5,260.2494" fill="none" id="*start*abrirInvestigador-to-ConsultandoInvestigador" style="stroke:#008000;stroke-width:1;"/><polygon fill="#008000" points="202.5,265.2494,206.5,256.2494,202.5,260.2494,198.5,256.2494,202.5,265.2494" style="stroke:#008000;stroke-width:1;stroke-linejoin:miter;stroke-miterlimit:10;"/><path d="M207.5,216.6094 L207.5,242.6094 L451.5,242.6094 L451.5,226.6094 L441.5,216.6094 L207.5,216.6094" fill="#FEFFDD" style="stroke:#181818;stroke-width:0.5;"/><path d="M441.5,216.6094 L441.5,226.6094 L451.5,226.6094 L441.5,216.6094" fill="#FEFFDD" style="stroke:#181818;stroke-width:0.5;"/><text fill="#000000" font-family="sans-serif" font-size="13" font-weight="700" lengthAdjust="spacing" textLength="77.2954" x="213.5" y="235.1045">Investigador</text><text fill="#000000" font-family="sans-serif" font-size="13" lengthAdjust="spacing" textLength="143.0635" x="294.4072" y="235.1045">solicita abrir investigador</text></g><!--link ConsultandoInvestigador to PresentandoInvestigador--><g class="link" data-entity-1="ent0003" data-entity-2="ent0004" data-link-type="dependency" data-source-line="15" id="lnk8"><path d="M202.5,315.9794 C202.5,354.9094 202.5,425.6894 202.5,464.4694" fill="none" id="ConsultandoInvestigador-to-PresentandoInvestigador" style="stroke:#008000;stroke-width:1;"/><polygon fill="#008000" points="202.5,469.4694,206.5,460.4694,202.5,464.4694,198.5,460.4694,202.5,469.4694" style="stroke:#008000;stroke-width:1;stroke-linejoin:miter;stroke-miterlimit:10;"/><path d="M207.5,338.6094 L207.5,446.6094 L507.5,446.6094 L507.5,348.6094 L497.5,338.6094 L207.5,338.6094" fill="#FEFFDD" style="stroke:#181818;stroke-width:0.5;"/><path d="M497.5,338.6094 L497.5,348.6094 L507.5,348.6094 L497.5,338.6094" fill="#FEFFDD" style="stroke:#181818;stroke-width:0.5;"/><text fill="#000000" font-family="sans-serif" font-size="13" font-weight="700" lengthAdjust="spacing" textLength="49.8608" x="213.5" y="357.1045">Sistema</text><text fill="#000000" font-family="sans-serif" font-size="13" lengthAdjust="spacing" textLength="165.4897" x="266.9727" y="357.1045">presenta el perfil consultable</text><text fill="#000000" font-family="sans-serif" font-size="13" lengthAdjust="spacing" textLength="236.5327" x="213.5" y="373.4561">&#8226; Nombre, sede, unidad, l&#237;nea y biograf&#237;a</text><text fill="#000000" font-family="sans-serif" font-size="13" lengthAdjust="spacing" textLength="279.9126" x="213.5" y="389.8076">&#8226; Condici&#243;n de investigador-docente seg&#250;n sede</text><text fill="#000000" font-family="sans-serif" font-size="13" lengthAdjust="spacing" textLength="175.0811" x="213.5" y="406.1592">&#8226; Proyectos asociados visibles</text><text fill="#000000" font-family="sans-serif" font-size="13" lengthAdjust="spacing" textLength="218.4165" x="213.5" y="422.5107">&#8226; Permite solicitar abrir investigadores</text><text fill="#000000" font-family="sans-serif" font-size="13" lengthAdjust="spacing" textLength="190.9502" x="213.5" y="438.8623">&#8226; Permite solicitar abrir proyectos</text></g><!--link PresentandoInvestigador to *end*abrirInvestigador--><g class="link" data-entity-1="ent0004" data-entity-2="ent0009" data-link-type="dependency" data-source-line="25" id="lnk10"><path d="M202.5,519.6594 C202.5,542.2594 202.5,569.9894 202.5,586.4094" fill="none" id="PresentandoInvestigador-to-*end*abrirInvestigador" style="stroke:#008000;stroke-width:1;"/><polygon fill="#008000" points="202.5,591.4094,206.5,582.4094,202.5,586.4094,198.5,582.4094,202.5,591.4094" style="stroke:#008000;stroke-width:1;stroke-linejoin:miter;stroke-miterlimit:10;"/><path d="M207.5,542.6094 L207.5,568.6094 L415.5,568.6094 L415.5,552.6094 L405.5,542.6094 L207.5,542.6094" fill="#FEFFDD" style="stroke:#181818;stroke-width:0.5;"/><path d="M405.5,542.6094 L405.5,552.6094 L415.5,552.6094 L405.5,542.6094" fill="#FEFFDD" style="stroke:#181818;stroke-width:0.5;"/><text fill="#000000" font-family="sans-serif" font-size="13" font-weight="700" lengthAdjust="spacing" textLength="77.2954" x="213.5" y="561.1045">Investigador</text><text fill="#000000" font-family="sans-serif" font-size="13" lengthAdjust="spacing" textLength="106.958" x="294.4072" y="561.1045">solicita una opci&#243;n</text></g></g><g class="entity" data-qualified-name="INVESTIGADOR_ABIERTO" data-source-line="31" id="ent0011"><rect fill="#F1F1F1" height="50" rx="12.5" ry="12.5" style="stroke:#181818;stroke-width:0.5;" width="195.0342" x="7" y="705"/><line style="stroke:#181818;stroke-width:0.5;" x1="7" x2="202.0342" y1="732.6094" y2="732.6094"/><text fill="#000000" font-family="sans-serif" font-size="14" lengthAdjust="spacing" textLength="175.0342" x="17" y="724.5332">INVESTIGADOR_ABIERTO</text></g><g class="entity" data-qualified-name="INVESTIGADORES_ABIERTOS" data-source-line="32" id="ent0013"><rect fill="#F1F1F1" height="50" rx="12.5" ry="12.5" style="stroke:#181818;stroke-width:0.5;" width="223.0479" x="237" y="705"/><line style="stroke:#181818;stroke-width:0.5;" x1="237" x2="460.0479" y1="732.6094" y2="732.6094"/><text fill="#000000" font-family="sans-serif" font-size="14" lengthAdjust="spacing" textLength="203.0479" x="247" y="724.5332">INVESTIGADORES_ABIERTOS</text></g><g class="entity" data-qualified-name="PROYECTOS_ABIERTOS" data-source-line="33" id="ent0015"><rect fill="#F1F1F1" height="50" rx="12.5" ry="12.5" style="stroke:#181818;stroke-width:0.5;" width="186.4824" x="495.5" y="705"/><line style="stroke:#181818;stroke-width:0.5;" x1="495.5" x2="681.9824" y1="732.6094" y2="732.6094"/><text fill="#000000" font-family="sans-serif" font-size="14" lengthAdjust="spacing" textLength="166.4824" x="505.5" y="724.5332">PROYECTOS_ABIERTOS</text></g><!--link Investigadores to abrirInvestigador--><g class="link" data-entity-1="ent0001" data-entity-2="ent0002" data-link-type="dependency" data-source-line="4" id="lnk5"><path d="M348.5,57.12 C348.5,75.65 348.5,98.33 348.5,129.84" fill="none" id="Investigadores-to-abrirInvestigador" style="stroke:#008000;stroke-width:1;"/><polygon fill="#008000" points="348.5,134.84,352.5,125.84,348.5,129.84,344.5,125.84,348.5,134.84" style="stroke:#008000;stroke-width:1;stroke-linejoin:miter;stroke-miterlimit:10;"/><text fill="#000000" font-family="sans-serif" font-size="13" lengthAdjust="spacing" textLength="186.4243" x="349.5" y="101.4951">abrirInvestigador(idInvestigador)</text></g><!--link abrirInvestigador to INVESTIGADOR_ABIERTO--><g class="link" data-entity-1="ent0002" data-entity-2="ent0011" data-link-type="dependency" data-source-line="31" id="lnk12"><path d="M176.06,627.23 C153.91,658.74 137.3262,682.3201 124.3162,700.8201" fill="none" id="abrirInvestigador-to-INVESTIGADOR_ABIERTO" style="stroke:#008000;stroke-width:1;"/><polygon fill="#008000" points="121.44,704.91,129.8891,699.8491,124.3162,700.8201,123.3452,695.2472,121.44,704.91" style="stroke:#008000;stroke-width:1;stroke-linejoin:miter;stroke-miterlimit:10;"/><text fill="#000000" font-family="sans-serif" font-size="13" lengthAdjust="spacing" textLength="139.4834" x="152.5" y="671.4951">Investigador presentado</text></g><!--link abrirInvestigador to INVESTIGADORES_ABIERTOS--><g class="link" data-entity-1="ent0002" data-entity-2="ent0013" data-link-type="dependency" data-source-line="32" id="lnk14"><path d="M348.5,627.23 C348.5,658.74 348.5,681.41 348.5,699.91" fill="none" id="abrirInvestigador-to-INVESTIGADORES_ABIERTOS" style="stroke:#008000;stroke-width:1;"/><polygon fill="#008000" points="348.5,704.91,352.5,695.91,348.5,699.91,344.5,695.91,348.5,704.91" style="stroke:#008000;stroke-width:1;stroke-linejoin:miter;stroke-miterlimit:10;"/><text fill="#000000" font-family="sans-serif" font-size="13" lengthAdjust="spacing" textLength="119.2153" x="349.5" y="671.4951">abrirInvestigadores()</text></g><!--link abrirInvestigador to PROYECTOS_ABIERTOS--><g class="link" data-entity-1="ent0002" data-entity-2="ent0015" data-link-type="dependency" data-source-line="33" id="lnk16"><path d="M518.11,627.23 C539.9,658.74 556.1951,682.2982 568.9951,700.7982" fill="none" id="abrirInvestigador-to-PROYECTOS_ABIERTOS" style="stroke:#008000;stroke-width:1;"/><polygon fill="#008000" points="571.84,704.91,570.0086,695.2329,568.9951,700.7982,563.4298,699.7847,571.84,704.91" style="stroke:#008000;stroke-width:1;stroke-linejoin:miter;stroke-miterlimit:10;"/><text fill="#000000" font-family="sans-serif" font-size="13" lengthAdjust="spacing" textLength="92.4663" x="548.5" y="671.4951">abrirProyectos()</text></g><?plantuml-src dLF1Qi904BtdAuRqeaNfNKImDfHSL8mKYaZPPCUmcEo6tIY4KkYtzEwfjrxp9_sIRgAcYJ6rRGw1tRnvxysRZ5ep7X59GWWOnpY9428H9Dd1C5HCOWJJ7ZzOpjo-7zvDPfRpDBorhTbyufX05DXyYofcFg52eZAgH-Wkhdo9o9VT0H1NCbd-tgjVjHWj7zj72pLW9crUB3VXsG3z7Fg0tF58SBK9OiAfA8FhmAdk07aTc2CNryjATp-nSg591SyINkSNVNTG1lLlt04e4J2FnMJVAx1J4kGq9zhBDyXLB3NvRxBaC1LZI78tqQ4MC808vOe5u1qatG3pYi_NDnYBq9NO0OLKlpUSKK8x4AGxZWGIS9dm9LcbEr9KQEDKzvc-Sw1OwR9BXQSbKPFvwGVFEOkogHG9Uh5GUZ32OnglOCiKqsRKDmXbo3A2GvJoJ9Q_W4T7hJEvDsHQoLt_6lyO-uOJ456UJ5NtnJ3gltzPhxoUn-NiLHQp62SLV-0ghVgPLKNLQbyWcyucZzP8bv_o5DDijRy0?></g></svg>