<svg xmlns="http://www.w3.org/2000/svg" xmlns:xlink="http://www.w3.org/1999/xlink" contentStyleType="text/css" data-diagram-type="STATE" height="732px" preserveAspectRatio="none" style="width:893px;height:732px;background:#FFFFFF;" version="1.1" viewBox="0 0 893 732" width="893px" zoomAndPan="magnify"><?plantuml 1.2026.3?><defs/><g><g class="entity" data-qualified-name="in2" id="ent0002"><rect fill="#F1F1F1" height="50" rx="12.5" ry="12.5" style="stroke:#181818;stroke-width:0.5;" width="210.6133" x="302.5" y="7"/><line style="stroke:#181818;stroke-width:0.5;" x1="302.5" x2="513.1133" y1="34.6094" y2="34.6094"/><text fill="#000000" font-family="sans-serif" font-size="14" lengthAdjust="spacing" textLength="190.6133" x="312.5" y="26.5332">PUBLICACIONES_ABIERTAS</text></g><path d="M245,153 L571,153 A12.5,12.5 0 0 1 583.5,165.5 L583.5,180.6094 L232.5,180.6094 L232.5,165.5 A12.5,12.5 0 0 1 245,153" fill="#F1F1F1"/><rect fill="none" height="418.6094" rx="12.5" ry="12.5" style="stroke:#181818;stroke-width:0.5;" width="351" x="232.5" y="153"/><line style="stroke:#181818;stroke-width:0.5;" x1="232.5" x2="583.5" y1="180.6094" y2="180.6094"/><text fill="#000000" font-family="sans-serif" font-size="14" lengthAdjust="spacing" textLength="108.9307" x="353.5347" y="172.5332">abrirPublicacion()</text><g class="entity" data-qualified-name="abrirPublicacion.MostrandoPublicacion" id="ent0004"><rect fill="#F1F1F1" height="50" rx="12.5" ry="12.5" style="stroke:#181818;stroke-width:0.5;" width="50" x="244.5" y="283.6094"/><line style="stroke:#181818;stroke-width:0.5;" x1="244.5" x2="294.5" y1="311.2188" y2="311.2188"/><text fill="#000000" font-family="sans-serif" font-size="14" lengthAdjust="spacing" textLength="3.8896" x="267.5552" y="303.1426">&#160;</text></g><g class="start_entity" data-qualified-name="abrirPublicacion..start.abrirPublicacion" data-source-line="14" id="ent0003"><ellipse cx="269.5" cy="201.6094" fill="#222222" rx="10" ry="10" style="stroke:#222222;stroke-width:1;"/></g><g class="end_entity" data-qualified-name="abrirPublicacion..end.abrirPublicacion" data-source-line="19" id="ent0005"><ellipse cx="269.5" cy="547.6094" fill="none" rx="11" ry="11" style="stroke:#222222;stroke-width:1;"/><ellipse cx="269.5" cy="547.6094" fill="#222222" rx="6" ry="6" style="stroke:#222222;stroke-width:1;"/></g><!--link *start*abrirPublicacion to MostrandoPublicacion--><g class="link" data-entity-1="ent0003" data-entity-2="ent0004" data-link-type="dependency" data-source-line="14" id="lnk4"><path d="M269.5,211.9294 C269.5,227.7894 269.5,254.5194 269.5,277.2494" fill="none" id="*start*abrirPublicacion-to-MostrandoPublicacion" style="stroke:#008000;stroke-width:1;"/><polygon fill="#008000" points="269.5,283.2494,273.5,274.2494,269.5,278.2494,265.5,274.2494,269.5,283.2494" style="stroke:#008000;stroke-width:1;"/><path d="M274.5,234.6094 L274.5,260.6094 L539.5,260.6094 L539.5,244.6094 L529.5,234.6094 L274.5,234.6094" fill="#FEFFDD" style="stroke:#181818;stroke-width:0.5;"/><path d="M529.5,234.6094 L529.5,244.6094 L539.5,244.6094 L529.5,234.6094" fill="#FEFFDD" style="stroke:#181818;stroke-width:0.5;"/><text fill="#000000" font-family="sans-serif" font-size="13" font-weight="700" lengthAdjust="spacing" textLength="77.9937" x="280.5" y="253.1045">Coordinador</text><text fill="#000000" font-family="sans-serif" font-size="13" lengthAdjust="spacing" textLength="163.3125" x="362.1055" y="253.1045">solicita abrir una publicaci&#243;n</text></g><!--link MostrandoPublicacion to *end*abrirPublicacion--><g class="link" data-entity-1="ent0004" data-entity-2="ent0005" data-link-type="dependency" data-source-line="19" id="lnk6"><path d="M269.5,333.6394 C269.5,384.4794 269.5,495.1394 269.5,530.3594" fill="none" id="MostrandoPublicacion-to-*end*abrirPublicacion" style="stroke:#008000;stroke-width:1;"/><polygon fill="#008000" points="269.5,536.3594,273.5,527.3594,269.5,531.3594,265.5,527.3594,269.5,536.3594" style="stroke:#008000;stroke-width:1;"/><path d="M274.5,356.6094 L274.5,513.6094 L559.5,513.6094 L559.5,366.6094 L549.5,356.6094 L274.5,356.6094" fill="#FEFFDD" style="stroke:#181818;stroke-width:0.5;"/><path d="M549.5,356.6094 L549.5,366.6094 L559.5,366.6094 L549.5,356.6094" fill="#FEFFDD" style="stroke:#181818;stroke-width:0.5;"/><text fill="#000000" font-family="sans-serif" font-size="13" font-weight="700" lengthAdjust="spacing" textLength="49.8608" x="280.5" y="375.1045">Sistema</text><text fill="#000000" font-family="sans-serif" font-size="13" lengthAdjust="spacing" textLength="211.0405" x="333.9727" y="375.1045">presenta contenido de la publicaci&#243;n</text><text fill="#000000" font-family="sans-serif" font-size="13" lengthAdjust="spacing" textLength="41.4058" x="280.5" y="391.4561">&#8226; T&#237;tulo</text><text fill="#000000" font-family="sans-serif" font-size="13" lengthAdjust="spacing" textLength="41.4058" x="280.5" y="407.8076">&#8226; Texto</text><text fill="#000000" font-family="sans-serif" font-size="13" lengthAdjust="spacing" textLength="39.9648" x="280.5" y="424.1592">&#8226; Autor</text><text fill="#000000" font-family="sans-serif" font-size="13" lengthAdjust="spacing" textLength="139.6929" x="280.5" y="440.5107">&#8226; Respuestas asociadas</text><text fill="#000000" font-family="sans-serif" font-size="13" font-weight="700" lengthAdjust="spacing" textLength="49.8608" x="280.5" y="456.8623">Sistema</text><text fill="#000000" font-family="sans-serif" font-size="13" lengthAdjust="spacing" textLength="94.6372" x="333.9727" y="456.8623">permite solicitar:</text><text fill="#000000" font-family="sans-serif" font-size="13" lengthAdjust="spacing" textLength="67.4312" x="280.5" y="473.2139">&#8226; responder</text><text fill="#000000" font-family="sans-serif" font-size="13" lengthAdjust="spacing" textLength="41.4121" x="280.5" y="489.5654">&#8226; editar</text><text fill="#000000" font-family="sans-serif" font-size="13" lengthAdjust="spacing" textLength="54.4058" x="280.5" y="505.917">&#8226; eliminar</text></g><g class="entity" data-qualified-name="PUBLICACION_ABIERTA" id="ent0007"><rect fill="#F1F1F1" height="50" rx="12.5" ry="12.5" style="stroke:#181818;stroke-width:0.5;" width="182.5996" x="112.5" y="668"/><line style="stroke:#181818;stroke-width:0.5;" x1="112.5" x2="295.0996" y1="695.6094" y2="695.6094"/><text fill="#000000" font-family="sans-serif" font-size="14" lengthAdjust="spacing" textLength="162.5996" x="122.5" y="687.5332">PUBLICACION_ABIERTA</text></g><g class="entity" data-qualified-name="PUBLICACIONES_ABIERTAS" id="ent0011"><rect fill="#F1F1F1" height="50" rx="12.5" ry="12.5" style="stroke:#181818;stroke-width:0.5;" width="210.6133" x="575.5" y="668"/><line style="stroke:#181818;stroke-width:0.5;" x1="575.5" x2="786.1133" y1="695.6094" y2="695.6094"/><text fill="#000000" font-family="sans-serif" font-size="14" lengthAdjust="spacing" textLength="190.6133" x="585.5" y="687.5332">PUBLICACIONES_ABIERTAS</text></g><!--link in2 to abrirPublicacion--><g class="link" data-entity-1="ent0002" data-entity-2="ent0003" data-link-type="dependency" data-source-line="5" id="lnk2"><path d="M408,57.16 C408,79.23 408,108.24 408,146.77" fill="none" id="in2-to-abrirPublicacion" style="stroke:#008000;stroke-width:1;"/><polygon fill="#008000" points="408,152.77,412,143.77,408,147.77,404,143.77,408,152.77" style="stroke:#008000;stroke-width:1;"/><path d="M413,92 L413,118 L535,118 L535,102 L525,92 L413,92" fill="#FEFFDD" style="stroke:#181818;stroke-width:0.5;"/><path d="M525,92 L525,102 L535,102 L525,92" fill="#FEFFDD" style="stroke:#181818;stroke-width:0.5;"/><text fill="#000000" font-family="sans-serif" font-size="13" lengthAdjust="spacing" textLength="101.1499" x="419" y="110.4951">abrirPublicacion()</text></g><!--link abrirPublicacion to PUBLICACION_ABIERTA--><g class="link" data-entity-1="ent0003" data-entity-2="ent0007" data-link-type="dependency" data-source-line="35" id="lnk8"><path d="M232.26,467.76 C124.09,531.94 6,602 6,602 C6,602 6,638 6,638 C6,638 57.1214,651.9413 109.9214,666.3413" fill="none" id="abrirPublicacion-to-PUBLICACION_ABIERTA" style="stroke:#008000;stroke-width:1;"/><polygon fill="#008000" points="115.71,667.92,108.0796,661.6929,110.8862,666.6044,105.9747,669.411,115.71,667.92" style="stroke:#008000;stroke-width:1;"/><path d="M11,607 L11,633 L156,633 L156,617 L146,607 L11,607" fill="#FEFFDD" style="stroke:#181818;stroke-width:0.5;"/><path d="M146,607 L146,617 L156,617 L146,607" fill="#FEFFDD" style="stroke:#181818;stroke-width:0.5;"/><text fill="#000000" font-family="sans-serif" font-size="13" lengthAdjust="spacing" textLength="124.2871" x="17" y="625.4951">Publicaci&#243;n mostrada</text></g><!--link abrirPublicacion to PUBLICACION_ABIERTA--><g class="link" data-entity-1="ent0003" data-entity-2="ent0007" data-link-type="dependency" data-source-line="40" id="lnk9"><path d="M232.44,565.78 C213.54,587.56 201,602 201,602 C201,602 201,638 201,638 C201,638 201.5265,647.4793 202.3265,661.8493" fill="none" id="abrirPublicacion-to-PUBLICACION_ABIERTA-1" style="stroke:#008000;stroke-width:1;"/><polygon fill="#008000" points="202.66,667.84,206.1535,658.6316,202.3821,662.8477,198.1659,659.0763,202.66,667.84" style="stroke:#008000;stroke-width:1;"/><path d="M206,607 L206,633 L360,633 L360,617 L350,607 L206,607" fill="#FEFFDD" style="stroke:#181818;stroke-width:0.5;"/><path d="M350,607 L350,617 L360,617 L350,607" fill="#FEFFDD" style="stroke:#181818;stroke-width:0.5;"/><text fill="#000000" font-family="sans-serif" font-size="13" lengthAdjust="spacing" textLength="133.6816" x="212" y="625.4951">responderPublicacion()</text></g><!--link abrirPublicacion to PUBLICACION_ABIERTA--><g class="link" data-entity-1="ent0003" data-entity-2="ent0007" data-link-type="dependency" data-source-line="45" id="lnk10"><path d="M378.34,572.25 C372.95,610.18 369,638 369,638 C369,638 327.4528,651.605 283.5128,665.975" fill="none" id="abrirPublicacion-to-PUBLICACION_ABIERTA-2" style="stroke:#008000;stroke-width:1;"/><polygon fill="#008000" points="277.81,667.84,287.6075,668.8443,282.5623,666.2858,285.1208,661.2406,277.81,667.84" style="stroke:#008000;stroke-width:1;"/><path d="M379,607 L379,633 L507,633 L507,617 L497,607 L379,607" fill="#FEFFDD" style="stroke:#181818;stroke-width:0.5;"/><path d="M497,607 L497,617 L507,617 L497,607" fill="#FEFFDD" style="stroke:#181818;stroke-width:0.5;"/><text fill="#000000" font-family="sans-serif" font-size="13" lengthAdjust="spacing" textLength="107.6626" x="385" y="625.4951">editarPublicacion()</text></g><!--link abrirPublicacion to PUBLICACIONES_ABIERTAS--><g class="link" data-entity-1="ent0003" data-entity-2="ent0011" data-link-type="dependency" data-source-line="50" id="lnk12"><path d="M541.08,572.25 C565.26,610.18 583,638 583,638 C583,638 605.8144,650.5753 631.9044,664.9453" fill="none" id="abrirPublicacion-to-PUBLICACIONES_ABIERTAS" style="stroke:#008000;stroke-width:1;"/><polygon fill="#008000" points="637.16,667.84,631.2065,659.9943,632.7804,665.4278,627.3469,667.0017,637.16,667.84" style="stroke:#008000;stroke-width:1;"/><path d="M588,607 L588,633 L729,633 L729,617 L719,607 L588,607" fill="#FEFFDD" style="stroke:#181818;stroke-width:0.5;"/><path d="M719,607 L719,617 L729,617 L719,607" fill="#FEFFDD" style="stroke:#181818;stroke-width:0.5;"/><text fill="#000000" font-family="sans-serif" font-size="13" lengthAdjust="spacing" textLength="120.6563" x="594" y="625.4951">eliminarPublicacion()</text></g><!--link abrirPublicacion to PUBLICACIONES_ABIERTAS--><g class="link" data-entity-1="ent0003" data-entity-2="ent0011" data-link-type="dependency" data-source-line="55" id="lnk13"><path d="M583.63,490.43 C662.44,547.39 738,602 738,602 C738,602 738,638 738,638 C738,638 726.0373,649.3452 710.8573,663.7152" fill="none" id="abrirPublicacion-to-PUBLICACIONES_ABIERTAS-1" style="stroke:#008000;stroke-width:1;"/><polygon fill="#008000" points="706.5,667.84,715.7858,664.5577,710.1311,664.4027,710.2861,658.7479,706.5,667.84" style="stroke:#008000;stroke-width:1;"/><path d="M743,607 L743,633 L878,633 L878,617 L868,607 L743,607" fill="#FEFFDD" style="stroke:#181818;stroke-width:0.5;"/><path d="M868,607 L868,617 L878,617 L868,607" fill="#FEFFDD" style="stroke:#181818;stroke-width:0.5;"/><text fill="#000000" font-family="sans-serif" font-size="13" lengthAdjust="spacing" textLength="114.8799" x="749" y="625.4951">abrirPublicaciones()</text></g><?plantuml-src jLFBQiCm4BphAnRtqXP2eSSI0cx88T17ID9J24MsbY9YQuqaGqCfz5jwxwcVa3_fbrIow_WHvnGgdzQQdPaThyr6genhda8Y5TfjXf1HilK5OyPoYo3LDN03mUpfzcuw3iVJnuV9uZcydKxcot0HC7y_M9szQ4Ir7eo0HrhgMHubCkQn9CKKEHPINc73khVd5moL08-f1BkGGlsmBu0tni2TiYjmZmFUax6QAq5D1mLiTRbk-Un5Uc3BhtynZ4PZ8YsaueBqy2eQWI7N8YqlpKAkE6GLpUwxvAddybMVNCkFytTKVY6DnPGNqfb6Wyf9nwGiAYa814BIO-3dunEMko-R9rJN-6hhAimjwNqrHvFbwE8qBacA9HVSz3f0dKfdiWf1t-mfdBUCbC2Q58L7r6KYKvUZRYVqpjmv-ExDT1hRL-rUUx5cZUaXBS8MlB5Rfx7lvpgskgVHbo6TojtuBJlqVw7_cq2N04sJ_nS0?></g></svg>