<svg xmlns="http://www.w3.org/2000/svg" xmlns:xlink="http://www.w3.org/1999/xlink" contentStyleType="text/css" height="876px" preserveAspectRatio="none" style="width:1299px;height:876px;background:#FFFFFF;" version="1.1" viewBox="0 0 1299 876" width="1299px" zoomAndPan="magnify"><title>Diagrama de secuencia - Solicitar eliminaci&#195;&#179;n de perfil del Investigador</title><defs/><g><text fill="#000000" font-family="sans-serif" font-size="14" font-weight="bold" lengthAdjust="spacing" textLength="480.04" x="410.5286" y="29.5332">Diagrama de secuencia - Solicitar eliminaci&#195;&#179;n de perfil del Investigador</text><rect fill="#FFFFFF" height="630.8672" style="stroke:#181818;stroke-width:1;" width="10" x="326.4404" y="153.5703"/><rect fill="#FFFFFF" height="332.8672" style="stroke:#181818;stroke-width:1;" width="10" x="571.8638" y="406.2188"/><rect fill="#FFFFFF" height="30.3516" style="stroke:#181818;stroke-width:1;" width="10" x="875.457" y="436.5703"/><rect fill="#FFFFFF" height="164.7578" style="stroke:#181818;stroke-width:1;" width="10" x="983.4912" y="497.2734"/><rect fill="#FFFFFF" height="30.3516" style="stroke:#181818;stroke-width:1;" width="10" x="1158.439" y="601.3281"/><rect fill="none" height="578.5156" style="stroke:#000000;stroke-width:1.5;" width="1282.0972" x="10" y="198.9219"/><line style="stroke:#181818;stroke-width:0.5;stroke-dasharray:5.0,5.0;" x1="61" x2="61" y1="121.2188" y2="794.4375"/><line style="stroke:#181818;stroke-width:0.5;stroke-dasharray:5.0,5.0;" x1="331.1753" x2="331.1753" y1="121.2188" y2="794.4375"/><line style="stroke:#181818;stroke-width:0.5;stroke-dasharray:5.0,5.0;" x1="576.5708" x2="576.5708" y1="121.2188" y2="794.4375"/><line style="stroke:#181818;stroke-width:0.5;stroke-dasharray:5.0,5.0;" x1="879.7124" x2="879.7124" y1="121.2188" y2="794.4375"/><line style="stroke:#181818;stroke-width:0.5;stroke-dasharray:5.0,5.0;" x1="988.2017" x2="988.2017" y1="121.2188" y2="794.4375"/><line style="stroke:#181818;stroke-width:0.5;stroke-dasharray:5.0,5.0;" x1="1162.7808" x2="1162.7808" y1="121.2188" y2="794.4375"/><text fill="#000000" font-family="sans-serif" font-size="14" lengthAdjust="spacing" textLength="76.2686" x="20" y="118.1426">Investigador</text><ellipse cx="61.1343" cy="52.1094" fill="#E2E2F0" rx="8" ry="8" style="stroke:#181818;stroke-width:0.5;"/><path d="M61.1343,60.1094 L61.1343,87.1094 M48.1343,68.1094 L74.1343,68.1094 M61.1343,87.1094 L48.1343,102.1094 M61.1343,87.1094 L74.1343,102.1094 " fill="none" style="stroke:#181818;stroke-width:0.5;"/><text fill="#000000" font-family="sans-serif" font-size="14" lengthAdjust="spacing" textLength="76.2686" x="20" y="807.9707">Investigador</text><ellipse cx="61.1343" cy="819.5469" fill="#E2E2F0" rx="8" ry="8" style="stroke:#181818;stroke-width:0.5;"/><path d="M61.1343,827.5469 L61.1343,854.5469 M48.1343,835.5469 L74.1343,835.5469 M61.1343,854.5469 L48.1343,869.5469 M61.1343,854.5469 L74.1343,869.5469 " fill="none" style="stroke:#181818;stroke-width:0.5;"/><rect fill="#E2E2F0" height="49.2188" rx="2.5" ry="2.5" style="stroke:#181818;stroke-width:0.5;" width="208.5303" x="227.1753" y="71"/><text fill="#000000" font-family="sans-serif" font-size="14" lengthAdjust="spacing" textLength="194.5303" x="234.1753" y="92.5332">SolicitudEliminacionPerfilModal</text><text fill="#000000" font-family="sans-serif" font-size="14" lengthAdjust="spacing" textLength="45.8965" x="308.4922" y="110.1426">(React)</text><rect fill="#E2E2F0" height="49.2188" rx="2.5" ry="2.5" style="stroke:#181818;stroke-width:0.5;" width="208.5303" x="227.1753" y="793.4375"/><text fill="#000000" font-family="sans-serif" font-size="14" lengthAdjust="spacing" textLength="194.5303" x="234.1753" y="814.9707">SolicitudEliminacionPerfilModal</text><text fill="#000000" font-family="sans-serif" font-size="14" lengthAdjust="spacing" textLength="45.8965" x="308.4922" y="832.5801">(React)</text><rect fill="#E2E2F0" height="49.2188" rx="2.5" ry="2.5" style="stroke:#181818;stroke-width:0.5;" width="106.5859" x="523.5708" y="71"/><text fill="#000000" font-family="sans-serif" font-size="14" lengthAdjust="spacing" textLength="92.5859" x="530.5708" y="92.5332">PerfilController</text><text fill="#000000" font-family="sans-serif" font-size="14" lengthAdjust="spacing" textLength="82.4824" x="535.6226" y="110.1426">(Spring Boot)</text><rect fill="#E2E2F0" height="49.2188" rx="2.5" ry="2.5" style="stroke:#181818;stroke-width:0.5;" width="106.5859" x="523.5708" y="793.4375"/><text fill="#000000" font-family="sans-serif" font-size="14" lengthAdjust="spacing" textLength="92.5859" x="530.5708" y="814.9707">PerfilController</text><text fill="#000000" font-family="sans-serif" font-size="14" lengthAdjust="spacing" textLength="82.4824" x="535.6226" y="832.5801">(Spring Boot)</text><rect fill="#E2E2F0" height="31.6094" rx="2.5" ry="2.5" style="stroke:#181818;stroke-width:0.5;" width="103.4893" x="828.7124" y="88.6094"/><text fill="#000000" font-family="sans-serif" font-size="14" lengthAdjust="spacing" textLength="89.4893" x="835.7124" y="110.1426">SesionService</text><rect fill="#E2E2F0" height="31.6094" rx="2.5" ry="2.5" style="stroke:#181818;stroke-width:0.5;" width="103.4893" x="828.7124" y="793.4375"/><text fill="#000000" font-family="sans-serif" font-size="14" lengthAdjust="spacing" textLength="89.4893" x="835.7124" y="814.9707">SesionService</text><rect fill="#E2E2F0" height="31.6094" rx="2.5" ry="2.5" style="stroke:#181818;stroke-width:0.5;" width="92.5791" x="942.2017" y="88.6094"/><text fill="#000000" font-family="sans-serif" font-size="14" lengthAdjust="spacing" textLength="78.5791" x="949.2017" y="110.1426">PerfilService</text><rect fill="#E2E2F0" height="31.6094" rx="2.5" ry="2.5" style="stroke:#181818;stroke-width:0.5;" width="92.5791" x="942.2017" y="793.4375"/><text fill="#000000" font-family="sans-serif" font-size="14" lengthAdjust="spacing" textLength="78.5791" x="949.2017" y="814.9707">PerfilService</text><rect fill="#E2E2F0" height="31.6094" rx="2.5" ry="2.5" style="stroke:#181818;stroke-width:0.5;" width="237.3164" x="1044.7808" y="88.6094"/><text fill="#000000" font-family="sans-serif" font-size="14" lengthAdjust="spacing" textLength="223.3164" x="1051.7808" y="110.1426">SolicitudEliminacionPerfilRepository</text><rect fill="#E2E2F0" height="31.6094" rx="2.5" ry="2.5" style="stroke:#181818;stroke-width:0.5;" width="237.3164" x="1044.7808" y="793.4375"/><text fill="#000000" font-family="sans-serif" font-size="14" lengthAdjust="spacing" textLength="223.3164" x="1051.7808" y="814.9707">SolicitudEliminacionPerfilRepository</text><rect fill="#FFFFFF" height="630.8672" style="stroke:#181818;stroke-width:1;" width="10" x="326.4404" y="153.5703"/><rect fill="#FFFFFF" height="332.8672" style="stroke:#181818;stroke-width:1;" width="10" x="571.8638" y="406.2188"/><rect fill="#FFFFFF" height="30.3516" style="stroke:#181818;stroke-width:1;" width="10" x="875.457" y="436.5703"/><rect fill="#FFFFFF" height="164.7578" style="stroke:#181818;stroke-width:1;" width="10" x="983.4912" y="497.2734"/><rect fill="#FFFFFF" height="30.3516" style="stroke:#181818;stroke-width:1;" width="10" x="1158.439" y="601.3281"/><polygon fill="#181818" points="314.4404,149.5703,324.4404,153.5703,314.4404,157.5703,318.4404,153.5703" style="stroke:#181818;stroke-width:1;"/><line style="stroke:#181818;stroke-width:1;" x1="61.1343" x2="320.4404" y1="153.5703" y2="153.5703"/><text fill="#000000" font-family="sans-serif" font-size="13" lengthAdjust="spacing" textLength="140.1626" x="68.1343" y="148.7139">Solicita eliminar su perfil</text><polygon fill="#181818" points="72.1343,179.9219,62.1343,183.9219,72.1343,187.9219,68.1343,183.9219" style="stroke:#181818;stroke-width:1;"/><line style="stroke:#181818;stroke-width:1;stroke-dasharray:2.0,2.0;" x1="66.1343" x2="325.4404" y1="183.9219" y2="183.9219"/><text fill="#000000" font-family="sans-serif" font-size="13" lengthAdjust="spacing" textLength="198.688" x="78.1343" y="179.0654">Muestra confirmaci&#195;&#179;n de solicitud</text><path d="M10,198.9219 L70.1709,198.9219 L70.1709,207.2734 L60.1709,217.2734 L10,217.2734 L10,198.9219 " fill="#EEEEEE" style="stroke:#000000;stroke-width:1.5;"/><rect fill="none" height="578.5156" style="stroke:#000000;stroke-width:1.5;" width="1282.0972" x="10" y="198.9219"/><text fill="#000000" font-family="sans-serif" font-size="13" font-weight="bold" lengthAdjust="spacing" textLength="15.1709" x="25" y="213.417">alt</text><text fill="#000000" font-family="sans-serif" font-size="11" font-weight="bold" lengthAdjust="spacing" textLength="97.7969" x="85.1709" y="212.3408">[Cancela solicitud]</text><polygon fill="#181818" points="314.4404,235.625,324.4404,239.625,314.4404,243.625,318.4404,239.625" style="stroke:#181818;stroke-width:1;"/><line style="stroke:#181818;stroke-width:1;" x1="61.1343" x2="320.4404" y1="239.625" y2="239.625"/><text fill="#000000" font-family="sans-serif" font-size="13" lengthAdjust="spacing" textLength="98.2744" x="68.1343" y="234.7686">Cancela solicitud</text><polygon fill="#181818" points="72.1343,265.9766,62.1343,269.9766,72.1343,273.9766,68.1343,269.9766" style="stroke:#181818;stroke-width:1;"/><line style="stroke:#181818;stroke-width:1;stroke-dasharray:2.0,2.0;" x1="66.1343" x2="325.4404" y1="269.9766" y2="269.9766"/><text fill="#000000" font-family="sans-serif" font-size="13" lengthAdjust="spacing" textLength="241.3062" x="78.1343" y="265.1201">Presenta OPCIONES_PERFIL_ABIERTO</text><line style="stroke:#000000;stroke-width:1;stroke-dasharray:2.0,2.0;" x1="10" x2="1292.0972" y1="278.9766" y2="278.9766"/><text fill="#000000" font-family="sans-serif" font-size="11" font-weight="bold" lengthAdjust="spacing" textLength="103.8877" x="15" y="290.3955">[Confirma solicitud]</text><polygon fill="#181818" points="314.4404,312.1641,324.4404,316.1641,314.4404,320.1641,318.4404,316.1641" style="stroke:#181818;stroke-width:1;"/><line style="stroke:#181818;stroke-width:1;" x1="61.1343" x2="320.4404" y1="316.1641" y2="316.1641"/><text fill="#000000" font-family="sans-serif" font-size="13" lengthAdjust="spacing" textLength="103.3145" x="68.1343" y="311.3076">Confirma solicitud</text><line style="stroke:#181818;stroke-width:1;" x1="336.4404" x2="378.4404" y1="346.5156" y2="346.5156"/><line style="stroke:#181818;stroke-width:1;" x1="378.4404" x2="378.4404" y1="346.5156" y2="359.5156"/><line style="stroke:#181818;stroke-width:1;" x1="337.4404" x2="378.4404" y1="359.5156" y2="359.5156"/><polygon fill="#181818" points="347.4404,355.5156,337.4404,359.5156,347.4404,363.5156,343.4404,359.5156" style="stroke:#181818;stroke-width:1;"/><text fill="#000000" font-family="sans-serif" font-size="13" lengthAdjust="spacing" textLength="142.3335" x="343.4404" y="341.6592">Comprobar sesi&#195;&#179;n local</text><polygon fill="#181818" points="559.8638,402.2188,569.8638,406.2188,559.8638,410.2188,563.8638,406.2188" style="stroke:#181818;stroke-width:1;"/><line style="stroke:#181818;stroke-width:1;" x1="336.4404" x2="565.8638" y1="406.2188" y2="406.2188"/><text fill="#000000" font-family="sans-serif" font-size="13" lengthAdjust="spacing" textLength="211.6943" x="343.4404" y="385.0107">POST /api/perfil/solicitud-eliminacion</text><text fill="#000000" font-family="sans-serif" font-size="13" lengthAdjust="spacing" textLength="216.4233" x="343.4404" y="401.3623">SolicitudEliminacionRequest + cookie</text><polygon fill="#181818" points="863.457,432.5703,873.457,436.5703,863.457,440.5703,867.457,436.5703" style="stroke:#181818;stroke-width:1;"/><line style="stroke:#181818;stroke-width:1;" x1="581.8638" x2="869.457" y1="436.5703" y2="436.5703"/><text fill="#000000" font-family="sans-serif" font-size="13" lengthAdjust="spacing" textLength="209.5806" x="588.8638" y="431.7139">obtenerSesionActual(authentication)</text><polygon fill="#181818" points="592.8638,462.9219,582.8638,466.9219,592.8638,470.9219,588.8638,466.9219" style="stroke:#181818;stroke-width:1;"/><line style="stroke:#181818;stroke-width:1;stroke-dasharray:2.0,2.0;" x1="586.8638" x2="879.457" y1="466.9219" y2="466.9219"/><text fill="#000000" font-family="sans-serif" font-size="13" lengthAdjust="spacing" textLength="205.1816" x="598.8638" y="462.0654">SesionResponse(INVESTIGADOR)</text><polygon fill="#181818" points="971.4912,493.2734,981.4912,497.2734,971.4912,501.2734,975.4912,497.2734" style="stroke:#181818;stroke-width:1;"/><line style="stroke:#181818;stroke-width:1;" x1="581.8638" x2="977.4912" y1="497.2734" y2="497.2734"/><text fill="#000000" font-family="sans-serif" font-size="13" lengthAdjust="spacing" textLength="257.937" x="588.8638" y="492.417">solicitarEliminacionPerfil(investigador, datos)</text><line style="stroke:#181818;stroke-width:1;" x1="993.4912" x2="1035.4912" y1="527.625" y2="527.625"/><line style="stroke:#181818;stroke-width:1;" x1="1035.4912" x2="1035.4912" y1="527.625" y2="540.625"/><line style="stroke:#181818;stroke-width:1;" x1="994.4912" x2="1035.4912" y1="540.625" y2="540.625"/><polygon fill="#181818" points="1004.4912,536.625,994.4912,540.625,1004.4912,544.625,1000.4912,540.625" style="stroke:#181818;stroke-width:1;"/><text fill="#000000" font-family="sans-serif" font-size="13" lengthAdjust="spacing" textLength="127.8926" x="1000.4912" y="522.7686">validarSolicitud(datos)</text><polygon fill="#181818" points="1151.439,566.9766,1161.439,570.9766,1151.439,574.9766,1155.439,570.9766" style="stroke:#181818;stroke-width:1;"/><line style="stroke:#181818;stroke-width:1;" x1="993.4912" x2="1157.439" y1="570.9766" y2="570.9766"/><text fill="#000000" font-family="sans-serif" font-size="13" lengthAdjust="spacing" textLength="129.3462" x="1000.4912" y="566.1201">existePendiente(perfil)</text><polygon fill="#181818" points="1146.439,597.3281,1156.439,601.3281,1146.439,605.3281,1150.439,601.3281" style="stroke:#181818;stroke-width:1;"/><line style="stroke:#181818;stroke-width:1;" x1="993.4912" x2="1152.439" y1="601.3281" y2="601.3281"/><text fill="#000000" font-family="sans-serif" font-size="13" lengthAdjust="spacing" textLength="100.4326" x="1000.4912" y="596.4717">guardar(solicitud)</text><polygon fill="#181818" points="1004.4912,627.6797,994.4912,631.6797,1004.4912,635.6797,1000.4912,631.6797" style="stroke:#181818;stroke-width:1;"/><line style="stroke:#181818;stroke-width:1;stroke-dasharray:2.0,2.0;" x1="998.4912" x2="1162.439" y1="631.6797" y2="631.6797"/><text fill="#000000" font-family="sans-serif" font-size="13" lengthAdjust="spacing" textLength="110.5571" x="1010.4912" y="626.8232">Solicitud registrada</text><polygon fill="#181818" points="592.8638,658.0313,582.8638,662.0313,592.8638,666.0313,588.8638,662.0313" style="stroke:#181818;stroke-width:1;"/><line style="stroke:#181818;stroke-width:1;stroke-dasharray:2.0,2.0;" x1="586.8638" x2="987.4912" y1="662.0313" y2="662.0313"/><text fill="#000000" font-family="sans-serif" font-size="13" lengthAdjust="spacing" textLength="174.1479" x="598.8638" y="657.1748">SolicitudEliminacionResponse</text><polygon fill="#181818" points="868.457,688.3828,878.457,692.3828,868.457,696.3828,872.457,692.3828" style="stroke:#181818;stroke-width:1;"/><line style="stroke:#181818;stroke-width:1;" x1="581.8638" x2="874.457" y1="692.3828" y2="692.3828"/><text fill="#000000" font-family="sans-serif" font-size="13" lengthAdjust="spacing" textLength="274.5933" x="588.8638" y="687.5264">cerrarSesion(request, response, authentication)</text><polygon fill="#181818" points="347.4404,735.0859,337.4404,739.0859,347.4404,743.0859,343.4404,739.0859" style="stroke:#181818;stroke-width:1;"/><line style="stroke:#181818;stroke-width:1;stroke-dasharray:2.0,2.0;" x1="341.4404" x2="575.8638" y1="739.0859" y2="739.0859"/><text fill="#000000" font-family="sans-serif" font-size="13" lengthAdjust="spacing" textLength="71.5508" x="353.4404" y="717.8779">201 Created</text><text fill="#000000" font-family="sans-serif" font-size="13" lengthAdjust="spacing" textLength="93.209" x="353.4404" y="734.2295">Sesi&#195;&#179;n cerrada</text><polygon fill="#181818" points="72.1343,765.4375,62.1343,769.4375,72.1343,773.4375,68.1343,769.4375" style="stroke:#181818;stroke-width:1;"/><line style="stroke:#181818;stroke-width:1;stroke-dasharray:2.0,2.0;" x1="66.1343" x2="325.4404" y1="769.4375" y2="769.4375"/><text fill="#000000" font-family="sans-serif" font-size="13" lengthAdjust="spacing" textLength="175.5635" x="78.1343" y="764.5811">Presenta SESION_CERRADA</text><!--SRC=[bLJBRjim4BphAnOvAMYCj3twKC2HbS904njIq5C0OoDjNA8qgPAKqPxxIVs3ziUw4YLPhnIfBoPNozdbp2oTS99WBV1Wy8YG4rZAIbAPG5X0ggN8X4C39CLHACp4dv-_Vwagho3pB2Il96pKYQmJ1yor2GBCd3R3M876CL21oi550rhcSOkfrQu6kzCvoaSL9iGObnU05cwDLevKFeJmwH5_CbfACdmcBOnG1xZHkZcvAiIeBbckb98vYOpg51-PW-vd3IAllKf2XRQ2YVZXAxM9vtWGz2c2nOVkhikEzvPs0xPi2A_e5ITqTAQcNS22GVgWIxWhUMCGCgsUXJdszRDjIm5A1n6gZ2Jsei2_bpkSp_z79pj3bXHVQRkBDjlxEDtlukHsysc_kjd4oSCs86a9egRFr_SnV-3So33vM1ZzLD79odicfCvGJiwmURZbRVe0rrY8Qq_zTLTZGMUz7zMS2nBwLb4FRvXw_LLGNQ6Jhl9c5U3_gfhtuHBq4zSduxUhp9KeGopT5-PDPEWuU3d4QGnSnVoo9hvktkyJieLMbiBD_USuVTXyNAstYGV9QGwcwMZW-MLBBfg9pqFHa-OASdJQZfeSpa_rQH2PANT2AN8q7QzX3tPoTcQqba3VXNMqOpK5aqUX5_1_40ub6kuXx3GVKpypqRKEqtWjokYANHeOEeXgHdESoF92YT45EiLdRUZr7qDFDHbPCIDZi75YQBoPhxXN3tS5SxQi8GO3z_xjEuWCSSMSnwIRkHfyUjzsAbxpYgHnog_8FegJPBLU1TKps4Dg4Vu2]--></g></svg>