<svg xmlns="http://www.w3.org/2000/svg" xmlns:xlink="http://www.w3.org/1999/xlink" contentStyleType="text/css" data-diagram-type="STATE" height="1001px" preserveAspectRatio="none" style="width:892px;height:1001px;background:#FFFFFF;" version="1.1" viewBox="0 0 892 1001" width="892px" zoomAndPan="magnify"><?plantuml 1.2026.6?><defs/><g><g class="entity" data-qualified-name="in1" data-source-line="3" id="ent0001"><rect fill="#F1F1F1" height="50" rx="12.5" ry="12.5" style="stroke:#181818;stroke-width:0.5;" width="216.8477" x="269" y="7"/><line style="stroke:#181818;stroke-width:0.5;" x1="269" x2="485.8477" y1="34.6094" y2="34.6094"/><text fill="#000000" font-family="sans-serif" font-size="14" lengthAdjust="spacing" textLength="196.8477" x="279" y="26.5332">PANEL_PRINCIPAL_ABIERTO</text></g><g class="entity" data-qualified-name="in2" data-source-line="6" id="ent0002"><rect fill="#F1F1F1" height="50" rx="12.5" ry="12.5" style="stroke:#181818;stroke-width:0.5;" width="205.9375" x="521.5" y="7"/><line style="stroke:#181818;stroke-width:0.5;" x1="521.5" x2="727.4375" y1="34.6094" y2="34.6094"/><text fill="#000000" font-family="sans-serif" font-size="14" lengthAdjust="spacing" textLength="185.9375" x="531.5" y="26.5332">MI_PUBLICACION_ABIERTA</text></g><g class="entity" data-qualified-name="abrirMisPublicaciones" data-source-line="9" id="ent0003"><path d="M268.5,118 L732.5,118 A12.5,12.5 0 0 1 745,130.5 L745,145.6094 L256,145.6094 L256,130.5 A12.5,12.5 0 0 1 268.5,118" fill="#F1F1F1"/><rect fill="none" height="722.6094" rx="12.5" ry="12.5" style="stroke:#181818;stroke-width:0.5;" width="489" x="256" y="118"/><line style="stroke:#181818;stroke-width:0.5;" x1="256" x2="745" y1="145.6094" y2="145.6094"/><text fill="#000000" font-family="sans-serif" font-size="14" lengthAdjust="spacing" textLength="145.4893" x="427.7554" y="137.5332">abrirMisPublicaciones()</text><g class="entity" data-qualified-name="abrirMisPublicaciones.MostrandoLista" data-source-line="11" id="ent0004"><rect fill="#F1F1F1" height="50" rx="12.5" ry="12.5" style="stroke:#181818;stroke-width:0.5;" width="50" x="268" y="248.6094"/><line style="stroke:#181818;stroke-width:0.5;" x1="268" x2="318" y1="276.2188" y2="276.2188"/><text fill="#000000" font-family="sans-serif" font-size="14" lengthAdjust="spacing" textLength="3.8896" x="291.0552" y="268.1426">&#160;</text></g><g class="entity" data-qualified-name="abrirMisPublicaciones.FiltrandoLista" data-source-line="12" id="ent0005"><rect fill="#F1F1F1" height="50" rx="12.5" ry="12.5" style="stroke:#181818;stroke-width:0.5;" width="50" x="268" y="682.6094"/><line style="stroke:#181818;stroke-width:0.5;" x1="268" x2="318" y1="710.2188" y2="710.2188"/><text fill="#000000" font-family="sans-serif" font-size="14" lengthAdjust="spacing" textLength="3.8896" x="291.0552" y="702.1426">&#160;</text></g><g class="start_entity" data-qualified-name="abrirMisPublicaciones..start.abrirMisPublicaciones" data-source-line="14" id="ent0008"><ellipse cx="293" cy="166.6094" fill="#222222" rx="10" ry="10" style="stroke:#222222;stroke-width:1;"/></g><g class="end_entity" data-qualified-name="abrirMisPublicaciones..end.abrirMisPublicaciones" data-source-line="49" id="ent0012"><ellipse cx="293" cy="816.6094" fill="none" rx="11" ry="11" style="stroke:#222222;stroke-width:1;"/><ellipse cx="293" cy="816.6094" fill="#222222" rx="6" ry="6" style="stroke:#222222;stroke-width:1;"/></g><!--link *start*abrirMisPublicaciones to MostrandoLista--><g class="link" data-entity-1="ent0008" data-entity-2="ent0004" data-link-type="dependency" data-source-line="14" id="lnk9"><path d="M293,176.9294 C293,192.7894 293,220.5194 293,243.2494" fill="none" id="*start*abrirMisPublicaciones-to-MostrandoLista" style="stroke:#008000;stroke-width:1;"/><polygon fill="#008000" points="293,248.2494,297,239.2494,293,243.2494,289,239.2494,293,248.2494" style="stroke:#008000;stroke-width:1;stroke-linejoin:miter;stroke-miterlimit:10;"/><path d="M298,199.6094 L298,225.6094 L649,225.6094 L649,209.6094 L639,199.6094 L298,199.6094" fill="#FEFFDD" style="stroke:#181818;stroke-width:0.5;"/><path d="M639,199.6094 L639,209.6094 L649,209.6094 L639,199.6094" fill="#FEFFDD" style="stroke:#181818;stroke-width:0.5;"/><text fill="#000000" font-family="sans-serif" font-size="13" font-weight="700" lengthAdjust="spacing" textLength="77.9937" x="304" y="218.1045">Coordinador</text><text fill="#000000" font-family="sans-serif" font-size="13" lengthAdjust="spacing" textLength="248.5742" x="385.6055" y="218.1045">solicita abrir el listado de sus publicaciones</text></g><!--link MostrandoLista to FiltrandoLista--><g class="link" data-entity-1="ent0004" data-entity-2="ent0005" data-link-type="dependency" data-source-line="19" id="lnk10"><path d="M293,298.7594 C293,374.4594 293,601.5294 293,677.3594" fill="none" id="MostrandoLista-to-FiltrandoLista" style="stroke:#008000;stroke-width:1;"/><polygon fill="#008000" points="293,682.3594,297,673.3594,293,677.3594,289,673.3594,293,682.3594" style="stroke:#008000;stroke-width:1;stroke-linejoin:miter;stroke-miterlimit:10;"/><path d="M298,321.6094 L298,658.6094 L630,658.6094 L630,331.6094 L620,321.6094 L298,321.6094" fill="#FEFFDD" style="stroke:#181818;stroke-width:0.5;"/><path d="M620,321.6094 L620,331.6094 L630,331.6094 L620,321.6094" fill="#FEFFDD" style="stroke:#181818;stroke-width:0.5;"/><text fill="#000000" font-family="sans-serif" font-size="13" font-weight="700" lengthAdjust="spacing" textLength="49.8608" x="304" y="340.1045">Sistema</text><text fill="#000000" font-family="sans-serif" font-size="13" lengthAdjust="spacing" textLength="235.5806" x="357.4727" y="340.1045">presenta el bloque de filtrar / buscar con:</text><text fill="#000000" font-family="sans-serif" font-size="13" lengthAdjust="spacing" textLength="41.4058" x="304" y="356.4561">&#8226; T&#237;tulo</text><text fill="#000000" font-family="sans-serif" font-size="13" lengthAdjust="spacing" textLength="49.3657" x="304" y="372.8076">&#8226; Estado</text><text fill="#000000" font-family="sans-serif" font-size="13" lengthAdjust="spacing" textLength="92.7139" x="304" y="389.1592">&#8226; Fecha (desde)</text><text fill="#000000" font-family="sans-serif" font-size="13" lengthAdjust="spacing" textLength="89.0957" x="304" y="405.5107">&#8226; Fecha (hasta)</text><text fill="#000000" font-family="sans-serif" font-size="13" lengthAdjust="spacing" textLength="3.6118" x="304" y="421.8623">&#160;</text><text fill="#000000" font-family="sans-serif" font-size="13" font-weight="700" lengthAdjust="spacing" textLength="49.8608" x="304" y="438.2139">Sistema</text><text fill="#000000" font-family="sans-serif" font-size="13" lengthAdjust="spacing" textLength="257.9814" x="357.4727" y="438.2139">presenta el listado de mis publicaciones con:</text><text fill="#000000" font-family="sans-serif" font-size="13" lengthAdjust="spacing" textLength="21.8931" x="304" y="454.5654">&#8226; ID</text><text fill="#000000" font-family="sans-serif" font-size="13" lengthAdjust="spacing" textLength="41.4058" x="304" y="470.917">&#8226; T&#237;tulo</text><text fill="#000000" font-family="sans-serif" font-size="13" lengthAdjust="spacing" textLength="49.3657" x="304" y="487.2686">&#8226; Estado</text><text fill="#000000" font-family="sans-serif" font-size="13" lengthAdjust="spacing" textLength="45.0239" x="304" y="503.6201">&#8226; Fecha</text><text fill="#000000" font-family="sans-serif" font-size="13" lengthAdjust="spacing" textLength="64.5303" x="304" y="519.9717">&#8226; Resumen</text><text fill="#000000" font-family="sans-serif" font-size="13" lengthAdjust="spacing" textLength="123.7603" x="304" y="536.3232">&#8226; abrirMiPublicacion()</text><text fill="#000000" font-family="sans-serif" font-size="13" lengthAdjust="spacing" textLength="3.6118" x="304" y="552.6748">&#160;</text><text fill="#000000" font-family="sans-serif" font-size="13" lengthAdjust="spacing" textLength="242.0488" x="304" y="569.0264">y permite solicitar las siguientes acciones:</text><text fill="#000000" font-family="sans-serif" font-size="13" lengthAdjust="spacing" textLength="83.3003" x="304" y="585.3779">&#8226; Aplicar filtros</text><text fill="#000000" font-family="sans-serif" font-size="13" lengthAdjust="spacing" textLength="86.1885" x="304" y="601.7295">&#8226; Limpiar filtros</text><text fill="#000000" font-family="sans-serif" font-size="13" lengthAdjust="spacing" textLength="104.9966" x="304" y="618.0811">&#8226; Abrir publicaci&#243;n</text><text fill="#000000" font-family="sans-serif" font-size="13" lengthAdjust="spacing" textLength="110.0557" x="304" y="634.4326">&#8226; Crear publicaci&#243;n</text><text fill="#000000" font-family="sans-serif" font-size="13" lengthAdjust="spacing" textLength="123.7856" x="304" y="650.7842">&#8226; Abrir panel principal</text></g><!--link FiltrandoLista to FiltrandoLista--><g class="link" data-entity-1="ent0005" data-entity-2="ent0005" data-link-type="dependency" data-source-line="43" id="lnk11"><path d="M318.18,696.0294 C327.91,695.5194 336,699.3794 336,707.6094 C336,715.8394 332.9031,719.9611 323.1731,719.4511" fill="none" id="FiltrandoLista-to-FiltrandoLista" style="stroke:#008000;stroke-width:1;"/><polygon fill="#008000" points="318.18,719.1894,326.9583,723.655,323.1731,719.4511,327.377,715.6659,318.18,719.1894" style="stroke:#008000;stroke-width:1;stroke-linejoin:miter;stroke-miterlimit:10;"/><path d="M341,686.6094 L341,728.6094 L721,728.6094 L721,696.6094 L711,686.6094 L341,686.6094" fill="#FEFFDD" style="stroke:#181818;stroke-width:0.5;"/><path d="M711,686.6094 L711,696.6094 L721,696.6094 L711,686.6094" fill="#FEFFDD" style="stroke:#181818;stroke-width:0.5;"/><text fill="#000000" font-family="sans-serif" font-size="13" font-weight="700" lengthAdjust="spacing" textLength="77.9937" x="347" y="705.1045">Coordinador</text><text fill="#000000" font-family="sans-serif" font-size="13" lengthAdjust="spacing" textLength="278.1987" x="428.6055" y="705.1045">solicita introducir criterios de filtrado o b&#250;squeda</text><text fill="#000000" font-family="sans-serif" font-size="13" font-weight="700" lengthAdjust="spacing" textLength="49.8608" x="347" y="721.4561">Sistema</text><text fill="#000000" font-family="sans-serif" font-size="13" lengthAdjust="spacing" textLength="171.2598" x="400.4727" y="721.4561">muestra el listado actualizado</text></g><!--link FiltrandoLista to *end*abrirMisPublicaciones--><g class="link" data-entity-1="ent0005" data-entity-2="ent0012" data-link-type="dependency" data-source-line="49" id="lnk13"><path d="M293,732.6194 C293,755.5394 293,783.9694 293,800.5294" fill="none" id="FiltrandoLista-to-*end*abrirMisPublicaciones" style="stroke:#008000;stroke-width:1;"/><polygon fill="#008000" points="293,805.5294,297,796.5294,293,800.5294,289,796.5294,293,805.5294" style="stroke:#008000;stroke-width:1;stroke-linejoin:miter;stroke-miterlimit:10;"/><path d="M298,756.6094 L298,782.6094 L592,782.6094 L592,766.6094 L582,756.6094 L298,756.6094" fill="#FEFFDD" style="stroke:#181818;stroke-width:0.5;"/><path d="M582,756.6094 L582,766.6094 L592,766.6094 L582,756.6094" fill="#FEFFDD" style="stroke:#181818;stroke-width:0.5;"/><text fill="#000000" font-family="sans-serif" font-size="13" font-weight="700" lengthAdjust="spacing" textLength="49.8608" x="304" y="775.1045">Sistema</text><text fill="#000000" font-family="sans-serif" font-size="13" lengthAdjust="spacing" textLength="219.6924" x="357.4727" y="775.1045">deja el listado de publicaciones visible</text></g></g><g class="entity" data-qualified-name="MIS_PUBLICACIONES_ABIERTAS" data-source-line="55" id="ent0014"><rect fill="#F1F1F1" height="50" rx="12.5" ry="12.5" style="stroke:#181818;stroke-width:0.5;" width="243.2891" x="7" y="937"/><line style="stroke:#181818;stroke-width:0.5;" x1="7" x2="250.2891" y1="964.6094" y2="964.6094"/><text fill="#000000" font-family="sans-serif" font-size="14" lengthAdjust="spacing" textLength="223.2891" x="17" y="956.5332">MIS_PUBLICACIONES_ABIERTAS</text></g><g class="entity" data-qualified-name="MI_PUBLICACION_ABIERTA" data-source-line="60" id="ent0016"><rect fill="#F1F1F1" height="50" rx="12.5" ry="12.5" style="stroke:#181818;stroke-width:0.5;" width="205.9375" x="361.5" y="937"/><line style="stroke:#181818;stroke-width:0.5;" x1="361.5" x2="567.4375" y1="964.6094" y2="964.6094"/><text fill="#000000" font-family="sans-serif" font-size="14" lengthAdjust="spacing" textLength="185.9375" x="371.5" y="956.5332">MI_PUBLICACION_ABIERTA</text></g><g class="entity" data-qualified-name="PANEL_PRINCIPAL_ABIERTO" data-source-line="70" id="ent0019"><rect fill="#F1F1F1" height="50" rx="12.5" ry="12.5" style="stroke:#181818;stroke-width:0.5;" width="216.8477" x="660" y="937"/><line style="stroke:#181818;stroke-width:0.5;" x1="660" x2="876.8477" y1="964.6094" y2="964.6094"/><text fill="#000000" font-family="sans-serif" font-size="14" lengthAdjust="spacing" textLength="196.8477" x="670" y="956.5332">PANEL_PRINCIPAL_ABIERTO</text></g><!--link in1 to abrirMisPublicaciones--><g class="link" data-entity-1="ent0001" data-entity-2="ent0003" data-link-type="dependency" data-source-line="4" id="lnk6"><path d="M384.2,57.27 C388.31,72.16 392.7604,88.26 399.5604,112.91" fill="none" id="in1-to-abrirMisPublicaciones" style="stroke:#008000;stroke-width:1;"/><polygon fill="#008000" points="400.89,117.73,402.3526,107.9904,399.5604,112.91,394.6407,110.1178,400.89,117.73" style="stroke:#008000;stroke-width:1;stroke-linejoin:miter;stroke-miterlimit:10;"/></g><!--link in2 to abrirMisPublicaciones--><g class="link" data-entity-1="ent0002" data-entity-2="ent0003" data-link-type="dependency" data-source-line="7" id="lnk7"><path d="M617.75,57.27 C613.6,72.16 609.1205,88.2631 602.2605,112.9131" fill="none" id="in2-to-abrirMisPublicaciones" style="stroke:#008000;stroke-width:1;"/><polygon fill="#008000" points="600.92,117.73,607.1865,110.1319,602.2605,112.9131,599.4794,107.9871,600.92,117.73" style="stroke:#008000;stroke-width:1;stroke-linejoin:miter;stroke-miterlimit:10;"/></g><!--link abrirMisPublicaciones to MIS_PUBLICACIONES_ABIERTAS--><g class="link" data-entity-1="ent0003" data-entity-2="ent0014" data-link-type="dependency" data-source-line="55" id="lnk15"><path d="M255.79,759.1 C200.37,822.2 157.5,871 157.5,871 C157.5,871 146.3934,905.4609 137.8034,932.1209" fill="none" id="abrirMisPublicaciones-to-MIS_PUBLICACIONES_ABIERTAS" style="stroke:#008000;stroke-width:1;"/><polygon fill="#008000" points="136.27,936.88,142.8374,929.5404,137.8034,932.1209,135.2229,927.087,136.27,936.88" style="stroke:#008000;stroke-width:1;stroke-linejoin:miter;stroke-miterlimit:10;"/><path d="M162.5,876 L162.5,902 L392.5,902 L392.5,886 L382.5,876 L162.5,876" fill="#FEFFDD" style="stroke:#181818;stroke-width:0.5;"/><path d="M382.5,876 L382.5,886 L392.5,886 L382.5,876" fill="#FEFFDD" style="stroke:#181818;stroke-width:0.5;"/><text fill="#000000" font-family="sans-serif" font-size="13" lengthAdjust="spacing" textLength="209.5679" x="168.5" y="894.4951">Listado de mis publicaciones abierto</text></g><!--link abrirMisPublicaciones to MI_PUBLICACION_ABIERTA--><g class="link" data-entity-1="ent0003" data-entity-2="ent0016" data-link-type="dependency" data-source-line="60" id="lnk17"><path d="M412.8,841.01 C408.24,859.72 405.5,871 405.5,871 C405.5,871 405.5,907 405.5,907 C405.5,907 418.7106,919.0953 434.4206,933.4653" fill="none" id="abrirMisPublicaciones-to-MI_PUBLICACION_ABIERTA" style="stroke:#008000;stroke-width:1;"/><polygon fill="#008000" points="438.11,936.84,434.1689,927.8141,434.4206,933.4653,428.7694,933.7171,438.11,936.84" style="stroke:#008000;stroke-width:1;stroke-linejoin:miter;stroke-miterlimit:10;"/><path d="M410.5,876 L410.5,902 L545.5,902 L545.5,886 L535.5,876 L410.5,876" fill="#FEFFDD" style="stroke:#181818;stroke-width:0.5;"/><path d="M535.5,876 L535.5,886 L545.5,886 L535.5,876" fill="#FEFFDD" style="stroke:#181818;stroke-width:0.5;"/><text fill="#000000" font-family="sans-serif" font-size="13" lengthAdjust="spacing" textLength="114.8672" x="416.5" y="894.4951">abrirMiPublicacion()</text></g><!--link abrirMisPublicaciones to MI_PUBLICACION_ABIERTA--><g class="link" data-entity-1="ent0003" data-entity-2="ent0016" data-link-type="dependency" data-source-line="65" id="lnk18"><path d="M550.35,841.01 C552.94,859.72 554.5,871 554.5,871 C554.5,871 554.5,907 554.5,907 C554.5,907 533.0079,919.8983 509.0479,934.2683" fill="none" id="abrirMisPublicaciones-to-MI_PUBLICACION_ABIERTA-1" style="stroke:#008000;stroke-width:1;"/><polygon fill="#008000" points="504.76,936.84,514.5356,935.6413,509.0479,934.2683,510.4209,928.7806,504.76,936.84" style="stroke:#008000;stroke-width:1;stroke-linejoin:miter;stroke-miterlimit:10;"/><path d="M559.5,876 L559.5,902 L684.5,902 L684.5,886 L674.5,876 L559.5,876" fill="#FEFFDD" style="stroke:#181818;stroke-width:0.5;"/><path d="M674.5,876 L674.5,886 L684.5,886 L674.5,876" fill="#FEFFDD" style="stroke:#181818;stroke-width:0.5;"/><text fill="#000000" font-family="sans-serif" font-size="13" lengthAdjust="spacing" textLength="104.7617" x="565.5" y="894.4951">crearPublicacion()</text></g><!--link abrirMisPublicaciones to PANEL_PRINCIPAL_ABIERTO--><g class="link" data-entity-1="ent0003" data-entity-2="ent0019" data-link-type="dependency" data-source-line="70" id="lnk20"><path d="M701.74,841.3 C724.05,881.3 740.5756,910.9227 752.5156,932.3427" fill="none" id="abrirMisPublicaciones-to-PANEL_PRINCIPAL_ABIERTO" style="stroke:#008000;stroke-width:1;"/><polygon fill="#008000" points="754.95,936.71,754.0619,926.9013,752.5156,932.3427,747.0741,930.7964,754.95,936.71" style="stroke:#008000;stroke-width:1;stroke-linejoin:miter;stroke-miterlimit:10;"/><path d="M739.5,876 L739.5,902 L877.5,902 L877.5,886 L867.5,876 L739.5,876" fill="#FEFFDD" style="stroke:#181818;stroke-width:0.5;"/><path d="M867.5,876 L867.5,886 L877.5,886 L867.5,876" fill="#FEFFDD" style="stroke:#181818;stroke-width:0.5;"/><text fill="#000000" font-family="sans-serif" font-size="13" lengthAdjust="spacing" textLength="117.7681" x="745.5" y="894.4951">abrirPanelPrincipal()</text></g><?plantuml-src hLN1Rjim3BtxAuJqaWmeYlKu507SB0KCEAcHTAUY26I9RRdAaYVP0x9XmBvbzvrswpL_iYyPvIIEdJbRLiovcAJq-4W-C-u9TSujpvX23SKo1vORjVH64BY25y1GlsRSiLuIJiVn8fb5qr6KXF4Yl8p6ivlhNk0FdDwUF5W0VNSwP3orQ2VeaZ9LABX0ey7jqCuhj4cqIDvTnj4e74NNqmrOwC7EZmVh35RmdP7-eCS-1m6ZPts_HpywFJ6ki5nB4oFvVuzVeMh6gmEth-vQF3imj248etrddoh7HJeS6MCbQYwDlJXBXymPeeS5NvV2GD5fkYyDay1SwLZUgjkZW9OLz9f7Es-BqXxjGvJc58MCLtHo2muquH2HL9aF9NWUznMGPMSiBPsW5s7qc-hwpw_VsCtgUr4gKzlZYdzjNe5uvAmlmKaOx7iVEHqU17-ZqkX9XdizQPE9tluJhzgQWIipqBMzqKz3FlqDpINBmMP8VTpEpZ958d7uK28HzW8KQsexMc7kOUowayRL_XYp73lyOQM6kixLZnspaGL-8BIvnJMrBBUe1UPSTMYcBOoNQEQWZ55J7R8Kn4DOQf95utOIeX4QbgwU7GbBygwfPoLuFJU7paLHSeMVjiCxkXRwH8yIlOJt-ofhA-mZEamLjBD_2OBkzTFQ2j6ykUR6y-sYcmSjLl6V1CvJ15kOO5VuCOcxrcixQQV6_tSIuUNwyXG7_dGw2acyx9EjwfjfVW40?></g></svg>