<svg xmlns="http://www.w3.org/2000/svg" xmlns:xlink="http://www.w3.org/1999/xlink" contentStyleType="text/css" data-diagram-type="DESCRIPTION" height="595px" preserveAspectRatio="none" style="width:1313px;height:595px;background:#FFFFFF;" version="1.1" viewBox="0 0 1313 595" width="1313px" zoomAndPan="magnify"><?plantuml 1.2026.6?><defs/><g><!--cluster abrirPublicacion--><g class="cluster" data-qualified-name="abrirPublicacion" data-source-line="4" id="ent0002"><path d="M241,6 L361.0205,6 A3.75,3.75 0 0 1 363.5205,8.5 L370.5205,29.6094 L1052,29.6094 A2.5,2.5 0 0 1 1054.5,32.1094 L1054.5,577.5 A2.5,2.5 0 0 1 1052,580 L241,580 A2.5,2.5 0 0 1 238.5,577.5 L238.5,8.5 A2.5,2.5 0 0 1 241,6" fill="none" style="stroke:#000000;stroke-width:1.5;"/><line style="stroke:#000000;stroke-width:1.5;" x1="238.5" x2="370.5205" y1="29.6094" y2="29.6094"/><text fill="#000000" font-family="sans-serif" font-size="14" font-weight="700" lengthAdjust="spacing" textLength="119.0205" x="242.5" y="22.5332">abrirPublicacion()</text></g><!--entity View--><g class="entity" data-qualified-name="abrirPublicacion.View" data-source-line="5" id="ent0003"><rect fill="#629EF9" height="37.6094" rx="2.5" ry="2.5" style="stroke:#181818;stroke-width:0.5;" width="149.9512" x="615.5" y="42"/><text fill="#000000" font-family="sans-serif" font-size="14" lengthAdjust="spacing" textLength="129.9512" x="625.5" y="66.5332">abrirPublicacionView</text></g><!--entity PublicacionController--><g class="entity" data-qualified-name="abrirPublicacion.PublicacionController" data-source-line="6" id="ent0004"><rect fill="#B5BD68" height="37.6094" rx="2.5" ry="2.5" style="stroke:#181818;stroke-width:0.5;" width="152.2891" x="614.5" y="158"/><text fill="#000000" font-family="sans-serif" font-size="14" lengthAdjust="spacing" textLength="132.2891" x="624.5" y="182.5332">PublicacionController</text></g><!--entity PublicacionService--><g class="entity" data-qualified-name="abrirPublicacion.PublicacionService" data-source-line="7" id="ent0005"><rect fill="#B5BD68" height="37.6094" rx="2.5" ry="2.5" style="stroke:#181818;stroke-width:0.5;" width="138.2822" x="537.5" y="274"/><text fill="#000000" font-family="sans-serif" font-size="14" lengthAdjust="spacing" textLength="118.2822" x="547.5" y="298.5332">PublicacionService</text></g><!--entity SesionService--><g class="entity" data-qualified-name="abrirPublicacion.SesionService" data-source-line="8" id="ent0006"><rect fill="#B5BD68" height="37.6094" rx="2.5" ry="2.5" style="stroke:#181818;stroke-width:0.5;" width="109.4893" x="711" y="274"/><text fill="#000000" font-family="sans-serif" font-size="14" lengthAdjust="spacing" textLength="89.4893" x="721" y="298.5332">SesionService</text></g><!--entity PoliticaPublicacion--><g class="entity" data-qualified-name="abrirPublicacion.PoliticaPublicacion" data-source-line="9" id="ent0007"><rect fill="#B5BD68" height="37.6094" rx="2.5" ry="2.5" style="stroke:#181818;stroke-width:0.5;" width="136.7305" x="259" y="408.5"/><text fill="#000000" font-family="sans-serif" font-size="14" lengthAdjust="spacing" textLength="116.7305" x="269" y="433.0332">PoliticaPublicacion</text></g><!--entity PublicacionRepository--><g class="entity" data-qualified-name="abrirPublicacion.PublicacionRepository" data-source-line="10" id="ent0008"><rect fill="#F2AC4E" height="37.6094" rx="2.5" ry="2.5" style="stroke:#181818;stroke-width:0.5;" width="158.5166" x="435" y="408.5"/><text fill="#000000" font-family="sans-serif" font-size="14" lengthAdjust="spacing" textLength="138.5166" x="445" y="433.0332">PublicacionRepository</text></g><!--entity Publicacion--><g class="entity" data-qualified-name="abrirPublicacion.Publicacion" data-source-line="11" id="ent0009"><rect fill="#F2AC4E" height="37.6094" rx="2.5" ry="2.5" style="stroke:#181818;stroke-width:0.5;" width="91.5996" x="468.5" y="526"/><text fill="#000000" font-family="sans-serif" font-size="14" lengthAdjust="spacing" textLength="71.5996" x="478.5" y="550.5332">Publicacion</text></g><!--entity RespuestaRepository--><g class="entity" data-qualified-name="abrirPublicacion.RespuestaRepository" data-source-line="12" id="ent0010"><rect fill="#F2AC4E" height="37.6094" rx="2.5" ry="2.5" style="stroke:#181818;stroke-width:0.5;" width="153.8477" x="629.5" y="408.5"/><text fill="#000000" font-family="sans-serif" font-size="14" lengthAdjust="spacing" textLength="133.8477" x="639.5" y="433.0332">RespuestaRepository</text></g><!--entity ArchivoPublicacionRepository--><g class="entity" data-qualified-name="abrirPublicacion.ArchivoPublicacionRepository" data-source-line="13" id="ent0011"><rect fill="#F2AC4E" height="37.6094" rx="2.5" ry="2.5" style="stroke:#181818;stroke-width:0.5;" width="205.1992" x="819" y="408.5"/><text fill="#000000" font-family="sans-serif" font-size="14" lengthAdjust="spacing" textLength="185.1992" x="829" y="433.0332">ArchivoPublicacionRepository</text></g><!--entity Respuesta--><g class="entity" data-qualified-name="abrirPublicacion.Respuesta" data-source-line="14" id="ent0012"><rect fill="#F2AC4E" height="37.6094" rx="2.5" ry="2.5" style="stroke:#181818;stroke-width:0.5;" width="86.9307" x="663" y="526"/><text fill="#000000" font-family="sans-serif" font-size="14" lengthAdjust="spacing" textLength="66.9307" x="673" y="550.5332">Respuesta</text></g><!--entity ArchivoPublicacion--><g class="entity" data-qualified-name="abrirPublicacion.ArchivoPublicacion" data-source-line="15" id="ent0013"><rect fill="#F2AC4E" height="37.6094" rx="2.5" ry="2.5" style="stroke:#181818;stroke-width:0.5;" width="138.2822" x="852.5" y="526"/><text fill="#000000" font-family="sans-serif" font-size="14" lengthAdjust="spacing" textLength="118.2822" x="862.5" y="550.5332">ArchivoPublicacion</text></g><!--entity EstadoEntrada--><g class="entity" data-qualified-name="EstadoEntrada" data-source-line="3" id="ent0001"><rect fill="#CDEBA5" height="37.6094" rx="2.5" ry="2.5" style="stroke:#181818;stroke-width:0.5;" width="214.5029" x="7" y="42"/><text fill="#000000" font-family="sans-serif" font-size="14" lengthAdjust="spacing" textLength="194.5029" x="17" y="66.5332">:PUBLICACIONES_ABIERTAS</text></g><!--entity EstadoSalida--><g class="entity" data-qualified-name="EstadoSalida" data-source-line="17" id="ent0014"><rect fill="#CDEBA5" height="37.6094" rx="2.5" ry="2.5" style="stroke:#181818;stroke-width:0.5;" width="186.4893" x="1070.5" y="158"/><text fill="#000000" font-family="sans-serif" font-size="14" lengthAdjust="spacing" textLength="166.4893" x="1080.5" y="182.5332">:PUBLICACION_ABIERTA</text></g><g class="entity" data-qualified-name="GMN27" data-source-line="34" id="ent0028"><path d="M1070.5,390 L1070.5,465.4063 L1298.1226,465.4063 L1298.1226,400 L1288.1226,390 L1070.5,390" fill="#FEFFDD" style="stroke:#181818;stroke-width:0.5;"/><path d="M1288.1226,390 L1288.1226,400 L1298.1226,400 L1288.1226,390" fill="#FEFFDD" style="stroke:#181818;stroke-width:1;"/><text fill="#000000" font-family="sans-serif" font-size="13" lengthAdjust="spacing" textLength="134.4243" x="1076.5" y="408.4951">Responsabilidad unica:</text><text fill="#000000" font-family="sans-serif" font-size="13" lengthAdjust="spacing" textLength="191.4707" x="1076.5" y="424.8467">autoriza sin persistir ni presentar.</text><text fill="#000000" font-family="sans-serif" font-size="13" lengthAdjust="spacing" textLength="206.6226" x="1076.5" y="441.1982">Permite ampliar reglas sin modificar</text><text fill="#000000" font-family="sans-serif" font-size="13" lengthAdjust="spacing" textLength="185.7324" x="1076.5" y="457.5498">la coordinacion del caso de uso.</text></g><!--link EstadoEntrada to View--><g class="link" data-entity-1="ent0001" data-entity-2="ent0003" data-link-type="dependency" data-source-line="19" id="lnk15"><path d="M222.17,61 C336.78,61 510.16,61 610.46,61" fill="none" id="EstadoEntrada-to-View" style="stroke:#181818;stroke-width:1;"/><polygon fill="#181818" points="615.46,61,606.46,57,610.46,61,606.46,65,615.46,61" style="stroke:#181818;stroke-width:1;stroke-linejoin:miter;stroke-miterlimit:10;"/><text fill="#000000" font-family="sans-serif" font-size="13" lengthAdjust="spacing" textLength="101.1499" x="368.25" y="54.4951">abrirPublicacion()</text></g><!--link View to PublicacionController--><g class="link" data-entity-1="ent0003" data-entity-2="ent0004" data-link-type="dependency" data-source-line="20" id="lnk16"><path d="M690.5,80.06 C690.5,101.28 690.5,131.3 690.5,152.64" fill="none" id="View-to-PublicacionController" style="stroke:#181818;stroke-width:1;"/><polygon fill="#181818" points="690.5,157.64,694.5,148.64,690.5,152.64,686.5,148.64,690.5,157.64" style="stroke:#181818;stroke-width:1;stroke-linejoin:miter;stroke-miterlimit:10;"/><text fill="#000000" font-family="sans-serif" font-size="13" lengthAdjust="spacing" textLength="184.2407" x="691.5" y="124.4951">abrirPublicacion(solicitud, actor)</text></g><!--link PublicacionController to PublicacionService--><g class="link" data-entity-1="ent0004" data-entity-2="ent0005" data-link-type="dependency" data-source-line="21" id="lnk17"><path d="M662.15,196.15 C640.91,209.74 615.5,226 615.5,226 C615.5,226 612.2941,249.4656 609.6341,269.0156" fill="none" id="PublicacionController-to-PublicacionService" style="stroke:#181818;stroke-width:1;"/><polygon fill="#181818" points="608.96,273.97,614.1369,265.5914,609.6341,269.0156,606.2099,264.5129,608.96,273.97" style="stroke:#181818;stroke-width:1;stroke-linejoin:miter;stroke-miterlimit:10;"/><text fill="#000000" font-family="sans-serif" font-size="13" lengthAdjust="spacing" textLength="98.9917" x="616.5" y="240.4951">obtener(id, actor)</text></g><!--link PublicacionController to SesionService--><g class="link" data-entity-1="ent0004" data-entity-2="ent0006" data-link-type="dependency" data-source-line="22" id="lnk18"><path d="M702.38,196.06 C716.34,217.28 736.6318,248.123 750.6718,269.463" fill="none" id="PublicacionController-to-SesionService" style="stroke:#181818;stroke-width:1;"/><polygon fill="#181818" points="753.42,273.64,751.815,263.9228,750.6718,269.463,745.1317,268.3199,753.42,273.64" style="stroke:#181818;stroke-width:1;stroke-linejoin:miter;stroke-miterlimit:10;"/><text fill="#000000" font-family="sans-serif" font-size="13" lengthAdjust="spacing" textLength="209.5806" x="732.5" y="240.4951">obtenerSesionActual(authentication)</text></g><!--link PublicacionService to PublicacionRepository--><g class="link" data-entity-1="ent0005" data-entity-2="ent0008" data-link-type="dependency" data-source-line="23" id="lnk19"><path d="M578.52,312.15 C557.57,325.74 532.5,342 532.5,342 C532.5,342 524.7411,378.4196 519.4511,403.2696" fill="none" id="PublicacionService-to-PublicacionRepository" style="stroke:#181818;stroke-width:1;"/><polygon fill="#181818" points="518.41,408.16,524.1962,400.1901,519.4511,403.2696,516.3716,398.5244,518.41,408.16" style="stroke:#181818;stroke-width:1;stroke-linejoin:miter;stroke-miterlimit:10;"/><text fill="#000000" font-family="sans-serif" font-size="13" lengthAdjust="spacing" textLength="129.3398" x="533.5" y="356.4951">obtenerActivaPorId(id)</text></g><!--link PublicacionService to PoliticaPublicacion--><g class="link" data-entity-1="ent0005" data-entity-2="ent0007" data-link-type="dependency" data-source-line="24" id="lnk20"><path d="M537.3,305.38 C450.95,319.57 314.5,342 314.5,342 C314.5,342 314.5,360 314.5,360 C314.5,360 319.1405,383.7329 322.9905,403.4229" fill="none" id="PublicacionService-to-PoliticaPublicacion" style="stroke:#181818;stroke-width:1;"/><polygon fill="#181818" points="323.95,408.33,326.1486,398.7297,322.9905,403.4229,318.2973,400.2649,323.95,408.33" style="stroke:#181818;stroke-width:1;stroke-linejoin:miter;stroke-miterlimit:10;"/><text fill="#000000" font-family="sans-serif" font-size="13" lengthAdjust="spacing" textLength="204.4707" x="315.5" y="356.4951">permitirConsulta(actor, publicacion)</text></g><!--link PublicacionRepository to Publicacion--><g class="link" data-entity-1="ent0008" data-entity-2="ent0009" data-link-type="association" data-source-line="26" id="lnk21"><path d="M514.5,446.55 C514.5,468.12 514.5,504.02 514.5,525.7" fill="none" id="PublicacionRepository-Publicacion" style="stroke:#181818;stroke-width:1;"/></g><!--link PublicacionService to RespuestaRepository--><g class="link" data-entity-1="ent0005" data-entity-2="ent0010" data-link-type="dependency" data-source-line="27" id="lnk22"><path d="M629.56,312.15 C646.84,325.74 667.5,342 667.5,342 C667.5,342 684.4746,378.7703 695.9446,403.6203" fill="none" id="PublicacionService-to-RespuestaRepository" style="stroke:#181818;stroke-width:1;"/><polygon fill="#181818" points="698.04,408.16,697.9001,398.3121,695.9446,403.6203,690.6365,401.6648,698.04,408.16" style="stroke:#181818;stroke-width:1;stroke-linejoin:miter;stroke-miterlimit:10;"/><text fill="#000000" font-family="sans-serif" font-size="13" lengthAdjust="spacing" textLength="144.5107" x="675.5" y="356.4951">buscarPorPublicacion(id)</text></g><!--link PublicacionService to ArchivoPublicacionRepository--><g class="link" data-entity-1="ent0005" data-entity-2="ent0011" data-link-type="dependency" data-source-line="28" id="lnk23"><path d="M675.53,308.92 C740.69,323.01 828.5,342 828.5,342 C828.5,342 870.2694,379.9476 897.6194,404.7976" fill="none" id="PublicacionService-to-ArchivoPublicacionRepository" style="stroke:#181818;stroke-width:1;"/><polygon fill="#181818" points="901.32,408.16,897.3488,399.1473,897.6194,404.7976,891.969,405.0683,901.32,408.16" style="stroke:#181818;stroke-width:1;stroke-linejoin:miter;stroke-miterlimit:10;"/><text fill="#000000" font-family="sans-serif" font-size="13" lengthAdjust="spacing" textLength="144.5107" x="846.5" y="356.4951">buscarPorPublicacion(id)</text></g><!--link RespuestaRepository to Respuesta--><g class="link" data-entity-1="ent0010" data-entity-2="ent0012" data-link-type="association" data-source-line="29" id="lnk24"><path d="M706.5,446.55 C706.5,468.12 706.5,504.02 706.5,525.7" fill="none" id="RespuestaRepository-Respuesta" style="stroke:#181818;stroke-width:1;"/></g><!--link ArchivoPublicacionRepository to ArchivoPublicacion--><g class="link" data-entity-1="ent0011" data-entity-2="ent0013" data-link-type="association" data-source-line="30" id="lnk25"><path d="M921.5,446.55 C921.5,468.12 921.5,504.02 921.5,525.7" fill="none" id="ArchivoPublicacionRepository-ArchivoPublicacion" style="stroke:#181818;stroke-width:1;"/></g><!--link View to EstadoSalida--><g class="link" data-entity-1="ent0003" data-entity-2="ent0014" data-link-type="dependency" data-source-line="31" id="lnk26"><path d="M765.19,80 C853.7,101.33 995.4392,135.4986 1083.9492,156.8286" fill="none" id="View-to-EstadoSalida" style="stroke:#181818;stroke-width:1;stroke-dasharray:7,7;"/><polygon fill="#181818" points="1088.81,158,1080.9976,152.0028,1083.9492,156.8286,1079.1234,159.7801,1088.81,158" style="stroke:#181818;stroke-width:1;stroke-linejoin:miter;stroke-miterlimit:10;"/><text fill="#000000" font-family="sans-serif" font-size="13" lengthAdjust="spacing" textLength="130.7935" x="955.5" y="124.4951">continuarNavegacion()</text></g><!--link PoliticaPublicacion to GMN27--><g class="link" data-entity-1="ent0007" data-entity-2="ent0028" data-link-type="association" data-source-line="34" id="lnk29"><path d="M354.35,408.39 C386.19,385.73 435,351 435,351 C435,351 1037,351 1037,351 C1037,351 1074.74,370.58 1112.05,389.92" fill="none" id="PoliticaPublicacion-GMN27" style="stroke:#181818;stroke-width:1;stroke-dasharray:7,7;"/></g><?plantuml-src bPJHRzem4CRV_LUSs0j8XOTghTOyL0eibP2cBe9jhzF5SU5KOqUsmyIc_UyxqnOI2D3bAN6---wSxnVxPp8LEbo19gF2fb9GMRs93q8u9GEQXLRmOV8v6wStq4lox-ClqqawcNvzpEO_q_4qctrBvpr03vaFMDhC18SbYWhbCouKOE78vNMXIQ8aQwAoTxZO7_JWZm2-6Zrlh--oXxjZyGzIlxODuyrXKN5JbBUVe26VM9x8QgtSPUrSkJL9TK8uL_wY9hUQ0hirJ0-L3zVfv6FMR3jJbVKKhDjSrfvGp9IlQiK9NFHAdLpIslvF-vtvkot5tqlqlB7JG6UEcfWSqG89XcvuluqwWMDiH7m1mv8bdP5tr7XEI5Aeooj0oPiUYCvA6BOzNsDFm1P16UNwz1w35ZAxsfVLL8OQTH_hi5GcCXDuiMNsMdSuoZwldIDxqHfpwwOb3tRQv9ZE12hbLhpgU7HVwu3zxQwkeDgB1a9qzcVJ5fidsdR0cK1HUucEHsw6SsRsSzoUSUle7QVU8ttEDoexuDv2DnhTjxXDG7BsP6fqZxXMYpT2XR51WQF5Ce1zwZmWuZ3yyR6WQ5H2RVXD8fWCw-WtWYSJK_BaEIOm19LJdfb1DnBvDZq-PrUL9dJyTouq_r6nP6LBUc8d9pJoSDQLP5xEu59faEWjtq3jxKWeKqASyny0?></g></svg>