<svg xmlns="http://www.w3.org/2000/svg" xmlns:xlink="http://www.w3.org/1999/xlink" contentStyleType="text/css" data-diagram-type="DESCRIPTION" height="442px" preserveAspectRatio="none" style="width:1487px;height:442px;background:#FFFFFF;" version="1.1" viewBox="0 0 1487 442" width="1487px" zoomAndPan="magnify"><?plantuml 1.2026.4?><defs/><g><!--cluster abrirPublicacion--><g class="cluster" data-qualified-name="abrirPublicacion" data-source-line="4" id="ent0002"><path d="M241,6 L361.0205,6 A3.75,3.75 0 0 1 363.5205,8.5 L370.5205,29.6094 L723,29.6094 A2.5,2.5 0 0 1 725.5,32.1094 L725.5,424.5 A2.5,2.5 0 0 1 723,427 L241,427 A2.5,2.5 0 0 1 238.5,424.5 L238.5,8.5 A2.5,2.5 0 0 1 241,6" fill="none" style="stroke:#000000;stroke-width:1.5;"/><line style="stroke:#000000;stroke-width:1.5;" x1="238.5" x2="370.5205" y1="29.6094" y2="29.6094"/><text fill="#000000" font-family="sans-serif" font-size="14" font-weight="700" lengthAdjust="spacing" textLength="119.0205" x="242.5" y="22.5332">abrirPublicacion()</text></g><!--entity DetallePublicacionView--><g class="entity" data-qualified-name="abrirPublicacion.DetallePublicacionView" data-source-line="5" id="ent0003"><rect fill="#629EF9" height="37.6094" rx="2.5" ry="2.5" style="stroke:#181818;stroke-width:0.5;" width="165.5234" x="460.5" y="42"/><text fill="#000000" font-family="sans-serif" font-size="14" lengthAdjust="spacing" textLength="145.5234" x="470.5" y="66.5332">DetallePublicacionView</text></g><!--entity PublicacionController--><g class="entity" data-qualified-name="abrirPublicacion.PublicacionController" data-source-line="6" id="ent0004"><rect fill="#B5BD68" height="37.6094" rx="2.5" ry="2.5" style="stroke:#181818;stroke-width:0.5;" width="152.2891" x="301.5" y="158"/><text fill="#000000" font-family="sans-serif" font-size="14" lengthAdjust="spacing" textLength="132.2891" x="311.5" y="182.5332">PublicacionController</text></g><!--entity PublicacionRepository--><g class="entity" data-qualified-name="abrirPublicacion.PublicacionRepository" data-source-line="7" id="ent0005"><rect fill="#F2AC4E" height="37.6094" rx="2.5" ry="2.5" style="stroke:#181818;stroke-width:0.5;" width="158.5166" x="311" y="274"/><text fill="#000000" font-family="sans-serif" font-size="14" lengthAdjust="spacing" textLength="138.5166" x="321" y="298.5332">PublicacionRepository</text></g><!--entity Publicacion--><g class="entity" data-qualified-name="abrirPublicacion.Publicacion" data-source-line="8" id="ent0006"><rect fill="#F2AC4E" height="37.6094" rx="2.5" ry="2.5" style="stroke:#181818;stroke-width:0.5;" width="91.5996" x="344.5" y="373"/><text fill="#000000" font-family="sans-serif" font-size="14" lengthAdjust="spacing" textLength="71.5996" x="354.5" y="397.5332">Publicacion</text></g><!--entity EstadoEntrada--><g class="entity" data-qualified-name="EstadoEntrada" data-source-line="3" id="ent0001"><rect fill="#CDEBA5" height="37.6094" rx="2.5" ry="2.5" style="stroke:#181818;stroke-width:0.5;" width="214.5029" x="7" y="42"/><text fill="#000000" font-family="sans-serif" font-size="14" lengthAdjust="spacing" textLength="194.5029" x="17" y="66.5332">:PUBLICACIONES_ABIERTAS</text></g><!--entity EstadoSalida--><g class="entity" data-qualified-name="EstadoSalida" data-source-line="11" id="ent0007"><rect fill="#CDEBA5" height="37.6094" rx="2.5" ry="2.5" style="stroke:#181818;stroke-width:0.5;" width="186.4893" x="741.5" y="158"/><text fill="#000000" font-family="sans-serif" font-size="14" lengthAdjust="spacing" textLength="166.4893" x="751.5" y="182.5332">:PUBLICACION_ABIERTA</text></g><!--entity ResponderPublicacion--><g class="entity" data-qualified-name="ResponderPublicacion" data-source-line="12" id="ent0008"><rect fill="#CDEBA5" height="37.6094" rx="2.5" ry="2.5" style="stroke:#181818;stroke-width:0.5;" width="250.3643" x="962.5" y="158"/><text fill="#000000" font-family="sans-serif" font-size="14" lengthAdjust="spacing" textLength="230.3643" x="972.5" y="182.5332">:Collaboration ResponderPublicacion</text></g><!--entity AbrirPublicaciones--><g class="entity" data-qualified-name="AbrirPublicaciones" data-source-line="13" id="ent0009"><rect fill="#CDEBA5" height="37.6094" rx="2.5" ry="2.5" style="stroke:#181818;stroke-width:0.5;" width="226.2197" x="1247.5" y="158"/><text fill="#000000" font-family="sans-serif" font-size="14" lengthAdjust="spacing" textLength="206.2197" x="1257.5" y="182.5332">:Collaboration AbrirPublicaciones</text></g><!--link EstadoEntrada to DetallePublicacionView--><g class="link" data-entity-1="ent0001" data-entity-2="ent0003" data-link-type="dependency" data-source-line="15" id="lnk10"><path d="M222.2,61 C296.04,61 387.55,61 455.45,61" fill="none" id="EstadoEntrada-to-DetallePublicacionView" style="stroke:#181818;stroke-width:1;"/><polygon fill="#181818" points="460.45,61,451.45,57,455.45,61,451.45,65,460.45,61" style="stroke:#181818;stroke-width:1;stroke-linejoin:miter;stroke-miterlimit:10;"/><text fill="#000000" font-family="sans-serif" font-size="13" lengthAdjust="spacing" textLength="101.1499" x="290.75" y="54.4951">abrirPublicacion()</text></g><!--link DetallePublicacionView to PublicacionController--><g class="link" data-entity-1="ent0003" data-entity-2="ent0004" data-link-type="dependency" data-source-line="17" id="lnk11"><path d="M460.41,77.52 C385.33,91.54 286.5,110 286.5,110 C286.5,110 286.5,128 286.5,128 C286.5,128 313.1072,142.0379 338.9372,155.6579" fill="none" id="DetallePublicacionView-to-PublicacionController" style="stroke:#181818;stroke-width:1;"/><polygon fill="#181818" points="343.36,157.99,337.2646,150.2539,338.9372,155.6579,333.5333,157.3304,343.36,157.99" style="stroke:#181818;stroke-width:1;stroke-linejoin:miter;stroke-miterlimit:10;"/><text fill="#000000" font-family="sans-serif" font-size="13" lengthAdjust="spacing" textLength="129.3525" x="287.5" y="124.4951">obtenerPublicacion(id)</text></g><!--link DetallePublicacionView to PublicacionController--><g class="link" data-entity-1="ent0003" data-entity-2="ent0004" data-link-type="dependency" data-source-line="18" id="lnk12"><path d="M517.2,80.06 C486.21,101.35 439.1317,133.6695 408.0717,154.9995" fill="none" id="DetallePublicacionView-to-PublicacionController-1" style="stroke:#181818;stroke-width:1;"/><polygon fill="#181818" points="403.95,157.83,413.6334,156.0324,408.0717,154.9995,409.1046,149.4377,403.95,157.83" style="stroke:#181818;stroke-width:1;stroke-linejoin:miter;stroke-miterlimit:10;"/><text fill="#000000" font-family="sans-serif" font-size="13" lengthAdjust="spacing" textLength="247.8442" x="470.5" y="124.4951">prepararAccionesDisponibles(investigador)</text></g><!--link PublicacionController to PublicacionRepository--><g class="link" data-entity-1="ent0004" data-entity-2="ent0005" data-link-type="dependency" data-source-line="19" id="lnk13"><path d="M351.41,196.15 C331.87,209.74 308.5,226 308.5,226 C308.5,226 308.5,244 308.5,244 C308.5,244 331.9647,257.7344 355.1847,271.3244" fill="none" id="PublicacionController-to-PublicacionRepository" style="stroke:#181818;stroke-width:1;"/><polygon fill="#181818" points="359.5,273.85,353.753,265.8517,355.1847,271.3244,349.7121,272.7561,359.5,273.85" style="stroke:#181818;stroke-width:1;stroke-linejoin:miter;stroke-miterlimit:10;"/><text fill="#000000" font-family="sans-serif" font-size="13" lengthAdjust="spacing" textLength="93.939" x="309.5" y="240.4951">obtenerPorId(id)</text></g><!--link PublicacionController to PublicacionRepository--><g class="link" data-entity-1="ent0004" data-entity-2="ent0005" data-link-type="dependency" data-source-line="20" id="lnk14"><path d="M388.84,196.15 C397.34,209.74 407.5,226 407.5,226 C407.5,226 407.5,244 407.5,244 C407.5,244 403.4083,255.5465 398.5983,269.1365" fill="none" id="PublicacionController-to-PublicacionRepository-1" style="stroke:#181818;stroke-width:1;"/><polygon fill="#181818" points="396.93,273.85,403.7037,266.7004,398.5983,269.1365,396.1621,264.0311,396.93,273.85" style="stroke:#181818;stroke-width:1;stroke-linejoin:miter;stroke-miterlimit:10;"/><text fill="#000000" font-family="sans-serif" font-size="13" lengthAdjust="spacing" textLength="137.2427" x="408.5" y="240.4951">verificarPermisos(actor)</text></g><!--link PublicacionRepository to Publicacion--><g class="link" data-entity-1="ent0005" data-entity-2="ent0006" data-link-type="association" data-source-line="21" id="lnk15"><path d="M390.5,312.24 C390.5,329.59 390.5,355.52 390.5,372.84" fill="none" id="PublicacionRepository-Publicacion" style="stroke:#181818;stroke-width:1;"/></g><!--link DetallePublicacionView to EstadoSalida--><g class="link" data-entity-1="ent0003" data-entity-2="ent0007" data-link-type="dependency" data-source-line="22" id="lnk16"><path d="M612.16,80.01 C664.09,93.63 726.5,110 726.5,110 C726.5,110 768.744,135.8121 800.724,155.3621" fill="none" id="DetallePublicacionView-to-EstadoSalida" style="stroke:#181818;stroke-width:1;stroke-dasharray:7,7;"/><polygon fill="#181818" points="804.99,157.97,799.3975,149.863,800.724,155.3621,795.2249,156.6886,804.99,157.97" style="stroke:#181818;stroke-width:1;stroke-linejoin:miter;stroke-miterlimit:10;"/><text fill="#000000" font-family="sans-serif" font-size="13" lengthAdjust="spacing" textLength="130.7935" x="755.5" y="124.4951">continuarNavegacion()</text></g><!--link DetallePublicacionView to ResponderPublicacion--><g class="link" data-entity-1="ent0003" data-entity-2="ent0008" data-link-type="dependency" data-source-line="23" id="lnk17"><path d="M626.68,73.38 C730.48,87.57 894.5,110 894.5,110 C894.5,110 972.8892,136.8014 1030.0292,156.3514" fill="none" id="DetallePublicacionView-to-ResponderPublicacion" style="stroke:#181818;stroke-width:1;stroke-dasharray:7,7;"/><polygon fill="#181818" points="1034.76,157.97,1027.5395,151.2719,1030.0292,156.3514,1024.9497,158.8411,1034.76,157.97" style="stroke:#181818;stroke-width:1;stroke-linejoin:miter;stroke-miterlimit:10;"/><text fill="#000000" font-family="sans-serif" font-size="13" lengthAdjust="spacing" textLength="133.6816" x="946.5" y="124.4951">responderPublicacion()</text></g><!--link DetallePublicacionView to AbrirPublicaciones--><g class="link" data-entity-1="ent0003" data-entity-2="ent0009" data-link-type="dependency" data-source-line="24" id="lnk18"><path d="M626.57,69.32 C779.14,82.75 1088.5,110 1088.5,110 C1088.5,110 1200.7811,137.2404 1281.3111,156.7904" fill="none" id="DetallePublicacionView-to-AbrirPublicaciones" style="stroke:#181818;stroke-width:1;stroke-dasharray:7,7;"/><polygon fill="#181818" points="1286.17,157.97,1278.3677,151.9597,1281.3111,156.7904,1276.4804,159.7339,1286.17,157.97" style="stroke:#181818;stroke-width:1;stroke-linejoin:miter;stroke-miterlimit:10;"/><text fill="#000000" font-family="sans-serif" font-size="13" lengthAdjust="spacing" textLength="114.8799" x="1161.5" y="124.4951">abrirPublicaciones()</text></g><?plantuml-src bL9DQy905BplhrZIYnxq85Lg3aAC4OHYHTjUoqlo6XRNtV1sjKZfV-_6Kepvq3QtlCoRp9iPinKg1u8TbqAXFUR8SosFnGjZX8a5bKdaT-4icWP3xlchb-dZ8Wp2nTCoshm5qqMqVWus7WV38sCXrP6o12cm798jPCWX9a6hVIn50edGga1wrM6dw_5FnjrJ-kTeC8xcOpv32r9Y2VqgyACAZeTnEdhW9LIedHBjDgcAdG-2y3ugOzUOQoEifkDjBFkwwSolBoLRDY25SwLfCNGY8TO4jh1dZIRNAiMoFIUUfWz_u0igLgCviTN7Z5q4o7lKcxIOx_DwW8mrOtalTJoDkVXSnnRLnKKTaNPRcTg9SiAYnXGaFyVCH66MY2MQZb07D5PaxZRgiaQ2AlMv3sUDcXRfITs_6Gv8ujtDQOMq4qQR3YIsekMCTqmNTMinez-VN5JBvuaJ8zGUQ0a7p7vZkRBUr2ZVbRy-lSvJxrAz82w7Bli6?></g></svg>