<svg xmlns="http://www.w3.org/2000/svg" xmlns:xlink="http://www.w3.org/1999/xlink" contentStyleType="text/css" data-diagram-type="DESCRIPTION" height="479px" preserveAspectRatio="none" style="width:1313px;height:479px;background:#FFFFFF;" version="1.1" viewBox="0 0 1313 479" width="1313px" zoomAndPan="magnify"><?plantuml 1.2026.6?><defs/><g><!--cluster abrirPublicacion--><g class="cluster" data-qualified-name="abrirPublicacion" data-source-line="4" id="ent0002"><path d="M241,6 L361.0205,6 A3.75,3.75 0 0 1 363.5205,8.5 L370.5205,29.6094 L1052,29.6094 A2.5,2.5 0 0 1 1054.5,32.1094 L1054.5,461.5 A2.5,2.5 0 0 1 1052,464 L241,464 A2.5,2.5 0 0 1 238.5,461.5 L238.5,8.5 A2.5,2.5 0 0 1 241,6" fill="none" style="stroke:#000000;stroke-width:1.5;"/><line style="stroke:#000000;stroke-width:1.5;" x1="238.5" x2="370.5205" y1="29.6094" y2="29.6094"/><text fill="#000000" font-family="sans-serif" font-size="14" font-weight="700" lengthAdjust="spacing" textLength="119.0205" x="242.5" y="22.5332">abrirPublicacion()</text></g><!--entity View--><g class="entity" data-qualified-name="abrirPublicacion.View" data-source-line="5" id="ent0003"><rect fill="#629EF9" height="37.6094" rx="2.5" ry="2.5" style="stroke:#181818;stroke-width:0.5;" width="149.9512" x="545.5" y="42"/><text fill="#000000" font-family="sans-serif" font-size="14" lengthAdjust="spacing" textLength="129.9512" x="555.5" y="66.5332">abrirPublicacionView</text></g><!--entity PublicacionController--><g class="entity" data-qualified-name="abrirPublicacion.PublicacionController" data-source-line="6" id="ent0004"><rect fill="#B5BD68" height="37.6094" rx="2.5" ry="2.5" style="stroke:#181818;stroke-width:0.5;" width="152.2891" x="544.5" y="158"/><text fill="#000000" font-family="sans-serif" font-size="14" lengthAdjust="spacing" textLength="132.2891" x="554.5" y="182.5332">PublicacionController</text></g><!--entity PoliticaPublicacion--><g class="entity" data-qualified-name="abrirPublicacion.PoliticaPublicacion" data-source-line="7" id="ent0005"><rect fill="#B5BD68" height="37.6094" rx="2.5" ry="2.5" style="stroke:#181818;stroke-width:0.5;" width="136.7305" x="259" y="292.5"/><text fill="#000000" font-family="sans-serif" font-size="14" lengthAdjust="spacing" textLength="116.7305" x="269" y="317.0332">PoliticaPublicacion</text></g><!--entity PublicacionRepository--><g class="entity" data-qualified-name="abrirPublicacion.PublicacionRepository" data-source-line="8" id="ent0006"><rect fill="#F2AC4E" height="37.6094" rx="2.5" ry="2.5" style="stroke:#181818;stroke-width:0.5;" width="158.5166" x="435" y="292.5"/><text fill="#000000" font-family="sans-serif" font-size="14" lengthAdjust="spacing" textLength="138.5166" x="445" y="317.0332">PublicacionRepository</text></g><!--entity Publicacion--><g class="entity" data-qualified-name="abrirPublicacion.Publicacion" data-source-line="9" id="ent0007"><rect fill="#F2AC4E" height="37.6094" rx="2.5" ry="2.5" style="stroke:#181818;stroke-width:0.5;" width="91.5996" x="468.5" y="410"/><text fill="#000000" font-family="sans-serif" font-size="14" lengthAdjust="spacing" textLength="71.5996" x="478.5" y="434.5332">Publicacion</text></g><!--entity RespuestaRepository--><g class="entity" data-qualified-name="abrirPublicacion.RespuestaRepository" data-source-line="10" id="ent0008"><rect fill="#F2AC4E" height="37.6094" rx="2.5" ry="2.5" style="stroke:#181818;stroke-width:0.5;" width="153.8477" x="629.5" y="292.5"/><text fill="#000000" font-family="sans-serif" font-size="14" lengthAdjust="spacing" textLength="133.8477" x="639.5" y="317.0332">RespuestaRepository</text></g><!--entity ArchivoPublicacionRepository--><g class="entity" data-qualified-name="abrirPublicacion.ArchivoPublicacionRepository" data-source-line="11" id="ent0009"><rect fill="#F2AC4E" height="37.6094" rx="2.5" ry="2.5" style="stroke:#181818;stroke-width:0.5;" width="205.1992" x="819" y="292.5"/><text fill="#000000" font-family="sans-serif" font-size="14" lengthAdjust="spacing" textLength="185.1992" x="829" y="317.0332">ArchivoPublicacionRepository</text></g><!--entity Respuesta--><g class="entity" data-qualified-name="abrirPublicacion.Respuesta" data-source-line="12" id="ent0010"><rect fill="#F2AC4E" height="37.6094" rx="2.5" ry="2.5" style="stroke:#181818;stroke-width:0.5;" width="86.9307" x="663" y="410"/><text fill="#000000" font-family="sans-serif" font-size="14" lengthAdjust="spacing" textLength="66.9307" x="673" y="434.5332">Respuesta</text></g><!--entity ArchivoPublicacion--><g class="entity" data-qualified-name="abrirPublicacion.ArchivoPublicacion" data-source-line="13" id="ent0011"><rect fill="#F2AC4E" height="37.6094" rx="2.5" ry="2.5" style="stroke:#181818;stroke-width:0.5;" width="138.2822" x="852.5" y="410"/><text fill="#000000" font-family="sans-serif" font-size="14" lengthAdjust="spacing" textLength="118.2822" x="862.5" y="434.5332">ArchivoPublicacion</text></g><!--entity EstadoEntrada--><g class="entity" data-qualified-name="EstadoEntrada" data-source-line="3" id="ent0001"><rect fill="#CDEBA5" height="37.6094" rx="2.5" ry="2.5" style="stroke:#181818;stroke-width:0.5;" width="214.5029" x="7" y="42"/><text fill="#000000" font-family="sans-serif" font-size="14" lengthAdjust="spacing" textLength="194.5029" x="17" y="66.5332">:PUBLICACIONES_ABIERTAS</text></g><!--entity EstadoSalida--><g class="entity" data-qualified-name="EstadoSalida" data-source-line="15" id="ent0012"><rect fill="#CDEBA5" height="37.6094" rx="2.5" ry="2.5" style="stroke:#181818;stroke-width:0.5;" width="186.4893" x="1070.5" y="158"/><text fill="#000000" font-family="sans-serif" font-size="14" lengthAdjust="spacing" textLength="166.4893" x="1080.5" y="182.5332">:PUBLICACION_ABIERTA</text></g><g class="entity" data-qualified-name="GMN23" data-source-line="30" id="ent0024"><path d="M1070.5,274 L1070.5,349.4063 L1298.1226,349.4063 L1298.1226,284 L1288.1226,274 L1070.5,274" fill="#FEFFDD" style="stroke:#181818;stroke-width:0.5;"/><path d="M1288.1226,274 L1288.1226,284 L1298.1226,284 L1288.1226,274" fill="#FEFFDD" style="stroke:#181818;stroke-width:1;"/><text fill="#000000" font-family="sans-serif" font-size="13" lengthAdjust="spacing" textLength="134.4243" x="1076.5" y="292.4951">Responsabilidad unica:</text><text fill="#000000" font-family="sans-serif" font-size="13" lengthAdjust="spacing" textLength="191.4707" x="1076.5" y="308.8467">autoriza sin persistir ni presentar.</text><text fill="#000000" font-family="sans-serif" font-size="13" lengthAdjust="spacing" textLength="206.6226" x="1076.5" y="325.1982">Permite ampliar reglas sin modificar</text><text fill="#000000" font-family="sans-serif" font-size="13" lengthAdjust="spacing" textLength="185.7324" x="1076.5" y="341.5498">la coordinacion del caso de uso.</text></g><!--link EstadoEntrada to View--><g class="link" data-entity-1="ent0001" data-entity-2="ent0003" data-link-type="dependency" data-source-line="17" id="lnk13"><path d="M222.12,61 C319.33,61 454.88,61 540.44,61" fill="none" id="EstadoEntrada-to-View" style="stroke:#181818;stroke-width:1;"/><polygon fill="#181818" points="545.44,61,536.44,57,540.44,61,536.44,65,545.44,61" style="stroke:#181818;stroke-width:1;stroke-linejoin:miter;stroke-miterlimit:10;"/><text fill="#000000" font-family="sans-serif" font-size="13" lengthAdjust="spacing" textLength="101.1499" x="333.25" y="54.4951">abrirPublicacion()</text></g><!--link View to PublicacionController--><g class="link" data-entity-1="ent0003" data-entity-2="ent0004" data-link-type="dependency" data-source-line="18" id="lnk14"><path d="M620.5,80.06 C620.5,101.28 620.5,131.3 620.5,152.64" fill="none" id="View-to-PublicacionController" style="stroke:#181818;stroke-width:1;"/><polygon fill="#181818" points="620.5,157.64,624.5,148.64,620.5,152.64,616.5,148.64,620.5,157.64" style="stroke:#181818;stroke-width:1;stroke-linejoin:miter;stroke-miterlimit:10;"/><text fill="#000000" font-family="sans-serif" font-size="13" lengthAdjust="spacing" textLength="184.2407" x="621.5" y="124.4951">abrirPublicacion(solicitud, actor)</text></g><!--link PublicacionController to PublicacionRepository--><g class="link" data-entity-1="ent0004" data-entity-2="ent0006" data-link-type="dependency" data-source-line="19" id="lnk15"><path d="M585.98,196.01 C559.88,209.63 528.5,226 528.5,226 C528.5,226 522.4778,262.3773 518.3578,287.2273" fill="none" id="PublicacionController-to-PublicacionRepository" style="stroke:#181818;stroke-width:1;"/><polygon fill="#181818" points="517.54,292.16,522.9582,283.9355,518.3578,287.2273,515.0659,282.627,517.54,292.16" style="stroke:#181818;stroke-width:1;stroke-linejoin:miter;stroke-miterlimit:10;"/><text fill="#000000" font-family="sans-serif" font-size="13" lengthAdjust="spacing" textLength="129.3398" x="529.5" y="240.4951">obtenerActivaPorId(id)</text></g><!--link PublicacionController to PoliticaPublicacion--><g class="link" data-entity-1="ent0004" data-entity-2="ent0005" data-link-type="dependency" data-source-line="20" id="lnk16"><path d="M544.12,189.87 C452.61,204.08 311.5,226 311.5,226 C311.5,226 311.5,244 311.5,244 C311.5,244 317.2198,267.7789 321.9598,287.4689" fill="none" id="PublicacionController-to-PoliticaPublicacion" style="stroke:#181818;stroke-width:1;"/><polygon fill="#181818" points="323.13,292.33,324.9125,282.6438,321.9598,287.4689,317.1347,284.5161,323.13,292.33" style="stroke:#181818;stroke-width:1;stroke-linejoin:miter;stroke-miterlimit:10;"/><text fill="#000000" font-family="sans-serif" font-size="13" lengthAdjust="spacing" textLength="204.4707" x="312.5" y="240.4951">permitirConsulta(actor, publicacion)</text></g><!--link PublicacionRepository to Publicacion--><g class="link" data-entity-1="ent0006" data-entity-2="ent0007" data-link-type="association" data-source-line="22" id="lnk17"><path d="M514.5,330.55 C514.5,352.12 514.5,388.02 514.5,409.7" fill="none" id="PublicacionRepository-Publicacion" style="stroke:#181818;stroke-width:1;"/></g><!--link PublicacionController to RespuestaRepository--><g class="link" data-entity-1="ent0004" data-entity-2="ent0008" data-link-type="dependency" data-source-line="23" id="lnk18"><path d="M638.27,196.15 C651.58,209.74 667.5,226 667.5,226 C667.5,226 684.4746,262.7703 695.9446,287.6203" fill="none" id="PublicacionController-to-RespuestaRepository" style="stroke:#181818;stroke-width:1;"/><polygon fill="#181818" points="698.04,292.16,697.9001,282.3121,695.9446,287.6203,690.6365,285.6648,698.04,292.16" style="stroke:#181818;stroke-width:1;stroke-linejoin:miter;stroke-miterlimit:10;"/><text fill="#000000" font-family="sans-serif" font-size="13" lengthAdjust="spacing" textLength="144.5107" x="675.5" y="240.4951">buscarPorPublicacion(id)</text></g><!--link PublicacionController to ArchivoPublicacionRepository--><g class="link" data-entity-1="ent0004" data-entity-2="ent0009" data-link-type="dependency" data-source-line="24" id="lnk19"><path d="M696.77,195.6 C756.13,209.3 828.5,226 828.5,226 C828.5,226 870.2694,263.9476 897.6194,288.7976" fill="none" id="PublicacionController-to-ArchivoPublicacionRepository" style="stroke:#181818;stroke-width:1;"/><polygon fill="#181818" points="901.32,292.16,897.3488,283.1473,897.6194,288.7976,891.969,289.0683,901.32,292.16" style="stroke:#181818;stroke-width:1;stroke-linejoin:miter;stroke-miterlimit:10;"/><text fill="#000000" font-family="sans-serif" font-size="13" lengthAdjust="spacing" textLength="144.5107" x="846.5" y="240.4951">buscarPorPublicacion(id)</text></g><!--link RespuestaRepository to Respuesta--><g class="link" data-entity-1="ent0008" data-entity-2="ent0010" data-link-type="association" data-source-line="25" id="lnk20"><path d="M706.5,330.55 C706.5,352.12 706.5,388.02 706.5,409.7" fill="none" id="RespuestaRepository-Respuesta" style="stroke:#181818;stroke-width:1;"/></g><!--link ArchivoPublicacionRepository to ArchivoPublicacion--><g class="link" data-entity-1="ent0009" data-entity-2="ent0011" data-link-type="association" data-source-line="26" id="lnk21"><path d="M921.5,330.55 C921.5,352.12 921.5,388.02 921.5,409.7" fill="none" id="ArchivoPublicacionRepository-ArchivoPublicacion" style="stroke:#181818;stroke-width:1;"/></g><!--link View to EstadoSalida--><g class="link" data-entity-1="ent0003" data-entity-2="ent0012" data-link-type="dependency" data-source-line="27" id="lnk22"><path d="M695.72,77.79 C795.73,98.79 967.2066,134.793 1072.4566,156.883" fill="none" id="View-to-EstadoSalida" style="stroke:#181818;stroke-width:1;stroke-dasharray:7,7;"/><polygon fill="#181818" points="1077.35,157.91,1069.3635,152.1466,1072.4566,156.883,1067.7203,159.9761,1077.35,157.91" style="stroke:#181818;stroke-width:1;stroke-linejoin:miter;stroke-miterlimit:10;"/><text fill="#000000" font-family="sans-serif" font-size="13" lengthAdjust="spacing" textLength="130.7935" x="925.5" y="124.4951">continuarNavegacion()</text></g><!--link PoliticaPublicacion to GMN23--><g class="link" data-entity-1="ent0005" data-entity-2="ent0024" data-link-type="association" data-source-line="30" id="lnk25"><path d="M354.35,292.39 C386.19,269.73 435,235 435,235 C435,235 1037,235 1037,235 C1037,235 1074.74,254.58 1112.05,273.92" fill="none" id="PoliticaPublicacion-GMN23" style="stroke:#181818;stroke-width:1;stroke-dasharray:7,7;"/></g><?plantuml-src bLJ1RXen4BtxAqRq0bBW43LHiuT8otOZ8LKfWhRNQjPsDgCOUsLxgMZLV--OA6M11TezUUqtRvxzdXrUo3ReSGM6h8wRHaFZp2Rz2E6rZ6Xhe-5TyR6SvZSmoEPVfvzcHLxCFZ-Mo-_vT5OklkJB0M20CaHKhhJHeqBHe7p1MWDMdloyhGn9bEHiGWuE9uUZ0VmIm5-dv-trNVbmTmp-Hlh7jc4Q71PLDvMw_G0TUE5OaJD6-rDOPoWok5DpY7oupeltPPTreHiNA3g_kOmzWLZeqBIQ3-qYL-xbCwtT_xJ_I_xFbEBt9SFVxEwulKH3RBROynx6Vdo_TIU3OwT5Me2nOaYlIpqrWHsI55jr1IXvqoFHMmdZVSxT8MNWggYjzhcCjCQvypCr97MMvpWL6JJQhtZMCpQq9k9mA-SAcXre94Il12RToyJfpZsvoA1gWqJFmhldSdu7vr9pXh2dVTA-2zGvteJiYTRMyidaVYyr6KWMJBP5_uXhNR_bGrWNDNYgdoEufzxhcSIm1LXH8bBGMbx91BQiWNuY1BB9gq21pG9Bq7WTj8te9sA-zP0VfbLZ23tVZTfmdbF9oYbwOYOl3B8uvnNPrqTBQGCIW-C1jC5DXBOAaiu_?></g></svg>