<?xml version="1.0" encoding="us-ascii" standalone="no"?><svg xmlns="http://www.w3.org/2000/svg" xmlns:xlink="http://www.w3.org/1999/xlink" contentStyleType="text/css" height="1975px" preserveAspectRatio="none" style="width:2617px;height:1975px;background:#FFFFFF;" version="1.1" viewBox="0 0 2617 1975" width="2617px" zoomAndPan="magnify"><defs/><g><text fill="#000000" font-family="sans-serif" font-size="14" font-weight="bold" lengthAdjust="spacing" textLength="403" x="1108" y="29.5332">Diagrama de secuencia - Agregar investigador a proyecto</text><rect fill="#FFFFFF" height="1729.7109" style="stroke:#181818;stroke-width:1.0;" width="10" x="318.5" y="153.5703"/><rect fill="#FFFFFF" height="575.6797" style="stroke:#181818;stroke-width:1.0;" width="10" x="666.5" y="200.2734"/><rect fill="#FFFFFF" height="584.6797" style="stroke:#181818;stroke-width:1.0;" width="10" x="666.5" y="985.25"/><rect fill="#FFFFFF" height="437.9219" style="stroke:#181818;stroke-width:1.0;" width="10" x="1005" y="291.3281"/><rect fill="#FFFFFF" height="463.2734" style="stroke:#181818;stroke-width:1.0;" width="10" x="1005" y="1076.3047"/><rect fill="none" height="1054.9766" style="stroke:#000000;stroke-width:1.5;" width="2600" x="10" y="821.3047"/><rect fill="none" height="370.4063" style="stroke:#000000;stroke-width:1.5;" width="2580" x="20" y="1498.875"/><line style="stroke:#181818;stroke-width:0.5;stroke-dasharray:5.0,5.0;" x1="72" x2="72" y1="121.2188" y2="1893.2813"/><line style="stroke:#181818;stroke-width:0.5;stroke-dasharray:5.0,5.0;" x1="323.5" x2="323.5" y1="121.2188" y2="1893.2813"/><line style="stroke:#181818;stroke-width:0.5;stroke-dasharray:5.0,5.0;" x1="671.5" x2="671.5" y1="121.2188" y2="1893.2813"/><line style="stroke:#181818;stroke-width:0.5;stroke-dasharray:5.0,5.0;" x1="889.5" x2="889.5" y1="121.2188" y2="1893.2813"/><line style="stroke:#181818;stroke-width:0.5;stroke-dasharray:5.0,5.0;" x1="1009.5" x2="1009.5" y1="121.2188" y2="1893.2813"/><line style="stroke:#181818;stroke-width:0.5;stroke-dasharray:5.0,5.0;" x1="1363" x2="1363" y1="121.2188" y2="1893.2813"/><line style="stroke:#181818;stroke-width:0.5;stroke-dasharray:5.0,5.0;" x1="1521" x2="1521" y1="121.2188" y2="1893.2813"/><line style="stroke:#181818;stroke-width:0.5;stroke-dasharray:5.0,5.0;" x1="1696" x2="1696" y1="121.2188" y2="1893.2813"/><line style="stroke:#181818;stroke-width:0.5;stroke-dasharray:5.0,5.0;" x1="2540" x2="2540" y1="121.2188" y2="1893.2813"/><text fill="#000000" font-family="sans-serif" font-size="14" lengthAdjust="spacing" textLength="79" x="30" y="118.1426">Coordinador</text><ellipse cx="72.5" cy="52.1094" fill="#E2E2F0" rx="8" ry="8" style="stroke:#181818;stroke-width:0.5;"/><path d="M72.5,60.1094 L72.5,87.1094 M59.5,68.1094 L85.5,68.1094 M72.5,87.1094 L59.5,102.1094 M72.5,87.1094 L85.5,102.1094 " fill="none" style="stroke:#181818;stroke-width:0.5;"/><text fill="#000000" font-family="sans-serif" font-size="14" lengthAdjust="spacing" textLength="79" x="30" y="1906.8145">Coordinador</text><ellipse cx="72.5" cy="1918.3906" fill="#E2E2F0" rx="8" ry="8" style="stroke:#181818;stroke-width:0.5;"/><path d="M72.5,1926.3906 L72.5,1953.3906 M59.5,1934.3906 L85.5,1934.3906 M72.5,1953.3906 L59.5,1968.3906 M72.5,1953.3906 L85.5,1968.3906 " fill="none" style="stroke:#181818;stroke-width:0.5;"/><rect fill="#E2E2F0" height="49.2188" rx="2.5" ry="2.5" style="stroke:#181818;stroke-width:0.5;" width="182" x="232.5" y="71"/><text fill="#000000" font-family="sans-serif" font-size="14" lengthAdjust="spacing" textLength="168" x="239.5" y="92.5332">AgregarInvestigadorDialog</text><text fill="#000000" font-family="sans-serif" font-size="14" lengthAdjust="spacing" textLength="47" x="300" y="110.1426">(React)</text><rect fill="#E2E2F0" height="49.2188" rx="2.5" ry="2.5" style="stroke:#181818;stroke-width:0.5;" width="182" x="232.5" y="1892.2813"/><text fill="#000000" font-family="sans-serif" font-size="14" lengthAdjust="spacing" textLength="168" x="239.5" y="1913.8145">AgregarInvestigadorDialog</text><text fill="#000000" font-family="sans-serif" font-size="14" lengthAdjust="spacing" textLength="47" x="300" y="1931.4238">(React)</text><rect fill="#E2E2F0" height="49.2188" rx="2.5" ry="2.5" style="stroke:#181818;stroke-width:0.5;" width="132" x="605.5" y="71"/><text fill="#000000" font-family="sans-serif" font-size="14" lengthAdjust="spacing" textLength="118" x="612.5" y="92.5332">ProyectoController</text><text fill="#000000" font-family="sans-serif" font-size="14" lengthAdjust="spacing" textLength="84" x="629.5" y="110.1426">(Spring Boot)</text><rect fill="#E2E2F0" height="49.2188" rx="2.5" ry="2.5" style="stroke:#181818;stroke-width:0.5;" width="132" x="605.5" y="1892.2813"/><text fill="#000000" font-family="sans-serif" font-size="14" lengthAdjust="spacing" textLength="118" x="612.5" y="1913.8145">ProyectoController</text><text fill="#000000" font-family="sans-serif" font-size="14" lengthAdjust="spacing" textLength="84" x="629.5" y="1931.4238">(Spring Boot)</text><rect fill="#E2E2F0" height="31.6094" rx="2.5" ry="2.5" style="stroke:#181818;stroke-width:0.5;" width="104" x="837.5" y="88.6094"/><text fill="#000000" font-family="sans-serif" font-size="14" lengthAdjust="spacing" textLength="90" x="844.5" y="110.1426">SesionService</text><rect fill="#E2E2F0" height="31.6094" rx="2.5" ry="2.5" style="stroke:#181818;stroke-width:0.5;" width="104" x="837.5" y="1892.2813"/><text fill="#000000" font-family="sans-serif" font-size="14" lengthAdjust="spacing" textLength="90" x="844.5" y="1913.8145">SesionService</text><rect fill="#E2E2F0" height="31.6094" rx="2.5" ry="2.5" style="stroke:#181818;stroke-width:0.5;" width="117" x="951.5" y="88.6094"/><text fill="#000000" font-family="sans-serif" font-size="14" lengthAdjust="spacing" textLength="103" x="958.5" y="110.1426">ProyectoService</text><rect fill="#E2E2F0" height="31.6094" rx="2.5" ry="2.5" style="stroke:#181818;stroke-width:0.5;" width="117" x="951.5" y="1892.2813"/><text fill="#000000" font-family="sans-serif" font-size="14" lengthAdjust="spacing" textLength="103" x="958.5" y="1913.8145">ProyectoService</text><rect fill="#E2E2F0" height="31.6094" rx="2.5" ry="2.5" style="stroke:#181818;stroke-width:0.5;" width="138" x="1294" y="88.6094"/><text fill="#000000" font-family="sans-serif" font-size="14" lengthAdjust="spacing" textLength="124" x="1301" y="110.1426">ProyectoRepository</text><rect fill="#E2E2F0" height="31.6094" rx="2.5" ry="2.5" style="stroke:#181818;stroke-width:0.5;" width="138" x="1294" y="1892.2813"/><text fill="#000000" font-family="sans-serif" font-size="14" lengthAdjust="spacing" textLength="124" x="1301" y="1913.8145">ProyectoRepository</text><rect fill="#E2E2F0" height="31.6094" rx="2.5" ry="2.5" style="stroke:#181818;stroke-width:0.5;" width="159" x="1442" y="88.6094"/><text fill="#000000" font-family="sans-serif" font-size="14" lengthAdjust="spacing" textLength="145" x="1449" y="110.1426">InvestigadorRepository</text><rect fill="#E2E2F0" height="31.6094" rx="2.5" ry="2.5" style="stroke:#181818;stroke-width:0.5;" width="159" x="1442" y="1892.2813"/><text fill="#000000" font-family="sans-serif" font-size="14" lengthAdjust="spacing" textLength="145" x="1449" y="1913.8145">InvestigadorRepository</text><rect fill="#E2E2F0" height="31.6094" rx="2.5" ry="2.5" style="stroke:#181818;stroke-width:0.5;" width="170" x="1611" y="88.6094"/><text fill="#000000" font-family="sans-serif" font-size="14" lengthAdjust="spacing" textLength="156" x="1618" y="110.1426">CargaTrabajoRepository</text><rect fill="#E2E2F0" height="31.6094" rx="2.5" ry="2.5" style="stroke:#181818;stroke-width:0.5;" width="170" x="1611" y="1892.2813"/><text fill="#000000" font-family="sans-serif" font-size="14" lengthAdjust="spacing" textLength="156" x="1618" y="1913.8145">CargaTrabajoRepository</text><text fill="#000000" font-family="sans-serif" font-size="14" lengthAdjust="spacing" textLength="93" x="2491" y="118.1426">Base de Datos</text><path d="M2522.5,67.6094 C2522.5,57.6094 2540.5,57.6094 2540.5,57.6094 C2540.5,57.6094 2558.5,57.6094 2558.5,67.6094 L2558.5,93.6094 C2558.5,103.6094 2540.5,103.6094 2540.5,103.6094 C2540.5,103.6094 2522.5,103.6094 2522.5,93.6094 L2522.5,67.6094 " fill="#E2E2F0" style="stroke:#181818;stroke-width:1.5;"/><path d="M2522.5,67.6094 C2522.5,77.6094 2540.5,77.6094 2540.5,77.6094 C2540.5,77.6094 2558.5,77.6094 2558.5,67.6094 " fill="none" style="stroke:#181818;stroke-width:1.5;"/><text fill="#000000" font-family="sans-serif" font-size="14" lengthAdjust="spacing" textLength="93" x="2491" y="1906.8145">Base de Datos</text><path d="M2522.5,1919.8906 C2522.5,1909.8906 2540.5,1909.8906 2540.5,1909.8906 C2540.5,1909.8906 2558.5,1909.8906 2558.5,1919.8906 L2558.5,1945.8906 C2558.5,1955.8906 2540.5,1955.8906 2540.5,1955.8906 C2540.5,1955.8906 2522.5,1955.8906 2522.5,1945.8906 L2522.5,1919.8906 " fill="#E2E2F0" style="stroke:#181818;stroke-width:1.5;"/><path d="M2522.5,1919.8906 C2522.5,1929.8906 2540.5,1929.8906 2540.5,1929.8906 C2540.5,1929.8906 2558.5,1929.8906 2558.5,1919.8906 " fill="none" style="stroke:#181818;stroke-width:1.5;"/><rect fill="#FFFFFF" height="1729.7109" style="stroke:#181818;stroke-width:1.0;" width="10" x="318.5" y="153.5703"/><rect fill="#FFFFFF" height="575.6797" style="stroke:#181818;stroke-width:1.0;" width="10" x="666.5" y="200.2734"/><rect fill="#FFFFFF" height="584.6797" style="stroke:#181818;stroke-width:1.0;" width="10" x="666.5" y="985.25"/><rect fill="#FFFFFF" height="437.9219" style="stroke:#181818;stroke-width:1.0;" width="10" x="1005" y="291.3281"/><rect fill="#FFFFFF" height="463.2734" style="stroke:#181818;stroke-width:1.0;" width="10" x="1005" y="1076.3047"/><polygon fill="#181818" points="306.5,149.5703,316.5,153.5703,306.5,157.5703,310.5,153.5703" style="stroke:#181818;stroke-width:1.0;"/><line style="stroke:#181818;stroke-width:1.0;" x1="72.5" x2="312.5" y1="153.5703" y2="153.5703"/><text fill="#000000" font-family="sans-serif" font-size="13" lengthAdjust="spacing" textLength="162" x="79.5" y="148.7139">Solicita agregar investigador</text><polygon fill="#181818" points="654.5,196.2734,664.5,200.2734,654.5,204.2734,658.5,200.2734" style="stroke:#181818;stroke-width:1.0;"/><line style="stroke:#181818;stroke-width:1.0;" x1="328.5" x2="660.5" y1="200.2734" y2="200.2734"/><text fill="#000000" font-family="sans-serif" font-size="13" lengthAdjust="spacing" textLength="201" x="335.5" y="179.0654">GET /api/proyectos/{id}/candidatos</text><text fill="#000000" font-family="sans-serif" font-size="13" lengthAdjust="spacing" textLength="100" x="335.5" y="195.417">Cookie de sesion</text><polygon fill="#181818" points="877.5,226.625,887.5,230.625,877.5,234.625,881.5,230.625" style="stroke:#181818;stroke-width:1.0;"/><line style="stroke:#181818;stroke-width:1.0;" x1="676.5" x2="883.5" y1="230.625" y2="230.625"/><text fill="#000000" font-family="sans-serif" font-size="13" lengthAdjust="spacing" textLength="189" x="683.5" y="225.7686">exigirCoordinador(authentication)</text><polygon fill="#181818" points="687.5,256.9766,677.5,260.9766,687.5,264.9766,683.5,260.9766" style="stroke:#181818;stroke-width:1.0;"/><line style="stroke:#181818;stroke-width:1.0;stroke-dasharray:2.0,2.0;" x1="681.5" x2="888.5" y1="260.9766" y2="260.9766"/><text fill="#000000" font-family="sans-serif" font-size="13" lengthAdjust="spacing" textLength="140" x="693.5" y="256.1201">Coordinador autenticado</text><polygon fill="#181818" points="993,287.3281,1003,291.3281,993,295.3281,997,291.3281" style="stroke:#181818;stroke-width:1.0;"/><line style="stroke:#181818;stroke-width:1.0;" x1="676.5" x2="999" y1="291.3281" y2="291.3281"/><text fill="#000000" font-family="sans-serif" font-size="13" lengthAdjust="spacing" textLength="126" x="683.5" y="286.4717">obtenerCandidatos(id)</text><polygon fill="#181818" points="1351,317.6797,1361,321.6797,1351,325.6797,1355,321.6797" style="stroke:#181818;stroke-width:1.0;"/><line style="stroke:#181818;stroke-width:1.0;" x1="1015" x2="1357" y1="321.6797" y2="321.6797"/><text fill="#000000" font-family="sans-serif" font-size="13" lengthAdjust="spacing" textLength="126" x="1022" y="316.8232">obtenerActivoPorId(id)</text><polygon fill="#181818" points="2528.5,348.0313,2538.5,352.0313,2528.5,356.0313,2532.5,352.0313" style="stroke:#181818;stroke-width:1.0;"/><line style="stroke:#181818;stroke-width:1.0;" x1="1363" x2="2534.5" y1="352.0313" y2="352.0313"/><text fill="#000000" font-family="sans-serif" font-size="13" lengthAdjust="spacing" textLength="384" x="1370" y="347.1748">SELECT * FROM proyectos WHERE id = ? AND archivado = false</text><polygon fill="#181818" points="1374,378.3828,1364,382.3828,1374,386.3828,1370,382.3828" style="stroke:#181818;stroke-width:1.0;"/><line style="stroke:#181818;stroke-width:1.0;stroke-dasharray:2.0,2.0;" x1="1368" x2="2539.5" y1="382.3828" y2="382.3828"/><text fill="#000000" font-family="sans-serif" font-size="13" lengthAdjust="spacing" textLength="150" x="1380" y="377.5264">Resultado de persistencia</text><polygon fill="#181818" points="1026,408.7344,1016,412.7344,1026,416.7344,1022,412.7344" style="stroke:#181818;stroke-width:1.0;"/><line style="stroke:#181818;stroke-width:1.0;stroke-dasharray:2.0,2.0;" x1="1020" x2="1362" y1="412.7344" y2="412.7344"/><text fill="#000000" font-family="sans-serif" font-size="13" lengthAdjust="spacing" textLength="52" x="1032" y="407.8779">Proyecto</text><polygon fill="#181818" points="1509.5,439.0859,1519.5,443.0859,1509.5,447.0859,1513.5,443.0859" style="stroke:#181818;stroke-width:1.0;"/><line style="stroke:#181818;stroke-width:1.0;" x1="1015" x2="1515.5" y1="443.0859" y2="443.0859"/><text fill="#000000" font-family="sans-serif" font-size="13" lengthAdjust="spacing" textLength="138" x="1022" y="438.2295">obtenerNoAsociados(id)</text><polygon fill="#181818" points="2528.5,469.4375,2538.5,473.4375,2528.5,477.4375,2532.5,473.4375" style="stroke:#181818;stroke-width:1.0;"/><line style="stroke:#181818;stroke-width:1.0;" x1="1521.5" x2="2534.5" y1="473.4375" y2="473.4375"/><text fill="#000000" font-family="sans-serif" font-size="13" lengthAdjust="spacing" textLength="995" x="1528.5" y="468.5811">SELECT * FROM usuarios WHERE rol = 'INVESTIGADOR' AND activo = true AND id NOT IN (SELECT usuario_id FROM proyecto_investigadores WHERE proyecto_id = ?)</text><polygon fill="#181818" points="1532.5,499.7891,1522.5,503.7891,1532.5,507.7891,1528.5,503.7891" style="stroke:#181818;stroke-width:1.0;"/><line style="stroke:#181818;stroke-width:1.0;stroke-dasharray:2.0,2.0;" x1="1526.5" x2="2539.5" y1="503.7891" y2="503.7891"/><text fill="#000000" font-family="sans-serif" font-size="13" lengthAdjust="spacing" textLength="150" x="1538.5" y="498.9326">Resultado de persistencia</text><polygon fill="#181818" points="1026,530.1406,1016,534.1406,1026,538.1406,1022,534.1406" style="stroke:#181818;stroke-width:1.0;"/><line style="stroke:#181818;stroke-width:1.0;stroke-dasharray:2.0,2.0;" x1="1020" x2="1520.5" y1="534.1406" y2="534.1406"/><text fill="#000000" font-family="sans-serif" font-size="13" lengthAdjust="spacing" textLength="65" x="1032" y="529.2842">Candidatos</text><polygon fill="#181818" points="1684,560.4922,1694,564.4922,1684,568.4922,1688,564.4922" style="stroke:#181818;stroke-width:1.0;"/><line style="stroke:#181818;stroke-width:1.0;" x1="1015" x2="1690" y1="564.4922" y2="564.4922"/><text fill="#000000" font-family="sans-serif" font-size="13" lengthAdjust="spacing" textLength="155" x="1022" y="559.6357">obtenerCargas(candidatos)</text><polygon fill="#181818" points="2528.5,590.8438,2538.5,594.8438,2528.5,598.8438,2532.5,594.8438" style="stroke:#181818;stroke-width:1.0;"/><line style="stroke:#181818;stroke-width:1.0;" x1="1696" x2="2534.5" y1="594.8438" y2="594.8438"/><text fill="#000000" font-family="sans-serif" font-size="13" lengthAdjust="spacing" textLength="341" x="1703" y="589.9873">SELECT * FROM cargas_trabajo WHERE usuario_id IN (?)</text><polygon fill="#181818" points="1707,621.1953,1697,625.1953,1707,629.1953,1703,625.1953" style="stroke:#181818;stroke-width:1.0;"/><line style="stroke:#181818;stroke-width:1.0;stroke-dasharray:2.0,2.0;" x1="1701" x2="2539.5" y1="625.1953" y2="625.1953"/><text fill="#000000" font-family="sans-serif" font-size="13" lengthAdjust="spacing" textLength="150" x="1713" y="620.3389">Resultado de persistencia</text><polygon fill="#181818" points="1026,651.5469,1016,655.5469,1026,659.5469,1022,655.5469" style="stroke:#181818;stroke-width:1.0;"/><line style="stroke:#181818;stroke-width:1.0;stroke-dasharray:2.0,2.0;" x1="1020" x2="1695" y1="655.5469" y2="655.5469"/><text fill="#000000" font-family="sans-serif" font-size="13" lengthAdjust="spacing" textLength="134" x="1032" y="650.6904">Cargas y disponibilidad</text><line style="stroke:#181818;stroke-width:1.0;" x1="1015" x2="1057" y1="685.8984" y2="685.8984"/><line style="stroke:#181818;stroke-width:1.0;" x1="1057" x2="1057" y1="685.8984" y2="698.8984"/><line style="stroke:#181818;stroke-width:1.0;" x1="1016" x2="1057" y1="698.8984" y2="698.8984"/><polygon fill="#181818" points="1026,694.8984,1016,698.8984,1026,702.8984,1022,698.8984" style="stroke:#181818;stroke-width:1.0;"/><text fill="#000000" font-family="sans-serif" font-size="13" lengthAdjust="spacing" textLength="285" x="1022" y="681.042">evaluarCompatibilidadYRecomendarMenorCarga()</text><polygon fill="#181818" points="687.5,725.25,677.5,729.25,687.5,733.25,683.5,729.25" style="stroke:#181818;stroke-width:1.0;"/><line style="stroke:#181818;stroke-width:1.0;stroke-dasharray:2.0,2.0;" x1="681.5" x2="1009" y1="729.25" y2="729.25"/><text fill="#000000" font-family="sans-serif" font-size="13" lengthAdjust="spacing" textLength="212" x="693.5" y="724.3936">Lista&lt;CandidatoProyectoResponse&gt;</text><polygon fill="#181818" points="339.5,771.9531,329.5,775.9531,339.5,779.9531,335.5,775.9531" style="stroke:#181818;stroke-width:1.0;"/><line style="stroke:#181818;stroke-width:1.0;stroke-dasharray:2.0,2.0;" x1="333.5" x2="670.5" y1="775.9531" y2="775.9531"/><text fill="#000000" font-family="sans-serif" font-size="13" lengthAdjust="spacing" textLength="44" x="345.5" y="754.7451">200 OK</text><text fill="#000000" font-family="sans-serif" font-size="13" lengthAdjust="spacing" textLength="129" x="345.5" y="771.0967">Candidatos ordenados</text><polygon fill="#181818" points="83.5,802.3047,73.5,806.3047,83.5,810.3047,79.5,806.3047" style="stroke:#181818;stroke-width:1.0;"/><line style="stroke:#181818;stroke-width:1.0;stroke-dasharray:2.0,2.0;" x1="77.5" x2="317.5" y1="806.3047" y2="806.3047"/><text fill="#000000" font-family="sans-serif" font-size="13" lengthAdjust="spacing" textLength="222" x="89.5" y="801.4482">Presenta candidatos y recomendacion</text><path d="M10,821.3047 L71,821.3047 L71,829.6563 L61,839.6563 L10,839.6563 L10,821.3047 " fill="#EEEEEE" style="stroke:#000000;stroke-width:1.5;"/><rect fill="none" height="1054.9766" style="stroke:#000000;stroke-width:1.5;" width="2600" x="10" y="821.3047"/><text fill="#000000" font-family="sans-serif" font-size="13" font-weight="bold" lengthAdjust="spacing" textLength="16" x="25" y="835.7998">alt</text><text fill="#000000" font-family="sans-serif" font-size="11" font-weight="bold" lengthAdjust="spacing" textLength="121" x="86" y="834.7236">[Coordinador cancela]</text><polygon fill="#181818" points="306.5,858.0078,316.5,862.0078,306.5,866.0078,310.5,862.0078" style="stroke:#181818;stroke-width:1.0;"/><line style="stroke:#181818;stroke-width:1.0;" x1="72.5" x2="312.5" y1="862.0078" y2="862.0078"/><text fill="#000000" font-family="sans-serif" font-size="13" lengthAdjust="spacing" textLength="113" x="79.5" y="857.1514">Cancela asignacion</text><polygon fill="#181818" points="83.5,888.3594,73.5,892.3594,83.5,896.3594,79.5,892.3594" style="stroke:#181818;stroke-width:1.0;"/><line style="stroke:#181818;stroke-width:1.0;stroke-dasharray:2.0,2.0;" x1="77.5" x2="317.5" y1="892.3594" y2="892.3594"/><text fill="#000000" font-family="sans-serif" font-size="13" lengthAdjust="spacing" textLength="192" x="89.5" y="887.5029">Conserva PROYECTO_ABIERTO</text><line style="stroke:#000000;stroke-width:1.0;stroke-dasharray:2.0,2.0;" x1="10" x2="2610" y1="901.3594" y2="901.3594"/><text fill="#000000" font-family="sans-serif" font-size="11" font-weight="bold" lengthAdjust="spacing" textLength="129" x="15" y="912.7783">[Coordinador confirma]</text><polygon fill="#181818" points="306.5,934.5469,316.5,938.5469,306.5,942.5469,310.5,938.5469" style="stroke:#181818;stroke-width:1.0;"/><line style="stroke:#181818;stroke-width:1.0;" x1="72.5" x2="312.5" y1="938.5469" y2="938.5469"/><text fill="#000000" font-family="sans-serif" font-size="13" lengthAdjust="spacing" textLength="188" x="79.5" y="933.6904">Selecciona candidato y confirma</text><polygon fill="#181818" points="654.5,981.25,664.5,985.25,654.5,989.25,658.5,985.25" style="stroke:#181818;stroke-width:1.0;"/><line style="stroke:#181818;stroke-width:1.0;" x1="328.5" x2="660.5" y1="985.25" y2="985.25"/><text fill="#000000" font-family="sans-serif" font-size="13" lengthAdjust="spacing" textLength="319" x="335.5" y="964.042">POST /api/proyectos/{id}/investigadores/{investigadorId}</text><text fill="#000000" font-family="sans-serif" font-size="13" lengthAdjust="spacing" textLength="100" x="335.5" y="980.3936">Cookie de sesion</text><polygon fill="#181818" points="877.5,1011.6016,887.5,1015.6016,877.5,1019.6016,881.5,1015.6016" style="stroke:#181818;stroke-width:1.0;"/><line style="stroke:#181818;stroke-width:1.0;" x1="676.5" x2="883.5" y1="1015.6016" y2="1015.6016"/><text fill="#000000" font-family="sans-serif" font-size="13" lengthAdjust="spacing" textLength="189" x="683.5" y="1010.7451">exigirCoordinador(authentication)</text><polygon fill="#181818" points="687.5,1041.9531,677.5,1045.9531,687.5,1049.9531,683.5,1045.9531" style="stroke:#181818;stroke-width:1.0;"/><line style="stroke:#181818;stroke-width:1.0;stroke-dasharray:2.0,2.0;" x1="681.5" x2="888.5" y1="1045.9531" y2="1045.9531"/><text fill="#000000" font-family="sans-serif" font-size="13" lengthAdjust="spacing" textLength="140" x="693.5" y="1041.0967">Coordinador autenticado</text><polygon fill="#181818" points="993,1072.3047,1003,1076.3047,993,1080.3047,997,1076.3047" style="stroke:#181818;stroke-width:1.0;"/><line style="stroke:#181818;stroke-width:1.0;" x1="676.5" x2="999" y1="1076.3047" y2="1076.3047"/><text fill="#000000" font-family="sans-serif" font-size="13" lengthAdjust="spacing" textLength="214" x="683.5" y="1071.4482">asociarInvestigador(id, investigadorId)</text><polygon fill="#181818" points="1351,1102.6563,1361,1106.6563,1351,1110.6563,1355,1106.6563" style="stroke:#181818;stroke-width:1.0;"/><line style="stroke:#181818;stroke-width:1.0;" x1="1015" x2="1357" y1="1106.6563" y2="1106.6563"/><text fill="#000000" font-family="sans-serif" font-size="13" lengthAdjust="spacing" textLength="126" x="1022" y="1101.7998">obtenerActivoPorId(id)</text><polygon fill="#181818" points="2528.5,1133.0078,2538.5,1137.0078,2528.5,1141.0078,2532.5,1137.0078" style="stroke:#181818;stroke-width:1.0;"/><line style="stroke:#181818;stroke-width:1.0;" x1="1363" x2="2534.5" y1="1137.0078" y2="1137.0078"/><text fill="#000000" font-family="sans-serif" font-size="13" lengthAdjust="spacing" textLength="384" x="1370" y="1132.1514">SELECT * FROM proyectos WHERE id = ? AND archivado = false</text><polygon fill="#181818" points="1374,1163.3594,1364,1167.3594,1374,1171.3594,1370,1167.3594" style="stroke:#181818;stroke-width:1.0;"/><line style="stroke:#181818;stroke-width:1.0;stroke-dasharray:2.0,2.0;" x1="1368" x2="2539.5" y1="1167.3594" y2="1167.3594"/><text fill="#000000" font-family="sans-serif" font-size="13" lengthAdjust="spacing" textLength="150" x="1380" y="1162.5029">Resultado de persistencia</text><polygon fill="#181818" points="1026,1193.7109,1016,1197.7109,1026,1201.7109,1022,1197.7109" style="stroke:#181818;stroke-width:1.0;"/><line style="stroke:#181818;stroke-width:1.0;stroke-dasharray:2.0,2.0;" x1="1020" x2="1362" y1="1197.7109" y2="1197.7109"/><text fill="#000000" font-family="sans-serif" font-size="13" lengthAdjust="spacing" textLength="93" x="1032" y="1192.8545">Proyecto / vacio</text><polygon fill="#181818" points="1509.5,1224.0625,1519.5,1228.0625,1509.5,1232.0625,1513.5,1228.0625" style="stroke:#181818;stroke-width:1.0;"/><line style="stroke:#181818;stroke-width:1.0;" x1="1015" x2="1515.5" y1="1228.0625" y2="1228.0625"/><text fill="#000000" font-family="sans-serif" font-size="13" lengthAdjust="spacing" textLength="265" x="1022" y="1223.2061">obtenerCandidatoDisponible(id, investigadorId)</text><polygon fill="#181818" points="2528.5,1254.4141,2538.5,1258.4141,2528.5,1262.4141,2532.5,1258.4141" style="stroke:#181818;stroke-width:1.0;"/><line style="stroke:#181818;stroke-width:1.0;" x1="1521.5" x2="2534.5" y1="1258.4141" y2="1258.4141"/><text fill="#000000" font-family="sans-serif" font-size="13" lengthAdjust="spacing" textLength="515" x="1528.5" y="1253.5576">SELECT * FROM usuarios WHERE id = ? AND rol = 'INVESTIGADOR' AND activo = true</text><polygon fill="#181818" points="1532.5,1284.7656,1522.5,1288.7656,1532.5,1292.7656,1528.5,1288.7656" style="stroke:#181818;stroke-width:1.0;"/><line style="stroke:#181818;stroke-width:1.0;stroke-dasharray:2.0,2.0;" x1="1526.5" x2="2539.5" y1="1288.7656" y2="1288.7656"/><text fill="#000000" font-family="sans-serif" font-size="13" lengthAdjust="spacing" textLength="150" x="1538.5" y="1283.9092">Resultado de persistencia</text><polygon fill="#181818" points="1026,1315.1172,1016,1319.1172,1026,1323.1172,1022,1319.1172" style="stroke:#181818;stroke-width:1.0;"/><line style="stroke:#181818;stroke-width:1.0;stroke-dasharray:2.0,2.0;" x1="1020" x2="1520.5" y1="1319.1172" y2="1319.1172"/><text fill="#000000" font-family="sans-serif" font-size="13" lengthAdjust="spacing" textLength="109" x="1032" y="1314.2607">Investigador / vacio</text><polygon fill="#181818" points="1684,1345.4688,1694,1349.4688,1684,1353.4688,1688,1349.4688" style="stroke:#181818;stroke-width:1.0;"/><line style="stroke:#181818;stroke-width:1.0;" x1="1015" x2="1690" y1="1349.4688" y2="1349.4688"/><text fill="#000000" font-family="sans-serif" font-size="13" lengthAdjust="spacing" textLength="200" x="1022" y="1344.6123">obtenerCargaActual(investigadorId)</text><polygon fill="#181818" points="2528.5,1375.8203,2538.5,1379.8203,2528.5,1383.8203,2532.5,1379.8203" style="stroke:#181818;stroke-width:1.0;"/><line style="stroke:#181818;stroke-width:1.0;" x1="1696" x2="2534.5" y1="1379.8203" y2="1379.8203"/><text fill="#000000" font-family="sans-serif" font-size="13" lengthAdjust="spacing" textLength="329" x="1703" y="1374.9639">SELECT * FROM cargas_trabajo WHERE usuario_id = ?</text><polygon fill="#181818" points="1707,1406.1719,1697,1410.1719,1707,1414.1719,1703,1410.1719" style="stroke:#181818;stroke-width:1.0;"/><line style="stroke:#181818;stroke-width:1.0;stroke-dasharray:2.0,2.0;" x1="1701" x2="2539.5" y1="1410.1719" y2="1410.1719"/><text fill="#000000" font-family="sans-serif" font-size="13" lengthAdjust="spacing" textLength="150" x="1713" y="1405.3154">Resultado de persistencia</text><polygon fill="#181818" points="1026,1436.5234,1016,1440.5234,1026,1444.5234,1022,1440.5234" style="stroke:#181818;stroke-width:1.0;"/><line style="stroke:#181818;stroke-width:1.0;stroke-dasharray:2.0,2.0;" x1="1020" x2="1695" y1="1440.5234" y2="1440.5234"/><text fill="#000000" font-family="sans-serif" font-size="13" lengthAdjust="spacing" textLength="204" x="1032" y="1435.667">Carga y disponibilidad actualizadas</text><line style="stroke:#181818;stroke-width:1.0;" x1="1015" x2="1057" y1="1470.875" y2="1470.875"/><line style="stroke:#181818;stroke-width:1.0;" x1="1057" x2="1057" y1="1470.875" y2="1483.875"/><line style="stroke:#181818;stroke-width:1.0;" x1="1016" x2="1057" y1="1483.875" y2="1483.875"/><polygon fill="#181818" points="1026,1479.875,1016,1483.875,1026,1487.875,1022,1483.875" style="stroke:#181818;stroke-width:1.0;"/><text fill="#000000" font-family="sans-serif" font-size="13" lengthAdjust="spacing" textLength="233" x="1022" y="1466.0186">reevaluarCompatibilidadYDisponibilidad()</text><path d="M20,1498.875 L81,1498.875 L81,1507.2266 L71,1517.2266 L20,1517.2266 L20,1498.875 " fill="#EEEEEE" style="stroke:#000000;stroke-width:1.5;"/><rect fill="none" height="370.4063" style="stroke:#000000;stroke-width:1.5;" width="2580" x="20" y="1498.875"/><text fill="#000000" font-family="sans-serif" font-size="13" font-weight="bold" lengthAdjust="spacing" textLength="16" x="35" y="1513.3701">alt</text><text fill="#000000" font-family="sans-serif" font-size="11" font-weight="bold" lengthAdjust="spacing" textLength="316" x="96" y="1512.2939">[Proyecto no disponible, candidato invalido o ya asociado]</text><polygon fill="#181818" points="687.5,1535.5781,677.5,1539.5781,687.5,1543.5781,683.5,1539.5781" style="stroke:#181818;stroke-width:1.0;"/><line style="stroke:#181818;stroke-width:1.0;stroke-dasharray:2.0,2.0;" x1="681.5" x2="1009" y1="1539.5781" y2="1539.5781"/><text fill="#000000" font-family="sans-serif" font-size="13" lengthAdjust="spacing" textLength="238" x="693.5" y="1534.7217">ValidacionException / ConflictoException</text><polygon fill="#181818" points="339.5,1565.9297,329.5,1569.9297,339.5,1573.9297,335.5,1569.9297" style="stroke:#181818;stroke-width:1.0;"/><line style="stroke:#181818;stroke-width:1.0;stroke-dasharray:2.0,2.0;" x1="333.5" x2="670.5" y1="1569.9297" y2="1569.9297"/><text fill="#000000" font-family="sans-serif" font-size="13" lengthAdjust="spacing" textLength="180" x="345.5" y="1565.0732">400 Bad Request / 409 Conflict</text><polygon fill="#181818" points="83.5,1596.2813,73.5,1600.2813,83.5,1604.2813,79.5,1600.2813" style="stroke:#181818;stroke-width:1.0;"/><line style="stroke:#181818;stroke-width:1.0;stroke-dasharray:2.0,2.0;" x1="77.5" x2="317.5" y1="1600.2813" y2="1600.2813"/><text fill="#000000" font-family="sans-serif" font-size="13" lengthAdjust="spacing" textLength="215" x="89.5" y="1595.4248">Presenta error y conserva candidatos</text><line style="stroke:#000000;stroke-width:1.0;stroke-dasharray:2.0,2.0;" x1="20" x2="2600" y1="1609.2813" y2="1609.2813"/><text fill="#000000" font-family="sans-serif" font-size="11" font-weight="bold" lengthAdjust="spacing" textLength="98" x="25" y="1620.7002">[Candidato valido]</text><polygon fill="#181818" points="1351,1642.4688,1361,1646.4688,1351,1650.4688,1355,1646.4688" style="stroke:#181818;stroke-width:1.0;"/><line style="stroke:#181818;stroke-width:1.0;" x1="1010" x2="1357" y1="1646.4688" y2="1646.4688"/><text fill="#000000" font-family="sans-serif" font-size="13" lengthAdjust="spacing" textLength="329" x="1017" y="1641.6123">registrarAsignacion(id, investigadorId, fecha, coordinador)</text><polygon fill="#181818" points="2528.5,1689.1719,2538.5,1693.1719,2528.5,1697.1719,2532.5,1693.1719" style="stroke:#181818;stroke-width:1.0;"/><line style="stroke:#181818;stroke-width:1.0;" x1="1363" x2="2534.5" y1="1693.1719" y2="1693.1719"/><text fill="#000000" font-family="sans-serif" font-size="13" lengthAdjust="spacing" textLength="458" x="1370" y="1671.9639">INSERT INTO proyecto_investigadores (proyecto_id, usuario_id) VALUES (?, ?)</text><text fill="#000000" font-family="sans-serif" font-size="13" lengthAdjust="spacing" textLength="839" x="1370" y="1688.3154">INSERT INTO movimientos_participacion_proyecto (proyecto_id, investigador_id, tipo, responsable_id, fecha) VALUES (?, ?, 'ASIGNACION', ?, ?)</text><polygon fill="#181818" points="1374,1719.5234,1364,1723.5234,1374,1727.5234,1370,1723.5234" style="stroke:#181818;stroke-width:1.0;"/><line style="stroke:#181818;stroke-width:1.0;stroke-dasharray:2.0,2.0;" x1="1368" x2="2539.5" y1="1723.5234" y2="1723.5234"/><text fill="#000000" font-family="sans-serif" font-size="13" lengthAdjust="spacing" textLength="150" x="1380" y="1718.667">Resultado de persistencia</text><polygon fill="#181818" points="1021,1749.875,1011,1753.875,1021,1757.875,1017,1753.875" style="stroke:#181818;stroke-width:1.0;"/><line style="stroke:#181818;stroke-width:1.0;stroke-dasharray:2.0,2.0;" x1="1015" x2="1362" y1="1753.875" y2="1753.875"/><text fill="#000000" font-family="sans-serif" font-size="13" lengthAdjust="spacing" textLength="112" x="1027" y="1749.0186">Participacion activa</text><polygon fill="#181818" points="682.5,1780.2266,672.5,1784.2266,682.5,1788.2266,678.5,1784.2266" style="stroke:#181818;stroke-width:1.0;"/><line style="stroke:#181818;stroke-width:1.0;stroke-dasharray:2.0,2.0;" x1="676.5" x2="1009" y1="1784.2266" y2="1784.2266"/><text fill="#000000" font-family="sans-serif" font-size="13" lengthAdjust="spacing" textLength="150" x="688.5" y="1779.3701">ProyectoDetalleResponse</text><polygon fill="#181818" points="339.5,1826.9297,329.5,1830.9297,339.5,1834.9297,335.5,1830.9297" style="stroke:#181818;stroke-width:1.0;"/><line style="stroke:#181818;stroke-width:1.0;stroke-dasharray:2.0,2.0;" x1="333.5" x2="670.5" y1="1830.9297" y2="1830.9297"/><text fill="#000000" font-family="sans-serif" font-size="13" lengthAdjust="spacing" textLength="44" x="345.5" y="1809.7217">200 OK</text><text fill="#000000" font-family="sans-serif" font-size="13" lengthAdjust="spacing" textLength="124" x="345.5" y="1826.0732">Investigador asociado</text><polygon fill="#181818" points="83.5,1857.2813,73.5,1861.2813,83.5,1865.2813,79.5,1861.2813" style="stroke:#181818;stroke-width:1.0;"/><line style="stroke:#181818;stroke-width:1.0;stroke-dasharray:2.0,2.0;" x1="77.5" x2="317.5" y1="1861.2813" y2="1861.2813"/><text fill="#000000" font-family="sans-serif" font-size="13" lengthAdjust="spacing" textLength="191" x="89.5" y="1856.4248">Presenta PROYECTO_ABIERTO</text><!--SRC=[hLVRRkCs47tNLmpo4hjmaA3ObmRRNSYNJOrcxS1sKomGm62aYSDM5bMIDZOjzjyxf2IAjANMIHiWDt8uC-VCp26jkSuGnfnj9DioI14K9ZlC4yxW0kADn0sJmFCzAiqtB1KI61HIl62YHHGn-YbX98HCUMvseu99pHDUi5p3MNL-wXsdK9dOFEIz1TBX_Xam1P-ao3NcQNZuheeoeaqfiWmbdLeMakSR60fHdOqB7XvRek8YNwBSymIjIRdIxZoqit-t6owm48eJsXThQ_uD3NsG1yQ7M-714PCRjfBiaVrs6CLksHCfqsIW4Cw6vYVLQSoqKDPgF8mYhmHmyS4nUWrBaL4apO2rrDBKZ- -PngO4zH_62t5x3JUJ5LooWb_MLLUNV_7qssN2yfId9ec7dAB_ph7i7ikryslAGz_6Mrc6Qy2lVCEbbt2FxVGpviG8qsJHZqfBkAXJyC6HRMcQYiQnhTirY4VQGpbocVLusczogUjR_JP73RVkN6mCnPsGqzGUD9l6Q3ma6YUtaz4AleDFY_bdDm0AVlrfifW0J-57-0ZnR0nC9iyKBXMqyiGoXT5uQ96KeHQeTfassqHMWL9nfUsqLT5yE7Nh-GaVjf9BVYPY9SXFMg4-D6m7ibCx9hd3GMD6QPzFP_UJvMfw4u_dY_CIbQM6zhJSeLqXoBFv2gOpw5KkArzhsWb8MliTXtMePjTorwzfEWROJTanHf- -fWry0jr8UUr2AwhNz7C_SaRjh2Nsn5gNCri1yk0RKXf4NiHkA5x448E912-GSbM8d3_oZ79CVK3E5lSienH6OblG75MMNnQOY2tDCvEVCHSbs5w_SL3Fs2sbmjuxpXhPCt4LVeXIF1eaEt-1sdn_TGNpdqaG79b0eujcT9NlmSX2epI6f6R4JUEZeY5dqDI4A90raiGgJAO3NI3J13CM0NrrYk6eD2BHv9kyz6FikpCP6Unop-1kCVz27J1VnyFfPB6QHqYZ7IOWyYSkj_-ImH8pJ4nW3nnX2muVIV3TVDckmU5aqPht_pJzrYBCndzG1RFmQe4sXquLwI10rQhCIbNmBY3H6a2OVp_CjkwwClXf4cvi_oSPDwvEbF8cQfkSmoNiJUyT0kcKTZTCuqe4Cknawqsox-4-xGRmoNYDOBTdw9FaxtOHrI7XLFiTotfjhFn7FIToVCGd2Vf1s2DHFz9qmp3bp_zaALE7aDrPYUqoFmvyzQhH8OrqNPSB5p33WQS-H1Y59GWaHAmQpMfkWopgGRytrbOy9ryJB8mYKAL8AP_efQc5MtGUMcwEUklu1db7DyYGs5ZW7pkg8tb-T_M3yzxcirQnVrPoTwUWbDHQLd9BQMyk6Ukc57R7JidDCHkr2j2ZccekcOpTdT8od0DumkIP4UrDJdtdrE_CwMn9zmlzMiqxNr0zx_4qy1gr3_VnxI-J9Rq-1lIaUiXzPrknvrjE50YrTfy_JBhhsjk1Np-eNT2y40C2R5y4ZBh8hbfWOUG1dCVBwSqi7atditExyB51-meHxH1IF_lgVkXkrte0ngWPVOYi7pHlwyxwVHF8rD78lBqvZvuPjYFfOvdvzjpMhlu6]--></g></svg>