<svg xmlns="http://www.w3.org/2000/svg" xmlns:xlink="http://www.w3.org/1999/xlink" contentStyleType="text/css" height="1961px" preserveAspectRatio="none" style="width:2545px;height:1961px;background:#FFFFFF;" version="1.1" viewBox="0 0 2545 1961" width="2545px" zoomAndPan="magnify"><title>Diagrama de secuencia - Agregar investigador a proyecto</title><defs/><g><text fill="#000000" font-family="sans-serif" font-size="14" font-weight="bold" lengthAdjust="spacing" textLength="383.5781" x="1082.1221" y="29.5332">Diagrama de secuencia - Agregar investigador a proyecto</text><rect fill="#FFFFFF" height="1715.7109" style="stroke:#181818;stroke-width:1;" width="10" x="316.6572" y="153.5703"/><rect fill="#FFFFFF" height="568.6797" style="stroke:#181818;stroke-width:1;" width="10" x="668.6831" y="200.2734"/><rect fill="#FFFFFF" height="577.6797" style="stroke:#181818;stroke-width:1;" width="10" x="668.6831" y="978.25"/><rect fill="#FFFFFF" height="430.9219" style="stroke:#181818;stroke-width:1;" width="10" x="1026.9736" y="291.3281"/><rect fill="#FFFFFF" height="456.2734" style="stroke:#181818;stroke-width:1;" width="10" x="1026.9736" y="1069.3047"/><rect fill="none" height="1047.9766" style="stroke:#000000;stroke-width:1.5;" width="2528.8223" x="10" y="814.3047"/><rect fill="none" height="370.4063" style="stroke:#000000;stroke-width:1.5;" width="2508.8223" x="20" y="1484.875"/><line style="stroke:#181818;stroke-width:0.5;stroke-dasharray:5.0,5.0;" x1="71" x2="71" y1="121.2188" y2="1879.2813"/><line style="stroke:#181818;stroke-width:0.5;stroke-dasharray:5.0,5.0;" x1="320.7749" x2="320.7749" y1="121.2188" y2="1879.2813"/><line style="stroke:#181818;stroke-width:0.5;stroke-dasharray:5.0,5.0;" x1="672.7144" x2="672.7144" y1="121.2188" y2="1879.2813"/><line style="stroke:#181818;stroke-width:0.5;stroke-dasharray:5.0,5.0;" x1="911.519" x2="911.519" y1="121.2188" y2="1879.2813"/><line style="stroke:#181818;stroke-width:0.5;stroke-dasharray:5.0,5.0;" x1="1031.0083" x2="1031.0083" y1="121.2188" y2="1879.2813"/><line style="stroke:#181818;stroke-width:0.5;stroke-dasharray:5.0,5.0;" x1="1305.1953" x2="1305.1953" y1="121.2188" y2="1879.2813"/><line style="stroke:#181818;stroke-width:0.5;stroke-dasharray:5.0,5.0;" x1="1447.3604" x2="1447.3604" y1="121.2188" y2="1879.2813"/><line style="stroke:#181818;stroke-width:0.5;stroke-dasharray:5.0,5.0;" x1="1605.5186" x2="1605.5186" y1="121.2188" y2="1879.2813"/><line style="stroke:#181818;stroke-width:0.5;stroke-dasharray:5.0,5.0;" x1="2468.9883" x2="2468.9883" y1="121.2188" y2="1879.2813"/><text fill="#000000" font-family="sans-serif" font-size="14" lengthAdjust="spacing" textLength="77.0479" x="30" y="118.1426">Coordinador</text><ellipse cx="71.5239" cy="52.1094" fill="#E2E2F0" rx="8" ry="8" style="stroke:#181818;stroke-width:0.5;"/><path d="M71.5239,60.1094 L71.5239,87.1094 M58.5239,68.1094 L84.5239,68.1094 M71.5239,87.1094 L58.5239,102.1094 M71.5239,87.1094 L84.5239,102.1094 " fill="none" style="stroke:#181818;stroke-width:0.5;"/><text fill="#000000" font-family="sans-serif" font-size="14" lengthAdjust="spacing" textLength="77.0479" x="30" y="1892.8145">Coordinador</text><ellipse cx="71.5239" cy="1904.3906" fill="#E2E2F0" rx="8" ry="8" style="stroke:#181818;stroke-width:0.5;"/><path d="M71.5239,1912.3906 L71.5239,1939.3906 M58.5239,1920.3906 L84.5239,1920.3906 M71.5239,1939.3906 L58.5239,1954.3906 M71.5239,1939.3906 L84.5239,1954.3906 " fill="none" style="stroke:#181818;stroke-width:0.5;"/><rect fill="#E2E2F0" height="49.2188" rx="2.5" ry="2.5" style="stroke:#181818;stroke-width:0.5;" width="179.7646" x="231.7749" y="71"/><text fill="#000000" font-family="sans-serif" font-size="14" lengthAdjust="spacing" textLength="165.7646" x="238.7749" y="92.5332">AgregarInvestigadorDialog</text><text fill="#000000" font-family="sans-serif" font-size="14" lengthAdjust="spacing" textLength="45.8965" x="298.709" y="110.1426">(React)</text><rect fill="#E2E2F0" height="49.2188" rx="2.5" ry="2.5" style="stroke:#181818;stroke-width:0.5;" width="179.7646" x="231.7749" y="1878.2813"/><text fill="#000000" font-family="sans-serif" font-size="14" lengthAdjust="spacing" textLength="165.7646" x="238.7749" y="1899.8145">AgregarInvestigadorDialog</text><text fill="#000000" font-family="sans-serif" font-size="14" lengthAdjust="spacing" textLength="45.8965" x="298.709" y="1917.4238">(React)</text><rect fill="#E2E2F0" height="49.2188" rx="2.5" ry="2.5" style="stroke:#181818;stroke-width:0.5;" width="129.9375" x="608.7144" y="71"/><text fill="#000000" font-family="sans-serif" font-size="14" lengthAdjust="spacing" textLength="115.9375" x="615.7144" y="92.5332">ProyectoController</text><text fill="#000000" font-family="sans-serif" font-size="14" lengthAdjust="spacing" textLength="82.4824" x="632.4419" y="110.1426">(Spring Boot)</text><rect fill="#E2E2F0" height="49.2188" rx="2.5" ry="2.5" style="stroke:#181818;stroke-width:0.5;" width="129.9375" x="608.7144" y="1878.2813"/><text fill="#000000" font-family="sans-serif" font-size="14" lengthAdjust="spacing" textLength="115.9375" x="615.7144" y="1899.8145">ProyectoController</text><text fill="#000000" font-family="sans-serif" font-size="14" lengthAdjust="spacing" textLength="82.4824" x="632.4419" y="1917.4238">(Spring Boot)</text><rect fill="#E2E2F0" height="31.6094" rx="2.5" ry="2.5" style="stroke:#181818;stroke-width:0.5;" width="103.4893" x="860.519" y="88.6094"/><text fill="#000000" font-family="sans-serif" font-size="14" lengthAdjust="spacing" textLength="89.4893" x="867.519" y="110.1426">SesionService</text><rect fill="#E2E2F0" height="31.6094" rx="2.5" ry="2.5" style="stroke:#181818;stroke-width:0.5;" width="103.4893" x="860.519" y="1878.2813"/><text fill="#000000" font-family="sans-serif" font-size="14" lengthAdjust="spacing" textLength="89.4893" x="867.519" y="1899.8145">SesionService</text><rect fill="#E2E2F0" height="31.6094" rx="2.5" ry="2.5" style="stroke:#181818;stroke-width:0.5;" width="115.9307" x="974.0083" y="88.6094"/><text fill="#000000" font-family="sans-serif" font-size="14" lengthAdjust="spacing" textLength="101.9307" x="981.0083" y="110.1426">ProyectoService</text><rect fill="#E2E2F0" height="31.6094" rx="2.5" ry="2.5" style="stroke:#181818;stroke-width:0.5;" width="115.9307" x="974.0083" y="1878.2813"/><text fill="#000000" font-family="sans-serif" font-size="14" lengthAdjust="spacing" textLength="101.9307" x="981.0083" y="1899.8145">ProyectoService</text><rect fill="#E2E2F0" height="31.6094" rx="2.5" ry="2.5" style="stroke:#181818;stroke-width:0.5;" width="136.165" x="1237.1953" y="88.6094"/><text fill="#000000" font-family="sans-serif" font-size="14" lengthAdjust="spacing" textLength="122.165" x="1244.1953" y="110.1426">ProyectoRepository</text><rect fill="#E2E2F0" height="31.6094" rx="2.5" ry="2.5" style="stroke:#181818;stroke-width:0.5;" width="136.165" x="1237.1953" y="1878.2813"/><text fill="#000000" font-family="sans-serif" font-size="14" lengthAdjust="spacing" textLength="122.165" x="1244.1953" y="1899.8145">ProyectoRepository</text><rect fill="#E2E2F0" height="31.6094" rx="2.5" ry="2.5" style="stroke:#181818;stroke-width:0.5;" width="129.1582" x="1383.3604" y="88.6094"/><text fill="#000000" font-family="sans-serif" font-size="14" lengthAdjust="spacing" textLength="115.1582" x="1390.3604" y="110.1426">UsuarioRepository</text><rect fill="#E2E2F0" height="31.6094" rx="2.5" ry="2.5" style="stroke:#181818;stroke-width:0.5;" width="129.1582" x="1383.3604" y="1878.2813"/><text fill="#000000" font-family="sans-serif" font-size="14" lengthAdjust="spacing" textLength="115.1582" x="1390.3604" y="1899.8145">UsuarioRepository</text><rect fill="#E2E2F0" height="31.6094" rx="2.5" ry="2.5" style="stroke:#181818;stroke-width:0.5;" width="166.5166" x="1522.5186" y="88.6094"/><text fill="#000000" font-family="sans-serif" font-size="14" lengthAdjust="spacing" textLength="152.5166" x="1529.5186" y="110.1426">CargaTrabajoRepository</text><rect fill="#E2E2F0" height="31.6094" rx="2.5" ry="2.5" style="stroke:#181818;stroke-width:0.5;" width="166.5166" x="1522.5186" y="1878.2813"/><text fill="#000000" font-family="sans-serif" font-size="14" lengthAdjust="spacing" textLength="152.5166" x="1529.5186" y="1899.8145">CargaTrabajoRepository</text><text fill="#000000" font-family="sans-serif" font-size="14" lengthAdjust="spacing" textLength="91.834" x="2420.9883" y="118.1426">Base de Datos</text><path d="M2451.9053,67.6094 C2451.9053,57.6094 2469.9053,57.6094 2469.9053,57.6094 C2469.9053,57.6094 2487.9053,57.6094 2487.9053,67.6094 L2487.9053,93.6094 C2487.9053,103.6094 2469.9053,103.6094 2469.9053,103.6094 C2469.9053,103.6094 2451.9053,103.6094 2451.9053,93.6094 L2451.9053,67.6094 " fill="#E2E2F0" style="stroke:#181818;stroke-width:1.5;"/><path d="M2451.9053,67.6094 C2451.9053,77.6094 2469.9053,77.6094 2469.9053,77.6094 C2469.9053,77.6094 2487.9053,77.6094 2487.9053,67.6094 " fill="none" style="stroke:#181818;stroke-width:1.5;"/><text fill="#000000" font-family="sans-serif" font-size="14" lengthAdjust="spacing" textLength="91.834" x="2420.9883" y="1892.8145">Base de Datos</text><path d="M2451.9053,1905.8906 C2451.9053,1895.8906 2469.9053,1895.8906 2469.9053,1895.8906 C2469.9053,1895.8906 2487.9053,1895.8906 2487.9053,1905.8906 L2487.9053,1931.8906 C2487.9053,1941.8906 2469.9053,1941.8906 2469.9053,1941.8906 C2469.9053,1941.8906 2451.9053,1941.8906 2451.9053,1931.8906 L2451.9053,1905.8906 " fill="#E2E2F0" style="stroke:#181818;stroke-width:1.5;"/><path d="M2451.9053,1905.8906 C2451.9053,1915.8906 2469.9053,1915.8906 2469.9053,1915.8906 C2469.9053,1915.8906 2487.9053,1915.8906 2487.9053,1905.8906 " fill="none" style="stroke:#181818;stroke-width:1.5;"/><rect fill="#FFFFFF" height="1715.7109" style="stroke:#181818;stroke-width:1;" width="10" x="316.6572" y="153.5703"/><rect fill="#FFFFFF" height="568.6797" style="stroke:#181818;stroke-width:1;" width="10" x="668.6831" y="200.2734"/><rect fill="#FFFFFF" height="577.6797" style="stroke:#181818;stroke-width:1;" width="10" x="668.6831" y="978.25"/><rect fill="#FFFFFF" height="430.9219" style="stroke:#181818;stroke-width:1;" width="10" x="1026.9736" y="291.3281"/><rect fill="#FFFFFF" height="456.2734" style="stroke:#181818;stroke-width:1;" width="10" x="1026.9736" y="1069.3047"/><polygon fill="#181818" points="304.6572,149.5703,314.6572,153.5703,304.6572,157.5703,308.6572,153.5703" style="stroke:#181818;stroke-width:1;"/><line style="stroke:#181818;stroke-width:1;" x1="71.5239" x2="310.6572" y1="153.5703" y2="153.5703"/><text fill="#000000" font-family="sans-serif" font-size="13" lengthAdjust="spacing" textLength="164.0361" x="78.5239" y="148.7139">Solicita agregar investigador</text><polygon fill="#181818" points="656.6831,196.2734,666.6831,200.2734,656.6831,204.2734,660.6831,200.2734" style="stroke:#181818;stroke-width:1;"/><line style="stroke:#181818;stroke-width:1;" x1="326.6572" x2="662.6831" y1="200.2734" y2="200.2734"/><text fill="#000000" font-family="sans-serif" font-size="13" lengthAdjust="spacing" textLength="200.1733" x="333.6572" y="179.0654">GET /api/proyectos/{id}/candidatos</text><text fill="#000000" font-family="sans-serif" font-size="13" lengthAdjust="spacing" textLength="99.728" x="333.6572" y="195.417">Cookie de sesion</text><polygon fill="#181818" points="900.2637,226.625,910.2637,230.625,900.2637,234.625,904.2637,230.625" style="stroke:#181818;stroke-width:1;"/><line style="stroke:#181818;stroke-width:1;" x1="678.6831" x2="906.2637" y1="230.625" y2="230.625"/><text fill="#000000" font-family="sans-serif" font-size="13" lengthAdjust="spacing" textLength="209.5806" x="685.6831" y="225.7686">obtenerSesionActual(authentication)</text><polygon fill="#181818" points="689.6831,256.9766,679.6831,260.9766,689.6831,264.9766,685.6831,260.9766" style="stroke:#181818;stroke-width:1;"/><line style="stroke:#181818;stroke-width:1;stroke-dasharray:2.0,2.0;" x1="683.6831" x2="911.2637" y1="260.9766" y2="260.9766"/><text fill="#000000" font-family="sans-serif" font-size="13" lengthAdjust="spacing" textLength="142.3779" x="695.6831" y="256.1201">Coordinador autenticado</text><polygon fill="#181818" points="1014.9736,287.3281,1024.9736,291.3281,1014.9736,295.3281,1018.9736,291.3281" style="stroke:#181818;stroke-width:1;"/><line style="stroke:#181818;stroke-width:1;" x1="678.6831" x2="1020.9736" y1="291.3281" y2="291.3281"/><text fill="#000000" font-family="sans-serif" font-size="13" lengthAdjust="spacing" textLength="111.9917" x="685.6831" y="286.4717">listarCandidatos(id)</text><polygon fill="#181818" points="1293.2778,317.6797,1303.2778,321.6797,1293.2778,325.6797,1297.2778,321.6797" style="stroke:#181818;stroke-width:1;"/><line style="stroke:#181818;stroke-width:1;" x1="1036.9736" x2="1299.2778" y1="321.6797" y2="321.6797"/><text fill="#000000" font-family="sans-serif" font-size="13" lengthAdjust="spacing" textLength="65.749" x="1043.9736" y="316.8232">findById(id)</text><polygon fill="#181818" points="2457.9053,348.0313,2467.9053,352.0313,2457.9053,356.0313,2461.9053,352.0313" style="stroke:#181818;stroke-width:1;"/><line style="stroke:#181818;stroke-width:1;" x1="1305.2778" x2="2463.9053" y1="352.0313" y2="352.0313"/><text fill="#000000" font-family="sans-serif" font-size="13" lengthAdjust="spacing" textLength="382.186" x="1312.2778" y="347.1748">SELECT * FROM proyectos WHERE id = ? AND archivado = false</text><polygon fill="#181818" points="1316.2778,378.3828,1306.2778,382.3828,1316.2778,386.3828,1312.2778,382.3828" style="stroke:#181818;stroke-width:1;"/><line style="stroke:#181818;stroke-width:1;stroke-dasharray:2.0,2.0;" x1="1310.2778" x2="2468.9053" y1="382.3828" y2="382.3828"/><text fill="#000000" font-family="sans-serif" font-size="13" lengthAdjust="spacing" textLength="149.5889" x="1322.2778" y="377.5264">Resultado de persistencia</text><polygon fill="#181818" points="1047.9736,408.7344,1037.9736,412.7344,1047.9736,416.7344,1043.9736,412.7344" style="stroke:#181818;stroke-width:1;"/><line style="stroke:#181818;stroke-width:1;stroke-dasharray:2.0,2.0;" x1="1041.9736" x2="1304.2778" y1="412.7344" y2="412.7344"/><text fill="#000000" font-family="sans-serif" font-size="13" lengthAdjust="spacing" textLength="51.3018" x="1053.9736" y="407.8779">Proyecto</text><polygon fill="#181818" points="1435.9395,439.0859,1445.9395,443.0859,1435.9395,447.0859,1439.9395,443.0859" style="stroke:#181818;stroke-width:1;"/><line style="stroke:#181818;stroke-width:1;" x1="1036.9736" x2="1441.9395" y1="443.0859" y2="443.0859"/><text fill="#000000" font-family="sans-serif" font-size="13" lengthAdjust="spacing" textLength="331.6206" x="1043.9736" y="438.2295">findByRolAndActivoTrueOrderByNombreCompletoAsc(id)</text><polygon fill="#181818" points="2457.9053,469.4375,2467.9053,473.4375,2457.9053,477.4375,2461.9053,473.4375" style="stroke:#181818;stroke-width:1;"/><line style="stroke:#181818;stroke-width:1;" x1="1447.9395" x2="2463.9053" y1="473.4375" y2="473.4375"/><text fill="#000000" font-family="sans-serif" font-size="13" lengthAdjust="spacing" textLength="997.9658" x="1454.9395" y="468.5811">SELECT * FROM usuarios WHERE rol = 'INVESTIGADOR' AND activo = true AND id NOT IN (SELECT usuario_id FROM proyecto_investigadores WHERE proyecto_id = ?)</text><polygon fill="#181818" points="1458.9395,499.7891,1448.9395,503.7891,1458.9395,507.7891,1454.9395,503.7891" style="stroke:#181818;stroke-width:1;"/><line style="stroke:#181818;stroke-width:1;stroke-dasharray:2.0,2.0;" x1="1452.9395" x2="2468.9053" y1="503.7891" y2="503.7891"/><text fill="#000000" font-family="sans-serif" font-size="13" lengthAdjust="spacing" textLength="149.5889" x="1464.9395" y="498.9326">Resultado de persistencia</text><polygon fill="#181818" points="1047.9736,530.1406,1037.9736,534.1406,1047.9736,538.1406,1043.9736,534.1406" style="stroke:#181818;stroke-width:1;"/><line style="stroke:#181818;stroke-width:1;stroke-dasharray:2.0,2.0;" x1="1041.9736" x2="1446.9395" y1="534.1406" y2="534.1406"/><text fill="#000000" font-family="sans-serif" font-size="13" lengthAdjust="spacing" textLength="65.7681" x="1053.9736" y="529.2842">Candidatos</text><polygon fill="#181818" points="1593.7769,560.4922,1603.7769,564.4922,1593.7769,568.4922,1597.7769,564.4922" style="stroke:#181818;stroke-width:1;"/><line style="stroke:#181818;stroke-width:1;" x1="1036.9736" x2="1599.7769" y1="564.4922" y2="564.4922"/><text fill="#000000" font-family="sans-serif" font-size="13" lengthAdjust="spacing" textLength="106.9453" x="1043.9736" y="559.6357">findAll(candidatos)</text><polygon fill="#181818" points="2457.9053,590.8438,2467.9053,594.8438,2457.9053,598.8438,2461.9053,594.8438" style="stroke:#181818;stroke-width:1;"/><line style="stroke:#181818;stroke-width:1;" x1="1605.7769" x2="2463.9053" y1="594.8438" y2="594.8438"/><text fill="#000000" font-family="sans-serif" font-size="13" lengthAdjust="spacing" textLength="342.4434" x="1612.7769" y="589.9873">SELECT * FROM cargas_trabajo WHERE usuario_id IN (?)</text><polygon fill="#181818" points="1616.7769,621.1953,1606.7769,625.1953,1616.7769,629.1953,1612.7769,625.1953" style="stroke:#181818;stroke-width:1;"/><line style="stroke:#181818;stroke-width:1;stroke-dasharray:2.0,2.0;" x1="1610.7769" x2="2468.9053" y1="625.1953" y2="625.1953"/><text fill="#000000" font-family="sans-serif" font-size="13" lengthAdjust="spacing" textLength="149.5889" x="1622.7769" y="620.3389">Resultado de persistencia</text><polygon fill="#181818" points="1047.9736,651.5469,1037.9736,655.5469,1047.9736,659.5469,1043.9736,655.5469" style="stroke:#181818;stroke-width:1;"/><line style="stroke:#181818;stroke-width:1;stroke-dasharray:2.0,2.0;" x1="1041.9736" x2="1604.7769" y1="655.5469" y2="655.5469"/><text fill="#000000" font-family="sans-serif" font-size="13" lengthAdjust="spacing" textLength="134.4116" x="1053.9736" y="650.6904">Cargas y disponibilidad</text><path d="M1041,668.5469 L1041,694.5469 L1492,694.5469 L1492,678.5469 L1482,668.5469 L1041,668.5469 " fill="#FEFFDD" style="stroke:#181818;stroke-width:0.5;"/><path d="M1482,668.5469 L1482,678.5469 L1492,678.5469 L1482,668.5469 " fill="#FEFFDD" style="stroke:#181818;stroke-width:0.5;"/><text fill="#000000" font-family="sans-serif" font-size="13" lengthAdjust="spacing" textLength="430.6885" x="1047" y="687.042">Responsabilidad interna: evaluarCompatibilidadYRecomendarMenorCarga</text><polygon fill="#181818" points="689.6831,718.25,679.6831,722.25,689.6831,726.25,685.6831,722.25" style="stroke:#181818;stroke-width:1;"/><line style="stroke:#181818;stroke-width:1;stroke-dasharray:2.0,2.0;" x1="683.6831" x2="1030.9736" y1="722.25" y2="722.25"/><text fill="#000000" font-family="sans-serif" font-size="13" lengthAdjust="spacing" textLength="211.7515" x="695.6831" y="717.3936">Lista&lt;CandidatoProyectoResponse&gt;</text><polygon fill="#181818" points="337.6572,764.9531,327.6572,768.9531,337.6572,772.9531,333.6572,768.9531" style="stroke:#181818;stroke-width:1;"/><line style="stroke:#181818;stroke-width:1;stroke-dasharray:2.0,2.0;" x1="331.6572" x2="672.6831" y1="768.9531" y2="768.9531"/><text fill="#000000" font-family="sans-serif" font-size="13" lengthAdjust="spacing" textLength="44.0845" x="343.6572" y="747.7451">200 OK</text><text fill="#000000" font-family="sans-serif" font-size="13" lengthAdjust="spacing" textLength="130.8188" x="343.6572" y="764.0967">Candidatos ordenados</text><polygon fill="#181818" points="82.5239,795.3047,72.5239,799.3047,82.5239,803.3047,78.5239,799.3047" style="stroke:#181818;stroke-width:1;"/><line style="stroke:#181818;stroke-width:1;stroke-dasharray:2.0,2.0;" x1="76.5239" x2="315.6572" y1="799.3047" y2="799.3047"/><text fill="#000000" font-family="sans-serif" font-size="13" lengthAdjust="spacing" textLength="221.1333" x="88.5239" y="794.4482">Presenta candidatos y recomendacion</text><path d="M10,814.3047 L70.1709,814.3047 L70.1709,822.6563 L60.1709,832.6563 L10,832.6563 L10,814.3047 " fill="#EEEEEE" style="stroke:#000000;stroke-width:1.5;"/><rect fill="none" height="1047.9766" style="stroke:#000000;stroke-width:1.5;" width="2528.8223" x="10" y="814.3047"/><text fill="#000000" font-family="sans-serif" font-size="13" font-weight="bold" lengthAdjust="spacing" textLength="15.1709" x="25" y="828.7998">alt</text><text fill="#000000" font-family="sans-serif" font-size="11" font-weight="bold" lengthAdjust="spacing" textLength="116.7407" x="85.1709" y="827.7236">[Coordinador cancela]</text><polygon fill="#181818" points="304.6572,851.0078,314.6572,855.0078,304.6572,859.0078,308.6572,855.0078" style="stroke:#181818;stroke-width:1;"/><line style="stroke:#181818;stroke-width:1;" x1="71.5239" x2="310.6572" y1="855.0078" y2="855.0078"/><text fill="#000000" font-family="sans-serif" font-size="13" lengthAdjust="spacing" textLength="113.4644" x="78.5239" y="850.1514">Cancela asignacion</text><polygon fill="#181818" points="82.5239,881.3594,72.5239,885.3594,82.5239,889.3594,78.5239,885.3594" style="stroke:#181818;stroke-width:1;"/><line style="stroke:#181818;stroke-width:1;stroke-dasharray:2.0,2.0;" x1="76.5239" x2="315.6572" y1="885.3594" y2="885.3594"/><text fill="#000000" font-family="sans-serif" font-size="13" lengthAdjust="spacing" textLength="196.498" x="88.5239" y="880.5029">Conserva PROYECTO_ABIERTO</text><line style="stroke:#000000;stroke-width:1;stroke-dasharray:2.0,2.0;" x1="10" x2="2538.8223" y1="894.3594" y2="894.3594"/><text fill="#000000" font-family="sans-serif" font-size="11" font-weight="bold" lengthAdjust="spacing" textLength="122.8315" x="15" y="905.7783">[Coordinador confirma]</text><polygon fill="#181818" points="304.6572,927.5469,314.6572,931.5469,304.6572,935.5469,308.6572,931.5469" style="stroke:#181818;stroke-width:1;"/><line style="stroke:#181818;stroke-width:1;" x1="71.5239" x2="310.6572" y1="931.5469" y2="931.5469"/><text fill="#000000" font-family="sans-serif" font-size="13" lengthAdjust="spacing" textLength="187.1606" x="78.5239" y="926.6904">Selecciona candidato y confirma</text><polygon fill="#181818" points="656.6831,974.25,666.6831,978.25,656.6831,982.25,660.6831,978.25" style="stroke:#181818;stroke-width:1;"/><line style="stroke:#181818;stroke-width:1;" x1="326.6572" x2="662.6831" y1="978.25" y2="978.25"/><text fill="#000000" font-family="sans-serif" font-size="13" lengthAdjust="spacing" textLength="323.0259" x="333.6572" y="957.042">POST /api/proyectos/{id}/investigadores/{investigadorId}</text><text fill="#000000" font-family="sans-serif" font-size="13" lengthAdjust="spacing" textLength="99.728" x="333.6572" y="973.3936">Cookie de sesion</text><polygon fill="#181818" points="900.2637,1004.6016,910.2637,1008.6016,900.2637,1012.6016,904.2637,1008.6016" style="stroke:#181818;stroke-width:1;"/><line style="stroke:#181818;stroke-width:1;" x1="678.6831" x2="906.2637" y1="1008.6016" y2="1008.6016"/><text fill="#000000" font-family="sans-serif" font-size="13" lengthAdjust="spacing" textLength="209.5806" x="685.6831" y="1003.7451">obtenerSesionActual(authentication)</text><polygon fill="#181818" points="689.6831,1034.9531,679.6831,1038.9531,689.6831,1042.9531,685.6831,1038.9531" style="stroke:#181818;stroke-width:1;"/><line style="stroke:#181818;stroke-width:1;stroke-dasharray:2.0,2.0;" x1="683.6831" x2="911.2637" y1="1038.9531" y2="1038.9531"/><text fill="#000000" font-family="sans-serif" font-size="13" lengthAdjust="spacing" textLength="142.3779" x="695.6831" y="1034.0967">Coordinador autenticado</text><polygon fill="#181818" points="1014.9736,1065.3047,1024.9736,1069.3047,1014.9736,1073.3047,1018.9736,1069.3047" style="stroke:#181818;stroke-width:1;"/><line style="stroke:#181818;stroke-width:1;" x1="678.6831" x2="1020.9736" y1="1069.3047" y2="1069.3047"/><text fill="#000000" font-family="sans-serif" font-size="13" lengthAdjust="spacing" textLength="222.5679" x="685.6831" y="1064.4482">agregarInvestigador(id, investigadorId)</text><polygon fill="#181818" points="1293.2778,1095.6563,1303.2778,1099.6563,1293.2778,1103.6563,1297.2778,1099.6563" style="stroke:#181818;stroke-width:1;"/><line style="stroke:#181818;stroke-width:1;" x1="1036.9736" x2="1299.2778" y1="1099.6563" y2="1099.6563"/><text fill="#000000" font-family="sans-serif" font-size="13" lengthAdjust="spacing" textLength="65.749" x="1043.9736" y="1094.7998">findById(id)</text><polygon fill="#181818" points="2457.9053,1126.0078,2467.9053,1130.0078,2457.9053,1134.0078,2461.9053,1130.0078" style="stroke:#181818;stroke-width:1;"/><line style="stroke:#181818;stroke-width:1;" x1="1305.2778" x2="2463.9053" y1="1130.0078" y2="1130.0078"/><text fill="#000000" font-family="sans-serif" font-size="13" lengthAdjust="spacing" textLength="382.186" x="1312.2778" y="1125.1514">SELECT * FROM proyectos WHERE id = ? AND archivado = false</text><polygon fill="#181818" points="1316.2778,1156.3594,1306.2778,1160.3594,1316.2778,1164.3594,1312.2778,1160.3594" style="stroke:#181818;stroke-width:1;"/><line style="stroke:#181818;stroke-width:1;stroke-dasharray:2.0,2.0;" x1="1310.2778" x2="2468.9053" y1="1160.3594" y2="1160.3594"/><text fill="#000000" font-family="sans-serif" font-size="13" lengthAdjust="spacing" textLength="149.5889" x="1322.2778" y="1155.5029">Resultado de persistencia</text><polygon fill="#181818" points="1047.9736,1186.7109,1037.9736,1190.7109,1047.9736,1194.7109,1043.9736,1190.7109" style="stroke:#181818;stroke-width:1;"/><line style="stroke:#181818;stroke-width:1;stroke-dasharray:2.0,2.0;" x1="1041.9736" x2="1304.2778" y1="1190.7109" y2="1190.7109"/><text fill="#000000" font-family="sans-serif" font-size="13" lengthAdjust="spacing" textLength="92.4854" x="1053.9736" y="1185.8545">Proyecto / vacio</text><polygon fill="#181818" points="1435.9395,1217.0625,1445.9395,1221.0625,1435.9395,1225.0625,1439.9395,1221.0625" style="stroke:#181818;stroke-width:1;"/><line style="stroke:#181818;stroke-width:1;" x1="1036.9736" x2="1441.9395" y1="1221.0625" y2="1221.0625"/><text fill="#000000" font-family="sans-serif" font-size="13" lengthAdjust="spacing" textLength="153.9116" x="1043.9736" y="1216.2061">findById(id, investigadorId)</text><polygon fill="#181818" points="2457.9053,1247.4141,2467.9053,1251.4141,2457.9053,1255.4141,2461.9053,1251.4141" style="stroke:#181818;stroke-width:1;"/><line style="stroke:#181818;stroke-width:1;" x1="1447.9395" x2="2463.9053" y1="1251.4141" y2="1251.4141"/><text fill="#000000" font-family="sans-serif" font-size="13" lengthAdjust="spacing" textLength="514.6299" x="1454.9395" y="1246.5576">SELECT * FROM usuarios WHERE id = ? AND rol = 'INVESTIGADOR' AND activo = true</text><polygon fill="#181818" points="1458.9395,1277.7656,1448.9395,1281.7656,1458.9395,1285.7656,1454.9395,1281.7656" style="stroke:#181818;stroke-width:1;"/><line style="stroke:#181818;stroke-width:1;stroke-dasharray:2.0,2.0;" x1="1452.9395" x2="2468.9053" y1="1281.7656" y2="1281.7656"/><text fill="#000000" font-family="sans-serif" font-size="13" lengthAdjust="spacing" textLength="149.5889" x="1464.9395" y="1276.9092">Resultado de persistencia</text><polygon fill="#181818" points="1047.9736,1308.1172,1037.9736,1312.1172,1047.9736,1316.1172,1043.9736,1312.1172" style="stroke:#181818;stroke-width:1;"/><line style="stroke:#181818;stroke-width:1;stroke-dasharray:2.0,2.0;" x1="1041.9736" x2="1446.9395" y1="1312.1172" y2="1312.1172"/><text fill="#000000" font-family="sans-serif" font-size="13" lengthAdjust="spacing" textLength="112.0044" x="1053.9736" y="1307.2607">Investigador / vacio</text><polygon fill="#181818" points="1593.7769,1338.4688,1603.7769,1342.4688,1593.7769,1346.4688,1597.7769,1342.4688" style="stroke:#181818;stroke-width:1;"/><line style="stroke:#181818;stroke-width:1;" x1="1036.9736" x2="1599.7769" y1="1342.4688" y2="1342.4688"/><text fill="#000000" font-family="sans-serif" font-size="13" lengthAdjust="spacing" textLength="170.5234" x="1043.9736" y="1337.6123">findByUsuario(investigadorId)</text><polygon fill="#181818" points="2457.9053,1368.8203,2467.9053,1372.8203,2457.9053,1376.8203,2461.9053,1372.8203" style="stroke:#181818;stroke-width:1;"/><line style="stroke:#181818;stroke-width:1;" x1="1605.7769" x2="2463.9053" y1="1372.8203" y2="1372.8203"/><text fill="#000000" font-family="sans-serif" font-size="13" lengthAdjust="spacing" textLength="328.377" x="1612.7769" y="1367.9639">SELECT * FROM cargas_trabajo WHERE usuario_id = ?</text><polygon fill="#181818" points="1616.7769,1399.1719,1606.7769,1403.1719,1616.7769,1407.1719,1612.7769,1403.1719" style="stroke:#181818;stroke-width:1;"/><line style="stroke:#181818;stroke-width:1;stroke-dasharray:2.0,2.0;" x1="1610.7769" x2="2468.9053" y1="1403.1719" y2="1403.1719"/><text fill="#000000" font-family="sans-serif" font-size="13" lengthAdjust="spacing" textLength="149.5889" x="1622.7769" y="1398.3154">Resultado de persistencia</text><polygon fill="#181818" points="1047.9736,1429.5234,1037.9736,1433.5234,1047.9736,1437.5234,1043.9736,1433.5234" style="stroke:#181818;stroke-width:1;"/><line style="stroke:#181818;stroke-width:1;stroke-dasharray:2.0,2.0;" x1="1041.9736" x2="1604.7769" y1="1433.5234" y2="1433.5234"/><text fill="#000000" font-family="sans-serif" font-size="13" lengthAdjust="spacing" textLength="203.7915" x="1053.9736" y="1428.667">Carga y disponibilidad actualizadas</text><path d="M1041,1446.5234 L1041,1472.5234 L1438,1472.5234 L1438,1456.5234 L1428,1446.5234 L1041,1446.5234 " fill="#FEFFDD" style="stroke:#181818;stroke-width:0.5;"/><path d="M1428,1446.5234 L1428,1456.5234 L1438,1456.5234 L1428,1446.5234 " fill="#FEFFDD" style="stroke:#181818;stroke-width:0.5;"/><text fill="#000000" font-family="sans-serif" font-size="13" lengthAdjust="spacing" textLength="376.5049" x="1047" y="1465.0186">Responsabilidad interna: reevaluarCompatibilidadYDisponibilidad</text><path d="M20,1484.875 L80.1709,1484.875 L80.1709,1493.2266 L70.1709,1503.2266 L20,1503.2266 L20,1484.875 " fill="#EEEEEE" style="stroke:#000000;stroke-width:1.5;"/><rect fill="none" height="370.4063" style="stroke:#000000;stroke-width:1.5;" width="2508.8223" x="20" y="1484.875"/><text fill="#000000" font-family="sans-serif" font-size="13" font-weight="bold" lengthAdjust="spacing" textLength="15.1709" x="35" y="1499.3701">alt</text><text fill="#000000" font-family="sans-serif" font-size="11" font-weight="bold" lengthAdjust="spacing" textLength="307.436" x="95.1709" y="1498.2939">[Proyecto no disponible, candidato invalido o ya asociado]</text><polygon fill="#181818" points="689.6831,1521.5781,679.6831,1525.5781,689.6831,1529.5781,685.6831,1525.5781" style="stroke:#181818;stroke-width:1;"/><line style="stroke:#181818;stroke-width:1;stroke-dasharray:2.0,2.0;" x1="683.6831" x2="1030.9736" y1="1525.5781" y2="1525.5781"/><text fill="#000000" font-family="sans-serif" font-size="13" lengthAdjust="spacing" textLength="235.5806" x="695.6831" y="1520.7217">ValidacionException / ConflictoException</text><polygon fill="#181818" points="337.6572,1551.9297,327.6572,1555.9297,337.6572,1559.9297,333.6572,1555.9297" style="stroke:#181818;stroke-width:1;"/><line style="stroke:#181818;stroke-width:1;stroke-dasharray:2.0,2.0;" x1="331.6572" x2="672.6831" y1="1555.9297" y2="1555.9297"/><text fill="#000000" font-family="sans-serif" font-size="13" lengthAdjust="spacing" textLength="179.9497" x="343.6572" y="1551.0732">400 Bad Request / 409 Conflict</text><polygon fill="#181818" points="82.5239,1582.2813,72.5239,1586.2813,82.5239,1590.2813,78.5239,1586.2813" style="stroke:#181818;stroke-width:1;"/><line style="stroke:#181818;stroke-width:1;stroke-dasharray:2.0,2.0;" x1="76.5239" x2="315.6572" y1="1586.2813" y2="1586.2813"/><text fill="#000000" font-family="sans-serif" font-size="13" lengthAdjust="spacing" textLength="216.0552" x="88.5239" y="1581.4248">Presenta error y conserva candidatos</text><line style="stroke:#000000;stroke-width:1;stroke-dasharray:2.0,2.0;" x1="20" x2="2528.8223" y1="1595.2813" y2="1595.2813"/><text fill="#000000" font-family="sans-serif" font-size="11" font-weight="bold" lengthAdjust="spacing" textLength="95.9438" x="25" y="1606.7002">[Candidato valido]</text><polygon fill="#181818" points="1293.2778,1628.4688,1303.2778,1632.4688,1293.2778,1636.4688,1297.2778,1632.4688" style="stroke:#181818;stroke-width:1;"/><line style="stroke:#181818;stroke-width:1;" x1="1031.9736" x2="1299.2778" y1="1632.4688" y2="1632.4688"/><text fill="#000000" font-family="sans-serif" font-size="13" lengthAdjust="spacing" textLength="249.3042" x="1038.9736" y="1627.6123">save(id, investigadorId, fecha, coordinador)</text><polygon fill="#181818" points="2457.9053,1675.1719,2467.9053,1679.1719,2457.9053,1683.1719,2461.9053,1679.1719" style="stroke:#181818;stroke-width:1;"/><line style="stroke:#181818;stroke-width:1;" x1="1305.2778" x2="2463.9053" y1="1679.1719" y2="1679.1719"/><text fill="#000000" font-family="sans-serif" font-size="13" lengthAdjust="spacing" textLength="462.4204" x="1312.2778" y="1657.9639">INSERT INTO proyecto_investigadores (proyecto_id, usuario_id) VALUES (?, ?)</text><text fill="#000000" font-family="sans-serif" font-size="13" lengthAdjust="spacing" textLength="844.562" x="1312.2778" y="1674.3154">INSERT INTO movimientos_participacion_proyecto (proyecto_id, investigador_id, tipo, responsable_id, fecha) VALUES (?, ?, 'ASIGNACION', ?, ?)</text><polygon fill="#181818" points="1316.2778,1705.5234,1306.2778,1709.5234,1316.2778,1713.5234,1312.2778,1709.5234" style="stroke:#181818;stroke-width:1;"/><line style="stroke:#181818;stroke-width:1;stroke-dasharray:2.0,2.0;" x1="1310.2778" x2="2468.9053" y1="1709.5234" y2="1709.5234"/><text fill="#000000" font-family="sans-serif" font-size="13" lengthAdjust="spacing" textLength="149.5889" x="1322.2778" y="1704.667">Resultado de persistencia</text><polygon fill="#181818" points="1042.9736,1735.875,1032.9736,1739.875,1042.9736,1743.875,1038.9736,1739.875" style="stroke:#181818;stroke-width:1;"/><line style="stroke:#181818;stroke-width:1;stroke-dasharray:2.0,2.0;" x1="1036.9736" x2="1304.2778" y1="1739.875" y2="1739.875"/><text fill="#000000" font-family="sans-serif" font-size="13" lengthAdjust="spacing" textLength="111.998" x="1048.9736" y="1735.0186">Participacion activa</text><polygon fill="#181818" points="684.6831,1766.2266,674.6831,1770.2266,684.6831,1774.2266,680.6831,1770.2266" style="stroke:#181818;stroke-width:1;"/><line style="stroke:#181818;stroke-width:1;stroke-dasharray:2.0,2.0;" x1="678.6831" x2="1030.9736" y1="1770.2266" y2="1770.2266"/><text fill="#000000" font-family="sans-serif" font-size="13" lengthAdjust="spacing" textLength="150.3062" x="690.6831" y="1765.3701">ProyectoDetalleResponse</text><polygon fill="#181818" points="337.6572,1812.9297,327.6572,1816.9297,337.6572,1820.9297,333.6572,1816.9297" style="stroke:#181818;stroke-width:1;"/><line style="stroke:#181818;stroke-width:1;stroke-dasharray:2.0,2.0;" x1="331.6572" x2="672.6831" y1="1816.9297" y2="1816.9297"/><text fill="#000000" font-family="sans-serif" font-size="13" lengthAdjust="spacing" textLength="44.0845" x="343.6572" y="1795.7217">200 OK</text><text fill="#000000" font-family="sans-serif" font-size="13" lengthAdjust="spacing" textLength="126.4707" x="343.6572" y="1812.0732">Investigador asociado</text><polygon fill="#181818" points="82.5239,1843.2813,72.5239,1847.2813,82.5239,1851.2813,78.5239,1847.2813" style="stroke:#181818;stroke-width:1;"/><line style="stroke:#181818;stroke-width:1;stroke-dasharray:2.0,2.0;" x1="76.5239" x2="315.6572" y1="1847.2813" y2="1847.2813"/><text fill="#000000" font-family="sans-serif" font-size="13" lengthAdjust="spacing" textLength="192.8926" x="88.5239" y="1842.4248">Presenta PROYECTO_ABIERTO</text><!--SRC=[hLVRRkCs47tNLmpo4hjmaA3ObnhjBkJBfaQpLc1xKomGm62aiSDM9bMIDkeM- -yTKZVAahT9MWE-aSEPEOSpXvJX9aMOSBPLRCSWGT0Oxr74dC4LX5k5MwQ0YmDgmxSiaGeOP4eUCJOo21XzAXXBgH8kx6oGCMLup3Cc35mKwsVUSWgLoksZw2sG5lSlW6dugAGmA9BculiYofWcbKnJLBHgcIakjZ2IibWRPhovR8cQIx54TU0nEfDyfDjvqyxzxZPSO2Or9xH7Psl_DWq_wprJ_DJEXzvUCsPgorQAFR7VJXUwARSYOOOCDCB5o7xI5asOaTfPJKP1uB4FL-yhCeUmb2b5CWnOnpRQhUC7Ph1cl_nXlH2jGxYThk2QPVowt71z_JTFlbx7J2GyiKay2eh-EyUyS1pDbL-xC_Istl8T689y8l-eyhzXRFOixR6zUKP1d313W_qWduIhCWaV7jdcfeciNRjD6qBAjM5gNANMuqc_JgRSs-BRhhJa3c73HJ8wpX9dReVir6H4x4tlfkCLV0SV5z6dgkGr_FhpT345di1Fy072-GIOYfyfI29fPCDIZS5avDBF0onGxrDZfucZ39McF5r_5T5y36Mn-McULb2PyaAceKX22r2kr1uZbQ0Q7UTozwHmB7TPYaQ6EdR0JfrqWzpd9LnYfAOZI9Up-SDqkPhTXfDeSPaZTa5fpb1SDq9qpACLpERGArmMljOqqo1mxHSXbg7gMSThlwIm3VuydMsCFhLrOVZaLbsMingcQQykxdvGJNVp5TjflJPv0nTGFE2MZXgB5-iy22zYCtiR2OwGS9r9mPzuIZacWP1Ksufldmt8JMrE_ibAiyAC6j-W4cm8U60ffMVBWzgjcFwom5ZkgF6P-eH2AXUiPgbin3lRO3zMFDR2w6BX-o31Lhkv9cs8qlStDn3zGhfHqGpKtsZxM_iUh7hKWcJfgtN0DWfgKW86zMuHEQh44JiXIar3FCWqnfG5GA-pcZdEZKXR-LRaVgpz-Kp65hiwCBXVH5-eDg9rE9fD5wieG9A2PW9IRBZQ_Ki6Iqmnje4zS8IjiRYbrFVHibkgczr6Ozx_MVArGx-j_yOks84twBXTzb8jRuGeQfYrxmuaPGDe8kWtyothBW_-BQct5l-Jt5jNBvJyEcgNxCCr76pDdQP_xWXmKBePUPFWUoXVflq-zDT8TNU6FYN-x3bQJiHxT2okOBqkGlwZb1ClFjWNQVb9s9QUj-JSaakjnFzY2TElrdQ5tUe-QHuPhbz86gkY4x9A8yM19pf48oL3m4X_h29A0bKqQsCdokv-iDPECwT_nfXP6Q2j8u7Sq3tKo6gmyj1nO9HJxOFZ7HqS8yAxm3_sjBla-TtD3vNtBf-bU7rRmAkZ19MYMdDAcojwVROuDxcUL-patBJPA4L0imDsjES0DXW_C-AvJg9VUV4BT3PVqZb2NwlexEsfvrsS1bwzzk4XlFiyNTBzOq3NgKVXEzl90zznmYprkdeSiTksBhsT-FM3kW73CpcWWYigCKKtwe0r8m_WCbpERkVXU1RDBzt0XnhjAqJpZ73wsHUdmFdwB2j-WeRHusHvSNbREPRtc8PGjNhaxTNOkawu4gIdDFlst9Qk_W40]--></g></svg>