<svg xmlns="http://www.w3.org/2000/svg" xmlns:xlink="http://www.w3.org/1999/xlink" contentStyleType="text/css" data-diagram-type="STATE" height="1087px" preserveAspectRatio="none" style="width:2327px;height:1087px;background:#FFFFFF;" version="1.1" viewBox="0 0 2327 1087" width="2327px" zoomAndPan="magnify"><?plantuml 1.2026.5?><defs/><g><g class="title" data-source-line="2"><text fill="#000000" font-family="sans-serif" font-size="14" font-weight="700" lengthAdjust="spacing" textLength="274.6133" x="1022.7104" y="24.5332">Diagrama de contexto de un investigador</text></g><g class="start_entity" data-qualified-name=".start." data-source-line="6" id="ent0001"><ellipse cx="16" cy="422.6094" fill="#222222" rx="10" ry="10" style="stroke:#222222;stroke-width:1;"/></g><g class="entity" data-qualified-name="SESION_CERRADA" data-source-line="6" id="ent0002"><rect fill="#F1F1F1" height="50" rx="12.5" ry="12.5" style="stroke:#181818;stroke-width:0.5;" width="149.1445" x="87" y="397.6094"/><line style="stroke:#181818;stroke-width:0.5;" x1="87" x2="236.1445" y1="425.2187" y2="425.2187"/><text fill="#000000" font-family="sans-serif" font-size="14" lengthAdjust="spacing" textLength="129.1445" x="97" y="417.1426">SESION_CERRADA</text></g><g class="entity" data-qualified-name="PANEL_PRINCIPAL_ABIERTO" data-source-line="7" id="ent0004"><rect fill="#F1F1F1" height="50" rx="12.5" ry="12.5" style="stroke:#181818;stroke-width:0.5;" width="216.8477" x="380" y="455.6094"/><line style="stroke:#181818;stroke-width:0.5;" x1="380" x2="596.8477" y1="483.2187" y2="483.2187"/><text fill="#000000" font-family="sans-serif" font-size="14" lengthAdjust="spacing" textLength="196.8477" x="390" y="475.1426">PANEL_PRINCIPAL_ABIERTO</text></g><g class="entity" data-qualified-name="OPCIONES_PERFIL_ABIERTO" data-source-line="10" id="ent0007"><rect fill="#F1F1F1" height="50" rx="12.5" ry="12.5" style="stroke:#181818;stroke-width:0.5;" width="219.9443" x="868.5" y="107.6094"/><line style="stroke:#181818;stroke-width:0.5;" x1="868.5" x2="1088.4443" y1="135.2187" y2="135.2187"/><text fill="#000000" font-family="sans-serif" font-size="14" lengthAdjust="spacing" textLength="199.9443" x="878.5" y="127.1426">OPCIONES_PERFIL_ABIERTO</text></g><g class="entity" data-qualified-name="OPCIONES_CARGA_TRABAJO_ABIERTAS" data-source-line="11" id="ent0009"><rect fill="#F1F1F1" height="50" rx="12.5" ry="12.5" style="stroke:#181818;stroke-width:0.5;" width="300.8545" x="828" y="242.6094"/><line style="stroke:#181818;stroke-width:0.5;" x1="828" x2="1128.8545" y1="270.2187" y2="270.2187"/><text fill="#000000" font-family="sans-serif" font-size="14" lengthAdjust="spacing" textLength="280.8545" x="838" y="262.1426">OPCIONES_CARGA_TRABAJO_ABIERTAS</text></g><g class="entity" data-qualified-name="PROYECTOS_ABIERTOS" data-source-line="12" id="ent0011"><rect fill="#F1F1F1" height="50" rx="12.5" ry="12.5" style="stroke:#181818;stroke-width:0.5;" width="186.4824" x="885.5" y="857.6094"/><line style="stroke:#181818;stroke-width:0.5;" x1="885.5" x2="1071.9824" y1="885.2187" y2="885.2187"/><text fill="#000000" font-family="sans-serif" font-size="14" lengthAdjust="spacing" textLength="166.4824" x="895.5" y="877.1426">PROYECTOS_ABIERTOS</text></g><g class="entity" data-qualified-name="INVESTIGADORES_ABIERTOS" data-source-line="13" id="ent0013"><rect fill="#F1F1F1" height="50" rx="12.5" ry="12.5" style="stroke:#181818;stroke-width:0.5;" width="223.0479" x="1713" y="751.6094"/><line style="stroke:#181818;stroke-width:0.5;" x1="1713" x2="1936.0479" y1="779.2188" y2="779.2188"/><text fill="#000000" font-family="sans-serif" font-size="14" lengthAdjust="spacing" textLength="203.0479" x="1723" y="771.1426">INVESTIGADORES_ABIERTOS</text></g><g class="entity" data-qualified-name="MIS_PUBLICACIONES_ABIERTAS" data-source-line="14" id="ent0015"><rect fill="#F1F1F1" height="50" rx="12.5" ry="12.5" style="stroke:#181818;stroke-width:0.5;" width="243.2891" x="857" y="455.6094"/><line style="stroke:#181818;stroke-width:0.5;" x1="857" x2="1100.2891" y1="483.2187" y2="483.2187"/><text fill="#000000" font-family="sans-serif" font-size="14" lengthAdjust="spacing" textLength="223.2891" x="867" y="475.1426">MIS_PUBLICACIONES_ABIERTAS</text></g><g class="entity" data-qualified-name="PUBLICACIONES_ABIERTAS" data-source-line="15" id="ent0017"><rect fill="#F1F1F1" height="50" rx="12.5" ry="12.5" style="stroke:#181818;stroke-width:0.5;" width="210.6133" x="873" y="590.6094"/><line style="stroke:#181818;stroke-width:0.5;" x1="873" x2="1083.6133" y1="618.2188" y2="618.2188"/><text fill="#000000" font-family="sans-serif" font-size="14" lengthAdjust="spacing" textLength="190.6133" x="883" y="610.1426">PUBLICACIONES_ABIERTAS</text></g><g class="entity" data-qualified-name="RECOMPENSAS_ABIERTAS" data-source-line="16" id="ent0019"><rect fill="#F1F1F1" height="50" rx="12.5" ry="12.5" style="stroke:#181818;stroke-width:0.5;" width="205.9375" x="875.5" y="335.6094"/><line style="stroke:#181818;stroke-width:0.5;" x1="875.5" x2="1081.4375" y1="363.2187" y2="363.2187"/><text fill="#000000" font-family="sans-serif" font-size="14" lengthAdjust="spacing" textLength="185.9375" x="885.5" y="355.1426">RECOMPENSAS_ABIERTAS</text></g><g class="entity" data-qualified-name="PUBLICACION_ABIERTA" data-source-line="27" id="ent0026"><rect fill="#F1F1F1" height="50" rx="12.5" ry="12.5" style="stroke:#181818;stroke-width:0.5;" width="182.5996" x="1337.5" y="590.6094"/><line style="stroke:#181818;stroke-width:0.5;" x1="1337.5" x2="1520.0996" y1="618.2188" y2="618.2188"/><text fill="#000000" font-family="sans-serif" font-size="14" lengthAdjust="spacing" textLength="162.5996" x="1347.5" y="610.1426">PUBLICACION_ABIERTA</text></g><g class="entity" data-qualified-name="MI_PUBLICACION_ABIERTA" data-source-line="32" id="ent0031"><rect fill="#F1F1F1" height="50" rx="12.5" ry="12.5" style="stroke:#181818;stroke-width:0.5;" width="205.9375" x="1326" y="415.6094"/><line style="stroke:#181818;stroke-width:0.5;" x1="1326" x2="1531.9375" y1="443.2187" y2="443.2187"/><text fill="#000000" font-family="sans-serif" font-size="14" lengthAdjust="spacing" textLength="185.9375" x="1336" y="435.1426">MI_PUBLICACION_ABIERTA</text></g><g class="entity" data-qualified-name="PROYECTO_ABIERTO" data-source-line="39" id="ent0038"><rect fill="#F1F1F1" height="50" rx="12.5" ry="12.5" style="stroke:#181818;stroke-width:0.5;" width="167.8066" x="1345" y="928.6094"/><line style="stroke:#181818;stroke-width:0.5;" x1="1345" x2="1512.8066" y1="956.2187" y2="956.2187"/><text fill="#000000" font-family="sans-serif" font-size="14" lengthAdjust="spacing" textLength="147.8066" x="1355" y="948.1426">PROYECTO_ABIERTO</text></g><g class="entity" data-qualified-name="RECOMPENSA_ABIERTA" data-source-line="42" id="ent0041"><rect fill="#F1F1F1" height="50" rx="12.5" ry="12.5" style="stroke:#181818;stroke-width:0.5;" width="187.2617" x="1335.5" y="263.6094"/><line style="stroke:#181818;stroke-width:0.5;" x1="1335.5" x2="1522.7617" y1="291.2187" y2="291.2187"/><text fill="#000000" font-family="sans-serif" font-size="14" lengthAdjust="spacing" textLength="167.2617" x="1345.5" y="283.1426">RECOMPENSA_ABIERTA</text></g><g class="entity" data-qualified-name="ENTREGABLES_ABIERTOS" data-source-line="47" id="ent0045"><rect fill="#F1F1F1" height="50" rx="12.5" ry="12.5" style="stroke:#181818;stroke-width:0.5;" width="202.0547" x="1723.5" y="984.6094"/><line style="stroke:#181818;stroke-width:0.5;" x1="1723.5" x2="1925.5547" y1="1012.2187" y2="1012.2187"/><text fill="#000000" font-family="sans-serif" font-size="14" lengthAdjust="spacing" textLength="182.0547" x="1733.5" y="1004.1426">ENTREGABLES_ABIERTOS</text></g><g class="entity" data-qualified-name="ENTREGABLE_ABIERTO" data-source-line="48" id="ent0047"><rect fill="#F1F1F1" height="50" rx="12.5" ry="12.5" style="stroke:#181818;stroke-width:0.5;" width="183.3789" x="2123" y="975.6094"/><line style="stroke:#181818;stroke-width:0.5;" x1="2123" x2="2306.3789" y1="1003.2187" y2="1003.2187"/><text fill="#000000" font-family="sans-serif" font-size="14" lengthAdjust="spacing" textLength="163.3789" x="2133" y="995.1426">ENTREGABLE_ABIERTO</text></g><g class="entity" data-qualified-name="INVESTIGADOR_ABIERTO" data-source-line="58" id="ent0056"><rect fill="#F1F1F1" height="50" rx="12.5" ry="12.5" style="stroke:#181818;stroke-width:0.5;" width="195.0342" x="2117" y="771.6094"/><line style="stroke:#181818;stroke-width:0.5;" x1="2117" x2="2312.0342" y1="799.2188" y2="799.2188"/><text fill="#000000" font-family="sans-serif" font-size="14" lengthAdjust="spacing" textLength="175.0342" x="2127" y="791.1426">INVESTIGADOR_ABIERTO</text></g><!--link *start* to SESION_CERRADA--><g class="link" data-entity-1="ent0001" data-entity-2="ent0002" data-link-type="dependency" data-source-line="6" id="lnk3"><path d="M26.42,422.6094 C39.07,422.6094 57.77,422.6094 81.77,422.6094" fill="none" id="*start*-to-SESION_CERRADA" style="stroke:#181818;stroke-width:1;"/><polygon fill="#181818" points="86.77,422.6094,77.77,418.6094,81.77,422.6094,77.77,426.6094,86.77,422.6094" style="stroke:#181818;stroke-width:1;stroke-linejoin:miter;stroke-miterlimit:10;"/></g><!--link SESION_CERRADA to PANEL_PRINCIPAL_ABIERTO--><g class="link" data-entity-1="ent0002" data-entity-2="ent0004" data-link-type="dependency" data-source-line="7" id="lnk5"><path d="M194.93,447.8394 C214.37,461.3394 240.24,476.5894 266,483.6094 C302.27,493.4994 338.1338,495.5942 374.8038,494.1642" fill="none" id="SESION_CERRADA-to-PANEL_PRINCIPAL_ABIERTO" style="stroke:#181818;stroke-width:1;"/><polygon fill="#181818" points="379.8,493.9694,370.651,490.3231,374.8038,494.1642,370.9627,498.317,379.8,493.9694" style="stroke:#181818;stroke-width:1;stroke-linejoin:miter;stroke-miterlimit:10;"/><text fill="#000000" font-family="sans-serif" font-size="13" lengthAdjust="spacing" textLength="82.3608" x="267" y="480.1045">iniciarSesion()</text></g><!--link PANEL_PRINCIPAL_ABIERTO to SESION_CERRADA--><g class="link" data-entity-1="ent0004" data-entity-2="ent0002" data-link-type="dependency" data-source-line="8" id="lnk6"><path d="M379.82,461.3994 C332.73,452.9894 283.5922,444.2178 241.1722,436.6478" fill="none" id="PANEL_PRINCIPAL_ABIERTO-to-SESION_CERRADA" style="stroke:#181818;stroke-width:1;"/><polygon fill="#181818" points="236.25,435.7694,244.4073,441.2883,241.1722,436.6478,245.8127,433.4127,236.25,435.7694" style="stroke:#181818;stroke-width:1;stroke-linejoin:miter;stroke-miterlimit:10;"/><text fill="#000000" font-family="sans-serif" font-size="13" lengthAdjust="spacing" textLength="82.3545" x="267" y="438.1045">cerrarSesion()</text></g><!--link PANEL_PRINCIPAL_ABIERTO to OPCIONES_PERFIL_ABIERTO--><g class="link" data-entity-1="ent0004" data-entity-2="ent0007" data-link-type="dependency" data-source-line="10" id="lnk8"><path d="M492.37,455.4094 C500.7,395.0494 530.79,241.9794 627,171.6094 C664.37,144.2794 774.932,135.7708 863.252,133.2708" fill="none" id="PANEL_PRINCIPAL_ABIERTO-to-OPCIONES_PERFIL_ABIERTO" style="stroke:#181818;stroke-width:1;"/><polygon fill="#181818" points="868.25,133.1294,859.1404,129.3856,863.252,133.2708,859.3668,137.3824,868.25,133.1294" style="stroke:#181818;stroke-width:1;stroke-linejoin:miter;stroke-miterlimit:10;"/><text fill="#000000" font-family="sans-serif" font-size="13" lengthAdjust="spacing" textLength="119.2026" x="653" y="133.1045">abrirOpcionesPerfil()</text></g><!--link OPCIONES_PERFIL_ABIERTO to PANEL_PRINCIPAL_ABIERTO--><g class="link" data-entity-1="ent0007" data-entity-2="ent0004" data-link-type="dependency" data-source-line="22" id="lnk23"><path d="M882.37,157.7094 C864,163.7194 845.14,170.7194 828,178.6094 C813.66,185.2094 812.54,191.4694 798,197.6094 C726.01,228.0394 689.47,191.6394 627,238.6094 C551.69,295.2394 512.7746,401.2226 497.8146,450.7926" fill="none" id="OPCIONES_PERFIL_ABIERTO-to-PANEL_PRINCIPAL_ABIERTO" style="stroke:#181818;stroke-width:1;"/><polygon fill="#181818" points="496.37,455.5794,502.7997,448.1189,497.8146,450.7926,495.1409,445.8075,496.37,455.5794" style="stroke:#181818;stroke-width:1;stroke-linejoin:miter;stroke-miterlimit:10;"/><text fill="#000000" font-family="sans-serif" font-size="13" lengthAdjust="spacing" textLength="117.7681" x="654" y="194.1045">abrirPanelPrincipal()</text></g><!--link PANEL_PRINCIPAL_ABIERTO to OPCIONES_CARGA_TRABAJO_ABIERTAS--><g class="link" data-entity-1="ent0004" data-entity-2="ent0009" data-link-type="dependency" data-source-line="11" id="lnk10"><path d="M507.61,455.5894 C531.39,424.6894 576.13,372.8594 627,345.6094 C695.46,308.9294 722.18,326.4594 798,309.6094 C822.06,304.2694 843.0107,299.4752 867.3607,293.7952" fill="none" id="PANEL_PRINCIPAL_ABIERTO-to-OPCIONES_CARGA_TRABAJO_ABIERTAS" style="stroke:#181818;stroke-width:1;"/><polygon fill="#181818" points="872.23,292.6594,862.5566,290.8084,867.3607,293.7952,864.374,298.5993,872.23,292.6594" style="stroke:#181818;stroke-width:1;stroke-linejoin:miter;stroke-miterlimit:10;"/><text fill="#000000" font-family="sans-serif" font-size="13" lengthAdjust="spacing" textLength="169.0698" x="628" y="306.1045">abrirOpcionesCargaTrabajo()</text></g><!--link OPCIONES_CARGA_TRABAJO_ABIERTAS to PANEL_PRINCIPAL_ABIERTO--><g class="link" data-entity-1="ent0009" data-entity-2="ent0004" data-link-type="dependency" data-source-line="25" id="lnk25"><path d="M827.86,263.4694 C748.78,263.7594 661.15,268.7594 627,287.6094 C558.93,325.1894 518.308,407.8495 500.728,450.9595" fill="none" id="OPCIONES_CARGA_TRABAJO_ABIERTAS-to-PANEL_PRINCIPAL_ABIERTO" style="stroke:#181818;stroke-width:1;"/><polygon fill="#181818" points="498.84,455.5894,505.9423,448.7661,500.728,450.9595,498.5346,445.7453,498.84,455.5894" style="stroke:#181818;stroke-width:1;stroke-linejoin:miter;stroke-miterlimit:10;"/><text fill="#000000" font-family="sans-serif" font-size="13" lengthAdjust="spacing" textLength="117.7681" x="654" y="261.1045">abrirPanelPrincipal()</text></g><!--link PANEL_PRINCIPAL_ABIERTO to PROYECTOS_ABIERTOS--><g class="link" data-entity-1="ent0004" data-entity-2="ent0011" data-link-type="dependency" data-source-line="12" id="lnk12"><path d="M488.95,505.8194 C488.87,579.4194 499.95,794.5694 627,885.6094 C705.9,942.1494 817.6925,928.295 894.4225,908.895" fill="none" id="PANEL_PRINCIPAL_ABIERTO-to-PROYECTOS_ABIERTOS" style="stroke:#181818;stroke-width:1;"/><polygon fill="#181818" points="899.27,907.6694,889.5641,905.9975,894.4225,908.895,891.5251,913.7534,899.27,907.6694" style="stroke:#181818;stroke-width:1;stroke-linejoin:miter;stroke-miterlimit:10;"/><text fill="#000000" font-family="sans-serif" font-size="13" lengthAdjust="spacing" textLength="92.4663" x="666.5" y="882.1045">abrirProyectos()</text></g><!--link PROYECTOS_ABIERTOS to PANEL_PRINCIPAL_ABIERTO--><g class="link" data-entity-1="ent0011" data-entity-2="ent0004" data-link-type="dependency" data-source-line="40" id="lnk40"><path d="M885.4,872.9194 C788.41,861.9594 646.96,843.5794 627,827.6094 C523,744.4394 497.8341,576.1778 491.7641,511.0578" fill="none" id="PROYECTOS_ABIERTOS-to-PANEL_PRINCIPAL_ABIERTO" style="stroke:#181818;stroke-width:1;"/><polygon fill="#181818" points="491.3,506.0794,488.1526,515.4118,491.7641,511.0578,496.118,514.6693,491.3,506.0794" style="stroke:#181818;stroke-width:1;stroke-linejoin:miter;stroke-miterlimit:10;"/><text fill="#000000" font-family="sans-serif" font-size="13" lengthAdjust="spacing" textLength="117.7681" x="654" y="824.1045">abrirPanelPrincipal()</text></g><!--link PANEL_PRINCIPAL_ABIERTO to INVESTIGADORES_ABIERTOS--><g class="link" data-entity-1="ent0004" data-entity-2="ent0013" data-link-type="dependency" data-source-line="13" id="lnk14"><path d="M494.48,505.9394 C506.49,559.5694 542.58,684.0894 627,738.6094 C803.99,852.9094 1446.1589,810.4336 1707.7189,787.6336" fill="none" id="PANEL_PRINCIPAL_ABIERTO-to-INVESTIGADORES_ABIERTOS" style="stroke:#181818;stroke-width:1;"/><polygon fill="#181818" points="1712.7,787.1994,1703.3866,783.996,1707.7189,787.6336,1704.0814,791.9658,1712.7,787.1994" style="stroke:#181818;stroke-width:1;stroke-linejoin:miter;stroke-miterlimit:10;"/><text fill="#000000" font-family="sans-serif" font-size="13" lengthAdjust="spacing" textLength="119.2153" x="1168" y="808.1045">abrirInvestigadores()</text></g><!--link INVESTIGADORES_ABIERTOS to PANEL_PRINCIPAL_ABIERTO--><g class="link" data-entity-1="ent0013" data-entity-2="ent0004" data-link-type="dependency" data-source-line="59" id="lnk58"><path d="M1712.99,769.1294 C1434.92,749.6294 721.63,695.2594 627,644.6094 C567.38,612.6994 525.4542,547.6479 504.7942,510.1779" fill="none" id="INVESTIGADORES_ABIERTOS-to-PANEL_PRINCIPAL_ABIERTO" style="stroke:#181818;stroke-width:1;"/><polygon fill="#181818" points="502.38,505.7994,503.2228,515.6121,504.7942,510.1779,510.2284,511.7494,502.38,505.7994" style="stroke:#181818;stroke-width:1;stroke-linejoin:miter;stroke-miterlimit:10;"/><text fill="#000000" font-family="sans-serif" font-size="13" lengthAdjust="spacing" textLength="117.7681" x="1169" y="721.1045">abrirPanelPrincipal()</text></g><!--link PANEL_PRINCIPAL_ABIERTO to MIS_PUBLICACIONES_ABIERTAS--><g class="link" data-entity-1="ent0004" data-entity-2="ent0015" data-link-type="dependency" data-source-line="14" id="lnk16"><path d="M597.21,483.1894 C607.28,483.3594 617.33,483.5094 627,483.6094 C703,484.4394 722,484.2494 798,483.6094 C817.01,483.4494 832.1505,483.2731 851.8105,482.9831" fill="none" id="PANEL_PRINCIPAL_ABIERTO-to-MIS_PUBLICACIONES_ABIERTAS" style="stroke:#181818;stroke-width:1;"/><polygon fill="#181818" points="856.81,482.9094,847.752,479.0426,851.8105,482.9831,847.87,487.0417,856.81,482.9094" style="stroke:#181818;stroke-width:1;stroke-linejoin:miter;stroke-miterlimit:10;"/><text fill="#000000" font-family="sans-serif" font-size="13" lengthAdjust="spacing" textLength="135.0972" x="645" y="480.1045">abrirMisPublicaciones()</text></g><!--link MIS_PUBLICACIONES_ABIERTAS to PANEL_PRINCIPAL_ABIERTO--><g class="link" data-entity-1="ent0015" data-entity-2="ent0004" data-link-type="dependency" data-source-line="36" id="lnk36"><path d="M856.64,502.8394 C837.1,505.6594 817.04,508.0794 798,509.6094 C722.24,515.6894 702.59,517.4994 627,509.6094 C617.29,508.5994 612.1942,507.9978 602.1842,506.3578" fill="none" id="MIS_PUBLICACIONES_ABIERTAS-to-PANEL_PRINCIPAL_ABIERTO" style="stroke:#181818;stroke-width:1;"/><polygon fill="#181818" points="597.25,505.5494,605.4849,510.9519,602.1842,506.3578,606.7783,503.0571,597.25,505.5494" style="stroke:#181818;stroke-width:1;stroke-linejoin:miter;stroke-miterlimit:10;"/><text fill="#000000" font-family="sans-serif" font-size="13" lengthAdjust="spacing" textLength="117.7681" x="654" y="506.1045">abrirPanelPrincipal()</text></g><!--link PANEL_PRINCIPAL_ABIERTO to PUBLICACIONES_ABIERTAS--><g class="link" data-entity-1="ent0004" data-entity-2="ent0017" data-link-type="dependency" data-source-line="15" id="lnk18"><path d="M540.14,505.6194 C565.71,517.4894 597.49,531.1194 627,540.6094 C708.01,566.6594 797.5685,585.3969 868.0085,598.0269" fill="none" id="PANEL_PRINCIPAL_ABIERTO-to-PUBLICACIONES_ABIERTAS" style="stroke:#181818;stroke-width:1;"/><polygon fill="#181818" points="872.93,598.9094,864.7772,593.3838,868.0085,598.0269,863.3653,601.2582,872.93,598.9094" style="stroke:#181818;stroke-width:1;stroke-linejoin:miter;stroke-miterlimit:10;"/><text fill="#000000" font-family="sans-serif" font-size="13" lengthAdjust="spacing" textLength="114.8799" x="655.5" y="537.1045">abrirPublicaciones()</text></g><!--link PUBLICACIONES_ABIERTAS to PANEL_PRINCIPAL_ABIERTO--><g class="link" data-entity-1="ent0017" data-entity-2="ent0004" data-link-type="dependency" data-source-line="30" id="lnk30"><path d="M872.74,633.0394 C800.95,640.4494 704.97,641.2294 627,609.6094 C574.52,588.3294 533.1724,540.9051 509.9324,509.7951" fill="none" id="PUBLICACIONES_ABIERTAS-to-PANEL_PRINCIPAL_ABIERTO" style="stroke:#181818;stroke-width:1;"/><polygon fill="#181818" points="506.94,505.7894,509.1217,515.3935,509.9324,509.7951,515.5308,510.6058,506.94,505.7894" style="stroke:#181818;stroke-width:1;stroke-linejoin:miter;stroke-miterlimit:10;"/><text fill="#000000" font-family="sans-serif" font-size="13" lengthAdjust="spacing" textLength="117.7681" x="654" y="606.1045">abrirPanelPrincipal()</text></g><!--link PANEL_PRINCIPAL_ABIERTO to RECOMPENSAS_ABIERTAS--><g class="link" data-entity-1="ent0004" data-entity-2="ent0019" data-link-type="dependency" data-source-line="16" id="lnk20"><path d="M525.05,455.5894 C551.81,438.0594 590.08,415.6994 627,403.6094 C707.84,377.1494 799.0278,367.0187 870.1578,363.0387" fill="none" id="PANEL_PRINCIPAL_ABIERTO-to-RECOMPENSAS_ABIERTAS" style="stroke:#181818;stroke-width:1;"/><polygon fill="#181818" points="875.15,362.7594,865.9406,359.2684,870.1578,363.0387,866.3875,367.2559,875.15,362.7594" style="stroke:#181818;stroke-width:1;stroke-linejoin:miter;stroke-miterlimit:10;"/><text fill="#000000" font-family="sans-serif" font-size="13" lengthAdjust="spacing" textLength="117.7617" x="654" y="366.1045">abrirRecompensas()</text></g><!--link RECOMPENSAS_ABIERTAS to PANEL_PRINCIPAL_ABIERTO--><g class="link" data-entity-1="ent0019" data-entity-2="ent0004" data-link-type="dependency" data-source-line="44" id="lnk44"><path d="M921.09,385.6894 C886.22,400.3394 840.2,418.1394 798,429.6094 C760.94,439.6894 675.535,453.4596 602.135,464.4396" fill="none" id="RECOMPENSAS_ABIERTAS-to-PANEL_PRINCIPAL_ABIERTO" style="stroke:#181818;stroke-width:1;"/><polygon fill="#181818" points="597.19,465.1794,606.6827,467.8039,602.135,464.4396,605.4992,459.8919,597.19,465.1794" style="stroke:#181818;stroke-width:1;stroke-linejoin:miter;stroke-miterlimit:10;"/><text fill="#000000" font-family="sans-serif" font-size="13" lengthAdjust="spacing" textLength="117.7681" x="654" y="426.1045">abrirPanelPrincipal()</text></g><!--link OPCIONES_PERFIL_ABIERTO to OPCIONES_PERFIL_ABIERTO--><g class="link" data-entity-1="ent0007" data-entity-2="ent0007" data-link-type="dependency" data-source-line="20" id="lnk21"><path d="M936.54,107.3294 C923.83,89.8394 937.81,72.6094 978.5,72.6094 C1019.19,72.6094 1036.1093,85.7946 1023.3993,103.2846" fill="none" id="OPCIONES_PERFIL_ABIERTO-to-OPCIONES_PERFIL_ABIERTO" style="stroke:#181818;stroke-width:1;"/><polygon fill="#181818" points="1020.46,107.3294,1028.9866,102.4002,1023.3993,103.2846,1022.515,97.6973,1020.46,107.3294" style="stroke:#181818;stroke-width:1;stroke-linejoin:miter;stroke-miterlimit:10;"/><text fill="#000000" font-family="sans-serif" font-size="13" lengthAdjust="spacing" textLength="70.7954" x="943.5" y="64.1045">editarPerfil()</text></g><!--link OPCIONES_PERFIL_ABIERTO to SESION_CERRADA--><g class="link" data-entity-1="ent0007" data-entity-2="ent0002" data-link-type="dependency" data-source-line="21" id="lnk22"><path d="M868.21,107.7494 C797.88,96.3194 705.31,89.9394 627,113.6094 C436.94,171.0494 257.0185,331.1883 191.4385,394.0883" fill="none" id="OPCIONES_PERFIL_ABIERTO-to-SESION_CERRADA" style="stroke:#181818;stroke-width:1;"/><polygon fill="#181818" points="187.83,397.5494,197.0941,394.2063,191.4385,394.0883,191.5565,388.4327,187.83,397.5494" style="stroke:#181818;stroke-width:1;stroke-linejoin:miter;stroke-miterlimit:10;"/><text fill="#000000" font-family="sans-serif" font-size="13" lengthAdjust="spacing" textLength="148.8145" x="414.5" y="121.1045">solicitarEliminacionPerfil()</text></g><!--link OPCIONES_CARGA_TRABAJO_ABIERTAS to OPCIONES_CARGA_TRABAJO_ABIERTAS--><g class="link" data-entity-1="ent0009" data-entity-2="ent0009" data-link-type="dependency" data-source-line="24" id="lnk24"><path d="M936.54,242.3294 C923.83,224.8394 937.81,207.6094 978.5,207.6094 C1019.19,207.6094 1036.1093,220.7946 1023.3993,238.2846" fill="none" id="OPCIONES_CARGA_TRABAJO_ABIERTAS-to-OPCIONES_CARGA_TRABAJO_ABIERTAS" style="stroke:#181818;stroke-width:1;"/><polygon fill="#181818" points="1020.46,242.3294,1028.9866,237.4002,1023.3993,238.2846,1022.515,232.6973,1020.46,242.3294" style="stroke:#181818;stroke-width:1;stroke-linejoin:miter;stroke-miterlimit:10;"/><text fill="#000000" font-family="sans-serif" font-size="13" lengthAdjust="spacing" textLength="120.6626" x="918.5" y="199.1045">editarCargaTrabajo()</text></g><!--link PUBLICACIONES_ABIERTAS to PUBLICACION_ABIERTA--><g class="link" data-entity-1="ent0017" data-entity-2="ent0026" data-link-type="dependency" data-source-line="27" id="lnk27"><path d="M1068.26,640.6394 C1096.97,647.5794 1129.11,654.1594 1159,657.6094 C1219.49,664.5894 1235.83,666.9494 1296,657.6094 C1318.34,654.1394 1337.3205,649.1223 1358.4105,642.1823" fill="none" id="PUBLICACIONES_ABIERTAS-to-PUBLICACION_ABIERTA" style="stroke:#181818;stroke-width:1;"/><polygon fill="#181818" points="1363.16,640.6194,1353.3607,639.633,1358.4105,642.1823,1355.8613,647.2321,1363.16,640.6194" style="stroke:#181818;stroke-width:1;stroke-linejoin:miter;stroke-miterlimit:10;"/><text fill="#000000" font-family="sans-serif" font-size="13" lengthAdjust="spacing" textLength="101.1499" x="1177" y="654.1045">abrirPublicacion()</text></g><!--link PUBLICACION_ABIERTA to PUBLICACIONES_ABIERTAS--><g class="link" data-entity-1="ent0026" data-entity-2="ent0017" data-link-type="dependency" data-source-line="29" id="lnk29"><path d="M1337.3,615.6094 C1264.03,615.6094 1165.83,615.6094 1089.09,615.6094" fill="none" id="PUBLICACION_ABIERTA-to-PUBLICACIONES_ABIERTAS" style="stroke:#181818;stroke-width:1;"/><polygon fill="#181818" points="1084.09,615.6094,1093.09,619.6094,1089.09,615.6094,1093.09,611.6094,1084.09,615.6094" style="stroke:#181818;stroke-width:1;stroke-linejoin:miter;stroke-miterlimit:10;"/><text fill="#000000" font-family="sans-serif" font-size="13" lengthAdjust="spacing" textLength="114.8799" x="1170.5" y="612.1045">abrirPublicaciones()</text></g><!--link PUBLICACION_ABIERTA to PUBLICACION_ABIERTA--><g class="link" data-entity-1="ent0026" data-entity-2="ent0026" data-link-type="dependency" data-source-line="28" id="lnk28"><path d="M1396.52,590.3294 C1386.67,572.8394 1397.5,555.6094 1429,555.6094 C1460.5,555.6094 1473.7836,568.4828 1463.9336,585.9728" fill="none" id="PUBLICACION_ABIERTA-to-PUBLICACION_ABIERTA" style="stroke:#181818;stroke-width:1;"/><polygon fill="#181818" points="1461.48,590.3294,1469.3817,584.4503,1463.9336,585.9728,1462.4111,580.5246,1461.48,590.3294" style="stroke:#181818;stroke-width:1;stroke-linejoin:miter;stroke-miterlimit:10;"/><text fill="#000000" font-family="sans-serif" font-size="13" lengthAdjust="spacing" textLength="133.6816" x="1362.5" y="547.1045">responderPublicacion()</text></g><!--link MIS_PUBLICACIONES_ABIERTAS to MI_PUBLICACION_ABIERTA--><g class="link" data-entity-1="ent0015" data-entity-2="ent0031" data-link-type="dependency" data-source-line="32" id="lnk32"><path d="M1100.05,491.1294 C1159.41,493.9394 1231.83,493.7994 1296,483.6094 C1318.97,479.9594 1338.6468,474.5709 1360.1468,467.2509" fill="none" id="MIS_PUBLICACIONES_ABIERTAS-to-MI_PUBLICACION_ABIERTA" style="stroke:#181818;stroke-width:1;"/><polygon fill="#181818" points="1364.88,465.6394,1355.0711,464.7535,1360.1468,467.2509,1357.6494,472.3266,1364.88,465.6394" style="stroke:#181818;stroke-width:1;stroke-linejoin:miter;stroke-miterlimit:10;"/><text fill="#000000" font-family="sans-serif" font-size="13" lengthAdjust="spacing" textLength="114.8672" x="1170.5" y="480.1045">abrirMiPublicacion()</text></g><!--link MIS_PUBLICACIONES_ABIERTAS to MI_PUBLICACION_ABIERTA--><g class="link" data-entity-1="ent0015" data-entity-2="ent0031" data-link-type="dependency" data-source-line="33" id="lnk33"><path d="M1054.87,505.6694 C1119.76,523.4694 1215.39,540.6494 1296,518.6094 C1333.49,508.3594 1367.119,487.3876 1392.559,468.7176" fill="none" id="MIS_PUBLICACIONES_ABIERTAS-to-MI_PUBLICACION_ABIERTA-1" style="stroke:#181818;stroke-width:1;"/><polygon fill="#181818" points="1396.59,465.7594,1386.9677,467.8595,1392.559,468.7176,1391.7009,474.309,1396.59,465.7594" style="stroke:#181818;stroke-width:1;stroke-linejoin:miter;stroke-miterlimit:10;"/><text fill="#000000" font-family="sans-serif" font-size="13" lengthAdjust="spacing" textLength="104.7617" x="1175.5" y="515.1045">crearPublicacion()</text></g><!--link MI_PUBLICACION_ABIERTA to MIS_PUBLICACIONES_ABIERTAS--><g class="link" data-entity-1="ent0031" data-entity-2="ent0015" data-link-type="dependency" data-source-line="35" id="lnk35"><path d="M1352.32,415.5894 C1334.08,410.6194 1314.51,406.1594 1296,403.6094 C1235.68,395.3194 1218.64,391.3594 1159,403.6094 C1110.67,413.5394 1063.7223,434.7454 1028.3823,453.1954" fill="none" id="MI_PUBLICACION_ABIERTA-to-MIS_PUBLICACIONES_ABIERTAS" style="stroke:#181818;stroke-width:1;"/><polygon fill="#181818" points="1023.95,455.5094,1033.7794,454.8901,1028.3823,453.1954,1030.077,447.7983,1023.95,455.5094" style="stroke:#181818;stroke-width:1;stroke-linejoin:miter;stroke-miterlimit:10;"/><text fill="#000000" font-family="sans-serif" font-size="13" lengthAdjust="spacing" textLength="120.6563" x="1167.5" y="393.1045">eliminarPublicacion()</text></g><!--link MI_PUBLICACION_ABIERTA to MIS_PUBLICACIONES_ABIERTAS--><g class="link" data-entity-1="ent0031" data-entity-2="ent0015" data-link-type="dependency" data-source-line="37" id="lnk37"><path d="M1325.76,447.9294 C1275.5,451.6894 1214.04,456.5494 1159,461.6094 C1139.96,463.3594 1124.7838,464.8483 1105.1238,466.8683" fill="none" id="MI_PUBLICACION_ABIERTA-to-MIS_PUBLICACIONES_ABIERTAS-1" style="stroke:#181818;stroke-width:1;"/><polygon fill="#181818" points="1100.15,467.3794,1109.5117,470.4385,1105.1238,466.8683,1108.694,462.4804,1100.15,467.3794" style="stroke:#181818;stroke-width:1;stroke-linejoin:miter;stroke-miterlimit:10;"/><text fill="#000000" font-family="sans-serif" font-size="13" lengthAdjust="spacing" textLength="135.0972" x="1160" y="447.1045">abrirMisPublicaciones()</text></g><!--link MI_PUBLICACION_ABIERTA to MI_PUBLICACION_ABIERTA--><g class="link" data-entity-1="ent0031" data-entity-2="ent0031" data-link-type="dependency" data-source-line="34" id="lnk34"><path d="M1396.52,415.3294 C1386.67,397.8394 1397.5,380.6094 1429,380.6094 C1460.5,380.6094 1473.7836,393.4828 1463.9336,410.9728" fill="none" id="MI_PUBLICACION_ABIERTA-to-MI_PUBLICACION_ABIERTA" style="stroke:#181818;stroke-width:1;"/><polygon fill="#181818" points="1461.48,415.3294,1469.3817,409.4503,1463.9336,410.9728,1462.4111,405.5246,1461.48,415.3294" style="stroke:#181818;stroke-width:1;stroke-linejoin:miter;stroke-miterlimit:10;"/><text fill="#000000" font-family="sans-serif" font-size="13" lengthAdjust="spacing" textLength="107.6626" x="1375.5" y="372.1045">editarPublicacion()</text></g><!--link PROYECTOS_ABIERTOS to PROYECTO_ABIERTO--><g class="link" data-entity-1="ent0011" data-entity-2="ent0038" data-link-type="dependency" data-source-line="39" id="lnk39"><path d="M1071.61,897.1894 C1151.85,909.8994 1262.2415,927.3677 1339.7615,939.6377" fill="none" id="PROYECTOS_ABIERTOS-to-PROYECTO_ABIERTO" style="stroke:#181818;stroke-width:1;"/><polygon fill="#181818" points="1344.7,940.4194,1336.436,935.0615,1339.7615,939.6377,1335.1853,942.9632,1344.7,940.4194" style="stroke:#181818;stroke-width:1;stroke-linejoin:miter;stroke-miterlimit:10;"/><text fill="#000000" font-family="sans-serif" font-size="13" lengthAdjust="spacing" textLength="85.9663" x="1185" y="908.1045">abrirProyecto()</text></g><!--link PROYECTO_ABIERTO to PROYECTOS_ABIERTOS--><g class="link" data-entity-1="ent0038" data-entity-2="ent0011" data-link-type="dependency" data-source-line="50" id="lnk50"><path d="M1344.74,964.4194 C1291.17,969.1094 1220.34,971.0594 1159,958.6094 C1111.08,948.8794 1064.5077,928.2036 1029.1677,910.0536" fill="none" id="PROYECTO_ABIERTO-to-PROYECTOS_ABIERTOS" style="stroke:#181818;stroke-width:1;"/><polygon fill="#181818" points="1024.72,907.7694,1030.8985,915.4392,1029.1677,910.0536,1034.5533,908.3229,1024.72,907.7694" style="stroke:#181818;stroke-width:1;stroke-linejoin:miter;stroke-miterlimit:10;"/><text fill="#000000" font-family="sans-serif" font-size="13" lengthAdjust="spacing" textLength="92.4663" x="1181.5" y="955.1045">abrirProyectos()</text></g><!--link RECOMPENSAS_ABIERTAS to RECOMPENSA_ABIERTA--><g class="link" data-entity-1="ent0019" data-entity-2="ent0041" data-link-type="dependency" data-source-line="42" id="lnk42"><path d="M1067.53,335.5494 C1088.2,328.3194 1109.79,319.6294 1129,309.6094 C1143.66,301.9694 1143.29,292.7594 1159,287.6094 C1216.87,268.6694 1235.11,287.3794 1296,287.6094 C1308.72,287.6594 1317.1301,287.6953 1330.3301,287.7853" fill="none" id="RECOMPENSAS_ABIERTAS-to-RECOMPENSA_ABIERTA" style="stroke:#181818;stroke-width:1;"/><polygon fill="#181818" points="1335.33,287.8194,1326.3575,283.7581,1330.3301,287.7853,1326.3029,291.7579,1335.33,287.8194" style="stroke:#181818;stroke-width:1;stroke-linejoin:miter;stroke-miterlimit:10;"/><text fill="#000000" font-family="sans-serif" font-size="13" lengthAdjust="spacing" textLength="111.2617" x="1172" y="276.1045">abrirRecompensa()</text></g><!--link RECOMPENSA_ABIERTA to RECOMPENSAS_ABIERTAS--><g class="link" data-entity-1="ent0041" data-entity-2="ent0019" data-link-type="dependency" data-source-line="43" id="lnk43"><path d="M1335.41,306.6294 C1322.2,309.0594 1308.76,311.4594 1296,313.6094 C1224.52,325.6794 1148.6201,336.9546 1086.5301,345.7946" fill="none" id="RECOMPENSA_ABIERTA-to-RECOMPENSAS_ABIERTAS" style="stroke:#181818;stroke-width:1;"/><polygon fill="#181818" points="1081.58,346.4994,1091.054,349.1909,1086.5301,345.7946,1089.9263,341.2707,1081.58,346.4994" style="stroke:#181818;stroke-width:1;stroke-linejoin:miter;stroke-miterlimit:10;"/><text fill="#000000" font-family="sans-serif" font-size="13" lengthAdjust="spacing" textLength="117.7617" x="1169" y="310.1045">abrirRecompensas()</text></g><!--link PROYECTO_ABIERTO to ENTREGABLES_ABIERTOS--><g class="link" data-entity-1="ent0038" data-entity-2="ent0045" data-link-type="dependency" data-source-line="47" id="lnk46"><path d="M1513.06,966.3694 C1529.29,968.8194 1546.17,971.3194 1562,973.6094 C1615.29,981.3194 1669.7958,988.8544 1718.5358,995.4944" fill="none" id="PROYECTO_ABIERTO-to-ENTREGABLES_ABIERTOS" style="stroke:#181818;stroke-width:1;"/><polygon fill="#181818" points="1723.49,996.1694,1715.1123,990.9911,1718.5358,995.4944,1714.0324,998.9179,1723.49,996.1694" style="stroke:#181818;stroke-width:1;stroke-linejoin:miter;stroke-miterlimit:10;"/><text fill="#000000" font-family="sans-serif" font-size="13" lengthAdjust="spacing" textLength="104.0444" x="1570.5" y="970.1045">abrirEntregables()</text></g><!--link ENTREGABLES_ABIERTOS to PROYECTO_ABIERTO--><g class="link" data-entity-1="ent0045" data-entity-2="ent0038" data-link-type="dependency" data-source-line="55" id="lnk54"><path d="M1723.36,1023.1094 C1674.2,1026.9194 1614.41,1027.3094 1562,1015.6094 C1529.88,1008.4394 1500.7201,994.9808 1475.4901,981.0908" fill="none" id="ENTREGABLES_ABIERTOS-to-PROYECTO_ABIERTO" style="stroke:#181818;stroke-width:1;"/><polygon fill="#181818" points="1471.11,978.6794,1477.065,986.524,1475.4901,981.0908,1480.9233,979.5158,1471.11,978.6794" style="stroke:#181818;stroke-width:1;stroke-linejoin:miter;stroke-miterlimit:10;"/><text fill="#000000" font-family="sans-serif" font-size="13" lengthAdjust="spacing" textLength="85.9663" x="1580" y="1012.1045">abrirProyecto()</text></g><!--link ENTREGABLES_ABIERTOS to ENTREGABLE_ABIERTO--><g class="link" data-entity-1="ent0045" data-entity-2="ent0047" data-link-type="dependency" data-source-line="48" id="lnk48"><path d="M1874.13,984.4594 C1900.55,972.2094 1934.22,958.8094 1966,952.6094 C2018.78,942.3094 2034.1,942.9094 2087,952.6094 C2111.84,957.1694 2133.4976,964.4532 2155.6376,973.5832" fill="none" id="ENTREGABLES_ABIERTOS-to-ENTREGABLE_ABIERTO" style="stroke:#181818;stroke-width:1;"/><polygon fill="#181818" points="2160.26,975.4894,2153.4646,968.3604,2155.6376,973.5832,2150.4148,975.7562,2160.26,975.4894" style="stroke:#181818;stroke-width:1;stroke-linejoin:miter;stroke-miterlimit:10;"/><text fill="#000000" font-family="sans-serif" font-size="13" lengthAdjust="spacing" textLength="101.1563" x="1976" y="941.1045">crearEntregable()</text></g><!--link ENTREGABLES_ABIERTOS to ENTREGABLE_ABIERTO--><g class="link" data-entity-1="ent0045" data-entity-2="ent0047" data-link-type="dependency" data-source-line="53" id="lnk52"><path d="M1925.67,1007.2894 C1986.63,1005.8694 2058.8813,1004.1952 2117.9913,1002.8252" fill="none" id="ENTREGABLES_ABIERTOS-to-ENTREGABLE_ABIERTO-1" style="stroke:#181818;stroke-width:1;"/><polygon fill="#181818" points="2122.99,1002.7094,2113.8997,998.919,2117.9913,1002.8252,2114.0851,1006.9168,2122.99,1002.7094" style="stroke:#181818;stroke-width:1;stroke-linejoin:miter;stroke-miterlimit:10;"/><text fill="#000000" font-family="sans-serif" font-size="13" lengthAdjust="spacing" textLength="97.5444" x="1978" y="1000.1045">abrirEntregable()</text></g><!--link ENTREGABLE_ABIERTO to ENTREGABLES_ABIERTOS--><g class="link" data-entity-1="ent0047" data-entity-2="ent0045" data-link-type="dependency" data-source-line="54" id="lnk53"><path d="M2122.78,1025.6094 C2110.82,1028.0894 2098.67,1030.1994 2087,1031.6094 C2033.85,1038.0294 1979.3585,1034.5619 1930.5885,1028.2419" fill="none" id="ENTREGABLE_ABIERTO-to-ENTREGABLES_ABIERTOS" style="stroke:#181818;stroke-width:1;"/><polygon fill="#181818" points="1925.63,1027.5994,1934.0413,1032.7228,1930.5885,1028.2419,1935.0694,1024.7892,1925.63,1027.5994" style="stroke:#181818;stroke-width:1;stroke-linejoin:miter;stroke-miterlimit:10;"/><text fill="#000000" font-family="sans-serif" font-size="13" lengthAdjust="spacing" textLength="117.0508" x="1968" y="1028.1045">eliminarEntregable()</text></g><!--link ENTREGABLE_ABIERTO to ENTREGABLES_ABIERTOS--><g class="link" data-entity-1="ent0047" data-entity-2="ent0045" data-link-type="dependency" data-source-line="56" id="lnk55"><path d="M2172.73,1025.6394 C2148.73,1038.8894 2117.23,1053.7994 2087,1060.6094 C2034.54,1072.4194 2018.96,1069.9294 1966,1060.6094 C1936.99,1055.5094 1910.7285,1046.7761 1885.3085,1036.5461" fill="none" id="ENTREGABLE_ABIERTO-to-ENTREGABLES_ABIERTOS-1" style="stroke:#181818;stroke-width:1;"/><polygon fill="#181818" points="1880.67,1034.6794,1887.5259,1041.7502,1885.3085,1036.5461,1890.5126,1034.3287,1880.67,1034.6794" style="stroke:#181818;stroke-width:1;stroke-linejoin:miter;stroke-miterlimit:10;"/><text fill="#000000" font-family="sans-serif" font-size="13" lengthAdjust="spacing" textLength="104.0444" x="1974.5" y="1057.1045">abrirEntregables()</text></g><!--link PROYECTO_ABIERTO to INVESTIGADORES_ABIERTOS--><g class="link" data-entity-1="ent0038" data-entity-2="ent0013" data-link-type="dependency" data-source-line="49" id="lnk49"><path d="M1513.1,954.0194 C1564.46,951.2294 1630.39,941.9794 1683,915.6094 C1736.53,888.7894 1779.3913,837.9726 1803.1513,805.7726" fill="none" id="PROYECTO_ABIERTO-to-INVESTIGADORES_ABIERTOS" style="stroke:#181818;stroke-width:1;"/><polygon fill="#181818" points="1806.12,801.7494,1797.5577,806.6163,1803.1513,805.7726,1803.9949,811.3662,1806.12,801.7494" style="stroke:#181818;stroke-width:1;stroke-linejoin:miter;stroke-miterlimit:10;"/><text fill="#000000" font-family="sans-serif" font-size="13" lengthAdjust="spacing" textLength="119.2153" x="1563" y="912.1045">abrirInvestigadores()</text></g><!--link ENTREGABLE_ABIERTO to ENTREGABLE_ABIERTO--><g class="link" data-entity-1="ent0047" data-entity-2="ent0047" data-link-type="dependency" data-source-line="52" id="lnk51"><path d="M2182.69,975.3294 C2173.05,957.8394 2183.66,940.6094 2214.5,940.6094 C2245.34,940.6094 2258.3635,953.4605 2248.7235,970.9505" fill="none" id="ENTREGABLE_ABIERTO-to-ENTREGABLE_ABIERTO" style="stroke:#181818;stroke-width:1;"/><polygon fill="#181818" points="2246.31,975.3294,2254.1575,969.3782,2248.7235,970.9505,2247.1512,965.5165,2246.31,975.3294" style="stroke:#181818;stroke-width:1;stroke-linejoin:miter;stroke-miterlimit:10;"/><text fill="#000000" font-family="sans-serif" font-size="13" lengthAdjust="spacing" textLength="104.0571" x="2162.5" y="932.1045">editarEntregable()</text></g><!--link INVESTIGADORES_ABIERTOS to INVESTIGADOR_ABIERTO--><g class="link" data-entity-1="ent0013" data-entity-2="ent0056" data-link-type="dependency" data-source-line="58" id="lnk57"><path d="M1936.12,796.4394 C1946.2,797.7294 1956.27,798.8194 1966,799.6094 C2019.6,803.9694 2033.23,800.2494 2087,799.6094 C2096.67,799.4994 2101.7409,799.4237 2111.8109,799.2337" fill="none" id="INVESTIGADORES_ABIERTOS-to-INVESTIGADOR_ABIERTO" style="stroke:#181818;stroke-width:1;"/><polygon fill="#181818" points="2116.81,799.1394,2107.7361,795.3099,2111.8109,799.2337,2107.8871,803.3084,2116.81,799.1394" style="stroke:#181818;stroke-width:1;stroke-linejoin:miter;stroke-miterlimit:10;"/><text fill="#000000" font-family="sans-serif" font-size="13" lengthAdjust="spacing" textLength="105.4854" x="1974" y="796.1045">abrirInvestigador()</text></g><!--link INVESTIGADOR_ABIERTO to INVESTIGADORES_ABIERTOS--><g class="link" data-entity-1="ent0056" data-entity-2="ent0013" data-link-type="dependency" data-source-line="60" id="lnk59"><path d="M2116.97,780.6394 C2106.87,779.4094 2096.74,778.3594 2087,777.6094 C2037.55,773.8194 1987.6798,773.0465 1941.0198,773.4465" fill="none" id="INVESTIGADOR_ABIERTO-to-INVESTIGADORES_ABIERTOS" style="stroke:#181818;stroke-width:1;"/><polygon fill="#181818" points="1936.02,773.4894,1945.054,777.4121,1941.0198,773.4465,1944.9854,769.4124,1936.02,773.4894" style="stroke:#181818;stroke-width:1;stroke-linejoin:miter;stroke-miterlimit:10;"/><text fill="#000000" font-family="sans-serif" font-size="13" lengthAdjust="spacing" textLength="119.2153" x="1967" y="769.1045">abrirInvestigadores()</text></g><!--link INVESTIGADOR_ABIERTO to PROYECTOS_ABIERTOS--><g class="link" data-entity-1="ent0056" data-entity-2="ent0011" data-link-type="dependency" data-source-line="61" id="lnk60"><path d="M2116.84,806.9094 C2106.77,807.8694 2096.68,808.7894 2087,809.6094 C2019.98,815.2694 2003.11,815.1794 1936,819.6094 C1618.62,840.5694 1246.9892,865.0213 1076.4892,876.2313" fill="none" id="INVESTIGADOR_ABIERTO-to-PROYECTOS_ABIERTOS" style="stroke:#181818;stroke-width:1;"/><polygon fill="#181818" points="1071.5,876.5594,1080.743,879.9603,1076.4892,876.2313,1080.2182,871.9775,1071.5,876.5594" style="stroke:#181818;stroke-width:1;stroke-linejoin:miter;stroke-miterlimit:10;"/><text fill="#000000" font-family="sans-serif" font-size="13" lengthAdjust="spacing" textLength="92.4663" x="1576.5" y="833.1045">abrirProyectos()</text></g><?plantuml-src fPNRZfim48Rl_HHSjfNs1VQYaaFSY2e1oz1ALLKX1xpK5J6HyLRjszSSiW630QUvIiBCDwT_1iLLoRmzfuMa5-hbpCigeTWVLJNVNuN7nMzMArxGl980bEn5UVgPvCLFvULSiapnIW3m_SCFx-dfenUZE8Z2r4U4m3q4uv-j1OOXEgQO1A4VO7XCuIv098cUTIIUSIfZLclYk_V0OZWJvjdBc9G3rqNV2FlQ5yKfHkHJC4Y0dYMNqJNJ35PZ9bzukPB66yg7v03JXC0T_1pr9Z0sa3wL1KqaFTDVrGeOa-WRyfCellrxOs5P_TKzh-eLG11-HN4I7E0-8cX22GP3PMkeKw1RzMLt37pOLslKT-8rVZsNFADTdMkrBR5SG0JvqGcZC8OJ365PTRaoKTC6eZ-MeIyBWkLSKVccX2M6ASYwqcKqtgZa5oxQWZQ1hElHjOSALcB9HSQlj4615GbkasbNgA7FBMJNRETdRyhYzc2gYKOHKpkxlrRtjH8vSsTiaEP2BOvjiQzOlu6flJidFgxjGLOc6PKcARKroaRfDsOxndvQMBSuqgawnyO_c9hjwe7fsHvTSpET_fOtMh8uEkfexY8Qfz9Gp_rGQl-fbTkTjOPthGEO7MifA4m8Ei3TSVf2Gq99Lj1psSvXpj0Wt5DeXN_t7mpZlrweSunDRtKmJTAQUxTke-JdQhUv6wqRUM_e_6r3L-DlN0Adu3DZ1vOPJUPdf30SdiOiKHo5F1Vq4JLPEPiKzGy0?></g></svg>