<svg xmlns="http://www.w3.org/2000/svg" xmlns:xlink="http://www.w3.org/1999/xlink" contentStyleType="text/css" data-diagram-type="STATE" height="1108px" preserveAspectRatio="none" style="width:2327px;height:1108px;background:#FFFFFF;" version="1.1" viewBox="0 0 2327 1108" width="2327px" zoomAndPan="magnify"><?plantuml 1.2026.5?><defs/><g><g class="title" data-source-line="2"><text fill="#000000" font-family="sans-serif" font-size="14" font-weight="700" lengthAdjust="spacing" textLength="274.6133" x="1022.7104" y="24.5332">Diagrama de contexto de un investigador</text></g><g class="start_entity" data-qualified-name=".start." data-source-line="6" id="ent0001"><ellipse cx="16" cy="422.6094" fill="#222222" rx="10" ry="10" style="stroke:#222222;stroke-width:1;"/></g><g class="entity" data-qualified-name="SESION_CERRADA" data-source-line="6" id="ent0002"><rect fill="#F1F1F1" height="50" rx="12.5" ry="12.5" style="stroke:#181818;stroke-width:0.5;" width="149.1445" x="87" y="397.6094"/><line style="stroke:#181818;stroke-width:0.5;" x1="87" x2="236.1445" y1="425.2188" y2="425.2188"/><text fill="#000000" font-family="sans-serif" font-size="14" lengthAdjust="spacing" textLength="129.1445" x="97" y="417.1426">SESION_CERRADA</text></g><g class="entity" data-qualified-name="PANEL_PRINCIPAL_ABIERTO" data-source-line="7" id="ent0004"><rect fill="#F1F1F1" height="50" rx="12.5" ry="12.5" style="stroke:#181818;stroke-width:0.5;" width="216.8477" x="380" y="455.6094"/><line style="stroke:#181818;stroke-width:0.5;" x1="380" x2="596.8477" y1="483.2188" y2="483.2188"/><text fill="#000000" font-family="sans-serif" font-size="14" lengthAdjust="spacing" textLength="196.8477" x="390" y="475.1426">PANEL_PRINCIPAL_ABIERTO</text></g><g class="entity" data-qualified-name="OPCIONES_PERFIL_ABIERTO" data-source-line="10" id="ent0007"><rect fill="#F1F1F1" height="50" rx="12.5" ry="12.5" style="stroke:#181818;stroke-width:0.5;" width="219.9443" x="868.5" y="107.6094"/><line style="stroke:#181818;stroke-width:0.5;" x1="868.5" x2="1088.4443" y1="135.2188" y2="135.2188"/><text fill="#000000" font-family="sans-serif" font-size="14" lengthAdjust="spacing" textLength="199.9443" x="878.5" y="127.1426">OPCIONES_PERFIL_ABIERTO</text></g><g class="entity" data-qualified-name="OPCIONES_CARGA_TRABAJO_ABIERTAS" data-source-line="11" id="ent0009"><rect fill="#F1F1F1" height="50" rx="12.5" ry="12.5" style="stroke:#181818;stroke-width:0.5;" width="300.8545" x="828" y="242.6094"/><line style="stroke:#181818;stroke-width:0.5;" x1="828" x2="1128.8545" y1="270.2188" y2="270.2188"/><text fill="#000000" font-family="sans-serif" font-size="14" lengthAdjust="spacing" textLength="280.8545" x="838" y="262.1426">OPCIONES_CARGA_TRABAJO_ABIERTAS</text></g><g class="entity" data-qualified-name="PROYECTOS_ABIERTOS" data-source-line="12" id="ent0011"><rect fill="#F1F1F1" height="50" rx="12.5" ry="12.5" style="stroke:#181818;stroke-width:0.5;" width="186.4824" x="885.5" y="857.6094"/><line style="stroke:#181818;stroke-width:0.5;" x1="885.5" x2="1071.9824" y1="885.2188" y2="885.2188"/><text fill="#000000" font-family="sans-serif" font-size="14" lengthAdjust="spacing" textLength="166.4824" x="895.5" y="877.1426">PROYECTOS_ABIERTOS</text></g><g class="entity" data-qualified-name="INVESTIGADORES_ABIERTOS" data-source-line="13" id="ent0013"><rect fill="#F1F1F1" height="50" rx="12.5" ry="12.5" style="stroke:#181818;stroke-width:0.5;" width="223.0479" x="1713" y="751.6094"/><line style="stroke:#181818;stroke-width:0.5;" x1="1713" x2="1936.0479" y1="779.2188" y2="779.2188"/><text fill="#000000" font-family="sans-serif" font-size="14" lengthAdjust="spacing" textLength="203.0479" x="1723" y="771.1426">INVESTIGADORES_ABIERTOS</text></g><g class="entity" data-qualified-name="MIS_PUBLICACIONES_ABIERTAS" data-source-line="14" id="ent0015"><rect fill="#F1F1F1" height="50" rx="12.5" ry="12.5" style="stroke:#181818;stroke-width:0.5;" width="243.2891" x="857" y="455.6094"/><line style="stroke:#181818;stroke-width:0.5;" x1="857" x2="1100.2891" y1="483.2188" y2="483.2188"/><text fill="#000000" font-family="sans-serif" font-size="14" lengthAdjust="spacing" textLength="223.2891" x="867" y="475.1426">MIS_PUBLICACIONES_ABIERTAS</text></g><g class="entity" data-qualified-name="PUBLICACIONES_ABIERTAS" data-source-line="15" id="ent0017"><rect fill="#F1F1F1" height="50" rx="12.5" ry="12.5" style="stroke:#181818;stroke-width:0.5;" width="210.6133" x="873" y="590.6094"/><line style="stroke:#181818;stroke-width:0.5;" x1="873" x2="1083.6133" y1="618.2188" y2="618.2188"/><text fill="#000000" font-family="sans-serif" font-size="14" lengthAdjust="spacing" textLength="190.6133" x="883" y="610.1426">PUBLICACIONES_ABIERTAS</text></g><g class="entity" data-qualified-name="RECOMPENSAS_ABIERTAS" data-source-line="16" id="ent0019"><rect fill="#F1F1F1" height="50" rx="12.5" ry="12.5" style="stroke:#181818;stroke-width:0.5;" width="205.9375" x="875.5" y="335.6094"/><line style="stroke:#181818;stroke-width:0.5;" x1="875.5" x2="1081.4375" y1="363.2188" y2="363.2188"/><text fill="#000000" font-family="sans-serif" font-size="14" lengthAdjust="spacing" textLength="185.9375" x="885.5" y="355.1426">RECOMPENSAS_ABIERTAS</text></g><g class="entity" data-qualified-name="PUBLICACION_ABIERTA" data-source-line="27" id="ent0026"><rect fill="#F1F1F1" height="50" rx="12.5" ry="12.5" style="stroke:#181818;stroke-width:0.5;" width="182.5996" x="1337.5" y="590.6094"/><line style="stroke:#181818;stroke-width:0.5;" x1="1337.5" x2="1520.0996" y1="618.2188" y2="618.2188"/><text fill="#000000" font-family="sans-serif" font-size="14" lengthAdjust="spacing" textLength="162.5996" x="1347.5" y="610.1426">PUBLICACION_ABIERTA</text></g><g class="entity" data-qualified-name="MI_PUBLICACION_ABIERTA" data-source-line="32" id="ent0031"><rect fill="#F1F1F1" height="50" rx="12.5" ry="12.5" style="stroke:#181818;stroke-width:0.5;" width="205.9375" x="1326" y="418.6094"/><line style="stroke:#181818;stroke-width:0.5;" x1="1326" x2="1531.9375" y1="446.2188" y2="446.2188"/><text fill="#000000" font-family="sans-serif" font-size="14" lengthAdjust="spacing" textLength="185.9375" x="1336" y="438.1426">MI_PUBLICACION_ABIERTA</text></g><g class="entity" data-qualified-name="PROYECTO_ABIERTO" data-source-line="39" id="ent0038"><rect fill="#F1F1F1" height="50" rx="12.5" ry="12.5" style="stroke:#181818;stroke-width:0.5;" width="167.8066" x="1345" y="928.6094"/><line style="stroke:#181818;stroke-width:0.5;" x1="1345" x2="1512.8066" y1="956.2188" y2="956.2188"/><text fill="#000000" font-family="sans-serif" font-size="14" lengthAdjust="spacing" textLength="147.8066" x="1355" y="948.1426">PROYECTO_ABIERTO</text></g><g class="entity" data-qualified-name="RECOMPENSA_ABIERTA" data-source-line="42" id="ent0041"><rect fill="#F1F1F1" height="50" rx="12.5" ry="12.5" style="stroke:#181818;stroke-width:0.5;" width="187.2617" x="1335.5" y="236.6094"/><line style="stroke:#181818;stroke-width:0.5;" x1="1335.5" x2="1522.7617" y1="264.2188" y2="264.2188"/><text fill="#000000" font-family="sans-serif" font-size="14" lengthAdjust="spacing" textLength="167.2617" x="1345.5" y="256.1426">RECOMPENSA_ABIERTA</text></g><g class="entity" data-qualified-name="ENTREGABLES_ABIERTOS" data-source-line="47" id="ent0045"><rect fill="#F1F1F1" height="50" rx="12.5" ry="12.5" style="stroke:#181818;stroke-width:0.5;" width="202.0547" x="1723.5" y="988.6094"/><line style="stroke:#181818;stroke-width:0.5;" x1="1723.5" x2="1925.5547" y1="1016.2188" y2="1016.2188"/><text fill="#000000" font-family="sans-serif" font-size="14" lengthAdjust="spacing" textLength="182.0547" x="1733.5" y="1008.1426">ENTREGABLES_ABIERTOS</text></g><g class="entity" data-qualified-name="ENTREGABLE_ABIERTO" data-source-line="48" id="ent0047"><rect fill="#F1F1F1" height="50" rx="12.5" ry="12.5" style="stroke:#181818;stroke-width:0.5;" width="183.3789" x="2123" y="979.6094"/><line style="stroke:#181818;stroke-width:0.5;" x1="2123" x2="2306.3789" y1="1007.2188" y2="1007.2188"/><text fill="#000000" font-family="sans-serif" font-size="14" lengthAdjust="spacing" textLength="163.3789" x="2133" y="999.1426">ENTREGABLE_ABIERTO</text></g><g class="entity" data-qualified-name="INVESTIGADOR_ABIERTO" data-source-line="58" id="ent0056"><rect fill="#F1F1F1" height="50" rx="12.5" ry="12.5" style="stroke:#181818;stroke-width:0.5;" width="195.0342" x="2117" y="771.6094"/><line style="stroke:#181818;stroke-width:0.5;" x1="2117" x2="2312.0342" y1="799.2188" y2="799.2188"/><text fill="#000000" font-family="sans-serif" font-size="14" lengthAdjust="spacing" textLength="175.0342" x="2127" y="791.1426">INVESTIGADOR_ABIERTO</text></g><!--link *start* to SESION_CERRADA--><g class="link" data-entity-1="ent0001" data-entity-2="ent0002" data-link-type="dependency" data-source-line="6" id="lnk3"><path d="M26.42,422.6094 C39.07,422.6094 57.77,422.6094 81.77,422.6094" fill="none" id="*start*-to-SESION_CERRADA" style="stroke:#181818;stroke-width:1;"/><polygon fill="#181818" points="86.77,422.6094,77.77,418.6094,81.77,422.6094,77.77,426.6094,86.77,422.6094" style="stroke:#181818;stroke-width:1;stroke-linejoin:miter;stroke-miterlimit:10;"/></g><!--link SESION_CERRADA to PANEL_PRINCIPAL_ABIERTO--><g class="link" data-entity-1="ent0002" data-entity-2="ent0004" data-link-type="dependency" data-source-line="7" id="lnk5"><path d="M194.93,447.8394 C214.37,461.3294 240.24,476.5794 266,483.6094 C302.27,493.4994 338.1338,495.5942 374.8038,494.1642" fill="none" id="SESION_CERRADA-to-PANEL_PRINCIPAL_ABIERTO" style="stroke:#181818;stroke-width:1;"/><polygon fill="#181818" points="379.8,493.9694,370.651,490.3231,374.8038,494.1642,370.9627,498.317,379.8,493.9694" style="stroke:#181818;stroke-width:1;stroke-linejoin:miter;stroke-miterlimit:10;"/><text fill="#000000" font-family="sans-serif" font-size="13" lengthAdjust="spacing" textLength="82.3608" x="267" y="480.1045">iniciarSesion()</text></g><!--link PANEL_PRINCIPAL_ABIERTO to SESION_CERRADA--><g class="link" data-entity-1="ent0004" data-entity-2="ent0002" data-link-type="dependency" data-source-line="8" id="lnk6"><path d="M379.82,461.3894 C332.73,452.9894 283.5922,444.2178 241.1722,436.6478" fill="none" id="PANEL_PRINCIPAL_ABIERTO-to-SESION_CERRADA" style="stroke:#181818;stroke-width:1;"/><polygon fill="#181818" points="236.25,435.7694,244.4073,441.2883,241.1722,436.6478,245.8127,433.4127,236.25,435.7694" style="stroke:#181818;stroke-width:1;stroke-linejoin:miter;stroke-miterlimit:10;"/><text fill="#000000" font-family="sans-serif" font-size="13" lengthAdjust="spacing" textLength="82.3545" x="267" y="438.1045">cerrarSesion()</text></g><!--link PANEL_PRINCIPAL_ABIERTO to OPCIONES_PERFIL_ABIERTO--><g class="link" data-entity-1="ent0004" data-entity-2="ent0007" data-link-type="dependency" data-source-line="10" id="lnk8"><path d="M492.37,455.4094 C500.7,395.0394 530.79,241.9694 627,171.6094 C664.37,144.2694 774.932,135.7714 863.252,133.2614" fill="none" id="PANEL_PRINCIPAL_ABIERTO-to-OPCIONES_PERFIL_ABIERTO" style="stroke:#181818;stroke-width:1;"/><polygon fill="#181818" points="868.25,133.1194,859.14,129.3767,863.252,133.2614,859.3673,137.3734,868.25,133.1194" style="stroke:#181818;stroke-width:1;stroke-linejoin:miter;stroke-miterlimit:10;"/><text fill="#000000" font-family="sans-serif" font-size="13" lengthAdjust="spacing" textLength="119.2026" x="653" y="133.1045">abrirOpcionesPerfil()</text></g><!--link OPCIONES_PERFIL_ABIERTO to PANEL_PRINCIPAL_ABIERTO--><g class="link" data-entity-1="ent0007" data-entity-2="ent0004" data-link-type="dependency" data-source-line="22" id="lnk23"><path d="M882.37,157.7094 C864,163.7194 845.14,170.7094 828,178.6094 C813.66,185.2094 812.54,191.4594 798,197.6094 C726.01,228.0394 689.47,191.6394 627,238.6094 C551.69,295.2394 512.7746,401.2226 497.8146,450.7926" fill="none" id="OPCIONES_PERFIL_ABIERTO-to-PANEL_PRINCIPAL_ABIERTO" style="stroke:#181818;stroke-width:1;"/><polygon fill="#181818" points="496.37,455.5794,502.7997,448.1189,497.8146,450.7926,495.1409,445.8075,496.37,455.5794" style="stroke:#181818;stroke-width:1;stroke-linejoin:miter;stroke-miterlimit:10;"/><text fill="#000000" font-family="sans-serif" font-size="13" lengthAdjust="spacing" textLength="117.7681" x="654" y="194.1045">abrirPanelPrincipal()</text></g><!--link PANEL_PRINCIPAL_ABIERTO to OPCIONES_CARGA_TRABAJO_ABIERTAS--><g class="link" data-entity-1="ent0004" data-entity-2="ent0009" data-link-type="dependency" data-source-line="11" id="lnk10"><path d="M507.61,455.5894 C531.39,424.6794 576.13,372.8594 627,345.6094 C695.46,308.9294 722.18,326.4594 798,309.6094 C822.06,304.2594 843.0107,299.4652 867.3607,293.7852" fill="none" id="PANEL_PRINCIPAL_ABIERTO-to-OPCIONES_CARGA_TRABAJO_ABIERTAS" style="stroke:#181818;stroke-width:1;"/><polygon fill="#181818" points="872.23,292.6494,862.5566,290.7984,867.3607,293.7852,864.374,298.5893,872.23,292.6494" style="stroke:#181818;stroke-width:1;stroke-linejoin:miter;stroke-miterlimit:10;"/><text fill="#000000" font-family="sans-serif" font-size="13" lengthAdjust="spacing" textLength="169.0698" x="628" y="306.1045">abrirOpcionesCargaTrabajo()</text></g><!--link OPCIONES_CARGA_TRABAJO_ABIERTAS to PANEL_PRINCIPAL_ABIERTO--><g class="link" data-entity-1="ent0009" data-entity-2="ent0004" data-link-type="dependency" data-source-line="25" id="lnk25"><path d="M827.86,263.4694 C748.78,263.7594 661.15,268.7594 627,287.6094 C558.93,325.1894 518.3076,407.8394 500.7276,450.9594" fill="none" id="OPCIONES_CARGA_TRABAJO_ABIERTAS-to-PANEL_PRINCIPAL_ABIERTO" style="stroke:#181818;stroke-width:1;"/><polygon fill="#181818" points="498.84,455.5894,505.9418,448.7655,500.7276,450.9594,498.5338,445.7453,498.84,455.5894" style="stroke:#181818;stroke-width:1;stroke-linejoin:miter;stroke-miterlimit:10;"/><text fill="#000000" font-family="sans-serif" font-size="13" lengthAdjust="spacing" textLength="117.7681" x="654" y="261.1045">abrirPanelPrincipal()</text></g><!--link PANEL_PRINCIPAL_ABIERTO to PROYECTOS_ABIERTOS--><g class="link" data-entity-1="ent0004" data-entity-2="ent0011" data-link-type="dependency" data-source-line="12" id="lnk12"><path d="M488.95,505.8094 C488.87,579.4194 499.95,794.5694 627,885.6094 C705.9,942.1394 817.6925,928.295 894.4225,908.895" fill="none" id="PANEL_PRINCIPAL_ABIERTO-to-PROYECTOS_ABIERTOS" style="stroke:#181818;stroke-width:1;"/><polygon fill="#181818" points="899.27,907.6694,889.5641,905.9975,894.4225,908.895,891.5251,913.7534,899.27,907.6694" style="stroke:#181818;stroke-width:1;stroke-linejoin:miter;stroke-miterlimit:10;"/><text fill="#000000" font-family="sans-serif" font-size="13" lengthAdjust="spacing" textLength="92.4663" x="666.5" y="882.1045">abrirProyectos()</text></g><!--link PROYECTOS_ABIERTOS to PANEL_PRINCIPAL_ABIERTO--><g class="link" data-entity-1="ent0011" data-entity-2="ent0004" data-link-type="dependency" data-source-line="40" id="lnk40"><path d="M885.4,872.9094 C788.41,861.9594 646.96,843.5694 627,827.6094 C523,744.4394 497.8341,576.1678 491.7641,511.0578" fill="none" id="PROYECTOS_ABIERTOS-to-PANEL_PRINCIPAL_ABIERTO" style="stroke:#181818;stroke-width:1;"/><polygon fill="#181818" points="491.3,506.0794,488.1527,515.4118,491.7641,511.0578,496.1181,514.6692,491.3,506.0794" style="stroke:#181818;stroke-width:1;stroke-linejoin:miter;stroke-miterlimit:10;"/><text fill="#000000" font-family="sans-serif" font-size="13" lengthAdjust="spacing" textLength="117.7681" x="654" y="824.1045">abrirPanelPrincipal()</text></g><!--link PANEL_PRINCIPAL_ABIERTO to INVESTIGADORES_ABIERTOS--><g class="link" data-entity-1="ent0004" data-entity-2="ent0013" data-link-type="dependency" data-source-line="13" id="lnk14"><path d="M494.48,505.9394 C506.49,559.5694 542.58,684.0894 627,738.6094 C803.99,852.9094 1446.1589,810.4234 1707.7189,787.6334" fill="none" id="PANEL_PRINCIPAL_ABIERTO-to-INVESTIGADORES_ABIERTOS" style="stroke:#181818;stroke-width:1;"/><polygon fill="#181818" points="1712.7,787.1994,1703.3868,783.9957,1707.7189,787.6334,1704.0812,791.9655,1712.7,787.1994" style="stroke:#181818;stroke-width:1;stroke-linejoin:miter;stroke-miterlimit:10;"/><text fill="#000000" font-family="sans-serif" font-size="13" lengthAdjust="spacing" textLength="119.2153" x="1168" y="808.1045">abrirInvestigadores()</text></g><!--link INVESTIGADORES_ABIERTOS to PANEL_PRINCIPAL_ABIERTO--><g class="link" data-entity-1="ent0013" data-entity-2="ent0004" data-link-type="dependency" data-source-line="59" id="lnk58"><path d="M1712.99,769.1194 C1434.92,749.6194 721.63,695.2594 627,644.6094 C567.38,612.6994 525.4542,547.6479 504.7942,510.1779" fill="none" id="INVESTIGADORES_ABIERTOS-to-PANEL_PRINCIPAL_ABIERTO" style="stroke:#181818;stroke-width:1;"/><polygon fill="#181818" points="502.38,505.7994,503.2228,515.6121,504.7942,510.1779,510.2284,511.7494,502.38,505.7994" style="stroke:#181818;stroke-width:1;stroke-linejoin:miter;stroke-miterlimit:10;"/><text fill="#000000" font-family="sans-serif" font-size="13" lengthAdjust="spacing" textLength="117.7681" x="1169" y="721.1045">abrirPanelPrincipal()</text></g><!--link PANEL_PRINCIPAL_ABIERTO to MIS_PUBLICACIONES_ABIERTAS--><g class="link" data-entity-1="ent0004" data-entity-2="ent0015" data-link-type="dependency" data-source-line="14" id="lnk16"><path d="M597.21,483.1794 C607.28,483.3594 617.33,483.4994 627,483.6094 C703,484.4394 722,484.2394 798,483.6094 C817.01,483.4494 832.1506,483.2757 851.8106,482.9757" fill="none" id="PANEL_PRINCIPAL_ABIERTO-to-MIS_PUBLICACIONES_ABIERTAS" style="stroke:#181818;stroke-width:1;"/><polygon fill="#181818" points="856.81,482.8994,847.75,479.0372,851.8106,482.9757,847.8721,487.0362,856.81,482.8994" style="stroke:#181818;stroke-width:1;stroke-linejoin:miter;stroke-miterlimit:10;"/><text fill="#000000" font-family="sans-serif" font-size="13" lengthAdjust="spacing" textLength="135.0972" x="645" y="480.1045">abrirMisPublicaciones()</text></g><!--link MIS_PUBLICACIONES_ABIERTAS to PANEL_PRINCIPAL_ABIERTO--><g class="link" data-entity-1="ent0015" data-entity-2="ent0004" data-link-type="dependency" data-source-line="36" id="lnk36"><path d="M856.64,502.8394 C837.1,505.6594 817.04,508.0794 798,509.6094 C722.24,515.6894 702.59,517.4894 627,509.6094 C617.29,508.5994 612.1934,508.0026 602.1834,506.3526" fill="none" id="MIS_PUBLICACIONES_ABIERTAS-to-PANEL_PRINCIPAL_ABIERTO" style="stroke:#181818;stroke-width:1;"/><polygon fill="#181818" points="597.25,505.5394,605.4796,510.9499,602.1834,506.3526,606.7807,503.0564,597.25,505.5394" style="stroke:#181818;stroke-width:1;stroke-linejoin:miter;stroke-miterlimit:10;"/><text fill="#000000" font-family="sans-serif" font-size="13" lengthAdjust="spacing" textLength="117.7681" x="654" y="506.1045">abrirPanelPrincipal()</text></g><!--link PANEL_PRINCIPAL_ABIERTO to PUBLICACIONES_ABIERTAS--><g class="link" data-entity-1="ent0004" data-entity-2="ent0017" data-link-type="dependency" data-source-line="15" id="lnk18"><path d="M540.14,505.6194 C565.71,517.4894 597.49,531.1194 627,540.6094 C708.01,566.6594 797.5685,585.3969 868.0085,598.0269" fill="none" id="PANEL_PRINCIPAL_ABIERTO-to-PUBLICACIONES_ABIERTAS" style="stroke:#181818;stroke-width:1;"/><polygon fill="#181818" points="872.93,598.9094,864.7772,593.3838,868.0085,598.0269,863.3653,601.2582,872.93,598.9094" style="stroke:#181818;stroke-width:1;stroke-linejoin:miter;stroke-miterlimit:10;"/><text fill="#000000" font-family="sans-serif" font-size="13" lengthAdjust="spacing" textLength="114.8799" x="655.5" y="537.1045">abrirPublicaciones()</text></g><!--link PUBLICACIONES_ABIERTAS to PANEL_PRINCIPAL_ABIERTO--><g class="link" data-entity-1="ent0017" data-entity-2="ent0004" data-link-type="dependency" data-source-line="30" id="lnk30"><path d="M872.74,633.0394 C800.95,640.4494 704.97,641.2294 627,609.6094 C574.52,588.3294 533.1718,540.9055 509.9318,509.7855" fill="none" id="PUBLICACIONES_ABIERTAS-to-PANEL_PRINCIPAL_ABIERTO" style="stroke:#181818;stroke-width:1;"/><polygon fill="#181818" points="506.94,505.7794,509.1202,515.3839,509.9318,509.7855,515.5301,510.5971,506.94,505.7794" style="stroke:#181818;stroke-width:1;stroke-linejoin:miter;stroke-miterlimit:10;"/><text fill="#000000" font-family="sans-serif" font-size="13" lengthAdjust="spacing" textLength="117.7681" x="654" y="606.1045">abrirPanelPrincipal()</text></g><!--link PANEL_PRINCIPAL_ABIERTO to RECOMPENSAS_ABIERTAS--><g class="link" data-entity-1="ent0004" data-entity-2="ent0019" data-link-type="dependency" data-source-line="16" id="lnk20"><path d="M525.05,455.5894 C551.81,438.0594 590.08,415.6894 627,403.6094 C707.84,377.1494 799.0278,367.0187 870.1578,363.0387" fill="none" id="PANEL_PRINCIPAL_ABIERTO-to-RECOMPENSAS_ABIERTAS" style="stroke:#181818;stroke-width:1;"/><polygon fill="#181818" points="875.15,362.7594,865.9406,359.2684,870.1578,363.0387,866.3875,367.2559,875.15,362.7594" style="stroke:#181818;stroke-width:1;stroke-linejoin:miter;stroke-miterlimit:10;"/><text fill="#000000" font-family="sans-serif" font-size="13" lengthAdjust="spacing" textLength="117.7617" x="654" y="366.1045">abrirRecompensas()</text></g><!--link RECOMPENSAS_ABIERTAS to PANEL_PRINCIPAL_ABIERTO--><g class="link" data-entity-1="ent0019" data-entity-2="ent0004" data-link-type="dependency" data-source-line="44" id="lnk44"><path d="M921.09,385.6894 C886.22,400.3394 840.2,418.1394 798,429.6094 C760.94,439.6794 675.5351,453.4603 602.1351,464.4303" fill="none" id="RECOMPENSAS_ABIERTAS-to-PANEL_PRINCIPAL_ABIERTO" style="stroke:#181818;stroke-width:1;"/><polygon fill="#181818" points="597.19,465.1694,606.6824,467.7951,602.1351,464.4303,605.4999,459.883,597.19,465.1694" style="stroke:#181818;stroke-width:1;stroke-linejoin:miter;stroke-miterlimit:10;"/><text fill="#000000" font-family="sans-serif" font-size="13" lengthAdjust="spacing" textLength="117.7681" x="654" y="426.1045">abrirPanelPrincipal()</text></g><!--link OPCIONES_PERFIL_ABIERTO to OPCIONES_PERFIL_ABIERTO--><g class="link" data-entity-1="ent0007" data-entity-2="ent0007" data-link-type="dependency" data-source-line="20" id="lnk21"><path d="M936.54,107.3294 C923.83,89.8394 937.81,72.6094 978.5,72.6094 C1019.19,72.6094 1036.1093,85.7946 1023.3993,103.2846" fill="none" id="OPCIONES_PERFIL_ABIERTO-to-OPCIONES_PERFIL_ABIERTO" style="stroke:#181818;stroke-width:1;"/><polygon fill="#181818" points="1020.46,107.3294,1028.9866,102.4002,1023.3993,103.2846,1022.515,97.6973,1020.46,107.3294" style="stroke:#181818;stroke-width:1;stroke-linejoin:miter;stroke-miterlimit:10;"/><text fill="#000000" font-family="sans-serif" font-size="13" lengthAdjust="spacing" textLength="70.7954" x="943.5" y="64.1045">editarPerfil()</text></g><!--link OPCIONES_PERFIL_ABIERTO to SESION_CERRADA--><g class="link" data-entity-1="ent0007" data-entity-2="ent0002" data-link-type="dependency" data-source-line="21" id="lnk22"><path d="M868.21,107.7394 C797.88,96.3194 705.31,89.9394 627,113.6094 C436.94,171.0494 257.0185,331.1783 191.4385,394.0783" fill="none" id="OPCIONES_PERFIL_ABIERTO-to-SESION_CERRADA" style="stroke:#181818;stroke-width:1;"/><polygon fill="#181818" points="187.83,397.5394,197.0941,394.1963,191.4385,394.0783,191.5565,388.4227,187.83,397.5394" style="stroke:#181818;stroke-width:1;stroke-linejoin:miter;stroke-miterlimit:10;"/><text fill="#000000" font-family="sans-serif" font-size="13" lengthAdjust="spacing" textLength="148.8145" x="414.5" y="121.1045">solicitarEliminacionPerfil()</text></g><!--link OPCIONES_CARGA_TRABAJO_ABIERTAS to OPCIONES_CARGA_TRABAJO_ABIERTAS--><g class="link" data-entity-1="ent0009" data-entity-2="ent0009" data-link-type="dependency" data-source-line="24" id="lnk24"><path d="M936.54,242.3294 C923.83,224.8394 937.81,207.6094 978.5,207.6094 C1019.19,207.6094 1036.1093,220.7946 1023.3993,238.2846" fill="none" id="OPCIONES_CARGA_TRABAJO_ABIERTAS-to-OPCIONES_CARGA_TRABAJO_ABIERTAS" style="stroke:#181818;stroke-width:1;"/><polygon fill="#181818" points="1020.46,242.3294,1028.9866,237.4002,1023.3993,238.2846,1022.515,232.6973,1020.46,242.3294" style="stroke:#181818;stroke-width:1;stroke-linejoin:miter;stroke-miterlimit:10;"/><text fill="#000000" font-family="sans-serif" font-size="13" lengthAdjust="spacing" textLength="120.6626" x="918.5" y="199.1045">editarCargaTrabajo()</text></g><!--link PUBLICACIONES_ABIERTAS to PUBLICACION_ABIERTA--><g class="link" data-entity-1="ent0017" data-entity-2="ent0026" data-link-type="dependency" data-source-line="27" id="lnk27"><path d="M1068.26,640.6294 C1096.97,647.5794 1129.11,654.1594 1159,657.6094 C1219.49,664.5894 1235.83,666.9494 1296,657.6094 C1318.34,654.1394 1337.3212,649.1243 1358.4112,642.1743" fill="none" id="PUBLICACIONES_ABIERTAS-to-PUBLICACION_ABIERTA" style="stroke:#181818;stroke-width:1;"/><polygon fill="#181818" points="1363.16,640.6094,1353.3602,639.6272,1358.4112,642.1743,1355.8641,647.2253,1363.16,640.6094" style="stroke:#181818;stroke-width:1;stroke-linejoin:miter;stroke-miterlimit:10;"/><text fill="#000000" font-family="sans-serif" font-size="13" lengthAdjust="spacing" textLength="101.1499" x="1177" y="654.1045">abrirPublicacion()</text></g><!--link PUBLICACION_ABIERTA to PUBLICACIONES_ABIERTAS--><g class="link" data-entity-1="ent0026" data-entity-2="ent0017" data-link-type="dependency" data-source-line="29" id="lnk29"><path d="M1337.3,615.6094 C1264.03,615.6094 1165.83,615.6094 1089.09,615.6094" fill="none" id="PUBLICACION_ABIERTA-to-PUBLICACIONES_ABIERTAS" style="stroke:#181818;stroke-width:1;"/><polygon fill="#181818" points="1084.09,615.6094,1093.09,619.6094,1089.09,615.6094,1093.09,611.6094,1084.09,615.6094" style="stroke:#181818;stroke-width:1;stroke-linejoin:miter;stroke-miterlimit:10;"/><text fill="#000000" font-family="sans-serif" font-size="13" lengthAdjust="spacing" textLength="114.8799" x="1170.5" y="612.1045">abrirPublicaciones()</text></g><!--link PUBLICACION_ABIERTA to PUBLICACION_ABIERTA--><g class="link" data-entity-1="ent0026" data-entity-2="ent0026" data-link-type="dependency" data-source-line="28" id="lnk28"><path d="M1396.52,590.3294 C1386.67,572.8394 1397.5,555.6094 1429,555.6094 C1460.5,555.6094 1473.7836,568.4828 1463.9336,585.9728" fill="none" id="PUBLICACION_ABIERTA-to-PUBLICACION_ABIERTA" style="stroke:#181818;stroke-width:1;"/><polygon fill="#181818" points="1461.48,590.3294,1469.3817,584.4503,1463.9336,585.9728,1462.4111,580.5246,1461.48,590.3294" style="stroke:#181818;stroke-width:1;stroke-linejoin:miter;stroke-miterlimit:10;"/><text fill="#000000" font-family="sans-serif" font-size="13" lengthAdjust="spacing" textLength="133.6816" x="1362.5" y="547.1045">responderPublicacion()</text></g><!--link MIS_PUBLICACIONES_ABIERTAS to MI_PUBLICACION_ABIERTA--><g class="link" data-entity-1="ent0015" data-entity-2="ent0031" data-link-type="dependency" data-source-line="32" id="lnk32"><path d="M1100.34,490.5694 C1159.6,493.2194 1231.86,493.1094 1296,483.6094 C1316.84,480.5194 1334.1794,476.2941 1354.2194,470.1541" fill="none" id="MIS_PUBLICACIONES_ABIERTAS-to-MI_PUBLICACION_ABIERTA" style="stroke:#181818;stroke-width:1;"/><polygon fill="#181818" points="1359,468.6894,1349.2231,467.5014,1354.2194,470.1541,1351.5666,475.1504,1359,468.6894" style="stroke:#181818;stroke-width:1;stroke-linejoin:miter;stroke-miterlimit:10;"/><text fill="#000000" font-family="sans-serif" font-size="13" lengthAdjust="spacing" textLength="114.8672" x="1170.5" y="480.1045">abrirMiPublicacion()</text></g><!--link MIS_PUBLICACIONES_ABIERTAS to MI_PUBLICACION_ABIERTA--><g class="link" data-entity-1="ent0015" data-entity-2="ent0031" data-link-type="dependency" data-source-line="33" id="lnk33"><path d="M1058.01,505.6794 C1122.74,522.5894 1216.51,538.3694 1296,517.6094 C1332.22,508.1494 1364.8984,489.12 1390.4084,471.6" fill="none" id="MIS_PUBLICACIONES_ABIERTAS-to-MI_PUBLICACION_ABIERTA-1" style="stroke:#181818;stroke-width:1;"/><polygon fill="#181818" points="1394.53,468.7694,1384.8466,470.5673,1390.4084,471.6,1389.3757,477.1618,1394.53,468.7694" style="stroke:#181818;stroke-width:1;stroke-linejoin:miter;stroke-miterlimit:10;"/><text fill="#000000" font-family="sans-serif" font-size="13" lengthAdjust="spacing" textLength="104.7617" x="1175.5" y="514.1045">crearPublicacion()</text></g><!--link MI_PUBLICACION_ABIERTA to MIS_PUBLICACIONES_ABIERTAS--><g class="link" data-entity-1="ent0031" data-entity-2="ent0015" data-link-type="dependency" data-source-line="35" id="lnk35"><path d="M1359,418.5294 C1338.96,412.3894 1316.84,406.6994 1296,403.6094 C1235.77,394.6794 1218.64,391.3594 1159,403.6094 C1110.67,413.5394 1063.7223,434.7354 1028.3823,453.1854" fill="none" id="MI_PUBLICACION_ABIERTA-to-MIS_PUBLICACIONES_ABIERTAS" style="stroke:#181818;stroke-width:1;"/><polygon fill="#181818" points="1023.95,455.4994,1033.7794,454.8801,1028.3823,453.1854,1030.077,447.7883,1023.95,455.4994" style="stroke:#181818;stroke-width:1;stroke-linejoin:miter;stroke-miterlimit:10;"/><text fill="#000000" font-family="sans-serif" font-size="13" lengthAdjust="spacing" textLength="120.6563" x="1167.5" y="377.1045">eliminarPublicacion()</text><text fill="#000000" font-family="sans-serif" font-size="13" lengthAdjust="spacing" textLength="38.2764" x="1208.6899" y="393.4561">(retira)</text></g><!--link MI_PUBLICACION_ABIERTA to MIS_PUBLICACIONES_ABIERTAS--><g class="link" data-entity-1="ent0031" data-entity-2="ent0015" data-link-type="dependency" data-source-line="37" id="lnk37"><path d="M1325.74,449.5194 C1275.48,452.6594 1214.03,456.8594 1159,461.6094 C1139.96,463.2494 1124.7643,464.6833 1105.1043,466.6833" fill="none" id="MI_PUBLICACION_ABIERTA-to-MIS_PUBLICACIONES_ABIERTAS-1" style="stroke:#181818;stroke-width:1;"/><polygon fill="#181818" points="1100.13,467.1894,1109.4886,470.258,1105.1043,466.6833,1108.679,462.299,1100.13,467.1894" style="stroke:#181818;stroke-width:1;stroke-linejoin:miter;stroke-miterlimit:10;"/><text fill="#000000" font-family="sans-serif" font-size="13" lengthAdjust="spacing" textLength="135.0972" x="1160" y="449.1045">abrirMisPublicaciones()</text></g><!--link MI_PUBLICACION_ABIERTA to MI_PUBLICACION_ABIERTA--><g class="link" data-entity-1="ent0031" data-entity-2="ent0031" data-link-type="dependency" data-source-line="34" id="lnk34"><path d="M1396.52,418.3294 C1386.67,400.8394 1397.5,383.6094 1429,383.6094 C1460.5,383.6094 1473.7836,396.4828 1463.9336,413.9728" fill="none" id="MI_PUBLICACION_ABIERTA-to-MI_PUBLICACION_ABIERTA" style="stroke:#181818;stroke-width:1;"/><polygon fill="#181818" points="1461.48,418.3294,1469.3817,412.4503,1463.9336,413.9728,1462.4111,408.5246,1461.48,418.3294" style="stroke:#181818;stroke-width:1;stroke-linejoin:miter;stroke-miterlimit:10;"/><text fill="#000000" font-family="sans-serif" font-size="13" lengthAdjust="spacing" textLength="107.6626" x="1375.5" y="375.1045">editarPublicacion()</text></g><!--link PROYECTOS_ABIERTOS to PROYECTO_ABIERTO--><g class="link" data-entity-1="ent0011" data-entity-2="ent0038" data-link-type="dependency" data-source-line="39" id="lnk39"><path d="M1071.61,897.1894 C1151.85,909.8894 1262.2415,927.3677 1339.7615,939.6377" fill="none" id="PROYECTOS_ABIERTOS-to-PROYECTO_ABIERTO" style="stroke:#181818;stroke-width:1;"/><polygon fill="#181818" points="1344.7,940.4194,1336.436,935.0615,1339.7615,939.6377,1335.1853,942.9632,1344.7,940.4194" style="stroke:#181818;stroke-width:1;stroke-linejoin:miter;stroke-miterlimit:10;"/><text fill="#000000" font-family="sans-serif" font-size="13" lengthAdjust="spacing" textLength="85.9663" x="1185" y="908.1045">abrirProyecto()</text></g><!--link PROYECTO_ABIERTO to PROYECTOS_ABIERTOS--><g class="link" data-entity-1="ent0038" data-entity-2="ent0011" data-link-type="dependency" data-source-line="50" id="lnk50"><path d="M1344.74,964.4194 C1291.17,969.1094 1220.34,971.0594 1159,958.6094 C1111.08,948.8794 1064.5077,928.2036 1029.1677,910.0536" fill="none" id="PROYECTO_ABIERTO-to-PROYECTOS_ABIERTOS" style="stroke:#181818;stroke-width:1;"/><polygon fill="#181818" points="1024.72,907.7694,1030.8985,915.4392,1029.1677,910.0536,1034.5533,908.3229,1024.72,907.7694" style="stroke:#181818;stroke-width:1;stroke-linejoin:miter;stroke-miterlimit:10;"/><text fill="#000000" font-family="sans-serif" font-size="13" lengthAdjust="spacing" textLength="92.4663" x="1181.5" y="955.1045">abrirProyectos()</text></g><!--link RECOMPENSAS_ABIERTAS to RECOMPENSA_ABIERTA--><g class="link" data-entity-1="ent0019" data-entity-2="ent0041" data-link-type="dependency" data-source-line="42" id="lnk42"><path d="M1079.5,335.4594 C1096.87,328.6394 1114.11,320.1394 1129,309.6094 C1146.57,297.1794 1139.81,281.3494 1159,271.6094 C1212.96,244.2094 1276.187,241.5576 1330.407,246.0376" fill="none" id="RECOMPENSAS_ABIERTAS-to-RECOMPENSA_ABIERTA" style="stroke:#181818;stroke-width:1;"/><polygon fill="#181818" points="1335.39,246.4494,1326.7499,241.7218,1330.407,246.0376,1326.0912,249.6947,1335.39,246.4494" style="stroke:#181818;stroke-width:1;stroke-linejoin:miter;stroke-miterlimit:10;"/><text fill="#000000" font-family="sans-serif" font-size="13" lengthAdjust="spacing" textLength="111.2617" x="1172" y="242.1045">abrirRecompensa()</text></g><!--link RECOMPENSA_ABIERTA to RECOMPENSAS_ABIERTAS--><g class="link" data-entity-1="ent0041" data-entity-2="ent0019" data-link-type="dependency" data-source-line="43" id="lnk43"><path d="M1339.46,286.6694 C1324.98,290.4994 1310.1,294.2894 1296,297.6094 C1224.83,314.3694 1148.8938,329.4948 1086.7138,341.1948" fill="none" id="RECOMPENSA_ABIERTA-to-RECOMPENSAS_ABIERTAS" style="stroke:#181818;stroke-width:1;"/><polygon fill="#181818" points="1081.8,342.1194,1091.3845,344.3861,1086.7138,341.1948,1089.9051,336.5241,1081.8,342.1194" style="stroke:#181818;stroke-width:1;stroke-linejoin:miter;stroke-miterlimit:10;"/><text fill="#000000" font-family="sans-serif" font-size="13" lengthAdjust="spacing" textLength="117.7617" x="1169" y="294.1045">abrirRecompensas()</text></g><!--link PROYECTO_ABIERTO to ENTREGABLES_ABIERTOS--><g class="link" data-entity-1="ent0038" data-entity-2="ent0045" data-link-type="dependency" data-source-line="47" id="lnk46"><path d="M1513.45,966.3294 C1574.82,975.6894 1653.5371,987.6961 1718.4971,997.5961" fill="none" id="PROYECTO_ABIERTO-to-ENTREGABLES_ABIERTOS" style="stroke:#181818;stroke-width:1;"/><polygon fill="#181818" points="1723.44,998.3494,1715.1454,993.0391,1718.4971,997.5961,1713.9401,1000.9478,1723.44,998.3494" style="stroke:#181818;stroke-width:1;stroke-linejoin:miter;stroke-miterlimit:10;"/><text fill="#000000" font-family="sans-serif" font-size="13" lengthAdjust="spacing" textLength="104.0444" x="1570.5" y="971.1045">abrirEntregables()</text></g><!--link ENTREGABLES_ABIERTOS to PROYECTO_ABIERTO--><g class="link" data-entity-1="ent0045" data-entity-2="ent0038" data-link-type="dependency" data-source-line="55" id="lnk54"><path d="M1723.32,1025.5794 C1674.15,1028.7294 1614.36,1028.4594 1562,1016.6094 C1529.56,1009.2594 1500.1101,995.3867 1474.8301,981.1967" fill="none" id="ENTREGABLES_ABIERTOS-to-PROYECTO_ABIERTO" style="stroke:#181818;stroke-width:1;"/><polygon fill="#181818" points="1470.47,978.7494,1476.3603,986.6427,1474.8301,981.1967,1480.2761,979.6666,1470.47,978.7494" style="stroke:#181818;stroke-width:1;stroke-linejoin:miter;stroke-miterlimit:10;"/><text fill="#000000" font-family="sans-serif" font-size="13" lengthAdjust="spacing" textLength="85.9663" x="1580" y="1013.1045">abrirProyecto()</text></g><!--link ENTREGABLES_ABIERTOS to ENTREGABLE_ABIERTO--><g class="link" data-entity-1="ent0045" data-entity-2="ent0047" data-link-type="dependency" data-source-line="48" id="lnk48"><path d="M1867.15,988.4994 C1894.26,973.6694 1930.96,956.3194 1966,948.6094 C2018.52,937.0494 2034.39,937.4794 2087,948.6094 C2115.55,954.6494 2141.0266,965.3159 2164.6166,977.2259" fill="none" id="ENTREGABLES_ABIERTOS-to-ENTREGABLE_ABIERTO" style="stroke:#181818;stroke-width:1;"/><polygon fill="#181818" points="2169.08,979.4794,2162.8486,971.8524,2164.6166,977.2259,2159.2431,978.9939,2169.08,979.4794" style="stroke:#181818;stroke-width:1;stroke-linejoin:miter;stroke-miterlimit:10;"/><text fill="#000000" font-family="sans-serif" font-size="13" lengthAdjust="spacing" textLength="101.1563" x="1976" y="936.1045">crearEntregable()</text></g><!--link ENTREGABLES_ABIERTOS to ENTREGABLE_ABIERTO--><g class="link" data-entity-1="ent0045" data-entity-2="ent0047" data-link-type="dependency" data-source-line="53" id="lnk52"><path d="M1925.64,1008.1094 C1939.2,1007.5094 1952.94,1006.9894 1966,1006.6094 C2017.97,1005.0994 2071.11,1004.5943 2117.97,1004.4543" fill="none" id="ENTREGABLES_ABIERTOS-to-ENTREGABLE_ABIERTO-1" style="stroke:#181818;stroke-width:1;"/><polygon fill="#181818" points="2122.97,1004.4394,2113.9581,1000.4663,2117.97,1004.4543,2113.982,1008.4662,2122.97,1004.4394" style="stroke:#181818;stroke-width:1;stroke-linejoin:miter;stroke-miterlimit:10;"/><text fill="#000000" font-family="sans-serif" font-size="13" lengthAdjust="spacing" textLength="97.5444" x="1978" y="1001.1045">abrirEntregable()</text></g><!--link ENTREGABLE_ABIERTO to ENTREGABLES_ABIERTOS--><g class="link" data-entity-1="ent0047" data-entity-2="ent0045" data-link-type="dependency" data-source-line="54" id="lnk53"><path d="M2154.73,1029.6294 C2133.76,1037.3194 2109.7,1044.7694 2087,1048.6094 C2033.97,1057.5694 2019.38,1055.1594 1966,1048.6094 C1948.28,1046.4394 1934.4584,1043.9191 1916.6884,1039.7591" fill="none" id="ENTREGABLE_ABIERTO-to-ENTREGABLES_ABIERTOS" style="stroke:#181818;stroke-width:1;"/><polygon fill="#181818" points="1911.82,1038.6194,1919.6713,1044.5655,1916.6884,1039.7591,1921.4948,1036.7761,1911.82,1038.6194" style="stroke:#181818;stroke-width:1;stroke-linejoin:miter;stroke-miterlimit:10;"/><text fill="#000000" font-family="sans-serif" font-size="13" lengthAdjust="spacing" textLength="117.0508" x="1968" y="1029.1045">eliminarEntregable()</text><text fill="#000000" font-family="sans-serif" font-size="13" lengthAdjust="spacing" textLength="38.2764" x="2007.3872" y="1045.4561">(retira)</text></g><!--link ENTREGABLE_ABIERTO to ENTREGABLES_ABIERTOS--><g class="link" data-entity-1="ent0047" data-entity-2="ent0045" data-link-type="dependency" data-source-line="56" id="lnk55"><path d="M2182.15,1029.7194 C2157.8,1047.5294 2122.33,1069.9194 2087,1079.6094 C2035.14,1093.8294 2018.49,1091.3194 1966,1079.6094 C1930.62,1071.7094 1898.0065,1056.3352 1870.8665,1041.1952" fill="none" id="ENTREGABLE_ABIERTO-to-ENTREGABLES_ABIERTOS-1" style="stroke:#181818;stroke-width:1;"/><polygon fill="#181818" points="1866.5,1038.7594,1872.4111,1046.6371,1870.8665,1041.1952,1876.3084,1039.6507,1866.5,1038.7594" style="stroke:#181818;stroke-width:1;stroke-linejoin:miter;stroke-miterlimit:10;"/><text fill="#000000" font-family="sans-serif" font-size="13" lengthAdjust="spacing" textLength="104.0444" x="1974.5" y="1076.1045">abrirEntregables()</text></g><!--link PROYECTO_ABIERTO to INVESTIGADORES_ABIERTOS--><g class="link" data-entity-1="ent0038" data-entity-2="ent0013" data-link-type="dependency" data-source-line="49" id="lnk49"><path d="M1513.1,954.0194 C1564.46,951.2294 1630.39,941.9794 1683,915.6094 C1736.53,888.7794 1779.3907,837.9622 1803.1507,805.7722" fill="none" id="PROYECTO_ABIERTO-to-INVESTIGADORES_ABIERTOS" style="stroke:#181818;stroke-width:1;"/><polygon fill="#181818" points="1806.12,801.7494,1797.557,806.615,1803.1507,805.7722,1803.9935,811.3659,1806.12,801.7494" style="stroke:#181818;stroke-width:1;stroke-linejoin:miter;stroke-miterlimit:10;"/><text fill="#000000" font-family="sans-serif" font-size="13" lengthAdjust="spacing" textLength="119.2153" x="1563" y="912.1045">abrirInvestigadores()</text></g><!--link ENTREGABLE_ABIERTO to ENTREGABLE_ABIERTO--><g class="link" data-entity-1="ent0047" data-entity-2="ent0047" data-link-type="dependency" data-source-line="52" id="lnk51"><path d="M2182.69,979.3294 C2173.05,961.8394 2183.66,944.6094 2214.5,944.6094 C2245.34,944.6094 2258.3635,957.4605 2248.7235,974.9505" fill="none" id="ENTREGABLE_ABIERTO-to-ENTREGABLE_ABIERTO" style="stroke:#181818;stroke-width:1;"/><polygon fill="#181818" points="2246.31,979.3294,2254.1575,973.3782,2248.7235,974.9505,2247.1512,969.5165,2246.31,979.3294" style="stroke:#181818;stroke-width:1;stroke-linejoin:miter;stroke-miterlimit:10;"/><text fill="#000000" font-family="sans-serif" font-size="13" lengthAdjust="spacing" textLength="104.0571" x="2162.5" y="936.1045">editarEntregable()</text></g><!--link INVESTIGADORES_ABIERTOS to INVESTIGADOR_ABIERTO--><g class="link" data-entity-1="ent0013" data-entity-2="ent0056" data-link-type="dependency" data-source-line="58" id="lnk57"><path d="M1936.12,796.4394 C1946.2,797.7194 1956.27,798.8194 1966,799.6094 C2019.6,803.9694 2033.23,800.2494 2087,799.6094 C2096.67,799.4894 2101.7409,799.4237 2111.8109,799.2337" fill="none" id="INVESTIGADORES_ABIERTOS-to-INVESTIGADOR_ABIERTO" style="stroke:#181818;stroke-width:1;"/><polygon fill="#181818" points="2116.81,799.1394,2107.7361,795.3099,2111.8109,799.2337,2107.8871,803.3084,2116.81,799.1394" style="stroke:#181818;stroke-width:1;stroke-linejoin:miter;stroke-miterlimit:10;"/><text fill="#000000" font-family="sans-serif" font-size="13" lengthAdjust="spacing" textLength="105.4854" x="1974" y="796.1045">abrirInvestigador()</text></g><!--link INVESTIGADOR_ABIERTO to INVESTIGADORES_ABIERTOS--><g class="link" data-entity-1="ent0056" data-entity-2="ent0013" data-link-type="dependency" data-source-line="60" id="lnk59"><path d="M2116.97,780.6394 C2106.87,779.4094 2096.74,778.3494 2087,777.6094 C2037.55,773.8194 1987.6798,773.0365 1941.0198,773.4365" fill="none" id="INVESTIGADOR_ABIERTO-to-INVESTIGADORES_ABIERTOS" style="stroke:#181818;stroke-width:1;"/><polygon fill="#181818" points="1936.02,773.4794,1945.054,777.4021,1941.0198,773.4365,1944.9854,769.4024,1936.02,773.4794" style="stroke:#181818;stroke-width:1;stroke-linejoin:miter;stroke-miterlimit:10;"/><text fill="#000000" font-family="sans-serif" font-size="13" lengthAdjust="spacing" textLength="119.2153" x="1967" y="769.1045">abrirInvestigadores()</text></g><!--link INVESTIGADOR_ABIERTO to PROYECTOS_ABIERTOS--><g class="link" data-entity-1="ent0056" data-entity-2="ent0011" data-link-type="dependency" data-source-line="61" id="lnk60"><path d="M2116.84,806.9094 C2106.77,807.8694 2096.68,808.7894 2087,809.6094 C2019.98,815.2694 2003.11,815.1794 1936,819.6094 C1618.62,840.5694 1246.9892,865.0213 1076.4892,876.2313" fill="none" id="INVESTIGADOR_ABIERTO-to-PROYECTOS_ABIERTOS" style="stroke:#181818;stroke-width:1;"/><polygon fill="#181818" points="1071.5,876.5594,1080.743,879.9603,1076.4892,876.2313,1080.2182,871.9775,1071.5,876.5594" style="stroke:#181818;stroke-width:1;stroke-linejoin:miter;stroke-miterlimit:10;"/><text fill="#000000" font-family="sans-serif" font-size="13" lengthAdjust="spacing" textLength="92.4663" x="1576.5" y="833.1045">abrirProyectos()</text></g><?plantuml-src fPNTZfim48Nl_HHSRYlj2-n59OUu4LK2bg6LghP23dXPhuWT6M_LldrD81imc9yqLqdmV9upSsRGN9VCst9QA7gYNiwyJ0hD_cXPVtyJ7XU_MQLvGNEf02ZPi_RCCyMB5-tbNB5CSoa0-F7nb_Vu-CcBKHn4OUeZGk0MWlxFomaCGxHFCGb2Fy1mdy9DW4WIFPcRUCQfYbbbY0yVWEFWo3LFNiQKweHEnaRODx4eJZ4YduDE0lIek8hEcM6m2ZFrpCkPDDvHFYGxc2O4Rk2Ng3q2OmlfKrNGHD4ZVPKpO4oYxyXFelZwxvM5bVnhQYwh6K0GVaDn4kpWDY9eG0awJMLpg4DWIlLrimzysAgrz1ruXT-E9SzeetDEsnHh3OWWFpfW5CPmW24iawSp4nMj8URZQFgq8LZEDLNlJfXYs8Qif95HHwEIdxYu25e4Sev7KnugM8aL5na_qne5PYoupAQDKCkVIyXhintllMsBwuEX9sf73C-vuusxprBaR3rZWJKdjAmiYtl4sWbCtTKvyBwsErcPObJPfDHLA1UbdPZb6FTgOStWz64_nODYcYiwgtDb2-vCqhN_m721z_QwdKwxrMjNEG9NEcfiDrfBq_BHRMMQ-E6fTHlNUVrQ7S2ks8M2meIW7TpiXwys9BHY1JsMbpwC7RG8jnGk8t2BxpJZlrwjOun5xtSmJDAPUpDulUJ7jBl2hTBreXTK_ZghNK9dL9rTc1-7LMcC600ukZNef9L2juq6CqLPQUcnI-_nbPEpo5l_0000?></g></svg>