<svg xmlns="http://www.w3.org/2000/svg" xmlns:xlink="http://www.w3.org/1999/xlink" contentStyleType="text/css" data-diagram-type="DESCRIPTION" height="463px" preserveAspectRatio="none" style="width:1703px;height:463px;background:#FFFFFF;" version="1.1" viewBox="0 0 1703 463" width="1703px" zoomAndPan="magnify"><?plantuml 1.2026.5?><defs/><g><!--cluster abrirRecompensa--><g class="cluster" data-qualified-name="abrirRecompensa" data-source-line="4" id="ent0002"><path d="M235.5,6 L364.0928,6 A3.75,3.75 0 0 1 366.5928,8.5 L373.5928,29.6094 L990.5,29.6094 A2.5,2.5 0 0 1 993,32.1094 L993,445.5 A2.5,2.5 0 0 1 990.5,448 L235.5,448 A2.5,2.5 0 0 1 233,445.5 L233,8.5 A2.5,2.5 0 0 1 235.5,6" fill="none" style="stroke:#000000;stroke-width:1.5;"/><line style="stroke:#000000;stroke-width:1.5;" x1="233" x2="373.5928" y1="29.6094" y2="29.6094"/><text fill="#000000" font-family="sans-serif" font-size="14" font-weight="700" lengthAdjust="spacing" textLength="127.5928" x="237" y="22.5332">abrirRecompensa()</text></g><!--entity DetalleRecompensaView--><g class="entity" data-qualified-name="abrirRecompensa.DetalleRecompensaView" data-source-line="5" id="ent0003"><rect fill="#629EF9" height="37.6094" rx="2.5" ry="2.5" style="stroke:#181818;stroke-width:0.5;" width="176.4131" x="640" y="42"/><text fill="#000000" font-family="sans-serif" font-size="14" lengthAdjust="spacing" textLength="156.4131" x="650" y="66.5332">DetalleRecompensaView</text></g><!--entity RecompensaController--><g class="entity" data-qualified-name="abrirRecompensa.RecompensaController" data-source-line="6" id="ent0004"><rect fill="#B5BD68" height="37.6094" rx="2.5" ry="2.5" style="stroke:#181818;stroke-width:0.5;" width="163.1787" x="553.5" y="168.5"/><text fill="#000000" font-family="sans-serif" font-size="14" lengthAdjust="spacing" textLength="143.1787" x="563.5" y="193.0332">RecompensaController</text></g><!--entity RecompensaRepository--><g class="entity" data-qualified-name="abrirRecompensa.RecompensaRepository" data-source-line="7" id="ent0005"><rect fill="#F2AC4E" height="37.6094" rx="2.5" ry="2.5" style="stroke:#181818;stroke-width:0.5;" width="169.4063" x="249.5" y="295"/><text fill="#000000" font-family="sans-serif" font-size="14" lengthAdjust="spacing" textLength="149.4063" x="259.5" y="319.5332">RecompensaRepository</text></g><!--entity ProyectoRepository--><g class="entity" data-qualified-name="abrirRecompensa.ProyectoRepository" data-source-line="8" id="ent0006"><rect fill="#F2AC4E" height="37.6094" rx="2.5" ry="2.5" style="stroke:#181818;stroke-width:0.5;" width="142.165" x="463" y="295"/><text fill="#000000" font-family="sans-serif" font-size="14" lengthAdjust="spacing" textLength="122.165" x="473" y="319.5332">ProyectoRepository</text></g><!--entity InvestigadorRepository--><g class="entity" data-qualified-name="abrirRecompensa.InvestigadorRepository" data-source-line="9" id="ent0007"><rect fill="#F2AC4E" height="37.6094" rx="2.5" ry="2.5" style="stroke:#181818;stroke-width:0.5;" width="163.1855" x="741.5" y="295"/><text fill="#000000" font-family="sans-serif" font-size="14" lengthAdjust="spacing" textLength="143.1855" x="751.5" y="319.5332">InvestigadorRepository</text></g><!--entity Recompensa--><g class="entity" data-qualified-name="abrirRecompensa.Recompensa" data-source-line="10" id="ent0008"><rect fill="#F2AC4E" height="37.6094" rx="2.5" ry="2.5" style="stroke:#181818;stroke-width:0.5;" width="102.4893" x="283" y="394"/><text fill="#000000" font-family="sans-serif" font-size="14" lengthAdjust="spacing" textLength="82.4893" x="293" y="418.5332">Recompensa</text></g><!--entity Proyecto--><g class="entity" data-qualified-name="abrirRecompensa.Proyecto" data-source-line="11" id="ent0009"><rect fill="#F2AC4E" height="37.6094" rx="2.5" ry="2.5" style="stroke:#181818;stroke-width:0.5;" width="75.248" x="496.5" y="394"/><text fill="#000000" font-family="sans-serif" font-size="14" lengthAdjust="spacing" textLength="55.248" x="506.5" y="418.5332">Proyecto</text></g><!--entity Investigador--><g class="entity" data-qualified-name="abrirRecompensa.Investigador" data-source-line="12" id="ent0010"><rect fill="#F2AC4E" height="37.6094" rx="2.5" ry="2.5" style="stroke:#181818;stroke-width:0.5;" width="96.2686" x="775" y="394"/><text fill="#000000" font-family="sans-serif" font-size="14" lengthAdjust="spacing" textLength="76.2686" x="785" y="418.5332">Investigador</text></g><!--entity EstadoEntrada--><g class="entity" data-qualified-name="EstadoEntrada" data-source-line="3" id="ent0001"><rect fill="#CDEBA5" height="37.6094" rx="2.5" ry="2.5" style="stroke:#181818;stroke-width:0.5;" width="209.8271" x="7" y="42"/><text fill="#000000" font-family="sans-serif" font-size="14" lengthAdjust="spacing" textLength="189.8271" x="17" y="66.5332">:RECOMPENSAS_ABIERTAS</text></g><!--entity EstadoSalida--><g class="entity" data-qualified-name="EstadoSalida" data-source-line="15" id="ent0011"><rect fill="#CDEBA5" height="37.6094" rx="2.5" ry="2.5" style="stroke:#181818;stroke-width:0.5;" width="191.1514" x="1009.5" y="168.5"/><text fill="#000000" font-family="sans-serif" font-size="14" lengthAdjust="spacing" textLength="171.1514" x="1019.5" y="193.0332">:RECOMPENSA_ABIERTA</text></g><!--entity AbrirRecompensas--><g class="entity" data-qualified-name="AbrirRecompensas" data-source-line="16" id="ent0012"><rect fill="#CDEBA5" height="37.6094" rx="2.5" ry="2.5" style="stroke:#181818;stroke-width:0.5;" width="229.3232" x="1235.5" y="168.5"/><text fill="#000000" font-family="sans-serif" font-size="14" lengthAdjust="spacing" textLength="209.3232" x="1245.5" y="193.0332">:Collaboration AbrirRecompensas</text></g><g class="entity" data-qualified-name="GMN23" data-source-line="30" id="ent0024"><path d="M1499.5,158 L1499.5,217.0547 L1688.8716,217.0547 L1688.8716,168 L1678.8716,158 L1499.5,158" fill="#FEFFDD" style="stroke:#181818;stroke-width:0.5;"/><path d="M1678.8716,158 L1678.8716,168 L1688.8716,168 L1678.8716,158" fill="#FEFFDD" style="stroke:#181818;stroke-width:1;"/><text fill="#000000" font-family="sans-serif" font-size="13" lengthAdjust="spacing" textLength="168.3716" x="1505.5" y="176.4951">El investigador solo consulta.</text><text fill="#000000" font-family="sans-serif" font-size="13" lengthAdjust="spacing" textLength="139.458" x="1505.5" y="192.8467">No crea, edita ni elimina</text><text fill="#000000" font-family="sans-serif" font-size="13" lengthAdjust="spacing" textLength="81.6499" x="1505.5" y="209.1982">recompensas.</text></g><!--link EstadoEntrada to DetalleRecompensaView--><g class="link" data-entity-1="ent0001" data-entity-2="ent0003" data-link-type="dependency" data-source-line="18" id="lnk13"><path d="M217.19,61 C336.26,61 523.12,61 634.71,61" fill="none" id="EstadoEntrada-to-DetalleRecompensaView" style="stroke:#181818;stroke-width:1;"/><polygon fill="#181818" points="639.71,61,630.71,57,634.71,61,630.71,65,639.71,61" style="stroke:#181818;stroke-width:1;stroke-linejoin:miter;stroke-miterlimit:10;"/><text fill="#000000" font-family="sans-serif" font-size="13" lengthAdjust="spacing" textLength="111.2617" x="373" y="54.4951">abrirRecompensa()</text></g><!--link DetalleRecompensaView to RecompensaController--><g class="link" data-entity-1="ent0003" data-entity-2="ent0004" data-link-type="dependency" data-source-line="20" id="lnk14"><path d="M658.96,80.01 C606.75,93.63 544,110 544,110 C544,110 544,128 544,128 C544,128 575.7836,148.437 602.5036,165.607" fill="none" id="DetalleRecompensaView-to-RecompensaController" style="stroke:#181818;stroke-width:1;"/><polygon fill="#181818" points="606.71,168.31,601.3009,160.0795,602.5036,165.607,596.9761,166.8097,606.71,168.31" style="stroke:#181818;stroke-width:1;stroke-linejoin:miter;stroke-miterlimit:10;"/><text fill="#000000" font-family="sans-serif" font-size="13" lengthAdjust="spacing" textLength="139.4644" x="545" y="124.4951">obtenerRecompensa(id)</text></g><!--link DetalleRecompensaView to RecompensaController--><g class="link" data-entity-1="ent0003" data-entity-2="ent0004" data-link-type="dependency" data-source-line="21" id="lnk15"><path d="M717.34,80.03 C705.8,99.58 689,128 689,128 C689,128 671.0315,147.4661 655.1815,164.6361" fill="none" id="DetalleRecompensaView-to-RecompensaController-1" style="stroke:#181818;stroke-width:1;"/><polygon fill="#181818" points="651.79,168.31,660.8338,164.4101,655.1815,164.6361,654.9555,158.9837,651.79,168.31" style="stroke:#181818;stroke-width:1;stroke-linejoin:miter;stroke-miterlimit:10;"/><text fill="#000000" font-family="sans-serif" font-size="13" lengthAdjust="spacing" textLength="247.8442" x="700" y="124.4951">prepararAccionesDisponibles(investigador)</text></g><!--link RecompensaController to InvestigadorRepository--><g class="link" data-entity-1="ent0004" data-entity-2="ent0007" data-link-type="dependency" data-source-line="22" id="lnk16"><path d="M680.92,206.53 C724.7,223.72 784,247 784,247 C784,247 798.2584,271.1142 809.7984,290.6642" fill="none" id="RecompensaController-to-InvestigadorRepository" style="stroke:#181818;stroke-width:1;"/><polygon fill="#181818" points="812.34,294.97,811.2097,285.1862,809.7984,290.6642,804.3204,289.2528,812.34,294.97" style="stroke:#181818;stroke-width:1;stroke-linejoin:miter;stroke-miterlimit:10;"/><text fill="#000000" font-family="sans-serif" font-size="13" lengthAdjust="spacing" textLength="152.4644" x="795" y="261.4951">obtenerPerfil(investigador)</text></g><!--link RecompensaController to RecompensaRepository--><g class="link" data-entity-1="ent0004" data-entity-2="ent0005" data-link-type="dependency" data-source-line="23" id="lnk17"><path d="M553.33,203.34 C457.93,220.67 313,247 313,247 C313,247 313,265 313,265 C313,265 318.1047,276.6798 324.0547,290.2698" fill="none" id="RecompensaController-to-RecompensaRepository" style="stroke:#181818;stroke-width:1;"/><polygon fill="#181818" points="326.06,294.85,326.1146,285.0013,324.0547,290.2698,318.7862,288.2098,326.06,294.85" style="stroke:#181818;stroke-width:1;stroke-linejoin:miter;stroke-miterlimit:10;"/><text fill="#000000" font-family="sans-serif" font-size="13" lengthAdjust="spacing" textLength="208.8379" x="314" y="261.4951">obtenerPropiaPorId(investigador, id)</text></g><!--link RecompensaController to ProyectoRepository--><g class="link" data-entity-1="ent0004" data-entity-2="ent0006" data-link-type="dependency" data-source-line="24" id="lnk18"><path d="M602.95,206.53 C572.39,223.72 531,247 531,247 C531,247 531,265 531,265 C531,265 531.7079,276.2698 532.5579,289.8598" fill="none" id="RecompensaController-to-ProyectoRepository" style="stroke:#181818;stroke-width:1;"/><polygon fill="#181818" points="532.87,294.85,536.3004,285.6179,532.5579,289.8598,528.316,286.1172,532.87,294.85" style="stroke:#181818;stroke-width:1;stroke-linejoin:miter;stroke-miterlimit:10;"/><text fill="#000000" font-family="sans-serif" font-size="13" lengthAdjust="spacing" textLength="247.1016" x="532" y="261.4951">verificarProyectoCompletado(recompensa)</text></g><!--link RecompensaController to RecompensaController--><g class="link" data-entity-1="ent0004" data-entity-2="ent0004" data-link-type="dependency" data-source-line="25" id="lnk19"><path d="M716.66,174.95 C736.63,175.88 751.5,180.06 751.5,187.5 C751.5,194.94 741.6246,198.8874 721.6546,199.8174" fill="none" id="RecompensaController-to-RecompensaController" style="stroke:#181818;stroke-width:1;"/><polygon fill="#181818" points="716.66,200.05,725.8363,203.627,721.6546,199.8174,725.4642,195.6357,716.66,200.05" style="stroke:#181818;stroke-width:1;stroke-linejoin:miter;stroke-miterlimit:10;"/><text fill="#000000" font-family="sans-serif" font-size="13" lengthAdjust="spacing" textLength="139.4517" x="757.5" y="192.9951">validarTipoSegunPerfil()</text></g><!--link RecompensaRepository to Recompensa--><g class="link" data-entity-1="ent0005" data-entity-2="ent0008" data-link-type="association" data-source-line="26" id="lnk20"><path d="M334,333.24 C334,350.59 334,376.52 334,393.84" fill="none" id="RecompensaRepository-Recompensa" style="stroke:#181818;stroke-width:1;"/></g><!--link ProyectoRepository to Proyecto--><g class="link" data-entity-1="ent0006" data-entity-2="ent0009" data-link-type="association" data-source-line="27" id="lnk21"><path d="M534,333.24 C534,350.59 534,376.52 534,393.84" fill="none" id="ProyectoRepository-Proyecto" style="stroke:#181818;stroke-width:1;"/></g><!--link InvestigadorRepository to Investigador--><g class="link" data-entity-1="ent0007" data-entity-2="ent0010" data-link-type="association" data-source-line="28" id="lnk22"><path d="M823,333.24 C823,350.59 823,376.52 823,393.84" fill="none" id="InvestigadorRepository-Investigador" style="stroke:#181818;stroke-width:1;"/></g><!--link RecompensaController to GMN23--><g class="link" data-entity-1="ent0004" data-entity-2="ent0024" data-link-type="association" data-source-line="30" id="lnk25"><path d="M716.72,172.55 C826.92,152.4 1009.5,119 1009.5,119 C1009.5,119 1464.5,119 1464.5,119 C1464.5,119 1502.95,139.34 1537.95,157.85" fill="none" id="RecompensaController-GMN23" style="stroke:#181818;stroke-width:1;stroke-dasharray:7,7;"/></g><!--link DetalleRecompensaView to EstadoSalida--><g class="link" data-entity-1="ent0003" data-entity-2="ent0011" data-link-type="dependency" data-source-line="34" id="lnk26"><path d="M813.55,80.01 C878.24,93.63 956,110 956,110 C956,110 1021.1819,143.4664 1065.2419,166.0864" fill="none" id="DetalleRecompensaView-to-EstadoSalida" style="stroke:#181818;stroke-width:1;stroke-dasharray:7,7;"/><polygon fill="#181818" points="1069.69,168.37,1063.5104,160.7011,1065.2419,166.0864,1059.8566,167.818,1069.69,168.37" style="stroke:#181818;stroke-width:1;stroke-linejoin:miter;stroke-miterlimit:10;"/><text fill="#000000" font-family="sans-serif" font-size="13" lengthAdjust="spacing" textLength="130.7935" x="989" y="124.4951">continuarNavegacion()</text></g><!--link DetalleRecompensaView to AbrirRecompensas--><g class="link" data-entity-1="ent0003" data-entity-2="ent0012" data-link-type="dependency" data-source-line="35" id="lnk27"><path d="M816.28,72.59 C934.07,86.73 1128,110 1128,110 C1128,110 1227.3129,144.2208 1292.9429,166.8408" fill="none" id="DetalleRecompensaView-to-AbrirRecompensas" style="stroke:#181818;stroke-width:1;stroke-dasharray:7,7;"/><polygon fill="#181818" points="1297.67,168.47,1290.4646,161.7557,1292.9429,166.8408,1287.8578,169.3191,1297.67,168.47" style="stroke:#181818;stroke-width:1;stroke-linejoin:miter;stroke-miterlimit:10;"/><text fill="#000000" font-family="sans-serif" font-size="13" lengthAdjust="spacing" textLength="117.7617" x="1176" y="124.4951">abrirRecompensas()</text></g><?plantuml-src ZLJ1Rjf04BtlLupe1QJ08KgYXaCanpWIXrA4erwhiJqueooxrkn2XQh-UzUeW0scu9lNRzxCpdlFxfDDXO8hq6p8Rok2okfj_QAKKExHb9hWIpn9NgD7w8qNIVpzspoPfL7wCtgT9eltAEq1EaYSny8cnWiMg2hCFx4am4nO5fJRLKN6OGtidPpr1ptuhI0yZNvFzy_9spDCoAFMT0J_OFfrYiqUi-BfAnn1iGrJs50dfz2t-oX-I1hG1LNMiRUolG2TYzs6GtiLE3KRSfxBi0Iv2ZuESANj3StKdsjAxOLgw9IYvY1JLrqSDeUP5VHi3KHjiToEu_HGgPRwC9JXIxTsOpXJNwbE90oBGD8bwXXivibGauMBmIMQYooLK6rzYV8yt9JSX5rb3MUQN9yR2nwehleTSRVeXm7d94lMjv9rkV989RPYd5kP5Ys-EwYlVf7ptBvZs93madEK_SSur6gg1UpBWUYcGPlhtEmi9UzSsPJAjVbt-IRFSOh0qmp1-PWru122xZNNa5OGZFK4mkM71xli_Xya6fhR0sUrXTmQjzOUHseMNeJm3gXWZs0OIFEApIufUxUF59a2wcONB3SQlRHYDguxU3Phb1bkgCJQR_t1VwfF0tOM6nVA_m80?></g></svg>