<svg xmlns="http://www.w3.org/2000/svg" xmlns:xlink="http://www.w3.org/1999/xlink" contentStyleType="text/css" data-diagram-type="DESCRIPTION" height="442px" preserveAspectRatio="none" style="width:1215px;height:442px;background:#FFFFFF;" version="1.1" viewBox="0 0 1215 442" width="1215px" zoomAndPan="magnify"><?plantuml 1.2026.4?><defs/><g><!--cluster abrirRecompensa--><g class="cluster" data-qualified-name="abrirRecompensa" data-source-line="4" id="ent0002"><path d="M235.5,6 L364.0928,6 A3.75,3.75 0 0 1 366.5928,8.5 L373.5928,29.6094 L727.5,29.6094 A2.5,2.5 0 0 1 730,32.1094 L730,424.5 A2.5,2.5 0 0 1 727.5,427 L235.5,427 A2.5,2.5 0 0 1 233,424.5 L233,8.5 A2.5,2.5 0 0 1 235.5,6" fill="none" style="stroke:#000000;stroke-width:1.5;"/><line style="stroke:#000000;stroke-width:1.5;" x1="233" x2="373.5928" y1="29.6094" y2="29.6094"/><text fill="#000000" font-family="sans-serif" font-size="14" font-weight="700" lengthAdjust="spacing" textLength="127.5928" x="237" y="22.5332">abrirRecompensa()</text></g><!--entity DetalleRecompensaView--><g class="entity" data-qualified-name="abrirRecompensa.DetalleRecompensaView" data-source-line="5" id="ent0003"><rect fill="#629EF9" height="37.6094" rx="2.5" ry="2.5" style="stroke:#181818;stroke-width:0.5;" width="176.4131" x="377" y="42"/><text fill="#000000" font-family="sans-serif" font-size="14" lengthAdjust="spacing" textLength="156.4131" x="387" y="66.5332">DetalleRecompensaView</text></g><!--entity RecompensaController--><g class="entity" data-qualified-name="abrirRecompensa.RecompensaController" data-source-line="6" id="ent0004"><rect fill="#B5BD68" height="37.6094" rx="2.5" ry="2.5" style="stroke:#181818;stroke-width:0.5;" width="163.1787" x="293.5" y="158"/><text fill="#000000" font-family="sans-serif" font-size="14" lengthAdjust="spacing" textLength="143.1787" x="303.5" y="182.5332">RecompensaController</text></g><!--entity RecompensaRepository--><g class="entity" data-qualified-name="abrirRecompensa.RecompensaRepository" data-source-line="7" id="ent0005"><rect fill="#F2AC4E" height="37.6094" rx="2.5" ry="2.5" style="stroke:#181818;stroke-width:0.5;" width="169.4063" x="304.5" y="274"/><text fill="#000000" font-family="sans-serif" font-size="14" lengthAdjust="spacing" textLength="149.4063" x="314.5" y="298.5332">RecompensaRepository</text></g><!--entity Recompensa--><g class="entity" data-qualified-name="abrirRecompensa.Recompensa" data-source-line="8" id="ent0006"><rect fill="#F2AC4E" height="37.6094" rx="2.5" ry="2.5" style="stroke:#181818;stroke-width:0.5;" width="102.4893" x="338" y="373"/><text fill="#000000" font-family="sans-serif" font-size="14" lengthAdjust="spacing" textLength="82.4893" x="348" y="397.5332">Recompensa</text></g><!--entity EstadoEntrada--><g class="entity" data-qualified-name="EstadoEntrada" data-source-line="3" id="ent0001"><rect fill="#CDEBA5" height="37.6094" rx="2.5" ry="2.5" style="stroke:#181818;stroke-width:0.5;" width="209.8271" x="7" y="42"/><text fill="#000000" font-family="sans-serif" font-size="14" lengthAdjust="spacing" textLength="189.8271" x="17" y="66.5332">:RECOMPENSAS_ABIERTAS</text></g><!--entity EstadoSalida--><g class="entity" data-qualified-name="EstadoSalida" data-source-line="11" id="ent0007"><rect fill="#CDEBA5" height="37.6094" rx="2.5" ry="2.5" style="stroke:#181818;stroke-width:0.5;" width="191.1514" x="746.5" y="158"/><text fill="#000000" font-family="sans-serif" font-size="14" lengthAdjust="spacing" textLength="171.1514" x="756.5" y="182.5332">:RECOMPENSA_ABIERTA</text></g><!--entity AbrirRecompensas--><g class="entity" data-qualified-name="AbrirRecompensas" data-source-line="12" id="ent0008"><rect fill="#CDEBA5" height="37.6094" rx="2.5" ry="2.5" style="stroke:#181818;stroke-width:0.5;" width="229.3232" x="972.5" y="158"/><text fill="#000000" font-family="sans-serif" font-size="14" lengthAdjust="spacing" textLength="209.3232" x="982.5" y="182.5332">:Collaboration AbrirRecompensas</text></g><!--link EstadoEntrada to DetalleRecompensaView--><g class="link" data-entity-1="ent0001" data-entity-2="ent0003" data-link-type="dependency" data-source-line="14" id="lnk9"><path d="M217.43,61 C268.22,61 323.44,61 371.76,61" fill="none" id="EstadoEntrada-to-DetalleRecompensaView" style="stroke:#181818;stroke-width:1;"/><polygon fill="#181818" points="376.76,61,367.76,57,371.76,61,367.76,65,376.76,61" style="stroke:#181818;stroke-width:1;stroke-linejoin:miter;stroke-miterlimit:10;"/><text fill="#000000" font-family="sans-serif" font-size="13" lengthAdjust="spacing" textLength="111.2617" x="241.5" y="54.4951">abrirRecompensa()</text></g><!--link DetalleRecompensaView to RecompensaController--><g class="link" data-entity-1="ent0003" data-entity-2="ent0004" data-link-type="dependency" data-source-line="16" id="lnk10"><path d="M395.96,80.01 C343.75,93.63 281,110 281,110 C281,110 281,128 281,128 C281,128 308.6071,142.0959 335.2771,155.7159" fill="none" id="DetalleRecompensaView-to-RecompensaController" style="stroke:#181818;stroke-width:1;"/><polygon fill="#181818" points="339.73,157.99,333.534,150.3343,335.2771,155.7159,329.8955,157.4591,339.73,157.99" style="stroke:#181818;stroke-width:1;stroke-linejoin:miter;stroke-miterlimit:10;"/><text fill="#000000" font-family="sans-serif" font-size="13" lengthAdjust="spacing" textLength="139.4644" x="282" y="124.4951">obtenerRecompensa(id)</text></g><!--link DetalleRecompensaView to RecompensaController--><g class="link" data-entity-1="ent0003" data-entity-2="ent0004" data-link-type="dependency" data-source-line="17" id="lnk11"><path d="M454.34,80.03 C442.8,99.58 426,128 426,128 C426,128 412.3611,140.8333 397.9211,154.4233" fill="none" id="DetalleRecompensaView-to-RecompensaController-1" style="stroke:#181818;stroke-width:1;"/><polygon fill="#181818" points="394.28,157.85,403.5753,154.5947,397.9211,154.4233,398.0925,148.769,394.28,157.85" style="stroke:#181818;stroke-width:1;stroke-linejoin:miter;stroke-miterlimit:10;"/><text fill="#000000" font-family="sans-serif" font-size="13" lengthAdjust="spacing" textLength="247.8442" x="437" y="124.4951">prepararAccionesDisponibles(investigador)</text></g><!--link RecompensaController to RecompensaRepository--><g class="link" data-entity-1="ent0004" data-entity-2="ent0005" data-link-type="dependency" data-source-line="18" id="lnk12"><path d="M348.91,196.15 C329.37,209.74 306,226 306,226 C306,226 306,244 306,244 C306,244 329.7917,257.7569 353.2917,271.3469" fill="none" id="RecompensaController-to-RecompensaRepository" style="stroke:#181818;stroke-width:1;"/><polygon fill="#181818" points="357.62,273.85,351.8314,265.8818,353.2917,271.3469,347.8265,272.8071,357.62,273.85" style="stroke:#181818;stroke-width:1;stroke-linejoin:miter;stroke-miterlimit:10;"/><text fill="#000000" font-family="sans-serif" font-size="13" lengthAdjust="spacing" textLength="93.939" x="307" y="240.4951">obtenerPorId(id)</text></g><!--link RecompensaController to RecompensaRepository--><g class="link" data-entity-1="ent0004" data-entity-2="ent0005" data-link-type="dependency" data-source-line="19" id="lnk13"><path d="M386.34,196.15 C394.84,209.74 405,226 405,226 C405,226 405,244 405,244 C405,244 401.1611,255.5166 396.6311,269.1066" fill="none" id="RecompensaController-to-RecompensaRepository-1" style="stroke:#181818;stroke-width:1;"/><polygon fill="#181818" points="395.05,273.85,401.6908,266.5768,396.6311,269.1066,394.1013,264.0469,395.05,273.85" style="stroke:#181818;stroke-width:1;stroke-linejoin:miter;stroke-miterlimit:10;"/><text fill="#000000" font-family="sans-serif" font-size="13" lengthAdjust="spacing" textLength="137.2427" x="406" y="240.4951">verificarPermisos(actor)</text></g><!--link RecompensaRepository to Recompensa--><g class="link" data-entity-1="ent0005" data-entity-2="ent0006" data-link-type="association" data-source-line="20" id="lnk14"><path d="M389,312.24 C389,329.59 389,355.52 389,372.84" fill="none" id="RecompensaRepository-Recompensa" style="stroke:#181818;stroke-width:1;"/></g><!--link DetalleRecompensaView to EstadoSalida--><g class="link" data-entity-1="ent0003" data-entity-2="ent0007" data-link-type="dependency" data-source-line="21" id="lnk15"><path d="M550.55,80.01 C615.24,93.63 693,110 693,110 C693,110 752.5987,136.3944 796.7187,155.9444" fill="none" id="DetalleRecompensaView-to-EstadoSalida" style="stroke:#181818;stroke-width:1;stroke-dasharray:7,7;"/><polygon fill="#181818" points="801.29,157.97,794.6821,150.6669,796.7187,155.9444,791.4411,157.981,801.29,157.97" style="stroke:#181818;stroke-width:1;stroke-linejoin:miter;stroke-miterlimit:10;"/><text fill="#000000" font-family="sans-serif" font-size="13" lengthAdjust="spacing" textLength="130.7935" x="733" y="124.4951">continuarNavegacion()</text></g><!--link DetalleRecompensaView to AbrirRecompensas--><g class="link" data-entity-1="ent0003" data-entity-2="ent0008" data-link-type="dependency" data-source-line="22" id="lnk16"><path d="M553.06,72.39 C672.74,86.5 872,110 872,110 C872,110 959.8103,136.9522 1023.4703,156.5022" fill="none" id="DetalleRecompensaView-to-AbrirRecompensas" style="stroke:#181818;stroke-width:1;stroke-dasharray:7,7;"/><polygon fill="#181818" points="1028.25,157.97,1020.8208,151.5041,1023.4703,156.5022,1018.4723,159.1516,1028.25,157.97" style="stroke:#181818;stroke-width:1;stroke-linejoin:miter;stroke-miterlimit:10;"/><text fill="#000000" font-family="sans-serif" font-size="13" lengthAdjust="spacing" textLength="117.7617" x="930" y="124.4951">abrirRecompensas()</text></g><?plantuml-src bP8nRy8m48Lt_ueJNP811bHGOK0A8KWCfIYfkbQNv8eiWXsTNIfKzR_NGMeJGYYgDrllFJz_PxEJgaJ6FHHIaJsM1AKkZjL62ARCejeM17VX8fe78-XDuoXyUjn4woH8NeFvAegVWwG7Q20o5dCTASkOeoWns-6M05EM75EczoKfWvMmrphp_1vy2d2hSTzuE8cM4rYGnQAWMlmYwQEjJKTfFdw0MXHgrq8x7xUbos4GtaSDQKobDj9gFjwKYgzRH7w0D7WaM4Y7eyiNkeQOQaOhjOBW78evPRGFXJYZ37tkpxePJU62iX2TIkZdBgGBtXHqQabHCqNc_hMOgoabK_N5ECWozr8o2sbAhMHQaF6aEf2nSkiUnRxeyhU2wu7zrjjeNkMdPl_q7uZbcyoGDyHxQRJnCBFdFMgvosb-Xcu8Wy7iRF1Jo5mHgTwHrtYWBLO4FFyFTtla5uCqpluD?></g></svg>