<svg xmlns="http://www.w3.org/2000/svg" xmlns:xlink="http://www.w3.org/1999/xlink" contentStyleType="text/css" data-diagram-type="DESCRIPTION" height="579px" preserveAspectRatio="none" style="width:1703px;height:579px;background:#FFFFFF;" version="1.1" viewBox="0 0 1703 579" width="1703px" zoomAndPan="magnify"><?plantuml 1.2026.6?><defs/><g><!--cluster abrirRecompensa--><g class="cluster" data-qualified-name="abrirRecompensa" data-source-line="4" id="ent0002"><path d="M235.5,6 L364.0928,6 A3.75,3.75 0 0 1 366.5928,8.5 L373.5928,29.6094 L990.5,29.6094 A2.5,2.5 0 0 1 993,32.1094 L993,561.5 A2.5,2.5 0 0 1 990.5,564 L235.5,564 A2.5,2.5 0 0 1 233,561.5 L233,8.5 A2.5,2.5 0 0 1 235.5,6" fill="none" style="stroke:#000000;stroke-width:1.5;"/><line style="stroke:#000000;stroke-width:1.5;" x1="233" x2="373.5928" y1="29.6094" y2="29.6094"/><text fill="#000000" font-family="sans-serif" font-size="14" font-weight="700" lengthAdjust="spacing" textLength="127.5928" x="237" y="22.5332">abrirRecompensa()</text></g><!--entity DetalleRecompensaView--><g class="entity" data-qualified-name="abrirRecompensa.DetalleRecompensaView" data-source-line="5" id="ent0003"><rect fill="#629EF9" height="37.6094" rx="2.5" ry="2.5" style="stroke:#181818;stroke-width:0.5;" width="176.4131" x="640" y="42"/><text fill="#000000" font-family="sans-serif" font-size="14" lengthAdjust="spacing" textLength="156.4131" x="650" y="66.5332">DetalleRecompensaView</text></g><!--entity RecompensaController--><g class="entity" data-qualified-name="abrirRecompensa.RecompensaController" data-source-line="6" id="ent0004"><rect fill="#B5BD68" height="37.6094" rx="2.5" ry="2.5" style="stroke:#181818;stroke-width:0.5;" width="163.1787" x="646.5" y="168.5"/><text fill="#000000" font-family="sans-serif" font-size="14" lengthAdjust="spacing" textLength="143.1787" x="656.5" y="193.0332">RecompensaController</text></g><!--entity RecompensaService--><g class="entity" data-qualified-name="abrirRecompensa.RecompensaService" data-source-line="7" id="ent0005"><rect fill="#B5BD68" height="37.6094" rx="2.5" ry="2.5" style="stroke:#181818;stroke-width:0.5;" width="149.1719" x="459.5" y="295"/><text fill="#000000" font-family="sans-serif" font-size="14" lengthAdjust="spacing" textLength="129.1719" x="469.5" y="319.5332">RecompensaService</text></g><!--entity SesionService--><g class="entity" data-qualified-name="abrirRecompensa.SesionService" data-source-line="8" id="ent0006"><rect fill="#B5BD68" height="37.6094" rx="2.5" ry="2.5" style="stroke:#181818;stroke-width:0.5;" width="109.4893" x="812.5" y="295"/><text fill="#000000" font-family="sans-serif" font-size="14" lengthAdjust="spacing" textLength="89.4893" x="822.5" y="319.5332">SesionService</text></g><!--entity RecompensaRepository--><g class="entity" data-qualified-name="abrirRecompensa.RecompensaRepository" data-source-line="9" id="ent0007"><rect fill="#F2AC4E" height="37.6094" rx="2.5" ry="2.5" style="stroke:#181818;stroke-width:0.5;" width="169.4063" x="249.5" y="411"/><text fill="#000000" font-family="sans-serif" font-size="14" lengthAdjust="spacing" textLength="149.4063" x="259.5" y="435.5332">RecompensaRepository</text></g><!--entity ProyectoRepository--><g class="entity" data-qualified-name="abrirRecompensa.ProyectoRepository" data-source-line="10" id="ent0008"><rect fill="#F2AC4E" height="37.6094" rx="2.5" ry="2.5" style="stroke:#181818;stroke-width:0.5;" width="142.165" x="463" y="411"/><text fill="#000000" font-family="sans-serif" font-size="14" lengthAdjust="spacing" textLength="122.165" x="473" y="435.5332">ProyectoRepository</text></g><!--entity InvestigadorRepository--><g class="entity" data-qualified-name="abrirRecompensa.InvestigadorRepository" data-source-line="11" id="ent0009"><rect fill="#F2AC4E" height="37.6094" rx="2.5" ry="2.5" style="stroke:#181818;stroke-width:0.5;" width="163.1855" x="741.5" y="411"/><text fill="#000000" font-family="sans-serif" font-size="14" lengthAdjust="spacing" textLength="143.1855" x="751.5" y="435.5332">InvestigadorRepository</text></g><!--entity Recompensa--><g class="entity" data-qualified-name="abrirRecompensa.Recompensa" data-source-line="12" id="ent0010"><rect fill="#F2AC4E" height="37.6094" rx="2.5" ry="2.5" style="stroke:#181818;stroke-width:0.5;" width="102.4893" x="283" y="510"/><text fill="#000000" font-family="sans-serif" font-size="14" lengthAdjust="spacing" textLength="82.4893" x="293" y="534.5332">Recompensa</text></g><!--entity Proyecto--><g class="entity" data-qualified-name="abrirRecompensa.Proyecto" data-source-line="13" id="ent0011"><rect fill="#F2AC4E" height="37.6094" rx="2.5" ry="2.5" style="stroke:#181818;stroke-width:0.5;" width="75.248" x="496.5" y="510"/><text fill="#000000" font-family="sans-serif" font-size="14" lengthAdjust="spacing" textLength="55.248" x="506.5" y="534.5332">Proyecto</text></g><!--entity Investigador--><g class="entity" data-qualified-name="abrirRecompensa.Investigador" data-source-line="14" id="ent0012"><rect fill="#F2AC4E" height="37.6094" rx="2.5" ry="2.5" style="stroke:#181818;stroke-width:0.5;" width="96.2686" x="775" y="510"/><text fill="#000000" font-family="sans-serif" font-size="14" lengthAdjust="spacing" textLength="76.2686" x="785" y="534.5332">Investigador</text></g><!--entity EstadoEntrada--><g class="entity" data-qualified-name="EstadoEntrada" data-source-line="3" id="ent0001"><rect fill="#CDEBA5" height="37.6094" rx="2.5" ry="2.5" style="stroke:#181818;stroke-width:0.5;" width="209.8271" x="7" y="42"/><text fill="#000000" font-family="sans-serif" font-size="14" lengthAdjust="spacing" textLength="189.8271" x="17" y="66.5332">:RECOMPENSAS_ABIERTAS</text></g><!--entity EstadoSalida--><g class="entity" data-qualified-name="EstadoSalida" data-source-line="17" id="ent0013"><rect fill="#CDEBA5" height="37.6094" rx="2.5" ry="2.5" style="stroke:#181818;stroke-width:0.5;" width="191.1514" x="1009.5" y="168.5"/><text fill="#000000" font-family="sans-serif" font-size="14" lengthAdjust="spacing" textLength="171.1514" x="1019.5" y="193.0332">:RECOMPENSA_ABIERTA</text></g><!--entity AbrirRecompensas--><g class="entity" data-qualified-name="AbrirRecompensas" data-source-line="18" id="ent0014"><rect fill="#CDEBA5" height="37.6094" rx="2.5" ry="2.5" style="stroke:#181818;stroke-width:0.5;" width="229.3232" x="1235.5" y="168.5"/><text fill="#000000" font-family="sans-serif" font-size="14" lengthAdjust="spacing" textLength="209.3232" x="1245.5" y="193.0332">:Collaboration AbrirRecompensas</text></g><g class="entity" data-qualified-name="GMN27" data-source-line="34" id="ent0028"><path d="M1499.5,158 L1499.5,217.0547 L1688.8716,217.0547 L1688.8716,168 L1678.8716,158 L1499.5,158" fill="#FEFFDD" style="stroke:#181818;stroke-width:0.5;"/><path d="M1678.8716,158 L1678.8716,168 L1688.8716,168 L1678.8716,158" fill="#FEFFDD" style="stroke:#181818;stroke-width:1;"/><text fill="#000000" font-family="sans-serif" font-size="13" lengthAdjust="spacing" textLength="168.3716" x="1505.5" y="176.4951">El investigador solo consulta.</text><text fill="#000000" font-family="sans-serif" font-size="13" lengthAdjust="spacing" textLength="139.458" x="1505.5" y="192.8467">No crea, edita ni elimina</text><text fill="#000000" font-family="sans-serif" font-size="13" lengthAdjust="spacing" textLength="81.6499" x="1505.5" y="209.1982">recompensas.</text></g><!--link EstadoEntrada to DetalleRecompensaView--><g class="link" data-entity-1="ent0001" data-entity-2="ent0003" data-link-type="dependency" data-source-line="20" id="lnk15"><path d="M217.19,61 C336.26,61 523.12,61 634.71,61" fill="none" id="EstadoEntrada-to-DetalleRecompensaView" style="stroke:#181818;stroke-width:1;"/><polygon fill="#181818" points="639.71,61,630.71,57,634.71,61,630.71,65,639.71,61" style="stroke:#181818;stroke-width:1;stroke-linejoin:miter;stroke-miterlimit:10;"/><text fill="#000000" font-family="sans-serif" font-size="13" lengthAdjust="spacing" textLength="111.2617" x="373" y="54.4951">abrirRecompensa()</text></g><!--link DetalleRecompensaView to RecompensaController--><g class="link" data-entity-1="ent0003" data-entity-2="ent0004" data-link-type="dependency" data-source-line="22" id="lnk16"><path d="M658.96,80.01 C606.75,93.63 544,110 544,110 C544,110 544,128 544,128 C544,128 612.4651,149.7649 666.5251,166.9549" fill="none" id="DetalleRecompensaView-to-RecompensaController" style="stroke:#181818;stroke-width:1;"/><polygon fill="#181818" points="671.29,168.47,663.9253,161.9308,666.5251,166.9549,661.5011,169.5547,671.29,168.47" style="stroke:#181818;stroke-width:1;stroke-linejoin:miter;stroke-miterlimit:10;"/><text fill="#000000" font-family="sans-serif" font-size="13" lengthAdjust="spacing" textLength="139.4644" x="545" y="124.4951">obtenerRecompensa(id)</text></g><!--link DetalleRecompensaView to RecompensaController--><g class="link" data-entity-1="ent0003" data-entity-2="ent0004" data-link-type="dependency" data-source-line="25" id="lnk19"><path d="M728,80.1 C728,103.71 728,139.76 728,163.37" fill="none" id="DetalleRecompensaView-to-RecompensaController-1" style="stroke:#181818;stroke-width:1;"/><polygon fill="#181818" points="728,168.37,732,159.37,728,163.37,724,159.37,728,168.37" style="stroke:#181818;stroke-width:1;stroke-linejoin:miter;stroke-miterlimit:10;"/><text fill="#000000" font-family="sans-serif" font-size="13" lengthAdjust="spacing" textLength="247.8442" x="729" y="124.4951">prepararAccionesDisponibles(investigador)</text></g><!--link RecompensaController to RecompensaService--><g class="link" data-entity-1="ent0004" data-entity-2="ent0005" data-link-type="dependency" data-source-line="23" id="lnk17"><path d="M687.01,206.53 C647.93,223.72 595,247 595,247 C595,247 572.1228,271.7473 554.0628,291.2973" fill="none" id="RecompensaController-to-RecompensaService" style="stroke:#181818;stroke-width:1;"/><polygon fill="#181818" points="550.67,294.97,559.7152,291.0733,554.0628,291.2973,553.8389,285.6449,550.67,294.97" style="stroke:#181818;stroke-width:1;stroke-linejoin:miter;stroke-miterlimit:10;"/><text fill="#000000" font-family="sans-serif" font-size="13" lengthAdjust="spacing" textLength="188.6079" x="596" y="261.4951">obtenerPropia(investigadorId, id)</text></g><!--link RecompensaController to SesionService--><g class="link" data-entity-1="ent0004" data-entity-2="ent0006" data-link-type="dependency" data-source-line="24" id="lnk18"><path d="M748.21,206.6 C774.57,230.21 816.6755,267.9241 843.0355,291.5341" fill="none" id="RecompensaController-to-SesionService" style="stroke:#181818;stroke-width:1;"/><polygon fill="#181818" points="846.76,294.87,842.7247,285.8858,843.0355,291.5341,837.3872,291.8449,846.76,294.87" style="stroke:#181818;stroke-width:1;stroke-linejoin:miter;stroke-miterlimit:10;"/><text fill="#000000" font-family="sans-serif" font-size="13" lengthAdjust="spacing" textLength="209.5806" x="810" y="261.4951">obtenerSesionActual(authentication)</text></g><!--link RecompensaService to InvestigadorRepository--><g class="link" data-entity-1="ent0005" data-entity-2="ent0009" data-link-type="dependency" data-source-line="26" id="lnk20"><path d="M608.67,329.34 C682.34,343.48 784,363 784,363 C784,363 798.2584,387.1142 809.7984,406.6642" fill="none" id="RecompensaService-to-InvestigadorRepository" style="stroke:#181818;stroke-width:1;"/><polygon fill="#181818" points="812.34,410.97,811.2097,401.1862,809.7984,406.6642,804.3204,405.2528,812.34,410.97" style="stroke:#181818;stroke-width:1;stroke-linejoin:miter;stroke-miterlimit:10;"/><text fill="#000000" font-family="sans-serif" font-size="13" lengthAdjust="spacing" textLength="152.4644" x="795" y="377.4951">obtenerPerfil(investigador)</text></g><!--link RecompensaService to RecompensaRepository--><g class="link" data-entity-1="ent0005" data-entity-2="ent0007" data-link-type="dependency" data-source-line="27" id="lnk21"><path d="M459.49,331.18 C395.33,345.12 313,363 313,363 C313,363 313,381 313,381 C313,381 318.1047,392.6798 324.0547,406.2698" fill="none" id="RecompensaService-to-RecompensaRepository" style="stroke:#181818;stroke-width:1;"/><polygon fill="#181818" points="326.06,410.85,326.1146,401.0013,324.0547,406.2698,318.7862,404.2098,326.06,410.85" style="stroke:#181818;stroke-width:1;stroke-linejoin:miter;stroke-miterlimit:10;"/><text fill="#000000" font-family="sans-serif" font-size="13" lengthAdjust="spacing" textLength="208.8379" x="314" y="377.4951">obtenerPropiaPorId(investigador, id)</text></g><!--link RecompensaService to ProyectoRepository--><g class="link" data-entity-1="ent0005" data-entity-2="ent0008" data-link-type="dependency" data-source-line="28" id="lnk22"><path d="M532.87,333.15 C532.02,346.74 531,363 531,363 C531,363 531,381 531,381 C531,381 531.7079,392.2698 532.5579,405.8598" fill="none" id="RecompensaService-to-ProyectoRepository" style="stroke:#181818;stroke-width:1;"/><polygon fill="#181818" points="532.87,410.85,536.3004,401.6179,532.5579,405.8598,528.316,402.1172,532.87,410.85" style="stroke:#181818;stroke-width:1;stroke-linejoin:miter;stroke-miterlimit:10;"/><text fill="#000000" font-family="sans-serif" font-size="13" lengthAdjust="spacing" textLength="247.1016" x="532" y="377.4951">verificarProyectoCompletado(recompensa)</text></g><!--link RecompensaService to RecompensaService--><g class="link" data-entity-1="ent0005" data-entity-2="ent0005" data-link-type="dependency" data-source-line="29" id="lnk23"><path d="M608.72,303.22 C628.51,303.84 643.5,307.43 643.5,314 C643.5,320.57 633.5075,324.0034 613.7175,324.6234" fill="none" id="RecompensaService-to-RecompensaService" style="stroke:#181818;stroke-width:1;"/><polygon fill="#181818" points="608.72,324.78,617.8408,328.4962,613.7175,324.6234,617.5903,320.5001,608.72,324.78" style="stroke:#181818;stroke-width:1;stroke-linejoin:miter;stroke-miterlimit:10;"/><text fill="#000000" font-family="sans-serif" font-size="13" lengthAdjust="spacing" textLength="139.4517" x="649.5" y="319.4951">validarTipoSegunPerfil()</text></g><!--link RecompensaRepository to Recompensa--><g class="link" data-entity-1="ent0007" data-entity-2="ent0010" data-link-type="association" data-source-line="30" id="lnk24"><path d="M334,449.24 C334,466.59 334,492.52 334,509.84" fill="none" id="RecompensaRepository-Recompensa" style="stroke:#181818;stroke-width:1;"/></g><!--link ProyectoRepository to Proyecto--><g class="link" data-entity-1="ent0008" data-entity-2="ent0011" data-link-type="association" data-source-line="31" id="lnk25"><path d="M534,449.24 C534,466.59 534,492.52 534,509.84" fill="none" id="ProyectoRepository-Proyecto" style="stroke:#181818;stroke-width:1;"/></g><!--link InvestigadorRepository to Investigador--><g class="link" data-entity-1="ent0009" data-entity-2="ent0012" data-link-type="association" data-source-line="32" id="lnk26"><path d="M823,449.24 C823,466.59 823,492.52 823,509.84" fill="none" id="InvestigadorRepository-Investigador" style="stroke:#181818;stroke-width:1;"/></g><!--link RecompensaController to GMN27--><g class="link" data-entity-1="ent0004" data-entity-2="ent0028" data-link-type="association" data-source-line="34" id="lnk29"><path d="M806.41,168.42 C889.71,148.15 1009.5,119 1009.5,119 C1009.5,119 1464.5,119 1464.5,119 C1464.5,119 1502.95,139.34 1537.95,157.85" fill="none" id="RecompensaController-GMN27" style="stroke:#181818;stroke-width:1;stroke-dasharray:7,7;"/></g><!--link DetalleRecompensaView to EstadoSalida--><g class="link" data-entity-1="ent0003" data-entity-2="ent0013" data-link-type="dependency" data-source-line="38" id="lnk30"><path d="M816.09,78.45 C890.48,92.35 985,110 985,110 C985,110 1036.8639,143.0621 1072.3439,165.6821" fill="none" id="DetalleRecompensaView-to-EstadoSalida" style="stroke:#181818;stroke-width:1;stroke-dasharray:7,7;"/><polygon fill="#181818" points="1076.56,168.37,1071.1214,160.1589,1072.3439,165.6821,1066.8208,166.9046,1076.56,168.37" style="stroke:#181818;stroke-width:1;stroke-linejoin:miter;stroke-miterlimit:10;"/><text fill="#000000" font-family="sans-serif" font-size="13" lengthAdjust="spacing" textLength="130.7935" x="1011" y="124.4951">continuarNavegacion()</text></g><!--link DetalleRecompensaView to AbrirRecompensas--><g class="link" data-entity-1="ent0003" data-entity-2="ent0014" data-link-type="dependency" data-source-line="39" id="lnk31"><path d="M816.21,72.03 C939.92,86.1 1150,110 1150,110 C1150,110 1239.06,144.0635 1298.19,166.6835" fill="none" id="DetalleRecompensaView-to-AbrirRecompensas" style="stroke:#181818;stroke-width:1;stroke-dasharray:7,7;"/><polygon fill="#181818" points="1302.86,168.47,1295.8833,161.5184,1298.19,166.6835,1293.0249,168.9903,1302.86,168.47" style="stroke:#181818;stroke-width:1;stroke-linejoin:miter;stroke-miterlimit:10;"/><text fill="#000000" font-family="sans-serif" font-size="13" lengthAdjust="spacing" textLength="117.7617" x="1194" y="124.4951">abrirRecompensas()</text></g><?plantuml-src ZLHDRvj04BtlhnYv5rkAVOYQgF4X4i54yY6kPQ9Ugm76P9JrBjfTExAg_lSkhZy0GmWtbZTlPj-yXtrdLQ313KXMvFO5GQ7bldmHmb3gKEMIu5iuYvw2EnXCLr7uysKPBU8W_XqypQFLQn0F02r4rc6c8-KCPYWAJDyn9y34i5bHgZS5AOibSD0u6uu6y4U0VohzxcyVekS7c953AUa2_iNqqSGcTqbs_mCke53xARIlCxtGcCoEK-h0nMHPgmxCysqGVeygN2igj6MdpRu3kZHwxmzrBt2kTcGTvrvGqmk-3D3JzWlDnD--hP-MNjbvZ9BzojlgGhy5JBH1vtM4eBvuU-1e7WfHSnACpVYntGTJk7AI4Ar866UUfCqWKz298qLL5iv6eWqBunh9qHPd1YzpmRww8kSyku5FsMe6EpFzFmrIjqKvnArx8-KuFMWuwhfWv_qAGsN0JP2clfxiZ6sX5IUIR6tMwfJ7WGwixLwyt9hCckMNcDgIqb1lMMfM8siAM2MypjCKTcHuxSKofu-XBvHKEcfepYpz8vvtiZkusxnoeMFAj-fuuIh3fRydgURnUi0ISCvZkxGbf9P9fHs1uVpDWLwt_-OY2LNHm6gf8TNARgN3YLZu5qDu0vInGr0C97d3wX3QK_0cWbG6PRCEZqqcZxN4JyiEZjKMpG9tb6DfiE7ea-fcrgyIR7tvFm00?></g></svg>