<svg xmlns="http://www.w3.org/2000/svg" xmlns:xlink="http://www.w3.org/1999/xlink" contentStyleType="text/css" data-diagram-type="STATE" height="713px" preserveAspectRatio="none" style="width:2516px;height:713px;background:#FFFFFF;" version="1.1" viewBox="0 0 2516 713" width="2516px" zoomAndPan="magnify"><?plantuml 1.2026.6?><defs/><g><g class="entity" data-qualified-name="in1" data-source-line="3" id="ent0001"><rect fill="#F1F1F1" height="50" rx="12.5" ry="12.5" style="stroke:#181818;stroke-width:0.5;" width="223.0479" x="216" y="7"/><line style="stroke:#181818;stroke-width:0.5;" x1="216" x2="439.0479" y1="34.6094" y2="34.6094"/><text fill="#000000" font-family="sans-serif" font-size="14" lengthAdjust="spacing" textLength="203.0479" x="226" y="26.5332">INVESTIGADORES_ABIERTOS</text></g><g class="entity" data-qualified-name="in2" data-source-line="6" id="ent0002"><rect fill="#F1F1F1" height="50" rx="12.5" ry="12.5" style="stroke:#181818;stroke-width:0.5;" width="300.8545" x="474" y="7"/><line style="stroke:#181818;stroke-width:0.5;" x1="474" x2="774.8545" y1="34.6094" y2="34.6094"/><text fill="#000000" font-family="sans-serif" font-size="14" lengthAdjust="spacing" textLength="280.8545" x="484" y="26.5332">OPCIONES_CARGA_TRABAJO_ABIERTAS</text></g><g class="entity" data-qualified-name="in3" data-source-line="9" id="ent0003"><rect fill="#F1F1F1" height="50" rx="12.5" ry="12.5" style="stroke:#181818;stroke-width:0.5;" width="219.9443" x="810.5" y="7"/><line style="stroke:#181818;stroke-width:0.5;" x1="810.5" x2="1030.4443" y1="34.6094" y2="34.6094"/><text fill="#000000" font-family="sans-serif" font-size="14" lengthAdjust="spacing" textLength="199.9443" x="820.5" y="26.5332">OPCIONES_PERFIL_ABIERTO</text></g><g class="entity" data-qualified-name="in4" data-source-line="12" id="ent0004"><rect fill="#F1F1F1" height="50" rx="12.5" ry="12.5" style="stroke:#181818;stroke-width:0.5;" width="243.2891" x="1066" y="7"/><line style="stroke:#181818;stroke-width:0.5;" x1="1066" x2="1309.2891" y1="34.6094" y2="34.6094"/><text fill="#000000" font-family="sans-serif" font-size="14" lengthAdjust="spacing" textLength="223.2891" x="1076" y="26.5332">MIS_PUBLICACIONES_ABIERTAS</text></g><g class="entity" data-qualified-name="in5" data-source-line="15" id="ent0005"><rect fill="#F1F1F1" height="50" rx="12.5" ry="12.5" style="stroke:#181818;stroke-width:0.5;" width="210.6133" x="1344" y="7"/><line style="stroke:#181818;stroke-width:0.5;" x1="1344" x2="1554.6133" y1="34.6094" y2="34.6094"/><text fill="#000000" font-family="sans-serif" font-size="14" lengthAdjust="spacing" textLength="190.6133" x="1354" y="26.5332">PUBLICACIONES_ABIERTAS</text></g><g class="entity" data-qualified-name="in6" data-source-line="18" id="ent0006"><rect fill="#F1F1F1" height="50" rx="12.5" ry="12.5" style="stroke:#181818;stroke-width:0.5;" width="219.9307" x="1590.5" y="7"/><line style="stroke:#181818;stroke-width:0.5;" x1="1590.5" x2="1810.4307" y1="34.6094" y2="34.6094"/><text fill="#000000" font-family="sans-serif" font-size="14" lengthAdjust="spacing" textLength="199.9307" x="1600.5" y="26.5332">CONVOCATORIAS_ABIERTAS</text></g><g class="entity" data-qualified-name="in7" data-source-line="21" id="ent0007"><rect fill="#F1F1F1" height="50" rx="12.5" ry="12.5" style="stroke:#181818;stroke-width:0.5;" width="205.9375" x="1845.5" y="7"/><line style="stroke:#181818;stroke-width:0.5;" x1="1845.5" x2="2051.4375" y1="34.6094" y2="34.6094"/><text fill="#000000" font-family="sans-serif" font-size="14" lengthAdjust="spacing" textLength="185.9375" x="1855.5" y="26.5332">RECOMPENSAS_ABIERTAS</text></g><g class="entity" data-qualified-name="in8" data-source-line="24" id="ent0008"><rect fill="#F1F1F1" height="50" rx="12.5" ry="12.5" style="stroke:#181818;stroke-width:0.5;" width="186.4824" x="2086.5" y="7"/><line style="stroke:#181818;stroke-width:0.5;" x1="2086.5" x2="2272.9824" y1="34.6094" y2="34.6094"/><text fill="#000000" font-family="sans-serif" font-size="14" lengthAdjust="spacing" textLength="166.4824" x="2096.5" y="26.5332">PROYECTOS_ABIERTOS</text></g><g class="entity" data-qualified-name="abrirPanelPrincipal" data-source-line="28" id="ent0009"><path d="M1064,118 L1573,118 A12.5,12.5 0 0 1 1585.5,130.5 L1585.5,145.6094 L1051.5,145.6094 L1051.5,130.5 A12.5,12.5 0 0 1 1064,118" fill="#F1F1F1"/><rect fill="none" height="434.6094" rx="12.5" ry="12.5" style="stroke:#181818;stroke-width:0.5;" width="534" x="1051.5" y="118"/><line style="stroke:#181818;stroke-width:0.5;" x1="1051.5" x2="1585.5" y1="145.6094" y2="145.6094"/><text fill="#000000" font-family="sans-serif" font-size="14" lengthAdjust="spacing" textLength="126.8271" x="1255.0864" y="137.5332">abrirPanelPrincipal()</text><g class="entity" data-qualified-name="abrirPanelPrincipal.MostrandoPanel" data-source-line="30" id="ent0010"><rect fill="#F1F1F1" height="50" rx="12.5" ry="12.5" style="stroke:#181818;stroke-width:0.5;" width="50" x="1063.5" y="248.6094"/><line style="stroke:#181818;stroke-width:0.5;" x1="1063.5" x2="1113.5" y1="276.2188" y2="276.2188"/><text fill="#000000" font-family="sans-serif" font-size="14" lengthAdjust="spacing" textLength="3.8896" x="1086.5552" y="268.1426">&#160;</text></g><g class="start_entity" data-qualified-name="abrirPanelPrincipal..start.abrirPanelPrincipal" data-source-line="32" id="ent0019"><ellipse cx="1088.5" cy="166.6094" fill="#222222" rx="10" ry="10" style="stroke:#222222;stroke-width:1;"/></g><g class="end_entity" data-qualified-name="abrirPanelPrincipal..end.abrirPanelPrincipal" data-source-line="37" id="ent0021"><ellipse cx="1088.5" cy="528.6094" fill="none" rx="11" ry="11" style="stroke:#222222;stroke-width:1;"/><ellipse cx="1088.5" cy="528.6094" fill="#222222" rx="6" ry="6" style="stroke:#222222;stroke-width:1;"/></g><!--link *start*abrirPanelPrincipal to MostrandoPanel--><g class="link" data-entity-1="ent0019" data-entity-2="ent0010" data-link-type="dependency" data-source-line="32" id="lnk20"><path d="M1088.5,176.9294 C1088.5,192.7894 1088.5,220.5194 1088.5,243.2494" fill="none" id="*start*abrirPanelPrincipal-to-MostrandoPanel" style="stroke:#008000;stroke-width:1;"/><polygon fill="#008000" points="1088.5,248.2494,1092.5,239.2494,1088.5,243.2494,1084.5,239.2494,1088.5,248.2494" style="stroke:#008000;stroke-width:1;stroke-linejoin:miter;stroke-miterlimit:10;"/><path d="M1093.5,199.6094 L1093.5,225.6094 L1366.5,225.6094 L1366.5,209.6094 L1356.5,199.6094 L1093.5,199.6094" fill="#FEFFDD" style="stroke:#181818;stroke-width:0.5;"/><path d="M1356.5,199.6094 L1356.5,209.6094 L1366.5,209.6094 L1356.5,199.6094" fill="#FEFFDD" style="stroke:#181818;stroke-width:0.5;"/><text fill="#000000" font-family="sans-serif" font-size="13" font-weight="700" lengthAdjust="spacing" textLength="77.9937" x="1099.5" y="218.1045">Coordinador</text><text fill="#000000" font-family="sans-serif" font-size="13" lengthAdjust="spacing" textLength="170.5298" x="1181.1055" y="218.1045">solicita abrir el panel principal</text></g><!--link MostrandoPanel to *end*abrirPanelPrincipal--><g class="link" data-entity-1="ent0010" data-entity-2="ent0021" data-link-type="dependency" data-source-line="37" id="lnk22"><path d="M1088.5,298.8694 C1088.5,352.7894 1088.5,475.7494 1088.5,512.5494" fill="none" id="MostrandoPanel-to-*end*abrirPanelPrincipal" style="stroke:#008000;stroke-width:1;"/><polygon fill="#008000" points="1088.5,517.5494,1092.5,508.5494,1088.5,512.5494,1084.5,508.5494,1088.5,517.5494" style="stroke:#008000;stroke-width:1;stroke-linejoin:miter;stroke-miterlimit:10;"/><path d="M1093.5,321.6094 L1093.5,494.6094 L1561.5,494.6094 L1561.5,331.6094 L1551.5,321.6094 L1093.5,321.6094" fill="#FEFFDD" style="stroke:#181818;stroke-width:0.5;"/><path d="M1551.5,321.6094 L1551.5,331.6094 L1561.5,331.6094 L1551.5,321.6094" fill="#FEFFDD" style="stroke:#181818;stroke-width:0.5;"/><text fill="#000000" font-family="sans-serif" font-size="13" font-weight="700" lengthAdjust="spacing" textLength="49.8608" x="1099.5" y="340.1045">Sistema</text><text fill="#000000" font-family="sans-serif" font-size="13" lengthAdjust="spacing" textLength="393.7959" x="1152.9727" y="340.1045">muestra el panel principal y permite solicitar las siguientes acciones:</text><text fill="#000000" font-family="sans-serif" font-size="13" lengthAdjust="spacing" textLength="124.5029" x="1099.5" y="356.4561">&#8226; Consultar proyectos</text><text fill="#000000" font-family="sans-serif" font-size="13" lengthAdjust="spacing" textLength="151.9692" x="1099.5" y="372.8076">&#8226; Consultar investigadores</text><text fill="#000000" font-family="sans-serif" font-size="13" lengthAdjust="spacing" textLength="148.3511" x="1099.5" y="389.1592">&#8226; Consultar convocatorias</text><text fill="#000000" font-family="sans-serif" font-size="13" lengthAdjust="spacing" textLength="146.1802" x="1099.5" y="405.5107">&#8226; Consultar recompensas</text><text fill="#000000" font-family="sans-serif" font-size="13" lengthAdjust="spacing" textLength="170.7456" x="1099.5" y="421.8623">&#8226; Consultar mis publicaciones</text><text fill="#000000" font-family="sans-serif" font-size="13" lengthAdjust="spacing" textLength="146.9165" x="1099.5" y="438.2139">&#8226; Consultar publicaciones</text><text fill="#000000" font-family="sans-serif" font-size="13" lengthAdjust="spacing" textLength="172.9355" x="1099.5" y="454.5654">&#8226; Acceder a opciones de perfil</text><text fill="#000000" font-family="sans-serif" font-size="13" lengthAdjust="spacing" textLength="344.2207" x="1099.5" y="470.917">&#8226; Acceder a opciones de carga de trabajo de investigadores</text><text fill="#000000" font-family="sans-serif" font-size="13" lengthAdjust="spacing" textLength="86.9185" x="1099.5" y="487.2686">&#8226; Cerrar sesi&#243;n</text></g></g><g class="entity" data-qualified-name="PANEL_PRINCIPAL_ABIERTO" data-source-line="52" id="ent0023"><rect fill="#F1F1F1" height="50" rx="12.5" ry="12.5" style="stroke:#181818;stroke-width:0.5;" width="216.8477" x="7" y="649"/><line style="stroke:#181818;stroke-width:0.5;" x1="7" x2="223.8477" y1="676.6094" y2="676.6094"/><text fill="#000000" font-family="sans-serif" font-size="14" lengthAdjust="spacing" textLength="196.8477" x="17" y="668.5332">PANEL_PRINCIPAL_ABIERTO</text></g><g class="entity" data-qualified-name="OPCIONES_PERFIL_ABIERTO" data-source-line="57" id="ent0025"><rect fill="#F1F1F1" height="50" rx="12.5" ry="12.5" style="stroke:#181818;stroke-width:0.5;" width="219.9443" x="259.5" y="649"/><line style="stroke:#181818;stroke-width:0.5;" x1="259.5" x2="479.4443" y1="676.6094" y2="676.6094"/><text fill="#000000" font-family="sans-serif" font-size="14" lengthAdjust="spacing" textLength="199.9443" x="269.5" y="668.5332">OPCIONES_PERFIL_ABIERTO</text></g><g class="entity" data-qualified-name="OPCIONES_CARGA_TRABAJO_ABIERTAS" data-source-line="62" id="ent0027"><rect fill="#F1F1F1" height="50" rx="12.5" ry="12.5" style="stroke:#181818;stroke-width:0.5;" width="300.8545" x="515" y="649"/><line style="stroke:#181818;stroke-width:0.5;" x1="515" x2="815.8545" y1="676.6094" y2="676.6094"/><text fill="#000000" font-family="sans-serif" font-size="14" lengthAdjust="spacing" textLength="280.8545" x="525" y="668.5332">OPCIONES_CARGA_TRABAJO_ABIERTAS</text></g><g class="entity" data-qualified-name="PROYECTOS_ABIERTOS" data-source-line="67" id="ent0029"><rect fill="#F1F1F1" height="50" rx="12.5" ry="12.5" style="stroke:#181818;stroke-width:0.5;" width="186.4824" x="851.5" y="649"/><line style="stroke:#181818;stroke-width:0.5;" x1="851.5" x2="1037.9824" y1="676.6094" y2="676.6094"/><text fill="#000000" font-family="sans-serif" font-size="14" lengthAdjust="spacing" textLength="166.4824" x="861.5" y="668.5332">PROYECTOS_ABIERTOS</text></g><g class="entity" data-qualified-name="INVESTIGADORES_ABIERTOS" data-source-line="72" id="ent0031"><rect fill="#F1F1F1" height="50" rx="12.5" ry="12.5" style="stroke:#181818;stroke-width:0.5;" width="223.0479" x="1073" y="649"/><line style="stroke:#181818;stroke-width:0.5;" x1="1073" x2="1296.0479" y1="676.6094" y2="676.6094"/><text fill="#000000" font-family="sans-serif" font-size="14" lengthAdjust="spacing" textLength="203.0479" x="1083" y="668.5332">INVESTIGADORES_ABIERTOS</text></g><g class="entity" data-qualified-name="MIS_PUBLICACIONES_ABIERTAS" data-source-line="77" id="ent0033"><rect fill="#F1F1F1" height="50" rx="12.5" ry="12.5" style="stroke:#181818;stroke-width:0.5;" width="243.2891" x="1331" y="649"/><line style="stroke:#181818;stroke-width:0.5;" x1="1331" x2="1574.2891" y1="676.6094" y2="676.6094"/><text fill="#000000" font-family="sans-serif" font-size="14" lengthAdjust="spacing" textLength="223.2891" x="1341" y="668.5332">MIS_PUBLICACIONES_ABIERTAS</text></g><g class="entity" data-qualified-name="PUBLICACIONES_ABIERTAS" data-source-line="82" id="ent0035"><rect fill="#F1F1F1" height="50" rx="12.5" ry="12.5" style="stroke:#181818;stroke-width:0.5;" width="210.6133" x="1609" y="649"/><line style="stroke:#181818;stroke-width:0.5;" x1="1609" x2="1819.6133" y1="676.6094" y2="676.6094"/><text fill="#000000" font-family="sans-serif" font-size="14" lengthAdjust="spacing" textLength="190.6133" x="1619" y="668.5332">PUBLICACIONES_ABIERTAS</text></g><g class="entity" data-qualified-name="CONVOCATORIAS_ABIERTAS" data-source-line="87" id="ent0037"><rect fill="#F1F1F1" height="50" rx="12.5" ry="12.5" style="stroke:#181818;stroke-width:0.5;" width="219.9307" x="1855.5" y="649"/><line style="stroke:#181818;stroke-width:0.5;" x1="1855.5" x2="2075.4307" y1="676.6094" y2="676.6094"/><text fill="#000000" font-family="sans-serif" font-size="14" lengthAdjust="spacing" textLength="199.9307" x="1865.5" y="668.5332">CONVOCATORIAS_ABIERTAS</text></g><g class="entity" data-qualified-name="RECOMPENSAS_ABIERTAS" data-source-line="92" id="ent0039"><rect fill="#F1F1F1" height="50" rx="12.5" ry="12.5" style="stroke:#181818;stroke-width:0.5;" width="205.9375" x="2110.5" y="649"/><line style="stroke:#181818;stroke-width:0.5;" x1="2110.5" x2="2316.4375" y1="676.6094" y2="676.6094"/><text fill="#000000" font-family="sans-serif" font-size="14" lengthAdjust="spacing" textLength="185.9375" x="2120.5" y="668.5332">RECOMPENSAS_ABIERTAS</text></g><g class="entity" data-qualified-name="SESION_CERRADA" data-source-line="97" id="ent0041"><rect fill="#F1F1F1" height="50" rx="12.5" ry="12.5" style="stroke:#181818;stroke-width:0.5;" width="149.1445" x="2352" y="649"/><line style="stroke:#181818;stroke-width:0.5;" x1="2352" x2="2501.1445" y1="676.6094" y2="676.6094"/><text fill="#000000" font-family="sans-serif" font-size="14" lengthAdjust="spacing" textLength="129.1445" x="2362" y="668.5332">SESION_CERRADA</text></g><!--link in1 to abrirPanelPrincipal--><g class="link" data-entity-1="ent0001" data-entity-2="ent0009" data-link-type="dependency" data-source-line="4" id="lnk11"><path d="M406.51,57.04 C544.41,98.99 830.1964,185.9448 1046.4964,251.7448" fill="none" id="in1-to-abrirPanelPrincipal" style="stroke:#008000;stroke-width:1;"/><polygon fill="#008000" points="1051.28,253.2,1043.8338,246.7538,1046.4964,251.7448,1041.5054,254.4075,1051.28,253.2" style="stroke:#008000;stroke-width:1;stroke-linejoin:miter;stroke-miterlimit:10;"/></g><!--link in2 to abrirPanelPrincipal--><g class="link" data-entity-1="ent0002" data-entity-2="ent0009" data-link-type="dependency" data-source-line="7" id="lnk12"><path d="M679.83,57.04 C760.19,91.95 909.984,157.0278 1046.834,216.4778" fill="none" id="in2-to-abrirPanelPrincipal" style="stroke:#008000;stroke-width:1;"/><polygon fill="#008000" points="1051.42,218.47,1044.759,211.2152,1046.834,216.4778,1041.5715,218.5528,1051.42,218.47" style="stroke:#008000;stroke-width:1;stroke-linejoin:miter;stroke-miterlimit:10;"/></g><!--link in3 to abrirPanelPrincipal--><g class="link" data-entity-1="ent0003" data-entity-2="ent0009" data-link-type="dependency" data-source-line="10" id="lnk13"><path d="M952.4,57.16 C976.38,75.33 1007.7946,99.1307 1047.2746,129.0407" fill="none" id="in3-to-abrirPanelPrincipal" style="stroke:#008000;stroke-width:1;"/><polygon fill="#008000" points="1051.26,132.06,1046.5017,123.4368,1047.2746,129.0407,1041.6708,129.8135,1051.26,132.06" style="stroke:#008000;stroke-width:1;stroke-linejoin:miter;stroke-miterlimit:10;"/></g><!--link in4 to abrirPanelPrincipal--><g class="link" data-entity-1="ent0004" data-entity-2="ent0009" data-link-type="dependency" data-source-line="13" id="lnk14"><path d="M1198,57.16 C1204.62,72.39 1211.8875,89.1242 1222.3675,113.2442" fill="none" id="in4-to-abrirPanelPrincipal" style="stroke:#008000;stroke-width:1;"/><polygon fill="#008000" points="1224.36,117.83,1224.4421,107.9815,1222.3675,113.2442,1217.1048,111.1695,1224.36,117.83" style="stroke:#008000;stroke-width:1;stroke-linejoin:miter;stroke-miterlimit:10;"/></g><!--link in5 to abrirPanelPrincipal--><g class="link" data-entity-1="ent0005" data-entity-2="ent0009" data-link-type="dependency" data-source-line="16" id="lnk15"><path d="M1439,57.16 C1432.38,72.39 1425.1125,89.1242 1414.6325,113.2442" fill="none" id="in5-to-abrirPanelPrincipal" style="stroke:#008000;stroke-width:1;"/><polygon fill="#008000" points="1412.64,117.83,1419.8952,111.1695,1414.6325,113.2442,1412.5579,107.9815,1412.64,117.83" style="stroke:#008000;stroke-width:1;stroke-linejoin:miter;stroke-miterlimit:10;"/></g><!--link in6 to abrirPanelPrincipal--><g class="link" data-entity-1="ent0006" data-entity-2="ent0009" data-link-type="dependency" data-source-line="19" id="lnk16"><path d="M1669.89,57.16 C1649.08,73.58 1623.2447,93.9722 1589.7347,120.4222" fill="none" id="in6-to-abrirPanelPrincipal" style="stroke:#008000;stroke-width:1;"/><polygon fill="#008000" points="1585.81,123.52,1595.3528,121.0837,1589.7347,120.4222,1590.3962,114.8041,1585.81,123.52" style="stroke:#008000;stroke-width:1;stroke-linejoin:miter;stroke-miterlimit:10;"/></g><!--link in7 to abrirPanelPrincipal--><g class="link" data-entity-1="ent0007" data-entity-2="ent0009" data-link-type="dependency" data-source-line="22" id="lnk17"><path d="M1898.27,57.04 C1830.13,89.65 1707.8801,148.1515 1590.2201,204.4615" fill="none" id="in7-to-abrirPanelPrincipal" style="stroke:#008000;stroke-width:1;"/><polygon fill="#008000" points="1585.71,206.62,1595.555,206.3429,1590.2201,204.4615,1592.1014,199.1267,1585.71,206.62" style="stroke:#008000;stroke-width:1;stroke-linejoin:miter;stroke-miterlimit:10;"/></g><!--link in8 to abrirPanelPrincipal--><g class="link" data-entity-1="ent0008" data-entity-2="ent0009" data-link-type="dependency" data-source-line="25" id="lnk18"><path d="M2110.86,57.04 C1998.31,96.45 1773.4591,175.1876 1590.2591,239.3376" fill="none" id="in8-to-abrirPanelPrincipal" style="stroke:#008000;stroke-width:1;"/><polygon fill="#008000" points="1585.54,240.99,1595.3562,241.7908,1590.2591,239.3376,1592.7123,234.2404,1585.54,240.99" style="stroke:#008000;stroke-width:1;stroke-linejoin:miter;stroke-miterlimit:10;"/></g><!--link abrirPanelPrincipal to PANEL_PRINCIPAL_ABIERTO--><g class="link" data-entity-1="ent0009" data-entity-2="ent0023" data-link-type="dependency" data-source-line="52" id="lnk24"><path d="M1051.48,403.94 C762.52,476.92 342.5,583 342.5,583 C342.5,583 247.9281,620.4974 180.6781,647.1574" fill="none" id="abrirPanelPrincipal-to-PANEL_PRINCIPAL_ABIERTO" style="stroke:#008000;stroke-width:1;"/><polygon fill="#008000" points="176.03,649,185.8707,649.4017,180.6781,647.1574,182.9224,641.9648,176.03,649" style="stroke:#008000;stroke-width:1;stroke-linejoin:miter;stroke-miterlimit:10;"/><path d="M347.5,588 L347.5,614 L493.5,614 L493.5,598 L483.5,588 L347.5,588" fill="#FEFFDD" style="stroke:#181818;stroke-width:0.5;"/><path d="M483.5,588 L483.5,598 L493.5,598 L483.5,588" fill="#FEFFDD" style="stroke:#181818;stroke-width:0.5;"/><text fill="#000000" font-family="sans-serif" font-size="13" lengthAdjust="spacing" textLength="125.0107" x="353.5" y="606.4951">Panel principal visible</text></g><!--link abrirPanelPrincipal to OPCIONES_PERFIL_ABIERTO--><g class="link" data-entity-1="ent0009" data-entity-2="ent0025" data-link-type="dependency" data-source-line="57" id="lnk26"><path d="M1051.3,426.98 C843.57,497.31 590.5,583 590.5,583 C590.5,583 498.5308,620.4543 433.0608,647.1143" fill="none" id="abrirPanelPrincipal-to-OPCIONES_PERFIL_ABIERTO" style="stroke:#008000;stroke-width:1;"/><polygon fill="#008000" points="428.43,649,438.274,649.3104,433.0608,647.1143,435.2568,641.9011,428.43,649" style="stroke:#008000;stroke-width:1;stroke-linejoin:miter;stroke-miterlimit:10;"/><path d="M595.5,588 L595.5,614 L735.5,614 L735.5,598 L725.5,588 L595.5,588" fill="#FEFFDD" style="stroke:#181818;stroke-width:0.5;"/><path d="M725.5,588 L725.5,598 L735.5,598 L725.5,588" fill="#FEFFDD" style="stroke:#181818;stroke-width:0.5;"/><text fill="#000000" font-family="sans-serif" font-size="13" lengthAdjust="spacing" textLength="119.2026" x="601.5" y="606.4951">abrirOpcionesPerfil()</text></g><!--link abrirPanelPrincipal to OPCIONES_CARGA_TRABAJO_ABIERTAS--><g class="link" data-entity-1="ent0009" data-entity-2="ent0027" data-link-type="dependency" data-source-line="62" id="lnk28"><path d="M1051.4,463.36 C924.23,523.76 799.5,583 799.5,583 C799.5,583 745.2506,619.432 705.5606,646.092" fill="none" id="abrirPanelPrincipal-to-OPCIONES_CARGA_TRABAJO_ABIERTAS" style="stroke:#008000;stroke-width:1;"/><polygon fill="#008000" points="701.41,648.88,711.1114,647.1821,705.5606,646.092,706.6507,640.5412,701.41,648.88" style="stroke:#008000;stroke-width:1;stroke-linejoin:miter;stroke-miterlimit:10;"/><path d="M804.5,588 L804.5,614 L994.5,614 L994.5,598 L984.5,588 L804.5,588" fill="#FEFFDD" style="stroke:#181818;stroke-width:0.5;"/><path d="M984.5,588 L984.5,598 L994.5,598 L984.5,588" fill="#FEFFDD" style="stroke:#181818;stroke-width:0.5;"/><text fill="#000000" font-family="sans-serif" font-size="13" lengthAdjust="spacing" textLength="169.0698" x="810.5" y="606.4951">abrirOpcionesCargaTrabajo()</text></g><!--link abrirPanelPrincipal to PROYECTOS_ABIERTOS--><g class="link" data-entity-1="ent0009" data-entity-2="ent0029" data-link-type="dependency" data-source-line="67" id="lnk30"><path d="M1077.68,553.18 C1034.64,591.9 999.4773,623.5361 974.9873,645.5661" fill="none" id="abrirPanelPrincipal-to-PROYECTOS_ABIERTOS" style="stroke:#008000;stroke-width:1;"/><polygon fill="#008000" points="971.27,648.91,980.6363,645.8648,974.9873,645.5661,975.286,639.9171,971.27,648.91" style="stroke:#008000;stroke-width:1;stroke-linejoin:miter;stroke-miterlimit:10;"/><path d="M1040.5,588 L1040.5,614 L1153.5,614 L1153.5,598 L1143.5,588 L1040.5,588" fill="#FEFFDD" style="stroke:#181818;stroke-width:0.5;"/><path d="M1143.5,588 L1143.5,598 L1153.5,598 L1143.5,588" fill="#FEFFDD" style="stroke:#181818;stroke-width:0.5;"/><text fill="#000000" font-family="sans-serif" font-size="13" lengthAdjust="spacing" textLength="92.4663" x="1046.5" y="606.4951">abrirProyectos()</text></g><!--link abrirPanelPrincipal to INVESTIGADORES_ABIERTOS--><g class="link" data-entity-1="ent0009" data-entity-2="ent0031" data-link-type="dependency" data-source-line="72" id="lnk32"><path d="M1232.12,553.42 C1216.73,592.08 1204.6686,622.3343 1195.9186,644.3243" fill="none" id="abrirPanelPrincipal-to-INVESTIGADORES_ABIERTOS" style="stroke:#008000;stroke-width:1;"/><polygon fill="#008000" points="1194.07,648.97,1201.114,642.0865,1195.9186,644.3243,1193.6808,639.1288,1194.07,648.97" style="stroke:#008000;stroke-width:1;stroke-linejoin:miter;stroke-miterlimit:10;"/><path d="M1222.5,588 L1222.5,614 L1362.5,614 L1362.5,598 L1352.5,588 L1222.5,588" fill="#FEFFDD" style="stroke:#181818;stroke-width:0.5;"/><path d="M1352.5,588 L1352.5,598 L1362.5,598 L1352.5,588" fill="#FEFFDD" style="stroke:#181818;stroke-width:0.5;"/><text fill="#000000" font-family="sans-serif" font-size="13" lengthAdjust="spacing" textLength="119.2153" x="1228.5" y="606.4951">abrirInvestigadores()</text></g><!--link abrirPanelPrincipal to MIS_PUBLICACIONES_ABIERTAS--><g class="link" data-entity-1="ent0009" data-entity-2="ent0033" data-link-type="dependency" data-source-line="77" id="lnk34"><path d="M1404.88,553.42 C1420.27,592.08 1432.3314,622.3343 1441.0814,644.3243" fill="none" id="abrirPanelPrincipal-to-MIS_PUBLICACIONES_ABIERTAS" style="stroke:#008000;stroke-width:1;"/><polygon fill="#008000" points="1442.93,648.97,1443.3192,639.1288,1441.0814,644.3243,1435.886,642.0865,1442.93,648.97" style="stroke:#008000;stroke-width:1;stroke-linejoin:miter;stroke-miterlimit:10;"/><path d="M1435.5,588 L1435.5,614 L1591.5,614 L1591.5,598 L1581.5,588 L1435.5,588" fill="#FEFFDD" style="stroke:#181818;stroke-width:0.5;"/><path d="M1581.5,588 L1581.5,598 L1591.5,598 L1581.5,588" fill="#FEFFDD" style="stroke:#181818;stroke-width:0.5;"/><text fill="#000000" font-family="sans-serif" font-size="13" lengthAdjust="spacing" textLength="135.0972" x="1441.5" y="606.4951">abrirMisPublicaciones()</text></g><!--link abrirPanelPrincipal to PUBLICACIONES_ABIERTAS--><g class="link" data-entity-1="ent0009" data-entity-2="ent0035" data-link-type="dependency" data-source-line="82" id="lnk36"><path d="M1573.49,553.18 C1619.06,591.9 1656.4202,623.6419 1682.3402,645.6719" fill="none" id="abrirPanelPrincipal-to-PUBLICACIONES_ABIERTAS" style="stroke:#008000;stroke-width:1;"/><polygon fill="#008000" points="1686.15,648.91,1681.8827,640.0336,1682.3402,645.6719,1676.7018,646.1293,1686.15,648.91" style="stroke:#008000;stroke-width:1;stroke-linejoin:miter;stroke-miterlimit:10;"/><path d="M1653.5,588 L1653.5,614 L1788.5,614 L1788.5,598 L1778.5,588 L1653.5,588" fill="#FEFFDD" style="stroke:#181818;stroke-width:0.5;"/><path d="M1778.5,588 L1778.5,598 L1788.5,598 L1778.5,588" fill="#FEFFDD" style="stroke:#181818;stroke-width:0.5;"/><text fill="#000000" font-family="sans-serif" font-size="13" lengthAdjust="spacing" textLength="114.8799" x="1659.5" y="606.4951">abrirPublicaciones()</text></g><!--link abrirPanelPrincipal to CONVOCATORIAS_ABIERTAS--><g class="link" data-entity-1="ent0009" data-entity-2="ent0037" data-link-type="dependency" data-source-line="87" id="lnk38"><path d="M1585.78,472.91 C1697.35,529.85 1801.5,583 1801.5,583 C1801.5,583 1868.5867,619.8145 1917.1667,646.4745" fill="none" id="abrirPanelPrincipal-to-CONVOCATORIAS_ABIERTAS" style="stroke:#008000;stroke-width:1;"/><polygon fill="#008000" points="1921.55,648.88,1915.5844,641.0434,1917.1667,646.4745,1911.7356,648.0568,1921.55,648.88" style="stroke:#008000;stroke-width:1;stroke-linejoin:miter;stroke-miterlimit:10;"/><path d="M1869.5,588 L1869.5,614 L2007.5,614 L2007.5,598 L1997.5,588 L1869.5,588" fill="#FEFFDD" style="stroke:#181818;stroke-width:0.5;"/><path d="M1997.5,588 L1997.5,598 L2007.5,598 L1997.5,588" fill="#FEFFDD" style="stroke:#181818;stroke-width:0.5;"/><text fill="#000000" font-family="sans-serif" font-size="13" lengthAdjust="spacing" textLength="117.7617" x="1875.5" y="606.4951">abrirConvocatorias()</text></g><!--link abrirPanelPrincipal to RECOMPENSAS_ABIERTAS--><g class="link" data-entity-1="ent0009" data-entity-2="ent0039" data-link-type="dependency" data-source-line="92" id="lnk40"><path d="M1585.65,430.31 C1784.08,499.99 2020.5,583 2020.5,583 C2020.5,583 2100.3285,620.2268 2157.4985,646.8868" fill="none" id="abrirPanelPrincipal-to-RECOMPENSAS_ABIERTAS" style="stroke:#008000;stroke-width:1;"/><polygon fill="#008000" points="2162.03,649,2155.5638,641.5711,2157.4985,646.8868,2152.1828,648.8215,2162.03,649" style="stroke:#008000;stroke-width:1;stroke-linejoin:miter;stroke-miterlimit:10;"/><path d="M2098.5,588 L2098.5,614 L2236.5,614 L2236.5,598 L2226.5,588 L2098.5,588" fill="#FEFFDD" style="stroke:#181818;stroke-width:0.5;"/><path d="M2226.5,588 L2226.5,598 L2236.5,598 L2226.5,588" fill="#FEFFDD" style="stroke:#181818;stroke-width:0.5;"/><text fill="#000000" font-family="sans-serif" font-size="13" lengthAdjust="spacing" textLength="117.7617" x="2104.5" y="606.4951">abrirRecompensas()</text></g><!--link abrirPanelPrincipal to SESION_CERRADA--><g class="link" data-entity-1="ent0009" data-entity-2="ent0041" data-link-type="dependency" data-source-line="97" id="lnk42"><path d="M1585.6,407.22 C1860.69,480.06 2249.5,583 2249.5,583 C2249.5,583 2322.1831,619.9537 2374.6131,646.6137" fill="none" id="abrirPanelPrincipal-to-SESION_CERRADA" style="stroke:#008000;stroke-width:1;"/><polygon fill="#008000" points="2379.07,648.88,2372.8606,641.2352,2374.6131,646.6137,2369.2346,648.3662,2379.07,648.88" style="stroke:#008000;stroke-width:1;stroke-linejoin:miter;stroke-miterlimit:10;"/><path d="M2321.5,588 L2321.5,614 L2424.5,614 L2424.5,598 L2414.5,588 L2321.5,588" fill="#FEFFDD" style="stroke:#181818;stroke-width:0.5;"/><path d="M2414.5,588 L2414.5,598 L2424.5,598 L2414.5,588" fill="#FEFFDD" style="stroke:#181818;stroke-width:0.5;"/><text fill="#000000" font-family="sans-serif" font-size="13" lengthAdjust="spacing" textLength="82.3545" x="2327.5" y="606.4951">cerrarSesion()</text></g><?plantuml-src dPNVQjim5CRl_HGYksa7PQp_6IMWg5xnI6nZPuLHIf1jBMYr9ICvWL06UvQzmXvXRx8dcIGdJPp9Yzta9l4v-dsVZewFv1Db9HQu03bbf5gL19GyN-a_ZYChN150sNk09HXu_hqRJxqxU1j4RZo38y-Dfa4yS7J2oSERkI24FPuC0Ku45I5c90y5PIajSRvbdHfM428ly1K5mUWEpgOH7C5FmPe93VEqE_EioGpTwACttXZKhBFkh7F3cdWAytaqzX1SGtUjdNV7NHXSE-gYE-hIe53WtmS8JeF8WqtKPNVKbK55BWeceUl7Uw2hxg3hUdjHyCL5gXSQJN5z6BFcM6A6Qtb-T3m0puu3rATUEr1VbJlXiXAOPToarmaFRnyR5lPoT0hZ2i6PRludy-0c6IBEHKOPphYuUPSCWUGvJMc5Qvk0vA3Kwq7viW-zaB3Cq6hffbJ3XNBLAXrJMP426zbYGJJ3eWTMe2IYe6hznfi0kIg2fFC59QmY4k0qfPmH-S6W__pu2H1dSf7hr5Bm5KahBYqnofPAbixrxeaj8ULioLDSSK6nBIv8oekIC6cD5bI2Sf4eqxZsPxDdZSCq9HaH00DUrY6G4Ls7hpG_a9HYCSVwXofdWhzn_RDjdqG8PK4IIN__Ois3_UuujaRTFTiG-kvu5aQUZxmGlemWft7MuTvfBgcaIKwSRGSTaccPT4qP0mdMPGXDdOwENoDY7z7_4KEwtjEwrhqa_vqZ5fLmqxszq2sNbuNlDJgZbqZxhM7HcL0PxdPwlqfrLNczXFsYiKYWtOdGIy9s0La4ekr8wOMFtLZLPuRSA8Ati0bEpOiUg_USirteNm00?></g></svg>