<?xml version="1.0" encoding="us-ascii" standalone="no"?><svg xmlns="http://www.w3.org/2000/svg" xmlns:xlink="http://www.w3.org/1999/xlink" contentStyleType="text/css" height="587px" preserveAspectRatio="none" style="width:1231px;height:587px;background:#FFFFFF;" version="1.1" viewBox="0 0 1231 587" width="1231px" zoomAndPan="magnify"><defs/><g><!--cluster importarConvocatoria--><g id="cluster_importarConvocatoria"><path d="M227,6 L391,6 A3.75,3.75 0 0 1 393.5,8.5 L400.5,29.6094 L1005,29.6094 A2.5,2.5 0 0 1 1007.5,32.1094 L1007.5,577.5 A2.5,2.5 0 0 1 1005,580 L227,580 A2.5,2.5 0 0 1 224.5,577.5 L224.5,8.5 A2.5,2.5 0 0 1 227,6 " fill="none" style="stroke:#000000;stroke-width:1.5;"/><line style="stroke:#000000;stroke-width:1.5;" x1="224.5" x2="400.5" y1="29.6094" y2="29.6094"/><text fill="#000000" font-family="sans-serif" font-size="14" font-weight="bold" lengthAdjust="spacing" textLength="163" x="228.5" y="22.5332">importarConvocatoria()</text></g><!--entity ImportarConvocatoriaView--><g id="elem_ImportarConvocatoriaView"><rect fill="#629EF9" height="37.6094" rx="2.5" ry="2.5" style="stroke:#181818;stroke-width:0.5;" width="185" x="516" y="42"/><text fill="#000000" font-family="sans-serif" font-size="14" lengthAdjust="spacing" textLength="165" x="526" y="66.5332">ImportarConvocatoriaView</text></g><!--entity ConvocatoriaController--><g id="elem_ConvocatoriaController"><rect fill="#B5BD68" height="37.6094" rx="2.5" ry="2.5" style="stroke:#181818;stroke-width:0.5;" width="166" x="525.5" y="158"/><text fill="#000000" font-family="sans-serif" font-size="14" lengthAdjust="spacing" textLength="146" x="535.5" y="182.5332">ConvocatoriaController</text></g><!--entity PoliticaConvocatoria--><g id="elem_PoliticaConvocatoria"><rect fill="#B5BD68" height="37.6094" rx="2.5" ry="2.5" style="stroke:#181818;stroke-width:0.5;" width="149" x="448" y="292.5"/><text fill="#000000" font-family="sans-serif" font-size="14" lengthAdjust="spacing" textLength="129" x="458" y="317.0332">PoliticaConvocatoria</text></g><!--entity Importador--><g id="elem_Importador"><rect fill="#B5BD68" height="55.2188" rx="2.5" ry="2.5" style="stroke:#181818;stroke-width:0.5;" width="172" x="240.5" y="284"/><text fill="#000000" font-family="sans-serif" font-size="14" lengthAdjust="spacing" textLength="152" x="250.5" y="308.5332">ImportadorConvocatoria</text><text fill="#000000" font-family="sans-serif" font-size="14" lengthAdjust="spacing" textLength="71" x="250.5" y="326.1426">&#171;interface&#187;</text></g><!--entity ValidadorConvocatoria--><g id="elem_ValidadorConvocatoria"><rect fill="#B5BD68" height="37.6094" rx="2.5" ry="2.5" style="stroke:#181818;stroke-width:0.5;" width="164" x="632.5" y="292.5"/><text fill="#000000" font-family="sans-serif" font-size="14" lengthAdjust="spacing" textLength="144" x="642.5" y="317.0332">ValidadorConvocatoria</text></g><!--entity ConvocatoriaRepository--><g id="elem_ConvocatoriaRepository"><rect fill="#F2AC4E" height="37.6094" rx="2.5" ry="2.5" style="stroke:#181818;stroke-width:0.5;" width="172" x="673.5" y="427"/><text fill="#000000" font-family="sans-serif" font-size="14" lengthAdjust="spacing" textLength="152" x="683.5" y="451.5332">ConvocatoriaRepository</text></g><!--entity FuenteConvocatoria--><g id="elem_FuenteConvocatoria"><rect fill="#F2AC4E" height="37.6094" rx="2.5" ry="2.5" style="stroke:#181818;stroke-width:0.5;" width="149" x="252" y="427"/><text fill="#000000" font-family="sans-serif" font-size="14" lengthAdjust="spacing" textLength="129" x="262" y="451.5332">FuenteConvocatoria</text></g><!--entity Convocatoria--><g id="elem_Convocatoria"><rect fill="#F2AC4E" height="37.6094" rx="2.5" ry="2.5" style="stroke:#181818;stroke-width:0.5;" width="104" x="707.5" y="526"/><text fill="#000000" font-family="sans-serif" font-size="14" lengthAdjust="spacing" textLength="84" x="717.5" y="550.5332">Convocatoria</text></g><!--entity Entrada--><g id="elem_Entrada"><rect fill="#CDEBA5" height="37.6094" rx="2.5" ry="2.5" style="stroke:#181818;stroke-width:0.5;" width="201" x="7" y="42"/><text fill="#000000" font-family="sans-serif" font-size="14" lengthAdjust="spacing" textLength="181" x="17" y="66.5332">:CONVOCATORIA_ABIERTA</text></g><!--entity Salida--><g id="elem_Salida"><rect fill="#CDEBA5" height="37.6094" rx="2.5" ry="2.5" style="stroke:#181818;stroke-width:0.5;" width="201" x="1024" y="158"/><text fill="#000000" font-family="sans-serif" font-size="14" lengthAdjust="spacing" textLength="181" x="1034" y="182.5332">:CONVOCATORIA_ABIERTA</text></g><g id="elem_GMN23"><path d="M1026.5,274 L1026.5,349.4063 L1214.5,349.4063 L1214.5,284 L1204.5,274 L1026.5,274 " fill="#FEFFDD" style="stroke:#181818;stroke-width:0.5;"/><path d="M1204.5,274 L1204.5,284 L1214.5,284 L1204.5,274 " fill="#FEFFDD" style="stroke:#181818;stroke-width:1.0;"/><text fill="#000000" font-family="sans-serif" font-size="13" lengthAdjust="spacing" textLength="148" x="1032.5" y="292.4951">Punto de extension OCP:</text><text fill="#000000" font-family="sans-serif" font-size="13" lengthAdjust="spacing" textLength="167" x="1032.5" y="308.8467">cada fuente implementa esta</text><text fill="#000000" font-family="sans-serif" font-size="13" lengthAdjust="spacing" textLength="138" x="1032.5" y="325.1982">abstraccion sin cambiar</text><text fill="#000000" font-family="sans-serif" font-size="13" lengthAdjust="spacing" textLength="82" x="1032.5" y="341.5498">el controlador.</text></g><!--link Entrada to ImportarConvocatoriaView--><g id="link_Entrada_ImportarConvocatoriaView"><path d="M208.28,61 C298.15,61 422.62,61 509.9,61 " fill="none" id="Entrada-to-ImportarConvocatoriaView" style="stroke:#181818;stroke-width:1.0;"/><polygon fill="#181818" points="515.9,61,506.9,57,510.9,61,506.9,65,515.9,61" style="stroke:#181818;stroke-width:1.0;"/><text fill="#000000" font-family="sans-serif" font-size="13" lengthAdjust="spacing" textLength="129" x="297.5" y="54.4951">importarConvocatoria()</text></g><!--link ImportarConvocatoriaView to ConvocatoriaController--><g id="link_ImportarConvocatoriaView_ConvocatoriaController"><path d="M608.5,80.06 C608.5,101.28 608.5,130.3 608.5,151.64 " fill="none" id="ImportarConvocatoriaView-to-ConvocatoriaController" style="stroke:#181818;stroke-width:1.0;"/><polygon fill="#181818" points="608.5,157.64,612.5,148.64,608.5,152.64,604.5,148.64,608.5,157.64" style="stroke:#181818;stroke-width:1.0;"/><text fill="#000000" font-family="sans-serif" font-size="13" lengthAdjust="spacing" textLength="127" x="609.5" y="124.4951">importar(fuente, actor)</text></g><!--link ConvocatoriaController to PoliticaConvocatoria--><g id="link_ConvocatoriaController_PoliticaConvocatoria"><path d="M572.1,196.01 C544.58,209.63 511.5,226 511.5,226 C511.5,226 511.5,244 511.5,244 C511.5,244 515.2629,266.7201 518.5129,286.4101 " fill="none" id="ConvocatoriaController-to-PoliticaConvocatoria" style="stroke:#181818;stroke-width:1.0;"/><polygon fill="#181818" points="519.49,292.33,521.9709,282.7987,518.6757,287.3967,514.0777,284.1016,519.49,292.33" style="stroke:#181818;stroke-width:1.0;"/><text fill="#000000" font-family="sans-serif" font-size="13" lengthAdjust="spacing" textLength="147" x="512.5" y="240.4951">permitirImportacion(actor)</text></g><!--link ConvocatoriaController to Importador--><g id="link_ConvocatoriaController_Importador"><path d="M537.21,196.01 C483.3,209.63 418.5,226 418.5,226 C418.5,226 386.7582,255.1505 359.7782,279.9405 " fill="none" id="ConvocatoriaController-to-Importador" style="stroke:#181818;stroke-width:1.0;"/><polygon fill="#181818" points="355.36,284,364.6936,280.8561,359.0418,280.6171,359.2809,274.9653,355.36,284" style="stroke:#181818;stroke-width:1.0;"/><text fill="#000000" font-family="sans-serif" font-size="13" lengthAdjust="spacing" textLength="83" x="419.5" y="240.4951">extraer(fuente)</text></g><!--link Importador to FuenteConvocatoria--><g id="link_Importador_FuenteConvocatoria"><path d="M326.5,339.31 C326.5,365.33 326.5,404.09 326.5,426.73 " fill="none" id="Importador-FuenteConvocatoria" style="stroke:#181818;stroke-width:1.0;"/></g><!--link ConvocatoriaController to ValidadorConvocatoria--><g id="link_ConvocatoriaController_ValidadorConvocatoria"><path d="M629.67,196.15 C645.53,209.74 664.5,226 664.5,226 C664.5,226 685.8952,262.1459 700.5952,286.9959 " fill="none" id="ConvocatoriaController-to-ValidadorConvocatoria" style="stroke:#181818;stroke-width:1.0;"/><polygon fill="#181818" points="703.65,292.16,702.5105,282.3773,701.1043,287.8566,695.625,286.4504,703.65,292.16" style="stroke:#181818;stroke-width:1.0;"/><text fill="#000000" font-family="sans-serif" font-size="13" lengthAdjust="spacing" textLength="155" x="674.5" y="240.4951">validar(datosNormalizados)</text></g><!--link ValidadorConvocatoria to ConvocatoriaRepository--><g id="link_ValidadorConvocatoria_ConvocatoriaRepository"><path d="M697.01,330.67 C678.06,350.36 650.5,379 650.5,379 C650.5,379 650.5,397 650.5,397 C650.5,397 682.1788,410.952 713.1088,424.572 " fill="none" id="ValidadorConvocatoria-to-ConvocatoriaRepository" style="stroke:#181818;stroke-width:1.0;"/><polygon fill="#181818" points="718.6,426.99,711.9753,419.7022,714.024,424.975,708.7512,427.0237,718.6,426.99" style="stroke:#181818;stroke-width:1.0;"/><text fill="#000000" font-family="sans-serif" font-size="13" lengthAdjust="spacing" textLength="205" x="651.5" y="393.4951">existeReferenciaExterna(referencia)</text></g><!--link ConvocatoriaController to ConvocatoriaRepository--><g id="link_ConvocatoriaController_ConvocatoriaRepository"><path d="M691.54,195.33 C757.42,209.08 838.5,226 838.5,226 C838.5,226 861.5,379 861.5,379 C861.5,379 861.5,397 861.5,397 C861.5,397 832.1388,410.815 803.1988,424.435 " fill="none" id="ConvocatoriaController-to-ConvocatoriaRepository" style="stroke:#181818;stroke-width:1.0;"/><polygon fill="#181818" points="797.77,426.99,807.6165,426.7768,802.294,424.8609,804.2099,419.5383,797.77,426.99" style="stroke:#181818;stroke-width:1.0;"/><text fill="#000000" font-family="sans-serif" font-size="13" lengthAdjust="spacing" textLength="123" x="857.5" y="316.9951">guardar(convocatoria)</text></g><!--link ConvocatoriaRepository to Convocatoria--><g id="link_ConvocatoriaRepository_Convocatoria"><path d="M759.5,465.24 C759.5,482.59 759.5,508.52 759.5,525.84 " fill="none" id="ConvocatoriaRepository-Convocatoria" style="stroke:#181818;stroke-width:1.0;"/></g><!--link ImportarConvocatoriaView to Salida--><g id="link_ImportarConvocatoriaView_Salida"><path d="M689.98,80 C786.54,101.33 940.6112,135.3758 1037.1712,156.7058 " fill="none" id="ImportarConvocatoriaView-to-Salida" style="stroke:#181818;stroke-width:1.0;stroke-dasharray:7.0,7.0;"/><polygon fill="#181818" points="1043.03,158,1035.1047,152.1529,1038.1477,156.9215,1033.3791,159.9645,1043.03,158" style="stroke:#181818;stroke-width:1.0;"/><text fill="#000000" font-family="sans-serif" font-size="13" lengthAdjust="spacing" textLength="136" x="897.5" y="124.4951">presentarConvocatoria()</text></g><!--link Importador to GMN23--><g id="link_Importador_GMN23"><path d="M370.36,283.88 C405.17,261.97 448,235 448,235 C448,235 990,235 990,235 C990,235 1023.39,254.58 1056.4,273.92 " fill="none" id="Importador-GMN23" style="stroke:#181818;stroke-width:1.0;stroke-dasharray:7.0,7.0;"/></g><!--SRC=[bLD1Rjim4Bpp5Glt8WEr3q4JD49WG55bm9VOS0EV2XHhQkqIaKXXIQTnY_wzfEB4iakbY4xaSZYStHdP1wKRPAoXKfhSlY5eJBKF6o6Of4EzhGW-v5-As-mI1ca-lrlDy-n-lfnbtxFRMR6ypmQ05Whj64iK3Se7t1AekZ7ia7EZ7ur4PrXXm0rY1ybm0By5-A_pvjN5TJ6zXba4lrBqyno-lboNLv-X2_DhnwQgY7l02rCffoHsB_L01mSTfJbHyatVt2ZjY3SeQJ9fHt54zd2ji5BbETCvTdgHvP-AatwMr1Yh_7BV0vxko6jv9wluypwdlxRgXJWu3YCUJNfTIY7kj-Yx0AFIqyLTF98bcxRJZu3IOuOYZeUHfufvd493NFio7sH8PNJoVwwZiodGas-VNfIyDkJFF3Jcn1kyqK2ayDYMEIbzmTuPhlt-buVPeOZUQBdYWGbwbNMqf0qnQQcmUFAfrPZmQ-NDrljejplae55spa-9ZkWmc9EHz8PWF9uSSkQjOh9-cFyaI6ZZ25XjVpWmc-vVjzXfPw2au15fwxs5URv8XGnnVVOh9AcYEl02MOS2rzRxAKCGm2eD4kkrGXPKWNoUHA0U2z8bX8V_0W00]--></g></svg>