<svg xmlns="http://www.w3.org/2000/svg" xmlns:xlink="http://www.w3.org/1999/xlink" contentStyleType="text/css" data-diagram-type="DESCRIPTION" height="711px" preserveAspectRatio="none" style="width:1436px;height:711px;background:#FFFFFF;" version="1.1" viewBox="0 0 1436 711" width="1436px" zoomAndPan="magnify"><?plantuml 1.2026.6?><defs/><g><!--cluster importarConvocatoria--><g class="cluster" data-qualified-name="importarConvocatoria" data-source-line="4" id="ent0002"><path d="M231,6 L387.5723,6 A3.75,3.75 0 0 1 390.0723,8.5 L397.0723,29.6094 L1198,29.6094 A2.5,2.5 0 0 1 1200.5,32.1094 L1200.5,693.5 A2.5,2.5 0 0 1 1198,696 L231,696 A2.5,2.5 0 0 1 228.5,693.5 L228.5,8.5 A2.5,2.5 0 0 1 231,6" fill="none" style="stroke:#000000;stroke-width:1.5;"/><line style="stroke:#000000;stroke-width:1.5;" x1="228.5" x2="397.0723" y1="29.6094" y2="29.6094"/><text fill="#000000" font-family="sans-serif" font-size="14" font-weight="700" lengthAdjust="spacing" textLength="155.5723" x="232.5" y="22.5332">importarConvocatoria()</text></g><!--entity ImportarConvocatoriaView--><g class="entity" data-qualified-name="importarConvocatoria.ImportarConvocatoriaView" data-source-line="5" id="ent0003"><rect fill="#629EF9" height="37.6094" rx="2.5" ry="2.5" style="stroke:#181818;stroke-width:0.5;" width="184.958" x="442" y="42"/><text fill="#000000" font-family="sans-serif" font-size="14" lengthAdjust="spacing" textLength="164.958" x="452" y="66.5332">ImportarConvocatoriaView</text></g><!--entity ConvocatoriaController--><g class="entity" data-qualified-name="importarConvocatoria.ConvocatoriaController" data-source-line="6" id="ent0004"><rect fill="#B5BD68" height="37.6094" rx="2.5" ry="2.5" style="stroke:#181818;stroke-width:0.5;" width="163.1787" x="443" y="158"/><text fill="#000000" font-family="sans-serif" font-size="14" lengthAdjust="spacing" textLength="143.1787" x="453" y="182.5332">ConvocatoriaController</text></g><!--entity ImportacionConvocatoriaService--><g class="entity" data-qualified-name="importarConvocatoria.ImportacionConvocatoriaService" data-source-line="7" id="ent0005"><rect fill="#B5BD68" height="37.6094" rx="2.5" ry="2.5" style="stroke:#181818;stroke-width:0.5;" width="222.3164" x="526.5" y="274"/><text fill="#000000" font-family="sans-serif" font-size="14" lengthAdjust="spacing" textLength="202.3164" x="536.5" y="298.5332">ImportacionConvocatoriaService</text></g><!--entity SesionService--><g class="entity" data-qualified-name="importarConvocatoria.SesionService" data-source-line="8" id="ent0006"><rect fill="#B5BD68" height="37.6094" rx="2.5" ry="2.5" style="stroke:#181818;stroke-width:0.5;" width="109.4893" x="799" y="274"/><text fill="#000000" font-family="sans-serif" font-size="14" lengthAdjust="spacing" textLength="89.4893" x="809" y="298.5332">SesionService</text></g><!--entity PoliticaConvocatoria--><g class="entity" data-qualified-name="importarConvocatoria.PoliticaConvocatoria" data-source-line="9" id="ent0007"><rect fill="#B5BD68" height="37.6094" rx="2.5" ry="2.5" style="stroke:#181818;stroke-width:0.5;" width="147.6201" x="281.5" y="390"/><text fill="#000000" font-family="sans-serif" font-size="14" lengthAdjust="spacing" textLength="127.6201" x="291.5" y="414.5332">PoliticaConvocatoria</text></g><!--entity SelectorImportadorConvocatoria--><g class="entity" data-qualified-name="importarConvocatoria.SelectorImportadorConvocatoria" data-source-line="10" id="ent0008"><rect fill="#B5BD68" height="37.6094" rx="2.5" ry="2.5" style="stroke:#181818;stroke-width:0.5;" width="221.5439" x="464.5" y="390"/><text fill="#000000" font-family="sans-serif" font-size="14" lengthAdjust="spacing" textLength="201.5439" x="474.5" y="414.5332">SelectorImportadorConvocatoria</text></g><!--entity Importador--><g class="entity" data-qualified-name="importarConvocatoria.Importador" data-source-line="11" id="ent0009"><rect fill="#B5BD68" height="55.2188" rx="2.5" ry="2.5" style="stroke:#181818;stroke-width:0.5;" width="170.1855" x="456.5" y="516"/><text fill="#000000" font-family="sans-serif" font-size="14" lengthAdjust="spacing" textLength="150.1855" x="466.5" y="540.5332">ImportadorConvocatoria</text><text fill="#000000" font-family="sans-serif" font-size="14" lengthAdjust="spacing" textLength="69.2686" x="466.5" y="558.1426">&#171;interface&#187;</text></g><!--entity ValidadorConvocatoria--><g class="entity" data-qualified-name="importarConvocatoria.ValidadorConvocatoria" data-source-line="12" id="ent0010"><rect fill="#B5BD68" height="37.6094" rx="2.5" ry="2.5" style="stroke:#181818;stroke-width:0.5;" width="161.6406" x="721.5" y="390"/><text fill="#000000" font-family="sans-serif" font-size="14" lengthAdjust="spacing" textLength="141.6406" x="731.5" y="414.5332">ValidadorConvocatoria</text></g><!--entity ConvocatoriaRepository--><g class="entity" data-qualified-name="importarConvocatoria.ConvocatoriaRepository" data-source-line="13" id="ent0011"><rect fill="#F2AC4E" height="37.6094" rx="2.5" ry="2.5" style="stroke:#181818;stroke-width:0.5;" width="169.4063" x="765" y="524.5"/><text fill="#000000" font-family="sans-serif" font-size="14" lengthAdjust="spacing" textLength="149.4063" x="775" y="549.0332">ConvocatoriaRepository</text></g><!--entity FuenteConvocatoria--><g class="entity" data-qualified-name="importarConvocatoria.FuenteConvocatoria" data-source-line="14" id="ent0012"><rect fill="#F2AC4E" height="37.6094" rx="2.5" ry="2.5" style="stroke:#181818;stroke-width:0.5;" width="146.0752" x="468.5" y="642"/><text fill="#000000" font-family="sans-serif" font-size="14" lengthAdjust="spacing" textLength="126.0752" x="478.5" y="666.5332">FuenteConvocatoria</text></g><!--entity Convocatoria--><g class="entity" data-qualified-name="importarConvocatoria.Convocatoria" data-source-line="15" id="ent0013"><rect fill="#F2AC4E" height="37.6094" rx="2.5" ry="2.5" style="stroke:#181818;stroke-width:0.5;" width="102.4893" x="798.5" y="642"/><text fill="#000000" font-family="sans-serif" font-size="14" lengthAdjust="spacing" textLength="82.4893" x="808.5" y="666.5332">Convocatoria</text></g><!--entity Entrada--><g class="entity" data-qualified-name="Entrada" data-source-line="3" id="ent0001"><rect fill="#CDEBA5" height="37.6094" rx="2.5" ry="2.5" style="stroke:#181818;stroke-width:0.5;" width="205.1445" x="7" y="42"/><text fill="#000000" font-family="sans-serif" font-size="14" lengthAdjust="spacing" textLength="185.1445" x="17" y="66.5332">:CONVOCATORIA_ABIERTA</text></g><!--entity Salida--><g class="entity" data-qualified-name="Salida" data-source-line="17" id="ent0014"><rect fill="#CDEBA5" height="37.6094" rx="2.5" ry="2.5" style="stroke:#181818;stroke-width:0.5;" width="205.1445" x="1217" y="158"/><text fill="#000000" font-family="sans-serif" font-size="14" lengthAdjust="spacing" textLength="185.1445" x="1227" y="182.5332">:CONVOCATORIA_ABIERTA</text></g><g class="entity" data-qualified-name="GMN32" data-source-line="38" id="ent0033"><path d="M1216.5,506 L1216.5,581.4063 L1404.437,581.4063 L1404.437,516 L1394.437,506 L1216.5,506" fill="#FEFFDD" style="stroke:#181818;stroke-width:0.5;"/><path d="M1394.437,506 L1394.437,516 L1404.437,516 L1394.437,506" fill="#FEFFDD" style="stroke:#181818;stroke-width:1;"/><text fill="#000000" font-family="sans-serif" font-size="13" lengthAdjust="spacing" textLength="146.7007" x="1222.5" y="524.4951">Punto de extension OCP:</text><text fill="#000000" font-family="sans-serif" font-size="13" lengthAdjust="spacing" textLength="166.937" x="1222.5" y="540.8467">cada fuente implementa esta</text><text fill="#000000" font-family="sans-serif" font-size="13" lengthAdjust="spacing" textLength="136.5571" x="1222.5" y="557.1982">abstraccion sin cambiar</text><text fill="#000000" font-family="sans-serif" font-size="13" lengthAdjust="spacing" textLength="82.3799" x="1222.5" y="573.5498">el controlador.</text></g><!--link Entrada to ImportarConvocatoriaView--><g class="link" data-entity-1="ent0001" data-entity-2="ent0003" data-link-type="dependency" data-source-line="19" id="lnk15"><path d="M212.11,61 C282.12,61 369.08,61 436.86,61" fill="none" id="Entrada-to-ImportarConvocatoriaView" style="stroke:#181818;stroke-width:1;"/><polygon fill="#181818" points="441.86,61,432.86,57,436.86,61,432.86,65,441.86,61" style="stroke:#181818;stroke-width:1;stroke-linejoin:miter;stroke-miterlimit:10;"/><text fill="#000000" font-family="sans-serif" font-size="13" lengthAdjust="spacing" textLength="132.9326" x="261" y="54.4951">importarConvocatoria()</text></g><!--link ImportarConvocatoriaView to ConvocatoriaController--><g class="link" data-entity-1="ent0003" data-entity-2="ent0004" data-link-type="dependency" data-source-line="20" id="lnk16"><path d="M517.87,80.15 C505.41,93.74 490.5,110 490.5,110 C490.5,110 490.5,128 490.5,128 C490.5,128 499.1292,140.1804 508.7592,153.7704" fill="none" id="ImportarConvocatoriaView-to-ConvocatoriaController" style="stroke:#181818;stroke-width:1;"/><polygon fill="#181818" points="511.65,157.85,509.7102,148.1941,508.7592,153.7704,503.1828,152.8194,511.65,157.85" style="stroke:#181818;stroke-width:1;stroke-linejoin:miter;stroke-miterlimit:10;"/><text fill="#000000" font-family="sans-serif" font-size="13" lengthAdjust="spacing" textLength="153.8989" x="491.5" y="124.4951">previsualizar(fuente, actor)</text></g><!--link ImportarConvocatoriaView to ConvocatoriaController--><g class="link" data-entity-1="ent0003" data-entity-2="ent0004" data-link-type="dependency" data-source-line="31" id="lnk27"><path d="M577.65,80.01 C610.28,93.63 649.5,110 649.5,110 C649.5,110 649.5,128 649.5,128 C649.5,128 611.5377,142.5777 576.0677,156.1977" fill="none" id="ImportarConvocatoriaView-to-ConvocatoriaController-1" style="stroke:#181818;stroke-width:1;"/><polygon fill="#181818" points="571.4,157.99,581.2357,158.498,576.0677,156.1977,578.368,151.0296,571.4,157.99" style="stroke:#181818;stroke-width:1;stroke-linejoin:miter;stroke-miterlimit:10;"/><text fill="#000000" font-family="sans-serif" font-size="13" lengthAdjust="spacing" textLength="210.2344" x="650.5" y="124.4951">confirmar(datosNormalizados, actor)</text></g><!--link ConvocatoriaController to SesionService--><g class="link" data-entity-1="ent0004" data-entity-2="ent0006" data-link-type="dependency" data-source-line="21" id="lnk17"><path d="M606,192.6 C684.85,206.72 792.5,226 792.5,226 C792.5,226 815.3772,250.7473 833.4372,270.2973" fill="none" id="ConvocatoriaController-to-SesionService" style="stroke:#181818;stroke-width:1;"/><polygon fill="#181818" points="836.83,273.97,833.6611,264.6449,833.4372,270.2973,827.7848,270.0733,836.83,273.97" style="stroke:#181818;stroke-width:1;stroke-linejoin:miter;stroke-miterlimit:10;"/><text fill="#000000" font-family="sans-serif" font-size="13" lengthAdjust="spacing" textLength="209.5806" x="809.5" y="240.4951">obtenerSesionActual(authentication)</text></g><!--link ConvocatoriaController to ImportacionConvocatoriaService--><g class="link" data-entity-1="ent0004" data-entity-2="ent0005" data-link-type="dependency" data-source-line="22" id="lnk18"><path d="M492.37,196.15 C468.29,209.74 439.5,226 439.5,226 C439.5,226 439.5,244 439.5,244 C439.5,244 502.1708,259.192 558.3508,272.812" fill="none" id="ConvocatoriaController-to-ImportacionConvocatoriaService" style="stroke:#181818;stroke-width:1;"/><polygon fill="#181818" points="563.21,273.99,555.4058,267.9821,558.3508,272.812,553.5209,275.7569,563.21,273.99" style="stroke:#181818;stroke-width:1;stroke-linejoin:miter;stroke-miterlimit:10;"/><text fill="#000000" font-family="sans-serif" font-size="13" lengthAdjust="spacing" textLength="153.8989" x="440.5" y="240.4951">previsualizar(fuente, actor)</text></g><!--link ConvocatoriaController to ImportacionConvocatoriaService--><g class="link" data-entity-1="ent0004" data-entity-2="ent0005" data-link-type="dependency" data-source-line="23" id="lnk19"><path d="M552.48,196.15 C573.43,209.74 598.5,226 598.5,226 C598.5,226 612.7584,250.1142 624.2984,269.6642" fill="none" id="ConvocatoriaController-to-ImportacionConvocatoriaService-1" style="stroke:#181818;stroke-width:1;"/><polygon fill="#181818" points="626.84,273.97,625.7097,264.1862,624.2984,269.6642,618.8204,268.2528,626.84,273.97" style="stroke:#181818;stroke-width:1;stroke-linejoin:miter;stroke-miterlimit:10;"/><text fill="#000000" font-family="sans-serif" font-size="13" lengthAdjust="spacing" textLength="174.1289" x="609.5" y="240.4951">confirmar(datos, fuente, actor)</text></g><!--link ImportacionConvocatoriaService to PoliticaConvocatoria--><g class="link" data-entity-1="ent0005" data-entity-2="ent0007" data-link-type="dependency" data-source-line="24" id="lnk20"><path d="M559.83,312.01 C501.09,325.63 430.5,342 430.5,342 C430.5,342 401.9531,367.1164 379.7431,386.6664" fill="none" id="ImportacionConvocatoriaService-to-PoliticaConvocatoria" style="stroke:#181818;stroke-width:1;"/><polygon fill="#181818" points="375.99,389.97,385.3885,387.026,379.7431,386.6664,380.1027,381.021,375.99,389.97" style="stroke:#181818;stroke-width:1;stroke-linejoin:miter;stroke-miterlimit:10;"/><text fill="#000000" font-family="sans-serif" font-size="13" lengthAdjust="spacing" textLength="148.8145" x="431.5" y="356.4951">permitirImportacion(actor)</text></g><!--link ImportacionConvocatoriaService to SelectorImportadorConvocatoria--><g class="link" data-entity-1="ent0005" data-entity-2="ent0008" data-link-type="dependency" data-source-line="25" id="lnk21"><path d="M620.87,312.15 C608.41,325.74 593.5,342 593.5,342 C593.5,342 587.0652,365.5961 581.7352,385.1461" fill="none" id="ImportacionConvocatoriaService-to-SelectorImportadorConvocatoria" style="stroke:#181818;stroke-width:1;"/><polygon fill="#181818" points="580.42,389.97,586.6465,382.3391,581.7352,385.1461,578.9282,380.2348,580.42,389.97" style="stroke:#181818;stroke-width:1;stroke-linejoin:miter;stroke-miterlimit:10;"/><text fill="#000000" font-family="sans-serif" font-size="13" lengthAdjust="spacing" textLength="110.5571" x="594.5" y="356.4951">seleccionar(fuente)</text></g><!--link SelectorImportadorConvocatoria to Importador--><g class="link" data-entity-1="ent0008" data-entity-2="ent0009" data-link-type="dependency" data-source-line="26" id="lnk22"><path d="M561.51,428.15 C551.03,441.74 538.5,458 538.5,458 C538.5,458 538.5,476 538.5,476 C538.5,476 539.2333,492.3351 540.0733,510.8451" fill="none" id="SelectorImportadorConvocatoria-to-Importador" style="stroke:#181818;stroke-width:1;"/><polygon fill="#181818" points="540.3,515.84,543.8879,506.6679,540.0733,510.8451,535.8961,507.0306,540.3,515.84" style="stroke:#181818;stroke-width:1;stroke-linejoin:miter;stroke-miterlimit:10;"/><text fill="#000000" font-family="sans-serif" font-size="13" lengthAdjust="spacing" textLength="154.6479" x="539.5" y="472.4951">obtenerCompatible(fuente)</text></g><!--link ConvocatoriaController to Importador--><g class="link" data-entity-1="ent0004" data-entity-2="ent0009" data-link-type="dependency" data-source-line="27" id="lnk23"><path d="M489.61,196.01 C463.22,209.63 431.5,226 431.5,226 C431.5,226 264.5,390 264.5,390 C264.5,390 264.5,428 264.5,428 C264.5,428 390.8092,480.21 472.6292,514.03" fill="none" id="ConvocatoriaController-to-Importador" style="stroke:#181818;stroke-width:1;"/><polygon fill="#181818" points="477.25,515.94,470.4605,508.8054,472.6292,514.03,467.4045,516.1987,477.25,515.94" style="stroke:#181818;stroke-width:1;stroke-linejoin:miter;stroke-miterlimit:10;"/><text fill="#000000" font-family="sans-serif" font-size="13" lengthAdjust="spacing" textLength="85.2617" x="312.5" y="356.4951">extraer(fuente)</text></g><!--link Importador to FuenteConvocatoria--><g class="link" data-entity-1="ent0009" data-entity-2="ent0012" data-link-type="association" data-source-line="28" id="lnk24"><path d="M541.5,571.29 C541.5,593.01 541.5,623.04 541.5,641.98" fill="none" id="Importador-FuenteConvocatoria" style="stroke:#181818;stroke-width:1;"/></g><!--link ImportacionConvocatoriaService to ValidadorConvocatoria--><g class="link" data-entity-1="ent0005" data-entity-2="ent0010" data-link-type="dependency" data-source-line="29" id="lnk25"><path d="M664.72,312.15 C685.11,325.74 709.5,342 709.5,342 C709.5,342 745.4728,367.5257 773.0128,387.0757" fill="none" id="ImportacionConvocatoriaService-to-ValidadorConvocatoria" style="stroke:#181818;stroke-width:1;"/><polygon fill="#181818" points="777.09,389.97,772.0665,381.4986,773.0128,387.0757,767.4357,388.022,777.09,389.97" style="stroke:#181818;stroke-width:1;stroke-linejoin:miter;stroke-miterlimit:10;"/><text fill="#000000" font-family="sans-serif" font-size="13" lengthAdjust="spacing" textLength="158.228" x="734.5" y="356.4951">validar(datosNormalizados)</text></g><!--link ImportacionConvocatoriaService to ValidadorConvocatoria--><g class="link" data-entity-1="ent0005" data-entity-2="ent0010" data-link-type="dependency" data-source-line="32" id="lnk28"><path d="M736.55,312.01 C811.47,325.63 901.5,342 901.5,342 C901.5,342 901.5,360 901.5,360 C901.5,360 872.239,374.1886 844.149,387.8086" fill="none" id="ImportacionConvocatoriaService-to-ValidadorConvocatoria-1" style="stroke:#181818;stroke-width:1;"/><polygon fill="#181818" points="839.65,389.99,849.4934,389.6626,844.149,387.8086,846.0031,382.4642,839.65,389.99" style="stroke:#181818;stroke-width:1;stroke-linejoin:miter;stroke-miterlimit:10;"/><text fill="#000000" font-family="sans-serif" font-size="13" lengthAdjust="spacing" textLength="169.7871" x="902.5" y="356.4951">revalidar(datosNormalizados)</text></g><!--link ValidadorConvocatoria to ConvocatoriaRepository--><g class="link" data-entity-1="ent0010" data-entity-2="ent0011" data-link-type="dependency" data-source-line="30" id="lnk26"><path d="M776.79,428.15 C757.54,441.74 734.5,458 734.5,458 C734.5,458 734.5,476 734.5,476 C734.5,476 779.7016,502.137 813.7516,521.827" fill="none" id="ValidadorConvocatoria-to-ConvocatoriaRepository" style="stroke:#181818;stroke-width:1;"/><polygon fill="#181818" points="818.08,524.33,812.2912,516.3619,813.7516,521.827,808.2865,523.2874,818.08,524.33" style="stroke:#181818;stroke-width:1;stroke-linejoin:miter;stroke-miterlimit:10;"/><text fill="#000000" font-family="sans-serif" font-size="13" lengthAdjust="spacing" textLength="208.0952" x="735.5" y="472.4951">existeReferenciaExterna(referencia)</text></g><!--link ImportacionConvocatoriaService to ConvocatoriaRepository--><g class="link" data-entity-1="ent0005" data-entity-2="ent0011" data-link-type="dependency" data-source-line="33" id="lnk29"><path d="M748.82,307.92 C767.79,310.29 781.5,312 781.5,312 C781.5,312 1080.5,342 1080.5,342 C1080.5,342 1080.5,360 1080.5,360 C1080.5,360 948.5,476 948.5,476 C948.5,476 910.0104,501.8518 880.7004,521.5418" fill="none" id="ImportacionConvocatoriaService-to-ConvocatoriaRepository" style="stroke:#181818;stroke-width:1;"/><polygon fill="#181818" points="876.55,524.33,886.2513,522.6316,880.7004,521.5418,881.7902,515.9909,876.55,524.33" style="stroke:#181818;stroke-width:1;stroke-linejoin:miter;stroke-miterlimit:10;"/><text fill="#000000" font-family="sans-serif" font-size="13" lengthAdjust="spacing" textLength="229.7598" x="1046.5" y="414.4951">guardarTrasConfirmacion(convocatoria)</text></g><!--link ConvocatoriaRepository to Convocatoria--><g class="link" data-entity-1="ent0011" data-entity-2="ent0013" data-link-type="association" data-source-line="34" id="lnk30"><path d="M849.5,562.55 C849.5,584.12 849.5,620.02 849.5,641.7" fill="none" id="ConvocatoriaRepository-Convocatoria" style="stroke:#181818;stroke-width:1;"/></g><!--link ImportarConvocatoriaView to Salida--><g class="link" data-entity-1="ent0003" data-entity-2="ent0014" data-link-type="dependency" data-source-line="35" id="lnk31"><path d="M627.37,75.31 C726.51,89.51 869.5,110 869.5,110 C869.5,110 1200.5,158 1200.5,158 C1200.5,158 1201.8761,158.2131 1211.6061,159.6831" fill="none" id="ImportarConvocatoriaView-to-Salida" style="stroke:#181818;stroke-width:1;stroke-dasharray:7,7;"/><polygon fill="#181818" points="1216.55,160.43,1208.2485,155.1304,1211.6061,159.6831,1207.0535,163.0407,1216.55,160.43" style="stroke:#181818;stroke-width:1;stroke-linejoin:miter;stroke-miterlimit:10;"/><text fill="#000000" font-family="sans-serif" font-size="13" lengthAdjust="spacing" textLength="140.1753" x="986.5" y="124.4951">presentarConvocatoria()</text></g><!--link Importador to GMN32--><g class="link" data-entity-1="ent0009" data-entity-2="ent0033" data-link-type="association" data-source-line="38" id="lnk34"><path d="M621.87,515.99 C685.95,494.06 765,467 765,467 C765,467 1183,467 1183,467 C1183,467 1215.63,486.58 1247.87,505.92" fill="none" id="Importador-GMN32" style="stroke:#181818;stroke-width:1;stroke-dasharray:7,7;"/></g><?plantuml-src dPHHR-8m3CVVyoaixWMamSDqcsxLXDJrGE9b89XuEkaKKiEYjKdb16xSwRxxEHs2RcixTZmLn_x5iV-sUzAca2HpoBH1loyG2fljmnyX29MNPfCXV4c-Z-xYA-X4oVH-EKtYX-by4l-CxoQZ-KFS0UbWP3p9L8f2gYUvGT1vOSbBIgpPMIMz9Is3NwVkeDlhm1y1_AlSUNrvCnhVmAJ6VwdnrrltrTKglVu6LJV-zcIp3Ad1-S1Msffgt09ffnKs12tGiN-xpyncscibgzH6NCOsIuTSKajd17NglN-OsrjjFD9QAXmEoyQSF1jOIvdfzADxnvTnydNqghfpBApJ_BblS1vlaNFv95Ny_Ppk5cNsGXpq1ttg3nir4q6z-aHJ0FHJnjLhAeA2SAVTbZFuBQcxBfzx0J9qioVgWw3Fl5SAYi2kF1ga5skiF0ExSkiV6SSIycnifRMB-F-p_8Yhh5bhofcPyecxW3VezlZoYhenuOIHSZPJ1T0zdza-Jn6uS1u0nsBqH7jCjHfyT6nOOlE2sxFAy0Zwk9mb09zPh7Yw_tJ6hdLpSyQxQySuWbrfFlJetdA_WWvIwtgYDg9arOzvo5ixZtDS8w5HMewUUTSOsQMZfMsKMYRfZPQgUNv6Jmqru05ehi8PsAPoRBQIcFf0qYM71vHYLHN_rveuHOT6rxNuVTq6W-5XovMpx5WSx_QNCDOZaDuyUh3hwiwVROsta6BG79gmOM2Qp2AXmh9yqLzOYXdcWGlel1HovLYVvP20qmQKp5TQai0iD2eqBQ070aqAuU9_?></g></svg>