<svg xmlns="http://www.w3.org/2000/svg" xmlns:xlink="http://www.w3.org/1999/xlink" contentStyleType="text/css" data-diagram-type="DESCRIPTION" height="442px" preserveAspectRatio="none" style="width:939px;height:442px;background:#FFFFFF;" version="1.1" viewBox="0 0 939 442" width="939px" zoomAndPan="magnify"><?plantuml 1.2026.4?><defs/><g><!--cluster importarConvocatoria--><g class="cluster" data-qualified-name="importarConvocatoria" data-source-line="4" id="ent0002"><path d="M231,6 L387.5723,6 A3.75,3.75 0 0 1 390.0723,8.5 L397.0723,29.6094 L701,29.6094 A2.5,2.5 0 0 1 703.5,32.1094 L703.5,424.5 A2.5,2.5 0 0 1 701,427 L231,427 A2.5,2.5 0 0 1 228.5,424.5 L228.5,8.5 A2.5,2.5 0 0 1 231,6" fill="none" style="stroke:#000000;stroke-width:1.5;"/><line style="stroke:#000000;stroke-width:1.5;" x1="228.5" x2="397.0723" y1="29.6094" y2="29.6094"/><text fill="#000000" font-family="sans-serif" font-size="14" font-weight="700" lengthAdjust="spacing" textLength="155.5723" x="232.5" y="22.5332">importarConvocatoria()</text></g><!--entity ImportarConvocatoriaView--><g class="entity" data-qualified-name="importarConvocatoria.ImportarConvocatoriaView" data-source-line="5" id="ent0003"><rect fill="#629EF9" height="37.6094" rx="2.5" ry="2.5" style="stroke:#181818;stroke-width:0.5;" width="184.958" x="387" y="42"/><text fill="#000000" font-family="sans-serif" font-size="14" lengthAdjust="spacing" textLength="164.958" x="397" y="66.5332">ImportarConvocatoriaView</text></g><!--entity ConvocatoriaController--><g class="entity" data-qualified-name="importarConvocatoria.ConvocatoriaController" data-source-line="6" id="ent0004"><rect fill="#B5BD68" height="37.6094" rx="2.5" ry="2.5" style="stroke:#181818;stroke-width:0.5;" width="163.1787" x="318" y="158"/><text fill="#000000" font-family="sans-serif" font-size="14" lengthAdjust="spacing" textLength="143.1787" x="328" y="182.5332">ConvocatoriaController</text></g><!--entity ConvocatoriaRepository--><g class="entity" data-qualified-name="importarConvocatoria.ConvocatoriaRepository" data-source-line="7" id="ent0005"><rect fill="#F2AC4E" height="37.6094" rx="2.5" ry="2.5" style="stroke:#181818;stroke-width:0.5;" width="169.4063" x="329" y="274"/><text fill="#000000" font-family="sans-serif" font-size="14" lengthAdjust="spacing" textLength="149.4063" x="339" y="298.5332">ConvocatoriaRepository</text></g><!--entity Convocatoria--><g class="entity" data-qualified-name="importarConvocatoria.Convocatoria" data-source-line="8" id="ent0006"><rect fill="#F2AC4E" height="37.6094" rx="2.5" ry="2.5" style="stroke:#181818;stroke-width:0.5;" width="102.4893" x="362.5" y="373"/><text fill="#000000" font-family="sans-serif" font-size="14" lengthAdjust="spacing" textLength="82.4893" x="372.5" y="397.5332">Convocatoria</text></g><!--entity EstadoEntrada--><g class="entity" data-qualified-name="EstadoEntrada" data-source-line="3" id="ent0001"><rect fill="#CDEBA5" height="37.6094" rx="2.5" ry="2.5" style="stroke:#181818;stroke-width:0.5;" width="205.1445" x="7" y="42"/><text fill="#000000" font-family="sans-serif" font-size="14" lengthAdjust="spacing" textLength="185.1445" x="17" y="66.5332">:CONVOCATORIA_ABIERTA</text></g><!--entity EstadoSalida--><g class="entity" data-qualified-name="EstadoSalida" data-source-line="11" id="ent0007"><rect fill="#CDEBA5" height="37.6094" rx="2.5" ry="2.5" style="stroke:#181818;stroke-width:0.5;" width="205.1445" x="720" y="158"/><text fill="#000000" font-family="sans-serif" font-size="14" lengthAdjust="spacing" textLength="185.1445" x="730" y="182.5332">:CONVOCATORIA_ABIERTA</text></g><!--link EstadoEntrada to ImportarConvocatoriaView--><g class="link" data-entity-1="ent0001" data-entity-2="ent0003" data-link-type="dependency" data-source-line="14" id="lnk8"><path d="M212.07,61 C266.82,61 328.68,61 381.85,61" fill="none" id="EstadoEntrada-to-ImportarConvocatoriaView" style="stroke:#181818;stroke-width:1;"/><polygon fill="#181818" points="386.85,61,377.85,57,381.85,61,377.85,65,386.85,61" style="stroke:#181818;stroke-width:1;stroke-linejoin:miter;stroke-miterlimit:10;"/><text fill="#000000" font-family="sans-serif" font-size="13" lengthAdjust="spacing" textLength="132.9326" x="233.5" y="54.4951">importarConvocatoria()</text></g><!--link ImportarConvocatoriaView to ConvocatoriaController--><g class="link" data-entity-1="ent0003" data-entity-2="ent0004" data-link-type="dependency" data-source-line="16" id="lnk9"><path d="M403.33,80.01 C345.73,93.63 276.5,110 276.5,110 C276.5,110 276.5,128 276.5,128 C276.5,128 313.7921,142.5522 348.6921,156.1722" fill="none" id="ImportarConvocatoriaView-to-ConvocatoriaController" style="stroke:#181818;stroke-width:1;"/><polygon fill="#181818" points="353.35,157.99,346.4201,150.9917,348.6921,156.1722,343.5116,158.4443,353.35,157.99" style="stroke:#181818;stroke-width:1;stroke-linejoin:miter;stroke-miterlimit:10;"/><text fill="#000000" font-family="sans-serif" font-size="13" lengthAdjust="spacing" textLength="164.7344" x="277.5" y="124.4951">importarConvocatoria(datos)</text></g><!--link ImportarConvocatoriaView to ConvocatoriaController--><g class="link" data-entity-1="ent0003" data-entity-2="ent0004" data-link-type="dependency" data-source-line="17" id="lnk10"><path d="M470.48,80.03 C460.71,99.58 446.5,128 446.5,128 C446.5,128 434.0785,140.6879 420.7685,154.2779" fill="none" id="ImportarConvocatoriaView-to-ConvocatoriaController-1" style="stroke:#181818;stroke-width:1;"/><polygon fill="#181818" points="417.27,157.85,426.4251,154.219,420.7685,154.2779,420.7097,148.6213,417.27,157.85" style="stroke:#181818;stroke-width:1;stroke-linejoin:miter;stroke-miterlimit:10;"/><text fill="#000000" font-family="sans-serif" font-size="13" lengthAdjust="spacing" textLength="200.1543" x="455.5" y="124.4951">validarConvocatoriaExterna(datos)</text></g><!--link ConvocatoriaController to ConvocatoriaRepository--><g class="link" data-entity-1="ent0004" data-entity-2="ent0005" data-link-type="dependency" data-source-line="18" id="lnk11"><path d="M362.73,196.01 C334.92,209.63 301.5,226 301.5,226 C301.5,226 301.5,244 301.5,244 C301.5,244 335.1043,258.4004 366.8843,272.0204" fill="none" id="ConvocatoriaController-to-ConvocatoriaRepository" style="stroke:#181818;stroke-width:1;"/><polygon fill="#181818" points="371.48,273.99,364.7834,266.7681,366.8843,272.0204,361.632,274.1213,371.48,273.99" style="stroke:#181818;stroke-width:1;stroke-linejoin:miter;stroke-miterlimit:10;"/><text fill="#000000" font-family="sans-serif" font-size="13" lengthAdjust="spacing" textLength="151.0171" x="302.5" y="240.4951">existeConvocatoria(datos)</text></g><!--link ConvocatoriaController to ConvocatoriaRepository--><g class="link" data-entity-1="ent0004" data-entity-2="ent0005" data-link-type="dependency" data-source-line="19" id="lnk12"><path d="M421.81,196.15 C438.51,209.74 458.5,226 458.5,226 C458.5,226 458.5,244 458.5,244 C458.5,244 446.681,256.6136 433.931,270.2036" fill="none" id="ConvocatoriaController-to-ConvocatoriaRepository-1" style="stroke:#181818;stroke-width:1;"/><polygon fill="#181818" points="430.51,273.85,439.585,270.0233,433.931,270.2036,433.7507,264.5496,430.51,273.85" style="stroke:#181818;stroke-width:1;stroke-linejoin:miter;stroke-miterlimit:10;"/><text fill="#000000" font-family="sans-serif" font-size="13" lengthAdjust="spacing" textLength="127.1753" x="459.5" y="240.4951">guardar(convocatoria)</text></g><!--link ConvocatoriaRepository to Convocatoria--><g class="link" data-entity-1="ent0005" data-entity-2="ent0006" data-link-type="association" data-source-line="20" id="lnk13"><path d="M413.5,312.24 C413.5,329.59 413.5,355.52 413.5,372.84" fill="none" id="ConvocatoriaRepository-Convocatoria" style="stroke:#181818;stroke-width:1;"/></g><!--link ImportarConvocatoriaView to EstadoSalida--><g class="link" data-entity-1="ent0003" data-entity-2="ent0007" data-link-type="dependency" data-source-line="21" id="lnk14"><path d="M548.91,80.01 C601.41,93.63 664.5,110 664.5,110 C664.5,110 727.9265,136.4924 774.7165,156.0424" fill="none" id="ImportarConvocatoriaView-to-EstadoSalida" style="stroke:#181818;stroke-width:1;stroke-dasharray:7,7;"/><polygon fill="#181818" points="779.33,157.97,772.5678,150.8095,774.7165,156.0424,769.4836,158.1911,779.33,157.97" style="stroke:#181818;stroke-width:1;stroke-linejoin:miter;stroke-miterlimit:10;"/><text fill="#000000" font-family="sans-serif" font-size="13" lengthAdjust="spacing" textLength="130.7935" x="707.5" y="124.4951">continuarNavegacion()</text></g><?plantuml-src dP6nRi8m48PtFyKfNM200HLKCY2Pr4XPY9GYrkf8hCWYs9RjfaHLtxrEXvBG126ysDRzzztTV_Oef4Q39oY5vAxM7BGgw-P3YE6PGrcK79wYLxQcSmZ2ADdkauZkaZIcxtGTitH70q0Bp3hC5PFEO8v4OtR4WeCuQMKScaZ9IcNeb17Og8E-m6WSm1S1VrgL5xCbsomXxj7l1V-ybX_cXtpn0csPVpkZofARQ_5cHgDdrX6dN2ih_BE-Gqo-7pBf3KlXFIAaunbCp6GrE6S8_OuHCfG1azpp-eqOeEN-jkCRn1l0wdUeJWuxEsxa7xO_yn_qie4G-5bOn_jwV01MVA3n7OwoLhmBkgWzgBlfGK-cqrLdhI5ulXFI5zjYnGlCX9BDddu0?></g></svg>