<svg xmlns="http://www.w3.org/2000/svg" xmlns:xlink="http://www.w3.org/1999/xlink" contentStyleType="text/css" height="1839px" preserveAspectRatio="none" style="width:2505px;height:1839px;background:#FFFFFF;" version="1.1" viewBox="0 0 2505 1839" width="2505px" zoomAndPan="magnify"><title>Diagrama de secuencia - Archivar proyecto</title><defs/><g><text fill="#000000" font-family="sans-serif" font-size="14" font-weight="bold" lengthAdjust="spacing" textLength="287.8955" x="1109.9719" y="29.5332">Diagrama de secuencia - Archivar proyecto</text><rect fill="#FFFFFF" height="1593.625" style="stroke:#181818;stroke-width:1;" width="10" x="405.9482" y="153.5703"/><rect fill="#FFFFFF" height="323.8672" style="stroke:#181818;stroke-width:1;" width="10" x="684.9761" y="200.2734"/><rect fill="#FFFFFF" height="298.5156" style="stroke:#181818;stroke-width:1;" width="10" x="684.9761" y="978.0859"/><rect fill="#FFFFFF" height="55.7031" style="stroke:#181818;stroke-width:1;" width="10" x="1029.1265" y="230.625"/><rect fill="#FFFFFF" height="177.1094" style="stroke:#181818;stroke-width:1;" width="10" x="1148.8364" y="316.6797"/><rect fill="#FFFFFF" height="177.1094" style="stroke:#181818;stroke-width:1;" width="10" x="1148.8364" y="1069.1406"/><rect fill="none" height="1494.5703" style="stroke:#000000;stroke-width:1.5;" width="2488.8394" x="10" y="245.625"/><rect fill="none" height="1173.2188" style="stroke:#000000;stroke-width:1.5;" width="2468.8394" x="20" y="453.0859"/><rect fill="none" height="805.1641" style="stroke:#000000;stroke-width:1.5;" width="2448.8394" x="30" y="814.1406"/><rect fill="none" height="406.7578" style="stroke:#000000;stroke-width:1.5;" width="2428.8394" x="40" y="1205.5469"/><line style="stroke:#181818;stroke-width:0.5;stroke-dasharray:5.0,5.0;" x1="91" x2="91" y1="121.2188" y2="1757.1953"/><line style="stroke:#181818;stroke-width:0.5;stroke-dasharray:5.0,5.0;" x1="410.1865" x2="410.1865" y1="121.2188" y2="1757.1953"/><line style="stroke:#181818;stroke-width:0.5;stroke-dasharray:5.0,5.0;" x1="689.0073" x2="689.0073" y1="121.2188" y2="1757.1953"/><line style="stroke:#181818;stroke-width:0.5;stroke-dasharray:5.0,5.0;" x1="1033.3818" x2="1033.3818" y1="121.2188" y2="1757.1953"/><line style="stroke:#181818;stroke-width:0.5;stroke-dasharray:5.0,5.0;" x1="1152.8711" x2="1152.8711" y1="121.2188" y2="1757.1953"/><line style="stroke:#181818;stroke-width:0.5;stroke-dasharray:5.0,5.0;" x1="1403.229" x2="1403.229" y1="121.2188" y2="1757.1953"/><line style="stroke:#181818;stroke-width:0.5;stroke-dasharray:5.0,5.0;" x1="2409.0054" x2="2409.0054" y1="121.2188" y2="1757.1953"/><text fill="#000000" font-family="sans-serif" font-size="14" lengthAdjust="spacing" textLength="77.0479" x="50" y="118.1426">Coordinador</text><ellipse cx="91.5239" cy="52.1094" fill="#E2E2F0" rx="8" ry="8" style="stroke:#181818;stroke-width:0.5;"/><path d="M91.5239,60.1094 L91.5239,87.1094 M78.5239,68.1094 L104.5239,68.1094 M91.5239,87.1094 L78.5239,102.1094 M91.5239,87.1094 L104.5239,102.1094 " fill="none" style="stroke:#181818;stroke-width:0.5;"/><text fill="#000000" font-family="sans-serif" font-size="14" lengthAdjust="spacing" textLength="77.0479" x="50" y="1770.7285">Coordinador</text><ellipse cx="91.5239" cy="1782.3047" fill="#E2E2F0" rx="8" ry="8" style="stroke:#181818;stroke-width:0.5;"/><path d="M91.5239,1790.3047 L91.5239,1817.3047 M78.5239,1798.3047 L104.5239,1798.3047 M91.5239,1817.3047 L78.5239,1832.3047 M91.5239,1817.3047 L104.5239,1832.3047 " fill="none" style="stroke:#181818;stroke-width:0.5;"/><rect fill="#E2E2F0" height="49.2188" rx="2.5" ry="2.5" style="stroke:#181818;stroke-width:0.5;" width="145.5234" x="338.1865" y="71"/><text fill="#000000" font-family="sans-serif" font-size="14" lengthAdjust="spacing" textLength="131.5234" x="345.1865" y="92.5332">ProyectoDetallePage</text><text fill="#000000" font-family="sans-serif" font-size="14" lengthAdjust="spacing" textLength="45.8965" x="388" y="110.1426">(React)</text><rect fill="#E2E2F0" height="49.2188" rx="2.5" ry="2.5" style="stroke:#181818;stroke-width:0.5;" width="145.5234" x="338.1865" y="1756.1953"/><text fill="#000000" font-family="sans-serif" font-size="14" lengthAdjust="spacing" textLength="131.5234" x="345.1865" y="1777.7285">ProyectoDetallePage</text><text fill="#000000" font-family="sans-serif" font-size="14" lengthAdjust="spacing" textLength="45.8965" x="388" y="1795.3379">(React)</text><rect fill="#E2E2F0" height="49.2188" rx="2.5" ry="2.5" style="stroke:#181818;stroke-width:0.5;" width="129.9375" x="625.0073" y="71"/><text fill="#000000" font-family="sans-serif" font-size="14" lengthAdjust="spacing" textLength="115.9375" x="632.0073" y="92.5332">ProyectoController</text><text fill="#000000" font-family="sans-serif" font-size="14" lengthAdjust="spacing" textLength="82.4824" x="648.7349" y="110.1426">(Spring Boot)</text><rect fill="#E2E2F0" height="49.2188" rx="2.5" ry="2.5" style="stroke:#181818;stroke-width:0.5;" width="129.9375" x="625.0073" y="1756.1953"/><text fill="#000000" font-family="sans-serif" font-size="14" lengthAdjust="spacing" textLength="115.9375" x="632.0073" y="1777.7285">ProyectoController</text><text fill="#000000" font-family="sans-serif" font-size="14" lengthAdjust="spacing" textLength="82.4824" x="648.7349" y="1795.3379">(Spring Boot)</text><rect fill="#E2E2F0" height="31.6094" rx="2.5" ry="2.5" style="stroke:#181818;stroke-width:0.5;" width="103.4893" x="982.3818" y="88.6094"/><text fill="#000000" font-family="sans-serif" font-size="14" lengthAdjust="spacing" textLength="89.4893" x="989.3818" y="110.1426">SesionService</text><rect fill="#E2E2F0" height="31.6094" rx="2.5" ry="2.5" style="stroke:#181818;stroke-width:0.5;" width="103.4893" x="982.3818" y="1756.1953"/><text fill="#000000" font-family="sans-serif" font-size="14" lengthAdjust="spacing" textLength="89.4893" x="989.3818" y="1777.7285">SesionService</text><rect fill="#E2E2F0" height="31.6094" rx="2.5" ry="2.5" style="stroke:#181818;stroke-width:0.5;" width="115.9307" x="1095.8711" y="88.6094"/><text fill="#000000" font-family="sans-serif" font-size="14" lengthAdjust="spacing" textLength="101.9307" x="1102.8711" y="110.1426">ProyectoService</text><rect fill="#E2E2F0" height="31.6094" rx="2.5" ry="2.5" style="stroke:#181818;stroke-width:0.5;" width="115.9307" x="1095.8711" y="1756.1953"/><text fill="#000000" font-family="sans-serif" font-size="14" lengthAdjust="spacing" textLength="101.9307" x="1102.8711" y="1777.7285">ProyectoService</text><rect fill="#E2E2F0" height="31.6094" rx="2.5" ry="2.5" style="stroke:#181818;stroke-width:0.5;" width="136.165" x="1335.229" y="88.6094"/><text fill="#000000" font-family="sans-serif" font-size="14" lengthAdjust="spacing" textLength="122.165" x="1342.229" y="110.1426">ProyectoRepository</text><rect fill="#E2E2F0" height="31.6094" rx="2.5" ry="2.5" style="stroke:#181818;stroke-width:0.5;" width="136.165" x="1335.229" y="1756.1953"/><text fill="#000000" font-family="sans-serif" font-size="14" lengthAdjust="spacing" textLength="122.165" x="1342.229" y="1777.7285">ProyectoRepository</text><text fill="#000000" font-family="sans-serif" font-size="14" lengthAdjust="spacing" textLength="91.834" x="2361.0054" y="118.1426">Base de Datos</text><path d="M2391.9224,67.6094 C2391.9224,57.6094 2409.9224,57.6094 2409.9224,57.6094 C2409.9224,57.6094 2427.9224,57.6094 2427.9224,67.6094 L2427.9224,93.6094 C2427.9224,103.6094 2409.9224,103.6094 2409.9224,103.6094 C2409.9224,103.6094 2391.9224,103.6094 2391.9224,93.6094 L2391.9224,67.6094 " fill="#E2E2F0" style="stroke:#181818;stroke-width:1.5;"/><path d="M2391.9224,67.6094 C2391.9224,77.6094 2409.9224,77.6094 2409.9224,77.6094 C2409.9224,77.6094 2427.9224,77.6094 2427.9224,67.6094 " fill="none" style="stroke:#181818;stroke-width:1.5;"/><text fill="#000000" font-family="sans-serif" font-size="14" lengthAdjust="spacing" textLength="91.834" x="2361.0054" y="1770.7285">Base de Datos</text><path d="M2391.9224,1783.8047 C2391.9224,1773.8047 2409.9224,1773.8047 2409.9224,1773.8047 C2409.9224,1773.8047 2427.9224,1773.8047 2427.9224,1783.8047 L2427.9224,1809.8047 C2427.9224,1819.8047 2409.9224,1819.8047 2409.9224,1819.8047 C2409.9224,1819.8047 2391.9224,1819.8047 2391.9224,1809.8047 L2391.9224,1783.8047 " fill="#E2E2F0" style="stroke:#181818;stroke-width:1.5;"/><path d="M2391.9224,1783.8047 C2391.9224,1793.8047 2409.9224,1793.8047 2409.9224,1793.8047 C2409.9224,1793.8047 2427.9224,1793.8047 2427.9224,1783.8047 " fill="none" style="stroke:#181818;stroke-width:1.5;"/><rect fill="#FFFFFF" height="1593.625" style="stroke:#181818;stroke-width:1;" width="10" x="405.9482" y="153.5703"/><rect fill="#FFFFFF" height="323.8672" style="stroke:#181818;stroke-width:1;" width="10" x="684.9761" y="200.2734"/><rect fill="#FFFFFF" height="298.5156" style="stroke:#181818;stroke-width:1;" width="10" x="684.9761" y="978.0859"/><rect fill="#FFFFFF" height="55.7031" style="stroke:#181818;stroke-width:1;" width="10" x="1029.1265" y="230.625"/><rect fill="#FFFFFF" height="177.1094" style="stroke:#181818;stroke-width:1;" width="10" x="1148.8364" y="316.6797"/><rect fill="#FFFFFF" height="177.1094" style="stroke:#181818;stroke-width:1;" width="10" x="1148.8364" y="1069.1406"/><polygon fill="#181818" points="393.9482,149.5703,403.9482,153.5703,393.9482,157.5703,397.9482,153.5703" style="stroke:#181818;stroke-width:1;"/><line style="stroke:#181818;stroke-width:1;" x1="91.5239" x2="399.9482" y1="153.5703" y2="153.5703"/><text fill="#000000" font-family="sans-serif" font-size="13" lengthAdjust="spacing" textLength="145.228" x="98.5239" y="148.7139">Solicita archivar proyecto</text><polygon fill="#181818" points="672.9761,196.2734,682.9761,200.2734,672.9761,204.2734,676.9761,200.2734" style="stroke:#181818;stroke-width:1;"/><line style="stroke:#181818;stroke-width:1;" x1="415.9482" x2="678.9761" y1="200.2734" y2="200.2734"/><text fill="#000000" font-family="sans-serif" font-size="13" lengthAdjust="spacing" textLength="250.0278" x="422.9482" y="179.0654">GET /api/proyectos/{id}/opciones-archivado</text><text fill="#000000" font-family="sans-serif" font-size="13" lengthAdjust="spacing" textLength="99.728" x="422.9482" y="195.417">Cookie de sesion</text><polygon fill="#181818" points="1017.1265,226.625,1027.1265,230.625,1017.1265,234.625,1021.1265,230.625" style="stroke:#181818;stroke-width:1;"/><line style="stroke:#181818;stroke-width:1;" x1="694.9761" x2="1023.1265" y1="230.625" y2="230.625"/><text fill="#000000" font-family="sans-serif" font-size="13" lengthAdjust="spacing" textLength="209.5806" x="701.9761" y="225.7686">obtenerSesionActual(authentication)</text><path d="M10,245.625 L70.1709,245.625 L70.1709,253.9766 L60.1709,263.9766 L10,263.9766 L10,245.625 " fill="#EEEEEE" style="stroke:#000000;stroke-width:1.5;"/><rect fill="none" height="1494.5703" style="stroke:#000000;stroke-width:1.5;" width="2488.8394" x="10" y="245.625"/><text fill="#000000" font-family="sans-serif" font-size="13" font-weight="bold" lengthAdjust="spacing" textLength="15.1709" x="25" y="260.1201">alt</text><text fill="#000000" font-family="sans-serif" font-size="11" font-weight="bold" lengthAdjust="spacing" textLength="162.583" x="85.1709" y="259.0439">[Sesion de Coordinador activa]</text><polygon fill="#181818" points="705.9761,282.3281,695.9761,286.3281,705.9761,290.3281,701.9761,286.3281" style="stroke:#181818;stroke-width:1;"/><line style="stroke:#181818;stroke-width:1;stroke-dasharray:2.0,2.0;" x1="699.9761" x2="1033.1265" y1="286.3281" y2="286.3281"/><text fill="#000000" font-family="sans-serif" font-size="13" lengthAdjust="spacing" textLength="142.3779" x="711.9761" y="281.4717">Coordinador autenticado</text><polygon fill="#181818" points="1136.8364,312.6797,1146.8364,316.6797,1136.8364,320.6797,1140.8364,316.6797" style="stroke:#181818;stroke-width:1;"/><line style="stroke:#181818;stroke-width:1;" x1="694.9761" x2="1142.8364" y1="316.6797" y2="316.6797"/><text fill="#000000" font-family="sans-serif" font-size="13" lengthAdjust="spacing" textLength="65.0127" x="701.9761" y="311.8232">archivar(id)</text><polygon fill="#181818" points="1391.3115,343.0313,1401.3115,347.0313,1391.3115,351.0313,1395.3115,347.0313" style="stroke:#181818;stroke-width:1;"/><line style="stroke:#181818;stroke-width:1;" x1="1158.8364" x2="1397.3115" y1="347.0313" y2="347.0313"/><text fill="#000000" font-family="sans-serif" font-size="13" lengthAdjust="spacing" textLength="65.749" x="1165.8364" y="342.1748">findById(id)</text><polygon fill="#181818" points="2397.9224,373.3828,2407.9224,377.3828,2397.9224,381.3828,2401.9224,377.3828" style="stroke:#181818;stroke-width:1;"/><line style="stroke:#181818;stroke-width:1;" x1="1403.3115" x2="2403.9224" y1="377.3828" y2="377.3828"/><text fill="#000000" font-family="sans-serif" font-size="13" lengthAdjust="spacing" textLength="382.186" x="1410.3115" y="372.5264">SELECT * FROM proyectos WHERE id = ? AND archivado = false</text><polygon fill="#181818" points="1414.3115,403.7344,1404.3115,407.7344,1414.3115,411.7344,1410.3115,407.7344" style="stroke:#181818;stroke-width:1;"/><line style="stroke:#181818;stroke-width:1;stroke-dasharray:2.0,2.0;" x1="1408.3115" x2="2408.9224" y1="407.7344" y2="407.7344"/><text fill="#000000" font-family="sans-serif" font-size="13" lengthAdjust="spacing" textLength="149.5889" x="1420.3115" y="402.8779">Resultado de persistencia</text><polygon fill="#181818" points="1169.8364,434.0859,1159.8364,438.0859,1169.8364,442.0859,1165.8364,438.0859" style="stroke:#181818;stroke-width:1;"/><line style="stroke:#181818;stroke-width:1;stroke-dasharray:2.0,2.0;" x1="1163.8364" x2="1402.3115" y1="438.0859" y2="438.0859"/><text fill="#000000" font-family="sans-serif" font-size="13" lengthAdjust="spacing" textLength="92.4854" x="1175.8364" y="433.2295">Proyecto / vacio</text><path d="M20,453.0859 L80.1709,453.0859 L80.1709,461.4375 L70.1709,471.4375 L20,471.4375 L20,453.0859 " fill="#EEEEEE" style="stroke:#000000;stroke-width:1.5;"/><rect fill="none" height="1173.2188" style="stroke:#000000;stroke-width:1.5;" width="2468.8394" x="20" y="453.0859"/><text fill="#000000" font-family="sans-serif" font-size="13" font-weight="bold" lengthAdjust="spacing" textLength="15.1709" x="35" y="467.5811">alt</text><text fill="#000000" font-family="sans-serif" font-size="11" font-weight="bold" lengthAdjust="spacing" textLength="195.0083" x="95.1709" y="466.5049">[Proyecto inexistente o ya archivado]</text><polygon fill="#181818" points="705.9761,489.7891,695.9761,493.7891,705.9761,497.7891,701.9761,493.7891" style="stroke:#181818;stroke-width:1;"/><line style="stroke:#181818;stroke-width:1;stroke-dasharray:2.0,2.0;" x1="699.9761" x2="1152.8364" y1="493.7891" y2="493.7891"/><text fill="#000000" font-family="sans-serif" font-size="13" lengthAdjust="spacing" textLength="307.1123" x="711.9761" y="488.9326">RecursoNoEncontradoException / ConflictoException</text><polygon fill="#181818" points="426.9482,520.1406,416.9482,524.1406,426.9482,528.1406,422.9482,524.1406" style="stroke:#181818;stroke-width:1;"/><line style="stroke:#181818;stroke-width:1;stroke-dasharray:2.0,2.0;" x1="420.9482" x2="688.9761" y1="524.1406" y2="524.1406"/><text fill="#000000" font-family="sans-serif" font-size="13" lengthAdjust="spacing" textLength="165.4897" x="432.9482" y="519.2842">404 Not Found / 409 Conflict</text><polygon fill="#181818" points="102.5239,550.4922,92.5239,554.4922,102.5239,558.4922,98.5239,554.4922" style="stroke:#181818;stroke-width:1;"/><line style="stroke:#181818;stroke-width:1;stroke-dasharray:2.0,2.0;" x1="96.5239" x2="404.9482" y1="554.4922" y2="554.4922"/><text fill="#000000" font-family="sans-serif" font-size="13" lengthAdjust="spacing" textLength="290.4243" x="108.5239" y="549.6357">Presenta error y conserva PROYECTO_ABIERTO</text><line style="stroke:#000000;stroke-width:1;stroke-dasharray:2.0,2.0;" x1="20" x2="2488.8394" y1="563.4922" y2="563.4922"/><text fill="#000000" font-family="sans-serif" font-size="11" font-weight="bold" lengthAdjust="spacing" textLength="89.2461" x="25" y="574.9111">[Proyecto activo]</text><polygon fill="#181818" points="1391.3115,596.6797,1401.3115,600.6797,1391.3115,604.6797,1395.3115,600.6797" style="stroke:#181818;stroke-width:1;"/><line style="stroke:#181818;stroke-width:1;" x1="1153.8364" x2="1397.3115" y1="600.6797" y2="600.6797"/><text fill="#000000" font-family="sans-serif" font-size="13" lengthAdjust="spacing" textLength="65.749" x="1160.8364" y="595.8232">findById(id)</text><polygon fill="#181818" points="2397.9224,627.0313,2407.9224,631.0313,2397.9224,635.0313,2401.9224,631.0313" style="stroke:#181818;stroke-width:1;"/><line style="stroke:#181818;stroke-width:1;" x1="1403.3115" x2="2403.9224" y1="631.0313" y2="631.0313"/><text fill="#000000" font-family="sans-serif" font-size="13" lengthAdjust="spacing" textLength="982.6108" x="1410.3115" y="626.1748">SELECT p.*, COUNT(pi.usuario_id) AS participantes FROM proyectos p LEFT JOIN proyecto_investigadores pi ON pi.proyecto_id = p.id WHERE p.id = ? GROUP BY p.id</text><polygon fill="#181818" points="1414.3115,657.3828,1404.3115,661.3828,1414.3115,665.3828,1410.3115,661.3828" style="stroke:#181818;stroke-width:1;"/><line style="stroke:#181818;stroke-width:1;stroke-dasharray:2.0,2.0;" x1="1408.3115" x2="2408.9224" y1="661.3828" y2="661.3828"/><text fill="#000000" font-family="sans-serif" font-size="13" lengthAdjust="spacing" textLength="149.5889" x="1420.3115" y="656.5264">Resultado de persistencia</text><polygon fill="#181818" points="1164.8364,687.7344,1154.8364,691.7344,1164.8364,695.7344,1160.8364,691.7344" style="stroke:#181818;stroke-width:1;"/><line style="stroke:#181818;stroke-width:1;stroke-dasharray:2.0,2.0;" x1="1158.8364" x2="1402.3115" y1="691.7344" y2="691.7344"/><text fill="#000000" font-family="sans-serif" font-size="13" lengthAdjust="spacing" textLength="225.4751" x="1170.8364" y="686.8779">Estado, equipo y elementos vinculados</text><polygon fill="#181818" points="700.9761,718.0859,690.9761,722.0859,700.9761,726.0859,696.9761,722.0859" style="stroke:#181818;stroke-width:1;"/><line style="stroke:#181818;stroke-width:1;stroke-dasharray:2.0,2.0;" x1="694.9761" x2="1152.8364" y1="722.0859" y2="722.0859"/><text fill="#000000" font-family="sans-serif" font-size="13" lengthAdjust="spacing" textLength="222.5679" x="706.9761" y="717.2295">OpcionesArchivadoProyectoResponse</text><polygon fill="#181818" points="426.9482,764.7891,416.9482,768.7891,426.9482,772.7891,422.9482,768.7891" style="stroke:#181818;stroke-width:1;"/><line style="stroke:#181818;stroke-width:1;stroke-dasharray:2.0,2.0;" x1="420.9482" x2="688.9761" y1="768.7891" y2="768.7891"/><text fill="#000000" font-family="sans-serif" font-size="13" lengthAdjust="spacing" textLength="44.0845" x="432.9482" y="747.5811">200 OK</text><text fill="#000000" font-family="sans-serif" font-size="13" lengthAdjust="spacing" textLength="169.8252" x="432.9482" y="763.9326">Consecuencias del archivado</text><polygon fill="#181818" points="102.5239,795.1406,92.5239,799.1406,102.5239,803.1406,98.5239,799.1406" style="stroke:#181818;stroke-width:1;"/><line style="stroke:#181818;stroke-width:1;stroke-dasharray:2.0,2.0;" x1="96.5239" x2="404.9482" y1="799.1406" y2="799.1406"/><text fill="#000000" font-family="sans-serif" font-size="13" lengthAdjust="spacing" textLength="224.7007" x="108.5239" y="794.2842">Presenta confirmacion y solicita motivo</text><path d="M30,814.1406 L90.1709,814.1406 L90.1709,822.4922 L80.1709,832.4922 L30,832.4922 L30,814.1406 " fill="#EEEEEE" style="stroke:#000000;stroke-width:1.5;"/><rect fill="none" height="805.1641" style="stroke:#000000;stroke-width:1.5;" width="2448.8394" x="30" y="814.1406"/><text fill="#000000" font-family="sans-serif" font-size="13" font-weight="bold" lengthAdjust="spacing" textLength="15.1709" x="45" y="828.6357">alt</text><text fill="#000000" font-family="sans-serif" font-size="11" font-weight="bold" lengthAdjust="spacing" textLength="116.7407" x="105.1709" y="827.5596">[Coordinador cancela]</text><polygon fill="#181818" points="393.9482,850.8438,403.9482,854.8438,393.9482,858.8438,397.9482,854.8438" style="stroke:#181818;stroke-width:1;"/><line style="stroke:#181818;stroke-width:1;" x1="91.5239" x2="399.9482" y1="854.8438" y2="854.8438"/><text fill="#000000" font-family="sans-serif" font-size="13" lengthAdjust="spacing" textLength="107.6753" x="98.5239" y="849.9873">Cancela archivado</text><polygon fill="#181818" points="102.5239,881.1953,92.5239,885.1953,102.5239,889.1953,98.5239,885.1953" style="stroke:#181818;stroke-width:1;"/><line style="stroke:#181818;stroke-width:1;stroke-dasharray:2.0,2.0;" x1="96.5239" x2="404.9482" y1="885.1953" y2="885.1953"/><text fill="#000000" font-family="sans-serif" font-size="13" lengthAdjust="spacing" textLength="196.498" x="108.5239" y="880.3389">Conserva PROYECTO_ABIERTO</text><line style="stroke:#000000;stroke-width:1;stroke-dasharray:2.0,2.0;" x1="30" x2="2478.8394" y1="894.1953" y2="894.1953"/><text fill="#000000" font-family="sans-serif" font-size="11" font-weight="bold" lengthAdjust="spacing" textLength="122.8315" x="35" y="905.6143">[Coordinador confirma]</text><polygon fill="#181818" points="393.9482,927.3828,403.9482,931.3828,393.9482,935.3828,397.9482,931.3828" style="stroke:#181818;stroke-width:1;"/><line style="stroke:#181818;stroke-width:1;" x1="91.5239" x2="399.9482" y1="931.3828" y2="931.3828"/><text fill="#000000" font-family="sans-serif" font-size="13" lengthAdjust="spacing" textLength="179.188" x="98.5239" y="926.5264">Confirma archivado con motivo</text><polygon fill="#181818" points="672.9761,974.0859,682.9761,978.0859,672.9761,982.0859,676.9761,978.0859" style="stroke:#181818;stroke-width:1;"/><line style="stroke:#181818;stroke-width:1;" x1="415.9482" x2="678.9761" y1="978.0859" y2="978.0859"/><text fill="#000000" font-family="sans-serif" font-size="13" lengthAdjust="spacing" textLength="210.9961" x="422.9482" y="956.8779">PATCH /api/proyectos/{id}/archivado</text><text fill="#000000" font-family="sans-serif" font-size="13" lengthAdjust="spacing" textLength="209.9233" x="422.9482" y="973.2295">ProyectoArchivadoRequest + cookie</text><polygon fill="#181818" points="1022.1265,1004.4375,1032.1265,1008.4375,1022.1265,1012.4375,1026.1265,1008.4375" style="stroke:#181818;stroke-width:1;"/><line style="stroke:#181818;stroke-width:1;" x1="694.9761" x2="1028.1265" y1="1008.4375" y2="1008.4375"/><text fill="#000000" font-family="sans-serif" font-size="13" lengthAdjust="spacing" textLength="209.5806" x="701.9761" y="1003.5811">obtenerSesionActual(authentication)</text><polygon fill="#181818" points="705.9761,1034.7891,695.9761,1038.7891,705.9761,1042.7891,701.9761,1038.7891" style="stroke:#181818;stroke-width:1;"/><line style="stroke:#181818;stroke-width:1;stroke-dasharray:2.0,2.0;" x1="699.9761" x2="1033.1265" y1="1038.7891" y2="1038.7891"/><text fill="#000000" font-family="sans-serif" font-size="13" lengthAdjust="spacing" textLength="142.3779" x="711.9761" y="1033.9326">Coordinador autenticado</text><polygon fill="#181818" points="1136.8364,1065.1406,1146.8364,1069.1406,1136.8364,1073.1406,1140.8364,1069.1406" style="stroke:#181818;stroke-width:1;"/><line style="stroke:#181818;stroke-width:1;" x1="694.9761" x2="1142.8364" y1="1069.1406" y2="1069.1406"/><text fill="#000000" font-family="sans-serif" font-size="13" lengthAdjust="spacing" textLength="186.4053" x="701.9761" y="1064.2842">archivar(id, motivo, coordinador)</text><polygon fill="#181818" points="1391.3115,1095.4922,1401.3115,1099.4922,1391.3115,1103.4922,1395.3115,1099.4922" style="stroke:#181818;stroke-width:1;"/><line style="stroke:#181818;stroke-width:1;" x1="1158.8364" x2="1397.3115" y1="1099.4922" y2="1099.4922"/><text fill="#000000" font-family="sans-serif" font-size="13" lengthAdjust="spacing" textLength="65.749" x="1165.8364" y="1094.6357">findById(id)</text><polygon fill="#181818" points="2397.9224,1125.8438,2407.9224,1129.8438,2397.9224,1133.8438,2401.9224,1129.8438" style="stroke:#181818;stroke-width:1;"/><line style="stroke:#181818;stroke-width:1;" x1="1403.3115" x2="2403.9224" y1="1129.8438" y2="1129.8438"/><text fill="#000000" font-family="sans-serif" font-size="13" lengthAdjust="spacing" textLength="382.186" x="1410.3115" y="1124.9873">SELECT * FROM proyectos WHERE id = ? AND archivado = false</text><polygon fill="#181818" points="1414.3115,1156.1953,1404.3115,1160.1953,1414.3115,1164.1953,1410.3115,1160.1953" style="stroke:#181818;stroke-width:1;"/><line style="stroke:#181818;stroke-width:1;stroke-dasharray:2.0,2.0;" x1="1408.3115" x2="2408.9224" y1="1160.1953" y2="1160.1953"/><text fill="#000000" font-family="sans-serif" font-size="13" lengthAdjust="spacing" textLength="149.5889" x="1420.3115" y="1155.3389">Resultado de persistencia</text><polygon fill="#181818" points="1169.8364,1186.5469,1159.8364,1190.5469,1169.8364,1194.5469,1165.8364,1190.5469" style="stroke:#181818;stroke-width:1;"/><line style="stroke:#181818;stroke-width:1;stroke-dasharray:2.0,2.0;" x1="1163.8364" x2="1402.3115" y1="1190.5469" y2="1190.5469"/><text fill="#000000" font-family="sans-serif" font-size="13" lengthAdjust="spacing" textLength="92.4854" x="1175.8364" y="1185.6904">Proyecto / vacio</text><path d="M40,1205.5469 L100.1709,1205.5469 L100.1709,1213.8984 L90.1709,1223.8984 L40,1223.8984 L40,1205.5469 " fill="#EEEEEE" style="stroke:#000000;stroke-width:1.5;"/><rect fill="none" height="406.7578" style="stroke:#000000;stroke-width:1.5;" width="2428.8394" x="40" y="1205.5469"/><text fill="#000000" font-family="sans-serif" font-size="13" font-weight="bold" lengthAdjust="spacing" textLength="15.1709" x="55" y="1220.042">alt</text><text fill="#000000" font-family="sans-serif" font-size="11" font-weight="bold" lengthAdjust="spacing" textLength="307.4629" x="115.1709" y="1218.9658">[Proyecto inexistente o archivado durante la confirmacion]</text><polygon fill="#181818" points="705.9761,1242.25,695.9761,1246.25,705.9761,1250.25,701.9761,1246.25" style="stroke:#181818;stroke-width:1;"/><line style="stroke:#181818;stroke-width:1;stroke-dasharray:2.0,2.0;" x1="699.9761" x2="1152.8364" y1="1246.25" y2="1246.25"/><text fill="#000000" font-family="sans-serif" font-size="13" lengthAdjust="spacing" textLength="307.1123" x="711.9761" y="1241.3936">RecursoNoEncontradoException / ConflictoException</text><polygon fill="#181818" points="426.9482,1272.6016,416.9482,1276.6016,426.9482,1280.6016,422.9482,1276.6016" style="stroke:#181818;stroke-width:1;"/><line style="stroke:#181818;stroke-width:1;stroke-dasharray:2.0,2.0;" x1="420.9482" x2="688.9761" y1="1276.6016" y2="1276.6016"/><text fill="#000000" font-family="sans-serif" font-size="13" lengthAdjust="spacing" textLength="165.4897" x="432.9482" y="1271.7451">404 Not Found / 409 Conflict</text><polygon fill="#181818" points="102.5239,1302.9531,92.5239,1306.9531,102.5239,1310.9531,98.5239,1306.9531" style="stroke:#181818;stroke-width:1;"/><line style="stroke:#181818;stroke-width:1;stroke-dasharray:2.0,2.0;" x1="96.5239" x2="404.9482" y1="1306.9531" y2="1306.9531"/><text fill="#000000" font-family="sans-serif" font-size="13" lengthAdjust="spacing" textLength="103.3335" x="108.5239" y="1302.0967">Presenta conflicto</text><line style="stroke:#000000;stroke-width:1;stroke-dasharray:2.0,2.0;" x1="40" x2="2468.8394" y1="1315.9531" y2="1315.9531"/><text fill="#000000" font-family="sans-serif" font-size="11" font-weight="bold" lengthAdjust="spacing" textLength="89.2461" x="45" y="1327.3721">[Proyecto activo]</text><polygon fill="#181818" points="1391.3115,1349.1406,1401.3115,1353.1406,1391.3115,1357.1406,1395.3115,1353.1406" style="stroke:#181818;stroke-width:1;"/><line style="stroke:#181818;stroke-width:1;" x1="1153.8364" x2="1397.3115" y1="1353.1406" y2="1353.1406"/><text fill="#000000" font-family="sans-serif" font-size="13" lengthAdjust="spacing" textLength="206.6543" x="1160.8364" y="1348.2842">save(id, fecha, coordinador, motivo)</text><polygon fill="#181818" points="2397.9224,1379.4922,2407.9224,1383.4922,2397.9224,1387.4922,2401.9224,1383.4922" style="stroke:#181818;stroke-width:1;"/><line style="stroke:#181818;stroke-width:1;" x1="1403.3115" x2="2403.9224" y1="1383.4922" y2="1383.4922"/><text fill="#000000" font-family="sans-serif" font-size="13" lengthAdjust="spacing" textLength="868.4419" x="1410.3115" y="1378.6357">UPDATE proyectos SET archivado = true, estado = 'COMPLETADO', fecha_archivado = ?, archivado_por_id = ?, motivo_archivado = ? WHERE id = ?</text><polygon fill="#181818" points="1414.3115,1409.8438,1404.3115,1413.8438,1414.3115,1417.8438,1410.3115,1413.8438" style="stroke:#181818;stroke-width:1;"/><line style="stroke:#181818;stroke-width:1;stroke-dasharray:2.0,2.0;" x1="1408.3115" x2="2408.9224" y1="1413.8438" y2="1413.8438"/><text fill="#000000" font-family="sans-serif" font-size="13" lengthAdjust="spacing" textLength="149.5889" x="1420.3115" y="1408.9873">Resultado de persistencia</text><polygon fill="#181818" points="1164.8364,1440.1953,1154.8364,1444.1953,1164.8364,1448.1953,1160.8364,1444.1953" style="stroke:#181818;stroke-width:1;"/><line style="stroke:#181818;stroke-width:1;stroke-dasharray:2.0,2.0;" x1="1158.8364" x2="1402.3115" y1="1444.1953" y2="1444.1953"/><text fill="#000000" font-family="sans-serif" font-size="13" lengthAdjust="spacing" textLength="111.2808" x="1170.8364" y="1439.3389">Proyecto archivado</text><path d="M1158,1457.1953 L1158,1499.1953 L1351,1499.1953 L1351,1467.1953 L1341,1457.1953 L1158,1457.1953 " fill="#FEFFDD" style="stroke:#181818;stroke-width:0.5;"/><path d="M1341,1457.1953 L1341,1467.1953 L1351,1467.1953 L1341,1457.1953 " fill="#FEFFDD" style="stroke:#181818;stroke-width:0.5;"/><text fill="#000000" font-family="sans-serif" font-size="13" lengthAdjust="spacing" textLength="172.0088" x="1164" y="1475.6904">Se conservan estado, equipo,</text><text fill="#000000" font-family="sans-serif" font-size="13" lengthAdjust="spacing" textLength="163.3125" x="1164" y="1492.042">entregables y recompensas.</text><polygon fill="#181818" points="700.9761,1523.25,690.9761,1527.25,700.9761,1531.25,696.9761,1527.25" style="stroke:#181818;stroke-width:1;"/><line style="stroke:#181818;stroke-width:1;stroke-dasharray:2.0,2.0;" x1="694.9761" x2="1152.8364" y1="1527.25" y2="1527.25"/><text fill="#000000" font-family="sans-serif" font-size="13" lengthAdjust="spacing" textLength="167.6479" x="706.9761" y="1522.3936">ProyectoArchivadoResponse</text><polygon fill="#181818" points="426.9482,1569.9531,416.9482,1573.9531,426.9482,1577.9531,422.9482,1573.9531" style="stroke:#181818;stroke-width:1;"/><line style="stroke:#181818;stroke-width:1;stroke-dasharray:2.0,2.0;" x1="420.9482" x2="688.9761" y1="1573.9531" y2="1573.9531"/><text fill="#000000" font-family="sans-serif" font-size="13" lengthAdjust="spacing" textLength="44.0845" x="432.9482" y="1552.7451">200 OK</text><text fill="#000000" font-family="sans-serif" font-size="13" lengthAdjust="spacing" textLength="111.2808" x="432.9482" y="1569.0967">Proyecto archivado</text><polygon fill="#181818" points="102.5239,1600.3047,92.5239,1604.3047,102.5239,1608.3047,98.5239,1604.3047" style="stroke:#181818;stroke-width:1;"/><line style="stroke:#181818;stroke-width:1;stroke-dasharray:2.0,2.0;" x1="96.5239" x2="404.9482" y1="1604.3047" y2="1604.3047"/><text fill="#000000" font-family="sans-serif" font-size="13" lengthAdjust="spacing" textLength="210.2344" x="108.5239" y="1599.4482">Presenta PROYECTOS_ABIERTOS</text><line style="stroke:#000000;stroke-width:1;stroke-dasharray:2.0,2.0;" x1="10" x2="2498.8394" y1="1634.3047" y2="1634.3047"/><text fill="#000000" font-family="sans-serif" font-size="11" font-weight="bold" lengthAdjust="spacing" textLength="159.5269" x="15" y="1645.7236">[Sesion ausente o rol invalido]</text><polygon fill="#181818" points="700.9761,1667.4922,690.9761,1671.4922,700.9761,1675.4922,696.9761,1671.4922" style="stroke:#181818;stroke-width:1;"/><line style="stroke:#181818;stroke-width:1;stroke-dasharray:2.0,2.0;" x1="694.9761" x2="1033.1265" y1="1671.4922" y2="1671.4922"/><text fill="#000000" font-family="sans-serif" font-size="13" lengthAdjust="spacing" textLength="320.1504" x="706.9761" y="1666.6357">SesionNoValidaException / AccesoDenegadoException</text><polygon fill="#181818" points="426.9482,1697.8438,416.9482,1701.8438,426.9482,1705.8438,422.9482,1701.8438" style="stroke:#181818;stroke-width:1;"/><line style="stroke:#181818;stroke-width:1;stroke-dasharray:2.0,2.0;" x1="420.9482" x2="688.9761" y1="1701.8438" y2="1701.8438"/><text fill="#000000" font-family="sans-serif" font-size="13" lengthAdjust="spacing" textLength="197.3042" x="432.9482" y="1696.9873">401 Unauthorized / 403 Forbidden</text><polygon fill="#181818" points="102.5239,1728.1953,92.5239,1732.1953,102.5239,1736.1953,98.5239,1732.1953" style="stroke:#181818;stroke-width:1;"/><line style="stroke:#181818;stroke-width:1;stroke-dasharray:2.0,2.0;" x1="96.5239" x2="404.9482" y1="1732.1953" y2="1732.1953"/><text fill="#000000" font-family="sans-serif" font-size="13" lengthAdjust="spacing" textLength="145.9644" x="108.5239" y="1727.3389">Presenta error de acceso</text><!--SRC=[hLTjR-964FxEhnZbouKhWRIzBqLg8mFENQuvZ82qEkcaQ6CFP5LdrzrTewEd- - -TNR-3IKXobW1xTrwVUNR666vYX0bdQyKU64G86iCKHSWPd86dmdk-OGeI9RSO6jdfCFfMC9PIHLomIAfEmfJX8K-OC70oomKdQ5WSuuojyOiudIEfTK-0QRXKKXWKKRlQc3QL94L5Mej4SR66aPIvhfVmfje2DPTYWMh3GtGYsKgxyQQSksyNd6CYDQSyjqxMFdOYPjWTqmWd8_jDG4sOaTe9J4QTJWqHEFkZJ7C82ncJ0yE0xO59eD22mGgKuiQQe6o7yDvVme0bV50ewS4t7dqVo2IaF56VvLOZ-KLG2Fzmp6heK2ZjM-3eOwrc00r1tf4VLDcZ5vgKnQSiDVSe20zcQB5RwUUeijZajzP9FUDCiWDqvG9dHGODiTHazYFfP2FSTM5NoqXTYOObSASywZg1cb9MnSolkxUQjc13M74HZRPNKQbcb-tsP4HLyQ_zyHBUmkKy-5HMHCFV7_ov3po2t-42lEa4IdnfPSLYdJcRZ5o2cQCvwZGsLeHGIL1fheqxGJMlzNmAci40DepAcEL4s9ORNE1NPuHobB1bLHHEjf5kWVESpgtISYfz4TfJHCB-rn0JMqhoH2ThHKGqrM9fgb652j2o50qwlpj_1rDfu5AcHDC1FVzMscwpQAbNB5Vi9fCrNbX8K5Es350fuiaMA0LDiJ2OpOFFLAdWrXjT-VDbu8mXrQ52o_bgGUOW4GwG8Uc_xS4uk9akJnFUJtNA59Utf0JU0cgD0lKkQnAuzY-Ny36ucfQhjrniK1k-jXcI2Y4Pq2xlLmAMPKcVVZBMkLlBk_Vpu6O6eyzkfOpu6PnhvvslhK8FyD-KqzwMOCG7GfqIs70HfZ7jwiC42_AMunLShDgbJcovNaQeNyxF8VZJTYzHZXvD9k8Mqh-SLyId5LSFzhW9obmNJVb1DhXZJs6zOOLCX1XNeDhhOASVPy8jSJyUvFXHhfTyRyILftDaOBbqhPcHWTtScq7cHPzvo_67rWbK6pm54Kfcp8bYn7tuYVpOcTJmqLh2Hjy_VaBLrPypUFPSxe-QNevFp-PG6EgsPxBBykFRq0-UIo_i5S-OK_MJSc1ULQ55gRBz4kBc0MmO-i73x8WUzChXzaGpUcPJScaqb1yTRWVPfTa67MjN6Dwp1caB9dVthDIPTpERU4k_Hha5lNhMMMPKYZGyt12XnpVZuDFisbzwa-1DxlMsBdxHgxHl4wcoSNTH1DEKRV1xBymNiFa9HhUtQ7i9IVLKV7rlGAuEKcU1vHkAo24fvcflJvXghN3Dxc9w2zY2mb0-92Wqq_qMqSX5yFG9QUcvErFuLIUXcCf78FRwSr3ClKKn-1QT7L0wk_VsrnsKlEkpLEVTX_u-KZ_Qi9ZdiUxEXUnvAl-o8gpULhmmH4r_NGMkwmtdgRygEotaPxWHTav9nV_3h8lyIXr5tV4emZrZ1MH7lniJwvcBisCng5agBFmF]--></g></svg>