<?xml version="1.0" encoding="us-ascii" standalone="no"?><svg xmlns="http://www.w3.org/2000/svg" xmlns:xlink="http://www.w3.org/1999/xlink" contentStyleType="text/css" height="1839px" preserveAspectRatio="none" style="width:2507px;height:1839px;background:#FFFFFF;" version="1.1" viewBox="0 0 2507 1839" width="2507px" zoomAndPan="magnify"><defs/><g><text fill="#000000" font-family="sans-serif" font-size="14" font-weight="bold" lengthAdjust="spacing" textLength="301" x="1104.25" y="29.5332">Diagrama de secuencia - Archivar proyecto</text><rect fill="#FFFFFF" height="1593.625" style="stroke:#181818;stroke-width:1.0;" width="10" x="403.5" y="153.5703"/><rect fill="#FFFFFF" height="323.8672" style="stroke:#181818;stroke-width:1.0;" width="10" x="680.5" y="200.2734"/><rect fill="#FFFFFF" height="298.5156" style="stroke:#181818;stroke-width:1.0;" width="10" x="680.5" y="978.0859"/><rect fill="#FFFFFF" height="55.7031" style="stroke:#181818;stroke-width:1.0;" width="10" x="1026.5" y="230.625"/><rect fill="#FFFFFF" height="177.1094" style="stroke:#181818;stroke-width:1.0;" width="10" x="1147" y="316.6797"/><rect fill="#FFFFFF" height="177.1094" style="stroke:#181818;stroke-width:1.0;" width="10" x="1147" y="1069.1406"/><rect fill="none" height="1494.5703" style="stroke:#000000;stroke-width:1.5;" width="2490.5" x="10" y="245.625"/><rect fill="none" height="1173.2188" style="stroke:#000000;stroke-width:1.5;" width="2470.5" x="20" y="453.0859"/><rect fill="none" height="805.1641" style="stroke:#000000;stroke-width:1.5;" width="2450.5" x="30" y="814.1406"/><rect fill="none" height="406.7578" style="stroke:#000000;stroke-width:1.5;" width="2430.5" x="40" y="1205.5469"/><line style="stroke:#181818;stroke-width:0.5;stroke-dasharray:5.0,5.0;" x1="92" x2="92" y1="121.2188" y2="1757.1953"/><line style="stroke:#181818;stroke-width:0.5;stroke-dasharray:5.0,5.0;" x1="408" x2="408" y1="121.2188" y2="1757.1953"/><line style="stroke:#181818;stroke-width:0.5;stroke-dasharray:5.0,5.0;" x1="685.5" x2="685.5" y1="121.2188" y2="1757.1953"/><line style="stroke:#181818;stroke-width:0.5;stroke-dasharray:5.0,5.0;" x1="1031.5" x2="1031.5" y1="121.2188" y2="1757.1953"/><line style="stroke:#181818;stroke-width:0.5;stroke-dasharray:5.0,5.0;" x1="1151.5" x2="1151.5" y1="121.2188" y2="1757.1953"/><line style="stroke:#181818;stroke-width:0.5;stroke-dasharray:5.0,5.0;" x1="1402" x2="1402" y1="121.2188" y2="1757.1953"/><line style="stroke:#181818;stroke-width:0.5;stroke-dasharray:5.0,5.0;" x1="2410.5" x2="2410.5" y1="121.2188" y2="1757.1953"/><text fill="#000000" font-family="sans-serif" font-size="14" lengthAdjust="spacing" textLength="79" x="50" y="118.1426">Coordinador</text><ellipse cx="92.5" cy="52.1094" fill="#E2E2F0" rx="8" ry="8" style="stroke:#181818;stroke-width:0.5;"/><path d="M92.5,60.1094 L92.5,87.1094 M79.5,68.1094 L105.5,68.1094 M92.5,87.1094 L79.5,102.1094 M92.5,87.1094 L105.5,102.1094 " fill="none" style="stroke:#181818;stroke-width:0.5;"/><text fill="#000000" font-family="sans-serif" font-size="14" lengthAdjust="spacing" textLength="79" x="50" y="1770.7285">Coordinador</text><ellipse cx="92.5" cy="1782.3047" fill="#E2E2F0" rx="8" ry="8" style="stroke:#181818;stroke-width:0.5;"/><path d="M92.5,1790.3047 L92.5,1817.3047 M79.5,1798.3047 L105.5,1798.3047 M92.5,1817.3047 L79.5,1832.3047 M92.5,1817.3047 L105.5,1832.3047 " fill="none" style="stroke:#181818;stroke-width:0.5;"/><rect fill="#E2E2F0" height="49.2188" rx="2.5" ry="2.5" style="stroke:#181818;stroke-width:0.5;" width="147" x="335" y="71"/><text fill="#000000" font-family="sans-serif" font-size="14" lengthAdjust="spacing" textLength="133" x="342" y="92.5332">ProyectoDetallePage</text><text fill="#000000" font-family="sans-serif" font-size="14" lengthAdjust="spacing" textLength="47" x="385" y="110.1426">(React)</text><rect fill="#E2E2F0" height="49.2188" rx="2.5" ry="2.5" style="stroke:#181818;stroke-width:0.5;" width="147" x="335" y="1756.1953"/><text fill="#000000" font-family="sans-serif" font-size="14" lengthAdjust="spacing" textLength="133" x="342" y="1777.7285">ProyectoDetallePage</text><text fill="#000000" font-family="sans-serif" font-size="14" lengthAdjust="spacing" textLength="47" x="385" y="1795.3379">(React)</text><rect fill="#E2E2F0" height="49.2188" rx="2.5" ry="2.5" style="stroke:#181818;stroke-width:0.5;" width="132" x="619.5" y="71"/><text fill="#000000" font-family="sans-serif" font-size="14" lengthAdjust="spacing" textLength="118" x="626.5" y="92.5332">ProyectoController</text><text fill="#000000" font-family="sans-serif" font-size="14" lengthAdjust="spacing" textLength="84" x="643.5" y="110.1426">(Spring Boot)</text><rect fill="#E2E2F0" height="49.2188" rx="2.5" ry="2.5" style="stroke:#181818;stroke-width:0.5;" width="132" x="619.5" y="1756.1953"/><text fill="#000000" font-family="sans-serif" font-size="14" lengthAdjust="spacing" textLength="118" x="626.5" y="1777.7285">ProyectoController</text><text fill="#000000" font-family="sans-serif" font-size="14" lengthAdjust="spacing" textLength="84" x="643.5" y="1795.3379">(Spring Boot)</text><rect fill="#E2E2F0" height="31.6094" rx="2.5" ry="2.5" style="stroke:#181818;stroke-width:0.5;" width="104" x="979.5" y="88.6094"/><text fill="#000000" font-family="sans-serif" font-size="14" lengthAdjust="spacing" textLength="90" x="986.5" y="110.1426">SesionService</text><rect fill="#E2E2F0" height="31.6094" rx="2.5" ry="2.5" style="stroke:#181818;stroke-width:0.5;" width="104" x="979.5" y="1756.1953"/><text fill="#000000" font-family="sans-serif" font-size="14" lengthAdjust="spacing" textLength="90" x="986.5" y="1777.7285">SesionService</text><rect fill="#E2E2F0" height="31.6094" rx="2.5" ry="2.5" style="stroke:#181818;stroke-width:0.5;" width="117" x="1093.5" y="88.6094"/><text fill="#000000" font-family="sans-serif" font-size="14" lengthAdjust="spacing" textLength="103" x="1100.5" y="110.1426">ProyectoService</text><rect fill="#E2E2F0" height="31.6094" rx="2.5" ry="2.5" style="stroke:#181818;stroke-width:0.5;" width="117" x="1093.5" y="1756.1953"/><text fill="#000000" font-family="sans-serif" font-size="14" lengthAdjust="spacing" textLength="103" x="1100.5" y="1777.7285">ProyectoService</text><rect fill="#E2E2F0" height="31.6094" rx="2.5" ry="2.5" style="stroke:#181818;stroke-width:0.5;" width="138" x="1333" y="88.6094"/><text fill="#000000" font-family="sans-serif" font-size="14" lengthAdjust="spacing" textLength="124" x="1340" y="110.1426">ProyectoRepository</text><rect fill="#E2E2F0" height="31.6094" rx="2.5" ry="2.5" style="stroke:#181818;stroke-width:0.5;" width="138" x="1333" y="1756.1953"/><text fill="#000000" font-family="sans-serif" font-size="14" lengthAdjust="spacing" textLength="124" x="1340" y="1777.7285">ProyectoRepository</text><text fill="#000000" font-family="sans-serif" font-size="14" lengthAdjust="spacing" textLength="93" x="2361.5" y="118.1426">Base de Datos</text><path d="M2393,67.6094 C2393,57.6094 2411,57.6094 2411,57.6094 C2411,57.6094 2429,57.6094 2429,67.6094 L2429,93.6094 C2429,103.6094 2411,103.6094 2411,103.6094 C2411,103.6094 2393,103.6094 2393,93.6094 L2393,67.6094 " fill="#E2E2F0" style="stroke:#181818;stroke-width:1.5;"/><path d="M2393,67.6094 C2393,77.6094 2411,77.6094 2411,77.6094 C2411,77.6094 2429,77.6094 2429,67.6094 " fill="none" style="stroke:#181818;stroke-width:1.5;"/><text fill="#000000" font-family="sans-serif" font-size="14" lengthAdjust="spacing" textLength="93" x="2361.5" y="1770.7285">Base de Datos</text><path d="M2393,1783.8047 C2393,1773.8047 2411,1773.8047 2411,1773.8047 C2411,1773.8047 2429,1773.8047 2429,1783.8047 L2429,1809.8047 C2429,1819.8047 2411,1819.8047 2411,1819.8047 C2411,1819.8047 2393,1819.8047 2393,1809.8047 L2393,1783.8047 " fill="#E2E2F0" style="stroke:#181818;stroke-width:1.5;"/><path d="M2393,1783.8047 C2393,1793.8047 2411,1793.8047 2411,1793.8047 C2411,1793.8047 2429,1793.8047 2429,1783.8047 " fill="none" style="stroke:#181818;stroke-width:1.5;"/><rect fill="#FFFFFF" height="1593.625" style="stroke:#181818;stroke-width:1.0;" width="10" x="403.5" y="153.5703"/><rect fill="#FFFFFF" height="323.8672" style="stroke:#181818;stroke-width:1.0;" width="10" x="680.5" y="200.2734"/><rect fill="#FFFFFF" height="298.5156" style="stroke:#181818;stroke-width:1.0;" width="10" x="680.5" y="978.0859"/><rect fill="#FFFFFF" height="55.7031" style="stroke:#181818;stroke-width:1.0;" width="10" x="1026.5" y="230.625"/><rect fill="#FFFFFF" height="177.1094" style="stroke:#181818;stroke-width:1.0;" width="10" x="1147" y="316.6797"/><rect fill="#FFFFFF" height="177.1094" style="stroke:#181818;stroke-width:1.0;" width="10" x="1147" y="1069.1406"/><polygon fill="#181818" points="391.5,149.5703,401.5,153.5703,391.5,157.5703,395.5,153.5703" style="stroke:#181818;stroke-width:1.0;"/><line style="stroke:#181818;stroke-width:1.0;" x1="92.5" x2="397.5" y1="153.5703" y2="153.5703"/><text fill="#000000" font-family="sans-serif" font-size="13" lengthAdjust="spacing" textLength="145" x="99.5" y="148.7139">Solicita archivar proyecto</text><polygon fill="#181818" points="668.5,196.2734,678.5,200.2734,668.5,204.2734,672.5,200.2734" style="stroke:#181818;stroke-width:1.0;"/><line style="stroke:#181818;stroke-width:1.0;" x1="413.5" x2="674.5" y1="200.2734" y2="200.2734"/><text fill="#000000" font-family="sans-serif" font-size="13" lengthAdjust="spacing" textLength="248" x="420.5" y="179.0654">GET /api/proyectos/{id}/opciones-archivado</text><text fill="#000000" font-family="sans-serif" font-size="13" lengthAdjust="spacing" textLength="100" x="420.5" y="195.417">Cookie de sesion</text><polygon fill="#181818" points="1014.5,226.625,1024.5,230.625,1014.5,234.625,1018.5,230.625" style="stroke:#181818;stroke-width:1.0;"/><line style="stroke:#181818;stroke-width:1.0;" x1="690.5" x2="1020.5" y1="230.625" y2="230.625"/><text fill="#000000" font-family="sans-serif" font-size="13" lengthAdjust="spacing" textLength="189" x="697.5" y="225.7686">exigirCoordinador(authentication)</text><path d="M10,245.625 L71,245.625 L71,253.9766 L61,263.9766 L10,263.9766 L10,245.625 " fill="#EEEEEE" style="stroke:#000000;stroke-width:1.5;"/><rect fill="none" height="1494.5703" style="stroke:#000000;stroke-width:1.5;" width="2490.5" x="10" y="245.625"/><text fill="#000000" font-family="sans-serif" font-size="13" font-weight="bold" lengthAdjust="spacing" textLength="16" x="25" y="260.1201">alt</text><text fill="#000000" font-family="sans-serif" font-size="11" font-weight="bold" lengthAdjust="spacing" textLength="169" x="86" y="259.0439">[Sesion de Coordinador activa]</text><polygon fill="#181818" points="701.5,282.3281,691.5,286.3281,701.5,290.3281,697.5,286.3281" style="stroke:#181818;stroke-width:1.0;"/><line style="stroke:#181818;stroke-width:1.0;stroke-dasharray:2.0,2.0;" x1="695.5" x2="1030.5" y1="286.3281" y2="286.3281"/><text fill="#000000" font-family="sans-serif" font-size="13" lengthAdjust="spacing" textLength="140" x="707.5" y="281.4717">Coordinador autenticado</text><polygon fill="#181818" points="1135,312.6797,1145,316.6797,1135,320.6797,1139,316.6797" style="stroke:#181818;stroke-width:1.0;"/><line style="stroke:#181818;stroke-width:1.0;" x1="690.5" x2="1141" y1="316.6797" y2="316.6797"/><text fill="#000000" font-family="sans-serif" font-size="13" lengthAdjust="spacing" textLength="121" x="697.5" y="311.8232">prepararArchivado(id)</text><polygon fill="#181818" points="1390,343.0313,1400,347.0313,1390,351.0313,1394,347.0313" style="stroke:#181818;stroke-width:1.0;"/><line style="stroke:#181818;stroke-width:1.0;" x1="1157" x2="1396" y1="347.0313" y2="347.0313"/><text fill="#000000" font-family="sans-serif" font-size="13" lengthAdjust="spacing" textLength="126" x="1164" y="342.1748">obtenerActivoPorId(id)</text><polygon fill="#181818" points="2399,373.3828,2409,377.3828,2399,381.3828,2403,377.3828" style="stroke:#181818;stroke-width:1.0;"/><line style="stroke:#181818;stroke-width:1.0;" x1="1402" x2="2405" y1="377.3828" y2="377.3828"/><text fill="#000000" font-family="sans-serif" font-size="13" lengthAdjust="spacing" textLength="384" x="1409" y="372.5264">SELECT * FROM proyectos WHERE id = ? AND archivado = false</text><polygon fill="#181818" points="1413,403.7344,1403,407.7344,1413,411.7344,1409,407.7344" style="stroke:#181818;stroke-width:1.0;"/><line style="stroke:#181818;stroke-width:1.0;stroke-dasharray:2.0,2.0;" x1="1407" x2="2410" y1="407.7344" y2="407.7344"/><text fill="#000000" font-family="sans-serif" font-size="13" lengthAdjust="spacing" textLength="150" x="1419" y="402.8779">Resultado de persistencia</text><polygon fill="#181818" points="1168,434.0859,1158,438.0859,1168,442.0859,1164,438.0859" style="stroke:#181818;stroke-width:1.0;"/><line style="stroke:#181818;stroke-width:1.0;stroke-dasharray:2.0,2.0;" x1="1162" x2="1401" y1="438.0859" y2="438.0859"/><text fill="#000000" font-family="sans-serif" font-size="13" lengthAdjust="spacing" textLength="93" x="1174" y="433.2295">Proyecto / vacio</text><path d="M20,453.0859 L81,453.0859 L81,461.4375 L71,471.4375 L20,471.4375 L20,453.0859 " fill="#EEEEEE" style="stroke:#000000;stroke-width:1.5;"/><rect fill="none" height="1173.2188" style="stroke:#000000;stroke-width:1.5;" width="2470.5" x="20" y="453.0859"/><text fill="#000000" font-family="sans-serif" font-size="13" font-weight="bold" lengthAdjust="spacing" textLength="16" x="35" y="467.5811">alt</text><text fill="#000000" font-family="sans-serif" font-size="11" font-weight="bold" lengthAdjust="spacing" textLength="203" x="96" y="466.5049">[Proyecto inexistente o ya archivado]</text><polygon fill="#181818" points="701.5,489.7891,691.5,493.7891,701.5,497.7891,697.5,493.7891" style="stroke:#181818;stroke-width:1.0;"/><line style="stroke:#181818;stroke-width:1.0;stroke-dasharray:2.0,2.0;" x1="695.5" x2="1151" y1="493.7891" y2="493.7891"/><text fill="#000000" font-family="sans-serif" font-size="13" lengthAdjust="spacing" textLength="308" x="707.5" y="488.9326">RecursoNoEncontradoException / ConflictoException</text><polygon fill="#181818" points="424.5,520.1406,414.5,524.1406,424.5,528.1406,420.5,524.1406" style="stroke:#181818;stroke-width:1.0;"/><line style="stroke:#181818;stroke-width:1.0;stroke-dasharray:2.0,2.0;" x1="418.5" x2="684.5" y1="524.1406" y2="524.1406"/><text fill="#000000" font-family="sans-serif" font-size="13" lengthAdjust="spacing" textLength="165" x="430.5" y="519.2842">404 Not Found / 409 Conflict</text><polygon fill="#181818" points="103.5,550.4922,93.5,554.4922,103.5,558.4922,99.5,554.4922" style="stroke:#181818;stroke-width:1.0;"/><line style="stroke:#181818;stroke-width:1.0;stroke-dasharray:2.0,2.0;" x1="97.5" x2="402.5" y1="554.4922" y2="554.4922"/><text fill="#000000" font-family="sans-serif" font-size="13" lengthAdjust="spacing" textLength="287" x="109.5" y="549.6357">Presenta error y conserva PROYECTO_ABIERTO</text><line style="stroke:#000000;stroke-width:1.0;stroke-dasharray:2.0,2.0;" x1="20" x2="2490.5" y1="563.4922" y2="563.4922"/><text fill="#000000" font-family="sans-serif" font-size="11" font-weight="bold" lengthAdjust="spacing" textLength="92" x="25" y="574.9111">[Proyecto activo]</text><polygon fill="#181818" points="1390,596.6797,1400,600.6797,1390,604.6797,1394,600.6797" style="stroke:#181818;stroke-width:1.0;"/><line style="stroke:#181818;stroke-width:1.0;" x1="1152" x2="1396" y1="600.6797" y2="600.6797"/><text fill="#000000" font-family="sans-serif" font-size="13" lengthAdjust="spacing" textLength="167" x="1159" y="595.8232">obtenerResumenHistorico(id)</text><polygon fill="#181818" points="2399,627.0313,2409,631.0313,2399,635.0313,2403,631.0313" style="stroke:#181818;stroke-width:1.0;"/><line style="stroke:#181818;stroke-width:1.0;" x1="1402" x2="2405" y1="631.0313" y2="631.0313"/><text fill="#000000" font-family="sans-serif" font-size="13" lengthAdjust="spacing" textLength="985" x="1409" y="626.1748">SELECT p.*, COUNT(pi.usuario_id) AS participantes FROM proyectos p LEFT JOIN proyecto_investigadores pi ON pi.proyecto_id = p.id WHERE p.id = ? GROUP BY p.id</text><polygon fill="#181818" points="1413,657.3828,1403,661.3828,1413,665.3828,1409,661.3828" style="stroke:#181818;stroke-width:1.0;"/><line style="stroke:#181818;stroke-width:1.0;stroke-dasharray:2.0,2.0;" x1="1407" x2="2410" y1="661.3828" y2="661.3828"/><text fill="#000000" font-family="sans-serif" font-size="13" lengthAdjust="spacing" textLength="150" x="1419" y="656.5264">Resultado de persistencia</text><polygon fill="#181818" points="1163,687.7344,1153,691.7344,1163,695.7344,1159,691.7344" style="stroke:#181818;stroke-width:1.0;"/><line style="stroke:#181818;stroke-width:1.0;stroke-dasharray:2.0,2.0;" x1="1157" x2="1401" y1="691.7344" y2="691.7344"/><text fill="#000000" font-family="sans-serif" font-size="13" lengthAdjust="spacing" textLength="226" x="1169" y="686.8779">Estado, equipo y elementos vinculados</text><polygon fill="#181818" points="696.5,718.0859,686.5,722.0859,696.5,726.0859,692.5,722.0859" style="stroke:#181818;stroke-width:1.0;"/><line style="stroke:#181818;stroke-width:1.0;stroke-dasharray:2.0,2.0;" x1="690.5" x2="1151" y1="722.0859" y2="722.0859"/><text fill="#000000" font-family="sans-serif" font-size="13" lengthAdjust="spacing" textLength="221" x="702.5" y="717.2295">OpcionesArchivadoProyectoResponse</text><polygon fill="#181818" points="424.5,764.7891,414.5,768.7891,424.5,772.7891,420.5,768.7891" style="stroke:#181818;stroke-width:1.0;"/><line style="stroke:#181818;stroke-width:1.0;stroke-dasharray:2.0,2.0;" x1="418.5" x2="684.5" y1="768.7891" y2="768.7891"/><text fill="#000000" font-family="sans-serif" font-size="13" lengthAdjust="spacing" textLength="44" x="430.5" y="747.5811">200 OK</text><text fill="#000000" font-family="sans-serif" font-size="13" lengthAdjust="spacing" textLength="168" x="430.5" y="763.9326">Consecuencias del archivado</text><polygon fill="#181818" points="103.5,795.1406,93.5,799.1406,103.5,803.1406,99.5,799.1406" style="stroke:#181818;stroke-width:1.0;"/><line style="stroke:#181818;stroke-width:1.0;stroke-dasharray:2.0,2.0;" x1="97.5" x2="402.5" y1="799.1406" y2="799.1406"/><text fill="#000000" font-family="sans-serif" font-size="13" lengthAdjust="spacing" textLength="226" x="109.5" y="794.2842">Presenta confirmacion y solicita motivo</text><path d="M30,814.1406 L91,814.1406 L91,822.4922 L81,832.4922 L30,832.4922 L30,814.1406 " fill="#EEEEEE" style="stroke:#000000;stroke-width:1.5;"/><rect fill="none" height="805.1641" style="stroke:#000000;stroke-width:1.5;" width="2450.5" x="30" y="814.1406"/><text fill="#000000" font-family="sans-serif" font-size="13" font-weight="bold" lengthAdjust="spacing" textLength="16" x="45" y="828.6357">alt</text><text fill="#000000" font-family="sans-serif" font-size="11" font-weight="bold" lengthAdjust="spacing" textLength="121" x="106" y="827.5596">[Coordinador cancela]</text><polygon fill="#181818" points="391.5,850.8438,401.5,854.8438,391.5,858.8438,395.5,854.8438" style="stroke:#181818;stroke-width:1.0;"/><line style="stroke:#181818;stroke-width:1.0;" x1="92.5" x2="397.5" y1="854.8438" y2="854.8438"/><text fill="#000000" font-family="sans-serif" font-size="13" lengthAdjust="spacing" textLength="105" x="99.5" y="849.9873">Cancela archivado</text><polygon fill="#181818" points="103.5,881.1953,93.5,885.1953,103.5,889.1953,99.5,885.1953" style="stroke:#181818;stroke-width:1.0;"/><line style="stroke:#181818;stroke-width:1.0;stroke-dasharray:2.0,2.0;" x1="97.5" x2="402.5" y1="885.1953" y2="885.1953"/><text fill="#000000" font-family="sans-serif" font-size="13" lengthAdjust="spacing" textLength="192" x="109.5" y="880.3389">Conserva PROYECTO_ABIERTO</text><line style="stroke:#000000;stroke-width:1.0;stroke-dasharray:2.0,2.0;" x1="30" x2="2480.5" y1="894.1953" y2="894.1953"/><text fill="#000000" font-family="sans-serif" font-size="11" font-weight="bold" lengthAdjust="spacing" textLength="129" x="35" y="905.6143">[Coordinador confirma]</text><polygon fill="#181818" points="391.5,927.3828,401.5,931.3828,391.5,935.3828,395.5,931.3828" style="stroke:#181818;stroke-width:1.0;"/><line style="stroke:#181818;stroke-width:1.0;" x1="92.5" x2="397.5" y1="931.3828" y2="931.3828"/><text fill="#000000" font-family="sans-serif" font-size="13" lengthAdjust="spacing" textLength="175" x="99.5" y="926.5264">Confirma archivado con motivo</text><polygon fill="#181818" points="668.5,974.0859,678.5,978.0859,668.5,982.0859,672.5,978.0859" style="stroke:#181818;stroke-width:1.0;"/><line style="stroke:#181818;stroke-width:1.0;" x1="413.5" x2="674.5" y1="978.0859" y2="978.0859"/><text fill="#000000" font-family="sans-serif" font-size="13" lengthAdjust="spacing" textLength="209" x="420.5" y="956.8779">PATCH /api/proyectos/{id}/archivado</text><text fill="#000000" font-family="sans-serif" font-size="13" lengthAdjust="spacing" textLength="210" x="420.5" y="973.2295">ProyectoArchivadoRequest + cookie</text><polygon fill="#181818" points="1019.5,1004.4375,1029.5,1008.4375,1019.5,1012.4375,1023.5,1008.4375" style="stroke:#181818;stroke-width:1.0;"/><line style="stroke:#181818;stroke-width:1.0;" x1="690.5" x2="1025.5" y1="1008.4375" y2="1008.4375"/><text fill="#000000" font-family="sans-serif" font-size="13" lengthAdjust="spacing" textLength="189" x="697.5" y="1003.5811">exigirCoordinador(authentication)</text><polygon fill="#181818" points="701.5,1034.7891,691.5,1038.7891,701.5,1042.7891,697.5,1038.7891" style="stroke:#181818;stroke-width:1.0;"/><line style="stroke:#181818;stroke-width:1.0;stroke-dasharray:2.0,2.0;" x1="695.5" x2="1030.5" y1="1038.7891" y2="1038.7891"/><text fill="#000000" font-family="sans-serif" font-size="13" lengthAdjust="spacing" textLength="140" x="707.5" y="1033.9326">Coordinador autenticado</text><polygon fill="#181818" points="1135,1065.1406,1145,1069.1406,1135,1073.1406,1139,1069.1406" style="stroke:#181818;stroke-width:1.0;"/><line style="stroke:#181818;stroke-width:1.0;" x1="690.5" x2="1141" y1="1069.1406" y2="1069.1406"/><text fill="#000000" font-family="sans-serif" font-size="13" lengthAdjust="spacing" textLength="182" x="697.5" y="1064.2842">archivar(id, motivo, coordinador)</text><polygon fill="#181818" points="1390,1095.4922,1400,1099.4922,1390,1103.4922,1394,1099.4922" style="stroke:#181818;stroke-width:1.0;"/><line style="stroke:#181818;stroke-width:1.0;" x1="1157" x2="1396" y1="1099.4922" y2="1099.4922"/><text fill="#000000" font-family="sans-serif" font-size="13" lengthAdjust="spacing" textLength="126" x="1164" y="1094.6357">obtenerActivoPorId(id)</text><polygon fill="#181818" points="2399,1125.8438,2409,1129.8438,2399,1133.8438,2403,1129.8438" style="stroke:#181818;stroke-width:1.0;"/><line style="stroke:#181818;stroke-width:1.0;" x1="1402" x2="2405" y1="1129.8438" y2="1129.8438"/><text fill="#000000" font-family="sans-serif" font-size="13" lengthAdjust="spacing" textLength="384" x="1409" y="1124.9873">SELECT * FROM proyectos WHERE id = ? AND archivado = false</text><polygon fill="#181818" points="1413,1156.1953,1403,1160.1953,1413,1164.1953,1409,1160.1953" style="stroke:#181818;stroke-width:1.0;"/><line style="stroke:#181818;stroke-width:1.0;stroke-dasharray:2.0,2.0;" x1="1407" x2="2410" y1="1160.1953" y2="1160.1953"/><text fill="#000000" font-family="sans-serif" font-size="13" lengthAdjust="spacing" textLength="150" x="1419" y="1155.3389">Resultado de persistencia</text><polygon fill="#181818" points="1168,1186.5469,1158,1190.5469,1168,1194.5469,1164,1190.5469" style="stroke:#181818;stroke-width:1.0;"/><line style="stroke:#181818;stroke-width:1.0;stroke-dasharray:2.0,2.0;" x1="1162" x2="1401" y1="1190.5469" y2="1190.5469"/><text fill="#000000" font-family="sans-serif" font-size="13" lengthAdjust="spacing" textLength="93" x="1174" y="1185.6904">Proyecto / vacio</text><path d="M40,1205.5469 L101,1205.5469 L101,1213.8984 L91,1223.8984 L40,1223.8984 L40,1205.5469 " fill="#EEEEEE" style="stroke:#000000;stroke-width:1.5;"/><rect fill="none" height="406.7578" style="stroke:#000000;stroke-width:1.5;" width="2430.5" x="40" y="1205.5469"/><text fill="#000000" font-family="sans-serif" font-size="13" font-weight="bold" lengthAdjust="spacing" textLength="16" x="55" y="1220.042">alt</text><text fill="#000000" font-family="sans-serif" font-size="11" font-weight="bold" lengthAdjust="spacing" textLength="321" x="116" y="1218.9658">[Proyecto inexistente o archivado durante la confirmacion]</text><polygon fill="#181818" points="701.5,1242.25,691.5,1246.25,701.5,1250.25,697.5,1246.25" style="stroke:#181818;stroke-width:1.0;"/><line style="stroke:#181818;stroke-width:1.0;stroke-dasharray:2.0,2.0;" x1="695.5" x2="1151" y1="1246.25" y2="1246.25"/><text fill="#000000" font-family="sans-serif" font-size="13" lengthAdjust="spacing" textLength="308" x="707.5" y="1241.3936">RecursoNoEncontradoException / ConflictoException</text><polygon fill="#181818" points="424.5,1272.6016,414.5,1276.6016,424.5,1280.6016,420.5,1276.6016" style="stroke:#181818;stroke-width:1.0;"/><line style="stroke:#181818;stroke-width:1.0;stroke-dasharray:2.0,2.0;" x1="418.5" x2="684.5" y1="1276.6016" y2="1276.6016"/><text fill="#000000" font-family="sans-serif" font-size="13" lengthAdjust="spacing" textLength="165" x="430.5" y="1271.7451">404 Not Found / 409 Conflict</text><polygon fill="#181818" points="103.5,1302.9531,93.5,1306.9531,103.5,1310.9531,99.5,1306.9531" style="stroke:#181818;stroke-width:1.0;"/><line style="stroke:#181818;stroke-width:1.0;stroke-dasharray:2.0,2.0;" x1="97.5" x2="402.5" y1="1306.9531" y2="1306.9531"/><text fill="#000000" font-family="sans-serif" font-size="13" lengthAdjust="spacing" textLength="104" x="109.5" y="1302.0967">Presenta conflicto</text><line style="stroke:#000000;stroke-width:1.0;stroke-dasharray:2.0,2.0;" x1="40" x2="2470.5" y1="1315.9531" y2="1315.9531"/><text fill="#000000" font-family="sans-serif" font-size="11" font-weight="bold" lengthAdjust="spacing" textLength="92" x="45" y="1327.3721">[Proyecto activo]</text><polygon fill="#181818" points="1390,1349.1406,1400,1353.1406,1390,1357.1406,1394,1353.1406" style="stroke:#181818;stroke-width:1.0;"/><line style="stroke:#181818;stroke-width:1.0;" x1="1152" x2="1396" y1="1353.1406" y2="1353.1406"/><text fill="#000000" font-family="sans-serif" font-size="13" lengthAdjust="spacing" textLength="221" x="1159" y="1348.2842">archivar(id, fecha, coordinador, motivo)</text><polygon fill="#181818" points="2399,1379.4922,2409,1383.4922,2399,1387.4922,2403,1383.4922" style="stroke:#181818;stroke-width:1.0;"/><line style="stroke:#181818;stroke-width:1.0;" x1="1402" x2="2405" y1="1383.4922" y2="1383.4922"/><text fill="#000000" font-family="sans-serif" font-size="13" lengthAdjust="spacing" textLength="864" x="1409" y="1378.6357">UPDATE proyectos SET archivado = true, estado = 'COMPLETADO', fecha_archivado = ?, archivado_por_id = ?, motivo_archivado = ? WHERE id = ?</text><polygon fill="#181818" points="1413,1409.8438,1403,1413.8438,1413,1417.8438,1409,1413.8438" style="stroke:#181818;stroke-width:1.0;"/><line style="stroke:#181818;stroke-width:1.0;stroke-dasharray:2.0,2.0;" x1="1407" x2="2410" y1="1413.8438" y2="1413.8438"/><text fill="#000000" font-family="sans-serif" font-size="13" lengthAdjust="spacing" textLength="150" x="1419" y="1408.9873">Resultado de persistencia</text><polygon fill="#181818" points="1163,1440.1953,1153,1444.1953,1163,1448.1953,1159,1444.1953" style="stroke:#181818;stroke-width:1.0;"/><line style="stroke:#181818;stroke-width:1.0;stroke-dasharray:2.0,2.0;" x1="1157" x2="1401" y1="1444.1953" y2="1444.1953"/><text fill="#000000" font-family="sans-serif" font-size="13" lengthAdjust="spacing" textLength="110" x="1169" y="1439.3389">Proyecto archivado</text><path d="M1157,1457.1953 L1157,1499.1953 L1349,1499.1953 L1349,1467.1953 L1339,1457.1953 L1157,1457.1953 " fill="#FEFFDD" style="stroke:#181818;stroke-width:0.5;"/><path d="M1339,1457.1953 L1339,1467.1953 L1349,1467.1953 L1339,1457.1953 " fill="#FEFFDD" style="stroke:#181818;stroke-width:0.5;"/><text fill="#000000" font-family="sans-serif" font-size="13" lengthAdjust="spacing" textLength="171" x="1163" y="1475.6904">Se conservan estado, equipo,</text><text fill="#000000" font-family="sans-serif" font-size="13" lengthAdjust="spacing" textLength="164" x="1163" y="1492.042">entregables y recompensas.</text><polygon fill="#181818" points="696.5,1523.25,686.5,1527.25,696.5,1531.25,692.5,1527.25" style="stroke:#181818;stroke-width:1.0;"/><line style="stroke:#181818;stroke-width:1.0;stroke-dasharray:2.0,2.0;" x1="690.5" x2="1151" y1="1527.25" y2="1527.25"/><text fill="#000000" font-family="sans-serif" font-size="13" lengthAdjust="spacing" textLength="166" x="702.5" y="1522.3936">ProyectoArchivadoResponse</text><polygon fill="#181818" points="424.5,1569.9531,414.5,1573.9531,424.5,1577.9531,420.5,1573.9531" style="stroke:#181818;stroke-width:1.0;"/><line style="stroke:#181818;stroke-width:1.0;stroke-dasharray:2.0,2.0;" x1="418.5" x2="684.5" y1="1573.9531" y2="1573.9531"/><text fill="#000000" font-family="sans-serif" font-size="13" lengthAdjust="spacing" textLength="44" x="430.5" y="1552.7451">200 OK</text><text fill="#000000" font-family="sans-serif" font-size="13" lengthAdjust="spacing" textLength="110" x="430.5" y="1569.0967">Proyecto archivado</text><polygon fill="#181818" points="103.5,1600.3047,93.5,1604.3047,103.5,1608.3047,99.5,1604.3047" style="stroke:#181818;stroke-width:1.0;"/><line style="stroke:#181818;stroke-width:1.0;stroke-dasharray:2.0,2.0;" x1="97.5" x2="402.5" y1="1604.3047" y2="1604.3047"/><text fill="#000000" font-family="sans-serif" font-size="13" lengthAdjust="spacing" textLength="209" x="109.5" y="1599.4482">Presenta PROYECTOS_ABIERTOS</text><line style="stroke:#000000;stroke-width:1.0;stroke-dasharray:2.0,2.0;" x1="10" x2="2500.5" y1="1634.3047" y2="1634.3047"/><text fill="#000000" font-family="sans-serif" font-size="11" font-weight="bold" lengthAdjust="spacing" textLength="167" x="15" y="1645.7236">[Sesion ausente o rol invalido]</text><polygon fill="#181818" points="696.5,1667.4922,686.5,1671.4922,696.5,1675.4922,692.5,1671.4922" style="stroke:#181818;stroke-width:1.0;"/><line style="stroke:#181818;stroke-width:1.0;stroke-dasharray:2.0,2.0;" x1="690.5" x2="1030.5" y1="1671.4922" y2="1671.4922"/><text fill="#000000" font-family="sans-serif" font-size="13" lengthAdjust="spacing" textLength="322" x="702.5" y="1666.6357">SesionNoValidaException / AccesoDenegadoException</text><polygon fill="#181818" points="424.5,1697.8438,414.5,1701.8438,424.5,1705.8438,420.5,1701.8438" style="stroke:#181818;stroke-width:1.0;"/><line style="stroke:#181818;stroke-width:1.0;stroke-dasharray:2.0,2.0;" x1="418.5" x2="684.5" y1="1701.8438" y2="1701.8438"/><text fill="#000000" font-family="sans-serif" font-size="13" lengthAdjust="spacing" textLength="195" x="430.5" y="1696.9873">401 Unauthorized / 403 Forbidden</text><polygon fill="#181818" points="103.5,1728.1953,93.5,1732.1953,103.5,1736.1953,99.5,1732.1953" style="stroke:#181818;stroke-width:1.0;"/><line style="stroke:#181818;stroke-width:1.0;stroke-dasharray:2.0,2.0;" x1="97.5" x2="402.5" y1="1732.1953" y2="1732.1953"/><text fill="#000000" font-family="sans-serif" font-size="13" lengthAdjust="spacing" textLength="146" x="109.5" y="1727.3389">Presenta error de acceso</text><!--SRC=[hLTjR-964FxEhnZbouKh2MbxNuhKHWQSIzeSHa1QdNHIjB4dP5Mpw-wkqT7g_llDhj_1990KAS5Up-ippymOmqsCCEPigTYAGOIWCKnHX9p16NWgVE9hfY1HSeEXaPqEe_yAHbAgY0iMITL9c38yv0aJ1awckU0O3OjZdB8bVX6dCoIrxWam3LTA2eCYQbSRqKCbIL6HrZnHN2nXA6MkwoMygJP7pQMOerhp49r8Tj9kl2ddhji5PvX8pIdFZPErjvs86VR0DCB9qFudeCRCIEq4niDEfuO8dFrMfZc0kOp9WM70Ti0aKEZ0O0LASM5DKBO3-EWleCyItY-KTFy_7dthooIaF56VvLOZ-KLG27zpp6heK2ZjM-3eprhD01e0VkLBhcfHdxBKFA4WD9WXYMwbdMFAOfDVMXVrV3F93j0d5pWhuc-8fIQp7qad6-6s2tjQnkaAD22qa8h4b5SaUigZhfEiQMV5p09mrzQ4hTi0v0DvHULPOJcLwYOg3LW1ApWUKfdyMt-qWFTmDGi-bINIyDUrF_E1H_0hN88t6KC9E9qyibXdRiT3btFcSeOwZOqL8Q0IL9fhurggvhMUOi4xwCEQKLspx0ZkyW4NL2zhXBALi65L54wsaNW1_OmQMMavaRu8RLkHiFyrnCHMbpnHgpqICqrrM9fg5AQ2jgnEWzyVBZx0H1guaYdnja_tlvIssonQBXR75Tt9P8qg5XBKb2q3L8geim5AGLCi3AQpu3DLAhZtXZV-R14uOqXrgD1olbgGsQA4BTCAnJK1AnKFAsBjuKPo_hu7e-1kiZXD-7cgKwQul2SbyEPG6oIejqcKmAr_jO3VWvj9UNhFnHgruKkRCAaGi04zvUULW2LTSavV6GdTfQNXnrbmDuNXPtTIHdm41Tjfw6khq0Fy9-NqR4Ee8k5Z4rXp4QOnFTNx-HRa8wbir6gSwiHMxtNy-kdY0e8_x7GJvMhIP29kwO7NqupezSZLodQVeCnrCRHNia4bsvJraHOo4M9SWMe_UpV1A1DkYVlv84VFKh-aVoEkF9q30ykbQxED36pdtWmoB_hKMuokMpTKRJ4LH2YPCIEA4VVX1_9ZTrR3Hsi96vlXq0rMLpvcCUqup1kasE0qA7evEZsRGM6esvx7DiUFNLFFZAJNhgjNpemZrbUzO_QiiIgqA5LsRaBSRCI6eVzvnnqmYzwuyruOIaSE9vT6G_dPdRUNPmqEFsBun1eKBdZTtR5KPz_TTEmj_1hjvlIQMcUQKIdI8d4BXMxVZO9Fqrj_uOs3TxdN-xhuPQ_Ila-aobRVPH5CKxR1yPqmNy7e5rZTFgxjHqYggUBB9mFoSIzzvbY-l8WSacB7zdQ4gTuAb-mXfZU23IWCvIf1ePa-Rn6DN0GlTqdB_DtQo6_gXc937u3OstkXs87pOWdEErkWTBQlxRThbdm7i5Jd4uX-Qj9CMhEOvx5kRudiVYB_j2AiFbgyC4HDFtC5Bkj3vwKVDbjZv4Uu4tPhqVldlvXDafzfggW77aMuOwo0xE3NPc8zSt5sB0OrIuM5xm00]--></g></svg>