<svg xmlns="http://www.w3.org/2000/svg" xmlns:xlink="http://www.w3.org/1999/xlink" contentStyleType="text/css" height="269px" preserveAspectRatio="none" style="width:492px;height:269px;background:#FFFFFF;" version="1.1" viewBox="0 0 492 269" width="492px" zoomAndPan="magnify"><defs/><g><line style="stroke:#AAAAAA;stroke-width:1;" x1="6" x2="485" y1="8.5" y2="8.5"/><line style="stroke:#AAAAAA;stroke-width:1;" x1="6" x2="485" y1="10.5" y2="10.5"/><text fill="#000000" font-family="sans-serif" font-size="12" font-weight="bold" lengthAdjust="spacing" textLength="208.6816" x="6" y="26.457">GIPF - LISTADO DE RECOMPENSAS</text><line style="stroke:#AAAAAA;stroke-width:1;" x1="6" x2="485" y1="33.5938" y2="33.5938"/><line style="stroke:#AAAAAA;stroke-width:1;" x1="6" x2="485" y1="35.5938" y2="35.5938"/><text fill="#000000" font-family="sans-serif" font-size="12" font-weight="bold" lengthAdjust="spacing" textLength="164.0684" x="7" y="52.5508">Filtrar / buscar recompensas</text><text fill="#000000" font-family="sans-serif" font-size="12" font-weight="bold" lengthAdjust="spacing" textLength="29.3203" x="9" y="71.6445">Tipo:</text><rect fill="#EEEEEE" height="19.0938" rx="5" ry="5" style="stroke:#000000;stroke-width:2.5;" width="244" x="42.8203" y="61.6875"/><text fill="#000000" font-family="sans-serif" font-size="12" lengthAdjust="spacing" textLength="3.334" x="163.1533" y="76.1445">&#160;</text><text fill="#000000" font-family="sans-serif" font-size="12" font-weight="bold" lengthAdjust="spacing" textLength="55.3301" x="9" y="99.7383">Cantidad:</text><rect fill="#EEEEEE" height="19.0938" rx="5" ry="5" style="stroke:#000000;stroke-width:2.5;" width="212" x="68.8301" y="89.7813"/><text fill="#000000" font-family="sans-serif" font-size="12" lengthAdjust="spacing" textLength="3.334" x="173.1631" y="104.2383">&#160;</text><line style="stroke:#AAAAAA;stroke-width:1.5;" x1="7" x2="484" y1="118.875" y2="118.875"/><text fill="#000000" font-family="sans-serif" font-size="12" font-weight="bold" lengthAdjust="spacing" textLength="140.7129" x="7" y="135.832">Listado de recompensas</text><line style="stroke:#AAAAAA;stroke-width:1;" x1="7" x2="484" y1="143.9688" y2="143.9688"/><text fill="#000000" font-family="sans-serif" font-size="12" font-weight="bold" lengthAdjust="spacing" textLength="25.3242" x="9" y="162.9258">Tipo</text><text fill="#000000" font-family="sans-serif" font-size="12" font-weight="bold" lengthAdjust="spacing" textLength="51.334" x="36.3242" y="162.9258">Cantidad</text><text fill="#000000" font-family="sans-serif" font-size="12" lengthAdjust="spacing" textLength="119.4199" x="12" y="182.0195">Bono de productividad</text><line style="stroke:#000000;stroke-width:1;" x1="10" x2="181" y1="184.6563" y2="184.6563"/><line style="stroke:#000000;stroke-width:1;" x1="10" x2="10" y1="181.6563" y2="183.6563"/><line style="stroke:#000000;stroke-width:1;" x1="181" x2="181" y1="181.6563" y2="183.6563"/><text fill="#000000" font-family="sans-serif" font-size="12" lengthAdjust="spacing" textLength="30.0293" x="188" y="182.0195">500 &#8364;</text><line style="stroke:#000000;stroke-width:1;" x1="186" x2="229" y1="184.6563" y2="184.6563"/><line style="stroke:#000000;stroke-width:1;" x1="186" x2="186" y1="181.6563" y2="183.6563"/><line style="stroke:#000000;stroke-width:1;" x1="229" x2="229" y1="181.6563" y2="183.6563"/><text fill="#000000" font-family="sans-serif" font-size="12" lengthAdjust="spacing" textLength="121.4004" x="12" y="203.1133">Premio a la innovaci&#243;n</text><line style="stroke:#000000;stroke-width:1;" x1="10" x2="189" y1="205.75" y2="205.75"/><line style="stroke:#000000;stroke-width:1;" x1="10" x2="10" y1="202.75" y2="204.75"/><line style="stroke:#000000;stroke-width:1;" x1="189" x2="189" y1="202.75" y2="204.75"/><text fill="#000000" font-family="sans-serif" font-size="12" lengthAdjust="spacing" textLength="36.7031" x="196" y="203.1133">1000 &#8364;</text><line style="stroke:#000000;stroke-width:1;" x1="194" x2="245" y1="205.75" y2="205.75"/><line style="stroke:#000000;stroke-width:1;" x1="194" x2="194" y1="202.75" y2="204.75"/><line style="stroke:#000000;stroke-width:1;" x1="245" x2="245" y1="202.75" y2="204.75"/><text fill="#000000" font-family="sans-serif" font-size="12" lengthAdjust="spacing" textLength="133.4063" x="12" y="224.207">Reconocimiento especial</text><line style="stroke:#000000;stroke-width:1;" x1="10" x2="197" y1="226.8438" y2="226.8438"/><line style="stroke:#000000;stroke-width:1;" x1="10" x2="10" y1="223.8438" y2="225.8438"/><line style="stroke:#000000;stroke-width:1;" x1="197" x2="197" y1="223.8438" y2="225.8438"/><text fill="#000000" font-family="sans-serif" font-size="12" lengthAdjust="spacing" textLength="34.6816" x="204" y="224.207">Trofeo</text><line style="stroke:#000000;stroke-width:1;" x1="202" x2="253" y1="226.8438" y2="226.8438"/><line style="stroke:#000000;stroke-width:1;" x1="202" x2="202" y1="223.8438" y2="225.8438"/><line style="stroke:#000000;stroke-width:1;" x1="253" x2="253" y1="223.8438" y2="225.8438"/><line style="stroke:#AAAAAA;stroke-width:1.5;" x1="7" x2="484" y1="236.3438" y2="236.3438"/><rect fill="#EEEEEE" height="19.0938" rx="5" ry="5" style="stroke:#000000;stroke-width:2.5;" width="132" x="10.5" y="244.3438"/><text fill="#000000" font-family="sans-serif" font-size="12" lengthAdjust="spacing" textLength="94.7051" x="29.1475" y="258.8008">Abrir recompensa</text><rect fill="#EEEEEE" height="19.0938" rx="5" ry="5" style="stroke:#000000;stroke-width:2.5;" width="124" x="149.5" y="244.3438"/><text fill="#000000" font-family="sans-serif" font-size="12" lengthAdjust="spacing" textLength="68.6836" x="177.1582" y="258.8008">Aplicar filtros</text><rect fill="#EEEEEE" height="19.0938" rx="5" ry="5" style="stroke:#000000;stroke-width:2.5;" width="124" x="280.5" y="244.3438"/><text fill="#000000" font-family="sans-serif" font-size="12" lengthAdjust="spacing" textLength="71.3496" x="306.8252" y="258.8008">Limpiar filtros</text><rect fill="#EEEEEE" height="19.0938" rx="5" ry="5" style="stroke:#000000;stroke-width:2.5;" width="68" x="411.5" y="244.3438"/><text fill="#000000" font-family="sans-serif" font-size="12" lengthAdjust="spacing" textLength="48.0234" x="421.4883" y="258.8008">Cancelar</text><!--SRC=[ZPF1Jjj048Rl-nGZd-1WI911aKKH8N4GgKEis71173Rs9Xh9thLcRLSLX4EVfxS-Gj-49s7Nf92aedHEuzdzPcV-6P_hYbEbULu1dnFIJAIgA8NKNBlVaCI2U27O0mDZNuorpkdyxF8g6e4BuLMSz8TJ60Om2mRJIHHSn_tuz71-jasy9bYp8ymhuWI7CAzrQXnwV_GDtQRQBuCcM2hVte57k8D_sltgBth0POKPp_uZmmQzOc_kqnFRR2H4erwc81CVjk2wdtJJbh9jZx1HgptVwSIvKB9zj2ILrMc5ZRteh5ddkDE1vny_dLqg8b6W0Wuv1vHIDJp5tx-aiyQwdGyukn9IfLYWa9K2eKkH8i-TLomXjH3A-LIkXxk-tQyDeUxj1FfbZdO55dOdb6vZ8HObxiIC7Ad8EQtdic8hTYvaPXUNiIWtOjrCGcW4QLGIkWT7dIFleBSt8eHhrK3t6Bezt_DyxmG6GGBsU9_jNKOXQ5LJAY0pioISrvNXzzcODnncjHb18NoOcdh7mwz_0X381ad9mkZ1nhUJzmidddk15SI2J2LmEs53iU2r-RS2cQeCvTA7csJazbZ8vRBcIvDRQ3PG9Yzzzo68Nm00]--></g></svg>