<svg xmlns="http://www.w3.org/2000/svg" xmlns:xlink="http://www.w3.org/1999/xlink" contentStyleType="text/css" data-diagram-type="STATE" height="805px" preserveAspectRatio="none" style="width:702px;height:805px;background:#FFFFFF;" version="1.1" viewBox="0 0 702 805" width="702px" zoomAndPan="magnify"><?plantuml 1.2026.3?><defs/><g><g class="entity" data-qualified-name="in1" id="ent0002"><rect fill="#F1F1F1" height="50" rx="12.5" ry="12.5" style="stroke:#181818;stroke-width:0.5;" width="187.2617" x="130.5" y="7"/><line style="stroke:#181818;stroke-width:0.5;" x1="130.5" x2="317.7617" y1="34.6094" y2="34.6094"/><text fill="#000000" font-family="sans-serif" font-size="14" lengthAdjust="spacing" textLength="167.2617" x="140.5" y="26.5332">RECOMPENSA_ABIERTA</text></g><g class="entity" data-qualified-name="in2" id="ent0003"><rect fill="#F1F1F1" height="50" rx="12.5" ry="12.5" style="stroke:#181818;stroke-width:0.5;" width="216.8477" x="352.5" y="7"/><line style="stroke:#181818;stroke-width:0.5;" x1="352.5" x2="569.3477" y1="34.6094" y2="34.6094"/><text fill="#000000" font-family="sans-serif" font-size="14" lengthAdjust="spacing" textLength="196.8477" x="362.5" y="26.5332">PANEL_PRINCIPAL_ABIERTO</text></g><path d="M186,153 L498,153 A12.5,12.5 0 0 1 510.5,165.5 L510.5,180.6094 L173.5,180.6094 L173.5,165.5 A12.5,12.5 0 0 1 186,153" fill="#F1F1F1"/><rect fill="none" height="491.6094" rx="12.5" ry="12.5" style="stroke:#181818;stroke-width:0.5;" width="337" x="173.5" y="153"/><line style="stroke:#181818;stroke-width:0.5;" x1="173.5" x2="510.5" y1="180.6094" y2="180.6094"/><text fill="#000000" font-family="sans-serif" font-size="14" lengthAdjust="spacing" textLength="126.8203" x="278.5898" y="172.5332">abrirRecompensas()</text><g class="entity" data-qualified-name="abrirRecompensas.MostrandoListado" id="ent0005"><rect fill="#F1F1F1" height="50" rx="12.5" ry="12.5" style="stroke:#181818;stroke-width:0.5;" width="50" x="185.5" y="283.6094"/><line style="stroke:#181818;stroke-width:0.5;" x1="185.5" x2="235.5" y1="311.2188" y2="311.2188"/><text fill="#000000" font-family="sans-serif" font-size="14" lengthAdjust="spacing" textLength="3.8896" x="208.5552" y="303.1426">&#160;</text></g><g class="entity" data-qualified-name="abrirRecompensas.FiltrandoListado" id="ent0006"><rect fill="#F1F1F1" height="50" rx="12.5" ry="12.5" style="stroke:#181818;stroke-width:0.5;" width="50" x="185.5" y="487.6094"/><line style="stroke:#181818;stroke-width:0.5;" x1="185.5" x2="235.5" y1="515.2188" y2="515.2188"/><text fill="#000000" font-family="sans-serif" font-size="14" lengthAdjust="spacing" textLength="3.8896" x="208.5552" y="507.1426">&#160;</text></g><g class="start_entity" data-qualified-name="abrirRecompensas..start.abrirRecompensas" data-source-line="21" id="ent0004"><ellipse cx="210.5" cy="201.6094" fill="#222222" rx="10" ry="10" style="stroke:#222222;stroke-width:1;"/></g><g class="end_entity" data-qualified-name="abrirRecompensas..end.abrirRecompensas" data-source-line="36" id="ent0007"><ellipse cx="210.5" cy="620.6094" fill="none" rx="11" ry="11" style="stroke:#222222;stroke-width:1;"/><ellipse cx="210.5" cy="620.6094" fill="#222222" rx="6" ry="6" style="stroke:#222222;stroke-width:1;"/></g><!--link *start*abrirRecompensas to MostrandoListado--><g class="link" data-entity-1="ent0004" data-entity-2="ent0005" data-link-type="dependency" data-source-line="21" id="lnk5"><path d="M210.5,211.9294 C210.5,227.7894 210.5,254.5194 210.5,277.2494" fill="none" id="*start*abrirRecompensas-to-MostrandoListado" style="stroke:#008000;stroke-width:1;"/><polygon fill="#008000" points="210.5,283.2494,214.5,274.2494,210.5,278.2494,206.5,274.2494,210.5,283.2494" style="stroke:#008000;stroke-width:1;"/><path d="M215.5,234.6094 L215.5,260.6094 L467.5,260.6094 L467.5,244.6094 L457.5,234.6094 L215.5,234.6094" fill="#FEFFDD" style="stroke:#181818;stroke-width:0.5;"/><path d="M457.5,234.6094 L457.5,244.6094 L467.5,244.6094 L457.5,234.6094" fill="#FEFFDD" style="stroke:#181818;stroke-width:0.5;"/><text fill="#000000" font-family="sans-serif" font-size="13" font-weight="700" lengthAdjust="spacing" textLength="77.2954" x="221.5" y="253.1045">Investigador</text><text fill="#000000" font-family="sans-serif" font-size="13" lengthAdjust="spacing" textLength="151.0044" x="302.4072" y="253.1045">solicita abrir recompensas</text></g><!--link MostrandoListado to FiltrandoListado--><g class="link" data-entity-1="ent0005" data-entity-2="ent0006" data-link-type="dependency" data-source-line="26" id="lnk6"><path d="M210.5,333.9794 C210.5,372.9094 210.5,442.6894 210.5,481.4694" fill="none" id="MostrandoListado-to-FiltrandoListado" style="stroke:#008000;stroke-width:1;"/><polygon fill="#008000" points="210.5,487.4694,214.5,478.4694,210.5,482.4694,206.5,478.4694,210.5,487.4694" style="stroke:#008000;stroke-width:1;"/><path d="M215.5,356.6094 L215.5,464.6094 L480.5,464.6094 L480.5,366.6094 L470.5,356.6094 L215.5,356.6094" fill="#FEFFDD" style="stroke:#181818;stroke-width:0.5;"/><path d="M470.5,356.6094 L470.5,366.6094 L480.5,366.6094 L470.5,356.6094" fill="#FEFFDD" style="stroke:#181818;stroke-width:0.5;"/><text fill="#000000" font-family="sans-serif" font-size="13" font-weight="700" lengthAdjust="spacing" textLength="49.8608" x="221.5" y="375.1045">Sistema</text><text fill="#000000" font-family="sans-serif" font-size="13" lengthAdjust="spacing" textLength="191.5024" x="274.9727" y="375.1045">presenta listado de recompensas</text><text fill="#000000" font-family="sans-serif" font-size="13" lengthAdjust="spacing" textLength="34.1821" x="221.5" y="391.4561">&#8226; Tipo</text><text fill="#000000" font-family="sans-serif" font-size="13" lengthAdjust="spacing" textLength="60.9312" x="221.5" y="407.8076">&#8226; Cantidad</text><text fill="#000000" font-family="sans-serif" font-size="13" font-weight="700" lengthAdjust="spacing" textLength="49.8608" x="221.5" y="424.1592">Sistema</text><text fill="#000000" font-family="sans-serif" font-size="13" lengthAdjust="spacing" textLength="94.6372" x="274.9727" y="424.1592">permite solicitar:</text><text fill="#000000" font-family="sans-serif" font-size="13" lengthAdjust="spacing" textLength="110.0493" x="221.5" y="440.5107">&#8226; abrir recompensa</text><text fill="#000000" font-family="sans-serif" font-size="13" lengthAdjust="spacing" textLength="3.6118" x="221.5" y="456.8623">&#160;</text></g><!--link FiltrandoListado to *end*abrirRecompensas--><g class="link" data-entity-1="ent0006" data-entity-2="ent0007" data-link-type="dependency" data-source-line="36" id="lnk8"><path d="M210.5,537.6594 C210.5,560.2594 210.5,586.9894 210.5,603.4094" fill="none" id="FiltrandoListado-to-*end*abrirRecompensas" style="stroke:#008000;stroke-width:1;"/><polygon fill="#008000" points="210.5,609.4094,214.5,600.4094,210.5,604.4094,206.5,600.4094,210.5,609.4094" style="stroke:#008000;stroke-width:1;"/><path d="M215.5,560.6094 L215.5,586.6094 L486.5,586.6094 L486.5,570.6094 L476.5,560.6094 L215.5,560.6094" fill="#FEFFDD" style="stroke:#181818;stroke-width:0.5;"/><path d="M476.5,560.6094 L476.5,570.6094 L486.5,570.6094 L476.5,560.6094" fill="#FEFFDD" style="stroke:#181818;stroke-width:0.5;"/><text fill="#000000" font-family="sans-serif" font-size="13" font-weight="700" lengthAdjust="spacing" textLength="77.2954" x="221.5" y="579.1045">Investigador</text><text fill="#000000" font-family="sans-serif" font-size="13" lengthAdjust="spacing" textLength="169.1079" x="302.4072" y="579.1045">solicita una opci&#243;n del listado</text></g><g class="entity" data-qualified-name="RECOMPENSAS_ABIERTAS" id="ent0009"><rect fill="#F1F1F1" height="50" rx="12.5" ry="12.5" style="stroke:#181818;stroke-width:0.5;" width="205.9375" x="7" y="741"/><line style="stroke:#181818;stroke-width:0.5;" x1="7" x2="212.9375" y1="768.6094" y2="768.6094"/><text fill="#000000" font-family="sans-serif" font-size="14" lengthAdjust="spacing" textLength="185.9375" x="17" y="760.5332">RECOMPENSAS_ABIERTAS</text></g><g class="entity" data-qualified-name="RECOMPENSA_ABIERTA" id="ent0011"><rect fill="#F1F1F1" height="50" rx="12.5" ry="12.5" style="stroke:#181818;stroke-width:0.5;" width="187.2617" x="248.5" y="741"/><line style="stroke:#181818;stroke-width:0.5;" x1="248.5" x2="435.7617" y1="768.6094" y2="768.6094"/><text fill="#000000" font-family="sans-serif" font-size="14" lengthAdjust="spacing" textLength="167.2617" x="258.5" y="760.5332">RECOMPENSA_ABIERTA</text></g><g class="entity" data-qualified-name="PANEL_PRINCIPAL_ABIERTO" id="ent0013"><rect fill="#F1F1F1" height="50" rx="12.5" ry="12.5" style="stroke:#181818;stroke-width:0.5;" width="216.8477" x="470.5" y="741"/><line style="stroke:#181818;stroke-width:0.5;" x1="470.5" x2="687.3477" y1="768.6094" y2="768.6094"/><text fill="#000000" font-family="sans-serif" font-size="14" lengthAdjust="spacing" textLength="196.8477" x="480.5" y="760.5332">PANEL_PRINCIPAL_ABIERTO</text></g><!--link in1 to abrirRecompensas--><g class="link" data-entity-1="ent0002" data-entity-2="ent0004" data-link-type="dependency" data-source-line="5" id="lnk2"><path d="M231.83,57.23 C238.91,79.12 248.284,108.131 260.914,147.191" fill="none" id="in1-to-abrirRecompensas" style="stroke:#008000;stroke-width:1;"/><polygon fill="#008000" points="262.76,152.9,263.797,143.1059,261.2217,148.1425,256.185,145.5672,262.76,152.9" style="stroke:#008000;stroke-width:1;"/><path d="M258,92 L258,118 L396,118 L396,102 L386,92 L258,92" fill="#FEFFDD" style="stroke:#181818;stroke-width:0.5;"/><path d="M386,92 L386,102 L396,102 L386,92" fill="#FEFFDD" style="stroke:#181818;stroke-width:0.5;"/><text fill="#000000" font-family="sans-serif" font-size="13" lengthAdjust="spacing" textLength="117.7617" x="264" y="110.4951">abrirRecompensas()</text></g><!--link in2 to abrirRecompensas--><g class="link" data-entity-1="ent0003" data-entity-2="ent0004" data-link-type="dependency" data-source-line="11" id="lnk3"><path d="M453.1,57.23 C445.96,79.12 436.5105,108.1358 423.7705,147.1958" fill="none" id="in2-to-abrirRecompensas" style="stroke:#008000;stroke-width:1;"/><polygon fill="#008000" points="421.91,152.9,428.5036,145.584,423.4604,148.1465,420.898,143.1033,421.91,152.9" style="stroke:#008000;stroke-width:1;"/><path d="M446,92 L446,118 L584,118 L584,102 L574,92 L446,92" fill="#FEFFDD" style="stroke:#181818;stroke-width:0.5;"/><path d="M574,92 L574,102 L584,102 L574,92" fill="#FEFFDD" style="stroke:#181818;stroke-width:0.5;"/><text fill="#000000" font-family="sans-serif" font-size="13" lengthAdjust="spacing" textLength="117.7617" x="452" y="110.4951">abrirRecompensas()</text></g><!--link abrirRecompensas to RECOMPENSAS_ABIERTAS--><g class="link" data-entity-1="ent0004" data-entity-2="ent0009" data-link-type="dependency" data-source-line="43" id="lnk10"><path d="M186.13,645.23 C161.33,684.25 142.5184,713.8362 128.6184,735.7062" fill="none" id="abrirRecompensas-to-RECOMPENSAS_ABIERTAS" style="stroke:#008000;stroke-width:1;"/><polygon fill="#008000" points="125.4,740.77,133.6035,735.3199,128.082,736.5502,126.8518,731.0287,125.4,740.77" style="stroke:#008000;stroke-width:1;"/><path d="M172,680 L172,706 L325,706 L325,690 L315,680 L172,680" fill="#FEFFDD" style="stroke:#181818;stroke-width:0.5;"/><path d="M315,680 L315,690 L325,690 L315,680" fill="#FEFFDD" style="stroke:#181818;stroke-width:0.5;"/><text fill="#000000" font-family="sans-serif" font-size="13" lengthAdjust="spacing" textLength="132.958" x="178" y="698.4951">Recompensas abiertas</text></g><!--link abrirRecompensas to RECOMPENSA_ABIERTA--><g class="link" data-entity-1="ent0004" data-entity-2="ent0011" data-link-type="dependency" data-source-line="48" id="lnk12"><path d="M342,645.23 C342,684.25 342,712.9 342,734.77" fill="none" id="abrirRecompensas-to-RECOMPENSA_ABIERTA" style="stroke:#008000;stroke-width:1;"/><polygon fill="#008000" points="342,740.77,346,731.77,342,735.77,338,731.77,342,740.77" style="stroke:#008000;stroke-width:1;"/><path d="M347,680 L347,706 L479,706 L479,690 L469,680 L347,680" fill="#FEFFDD" style="stroke:#181818;stroke-width:0.5;"/><path d="M469,680 L469,690 L479,690 L469,680" fill="#FEFFDD" style="stroke:#181818;stroke-width:0.5;"/><text fill="#000000" font-family="sans-serif" font-size="13" lengthAdjust="spacing" textLength="111.2617" x="353" y="698.4951">abrirRecompensa()</text></g><!--link abrirRecompensas to PANEL_PRINCIPAL_ABIERTO--><g class="link" data-entity-1="ent0004" data-entity-2="ent0013" data-link-type="dependency" data-source-line="53" id="lnk14"><path d="M501.23,645.23 C526.57,684.25 545.8026,713.8677 560.0026,735.7377" fill="none" id="abrirRecompensas-to-PANEL_PRINCIPAL_ABIERTO" style="stroke:#008000;stroke-width:1;"/><polygon fill="#008000" points="563.27,740.77,561.7237,731.0433,560.5471,736.5764,555.014,735.3998,563.27,740.77" style="stroke:#008000;stroke-width:1;"/><path d="M544,680 L544,706 L682,706 L682,690 L672,680 L544,680" fill="#FEFFDD" style="stroke:#181818;stroke-width:0.5;"/><path d="M672,680 L672,690 L682,690 L672,680" fill="#FEFFDD" style="stroke:#181818;stroke-width:0.5;"/><text fill="#000000" font-family="sans-serif" font-size="13" lengthAdjust="spacing" textLength="117.7681" x="550" y="698.4951">abrirPanelPrincipal()</text></g><?plantuml-src hLDBQiCm4Dth5CBTj8LGccK90JUuOCZ7sDc5K6Hx22Ao92Ir44gXP-aLUeJUf2UfxCHnPJkXbDghqRnvRzumexUKIw98WHdbO7OIi1HiLmO8QKCCOCflCT7OYuF9OXO5yyH_zE_385xw7YfpWzN5HW7mzM2CIQgeYY4JXGIkYKPSM0R1I_OjQcSlhn3m79UOHcnOYKN-F9W-Hd4uduIHFpqeBah5uVygjY6LVBVEmoy8OVljgppxM-1CQAC8pyMKslTST14FbBc82hAwNZikUdaS9-N3A1s7_1cqeHkBKQERT8orO3IZXknzOFLZ4cL9uxQCsZ9E3vrEJ_MGs3mKf9AN2ZHmAyyEZ3bqUlXwUyTBAiKnc11kQ4xoNa9G1RMQjIzrTonhEwmIFIxRHXoNTl9_6EuJ9rZ8Z7v-SEkGrMvTyLU4EWldQ3SNbDGdbBZxwknXIa4PEyF6tI_PQ_Apj-2SmbdY4xVOmnuH3YnIb6TK4kOeV0C0?></g></svg>