<svg xmlns="http://www.w3.org/2000/svg" xmlns:xlink="http://www.w3.org/1999/xlink" contentStyleType="text/css" data-diagram-type="DESCRIPTION" height="558px" preserveAspectRatio="none" style="width:1761px;height:558px;background:#FFFFFF;" version="1.1" viewBox="0 0 1761 558" width="1761px" zoomAndPan="magnify"><?plantuml 1.2026.6?><defs/><g><!--cluster editarMiPublicacion--><g class="cluster" data-qualified-name="editarMiPublicacion" data-source-line="4" id="ent0002"><path d="M235.5,6 L378.0723,6 A3.75,3.75 0 0 1 380.5723,8.5 L387.5723,29.6094 L716.5,29.6094 A2.5,2.5 0 0 1 719,32.1094 L719,540.5 A2.5,2.5 0 0 1 716.5,543 L235.5,543 A2.5,2.5 0 0 1 233,540.5 L233,8.5 A2.5,2.5 0 0 1 235.5,6" fill="none" style="stroke:#000000;stroke-width:1.5;"/><line style="stroke:#000000;stroke-width:1.5;" x1="233" x2="387.5723" y1="29.6094" y2="29.6094"/><text fill="#000000" font-family="sans-serif" font-size="14" font-weight="700" lengthAdjust="spacing" textLength="141.5723" x="237" y="22.5332">editarMiPublicacion()</text></g><!--entity EditarPublicacionView--><g class="entity" data-qualified-name="editarMiPublicacion.EditarPublicacionView" data-source-line="5" id="ent0003"><rect fill="#629EF9" height="37.6094" rx="2.5" ry="2.5" style="stroke:#181818;stroke-width:0.5;" width="158.5166" x="543.5" y="42"/><text fill="#000000" font-family="sans-serif" font-size="14" lengthAdjust="spacing" textLength="138.5166" x="553.5" y="66.5332">EditarPublicacionView</text></g><!--entity PublicacionController--><g class="entity" data-qualified-name="editarMiPublicacion.PublicacionController" data-source-line="6" id="ent0004"><rect fill="#B5BD68" height="37.6094" rx="2.5" ry="2.5" style="stroke:#181818;stroke-width:0.5;" width="152.2891" x="356" y="158"/><text fill="#000000" font-family="sans-serif" font-size="14" lengthAdjust="spacing" textLength="132.2891" x="366" y="182.5332">PublicacionController</text></g><!--entity PublicacionService--><g class="entity" data-qualified-name="editarMiPublicacion.PublicacionService" data-source-line="7" id="ent0005"><rect fill="#B5BD68" height="37.6094" rx="2.5" ry="2.5" style="stroke:#181818;stroke-width:0.5;" width="138.2822" x="249" y="274"/><text fill="#000000" font-family="sans-serif" font-size="14" lengthAdjust="spacing" textLength="118.2822" x="259" y="298.5332">PublicacionService</text></g><!--entity SesionService--><g class="entity" data-qualified-name="editarMiPublicacion.SesionService" data-source-line="8" id="ent0006"><rect fill="#B5BD68" height="37.6094" rx="2.5" ry="2.5" style="stroke:#181818;stroke-width:0.5;" width="109.4893" x="437.5" y="274"/><text fill="#000000" font-family="sans-serif" font-size="14" lengthAdjust="spacing" textLength="89.4893" x="447.5" y="298.5332">SesionService</text></g><!--entity PublicacionRepository--><g class="entity" data-qualified-name="editarMiPublicacion.PublicacionRepository" data-source-line="9" id="ent0007"><rect fill="#F2AC4E" height="37.6094" rx="2.5" ry="2.5" style="stroke:#181818;stroke-width:0.5;" width="158.5166" x="302.5" y="390"/><text fill="#000000" font-family="sans-serif" font-size="14" lengthAdjust="spacing" textLength="138.5166" x="312.5" y="414.5332">PublicacionRepository</text></g><!--entity Publicacion--><g class="entity" data-qualified-name="editarMiPublicacion.Publicacion" data-source-line="10" id="ent0008"><rect fill="#F2AC4E" height="37.6094" rx="2.5" ry="2.5" style="stroke:#181818;stroke-width:0.5;" width="91.5996" x="336" y="489"/><text fill="#000000" font-family="sans-serif" font-size="14" lengthAdjust="spacing" textLength="71.5996" x="346" y="513.5332">Publicacion</text></g><!--entity EstadoEntrada--><g class="entity" data-qualified-name="EstadoEntrada" data-source-line="3" id="ent0001"><rect fill="#CDEBA5" height="37.6094" rx="2.5" ry="2.5" style="stroke:#181818;stroke-width:0.5;" width="209.8271" x="7" y="42"/><text fill="#000000" font-family="sans-serif" font-size="14" lengthAdjust="spacing" textLength="189.8271" x="17" y="66.5332">:MI_PUBLICACION_ABIERTA</text></g><!--entity EstadoSalida--><g class="entity" data-qualified-name="EstadoSalida" data-source-line="13" id="ent0009"><rect fill="#CDEBA5" height="37.6094" rx="2.5" ry="2.5" style="stroke:#181818;stroke-width:0.5;" width="209.8271" x="735" y="158"/><text fill="#000000" font-family="sans-serif" font-size="14" lengthAdjust="spacing" textLength="189.8271" x="745" y="182.5332">:MI_PUBLICACION_ABIERTA</text></g><!--entity EditarPublicacion--><g class="entity" data-qualified-name="EditarPublicacion" data-source-line="14" id="ent0010"><rect fill="#CDEBA5" height="37.6094" rx="2.5" ry="2.5" style="stroke:#181818;stroke-width:0.5;" width="218.4473" x="980" y="158"/><text fill="#000000" font-family="sans-serif" font-size="14" lengthAdjust="spacing" textLength="198.4473" x="990" y="182.5332">:Collaboration EditarPublicacion</text></g><!--entity EliminarPublicacion--><g class="entity" data-qualified-name="EliminarPublicacion" data-source-line="15" id="ent0011"><rect fill="#CDEBA5" height="37.6094" rx="2.5" ry="2.5" style="stroke:#181818;stroke-width:0.5;" width="232.4404" x="1233" y="158"/><text fill="#000000" font-family="sans-serif" font-size="14" lengthAdjust="spacing" textLength="212.4404" x="1243" y="182.5332">:Collaboration EliminarPublicacion</text></g><!--entity AbrirMisPublicaciones--><g class="entity" data-qualified-name="AbrirMisPublicaciones" data-source-line="16" id="ent0012"><rect fill="#CDEBA5" height="37.6094" rx="2.5" ry="2.5" style="stroke:#181818;stroke-width:0.5;" width="247.9922" x="1500" y="158"/><text fill="#000000" font-family="sans-serif" font-size="14" lengthAdjust="spacing" textLength="227.9922" x="1510" y="182.5332">:Collaboration AbrirMisPublicaciones</text></g><!--link EstadoEntrada to EditarPublicacionView--><g class="link" data-entity-1="ent0001" data-entity-2="ent0003" data-link-type="dependency" data-source-line="18" id="lnk13"><path d="M217.26,61 C314.11,61 450.64,61 538.39,61" fill="none" id="EstadoEntrada-to-EditarPublicacionView" style="stroke:#181818;stroke-width:1;"/><polygon fill="#181818" points="543.39,61,534.39,57,538.39,61,534.39,65,543.39,61" style="stroke:#181818;stroke-width:1;stroke-linejoin:miter;stroke-miterlimit:10;"/><text fill="#000000" font-family="sans-serif" font-size="13" lengthAdjust="spacing" textLength="121.3799" x="319.75" y="54.4951">editarMiPublicacion()</text></g><!--link EditarPublicacionView to PublicacionController--><g class="link" data-entity-1="ent0003" data-entity-2="ent0004" data-link-type="dependency" data-source-line="20" id="lnk14"><path d="M543.3,77.12 C469.14,91.19 370,110 370,110 C370,110 370,128 370,128 C370,128 387.0459,141.1998 404.6059,154.7898" fill="none" id="EditarPublicacionView-to-PublicacionController" style="stroke:#181818;stroke-width:1;"/><polygon fill="#181818" points="408.56,157.85,403.8907,149.1784,404.6059,154.7898,398.9944,155.505,408.56,157.85" style="stroke:#181818;stroke-width:1;stroke-linejoin:miter;stroke-miterlimit:10;"/><text fill="#000000" font-family="sans-serif" font-size="13" lengthAdjust="spacing" textLength="156.8062" x="371" y="124.4951">editarPublicacion(id, datos)</text></g><!--link EditarPublicacionView to PublicacionController--><g class="link" data-entity-1="ent0003" data-entity-2="ent0004" data-link-type="dependency" data-source-line="21" id="lnk15"><path d="M598.13,80.03 C571.19,99.58 532,128 532,128 C532,128 502.4078,142.2067 474.0278,155.8267" fill="none" id="EditarPublicacionView-to-PublicacionController-1" style="stroke:#181818;stroke-width:1;"/><polygon fill="#181818" points="469.52,157.99,479.3647,157.7022,474.0278,155.8267,475.9033,150.4898,469.52,157.99" style="stroke:#181818;stroke-width:1;stroke-linejoin:miter;stroke-miterlimit:10;"/><text fill="#000000" font-family="sans-serif" font-size="13" lengthAdjust="spacing" textLength="130.0508" x="557" y="124.4951">validarCambios(datos)</text></g><!--link PublicacionController to SesionService--><g class="link" data-entity-1="ent0004" data-entity-2="ent0006" data-link-type="dependency" data-source-line="22" id="lnk16"><path d="M441.51,196.06 C452.68,217.28 468.7699,247.8761 480.0099,269.2161" fill="none" id="PublicacionController-to-SesionService" style="stroke:#181818;stroke-width:1;"/><polygon fill="#181818" points="482.34,273.64,481.6849,263.813,480.0099,269.2161,474.6067,267.5411,482.34,273.64" style="stroke:#181818;stroke-width:1;stroke-linejoin:miter;stroke-miterlimit:10;"/><text fill="#000000" font-family="sans-serif" font-size="13" lengthAdjust="spacing" textLength="209.5806" x="466" y="240.4951">obtenerSesionActual(authentication)</text></g><!--link PublicacionController to PublicacionService--><g class="link" data-entity-1="ent0004" data-entity-2="ent0005" data-link-type="dependency" data-source-line="23" id="lnk17"><path d="M375.72,196.01 C333.16,209.63 282,226 282,226 C282,226 282,244 282,244 C282,244 291.2005,256.2596 301.3905,269.8496" fill="none" id="PublicacionController-to-PublicacionService" style="stroke:#181818;stroke-width:1;"/><polygon fill="#181818" points="304.39,273.85,302.1911,264.2497,301.3905,269.8496,295.7906,269.049,304.39,273.85" style="stroke:#181818;stroke-width:1;stroke-linejoin:miter;stroke-miterlimit:10;"/><text fill="#000000" font-family="sans-serif" font-size="13" lengthAdjust="spacing" textLength="166.1689" x="283" y="240.4951">actualizar(id, cambios, actor)</text></g><!--link PublicacionService to PublicacionRepository--><g class="link" data-entity-1="ent0005" data-entity-2="ent0007" data-link-type="dependency" data-source-line="24" id="lnk18"><path d="M310.44,312.15 C304.78,325.74 298,342 298,342 C298,342 298,360 298,360 C298,360 322.1189,373.7791 345.8989,387.3691" fill="none" id="PublicacionService-to-PublicacionRepository" style="stroke:#181818;stroke-width:1;"/><polygon fill="#181818" points="350.24,389.85,344.4107,381.9115,345.8989,387.3691,340.4413,388.8573,350.24,389.85" style="stroke:#181818;stroke-width:1;stroke-linejoin:miter;stroke-miterlimit:10;"/><text fill="#000000" font-family="sans-serif" font-size="13" lengthAdjust="spacing" textLength="93.939" x="299" y="356.4951">obtenerPorId(id)</text></g><!--link PublicacionService to PublicacionRepository--><g class="link" data-entity-1="ent0005" data-entity-2="ent0007" data-link-type="dependency" data-source-line="25" id="lnk19"><path d="M347.87,312.15 C370.24,325.74 397,342 397,342 C397,342 397,360 397,360 C397,360 393.4124,371.4879 389.1624,385.0779" fill="none" id="PublicacionService-to-PublicacionRepository-1" style="stroke:#181818;stroke-width:1;"/><polygon fill="#181818" points="387.67,389.85,394.1739,382.4541,389.1624,385.0779,386.5386,380.0663,387.67,389.85" style="stroke:#181818;stroke-width:1;stroke-linejoin:miter;stroke-miterlimit:10;"/><text fill="#000000" font-family="sans-serif" font-size="13" lengthAdjust="spacing" textLength="106.9453" x="398" y="356.4951">actualizar(entidad)</text></g><!--link PublicacionRepository to Publicacion--><g class="link" data-entity-1="ent0007" data-entity-2="ent0008" data-link-type="association" data-source-line="26" id="lnk20"><path d="M382,428.24 C382,445.59 382,471.52 382,488.84" fill="none" id="PublicacionRepository-Publicacion" style="stroke:#181818;stroke-width:1;"/></g><!--link EditarPublicacionView to EstadoSalida--><g class="link" data-entity-1="ent0003" data-entity-2="ent0009" data-link-type="dependency" data-source-line="27" id="lnk21"><path d="M657.38,80.06 C697.9,101.35 760.3937,134.1745 800.9937,155.5045" fill="none" id="EditarPublicacionView-to-EstadoSalida" style="stroke:#181818;stroke-width:1;stroke-dasharray:7,7;"/><polygon fill="#181818" points="805.42,157.83,799.313,150.1031,800.9937,155.5045,795.5923,157.1852,805.42,157.83" style="stroke:#181818;stroke-width:1;stroke-linejoin:miter;stroke-miterlimit:10;"/><text fill="#000000" font-family="sans-serif" font-size="13" lengthAdjust="spacing" textLength="130.7935" x="745" y="124.4951">continuarNavegacion()</text></g><!--link EditarPublicacionView to EditarPublicacion--><g class="link" data-entity-1="ent0003" data-entity-2="ent0010" data-link-type="dependency" data-source-line="28" id="lnk22"><path d="M702.73,76.66 C779.48,90.78 884,110 884,110 C884,110 967.5308,136.8869 1028.2208,156.4369" fill="none" id="EditarPublicacionView-to-EditarPublicacion" style="stroke:#181818;stroke-width:1;stroke-dasharray:7,7;"/><polygon fill="#181818" points="1032.98,157.97,1025.6399,151.4031,1028.2208,156.4369,1023.187,159.0178,1032.98,157.97" style="stroke:#181818;stroke-width:1;stroke-linejoin:miter;stroke-miterlimit:10;"/><text fill="#000000" font-family="sans-serif" font-size="13" lengthAdjust="spacing" textLength="107.6626" x="939" y="124.4951">editarPublicacion()</text></g><!--link EditarPublicacionView to EliminarPublicacion--><g class="link" data-entity-1="ent0003" data-entity-2="ent0011" data-link-type="dependency" data-source-line="29" id="lnk23"><path d="M702.74,70.86 C827.56,84.73 1055,110 1055,110 C1055,110 1176.7415,137.3243 1263.7815,156.8743" fill="none" id="EditarPublicacionView-to-EliminarPublicacion" style="stroke:#181818;stroke-width:1;stroke-dasharray:7,7;"/><polygon fill="#181818" points="1268.66,157.97,1260.7554,152.0949,1263.7815,156.8743,1259.0022,159.9004,1268.66,157.97" style="stroke:#181818;stroke-width:1;stroke-linejoin:miter;stroke-miterlimit:10;"/><text fill="#000000" font-family="sans-serif" font-size="13" lengthAdjust="spacing" textLength="120.6563" x="1134" y="124.4951">eliminarPublicacion()</text></g><!--link EditarPublicacionView to AbrirMisPublicaciones--><g class="link" data-entity-1="ent0003" data-entity-2="ent0012" data-link-type="dependency" data-source-line="30" id="lnk24"><path d="M702.76,67.98 C874.33,80.85 1263,110 1263,110 C1263,110 1413.5516,137.5204 1520.4416,157.0704" fill="none" id="EditarPublicacionView-to-AbrirMisPublicaciones" style="stroke:#181818;stroke-width:1;stroke-dasharray:7,7;"/><polygon fill="#181818" points="1525.36,157.97,1517.2265,152.416,1520.4416,157.0704,1515.7872,160.2855,1525.36,157.97" style="stroke:#181818;stroke-width:1;stroke-linejoin:miter;stroke-miterlimit:10;"/><text fill="#000000" font-family="sans-serif" font-size="13" lengthAdjust="spacing" textLength="135.0972" x="1360" y="124.4951">abrirMisPublicaciones()</text></g><?plantuml-src dPDDJ-Cm48Rl-HMZSYaIvO00BJaWfI58aVYewC8LJU9H6U7QaUqMbTN-ztLIM9B6BH-vPVpEa_6RT-mpgmeDpa6o8hUg22ejL_LB51ag7QgP9DXBBx9nSWA3-3f_dDoFh_8qIVFRcyTad6TtlvC1e8NCEXGwKywWmAZ2yXbd12JOeRdcoQAGN6B9MjNYGQ0-t1_0dmZyq_howT5PTda6MIDlYH-ONZQrnKaXJdz1IvLgFuwMaipdsYcP9PUqHJWbkrrpUPIanraRTaULjkoqMNskZVx-qEifIlPMXtfJVsaij45N6zvpRmtPh7w597dEAi3grxz0Imh3FWEsrKMsuGLFegYJCHYPqNau6J44y-K18JMCX0S5O_CEQcDO7810f-t-DjnsshBvPIR5US7Q3jymGN63wSGk1bquKcJMrQHq2vH3NBWdKixtrvxkWlN37WCs47v5qzohN0zsKDUrwS3UMZP97qd_Fzv4crnut7VRMxFK5nBO9Nn8FQIpGE7VS7XutbcK64hl1wi5cXjSqkmz53kwDqz2STW9wA-5H_IBEo71NV1kXSeUz0y0?></g></svg>