<svg xmlns="http://www.w3.org/2000/svg" xmlns:xlink="http://www.w3.org/1999/xlink" contentStyleType="text/css" data-diagram-type="DESCRIPTION" height="442px" preserveAspectRatio="none" style="width:1672px;height:442px;background:#FFFFFF;" version="1.1" viewBox="0 0 1672 442" width="1672px" zoomAndPan="magnify"><?plantuml 1.2026.4?><defs/><g><!--cluster editarMiPublicacion--><g class="cluster" data-qualified-name="editarMiPublicacion" data-source-line="4" id="ent0002"><path d="M235.5,6 L378.0723,6 A3.75,3.75 0 0 1 380.5723,8.5 L387.5723,29.6094 L627.5,29.6094 A2.5,2.5 0 0 1 630,32.1094 L630,424.5 A2.5,2.5 0 0 1 627.5,427 L235.5,427 A2.5,2.5 0 0 1 233,424.5 L233,8.5 A2.5,2.5 0 0 1 235.5,6" fill="none" style="stroke:#000000;stroke-width:1.5;"/><line style="stroke:#000000;stroke-width:1.5;" x1="233" x2="387.5723" y1="29.6094" y2="29.6094"/><text fill="#000000" font-family="sans-serif" font-size="14" font-weight="700" lengthAdjust="spacing" textLength="141.5723" x="237" y="22.5332">editarMiPublicacion()</text></g><!--entity EditarPublicacionView--><g class="entity" data-qualified-name="editarMiPublicacion.EditarPublicacionView" data-source-line="5" id="ent0003"><rect fill="#629EF9" height="37.6094" rx="2.5" ry="2.5" style="stroke:#181818;stroke-width:0.5;" width="158.5166" x="454.5" y="42"/><text fill="#000000" font-family="sans-serif" font-size="14" lengthAdjust="spacing" textLength="138.5166" x="464.5" y="66.5332">EditarPublicacionView</text></g><!--entity PublicacionController--><g class="entity" data-qualified-name="editarMiPublicacion.PublicacionController" data-source-line="6" id="ent0004"><rect fill="#B5BD68" height="37.6094" rx="2.5" ry="2.5" style="stroke:#181818;stroke-width:0.5;" width="152.2891" x="296" y="158"/><text fill="#000000" font-family="sans-serif" font-size="14" lengthAdjust="spacing" textLength="132.2891" x="306" y="182.5332">PublicacionController</text></g><!--entity PublicacionRepository--><g class="entity" data-qualified-name="editarMiPublicacion.PublicacionRepository" data-source-line="7" id="ent0005"><rect fill="#F2AC4E" height="37.6094" rx="2.5" ry="2.5" style="stroke:#181818;stroke-width:0.5;" width="158.5166" x="305.5" y="274"/><text fill="#000000" font-family="sans-serif" font-size="14" lengthAdjust="spacing" textLength="138.5166" x="315.5" y="298.5332">PublicacionRepository</text></g><!--entity Publicacion--><g class="entity" data-qualified-name="editarMiPublicacion.Publicacion" data-source-line="8" id="ent0006"><rect fill="#F2AC4E" height="37.6094" rx="2.5" ry="2.5" style="stroke:#181818;stroke-width:0.5;" width="91.5996" x="339" y="373"/><text fill="#000000" font-family="sans-serif" font-size="14" lengthAdjust="spacing" textLength="71.5996" x="349" y="397.5332">Publicacion</text></g><!--entity EstadoEntrada--><g class="entity" data-qualified-name="EstadoEntrada" data-source-line="3" id="ent0001"><rect fill="#CDEBA5" height="37.6094" rx="2.5" ry="2.5" style="stroke:#181818;stroke-width:0.5;" width="209.8271" x="7" y="42"/><text fill="#000000" font-family="sans-serif" font-size="14" lengthAdjust="spacing" textLength="189.8271" x="17" y="66.5332">:MI_PUBLICACION_ABIERTA</text></g><!--entity EstadoSalida--><g class="entity" data-qualified-name="EstadoSalida" data-source-line="11" id="ent0007"><rect fill="#CDEBA5" height="37.6094" rx="2.5" ry="2.5" style="stroke:#181818;stroke-width:0.5;" width="209.8271" x="646" y="158"/><text fill="#000000" font-family="sans-serif" font-size="14" lengthAdjust="spacing" textLength="189.8271" x="656" y="182.5332">:MI_PUBLICACION_ABIERTA</text></g><!--entity EditarPublicacion--><g class="entity" data-qualified-name="EditarPublicacion" data-source-line="12" id="ent0008"><rect fill="#CDEBA5" height="37.6094" rx="2.5" ry="2.5" style="stroke:#181818;stroke-width:0.5;" width="218.4473" x="891" y="158"/><text fill="#000000" font-family="sans-serif" font-size="14" lengthAdjust="spacing" textLength="198.4473" x="901" y="182.5332">:Collaboration EditarPublicacion</text></g><!--entity EliminarPublicacion--><g class="entity" data-qualified-name="EliminarPublicacion" data-source-line="13" id="ent0009"><rect fill="#CDEBA5" height="37.6094" rx="2.5" ry="2.5" style="stroke:#181818;stroke-width:0.5;" width="232.4404" x="1144" y="158"/><text fill="#000000" font-family="sans-serif" font-size="14" lengthAdjust="spacing" textLength="212.4404" x="1154" y="182.5332">:Collaboration EliminarPublicacion</text></g><!--entity AbrirMisPublicaciones--><g class="entity" data-qualified-name="AbrirMisPublicaciones" data-source-line="14" id="ent0010"><rect fill="#CDEBA5" height="37.6094" rx="2.5" ry="2.5" style="stroke:#181818;stroke-width:0.5;" width="247.9922" x="1411" y="158"/><text fill="#000000" font-family="sans-serif" font-size="14" lengthAdjust="spacing" textLength="227.9922" x="1421" y="182.5332">:Collaboration AbrirMisPublicaciones</text></g><!--link EstadoEntrada to EditarPublicacionView--><g class="link" data-entity-1="ent0001" data-entity-2="ent0003" data-link-type="dependency" data-source-line="16" id="lnk11"><path d="M217.13,61 C290.61,61 382.21,61 449.35,61" fill="none" id="EstadoEntrada-to-EditarPublicacionView" style="stroke:#181818;stroke-width:1;"/><polygon fill="#181818" points="454.35,61,445.35,57,449.35,61,445.35,65,454.35,61" style="stroke:#181818;stroke-width:1;stroke-linejoin:miter;stroke-miterlimit:10;"/><text fill="#000000" font-family="sans-serif" font-size="13" lengthAdjust="spacing" textLength="121.3799" x="275.25" y="54.4951">editarMiPublicacion()</text></g><!--link EditarPublicacionView to PublicacionController--><g class="link" data-entity-1="ent0003" data-entity-2="ent0004" data-link-type="dependency" data-source-line="18" id="lnk12"><path d="M454.3,77.12 C380.14,91.19 281,110 281,110 C281,110 281,128 281,128 C281,128 307.6072,142.0379 333.4372,155.6579" fill="none" id="EditarPublicacionView-to-PublicacionController" style="stroke:#181818;stroke-width:1;"/><polygon fill="#181818" points="337.86,157.99,331.7646,150.2539,333.4372,155.6579,328.0333,157.3304,337.86,157.99" style="stroke:#181818;stroke-width:1;stroke-linejoin:miter;stroke-miterlimit:10;"/><text fill="#000000" font-family="sans-serif" font-size="13" lengthAdjust="spacing" textLength="156.8062" x="282" y="124.4951">editarPublicacion(id, datos)</text></g><!--link EditarPublicacionView to PublicacionController--><g class="link" data-entity-1="ent0003" data-entity-2="ent0004" data-link-type="dependency" data-source-line="19" id="lnk13"><path d="M509.13,80.03 C482.19,99.58 443,128 443,128 C443,128 423.0927,141.4604 402.9827,155.0504" fill="none" id="EditarPublicacionView-to-PublicacionController-1" style="stroke:#181818;stroke-width:1;"/><polygon fill="#181818" points="398.84,157.85,408.5366,156.1249,402.9827,155.0504,404.0573,149.4965,398.84,157.85" style="stroke:#181818;stroke-width:1;stroke-linejoin:miter;stroke-miterlimit:10;"/><text fill="#000000" font-family="sans-serif" font-size="13" lengthAdjust="spacing" textLength="130.0508" x="468" y="124.4951">validarCambios(datos)</text></g><!--link PublicacionController to PublicacionRepository--><g class="link" data-entity-1="ent0004" data-entity-2="ent0005" data-link-type="dependency" data-source-line="20" id="lnk14"><path d="M345.91,196.15 C326.37,209.74 303,226 303,226 C303,226 303,244 303,244 C303,244 326.4647,257.7344 349.6847,271.3244" fill="none" id="PublicacionController-to-PublicacionRepository" style="stroke:#181818;stroke-width:1;"/><polygon fill="#181818" points="354,273.85,348.253,265.8517,349.6847,271.3244,344.2121,272.7561,354,273.85" style="stroke:#181818;stroke-width:1;stroke-linejoin:miter;stroke-miterlimit:10;"/><text fill="#000000" font-family="sans-serif" font-size="13" lengthAdjust="spacing" textLength="93.939" x="304" y="240.4951">obtenerPorId(id)</text></g><!--link PublicacionController to PublicacionRepository--><g class="link" data-entity-1="ent0004" data-entity-2="ent0005" data-link-type="dependency" data-source-line="21" id="lnk15"><path d="M383.34,196.15 C391.84,209.74 402,226 402,226 C402,226 402,244 402,244 C402,244 397.9083,255.5465 393.0983,269.1365" fill="none" id="PublicacionController-to-PublicacionRepository-1" style="stroke:#181818;stroke-width:1;"/><polygon fill="#181818" points="391.43,273.85,398.2037,266.7004,393.0983,269.1365,390.6621,264.0311,391.43,273.85" style="stroke:#181818;stroke-width:1;stroke-linejoin:miter;stroke-miterlimit:10;"/><text fill="#000000" font-family="sans-serif" font-size="13" lengthAdjust="spacing" textLength="106.9453" x="403" y="240.4951">actualizar(entidad)</text></g><!--link PublicacionRepository to Publicacion--><g class="link" data-entity-1="ent0005" data-entity-2="ent0006" data-link-type="association" data-source-line="22" id="lnk16"><path d="M385,312.24 C385,329.59 385,355.52 385,372.84" fill="none" id="PublicacionRepository-Publicacion" style="stroke:#181818;stroke-width:1;"/></g><!--link EditarPublicacionView to EstadoSalida--><g class="link" data-entity-1="ent0003" data-entity-2="ent0007" data-link-type="dependency" data-source-line="23" id="lnk17"><path d="M568.38,80.06 C608.9,101.35 671.3937,134.1745 711.9937,155.5045" fill="none" id="EditarPublicacionView-to-EstadoSalida" style="stroke:#181818;stroke-width:1;stroke-dasharray:7,7;"/><polygon fill="#181818" points="716.42,157.83,710.313,150.1031,711.9937,155.5045,706.5923,157.1852,716.42,157.83" style="stroke:#181818;stroke-width:1;stroke-linejoin:miter;stroke-miterlimit:10;"/><text fill="#000000" font-family="sans-serif" font-size="13" lengthAdjust="spacing" textLength="130.7935" x="656" y="124.4951">continuarNavegacion()</text></g><!--link EditarPublicacionView to EditarPublicacion--><g class="link" data-entity-1="ent0003" data-entity-2="ent0008" data-link-type="dependency" data-source-line="24" id="lnk18"><path d="M613.73,76.66 C690.48,90.78 795,110 795,110 C795,110 878.5308,136.8869 939.2208,156.4369" fill="none" id="EditarPublicacionView-to-EditarPublicacion" style="stroke:#181818;stroke-width:1;stroke-dasharray:7,7;"/><polygon fill="#181818" points="943.98,157.97,936.6399,151.4031,939.2208,156.4369,934.187,159.0178,943.98,157.97" style="stroke:#181818;stroke-width:1;stroke-linejoin:miter;stroke-miterlimit:10;"/><text fill="#000000" font-family="sans-serif" font-size="13" lengthAdjust="spacing" textLength="107.6626" x="850" y="124.4951">editarPublicacion()</text></g><!--link EditarPublicacionView to EliminarPublicacion--><g class="link" data-entity-1="ent0003" data-entity-2="ent0009" data-link-type="dependency" data-source-line="25" id="lnk19"><path d="M613.74,70.86 C738.56,84.73 966,110 966,110 C966,110 1087.7415,137.3243 1174.7815,156.8743" fill="none" id="EditarPublicacionView-to-EliminarPublicacion" style="stroke:#181818;stroke-width:1;stroke-dasharray:7,7;"/><polygon fill="#181818" points="1179.66,157.97,1171.7554,152.0949,1174.7815,156.8743,1170.0022,159.9004,1179.66,157.97" style="stroke:#181818;stroke-width:1;stroke-linejoin:miter;stroke-miterlimit:10;"/><text fill="#000000" font-family="sans-serif" font-size="13" lengthAdjust="spacing" textLength="120.6563" x="1045" y="124.4951">eliminarPublicacion()</text></g><!--link EditarPublicacionView to AbrirMisPublicaciones--><g class="link" data-entity-1="ent0003" data-entity-2="ent0010" data-link-type="dependency" data-source-line="26" id="lnk20"><path d="M613.76,67.98 C785.33,80.85 1174,110 1174,110 C1174,110 1324.5516,137.5204 1431.4416,157.0704" fill="none" id="EditarPublicacionView-to-AbrirMisPublicaciones" style="stroke:#181818;stroke-width:1;stroke-dasharray:7,7;"/><polygon fill="#181818" points="1436.36,157.97,1428.2265,152.416,1431.4416,157.0704,1426.7872,160.2855,1436.36,157.97" style="stroke:#181818;stroke-width:1;stroke-linejoin:miter;stroke-miterlimit:10;"/><text fill="#000000" font-family="sans-serif" font-size="13" lengthAdjust="spacing" textLength="135.0972" x="1271" y="124.4951">abrirMisPublicaciones()</text></g><?plantuml-src dP9TQy8m58Rl-oiEtOt2z4Acp5u8jQjGc4xSnwsSDa62CIb9TBYn_xxe5FiHdTYxdhpdoPjpNhra8aU5A-1CKBFDAUIIRtS_dgTePb0iE8Mxw2aUXbtmWt4odxuFdvCeZ9ANoJmS9l7iBVG1DSJQ896nC0e9UZbcIrnGe8GPL6CsNQUSPPWnANPYtr5lD7tuzi1-XPjxdNuywaEybnV47un-LhLfDoMzHoYe8cdjICwfgcf7dJ1wY8lQ6SsbPaQgxVzQx-V6yRmYPtOwhjx8-iHKAZIx6TKU_0UfLgyXSRPYmi6grw-WXQbYTcswq4NrdkSyyRnIBA2bMWFtCWDmHi82N6fe4GjoRle8Ac8OkGU2HkhcETnvscQ_CXNXAcLIDmuOfxYAEKKg09aQAgYQIfKGw-S60cPcRRryeMfGOQodCkGajP1IMDrFRhS7fL06a5aRJAnHJN135yS5NEYkdhX6Vn5GZw15r8iN8SxSsMcvoXRq2m00?></g></svg>