<svg xmlns="http://www.w3.org/2000/svg" xmlns:xlink="http://www.w3.org/1999/xlink" contentStyleType="text/css" height="818px" preserveAspectRatio="none" style="width:2038px;height:818px;background:#FFFFFF;" version="1.1" viewBox="0 0 2038 818" width="2038px" zoomAndPan="magnify"><title>Diagrama de secuencia - abrirMiPublicacion</title><defs/><g><text fill="#000000" font-family="sans-serif" font-size="14" font-weight="bold" lengthAdjust="spacing" textLength="293.3232" x="874.2585" y="29.5332">Diagrama de secuencia - abrirMiPublicacion</text><line style="stroke:#181818;stroke-width:0.5;stroke-dasharray:5.0,5.0;" x1="46" x2="46" y1="121.2188" y2="736.6016"/><line style="stroke:#181818;stroke-width:0.5;stroke-dasharray:5.0,5.0;" x1="298.2861" x2="298.2861" y1="121.2188" y2="736.6016"/><line style="stroke:#181818;stroke-width:0.5;stroke-dasharray:5.0,5.0;" x1="552.8389" x2="552.8389" y1="121.2188" y2="736.6016"/><line style="stroke:#181818;stroke-width:0.5;stroke-dasharray:5.0,5.0;" x1="785.8193" x2="785.8193" y1="121.2188" y2="736.6016"/><line style="stroke:#181818;stroke-width:0.5;stroke-dasharray:5.0,5.0;" x1="914.3086" x2="914.3086" y1="121.2188" y2="736.6016"/><line style="stroke:#181818;stroke-width:0.5;stroke-dasharray:5.0,5.0;" x1="1120.167" x2="1120.167" y1="121.2188" y2="736.6016"/><line style="stroke:#181818;stroke-width:0.5;stroke-dasharray:5.0,5.0;" x1="1271.8975" x2="1271.8975" y1="121.2188" y2="736.6016"/><line style="stroke:#181818;stroke-width:0.5;stroke-dasharray:5.0,5.0;" x1="1467.4141" x2="1467.4141" y1="121.2188" y2="736.6016"/><line style="stroke:#181818;stroke-width:0.5;stroke-dasharray:5.0,5.0;" x1="1686.8613" x2="1686.8613" y1="121.2188" y2="736.6016"/><line style="stroke:#181818;stroke-width:0.5;stroke-dasharray:5.0,5.0;" x1="1988.0063" x2="1988.0063" y1="121.2188" y2="736.6016"/><text fill="#000000" font-family="sans-serif" font-size="14" lengthAdjust="spacing" textLength="77.0479" x="5" y="118.1426">Coordinador</text><ellipse cx="46.5239" cy="52.1094" fill="#E2E2F0" rx="8" ry="8" style="stroke:#181818;stroke-width:0.5;"/><path d="M46.5239,60.1094 L46.5239,87.1094 M33.5239,68.1094 L59.5239,68.1094 M46.5239,87.1094 L33.5239,102.1094 M46.5239,87.1094 L59.5239,102.1094 " fill="none" style="stroke:#181818;stroke-width:0.5;"/><text fill="#000000" font-family="sans-serif" font-size="14" lengthAdjust="spacing" textLength="77.0479" x="5" y="750.1348">Coordinador</text><ellipse cx="46.5239" cy="761.7109" fill="#E2E2F0" rx="8" ry="8" style="stroke:#181818;stroke-width:0.5;"/><path d="M46.5239,769.7109 L46.5239,796.7109 M33.5239,777.7109 L59.5239,777.7109 M46.5239,796.7109 L33.5239,811.7109 M46.5239,796.7109 L59.5239,811.7109 " fill="none" style="stroke:#181818;stroke-width:0.5;"/><rect fill="#E2E2F0" height="49.2188" rx="2.5" ry="2.5" style="stroke:#181818;stroke-width:0.5;" width="161.0752" x="218.2861" y="71"/><text fill="#000000" font-family="sans-serif" font-size="14" lengthAdjust="spacing" textLength="147.0752" x="225.2861" y="92.5332">abrirMiPublicacionPage</text><text fill="#000000" font-family="sans-serif" font-size="14" lengthAdjust="spacing" textLength="45.8965" x="275.8755" y="110.1426">(React)</text><rect fill="#E2E2F0" height="49.2188" rx="2.5" ry="2.5" style="stroke:#181818;stroke-width:0.5;" width="161.0752" x="218.2861" y="735.6016"/><text fill="#000000" font-family="sans-serif" font-size="14" lengthAdjust="spacing" textLength="147.0752" x="225.2861" y="757.1348">abrirMiPublicacionPage</text><text fill="#000000" font-family="sans-serif" font-size="14" lengthAdjust="spacing" textLength="45.8965" x="275.8755" y="774.7441">(React)</text><rect fill="#E2E2F0" height="49.2188" rx="2.5" ry="2.5" style="stroke:#181818;stroke-width:0.5;" width="146.2891" x="479.8389" y="71"/><text fill="#000000" font-family="sans-serif" font-size="14" lengthAdjust="spacing" textLength="132.2891" x="486.8389" y="92.5332">PublicacionController</text><text fill="#000000" font-family="sans-serif" font-size="14" lengthAdjust="spacing" textLength="82.4824" x="511.7422" y="110.1426">(Spring Boot)</text><rect fill="#E2E2F0" height="49.2188" rx="2.5" ry="2.5" style="stroke:#181818;stroke-width:0.5;" width="146.2891" x="479.8389" y="735.6016"/><text fill="#000000" font-family="sans-serif" font-size="14" lengthAdjust="spacing" textLength="132.2891" x="486.8389" y="757.1348">PublicacionController</text><text fill="#000000" font-family="sans-serif" font-size="14" lengthAdjust="spacing" textLength="82.4824" x="511.7422" y="774.7441">(Spring Boot)</text><rect fill="#E2E2F0" height="31.6094" rx="2.5" ry="2.5" style="stroke:#181818;stroke-width:0.5;" width="103.4893" x="734.8193" y="88.6094"/><text fill="#000000" font-family="sans-serif" font-size="14" lengthAdjust="spacing" textLength="89.4893" x="741.8193" y="110.1426">SesionService</text><rect fill="#E2E2F0" height="31.6094" rx="2.5" ry="2.5" style="stroke:#181818;stroke-width:0.5;" width="103.4893" x="734.8193" y="735.6016"/><text fill="#000000" font-family="sans-serif" font-size="14" lengthAdjust="spacing" textLength="89.4893" x="741.8193" y="757.1348">SesionService</text><rect fill="#E2E2F0" height="31.6094" rx="2.5" ry="2.5" style="stroke:#181818;stroke-width:0.5;" width="132.2822" x="848.3086" y="88.6094"/><text fill="#000000" font-family="sans-serif" font-size="14" lengthAdjust="spacing" textLength="118.2822" x="855.3086" y="110.1426">PublicacionService</text><rect fill="#E2E2F0" height="31.6094" rx="2.5" ry="2.5" style="stroke:#181818;stroke-width:0.5;" width="132.2822" x="848.3086" y="735.6016"/><text fill="#000000" font-family="sans-serif" font-size="14" lengthAdjust="spacing" textLength="118.2822" x="855.3086" y="757.1348">PublicacionService</text><rect fill="#E2E2F0" height="31.6094" rx="2.5" ry="2.5" style="stroke:#181818;stroke-width:0.5;" width="130.7305" x="1055.167" y="88.6094"/><text fill="#000000" font-family="sans-serif" font-size="14" lengthAdjust="spacing" textLength="116.7305" x="1062.167" y="110.1426">PoliticaPublicacion</text><rect fill="#E2E2F0" height="31.6094" rx="2.5" ry="2.5" style="stroke:#181818;stroke-width:0.5;" width="130.7305" x="1055.167" y="735.6016"/><text fill="#000000" font-family="sans-serif" font-size="14" lengthAdjust="spacing" textLength="116.7305" x="1062.167" y="757.1348">PoliticaPublicacion</text><rect fill="#E2E2F0" height="31.6094" rx="2.5" ry="2.5" style="stroke:#181818;stroke-width:0.5;" width="152.5166" x="1195.8975" y="88.6094"/><text fill="#000000" font-family="sans-serif" font-size="14" lengthAdjust="spacing" textLength="138.5166" x="1202.8975" y="110.1426">PublicacionRepository</text><rect fill="#E2E2F0" height="31.6094" rx="2.5" ry="2.5" style="stroke:#181818;stroke-width:0.5;" width="152.5166" x="1195.8975" y="735.6016"/><text fill="#000000" font-family="sans-serif" font-size="14" lengthAdjust="spacing" textLength="138.5166" x="1202.8975" y="757.1348">PublicacionRepository</text><rect fill="#E2E2F0" height="31.6094" rx="2.5" ry="2.5" style="stroke:#181818;stroke-width:0.5;" width="219.4473" x="1358.4141" y="88.6094"/><text fill="#000000" font-family="sans-serif" font-size="14" lengthAdjust="spacing" textLength="205.4473" x="1365.4141" y="110.1426">RespuestaPublicacionRepository</text><rect fill="#E2E2F0" height="31.6094" rx="2.5" ry="2.5" style="stroke:#181818;stroke-width:0.5;" width="219.4473" x="1358.4141" y="735.6016"/><text fill="#000000" font-family="sans-serif" font-size="14" lengthAdjust="spacing" textLength="205.4473" x="1365.4141" y="757.1348">RespuestaPublicacionRepository</text><rect fill="#E2E2F0" height="31.6094" rx="2.5" ry="2.5" style="stroke:#181818;stroke-width:0.5;" width="199.1992" x="1587.8613" y="88.6094"/><text fill="#000000" font-family="sans-serif" font-size="14" lengthAdjust="spacing" textLength="185.1992" x="1594.8613" y="110.1426">ArchivoPublicacionRepository</text><rect fill="#E2E2F0" height="31.6094" rx="2.5" ry="2.5" style="stroke:#181818;stroke-width:0.5;" width="199.1992" x="1587.8613" y="735.6016"/><text fill="#000000" font-family="sans-serif" font-size="14" lengthAdjust="spacing" textLength="185.1992" x="1594.8613" y="757.1348">ArchivoPublicacionRepository</text><text fill="#000000" font-family="sans-serif" font-size="14" lengthAdjust="spacing" textLength="91.834" x="1940.0063" y="118.1426">Base de Datos</text><path d="M1970.9233,67.6094 C1970.9233,57.6094 1988.9233,57.6094 1988.9233,57.6094 C1988.9233,57.6094 2006.9233,57.6094 2006.9233,67.6094 L2006.9233,93.6094 C2006.9233,103.6094 1988.9233,103.6094 1988.9233,103.6094 C1988.9233,103.6094 1970.9233,103.6094 1970.9233,93.6094 L1970.9233,67.6094 " fill="#E2E2F0" style="stroke:#181818;stroke-width:1.5;"/><path d="M1970.9233,67.6094 C1970.9233,77.6094 1988.9233,77.6094 1988.9233,77.6094 C1988.9233,77.6094 2006.9233,77.6094 2006.9233,67.6094 " fill="none" style="stroke:#181818;stroke-width:1.5;"/><text fill="#000000" font-family="sans-serif" font-size="14" lengthAdjust="spacing" textLength="91.834" x="1940.0063" y="750.1348">Base de Datos</text><path d="M1970.9233,763.2109 C1970.9233,753.2109 1988.9233,753.2109 1988.9233,753.2109 C1988.9233,753.2109 2006.9233,753.2109 2006.9233,763.2109 L2006.9233,789.2109 C2006.9233,799.2109 1988.9233,799.2109 1988.9233,799.2109 C1988.9233,799.2109 1970.9233,799.2109 1970.9233,789.2109 L1970.9233,763.2109 " fill="#E2E2F0" style="stroke:#181818;stroke-width:1.5;"/><path d="M1970.9233,763.2109 C1970.9233,773.2109 1988.9233,773.2109 1988.9233,773.2109 C1988.9233,773.2109 2006.9233,773.2109 2006.9233,763.2109 " fill="none" style="stroke:#181818;stroke-width:1.5;"/><polygon fill="#181818" points="286.8237,149.5703,296.8237,153.5703,286.8237,157.5703,290.8237,153.5703" style="stroke:#181818;stroke-width:1;"/><line style="stroke:#181818;stroke-width:1;" x1="46.5239" x2="292.8237" y1="153.5703" y2="153.5703"/><text fill="#000000" font-family="sans-serif" font-size="13" lengthAdjust="spacing" textLength="160.3862" x="53.5239" y="148.7139">Solicita abrirMiPublicacion()</text><polygon fill="#181818" points="540.9834,179.9219,550.9834,183.9219,540.9834,187.9219,544.9834,183.9219" style="stroke:#181818;stroke-width:1;"/><line style="stroke:#181818;stroke-width:1;" x1="298.8237" x2="546.9834" y1="183.9219" y2="183.9219"/><text fill="#000000" font-family="sans-serif" font-size="13" lengthAdjust="spacing" textLength="230.1597" x="305.8237" y="179.0654">GET /api/publicaciones/me/{id} + cookie</text><polygon fill="#181818" points="774.564,210.2734,784.564,214.2734,774.564,218.2734,778.564,214.2734" style="stroke:#181818;stroke-width:1;"/><line style="stroke:#181818;stroke-width:1;" x1="552.9834" x2="780.564" y1="214.2734" y2="214.2734"/><text fill="#000000" font-family="sans-serif" font-size="13" lengthAdjust="spacing" textLength="209.5806" x="559.9834" y="209.417">obtenerSesionActual(authentication)</text><polygon fill="#181818" points="563.9834,240.625,553.9834,244.625,563.9834,248.625,559.9834,244.625" style="stroke:#181818;stroke-width:1;"/><line style="stroke:#181818;stroke-width:1;stroke-dasharray:2.0,2.0;" x1="557.9834" x2="785.564" y1="244.625" y2="244.625"/><text fill="#000000" font-family="sans-serif" font-size="13" lengthAdjust="spacing" textLength="101.1753" x="569.9834" y="239.7686">Actor autenticado</text><polygon fill="#181818" points="902.4497,270.9766,912.4497,274.9766,902.4497,278.9766,906.4497,274.9766" style="stroke:#181818;stroke-width:1;"/><line style="stroke:#181818;stroke-width:1;" x1="552.9834" x2="908.4497" y1="274.9766" y2="274.9766"/><text fill="#000000" font-family="sans-serif" font-size="13" lengthAdjust="spacing" textLength="98.9917" x="559.9834" y="270.1201">obtener(id, actor)</text><polygon fill="#181818" points="1260.1558,301.3281,1270.1558,305.3281,1260.1558,309.3281,1264.1558,305.3281" style="stroke:#181818;stroke-width:1;"/><line style="stroke:#181818;stroke-width:1;" x1="914.4497" x2="1266.1558" y1="305.3281" y2="305.3281"/><text fill="#000000" font-family="sans-serif" font-size="13" lengthAdjust="spacing" textLength="138.0171" x="921.4497" y="300.4717">findByIdAndRetirada(id)</text><polygon fill="#181818" points="1976.9233,348.0313,1986.9233,352.0313,1976.9233,356.0313,1980.9233,352.0313" style="stroke:#181818;stroke-width:1;"/><line style="stroke:#181818;stroke-width:1;" x1="1272.1558" x2="1982.9233" y1="352.0313" y2="352.0313"/><text fill="#000000" font-family="sans-serif" font-size="13" lengthAdjust="spacing" textLength="183.5107" x="1279.1558" y="330.8232">SELECT * FROM publicaciones</text><text fill="#000000" font-family="sans-serif" font-size="13" lengthAdjust="spacing" textLength="205.188" x="1279.1558" y="347.1748">WHERE id = ? AND retirada = false</text><polygon fill="#181818" points="1283.1558,378.3828,1273.1558,382.3828,1283.1558,386.3828,1279.1558,382.3828" style="stroke:#181818;stroke-width:1;"/><line style="stroke:#181818;stroke-width:1;stroke-dasharray:2.0,2.0;" x1="1277.1558" x2="1987.9233" y1="382.3828" y2="382.3828"/><text fill="#000000" font-family="sans-serif" font-size="13" lengthAdjust="spacing" textLength="107.6689" x="1289.1558" y="377.5264">Publicacion / vacio</text><polygon fill="#181818" points="1108.5322,408.7344,1118.5322,412.7344,1108.5322,416.7344,1112.5322,412.7344" style="stroke:#181818;stroke-width:1;"/><line style="stroke:#181818;stroke-width:1;" x1="914.4497" x2="1114.5322" y1="412.7344" y2="412.7344"/><text fill="#000000" font-family="sans-serif" font-size="13" lengthAdjust="spacing" textLength="182.0825" x="921.4497" y="407.8779">exigirAutoria(actor, publicacion)</text><polygon fill="#181818" points="1456.1377,439.0859,1466.1377,443.0859,1456.1377,447.0859,1460.1377,443.0859" style="stroke:#181818;stroke-width:1;"/><line style="stroke:#181818;stroke-width:1;" x1="914.4497" x2="1462.1377" y1="443.0859" y2="443.0859"/><text fill="#000000" font-family="sans-serif" font-size="13" lengthAdjust="spacing" textLength="216.7661" x="921.4497" y="438.2295">findByPublicacionIdOrderByFecha(id)</text><polygon fill="#181818" points="1976.9233,485.7891,1986.9233,489.7891,1976.9233,493.7891,1980.9233,489.7891" style="stroke:#181818;stroke-width:1;"/><line style="stroke:#181818;stroke-width:1;" x1="1468.1377" x2="1982.9233" y1="489.7891" y2="489.7891"/><text fill="#000000" font-family="sans-serif" font-size="13" lengthAdjust="spacing" textLength="240.6016" x="1475.1377" y="468.5811">SELECT * FROM respuestas_publicacion</text><text fill="#000000" font-family="sans-serif" font-size="13" lengthAdjust="spacing" textLength="263.3643" x="1475.1377" y="484.9326">WHERE publicacion_id = ? ORDER BY fecha</text><polygon fill="#181818" points="1479.1377,516.1406,1469.1377,520.1406,1479.1377,524.1406,1475.1377,520.1406" style="stroke:#181818;stroke-width:1;"/><line style="stroke:#181818;stroke-width:1;stroke-dasharray:2.0,2.0;" x1="1473.1377" x2="1987.9233" y1="520.1406" y2="520.1406"/><text fill="#000000" font-family="sans-serif" font-size="13" lengthAdjust="spacing" textLength="68.6499" x="1485.1377" y="515.2842">Respuestas</text><polygon fill="#181818" points="1675.4609,546.4922,1685.4609,550.4922,1675.4609,554.4922,1679.4609,550.4922" style="stroke:#181818;stroke-width:1;"/><line style="stroke:#181818;stroke-width:1;" x1="914.4497" x2="1681.4609" y1="550.4922" y2="550.4922"/><text fill="#000000" font-family="sans-serif" font-size="13" lengthAdjust="spacing" textLength="286.8633" x="921.4497" y="545.6357">findByPublicacionIdOrderByFechaSubidaDesc(id)</text><polygon fill="#181818" points="1976.9233,593.1953,1986.9233,597.1953,1976.9233,601.1953,1980.9233,597.1953" style="stroke:#181818;stroke-width:1;"/><line style="stroke:#181818;stroke-width:1;" x1="1687.4609" x2="1982.9233" y1="597.1953" y2="597.1953"/><text fill="#000000" font-family="sans-serif" font-size="13" lengthAdjust="spacing" textLength="225.418" x="1694.4609" y="575.9873">SELECT * FROM archivos_publicacion</text><text fill="#000000" font-family="sans-serif" font-size="13" lengthAdjust="spacing" textLength="277.4624" x="1694.4609" y="592.3389">WHERE publicacion_id = ? AND retirado = false</text><polygon fill="#181818" points="1698.4609,623.5469,1688.4609,627.5469,1698.4609,631.5469,1694.4609,627.5469" style="stroke:#181818;stroke-width:1;"/><line style="stroke:#181818;stroke-width:1;stroke-dasharray:2.0,2.0;" x1="1692.4609" x2="1987.9233" y1="627.5469" y2="627.5469"/><text fill="#000000" font-family="sans-serif" font-size="13" lengthAdjust="spacing" textLength="50.5908" x="1704.4609" y="622.6904">Adjuntos</text><polygon fill="#181818" points="563.9834,653.8984,553.9834,657.8984,563.9834,661.8984,559.9834,657.8984" style="stroke:#181818;stroke-width:1;"/><line style="stroke:#181818;stroke-width:1;stroke-dasharray:2.0,2.0;" x1="557.9834" x2="913.4497" y1="657.8984" y2="657.8984"/><text fill="#000000" font-family="sans-serif" font-size="13" lengthAdjust="spacing" textLength="153.2134" x="569.9834" y="653.042">Resultado del caso de uso</text><polygon fill="#181818" points="309.8237,684.25,299.8237,688.25,309.8237,692.25,305.8237,688.25" style="stroke:#181818;stroke-width:1;"/><line style="stroke:#181818;stroke-width:1;stroke-dasharray:2.0,2.0;" x1="303.8237" x2="551.9834" y1="688.25" y2="688.25"/><text fill="#000000" font-family="sans-serif" font-size="13" lengthAdjust="spacing" textLength="181.3779" x="315.8237" y="683.3936">200 OK (PublicacionResponse)</text><polygon fill="#181818" points="57.5239,714.6016,47.5239,718.6016,57.5239,722.6016,53.5239,718.6016" style="stroke:#181818;stroke-width:1;"/><line style="stroke:#181818;stroke-width:1;stroke-dasharray:2.0,2.0;" x1="51.5239" x2="297.8237" y1="718.6016" y2="718.6016"/><text fill="#000000" font-family="sans-serif" font-size="13" lengthAdjust="spacing" textLength="228.2998" x="63.5239" y="713.7451">Presenta MI_PUBLICACION_ABIERTA</text><!--SRC=[ZLDTRzim37ptho3wb6mjKkmnm3ROiRi5Qvl2oJ0CA10m4fjoSoL3aei5G__x93jkv7viUp5awexaaIV7hYB86RS6xn0aWINHa1ACS0AuCMmk-AhPL2nGi5O92gSDpBGsaXLARP8QZMF1DIe7HyyPLxYbQpKgoJF7Hu0MpenMZfGSCYFApDyRNLLaF75P6rPRoBJUqzEQXymbMKzQahbdGIsaYxoQVmXjpq-mkcB_Xn6d1OUusBsQjwHQM_RpsRNey3l4bcJhXgp3lv5i_PoO6d7Bz_frsXxGCYKwtA0bECh2r-yqHwTjYykp98cM1oSV7jSnXMMGnmvVsFjedFIumF4xcCAdOWKJh7bI7t1a9tSq-Sto0Tw2qFedK-B1WTCjPGfwuxEGwNvJuHgiHjYuMr9XvCu7nqbt2ITzgRHrdKTr8AaFITlrFMOTiJo6rgCXINiNO64kKxXX9RFTNAPAbkJOe4IF7oVXDg3opC-WE2zcAtW3P-NY0WRAhjMtpqLP04ju3nyXlSp1xDFum0rMbf8yQvlkwaNpWmdSXqFSLEUcAT0lth996zyquwXj_ZYk_4H9vuzUJLHZBXT6aibsPoHkUsKT-cLrfhUZNKVbUfbHQBsNl2ZpeeJiEzo42WUnVKkF_hPnov4t_zdrijcmn9oiQFkFg2zBm0xmlmAYdUcdEnkqcSeVZVAFvg2ZjwBNs5Gky2LL8D260pHsRyd1WtftUWgBBp0Ql5jRQsKfVa-U4xr9xnk_66zqX8lv-kfhTZwVfRFvudATPlEYNAL_0000]--></g></svg>