<svg xmlns="http://www.w3.org/2000/svg" xmlns:xlink="http://www.w3.org/1999/xlink" contentStyleType="text/css" height="2106px" preserveAspectRatio="none" style="width:2776px;height:2106px;background:#FFFFFF;" version="1.1" viewBox="0 0 2776 2106" width="2776px" zoomAndPan="magnify"><title>Diagrama de secuencia - Desasignar investigador de proyecto</title><defs/><g><text fill="#000000" font-family="sans-serif" font-size="14" font-weight="bold" lengthAdjust="spacing" textLength="413.9297" x="1182.406" y="29.5332">Diagrama de secuencia - Desasignar investigador de proyecto</text><rect fill="#FFFFFF" height="1860.625" style="stroke:#181818;stroke-width:1;" width="10" x="426.1909" y="153.5703"/><rect fill="#FFFFFF" height="572.6797" style="stroke:#181818;stroke-width:1;" width="10" x="912.6411" y="200.2734"/><rect fill="#FFFFFF" height="298.5156" style="stroke:#181818;stroke-width:1;" width="10" x="912.6411" y="1228.7344"/><rect fill="#FFFFFF" height="55.7031" style="stroke:#181818;stroke-width:1;" width="10" x="1256.7915" y="230.625"/><rect fill="#FFFFFF" height="456.2734" style="stroke:#181818;stroke-width:1;" width="10" x="1376.5015" y="286.3281"/><rect fill="#FFFFFF" height="177.1094" style="stroke:#181818;stroke-width:1;" width="10" x="1376.5015" y="1319.7891"/><rect fill="none" height="1761.5703" style="stroke:#000000;stroke-width:1.5;" width="2759.7417" x="10" y="245.625"/><rect fill="none" height="1191.4063" style="stroke:#000000;stroke-width:1.5;" width="2739.7417" x="20" y="701.8984"/><rect fill="none" height="821.5156" style="stroke:#000000;stroke-width:1.5;" width="2719.7417" x="30" y="1064.7891"/><rect fill="none" height="423.1094" style="stroke:#000000;stroke-width:1.5;" width="2699.7417" x="40" y="1456.1953"/><line style="stroke:#181818;stroke-width:0.5;stroke-dasharray:5.0,5.0;" x1="91" x2="91" y1="121.2188" y2="2024.1953"/><line style="stroke:#181818;stroke-width:0.5;stroke-dasharray:5.0,5.0;" x1="430.4292" x2="430.4292" y1="121.2188" y2="2024.1953"/><line style="stroke:#181818;stroke-width:0.5;stroke-dasharray:5.0,5.0;" x1="916.6724" x2="916.6724" y1="121.2188" y2="2024.1953"/><line style="stroke:#181818;stroke-width:0.5;stroke-dasharray:5.0,5.0;" x1="1261.0469" x2="1261.0469" y1="121.2188" y2="2024.1953"/><line style="stroke:#181818;stroke-width:0.5;stroke-dasharray:5.0,5.0;" x1="1380.5361" x2="1380.5361" y1="121.2188" y2="2024.1953"/><line style="stroke:#181818;stroke-width:0.5;stroke-dasharray:5.0,5.0;" x1="1700.2358" x2="1700.2358" y1="121.2188" y2="2024.1953"/><line style="stroke:#181818;stroke-width:0.5;stroke-dasharray:5.0,5.0;" x1="1842.4009" x2="1842.4009" y1="121.2188" y2="2024.1953"/><line style="stroke:#181818;stroke-width:0.5;stroke-dasharray:5.0,5.0;" x1="1991.5591" x2="1991.5591" y1="121.2188" y2="2024.1953"/><line style="stroke:#181818;stroke-width:0.5;stroke-dasharray:5.0,5.0;" x1="2679.9077" x2="2679.9077" y1="121.2188" y2="2024.1953"/><text fill="#000000" font-family="sans-serif" font-size="14" lengthAdjust="spacing" textLength="77.0479" x="50" y="118.1426">Coordinador</text><ellipse cx="91.5239" cy="52.1094" fill="#E2E2F0" rx="8" ry="8" style="stroke:#181818;stroke-width:0.5;"/><path d="M91.5239,60.1094 L91.5239,87.1094 M78.5239,68.1094 L104.5239,68.1094 M91.5239,87.1094 L78.5239,102.1094 M91.5239,87.1094 L104.5239,102.1094 " fill="none" style="stroke:#181818;stroke-width:0.5;"/><text fill="#000000" font-family="sans-serif" font-size="14" lengthAdjust="spacing" textLength="77.0479" x="50" y="2037.7285">Coordinador</text><ellipse cx="91.5239" cy="2049.3047" fill="#E2E2F0" rx="8" ry="8" style="stroke:#181818;stroke-width:0.5;"/><path d="M91.5239,2057.3047 L91.5239,2084.3047 M78.5239,2065.3047 L104.5239,2065.3047 M91.5239,2084.3047 L78.5239,2099.3047 M91.5239,2084.3047 L104.5239,2099.3047 " fill="none" style="stroke:#181818;stroke-width:0.5;"/><rect fill="#E2E2F0" height="49.2188" rx="2.5" ry="2.5" style="stroke:#181818;stroke-width:0.5;" width="145.5234" x="358.4292" y="71"/><text fill="#000000" font-family="sans-serif" font-size="14" lengthAdjust="spacing" textLength="131.5234" x="365.4292" y="92.5332">ProyectoDetallePage</text><text fill="#000000" font-family="sans-serif" font-size="14" lengthAdjust="spacing" textLength="45.8965" x="408.2427" y="110.1426">(React)</text><rect fill="#E2E2F0" height="49.2188" rx="2.5" ry="2.5" style="stroke:#181818;stroke-width:0.5;" width="145.5234" x="358.4292" y="2023.1953"/><text fill="#000000" font-family="sans-serif" font-size="14" lengthAdjust="spacing" textLength="131.5234" x="365.4292" y="2044.7285">ProyectoDetallePage</text><text fill="#000000" font-family="sans-serif" font-size="14" lengthAdjust="spacing" textLength="45.8965" x="408.2427" y="2062.3379">(React)</text><rect fill="#E2E2F0" height="49.2188" rx="2.5" ry="2.5" style="stroke:#181818;stroke-width:0.5;" width="129.9375" x="852.6724" y="71"/><text fill="#000000" font-family="sans-serif" font-size="14" lengthAdjust="spacing" textLength="115.9375" x="859.6724" y="92.5332">ProyectoController</text><text fill="#000000" font-family="sans-serif" font-size="14" lengthAdjust="spacing" textLength="82.4824" x="876.3999" y="110.1426">(Spring Boot)</text><rect fill="#E2E2F0" height="49.2188" rx="2.5" ry="2.5" style="stroke:#181818;stroke-width:0.5;" width="129.9375" x="852.6724" y="2023.1953"/><text fill="#000000" font-family="sans-serif" font-size="14" lengthAdjust="spacing" textLength="115.9375" x="859.6724" y="2044.7285">ProyectoController</text><text fill="#000000" font-family="sans-serif" font-size="14" lengthAdjust="spacing" textLength="82.4824" x="876.3999" y="2062.3379">(Spring Boot)</text><rect fill="#E2E2F0" height="31.6094" rx="2.5" ry="2.5" style="stroke:#181818;stroke-width:0.5;" width="103.4893" x="1210.0469" y="88.6094"/><text fill="#000000" font-family="sans-serif" font-size="14" lengthAdjust="spacing" textLength="89.4893" x="1217.0469" y="110.1426">SesionService</text><rect fill="#E2E2F0" height="31.6094" rx="2.5" ry="2.5" style="stroke:#181818;stroke-width:0.5;" width="103.4893" x="1210.0469" y="2023.1953"/><text fill="#000000" font-family="sans-serif" font-size="14" lengthAdjust="spacing" textLength="89.4893" x="1217.0469" y="2044.7285">SesionService</text><rect fill="#E2E2F0" height="31.6094" rx="2.5" ry="2.5" style="stroke:#181818;stroke-width:0.5;" width="115.9307" x="1323.5361" y="88.6094"/><text fill="#000000" font-family="sans-serif" font-size="14" lengthAdjust="spacing" textLength="101.9307" x="1330.5361" y="110.1426">ProyectoService</text><rect fill="#E2E2F0" height="31.6094" rx="2.5" ry="2.5" style="stroke:#181818;stroke-width:0.5;" width="115.9307" x="1323.5361" y="2023.1953"/><text fill="#000000" font-family="sans-serif" font-size="14" lengthAdjust="spacing" textLength="101.9307" x="1330.5361" y="2044.7285">ProyectoService</text><rect fill="#E2E2F0" height="31.6094" rx="2.5" ry="2.5" style="stroke:#181818;stroke-width:0.5;" width="136.165" x="1632.2358" y="88.6094"/><text fill="#000000" font-family="sans-serif" font-size="14" lengthAdjust="spacing" textLength="122.165" x="1639.2358" y="110.1426">ProyectoRepository</text><rect fill="#E2E2F0" height="31.6094" rx="2.5" ry="2.5" style="stroke:#181818;stroke-width:0.5;" width="136.165" x="1632.2358" y="2023.1953"/><text fill="#000000" font-family="sans-serif" font-size="14" lengthAdjust="spacing" textLength="122.165" x="1639.2358" y="2044.7285">ProyectoRepository</text><rect fill="#E2E2F0" height="31.6094" rx="2.5" ry="2.5" style="stroke:#181818;stroke-width:0.5;" width="129.1582" x="1778.4009" y="88.6094"/><text fill="#000000" font-family="sans-serif" font-size="14" lengthAdjust="spacing" textLength="115.1582" x="1785.4009" y="110.1426">UsuarioRepository</text><rect fill="#E2E2F0" height="31.6094" rx="2.5" ry="2.5" style="stroke:#181818;stroke-width:0.5;" width="129.1582" x="1778.4009" y="2023.1953"/><text fill="#000000" font-family="sans-serif" font-size="14" lengthAdjust="spacing" textLength="115.1582" x="1785.4009" y="2044.7285">UsuarioRepository</text><rect fill="#E2E2F0" height="31.6094" rx="2.5" ry="2.5" style="stroke:#181818;stroke-width:0.5;" width="148.6338" x="1917.5591" y="88.6094"/><text fill="#000000" font-family="sans-serif" font-size="14" lengthAdjust="spacing" textLength="134.6338" x="1924.5591" y="110.1426">EntregableRepository</text><rect fill="#E2E2F0" height="31.6094" rx="2.5" ry="2.5" style="stroke:#181818;stroke-width:0.5;" width="148.6338" x="1917.5591" y="2023.1953"/><text fill="#000000" font-family="sans-serif" font-size="14" lengthAdjust="spacing" textLength="134.6338" x="1924.5591" y="2044.7285">EntregableRepository</text><text fill="#000000" font-family="sans-serif" font-size="14" lengthAdjust="spacing" textLength="91.834" x="2631.9077" y="118.1426">Base de Datos</text><path d="M2662.8247,67.6094 C2662.8247,57.6094 2680.8247,57.6094 2680.8247,57.6094 C2680.8247,57.6094 2698.8247,57.6094 2698.8247,67.6094 L2698.8247,93.6094 C2698.8247,103.6094 2680.8247,103.6094 2680.8247,103.6094 C2680.8247,103.6094 2662.8247,103.6094 2662.8247,93.6094 L2662.8247,67.6094 " fill="#E2E2F0" style="stroke:#181818;stroke-width:1.5;"/><path d="M2662.8247,67.6094 C2662.8247,77.6094 2680.8247,77.6094 2680.8247,77.6094 C2680.8247,77.6094 2698.8247,77.6094 2698.8247,67.6094 " fill="none" style="stroke:#181818;stroke-width:1.5;"/><text fill="#000000" font-family="sans-serif" font-size="14" lengthAdjust="spacing" textLength="91.834" x="2631.9077" y="2037.7285">Base de Datos</text><path d="M2662.8247,2050.8047 C2662.8247,2040.8047 2680.8247,2040.8047 2680.8247,2040.8047 C2680.8247,2040.8047 2698.8247,2040.8047 2698.8247,2050.8047 L2698.8247,2076.8047 C2698.8247,2086.8047 2680.8247,2086.8047 2680.8247,2086.8047 C2680.8247,2086.8047 2662.8247,2086.8047 2662.8247,2076.8047 L2662.8247,2050.8047 " fill="#E2E2F0" style="stroke:#181818;stroke-width:1.5;"/><path d="M2662.8247,2050.8047 C2662.8247,2060.8047 2680.8247,2060.8047 2680.8247,2060.8047 C2680.8247,2060.8047 2698.8247,2060.8047 2698.8247,2050.8047 " fill="none" style="stroke:#181818;stroke-width:1.5;"/><rect fill="#FFFFFF" height="1860.625" style="stroke:#181818;stroke-width:1;" width="10" x="426.1909" y="153.5703"/><rect fill="#FFFFFF" height="572.6797" style="stroke:#181818;stroke-width:1;" width="10" x="912.6411" y="200.2734"/><rect fill="#FFFFFF" height="298.5156" style="stroke:#181818;stroke-width:1;" width="10" x="912.6411" y="1228.7344"/><rect fill="#FFFFFF" height="55.7031" style="stroke:#181818;stroke-width:1;" width="10" x="1256.7915" y="230.625"/><rect fill="#FFFFFF" height="456.2734" style="stroke:#181818;stroke-width:1;" width="10" x="1376.5015" y="286.3281"/><rect fill="#FFFFFF" height="177.1094" style="stroke:#181818;stroke-width:1;" width="10" x="1376.5015" y="1319.7891"/><polygon fill="#181818" points="414.1909,149.5703,424.1909,153.5703,414.1909,157.5703,418.1909,153.5703" style="stroke:#181818;stroke-width:1;"/><line style="stroke:#181818;stroke-width:1;" x1="91.5239" x2="420.1909" y1="153.5703" y2="153.5703"/><text fill="#000000" font-family="sans-serif" font-size="13" lengthAdjust="spacing" textLength="257.2578" x="98.5239" y="148.7139">Solicita desasignar investigador del proyecto</text><polygon fill="#181818" points="900.6411,196.2734,910.6411,200.2734,900.6411,204.2734,904.6411,200.2734" style="stroke:#181818;stroke-width:1;"/><line style="stroke:#181818;stroke-width:1;" x1="436.1909" x2="906.6411" y1="200.2734" y2="200.2734"/><text fill="#000000" font-family="sans-serif" font-size="13" lengthAdjust="spacing" textLength="457.4502" x="443.1909" y="179.0654">GET /api/proyectos/{id}/investigadores/{investigadorId}/opciones-desasignacion</text><text fill="#000000" font-family="sans-serif" font-size="13" lengthAdjust="spacing" textLength="99.728" x="443.1909" y="195.417">Cookie de sesion</text><polygon fill="#181818" points="1244.7915,226.625,1254.7915,230.625,1244.7915,234.625,1248.7915,230.625" style="stroke:#181818;stroke-width:1;"/><line style="stroke:#181818;stroke-width:1;" x1="922.6411" x2="1250.7915" y1="230.625" y2="230.625"/><text fill="#000000" font-family="sans-serif" font-size="13" lengthAdjust="spacing" textLength="209.5806" x="929.6411" y="225.7686">obtenerSesionActual(authentication)</text><path d="M10,245.625 L70.1709,245.625 L70.1709,253.9766 L60.1709,263.9766 L10,263.9766 L10,245.625 " fill="#EEEEEE" style="stroke:#000000;stroke-width:1.5;"/><rect fill="none" height="1761.5703" style="stroke:#000000;stroke-width:1.5;" width="2759.7417" x="10" y="245.625"/><text fill="#000000" font-family="sans-serif" font-size="13" font-weight="bold" lengthAdjust="spacing" textLength="15.1709" x="25" y="260.1201">alt</text><text fill="#000000" font-family="sans-serif" font-size="11" font-weight="bold" lengthAdjust="spacing" textLength="162.583" x="85.1709" y="259.0439">[Sesion de Coordinador activa]</text><polygon fill="#181818" points="933.6411,282.3281,923.6411,286.3281,933.6411,290.3281,929.6411,286.3281" style="stroke:#181818;stroke-width:1;"/><line style="stroke:#181818;stroke-width:1;stroke-dasharray:2.0,2.0;" x1="927.6411" x2="1260.7915" y1="286.3281" y2="286.3281"/><text fill="#000000" font-family="sans-serif" font-size="13" lengthAdjust="spacing" textLength="142.3779" x="939.6411" y="281.4717">Coordinador autenticado</text><path d="M1391,299.3281 L1391,325.3281 L1693,325.3281 L1693,309.3281 L1683,299.3281 L1391,299.3281 " fill="#FEFFDD" style="stroke:#181818;stroke-width:0.5;"/><path d="M1683,299.3281 L1683,309.3281 L1693,309.3281 L1683,299.3281 " fill="#FEFFDD" style="stroke:#181818;stroke-width:0.5;"/><text fill="#000000" font-family="sans-serif" font-size="13" lengthAdjust="spacing" textLength="281.1187" x="1397" y="317.8232">Responsabilidad interna: prepararDesasignacion</text><polygon fill="#181818" points="1688.3184,349.0313,1698.3184,353.0313,1688.3184,357.0313,1692.3184,353.0313" style="stroke:#181818;stroke-width:1;"/><line style="stroke:#181818;stroke-width:1;" x1="1386.5015" x2="1694.3184" y1="353.0313" y2="353.0313"/><text fill="#000000" font-family="sans-serif" font-size="13" lengthAdjust="spacing" textLength="65.749" x="1393.5015" y="348.1748">findById(id)</text><polygon fill="#181818" points="2668.8247,379.3828,2678.8247,383.3828,2668.8247,387.3828,2672.8247,383.3828" style="stroke:#181818;stroke-width:1;"/><line style="stroke:#181818;stroke-width:1;" x1="1700.3184" x2="2674.8247" y1="383.3828" y2="383.3828"/><text fill="#000000" font-family="sans-serif" font-size="13" lengthAdjust="spacing" textLength="382.186" x="1707.3184" y="378.5264">SELECT * FROM proyectos WHERE id = ? AND archivado = false</text><polygon fill="#181818" points="1711.3184,409.7344,1701.3184,413.7344,1711.3184,417.7344,1707.3184,413.7344" style="stroke:#181818;stroke-width:1;"/><line style="stroke:#181818;stroke-width:1;stroke-dasharray:2.0,2.0;" x1="1705.3184" x2="2679.8247" y1="413.7344" y2="413.7344"/><text fill="#000000" font-family="sans-serif" font-size="13" lengthAdjust="spacing" textLength="149.5889" x="1717.3184" y="408.8779">Resultado de persistencia</text><polygon fill="#181818" points="1397.5015,440.0859,1387.5015,444.0859,1397.5015,448.0859,1393.5015,444.0859" style="stroke:#181818;stroke-width:1;"/><line style="stroke:#181818;stroke-width:1;stroke-dasharray:2.0,2.0;" x1="1391.5015" x2="1699.3184" y1="444.0859" y2="444.0859"/><text fill="#000000" font-family="sans-serif" font-size="13" lengthAdjust="spacing" textLength="92.4854" x="1403.5015" y="439.2295">Proyecto / vacio</text><polygon fill="#181818" points="1830.98,470.4375,1840.98,474.4375,1830.98,478.4375,1834.98,474.4375" style="stroke:#181818;stroke-width:1;"/><line style="stroke:#181818;stroke-width:1;" x1="1386.5015" x2="1836.98" y1="474.4375" y2="474.4375"/><text fill="#000000" font-family="sans-serif" font-size="13" lengthAdjust="spacing" textLength="153.9116" x="1393.5015" y="469.5811">findById(id, investigadorId)</text><polygon fill="#181818" points="2668.8247,500.7891,2678.8247,504.7891,2668.8247,508.7891,2672.8247,504.7891" style="stroke:#181818;stroke-width:1;"/><line style="stroke:#181818;stroke-width:1;" x1="1842.98" x2="2674.8247" y1="504.7891" y2="504.7891"/><text fill="#000000" font-family="sans-serif" font-size="13" lengthAdjust="spacing" textLength="739.5273" x="1849.98" y="499.9326">SELECT u.* FROM usuarios u JOIN proyecto_investigadores pi ON pi.usuario_id = u.id WHERE pi.proyecto_id = ? AND u.id = ?</text><polygon fill="#181818" points="1853.98,531.1406,1843.98,535.1406,1853.98,539.1406,1849.98,535.1406" style="stroke:#181818;stroke-width:1;"/><line style="stroke:#181818;stroke-width:1;stroke-dasharray:2.0,2.0;" x1="1847.98" x2="2679.8247" y1="535.1406" y2="535.1406"/><text fill="#000000" font-family="sans-serif" font-size="13" lengthAdjust="spacing" textLength="149.5889" x="1859.98" y="530.2842">Resultado de persistencia</text><polygon fill="#181818" points="1397.5015,561.4922,1387.5015,565.4922,1397.5015,569.4922,1393.5015,565.4922" style="stroke:#181818;stroke-width:1;"/><line style="stroke:#181818;stroke-width:1;stroke-dasharray:2.0,2.0;" x1="1391.5015" x2="1841.98" y1="565.4922" y2="565.4922"/><text fill="#000000" font-family="sans-serif" font-size="13" lengthAdjust="spacing" textLength="112.0044" x="1403.5015" y="560.6357">Investigador / vacio</text><polygon fill="#181818" points="1979.876,591.8438,1989.876,595.8438,1979.876,599.8438,1983.876,595.8438" style="stroke:#181818;stroke-width:1;"/><line style="stroke:#181818;stroke-width:1;" x1="1386.5015" x2="1985.876" y1="595.8438" y2="595.8438"/><text fill="#000000" font-family="sans-serif" font-size="13" lengthAdjust="spacing" textLength="142.3462" x="1393.5015" y="590.9873">findAll(id, investigadorId)</text><polygon fill="#181818" points="2668.8247,622.1953,2678.8247,626.1953,2668.8247,630.1953,2672.8247,626.1953" style="stroke:#181818;stroke-width:1;"/><line style="stroke:#181818;stroke-width:1;" x1="1991.876" x2="2674.8247" y1="626.1953" y2="626.1953"/><text fill="#000000" font-family="sans-serif" font-size="13" lengthAdjust="spacing" textLength="664.9487" x="1998.876" y="621.3389">SELECT * FROM solicitudes_eliminacion_perfil WHERE estado = 'PENDIENTE' ORDER BY fecha_creacion DESC</text><polygon fill="#181818" points="2002.876,652.5469,1992.876,656.5469,2002.876,660.5469,1998.876,656.5469" style="stroke:#181818;stroke-width:1;"/><line style="stroke:#181818;stroke-width:1;stroke-dasharray:2.0,2.0;" x1="1996.876" x2="2679.8247" y1="656.5469" y2="656.5469"/><text fill="#000000" font-family="sans-serif" font-size="13" lengthAdjust="spacing" textLength="149.5889" x="2008.876" y="651.6904">Resultado de persistencia</text><polygon fill="#181818" points="1397.5015,682.8984,1387.5015,686.8984,1397.5015,690.8984,1393.5015,686.8984" style="stroke:#181818;stroke-width:1;"/><line style="stroke:#181818;stroke-width:1;stroke-dasharray:2.0,2.0;" x1="1391.5015" x2="1990.876" y1="686.8984" y2="686.8984"/><text fill="#000000" font-family="sans-serif" font-size="13" lengthAdjust="spacing" textLength="177.0742" x="1403.5015" y="682.042">Responsabilidades pendientes</text><path d="M20,701.8984 L80.1709,701.8984 L80.1709,710.25 L70.1709,720.25 L20,720.25 L20,701.8984 " fill="#EEEEEE" style="stroke:#000000;stroke-width:1.5;"/><rect fill="none" height="1191.4063" style="stroke:#000000;stroke-width:1.5;" width="2739.7417" x="20" y="701.8984"/><text fill="#000000" font-family="sans-serif" font-size="13" font-weight="bold" lengthAdjust="spacing" textLength="15.1709" x="35" y="716.3936">alt</text><text fill="#000000" font-family="sans-serif" font-size="11" font-weight="bold" lengthAdjust="spacing" textLength="184.6099" x="95.1709" y="715.3174">[Proyecto o asociacion inexistente]</text><polygon fill="#181818" points="933.6411,738.6016,923.6411,742.6016,933.6411,746.6016,929.6411,742.6016" style="stroke:#181818;stroke-width:1;"/><line style="stroke:#181818;stroke-width:1;stroke-dasharray:2.0,2.0;" x1="927.6411" x2="1380.5015" y1="742.6016" y2="742.6016"/><text fill="#000000" font-family="sans-serif" font-size="13" lengthAdjust="spacing" textLength="188.6079" x="939.6411" y="737.7451">RecursoNoEncontradoException</text><polygon fill="#181818" points="447.1909,768.9531,437.1909,772.9531,447.1909,776.9531,443.1909,772.9531" style="stroke:#181818;stroke-width:1;"/><line style="stroke:#181818;stroke-width:1;stroke-dasharray:2.0,2.0;" x1="441.1909" x2="916.6411" y1="772.9531" y2="772.9531"/><text fill="#000000" font-family="sans-serif" font-size="13" lengthAdjust="spacing" textLength="86.0044" x="453.1909" y="768.0967">404 Not Found</text><polygon fill="#181818" points="102.5239,799.3047,92.5239,803.3047,102.5239,807.3047,98.5239,803.3047" style="stroke:#181818;stroke-width:1;"/><line style="stroke:#181818;stroke-width:1;stroke-dasharray:2.0,2.0;" x1="96.5239" x2="425.1909" y1="803.3047" y2="803.3047"/><text fill="#000000" font-family="sans-serif" font-size="13" lengthAdjust="spacing" textLength="203.8042" x="108.5239" y="798.4482">Presenta asociacion no encontrada</text><line style="stroke:#000000;stroke-width:1;stroke-dasharray:2.0,2.0;" x1="20" x2="2759.7417" y1="812.3047" y2="812.3047"/><text fill="#000000" font-family="sans-serif" font-size="11" font-weight="bold" lengthAdjust="spacing" textLength="207.2222" x="25" y="823.7236">[Existen responsabilidades pendientes]</text><polygon fill="#181818" points="928.6411,845.4922,918.6411,849.4922,928.6411,853.4922,924.6411,849.4922" style="stroke:#181818;stroke-width:1;"/><line style="stroke:#181818;stroke-width:1;stroke-dasharray:2.0,2.0;" x1="922.6411" x2="1380.5015" y1="849.4922" y2="849.4922"/><text fill="#000000" font-family="sans-serif" font-size="13" lengthAdjust="spacing" textLength="107.6689" x="934.6411" y="844.6357">ConflictoException</text><polygon fill="#181818" points="447.1909,892.1953,437.1909,896.1953,447.1909,900.1953,443.1909,896.1953" style="stroke:#181818;stroke-width:1;"/><line style="stroke:#181818;stroke-width:1;stroke-dasharray:2.0,2.0;" x1="441.1909" x2="916.6411" y1="896.1953" y2="896.1953"/><text fill="#000000" font-family="sans-serif" font-size="13" lengthAdjust="spacing" textLength="68.6499" x="453.1909" y="874.9873">409 Conflict</text><text fill="#000000" font-family="sans-serif" font-size="13" lengthAdjust="spacing" textLength="177.0742" x="453.1909" y="891.3389">Responsabilidades pendientes</text><polygon fill="#181818" points="102.5239,922.5469,92.5239,926.5469,102.5239,930.5469,98.5239,926.5469" style="stroke:#181818;stroke-width:1;"/><line style="stroke:#181818;stroke-width:1;stroke-dasharray:2.0,2.0;" x1="96.5239" x2="425.1909" y1="926.5469" y2="926.5469"/><text fill="#000000" font-family="sans-serif" font-size="13" lengthAdjust="spacing" textLength="302.085" x="108.5239" y="921.6904">Presenta responsabilidades que impiden desasignar</text><line style="stroke:#000000;stroke-width:1;stroke-dasharray:2.0,2.0;" x1="20" x2="2759.7417" y1="935.5469" y2="935.5469"/><text fill="#000000" font-family="sans-serif" font-size="11" font-weight="bold" lengthAdjust="spacing" textLength="113.7114" x="25" y="946.9658">[Puede desasignarse]</text><polygon fill="#181818" points="928.6411,968.7344,918.6411,972.7344,928.6411,976.7344,924.6411,972.7344" style="stroke:#181818;stroke-width:1;"/><line style="stroke:#181818;stroke-width:1;stroke-dasharray:2.0,2.0;" x1="922.6411" x2="1380.5015" y1="972.7344" y2="972.7344"/><text fill="#000000" font-family="sans-serif" font-size="13" lengthAdjust="spacing" textLength="198.7324" x="934.6411" y="967.8779">OpcionesDesasignacionResponse</text><polygon fill="#181818" points="447.1909,1015.4375,437.1909,1019.4375,447.1909,1023.4375,443.1909,1019.4375" style="stroke:#181818;stroke-width:1;"/><line style="stroke:#181818;stroke-width:1;stroke-dasharray:2.0,2.0;" x1="441.1909" x2="916.6411" y1="1019.4375" y2="1019.4375"/><text fill="#000000" font-family="sans-serif" font-size="13" lengthAdjust="spacing" textLength="44.0845" x="453.1909" y="998.2295">200 OK</text><text fill="#000000" font-family="sans-serif" font-size="13" lengthAdjust="spacing" textLength="207.416" x="453.1909" y="1014.5811">Consecuencias de la desasignacion</text><polygon fill="#181818" points="102.5239,1045.7891,92.5239,1049.7891,102.5239,1053.7891,98.5239,1049.7891" style="stroke:#181818;stroke-width:1;"/><line style="stroke:#181818;stroke-width:1;stroke-dasharray:2.0,2.0;" x1="96.5239" x2="425.1909" y1="1049.7891" y2="1049.7891"/><text fill="#000000" font-family="sans-serif" font-size="13" lengthAdjust="spacing" textLength="224.7007" x="108.5239" y="1044.9326">Presenta confirmacion y solicita motivo</text><path d="M30,1064.7891 L90.1709,1064.7891 L90.1709,1073.1406 L80.1709,1083.1406 L30,1083.1406 L30,1064.7891 " fill="#EEEEEE" style="stroke:#000000;stroke-width:1.5;"/><rect fill="none" height="821.5156" style="stroke:#000000;stroke-width:1.5;" width="2719.7417" x="30" y="1064.7891"/><text fill="#000000" font-family="sans-serif" font-size="13" font-weight="bold" lengthAdjust="spacing" textLength="15.1709" x="45" y="1079.2842">alt</text><text fill="#000000" font-family="sans-serif" font-size="11" font-weight="bold" lengthAdjust="spacing" textLength="116.7407" x="105.1709" y="1078.208">[Coordinador cancela]</text><polygon fill="#181818" points="414.1909,1101.4922,424.1909,1105.4922,414.1909,1109.4922,418.1909,1105.4922" style="stroke:#181818;stroke-width:1;"/><line style="stroke:#181818;stroke-width:1;" x1="91.5239" x2="420.1909" y1="1105.4922" y2="1105.4922"/><text fill="#000000" font-family="sans-serif" font-size="13" lengthAdjust="spacing" textLength="134.4243" x="98.5239" y="1100.6357">Cancela desasignacion</text><polygon fill="#181818" points="102.5239,1131.8438,92.5239,1135.8438,102.5239,1139.8438,98.5239,1135.8438" style="stroke:#181818;stroke-width:1;"/><line style="stroke:#181818;stroke-width:1;stroke-dasharray:2.0,2.0;" x1="96.5239" x2="425.1909" y1="1135.8438" y2="1135.8438"/><text fill="#000000" font-family="sans-serif" font-size="13" lengthAdjust="spacing" textLength="196.498" x="108.5239" y="1130.9873">Conserva PROYECTO_ABIERTO</text><line style="stroke:#000000;stroke-width:1;stroke-dasharray:2.0,2.0;" x1="30" x2="2749.7417" y1="1144.8438" y2="1144.8438"/><text fill="#000000" font-family="sans-serif" font-size="11" font-weight="bold" lengthAdjust="spacing" textLength="122.8315" x="35" y="1156.2627">[Coordinador confirma]</text><polygon fill="#181818" points="414.1909,1178.0313,424.1909,1182.0313,414.1909,1186.0313,418.1909,1182.0313" style="stroke:#181818;stroke-width:1;"/><line style="stroke:#181818;stroke-width:1;" x1="91.5239" x2="420.1909" y1="1182.0313" y2="1182.0313"/><text fill="#000000" font-family="sans-serif" font-size="13" lengthAdjust="spacing" textLength="205.937" x="98.5239" y="1177.1748">Confirma desasignacion con motivo</text><polygon fill="#181818" points="900.6411,1224.7344,910.6411,1228.7344,900.6411,1232.7344,904.6411,1228.7344" style="stroke:#181818;stroke-width:1;"/><line style="stroke:#181818;stroke-width:1;" x1="436.1909" x2="906.6411" y1="1228.7344" y2="1228.7344"/><text fill="#000000" font-family="sans-serif" font-size="13" lengthAdjust="spacing" textLength="418.4185" x="443.1909" y="1207.5264">PATCH /api/proyectos/{id}/investigadores/{investigadorId}/desasignacion</text><text fill="#000000" font-family="sans-serif" font-size="13" lengthAdjust="spacing" textLength="186.0879" x="443.1909" y="1223.8779">DesasignacionRequest + cookie</text><polygon fill="#181818" points="1249.7915,1255.0859,1259.7915,1259.0859,1249.7915,1263.0859,1253.7915,1259.0859" style="stroke:#181818;stroke-width:1;"/><line style="stroke:#181818;stroke-width:1;" x1="922.6411" x2="1255.7915" y1="1259.0859" y2="1259.0859"/><text fill="#000000" font-family="sans-serif" font-size="13" lengthAdjust="spacing" textLength="209.5806" x="929.6411" y="1254.2295">obtenerSesionActual(authentication)</text><polygon fill="#181818" points="933.6411,1285.4375,923.6411,1289.4375,933.6411,1293.4375,929.6411,1289.4375" style="stroke:#181818;stroke-width:1;"/><line style="stroke:#181818;stroke-width:1;stroke-dasharray:2.0,2.0;" x1="927.6411" x2="1260.7915" y1="1289.4375" y2="1289.4375"/><text fill="#000000" font-family="sans-serif" font-size="13" lengthAdjust="spacing" textLength="142.3779" x="939.6411" y="1284.5811">Coordinador autenticado</text><polygon fill="#181818" points="1364.5015,1315.7891,1374.5015,1319.7891,1364.5015,1323.7891,1368.5015,1319.7891" style="stroke:#181818;stroke-width:1;"/><line style="stroke:#181818;stroke-width:1;" x1="922.6411" x2="1370.5015" y1="1319.7891" y2="1319.7891"/><text fill="#000000" font-family="sans-serif" font-size="13" lengthAdjust="spacing" textLength="333.0996" x="929.6411" y="1314.9326">retirarInvestigador(id, investigadorId, motivo, coordinador)</text><polygon fill="#181818" points="1979.876,1346.1406,1989.876,1350.1406,1979.876,1354.1406,1983.876,1350.1406" style="stroke:#181818;stroke-width:1;"/><line style="stroke:#181818;stroke-width:1;" x1="1386.5015" x2="1985.876" y1="1350.1406" y2="1350.1406"/><text fill="#000000" font-family="sans-serif" font-size="13" lengthAdjust="spacing" textLength="142.3462" x="1393.5015" y="1345.2842">findAll(id, investigadorId)</text><polygon fill="#181818" points="2668.8247,1376.4922,2678.8247,1380.4922,2668.8247,1384.4922,2672.8247,1380.4922" style="stroke:#181818;stroke-width:1;"/><line style="stroke:#181818;stroke-width:1;" x1="1991.876" x2="2674.8247" y1="1380.4922" y2="1380.4922"/><text fill="#000000" font-family="sans-serif" font-size="13" lengthAdjust="spacing" textLength="664.9487" x="1998.876" y="1375.6357">SELECT * FROM solicitudes_eliminacion_perfil WHERE estado = 'PENDIENTE' ORDER BY fecha_creacion DESC</text><polygon fill="#181818" points="2002.876,1406.8438,1992.876,1410.8438,2002.876,1414.8438,1998.876,1410.8438" style="stroke:#181818;stroke-width:1;"/><line style="stroke:#181818;stroke-width:1;stroke-dasharray:2.0,2.0;" x1="1996.876" x2="2679.8247" y1="1410.8438" y2="1410.8438"/><text fill="#000000" font-family="sans-serif" font-size="13" lengthAdjust="spacing" textLength="149.5889" x="2008.876" y="1405.9873">Resultado de persistencia</text><polygon fill="#181818" points="1397.5015,1437.1953,1387.5015,1441.1953,1397.5015,1445.1953,1393.5015,1441.1953" style="stroke:#181818;stroke-width:1;"/><line style="stroke:#181818;stroke-width:1;stroke-dasharray:2.0,2.0;" x1="1391.5015" x2="1990.876" y1="1441.1953" y2="1441.1953"/><text fill="#000000" font-family="sans-serif" font-size="13" lengthAdjust="spacing" textLength="177.0742" x="1403.5015" y="1436.3389">Responsabilidades pendientes</text><path d="M40,1456.1953 L100.1709,1456.1953 L100.1709,1464.5469 L90.1709,1474.5469 L40,1474.5469 L40,1456.1953 " fill="#EEEEEE" style="stroke:#000000;stroke-width:1.5;"/><rect fill="none" height="423.1094" style="stroke:#000000;stroke-width:1.5;" width="2699.7417" x="40" y="1456.1953"/><text fill="#000000" font-family="sans-serif" font-size="13" font-weight="bold" lengthAdjust="spacing" textLength="15.1709" x="55" y="1470.6904">alt</text><text fill="#000000" font-family="sans-serif" font-size="11" font-weight="bold" lengthAdjust="spacing" textLength="232.2837" x="115.1709" y="1469.6143">[Aparecieron responsabilidades pendientes]</text><polygon fill="#181818" points="933.6411,1492.8984,923.6411,1496.8984,933.6411,1500.8984,929.6411,1496.8984" style="stroke:#181818;stroke-width:1;"/><line style="stroke:#181818;stroke-width:1;stroke-dasharray:2.0,2.0;" x1="927.6411" x2="1380.5015" y1="1496.8984" y2="1496.8984"/><text fill="#000000" font-family="sans-serif" font-size="13" lengthAdjust="spacing" textLength="107.6689" x="939.6411" y="1492.042">ConflictoException</text><polygon fill="#181818" points="447.1909,1523.25,437.1909,1527.25,447.1909,1531.25,443.1909,1527.25" style="stroke:#181818;stroke-width:1;"/><line style="stroke:#181818;stroke-width:1;stroke-dasharray:2.0,2.0;" x1="441.1909" x2="916.6411" y1="1527.25" y2="1527.25"/><text fill="#000000" font-family="sans-serif" font-size="13" lengthAdjust="spacing" textLength="68.6499" x="453.1909" y="1522.3936">409 Conflict</text><polygon fill="#181818" points="102.5239,1553.6016,92.5239,1557.6016,102.5239,1561.6016,98.5239,1557.6016" style="stroke:#181818;stroke-width:1;"/><line style="stroke:#181818;stroke-width:1;stroke-dasharray:2.0,2.0;" x1="96.5239" x2="425.1909" y1="1557.6016" y2="1557.6016"/><text fill="#000000" font-family="sans-serif" font-size="13" lengthAdjust="spacing" textLength="310.667" x="108.5239" y="1552.7451">Presenta conflicto y conserva PROYECTO_ABIERTO</text><line style="stroke:#000000;stroke-width:1;stroke-dasharray:2.0,2.0;" x1="40" x2="2739.7417" y1="1566.6016" y2="1566.6016"/><text fill="#000000" font-family="sans-serif" font-size="11" font-weight="bold" lengthAdjust="spacing" textLength="185.2061" x="45" y="1578.0205">[Sin responsabilidades pendientes]</text><polygon fill="#181818" points="1688.3184,1599.7891,1698.3184,1603.7891,1688.3184,1607.7891,1692.3184,1603.7891" style="stroke:#181818;stroke-width:1;"/><line style="stroke:#181818;stroke-width:1;" x1="1381.5015" x2="1694.3184" y1="1603.7891" y2="1603.7891"/><text fill="#000000" font-family="sans-serif" font-size="13" lengthAdjust="spacing" textLength="294.8169" x="1388.5015" y="1598.9326">save(id, investigadorId, fecha, coordinador, motivo)</text><polygon fill="#181818" points="2668.8247,1646.4922,2678.8247,1650.4922,2668.8247,1654.4922,2672.8247,1650.4922" style="stroke:#181818;stroke-width:1;"/><line style="stroke:#181818;stroke-width:1;" x1="1700.3184" x2="2674.8247" y1="1650.4922" y2="1650.4922"/><text fill="#000000" font-family="sans-serif" font-size="13" lengthAdjust="spacing" textLength="498.5513" x="1707.3184" y="1629.2842">DELETE FROM proyecto_investigadores WHERE proyecto_id = ? AND usuario_id = ?</text><text fill="#000000" font-family="sans-serif" font-size="13" lengthAdjust="spacing" textLength="931.2583" x="1707.3184" y="1645.6357">INSERT INTO movimientos_participacion_proyecto (proyecto_id, investigador_id, tipo, responsable_id, fecha, motivo) VALUES (?, ?, 'DESASIGNACION', ?, ?, ?)</text><polygon fill="#181818" points="1711.3184,1676.8438,1701.3184,1680.8438,1711.3184,1684.8438,1707.3184,1680.8438" style="stroke:#181818;stroke-width:1;"/><line style="stroke:#181818;stroke-width:1;stroke-dasharray:2.0,2.0;" x1="1705.3184" x2="2679.8247" y1="1680.8438" y2="1680.8438"/><text fill="#000000" font-family="sans-serif" font-size="13" lengthAdjust="spacing" textLength="149.5889" x="1717.3184" y="1675.9873">Resultado de persistencia</text><polygon fill="#181818" points="1392.5015,1707.1953,1382.5015,1711.1953,1392.5015,1715.1953,1388.5015,1711.1953" style="stroke:#181818;stroke-width:1;"/><line style="stroke:#181818;stroke-width:1;stroke-dasharray:2.0,2.0;" x1="1386.5015" x2="1699.3184" y1="1711.1953" y2="1711.1953"/><text fill="#000000" font-family="sans-serif" font-size="13" lengthAdjust="spacing" textLength="151.7661" x="1398.5015" y="1706.3389">Participacion desasignada</text><path d="M1386,1724.1953 L1386,1766.1953 L1602,1766.1953 L1602,1734.1953 L1592,1724.1953 L1386,1724.1953 " fill="#FEFFDD" style="stroke:#181818;stroke-width:0.5;"/><path d="M1592,1724.1953 L1592,1734.1953 L1602,1734.1953 L1592,1724.1953 " fill="#FEFFDD" style="stroke:#181818;stroke-width:0.5;"/><text fill="#000000" font-family="sans-serif" font-size="13" lengthAdjust="spacing" textLength="195.8062" x="1392" y="1742.6904">El perfil y la participacion historica</text><text fill="#000000" font-family="sans-serif" font-size="13" lengthAdjust="spacing" textLength="124.2935" x="1392" y="1759.042">permanecen intactos.</text><polygon fill="#181818" points="928.6411,1790.25,918.6411,1794.25,928.6411,1798.25,924.6411,1794.25" style="stroke:#181818;stroke-width:1;"/><line style="stroke:#181818;stroke-width:1;stroke-dasharray:2.0,2.0;" x1="922.6411" x2="1380.5015" y1="1794.25" y2="1794.25"/><text fill="#000000" font-family="sans-serif" font-size="13" lengthAdjust="spacing" textLength="150.3062" x="934.6411" y="1789.3936">ProyectoDetalleResponse</text><polygon fill="#181818" points="447.1909,1836.9531,437.1909,1840.9531,447.1909,1844.9531,443.1909,1840.9531" style="stroke:#181818;stroke-width:1;"/><line style="stroke:#181818;stroke-width:1;stroke-dasharray:2.0,2.0;" x1="441.1909" x2="916.6411" y1="1840.9531" y2="1840.9531"/><text fill="#000000" font-family="sans-serif" font-size="13" lengthAdjust="spacing" textLength="44.0845" x="453.1909" y="1819.7451">200 OK</text><text fill="#000000" font-family="sans-serif" font-size="13" lengthAdjust="spacing" textLength="148.1606" x="453.1909" y="1836.0967">Investigador desasignado</text><polygon fill="#181818" points="102.5239,1867.3047,92.5239,1871.3047,102.5239,1875.3047,98.5239,1871.3047" style="stroke:#181818;stroke-width:1;"/><line style="stroke:#181818;stroke-width:1;stroke-dasharray:2.0,2.0;" x1="96.5239" x2="425.1909" y1="1871.3047" y2="1871.3047"/><text fill="#000000" font-family="sans-serif" font-size="13" lengthAdjust="spacing" textLength="192.8926" x="108.5239" y="1866.4482">Presenta PROYECTO_ABIERTO</text><line style="stroke:#000000;stroke-width:1;stroke-dasharray:2.0,2.0;" x1="10" x2="2769.7417" y1="1901.3047" y2="1901.3047"/><text fill="#000000" font-family="sans-serif" font-size="11" font-weight="bold" lengthAdjust="spacing" textLength="159.5269" x="15" y="1912.7236">[Sesion ausente o rol invalido]</text><polygon fill="#181818" points="928.6411,1934.4922,918.6411,1938.4922,928.6411,1942.4922,924.6411,1938.4922" style="stroke:#181818;stroke-width:1;"/><line style="stroke:#181818;stroke-width:1;stroke-dasharray:2.0,2.0;" x1="922.6411" x2="1260.7915" y1="1938.4922" y2="1938.4922"/><text fill="#000000" font-family="sans-serif" font-size="13" lengthAdjust="spacing" textLength="320.1504" x="934.6411" y="1933.6357">SesionNoValidaException / AccesoDenegadoException</text><polygon fill="#181818" points="447.1909,1964.8438,437.1909,1968.8438,447.1909,1972.8438,443.1909,1968.8438" style="stroke:#181818;stroke-width:1;"/><line style="stroke:#181818;stroke-width:1;stroke-dasharray:2.0,2.0;" x1="441.1909" x2="916.6411" y1="1968.8438" y2="1968.8438"/><text fill="#000000" font-family="sans-serif" font-size="13" lengthAdjust="spacing" textLength="197.3042" x="453.1909" y="1963.9873">401 Unauthorized / 403 Forbidden</text><polygon fill="#181818" points="102.5239,1995.1953,92.5239,1999.1953,102.5239,2003.1953,98.5239,1999.1953" style="stroke:#181818;stroke-width:1;"/><line style="stroke:#181818;stroke-width:1;stroke-dasharray:2.0,2.0;" x1="96.5239" x2="425.1909" y1="1999.1953" y2="1999.1953"/><text fill="#000000" font-family="sans-serif" font-size="13" lengthAdjust="spacing" textLength="145.9644" x="108.5239" y="1994.3389">Presenta error de acceso</text><!--SRC=[nLXPR-Cs47xthnZa9KcRgsrU6g0DR4lPTRkr0zlPOe401YED7Q8AwPAKiMdH_zuXASdKuPmeAkIGo9dXp3UdPBZ942BELeezC4WHD2OvYeGpE8O8DTDy9PW2BZQe3L-nL2fBjbRo4HCZUpr6VnKCfLGf5tQxjsRAy8IlcJ2mTrqGHcXObk4rM-6jE9WYiHtk0TDmfQGmAD9kjY5jAacCYhXcQyN52WPI5hpzDQ-ppL1pAMQeDZn1H-9NkeNNwTnzD-4Krr9pilFHqTh7Ek6DpfdYJRfH05gR9oRBSCNkCcomrJTwAJFiZcc4lO7zI-17p4ZjIAD1hnT03yS_LtXUm4ncT9YnRjtbnsphI788tp23MuUKDrOg8Nq17-8vdB8rFosPzEdVFFtdD1IATYru7j6-N2Va0zJ7bIBs-LQGvdzmz57dl5JfO1rBl_Paxy0Ba7Ua2oh_s4zCph83bfjx50GfCxHukEKllCuoKzpQGqAWF6KFw2e8ZaihQsIvyV9JwMXJR1uX9Dqhlhet89Tb55rGYEYr59hTyOodB2NS3Ih1BWXlf2XWAWgXSB83oJuKlNBktW9XW-42bboaWyTHUi3JGqTXb-rsD22Fnv_YuHo-WQlfvBVAjHf-_nXFO-0f_0INq1z7m5HoJuUbabQMBDF-i6ZWKF07aGLvPYo9JNTKcclZ2aDmgdDFON6PAt0A6sjKK_rcCjHCEO9wp7ZJcYmDC_EJmj3SPv-677wPZCQLuOjwO085r8Hs-Kd1i728v2VqpoD4MrlUBLgEWXv2aDhcF0rOsvOGl71t5u3rik3XwsVPJlJgzDqXeds9o2an5vZn1-xZSK7gBtbMe4AIVQJiNyVZQ1IFv_4-JAPHF8N15rXYSiyMYKB72L4y6uOuDRL-6gMcpY56ZPIo_gJYn2a_KVi4ecoleb1IUPGarYd51NvrvnWVw3LaoxoVKkTJMevbB1BRTKZ7-6k2QrCcQAi0RDFKNgvUrGhm-TavZAM1AvbJEUqGOSjSkRojjYGZg44sir2JwYoqI4Z0KaqF7L8MG-pD1FKSLfq8KBDTKZoOzzlzOoNhLanVeilRGMcR-cUEm1_MF4KHjBujIDSvfXZiw2U2ObAqhbgvBYp2jw7p_TaPJ7wrtKzKmvQssP05dJhP0VuhmQ48MNBru6FciKnt1W-IvCbAaisSiEqbJ2IOiMhVNZl7ZA4dtg7xquew3DI6mVLqyeNgqcJH7upYwNnIyJkFrNGhJ7gXSWLrNJihf8b1NT72_TVz-V3ZcsQUngZJY1yAKMtWMzB3Ja0r7JfTNKNIw-QXaFqrOqxhoA84ApISPfUmMtMqdwC2sYDhNdd6ORUHpNHvPyyhh_-vzvNNcthWBXjUrGl3pExJm8a9HmhkbpM6jpI85vJ2bpMCfoGsK-8LLT2fJIKmURRYL5Ldnj-ALpb3QxR1pWHnWLFBZp9f3bjImmYEA8BdSNsyRqwvnIZRDSU6O-_bhHYDPsGvZCRp2Ps-eHGWkwHULA-fFX_AaUeWa5atoIqOlgQKhm3BqAqMbXR6mUV-fvju1WUNHq0_-vGn_TdemxW_74t6-sxD_hH1UCMhIHkxscjAQDksAwHjtiutknPLd45HC1vj0wz11_Uac5HKLrjinFF012PeXrDZlw7eanQHZMghnVE9sVZAqXfGtfMTvS0ogdyxA96J_q76FfsSmJ1Ttjl_FcbzcsEv5OJq6g1aPcELKVxAplTz_poMdoq9goeRlORramGrOIfmrNePQ7y9s5NQleCROHip1S9Vc9BOyxCVw9L0tV6K9jJU3i1U018gvJ_6CQTdps8GI2eb_0i0]--></g></svg>