<svg xmlns="http://www.w3.org/2000/svg" xmlns:xlink="http://www.w3.org/1999/xlink" contentStyleType="text/css" data-diagram-type="SEQUENCE" height="802px" preserveAspectRatio="none" style="width:1327px;height:802px;background:#FFFFFF;" version="1.1" viewBox="0 0 1327 802" width="1327px" zoomAndPan="magnify"><title>Diagrama de secuencia - Editar perfil del Investigador</title><defs/><g><text fill="#000000" font-family="sans-serif" font-size="14" font-weight="bold" lengthAdjust="spacing" textLength="357.1162" x="486.2693" y="29.5332">Diagrama de secuencia - Editar perfil del Investigador</text><g><title>EditarPerfilForm</title><rect fill="#FFFFFF" height="557.1641" style="stroke:#181818;stroke-width:1;" width="10" x="395.8203" y="153.5703"/></g><g><title>PerfilController</title><rect fill="#FFFFFF" height="358.2188" style="stroke:#181818;stroke-width:1;" width="10" x="638.749" y="200.2734"/></g><g><title>SesionService</title><rect fill="#FFFFFF" height="55.7031" style="stroke:#181818;stroke-width:1;" width="10" x="924.3423" y="230.625"/></g><g><title>PerfilService</title><rect fill="#FFFFFF" height="195.1094" style="stroke:#181818;stroke-width:1;" width="10" x="1032.3765" y="316.6797"/></g><g><title>PerfilRepository</title><rect fill="#FFFFFF" height="91.0547" style="stroke:#181818;stroke-width:1;" width="10" x="1249.248" y="390.3828"/></g><rect fill="none" height="458.1094" style="stroke:#000000;stroke-width:1.5;" width="1310.6548" x="10" y="245.625"/><g><title>Investigador</title><rect fill="#000000" fill-opacity="0.00000" height="599.5156" width="8" x="57.1343" y="121.2188"/><line style="stroke:#181818;stroke-width:0.5;stroke-dasharray:5,5;" x1="61" x2="61" y1="121.2188" y2="720.7344"/></g><g><title>EditarPerfilForm</title><rect fill="#000000" fill-opacity="0.00000" height="599.5156" width="8" x="396.8203" y="121.2188"/><line style="stroke:#181818;stroke-width:0.5;stroke-dasharray:5,5;" x1="400.2549" x2="400.2549" y1="121.2188" y2="720.7344"/></g><g><title>PerfilController</title><rect fill="#000000" fill-opacity="0.00000" height="599.5156" width="8" x="639.749" y="121.2188"/><line style="stroke:#181818;stroke-width:0.5;stroke-dasharray:5,5;" x1="643.4561" x2="643.4561" y1="121.2188" y2="720.7344"/></g><g><title>SesionService</title><rect fill="#000000" fill-opacity="0.00000" height="599.5156" width="8" x="925.3423" y="121.2188"/><line style="stroke:#181818;stroke-width:0.5;stroke-dasharray:5,5;" x1="928.5977" x2="928.5977" y1="121.2188" y2="720.7344"/></g><g><title>PerfilService</title><rect fill="#000000" fill-opacity="0.00000" height="599.5156" width="8" x="1033.3765" y="121.2188"/><line style="stroke:#181818;stroke-width:0.5;stroke-dasharray:5,5;" x1="1037.0869" x2="1037.0869" y1="121.2188" y2="720.7344"/></g><g><title>PerfilRepository</title><rect fill="#000000" fill-opacity="0.00000" height="599.5156" width="8" x="1250.248" y="121.2188"/><line style="stroke:#181818;stroke-width:0.5;stroke-dasharray:5,5;" x1="1253.8413" x2="1253.8413" y1="121.2188" y2="720.7344"/></g><g class="participant participant-head" data-participant="Investigador"><text fill="#000000" font-family="sans-serif" font-size="14" lengthAdjust="spacing" textLength="76.2686" x="20" y="118.1426">Investigador</text><ellipse cx="61.1343" cy="52.1094" fill="#E2E2F0" rx="8" ry="8" style="stroke:#181818;stroke-width:0.5;"/><path d="M61.1343,60.1094 L61.1343,87.1094 M48.1343,68.1094 L74.1343,68.1094 M61.1343,87.1094 L48.1343,102.1094 M61.1343,87.1094 L74.1343,102.1094" fill="none" style="stroke:#181818;stroke-width:0.5;"/></g><g class="participant participant-tail" data-participant="Investigador"><text fill="#000000" font-family="sans-serif" font-size="14" lengthAdjust="spacing" textLength="76.2686" x="20" y="734.2676">Investigador</text><ellipse cx="61.1343" cy="745.8438" fill="#E2E2F0" rx="8" ry="8" style="stroke:#181818;stroke-width:0.5;"/><path d="M61.1343,753.8438 L61.1343,780.8438 M48.1343,761.8438 L74.1343,761.8438 M61.1343,780.8438 L48.1343,795.8438 M61.1343,780.8438 L74.1343,795.8438" fill="none" style="stroke:#181818;stroke-width:0.5;"/></g><g class="participant participant-head" data-participant="Frontend"><rect fill="#E2E2F0" height="49.2188" rx="2.5" ry="2.5" style="stroke:#181818;stroke-width:0.5;" width="115.1309" x="343.2549" y="71"/><text fill="#000000" font-family="sans-serif" font-size="14" lengthAdjust="spacing" textLength="101.1309" x="350.2549" y="92.5332">EditarPerfilForm</text><text fill="#000000" font-family="sans-serif" font-size="14" lengthAdjust="spacing" textLength="45.8965" x="377.8721" y="110.1426">(React)</text></g><g class="participant participant-tail" data-participant="Frontend"><rect fill="#E2E2F0" height="49.2188" rx="2.5" ry="2.5" style="stroke:#181818;stroke-width:0.5;" width="115.1309" x="343.2549" y="719.7344"/><text fill="#000000" font-family="sans-serif" font-size="14" lengthAdjust="spacing" textLength="101.1309" x="350.2549" y="741.2676">EditarPerfilForm</text><text fill="#000000" font-family="sans-serif" font-size="14" lengthAdjust="spacing" textLength="45.8965" x="377.8721" y="758.877">(React)</text></g><g class="participant participant-head" data-participant="Api"><rect fill="#E2E2F0" height="49.2188" rx="2.5" ry="2.5" style="stroke:#181818;stroke-width:0.5;" width="106.5859" x="590.4561" y="71"/><text fill="#000000" font-family="sans-serif" font-size="14" lengthAdjust="spacing" textLength="92.5859" x="597.4561" y="92.5332">PerfilController</text><text fill="#000000" font-family="sans-serif" font-size="14" lengthAdjust="spacing" textLength="82.4824" x="602.5078" y="110.1426">(Spring Boot)</text></g><g class="participant participant-tail" data-participant="Api"><rect fill="#E2E2F0" height="49.2188" rx="2.5" ry="2.5" style="stroke:#181818;stroke-width:0.5;" width="106.5859" x="590.4561" y="719.7344"/><text fill="#000000" font-family="sans-serif" font-size="14" lengthAdjust="spacing" textLength="92.5859" x="597.4561" y="741.2676">PerfilController</text><text fill="#000000" font-family="sans-serif" font-size="14" lengthAdjust="spacing" textLength="82.4824" x="602.5078" y="758.877">(Spring Boot)</text></g><g class="participant participant-head" data-participant="Sesion"><rect fill="#E2E2F0" height="31.6094" rx="2.5" ry="2.5" style="stroke:#181818;stroke-width:0.5;" width="103.4893" x="877.5977" y="88.6094"/><text fill="#000000" font-family="sans-serif" font-size="14" lengthAdjust="spacing" textLength="89.4893" x="884.5977" y="110.1426">SesionService</text></g><g class="participant participant-tail" data-participant="Sesion"><rect fill="#E2E2F0" height="31.6094" rx="2.5" ry="2.5" style="stroke:#181818;stroke-width:0.5;" width="103.4893" x="877.5977" y="719.7344"/><text fill="#000000" font-family="sans-serif" font-size="14" lengthAdjust="spacing" textLength="89.4893" x="884.5977" y="741.2676">SesionService</text></g><g class="participant participant-head" data-participant="PerfilService"><rect fill="#E2E2F0" height="31.6094" rx="2.5" ry="2.5" style="stroke:#181818;stroke-width:0.5;" width="92.5791" x="991.0869" y="88.6094"/><text fill="#000000" font-family="sans-serif" font-size="14" lengthAdjust="spacing" textLength="78.5791" x="998.0869" y="110.1426">PerfilService</text></g><g class="participant participant-tail" data-participant="PerfilService"><rect fill="#E2E2F0" height="31.6094" rx="2.5" ry="2.5" style="stroke:#181818;stroke-width:0.5;" width="92.5791" x="991.0869" y="719.7344"/><text fill="#000000" font-family="sans-serif" font-size="14" lengthAdjust="spacing" textLength="78.5791" x="998.0869" y="741.2676">PerfilService</text></g><g class="participant participant-head" data-participant="PerfilRepository"><rect fill="#E2E2F0" height="31.6094" rx="2.5" ry="2.5" style="stroke:#181818;stroke-width:0.5;" width="112.8135" x="1197.8413" y="88.6094"/><text fill="#000000" font-family="sans-serif" font-size="14" lengthAdjust="spacing" textLength="98.8135" x="1204.8413" y="110.1426">PerfilRepository</text></g><g class="participant participant-tail" data-participant="PerfilRepository"><rect fill="#E2E2F0" height="31.6094" rx="2.5" ry="2.5" style="stroke:#181818;stroke-width:0.5;" width="112.8135" x="1197.8413" y="719.7344"/><text fill="#000000" font-family="sans-serif" font-size="14" lengthAdjust="spacing" textLength="98.8135" x="1204.8413" y="741.2676">PerfilRepository</text></g><g><title>EditarPerfilForm</title><rect fill="#FFFFFF" height="557.1641" style="stroke:#181818;stroke-width:1;" width="10" x="395.8203" y="153.5703"/></g><g><title>PerfilController</title><rect fill="#FFFFFF" height="358.2188" style="stroke:#181818;stroke-width:1;" width="10" x="638.749" y="200.2734"/></g><g><title>SesionService</title><rect fill="#FFFFFF" height="55.7031" style="stroke:#181818;stroke-width:1;" width="10" x="924.3423" y="230.625"/></g><g><title>PerfilService</title><rect fill="#FFFFFF" height="195.1094" style="stroke:#181818;stroke-width:1;" width="10" x="1032.3765" y="316.6797"/></g><g><title>PerfilRepository</title><rect fill="#FFFFFF" height="91.0547" style="stroke:#181818;stroke-width:1;" width="10" x="1249.248" y="390.3828"/></g><g class="message" data-participant-1="Investigador" data-participant-2="Frontend"><polygon fill="#181818" points="383.8203,149.5703,393.8203,153.5703,383.8203,157.5703,387.8203,153.5703" style="stroke:#181818;stroke-width:1;"/><line style="stroke:#181818;stroke-width:1;" x1="61.1343" x2="389.8203" y1="153.5703" y2="153.5703"/><text fill="#000000" font-family="sans-serif" font-size="13" lengthAdjust="spacing" textLength="97.5381" x="68.1343" y="148.7139">Modifica su perfil</text></g><g class="message" data-participant-1="Frontend" data-participant-2="Api"><polygon fill="#181818" points="626.749,196.2734,636.749,200.2734,626.749,204.2734,630.749,200.2734" style="stroke:#181818;stroke-width:1;"/><line style="stroke:#181818;stroke-width:1;" x1="405.8203" x2="632.749" y1="200.2734" y2="200.2734"/><text fill="#000000" font-family="sans-serif" font-size="13" lengthAdjust="spacing" textLength="82.3608" x="412.8203" y="179.0654">PUT /api/perfil</text><text fill="#000000" font-family="sans-serif" font-size="13" lengthAdjust="spacing" textLength="172.3516" x="412.8203" y="195.417">PerfilUpdateRequest + cookie</text></g><g class="message" data-participant-1="Api" data-participant-2="Sesion"><polygon fill="#181818" points="912.3423,226.625,922.3423,230.625,912.3423,234.625,916.3423,230.625" style="stroke:#181818;stroke-width:1;"/><line style="stroke:#181818;stroke-width:1;" x1="648.749" x2="918.3423" y1="230.625" y2="230.625"/><text fill="#000000" font-family="sans-serif" font-size="13" lengthAdjust="spacing" textLength="209.5806" x="655.749" y="225.7686">obtenerSesionActual(authentication)</text></g><path d="M10,245.625 L70.1709,245.625 L70.1709,253.9766 L60.1709,263.9766 L10,263.9766 L10,245.625" fill="#EEEEEE" style="stroke:#000000;stroke-width:1.5;"/><rect fill="none" height="458.1094" style="stroke:#000000;stroke-width:1.5;" width="1310.6548" x="10" y="245.625"/><text fill="#000000" font-family="sans-serif" font-size="13" font-weight="bold" lengthAdjust="spacing" textLength="15.1709" x="25" y="260.1201">alt</text><text fill="#000000" font-family="sans-serif" font-size="11" font-weight="bold" lengthAdjust="spacing" textLength="82.5269" x="85.1709" y="259.0439">[Sesi&#195;&#179;n activa]</text><g class="message" data-participant-1="Sesion" data-participant-2="Api"><polygon fill="#181818" points="659.749,282.3281,649.749,286.3281,659.749,290.3281,655.749,286.3281" style="stroke:#181818;stroke-width:1;"/><line style="stroke:#181818;stroke-width:1;stroke-dasharray:2,2;" x1="653.749" x2="928.3423" y1="286.3281" y2="286.3281"/><text fill="#000000" font-family="sans-serif" font-size="13" lengthAdjust="spacing" textLength="205.1816" x="665.749" y="281.4717">SesionResponse(INVESTIGADOR)</text></g><g class="message" data-participant-1="Api" data-participant-2="PerfilService"><polygon fill="#181818" points="1020.3765,312.6797,1030.3765,316.6797,1020.3765,320.6797,1024.3765,316.6797" style="stroke:#181818;stroke-width:1;"/><line style="stroke:#181818;stroke-width:1;" x1="648.749" x2="1026.3765" y1="316.6797" y2="316.6797"/><text fill="#000000" font-family="sans-serif" font-size="13" lengthAdjust="spacing" textLength="217.4961" x="655.749" y="311.8232">editarPerfilPropio(investigador, datos)</text></g><g class="message" data-participant-1="PerfilService" data-participant-2="PerfilService"><line style="stroke:#181818;stroke-width:1;" x1="1042.3765" x2="1084.3765" y1="347.0313" y2="347.0313"/><line style="stroke:#181818;stroke-width:1;" x1="1084.3765" x2="1084.3765" y1="347.0313" y2="360.0313"/><line style="stroke:#181818;stroke-width:1;" x1="1043.3765" x2="1084.3765" y1="360.0313" y2="360.0313"/><polygon fill="#181818" points="1053.3765,356.0313,1043.3765,360.0313,1053.3765,364.0313,1049.3765,360.0313" style="stroke:#181818;stroke-width:1;"/><text fill="#000000" font-family="sans-serif" font-size="13" lengthAdjust="spacing" textLength="130.0508" x="1049.3765" y="342.1748">validarCambios(datos)</text></g><g class="message" data-participant-1="PerfilService" data-participant-2="PerfilRepository"><polygon fill="#181818" points="1237.248,386.3828,1247.248,390.3828,1237.248,394.3828,1241.248,390.3828" style="stroke:#181818;stroke-width:1;"/><line style="stroke:#181818;stroke-width:1;" x1="1042.3765" x2="1243.248" y1="390.3828" y2="390.3828"/><text fill="#000000" font-family="sans-serif" font-size="13" lengthAdjust="spacing" textLength="187.8716" x="1049.3765" y="385.5264">obtenerPorUsuario(investigador)</text></g><g class="message" data-participant-1="PerfilRepository" data-participant-2="PerfilService"><polygon fill="#181818" points="1053.3765,416.7344,1043.3765,420.7344,1053.3765,424.7344,1049.3765,420.7344" style="stroke:#181818;stroke-width:1;"/><line style="stroke:#181818;stroke-width:1;stroke-dasharray:2,2;" x1="1047.3765" x2="1248.248" y1="420.7344" y2="420.7344"/><text fill="#000000" font-family="sans-serif" font-size="13" lengthAdjust="spacing" textLength="29.6182" x="1059.3765" y="415.8779">Perfil</text></g><g class="message" data-participant-1="PerfilService" data-participant-2="PerfilRepository"><polygon fill="#181818" points="1237.248,447.0859,1247.248,451.0859,1237.248,455.0859,1241.248,451.0859" style="stroke:#181818;stroke-width:1;"/><line style="stroke:#181818;stroke-width:1;" x1="1042.3765" x2="1243.248" y1="451.0859" y2="451.0859"/><text fill="#000000" font-family="sans-serif" font-size="13" lengthAdjust="spacing" textLength="148.8525" x="1049.3765" y="446.2295">guardar(perfilActualizado)</text></g><g class="message" data-participant-1="PerfilRepository" data-participant-2="PerfilService"><polygon fill="#181818" points="1053.3765,477.4375,1043.3765,481.4375,1053.3765,485.4375,1049.3765,481.4375" style="stroke:#181818;stroke-width:1;"/><line style="stroke:#181818;stroke-width:1;stroke-dasharray:2,2;" x1="1047.3765" x2="1253.248" y1="481.4375" y2="481.4375"/><text fill="#000000" font-family="sans-serif" font-size="13" lengthAdjust="spacing" textLength="98.998" x="1059.3765" y="476.5811">Perfil actualizado</text></g><g class="message" data-participant-1="PerfilService" data-participant-2="Api"><polygon fill="#181818" points="659.749,507.7891,649.749,511.7891,659.749,515.7891,655.749,511.7891" style="stroke:#181818;stroke-width:1;"/><line style="stroke:#181818;stroke-width:1;stroke-dasharray:2,2;" x1="653.749" x2="1036.3765" y1="511.7891" y2="511.7891"/><text fill="#000000" font-family="sans-serif" font-size="13" lengthAdjust="spacing" textLength="88.1563" x="665.749" y="506.9326">PerfilResponse</text></g><g class="message" data-participant-1="Api" data-participant-2="Frontend"><polygon fill="#181818" points="416.8203,554.4922,406.8203,558.4922,416.8203,562.4922,412.8203,558.4922" style="stroke:#181818;stroke-width:1;"/><line style="stroke:#181818;stroke-width:1;stroke-dasharray:2,2;" x1="410.8203" x2="642.749" y1="558.4922" y2="558.4922"/><text fill="#000000" font-family="sans-serif" font-size="13" lengthAdjust="spacing" textLength="44.0845" x="422.8203" y="537.2842">200 OK</text><text fill="#000000" font-family="sans-serif" font-size="13" lengthAdjust="spacing" textLength="88.1563" x="422.8203" y="553.6357">PerfilResponse</text></g><g class="message" data-participant-1="Frontend" data-participant-2="Investigador"><polygon fill="#181818" points="72.1343,584.8438,62.1343,588.8438,72.1343,592.8438,68.1343,588.8438" style="stroke:#181818;stroke-width:1;"/><line style="stroke:#181818;stroke-width:1;stroke-dasharray:2,2;" x1="66.1343" x2="394.8203" y1="588.8438" y2="588.8438"/><text fill="#000000" font-family="sans-serif" font-size="13" lengthAdjust="spacing" textLength="310.686" x="78.1343" y="583.9873">Presenta OPCIONES_PERFIL_ABIERTO actualizado</text></g><line style="stroke:#000000;stroke-width:1;stroke-dasharray:2,2;" x1="10" x2="1320.6548" y1="597.8438" y2="597.8438"/><text fill="#000000" font-family="sans-serif" font-size="11" font-weight="bold" lengthAdjust="spacing" textLength="191.3076" x="15" y="609.2627">[Datos inv&#195;&#161;lidos o sesi&#195;&#179;n ausente]</text><g class="message" data-participant-1="Sesion" data-participant-2="Api"><polygon fill="#181818" points="654.749,631.0313,644.749,635.0313,654.749,639.0313,650.749,635.0313" style="stroke:#181818;stroke-width:1;"/><line style="stroke:#181818;stroke-width:1;stroke-dasharray:2,2;" x1="648.749" x2="928.3423" y1="635.0313" y2="635.0313"/><text fill="#000000" font-family="sans-serif" font-size="13" lengthAdjust="spacing" textLength="261.5933" x="660.749" y="630.1748">SesionNoValidaException / validaci&#195;&#179;n fallida</text></g><g class="message" data-participant-1="Api" data-participant-2="Frontend"><polygon fill="#181818" points="416.8203,661.3828,406.8203,665.3828,416.8203,669.3828,412.8203,665.3828" style="stroke:#181818;stroke-width:1;"/><line style="stroke:#181818;stroke-width:1;stroke-dasharray:2,2;" x1="410.8203" x2="642.749" y1="665.3828" y2="665.3828"/><text fill="#000000" font-family="sans-serif" font-size="13" lengthAdjust="spacing" textLength="213.9287" x="422.8203" y="660.5264">400 Bad Request / 401 Unauthorized</text></g><g class="message" data-participant-1="Frontend" data-participant-2="Investigador"><polygon fill="#181818" points="72.1343,691.7344,62.1343,695.7344,72.1343,699.7344,68.1343,695.7344" style="stroke:#181818;stroke-width:1;"/><line style="stroke:#181818;stroke-width:1;stroke-dasharray:2,2;" x1="66.1343" x2="394.8203" y1="695.7344" y2="695.7344"/><text fill="#000000" font-family="sans-serif" font-size="13" lengthAdjust="spacing" textLength="151.7407" x="78.1343" y="690.8779">Presenta error de edici&#195;&#179;n</text></g><!--SRC=[fLJDZjCm4BxdAKPxIWLL5yIf1wIscw88QAkqtTDAAsyoMqQaTh2T2lRAa_0ClC7oOepZD3zLTm5HgL8yzlVvcvblRCdc25SaTbhi1MG81jCIPKe2XX1bP8M60lKzvRoPGomFQ2pjHAPq48ZKAjsF5K9RIgaGqiA5nwyg-5pf_OqC4sJGu0A4WRbMqgBC-XX_UiPRMkKvQiQi2qro1rEbQkIae3veZOQKNAC-K8hL4HyvHzqzrOkSEvnWeGnnbjywvzjW47IJX-7R9ganV5GPtLCgm9Hr1Lszw20ijgaVFnoKinh3Qhk1aIXev24tqb-vBJB69VYbvDlW1QHAVIPi2Lr5-EzeVEPZK7TCZDel9wajHHwAqdv2oKaAoy51Yw_B9N9RVVxw_lXJWjyDW7z-7uP7cNwTe2cKD1Z6Y-jelOdVJQwMoQ02P7ZAxQArn5xPnu0TcwoqAaY5r2dhI-3SbV6y3Mk_TMwh5pbppK7ab0az4_ixKYRia3w1RFlSL7EbzDQKGfz8FAkjOvFsaZPO5VD4eb_-hQOT2-64GcyLts9wO3s3VxpGAJzYJxltJ2wDkCQyzLdlYlDCtOvLTkWDpUlBIrY-Fxh-AIRdTXTgfuT9kfF8KZGQThg0vMeMBnVH-dOL9VFum-ra6aV9PjbB6NF3Zw3p0t1NsVm_s2cyKFmQDiDGEZvyPXeMwhfoMFGrnSBD5ungpwKrnxt8tV9F0zAho1kko5HaS9pz4KTUmLQwKLQQ7Z3xd-gWrlnkyRFFCrYh3DoxrA4xqlm6]--></g></svg>