<svg xmlns="http://www.w3.org/2000/svg" xmlns:xlink="http://www.w3.org/1999/xlink" contentStyleType="text/css" height="1167px" preserveAspectRatio="none" style="width:1827px;height:1167px;background:#FFFFFF;" version="1.1" viewBox="0 0 1827 1167" width="1827px" zoomAndPan="magnify"><title>Diagrama de secuencia - Editar perfil del Investigador</title><defs/><g><text fill="#000000" font-family="sans-serif" font-size="14" font-weight="bold" lengthAdjust="spacing" textLength="357.1162" x="736.3237" y="29.5332">Diagrama de secuencia - Editar perfil del Investigador</text><rect fill="#FFFFFF" height="922.0313" style="stroke:#181818;stroke-width:1;" width="10" x="395.8203" y="153.5703"/><rect fill="#FFFFFF" height="532.3281" style="stroke:#181818;stroke-width:1;" width="10" x="702.9473" y="347.6797"/><rect fill="#FFFFFF" height="55.7031" style="stroke:#181818;stroke-width:1;" width="10" x="982.7705" y="378.0313"/><rect fill="#FFFFFF" height="369.2188" style="stroke:#181818;stroke-width:1;" width="10" x="1090.8047" y="464.0859"/><rect fill="#FFFFFF" height="211.4609" style="stroke:#181818;stroke-width:1;" width="10" x="1325.7227" y="591.4922"/><rect fill="none" height="675.5703" style="stroke:#000000;stroke-width:1.5;" width="1810.7637" x="10" y="393.0313"/><line style="stroke:#181818;stroke-width:0.5;stroke-dasharray:5.0,5.0;" x1="61" x2="61" y1="121.2188" y2="1085.6016"/><line style="stroke:#181818;stroke-width:0.5;stroke-dasharray:5.0,5.0;" x1="400.2549" x2="400.2549" y1="121.2188" y2="1085.6016"/><line style="stroke:#181818;stroke-width:0.5;stroke-dasharray:5.0,5.0;" x1="707.6543" x2="707.6543" y1="121.2188" y2="1085.6016"/><line style="stroke:#181818;stroke-width:0.5;stroke-dasharray:5.0,5.0;" x1="987.0259" x2="987.0259" y1="121.2188" y2="1085.6016"/><line style="stroke:#181818;stroke-width:0.5;stroke-dasharray:5.0,5.0;" x1="1095.5151" x2="1095.5151" y1="121.2188" y2="1085.6016"/><line style="stroke:#181818;stroke-width:0.5;stroke-dasharray:5.0,5.0;" x1="1330.1436" x2="1330.1436" y1="121.2188" y2="1085.6016"/><line style="stroke:#181818;stroke-width:0.5;stroke-dasharray:5.0,5.0;" x1="1760.9297" x2="1760.9297" y1="121.2188" y2="1085.6016"/><text fill="#000000" font-family="sans-serif" font-size="14" lengthAdjust="spacing" textLength="76.2686" x="20" y="118.1426">Investigador</text><ellipse cx="61.1343" cy="52.1094" fill="#E2E2F0" rx="8" ry="8" style="stroke:#181818;stroke-width:0.5;"/><path d="M61.1343,60.1094 L61.1343,87.1094 M48.1343,68.1094 L74.1343,68.1094 M61.1343,87.1094 L48.1343,102.1094 M61.1343,87.1094 L74.1343,102.1094 " fill="none" style="stroke:#181818;stroke-width:0.5;"/><text fill="#000000" font-family="sans-serif" font-size="14" lengthAdjust="spacing" textLength="76.2686" x="20" y="1099.1348">Investigador</text><ellipse cx="61.1343" cy="1110.7109" fill="#E2E2F0" rx="8" ry="8" style="stroke:#181818;stroke-width:0.5;"/><path d="M61.1343,1118.7109 L61.1343,1145.7109 M48.1343,1126.7109 L74.1343,1126.7109 M61.1343,1145.7109 L48.1343,1160.7109 M61.1343,1145.7109 L74.1343,1160.7109 " fill="none" style="stroke:#181818;stroke-width:0.5;"/><rect fill="#E2E2F0" height="49.2188" rx="2.5" ry="2.5" style="stroke:#181818;stroke-width:0.5;" width="115.1309" x="343.2549" y="71"/><text fill="#000000" font-family="sans-serif" font-size="14" lengthAdjust="spacing" textLength="101.1309" x="350.2549" y="92.5332">EditarPerfilForm</text><text fill="#000000" font-family="sans-serif" font-size="14" lengthAdjust="spacing" textLength="45.8965" x="377.8721" y="110.1426">(React)</text><rect fill="#E2E2F0" height="49.2188" rx="2.5" ry="2.5" style="stroke:#181818;stroke-width:0.5;" width="115.1309" x="343.2549" y="1084.6016"/><text fill="#000000" font-family="sans-serif" font-size="14" lengthAdjust="spacing" textLength="101.1309" x="350.2549" y="1106.1348">EditarPerfilForm</text><text fill="#000000" font-family="sans-serif" font-size="14" lengthAdjust="spacing" textLength="45.8965" x="377.8721" y="1123.7441">(React)</text><rect fill="#E2E2F0" height="49.2188" rx="2.5" ry="2.5" style="stroke:#181818;stroke-width:0.5;" width="106.5859" x="654.6543" y="71"/><text fill="#000000" font-family="sans-serif" font-size="14" lengthAdjust="spacing" textLength="92.5859" x="661.6543" y="92.5332">PerfilController</text><text fill="#000000" font-family="sans-serif" font-size="14" lengthAdjust="spacing" textLength="82.4824" x="666.7061" y="110.1426">(Spring Boot)</text><rect fill="#E2E2F0" height="49.2188" rx="2.5" ry="2.5" style="stroke:#181818;stroke-width:0.5;" width="106.5859" x="654.6543" y="1084.6016"/><text fill="#000000" font-family="sans-serif" font-size="14" lengthAdjust="spacing" textLength="92.5859" x="661.6543" y="1106.1348">PerfilController</text><text fill="#000000" font-family="sans-serif" font-size="14" lengthAdjust="spacing" textLength="82.4824" x="666.7061" y="1123.7441">(Spring Boot)</text><rect fill="#E2E2F0" height="31.6094" rx="2.5" ry="2.5" style="stroke:#181818;stroke-width:0.5;" width="103.4893" x="936.0259" y="88.6094"/><text fill="#000000" font-family="sans-serif" font-size="14" lengthAdjust="spacing" textLength="89.4893" x="943.0259" y="110.1426">SesionService</text><rect fill="#E2E2F0" height="31.6094" rx="2.5" ry="2.5" style="stroke:#181818;stroke-width:0.5;" width="103.4893" x="936.0259" y="1084.6016"/><text fill="#000000" font-family="sans-serif" font-size="14" lengthAdjust="spacing" textLength="89.4893" x="943.0259" y="1106.1348">SesionService</text><rect fill="#E2E2F0" height="31.6094" rx="2.5" ry="2.5" style="stroke:#181818;stroke-width:0.5;" width="92.5791" x="1049.5151" y="88.6094"/><text fill="#000000" font-family="sans-serif" font-size="14" lengthAdjust="spacing" textLength="78.5791" x="1056.5151" y="110.1426">PerfilService</text><rect fill="#E2E2F0" height="31.6094" rx="2.5" ry="2.5" style="stroke:#181818;stroke-width:0.5;" width="92.5791" x="1049.5151" y="1084.6016"/><text fill="#000000" font-family="sans-serif" font-size="14" lengthAdjust="spacing" textLength="78.5791" x="1056.5151" y="1106.1348">PerfilService</text><rect fill="#E2E2F0" height="31.6094" rx="2.5" ry="2.5" style="stroke:#181818;stroke-width:0.5;" width="129.1582" x="1266.1436" y="88.6094"/><text fill="#000000" font-family="sans-serif" font-size="14" lengthAdjust="spacing" textLength="115.1582" x="1273.1436" y="110.1426">UsuarioRepository</text><rect fill="#E2E2F0" height="31.6094" rx="2.5" ry="2.5" style="stroke:#181818;stroke-width:0.5;" width="129.1582" x="1266.1436" y="1084.6016"/><text fill="#000000" font-family="sans-serif" font-size="14" lengthAdjust="spacing" textLength="115.1582" x="1273.1436" y="1106.1348">UsuarioRepository</text><text fill="#000000" font-family="sans-serif" font-size="14" lengthAdjust="spacing" textLength="91.834" x="1712.9297" y="118.1426">Base de Datos</text><path d="M1743.8467,67.6094 C1743.8467,57.6094 1761.8467,57.6094 1761.8467,57.6094 C1761.8467,57.6094 1779.8467,57.6094 1779.8467,67.6094 L1779.8467,93.6094 C1779.8467,103.6094 1761.8467,103.6094 1761.8467,103.6094 C1761.8467,103.6094 1743.8467,103.6094 1743.8467,93.6094 L1743.8467,67.6094 " fill="#E2E2F0" style="stroke:#181818;stroke-width:1.5;"/><path d="M1743.8467,67.6094 C1743.8467,77.6094 1761.8467,77.6094 1761.8467,77.6094 C1761.8467,77.6094 1779.8467,77.6094 1779.8467,67.6094 " fill="none" style="stroke:#181818;stroke-width:1.5;"/><text fill="#000000" font-family="sans-serif" font-size="14" lengthAdjust="spacing" textLength="91.834" x="1712.9297" y="1099.1348">Base de Datos</text><path d="M1743.8467,1112.2109 C1743.8467,1102.2109 1761.8467,1102.2109 1761.8467,1102.2109 C1761.8467,1102.2109 1779.8467,1102.2109 1779.8467,1112.2109 L1779.8467,1138.2109 C1779.8467,1148.2109 1761.8467,1148.2109 1761.8467,1148.2109 C1761.8467,1148.2109 1743.8467,1148.2109 1743.8467,1138.2109 L1743.8467,1112.2109 " fill="#E2E2F0" style="stroke:#181818;stroke-width:1.5;"/><path d="M1743.8467,1112.2109 C1743.8467,1122.2109 1761.8467,1122.2109 1761.8467,1122.2109 C1761.8467,1122.2109 1779.8467,1122.2109 1779.8467,1112.2109 " fill="none" style="stroke:#181818;stroke-width:1.5;"/><rect fill="#FFFFFF" height="922.0313" style="stroke:#181818;stroke-width:1;" width="10" x="395.8203" y="153.5703"/><rect fill="#FFFFFF" height="532.3281" style="stroke:#181818;stroke-width:1;" width="10" x="702.9473" y="347.6797"/><rect fill="#FFFFFF" height="55.7031" style="stroke:#181818;stroke-width:1;" width="10" x="982.7705" y="378.0313"/><rect fill="#FFFFFF" height="369.2188" style="stroke:#181818;stroke-width:1;" width="10" x="1090.8047" y="464.0859"/><rect fill="#FFFFFF" height="211.4609" style="stroke:#181818;stroke-width:1;" width="10" x="1325.7227" y="591.4922"/><polygon fill="#181818" points="383.8203,149.5703,393.8203,153.5703,383.8203,157.5703,387.8203,153.5703" style="stroke:#181818;stroke-width:1;"/><line style="stroke:#181818;stroke-width:1;" x1="61.1343" x2="389.8203" y1="153.5703" y2="153.5703"/><text fill="#000000" font-family="sans-serif" font-size="13" lengthAdjust="spacing" textLength="127.1689" x="68.1343" y="148.7139">Solicita editar su perfil</text><line style="stroke:#181818;stroke-width:1;" x1="405.8203" x2="447.8203" y1="183.9219" y2="183.9219"/><line style="stroke:#181818;stroke-width:1;" x1="447.8203" x2="447.8203" y1="183.9219" y2="196.9219"/><line style="stroke:#181818;stroke-width:1;" x1="406.8203" x2="447.8203" y1="196.9219" y2="196.9219"/><polygon fill="#181818" points="416.8203,192.9219,406.8203,196.9219,416.8203,200.9219,412.8203,196.9219" style="stroke:#181818;stroke-width:1;"/><text fill="#000000" font-family="sans-serif" font-size="13" lengthAdjust="spacing" textLength="273.127" x="412.8203" y="179.0654">Precargar formulario con PerfilResponse actual</text><polygon fill="#181818" points="72.1343,223.2734,62.1343,227.2734,72.1343,231.2734,68.1343,227.2734" style="stroke:#181818;stroke-width:1;"/><line style="stroke:#181818;stroke-width:1;stroke-dasharray:2.0,2.0;" x1="66.1343" x2="394.8203" y1="227.2734" y2="227.2734"/><text fill="#000000" font-family="sans-serif" font-size="13" lengthAdjust="spacing" textLength="244.2324" x="78.1343" y="222.417">Muestra formulario con datos precargados</text><polygon fill="#181818" points="383.8203,253.625,393.8203,257.625,383.8203,261.625,387.8203,257.625" style="stroke:#181818;stroke-width:1;"/><line style="stroke:#181818;stroke-width:1;" x1="61.1343" x2="389.8203" y1="257.625" y2="257.625"/><text fill="#000000" font-family="sans-serif" font-size="13" lengthAdjust="spacing" textLength="138.0234" x="68.1343" y="252.7686">Modifica datos y guarda</text><line style="stroke:#181818;stroke-width:1;" x1="405.8203" x2="447.8203" y1="287.9766" y2="287.9766"/><line style="stroke:#181818;stroke-width:1;" x1="447.8203" x2="447.8203" y1="287.9766" y2="300.9766"/><line style="stroke:#181818;stroke-width:1;" x1="406.8203" x2="447.8203" y1="300.9766" y2="300.9766"/><polygon fill="#181818" points="416.8203,296.9766,406.8203,300.9766,416.8203,304.9766,412.8203,300.9766" style="stroke:#181818;stroke-width:1;"/><text fill="#000000" font-family="sans-serif" font-size="13" lengthAdjust="spacing" textLength="136.5635" x="412.8203" y="283.1201">Comprobar sesi&#243;n local</text><polygon fill="#181818" points="690.9473,343.6797,700.9473,347.6797,690.9473,351.6797,694.9473,347.6797" style="stroke:#181818;stroke-width:1;"/><line style="stroke:#181818;stroke-width:1;" x1="405.8203" x2="696.9473" y1="347.6797" y2="347.6797"/><text fill="#000000" font-family="sans-serif" font-size="13" lengthAdjust="spacing" textLength="100.4199" x="412.8203" y="326.4717">PATCH /api/perfil</text><text fill="#000000" font-family="sans-serif" font-size="13" lengthAdjust="spacing" textLength="172.3516" x="412.8203" y="342.8232">PerfilUpdateRequest + cookie</text><polygon fill="#181818" points="970.7705,374.0313,980.7705,378.0313,970.7705,382.0313,974.7705,378.0313" style="stroke:#181818;stroke-width:1;"/><line style="stroke:#181818;stroke-width:1;" x1="712.9473" x2="976.7705" y1="378.0313" y2="378.0313"/><text fill="#000000" font-family="sans-serif" font-size="13" lengthAdjust="spacing" textLength="209.5806" x="719.9473" y="373.1748">obtenerSesionActual(authentication)</text><path d="M10,393.0313 L70.1709,393.0313 L70.1709,401.3828 L60.1709,411.3828 L10,411.3828 L10,393.0313 " fill="#EEEEEE" style="stroke:#000000;stroke-width:1.5;"/><rect fill="none" height="675.5703" style="stroke:#000000;stroke-width:1.5;" width="1810.7637" x="10" y="393.0313"/><text fill="#000000" font-family="sans-serif" font-size="13" font-weight="bold" lengthAdjust="spacing" textLength="15.1709" x="25" y="407.5264">alt</text><text fill="#000000" font-family="sans-serif" font-size="11" font-weight="bold" lengthAdjust="spacing" textLength="77.6392" x="85.1709" y="406.4502">[Sesi&#243;n activa]</text><polygon fill="#181818" points="723.9473,429.7344,713.9473,433.7344,723.9473,437.7344,719.9473,433.7344" style="stroke:#181818;stroke-width:1;"/><line style="stroke:#181818;stroke-width:1;stroke-dasharray:2.0,2.0;" x1="717.9473" x2="986.7705" y1="433.7344" y2="433.7344"/><text fill="#000000" font-family="sans-serif" font-size="13" lengthAdjust="spacing" textLength="98.2871" x="729.9473" y="428.8779">SesionResponse</text><polygon fill="#181818" points="1078.8047,460.0859,1088.8047,464.0859,1078.8047,468.0859,1082.8047,464.0859" style="stroke:#181818;stroke-width:1;"/><line style="stroke:#181818;stroke-width:1;" x1="712.9473" x2="1084.8047" y1="464.0859" y2="464.0859"/><text fill="#000000" font-family="sans-serif" font-size="13" lengthAdjust="spacing" textLength="240.6143" x="719.9473" y="459.2295">actualizarPerfilPropio(investigador, datos)</text><path d="M1105,477.0859 L1105,503.0859 L1362,503.0859 L1362,487.0859 L1352,477.0859 L1105,477.0859 " fill="#FEFFDD" style="stroke:#181818;stroke-width:0.5;"/><path d="M1352,477.0859 L1352,487.0859 L1362,487.0859 L1352,477.0859 " fill="#FEFFDD" style="stroke:#181818;stroke-width:0.5;"/><text fill="#000000" font-family="sans-serif" font-size="13" lengthAdjust="spacing" textLength="236.2979" x="1111" y="495.5811">Responsabilidad interna: validarCambios</text><polygon fill="#181818" points="1318.7227,526.7891,1328.7227,530.7891,1318.7227,534.7891,1322.7227,530.7891" style="stroke:#181818;stroke-width:1;"/><line style="stroke:#181818;stroke-width:1;" x1="1100.8047" x2="1324.7227" y1="530.7891" y2="530.7891"/><text fill="#000000" font-family="sans-serif" font-size="13" lengthAdjust="spacing" textLength="205.918" x="1107.8047" y="525.9326">findByNombreUsuario(investigador)</text><polygon fill="#181818" points="1749.8467,557.1406,1759.8467,561.1406,1749.8467,565.1406,1753.8467,561.1406" style="stroke:#181818;stroke-width:1;"/><line style="stroke:#181818;stroke-width:1;" x1="1330.7227" x2="1755.8467" y1="561.1406" y2="561.1406"/><text fill="#000000" font-family="sans-serif" font-size="13" lengthAdjust="spacing" textLength="291.5161" x="1337.7227" y="556.2842">SELECT * FROM usuarios WHERE usuario_id = ?</text><polygon fill="#181818" points="1346.7227,587.4922,1336.7227,591.4922,1346.7227,595.4922,1342.7227,591.4922" style="stroke:#181818;stroke-width:1;"/><line style="stroke:#181818;stroke-width:1;stroke-dasharray:2.0,2.0;" x1="1340.7227" x2="1760.8467" y1="591.4922" y2="591.4922"/><text fill="#000000" font-family="sans-serif" font-size="13" lengthAdjust="spacing" textLength="149.5889" x="1352.7227" y="586.6357">Resultado de persistencia</text><polygon fill="#181818" points="1111.8047,617.8438,1101.8047,621.8438,1111.8047,625.8438,1107.8047,621.8438" style="stroke:#181818;stroke-width:1;"/><line style="stroke:#181818;stroke-width:1;stroke-dasharray:2.0,2.0;" x1="1105.8047" x2="1324.7227" y1="621.8438" y2="621.8438"/><text fill="#000000" font-family="sans-serif" font-size="13" lengthAdjust="spacing" textLength="29.6182" x="1117.8047" y="616.9873">Perfil</text><line style="stroke:#181818;stroke-width:1;" x1="1100.8047" x2="1142.8047" y1="652.1953" y2="652.1953"/><line style="stroke:#181818;stroke-width:1;" x1="1142.8047" x2="1142.8047" y1="652.1953" y2="665.1953"/><line style="stroke:#181818;stroke-width:1;" x1="1101.8047" x2="1142.8047" y1="665.1953" y2="665.1953"/><polygon fill="#181818" points="1111.8047,661.1953,1101.8047,665.1953,1111.8047,669.1953,1107.8047,665.1953" style="stroke:#181818;stroke-width:1;"/><text fill="#000000" font-family="sans-serif" font-size="13" lengthAdjust="spacing" textLength="131.498" x="1107.8047" y="647.3389">actualizar(perfil, datos)</text><polygon fill="#181818" points="1313.7227,691.5469,1323.7227,695.5469,1313.7227,699.5469,1317.7227,695.5469" style="stroke:#181818;stroke-width:1;"/><line style="stroke:#181818;stroke-width:1;" x1="1100.8047" x2="1319.7227" y1="695.5469" y2="695.5469"/><text fill="#000000" font-family="sans-serif" font-size="13" lengthAdjust="spacing" textLength="131.5044" x="1107.8047" y="690.6904">save(perfilActualizado)</text><polygon fill="#181818" points="1749.8467,738.25,1759.8467,742.25,1749.8467,746.25,1753.8467,742.25" style="stroke:#181818;stroke-width:1;"/><line style="stroke:#181818;stroke-width:1;" x1="1335.7227" x2="1755.8467" y1="742.25" y2="742.25"/><text fill="#000000" font-family="sans-serif" font-size="13" lengthAdjust="spacing" textLength="402.124" x="1342.7227" y="721.042">UPDATE usuarios SET nombre_completo = ?, correo = ?, unidad = ?,</text><text fill="#000000" font-family="sans-serif" font-size="13" lengthAdjust="spacing" textLength="298.8096" x="1342.7227" y="737.3936">linea_investigacion = ?, biografia = ? WHERE id = ?</text><polygon fill="#181818" points="1346.7227,768.6016,1336.7227,772.6016,1346.7227,776.6016,1342.7227,772.6016" style="stroke:#181818;stroke-width:1;"/><line style="stroke:#181818;stroke-width:1;stroke-dasharray:2.0,2.0;" x1="1340.7227" x2="1760.8467" y1="772.6016" y2="772.6016"/><text fill="#000000" font-family="sans-serif" font-size="13" lengthAdjust="spacing" textLength="149.5889" x="1352.7227" y="767.7451">Resultado de persistencia</text><polygon fill="#181818" points="1111.8047,798.9531,1101.8047,802.9531,1111.8047,806.9531,1107.8047,802.9531" style="stroke:#181818;stroke-width:1;"/><line style="stroke:#181818;stroke-width:1;stroke-dasharray:2.0,2.0;" x1="1105.8047" x2="1329.7227" y1="802.9531" y2="802.9531"/><text fill="#000000" font-family="sans-serif" font-size="13" lengthAdjust="spacing" textLength="98.998" x="1117.8047" y="798.0967">Perfil actualizado</text><polygon fill="#181818" points="723.9473,829.3047,713.9473,833.3047,723.9473,837.3047,719.9473,833.3047" style="stroke:#181818;stroke-width:1;"/><line style="stroke:#181818;stroke-width:1;stroke-dasharray:2.0,2.0;" x1="717.9473" x2="1094.8047" y1="833.3047" y2="833.3047"/><text fill="#000000" font-family="sans-serif" font-size="13" lengthAdjust="spacing" textLength="88.1563" x="729.9473" y="828.4482">PerfilResponse</text><polygon fill="#181818" points="416.8203,876.0078,406.8203,880.0078,416.8203,884.0078,412.8203,880.0078" style="stroke:#181818;stroke-width:1;"/><line style="stroke:#181818;stroke-width:1;stroke-dasharray:2.0,2.0;" x1="410.8203" x2="706.9473" y1="880.0078" y2="880.0078"/><text fill="#000000" font-family="sans-serif" font-size="13" lengthAdjust="spacing" textLength="44.0845" x="422.8203" y="858.7998">200 OK</text><text fill="#000000" font-family="sans-serif" font-size="13" lengthAdjust="spacing" textLength="88.1563" x="422.8203" y="875.1514">PerfilResponse</text><line style="stroke:#181818;stroke-width:1;" x1="405.8203" x2="447.8203" y1="910.3594" y2="910.3594"/><line style="stroke:#181818;stroke-width:1;" x1="447.8203" x2="447.8203" y1="910.3594" y2="923.3594"/><line style="stroke:#181818;stroke-width:1;" x1="406.8203" x2="447.8203" y1="923.3594" y2="923.3594"/><polygon fill="#181818" points="416.8203,919.3594,406.8203,923.3594,416.8203,927.3594,412.8203,923.3594" style="stroke:#181818;stroke-width:1;"/><text fill="#000000" font-family="sans-serif" font-size="13" lengthAdjust="spacing" textLength="232.667" x="412.8203" y="905.5029">Actualizar datos de perfil y notificar &#233;xito</text><polygon fill="#181818" points="72.1343,949.7109,62.1343,953.7109,72.1343,957.7109,68.1343,953.7109" style="stroke:#181818;stroke-width:1;"/><line style="stroke:#181818;stroke-width:1;stroke-dasharray:2.0,2.0;" x1="66.1343" x2="394.8203" y1="953.7109" y2="953.7109"/><text fill="#000000" font-family="sans-serif" font-size="13" lengthAdjust="spacing" textLength="310.686" x="78.1343" y="948.8545">Presenta OPCIONES_PERFIL_ABIERTO actualizado</text><line style="stroke:#000000;stroke-width:1;stroke-dasharray:2.0,2.0;" x1="10" x2="1820.7637" y1="962.7109" y2="962.7109"/><text fill="#000000" font-family="sans-serif" font-size="11" font-weight="bold" lengthAdjust="spacing" textLength="180.9307" x="15" y="974.1299">[Datos inv&#225;lidos o sesi&#243;n ausente]</text><polygon fill="#181818" points="718.9473,995.8984,708.9473,999.8984,718.9473,1003.8984,714.9473,999.8984" style="stroke:#181818;stroke-width:1;"/><line style="stroke:#181818;stroke-width:1;stroke-dasharray:2.0,2.0;" x1="712.9473" x2="986.7705" y1="999.8984" y2="999.8984"/><text fill="#000000" font-family="sans-serif" font-size="13" lengthAdjust="spacing" textLength="255.8232" x="724.9473" y="995.042">SesionNoValidaException / validaci&#243;n fallida</text><polygon fill="#181818" points="416.8203,1026.25,406.8203,1030.25,416.8203,1034.25,412.8203,1030.25" style="stroke:#181818;stroke-width:1;"/><line style="stroke:#181818;stroke-width:1;stroke-dasharray:2.0,2.0;" x1="410.8203" x2="706.9473" y1="1030.25" y2="1030.25"/><text fill="#000000" font-family="sans-serif" font-size="13" lengthAdjust="spacing" textLength="213.9287" x="422.8203" y="1025.3936">400 Bad Request / 401 Unauthorized</text><polygon fill="#181818" points="72.1343,1056.6016,62.1343,1060.6016,72.1343,1064.6016,68.1343,1060.6016" style="stroke:#181818;stroke-width:1;"/><line style="stroke:#181818;stroke-width:1;stroke-dasharray:2.0,2.0;" x1="66.1343" x2="394.8203" y1="1060.6016" y2="1060.6016"/><text fill="#000000" font-family="sans-serif" font-size="13" lengthAdjust="spacing" textLength="145.9707" x="78.1343" y="1055.7451">Presenta error de edici&#243;n</text><!--SRC=[fLN9RXin3BtxAuYSaYv8MlHae2cyJ92WIMnuQIy137f4EqB7qbJI64t-fiUU-mdviLAQtN7S0WtWGEA8J-GZ-UIaImY64jS6DmY2m5ASaOebmbk8X7He82MpaWb_JE1ARSawkKQXJQU3iTEcRKlHE1dB59M3ezn_7DmljDdSgUC9iTF94Q252wEL8oNQFldf0NyoEad8iCyqDLAjeQzruTbBPTjfIbPgDIMpbJ658xbb7tJpLClIFZot6Hgf9vHgApdDXuP3RUm8TBX4It3Kz_-Pm24wRSFXOR_JQP83Ry-hfBimrGbVvX0ePzbc1T6ULhb5HpL3vQADC3OKercpxuh9pH8VByHQLL7QL2iEYl4oJ1eWZDACgmit6MyCxk88dmganJL2smFft6WXLpB6mka1rioVm1T27-XDQlJIfys5Ulgj8D5nAyPpNsNEiJSRNC8ffl8qP-TEvTdDKxw89lJTXmwlELxzJLBDdUyH_dcWl1Uwe9SCJIRVzW8fnvYvUr9STdHiFAdzYmR2n8Mb3p7_rW7-oxy69aEO-RvaF1mHj8lbhKL8hSRh5XMIZ-MmZ8rEfJwM3RRVvCIU19GAkTt0IhF9oFMz0xtQlQC83fSoaG85I2RQAEp25ht1372pb5nYZzzohUEj-xuBAwb4_-5MRvQ6YbbfnNlI0AhzFDQmptn5rz5W1g_WOZAwWIptj_3rCff4vNOX1No4Jm5ds0zSFm-3iyeInnVwqUCEiTAw85_xU6hCxVxWdbSctnuYPKyHZ_DMRPNi7oYrkAN2jLTY2NsOoFbus9j5DOFJQ0Og56KHyumbvBGdyGtFXp5Kh3CLEi2lxrGY5U6YAbti-pgSucxWLs75Bm5lYzByVqd-dVIQKA5t9-f0FIkAAmbfgU5-f7A2gX5jgTNxipCOVIwLvoKahpZUj5_ngegQGY5pSdoU3rmn5yJJmDEl7vpG3iuplMRbjwnQ2AFnu6fq6qqNusXoSNMzwFMleibirAAE4bkyIZppswUVFEsyr9NoOkQnw82ktUelGIEY7p6bNYVXj52DE22iCF6RlybUYuyFp6cVcx1Ky5Esl8EvyeAiZNmayNT-N-Q5ZE47YYdcnpN4sF7FQ0Ei1Fa3]--></g></svg>