<svg xmlns="http://www.w3.org/2000/svg" xmlns:xlink="http://www.w3.org/1999/xlink" contentStyleType="text/css" height="1028px" preserveAspectRatio="none" style="width:1996px;height:1028px;background:#FFFFFF;" version="1.1" viewBox="0 0 1996 1028" width="1996px" zoomAndPan="magnify"><title>Diagrama de secuencia - Abrir opciones de carga de trabajo del Coordinador</title><defs/><g><text fill="#000000" font-family="sans-serif" font-size="14" font-weight="bold" lengthAdjust="spacing" textLength="511.1367" x="743.7769" y="29.5332">Diagrama de secuencia - Abrir opciones de carga de trabajo del Coordinador</text><rect fill="#FFFFFF" height="782.625" style="stroke:#181818;stroke-width:1;" width="10" x="401.9609" y="153.5703"/><rect fill="#FFFFFF" height="496.9766" style="stroke:#181818;stroke-width:1;" width="10" x="683.0879" y="243.625"/><rect fill="#FFFFFF" height="55.7031" style="stroke:#181818;stroke-width:1;" width="10" x="1027.2383" y="273.9766"/><rect fill="#FFFFFF" height="333.8672" style="stroke:#181818;stroke-width:1;" width="10" x="1162.124" y="360.0313"/><rect fill="#FFFFFF" height="212.4609" style="stroke:#181818;stroke-width:1;" width="10" x="1571.8608" y="390.3828"/><rect fill="#FFFFFF" height="30.3516" style="stroke:#181818;stroke-width:1;" width="10" x="1733.2017" y="511.7891"/><rect fill="#FFFFFF" height="30.3516" style="stroke:#181818;stroke-width:1;" width="10" x="1892.9873" y="633.1953"/><rect fill="none" height="640.2188" style="stroke:#000000;stroke-width:1.5;" width="1979.6904" x="10" y="288.9766"/><line style="stroke:#181818;stroke-width:0.5;stroke-dasharray:5.0,5.0;" x1="61" x2="61" y1="121.2188" y2="946.1953"/><line style="stroke:#181818;stroke-width:0.5;stroke-dasharray:5.0,5.0;" x1="406.813" x2="406.813" y1="121.2188" y2="946.1953"/><line style="stroke:#181818;stroke-width:0.5;stroke-dasharray:5.0,5.0;" x1="687.9434" x2="687.9434" y1="121.2188" y2="946.1953"/><line style="stroke:#181818;stroke-width:0.5;stroke-dasharray:5.0,5.0;" x1="1031.4937" x2="1031.4937" y1="121.2188" y2="946.1953"/><line style="stroke:#181818;stroke-width:0.5;stroke-dasharray:5.0,5.0;" x1="1166.9829" x2="1166.9829" y1="121.2188" y2="946.1953"/><line style="stroke:#181818;stroke-width:0.5;stroke-dasharray:5.0,5.0;" x1="1576.6025" x2="1576.6025" y1="121.2188" y2="946.1953"/><line style="stroke:#181818;stroke-width:0.5;stroke-dasharray:5.0,5.0;" x1="1738.1191" x2="1738.1191" y1="121.2188" y2="946.1953"/><line style="stroke:#181818;stroke-width:0.5;stroke-dasharray:5.0,5.0;" x1="1897.2842" x2="1897.2842" y1="121.2188" y2="946.1953"/><text fill="#000000" font-family="sans-serif" font-size="14" lengthAdjust="spacing" textLength="77.0479" x="20" y="118.1426">Coordinador</text><ellipse cx="61.5239" cy="52.1094" fill="#E2E2F0" rx="8" ry="8" style="stroke:#181818;stroke-width:0.5;"/><path d="M61.5239,60.1094 L61.5239,87.1094 M48.5239,68.1094 L74.5239,68.1094 M61.5239,87.1094 L48.5239,102.1094 M61.5239,87.1094 L74.5239,102.1094 " fill="none" style="stroke:#181818;stroke-width:0.5;"/><text fill="#000000" font-family="sans-serif" font-size="14" lengthAdjust="spacing" textLength="77.0479" x="20" y="959.7285">Coordinador</text><ellipse cx="61.5239" cy="971.3047" fill="#E2E2F0" rx="8" ry="8" style="stroke:#181818;stroke-width:0.5;"/><path d="M61.5239,979.3047 L61.5239,1006.3047 M48.5239,987.3047 L74.5239,987.3047 M61.5239,1006.3047 L48.5239,1021.3047 M61.5239,1006.3047 L74.5239,1021.3047 " fill="none" style="stroke:#181818;stroke-width:0.5;"/><rect fill="#E2E2F0" height="49.2188" rx="2.5" ry="2.5" style="stroke:#181818;stroke-width:0.5;" width="132.2959" x="340.813" y="71"/><text fill="#000000" font-family="sans-serif" font-size="14" lengthAdjust="spacing" textLength="118.2959" x="347.813" y="92.5332">CargaTrabajoPage</text><text fill="#000000" font-family="sans-serif" font-size="14" lengthAdjust="spacing" textLength="45.8965" x="384.0127" y="110.1426">(React)</text><rect fill="#E2E2F0" height="49.2188" rx="2.5" ry="2.5" style="stroke:#181818;stroke-width:0.5;" width="132.2959" x="340.813" y="945.1953"/><text fill="#000000" font-family="sans-serif" font-size="14" lengthAdjust="spacing" textLength="118.2959" x="347.813" y="966.7285">CargaTrabajoPage</text><text fill="#000000" font-family="sans-serif" font-size="14" lengthAdjust="spacing" textLength="45.8965" x="384.0127" y="984.3379">(React)</text><rect fill="#E2E2F0" height="49.2188" rx="2.5" ry="2.5" style="stroke:#181818;stroke-width:0.5;" width="160.2891" x="607.9434" y="71"/><text fill="#000000" font-family="sans-serif" font-size="14" lengthAdjust="spacing" textLength="146.2891" x="614.9434" y="92.5332">CargaTrabajoController</text><text fill="#000000" font-family="sans-serif" font-size="14" lengthAdjust="spacing" textLength="82.4824" x="646.8467" y="110.1426">(Spring Boot)</text><rect fill="#E2E2F0" height="49.2188" rx="2.5" ry="2.5" style="stroke:#181818;stroke-width:0.5;" width="160.2891" x="607.9434" y="945.1953"/><text fill="#000000" font-family="sans-serif" font-size="14" lengthAdjust="spacing" textLength="146.2891" x="614.9434" y="966.7285">CargaTrabajoController</text><text fill="#000000" font-family="sans-serif" font-size="14" lengthAdjust="spacing" textLength="82.4824" x="646.8467" y="984.3379">(Spring Boot)</text><rect fill="#E2E2F0" height="31.6094" rx="2.5" ry="2.5" style="stroke:#181818;stroke-width:0.5;" width="103.4893" x="980.4937" y="88.6094"/><text fill="#000000" font-family="sans-serif" font-size="14" lengthAdjust="spacing" textLength="89.4893" x="987.4937" y="110.1426">SesionService</text><rect fill="#E2E2F0" height="31.6094" rx="2.5" ry="2.5" style="stroke:#181818;stroke-width:0.5;" width="103.4893" x="980.4937" y="945.1953"/><text fill="#000000" font-family="sans-serif" font-size="14" lengthAdjust="spacing" textLength="89.4893" x="987.4937" y="966.7285">SesionService</text><rect fill="#E2E2F0" height="31.6094" rx="2.5" ry="2.5" style="stroke:#181818;stroke-width:0.5;" width="146.2822" x="1093.9829" y="88.6094"/><text fill="#000000" font-family="sans-serif" font-size="14" lengthAdjust="spacing" textLength="132.2822" x="1100.9829" y="110.1426">CargaTrabajoService</text><rect fill="#E2E2F0" height="31.6094" rx="2.5" ry="2.5" style="stroke:#181818;stroke-width:0.5;" width="146.2822" x="1093.9829" y="945.1953"/><text fill="#000000" font-family="sans-serif" font-size="14" lengthAdjust="spacing" textLength="132.2822" x="1100.9829" y="966.7285">CargaTrabajoService</text><rect fill="#E2E2F0" height="31.6094" rx="2.5" ry="2.5" style="stroke:#181818;stroke-width:0.5;" width="166.5166" x="1493.6025" y="88.6094"/><text fill="#000000" font-family="sans-serif" font-size="14" lengthAdjust="spacing" textLength="152.5166" x="1500.6025" y="110.1426">CargaTrabajoRepository</text><rect fill="#E2E2F0" height="31.6094" rx="2.5" ry="2.5" style="stroke:#181818;stroke-width:0.5;" width="166.5166" x="1493.6025" y="945.1953"/><text fill="#000000" font-family="sans-serif" font-size="14" lengthAdjust="spacing" textLength="152.5166" x="1500.6025" y="966.7285">CargaTrabajoRepository</text><rect fill="#E2E2F0" height="31.6094" rx="2.5" ry="2.5" style="stroke:#181818;stroke-width:0.5;" width="136.165" x="1670.1191" y="88.6094"/><text fill="#000000" font-family="sans-serif" font-size="14" lengthAdjust="spacing" textLength="122.165" x="1677.1191" y="110.1426">ProyectoRepository</text><rect fill="#E2E2F0" height="31.6094" rx="2.5" ry="2.5" style="stroke:#181818;stroke-width:0.5;" width="136.165" x="1670.1191" y="945.1953"/><text fill="#000000" font-family="sans-serif" font-size="14" lengthAdjust="spacing" textLength="122.165" x="1677.1191" y="966.7285">ProyectoRepository</text><rect fill="#E2E2F0" height="31.6094" rx="2.5" ry="2.5" style="stroke:#181818;stroke-width:0.5;" width="163.4063" x="1816.2842" y="88.6094"/><text fill="#000000" font-family="sans-serif" font-size="14" lengthAdjust="spacing" textLength="149.4063" x="1823.2842" y="110.1426">RecompensaRepository</text><rect fill="#E2E2F0" height="31.6094" rx="2.5" ry="2.5" style="stroke:#181818;stroke-width:0.5;" width="163.4063" x="1816.2842" y="945.1953"/><text fill="#000000" font-family="sans-serif" font-size="14" lengthAdjust="spacing" textLength="149.4063" x="1823.2842" y="966.7285">RecompensaRepository</text><rect fill="#FFFFFF" height="782.625" style="stroke:#181818;stroke-width:1;" width="10" x="401.9609" y="153.5703"/><rect fill="#FFFFFF" height="496.9766" style="stroke:#181818;stroke-width:1;" width="10" x="683.0879" y="243.625"/><rect fill="#FFFFFF" height="55.7031" style="stroke:#181818;stroke-width:1;" width="10" x="1027.2383" y="273.9766"/><rect fill="#FFFFFF" height="333.8672" style="stroke:#181818;stroke-width:1;" width="10" x="1162.124" y="360.0313"/><rect fill="#FFFFFF" height="212.4609" style="stroke:#181818;stroke-width:1;" width="10" x="1571.8608" y="390.3828"/><rect fill="#FFFFFF" height="30.3516" style="stroke:#181818;stroke-width:1;" width="10" x="1733.2017" y="511.7891"/><rect fill="#FFFFFF" height="30.3516" style="stroke:#181818;stroke-width:1;" width="10" x="1892.9873" y="633.1953"/><polygon fill="#181818" points="389.9609,149.5703,399.9609,153.5703,389.9609,157.5703,393.9609,153.5703" style="stroke:#181818;stroke-width:1;"/><line style="stroke:#181818;stroke-width:1;" x1="61.5239" x2="395.9609" y1="153.5703" y2="153.5703"/><text fill="#000000" font-family="sans-serif" font-size="13" lengthAdjust="spacing" textLength="169.0889" x="68.5239" y="148.7139">Solicita abrir carga de trabajo</text><line style="stroke:#181818;stroke-width:1;" x1="411.9609" x2="453.9609" y1="183.9219" y2="183.9219"/><line style="stroke:#181818;stroke-width:1;" x1="453.9609" x2="453.9609" y1="183.9219" y2="196.9219"/><line style="stroke:#181818;stroke-width:1;" x1="412.9609" x2="453.9609" y1="196.9219" y2="196.9219"/><polygon fill="#181818" points="422.9609,192.9219,412.9609,196.9219,422.9609,200.9219,418.9609,196.9219" style="stroke:#181818;stroke-width:1;"/><text fill="#000000" font-family="sans-serif" font-size="13" lengthAdjust="spacing" textLength="136.5635" x="418.9609" y="179.0654">Comprobar sesion local</text><polygon fill="#181818" points="671.0879,239.625,681.0879,243.625,671.0879,247.625,675.0879,243.625" style="stroke:#181818;stroke-width:1;"/><line style="stroke:#181818;stroke-width:1;" x1="411.9609" x2="677.0879" y1="243.625" y2="243.625"/><text fill="#000000" font-family="sans-serif" font-size="13" lengthAdjust="spacing" textLength="131.5044" x="418.9609" y="222.417">GET /api/carga-trabajo</text><text fill="#000000" font-family="sans-serif" font-size="13" lengthAdjust="spacing" textLength="87.7817" x="418.9609" y="238.7686">Filtros + cookie</text><polygon fill="#181818" points="1015.2383,269.9766,1025.2383,273.9766,1015.2383,277.9766,1019.2383,273.9766" style="stroke:#181818;stroke-width:1;"/><line style="stroke:#181818;stroke-width:1;" x1="693.0879" x2="1021.2383" y1="273.9766" y2="273.9766"/><text fill="#000000" font-family="sans-serif" font-size="13" lengthAdjust="spacing" textLength="209.5806" x="700.0879" y="269.1201">obtenerSesionActual(authentication)</text><path d="M10,288.9766 L70.1709,288.9766 L70.1709,297.3281 L60.1709,307.3281 L10,307.3281 L10,288.9766 " fill="#EEEEEE" style="stroke:#000000;stroke-width:1.5;"/><rect fill="none" height="640.2188" style="stroke:#000000;stroke-width:1.5;" width="1979.6904" x="10" y="288.9766"/><text fill="#000000" font-family="sans-serif" font-size="13" font-weight="bold" lengthAdjust="spacing" textLength="15.1709" x="25" y="303.4717">alt</text><text fill="#000000" font-family="sans-serif" font-size="11" font-weight="bold" lengthAdjust="spacing" textLength="162.583" x="85.1709" y="302.3955">[Sesion de Coordinador activa]</text><polygon fill="#181818" points="704.0879,325.6797,694.0879,329.6797,704.0879,333.6797,700.0879,329.6797" style="stroke:#181818;stroke-width:1;"/><line style="stroke:#181818;stroke-width:1;stroke-dasharray:2.0,2.0;" x1="698.0879" x2="1031.2383" y1="329.6797" y2="329.6797"/><text fill="#000000" font-family="sans-serif" font-size="13" lengthAdjust="spacing" textLength="205.8926" x="710.0879" y="324.8232">SesionResponse(COORDINADOR)</text><polygon fill="#181818" points="1150.124,356.0313,1160.124,360.0313,1150.124,364.0313,1154.124,360.0313" style="stroke:#181818;stroke-width:1;"/><line style="stroke:#181818;stroke-width:1;" x1="693.0879" x2="1156.124" y1="360.0313" y2="360.0313"/><text fill="#000000" font-family="sans-serif" font-size="13" lengthAdjust="spacing" textLength="272.4224" x="700.0879" y="355.1748">obtenerPanelCargaTrabajo(coordinador, filtros)</text><polygon fill="#181818" points="1559.8608,386.3828,1569.8608,390.3828,1559.8608,394.3828,1563.8608,390.3828" style="stroke:#181818;stroke-width:1;"/><line style="stroke:#181818;stroke-width:1;" x1="1172.124" x2="1565.8608" y1="390.3828" y2="390.3828"/><text fill="#000000" font-family="sans-serif" font-size="13" lengthAdjust="spacing" textLength="177.0234" x="1179.124" y="385.5264">obtenerResumenGlobal(filtros)</text><polygon fill="#181818" points="1183.124,416.7344,1173.124,420.7344,1183.124,424.7344,1179.124,420.7344" style="stroke:#181818;stroke-width:1;"/><line style="stroke:#181818;stroke-width:1;stroke-dasharray:2.0,2.0;" x1="1177.124" x2="1570.8608" y1="420.7344" y2="420.7344"/><text fill="#000000" font-family="sans-serif" font-size="13" lengthAdjust="spacing" textLength="135.1226" x="1189.124" y="415.8779">ResumenCargaTrabajo</text><polygon fill="#181818" points="1559.8608,447.0859,1569.8608,451.0859,1559.8608,455.0859,1563.8608,451.0859" style="stroke:#181818;stroke-width:1;"/><line style="stroke:#181818;stroke-width:1;" x1="1172.124" x2="1565.8608" y1="451.0859" y2="451.0859"/><text fill="#000000" font-family="sans-serif" font-size="13" lengthAdjust="spacing" textLength="192.9243" x="1179.124" y="446.2295">obtenerDetallePorPersona(filtros)</text><polygon fill="#181818" points="1183.124,477.4375,1173.124,481.4375,1183.124,485.4375,1179.124,481.4375" style="stroke:#181818;stroke-width:1;"/><line style="stroke:#181818;stroke-width:1;stroke-dasharray:2.0,2.0;" x1="1177.124" x2="1570.8608" y1="481.4375" y2="481.4375"/><text fill="#000000" font-family="sans-serif" font-size="13" lengthAdjust="spacing" textLength="163.3188" x="1189.124" y="476.5811">List&lt;CargaTrabajoPersona&gt;</text><polygon fill="#181818" points="1721.2017,507.7891,1731.2017,511.7891,1721.2017,515.7891,1725.2017,511.7891" style="stroke:#181818;stroke-width:1;"/><line style="stroke:#181818;stroke-width:1;" x1="1172.124" x2="1727.2017" y1="511.7891" y2="511.7891"/><text fill="#000000" font-family="sans-serif" font-size="13" lengthAdjust="spacing" textLength="145.958" x="1179.124" y="506.9326">obtenerProyectosLibres()</text><polygon fill="#181818" points="1183.124,538.1406,1173.124,542.1406,1183.124,546.1406,1179.124,542.1406" style="stroke:#181818;stroke-width:1;"/><line style="stroke:#181818;stroke-width:1;stroke-dasharray:2.0,2.0;" x1="1177.124" x2="1737.2017" y1="542.1406" y2="542.1406"/><text fill="#000000" font-family="sans-serif" font-size="13" lengthAdjust="spacing" textLength="115.6226" x="1189.124" y="537.2842">List&lt;ProyectoLibre&gt;</text><polygon fill="#181818" points="1559.8608,568.4922,1569.8608,572.4922,1559.8608,576.4922,1563.8608,572.4922" style="stroke:#181818;stroke-width:1;"/><line style="stroke:#181818;stroke-width:1;" x1="1172.124" x2="1565.8608" y1="572.4922" y2="572.4922"/><text fill="#000000" font-family="sans-serif" font-size="13" lengthAdjust="spacing" textLength="375.7368" x="1179.124" y="567.6357">sugerirInvestigadoresDocentesConMenorCarga(proyectosLibres)</text><polygon fill="#181818" points="1183.124,598.8438,1173.124,602.8438,1183.124,606.8438,1179.124,602.8438" style="stroke:#181818;stroke-width:1;"/><line style="stroke:#181818;stroke-width:1;stroke-dasharray:2.0,2.0;" x1="1177.124" x2="1575.8608" y1="602.8438" y2="602.8438"/><text fill="#000000" font-family="sans-serif" font-size="13" lengthAdjust="spacing" textLength="164.7788" x="1189.124" y="597.9873">List&lt;SugerenciaAsignacion&gt;</text><polygon fill="#181818" points="1880.9873,629.1953,1890.9873,633.1953,1880.9873,637.1953,1884.9873,633.1953" style="stroke:#181818;stroke-width:1;"/><line style="stroke:#181818;stroke-width:1;" x1="1172.124" x2="1886.9873" y1="633.1953" y2="633.1953"/><text fill="#000000" font-family="sans-serif" font-size="13" lengthAdjust="spacing" textLength="249.3042" x="1179.124" y="628.3389">obtenerCompensacionesPendientes(filtros)</text><polygon fill="#181818" points="1183.124,659.5469,1173.124,663.5469,1183.124,667.5469,1179.124,663.5469" style="stroke:#181818;stroke-width:1;"/><line style="stroke:#181818;stroke-width:1;stroke-dasharray:2.0,2.0;" x1="1177.124" x2="1896.9873" y1="663.5469" y2="663.5469"/><text fill="#000000" font-family="sans-serif" font-size="13" lengthAdjust="spacing" textLength="170.5615" x="1189.124" y="658.6904">List&lt;RecompensaPendiente&gt;</text><polygon fill="#181818" points="704.0879,689.8984,694.0879,693.8984,704.0879,697.8984,700.0879,693.8984" style="stroke:#181818;stroke-width:1;"/><line style="stroke:#181818;stroke-width:1;stroke-dasharray:2.0,2.0;" x1="698.0879" x2="1166.124" y1="693.8984" y2="693.8984"/><text fill="#000000" font-family="sans-serif" font-size="13" lengthAdjust="spacing" textLength="171.2725" x="710.0879" y="689.042">PanelCargaTrabajoResponse</text><polygon fill="#181818" points="422.9609,736.6016,412.9609,740.6016,422.9609,744.6016,418.9609,740.6016" style="stroke:#181818;stroke-width:1;"/><line style="stroke:#181818;stroke-width:1;stroke-dasharray:2.0,2.0;" x1="416.9609" x2="687.0879" y1="740.6016" y2="740.6016"/><text fill="#000000" font-family="sans-serif" font-size="13" lengthAdjust="spacing" textLength="44.0845" x="428.9609" y="719.3936">200 OK</text><text fill="#000000" font-family="sans-serif" font-size="13" lengthAdjust="spacing" textLength="171.2725" x="428.9609" y="735.7451">PanelCargaTrabajoResponse</text><line style="stroke:#181818;stroke-width:1;" x1="411.9609" x2="453.9609" y1="770.9531" y2="770.9531"/><line style="stroke:#181818;stroke-width:1;" x1="453.9609" x2="453.9609" y1="770.9531" y2="783.9531"/><line style="stroke:#181818;stroke-width:1;" x1="412.9609" x2="453.9609" y1="783.9531" y2="783.9531"/><polygon fill="#181818" points="422.9609,779.9531,412.9609,783.9531,422.9609,787.9531,418.9609,783.9531" style="stroke:#181818;stroke-width:1;"/><text fill="#000000" font-family="sans-serif" font-size="13" lengthAdjust="spacing" textLength="247.127" x="418.9609" y="766.0967">Renderizar resumen, detalle y sugerencias</text><polygon fill="#181818" points="72.5239,810.3047,62.5239,814.3047,72.5239,818.3047,68.5239,814.3047" style="stroke:#181818;stroke-width:1;"/><line style="stroke:#181818;stroke-width:1;stroke-dasharray:2.0,2.0;" x1="66.5239" x2="400.9609" y1="814.3047" y2="814.3047"/><text fill="#000000" font-family="sans-serif" font-size="13" lengthAdjust="spacing" textLength="316.437" x="78.5239" y="809.4482">Presenta OPCIONES_CARGA_TRABAJO_ABIERTAS</text><line style="stroke:#000000;stroke-width:1;stroke-dasharray:2.0,2.0;" x1="10" x2="1989.6904" y1="823.3047" y2="823.3047"/><text fill="#000000" font-family="sans-serif" font-size="11" font-weight="bold" lengthAdjust="spacing" textLength="159.5269" x="15" y="834.7236">[Sesion ausente o rol invalido]</text><polygon fill="#181818" points="699.0879,856.4922,689.0879,860.4922,699.0879,864.4922,695.0879,860.4922" style="stroke:#181818;stroke-width:1;"/><line style="stroke:#181818;stroke-width:1;stroke-dasharray:2.0,2.0;" x1="693.0879" x2="1031.2383" y1="860.4922" y2="860.4922"/><text fill="#000000" font-family="sans-serif" font-size="13" lengthAdjust="spacing" textLength="320.1504" x="705.0879" y="855.6357">SesionNoValidaException / AccesoDenegadoException</text><polygon fill="#181818" points="422.9609,886.8438,412.9609,890.8438,422.9609,894.8438,418.9609,890.8438" style="stroke:#181818;stroke-width:1;"/><line style="stroke:#181818;stroke-width:1;stroke-dasharray:2.0,2.0;" x1="416.9609" x2="687.0879" y1="890.8438" y2="890.8438"/><text fill="#000000" font-family="sans-serif" font-size="13" lengthAdjust="spacing" textLength="197.3042" x="428.9609" y="885.9873">401 Unauthorized / 403 Forbidden</text><polygon fill="#181818" points="72.5239,917.1953,62.5239,921.1953,72.5239,925.1953,68.5239,921.1953" style="stroke:#181818;stroke-width:1;"/><line style="stroke:#181818;stroke-width:1;stroke-dasharray:2.0,2.0;" x1="66.5239" x2="400.9609" y1="921.1953" y2="921.1953"/><text fill="#000000" font-family="sans-serif" font-size="13" lengthAdjust="spacing" textLength="145.9644" x="78.5239" y="916.3389">Presenta error de acceso</text><!--SRC=[ZLNVRzem47xdhpZjYMf5PLkVggbI6cZ5rXKKs9ugLOTpOzvIEx9DjUwltza9IHnW30dadE- - -_BT3vnq1S54uiRWCq9EO4biIGc9C89aRQG1NGgf5Lb_Az1iWfipkCQVcey5f5gRN2hCjHaCK3Xj8bE9naaXIrGEtgGUO5K5Bt13ZsgO4SUSlG6qS6kqSgJoup4fEnXT56GuSbaQgJPmetKTdvGo3bsIPUvBCYzIK72fBCSJnBxXVDmver9RoI_y6lp3bRV54GkZNubbwNbtpN50Ha8_bwGizaBYYy6W8pEChXlvhc2f2qPp21XAs2-Rhv9yGKUjuhj3Z9DoEgFNQBWll6vGQ855vCoQNy7TT0KNMCgBa6bKftbKjxBWSbbu2qBhNvBQnBvK_FK8LKckGAyPaqprc0YtnMA8M_U354k3ZerdRNnTHonSVVIlrzMZyXm0Vsg7qOvjzPoHBRMoD4pdysmoUqWcy-mi-EVKJ-Ej3TlG50tT1Iegkaqn52sBS_XUAL01Ts2hpghOXRF7RXgeGMUIssTITmKNeHWU1clRpfkRf_2-3TiQg4lqTFO9EUHPMsYp86ErmfZ1aLJtqhgFqQ1NmTVzXDq9QFMiZVPUhWtPOUzbewdnDrt30Hwxwu1stI_l7jfXEUnsGpn7C_L2ricDhopPYHRScMHv9NqXfKtm7vOn_TD2BJrssBY9bHk5VjdkyOnBt24PRuH6nBGsLfjxmQCg0zSZ7TJRA_ukDXtWtJeqy7kq3-0st7V3k3S_kxdS7yLsPi8iHflg_NWCyy-Fwh_X_0BofiEBB-DVBlaVtdoccfnp3WxJ0AzLFuIQsHw6xvjs_FdjE9gbGPWlqjdyORfyIfFiBdbQPSbDycd-bDpCfjagMGweiBjj0xZrCGGQ-AyEf7h1GkRw7wliGN_pBZZzBQZqYn8k8162h9vmD_X-RMvEBRX8XSlnE_Yg_0xMh0Nb37iv_W2tsgnbdfCwhUbHFSWONjAyip7m7FZ_e0xI3k4l]--></g></svg>