<svg xmlns="http://www.w3.org/2000/svg" xmlns:xlink="http://www.w3.org/1999/xlink" contentStyleType="text/css" height="1391px" preserveAspectRatio="none" style="width:2662px;height:1391px;background:#FFFFFF;" version="1.1" viewBox="0 0 2662 1391" width="2662px" zoomAndPan="magnify"><title>Diagrama de secuencia - Abrir opciones de carga de trabajo del Coordinador</title><defs/><g><text fill="#000000" font-family="sans-serif" font-size="14" font-weight="bold" lengthAdjust="spacing" textLength="511.1367" x="1076.6218" y="29.5332">Diagrama de secuencia - Abrir opciones de carga de trabajo del Coordinador</text><rect fill="#FFFFFF" height="1145.8438" style="stroke:#181818;stroke-width:1;" width="10" x="401.9609" y="153.5703"/><rect fill="#FFFFFF" height="860.1953" style="stroke:#181818;stroke-width:1;" width="10" x="683.0879" y="243.625"/><rect fill="#FFFFFF" height="55.7031" style="stroke:#181818;stroke-width:1;" width="10" x="1027.2383" y="273.9766"/><rect fill="#FFFFFF" height="697.0859" style="stroke:#181818;stroke-width:1;" width="10" x="1162.124" y="360.0313"/><rect fill="#FFFFFF" height="532.3281" style="stroke:#181818;stroke-width:1;" width="10" x="1428.791" y="451.0859"/><rect fill="#FFFFFF" height="30.3516" style="stroke:#181818;stroke-width:1;" width="10" x="1586.6284" y="831.6563"/><rect fill="#FFFFFF" height="30.3516" style="stroke:#181818;stroke-width:1;" width="10" x="1729.29" y="710.25"/><rect fill="none" height="1003.4375" style="stroke:#000000;stroke-width:1.5;" width="2645.3804" x="10" y="288.9766"/><line style="stroke:#181818;stroke-width:0.5;stroke-dasharray:5.0,5.0;" x1="61" x2="61" y1="121.2188" y2="1309.4141"/><line style="stroke:#181818;stroke-width:0.5;stroke-dasharray:5.0,5.0;" x1="406.813" x2="406.813" y1="121.2188" y2="1309.4141"/><line style="stroke:#181818;stroke-width:0.5;stroke-dasharray:5.0,5.0;" x1="687.9434" x2="687.9434" y1="121.2188" y2="1309.4141"/><line style="stroke:#181818;stroke-width:0.5;stroke-dasharray:5.0,5.0;" x1="1031.4937" x2="1031.4937" y1="121.2188" y2="1309.4141"/><line style="stroke:#181818;stroke-width:0.5;stroke-dasharray:5.0,5.0;" x1="1166.9829" x2="1166.9829" y1="121.2188" y2="1309.4141"/><line style="stroke:#181818;stroke-width:0.5;stroke-dasharray:5.0,5.0;" x1="1433.5327" x2="1433.5327" y1="121.2188" y2="1309.4141"/><line style="stroke:#181818;stroke-width:0.5;stroke-dasharray:5.0,5.0;" x1="1591.0493" x2="1591.0493" y1="121.2188" y2="1309.4141"/><line style="stroke:#181818;stroke-width:0.5;stroke-dasharray:5.0,5.0;" x1="1734.2075" x2="1734.2075" y1="121.2188" y2="1309.4141"/><line style="stroke:#181818;stroke-width:0.5;stroke-dasharray:5.0,5.0;" x1="2595.5464" x2="2595.5464" y1="121.2188" y2="1309.4141"/><text fill="#000000" font-family="sans-serif" font-size="14" lengthAdjust="spacing" textLength="77.0479" x="20" y="118.1426">Coordinador</text><ellipse cx="61.5239" cy="52.1094" fill="#E2E2F0" rx="8" ry="8" style="stroke:#181818;stroke-width:0.5;"/><path d="M61.5239,60.1094 L61.5239,87.1094 M48.5239,68.1094 L74.5239,68.1094 M61.5239,87.1094 L48.5239,102.1094 M61.5239,87.1094 L74.5239,102.1094 " fill="none" style="stroke:#181818;stroke-width:0.5;"/><text fill="#000000" font-family="sans-serif" font-size="14" lengthAdjust="spacing" textLength="77.0479" x="20" y="1322.9473">Coordinador</text><ellipse cx="61.5239" cy="1334.5234" fill="#E2E2F0" rx="8" ry="8" style="stroke:#181818;stroke-width:0.5;"/><path d="M61.5239,1342.5234 L61.5239,1369.5234 M48.5239,1350.5234 L74.5239,1350.5234 M61.5239,1369.5234 L48.5239,1384.5234 M61.5239,1369.5234 L74.5239,1384.5234 " fill="none" style="stroke:#181818;stroke-width:0.5;"/><rect fill="#E2E2F0" height="49.2188" rx="2.5" ry="2.5" style="stroke:#181818;stroke-width:0.5;" width="132.2959" x="340.813" y="71"/><text fill="#000000" font-family="sans-serif" font-size="14" lengthAdjust="spacing" textLength="118.2959" x="347.813" y="92.5332">CargaTrabajoPage</text><text fill="#000000" font-family="sans-serif" font-size="14" lengthAdjust="spacing" textLength="45.8965" x="384.0127" y="110.1426">(React)</text><rect fill="#E2E2F0" height="49.2188" rx="2.5" ry="2.5" style="stroke:#181818;stroke-width:0.5;" width="132.2959" x="340.813" y="1308.4141"/><text fill="#000000" font-family="sans-serif" font-size="14" lengthAdjust="spacing" textLength="118.2959" x="347.813" y="1329.9473">CargaTrabajoPage</text><text fill="#000000" font-family="sans-serif" font-size="14" lengthAdjust="spacing" textLength="45.8965" x="384.0127" y="1347.5566">(React)</text><rect fill="#E2E2F0" height="49.2188" rx="2.5" ry="2.5" style="stroke:#181818;stroke-width:0.5;" width="160.2891" x="607.9434" y="71"/><text fill="#000000" font-family="sans-serif" font-size="14" lengthAdjust="spacing" textLength="146.2891" x="614.9434" y="92.5332">CargaTrabajoController</text><text fill="#000000" font-family="sans-serif" font-size="14" lengthAdjust="spacing" textLength="82.4824" x="646.8467" y="110.1426">(Spring Boot)</text><rect fill="#E2E2F0" height="49.2188" rx="2.5" ry="2.5" style="stroke:#181818;stroke-width:0.5;" width="160.2891" x="607.9434" y="1308.4141"/><text fill="#000000" font-family="sans-serif" font-size="14" lengthAdjust="spacing" textLength="146.2891" x="614.9434" y="1329.9473">CargaTrabajoController</text><text fill="#000000" font-family="sans-serif" font-size="14" lengthAdjust="spacing" textLength="82.4824" x="646.8467" y="1347.5566">(Spring Boot)</text><rect fill="#E2E2F0" height="31.6094" rx="2.5" ry="2.5" style="stroke:#181818;stroke-width:0.5;" width="103.4893" x="980.4937" y="88.6094"/><text fill="#000000" font-family="sans-serif" font-size="14" lengthAdjust="spacing" textLength="89.4893" x="987.4937" y="110.1426">SesionService</text><rect fill="#E2E2F0" height="31.6094" rx="2.5" ry="2.5" style="stroke:#181818;stroke-width:0.5;" width="103.4893" x="980.4937" y="1308.4141"/><text fill="#000000" font-family="sans-serif" font-size="14" lengthAdjust="spacing" textLength="89.4893" x="987.4937" y="1329.9473">SesionService</text><rect fill="#E2E2F0" height="31.6094" rx="2.5" ry="2.5" style="stroke:#181818;stroke-width:0.5;" width="146.2822" x="1093.9829" y="88.6094"/><text fill="#000000" font-family="sans-serif" font-size="14" lengthAdjust="spacing" textLength="132.2822" x="1100.9829" y="110.1426">CargaTrabajoService</text><rect fill="#E2E2F0" height="31.6094" rx="2.5" ry="2.5" style="stroke:#181818;stroke-width:0.5;" width="146.2822" x="1093.9829" y="1308.4141"/><text fill="#000000" font-family="sans-serif" font-size="14" lengthAdjust="spacing" textLength="132.2822" x="1100.9829" y="1329.9473">CargaTrabajoService</text><rect fill="#E2E2F0" height="31.6094" rx="2.5" ry="2.5" style="stroke:#181818;stroke-width:0.5;" width="166.5166" x="1350.5327" y="88.6094"/><text fill="#000000" font-family="sans-serif" font-size="14" lengthAdjust="spacing" textLength="152.5166" x="1357.5327" y="110.1426">CargaTrabajoRepository</text><rect fill="#E2E2F0" height="31.6094" rx="2.5" ry="2.5" style="stroke:#181818;stroke-width:0.5;" width="166.5166" x="1350.5327" y="1308.4141"/><text fill="#000000" font-family="sans-serif" font-size="14" lengthAdjust="spacing" textLength="152.5166" x="1357.5327" y="1329.9473">CargaTrabajoRepository</text><rect fill="#E2E2F0" height="31.6094" rx="2.5" ry="2.5" style="stroke:#181818;stroke-width:0.5;" width="129.1582" x="1527.0493" y="88.6094"/><text fill="#000000" font-family="sans-serif" font-size="14" lengthAdjust="spacing" textLength="115.1582" x="1534.0493" y="110.1426">UsuarioRepository</text><rect fill="#E2E2F0" height="31.6094" rx="2.5" ry="2.5" style="stroke:#181818;stroke-width:0.5;" width="129.1582" x="1527.0493" y="1308.4141"/><text fill="#000000" font-family="sans-serif" font-size="14" lengthAdjust="spacing" textLength="115.1582" x="1534.0493" y="1329.9473">UsuarioRepository</text><rect fill="#E2E2F0" height="31.6094" rx="2.5" ry="2.5" style="stroke:#181818;stroke-width:0.5;" width="136.165" x="1666.2075" y="88.6094"/><text fill="#000000" font-family="sans-serif" font-size="14" lengthAdjust="spacing" textLength="122.165" x="1673.2075" y="110.1426">ProyectoRepository</text><rect fill="#E2E2F0" height="31.6094" rx="2.5" ry="2.5" style="stroke:#181818;stroke-width:0.5;" width="136.165" x="1666.2075" y="1308.4141"/><text fill="#000000" font-family="sans-serif" font-size="14" lengthAdjust="spacing" textLength="122.165" x="1673.2075" y="1329.9473">ProyectoRepository</text><text fill="#000000" font-family="sans-serif" font-size="14" lengthAdjust="spacing" textLength="91.834" x="2547.5464" y="118.1426">Base de Datos</text><path d="M2578.4634,67.6094 C2578.4634,57.6094 2596.4634,57.6094 2596.4634,57.6094 C2596.4634,57.6094 2614.4634,57.6094 2614.4634,67.6094 L2614.4634,93.6094 C2614.4634,103.6094 2596.4634,103.6094 2596.4634,103.6094 C2596.4634,103.6094 2578.4634,103.6094 2578.4634,93.6094 L2578.4634,67.6094 " fill="#E2E2F0" style="stroke:#181818;stroke-width:1.5;"/><path d="M2578.4634,67.6094 C2578.4634,77.6094 2596.4634,77.6094 2596.4634,77.6094 C2596.4634,77.6094 2614.4634,77.6094 2614.4634,67.6094 " fill="none" style="stroke:#181818;stroke-width:1.5;"/><text fill="#000000" font-family="sans-serif" font-size="14" lengthAdjust="spacing" textLength="91.834" x="2547.5464" y="1322.9473">Base de Datos</text><path d="M2578.4634,1336.0234 C2578.4634,1326.0234 2596.4634,1326.0234 2596.4634,1326.0234 C2596.4634,1326.0234 2614.4634,1326.0234 2614.4634,1336.0234 L2614.4634,1362.0234 C2614.4634,1372.0234 2596.4634,1372.0234 2596.4634,1372.0234 C2596.4634,1372.0234 2578.4634,1372.0234 2578.4634,1362.0234 L2578.4634,1336.0234 " fill="#E2E2F0" style="stroke:#181818;stroke-width:1.5;"/><path d="M2578.4634,1336.0234 C2578.4634,1346.0234 2596.4634,1346.0234 2596.4634,1346.0234 C2596.4634,1346.0234 2614.4634,1346.0234 2614.4634,1336.0234 " fill="none" style="stroke:#181818;stroke-width:1.5;"/><rect fill="#FFFFFF" height="1145.8438" style="stroke:#181818;stroke-width:1;" width="10" x="401.9609" y="153.5703"/><rect fill="#FFFFFF" height="860.1953" style="stroke:#181818;stroke-width:1;" width="10" x="683.0879" y="243.625"/><rect fill="#FFFFFF" height="55.7031" style="stroke:#181818;stroke-width:1;" width="10" x="1027.2383" y="273.9766"/><rect fill="#FFFFFF" height="697.0859" style="stroke:#181818;stroke-width:1;" width="10" x="1162.124" y="360.0313"/><rect fill="#FFFFFF" height="532.3281" style="stroke:#181818;stroke-width:1;" width="10" x="1428.791" y="451.0859"/><rect fill="#FFFFFF" height="30.3516" style="stroke:#181818;stroke-width:1;" width="10" x="1586.6284" y="831.6563"/><rect fill="#FFFFFF" height="30.3516" style="stroke:#181818;stroke-width:1;" width="10" x="1729.29" y="710.25"/><polygon fill="#181818" points="389.9609,149.5703,399.9609,153.5703,389.9609,157.5703,393.9609,153.5703" style="stroke:#181818;stroke-width:1;"/><line style="stroke:#181818;stroke-width:1;" x1="61.5239" x2="395.9609" y1="153.5703" y2="153.5703"/><text fill="#000000" font-family="sans-serif" font-size="13" lengthAdjust="spacing" textLength="169.0889" x="68.5239" y="148.7139">Solicita abrir carga de trabajo</text><line style="stroke:#181818;stroke-width:1;" x1="411.9609" x2="453.9609" y1="183.9219" y2="183.9219"/><line style="stroke:#181818;stroke-width:1;" x1="453.9609" x2="453.9609" y1="183.9219" y2="196.9219"/><line style="stroke:#181818;stroke-width:1;" x1="412.9609" x2="453.9609" y1="196.9219" y2="196.9219"/><polygon fill="#181818" points="422.9609,192.9219,412.9609,196.9219,422.9609,200.9219,418.9609,196.9219" style="stroke:#181818;stroke-width:1;"/><text fill="#000000" font-family="sans-serif" font-size="13" lengthAdjust="spacing" textLength="136.5635" x="418.9609" y="179.0654">Comprobar sesion local</text><polygon fill="#181818" points="671.0879,239.625,681.0879,243.625,671.0879,247.625,675.0879,243.625" style="stroke:#181818;stroke-width:1;"/><line style="stroke:#181818;stroke-width:1;" x1="411.9609" x2="677.0879" y1="243.625" y2="243.625"/><text fill="#000000" font-family="sans-serif" font-size="13" lengthAdjust="spacing" textLength="131.5044" x="418.9609" y="222.417">GET /api/carga-trabajo</text><text fill="#000000" font-family="sans-serif" font-size="13" lengthAdjust="spacing" textLength="87.7817" x="418.9609" y="238.7686">Filtros + cookie</text><polygon fill="#181818" points="1015.2383,269.9766,1025.2383,273.9766,1015.2383,277.9766,1019.2383,273.9766" style="stroke:#181818;stroke-width:1;"/><line style="stroke:#181818;stroke-width:1;" x1="693.0879" x2="1021.2383" y1="273.9766" y2="273.9766"/><text fill="#000000" font-family="sans-serif" font-size="13" lengthAdjust="spacing" textLength="209.5806" x="700.0879" y="269.1201">obtenerSesionActual(authentication)</text><path d="M10,288.9766 L70.1709,288.9766 L70.1709,297.3281 L60.1709,307.3281 L10,307.3281 L10,288.9766 " fill="#EEEEEE" style="stroke:#000000;stroke-width:1.5;"/><rect fill="none" height="1003.4375" style="stroke:#000000;stroke-width:1.5;" width="2645.3804" x="10" y="288.9766"/><text fill="#000000" font-family="sans-serif" font-size="13" font-weight="bold" lengthAdjust="spacing" textLength="15.1709" x="25" y="303.4717">alt</text><text fill="#000000" font-family="sans-serif" font-size="11" font-weight="bold" lengthAdjust="spacing" textLength="162.583" x="85.1709" y="302.3955">[Sesion de Coordinador activa]</text><polygon fill="#181818" points="704.0879,325.6797,694.0879,329.6797,704.0879,333.6797,700.0879,329.6797" style="stroke:#181818;stroke-width:1;"/><line style="stroke:#181818;stroke-width:1;stroke-dasharray:2.0,2.0;" x1="698.0879" x2="1031.2383" y1="329.6797" y2="329.6797"/><text fill="#000000" font-family="sans-serif" font-size="13" lengthAdjust="spacing" textLength="98.2871" x="710.0879" y="324.8232">SesionResponse</text><polygon fill="#181818" points="1150.124,356.0313,1160.124,360.0313,1150.124,364.0313,1154.124,360.0313" style="stroke:#181818;stroke-width:1;"/><line style="stroke:#181818;stroke-width:1;" x1="693.0879" x2="1156.124" y1="360.0313" y2="360.0313"/><text fill="#000000" font-family="sans-serif" font-size="13" lengthAdjust="spacing" textLength="264.4814" x="700.0879" y="355.1748">obtenerPanelCoordinador(coordinador, filtros)</text><polygon fill="#181818" points="1421.791,386.3828,1431.791,390.3828,1421.791,394.3828,1425.791,390.3828" style="stroke:#181818;stroke-width:1;"/><line style="stroke:#181818;stroke-width:1;" x1="1172.124" x2="1427.791" y1="390.3828" y2="390.3828"/><text fill="#000000" font-family="sans-serif" font-size="13" lengthAdjust="spacing" textLength="75.1245" x="1179.124" y="385.5264">findAll(filtros)</text><polygon fill="#181818" points="2584.4634,416.7344,2594.4634,420.7344,2584.4634,424.7344,2588.4634,420.7344" style="stroke:#181818;stroke-width:1;"/><line style="stroke:#181818;stroke-width:1;" x1="1433.791" x2="2590.4634" y1="420.7344" y2="420.7344"/><text fill="#000000" font-family="sans-serif" font-size="13" lengthAdjust="spacing" textLength="636.5176" x="1440.791" y="415.8779">SELECT u.*, c.* FROM usuarios u LEFT JOIN cargas_trabajo c ON c.usuario_id = u.id WHERE u.activo = true</text><polygon fill="#181818" points="1449.791,447.0859,1439.791,451.0859,1449.791,455.0859,1445.791,451.0859" style="stroke:#181818;stroke-width:1;"/><line style="stroke:#181818;stroke-width:1;stroke-dasharray:2.0,2.0;" x1="1443.791" x2="2595.4634" y1="451.0859" y2="451.0859"/><text fill="#000000" font-family="sans-serif" font-size="13" lengthAdjust="spacing" textLength="149.5889" x="1455.791" y="446.2295">Resultado de persistencia</text><polygon fill="#181818" points="1183.124,477.4375,1173.124,481.4375,1183.124,485.4375,1179.124,481.4375" style="stroke:#181818;stroke-width:1;"/><line style="stroke:#181818;stroke-width:1;stroke-dasharray:2.0,2.0;" x1="1177.124" x2="1427.791" y1="481.4375" y2="481.4375"/><text fill="#000000" font-family="sans-serif" font-size="13" lengthAdjust="spacing" textLength="135.1226" x="1189.124" y="476.5811">ResumenCargaTrabajo</text><polygon fill="#181818" points="1416.791,507.7891,1426.791,511.7891,1416.791,515.7891,1420.791,511.7891" style="stroke:#181818;stroke-width:1;"/><line style="stroke:#181818;stroke-width:1;" x1="1172.124" x2="1422.791" y1="511.7891" y2="511.7891"/><text fill="#000000" font-family="sans-serif" font-size="13" lengthAdjust="spacing" textLength="120.6436" x="1179.124" y="506.9326">findByUsuario(filtros)</text><polygon fill="#181818" points="2584.4634,538.1406,2594.4634,542.1406,2584.4634,546.1406,2588.4634,542.1406" style="stroke:#181818;stroke-width:1;"/><line style="stroke:#181818;stroke-width:1;" x1="1438.791" x2="2590.4634" y1="542.1406" y2="542.1406"/><text fill="#000000" font-family="sans-serif" font-size="13" lengthAdjust="spacing" textLength="636.5176" x="1445.791" y="537.2842">SELECT u.*, c.* FROM usuarios u LEFT JOIN cargas_trabajo c ON c.usuario_id = u.id WHERE u.activo = true</text><polygon fill="#181818" points="1449.791,568.4922,1439.791,572.4922,1449.791,576.4922,1445.791,572.4922" style="stroke:#181818;stroke-width:1;"/><line style="stroke:#181818;stroke-width:1;stroke-dasharray:2.0,2.0;" x1="1443.791" x2="2595.4634" y1="572.4922" y2="572.4922"/><text fill="#000000" font-family="sans-serif" font-size="13" lengthAdjust="spacing" textLength="149.5889" x="1455.791" y="567.6357">Resultado de persistencia</text><polygon fill="#181818" points="1183.124,598.8438,1173.124,602.8438,1183.124,606.8438,1179.124,602.8438" style="stroke:#181818;stroke-width:1;"/><line style="stroke:#181818;stroke-width:1;stroke-dasharray:2.0,2.0;" x1="1177.124" x2="1427.791" y1="602.8438" y2="602.8438"/><text fill="#000000" font-family="sans-serif" font-size="13" lengthAdjust="spacing" textLength="163.3188" x="1189.124" y="597.9873">List&lt;CargaTrabajoPersona&gt;</text><polygon fill="#181818" points="1722.29,629.1953,1732.29,633.1953,1722.29,637.1953,1726.29,633.1953" style="stroke:#181818;stroke-width:1;"/><line style="stroke:#181818;stroke-width:1;" x1="1172.124" x2="1728.29" y1="633.1953" y2="633.1953"/><text fill="#000000" font-family="sans-serif" font-size="13" lengthAdjust="spacing" textLength="246.3652" x="1179.124" y="628.3389">findByArchivadoOrderByNombreAsc(false)</text><polygon fill="#181818" points="2584.4634,675.8984,2594.4634,679.8984,2584.4634,683.8984,2588.4634,679.8984" style="stroke:#181818;stroke-width:1;"/><line style="stroke:#181818;stroke-width:1;" x1="1734.29" x2="2590.4634" y1="679.8984" y2="679.8984"/><text fill="#000000" font-family="sans-serif" font-size="13" lengthAdjust="spacing" textLength="550.8052" x="1741.29" y="658.6904">SELECT p.* FROM proyectos p WHERE p.archivado = false AND p.estado &lt;&gt; 'COMPLETADO'</text><text fill="#000000" font-family="sans-serif" font-size="13" lengthAdjust="spacing" textLength="554.4995" x="1741.29" y="675.042">AND NOT EXISTS (SELECT 1 FROM proyecto_investigadores pi WHERE pi.proyecto_id = p.id)</text><polygon fill="#181818" points="1750.29,706.25,1740.29,710.25,1750.29,714.25,1746.29,710.25" style="stroke:#181818;stroke-width:1;"/><line style="stroke:#181818;stroke-width:1;stroke-dasharray:2.0,2.0;" x1="1744.29" x2="2595.4634" y1="710.25" y2="710.25"/><text fill="#000000" font-family="sans-serif" font-size="13" lengthAdjust="spacing" textLength="149.5889" x="1756.29" y="705.3936">Resultado de persistencia</text><polygon fill="#181818" points="1183.124,736.6016,1173.124,740.6016,1183.124,744.6016,1179.124,740.6016" style="stroke:#181818;stroke-width:1;"/><line style="stroke:#181818;stroke-width:1;stroke-dasharray:2.0,2.0;" x1="1177.124" x2="1733.29" y1="740.6016" y2="740.6016"/><text fill="#000000" font-family="sans-serif" font-size="13" lengthAdjust="spacing" textLength="115.6226" x="1189.124" y="735.7451">List&lt;ProyectoLibre&gt;</text><polygon fill="#181818" points="1579.6284,766.9531,1589.6284,770.9531,1579.6284,774.9531,1583.6284,770.9531" style="stroke:#181818;stroke-width:1;"/><line style="stroke:#181818;stroke-width:1;" x1="1172.124" x2="1585.6284" y1="770.9531" y2="770.9531"/><text fill="#000000" font-family="sans-serif" font-size="13" lengthAdjust="spacing" textLength="321.5024" x="1179.124" y="766.0967">findByRolAndActivoTrueOrderByNombreCompletoAsc()</text><polygon fill="#181818" points="2584.4634,797.3047,2594.4634,801.3047,2584.4634,805.3047,2588.4634,801.3047" style="stroke:#181818;stroke-width:1;"/><line style="stroke:#181818;stroke-width:1;" x1="1591.6284" x2="2590.4634" y1="801.3047" y2="801.3047"/><text fill="#000000" font-family="sans-serif" font-size="13" lengthAdjust="spacing" textLength="546.7681" x="1598.6284" y="796.4482">SELECT * FROM usuarios WHERE rol = 'INVESTIGADOR' AND activo = true AND sede IN (?)</text><polygon fill="#181818" points="1607.6284,827.6563,1597.6284,831.6563,1607.6284,835.6563,1603.6284,831.6563" style="stroke:#181818;stroke-width:1;"/><line style="stroke:#181818;stroke-width:1;stroke-dasharray:2.0,2.0;" x1="1601.6284" x2="2595.4634" y1="831.6563" y2="831.6563"/><text fill="#000000" font-family="sans-serif" font-size="13" lengthAdjust="spacing" textLength="149.5889" x="1613.6284" y="826.7998">Resultado de persistencia</text><polygon fill="#181818" points="1183.124,858.0078,1173.124,862.0078,1183.124,866.0078,1179.124,862.0078" style="stroke:#181818;stroke-width:1;"/><line style="stroke:#181818;stroke-width:1;stroke-dasharray:2.0,2.0;" x1="1177.124" x2="1590.6284" y1="862.0078" y2="862.0078"/><text fill="#000000" font-family="sans-serif" font-size="13" lengthAdjust="spacing" textLength="83.8335" x="1189.124" y="857.1514">List&lt;Persona&gt;</text><polygon fill="#181818" points="1416.791,888.3594,1426.791,892.3594,1416.791,896.3594,1420.791,892.3594" style="stroke:#181818;stroke-width:1;"/><line style="stroke:#181818;stroke-width:1;" x1="1172.124" x2="1422.791" y1="892.3594" y2="892.3594"/><text fill="#000000" font-family="sans-serif" font-size="13" lengthAdjust="spacing" textLength="232.667" x="1179.124" y="887.5029">findAll(proyectosLibres, sedesDocentes)</text><polygon fill="#181818" points="2584.4634,918.7109,2594.4634,922.7109,2584.4634,926.7109,2588.4634,922.7109" style="stroke:#181818;stroke-width:1;"/><line style="stroke:#181818;stroke-width:1;" x1="1438.791" x2="2590.4634" y1="922.7109" y2="922.7109"/><text fill="#000000" font-family="sans-serif" font-size="13" lengthAdjust="spacing" textLength="1133.6724" x="1445.791" y="917.8545">SELECT u.*, c.* FROM usuarios u JOIN cargas_trabajo c ON c.usuario_id = u.id WHERE u.activo = true ORDER BY (c.horas_docencia + c.horas_investigacion + c.horas_gestion_academica) ASC</text><polygon fill="#181818" points="1449.791,949.0625,1439.791,953.0625,1449.791,957.0625,1445.791,953.0625" style="stroke:#181818;stroke-width:1;"/><line style="stroke:#181818;stroke-width:1;stroke-dasharray:2.0,2.0;" x1="1443.791" x2="2595.4634" y1="953.0625" y2="953.0625"/><text fill="#000000" font-family="sans-serif" font-size="13" lengthAdjust="spacing" textLength="149.5889" x="1455.791" y="948.2061">Resultado de persistencia</text><polygon fill="#181818" points="1183.124,979.4141,1173.124,983.4141,1183.124,987.4141,1179.124,983.4141" style="stroke:#181818;stroke-width:1;"/><line style="stroke:#181818;stroke-width:1;stroke-dasharray:2.0,2.0;" x1="1177.124" x2="1432.791" y1="983.4141" y2="983.4141"/><text fill="#000000" font-family="sans-serif" font-size="13" lengthAdjust="spacing" textLength="164.7788" x="1189.124" y="978.5576">List&lt;SugerenciaAsignacion&gt;</text><line style="stroke:#181818;stroke-width:1;" x1="1172.124" x2="1214.124" y1="1013.7656" y2="1013.7656"/><line style="stroke:#181818;stroke-width:1;" x1="1214.124" x2="1214.124" y1="1013.7656" y2="1026.7656"/><line style="stroke:#181818;stroke-width:1;" x1="1173.124" x2="1214.124" y1="1026.7656" y2="1026.7656"/><polygon fill="#181818" points="1183.124,1022.7656,1173.124,1026.7656,1183.124,1030.7656,1179.124,1026.7656" style="stroke:#181818;stroke-width:1;"/><text fill="#000000" font-family="sans-serif" font-size="13" lengthAdjust="spacing" textLength="155.3398" x="1179.124" y="1008.9092">mapearCarga(maximo16h)</text><polygon fill="#181818" points="704.0879,1053.1172,694.0879,1057.1172,704.0879,1061.1172,700.0879,1057.1172" style="stroke:#181818;stroke-width:1;"/><line style="stroke:#181818;stroke-width:1;stroke-dasharray:2.0,2.0;" x1="698.0879" x2="1166.124" y1="1057.1172" y2="1057.1172"/><text fill="#000000" font-family="sans-serif" font-size="13" lengthAdjust="spacing" textLength="171.2725" x="710.0879" y="1052.2607">PanelCargaTrabajoResponse</text><polygon fill="#181818" points="422.9609,1099.8203,412.9609,1103.8203,422.9609,1107.8203,418.9609,1103.8203" style="stroke:#181818;stroke-width:1;"/><line style="stroke:#181818;stroke-width:1;stroke-dasharray:2.0,2.0;" x1="416.9609" x2="687.0879" y1="1103.8203" y2="1103.8203"/><text fill="#000000" font-family="sans-serif" font-size="13" lengthAdjust="spacing" textLength="44.0845" x="428.9609" y="1082.6123">200 OK</text><text fill="#000000" font-family="sans-serif" font-size="13" lengthAdjust="spacing" textLength="171.2725" x="428.9609" y="1098.9639">PanelCargaTrabajoResponse</text><line style="stroke:#181818;stroke-width:1;" x1="411.9609" x2="453.9609" y1="1134.1719" y2="1134.1719"/><line style="stroke:#181818;stroke-width:1;" x1="453.9609" x2="453.9609" y1="1134.1719" y2="1147.1719"/><line style="stroke:#181818;stroke-width:1;" x1="412.9609" x2="453.9609" y1="1147.1719" y2="1147.1719"/><polygon fill="#181818" points="422.9609,1143.1719,412.9609,1147.1719,422.9609,1151.1719,418.9609,1147.1719" style="stroke:#181818;stroke-width:1;"/><text fill="#000000" font-family="sans-serif" font-size="13" lengthAdjust="spacing" textLength="247.127" x="418.9609" y="1129.3154">Renderizar resumen, detalle y sugerencias</text><polygon fill="#181818" points="72.5239,1173.5234,62.5239,1177.5234,72.5239,1181.5234,68.5239,1177.5234" style="stroke:#181818;stroke-width:1;"/><line style="stroke:#181818;stroke-width:1;stroke-dasharray:2.0,2.0;" x1="66.5239" x2="400.9609" y1="1177.5234" y2="1177.5234"/><text fill="#000000" font-family="sans-serif" font-size="13" lengthAdjust="spacing" textLength="316.437" x="78.5239" y="1172.667">Presenta OPCIONES_CARGA_TRABAJO_ABIERTAS</text><line style="stroke:#000000;stroke-width:1;stroke-dasharray:2.0,2.0;" x1="10" x2="2655.3804" y1="1186.5234" y2="1186.5234"/><text fill="#000000" font-family="sans-serif" font-size="11" font-weight="bold" lengthAdjust="spacing" textLength="159.5269" x="15" y="1197.9424">[Sesion ausente o rol invalido]</text><polygon fill="#181818" points="699.0879,1219.7109,689.0879,1223.7109,699.0879,1227.7109,695.0879,1223.7109" style="stroke:#181818;stroke-width:1;"/><line style="stroke:#181818;stroke-width:1;stroke-dasharray:2.0,2.0;" x1="693.0879" x2="1031.2383" y1="1223.7109" y2="1223.7109"/><text fill="#000000" font-family="sans-serif" font-size="13" lengthAdjust="spacing" textLength="320.1504" x="705.0879" y="1218.8545">SesionNoValidaException / AccesoDenegadoException</text><polygon fill="#181818" points="422.9609,1250.0625,412.9609,1254.0625,422.9609,1258.0625,418.9609,1254.0625" style="stroke:#181818;stroke-width:1;"/><line style="stroke:#181818;stroke-width:1;stroke-dasharray:2.0,2.0;" x1="416.9609" x2="687.0879" y1="1254.0625" y2="1254.0625"/><text fill="#000000" font-family="sans-serif" font-size="13" lengthAdjust="spacing" textLength="197.3042" x="428.9609" y="1249.2061">401 Unauthorized / 403 Forbidden</text><polygon fill="#181818" points="72.5239,1280.4141,62.5239,1284.4141,72.5239,1288.4141,68.5239,1284.4141" style="stroke:#181818;stroke-width:1;"/><line style="stroke:#181818;stroke-width:1;stroke-dasharray:2.0,2.0;" x1="66.5239" x2="400.9609" y1="1284.4141" y2="1284.4141"/><text fill="#000000" font-family="sans-serif" font-size="13" lengthAdjust="spacing" textLength="145.9644" x="78.5239" y="1279.5576">Presenta error de acceso</text><!--SRC=[rLPHRzis47xthpZa9NQNECbQx27eCiYsdBbBBKDIkmq8OD3KrU4cam8f1NL_VO-KR8jAtGJRNXOWDdsy-tZyxdXtfIXpX8bWQyqs3384Wxn2oGM3SmXMMcXG1HTAeh6xdEcrKoirMx6_52rp62kbCo5PfdIlntYfj2Sgc2u55mMJ9PoCBK1Q6o_O6kzbFqQo6Pm0Cp3LIfOei-CsOrBGAizHasLIQ27NC5AgiGyAuPicQCZt1FMZuEXKQidn0tnTjpwk76EXZA0BRvs-sx8ot-A3gPWMNUK5QgFaDzGNMcsHMEpgjyIzZ9NaW44u6TbF2iY4bSeunScersln3-StUrwl8L4v7LGoO2wstNZQy8b7Lk8X5Bk5ZpDMcqAh5TEKC9PGo1LdkQTCmRY6sp252rQ82tVIUNFClPoAdE9eu0VWIlqjy72mZI7zMuGwLjUWLeI9kluPyB9YUPzLvGDAOesL91mSx9i0ixniblPwRJvgpHxGNwDmllEs_XsZAPGqw5Gox29RwTv1bo1x3nTCOjuwgyyFwpFuLDzvu11Qg7MIrVwujONUvz8rsSaioFE-Px_VjygJ4VaUteNZ5AhXgpFWmrSmZQFtKDMfPw22kt2QmhjeDg-3RfQx9ymX8jcmKLsA37uc5Fhw_TSm3cdfN5KaBNLL-paPESvQFX9dLLxIFItR1QMsCAKh8_vb3o-aSuSscHPhWxBzq9vXPxHjtjZ_cACZPDoHqbklQjPruwPBIRi-x5W9D7yWuZCLwGprQ3jNcvN6mF3-9vOR7FJQHXsIYXq_HQDZe6YkMmpP3fXkxA0Wc4z8ZiRTx-qDd8wZzukxC0qcqUczjBlpA8NmZrcI9j1lphZoJrWA-KW8OctV2pKSUcJDWM9uqB7S5yJze4spV_iNPgDNKksEJyUJCEosxmInUDCj3q_Gsi4v5FjTR6AL1_IkNTwab3HUY6nvpR5KDbJrFLi8dK1rqxYcZ9eayNGwctyCatHsIs68JrsGl4nr4eF44kLy_nUVqhRFBsMqrTIUUFsKptOgjvdie7o_BExpquN5dBdxc8dYr1xmdrQ2Vry488edOGoZFw7FXmzA4r1cVRAZ5NMzHhJFU3jZjUHhArLooJZBS4DTRW11ClxF2qjIhL4xrS28jNHUF0c7NxHRmTXZRLY1J3kz_ePz5XjrzTF3m5VVzTYwHtf3rB5sUsYChjzw0yYFbvSG_NOlNmndvmeh-lOy4zCdQl651XfTjvypCYuPJPgm1REdoNGmR20EFPvkHzQKTmoYnNWMpSDaEGxYss2Pni4eU1SjWz4iZDCWwQ4jcitymIfhWw3SgwMKOBd8r7ScbBdwQ5LO-9bZOVC4BY3W78sQq1XYo-T-vxaXncFXpUKLV91sj5B41MO4- -RoDKoLNeaiG_ayfqVvGArfzgByPCxFdXqjMqWxXAy0]--></g></svg>