<svg xmlns="http://www.w3.org/2000/svg" xmlns:xlink="http://www.w3.org/1999/xlink" contentStyleType="text/css" height="1089px" preserveAspectRatio="none" style="width:2236px;height:1089px;background:#FFFFFF;" version="1.1" viewBox="0 0 2236 1089" width="2236px" zoomAndPan="magnify"><title>Diagrama de secuencia - Abrir opciones de carga de trabajo del Coordinador</title><defs/><g><text fill="#000000" font-family="sans-serif" font-size="14" font-weight="bold" lengthAdjust="spacing" textLength="511.1367" x="863.7244" y="29.5332">Diagrama de secuencia - Abrir opciones de carga de trabajo del Coordinador</text><rect fill="#FFFFFF" height="843.3281" style="stroke:#181818;stroke-width:1;" width="10" x="401.9609" y="153.5703"/><rect fill="#FFFFFF" height="557.6797" style="stroke:#181818;stroke-width:1;" width="10" x="683.0879" y="243.625"/><rect fill="#FFFFFF" height="55.7031" style="stroke:#181818;stroke-width:1;" width="10" x="1027.2383" y="273.9766"/><rect fill="#FFFFFF" height="394.5703" style="stroke:#181818;stroke-width:1;" width="10" x="1162.124" y="360.0313"/><rect fill="#FFFFFF" height="273.1641" style="stroke:#181818;stroke-width:1;" width="10" x="1668.6943" y="390.3828"/><rect fill="#FFFFFF" height="30.3516" style="stroke:#181818;stroke-width:1;" width="10" x="1828.4834" y="572.4922"/><rect fill="#FFFFFF" height="30.3516" style="stroke:#181818;stroke-width:1;" width="10" x="1973.0967" y="511.7891"/><rect fill="#FFFFFF" height="30.3516" style="stroke:#181818;stroke-width:1;" width="10" x="2132.8823" y="693.8984"/><rect fill="none" height="700.9219" style="stroke:#000000;stroke-width:1.5;" width="2219.5854" x="10" y="288.9766"/><line style="stroke:#181818;stroke-width:0.5;stroke-dasharray:5.0,5.0;" x1="61" x2="61" y1="121.2188" y2="1006.8984"/><line style="stroke:#181818;stroke-width:0.5;stroke-dasharray:5.0,5.0;" x1="406.813" x2="406.813" y1="121.2188" y2="1006.8984"/><line style="stroke:#181818;stroke-width:0.5;stroke-dasharray:5.0,5.0;" x1="687.9434" x2="687.9434" y1="121.2188" y2="1006.8984"/><line style="stroke:#181818;stroke-width:0.5;stroke-dasharray:5.0,5.0;" x1="1031.4937" x2="1031.4937" y1="121.2188" y2="1006.8984"/><line style="stroke:#181818;stroke-width:0.5;stroke-dasharray:5.0,5.0;" x1="1166.9829" x2="1166.9829" y1="121.2188" y2="1006.8984"/><line style="stroke:#181818;stroke-width:0.5;stroke-dasharray:5.0,5.0;" x1="1673.436" x2="1673.436" y1="121.2188" y2="1006.8984"/><line style="stroke:#181818;stroke-width:0.5;stroke-dasharray:5.0,5.0;" x1="1832.9526" x2="1832.9526" y1="121.2188" y2="1006.8984"/><line style="stroke:#181818;stroke-width:0.5;stroke-dasharray:5.0,5.0;" x1="1978.0142" x2="1978.0142" y1="121.2188" y2="1006.8984"/><line style="stroke:#181818;stroke-width:0.5;stroke-dasharray:5.0,5.0;" x1="2137.1792" x2="2137.1792" y1="121.2188" y2="1006.8984"/><text fill="#000000" font-family="sans-serif" font-size="14" lengthAdjust="spacing" textLength="77.0479" x="20" y="118.1426">Coordinador</text><ellipse cx="61.5239" cy="52.1094" fill="#E2E2F0" rx="8" ry="8" style="stroke:#181818;stroke-width:0.5;"/><path d="M61.5239,60.1094 L61.5239,87.1094 M48.5239,68.1094 L74.5239,68.1094 M61.5239,87.1094 L48.5239,102.1094 M61.5239,87.1094 L74.5239,102.1094 " fill="none" style="stroke:#181818;stroke-width:0.5;"/><text fill="#000000" font-family="sans-serif" font-size="14" lengthAdjust="spacing" textLength="77.0479" x="20" y="1020.4316">Coordinador</text><ellipse cx="61.5239" cy="1032.0078" fill="#E2E2F0" rx="8" ry="8" style="stroke:#181818;stroke-width:0.5;"/><path d="M61.5239,1040.0078 L61.5239,1067.0078 M48.5239,1048.0078 L74.5239,1048.0078 M61.5239,1067.0078 L48.5239,1082.0078 M61.5239,1067.0078 L74.5239,1082.0078 " fill="none" style="stroke:#181818;stroke-width:0.5;"/><rect fill="#E2E2F0" height="49.2188" rx="2.5" ry="2.5" style="stroke:#181818;stroke-width:0.5;" width="132.2959" x="340.813" y="71"/><text fill="#000000" font-family="sans-serif" font-size="14" lengthAdjust="spacing" textLength="118.2959" x="347.813" y="92.5332">CargaTrabajoPage</text><text fill="#000000" font-family="sans-serif" font-size="14" lengthAdjust="spacing" textLength="45.8965" x="384.0127" y="110.1426">(React)</text><rect fill="#E2E2F0" height="49.2188" rx="2.5" ry="2.5" style="stroke:#181818;stroke-width:0.5;" width="132.2959" x="340.813" y="1005.8984"/><text fill="#000000" font-family="sans-serif" font-size="14" lengthAdjust="spacing" textLength="118.2959" x="347.813" y="1027.4316">CargaTrabajoPage</text><text fill="#000000" font-family="sans-serif" font-size="14" lengthAdjust="spacing" textLength="45.8965" x="384.0127" y="1045.041">(React)</text><rect fill="#E2E2F0" height="49.2188" rx="2.5" ry="2.5" style="stroke:#181818;stroke-width:0.5;" width="160.2891" x="607.9434" y="71"/><text fill="#000000" font-family="sans-serif" font-size="14" lengthAdjust="spacing" textLength="146.2891" x="614.9434" y="92.5332">CargaTrabajoController</text><text fill="#000000" font-family="sans-serif" font-size="14" lengthAdjust="spacing" textLength="82.4824" x="646.8467" y="110.1426">(Spring Boot)</text><rect fill="#E2E2F0" height="49.2188" rx="2.5" ry="2.5" style="stroke:#181818;stroke-width:0.5;" width="160.2891" x="607.9434" y="1005.8984"/><text fill="#000000" font-family="sans-serif" font-size="14" lengthAdjust="spacing" textLength="146.2891" x="614.9434" y="1027.4316">CargaTrabajoController</text><text fill="#000000" font-family="sans-serif" font-size="14" lengthAdjust="spacing" textLength="82.4824" x="646.8467" y="1045.041">(Spring Boot)</text><rect fill="#E2E2F0" height="31.6094" rx="2.5" ry="2.5" style="stroke:#181818;stroke-width:0.5;" width="103.4893" x="980.4937" y="88.6094"/><text fill="#000000" font-family="sans-serif" font-size="14" lengthAdjust="spacing" textLength="89.4893" x="987.4937" y="110.1426">SesionService</text><rect fill="#E2E2F0" height="31.6094" rx="2.5" ry="2.5" style="stroke:#181818;stroke-width:0.5;" width="103.4893" x="980.4937" y="1005.8984"/><text fill="#000000" font-family="sans-serif" font-size="14" lengthAdjust="spacing" textLength="89.4893" x="987.4937" y="1027.4316">SesionService</text><rect fill="#E2E2F0" height="31.6094" rx="2.5" ry="2.5" style="stroke:#181818;stroke-width:0.5;" width="146.2822" x="1093.9829" y="88.6094"/><text fill="#000000" font-family="sans-serif" font-size="14" lengthAdjust="spacing" textLength="132.2822" x="1100.9829" y="110.1426">CargaTrabajoService</text><rect fill="#E2E2F0" height="31.6094" rx="2.5" ry="2.5" style="stroke:#181818;stroke-width:0.5;" width="146.2822" x="1093.9829" y="1005.8984"/><text fill="#000000" font-family="sans-serif" font-size="14" lengthAdjust="spacing" textLength="132.2822" x="1100.9829" y="1027.4316">CargaTrabajoService</text><rect fill="#E2E2F0" height="31.6094" rx="2.5" ry="2.5" style="stroke:#181818;stroke-width:0.5;" width="166.5166" x="1590.436" y="88.6094"/><text fill="#000000" font-family="sans-serif" font-size="14" lengthAdjust="spacing" textLength="152.5166" x="1597.436" y="110.1426">CargaTrabajoRepository</text><rect fill="#E2E2F0" height="31.6094" rx="2.5" ry="2.5" style="stroke:#181818;stroke-width:0.5;" width="166.5166" x="1590.436" y="1005.8984"/><text fill="#000000" font-family="sans-serif" font-size="14" lengthAdjust="spacing" textLength="152.5166" x="1597.436" y="1027.4316">CargaTrabajoRepository</text><rect fill="#E2E2F0" height="31.6094" rx="2.5" ry="2.5" style="stroke:#181818;stroke-width:0.5;" width="133.0615" x="1766.9526" y="88.6094"/><text fill="#000000" font-family="sans-serif" font-size="14" lengthAdjust="spacing" textLength="119.0615" x="1773.9526" y="110.1426">PersonaRepository</text><rect fill="#E2E2F0" height="31.6094" rx="2.5" ry="2.5" style="stroke:#181818;stroke-width:0.5;" width="133.0615" x="1766.9526" y="1005.8984"/><text fill="#000000" font-family="sans-serif" font-size="14" lengthAdjust="spacing" textLength="119.0615" x="1773.9526" y="1027.4316">PersonaRepository</text><rect fill="#E2E2F0" height="31.6094" rx="2.5" ry="2.5" style="stroke:#181818;stroke-width:0.5;" width="136.165" x="1910.0142" y="88.6094"/><text fill="#000000" font-family="sans-serif" font-size="14" lengthAdjust="spacing" textLength="122.165" x="1917.0142" y="110.1426">ProyectoRepository</text><rect fill="#E2E2F0" height="31.6094" rx="2.5" ry="2.5" style="stroke:#181818;stroke-width:0.5;" width="136.165" x="1910.0142" y="1005.8984"/><text fill="#000000" font-family="sans-serif" font-size="14" lengthAdjust="spacing" textLength="122.165" x="1917.0142" y="1027.4316">ProyectoRepository</text><rect fill="#E2E2F0" height="31.6094" rx="2.5" ry="2.5" style="stroke:#181818;stroke-width:0.5;" width="163.4063" x="2056.1792" y="88.6094"/><text fill="#000000" font-family="sans-serif" font-size="14" lengthAdjust="spacing" textLength="149.4063" x="2063.1792" y="110.1426">RecompensaRepository</text><rect fill="#E2E2F0" height="31.6094" rx="2.5" ry="2.5" style="stroke:#181818;stroke-width:0.5;" width="163.4063" x="2056.1792" y="1005.8984"/><text fill="#000000" font-family="sans-serif" font-size="14" lengthAdjust="spacing" textLength="149.4063" x="2063.1792" y="1027.4316">RecompensaRepository</text><rect fill="#FFFFFF" height="843.3281" style="stroke:#181818;stroke-width:1;" width="10" x="401.9609" y="153.5703"/><rect fill="#FFFFFF" height="557.6797" style="stroke:#181818;stroke-width:1;" width="10" x="683.0879" y="243.625"/><rect fill="#FFFFFF" height="55.7031" style="stroke:#181818;stroke-width:1;" width="10" x="1027.2383" y="273.9766"/><rect fill="#FFFFFF" height="394.5703" style="stroke:#181818;stroke-width:1;" width="10" x="1162.124" y="360.0313"/><rect fill="#FFFFFF" height="273.1641" style="stroke:#181818;stroke-width:1;" width="10" x="1668.6943" y="390.3828"/><rect fill="#FFFFFF" height="30.3516" style="stroke:#181818;stroke-width:1;" width="10" x="1828.4834" y="572.4922"/><rect fill="#FFFFFF" height="30.3516" style="stroke:#181818;stroke-width:1;" width="10" x="1973.0967" y="511.7891"/><rect fill="#FFFFFF" height="30.3516" style="stroke:#181818;stroke-width:1;" width="10" x="2132.8823" y="693.8984"/><polygon fill="#181818" points="389.9609,149.5703,399.9609,153.5703,389.9609,157.5703,393.9609,153.5703" style="stroke:#181818;stroke-width:1;"/><line style="stroke:#181818;stroke-width:1;" x1="61.5239" x2="395.9609" y1="153.5703" y2="153.5703"/><text fill="#000000" font-family="sans-serif" font-size="13" lengthAdjust="spacing" textLength="169.0889" x="68.5239" y="148.7139">Solicita abrir carga de trabajo</text><line style="stroke:#181818;stroke-width:1;" x1="411.9609" x2="453.9609" y1="183.9219" y2="183.9219"/><line style="stroke:#181818;stroke-width:1;" x1="453.9609" x2="453.9609" y1="183.9219" y2="196.9219"/><line style="stroke:#181818;stroke-width:1;" x1="412.9609" x2="453.9609" y1="196.9219" y2="196.9219"/><polygon fill="#181818" points="422.9609,192.9219,412.9609,196.9219,422.9609,200.9219,418.9609,196.9219" style="stroke:#181818;stroke-width:1;"/><text fill="#000000" font-family="sans-serif" font-size="13" lengthAdjust="spacing" textLength="136.5635" x="418.9609" y="179.0654">Comprobar sesion local</text><polygon fill="#181818" points="671.0879,239.625,681.0879,243.625,671.0879,247.625,675.0879,243.625" style="stroke:#181818;stroke-width:1;"/><line style="stroke:#181818;stroke-width:1;" x1="411.9609" x2="677.0879" y1="243.625" y2="243.625"/><text fill="#000000" font-family="sans-serif" font-size="13" lengthAdjust="spacing" textLength="131.5044" x="418.9609" y="222.417">GET /api/carga-trabajo</text><text fill="#000000" font-family="sans-serif" font-size="13" lengthAdjust="spacing" textLength="87.7817" x="418.9609" y="238.7686">Filtros + cookie</text><polygon fill="#181818" points="1015.2383,269.9766,1025.2383,273.9766,1015.2383,277.9766,1019.2383,273.9766" style="stroke:#181818;stroke-width:1;"/><line style="stroke:#181818;stroke-width:1;" x1="693.0879" x2="1021.2383" y1="273.9766" y2="273.9766"/><text fill="#000000" font-family="sans-serif" font-size="13" lengthAdjust="spacing" textLength="209.5806" x="700.0879" y="269.1201">obtenerSesionActual(authentication)</text><path d="M10,288.9766 L70.1709,288.9766 L70.1709,297.3281 L60.1709,307.3281 L10,307.3281 L10,288.9766 " fill="#EEEEEE" style="stroke:#000000;stroke-width:1.5;"/><rect fill="none" height="700.9219" style="stroke:#000000;stroke-width:1.5;" width="2219.5854" x="10" y="288.9766"/><text fill="#000000" font-family="sans-serif" font-size="13" font-weight="bold" lengthAdjust="spacing" textLength="15.1709" x="25" y="303.4717">alt</text><text fill="#000000" font-family="sans-serif" font-size="11" font-weight="bold" lengthAdjust="spacing" textLength="162.583" x="85.1709" y="302.3955">[Sesion de Coordinador activa]</text><polygon fill="#181818" points="704.0879,325.6797,694.0879,329.6797,704.0879,333.6797,700.0879,329.6797" style="stroke:#181818;stroke-width:1;"/><line style="stroke:#181818;stroke-width:1;stroke-dasharray:2.0,2.0;" x1="698.0879" x2="1031.2383" y1="329.6797" y2="329.6797"/><text fill="#000000" font-family="sans-serif" font-size="13" lengthAdjust="spacing" textLength="205.8926" x="710.0879" y="324.8232">SesionResponse(COORDINADOR)</text><polygon fill="#181818" points="1150.124,356.0313,1160.124,360.0313,1150.124,364.0313,1154.124,360.0313" style="stroke:#181818;stroke-width:1;"/><line style="stroke:#181818;stroke-width:1;" x1="693.0879" x2="1156.124" y1="360.0313" y2="360.0313"/><text fill="#000000" font-family="sans-serif" font-size="13" lengthAdjust="spacing" textLength="272.4224" x="700.0879" y="355.1748">obtenerPanelCargaTrabajo(coordinador, filtros)</text><polygon fill="#181818" points="1656.6943,386.3828,1666.6943,390.3828,1656.6943,394.3828,1660.6943,390.3828" style="stroke:#181818;stroke-width:1;"/><line style="stroke:#181818;stroke-width:1;" x1="1172.124" x2="1662.6943" y1="390.3828" y2="390.3828"/><text fill="#000000" font-family="sans-serif" font-size="13" lengthAdjust="spacing" textLength="177.0234" x="1179.124" y="385.5264">obtenerResumenGlobal(filtros)</text><polygon fill="#181818" points="1183.124,416.7344,1173.124,420.7344,1183.124,424.7344,1179.124,420.7344" style="stroke:#181818;stroke-width:1;"/><line style="stroke:#181818;stroke-width:1;stroke-dasharray:2.0,2.0;" x1="1177.124" x2="1667.6943" y1="420.7344" y2="420.7344"/><text fill="#000000" font-family="sans-serif" font-size="13" lengthAdjust="spacing" textLength="135.1226" x="1189.124" y="415.8779">ResumenCargaTrabajo</text><polygon fill="#181818" points="1656.6943,447.0859,1666.6943,451.0859,1656.6943,455.0859,1660.6943,451.0859" style="stroke:#181818;stroke-width:1;"/><line style="stroke:#181818;stroke-width:1;" x1="1172.124" x2="1662.6943" y1="451.0859" y2="451.0859"/><text fill="#000000" font-family="sans-serif" font-size="13" lengthAdjust="spacing" textLength="192.9243" x="1179.124" y="446.2295">obtenerDetallePorPersona(filtros)</text><polygon fill="#181818" points="1183.124,477.4375,1173.124,481.4375,1183.124,485.4375,1179.124,481.4375" style="stroke:#181818;stroke-width:1;"/><line style="stroke:#181818;stroke-width:1;stroke-dasharray:2.0,2.0;" x1="1177.124" x2="1667.6943" y1="481.4375" y2="481.4375"/><text fill="#000000" font-family="sans-serif" font-size="13" lengthAdjust="spacing" textLength="163.3188" x="1189.124" y="476.5811">List&lt;CargaTrabajoPersona&gt;</text><polygon fill="#181818" points="1961.0967,507.7891,1971.0967,511.7891,1961.0967,515.7891,1965.0967,511.7891" style="stroke:#181818;stroke-width:1;"/><line style="stroke:#181818;stroke-width:1;" x1="1172.124" x2="1967.0967" y1="511.7891" y2="511.7891"/><text fill="#000000" font-family="sans-serif" font-size="13" lengthAdjust="spacing" textLength="145.958" x="1179.124" y="506.9326">obtenerProyectosLibres()</text><polygon fill="#181818" points="1183.124,538.1406,1173.124,542.1406,1183.124,546.1406,1179.124,542.1406" style="stroke:#181818;stroke-width:1;"/><line style="stroke:#181818;stroke-width:1;stroke-dasharray:2.0,2.0;" x1="1177.124" x2="1977.0967" y1="542.1406" y2="542.1406"/><text fill="#000000" font-family="sans-serif" font-size="13" lengthAdjust="spacing" textLength="115.6226" x="1189.124" y="537.2842">List&lt;ProyectoLibre&gt;</text><polygon fill="#181818" points="1816.4834,568.4922,1826.4834,572.4922,1816.4834,576.4922,1820.4834,572.4922" style="stroke:#181818;stroke-width:1;"/><line style="stroke:#181818;stroke-width:1;" x1="1172.124" x2="1822.4834" y1="572.4922" y2="572.4922"/><text fill="#000000" font-family="sans-serif" font-size="13" lengthAdjust="spacing" textLength="242.8105" x="1179.124" y="567.6357">obtenerInvestigadoresDocentesPorSede()</text><polygon fill="#181818" points="1183.124,598.8438,1173.124,602.8438,1183.124,606.8438,1179.124,602.8438" style="stroke:#181818;stroke-width:1;"/><line style="stroke:#181818;stroke-width:1;stroke-dasharray:2.0,2.0;" x1="1177.124" x2="1832.4834" y1="602.8438" y2="602.8438"/><text fill="#000000" font-family="sans-serif" font-size="13" lengthAdjust="spacing" textLength="83.8335" x="1189.124" y="597.9873">List&lt;Persona&gt;</text><polygon fill="#181818" points="1656.6943,629.1953,1666.6943,633.1953,1656.6943,637.1953,1660.6943,633.1953" style="stroke:#181818;stroke-width:1;"/><line style="stroke:#181818;stroke-width:1;" x1="1172.124" x2="1662.6943" y1="633.1953" y2="633.1953"/><text fill="#000000" font-family="sans-serif" font-size="13" lengthAdjust="spacing" textLength="472.5703" x="1179.124" y="628.3389">sugerirInvestigadoresDocentesConMenorCarga(proyectosLibres, sedesDocentes)</text><polygon fill="#181818" points="1183.124,659.5469,1173.124,663.5469,1183.124,667.5469,1179.124,663.5469" style="stroke:#181818;stroke-width:1;"/><line style="stroke:#181818;stroke-width:1;stroke-dasharray:2.0,2.0;" x1="1177.124" x2="1672.6943" y1="663.5469" y2="663.5469"/><text fill="#000000" font-family="sans-serif" font-size="13" lengthAdjust="spacing" textLength="164.7788" x="1189.124" y="658.6904">List&lt;SugerenciaAsignacion&gt;</text><polygon fill="#181818" points="2120.8823,689.8984,2130.8823,693.8984,2120.8823,697.8984,2124.8823,693.8984" style="stroke:#181818;stroke-width:1;"/><line style="stroke:#181818;stroke-width:1;" x1="1172.124" x2="2126.8823" y1="693.8984" y2="693.8984"/><text fill="#000000" font-family="sans-serif" font-size="13" lengthAdjust="spacing" textLength="249.3042" x="1179.124" y="689.042">obtenerCompensacionesPendientes(filtros)</text><polygon fill="#181818" points="1183.124,720.25,1173.124,724.25,1183.124,728.25,1179.124,724.25" style="stroke:#181818;stroke-width:1;"/><line style="stroke:#181818;stroke-width:1;stroke-dasharray:2.0,2.0;" x1="1177.124" x2="2136.8823" y1="724.25" y2="724.25"/><text fill="#000000" font-family="sans-serif" font-size="13" lengthAdjust="spacing" textLength="170.5615" x="1189.124" y="719.3936">List&lt;RecompensaPendiente&gt;</text><polygon fill="#181818" points="704.0879,750.6016,694.0879,754.6016,704.0879,758.6016,700.0879,754.6016" style="stroke:#181818;stroke-width:1;"/><line style="stroke:#181818;stroke-width:1;stroke-dasharray:2.0,2.0;" x1="698.0879" x2="1166.124" y1="754.6016" y2="754.6016"/><text fill="#000000" font-family="sans-serif" font-size="13" lengthAdjust="spacing" textLength="171.2725" x="710.0879" y="749.7451">PanelCargaTrabajoResponse</text><polygon fill="#181818" points="422.9609,797.3047,412.9609,801.3047,422.9609,805.3047,418.9609,801.3047" style="stroke:#181818;stroke-width:1;"/><line style="stroke:#181818;stroke-width:1;stroke-dasharray:2.0,2.0;" x1="416.9609" x2="687.0879" y1="801.3047" y2="801.3047"/><text fill="#000000" font-family="sans-serif" font-size="13" lengthAdjust="spacing" textLength="44.0845" x="428.9609" y="780.0967">200 OK</text><text fill="#000000" font-family="sans-serif" font-size="13" lengthAdjust="spacing" textLength="171.2725" x="428.9609" y="796.4482">PanelCargaTrabajoResponse</text><line style="stroke:#181818;stroke-width:1;" x1="411.9609" x2="453.9609" y1="831.6563" y2="831.6563"/><line style="stroke:#181818;stroke-width:1;" x1="453.9609" x2="453.9609" y1="831.6563" y2="844.6563"/><line style="stroke:#181818;stroke-width:1;" x1="412.9609" x2="453.9609" y1="844.6563" y2="844.6563"/><polygon fill="#181818" points="422.9609,840.6563,412.9609,844.6563,422.9609,848.6563,418.9609,844.6563" style="stroke:#181818;stroke-width:1;"/><text fill="#000000" font-family="sans-serif" font-size="13" lengthAdjust="spacing" textLength="247.127" x="418.9609" y="826.7998">Renderizar resumen, detalle y sugerencias</text><polygon fill="#181818" points="72.5239,871.0078,62.5239,875.0078,72.5239,879.0078,68.5239,875.0078" style="stroke:#181818;stroke-width:1;"/><line style="stroke:#181818;stroke-width:1;stroke-dasharray:2.0,2.0;" x1="66.5239" x2="400.9609" y1="875.0078" y2="875.0078"/><text fill="#000000" font-family="sans-serif" font-size="13" lengthAdjust="spacing" textLength="316.437" x="78.5239" y="870.1514">Presenta OPCIONES_CARGA_TRABAJO_ABIERTAS</text><line style="stroke:#000000;stroke-width:1;stroke-dasharray:2.0,2.0;" x1="10" x2="2229.5854" y1="884.0078" y2="884.0078"/><text fill="#000000" font-family="sans-serif" font-size="11" font-weight="bold" lengthAdjust="spacing" textLength="159.5269" x="15" y="895.4268">[Sesion ausente o rol invalido]</text><polygon fill="#181818" points="699.0879,917.1953,689.0879,921.1953,699.0879,925.1953,695.0879,921.1953" style="stroke:#181818;stroke-width:1;"/><line style="stroke:#181818;stroke-width:1;stroke-dasharray:2.0,2.0;" x1="693.0879" x2="1031.2383" y1="921.1953" y2="921.1953"/><text fill="#000000" font-family="sans-serif" font-size="13" lengthAdjust="spacing" textLength="320.1504" x="705.0879" y="916.3389">SesionNoValidaException / AccesoDenegadoException</text><polygon fill="#181818" points="422.9609,947.5469,412.9609,951.5469,422.9609,955.5469,418.9609,951.5469" style="stroke:#181818;stroke-width:1;"/><line style="stroke:#181818;stroke-width:1;stroke-dasharray:2.0,2.0;" x1="416.9609" x2="687.0879" y1="951.5469" y2="951.5469"/><text fill="#000000" font-family="sans-serif" font-size="13" lengthAdjust="spacing" textLength="197.3042" x="428.9609" y="946.6904">401 Unauthorized / 403 Forbidden</text><polygon fill="#181818" points="72.5239,977.8984,62.5239,981.8984,72.5239,985.8984,68.5239,981.8984" style="stroke:#181818;stroke-width:1;"/><line style="stroke:#181818;stroke-width:1;stroke-dasharray:2.0,2.0;" x1="66.5239" x2="400.9609" y1="981.8984" y2="981.8984"/><text fill="#000000" font-family="sans-serif" font-size="13" lengthAdjust="spacing" textLength="145.9644" x="78.5239" y="977.042">Presenta error de acceso</text><!--SRC=[ZLN1Rjim3BtdAuYTKgn1iwsdOYZWEccHhMi2EzkfGC7ONARDbGn9ATPz_IZPiIt7MLOWXKoHZqyazMI5BGXc0hSQdn5o0aFPZcGc42OGRRJGeCfCA4d6xMQejzxDQjpWJyNB0cAbT2uavagFHfXPfGDJYTgAJ9GeBRo97S2w2bxXbXxbE26EENi3QE1MAsb9viTZOdRGgYX8SsHQQY6tSADK7H-L8WnDoJ3tbFIBoCYxL9RZ2K9Vlpxkd52fZE03ltf_l-LiOSIAj54IUyuTQyzTgrVYAlRzE-Om8A5CFPSaJJz5k34QTRe2a-kcsbUGgeBHB0BwZlUxx9egNj1Isw3z8iI9EPrM6zGyHgxCKAWCYy2PMtG5T_CrN60fBdocIPtcKTwAWhjhu2raIlqIr2PsdUMVGwWwU0LgmvYagyyeipiinhYpFqXoQT2oyQoDhzkEXQsNxdZTUbIU8-2_sc6oPrjz9sHA9GsDu-KocIqUejaoEVF-EVNJE6l3rizGGtU5aehk38spbiKvVAygK05tOAj1hDZvjSDkvgr1PvAxPv9t1JUX60-3jLFgpCsNFs_3jWRg4ZsTVKOM-MgkbAw7EsHm9DMzCFPZe0jLy7K_OVS6jFMiZUPUR3IPSU-mmQrnErt308_zjaUxxhVt0AtBhhtF3Rc5V25ZnTRrbinCPJoRPBW-AULqGBKZ29vf-pr4j5kaBiKUod33p6vBVDE7-R76VY6fjFSVbs61p_bgvwtlwSwcBfL_KI8ZjXBTOtB0Efp93kTGmfh2nhMnUfbMh2t2qpaoyZqXT7kXQO1twz307z0Um6suxzNZuCBlXUHGEzfBxiKZaDRtqoaiFp_A_uPpYkbCmqgTy7-UW3yirRgwwkSSxAyll5RZuNjcUXXkZ5gzujDnD9S6ORcA5yk7UVeKHybTzBHEefleq_8fkbdCatMKZgWmUta4tBaO0WNyb8EGBrY8NFr3Un_KD-U2yzyPbKxPuGAYB2EZPZmDRdoRdLEA75JXSleElahtQ2Yk1UKCUpdz0BTARqIUapnTqwFr8AtvLU571ZtFaNiqEqXxXBy0]--></g></svg>