<?xml version="1.0" encoding="us-ascii" standalone="no"?><svg xmlns="http://www.w3.org/2000/svg" xmlns:xlink="http://www.w3.org/1999/xlink" contentStyleType="text/css" height="1391px" preserveAspectRatio="none" style="width:2895px;height:1391px;background:#FFFFFF;" version="1.1" viewBox="0 0 2895 1391" width="2895px" zoomAndPan="magnify"><defs/><g><text fill="#000000" font-family="sans-serif" font-size="14" font-weight="bold" lengthAdjust="spacing" textLength="537" x="1180.25" y="29.5332">Diagrama de secuencia - Abrir opciones de carga de trabajo del Coordinador</text><rect fill="#FFFFFF" height="1145.8438" style="stroke:#181818;stroke-width:1.0;" width="10" x="400.5" y="153.5703"/><rect fill="#FFFFFF" height="860.1953" style="stroke:#181818;stroke-width:1.0;" width="10" x="671.5" y="243.625"/><rect fill="#FFFFFF" height="55.7031" style="stroke:#181818;stroke-width:1.0;" width="10" x="1017.5" y="273.9766"/><rect fill="#FFFFFF" height="697.0859" style="stroke:#181818;stroke-width:1.0;" width="10" x="1154" y="360.0313"/><rect fill="#FFFFFF" height="532.3281" style="stroke:#181818;stroke-width:1.0;" width="10" x="1655" y="451.0859"/><rect fill="#FFFFFF" height="30.3516" style="stroke:#181818;stroke-width:1.0;" width="10" x="1817.5" y="831.6563"/><rect fill="#FFFFFF" height="30.3516" style="stroke:#181818;stroke-width:1.0;" width="10" x="1964" y="710.25"/><rect fill="none" height="1003.4375" style="stroke:#000000;stroke-width:1.5;" width="2878.5" x="10" y="288.9766"/><line style="stroke:#181818;stroke-width:0.5;stroke-dasharray:5.0,5.0;" x1="62" x2="62" y1="121.2188" y2="1309.4141"/><line style="stroke:#181818;stroke-width:0.5;stroke-dasharray:5.0,5.0;" x1="405" x2="405" y1="121.2188" y2="1309.4141"/><line style="stroke:#181818;stroke-width:0.5;stroke-dasharray:5.0,5.0;" x1="676.5" x2="676.5" y1="121.2188" y2="1309.4141"/><line style="stroke:#181818;stroke-width:0.5;stroke-dasharray:5.0,5.0;" x1="1022.5" x2="1022.5" y1="121.2188" y2="1309.4141"/><line style="stroke:#181818;stroke-width:0.5;stroke-dasharray:5.0,5.0;" x1="1158.5" x2="1158.5" y1="121.2188" y2="1309.4141"/><line style="stroke:#181818;stroke-width:0.5;stroke-dasharray:5.0,5.0;" x1="1660" x2="1660" y1="121.2188" y2="1309.4141"/><line style="stroke:#181818;stroke-width:0.5;stroke-dasharray:5.0,5.0;" x1="1822" x2="1822" y1="121.2188" y2="1309.4141"/><line style="stroke:#181818;stroke-width:0.5;stroke-dasharray:5.0,5.0;" x1="1969" x2="1969" y1="121.2188" y2="1309.4141"/><line style="stroke:#181818;stroke-width:0.5;stroke-dasharray:5.0,5.0;" x1="2828.5" x2="2828.5" y1="121.2188" y2="1309.4141"/><text fill="#000000" font-family="sans-serif" font-size="14" lengthAdjust="spacing" textLength="79" x="20" y="118.1426">Coordinador</text><ellipse cx="62.5" cy="52.1094" fill="#E2E2F0" rx="8" ry="8" style="stroke:#181818;stroke-width:0.5;"/><path d="M62.5,60.1094 L62.5,87.1094 M49.5,68.1094 L75.5,68.1094 M62.5,87.1094 L49.5,102.1094 M62.5,87.1094 L75.5,102.1094 " fill="none" style="stroke:#181818;stroke-width:0.5;"/><text fill="#000000" font-family="sans-serif" font-size="14" lengthAdjust="spacing" textLength="79" x="20" y="1322.9473">Coordinador</text><ellipse cx="62.5" cy="1334.5234" fill="#E2E2F0" rx="8" ry="8" style="stroke:#181818;stroke-width:0.5;"/><path d="M62.5,1342.5234 L62.5,1369.5234 M49.5,1350.5234 L75.5,1350.5234 M62.5,1369.5234 L49.5,1384.5234 M62.5,1369.5234 L75.5,1384.5234 " fill="none" style="stroke:#181818;stroke-width:0.5;"/><rect fill="#E2E2F0" height="49.2188" rx="2.5" ry="2.5" style="stroke:#181818;stroke-width:0.5;" width="135" x="338" y="71"/><text fill="#000000" font-family="sans-serif" font-size="14" lengthAdjust="spacing" textLength="121" x="345" y="92.5332">CargaTrabajoPage</text><text fill="#000000" font-family="sans-serif" font-size="14" lengthAdjust="spacing" textLength="47" x="382" y="110.1426">(React)</text><rect fill="#E2E2F0" height="49.2188" rx="2.5" ry="2.5" style="stroke:#181818;stroke-width:0.5;" width="135" x="338" y="1308.4141"/><text fill="#000000" font-family="sans-serif" font-size="14" lengthAdjust="spacing" textLength="121" x="345" y="1329.9473">CargaTrabajoPage</text><text fill="#000000" font-family="sans-serif" font-size="14" lengthAdjust="spacing" textLength="47" x="382" y="1347.5566">(React)</text><rect fill="#E2E2F0" height="49.2188" rx="2.5" ry="2.5" style="stroke:#181818;stroke-width:0.5;" width="164" x="594.5" y="71"/><text fill="#000000" font-family="sans-serif" font-size="14" lengthAdjust="spacing" textLength="150" x="601.5" y="92.5332">CargaTrabajoController</text><text fill="#000000" font-family="sans-serif" font-size="14" lengthAdjust="spacing" textLength="84" x="634.5" y="110.1426">(Spring Boot)</text><rect fill="#E2E2F0" height="49.2188" rx="2.5" ry="2.5" style="stroke:#181818;stroke-width:0.5;" width="164" x="594.5" y="1308.4141"/><text fill="#000000" font-family="sans-serif" font-size="14" lengthAdjust="spacing" textLength="150" x="601.5" y="1329.9473">CargaTrabajoController</text><text fill="#000000" font-family="sans-serif" font-size="14" lengthAdjust="spacing" textLength="84" x="634.5" y="1347.5566">(Spring Boot)</text><rect fill="#E2E2F0" height="31.6094" rx="2.5" ry="2.5" style="stroke:#181818;stroke-width:0.5;" width="104" x="970.5" y="88.6094"/><text fill="#000000" font-family="sans-serif" font-size="14" lengthAdjust="spacing" textLength="90" x="977.5" y="110.1426">SesionService</text><rect fill="#E2E2F0" height="31.6094" rx="2.5" ry="2.5" style="stroke:#181818;stroke-width:0.5;" width="104" x="970.5" y="1308.4141"/><text fill="#000000" font-family="sans-serif" font-size="14" lengthAdjust="spacing" textLength="90" x="977.5" y="1329.9473">SesionService</text><rect fill="#E2E2F0" height="31.6094" rx="2.5" ry="2.5" style="stroke:#181818;stroke-width:0.5;" width="149" x="1084.5" y="88.6094"/><text fill="#000000" font-family="sans-serif" font-size="14" lengthAdjust="spacing" textLength="135" x="1091.5" y="110.1426">CargaTrabajoService</text><rect fill="#E2E2F0" height="31.6094" rx="2.5" ry="2.5" style="stroke:#181818;stroke-width:0.5;" width="149" x="1084.5" y="1308.4141"/><text fill="#000000" font-family="sans-serif" font-size="14" lengthAdjust="spacing" textLength="135" x="1091.5" y="1329.9473">CargaTrabajoService</text><rect fill="#E2E2F0" height="31.6094" rx="2.5" ry="2.5" style="stroke:#181818;stroke-width:0.5;" width="170" x="1575" y="88.6094"/><text fill="#000000" font-family="sans-serif" font-size="14" lengthAdjust="spacing" textLength="156" x="1582" y="110.1426">CargaTrabajoRepository</text><rect fill="#E2E2F0" height="31.6094" rx="2.5" ry="2.5" style="stroke:#181818;stroke-width:0.5;" width="170" x="1575" y="1308.4141"/><text fill="#000000" font-family="sans-serif" font-size="14" lengthAdjust="spacing" textLength="156" x="1582" y="1329.9473">CargaTrabajoRepository</text><rect fill="#E2E2F0" height="31.6094" rx="2.5" ry="2.5" style="stroke:#181818;stroke-width:0.5;" width="135" x="1755" y="88.6094"/><text fill="#000000" font-family="sans-serif" font-size="14" lengthAdjust="spacing" textLength="121" x="1762" y="110.1426">PersonaRepository</text><rect fill="#E2E2F0" height="31.6094" rx="2.5" ry="2.5" style="stroke:#181818;stroke-width:0.5;" width="135" x="1755" y="1308.4141"/><text fill="#000000" font-family="sans-serif" font-size="14" lengthAdjust="spacing" textLength="121" x="1762" y="1329.9473">PersonaRepository</text><rect fill="#E2E2F0" height="31.6094" rx="2.5" ry="2.5" style="stroke:#181818;stroke-width:0.5;" width="138" x="1900" y="88.6094"/><text fill="#000000" font-family="sans-serif" font-size="14" lengthAdjust="spacing" textLength="124" x="1907" y="110.1426">ProyectoRepository</text><rect fill="#E2E2F0" height="31.6094" rx="2.5" ry="2.5" style="stroke:#181818;stroke-width:0.5;" width="138" x="1900" y="1308.4141"/><text fill="#000000" font-family="sans-serif" font-size="14" lengthAdjust="spacing" textLength="124" x="1907" y="1329.9473">ProyectoRepository</text><text fill="#000000" font-family="sans-serif" font-size="14" lengthAdjust="spacing" textLength="93" x="2779.5" y="118.1426">Base de Datos</text><path d="M2811,67.6094 C2811,57.6094 2829,57.6094 2829,57.6094 C2829,57.6094 2847,57.6094 2847,67.6094 L2847,93.6094 C2847,103.6094 2829,103.6094 2829,103.6094 C2829,103.6094 2811,103.6094 2811,93.6094 L2811,67.6094 " fill="#E2E2F0" style="stroke:#181818;stroke-width:1.5;"/><path d="M2811,67.6094 C2811,77.6094 2829,77.6094 2829,77.6094 C2829,77.6094 2847,77.6094 2847,67.6094 " fill="none" style="stroke:#181818;stroke-width:1.5;"/><text fill="#000000" font-family="sans-serif" font-size="14" lengthAdjust="spacing" textLength="93" x="2779.5" y="1322.9473">Base de Datos</text><path d="M2811,1336.0234 C2811,1326.0234 2829,1326.0234 2829,1326.0234 C2829,1326.0234 2847,1326.0234 2847,1336.0234 L2847,1362.0234 C2847,1372.0234 2829,1372.0234 2829,1372.0234 C2829,1372.0234 2811,1372.0234 2811,1362.0234 L2811,1336.0234 " fill="#E2E2F0" style="stroke:#181818;stroke-width:1.5;"/><path d="M2811,1336.0234 C2811,1346.0234 2829,1346.0234 2829,1346.0234 C2829,1346.0234 2847,1346.0234 2847,1336.0234 " fill="none" style="stroke:#181818;stroke-width:1.5;"/><rect fill="#FFFFFF" height="1145.8438" style="stroke:#181818;stroke-width:1.0;" width="10" x="400.5" y="153.5703"/><rect fill="#FFFFFF" height="860.1953" style="stroke:#181818;stroke-width:1.0;" width="10" x="671.5" y="243.625"/><rect fill="#FFFFFF" height="55.7031" style="stroke:#181818;stroke-width:1.0;" width="10" x="1017.5" y="273.9766"/><rect fill="#FFFFFF" height="697.0859" style="stroke:#181818;stroke-width:1.0;" width="10" x="1154" y="360.0313"/><rect fill="#FFFFFF" height="532.3281" style="stroke:#181818;stroke-width:1.0;" width="10" x="1655" y="451.0859"/><rect fill="#FFFFFF" height="30.3516" style="stroke:#181818;stroke-width:1.0;" width="10" x="1817.5" y="831.6563"/><rect fill="#FFFFFF" height="30.3516" style="stroke:#181818;stroke-width:1.0;" width="10" x="1964" y="710.25"/><polygon fill="#181818" points="388.5,149.5703,398.5,153.5703,388.5,157.5703,392.5,153.5703" style="stroke:#181818;stroke-width:1.0;"/><line style="stroke:#181818;stroke-width:1.0;" x1="62.5" x2="394.5" y1="153.5703" y2="153.5703"/><text fill="#000000" font-family="sans-serif" font-size="13" lengthAdjust="spacing" textLength="169" x="69.5" y="148.7139">Solicita abrir carga de trabajo</text><line style="stroke:#181818;stroke-width:1.0;" x1="410.5" x2="452.5" y1="183.9219" y2="183.9219"/><line style="stroke:#181818;stroke-width:1.0;" x1="452.5" x2="452.5" y1="183.9219" y2="196.9219"/><line style="stroke:#181818;stroke-width:1.0;" x1="411.5" x2="452.5" y1="196.9219" y2="196.9219"/><polygon fill="#181818" points="421.5,192.9219,411.5,196.9219,421.5,200.9219,417.5,196.9219" style="stroke:#181818;stroke-width:1.0;"/><text fill="#000000" font-family="sans-serif" font-size="13" lengthAdjust="spacing" textLength="136" x="417.5" y="179.0654">Comprobar sesion local</text><polygon fill="#181818" points="659.5,239.625,669.5,243.625,659.5,247.625,663.5,243.625" style="stroke:#181818;stroke-width:1.0;"/><line style="stroke:#181818;stroke-width:1.0;" x1="410.5" x2="665.5" y1="243.625" y2="243.625"/><text fill="#000000" font-family="sans-serif" font-size="13" lengthAdjust="spacing" textLength="130" x="417.5" y="222.417">GET /api/carga-trabajo</text><text fill="#000000" font-family="sans-serif" font-size="13" lengthAdjust="spacing" textLength="90" x="417.5" y="238.7686">Filtros + cookie</text><polygon fill="#181818" points="1005.5,269.9766,1015.5,273.9766,1005.5,277.9766,1009.5,273.9766" style="stroke:#181818;stroke-width:1.0;"/><line style="stroke:#181818;stroke-width:1.0;" x1="681.5" x2="1011.5" y1="273.9766" y2="273.9766"/><text fill="#000000" font-family="sans-serif" font-size="13" lengthAdjust="spacing" textLength="209" x="688.5" y="269.1201">obtenerSesionActual(authentication)</text><path d="M10,288.9766 L71,288.9766 L71,297.3281 L61,307.3281 L10,307.3281 L10,288.9766 " fill="#EEEEEE" style="stroke:#000000;stroke-width:1.5;"/><rect fill="none" height="1003.4375" style="stroke:#000000;stroke-width:1.5;" width="2878.5" x="10" y="288.9766"/><text fill="#000000" font-family="sans-serif" font-size="13" font-weight="bold" lengthAdjust="spacing" textLength="16" x="25" y="303.4717">alt</text><text fill="#000000" font-family="sans-serif" font-size="11" font-weight="bold" lengthAdjust="spacing" textLength="169" x="86" y="302.3955">[Sesion de Coordinador activa]</text><polygon fill="#181818" points="692.5,325.6797,682.5,329.6797,692.5,333.6797,688.5,329.6797" style="stroke:#181818;stroke-width:1.0;"/><line style="stroke:#181818;stroke-width:1.0;stroke-dasharray:2.0,2.0;" x1="686.5" x2="1021.5" y1="329.6797" y2="329.6797"/><text fill="#000000" font-family="sans-serif" font-size="13" lengthAdjust="spacing" textLength="202" x="698.5" y="324.8232">SesionResponse(COORDINADOR)</text><polygon fill="#181818" points="1142,356.0313,1152,360.0313,1142,364.0313,1146,360.0313" style="stroke:#181818;stroke-width:1.0;"/><line style="stroke:#181818;stroke-width:1.0;" x1="681.5" x2="1148" y1="360.0313" y2="360.0313"/><text fill="#000000" font-family="sans-serif" font-size="13" lengthAdjust="spacing" textLength="266" x="688.5" y="355.1748">obtenerPanelCargaTrabajo(coordinador, filtros)</text><polygon fill="#181818" points="1648,386.3828,1658,390.3828,1648,394.3828,1652,390.3828" style="stroke:#181818;stroke-width:1.0;"/><line style="stroke:#181818;stroke-width:1.0;" x1="1164" x2="1654" y1="390.3828" y2="390.3828"/><text fill="#000000" font-family="sans-serif" font-size="13" lengthAdjust="spacing" textLength="174" x="1171" y="385.5264">obtenerResumenGlobal(filtros)</text><polygon fill="#181818" points="2817,416.7344,2827,420.7344,2817,424.7344,2821,420.7344" style="stroke:#181818;stroke-width:1.0;"/><line style="stroke:#181818;stroke-width:1.0;" x1="1660" x2="2823" y1="420.7344" y2="420.7344"/><text fill="#000000" font-family="sans-serif" font-size="13" lengthAdjust="spacing" textLength="640" x="1667" y="415.8779">SELECT u.*, c.* FROM usuarios u LEFT JOIN cargas_trabajo c ON c.usuario_id = u.id WHERE u.activo = true</text><polygon fill="#181818" points="1676,447.0859,1666,451.0859,1676,455.0859,1672,451.0859" style="stroke:#181818;stroke-width:1.0;"/><line style="stroke:#181818;stroke-width:1.0;stroke-dasharray:2.0,2.0;" x1="1670" x2="2828" y1="451.0859" y2="451.0859"/><text fill="#000000" font-family="sans-serif" font-size="13" lengthAdjust="spacing" textLength="150" x="1682" y="446.2295">Resultado de persistencia</text><polygon fill="#181818" points="1175,477.4375,1165,481.4375,1175,485.4375,1171,481.4375" style="stroke:#181818;stroke-width:1.0;"/><line style="stroke:#181818;stroke-width:1.0;stroke-dasharray:2.0,2.0;" x1="1169" x2="1654" y1="481.4375" y2="481.4375"/><text fill="#000000" font-family="sans-serif" font-size="13" lengthAdjust="spacing" textLength="131" x="1181" y="476.5811">ResumenCargaTrabajo</text><polygon fill="#181818" points="1643,507.7891,1653,511.7891,1643,515.7891,1647,511.7891" style="stroke:#181818;stroke-width:1.0;"/><line style="stroke:#181818;stroke-width:1.0;" x1="1164" x2="1649" y1="511.7891" y2="511.7891"/><text fill="#000000" font-family="sans-serif" font-size="13" lengthAdjust="spacing" textLength="190" x="1171" y="506.9326">obtenerDetallePorPersona(filtros)</text><polygon fill="#181818" points="2817,538.1406,2827,542.1406,2817,546.1406,2821,542.1406" style="stroke:#181818;stroke-width:1.0;"/><line style="stroke:#181818;stroke-width:1.0;" x1="1665" x2="2823" y1="542.1406" y2="542.1406"/><text fill="#000000" font-family="sans-serif" font-size="13" lengthAdjust="spacing" textLength="640" x="1672" y="537.2842">SELECT u.*, c.* FROM usuarios u LEFT JOIN cargas_trabajo c ON c.usuario_id = u.id WHERE u.activo = true</text><polygon fill="#181818" points="1676,568.4922,1666,572.4922,1676,576.4922,1672,572.4922" style="stroke:#181818;stroke-width:1.0;"/><line style="stroke:#181818;stroke-width:1.0;stroke-dasharray:2.0,2.0;" x1="1670" x2="2828" y1="572.4922" y2="572.4922"/><text fill="#000000" font-family="sans-serif" font-size="13" lengthAdjust="spacing" textLength="150" x="1682" y="567.6357">Resultado de persistencia</text><polygon fill="#181818" points="1175,598.8438,1165,602.8438,1175,606.8438,1171,602.8438" style="stroke:#181818;stroke-width:1.0;"/><line style="stroke:#181818;stroke-width:1.0;stroke-dasharray:2.0,2.0;" x1="1169" x2="1654" y1="602.8438" y2="602.8438"/><text fill="#000000" font-family="sans-serif" font-size="13" lengthAdjust="spacing" textLength="161" x="1181" y="597.9873">List&lt;CargaTrabajoPersona&gt;</text><polygon fill="#181818" points="1957,629.1953,1967,633.1953,1957,637.1953,1961,633.1953" style="stroke:#181818;stroke-width:1.0;"/><line style="stroke:#181818;stroke-width:1.0;" x1="1164" x2="1963" y1="633.1953" y2="633.1953"/><text fill="#000000" font-family="sans-serif" font-size="13" lengthAdjust="spacing" textLength="145" x="1171" y="628.3389">obtenerProyectosLibres()</text><polygon fill="#181818" points="2817,675.8984,2827,679.8984,2817,683.8984,2821,679.8984" style="stroke:#181818;stroke-width:1.0;"/><line style="stroke:#181818;stroke-width:1.0;" x1="1969" x2="2823" y1="679.8984" y2="679.8984"/><text fill="#000000" font-family="sans-serif" font-size="13" lengthAdjust="spacing" textLength="552" x="1976" y="658.6904">SELECT p.* FROM proyectos p WHERE p.archivado = false AND p.estado &lt;&gt; 'COMPLETADO'</text><text fill="#000000" font-family="sans-serif" font-size="13" lengthAdjust="spacing" textLength="552" x="1976" y="675.042">AND NOT EXISTS (SELECT 1 FROM proyecto_investigadores pi WHERE pi.proyecto_id = p.id)</text><polygon fill="#181818" points="1985,706.25,1975,710.25,1985,714.25,1981,710.25" style="stroke:#181818;stroke-width:1.0;"/><line style="stroke:#181818;stroke-width:1.0;stroke-dasharray:2.0,2.0;" x1="1979" x2="2828" y1="710.25" y2="710.25"/><text fill="#000000" font-family="sans-serif" font-size="13" lengthAdjust="spacing" textLength="150" x="1991" y="705.3936">Resultado de persistencia</text><polygon fill="#181818" points="1175,736.6016,1165,740.6016,1175,744.6016,1171,740.6016" style="stroke:#181818;stroke-width:1.0;"/><line style="stroke:#181818;stroke-width:1.0;stroke-dasharray:2.0,2.0;" x1="1169" x2="1968" y1="740.6016" y2="740.6016"/><text fill="#000000" font-family="sans-serif" font-size="13" lengthAdjust="spacing" textLength="117" x="1181" y="735.7451">List&lt;ProyectoLibre&gt;</text><polygon fill="#181818" points="1810.5,766.9531,1820.5,770.9531,1810.5,774.9531,1814.5,770.9531" style="stroke:#181818;stroke-width:1.0;"/><line style="stroke:#181818;stroke-width:1.0;" x1="1164" x2="1816.5" y1="770.9531" y2="770.9531"/><text fill="#000000" font-family="sans-serif" font-size="13" lengthAdjust="spacing" textLength="238" x="1171" y="766.0967">obtenerInvestigadoresDocentesPorSede()</text><polygon fill="#181818" points="2817,797.3047,2827,801.3047,2817,805.3047,2821,801.3047" style="stroke:#181818;stroke-width:1.0;"/><line style="stroke:#181818;stroke-width:1.0;" x1="1822.5" x2="2823" y1="801.3047" y2="801.3047"/><text fill="#000000" font-family="sans-serif" font-size="13" lengthAdjust="spacing" textLength="545" x="1829.5" y="796.4482">SELECT * FROM usuarios WHERE rol = 'INVESTIGADOR' AND activo = true AND sede IN (?)</text><polygon fill="#181818" points="1838.5,827.6563,1828.5,831.6563,1838.5,835.6563,1834.5,831.6563" style="stroke:#181818;stroke-width:1.0;"/><line style="stroke:#181818;stroke-width:1.0;stroke-dasharray:2.0,2.0;" x1="1832.5" x2="2828" y1="831.6563" y2="831.6563"/><text fill="#000000" font-family="sans-serif" font-size="13" lengthAdjust="spacing" textLength="150" x="1844.5" y="826.7998">Resultado de persistencia</text><polygon fill="#181818" points="1175,858.0078,1165,862.0078,1175,866.0078,1171,862.0078" style="stroke:#181818;stroke-width:1.0;"/><line style="stroke:#181818;stroke-width:1.0;stroke-dasharray:2.0,2.0;" x1="1169" x2="1821.5" y1="862.0078" y2="862.0078"/><text fill="#000000" font-family="sans-serif" font-size="13" lengthAdjust="spacing" textLength="85" x="1181" y="857.1514">List&lt;Persona&gt;</text><polygon fill="#181818" points="1643,888.3594,1653,892.3594,1643,896.3594,1647,892.3594" style="stroke:#181818;stroke-width:1.0;"/><line style="stroke:#181818;stroke-width:1.0;" x1="1164" x2="1649" y1="892.3594" y2="892.3594"/><text fill="#000000" font-family="sans-serif" font-size="13" lengthAdjust="spacing" textLength="467" x="1171" y="887.5029">sugerirInvestigadoresDocentesConMenorCarga(proyectosLibres, sedesDocentes)</text><polygon fill="#181818" points="2817,918.7109,2827,922.7109,2817,926.7109,2821,922.7109" style="stroke:#181818;stroke-width:1.0;"/><line style="stroke:#181818;stroke-width:1.0;" x1="1665" x2="2823" y1="922.7109" y2="922.7109"/><text fill="#000000" font-family="sans-serif" font-size="13" lengthAdjust="spacing" textLength="1140" x="1672" y="917.8545">SELECT u.*, c.* FROM usuarios u JOIN cargas_trabajo c ON c.usuario_id = u.id WHERE u.activo = true ORDER BY (c.horas_docencia + c.horas_investigacion + c.horas_gestion_academica) ASC</text><polygon fill="#181818" points="1676,949.0625,1666,953.0625,1676,957.0625,1672,953.0625" style="stroke:#181818;stroke-width:1.0;"/><line style="stroke:#181818;stroke-width:1.0;stroke-dasharray:2.0,2.0;" x1="1670" x2="2828" y1="953.0625" y2="953.0625"/><text fill="#000000" font-family="sans-serif" font-size="13" lengthAdjust="spacing" textLength="150" x="1682" y="948.2061">Resultado de persistencia</text><polygon fill="#181818" points="1175,979.4141,1165,983.4141,1175,987.4141,1171,983.4141" style="stroke:#181818;stroke-width:1.0;"/><line style="stroke:#181818;stroke-width:1.0;stroke-dasharray:2.0,2.0;" x1="1169" x2="1659" y1="983.4141" y2="983.4141"/><text fill="#000000" font-family="sans-serif" font-size="13" lengthAdjust="spacing" textLength="166" x="1181" y="978.5576">List&lt;SugerenciaAsignacion&gt;</text><line style="stroke:#181818;stroke-width:1.0;" x1="1164" x2="1206" y1="1013.7656" y2="1013.7656"/><line style="stroke:#181818;stroke-width:1.0;" x1="1206" x2="1206" y1="1013.7656" y2="1026.7656"/><line style="stroke:#181818;stroke-width:1.0;" x1="1165" x2="1206" y1="1026.7656" y2="1026.7656"/><polygon fill="#181818" points="1175,1022.7656,1165,1026.7656,1175,1030.7656,1171,1026.7656" style="stroke:#181818;stroke-width:1.0;"/><text fill="#000000" font-family="sans-serif" font-size="13" lengthAdjust="spacing" textLength="211" x="1171" y="1008.9092">calcularMargenDocente(maximo16h)</text><polygon fill="#181818" points="692.5,1053.1172,682.5,1057.1172,692.5,1061.1172,688.5,1057.1172" style="stroke:#181818;stroke-width:1.0;"/><line style="stroke:#181818;stroke-width:1.0;stroke-dasharray:2.0,2.0;" x1="686.5" x2="1158" y1="1057.1172" y2="1057.1172"/><text fill="#000000" font-family="sans-serif" font-size="13" lengthAdjust="spacing" textLength="167" x="698.5" y="1052.2607">PanelCargaTrabajoResponse</text><polygon fill="#181818" points="421.5,1099.8203,411.5,1103.8203,421.5,1107.8203,417.5,1103.8203" style="stroke:#181818;stroke-width:1.0;"/><line style="stroke:#181818;stroke-width:1.0;stroke-dasharray:2.0,2.0;" x1="415.5" x2="675.5" y1="1103.8203" y2="1103.8203"/><text fill="#000000" font-family="sans-serif" font-size="13" lengthAdjust="spacing" textLength="44" x="427.5" y="1082.6123">200 OK</text><text fill="#000000" font-family="sans-serif" font-size="13" lengthAdjust="spacing" textLength="167" x="427.5" y="1098.9639">PanelCargaTrabajoResponse</text><line style="stroke:#181818;stroke-width:1.0;" x1="410.5" x2="452.5" y1="1134.1719" y2="1134.1719"/><line style="stroke:#181818;stroke-width:1.0;" x1="452.5" x2="452.5" y1="1134.1719" y2="1147.1719"/><line style="stroke:#181818;stroke-width:1.0;" x1="411.5" x2="452.5" y1="1147.1719" y2="1147.1719"/><polygon fill="#181818" points="421.5,1143.1719,411.5,1147.1719,421.5,1151.1719,417.5,1147.1719" style="stroke:#181818;stroke-width:1.0;"/><text fill="#000000" font-family="sans-serif" font-size="13" lengthAdjust="spacing" textLength="247" x="417.5" y="1129.3154">Renderizar resumen, detalle y sugerencias</text><polygon fill="#181818" points="73.5,1173.5234,63.5,1177.5234,73.5,1181.5234,69.5,1177.5234" style="stroke:#181818;stroke-width:1.0;"/><line style="stroke:#181818;stroke-width:1.0;stroke-dasharray:2.0,2.0;" x1="67.5" x2="399.5" y1="1177.5234" y2="1177.5234"/><text fill="#000000" font-family="sans-serif" font-size="13" lengthAdjust="spacing" textLength="314" x="79.5" y="1172.667">Presenta OPCIONES_CARGA_TRABAJO_ABIERTAS</text><line style="stroke:#000000;stroke-width:1.0;stroke-dasharray:2.0,2.0;" x1="10" x2="2888.5" y1="1186.5234" y2="1186.5234"/><text fill="#000000" font-family="sans-serif" font-size="11" font-weight="bold" lengthAdjust="spacing" textLength="167" x="15" y="1197.9424">[Sesion ausente o rol invalido]</text><polygon fill="#181818" points="687.5,1219.7109,677.5,1223.7109,687.5,1227.7109,683.5,1223.7109" style="stroke:#181818;stroke-width:1.0;"/><line style="stroke:#181818;stroke-width:1.0;stroke-dasharray:2.0,2.0;" x1="681.5" x2="1021.5" y1="1223.7109" y2="1223.7109"/><text fill="#000000" font-family="sans-serif" font-size="13" lengthAdjust="spacing" textLength="322" x="693.5" y="1218.8545">SesionNoValidaException / AccesoDenegadoException</text><polygon fill="#181818" points="421.5,1250.0625,411.5,1254.0625,421.5,1258.0625,417.5,1254.0625" style="stroke:#181818;stroke-width:1.0;"/><line style="stroke:#181818;stroke-width:1.0;stroke-dasharray:2.0,2.0;" x1="415.5" x2="675.5" y1="1254.0625" y2="1254.0625"/><text fill="#000000" font-family="sans-serif" font-size="13" lengthAdjust="spacing" textLength="195" x="427.5" y="1249.2061">401 Unauthorized / 403 Forbidden</text><polygon fill="#181818" points="73.5,1280.4141,63.5,1284.4141,73.5,1288.4141,69.5,1284.4141" style="stroke:#181818;stroke-width:1.0;"/><line style="stroke:#181818;stroke-width:1.0;stroke-dasharray:2.0,2.0;" x1="67.5" x2="399.5" y1="1284.4141" y2="1284.4141"/><text fill="#000000" font-family="sans-serif" font-size="13" lengthAdjust="spacing" textLength="146" x="79.5" y="1279.5576">Presenta error de acceso</text><!--SRC=[rLPHR-Cs37xFho3wKkVMfktki8VYri69tIwtD0xixBO11G95rgNQ7CcGxEAwNpzATXp9QTPYsyiAD77eZnJvaI9PyQfW476oKMHB86UW6QsPe9p0EOHhnHN8ad8fc3PlAL4R2wiKMPFV9JuMC95IvLoGNAh1WD1AAazK4bLnoaiYAZYP60FBHdb1Dkn112b3dU4940stIegAYVoupWG1IXO5KwYPbOgB3OobRFN3alkg6TFeUyRK4wVCGXh9yGDyh7q-3avPAJN7W9yjthuoCbzZmPIMWlJ0ZhG7L_AP8Ojzl2CUvAH21pI3ax7vn8H4f9BQ0gFnOE3m3-St7Q_NaCa23we849lRVZvD-lWJgTW-5Ri7tyv4RaibrqHXmHX2eP2K51uOat4DT_4IBaZ9B-n9v-qn3-AM5vX73Ty0bV8FplO7cnpYlx7GvEeQv1fjCjNy36bLao8WTVN81B96AXGEz_fjWabHjOycF9UF1Za0_6i1vpjlczyfqwKKcWMJ94cZwJoCadHeyJdh7sEadRUsMZft5qImmgsMWEwzE8Cl3GEDOSTiKtADT_RPsEuggxEEJjPR9kuAJ48HUCOwiD6CnXXMF8idIwX7xyw0Zjx1RPhSGwrheZYce8PPVBk4JybqtjI3NkrkDuK4PQCMkk8vV8zMyEkN7-CqnaVhjqHffUh6wMXiwNGSDfuM5GPj4b5YrNDTsGxZHxw_FBqON6hRg5rMNwSgOXN1Zh6Gghrp_sEwZl0oGz17hxSsaTxqsN6xoBvIMw6UyRLYEXWEN5YFbdB7IBdJWh8Di1mHHHyndRc9yGifi3M5ymZbJDk8Fjx0wIIvNypY9LwgqmTXtiwJ9SI_JhDb1a5xnfL_megB9xJ0D-Rcu232-zOUo4TxZ66xHBQ7Bh5-l6yiHQ_LcZS-7GV4xrvR-cxwdUB0cfkE_H3eiZ7rWeqanJR7D5Plnd8MDD4vUhtqzCkr8Gf79h9pEfr_ZhFbzCvqj5ER6gyYhKJZAO2r7VpW4-bw-bOUdH5tuFKXYsx9klprhBnyrtMzOJZHNYOFjuPx9gIo-A3qo_tCXjnX_s5J-FVz073On2cCVuE0ZXwbGaEvySdiOZWcMr5t5SnIviWtHYh5Yb2IiosEnI64sUG_xp6PeTb2Gyqtmdfna36_bJlvwcpXha3hWgXxH3BHKXzioLU-bLVVFGvznTruFfYekqbzE9ptKzHEPszt-VRo4fAV7iIRpPcLn8XUNeLI_CJI-nDt8TMCfpDKjYC7dfkwj8JfdWsJalr2WD6XDj9085bCfiaypbQJCBqBLyiq78UVabKudiRfCim6pFJLTdKXjT5X8EqLn-8W1S_btomtS_dPG4ZybRBIL0nSG4WfqpB2vcFkJVVcjPN7O-73vHNyBCnM9f4BbgFP3vVluLQgDSzp9bxdz2WVJ2bSsx1IYVLpOBPInzBEmby0]--></g></svg>