<svg xmlns="http://www.w3.org/2000/svg" xmlns:xlink="http://www.w3.org/1999/xlink" contentStyleType="text/css" data-diagram-type="DESCRIPTION" height="442px" preserveAspectRatio="none" style="width:2933px;height:442px;background:#FFFFFF;" version="1.1" viewBox="0 0 2933 442" width="2933px" zoomAndPan="magnify"><?plantuml 1.2026.5?><defs/><g><!--cluster editarProyecto--><g class="cluster" data-qualified-name="editarProyecto" data-source-line="4" id="ent0002"><path d="M197.5,6 L305.8584,6 A3.75,3.75 0 0 1 308.3584,8.5 L315.3584,29.6094 L940.5,29.6094 A2.5,2.5 0 0 1 943,32.1094 L943,424.5 A2.5,2.5 0 0 1 940.5,427 L197.5,427 A2.5,2.5 0 0 1 195,424.5 L195,8.5 A2.5,2.5 0 0 1 197.5,6" fill="none" style="stroke:#000000;stroke-width:1.5;"/><line style="stroke:#000000;stroke-width:1.5;" x1="195" x2="315.3584" y1="29.6094" y2="29.6094"/><text fill="#000000" font-family="sans-serif" font-size="14" font-weight="700" lengthAdjust="spacing" textLength="107.3584" x="199" y="22.5332">editarProyecto()</text></g><!--entity EditarProyectoView--><g class="entity" data-qualified-name="editarProyecto.EditarProyectoView" data-source-line="5" id="ent0003"><rect fill="#629EF9" height="37.6094" rx="2.5" ry="2.5" style="stroke:#181818;stroke-width:0.5;" width="142.165" x="785" y="42"/><text fill="#000000" font-family="sans-serif" font-size="14" lengthAdjust="spacing" textLength="122.165" x="795" y="66.5332">EditarProyectoView</text></g><!--entity ProyectoController--><g class="entity" data-qualified-name="editarProyecto.ProyectoController" data-source-line="6" id="ent0004"><rect fill="#B5BD68" height="37.6094" rx="2.5" ry="2.5" style="stroke:#181818;stroke-width:0.5;" width="135.9375" x="211" y="158"/><text fill="#000000" font-family="sans-serif" font-size="14" lengthAdjust="spacing" textLength="115.9375" x="221" y="182.5332">ProyectoController</text></g><!--entity ProyectoRepository--><g class="entity" data-qualified-name="editarProyecto.ProyectoRepository" data-source-line="7" id="ent0005"><rect fill="#F2AC4E" height="37.6094" rx="2.5" ry="2.5" style="stroke:#181818;stroke-width:0.5;" width="142.165" x="294" y="274"/><text fill="#000000" font-family="sans-serif" font-size="14" lengthAdjust="spacing" textLength="122.165" x="304" y="298.5332">ProyectoRepository</text></g><!--entity Proyecto--><g class="entity" data-qualified-name="editarProyecto.Proyecto" data-source-line="8" id="ent0006"><rect fill="#F2AC4E" height="37.6094" rx="2.5" ry="2.5" style="stroke:#181818;stroke-width:0.5;" width="75.248" x="327.5" y="373"/><text fill="#000000" font-family="sans-serif" font-size="14" lengthAdjust="spacing" textLength="55.248" x="337.5" y="397.5332">Proyecto</text></g><!--entity EstadoEntrada--><g class="entity" data-qualified-name="EstadoEntrada" data-source-line="3" id="ent0001"><rect fill="#CDEBA5" height="37.6094" rx="2.5" ry="2.5" style="stroke:#181818;stroke-width:0.5;" width="171.6963" x="7" y="42"/><text fill="#000000" font-family="sans-serif" font-size="14" lengthAdjust="spacing" textLength="151.6963" x="17" y="66.5332">:PROYECTO_ABIERTO</text></g><!--entity EstadoSalida--><g class="entity" data-qualified-name="EstadoSalida" data-source-line="11" id="ent0007"><rect fill="#CDEBA5" height="37.6094" rx="2.5" ry="2.5" style="stroke:#181818;stroke-width:0.5;" width="171.6963" x="962" y="158"/><text fill="#000000" font-family="sans-serif" font-size="14" lengthAdjust="spacing" textLength="151.6963" x="972" y="182.5332">:PROYECTO_ABIERTO</text></g><!--entity EditarProyecto--><g class="entity" data-qualified-name="EditarProyecto" data-source-line="12" id="ent0008"><rect fill="#CDEBA5" height="37.6094" rx="2.5" ry="2.5" style="stroke:#181818;stroke-width:0.5;" width="202.0957" x="1169" y="158"/><text fill="#000000" font-family="sans-serif" font-size="14" lengthAdjust="spacing" textLength="182.0957" x="1179" y="182.5332">:Collaboration EditarProyecto</text></g><!--entity EliminarProyecto--><g class="entity" data-qualified-name="EliminarProyecto" data-source-line="13" id="ent0009"><rect fill="#CDEBA5" height="37.6094" rx="2.5" ry="2.5" style="stroke:#181818;stroke-width:0.5;" width="216.0889" x="1406" y="158"/><text fill="#000000" font-family="sans-serif" font-size="14" lengthAdjust="spacing" textLength="196.0889" x="1416" y="182.5332">:Collaboration EliminarProyecto</text></g><!--entity AgregarInvestigador--><g class="entity" data-qualified-name="AgregarInvestigador" data-source-line="14" id="ent0010"><rect fill="#CDEBA5" height="37.6094" rx="2.5" ry="2.5" style="stroke:#181818;stroke-width:0.5;" width="236.3506" x="1657" y="158"/><text fill="#000000" font-family="sans-serif" font-size="14" lengthAdjust="spacing" textLength="216.3506" x="1667" y="182.5332">:Collaboration AgregarInvestigador</text></g><!--entity EliminarInvestigador--><g class="entity" data-qualified-name="EliminarInvestigador" data-source-line="15" id="ent0011"><rect fill="#CDEBA5" height="37.6094" rx="2.5" ry="2.5" style="stroke:#181818;stroke-width:0.5;" width="237.1094" x="1928.5" y="158"/><text fill="#000000" font-family="sans-serif" font-size="14" lengthAdjust="spacing" textLength="217.1094" x="1938.5" y="182.5332">:Collaboration EliminarInvestigador</text></g><!--entity AbrirEntregables--><g class="entity" data-qualified-name="AbrirEntregables" data-source-line="16" id="ent0012"><rect fill="#CDEBA5" height="37.6094" rx="2.5" ry="2.5" style="stroke:#181818;stroke-width:0.5;" width="214.5508" x="2200.5" y="158"/><text fill="#000000" font-family="sans-serif" font-size="14" lengthAdjust="spacing" textLength="194.5508" x="2210.5" y="182.5332">:Collaboration AbrirEntregables</text></g><!--entity AbrirInvestigadores--><g class="entity" data-qualified-name="AbrirInvestigadores" data-source-line="17" id="ent0013"><rect fill="#CDEBA5" height="37.6094" rx="2.5" ry="2.5" style="stroke:#181818;stroke-width:0.5;" width="230.8887" x="2450.5" y="158"/><text fill="#000000" font-family="sans-serif" font-size="14" lengthAdjust="spacing" textLength="210.8887" x="2460.5" y="182.5332">:Collaboration AbrirInvestigadores</text></g><!--entity AbrirProyectos--><g class="entity" data-qualified-name="AbrirProyectos" data-source-line="18" id="ent0014"><rect fill="#CDEBA5" height="37.6094" rx="2.5" ry="2.5" style="stroke:#181818;stroke-width:0.5;" width="202.082" x="2717" y="158"/><text fill="#000000" font-family="sans-serif" font-size="14" lengthAdjust="spacing" textLength="182.082" x="2727" y="182.5332">:Collaboration AbrirProyectos</text></g><!--link EstadoEntrada to EditarProyectoView--><g class="link" data-entity-1="ent0001" data-entity-2="ent0003" data-link-type="dependency" data-source-line="19" id="lnk15"><path d="M179.04,61 C331.04,61 639.26,61 779.9,61" fill="none" id="EstadoEntrada-to-EditarProyectoView" style="stroke:#181818;stroke-width:1;"/><polygon fill="#181818" points="784.9,61,775.9,57,779.9,61,775.9,65,784.9,61" style="stroke:#181818;stroke-width:1;stroke-linejoin:miter;stroke-miterlimit:10;"/><text fill="#000000" font-family="sans-serif" font-size="13" lengthAdjust="spacing" textLength="153.1816" x="405.5" y="54.4951">editarProyecto(proyectoId)</text></g><!--link EditarProyectoView to ProyectoController--><g class="link" data-entity-1="ent0003" data-entity-2="ent0004" data-link-type="dependency" data-source-line="21" id="lnk16"><path d="M784.93,68.6 C643.22,81.76 339,110 339,110 C339,110 316.522,134.7191 298.762,154.2691" fill="none" id="EditarProyectoView-to-ProyectoController" style="stroke:#181818;stroke-width:1;"/><polygon fill="#181818" points="295.4,157.97,304.4124,153.998,298.762,154.2691,298.491,148.6187,295.4,157.97" style="stroke:#181818;stroke-width:1;stroke-linejoin:miter;stroke-miterlimit:10;"/><text fill="#000000" font-family="sans-serif" font-size="13" lengthAdjust="spacing" textLength="161.1353" x="340" y="124.4951">prepararEdicion(proyectoId)</text></g><!--link EditarProyectoView to ProyectoController--><g class="link" data-entity-1="ent0003" data-entity-2="ent0004" data-link-type="dependency" data-source-line="24" id="lnk19"><path d="M784.96,76.04 C673.05,98.15 462.0752,139.8311 352.0152,161.5711" fill="none" id="EditarProyectoView-to-ProyectoController-1" style="stroke:#181818;stroke-width:1;"/><polygon fill="#181818" points="347.11,162.54,356.7145,164.7201,352.0152,161.5711,355.1643,156.8718,347.11,162.54" style="stroke:#181818;stroke-width:1;stroke-linejoin:miter;stroke-miterlimit:10;"/><text fill="#000000" font-family="sans-serif" font-size="13" lengthAdjust="spacing" textLength="208.8125" x="603" y="124.4951">editarProyecto(proyectoId, cambios)</text></g><!--link ProyectoController to ProyectoRepository--><g class="link" data-entity-1="ent0004" data-entity-2="ent0005" data-link-type="dependency" data-source-line="22" id="lnk17"><path d="M271.44,196.15 C265.78,209.74 259,226 259,226 C259,226 259,244 259,244 C259,244 290.5952,258.3076 320.6752,271.9276" fill="none" id="ProyectoController-to-ProyectoRepository" style="stroke:#181818;stroke-width:1;"/><polygon fill="#181818" points="325.23,273.99,318.6812,266.6338,320.6752,271.9276,315.3814,273.9216,325.23,273.99" style="stroke:#181818;stroke-width:1;stroke-linejoin:miter;stroke-miterlimit:10;"/><text fill="#000000" font-family="sans-serif" font-size="13" lengthAdjust="spacing" textLength="144.5234" x="260" y="240.4951">obtenerPorId(proyectoId)</text></g><!--link ProyectoController to ProyectoRepository--><g class="link" data-entity-1="ent0004" data-entity-2="ent0005" data-link-type="dependency" data-source-line="26" id="lnk21"><path d="M327.78,196.01 C364.67,209.63 409,226 409,226 C409,226 409,244 409,244 C409,244 397.469,256.5746 385.009,270.1646" fill="none" id="ProyectoController-to-ProyectoRepository-1" style="stroke:#181818;stroke-width:1;"/><polygon fill="#181818" points="381.63,273.85,390.6605,269.9194,385.009,270.1646,384.7638,264.513,381.63,273.85" style="stroke:#181818;stroke-width:1;stroke-linejoin:miter;stroke-miterlimit:10;"/><text fill="#000000" font-family="sans-serif" font-size="13" lengthAdjust="spacing" textLength="114.1563" x="410" y="240.4951">actualizar(proyecto)</text></g><!--link ProyectoController to ProyectoController--><g class="link" data-entity-1="ent0004" data-entity-2="ent0004" data-link-type="dependency" data-source-line="23" id="lnk18"><path d="M347.35,171.58 C366.91,171.8 382,173.6 382,177 C382,180.4 371.9097,182.1438 352.3497,182.3638" fill="none" id="ProyectoController-to-ProyectoController" style="stroke:#181818;stroke-width:1;"/><polygon fill="#181818" points="347.35,182.42,356.3944,186.3185,352.3497,182.3638,356.3044,178.319,347.35,182.42" style="stroke:#181818;stroke-width:1;stroke-linejoin:miter;stroke-miterlimit:10;"/><text fill="#000000" font-family="sans-serif" font-size="13" lengthAdjust="spacing" textLength="280.3569" x="388" y="182.4951">obtenerTransicionesPermitidas(proyecto.estado)</text></g><!--link ProyectoController to ProyectoController--><g class="link" data-entity-1="ent0004" data-entity-2="ent0004" data-link-type="dependency" data-source-line="25" id="lnk20"><path d="M347.16,169.49 C462.58,163.21 674,165.71 674,177 C674,188.29 467.5726,191.0616 352.1526,184.7816" fill="none" id="ProyectoController-to-ProyectoController-1" style="stroke:#181818;stroke-width:1;"/><polygon fill="#181818" points="347.16,184.51,355.9294,188.9931,352.1526,184.7816,356.364,181.0049,347.16,184.51" style="stroke:#181818;stroke-width:1;stroke-linejoin:miter;stroke-miterlimit:10;"/><text fill="#000000" font-family="sans-serif" font-size="13" lengthAdjust="spacing" textLength="240.5889" x="680" y="182.4951">validarDatosFechasYTransicion(cambios)</text></g><!--link ProyectoRepository to Proyecto--><g class="link" data-entity-1="ent0005" data-entity-2="ent0006" data-link-type="association" data-source-line="27" id="lnk22"><path d="M365,312.24 C365,329.59 365,355.52 365,372.84" fill="none" id="ProyectoRepository-Proyecto" style="stroke:#181818;stroke-width:1;"/></g><!--link EditarProyectoView to EstadoSalida--><g class="link" data-entity-1="ent0003" data-entity-2="ent0007" data-link-type="dependency" data-source-line="28" id="lnk23"><path d="M858.73,80.03 C861.69,99.58 866,128 866,128 C866,128 923.2353,143.0949 974.8753,156.7149" fill="none" id="EditarProyectoView-to-EstadoSalida" style="stroke:#181818;stroke-width:1;stroke-dasharray:7,7;"/><polygon fill="#181818" points="979.71,157.99,972.0277,151.827,974.8753,156.7149,969.9875,159.5625,979.71,157.99" style="stroke:#181818;stroke-width:1;stroke-linejoin:miter;stroke-miterlimit:10;"/><text fill="#000000" font-family="sans-serif" font-size="13" lengthAdjust="spacing" textLength="125.728" x="867" y="124.4951">proyectoActualizado()</text></g><!--link EditarProyectoView to EstadoSalida--><g class="link" data-entity-1="ent0003" data-entity-2="ent0007" data-link-type="dependency" data-source-line="29" id="lnk24"><path d="M908.9,80.01 C948.91,93.63 997,110 997,110 C997,110 1015.9036,134.4629 1031.0036,154.0129" fill="none" id="EditarProyectoView-to-EstadoSalida-1" style="stroke:#181818;stroke-width:1;stroke-dasharray:7,7;"/><polygon fill="#181818" points="1034.06,157.97,1031.7242,148.4021,1031.0036,154.0129,1025.3929,153.2923,1034.06,157.97" style="stroke:#181818;stroke-width:1;stroke-linejoin:miter;stroke-miterlimit:10;"/><text fill="#000000" font-family="sans-serif" font-size="13" lengthAdjust="spacing" textLength="100.4326" x="1011" y="124.4951">cancelarEdicion()</text></g><!--link EditarProyectoView to EditarProyecto--><g class="link" data-entity-1="ent0003" data-entity-2="ent0008" data-link-type="dependency" data-source-line="30" id="lnk25"><path d="M927.09,74.93 C1005.29,89.14 1120,110 1120,110 C1120,110 1180.0238,136.4055 1224.4338,155.9555" fill="none" id="EditarProyectoView-to-EditarProyecto" style="stroke:#181818;stroke-width:1;stroke-dasharray:7,7;"/><polygon fill="#181818" points="1229.01,157.97,1222.3844,150.6829,1224.4338,155.9555,1219.1612,158.0048,1229.01,157.97" style="stroke:#181818;stroke-width:1;stroke-linejoin:miter;stroke-miterlimit:10;"/><text fill="#000000" font-family="sans-serif" font-size="13" lengthAdjust="spacing" textLength="92.479" x="1161" y="124.4951">editarProyecto()</text></g><!--link EditarProyectoView to EliminarProyecto--><g class="link" data-entity-1="ent0003" data-entity-2="ent0009" data-link-type="dependency" data-source-line="31" id="lnk26"><path d="M927.18,70.42 C1043.62,84.18 1262,110 1262,110 C1262,110 1365.6933,137.1526 1440.3033,156.7026" fill="none" id="EditarProyectoView-to-EliminarProyecto" style="stroke:#181818;stroke-width:1;stroke-dasharray:7,7;"/><polygon fill="#181818" points="1445.14,157.97,1437.4478,151.8194,1440.3033,156.7026,1435.42,159.5581,1445.14,157.97" style="stroke:#181818;stroke-width:1;stroke-linejoin:miter;stroke-miterlimit:10;"/><text fill="#000000" font-family="sans-serif" font-size="13" lengthAdjust="spacing" textLength="105.4727" x="1330" y="124.4951">eliminarProyecto()</text></g><!--link EditarProyectoView to AgregarInvestigador--><g class="link" data-entity-1="ent0003" data-entity-2="ent0010" data-link-type="dependency" data-source-line="32" id="lnk27"><path d="M927.22,67.81 C1083.77,80.59 1444,110 1444,110 C1444,110 1581.6466,137.4418 1679.6466,156.9918" fill="none" id="EditarProyectoView-to-AgregarInvestigador" style="stroke:#181818;stroke-width:1;stroke-dasharray:7,7;"/><polygon fill="#181818" points="1684.55,157.97,1676.5064,152.2866,1679.6466,156.9918,1674.9414,160.132,1684.55,157.97" style="stroke:#181818;stroke-width:1;stroke-linejoin:miter;stroke-miterlimit:10;"/><text fill="#000000" font-family="sans-serif" font-size="13" lengthAdjust="spacing" textLength="124.2871" x="1533" y="124.4951">agregarInvestigador()</text></g><!--link EditarProyectoView to EliminarInvestigador--><g class="link" data-entity-1="ent0003" data-entity-2="ent0011" data-link-type="dependency" data-source-line="33" id="lnk28"><path d="M927.17,66.22 C1124.83,77.93 1666,110 1666,110 C1666,110 1825.1534,137.5662 1937.9634,157.1162" fill="none" id="EditarProyectoView-to-EliminarInvestigador" style="stroke:#181818;stroke-width:1;stroke-dasharray:7,7;"/><polygon fill="#181818" points="1942.89,157.97,1934.7052,152.492,1937.9634,157.1162,1933.3392,160.3745,1942.89,157.97" style="stroke:#181818;stroke-width:1;stroke-linejoin:miter;stroke-miterlimit:10;"/><text fill="#000000" font-family="sans-serif" font-size="13" lengthAdjust="spacing" textLength="124.9917" x="1769" y="124.4951">eliminarInvestigador()</text></g><!--link EditarProyectoView to AbrirEntregables--><g class="link" data-entity-1="ent0003" data-entity-2="ent0012" data-link-type="dependency" data-source-line="34" id="lnk29"><path d="M927.07,65.26 C1162.5,76.07 1902,110 1902,110 C1902,110 2075.0548,138.1274 2195.3348,157.6874" fill="none" id="EditarProyectoView-to-AbrirEntregables" style="stroke:#181818;stroke-width:1;stroke-dasharray:7,7;"/><polygon fill="#181818" points="2200.27,158.49,2192.0287,153.0973,2195.3348,157.6874,2190.7446,160.9935,2200.27,158.49" style="stroke:#181818;stroke-width:1;stroke-linejoin:miter;stroke-miterlimit:10;"/><text fill="#000000" font-family="sans-serif" font-size="13" lengthAdjust="spacing" textLength="104.0444" x="2011" y="124.4951">abrirEntregables()</text></g><!--link EditarProyectoView to AbrirInvestigadores--><g class="link" data-entity-1="ent0003" data-entity-2="ent0013" data-link-type="dependency" data-source-line="35" id="lnk30"><path d="M927.35,64.7 C1194.98,74.83 2124,110 2124,110 C2124,110 2314.5449,138.4514 2445.5049,158.0114" fill="none" id="EditarProyectoView-to-AbrirInvestigadores" style="stroke:#181818;stroke-width:1;stroke-dasharray:7,7;"/><polygon fill="#181818" points="2450.45,158.75,2442.1396,153.4644,2445.5049,158.0114,2440.9579,161.3766,2450.45,158.75" style="stroke:#181818;stroke-width:1;stroke-linejoin:miter;stroke-miterlimit:10;"/><text fill="#000000" font-family="sans-serif" font-size="13" lengthAdjust="spacing" textLength="119.2153" x="2243" y="124.4951">abrirInvestigadores()</text></g><!--link EditarProyectoView to AbrirProyectos--><g class="link" data-entity-1="ent0003" data-entity-2="ent0014" data-link-type="dependency" data-source-line="36" id="lnk31"><path d="M927.04,64.25 C1226.56,73.74 2371,110 2371,110 C2371,110 2699,158 2699,158 C2699,158 2701.146,158.3236 2711.876,159.9436" fill="none" id="EditarProyectoView-to-AbrirProyectos" style="stroke:#181818;stroke-width:1;stroke-dasharray:7,7;"/><polygon fill="#181818" points="2716.82,160.69,2708.518,155.3912,2711.876,159.9436,2707.3237,163.3016,2716.82,160.69" style="stroke:#181818;stroke-width:1;stroke-linejoin:miter;stroke-miterlimit:10;"/><text fill="#000000" font-family="sans-serif" font-size="13" lengthAdjust="spacing" textLength="92.4663" x="2487" y="124.4951">abrirProyectos()</text></g><?plantuml-src bPHFZvim4CNlV0ehlIHIayEgk-hci1BB4YcdH6bKQK-h0KRKMcAZiRjLMlMxT_8Fi866v1GUytv-7kmnxrALGB0JXLHezoMAKXVxmqCG4AOML5wW-1IznC_XlHZDrvlLQnnjLs_XypBUR5SZ0KR4naAcOsK9CWXAIDyXHu6Pj41hqdlcw4FTo9N6av7u4mZ-DLPwk7kC5uyYTYg_I_pb5oRtIVRmLLnA8itBww90yWiNTs7q9QuADrXg8wsc_PN2uE_DBVW6XUGETBaYpWQ99h1IAszx9u8Z3M4KSYULJ_740Pmm9yo1bke3ZPKvRuEEg0xzXbGjNDUB8UaIadGuMfmbAT2SeddYK4vpxIRArOVIBZrkW2efSEw4cDBqgUDCpxrBCYxFVvRP90ZQzMAQCQTzvEUY93pSOs9FoW4TKBjUJ1kO-aBCXKuiAgIrfcLs2wCPvSpO4YXp38DcZRIJbg-6gQ0pF3PeqhdB7d9lipwB57Q9rEQce1_7sqelmDzhWUaFCAzrwF5GOhDzaDgV3FqDL8Mh_NKX--ifqx7_sUp96IY7ptjw7LuMo7Xw3hEce58iwfFHRtFaLhVxVTx8OQUdz7ixPWntiIrUNzr5O8VwdnJUEE48ddB5wywFizqLhn2gmN4sLy_i-mS0?></g></svg>