<svg xmlns="http://www.w3.org/2000/svg" xmlns:xlink="http://www.w3.org/1999/xlink" contentStyleType="text/css" data-diagram-type="DESCRIPTION" height="442px" preserveAspectRatio="none" style="width:2089px;height:442px;background:#FFFFFF;" version="1.1" viewBox="0 0 2089 442" width="2089px" zoomAndPan="magnify"><?plantuml 1.2026.4?><defs/><g><!--cluster editarProyecto--><g class="cluster" data-qualified-name="editarProyecto" data-source-line="4" id="ent0002"><path d="M197.5,6 L305.8584,6 A3.75,3.75 0 0 1 308.3584,8.5 L315.3584,29.6094 L574.5,29.6094 A2.5,2.5 0 0 1 577,32.1094 L577,424.5 A2.5,2.5 0 0 1 574.5,427 L197.5,427 A2.5,2.5 0 0 1 195,424.5 L195,8.5 A2.5,2.5 0 0 1 197.5,6" fill="none" style="stroke:#000000;stroke-width:1.5;"/><line style="stroke:#000000;stroke-width:1.5;" x1="195" x2="315.3584" y1="29.6094" y2="29.6094"/><text fill="#000000" font-family="sans-serif" font-size="14" font-weight="700" lengthAdjust="spacing" textLength="107.3584" x="199" y="22.5332">editarProyecto()</text></g><!--entity EditarProyectoView--><g class="entity" data-qualified-name="editarProyecto.EditarProyectoView" data-source-line="5" id="ent0003"><rect fill="#629EF9" height="37.6094" rx="2.5" ry="2.5" style="stroke:#181818;stroke-width:0.5;" width="142.165" x="419" y="42"/><text fill="#000000" font-family="sans-serif" font-size="14" lengthAdjust="spacing" textLength="122.165" x="429" y="66.5332">EditarProyectoView</text></g><!--entity ProyectoController--><g class="entity" data-qualified-name="editarProyecto.ProyectoController" data-source-line="6" id="ent0004"><rect fill="#B5BD68" height="37.6094" rx="2.5" ry="2.5" style="stroke:#181818;stroke-width:0.5;" width="135.9375" x="262" y="158"/><text fill="#000000" font-family="sans-serif" font-size="14" lengthAdjust="spacing" textLength="115.9375" x="272" y="182.5332">ProyectoController</text></g><!--entity ProyectoRepository--><g class="entity" data-qualified-name="editarProyecto.ProyectoRepository" data-source-line="7" id="ent0005"><rect fill="#F2AC4E" height="37.6094" rx="2.5" ry="2.5" style="stroke:#181818;stroke-width:0.5;" width="142.165" x="269" y="274"/><text fill="#000000" font-family="sans-serif" font-size="14" lengthAdjust="spacing" textLength="122.165" x="279" y="298.5332">ProyectoRepository</text></g><!--entity Proyecto--><g class="entity" data-qualified-name="editarProyecto.Proyecto" data-source-line="8" id="ent0006"><rect fill="#F2AC4E" height="37.6094" rx="2.5" ry="2.5" style="stroke:#181818;stroke-width:0.5;" width="75.248" x="302.5" y="373"/><text fill="#000000" font-family="sans-serif" font-size="14" lengthAdjust="spacing" textLength="55.248" x="312.5" y="397.5332">Proyecto</text></g><!--entity EstadoEntrada--><g class="entity" data-qualified-name="EstadoEntrada" data-source-line="3" id="ent0001"><rect fill="#CDEBA5" height="37.6094" rx="2.5" ry="2.5" style="stroke:#181818;stroke-width:0.5;" width="171.6963" x="7" y="42"/><text fill="#000000" font-family="sans-serif" font-size="14" lengthAdjust="spacing" textLength="151.6963" x="17" y="66.5332">:PROYECTO_ABIERTO</text></g><!--entity EstadoSalida--><g class="entity" data-qualified-name="EstadoSalida" data-source-line="11" id="ent0007"><rect fill="#CDEBA5" height="37.6094" rx="2.5" ry="2.5" style="stroke:#181818;stroke-width:0.5;" width="171.6963" x="593" y="158"/><text fill="#000000" font-family="sans-serif" font-size="14" lengthAdjust="spacing" textLength="151.6963" x="603" y="182.5332">:PROYECTO_ABIERTO</text></g><!--entity EliminarProyecto--><g class="entity" data-qualified-name="EliminarProyecto" data-source-line="12" id="ent0008"><rect fill="#CDEBA5" height="37.6094" rx="2.5" ry="2.5" style="stroke:#181818;stroke-width:0.5;" width="216.0889" x="800" y="158"/><text fill="#000000" font-family="sans-serif" font-size="14" lengthAdjust="spacing" textLength="196.0889" x="810" y="182.5332">:Collaboration EliminarProyecto</text></g><!--entity AgregarInvestigador--><g class="entity" data-qualified-name="AgregarInvestigador" data-source-line="13" id="ent0009"><rect fill="#CDEBA5" height="37.6094" rx="2.5" ry="2.5" style="stroke:#181818;stroke-width:0.5;" width="236.3506" x="1051" y="158"/><text fill="#000000" font-family="sans-serif" font-size="14" lengthAdjust="spacing" textLength="216.3506" x="1061" y="182.5332">:Collaboration AgregarInvestigador</text></g><!--entity EliminarInvestigador--><g class="entity" data-qualified-name="EliminarInvestigador" data-source-line="14" id="ent0010"><rect fill="#CDEBA5" height="37.6094" rx="2.5" ry="2.5" style="stroke:#181818;stroke-width:0.5;" width="237.1094" x="1322.5" y="158"/><text fill="#000000" font-family="sans-serif" font-size="14" lengthAdjust="spacing" textLength="217.1094" x="1332.5" y="182.5332">:Collaboration EliminarInvestigador</text></g><!--entity AbrirEntregables--><g class="entity" data-qualified-name="AbrirEntregables" data-source-line="15" id="ent0011"><rect fill="#CDEBA5" height="37.6094" rx="2.5" ry="2.5" style="stroke:#181818;stroke-width:0.5;" width="214.5508" x="1594.5" y="158"/><text fill="#000000" font-family="sans-serif" font-size="14" lengthAdjust="spacing" textLength="194.5508" x="1604.5" y="182.5332">:Collaboration AbrirEntregables</text></g><!--entity AbrirInvestigadores--><g class="entity" data-qualified-name="AbrirInvestigadores" data-source-line="16" id="ent0012"><rect fill="#CDEBA5" height="37.6094" rx="2.5" ry="2.5" style="stroke:#181818;stroke-width:0.5;" width="230.8887" x="1844.5" y="158"/><text fill="#000000" font-family="sans-serif" font-size="14" lengthAdjust="spacing" textLength="210.8887" x="1854.5" y="182.5332">:Collaboration AbrirInvestigadores</text></g><!--link EstadoEntrada to EditarProyectoView--><g class="link" data-entity-1="ent0001" data-entity-2="ent0003" data-link-type="dependency" data-source-line="18" id="lnk13"><path d="M179.14,61 C250.86,61 346.77,61 413.94,61" fill="none" id="EstadoEntrada-to-EditarProyectoView" style="stroke:#181818;stroke-width:1;"/><polygon fill="#181818" points="418.94,61,409.94,57,413.94,61,409.94,65,418.94,61" style="stroke:#181818;stroke-width:1;stroke-linejoin:miter;stroke-miterlimit:10;"/><text fill="#000000" font-family="sans-serif" font-size="13" lengthAdjust="spacing" textLength="92.479" x="253" y="54.4951">editarProyecto()</text></g><!--link EditarProyectoView to ProyectoController--><g class="link" data-entity-1="ent0003" data-entity-2="ent0004" data-link-type="dependency" data-source-line="20" id="lnk14"><path d="M418.89,75.82 C345.92,90 243,110 243,110 C243,110 243,128 243,128 C243,128 268.0918,141.8452 292.7318,155.4352" fill="none" id="EditarProyectoView-to-ProyectoController" style="stroke:#181818;stroke-width:1;"/><polygon fill="#181818" points="297.11,157.85,291.161,150.0008,292.7318,155.4352,287.2974,157.006,297.11,157.85" style="stroke:#181818;stroke-width:1;stroke-linejoin:miter;stroke-miterlimit:10;"/><text fill="#000000" font-family="sans-serif" font-size="13" lengthAdjust="spacing" textLength="141.6226" x="244" y="124.4951">editarProyecto(id, datos)</text></g><!--link EditarProyectoView to ProyectoController--><g class="link" data-entity-1="ent0003" data-entity-2="ent0004" data-link-type="dependency" data-source-line="21" id="lnk15"><path d="M464.65,80.06 C434.78,101.35 389.5018,133.5982 359.5718,154.9282" fill="none" id="EditarProyectoView-to-ProyectoController-1" style="stroke:#181818;stroke-width:1;"/><polygon fill="#181818" points="355.5,157.83,365.1507,155.8642,359.5718,154.9282,360.5078,149.3493,355.5,157.83" style="stroke:#181818;stroke-width:1;stroke-linejoin:miter;stroke-miterlimit:10;"/><text fill="#000000" font-family="sans-serif" font-size="13" lengthAdjust="spacing" textLength="130.0508" x="420" y="124.4951">validarCambios(datos)</text></g><!--link ProyectoController to ProyectoRepository--><g class="link" data-entity-1="ent0004" data-entity-2="ent0005" data-link-type="dependency" data-source-line="22" id="lnk16"><path d="M303.91,196.15 C284.37,209.74 261,226 261,226 C261,226 261,244 261,244 C261,244 283.4868,257.664 305.8568,271.254" fill="none" id="ProyectoController-to-ProyectoRepository" style="stroke:#181818;stroke-width:1;"/><polygon fill="#181818" points="310.13,273.85,304.515,265.7585,305.8568,271.254,300.3613,272.5957,310.13,273.85" style="stroke:#181818;stroke-width:1;stroke-linejoin:miter;stroke-miterlimit:10;"/><text fill="#000000" font-family="sans-serif" font-size="13" lengthAdjust="spacing" textLength="93.939" x="262" y="240.4951">obtenerPorId(id)</text></g><!--link ProyectoController to ProyectoRepository--><g class="link" data-entity-1="ent0004" data-entity-2="ent0005" data-link-type="dependency" data-source-line="23" id="lnk17"><path d="M341.34,196.15 C349.84,209.74 360,226 360,226 C360,226 360,244 360,244 C360,244 355.1424,255.6443 349.4824,269.2343" fill="none" id="ProyectoController-to-ProyectoRepository-1" style="stroke:#181818;stroke-width:1;"/><polygon fill="#181818" points="347.56,273.85,354.7128,267.0796,349.4824,269.2343,347.3277,264.0039,347.56,273.85" style="stroke:#181818;stroke-width:1;stroke-linejoin:miter;stroke-miterlimit:10;"/><text fill="#000000" font-family="sans-serif" font-size="13" lengthAdjust="spacing" textLength="106.9453" x="361" y="240.4951">actualizar(entidad)</text></g><!--link ProyectoRepository to Proyecto--><g class="link" data-entity-1="ent0005" data-entity-2="ent0006" data-link-type="association" data-source-line="24" id="lnk18"><path d="M340,312.24 C340,329.59 340,355.52 340,372.84" fill="none" id="ProyectoRepository-Proyecto" style="stroke:#181818;stroke-width:1;"/></g><!--link EditarProyectoView to EstadoSalida--><g class="link" data-entity-1="ent0003" data-entity-2="ent0007" data-link-type="dependency" data-source-line="25" id="lnk19"><path d="M519.95,80.06 C555.23,101.35 609.2386,133.9174 644.5986,155.2474" fill="none" id="EditarProyectoView-to-EstadoSalida" style="stroke:#181818;stroke-width:1;stroke-dasharray:7,7;"/><polygon fill="#181818" points="648.88,157.83,643.2396,149.7562,644.5986,155.2474,639.1074,156.6064,648.88,157.83" style="stroke:#181818;stroke-width:1;stroke-linejoin:miter;stroke-miterlimit:10;"/><text fill="#000000" font-family="sans-serif" font-size="13" lengthAdjust="spacing" textLength="130.7935" x="596" y="124.4951">continuarNavegacion()</text></g><!--link EditarProyectoView to EliminarProyecto--><g class="link" data-entity-1="ent0003" data-entity-2="ent0008" data-link-type="dependency" data-source-line="26" id="lnk20"><path d="M561.19,75.95 C633.53,90.12 735,110 735,110 C735,110 804.8286,136.6373 856.0586,156.1873" fill="none" id="EditarProyectoView-to-EliminarProyecto" style="stroke:#181818;stroke-width:1;stroke-dasharray:7,7;"/><polygon fill="#181818" points="860.73,157.97,853.7476,151.0241,856.0586,156.1873,850.8953,158.4983,860.73,157.97" style="stroke:#181818;stroke-width:1;stroke-linejoin:miter;stroke-miterlimit:10;"/><text fill="#000000" font-family="sans-serif" font-size="13" lengthAdjust="spacing" textLength="105.4727" x="782" y="124.4951">eliminarProyecto()</text></g><!--link EditarProyectoView to AgregarInvestigador--><g class="link" data-entity-1="ent0003" data-entity-2="ent0009" data-link-type="dependency" data-source-line="27" id="lnk21"><path d="M561.18,70.42 C677.62,84.18 896,110 896,110 C896,110 1008.7101,137.2446 1089.5401,156.7946" fill="none" id="EditarProyectoView-to-AgregarInvestigador" style="stroke:#181818;stroke-width:1;stroke-dasharray:7,7;"/><polygon fill="#181818" points="1094.4,157.97,1086.5926,151.9663,1089.5401,156.7946,1084.7119,159.7421,1094.4,157.97" style="stroke:#181818;stroke-width:1;stroke-linejoin:miter;stroke-miterlimit:10;"/><text fill="#000000" font-family="sans-serif" font-size="13" lengthAdjust="spacing" textLength="124.2871" x="970" y="124.4951">agregarInvestigador()</text></g><!--link EditarProyectoView to EliminarInvestigador--><g class="link" data-entity-1="ent0003" data-entity-2="ent0010" data-link-type="dependency" data-source-line="28" id="lnk22"><path d="M561.22,67.58 C722.75,80.23 1103,110 1103,110 C1103,110 1243.6528,137.4614 1343.7328,157.0114" fill="none" id="EditarProyectoView-to-EliminarInvestigador" style="stroke:#181818;stroke-width:1;stroke-dasharray:7,7;"/><polygon fill="#181818" points="1348.64,157.97,1340.5738,152.3187,1343.7328,157.0114,1339.0401,160.1703,1348.64,157.97" style="stroke:#181818;stroke-width:1;stroke-linejoin:miter;stroke-miterlimit:10;"/><text fill="#000000" font-family="sans-serif" font-size="13" lengthAdjust="spacing" textLength="124.9917" x="1194" y="124.4951">eliminarInvestigador()</text></g><!--link EditarProyectoView to AbrirEntregables--><g class="link" data-entity-1="ent0003" data-entity-2="ent0011" data-link-type="dependency" data-source-line="29" id="lnk23"><path d="M561,66.07 C763.1,77.66 1327,110 1327,110 C1327,110 1483.5758,137.5529 1594.6058,157.1029" fill="none" id="EditarProyectoView-to-AbrirEntregables" style="stroke:#181818;stroke-width:1;stroke-dasharray:7,7;"/><polygon fill="#181818" points="1599.53,157.97,1591.36,152.4699,1594.6058,157.1029,1589.9727,160.3487,1599.53,157.97" style="stroke:#181818;stroke-width:1;stroke-linejoin:miter;stroke-miterlimit:10;"/><text fill="#000000" font-family="sans-serif" font-size="13" lengthAdjust="spacing" textLength="104.0444" x="1428" y="124.4951">abrirEntregables()</text></g><!--link EditarProyectoView to AbrirInvestigadores--><g class="link" data-entity-1="ent0003" data-entity-2="ent0012" data-link-type="dependency" data-source-line="30" id="lnk24"><path d="M561,65.24 C797.1,76.03 1541,110 1541,110 C1541,110 1716.5109,137.6417 1840.5709,157.1917" fill="none" id="EditarProyectoView-to-AbrirInvestigadores" style="stroke:#181818;stroke-width:1;stroke-dasharray:7,7;"/><polygon fill="#181818" points="1845.51,157.97,1837.2424,152.6178,1840.5709,157.1917,1835.9971,160.5203,1845.51,157.97" style="stroke:#181818;stroke-width:1;stroke-linejoin:miter;stroke-miterlimit:10;"/><text fill="#000000" font-family="sans-serif" font-size="13" lengthAdjust="spacing" textLength="119.2153" x="1654" y="124.4951">abrirInvestigadores()</text></g><?plantuml-src bLDDJy905BptLxpW1HBnO9G81nEeQy95218JJ-QrtJGRocxpkcAgyR_x-D2osoBGMwSpy-RjJek5qZaIBY5JMjeobv2Rh5o_1079sA9ECmaNuOCO3M-XDPZE9gyYd4_UXgEncCqdBS02H64nCK9RmWI37EC5fX9aeYpIb4p9FcRDQxbGkzE2hm3usPlKk-wBnpu8X_cYv8TFZ6wZf7S7lvJGy7YJPP9yukFrCBmHVyIPp4sXhA7o237uFli8dZ5JV09Dgf2pOMG8hJ8QHAQMIbSBRZqyy0IVOKeoHHhhbIoiIZa2RQmQy3DIrUoQFfoIBY95wrfmbYYJnJQQ1vxgipzxtyh5Wy0f8tIfUzzGfW7uLMHXZGNTXDNrXjNKAhc41AqfEeqk1qnMcxPGYCj8cQAzCwWp7OEglWCmaPLQqjJGEE4CPsanjkyy_nEfBRNb77loYiVowdzeMEtgwjwf_W1Y7gtqEz8JhlY6Oxw_TkUWr6iy7wo77DOsL9otgeF7fxiMiW7z9uNNPexW8KUqRdrtSXTaXny0?></g></svg>