<svg xmlns="http://www.w3.org/2000/svg" xmlns:xlink="http://www.w3.org/1999/xlink" contentStyleType="text/css" data-diagram-type="DESCRIPTION" height="579px" preserveAspectRatio="none" style="width:2089px;height:579px;background:#FFFFFF;" version="1.1" viewBox="0 0 2089 579" width="2089px" zoomAndPan="magnify"><?plantuml 1.2026.6?><defs/><g><!--cluster editarRecompensa--><g class="cluster" data-qualified-name="editarRecompensa" data-source-line="4" id="ent0002"><path d="M217,6 L352.5928,6 A3.75,3.75 0 0 1 355.0928,8.5 L362.0928,29.6094 L1091,29.6094 A2.5,2.5 0 0 1 1093.5,32.1094 L1093.5,561.5 A2.5,2.5 0 0 1 1091,564 L217,564 A2.5,2.5 0 0 1 214.5,561.5 L214.5,8.5 A2.5,2.5 0 0 1 217,6" fill="none" style="stroke:#000000;stroke-width:1.5;"/><line style="stroke:#000000;stroke-width:1.5;" x1="214.5" x2="362.0928" y1="29.6094" y2="29.6094"/><text fill="#000000" font-family="sans-serif" font-size="14" font-weight="700" lengthAdjust="spacing" textLength="134.5928" x="218.5" y="22.5332">editarRecompensa()</text></g><!--entity EditarRecompensaView--><g class="entity" data-qualified-name="editarRecompensa.EditarRecompensaView" data-source-line="5" id="ent0003"><rect fill="#629EF9" height="37.6094" rx="2.5" ry="2.5" style="stroke:#181818;stroke-width:0.5;" width="169.4063" x="884" y="42"/><text fill="#000000" font-family="sans-serif" font-size="14" lengthAdjust="spacing" textLength="149.4063" x="894" y="66.5332">EditarRecompensaView</text></g><!--entity RecompensaController--><g class="entity" data-qualified-name="editarRecompensa.RecompensaController" data-source-line="6" id="ent0004"><rect fill="#B5BD68" height="37.6094" rx="2.5" ry="2.5" style="stroke:#181818;stroke-width:0.5;" width="163.1787" x="720" y="168.5"/><text fill="#000000" font-family="sans-serif" font-size="14" lengthAdjust="spacing" textLength="143.1787" x="730" y="193.0332">RecompensaController</text></g><!--entity RecompensaService--><g class="entity" data-qualified-name="editarRecompensa.RecompensaService" data-source-line="7" id="ent0005"><rect fill="#B5BD68" height="37.6094" rx="2.5" ry="2.5" style="stroke:#181818;stroke-width:0.5;" width="149.1719" x="474" y="295"/><text fill="#000000" font-family="sans-serif" font-size="14" lengthAdjust="spacing" textLength="129.1719" x="484" y="319.5332">RecompensaService</text></g><!--entity SesionService--><g class="entity" data-qualified-name="editarRecompensa.SesionService" data-source-line="8" id="ent0006"><rect fill="#B5BD68" height="37.6094" rx="2.5" ry="2.5" style="stroke:#181818;stroke-width:0.5;" width="109.4893" x="865" y="295"/><text fill="#000000" font-family="sans-serif" font-size="14" lengthAdjust="spacing" textLength="89.4893" x="875" y="319.5332">SesionService</text></g><!--entity RecompensaRepository--><g class="entity" data-qualified-name="editarRecompensa.RecompensaRepository" data-source-line="9" id="ent0007"><rect fill="#F2AC4E" height="37.6094" rx="2.5" ry="2.5" style="stroke:#181818;stroke-width:0.5;" width="169.4063" x="252" y="411"/><text fill="#000000" font-family="sans-serif" font-size="14" lengthAdjust="spacing" textLength="149.4063" x="262" y="435.5332">RecompensaRepository</text></g><!--entity ProyectoRepository--><g class="entity" data-qualified-name="editarRecompensa.ProyectoRepository" data-source-line="10" id="ent0008"><rect fill="#F2AC4E" height="37.6094" rx="2.5" ry="2.5" style="stroke:#181818;stroke-width:0.5;" width="142.165" x="477.5" y="411"/><text fill="#000000" font-family="sans-serif" font-size="14" lengthAdjust="spacing" textLength="122.165" x="487.5" y="435.5332">ProyectoRepository</text></g><!--entity InvestigadorRepository--><g class="entity" data-qualified-name="editarRecompensa.InvestigadorRepository" data-source-line="11" id="ent0009"><rect fill="#F2AC4E" height="37.6094" rx="2.5" ry="2.5" style="stroke:#181818;stroke-width:0.5;" width="163.1855" x="756" y="411"/><text fill="#000000" font-family="sans-serif" font-size="14" lengthAdjust="spacing" textLength="143.1855" x="766" y="435.5332">InvestigadorRepository</text></g><!--entity Recompensa--><g class="entity" data-qualified-name="editarRecompensa.Recompensa" data-source-line="12" id="ent0010"><rect fill="#F2AC4E" height="37.6094" rx="2.5" ry="2.5" style="stroke:#181818;stroke-width:0.5;" width="102.4893" x="285.5" y="510"/><text fill="#000000" font-family="sans-serif" font-size="14" lengthAdjust="spacing" textLength="82.4893" x="295.5" y="534.5332">Recompensa</text></g><!--entity Proyecto--><g class="entity" data-qualified-name="editarRecompensa.Proyecto" data-source-line="13" id="ent0011"><rect fill="#F2AC4E" height="37.6094" rx="2.5" ry="2.5" style="stroke:#181818;stroke-width:0.5;" width="75.248" x="511" y="510"/><text fill="#000000" font-family="sans-serif" font-size="14" lengthAdjust="spacing" textLength="55.248" x="521" y="534.5332">Proyecto</text></g><!--entity Investigador--><g class="entity" data-qualified-name="editarRecompensa.Investigador" data-source-line="14" id="ent0012"><rect fill="#F2AC4E" height="37.6094" rx="2.5" ry="2.5" style="stroke:#181818;stroke-width:0.5;" width="96.2686" x="789.5" y="510"/><text fill="#000000" font-family="sans-serif" font-size="14" lengthAdjust="spacing" textLength="76.2686" x="799.5" y="534.5332">Investigador</text></g><!--entity EstadoEntrada--><g class="entity" data-qualified-name="EstadoEntrada" data-source-line="3" id="ent0001"><rect fill="#CDEBA5" height="37.6094" rx="2.5" ry="2.5" style="stroke:#181818;stroke-width:0.5;" width="191.1514" x="7" y="42"/><text fill="#000000" font-family="sans-serif" font-size="14" lengthAdjust="spacing" textLength="171.1514" x="17" y="66.5332">:RECOMPENSA_ABIERTA</text></g><!--entity EstadoSalida--><g class="entity" data-qualified-name="EstadoSalida" data-source-line="17" id="ent0013"><rect fill="#CDEBA5" height="37.6094" rx="2.5" ry="2.5" style="stroke:#181818;stroke-width:0.5;" width="191.1514" x="1110" y="168.5"/><text fill="#000000" font-family="sans-serif" font-size="14" lengthAdjust="spacing" textLength="171.1514" x="1120" y="193.0332">:RECOMPENSA_ABIERTA</text></g><!--entity EliminarRecompensa--><g class="entity" data-qualified-name="EliminarRecompensa" data-source-line="18" id="ent0014"><rect fill="#CDEBA5" height="37.6094" rx="2.5" ry="2.5" style="stroke:#181818;stroke-width:0.5;" width="243.3301" x="1336" y="168.5"/><text fill="#000000" font-family="sans-serif" font-size="14" lengthAdjust="spacing" textLength="223.3301" x="1346" y="193.0332">:Collaboration EliminarRecompensa</text></g><!--entity AbrirRecompensas--><g class="entity" data-qualified-name="AbrirRecompensas" data-source-line="19" id="ent0015"><rect fill="#CDEBA5" height="37.6094" rx="2.5" ry="2.5" style="stroke:#181818;stroke-width:0.5;" width="229.3232" x="1614" y="168.5"/><text fill="#000000" font-family="sans-serif" font-size="14" lengthAdjust="spacing" textLength="209.3232" x="1624" y="193.0332">:Collaboration AbrirRecompensas</text></g><g class="entity" data-qualified-name="GMN30" data-source-line="37" id="ent0031"><path d="M1878,158 L1878,217.0547 L2074.627,217.0547 L2074.627,168 L2064.627,158 L1878,158" fill="#FEFFDD" style="stroke:#181818;stroke-width:0.5;"/><path d="M2064.627,158 L2064.627,168 L2074.627,168 L2064.627,158" fill="#FEFFDD" style="stroke:#181818;stroke-width:1;"/><text fill="#000000" font-family="sans-serif" font-size="13" lengthAdjust="spacing" textLength="170.5552" x="1884" y="176.4951">Editar no puede convertir una</text><text fill="#000000" font-family="sans-serif" font-size="13" lengthAdjust="spacing" textLength="175.627" x="1884" y="192.8467">recompensa de no docente en</text><text fill="#000000" font-family="sans-serif" font-size="13" lengthAdjust="spacing" textLength="109.8525" x="1884" y="209.1982">reduccion docente.</text></g><!--link EstadoEntrada to EditarRecompensaView--><g class="link" data-entity-1="ent0001" data-entity-2="ent0003" data-link-type="dependency" data-source-line="21" id="lnk16"><path d="M198.07,61 C368.41,61 716.81,61 878.91,61" fill="none" id="EstadoEntrada-to-EditarRecompensaView" style="stroke:#181818;stroke-width:1;"/><polygon fill="#181818" points="883.91,61,874.91,57,878.91,61,874.91,65,883.91,61" style="stroke:#181818;stroke-width:1;stroke-linejoin:miter;stroke-miterlimit:10;"/><text fill="#000000" font-family="sans-serif" font-size="13" lengthAdjust="spacing" textLength="117.7744" x="482.5" y="54.4951">editarRecompensa()</text></g><!--link EditarRecompensaView to RecompensaController--><g class="link" data-entity-1="ent0003" data-entity-2="ent0004" data-link-type="dependency" data-source-line="23" id="lnk17"><path d="M883.69,79.4 C816.72,93.13 734.5,110 734.5,110 C734.5,110 734.5,128 734.5,128 C734.5,128 757.2332,147.852 776.9032,165.022" fill="none" id="EditarRecompensaView-to-RecompensaController" style="stroke:#181818;stroke-width:1;"/><polygon fill="#181818" points="780.67,168.31,776.5202,159.3781,776.9032,165.022,771.2593,165.405,780.67,168.31" style="stroke:#181818;stroke-width:1;stroke-linejoin:miter;stroke-miterlimit:10;"/><text fill="#000000" font-family="sans-serif" font-size="13" lengthAdjust="spacing" textLength="166.918" x="735.5" y="124.4951">editarRecompensa(id, datos)</text></g><!--link EditarRecompensaView to RecompensaController--><g class="link" data-entity-1="ent0003" data-entity-2="ent0004" data-link-type="dependency" data-source-line="27" id="lnk21"><path d="M951.56,80.03 C933.2,99.58 906.5,128 906.5,128 C906.5,128 869.0777,148.8463 838.2277,166.0363" fill="none" id="EditarRecompensaView-to-RecompensaController-1" style="stroke:#181818;stroke-width:1;"/><polygon fill="#181818" points="833.86,168.47,843.6689,167.5834,838.2277,166.0363,839.7749,160.5951,833.86,168.47" style="stroke:#181818;stroke-width:1;stroke-linejoin:miter;stroke-miterlimit:10;"/><text fill="#000000" font-family="sans-serif" font-size="13" lengthAdjust="spacing" textLength="130.0508" x="923.5" y="124.4951">validarCambios(datos)</text></g><!--link RecompensaController to RecompensaService--><g class="link" data-entity-1="ent0004" data-entity-2="ent0005" data-link-type="dependency" data-source-line="24" id="lnk18"><path d="M723.53,206.53 C649.19,223.72 548.5,247 548.5,247 C548.5,247 548.5,270.42 548.5,289.97" fill="none" id="RecompensaController-to-RecompensaService" style="stroke:#181818;stroke-width:1;"/><polygon fill="#181818" points="548.5,294.97,552.5,285.97,548.5,289.97,544.5,285.97,548.5,294.97" style="stroke:#181818;stroke-width:1;stroke-linejoin:miter;stroke-miterlimit:10;"/><text fill="#000000" font-family="sans-serif" font-size="13" lengthAdjust="spacing" textLength="110.5508" x="549.5" y="261.4951">prepararEdicion(id)</text></g><!--link RecompensaController to RecompensaService--><g class="link" data-entity-1="ent0004" data-entity-2="ent0005" data-link-type="dependency" data-source-line="25" id="lnk19"><path d="M769.03,206.63 C728.52,229.25 664.5,265 664.5,265 C664.5,265 629.5602,279.4585 596.6402,293.0785" fill="none" id="RecompensaController-to-RecompensaService-1" style="stroke:#181818;stroke-width:1;"/><polygon fill="#181818" points="592.02,294.99,601.8655,295.2454,596.6402,293.0785,598.8071,287.8531,592.02,294.99" style="stroke:#181818;stroke-width:1;stroke-linejoin:miter;stroke-miterlimit:10;"/><text fill="#000000" font-family="sans-serif" font-size="13" lengthAdjust="spacing" textLength="113.439" x="694.5" y="261.4951">actualizar(id, datos)</text></g><!--link RecompensaController to SesionService--><g class="link" data-entity-1="ent0004" data-entity-2="ent0006" data-link-type="dependency" data-source-line="26" id="lnk20"><path d="M818.66,206.6 C841.03,230.21 876.5003,267.6312 898.8803,291.2412" fill="none" id="RecompensaController-to-SesionService" style="stroke:#181818;stroke-width:1;"/><polygon fill="#181818" points="902.32,294.87,899.0315,285.5864,898.8803,291.2412,893.2254,291.09,902.32,294.87" style="stroke:#181818;stroke-width:1;stroke-linejoin:miter;stroke-miterlimit:10;"/><text fill="#000000" font-family="sans-serif" font-size="13" lengthAdjust="spacing" textLength="209.5806" x="871.5" y="261.4951">obtenerSesionActual(authentication)</text></g><!--link RecompensaService to RecompensaRepository--><g class="link" data-entity-1="ent0005" data-entity-2="ent0007" data-link-type="dependency" data-source-line="28" id="lnk22"><path d="M473.73,327.55 C388.99,341.77 262.5,363 262.5,363 C262.5,363 262.5,381 262.5,381 C262.5,381 283.3753,394.5389 304.3253,408.1289" fill="none" id="RecompensaService-to-RecompensaRepository" style="stroke:#181818;stroke-width:1;"/><polygon fill="#181818" points="308.52,410.85,303.1463,402.5963,304.3253,408.1289,298.7926,409.3079,308.52,410.85" style="stroke:#181818;stroke-width:1;stroke-linejoin:miter;stroke-miterlimit:10;"/><text fill="#000000" font-family="sans-serif" font-size="13" lengthAdjust="spacing" textLength="93.939" x="263.5" y="377.4951">obtenerPorId(id)</text></g><!--link RecompensaService to RecompensaRepository--><g class="link" data-entity-1="ent0005" data-entity-2="ent0007" data-link-type="dependency" data-source-line="32" id="lnk26"><path d="M503.85,333.01 C470.08,346.63 429.5,363 429.5,363 C429.5,363 393.5272,388.5257 365.9872,408.0757" fill="none" id="RecompensaService-to-RecompensaRepository-1" style="stroke:#181818;stroke-width:1;"/><polygon fill="#181818" points="361.91,410.97,371.5643,409.022,365.9872,408.0757,366.9335,402.4986,361.91,410.97" style="stroke:#181818;stroke-width:1;stroke-linejoin:miter;stroke-miterlimit:10;"/><text fill="#000000" font-family="sans-serif" font-size="13" lengthAdjust="spacing" textLength="106.9453" x="430.5" y="377.4951">actualizar(entidad)</text></g><!--link RecompensaService to ProyectoRepository--><g class="link" data-entity-1="ent0005" data-entity-2="ent0008" data-link-type="dependency" data-source-line="29" id="lnk23"><path d="M547.37,333.15 C546.52,346.74 545.5,363 545.5,363 C545.5,363 545.5,381 545.5,381 C545.5,381 546.2079,392.2698 547.0579,405.8598" fill="none" id="RecompensaService-to-ProyectoRepository" style="stroke:#181818;stroke-width:1;"/><polygon fill="#181818" points="547.37,410.85,550.8004,401.6179,547.0579,405.8598,542.816,402.1172,547.37,410.85" style="stroke:#181818;stroke-width:1;stroke-linejoin:miter;stroke-miterlimit:10;"/><text fill="#000000" font-family="sans-serif" font-size="13" lengthAdjust="spacing" textLength="247.1016" x="546.5" y="377.4951">verificarProyectoCompletado(recompensa)</text></g><!--link RecompensaService to InvestigadorRepository--><g class="link" data-entity-1="ent0005" data-entity-2="ent0009" data-link-type="dependency" data-source-line="30" id="lnk24"><path d="M623.17,329.34 C696.84,343.48 798.5,363 798.5,363 C798.5,363 812.7584,387.1142 824.2984,406.6642" fill="none" id="RecompensaService-to-InvestigadorRepository" style="stroke:#181818;stroke-width:1;"/><polygon fill="#181818" points="826.84,410.97,825.7097,401.1862,824.2984,406.6642,818.8204,405.2528,826.84,410.97" style="stroke:#181818;stroke-width:1;stroke-linejoin:miter;stroke-miterlimit:10;"/><text fill="#000000" font-family="sans-serif" font-size="13" lengthAdjust="spacing" textLength="238.4434" x="809.5" y="377.4951">verificarBeneficiario(datos.investigadorId)</text></g><!--link RecompensaService to RecompensaService--><g class="link" data-entity-1="ent0005" data-entity-2="ent0005" data-link-type="dependency" data-source-line="31" id="lnk25"><path d="M623.22,303.22 C643.01,303.84 658,307.43 658,314 C658,320.57 648.0075,324.0034 628.2175,324.6234" fill="none" id="RecompensaService-to-RecompensaService" style="stroke:#181818;stroke-width:1;"/><polygon fill="#181818" points="623.22,324.78,632.3408,328.4962,628.2175,324.6234,632.0903,320.5001,623.22,324.78" style="stroke:#181818;stroke-width:1;stroke-linejoin:miter;stroke-miterlimit:10;"/><text fill="#000000" font-family="sans-serif" font-size="13" lengthAdjust="spacing" textLength="177.7598" x="664" y="319.4951">validarTipoSegunBeneficiario()</text></g><!--link RecompensaRepository to Recompensa--><g class="link" data-entity-1="ent0007" data-entity-2="ent0010" data-link-type="association" data-source-line="33" id="lnk27"><path d="M336.5,449.24 C336.5,466.59 336.5,492.52 336.5,509.84" fill="none" id="RecompensaRepository-Recompensa" style="stroke:#181818;stroke-width:1;"/></g><!--link ProyectoRepository to Proyecto--><g class="link" data-entity-1="ent0008" data-entity-2="ent0011" data-link-type="association" data-source-line="34" id="lnk28"><path d="M548.5,449.24 C548.5,466.59 548.5,492.52 548.5,509.84" fill="none" id="ProyectoRepository-Proyecto" style="stroke:#181818;stroke-width:1;"/></g><!--link InvestigadorRepository to Investigador--><g class="link" data-entity-1="ent0009" data-entity-2="ent0012" data-link-type="association" data-source-line="35" id="lnk29"><path d="M837.5,449.24 C837.5,466.59 837.5,492.52 837.5,509.84" fill="none" id="InvestigadorRepository-Investigador" style="stroke:#181818;stroke-width:1;"/></g><!--link RecompensaController to GMN30--><g class="link" data-entity-1="ent0004" data-entity-2="ent0031" data-link-type="association" data-source-line="37" id="lnk32"><path d="M883.36,169.32 C974.76,149.03 1110,119 1110,119 C1110,119 1843,119 1843,119 C1843,119 1882.64,139.34 1918.72,157.85" fill="none" id="RecompensaController-GMN30" style="stroke:#181818;stroke-width:1;stroke-dasharray:7,7;"/></g><!--link EditarRecompensaView to EstadoSalida--><g class="link" data-entity-1="ent0003" data-entity-2="ent0013" data-link-type="dependency" data-source-line="41" id="lnk33"><path d="M1003.77,80.01 C1030.44,93.63 1062.5,110 1062.5,110 C1062.5,110 1124.9111,143.3918 1167.2011,166.0118" fill="none" id="EditarRecompensaView-to-EstadoSalida" style="stroke:#181818;stroke-width:1;stroke-dasharray:7,7;"/><polygon fill="#181818" points="1171.61,168.37,1165.5605,160.598,1167.2011,166.0118,1161.7873,167.6523,1171.61,168.37" style="stroke:#181818;stroke-width:1;stroke-linejoin:miter;stroke-miterlimit:10;"/><text fill="#000000" font-family="sans-serif" font-size="13" lengthAdjust="spacing" textLength="130.7935" x="1093.5" y="124.4951">continuarNavegacion()</text></g><!--link EditarRecompensaView to EliminarRecompensa--><g class="link" data-entity-1="ent0003" data-entity-2="ent0014" data-link-type="dependency" data-source-line="42" id="lnk34"><path d="M1053.12,77.39 C1130.34,91.43 1232.5,110 1232.5,110 C1232.5,110 1333.2062,144.2403 1399.7262,166.8603" fill="none" id="EditarRecompensaView-to-EliminarRecompensa" style="stroke:#181818;stroke-width:1;stroke-dasharray:7,7;"/><polygon fill="#181818" points="1404.46,168.47,1397.2269,161.7855,1399.7262,166.8603,1394.6514,169.3595,1404.46,168.47" style="stroke:#181818;stroke-width:1;stroke-linejoin:miter;stroke-miterlimit:10;"/><text fill="#000000" font-family="sans-serif" font-size="13" lengthAdjust="spacing" textLength="130.7681" x="1281.5" y="124.4951">eliminarRecompensa()</text></g><!--link EditarRecompensaView to AbrirRecompensas--><g class="link" data-entity-1="ent0003" data-entity-2="ent0015" data-link-type="dependency" data-source-line="43" id="lnk35"><path d="M1053.25,71 C1184.13,84.9 1420.5,110 1420.5,110 C1420.5,110 1559.9875,144.6446 1651.0475,167.2646" fill="none" id="EditarRecompensaView-to-AbrirRecompensas" style="stroke:#181818;stroke-width:1;stroke-dasharray:7,7;"/><polygon fill="#181818" points="1655.9,168.47,1648.1298,162.4183,1651.0475,167.2646,1646.2011,170.1823,1655.9,168.47" style="stroke:#181818;stroke-width:1;stroke-linejoin:miter;stroke-miterlimit:10;"/><text fill="#000000" font-family="sans-serif" font-size="13" lengthAdjust="spacing" textLength="117.7617" x="1487.5" y="124.4951">abrirRecompensas()</text></g><?plantuml-src dLNBRjj03BphAmZtOWEr3q4JD3u4a5K5yA5fO0Uv5fIMKHQHTmLgvS8j-k-b_DGpTggJn1qEkUIGoj-qoP1n1Qasv3OPGMRJJVdXUKonGvEa19-2R-7CluR1T146Fxu_XWzB_wS_cuUB9ty0c4EOErGsD8vHePTX_8O90Idja1SKsrL69iSIEMWQXwC1_F50dagycwlRyFuMmWRsMTEl9ZIwZjJDLpY10Yjfs3GbFWjT4gzrJ3su9UNQcXxC_PKVV0ahN0lARAwTvKqFz97jHepsB71krfGxdKX5-IpubC2Pi1S4y_x-HzENc6hfUPTV85t0o38wgIE4gLvfKstdZgLble3BZrXNFF8jKzFeUJLPmfZ7TvsIca9RbEBSWOIn4eukhNLmQFKP53gRZxmk3nZNgFOwcqB6L8uaI_nOxYeq7_F7s1NIaz_85sLGK_aKREJ84E-i_fPgY8Lx9UDql2t-gASolOLPRnN20QuYRVDXAw5zx0R3IVd7f1ujprMZ7bNdzeH9S6Bz8fdpuJ0GnvHANGpvoDB7s3sA5TQPv2Kl6bdRtSqckk8pL-SlUYpzlavFEhDBIWfJu_vOmIeQA1kdi9R72IaKrGtIBc09E6wGxcgKaDeMCTOHi4vU7TYNxiMyKn0O2rb1YY2sGi1ECnHcE_-7FuQS2KZPMAuXFnGZPwg8oxau62SU6GLbp6vTJYPtjKqrBOCvRGha1rnJWjiX6xtZt5fGCkijstiCpSKa_MbOnFiV?></g></svg>