<svg xmlns="http://www.w3.org/2000/svg" xmlns:xlink="http://www.w3.org/1999/xlink" contentStyleType="text/css" data-diagram-type="DESCRIPTION" height="442px" preserveAspectRatio="none" style="width:1385px;height:442px;background:#FFFFFF;" version="1.1" viewBox="0 0 1385 442" width="1385px" zoomAndPan="magnify"><?plantuml 1.2026.4?><defs/><g><!--cluster editarRecompensa--><g class="cluster" data-qualified-name="editarRecompensa" data-source-line="4" id="ent0002"><path d="M217,6 L352.5928,6 A3.75,3.75 0 0 1 355.0928,8.5 L362.0928,29.6094 L619,29.6094 A2.5,2.5 0 0 1 621.5,32.1094 L621.5,424.5 A2.5,2.5 0 0 1 619,427 L217,427 A2.5,2.5 0 0 1 214.5,424.5 L214.5,8.5 A2.5,2.5 0 0 1 217,6" fill="none" style="stroke:#000000;stroke-width:1.5;"/><line style="stroke:#000000;stroke-width:1.5;" x1="214.5" x2="362.0928" y1="29.6094" y2="29.6094"/><text fill="#000000" font-family="sans-serif" font-size="14" font-weight="700" lengthAdjust="spacing" textLength="134.5928" x="218.5" y="22.5332">editarRecompensa()</text></g><!--entity EditarRecompensaView--><g class="entity" data-qualified-name="editarRecompensa.EditarRecompensaView" data-source-line="5" id="ent0003"><rect fill="#629EF9" height="37.6094" rx="2.5" ry="2.5" style="stroke:#181818;stroke-width:0.5;" width="169.4063" x="412" y="42"/><text fill="#000000" font-family="sans-serif" font-size="14" lengthAdjust="spacing" textLength="149.4063" x="422" y="66.5332">EditarRecompensaView</text></g><!--entity RecompensaController--><g class="entity" data-qualified-name="editarRecompensa.RecompensaController" data-source-line="6" id="ent0004"><rect fill="#B5BD68" height="37.6094" rx="2.5" ry="2.5" style="stroke:#181818;stroke-width:0.5;" width="163.1787" x="275" y="158"/><text fill="#000000" font-family="sans-serif" font-size="14" lengthAdjust="spacing" textLength="143.1787" x="285" y="182.5332">RecompensaController</text></g><!--entity RecompensaRepository--><g class="entity" data-qualified-name="editarRecompensa.RecompensaRepository" data-source-line="7" id="ent0005"><rect fill="#F2AC4E" height="37.6094" rx="2.5" ry="2.5" style="stroke:#181818;stroke-width:0.5;" width="169.4063" x="286" y="274"/><text fill="#000000" font-family="sans-serif" font-size="14" lengthAdjust="spacing" textLength="149.4063" x="296" y="298.5332">RecompensaRepository</text></g><!--entity Recompensa--><g class="entity" data-qualified-name="editarRecompensa.Recompensa" data-source-line="8" id="ent0006"><rect fill="#F2AC4E" height="37.6094" rx="2.5" ry="2.5" style="stroke:#181818;stroke-width:0.5;" width="102.4893" x="319.5" y="373"/><text fill="#000000" font-family="sans-serif" font-size="14" lengthAdjust="spacing" textLength="82.4893" x="329.5" y="397.5332">Recompensa</text></g><!--entity EstadoEntrada--><g class="entity" data-qualified-name="EstadoEntrada" data-source-line="3" id="ent0001"><rect fill="#CDEBA5" height="37.6094" rx="2.5" ry="2.5" style="stroke:#181818;stroke-width:0.5;" width="191.1514" x="7" y="42"/><text fill="#000000" font-family="sans-serif" font-size="14" lengthAdjust="spacing" textLength="171.1514" x="17" y="66.5332">:RECOMPENSA_ABIERTA</text></g><!--entity EstadoSalida--><g class="entity" data-qualified-name="EstadoSalida" data-source-line="11" id="ent0007"><rect fill="#CDEBA5" height="37.6094" rx="2.5" ry="2.5" style="stroke:#181818;stroke-width:0.5;" width="191.1514" x="638" y="158"/><text fill="#000000" font-family="sans-serif" font-size="14" lengthAdjust="spacing" textLength="171.1514" x="648" y="182.5332">:RECOMPENSA_ABIERTA</text></g><!--entity EliminarRecompensa--><g class="entity" data-qualified-name="EliminarRecompensa" data-source-line="12" id="ent0008"><rect fill="#CDEBA5" height="37.6094" rx="2.5" ry="2.5" style="stroke:#181818;stroke-width:0.5;" width="243.3301" x="864" y="158"/><text fill="#000000" font-family="sans-serif" font-size="14" lengthAdjust="spacing" textLength="223.3301" x="874" y="182.5332">:Collaboration EliminarRecompensa</text></g><!--entity AbrirRecompensas--><g class="entity" data-qualified-name="AbrirRecompensas" data-source-line="13" id="ent0009"><rect fill="#CDEBA5" height="37.6094" rx="2.5" ry="2.5" style="stroke:#181818;stroke-width:0.5;" width="229.3232" x="1142" y="158"/><text fill="#000000" font-family="sans-serif" font-size="14" lengthAdjust="spacing" textLength="209.3232" x="1152" y="182.5332">:Collaboration AbrirRecompensas</text></g><!--link EstadoEntrada to EditarRecompensaView--><g class="link" data-entity-1="ent0001" data-entity-2="ent0003" data-link-type="dependency" data-source-line="15" id="lnk10"><path d="M198.13,61 C263.38,61 344.03,61 406.82,61" fill="none" id="EstadoEntrada-to-EditarRecompensaView" style="stroke:#181818;stroke-width:1;"/><polygon fill="#181818" points="411.82,61,402.82,57,406.82,61,402.82,65,411.82,61" style="stroke:#181818;stroke-width:1;stroke-linejoin:miter;stroke-miterlimit:10;"/><text fill="#000000" font-family="sans-serif" font-size="13" lengthAdjust="spacing" textLength="117.7744" x="246.5" y="54.4951">editarRecompensa()</text></g><!--link EditarRecompensaView to RecompensaController--><g class="link" data-entity-1="ent0003" data-entity-2="ent0004" data-link-type="dependency" data-source-line="17" id="lnk11"><path d="M411.69,79.4 C344.72,93.13 262.5,110 262.5,110 C262.5,110 262.5,128 262.5,128 C262.5,128 290.1071,142.0959 316.7771,155.7159" fill="none" id="EditarRecompensaView-to-RecompensaController" style="stroke:#181818;stroke-width:1;"/><polygon fill="#181818" points="321.23,157.99,315.034,150.3343,316.7771,155.7159,311.3955,157.4591,321.23,157.99" style="stroke:#181818;stroke-width:1;stroke-linejoin:miter;stroke-miterlimit:10;"/><text fill="#000000" font-family="sans-serif" font-size="13" lengthAdjust="spacing" textLength="166.918" x="263.5" y="124.4951">editarRecompensa(id, datos)</text></g><!--link EditarRecompensaView to RecompensaController--><g class="link" data-entity-1="ent0003" data-entity-2="ent0004" data-link-type="dependency" data-source-line="18" id="lnk12"><path d="M479.56,80.03 C461.2,99.58 434.5,128 434.5,128 C434.5,128 412.3386,141.6401 390.2486,155.2301" fill="none" id="EditarRecompensaView-to-RecompensaController-1" style="stroke:#181818;stroke-width:1;"/><polygon fill="#181818" points="385.99,157.85,395.7515,156.541,390.2486,155.2301,391.5596,149.7272,385.99,157.85" style="stroke:#181818;stroke-width:1;stroke-linejoin:miter;stroke-miterlimit:10;"/><text fill="#000000" font-family="sans-serif" font-size="13" lengthAdjust="spacing" textLength="130.0508" x="451.5" y="124.4951">validarCambios(datos)</text></g><!--link RecompensaController to RecompensaRepository--><g class="link" data-entity-1="ent0004" data-entity-2="ent0005" data-link-type="dependency" data-source-line="19" id="lnk13"><path d="M330.41,196.15 C310.87,209.74 287.5,226 287.5,226 C287.5,226 287.5,244 287.5,244 C287.5,244 311.2917,257.7569 334.7917,271.3469" fill="none" id="RecompensaController-to-RecompensaRepository" style="stroke:#181818;stroke-width:1;"/><polygon fill="#181818" points="339.12,273.85,333.3314,265.8818,334.7917,271.3469,329.3265,272.8071,339.12,273.85" style="stroke:#181818;stroke-width:1;stroke-linejoin:miter;stroke-miterlimit:10;"/><text fill="#000000" font-family="sans-serif" font-size="13" lengthAdjust="spacing" textLength="93.939" x="288.5" y="240.4951">obtenerPorId(id)</text></g><!--link RecompensaController to RecompensaRepository--><g class="link" data-entity-1="ent0004" data-entity-2="ent0005" data-link-type="dependency" data-source-line="20" id="lnk14"><path d="M367.84,196.15 C376.34,209.74 386.5,226 386.5,226 C386.5,226 386.5,244 386.5,244 C386.5,244 382.6611,255.5166 378.1311,269.1066" fill="none" id="RecompensaController-to-RecompensaRepository-1" style="stroke:#181818;stroke-width:1;"/><polygon fill="#181818" points="376.55,273.85,383.1908,266.5768,378.1311,269.1066,375.6013,264.0469,376.55,273.85" style="stroke:#181818;stroke-width:1;stroke-linejoin:miter;stroke-miterlimit:10;"/><text fill="#000000" font-family="sans-serif" font-size="13" lengthAdjust="spacing" textLength="106.9453" x="387.5" y="240.4951">actualizar(entidad)</text></g><!--link RecompensaRepository to Recompensa--><g class="link" data-entity-1="ent0005" data-entity-2="ent0006" data-link-type="association" data-source-line="21" id="lnk15"><path d="M370.5,312.24 C370.5,329.59 370.5,355.52 370.5,372.84" fill="none" id="RecompensaRepository-Recompensa" style="stroke:#181818;stroke-width:1;"/></g><!--link EditarRecompensaView to EstadoSalida--><g class="link" data-entity-1="ent0003" data-entity-2="ent0007" data-link-type="dependency" data-source-line="22" id="lnk16"><path d="M534.05,80.06 C578.3,101.35 646.8842,134.3325 691.2242,155.6625" fill="none" id="EditarRecompensaView-to-EstadoSalida" style="stroke:#181818;stroke-width:1;stroke-dasharray:7,7;"/><polygon fill="#181818" points="695.73,157.83,689.3537,150.3239,691.2242,155.6625,685.8856,157.5331,695.73,157.83" style="stroke:#181818;stroke-width:1;stroke-linejoin:miter;stroke-miterlimit:10;"/><text fill="#000000" font-family="sans-serif" font-size="13" lengthAdjust="spacing" textLength="130.7935" x="629.5" y="124.4951">continuarNavegacion()</text></g><!--link EditarRecompensaView to EliminarRecompensa--><g class="link" data-entity-1="ent0003" data-entity-2="ent0008" data-link-type="dependency" data-source-line="23" id="lnk17"><path d="M581.07,76.92 C660.92,91.01 768.5,110 768.5,110 C768.5,110 857.1665,136.9645 921.4165,156.5145" fill="none" id="EditarRecompensaView-to-EliminarRecompensa" style="stroke:#181818;stroke-width:1;stroke-dasharray:7,7;"/><polygon fill="#181818" points="926.2,157.97,918.7542,151.5233,921.4165,156.5145,916.4254,159.1768,926.2,157.97" style="stroke:#181818;stroke-width:1;stroke-linejoin:miter;stroke-miterlimit:10;"/><text fill="#000000" font-family="sans-serif" font-size="13" lengthAdjust="spacing" textLength="130.7681" x="827.5" y="124.4951">eliminarRecompensa()</text></g><!--link EditarRecompensaView to AbrirRecompensas--><g class="link" data-entity-1="ent0003" data-entity-2="ent0009" data-link-type="dependency" data-source-line="24" id="lnk18"><path d="M581.07,70.64 C716.39,84.46 966.5,110 966.5,110 C966.5,110 1086.5148,137.3101 1172.3848,156.8601" fill="none" id="EditarRecompensaView-to-AbrirRecompensas" style="stroke:#181818;stroke-width:1;stroke-dasharray:7,7;"/><polygon fill="#181818" points="1177.26,157.97,1169.3725,152.0719,1172.3848,156.8601,1167.5966,159.8723,1177.26,157.97" style="stroke:#181818;stroke-width:1;stroke-linejoin:miter;stroke-miterlimit:10;"/><text fill="#000000" font-family="sans-serif" font-size="13" lengthAdjust="spacing" textLength="117.7617" x="1044.5" y="124.4951">abrirRecompensas()</text></g><?plantuml-src dP9BQy9058Nt-HMNT1EXTY5LQXP2J4TmKIjQkYqtcK46avamCrfiwN_lrHQCasWVsStbd2_dFknQgWeDbb189Tok4b3fOhT_184HkKErAWHSfVTidFGXZ1SiVNoOizaoUKd6KxPuIa902ymwv9efPv1ZK66-nfK0mQL3in2vBYkXBEwLeL-CEY6y1q1VxN-3tf1DXi0yxRCKhxuqwsTyS0T7KQefXYuAONpff9UajwmcNOXAM-cqsVqe3Jx-CP0b5fBcqUPBAI5csg2JMW4hP2bLlTKlIgFy2rQI6Lbps0F9BmR1oSgWQxgZrd77q5mOcLkKqEN4QDj32qFoQ-3ejEsSOPr5RGypDIcMcTGs-eQqQJt8STanwCm99SnScocdB7_sO-usbECDJIIKepmdYAEI4FKRQctrvcPqSYunv1H1gWsQ6Mx52dFQQjIvO6vS2GsyKRj4yA-36lGgvFu4?></g></svg>