<svg xmlns="http://www.w3.org/2000/svg" xmlns:xlink="http://www.w3.org/1999/xlink" contentStyleType="text/css" data-diagram-type="DESCRIPTION" height="463px" preserveAspectRatio="none" style="width:2089px;height:463px;background:#FFFFFF;" version="1.1" viewBox="0 0 2089 463" width="2089px" zoomAndPan="magnify"><?plantuml 1.2026.5?><defs/><g><!--cluster editarRecompensa--><g class="cluster" data-qualified-name="editarRecompensa" data-source-line="4" id="ent0002"><path d="M217,6 L352.5928,6 A3.75,3.75 0 0 1 355.0928,8.5 L362.0928,29.6094 L1091,29.6094 A2.5,2.5 0 0 1 1093.5,32.1094 L1093.5,445.5 A2.5,2.5 0 0 1 1091,448 L217,448 A2.5,2.5 0 0 1 214.5,445.5 L214.5,8.5 A2.5,2.5 0 0 1 217,6" fill="none" style="stroke:#000000;stroke-width:1.5;"/><line style="stroke:#000000;stroke-width:1.5;" x1="214.5" x2="362.0928" y1="29.6094" y2="29.6094"/><text fill="#000000" font-family="sans-serif" font-size="14" font-weight="700" lengthAdjust="spacing" textLength="134.5928" x="218.5" y="22.5332">editarRecompensa()</text></g><!--entity EditarRecompensaView--><g class="entity" data-qualified-name="editarRecompensa.EditarRecompensaView" data-source-line="5" id="ent0003"><rect fill="#629EF9" height="37.6094" rx="2.5" ry="2.5" style="stroke:#181818;stroke-width:0.5;" width="169.4063" x="884" y="42"/><text fill="#000000" font-family="sans-serif" font-size="14" lengthAdjust="spacing" textLength="149.4063" x="894" y="66.5332">EditarRecompensaView</text></g><!--entity RecompensaController--><g class="entity" data-qualified-name="editarRecompensa.RecompensaController" data-source-line="6" id="ent0004"><rect fill="#B5BD68" height="37.6094" rx="2.5" ry="2.5" style="stroke:#181818;stroke-width:0.5;" width="163.1787" x="656" y="168.5"/><text fill="#000000" font-family="sans-serif" font-size="14" lengthAdjust="spacing" textLength="143.1787" x="666" y="193.0332">RecompensaController</text></g><!--entity RecompensaRepository--><g class="entity" data-qualified-name="editarRecompensa.RecompensaRepository" data-source-line="7" id="ent0005"><rect fill="#F2AC4E" height="37.6094" rx="2.5" ry="2.5" style="stroke:#181818;stroke-width:0.5;" width="169.4063" x="252" y="295"/><text fill="#000000" font-family="sans-serif" font-size="14" lengthAdjust="spacing" textLength="149.4063" x="262" y="319.5332">RecompensaRepository</text></g><!--entity ProyectoRepository--><g class="entity" data-qualified-name="editarRecompensa.ProyectoRepository" data-source-line="8" id="ent0006"><rect fill="#F2AC4E" height="37.6094" rx="2.5" ry="2.5" style="stroke:#181818;stroke-width:0.5;" width="142.165" x="477.5" y="295"/><text fill="#000000" font-family="sans-serif" font-size="14" lengthAdjust="spacing" textLength="122.165" x="487.5" y="319.5332">ProyectoRepository</text></g><!--entity InvestigadorRepository--><g class="entity" data-qualified-name="editarRecompensa.InvestigadorRepository" data-source-line="9" id="ent0007"><rect fill="#F2AC4E" height="37.6094" rx="2.5" ry="2.5" style="stroke:#181818;stroke-width:0.5;" width="163.1855" x="756" y="295"/><text fill="#000000" font-family="sans-serif" font-size="14" lengthAdjust="spacing" textLength="143.1855" x="766" y="319.5332">InvestigadorRepository</text></g><!--entity Recompensa--><g class="entity" data-qualified-name="editarRecompensa.Recompensa" data-source-line="10" id="ent0008"><rect fill="#F2AC4E" height="37.6094" rx="2.5" ry="2.5" style="stroke:#181818;stroke-width:0.5;" width="102.4893" x="285.5" y="394"/><text fill="#000000" font-family="sans-serif" font-size="14" lengthAdjust="spacing" textLength="82.4893" x="295.5" y="418.5332">Recompensa</text></g><!--entity Proyecto--><g class="entity" data-qualified-name="editarRecompensa.Proyecto" data-source-line="11" id="ent0009"><rect fill="#F2AC4E" height="37.6094" rx="2.5" ry="2.5" style="stroke:#181818;stroke-width:0.5;" width="75.248" x="511" y="394"/><text fill="#000000" font-family="sans-serif" font-size="14" lengthAdjust="spacing" textLength="55.248" x="521" y="418.5332">Proyecto</text></g><!--entity Investigador--><g class="entity" data-qualified-name="editarRecompensa.Investigador" data-source-line="12" id="ent0010"><rect fill="#F2AC4E" height="37.6094" rx="2.5" ry="2.5" style="stroke:#181818;stroke-width:0.5;" width="96.2686" x="789.5" y="394"/><text fill="#000000" font-family="sans-serif" font-size="14" lengthAdjust="spacing" textLength="76.2686" x="799.5" y="418.5332">Investigador</text></g><!--entity EstadoEntrada--><g class="entity" data-qualified-name="EstadoEntrada" data-source-line="3" id="ent0001"><rect fill="#CDEBA5" height="37.6094" rx="2.5" ry="2.5" style="stroke:#181818;stroke-width:0.5;" width="191.1514" x="7" y="42"/><text fill="#000000" font-family="sans-serif" font-size="14" lengthAdjust="spacing" textLength="171.1514" x="17" y="66.5332">:RECOMPENSA_ABIERTA</text></g><!--entity EstadoSalida--><g class="entity" data-qualified-name="EstadoSalida" data-source-line="15" id="ent0011"><rect fill="#CDEBA5" height="37.6094" rx="2.5" ry="2.5" style="stroke:#181818;stroke-width:0.5;" width="191.1514" x="1110" y="168.5"/><text fill="#000000" font-family="sans-serif" font-size="14" lengthAdjust="spacing" textLength="171.1514" x="1120" y="193.0332">:RECOMPENSA_ABIERTA</text></g><!--entity EliminarRecompensa--><g class="entity" data-qualified-name="EliminarRecompensa" data-source-line="16" id="ent0012"><rect fill="#CDEBA5" height="37.6094" rx="2.5" ry="2.5" style="stroke:#181818;stroke-width:0.5;" width="243.3301" x="1336" y="168.5"/><text fill="#000000" font-family="sans-serif" font-size="14" lengthAdjust="spacing" textLength="223.3301" x="1346" y="193.0332">:Collaboration EliminarRecompensa</text></g><!--entity AbrirRecompensas--><g class="entity" data-qualified-name="AbrirRecompensas" data-source-line="17" id="ent0013"><rect fill="#CDEBA5" height="37.6094" rx="2.5" ry="2.5" style="stroke:#181818;stroke-width:0.5;" width="229.3232" x="1614" y="168.5"/><text fill="#000000" font-family="sans-serif" font-size="14" lengthAdjust="spacing" textLength="209.3232" x="1624" y="193.0332">:Collaboration AbrirRecompensas</text></g><g class="entity" data-qualified-name="GMN25" data-source-line="32" id="ent0026"><path d="M1878,158 L1878,217.0547 L2074.627,217.0547 L2074.627,168 L2064.627,158 L1878,158" fill="#FEFFDD" style="stroke:#181818;stroke-width:0.5;"/><path d="M2064.627,158 L2064.627,168 L2074.627,168 L2064.627,158" fill="#FEFFDD" style="stroke:#181818;stroke-width:1;"/><text fill="#000000" font-family="sans-serif" font-size="13" lengthAdjust="spacing" textLength="170.5552" x="1884" y="176.4951">Editar no puede convertir una</text><text fill="#000000" font-family="sans-serif" font-size="13" lengthAdjust="spacing" textLength="175.627" x="1884" y="192.8467">recompensa de no docente en</text><text fill="#000000" font-family="sans-serif" font-size="13" lengthAdjust="spacing" textLength="109.8525" x="1884" y="209.1982">reduccion docente.</text></g><!--link EstadoEntrada to EditarRecompensaView--><g class="link" data-entity-1="ent0001" data-entity-2="ent0003" data-link-type="dependency" data-source-line="19" id="lnk14"><path d="M198.07,61 C368.41,61 716.81,61 878.91,61" fill="none" id="EstadoEntrada-to-EditarRecompensaView" style="stroke:#181818;stroke-width:1;"/><polygon fill="#181818" points="883.91,61,874.91,57,878.91,61,874.91,65,883.91,61" style="stroke:#181818;stroke-width:1;stroke-linejoin:miter;stroke-miterlimit:10;"/><text fill="#000000" font-family="sans-serif" font-size="13" lengthAdjust="spacing" textLength="117.7744" x="482.5" y="54.4951">editarRecompensa()</text></g><!--link EditarRecompensaView to RecompensaController--><g class="link" data-entity-1="ent0003" data-entity-2="ent0004" data-link-type="dependency" data-source-line="21" id="lnk15"><path d="M883.69,79.4 C816.72,93.13 734.5,110 734.5,110 C734.5,110 734.5,128 734.5,128 C734.5,128 735.4341,146.1466 736.3141,163.3166" fill="none" id="EditarRecompensaView-to-RecompensaController" style="stroke:#181818;stroke-width:1;"/><polygon fill="#181818" points="736.57,168.31,740.1041,159.1171,736.3141,163.3166,732.1146,159.5265,736.57,168.31" style="stroke:#181818;stroke-width:1;stroke-linejoin:miter;stroke-miterlimit:10;"/><text fill="#000000" font-family="sans-serif" font-size="13" lengthAdjust="spacing" textLength="166.918" x="735.5" y="124.4951">editarRecompensa(id, datos)</text></g><!--link EditarRecompensaView to RecompensaController--><g class="link" data-entity-1="ent0003" data-entity-2="ent0004" data-link-type="dependency" data-source-line="22" id="lnk16"><path d="M951.56,80.03 C933.2,99.58 906.5,128 906.5,128 C906.5,128 843.9649,149.6444 794.3049,166.8344" fill="none" id="EditarRecompensaView-to-RecompensaController-1" style="stroke:#181818;stroke-width:1;"/><polygon fill="#181818" points="789.58,168.47,799.3933,169.3059,794.3049,166.8344,796.7764,161.7461,789.58,168.47" style="stroke:#181818;stroke-width:1;stroke-linejoin:miter;stroke-miterlimit:10;"/><text fill="#000000" font-family="sans-serif" font-size="13" lengthAdjust="spacing" textLength="130.0508" x="923.5" y="124.4951">validarCambios(datos)</text></g><!--link RecompensaController to RecompensaRepository--><g class="link" data-entity-1="ent0004" data-entity-2="ent0005" data-link-type="dependency" data-source-line="23" id="lnk17"><path d="M655.84,198.56 C520.04,215.28 262.5,247 262.5,247 C262.5,247 262.5,265 262.5,265 C262.5,265 283.3753,278.5389 304.3253,292.1289" fill="none" id="RecompensaController-to-RecompensaRepository" style="stroke:#181818;stroke-width:1;"/><polygon fill="#181818" points="308.52,294.85,303.1463,286.5963,304.3253,292.1289,298.7926,293.3079,308.52,294.85" style="stroke:#181818;stroke-width:1;stroke-linejoin:miter;stroke-miterlimit:10;"/><text fill="#000000" font-family="sans-serif" font-size="13" lengthAdjust="spacing" textLength="93.939" x="263.5" y="261.4951">obtenerPorId(id)</text></g><!--link RecompensaController to RecompensaRepository--><g class="link" data-entity-1="ent0004" data-entity-2="ent0005" data-link-type="dependency" data-source-line="27" id="lnk21"><path d="M655.93,203.79 C563.49,221.13 425.5,247 425.5,247 C425.5,247 391.1855,272.4408 364.8355,291.9908" fill="none" id="RecompensaController-to-RecompensaRepository-1" style="stroke:#181818;stroke-width:1;"/><polygon fill="#181818" points="360.82,294.97,370.4313,292.8198,364.8355,291.9908,365.6645,286.395,360.82,294.97" style="stroke:#181818;stroke-width:1;stroke-linejoin:miter;stroke-miterlimit:10;"/><text fill="#000000" font-family="sans-serif" font-size="13" lengthAdjust="spacing" textLength="106.9453" x="426.5" y="261.4951">actualizar(entidad)</text></g><!--link RecompensaController to ProyectoRepository--><g class="link" data-entity-1="ent0004" data-entity-2="ent0006" data-link-type="dependency" data-source-line="24" id="lnk18"><path d="M677.09,206.53 C619.5,223.72 541.5,247 541.5,247 C541.5,247 541.5,265 541.5,265 C541.5,265 543.1491,276.3122 545.1291,289.9022" fill="none" id="RecompensaController-to-ProyectoRepository" style="stroke:#181818;stroke-width:1;"/><polygon fill="#181818" points="545.85,294.85,548.5107,285.3673,545.1291,289.9022,540.5942,286.5207,545.85,294.85" style="stroke:#181818;stroke-width:1;stroke-linejoin:miter;stroke-miterlimit:10;"/><text fill="#000000" font-family="sans-serif" font-size="13" lengthAdjust="spacing" textLength="247.1016" x="542.5" y="261.4951">verificarProyectoCompletado(recompensa)</text></g><!--link RecompensaController to InvestigadorRepository--><g class="link" data-entity-1="ent0004" data-entity-2="ent0007" data-link-type="dependency" data-source-line="25" id="lnk19"><path d="M756.47,206.69 C774.37,223.86 798.5,247 798.5,247 C798.5,247 812.7584,271.1142 824.2984,290.6642" fill="none" id="RecompensaController-to-InvestigadorRepository" style="stroke:#181818;stroke-width:1;"/><polygon fill="#181818" points="826.84,294.97,825.7097,285.1862,824.2984,290.6642,818.8204,289.2528,826.84,294.97" style="stroke:#181818;stroke-width:1;stroke-linejoin:miter;stroke-miterlimit:10;"/><text fill="#000000" font-family="sans-serif" font-size="13" lengthAdjust="spacing" textLength="238.4434" x="809.5" y="261.4951">verificarBeneficiario(datos.investigadorId)</text></g><!--link RecompensaController to RecompensaController--><g class="link" data-entity-1="ent0004" data-entity-2="ent0004" data-link-type="dependency" data-source-line="26" id="lnk20"><path d="M819.16,174.95 C839.13,175.88 854,180.06 854,187.5 C854,194.94 844.1246,198.8874 824.1546,199.8174" fill="none" id="RecompensaController-to-RecompensaController" style="stroke:#181818;stroke-width:1;"/><polygon fill="#181818" points="819.16,200.05,828.3363,203.627,824.1546,199.8174,827.9642,195.6357,819.16,200.05" style="stroke:#181818;stroke-width:1;stroke-linejoin:miter;stroke-miterlimit:10;"/><text fill="#000000" font-family="sans-serif" font-size="13" lengthAdjust="spacing" textLength="177.7598" x="860" y="192.9951">validarTipoSegunBeneficiario()</text></g><!--link RecompensaRepository to Recompensa--><g class="link" data-entity-1="ent0005" data-entity-2="ent0008" data-link-type="association" data-source-line="28" id="lnk22"><path d="M336.5,333.24 C336.5,350.59 336.5,376.52 336.5,393.84" fill="none" id="RecompensaRepository-Recompensa" style="stroke:#181818;stroke-width:1;"/></g><!--link ProyectoRepository to Proyecto--><g class="link" data-entity-1="ent0006" data-entity-2="ent0009" data-link-type="association" data-source-line="29" id="lnk23"><path d="M548.5,333.24 C548.5,350.59 548.5,376.52 548.5,393.84" fill="none" id="ProyectoRepository-Proyecto" style="stroke:#181818;stroke-width:1;"/></g><!--link InvestigadorRepository to Investigador--><g class="link" data-entity-1="ent0007" data-entity-2="ent0010" data-link-type="association" data-source-line="30" id="lnk24"><path d="M837.5,333.24 C837.5,350.59 837.5,376.52 837.5,393.84" fill="none" id="InvestigadorRepository-Investigador" style="stroke:#181818;stroke-width:1;"/></g><!--link RecompensaController to GMN25--><g class="link" data-entity-1="ent0004" data-entity-2="ent0026" data-link-type="association" data-source-line="32" id="lnk27"><path d="M819.25,172.47 C928.9,152.3 1110,119 1110,119 C1110,119 1843,119 1843,119 C1843,119 1882.64,139.34 1918.72,157.85" fill="none" id="RecompensaController-GMN25" style="stroke:#181818;stroke-width:1;stroke-dasharray:7,7;"/></g><!--link EditarRecompensaView to EstadoSalida--><g class="link" data-entity-1="ent0003" data-entity-2="ent0011" data-link-type="dependency" data-source-line="36" id="lnk28"><path d="M1003.77,80.01 C1030.44,93.63 1062.5,110 1062.5,110 C1062.5,110 1124.9111,143.3918 1167.2011,166.0118" fill="none" id="EditarRecompensaView-to-EstadoSalida" style="stroke:#181818;stroke-width:1;stroke-dasharray:7,7;"/><polygon fill="#181818" points="1171.61,168.37,1165.5605,160.598,1167.2011,166.0118,1161.7873,167.6523,1171.61,168.37" style="stroke:#181818;stroke-width:1;stroke-linejoin:miter;stroke-miterlimit:10;"/><text fill="#000000" font-family="sans-serif" font-size="13" lengthAdjust="spacing" textLength="130.7935" x="1093.5" y="124.4951">continuarNavegacion()</text></g><!--link EditarRecompensaView to EliminarRecompensa--><g class="link" data-entity-1="ent0003" data-entity-2="ent0012" data-link-type="dependency" data-source-line="37" id="lnk29"><path d="M1053.12,77.39 C1130.34,91.43 1232.5,110 1232.5,110 C1232.5,110 1333.2062,144.2403 1399.7262,166.8603" fill="none" id="EditarRecompensaView-to-EliminarRecompensa" style="stroke:#181818;stroke-width:1;stroke-dasharray:7,7;"/><polygon fill="#181818" points="1404.46,168.47,1397.2269,161.7855,1399.7262,166.8603,1394.6514,169.3595,1404.46,168.47" style="stroke:#181818;stroke-width:1;stroke-linejoin:miter;stroke-miterlimit:10;"/><text fill="#000000" font-family="sans-serif" font-size="13" lengthAdjust="spacing" textLength="130.7681" x="1281.5" y="124.4951">eliminarRecompensa()</text></g><!--link EditarRecompensaView to AbrirRecompensas--><g class="link" data-entity-1="ent0003" data-entity-2="ent0013" data-link-type="dependency" data-source-line="38" id="lnk30"><path d="M1053.25,71 C1184.13,84.9 1420.5,110 1420.5,110 C1420.5,110 1559.9875,144.6446 1651.0475,167.2646" fill="none" id="EditarRecompensaView-to-AbrirRecompensas" style="stroke:#181818;stroke-width:1;stroke-dasharray:7,7;"/><polygon fill="#181818" points="1655.9,168.47,1648.1298,162.4183,1651.0475,167.2646,1646.2011,170.1823,1655.9,168.47" style="stroke:#181818;stroke-width:1;stroke-linejoin:miter;stroke-miterlimit:10;"/><text fill="#000000" font-family="sans-serif" font-size="13" lengthAdjust="spacing" textLength="117.7617" x="1487.5" y="124.4951">abrirRecompensas()</text></g><?plantuml-src dLHDRzim3BtxLn3P9G6M78grM7Ceu7WkaCEw82bw7MYBzOGwaa7B6R9X_trqqZR-K3wsd1pgyP4YtrFveas1Z6l8jI6tBGWAcs_hFq70b3eqMKxm8VeIpy9h64oNSVJjwo9-M8NVmzayNZw60y0IujAXih5nZ0g30jCNp0X8QOUyfDIk2p8briX1DpWS3U1t0F9hrBkvketlRo7kO9yq_Un2a-j4tNo60oYoqeRDS-8kzFugZ3x53UYI2bjgPtbx1BfWkvMWFGkScmsLJcSo1JuBFZHmfkm5nO8__x6e5UPQzkJBYsHoc5X6fws1EDThRPehsBFqmXTmXGdhHaQvO-e6Ww0b9HZp-CuhWodqXIJ97YICbN3uzE7XqEeZA7Is71tXEagrsSsK8rmdsfR3Ln8VjaDoaCiKREB842yipvNqSYA_hqnfWLW_wnJvxJ2It9pgUGxvdUW4gL_53UAPT2SV6bdR_HKdkf4pLnVTs3EsHrtO5MMLQLNuv_bXwYeX_8Ky9EE4kDNG0IaKJHVsXra3tbte7qiDQJdHM4V0EllXm3xx7wIzfi1OA2fI1AaL0dQQeJ8x3xszb78c86LJkOOyf4REL9McjOzUWvE0Z8Awfb-faybTo-tJkfZJfa9-m0rbM9CDHoUIUoONl_HYfnYwvfRzT2AI_HS0?></g></svg>