<?xml version="1.0" encoding="us-ascii" standalone="no"?><svg xmlns="http://www.w3.org/2000/svg" xmlns:xlink="http://www.w3.org/1999/xlink" contentStyleType="text/css" height="439px" preserveAspectRatio="none" style="width:2328px;height:439px;background:#FFFFFF;" version="1.1" viewBox="0 0 2328 439" width="2328px" zoomAndPan="magnify"><defs/><g><!--cluster abrirEntregables--><g id="cluster_abrirEntregables"><path d="M195.5,6 L324.5,6 A3.75,3.75 0 0 1 327,8.5 L334,29.6094 L1104.5,29.6094 A2.5,2.5 0 0 1 1107,32.1094 L1107,429.5 A2.5,2.5 0 0 1 1104.5,432 L195.5,432 A2.5,2.5 0 0 1 193,429.5 L193,8.5 A2.5,2.5 0 0 1 195.5,6 " fill="none" style="stroke:#000000;stroke-width:1.5;"/><line style="stroke:#000000;stroke-width:1.5;" x1="193" x2="334" y1="29.6094" y2="29.6094"/><text fill="#000000" font-family="sans-serif" font-size="14" font-weight="bold" lengthAdjust="spacing" textLength="128" x="197" y="22.5332">abrirEntregables()</text></g><!--entity ListarEntregablesView--><g id="elem_ListarEntregablesView"><rect fill="#629EF9" height="37.6094" rx="2.5" ry="2.5" style="stroke:#181818;stroke-width:0.5;" width="160" x="931" y="42"/><text fill="#000000" font-family="sans-serif" font-size="14" lengthAdjust="spacing" textLength="140" x="941" y="66.5332">ListarEntregablesView</text></g><!--entity EntregableController--><g id="elem_EntregableController"><rect fill="#B5BD68" height="37.6094" rx="2.5" ry="2.5" style="stroke:#181818;stroke-width:0.5;" width="151" x="598.5" y="160.5"/><text fill="#000000" font-family="sans-serif" font-size="14" lengthAdjust="spacing" textLength="131" x="608.5" y="185.0332">EntregableController</text></g><!--entity ProyectoRepository--><g id="elem_ProyectoRepository"><rect fill="#F2AC4E" height="37.6094" rx="2.5" ry="2.5" style="stroke:#181818;stroke-width:0.5;" width="144" x="209" y="279"/><text fill="#000000" font-family="sans-serif" font-size="14" lengthAdjust="spacing" textLength="124" x="219" y="303.5332">ProyectoRepository</text></g><!--entity EntregableRepository--><g id="elem_EntregableRepository"><rect fill="#F2AC4E" height="37.6094" rx="2.5" ry="2.5" style="stroke:#181818;stroke-width:0.5;" width="157" x="605.5" y="279"/><text fill="#000000" font-family="sans-serif" font-size="14" lengthAdjust="spacing" textLength="137" x="615.5" y="303.5332">EntregableRepository</text></g><!--entity Proyecto--><g id="elem_Proyecto"><rect fill="#F2AC4E" height="37.6094" rx="2.5" ry="2.5" style="stroke:#181818;stroke-width:0.5;" width="76" x="243" y="378"/><text fill="#000000" font-family="sans-serif" font-size="14" lengthAdjust="spacing" textLength="56" x="253" y="402.5332">Proyecto</text></g><!--entity Entregable--><g id="elem_Entregable"><rect fill="#F2AC4E" height="37.6094" rx="2.5" ry="2.5" style="stroke:#181818;stroke-width:0.5;" width="89" x="639.5" y="378"/><text fill="#000000" font-family="sans-serif" font-size="14" lengthAdjust="spacing" textLength="69" x="649.5" y="402.5332">Entregable</text></g><!--entity EstadoEntrada1--><g id="elem_EstadoEntrada1"><rect fill="#CDEBA5" height="37.6094" rx="2.5" ry="2.5" style="stroke:#181818;stroke-width:0.5;" width="170" x="7" y="42"/><text fill="#000000" font-family="sans-serif" font-size="14" lengthAdjust="spacing" textLength="150" x="17" y="66.5332">:PROYECTO_ABIERTO</text></g><!--entity EstadoEntrada2--><g id="elem_EstadoEntrada2"><rect fill="#CDEBA5" height="37.6094" rx="2.5" ry="2.5" style="stroke:#181818;stroke-width:0.5;" width="184" x="1292" y="42"/><text fill="#000000" font-family="sans-serif" font-size="14" lengthAdjust="spacing" textLength="164" x="1302" y="66.5332">:ENTREGABLE_ABIERTO</text></g><!--entity EstadoSalida--><g id="elem_EstadoSalida"><rect fill="#CDEBA5" height="37.6094" rx="2.5" ry="2.5" style="stroke:#181818;stroke-width:0.5;" width="202" x="1123" y="160.5"/><text fill="#000000" font-family="sans-serif" font-size="14" lengthAdjust="spacing" textLength="182" x="1133" y="185.0332">:ENTREGABLES_ABIERTOS</text></g><!--entity AbrirEntregable--><g id="elem_AbrirEntregable"><rect fill="#CDEBA5" height="37.6094" rx="2.5" ry="2.5" style="stroke:#181818;stroke-width:0.5;" width="211" x="1360.5" y="160.5"/><text fill="#000000" font-family="sans-serif" font-size="14" lengthAdjust="spacing" textLength="191" x="1370.5" y="185.0332">:Collaboration AbrirEntregable</text></g><!--entity CrearEntregable--><g id="elem_CrearEntregable"><rect fill="#CDEBA5" height="37.6094" rx="2.5" ry="2.5" style="stroke:#181818;stroke-width:0.5;" width="217" x="1606.5" y="160.5"/><text fill="#000000" font-family="sans-serif" font-size="14" lengthAdjust="spacing" textLength="197" x="1616.5" y="185.0332">:Collaboration CrearEntregable</text></g><!--entity AbrirProyecto--><g id="elem_AbrirProyecto"><rect fill="#CDEBA5" height="37.6094" rx="2.5" ry="2.5" style="stroke:#181818;stroke-width:0.5;" width="198" x="1859" y="160.5"/><text fill="#000000" font-family="sans-serif" font-size="14" lengthAdjust="spacing" textLength="178" x="1869" y="185.0332">:Collaboration AbrirProyecto</text></g><g id="elem_GMN24"><path d="M2092.5,158 L2092.5,200.7031 L2321.5,200.7031 L2321.5,168 L2311.5,158 L2092.5,158 " fill="#FEFFDD" style="stroke:#181818;stroke-width:0.5;"/><path d="M2311.5,158 L2311.5,168 L2321.5,168 L2311.5,158 " fill="#FEFFDD" style="stroke:#181818;stroke-width:1.0;"/><text fill="#000000" font-family="sans-serif" font-size="13" lengthAdjust="spacing" textLength="208" x="2098.5" y="176.4951">El Investigador consulta entregables</text><text fill="#000000" font-family="sans-serif" font-size="13" lengthAdjust="spacing" textLength="196" x="2098.5" y="192.8467">de proyectos en los que participa.</text></g><!--link EstadoEntrada1 to ListarEntregablesView--><g id="link_EstadoEntrada1_ListarEntregablesView"><path d="M177.22,61 C353.99,61 752.38,61 924.77,61 " fill="none" id="EstadoEntrada1-to-ListarEntregablesView" style="stroke:#181818;stroke-width:1.0;"/><polygon fill="#181818" points="930.77,61,921.77,57,925.77,61,921.77,65,930.77,61" style="stroke:#181818;stroke-width:1.0;"/><text fill="#000000" font-family="sans-serif" font-size="13" lengthAdjust="spacing" textLength="164" x="472" y="54.4951">abrirEntregables(idProyecto)</text></g><!--link EstadoEntrada2 to ListarEntregablesView--><g id="link_EstadoEntrada2_ListarEntregablesView"><path d="M1291.96,61 C1230.33,61 1155.99,61 1097.02,61 " fill="none" id="EstadoEntrada2-to-ListarEntregablesView" style="stroke:#181818;stroke-width:1.0;"/><polygon fill="#181818" points="1091.02,61,1100.02,65,1096.02,61,1100.02,57,1091.02,61" style="stroke:#181818;stroke-width:1.0;"/><text fill="#000000" font-family="sans-serif" font-size="13" lengthAdjust="spacing" textLength="164" x="1109.5" y="54.4951">abrirEntregables(idProyecto)</text></g><!--link ListarEntregablesView to EntregableController--><g id="link_ListarEntregablesView_EntregableController"><path d="M930.94,69.69 C789.69,83.25 511,110 511,110 C511,110 511,128 511,128 C511,128 563.1088,144.1444 609.8788,158.6344 " fill="none" id="ListarEntregablesView-to-EntregableController" style="stroke:#181818;stroke-width:1.0;"/><polygon fill="#181818" points="615.61,160.41,608.1969,153.9257,610.834,158.9303,605.8294,161.5674,615.61,160.41" style="stroke:#181818;stroke-width:1.0;"/><text fill="#000000" font-family="sans-serif" font-size="13" lengthAdjust="spacing" textLength="243" x="512" y="124.4951">listarEntregables(idProyecto, investigador)</text></g><!--link ListarEntregablesView to EntregableController--><g id="link_ListarEntregablesView_EntregableController"><path d="M931.46,80.01 C871.3,93.63 799,110 799,110 C799,110 749.4619,137.1468 712.4319,157.4368 " fill="none" id="ListarEntregablesView-to-EntregableController-1" style="stroke:#181818;stroke-width:1.0;"/><polygon fill="#181818" points="707.17,160.32,716.9849,159.5032,711.5549,157.9174,713.1407,152.4873,707.17,160.32" style="stroke:#181818;stroke-width:1.0;"/><text fill="#000000" font-family="sans-serif" font-size="13" lengthAdjust="spacing" textLength="290" x="800" y="124.4951">filtrarEntregables(idProyecto, criterio, investigador)</text></g><!--link EntregableController to ProyectoRepository--><g id="link_EntregableController_ProyectoRepository"><path d="M598.1,190.06 C481.85,204.7 273,231 273,231 C273,231 273,249 273,249 C273,249 274.7215,259.342 276.9915,272.932 " fill="none" id="EntregableController-to-ProyectoRepository" style="stroke:#181818;stroke-width:1.0;"/><polygon fill="#181818" points="277.98,278.85,280.4426,269.314,277.1562,273.9183,272.5519,270.632,277.98,278.85" style="stroke:#181818;stroke-width:1.0;"/><text fill="#000000" font-family="sans-serif" font-size="13" lengthAdjust="spacing" textLength="264" x="274" y="245.4951">verificarParticipacion(idProyecto, investigador)</text></g><!--link EntregableController to EntregableRepository--><g id="link_EntregableController_EntregableRepository"><path d="M628.51,198.59 C592.07,213.08 547,231 547,231 C547,231 547,249 547,249 C547,249 588.0574,263.3863 626.9374,277.0063 " fill="none" id="EntregableController-to-EntregableRepository" style="stroke:#181818;stroke-width:1.0;"/><polygon fill="#181818" points="632.6,278.99,625.4285,272.2394,627.8812,277.337,622.7837,279.7896,632.6,278.99" style="stroke:#181818;stroke-width:1.0;"/><text fill="#000000" font-family="sans-serif" font-size="13" lengthAdjust="spacing" textLength="227" x="548" y="245.4951">obtenerActivosPorProyecto(idProyecto)</text></g><!--link EntregableController to EntregableRepository--><g id="link_EntregableController_EntregableRepository"><path d="M711.97,198.59 C742.38,213.08 780,231 780,231 C780,231 780,249 780,249 C780,249 752.6266,262.6867 725.3866,276.3067 " fill="none" id="EntregableController-to-EntregableRepository-1" style="stroke:#181818;stroke-width:1.0;"/><polygon fill="#181818" points="720.02,278.99,729.8587,278.5428,724.4921,276.7539,726.281,271.3874,720.02,278.99" style="stroke:#181818;stroke-width:1.0;"/><text fill="#000000" font-family="sans-serif" font-size="13" lengthAdjust="spacing" textLength="270" x="781" y="245.4951">buscarActivosPorProyecto(idProyecto, criterio)</text></g><!--link ProyectoRepository to Proyecto--><g id="link_ProyectoRepository_Proyecto"><path d="M281,317.24 C281,334.59 281,360.52 281,377.84 " fill="none" id="ProyectoRepository-Proyecto" style="stroke:#181818;stroke-width:1.0;"/></g><!--link EntregableRepository to Entregable--><g id="link_EntregableRepository_Entregable"><path d="M684,317.24 C684,334.59 684,360.52 684,377.84 " fill="none" id="EntregableRepository-Entregable" style="stroke:#181818;stroke-width:1.0;"/></g><!--link EntregableController to GMN24--><g id="link_EntregableController_GMN24"><path d="M749.74,169.31 C877.85,152.06 1123.5,119 1123.5,119 C1123.5,119 2057.5,119 2057.5,119 C2057.5,119 2110.9,140.61 2153.87,158 " fill="none" id="EntregableController-GMN24" style="stroke:#181818;stroke-width:1.0;stroke-dasharray:7.0,7.0;"/></g><!--link ListarEntregablesView to EstadoSalida--><g id="link_ListarEntregablesView_EstadoSalida"><path d="M1044.02,80.01 C1068.99,93.63 1099,110 1099,110 C1099,110 1148.5381,137.1468 1185.5681,157.4368 " fill="none" id="ListarEntregablesView-to-EstadoSalida" style="stroke:#181818;stroke-width:1.0;stroke-dasharray:7.0,7.0;"/><polygon fill="#181818" points="1190.83,160.32,1184.8593,152.4873,1186.4451,157.9174,1181.0151,159.5032,1190.83,160.32" style="stroke:#181818;stroke-width:1.0;"/><text fill="#000000" font-family="sans-serif" font-size="13" lengthAdjust="spacing" textLength="127" x="1130" y="124.4951">continuarNavegacion()</text></g><!--link ListarEntregablesView to AbrirEntregable--><g id="link_ListarEntregablesView_AbrirEntregable"><path d="M1091.33,77.12 C1166.08,91.19 1266,110 1266,110 C1266,110 1348.2636,138.1761 1407.5136,158.4661 " fill="none" id="ListarEntregablesView-to-AbrirEntregable" style="stroke:#181818;stroke-width:1.0;stroke-dasharray:7.0,7.0;"/><polygon fill="#181818" points="1413.19,160.41,1405.9713,153.7099,1408.4597,158.7901,1403.3795,161.2785,1413.19,160.41" style="stroke:#181818;stroke-width:1.0;"/><text fill="#000000" font-family="sans-serif" font-size="13" lengthAdjust="spacing" textLength="95" x="1315" y="124.4951">abrirEntregable()</text></g><!--link ListarEntregablesView to CrearEntregable--><g id="link_ListarEntregablesView_CrearEntregable"><path d="M1091.12,71.43 C1209.94,85.4 1419,110 1419,110 C1419,110 1543.3044,138.7674 1630.9944,159.0574 " fill="none" id="ListarEntregablesView-to-CrearEntregable" style="stroke:#181818;stroke-width:1.0;stroke-dasharray:7.0,7.0;"/><polygon fill="#181818" points="1636.84,160.41,1628.9734,154.4841,1631.9687,159.2829,1627.17,162.2782,1636.84,160.41" style="stroke:#181818;stroke-width:1.0;"/><text fill="#000000" font-family="sans-serif" font-size="13" lengthAdjust="spacing" textLength="99" x="1491" y="124.4951">crearEntregable()</text></g><!--link ListarEntregablesView to AbrirProyecto--><g id="link_ListarEntregablesView_AbrirProyecto"><path d="M1091.22,68.55 C1252.12,81.68 1599,110 1599,110 C1599,110 1750.9563,138.9957 1857.3163,159.2857 " fill="none" id="ListarEntregablesView-to-AbrirProyecto" style="stroke:#181818;stroke-width:1.0;stroke-dasharray:7.0,7.0;"/><polygon fill="#181818" points="1863.21,160.41,1855.119,154.7944,1858.2986,159.4731,1853.6199,162.6527,1863.21,160.41" style="stroke:#181818;stroke-width:1.0;"/><text fill="#000000" font-family="sans-serif" font-size="13" lengthAdjust="spacing" textLength="85" x="1686" y="124.4951">abrirProyecto()</text></g><!--SRC=[dPJVQzim4CVVzLSSsKiDIs1XBQiV2ewdZa9fGX8AUnfdM_54DIcJb8mmzh_l7EhuTz8jBuxFTv-JllV3lKYzHOi_G4aj_64hO6lKeNXXp8hKeywLW7VnPpwBhc4KBfRphpnUpxz5imU-NCz7W0wuyvWPhht533_qnl6dzP9_YMQFV3XoohQOlc0k01ChRM4LEIPAkC9rr3PU1IFupO1-jOGtqrj-VmkFai1rvsSfVhLza-iak_a4bLTiwAzHIjYsw_qqYZzoM5Xp8ADPYgrnqXjx672ic1TTI-P54ll3BaYxAhLTrSHTeP8PzaR6T5TCZ4KlZOQegUyHqRAzWH9RWMrAo_RMivJAL2SvQSMQBGTZExxhBthOQQOhcPMSeCcP_Z-7zGR1E2DUNuE5D72jW1hlFKYz5yxBd0vdWo7u87iZ5Lre49vQwOMLdJHzi6EMRj-7i2V2HgPe5sYzJ2NDBbNkp2K6wNt34e99lD32HgcNU-CMvbJyPlt-3Phi79tuBBEI9s3TUnExcjY-78L3hTMryGAipBzxC9l-LSCLFDI4WjHejrCUGLJbOnajvjUqZZw0eiVF7HbByITCw0oAT0FTCfdSDJP2M2JoKk_GFk6UF8_b2yv4jvP1PoBE1hTs06Ll6YvdBcL_pNigNS3-0W00]--></g></svg>