<svg xmlns="http://www.w3.org/2000/svg" xmlns:xlink="http://www.w3.org/1999/xlink" contentStyleType="text/css" height="640px" preserveAspectRatio="none" style="width:1610px;height:640px;background:#FFFFFF;" version="1.1" viewBox="0 0 1610 640" width="1610px" zoomAndPan="magnify"><title>Diagrama de secuencia - abrirPublicaciones</title><defs/><g><text fill="#000000" font-family="sans-serif" font-size="14" font-weight="bold" lengthAdjust="spacing" textLength="293.3438" x="660.115" y="29.5332">Diagrama de secuencia - abrirPublicaciones</text><line style="stroke:#181818;stroke-width:0.5;stroke-dasharray:5.0,5.0;" x1="46" x2="46" y1="121.2188" y2="558.1406"/><line style="stroke:#181818;stroke-width:0.5;stroke-dasharray:5.0,5.0;" x1="302.2314" x2="302.2314" y1="121.2188" y2="558.1406"/><line style="stroke:#181818;stroke-width:0.5;stroke-dasharray:5.0,5.0;" x1="552.0874" x2="552.0874" y1="121.2188" y2="558.1406"/><line style="stroke:#181818;stroke-width:0.5;stroke-dasharray:5.0,5.0;" x1="785.0679" x2="785.0679" y1="121.2188" y2="558.1406"/><line style="stroke:#181818;stroke-width:0.5;stroke-dasharray:5.0,5.0;" x1="913.5571" x2="913.5571" y1="121.2188" y2="558.1406"/><line style="stroke:#181818;stroke-width:0.5;stroke-dasharray:5.0,5.0;" x1="1054.8394" x2="1054.8394" y1="121.2188" y2="558.1406"/><line style="stroke:#181818;stroke-width:0.5;stroke-dasharray:5.0,5.0;" x1="1246.6724" x2="1246.6724" y1="121.2188" y2="558.1406"/><line style="stroke:#181818;stroke-width:0.5;stroke-dasharray:5.0,5.0;" x1="1559.7397" x2="1559.7397" y1="121.2188" y2="558.1406"/><text fill="#000000" font-family="sans-serif" font-size="14" lengthAdjust="spacing" textLength="76.2686" x="5" y="118.1426">Investigador</text><ellipse cx="46.1343" cy="52.1094" fill="#E2E2F0" rx="8" ry="8" style="stroke:#181818;stroke-width:0.5;"/><path d="M46.1343,60.1094 L46.1343,87.1094 M33.1343,68.1094 L59.1343,68.1094 M46.1343,87.1094 L33.1343,102.1094 M46.1343,87.1094 L59.1343,102.1094 " fill="none" style="stroke:#181818;stroke-width:0.5;"/><text fill="#000000" font-family="sans-serif" font-size="14" lengthAdjust="spacing" textLength="76.2686" x="5" y="571.6738">Investigador</text><ellipse cx="46.1343" cy="583.25" fill="#E2E2F0" rx="8" ry="8" style="stroke:#181818;stroke-width:0.5;"/><path d="M46.1343,591.25 L46.1343,618.25 M33.1343,599.25 L59.1343,599.25 M46.1343,618.25 L33.1343,633.25 M46.1343,618.25 L59.1343,633.25 " fill="none" style="stroke:#181818;stroke-width:0.5;"/><rect fill="#E2E2F0" height="49.2188" rx="2.5" ry="2.5" style="stroke:#181818;stroke-width:0.5;" width="161.0889" x="222.2314" y="71"/><text fill="#000000" font-family="sans-serif" font-size="14" lengthAdjust="spacing" textLength="147.0889" x="229.2314" y="92.5332">abrirPublicacionesPage</text><text fill="#000000" font-family="sans-serif" font-size="14" lengthAdjust="spacing" textLength="45.8965" x="279.8276" y="110.1426">(React)</text><rect fill="#E2E2F0" height="49.2188" rx="2.5" ry="2.5" style="stroke:#181818;stroke-width:0.5;" width="161.0889" x="222.2314" y="557.1406"/><text fill="#000000" font-family="sans-serif" font-size="14" lengthAdjust="spacing" textLength="147.0889" x="229.2314" y="578.6738">abrirPublicacionesPage</text><text fill="#000000" font-family="sans-serif" font-size="14" lengthAdjust="spacing" textLength="45.8965" x="279.8276" y="596.2832">(React)</text><rect fill="#E2E2F0" height="49.2188" rx="2.5" ry="2.5" style="stroke:#181818;stroke-width:0.5;" width="146.2891" x="479.0874" y="71"/><text fill="#000000" font-family="sans-serif" font-size="14" lengthAdjust="spacing" textLength="132.2891" x="486.0874" y="92.5332">PublicacionController</text><text fill="#000000" font-family="sans-serif" font-size="14" lengthAdjust="spacing" textLength="82.4824" x="510.9907" y="110.1426">(Spring Boot)</text><rect fill="#E2E2F0" height="49.2188" rx="2.5" ry="2.5" style="stroke:#181818;stroke-width:0.5;" width="146.2891" x="479.0874" y="557.1406"/><text fill="#000000" font-family="sans-serif" font-size="14" lengthAdjust="spacing" textLength="132.2891" x="486.0874" y="578.6738">PublicacionController</text><text fill="#000000" font-family="sans-serif" font-size="14" lengthAdjust="spacing" textLength="82.4824" x="510.9907" y="596.2832">(Spring Boot)</text><rect fill="#E2E2F0" height="31.6094" rx="2.5" ry="2.5" style="stroke:#181818;stroke-width:0.5;" width="103.4893" x="734.0679" y="88.6094"/><text fill="#000000" font-family="sans-serif" font-size="14" lengthAdjust="spacing" textLength="89.4893" x="741.0679" y="110.1426">SesionService</text><rect fill="#E2E2F0" height="31.6094" rx="2.5" ry="2.5" style="stroke:#181818;stroke-width:0.5;" width="103.4893" x="734.0679" y="557.1406"/><text fill="#000000" font-family="sans-serif" font-size="14" lengthAdjust="spacing" textLength="89.4893" x="741.0679" y="578.6738">SesionService</text><rect fill="#E2E2F0" height="31.6094" rx="2.5" ry="2.5" style="stroke:#181818;stroke-width:0.5;" width="132.2822" x="847.5571" y="88.6094"/><text fill="#000000" font-family="sans-serif" font-size="14" lengthAdjust="spacing" textLength="118.2822" x="854.5571" y="110.1426">PublicacionService</text><rect fill="#E2E2F0" height="31.6094" rx="2.5" ry="2.5" style="stroke:#181818;stroke-width:0.5;" width="132.2822" x="847.5571" y="557.1406"/><text fill="#000000" font-family="sans-serif" font-size="14" lengthAdjust="spacing" textLength="118.2822" x="854.5571" y="578.6738">PublicacionService</text><rect fill="#E2E2F0" height="31.6094" rx="2.5" ry="2.5" style="stroke:#181818;stroke-width:0.5;" width="130.7305" x="989.8394" y="88.6094"/><text fill="#000000" font-family="sans-serif" font-size="14" lengthAdjust="spacing" textLength="116.7305" x="996.8394" y="110.1426">PoliticaPublicacion</text><rect fill="#E2E2F0" height="31.6094" rx="2.5" ry="2.5" style="stroke:#181818;stroke-width:0.5;" width="130.7305" x="989.8394" y="557.1406"/><text fill="#000000" font-family="sans-serif" font-size="14" lengthAdjust="spacing" textLength="116.7305" x="996.8394" y="578.6738">PoliticaPublicacion</text><rect fill="#E2E2F0" height="31.6094" rx="2.5" ry="2.5" style="stroke:#181818;stroke-width:0.5;" width="152.5166" x="1170.6724" y="88.6094"/><text fill="#000000" font-family="sans-serif" font-size="14" lengthAdjust="spacing" textLength="138.5166" x="1177.6724" y="110.1426">PublicacionRepository</text><rect fill="#E2E2F0" height="31.6094" rx="2.5" ry="2.5" style="stroke:#181818;stroke-width:0.5;" width="152.5166" x="1170.6724" y="557.1406"/><text fill="#000000" font-family="sans-serif" font-size="14" lengthAdjust="spacing" textLength="138.5166" x="1177.6724" y="578.6738">PublicacionRepository</text><text fill="#000000" font-family="sans-serif" font-size="14" lengthAdjust="spacing" textLength="91.834" x="1511.7397" y="118.1426">Base de Datos</text><path d="M1542.6567,67.6094 C1542.6567,57.6094 1560.6567,57.6094 1560.6567,57.6094 C1560.6567,57.6094 1578.6567,57.6094 1578.6567,67.6094 L1578.6567,93.6094 C1578.6567,103.6094 1560.6567,103.6094 1560.6567,103.6094 C1560.6567,103.6094 1542.6567,103.6094 1542.6567,93.6094 L1542.6567,67.6094 " fill="#E2E2F0" style="stroke:#181818;stroke-width:1.5;"/><path d="M1542.6567,67.6094 C1542.6567,77.6094 1560.6567,77.6094 1560.6567,77.6094 C1560.6567,77.6094 1578.6567,77.6094 1578.6567,67.6094 " fill="none" style="stroke:#181818;stroke-width:1.5;"/><text fill="#000000" font-family="sans-serif" font-size="14" lengthAdjust="spacing" textLength="91.834" x="1511.7397" y="571.6738">Base de Datos</text><path d="M1542.6567,584.75 C1542.6567,574.75 1560.6567,574.75 1560.6567,574.75 C1560.6567,574.75 1578.6567,574.75 1578.6567,584.75 L1578.6567,610.75 C1578.6567,620.75 1560.6567,620.75 1560.6567,620.75 C1560.6567,620.75 1542.6567,620.75 1542.6567,610.75 L1542.6567,584.75 " fill="#E2E2F0" style="stroke:#181818;stroke-width:1.5;"/><path d="M1542.6567,584.75 C1542.6567,594.75 1560.6567,594.75 1560.6567,594.75 C1560.6567,594.75 1578.6567,594.75 1578.6567,584.75 " fill="none" style="stroke:#181818;stroke-width:1.5;"/><polygon fill="#181818" points="290.7759,149.5703,300.7759,153.5703,290.7759,157.5703,294.7759,153.5703" style="stroke:#181818;stroke-width:1;"/><line style="stroke:#181818;stroke-width:1;" x1="46.1343" x2="296.7759" y1="153.5703" y2="153.5703"/><text fill="#000000" font-family="sans-serif" font-size="13" lengthAdjust="spacing" textLength="160.3989" x="53.1343" y="148.7139">Solicita abrirPublicaciones()</text><polygon fill="#181818" points="540.2319,179.9219,550.2319,183.9219,540.2319,187.9219,544.2319,183.9219" style="stroke:#181818;stroke-width:1;"/><line style="stroke:#181818;stroke-width:1;" x1="302.7759" x2="546.2319" y1="183.9219" y2="183.9219"/><text fill="#000000" font-family="sans-serif" font-size="13" lengthAdjust="spacing" textLength="225.4561" x="309.7759" y="179.0654">GET /api/publicaciones?filtro= + cookie</text><polygon fill="#181818" points="773.8125,210.2734,783.8125,214.2734,773.8125,218.2734,777.8125,214.2734" style="stroke:#181818;stroke-width:1;"/><line style="stroke:#181818;stroke-width:1;" x1="552.2319" x2="779.8125" y1="214.2734" y2="214.2734"/><text fill="#000000" font-family="sans-serif" font-size="13" lengthAdjust="spacing" textLength="209.5806" x="559.2319" y="209.417">obtenerSesionActual(authentication)</text><polygon fill="#181818" points="563.2319,240.625,553.2319,244.625,563.2319,248.625,559.2319,244.625" style="stroke:#181818;stroke-width:1;"/><line style="stroke:#181818;stroke-width:1;stroke-dasharray:2.0,2.0;" x1="557.2319" x2="784.8125" y1="244.625" y2="244.625"/><text fill="#000000" font-family="sans-serif" font-size="13" lengthAdjust="spacing" textLength="101.1753" x="569.2319" y="239.7686">Actor autenticado</text><polygon fill="#181818" points="901.6982,270.9766,911.6982,274.9766,901.6982,278.9766,905.6982,274.9766" style="stroke:#181818;stroke-width:1;"/><line style="stroke:#181818;stroke-width:1;" x1="552.2319" x2="907.6982" y1="274.9766" y2="274.9766"/><text fill="#000000" font-family="sans-serif" font-size="13" lengthAdjust="spacing" textLength="96.7891" x="559.2319" y="270.1201">listar(filtro, actor)</text><path d="M1060,287.9766 L1060,313.9766 L1359,313.9766 L1359,297.9766 L1349,287.9766 L1060,287.9766 " fill="#FEFFDD" style="stroke:#181818;stroke-width:0.5;"/><path d="M1349,287.9766 L1349,297.9766 L1359,297.9766 L1349,287.9766 " fill="#FEFFDD" style="stroke:#181818;stroke-width:0.5;"/><text fill="#000000" font-family="sans-serif" font-size="13" lengthAdjust="spacing" textLength="278.9287" x="1066" y="306.4717">Responsabilidad interna: permitirConsultaGlobal</text><polygon fill="#181818" points="1234.9307,337.6797,1244.9307,341.6797,1234.9307,345.6797,1238.9307,341.6797" style="stroke:#181818;stroke-width:1;"/><line style="stroke:#181818;stroke-width:1;" x1="913.6982" x2="1240.9307" y1="341.6797" y2="341.6797"/><text fill="#000000" font-family="sans-serif" font-size="13" lengthAdjust="spacing" textLength="309.2324" x="920.6982" y="336.8232">findByRetiradaOrderByFechaActualizacionDesc(filtro)</text><polygon fill="#181818" points="1548.6567,384.3828,1558.6567,388.3828,1548.6567,392.3828,1552.6567,388.3828" style="stroke:#181818;stroke-width:1;"/><line style="stroke:#181818;stroke-width:1;" x1="1246.9307" x2="1554.6567" y1="388.3828" y2="388.3828"/><text fill="#000000" font-family="sans-serif" font-size="13" lengthAdjust="spacing" textLength="183.5107" x="1253.9307" y="367.1748">SELECT * FROM publicaciones</text><text fill="#000000" font-family="sans-serif" font-size="13" lengthAdjust="spacing" textLength="289.7261" x="1253.9307" y="383.5264">WHERE retirada = false AND coincide_filtro = true</text><polygon fill="#181818" points="1257.9307,414.7344,1247.9307,418.7344,1257.9307,422.7344,1253.9307,418.7344" style="stroke:#181818;stroke-width:1;"/><line style="stroke:#181818;stroke-width:1;stroke-dasharray:2.0,2.0;" x1="1251.9307" x2="1559.6567" y1="418.7344" y2="418.7344"/><text fill="#000000" font-family="sans-serif" font-size="13" lengthAdjust="spacing" textLength="124.2871" x="1263.9307" y="413.8779">Publicaciones activas</text><polygon fill="#181818" points="924.6982,445.0859,914.6982,449.0859,924.6982,453.0859,920.6982,449.0859" style="stroke:#181818;stroke-width:1;"/><line style="stroke:#181818;stroke-width:1;stroke-dasharray:2.0,2.0;" x1="918.6982" x2="1245.9307" y1="449.0859" y2="449.0859"/><text fill="#000000" font-family="sans-serif" font-size="13" lengthAdjust="spacing" textLength="124.2871" x="930.6982" y="444.2295">Publicaciones activas</text><polygon fill="#181818" points="563.2319,475.4375,553.2319,479.4375,563.2319,483.4375,559.2319,479.4375" style="stroke:#181818;stroke-width:1;"/><line style="stroke:#181818;stroke-width:1;stroke-dasharray:2.0,2.0;" x1="557.2319" x2="912.6982" y1="479.4375" y2="479.4375"/><text fill="#000000" font-family="sans-serif" font-size="13" lengthAdjust="spacing" textLength="153.2134" x="569.2319" y="474.5811">Resultado del caso de uso</text><polygon fill="#181818" points="313.7759,505.7891,303.7759,509.7891,313.7759,513.7891,309.7759,509.7891" style="stroke:#181818;stroke-width:1;"/><line style="stroke:#181818;stroke-width:1;stroke-dasharray:2.0,2.0;" x1="307.7759" x2="551.2319" y1="509.7891" y2="509.7891"/><text fill="#000000" font-family="sans-serif" font-size="13" lengthAdjust="spacing" textLength="181.3779" x="319.7759" y="504.9326">200 OK (PublicacionResponse)</text><polygon fill="#181818" points="57.1343,536.1406,47.1343,540.1406,57.1343,544.1406,53.1343,540.1406" style="stroke:#181818;stroke-width:1;"/><line style="stroke:#181818;stroke-width:1;stroke-dasharray:2.0,2.0;" x1="51.1343" x2="301.7759" y1="540.1406" y2="540.1406"/><text fill="#000000" font-family="sans-serif" font-size="13" lengthAdjust="spacing" textLength="232.6416" x="63.1343" y="535.2842">Presenta PUBLICACIONES_ABIERTAS</text><!--SRC=[TPFHJzim4CRV_LUSU6gt8T0U8p6KD85LOnIrJ7j1GbVdMaupTcGxIDrVltEIicI3bogsl-_E_jtNoD4Gb8nxZyy8DK4WtPBLZ70AkFNixzgjOOsQdQMWK4VdOMbVA4JUO-syQj17rjoWZN3ol-KEz_HWPsiIw_m4CC2LTpQIhQVEaMaXvzuPGrwCcyQptKFXt63F6vuwDnJ4j27_mfewIR_pRlsfjFl-H-iComf7dawSzlNXtRfhQbnW0NJer6cfL8qHjnW8JehqAuXBZ2vqYh9GQimIJh-yqibWaxfnn3VcC9kheovv14a6rzKzd673PyrOURbZ8p0lu2DevtunAH4dJyye0xULAkJxPQvZYsQ6RNmYcmX4sPoh_X1EZwtoBWMYwaMr-rkqevc1uH3Hp_hcdw2BpLnP5mayxvyYkDr0CnDEeN4su9ODrrW3oxkynGmQyiyo1ozv2As9U6tS5eqQcgH-2N46ExPrSLYJIB76bQ_95uShqa_OluT_Tp1A2dguqLmbPwfG5WAwkgaMz_01hjQhxp31zs1_VgtM5VYXE5p03etCCRyj1IZBFwMcnxwed4NVaYgBZbH_jydO4WT-mJ1q7mDxM_Vwr2DvOPL8r4w2P41ZI1_GXc42a_nyFZ-7rJUOJHBQeQPnVCGppg1SnLEGmIBS_IXkbejyiLpTLfl7l5XMw_jyymS0]--></g></svg>