<svg xmlns="http://www.w3.org/2000/svg" xmlns:xlink="http://www.w3.org/1999/xlink" contentStyleType="text/css" height="711px" preserveAspectRatio="none" style="width:1996px;height:711px;background:#FFFFFF;" version="1.1" viewBox="0 0 1996 711" width="1996px" zoomAndPan="magnify"><title>Diagrama de secuencia - eliminarPublicacion</title><defs/><g><text fill="#000000" font-family="sans-serif" font-size="14" font-weight="bold" lengthAdjust="spacing" textLength="300.3369" x="849.6873" y="29.5332">Diagrama de secuencia - eliminarPublicacion</text><line style="stroke:#181818;stroke-width:0.5;stroke-dasharray:5.0,5.0;" x1="46" x2="46" y1="121.2188" y2="629.1953"/><line style="stroke:#181818;stroke-width:0.5;stroke-dasharray:5.0,5.0;" x1="332.4629" x2="332.4629" y1="121.2188" y2="629.1953"/><line style="stroke:#181818;stroke-width:0.5;stroke-dasharray:5.0,5.0;" x1="723.3535" x2="723.3535" y1="121.2188" y2="629.1953"/><line style="stroke:#181818;stroke-width:0.5;stroke-dasharray:5.0,5.0;" x1="956.334" x2="956.334" y1="121.2188" y2="629.1953"/><line style="stroke:#181818;stroke-width:0.5;stroke-dasharray:5.0,5.0;" x1="1084.8232" x2="1084.8232" y1="121.2188" y2="629.1953"/><line style="stroke:#181818;stroke-width:0.5;stroke-dasharray:5.0,5.0;" x1="1290.6816" x2="1290.6816" y1="121.2188" y2="629.1953"/><line style="stroke:#181818;stroke-width:0.5;stroke-dasharray:5.0,5.0;" x1="1442.4121" x2="1442.4121" y1="121.2188" y2="629.1953"/><line style="stroke:#181818;stroke-width:0.5;stroke-dasharray:5.0,5.0;" x1="1945.8774" x2="1945.8774" y1="121.2188" y2="629.1953"/><text fill="#000000" font-family="sans-serif" font-size="14" lengthAdjust="spacing" textLength="76.2686" x="5" y="118.1426">Investigador</text><ellipse cx="46.1343" cy="52.1094" fill="#E2E2F0" rx="8" ry="8" style="stroke:#181818;stroke-width:0.5;"/><path d="M46.1343,60.1094 L46.1343,87.1094 M33.1343,68.1094 L59.1343,68.1094 M46.1343,87.1094 L33.1343,102.1094 M46.1343,87.1094 L59.1343,102.1094 " fill="none" style="stroke:#181818;stroke-width:0.5;"/><text fill="#000000" font-family="sans-serif" font-size="14" lengthAdjust="spacing" textLength="76.2686" x="5" y="642.7285">Investigador</text><ellipse cx="46.1343" cy="654.3047" fill="#E2E2F0" rx="8" ry="8" style="stroke:#181818;stroke-width:0.5;"/><path d="M46.1343,662.3047 L46.1343,689.3047 M33.1343,670.3047 L59.1343,670.3047 M46.1343,689.3047 L33.1343,704.3047 M46.1343,689.3047 L59.1343,704.3047 " fill="none" style="stroke:#181818;stroke-width:0.5;"/><rect fill="#E2E2F0" height="49.2188" rx="2.5" ry="2.5" style="stroke:#181818;stroke-width:0.5;" width="167.3096" x="249.4629" y="71"/><text fill="#000000" font-family="sans-serif" font-size="14" lengthAdjust="spacing" textLength="153.3096" x="256.4629" y="92.5332">eliminarPublicacionPage</text><text fill="#000000" font-family="sans-serif" font-size="14" lengthAdjust="spacing" textLength="45.8965" x="310.1694" y="110.1426">(React)</text><rect fill="#E2E2F0" height="49.2188" rx="2.5" ry="2.5" style="stroke:#181818;stroke-width:0.5;" width="167.3096" x="249.4629" y="628.1953"/><text fill="#000000" font-family="sans-serif" font-size="14" lengthAdjust="spacing" textLength="153.3096" x="256.4629" y="649.7285">eliminarPublicacionPage</text><text fill="#000000" font-family="sans-serif" font-size="14" lengthAdjust="spacing" textLength="45.8965" x="310.1694" y="667.3379">(React)</text><rect fill="#E2E2F0" height="49.2188" rx="2.5" ry="2.5" style="stroke:#181818;stroke-width:0.5;" width="146.2891" x="650.3535" y="71"/><text fill="#000000" font-family="sans-serif" font-size="14" lengthAdjust="spacing" textLength="132.2891" x="657.3535" y="92.5332">PublicacionController</text><text fill="#000000" font-family="sans-serif" font-size="14" lengthAdjust="spacing" textLength="82.4824" x="682.2568" y="110.1426">(Spring Boot)</text><rect fill="#E2E2F0" height="49.2188" rx="2.5" ry="2.5" style="stroke:#181818;stroke-width:0.5;" width="146.2891" x="650.3535" y="628.1953"/><text fill="#000000" font-family="sans-serif" font-size="14" lengthAdjust="spacing" textLength="132.2891" x="657.3535" y="649.7285">PublicacionController</text><text fill="#000000" font-family="sans-serif" font-size="14" lengthAdjust="spacing" textLength="82.4824" x="682.2568" y="667.3379">(Spring Boot)</text><rect fill="#E2E2F0" height="31.6094" rx="2.5" ry="2.5" style="stroke:#181818;stroke-width:0.5;" width="103.4893" x="905.334" y="88.6094"/><text fill="#000000" font-family="sans-serif" font-size="14" lengthAdjust="spacing" textLength="89.4893" x="912.334" y="110.1426">SesionService</text><rect fill="#E2E2F0" height="31.6094" rx="2.5" ry="2.5" style="stroke:#181818;stroke-width:0.5;" width="103.4893" x="905.334" y="628.1953"/><text fill="#000000" font-family="sans-serif" font-size="14" lengthAdjust="spacing" textLength="89.4893" x="912.334" y="649.7285">SesionService</text><rect fill="#E2E2F0" height="31.6094" rx="2.5" ry="2.5" style="stroke:#181818;stroke-width:0.5;" width="132.2822" x="1018.8232" y="88.6094"/><text fill="#000000" font-family="sans-serif" font-size="14" lengthAdjust="spacing" textLength="118.2822" x="1025.8232" y="110.1426">PublicacionService</text><rect fill="#E2E2F0" height="31.6094" rx="2.5" ry="2.5" style="stroke:#181818;stroke-width:0.5;" width="132.2822" x="1018.8232" y="628.1953"/><text fill="#000000" font-family="sans-serif" font-size="14" lengthAdjust="spacing" textLength="118.2822" x="1025.8232" y="649.7285">PublicacionService</text><rect fill="#E2E2F0" height="31.6094" rx="2.5" ry="2.5" style="stroke:#181818;stroke-width:0.5;" width="130.7305" x="1225.6816" y="88.6094"/><text fill="#000000" font-family="sans-serif" font-size="14" lengthAdjust="spacing" textLength="116.7305" x="1232.6816" y="110.1426">PoliticaPublicacion</text><rect fill="#E2E2F0" height="31.6094" rx="2.5" ry="2.5" style="stroke:#181818;stroke-width:0.5;" width="130.7305" x="1225.6816" y="628.1953"/><text fill="#000000" font-family="sans-serif" font-size="14" lengthAdjust="spacing" textLength="116.7305" x="1232.6816" y="649.7285">PoliticaPublicacion</text><rect fill="#E2E2F0" height="31.6094" rx="2.5" ry="2.5" style="stroke:#181818;stroke-width:0.5;" width="152.5166" x="1366.4121" y="88.6094"/><text fill="#000000" font-family="sans-serif" font-size="14" lengthAdjust="spacing" textLength="138.5166" x="1373.4121" y="110.1426">PublicacionRepository</text><rect fill="#E2E2F0" height="31.6094" rx="2.5" ry="2.5" style="stroke:#181818;stroke-width:0.5;" width="152.5166" x="1366.4121" y="628.1953"/><text fill="#000000" font-family="sans-serif" font-size="14" lengthAdjust="spacing" textLength="138.5166" x="1373.4121" y="649.7285">PublicacionRepository</text><text fill="#000000" font-family="sans-serif" font-size="14" lengthAdjust="spacing" textLength="91.834" x="1897.8774" y="118.1426">Base de Datos</text><path d="M1928.7944,67.6094 C1928.7944,57.6094 1946.7944,57.6094 1946.7944,57.6094 C1946.7944,57.6094 1964.7944,57.6094 1964.7944,67.6094 L1964.7944,93.6094 C1964.7944,103.6094 1946.7944,103.6094 1946.7944,103.6094 C1946.7944,103.6094 1928.7944,103.6094 1928.7944,93.6094 L1928.7944,67.6094 " fill="#E2E2F0" style="stroke:#181818;stroke-width:1.5;"/><path d="M1928.7944,67.6094 C1928.7944,77.6094 1946.7944,77.6094 1946.7944,77.6094 C1946.7944,77.6094 1964.7944,77.6094 1964.7944,67.6094 " fill="none" style="stroke:#181818;stroke-width:1.5;"/><text fill="#000000" font-family="sans-serif" font-size="14" lengthAdjust="spacing" textLength="91.834" x="1897.8774" y="642.7285">Base de Datos</text><path d="M1928.7944,655.8047 C1928.7944,645.8047 1946.7944,645.8047 1946.7944,645.8047 C1946.7944,645.8047 1964.7944,645.8047 1964.7944,655.8047 L1964.7944,681.8047 C1964.7944,691.8047 1946.7944,691.8047 1946.7944,691.8047 C1946.7944,691.8047 1928.7944,691.8047 1928.7944,681.8047 L1928.7944,655.8047 " fill="#E2E2F0" style="stroke:#181818;stroke-width:1.5;"/><path d="M1928.7944,655.8047 C1928.7944,665.8047 1946.7944,665.8047 1946.7944,665.8047 C1946.7944,665.8047 1964.7944,665.8047 1964.7944,655.8047 " fill="none" style="stroke:#181818;stroke-width:1.5;"/><polygon fill="#181818" points="321.1177,149.5703,331.1177,153.5703,321.1177,157.5703,325.1177,153.5703" style="stroke:#181818;stroke-width:1;"/><line style="stroke:#181818;stroke-width:1;" x1="46.1343" x2="327.1177" y1="153.5703" y2="153.5703"/><text fill="#000000" font-family="sans-serif" font-size="13" lengthAdjust="spacing" textLength="166.1753" x="53.1343" y="148.7139">Solicita eliminarPublicacion()</text><polygon fill="#181818" points="711.498,179.9219,721.498,183.9219,711.498,187.9219,715.498,183.9219" style="stroke:#181818;stroke-width:1;"/><line style="stroke:#181818;stroke-width:1;" x1="333.1177" x2="717.498" y1="183.9219" y2="183.9219"/><text fill="#000000" font-family="sans-serif" font-size="13" lengthAdjust="spacing" textLength="366.3804" x="340.1177" y="179.0654">DELETE /api/publicaciones/me/{id} + RetiradaRequest + cookie</text><polygon fill="#181818" points="945.0786,210.2734,955.0786,214.2734,945.0786,218.2734,949.0786,214.2734" style="stroke:#181818;stroke-width:1;"/><line style="stroke:#181818;stroke-width:1;" x1="723.498" x2="951.0786" y1="214.2734" y2="214.2734"/><text fill="#000000" font-family="sans-serif" font-size="13" lengthAdjust="spacing" textLength="209.5806" x="730.498" y="209.417">obtenerSesionActual(authentication)</text><polygon fill="#181818" points="734.498,240.625,724.498,244.625,734.498,248.625,730.498,244.625" style="stroke:#181818;stroke-width:1;"/><line style="stroke:#181818;stroke-width:1;stroke-dasharray:2.0,2.0;" x1="728.498" x2="956.0786" y1="244.625" y2="244.625"/><text fill="#000000" font-family="sans-serif" font-size="13" lengthAdjust="spacing" textLength="101.1753" x="740.498" y="239.7686">Actor autenticado</text><polygon fill="#181818" points="1072.9644,270.9766,1082.9644,274.9766,1072.9644,278.9766,1076.9644,274.9766" style="stroke:#181818;stroke-width:1;"/><line style="stroke:#181818;stroke-width:1;" x1="723.498" x2="1078.9644" y1="274.9766" y2="274.9766"/><text fill="#000000" font-family="sans-serif" font-size="13" lengthAdjust="spacing" textLength="134.3608" x="730.498" y="270.1201">retirar(id, motivo, actor)</text><polygon fill="#181818" points="1430.6704,301.3281,1440.6704,305.3281,1430.6704,309.3281,1434.6704,305.3281" style="stroke:#181818;stroke-width:1;"/><line style="stroke:#181818;stroke-width:1;" x1="1084.9644" x2="1436.6704" y1="305.3281" y2="305.3281"/><text fill="#000000" font-family="sans-serif" font-size="13" lengthAdjust="spacing" textLength="138.0171" x="1091.9644" y="300.4717">findByIdAndRetirada(id)</text><polygon fill="#181818" points="1934.7944,331.6797,1944.7944,335.6797,1934.7944,339.6797,1938.7944,335.6797" style="stroke:#181818;stroke-width:1;"/><line style="stroke:#181818;stroke-width:1;" x1="1442.6704" x2="1940.7944" y1="335.6797" y2="335.6797"/><text fill="#000000" font-family="sans-serif" font-size="13" lengthAdjust="spacing" textLength="392.3105" x="1449.6704" y="330.8232">SELECT * FROM publicaciones WHERE id = ? AND retirada = false</text><polygon fill="#181818" points="1453.6704,362.0313,1443.6704,366.0313,1453.6704,370.0313,1449.6704,366.0313" style="stroke:#181818;stroke-width:1;"/><line style="stroke:#181818;stroke-width:1;stroke-dasharray:2.0,2.0;" x1="1447.6704" x2="1945.7944" y1="366.0313" y2="366.0313"/><text fill="#000000" font-family="sans-serif" font-size="13" lengthAdjust="spacing" textLength="107.6689" x="1459.6704" y="361.1748">Publicacion / vacio</text><polygon fill="#181818" points="1279.0469,392.3828,1289.0469,396.3828,1279.0469,400.3828,1283.0469,396.3828" style="stroke:#181818;stroke-width:1;"/><line style="stroke:#181818;stroke-width:1;" x1="1084.9644" x2="1285.0469" y1="396.3828" y2="396.3828"/><text fill="#000000" font-family="sans-serif" font-size="13" lengthAdjust="spacing" textLength="182.0825" x="1091.9644" y="391.5264">exigirAutoria(actor, publicacion)</text><polygon fill="#181818" points="1430.6704,422.7344,1440.6704,426.7344,1430.6704,430.7344,1434.6704,426.7344" style="stroke:#181818;stroke-width:1;"/><line style="stroke:#181818;stroke-width:1;" x1="1084.9644" x2="1436.6704" y1="426.7344" y2="426.7344"/><text fill="#000000" font-family="sans-serif" font-size="13" lengthAdjust="spacing" textLength="127.8735" x="1091.9644" y="421.8779">save(id, motivo, actor)</text><polygon fill="#181818" points="1934.7944,485.7891,1944.7944,489.7891,1934.7944,493.7891,1938.7944,489.7891" style="stroke:#181818;stroke-width:1;"/><line style="stroke:#181818;stroke-width:1;" x1="1442.6704" x2="1940.7944" y1="489.7891" y2="489.7891"/><text fill="#000000" font-family="sans-serif" font-size="13" lengthAdjust="spacing" textLength="252.5288" x="1449.6704" y="452.2295">UPDATE publicaciones SET retirada = true,</text><text fill="#000000" font-family="sans-serif" font-size="13" lengthAdjust="spacing" textLength="480.124" x="1449.6704" y="468.5811">fecha_retirada = CURRENT_TIMESTAMP, motivo_retirada = ?, retirado_por_id = ?</text><text fill="#000000" font-family="sans-serif" font-size="13" lengthAdjust="spacing" textLength="308.8833" x="1449.6704" y="484.9326">WHERE id = ? AND autor_id = ? AND retirada = false</text><polygon fill="#181818" points="1453.6704,516.1406,1443.6704,520.1406,1453.6704,524.1406,1449.6704,520.1406" style="stroke:#181818;stroke-width:1;"/><line style="stroke:#181818;stroke-width:1;stroke-dasharray:2.0,2.0;" x1="1447.6704" x2="1945.7944" y1="520.1406" y2="520.1406"/><text fill="#000000" font-family="sans-serif" font-size="13" lengthAdjust="spacing" textLength="114.1753" x="1459.6704" y="515.2842">Publicacion retirada</text><polygon fill="#181818" points="734.498,546.4922,724.498,550.4922,734.498,554.4922,730.498,550.4922" style="stroke:#181818;stroke-width:1;"/><line style="stroke:#181818;stroke-width:1;stroke-dasharray:2.0,2.0;" x1="728.498" x2="1083.9644" y1="550.4922" y2="550.4922"/><text fill="#000000" font-family="sans-serif" font-size="13" lengthAdjust="spacing" textLength="153.2134" x="740.498" y="545.6357">Resultado del caso de uso</text><polygon fill="#181818" points="344.1177,576.8438,334.1177,580.8438,344.1177,584.8438,340.1177,580.8438" style="stroke:#181818;stroke-width:1;"/><line style="stroke:#181818;stroke-width:1;stroke-dasharray:2.0,2.0;" x1="338.1177" x2="722.498" y1="580.8438" y2="580.8438"/><text fill="#000000" font-family="sans-serif" font-size="13" lengthAdjust="spacing" textLength="91.0635" x="350.1177" y="575.9873">204 No Content</text><polygon fill="#181818" points="57.1343,607.1953,47.1343,611.1953,57.1343,615.1953,53.1343,611.1953" style="stroke:#181818;stroke-width:1;"/><line style="stroke:#181818;stroke-width:1;stroke-dasharray:2.0,2.0;" x1="51.1343" x2="332.1177" y1="611.1953" y2="611.1953"/><text fill="#000000" font-family="sans-serif" font-size="13" lengthAdjust="spacing" textLength="262.9834" x="63.1343" y="606.3389">Presenta MIS_PUBLICACIONES_ABIERTAS</text><!--SRC=[dLF1Rjim3BtxAuYUaYr5Xc6d05jXnovceCa2syKk1GpMObDYZkH9Sh1YsBzFaklLsTBBBeP8lST7Fj6MRKkGCkur7X04WQ6c9zammYLGomUMg7VzVSiDDgnaX8rL6d9v96DvZqBfg4DjkU4EfOMBCvmTxkbEpWfotFa5e85hhQGbAKwf4yhQtMlLjgGTiUmqopqaIZtJuuvFcIKPHof97xcX01aohzO_XORpNrZLiejmmWbWds-UNgrRKASCEuUU0jg7KIJGuZqQWel4Vvt9ALfb0Y9DecXg9bn- -kFE2aglnXRFlSHi7er0JtAUh23DRh8gWoLslEnUe6IM1rh-PF4BthgUB6iKMD3tticwJAFKDwR8LV251kTMeEvTQT9363UsntQ6lNqawNsnBZcFXaku7FNZi1mEDO24UYaQF5w13kfwnc811sNvg1OGLieN2nWFzxwju86bI9vo4KinDkruyyZVUbIQE8VSnEiAti1ryMK39pF3ryzPaG4B-0XN46_JPt61Bl60hQ4eJKBlWzp4MrZ2qH-cFGqllmBwmNlMSUzwPfo5tXTJuJE363pIkOcdWzpkqjWztUa4PLPDcxQwfyMTVA3c4Uj9VdrR5DcsggjyavLLlDcDIbFGrM8ifUfEwNhmvKx-unBwqUh_icr4lbWmRaP1fc-jqtRhtqA3nX-WDyyRShBrxzzzWAs2TOZjPCiTQlglE6rDna4GDdbPxswJctmTh_ClswoiuoJFYYekVmC0]--></g></svg>