<svg xmlns="http://www.w3.org/2000/svg" xmlns:xlink="http://www.w3.org/1999/xlink" contentStyleType="text/css" data-diagram-type="DESCRIPTION" height="463px" preserveAspectRatio="none" style="width:1837px;height:463px;background:#FFFFFF;" version="1.1" viewBox="0 0 1837 463" width="1837px" zoomAndPan="magnify"><?plantuml 1.2026.5?><defs/><g><!--cluster abrirConvocatorias--><g class="cluster" data-qualified-name="abrirConvocatorias" data-source-line="5" id="ent0003"><path d="M247,6 L385.6963,6 A3.75,3.75 0 0 1 388.1963,8.5 L395.1963,29.6094 L805,29.6094 A2.5,2.5 0 0 1 807.5,32.1094 L807.5,445.5 A2.5,2.5 0 0 1 805,448 L247,448 A2.5,2.5 0 0 1 244.5,445.5 L244.5,8.5 A2.5,2.5 0 0 1 247,6" fill="none" style="stroke:#000000;stroke-width:1.5;"/><line style="stroke:#000000;stroke-width:1.5;" x1="244.5" x2="395.1963" y1="29.6094" y2="29.6094"/><text fill="#000000" font-family="sans-serif" font-size="14" font-weight="700" lengthAdjust="spacing" textLength="137.6963" x="248.5" y="22.5332">abrirConvocatorias()</text></g><!--entity ListarConvocatoriasView--><g class="entity" data-qualified-name="abrirConvocatorias.ListarConvocatoriasView" data-source-line="6" id="ent0004"><rect fill="#629EF9" height="37.6094" rx="2.5" ry="2.5" style="stroke:#181818;stroke-width:0.5;" width="174.0684" x="580.5" y="42"/><text fill="#000000" font-family="sans-serif" font-size="14" lengthAdjust="spacing" textLength="154.0684" x="590.5" y="66.5332">ListarConvocatoriasView</text></g><!--entity ConvocatoriaController--><g class="entity" data-qualified-name="abrirConvocatorias.ConvocatoriaController" data-source-line="7" id="ent0005"><rect fill="#B5BD68" height="37.6094" rx="2.5" ry="2.5" style="stroke:#181818;stroke-width:0.5;" width="163.1787" x="446" y="168.5"/><text fill="#000000" font-family="sans-serif" font-size="14" lengthAdjust="spacing" textLength="143.1787" x="456" y="193.0332">ConvocatoriaController</text></g><!--entity ConvocatoriaRepository--><g class="entity" data-qualified-name="abrirConvocatorias.ConvocatoriaRepository" data-source-line="8" id="ent0006"><rect fill="#F2AC4E" height="37.6094" rx="2.5" ry="2.5" style="stroke:#181818;stroke-width:0.5;" width="169.4063" x="341" y="295"/><text fill="#000000" font-family="sans-serif" font-size="14" lengthAdjust="spacing" textLength="149.4063" x="351" y="319.5332">ConvocatoriaRepository</text></g><!--entity Convocatoria--><g class="entity" data-qualified-name="abrirConvocatorias.Convocatoria" data-source-line="9" id="ent0007"><rect fill="#F2AC4E" height="37.6094" rx="2.5" ry="2.5" style="stroke:#181818;stroke-width:0.5;" width="102.4893" x="374.5" y="394"/><text fill="#000000" font-family="sans-serif" font-size="14" lengthAdjust="spacing" textLength="82.4893" x="384.5" y="418.5332">Convocatoria</text></g><!--entity EstadoEntrada1--><g class="entity" data-qualified-name="EstadoEntrada1" data-source-line="3" id="ent0001"><rect fill="#CDEBA5" height="37.6094" rx="2.5" ry="2.5" style="stroke:#181818;stroke-width:0.5;" width="220.7373" x="7" y="42"/><text fill="#000000" font-family="sans-serif" font-size="14" lengthAdjust="spacing" textLength="200.7373" x="17" y="66.5332">:PANEL_PRINCIPAL_ABIERTO</text></g><!--entity EstadoEntrada2--><g class="entity" data-qualified-name="EstadoEntrada2" data-source-line="4" id="ent0002"><rect fill="#CDEBA5" height="37.6094" rx="2.5" ry="2.5" style="stroke:#181818;stroke-width:0.5;" width="205.1445" x="995" y="42"/><text fill="#000000" font-family="sans-serif" font-size="14" lengthAdjust="spacing" textLength="185.1445" x="1005" y="66.5332">:CONVOCATORIA_ABIERTA</text></g><!--entity EstadoSalida--><g class="entity" data-qualified-name="EstadoSalida" data-source-line="12" id="ent0008"><rect fill="#CDEBA5" height="37.6094" rx="2.5" ry="2.5" style="stroke:#181818;stroke-width:0.5;" width="223.8203" x="823.5" y="168.5"/><text fill="#000000" font-family="sans-serif" font-size="14" lengthAdjust="spacing" textLength="203.8203" x="833.5" y="193.0332">:CONVOCATORIAS_ABIERTAS</text></g><!--entity AbrirConvocatoria--><g class="entity" data-qualified-name="AbrirConvocatoria" data-source-line="13" id="ent0009"><rect fill="#CDEBA5" height="37.6094" rx="2.5" ry="2.5" style="stroke:#181818;stroke-width:0.5;" width="222.3232" x="1082.5" y="168.5"/><text fill="#000000" font-family="sans-serif" font-size="14" lengthAdjust="spacing" textLength="202.3232" x="1092.5" y="193.0332">:Collaboration AbrirConvocatoria</text></g><!--entity AbrirPanelPrincipal--><g class="entity" data-qualified-name="AbrirPanelPrincipal" data-source-line="14" id="ent0010"><rect fill="#CDEBA5" height="37.6094" rx="2.5" ry="2.5" style="stroke:#181818;stroke-width:0.5;" width="229.3301" x="1340" y="168.5"/><text fill="#000000" font-family="sans-serif" font-size="14" lengthAdjust="spacing" textLength="209.3301" x="1350" y="193.0332">:Collaboration AbrirPanelPrincipal</text></g><g class="entity" data-qualified-name="GMN19" data-source-line="26" id="ent0020"><path d="M1604.5,158 L1604.5,217.0547 L1822.7852,217.0547 L1822.7852,168 L1812.7852,158 L1604.5,158" fill="#FEFFDD" style="stroke:#181818;stroke-width:0.5;"/><path d="M1812.7852,158 L1812.7852,168 L1822.7852,168 L1812.7852,158" fill="#FEFFDD" style="stroke:#181818;stroke-width:1;"/><text fill="#000000" font-family="sans-serif" font-size="13" lengthAdjust="spacing" textLength="107.6816" x="1610.5" y="176.4951">Contexto opcional:</text><text fill="#000000" font-family="sans-serif" font-size="13" lengthAdjust="spacing" textLength="181.3779" x="1610.5" y="192.8467">- sin identificador: listado global</text><text fill="#000000" font-family="sans-serif" font-size="13" lengthAdjust="spacing" textLength="197.2852" x="1610.5" y="209.1982">- con identificador: listado acotado</text></g><!--link EstadoEntrada1 to ListarConvocatoriasView--><g class="link" data-entity-1="ent0001" data-entity-2="ent0004" data-link-type="dependency" data-source-line="16" id="lnk11"><path d="M228.14,61 C331.81,61 479.72,61 575.09,61" fill="none" id="EstadoEntrada1-to-ListarConvocatoriasView" style="stroke:#181818;stroke-width:1;"/><polygon fill="#181818" points="580.09,61,571.09,57,575.09,61,571.09,65,580.09,61" style="stroke:#181818;stroke-width:1;stroke-linejoin:miter;stroke-miterlimit:10;"/><text fill="#000000" font-family="sans-serif" font-size="13" lengthAdjust="spacing" textLength="117.7617" x="345.75" y="54.4951">abrirConvocatorias()</text></g><!--link EstadoEntrada2 to ListarConvocatoriasView--><g class="link" data-entity-1="ent0002" data-entity-2="ent0004" data-link-type="dependency" data-source-line="17" id="lnk12"><path d="M994.72,61 C921.43,61 828.97,61 759.52,61" fill="none" id="EstadoEntrada2-to-ListarConvocatoriasView" style="stroke:#181818;stroke-width:1;"/><polygon fill="#181818" points="754.52,61,763.52,65,759.52,61,763.52,57,754.52,61" style="stroke:#181818;stroke-width:1;stroke-linejoin:miter;stroke-miterlimit:10;"/><text fill="#000000" font-family="sans-serif" font-size="13" lengthAdjust="spacing" textLength="204.4771" x="772.75" y="54.4951">abrirConvocatorias(idConvocatoria)</text></g><!--link ListarConvocatoriasView to ConvocatoriaController--><g class="link" data-entity-1="ent0004" data-entity-2="ent0005" data-link-type="dependency" data-source-line="19" id="lnk13"><path d="M580.41,78.72 C508.26,92.57 417.5,110 417.5,110 C417.5,110 417.5,128 417.5,128 C417.5,128 456.8656,148.9321 489.1856,166.1221" fill="none" id="ListarConvocatoriasView-to-ConvocatoriaController" style="stroke:#181818;stroke-width:1;"/><polygon fill="#181818" points="493.6,168.47,487.5323,160.7122,489.1856,166.1221,483.7757,167.7753,493.6,168.47" style="stroke:#181818;stroke-width:1;stroke-linejoin:miter;stroke-miterlimit:10;"/><text fill="#000000" font-family="sans-serif" font-size="13" lengthAdjust="spacing" textLength="168.3462" x="418.5" y="124.4951">listarConvocatorias(contexto)</text></g><!--link ListarConvocatoriasView to ConvocatoriaController--><g class="link" data-entity-1="ent0004" data-entity-2="ent0005" data-link-type="dependency" data-source-line="20" id="lnk14"><path d="M647.14,80.1 C620.6,103.71 578.177,141.4381 551.617,165.0481" fill="none" id="ListarConvocatoriasView-to-ConvocatoriaController-1" style="stroke:#181818;stroke-width:1;"/><polygon fill="#181818" points="547.88,168.37,557.2641,165.3801,551.617,165.0481,551.949,159.401,547.88,168.37" style="stroke:#181818;stroke-width:1;stroke-linejoin:miter;stroke-miterlimit:10;"/><text fill="#000000" font-family="sans-serif" font-size="13" lengthAdjust="spacing" textLength="159.6499" x="610.5" y="124.4951">filtrarConvocatorias(criterio)</text></g><!--link ConvocatoriaController to ConvocatoriaRepository--><g class="link" data-entity-1="ent0005" data-entity-2="ent0006" data-link-type="dependency" data-source-line="21" id="lnk15"><path d="M455.07,206.53 C386.03,223.72 292.5,247 292.5,247 C292.5,247 292.5,265 292.5,265 C292.5,265 333.1569,279.6727 370.8969,293.2927" fill="none" id="ConvocatoriaController-to-ConvocatoriaRepository" style="stroke:#181818;stroke-width:1;"/><polygon fill="#181818" points="375.6,294.99,368.4923,288.1724,370.8969,293.2927,365.7766,295.6973,375.6,294.99" style="stroke:#181818;stroke-width:1;stroke-linejoin:miter;stroke-miterlimit:10;"/><text fill="#000000" font-family="sans-serif" font-size="13" lengthAdjust="spacing" textLength="88.8799" x="293.5" y="261.4951">obtenerTodos()</text></g><!--link ConvocatoriaController to ConvocatoriaRepository--><g class="link" data-entity-1="ent0005" data-entity-2="ent0006" data-link-type="dependency" data-source-line="22" id="lnk16"><path d="M495.14,206.53 C464.29,223.72 422.5,247 422.5,247 C422.5,247 422.5,265 422.5,265 C422.5,265 423.2079,276.2698 424.0579,289.8598" fill="none" id="ConvocatoriaController-to-ConvocatoriaRepository-1" style="stroke:#181818;stroke-width:1;"/><polygon fill="#181818" points="424.37,294.85,427.8004,285.6179,424.0579,289.8598,419.816,286.1172,424.37,294.85" style="stroke:#181818;stroke-width:1;stroke-linejoin:miter;stroke-miterlimit:10;"/><text fill="#000000" font-family="sans-serif" font-size="13" lengthAdjust="spacing" textLength="174.1543" x="423.5" y="261.4951">obtenerPorContexto(contexto)</text></g><!--link ConvocatoriaController to ConvocatoriaRepository--><g class="link" data-entity-1="ent0005" data-entity-2="ent0006" data-link-type="dependency" data-source-line="23" id="lnk17"><path d="M550.82,206.69 C572.84,223.86 602.5,247 602.5,247 C602.5,247 602.5,265 602.5,265 C602.5,265 546.9657,280.0615 496.7357,293.6815" fill="none" id="ConvocatoriaController-to-ConvocatoriaRepository-2" style="stroke:#181818;stroke-width:1;"/><polygon fill="#181818" points="491.91,294.99,501.6431,296.4953,496.7357,293.6815,499.5495,288.7741,491.91,294.99" style="stroke:#181818;stroke-width:1;stroke-linejoin:miter;stroke-miterlimit:10;"/><text fill="#000000" font-family="sans-serif" font-size="13" lengthAdjust="spacing" textLength="148.8081" x="603.5" y="261.4951">buscarPorCriterio(criterio)</text></g><!--link ConvocatoriaRepository to Convocatoria--><g class="link" data-entity-1="ent0006" data-entity-2="ent0007" data-link-type="association" data-source-line="24" id="lnk18"><path d="M425.5,333.24 C425.5,350.59 425.5,376.52 425.5,393.84" fill="none" id="ConvocatoriaRepository-Convocatoria" style="stroke:#181818;stroke-width:1;"/></g><!--link ConvocatoriaController to GMN19--><g class="link" data-entity-1="ent0005" data-entity-2="ent0020" data-link-type="association" data-source-line="26" id="lnk21"><path d="M609.3,168.6 C697.07,148.33 824,119 824,119 C824,119 1569,119 1569,119 C1569,119 1611.91,139.34 1650.96,157.85" fill="none" id="ConvocatoriaController-GMN19" style="stroke:#181818;stroke-width:1;stroke-dasharray:7,7;"/></g><!--link ListarConvocatoriasView to EstadoSalida--><g class="link" data-entity-1="ent0004" data-entity-2="ent0008" data-link-type="dependency" data-source-line="30" id="lnk22"><path d="M709.15,80.01 C740.64,93.63 778.5,110 778.5,110 C778.5,110 847.3752,143.5598 893.7952,166.1798" fill="none" id="ListarConvocatoriasView-to-EstadoSalida" style="stroke:#181818;stroke-width:1;stroke-dasharray:7,7;"/><polygon fill="#181818" points="898.29,168.37,891.9516,160.8317,893.7952,166.1798,888.4472,168.0234,898.29,168.37" style="stroke:#181818;stroke-width:1;stroke-linejoin:miter;stroke-miterlimit:10;"/><text fill="#000000" font-family="sans-serif" font-size="13" lengthAdjust="spacing" textLength="130.7935" x="812.5" y="124.4951">continuarNavegacion()</text></g><!--link ListarConvocatoriasView to AbrirConvocatoria--><g class="link" data-entity-1="ent0004" data-entity-2="ent0009" data-link-type="dependency" data-source-line="31" id="lnk23"><path d="M754.64,76.73 C838.12,90.84 951.5,110 951.5,110 C951.5,110 1060.1426,144.3428 1131.6926,166.9628" fill="none" id="ListarConvocatoriasView-to-AbrirConvocatoria" style="stroke:#181818;stroke-width:1;stroke-dasharray:7,7;"/><polygon fill="#181818" points="1136.46,168.47,1129.0844,161.9431,1131.6926,166.9628,1126.6729,169.571,1136.46,168.47" style="stroke:#181818;stroke-width:1;stroke-linejoin:miter;stroke-miterlimit:10;"/><text fill="#000000" font-family="sans-serif" font-size="13" lengthAdjust="spacing" textLength="111.2617" x="1004.5" y="124.4951">abrirConvocatoria()</text></g><!--link ListarConvocatoriasView to AbrirPanelPrincipal--><g class="link" data-entity-1="ent0004" data-entity-2="ent0010" data-link-type="dependency" data-source-line="32" id="lnk24"><path d="M754.53,71.14 C887.13,85.07 1124.5,110 1124.5,110 C1124.5,110 1274.2792,144.7207 1371.8392,167.3407" fill="none" id="ListarConvocatoriasView-to-AbrirPanelPrincipal" style="stroke:#181818;stroke-width:1;stroke-dasharray:7,7;"/><polygon fill="#181818" points="1376.71,168.47,1368.846,162.5406,1371.8392,167.3407,1367.0391,170.3338,1376.71,168.47" style="stroke:#181818;stroke-width:1;stroke-linejoin:miter;stroke-miterlimit:10;"/><text fill="#000000" font-family="sans-serif" font-size="13" lengthAdjust="spacing" textLength="117.7681" x="1196.5" y="124.4951">abrirPanelPrincipal()</text></g><?plantuml-src dPFVQwD04CVVzwyOSY_9WuKBrtBreM2jXK1890bzBQExiKFtTcJTzYuSzx_V6XAYKNkvYk0wplVZ_AnUoPHeyGTeCihjIWKbwrtz8eHLkKDJQ0LVueVaFhg6KPX6YsJ-dAvcYtYMHlFdw7wMh3RB4M05IULGScASHObVU-NnSl6qZAFDSZMB3jgegvsA4lDNB1HWPid6RDuvHyUMlAU_HrtpU3A2tmByrVZjpVGsURo5ENbus_s9rCzpx-mwapVVeUddpyworigUEpzEe_XRqd9UgP8hyiVT1SxYZ_XdWTR72gqR9LgZ9edzMXyfPcpH4Hk8pckqXtIibv9ID4gdbanE9UeJgsqNeZq44DZWRgW18VJriKsO_Z-1PFDz8iI060BfoVtj3lq-T4JZt7zNlnnFXf4V4BUaVKhdI4jEMVB8Vbc7U9go43XpoYYxOSbruJvFIBaEQvzR8ybFyBAtAiSzxf3NG88dZSUr5yEmKs2fU770sw5jF4OBNEP-H5678e2A391Knj6MSZz2novAXa9pvgSp09_Ta0_cN3-5CXBg80QRV7Lrrrh6iAOwCcze5_Yk2gn36ay-r7Vsi6UKBq6qr-y0QHizvYy0?></g></svg>