<?xml version="1.0" encoding="us-ascii" standalone="no"?><svg xmlns="http://www.w3.org/2000/svg" xmlns:xlink="http://www.w3.org/1999/xlink" contentStyleType="text/css" height="459px" preserveAspectRatio="none" style="width:1396px;height:459px;background:#FFFFFF;" version="1.1" viewBox="0 0 1396 459" width="1396px" zoomAndPan="magnify"><defs/><g><!--cluster abrirConvocatorias--><g id="cluster_abrirConvocatorias"><path d="M239.5,29 L385.5,29 A3.75,3.75 0 0 1 388,31.5 L395,52.6094 L623.5,52.6094 A2.5,2.5 0 0 1 626,55.1094 L626,450 A2.5,2.5 0 0 1 623.5,452.5 L239.5,452.5 A2.5,2.5 0 0 1 237,450 L237,31.5 A2.5,2.5 0 0 1 239.5,29 " fill="none" style="stroke:#000000;stroke-width:1.5;"/><line style="stroke:#000000;stroke-width:1.5;" x1="237" x2="395" y1="52.6094" y2="52.6094"/><text fill="#000000" font-family="sans-serif" font-size="14" font-weight="bold" lengthAdjust="spacing" textLength="145" x="241" y="45.5332">abrirConvocatorias()</text></g><!--entity ListarConvocatoriasView--><g id="elem_ListarConvocatoriasView"><rect fill="#629EF9" height="37.6094" rx="2.5" ry="2.5" style="stroke:#181818;stroke-width:0.5;" width="175" x="434.5" y="65"/><text fill="#000000" font-family="sans-serif" font-size="14" lengthAdjust="spacing" textLength="155" x="444.5" y="89.5332">ListarConvocatoriasView</text></g><!--entity ConvocatoriaController--><g id="elem_ConvocatoriaController"><rect fill="#B5BD68" height="37.6094" rx="2.5" ry="2.5" style="stroke:#181818;stroke-width:0.5;" width="166" x="347" y="183.5"/><text fill="#000000" font-family="sans-serif" font-size="14" lengthAdjust="spacing" textLength="146" x="357" y="208.0332">ConvocatoriaController</text></g><!--entity PoliticaConvocatoria--><g id="elem_PoliticaConvocatoria"><rect fill="#B5BD68" height="37.6094" rx="2.5" ry="2.5" style="stroke:#181818;stroke-width:0.5;" width="149" x="253.5" y="299.5"/><text fill="#000000" font-family="sans-serif" font-size="14" lengthAdjust="spacing" textLength="129" x="263.5" y="324.0332">PoliticaConvocatoria</text></g><!--entity ConvocatoriaRepository--><g id="elem_ConvocatoriaRepository"><rect fill="#F2AC4E" height="37.6094" rx="2.5" ry="2.5" style="stroke:#181818;stroke-width:0.5;" width="172" x="438" y="299.5"/><text fill="#000000" font-family="sans-serif" font-size="14" lengthAdjust="spacing" textLength="152" x="448" y="324.0332">ConvocatoriaRepository</text></g><!--entity Convocatoria--><g id="elem_Convocatoria"><rect fill="#F2AC4E" height="37.6094" rx="2.5" ry="2.5" style="stroke:#181818;stroke-width:0.5;" width="104" x="472" y="398.5"/><text fill="#000000" font-family="sans-serif" font-size="14" lengthAdjust="spacing" textLength="84" x="482" y="423.0332">Convocatoria</text></g><!--entity Panel--><g id="elem_Panel"><rect fill="#CDEBA5" height="37.6094" rx="2.5" ry="2.5" style="stroke:#181818;stroke-width:0.5;" width="214" x="7" y="65"/><text fill="#000000" font-family="sans-serif" font-size="14" lengthAdjust="spacing" textLength="194" x="17" y="89.5332">:PANEL_PRINCIPAL_ABIERTO</text></g><!--entity Detalle--><g id="elem_Detalle"><rect fill="#CDEBA5" height="37.6094" rx="2.5" ry="2.5" style="stroke:#181818;stroke-width:0.5;" width="201" x="760.5" y="65"/><text fill="#000000" font-family="sans-serif" font-size="14" lengthAdjust="spacing" textLength="181" x="770.5" y="89.5332">:CONVOCATORIA_ABIERTA</text></g><!--entity Salida--><g id="elem_Salida"><rect fill="#CDEBA5" height="37.6094" rx="2.5" ry="2.5" style="stroke:#181818;stroke-width:0.5;" width="219" x="642.5" y="183.5"/><text fill="#000000" font-family="sans-serif" font-size="14" lengthAdjust="spacing" textLength="199" x="652.5" y="208.0332">:CONVOCATORIAS_ABIERTAS</text></g><!--entity AbrirConvocatoria--><g id="elem_AbrirConvocatoria"><rect fill="#CDEBA5" height="37.6094" rx="2.5" ry="2.5" style="stroke:#181818;stroke-width:0.5;" width="226" x="897" y="183.5"/><text fill="#000000" font-family="sans-serif" font-size="14" lengthAdjust="spacing" textLength="206" x="907" y="208.0332">:Collaboration AbrirConvocatoria</text></g><!--entity AbrirPanel--><g id="elem_AbrirPanel"><rect fill="#CDEBA5" height="37.6094" rx="2.5" ry="2.5" style="stroke:#181818;stroke-width:0.5;" width="232" x="1158" y="183.5"/><text fill="#000000" font-family="sans-serif" font-size="14" lengthAdjust="spacing" textLength="212" x="1168" y="208.0332">:Collaboration AbrirPanelPrincipal</text></g><g id="elem_GMN22"><path d="M997,62.5 L997,105.2031 L1219,105.2031 L1219,72.5 L1209,62.5 L997,62.5 " fill="#FEFFDD" style="stroke:#181818;stroke-width:0.5;"/><path d="M1209,62.5 L1209,72.5 L1219,72.5 L1209,62.5 " fill="#FEFFDD" style="stroke:#181818;stroke-width:1.0;"/><text fill="#000000" font-family="sans-serif" font-size="13" lengthAdjust="spacing" textLength="201" x="1003" y="80.9951">El origen de navegacion no cambia</text><text fill="#000000" font-family="sans-serif" font-size="13" lengthAdjust="spacing" textLength="164" x="1003" y="97.3467">el alcance global del listado.</text></g><!--link Panel to ListarConvocatoriasView--><g id="link_Panel_ListarConvocatoriasView"><path d="M221.2,84 C287.66,84 365.97,84 428.41,84 " fill="none" id="Panel-to-ListarConvocatoriasView" style="stroke:#181818;stroke-width:1.0;"/><polygon fill="#181818" points="434.41,84,425.41,80,429.41,84,425.41,88,434.41,84" style="stroke:#181818;stroke-width:1.0;"/><text fill="#000000" font-family="sans-serif" font-size="13" lengthAdjust="spacing" textLength="114" x="270.75" y="77.4951">abrirConvocatorias()</text></g><!--link Detalle to ListarConvocatoriasView--><g id="link_Detalle_ListarConvocatoriasView"><path d="M760.43,84 C712.56,84 661.84,84 615.74,84 " fill="none" id="Detalle-to-ListarConvocatoriasView" style="stroke:#181818;stroke-width:1.0;"/><polygon fill="#181818" points="609.74,84,618.74,88,614.74,84,618.74,80,609.74,84" style="stroke:#181818;stroke-width:1.0;"/><text fill="#000000" font-family="sans-serif" font-size="13" lengthAdjust="spacing" textLength="114" x="628" y="77.4951">abrirConvocatorias()</text></g><!--link ListarConvocatoriasView to ConvocatoriaController--><g id="link_ListarConvocatoriasView_ConvocatoriaController"><path d="M507.62,103.2 C490.34,125.09 465.2297,156.8921 447.9897,178.7121 " fill="none" id="ListarConvocatoriasView-to-ConvocatoriaController" style="stroke:#181818;stroke-width:1.0;"/><polygon fill="#181818" points="444.27,183.42,452.9881,178.838,447.3697,179.4968,446.711,173.8784,444.27,183.42" style="stroke:#181818;stroke-width:1.0;"/><text fill="#000000" font-family="sans-serif" font-size="13" lengthAdjust="spacing" textLength="178" x="482" y="149.9951">listarConvocatorias(filtro, actor)</text></g><!--link ConvocatoriaController to PoliticaConvocatoria--><g id="link_ConvocatoriaController_PoliticaConvocatoria"><path d="M393.98,221.51 C366.74,235.13 334,251.5 334,251.5 C334,251.5 331.964,273.9447 330.184,293.4947 " fill="none" id="ConvocatoriaController-to-PoliticaConvocatoria" style="stroke:#181818;stroke-width:1.0;"/><polygon fill="#181818" points="329.64,299.47,334.4396,290.8698,330.0934,294.4906,326.4725,290.1444,329.64,299.47" style="stroke:#181818;stroke-width:1.0;"/><text fill="#000000" font-family="sans-serif" font-size="13" lengthAdjust="spacing" textLength="131" x="335" y="265.9951">permitirConsulta(actor)</text></g><!--link ConvocatoriaController to ConvocatoriaRepository--><g id="link_ConvocatoriaController_ConvocatoriaRepository"><path d="M447.01,221.65 C459.76,235.24 475,251.5 475,251.5 C475,251.5 492.5241,275.102 507.0341,294.652 " fill="none" id="ConvocatoriaController-to-ConvocatoriaRepository" style="stroke:#181818;stroke-width:1.0;"/><polygon fill="#181818" points="510.61,299.47,508.4581,289.8591,507.6301,295.455,502.0342,294.627,510.61,299.47" style="stroke:#181818;stroke-width:1.0;"/><text fill="#000000" font-family="sans-serif" font-size="13" lengthAdjust="spacing" textLength="71" x="489" y="265.9951">buscar(filtro)</text></g><!--link ConvocatoriaRepository to Convocatoria--><g id="link_ConvocatoriaRepository_Convocatoria"><path d="M524,337.74 C524,355.09 524,381.02 524,398.34 " fill="none" id="ConvocatoriaRepository-Convocatoria" style="stroke:#181818;stroke-width:1.0;"/></g><!--link ListarConvocatoriasView to Salida--><g id="link_ListarConvocatoriasView_Salida"><path d="M574.66,103.09 C616.84,117.58 669,135.5 669,135.5 C669,135.5 700.0549,160.1842 724.6249,179.7342 " fill="none" id="ListarConvocatoriasView-to-Salida" style="stroke:#181818;stroke-width:1.0;stroke-dasharray:7.0,7.0;"/><polygon fill="#181818" points="729.32,183.47,724.7679,174.7362,725.4074,180.3568,719.7868,180.9963,729.32,183.47" style="stroke:#181818;stroke-width:1.0;"/><text fill="#000000" font-family="sans-serif" font-size="13" lengthAdjust="spacing" textLength="104" x="692" y="149.9951">presentarListado()</text></g><!--link ListarConvocatoriasView to AbrirConvocatoria--><g id="link_ListarConvocatoriasView_AbrirConvocatoria"><path d="M609.6,100.63 C692.72,115.46 805,135.5 805,135.5 C805,135.5 887.579,162.0803 948.269,181.6303 " fill="none" id="ListarConvocatoriasView-to-AbrirConvocatoria" style="stroke:#181818;stroke-width:1.0;stroke-dasharray:7.0,7.0;"/><polygon fill="#181818" points="953.98,183.47,946.6399,176.9031,949.2208,181.9369,944.187,184.5178,953.98,183.47" style="stroke:#181818;stroke-width:1.0;"/><text fill="#000000" font-family="sans-serif" font-size="13" lengthAdjust="spacing" textLength="117" x="860" y="149.9951">abrirConvocatoria(id)</text></g><!--link ListarConvocatoriasView to AbrirPanel--><g id="link_ListarConvocatoriasView_AbrirPanel"><path d="M609.55,94.53 C744.01,109.16 986,135.5 986,135.5 C986,135.5 1104.1817,162.5792 1189.4517,182.1292 " fill="none" id="ListarConvocatoriasView-to-AbrirPanel" style="stroke:#181818;stroke-width:1.0;stroke-dasharray:7.0,7.0;"/><polygon fill="#181818" points="1195.3,183.47,1187.4215,177.5599,1190.4264,182.3526,1185.6337,185.3576,1195.3,183.47" style="stroke:#181818;stroke-width:1.0;"/><text fill="#000000" font-family="sans-serif" font-size="13" lengthAdjust="spacing" textLength="116" x="1064" y="149.9951">abrirPanelPrincipal()</text></g><!--link ListarConvocatoriasView to GMN22--><g id="link_ListarConvocatoriasView_GMN22"><path d="M580.34,64.92 C650.95,41.83 760.5,6 760.5,6 C760.5,6 961.5,6 961.5,6 C961.5,6 1024.22,39.39 1067.58,62.48 " fill="none" id="ListarConvocatoriasView-GMN22" style="stroke:#181818;stroke-width:1.0;stroke-dasharray:7.0,7.0;"/></g><!--SRC=[dLFHIkj047tVhnXwNohOFeYAva5OOuH2QKChlifaCyR5xMxOh5xAnNzt4dEnQPDhkI6GtSavPoTdJgfNRKlqk06ZBOLjIL0wiwqtGdXI0MrX27x5Tycjl81HbCf5CdzALxD5F4lb_4dUpfBLmt84M46AbamlAruk7fUnV5YkPhAbo8PoHm6D8L6YUiM203ElVUpikrCOdDSCuNjqM1wVZE2F0Bvsphiykqxkhs6kgu1T-AEct_lex2BBBwzW5yVhu1qtv0V0gJCwQ8Mxf7te_PcCpvEExefALsbURey0YuyVFLp_DN7TkBX6etFiP_7NOEOy1kqio7qV6_f1zLYbPk2frrRf4istrbSGHFE0YP_S38qaWhx9YZOL_qCTGCCaPwd-KKUS_GFI-5aRVdyAgBXm8lgfC67Llan4K9BVSBbMhTvCmF7FGls9YI1xgnJwjgEkmZUC5Ref6d9YEhrf0yDDUgh8Cgm1v-uV1jQqWw3q366iyoD4ccYqx6wAk0LXNI3mkdW9u9u7V-V406yAif0JM7od0bKTJUj0uIPZ2pXzQ1HQHL0Obw5XfFcQTkwcWcmEzL6V]--></g></svg>