<?xml version="1.0" encoding="us-ascii" standalone="no"?><svg xmlns="http://www.w3.org/2000/svg" xmlns:xlink="http://www.w3.org/1999/xlink" contentStyleType="text/css" height="1068px" preserveAspectRatio="none" style="width:2431px;height:1068px;background:#FFFFFF;" version="1.1" viewBox="0 0 2431 1068" width="2431px" zoomAndPan="magnify"><defs/><g><text fill="#000000" font-family="sans-serif" font-size="14" font-weight="bold" lengthAdjust="spacing" textLength="454" x="989.5" y="29.5332">Diagrama de secuencia - Abrir investigadores como Coordinador</text><rect fill="#FFFFFF" height="822.6484" style="stroke:#181818;stroke-width:1.0;" width="10" x="338.5" y="153.5703"/><rect fill="#FFFFFF" height="476.9453" style="stroke:#181818;stroke-width:1.0;" width="10" x="707.5" y="200.2734"/><rect fill="#FFFFFF" height="55.7031" style="stroke:#181818;stroke-width:1.0;" width="10" x="945.5" y="230.625"/><rect fill="#FFFFFF" height="330.1875" style="stroke:#181818;stroke-width:1.0;" width="10" x="1076.5" y="316.6797"/><rect fill="none" height="723.5938" style="stroke:#000000;stroke-width:1.5;" width="2414" x="10" y="245.625"/><rect fill="none" height="383.8906" style="stroke:#000000;stroke-width:1.5;" width="2394" x="20" y="331.6797"/><rect fill="none" height="125.7578" style="stroke:#000000;stroke-width:1.5;" width="1140.5" x="20" y="729.5703"/><line style="stroke:#181818;stroke-width:0.5;stroke-dasharray:5.0,5.0;" x1="72" x2="72" y1="121.2188" y2="986.2188"/><line style="stroke:#181818;stroke-width:0.5;stroke-dasharray:5.0,5.0;" x1="343" x2="343" y1="121.2188" y2="986.2188"/><line style="stroke:#181818;stroke-width:0.5;stroke-dasharray:5.0,5.0;" x1="712" x2="712" y1="121.2188" y2="986.2188"/><line style="stroke:#181818;stroke-width:0.5;stroke-dasharray:5.0,5.0;" x1="950.5" x2="950.5" y1="121.2188" y2="986.2188"/><line style="stroke:#181818;stroke-width:0.5;stroke-dasharray:5.0,5.0;" x1="1081.5" x2="1081.5" y1="121.2188" y2="986.2188"/><line style="stroke:#181818;stroke-width:0.5;stroke-dasharray:5.0,5.0;" x1="1523.5" x2="1523.5" y1="121.2188" y2="986.2188"/><line style="stroke:#181818;stroke-width:0.5;stroke-dasharray:5.0,5.0;" x1="1667.5" x2="1667.5" y1="121.2188" y2="986.2188"/><line style="stroke:#181818;stroke-width:0.5;stroke-dasharray:5.0,5.0;" x1="2354" x2="2354" y1="121.2188" y2="986.2188"/><text fill="#000000" font-family="sans-serif" font-size="14" lengthAdjust="spacing" textLength="79" x="30" y="118.1426">Coordinador</text><ellipse cx="72.5" cy="52.1094" fill="#E2E2F0" rx="8" ry="8" style="stroke:#181818;stroke-width:0.5;"/><path d="M72.5,60.1094 L72.5,87.1094 M59.5,68.1094 L85.5,68.1094 M72.5,87.1094 L59.5,102.1094 M72.5,87.1094 L85.5,102.1094 " fill="none" style="stroke:#181818;stroke-width:0.5;"/><text fill="#000000" font-family="sans-serif" font-size="14" lengthAdjust="spacing" textLength="79" x="30" y="999.752">Coordinador</text><ellipse cx="72.5" cy="1011.3281" fill="#E2E2F0" rx="8" ry="8" style="stroke:#181818;stroke-width:0.5;"/><path d="M72.5,1019.3281 L72.5,1046.3281 M59.5,1027.3281 L85.5,1027.3281 M72.5,1046.3281 L59.5,1061.3281 M72.5,1046.3281 L85.5,1061.3281 " fill="none" style="stroke:#181818;stroke-width:0.5;"/><rect fill="#E2E2F0" height="49.2188" rx="2.5" ry="2.5" style="stroke:#181818;stroke-width:0.5;" width="139" x="274" y="71"/><text fill="#000000" font-family="sans-serif" font-size="14" lengthAdjust="spacing" textLength="125" x="281" y="92.5332">InvestigadoresPage</text><text fill="#000000" font-family="sans-serif" font-size="14" lengthAdjust="spacing" textLength="47" x="320" y="110.1426">(React)</text><rect fill="#E2E2F0" height="49.2188" rx="2.5" ry="2.5" style="stroke:#181818;stroke-width:0.5;" width="139" x="274" y="985.2188"/><text fill="#000000" font-family="sans-serif" font-size="14" lengthAdjust="spacing" textLength="125" x="281" y="1006.752">InvestigadoresPage</text><text fill="#000000" font-family="sans-serif" font-size="14" lengthAdjust="spacing" textLength="47" x="320" y="1024.3613">(React)</text><rect fill="#E2E2F0" height="49.2188" rx="2.5" ry="2.5" style="stroke:#181818;stroke-width:0.5;" width="153" x="636" y="71"/><text fill="#000000" font-family="sans-serif" font-size="14" lengthAdjust="spacing" textLength="139" x="643" y="92.5332">InvestigadorController</text><text fill="#000000" font-family="sans-serif" font-size="14" lengthAdjust="spacing" textLength="84" x="670.5" y="110.1426">(Spring Boot)</text><rect fill="#E2E2F0" height="49.2188" rx="2.5" ry="2.5" style="stroke:#181818;stroke-width:0.5;" width="153" x="636" y="985.2188"/><text fill="#000000" font-family="sans-serif" font-size="14" lengthAdjust="spacing" textLength="139" x="643" y="1006.752">InvestigadorController</text><text fill="#000000" font-family="sans-serif" font-size="14" lengthAdjust="spacing" textLength="84" x="670.5" y="1024.3613">(Spring Boot)</text><rect fill="#E2E2F0" height="31.6094" rx="2.5" ry="2.5" style="stroke:#181818;stroke-width:0.5;" width="104" x="898.5" y="88.6094"/><text fill="#000000" font-family="sans-serif" font-size="14" lengthAdjust="spacing" textLength="90" x="905.5" y="110.1426">SesionService</text><rect fill="#E2E2F0" height="31.6094" rx="2.5" ry="2.5" style="stroke:#181818;stroke-width:0.5;" width="104" x="898.5" y="985.2188"/><text fill="#000000" font-family="sans-serif" font-size="14" lengthAdjust="spacing" textLength="90" x="905.5" y="1006.752">SesionService</text><rect fill="#E2E2F0" height="31.6094" rx="2.5" ry="2.5" style="stroke:#181818;stroke-width:0.5;" width="138" x="1012.5" y="88.6094"/><text fill="#000000" font-family="sans-serif" font-size="14" lengthAdjust="spacing" textLength="124" x="1019.5" y="110.1426">InvestigadorService</text><rect fill="#E2E2F0" height="31.6094" rx="2.5" ry="2.5" style="stroke:#181818;stroke-width:0.5;" width="138" x="1012.5" y="985.2188"/><text fill="#000000" font-family="sans-serif" font-size="14" lengthAdjust="spacing" textLength="124" x="1019.5" y="1006.752">InvestigadorService</text><rect fill="#E2E2F0" height="31.6094" rx="2.5" ry="2.5" style="stroke:#181818;stroke-width:0.5;" width="130" x="1458.5" y="88.6094"/><text fill="#000000" font-family="sans-serif" font-size="14" lengthAdjust="spacing" textLength="116" x="1465.5" y="110.1426">UsuarioRepository</text><rect fill="#E2E2F0" height="31.6094" rx="2.5" ry="2.5" style="stroke:#181818;stroke-width:0.5;" width="130" x="1458.5" y="985.2188"/><text fill="#000000" font-family="sans-serif" font-size="14" lengthAdjust="spacing" textLength="116" x="1465.5" y="1006.752">UsuarioRepository</text><rect fill="#E2E2F0" height="31.6094" rx="2.5" ry="2.5" style="stroke:#181818;stroke-width:0.5;" width="138" x="1598.5" y="88.6094"/><text fill="#000000" font-family="sans-serif" font-size="14" lengthAdjust="spacing" textLength="124" x="1605.5" y="110.1426">ProyectoRepository</text><rect fill="#E2E2F0" height="31.6094" rx="2.5" ry="2.5" style="stroke:#181818;stroke-width:0.5;" width="138" x="1598.5" y="985.2188"/><text fill="#000000" font-family="sans-serif" font-size="14" lengthAdjust="spacing" textLength="124" x="1605.5" y="1006.752">ProyectoRepository</text><text fill="#000000" font-family="sans-serif" font-size="14" lengthAdjust="spacing" textLength="93" x="2305" y="118.1426">Base de Datos</text><path d="M2336.5,67.6094 C2336.5,57.6094 2354.5,57.6094 2354.5,57.6094 C2354.5,57.6094 2372.5,57.6094 2372.5,67.6094 L2372.5,93.6094 C2372.5,103.6094 2354.5,103.6094 2354.5,103.6094 C2354.5,103.6094 2336.5,103.6094 2336.5,93.6094 L2336.5,67.6094 " fill="#E2E2F0" style="stroke:#181818;stroke-width:1.5;"/><path d="M2336.5,67.6094 C2336.5,77.6094 2354.5,77.6094 2354.5,77.6094 C2354.5,77.6094 2372.5,77.6094 2372.5,67.6094 " fill="none" style="stroke:#181818;stroke-width:1.5;"/><text fill="#000000" font-family="sans-serif" font-size="14" lengthAdjust="spacing" textLength="93" x="2305" y="999.752">Base de Datos</text><path d="M2336.5,1012.8281 C2336.5,1002.8281 2354.5,1002.8281 2354.5,1002.8281 C2354.5,1002.8281 2372.5,1002.8281 2372.5,1012.8281 L2372.5,1038.8281 C2372.5,1048.8281 2354.5,1048.8281 2354.5,1048.8281 C2354.5,1048.8281 2336.5,1048.8281 2336.5,1038.8281 L2336.5,1012.8281 " fill="#E2E2F0" style="stroke:#181818;stroke-width:1.5;"/><path d="M2336.5,1012.8281 C2336.5,1022.8281 2354.5,1022.8281 2354.5,1022.8281 C2354.5,1022.8281 2372.5,1022.8281 2372.5,1012.8281 " fill="none" style="stroke:#181818;stroke-width:1.5;"/><rect fill="#FFFFFF" height="822.6484" style="stroke:#181818;stroke-width:1.0;" width="10" x="338.5" y="153.5703"/><rect fill="#FFFFFF" height="476.9453" style="stroke:#181818;stroke-width:1.0;" width="10" x="707.5" y="200.2734"/><rect fill="#FFFFFF" height="55.7031" style="stroke:#181818;stroke-width:1.0;" width="10" x="945.5" y="230.625"/><rect fill="#FFFFFF" height="330.1875" style="stroke:#181818;stroke-width:1.0;" width="10" x="1076.5" y="316.6797"/><polygon fill="#181818" points="326.5,149.5703,336.5,153.5703,326.5,157.5703,330.5,153.5703" style="stroke:#181818;stroke-width:1.0;"/><line style="stroke:#181818;stroke-width:1.0;" x1="72.5" x2="332.5" y1="153.5703" y2="153.5703"/><text fill="#000000" font-family="sans-serif" font-size="13" lengthAdjust="spacing" textLength="158" x="79.5" y="148.7139">Solicita abrir investigadores</text><polygon fill="#181818" points="695.5,196.2734,705.5,200.2734,695.5,204.2734,699.5,200.2734" style="stroke:#181818;stroke-width:1.0;"/><line style="stroke:#181818;stroke-width:1.0;" x1="348.5" x2="701.5" y1="200.2734" y2="200.2734"/><text fill="#000000" font-family="sans-serif" font-size="13" lengthAdjust="spacing" textLength="340" x="355.5" y="179.0654">GET /api/investigadores?criterio={criterio}&amp;proyectoId={id?}</text><text fill="#000000" font-family="sans-serif" font-size="13" lengthAdjust="spacing" textLength="100" x="355.5" y="195.417">Cookie de sesion</text><polygon fill="#181818" points="933.5,226.625,943.5,230.625,933.5,234.625,937.5,230.625" style="stroke:#181818;stroke-width:1.0;"/><line style="stroke:#181818;stroke-width:1.0;" x1="717.5" x2="939.5" y1="230.625" y2="230.625"/><text fill="#000000" font-family="sans-serif" font-size="13" lengthAdjust="spacing" textLength="209" x="724.5" y="225.7686">obtenerSesionActual(authentication)</text><path d="M10,245.625 L71,245.625 L71,253.9766 L61,263.9766 L10,263.9766 L10,245.625 " fill="#EEEEEE" style="stroke:#000000;stroke-width:1.5;"/><rect fill="none" height="723.5938" style="stroke:#000000;stroke-width:1.5;" width="2414" x="10" y="245.625"/><text fill="#000000" font-family="sans-serif" font-size="13" font-weight="bold" lengthAdjust="spacing" textLength="16" x="25" y="260.1201">alt</text><text fill="#000000" font-family="sans-serif" font-size="11" font-weight="bold" lengthAdjust="spacing" textLength="80" x="86" y="259.0439">[Sesion valida]</text><polygon fill="#181818" points="728.5,282.3281,718.5,286.3281,728.5,290.3281,724.5,286.3281" style="stroke:#181818;stroke-width:1.0;"/><line style="stroke:#181818;stroke-width:1.0;stroke-dasharray:2.0,2.0;" x1="722.5" x2="949.5" y1="286.3281" y2="286.3281"/><text fill="#000000" font-family="sans-serif" font-size="13" lengthAdjust="spacing" textLength="170" x="734.5" y="281.4717">SesionResponse(usuario, rol)</text><polygon fill="#181818" points="1064.5,312.6797,1074.5,316.6797,1064.5,320.6797,1068.5,316.6797" style="stroke:#181818;stroke-width:1.0;"/><line style="stroke:#181818;stroke-width:1.0;" x1="717.5" x2="1070.5" y1="316.6797" y2="316.6797"/><text fill="#000000" font-family="sans-serif" font-size="13" lengthAdjust="spacing" textLength="196" x="724.5" y="311.8232">listar(sesion, criterio, proyectoId?)</text><path d="M20,331.6797 L81,331.6797 L81,340.0313 L71,350.0313 L20,350.0313 L20,331.6797 " fill="#EEEEEE" style="stroke:#000000;stroke-width:1.5;"/><rect fill="none" height="383.8906" style="stroke:#000000;stroke-width:1.5;" width="2394" x="20" y="331.6797"/><text fill="#000000" font-family="sans-serif" font-size="13" font-weight="bold" lengthAdjust="spacing" textLength="16" x="35" y="346.1748">alt</text><text fill="#000000" font-family="sans-serif" font-size="11" font-weight="bold" lengthAdjust="spacing" textLength="254" x="96" y="345.0986">[Rol Coordinador y sin proyecto seleccionado]</text><polygon fill="#181818" points="1511.5,368.3828,1521.5,372.3828,1511.5,376.3828,1515.5,372.3828" style="stroke:#181818;stroke-width:1.0;"/><line style="stroke:#181818;stroke-width:1.0;" x1="1086.5" x2="1517.5" y1="372.3828" y2="372.3828"/><text fill="#000000" font-family="sans-serif" font-size="13" lengthAdjust="spacing" textLength="413" x="1093.5" y="367.5264">findByRolAndActivoTrueOrderByNombreCompletoAsc(INVESTIGADOR)</text><polygon fill="#181818" points="2342.5,398.7344,2352.5,402.7344,2342.5,406.7344,2346.5,402.7344" style="stroke:#181818;stroke-width:1.0;"/><line style="stroke:#181818;stroke-width:1.0;" x1="1523.5" x2="2348.5" y1="402.7344" y2="402.7344"/><text fill="#000000" font-family="sans-serif" font-size="13" lengthAdjust="spacing" textLength="533" x="1530.5" y="397.8779">SELECT * FROM usuarios WHERE rol = ? AND activo = true ORDER BY nombre_completo</text><polygon fill="#181818" points="1534.5,429.0859,1524.5,433.0859,1534.5,437.0859,1530.5,433.0859" style="stroke:#181818;stroke-width:1.0;"/><line style="stroke:#181818;stroke-width:1.0;stroke-dasharray:2.0,2.0;" x1="1528.5" x2="2353.5" y1="433.0859" y2="433.0859"/><text fill="#000000" font-family="sans-serif" font-size="13" lengthAdjust="spacing" textLength="150" x="1540.5" y="428.2295">Resultado de persistencia</text><polygon fill="#181818" points="1097.5,459.4375,1087.5,463.4375,1097.5,467.4375,1093.5,463.4375" style="stroke:#181818;stroke-width:1.0;"/><line style="stroke:#181818;stroke-width:1.0;stroke-dasharray:2.0,2.0;" x1="1091.5" x2="1522.5" y1="463.4375" y2="463.4375"/><text fill="#000000" font-family="sans-serif" font-size="13" lengthAdjust="spacing" textLength="88" x="1103.5" y="458.5811">Lista&lt;Usuario&gt;</text><line style="stroke:#000000;stroke-width:1.0;stroke-dasharray:2.0,2.0;" x1="20" x2="2414" y1="472.4375" y2="472.4375"/><text fill="#000000" font-family="sans-serif" font-size="11" font-weight="bold" lengthAdjust="spacing" textLength="158" x="25" y="483.8564">[Con proyecto seleccionado]</text><polygon fill="#181818" points="1655.5,505.625,1665.5,509.625,1655.5,513.625,1659.5,509.625" style="stroke:#181818;stroke-width:1.0;"/><line style="stroke:#181818;stroke-width:1.0;" x1="1086.5" x2="1661.5" y1="509.625" y2="509.625"/><text fill="#000000" font-family="sans-serif" font-size="13" lengthAdjust="spacing" textLength="234" x="1093.5" y="504.7686">obtenerParticipantes(proyectoId, criterio)</text><polygon fill="#181818" points="2342.5,535.9766,2352.5,539.9766,2342.5,543.9766,2346.5,539.9766" style="stroke:#181818;stroke-width:1.0;"/><line style="stroke:#181818;stroke-width:1.0;" x1="1667.5" x2="2348.5" y1="539.9766" y2="539.9766"/><text fill="#000000" font-family="sans-serif" font-size="13" lengthAdjust="spacing" textLength="663" x="1674.5" y="535.1201">SELECT u.* FROM usuarios u JOIN proyecto_investigadores pi ON pi.usuario_id = u.id WHERE pi.proyecto_id = ?</text><polygon fill="#181818" points="1678.5,566.3281,1668.5,570.3281,1678.5,574.3281,1674.5,570.3281" style="stroke:#181818;stroke-width:1.0;"/><line style="stroke:#181818;stroke-width:1.0;stroke-dasharray:2.0,2.0;" x1="1672.5" x2="2353.5" y1="570.3281" y2="570.3281"/><text fill="#000000" font-family="sans-serif" font-size="13" lengthAdjust="spacing" textLength="150" x="1684.5" y="565.4717">Resultado de persistencia</text><polygon fill="#181818" points="1097.5,596.6797,1087.5,600.6797,1097.5,604.6797,1093.5,600.6797" style="stroke:#181818;stroke-width:1.0;"/><line style="stroke:#181818;stroke-width:1.0;stroke-dasharray:2.0,2.0;" x1="1091.5" x2="1666.5" y1="600.6797" y2="600.6797"/><text fill="#000000" font-family="sans-serif" font-size="13" lengthAdjust="spacing" textLength="88" x="1103.5" y="595.8232">Lista&lt;Usuario&gt;</text><line style="stroke:#000000;stroke-width:1.0;stroke-dasharray:2.0,2.0;" x1="20" x2="2414" y1="609.6797" y2="609.6797"/><text fill="#000000" font-family="sans-serif" font-size="11" font-weight="bold" lengthAdjust="spacing" textLength="103" x="25" y="621.0986">[Rol no autorizado]</text><polygon fill="#181818" points="728.5,642.8672,718.5,646.8672,728.5,650.8672,724.5,646.8672" style="stroke:#181818;stroke-width:1.0;"/><line style="stroke:#181818;stroke-width:1.0;stroke-dasharray:2.0,2.0;" x1="722.5" x2="1080.5" y1="646.8672" y2="646.8672"/><text fill="#000000" font-family="sans-serif" font-size="13" lengthAdjust="spacing" textLength="173" x="734.5" y="642.0107">AccesoNoPermitidoException</text><polygon fill="#181818" points="359.5,673.2188,349.5,677.2188,359.5,681.2188,355.5,677.2188" style="stroke:#181818;stroke-width:1.0;"/><line style="stroke:#181818;stroke-width:1.0;stroke-dasharray:2.0,2.0;" x1="353.5" x2="711.5" y1="677.2188" y2="677.2188"/><text fill="#000000" font-family="sans-serif" font-size="13" lengthAdjust="spacing" textLength="82" x="365.5" y="672.3623">403 Forbidden</text><polygon fill="#181818" points="83.5,703.5703,73.5,707.5703,83.5,711.5703,79.5,707.5703" style="stroke:#181818;stroke-width:1.0;"/><line style="stroke:#181818;stroke-width:1.0;stroke-dasharray:2.0,2.0;" x1="77.5" x2="337.5" y1="707.5703" y2="707.5703"/><text fill="#000000" font-family="sans-serif" font-size="13" lengthAdjust="spacing" textLength="146" x="89.5" y="702.7139">Presenta error de acceso</text><path d="M20,729.5703 L81,729.5703 L81,737.9219 L71,747.9219 L20,747.9219 L20,729.5703 " fill="#EEEEEE" style="stroke:#000000;stroke-width:1.5;"/><rect fill="none" height="125.7578" style="stroke:#000000;stroke-width:1.5;" width="1140.5" x="20" y="729.5703"/><text fill="#000000" font-family="sans-serif" font-size="13" font-weight="bold" lengthAdjust="spacing" textLength="16" x="35" y="744.0654">alt</text><text fill="#000000" font-family="sans-serif" font-size="11" font-weight="bold" lengthAdjust="spacing" textLength="110" x="96" y="742.9893">[Respuesta exitosa]</text><polygon fill="#181818" points="723.5,766.2734,713.5,770.2734,723.5,774.2734,719.5,770.2734" style="stroke:#181818;stroke-width:1.0;"/><line style="stroke:#181818;stroke-width:1.0;stroke-dasharray:2.0,2.0;" x1="717.5" x2="1080.5" y1="770.2734" y2="770.2734"/><text fill="#000000" font-family="sans-serif" font-size="13" lengthAdjust="spacing" textLength="225" x="729.5" y="765.417">Lista&lt;InvestigadorResumenResponse&gt;</text><polygon fill="#181818" points="359.5,812.9766,349.5,816.9766,359.5,820.9766,355.5,816.9766" style="stroke:#181818;stroke-width:1.0;"/><line style="stroke:#181818;stroke-width:1.0;stroke-dasharray:2.0,2.0;" x1="353.5" x2="711.5" y1="816.9766" y2="816.9766"/><text fill="#000000" font-family="sans-serif" font-size="13" lengthAdjust="spacing" textLength="44" x="365.5" y="795.7686">200 OK</text><text fill="#000000" font-family="sans-serif" font-size="13" lengthAdjust="spacing" textLength="159" x="365.5" y="812.1201">Directorio de investigadores</text><polygon fill="#181818" points="83.5,843.3281,73.5,847.3281,83.5,851.3281,79.5,847.3281" style="stroke:#181818;stroke-width:1.0;"/><line style="stroke:#181818;stroke-width:1.0;stroke-dasharray:2.0,2.0;" x1="77.5" x2="337.5" y1="847.3281" y2="847.3281"/><text fill="#000000" font-family="sans-serif" font-size="13" lengthAdjust="spacing" textLength="242" x="89.5" y="842.4717">Presenta INVESTIGADORES_ABIERTOS</text><line style="stroke:#000000;stroke-width:1.0;stroke-dasharray:2.0,2.0;" x1="10" x2="2424" y1="863.3281" y2="863.3281"/><text fill="#000000" font-family="sans-serif" font-size="11" font-weight="bold" lengthAdjust="spacing" textLength="148" x="15" y="874.7471">[Sesion ausente o invalida]</text><polygon fill="#181818" points="723.5,896.5156,713.5,900.5156,723.5,904.5156,719.5,900.5156" style="stroke:#181818;stroke-width:1.0;"/><line style="stroke:#181818;stroke-width:1.0;stroke-dasharray:2.0,2.0;" x1="717.5" x2="949.5" y1="900.5156" y2="900.5156"/><text fill="#000000" font-family="sans-serif" font-size="13" lengthAdjust="spacing" textLength="150" x="729.5" y="895.6592">SesionNoValidaException</text><polygon fill="#181818" points="359.5,926.8672,349.5,930.8672,359.5,934.8672,355.5,930.8672" style="stroke:#181818;stroke-width:1.0;"/><line style="stroke:#181818;stroke-width:1.0;stroke-dasharray:2.0,2.0;" x1="353.5" x2="711.5" y1="930.8672" y2="930.8672"/><text fill="#000000" font-family="sans-serif" font-size="13" lengthAdjust="spacing" textLength="101" x="365.5" y="926.0107">401 Unauthorized</text><polygon fill="#181818" points="83.5,957.2188,73.5,961.2188,83.5,965.2188,79.5,961.2188" style="stroke:#181818;stroke-width:1.0;"/><line style="stroke:#181818;stroke-width:1.0;stroke-dasharray:2.0,2.0;" x1="77.5" x2="337.5" y1="961.2188" y2="961.2188"/><text fill="#000000" font-family="sans-serif" font-size="13" lengthAdjust="spacing" textLength="146" x="89.5" y="956.3623">Presenta error de acceso</text><!--SRC=[fLLjJzim4FxUNt7YmrGctlRogHfK2GbRDzPMQM6QX8JS-CQifNPaEuWEyTztTjAyT7GWLgcjSxxNvxcxM64pX4Ym6ysM33Y2mRH0cGe6-n0ijD0Wv2qQAsuOLneDf6gfu5GfpOLqebwFfLRfZYXdsefKv4nQs1brxAVi1gzaFq6osjq1Pk1CAsbHykrMfwIWLPQX9ijPheMyWL2foZx8HTTqXaOeEKDzArBqAgLaUu2khZztbIzCmRHG2URA2AfsvLLRqgxwLAiL4YeR-crnZpFB5imWx8Jkbw2Fc5N6AqPXhzV24_PFQfG6C5CP1R8Cs2FqE3B4BRFOmBe-E2-4rG0-ndCuPBaux9eEKoqiKZt7z-lJmwkyIdd4Z-y57pvSIShhby2oLJogTKH717rTd1Bm0QW5HKPTFWQfBLZMPuNzYPB0OfQ4kurznHBBR7M4MvO9pdf0dqgolowYV4xGv4eQx1Sb5Nj0VRBh3JXkEdRIEZzFyW0oOIpJ_RAKFLWNlWTDuSFINyjRsI1UIBacAcitFwp025dR4qePfYbvfqjlKrRZVRXKMaqqW1z2yd157WF90nTGpNM14yrHXwknMYuqdgfbdg5LWKdxe_5bF9kFFWRH9DcjdRSykW1HI6Z5v_7f75x3MJBv2XLO1hvzYfFOGGR7C8HW79LLAdgq51ScIHGd47u7wKDVfrNiEbGKUaOwDH0dHMQfMjSZEMf34FkDydY2RJRE7HiVgkiJhuyP3GSjWES3sfwokWEdpNYYwJVaDfGt-BKTR01O76n2MC3doMXSPtUziIsftIPqAmugWsl12TpYWFvAyEcgiNLtmqrmk_KyZMut_UV0wpfOAg31L5hyVXJMzTW5QOf6ZTKKzL9OmLLybs9kr-Frr-0rer9FNsUPlJzw1sTABmJd-AWBjrJMucQJaO_Mo0sePZIqKnYWrZI210tpYPOrqXAiXvKMHa44aUOTBMR3jfTQejL-JJZibrWldPENbVpsw0WcNwva9BIZYQXm-MwiyVz7ehqRujbr48xYP3wPrOXuvgkjoWfdWw1S6a_jtB6wz2fTvl-nRZS8VmCNqhq3NAyXxssfyWLSkwfQdjOU_W00]--></g></svg>