<svg xmlns="http://www.w3.org/2000/svg" xmlns:xlink="http://www.w3.org/1999/xlink" contentStyleType="text/css" height="1068px" preserveAspectRatio="none" style="width:2438px;height:1068px;background:#FFFFFF;" version="1.1" viewBox="0 0 2438 1068" width="2438px" zoomAndPan="magnify"><title>Diagrama de secuencia - Abrir investigadores como Coordinador</title><defs/><g><text fill="#000000" font-family="sans-serif" font-size="14" font-weight="bold" lengthAdjust="spacing" textLength="433.3369" x="1003.7969" y="29.5332">Diagrama de secuencia - Abrir investigadores como Coordinador</text><rect fill="#FFFFFF" height="822.6484" style="stroke:#181818;stroke-width:1;" width="10" x="339.7119" y="153.5703"/><rect fill="#FFFFFF" height="476.9453" style="stroke:#181818;stroke-width:1;" width="10" x="711.9614" y="200.2734"/><rect fill="#FFFFFF" height="55.7031" style="stroke:#181818;stroke-width:1;" width="10" x="950.542" y="230.625"/><rect fill="#FFFFFF" height="330.1875" style="stroke:#181818;stroke-width:1;" width="10" x="1080.7622" y="316.6797"/><rect fill="none" height="723.5938" style="stroke:#000000;stroke-width:1.5;" width="2421.9307" x="10" y="245.625"/><rect fill="none" height="383.8906" style="stroke:#000000;stroke-width:1.5;" width="2401.9307" x="20" y="331.6797"/><rect fill="none" height="125.7578" style="stroke:#000000;stroke-width:1.5;" width="1144.2378" x="20" y="729.5703"/><line style="stroke:#181818;stroke-width:0.5;stroke-dasharray:5.0,5.0;" x1="71" x2="71" y1="121.2188" y2="986.2188"/><line style="stroke:#181818;stroke-width:0.5;stroke-dasharray:5.0,5.0;" x1="343.8364" x2="343.8364" y1="121.2188" y2="986.2188"/><line style="stroke:#181818;stroke-width:0.5;stroke-dasharray:5.0,5.0;" x1="716.4824" x2="716.4824" y1="121.2188" y2="986.2188"/><line style="stroke:#181818;stroke-width:0.5;stroke-dasharray:5.0,5.0;" x1="954.7974" x2="954.7974" y1="121.2188" y2="986.2188"/><line style="stroke:#181818;stroke-width:0.5;stroke-dasharray:5.0,5.0;" x1="1085.2866" x2="1085.2866" y1="121.2188" y2="986.2188"/><line style="stroke:#181818;stroke-width:0.5;stroke-dasharray:5.0,5.0;" x1="1533.9219" x2="1533.9219" y1="121.2188" y2="986.2188"/><line style="stroke:#181818;stroke-width:0.5;stroke-dasharray:5.0,5.0;" x1="1677.0801" x2="1677.0801" y1="121.2188" y2="986.2188"/><line style="stroke:#181818;stroke-width:0.5;stroke-dasharray:5.0,5.0;" x1="2362.0967" x2="2362.0967" y1="121.2188" y2="986.2188"/><text fill="#000000" font-family="sans-serif" font-size="14" lengthAdjust="spacing" textLength="77.0479" x="30" y="118.1426">Coordinador</text><ellipse cx="71.5239" cy="52.1094" fill="#E2E2F0" rx="8" ry="8" style="stroke:#181818;stroke-width:0.5;"/><path d="M71.5239,60.1094 L71.5239,87.1094 M58.5239,68.1094 L84.5239,68.1094 M71.5239,87.1094 L58.5239,102.1094 M71.5239,87.1094 L84.5239,102.1094 " fill="none" style="stroke:#181818;stroke-width:0.5;"/><text fill="#000000" font-family="sans-serif" font-size="14" lengthAdjust="spacing" textLength="77.0479" x="30" y="999.752">Coordinador</text><ellipse cx="71.5239" cy="1011.3281" fill="#E2E2F0" rx="8" ry="8" style="stroke:#181818;stroke-width:0.5;"/><path d="M71.5239,1019.3281 L71.5239,1046.3281 M58.5239,1027.3281 L84.5239,1027.3281 M71.5239,1046.3281 L58.5239,1061.3281 M71.5239,1046.3281 L84.5239,1061.3281 " fill="none" style="stroke:#181818;stroke-width:0.5;"/><rect fill="#E2E2F0" height="49.2188" rx="2.5" ry="2.5" style="stroke:#181818;stroke-width:0.5;" width="137.751" x="275.8364" y="71"/><text fill="#000000" font-family="sans-serif" font-size="14" lengthAdjust="spacing" textLength="123.751" x="282.8364" y="92.5332">InvestigadoresPage</text><text fill="#000000" font-family="sans-serif" font-size="14" lengthAdjust="spacing" textLength="45.8965" x="321.7637" y="110.1426">(React)</text><rect fill="#E2E2F0" height="49.2188" rx="2.5" ry="2.5" style="stroke:#181818;stroke-width:0.5;" width="137.751" x="275.8364" y="985.2188"/><text fill="#000000" font-family="sans-serif" font-size="14" lengthAdjust="spacing" textLength="123.751" x="282.8364" y="1006.752">InvestigadoresPage</text><text fill="#000000" font-family="sans-serif" font-size="14" lengthAdjust="spacing" textLength="45.8965" x="321.7637" y="1024.3613">(React)</text><rect fill="#E2E2F0" height="49.2188" rx="2.5" ry="2.5" style="stroke:#181818;stroke-width:0.5;" width="150.958" x="641.4824" y="71"/><text fill="#000000" font-family="sans-serif" font-size="14" lengthAdjust="spacing" textLength="136.958" x="648.4824" y="92.5332">InvestigadorController</text><text fill="#000000" font-family="sans-serif" font-size="14" lengthAdjust="spacing" textLength="82.4824" x="675.7202" y="110.1426">(Spring Boot)</text><rect fill="#E2E2F0" height="49.2188" rx="2.5" ry="2.5" style="stroke:#181818;stroke-width:0.5;" width="150.958" x="641.4824" y="985.2188"/><text fill="#000000" font-family="sans-serif" font-size="14" lengthAdjust="spacing" textLength="136.958" x="648.4824" y="1006.752">InvestigadorController</text><text fill="#000000" font-family="sans-serif" font-size="14" lengthAdjust="spacing" textLength="82.4824" x="675.7202" y="1024.3613">(Spring Boot)</text><rect fill="#E2E2F0" height="31.6094" rx="2.5" ry="2.5" style="stroke:#181818;stroke-width:0.5;" width="103.4893" x="903.7974" y="88.6094"/><text fill="#000000" font-family="sans-serif" font-size="14" lengthAdjust="spacing" textLength="89.4893" x="910.7974" y="110.1426">SesionService</text><rect fill="#E2E2F0" height="31.6094" rx="2.5" ry="2.5" style="stroke:#181818;stroke-width:0.5;" width="103.4893" x="903.7974" y="985.2188"/><text fill="#000000" font-family="sans-serif" font-size="14" lengthAdjust="spacing" textLength="89.4893" x="910.7974" y="1006.752">SesionService</text><rect fill="#E2E2F0" height="31.6094" rx="2.5" ry="2.5" style="stroke:#181818;stroke-width:0.5;" width="136.9512" x="1017.2866" y="88.6094"/><text fill="#000000" font-family="sans-serif" font-size="14" lengthAdjust="spacing" textLength="122.9512" x="1024.2866" y="110.1426">InvestigadorService</text><rect fill="#E2E2F0" height="31.6094" rx="2.5" ry="2.5" style="stroke:#181818;stroke-width:0.5;" width="136.9512" x="1017.2866" y="985.2188"/><text fill="#000000" font-family="sans-serif" font-size="14" lengthAdjust="spacing" textLength="122.9512" x="1024.2866" y="1006.752">InvestigadorService</text><rect fill="#E2E2F0" height="31.6094" rx="2.5" ry="2.5" style="stroke:#181818;stroke-width:0.5;" width="129.1582" x="1469.9219" y="88.6094"/><text fill="#000000" font-family="sans-serif" font-size="14" lengthAdjust="spacing" textLength="115.1582" x="1476.9219" y="110.1426">UsuarioRepository</text><rect fill="#E2E2F0" height="31.6094" rx="2.5" ry="2.5" style="stroke:#181818;stroke-width:0.5;" width="129.1582" x="1469.9219" y="985.2188"/><text fill="#000000" font-family="sans-serif" font-size="14" lengthAdjust="spacing" textLength="115.1582" x="1476.9219" y="1006.752">UsuarioRepository</text><rect fill="#E2E2F0" height="31.6094" rx="2.5" ry="2.5" style="stroke:#181818;stroke-width:0.5;" width="136.165" x="1609.0801" y="88.6094"/><text fill="#000000" font-family="sans-serif" font-size="14" lengthAdjust="spacing" textLength="122.165" x="1616.0801" y="110.1426">ProyectoRepository</text><rect fill="#E2E2F0" height="31.6094" rx="2.5" ry="2.5" style="stroke:#181818;stroke-width:0.5;" width="136.165" x="1609.0801" y="985.2188"/><text fill="#000000" font-family="sans-serif" font-size="14" lengthAdjust="spacing" textLength="122.165" x="1616.0801" y="1006.752">ProyectoRepository</text><text fill="#000000" font-family="sans-serif" font-size="14" lengthAdjust="spacing" textLength="91.834" x="2314.0967" y="118.1426">Base de Datos</text><path d="M2345.0137,67.6094 C2345.0137,57.6094 2363.0137,57.6094 2363.0137,57.6094 C2363.0137,57.6094 2381.0137,57.6094 2381.0137,67.6094 L2381.0137,93.6094 C2381.0137,103.6094 2363.0137,103.6094 2363.0137,103.6094 C2363.0137,103.6094 2345.0137,103.6094 2345.0137,93.6094 L2345.0137,67.6094 " fill="#E2E2F0" style="stroke:#181818;stroke-width:1.5;"/><path d="M2345.0137,67.6094 C2345.0137,77.6094 2363.0137,77.6094 2363.0137,77.6094 C2363.0137,77.6094 2381.0137,77.6094 2381.0137,67.6094 " fill="none" style="stroke:#181818;stroke-width:1.5;"/><text fill="#000000" font-family="sans-serif" font-size="14" lengthAdjust="spacing" textLength="91.834" x="2314.0967" y="999.752">Base de Datos</text><path d="M2345.0137,1012.8281 C2345.0137,1002.8281 2363.0137,1002.8281 2363.0137,1002.8281 C2363.0137,1002.8281 2381.0137,1002.8281 2381.0137,1012.8281 L2381.0137,1038.8281 C2381.0137,1048.8281 2363.0137,1048.8281 2363.0137,1048.8281 C2363.0137,1048.8281 2345.0137,1048.8281 2345.0137,1038.8281 L2345.0137,1012.8281 " fill="#E2E2F0" style="stroke:#181818;stroke-width:1.5;"/><path d="M2345.0137,1012.8281 C2345.0137,1022.8281 2363.0137,1022.8281 2363.0137,1022.8281 C2363.0137,1022.8281 2381.0137,1022.8281 2381.0137,1012.8281 " fill="none" style="stroke:#181818;stroke-width:1.5;"/><rect fill="#FFFFFF" height="822.6484" style="stroke:#181818;stroke-width:1;" width="10" x="339.7119" y="153.5703"/><rect fill="#FFFFFF" height="476.9453" style="stroke:#181818;stroke-width:1;" width="10" x="711.9614" y="200.2734"/><rect fill="#FFFFFF" height="55.7031" style="stroke:#181818;stroke-width:1;" width="10" x="950.542" y="230.625"/><rect fill="#FFFFFF" height="330.1875" style="stroke:#181818;stroke-width:1;" width="10" x="1080.7622" y="316.6797"/><polygon fill="#181818" points="327.7119,149.5703,337.7119,153.5703,327.7119,157.5703,331.7119,153.5703" style="stroke:#181818;stroke-width:1;"/><line style="stroke:#181818;stroke-width:1;" x1="71.5239" x2="333.7119" y1="153.5703" y2="153.5703"/><text fill="#000000" font-family="sans-serif" font-size="13" lengthAdjust="spacing" textLength="158.9644" x="78.5239" y="148.7139">Solicita abrir investigadores</text><polygon fill="#181818" points="699.9614,196.2734,709.9614,200.2734,699.9614,204.2734,703.9614,200.2734" style="stroke:#181818;stroke-width:1;"/><line style="stroke:#181818;stroke-width:1;" x1="349.7119" x2="705.9614" y1="200.2734" y2="200.2734"/><text fill="#000000" font-family="sans-serif" font-size="13" lengthAdjust="spacing" textLength="343.2495" x="356.7119" y="179.0654">GET /api/investigadores?criterio={criterio}&amp;proyectoId={id?}</text><text fill="#000000" font-family="sans-serif" font-size="13" lengthAdjust="spacing" textLength="99.728" x="356.7119" y="195.417">Cookie de sesion</text><polygon fill="#181818" points="938.542,226.625,948.542,230.625,938.542,234.625,942.542,230.625" style="stroke:#181818;stroke-width:1;"/><line style="stroke:#181818;stroke-width:1;" x1="721.9614" x2="944.542" y1="230.625" y2="230.625"/><text fill="#000000" font-family="sans-serif" font-size="13" lengthAdjust="spacing" textLength="209.5806" x="728.9614" y="225.7686">obtenerSesionActual(authentication)</text><path d="M10,245.625 L70.1709,245.625 L70.1709,253.9766 L60.1709,263.9766 L10,263.9766 L10,245.625 " fill="#EEEEEE" style="stroke:#000000;stroke-width:1.5;"/><rect fill="none" height="723.5938" style="stroke:#000000;stroke-width:1.5;" width="2421.9307" x="10" y="245.625"/><text fill="#000000" font-family="sans-serif" font-size="13" font-weight="bold" lengthAdjust="spacing" textLength="15.1709" x="25" y="260.1201">alt</text><text fill="#000000" font-family="sans-serif" font-size="11" font-weight="bold" lengthAdjust="spacing" textLength="77.6338" x="85.1709" y="259.0439">[Sesion valida]</text><polygon fill="#181818" points="732.9614,282.3281,722.9614,286.3281,732.9614,290.3281,728.9614,286.3281" style="stroke:#181818;stroke-width:1;"/><line style="stroke:#181818;stroke-width:1;stroke-dasharray:2.0,2.0;" x1="726.9614" x2="954.542" y1="286.3281" y2="286.3281"/><text fill="#000000" font-family="sans-serif" font-size="13" lengthAdjust="spacing" textLength="98.2871" x="738.9614" y="281.4717">SesionResponse</text><polygon fill="#181818" points="1068.7622,312.6797,1078.7622,316.6797,1068.7622,320.6797,1072.7622,316.6797" style="stroke:#181818;stroke-width:1;"/><line style="stroke:#181818;stroke-width:1;" x1="721.9614" x2="1074.7622" y1="316.6797" y2="316.6797"/><text fill="#000000" font-family="sans-serif" font-size="13" lengthAdjust="spacing" textLength="195.0698" x="728.9614" y="311.8232">listar(sesion, criterio, proyectoId?)</text><path d="M20,331.6797 L80.1709,331.6797 L80.1709,340.0313 L70.1709,350.0313 L20,350.0313 L20,331.6797 " fill="#EEEEEE" style="stroke:#000000;stroke-width:1.5;"/><rect fill="none" height="383.8906" style="stroke:#000000;stroke-width:1.5;" width="2401.9307" x="20" y="331.6797"/><text fill="#000000" font-family="sans-serif" font-size="13" font-weight="bold" lengthAdjust="spacing" textLength="15.1709" x="35" y="346.1748">alt</text><text fill="#000000" font-family="sans-serif" font-size="11" font-weight="bold" lengthAdjust="spacing" textLength="244.4814" x="95.1709" y="345.0986">[Rol Coordinador y sin proyecto seleccionado]</text><polygon fill="#181818" points="1522.501,368.3828,1532.501,372.3828,1522.501,376.3828,1526.501,372.3828" style="stroke:#181818;stroke-width:1;"/><line style="stroke:#181818;stroke-width:1;" x1="1090.7622" x2="1528.501" y1="372.3828" y2="372.3828"/><text fill="#000000" font-family="sans-serif" font-size="13" lengthAdjust="spacing" textLength="419.7388" x="1097.7622" y="367.5264">findByRolAndActivoTrueOrderByNombreCompletoAsc(INVESTIGADOR)</text><polygon fill="#181818" points="2351.0137,398.7344,2361.0137,402.7344,2351.0137,406.7344,2355.0137,402.7344" style="stroke:#181818;stroke-width:1;"/><line style="stroke:#181818;stroke-width:1;" x1="1534.501" x2="2357.0137" y1="402.7344" y2="402.7344"/><text fill="#000000" font-family="sans-serif" font-size="13" lengthAdjust="spacing" textLength="531.0068" x="1541.501" y="397.8779">SELECT * FROM usuarios WHERE rol = ? AND activo = true ORDER BY nombre_completo</text><polygon fill="#181818" points="1545.501,429.0859,1535.501,433.0859,1545.501,437.0859,1541.501,433.0859" style="stroke:#181818;stroke-width:1;"/><line style="stroke:#181818;stroke-width:1;stroke-dasharray:2.0,2.0;" x1="1539.501" x2="2362.0137" y1="433.0859" y2="433.0859"/><text fill="#000000" font-family="sans-serif" font-size="13" lengthAdjust="spacing" textLength="149.5889" x="1551.501" y="428.2295">Resultado de persistencia</text><polygon fill="#181818" points="1101.7622,459.4375,1091.7622,463.4375,1101.7622,467.4375,1097.7622,463.4375" style="stroke:#181818;stroke-width:1;"/><line style="stroke:#181818;stroke-width:1;stroke-dasharray:2.0,2.0;" x1="1095.7622" x2="1533.501" y1="463.4375" y2="463.4375"/><text fill="#000000" font-family="sans-serif" font-size="13" lengthAdjust="spacing" textLength="87.439" x="1107.7622" y="458.5811">Lista&lt;Usuario&gt;</text><line style="stroke:#000000;stroke-width:1;stroke-dasharray:2.0,2.0;" x1="20" x2="2421.9307" y1="472.4375" y2="472.4375"/><text fill="#000000" font-family="sans-serif" font-size="11" font-weight="bold" lengthAdjust="spacing" textLength="150.9707" x="25" y="483.8564">[Con proyecto seleccionado]</text><polygon fill="#181818" points="1665.1626,505.625,1675.1626,509.625,1665.1626,513.625,1669.1626,509.625" style="stroke:#181818;stroke-width:1;"/><line style="stroke:#181818;stroke-width:1;" x1="1090.7622" x2="1671.1626" y1="509.625" y2="509.625"/><text fill="#000000" font-family="sans-serif" font-size="13" lengthAdjust="spacing" textLength="162.5635" x="1097.7622" y="504.7686">findById(proyectoId, criterio)</text><polygon fill="#181818" points="2351.0137,535.9766,2361.0137,539.9766,2351.0137,543.9766,2355.0137,539.9766" style="stroke:#181818;stroke-width:1;"/><line style="stroke:#181818;stroke-width:1;" x1="1677.1626" x2="2357.0137" y1="539.9766" y2="539.9766"/><text fill="#000000" font-family="sans-serif" font-size="13" lengthAdjust="spacing" textLength="661.8511" x="1684.1626" y="535.1201">SELECT u.* FROM usuarios u JOIN proyecto_investigadores pi ON pi.usuario_id = u.id WHERE pi.proyecto_id = ?</text><polygon fill="#181818" points="1688.1626,566.3281,1678.1626,570.3281,1688.1626,574.3281,1684.1626,570.3281" style="stroke:#181818;stroke-width:1;"/><line style="stroke:#181818;stroke-width:1;stroke-dasharray:2.0,2.0;" x1="1682.1626" x2="2362.0137" y1="570.3281" y2="570.3281"/><text fill="#000000" font-family="sans-serif" font-size="13" lengthAdjust="spacing" textLength="149.5889" x="1694.1626" y="565.4717">Resultado de persistencia</text><polygon fill="#181818" points="1101.7622,596.6797,1091.7622,600.6797,1101.7622,604.6797,1097.7622,600.6797" style="stroke:#181818;stroke-width:1;"/><line style="stroke:#181818;stroke-width:1;stroke-dasharray:2.0,2.0;" x1="1095.7622" x2="1676.1626" y1="600.6797" y2="600.6797"/><text fill="#000000" font-family="sans-serif" font-size="13" lengthAdjust="spacing" textLength="87.439" x="1107.7622" y="595.8232">Lista&lt;Usuario&gt;</text><line style="stroke:#000000;stroke-width:1;stroke-dasharray:2.0,2.0;" x1="20" x2="2421.9307" y1="609.6797" y2="609.6797"/><text fill="#000000" font-family="sans-serif" font-size="11" font-weight="bold" lengthAdjust="spacing" textLength="100.2085" x="25" y="621.0986">[Rol no autorizado]</text><polygon fill="#181818" points="732.9614,642.8672,722.9614,646.8672,732.9614,650.8672,728.9614,646.8672" style="stroke:#181818;stroke-width:1;"/><line style="stroke:#181818;stroke-width:1;stroke-dasharray:2.0,2.0;" x1="726.9614" x2="1084.7622" y1="646.8672" y2="646.8672"/><text fill="#000000" font-family="sans-serif" font-size="13" lengthAdjust="spacing" textLength="171.2471" x="738.9614" y="642.0107">AccesoNoPermitidoException</text><polygon fill="#181818" points="360.7119,673.2188,350.7119,677.2188,360.7119,681.2188,356.7119,677.2188" style="stroke:#181818;stroke-width:1;"/><line style="stroke:#181818;stroke-width:1;stroke-dasharray:2.0,2.0;" x1="354.7119" x2="715.9614" y1="677.2188" y2="677.2188"/><text fill="#000000" font-family="sans-serif" font-size="13" lengthAdjust="spacing" textLength="83.8398" x="366.7119" y="672.3623">403 Forbidden</text><polygon fill="#181818" points="82.5239,703.5703,72.5239,707.5703,82.5239,711.5703,78.5239,707.5703" style="stroke:#181818;stroke-width:1;"/><line style="stroke:#181818;stroke-width:1;stroke-dasharray:2.0,2.0;" x1="76.5239" x2="338.7119" y1="707.5703" y2="707.5703"/><text fill="#000000" font-family="sans-serif" font-size="13" lengthAdjust="spacing" textLength="145.9644" x="88.5239" y="702.7139">Presenta error de acceso</text><path d="M20,729.5703 L80.1709,729.5703 L80.1709,737.9219 L70.1709,747.9219 L20,747.9219 L20,729.5703 " fill="#EEEEEE" style="stroke:#000000;stroke-width:1.5;"/><rect fill="none" height="125.7578" style="stroke:#000000;stroke-width:1.5;" width="1144.2378" x="20" y="729.5703"/><text fill="#000000" font-family="sans-serif" font-size="13" font-weight="bold" lengthAdjust="spacing" textLength="15.1709" x="35" y="744.0654">alt</text><text fill="#000000" font-family="sans-serif" font-size="11" font-weight="bold" lengthAdjust="spacing" textLength="103.9253" x="95.1709" y="742.9893">[Respuesta exitosa]</text><polygon fill="#181818" points="727.9614,766.2734,717.9614,770.2734,727.9614,774.2734,723.9614,770.2734" style="stroke:#181818;stroke-width:1;"/><line style="stroke:#181818;stroke-width:1;stroke-dasharray:2.0,2.0;" x1="721.9614" x2="1084.7622" y1="770.2734" y2="770.2734"/><text fill="#000000" font-family="sans-serif" font-size="13" lengthAdjust="spacing" textLength="227.6396" x="733.9614" y="765.417">Lista&lt;InvestigadorResumenResponse&gt;</text><polygon fill="#181818" points="360.7119,812.9766,350.7119,816.9766,360.7119,820.9766,356.7119,816.9766" style="stroke:#181818;stroke-width:1;"/><line style="stroke:#181818;stroke-width:1;stroke-dasharray:2.0,2.0;" x1="354.7119" x2="715.9614" y1="816.9766" y2="816.9766"/><text fill="#000000" font-family="sans-serif" font-size="13" lengthAdjust="spacing" textLength="44.0845" x="366.7119" y="795.7686">200 OK</text><text fill="#000000" font-family="sans-serif" font-size="13" lengthAdjust="spacing" textLength="161.1353" x="366.7119" y="812.1201">Directorio de investigadores</text><polygon fill="#181818" points="82.5239,843.3281,72.5239,847.3281,82.5239,851.3281,78.5239,847.3281" style="stroke:#181818;stroke-width:1;"/><line style="stroke:#181818;stroke-width:1;stroke-dasharray:2.0,2.0;" x1="76.5239" x2="338.7119" y1="847.3281" y2="847.3281"/><text fill="#000000" font-family="sans-serif" font-size="13" lengthAdjust="spacing" textLength="244.188" x="88.5239" y="842.4717">Presenta INVESTIGADORES_ABIERTOS</text><line style="stroke:#000000;stroke-width:1;stroke-dasharray:2.0,2.0;" x1="10" x2="2431.9307" y1="863.3281" y2="863.3281"/><text fill="#000000" font-family="sans-serif" font-size="11" font-weight="bold" lengthAdjust="spacing" textLength="141.813" x="15" y="874.7471">[Sesion ausente o invalida]</text><polygon fill="#181818" points="727.9614,896.5156,717.9614,900.5156,727.9614,904.5156,723.9614,900.5156" style="stroke:#181818;stroke-width:1;"/><line style="stroke:#181818;stroke-width:1;stroke-dasharray:2.0,2.0;" x1="721.9614" x2="954.542" y1="900.5156" y2="900.5156"/><text fill="#000000" font-family="sans-serif" font-size="13" lengthAdjust="spacing" textLength="149.5952" x="733.9614" y="895.6592">SesionNoValidaException</text><polygon fill="#181818" points="360.7119,926.8672,350.7119,930.8672,360.7119,934.8672,356.7119,930.8672" style="stroke:#181818;stroke-width:1;"/><line style="stroke:#181818;stroke-width:1;stroke-dasharray:2.0,2.0;" x1="354.7119" x2="715.9614" y1="930.8672" y2="930.8672"/><text fill="#000000" font-family="sans-serif" font-size="13" lengthAdjust="spacing" textLength="102.6289" x="366.7119" y="926.0107">401 Unauthorized</text><polygon fill="#181818" points="82.5239,957.2188,72.5239,961.2188,82.5239,965.2188,78.5239,961.2188" style="stroke:#181818;stroke-width:1;"/><line style="stroke:#181818;stroke-width:1;stroke-dasharray:2.0,2.0;" x1="76.5239" x2="338.7119" y1="961.2188" y2="961.2188"/><text fill="#000000" font-family="sans-serif" font-size="13" lengthAdjust="spacing" textLength="145.9644" x="88.5239" y="956.3623">Presenta error de acceso</text><!--SRC=[fLLRJzim57xlhpZYOIeJjrsUga6LaB1rOorA2zCa9EJ6PynQQaUsW-WG_tt7phs3WLWbskJuNB_FvyCAco54WbrhjcB04Goc1SfKCDY5OAc51Y5lq5XnpRZIQ21LAmN7Icakf3CD1YorIlTCETDMf29dqiBMf1T_ngxnKWuJfAZjBM06JhII5YL_FEgO7BJACjGKES-raDSGAbN51xdeXyxH22Ndg6z4Yjwbj3nUeE_hd_lEvwPWMgW4SsK4JRlshXrht_rCgpKIAXl-NVE0CykMp21iXUwRe8-OLSOxHk5WqC4JTeyQb4OmLnaLiWpO0_GuCiGDizZ2MZ-uB8JL23x62zXdkTZlXuvJBIpIF8TtzTFzgxngUS8FxmGVtrzAwkkNmFAgU5IRYeu8-dDrIi17e9PK6NNv6gIsODcG5VOdIWABMJ9kj_4LIooprIFSi4nmDW3wL9RTUeZoFK6JAsdGkt3SJEMiJKUUrX5ambYcXsNpEr2FkWFjgEDj7zd9Lbu9RwJk4fLrhpkimGZPn1Ck6QOfPQT37rFsxtEuLZhNPWG_XEJXcZ86aWUke5he0cUQemxNKxLQQZnMgpn3gmAJ3YVJYtY-c7mCebcotIJlP7G5ef3mYK_ZumMyXfDazXMAqi70jqzn4WCj4np2689fL4wfwDLINPWbKPn0-1saBtsLLhMRKb7eEUZDG2mKcQLftQt8KHk2s6l8mmrssJXrR7oeZe-yFsQq3hJopmUqkrSreXC-R0bjQMunwmPjW5RiRS9MmEVPPDfqTBMXYNJ5PdGgzgg0Ay49q6AFVah0wQYDTMVZJK3xCpoDQB_zvq3gRgrKGEkdjFZz89JrSWLfYaPDrHdgbR22g_WsnTpMA_NNihNhqMnSJxBU7xo34wMNWdDyC8MJZjhSwXNbwApPY6P6Gyh10BMcjIDec6-qd96ahbbGaeM222BFMv9VmnuVjKIh-y_0OR_2HbgENZRosuC3c7svb97GZYQYmlMx8TR_ZqHN3-BvLH1EucGncpU8UEOhxMI5Yq5Ghesdb7MgBhnBd_b_IEm6uM_WN3gbTtSD-U2HAL_0jPkgawdEy0S0]--></g></svg>