<svg xmlns="http://www.w3.org/2000/svg" xmlns:xlink="http://www.w3.org/1999/xlink" contentStyleType="text/css" data-diagram-type="STATE" height="854px" preserveAspectRatio="none" style="width:632px;height:854px;background:#FFFFFF;" version="1.1" viewBox="0 0 632 854" width="632px" zoomAndPan="magnify"><?plantuml 1.2026.6?><defs/><g><g class="entity" data-qualified-name="in1" data-source-line="4" id="ent0001"><rect fill="#F1F1F1" height="50" rx="12.5" ry="12.5" style="stroke:#181818;stroke-width:0.5;" width="219.9443" x="202" y="7"/><line style="stroke:#181818;stroke-width:0.5;" x1="202" x2="421.9443" y1="34.6094" y2="34.6094"/><text fill="#000000" font-family="sans-serif" font-size="14" lengthAdjust="spacing" textLength="199.9443" x="212" y="26.5332">OPCIONES_PERFIL_ABIERTO</text></g><g class="entity" data-qualified-name="editarPerfil" data-source-line="10" id="ent0002"><path d="M19.5,153 L604.5,153 A12.5,12.5 0 0 1 617,165.5 L617,180.6094 L7,180.6094 L7,165.5 A12.5,12.5 0 0 1 19.5,153" fill="#F1F1F1"/><rect fill="none" height="540.6094" rx="12.5" ry="12.5" style="stroke:#181818;stroke-width:0.5;" width="610" x="7" y="153"/><line style="stroke:#181818;stroke-width:0.5;" x1="7" x2="617" y1="180.6094" y2="180.6094"/><text fill="#000000" font-family="sans-serif" font-size="14" lengthAdjust="spacing" textLength="76.2412" x="273.8794" y="172.5332">editarPerfil()</text><g class="entity" data-qualified-name="editarPerfil.EditandoDatos" data-source-line="12" id="ent0003"><rect fill="#F1F1F1" height="50" rx="12.5" ry="12.5" style="stroke:#181818;stroke-width:0.5;" width="50" x="163" y="283.6094"/><line style="stroke:#181818;stroke-width:0.5;" x1="163" x2="213" y1="311.2188" y2="311.2188"/><text fill="#000000" font-family="sans-serif" font-size="14" lengthAdjust="spacing" textLength="3.8896" x="186.0552" y="303.1426">&#160;</text></g><g class="entity" data-qualified-name="editarPerfil.GuardandoDatos" data-source-line="13" id="ent0004"><rect fill="#F1F1F1" height="50" rx="12.5" ry="12.5" style="stroke:#181818;stroke-width:0.5;" width="50" x="163" y="536.6094"/><line style="stroke:#181818;stroke-width:0.5;" x1="163" x2="213" y1="564.2188" y2="564.2188"/><text fill="#000000" font-family="sans-serif" font-size="14" lengthAdjust="spacing" textLength="3.8896" x="186.0552" y="556.1426">&#160;</text></g><g class="start_entity" data-qualified-name="editarPerfil..start.editarPerfil" data-source-line="15" id="ent0006"><ellipse cx="188" cy="201.6094" fill="#222222" rx="10" ry="10" style="stroke:#222222;stroke-width:1;"/></g><g class="end_entity" data-qualified-name="editarPerfil..end.editarPerfil" data-source-line="38" id="ent0010"><ellipse cx="188" cy="669.6094" fill="none" rx="11" ry="11" style="stroke:#222222;stroke-width:1;"/><ellipse cx="188" cy="669.6094" fill="#222222" rx="6" ry="6" style="stroke:#222222;stroke-width:1;"/></g><!--link *start*editarPerfil to EditandoDatos--><g class="link" data-entity-1="ent0006" data-entity-2="ent0003" data-link-type="dependency" data-source-line="15" id="lnk7"><path d="M188,211.9294 C188,227.7894 188,255.5194 188,278.2494" fill="none" id="*start*editarPerfil-to-EditandoDatos" style="stroke:#008000;stroke-width:1;"/><polygon fill="#008000" points="188,283.2494,192,274.2494,188,278.2494,184,274.2494,188,283.2494" style="stroke:#008000;stroke-width:1;stroke-linejoin:miter;stroke-miterlimit:10;"/><path d="M193,234.6094 L193,260.6094 L402,260.6094 L402,244.6094 L392,234.6094 L193,234.6094" fill="#FEFFDD" style="stroke:#181818;stroke-width:0.5;"/><path d="M392,234.6094 L392,244.6094 L402,244.6094 L392,234.6094" fill="#FEFFDD" style="stroke:#181818;stroke-width:0.5;"/><text fill="#000000" font-family="sans-serif" font-size="13" font-weight="700" lengthAdjust="spacing" textLength="77.2954" x="199" y="253.1045">Investigador</text><text fill="#000000" font-family="sans-serif" font-size="13" lengthAdjust="spacing" textLength="107.6563" x="279.9072" y="253.1045">solicita editar perfil</text></g><!--link EditandoDatos to GuardandoDatos--><g class="link" data-entity-1="ent0003" data-entity-2="ent0004" data-link-type="dependency" data-source-line="20" id="lnk8"><path d="M162.92,315.8094 C115.63,327.4894 18,351.6094 18,351.6094 C18,351.6094 18,518.6094 18,518.6094 C18,518.6094 110.7759,541.5305 158.0659,553.2105" fill="none" id="EditandoDatos-to-GuardandoDatos" style="stroke:#008000;stroke-width:1;"/><polygon fill="#008000" points="162.92,554.4094,155.1417,548.368,158.0659,553.2105,153.2234,556.1347,162.92,554.4094" style="stroke:#008000;stroke-width:1;stroke-linejoin:miter;stroke-miterlimit:10;"/><path d="M23,356.6094 L23,513.6094 L332,513.6094 L332,366.6094 L322,356.6094 L23,356.6094" fill="#FEFFDD" style="stroke:#181818;stroke-width:0.5;"/><path d="M322,356.6094 L322,366.6094 L332,366.6094 L322,356.6094" fill="#FEFFDD" style="stroke:#181818;stroke-width:0.5;"/><text fill="#000000" font-family="sans-serif" font-size="13" font-weight="700" lengthAdjust="spacing" textLength="49.8608" x="29" y="375.1045">Sistema</text><text fill="#000000" font-family="sans-serif" font-size="13" lengthAdjust="spacing" textLength="135.8652" x="82.4727" y="375.1045">presenta datos de perfil</text><text fill="#000000" font-family="sans-serif" font-size="13" lengthAdjust="spacing" textLength="288.501" x="29" y="391.4561">&#8226; ID, nombre, apellido, campo, carrera, master, rol</text><text fill="#000000" font-family="sans-serif" font-size="13" lengthAdjust="spacing" textLength="3.6118" x="29" y="407.8076">&#160;</text><text fill="#000000" font-family="sans-serif" font-size="13" lengthAdjust="spacing" textLength="3.6118" x="29" y="424.1592">&#160;</text><text fill="#000000" font-family="sans-serif" font-size="13" lengthAdjust="spacing" textLength="3.6118" x="29" y="440.5107">&#160;</text><text fill="#000000" font-family="sans-serif" font-size="13" font-weight="700" lengthAdjust="spacing" textLength="49.8608" x="29" y="456.8623">Sistema</text><text fill="#000000" font-family="sans-serif" font-size="13" lengthAdjust="spacing" textLength="94.6372" x="82.4727" y="456.8623">permite solicitar:</text><text fill="#000000" font-family="sans-serif" font-size="13" lengthAdjust="spacing" textLength="115.1021" x="29" y="473.2139">&#8226; modificar atributos</text><text fill="#000000" font-family="sans-serif" font-size="13" lengthAdjust="spacing" textLength="105.7202" x="29" y="489.5654">&#8226; guardar cambios</text><text fill="#000000" font-family="sans-serif" font-size="13" lengthAdjust="spacing" textLength="102.8384" x="29" y="505.917">&#8226; cancelar edici&#243;n</text></g><!--link GuardandoDatos to EditandoDatos--><g class="link" data-entity-1="ent0004" data-entity-2="ent0003" data-link-type="dependency" data-source-line="33" id="lnk9"><path d="M213.28,553.4894 C255.79,541.4994 337,518.6094 337,518.6094 C337,518.6094 337,351.6094 337,351.6094 C337,351.6094 260.6022,330.0767 218.0922,318.0867" fill="none" id="GuardandoDatos-to-EditandoDatos" style="stroke:#008000;stroke-width:1;"/><polygon fill="#008000" points="213.28,316.7294,220.8562,323.0223,218.0922,318.0867,223.0279,315.3227,213.28,316.7294" style="stroke:#008000;stroke-width:1;stroke-linejoin:miter;stroke-miterlimit:10;"/><path d="M342,422.1094 L342,448.1094 L593,448.1094 L593,432.1094 L583,422.1094 L342,422.1094" fill="#FEFFDD" style="stroke:#181818;stroke-width:0.5;"/><path d="M583,422.1094 L583,432.1094 L593,432.1094 L583,422.1094" fill="#FEFFDD" style="stroke:#181818;stroke-width:0.5;"/><text fill="#000000" font-family="sans-serif" font-size="13" font-weight="700" lengthAdjust="spacing" textLength="77.2954" x="348" y="440.6045">Investigador</text><text fill="#000000" font-family="sans-serif" font-size="13" lengthAdjust="spacing" textLength="149.5571" x="428.9072" y="440.6045">solicita modificar atributos</text></g><!--link GuardandoDatos to *end*editarPerfil--><g class="link" data-entity-1="ent0004" data-entity-2="ent0010" data-link-type="dependency" data-source-line="38" id="lnk11"><path d="M162.82,570.8094 C125.28,583.0294 59,604.6094 59,604.6094 C59,604.6094 59,640.6094 59,640.6094 C59,640.6094 141.7439,658.5684 172.5539,665.2584" fill="none" id="GuardandoDatos-to-*end*editarPerfil" style="stroke:#008000;stroke-width:1;"/><polygon fill="#008000" points="177.44,666.3194,169.4937,660.5007,172.5539,665.2584,167.7962,668.3186,177.44,666.3194" style="stroke:#008000;stroke-width:1;stroke-linejoin:miter;stroke-miterlimit:10;"/><path d="M64,609.6094 L64,635.6094 L291,635.6094 L291,619.6094 L281,609.6094 L64,609.6094" fill="#FEFFDD" style="stroke:#181818;stroke-width:0.5;"/><path d="M281,609.6094 L281,619.6094 L291,619.6094 L281,609.6094" fill="#FEFFDD" style="stroke:#181818;stroke-width:0.5;"/><text fill="#000000" font-family="sans-serif" font-size="13" font-weight="700" lengthAdjust="spacing" textLength="77.2954" x="70" y="628.1045">Investigador</text><text fill="#000000" font-family="sans-serif" font-size="13" lengthAdjust="spacing" textLength="125.7153" x="150.9072" y="628.1045">solicita guardar y salir</text></g><!--link GuardandoDatos to *end*editarPerfil--><g class="link" data-entity-1="ent0004" data-entity-2="ent0010" data-link-type="dependency" data-source-line="43" id="lnk12"><path d="M213.05,572.3494 C244.95,584.7594 296,604.6094 296,604.6094 C296,604.6094 296,640.6094 296,640.6094 C296,640.6094 230.9101,657.4851 203.5901,664.5651" fill="none" id="GuardandoDatos-to-*end*editarPerfil-1" style="stroke:#FF0000;stroke-width:1;"/><polygon fill="#FF0000" points="198.75,665.8194,208.4657,667.4337,203.5901,664.5651,206.4587,659.6895,198.75,665.8194" style="stroke:#FF0000;stroke-width:1;stroke-linejoin:miter;stroke-miterlimit:10;"/><path d="M301,609.6094 L301,635.6094 L540,635.6094 L540,619.6094 L530,609.6094 L301,609.6094" fill="#FEFFDD" style="stroke:#181818;stroke-width:0.5;"/><path d="M530,609.6094 L530,619.6094 L540,619.6094 L530,609.6094" fill="#FEFFDD" style="stroke:#181818;stroke-width:0.5;"/><text fill="#000000" font-family="sans-serif" font-size="13" font-weight="700" lengthAdjust="spacing" textLength="77.2954" x="307" y="628.1045">Investigador</text><text fill="#000000" font-family="sans-serif" font-size="13" lengthAdjust="spacing" textLength="137.2935" x="387.9072" y="628.1045">solicita cancelar edici&#243;n</text></g></g><g class="entity" data-qualified-name="OPCIONES_PERFIL_ABIERTO" data-source-line="52" id="ent0013"><rect fill="#F1F1F1" height="50" rx="12.5" ry="12.5" style="stroke:#181818;stroke-width:0.5;" width="219.9443" x="202" y="790"/><line style="stroke:#181818;stroke-width:0.5;" x1="202" x2="421.9443" y1="817.6094" y2="817.6094"/><text fill="#000000" font-family="sans-serif" font-size="14" lengthAdjust="spacing" textLength="199.9443" x="212" y="809.5332">OPCIONES_PERFIL_ABIERTO</text></g><!--link in1 to editarPerfil--><g class="link" data-entity-1="ent0001" data-entity-2="ent0002" data-link-type="dependency" data-source-line="5" id="lnk5"><path d="M312,57.07 C312,78.8 312,108.33 312,147.69" fill="none" id="in1-to-editarPerfil" style="stroke:#008000;stroke-width:1;"/><polygon fill="#008000" points="312,152.69,316,143.69,312,147.69,308,143.69,312,152.69" style="stroke:#008000;stroke-width:1;stroke-linejoin:miter;stroke-miterlimit:10;"/><path d="M317,92 L317,118 L408,118 L408,102 L398,92 L317,92" fill="#FEFFDD" style="stroke:#181818;stroke-width:0.5;"/><path d="M398,92 L398,102 L408,102 L398,92" fill="#FEFFDD" style="stroke:#181818;stroke-width:0.5;"/><text fill="#000000" font-family="sans-serif" font-size="13" lengthAdjust="spacing" textLength="70.7954" x="323" y="110.4951">editarPerfil()</text></g><!--link editarPerfil to OPCIONES_PERFIL_ABIERTO--><g class="link" data-entity-1="ent0002" data-entity-2="ent0013" data-link-type="dependency" data-source-line="52" id="lnk14"><path d="M312,694.22 C312,733.65 312,763.24 312,784.98" fill="none" id="editarPerfil-to-OPCIONES_PERFIL_ABIERTO" style="stroke:#008000;stroke-width:1;"/><polygon fill="#008000" points="312,789.98,316,780.98,312,784.98,308,780.98,312,789.98" style="stroke:#008000;stroke-width:1;stroke-linejoin:miter;stroke-miterlimit:10;"/><path d="M317,729 L317,755 L457,755 L457,739 L447,729 L317,729" fill="#FEFFDD" style="stroke:#181818;stroke-width:0.5;"/><path d="M447,729 L447,739 L457,739 L447,729" fill="#FEFFDD" style="stroke:#181818;stroke-width:0.5;"/><text fill="#000000" font-family="sans-serif" font-size="13" lengthAdjust="spacing" textLength="119.2026" x="323" y="747.4951">abrirOpcionesPerfil()</text></g><?plantuml-src dLJRQkCm47tNLmpfoxOuBFkwb40lwM9ODg7fMobbR4t2K5ao8tSXb4A_fR_GJzW_sI-fvDIfrSOi6nbyqJa-vyp8ihzZMwDW1OOjDUkQe7Pc7H-KyWqs16o_0NeOpUPd-UpNT74xdrvUv3zlJqxpwUNLRAGYONnzi18YUpEU06bkKEOaIpRAkY3XR9I_Kttaow4Ygo7YdLCVRYrJ_WWUb88mDknHE09f6ZbMktDidFyC_xX7qLiSDWBNHpT9uaG3MagIEquS5vFS_YRVy0gra-ElnGIyCro6Lz-IGxsfETAxskAzsfvIetw4DETWX0NxXYfitMiXJpQuwrPDKz__xzCpvETP4AaAeGom9cDOkmnAhEhs8aA26LGO92K3SKQbQNUQabGSSdMbo_UjNUKqBpde0ZR2nNrNHyHMRNaIpGlkpPTeIp8121qi-S-BJPhtdkB3CWuktXvhDnJxlqA4BseFwwuhQ_1eM5BR0KiXlR_XFzgj7bKOoJRi5pdm1qZtE1R2CgjBTfRyZgskNW40?></g></svg>