<svg xmlns="http://www.w3.org/2000/svg" xmlns:xlink="http://www.w3.org/1999/xlink" contentStyleType="text/css" data-diagram-type="DESCRIPTION" height="558px" preserveAspectRatio="none" style="width:2906px;height:558px;background:#FFFFFF;" version="1.1" viewBox="0 0 2906 558" width="2906px" zoomAndPan="magnify"><?plantuml 1.2026.6?><defs/><g><!--cluster abrirProyecto--><g class="cluster" data-qualified-name="abrirProyecto" data-source-line="5" id="ent0003"><path d="M215.5,6 L316.8584,6 A3.75,3.75 0 0 1 319.3584,8.5 L326.3584,29.6094 L916.5,29.6094 A2.5,2.5 0 0 1 919,32.1094 L919,540.5 A2.5,2.5 0 0 1 916.5,543 L215.5,543 A2.5,2.5 0 0 1 213,540.5 L213,8.5 A2.5,2.5 0 0 1 215.5,6" fill="none" style="stroke:#000000;stroke-width:1.5;"/><line style="stroke:#000000;stroke-width:1.5;" x1="213" x2="326.3584" y1="29.6094" y2="29.6094"/><text fill="#000000" font-family="sans-serif" font-size="14" font-weight="700" lengthAdjust="spacing" textLength="100.3584" x="217" y="22.5332">abrirProyecto()</text></g><!--entity DetalleProyectoView--><g class="entity" data-qualified-name="abrirProyecto.DetalleProyectoView" data-source-line="6" id="ent0004"><rect fill="#629EF9" height="37.6094" rx="2.5" ry="2.5" style="stroke:#181818;stroke-width:0.5;" width="149.1719" x="753.5" y="42"/><text fill="#000000" font-family="sans-serif" font-size="14" lengthAdjust="spacing" textLength="129.1719" x="763.5" y="66.5332">DetalleProyectoView</text></g><!--entity ProyectoController--><g class="entity" data-qualified-name="abrirProyecto.ProyectoController" data-source-line="7" id="ent0005"><rect fill="#B5BD68" height="37.6094" rx="2.5" ry="2.5" style="stroke:#181818;stroke-width:0.5;" width="135.9375" x="601" y="158"/><text fill="#000000" font-family="sans-serif" font-size="14" lengthAdjust="spacing" textLength="115.9375" x="611" y="182.5332">ProyectoController</text></g><!--entity ProyectoService--><g class="entity" data-qualified-name="abrirProyecto.ProyectoService" data-source-line="8" id="ent0006"><rect fill="#B5BD68" height="37.6094" rx="2.5" ry="2.5" style="stroke:#181818;stroke-width:0.5;" width="121.9307" x="412" y="274"/><text fill="#000000" font-family="sans-serif" font-size="14" lengthAdjust="spacing" textLength="101.9307" x="422" y="298.5332">ProyectoService</text></g><!--entity SesionService--><g class="entity" data-qualified-name="abrirProyecto.SesionService" data-source-line="9" id="ent0007"><rect fill="#B5BD68" height="37.6094" rx="2.5" ry="2.5" style="stroke:#181818;stroke-width:0.5;" width="109.4893" x="614.5" y="274"/><text fill="#000000" font-family="sans-serif" font-size="14" lengthAdjust="spacing" textLength="89.4893" x="624.5" y="298.5332">SesionService</text></g><!--entity ProyectoRepository--><g class="entity" data-qualified-name="abrirProyecto.ProyectoRepository" data-source-line="10" id="ent0008"><rect fill="#F2AC4E" height="37.6094" rx="2.5" ry="2.5" style="stroke:#181818;stroke-width:0.5;" width="142.165" x="229" y="390"/><text fill="#000000" font-family="sans-serif" font-size="14" lengthAdjust="spacing" textLength="122.165" x="239" y="414.5332">ProyectoRepository</text></g><!--entity InvestigadorRepository--><g class="entity" data-qualified-name="abrirProyecto.InvestigadorRepository" data-source-line="11" id="ent0009"><rect fill="#F2AC4E" height="37.6094" rx="2.5" ry="2.5" style="stroke:#181818;stroke-width:0.5;" width="163.1855" x="406.5" y="390"/><text fill="#000000" font-family="sans-serif" font-size="14" lengthAdjust="spacing" textLength="143.1855" x="416.5" y="414.5332">InvestigadorRepository</text></g><!--entity EntregableRepository--><g class="entity" data-qualified-name="abrirProyecto.EntregableRepository" data-source-line="12" id="ent0010"><rect fill="#F2AC4E" height="37.6094" rx="2.5" ry="2.5" style="stroke:#181818;stroke-width:0.5;" width="154.6338" x="639.5" y="390"/><text fill="#000000" font-family="sans-serif" font-size="14" lengthAdjust="spacing" textLength="134.6338" x="649.5" y="414.5332">EntregableRepository</text></g><!--entity Proyecto--><g class="entity" data-qualified-name="abrirProyecto.Proyecto" data-source-line="13" id="ent0011"><rect fill="#F2AC4E" height="37.6094" rx="2.5" ry="2.5" style="stroke:#181818;stroke-width:0.5;" width="75.248" x="262.5" y="489"/><text fill="#000000" font-family="sans-serif" font-size="14" lengthAdjust="spacing" textLength="55.248" x="272.5" y="513.5332">Proyecto</text></g><!--entity Investigador--><g class="entity" data-qualified-name="abrirProyecto.Investigador" data-source-line="14" id="ent0012"><rect fill="#F2AC4E" height="37.6094" rx="2.5" ry="2.5" style="stroke:#181818;stroke-width:0.5;" width="96.2686" x="440" y="489"/><text fill="#000000" font-family="sans-serif" font-size="14" lengthAdjust="spacing" textLength="76.2686" x="450" y="513.5332">Investigador</text></g><!--entity Entregable--><g class="entity" data-qualified-name="abrirProyecto.Entregable" data-source-line="15" id="ent0013"><rect fill="#F2AC4E" height="37.6094" rx="2.5" ry="2.5" style="stroke:#181818;stroke-width:0.5;" width="87.7168" x="673" y="489"/><text fill="#000000" font-family="sans-serif" font-size="14" lengthAdjust="spacing" textLength="67.7168" x="683" y="513.5332">Entregable</text></g><!--entity EstadoEntrada1--><g class="entity" data-qualified-name="EstadoEntrada1" data-source-line="3" id="ent0001"><rect fill="#CDEBA5" height="37.6094" rx="2.5" ry="2.5" style="stroke:#181818;stroke-width:0.5;" width="190.3721" x="7" y="42"/><text fill="#000000" font-family="sans-serif" font-size="14" lengthAdjust="spacing" textLength="170.3721" x="17" y="66.5332">:PROYECTOS_ABIERTOS</text></g><!--entity EstadoEntrada2--><g class="entity" data-qualified-name="EstadoEntrada2" data-source-line="4" id="ent0002"><rect fill="#CDEBA5" height="37.6094" rx="2.5" ry="2.5" style="stroke:#181818;stroke-width:0.5;" width="205.9443" x="1085" y="42"/><text fill="#000000" font-family="sans-serif" font-size="14" lengthAdjust="spacing" textLength="185.9443" x="1095" y="66.5332">:ENTREGABLES_ABIERTOS</text></g><!--entity EstadoSalida--><g class="entity" data-qualified-name="EstadoSalida" data-source-line="18" id="ent0014"><rect fill="#CDEBA5" height="37.6094" rx="2.5" ry="2.5" style="stroke:#181818;stroke-width:0.5;" width="171.6963" x="935" y="158"/><text fill="#000000" font-family="sans-serif" font-size="14" lengthAdjust="spacing" textLength="151.6963" x="945" y="182.5332">:PROYECTO_ABIERTO</text></g><!--entity EditarProyecto--><g class="entity" data-qualified-name="EditarProyecto" data-source-line="19" id="ent0015"><rect fill="#CDEBA5" height="37.6094" rx="2.5" ry="2.5" style="stroke:#181818;stroke-width:0.5;" width="202.0957" x="1142" y="158"/><text fill="#000000" font-family="sans-serif" font-size="14" lengthAdjust="spacing" textLength="182.0957" x="1152" y="182.5332">:Collaboration EditarProyecto</text></g><!--entity EliminarProyecto--><g class="entity" data-qualified-name="EliminarProyecto" data-source-line="20" id="ent0016"><rect fill="#CDEBA5" height="37.6094" rx="2.5" ry="2.5" style="stroke:#181818;stroke-width:0.5;" width="216.0889" x="1379" y="158"/><text fill="#000000" font-family="sans-serif" font-size="14" lengthAdjust="spacing" textLength="196.0889" x="1389" y="182.5332">:Collaboration EliminarProyecto</text></g><!--entity AgregarInvestigador--><g class="entity" data-qualified-name="AgregarInvestigador" data-source-line="21" id="ent0017"><rect fill="#CDEBA5" height="37.6094" rx="2.5" ry="2.5" style="stroke:#181818;stroke-width:0.5;" width="236.3506" x="1630" y="158"/><text fill="#000000" font-family="sans-serif" font-size="14" lengthAdjust="spacing" textLength="216.3506" x="1640" y="182.5332">:Collaboration AgregarInvestigador</text></g><!--entity EliminarInvestigador--><g class="entity" data-qualified-name="EliminarInvestigador" data-source-line="22" id="ent0018"><rect fill="#CDEBA5" height="37.6094" rx="2.5" ry="2.5" style="stroke:#181818;stroke-width:0.5;" width="237.1094" x="1901.5" y="158"/><text fill="#000000" font-family="sans-serif" font-size="14" lengthAdjust="spacing" textLength="217.1094" x="1911.5" y="182.5332">:Collaboration EliminarInvestigador</text></g><!--entity AbrirEntregables--><g class="entity" data-qualified-name="AbrirEntregables" data-source-line="23" id="ent0019"><rect fill="#CDEBA5" height="37.6094" rx="2.5" ry="2.5" style="stroke:#181818;stroke-width:0.5;" width="214.5508" x="2173.5" y="158"/><text fill="#000000" font-family="sans-serif" font-size="14" lengthAdjust="spacing" textLength="194.5508" x="2183.5" y="182.5332">:Collaboration AbrirEntregables</text></g><!--entity AbrirInvestigadores--><g class="entity" data-qualified-name="AbrirInvestigadores" data-source-line="24" id="ent0020"><rect fill="#CDEBA5" height="37.6094" rx="2.5" ry="2.5" style="stroke:#181818;stroke-width:0.5;" width="230.8887" x="2423.5" y="158"/><text fill="#000000" font-family="sans-serif" font-size="14" lengthAdjust="spacing" textLength="210.8887" x="2433.5" y="182.5332">:Collaboration AbrirInvestigadores</text></g><!--entity AbrirProyectos--><g class="entity" data-qualified-name="AbrirProyectos" data-source-line="25" id="ent0021"><rect fill="#CDEBA5" height="37.6094" rx="2.5" ry="2.5" style="stroke:#181818;stroke-width:0.5;" width="202.082" x="2690" y="158"/><text fill="#000000" font-family="sans-serif" font-size="14" lengthAdjust="spacing" textLength="182.082" x="2700" y="182.5332">:Collaboration AbrirProyectos</text></g><!--link EstadoEntrada1 to DetalleProyectoView--><g class="link" data-entity-1="ent0001" data-entity-2="ent0004" data-link-type="dependency" data-source-line="27" id="lnk22"><path d="M197.28,61 C343.57,61 615.45,61 748.26,61" fill="none" id="EstadoEntrada1-to-DetalleProyectoView" style="stroke:#181818;stroke-width:1;"/><polygon fill="#181818" points="753.26,61,744.26,57,748.26,61,744.26,65,753.26,61" style="stroke:#181818;stroke-width:1;stroke-linejoin:miter;stroke-miterlimit:10;"/><text fill="#000000" font-family="sans-serif" font-size="13" lengthAdjust="spacing" textLength="147.3862" x="401.75" y="54.4951">abrirProyecto(idProyecto)</text></g><!--link EstadoEntrada2 to DetalleProyectoView--><g class="link" data-entity-1="ent0002" data-entity-2="ent0004" data-link-type="dependency" data-source-line="28" id="lnk23"><path d="M1084.84,61 C1026.67,61 960.32,61 907.59,61" fill="none" id="EstadoEntrada2-to-DetalleProyectoView" style="stroke:#181818;stroke-width:1;"/><polygon fill="#181818" points="902.59,61,911.59,65,907.59,61,911.59,57,902.59,61" style="stroke:#181818;stroke-width:1;stroke-linejoin:miter;stroke-miterlimit:10;"/><text fill="#000000" font-family="sans-serif" font-size="13" lengthAdjust="spacing" textLength="146.6689" x="920.75" y="54.4951">abrirProyecto(proyectoId)</text></g><!--link DetalleProyectoView to ProyectoController--><g class="link" data-entity-1="ent0004" data-entity-2="ent0005" data-link-type="dependency" data-source-line="30" id="lnk24"><path d="M802.81,80.06 C773.12,101.35 728.1535,133.5866 698.4035,154.9166" fill="none" id="DetalleProyectoView-to-ProyectoController" style="stroke:#181818;stroke-width:1;"/><polygon fill="#181818" points="694.34,157.83,703.985,155.8366,698.4035,154.9166,699.3235,149.335,694.34,157.83" style="stroke:#181818;stroke-width:1;stroke-linejoin:miter;stroke-miterlimit:10;"/><text fill="#000000" font-family="sans-serif" font-size="13" lengthAdjust="spacing" textLength="146.6689" x="759" y="124.4951">abrirProyecto(proyectoId)</text></g><!--link ProyectoController to ProyectoService--><g class="link" data-entity-1="ent0005" data-entity-2="ent0006" data-link-type="dependency" data-source-line="31" id="lnk25"><path d="M637.94,196.06 C601.35,217.35 545.232,249.986 508.562,271.316" fill="none" id="ProyectoController-to-ProyectoService" style="stroke:#181818;stroke-width:1;"/><polygon fill="#181818" points="504.24,273.83,514.0308,272.7624,508.562,271.316,510.0084,265.8472,504.24,273.83" style="stroke:#181818;stroke-width:1;stroke-linejoin:miter;stroke-miterlimit:10;"/><text fill="#000000" font-family="sans-serif" font-size="13" lengthAdjust="spacing" textLength="62.8672" x="583" y="240.4951">obtener(id)</text></g><!--link ProyectoController to SesionService--><g class="link" data-entity-1="ent0005" data-entity-2="ent0007" data-link-type="dependency" data-source-line="32" id="lnk26"><path d="M669,196.06 C669,217.28 669,247.3 669,268.64" fill="none" id="ProyectoController-to-SesionService" style="stroke:#181818;stroke-width:1;"/><polygon fill="#181818" points="669,273.64,673,264.64,669,268.64,665,264.64,669,273.64" style="stroke:#181818;stroke-width:1;stroke-linejoin:miter;stroke-miterlimit:10;"/><text fill="#000000" font-family="sans-serif" font-size="13" lengthAdjust="spacing" textLength="209.5806" x="670" y="240.4951">obtenerSesionActual(authentication)</text></g><!--link ProyectoService to ProyectoRepository--><g class="link" data-entity-1="ent0006" data-entity-2="ent0008" data-link-type="dependency" data-source-line="33" id="lnk27"><path d="M411.81,310.32 C359.63,324.23 293,342 293,342 C293,342 293,360 293,360 C293,360 294.6491,371.3122 296.6291,384.9022" fill="none" id="ProyectoService-to-ProyectoRepository" style="stroke:#181818;stroke-width:1;"/><polygon fill="#181818" points="297.35,389.85,300.0107,380.3673,296.6291,384.9022,292.0942,381.5207,297.35,389.85" style="stroke:#181818;stroke-width:1;stroke-linejoin:miter;stroke-miterlimit:10;"/><text fill="#000000" font-family="sans-serif" font-size="13" lengthAdjust="spacing" textLength="144.5234" x="294" y="356.4951">obtenerPorId(proyectoId)</text></g><!--link ProyectoService to InvestigadorRepository--><g class="link" data-entity-1="ent0006" data-entity-2="ent0009" data-link-type="dependency" data-source-line="34" id="lnk28"><path d="M463.17,312.15 C455.81,325.74 447,342 447,342 C447,342 447,360 447,360 C447,360 457.6423,372.4584 469.2523,386.0484" fill="none" id="ProyectoService-to-InvestigadorRepository" style="stroke:#181818;stroke-width:1;"/><polygon fill="#181818" points="472.5,389.85,469.6954,380.4089,469.2523,386.0484,463.6128,385.6053,472.5,389.85" style="stroke:#181818;stroke-width:1;stroke-linejoin:miter;stroke-miterlimit:10;"/><text fill="#000000" font-family="sans-serif" font-size="13" lengthAdjust="spacing" textLength="225.4624" x="448" y="356.4951">obtenerEquipoPorProyecto(proyectoId)</text></g><!--link ProyectoService to EntregableRepository--><g class="link" data-entity-1="ent0006" data-entity-2="ent0010" data-link-type="dependency" data-source-line="35" id="lnk29"><path d="M534.23,308.34 C594.64,322.48 678,342 678,342 C678,342 692.2584,366.1142 703.7984,385.6642" fill="none" id="ProyectoService-to-EntregableRepository" style="stroke:#181818;stroke-width:1;"/><polygon fill="#181818" points="706.34,389.97,705.2097,380.1862,703.7984,385.6642,698.3204,384.2528,706.34,389.97" style="stroke:#181818;stroke-width:1;stroke-linejoin:miter;stroke-miterlimit:10;"/><text fill="#000000" font-family="sans-serif" font-size="13" lengthAdjust="spacing" textLength="184.9834" x="689" y="356.4951">obtenerPorProyecto(proyectoId)</text></g><!--link ProyectoRepository to Proyecto--><g class="link" data-entity-1="ent0008" data-entity-2="ent0011" data-link-type="association" data-source-line="36" id="lnk30"><path d="M300,428.24 C300,445.59 300,471.52 300,488.84" fill="none" id="ProyectoRepository-Proyecto" style="stroke:#181818;stroke-width:1;"/></g><!--link InvestigadorRepository to Investigador--><g class="link" data-entity-1="ent0009" data-entity-2="ent0012" data-link-type="association" data-source-line="37" id="lnk31"><path d="M488,428.24 C488,445.59 488,471.52 488,488.84" fill="none" id="InvestigadorRepository-Investigador" style="stroke:#181818;stroke-width:1;"/></g><!--link EntregableRepository to Entregable--><g class="link" data-entity-1="ent0010" data-entity-2="ent0013" data-link-type="association" data-source-line="38" id="lnk32"><path d="M717,428.24 C717,445.59 717,471.52 717,488.84" fill="none" id="EntregableRepository-Entregable" style="stroke:#181818;stroke-width:1;"/></g><!--link DetalleProyectoView to EstadoSalida--><g class="link" data-entity-1="ent0004" data-entity-2="ent0014" data-link-type="dependency" data-source-line="39" id="lnk33"><path d="M860.51,80.15 C884.87,93.74 914,110 914,110 C914,110 955.825,135.7942 987.505,155.3442" fill="none" id="DetalleProyectoView-to-EstadoSalida" style="stroke:#181818;stroke-width:1;stroke-dasharray:7,7;"/><polygon fill="#181818" points="991.76,157.97,986.2016,149.8395,987.505,155.3442,982.0003,156.6476,991.76,157.97" style="stroke:#181818;stroke-width:1;stroke-linejoin:miter;stroke-miterlimit:10;"/><text fill="#000000" font-family="sans-serif" font-size="13" lengthAdjust="spacing" textLength="130.7935" x="943" y="124.4951">continuarNavegacion()</text></g><!--link DetalleProyectoView to EditarProyecto--><g class="link" data-entity-1="ent0004" data-entity-2="ent0015" data-link-type="dependency" data-source-line="40" id="lnk34"><path d="M902.83,76.14 C977.76,90.3 1082,110 1082,110 C1082,110 1146.7139,136.5228 1194.3839,156.0728" fill="none" id="DetalleProyectoView-to-EditarProyecto" style="stroke:#181818;stroke-width:1;stroke-dasharray:7,7;"/><polygon fill="#181818" points="1199.01,157.97,1192.2008,150.8542,1194.3839,156.0728,1189.1653,158.2559,1199.01,157.97" style="stroke:#181818;stroke-width:1;stroke-linejoin:miter;stroke-miterlimit:10;"/><text fill="#000000" font-family="sans-serif" font-size="13" lengthAdjust="spacing" textLength="92.479" x="1126" y="124.4951">editarProyecto()</text></g><!--link DetalleProyectoView to EliminarProyecto--><g class="link" data-entity-1="ent0004" data-entity-2="ent0016" data-link-type="dependency" data-source-line="41" id="lnk35"><path d="M902.58,70.97 C1018.07,84.87 1227,110 1227,110 C1227,110 1334.1238,137.1893 1411.1038,156.7393" fill="none" id="DetalleProyectoView-to-EliminarProyecto" style="stroke:#181818;stroke-width:1;stroke-dasharray:7,7;"/><polygon fill="#181818" points="1415.95,157.97,1408.2115,151.8777,1411.1038,156.7393,1406.2423,159.6316,1415.95,157.97" style="stroke:#181818;stroke-width:1;stroke-linejoin:miter;stroke-miterlimit:10;"/><text fill="#000000" font-family="sans-serif" font-size="13" lengthAdjust="spacing" textLength="105.4727" x="1297" y="124.4951">eliminarProyecto()</text></g><!--link DetalleProyectoView to AgregarInvestigador--><g class="link" data-entity-1="ent0004" data-entity-2="ent0017" data-link-type="dependency" data-source-line="42" id="lnk36"><path d="M902.73,68.15 C1060.04,81.1 1411,110 1411,110 C1411,110 1551.2233,137.4586 1651.0033,157.0086" fill="none" id="DetalleProyectoView-to-AgregarInvestigador" style="stroke:#181818;stroke-width:1;stroke-dasharray:7,7;"/><polygon fill="#181818" points="1655.91,157.97,1647.847,152.3142,1651.0033,157.0086,1646.3088,160.1649,1655.91,157.97" style="stroke:#181818;stroke-width:1;stroke-linejoin:miter;stroke-miterlimit:10;"/><text fill="#000000" font-family="sans-serif" font-size="13" lengthAdjust="spacing" textLength="124.2871" x="1502" y="124.4951">agregarInvestigador()</text></g><!--link DetalleProyectoView to EliminarInvestigador--><g class="link" data-entity-1="ent0004" data-entity-2="ent0018" data-link-type="dependency" data-source-line="43" id="lnk37"><path d="M902.62,67.6 C973.07,72.88 1068,80 1068,80 C1068,80 1635,110 1635,110 C1635,110 1795.882,137.5748 1909.872,157.1248" fill="none" id="DetalleProyectoView-to-EliminarInvestigador" style="stroke:#181818;stroke-width:1;stroke-dasharray:7,7;"/><polygon fill="#181818" points="1914.8,157.97,1906.6057,152.5062,1909.872,157.1248,1905.2534,160.3911,1914.8,157.97" style="stroke:#181818;stroke-width:1;stroke-linejoin:miter;stroke-miterlimit:10;"/><text fill="#000000" font-family="sans-serif" font-size="13" lengthAdjust="spacing" textLength="124.9917" x="1739" y="124.4951">eliminarInvestigador()</text></g><!--link DetalleProyectoView to AbrirEntregables--><g class="link" data-entity-1="ent0004" data-entity-2="ent0019" data-link-type="dependency" data-source-line="44" id="lnk38"><path d="M902.62,67.6 C973.07,72.88 1068,80 1068,80 C1068,80 1872,110 1872,110 C1872,110 2047.1639,138.2632 2168.3339,157.8232" fill="none" id="DetalleProyectoView-to-AbrirEntregables" style="stroke:#181818;stroke-width:1;stroke-dasharray:7,7;"/><polygon fill="#181818" points="2173.27,158.62,2165.0225,153.2369,2168.3339,157.8232,2163.7476,161.1346,2173.27,158.62" style="stroke:#181818;stroke-width:1;stroke-linejoin:miter;stroke-miterlimit:10;"/><text fill="#000000" font-family="sans-serif" font-size="13" lengthAdjust="spacing" textLength="104.0444" x="1982" y="124.4951">abrirEntregables()</text></g><!--link DetalleProyectoView to AbrirInvestigadores--><g class="link" data-entity-1="ent0004" data-entity-2="ent0020" data-link-type="dependency" data-source-line="45" id="lnk39"><path d="M902.62,67.6 C973.07,72.88 1068,80 1068,80 C1068,80 2095,110 2095,110 C2095,110 2286.7144,138.4946 2418.2644,158.0546" fill="none" id="DetalleProyectoView-to-AbrirInvestigadores" style="stroke:#181818;stroke-width:1;stroke-dasharray:7,7;"/><polygon fill="#181818" points="2423.21,158.79,2414.8962,153.5099,2418.2644,158.0546,2413.7196,161.4229,2423.21,158.79" style="stroke:#181818;stroke-width:1;stroke-linejoin:miter;stroke-miterlimit:10;"/><text fill="#000000" font-family="sans-serif" font-size="13" lengthAdjust="spacing" textLength="119.2153" x="2215" y="124.4951">abrirInvestigadores()</text></g><!--link DetalleProyectoView to AbrirProyectos--><g class="link" data-entity-1="ent0004" data-entity-2="ent0021" data-link-type="dependency" data-source-line="46" id="lnk40"><path d="M902.62,67.6 C973.07,72.88 1068,80 1068,80 C1068,80 2343,110 2343,110 C2343,110 2672,158 2672,158 C2672,158 2674.146,158.3236 2684.876,159.9436" fill="none" id="DetalleProyectoView-to-AbrirProyectos" style="stroke:#181818;stroke-width:1;stroke-dasharray:7,7;"/><polygon fill="#181818" points="2689.82,160.69,2681.518,155.3912,2684.876,159.9436,2680.3237,163.3016,2689.82,160.69" style="stroke:#181818;stroke-width:1;stroke-linejoin:miter;stroke-miterlimit:10;"/><text fill="#000000" font-family="sans-serif" font-size="13" lengthAdjust="spacing" textLength="92.4663" x="2459" y="124.4951">abrirProyectos()</text></g><?plantuml-src bPHTQzim58Rl_Ij4UfDSfD2mbjKN1STLHs2q8Ic3NOrZ--29kf8dAnbXxBzFRlmXEVB7SkMSlEzpJewijtXZF0S9xoHZ7DKfHvABx5H-yJo9iGAUPaYkmaUw3cx9pD_kNhxJyFLb_oDOR-XEFym858GM2X91kPAGm8tJIPzVT_HBiFvAXxmhBuVu3L8a44acjrASD4kKkfbLcIzcv8z7zCTeThUwfq_tv14LP1dMqcyCVtULqMsKt7qcjIGKkhtG7ZaYtACyiXXxL7iicE0zcgTL47wY3Mc7kIYO4lBK8zpm8nQAfNevSbHShWzJY38SbTO3J6WxsipxE_oQr2Tj7FGUCfQ0qnNg4u18I51wYuGcJ45ptcU2LPh2oDWxurrAfpY14wJb7vRcRZvGZlf_J7M1S_qmPRhoOhI7Kfn7wnIdSipU9igkJwNLEpP0JSdpxDWWIxbyS5rUtmw3EKlgnuMDM4r6vDN39bbudaDFbea6NSR34ETIJPO6f8e5duX88KUf_qQlnmgInd6k1h4wG3Q7W_g9NB7uOzijgJ9PhTjCQ5XR8JU9StmJuCwW1a9_7LWkD6fm7oRGbLFcJ8EWrg9PROwvXombrZrojIv5HfgvNeJhwmShkNmIwxDY_03o6OxQ6ElrpnVzNYkpV8BMzo5Z9wQqjLCPC3k2IR-wbyK9_Mq6Egf3StHIgBe_HcNCRETEvRUBOuWcSJgtjpJ-0m00?></g></svg>