<svg xmlns="http://www.w3.org/2000/svg" xmlns:xlink="http://www.w3.org/1999/xlink" contentStyleType="text/css" data-diagram-type="DESCRIPTION" height="442px" preserveAspectRatio="none" style="width:2167px;height:442px;background:#FFFFFF;" version="1.1" viewBox="0 0 2167 442" width="2167px" zoomAndPan="magnify"><?plantuml 1.2026.5?><defs/><g><!--cluster abrirProyecto--><g class="cluster" data-qualified-name="abrirProyecto" data-source-line="5" id="ent0003"><path d="M215.5,6 L316.8584,6 A3.75,3.75 0 0 1 319.3584,8.5 L326.3584,29.6094 L681.5,29.6094 A2.5,2.5 0 0 1 684,32.1094 L684,424.5 A2.5,2.5 0 0 1 681.5,427 L215.5,427 A2.5,2.5 0 0 1 213,424.5 L213,8.5 A2.5,2.5 0 0 1 215.5,6" fill="none" style="stroke:#000000;stroke-width:1.5;"/><line style="stroke:#000000;stroke-width:1.5;" x1="213" x2="326.3584" y1="29.6094" y2="29.6094"/><text fill="#000000" font-family="sans-serif" font-size="14" font-weight="700" lengthAdjust="spacing" textLength="100.3584" x="217" y="22.5332">abrirProyecto()</text></g><!--entity DetalleProyectoView--><g class="entity" data-qualified-name="abrirProyecto.DetalleProyectoView" data-source-line="6" id="ent0004"><rect fill="#629EF9" height="37.6094" rx="2.5" ry="2.5" style="stroke:#181818;stroke-width:0.5;" width="149.1719" x="518.5" y="42"/><text fill="#000000" font-family="sans-serif" font-size="14" lengthAdjust="spacing" textLength="129.1719" x="528.5" y="66.5332">DetalleProyectoView</text></g><!--entity ProyectoController--><g class="entity" data-qualified-name="abrirProyecto.ProyectoController" data-source-line="7" id="ent0005"><rect fill="#B5BD68" height="37.6094" rx="2.5" ry="2.5" style="stroke:#181818;stroke-width:0.5;" width="135.9375" x="280" y="158"/><text fill="#000000" font-family="sans-serif" font-size="14" lengthAdjust="spacing" textLength="115.9375" x="290" y="182.5332">ProyectoController</text></g><!--entity ProyectoRepository--><g class="entity" data-qualified-name="abrirProyecto.ProyectoRepository" data-source-line="8" id="ent0006"><rect fill="#F2AC4E" height="37.6094" rx="2.5" ry="2.5" style="stroke:#181818;stroke-width:0.5;" width="142.165" x="287" y="274"/><text fill="#000000" font-family="sans-serif" font-size="14" lengthAdjust="spacing" textLength="122.165" x="297" y="298.5332">ProyectoRepository</text></g><!--entity Proyecto--><g class="entity" data-qualified-name="abrirProyecto.Proyecto" data-source-line="9" id="ent0007"><rect fill="#F2AC4E" height="37.6094" rx="2.5" ry="2.5" style="stroke:#181818;stroke-width:0.5;" width="75.248" x="320.5" y="373"/><text fill="#000000" font-family="sans-serif" font-size="14" lengthAdjust="spacing" textLength="55.248" x="330.5" y="397.5332">Proyecto</text></g><!--entity EstadoEntrada1--><g class="entity" data-qualified-name="EstadoEntrada1" data-source-line="3" id="ent0001"><rect fill="#CDEBA5" height="37.6094" rx="2.5" ry="2.5" style="stroke:#181818;stroke-width:0.5;" width="190.3721" x="7" y="42"/><text fill="#000000" font-family="sans-serif" font-size="14" lengthAdjust="spacing" textLength="170.3721" x="17" y="66.5332">:PROYECTOS_ABIERTOS</text></g><!--entity EstadoEntrada2--><g class="entity" data-qualified-name="EstadoEntrada2" data-source-line="4" id="ent0002"><rect fill="#CDEBA5" height="37.6094" rx="2.5" ry="2.5" style="stroke:#181818;stroke-width:0.5;" width="205.9443" x="862" y="42"/><text fill="#000000" font-family="sans-serif" font-size="14" lengthAdjust="spacing" textLength="185.9443" x="872" y="66.5332">:ENTREGABLES_ABIERTOS</text></g><!--entity EstadoSalida--><g class="entity" data-qualified-name="EstadoSalida" data-source-line="12" id="ent0008"><rect fill="#CDEBA5" height="37.6094" rx="2.5" ry="2.5" style="stroke:#181818;stroke-width:0.5;" width="171.6963" x="700" y="158"/><text fill="#000000" font-family="sans-serif" font-size="14" lengthAdjust="spacing" textLength="151.6963" x="710" y="182.5332">:PROYECTO_ABIERTO</text></g><!--entity EditarProyecto--><g class="entity" data-qualified-name="EditarProyecto" data-source-line="13" id="ent0009"><rect fill="#CDEBA5" height="37.6094" rx="2.5" ry="2.5" style="stroke:#181818;stroke-width:0.5;" width="202.0957" x="907" y="158"/><text fill="#000000" font-family="sans-serif" font-size="14" lengthAdjust="spacing" textLength="182.0957" x="917" y="182.5332">:Collaboration EditarProyecto</text></g><!--entity EliminarProyecto--><g class="entity" data-qualified-name="EliminarProyecto" data-source-line="14" id="ent0010"><rect fill="#CDEBA5" height="37.6094" rx="2.5" ry="2.5" style="stroke:#181818;stroke-width:0.5;" width="216.0889" x="1144" y="158"/><text fill="#000000" font-family="sans-serif" font-size="14" lengthAdjust="spacing" textLength="196.0889" x="1154" y="182.5332">:Collaboration EliminarProyecto</text></g><!--entity AgregarInvestigador--><g class="entity" data-qualified-name="AgregarInvestigador" data-source-line="15" id="ent0011"><rect fill="#CDEBA5" height="37.6094" rx="2.5" ry="2.5" style="stroke:#181818;stroke-width:0.5;" width="236.3506" x="1395" y="158"/><text fill="#000000" font-family="sans-serif" font-size="14" lengthAdjust="spacing" textLength="216.3506" x="1405" y="182.5332">:Collaboration AgregarInvestigador</text></g><!--entity EliminarInvestigador--><g class="entity" data-qualified-name="EliminarInvestigador" data-source-line="16" id="ent0012"><rect fill="#CDEBA5" height="37.6094" rx="2.5" ry="2.5" style="stroke:#181818;stroke-width:0.5;" width="237.1094" x="1666.5" y="158"/><text fill="#000000" font-family="sans-serif" font-size="14" lengthAdjust="spacing" textLength="217.1094" x="1676.5" y="182.5332">:Collaboration EliminarInvestigador</text></g><!--entity AbrirEntregables--><g class="entity" data-qualified-name="AbrirEntregables" data-source-line="17" id="ent0013"><rect fill="#CDEBA5" height="37.6094" rx="2.5" ry="2.5" style="stroke:#181818;stroke-width:0.5;" width="214.5508" x="1938.5" y="158"/><text fill="#000000" font-family="sans-serif" font-size="14" lengthAdjust="spacing" textLength="194.5508" x="1948.5" y="182.5332">:Collaboration AbrirEntregables</text></g><!--link EstadoEntrada1 to DetalleProyectoView--><g class="link" data-entity-1="ent0001" data-entity-2="ent0004" data-link-type="dependency" data-source-line="19" id="lnk14"><path d="M197.25,61 C291.09,61 427.53,61 513.46,61" fill="none" id="EstadoEntrada1-to-DetalleProyectoView" style="stroke:#181818;stroke-width:1;"/><polygon fill="#181818" points="518.46,61,509.46,57,513.46,61,509.46,65,518.46,61" style="stroke:#181818;stroke-width:1;stroke-linejoin:miter;stroke-miterlimit:10;"/><text fill="#000000" font-family="sans-serif" font-size="13" lengthAdjust="spacing" textLength="147.3862" x="284.25" y="54.4951">abrirProyecto(idProyecto)</text></g><!--link EstadoEntrada2 to DetalleProyectoView--><g class="link" data-entity-1="ent0002" data-entity-2="ent0004" data-link-type="dependency" data-source-line="20" id="lnk15"><path d="M861.75,61 C800.22,61 728.53,61 672.83,61" fill="none" id="EstadoEntrada2-to-DetalleProyectoView" style="stroke:#181818;stroke-width:1;"/><polygon fill="#181818" points="667.83,61,676.83,65,672.83,61,676.83,57,667.83,61" style="stroke:#181818;stroke-width:1;stroke-linejoin:miter;stroke-miterlimit:10;"/><text fill="#000000" font-family="sans-serif" font-size="13" lengthAdjust="spacing" textLength="158.9644" x="685.75" y="54.4951">abrirProyecto(idEntregable)</text></g><!--link DetalleProyectoView to ProyectoController--><g class="link" data-entity-1="ent0004" data-entity-2="ent0005" data-link-type="dependency" data-source-line="22" id="lnk16"><path d="M518.49,72.77 C420.61,86.92 261,110 261,110 C261,110 261,128 261,128 C261,128 286.0918,141.8452 310.7318,155.4352" fill="none" id="DetalleProyectoView-to-ProyectoController" style="stroke:#181818;stroke-width:1;"/><polygon fill="#181818" points="315.11,157.85,309.161,150.0008,310.7318,155.4352,305.2974,157.006,315.11,157.85" style="stroke:#181818;stroke-width:1;stroke-linejoin:miter;stroke-miterlimit:10;"/><text fill="#000000" font-family="sans-serif" font-size="13" lengthAdjust="spacing" textLength="114.1689" x="262" y="124.4951">obtenerProyecto(id)</text></g><!--link DetalleProyectoView to ProyectoController--><g class="link" data-entity-1="ent0004" data-entity-2="ent0005" data-link-type="dependency" data-source-line="23" id="lnk17"><path d="M528.09,80.01 C479,93.63 420,110 420,110 C420,110 392.6752,135.0408 371.3552,154.5908" fill="none" id="DetalleProyectoView-to-ProyectoController-1" style="stroke:#181818;stroke-width:1;"/><polygon fill="#181818" points="367.67,157.97,377.0068,154.8355,371.3552,154.5908,371.6,148.9392,367.67,157.97" style="stroke:#181818;stroke-width:1;stroke-linejoin:miter;stroke-miterlimit:10;"/><text fill="#000000" font-family="sans-serif" font-size="13" lengthAdjust="spacing" textLength="246.4033" x="421" y="124.4951">prepararAccionesDisponibles(coordinador)</text></g><!--link ProyectoController to ProyectoRepository--><g class="link" data-entity-1="ent0005" data-entity-2="ent0006" data-link-type="dependency" data-source-line="24" id="lnk18"><path d="M321.91,196.15 C302.37,209.74 279,226 279,226 C279,226 279,244 279,244 C279,244 301.4868,257.664 323.8568,271.254" fill="none" id="ProyectoController-to-ProyectoRepository" style="stroke:#181818;stroke-width:1;"/><polygon fill="#181818" points="328.13,273.85,322.515,265.7585,323.8568,271.254,318.3613,272.5957,328.13,273.85" style="stroke:#181818;stroke-width:1;stroke-linejoin:miter;stroke-miterlimit:10;"/><text fill="#000000" font-family="sans-serif" font-size="13" lengthAdjust="spacing" textLength="93.939" x="280" y="240.4951">obtenerPorId(id)</text></g><!--link ProyectoController to ProyectoRepository--><g class="link" data-entity-1="ent0005" data-entity-2="ent0006" data-link-type="dependency" data-source-line="25" id="lnk19"><path d="M359.34,196.15 C367.84,209.74 378,226 378,226 C378,226 378,244 378,244 C378,244 373.1424,255.6443 367.4824,269.2343" fill="none" id="ProyectoController-to-ProyectoRepository-1" style="stroke:#181818;stroke-width:1;"/><polygon fill="#181818" points="365.56,273.85,372.7128,267.0796,367.4824,269.2343,365.3277,264.0039,365.56,273.85" style="stroke:#181818;stroke-width:1;stroke-linejoin:miter;stroke-miterlimit:10;"/><text fill="#000000" font-family="sans-serif" font-size="13" lengthAdjust="spacing" textLength="137.2427" x="379" y="240.4951">verificarPermisos(actor)</text></g><!--link ProyectoRepository to Proyecto--><g class="link" data-entity-1="ent0006" data-entity-2="ent0007" data-link-type="association" data-source-line="26" id="lnk20"><path d="M358,312.24 C358,329.59 358,355.52 358,372.84" fill="none" id="ProyectoRepository-Proyecto" style="stroke:#181818;stroke-width:1;"/></g><!--link DetalleProyectoView to EstadoSalida--><g class="link" data-entity-1="ent0004" data-entity-2="ent0008" data-link-type="dependency" data-source-line="27" id="lnk21"><path d="M624.38,80.15 C647.88,93.74 676,110 676,110 C676,110 719.083,135.8467 751.653,155.3967" fill="none" id="DetalleProyectoView-to-EstadoSalida" style="stroke:#181818;stroke-width:1;stroke-dasharray:7,7;"/><polygon fill="#181818" points="755.94,157.97,750.282,149.9085,751.653,155.3967,746.1648,156.7677,755.94,157.97" style="stroke:#181818;stroke-width:1;stroke-linejoin:miter;stroke-miterlimit:10;"/><text fill="#000000" font-family="sans-serif" font-size="13" lengthAdjust="spacing" textLength="130.7935" x="706" y="124.4951">continuarNavegacion()</text></g><!--link DetalleProyectoView to EditarProyecto--><g class="link" data-entity-1="ent0004" data-entity-2="ent0009" data-link-type="dependency" data-source-line="28" id="lnk22"><path d="M667.59,76.21 C741.89,90.36 845,110 845,110 C845,110 910.5658,136.5427 958.8258,156.0927" fill="none" id="DetalleProyectoView-to-EditarProyecto" style="stroke:#181818;stroke-width:1;stroke-dasharray:7,7;"/><polygon fill="#181818" points="963.46,157.97,956.6203,150.8835,958.8258,156.0927,953.6166,158.2982,963.46,157.97" style="stroke:#181818;stroke-width:1;stroke-linejoin:miter;stroke-miterlimit:10;"/><text fill="#000000" font-family="sans-serif" font-size="13" lengthAdjust="spacing" textLength="92.479" x="889" y="124.4951">editarProyecto()</text></g><!--link DetalleProyectoView to EliminarProyecto--><g class="link" data-entity-1="ent0004" data-entity-2="ent0010" data-link-type="dependency" data-source-line="29" id="lnk23"><path d="M667.67,71.03 C782.67,84.93 990,110 990,110 C990,110 1097.9816,137.1982 1175.5616,156.7482" fill="none" id="DetalleProyectoView-to-EliminarProyecto" style="stroke:#181818;stroke-width:1;stroke-dasharray:7,7;"/><polygon fill="#181818" points="1180.41,157.97,1172.6603,151.892,1175.5616,156.7482,1170.7054,159.6495,1180.41,157.97" style="stroke:#181818;stroke-width:1;stroke-linejoin:miter;stroke-miterlimit:10;"/><text fill="#000000" font-family="sans-serif" font-size="13" lengthAdjust="spacing" textLength="105.4727" x="1061" y="124.4951">eliminarProyecto()</text></g><!--link DetalleProyectoView to AgregarInvestigador--><g class="link" data-entity-1="ent0004" data-entity-2="ent0011" data-link-type="dependency" data-source-line="30" id="lnk24"><path d="M667.6,68.15 C824.64,81.1 1175,110 1175,110 C1175,110 1315.6528,137.4614 1415.7328,157.0114" fill="none" id="DetalleProyectoView-to-AgregarInvestigador" style="stroke:#181818;stroke-width:1;stroke-dasharray:7,7;"/><polygon fill="#181818" points="1420.64,157.97,1412.5738,152.3187,1415.7328,157.0114,1411.0401,160.1703,1420.64,157.97" style="stroke:#181818;stroke-width:1;stroke-linejoin:miter;stroke-miterlimit:10;"/><text fill="#000000" font-family="sans-serif" font-size="13" lengthAdjust="spacing" textLength="124.2871" x="1266" y="124.4951">agregarInvestigador()</text></g><!--link DetalleProyectoView to EliminarInvestigador--><g class="link" data-entity-1="ent0004" data-entity-2="ent0012" data-link-type="dependency" data-source-line="31" id="lnk25"><path d="M667.59,67.33 C741.89,72.64 845,80 845,80 C845,80 1399,110 1399,110 C1399,110 1560.3116,137.5769 1674.5916,157.1269" fill="none" id="DetalleProyectoView-to-EliminarInvestigador" style="stroke:#181818;stroke-width:1;stroke-dasharray:7,7;"/><polygon fill="#181818" points="1679.52,157.97,1671.3234,152.5097,1674.5916,157.1269,1669.9744,160.3951,1679.52,157.97" style="stroke:#181818;stroke-width:1;stroke-linejoin:miter;stroke-miterlimit:10;"/><text fill="#000000" font-family="sans-serif" font-size="13" lengthAdjust="spacing" textLength="124.9917" x="1503" y="124.4951">eliminarInvestigador()</text></g><!--link DetalleProyectoView to AbrirEntregables--><g class="link" data-entity-1="ent0004" data-entity-2="ent0013" data-link-type="dependency" data-source-line="32" id="lnk26"><path d="M667.59,67.33 C741.89,72.64 845,80 845,80 C845,80 1636,110 1636,110 C1636,110 1811.8636,138.3052 1933.3436,157.8652" fill="none" id="DetalleProyectoView-to-AbrirEntregables" style="stroke:#181818;stroke-width:1;stroke-dasharray:7,7;"/><polygon fill="#181818" points="1938.28,158.66,1930.0303,153.2802,1933.3436,157.8652,1928.7586,161.1784,1938.28,158.66" style="stroke:#181818;stroke-width:1;stroke-linejoin:miter;stroke-miterlimit:10;"/><text fill="#000000" font-family="sans-serif" font-size="13" lengthAdjust="spacing" textLength="104.0444" x="1746" y="124.4951">abrirEntregables()</text></g><?plantuml-src bLF1Qjj05BplLopkHJeuKDE4HeU0B6-AeIJ12OMUmfFqAfR8k-Ajwc9A_xrFIHnvvOrYwoGzpSpE3lFSapOD4AnbhGsssmPbO-jjzo44OT62gMgKdxA5cgVdSfBShMv_gkpXzlundI_LYbyc4fnKheNIAjCIbF0vo5Gt3olrBPr_LsFScMYWU88A9UIawOxibhLiXvjuaoYUoBz2yhDtsCNiKbrVoWMsKDUuW_xG-6U8pC_pykAht44ooyTRvj0GU3rBio_g3RZ2nZhTMjf-01J_nWFSPR0NmJtKkeGWAsDla5k2LbiZLQbRU4lYHS4R7QDHwxKsGvN1y0YTj2AiW9PcWwxL5L-3dgK2ynDS7SY5VXpZhgjCLotsajVeNgmDXaBuzPLJcbw5IfJufOnqkNkDVOdP2HAzaLY804DEIvOwB6eYRTwYmNsjE2pm3hyXx7QVqgBWhD0jj6kiqLqaKM4jbHmunnoBGxAdsUz4xydIidmsT09tWwH_wOBhXxJMphe86B5tVWzcZNxJGdS-ExlojYgH1HlGvZVG3Mmux-xAKVm-rzkdHABtFKOSh11J1vCHSc1fk327moFEzpKmC1tpCTYGrzRkJPZy7m00?></g></svg>