<svg xmlns="http://www.w3.org/2000/svg" xmlns:xlink="http://www.w3.org/1999/xlink" contentStyleType="text/css" data-diagram-type="STATE" height="1024px" preserveAspectRatio="none" style="width:1152px;height:1024px;background:#FFFFFF;" version="1.1" viewBox="0 0 1152 1024" width="1152px" zoomAndPan="magnify"><?plantuml 1.2026.6?><defs/><g><g class="entity" data-qualified-name="in1" data-source-line="3" id="ent0001"><rect fill="#F1F1F1" height="50" rx="12.5" ry="12.5" style="stroke:#181818;stroke-width:0.5;" width="183.3789" x="480.5" y="7"/><line style="stroke:#181818;stroke-width:0.5;" x1="480.5" x2="663.8789" y1="34.6094" y2="34.6094"/><text fill="#000000" font-family="sans-serif" font-size="14" lengthAdjust="spacing" textLength="163.3789" x="490.5" y="26.5332">ENTREGABLE_ABIERTO</text></g><g class="entity" data-qualified-name="editarEntregable" data-source-line="6" id="ent0002"><path d="M19.5,118 L1124.5,118 A12.5,12.5 0 0 1 1137,130.5 L1137,145.6094 L7,145.6094 L7,130.5 A12.5,12.5 0 0 1 19.5,118" fill="#F1F1F1"/><rect fill="none" height="745.6094" rx="12.5" ry="12.5" style="stroke:#181818;stroke-width:0.5;" width="1130" x="7" y="118"/><line style="stroke:#181818;stroke-width:0.5;" x1="7" x2="1137" y1="145.6094" y2="145.6094"/><text fill="#000000" font-family="sans-serif" font-size="14" lengthAdjust="spacing" textLength="112.0615" x="515.9692" y="137.5332">editarEntregable()</text><g class="entity" data-qualified-name="editarEntregable.SolicitandoEdicion" data-source-line="8" id="ent0003"><rect fill="#F1F1F1" height="50" rx="12.5" ry="12.5" style="stroke:#181818;stroke-width:0.5;" width="50" x="288" y="248.6094"/><line style="stroke:#181818;stroke-width:0.5;" x1="288" x2="338" y1="276.2188" y2="276.2188"/><text fill="#000000" font-family="sans-serif" font-size="14" lengthAdjust="spacing" textLength="3.8896" x="311.0552" y="268.1426">&#160;</text></g><g class="entity" data-qualified-name="editarEntregable.IntroduciendoCambios" data-source-line="9" id="ent0004"><rect fill="#F1F1F1" height="50" rx="12.5" ry="12.5" style="stroke:#181818;stroke-width:0.5;" width="50" x="288" y="550.6094"/><line style="stroke:#181818;stroke-width:0.5;" x1="288" x2="338" y1="578.2188" y2="578.2188"/><text fill="#000000" font-family="sans-serif" font-size="14" lengthAdjust="spacing" textLength="3.8896" x="311.0552" y="570.1426">&#160;</text></g><g class="entity" data-qualified-name="editarEntregable.ValidandoDatos" data-source-line="10" id="ent0005"><rect fill="#F1F1F1" height="50" rx="12.5" ry="12.5" style="stroke:#181818;stroke-width:0.5;" width="50" x="288" y="689.6094"/><line style="stroke:#181818;stroke-width:0.5;" x1="288" x2="338" y1="717.2188" y2="717.2188"/><text fill="#000000" font-family="sans-serif" font-size="14" lengthAdjust="spacing" textLength="3.8896" x="311.0552" y="709.1426">&#160;</text></g><g class="start_entity" data-qualified-name="editarEntregable..start.editarEntregable" data-source-line="12" id="ent0007"><ellipse cx="313" cy="166.6094" fill="#222222" rx="10" ry="10" style="stroke:#222222;stroke-width:1;"/></g><g class="end_entity" data-qualified-name="editarEntregable..end.editarEntregable" data-source-line="38" id="ent0011"><ellipse cx="548" cy="839.6094" fill="none" rx="11" ry="11" style="stroke:#222222;stroke-width:1;"/><ellipse cx="548" cy="839.6094" fill="#222222" rx="6" ry="6" style="stroke:#222222;stroke-width:1;"/></g><!--link *start*editarEntregable to SolicitandoEdicion--><g class="link" data-entity-1="ent0007" data-entity-2="ent0003" data-link-type="dependency" data-source-line="12" id="lnk8"><path d="M313,176.9294 C313,192.7894 313,220.5194 313,243.2494" fill="none" id="*start*editarEntregable-to-SolicitandoEdicion" style="stroke:#008000;stroke-width:1;"/><polygon fill="#008000" points="313,248.2494,317,239.2494,313,243.2494,309,239.2494,313,248.2494" style="stroke:#008000;stroke-width:1;stroke-linejoin:miter;stroke-miterlimit:10;"/><path d="M318,199.6094 L318,225.6094 L575,225.6094 L575,209.6094 L565,199.6094 L318,199.6094" fill="#FEFFDD" style="stroke:#181818;stroke-width:0.5;"/><path d="M565,199.6094 L565,209.6094 L575,209.6094 L565,199.6094" fill="#FEFFDD" style="stroke:#181818;stroke-width:0.5;"/><text fill="#000000" font-family="sans-serif" font-size="13" font-weight="700" lengthAdjust="spacing" textLength="77.9937" x="324" y="218.1045">Coordinador</text><text fill="#000000" font-family="sans-serif" font-size="13" lengthAdjust="spacing" textLength="154.6479" x="405.6055" y="218.1045">solicita editar el entregable</text></g><!--link SolicitandoEdicion to IntroduciendoCambios--><g class="link" data-entity-1="ent0003" data-entity-2="ent0004" data-link-type="dependency" data-source-line="17" id="lnk9"><path d="M313,298.6494 C313,354.8294 313,489.1694 313,545.4494" fill="none" id="SolicitandoEdicion-to-IntroduciendoCambios" style="stroke:#008000;stroke-width:1;"/><polygon fill="#008000" points="313,550.4494,317,541.4494,313,545.4494,309,541.4494,313,550.4494" style="stroke:#008000;stroke-width:1;stroke-linejoin:miter;stroke-miterlimit:10;"/><path d="M318,321.6094 L318,527.6094 L716,527.6094 L716,331.6094 L706,321.6094 L318,321.6094" fill="#FEFFDD" style="stroke:#181818;stroke-width:0.5;"/><path d="M706,321.6094 L706,331.6094 L716,331.6094 L706,321.6094" fill="#FEFFDD" style="stroke:#181818;stroke-width:0.5;"/><text fill="#000000" font-family="sans-serif" font-size="13" font-weight="700" lengthAdjust="spacing" textLength="49.8608" x="324" y="340.1045">Sistema</text><text fill="#000000" font-family="sans-serif" font-size="13" lengthAdjust="spacing" textLength="176.3506" x="377.4727" y="340.1045">presenta la pantalla de edici&#243;n</text><text fill="#000000" font-family="sans-serif" font-size="13" font-weight="700" lengthAdjust="spacing" textLength="49.8608" x="324" y="356.4561">Sistema</text><text fill="#000000" font-family="sans-serif" font-size="13" lengthAdjust="spacing" textLength="324.416" x="377.4727" y="356.4561">muestra los datos actuales y permite introducir cambios:</text><text fill="#000000" font-family="sans-serif" font-size="13" lengthAdjust="spacing" textLength="41.4058" x="324" y="372.8076">&#8226; T&#237;tulo</text><text fill="#000000" font-family="sans-serif" font-size="13" lengthAdjust="spacing" textLength="34.1821" x="324" y="389.1592">&#8226; Tipo</text><text fill="#000000" font-family="sans-serif" font-size="13" lengthAdjust="spacing" textLength="79.6948" x="324" y="405.5107">&#8226; Fecha l&#237;mite</text><text fill="#000000" font-family="sans-serif" font-size="13" lengthAdjust="spacing" textLength="49.3657" x="324" y="421.8623">&#8226; Estado</text><text fill="#000000" font-family="sans-serif" font-size="13" lengthAdjust="spacing" textLength="136.043" x="324" y="438.2139">&#8226; Descripci&#243;n (si aplica)</text><text fill="#000000" font-family="sans-serif" font-size="13" lengthAdjust="spacing" textLength="157.7393" x="324" y="454.5654">&#8226; Archivo adjunto (si aplica)</text><text fill="#000000" font-family="sans-serif" font-size="13" lengthAdjust="spacing" textLength="3.6118" x="324" y="470.917">&#160;</text><text fill="#000000" font-family="sans-serif" font-size="13" font-weight="700" lengthAdjust="spacing" textLength="49.8608" x="324" y="487.2686">Sistema</text><text fill="#000000" font-family="sans-serif" font-size="13" lengthAdjust="spacing" textLength="94.6372" x="377.4727" y="487.2686">permite solicitar:</text><text fill="#000000" font-family="sans-serif" font-size="13" lengthAdjust="spacing" textLength="108.6021" x="324" y="503.6201">&#8226; Guardar cambios</text><text fill="#000000" font-family="sans-serif" font-size="13" lengthAdjust="spacing" textLength="105.7266" x="324" y="519.9717">&#8226; Cancelar edici&#243;n</text></g><!--link IntroduciendoCambios to ValidandoDatos--><g class="link" data-entity-1="ent0004" data-entity-2="ent0005" data-link-type="dependency" data-source-line="33" id="lnk10"><path d="M287.85,580.1894 C216.51,590.3494 18,618.6094 18,618.6094 C18,618.6094 18,670.6094 18,670.6094 C18,670.6094 211.5622,698.8288 282.9022,709.2188" fill="none" id="IntroduciendoCambios-to-ValidandoDatos" style="stroke:#008000;stroke-width:1;"/><polygon fill="#008000" points="287.85,709.9394,279.5204,704.6841,282.9022,709.2188,278.3675,712.6005,287.85,709.9394" style="stroke:#008000;stroke-width:1;stroke-linejoin:miter;stroke-miterlimit:10;"/><path d="M23,631.6094 L23,657.6094 L286,657.6094 L286,641.6094 L276,631.6094 L23,631.6094" fill="#FEFFDD" style="stroke:#181818;stroke-width:0.5;"/><path d="M276,631.6094 L276,641.6094 L286,641.6094 L276,631.6094" fill="#FEFFDD" style="stroke:#181818;stroke-width:0.5;"/><text fill="#000000" font-family="sans-serif" font-size="13" font-weight="700" lengthAdjust="spacing" textLength="77.9937" x="29" y="650.1045">Coordinador</text><text fill="#000000" font-family="sans-serif" font-size="13" lengthAdjust="spacing" textLength="160.4053" x="110.6055" y="650.1045">solicita guardar los cambios</text></g><!--link ValidandoDatos to *end*editarEntregable--><g class="link" data-entity-1="ent0005" data-entity-2="ent0011" data-link-type="dependency" data-source-line="38" id="lnk12"><path d="M334.12,740.0694 C358.41,768.2194 395,810.6094 395,810.6094 C395,810.6094 497.0017,829.2793 532.0817,835.6993" fill="none" id="ValidandoDatos-to-*end*editarEntregable" style="stroke:#008000;stroke-width:1;"/><polygon fill="#008000" points="537,836.5994,528.8671,831.0445,532.0817,835.6993,527.427,838.9138,537,836.5994" style="stroke:#008000;stroke-width:1;stroke-linejoin:miter;stroke-miterlimit:10;"/><path d="M400,763.6094 L400,805.6094 L764,805.6094 L764,773.6094 L754,763.6094 L400,763.6094" fill="#FEFFDD" style="stroke:#181818;stroke-width:0.5;"/><path d="M754,763.6094 L754,773.6094 L764,773.6094 L754,763.6094" fill="#FEFFDD" style="stroke:#181818;stroke-width:0.5;"/><text fill="#000000" font-family="sans-serif" font-size="13" font-weight="700" lengthAdjust="spacing" textLength="49.8608" x="406" y="782.1045">Sistema</text><text fill="#000000" font-family="sans-serif" font-size="13" lengthAdjust="spacing" textLength="269.5342" x="459.4727" y="782.1045">permite solicitar la actualizaci&#243;n del entregable</text><text fill="#000000" font-family="sans-serif" font-size="13" font-weight="700" lengthAdjust="spacing" textLength="49.8608" x="406" y="798.4561">Sistema</text><text fill="#000000" font-family="sans-serif" font-size="13" lengthAdjust="spacing" textLength="289.7705" x="459.4727" y="798.4561">presenta y visualiza el entregable con los cambios</text></g><!--link ValidandoDatos to IntroduciendoCambios--><g class="link" data-entity-1="ent0005" data-entity-2="ent0004" data-link-type="dependency" data-source-line="44" id="lnk13"><path d="M313,689.2094 C313,664.2394 313,630.6794 313,605.7894" fill="none" id="ValidandoDatos-to-IntroduciendoCambios" style="stroke:#FF0000;stroke-width:1;"/><polygon fill="#FF0000" points="313,600.7894,309,609.7894,313,605.7894,317,609.7894,313,600.7894" style="stroke:#FF0000;stroke-width:1;stroke-linejoin:miter;stroke-miterlimit:10;"/><path d="M318,623.6094 L318,665.6094 L763,665.6094 L763,633.6094 L753,623.6094 L318,623.6094" fill="#FEFFDD" style="stroke:#181818;stroke-width:0.5;"/><path d="M753,623.6094 L753,633.6094 L763,633.6094 L753,623.6094" fill="#FEFFDD" style="stroke:#181818;stroke-width:0.5;"/><text fill="#000000" font-family="sans-serif" font-size="13" font-weight="700" lengthAdjust="spacing" textLength="49.8608" x="324" y="642.1045">Sistema</text><text fill="#000000" font-family="sans-serif" font-size="13" lengthAdjust="spacing" textLength="183.5298" x="377.4727" y="642.1045">muestra errores de introducci&#243;n</text><text fill="#000000" font-family="sans-serif" font-size="13" font-weight="700" lengthAdjust="spacing" textLength="49.8608" x="324" y="658.4561">Sistema</text><text fill="#000000" font-family="sans-serif" font-size="13" lengthAdjust="spacing" textLength="370.6968" x="377.4727" y="658.4561">permite introducir correcciones y mantiene la pantalla de edici&#243;n</text></g><!--link IntroduciendoCambios to *end*editarEntregable--><g class="link" data-entity-1="ent0004" data-entity-2="ent0011" data-link-type="dependency" data-source-line="50" id="lnk14"><path d="M338.17,578.9294 C433.76,587.7294 769,618.6094 769,618.6094 C769,618.6094 769,810.6094 769,810.6094 C769,810.6094 608.5103,830.9409 563.9203,836.5909" fill="none" id="IntroduciendoCambios-to-*end*editarEntregable" style="stroke:#FF0000;stroke-width:1;"/><polygon fill="#FF0000" points="558.96,837.2194,568.3914,840.0563,563.9203,836.5909,567.3858,832.1198,558.96,837.2194" style="stroke:#FF0000;stroke-width:1;stroke-linejoin:miter;stroke-miterlimit:10;"/><path d="M774,693.6094 L774,735.6094 L1113,735.6094 L1113,703.6094 L1103,693.6094 L774,693.6094" fill="#FEFFDD" style="stroke:#181818;stroke-width:0.5;"/><path d="M1103,693.6094 L1103,703.6094 L1113,703.6094 L1103,693.6094" fill="#FEFFDD" style="stroke:#181818;stroke-width:0.5;"/><text fill="#000000" font-family="sans-serif" font-size="13" font-weight="700" lengthAdjust="spacing" textLength="77.9937" x="780" y="712.1045">Coordinador</text><text fill="#000000" font-family="sans-serif" font-size="13" lengthAdjust="spacing" textLength="151.0234" x="861.6055" y="712.1045">solicita cancelar la edici&#243;n</text><text fill="#000000" font-family="sans-serif" font-size="13" font-weight="700" lengthAdjust="spacing" textLength="49.8608" x="780" y="728.4561">Sistema</text><text fill="#000000" font-family="sans-serif" font-size="13" lengthAdjust="spacing" textLength="265.1987" x="833.4727" y="728.4561">presenta y visualiza el entregable sin cambios</text></g></g><g class="entity" data-qualified-name="ENTREGABLE_ABIERTO" data-source-line="57" id="ent0015"><rect fill="#F1F1F1" height="50" rx="12.5" ry="12.5" style="stroke:#181818;stroke-width:0.5;" width="183.3789" x="334.5" y="960"/><line style="stroke:#181818;stroke-width:0.5;" x1="334.5" x2="517.8789" y1="987.6094" y2="987.6094"/><text fill="#000000" font-family="sans-serif" font-size="14" lengthAdjust="spacing" textLength="163.3789" x="344.5" y="979.5332">ENTREGABLE_ABIERTO</text></g><g class="entity" data-qualified-name="ENTREGABLES_ABIERTOS" data-source-line="67" id="ent0018"><rect fill="#F1F1F1" height="50" rx="12.5" ry="12.5" style="stroke:#181818;stroke-width:0.5;" width="202.0547" x="617" y="960"/><line style="stroke:#181818;stroke-width:0.5;" x1="617" x2="819.0547" y1="987.6094" y2="987.6094"/><text fill="#000000" font-family="sans-serif" font-size="14" lengthAdjust="spacing" textLength="182.0547" x="627" y="979.5332">ENTREGABLES_ABIERTOS</text></g><!--link in1 to editarEntregable--><g class="link" data-entity-1="ent0001" data-entity-2="ent0002" data-link-type="dependency" data-source-line="4" id="lnk6"><path d="M572,57.25 C572,72.1 572,87.98 572,112.63" fill="none" id="in1-to-editarEntregable" style="stroke:#008000;stroke-width:1;"/><polygon fill="#008000" points="572,117.63,576,108.63,572,112.63,568,108.63,572,117.63" style="stroke:#008000;stroke-width:1;stroke-linejoin:miter;stroke-miterlimit:10;"/></g><!--link editarEntregable to ENTREGABLE_ABIERTO--><g class="link" data-entity-1="ent0002" data-entity-2="ent0015" data-link-type="dependency" data-source-line="57" id="lnk16"><path d="M321.15,864.11 C308.56,882.79 301,894 301,894 C301,894 301,930 301,930 C301,930 332.2096,943.4879 365.4896,957.8579" fill="none" id="editarEntregable-to-ENTREGABLE_ABIERTO" style="stroke:#008000;stroke-width:1;"/><polygon fill="#008000" points="370.08,959.84,363.403,952.6,365.4896,957.8579,360.2317,959.9446,370.08,959.84" style="stroke:#008000;stroke-width:1;stroke-linejoin:miter;stroke-miterlimit:10;"/><path d="M306,899 L306,925 L436,925 L436,909 L426,899 L306,899" fill="#FEFFDD" style="stroke:#181818;stroke-width:0.5;"/><path d="M426,899 L426,909 L436,909 L426,899" fill="#FEFFDD" style="stroke:#181818;stroke-width:0.5;"/><text fill="#000000" font-family="sans-serif" font-size="13" lengthAdjust="spacing" textLength="109.1416" x="312" y="917.4951">Entregable editado</text></g><!--link editarEntregable to ENTREGABLE_ABIERTO--><g class="link" data-entity-1="ent0002" data-entity-2="ent0015" data-link-type="dependency" data-source-line="62" id="lnk17"><path d="M464.01,864.43 C452.57,903.89 445,930 445,930 C445,930 441.2207,940.7538 436.1607,955.1238" fill="none" id="editarEntregable-to-ENTREGABLE_ABIERTO-1" style="stroke:#FF0000;stroke-width:1;"/><polygon fill="#FF0000" points="434.5,959.84,441.2621,952.6794,436.1607,955.1238,433.7163,950.0224,434.5,959.84" style="stroke:#FF0000;stroke-width:1;stroke-linejoin:miter;stroke-miterlimit:10;"/><path d="M459,899 L459,925 L585,925 L585,909 L575,899 L459,899" fill="#FEFFDD" style="stroke:#181818;stroke-width:0.5;"/><path d="M575,899 L575,909 L585,909 L575,899" fill="#FEFFDD" style="stroke:#181818;stroke-width:0.5;"/><text fill="#000000" font-family="sans-serif" font-size="13" lengthAdjust="spacing" textLength="105.5171" x="465" y="917.4951">Edici&#243;n cancelada</text></g><!--link editarEntregable to ENTREGABLES_ABIERTOS--><g class="link" data-entity-1="ent0002" data-entity-2="ent0018" data-link-type="dependency" data-source-line="67" id="lnk19"><path d="M644.27,864.43 C651.93,903.89 657,930 657,930 C657,930 670.7255,942.1566 686.9655,956.5266" fill="none" id="editarEntregable-to-ENTREGABLES_ABIERTOS" style="stroke:#008000;stroke-width:1;"/><polygon fill="#008000" points="690.71,959.84,686.6205,950.8803,686.9655,956.5266,681.3191,956.8716,690.71,959.84" style="stroke:#008000;stroke-width:1;stroke-linejoin:miter;stroke-miterlimit:10;"/><path d="M662,899 L662,925 L800,925 L800,909 L790,899 L662,899" fill="#FEFFDD" style="stroke:#181818;stroke-width:0.5;"/><path d="M790,899 L790,909 L800,909 L790,899" fill="#FEFFDD" style="stroke:#181818;stroke-width:0.5;"/><text fill="#000000" font-family="sans-serif" font-size="13" lengthAdjust="spacing" textLength="117.0508" x="668" y="917.4951">eliminarEntregable()</text></g><!--link editarEntregable to ENTREGABLES_ABIERTOS--><g class="link" data-entity-1="ent0002" data-entity-2="ent0018" data-link-type="dependency" data-source-line="72" id="lnk20"><path d="M791.38,864.11 C802.39,882.79 809,894 809,894 C809,894 809,930 809,930 C809,930 787.2406,942.9195 763.0106,957.2895" fill="none" id="editarEntregable-to-ENTREGABLES_ABIERTOS-1" style="stroke:#008000;stroke-width:1;"/><polygon fill="#008000" points="758.71,959.84,768.4914,958.6895,763.0106,957.2895,764.4106,951.8086,758.71,959.84" style="stroke:#008000;stroke-width:1;stroke-linejoin:miter;stroke-miterlimit:10;"/><path d="M814,899 L814,925 L939,925 L939,909 L929,899 L814,899" fill="#FEFFDD" style="stroke:#181818;stroke-width:0.5;"/><path d="M929,899 L929,909 L939,909 L929,899" fill="#FEFFDD" style="stroke:#181818;stroke-width:0.5;"/><text fill="#000000" font-family="sans-serif" font-size="13" lengthAdjust="spacing" textLength="104.0444" x="820" y="917.4951">abrirEntregables()</text></g><?plantuml-src hLNDQXin4BxlKmpk9Ic4qci91iVPXa1f8JQzX536qk2eqKgBj1jmIw7FqdjEVGI_IP-ae_snLzwruz3Q5qaxy-cR-RxPzG_AvEWm0wqC5QkS8BTw5JP9uWii29Hv2-XXb7wStwHNauiFwPV9nNLwC_yqIiApizjNIqTaxix6G58Lw59JE5hYGcymTiyhmDt3azCHV4yIu5-TDU8_1ywiLe93ZRIfv9Kr_PXhHh6o58euQehPGbdVZ_gCMic0Sua5Fwy2Rb_VHINikSrOXh4cjEcXEZXVZAVMEgaCIklEtop6u9lKfbmW3RHjHKXYTXLIVNN_geZ9tfg6kCoKBoZ3YaVkoFF521eXHrveNiXA1Q7MlyrGJbQIBnodM0yoT0TG52Lgyh22d5ocAYiqZ1o8ci-x2klFprymNpyLfRRRlSgtc_SaxXbx_HHWDgSfYoEtGPVaXLDvHH5El0BCkJzukWcOE76l7YsW_5gQmaOnWtreQBUwk2tRgnATn4qPc_Cf6a4wQDVjLIpRa2wHS3isUx5zbWsve4MNO4mZlYKYm9u-pYYx3GgEgNLNtx0MGlPTlCzkAtXKliwDlGyYa7XXDOxaFqr1wsXopZB3C02jV_TEmP3HhNCamd1Mev3nF34LEZXRn_cbAV2GM7ij8bgVQZmuraTeuvKPrkL7alJUsrsNzJy8ILH39wt2uL7VDcO8kMd8ixXDlMqJ93w3Ey1uraBFOcpIAkD-Hr-b_uUE2wSwsRwB_HS0?></g></svg>