<svg xmlns="http://www.w3.org/2000/svg" xmlns:xlink="http://www.w3.org/1999/xlink" contentStyleType="text/css" height="692px" preserveAspectRatio="none" style="width:846px;height:692px;background:#FFFFFF;" version="1.1" viewBox="0 0 846 692" width="846px" zoomAndPan="magnify"><defs/><g><g id="in1"><rect fill="#F1F1F1" height="50" rx="12.5" ry="12.5" style="stroke:#181818;stroke-width:0.5;" width="182.5996" x="328.5" y="7"/><line style="stroke:#181818;stroke-width:0.5;" x1="328.5" x2="511.0996" y1="34.6094" y2="34.6094"/><text fill="#000000" font-family="sans-serif" font-size="14" lengthAdjust="spacing" textLength="162.5996" x="338.5" y="26.5332">PUBLICACION_ABIERTA</text></g><path d="M19.5,135 L820.5,135 A12.5,12.5 0 0 1 833,147.5 L833,162.6094 L7,162.6094 L7,147.5 A12.5,12.5 0 0 1 19.5,135 " fill="#F1F1F1" style="stroke:#F1F1F1;stroke-width:1;"/><rect fill="none" height="422.6094" rx="12.5" ry="12.5" style="stroke:#181818;stroke-width:0.5;" width="826" x="7" y="135"/><line style="stroke:#181818;stroke-width:0.5;" x1="7" x2="833" y1="162.6094" y2="162.6094"/><text fill="#000000" font-family="sans-serif" font-size="14" lengthAdjust="spacing" textLength="143.9648" x="348.0176" y="154.5332">responderPublicacion()</text><g id="responderPublicacion.IntroduciendoRespuesta"><rect fill="#F1F1F1" height="50" rx="12.5" ry="12.5" style="stroke:#181818;stroke-width:0.5;" width="50" x="342" y="281.6094"/><line style="stroke:#181818;stroke-width:0.5;" x1="342" x2="392" y1="309.2188" y2="309.2188"/><text fill="#000000" font-family="sans-serif" font-size="14" lengthAdjust="spacing" textLength="3.8896" x="365.0552" y="301.1426">&#160;</text></g><g id="responderPublicacion.ValidandoRespuesta"><rect fill="#F1F1F1" height="50" rx="12.5" ry="12.5" style="stroke:#181818;stroke-width:0.5;" width="50" x="279" y="403.6094"/><line style="stroke:#181818;stroke-width:0.5;" x1="279" x2="329" y1="431.2188" y2="431.2188"/><text fill="#000000" font-family="sans-serif" font-size="14" lengthAdjust="spacing" textLength="3.8896" x="302.0552" y="423.1426">&#160;</text></g><ellipse cx="367" cy="183.6094" fill="#222222" rx="10" ry="10" style="stroke:#222222;stroke-width:1;"/><ellipse cx="472" cy="536.6094" fill="none" rx="11" ry="11" style="stroke:#222222;stroke-width:1;"/><ellipse cx="472" cy="536.6094" fill="#222222" rx="6" ry="6" style="stroke:#222222;stroke-width:1;"/><!--link *start*responderPublicacion to IntroduciendoRespuesta--><g id="link_*start*responderPublicacion_IntroduciendoRespuesta"><path d="M367,193.6994 C367,212.1694 367,248.5894 367,275.5794 " fill="none" id="*start*responderPublicacion-to-IntroduciendoRespuesta" style="stroke:#008000;stroke-width:1;"/><polygon fill="#008000" points="367,281.5794,371,272.5794,367,276.5794,363,272.5794,367,281.5794" style="stroke:#008000;stroke-width:1;"/><path d="M372,216.6094 L372,258.6094 L650,258.6094 L650,226.6094 L640,216.6094 L372,216.6094 " fill="#FEFFDD" style="stroke:#181818;stroke-width:0.5;"/><path d="M640,216.6094 L640,226.6094 L650,226.6094 L640,216.6094 " fill="#FEFFDD" style="stroke:#181818;stroke-width:0.5;"/><text fill="#000000" font-family="sans-serif" font-size="13" font-weight="bold" lengthAdjust="spacing" textLength="77.2954" x="378" y="235.1045">Investigador</text><text fill="#000000" font-family="sans-serif" font-size="13" lengthAdjust="spacing" textLength="170.5425" x="458.9072" y="235.1045">solicita responder publicacion</text><text fill="#000000" font-family="sans-serif" font-size="13" font-weight="bold" lengthAdjust="spacing" textLength="49.8608" x="378" y="251.4561">Sistema</text><text fill="#000000" font-family="sans-serif" font-size="13" lengthAdjust="spacing" textLength="204.5024" x="431.4727" y="251.4561">presenta el formulario de respuesta</text></g><!--link IntroduciendoRespuesta to ValidandoRespuesta--><g id="link_IntroduciendoRespuesta_ValidandoRespuesta"><path d="M341.9,310.6294 C261.88,320.2594 18,349.6094 18,349.6094 C18,349.6094 18,385.6094 18,385.6094 C18,385.6094 203.1437,412.7975 272.9337,423.0475 " fill="none" id="IntroduciendoRespuesta-to-ValidandoRespuesta" style="stroke:#008000;stroke-width:1;"/><polygon fill="#008000" points="278.87,423.9194,270.5468,418.654,273.9231,423.1928,269.3843,426.5691,278.87,423.9194" style="stroke:#008000;stroke-width:1;"/><path d="M23,354.6094 L23,380.6094 L340,380.6094 L340,364.6094 L330,354.6094 L23,354.6094 " fill="#FEFFDD" style="stroke:#181818;stroke-width:0.5;"/><path d="M330,354.6094 L330,364.6094 L340,364.6094 L330,354.6094 " fill="#FEFFDD" style="stroke:#181818;stroke-width:0.5;"/><text fill="#000000" font-family="sans-serif" font-size="13" font-weight="bold" lengthAdjust="spacing" textLength="77.2954" x="29" y="373.1045">Investigador</text><text fill="#000000" font-family="sans-serif" font-size="13" lengthAdjust="spacing" textLength="216.0679" x="109.9072" y="373.1045">introduce contenido y solicita publicar</text></g><!--link ValidandoRespuesta to *end*responderPublicacion--><g id="link_ValidandoRespuesta_*end*responderPublicacion"><path d="M304.31,453.8594 C304.6,476.7594 305,507.6094 305,507.6094 C305,507.6094 418.5226,526.6473 455.3826,532.8273 " fill="none" id="ValidandoRespuesta-to-*end*responderPublicacion" style="stroke:#008000;stroke-width:1;"/><polygon fill="#008000" points="461.3,533.8194,453.0853,528.3863,456.3688,532.9926,451.7625,536.2761,461.3,533.8194" style="stroke:#008000;stroke-width:1;"/><path d="M310,476.6094 L310,502.6094 L622,502.6094 L622,486.6094 L612,476.6094 L310,476.6094 " fill="#FEFFDD" style="stroke:#181818;stroke-width:0.5;"/><path d="M612,476.6094 L612,486.6094 L622,486.6094 L612,476.6094 " fill="#FEFFDD" style="stroke:#181818;stroke-width:0.5;"/><text fill="#000000" font-family="sans-serif" font-size="13" font-weight="bold" lengthAdjust="spacing" textLength="49.8608" x="316" y="495.1045">Sistema</text><text fill="#000000" font-family="sans-serif" font-size="13" lengthAdjust="spacing" textLength="238.4624" x="369.4727" y="495.1045">registra la respuesta con su autor y fecha</text></g><!--link ValidandoRespuesta to IntroduciendoRespuesta--><g id="link_ValidandoRespuesta_IntroduciendoRespuesta"><path d="M327.85,403.1794 C336.87,393.9394 345,385.6094 345,385.6094 C345,385.6094 352.071,360.534 358.531,337.634 " fill="none" id="ValidandoRespuesta-to-IntroduciendoRespuesta" style="stroke:#FF0000;stroke-width:1;"/><polygon fill="#FF0000" points="360.16,331.8594,353.8667,339.4353,358.8025,336.6716,361.5663,341.6073,360.16,331.8594" style="stroke:#FF0000;stroke-width:1;"/><path d="M360,354.6094 L360,380.6094 L609,380.6094 L609,364.6094 L599,354.6094 L360,354.6094 " fill="#FEFFDD" style="stroke:#181818;stroke-width:0.5;"/><path d="M599,354.6094 L599,364.6094 L609,364.6094 L599,354.6094 " fill="#FEFFDD" style="stroke:#181818;stroke-width:0.5;"/><text fill="#000000" font-family="sans-serif" font-size="13" font-weight="bold" lengthAdjust="spacing" textLength="49.8608" x="366" y="373.1045">Sistema</text><text fill="#000000" font-family="sans-serif" font-size="13" lengthAdjust="spacing" textLength="174.8779" x="419.4727" y="373.1045">presenta errores de validacion</text></g><!--link IntroduciendoRespuesta to *end*responderPublicacion--><g id="link_IntroduciendoRespuesta_*end*responderPublicacion"><path d="M392.45,311.8694 C456.26,322.5494 618,349.6094 618,349.6094 C618,349.6094 627,471.6094 627,471.6094 C627,471.6094 627,507.6094 627,507.6094 C627,507.6094 523.5743,526.2921 488.5543,532.6221 " fill="none" id="IntroduciendoRespuesta-to-*end*responderPublicacion" style="stroke:#FF0000;stroke-width:1;"/><polygon fill="#FF0000" points="482.65,533.6894,492.218,536.0247,487.5703,532.8,490.795,528.1523,482.65,533.6894" style="stroke:#FF0000;stroke-width:1;"/><path d="M630,415.6094 L630,441.6094 L824,441.6094 L824,425.6094 L814,415.6094 L630,415.6094 " fill="#FEFFDD" style="stroke:#181818;stroke-width:0.5;"/><path d="M814,415.6094 L814,425.6094 L824,425.6094 L814,415.6094 " fill="#FEFFDD" style="stroke:#181818;stroke-width:0.5;"/><text fill="#000000" font-family="sans-serif" font-size="13" font-weight="bold" lengthAdjust="spacing" textLength="77.2954" x="636" y="434.1045">Investigador</text><text fill="#000000" font-family="sans-serif" font-size="13" lengthAdjust="spacing" textLength="92.4854" x="716.9072" y="434.1045">solicita cancelar</text></g><g id="PUBLICACION_ABIERTA"><rect fill="#F1F1F1" height="50" rx="12.5" ry="12.5" style="stroke:#181818;stroke-width:0.5;" width="182.5996" x="328.5" y="636"/><line style="stroke:#181818;stroke-width:0.5;" x1="328.5" x2="511.0996" y1="663.6094" y2="663.6094"/><text fill="#000000" font-family="sans-serif" font-size="14" lengthAdjust="spacing" textLength="162.5996" x="338.5" y="655.5332">PUBLICACION_ABIERTA</text></g><!--link in1 to responderPublicacion--><g id="link_in1_responderPublicacion"><path d="M420,57 C420,75.65 420,97.54 420,128.74 " fill="none" id="in1-to-responderPublicacion" style="stroke:#008000;stroke-width:1;"/><polygon fill="#008000" points="420,134.74,424,125.74,420,129.74,416,125.74,420,134.74" style="stroke:#008000;stroke-width:1;"/><text fill="#000000" font-family="sans-serif" font-size="13" lengthAdjust="spacing" textLength="133.6816" x="421" y="101.4951">responderPublicacion()</text></g><!--link responderPublicacion to PUBLICACION_ABIERTA--><g id="link_responderPublicacion_PUBLICACION_ABIERTA"><path d="M346.47,558.03 C340.09,576.29 336,588 336,588 C336,588 336,606 336,606 C336,606 355.0125,618.2261 377.3725,632.5961 " fill="none" id="responderPublicacion-to-PUBLICACION_ABIERTA" style="stroke:#008000;stroke-width:1;"/><polygon fill="#008000" points="382.42,635.84,377.0113,627.6092,378.2137,633.1368,372.6862,634.3392,382.42,635.84" style="stroke:#008000;stroke-width:1;"/><text fill="#000000" font-family="sans-serif" font-size="13" lengthAdjust="spacing" textLength="121.418" x="337" y="602.4951">Respuesta publicada</text></g><!--link responderPublicacion to PUBLICACION_ABIERTA--><g id="link_responderPublicacion_PUBLICACION_ABIERTA"><path d="M457.64,558.03 C460.91,576.29 463,588 463,588 C463,588 463,606 463,606 C463,606 454.429,616.7775 442.979,631.1475 " fill="none" id="responderPublicacion-to-PUBLICACION_ABIERTA-1" style="stroke:#FF0000;stroke-width:1;"/><polygon fill="#FF0000" points="439.24,635.84,447.9769,631.2939,442.3558,631.9296,441.7202,626.3085,439.24,635.84" style="stroke:#FF0000;stroke-width:1;"/><text fill="#000000" font-family="sans-serif" font-size="13" lengthAdjust="spacing" textLength="125.0298" x="464" y="602.4951">Respuesta cancelada</text></g><!--SRC=[dPDDQy9048Rl-HL3UcaBKdej8gZq42Yjs8-BI1cperrSTyDa8qZfV-yaniRKrKgJItPtFfxtdMo-r3P3nXKORSblCeBCcKsvYABSeoVGzXOmXtZqEdX8XlrXylJutXyaz-ENVXoLXvt9nOA9xBJJ0wOySrOHZugPqIccsbcu2svVNkqw19FAbk6q63uZa6UR7CihiOdrx5IHQhBAZIMl83a_Z7j3enMsOggWoVMq9UH4FUkad12AISjgeplh9NOjvtg1od7tPjQ3t0cmzjY8WwmHiKjxrhcd5LOPcKIIbGmoC7UyAWooTg2s_ZJj1QX2s7A7ELjI0fBFbg7hyWIfivwiLWusZRXQ4WV03hkseCJlenJxhZ0jPCK81XiVIXZ82y32EnQUEQKVU3O3a_h7XCEZOdRoNGvfNVNw6UwvKwfXJjbn_DzAqQPaVjl_5KN16xLlV-0oopLjoEh1AZnQgWR_gr2DgF0R]--></g></svg>