<svg xmlns="http://www.w3.org/2000/svg" xmlns:xlink="http://www.w3.org/1999/xlink" contentStyleType="text/css" data-diagram-type="DESCRIPTION" height="537px" preserveAspectRatio="none" style="width:1976px;height:537px;background:#FFFFFF;" version="1.1" viewBox="0 0 1976 537" width="1976px" zoomAndPan="magnify"><defs/><g><!--cluster abrirSolicitudesEliminacionPerfil--><g class="cluster" data-entity="abrirSolicitudesEliminacionPerfil" data-source-line="5" data-uid="ent0004" id="cluster_abrirSolicitudesEliminacionPerfil"><path d="M249.5,109 L479.2168,109 A3.75,3.75 0 0 1 481.7168,111.5 L488.7168,132.6094 L1004.5,132.6094 A2.5,2.5 0 0 1 1007,135.1094 L1007,527.5 A2.5,2.5 0 0 1 1004.5,530 L249.5,530 A2.5,2.5 0 0 1 247,527.5 L247,111.5 A2.5,2.5 0 0 1 249.5,109" fill="none" style="stroke:#000000;stroke-width:1.5;"/><line style="stroke:#000000;stroke-width:1.5;" x1="247" x2="488.7168" y1="132.6094" y2="132.6094"/><text fill="#000000" font-family="sans-serif" font-size="14" font-weight="bold" lengthAdjust="spacing" textLength="228.7168" x="251" y="125.5332">abrirSolicitudesEliminacionPerfil()</text></g><!--entity ListarSolicitudesEliminacionPerfilView--><g class="entity" data-entity="ListarSolicitudesEliminacionPerfilView" data-source-line="6" data-uid="ent0005" id="entity_ListarSolicitudesEliminacionPerfilView"><rect fill="#629EF9" height="37.6094" rx="2.5" ry="2.5" style="stroke:#181818;stroke-width:0.5;" width="255.7646" x="728" y="145"/><text fill="#000000" font-family="sans-serif" font-size="14" lengthAdjust="spacing" textLength="235.7646" x="738" y="169.5332">ListarSolicitudesEliminacionPerfilView</text></g><!--entity SolicitudEliminacionPerfilController--><g class="entity" data-entity="SolicitudEliminacionPerfilController" data-source-line="7" data-uid="ent0006" id="entity_SolicitudEliminacionPerfilController"><rect fill="#B5BD68" height="37.6094" rx="2.5" ry="2.5" style="stroke:#181818;stroke-width:0.5;" width="237.0889" x="527.5" y="261"/><text fill="#000000" font-family="sans-serif" font-size="14" lengthAdjust="spacing" textLength="217.0889" x="537.5" y="285.5332">SolicitudEliminacionPerfilController</text></g><!--entity SolicitudEliminacionPerfilRepository--><g class="entity" data-entity="SolicitudEliminacionPerfilRepository" data-source-line="8" data-uid="ent0007" id="entity_SolicitudEliminacionPerfilRepository"><rect fill="#F2AC4E" height="37.6094" rx="2.5" ry="2.5" style="stroke:#181818;stroke-width:0.5;" width="243.3164" x="395.5" y="377"/><text fill="#000000" font-family="sans-serif" font-size="14" lengthAdjust="spacing" textLength="223.3164" x="405.5" y="401.5332">SolicitudEliminacionPerfilRepository</text></g><!--entity SolicitudEliminacionPerfil--><g class="entity" data-entity="SolicitudEliminacionPerfil" data-source-line="9" data-uid="ent0008" id="entity_SolicitudEliminacionPerfil"><rect fill="#F2AC4E" height="37.6094" rx="2.5" ry="2.5" style="stroke:#181818;stroke-width:0.5;" width="176.3994" x="429" y="476"/><text fill="#000000" font-family="sans-serif" font-size="14" lengthAdjust="spacing" textLength="156.3994" x="439" y="500.5332">SolicitudEliminacionPerfil</text></g><!--entity EstadoEntradaOpciones--><g class="entity" data-entity="EstadoEntradaOpciones" data-source-line="3" data-uid="ent0002" id="entity_EstadoEntradaOpciones"><rect fill="#CDEBA5" height="37.6094" rx="2.5" ry="2.5" style="stroke:#181818;stroke-width:0.5;" width="223.834" x="7" y="145"/><text fill="#000000" font-family="sans-serif" font-size="14" lengthAdjust="spacing" textLength="203.834" x="17" y="169.5332">:OPCIONES_PERFIL_ABIERTO</text></g><!--entity EstadoEntradaSolicitud--><g class="entity" data-entity="EstadoEntradaSolicitud" data-source-line="4" data-uid="ent0003" id="entity_EstadoEntradaSolicitud"><rect fill="#CDEBA5" height="37.6094" rx="2.5" ry="2.5" style="stroke:#181818;stroke-width:0.5;" width="321.8545" x="695" y="7"/><text fill="#000000" font-family="sans-serif" font-size="14" lengthAdjust="spacing" textLength="301.8545" x="705" y="31.5332">:SOLICITUD_ELIMINACION_PERFIL_ABIERTA</text></g><!--entity EstadoSalida--><g class="entity" data-entity="EstadoSalida" data-source-line="12" data-uid="ent0009" id="entity_EstadoSalida"><rect fill="#CDEBA5" height="37.6094" rx="2.5" ry="2.5" style="stroke:#181818;stroke-width:0.5;" width="349.8682" x="1023" y="261"/><text fill="#000000" font-family="sans-serif" font-size="14" lengthAdjust="spacing" textLength="329.8682" x="1033" y="285.5332">:SOLICITUDES_ELIMINACION_PERFIL_ABIERTAS</text></g><!--entity AbrirSolicitudEliminacionPerfil--><g class="entity" data-entity="AbrirSolicitudEliminacionPerfil" data-source-line="13" data-uid="ent0010" id="entity_AbrirSolicitudEliminacionPerfil"><rect fill="#CDEBA5" height="37.6094" rx="2.5" ry="2.5" style="stroke:#181818;stroke-width:0.5;" width="296.2334" x="1408" y="261"/><text fill="#000000" font-family="sans-serif" font-size="14" lengthAdjust="spacing" textLength="276.2334" x="1418" y="285.5332">:Collaboration AbrirSolicitudEliminacionPerfil</text></g><!--entity AbrirOpcionesPerfil--><g class="entity" data-entity="AbrirOpcionesPerfil" data-source-line="14" data-uid="ent0011" id="entity_AbrirOpcionesPerfil"><rect fill="#CDEBA5" height="37.6094" rx="2.5" ry="2.5" style="stroke:#181818;stroke-width:0.5;" width="230.875" x="1739.5" y="261"/><text fill="#000000" font-family="sans-serif" font-size="14" lengthAdjust="spacing" textLength="210.875" x="1749.5" y="285.5332">:Collaboration AbrirOpcionesPerfil</text></g><!--link EstadoEntradaOpciones to ListarSolicitudesEliminacionPerfilView--><g class="link" data-entity-1="EstadoEntradaOpciones" data-entity-2="ListarSolicitudesEliminacionPerfilView" data-source-line="16" data-uid="lnk12" id="link_EstadoEntradaOpciones_ListarSolicitudesEliminacionPerfilView"><path d="M231.34,164 C365.02,164 581.72,164 721.96,164" fill="none" id="EstadoEntradaOpciones-to-ListarSolicitudesEliminacionPerfilView" style="stroke:#181818;stroke-width:1;"/><polygon fill="#181818" points="727.96,164,718.96,160,722.96,164,718.96,168,727.96,164" style="stroke:#181818;stroke-width:1;"/><text fill="#000000" font-family="sans-serif" font-size="13" lengthAdjust="spacing" textLength="193.6226" x="383" y="157.4951">abrirSolicitudesEliminacionPerfil()</text></g><!--link EstadoEntradaSolicitud to ListarSolicitudesEliminacionPerfilView--><g class="link" data-entity-1="EstadoEntradaSolicitud" data-entity-2="ListarSolicitudesEliminacionPerfilView" data-source-line="17" data-uid="lnk13" id="link_EstadoEntradaSolicitud_ListarSolicitudesEliminacionPerfilView"><path d="M856,45.06 C856,71.07 856,112.81 856,138.87" fill="none" id="EstadoEntradaSolicitud-to-ListarSolicitudesEliminacionPerfilView" style="stroke:#181818;stroke-width:1;"/><polygon fill="#181818" points="856,144.87,860,135.87,856,139.87,852,135.87,856,144.87" style="stroke:#181818;stroke-width:1;"/><text fill="#000000" font-family="sans-serif" font-size="13" lengthAdjust="spacing" textLength="193.6226" x="857" y="89.4951">abrirSolicitudesEliminacionPerfil()</text></g><!--link ListarSolicitudesEliminacionPerfilView to SolicitudEliminacionPerfilController--><g class="link" data-entity-1="ListarSolicitudesEliminacionPerfilView" data-entity-2="SolicitudEliminacionPerfilController" data-source-line="19" data-uid="lnk14" id="link_ListarSolicitudesEliminacionPerfilView_SolicitudEliminacionPerfilController"><path d="M775.33,183.01 C714.32,196.63 641,213 641,213 C641,213 641,231 641,231 C641,231 642.0665,241.2925 643.4865,254.8825" fill="none" id="ListarSolicitudesEliminacionPerfilView-to-SolicitudEliminacionPerfilController" style="stroke:#181818;stroke-width:1;"/><polygon fill="#181818" points="644.11,260.85,647.153,251.483,643.5904,255.8771,639.1964,252.3144,644.11,260.85" style="stroke:#181818;stroke-width:1;"/><text fill="#000000" font-family="sans-serif" font-size="13" lengthAdjust="spacing" textLength="164.0234" x="642" y="227.4951">listarSolicitudesPendientes()</text></g><!--link ListarSolicitudesEliminacionPerfilView to SolicitudEliminacionPerfilController--><g class="link" data-entity-1="ListarSolicitudesEliminacionPerfilView" data-entity-2="SolicitudEliminacionPerfilController" data-source-line="20" data-uid="lnk15" id="link_ListarSolicitudesEliminacionPerfilView_SolicitudEliminacionPerfilController"><path d="M843.7,183.03 C830.38,202.58 811,231 811,231 C811,231 760.4912,245.6941 713.6712,259.3141" fill="none" id="ListarSolicitudesEliminacionPerfilView-to-SolicitudEliminacionPerfilController-1" style="stroke:#181818;stroke-width:1;"/><polygon fill="#181818" points="707.91,260.99,717.6691,262.3169,712.711,259.5934,715.4345,254.6353,707.91,260.99" style="stroke:#181818;stroke-width:1;"/><text fill="#000000" font-family="sans-serif" font-size="13" lengthAdjust="spacing" textLength="139.4199" x="824" y="227.4951">filtrarSolicitudes(criterio)</text></g><!--link SolicitudEliminacionPerfilController to SolicitudEliminacionPerfilRepository--><g class="link" data-entity-1="SolicitudEliminacionPerfilController" data-entity-2="SolicitudEliminacionPerfilRepository" data-source-line="21" data-uid="lnk16" id="link_SolicitudEliminacionPerfilController_SolicitudEliminacionPerfilRepository"><path d="M527.17,297.25 C425.34,311.18 295,329 295,329 C295,329 295,347 295,347 C295,347 364.8455,362.102 427.8355,375.722" fill="none" id="SolicitudEliminacionPerfilController-to-SolicitudEliminacionPerfilRepository" style="stroke:#181818;stroke-width:1;"/><polygon fill="#181818" points="433.7,376.99,425.7487,371.1783,428.8129,375.9333,424.0579,378.9976,433.7,376.99" style="stroke:#181818;stroke-width:1;"/><text fill="#000000" font-family="sans-serif" font-size="13" lengthAdjust="spacing" textLength="309.2769" x="296" y="343.4951">obtenerPendientes() : List&lt;SolicitudEliminacionPerfil&gt;</text></g><!--link SolicitudEliminacionPerfilController to SolicitudEliminacionPerfilRepository--><g class="link" data-entity-1="SolicitudEliminacionPerfilController" data-entity-2="SolicitudEliminacionPerfilRepository" data-source-line="22" data-uid="lnk17" id="link_SolicitudEliminacionPerfilController_SolicitudEliminacionPerfilRepository"><path d="M636.16,299.03 C625.5,318.58 610,347 610,347 C610,347 583.6118,360.6182 557.2218,374.2382" fill="none" id="SolicitudEliminacionPerfilController-to-SolicitudEliminacionPerfilRepository-1" style="stroke:#181818;stroke-width:1;"/><polygon fill="#181818" points="551.89,376.99,561.7222,376.4169,556.3331,374.6969,558.0532,369.3079,551.89,376.99" style="stroke:#181818;stroke-width:1;"/><text fill="#000000" font-family="sans-serif" font-size="13" lengthAdjust="spacing" textLength="340.2852" x="620" y="343.4951">buscarPorCriterio(criterio) : List&lt;SolicitudEliminacionPerfil&gt;</text></g><!--link SolicitudEliminacionPerfilRepository to SolicitudEliminacionPerfil--><g class="link" data-entity-1="SolicitudEliminacionPerfilRepository" data-entity-2="SolicitudEliminacionPerfil" data-source-line="23" data-uid="lnk18" id="link_SolicitudEliminacionPerfilRepository_SolicitudEliminacionPerfil"><path d="M517,415.24 C517,432.59 517,458.52 517,475.84" fill="none" id="SolicitudEliminacionPerfilRepository-SolicitudEliminacionPerfil" style="stroke:#181818;stroke-width:1;"/></g><!--link ListarSolicitudesEliminacionPerfilView to EstadoSalida--><g class="link" data-entity-1="ListarSolicitudesEliminacionPerfilView" data-entity-2="EstadoSalida" data-source-line="24" data-uid="lnk19" id="link_ListarSolicitudesEliminacionPerfilView_EstadoSalida"><path d="M910.19,183.06 C974.14,204.38 1074.1279,237.7126 1138.0879,259.0326" fill="none" id="ListarSolicitudesEliminacionPerfilView-to-EstadoSalida" style="stroke:#181818;stroke-width:1;stroke-dasharray:7,7;"/><polygon fill="#181818" points="1143.78,260.93,1136.5068,254.2892,1139.0366,259.3489,1133.9769,261.8787,1143.78,260.93" style="stroke:#181818;stroke-width:1;"/><text fill="#000000" font-family="sans-serif" font-size="13" lengthAdjust="spacing" textLength="213.1353" x="1048" y="227.4951">solicitudesEliminacionPerfilAbiertas()</text></g><!--link ListarSolicitudesEliminacionPerfilView to AbrirSolicitudEliminacionPerfil--><g class="link" data-entity-1="ListarSolicitudesEliminacionPerfilView" data-entity-2="AbrirSolicitudEliminacionPerfil" data-source-line="25" data-uid="lnk20" id="link_ListarSolicitudesEliminacionPerfilView_AbrirSolicitudEliminacionPerfil"><path d="M984.16,179.86 C1105.74,193.96 1270,213 1270,213 C1270,213 1387.3238,240.0703 1472.0038,259.6203" fill="none" id="ListarSolicitudesEliminacionPerfilView-to-AbrirSolicitudEliminacionPerfil" style="stroke:#181818;stroke-width:1;stroke-dasharray:7,7;"/><polygon fill="#181818" points="1477.85,260.97,1469.9805,255.048,1472.9782,259.8452,1468.1809,262.8429,1477.85,260.97" style="stroke:#181818;stroke-width:1;"/><text fill="#000000" font-family="sans-serif" font-size="13" lengthAdjust="spacing" textLength="190.0107" x="1347" y="227.4951">abrirSolicitudEliminacionPerfil(id)</text></g><!--link ListarSolicitudesEliminacionPerfilView to AbrirOpcionesPerfil--><g class="link" data-entity-1="ListarSolicitudesEliminacionPerfilView" data-entity-2="AbrirOpcionesPerfil" data-source-line="26" data-uid="lnk21" id="link_ListarSolicitudesEliminacionPerfilView_AbrirOpcionesPerfil"><path d="M984.17,173.92 C1183.71,187.8 1546,213 1546,213 C1546,213 1673.2125,240.1661 1764.6925,259.7161" fill="none" id="ListarSolicitudesEliminacionPerfilView-to-AbrirOpcionesPerfil" style="stroke:#181818;stroke-width:1;stroke-dasharray:7,7;"/><polygon fill="#181818" points="1770.56,260.97,1762.5947,255.1774,1765.6704,259.9251,1760.9228,263.0008,1770.56,260.97" style="stroke:#181818;stroke-width:1;"/><text fill="#000000" font-family="sans-serif" font-size="13" lengthAdjust="spacing" textLength="119.2026" x="1629" y="227.4951">abrirOpcionesPerfil()</text></g><!--SRC=[hPHDJ-Cm48Rl_XMZxWKEvO00BT6gKWYk5AcGg66vLauoYqOOExADLXNYl-FmrIOjgIlmpPRVvvtnpDZUasg44GyWIQ5RDWYDbijsmvZ1oWbr9n5-9PVy8Zw5KPJbIPfTysAHy_aqdItYYvJFRx8H20lSEb5hhfmHjSYQYhH2kvLIPBCqIM_-NYxuBBrAh-CMsaN6cyX2Iwh8FTQi4TMzk4CGfI7pUOoMIteW9Lhd7Cq_aYrZjFFMmU48dXZujHRisV4vdvx3Z7m8W-fRmlzzSNbQrcU_uLEs8KgqpqbBYQOldHx7oGaVaCwnqPQSDikzfUoP3TV35_RhYXHh9Ic4f5fiXIK-BL5g8vptXRZp-1iHlI9tt0br-MYvFhbxpjZMFeMn6Ky2gnr1G4knxRqBu_g7VLWOxCquf2CZ_ndqY3cgcb0vjDumr2_Opc_z8wqJ3of33WtfGnQ2sE6rcfW8TEbGeLbF2ABNUlpv6Z3vwIZAHri9askJlEUvIlXxqQnCV3H3Fq5W4O-E9fs9Zy0EIEAIq3YnHvEq_1tZtv-2pHcWUd-_xgVmxj4zz5cy0000]--></g></svg>