<svg xmlns="http://www.w3.org/2000/svg" xmlns:xlink="http://www.w3.org/1999/xlink" contentStyleType="text/css" data-diagram-type="DESCRIPTION" height="661px" preserveAspectRatio="none" style="width:1984px;height:661px;background:#FFFFFF;" version="1.1" viewBox="0 0 1984 661" width="1984px" zoomAndPan="magnify"><?plantuml 1.2026.6?><defs/><g><!--cluster abrirSolicitudesEliminacionPerfil--><g class="cluster" data-qualified-name="abrirSolicitudesEliminacionPerfil" data-source-line="5" id="ent0003"><path d="M249.5,109 L479.2168,109 A3.75,3.75 0 0 1 481.7168,111.5 L488.7168,132.6094 L1004.5,132.6094 A2.5,2.5 0 0 1 1007,135.1094 L1007,643.5 A2.5,2.5 0 0 1 1004.5,646 L249.5,646 A2.5,2.5 0 0 1 247,643.5 L247,111.5 A2.5,2.5 0 0 1 249.5,109" fill="none" style="stroke:#000000;stroke-width:1.5;"/><line style="stroke:#000000;stroke-width:1.5;" x1="247" x2="488.7168" y1="132.6094" y2="132.6094"/><text fill="#000000" font-family="sans-serif" font-size="14" font-weight="700" lengthAdjust="spacing" textLength="228.7168" x="251" y="125.5332">abrirSolicitudesEliminacionPerfil()</text></g><!--entity ListarSolicitudesEliminacionPerfilView--><g class="entity" data-qualified-name="abrirSolicitudesEliminacionPerfil.ListarSolicitudesEliminacionPerfilView" data-source-line="6" id="ent0004"><rect fill="#629EF9" height="37.6094" rx="2.5" ry="2.5" style="stroke:#181818;stroke-width:0.5;" width="255.7646" x="728" y="145"/><text fill="#000000" font-family="sans-serif" font-size="14" lengthAdjust="spacing" textLength="235.7646" x="738" y="169.5332">ListarSolicitudesEliminacionPerfilView</text></g><!--entity SolicitudEliminacionPerfilController--><g class="entity" data-qualified-name="abrirSolicitudesEliminacionPerfil.SolicitudEliminacionPerfilController" data-source-line="7" id="ent0005"><rect fill="#B5BD68" height="37.6094" rx="2.5" ry="2.5" style="stroke:#181818;stroke-width:0.5;" width="237.0889" x="559.5" y="261"/><text fill="#000000" font-family="sans-serif" font-size="14" lengthAdjust="spacing" textLength="217.0889" x="569.5" y="285.5332">SolicitudEliminacionPerfilController</text></g><!--entity PerfilService--><g class="entity" data-qualified-name="abrirSolicitudesEliminacionPerfil.PerfilService" data-source-line="8" id="ent0006"><rect fill="#B5BD68" height="37.6094" rx="2.5" ry="2.5" style="stroke:#181818;stroke-width:0.5;" width="98.5791" x="451.5" y="377"/><text fill="#000000" font-family="sans-serif" font-size="14" lengthAdjust="spacing" textLength="78.5791" x="461.5" y="401.5332">PerfilService</text></g><!--entity SesionService--><g class="entity" data-qualified-name="abrirSolicitudesEliminacionPerfil.SesionService" data-source-line="9" id="ent0007"><rect fill="#B5BD68" height="37.6094" rx="2.5" ry="2.5" style="stroke:#181818;stroke-width:0.5;" width="109.4893" x="691.5" y="377"/><text fill="#000000" font-family="sans-serif" font-size="14" lengthAdjust="spacing" textLength="89.4893" x="701.5" y="401.5332">SesionService</text></g><!--entity SolicitudEliminacionPerfilRepository--><g class="entity" data-qualified-name="abrirSolicitudesEliminacionPerfil.SolicitudEliminacionPerfilRepository" data-source-line="10" id="ent0008"><rect fill="#F2AC4E" height="37.6094" rx="2.5" ry="2.5" style="stroke:#181818;stroke-width:0.5;" width="243.3164" x="395.5" y="493"/><text fill="#000000" font-family="sans-serif" font-size="14" lengthAdjust="spacing" textLength="223.3164" x="405.5" y="517.5332">SolicitudEliminacionPerfilRepository</text></g><!--entity SolicitudEliminacionPerfil--><g class="entity" data-qualified-name="abrirSolicitudesEliminacionPerfil.SolicitudEliminacionPerfil" data-source-line="11" id="ent0009"><rect fill="#F2AC4E" height="37.6094" rx="2.5" ry="2.5" style="stroke:#181818;stroke-width:0.5;" width="176.3994" x="429" y="592"/><text fill="#000000" font-family="sans-serif" font-size="14" lengthAdjust="spacing" textLength="156.3994" x="439" y="616.5332">SolicitudEliminacionPerfil</text></g><!--entity EstadoEntradaOpciones--><g class="entity" data-qualified-name="EstadoEntradaOpciones" data-source-line="3" id="ent0001"><rect fill="#CDEBA5" height="37.6094" rx="2.5" ry="2.5" style="stroke:#181818;stroke-width:0.5;" width="223.834" x="7" y="145"/><text fill="#000000" font-family="sans-serif" font-size="14" lengthAdjust="spacing" textLength="203.834" x="17" y="169.5332">:OPCIONES_PERFIL_ABIERTO</text></g><!--entity EstadoEntradaSolicitud--><g class="entity" data-qualified-name="EstadoEntradaSolicitud" data-source-line="4" id="ent0002"><rect fill="#CDEBA5" height="37.6094" rx="2.5" ry="2.5" style="stroke:#181818;stroke-width:0.5;" width="321.8545" x="695" y="7"/><text fill="#000000" font-family="sans-serif" font-size="14" lengthAdjust="spacing" textLength="301.8545" x="705" y="31.5332">:SOLICITUD_ELIMINACION_PERFIL_ABIERTA</text></g><!--entity EstadoSalida--><g class="entity" data-qualified-name="EstadoSalida" data-source-line="14" id="ent0010"><rect fill="#CDEBA5" height="37.6094" rx="2.5" ry="2.5" style="stroke:#181818;stroke-width:0.5;" width="349.8682" x="1023" y="261"/><text fill="#000000" font-family="sans-serif" font-size="14" lengthAdjust="spacing" textLength="329.8682" x="1033" y="285.5332">:SOLICITUDES_ELIMINACION_PERFIL_ABIERTAS</text></g><!--entity AbrirSolicitudEliminacionPerfil--><g class="entity" data-qualified-name="AbrirSolicitudEliminacionPerfil" data-source-line="15" id="ent0011"><rect fill="#CDEBA5" height="37.6094" rx="2.5" ry="2.5" style="stroke:#181818;stroke-width:0.5;" width="296.2334" x="1408" y="261"/><text fill="#000000" font-family="sans-serif" font-size="14" lengthAdjust="spacing" textLength="276.2334" x="1418" y="285.5332">:Collaboration AbrirSolicitudEliminacionPerfil</text></g><!--entity AbrirOpcionesPerfil--><g class="entity" data-qualified-name="AbrirOpcionesPerfil" data-source-line="16" id="ent0012"><rect fill="#CDEBA5" height="37.6094" rx="2.5" ry="2.5" style="stroke:#181818;stroke-width:0.5;" width="230.875" x="1739.5" y="261"/><text fill="#000000" font-family="sans-serif" font-size="14" lengthAdjust="spacing" textLength="210.875" x="1749.5" y="285.5332">:Collaboration AbrirOpcionesPerfil</text></g><!--link EstadoEntradaOpciones to ListarSolicitudesEliminacionPerfilView--><g class="link" data-entity-1="ent0001" data-entity-2="ent0004" data-link-type="dependency" data-source-line="18" id="lnk13"><path d="M231.34,164 C365.02,164 582.72,164 722.96,164" fill="none" id="EstadoEntradaOpciones-to-ListarSolicitudesEliminacionPerfilView" style="stroke:#181818;stroke-width:1;"/><polygon fill="#181818" points="727.96,164,718.96,160,722.96,164,718.96,168,727.96,164" style="stroke:#181818;stroke-width:1;stroke-linejoin:miter;stroke-miterlimit:10;"/><text fill="#000000" font-family="sans-serif" font-size="13" lengthAdjust="spacing" textLength="193.6226" x="383" y="157.4951">abrirSolicitudesEliminacionPerfil()</text></g><!--link EstadoEntradaSolicitud to ListarSolicitudesEliminacionPerfilView--><g class="link" data-entity-1="ent0002" data-entity-2="ent0004" data-link-type="dependency" data-source-line="19" id="lnk14"><path d="M856,45.06 C856,71.07 856,113.81 856,139.87" fill="none" id="EstadoEntradaSolicitud-to-ListarSolicitudesEliminacionPerfilView" style="stroke:#181818;stroke-width:1;"/><polygon fill="#181818" points="856,144.87,860,135.87,856,139.87,852,135.87,856,144.87" style="stroke:#181818;stroke-width:1;stroke-linejoin:miter;stroke-miterlimit:10;"/><text fill="#000000" font-family="sans-serif" font-size="13" lengthAdjust="spacing" textLength="193.6226" x="857" y="89.4951">abrirSolicitudesEliminacionPerfil()</text></g><!--link ListarSolicitudesEliminacionPerfilView to SolicitudEliminacionPerfilController--><g class="link" data-entity-1="ent0004" data-entity-2="ent0005" data-link-type="dependency" data-source-line="21" id="lnk15"><path d="M775.33,183.01 C714.32,196.63 641,213 641,213 C641,213 641,231 641,231 C641,231 650.4767,243.3006 660.9567,256.8906" fill="none" id="ListarSolicitudesEliminacionPerfilView-to-SolicitudEliminacionPerfilController" style="stroke:#181818;stroke-width:1;"/><polygon fill="#181818" points="664.01,260.85,661.6815,251.2803,660.9567,256.8906,655.3464,256.1657,664.01,260.85" style="stroke:#181818;stroke-width:1;stroke-linejoin:miter;stroke-miterlimit:10;"/><text fill="#000000" font-family="sans-serif" font-size="13" lengthAdjust="spacing" textLength="164.0234" x="642" y="227.4951">listarSolicitudesPendientes()</text></g><!--link ListarSolicitudesEliminacionPerfilView to SolicitudEliminacionPerfilController--><g class="link" data-entity-1="ent0004" data-entity-2="ent0005" data-link-type="dependency" data-source-line="24" id="lnk18"><path d="M843.7,183.03 C830.38,202.58 811,231 811,231 C811,231 770.3431,245.6727 732.6031,259.2927" fill="none" id="ListarSolicitudesEliminacionPerfilView-to-SolicitudEliminacionPerfilController-1" style="stroke:#181818;stroke-width:1;"/><polygon fill="#181818" points="727.9,260.99,737.7234,261.6973,732.6031,259.2927,735.0077,254.1724,727.9,260.99" style="stroke:#181818;stroke-width:1;stroke-linejoin:miter;stroke-miterlimit:10;"/><text fill="#000000" font-family="sans-serif" font-size="13" lengthAdjust="spacing" textLength="139.4199" x="824" y="227.4951">filtrarSolicitudes(criterio)</text></g><!--link SolicitudEliminacionPerfilController to SesionService--><g class="link" data-entity-1="ent0005" data-entity-2="ent0007" data-link-type="dependency" data-source-line="22" id="lnk16"><path d="M688.96,299.15 C697.18,312.74 707,329 707,329 C707,329 721.2584,353.1142 732.7984,372.6642" fill="none" id="SolicitudEliminacionPerfilController-to-SesionService" style="stroke:#181818;stroke-width:1;"/><polygon fill="#181818" points="735.34,376.97,734.2097,367.1862,732.7984,372.6642,727.3204,371.2528,735.34,376.97" style="stroke:#181818;stroke-width:1;stroke-linejoin:miter;stroke-miterlimit:10;"/><text fill="#000000" font-family="sans-serif" font-size="13" lengthAdjust="spacing" textLength="209.5806" x="718" y="343.4951">obtenerSesionActual(authentication)</text></g><!--link SolicitudEliminacionPerfilController to PerfilService--><g class="link" data-entity-1="ent0005" data-entity-2="ent0006" data-link-type="dependency" data-source-line="23" id="lnk17"><path d="M608.96,299.01 C556.75,312.63 494,329 494,329 C494,329 494,347 494,347 C494,347 495.6491,358.3122 497.6291,371.9022" fill="none" id="SolicitudEliminacionPerfilController-to-PerfilService" style="stroke:#181818;stroke-width:1;"/><polygon fill="#181818" points="498.35,376.85,501.0107,367.3673,497.6291,371.9022,493.0942,368.5207,498.35,376.85" style="stroke:#181818;stroke-width:1;stroke-linejoin:miter;stroke-miterlimit:10;"/><text fill="#000000" font-family="sans-serif" font-size="13" lengthAdjust="spacing" textLength="203.0298" x="495" y="343.4951">listarSolicitudesPendientes(criterio)</text></g><!--link PerfilService to SolicitudEliminacionPerfilRepository--><g class="link" data-entity-1="ent0006" data-entity-2="ent0008" data-link-type="dependency" data-source-line="25" id="lnk19"><path d="M451.4,408.56 C390.44,422.76 295,445 295,445 C295,445 295,463 295,463 C295,463 365.8229,478.3133 428.8129,491.9333" fill="none" id="PerfilService-to-SolicitudEliminacionPerfilRepository" style="stroke:#181818;stroke-width:1;"/><polygon fill="#181818" points="433.7,492.99,425.7487,487.1783,428.8129,491.9333,424.0579,494.9976,433.7,492.99" style="stroke:#181818;stroke-width:1;stroke-linejoin:miter;stroke-miterlimit:10;"/><text fill="#000000" font-family="sans-serif" font-size="13" lengthAdjust="spacing" textLength="309.2769" x="296" y="459.4951">obtenerPendientes() : List&lt;SolicitudEliminacionPerfil&gt;</text></g><!--link PerfilService to SolicitudEliminacionPerfilRepository--><g class="link" data-entity-1="ent0006" data-entity-2="ent0008" data-link-type="dependency" data-source-line="26" id="lnk20"><path d="M541.9,415.01 C572.83,428.63 610,445 610,445 C610,445 610,463 610,463 C610,463 582.7231,477.0769 556.3331,490.6969" fill="none" id="PerfilService-to-SolicitudEliminacionPerfilRepository-1" style="stroke:#181818;stroke-width:1;"/><polygon fill="#181818" points="551.89,492.99,561.7222,492.4169,556.3331,490.6969,558.0532,485.3079,551.89,492.99" style="stroke:#181818;stroke-width:1;stroke-linejoin:miter;stroke-miterlimit:10;"/><text fill="#000000" font-family="sans-serif" font-size="13" lengthAdjust="spacing" textLength="340.2852" x="611" y="459.4951">buscarPorCriterio(criterio) : List&lt;SolicitudEliminacionPerfil&gt;</text></g><!--link SolicitudEliminacionPerfilRepository to SolicitudEliminacionPerfil--><g class="link" data-entity-1="ent0008" data-entity-2="ent0009" data-link-type="association" data-source-line="27" id="lnk21"><path d="M517,531.24 C517,548.59 517,574.52 517,591.84" fill="none" id="SolicitudEliminacionPerfilRepository-SolicitudEliminacionPerfil" style="stroke:#181818;stroke-width:1;"/></g><!--link ListarSolicitudesEliminacionPerfilView to EstadoSalida--><g class="link" data-entity-1="ent0004" data-entity-2="ent0010" data-link-type="dependency" data-source-line="28" id="lnk22"><path d="M910.19,183.06 C974.14,204.38 1075.0766,238.0289 1139.0366,259.3489" fill="none" id="ListarSolicitudesEliminacionPerfilView-to-EstadoSalida" style="stroke:#181818;stroke-width:1;stroke-dasharray:7,7;"/><polygon fill="#181818" points="1143.78,260.93,1136.5068,254.2892,1139.0366,259.3489,1133.9769,261.8787,1143.78,260.93" style="stroke:#181818;stroke-width:1;stroke-linejoin:miter;stroke-miterlimit:10;"/><text fill="#000000" font-family="sans-serif" font-size="13" lengthAdjust="spacing" textLength="213.1353" x="1048" y="227.4951">solicitudesEliminacionPerfilAbiertas()</text></g><!--link ListarSolicitudesEliminacionPerfilView to AbrirSolicitudEliminacionPerfil--><g class="link" data-entity-1="ent0004" data-entity-2="ent0011" data-link-type="dependency" data-source-line="29" id="lnk23"><path d="M984.16,179.86 C1105.74,193.96 1270,213 1270,213 C1270,213 1388.2982,240.2952 1472.9782,259.8452" fill="none" id="ListarSolicitudesEliminacionPerfilView-to-AbrirSolicitudEliminacionPerfil" style="stroke:#181818;stroke-width:1;stroke-dasharray:7,7;"/><polygon fill="#181818" points="1477.85,260.97,1469.9805,255.048,1472.9782,259.8452,1468.1809,262.8429,1477.85,260.97" style="stroke:#181818;stroke-width:1;stroke-linejoin:miter;stroke-miterlimit:10;"/><text fill="#000000" font-family="sans-serif" font-size="13" lengthAdjust="spacing" textLength="190.0107" x="1347" y="227.4951">abrirSolicitudEliminacionPerfil(id)</text></g><!--link ListarSolicitudesEliminacionPerfilView to AbrirOpcionesPerfil--><g class="link" data-entity-1="ent0004" data-entity-2="ent0012" data-link-type="dependency" data-source-line="30" id="lnk24"><path d="M984.17,173.92 C1183.71,187.8 1546,213 1546,213 C1546,213 1674.1904,240.3751 1765.6704,259.9251" fill="none" id="ListarSolicitudesEliminacionPerfilView-to-AbrirOpcionesPerfil" style="stroke:#181818;stroke-width:1;stroke-dasharray:7,7;"/><polygon fill="#181818" points="1770.56,260.97,1762.5947,255.1774,1765.6704,259.9251,1760.9228,263.0008,1770.56,260.97" style="stroke:#181818;stroke-width:1;stroke-linejoin:miter;stroke-miterlimit:10;"/><text fill="#000000" font-family="sans-serif" font-size="13" lengthAdjust="spacing" textLength="119.2026" x="1629" y="227.4951">abrirOpcionesPerfil()</text></g><?plantuml-src hPJ1Rjim38RlUWeYlRI7z52inMeC0LnN0GnajH5tkmQopNL4LSkGb0t1i7UVdBIfdSIECjGt2-BtK-HFccUgQg752qYgqAvgX5h9LVF3cCR2Ykf98fn5z_mkl8PHaAHHd3pmR97o-JIUBSAxcCyVan480znOKIfUMIrAaTG5gGhDGKgMpE8eVlnsl-2p-6ly43RGBZBSHsPAKa5sMR9Q5C_Y2K7aclJs60sNz4ALQ9HJr3z8DepHqLld5oFumy1zhMHlhcxvz1Pcv58OZFvE-7itEB_EovlFi0tR2ugKUvEI4dLFwEPQXleN5TY7H-E0FNUcLs7qYG-aCCTQ6R9AhquEPN_PS5-TGVexcxLQcmb9fJW8YrnvHAwqi4uNmauJzp9Q8u_SyLLvi-ukkNlEs46_mrYF9vwk2S33ckpm3C2u_60TvWVR2FiuEt1BPOUOObKILXQD4_HXmBWHQ_iy09LRh51lJiF2BeKy5qlxqt6fMFVn17PdpeOpBZHPrAGkl2lbNIZtwzhR9hRKEYaUWRuFzRPExPf3iBRCbtx0vB_bygKfX4wLZbupVt-2ZwoFYCjcQ2jvjkNoSjBPFW6OWP0m9zHMD8OzWNza5UrEvFuyKdcwNdT1lMfq3zqh_W40?></g></svg>