<svg xmlns="http://www.w3.org/2000/svg" xmlns:xlink="http://www.w3.org/1999/xlink" contentStyleType="text/css" height="717px" preserveAspectRatio="none" style="width:1927px;height:717px;background:#FFFFFF;" version="1.1" viewBox="0 0 1927 717" width="1927px" zoomAndPan="magnify"><title>Diagrama de secuencia - responderPublicacion</title><defs/><g><text fill="#000000" font-family="sans-serif" font-size="14" font-weight="bold" lengthAdjust="spacing" textLength="315.1094" x="807.7332" y="29.5332">Diagrama de secuencia - responderPublicacion</text><line style="stroke:#181818;stroke-width:0.5;stroke-dasharray:5.0,5.0;" x1="46" x2="46" y1="121.2188" y2="635.1953"/><line style="stroke:#181818;stroke-width:0.5;stroke-dasharray:5.0,5.0;" x1="276.0947" x2="276.0947" y1="121.2188" y2="635.1953"/><line style="stroke:#181818;stroke-width:0.5;stroke-dasharray:5.0,5.0;" x1="749.3853" x2="749.3853" y1="121.2188" y2="635.1953"/><line style="stroke:#181818;stroke-width:0.5;stroke-dasharray:5.0,5.0;" x1="982.3657" x2="982.3657" y1="121.2188" y2="635.1953"/><line style="stroke:#181818;stroke-width:0.5;stroke-dasharray:5.0,5.0;" x1="1110.855" x2="1110.855" y1="121.2188" y2="635.1953"/><line style="stroke:#181818;stroke-width:0.5;stroke-dasharray:5.0,5.0;" x1="1252.1372" x2="1252.1372" y1="121.2188" y2="635.1953"/><line style="stroke:#181818;stroke-width:0.5;stroke-dasharray:5.0,5.0;" x1="1403.8677" x2="1403.8677" y1="121.2188" y2="635.1953"/><line style="stroke:#181818;stroke-width:0.5;stroke-dasharray:5.0,5.0;" x1="1599.3843" x2="1599.3843" y1="121.2188" y2="635.1953"/><line style="stroke:#181818;stroke-width:0.5;stroke-dasharray:5.0,5.0;" x1="1876.7417" x2="1876.7417" y1="121.2188" y2="635.1953"/><text fill="#000000" font-family="sans-serif" font-size="14" lengthAdjust="spacing" textLength="76.2686" x="5" y="118.1426">Investigador</text><ellipse cx="46.1343" cy="52.1094" fill="#E2E2F0" rx="8" ry="8" style="stroke:#181818;stroke-width:0.5;"/><path d="M46.1343,60.1094 L46.1343,87.1094 M33.1343,68.1094 L59.1343,68.1094 M46.1343,87.1094 L33.1343,102.1094 M46.1343,87.1094 L59.1343,102.1094 " fill="none" style="stroke:#181818;stroke-width:0.5;"/><text fill="#000000" font-family="sans-serif" font-size="14" lengthAdjust="spacing" textLength="76.2686" x="5" y="648.7285">Investigador</text><ellipse cx="46.1343" cy="660.3047" fill="#E2E2F0" rx="8" ry="8" style="stroke:#181818;stroke-width:0.5;"/><path d="M46.1343,668.3047 L46.1343,695.3047 M33.1343,676.3047 L59.1343,676.3047 M46.1343,695.3047 L33.1343,710.3047 M46.1343,695.3047 L59.1343,710.3047 " fill="none" style="stroke:#181818;stroke-width:0.5;"/><rect fill="#E2E2F0" height="49.2188" rx="2.5" ry="2.5" style="stroke:#181818;stroke-width:0.5;" width="181.3369" x="186.0947" y="71"/><text fill="#000000" font-family="sans-serif" font-size="14" lengthAdjust="spacing" textLength="167.3369" x="193.0947" y="92.5332">responderPublicacionPage</text><text fill="#000000" font-family="sans-serif" font-size="14" lengthAdjust="spacing" textLength="45.8965" x="253.8149" y="110.1426">(React)</text><rect fill="#E2E2F0" height="49.2188" rx="2.5" ry="2.5" style="stroke:#181818;stroke-width:0.5;" width="181.3369" x="186.0947" y="634.1953"/><text fill="#000000" font-family="sans-serif" font-size="14" lengthAdjust="spacing" textLength="167.3369" x="193.0947" y="655.7285">responderPublicacionPage</text><text fill="#000000" font-family="sans-serif" font-size="14" lengthAdjust="spacing" textLength="45.8965" x="253.8149" y="673.3379">(React)</text><rect fill="#E2E2F0" height="49.2188" rx="2.5" ry="2.5" style="stroke:#181818;stroke-width:0.5;" width="146.2891" x="676.3853" y="71"/><text fill="#000000" font-family="sans-serif" font-size="14" lengthAdjust="spacing" textLength="132.2891" x="683.3853" y="92.5332">PublicacionController</text><text fill="#000000" font-family="sans-serif" font-size="14" lengthAdjust="spacing" textLength="82.4824" x="708.2886" y="110.1426">(Spring Boot)</text><rect fill="#E2E2F0" height="49.2188" rx="2.5" ry="2.5" style="stroke:#181818;stroke-width:0.5;" width="146.2891" x="676.3853" y="634.1953"/><text fill="#000000" font-family="sans-serif" font-size="14" lengthAdjust="spacing" textLength="132.2891" x="683.3853" y="655.7285">PublicacionController</text><text fill="#000000" font-family="sans-serif" font-size="14" lengthAdjust="spacing" textLength="82.4824" x="708.2886" y="673.3379">(Spring Boot)</text><rect fill="#E2E2F0" height="31.6094" rx="2.5" ry="2.5" style="stroke:#181818;stroke-width:0.5;" width="103.4893" x="931.3657" y="88.6094"/><text fill="#000000" font-family="sans-serif" font-size="14" lengthAdjust="spacing" textLength="89.4893" x="938.3657" y="110.1426">SesionService</text><rect fill="#E2E2F0" height="31.6094" rx="2.5" ry="2.5" style="stroke:#181818;stroke-width:0.5;" width="103.4893" x="931.3657" y="634.1953"/><text fill="#000000" font-family="sans-serif" font-size="14" lengthAdjust="spacing" textLength="89.4893" x="938.3657" y="655.7285">SesionService</text><rect fill="#E2E2F0" height="31.6094" rx="2.5" ry="2.5" style="stroke:#181818;stroke-width:0.5;" width="132.2822" x="1044.855" y="88.6094"/><text fill="#000000" font-family="sans-serif" font-size="14" lengthAdjust="spacing" textLength="118.2822" x="1051.855" y="110.1426">PublicacionService</text><rect fill="#E2E2F0" height="31.6094" rx="2.5" ry="2.5" style="stroke:#181818;stroke-width:0.5;" width="132.2822" x="1044.855" y="634.1953"/><text fill="#000000" font-family="sans-serif" font-size="14" lengthAdjust="spacing" textLength="118.2822" x="1051.855" y="655.7285">PublicacionService</text><rect fill="#E2E2F0" height="31.6094" rx="2.5" ry="2.5" style="stroke:#181818;stroke-width:0.5;" width="130.7305" x="1187.1372" y="88.6094"/><text fill="#000000" font-family="sans-serif" font-size="14" lengthAdjust="spacing" textLength="116.7305" x="1194.1372" y="110.1426">PoliticaPublicacion</text><rect fill="#E2E2F0" height="31.6094" rx="2.5" ry="2.5" style="stroke:#181818;stroke-width:0.5;" width="130.7305" x="1187.1372" y="634.1953"/><text fill="#000000" font-family="sans-serif" font-size="14" lengthAdjust="spacing" textLength="116.7305" x="1194.1372" y="655.7285">PoliticaPublicacion</text><rect fill="#E2E2F0" height="31.6094" rx="2.5" ry="2.5" style="stroke:#181818;stroke-width:0.5;" width="152.5166" x="1327.8677" y="88.6094"/><text fill="#000000" font-family="sans-serif" font-size="14" lengthAdjust="spacing" textLength="138.5166" x="1334.8677" y="110.1426">PublicacionRepository</text><rect fill="#E2E2F0" height="31.6094" rx="2.5" ry="2.5" style="stroke:#181818;stroke-width:0.5;" width="152.5166" x="1327.8677" y="634.1953"/><text fill="#000000" font-family="sans-serif" font-size="14" lengthAdjust="spacing" textLength="138.5166" x="1334.8677" y="655.7285">PublicacionRepository</text><rect fill="#E2E2F0" height="31.6094" rx="2.5" ry="2.5" style="stroke:#181818;stroke-width:0.5;" width="219.4473" x="1490.3843" y="88.6094"/><text fill="#000000" font-family="sans-serif" font-size="14" lengthAdjust="spacing" textLength="205.4473" x="1497.3843" y="110.1426">RespuestaPublicacionRepository</text><rect fill="#E2E2F0" height="31.6094" rx="2.5" ry="2.5" style="stroke:#181818;stroke-width:0.5;" width="219.4473" x="1490.3843" y="634.1953"/><text fill="#000000" font-family="sans-serif" font-size="14" lengthAdjust="spacing" textLength="205.4473" x="1497.3843" y="655.7285">RespuestaPublicacionRepository</text><text fill="#000000" font-family="sans-serif" font-size="14" lengthAdjust="spacing" textLength="91.834" x="1828.7417" y="118.1426">Base de Datos</text><path d="M1859.6587,67.6094 C1859.6587,57.6094 1877.6587,57.6094 1877.6587,57.6094 C1877.6587,57.6094 1895.6587,57.6094 1895.6587,67.6094 L1895.6587,93.6094 C1895.6587,103.6094 1877.6587,103.6094 1877.6587,103.6094 C1877.6587,103.6094 1859.6587,103.6094 1859.6587,93.6094 L1859.6587,67.6094 " fill="#E2E2F0" style="stroke:#181818;stroke-width:1.5;"/><path d="M1859.6587,67.6094 C1859.6587,77.6094 1877.6587,77.6094 1877.6587,77.6094 C1877.6587,77.6094 1895.6587,77.6094 1895.6587,67.6094 " fill="none" style="stroke:#181818;stroke-width:1.5;"/><text fill="#000000" font-family="sans-serif" font-size="14" lengthAdjust="spacing" textLength="91.834" x="1828.7417" y="648.7285">Base de Datos</text><path d="M1859.6587,661.8047 C1859.6587,651.8047 1877.6587,651.8047 1877.6587,651.8047 C1877.6587,651.8047 1895.6587,651.8047 1895.6587,661.8047 L1895.6587,687.8047 C1895.6587,697.8047 1877.6587,697.8047 1877.6587,697.8047 C1877.6587,697.8047 1859.6587,697.8047 1859.6587,687.8047 L1859.6587,661.8047 " fill="#E2E2F0" style="stroke:#181818;stroke-width:1.5;"/><path d="M1859.6587,661.8047 C1859.6587,671.8047 1877.6587,671.8047 1877.6587,671.8047 C1877.6587,671.8047 1895.6587,671.8047 1895.6587,661.8047 " fill="none" style="stroke:#181818;stroke-width:1.5;"/><polygon fill="#181818" points="264.7632,149.5703,274.7632,153.5703,264.7632,157.5703,268.7632,153.5703" style="stroke:#181818;stroke-width:1;"/><line style="stroke:#181818;stroke-width:1;" x1="46.1343" x2="270.7632" y1="153.5703" y2="153.5703"/><text fill="#000000" font-family="sans-serif" font-size="13" lengthAdjust="spacing" textLength="179.2007" x="53.1343" y="148.7139">Solicita responderPublicacion()</text><polygon fill="#181818" points="737.5298,179.9219,747.5298,183.9219,737.5298,187.9219,741.5298,183.9219" style="stroke:#181818;stroke-width:1;"/><line style="stroke:#181818;stroke-width:1;" x1="276.7632" x2="743.5298" y1="183.9219" y2="183.9219"/><text fill="#000000" font-family="sans-serif" font-size="13" lengthAdjust="spacing" textLength="448.7666" x="283.7632" y="179.0654">POST /api/publicaciones/{id}/respuestas + RespuestaCreateRequest + cookie</text><polygon fill="#181818" points="971.1104,210.2734,981.1104,214.2734,971.1104,218.2734,975.1104,214.2734" style="stroke:#181818;stroke-width:1;"/><line style="stroke:#181818;stroke-width:1;" x1="749.5298" x2="977.1104" y1="214.2734" y2="214.2734"/><text fill="#000000" font-family="sans-serif" font-size="13" lengthAdjust="spacing" textLength="209.5806" x="756.5298" y="209.417">obtenerSesionActual(authentication)</text><polygon fill="#181818" points="760.5298,240.625,750.5298,244.625,760.5298,248.625,756.5298,244.625" style="stroke:#181818;stroke-width:1;"/><line style="stroke:#181818;stroke-width:1;stroke-dasharray:2.0,2.0;" x1="754.5298" x2="982.1104" y1="244.625" y2="244.625"/><text fill="#000000" font-family="sans-serif" font-size="13" lengthAdjust="spacing" textLength="101.1753" x="766.5298" y="239.7686">Actor autenticado</text><polygon fill="#181818" points="1098.9961,270.9766,1108.9961,274.9766,1098.9961,278.9766,1102.9961,274.9766" style="stroke:#181818;stroke-width:1;"/><line style="stroke:#181818;stroke-width:1;" x1="749.5298" x2="1104.9961" y1="274.9766" y2="274.9766"/><text fill="#000000" font-family="sans-serif" font-size="13" lengthAdjust="spacing" textLength="177.0425" x="756.5298" y="270.1201">responder(id, contenido, actor)</text><polygon fill="#181818" points="1392.126,301.3281,1402.126,305.3281,1392.126,309.3281,1396.126,305.3281" style="stroke:#181818;stroke-width:1;"/><line style="stroke:#181818;stroke-width:1;" x1="1110.9961" x2="1398.126" y1="305.3281" y2="305.3281"/><text fill="#000000" font-family="sans-serif" font-size="13" lengthAdjust="spacing" textLength="138.0171" x="1117.9961" y="300.4717">findByIdAndRetirada(id)</text><polygon fill="#181818" points="1865.6587,331.6797,1875.6587,335.6797,1865.6587,339.6797,1869.6587,335.6797" style="stroke:#181818;stroke-width:1;"/><line style="stroke:#181818;stroke-width:1;" x1="1404.126" x2="1871.6587" y1="335.6797" y2="335.6797"/><text fill="#000000" font-family="sans-serif" font-size="13" lengthAdjust="spacing" textLength="392.3105" x="1411.126" y="330.8232">SELECT * FROM publicaciones WHERE id = ? AND retirada = false</text><polygon fill="#181818" points="1415.126,362.0313,1405.126,366.0313,1415.126,370.0313,1411.126,366.0313" style="stroke:#181818;stroke-width:1;"/><line style="stroke:#181818;stroke-width:1;stroke-dasharray:2.0,2.0;" x1="1409.126" x2="1876.6587" y1="366.0313" y2="366.0313"/><text fill="#000000" font-family="sans-serif" font-size="13" lengthAdjust="spacing" textLength="107.6689" x="1421.126" y="361.1748">Publicacion / vacio</text><path d="M1257,379.0313 L1257,405.0313 L1531,405.0313 L1531,389.0313 L1521,379.0313 L1257,379.0313 " fill="#FEFFDD" style="stroke:#181818;stroke-width:0.5;"/><path d="M1521,379.0313 L1521,389.0313 L1531,389.0313 L1521,379.0313 " fill="#FEFFDD" style="stroke:#181818;stroke-width:0.5;"/><text fill="#000000" font-family="sans-serif" font-size="13" lengthAdjust="spacing" textLength="253.6396" x="1263" y="397.5264">Responsabilidad interna: permitirResponder</text><polygon fill="#181818" points="1588.1079,428.7344,1598.1079,432.7344,1588.1079,436.7344,1592.1079,432.7344" style="stroke:#181818;stroke-width:1;"/><line style="stroke:#181818;stroke-width:1;" x1="1110.9961" x2="1594.1079" y1="432.7344" y2="432.7344"/><text fill="#000000" font-family="sans-serif" font-size="13" lengthAdjust="spacing" textLength="93.209" x="1117.9961" y="427.8779">save(respuesta)</text><polygon fill="#181818" points="1865.6587,491.7891,1875.6587,495.7891,1865.6587,499.7891,1869.6587,495.7891" style="stroke:#181818;stroke-width:1;"/><line style="stroke:#181818;stroke-width:1;" x1="1600.1079" x2="1871.6587" y1="495.7891" y2="495.7891"/><text fill="#000000" font-family="sans-serif" font-size="13" lengthAdjust="spacing" textLength="221.8125" x="1607.1079" y="458.2295">INSERT INTO respuestas_publicacion</text><text fill="#000000" font-family="sans-serif" font-size="13" lengthAdjust="spacing" textLength="247.8823" x="1607.1079" y="474.5811">(publicacion_id, autor_id, contenido, fecha)</text><text fill="#000000" font-family="sans-serif" font-size="13" lengthAdjust="spacing" textLength="253.5508" x="1607.1079" y="490.9326">VALUES (?, ?, ?, CURRENT_TIMESTAMP)</text><polygon fill="#181818" points="1611.1079,522.1406,1601.1079,526.1406,1611.1079,530.1406,1607.1079,526.1406" style="stroke:#181818;stroke-width:1;"/><line style="stroke:#181818;stroke-width:1;stroke-dasharray:2.0,2.0;" x1="1605.1079" x2="1876.6587" y1="526.1406" y2="526.1406"/><text fill="#000000" font-family="sans-serif" font-size="13" lengthAdjust="spacing" textLength="105.5107" x="1617.1079" y="521.2842">Respuesta creada</text><polygon fill="#181818" points="760.5298,552.4922,750.5298,556.4922,760.5298,560.4922,756.5298,556.4922" style="stroke:#181818;stroke-width:1;"/><line style="stroke:#181818;stroke-width:1;stroke-dasharray:2.0,2.0;" x1="754.5298" x2="1109.9961" y1="556.4922" y2="556.4922"/><text fill="#000000" font-family="sans-serif" font-size="13" lengthAdjust="spacing" textLength="153.2134" x="766.5298" y="551.6357">Resultado del caso de uso</text><polygon fill="#181818" points="287.7632,582.8438,277.7632,586.8438,287.7632,590.8438,283.7632,586.8438" style="stroke:#181818;stroke-width:1;"/><line style="stroke:#181818;stroke-width:1;stroke-dasharray:2.0,2.0;" x1="281.7632" x2="748.5298" y1="586.8438" y2="586.8438"/><text fill="#000000" font-family="sans-serif" font-size="13" lengthAdjust="spacing" textLength="204.5088" x="293.7632" y="581.9873">201 Created (RespuestaResponse)</text><polygon fill="#181818" points="57.1343,613.1953,47.1343,617.1953,57.1343,621.1953,53.1343,617.1953" style="stroke:#181818;stroke-width:1;"/><line style="stroke:#181818;stroke-width:1;stroke-dasharray:2.0,2.0;" x1="51.1343" x2="275.7632" y1="617.1953" y2="617.1953"/><text fill="#000000" font-family="sans-serif" font-size="13" lengthAdjust="spacing" textLength="206.6289" x="63.1343" y="612.3389">Presenta PUBLICACION_ABIERTA</text><!--SRC=[VLDTRvj047pdLwpoXDj4Rlk8r4PW4nKfiIt0xKiaQysjdLF97RqxMugg_lVkWR4XIYeXk8-PlPlPmKbN4ymbxWq-8mW2IzM1L2KHRi2GRRGIP5Q7RIqhhAHM0LPE6yZKaQoJUnJQ10qQ9olPe79mzHPfXNjwL65EJ9vS0LguCrevKcBC7L1cl6zqNPDXOj4OgVQGQ7sYnuqSCmkoJ2h876L5BQHRURV-6DgENs5rBNc60quBzklLoxjrSsgqbMpHIulsqp4sPtyEx1t-ZsIRbYZGuHOjmLNYtzoUEJfjMz0y2O9X5-3cszdL20f_I-dmpHw6aw17UXQR6S5gMPGmnKPEcmkGxFIF57-dfh-pXOzm5Z0pX8vo-krdl55f_KjImELyrSx_2FIMpo7JJUFA7R0EyU2UI7bt7IzEWcuJRlhBn6t66DM1XBuKRJiLNMI5KbppoLwC5FeQsdZwYYtGSxoJ4Uoa4ibB9c8bSdBIe42cJWA_wr7pX4rBxzDP2H_WBby-mCW7-FazpLEG0hx2BSIBET-Wgy8BEwmj1VEa5T0TDt0Rfd3qWq1fHs3a_ic1tfro5BLsQcLnAsifK81aAKPX10sPPqwWoNkfOr5TH2AmUAJmt20lgDlfHMMB8irB_fHBkFHnCr37FzXWjl66ilNQR5vPkwFg2IUFwaTylquB26-leNjcwpnF5-Mcp1xIeemVLfEB6Vqrpwc1YcCZy2AcRpeZ3hNZPdFEQwZG-W4SxAdvetX_-VGPklW92C-bJrRICDvC6_ubt1asWME5i5edzzaidcNBnIPECZOf_WS0]--></g></svg>