<?xml version="1.0" encoding="us-ascii" standalone="no"?><svg xmlns="http://www.w3.org/2000/svg" xmlns:xlink="http://www.w3.org/1999/xlink" contentStyleType="text/css" height="434px" preserveAspectRatio="none" style="width:2160px;height:434px;background:#FFFFFF;" version="1.1" viewBox="0 0 2160 434" width="2160px" zoomAndPan="magnify"><defs/><g><!--cluster crearEntregable--><g id="cluster_crearEntregable"><path d="M227.5,6 L352.5,6 A3.75,3.75 0 0 1 355,8.5 L362,29.6094 L931.5,29.6094 A2.5,2.5 0 0 1 934,32.1094 L934,424.5 A2.5,2.5 0 0 1 931.5,427 L227.5,427 A2.5,2.5 0 0 1 225,424.5 L225,8.5 A2.5,2.5 0 0 1 227.5,6 " fill="none" style="stroke:#000000;stroke-width:1.5;"/><line style="stroke:#000000;stroke-width:1.5;" x1="225" x2="362" y1="29.6094" y2="29.6094"/><text fill="#000000" font-family="sans-serif" font-size="14" font-weight="bold" lengthAdjust="spacing" textLength="124" x="229" y="22.5332">crearEntregable()</text></g><!--entity CrearEntregableView--><g id="elem_CrearEntregableView"><rect fill="#629EF9" height="37.6094" rx="2.5" ry="2.5" style="stroke:#181818;stroke-width:0.5;" width="154" x="764" y="42"/><text fill="#000000" font-family="sans-serif" font-size="14" lengthAdjust="spacing" textLength="134" x="774" y="66.5332">CrearEntregableView</text></g><!--entity EntregableController--><g id="elem_EntregableController"><rect fill="#B5BD68" height="37.6094" rx="2.5" ry="2.5" style="stroke:#181818;stroke-width:0.5;" width="151" x="443.5" y="158"/><text fill="#000000" font-family="sans-serif" font-size="14" lengthAdjust="spacing" textLength="131" x="453.5" y="182.5332">EntregableController</text></g><!--entity ProyectoRepository--><g id="elem_ProyectoRepository"><rect fill="#F2AC4E" height="37.6094" rx="2.5" ry="2.5" style="stroke:#181818;stroke-width:0.5;" width="144" x="241" y="274"/><text fill="#000000" font-family="sans-serif" font-size="14" lengthAdjust="spacing" textLength="124" x="251" y="298.5332">ProyectoRepository</text></g><!--entity EntregableRepository--><g id="elem_EntregableRepository"><rect fill="#F2AC4E" height="37.6094" rx="2.5" ry="2.5" style="stroke:#181818;stroke-width:0.5;" width="157" x="420.5" y="274"/><text fill="#000000" font-family="sans-serif" font-size="14" lengthAdjust="spacing" textLength="137" x="430.5" y="298.5332">EntregableRepository</text></g><!--entity ArchivoRepository--><g id="elem_ArchivoRepository"><rect fill="#F2AC4E" height="37.6094" rx="2.5" ry="2.5" style="stroke:#181818;stroke-width:0.5;" width="135" x="612.5" y="274"/><text fill="#000000" font-family="sans-serif" font-size="14" lengthAdjust="spacing" textLength="115" x="622.5" y="298.5332">ArchivoRepository</text></g><!--entity Proyecto--><g id="elem_Proyecto"><rect fill="#F2AC4E" height="37.6094" rx="2.5" ry="2.5" style="stroke:#181818;stroke-width:0.5;" width="76" x="275" y="373"/><text fill="#000000" font-family="sans-serif" font-size="14" lengthAdjust="spacing" textLength="56" x="285" y="397.5332">Proyecto</text></g><!--entity Entregable--><g id="elem_Entregable"><rect fill="#F2AC4E" height="37.6094" rx="2.5" ry="2.5" style="stroke:#181818;stroke-width:0.5;" width="89" x="454.5" y="373"/><text fill="#000000" font-family="sans-serif" font-size="14" lengthAdjust="spacing" textLength="69" x="464.5" y="397.5332">Entregable</text></g><!--entity ArchivoAdjunto--><g id="elem_ArchivoAdjunto"><rect fill="#F2AC4E" height="37.6094" rx="2.5" ry="2.5" style="stroke:#181818;stroke-width:0.5;" width="115" x="622.5" y="373"/><text fill="#000000" font-family="sans-serif" font-size="14" lengthAdjust="spacing" textLength="95" x="632.5" y="397.5332">ArchivoAdjunto</text></g><!--entity EstadoEntrada--><g id="elem_EstadoEntrada"><rect fill="#CDEBA5" height="37.6094" rx="2.5" ry="2.5" style="stroke:#181818;stroke-width:0.5;" width="202" x="7" y="42"/><text fill="#000000" font-family="sans-serif" font-size="14" lengthAdjust="spacing" textLength="182" x="17" y="66.5332">:ENTREGABLES_ABIERTOS</text></g><!--entity EstadoSalida--><g id="elem_EstadoSalida"><rect fill="#CDEBA5" height="37.6094" rx="2.5" ry="2.5" style="stroke:#181818;stroke-width:0.5;" width="184" x="950" y="158"/><text fill="#000000" font-family="sans-serif" font-size="14" lengthAdjust="spacing" textLength="164" x="960" y="182.5332">:ENTREGABLE_ABIERTO</text></g><!--entity AbrirEntregable--><g id="elem_AbrirEntregable"><rect fill="#CDEBA5" height="37.6094" rx="2.5" ry="2.5" style="stroke:#181818;stroke-width:0.5;" width="211" x="1169.5" y="158"/><text fill="#000000" font-family="sans-serif" font-size="14" lengthAdjust="spacing" textLength="191" x="1179.5" y="182.5332">:Collaboration AbrirEntregable</text></g><!--entity EditarEntregable--><g id="elem_EditarEntregable"><rect fill="#CDEBA5" height="37.6094" rx="2.5" ry="2.5" style="stroke:#181818;stroke-width:0.5;" width="218" x="1416" y="158"/><text fill="#000000" font-family="sans-serif" font-size="14" lengthAdjust="spacing" textLength="198" x="1426" y="182.5332">:Collaboration EditarEntregable</text></g><!--entity EliminarEntregable--><g id="elem_EliminarEntregable"><rect fill="#CDEBA5" height="37.6094" rx="2.5" ry="2.5" style="stroke:#181818;stroke-width:0.5;" width="231" x="1669.5" y="158"/><text fill="#000000" font-family="sans-serif" font-size="14" lengthAdjust="spacing" textLength="211" x="1679.5" y="182.5332">:Collaboration EliminarEntregable</text></g><!--entity AbrirEntregables--><g id="elem_AbrirEntregables"><rect fill="#CDEBA5" height="37.6094" rx="2.5" ry="2.5" style="stroke:#181818;stroke-width:0.5;" width="218" x="1936" y="158"/><text fill="#000000" font-family="sans-serif" font-size="14" lengthAdjust="spacing" textLength="198" x="1946" y="182.5332">:Collaboration AbrirEntregables</text></g><!--link EstadoEntrada to CrearEntregableView--><g id="link_EstadoEntrada_CrearEntregableView"><path d="M209.15,61 C357.41,61 624.53,61 757.79,61 " fill="none" id="EstadoEntrada-to-CrearEntregableView" style="stroke:#181818;stroke-width:1.0;"/><polygon fill="#181818" points="763.79,61,754.79,57,758.79,61,754.79,65,763.79,61" style="stroke:#181818;stroke-width:1.0;"/><text fill="#000000" font-family="sans-serif" font-size="13" lengthAdjust="spacing" textLength="99" x="437" y="54.4951">crearEntregable()</text></g><!--link CrearEntregableView to EntregableController--><g id="link_CrearEntregableView_EntregableController"><path d="M763.72,76.66 C689.31,90.78 588,110 588,110 C588,110 562.615,134.2717 542.185,153.8217 " fill="none" id="CrearEntregableView-to-EntregableController" style="stroke:#181818;stroke-width:1.0;"/><polygon fill="#181818" points="537.85,157.97,547.118,154.6376,541.4625,154.5131,541.587,148.8576,537.85,157.97" style="stroke:#181818;stroke-width:1.0;"/><text fill="#000000" font-family="sans-serif" font-size="13" lengthAdjust="spacing" textLength="331" x="589" y="124.4951">crearEntregable(idProyecto, datos, archivo?, coordinador)</text></g><!--link EntregableController to ProyectoRepository--><g id="link_EntregableController_ProyectoRepository"><path d="M443.25,194.99 C381.69,208.8 305,226 305,226 C305,226 305,244 305,244 C305,244 306.7215,254.342 308.9915,267.932 " fill="none" id="EntregableController-to-ProyectoRepository" style="stroke:#181818;stroke-width:1.0;"/><polygon fill="#181818" points="309.98,273.85,312.4426,264.314,309.1562,268.9183,304.5519,265.632,309.98,273.85" style="stroke:#181818;stroke-width:1.0;"/><text fill="#000000" font-family="sans-serif" font-size="13" lengthAdjust="spacing" textLength="178" x="306" y="240.4951">obtenerActivoPorId(idProyecto)</text></g><!--link EntregableController to EntregableRepository--><g id="link_EntregableController_EntregableRepository"><path d="M509.17,196.15 C501.81,209.74 493,226 493,226 C493,226 493,244 493,244 C493,244 494.2853,254.3064 495.9853,267.8964 " fill="none" id="EntregableController-to-EntregableRepository" style="stroke:#181818;stroke-width:1.0;"/><polygon fill="#181818" points="496.73,273.85,499.5819,264.4231,496.1094,268.8887,491.6438,265.4161,496.73,273.85" style="stroke:#181818;stroke-width:1.0;"/><text fill="#000000" font-family="sans-serif" font-size="13" lengthAdjust="spacing" textLength="93" x="494" y="240.4951">guardar(entidad)</text></g><!--link EntregableController to ArchivoRepository--><g id="link_EntregableController_ArchivoRepository"><path d="M546.6,196.15 C567.27,209.74 592,226 592,226 C592,226 625.1011,250.8185 651.1511,270.3685 " fill="none" id="EntregableController-to-ArchivoRepository" style="stroke:#181818;stroke-width:1.0;"/><polygon fill="#181818" points="655.95,273.97,651.1526,265.3685,651.9509,270.9688,646.3507,271.7671,655.95,273.97" style="stroke:#181818;stroke-width:1.0;"/><text fill="#000000" font-family="sans-serif" font-size="13" lengthAdjust="spacing" textLength="285" x="616" y="240.4951">guardarOpcional(entregable, archivo, coordinador)</text></g><!--link ProyectoRepository to Proyecto--><g id="link_ProyectoRepository_Proyecto"><path d="M313,312.24 C313,329.59 313,355.52 313,372.84 " fill="none" id="ProyectoRepository-Proyecto" style="stroke:#181818;stroke-width:1.0;"/></g><!--link EntregableRepository to Entregable--><g id="link_EntregableRepository_Entregable"><path d="M499,312.24 C499,329.59 499,355.52 499,372.84 " fill="none" id="EntregableRepository-Entregable" style="stroke:#181818;stroke-width:1.0;"/></g><!--link ArchivoRepository to ArchivoAdjunto--><g id="link_ArchivoRepository_ArchivoAdjunto"><path d="M680,312.24 C680,329.59 680,355.52 680,372.84 " fill="none" id="ArchivoRepository-ArchivoAdjunto" style="stroke:#181818;stroke-width:1.0;"/></g><!--link CrearEntregableView to EstadoSalida--><g id="link_CrearEntregableView_EstadoSalida"><path d="M872.85,80.06 C910.38,101.35 967.1409,133.5401 1004.7509,154.8701 " fill="none" id="CrearEntregableView-to-EstadoSalida" style="stroke:#181818;stroke-width:1.0;stroke-dasharray:7.0,7.0;"/><polygon fill="#181818" points="1009.97,157.83,1004.1147,149.9107,1005.6208,155.3634,1000.1681,156.8695,1009.97,157.83" style="stroke:#181818;stroke-width:1.0;"/><text fill="#000000" font-family="sans-serif" font-size="13" lengthAdjust="spacing" textLength="127" x="954" y="124.4951">continuarNavegacion()</text></g><!--link CrearEntregableView to AbrirEntregable--><g id="link_CrearEntregableView_AbrirEntregable"><path d="M918.08,76.86 C991.21,90.96 1090,110 1090,110 C1090,110 1164.0191,136.4033 1218.7991,155.9533 " fill="none" id="CrearEntregableView-to-AbrirEntregable" style="stroke:#181818;stroke-width:1.0;stroke-dasharray:7.0,7.0;"/><polygon fill="#181818" points="1224.45,157.97,1217.3181,151.1777,1219.7409,156.2894,1214.6291,158.7122,1224.45,157.97" style="stroke:#181818;stroke-width:1.0;"/><text fill="#000000" font-family="sans-serif" font-size="13" lengthAdjust="spacing" textLength="95" x="1140" y="124.4951">abrirEntregable()</text></g><!--link CrearEntregableView to EditarEntregable--><g id="link_CrearEntregableView_EditarEntregable"><path d="M918.23,71.2 C1035.24,85.14 1244,110 1244,110 C1244,110 1359.1791,137.0475 1442.3791,156.5975 " fill="none" id="CrearEntregableView-to-EditarEntregable" style="stroke:#181818;stroke-width:1.0;stroke-dasharray:7.0,7.0;"/><polygon fill="#181818" points="1448.22,157.97,1440.3736,152.0173,1443.3526,156.8263,1438.5436,159.8052,1448.22,157.97" style="stroke:#181818;stroke-width:1.0;"/><text fill="#000000" font-family="sans-serif" font-size="13" lengthAdjust="spacing" textLength="102" x="1320" y="124.4951">editarEntregable()</text></g><!--link CrearEntregableView to EliminarEntregable--><g id="link_CrearEntregableView_EliminarEntregable"><path d="M918.13,68.28 C1078.06,81.29 1431,110 1431,110 C1431,110 1577.5617,137.3198 1682.3717,156.8698 " fill="none" id="CrearEntregableView-to-EliminarEntregable" style="stroke:#181818;stroke-width:1.0;stroke-dasharray:7.0,7.0;"/><polygon fill="#181818" points="1688.27,157.97,1680.1561,152.3875,1683.3548,157.0532,1678.6891,160.2519,1688.27,157.97" style="stroke:#181818;stroke-width:1.0;"/><text fill="#000000" font-family="sans-serif" font-size="13" lengthAdjust="spacing" textLength="115" x="1526" y="124.4951">eliminarEntregable()</text></g><!--link CrearEntregableView to AbrirEntregables--><g id="link_CrearEntregableView_AbrirEntregables"><path d="M918.2,66.58 C1120.42,78.58 1650,110 1650,110 C1650,110 1814.1921,137.4307 1931.1421,156.9807 " fill="none" id="CrearEntregableView-to-AbrirEntregables" style="stroke:#181818;stroke-width:1.0;stroke-dasharray:7.0,7.0;"/><polygon fill="#181818" points="1937.06,157.97,1928.8427,152.5408,1932.1284,157.1456,1927.5237,160.4314,1937.06,157.97" style="stroke:#181818;stroke-width:1.0;"/><text fill="#000000" font-family="sans-serif" font-size="13" lengthAdjust="spacing" textLength="102" x="1756" y="124.4951">abrirEntregables()</text></g><!--SRC=[bLF1Rjim3BthAuZiqW993yLQh3vqS3nrA32qHLBiEj2Ma6br9ODIEmJ3_dtqkZIEf3gPJ_RpuwEU-EWVZEsGy15QOtLOTnewrwxx3o58Dm7jgjNmhleav-KPJ0fvSx-Gdylv5xdyLiwlvUB-TZa1z21zGEMa3OGAHOVD0wuqDAIHUb2li6OX9auYxEXu0hy4y3FeTtvw8QykeDgbVZNwPyoipsfr_W6sfChngsjRJJ7rwhIitaku8xTcq2rqvxm9ZjPl4BUQUwabDT_Dytx9JU-z7SVxbEh7asMLt_k6j9dHO4HBR0rFA5TNyRLXxGY3SHRAcipWylzAHDW1AbAPWB5C31wYqvf7OrEb1Fv_PpvdpGkn4scOqUmo5yW2aa0BaU71JB50BgUfWb6Re4n1ON1-2lWo-OzJQ9mZnPwLesEHquCPDqfJNe2hWxQQoYQmqfsZQpNeDAALMuG2Laz82kb8sy21KYFroNQy5jzs3Gy4srxaN-shrSXfQeYrjmkLEsDF60GZEKR_FzgetE1EJYvtTeVdnVwCPGit-Cp4tWDF_QtQA5a5u2umKXelIW4wGiQAaztWyWGx_E0-ERdduZy0]--></g></svg>