<svg xmlns="http://www.w3.org/2000/svg" xmlns:xlink="http://www.w3.org/1999/xlink" contentStyleType="text/css" data-diagram-type="DESCRIPTION" height="595px" preserveAspectRatio="none" style="width:1425px;height:595px;background:#FFFFFF;" version="1.1" viewBox="0 0 1425 595" width="1425px" zoomAndPan="magnify"><?plantuml 1.2026.6?><defs/><g><!--cluster editarPublicacion--><g class="cluster" data-qualified-name="editarPublicacion" data-source-line="4" id="ent0002"><path d="M235.5,6 L362.5205,6 A3.75,3.75 0 0 1 365.0205,8.5 L372.0205,29.6094 L1164.5,29.6094 A2.5,2.5 0 0 1 1167,32.1094 L1167,577.5 A2.5,2.5 0 0 1 1164.5,580 L235.5,580 A2.5,2.5 0 0 1 233,577.5 L233,8.5 A2.5,2.5 0 0 1 235.5,6" fill="none" style="stroke:#000000;stroke-width:1.5;"/><line style="stroke:#000000;stroke-width:1.5;" x1="233" x2="372.0205" y1="29.6094" y2="29.6094"/><text fill="#000000" font-family="sans-serif" font-size="14" font-weight="700" lengthAdjust="spacing" textLength="126.0205" x="237" y="22.5332">editarPublicacion()</text></g><!--entity View--><g class="entity" data-qualified-name="editarPublicacion.View" data-source-line="5" id="ent0003"><rect fill="#629EF9" height="37.6094" rx="2.5" ry="2.5" style="stroke:#181818;stroke-width:0.5;" width="156.9648" x="618.5" y="42"/><text fill="#000000" font-family="sans-serif" font-size="14" lengthAdjust="spacing" textLength="136.9648" x="628.5" y="66.5332">editarPublicacionView</text></g><!--entity PublicacionController--><g class="entity" data-qualified-name="editarPublicacion.PublicacionController" data-source-line="6" id="ent0004"><rect fill="#B5BD68" height="37.6094" rx="2.5" ry="2.5" style="stroke:#181818;stroke-width:0.5;" width="152.2891" x="621" y="158"/><text fill="#000000" font-family="sans-serif" font-size="14" lengthAdjust="spacing" textLength="132.2891" x="631" y="182.5332">PublicacionController</text></g><!--entity PublicacionService--><g class="entity" data-qualified-name="editarPublicacion.PublicacionService" data-source-line="7" id="ent0005"><rect fill="#B5BD68" height="37.6094" rx="2.5" ry="2.5" style="stroke:#181818;stroke-width:0.5;" width="138.2822" x="524" y="274"/><text fill="#000000" font-family="sans-serif" font-size="14" lengthAdjust="spacing" textLength="118.2822" x="534" y="298.5332">PublicacionService</text></g><!--entity SesionService--><g class="entity" data-qualified-name="editarPublicacion.SesionService" data-source-line="8" id="ent0006"><rect fill="#B5BD68" height="37.6094" rx="2.5" ry="2.5" style="stroke:#181818;stroke-width:0.5;" width="109.4893" x="746.5" y="274"/><text fill="#000000" font-family="sans-serif" font-size="14" lengthAdjust="spacing" textLength="89.4893" x="756.5" y="298.5332">SesionService</text></g><!--entity PoliticaPublicacion--><g class="entity" data-qualified-name="editarPublicacion.PoliticaPublicacion" data-source-line="9" id="ent0007"><rect fill="#B5BD68" height="37.6094" rx="2.5" ry="2.5" style="stroke:#181818;stroke-width:0.5;" width="136.7305" x="315.5" y="408.5"/><text fill="#000000" font-family="sans-serif" font-size="14" lengthAdjust="spacing" textLength="116.7305" x="325.5" y="433.0332">PoliticaPublicacion</text></g><!--entity PublicacionRepository--><g class="entity" data-qualified-name="editarPublicacion.PublicacionRepository" data-source-line="10" id="ent0008"><rect fill="#F2AC4E" height="37.6094" rx="2.5" ry="2.5" style="stroke:#181818;stroke-width:0.5;" width="158.5166" x="490.5" y="408.5"/><text fill="#000000" font-family="sans-serif" font-size="14" lengthAdjust="spacing" textLength="138.5166" x="500.5" y="433.0332">PublicacionRepository</text></g><!--entity Publicacion--><g class="entity" data-qualified-name="editarPublicacion.Publicacion" data-source-line="11" id="ent0009"><rect fill="#F2AC4E" height="37.6094" rx="2.5" ry="2.5" style="stroke:#181818;stroke-width:0.5;" width="91.5996" x="524" y="526"/><text fill="#000000" font-family="sans-serif" font-size="14" lengthAdjust="spacing" textLength="71.5996" x="534" y="550.5332">Publicacion</text></g><!--entity ArchivoPublicacionRepository--><g class="entity" data-qualified-name="editarPublicacion.ArchivoPublicacionRepository" data-source-line="12" id="ent0010"><rect fill="#F2AC4E" height="37.6094" rx="2.5" ry="2.5" style="stroke:#181818;stroke-width:0.5;" width="205.1992" x="747.5" y="408.5"/><text fill="#000000" font-family="sans-serif" font-size="14" lengthAdjust="spacing" textLength="185.1992" x="757.5" y="433.0332">ArchivoPublicacionRepository</text></g><!--entity ArchivoPublicacion--><g class="entity" data-qualified-name="editarPublicacion.ArchivoPublicacion" data-source-line="13" id="ent0011"><rect fill="#F2AC4E" height="37.6094" rx="2.5" ry="2.5" style="stroke:#181818;stroke-width:0.5;" width="138.2822" x="781" y="526"/><text fill="#000000" font-family="sans-serif" font-size="14" lengthAdjust="spacing" textLength="118.2822" x="791" y="550.5332">ArchivoPublicacion</text></g><!--entity EstadoEntrada--><g class="entity" data-qualified-name="EstadoEntrada" data-source-line="3" id="ent0001"><rect fill="#CDEBA5" height="37.6094" rx="2.5" ry="2.5" style="stroke:#181818;stroke-width:0.5;" width="209.8271" x="7" y="42"/><text fill="#000000" font-family="sans-serif" font-size="14" lengthAdjust="spacing" textLength="189.8271" x="17" y="66.5332">:MI_PUBLICACION_ABIERTA</text></g><!--entity EstadoSalida--><g class="entity" data-qualified-name="EstadoSalida" data-source-line="15" id="ent0012"><rect fill="#CDEBA5" height="37.6094" rx="2.5" ry="2.5" style="stroke:#181818;stroke-width:0.5;" width="209.8271" x="1183" y="158"/><text fill="#000000" font-family="sans-serif" font-size="14" lengthAdjust="spacing" textLength="189.8271" x="1193" y="182.5332">:MI_PUBLICACION_ABIERTA</text></g><g class="entity" data-qualified-name="GMN24" data-source-line="30" id="ent0025"><path d="M1183,390 L1183,465.4063 L1410.6226,465.4063 L1410.6226,400 L1400.6226,390 L1183,390" fill="#FEFFDD" style="stroke:#181818;stroke-width:0.5;"/><path d="M1400.6226,390 L1400.6226,400 L1410.6226,400 L1400.6226,390" fill="#FEFFDD" style="stroke:#181818;stroke-width:1;"/><text fill="#000000" font-family="sans-serif" font-size="13" lengthAdjust="spacing" textLength="134.4243" x="1189" y="408.4951">Responsabilidad unica:</text><text fill="#000000" font-family="sans-serif" font-size="13" lengthAdjust="spacing" textLength="191.4707" x="1189" y="424.8467">autoriza sin persistir ni presentar.</text><text fill="#000000" font-family="sans-serif" font-size="13" lengthAdjust="spacing" textLength="206.6226" x="1189" y="441.1982">Permite ampliar reglas sin modificar</text><text fill="#000000" font-family="sans-serif" font-size="13" lengthAdjust="spacing" textLength="185.7324" x="1189" y="457.5498">la coordinacion del caso de uso.</text></g><!--link EstadoEntrada to View--><g class="link" data-entity-1="ent0001" data-entity-2="ent0003" data-link-type="dependency" data-source-line="17" id="lnk13"><path d="M217.26,61 C332.56,61 509.82,61 613.33,61" fill="none" id="EstadoEntrada-to-View" style="stroke:#181818;stroke-width:1;"/><polygon fill="#181818" points="618.33,61,609.33,57,613.33,61,609.33,65,618.33,61" style="stroke:#181818;stroke-width:1;stroke-linejoin:miter;stroke-miterlimit:10;"/><text fill="#000000" font-family="sans-serif" font-size="13" lengthAdjust="spacing" textLength="107.6626" x="364.25" y="54.4951">editarPublicacion()</text></g><!--link View to PublicacionController--><g class="link" data-entity-1="ent0003" data-entity-2="ent0004" data-link-type="dependency" data-source-line="18" id="lnk14"><path d="M697,80.06 C697,101.28 697,131.3 697,152.64" fill="none" id="View-to-PublicacionController" style="stroke:#181818;stroke-width:1;"/><polygon fill="#181818" points="697,157.64,701,148.64,697,152.64,693,148.64,697,157.64" style="stroke:#181818;stroke-width:1;stroke-linejoin:miter;stroke-miterlimit:10;"/><text fill="#000000" font-family="sans-serif" font-size="13" lengthAdjust="spacing" textLength="190.7534" x="698" y="124.4951">editarPublicacion(solicitud, actor)</text></g><!--link PublicacionController to PublicacionService--><g class="link" data-entity-1="ent0004" data-entity-2="ent0005" data-link-type="dependency" data-source-line="19" id="lnk15"><path d="M656.85,196.01 C626.49,209.63 590,226 590,226 C590,226 590,244 590,244 C590,244 590.7079,255.2698 591.5579,268.8598" fill="none" id="PublicacionController-to-PublicacionService" style="stroke:#181818;stroke-width:1;"/><polygon fill="#181818" points="591.87,273.85,595.3004,264.6179,591.5579,268.8598,587.316,265.1172,591.87,273.85" style="stroke:#181818;stroke-width:1;stroke-linejoin:miter;stroke-miterlimit:10;"/><text fill="#000000" font-family="sans-serif" font-size="13" lengthAdjust="spacing" textLength="166.1689" x="591" y="240.4951">actualizar(id, cambios, actor)</text></g><!--link PublicacionController to SesionService--><g class="link" data-entity-1="ent0004" data-entity-2="ent0006" data-link-type="dependency" data-source-line="20" id="lnk16"><path d="M721.57,196.15 C739.98,209.74 762,226 762,226 C762,226 776.2584,250.1142 787.7984,269.6642" fill="none" id="PublicacionController-to-SesionService" style="stroke:#181818;stroke-width:1;"/><polygon fill="#181818" points="790.34,273.97,789.2097,264.1862,787.7984,269.6642,782.3204,268.2528,790.34,273.97" style="stroke:#181818;stroke-width:1;stroke-linejoin:miter;stroke-miterlimit:10;"/><text fill="#000000" font-family="sans-serif" font-size="13" lengthAdjust="spacing" textLength="209.5806" x="773" y="240.4951">obtenerSesionActual(authentication)</text></g><!--link PublicacionService to PublicacionRepository--><g class="link" data-entity-1="ent0005" data-entity-2="ent0008" data-link-type="dependency" data-source-line="21" id="lnk17"><path d="M559.98,312.01 C535.01,325.63 505,342 505,342 C505,342 505,360 505,360 C505,360 529.4946,385.0647 548.7446,404.7547" fill="none" id="PublicacionService-to-PublicacionRepository" style="stroke:#181818;stroke-width:1;"/><polygon fill="#181818" points="552.24,408.33,548.8086,399.0983,548.7446,404.7547,543.0881,404.6908,552.24,408.33" style="stroke:#181818;stroke-width:1;stroke-linejoin:miter;stroke-miterlimit:10;"/><text fill="#000000" font-family="sans-serif" font-size="13" lengthAdjust="spacing" textLength="129.3398" x="506" y="356.4951">obtenerActivaPorId(id)</text></g><!--link PublicacionService to PublicacionRepository--><g class="link" data-entity-1="ent0005" data-entity-2="ent0008" data-link-type="dependency" data-source-line="23" id="lnk19"><path d="M610.77,312.15 C624.08,325.74 640,342 640,342 C640,342 640,360 640,360 C640,360 613.4745,385.1957 592.7545,404.8857" fill="none" id="PublicacionService-to-PublicacionRepository-1" style="stroke:#181818;stroke-width:1;"/><polygon fill="#181818" points="589.13,408.33,598.4095,405.0298,592.7545,404.8857,592.8986,399.2307,589.13,408.33" style="stroke:#181818;stroke-width:1;stroke-linejoin:miter;stroke-miterlimit:10;"/><text fill="#000000" font-family="sans-serif" font-size="13" lengthAdjust="spacing" textLength="129.3398" x="641" y="356.4951">actualizar(publicacion)</text></g><!--link PublicacionService to PoliticaPublicacion--><g class="link" data-entity-1="ent0005" data-entity-2="ent0007" data-link-type="dependency" data-source-line="22" id="lnk18"><path d="M523.79,305.87 C440.87,320.08 313,342 313,342 C313,342 313,360 313,360 C313,360 339.9309,385.2218 360.9509,404.9118" fill="none" id="PublicacionService-to-PoliticaPublicacion" style="stroke:#181818;stroke-width:1;"/><polygon fill="#181818" points="364.6,408.33,360.7662,399.258,360.9509,404.9118,355.2971,405.0965,364.6,408.33" style="stroke:#181818;stroke-width:1;stroke-linejoin:miter;stroke-miterlimit:10;"/><text fill="#000000" font-family="sans-serif" font-size="13" lengthAdjust="spacing" textLength="182.0825" x="314" y="356.4951">exigirAutoria(actor, publicacion)</text></g><!--link PublicacionRepository to Publicacion--><g class="link" data-entity-1="ent0008" data-entity-2="ent0009" data-link-type="association" data-source-line="24" id="lnk20"><path d="M570,446.55 C570,468.12 570,504.02 570,525.7" fill="none" id="PublicacionRepository-Publicacion" style="stroke:#181818;stroke-width:1;"/></g><!--link PublicacionService to ArchivoPublicacionRepository--><g class="link" data-entity-1="ent0005" data-entity-2="ent0010" data-link-type="dependency" data-source-line="25" id="lnk21"><path d="M662.26,311.87 C715.14,325.52 779,342 779,342 C779,342 810.4935,379.4819 831.3735,404.3319" fill="none" id="PublicacionService-to-ArchivoPublicacionRepository" style="stroke:#181818;stroke-width:1;"/><polygon fill="#181818" points="834.59,408.16,831.8628,398.6963,831.3735,404.3319,825.7378,403.8427,834.59,408.16" style="stroke:#181818;stroke-width:1;stroke-linejoin:miter;stroke-miterlimit:10;"/><text fill="#000000" font-family="sans-serif" font-size="13" lengthAdjust="spacing" textLength="299.1841" x="793" y="356.4951">gestionarAdjuntosOpcionales(publicacion, adjuntos)</text></g><!--link ArchivoPublicacionRepository to ArchivoPublicacion--><g class="link" data-entity-1="ent0010" data-entity-2="ent0011" data-link-type="association" data-source-line="26" id="lnk22"><path d="M850,446.55 C850,468.12 850,504.02 850,525.7" fill="none" id="ArchivoPublicacionRepository-ArchivoPublicacion" style="stroke:#181818;stroke-width:1;"/></g><!--link View to EstadoSalida--><g class="link" data-entity-1="ent0003" data-entity-2="ent0012" data-link-type="dependency" data-source-line="27" id="lnk23"><path d="M775.79,77.2 C884.21,98.11 1074.1705,134.7528 1189.7605,157.0528" fill="none" id="View-to-EstadoSalida" style="stroke:#181818;stroke-width:1;stroke-dasharray:7,7;"/><polygon fill="#181818" points="1194.67,158,1186.5907,152.3676,1189.7605,157.0528,1185.0752,160.2227,1194.67,158" style="stroke:#181818;stroke-width:1;stroke-linejoin:miter;stroke-miterlimit:10;"/><text fill="#000000" font-family="sans-serif" font-size="13" lengthAdjust="spacing" textLength="130.7935" x="1028" y="124.4951">continuarNavegacion()</text></g><!--link PoliticaPublicacion to GMN24--><g class="link" data-entity-1="ent0007" data-entity-2="ent0025" data-link-type="association" data-source-line="30" id="lnk26"><path d="M410.6,408.39 C442.14,385.73 490.5,351 490.5,351 C490.5,351 1149.5,351 1149.5,351 C1149.5,351 1187.24,370.58 1224.55,389.92" fill="none" id="PoliticaPublicacion-GMN24" style="stroke:#181818;stroke-width:1;stroke-dasharray:7,7;"/></g><?plantuml-src dLHDRzf04BtlhnZH2qY1GzH4ZG-H32KIKfiWI7kDnjw9cMRPjNRNjAJgV--OqF9bGbEVxDqtRzxEU-lmnBP4ZtCmR2akIuBIcMNzePIdFA8j3C6xmSTXFxs0Ll9vz33-qlyq6gI3qTtjGzeV3IVtQGimm314r6veeqUDgiJy2Gi2qXpHZwlCS8uvErj3MmUhxKuBVYgGPwlhvVdLyEQg0VsLwVkgP_soNvLTPFho0sp11qv4EMF8dyPEoIyufoF0AOMJcB4p78LjYtGVUNEU3juFjzjEg7I1e_FBqzWZYDJdCrwujv0UbgXV_sVx50sBwsed1D3rtUkLHmaqEAxg7UXgmJIQrLGKPBWvnqgV0UPoievgB8NkBkdQiQGkgaJgC_es2qUEyunT-0Uo7USJS5aaI_vbDLsHjh6ACxArzL4MTyZMTVkoDWRzPHGkNk3O-P4MXST93aCcu_h11Vkq4aB6zkf8Pr1k46-Lj3MiOomRk13jXFH8gzTIca11ePuT-bH_gsnquQwi8MWeR4iGlzRx7VKQOQsf8UEhtFLwrplPJI0NnzbMw6znGSMVa2hh8e7dOXR1FJRUxWc5qjc06TT46YehEud2bH7F284jbEG3o-4yM8RIKv2aeE-fCVavImESbuRHooKjZDogkcJkD3yAarS6HPppcktBBrIJaUW69ozG1TTJP3NKEdy3?></g></svg>