<svg xmlns="http://www.w3.org/2000/svg" xmlns:xlink="http://www.w3.org/1999/xlink" contentStyleType="text/css" data-diagram-type="DESCRIPTION" height="479px" preserveAspectRatio="none" style="width:1425px;height:479px;background:#FFFFFF;" version="1.1" viewBox="0 0 1425 479" width="1425px" zoomAndPan="magnify"><?plantuml 1.2026.6?><defs/><g><!--cluster editarPublicacion--><g class="cluster" data-qualified-name="editarPublicacion" data-source-line="4" id="ent0002"><path d="M235.5,6 L362.5205,6 A3.75,3.75 0 0 1 365.0205,8.5 L372.0205,29.6094 L1164.5,29.6094 A2.5,2.5 0 0 1 1167,32.1094 L1167,461.5 A2.5,2.5 0 0 1 1164.5,464 L235.5,464 A2.5,2.5 0 0 1 233,461.5 L233,8.5 A2.5,2.5 0 0 1 235.5,6" fill="none" style="stroke:#000000;stroke-width:1.5;"/><line style="stroke:#000000;stroke-width:1.5;" x1="233" x2="372.0205" y1="29.6094" y2="29.6094"/><text fill="#000000" font-family="sans-serif" font-size="14" font-weight="700" lengthAdjust="spacing" textLength="126.0205" x="237" y="22.5332">editarPublicacion()</text></g><!--entity View--><g class="entity" data-qualified-name="editarPublicacion.View" data-source-line="5" id="ent0003"><rect fill="#629EF9" height="37.6094" rx="2.5" ry="2.5" style="stroke:#181818;stroke-width:0.5;" width="156.9648" x="514.5" y="42"/><text fill="#000000" font-family="sans-serif" font-size="14" lengthAdjust="spacing" textLength="136.9648" x="524.5" y="66.5332">editarPublicacionView</text></g><!--entity PublicacionController--><g class="entity" data-qualified-name="editarPublicacion.PublicacionController" data-source-line="6" id="ent0004"><rect fill="#B5BD68" height="37.6094" rx="2.5" ry="2.5" style="stroke:#181818;stroke-width:0.5;" width="152.2891" x="517" y="158"/><text fill="#000000" font-family="sans-serif" font-size="14" lengthAdjust="spacing" textLength="132.2891" x="527" y="182.5332">PublicacionController</text></g><!--entity PoliticaPublicacion--><g class="entity" data-qualified-name="editarPublicacion.PoliticaPublicacion" data-source-line="7" id="ent0005"><rect fill="#B5BD68" height="37.6094" rx="2.5" ry="2.5" style="stroke:#181818;stroke-width:0.5;" width="136.7305" x="315.5" y="292.5"/><text fill="#000000" font-family="sans-serif" font-size="14" lengthAdjust="spacing" textLength="116.7305" x="325.5" y="317.0332">PoliticaPublicacion</text></g><!--entity PublicacionRepository--><g class="entity" data-qualified-name="editarPublicacion.PublicacionRepository" data-source-line="8" id="ent0006"><rect fill="#F2AC4E" height="37.6094" rx="2.5" ry="2.5" style="stroke:#181818;stroke-width:0.5;" width="158.5166" x="490.5" y="292.5"/><text fill="#000000" font-family="sans-serif" font-size="14" lengthAdjust="spacing" textLength="138.5166" x="500.5" y="317.0332">PublicacionRepository</text></g><!--entity Publicacion--><g class="entity" data-qualified-name="editarPublicacion.Publicacion" data-source-line="9" id="ent0007"><rect fill="#F2AC4E" height="37.6094" rx="2.5" ry="2.5" style="stroke:#181818;stroke-width:0.5;" width="91.5996" x="524" y="410"/><text fill="#000000" font-family="sans-serif" font-size="14" lengthAdjust="spacing" textLength="71.5996" x="534" y="434.5332">Publicacion</text></g><!--entity ArchivoPublicacionRepository--><g class="entity" data-qualified-name="editarPublicacion.ArchivoPublicacionRepository" data-source-line="10" id="ent0008"><rect fill="#F2AC4E" height="37.6094" rx="2.5" ry="2.5" style="stroke:#181818;stroke-width:0.5;" width="205.1992" x="747.5" y="292.5"/><text fill="#000000" font-family="sans-serif" font-size="14" lengthAdjust="spacing" textLength="185.1992" x="757.5" y="317.0332">ArchivoPublicacionRepository</text></g><!--entity ArchivoPublicacion--><g class="entity" data-qualified-name="editarPublicacion.ArchivoPublicacion" data-source-line="11" id="ent0009"><rect fill="#F2AC4E" height="37.6094" rx="2.5" ry="2.5" style="stroke:#181818;stroke-width:0.5;" width="138.2822" x="781" y="410"/><text fill="#000000" font-family="sans-serif" font-size="14" lengthAdjust="spacing" textLength="118.2822" x="791" y="434.5332">ArchivoPublicacion</text></g><!--entity EstadoEntrada--><g class="entity" data-qualified-name="EstadoEntrada" data-source-line="3" id="ent0001"><rect fill="#CDEBA5" height="37.6094" rx="2.5" ry="2.5" style="stroke:#181818;stroke-width:0.5;" width="209.8271" x="7" y="42"/><text fill="#000000" font-family="sans-serif" font-size="14" lengthAdjust="spacing" textLength="189.8271" x="17" y="66.5332">:MI_PUBLICACION_ABIERTA</text></g><!--entity EstadoSalida--><g class="entity" data-qualified-name="EstadoSalida" data-source-line="13" id="ent0010"><rect fill="#CDEBA5" height="37.6094" rx="2.5" ry="2.5" style="stroke:#181818;stroke-width:0.5;" width="209.8271" x="1183" y="158"/><text fill="#000000" font-family="sans-serif" font-size="14" lengthAdjust="spacing" textLength="189.8271" x="1193" y="182.5332">:MI_PUBLICACION_ABIERTA</text></g><g class="entity" data-qualified-name="GMN20" data-source-line="26" id="ent0021"><path d="M1183,274 L1183,349.4063 L1410.6226,349.4063 L1410.6226,284 L1400.6226,274 L1183,274" fill="#FEFFDD" style="stroke:#181818;stroke-width:0.5;"/><path d="M1400.6226,274 L1400.6226,284 L1410.6226,284 L1400.6226,274" fill="#FEFFDD" style="stroke:#181818;stroke-width:1;"/><text fill="#000000" font-family="sans-serif" font-size="13" lengthAdjust="spacing" textLength="134.4243" x="1189" y="292.4951">Responsabilidad unica:</text><text fill="#000000" font-family="sans-serif" font-size="13" lengthAdjust="spacing" textLength="191.4707" x="1189" y="308.8467">autoriza sin persistir ni presentar.</text><text fill="#000000" font-family="sans-serif" font-size="13" lengthAdjust="spacing" textLength="206.6226" x="1189" y="325.1982">Permite ampliar reglas sin modificar</text><text fill="#000000" font-family="sans-serif" font-size="13" lengthAdjust="spacing" textLength="185.7324" x="1189" y="341.5498">la coordinacion del caso de uso.</text></g><!--link EstadoEntrada to View--><g class="link" data-entity-1="ent0001" data-entity-2="ent0003" data-link-type="dependency" data-source-line="15" id="lnk11"><path d="M217.26,61 C306.84,61 428.51,61 509.46,61" fill="none" id="EstadoEntrada-to-View" style="stroke:#181818;stroke-width:1;"/><polygon fill="#181818" points="514.46,61,505.46,57,509.46,61,505.46,65,514.46,61" style="stroke:#181818;stroke-width:1;stroke-linejoin:miter;stroke-miterlimit:10;"/><text fill="#000000" font-family="sans-serif" font-size="13" lengthAdjust="spacing" textLength="107.6626" x="312.25" y="54.4951">editarPublicacion()</text></g><!--link View to PublicacionController--><g class="link" data-entity-1="ent0003" data-entity-2="ent0004" data-link-type="dependency" data-source-line="16" id="lnk12"><path d="M593,80.06 C593,101.28 593,131.3 593,152.64" fill="none" id="View-to-PublicacionController" style="stroke:#181818;stroke-width:1;"/><polygon fill="#181818" points="593,157.64,597,148.64,593,152.64,589,148.64,593,157.64" style="stroke:#181818;stroke-width:1;stroke-linejoin:miter;stroke-miterlimit:10;"/><text fill="#000000" font-family="sans-serif" font-size="13" lengthAdjust="spacing" textLength="190.7534" x="594" y="124.4951">editarPublicacion(solicitud, actor)</text></g><!--link PublicacionController to PublicacionRepository--><g class="link" data-entity-1="ent0004" data-entity-2="ent0006" data-link-type="dependency" data-source-line="17" id="lnk13"><path d="M559.98,196.01 C535.01,209.63 505,226 505,226 C505,226 505,244 505,244 C505,244 529.4946,269.0647 548.7446,288.7547" fill="none" id="PublicacionController-to-PublicacionRepository" style="stroke:#181818;stroke-width:1;"/><polygon fill="#181818" points="552.24,292.33,548.8086,283.0983,548.7446,288.7547,543.0881,288.6908,552.24,292.33" style="stroke:#181818;stroke-width:1;stroke-linejoin:miter;stroke-miterlimit:10;"/><text fill="#000000" font-family="sans-serif" font-size="13" lengthAdjust="spacing" textLength="129.3398" x="506" y="240.4951">obtenerActivaPorId(id)</text></g><!--link PublicacionController to PublicacionRepository--><g class="link" data-entity-1="ent0004" data-entity-2="ent0006" data-link-type="dependency" data-source-line="19" id="lnk15"><path d="M610.77,196.15 C624.08,209.74 640,226 640,226 C640,226 640,244 640,244 C640,244 613.4745,269.1957 592.7545,288.8857" fill="none" id="PublicacionController-to-PublicacionRepository-1" style="stroke:#181818;stroke-width:1;"/><polygon fill="#181818" points="589.13,292.33,598.4095,289.0298,592.7545,288.8857,592.8986,283.2307,589.13,292.33" style="stroke:#181818;stroke-width:1;stroke-linejoin:miter;stroke-miterlimit:10;"/><text fill="#000000" font-family="sans-serif" font-size="13" lengthAdjust="spacing" textLength="129.3398" x="641" y="240.4951">actualizar(publicacion)</text></g><!--link PublicacionController to PoliticaPublicacion--><g class="link" data-entity-1="ent0004" data-entity-2="ent0005" data-link-type="dependency" data-source-line="18" id="lnk14"><path d="M516.86,191.05 C433.95,205.27 313,226 313,226 C313,226 313,244 313,244 C313,244 339.9309,269.2218 360.9509,288.9118" fill="none" id="PublicacionController-to-PoliticaPublicacion" style="stroke:#181818;stroke-width:1;"/><polygon fill="#181818" points="364.6,292.33,360.7662,283.258,360.9509,288.9118,355.2971,289.0965,364.6,292.33" style="stroke:#181818;stroke-width:1;stroke-linejoin:miter;stroke-miterlimit:10;"/><text fill="#000000" font-family="sans-serif" font-size="13" lengthAdjust="spacing" textLength="182.0825" x="314" y="240.4951">exigirAutoria(actor, publicacion)</text></g><!--link PublicacionRepository to Publicacion--><g class="link" data-entity-1="ent0006" data-entity-2="ent0007" data-link-type="association" data-source-line="20" id="lnk16"><path d="M570,330.55 C570,352.12 570,388.02 570,409.7" fill="none" id="PublicacionRepository-Publicacion" style="stroke:#181818;stroke-width:1;"/></g><!--link PublicacionController to ArchivoPublicacionRepository--><g class="link" data-entity-1="ent0004" data-entity-2="ent0008" data-link-type="dependency" data-source-line="21" id="lnk17"><path d="M662.79,196.01 C715.57,209.63 779,226 779,226 C779,226 810.4935,263.4819 831.3735,288.3319" fill="none" id="PublicacionController-to-ArchivoPublicacionRepository" style="stroke:#181818;stroke-width:1;"/><polygon fill="#181818" points="834.59,292.16,831.8628,282.6963,831.3735,288.3319,825.7378,287.8427,834.59,292.16" style="stroke:#181818;stroke-width:1;stroke-linejoin:miter;stroke-miterlimit:10;"/><text fill="#000000" font-family="sans-serif" font-size="13" lengthAdjust="spacing" textLength="299.1841" x="793" y="240.4951">gestionarAdjuntosOpcionales(publicacion, adjuntos)</text></g><!--link ArchivoPublicacionRepository to ArchivoPublicacion--><g class="link" data-entity-1="ent0008" data-entity-2="ent0009" data-link-type="association" data-source-line="22" id="lnk18"><path d="M850,330.55 C850,352.12 850,388.02 850,409.7" fill="none" id="ArchivoPublicacionRepository-ArchivoPublicacion" style="stroke:#181818;stroke-width:1;"/></g><!--link View to EstadoSalida--><g class="link" data-entity-1="ent0003" data-entity-2="ent0010" data-link-type="dependency" data-source-line="23" id="lnk19"><path d="M671.71,74.91 C797.16,95.49 1037.6459,134.9306 1177.9759,157.9506" fill="none" id="View-to-EstadoSalida" style="stroke:#181818;stroke-width:1;stroke-dasharray:7,7;"/><polygon fill="#181818" points="1182.91,158.76,1174.6762,153.3559,1177.9759,157.9506,1173.3812,161.2503,1182.91,158.76" style="stroke:#181818;stroke-width:1;stroke-linejoin:miter;stroke-miterlimit:10;"/><text fill="#000000" font-family="sans-serif" font-size="13" lengthAdjust="spacing" textLength="130.7935" x="983" y="124.4951">continuarNavegacion()</text></g><!--link PoliticaPublicacion to GMN20--><g class="link" data-entity-1="ent0005" data-entity-2="ent0021" data-link-type="association" data-source-line="26" id="lnk22"><path d="M410.6,292.39 C442.14,269.73 490.5,235 490.5,235 C490.5,235 1149.5,235 1149.5,235 C1149.5,235 1187.24,254.58 1224.55,273.92" fill="none" id="PoliticaPublicacion-GMN20" style="stroke:#181818;stroke-width:1;stroke-dasharray:7,7;"/></g><?plantuml-src dLJ1Rjim3BthAuZiaW1D3iLQh3uKS38N2B2rGTRjMZ0Mwt9L98EIiwN3_drqjg59usHOVPAbnySdlcV7H_Or2Yx1iQUqhWdguDRjYp52PK9VEO8ta_V5E3-3NlPnUZVxFFumdUIJwStrNJwU5lFRl0SOeOW9RIXy4hHeQYmViI8WombbrYmSbrXoy2sqjxVR7_JWXm5zjhgUdruKLnSTw2zCtpOzsyNBgiNPmfw_Wotu9AYeu1p98Mnmd1IyLVCIUNMQJzuMswnpgaFa56JzR-m1H2xb0w_2_v3kbvYVhtFg4pfMeyoERp2KuULch1bqc6JQ4nXQnNJEjwiewd1BJeqz0IprPWFJMGh3NTBdIMGG5eayILucNk4ioDJssHxbsJTKfNtdYYLlb9Enlz5o0lKpuXN2bAJHCJwXz0yHFSELQ2SJXxiToqK65SMaMoYv_Thu5E9DtKBGKTnMeUF-SpumnmXRMHsfsZWz6btkf2M3KfMoRr2kSKNLtrWO7nA1SFMG8DntVazpYdNm4HVS4bbel9va1ZTsF254zb2JHDRB2NY6MYYIrp2Dp8naoTe0bxLZ5FqiAgSvRakMmVAzCebngEA2MFQ__pEM79GOWowWYM5ao5jeTVu2?></g></svg>