<svg xmlns="http://www.w3.org/2000/svg" xmlns:xlink="http://www.w3.org/1999/xlink" contentStyleType="text/css" data-diagram-type="STATE" height="928px" preserveAspectRatio="none" style="width:977px;height:928px;background:#FFFFFF;" version="1.1" viewBox="0 0 977 928" width="977px" zoomAndPan="magnify"><?plantuml 1.2026.6?><defs/><g><g class="entity" data-qualified-name="in1" data-source-line="3" id="ent0001"><rect fill="#F1F1F1" height="50" rx="12.5" ry="12.5" style="stroke:#181818;stroke-width:0.5;" width="167.8066" x="295.5" y="7"/><line style="stroke:#181818;stroke-width:0.5;" x1="295.5" x2="463.3066" y1="34.6094" y2="34.6094"/><text fill="#000000" font-family="sans-serif" font-size="14" lengthAdjust="spacing" textLength="147.8066" x="305.5" y="26.5332">PROYECTO_ABIERTO</text></g><g class="entity" data-qualified-name="in2" data-source-line="6" id="ent0002"><rect fill="#F1F1F1" height="50" rx="12.5" ry="12.5" style="stroke:#181818;stroke-width:0.5;" width="183.3789" x="499" y="7"/><line style="stroke:#181818;stroke-width:0.5;" x1="499" x2="682.3789" y1="34.6094" y2="34.6094"/><text fill="#000000" font-family="sans-serif" font-size="14" lengthAdjust="spacing" textLength="163.3789" x="509" y="26.5332">ENTREGABLE_ABIERTO</text></g><g class="entity" data-qualified-name="abrirEntregables" data-source-line="9" id="ent0003"><path d="M19.5,118 L949.5,118 A12.5,12.5 0 0 1 962,130.5 L962,145.6094 L7,145.6094 L7,130.5 A12.5,12.5 0 0 1 19.5,118" fill="#F1F1F1"/><rect fill="none" height="649.6094" rx="12.5" ry="12.5" style="stroke:#181818;stroke-width:0.5;" width="955" x="7" y="118"/><line style="stroke:#181818;stroke-width:0.5;" x1="7" x2="962" y1="145.6094" y2="145.6094"/><text fill="#000000" font-family="sans-serif" font-size="14" lengthAdjust="spacing" textLength="112.0479" x="428.4761" y="137.5332">abrirEntregables()</text><g class="entity" data-qualified-name="abrirEntregables.SolicitandoApertura" data-source-line="11" id="ent0004"><rect fill="#F1F1F1" height="50" rx="12.5" ry="12.5" style="stroke:#181818;stroke-width:0.5;" width="50" x="286" y="248.6094"/><line style="stroke:#181818;stroke-width:0.5;" x1="286" x2="336" y1="276.2188" y2="276.2188"/><text fill="#000000" font-family="sans-serif" font-size="14" lengthAdjust="spacing" textLength="3.8896" x="309.0552" y="268.1426">&#160;</text></g><g class="entity" data-qualified-name="abrirEntregables.MostrandoListado" data-source-line="12" id="ent0005"><rect fill="#F1F1F1" height="50" rx="12.5" ry="12.5" style="stroke:#181818;stroke-width:0.5;" width="50" x="286" y="566.6094"/><line style="stroke:#181818;stroke-width:0.5;" x1="286" x2="336" y1="594.2188" y2="594.2188"/><text fill="#000000" font-family="sans-serif" font-size="14" lengthAdjust="spacing" textLength="3.8896" x="309.0552" y="586.1426">&#160;</text></g><g class="entity" data-qualified-name="abrirEntregables.FiltrandoBuscando" data-source-line="13" id="ent0006"><rect fill="#F1F1F1" height="50" rx="12.5" ry="12.5" style="stroke:#181818;stroke-width:0.5;" width="50" x="67" y="704.6094"/><line style="stroke:#181818;stroke-width:0.5;" x1="67" x2="117" y1="732.2188" y2="732.2188"/><text fill="#000000" font-family="sans-serif" font-size="14" lengthAdjust="spacing" textLength="3.8896" x="90.0552" y="724.1426">&#160;</text></g><g class="start_entity" data-qualified-name="abrirEntregables..start.abrirEntregables" data-source-line="15" id="ent0009"><ellipse cx="311" cy="166.6094" fill="#222222" rx="10" ry="10" style="stroke:#222222;stroke-width:1;"/></g><g class="end_entity" data-qualified-name="abrirEntregables..end.abrirEntregables" data-source-line="52" id="ent0015"><ellipse cx="622" cy="729.6094" fill="none" rx="11" ry="11" style="stroke:#222222;stroke-width:1;"/><ellipse cx="622" cy="729.6094" fill="#222222" rx="6" ry="6" style="stroke:#222222;stroke-width:1;"/></g><!--link *start*abrirEntregables to SolicitandoApertura--><g class="link" data-entity-1="ent0009" data-entity-2="ent0004" data-link-type="dependency" data-source-line="15" id="lnk10"><path d="M311,176.9294 C311,192.7894 311,220.5194 311,243.2494" fill="none" id="*start*abrirEntregables-to-SolicitandoApertura" style="stroke:#008000;stroke-width:1;"/><polygon fill="#008000" points="311,248.2494,315,239.2494,311,243.2494,307,239.2494,311,248.2494" style="stroke:#008000;stroke-width:1;stroke-linejoin:miter;stroke-miterlimit:10;"/><path d="M316,199.6094 L316,225.6094 L558,225.6094 L558,209.6094 L548,199.6094 L316,199.6094" fill="#FEFFDD" style="stroke:#181818;stroke-width:0.5;"/><path d="M548,199.6094 L548,209.6094 L558,209.6094 L548,199.6094" fill="#FEFFDD" style="stroke:#181818;stroke-width:0.5;"/><text fill="#000000" font-family="sans-serif" font-size="13" font-weight="700" lengthAdjust="spacing" textLength="77.2954" x="322" y="218.1045">Investigador</text><text fill="#000000" font-family="sans-serif" font-size="13" lengthAdjust="spacing" textLength="140.9053" x="402.9072" y="218.1045">solicita abrir entregables</text></g><!--link SolicitandoApertura to MostrandoListado--><g class="link" data-entity-1="ent0004" data-entity-2="ent0005" data-link-type="dependency" data-source-line="20" id="lnk11"><path d="M311,298.6194 C311,357.2394 311,502.1694 311,561.1994" fill="none" id="SolicitandoApertura-to-MostrandoListado" style="stroke:#008000;stroke-width:1;"/><polygon fill="#008000" points="311,566.1994,315,557.1994,311,561.1994,307,557.1994,311,566.1994" style="stroke:#008000;stroke-width:1;stroke-linejoin:miter;stroke-miterlimit:10;"/><path d="M316,321.6094 L316,543.6094 L751,543.6094 L751,331.6094 L741,321.6094 L316,321.6094" fill="#FEFFDD" style="stroke:#181818;stroke-width:0.5;"/><path d="M741,321.6094 L741,331.6094 L751,331.6094 L741,321.6094" fill="#FEFFDD" style="stroke:#181818;stroke-width:0.5;"/><text fill="#000000" font-family="sans-serif" font-size="13" font-weight="700" lengthAdjust="spacing" textLength="49.8608" x="322" y="340.1045">Sistema</text><text fill="#000000" font-family="sans-serif" font-size="13" lengthAdjust="spacing" textLength="361.3276" x="375.4727" y="340.1045">presenta y visualiza el listado de entregables del proyecto con:</text><text fill="#000000" font-family="sans-serif" font-size="13" lengthAdjust="spacing" textLength="21.8931" x="322" y="356.4561">&#8226; ID</text><text fill="#000000" font-family="sans-serif" font-size="13" lengthAdjust="spacing" textLength="41.4058" x="322" y="372.8076">&#8226; T&#237;tulo</text><text fill="#000000" font-family="sans-serif" font-size="13" lengthAdjust="spacing" textLength="34.1821" x="322" y="389.1592">&#8226; Tipo</text><text fill="#000000" font-family="sans-serif" font-size="13" lengthAdjust="spacing" textLength="79.6948" x="322" y="405.5107">&#8226; Fecha l&#237;mite</text><text fill="#000000" font-family="sans-serif" font-size="13" lengthAdjust="spacing" textLength="49.3657" x="322" y="421.8623">&#8226; Estado</text><text fill="#000000" font-family="sans-serif" font-size="13" lengthAdjust="spacing" textLength="190.9756" x="322" y="438.2139">&#8226; Informaci&#243;n adicional (si aplica)</text><text fill="#000000" font-family="sans-serif" font-size="13" lengthAdjust="spacing" textLength="3.6118" x="322" y="454.5654">&#160;</text><text fill="#000000" font-family="sans-serif" font-size="13" font-weight="700" lengthAdjust="spacing" textLength="49.8608" x="322" y="470.917">Sistema</text><text fill="#000000" font-family="sans-serif" font-size="13" lengthAdjust="spacing" textLength="205.9307" x="375.4727" y="470.917">permite introducir filtros y b&#250;squeda</text><text fill="#000000" font-family="sans-serif" font-size="13" font-weight="700" lengthAdjust="spacing" textLength="49.8608" x="322" y="487.2686">Sistema</text><text fill="#000000" font-family="sans-serif" font-size="13" lengthAdjust="spacing" textLength="94.6372" x="375.4727" y="487.2686">permite solicitar:</text><text fill="#000000" font-family="sans-serif" font-size="13" lengthAdjust="spacing" textLength="101.3911" x="322" y="503.6201">&#8226; Abrir entregable</text><text fill="#000000" font-family="sans-serif" font-size="13" lengthAdjust="spacing" textLength="106.4502" x="322" y="519.9717">&#8226; Crear entregable</text><text fill="#000000" font-family="sans-serif" font-size="13" lengthAdjust="spacing" textLength="112.9438" x="322" y="536.3232">&#8226; Volver al proyecto</text></g><!--link MostrandoListado to FiltrandoBuscando--><g class="link" data-entity-1="ent0005" data-entity-2="ent0006" data-link-type="dependency" data-source-line="37" id="lnk12"><path d="M285.77,596.2294 C214.69,606.4094 18,634.6094 18,634.6094 C18,634.6094 18,686.6094 18,686.6094 C18,686.6094 41.1311,699.7422 62.6011,711.9222" fill="none" id="MostrandoListado-to-FiltrandoBuscando" style="stroke:#008000;stroke-width:1;"/><polygon fill="#008000" points="66.95,714.3894,61.0957,706.4694,62.6011,711.9222,57.1482,713.4276,66.95,714.3894" style="stroke:#008000;stroke-width:1;stroke-linejoin:miter;stroke-miterlimit:10;"/><path d="M23,647.6094 L23,673.6094 L284,673.6094 L284,657.6094 L274,647.6094 L23,647.6094" fill="#FEFFDD" style="stroke:#181818;stroke-width:0.5;"/><path d="M274,647.6094 L274,657.6094 L284,657.6094 L274,647.6094" fill="#FEFFDD" style="stroke:#181818;stroke-width:0.5;"/><text fill="#000000" font-family="sans-serif" font-size="13" font-weight="700" lengthAdjust="spacing" textLength="77.2954" x="29" y="666.1045">Investigador</text><text fill="#000000" font-family="sans-serif" font-size="13" lengthAdjust="spacing" textLength="159.7134" x="109.9072" y="666.1045">introduce filtros o b&#250;squeda</text></g><!--link FiltrandoBuscando to FiltrandoBuscando--><g class="link" data-entity-1="ent0006" data-entity-2="ent0006" data-link-type="dependency" data-source-line="42" id="lnk13"><path d="M117.18,716.9094 C126.91,716.3494 135,720.5794 135,729.6094 C135,738.6394 131.9017,743.1567 122.1717,742.5967" fill="none" id="FiltrandoBuscando-to-FiltrandoBuscando" style="stroke:#008000;stroke-width:1;"/><polygon fill="#008000" points="117.18,742.3094,125.9353,746.8199,122.1717,742.5967,126.395,738.8331,117.18,742.3094" style="stroke:#008000;stroke-width:1;stroke-linejoin:miter;stroke-miterlimit:10;"/><path d="M140,716.6094 L140,742.6094 L514,742.6094 L514,726.6094 L504,716.6094 L140,716.6094" fill="#FEFFDD" style="stroke:#181818;stroke-width:0.5;"/><path d="M504,716.6094 L504,726.6094 L514,726.6094 L504,716.6094" fill="#FEFFDD" style="stroke:#181818;stroke-width:0.5;"/><text fill="#000000" font-family="sans-serif" font-size="13" font-weight="700" lengthAdjust="spacing" textLength="49.8608" x="146" y="735.1045">Sistema</text><text fill="#000000" font-family="sans-serif" font-size="13" lengthAdjust="spacing" textLength="299.8823" x="199.4727" y="735.1045">muestra y visualiza el listado seg&#250;n filtros/b&#250;squeda</text></g><!--link FiltrandoBuscando to MostrandoListado--><g class="link" data-entity-1="ent0006" data-entity-2="ent0005" data-link-type="dependency" data-source-line="47" id="lnk14"><path d="M117.35,723.2094 C170.56,711.8594 289,686.6094 289,686.6094 C289,686.6094 297.6819,649.5381 304.1919,621.6881" fill="none" id="FiltrandoBuscando-to-MostrandoListado" style="stroke:#008000;stroke-width:1;"/><polygon fill="#008000" points="305.33,616.8194,299.3864,624.6727,304.1919,621.6881,307.1765,626.4936,305.33,616.8194" style="stroke:#008000;stroke-width:1;stroke-linejoin:miter;stroke-miterlimit:10;"/><path d="M306,647.6094 L306,673.6094 L584,673.6094 L584,657.6094 L574,647.6094 L306,647.6094" fill="#FEFFDD" style="stroke:#181818;stroke-width:0.5;"/><path d="M574,647.6094 L574,657.6094 L584,657.6094 L574,647.6094" fill="#FEFFDD" style="stroke:#181818;stroke-width:0.5;"/><text fill="#000000" font-family="sans-serif" font-size="13" font-weight="700" lengthAdjust="spacing" textLength="77.2954" x="312" y="666.1045">Investigador</text><text fill="#000000" font-family="sans-serif" font-size="13" lengthAdjust="spacing" textLength="176.3188" x="392.9072" y="666.1045">solicita continuar con el listado</text></g><!--link MostrandoListado to *end*abrirEntregables--><g class="link" data-entity-1="ent0005" data-entity-2="ent0015" data-link-type="dependency" data-source-line="52" id="lnk16"><path d="M336.03,596.3394 C405.04,606.6194 593,634.6094 593,634.6094 C593,634.6094 610.1255,690.1117 617.5355,714.1217" fill="none" id="MostrandoListado-to-*end*abrirEntregables" style="stroke:#008000;stroke-width:1;"/><polygon fill="#008000" points="619.01,718.8994,620.178,709.12,617.5355,714.1217,612.5338,711.4792,619.01,718.8994" style="stroke:#008000;stroke-width:1;stroke-linejoin:miter;stroke-miterlimit:10;"/><path d="M613,639.6094 L613,681.6094 L938,681.6094 L938,649.6094 L928,639.6094 L613,639.6094" fill="#FEFFDD" style="stroke:#181818;stroke-width:0.5;"/><path d="M928,639.6094 L928,649.6094 L938,649.6094 L928,639.6094" fill="#FEFFDD" style="stroke:#181818;stroke-width:0.5;"/><text fill="#000000" font-family="sans-serif" font-size="13" font-weight="700" lengthAdjust="spacing" textLength="77.2954" x="619" y="658.1045">Investigador</text><text fill="#000000" font-family="sans-serif" font-size="13" lengthAdjust="spacing" textLength="214.627" x="699.9072" y="658.1045">solicita abrir un entregable del listado</text><text fill="#000000" font-family="sans-serif" font-size="13" font-weight="700" lengthAdjust="spacing" textLength="49.8608" x="619" y="674.4561">Sistema</text><text fill="#000000" font-family="sans-serif" font-size="13" lengthAdjust="spacing" textLength="250.7578" x="672.4727" y="674.4561">presenta y visualiza el entregable solicitado</text></g></g><g class="entity" data-qualified-name="ENTREGABLES_ABIERTOS" data-source-line="59" id="ent0017"><rect fill="#F1F1F1" height="50" rx="12.5" ry="12.5" style="stroke:#181818;stroke-width:0.5;" width="202.0547" x="39.5" y="864"/><line style="stroke:#181818;stroke-width:0.5;" x1="39.5" x2="241.5547" y1="891.6094" y2="891.6094"/><text fill="#000000" font-family="sans-serif" font-size="14" lengthAdjust="spacing" textLength="182.0547" x="49.5" y="883.5332">ENTREGABLES_ABIERTOS</text></g><g class="entity" data-qualified-name="ENTREGABLE_ABIERTO" data-source-line="64" id="ent0019"><rect fill="#F1F1F1" height="50" rx="12.5" ry="12.5" style="stroke:#181818;stroke-width:0.5;" width="183.3789" x="373" y="864"/><line style="stroke:#181818;stroke-width:0.5;" x1="373" x2="556.3789" y1="891.6094" y2="891.6094"/><text fill="#000000" font-family="sans-serif" font-size="14" lengthAdjust="spacing" textLength="163.3789" x="383" y="883.5332">ENTREGABLE_ABIERTO</text></g><g class="entity" data-qualified-name="PROYECTO_ABIERTO" data-source-line="74" id="ent0022"><rect fill="#F1F1F1" height="50" rx="12.5" ry="12.5" style="stroke:#181818;stroke-width:0.5;" width="167.8066" x="656.5" y="864"/><line style="stroke:#181818;stroke-width:0.5;" x1="656.5" x2="824.3066" y1="891.6094" y2="891.6094"/><text fill="#000000" font-family="sans-serif" font-size="14" lengthAdjust="spacing" textLength="147.8066" x="666.5" y="883.5332">PROYECTO_ABIERTO</text></g><!--link in1 to abrirEntregables--><g class="link" data-entity-1="ent0001" data-entity-2="ent0003" data-link-type="dependency" data-source-line="4" id="lnk7"><path d="M385.68,57.06 C389.52,72.04 393.6964,88.3071 400.0364,112.9971" fill="none" id="in1-to-abrirEntregables" style="stroke:#008000;stroke-width:1;"/><polygon fill="#008000" points="401.28,117.84,402.9159,108.1279,400.0364,112.9971,395.1673,110.1177,401.28,117.84" style="stroke:#008000;stroke-width:1;stroke-linejoin:miter;stroke-miterlimit:10;"/></g><!--link in2 to abrirEntregables--><g class="link" data-entity-1="ent0002" data-entity-2="ent0003" data-link-type="dependency" data-source-line="7" id="lnk8"><path d="M584.26,57.06 C580.38,72.04 576.1646,88.31 569.7646,113" fill="none" id="in2-to-abrirEntregables" style="stroke:#008000;stroke-width:1;"/><polygon fill="#008000" points="568.51,117.84,574.6403,110.1316,569.7646,113,566.8963,108.1242,568.51,117.84" style="stroke:#008000;stroke-width:1;stroke-linejoin:miter;stroke-miterlimit:10;"/></g><!--link abrirEntregables to ENTREGABLES_ABIERTOS--><g class="link" data-entity-1="ent0003" data-entity-2="ent0017" data-link-type="dependency" data-source-line="59" id="lnk18"><path d="M196.09,768.12 C179.56,786.69 169.5,798 169.5,798 C169.5,798 158.3934,832.4609 149.8034,859.1209" fill="none" id="abrirEntregables-to-ENTREGABLES_ABIERTOS" style="stroke:#008000;stroke-width:1;"/><polygon fill="#008000" points="148.27,863.88,154.8374,856.5404,149.8034,859.1209,147.2229,854.087,148.27,863.88" style="stroke:#008000;stroke-width:1;stroke-linejoin:miter;stroke-miterlimit:10;"/><path d="M174.5,803 L174.5,829 L384.5,829 L384.5,813 L374.5,803 L174.5,803" fill="#FEFFDD" style="stroke:#181818;stroke-width:0.5;"/><path d="M374.5,803 L374.5,813 L384.5,813 L374.5,803" fill="#FEFFDD" style="stroke:#181818;stroke-width:0.5;"/><text fill="#000000" font-family="sans-serif" font-size="13" lengthAdjust="spacing" textLength="189.3442" x="180.5" y="821.4951">Listado de entregables mostrado</text></g><!--link abrirEntregables to ENTREGABLE_ABIERTO--><g class="link" data-entity-1="ent0003" data-entity-2="ent0019" data-link-type="dependency" data-source-line="64" id="lnk20"><path d="M404.84,768.12 C400.28,786.69 397.5,798 397.5,798 C397.5,798 397.5,834 397.5,834 C397.5,834 412.7961,846.3335 430.6361,860.7035" fill="none" id="abrirEntregables-to-ENTREGABLE_ABIERTO" style="stroke:#008000;stroke-width:1;"/><polygon fill="#008000" points="434.53,863.84,430.0302,855.0792,430.6361,860.7035,425.0118,861.3094,434.53,863.84" style="stroke:#008000;stroke-width:1;stroke-linejoin:miter;stroke-miterlimit:10;"/><path d="M402.5,803 L402.5,829 L520.5,829 L520.5,813 L510.5,803 L402.5,803" fill="#FEFFDD" style="stroke:#181818;stroke-width:0.5;"/><path d="M510.5,803 L510.5,813 L520.5,813 L510.5,803" fill="#FEFFDD" style="stroke:#181818;stroke-width:0.5;"/><text fill="#000000" font-family="sans-serif" font-size="13" lengthAdjust="spacing" textLength="97.5444" x="408.5" y="821.4951">abrirEntregable()</text></g><!--link abrirEntregables to ENTREGABLE_ABIERTO--><g class="link" data-entity-1="ent0003" data-entity-2="ent0019" data-link-type="dependency" data-source-line="69" id="lnk21"><path d="M525.7,768.12 C528.06,786.69 529.5,798 529.5,798 C529.5,798 529.5,834 529.5,834 C529.5,834 514.7262,846.2752 497.4262,860.6452" fill="none" id="abrirEntregables-to-ENTREGABLE_ABIERTO-1" style="stroke:#008000;stroke-width:1;"/><polygon fill="#008000" points="493.58,863.84,503.059,861.1663,497.4262,860.6452,497.9473,855.0124,493.58,863.84" style="stroke:#008000;stroke-width:1;stroke-linejoin:miter;stroke-miterlimit:10;"/><path d="M534.5,803 L534.5,829 L656.5,829 L656.5,813 L646.5,803 L534.5,803" fill="#FEFFDD" style="stroke:#181818;stroke-width:0.5;"/><path d="M646.5,803 L646.5,813 L656.5,813 L646.5,803" fill="#FEFFDD" style="stroke:#181818;stroke-width:0.5;"/><text fill="#000000" font-family="sans-serif" font-size="13" lengthAdjust="spacing" textLength="101.1563" x="540.5" y="821.4951">crearEntregable()</text></g><!--link abrirEntregables to PROYECTO_ABIERTO--><g class="link" data-entity-1="ent0003" data-entity-2="ent0022" data-link-type="dependency" data-source-line="74" id="lnk23"><path d="M671.39,768.14 C694.41,808.06 711.6818,838.0188 724.1118,859.5688" fill="none" id="abrirEntregables-to-PROYECTO_ABIERTO" style="stroke:#008000;stroke-width:1;"/><polygon fill="#008000" points="726.61,863.9,725.5782,854.1053,724.1118,859.5688,718.6483,858.1025,726.61,863.9" style="stroke:#008000;stroke-width:1;stroke-linejoin:miter;stroke-miterlimit:10;"/><path d="M713.5,803 L713.5,829 L819.5,829 L819.5,813 L809.5,803 L713.5,803" fill="#FEFFDD" style="stroke:#181818;stroke-width:0.5;"/><path d="M809.5,803 L809.5,813 L819.5,813 L809.5,803" fill="#FEFFDD" style="stroke:#181818;stroke-width:0.5;"/><text fill="#000000" font-family="sans-serif" font-size="13" lengthAdjust="spacing" textLength="85.9663" x="719.5" y="821.4951">abrirProyecto()</text></g><?plantuml-src hLNDQjj04BxhAGRtOXT2Q8ub6EnKAGQt3hOfb13AM9guIrQxwkxAu9P2dwNtd7hBrM_I9-b8YgnV5zTKFaYxE_FDzytFsZu85QF12AHGvBOnGQpbDbruddNe28Hw1MYXTpEVVVIlbhDFe_74dozdFIyzERjziJP4wkvi2BWomlZA6LhZIf8j4Iuo1F_zSkw_7OsdVXNZuYYCvdu6sDpi3thmpVE0dzohnpysN6Wf0k5GXNeKat69mRRHEssTIKscWlT3tRQu5ZAt62SsIDzvgDkNTpK9Xw8fpL1QfPb-o3OkLyE9sf1rOitnpENvQWZssJaN35J9HEf2AinmyiWTaMfCEYLrqLZmEKMOCOWDMGwBi8MDi0bAyHM19Djd611IbHKl9RleBGLEGw3Lwmppzu-VC7cp_rpk7bqYTRaMSRcufk0pWjmzHeA55Rj-oJW3K_VQH1Y8tIy56B9ihL12tmh0cBE00wzJ39aKbLlG6Hqc0QVqFgsYjYnljNkoNn8AyM-UHK5CAMpKACt-uCeGTXvyq7931h1CLKSrczMgbRBTUqUtLA6Tzj9rGtgTHolKYKIgsOmIIiKTwYbBwzsJAlYTdyxkw8u_F7ZSmqweX0l9NnMI_renlXPE7lj4LRee6x4gYIC7je9Gm3TLVFUyriLQrL3Us8lYobvuDK7JxbiXoZB3uSg47HceY5CFqt3k3_uNS92Ex2d0pR_33hutpxDU1Vq3?></g></svg>