<svg xmlns="http://www.w3.org/2000/svg" xmlns:xlink="http://www.w3.org/1999/xlink" contentStyleType="text/css" data-diagram-type="DESCRIPTION" height="442px" preserveAspectRatio="none" style="width:1736px;height:442px;background:#FFFFFF;" version="1.1" viewBox="0 0 1736 442" width="1736px" zoomAndPan="magnify"><?plantuml 1.2026.4?><defs/><g><!--cluster abrirInvestigador--><g class="cluster" data-qualified-name="abrirInvestigador" data-source-line="4" id="ent0002"><path d="M249.5,6 L374.1895,6 A3.75,3.75 0 0 1 376.6895,8.5 L383.6895,29.6094 L734.5,29.6094 A2.5,2.5 0 0 1 737,32.1094 L737,424.5 A2.5,2.5 0 0 1 734.5,427 L249.5,427 A2.5,2.5 0 0 1 247,424.5 L247,8.5 A2.5,2.5 0 0 1 249.5,6" fill="none" style="stroke:#000000;stroke-width:1.5;"/><line style="stroke:#000000;stroke-width:1.5;" x1="247" x2="383.6895" y1="29.6094" y2="29.6094"/><text fill="#000000" font-family="sans-serif" font-size="14" font-weight="700" lengthAdjust="spacing" textLength="123.6895" x="251" y="22.5332">abrirInvestigador()</text></g><!--entity DetalleInvestigadorView--><g class="entity" data-qualified-name="abrirInvestigador.DetalleInvestigadorView" data-source-line="5" id="ent0003"><rect fill="#629EF9" height="37.6094" rx="2.5" ry="2.5" style="stroke:#181818;stroke-width:0.5;" width="170.1924" x="551" y="42"/><text fill="#000000" font-family="sans-serif" font-size="14" lengthAdjust="spacing" textLength="150.1924" x="561" y="66.5332">DetalleInvestigadorView</text></g><!--entity InvestigadorController--><g class="entity" data-qualified-name="abrirInvestigador.InvestigadorController" data-source-line="6" id="ent0004"><rect fill="#B5BD68" height="37.6094" rx="2.5" ry="2.5" style="stroke:#181818;stroke-width:0.5;" width="156.958" x="308.5" y="158"/><text fill="#000000" font-family="sans-serif" font-size="14" lengthAdjust="spacing" textLength="136.958" x="318.5" y="182.5332">InvestigadorController</text></g><!--entity InvestigadorRepository--><g class="entity" data-qualified-name="abrirInvestigador.InvestigadorRepository" data-source-line="7" id="ent0005"><rect fill="#F2AC4E" height="37.6094" rx="2.5" ry="2.5" style="stroke:#181818;stroke-width:0.5;" width="163.1855" x="318.5" y="274"/><text fill="#000000" font-family="sans-serif" font-size="14" lengthAdjust="spacing" textLength="143.1855" x="328.5" y="298.5332">InvestigadorRepository</text></g><!--entity Investigador--><g class="entity" data-qualified-name="abrirInvestigador.Investigador" data-source-line="8" id="ent0006"><rect fill="#F2AC4E" height="37.6094" rx="2.5" ry="2.5" style="stroke:#181818;stroke-width:0.5;" width="96.2686" x="352" y="373"/><text fill="#000000" font-family="sans-serif" font-size="14" lengthAdjust="spacing" textLength="76.2686" x="362" y="397.5332">Investigador</text></g><!--entity EstadoEntrada--><g class="entity" data-qualified-name="EstadoEntrada" data-source-line="3" id="ent0001"><rect fill="#CDEBA5" height="37.6094" rx="2.5" ry="2.5" style="stroke:#181818;stroke-width:0.5;" width="223.834" x="7" y="42"/><text fill="#000000" font-family="sans-serif" font-size="14" lengthAdjust="spacing" textLength="203.834" x="17" y="66.5332">:OPCIONES_PERFIL_ABIERTO</text></g><!--entity EstadoSalida--><g class="entity" data-qualified-name="EstadoSalida" data-source-line="11" id="ent0007"><rect fill="#CDEBA5" height="37.6094" rx="2.5" ry="2.5" style="stroke:#181818;stroke-width:0.5;" width="198.9238" x="753.5" y="158"/><text fill="#000000" font-family="sans-serif" font-size="14" lengthAdjust="spacing" textLength="178.9238" x="763.5" y="182.5332">:INVESTIGADOR_ABIERTO</text></g><!--entity AbrirOpcionesPerfil--><g class="entity" data-qualified-name="AbrirOpcionesPerfil" data-source-line="12" id="ent0008"><rect fill="#CDEBA5" height="37.6094" rx="2.5" ry="2.5" style="stroke:#181818;stroke-width:0.5;" width="230.875" x="987.5" y="158"/><text fill="#000000" font-family="sans-serif" font-size="14" lengthAdjust="spacing" textLength="210.875" x="997.5" y="182.5332">:Collaboration AbrirOpcionesPerfil</text></g><!--entity AbrirInvestigadores--><g class="entity" data-qualified-name="AbrirInvestigadores" data-source-line="13" id="ent0009"><rect fill="#CDEBA5" height="37.6094" rx="2.5" ry="2.5" style="stroke:#181818;stroke-width:0.5;" width="230.8887" x="1253.5" y="158"/><text fill="#000000" font-family="sans-serif" font-size="14" lengthAdjust="spacing" textLength="210.8887" x="1263.5" y="182.5332">:Collaboration AbrirInvestigadores</text></g><!--entity AbrirProyectos--><g class="entity" data-qualified-name="AbrirProyectos" data-source-line="14" id="ent0010"><rect fill="#CDEBA5" height="37.6094" rx="2.5" ry="2.5" style="stroke:#181818;stroke-width:0.5;" width="202.082" x="1520" y="158"/><text fill="#000000" font-family="sans-serif" font-size="14" lengthAdjust="spacing" textLength="182.082" x="1530" y="182.5332">:Collaboration AbrirProyectos</text></g><!--link EstadoEntrada to DetalleInvestigadorView--><g class="link" data-entity-1="ent0001" data-entity-2="ent0003" data-link-type="dependency" data-source-line="16" id="lnk11"><path d="M231.18,61 C327.25,61 458.53,61 545.86,61" fill="none" id="EstadoEntrada-to-DetalleInvestigadorView" style="stroke:#181818;stroke-width:1;"/><polygon fill="#181818" points="550.86,61,541.86,57,545.86,61,541.86,65,550.86,61" style="stroke:#181818;stroke-width:1;stroke-linejoin:miter;stroke-miterlimit:10;"/><text fill="#000000" font-family="sans-serif" font-size="13" lengthAdjust="spacing" textLength="105.4854" x="338.5" y="54.4951">abrirInvestigador()</text></g><!--link DetalleInvestigadorView to InvestigadorController--><g class="link" data-entity-1="ent0003" data-entity-2="ent0004" data-link-type="dependency" data-source-line="18" id="lnk12"><path d="M550.83,73.99 C449.83,88.21 295,110 295,110 C295,110 295,128 295,128 C295,128 321.9473,142.0568 348.0473,155.6768" fill="none" id="DetalleInvestigadorView-to-InvestigadorController" style="stroke:#181818;stroke-width:1;"/><polygon fill="#181818" points="352.48,157.99,346.3516,150.2801,348.0473,155.6768,342.6505,157.3725,352.48,157.99" style="stroke:#181818;stroke-width:1;stroke-linejoin:miter;stroke-miterlimit:10;"/><text fill="#000000" font-family="sans-serif" font-size="13" lengthAdjust="spacing" textLength="133.688" x="296" y="124.4951">obtenerInvestigador(id)</text></g><!--link DetalleInvestigadorView to InvestigadorController--><g class="link" data-entity-1="ent0003" data-entity-2="ent0004" data-link-type="dependency" data-source-line="19" id="lnk13"><path d="M574.84,80.01 C528.59,93.63 473,110 473,110 C473,110 439.9257,135.3748 414.4657,154.9248" fill="none" id="DetalleInvestigadorView-to-InvestigadorController-1" style="stroke:#181818;stroke-width:1;"/><polygon fill="#181818" points="410.5,157.97,420.0744,155.6613,414.4657,154.9248,415.2022,149.3161,410.5,157.97" style="stroke:#181818;stroke-width:1;stroke-linejoin:miter;stroke-miterlimit:10;"/><text fill="#000000" font-family="sans-serif" font-size="13" lengthAdjust="spacing" textLength="246.4033" x="474" y="124.4951">prepararAccionesDisponibles(coordinador)</text></g><!--link InvestigadorController to InvestigadorRepository--><g class="link" data-entity-1="ent0004" data-entity-2="ent0005" data-link-type="dependency" data-source-line="20" id="lnk14"><path d="M360.91,196.15 C341.37,209.74 318,226 318,226 C318,226 318,244 318,244 C318,244 341.4647,257.7344 364.6847,271.3244" fill="none" id="InvestigadorController-to-InvestigadorRepository" style="stroke:#181818;stroke-width:1;"/><polygon fill="#181818" points="369,273.85,363.253,265.8517,364.6847,271.3244,359.2121,272.7561,369,273.85" style="stroke:#181818;stroke-width:1;stroke-linejoin:miter;stroke-miterlimit:10;"/><text fill="#000000" font-family="sans-serif" font-size="13" lengthAdjust="spacing" textLength="93.939" x="319" y="240.4951">obtenerPorId(id)</text></g><!--link InvestigadorController to InvestigadorRepository--><g class="link" data-entity-1="ent0004" data-entity-2="ent0005" data-link-type="dependency" data-source-line="21" id="lnk15"><path d="M398.34,196.15 C406.84,209.74 417,226 417,226 C417,226 417,244 417,244 C417,244 412.9083,255.5465 408.0983,269.1365" fill="none" id="InvestigadorController-to-InvestigadorRepository-1" style="stroke:#181818;stroke-width:1;"/><polygon fill="#181818" points="406.43,273.85,413.2037,266.7004,408.0983,269.1365,405.6621,264.0311,406.43,273.85" style="stroke:#181818;stroke-width:1;stroke-linejoin:miter;stroke-miterlimit:10;"/><text fill="#000000" font-family="sans-serif" font-size="13" lengthAdjust="spacing" textLength="137.2427" x="418" y="240.4951">verificarPermisos(actor)</text></g><!--link InvestigadorRepository to Investigador--><g class="link" data-entity-1="ent0005" data-entity-2="ent0006" data-link-type="association" data-source-line="22" id="lnk16"><path d="M400,312.24 C400,329.59 400,355.52 400,372.84" fill="none" id="InvestigadorRepository-Investigador" style="stroke:#181818;stroke-width:1;"/></g><!--link DetalleInvestigadorView to EstadoSalida--><g class="link" data-entity-1="ent0003" data-entity-2="ent0007" data-link-type="dependency" data-source-line="23" id="lnk17"><path d="M670.89,80.01 C697.28,93.63 729,110 729,110 C729,110 777.9865,136.0702 814.7065,155.6202" fill="none" id="DetalleInvestigadorView-to-EstadoSalida" style="stroke:#181818;stroke-width:1;stroke-dasharray:7,7;"/><polygon fill="#181818" points="819.12,157.97,813.0556,150.2097,814.7065,155.6202,809.296,157.2712,819.12,157.97" style="stroke:#181818;stroke-width:1;stroke-linejoin:miter;stroke-miterlimit:10;"/><text fill="#000000" font-family="sans-serif" font-size="13" lengthAdjust="spacing" textLength="130.7935" x="763" y="124.4951">continuarNavegacion()</text></g><!--link DetalleInvestigadorView to AbrirOpcionesPerfil--><g class="link" data-entity-1="ent0003" data-entity-2="ent0008" data-link-type="dependency" data-source-line="24" id="lnk18"><path d="M721.26,77.39 C799.07,91.43 902,110 902,110 C902,110 983.8097,136.8597 1043.3297,156.4097" fill="none" id="DetalleInvestigadorView-to-AbrirOpcionesPerfil" style="stroke:#181818;stroke-width:1;stroke-dasharray:7,7;"/><polygon fill="#181818" points="1048.08,157.97,1040.7777,151.3612,1043.3297,156.4097,1038.2812,158.9617,1048.08,157.97" style="stroke:#181818;stroke-width:1;stroke-linejoin:miter;stroke-miterlimit:10;"/><text fill="#000000" font-family="sans-serif" font-size="13" lengthAdjust="spacing" textLength="119.2026" x="956" y="124.4951">abrirOpcionesPerfil()</text></g><!--link DetalleInvestigadorView to AbrirInvestigadores--><g class="link" data-entity-1="ent0003" data-entity-2="ent0009" data-link-type="dependency" data-source-line="25" id="lnk19"><path d="M721.06,71.11 C850.99,85.03 1084,110 1084,110 C1084,110 1201.869,137.2914 1286.249,156.8414" fill="none" id="DetalleInvestigadorView-to-AbrirInvestigadores" style="stroke:#181818;stroke-width:1;stroke-dasharray:7,7;"/><polygon fill="#181818" points="1291.12,157.97,1283.2551,152.0418,1286.249,156.8414,1281.4494,159.8354,1291.12,157.97" style="stroke:#181818;stroke-width:1;stroke-linejoin:miter;stroke-miterlimit:10;"/><text fill="#000000" font-family="sans-serif" font-size="13" lengthAdjust="spacing" textLength="119.2153" x="1161" y="124.4951">abrirInvestigadores()</text></g><!--link DetalleInvestigadorView to AbrirProyectos--><g class="link" data-entity-1="ent0003" data-entity-2="ent0010" data-link-type="dependency" data-source-line="26" id="lnk20"><path d="M721.03,68.25 C897.88,81.25 1289,110 1289,110 C1289,110 1427.076,137.4447 1525.376,156.9947" fill="none" id="DetalleInvestigadorView-to-AbrirProyectos" style="stroke:#181818;stroke-width:1;stroke-dasharray:7,7;"/><polygon fill="#181818" points="1530.28,157.97,1522.2331,152.2913,1525.376,156.9947,1520.6726,160.1376,1530.28,157.97" style="stroke:#181818;stroke-width:1;stroke-linejoin:miter;stroke-miterlimit:10;"/><text fill="#000000" font-family="sans-serif" font-size="13" lengthAdjust="spacing" textLength="92.4663" x="1379" y="124.4951">abrirProyectos()</text></g><?plantuml-src dPD1IyD048Nl-okMUcaFzI0gseCGqwq4f0cjz2gJP2o3SJVChfKY_dStAcrIjnBCAJjvy-tmviK-aww1uKLMfD5jQvIrgRRDGGZ6me5ULoXFugcwZIxaO99cSPBErV8nKujPSlyOtIPgyP0E95Yfh8FIAEqOIX0r5C-mHWav4oTwWzRHsd_dHZhuLHsE1l9TIF-qhhqykrQpQpb51rM5RVcAyErGdL_avUMLRCjYuwSnlfSFnREpA3vN7V42QsF96Txs48kFi479VAMM3ybTD4qN0NUMK94t9zGP-paXDmoEZ9PHOr1Q5_uTRORyHDKN9b3lIskFZtPFwzRxqZ8sMwyqBT2k94Gd2tBCuvjZMvp8G1Q4EAAMuzAZmYkUI9CxrDXbKJaw3lk3LJCsVmP7nRVNKxArqPHNQ8U5CLoIRbf68WpunTwdQpTdPZWflmRy1sE3J4zK0FiGl90rTWZU-eDvzWsUrStlCKzEJsywMPt8mWz4-XLu3XjSGsF7SFHdVo2aFslk5ljWkkaCfCNlemTcbyqVmkxicpy1?></g></svg>