<svg xmlns="http://www.w3.org/2000/svg" xmlns:xlink="http://www.w3.org/1999/xlink" contentStyleType="text/css" data-diagram-type="DESCRIPTION" height="719px" preserveAspectRatio="none" style="width:2238px;height:719px;background:#FFFFFF;" version="1.1" viewBox="0 0 2238 719" width="2238px" zoomAndPan="magnify"><?plantuml 1.2026.6?><defs/><g><!--cluster abrirInvestigador--><g class="cluster" data-qualified-name="abrirInvestigador" data-source-line="6" id="ent0004"><path d="M512.5,147.5 L732.8721,147.5 A3.75,3.75 0 0 1 735.3721,150 L742.3721,171.1094 L1236.5,171.1094 A2.5,2.5 0 0 1 1239,173.6094 L1239,702 A2.5,2.5 0 0 1 1236.5,704.5 L512.5,704.5 A2.5,2.5 0 0 1 510,702 L510,150 A2.5,2.5 0 0 1 512.5,147.5" fill="none" style="stroke:#000000;stroke-width:1.5;"/><line style="stroke:#000000;stroke-width:1.5;" x1="510" x2="742.3721" y1="171.1094" y2="171.1094"/><text fill="#000000" font-family="sans-serif" font-size="14" font-weight="700" lengthAdjust="spacing" textLength="219.3721" x="514" y="164.0332">abrirInvestigador(idInvestigador)</text></g><!--entity DetalleInvestigadorView--><g class="entity" data-qualified-name="abrirInvestigador.DetalleInvestigadorView" data-source-line="7" id="ent0005"><rect fill="#629EF9" height="37.6094" rx="2.5" ry="2.5" style="stroke:#181818;stroke-width:0.5;" width="170.1924" x="804" y="203.5"/><text fill="#000000" font-family="sans-serif" font-size="14" lengthAdjust="spacing" textLength="150.1924" x="814" y="228.0332">DetalleInvestigadorView</text></g><!--entity InvestigadorController--><g class="entity" data-qualified-name="abrirInvestigador.InvestigadorController" data-source-line="8" id="ent0006"><rect fill="#B5BD68" height="37.6094" rx="2.5" ry="2.5" style="stroke:#181818;stroke-width:0.5;" width="156.958" x="634.5" y="319.5"/><text fill="#000000" font-family="sans-serif" font-size="14" lengthAdjust="spacing" textLength="136.958" x="644.5" y="344.0332">InvestigadorController</text></g><!--entity InvestigadorService--><g class="entity" data-qualified-name="abrirInvestigador.InvestigadorService" data-source-line="9" id="ent0007"><rect fill="#B5BD68" height="37.6094" rx="2.5" ry="2.5" style="stroke:#181818;stroke-width:0.5;" width="142.9512" x="583.5" y="435.5"/><text fill="#000000" font-family="sans-serif" font-size="14" lengthAdjust="spacing" textLength="122.9512" x="593.5" y="460.0332">InvestigadorService</text></g><!--entity SesionService--><g class="entity" data-qualified-name="abrirInvestigador.SesionService" data-source-line="10" id="ent0008"><rect fill="#B5BD68" height="37.6094" rx="2.5" ry="2.5" style="stroke:#181818;stroke-width:0.5;" width="109.4893" x="824.5" y="435.5"/><text fill="#000000" font-family="sans-serif" font-size="14" lengthAdjust="spacing" textLength="89.4893" x="834.5" y="460.0332">SesionService</text></g><!--entity InvestigadorRepository--><g class="entity" data-qualified-name="abrirInvestigador.InvestigadorRepository" data-source-line="11" id="ent0009"><rect fill="#F2AC4E" height="37.6094" rx="2.5" ry="2.5" style="stroke:#181818;stroke-width:0.5;" width="163.1855" x="526.5" y="551.5"/><text fill="#000000" font-family="sans-serif" font-size="14" lengthAdjust="spacing" textLength="143.1855" x="536.5" y="576.0332">InvestigadorRepository</text></g><!--entity ProyectoRepository--><g class="entity" data-qualified-name="abrirInvestigador.ProyectoRepository" data-source-line="12" id="ent0010"><rect fill="#F2AC4E" height="37.6094" rx="2.5" ry="2.5" style="stroke:#181818;stroke-width:0.5;" width="142.165" x="828" y="551.5"/><text fill="#000000" font-family="sans-serif" font-size="14" lengthAdjust="spacing" textLength="122.165" x="838" y="576.0332">ProyectoRepository</text></g><!--entity Investigador--><g class="entity" data-qualified-name="abrirInvestigador.Investigador" data-source-line="13" id="ent0011"><rect fill="#F2AC4E" height="37.6094" rx="2.5" ry="2.5" style="stroke:#181818;stroke-width:0.5;" width="96.2686" x="560" y="650.5"/><text fill="#000000" font-family="sans-serif" font-size="14" lengthAdjust="spacing" textLength="76.2686" x="570" y="675.0332">Investigador</text></g><!--entity Proyecto--><g class="entity" data-qualified-name="abrirInvestigador.Proyecto" data-source-line="14" id="ent0012"><rect fill="#F2AC4E" height="37.6094" rx="2.5" ry="2.5" style="stroke:#181818;stroke-width:0.5;" width="75.248" x="861.5" y="650.5"/><text fill="#000000" font-family="sans-serif" font-size="14" lengthAdjust="spacing" textLength="55.248" x="871.5" y="675.0332">Proyecto</text></g><!--entity Coordinador--><g class="entity" data-qualified-name="Coordinador" data-source-line="3" id="ent0001"><ellipse cx="249.0239" cy="14" fill="#F1F1F1" rx="8" ry="8" style="stroke:#181818;stroke-width:0.5;"/><path d="M249.0239,22 L249.0239,49 M236.0239,30 L262.0239,30 M249.0239,49 L236.0239,64 M249.0239,49 L262.0239,64" fill="none" style="stroke:#181818;stroke-width:0.5;"/><text fill="#000000" font-family="sans-serif" font-size="14" lengthAdjust="spacing" textLength="77.0479" x="210.5" y="80.0332">Coordinador</text></g><!--entity PerfilAbierto--><g class="entity" data-qualified-name="PerfilAbierto" data-source-line="4" id="ent0002"><rect fill="#CDEBA5" height="37.6094" rx="2.5" ry="2.5" style="stroke:#181818;stroke-width:0.5;" width="223.834" x="7" y="203.5"/><text fill="#000000" font-family="sans-serif" font-size="14" lengthAdjust="spacing" textLength="203.834" x="17" y="228.0332">:OPCIONES_PERFIL_ABIERTO</text></g><!--entity InvestigadoresAbiertos--><g class="entity" data-qualified-name="InvestigadoresAbiertos" data-source-line="5" id="ent0003"><rect fill="#CDEBA5" height="37.6094" rx="2.5" ry="2.5" style="stroke:#181818;stroke-width:0.5;" width="226.9375" x="266.5" y="203.5"/><text fill="#000000" font-family="sans-serif" font-size="14" lengthAdjust="spacing" textLength="206.9375" x="276.5" y="228.0332">:INVESTIGADORES_ABIERTOS</text></g><!--entity InvestigadorAbierto--><g class="entity" data-qualified-name="InvestigadorAbierto" data-source-line="16" id="ent0013"><rect fill="#CDEBA5" height="37.6094" rx="2.5" ry="2.5" style="stroke:#181818;stroke-width:0.5;" width="198.9238" x="1255.5" y="319.5"/><text fill="#000000" font-family="sans-serif" font-size="14" lengthAdjust="spacing" textLength="178.9238" x="1265.5" y="344.0332">:INVESTIGADOR_ABIERTO</text></g><!--entity AbrirPerfil--><g class="entity" data-qualified-name="AbrirPerfil" data-source-line="17" id="ent0014"><rect fill="#CDEBA5" height="37.6094" rx="2.5" ry="2.5" style="stroke:#181818;stroke-width:0.5;" width="230.875" x="1489.5" y="319.5"/><text fill="#000000" font-family="sans-serif" font-size="14" lengthAdjust="spacing" textLength="210.875" x="1499.5" y="344.0332">:Collaboration AbrirOpcionesPerfil</text></g><!--entity AbrirInvestigadores--><g class="entity" data-qualified-name="AbrirInvestigadores" data-source-line="18" id="ent0015"><rect fill="#CDEBA5" height="37.6094" rx="2.5" ry="2.5" style="stroke:#181818;stroke-width:0.5;" width="230.8887" x="1755.5" y="319.5"/><text fill="#000000" font-family="sans-serif" font-size="14" lengthAdjust="spacing" textLength="210.8887" x="1765.5" y="344.0332">:Collaboration AbrirInvestigadores</text></g><!--entity AbrirProyectos--><g class="entity" data-qualified-name="AbrirProyectos" data-source-line="19" id="ent0016"><rect fill="#CDEBA5" height="37.6094" rx="2.5" ry="2.5" style="stroke:#181818;stroke-width:0.5;" width="202.082" x="2022" y="319.5"/><text fill="#000000" font-family="sans-serif" font-size="14" lengthAdjust="spacing" textLength="182.082" x="2032" y="344.0332">:Collaboration AbrirProyectos</text></g><!--link Coordinador to PerfilAbierto--><g class="link" data-entity-1="ent0001" data-entity-2="ent0002" data-link-type="association" data-source-line="21" id="lnk17"><path d="M220.79,83.69 C193.46,120.69 153.19,175.21 132.44,203.3" fill="none" id="Coordinador-PerfilAbierto" style="stroke:#181818;stroke-width:1;"/></g><!--link Coordinador to InvestigadoresAbiertos--><g class="link" data-entity-1="ent0001" data-entity-2="ent0003" data-link-type="association" data-source-line="22" id="lnk18"><path d="M277.43,83.69 C304.97,120.69 345.55,175.21 366.45,203.3" fill="none" id="Coordinador-InvestigadoresAbiertos" style="stroke:#181818;stroke-width:1;"/></g><!--link PerfilAbierto to DetalleInvestigadorView--><g class="link" data-entity-1="ent0002" data-entity-2="ent0005" data-link-type="dependency" data-source-line="23" id="lnk19"><path d="M149.15,203.48 C187.55,179.26 249,140.5 249,140.5 C249,140.5 511,140.5 511,140.5 C511,140.5 687.3237,178.7498 798.8137,202.9398" fill="none" id="PerfilAbierto-to-DetalleInvestigadorView" style="stroke:#181818;stroke-width:1;"/><polygon fill="#181818" points="803.7,204,795.7528,198.1826,798.8137,202.9398,794.0565,206.0007,803.7,204" style="stroke:#181818;stroke-width:1;stroke-linejoin:miter;stroke-miterlimit:10;"/><text fill="#000000" font-family="sans-serif" font-size="13" lengthAdjust="spacing" textLength="187.1479" x="423.5" y="127.9951">abrirInvestigador(idCoordinador)</text></g><!--link InvestigadoresAbiertos to DetalleInvestigadorView--><g class="link" data-entity-1="ent0003" data-entity-2="ent0005" data-link-type="dependency" data-source-line="24" id="lnk20"><path d="M493.6,222.5 C587.5,222.5 713.78,222.5 798.84,222.5" fill="none" id="InvestigadoresAbiertos-to-DetalleInvestigadorView" style="stroke:#181818;stroke-width:1;"/><polygon fill="#181818" points="803.84,222.5,794.84,218.5,798.84,222.5,794.84,226.5,803.84,222.5" style="stroke:#181818;stroke-width:1;stroke-linejoin:miter;stroke-miterlimit:10;"/><text fill="#000000" font-family="sans-serif" font-size="13" lengthAdjust="spacing" textLength="186.4243" x="555.75" y="215.9951">abrirInvestigador(idInvestigador)</text></g><!--link DetalleInvestigadorView to InvestigadorController--><g class="link" data-entity-1="ent0005" data-entity-2="ent0006" data-link-type="dependency" data-source-line="25" id="lnk21"><path d="M803.76,235.86 C705.69,250.08 558,271.5 558,271.5 C558,271.5 558,289.5 558,289.5 C558,289.5 606.0838,304.3909 650.0638,318.0109" fill="none" id="DetalleInvestigadorView-to-InvestigadorController" style="stroke:#181818;stroke-width:1;"/><polygon fill="#181818" points="654.84,319.49,647.4261,313.0066,650.0638,318.0109,645.0595,320.6485,654.84,319.49" style="stroke:#181818;stroke-width:1;stroke-linejoin:miter;stroke-miterlimit:10;"/><text fill="#000000" font-family="sans-serif" font-size="13" lengthAdjust="spacing" textLength="286.165" x="559" y="285.9951">obtenerInvestigador(idInvestigador) : Investigador</text></g><!--link DetalleInvestigadorView to InvestigadorController--><g class="link" data-entity-1="ent0005" data-entity-2="ent0006" data-link-type="dependency" data-source-line="29" id="lnk25"><path d="M878.34,241.53 C866.8,261.08 850,289.5 850,289.5 C850,289.5 807.9988,304.217 769.1188,317.837" fill="none" id="DetalleInvestigadorView-to-InvestigadorController-1" style="stroke:#181818;stroke-width:1;"/><polygon fill="#181818" points="764.4,319.49,774.2163,320.2896,769.1188,317.837,771.5715,312.7394,764.4,319.49" style="stroke:#181818;stroke-width:1;stroke-linejoin:miter;stroke-miterlimit:10;"/><text fill="#000000" font-family="sans-serif" font-size="13" lengthAdjust="spacing" textLength="332.376" x="861" y="285.9951">listarProyectosAsociados(idInvestigador) : List&lt;Proyecto&gt;</text></g><!--link InvestigadorController to InvestigadorService--><g class="link" data-entity-1="ent0006" data-entity-2="ent0007" data-link-type="dependency" data-source-line="26" id="lnk22"><path d="M689.94,357.65 C672.66,371.24 652,387.5 652,387.5 C652,387.5 652,405.5 652,405.5 C652,405.5 652.7079,416.7698 653.5579,430.3598" fill="none" id="InvestigadorController-to-InvestigadorService" style="stroke:#181818;stroke-width:1;"/><polygon fill="#181818" points="653.87,435.35,657.3004,426.1179,653.5579,430.3598,649.316,426.6172,653.87,435.35" style="stroke:#181818;stroke-width:1;stroke-linejoin:miter;stroke-miterlimit:10;"/><text fill="#000000" font-family="sans-serif" font-size="13" lengthAdjust="spacing" textLength="182.8252" x="653" y="401.9951">obtener(sesion, id, proyectoId?)</text></g><!--link InvestigadorController to SesionService--><g class="link" data-entity-1="ent0006" data-entity-2="ent0008" data-link-type="dependency" data-source-line="27" id="lnk23"><path d="M760.65,357.51 C796.69,371.13 840,387.5 840,387.5 C840,387.5 854.2584,411.6142 865.7984,431.1642" fill="none" id="InvestigadorController-to-SesionService" style="stroke:#181818;stroke-width:1;"/><polygon fill="#181818" points="868.34,435.47,867.2097,425.6862,865.7984,431.1642,860.3204,429.7528,868.34,435.47" style="stroke:#181818;stroke-width:1;stroke-linejoin:miter;stroke-miterlimit:10;"/><text fill="#000000" font-family="sans-serif" font-size="13" lengthAdjust="spacing" textLength="209.5806" x="851" y="401.9951">obtenerSesionActual(authentication)</text></g><!--link InvestigadorService to InvestigadorRepository--><g class="link" data-entity-1="ent0007" data-entity-2="ent0009" data-link-type="dependency" data-source-line="28" id="lnk24"><path d="M624,473.65 C600.78,487.24 573,503.5 573,503.5 C573,503.5 573,521.5 573,521.5 C573,521.5 581.914,533.7201 591.824,547.3101" fill="none" id="InvestigadorService-to-InvestigadorRepository" style="stroke:#181818;stroke-width:1;"/><polygon fill="#181818" points="594.77,551.35,592.6992,541.7213,591.824,547.3101,586.2353,546.4349,594.77,551.35" style="stroke:#181818;stroke-width:1;stroke-linejoin:miter;stroke-miterlimit:10;"/><text fill="#000000" font-family="sans-serif" font-size="13" lengthAdjust="spacing" textLength="281.8169" x="574" y="517.9951">obtenerActivoPorId(idInvestigador) : Investigador</text></g><!--link InvestigadorService to ProyectoRepository--><g class="link" data-entity-1="ent0007" data-entity-2="ent0010" data-link-type="dependency" data-source-line="30" id="lnk26"><path d="M726.7,472.29 C785.82,486.13 860,503.5 860,503.5 C860,503.5 874.2584,527.6142 885.7984,547.1642" fill="none" id="InvestigadorService-to-ProyectoRepository" style="stroke:#181818;stroke-width:1;"/><polygon fill="#181818" points="888.34,551.47,887.2097,541.6862,885.7984,547.1642,880.3204,545.7528,888.34,551.47" style="stroke:#181818;stroke-width:1;stroke-linejoin:miter;stroke-miterlimit:10;"/><text fill="#000000" font-family="sans-serif" font-size="13" lengthAdjust="spacing" textLength="322.2896" x="871" y="517.9951">obtenerPorInvestigador(idInvestigador) : List&lt;Proyecto&gt;</text></g><!--link InvestigadorRepository to Investigador--><g class="link" data-entity-1="ent0009" data-entity-2="ent0011" data-link-type="association" data-source-line="31" id="lnk27"><path d="M608,589.74 C608,607.09 608,633.02 608,650.34" fill="none" id="InvestigadorRepository-Investigador" style="stroke:#181818;stroke-width:1;"/></g><!--link ProyectoRepository to Proyecto--><g class="link" data-entity-1="ent0010" data-entity-2="ent0012" data-link-type="association" data-source-line="32" id="lnk28"><path d="M899,589.74 C899,607.09 899,633.02 899,650.34" fill="none" id="ProyectoRepository-Proyecto" style="stroke:#181818;stroke-width:1;"/></g><!--link DetalleInvestigadorView to InvestigadorAbierto--><g class="link" data-entity-1="ent0005" data-entity-2="ent0013" data-link-type="dependency" data-source-line="33" id="lnk29"><path d="M974.12,236.55 C1066.8,250.77 1202,271.5 1202,271.5 C1202,271.5 1263.2993,297.9388 1308.5993,317.4888" fill="none" id="DetalleInvestigadorView-to-InvestigadorAbierto" style="stroke:#181818;stroke-width:1;stroke-dasharray:7,7;"/><polygon fill="#181818" points="1313.19,319.47,1306.5117,312.2312,1308.5993,317.4888,1303.3417,319.5764,1313.19,319.47" style="stroke:#181818;stroke-width:1;stroke-linejoin:miter;stroke-miterlimit:10;"/><text fill="#000000" font-family="sans-serif" font-size="13" lengthAdjust="spacing" textLength="145.2471" x="1244" y="285.9951">investigadorPresentado()</text></g><!--link DetalleInvestigadorView to AbrirPerfil--><g class="link" data-entity-1="ent0005" data-entity-2="ent0014" data-link-type="dependency" data-source-line="34" id="lnk30"><path d="M974.2,231.53 C1119.1,245.2 1398,271.5 1398,271.5 C1398,271.5 1482.3865,298.4005 1543.6765,317.9505" fill="none" id="DetalleInvestigadorView-to-AbrirPerfil" style="stroke:#181818;stroke-width:1;stroke-dasharray:7,7;"/><polygon fill="#181818" points="1548.44,319.47,1541.0812,312.9242,1543.6765,317.9505,1538.6501,320.5458,1548.44,319.47" style="stroke:#181818;stroke-width:1;stroke-linejoin:miter;stroke-miterlimit:10;"/><text fill="#000000" font-family="sans-serif" font-size="13" lengthAdjust="spacing" textLength="119.2026" x="1454" y="285.9951">abrirOpcionesPerfil()</text></g><!--link DetalleInvestigadorView to AbrirInvestigadores--><g class="link" data-entity-1="ent0005" data-entity-2="ent0015" data-link-type="dependency" data-source-line="35" id="lnk31"><path d="M974.32,229.41 C1159.55,242.24 1582,271.5 1582,271.5 C1582,271.5 1701.5856,298.8064 1787.1556,318.3564" fill="none" id="DetalleInvestigadorView-to-AbrirInvestigadores" style="stroke:#181818;stroke-width:1;stroke-dasharray:7,7;"/><polygon fill="#181818" points="1792.03,319.47,1784.147,313.5659,1787.1556,318.3564,1782.3652,321.365,1792.03,319.47" style="stroke:#181818;stroke-width:1;stroke-linejoin:miter;stroke-miterlimit:10;"/><text fill="#000000" font-family="sans-serif" font-size="13" lengthAdjust="spacing" textLength="119.2153" x="1660" y="285.9951">abrirInvestigadores()</text></g><!--link DetalleInvestigadorView to AbrirProyectos--><g class="link" data-entity-1="ent0005" data-entity-2="ent0016" data-link-type="dependency" data-source-line="36" id="lnk32"><path d="M974.39,228.06 C1198.79,240.04 1788,271.5 1788,271.5 C1788,271.5 1927.3644,298.9531 2026.5544,318.5031" fill="none" id="DetalleInvestigadorView-to-AbrirProyectos" style="stroke:#181818;stroke-width:1;stroke-dasharray:7,7;"/><polygon fill="#181818" points="2031.46,319.47,2023.4034,313.8051,2026.5544,318.5031,2021.8564,321.6541,2031.46,319.47" style="stroke:#181818;stroke-width:1;stroke-linejoin:miter;stroke-miterlimit:10;"/><text fill="#000000" font-family="sans-serif" font-size="13" lengthAdjust="spacing" textLength="92.4663" x="1878" y="285.9951">abrirProyectos()</text></g><?plantuml-src dPHHRvim4CVV_IbEwGj8fG_LMgtHb8eICY5L3GfLNoi3jymgmyXsCqNJlliSGeYT047B4xxS_Sw-k__93rPMLD1VKB0IrRP2g7YntHq8ePdY0WBEHSvAcdD116QAbki2uIgOXq_-7KocopY8bYzXyXw7gqNq_Eu_HU7gTJa1AY56yOCLVifGADuP7RsyXSbhzDsVBrUQqGGdTNHKRb0gjjwbHjbG9Abeza7N23GLJ9W-kvZ9cTLXkNbq9_27WFuPjxc_VGWN3p17HOi2JUytXhzFlTExDB__QjqkuAKINCUA4Su9YWtBiCSpGSbusUEpkFM3Bw55Ms759TEDslOunu9ljP5VT3If5rZaxyLcMdDWeeUc8T0rf2aNLEaQWBzhvRBAz3VA_IZLjDg-Fu-bsADqfDZsiRH36GnGQoB440nutea6Jlxi6N4h1ZpXpVg6SmfT0szaSKbtZl-WMZ8YFQ7WvPhRBOufy5HXYODWcDgJs8tInPjrgQfDuSXQIDV0yckeckv4-QCx1BJ4rwBsLZzJdxHmwAVwYQLYMJqFDgq9FBlRKNejKzFOXiTSHFcb0lGMUg3E1PEA7eVIbpnZsaTsv7hMhjyEdhFUzvolaVOjkrSCDtGWnv5tgWTodhBMqs47zTNbvcRMjN2cm0nZhAMWswW_7NUGP2oRHXNsHXeJRYkmGrmeHztYqCw6q9uTzny0?></g></svg>