<svg xmlns="http://www.w3.org/2000/svg" xmlns:xlink="http://www.w3.org/1999/xlink" contentStyleType="text/css" data-diagram-type="DESCRIPTION" height="603px" preserveAspectRatio="none" style="width:2238px;height:603px;background:#FFFFFF;" version="1.1" viewBox="0 0 2238 603" width="2238px" zoomAndPan="magnify"><?plantuml 1.2026.5?><defs/><g><!--cluster abrirInvestigador--><g class="cluster" data-qualified-name="abrirInvestigador" data-source-line="6" id="ent0004"><path d="M512.5,147.5 L732.8721,147.5 A3.75,3.75 0 0 1 735.3721,150 L742.3721,171.1094 L1236.5,171.1094 A2.5,2.5 0 0 1 1239,173.6094 L1239,586 A2.5,2.5 0 0 1 1236.5,588.5 L512.5,588.5 A2.5,2.5 0 0 1 510,586 L510,150 A2.5,2.5 0 0 1 512.5,147.5" fill="none" style="stroke:#000000;stroke-width:1.5;"/><line style="stroke:#000000;stroke-width:1.5;" x1="510" x2="742.3721" y1="171.1094" y2="171.1094"/><text fill="#000000" font-family="sans-serif" font-size="14" font-weight="700" lengthAdjust="spacing" textLength="219.3721" x="514" y="164.0332">abrirInvestigador(idInvestigador)</text></g><!--entity DetalleInvestigadorView--><g class="entity" data-qualified-name="abrirInvestigador.DetalleInvestigadorView" data-source-line="7" id="ent0005"><rect fill="#629EF9" height="37.6094" rx="2.5" ry="2.5" style="stroke:#181818;stroke-width:0.5;" width="170.1924" x="804" y="203.5"/><text fill="#000000" font-family="sans-serif" font-size="14" lengthAdjust="spacing" textLength="150.1924" x="814" y="228.0332">DetalleInvestigadorView</text></g><!--entity InvestigadorController--><g class="entity" data-qualified-name="abrirInvestigador.InvestigadorController" data-source-line="8" id="ent0006"><rect fill="#B5BD68" height="37.6094" rx="2.5" ry="2.5" style="stroke:#181818;stroke-width:0.5;" width="156.958" x="668.5" y="319.5"/><text fill="#000000" font-family="sans-serif" font-size="14" lengthAdjust="spacing" textLength="136.958" x="678.5" y="344.0332">InvestigadorController</text></g><!--entity InvestigadorRepository--><g class="entity" data-qualified-name="abrirInvestigador.InvestigadorRepository" data-source-line="9" id="ent0007"><rect fill="#F2AC4E" height="37.6094" rx="2.5" ry="2.5" style="stroke:#181818;stroke-width:0.5;" width="163.1855" x="526.5" y="435.5"/><text fill="#000000" font-family="sans-serif" font-size="14" lengthAdjust="spacing" textLength="143.1855" x="536.5" y="460.0332">InvestigadorRepository</text></g><!--entity ProyectoRepository--><g class="entity" data-qualified-name="abrirInvestigador.ProyectoRepository" data-source-line="10" id="ent0008"><rect fill="#F2AC4E" height="37.6094" rx="2.5" ry="2.5" style="stroke:#181818;stroke-width:0.5;" width="142.165" x="828" y="435.5"/><text fill="#000000" font-family="sans-serif" font-size="14" lengthAdjust="spacing" textLength="122.165" x="838" y="460.0332">ProyectoRepository</text></g><!--entity Investigador--><g class="entity" data-qualified-name="abrirInvestigador.Investigador" data-source-line="11" id="ent0009"><rect fill="#F2AC4E" height="37.6094" rx="2.5" ry="2.5" style="stroke:#181818;stroke-width:0.5;" width="96.2686" x="560" y="534.5"/><text fill="#000000" font-family="sans-serif" font-size="14" lengthAdjust="spacing" textLength="76.2686" x="570" y="559.0332">Investigador</text></g><!--entity Proyecto--><g class="entity" data-qualified-name="abrirInvestigador.Proyecto" data-source-line="12" id="ent0010"><rect fill="#F2AC4E" height="37.6094" rx="2.5" ry="2.5" style="stroke:#181818;stroke-width:0.5;" width="75.248" x="861.5" y="534.5"/><text fill="#000000" font-family="sans-serif" font-size="14" lengthAdjust="spacing" textLength="55.248" x="871.5" y="559.0332">Proyecto</text></g><!--entity Coordinador--><g class="entity" data-qualified-name="Coordinador" data-source-line="3" id="ent0001"><ellipse cx="249.0239" cy="14" fill="#F1F1F1" rx="8" ry="8" style="stroke:#181818;stroke-width:0.5;"/><path d="M249.0239,22 L249.0239,49 M236.0239,30 L262.0239,30 M249.0239,49 L236.0239,64 M249.0239,49 L262.0239,64" fill="none" style="stroke:#181818;stroke-width:0.5;"/><text fill="#000000" font-family="sans-serif" font-size="14" lengthAdjust="spacing" textLength="77.0479" x="210.5" y="80.0332">Coordinador</text></g><!--entity PerfilAbierto--><g class="entity" data-qualified-name="PerfilAbierto" data-source-line="4" id="ent0002"><rect fill="#CDEBA5" height="37.6094" rx="2.5" ry="2.5" style="stroke:#181818;stroke-width:0.5;" width="223.834" x="7" y="203.5"/><text fill="#000000" font-family="sans-serif" font-size="14" lengthAdjust="spacing" textLength="203.834" x="17" y="228.0332">:OPCIONES_PERFIL_ABIERTO</text></g><!--entity InvestigadoresAbiertos--><g class="entity" data-qualified-name="InvestigadoresAbiertos" data-source-line="5" id="ent0003"><rect fill="#CDEBA5" height="37.6094" rx="2.5" ry="2.5" style="stroke:#181818;stroke-width:0.5;" width="226.9375" x="266.5" y="203.5"/><text fill="#000000" font-family="sans-serif" font-size="14" lengthAdjust="spacing" textLength="206.9375" x="276.5" y="228.0332">:INVESTIGADORES_ABIERTOS</text></g><!--entity InvestigadorAbierto--><g class="entity" data-qualified-name="InvestigadorAbierto" data-source-line="14" id="ent0011"><rect fill="#CDEBA5" height="37.6094" rx="2.5" ry="2.5" style="stroke:#181818;stroke-width:0.5;" width="198.9238" x="1255.5" y="319.5"/><text fill="#000000" font-family="sans-serif" font-size="14" lengthAdjust="spacing" textLength="178.9238" x="1265.5" y="344.0332">:INVESTIGADOR_ABIERTO</text></g><!--entity AbrirPerfil--><g class="entity" data-qualified-name="AbrirPerfil" data-source-line="15" id="ent0012"><rect fill="#CDEBA5" height="37.6094" rx="2.5" ry="2.5" style="stroke:#181818;stroke-width:0.5;" width="230.875" x="1489.5" y="319.5"/><text fill="#000000" font-family="sans-serif" font-size="14" lengthAdjust="spacing" textLength="210.875" x="1499.5" y="344.0332">:Collaboration AbrirOpcionesPerfil</text></g><!--entity AbrirInvestigadores--><g class="entity" data-qualified-name="AbrirInvestigadores" data-source-line="16" id="ent0013"><rect fill="#CDEBA5" height="37.6094" rx="2.5" ry="2.5" style="stroke:#181818;stroke-width:0.5;" width="230.8887" x="1755.5" y="319.5"/><text fill="#000000" font-family="sans-serif" font-size="14" lengthAdjust="spacing" textLength="210.8887" x="1765.5" y="344.0332">:Collaboration AbrirInvestigadores</text></g><!--entity AbrirProyectos--><g class="entity" data-qualified-name="AbrirProyectos" data-source-line="17" id="ent0014"><rect fill="#CDEBA5" height="37.6094" rx="2.5" ry="2.5" style="stroke:#181818;stroke-width:0.5;" width="202.082" x="2022" y="319.5"/><text fill="#000000" font-family="sans-serif" font-size="14" lengthAdjust="spacing" textLength="182.082" x="2032" y="344.0332">:Collaboration AbrirProyectos</text></g><!--link Coordinador to PerfilAbierto--><g class="link" data-entity-1="ent0001" data-entity-2="ent0002" data-link-type="association" data-source-line="19" id="lnk15"><path d="M220.79,83.69 C193.46,120.69 153.19,175.21 132.44,203.3" fill="none" id="Coordinador-PerfilAbierto" style="stroke:#181818;stroke-width:1;"/></g><!--link Coordinador to InvestigadoresAbiertos--><g class="link" data-entity-1="ent0001" data-entity-2="ent0003" data-link-type="association" data-source-line="20" id="lnk16"><path d="M277.43,83.69 C304.97,120.69 345.55,175.21 366.45,203.3" fill="none" id="Coordinador-InvestigadoresAbiertos" style="stroke:#181818;stroke-width:1;"/></g><!--link PerfilAbierto to DetalleInvestigadorView--><g class="link" data-entity-1="ent0002" data-entity-2="ent0005" data-link-type="dependency" data-source-line="21" id="lnk17"><path d="M149.15,203.48 C187.55,179.26 249,140.5 249,140.5 C249,140.5 511,140.5 511,140.5 C511,140.5 687.3237,178.7498 798.8137,202.9398" fill="none" id="PerfilAbierto-to-DetalleInvestigadorView" style="stroke:#181818;stroke-width:1;"/><polygon fill="#181818" points="803.7,204,795.7528,198.1826,798.8137,202.9398,794.0565,206.0007,803.7,204" style="stroke:#181818;stroke-width:1;stroke-linejoin:miter;stroke-miterlimit:10;"/><text fill="#000000" font-family="sans-serif" font-size="13" lengthAdjust="spacing" textLength="187.1479" x="423.5" y="127.9951">abrirInvestigador(idCoordinador)</text></g><!--link InvestigadoresAbiertos to DetalleInvestigadorView--><g class="link" data-entity-1="ent0003" data-entity-2="ent0005" data-link-type="dependency" data-source-line="22" id="lnk18"><path d="M493.6,222.5 C587.5,222.5 713.78,222.5 798.84,222.5" fill="none" id="InvestigadoresAbiertos-to-DetalleInvestigadorView" style="stroke:#181818;stroke-width:1;"/><polygon fill="#181818" points="803.84,222.5,794.84,218.5,798.84,222.5,794.84,226.5,803.84,222.5" style="stroke:#181818;stroke-width:1;stroke-linejoin:miter;stroke-miterlimit:10;"/><text fill="#000000" font-family="sans-serif" font-size="13" lengthAdjust="spacing" textLength="186.4243" x="555.75" y="215.9951">abrirInvestigador(idInvestigador)</text></g><!--link DetalleInvestigadorView to InvestigadorController--><g class="link" data-entity-1="ent0005" data-entity-2="ent0006" data-link-type="dependency" data-source-line="23" id="lnk19"><path d="M803.76,235.86 C705.69,250.08 558,271.5 558,271.5 C558,271.5 558,289.5 558,289.5 C558,289.5 617.6138,304.6393 671.2438,318.2593" fill="none" id="DetalleInvestigadorView-to-InvestigadorController" style="stroke:#181818;stroke-width:1;"/><polygon fill="#181818" points="676.09,319.49,668.3515,313.3977,671.2438,318.2593,666.3823,321.1516,676.09,319.49" style="stroke:#181818;stroke-width:1;stroke-linejoin:miter;stroke-miterlimit:10;"/><text fill="#000000" font-family="sans-serif" font-size="13" lengthAdjust="spacing" textLength="286.165" x="559" y="285.9951">obtenerInvestigador(idInvestigador) : Investigador</text></g><!--link DetalleInvestigadorView to InvestigadorController--><g class="link" data-entity-1="ent0005" data-entity-2="ent0006" data-link-type="dependency" data-source-line="25" id="lnk21"><path d="M878.34,241.53 C866.8,261.08 850,289.5 850,289.5 C850,289.5 819.4019,303.7576 790.1819,317.3776" fill="none" id="DetalleInvestigadorView-to-InvestigadorController-1" style="stroke:#181818;stroke-width:1;"/><polygon fill="#181818" points="785.65,319.49,795.4973,319.3132,790.1819,317.3776,792.1174,312.0622,785.65,319.49" style="stroke:#181818;stroke-width:1;stroke-linejoin:miter;stroke-miterlimit:10;"/><text fill="#000000" font-family="sans-serif" font-size="13" lengthAdjust="spacing" textLength="332.376" x="861" y="285.9951">listarProyectosAsociados(idInvestigador) : List&lt;Proyecto&gt;</text></g><!--link InvestigadorController to InvestigadorRepository--><g class="link" data-entity-1="ent0006" data-entity-2="ent0007" data-link-type="dependency" data-source-line="24" id="lnk20"><path d="M681.71,357.51 C632.34,371.13 573,387.5 573,387.5 C573,387.5 573,405.5 573,405.5 C573,405.5 581.914,417.7201 591.824,431.3101" fill="none" id="InvestigadorController-to-InvestigadorRepository" style="stroke:#181818;stroke-width:1;"/><polygon fill="#181818" points="594.77,435.35,592.6992,425.7213,591.824,431.3101,586.2353,430.4349,594.77,435.35" style="stroke:#181818;stroke-width:1;stroke-linejoin:miter;stroke-miterlimit:10;"/><text fill="#000000" font-family="sans-serif" font-size="13" lengthAdjust="spacing" textLength="281.8169" x="574" y="401.9951">obtenerActivoPorId(idInvestigador) : Investigador</text></g><!--link InvestigadorController to ProyectoRepository--><g class="link" data-entity-1="ent0006" data-entity-2="ent0008" data-link-type="dependency" data-source-line="26" id="lnk22"><path d="M789.4,357.51 C821.46,371.13 860,387.5 860,387.5 C860,387.5 874.2584,411.6142 885.7984,431.1642" fill="none" id="InvestigadorController-to-ProyectoRepository" style="stroke:#181818;stroke-width:1;"/><polygon fill="#181818" points="888.34,435.47,887.2097,425.6862,885.7984,431.1642,880.3204,429.7528,888.34,435.47" style="stroke:#181818;stroke-width:1;stroke-linejoin:miter;stroke-miterlimit:10;"/><text fill="#000000" font-family="sans-serif" font-size="13" lengthAdjust="spacing" textLength="322.2896" x="871" y="401.9951">obtenerPorInvestigador(idInvestigador) : List&lt;Proyecto&gt;</text></g><!--link InvestigadorRepository to Investigador--><g class="link" data-entity-1="ent0007" data-entity-2="ent0009" data-link-type="association" data-source-line="27" id="lnk23"><path d="M608,473.74 C608,491.09 608,517.02 608,534.34" fill="none" id="InvestigadorRepository-Investigador" style="stroke:#181818;stroke-width:1;"/></g><!--link ProyectoRepository to Proyecto--><g class="link" data-entity-1="ent0008" data-entity-2="ent0010" data-link-type="association" data-source-line="28" id="lnk24"><path d="M899,473.74 C899,491.09 899,517.02 899,534.34" fill="none" id="ProyectoRepository-Proyecto" style="stroke:#181818;stroke-width:1;"/></g><!--link DetalleInvestigadorView to InvestigadorAbierto--><g class="link" data-entity-1="ent0005" data-entity-2="ent0011" data-link-type="dependency" data-source-line="29" id="lnk25"><path d="M974.12,236.55 C1066.8,250.77 1202,271.5 1202,271.5 C1202,271.5 1263.2993,297.9388 1308.5993,317.4888" fill="none" id="DetalleInvestigadorView-to-InvestigadorAbierto" style="stroke:#181818;stroke-width:1;stroke-dasharray:7,7;"/><polygon fill="#181818" points="1313.19,319.47,1306.5117,312.2312,1308.5993,317.4888,1303.3417,319.5764,1313.19,319.47" style="stroke:#181818;stroke-width:1;stroke-linejoin:miter;stroke-miterlimit:10;"/><text fill="#000000" font-family="sans-serif" font-size="13" lengthAdjust="spacing" textLength="145.2471" x="1244" y="285.9951">investigadorPresentado()</text></g><!--link DetalleInvestigadorView to AbrirPerfil--><g class="link" data-entity-1="ent0005" data-entity-2="ent0012" data-link-type="dependency" data-source-line="30" id="lnk26"><path d="M974.2,231.53 C1119.1,245.2 1398,271.5 1398,271.5 C1398,271.5 1482.3865,298.4005 1543.6765,317.9505" fill="none" id="DetalleInvestigadorView-to-AbrirPerfil" style="stroke:#181818;stroke-width:1;stroke-dasharray:7,7;"/><polygon fill="#181818" points="1548.44,319.47,1541.0812,312.9242,1543.6765,317.9505,1538.6501,320.5458,1548.44,319.47" style="stroke:#181818;stroke-width:1;stroke-linejoin:miter;stroke-miterlimit:10;"/><text fill="#000000" font-family="sans-serif" font-size="13" lengthAdjust="spacing" textLength="119.2026" x="1454" y="285.9951">abrirOpcionesPerfil()</text></g><!--link DetalleInvestigadorView to AbrirInvestigadores--><g class="link" data-entity-1="ent0005" data-entity-2="ent0013" data-link-type="dependency" data-source-line="31" id="lnk27"><path d="M974.32,229.41 C1159.55,242.24 1582,271.5 1582,271.5 C1582,271.5 1701.5856,298.8064 1787.1556,318.3564" fill="none" id="DetalleInvestigadorView-to-AbrirInvestigadores" style="stroke:#181818;stroke-width:1;stroke-dasharray:7,7;"/><polygon fill="#181818" points="1792.03,319.47,1784.147,313.5659,1787.1556,318.3564,1782.3652,321.365,1792.03,319.47" style="stroke:#181818;stroke-width:1;stroke-linejoin:miter;stroke-miterlimit:10;"/><text fill="#000000" font-family="sans-serif" font-size="13" lengthAdjust="spacing" textLength="119.2153" x="1660" y="285.9951">abrirInvestigadores()</text></g><!--link DetalleInvestigadorView to AbrirProyectos--><g class="link" data-entity-1="ent0005" data-entity-2="ent0014" data-link-type="dependency" data-source-line="32" id="lnk28"><path d="M974.39,228.06 C1198.79,240.04 1788,271.5 1788,271.5 C1788,271.5 1927.3644,298.9531 2026.5544,318.5031" fill="none" id="DetalleInvestigadorView-to-AbrirProyectos" style="stroke:#181818;stroke-width:1;stroke-dasharray:7,7;"/><polygon fill="#181818" points="2031.46,319.47,2023.4034,313.8051,2026.5544,318.5031,2021.8564,321.6541,2031.46,319.47" style="stroke:#181818;stroke-width:1;stroke-linejoin:miter;stroke-miterlimit:10;"/><text fill="#000000" font-family="sans-serif" font-size="13" lengthAdjust="spacing" textLength="92.4663" x="1878" y="285.9951">abrirProyectos()</text></g><?plantuml-src dLDDQ-Cm4BthLmpPIt9m3sLRjcO9k8wp64fjaj9haUtP8EhL64bq2Sl-zvNJV4YExOJrIHg_UKypyqQ_2zbmnNz1BIIQROFGKBrjBupnqf22c4XLGlAA55DO6YutDSANU94yHdSm2RCyJhFdPFsM9wjb-lGMFQR9wYMR0DUGe_efwgWGg0prPgVFhydw9VqHBRALvTWdhtVPgVn0RSIcbKQzPz6iuUKxto3mGWdbOjgSoLbqAYhtEfl07mRsSrvpV_kGB1zWWORNDRheLu6_k-ZYhgZkltclYqaQHJPNTS7BsoZ-cdZW5JQaXMtjTW2SAzhQ85q4kgmNkDZVY-tt9kTIZyqljbNpWXGtWYH4RVEpfhHdr9_3tx7juf_tQrdyuPzO_FYrR8SsE4J746EEnI48Egxj_1mmfPS3WGhcGtOAeS-YZigCzMly1wjdV3QG2a5bUVlj708L1YME4aFeEx6VoZPlFh07HvMeDEA3Sb9fTKbai9YHMcgX3JyDFj9K2elHFLfF5lhzW9oFbNI-hSTosaB6-pOYS-BhsewTI-viUrZreTRStCpxzZe4uGHpwpYKnXwdir4cPwVtvlCN_vfqt-Wz7aPzrIiE4zqp7E_JsJy0?></g></svg>