<svg xmlns="http://www.w3.org/2000/svg" xmlns:xlink="http://www.w3.org/1999/xlink" contentStyleType="text/css" height="824px" preserveAspectRatio="none" style="width:1930px;height:824px;background:#FFFFFF;" version="1.1" viewBox="0 0 1930 824" width="1930px" zoomAndPan="magnify"><title>Diagrama de secuencia - abrirPublicacion</title><defs/><g><text fill="#000000" font-family="sans-serif" font-size="14" font-weight="bold" lengthAdjust="spacing" textLength="277.7715" x="827.8806" y="29.5332">Diagrama de secuencia - abrirPublicacion</text><line style="stroke:#181818;stroke-width:0.5;stroke-dasharray:5.0,5.0;" x1="46" x2="46" y1="121.2188" y2="742.6016"/><line style="stroke:#181818;stroke-width:0.5;stroke-dasharray:5.0,5.0;" x1="276.6118" x2="276.6118" y1="121.2188" y2="742.6016"/><line style="stroke:#181818;stroke-width:0.5;stroke-dasharray:5.0,5.0;" x1="509.1074" x2="509.1074" y1="121.2188" y2="742.6016"/><line style="stroke:#181818;stroke-width:0.5;stroke-dasharray:5.0,5.0;" x1="742.0879" x2="742.0879" y1="121.2188" y2="742.6016"/><line style="stroke:#181818;stroke-width:0.5;stroke-dasharray:5.0,5.0;" x1="870.5771" x2="870.5771" y1="121.2188" y2="742.6016"/><line style="stroke:#181818;stroke-width:0.5;stroke-dasharray:5.0,5.0;" x1="1011.8594" x2="1011.8594" y1="121.2188" y2="742.6016"/><line style="stroke:#181818;stroke-width:0.5;stroke-dasharray:5.0,5.0;" x1="1163.5898" x2="1163.5898" y1="121.2188" y2="742.6016"/><line style="stroke:#181818;stroke-width:0.5;stroke-dasharray:5.0,5.0;" x1="1359.1064" x2="1359.1064" y1="121.2188" y2="742.6016"/><line style="stroke:#181818;stroke-width:0.5;stroke-dasharray:5.0,5.0;" x1="1578.5537" x2="1578.5537" y1="121.2188" y2="742.6016"/><line style="stroke:#181818;stroke-width:0.5;stroke-dasharray:5.0,5.0;" x1="1879.6987" x2="1879.6987" y1="121.2188" y2="742.6016"/><text fill="#000000" font-family="sans-serif" font-size="14" lengthAdjust="spacing" textLength="76.2686" x="5" y="118.1426">Investigador</text><ellipse cx="46.1343" cy="52.1094" fill="#E2E2F0" rx="8" ry="8" style="stroke:#181818;stroke-width:0.5;"/><path d="M46.1343,60.1094 L46.1343,87.1094 M33.1343,68.1094 L59.1343,68.1094 M46.1343,87.1094 L33.1343,102.1094 M46.1343,87.1094 L59.1343,102.1094 " fill="none" style="stroke:#181818;stroke-width:0.5;"/><text fill="#000000" font-family="sans-serif" font-size="14" lengthAdjust="spacing" textLength="76.2686" x="5" y="756.1348">Investigador</text><ellipse cx="46.1343" cy="767.7109" fill="#E2E2F0" rx="8" ry="8" style="stroke:#181818;stroke-width:0.5;"/><path d="M46.1343,775.7109 L46.1343,802.7109 M33.1343,783.7109 L59.1343,783.7109 M46.1343,802.7109 L33.1343,817.7109 M46.1343,802.7109 L59.1343,817.7109 " fill="none" style="stroke:#181818;stroke-width:0.5;"/><rect fill="#E2E2F0" height="49.2188" rx="2.5" ry="2.5" style="stroke:#181818;stroke-width:0.5;" width="146.3027" x="203.6118" y="71"/><text fill="#000000" font-family="sans-serif" font-size="14" lengthAdjust="spacing" textLength="132.3027" x="210.6118" y="92.5332">abrirPublicacionPage</text><text fill="#000000" font-family="sans-serif" font-size="14" lengthAdjust="spacing" textLength="45.8965" x="253.8149" y="110.1426">(React)</text><rect fill="#E2E2F0" height="49.2188" rx="2.5" ry="2.5" style="stroke:#181818;stroke-width:0.5;" width="146.3027" x="203.6118" y="741.6016"/><text fill="#000000" font-family="sans-serif" font-size="14" lengthAdjust="spacing" textLength="132.3027" x="210.6118" y="763.1348">abrirPublicacionPage</text><text fill="#000000" font-family="sans-serif" font-size="14" lengthAdjust="spacing" textLength="45.8965" x="253.8149" y="780.7441">(React)</text><rect fill="#E2E2F0" height="49.2188" rx="2.5" ry="2.5" style="stroke:#181818;stroke-width:0.5;" width="146.2891" x="436.1074" y="71"/><text fill="#000000" font-family="sans-serif" font-size="14" lengthAdjust="spacing" textLength="132.2891" x="443.1074" y="92.5332">PublicacionController</text><text fill="#000000" font-family="sans-serif" font-size="14" lengthAdjust="spacing" textLength="82.4824" x="468.0107" y="110.1426">(Spring Boot)</text><rect fill="#E2E2F0" height="49.2188" rx="2.5" ry="2.5" style="stroke:#181818;stroke-width:0.5;" width="146.2891" x="436.1074" y="741.6016"/><text fill="#000000" font-family="sans-serif" font-size="14" lengthAdjust="spacing" textLength="132.2891" x="443.1074" y="763.1348">PublicacionController</text><text fill="#000000" font-family="sans-serif" font-size="14" lengthAdjust="spacing" textLength="82.4824" x="468.0107" y="780.7441">(Spring Boot)</text><rect fill="#E2E2F0" height="31.6094" rx="2.5" ry="2.5" style="stroke:#181818;stroke-width:0.5;" width="103.4893" x="691.0879" y="88.6094"/><text fill="#000000" font-family="sans-serif" font-size="14" lengthAdjust="spacing" textLength="89.4893" x="698.0879" y="110.1426">SesionService</text><rect fill="#E2E2F0" height="31.6094" rx="2.5" ry="2.5" style="stroke:#181818;stroke-width:0.5;" width="103.4893" x="691.0879" y="741.6016"/><text fill="#000000" font-family="sans-serif" font-size="14" lengthAdjust="spacing" textLength="89.4893" x="698.0879" y="763.1348">SesionService</text><rect fill="#E2E2F0" height="31.6094" rx="2.5" ry="2.5" style="stroke:#181818;stroke-width:0.5;" width="132.2822" x="804.5771" y="88.6094"/><text fill="#000000" font-family="sans-serif" font-size="14" lengthAdjust="spacing" textLength="118.2822" x="811.5771" y="110.1426">PublicacionService</text><rect fill="#E2E2F0" height="31.6094" rx="2.5" ry="2.5" style="stroke:#181818;stroke-width:0.5;" width="132.2822" x="804.5771" y="741.6016"/><text fill="#000000" font-family="sans-serif" font-size="14" lengthAdjust="spacing" textLength="118.2822" x="811.5771" y="763.1348">PublicacionService</text><rect fill="#E2E2F0" height="31.6094" rx="2.5" ry="2.5" style="stroke:#181818;stroke-width:0.5;" width="130.7305" x="946.8594" y="88.6094"/><text fill="#000000" font-family="sans-serif" font-size="14" lengthAdjust="spacing" textLength="116.7305" x="953.8594" y="110.1426">PoliticaPublicacion</text><rect fill="#E2E2F0" height="31.6094" rx="2.5" ry="2.5" style="stroke:#181818;stroke-width:0.5;" width="130.7305" x="946.8594" y="741.6016"/><text fill="#000000" font-family="sans-serif" font-size="14" lengthAdjust="spacing" textLength="116.7305" x="953.8594" y="763.1348">PoliticaPublicacion</text><rect fill="#E2E2F0" height="31.6094" rx="2.5" ry="2.5" style="stroke:#181818;stroke-width:0.5;" width="152.5166" x="1087.5898" y="88.6094"/><text fill="#000000" font-family="sans-serif" font-size="14" lengthAdjust="spacing" textLength="138.5166" x="1094.5898" y="110.1426">PublicacionRepository</text><rect fill="#E2E2F0" height="31.6094" rx="2.5" ry="2.5" style="stroke:#181818;stroke-width:0.5;" width="152.5166" x="1087.5898" y="741.6016"/><text fill="#000000" font-family="sans-serif" font-size="14" lengthAdjust="spacing" textLength="138.5166" x="1094.5898" y="763.1348">PublicacionRepository</text><rect fill="#E2E2F0" height="31.6094" rx="2.5" ry="2.5" style="stroke:#181818;stroke-width:0.5;" width="219.4473" x="1250.1064" y="88.6094"/><text fill="#000000" font-family="sans-serif" font-size="14" lengthAdjust="spacing" textLength="205.4473" x="1257.1064" y="110.1426">RespuestaPublicacionRepository</text><rect fill="#E2E2F0" height="31.6094" rx="2.5" ry="2.5" style="stroke:#181818;stroke-width:0.5;" width="219.4473" x="1250.1064" y="741.6016"/><text fill="#000000" font-family="sans-serif" font-size="14" lengthAdjust="spacing" textLength="205.4473" x="1257.1064" y="763.1348">RespuestaPublicacionRepository</text><rect fill="#E2E2F0" height="31.6094" rx="2.5" ry="2.5" style="stroke:#181818;stroke-width:0.5;" width="199.1992" x="1479.5537" y="88.6094"/><text fill="#000000" font-family="sans-serif" font-size="14" lengthAdjust="spacing" textLength="185.1992" x="1486.5537" y="110.1426">ArchivoPublicacionRepository</text><rect fill="#E2E2F0" height="31.6094" rx="2.5" ry="2.5" style="stroke:#181818;stroke-width:0.5;" width="199.1992" x="1479.5537" y="741.6016"/><text fill="#000000" font-family="sans-serif" font-size="14" lengthAdjust="spacing" textLength="185.1992" x="1486.5537" y="763.1348">ArchivoPublicacionRepository</text><text fill="#000000" font-family="sans-serif" font-size="14" lengthAdjust="spacing" textLength="91.834" x="1831.6987" y="118.1426">Base de Datos</text><path d="M1862.6157,67.6094 C1862.6157,57.6094 1880.6157,57.6094 1880.6157,57.6094 C1880.6157,57.6094 1898.6157,57.6094 1898.6157,67.6094 L1898.6157,93.6094 C1898.6157,103.6094 1880.6157,103.6094 1880.6157,103.6094 C1880.6157,103.6094 1862.6157,103.6094 1862.6157,93.6094 L1862.6157,67.6094 " fill="#E2E2F0" style="stroke:#181818;stroke-width:1.5;"/><path d="M1862.6157,67.6094 C1862.6157,77.6094 1880.6157,77.6094 1880.6157,77.6094 C1880.6157,77.6094 1898.6157,77.6094 1898.6157,67.6094 " fill="none" style="stroke:#181818;stroke-width:1.5;"/><text fill="#000000" font-family="sans-serif" font-size="14" lengthAdjust="spacing" textLength="91.834" x="1831.6987" y="756.1348">Base de Datos</text><path d="M1862.6157,769.2109 C1862.6157,759.2109 1880.6157,759.2109 1880.6157,759.2109 C1880.6157,759.2109 1898.6157,759.2109 1898.6157,769.2109 L1898.6157,795.2109 C1898.6157,805.2109 1880.6157,805.2109 1880.6157,805.2109 C1880.6157,805.2109 1862.6157,805.2109 1862.6157,795.2109 L1862.6157,769.2109 " fill="#E2E2F0" style="stroke:#181818;stroke-width:1.5;"/><path d="M1862.6157,769.2109 C1862.6157,779.2109 1880.6157,779.2109 1880.6157,779.2109 C1880.6157,779.2109 1898.6157,779.2109 1898.6157,769.2109 " fill="none" style="stroke:#181818;stroke-width:1.5;"/><polygon fill="#181818" points="264.7632,149.5703,274.7632,153.5703,264.7632,157.5703,268.7632,153.5703" style="stroke:#181818;stroke-width:1;"/><line style="stroke:#181818;stroke-width:1;" x1="46.1343" x2="270.7632" y1="153.5703" y2="153.5703"/><text fill="#000000" font-family="sans-serif" font-size="13" lengthAdjust="spacing" textLength="146.6689" x="53.1343" y="148.7139">Solicita abrirPublicacion()</text><polygon fill="#181818" points="497.252,179.9219,507.252,183.9219,497.252,187.9219,501.252,183.9219" style="stroke:#181818;stroke-width:1;"/><line style="stroke:#181818;stroke-width:1;" x1="276.7632" x2="503.252" y1="183.9219" y2="183.9219"/><text fill="#000000" font-family="sans-serif" font-size="13" lengthAdjust="spacing" textLength="208.4888" x="283.7632" y="179.0654">GET /api/publicaciones/{id} + cookie</text><polygon fill="#181818" points="730.8325,210.2734,740.8325,214.2734,730.8325,218.2734,734.8325,214.2734" style="stroke:#181818;stroke-width:1;"/><line style="stroke:#181818;stroke-width:1;" x1="509.252" x2="736.8325" y1="214.2734" y2="214.2734"/><text fill="#000000" font-family="sans-serif" font-size="13" lengthAdjust="spacing" textLength="209.5806" x="516.252" y="209.417">obtenerSesionActual(authentication)</text><polygon fill="#181818" points="520.252,240.625,510.252,244.625,520.252,248.625,516.252,244.625" style="stroke:#181818;stroke-width:1;"/><line style="stroke:#181818;stroke-width:1;stroke-dasharray:2.0,2.0;" x1="514.252" x2="741.8325" y1="244.625" y2="244.625"/><text fill="#000000" font-family="sans-serif" font-size="13" lengthAdjust="spacing" textLength="101.1753" x="526.252" y="239.7686">Actor autenticado</text><polygon fill="#181818" points="858.7183,270.9766,868.7183,274.9766,858.7183,278.9766,862.7183,274.9766" style="stroke:#181818;stroke-width:1;"/><line style="stroke:#181818;stroke-width:1;" x1="509.252" x2="864.7183" y1="274.9766" y2="274.9766"/><text fill="#000000" font-family="sans-serif" font-size="13" lengthAdjust="spacing" textLength="98.9917" x="516.252" y="270.1201">obtener(id, actor)</text><polygon fill="#181818" points="1151.8481,301.3281,1161.8481,305.3281,1151.8481,309.3281,1155.8481,305.3281" style="stroke:#181818;stroke-width:1;"/><line style="stroke:#181818;stroke-width:1;" x1="870.7183" x2="1157.8481" y1="305.3281" y2="305.3281"/><text fill="#000000" font-family="sans-serif" font-size="13" lengthAdjust="spacing" textLength="138.0171" x="877.7183" y="300.4717">findByIdAndRetirada(id)</text><polygon fill="#181818" points="1868.6157,348.0313,1878.6157,352.0313,1868.6157,356.0313,1872.6157,352.0313" style="stroke:#181818;stroke-width:1;"/><line style="stroke:#181818;stroke-width:1;" x1="1163.8481" x2="1874.6157" y1="352.0313" y2="352.0313"/><text fill="#000000" font-family="sans-serif" font-size="13" lengthAdjust="spacing" textLength="183.5107" x="1170.8481" y="330.8232">SELECT * FROM publicaciones</text><text fill="#000000" font-family="sans-serif" font-size="13" lengthAdjust="spacing" textLength="205.188" x="1170.8481" y="347.1748">WHERE id = ? AND retirada = false</text><polygon fill="#181818" points="1174.8481,378.3828,1164.8481,382.3828,1174.8481,386.3828,1170.8481,382.3828" style="stroke:#181818;stroke-width:1;"/><line style="stroke:#181818;stroke-width:1;stroke-dasharray:2.0,2.0;" x1="1168.8481" x2="1879.6157" y1="382.3828" y2="382.3828"/><text fill="#000000" font-family="sans-serif" font-size="13" lengthAdjust="spacing" textLength="107.6689" x="1180.8481" y="377.5264">Publicacion / vacio</text><path d="M1017,395.3828 L1017,421.3828 L1279,421.3828 L1279,405.3828 L1269,395.3828 L1017,395.3828 " fill="#FEFFDD" style="stroke:#181818;stroke-width:0.5;"/><path d="M1269,395.3828 L1269,405.3828 L1279,405.3828 L1269,395.3828 " fill="#FEFFDD" style="stroke:#181818;stroke-width:0.5;"/><text fill="#000000" font-family="sans-serif" font-size="13" lengthAdjust="spacing" textLength="241.3506" x="1023" y="413.8779">Responsabilidad interna: permitirConsulta</text><polygon fill="#181818" points="1347.8301,445.0859,1357.8301,449.0859,1347.8301,453.0859,1351.8301,449.0859" style="stroke:#181818;stroke-width:1;"/><line style="stroke:#181818;stroke-width:1;" x1="870.7183" x2="1353.8301" y1="449.0859" y2="449.0859"/><text fill="#000000" font-family="sans-serif" font-size="13" lengthAdjust="spacing" textLength="216.7661" x="877.7183" y="444.2295">findByPublicacionIdOrderByFecha(id)</text><polygon fill="#181818" points="1868.6157,491.7891,1878.6157,495.7891,1868.6157,499.7891,1872.6157,495.7891" style="stroke:#181818;stroke-width:1;"/><line style="stroke:#181818;stroke-width:1;" x1="1359.8301" x2="1874.6157" y1="495.7891" y2="495.7891"/><text fill="#000000" font-family="sans-serif" font-size="13" lengthAdjust="spacing" textLength="240.6016" x="1366.8301" y="474.5811">SELECT * FROM respuestas_publicacion</text><text fill="#000000" font-family="sans-serif" font-size="13" lengthAdjust="spacing" textLength="263.3643" x="1366.8301" y="490.9326">WHERE publicacion_id = ? ORDER BY fecha</text><polygon fill="#181818" points="1370.8301,522.1406,1360.8301,526.1406,1370.8301,530.1406,1366.8301,526.1406" style="stroke:#181818;stroke-width:1;"/><line style="stroke:#181818;stroke-width:1;stroke-dasharray:2.0,2.0;" x1="1364.8301" x2="1879.6157" y1="526.1406" y2="526.1406"/><text fill="#000000" font-family="sans-serif" font-size="13" lengthAdjust="spacing" textLength="68.6499" x="1376.8301" y="521.2842">Respuestas</text><polygon fill="#181818" points="1567.1533,552.4922,1577.1533,556.4922,1567.1533,560.4922,1571.1533,556.4922" style="stroke:#181818;stroke-width:1;"/><line style="stroke:#181818;stroke-width:1;" x1="870.7183" x2="1573.1533" y1="556.4922" y2="556.4922"/><text fill="#000000" font-family="sans-serif" font-size="13" lengthAdjust="spacing" textLength="286.8633" x="877.7183" y="551.6357">findByPublicacionIdOrderByFechaSubidaDesc(id)</text><polygon fill="#181818" points="1868.6157,599.1953,1878.6157,603.1953,1868.6157,607.1953,1872.6157,603.1953" style="stroke:#181818;stroke-width:1;"/><line style="stroke:#181818;stroke-width:1;" x1="1579.1533" x2="1874.6157" y1="603.1953" y2="603.1953"/><text fill="#000000" font-family="sans-serif" font-size="13" lengthAdjust="spacing" textLength="225.418" x="1586.1533" y="581.9873">SELECT * FROM archivos_publicacion</text><text fill="#000000" font-family="sans-serif" font-size="13" lengthAdjust="spacing" textLength="277.4624" x="1586.1533" y="598.3389">WHERE publicacion_id = ? AND retirado = false</text><polygon fill="#181818" points="1590.1533,629.5469,1580.1533,633.5469,1590.1533,637.5469,1586.1533,633.5469" style="stroke:#181818;stroke-width:1;"/><line style="stroke:#181818;stroke-width:1;stroke-dasharray:2.0,2.0;" x1="1584.1533" x2="1879.6157" y1="633.5469" y2="633.5469"/><text fill="#000000" font-family="sans-serif" font-size="13" lengthAdjust="spacing" textLength="50.5908" x="1596.1533" y="628.6904">Adjuntos</text><polygon fill="#181818" points="520.252,659.8984,510.252,663.8984,520.252,667.8984,516.252,663.8984" style="stroke:#181818;stroke-width:1;"/><line style="stroke:#181818;stroke-width:1;stroke-dasharray:2.0,2.0;" x1="514.252" x2="869.7183" y1="663.8984" y2="663.8984"/><text fill="#000000" font-family="sans-serif" font-size="13" lengthAdjust="spacing" textLength="153.2134" x="526.252" y="659.042">Resultado del caso de uso</text><polygon fill="#181818" points="287.7632,690.25,277.7632,694.25,287.7632,698.25,283.7632,694.25" style="stroke:#181818;stroke-width:1;"/><line style="stroke:#181818;stroke-width:1;stroke-dasharray:2.0,2.0;" x1="281.7632" x2="508.252" y1="694.25" y2="694.25"/><text fill="#000000" font-family="sans-serif" font-size="13" lengthAdjust="spacing" textLength="181.3779" x="293.7632" y="689.3936">200 OK (PublicacionResponse)</text><polygon fill="#181818" points="57.1343,720.6016,47.1343,724.6016,57.1343,728.6016,53.1343,724.6016" style="stroke:#181818;stroke-width:1;"/><line style="stroke:#181818;stroke-width:1;stroke-dasharray:2.0,2.0;" x1="51.1343" x2="275.7632" y1="724.6016" y2="724.6016"/><text fill="#000000" font-family="sans-serif" font-size="13" lengthAdjust="spacing" textLength="206.6289" x="63.1343" y="719.7451">Presenta PUBLICACION_ABIERTA</text><!--SRC=[ZLDTZzCm47pFhrZTKmkSUkAn4g2aoK75SJsbHGZffDFMthQ6d1tPJgKAyTzPEyqrkG_W9NBicVNEpjWhNn7a2hSMxn4aWIFHa1OAuHnmRPMzQTQL4YYKqGaARopCzPwSLrkKnYOrMg-4gb5xE7jCkC4jtUfHIKmSdm4wkBH6Uz9ooEjHPdnkJLMHPUAojafl8JFcI4zhDMGkoJ5fINQl14L8k_DY_I4qhXzXJQNu3tkS20xxul1YtP9gunIFvn3HuNU8BSdL3SyD_qPozLDYQiLExStBj2CWCYLwNACZECl2bmtDqHiNSNcM97tluFpzWnzJM0PzokCJrqVZf4C51bimXO_52YPOgqbzmf6R_5BoDxm6OSnFHGaZ0w4rP0fcpIN8jh-fy0rM8spyZdGOj-VDST8UmdbtJne3nwWM9CsfQBJkeUf8oJSGuncAnBC02pEPmaPfcHtcCjMo9AyiIcJyE0cd0PLdBB-uAcOhU0MNvU8B36JTwc-VYh809U4TV83qEWTxBCCR6wmS9NaMcsxlwmqF9h0FYqGRJs3LTkV1R8vXcaR7ZNQuLfMIA47ncAt6ATHaxpc6bf-3QogFGr5jJ3fXlUlcSc4bsUnmIMBNYMpHpmkrNIhTNKzpfxYtTNTKloZpeeJiEsp23IVTNKiFCNVzbdiH_MVNosRDiyZ9YTX_Z_gy16m1_okWPvzvRD-WpLJ-Q3I_dPEEBfMiCNZ2V4aL27HX0OqxfdFmhDvUNC3YCum6ppUQJlrtnPp-q-GCiJCSUeIRhzdLV9REvelhkpIR5-Kg_GC0]--></g></svg>