<svg xmlns="http://www.w3.org/2000/svg" xmlns:xlink="http://www.w3.org/1999/xlink" contentStyleType="text/css" height="1007px" preserveAspectRatio="none" style="width:1991px;height:1007px;background:#FFFFFF;" version="1.1" viewBox="0 0 1991 1007" width="1991px" zoomAndPan="magnify"><title>Diagrama de secuencia - Solicitar eliminaci&#243;n de perfil por Coordinador</title><defs/><g><text fill="#000000" font-family="sans-serif" font-size="14" font-weight="bold" lengthAdjust="spacing" textLength="476.8955" x="758.2068" y="29.5332">Diagrama de secuencia - Solicitar eliminaci&#243;n de perfil por Coordinador</text><rect fill="#FFFFFF" height="761.625" style="stroke:#181818;stroke-width:1;" width="10" x="326.8301" y="153.5703"/><rect fill="#FFFFFF" height="463.625" style="stroke:#181818;stroke-width:1;" width="10" x="572.2534" y="406.2188"/><rect fill="#FFFFFF" height="30.3516" style="stroke:#181818;stroke-width:1;" width="10" x="875.8467" y="436.5703"/><rect fill="#FFFFFF" height="295.5156" style="stroke:#181818;stroke-width:1;" width="10" x="983.8809" y="497.2734"/><rect fill="#FFFFFF" height="30.3516" style="stroke:#181818;stroke-width:1;" width="10" x="1206.5161" y="732.0859"/><rect fill="none" height="709.2734" style="stroke:#000000;stroke-width:1.5;" width="1974.3091" x="10" y="198.9219"/><line style="stroke:#181818;stroke-width:0.5;stroke-dasharray:5.0,5.0;" x1="61" x2="61" y1="121.2188" y2="925.1953"/><line style="stroke:#181818;stroke-width:0.5;stroke-dasharray:5.0,5.0;" x1="331.5649" x2="331.5649" y1="121.2188" y2="925.1953"/><line style="stroke:#181818;stroke-width:0.5;stroke-dasharray:5.0,5.0;" x1="576.9604" x2="576.9604" y1="121.2188" y2="925.1953"/><line style="stroke:#181818;stroke-width:0.5;stroke-dasharray:5.0,5.0;" x1="880.1021" x2="880.1021" y1="121.2188" y2="925.1953"/><line style="stroke:#181818;stroke-width:0.5;stroke-dasharray:5.0,5.0;" x1="988.5913" x2="988.5913" y1="121.2188" y2="925.1953"/><line style="stroke:#181818;stroke-width:0.5;stroke-dasharray:5.0,5.0;" x1="1210.8579" x2="1210.8579" y1="121.2188" y2="925.1953"/><line style="stroke:#181818;stroke-width:0.5;stroke-dasharray:5.0,5.0;" x1="1924.4751" x2="1924.4751" y1="121.2188" y2="925.1953"/><text fill="#000000" font-family="sans-serif" font-size="14" lengthAdjust="spacing" textLength="77.0479" x="20" y="118.1426">Coordinador</text><ellipse cx="61.5239" cy="52.1094" fill="#E2E2F0" rx="8" ry="8" style="stroke:#181818;stroke-width:0.5;"/><path d="M61.5239,60.1094 L61.5239,87.1094 M48.5239,68.1094 L74.5239,68.1094 M61.5239,87.1094 L48.5239,102.1094 M61.5239,87.1094 L74.5239,102.1094 " fill="none" style="stroke:#181818;stroke-width:0.5;"/><text fill="#000000" font-family="sans-serif" font-size="14" lengthAdjust="spacing" textLength="77.0479" x="20" y="938.7285">Coordinador</text><ellipse cx="61.5239" cy="950.3047" fill="#E2E2F0" rx="8" ry="8" style="stroke:#181818;stroke-width:0.5;"/><path d="M61.5239,958.3047 L61.5239,985.3047 M48.5239,966.3047 L74.5239,966.3047 M61.5239,985.3047 L48.5239,1000.3047 M61.5239,985.3047 L74.5239,1000.3047 " fill="none" style="stroke:#181818;stroke-width:0.5;"/><rect fill="#E2E2F0" height="49.2188" rx="2.5" ry="2.5" style="stroke:#181818;stroke-width:0.5;" width="208.5303" x="227.5649" y="71"/><text fill="#000000" font-family="sans-serif" font-size="14" lengthAdjust="spacing" textLength="194.5303" x="234.5649" y="92.5332">SolicitudEliminacionPerfilModal</text><text fill="#000000" font-family="sans-serif" font-size="14" lengthAdjust="spacing" textLength="45.8965" x="308.8818" y="110.1426">(React)</text><rect fill="#E2E2F0" height="49.2188" rx="2.5" ry="2.5" style="stroke:#181818;stroke-width:0.5;" width="208.5303" x="227.5649" y="924.1953"/><text fill="#000000" font-family="sans-serif" font-size="14" lengthAdjust="spacing" textLength="194.5303" x="234.5649" y="945.7285">SolicitudEliminacionPerfilModal</text><text fill="#000000" font-family="sans-serif" font-size="14" lengthAdjust="spacing" textLength="45.8965" x="308.8818" y="963.3379">(React)</text><rect fill="#E2E2F0" height="49.2188" rx="2.5" ry="2.5" style="stroke:#181818;stroke-width:0.5;" width="106.5859" x="523.9604" y="71"/><text fill="#000000" font-family="sans-serif" font-size="14" lengthAdjust="spacing" textLength="92.5859" x="530.9604" y="92.5332">PerfilController</text><text fill="#000000" font-family="sans-serif" font-size="14" lengthAdjust="spacing" textLength="82.4824" x="536.0122" y="110.1426">(Spring Boot)</text><rect fill="#E2E2F0" height="49.2188" rx="2.5" ry="2.5" style="stroke:#181818;stroke-width:0.5;" width="106.5859" x="523.9604" y="924.1953"/><text fill="#000000" font-family="sans-serif" font-size="14" lengthAdjust="spacing" textLength="92.5859" x="530.9604" y="945.7285">PerfilController</text><text fill="#000000" font-family="sans-serif" font-size="14" lengthAdjust="spacing" textLength="82.4824" x="536.0122" y="963.3379">(Spring Boot)</text><rect fill="#E2E2F0" height="31.6094" rx="2.5" ry="2.5" style="stroke:#181818;stroke-width:0.5;" width="103.4893" x="829.1021" y="88.6094"/><text fill="#000000" font-family="sans-serif" font-size="14" lengthAdjust="spacing" textLength="89.4893" x="836.1021" y="110.1426">SesionService</text><rect fill="#E2E2F0" height="31.6094" rx="2.5" ry="2.5" style="stroke:#181818;stroke-width:0.5;" width="103.4893" x="829.1021" y="924.1953"/><text fill="#000000" font-family="sans-serif" font-size="14" lengthAdjust="spacing" textLength="89.4893" x="836.1021" y="945.7285">SesionService</text><rect fill="#E2E2F0" height="31.6094" rx="2.5" ry="2.5" style="stroke:#181818;stroke-width:0.5;" width="92.5791" x="942.5913" y="88.6094"/><text fill="#000000" font-family="sans-serif" font-size="14" lengthAdjust="spacing" textLength="78.5791" x="949.5913" y="110.1426">PerfilService</text><rect fill="#E2E2F0" height="31.6094" rx="2.5" ry="2.5" style="stroke:#181818;stroke-width:0.5;" width="92.5791" x="942.5913" y="924.1953"/><text fill="#000000" font-family="sans-serif" font-size="14" lengthAdjust="spacing" textLength="78.5791" x="949.5913" y="945.7285">PerfilService</text><rect fill="#E2E2F0" height="31.6094" rx="2.5" ry="2.5" style="stroke:#181818;stroke-width:0.5;" width="237.3164" x="1092.8579" y="88.6094"/><text fill="#000000" font-family="sans-serif" font-size="14" lengthAdjust="spacing" textLength="223.3164" x="1099.8579" y="110.1426">SolicitudEliminacionPerfilRepository</text><rect fill="#E2E2F0" height="31.6094" rx="2.5" ry="2.5" style="stroke:#181818;stroke-width:0.5;" width="237.3164" x="1092.8579" y="924.1953"/><text fill="#000000" font-family="sans-serif" font-size="14" lengthAdjust="spacing" textLength="223.3164" x="1099.8579" y="945.7285">SolicitudEliminacionPerfilRepository</text><text fill="#000000" font-family="sans-serif" font-size="14" lengthAdjust="spacing" textLength="91.834" x="1876.4751" y="118.1426">Base de Datos</text><path d="M1907.3921,67.6094 C1907.3921,57.6094 1925.3921,57.6094 1925.3921,57.6094 C1925.3921,57.6094 1943.3921,57.6094 1943.3921,67.6094 L1943.3921,93.6094 C1943.3921,103.6094 1925.3921,103.6094 1925.3921,103.6094 C1925.3921,103.6094 1907.3921,103.6094 1907.3921,93.6094 L1907.3921,67.6094 " fill="#E2E2F0" style="stroke:#181818;stroke-width:1.5;"/><path d="M1907.3921,67.6094 C1907.3921,77.6094 1925.3921,77.6094 1925.3921,77.6094 C1925.3921,77.6094 1943.3921,77.6094 1943.3921,67.6094 " fill="none" style="stroke:#181818;stroke-width:1.5;"/><text fill="#000000" font-family="sans-serif" font-size="14" lengthAdjust="spacing" textLength="91.834" x="1876.4751" y="938.7285">Base de Datos</text><path d="M1907.3921,951.8047 C1907.3921,941.8047 1925.3921,941.8047 1925.3921,941.8047 C1925.3921,941.8047 1943.3921,941.8047 1943.3921,951.8047 L1943.3921,977.8047 C1943.3921,987.8047 1925.3921,987.8047 1925.3921,987.8047 C1925.3921,987.8047 1907.3921,987.8047 1907.3921,977.8047 L1907.3921,951.8047 " fill="#E2E2F0" style="stroke:#181818;stroke-width:1.5;"/><path d="M1907.3921,951.8047 C1907.3921,961.8047 1925.3921,961.8047 1925.3921,961.8047 C1925.3921,961.8047 1943.3921,961.8047 1943.3921,951.8047 " fill="none" style="stroke:#181818;stroke-width:1.5;"/><rect fill="#FFFFFF" height="761.625" style="stroke:#181818;stroke-width:1;" width="10" x="326.8301" y="153.5703"/><rect fill="#FFFFFF" height="463.625" style="stroke:#181818;stroke-width:1;" width="10" x="572.2534" y="406.2188"/><rect fill="#FFFFFF" height="30.3516" style="stroke:#181818;stroke-width:1;" width="10" x="875.8467" y="436.5703"/><rect fill="#FFFFFF" height="295.5156" style="stroke:#181818;stroke-width:1;" width="10" x="983.8809" y="497.2734"/><rect fill="#FFFFFF" height="30.3516" style="stroke:#181818;stroke-width:1;" width="10" x="1206.5161" y="732.0859"/><polygon fill="#181818" points="314.8301,149.5703,324.8301,153.5703,314.8301,157.5703,318.8301,153.5703" style="stroke:#181818;stroke-width:1;"/><line style="stroke:#181818;stroke-width:1;" x1="61.5239" x2="320.8301" y1="153.5703" y2="153.5703"/><text fill="#000000" font-family="sans-serif" font-size="13" lengthAdjust="spacing" textLength="160.4116" x="68.5239" y="148.7139">Solicita eliminaci&#243;n de perfil</text><polygon fill="#181818" points="72.5239,179.9219,62.5239,183.9219,72.5239,187.9219,68.5239,183.9219" style="stroke:#181818;stroke-width:1;"/><line style="stroke:#181818;stroke-width:1;stroke-dasharray:2.0,2.0;" x1="66.5239" x2="325.8301" y1="183.9219" y2="183.9219"/><text fill="#000000" font-family="sans-serif" font-size="13" lengthAdjust="spacing" textLength="192.918" x="78.5239" y="179.0654">Muestra confirmaci&#243;n de solicitud</text><path d="M10,198.9219 L70.1709,198.9219 L70.1709,207.2734 L60.1709,217.2734 L10,217.2734 L10,198.9219 " fill="#EEEEEE" style="stroke:#000000;stroke-width:1.5;"/><rect fill="none" height="709.2734" style="stroke:#000000;stroke-width:1.5;" width="1974.3091" x="10" y="198.9219"/><text fill="#000000" font-family="sans-serif" font-size="13" font-weight="bold" lengthAdjust="spacing" textLength="15.1709" x="25" y="213.417">alt</text><text fill="#000000" font-family="sans-serif" font-size="11" font-weight="bold" lengthAdjust="spacing" textLength="97.7969" x="85.1709" y="212.3408">[Cancela solicitud]</text><polygon fill="#181818" points="314.8301,235.625,324.8301,239.625,314.8301,243.625,318.8301,239.625" style="stroke:#181818;stroke-width:1;"/><line style="stroke:#181818;stroke-width:1;" x1="61.5239" x2="320.8301" y1="239.625" y2="239.625"/><text fill="#000000" font-family="sans-serif" font-size="13" lengthAdjust="spacing" textLength="98.2744" x="68.5239" y="234.7686">Cancela solicitud</text><polygon fill="#181818" points="72.5239,265.9766,62.5239,269.9766,72.5239,273.9766,68.5239,269.9766" style="stroke:#181818;stroke-width:1;"/><line style="stroke:#181818;stroke-width:1;stroke-dasharray:2.0,2.0;" x1="66.5239" x2="325.8301" y1="269.9766" y2="269.9766"/><text fill="#000000" font-family="sans-serif" font-size="13" lengthAdjust="spacing" textLength="241.3062" x="78.5239" y="265.1201">Presenta OPCIONES_PERFIL_ABIERTO</text><line style="stroke:#000000;stroke-width:1;stroke-dasharray:2.0,2.0;" x1="10" x2="1984.3091" y1="278.9766" y2="278.9766"/><text fill="#000000" font-family="sans-serif" font-size="11" font-weight="bold" lengthAdjust="spacing" textLength="103.8877" x="15" y="290.3955">[Confirma solicitud]</text><polygon fill="#181818" points="314.8301,312.1641,324.8301,316.1641,314.8301,320.1641,318.8301,316.1641" style="stroke:#181818;stroke-width:1;"/><line style="stroke:#181818;stroke-width:1;" x1="61.5239" x2="320.8301" y1="316.1641" y2="316.1641"/><text fill="#000000" font-family="sans-serif" font-size="13" lengthAdjust="spacing" textLength="103.3145" x="68.5239" y="311.3076">Confirma solicitud</text><line style="stroke:#181818;stroke-width:1;" x1="336.8301" x2="378.8301" y1="346.5156" y2="346.5156"/><line style="stroke:#181818;stroke-width:1;" x1="378.8301" x2="378.8301" y1="346.5156" y2="359.5156"/><line style="stroke:#181818;stroke-width:1;" x1="337.8301" x2="378.8301" y1="359.5156" y2="359.5156"/><polygon fill="#181818" points="347.8301,355.5156,337.8301,359.5156,347.8301,363.5156,343.8301,359.5156" style="stroke:#181818;stroke-width:1;"/><text fill="#000000" font-family="sans-serif" font-size="13" lengthAdjust="spacing" textLength="136.5635" x="343.8301" y="341.6592">Comprobar sesi&#243;n local</text><polygon fill="#181818" points="560.2534,402.2188,570.2534,406.2188,560.2534,410.2188,564.2534,406.2188" style="stroke:#181818;stroke-width:1;"/><line style="stroke:#181818;stroke-width:1;" x1="336.8301" x2="566.2534" y1="406.2188" y2="406.2188"/><text fill="#000000" font-family="sans-serif" font-size="13" lengthAdjust="spacing" textLength="211.6943" x="343.8301" y="385.0107">POST /api/perfil/solicitud-eliminacion</text><text fill="#000000" font-family="sans-serif" font-size="13" lengthAdjust="spacing" textLength="216.4233" x="343.8301" y="401.3623">SolicitudEliminacionRequest + cookie</text><polygon fill="#181818" points="863.8467,432.5703,873.8467,436.5703,863.8467,440.5703,867.8467,436.5703" style="stroke:#181818;stroke-width:1;"/><line style="stroke:#181818;stroke-width:1;" x1="582.2534" x2="869.8467" y1="436.5703" y2="436.5703"/><text fill="#000000" font-family="sans-serif" font-size="13" lengthAdjust="spacing" textLength="209.5806" x="589.2534" y="431.7139">obtenerSesionActual(authentication)</text><polygon fill="#181818" points="593.2534,462.9219,583.2534,466.9219,593.2534,470.9219,589.2534,466.9219" style="stroke:#181818;stroke-width:1;"/><line style="stroke:#181818;stroke-width:1;stroke-dasharray:2.0,2.0;" x1="587.2534" x2="879.8467" y1="466.9219" y2="466.9219"/><text fill="#000000" font-family="sans-serif" font-size="13" lengthAdjust="spacing" textLength="98.2871" x="599.2534" y="462.0654">SesionResponse</text><polygon fill="#181818" points="971.8809,493.2734,981.8809,497.2734,971.8809,501.2734,975.8809,497.2734" style="stroke:#181818;stroke-width:1;"/><line style="stroke:#181818;stroke-width:1;" x1="582.2534" x2="977.8809" y1="497.2734" y2="497.2734"/><text fill="#000000" font-family="sans-serif" font-size="13" lengthAdjust="spacing" textLength="256.4961" x="589.2534" y="492.417">solicitarEliminacionPerfil(coordinador, datos)</text><path d="M998,510.2734 L998,536.2734 L1253,536.2734 L1253,520.2734 L1243,510.2734 L998,510.2734 " fill="#FEFFDD" style="stroke:#181818;stroke-width:0.5;"/><path d="M1243,510.2734 L1243,520.2734 L1253,520.2734 L1243,510.2734 " fill="#FEFFDD" style="stroke:#181818;stroke-width:0.5;"/><text fill="#000000" font-family="sans-serif" font-size="13" lengthAdjust="spacing" textLength="234.1396" x="1004" y="528.7686">Responsabilidad interna: validarSolicitud</text><polygon fill="#181818" points="1199.5161,559.9766,1209.5161,563.9766,1199.5161,567.9766,1203.5161,563.9766" style="stroke:#181818;stroke-width:1;"/><line style="stroke:#181818;stroke-width:1;" x1="993.8809" x2="1205.5161" y1="563.9766" y2="563.9766"/><text fill="#000000" font-family="sans-serif" font-size="13" lengthAdjust="spacing" textLength="193.6353" x="1000.8809" y="559.1201">existsByUsuarioAndEstado(perfil)</text><polygon fill="#181818" points="1913.3921,590.3281,1923.3921,594.3281,1913.3921,598.3281,1917.3921,594.3281" style="stroke:#181818;stroke-width:1;"/><line style="stroke:#181818;stroke-width:1;" x1="1211.5161" x2="1919.3921" y1="594.3281" y2="594.3281"/><text fill="#000000" font-family="sans-serif" font-size="13" lengthAdjust="spacing" textLength="689.876" x="1218.5161" y="589.4717">SELECT EXISTS(SELECT 1 FROM solicitudes_eliminacion_perfil WHERE usuario_id = ? AND estado = 'PENDIENTE')</text><polygon fill="#181818" points="1222.5161,620.6797,1212.5161,624.6797,1222.5161,628.6797,1218.5161,624.6797" style="stroke:#181818;stroke-width:1;"/><line style="stroke:#181818;stroke-width:1;stroke-dasharray:2.0,2.0;" x1="1216.5161" x2="1924.3921" y1="624.6797" y2="624.6797"/><text fill="#000000" font-family="sans-serif" font-size="13" lengthAdjust="spacing" textLength="149.5889" x="1228.5161" y="619.8232">Resultado de persistencia</text><polygon fill="#181818" points="1199.5161,651.0313,1209.5161,655.0313,1199.5161,659.0313,1203.5161,655.0313" style="stroke:#181818;stroke-width:1;"/><line style="stroke:#181818;stroke-width:1;" x1="993.8809" x2="1205.5161" y1="655.0313" y2="655.0313"/><text fill="#000000" font-family="sans-serif" font-size="13" lengthAdjust="spacing" textLength="83.0845" x="1000.8809" y="650.1748">save(solicitud)</text><polygon fill="#181818" points="1913.3921,697.7344,1923.3921,701.7344,1913.3921,705.7344,1917.3921,701.7344" style="stroke:#181818;stroke-width:1;"/><line style="stroke:#181818;stroke-width:1;" x1="1211.5161" x2="1919.3921" y1="701.7344" y2="701.7344"/><text fill="#000000" font-family="sans-serif" font-size="13" lengthAdjust="spacing" textLength="513.7285" x="1218.5161" y="680.5264">INSERT INTO solicitudes_eliminacion_perfil (usuario_id, motivo, estado, fecha_creacion)</text><text fill="#000000" font-family="sans-serif" font-size="13" lengthAdjust="spacing" textLength="325.6855" x="1218.5161" y="696.8779">VALUES (?, ?, 'PENDIENTE', CURRENT_TIMESTAMP)</text><polygon fill="#181818" points="1227.5161,728.0859,1217.5161,732.0859,1227.5161,736.0859,1223.5161,732.0859" style="stroke:#181818;stroke-width:1;"/><line style="stroke:#181818;stroke-width:1;stroke-dasharray:2.0,2.0;" x1="1221.5161" x2="1924.3921" y1="732.0859" y2="732.0859"/><text fill="#000000" font-family="sans-serif" font-size="13" lengthAdjust="spacing" textLength="149.5889" x="1233.5161" y="727.2295">Resultado de persistencia</text><polygon fill="#181818" points="1004.8809,758.4375,994.8809,762.4375,1004.8809,766.4375,1000.8809,762.4375" style="stroke:#181818;stroke-width:1;"/><line style="stroke:#181818;stroke-width:1;stroke-dasharray:2.0,2.0;" x1="998.8809" x2="1210.5161" y1="762.4375" y2="762.4375"/><text fill="#000000" font-family="sans-serif" font-size="13" lengthAdjust="spacing" textLength="110.5571" x="1010.8809" y="757.5811">Solicitud registrada</text><polygon fill="#181818" points="593.2534,788.7891,583.2534,792.7891,593.2534,796.7891,589.2534,792.7891" style="stroke:#181818;stroke-width:1;"/><line style="stroke:#181818;stroke-width:1;stroke-dasharray:2.0,2.0;" x1="587.2534" x2="987.8809" y1="792.7891" y2="792.7891"/><text fill="#000000" font-family="sans-serif" font-size="13" lengthAdjust="spacing" textLength="174.1479" x="599.2534" y="787.9326">SolicitudEliminacionResponse</text><polygon fill="#181818" points="868.8467,819.1406,878.8467,823.1406,868.8467,827.1406,872.8467,823.1406" style="stroke:#181818;stroke-width:1;"/><line style="stroke:#181818;stroke-width:1;" x1="582.2534" x2="874.8467" y1="823.1406" y2="823.1406"/><text fill="#000000" font-family="sans-serif" font-size="13" lengthAdjust="spacing" textLength="274.5933" x="589.2534" y="818.2842">cerrarSesion(request, response, authentication)</text><polygon fill="#181818" points="347.8301,865.8438,337.8301,869.8438,347.8301,873.8438,343.8301,869.8438" style="stroke:#181818;stroke-width:1;"/><line style="stroke:#181818;stroke-width:1;stroke-dasharray:2.0,2.0;" x1="341.8301" x2="576.2534" y1="869.8438" y2="869.8438"/><text fill="#000000" font-family="sans-serif" font-size="13" lengthAdjust="spacing" textLength="71.5508" x="353.8301" y="848.6357">201 Created</text><text fill="#000000" font-family="sans-serif" font-size="13" lengthAdjust="spacing" textLength="87.439" x="353.8301" y="864.9873">Sesi&#243;n cerrada</text><polygon fill="#181818" points="72.5239,896.1953,62.5239,900.1953,72.5239,904.1953,68.5239,900.1953" style="stroke:#181818;stroke-width:1;"/><line style="stroke:#181818;stroke-width:1;stroke-dasharray:2.0,2.0;" x1="66.5239" x2="325.8301" y1="900.1953" y2="900.1953"/><text fill="#000000" font-family="sans-serif" font-size="13" lengthAdjust="spacing" textLength="175.5635" x="78.5239" y="895.3389">Presenta SESION_CERRADA</text><!--SRC=[fLNRRjf047tdAqPvYQE2qlGHgOsCsQX8uIARj7s8X0Px8AkQNNTtGUrtzHFwOnrVm1YCage8ONiyU-RCcGjEkfHWA75jS8EG45YAjwHYYT23IASobWuDK2etKc4i__nMkLT6PYLJoBI1G6kJyBj4cqu7OtTYoj0u1ibGERYg0BU9sEDfDIkWnZh1z5bv8J74pHMWXGUZbIELD25Azu1V6PscPFXCb1cfrZ3GkZhfP_8aBbcE597PoPWAbzBI1dtirR2yDPMGCcqbw_2hZBHthEsT11qkqH9S3V9V5dI8Jjl2VpZeT8u4XDwdWnBzGqKk52JNN-xGKItU_WPw37I4suVnbgmp2B5MAsasDPRTC-vWwY105LEAHrRWpqM6xUwNMSmCMLASqNGMZAOJ4Irc8dmOFIxymKY4ysc7KbOeg3Y-cKMxVqsZwRp9Z5vocrlkYbo4LCUOdftWjcA-qsWEjvZ9srBosqE47jMTyApQ-YEa7xdcy8urrzyb5H4E9SkxDZVmDOzMTcWVz9BZaoaV_TXjCVLmwrvOD1cZO-DD4wTgxTnMtXQY5-JBvv1iffKjmoVKTh3YqEZ__bvCD6SzxyLr9RgGvCrymgevIagpoSZrYmEzEWrJySEbJ6M22KYkW57OXntc1XCrQjeuN0XtFd1ze9_IEZluzMItQAJsLIAiOxPUMSMIRCl9770uOEN4emZc8BwDeddaLKzty11EntMFaLqSzS2YMf9VFujGmBOCl909V8Hxy2T3e881FrxFn6Gu4fEvk2w930T5pLepONMsQN6m77lBYHKB-n_KiBWZxq3xrUH7auX7aI_pwMl9UdMUNTXeBhxkLebsOKNn2ovYGyMHcsVrnNzy4X5uzrtWxv4CNGYUmf1l5_FHM4HpVppxNsNgDczPo1S5E1-2WniOMijyWoPuDaaNGfnKvp2MhRkYVKYRSzIoBs8o1gjruPboutIPQmdNXRRTKK0qTkA7ztSGSA4S9RpBghLOG9zdkrzSRrZoaOXuoIy24OR-qE_aVr17G7k0lm00]--></g></svg>