<svg xmlns="http://www.w3.org/2000/svg" xmlns:xlink="http://www.w3.org/1999/xlink" contentStyleType="text/css" height="876px" preserveAspectRatio="none" style="width:1299px;height:876px;background:#FFFFFF;" version="1.1" viewBox="0 0 1299 876" width="1299px" zoomAndPan="magnify"><title>Diagrama de secuencia - Solicitar eliminaci&#195;&#179;n de perfil por Coordinador</title><defs/><g><text fill="#000000" font-family="sans-serif" font-size="14" font-weight="bold" lengthAdjust="spacing" textLength="483.1162" x="409.1853" y="29.5332">Diagrama de secuencia - Solicitar eliminaci&#195;&#179;n de perfil por Coordinador</text><rect fill="#FFFFFF" height="630.8672" style="stroke:#181818;stroke-width:1;" width="10" x="326.8301" y="153.5703"/><rect fill="#FFFFFF" height="332.8672" style="stroke:#181818;stroke-width:1;" width="10" x="572.2534" y="406.2188"/><rect fill="#FFFFFF" height="30.3516" style="stroke:#181818;stroke-width:1;" width="10" x="875.8467" y="436.5703"/><rect fill="#FFFFFF" height="164.7578" style="stroke:#181818;stroke-width:1;" width="10" x="983.8809" y="497.2734"/><rect fill="#FFFFFF" height="30.3516" style="stroke:#181818;stroke-width:1;" width="10" x="1158.8286" y="601.3281"/><rect fill="none" height="578.5156" style="stroke:#000000;stroke-width:1.5;" width="1282.4868" x="10" y="198.9219"/><line style="stroke:#181818;stroke-width:0.5;stroke-dasharray:5.0,5.0;" x1="61" x2="61" y1="121.2188" y2="794.4375"/><line style="stroke:#181818;stroke-width:0.5;stroke-dasharray:5.0,5.0;" x1="331.5649" x2="331.5649" y1="121.2188" y2="794.4375"/><line style="stroke:#181818;stroke-width:0.5;stroke-dasharray:5.0,5.0;" x1="576.9604" x2="576.9604" y1="121.2188" y2="794.4375"/><line style="stroke:#181818;stroke-width:0.5;stroke-dasharray:5.0,5.0;" x1="880.1021" x2="880.1021" y1="121.2188" y2="794.4375"/><line style="stroke:#181818;stroke-width:0.5;stroke-dasharray:5.0,5.0;" x1="988.5913" x2="988.5913" y1="121.2188" y2="794.4375"/><line style="stroke:#181818;stroke-width:0.5;stroke-dasharray:5.0,5.0;" x1="1163.1704" x2="1163.1704" y1="121.2188" y2="794.4375"/><text fill="#000000" font-family="sans-serif" font-size="14" lengthAdjust="spacing" textLength="77.0479" x="20" y="118.1426">Coordinador</text><ellipse cx="61.5239" cy="52.1094" fill="#E2E2F0" rx="8" ry="8" style="stroke:#181818;stroke-width:0.5;"/><path d="M61.5239,60.1094 L61.5239,87.1094 M48.5239,68.1094 L74.5239,68.1094 M61.5239,87.1094 L48.5239,102.1094 M61.5239,87.1094 L74.5239,102.1094 " fill="none" style="stroke:#181818;stroke-width:0.5;"/><text fill="#000000" font-family="sans-serif" font-size="14" lengthAdjust="spacing" textLength="77.0479" x="20" y="807.9707">Coordinador</text><ellipse cx="61.5239" cy="819.5469" fill="#E2E2F0" rx="8" ry="8" style="stroke:#181818;stroke-width:0.5;"/><path d="M61.5239,827.5469 L61.5239,854.5469 M48.5239,835.5469 L74.5239,835.5469 M61.5239,854.5469 L48.5239,869.5469 M61.5239,854.5469 L74.5239,869.5469 " fill="none" style="stroke:#181818;stroke-width:0.5;"/><rect fill="#E2E2F0" height="49.2188" rx="2.5" ry="2.5" style="stroke:#181818;stroke-width:0.5;" width="208.5303" x="227.5649" y="71"/><text fill="#000000" font-family="sans-serif" font-size="14" lengthAdjust="spacing" textLength="194.5303" x="234.5649" y="92.5332">SolicitudEliminacionPerfilModal</text><text fill="#000000" font-family="sans-serif" font-size="14" lengthAdjust="spacing" textLength="45.8965" x="308.8818" y="110.1426">(React)</text><rect fill="#E2E2F0" height="49.2188" rx="2.5" ry="2.5" style="stroke:#181818;stroke-width:0.5;" width="208.5303" x="227.5649" y="793.4375"/><text fill="#000000" font-family="sans-serif" font-size="14" lengthAdjust="spacing" textLength="194.5303" x="234.5649" y="814.9707">SolicitudEliminacionPerfilModal</text><text fill="#000000" font-family="sans-serif" font-size="14" lengthAdjust="spacing" textLength="45.8965" x="308.8818" y="832.5801">(React)</text><rect fill="#E2E2F0" height="49.2188" rx="2.5" ry="2.5" style="stroke:#181818;stroke-width:0.5;" width="106.5859" x="523.9604" y="71"/><text fill="#000000" font-family="sans-serif" font-size="14" lengthAdjust="spacing" textLength="92.5859" x="530.9604" y="92.5332">PerfilController</text><text fill="#000000" font-family="sans-serif" font-size="14" lengthAdjust="spacing" textLength="82.4824" x="536.0122" y="110.1426">(Spring Boot)</text><rect fill="#E2E2F0" height="49.2188" rx="2.5" ry="2.5" style="stroke:#181818;stroke-width:0.5;" width="106.5859" x="523.9604" y="793.4375"/><text fill="#000000" font-family="sans-serif" font-size="14" lengthAdjust="spacing" textLength="92.5859" x="530.9604" y="814.9707">PerfilController</text><text fill="#000000" font-family="sans-serif" font-size="14" lengthAdjust="spacing" textLength="82.4824" x="536.0122" y="832.5801">(Spring Boot)</text><rect fill="#E2E2F0" height="31.6094" rx="2.5" ry="2.5" style="stroke:#181818;stroke-width:0.5;" width="103.4893" x="829.1021" y="88.6094"/><text fill="#000000" font-family="sans-serif" font-size="14" lengthAdjust="spacing" textLength="89.4893" x="836.1021" y="110.1426">SesionService</text><rect fill="#E2E2F0" height="31.6094" rx="2.5" ry="2.5" style="stroke:#181818;stroke-width:0.5;" width="103.4893" x="829.1021" y="793.4375"/><text fill="#000000" font-family="sans-serif" font-size="14" lengthAdjust="spacing" textLength="89.4893" x="836.1021" y="814.9707">SesionService</text><rect fill="#E2E2F0" height="31.6094" rx="2.5" ry="2.5" style="stroke:#181818;stroke-width:0.5;" width="92.5791" x="942.5913" y="88.6094"/><text fill="#000000" font-family="sans-serif" font-size="14" lengthAdjust="spacing" textLength="78.5791" x="949.5913" y="110.1426">PerfilService</text><rect fill="#E2E2F0" height="31.6094" rx="2.5" ry="2.5" style="stroke:#181818;stroke-width:0.5;" width="92.5791" x="942.5913" y="793.4375"/><text fill="#000000" font-family="sans-serif" font-size="14" lengthAdjust="spacing" textLength="78.5791" x="949.5913" y="814.9707">PerfilService</text><rect fill="#E2E2F0" height="31.6094" rx="2.5" ry="2.5" style="stroke:#181818;stroke-width:0.5;" width="237.3164" x="1045.1704" y="88.6094"/><text fill="#000000" font-family="sans-serif" font-size="14" lengthAdjust="spacing" textLength="223.3164" x="1052.1704" y="110.1426">SolicitudEliminacionPerfilRepository</text><rect fill="#E2E2F0" height="31.6094" rx="2.5" ry="2.5" style="stroke:#181818;stroke-width:0.5;" width="237.3164" x="1045.1704" y="793.4375"/><text fill="#000000" font-family="sans-serif" font-size="14" lengthAdjust="spacing" textLength="223.3164" x="1052.1704" y="814.9707">SolicitudEliminacionPerfilRepository</text><rect fill="#FFFFFF" height="630.8672" style="stroke:#181818;stroke-width:1;" width="10" x="326.8301" y="153.5703"/><rect fill="#FFFFFF" height="332.8672" style="stroke:#181818;stroke-width:1;" width="10" x="572.2534" y="406.2188"/><rect fill="#FFFFFF" height="30.3516" style="stroke:#181818;stroke-width:1;" width="10" x="875.8467" y="436.5703"/><rect fill="#FFFFFF" height="164.7578" style="stroke:#181818;stroke-width:1;" width="10" x="983.8809" y="497.2734"/><rect fill="#FFFFFF" height="30.3516" style="stroke:#181818;stroke-width:1;" width="10" x="1158.8286" y="601.3281"/><polygon fill="#181818" points="314.8301,149.5703,324.8301,153.5703,314.8301,157.5703,318.8301,153.5703" style="stroke:#181818;stroke-width:1;"/><line style="stroke:#181818;stroke-width:1;" x1="61.5239" x2="320.8301" y1="153.5703" y2="153.5703"/><text fill="#000000" font-family="sans-serif" font-size="13" lengthAdjust="spacing" textLength="166.1816" x="68.5239" y="148.7139">Solicita eliminaci&#195;&#179;n de perfil</text><polygon fill="#181818" points="72.5239,179.9219,62.5239,183.9219,72.5239,187.9219,68.5239,183.9219" style="stroke:#181818;stroke-width:1;"/><line style="stroke:#181818;stroke-width:1;stroke-dasharray:2.0,2.0;" x1="66.5239" x2="325.8301" y1="183.9219" y2="183.9219"/><text fill="#000000" font-family="sans-serif" font-size="13" lengthAdjust="spacing" textLength="198.688" x="78.5239" y="179.0654">Muestra confirmaci&#195;&#179;n de solicitud</text><path d="M10,198.9219 L70.1709,198.9219 L70.1709,207.2734 L60.1709,217.2734 L10,217.2734 L10,198.9219 " fill="#EEEEEE" style="stroke:#000000;stroke-width:1.5;"/><rect fill="none" height="578.5156" style="stroke:#000000;stroke-width:1.5;" width="1282.4868" x="10" y="198.9219"/><text fill="#000000" font-family="sans-serif" font-size="13" font-weight="bold" lengthAdjust="spacing" textLength="15.1709" x="25" y="213.417">alt</text><text fill="#000000" font-family="sans-serif" font-size="11" font-weight="bold" lengthAdjust="spacing" textLength="97.7969" x="85.1709" y="212.3408">[Cancela solicitud]</text><polygon fill="#181818" points="314.8301,235.625,324.8301,239.625,314.8301,243.625,318.8301,239.625" style="stroke:#181818;stroke-width:1;"/><line style="stroke:#181818;stroke-width:1;" x1="61.5239" x2="320.8301" y1="239.625" y2="239.625"/><text fill="#000000" font-family="sans-serif" font-size="13" lengthAdjust="spacing" textLength="98.2744" x="68.5239" y="234.7686">Cancela solicitud</text><polygon fill="#181818" points="72.5239,265.9766,62.5239,269.9766,72.5239,273.9766,68.5239,269.9766" style="stroke:#181818;stroke-width:1;"/><line style="stroke:#181818;stroke-width:1;stroke-dasharray:2.0,2.0;" x1="66.5239" x2="325.8301" y1="269.9766" y2="269.9766"/><text fill="#000000" font-family="sans-serif" font-size="13" lengthAdjust="spacing" textLength="241.3062" x="78.5239" y="265.1201">Presenta OPCIONES_PERFIL_ABIERTO</text><line style="stroke:#000000;stroke-width:1;stroke-dasharray:2.0,2.0;" x1="10" x2="1292.4868" y1="278.9766" y2="278.9766"/><text fill="#000000" font-family="sans-serif" font-size="11" font-weight="bold" lengthAdjust="spacing" textLength="103.8877" x="15" y="290.3955">[Confirma solicitud]</text><polygon fill="#181818" points="314.8301,312.1641,324.8301,316.1641,314.8301,320.1641,318.8301,316.1641" style="stroke:#181818;stroke-width:1;"/><line style="stroke:#181818;stroke-width:1;" x1="61.5239" x2="320.8301" y1="316.1641" y2="316.1641"/><text fill="#000000" font-family="sans-serif" font-size="13" lengthAdjust="spacing" textLength="103.3145" x="68.5239" y="311.3076">Confirma solicitud</text><line style="stroke:#181818;stroke-width:1;" x1="336.8301" x2="378.8301" y1="346.5156" y2="346.5156"/><line style="stroke:#181818;stroke-width:1;" x1="378.8301" x2="378.8301" y1="346.5156" y2="359.5156"/><line style="stroke:#181818;stroke-width:1;" x1="337.8301" x2="378.8301" y1="359.5156" y2="359.5156"/><polygon fill="#181818" points="347.8301,355.5156,337.8301,359.5156,347.8301,363.5156,343.8301,359.5156" style="stroke:#181818;stroke-width:1;"/><text fill="#000000" font-family="sans-serif" font-size="13" lengthAdjust="spacing" textLength="142.3335" x="343.8301" y="341.6592">Comprobar sesi&#195;&#179;n local</text><polygon fill="#181818" points="560.2534,402.2188,570.2534,406.2188,560.2534,410.2188,564.2534,406.2188" style="stroke:#181818;stroke-width:1;"/><line style="stroke:#181818;stroke-width:1;" x1="336.8301" x2="566.2534" y1="406.2188" y2="406.2188"/><text fill="#000000" font-family="sans-serif" font-size="13" lengthAdjust="spacing" textLength="211.6943" x="343.8301" y="385.0107">POST /api/perfil/solicitud-eliminacion</text><text fill="#000000" font-family="sans-serif" font-size="13" lengthAdjust="spacing" textLength="216.4233" x="343.8301" y="401.3623">SolicitudEliminacionRequest + cookie</text><polygon fill="#181818" points="863.8467,432.5703,873.8467,436.5703,863.8467,440.5703,867.8467,436.5703" style="stroke:#181818;stroke-width:1;"/><line style="stroke:#181818;stroke-width:1;" x1="582.2534" x2="869.8467" y1="436.5703" y2="436.5703"/><text fill="#000000" font-family="sans-serif" font-size="13" lengthAdjust="spacing" textLength="209.5806" x="589.2534" y="431.7139">obtenerSesionActual(authentication)</text><polygon fill="#181818" points="593.2534,462.9219,583.2534,466.9219,593.2534,470.9219,589.2534,466.9219" style="stroke:#181818;stroke-width:1;"/><line style="stroke:#181818;stroke-width:1;stroke-dasharray:2.0,2.0;" x1="587.2534" x2="879.8467" y1="466.9219" y2="466.9219"/><text fill="#000000" font-family="sans-serif" font-size="13" lengthAdjust="spacing" textLength="205.8926" x="599.2534" y="462.0654">SesionResponse(COORDINADOR)</text><polygon fill="#181818" points="971.8809,493.2734,981.8809,497.2734,971.8809,501.2734,975.8809,497.2734" style="stroke:#181818;stroke-width:1;"/><line style="stroke:#181818;stroke-width:1;" x1="582.2534" x2="977.8809" y1="497.2734" y2="497.2734"/><text fill="#000000" font-family="sans-serif" font-size="13" lengthAdjust="spacing" textLength="256.4961" x="589.2534" y="492.417">solicitarEliminacionPerfil(coordinador, datos)</text><line style="stroke:#181818;stroke-width:1;" x1="993.8809" x2="1035.8809" y1="527.625" y2="527.625"/><line style="stroke:#181818;stroke-width:1;" x1="1035.8809" x2="1035.8809" y1="527.625" y2="540.625"/><line style="stroke:#181818;stroke-width:1;" x1="994.8809" x2="1035.8809" y1="540.625" y2="540.625"/><polygon fill="#181818" points="1004.8809,536.625,994.8809,540.625,1004.8809,544.625,1000.8809,540.625" style="stroke:#181818;stroke-width:1;"/><text fill="#000000" font-family="sans-serif" font-size="13" lengthAdjust="spacing" textLength="127.8926" x="1000.8809" y="522.7686">validarSolicitud(datos)</text><polygon fill="#181818" points="1151.8286,566.9766,1161.8286,570.9766,1151.8286,574.9766,1155.8286,570.9766" style="stroke:#181818;stroke-width:1;"/><line style="stroke:#181818;stroke-width:1;" x1="993.8809" x2="1157.8286" y1="570.9766" y2="570.9766"/><text fill="#000000" font-family="sans-serif" font-size="13" lengthAdjust="spacing" textLength="129.3462" x="1000.8809" y="566.1201">existePendiente(perfil)</text><polygon fill="#181818" points="1146.8286,597.3281,1156.8286,601.3281,1146.8286,605.3281,1150.8286,601.3281" style="stroke:#181818;stroke-width:1;"/><line style="stroke:#181818;stroke-width:1;" x1="993.8809" x2="1152.8286" y1="601.3281" y2="601.3281"/><text fill="#000000" font-family="sans-serif" font-size="13" lengthAdjust="spacing" textLength="100.4326" x="1000.8809" y="596.4717">guardar(solicitud)</text><polygon fill="#181818" points="1004.8809,627.6797,994.8809,631.6797,1004.8809,635.6797,1000.8809,631.6797" style="stroke:#181818;stroke-width:1;"/><line style="stroke:#181818;stroke-width:1;stroke-dasharray:2.0,2.0;" x1="998.8809" x2="1162.8286" y1="631.6797" y2="631.6797"/><text fill="#000000" font-family="sans-serif" font-size="13" lengthAdjust="spacing" textLength="110.5571" x="1010.8809" y="626.8232">Solicitud registrada</text><polygon fill="#181818" points="593.2534,658.0313,583.2534,662.0313,593.2534,666.0313,589.2534,662.0313" style="stroke:#181818;stroke-width:1;"/><line style="stroke:#181818;stroke-width:1;stroke-dasharray:2.0,2.0;" x1="587.2534" x2="987.8809" y1="662.0313" y2="662.0313"/><text fill="#000000" font-family="sans-serif" font-size="13" lengthAdjust="spacing" textLength="174.1479" x="599.2534" y="657.1748">SolicitudEliminacionResponse</text><polygon fill="#181818" points="868.8467,688.3828,878.8467,692.3828,868.8467,696.3828,872.8467,692.3828" style="stroke:#181818;stroke-width:1;"/><line style="stroke:#181818;stroke-width:1;" x1="582.2534" x2="874.8467" y1="692.3828" y2="692.3828"/><text fill="#000000" font-family="sans-serif" font-size="13" lengthAdjust="spacing" textLength="274.5933" x="589.2534" y="687.5264">cerrarSesion(request, response, authentication)</text><polygon fill="#181818" points="347.8301,735.0859,337.8301,739.0859,347.8301,743.0859,343.8301,739.0859" style="stroke:#181818;stroke-width:1;"/><line style="stroke:#181818;stroke-width:1;stroke-dasharray:2.0,2.0;" x1="341.8301" x2="576.2534" y1="739.0859" y2="739.0859"/><text fill="#000000" font-family="sans-serif" font-size="13" lengthAdjust="spacing" textLength="71.5508" x="353.8301" y="717.8779">201 Created</text><text fill="#000000" font-family="sans-serif" font-size="13" lengthAdjust="spacing" textLength="93.209" x="353.8301" y="734.2295">Sesi&#195;&#179;n cerrada</text><polygon fill="#181818" points="72.5239,765.4375,62.5239,769.4375,72.5239,773.4375,68.5239,769.4375" style="stroke:#181818;stroke-width:1;"/><line style="stroke:#181818;stroke-width:1;stroke-dasharray:2.0,2.0;" x1="66.5239" x2="325.8301" y1="769.4375" y2="769.4375"/><text fill="#000000" font-family="sans-serif" font-size="13" lengthAdjust="spacing" textLength="175.5635" x="78.5239" y="764.5811">Presenta SESION_CERRADA</text><!--SRC=[bLHDRzim3BtxLn0zkLY2RZlcC21rKY30MWTsZmKALcOpOOhaIKgmdVUJzW-sFpRQYXr_1MXpYKrJZ-HxZ_BIAuALn9t5FK91u4WSI0k9C8VSA2caHmkav5vg5FBVxxz_T9LNadsL2afZ8J765lorC3QAKFX1g4Jh6QP4xU7g17aerWsYqTiQwjuKg9vqd153N5y1EhYpHdlIHHyYf2VyoHgboFAPlBHIx-3McDF9PIa7TSbnfPpiKGggKq9a2hgRrOkyTPICIkCay_0hL6eIp_4ewZ04yo_jg8kMz8kSLnJB8tewyzCym9oXEiWBk3-GynP16FqgxRwBvfgs8bGU4jI257QYmB-BNKwdN-vZQycHvgdIRR997zRvytQTtMs-FYzlD-liCOr8EU8ZeSitTp6TVswZdxmlhNbXDpkMFj2WZ40rEiFkuOxJ_15ki9GtWVQRjiQSpe8_wIaRPFIZuXq-CE_ckwIwGYjRPSugmFzLjM341PWNhaysl2w5Fw2AyU2_CMrIeEVWTH_dvE0g5Xvhsklcmtj6hZJQKPoaQRRQF2nNQHOm2ff2EJNKy_oYuHRjoEUnE0ipWmAzSOCM- -jJVUf59geTKSa2RSjgt84TdPtOh0NGJ-ayRLbBoTHH7EHx3yBkW9PxY5l5XyHFB7IjmZXUIp8OiKq3IpjPhMU18rKkb1WCqEezQSAW_X1whCd0Y8AinPCFOnkiFEDU0zmCfanPG_JMxVF7Jv1Ouee5BqcxSJNuUDvc9zvmW-Jhd6-GvsITPSlLCghklmvG0_0V]--></g></svg>