<?xml version="1.0" encoding="us-ascii" standalone="no"?><svg xmlns="http://www.w3.org/2000/svg" xmlns:xlink="http://www.w3.org/1999/xlink" contentStyleType="text/css" height="944px" preserveAspectRatio="none" style="width:1061px;height:944px;background:#FFFFFF;" version="1.1" viewBox="0 0 1061 944" width="1061px" zoomAndPan="magnify"><defs/><g><text fill="#000000" font-family="sans-serif" font-size="14" font-weight="bold" lengthAdjust="spacing" textLength="437" x="310.5" y="29.5332">Diagrama de secuencia - Abrir panel principal del Investigador</text><rect fill="#FFFFFF" height="646.2734" style="stroke:#181818;stroke-width:1.0;" width="10" x="321.5" y="206.2734"/><rect fill="#FFFFFF" height="193.4609" style="stroke:#181818;stroke-width:1.0;" width="10" x="556.5" y="296.3281"/><rect fill="#FFFFFF" height="55.7031" style="stroke:#181818;stroke-width:1.0;" width="10" x="792.5" y="326.6797"/><rect fill="#FFFFFF" height="30.3516" style="stroke:#181818;stroke-width:1.0;" width="10" x="930" y="412.7344"/><rect fill="none" height="503.8672" style="stroke:#000000;stroke-width:1.5;" width="1010.5" x="10" y="341.6797"/><line style="stroke:#181818;stroke-width:0.5;stroke-dasharray:5.0,5.0;" x1="61" x2="61" y1="121.2188" y2="862.5469"/><line style="stroke:#181818;stroke-width:0.5;stroke-dasharray:5.0,5.0;" x1="326" x2="326" y1="121.2188" y2="862.5469"/><line style="stroke:#181818;stroke-width:0.5;stroke-dasharray:5.0,5.0;" x1="561.5" x2="561.5" y1="121.2188" y2="862.5469"/><line style="stroke:#181818;stroke-width:0.5;stroke-dasharray:5.0,5.0;" x1="797.5" x2="797.5" y1="121.2188" y2="862.5469"/><line style="stroke:#181818;stroke-width:0.5;stroke-dasharray:5.0,5.0;" x1="934.5" x2="934.5" y1="121.2188" y2="862.5469"/><text fill="#000000" font-family="sans-serif" font-size="14" lengthAdjust="spacing" textLength="77" x="20" y="118.1426">Investigador</text><ellipse cx="61.5" cy="52.1094" fill="#E2E2F0" rx="8" ry="8" style="stroke:#181818;stroke-width:0.5;"/><path d="M61.5,60.1094 L61.5,87.1094 M48.5,68.1094 L74.5,68.1094 M61.5,87.1094 L48.5,102.1094 M61.5,87.1094 L74.5,102.1094 " fill="none" style="stroke:#181818;stroke-width:0.5;"/><text fill="#000000" font-family="sans-serif" font-size="14" lengthAdjust="spacing" textLength="77" x="20" y="876.0801">Investigador</text><ellipse cx="61.5" cy="887.6563" fill="#E2E2F0" rx="8" ry="8" style="stroke:#181818;stroke-width:0.5;"/><path d="M61.5,895.6563 L61.5,922.6563 M48.5,903.6563 L74.5,903.6563 M61.5,922.6563 L48.5,937.6563 M61.5,922.6563 L74.5,937.6563 " fill="none" style="stroke:#181818;stroke-width:0.5;"/><rect fill="#E2E2F0" height="49.2188" rx="2.5" ry="2.5" style="stroke:#181818;stroke-width:0.5;" width="137" x="258" y="71"/><text fill="#000000" font-family="sans-serif" font-size="14" lengthAdjust="spacing" textLength="123" x="265" y="92.5332">PanelPrincipalPage</text><text fill="#000000" font-family="sans-serif" font-size="14" lengthAdjust="spacing" textLength="47" x="303" y="110.1426">(React)</text><rect fill="#E2E2F0" height="49.2188" rx="2.5" ry="2.5" style="stroke:#181818;stroke-width:0.5;" width="137" x="258" y="861.5469"/><text fill="#000000" font-family="sans-serif" font-size="14" lengthAdjust="spacing" textLength="123" x="265" y="883.0801">PanelPrincipalPage</text><text fill="#000000" font-family="sans-serif" font-size="14" lengthAdjust="spacing" textLength="47" x="303" y="900.6895">(React)</text><rect fill="#E2E2F0" height="49.2188" rx="2.5" ry="2.5" style="stroke:#181818;stroke-width:0.5;" width="166" x="478.5" y="71"/><text fill="#000000" font-family="sans-serif" font-size="14" lengthAdjust="spacing" textLength="152" x="485.5" y="92.5332">PanelPrincipalController</text><text fill="#000000" font-family="sans-serif" font-size="14" lengthAdjust="spacing" textLength="84" x="519.5" y="110.1426">(Spring Boot)</text><rect fill="#E2E2F0" height="49.2188" rx="2.5" ry="2.5" style="stroke:#181818;stroke-width:0.5;" width="166" x="478.5" y="861.5469"/><text fill="#000000" font-family="sans-serif" font-size="14" lengthAdjust="spacing" textLength="152" x="485.5" y="883.0801">PanelPrincipalController</text><text fill="#000000" font-family="sans-serif" font-size="14" lengthAdjust="spacing" textLength="84" x="519.5" y="900.6895">(Spring Boot)</text><rect fill="#E2E2F0" height="31.6094" rx="2.5" ry="2.5" style="stroke:#181818;stroke-width:0.5;" width="104" x="745.5" y="88.6094"/><text fill="#000000" font-family="sans-serif" font-size="14" lengthAdjust="spacing" textLength="90" x="752.5" y="110.1426">SesionService</text><rect fill="#E2E2F0" height="31.6094" rx="2.5" ry="2.5" style="stroke:#181818;stroke-width:0.5;" width="104" x="745.5" y="861.5469"/><text fill="#000000" font-family="sans-serif" font-size="14" lengthAdjust="spacing" textLength="90" x="752.5" y="883.0801">SesionService</text><rect fill="#E2E2F0" height="31.6094" rx="2.5" ry="2.5" style="stroke:#181818;stroke-width:0.5;" width="151" x="859.5" y="88.6094"/><text fill="#000000" font-family="sans-serif" font-size="14" lengthAdjust="spacing" textLength="137" x="866.5" y="110.1426">PanelPrincipalService</text><rect fill="#E2E2F0" height="31.6094" rx="2.5" ry="2.5" style="stroke:#181818;stroke-width:0.5;" width="151" x="859.5" y="861.5469"/><text fill="#000000" font-family="sans-serif" font-size="14" lengthAdjust="spacing" textLength="137" x="866.5" y="883.0801">PanelPrincipalService</text><rect fill="#FFFFFF" height="646.2734" style="stroke:#181818;stroke-width:1.0;" width="10" x="321.5" y="206.2734"/><rect fill="#FFFFFF" height="193.4609" style="stroke:#181818;stroke-width:1.0;" width="10" x="556.5" y="296.3281"/><rect fill="#FFFFFF" height="55.7031" style="stroke:#181818;stroke-width:1.0;" width="10" x="792.5" y="326.6797"/><rect fill="#FFFFFF" height="30.3516" style="stroke:#181818;stroke-width:1.0;" width="10" x="930" y="412.7344"/><path d="M677,136.2188 L677,178.2188 L1054,178.2188 L1054,146.2188 L1044,136.2188 L677,136.2188 " fill="#FEFFDD" style="stroke:#181818;stroke-width:0.5;"/><path d="M1044,136.2188 L1044,146.2188 L1054,146.2188 L1044,136.2188 " fill="#FEFFDD" style="stroke:#181818;stroke-width:0.5;"/><text fill="#000000" font-family="sans-serif" font-size="13" lengthAdjust="spacing" textLength="167" x="683" y="154.7139">No accede a Base de Datos:</text><text fill="#000000" font-family="sans-serif" font-size="13" lengthAdjust="spacing" textLength="356" x="683" y="171.0654">las acciones se calculan desde la sesi&#243;n y el rol autenticado.</text><polygon fill="#181818" points="309.5,202.2734,319.5,206.2734,309.5,210.2734,313.5,206.2734" style="stroke:#181818;stroke-width:1.0;"/><line style="stroke:#181818;stroke-width:1.0;" x1="61.5" x2="315.5" y1="206.2734" y2="206.2734"/><text fill="#000000" font-family="sans-serif" font-size="13" lengthAdjust="spacing" textLength="173" x="68.5" y="201.417">Solicita abrir el panel principal</text><line style="stroke:#181818;stroke-width:1.0;" x1="331.5" x2="373.5" y1="236.625" y2="236.625"/><line style="stroke:#181818;stroke-width:1.0;" x1="373.5" x2="373.5" y1="236.625" y2="249.625"/><line style="stroke:#181818;stroke-width:1.0;" x1="332.5" x2="373.5" y1="249.625" y2="249.625"/><polygon fill="#181818" points="342.5,245.625,332.5,249.625,342.5,253.625,338.5,249.625" style="stroke:#181818;stroke-width:1.0;"/><text fill="#000000" font-family="sans-serif" font-size="13" lengthAdjust="spacing" textLength="136" x="338.5" y="231.7686">Comprobar sesi&#243;n local</text><polygon fill="#181818" points="544.5,292.3281,554.5,296.3281,544.5,300.3281,548.5,296.3281" style="stroke:#181818;stroke-width:1.0;"/><line style="stroke:#181818;stroke-width:1.0;" x1="331.5" x2="550.5" y1="296.3281" y2="296.3281"/><text fill="#000000" font-family="sans-serif" font-size="13" lengthAdjust="spacing" textLength="138" x="338.5" y="275.1201">GET /api/panel-principal</text><text fill="#000000" font-family="sans-serif" font-size="13" lengthAdjust="spacing" textLength="100" x="338.5" y="291.4717">Cookie de sesi&#243;n</text><polygon fill="#181818" points="780.5,322.6797,790.5,326.6797,780.5,330.6797,784.5,326.6797" style="stroke:#181818;stroke-width:1.0;"/><line style="stroke:#181818;stroke-width:1.0;" x1="566.5" x2="786.5" y1="326.6797" y2="326.6797"/><text fill="#000000" font-family="sans-serif" font-size="13" lengthAdjust="spacing" textLength="128" x="573.5" y="321.8232">obtenerSesionActual()</text><path d="M10,341.6797 L71,341.6797 L71,350.0313 L61,360.0313 L10,360.0313 L10,341.6797 " fill="#EEEEEE" style="stroke:#000000;stroke-width:1.5;"/><rect fill="none" height="503.8672" style="stroke:#000000;stroke-width:1.5;" width="1010.5" x="10" y="341.6797"/><text fill="#000000" font-family="sans-serif" font-size="13" font-weight="bold" lengthAdjust="spacing" textLength="16" x="25" y="356.1748">alt</text><text fill="#000000" font-family="sans-serif" font-size="11" font-weight="bold" lengthAdjust="spacing" textLength="80" x="86" y="355.0986">[Sesi&#243;n activa]</text><polygon fill="#181818" points="577.5,378.3828,567.5,382.3828,577.5,386.3828,573.5,382.3828" style="stroke:#181818;stroke-width:1.0;"/><line style="stroke:#181818;stroke-width:1.0;stroke-dasharray:2.0,2.0;" x1="571.5" x2="796.5" y1="382.3828" y2="382.3828"/><text fill="#000000" font-family="sans-serif" font-size="13" lengthAdjust="spacing" textLength="202" x="583.5" y="377.5264">SesionResponse(INVESTIGADOR)</text><polygon fill="#181818" points="918,408.7344,928,412.7344,918,416.7344,922,412.7344" style="stroke:#181818;stroke-width:1.0;"/><line style="stroke:#181818;stroke-width:1.0;" x1="566.5" x2="924" y1="412.7344" y2="412.7344"/><text fill="#000000" font-family="sans-serif" font-size="13" lengthAdjust="spacing" textLength="268" x="573.5" y="407.8779">obtenerAccionesDisponibles(INVESTIGADOR)</text><polygon fill="#181818" points="577.5,439.0859,567.5,443.0859,577.5,447.0859,573.5,443.0859" style="stroke:#181818;stroke-width:1.0;"/><line style="stroke:#181818;stroke-width:1.0;stroke-dasharray:2.0,2.0;" x1="571.5" x2="934" y1="443.0859" y2="443.0859"/><text fill="#000000" font-family="sans-serif" font-size="13" lengthAdjust="spacing" textLength="147" x="583.5" y="438.2295">Acciones del Investigador</text><polygon fill="#181818" points="342.5,485.7891,332.5,489.7891,342.5,493.7891,338.5,489.7891" style="stroke:#181818;stroke-width:1.0;"/><line style="stroke:#181818;stroke-width:1.0;stroke-dasharray:2.0,2.0;" x1="336.5" x2="560.5" y1="489.7891" y2="489.7891"/><text fill="#000000" font-family="sans-serif" font-size="13" lengthAdjust="spacing" textLength="44" x="348.5" y="468.5811">200 OK</text><text fill="#000000" font-family="sans-serif" font-size="13" lengthAdjust="spacing" textLength="141" x="348.5" y="484.9326">PanelPrincipalResponse</text><line style="stroke:#181818;stroke-width:1.0;" x1="331.5" x2="373.5" y1="520.1406" y2="520.1406"/><line style="stroke:#181818;stroke-width:1.0;" x1="373.5" x2="373.5" y1="520.1406" y2="533.1406"/><line style="stroke:#181818;stroke-width:1.0;" x1="332.5" x2="373.5" y1="533.1406" y2="533.1406"/><polygon fill="#181818" points="342.5,529.1406,332.5,533.1406,342.5,537.1406,338.5,533.1406" style="stroke:#181818;stroke-width:1.0;"/><text fill="#000000" font-family="sans-serif" font-size="13" lengthAdjust="spacing" textLength="211" x="338.5" y="515.2842">Renderizar acciones del Investigador</text><polygon fill="#181818" points="72.5,559.4922,62.5,563.4922,72.5,567.4922,68.5,563.4922" style="stroke:#181818;stroke-width:1.0;"/><line style="stroke:#181818;stroke-width:1.0;stroke-dasharray:2.0,2.0;" x1="66.5" x2="320.5" y1="563.4922" y2="563.4922"/><text fill="#000000" font-family="sans-serif" font-size="13" lengthAdjust="spacing" textLength="236" x="78.5" y="558.6357">Presenta PANEL_PRINCIPAL_ABIERTO</text><path d="M336,576.4922 L336,733.4922 L499,733.4922 L499,586.4922 L489,576.4922 L336,576.4922 " fill="#FEFFDD" style="stroke:#181818;stroke-width:0.5;"/><path d="M489,576.4922 L489,586.4922 L499,586.4922 L489,576.4922 " fill="#FEFFDD" style="stroke:#181818;stroke-width:0.5;"/><text fill="#000000" font-family="sans-serif" font-size="13" lengthAdjust="spacing" textLength="58" x="342" y="594.9873">Acciones:</text><text fill="#000000" font-family="sans-serif" font-size="13" lengthAdjust="spacing" textLength="37" x="342" y="611.3389">- Perfil</text><text fill="#000000" font-family="sans-serif" font-size="13" lengthAdjust="spacing" textLength="142" x="342" y="627.6904">- Carga de trabajo propia</text><text fill="#000000" font-family="sans-serif" font-size="13" lengthAdjust="spacing" textLength="67" x="342" y="644.042">- Proyectos</text><text fill="#000000" font-family="sans-serif" font-size="13" lengthAdjust="spacing" textLength="90" x="342" y="660.3936">- Investigadores</text><text fill="#000000" font-family="sans-serif" font-size="13" lengthAdjust="spacing" textLength="112" x="342" y="676.7451">- Mis publicaciones</text><text fill="#000000" font-family="sans-serif" font-size="13" lengthAdjust="spacing" textLength="89" x="342" y="693.0967">- Publicaciones</text><text fill="#000000" font-family="sans-serif" font-size="13" lengthAdjust="spacing" textLength="91" x="342" y="709.4482">- Recompensas</text><text fill="#000000" font-family="sans-serif" font-size="13" lengthAdjust="spacing" textLength="85" x="342" y="725.7998">- Cerrar sesi&#243;n</text><line style="stroke:#000000;stroke-width:1.0;stroke-dasharray:2.0,2.0;" x1="10" x2="1020.5" y1="739.6563" y2="739.6563"/><text fill="#000000" font-family="sans-serif" font-size="11" font-weight="bold" lengthAdjust="spacing" textLength="158" x="15" y="751.0752">[Sesi&#243;n ausente o caducada]</text><polygon fill="#181818" points="572.5,772.8438,562.5,776.8438,572.5,780.8438,568.5,776.8438" style="stroke:#181818;stroke-width:1.0;"/><line style="stroke:#181818;stroke-width:1.0;stroke-dasharray:2.0,2.0;" x1="566.5" x2="796.5" y1="776.8438" y2="776.8438"/><text fill="#000000" font-family="sans-serif" font-size="13" lengthAdjust="spacing" textLength="150" x="578.5" y="771.9873">SesionNoValidaException</text><polygon fill="#181818" points="342.5,803.1953,332.5,807.1953,342.5,811.1953,338.5,807.1953" style="stroke:#181818;stroke-width:1.0;"/><line style="stroke:#181818;stroke-width:1.0;stroke-dasharray:2.0,2.0;" x1="336.5" x2="560.5" y1="807.1953" y2="807.1953"/><text fill="#000000" font-family="sans-serif" font-size="13" lengthAdjust="spacing" textLength="101" x="348.5" y="802.3389">401 Unauthorized</text><polygon fill="#181818" points="72.5,833.5469,62.5,837.5469,72.5,841.5469,68.5,837.5469" style="stroke:#181818;stroke-width:1.0;"/><line style="stroke:#181818;stroke-width:1.0;stroke-dasharray:2.0,2.0;" x1="66.5" x2="320.5" y1="837.5469" y2="837.5469"/><text fill="#000000" font-family="sans-serif" font-size="13" lengthAdjust="spacing" textLength="175" x="78.5" y="832.6904">Presenta SESION_CERRADA</text><!--SRC=[XLJDRjim3BxxAOYUMc1Pks6d70QuZbSOwnB3xdegK30scsfJ9KEIWtMljKVOYusI_-Akom8ua2ZouoT-f9nmac0bS6Vm2Q4ci5Irf2g1i81uQuI11XL9Q8nWQuEIdIHaQa_MYHtMsaGHLawRkQr1uuJtLmvESe-G3m0vxkXEdHR4OMSdW1O-6QqSgVfOLC8kHaj9XcDBpsO7brht274Zvi4bMQ5LIMOlAWekdULOYaFlS195IZi2lIVJXx_f3zOQiAg8wuLmYPPyvLRej5r6agFvZ9t9SZMXGbcr4XMxMFQIo4OhVlzIy0nSIRuJOCktPrPSkRSHrm5ysYWwB2WiFevbMaAf9T_18M1GoCip5ybB8lR8vCVQ3eivKgAV6gEtQ4PMKZFZcJSNTmbNwGsSOoFEGwR5cEbE9Lf_5zJrJe2OadjP-FCWNVsMeBSCIwRRnfLhKPwUJH6zIYXTM7f2tLa4_EjEOJ6GwlO5sKOhIwVP-ZOjRxAhUBKfpa90JI-HlRMd5AGS6SMzPYlXqSHMadq5S8Jh-i2RmchYDE3yFISl24q8WSzCblSN5x3vVAVc3JfSz2MIBxCtlIvnmVzan4_M68zocy8v_l1q2RaXoosAaCVhzFe-Bx9rakNnzNrycQN5pIOA065QZDWzEj0FK-U5A_QPbs6tW9pCWv3z9a6p2u-FCxZ5RvhxM3S21rUZdubV6Dll3vdHOFmYB3JjbiS2kqH3y2ksWYhkUb8M1qj2namZ48pZ69AqDFLYwyl0JmAFTTtoTwmlr_eMfQWn_L5HuuRcEzAICza-NBo3hugVXaVDub7zVz7_hLgPbjbcVP-aHH6lOl_4HD41r03n1m00]--></g></svg>