<svg xmlns="http://www.w3.org/2000/svg" xmlns:xlink="http://www.w3.org/1999/xlink" contentStyleType="text/css" data-diagram-type="SEQUENCE" height="891px" preserveAspectRatio="none" style="width:1044px;height:891px;background:#FFFFFF;" version="1.1" viewBox="0 0 1044 891" width="1044px" zoomAndPan="magnify"><title>Diagrama de secuencia - Abrir panel principal del Investigador</title><defs/><g><text fill="#000000" font-family="sans-serif" font-size="14" font-weight="bold" lengthAdjust="spacing" textLength="415.4609" x="315.553" y="29.5332">Diagrama de secuencia - Abrir panel principal del Investigador</text><g><title>PanelPrincipalPage</title><rect fill="#FFFFFF" height="646.2734" style="stroke:#181818;stroke-width:1;" width="10" x="323.5649" y="153.5703"/></g><g><title>PanelPrincipalController</title><rect fill="#FFFFFF" height="193.4609" style="stroke:#181818;stroke-width:1;" width="10" x="571.4619" y="243.625"/></g><g><title>SesionService</title><rect fill="#FFFFFF" height="55.7031" style="stroke:#181818;stroke-width:1;" width="10" x="810.6436" y="273.9766"/></g><g><title>PanelPrincipalService</title><rect fill="#FFFFFF" height="30.3516" style="stroke:#181818;stroke-width:1;" width="10" x="947.4775" y="360.0313"/></g><rect fill="none" height="503.8672" style="stroke:#000000;stroke-width:1.5;" width="1027.5669" x="10" y="288.9766"/><g><title>Investigador</title><rect fill="#000000" fill-opacity="0.00000" height="688.625" width="8" x="57.1343" y="121.2188"/><line style="stroke:#181818;stroke-width:0.5;stroke-dasharray:5,5;" x1="61" x2="61" y1="121.2188" y2="809.8438"/></g><g><title>PanelPrincipalPage</title><rect fill="#000000" fill-opacity="0.00000" height="688.625" width="8" x="324.5649" y="121.2188"/><line style="stroke:#181818;stroke-width:0.5;stroke-dasharray:5,5;" x1="328.4688" x2="328.4688" y1="121.2188" y2="809.8438"/></g><g><title>PanelPrincipalController</title><rect fill="#000000" fill-opacity="0.00000" height="688.625" width="8" x="572.4619" y="121.2188"/><line style="stroke:#181818;stroke-width:0.5;stroke-dasharray:5,5;" x1="576.3691" x2="576.3691" y1="121.2188" y2="809.8438"/></g><g><title>SesionService</title><rect fill="#000000" fill-opacity="0.00000" height="688.625" width="8" x="811.6436" y="121.2188"/><line style="stroke:#181818;stroke-width:0.5;stroke-dasharray:5,5;" x1="814.8989" x2="814.8989" y1="121.2188" y2="809.8438"/></g><g><title>PanelPrincipalService</title><rect fill="#000000" fill-opacity="0.00000" height="688.625" width="8" x="948.4775" y="121.2188"/><line style="stroke:#181818;stroke-width:0.5;stroke-dasharray:5,5;" x1="952.3882" x2="952.3882" y1="121.2188" y2="809.8438"/></g><g class="participant participant-head" data-participant="Investigador"><text fill="#000000" font-family="sans-serif" font-size="14" lengthAdjust="spacing" textLength="76.2686" x="20" y="118.1426">Investigador</text><ellipse cx="61.1343" cy="52.1094" fill="#E2E2F0" rx="8" ry="8" style="stroke:#181818;stroke-width:0.5;"/><path d="M61.1343,60.1094 L61.1343,87.1094 M48.1343,68.1094 L74.1343,68.1094 M61.1343,87.1094 L48.1343,102.1094 M61.1343,87.1094 L74.1343,102.1094" fill="none" style="stroke:#181818;stroke-width:0.5;"/></g><g class="participant participant-tail" data-participant="Investigador"><text fill="#000000" font-family="sans-serif" font-size="14" lengthAdjust="spacing" textLength="76.2686" x="20" y="823.377">Investigador</text><ellipse cx="61.1343" cy="834.9531" fill="#E2E2F0" rx="8" ry="8" style="stroke:#181818;stroke-width:0.5;"/><path d="M61.1343,842.9531 L61.1343,869.9531 M48.1343,850.9531 L74.1343,850.9531 M61.1343,869.9531 L48.1343,884.9531 M61.1343,869.9531 L74.1343,884.9531" fill="none" style="stroke:#181818;stroke-width:0.5;"/></g><g class="participant participant-head" data-participant="Frontend"><rect fill="#E2E2F0" height="49.2188" rx="2.5" ry="2.5" style="stroke:#181818;stroke-width:0.5;" width="136.1924" x="260.4688" y="71"/><text fill="#000000" font-family="sans-serif" font-size="14" lengthAdjust="spacing" textLength="122.1924" x="267.4688" y="92.5332">PanelPrincipalPage</text><text fill="#000000" font-family="sans-serif" font-size="14" lengthAdjust="spacing" textLength="45.8965" x="305.6167" y="110.1426">(React)</text></g><g class="participant participant-tail" data-participant="Frontend"><rect fill="#E2E2F0" height="49.2188" rx="2.5" ry="2.5" style="stroke:#181818;stroke-width:0.5;" width="136.1924" x="260.4688" y="808.8438"/><text fill="#000000" font-family="sans-serif" font-size="14" lengthAdjust="spacing" textLength="122.1924" x="267.4688" y="830.377">PanelPrincipalPage</text><text fill="#000000" font-family="sans-serif" font-size="14" lengthAdjust="spacing" textLength="45.8965" x="305.6167" y="847.9863">(React)</text></g><g class="participant participant-head" data-participant="Api"><rect fill="#E2E2F0" height="49.2188" rx="2.5" ry="2.5" style="stroke:#181818;stroke-width:0.5;" width="164.1855" x="494.3691" y="71"/><text fill="#000000" font-family="sans-serif" font-size="14" lengthAdjust="spacing" textLength="150.1855" x="501.3691" y="92.5332">PanelPrincipalController</text><text fill="#000000" font-family="sans-serif" font-size="14" lengthAdjust="spacing" textLength="82.4824" x="535.2207" y="110.1426">(Spring Boot)</text></g><g class="participant participant-tail" data-participant="Api"><rect fill="#E2E2F0" height="49.2188" rx="2.5" ry="2.5" style="stroke:#181818;stroke-width:0.5;" width="164.1855" x="494.3691" y="808.8438"/><text fill="#000000" font-family="sans-serif" font-size="14" lengthAdjust="spacing" textLength="150.1855" x="501.3691" y="830.377">PanelPrincipalController</text><text fill="#000000" font-family="sans-serif" font-size="14" lengthAdjust="spacing" textLength="82.4824" x="535.2207" y="847.9863">(Spring Boot)</text></g><g class="participant participant-head" data-participant="Sesion"><rect fill="#E2E2F0" height="31.6094" rx="2.5" ry="2.5" style="stroke:#181818;stroke-width:0.5;" width="103.4893" x="763.8989" y="88.6094"/><text fill="#000000" font-family="sans-serif" font-size="14" lengthAdjust="spacing" textLength="89.4893" x="770.8989" y="110.1426">SesionService</text></g><g class="participant participant-tail" data-participant="Sesion"><rect fill="#E2E2F0" height="31.6094" rx="2.5" ry="2.5" style="stroke:#181818;stroke-width:0.5;" width="103.4893" x="763.8989" y="808.8438"/><text fill="#000000" font-family="sans-serif" font-size="14" lengthAdjust="spacing" textLength="89.4893" x="770.8989" y="830.377">SesionService</text></g><g class="participant participant-head" data-participant="Panel"><rect fill="#E2E2F0" height="31.6094" rx="2.5" ry="2.5" style="stroke:#181818;stroke-width:0.5;" width="150.1787" x="877.3882" y="88.6094"/><text fill="#000000" font-family="sans-serif" font-size="14" lengthAdjust="spacing" textLength="136.1787" x="884.3882" y="110.1426">PanelPrincipalService</text></g><g class="participant participant-tail" data-participant="Panel"><rect fill="#E2E2F0" height="31.6094" rx="2.5" ry="2.5" style="stroke:#181818;stroke-width:0.5;" width="150.1787" x="877.3882" y="808.8438"/><text fill="#000000" font-family="sans-serif" font-size="14" lengthAdjust="spacing" textLength="136.1787" x="884.3882" y="830.377">PanelPrincipalService</text></g><g><title>PanelPrincipalPage</title><rect fill="#FFFFFF" height="646.2734" style="stroke:#181818;stroke-width:1;" width="10" x="323.5649" y="153.5703"/></g><g><title>PanelPrincipalController</title><rect fill="#FFFFFF" height="193.4609" style="stroke:#181818;stroke-width:1;" width="10" x="571.4619" y="243.625"/></g><g><title>SesionService</title><rect fill="#FFFFFF" height="55.7031" style="stroke:#181818;stroke-width:1;" width="10" x="810.6436" y="273.9766"/></g><g><title>PanelPrincipalService</title><rect fill="#FFFFFF" height="30.3516" style="stroke:#181818;stroke-width:1;" width="10" x="947.4775" y="360.0313"/></g><g class="message" data-participant-1="Investigador" data-participant-2="Frontend"><polygon fill="#181818" points="311.5649,149.5703,321.5649,153.5703,311.5649,157.5703,315.5649,153.5703" style="stroke:#181818;stroke-width:1;"/><line style="stroke:#181818;stroke-width:1;" x1="61.1343" x2="317.5649" y1="153.5703" y2="153.5703"/><text fill="#000000" font-family="sans-serif" font-size="13" lengthAdjust="spacing" textLength="172.7007" x="68.1343" y="148.7139">Solicita abrir el panel principal</text></g><g class="message" data-participant-1="Frontend" data-participant-2="Frontend"><line style="stroke:#181818;stroke-width:1;" x1="333.5649" x2="375.5649" y1="183.9219" y2="183.9219"/><line style="stroke:#181818;stroke-width:1;" x1="375.5649" x2="375.5649" y1="183.9219" y2="196.9219"/><line style="stroke:#181818;stroke-width:1;" x1="334.5649" x2="375.5649" y1="196.9219" y2="196.9219"/><polygon fill="#181818" points="344.5649,192.9219,334.5649,196.9219,344.5649,200.9219,340.5649,196.9219" style="stroke:#181818;stroke-width:1;"/><text fill="#000000" font-family="sans-serif" font-size="13" lengthAdjust="spacing" textLength="142.3335" x="340.5649" y="179.0654">Comprobar sesi&#195;&#179;n local</text></g><g class="message" data-participant-1="Frontend" data-participant-2="Api"><polygon fill="#181818" points="559.4619,239.625,569.4619,243.625,559.4619,247.625,563.4619,243.625" style="stroke:#181818;stroke-width:1;"/><line style="stroke:#181818;stroke-width:1;" x1="333.5649" x2="565.4619" y1="243.625" y2="243.625"/><text fill="#000000" font-family="sans-serif" font-size="13" lengthAdjust="spacing" textLength="139.458" x="340.5649" y="222.417">GET /api/panel-principal</text><text fill="#000000" font-family="sans-serif" font-size="13" lengthAdjust="spacing" textLength="105.498" x="340.5649" y="238.7686">Cookie de sesi&#195;&#179;n</text></g><g class="message" data-participant-1="Api" data-participant-2="Sesion"><polygon fill="#181818" points="798.6436,269.9766,808.6436,273.9766,798.6436,277.9766,802.6436,273.9766" style="stroke:#181818;stroke-width:1;"/><line style="stroke:#181818;stroke-width:1;" x1="581.4619" x2="804.6436" y1="273.9766" y2="273.9766"/><text fill="#000000" font-family="sans-serif" font-size="13" lengthAdjust="spacing" textLength="128.6289" x="588.4619" y="269.1201">obtenerSesionActual()</text></g><path d="M10,288.9766 L70.1709,288.9766 L70.1709,297.3281 L60.1709,307.3281 L10,307.3281 L10,288.9766" fill="#EEEEEE" style="stroke:#000000;stroke-width:1.5;"/><rect fill="none" height="503.8672" style="stroke:#000000;stroke-width:1.5;" width="1027.5669" x="10" y="288.9766"/><text fill="#000000" font-family="sans-serif" font-size="13" font-weight="bold" lengthAdjust="spacing" textLength="15.1709" x="25" y="303.4717">alt</text><text fill="#000000" font-family="sans-serif" font-size="11" font-weight="bold" lengthAdjust="spacing" textLength="82.5269" x="85.1709" y="302.3955">[Sesi&#195;&#179;n activa]</text><g class="message" data-participant-1="Sesion" data-participant-2="Api"><polygon fill="#181818" points="592.4619,325.6797,582.4619,329.6797,592.4619,333.6797,588.4619,329.6797" style="stroke:#181818;stroke-width:1;"/><line style="stroke:#181818;stroke-width:1;stroke-dasharray:2,2;" x1="586.4619" x2="814.6436" y1="329.6797" y2="329.6797"/><text fill="#000000" font-family="sans-serif" font-size="13" lengthAdjust="spacing" textLength="205.1816" x="598.4619" y="324.8232">SesionResponse(INVESTIGADOR)</text></g><g class="message" data-participant-1="Api" data-participant-2="Panel"><polygon fill="#181818" points="935.4775,356.0313,945.4775,360.0313,935.4775,364.0313,939.4775,360.0313" style="stroke:#181818;stroke-width:1;"/><line style="stroke:#181818;stroke-width:1;" x1="581.4619" x2="941.4775" y1="360.0313" y2="360.0313"/><text fill="#000000" font-family="sans-serif" font-size="13" lengthAdjust="spacing" textLength="270.937" x="588.4619" y="355.1748">obtenerAccionesDisponibles(INVESTIGADOR)</text></g><g class="message" data-participant-1="Panel" data-participant-2="Api"><polygon fill="#181818" points="592.4619,386.3828,582.4619,390.3828,592.4619,394.3828,588.4619,390.3828" style="stroke:#181818;stroke-width:1;"/><line style="stroke:#181818;stroke-width:1;stroke-dasharray:2,2;" x1="586.4619" x2="951.4775" y1="390.3828" y2="390.3828"/><text fill="#000000" font-family="sans-serif" font-size="13" lengthAdjust="spacing" textLength="148.1416" x="598.4619" y="385.5264">Acciones del Investigador</text></g><g class="message" data-participant-1="Api" data-participant-2="Frontend"><polygon fill="#181818" points="344.5649,433.0859,334.5649,437.0859,344.5649,441.0859,340.5649,437.0859" style="stroke:#181818;stroke-width:1;"/><line style="stroke:#181818;stroke-width:1;stroke-dasharray:2,2;" x1="338.5649" x2="575.4619" y1="437.0859" y2="437.0859"/><text fill="#000000" font-family="sans-serif" font-size="13" lengthAdjust="spacing" textLength="44.0845" x="350.5649" y="415.8779">200 OK</text><text fill="#000000" font-family="sans-serif" font-size="13" lengthAdjust="spacing" textLength="141.6416" x="350.5649" y="432.2295">PanelPrincipalResponse</text></g><g class="message" data-participant-1="Frontend" data-participant-2="Frontend"><line style="stroke:#181818;stroke-width:1;" x1="333.5649" x2="375.5649" y1="467.4375" y2="467.4375"/><line style="stroke:#181818;stroke-width:1;" x1="375.5649" x2="375.5649" y1="467.4375" y2="480.4375"/><line style="stroke:#181818;stroke-width:1;" x1="334.5649" x2="375.5649" y1="480.4375" y2="480.4375"/><polygon fill="#181818" points="344.5649,476.4375,334.5649,480.4375,344.5649,484.4375,340.5649,480.4375" style="stroke:#181818;stroke-width:1;"/><text fill="#000000" font-family="sans-serif" font-size="13" lengthAdjust="spacing" textLength="213.897" x="340.5649" y="462.5811">Renderizar acciones del Investigador</text></g><g class="message" data-participant-1="Frontend" data-participant-2="Investigador"><polygon fill="#181818" points="72.1343,506.7891,62.1343,510.7891,72.1343,514.7891,68.1343,510.7891" style="stroke:#181818;stroke-width:1;"/><line style="stroke:#181818;stroke-width:1;stroke-dasharray:2,2;" x1="66.1343" x2="322.5649" y1="510.7891" y2="510.7891"/><text fill="#000000" font-family="sans-serif" font-size="13" lengthAdjust="spacing" textLength="238.4307" x="78.1343" y="505.9326">Presenta PANEL_PRINCIPAL_ABIERTO</text></g><path d="M338,523.7891 L338,680.7891 L503,680.7891 L503,533.7891 L493,523.7891 L338,523.7891" fill="#FEFFDD" style="stroke:#181818;stroke-width:0.5;"/><path d="M493,523.7891 L493,533.7891 L503,533.7891 L493,523.7891" fill="#FEFFDD" style="stroke:#181818;stroke-width:0.5;"/><text fill="#000000" font-family="sans-serif" font-size="13" lengthAdjust="spacing" textLength="56.3608" x="344" y="542.2842">Acciones:</text><text fill="#000000" font-family="sans-serif" font-size="13" lengthAdjust="spacing" textLength="37.5591" x="344" y="558.6357">- Perfil</text><text fill="#000000" font-family="sans-serif" font-size="13" lengthAdjust="spacing" textLength="144.5298" x="344" y="574.9873">- Carga de trabajo propia</text><text fill="#000000" font-family="sans-serif" font-size="13" lengthAdjust="spacing" textLength="65.7427" x="344" y="591.3389">- Proyectos</text><text fill="#000000" font-family="sans-serif" font-size="13" lengthAdjust="spacing" textLength="92.4917" x="344" y="607.6904">- Investigadores</text><text fill="#000000" font-family="sans-serif" font-size="13" lengthAdjust="spacing" textLength="110.5444" x="344" y="624.042">- Mis publicaciones</text><text fill="#000000" font-family="sans-serif" font-size="13" lengthAdjust="spacing" textLength="88.1563" x="344" y="640.3936">- Publicaciones</text><text fill="#000000" font-family="sans-serif" font-size="13" lengthAdjust="spacing" textLength="91.0381" x="344" y="656.7451">- Recompensas</text><text fill="#000000" font-family="sans-serif" font-size="13" lengthAdjust="spacing" textLength="91.7363" x="344" y="673.0967">- Cerrar sesi&#195;&#179;n</text><line style="stroke:#000000;stroke-width:1;stroke-dasharray:2,2;" x1="10" x2="1037.5669" y1="686.9531" y2="686.9531"/><text fill="#000000" font-family="sans-serif" font-size="11" font-weight="bold" lengthAdjust="spacing" textLength="156.4868" x="15" y="698.3721">[Sesi&#195;&#179;n ausente o caducada]</text><g class="message" data-participant-1="Sesion" data-participant-2="Api"><polygon fill="#181818" points="587.4619,720.1406,577.4619,724.1406,587.4619,728.1406,583.4619,724.1406" style="stroke:#181818;stroke-width:1;"/><line style="stroke:#181818;stroke-width:1;stroke-dasharray:2,2;" x1="581.4619" x2="814.6436" y1="724.1406" y2="724.1406"/><text fill="#000000" font-family="sans-serif" font-size="13" lengthAdjust="spacing" textLength="149.5952" x="593.4619" y="719.2842">SesionNoValidaException</text></g><g class="message" data-participant-1="Api" data-participant-2="Frontend"><polygon fill="#181818" points="344.5649,750.4922,334.5649,754.4922,344.5649,758.4922,340.5649,754.4922" style="stroke:#181818;stroke-width:1;"/><line style="stroke:#181818;stroke-width:1;stroke-dasharray:2,2;" x1="338.5649" x2="575.4619" y1="754.4922" y2="754.4922"/><text fill="#000000" font-family="sans-serif" font-size="13" lengthAdjust="spacing" textLength="102.6289" x="350.5649" y="749.6357">401 Unauthorized</text></g><g class="message" data-participant-1="Frontend" data-participant-2="Investigador"><polygon fill="#181818" points="72.1343,780.8438,62.1343,784.8438,72.1343,788.8438,68.1343,784.8438" style="stroke:#181818;stroke-width:1;"/><line style="stroke:#181818;stroke-width:1;stroke-dasharray:2,2;" x1="66.1343" x2="322.5649" y1="784.8438" y2="784.8438"/><text fill="#000000" font-family="sans-serif" font-size="13" lengthAdjust="spacing" textLength="175.5635" x="78.1343" y="779.9873">Presenta SESION_CERRADA</text></g><!--SRC=[XLJ1Zfim4Btp5QCz9OTeqwgd72gnXAvGjmc2T4-HeW5ciswzDhATgEsrdzG_Q7-ije40sJH50jdZcJTltemnp7229SEzmXU4Ya1JUI1HCeGPX8LY2ceKnA5Mp5fhvDQ9GoAEf0tROoLL461ff1hRQbI6ENzXu2Pr26a7aEAUjcAIaGsRtW1g-A2aC2IgQr6HTL6ISr8sDdTizd0dPOiGrcmSd9DcKkIaZgmaxz9OhgKOUlkJ81ZM1BFt9wOBo2MtC0O1lKXEeR5EJXLsH4DzUTrYZ1J9brh90fNLNhC_Ft__4i1bQH66_hR21Tp76xZ5cjtwNBDJhgs8fFpAg6bW2z8JSEhOry4qAYn05XQOLBCDItD0Ffds4QrOo8rVDgIQqm3iqvp3h2FMx3FIjHIQ9idgCSutoNsuN6TJ7r3HERQpjgIys2TEOLdQSz9Bvj1OmKbV03p1DPro9h_gENKuhmVsZ52FuFcCclDsFeVrnwqOJqfNw3cI4zgPBZSwirzIx8VjD5xbreVR-E7f0b95ceGTkpHSnG-xD4jMKPA63xlmBecppJhm049QCehjdmt8ftx-V8bjveNVpI0bzSHukubGxVrVm2Wiy8kqqonhXfshaj_9NdNTxeVCg3D-OXhgGs4l1pQ9kk0BjenAE_iaD7QMY9GQNWHlTaguYWBYceRpU71I44WeiJhOzzfihkGZSbPX_AsasdG3U6KiHwrxDty3dmKUpBEq3QJg_ut_T-VoE4_MgrqKPrcu30FNc600rK7y1G00]--></g></svg>