<svg xmlns="http://www.w3.org/2000/svg" xmlns:xlink="http://www.w3.org/1999/xlink" contentStyleType="text/css" height="944px" preserveAspectRatio="none" style="width:1010px;height:944px;background:#FFFFFF;" version="1.1" viewBox="0 0 1010 944" width="1010px" zoomAndPan="magnify"><title>Diagrama de secuencia - Abrir panel principal del Investigador</title><defs/><g><text fill="#000000" font-family="sans-serif" font-size="14" font-weight="bold" lengthAdjust="spacing" textLength="415.4609" x="296.0125" y="29.5332">Diagrama de secuencia - Abrir panel principal del Investigador</text><rect fill="#FFFFFF" height="646.2734" style="stroke:#181818;stroke-width:1;" width="10" x="323.5649" y="206.2734"/><rect fill="#FFFFFF" height="193.4609" style="stroke:#181818;stroke-width:1;" width="10" x="571.4619" y="296.3281"/><rect fill="#FFFFFF" height="55.7031" style="stroke:#181818;stroke-width:1;" width="10" x="745.0571" y="326.6797"/><rect fill="#FFFFFF" height="30.3516" style="stroke:#181818;stroke-width:1;" width="10" x="881.8911" y="412.7344"/><rect fill="none" height="503.8672" style="stroke:#000000;stroke-width:1.5;" width="961.9805" x="10" y="341.6797"/><line style="stroke:#181818;stroke-width:0.5;stroke-dasharray:5.0,5.0;" x1="61" x2="61" y1="121.2188" y2="862.5469"/><line style="stroke:#181818;stroke-width:0.5;stroke-dasharray:5.0,5.0;" x1="328.4688" x2="328.4688" y1="121.2188" y2="862.5469"/><line style="stroke:#181818;stroke-width:0.5;stroke-dasharray:5.0,5.0;" x1="576.3691" x2="576.3691" y1="121.2188" y2="862.5469"/><line style="stroke:#181818;stroke-width:0.5;stroke-dasharray:5.0,5.0;" x1="749.3125" x2="749.3125" y1="121.2188" y2="862.5469"/><line style="stroke:#181818;stroke-width:0.5;stroke-dasharray:5.0,5.0;" x1="886.8018" x2="886.8018" y1="121.2188" y2="862.5469"/><text fill="#000000" font-family="sans-serif" font-size="14" lengthAdjust="spacing" textLength="76.2686" x="20" y="118.1426">Investigador</text><ellipse cx="61.1343" cy="52.1094" fill="#E2E2F0" rx="8" ry="8" style="stroke:#181818;stroke-width:0.5;"/><path d="M61.1343,60.1094 L61.1343,87.1094 M48.1343,68.1094 L74.1343,68.1094 M61.1343,87.1094 L48.1343,102.1094 M61.1343,87.1094 L74.1343,102.1094 " fill="none" style="stroke:#181818;stroke-width:0.5;"/><text fill="#000000" font-family="sans-serif" font-size="14" lengthAdjust="spacing" textLength="76.2686" x="20" y="876.0801">Investigador</text><ellipse cx="61.1343" cy="887.6563" fill="#E2E2F0" rx="8" ry="8" style="stroke:#181818;stroke-width:0.5;"/><path d="M61.1343,895.6563 L61.1343,922.6563 M48.1343,903.6563 L74.1343,903.6563 M61.1343,922.6563 L48.1343,937.6563 M61.1343,922.6563 L74.1343,937.6563 " fill="none" style="stroke:#181818;stroke-width:0.5;"/><rect fill="#E2E2F0" height="49.2188" rx="2.5" ry="2.5" style="stroke:#181818;stroke-width:0.5;" width="136.1924" x="260.4688" y="71"/><text fill="#000000" font-family="sans-serif" font-size="14" lengthAdjust="spacing" textLength="122.1924" x="267.4688" y="92.5332">PanelPrincipalPage</text><text fill="#000000" font-family="sans-serif" font-size="14" lengthAdjust="spacing" textLength="45.8965" x="305.6167" y="110.1426">(React)</text><rect fill="#E2E2F0" height="49.2188" rx="2.5" ry="2.5" style="stroke:#181818;stroke-width:0.5;" width="136.1924" x="260.4688" y="861.5469"/><text fill="#000000" font-family="sans-serif" font-size="14" lengthAdjust="spacing" textLength="122.1924" x="267.4688" y="883.0801">PanelPrincipalPage</text><text fill="#000000" font-family="sans-serif" font-size="14" lengthAdjust="spacing" textLength="45.8965" x="305.6167" y="900.6895">(React)</text><rect fill="#E2E2F0" height="49.2188" rx="2.5" ry="2.5" style="stroke:#181818;stroke-width:0.5;" width="164.1855" x="494.3691" y="71"/><text fill="#000000" font-family="sans-serif" font-size="14" lengthAdjust="spacing" textLength="150.1855" x="501.3691" y="92.5332">PanelPrincipalController</text><text fill="#000000" font-family="sans-serif" font-size="14" lengthAdjust="spacing" textLength="82.4824" x="535.2207" y="110.1426">(Spring Boot)</text><rect fill="#E2E2F0" height="49.2188" rx="2.5" ry="2.5" style="stroke:#181818;stroke-width:0.5;" width="164.1855" x="494.3691" y="861.5469"/><text fill="#000000" font-family="sans-serif" font-size="14" lengthAdjust="spacing" textLength="150.1855" x="501.3691" y="883.0801">PanelPrincipalController</text><text fill="#000000" font-family="sans-serif" font-size="14" lengthAdjust="spacing" textLength="82.4824" x="535.2207" y="900.6895">(Spring Boot)</text><rect fill="#E2E2F0" height="31.6094" rx="2.5" ry="2.5" style="stroke:#181818;stroke-width:0.5;" width="103.4893" x="698.3125" y="88.6094"/><text fill="#000000" font-family="sans-serif" font-size="14" lengthAdjust="spacing" textLength="89.4893" x="705.3125" y="110.1426">SesionService</text><rect fill="#E2E2F0" height="31.6094" rx="2.5" ry="2.5" style="stroke:#181818;stroke-width:0.5;" width="103.4893" x="698.3125" y="861.5469"/><text fill="#000000" font-family="sans-serif" font-size="14" lengthAdjust="spacing" textLength="89.4893" x="705.3125" y="883.0801">SesionService</text><rect fill="#E2E2F0" height="31.6094" rx="2.5" ry="2.5" style="stroke:#181818;stroke-width:0.5;" width="150.1787" x="811.8018" y="88.6094"/><text fill="#000000" font-family="sans-serif" font-size="14" lengthAdjust="spacing" textLength="136.1787" x="818.8018" y="110.1426">PanelPrincipalService</text><rect fill="#E2E2F0" height="31.6094" rx="2.5" ry="2.5" style="stroke:#181818;stroke-width:0.5;" width="150.1787" x="811.8018" y="861.5469"/><text fill="#000000" font-family="sans-serif" font-size="14" lengthAdjust="spacing" textLength="136.1787" x="818.8018" y="883.0801">PanelPrincipalService</text><rect fill="#FFFFFF" height="646.2734" style="stroke:#181818;stroke-width:1;" width="10" x="323.5649" y="206.2734"/><rect fill="#FFFFFF" height="193.4609" style="stroke:#181818;stroke-width:1;" width="10" x="571.4619" y="296.3281"/><rect fill="#FFFFFF" height="55.7031" style="stroke:#181818;stroke-width:1;" width="10" x="745.0571" y="326.6797"/><rect fill="#FFFFFF" height="30.3516" style="stroke:#181818;stroke-width:1;" width="10" x="881.8911" y="412.7344"/><path d="M632,136.2188 L632,178.2188 L1003,178.2188 L1003,146.2188 L993,136.2188 L632,136.2188 " fill="#FEFFDD" style="stroke:#181818;stroke-width:0.5;"/><path d="M993,136.2188 L993,146.2188 L1003,146.2188 L993,136.2188 " fill="#FEFFDD" style="stroke:#181818;stroke-width:0.5;"/><text fill="#000000" font-family="sans-serif" font-size="13" lengthAdjust="spacing" textLength="165.4897" x="638" y="154.7139">No accede a Base de Datos:</text><text fill="#000000" font-family="sans-serif" font-size="13" lengthAdjust="spacing" textLength="350.4858" x="638" y="171.0654">las acciones se calculan desde la sesi&#243;n y el rol autenticado.</text><polygon fill="#181818" points="311.5649,202.2734,321.5649,206.2734,311.5649,210.2734,315.5649,206.2734" style="stroke:#181818;stroke-width:1;"/><line style="stroke:#181818;stroke-width:1;" x1="61.1343" x2="317.5649" y1="206.2734" y2="206.2734"/><text fill="#000000" font-family="sans-serif" font-size="13" lengthAdjust="spacing" textLength="172.7007" x="68.1343" y="201.417">Solicita abrir el panel principal</text><line style="stroke:#181818;stroke-width:1;" x1="333.5649" x2="375.5649" y1="236.625" y2="236.625"/><line style="stroke:#181818;stroke-width:1;" x1="375.5649" x2="375.5649" y1="236.625" y2="249.625"/><line style="stroke:#181818;stroke-width:1;" x1="334.5649" x2="375.5649" y1="249.625" y2="249.625"/><polygon fill="#181818" points="344.5649,245.625,334.5649,249.625,344.5649,253.625,340.5649,249.625" style="stroke:#181818;stroke-width:1;"/><text fill="#000000" font-family="sans-serif" font-size="13" lengthAdjust="spacing" textLength="136.5635" x="340.5649" y="231.7686">Comprobar sesi&#243;n local</text><polygon fill="#181818" points="559.4619,292.3281,569.4619,296.3281,559.4619,300.3281,563.4619,296.3281" style="stroke:#181818;stroke-width:1;"/><line style="stroke:#181818;stroke-width:1;" x1="333.5649" x2="565.4619" y1="296.3281" y2="296.3281"/><text fill="#000000" font-family="sans-serif" font-size="13" lengthAdjust="spacing" textLength="139.458" x="340.5649" y="275.1201">GET /api/panel-principal</text><text fill="#000000" font-family="sans-serif" font-size="13" lengthAdjust="spacing" textLength="99.728" x="340.5649" y="291.4717">Cookie de sesi&#243;n</text><polygon fill="#181818" points="733.0571,322.6797,743.0571,326.6797,733.0571,330.6797,737.0571,326.6797" style="stroke:#181818;stroke-width:1;"/><line style="stroke:#181818;stroke-width:1;" x1="581.4619" x2="739.0571" y1="326.6797" y2="326.6797"/><text fill="#000000" font-family="sans-serif" font-size="13" lengthAdjust="spacing" textLength="128.6289" x="588.4619" y="321.8232">obtenerSesionActual()</text><path d="M10,341.6797 L70.1709,341.6797 L70.1709,350.0313 L60.1709,360.0313 L10,360.0313 L10,341.6797 " fill="#EEEEEE" style="stroke:#000000;stroke-width:1.5;"/><rect fill="none" height="503.8672" style="stroke:#000000;stroke-width:1.5;" width="961.9805" x="10" y="341.6797"/><text fill="#000000" font-family="sans-serif" font-size="13" font-weight="bold" lengthAdjust="spacing" textLength="15.1709" x="25" y="356.1748">alt</text><text fill="#000000" font-family="sans-serif" font-size="11" font-weight="bold" lengthAdjust="spacing" textLength="77.6392" x="85.1709" y="355.0986">[Sesi&#243;n activa]</text><polygon fill="#181818" points="592.4619,378.3828,582.4619,382.3828,592.4619,386.3828,588.4619,382.3828" style="stroke:#181818;stroke-width:1;"/><line style="stroke:#181818;stroke-width:1;stroke-dasharray:2.0,2.0;" x1="586.4619" x2="749.0571" y1="382.3828" y2="382.3828"/><text fill="#000000" font-family="sans-serif" font-size="13" lengthAdjust="spacing" textLength="98.2871" x="598.4619" y="377.5264">SesionResponse</text><polygon fill="#181818" points="869.8911,408.7344,879.8911,412.7344,869.8911,416.7344,873.8911,412.7344" style="stroke:#181818;stroke-width:1;"/><line style="stroke:#181818;stroke-width:1;" x1="581.4619" x2="875.8911" y1="412.7344" y2="412.7344"/><text fill="#000000" font-family="sans-serif" font-size="13" lengthAdjust="spacing" textLength="270.937" x="588.4619" y="407.8779">obtenerAccionesDisponibles(INVESTIGADOR)</text><polygon fill="#181818" points="592.4619,439.0859,582.4619,443.0859,592.4619,447.0859,588.4619,443.0859" style="stroke:#181818;stroke-width:1;"/><line style="stroke:#181818;stroke-width:1;stroke-dasharray:2.0,2.0;" x1="586.4619" x2="885.8911" y1="443.0859" y2="443.0859"/><text fill="#000000" font-family="sans-serif" font-size="13" lengthAdjust="spacing" textLength="148.1416" x="598.4619" y="438.2295">Acciones del Investigador</text><polygon fill="#181818" points="344.5649,485.7891,334.5649,489.7891,344.5649,493.7891,340.5649,489.7891" style="stroke:#181818;stroke-width:1;"/><line style="stroke:#181818;stroke-width:1;stroke-dasharray:2.0,2.0;" x1="338.5649" x2="575.4619" y1="489.7891" y2="489.7891"/><text fill="#000000" font-family="sans-serif" font-size="13" lengthAdjust="spacing" textLength="44.0845" x="350.5649" y="468.5811">200 OK</text><text fill="#000000" font-family="sans-serif" font-size="13" lengthAdjust="spacing" textLength="141.6416" x="350.5649" y="484.9326">PanelPrincipalResponse</text><line style="stroke:#181818;stroke-width:1;" x1="333.5649" x2="375.5649" y1="520.1406" y2="520.1406"/><line style="stroke:#181818;stroke-width:1;" x1="375.5649" x2="375.5649" y1="520.1406" y2="533.1406"/><line style="stroke:#181818;stroke-width:1;" x1="334.5649" x2="375.5649" y1="533.1406" y2="533.1406"/><polygon fill="#181818" points="344.5649,529.1406,334.5649,533.1406,344.5649,537.1406,340.5649,533.1406" style="stroke:#181818;stroke-width:1;"/><text fill="#000000" font-family="sans-serif" font-size="13" lengthAdjust="spacing" textLength="213.897" x="340.5649" y="515.2842">Renderizar acciones del Investigador</text><polygon fill="#181818" points="72.1343,559.4922,62.1343,563.4922,72.1343,567.4922,68.1343,563.4922" style="stroke:#181818;stroke-width:1;"/><line style="stroke:#181818;stroke-width:1;stroke-dasharray:2.0,2.0;" x1="66.1343" x2="322.5649" y1="563.4922" y2="563.4922"/><text fill="#000000" font-family="sans-serif" font-size="13" lengthAdjust="spacing" textLength="238.4307" x="78.1343" y="558.6357">Presenta PANEL_PRINCIPAL_ABIERTO</text><path d="M338,576.4922 L338,733.4922 L503,733.4922 L503,586.4922 L493,576.4922 L338,576.4922 " fill="#FEFFDD" style="stroke:#181818;stroke-width:0.5;"/><path d="M493,576.4922 L493,586.4922 L503,586.4922 L493,576.4922 " fill="#FEFFDD" style="stroke:#181818;stroke-width:0.5;"/><text fill="#000000" font-family="sans-serif" font-size="13" lengthAdjust="spacing" textLength="56.3608" x="344" y="594.9873">Acciones:</text><text fill="#000000" font-family="sans-serif" font-size="13" lengthAdjust="spacing" textLength="37.5591" x="344" y="611.3389">- Perfil</text><text fill="#000000" font-family="sans-serif" font-size="13" lengthAdjust="spacing" textLength="144.5298" x="344" y="627.6904">- Carga de trabajo propia</text><text fill="#000000" font-family="sans-serif" font-size="13" lengthAdjust="spacing" textLength="65.7427" x="344" y="644.042">- Proyectos</text><text fill="#000000" font-family="sans-serif" font-size="13" lengthAdjust="spacing" textLength="92.4917" x="344" y="660.3936">- Investigadores</text><text fill="#000000" font-family="sans-serif" font-size="13" lengthAdjust="spacing" textLength="110.5444" x="344" y="676.7451">- Mis publicaciones</text><text fill="#000000" font-family="sans-serif" font-size="13" lengthAdjust="spacing" textLength="88.1563" x="344" y="693.0967">- Publicaciones</text><text fill="#000000" font-family="sans-serif" font-size="13" lengthAdjust="spacing" textLength="91.0381" x="344" y="709.4482">- Recompensas</text><text fill="#000000" font-family="sans-serif" font-size="13" lengthAdjust="spacing" textLength="85.9663" x="344" y="725.7998">- Cerrar sesi&#243;n</text><line style="stroke:#000000;stroke-width:1;stroke-dasharray:2.0,2.0;" x1="10" x2="971.9805" y1="739.6563" y2="739.6563"/><text fill="#000000" font-family="sans-serif" font-size="11" font-weight="bold" lengthAdjust="spacing" textLength="151.5991" x="15" y="751.0752">[Sesi&#243;n ausente o caducada]</text><polygon fill="#181818" points="587.4619,772.8438,577.4619,776.8438,587.4619,780.8438,583.4619,776.8438" style="stroke:#181818;stroke-width:1;"/><line style="stroke:#181818;stroke-width:1;stroke-dasharray:2.0,2.0;" x1="581.4619" x2="749.0571" y1="776.8438" y2="776.8438"/><text fill="#000000" font-family="sans-serif" font-size="13" lengthAdjust="spacing" textLength="149.5952" x="593.4619" y="771.9873">SesionNoValidaException</text><polygon fill="#181818" points="344.5649,803.1953,334.5649,807.1953,344.5649,811.1953,340.5649,807.1953" style="stroke:#181818;stroke-width:1;"/><line style="stroke:#181818;stroke-width:1;stroke-dasharray:2.0,2.0;" x1="338.5649" x2="575.4619" y1="807.1953" y2="807.1953"/><text fill="#000000" font-family="sans-serif" font-size="13" lengthAdjust="spacing" textLength="102.6289" x="350.5649" y="802.3389">401 Unauthorized</text><polygon fill="#181818" points="72.1343,833.5469,62.1343,837.5469,72.1343,841.5469,68.1343,837.5469" style="stroke:#181818;stroke-width:1;"/><line style="stroke:#181818;stroke-width:1;stroke-dasharray:2.0,2.0;" x1="66.1343" x2="322.5649" y1="837.5469" y2="837.5469"/><text fill="#000000" font-family="sans-serif" font-size="13" lengthAdjust="spacing" textLength="175.5635" x="78.1343" y="832.6904">Presenta SESION_CERRADA</text><!--SRC=[XLHBRjim4Dth58Ek4g1kqg8hBmeeiXe8JMr1IhCA48obYSEM8GMICffUgqVenJgaVbQQk0PaaFDvypXlI2US95W9t1byHAW9B5KjgKeWB23U6c6WGKKI6YFOsg3a80cPsfDrOeUrDb64bTDcRclGEE7ZbOCtkKV81u0STtIhJWhYjDCtW1O-6wqSgVfOLi8XHaj9XdDBpsO75rht274ZviabMQ5LIMOlAWeXdULOYSFeu8aYfHs1tfFfqz_sZhK6h2hYVY5Se2NVkHKwRPUHv6psSJ1PxYPKAAjMek8Gor4IsMZ5dzyAde0xoMS2RFdqp8exzoxYFe0l6qM73ON5fx5DIoYrv3Cu10mAUNdc8db9n1wP_DZROJ57IlHZO_GMpSXAQcOyY-RcBk4olOOpRCHPgBGOAzsgHEiVWhhP2H1JSIyBVnwawzyIz9PXoNJRk78jofFJAQDN2QKBIq-eyqN0lyuBYu5Kjo_8DbfP2Y4rFSVorfv446_a4FSghOJF5rj9zYHRtwJbTNOPhpR5QKWTuJhblIci9XO3phytuncX2I7mcGdnuVmSDbzkrNmaNpkQRwmtlIngmVzan2zM5Ozocz8v_z2xXDoGvQ54oEDrUdMN5zawoVBuwYw-oDBYUXC5W70_ZDWzED3tqwo58_QLbs6tW9pClP3z9a6p2y-DCxZ5xvedLpS2Xr2ZduZV5Dll3vdHOFmgB3JjbYy2TeM6v1Ti1LKyvwGi3fQ4Z9c6FXZ7YqVIqZHzhMy3Fm9yaUkMlsEJkDOtA4MDwS-A6ZSCtv6HdCdsyVmzV5Fy63ne5e_g_ul-kcfbMcQRzLsI5aMyYlsZ4aK7K0F4Nm00]--></g></svg>