<svg xmlns="http://www.w3.org/2000/svg" xmlns:xlink="http://www.w3.org/1999/xlink" contentStyleType="text/css" data-diagram-type="DESCRIPTION" height="442px" preserveAspectRatio="none" style="width:1683px;height:442px;background:#FFFFFF;" version="1.1" viewBox="0 0 1683 442" width="1683px" zoomAndPan="magnify"><?plantuml 1.2026.4?><defs/><g><!--cluster abrirMisPublicaciones--><g class="cluster" data-qualified-name="abrirMisPublicaciones" data-source-line="4" id="ent0002"><path d="M247,6 L405.9307,6 A3.75,3.75 0 0 1 408.4307,8.5 L415.4307,29.6094 L625,29.6094 A2.5,2.5 0 0 1 627.5,32.1094 L627.5,424.5 A2.5,2.5 0 0 1 625,427 L247,427 A2.5,2.5 0 0 1 244.5,424.5 L244.5,8.5 A2.5,2.5 0 0 1 247,6" fill="none" style="stroke:#000000;stroke-width:1.5;"/><line style="stroke:#000000;stroke-width:1.5;" x1="244.5" x2="415.4307" y1="29.6094" y2="29.6094"/><text fill="#000000" font-family="sans-serif" font-size="14" font-weight="700" lengthAdjust="spacing" textLength="157.9307" x="248.5" y="22.5332">abrirMisPublicaciones()</text></g><!--entity ListarPublicacionesView--><g class="entity" data-qualified-name="abrirMisPublicaciones.ListarPublicacionesView" data-source-line="5" id="ent0003"><rect fill="#629EF9" height="37.6094" rx="2.5" ry="2.5" style="stroke:#181818;stroke-width:0.5;" width="170.9648" x="440" y="42"/><text fill="#000000" font-family="sans-serif" font-size="14" lengthAdjust="spacing" textLength="150.9648" x="450" y="66.5332">ListarPublicacionesView</text></g><!--entity PublicacionController--><g class="entity" data-qualified-name="abrirMisPublicaciones.PublicacionController" data-source-line="6" id="ent0004"><rect fill="#B5BD68" height="37.6094" rx="2.5" ry="2.5" style="stroke:#181818;stroke-width:0.5;" width="152.2891" x="304.5" y="158"/><text fill="#000000" font-family="sans-serif" font-size="14" lengthAdjust="spacing" textLength="132.2891" x="314.5" y="182.5332">PublicacionController</text></g><!--entity PublicacionRepository--><g class="entity" data-qualified-name="abrirMisPublicaciones.PublicacionRepository" data-source-line="7" id="ent0005"><rect fill="#F2AC4E" height="37.6094" rx="2.5" ry="2.5" style="stroke:#181818;stroke-width:0.5;" width="158.5166" x="312" y="274"/><text fill="#000000" font-family="sans-serif" font-size="14" lengthAdjust="spacing" textLength="138.5166" x="322" y="298.5332">PublicacionRepository</text></g><!--entity Publicacion--><g class="entity" data-qualified-name="abrirMisPublicaciones.Publicacion" data-source-line="8" id="ent0006"><rect fill="#F2AC4E" height="37.6094" rx="2.5" ry="2.5" style="stroke:#181818;stroke-width:0.5;" width="91.5996" x="345.5" y="373"/><text fill="#000000" font-family="sans-serif" font-size="14" lengthAdjust="spacing" textLength="71.5996" x="355.5" y="397.5332">Publicacion</text></g><!--entity EstadoEntrada--><g class="entity" data-qualified-name="EstadoEntrada" data-source-line="3" id="ent0001"><rect fill="#CDEBA5" height="37.6094" rx="2.5" ry="2.5" style="stroke:#181818;stroke-width:0.5;" width="220.7373" x="7" y="42"/><text fill="#000000" font-family="sans-serif" font-size="14" lengthAdjust="spacing" textLength="200.7373" x="17" y="66.5332">:PANEL_PRINCIPAL_ABIERTO</text></g><!--entity EstadoSalida--><g class="entity" data-qualified-name="EstadoSalida" data-source-line="11" id="ent0007"><rect fill="#CDEBA5" height="37.6094" rx="2.5" ry="2.5" style="stroke:#181818;stroke-width:0.5;" width="247.1787" x="644" y="158"/><text fill="#000000" font-family="sans-serif" font-size="14" lengthAdjust="spacing" textLength="227.1787" x="654" y="182.5332">:MIS_PUBLICACIONES_ABIERTAS</text></g><!--entity AbrirMiPublicacion--><g class="entity" data-qualified-name="AbrirMiPublicacion" data-source-line="12" id="ent0008"><rect fill="#CDEBA5" height="37.6094" rx="2.5" ry="2.5" style="stroke:#181818;stroke-width:0.5;" width="226.2061" x="926.5" y="158"/><text fill="#000000" font-family="sans-serif" font-size="14" lengthAdjust="spacing" textLength="206.2061" x="936.5" y="182.5332">:Collaboration AbrirMiPublicacion</text></g><!--entity CrearPublicacion--><g class="entity" data-qualified-name="CrearPublicacion" data-source-line="13" id="ent0009"><rect fill="#CDEBA5" height="37.6094" rx="2.5" ry="2.5" style="stroke:#181818;stroke-width:0.5;" width="216.8818" x="1188" y="158"/><text fill="#000000" font-family="sans-serif" font-size="14" lengthAdjust="spacing" textLength="196.8818" x="1198" y="182.5332">:Collaboration CrearPublicacion</text></g><!--entity AbrirPanelPrincipal--><g class="entity" data-qualified-name="AbrirPanelPrincipal" data-source-line="14" id="ent0010"><rect fill="#CDEBA5" height="37.6094" rx="2.5" ry="2.5" style="stroke:#181818;stroke-width:0.5;" width="229.3301" x="1440" y="158"/><text fill="#000000" font-family="sans-serif" font-size="14" lengthAdjust="spacing" textLength="209.3301" x="1450" y="182.5332">:Collaboration AbrirPanelPrincipal</text></g><!--link EstadoEntrada to ListarPublicacionesView--><g class="link" data-entity-1="ent0001" data-entity-2="ent0003" data-link-type="dependency" data-source-line="16" id="lnk11"><path d="M228.18,61 C294.73,61 373.16,61 434.7,61" fill="none" id="EstadoEntrada-to-ListarPublicacionesView" style="stroke:#181818;stroke-width:1;"/><polygon fill="#181818" points="439.7,61,430.7,57,434.7,61,430.7,65,439.7,61" style="stroke:#181818;stroke-width:1;stroke-linejoin:miter;stroke-miterlimit:10;"/><text fill="#000000" font-family="sans-serif" font-size="13" lengthAdjust="spacing" textLength="135.0972" x="266.5" y="54.4951">abrirMisPublicaciones()</text></g><!--link ListarPublicacionesView to PublicacionController--><g class="link" data-entity-1="ent0003" data-entity-2="ent0004" data-link-type="dependency" data-source-line="18" id="lnk12"><path d="M439.73,79.67 C373.3,93.36 292.5,110 292.5,110 C292.5,110 292.5,128 292.5,128 C292.5,128 318.1205,141.9757 343.0905,155.5957" fill="none" id="ListarPublicacionesView-to-PublicacionController" style="stroke:#181818;stroke-width:1;"/><polygon fill="#181818" points="347.48,157.99,341.4943,150.1687,343.0905,155.5957,337.6635,157.1919,347.48,157.99" style="stroke:#181818;stroke-width:1;stroke-linejoin:miter;stroke-miterlimit:10;"/><text fill="#000000" font-family="sans-serif" font-size="13" lengthAdjust="spacing" textLength="116.3208" x="293.5" y="124.4951">listarPublicaciones()</text></g><!--link ListarPublicacionesView to PublicacionController--><g class="link" data-entity-1="ent0003" data-entity-2="ent0004" data-link-type="dependency" data-source-line="19" id="lnk13"><path d="M502.52,80.06 C475.53,101.28 434.931,133.2102 407.781,154.5502" fill="none" id="ListarPublicacionesView-to-PublicacionController-1" style="stroke:#181818;stroke-width:1;"/><polygon fill="#181818" points="403.85,157.64,413.3977,155.2232,407.781,154.5502,408.454,148.9335,403.85,157.64" style="stroke:#181818;stroke-width:1;stroke-linejoin:miter;stroke-miterlimit:10;"/><text fill="#000000" font-family="sans-serif" font-size="13" lengthAdjust="spacing" textLength="156.7681" x="462.5" y="124.4951">filtrarPublicaciones(criterio)</text></g><!--link PublicacionController to PublicacionRepository--><g class="link" data-entity-1="ent0004" data-entity-2="ent0005" data-link-type="dependency" data-source-line="20" id="lnk14"><path d="M354.04,196.15 C334.21,209.74 310.5,226 310.5,226 C310.5,226 310.5,244 310.5,244 C310.5,244 333.6382,257.7116 356.5782,271.3016" fill="none" id="PublicacionController-to-PublicacionRepository" style="stroke:#181818;stroke-width:1;"/><polygon fill="#181818" points="360.88,273.85,355.1755,265.8214,356.5782,271.3016,351.098,272.7042,360.88,273.85" style="stroke:#181818;stroke-width:1;stroke-linejoin:miter;stroke-miterlimit:10;"/><text fill="#000000" font-family="sans-serif" font-size="13" lengthAdjust="spacing" textLength="88.8799" x="311.5" y="240.4951">obtenerTodos()</text></g><!--link PublicacionController to PublicacionRepository--><g class="link" data-entity-1="ent0004" data-entity-2="ent0005" data-link-type="dependency" data-source-line="21" id="lnk15"><path d="M389.57,196.15 C396.37,209.74 404.5,226 404.5,226 C404.5,226 404.5,244 404.5,244 C404.5,244 401.4102,255.4347 397.7202,269.0247" fill="none" id="PublicacionController-to-PublicacionRepository-1" style="stroke:#181818;stroke-width:1;"/><polygon fill="#181818" points="396.41,273.85,402.6286,266.2126,397.7202,269.0247,394.9081,264.1163,396.41,273.85" style="stroke:#181818;stroke-width:1;stroke-linejoin:miter;stroke-miterlimit:10;"/><text fill="#000000" font-family="sans-serif" font-size="13" lengthAdjust="spacing" textLength="148.8081" x="405.5" y="240.4951">buscarPorCriterio(criterio)</text></g><!--link PublicacionRepository to Publicacion--><g class="link" data-entity-1="ent0005" data-entity-2="ent0006" data-link-type="association" data-source-line="22" id="lnk16"><path d="M391.5,312.24 C391.5,329.59 391.5,355.52 391.5,372.84" fill="none" id="PublicacionRepository-Publicacion" style="stroke:#181818;stroke-width:1;"/></g><!--link ListarPublicacionesView to EstadoSalida--><g class="link" data-entity-1="ent0003" data-entity-2="ent0007" data-link-type="dependency" data-source-line="23" id="lnk17"><path d="M563.77,80.01 C592.71,93.63 627.5,110 627.5,110 C627.5,110 683.2678,136.2871 724.7178,155.8371" fill="none" id="ListarPublicacionesView-to-EstadoSalida" style="stroke:#181818;stroke-width:1;stroke-dasharray:7,7;"/><polygon fill="#181818" points="729.24,157.97,722.8063,150.5129,724.7178,155.8371,719.3936,157.7485,729.24,157.97" style="stroke:#181818;stroke-width:1;stroke-linejoin:miter;stroke-miterlimit:10;"/><text fill="#000000" font-family="sans-serif" font-size="13" lengthAdjust="spacing" textLength="130.7935" x="665.5" y="124.4951">continuarNavegacion()</text></g><!--link ListarPublicacionesView to AbrirMiPublicacion--><g class="link" data-entity-1="ent0003" data-entity-2="ent0008" data-link-type="dependency" data-source-line="24" id="lnk18"><path d="M611.11,76.73 C693.12,90.84 804.5,110 804.5,110 C804.5,110 900.8964,137.0675 970.4764,156.6175" fill="none" id="ListarPublicacionesView-to-AbrirMiPublicacion" style="stroke:#181818;stroke-width:1;stroke-dasharray:7,7;"/><polygon fill="#181818" points="975.29,157.97,967.7075,151.6846,970.4764,156.6175,965.5435,159.3864,975.29,157.97" style="stroke:#181818;stroke-width:1;stroke-linejoin:miter;stroke-miterlimit:10;"/><text fill="#000000" font-family="sans-serif" font-size="13" lengthAdjust="spacing" textLength="114.8672" x="868.5" y="124.4951">abrirMiPublicacion()</text></g><!--link ListarPublicacionesView to CrearPublicacion--><g class="link" data-entity-1="ent0003" data-entity-2="ent0009" data-link-type="dependency" data-source-line="25" id="lnk19"><path d="M611.24,70.83 C745.83,84.7 991.5,110 991.5,110 C991.5,110 1117.9632,137.3621 1208.2732,156.9121" fill="none" id="ListarPublicacionesView-to-CrearPublicacion" style="stroke:#181818;stroke-width:1;stroke-dasharray:7,7;"/><polygon fill="#181818" points="1213.16,157.97,1205.21,152.1564,1208.2732,156.9121,1203.5174,159.9753,1213.16,157.97" style="stroke:#181818;stroke-width:1;stroke-linejoin:miter;stroke-miterlimit:10;"/><text fill="#000000" font-family="sans-serif" font-size="13" lengthAdjust="spacing" textLength="104.7617" x="1073.5" y="124.4951">crearPublicacion()</text></g><!--link ListarPublicacionesView to AbrirPanelPrincipal--><g class="link" data-entity-1="ent0003" data-entity-2="ent0010" data-link-type="dependency" data-source-line="26" id="lnk20"><path d="M611.24,68.23 C790.09,81.21 1186.5,110 1186.5,110 C1186.5,110 1340.0586,137.537 1449.0186,157.087" fill="none" id="ListarPublicacionesView-to-AbrirPanelPrincipal" style="stroke:#181818;stroke-width:1;stroke-dasharray:7,7;"/><polygon fill="#181818" points="1453.94,157.97,1445.7879,152.4434,1449.0186,157.087,1444.375,160.3177,1453.94,157.97" style="stroke:#181818;stroke-width:1;stroke-linejoin:miter;stroke-miterlimit:10;"/><text fill="#000000" font-family="sans-serif" font-size="13" lengthAdjust="spacing" textLength="117.7681" x="1285.5" y="124.4951">abrirPanelPrincipal()</text></g><?plantuml-src bL9DRu905BplhtYnbthGWwccSZ31BIOaVX2nlPe7RCt6xIvvO1lJzBztjQO2GhNSU3ipRp9ligtKAHA-WP9QvFjKG6hK_l3368auHxrH0kxuapTs-z1o0dVkJTV1qfzpFt2dQtViUylLeWMOWPVbc1XFvuG9iXJZBMu4O4IIPZ8BTf6ICSRIQ94TuAtQb_js2puPsA-mVj0RUfCXJANTG2NuYnGVLNJKZvB18nHmt5XJHYb1LUoav_87huXTYjHaCZUqluvbN_KfpVnm7JoFfpvtkR-OU-4f9pSi11MYaZQdEZwtNZ4oXBbT0kvFJeMzHvNByGrQd4GfmQDITNYhfm2rK0597SiKrTbKUSvOgHZGeSwewPGED9I2iGO6T18hLtjhnvRwWcEb6fMQXLwbikOhIZ79N90qRLRBgkgTY-M0YNAX1QrCOWwE_isFTbbixHZY9m_rPiuKArOgRbC6tUweL4y7Ocj8wXtI7D_5veZz8yC3_xAOlsSjpAw8L3jfZLGcjxWeD_5aepoqCjy0?></g></svg>