<svg xmlns="http://www.w3.org/2000/svg" xmlns:xlink="http://www.w3.org/1999/xlink" contentStyleType="text/css" data-diagram-type="DESCRIPTION" height="463px" preserveAspectRatio="none" style="width:2117px;height:463px;background:#FFFFFF;" version="1.1" viewBox="0 0 2117 463" width="2117px" zoomAndPan="magnify"><?plantuml 1.2026.5?><defs/><g><!--cluster abrirMisPublicaciones--><g class="cluster" data-qualified-name="abrirMisPublicaciones" data-source-line="5" id="ent0003"><path d="M247,6 L405.9307,6 A3.75,3.75 0 0 1 408.4307,8.5 L415.4307,29.6094 L805,29.6094 A2.5,2.5 0 0 1 807.5,32.1094 L807.5,445.5 A2.5,2.5 0 0 1 805,448 L247,448 A2.5,2.5 0 0 1 244.5,445.5 L244.5,8.5 A2.5,2.5 0 0 1 247,6" fill="none" style="stroke:#000000;stroke-width:1.5;"/><line style="stroke:#000000;stroke-width:1.5;" x1="244.5" x2="415.4307" y1="29.6094" y2="29.6094"/><text fill="#000000" font-family="sans-serif" font-size="14" font-weight="700" lengthAdjust="spacing" textLength="157.9307" x="248.5" y="22.5332">abrirMisPublicaciones()</text></g><!--entity ListarPublicacionesView--><g class="entity" data-qualified-name="abrirMisPublicaciones.ListarPublicacionesView" data-source-line="6" id="ent0004"><rect fill="#629EF9" height="37.6094" rx="2.5" ry="2.5" style="stroke:#181818;stroke-width:0.5;" width="170.9648" x="620" y="42"/><text fill="#000000" font-family="sans-serif" font-size="14" lengthAdjust="spacing" textLength="150.9648" x="630" y="66.5332">ListarPublicacionesView</text></g><!--entity PublicacionController--><g class="entity" data-qualified-name="abrirMisPublicaciones.PublicacionController" data-source-line="7" id="ent0005"><rect fill="#B5BD68" height="37.6094" rx="2.5" ry="2.5" style="stroke:#181818;stroke-width:0.5;" width="152.2891" x="453.5" y="168.5"/><text fill="#000000" font-family="sans-serif" font-size="14" lengthAdjust="spacing" textLength="132.2891" x="463.5" y="193.0332">PublicacionController</text></g><!--entity PublicacionRepository--><g class="entity" data-qualified-name="abrirMisPublicaciones.PublicacionRepository" data-source-line="8" id="ent0006"><rect fill="#F2AC4E" height="37.6094" rx="2.5" ry="2.5" style="stroke:#181818;stroke-width:0.5;" width="158.5166" x="346" y="295"/><text fill="#000000" font-family="sans-serif" font-size="14" lengthAdjust="spacing" textLength="138.5166" x="356" y="319.5332">PublicacionRepository</text></g><!--entity Publicacion--><g class="entity" data-qualified-name="abrirMisPublicaciones.Publicacion" data-source-line="9" id="ent0007"><rect fill="#F2AC4E" height="37.6094" rx="2.5" ry="2.5" style="stroke:#181818;stroke-width:0.5;" width="91.5996" x="379.5" y="394"/><text fill="#000000" font-family="sans-serif" font-size="14" lengthAdjust="spacing" textLength="71.5996" x="389.5" y="418.5332">Publicacion</text></g><!--entity EstadoEntrada1--><g class="entity" data-qualified-name="EstadoEntrada1" data-source-line="3" id="ent0001"><rect fill="#CDEBA5" height="37.6094" rx="2.5" ry="2.5" style="stroke:#181818;stroke-width:0.5;" width="220.7373" x="7" y="42"/><text fill="#000000" font-family="sans-serif" font-size="14" lengthAdjust="spacing" textLength="200.7373" x="17" y="66.5332">:PANEL_PRINCIPAL_ABIERTO</text></g><!--entity EstadoEntrada2--><g class="entity" data-qualified-name="EstadoEntrada2" data-source-line="4" id="ent0002"><rect fill="#CDEBA5" height="37.6094" rx="2.5" ry="2.5" style="stroke:#181818;stroke-width:0.5;" width="209.8271" x="1038.5" y="42"/><text fill="#000000" font-family="sans-serif" font-size="14" lengthAdjust="spacing" textLength="189.8271" x="1048.5" y="66.5332">:MI_PUBLICACION_ABIERTA</text></g><!--entity EstadoSalida--><g class="entity" data-qualified-name="EstadoSalida" data-source-line="12" id="ent0008"><rect fill="#CDEBA5" height="37.6094" rx="2.5" ry="2.5" style="stroke:#181818;stroke-width:0.5;" width="247.1787" x="824" y="168.5"/><text fill="#000000" font-family="sans-serif" font-size="14" lengthAdjust="spacing" textLength="227.1787" x="834" y="193.0332">:MIS_PUBLICACIONES_ABIERTAS</text></g><!--entity AbrirMiPublicacion--><g class="entity" data-qualified-name="AbrirMiPublicacion" data-source-line="13" id="ent0009"><rect fill="#CDEBA5" height="37.6094" rx="2.5" ry="2.5" style="stroke:#181818;stroke-width:0.5;" width="226.2061" x="1106.5" y="168.5"/><text fill="#000000" font-family="sans-serif" font-size="14" lengthAdjust="spacing" textLength="206.2061" x="1116.5" y="193.0332">:Collaboration AbrirMiPublicacion</text></g><!--entity CrearPublicacion--><g class="entity" data-qualified-name="CrearPublicacion" data-source-line="14" id="ent0010"><rect fill="#CDEBA5" height="37.6094" rx="2.5" ry="2.5" style="stroke:#181818;stroke-width:0.5;" width="216.8818" x="1368" y="168.5"/><text fill="#000000" font-family="sans-serif" font-size="14" lengthAdjust="spacing" textLength="196.8818" x="1378" y="193.0332">:Collaboration CrearPublicacion</text></g><!--entity AbrirPanelPrincipal--><g class="entity" data-qualified-name="AbrirPanelPrincipal" data-source-line="15" id="ent0011"><rect fill="#CDEBA5" height="37.6094" rx="2.5" ry="2.5" style="stroke:#181818;stroke-width:0.5;" width="229.3301" x="1620" y="168.5"/><text fill="#000000" font-family="sans-serif" font-size="14" lengthAdjust="spacing" textLength="209.3301" x="1630" y="193.0332">:Collaboration AbrirPanelPrincipal</text></g><g class="entity" data-qualified-name="GMN20" data-source-line="27" id="ent0021"><path d="M1884.5,158 L1884.5,217.0547 L2102.7852,217.0547 L2102.7852,168 L2092.7852,158 L1884.5,158" fill="#FEFFDD" style="stroke:#181818;stroke-width:0.5;"/><path d="M2092.7852,158 L2092.7852,168 L2102.7852,168 L2092.7852,158" fill="#FEFFDD" style="stroke:#181818;stroke-width:1;"/><text fill="#000000" font-family="sans-serif" font-size="13" lengthAdjust="spacing" textLength="107.6816" x="1890.5" y="176.4951">Contexto opcional:</text><text fill="#000000" font-family="sans-serif" font-size="13" lengthAdjust="spacing" textLength="181.3779" x="1890.5" y="192.8467">- sin identificador: listado global</text><text fill="#000000" font-family="sans-serif" font-size="13" lengthAdjust="spacing" textLength="197.2852" x="1890.5" y="209.1982">- con identificador: listado acotado</text></g><!--link EstadoEntrada1 to ListarPublicacionesView--><g class="link" data-entity-1="ent0001" data-entity-2="ent0004" data-link-type="dependency" data-source-line="17" id="lnk12"><path d="M228.1,61 C341.71,61 511.15,61 614.73,61" fill="none" id="EstadoEntrada1-to-ListarPublicacionesView" style="stroke:#181818;stroke-width:1;"/><polygon fill="#181818" points="619.73,61,610.73,57,614.73,61,610.73,65,619.73,61" style="stroke:#181818;stroke-width:1;stroke-linejoin:miter;stroke-miterlimit:10;"/><text fill="#000000" font-family="sans-serif" font-size="13" lengthAdjust="spacing" textLength="135.0972" x="356.5" y="54.4951">abrirMisPublicaciones()</text></g><!--link EstadoEntrada2 to ListarPublicacionesView--><g class="link" data-entity-1="ent0002" data-entity-2="ent0004" data-link-type="dependency" data-source-line="18" id="lnk13"><path d="M1038.23,61 C962.62,61 866.98,61 796.25,61" fill="none" id="EstadoEntrada2-to-ListarPublicacionesView" style="stroke:#181818;stroke-width:1;"/><polygon fill="#181818" points="791.25,61,800.25,65,796.25,61,800.25,57,791.25,61" style="stroke:#181818;stroke-width:1;stroke-linejoin:miter;stroke-miterlimit:10;"/><text fill="#000000" font-family="sans-serif" font-size="13" lengthAdjust="spacing" textLength="211.7007" x="809.25" y="54.4951">abrirMisPublicaciones(idPublicacion)</text></g><!--link ListarPublicacionesView to PublicacionController--><g class="link" data-entity-1="ent0004" data-entity-2="ent0005" data-link-type="dependency" data-source-line="20" id="lnk14"><path d="M619.74,76.6 C536.78,90.72 423.5,110 423.5,110 C423.5,110 423.5,128 423.5,128 C423.5,128 461.3127,148.8636 492.4527,166.0536" fill="none" id="ListarPublicacionesView-to-PublicacionController" style="stroke:#181818;stroke-width:1;"/><polygon fill="#181818" points="496.83,168.47,490.8839,160.6186,492.4527,166.0536,487.0177,167.6224,496.83,168.47" style="stroke:#181818;stroke-width:1;stroke-linejoin:miter;stroke-miterlimit:10;"/><text fill="#000000" font-family="sans-serif" font-size="13" lengthAdjust="spacing" textLength="165.4644" x="424.5" y="124.4951">listarPublicaciones(contexto)</text></g><!--link ListarPublicacionesView to PublicacionController--><g class="link" data-entity-1="ent0004" data-entity-2="ent0005" data-link-type="dependency" data-source-line="21" id="lnk15"><path d="M679.91,80.1 C646.54,103.71 592.5925,141.8733 559.2025,165.4833" fill="none" id="ListarPublicacionesView-to-PublicacionController-1" style="stroke:#181818;stroke-width:1;"/><polygon fill="#181818" points="555.12,168.37,564.7779,166.4399,559.2025,165.4833,560.1591,159.9079,555.12,168.37" style="stroke:#181818;stroke-width:1;stroke-linejoin:miter;stroke-miterlimit:10;"/><text fill="#000000" font-family="sans-serif" font-size="13" lengthAdjust="spacing" textLength="156.7681" x="633.5" y="124.4951">filtrarPublicaciones(criterio)</text></g><!--link PublicacionController to PublicacionRepository--><g class="link" data-entity-1="ent0005" data-entity-2="ent0006" data-link-type="dependency" data-source-line="22" id="lnk16"><path d="M456.46,206.53 C386.82,223.72 292.5,247 292.5,247 C292.5,247 292.5,265 292.5,265 C292.5,265 333.1569,279.6727 370.8969,293.2927" fill="none" id="PublicacionController-to-PublicacionRepository" style="stroke:#181818;stroke-width:1;"/><polygon fill="#181818" points="375.6,294.99,368.4923,288.1724,370.8969,293.2927,365.7766,295.6973,375.6,294.99" style="stroke:#181818;stroke-width:1;stroke-linejoin:miter;stroke-miterlimit:10;"/><text fill="#000000" font-family="sans-serif" font-size="13" lengthAdjust="spacing" textLength="88.8799" x="293.5" y="261.4951">obtenerTodos()</text></g><!--link PublicacionController to PublicacionRepository--><g class="link" data-entity-1="ent0005" data-entity-2="ent0006" data-link-type="dependency" data-source-line="23" id="lnk17"><path d="M496.52,206.53 C465.08,223.72 422.5,247 422.5,247 C422.5,247 422.5,265 422.5,265 C422.5,265 423.2079,276.2698 424.0579,289.8598" fill="none" id="PublicacionController-to-PublicacionRepository-1" style="stroke:#181818;stroke-width:1;"/><polygon fill="#181818" points="424.37,294.85,427.8004,285.6179,424.0579,289.8598,419.816,286.1172,424.37,294.85" style="stroke:#181818;stroke-width:1;stroke-linejoin:miter;stroke-miterlimit:10;"/><text fill="#000000" font-family="sans-serif" font-size="13" lengthAdjust="spacing" textLength="174.1543" x="423.5" y="261.4951">obtenerPorContexto(contexto)</text></g><!--link PublicacionController to PublicacionRepository--><g class="link" data-entity-1="ent0005" data-entity-2="ent0006" data-link-type="dependency" data-source-line="24" id="lnk18"><path d="M552.2,206.69 C573.63,223.86 602.5,247 602.5,247 C602.5,247 602.5,265 602.5,265 C602.5,265 546.9657,280.0615 496.7357,293.6815" fill="none" id="PublicacionController-to-PublicacionRepository-2" style="stroke:#181818;stroke-width:1;"/><polygon fill="#181818" points="491.91,294.99,501.6431,296.4953,496.7357,293.6815,499.5495,288.7741,491.91,294.99" style="stroke:#181818;stroke-width:1;stroke-linejoin:miter;stroke-miterlimit:10;"/><text fill="#000000" font-family="sans-serif" font-size="13" lengthAdjust="spacing" textLength="148.8081" x="603.5" y="261.4951">buscarPorCriterio(criterio)</text></g><!--link PublicacionRepository to Publicacion--><g class="link" data-entity-1="ent0006" data-entity-2="ent0007" data-link-type="association" data-source-line="25" id="lnk19"><path d="M425.5,333.24 C425.5,350.59 425.5,376.52 425.5,393.84" fill="none" id="PublicacionRepository-Publicacion" style="stroke:#181818;stroke-width:1;"/></g><!--link PublicacionController to GMN20--><g class="link" data-entity-1="ent0005" data-entity-2="ent0021" data-link-type="association" data-source-line="27" id="lnk22"><path d="M605.72,169.77 C692.98,149.47 824,119 824,119 C824,119 1849,119 1849,119 C1849,119 1891.91,139.34 1930.96,157.85" fill="none" id="PublicacionController-GMN20" style="stroke:#181818;stroke-width:1;stroke-dasharray:7,7;"/></g><!--link ListarPublicacionesView to EstadoSalida--><g class="link" data-entity-1="ent0004" data-entity-2="ent0008" data-link-type="dependency" data-source-line="31" id="lnk23"><path d="M740.69,80.1 C786.57,103.71 861.9237,142.4729 907.8237,166.0829" fill="none" id="ListarPublicacionesView-to-EstadoSalida" style="stroke:#181818;stroke-width:1;stroke-dasharray:7,7;"/><polygon fill="#181818" points="912.27,168.37,906.0964,160.6963,907.8237,166.0829,902.4371,167.8103,912.27,168.37" style="stroke:#181818;stroke-width:1;stroke-linejoin:miter;stroke-miterlimit:10;"/><text fill="#000000" font-family="sans-serif" font-size="13" lengthAdjust="spacing" textLength="130.7935" x="834.5" y="124.4951">continuarNavegacion()</text></g><!--link ListarPublicacionesView to AbrirMiPublicacion--><g class="link" data-entity-1="ent0004" data-entity-2="ent0009" data-link-type="dependency" data-source-line="32" id="lnk24"><path d="M791.03,77.32 C869.47,91.37 973.5,110 973.5,110 C973.5,110 1084.0056,144.3651 1156.7356,166.9851" fill="none" id="ListarPublicacionesView-to-AbrirMiPublicacion" style="stroke:#181818;stroke-width:1;stroke-dasharray:7,7;"/><polygon fill="#181818" points="1161.51,168.47,1154.104,161.9776,1156.7356,166.9851,1151.7281,169.6167,1161.51,168.47" style="stroke:#181818;stroke-width:1;stroke-linejoin:miter;stroke-miterlimit:10;"/><text fill="#000000" font-family="sans-serif" font-size="13" lengthAdjust="spacing" textLength="114.8672" x="1027.5" y="124.4951">abrirMiPublicacion()</text></g><!--link ListarPublicacionesView to CrearPublicacion--><g class="link" data-entity-1="ent0004" data-entity-2="ent0010" data-link-type="dependency" data-source-line="33" id="lnk25"><path d="M791.04,71.23 C920.3,85.17 1150.5,110 1150.5,110 C1150.5,110 1298.4123,144.7076 1394.7923,167.3276" fill="none" id="ListarPublicacionesView-to-CrearPublicacion" style="stroke:#181818;stroke-width:1;stroke-dasharray:7,7;"/><polygon fill="#181818" points="1399.66,168.47,1391.812,162.5194,1394.7923,167.3276,1389.9841,170.3078,1399.66,168.47" style="stroke:#181818;stroke-width:1;stroke-linejoin:miter;stroke-miterlimit:10;"/><text fill="#000000" font-family="sans-serif" font-size="13" lengthAdjust="spacing" textLength="104.7617" x="1221.5" y="124.4951">crearPublicacion()</text></g><!--link ListarPublicacionesView to AbrirPanelPrincipal--><g class="link" data-entity-1="ent0004" data-entity-2="ent0011" data-link-type="dependency" data-source-line="34" id="lnk26"><path d="M791.31,68.55 C963.44,81.68 1334.5,110 1334.5,110 C1334.5,110 1602.5,158 1602.5,158 C1602.5,158 1619.8228,161.7338 1646.0128,167.3938" fill="none" id="ListarPublicacionesView-to-AbrirPanelPrincipal" style="stroke:#181818;stroke-width:1;stroke-dasharray:7,7;"/><polygon fill="#181818" points="1650.9,168.45,1642.948,162.6391,1646.0128,167.3938,1641.2581,170.4586,1650.9,168.45" style="stroke:#181818;stroke-width:1;stroke-linejoin:miter;stroke-miterlimit:10;"/><text fill="#000000" font-family="sans-serif" font-size="13" lengthAdjust="spacing" textLength="117.7681" x="1429.5" y="124.4951">abrirPanelPrincipal()</text></g><?plantuml-src dLF1Rjim3BthAuZiaXnIOC5Qh3uKS3mNC92cHjBj6j2MaX7LH4DMjWN3_drocYosOwzPVJ54lVVuI97bCva2BNu3JKQvNQ6WOBsh3a9ObJiq6wtWNVGfdeRNC0ZIS1xFLkaYcKT96ivMuJI95q-F0y0IujAXvDWuYnBVTz8VabNwUJfBeZ1A7kS7TdZEdeW2ysVSAC3CadsWCjrccdBCYOqgA_oWysOu6i0l0VwhfR-PtCRtjp0Zdy8su5z8_MYZi-jCtdo46YvYxugrLhQDlP-4qOUuZbseWajoR7UlOyLlqTEbPRrDyVBOg6MjKqlK9B6J7tclcB55vvD0-DAdMjwzoddu0gt8gaO7zqhjuAMUKZHAfvPCJWNgawbcN8ZcNC7OZk_wtZA0dgbeYapU94AoTXu9qKE7iVJQdUCJ-3KxumnpVwz-EXxrA_OBhadxajgAbfoov1KxMMszqym6m9bJHjadbborxQtyb6rqAAjMtt-hPTionxtOeQBkqauKBzROCCDEWQNDLmUyxjdfer7Wehf17OWnb6I0f3AErfuX-VXsac6ZEVDpEGPVM1y6Swx-GXa9bOVUfxswkciiT52fEZ9Rj7FyhZPxx73qJ_xvAlyTuLhi5P7s5diZhSWbBfgxUx3H37gPFm00?></g></svg>