<svg xmlns="http://www.w3.org/2000/svg" xmlns:xlink="http://www.w3.org/1999/xlink" contentStyleType="text/css" data-diagram-type="STATE" height="842px" preserveAspectRatio="none" style="width:488px;height:842px;background:#FFFFFF;" version="1.1" viewBox="0 0 488 842" width="488px" zoomAndPan="magnify"><?plantuml 1.2026.3?><defs/><g><g class="entity" data-qualified-name="in1" id="ent0002"><rect fill="#F1F1F1" height="50" rx="12.5" ry="12.5" style="stroke:#181818;stroke-width:0.5;" width="219.9443" x="108.5" y="7"/><line style="stroke:#181818;stroke-width:0.5;" x1="108.5" x2="328.4443" y1="34.6094" y2="34.6094"/><text fill="#000000" font-family="sans-serif" font-size="14" lengthAdjust="spacing" textLength="199.9443" x="118.5" y="26.5332">OPCIONES_PERFIL_ABIERTO</text></g><path d="M19.5,153 L417.5,153 A12.5,12.5 0 0 1 430,165.5 L430,180.6094 L7,180.6094 L7,165.5 A12.5,12.5 0 0 1 19.5,153" fill="#F1F1F1"/><rect fill="none" height="528.6094" rx="12.5" ry="12.5" style="stroke:#181818;stroke-width:0.5;" width="423" x="7" y="153"/><line style="stroke:#181818;stroke-width:0.5;" x1="7" x2="430" y1="180.6094" y2="180.6094"/><text fill="#000000" font-family="sans-serif" font-size="14" lengthAdjust="spacing" textLength="160.2617" x="138.3691" y="172.5332">solicitarEliminacionPerfil()</text><g class="entity" data-qualified-name="solicitarEliminacionPerfil.SeleccionandoPerfil" id="ent0004"><rect fill="#F1F1F1" height="50" rx="12.5" ry="12.5" style="stroke:#181818;stroke-width:0.5;" width="50" x="19" y="283.6094"/><line style="stroke:#181818;stroke-width:0.5;" x1="19" x2="69" y1="311.2188" y2="311.2188"/><text fill="#000000" font-family="sans-serif" font-size="14" lengthAdjust="spacing" textLength="3.8896" x="42.0552" y="303.1426">&#160;</text></g><g class="entity" data-qualified-name="solicitarEliminacionPerfil.ConfirmandoSolicitud" id="ent0005"><rect fill="#F1F1F1" height="50" rx="12.5" ry="12.5" style="stroke:#181818;stroke-width:0.5;" width="50" x="19" y="421.6094"/><line style="stroke:#181818;stroke-width:0.5;" x1="19" x2="69" y1="449.2188" y2="449.2188"/><text fill="#000000" font-family="sans-serif" font-size="14" lengthAdjust="spacing" textLength="3.8896" x="42.0552" y="441.1426">&#160;</text></g><g class="entity" data-qualified-name="solicitarEliminacionPerfil.SolicitudEnviada" id="ent0006"><rect fill="#F1F1F1" height="50" rx="12.5" ry="12.5" style="stroke:#181818;stroke-width:0.5;" width="50" x="19" y="559.6094"/><line style="stroke:#181818;stroke-width:0.5;" x1="19" x2="69" y1="587.2188" y2="587.2188"/><text fill="#000000" font-family="sans-serif" font-size="14" lengthAdjust="spacing" textLength="3.8896" x="42.0552" y="579.1426">&#160;</text></g><g class="start_entity" data-qualified-name="solicitarEliminacionPerfil..start.solicitarEliminacionPerfil" data-source-line="17" id="ent0003"><ellipse cx="44" cy="201.6094" fill="#222222" rx="10" ry="10" style="stroke:#222222;stroke-width:1;"/></g><g class="end_entity" data-qualified-name="solicitarEliminacionPerfil..end.solicitarEliminacionPerfil" data-source-line="35" id="ent0007"><ellipse cx="44" cy="657.6094" fill="none" rx="11" ry="11" style="stroke:#222222;stroke-width:1;"/><ellipse cx="44" cy="657.6094" fill="#222222" rx="6" ry="6" style="stroke:#222222;stroke-width:1;"/></g><!--link *start*solicitarEliminacionPerfil to SeleccionandoPerfil--><g class="link" data-entity-1="ent0003" data-entity-2="ent0004" data-link-type="dependency" data-source-line="17" id="lnk4"><path d="M44,211.9294 C44,227.7894 44,254.5194 44,277.2494" fill="none" id="*start*solicitarEliminacionPerfil-to-SeleccionandoPerfil" style="stroke:#008000;stroke-width:1;"/><polygon fill="#008000" points="44,283.2494,48,274.2494,44,278.2494,40,274.2494,44,283.2494" style="stroke:#008000;stroke-width:1;"/><path d="M49,234.6094 L49,260.6094 L340,260.6094 L340,244.6094 L330,234.6094 L49,234.6094" fill="#FEFFDD" style="stroke:#181818;stroke-width:0.5;"/><path d="M330,234.6094 L330,244.6094 L340,244.6094 L330,234.6094" fill="#FEFFDD" style="stroke:#181818;stroke-width:0.5;"/><text fill="#000000" font-family="sans-serif" font-size="13" font-weight="700" lengthAdjust="spacing" textLength="77.2954" x="55" y="253.1045">Investigador</text><text fill="#000000" font-family="sans-serif" font-size="13" lengthAdjust="spacing" textLength="189.3125" x="135.9072" y="253.1045">solicita la eliminacion de su perfil</text></g><!--link SeleccionandoPerfil to ConfirmandoSolicitud--><g class="link" data-entity-1="ent0004" data-entity-2="ent0005" data-link-type="dependency" data-source-line="22" id="lnk5"><path d="M44,333.6094 C44,358.3194 44,390.6094 44,415.3894" fill="none" id="SeleccionandoPerfil-to-ConfirmandoSolicitud" style="stroke:#008000;stroke-width:1;"/><polygon fill="#008000" points="44,421.3894,48,412.3894,44,416.3894,40,412.3894,44,421.3894" style="stroke:#008000;stroke-width:1;"/><path d="M49,356.6094 L49,398.6094 L406,398.6094 L406,366.6094 L396,356.6094 L49,356.6094" fill="#FEFFDD" style="stroke:#181818;stroke-width:0.5;"/><path d="M396,356.6094 L396,366.6094 L406,366.6094 L396,356.6094" fill="#FEFFDD" style="stroke:#181818;stroke-width:0.5;"/><text fill="#000000" font-family="sans-serif" font-size="13" font-weight="700" lengthAdjust="spacing" textLength="49.8608" x="55" y="375.1045">Sistema</text><text fill="#000000" font-family="sans-serif" font-size="13" lengthAdjust="spacing" textLength="283.2642" x="108.4727" y="375.1045">presenta confirmaci&#243;n de solicitud de eliminaci&#243;n</text><text fill="#000000" font-family="sans-serif" font-size="13" lengthAdjust="spacing" textLength="129.5493" x="55" y="391.4561">&#8226; Confirmar o cancelar</text></g><!--link ConfirmandoSolicitud to SolicitudEnviada--><g class="link" data-entity-1="ent0005" data-entity-2="ent0006" data-link-type="dependency" data-source-line="28" id="lnk6"><path d="M44,471.6094 C44,496.3194 44,528.6094 44,553.3894" fill="none" id="ConfirmandoSolicitud-to-SolicitudEnviada" style="stroke:#008000;stroke-width:1;"/><polygon fill="#008000" points="44,559.3894,48,550.3894,44,554.3894,40,550.3894,44,559.3894" style="stroke:#008000;stroke-width:1;"/><path d="M49,494.6094 L49,536.6094 L375,536.6094 L375,504.6094 L365,494.6094 L49,494.6094" fill="#FEFFDD" style="stroke:#181818;stroke-width:0.5;"/><path d="M365,494.6094 L365,504.6094 L375,504.6094 L365,494.6094" fill="#FEFFDD" style="stroke:#181818;stroke-width:0.5;"/><text fill="#000000" font-family="sans-serif" font-size="13" font-weight="700" lengthAdjust="spacing" textLength="77.2954" x="55" y="513.1045">Investigador</text><text fill="#000000" font-family="sans-serif" font-size="13" lengthAdjust="spacing" textLength="166.1689" x="135.9072" y="513.1045">solicita confirmar eliminaci&#243;n</text><text fill="#000000" font-family="sans-serif" font-size="13" font-weight="700" lengthAdjust="spacing" textLength="49.8608" x="55" y="529.4561">Sistema</text><text fill="#000000" font-family="sans-serif" font-size="13" lengthAdjust="spacing" textLength="252.1606" x="108.4727" y="529.4561">permite confirmar la solicitud de eliminaci&#243;n</text></g><!--link SolicitudEnviada to *end*solicitarEliminacionPerfil--><g class="link" data-entity-1="ent0006" data-entity-2="ent0007" data-link-type="dependency" data-source-line="35" id="lnk8"><path d="M44,609.6494 C44,622.1994 44,630.8894 44,640.4594" fill="none" id="SolicitudEnviada-to-*end*solicitarEliminacionPerfil" style="stroke:#008000;stroke-width:1;"/><polygon fill="#008000" points="44,646.4594,48,637.4594,44,641.4594,40,637.4594,44,646.4594" style="stroke:#008000;stroke-width:1;"/></g><g class="entity" data-qualified-name="SESION_CERRADA" id="ent0009"><rect fill="#F1F1F1" height="50" rx="12.5" ry="12.5" style="stroke:#181818;stroke-width:0.5;" width="149.1445" x="7" y="778"/><line style="stroke:#181818;stroke-width:0.5;" x1="7" x2="156.1445" y1="805.6094" y2="805.6094"/><text fill="#000000" font-family="sans-serif" font-size="14" lengthAdjust="spacing" textLength="129.1445" x="17" y="797.5332">SESION_CERRADA</text></g><g class="entity" data-qualified-name="OPCIONES_PERFIL_ABIERTO" id="ent0011"><rect fill="#F1F1F1" height="50" rx="12.5" ry="12.5" style="stroke:#181818;stroke-width:0.5;" width="219.9443" x="245.5" y="778"/><line style="stroke:#181818;stroke-width:0.5;" x1="245.5" x2="465.4443" y1="805.6094" y2="805.6094"/><text fill="#000000" font-family="sans-serif" font-size="14" lengthAdjust="spacing" textLength="199.9443" x="255.5" y="797.5332">OPCIONES_PERFIL_ABIERTO</text></g><!--link in1 to solicitarEliminacionPerfil--><g class="link" data-entity-1="ent0002" data-entity-2="ent0003" data-link-type="dependency" data-source-line="5" id="lnk2"><path d="M218.5,57.28 C218.5,79.1 218.5,107.68 218.5,146.96" fill="none" id="in1-to-solicitarEliminacionPerfil" style="stroke:#008000;stroke-width:1;"/><polygon fill="#008000" points="218.5,152.96,222.5,143.96,218.5,147.96,214.5,143.96,218.5,152.96" style="stroke:#008000;stroke-width:1;"/><path d="M223.5,92 L223.5,118 L392.5,118 L392.5,102 L382.5,92 L223.5,92" fill="#FEFFDD" style="stroke:#181818;stroke-width:0.5;"/><path d="M382.5,92 L382.5,102 L392.5,102 L382.5,92" fill="#FEFFDD" style="stroke:#181818;stroke-width:0.5;"/><text fill="#000000" font-family="sans-serif" font-size="13" lengthAdjust="spacing" textLength="148.8145" x="229.5" y="110.4951">solicitarEliminacionPerfil()</text></g><!--link solicitarEliminacionPerfil to SESION_CERRADA--><g class="link" data-entity-1="ent0003" data-entity-2="ent0009" data-link-type="dependency" data-source-line="40" id="lnk10"><path d="M92.69,682.24 C83.95,700.58 78.5,712 78.5,712 C78.5,712 78.5,748 78.5,748 C78.5,748 79.0265,757.4793 79.8265,771.8493" fill="none" id="solicitarEliminacionPerfil-to-SESION_CERRADA" style="stroke:#008000;stroke-width:1;"/><polygon fill="#008000" points="80.16,777.84,83.6535,768.6316,79.8821,772.8477,75.6659,769.0763,80.16,777.84" style="stroke:#008000;stroke-width:1;"/><path d="M83.5,717 L83.5,743 L307.5,743 L307.5,727 L297.5,717 L83.5,717" fill="#FEFFDD" style="stroke:#181818;stroke-width:0.5;"/><path d="M297.5,717 L297.5,727 L307.5,727 L297.5,717" fill="#FEFFDD" style="stroke:#181818;stroke-width:0.5;"/><text fill="#000000" font-family="sans-serif" font-size="13" lengthAdjust="spacing" textLength="203.7788" x="89.5" y="735.4951">Solicitud enviada &#8212; sesi&#243;n cerrada</text></g><!--link solicitarEliminacionPerfil to OPCIONES_PERFIL_ABIERTO--><g class="link" data-entity-1="ent0003" data-entity-2="ent0011" data-link-type="dependency" data-source-line="45" id="lnk12"><path d="M312.72,682.24 C326.76,721.56 337.1131,750.5091 344.8831,772.2791" fill="none" id="solicitarEliminacionPerfil-to-OPCIONES_PERFIL_ABIERTO" style="stroke:#FF0000;stroke-width:1;"/><polygon fill="#FF0000" points="346.9,777.93,347.6419,768.1091,345.2193,773.2209,340.1075,770.7983,346.9,777.93" style="stroke:#FF0000;stroke-width:1;"/><path d="M340.5,717 L340.5,743 L473.5,743 L473.5,727 L463.5,717 L340.5,717" fill="#FEFFDD" style="stroke:#181818;stroke-width:0.5;"/><path d="M463.5,717 L463.5,727 L473.5,727 L463.5,717" fill="#FEFFDD" style="stroke:#181818;stroke-width:0.5;"/><text fill="#000000" font-family="sans-serif" font-size="13" lengthAdjust="spacing" textLength="112.0171" x="346.5" y="735.4951">Solicitud cancelada</text></g><?plantuml-src bLJHQi8m57tFLrowbsqWO-yYEDT1OKnfzoOYMNgLO9gKf0eo1dx4lc2_i4_Od_WbIzfg5ss5jK-tEJddt7EJcXMNETKq0y4b5jiS8LTYwmf2J44B12xlWHe8nfDHD7u9a_aaZ9-Yv_dm8GhZrt507A0tlLfgH3dh3S0emHalg0u5pxYaZ2ivGRtWWaXb2PLqOYlIZRk-8IXJS6XoiD6DBjrT8WlWdH2mJyKKsDTkIL0WSp0gKrNxEmEDb5nmdJb8KYciqnQgmr8eDvocj5ARtiwyNBe4lL3SX_xR898RD0LVqbJf_jrR4oe82jYq2AbDPWrvmzO4vweMJSzJPtzjfX9k2inewIVNQ51QFwncOFpdkx9pu775qQfTB6dskw-Zg0O5Z4g6WkeMxstU_41FO_z_cknevSpfQSEeCswfcnrs4fTxzTkfvd5YsUl77XW78X_kq7SVTo-2CB6NSZuAutZuEFJlLnCQrcBxtISODEMa66hjCcjCNfRKc3h1Zhz0bt8zthywlm00?></g></svg>