<svg xmlns="http://www.w3.org/2000/svg" xmlns:xlink="http://www.w3.org/1999/xlink" contentStyleType="text/css" height="1184px" preserveAspectRatio="none" style="width:1931px;height:1184px;background:#FFFFFF;" version="1.1" viewBox="0 0 1931 1184" width="1931px" zoomAndPan="magnify"><title>Diagrama de secuencia - Abrir recompensa como Coordinador</title><defs/><g><text fill="#000000" font-family="sans-serif" font-size="14" font-weight="bold" lengthAdjust="spacing" textLength="417.0059" x="758.1843" y="29.5332">Diagrama de secuencia - Abrir recompensa como Coordinador</text><rect fill="#FFFFFF" height="939.2188" style="stroke:#181818;stroke-width:1;" width="10" x="309.4399" y="153.5703"/><rect fill="#FFFFFF" height="626.3828" style="stroke:#181818;stroke-width:1;" width="10" x="535.7441" y="200.2734"/><rect fill="#FFFFFF" height="55.7031" style="stroke:#181818;stroke-width:1;" width="10" x="879.8945" y="230.625"/><rect fill="#FFFFFF" height="463.2734" style="stroke:#181818;stroke-width:1;" width="10" x="1013.2251" y="316.6797"/><rect fill="none" height="840.1641" style="stroke:#000000;stroke-width:1.5;" width="1914.3745" x="10" y="245.625"/><rect fill="none" height="518.8125" style="stroke:#000000;stroke-width:1.5;" width="1894.3745" x="20" y="453.0859"/><line style="stroke:#181818;stroke-width:0.5;stroke-dasharray:5.0,5.0;" x1="71" x2="71" y1="121.2188" y2="1102.7891"/><line style="stroke:#181818;stroke-width:0.5;stroke-dasharray:5.0,5.0;" x1="314.0576" x2="314.0576" y1="121.2188" y2="1102.7891"/><line style="stroke:#181818;stroke-width:0.5;stroke-dasharray:5.0,5.0;" x1="540.1548" x2="540.1548" y1="121.2188" y2="1102.7891"/><line style="stroke:#181818;stroke-width:0.5;stroke-dasharray:5.0,5.0;" x1="884.1499" x2="884.1499" y1="121.2188" y2="1102.7891"/><line style="stroke:#181818;stroke-width:0.5;stroke-dasharray:5.0,5.0;" x1="1017.6392" x2="1017.6392" y1="121.2188" y2="1102.7891"/><line style="stroke:#181818;stroke-width:0.5;stroke-dasharray:5.0,5.0;" x1="1180.811" x2="1180.811" y1="121.2188" y2="1102.7891"/><line style="stroke:#181818;stroke-width:0.5;stroke-dasharray:5.0,5.0;" x1="1341.2173" x2="1341.2173" y1="121.2188" y2="1102.7891"/><line style="stroke:#181818;stroke-width:0.5;stroke-dasharray:5.0,5.0;" x1="1483.3823" x2="1483.3823" y1="121.2188" y2="1102.7891"/><line style="stroke:#181818;stroke-width:0.5;stroke-dasharray:5.0,5.0;" x1="1854.5405" x2="1854.5405" y1="121.2188" y2="1102.7891"/><text fill="#000000" font-family="sans-serif" font-size="14" lengthAdjust="spacing" textLength="77.0479" x="30" y="118.1426">Coordinador</text><ellipse cx="71.5239" cy="52.1094" fill="#E2E2F0" rx="8" ry="8" style="stroke:#181818;stroke-width:0.5;"/><path d="M71.5239,60.1094 L71.5239,87.1094 M58.5239,68.1094 L84.5239,68.1094 M71.5239,87.1094 L58.5239,102.1094 M71.5239,87.1094 L84.5239,102.1094 " fill="none" style="stroke:#181818;stroke-width:0.5;"/><text fill="#000000" font-family="sans-serif" font-size="14" lengthAdjust="spacing" textLength="77.0479" x="30" y="1116.3223">Coordinador</text><ellipse cx="71.5239" cy="1127.8984" fill="#E2E2F0" rx="8" ry="8" style="stroke:#181818;stroke-width:0.5;"/><path d="M71.5239,1135.8984 L71.5239,1162.8984 M58.5239,1143.8984 L84.5239,1143.8984 M71.5239,1162.8984 L58.5239,1177.8984 M71.5239,1162.8984 L84.5239,1177.8984 " fill="none" style="stroke:#181818;stroke-width:0.5;"/><rect fill="#E2E2F0" height="49.2188" rx="2.5" ry="2.5" style="stroke:#181818;stroke-width:0.5;" width="172.7646" x="228.0576" y="71"/><text fill="#000000" font-family="sans-serif" font-size="14" lengthAdjust="spacing" textLength="158.7646" x="235.0576" y="92.5332">RecompensaDetallePage</text><text fill="#000000" font-family="sans-serif" font-size="14" lengthAdjust="spacing" textLength="45.8965" x="291.4917" y="110.1426">(React)</text><rect fill="#E2E2F0" height="49.2188" rx="2.5" ry="2.5" style="stroke:#181818;stroke-width:0.5;" width="172.7646" x="228.0576" y="1101.7891"/><text fill="#000000" font-family="sans-serif" font-size="14" lengthAdjust="spacing" textLength="158.7646" x="235.0576" y="1123.3223">RecompensaDetallePage</text><text fill="#000000" font-family="sans-serif" font-size="14" lengthAdjust="spacing" textLength="45.8965" x="291.4917" y="1140.9316">(React)</text><rect fill="#E2E2F0" height="49.2188" rx="2.5" ry="2.5" style="stroke:#181818;stroke-width:0.5;" width="157.1787" x="462.1548" y="71"/><text fill="#000000" font-family="sans-serif" font-size="14" lengthAdjust="spacing" textLength="143.1787" x="469.1548" y="92.5332">RecompensaController</text><text fill="#000000" font-family="sans-serif" font-size="14" lengthAdjust="spacing" textLength="82.4824" x="499.5029" y="110.1426">(Spring Boot)</text><rect fill="#E2E2F0" height="49.2188" rx="2.5" ry="2.5" style="stroke:#181818;stroke-width:0.5;" width="157.1787" x="462.1548" y="1101.7891"/><text fill="#000000" font-family="sans-serif" font-size="14" lengthAdjust="spacing" textLength="143.1787" x="469.1548" y="1123.3223">RecompensaController</text><text fill="#000000" font-family="sans-serif" font-size="14" lengthAdjust="spacing" textLength="82.4824" x="499.5029" y="1140.9316">(Spring Boot)</text><rect fill="#E2E2F0" height="31.6094" rx="2.5" ry="2.5" style="stroke:#181818;stroke-width:0.5;" width="103.4893" x="833.1499" y="88.6094"/><text fill="#000000" font-family="sans-serif" font-size="14" lengthAdjust="spacing" textLength="89.4893" x="840.1499" y="110.1426">SesionService</text><rect fill="#E2E2F0" height="31.6094" rx="2.5" ry="2.5" style="stroke:#181818;stroke-width:0.5;" width="103.4893" x="833.1499" y="1101.7891"/><text fill="#000000" font-family="sans-serif" font-size="14" lengthAdjust="spacing" textLength="89.4893" x="840.1499" y="1123.3223">SesionService</text><rect fill="#E2E2F0" height="31.6094" rx="2.5" ry="2.5" style="stroke:#181818;stroke-width:0.5;" width="143.1719" x="946.6392" y="88.6094"/><text fill="#000000" font-family="sans-serif" font-size="14" lengthAdjust="spacing" textLength="129.1719" x="953.6392" y="110.1426">RecompensaService</text><rect fill="#E2E2F0" height="31.6094" rx="2.5" ry="2.5" style="stroke:#181818;stroke-width:0.5;" width="143.1719" x="946.6392" y="1101.7891"/><text fill="#000000" font-family="sans-serif" font-size="14" lengthAdjust="spacing" textLength="129.1719" x="953.6392" y="1123.3223">RecompensaService</text><rect fill="#E2E2F0" height="31.6094" rx="2.5" ry="2.5" style="stroke:#181818;stroke-width:0.5;" width="163.4063" x="1099.811" y="88.6094"/><text fill="#000000" font-family="sans-serif" font-size="14" lengthAdjust="spacing" textLength="149.4063" x="1106.811" y="110.1426">RecompensaRepository</text><rect fill="#E2E2F0" height="31.6094" rx="2.5" ry="2.5" style="stroke:#181818;stroke-width:0.5;" width="163.4063" x="1099.811" y="1101.7891"/><text fill="#000000" font-family="sans-serif" font-size="14" lengthAdjust="spacing" textLength="149.4063" x="1106.811" y="1123.3223">RecompensaRepository</text><rect fill="#E2E2F0" height="31.6094" rx="2.5" ry="2.5" style="stroke:#181818;stroke-width:0.5;" width="136.165" x="1273.2173" y="88.6094"/><text fill="#000000" font-family="sans-serif" font-size="14" lengthAdjust="spacing" textLength="122.165" x="1280.2173" y="110.1426">ProyectoRepository</text><rect fill="#E2E2F0" height="31.6094" rx="2.5" ry="2.5" style="stroke:#181818;stroke-width:0.5;" width="136.165" x="1273.2173" y="1101.7891"/><text fill="#000000" font-family="sans-serif" font-size="14" lengthAdjust="spacing" textLength="122.165" x="1280.2173" y="1123.3223">ProyectoRepository</text><rect fill="#E2E2F0" height="31.6094" rx="2.5" ry="2.5" style="stroke:#181818;stroke-width:0.5;" width="129.1582" x="1419.3823" y="88.6094"/><text fill="#000000" font-family="sans-serif" font-size="14" lengthAdjust="spacing" textLength="115.1582" x="1426.3823" y="110.1426">UsuarioRepository</text><rect fill="#E2E2F0" height="31.6094" rx="2.5" ry="2.5" style="stroke:#181818;stroke-width:0.5;" width="129.1582" x="1419.3823" y="1101.7891"/><text fill="#000000" font-family="sans-serif" font-size="14" lengthAdjust="spacing" textLength="115.1582" x="1426.3823" y="1123.3223">UsuarioRepository</text><text fill="#000000" font-family="sans-serif" font-size="14" lengthAdjust="spacing" textLength="91.834" x="1806.5405" y="118.1426">Base de Datos</text><path d="M1837.4575,67.6094 C1837.4575,57.6094 1855.4575,57.6094 1855.4575,57.6094 C1855.4575,57.6094 1873.4575,57.6094 1873.4575,67.6094 L1873.4575,93.6094 C1873.4575,103.6094 1855.4575,103.6094 1855.4575,103.6094 C1855.4575,103.6094 1837.4575,103.6094 1837.4575,93.6094 L1837.4575,67.6094 " fill="#E2E2F0" style="stroke:#181818;stroke-width:1.5;"/><path d="M1837.4575,67.6094 C1837.4575,77.6094 1855.4575,77.6094 1855.4575,77.6094 C1855.4575,77.6094 1873.4575,77.6094 1873.4575,67.6094 " fill="none" style="stroke:#181818;stroke-width:1.5;"/><text fill="#000000" font-family="sans-serif" font-size="14" lengthAdjust="spacing" textLength="91.834" x="1806.5405" y="1116.3223">Base de Datos</text><path d="M1837.4575,1129.3984 C1837.4575,1119.3984 1855.4575,1119.3984 1855.4575,1119.3984 C1855.4575,1119.3984 1873.4575,1119.3984 1873.4575,1129.3984 L1873.4575,1155.3984 C1873.4575,1165.3984 1855.4575,1165.3984 1855.4575,1165.3984 C1855.4575,1165.3984 1837.4575,1165.3984 1837.4575,1155.3984 L1837.4575,1129.3984 " fill="#E2E2F0" style="stroke:#181818;stroke-width:1.5;"/><path d="M1837.4575,1129.3984 C1837.4575,1139.3984 1855.4575,1139.3984 1855.4575,1139.3984 C1855.4575,1139.3984 1873.4575,1139.3984 1873.4575,1129.3984 " fill="none" style="stroke:#181818;stroke-width:1.5;"/><rect fill="#FFFFFF" height="939.2188" style="stroke:#181818;stroke-width:1;" width="10" x="309.4399" y="153.5703"/><rect fill="#FFFFFF" height="626.3828" style="stroke:#181818;stroke-width:1;" width="10" x="535.7441" y="200.2734"/><rect fill="#FFFFFF" height="55.7031" style="stroke:#181818;stroke-width:1;" width="10" x="879.8945" y="230.625"/><rect fill="#FFFFFF" height="463.2734" style="stroke:#181818;stroke-width:1;" width="10" x="1013.2251" y="316.6797"/><polygon fill="#181818" points="297.4399,149.5703,307.4399,153.5703,297.4399,157.5703,301.4399,153.5703" style="stroke:#181818;stroke-width:1;"/><line style="stroke:#181818;stroke-width:1;" x1="71.5239" x2="303.4399" y1="153.5703" y2="153.5703"/><text fill="#000000" font-family="sans-serif" font-size="13" lengthAdjust="spacing" textLength="164.0488" x="78.5239" y="148.7139">Selecciona una recompensa</text><polygon fill="#181818" points="523.7441,196.2734,533.7441,200.2734,523.7441,204.2734,527.7441,200.2734" style="stroke:#181818;stroke-width:1;"/><line style="stroke:#181818;stroke-width:1;" x1="319.4399" x2="529.7441" y1="200.2734" y2="200.2734"/><text fill="#000000" font-family="sans-serif" font-size="13" lengthAdjust="spacing" textLength="155.3589" x="326.4399" y="179.0654">GET /api/recompensas/{id}</text><text fill="#000000" font-family="sans-serif" font-size="13" lengthAdjust="spacing" textLength="99.728" x="326.4399" y="195.417">Cookie de sesion</text><polygon fill="#181818" points="867.8945,226.625,877.8945,230.625,867.8945,234.625,871.8945,230.625" style="stroke:#181818;stroke-width:1;"/><line style="stroke:#181818;stroke-width:1;" x1="545.7441" x2="873.8945" y1="230.625" y2="230.625"/><text fill="#000000" font-family="sans-serif" font-size="13" lengthAdjust="spacing" textLength="209.5806" x="552.7441" y="225.7686">obtenerSesionActual(authentication)</text><path d="M10,245.625 L70.1709,245.625 L70.1709,253.9766 L60.1709,263.9766 L10,263.9766 L10,245.625 " fill="#EEEEEE" style="stroke:#000000;stroke-width:1.5;"/><rect fill="none" height="840.1641" style="stroke:#000000;stroke-width:1.5;" width="1914.3745" x="10" y="245.625"/><text fill="#000000" font-family="sans-serif" font-size="13" font-weight="bold" lengthAdjust="spacing" textLength="15.1709" x="25" y="260.1201">alt</text><text fill="#000000" font-family="sans-serif" font-size="11" font-weight="bold" lengthAdjust="spacing" textLength="162.583" x="85.1709" y="259.0439">[Sesion de Coordinador activa]</text><polygon fill="#181818" points="556.7441,282.3281,546.7441,286.3281,556.7441,290.3281,552.7441,286.3281" style="stroke:#181818;stroke-width:1;"/><line style="stroke:#181818;stroke-width:1;stroke-dasharray:2.0,2.0;" x1="550.7441" x2="883.8945" y1="286.3281" y2="286.3281"/><text fill="#000000" font-family="sans-serif" font-size="13" lengthAdjust="spacing" textLength="142.3779" x="562.7441" y="281.4717">Coordinador autenticado</text><polygon fill="#181818" points="1001.2251,312.6797,1011.2251,316.6797,1001.2251,320.6797,1005.2251,316.6797" style="stroke:#181818;stroke-width:1;"/><line style="stroke:#181818;stroke-width:1;" x1="545.7441" x2="1007.2251" y1="316.6797" y2="316.6797"/><text fill="#000000" font-family="sans-serif" font-size="13" lengthAdjust="spacing" textLength="100.4453" x="552.7441" y="311.8232">obtenerGlobal(id)</text><polygon fill="#181818" points="1169.5142,343.0313,1179.5142,347.0313,1169.5142,351.0313,1173.5142,347.0313" style="stroke:#181818;stroke-width:1;"/><line style="stroke:#181818;stroke-width:1;" x1="1023.2251" x2="1175.5142" y1="347.0313" y2="347.0313"/><text fill="#000000" font-family="sans-serif" font-size="13" lengthAdjust="spacing" textLength="65.749" x="1030.2251" y="342.1748">findById(id)</text><polygon fill="#181818" points="1843.4575,373.3828,1853.4575,377.3828,1843.4575,381.3828,1847.4575,377.3828" style="stroke:#181818;stroke-width:1;"/><line style="stroke:#181818;stroke-width:1;" x1="1181.5142" x2="1849.4575" y1="377.3828" y2="377.3828"/><text fill="#000000" font-family="sans-serif" font-size="13" lengthAdjust="spacing" textLength="270.5498" x="1188.5142" y="372.5264">SELECT * FROM recompensas WHERE id = ?</text><polygon fill="#181818" points="1192.5142,403.7344,1182.5142,407.7344,1192.5142,411.7344,1188.5142,407.7344" style="stroke:#181818;stroke-width:1;"/><line style="stroke:#181818;stroke-width:1;stroke-dasharray:2.0,2.0;" x1="1186.5142" x2="1854.4575" y1="407.7344" y2="407.7344"/><text fill="#000000" font-family="sans-serif" font-size="13" lengthAdjust="spacing" textLength="149.5889" x="1198.5142" y="402.8779">Resultado de persistencia</text><polygon fill="#181818" points="1034.2251,434.0859,1024.2251,438.0859,1034.2251,442.0859,1030.2251,438.0859" style="stroke:#181818;stroke-width:1;"/><line style="stroke:#181818;stroke-width:1;stroke-dasharray:2.0,2.0;" x1="1028.2251" x2="1180.5142" y1="438.0859" y2="438.0859"/><text fill="#000000" font-family="sans-serif" font-size="13" lengthAdjust="spacing" textLength="76.5972" x="1040.2251" y="433.2295">Recompensa</text><path d="M20,453.0859 L80.1709,453.0859 L80.1709,461.4375 L70.1709,471.4375 L20,471.4375 L20,453.0859 " fill="#EEEEEE" style="stroke:#000000;stroke-width:1.5;"/><rect fill="none" height="518.8125" style="stroke:#000000;stroke-width:1.5;" width="1894.3745" x="20" y="453.0859"/><text fill="#000000" font-family="sans-serif" font-size="13" font-weight="bold" lengthAdjust="spacing" textLength="15.1709" x="35" y="467.5811">alt</text><text fill="#000000" font-family="sans-serif" font-size="11" font-weight="bold" lengthAdjust="spacing" textLength="126.543" x="95.1709" y="466.5049">[Recompensa existente]</text><polygon fill="#181818" points="1329.2998,489.7891,1339.2998,493.7891,1329.2998,497.7891,1333.2998,493.7891" style="stroke:#181818;stroke-width:1;"/><line style="stroke:#181818;stroke-width:1;" x1="1023.2251" x2="1335.2998" y1="493.7891" y2="493.7891"/><text fill="#000000" font-family="sans-serif" font-size="13" lengthAdjust="spacing" textLength="191.4834" x="1030.2251" y="488.9326">findById(recompensa.proyectoId)</text><polygon fill="#181818" points="1843.4575,520.1406,1853.4575,524.1406,1843.4575,528.1406,1847.4575,524.1406" style="stroke:#181818;stroke-width:1;"/><line style="stroke:#181818;stroke-width:1;" x1="1341.2998" x2="1849.4575" y1="524.1406" y2="524.1406"/><text fill="#000000" font-family="sans-serif" font-size="13" lengthAdjust="spacing" textLength="433.3672" x="1348.2998" y="519.2842">SELECT * FROM proyectos WHERE id = ? AND estado = 'COMPLETADO'</text><polygon fill="#181818" points="1352.2998,550.4922,1342.2998,554.4922,1352.2998,558.4922,1348.2998,554.4922" style="stroke:#181818;stroke-width:1;"/><line style="stroke:#181818;stroke-width:1;stroke-dasharray:2.0,2.0;" x1="1346.2998" x2="1854.4575" y1="554.4922" y2="554.4922"/><text fill="#000000" font-family="sans-serif" font-size="13" lengthAdjust="spacing" textLength="149.5889" x="1358.2998" y="549.6357">Resultado de persistencia</text><polygon fill="#181818" points="1034.2251,580.8438,1024.2251,584.8438,1034.2251,588.8438,1030.2251,584.8438" style="stroke:#181818;stroke-width:1;"/><line style="stroke:#181818;stroke-width:1;stroke-dasharray:2.0,2.0;" x1="1028.2251" x2="1340.2998" y1="584.8438" y2="584.8438"/><text fill="#000000" font-family="sans-serif" font-size="13" lengthAdjust="spacing" textLength="122.1226" x="1040.2251" y="579.9873">Proyecto completado</text><polygon fill="#181818" points="1471.9614,611.1953,1481.9614,615.1953,1471.9614,619.1953,1475.9614,615.1953" style="stroke:#181818;stroke-width:1;"/><line style="stroke:#181818;stroke-width:1;" x1="1023.2251" x2="1477.9614" y1="615.1953" y2="615.1953"/><text fill="#000000" font-family="sans-serif" font-size="13" lengthAdjust="spacing" textLength="211.7197" x="1030.2251" y="610.3389">findById(recompensa.investigadorId)</text><polygon fill="#181818" points="1843.4575,641.5469,1853.4575,645.5469,1843.4575,649.5469,1847.4575,645.5469" style="stroke:#181818;stroke-width:1;"/><line style="stroke:#181818;stroke-width:1;" x1="1483.9614" x2="1849.4575" y1="645.5469" y2="645.5469"/><text fill="#000000" font-family="sans-serif" font-size="13" lengthAdjust="spacing" textLength="347.4961" x="1490.9614" y="640.6904">SELECT * FROM usuarios WHERE id = ? AND activo = true</text><polygon fill="#181818" points="1494.9614,671.8984,1484.9614,675.8984,1494.9614,679.8984,1490.9614,675.8984" style="stroke:#181818;stroke-width:1;"/><line style="stroke:#181818;stroke-width:1;stroke-dasharray:2.0,2.0;" x1="1488.9614" x2="1854.4575" y1="675.8984" y2="675.8984"/><text fill="#000000" font-family="sans-serif" font-size="13" lengthAdjust="spacing" textLength="149.5889" x="1500.9614" y="671.042">Resultado de persistencia</text><polygon fill="#181818" points="1034.2251,702.25,1024.2251,706.25,1034.2251,710.25,1030.2251,706.25" style="stroke:#181818;stroke-width:1;"/><line style="stroke:#181818;stroke-width:1;stroke-dasharray:2.0,2.0;" x1="1028.2251" x2="1482.9614" y1="706.25" y2="706.25"/><text fill="#000000" font-family="sans-serif" font-size="13" lengthAdjust="spacing" textLength="192.9497" x="1040.2251" y="701.3936">Beneficiario con sede y condicion</text><line style="stroke:#181818;stroke-width:1;" x1="1023.2251" x2="1065.2251" y1="736.6016" y2="736.6016"/><line style="stroke:#181818;stroke-width:1;" x1="1065.2251" x2="1065.2251" y1="736.6016" y2="749.6016"/><line style="stroke:#181818;stroke-width:1;" x1="1024.2251" x2="1065.2251" y1="749.6016" y2="749.6016"/><polygon fill="#181818" points="1034.2251,745.6016,1024.2251,749.6016,1034.2251,753.6016,1030.2251,749.6016" style="stroke:#181818;stroke-width:1;"/><text fill="#000000" font-family="sans-serif" font-size="13" lengthAdjust="spacing" textLength="80.9136" x="1030.2251" y="731.7451">validarDatos()</text><polygon fill="#181818" points="556.7441,775.9531,546.7441,779.9531,556.7441,783.9531,552.7441,779.9531" style="stroke:#181818;stroke-width:1;"/><line style="stroke:#181818;stroke-width:1;stroke-dasharray:2.0,2.0;" x1="550.7441" x2="1017.2251" y1="779.9531" y2="779.9531"/><text fill="#000000" font-family="sans-serif" font-size="13" lengthAdjust="spacing" textLength="175.6016" x="562.7441" y="775.0967">RecompensaDetalleResponse</text><polygon fill="#181818" points="330.4399,822.6563,320.4399,826.6563,330.4399,830.6563,326.4399,826.6563" style="stroke:#181818;stroke-width:1;"/><line style="stroke:#181818;stroke-width:1;stroke-dasharray:2.0,2.0;" x1="324.4399" x2="539.7441" y1="826.6563" y2="826.6563"/><text fill="#000000" font-family="sans-serif" font-size="13" lengthAdjust="spacing" textLength="44.0845" x="336.4399" y="805.4482">200 OK</text><text fill="#000000" font-family="sans-serif" font-size="13" lengthAdjust="spacing" textLength="169.1016" x="336.4399" y="821.7998">Detalle y acciones de gestion</text><polygon fill="#181818" points="82.5239,853.0078,72.5239,857.0078,82.5239,861.0078,78.5239,857.0078" style="stroke:#181818;stroke-width:1;"/><line style="stroke:#181818;stroke-width:1;stroke-dasharray:2.0,2.0;" x1="76.5239" x2="308.4399" y1="857.0078" y2="857.0078"/><text fill="#000000" font-family="sans-serif" font-size="13" lengthAdjust="spacing" textLength="210.958" x="88.5239" y="852.1514">Presenta RECOMPENSA_ABIERTA</text><line style="stroke:#000000;stroke-width:1;stroke-dasharray:2.0,2.0;" x1="20" x2="1914.3745" y1="866.0078" y2="866.0078"/><text fill="#000000" font-family="sans-serif" font-size="11" font-weight="bold" lengthAdjust="spacing" textLength="136.3184" x="25" y="877.4268">[Recompensa inexistente]</text><polygon fill="#181818" points="551.7441,899.1953,541.7441,903.1953,551.7441,907.1953,547.7441,903.1953" style="stroke:#181818;stroke-width:1;"/><line style="stroke:#181818;stroke-width:1;stroke-dasharray:2.0,2.0;" x1="545.7441" x2="1017.2251" y1="903.1953" y2="903.1953"/><text fill="#000000" font-family="sans-serif" font-size="13" lengthAdjust="spacing" textLength="188.6079" x="557.7441" y="898.3389">RecursoNoEncontradoException</text><polygon fill="#181818" points="330.4399,929.5469,320.4399,933.5469,330.4399,937.5469,326.4399,933.5469" style="stroke:#181818;stroke-width:1;"/><line style="stroke:#181818;stroke-width:1;stroke-dasharray:2.0,2.0;" x1="324.4399" x2="539.7441" y1="933.5469" y2="933.5469"/><text fill="#000000" font-family="sans-serif" font-size="13" lengthAdjust="spacing" textLength="86.0044" x="336.4399" y="928.6904">404 Not Found</text><polygon fill="#181818" points="82.5239,959.8984,72.5239,963.8984,82.5239,967.8984,78.5239,963.8984" style="stroke:#181818;stroke-width:1;"/><line style="stroke:#181818;stroke-width:1;stroke-dasharray:2.0,2.0;" x1="76.5239" x2="308.4399" y1="963.8984" y2="963.8984"/><text fill="#000000" font-family="sans-serif" font-size="13" lengthAdjust="spacing" textLength="213.916" x="88.5239" y="959.042">Presenta recompensa no encontrada</text><line style="stroke:#000000;stroke-width:1;stroke-dasharray:2.0,2.0;" x1="10" x2="1924.3745" y1="979.8984" y2="979.8984"/><text fill="#000000" font-family="sans-serif" font-size="11" font-weight="bold" lengthAdjust="spacing" textLength="159.5269" x="15" y="991.3174">[Sesion ausente o rol invalido]</text><polygon fill="#181818" points="551.7441,1013.0859,541.7441,1017.0859,551.7441,1021.0859,547.7441,1017.0859" style="stroke:#181818;stroke-width:1;"/><line style="stroke:#181818;stroke-width:1;stroke-dasharray:2.0,2.0;" x1="545.7441" x2="883.8945" y1="1017.0859" y2="1017.0859"/><text fill="#000000" font-family="sans-serif" font-size="13" lengthAdjust="spacing" textLength="320.1504" x="557.7441" y="1012.2295">SesionNoValidaException / AccesoDenegadoException</text><polygon fill="#181818" points="330.4399,1043.4375,320.4399,1047.4375,330.4399,1051.4375,326.4399,1047.4375" style="stroke:#181818;stroke-width:1;"/><line style="stroke:#181818;stroke-width:1;stroke-dasharray:2.0,2.0;" x1="324.4399" x2="539.7441" y1="1047.4375" y2="1047.4375"/><text fill="#000000" font-family="sans-serif" font-size="13" lengthAdjust="spacing" textLength="197.3042" x="336.4399" y="1042.5811">401 Unauthorized / 403 Forbidden</text><polygon fill="#181818" points="82.5239,1073.7891,72.5239,1077.7891,82.5239,1081.7891,78.5239,1077.7891" style="stroke:#181818;stroke-width:1;"/><line style="stroke:#181818;stroke-width:1;stroke-dasharray:2.0,2.0;" x1="76.5239" x2="308.4399" y1="1077.7891" y2="1077.7891"/><text fill="#000000" font-family="sans-serif" font-size="13" lengthAdjust="spacing" textLength="145.9644" x="88.5239" y="1072.9326">Presenta error de acceso</text><!--SRC=[fLLTJzim57tlhxZY1PZ4O1jFI6nAI61eqAAqR2z8anjVEcl1Zcm7mQRzzrqxNqxQmgHLIkKuzrpVS-w7hR05GYBOIhC71Xp1O5wXp0M30uYMMcZGcAk74gLXG0i5PqffBYJZIaycBBTA3xPAfgt8HScaXPsimoPeML7W3LlXdTpBa83xEy0Cd6ibBKg-3NX6dxKYg2RSlDH2hY1Mga57fHW2vsY4adFKZo97RrBlR7C_jFJhRQOPbie8ullihTthqFH6gsSaGKQ6uVOGS6igfiNO_b8-eh5YvUJq6CuiMpA3i1ExVyfImgmotZY99vD0VZZus2bwGeGAp7DYpw2Yfy-aovjuP1Px-Tk5yq2gdi15ke13Leh37cOEVml-vqxIWJy5rkNYnUtSkNpGuvpKkf-0Mf9RrFLhbDkA5NkiiZzGaX3CqkP-Zs-InGhRBDqX8R_QSWBqQmmEse07PfMj_NFbRJcEZt2xNQG-xrse5uLQKf22xtkh05dNHtsuNpkuoz49t0l9u-TBti7SjlkSn9I8z2ezMy0RECzcrq4U37pxd6Of20wdyCd3ajWpgfrcQAh24WadGudQ26DzTmOdX0JwOgqZ9ndxBS0d3xSrWn6Bi4e3DdsiRyl6uh8Xw7uXQZFP5ZMa2j4q0QfoH-qKTizcrpTNwI9APhkTwqQ8OLml2x8UKIXE-yMDiR90szR6I8Xn-sqMGmHMeI1Zz6PHghhnDsZYYyrfOdM5OotMGtjTZ_M0GarYglTxcaSk6j95KaEJesUtv29l-sIaK8T-P8NWJFjfjBU_RjfsvjerG66NIfgUuA0_-oxhcdGmrjuV7S7iovrid56up4yvD4w5bQCR11wuTjEftUxd7VaEHeUh4pJK9GoorDLbEfr7twFuCiqMaKTZGKCuQ2iXNsYiG89A6pLLgSpTZKP7fKyvbjj2VLs5uwDZc2eBvwgYyVt_R8DxNYh0DiowajmDuNatGvTL3eIWWEvcKi1NWjeubkltgVhgYwKZ3OSGvJaQbL09hjRaU65WZrHu1xVItITAYr_8oUtnqGSIHIy5vxZch1Nb7mH1hUaceOfYFiw9qo3mr7hu2m00]--></g></svg>