<svg xmlns="http://www.w3.org/2000/svg" xmlns:xlink="http://www.w3.org/1999/xlink" contentStyleType="text/css" data-diagram-type="STATE" height="843px" preserveAspectRatio="none" style="width:685px;height:843px;background:#FFFFFF;" version="1.1" viewBox="0 0 685 843" width="685px" zoomAndPan="magnify"><?plantuml 1.2026.6?><defs/><g><g class="entity" data-qualified-name="in1" data-source-line="3" id="ent0001"><rect fill="#F1F1F1" height="50" rx="12.5" ry="12.5" style="stroke:#181818;stroke-width:0.5;" width="205.9375" x="235.5" y="7"/><line style="stroke:#181818;stroke-width:0.5;" x1="235.5" x2="441.4375" y1="34.6094" y2="34.6094"/><text fill="#000000" font-family="sans-serif" font-size="14" lengthAdjust="spacing" textLength="185.9375" x="245.5" y="26.5332">MI_PUBLICACION_ABIERTA</text></g><g class="entity" data-qualified-name="eliminarPublicacion" data-source-line="6" id="ent0002"><path d="M19.5,135 L657.5,135 A12.5,12.5 0 0 1 670,147.5 L670,162.6094 L7,162.6094 L7,147.5 A12.5,12.5 0 0 1 19.5,135" fill="#F1F1F1"/><rect fill="none" height="565.6094" rx="12.5" ry="12.5" style="stroke:#181818;stroke-width:0.5;" width="663" x="7" y="135"/><line style="stroke:#181818;stroke-width:0.5;" x1="7" x2="670" y1="162.6094" y2="162.6094"/><text fill="#000000" font-family="sans-serif" font-size="14" lengthAdjust="spacing" textLength="129.9375" x="273.5313" y="154.5332">eliminarPublicacion()</text><g class="entity" data-qualified-name="eliminarPublicacion.VerificandoAutoria" data-source-line="7" id="ent0003"><rect fill="#F1F1F1" height="50" rx="12.5" ry="12.5" style="stroke:#181818;stroke-width:0.5;" width="50" x="201" y="265.6094"/><line style="stroke:#181818;stroke-width:0.5;" x1="201" x2="251" y1="293.2188" y2="293.2188"/><text fill="#000000" font-family="sans-serif" font-size="14" lengthAdjust="spacing" textLength="3.8896" x="224.0552" y="285.1426">&#160;</text></g><g class="entity" data-qualified-name="eliminarPublicacion.ConfirmandoRetirada" data-source-line="8" id="ent0004"><rect fill="#F1F1F1" height="50" rx="12.5" ry="12.5" style="stroke:#181818;stroke-width:0.5;" width="50" x="201" y="403.6094"/><line style="stroke:#181818;stroke-width:0.5;" x1="201" x2="251" y1="431.2188" y2="431.2188"/><text fill="#000000" font-family="sans-serif" font-size="14" lengthAdjust="spacing" textLength="3.8896" x="224.0552" y="423.1426">&#160;</text></g><g class="entity" data-qualified-name="eliminarPublicacion.PublicacionRetirada" data-source-line="9" id="ent0005"><rect fill="#F1F1F1" height="50" rx="12.5" ry="12.5" style="stroke:#181818;stroke-width:0.5;" width="50" x="19" y="526.6094"/><line style="stroke:#181818;stroke-width:0.5;" x1="19" x2="69" y1="554.2188" y2="554.2188"/><text fill="#000000" font-family="sans-serif" font-size="14" lengthAdjust="spacing" textLength="3.8896" x="42.0552" y="546.1426">&#160;</text></g><g class="start_entity" data-qualified-name="eliminarPublicacion..start.eliminarPublicacion" data-source-line="11" id="ent0007"><ellipse cx="226" cy="183.6094" fill="#222222" rx="10" ry="10" style="stroke:#222222;stroke-width:1;"/></g><g class="end_entity" data-qualified-name="eliminarPublicacion..end.eliminarPublicacion" data-source-line="27" id="ent0011"><ellipse cx="214" cy="676.6094" fill="none" rx="11" ry="11" style="stroke:#222222;stroke-width:1;"/><ellipse cx="214" cy="676.6094" fill="#222222" rx="6" ry="6" style="stroke:#222222;stroke-width:1;"/></g><!--link *start*eliminarPublicacion to VerificandoAutoria--><g class="link" data-entity-1="ent0007" data-entity-2="ent0003" data-link-type="dependency" data-source-line="11" id="lnk8"><path d="M226,193.9294 C226,209.7894 226,237.5194 226,260.2494" fill="none" id="*start*eliminarPublicacion-to-VerificandoAutoria" style="stroke:#008000;stroke-width:1;"/><polygon fill="#008000" points="226,265.2494,230,256.2494,226,260.2494,222,256.2494,226,265.2494" style="stroke:#008000;stroke-width:1;stroke-linejoin:miter;stroke-miterlimit:10;"/><path d="M231,216.6094 L231,242.6094 L543,242.6094 L543,226.6094 L533,216.6094 L231,216.6094" fill="#FEFFDD" style="stroke:#181818;stroke-width:0.5;"/><path d="M533,216.6094 L533,226.6094 L543,226.6094 L533,216.6094" fill="#FEFFDD" style="stroke:#181818;stroke-width:0.5;"/><text fill="#000000" font-family="sans-serif" font-size="13" font-weight="700" lengthAdjust="spacing" textLength="77.2954" x="237" y="235.1045">Investigador</text><text fill="#000000" font-family="sans-serif" font-size="13" lengthAdjust="spacing" textLength="211.0024" x="317.9072" y="235.1045">solicita retirar una publicacion propia</text></g><!--link VerificandoAutoria to ConfirmandoRetirada--><g class="link" data-entity-1="ent0003" data-entity-2="ent0004" data-link-type="dependency" data-source-line="16" id="lnk9"><path d="M226,315.6094 C226,340.3194 226,373.6094 226,398.3894" fill="none" id="VerificandoAutoria-to-ConfirmandoRetirada" style="stroke:#008000;stroke-width:1;"/><polygon fill="#008000" points="226,403.3894,230,394.3894,226,398.3894,222,394.3894,226,403.3894" style="stroke:#008000;stroke-width:1;stroke-linejoin:miter;stroke-miterlimit:10;"/><path d="M231,338.6094 L231,380.6094 L551,380.6094 L551,348.6094 L541,338.6094 L231,338.6094" fill="#FEFFDD" style="stroke:#181818;stroke-width:0.5;"/><path d="M541,338.6094 L541,348.6094 L551,348.6094 L541,338.6094" fill="#FEFFDD" style="stroke:#181818;stroke-width:0.5;"/><text fill="#000000" font-family="sans-serif" font-size="13" font-weight="700" lengthAdjust="spacing" textLength="49.8608" x="237" y="357.1045">Sistema</text><text fill="#000000" font-family="sans-serif" font-size="13" lengthAdjust="spacing" textLength="222.5679" x="290.4727" y="357.1045">verifica que el Investigador es su autor</text><text fill="#000000" font-family="sans-serif" font-size="13" font-weight="700" lengthAdjust="spacing" textLength="49.8608" x="237" y="373.4561">Sistema</text><text fill="#000000" font-family="sans-serif" font-size="13" lengthAdjust="spacing" textLength="246.4097" x="290.4727" y="373.4561">presenta la publicacion y solicita un motivo</text></g><!--link ConfirmandoRetirada to PublicacionRetirada--><g class="link" data-entity-1="ent0004" data-entity-2="ent0005" data-link-type="dependency" data-source-line="22" id="lnk10"><path d="M200.96,436.2694 C156.41,448.1094 68,471.6094 68,471.6094 C68,471.6094 59.8439,498.4654 52.7839,521.6954" fill="none" id="ConfirmandoRetirada-to-PublicacionRetirada" style="stroke:#008000;stroke-width:1;"/><polygon fill="#008000" points="51.33,526.4794,57.7742,519.0314,52.7839,521.6954,50.1199,516.7051,51.33,526.4794" style="stroke:#008000;stroke-width:1;stroke-linejoin:miter;stroke-miterlimit:10;"/><path d="M73,476.6094 L73,502.6094 L389,502.6094 L389,486.6094 L379,476.6094 L73,476.6094" fill="#FEFFDD" style="stroke:#181818;stroke-width:0.5;"/><path d="M379,476.6094 L379,486.6094 L389,486.6094 L379,476.6094" fill="#FEFFDD" style="stroke:#181818;stroke-width:0.5;"/><text fill="#000000" font-family="sans-serif" font-size="13" font-weight="700" lengthAdjust="spacing" textLength="77.2954" x="79" y="495.1045">Investigador</text><text fill="#000000" font-family="sans-serif" font-size="13" lengthAdjust="spacing" textLength="214.5889" x="159.9072" y="495.1045">indica el motivo y confirma la retirada</text></g><!--link PublicacionRetirada to *end*eliminarPublicacion--><g class="link" data-entity-1="ent0005" data-entity-2="ent0011" data-link-type="dependency" data-source-line="27" id="lnk12"><path d="M31.71,576.6194 C26.67,586.4694 22,595.6094 22,595.6094 C22,595.6094 22,647.6094 22,647.6094 C22,647.6094 157.5623,667.3783 198.1823,673.2983" fill="none" id="PublicacionRetirada-to-*end*eliminarPublicacion" style="stroke:#008000;stroke-width:1;"/><polygon fill="#008000" points="203.13,674.0194,194.801,668.7632,198.1823,673.2983,193.6472,676.6796,203.13,674.0194" style="stroke:#008000;stroke-width:1;stroke-linejoin:miter;stroke-miterlimit:10;"/><path d="M27,600.6094 L27,642.6094 L389,642.6094 L389,610.6094 L379,600.6094 L27,600.6094" fill="#FEFFDD" style="stroke:#181818;stroke-width:0.5;"/><path d="M379,600.6094 L379,610.6094 L389,610.6094 L379,600.6094" fill="#FEFFDD" style="stroke:#181818;stroke-width:0.5;"/><text fill="#000000" font-family="sans-serif" font-size="13" font-weight="700" lengthAdjust="spacing" textLength="49.8608" x="33" y="619.1045">Sistema</text><text fill="#000000" font-family="sans-serif" font-size="13" lengthAdjust="spacing" textLength="242.0679" x="86.4727" y="619.1045">retira la publicacion de los listados activos</text><text fill="#000000" font-family="sans-serif" font-size="13" lengthAdjust="spacing" textLength="341.7896" x="33" y="635.4561">y conserva autoria, relaciones, fecha, motivo y responsable</text></g><!--link ConfirmandoRetirada to *end*eliminarPublicacion--><g class="link" data-entity-1="ent0004" data-entity-2="ent0011" data-link-type="dependency" data-source-line="33" id="lnk13"><path d="M251.15,435.8994 C298.02,447.6094 394,471.6094 394,471.6094 C394,471.6094 394,647.6094 394,647.6094 C394,647.6094 268.4105,667.1406 229.6605,673.1706" fill="none" id="ConfirmandoRetirada-to-*end*eliminarPublicacion" style="stroke:#FF0000;stroke-width:1;"/><polygon fill="#FF0000" points="224.72,673.9394,234.228,676.5079,229.6605,673.1706,232.9979,668.6031,224.72,673.9394" style="stroke:#FF0000;stroke-width:1;stroke-linejoin:miter;stroke-miterlimit:10;"/><path d="M399,530.6094 L399,572.6094 L646,572.6094 L646,540.6094 L636,530.6094 L399,530.6094" fill="#FEFFDD" style="stroke:#181818;stroke-width:0.5;"/><path d="M636,530.6094 L636,540.6094 L646,540.6094 L636,530.6094" fill="#FEFFDD" style="stroke:#181818;stroke-width:0.5;"/><text fill="#000000" font-family="sans-serif" font-size="13" font-weight="700" lengthAdjust="spacing" textLength="77.2954" x="405" y="549.1045">Investigador</text><text fill="#000000" font-family="sans-serif" font-size="13" lengthAdjust="spacing" textLength="92.4854" x="485.9072" y="549.1045">solicita cancelar</text><text fill="#000000" font-family="sans-serif" font-size="13" font-weight="700" lengthAdjust="spacing" textLength="49.8608" x="405" y="565.4561">Sistema</text><text fill="#000000" font-family="sans-serif" font-size="13" lengthAdjust="spacing" textLength="173.437" x="458.4727" y="565.4561">mantiene la publicacion activa</text></g></g><g class="entity" data-qualified-name="MIS_PUBLICACIONES_ABIERTAS" data-source-line="40" id="ent0014"><rect fill="#F1F1F1" height="50" rx="12.5" ry="12.5" style="stroke:#181818;stroke-width:0.5;" width="243.2891" x="87" y="779"/><line style="stroke:#181818;stroke-width:0.5;" x1="87" x2="330.2891" y1="806.6094" y2="806.6094"/><text fill="#000000" font-family="sans-serif" font-size="14" lengthAdjust="spacing" textLength="223.2891" x="97" y="798.5332">MIS_PUBLICACIONES_ABIERTAS</text></g><g class="entity" data-qualified-name="MI_PUBLICACION_ABIERTA" data-source-line="41" id="ent0016"><rect fill="#F1F1F1" height="50" rx="12.5" ry="12.5" style="stroke:#181818;stroke-width:0.5;" width="205.9375" x="365.5" y="779"/><line style="stroke:#181818;stroke-width:0.5;" x1="365.5" x2="571.4375" y1="806.6094" y2="806.6094"/><text fill="#000000" font-family="sans-serif" font-size="14" lengthAdjust="spacing" textLength="185.9375" x="375.5" y="798.5332">MI_PUBLICACION_ABIERTA</text></g><!--link in1 to eliminarPublicacion--><g class="link" data-entity-1="ent0001" data-entity-2="ent0002" data-link-type="dependency" data-source-line="4" id="lnk6"><path d="M338.5,57.02 C338.5,75.41 338.5,97.98 338.5,129.83" fill="none" id="in1-to-eliminarPublicacion" style="stroke:#008000;stroke-width:1;"/><polygon fill="#008000" points="338.5,134.83,342.5,125.83,338.5,129.83,334.5,125.83,338.5,134.83" style="stroke:#008000;stroke-width:1;stroke-linejoin:miter;stroke-miterlimit:10;"/><text fill="#000000" font-family="sans-serif" font-size="13" lengthAdjust="spacing" textLength="120.6563" x="339.5" y="101.4951">eliminarPublicacion()</text></g><!--link eliminarPublicacion to MIS_PUBLICACIONES_ABIERTAS--><g class="link" data-entity-1="ent0002" data-entity-2="ent0014" data-link-type="dependency" data-source-line="40" id="lnk15"><path d="M243,701.1 C232.25,732.85 224.5435,755.6141 218.3135,774.0141" fill="none" id="eliminarPublicacion-to-MIS_PUBLICACIONES_ABIERTAS" style="stroke:#008000;stroke-width:1;"/><polygon fill="#008000" points="216.71,778.75,223.385,771.5082,218.3135,774.0141,215.8076,768.9426,216.71,778.75" style="stroke:#008000;stroke-width:1;stroke-linejoin:miter;stroke-miterlimit:10;"/><text fill="#000000" font-family="sans-serif" font-size="13" lengthAdjust="spacing" textLength="114.1753" x="231.5" y="745.4951">Publicacion retirada</text></g><!--link eliminarPublicacion to MI_PUBLICACION_ABIERTA--><g class="link" data-entity-1="ent0002" data-entity-2="ent0016" data-link-type="dependency" data-source-line="41" id="lnk17"><path d="M434,701.1 C444.75,732.85 452.4565,755.6141 458.6865,774.0141" fill="none" id="eliminarPublicacion-to-MI_PUBLICACION_ABIERTA" style="stroke:#FF0000;stroke-width:1;"/><polygon fill="#FF0000" points="460.29,778.75,461.1924,768.9426,458.6865,774.0141,453.615,771.5082,460.29,778.75" style="stroke:#FF0000;stroke-width:1;stroke-linejoin:miter;stroke-miterlimit:10;"/><text fill="#000000" font-family="sans-serif" font-size="13" lengthAdjust="spacing" textLength="112.0171" x="450.5" y="745.4951">Retirada cancelada</text></g><?plantuml-src ZLHBQ-Cm4BxxLmpffRkab5vB2QIX1qCV8TdTIobbOatQeRRaId8WBFlVToIxMJjHsDWNMvxvNXhBVR2kqM859MlosvgWDkKsl6IPy-W9M5y1EXWzvA_pdxVt-MmwovyUNwUt-TtYntIKXUyNpsTlbaY_N4o0IgvOevqtgv8BBDXek4wjdd_xeaYr1CfaqmX-Po1NspgIMqf_aUMrb6Xbfeqtbl6mPcRqccqLQXRasQ9A5FMeTaMnwldxoy3c4KPj14laIu8VSU5cDSdrXfpdDrJ6tbok9k2CSB17i972GgCHwfxvsfgw0oIj8cYhuf1r8EgOnPIg9JjF5KP1cmuMFfkm6z1N3EJ0DO21BjLRMtAanKmvzB3zPxFHK1dF6vDmb90yi9JQa9E3Pgs2At7KyekeekCBScqVS2WhGJkG9UDmKh8jnNusYg0qJffazfGyO17KkGWG9Jgo6smpPnmBIXaRoOrXJSMxBEqCIVorDE2gfDFZjQJ-v-BurChu5I8eEGt2v9aqxJkE3lU2_fDbgJ-_7_D3lkoVEdVBhtDdAMTAlsctbKSGEyFfGqomTk5qvXJ-1G00?></g></svg>