<svg xmlns="http://www.w3.org/2000/svg" xmlns:xlink="http://www.w3.org/1999/xlink" contentStyleType="text/css" data-diagram-type="STATE" height="884px" preserveAspectRatio="none" style="width:1642px;height:884px;background:#FFFFFF;" version="1.1" viewBox="0 0 1642 884" width="1642px" zoomAndPan="magnify"><?plantuml 1.2026.3?><defs/><g><g class="entity" data-qualified-name="in1" id="ent0002"><rect fill="#F1F1F1" height="50" rx="12.5" ry="12.5" style="stroke:#181818;stroke-width:0.5;" width="167.8066" x="650" y="7"/><line style="stroke:#181818;stroke-width:0.5;" x1="650" x2="817.8066" y1="34.6094" y2="34.6094"/><text fill="#000000" font-family="sans-serif" font-size="14" lengthAdjust="spacing" textLength="147.8066" x="660" y="26.5332">PROYECTO_ABIERTO</text></g><path d="M449.5,118 L1018.5,118 A12.5,12.5 0 0 1 1031,130.5 L1031,145.6094 L437,145.6094 L437,130.5 A12.5,12.5 0 0 1 449.5,118" fill="#F1F1F1"/><rect fill="none" height="605.6094" rx="12.5" ry="12.5" style="stroke:#181818;stroke-width:0.5;" width="594" x="437" y="118"/><line style="stroke:#181818;stroke-width:0.5;" x1="437" x2="1031" y1="145.6094" y2="145.6094"/><text fill="#000000" font-family="sans-serif" font-size="14" lengthAdjust="spacing" textLength="99.5928" x="684.2036" y="137.5332">editarProyecto()</text><g class="entity" data-qualified-name="editarProyecto.EditandoDatos" id="ent0004"><rect fill="#F1F1F1" height="50" rx="12.5" ry="12.5" style="stroke:#181818;stroke-width:0.5;" width="50" x="587" y="248.6094"/><line style="stroke:#181818;stroke-width:0.5;" x1="587" x2="637" y1="276.2188" y2="276.2188"/><text fill="#000000" font-family="sans-serif" font-size="14" lengthAdjust="spacing" textLength="3.8896" x="610.0552" y="268.1426">&#160;</text></g><g class="entity" data-qualified-name="editarProyecto.GuardandoDatos" id="ent0005"><rect fill="#F1F1F1" height="50" rx="12.5" ry="12.5" style="stroke:#181818;stroke-width:0.5;" width="50" x="587" y="566.6094"/><line style="stroke:#181818;stroke-width:0.5;" x1="587" x2="637" y1="594.2188" y2="594.2188"/><text fill="#000000" font-family="sans-serif" font-size="14" lengthAdjust="spacing" textLength="3.8896" x="610.0552" y="586.1426">&#160;</text></g><g class="start_entity" data-qualified-name="editarProyecto..start.editarProyecto" data-source-line="11" id="ent0003"><ellipse cx="612" cy="166.6094" fill="#222222" rx="10" ry="10" style="stroke:#222222;stroke-width:1;"/></g><g class="end_entity" data-qualified-name="editarProyecto..end.editarProyecto" data-source-line="38" id="ent0007"><ellipse cx="612" cy="699.6094" fill="none" rx="11" ry="11" style="stroke:#222222;stroke-width:1;"/><ellipse cx="612" cy="699.6094" fill="#222222" rx="6" ry="6" style="stroke:#222222;stroke-width:1;"/></g><!--link *start*editarProyecto to EditandoDatos--><g class="link" data-entity-1="ent0003" data-entity-2="ent0004" data-link-type="dependency" data-source-line="11" id="lnk4"><path d="M612,176.9294 C612,192.7894 612,219.5194 612,242.2494" fill="none" id="*start*editarProyecto-to-EditandoDatos" style="stroke:#008000;stroke-width:1;"/><polygon fill="#008000" points="612,248.2494,616,239.2494,612,243.2494,608,239.2494,612,248.2494" style="stroke:#008000;stroke-width:1;"/><path d="M617,199.6094 L617,225.6094 L848,225.6094 L848,209.6094 L838,199.6094 L617,199.6094" fill="#FEFFDD" style="stroke:#181818;stroke-width:0.5;"/><path d="M838,199.6094 L838,209.6094 L848,209.6094 L838,199.6094" fill="#FEFFDD" style="stroke:#181818;stroke-width:0.5;"/><text fill="#000000" font-family="sans-serif" font-size="13" font-weight="700" lengthAdjust="spacing" textLength="77.9937" x="623" y="218.1045">Coordinador</text><text fill="#000000" font-family="sans-serif" font-size="13" lengthAdjust="spacing" textLength="129.3398" x="704.6055" y="218.1045">solicita editar proyecto</text></g><!--link EditandoDatos to GuardandoDatos--><g class="link" data-entity-1="ent0004" data-entity-2="ent0005" data-link-type="dependency" data-source-line="16" id="lnk5"><path d="M586.73,281.0794 C540.73,292.8594 448,316.6094 448,316.6094 C448,316.6094 448,548.6094 448,548.6094 C448,548.6094 534.9176,570.8709 580.9176,582.6509" fill="none" id="EditandoDatos-to-GuardandoDatos" style="stroke:#008000;stroke-width:1;"/><polygon fill="#008000" points="586.73,584.1394,579.0037,578.0317,581.8863,582.899,577.019,585.7816,586.73,584.1394" style="stroke:#008000;stroke-width:1;"/><path d="M453,321.6094 L453,543.6094 L750,543.6094 L750,331.6094 L740,321.6094 L453,321.6094" fill="#FEFFDD" style="stroke:#181818;stroke-width:0.5;"/><path d="M740,321.6094 L740,331.6094 L750,331.6094 L740,321.6094" fill="#FEFFDD" style="stroke:#181818;stroke-width:0.5;"/><text fill="#000000" font-family="sans-serif" font-size="13" font-weight="700" lengthAdjust="spacing" textLength="49.8608" x="459" y="340.1045">Sistema</text><text fill="#000000" font-family="sans-serif" font-size="13" lengthAdjust="spacing" textLength="223.3169" x="512.4727" y="340.1045">presenta datos de edici&#243;n del proyecto</text><text fill="#000000" font-family="sans-serif" font-size="13" lengthAdjust="spacing" textLength="21.8931" x="459" y="356.4561">&#8226; ID</text><text fill="#000000" font-family="sans-serif" font-size="13" lengthAdjust="spacing" textLength="41.4058" x="459" y="372.8076">&#8226; T&#237;tulo</text><text fill="#000000" font-family="sans-serif" font-size="13" lengthAdjust="spacing" textLength="49.3657" x="459" y="389.1592">&#8226; Estado</text><text fill="#000000" font-family="sans-serif" font-size="13" lengthAdjust="spacing" textLength="80.4375" x="459" y="405.5107">&#8226; Coordinador</text><text fill="#000000" font-family="sans-serif" font-size="13" lengthAdjust="spacing" textLength="96.332" x="459" y="421.8623">&#8226; Fecha de inicio</text><text fill="#000000" font-family="sans-serif" font-size="13" lengthAdjust="spacing" textLength="80.4375" x="459" y="438.2139">&#8226; Fecha de fin</text><text fill="#000000" font-family="sans-serif" font-size="13" lengthAdjust="spacing" textLength="76.8066" x="459" y="454.5654">&#8226; Descripci&#243;n</text><text fill="#000000" font-family="sans-serif" font-size="13" lengthAdjust="spacing" textLength="3.6118" x="459" y="470.917">&#160;</text><text fill="#000000" font-family="sans-serif" font-size="13" lengthAdjust="spacing" textLength="242.0488" x="459" y="487.2686">y permite solicitar las siguientes acciones:</text><text fill="#000000" font-family="sans-serif" font-size="13" lengthAdjust="spacing" textLength="171.4756" x="459" y="503.6201">&#8226; Modificar datos del proyecto</text><text fill="#000000" font-family="sans-serif" font-size="13" lengthAdjust="spacing" textLength="94.1421" x="459" y="519.9717">&#8226; Guardar y salir</text><text fill="#000000" font-family="sans-serif" font-size="13" lengthAdjust="spacing" textLength="60.9185" x="459" y="536.3232">&#8226; Cancelar</text></g><!--link GuardandoDatos to EditandoDatos--><g class="link" data-entity-1="ent0005" data-entity-2="ent0004" data-link-type="dependency" data-source-line="33" id="lnk6"><path d="M637.24,583.1994 C678.29,571.1394 755,548.6094 755,548.6094 C755,548.6094 755,316.6094 755,316.6094 C755,316.6094 684.0467,295.7706 642.9967,283.7106" fill="none" id="GuardandoDatos-to-EditandoDatos" style="stroke:#008000;stroke-width:1;"/><polygon fill="#008000" points="637.24,282.0194,644.7476,288.3941,642.0373,283.4288,647.0026,280.7184,637.24,282.0194" style="stroke:#008000;stroke-width:1;"/><path d="M760,419.6094 L760,445.6094 L1007,445.6094 L1007,429.6094 L997,419.6094 L760,419.6094" fill="#FEFFDD" style="stroke:#181818;stroke-width:0.5;"/><path d="M997,419.6094 L997,429.6094 L1007,429.6094 L997,419.6094" fill="#FEFFDD" style="stroke:#181818;stroke-width:0.5;"/><text fill="#000000" font-family="sans-serif" font-size="13" font-weight="700" lengthAdjust="spacing" textLength="77.9937" x="766" y="438.1045">Coordinador</text><text fill="#000000" font-family="sans-serif" font-size="13" lengthAdjust="spacing" textLength="145.2153" x="847.6055" y="438.1045">solicita modificar campos</text></g><!--link GuardandoDatos to *end*editarProyecto--><g class="link" data-entity-1="ent0005" data-entity-2="ent0007" data-link-type="dependency" data-source-line="38" id="lnk8"><path d="M586.82,600.8094 C549.28,613.0294 483,634.6094 483,634.6094 C483,634.6094 483,670.6094 483,670.6094 C483,670.6094 564.7666,688.3562 595.5766,695.0462" fill="none" id="GuardandoDatos-to-*end*editarProyecto" style="stroke:#008000;stroke-width:1;"/><polygon fill="#008000" points="601.44,696.3194,593.4937,690.5007,596.5539,695.2584,591.7962,698.3186,601.44,696.3194" style="stroke:#008000;stroke-width:1;"/><path d="M488,639.6094 L488,665.6094 L716,665.6094 L716,649.6094 L706,639.6094 L488,639.6094" fill="#FEFFDD" style="stroke:#181818;stroke-width:0.5;"/><path d="M706,639.6094 L706,649.6094 L716,649.6094 L706,639.6094" fill="#FEFFDD" style="stroke:#181818;stroke-width:0.5;"/><text fill="#000000" font-family="sans-serif" font-size="13" font-weight="700" lengthAdjust="spacing" textLength="77.9937" x="494" y="658.1045">Coordinador</text><text fill="#000000" font-family="sans-serif" font-size="13" lengthAdjust="spacing" textLength="125.7153" x="575.6055" y="658.1045">solicita guardar y salir</text></g><!--link GuardandoDatos to *end*editarProyecto--><g class="link" data-entity-1="ent0005" data-entity-2="ent0007" data-link-type="dependency" data-source-line="43" id="lnk9"><path d="M637.01,602.2494 C669.19,614.6494 721,634.6094 721,634.6094 C721,634.6094 721,670.6094 721,670.6094 C721,670.6094 655.5412,687.4261 628.2612,694.4361" fill="none" id="GuardandoDatos-to-*end*editarProyecto-1" style="stroke:#FF0000;stroke-width:1;"/><polygon fill="#FF0000" points="622.45,695.9294,632.1623,697.5636,627.2927,694.685,630.1713,689.8153,622.45,695.9294" style="stroke:#FF0000;stroke-width:1;"/><path d="M726,639.6094 L726,665.6094 L965,665.6094 L965,649.6094 L955,639.6094 L726,639.6094" fill="#FEFFDD" style="stroke:#181818;stroke-width:0.5;"/><path d="M955,639.6094 L955,649.6094 L965,649.6094 L955,639.6094" fill="#FEFFDD" style="stroke:#181818;stroke-width:0.5;"/><text fill="#000000" font-family="sans-serif" font-size="13" font-weight="700" lengthAdjust="spacing" textLength="77.9937" x="732" y="658.1045">Coordinador</text><text fill="#000000" font-family="sans-serif" font-size="13" lengthAdjust="spacing" textLength="137.2935" x="813.6055" y="658.1045">solicita cancelar edici&#243;n</text></g><g class="entity" data-qualified-name="PROYECTO_ABIERTO" id="ent0010"><rect fill="#F1F1F1" height="50" rx="12.5" ry="12.5" style="stroke:#181818;stroke-width:0.5;" width="167.8066" x="292" y="820"/><line style="stroke:#181818;stroke-width:0.5;" x1="292" x2="459.8066" y1="847.6094" y2="847.6094"/><text fill="#000000" font-family="sans-serif" font-size="14" lengthAdjust="spacing" textLength="147.8066" x="302" y="839.5332">PROYECTO_ABIERTO</text></g><g class="entity" data-qualified-name="PROYECTOS_ABIERTOS" id="ent0014"><rect fill="#F1F1F1" height="50" rx="12.5" ry="12.5" style="stroke:#181818;stroke-width:0.5;" width="186.4824" x="891" y="820"/><line style="stroke:#181818;stroke-width:0.5;" x1="891" x2="1077.4824" y1="847.6094" y2="847.6094"/><text fill="#000000" font-family="sans-serif" font-size="14" lengthAdjust="spacing" textLength="166.4824" x="901" y="839.5332">PROYECTOS_ABIERTOS</text></g><g class="entity" data-qualified-name="ENTREGABLES_ABIERTOS" id="ent0018"><rect fill="#F1F1F1" height="50" rx="12.5" ry="12.5" style="stroke:#181818;stroke-width:0.5;" width="202.0547" x="1167" y="820"/><line style="stroke:#181818;stroke-width:0.5;" x1="1167" x2="1369.0547" y1="847.6094" y2="847.6094"/><text fill="#000000" font-family="sans-serif" font-size="14" lengthAdjust="spacing" textLength="182.0547" x="1177" y="839.5332">ENTREGABLES_ABIERTOS</text></g><g class="entity" data-qualified-name="INVESTIGADORES_ABIERTOS" id="ent0020"><rect fill="#F1F1F1" height="50" rx="12.5" ry="12.5" style="stroke:#181818;stroke-width:0.5;" width="223.0479" x="1404.5" y="820"/><line style="stroke:#181818;stroke-width:0.5;" x1="1404.5" x2="1627.5479" y1="847.6094" y2="847.6094"/><text fill="#000000" font-family="sans-serif" font-size="14" lengthAdjust="spacing" textLength="203.0479" x="1414.5" y="839.5332">INVESTIGADORES_ABIERTOS</text></g><!--link in1 to editarProyecto--><g class="link" data-entity-1="ent0002" data-entity-2="ent0003" data-link-type="dependency" data-source-line="4" id="lnk2"><path d="M734,57.21 C734,72.18 734,87.2 734,111.65" fill="none" id="in1-to-editarProyecto" style="stroke:#008000;stroke-width:1;"/><polygon fill="#008000" points="734,117.65,738,108.65,734,112.65,730,108.65,734,117.65" style="stroke:#008000;stroke-width:1;"/></g><!--link editarProyecto to PROYECTO_ABIERTO--><g class="link" data-entity-1="ent0003" data-entity-2="ent0010" data-link-type="dependency" data-source-line="49" id="lnk11"><path d="M436.84,557.52 C235.54,649.32 6,754 6,754 C6,754 6,790 6,790 C6,790 176.4429,814.8734 285.6429,830.8134" fill="none" id="editarProyecto-to-PROYECTO_ABIERTO" style="stroke:#008000;stroke-width:1;"/><polygon fill="#008000" points="291.58,831.68,283.2521,826.422,286.6324,830.9578,282.0966,834.3381,291.58,831.68" style="stroke:#008000;stroke-width:1;"/><path d="M11,759 L11,785 L152,785 L152,769 L142,759 L11,759" fill="#FEFFDD" style="stroke:#181818;stroke-width:0.5;"/><path d="M142,759 L142,769 L152,769 L142,759" fill="#FEFFDD" style="stroke:#181818;stroke-width:0.5;"/><text fill="#000000" font-family="sans-serif" font-size="13" lengthAdjust="spacing" textLength="120.6816" x="17" y="777.4951">Proyecto actualizado</text></g><!--link editarProyecto to PROYECTO_ABIERTO--><g class="link" data-entity-1="ent0003" data-entity-2="ent0010" data-link-type="dependency" data-source-line="54" id="lnk12"><path d="M436.84,605.72 C312.79,682.41 197,754 197,754 C197,754 197,790 197,790 C197,790 242.7057,803.787 290.4357,818.187" fill="none" id="editarProyecto-to-PROYECTO_ABIERTO-1" style="stroke:#FF0000;stroke-width:1;"/><polygon fill="#FF0000" points="296.18,819.92,288.719,813.4909,291.3931,818.4758,286.4082,821.15,296.18,819.92" style="stroke:#FF0000;stroke-width:1;"/><path d="M202,759 L202,785 L328,785 L328,769 L318,759 L202,759" fill="#FEFFDD" style="stroke:#181818;stroke-width:0.5;"/><path d="M318,759 L318,769 L328,769 L318,759" fill="#FEFFDD" style="stroke:#181818;stroke-width:0.5;"/><text fill="#000000" font-family="sans-serif" font-size="13" lengthAdjust="spacing" textLength="105.5171" x="208" y="777.4951">Edici&#243;n cancelada</text></g><!--link editarProyecto to PROYECTO_ABIERTO--><g class="link" data-entity-1="ent0003" data-entity-2="ent0010" data-link-type="dependency" data-source-line="59" id="lnk13"><path d="M436.71,695.41 C398.85,730.23 373,754 373,754 C373,754 373,790 373,790 C373,790 373.5265,799.4793 374.3265,813.8493" fill="none" id="editarProyecto-to-PROYECTO_ABIERTO-2" style="stroke:#008000;stroke-width:1;"/><polygon fill="#008000" points="374.66,819.84,378.1535,810.6316,374.3821,814.8477,370.1659,811.0763,374.66,819.84" style="stroke:#008000;stroke-width:1;"/><path d="M378,759 L378,785 L491,785 L491,769 L481,759 L378,759" fill="#FEFFDD" style="stroke:#181818;stroke-width:0.5;"/><path d="M481,759 L481,769 L491,769 L481,759" fill="#FEFFDD" style="stroke:#181818;stroke-width:0.5;"/><text fill="#000000" font-family="sans-serif" font-size="13" lengthAdjust="spacing" textLength="92.479" x="384" y="777.4951">editarProyecto()</text></g><!--link editarProyecto to PROYECTO_ABIERTO--><g class="link" data-entity-1="ent0003" data-entity-2="ent0010" data-link-type="dependency" data-source-line="69" id="lnk16"><path d="M541.83,724.21 C517,763.27 500,790 500,790 C500,790 469.9916,803.0758 436.9716,817.4458" fill="none" id="editarProyecto-to-PROYECTO_ABIERTO-3" style="stroke:#008000;stroke-width:1;"/><polygon fill="#008000" points="431.47,819.84,441.3186,819.9164,436.0547,817.8448,438.1262,812.5809,431.47,819.84" style="stroke:#008000;stroke-width:1;"/><path d="M526,759 L526,785 L671,785 L671,769 L661,759 L526,759" fill="#FEFFDD" style="stroke:#181818;stroke-width:0.5;"/><path d="M661,759 L661,769 L671,769 L661,759" fill="#FEFFDD" style="stroke:#181818;stroke-width:0.5;"/><text fill="#000000" font-family="sans-serif" font-size="13" lengthAdjust="spacing" textLength="124.2871" x="532" y="777.4951">agregarInvestigador()</text></g><!--link editarProyecto to PROYECTO_ABIERTO--><g class="link" data-entity-1="ent0003" data-entity-2="ent0010" data-link-type="dependency" data-source-line="74" id="lnk17"><path d="M692.94,724.21 C687.63,763.27 684,790 684,790 C684,790 557.27,812.2245 466.07,828.2045" fill="none" id="editarProyecto-to-PROYECTO_ABIERTO-4" style="stroke:#008000;stroke-width:1;"/><polygon fill="#008000" points="460.16,829.24,469.7153,831.6267,465.085,828.3771,468.3346,823.7467,460.16,829.24" style="stroke:#008000;stroke-width:1;"/><path d="M694,759 L694,785 L839,785 L839,769 L829,759 L694,759" fill="#FEFFDD" style="stroke:#181818;stroke-width:0.5;"/><path d="M829,759 L829,769 L839,769 L829,759" fill="#FEFFDD" style="stroke:#181818;stroke-width:0.5;"/><text fill="#000000" font-family="sans-serif" font-size="13" lengthAdjust="spacing" textLength="124.9917" x="700" y="777.4951">eliminarInvestigador()</text></g><!--link editarProyecto to PROYECTOS_ABIERTOS--><g class="link" data-entity-1="ent0003" data-entity-2="ent0014" data-link-type="dependency" data-source-line="64" id="lnk15"><path d="M891.67,724.21 C912.05,763.27 926,790 926,790 C926,790 938.2179,801.3823 953.6579,815.7523" fill="none" id="editarProyecto-to-PROYECTOS_ABIERTOS" style="stroke:#008000;stroke-width:1;"/><polygon fill="#008000" points="958.05,819.84,954.187,810.7804,954.3899,816.4336,948.7367,816.6365,958.05,819.84" style="stroke:#008000;stroke-width:1;"/><path d="M931,759 L931,785 L1057,785 L1057,769 L1047,759 L931,759" fill="#FEFFDD" style="stroke:#181818;stroke-width:0.5;"/><path d="M1047,759 L1047,769 L1057,769 L1047,759" fill="#FEFFDD" style="stroke:#181818;stroke-width:0.5;"/><text fill="#000000" font-family="sans-serif" font-size="13" lengthAdjust="spacing" textLength="105.4727" x="937" y="777.4951">eliminarProyecto()</text></g><!--link editarProyecto to PROYECTOS_ABIERTOS--><g class="link" data-entity-1="ent0003" data-entity-2="ent0014" data-link-type="dependency" data-source-line="89" id="lnk22"><path d="M1031.1,719.1 C1052.56,740.56 1066,754 1066,754 C1066,754 1066,790 1066,790 C1066,790 1047.5323,802.172 1025.6923,816.542" fill="none" id="editarProyecto-to-PROYECTOS_ABIERTOS-1" style="stroke:#008000;stroke-width:1;"/><polygon fill="#008000" points="1020.68,819.84,1030.3971,818.2346,1024.8569,817.0917,1025.9999,811.5515,1020.68,819.84" style="stroke:#008000;stroke-width:1;"/><path d="M1071,759 L1071,785 L1184,785 L1184,769 L1174,759 L1071,759" fill="#FEFFDD" style="stroke:#181818;stroke-width:0.5;"/><path d="M1174,759 L1174,769 L1184,769 L1174,759" fill="#FEFFDD" style="stroke:#181818;stroke-width:0.5;"/><text fill="#000000" font-family="sans-serif" font-size="13" lengthAdjust="spacing" textLength="92.4663" x="1077" y="777.4951">abrirProyectos()</text></g><!--link editarProyecto to ENTREGABLES_ABIERTOS--><g class="link" data-entity-1="ent0003" data-entity-2="ent0018" data-link-type="dependency" data-source-line="79" id="lnk19"><path d="M1031.15,635.08 C1121.32,699.73 1197,754 1197,754 C1197,754 1224.224,788.5092 1245.254,815.1692" fill="none" id="editarProyecto-to-ENTREGABLES_ABIERTOS" style="stroke:#008000;stroke-width:1;"/><polygon fill="#008000" points="1248.97,819.88,1246.5366,810.3365,1245.8734,815.9543,1240.2555,815.2911,1248.97,819.88" style="stroke:#008000;stroke-width:1;"/><path d="M1230,759 L1230,785 L1355,785 L1355,769 L1345,759 L1230,759" fill="#FEFFDD" style="stroke:#181818;stroke-width:0.5;"/><path d="M1345,759 L1345,769 L1355,769 L1345,759" fill="#FEFFDD" style="stroke:#181818;stroke-width:0.5;"/><text fill="#000000" font-family="sans-serif" font-size="13" lengthAdjust="spacing" textLength="104.0444" x="1236" y="777.4951">abrirEntregables()</text></g><!--link editarProyecto to INVESTIGADORES_ABIERTOS--><g class="link" data-entity-1="ent0003" data-entity-2="ent0020" data-link-type="dependency" data-source-line="84" id="lnk21"><path d="M1031.04,577.55 C1195.91,663.88 1368,754 1368,754 C1368,754 1427.3735,790.1025 1471.2135,816.7625" fill="none" id="editarProyecto-to-INVESTIGADORES_ABIERTOS" style="stroke:#008000;stroke-width:1;"/><polygon fill="#008000" points="1476.34,819.88,1470.7286,811.786,1472.0679,817.2821,1466.5719,818.6214,1476.34,819.88" style="stroke:#008000;stroke-width:1;"/><path d="M1429,759 L1429,785 L1569,785 L1569,769 L1559,759 L1429,759" fill="#FEFFDD" style="stroke:#181818;stroke-width:0.5;"/><path d="M1559,759 L1559,769 L1569,769 L1559,759" fill="#FEFFDD" style="stroke:#181818;stroke-width:0.5;"/><text fill="#000000" font-family="sans-serif" font-size="13" lengthAdjust="spacing" textLength="119.2153" x="1435" y="777.4951">abrirInvestigadores()</text></g><?plantuml-src hPJVQjim5CRl_HGYkza6PUnsb42QQC6mDIKnWr7AKAHJxr1PCf8ooCPWpxBxNUqH-YPxaicA_qHEcgQXoOrz9Fs-xpkIREzGbSomWaXKuDOba5BBTVMI9DOn1mJLMy8i6LpDPv_fE9jz6LsaT9xD1aarSdRz8ZS0wkPiI42WO-RAw3LmfvlrSJMWujBBLmFo8qc8_srM3FpVJwFLB2NqX3bjTuUdAsP4DnucNB--YHpj8fJs1Asgk7UXSBuSZhKs0XKJsfo_MGw9rHAvNrXR9sMJg9eFIWJ8HZ0IYAHxzXxINg1rKB2WMngmeBok23GHUiVn_g_oppAsyU_NRv9EsiVi_ezRoMw8-bQ9xdKhOLjx3_mhgqHGUH6zMxz5rHOdOBd1CfZP95-J4ao1Fb7JBaEatnQB-Gfz2h24SSzLOD-rc8zQu2roFxM9k2VMfdF6ArWciJCyPeg3P6RFDiJDViuZKBIEEIlAcd2qk3-FJvVCz-H_JD60E5cFrtrjJrki-3D9UbTuEs7_gv14qjsjvsxbmtol3cMNPPTRvpXCfSsjg9qBTf1vfDV-H-bfp4K3NVIe4WlVz9Ev-xqoFozd9bNVm3hCgprz7d1ZznGolSpcT3gw-40VQWPR6ZHKkShyKe8zbfnUVgABB9sE9hFvOVYsx-FvZsrYG3Sh8-f_?></g></svg>