<svg xmlns="http://www.w3.org/2000/svg" xmlns:xlink="http://www.w3.org/1999/xlink" contentStyleType="text/css" data-diagram-type="DESCRIPTION" height="463px" preserveAspectRatio="none" style="width:2056px;height:463px;background:#FFFFFF;" version="1.1" viewBox="0 0 2056 463" width="2056px" zoomAndPan="magnify"><?plantuml 1.2026.5?><defs/><g><!--cluster abrirRecompensas--><g class="cluster" data-qualified-name="abrirRecompensas" data-source-line="5" id="ent0003"><path d="M217,6 L353.3789,6 A3.75,3.75 0 0 1 355.8789,8.5 L362.8789,29.6094 L775,29.6094 A2.5,2.5 0 0 1 777.5,32.1094 L777.5,445.5 A2.5,2.5 0 0 1 775,448 L217,448 A2.5,2.5 0 0 1 214.5,445.5 L214.5,8.5 A2.5,2.5 0 0 1 217,6" fill="none" style="stroke:#000000;stroke-width:1.5;"/><line style="stroke:#000000;stroke-width:1.5;" x1="214.5" x2="362.8789" y1="29.6094" y2="29.6094"/><text fill="#000000" font-family="sans-serif" font-size="14" font-weight="700" lengthAdjust="spacing" textLength="135.3789" x="218.5" y="22.5332">abrirRecompensas()</text></g><!--entity ListarRecompensasView--><g class="entity" data-qualified-name="abrirRecompensas.ListarRecompensasView" data-source-line="6" id="ent0004"><rect fill="#629EF9" height="37.6094" rx="2.5" ry="2.5" style="stroke:#181818;stroke-width:0.5;" width="174.0684" x="587.5" y="42"/><text fill="#000000" font-family="sans-serif" font-size="14" lengthAdjust="spacing" textLength="154.0684" x="597.5" y="66.5332">ListarRecompensasView</text></g><!--entity RecompensaController--><g class="entity" data-qualified-name="abrirRecompensas.RecompensaController" data-source-line="7" id="ent0005"><rect fill="#B5BD68" height="37.6094" rx="2.5" ry="2.5" style="stroke:#181818;stroke-width:0.5;" width="163.1787" x="416" y="168.5"/><text fill="#000000" font-family="sans-serif" font-size="14" lengthAdjust="spacing" textLength="143.1787" x="426" y="193.0332">RecompensaController</text></g><!--entity RecompensaRepository--><g class="entity" data-qualified-name="abrirRecompensas.RecompensaRepository" data-source-line="8" id="ent0006"><rect fill="#F2AC4E" height="37.6094" rx="2.5" ry="2.5" style="stroke:#181818;stroke-width:0.5;" width="169.4063" x="311" y="295"/><text fill="#000000" font-family="sans-serif" font-size="14" lengthAdjust="spacing" textLength="149.4063" x="321" y="319.5332">RecompensaRepository</text></g><!--entity Recompensa--><g class="entity" data-qualified-name="abrirRecompensas.Recompensa" data-source-line="9" id="ent0007"><rect fill="#F2AC4E" height="37.6094" rx="2.5" ry="2.5" style="stroke:#181818;stroke-width:0.5;" width="102.4893" x="344.5" y="394"/><text fill="#000000" font-family="sans-serif" font-size="14" lengthAdjust="spacing" textLength="82.4893" x="354.5" y="418.5332">Recompensa</text></g><!--entity EstadoEntrada1--><g class="entity" data-qualified-name="EstadoEntrada1" data-source-line="3" id="ent0001"><rect fill="#CDEBA5" height="37.6094" rx="2.5" ry="2.5" style="stroke:#181818;stroke-width:0.5;" width="191.1514" x="7" y="42"/><text fill="#000000" font-family="sans-serif" font-size="14" lengthAdjust="spacing" textLength="171.1514" x="17" y="66.5332">:RECOMPENSA_ABIERTA</text></g><!--entity EstadoEntrada2--><g class="entity" data-qualified-name="EstadoEntrada2" data-source-line="4" id="ent0002"><rect fill="#CDEBA5" height="37.6094" rx="2.5" ry="2.5" style="stroke:#181818;stroke-width:0.5;" width="220.7373" x="915" y="42"/><text fill="#000000" font-family="sans-serif" font-size="14" lengthAdjust="spacing" textLength="200.7373" x="925" y="66.5332">:PANEL_PRINCIPAL_ABIERTO</text></g><!--entity EstadoSalida--><g class="entity" data-qualified-name="EstadoSalida" data-source-line="12" id="ent0008"><rect fill="#CDEBA5" height="37.6094" rx="2.5" ry="2.5" style="stroke:#181818;stroke-width:0.5;" width="209.8271" x="793.5" y="168.5"/><text fill="#000000" font-family="sans-serif" font-size="14" lengthAdjust="spacing" textLength="189.8271" x="803.5" y="193.0332">:RECOMPENSAS_ABIERTAS</text></g><!--entity AbrirRecompensa--><g class="entity" data-qualified-name="AbrirRecompensa" data-source-line="13" id="ent0009"><rect fill="#CDEBA5" height="37.6094" rx="2.5" ry="2.5" style="stroke:#181818;stroke-width:0.5;" width="222.3232" x="1038.5" y="168.5"/><text fill="#000000" font-family="sans-serif" font-size="14" lengthAdjust="spacing" textLength="202.3232" x="1048.5" y="193.0332">:Collaboration AbrirRecompensa</text></g><!--entity CrearRecompensa--><g class="entity" data-qualified-name="CrearRecompensa" data-source-line="14" id="ent0010"><rect fill="#CDEBA5" height="37.6094" rx="2.5" ry="2.5" style="stroke:#181818;stroke-width:0.5;" width="227.7715" x="1295.5" y="168.5"/><text fill="#000000" font-family="sans-serif" font-size="14" lengthAdjust="spacing" textLength="207.7715" x="1305.5" y="193.0332">:Collaboration CrearRecompensa</text></g><!--entity AbrirPanelPrincipal--><g class="entity" data-qualified-name="AbrirPanelPrincipal" data-source-line="15" id="ent0011"><rect fill="#CDEBA5" height="37.6094" rx="2.5" ry="2.5" style="stroke:#181818;stroke-width:0.5;" width="229.3301" x="1559" y="168.5"/><text fill="#000000" font-family="sans-serif" font-size="14" lengthAdjust="spacing" textLength="209.3301" x="1569" y="193.0332">:Collaboration AbrirPanelPrincipal</text></g><g class="entity" data-qualified-name="GMN20" data-source-line="27" id="ent0021"><path d="M1823.5,158 L1823.5,217.0547 L2041.7852,217.0547 L2041.7852,168 L2031.7852,158 L1823.5,158" fill="#FEFFDD" style="stroke:#181818;stroke-width:0.5;"/><path d="M2031.7852,158 L2031.7852,168 L2041.7852,168 L2031.7852,158" fill="#FEFFDD" style="stroke:#181818;stroke-width:1;"/><text fill="#000000" font-family="sans-serif" font-size="13" lengthAdjust="spacing" textLength="107.6816" x="1829.5" y="176.4951">Contexto opcional:</text><text fill="#000000" font-family="sans-serif" font-size="13" lengthAdjust="spacing" textLength="181.3779" x="1829.5" y="192.8467">- sin identificador: listado global</text><text fill="#000000" font-family="sans-serif" font-size="13" lengthAdjust="spacing" textLength="197.2852" x="1829.5" y="209.1982">- con identificador: listado acotado</text></g><!--link EstadoEntrada1 to ListarRecompensasView--><g class="link" data-entity-1="ent0001" data-entity-2="ent0004" data-link-type="dependency" data-source-line="17" id="lnk12"><path d="M198.24,61 C306.85,61 477.45,61 582.36,61" fill="none" id="EstadoEntrada1-to-ListarRecompensasView" style="stroke:#181818;stroke-width:1;"/><polygon fill="#181818" points="587.36,61,578.36,57,582.36,61,578.36,65,587.36,61" style="stroke:#181818;stroke-width:1;stroke-linejoin:miter;stroke-miterlimit:10;"/><text fill="#000000" font-family="sans-serif" font-size="13" lengthAdjust="spacing" textLength="204.4771" x="290.75" y="54.4951">abrirRecompensas(idRecompensa)</text></g><!--link EstadoEntrada2 to ListarRecompensasView--><g class="link" data-entity-1="ent0002" data-entity-2="ent0004" data-link-type="dependency" data-source-line="18" id="lnk13"><path d="M914.78,61 C865.38,61 813.01,61 766.72,61" fill="none" id="EstadoEntrada2-to-ListarRecompensasView" style="stroke:#181818;stroke-width:1;"/><polygon fill="#181818" points="761.72,61,770.72,65,766.72,61,770.72,57,761.72,61" style="stroke:#181818;stroke-width:1;stroke-linejoin:miter;stroke-miterlimit:10;"/><text fill="#000000" font-family="sans-serif" font-size="13" lengthAdjust="spacing" textLength="117.7617" x="779.75" y="54.4951">abrirRecompensas()</text></g><!--link ListarRecompensasView to RecompensaController--><g class="link" data-entity-1="ent0004" data-entity-2="ent0005" data-link-type="dependency" data-source-line="20" id="lnk14"><path d="M587.22,76.6 C502.78,90.72 387.5,110 387.5,110 C387.5,110 387.5,128 387.5,128 C387.5,128 426.8656,148.9321 459.1856,166.1221" fill="none" id="ListarRecompensasView-to-RecompensaController" style="stroke:#181818;stroke-width:1;"/><polygon fill="#181818" points="463.6,168.47,457.5323,160.7122,459.1856,166.1221,453.7757,167.7753,463.6,168.47" style="stroke:#181818;stroke-width:1;stroke-linejoin:miter;stroke-miterlimit:10;"/><text fill="#000000" font-family="sans-serif" font-size="13" lengthAdjust="spacing" textLength="168.3462" x="388.5" y="124.4951">listarRecompensas(contexto)</text></g><!--link ListarRecompensasView to RecompensaController--><g class="link" data-entity-1="ent0004" data-entity-2="ent0005" data-link-type="dependency" data-source-line="21" id="lnk15"><path d="M648.76,80.1 C615.2,103.71 560.9298,141.8836 527.3598,165.4936" fill="none" id="ListarRecompensasView-to-RecompensaController-1" style="stroke:#181818;stroke-width:1;"/><polygon fill="#181818" points="523.27,168.37,532.9327,166.4644,527.3598,165.4936,528.3305,159.9207,523.27,168.37" style="stroke:#181818;stroke-width:1;stroke-linejoin:miter;stroke-miterlimit:10;"/><text fill="#000000" font-family="sans-serif" font-size="13" lengthAdjust="spacing" textLength="159.6499" x="602.5" y="124.4951">filtrarRecompensas(criterio)</text></g><!--link RecompensaController to RecompensaRepository--><g class="link" data-entity-1="ent0005" data-entity-2="ent0006" data-link-type="dependency" data-source-line="22" id="lnk16"><path d="M425.07,206.53 C356.03,223.72 262.5,247 262.5,247 C262.5,247 262.5,265 262.5,265 C262.5,265 303.1569,279.6727 340.8969,293.2927" fill="none" id="RecompensaController-to-RecompensaRepository" style="stroke:#181818;stroke-width:1;"/><polygon fill="#181818" points="345.6,294.99,338.4923,288.1724,340.8969,293.2927,335.7766,295.6973,345.6,294.99" style="stroke:#181818;stroke-width:1;stroke-linejoin:miter;stroke-miterlimit:10;"/><text fill="#000000" font-family="sans-serif" font-size="13" lengthAdjust="spacing" textLength="88.8799" x="263.5" y="261.4951">obtenerTodos()</text></g><!--link RecompensaController to RecompensaRepository--><g class="link" data-entity-1="ent0005" data-entity-2="ent0006" data-link-type="dependency" data-source-line="23" id="lnk17"><path d="M465.14,206.53 C434.29,223.72 392.5,247 392.5,247 C392.5,247 392.5,265 392.5,265 C392.5,265 393.2079,276.2698 394.0579,289.8598" fill="none" id="RecompensaController-to-RecompensaRepository-1" style="stroke:#181818;stroke-width:1;"/><polygon fill="#181818" points="394.37,294.85,397.8004,285.6179,394.0579,289.8598,389.816,286.1172,394.37,294.85" style="stroke:#181818;stroke-width:1;stroke-linejoin:miter;stroke-miterlimit:10;"/><text fill="#000000" font-family="sans-serif" font-size="13" lengthAdjust="spacing" textLength="174.1543" x="393.5" y="261.4951">obtenerPorContexto(contexto)</text></g><!--link RecompensaController to RecompensaRepository--><g class="link" data-entity-1="ent0005" data-entity-2="ent0006" data-link-type="dependency" data-source-line="24" id="lnk18"><path d="M520.82,206.69 C542.84,223.86 572.5,247 572.5,247 C572.5,247 572.5,265 572.5,265 C572.5,265 516.9657,280.0615 466.7357,293.6815" fill="none" id="RecompensaController-to-RecompensaRepository-2" style="stroke:#181818;stroke-width:1;"/><polygon fill="#181818" points="461.91,294.99,471.6431,296.4953,466.7357,293.6815,469.5495,288.7741,461.91,294.99" style="stroke:#181818;stroke-width:1;stroke-linejoin:miter;stroke-miterlimit:10;"/><text fill="#000000" font-family="sans-serif" font-size="13" lengthAdjust="spacing" textLength="148.8081" x="573.5" y="261.4951">buscarPorCriterio(criterio)</text></g><!--link RecompensaRepository to Recompensa--><g class="link" data-entity-1="ent0006" data-entity-2="ent0007" data-link-type="association" data-source-line="25" id="lnk19"><path d="M395.5,333.24 C395.5,350.59 395.5,376.52 395.5,393.84" fill="none" id="RecompensaRepository-Recompensa" style="stroke:#181818;stroke-width:1;"/></g><!--link RecompensaController to GMN20--><g class="link" data-entity-1="ent0005" data-entity-2="ent0021" data-link-type="association" data-source-line="27" id="lnk22"><path d="M579.3,168.6 C667.07,148.33 794,119 794,119 C794,119 1788,119 1788,119 C1788,119 1830.91,139.34 1869.96,157.85" fill="none" id="RecompensaController-GMN20" style="stroke:#181818;stroke-width:1;stroke-dasharray:7,7;"/></g><!--link ListarRecompensasView to EstadoSalida--><g class="link" data-entity-1="ent0004" data-entity-2="ent0008" data-link-type="dependency" data-source-line="31" id="lnk23"><path d="M710.52,80.01 C737.76,93.63 770.5,110 770.5,110 C770.5,110 826.0177,143.1855 863.8777,165.8055" fill="none" id="ListarRecompensasView-to-EstadoSalida" style="stroke:#181818;stroke-width:1;stroke-dasharray:7,7;"/><polygon fill="#181818" points="868.17,168.37,862.4955,160.3201,863.8777,165.8055,858.3924,167.1878,868.17,168.37" style="stroke:#181818;stroke-width:1;stroke-linejoin:miter;stroke-miterlimit:10;"/><text fill="#000000" font-family="sans-serif" font-size="13" lengthAdjust="spacing" textLength="130.7935" x="798.5" y="124.4951">continuarNavegacion()</text></g><!--link ListarRecompensasView to AbrirRecompensa--><g class="link" data-entity-1="ent0004" data-entity-2="ent0009" data-link-type="dependency" data-source-line="32" id="lnk24"><path d="M761.71,77.92 C838.27,91.89 937.5,110 937.5,110 C937.5,110 1032.1469,144.1527 1094.8269,166.7727" fill="none" id="ListarRecompensasView-to-AbrirRecompensa" style="stroke:#181818;stroke-width:1;stroke-dasharray:7,7;"/><polygon fill="#181818" points="1099.53,168.47,1092.4222,161.6524,1094.8269,166.7727,1089.7066,169.1774,1099.53,168.47" style="stroke:#181818;stroke-width:1;stroke-linejoin:miter;stroke-miterlimit:10;"/><text fill="#000000" font-family="sans-serif" font-size="13" lengthAdjust="spacing" textLength="111.2617" x="983.5" y="124.4951">abrirRecompensa()</text></g><!--link ListarRecompensasView to CrearRecompensa--><g class="link" data-entity-1="ent0004" data-entity-2="ent0010" data-link-type="dependency" data-source-line="33" id="lnk25"><path d="M761.57,71.74 C886.97,85.77 1103.5,110 1103.5,110 C1103.5,110 1242.0493,144.6372 1332.5193,167.2572" fill="none" id="ListarRecompensasView-to-CrearRecompensa" style="stroke:#181818;stroke-width:1;stroke-dasharray:7,7;"/><polygon fill="#181818" points="1337.37,168.47,1329.609,162.4064,1332.5193,167.2572,1327.6685,170.1675,1337.37,168.47" style="stroke:#181818;stroke-width:1;stroke-linejoin:miter;stroke-miterlimit:10;"/><text fill="#000000" font-family="sans-serif" font-size="13" lengthAdjust="spacing" textLength="114.8735" x="1170.5" y="124.4951">crearRecompensa()</text></g><!--link ListarRecompensasView to AbrirPanelPrincipal--><g class="link" data-entity-1="ent0004" data-entity-2="ent0011" data-link-type="dependency" data-source-line="34" id="lnk26"><path d="M761.68,69.04 C824.22,74.09 897.5,80 897.5,80 C897.5,80 1293.5,110 1293.5,110 C1293.5,110 1541.5,158 1541.5,158 C1541.5,158 1558.8228,161.7338 1585.0128,167.3938" fill="none" id="ListarRecompensasView-to-AbrirPanelPrincipal" style="stroke:#181818;stroke-width:1;stroke-dasharray:7,7;"/><polygon fill="#181818" points="1589.9,168.45,1581.948,162.6391,1585.0128,167.3938,1580.2581,170.4586,1589.9,168.45" style="stroke:#181818;stroke-width:1;stroke-linejoin:miter;stroke-miterlimit:10;"/><text fill="#000000" font-family="sans-serif" font-size="13" lengthAdjust="spacing" textLength="117.7681" x="1381.5" y="124.4951">abrirPanelPrincipal()</text></g><?plantuml-src dPFVQzim4CVVzLSSwKlyaCB2MbO_55pFXK2M6gVqjPojYtjKbOoiRWjZ__laak0VSPfsnc1q_du_kfFkwcVM5Lfy0SMQtBOYg8pQDWiXB1KETQa8pkBloKrq0PCmI-Ax7scoMaUFqSqYoUwZ2M0DIUrGcaGxYnA_Z3hJQ9Ki7zDiiOeNQRJSsUyExNDHOV6C9G7cbcr6XNcfIDTUvz_9C3WD9l17W7ywkrxEhvBRArYo1tV53qo_Xjhy8fUNtw1LnSOdOfGYEvJUpgFuQzAHPbIPcfsnsvDIyVVKYQxtHxhk7CeQ5KiSTSO-HyoDHST6GzG_bpV48FO1Icm9XvH1xAEvfAX9fPPrmHMgDfz-N8X-xy3Cpgx7BouyQ8WfotOLz4dppv428KQbC9EUCjOSeP-PWM5Q-B_qsvdW6EmeQyFAfzs7MNPasSF6B0DMsuaXcDoH9djlf6aA-pztQcoygwPJrYTP-MjTu1jgLyjeKQt3exeZeuqZi5m-EJ2RyGdTvmYcAdpheGh536hMm9AqumqNlYNsToKDbChalkjcu6iwfi72D5z1MaAJmf7BF3-_xWrfs30TwrUqA_n99JO9JODtt8FvF6ZBTys3iVIxzmEdT-vFucxtVj13_W40?></g></svg>