<svg xmlns="http://www.w3.org/2000/svg" xmlns:xlink="http://www.w3.org/1999/xlink" contentStyleType="text/css" data-diagram-type="DESCRIPTION" height="661px" preserveAspectRatio="none" style="width:2518px;height:661px;background:#FFFFFF;" version="1.1" viewBox="0 0 2518 661" width="2518px" zoomAndPan="magnify"><?plantuml 1.2026.6?><defs/><g><!--cluster abrirRecompensas--><g class="cluster" data-qualified-name="abrirRecompensas" data-source-line="5" id="ent0003"><path d="M217,6 L353.3789,6 A3.75,3.75 0 0 1 355.8789,8.5 L362.8789,29.6094 L1231,29.6094 A2.5,2.5 0 0 1 1233.5,32.1094 L1233.5,643.5 A2.5,2.5 0 0 1 1231,646 L217,646 A2.5,2.5 0 0 1 214.5,643.5 L214.5,8.5 A2.5,2.5 0 0 1 217,6" fill="none" style="stroke:#000000;stroke-width:1.5;"/><line style="stroke:#000000;stroke-width:1.5;" x1="214.5" x2="362.8789" y1="29.6094" y2="29.6094"/><text fill="#000000" font-family="sans-serif" font-size="14" font-weight="700" lengthAdjust="spacing" textLength="135.3789" x="218.5" y="22.5332">abrirRecompensas()</text></g><!--entity ListarRecompensasView--><g class="entity" data-qualified-name="abrirRecompensas.ListarRecompensasView" data-source-line="6" id="ent0004"><rect fill="#629EF9" height="37.6094" rx="2.5" ry="2.5" style="stroke:#181818;stroke-width:0.5;" width="174.0684" x="1043.5" y="42"/><text fill="#000000" font-family="sans-serif" font-size="14" lengthAdjust="spacing" textLength="154.0684" x="1053.5" y="66.5332">ListarRecompensasView</text></g><!--entity RecompensaController--><g class="entity" data-qualified-name="abrirRecompensas.RecompensaController" data-source-line="7" id="ent0005"><rect fill="#B5BD68" height="37.6094" rx="2.5" ry="2.5" style="stroke:#181818;stroke-width:0.5;" width="163.1787" x="911" y="209.5"/><text fill="#000000" font-family="sans-serif" font-size="14" lengthAdjust="spacing" textLength="143.1787" x="921" y="234.0332">RecompensaController</text></g><!--entity RecompensaService--><g class="entity" data-qualified-name="abrirRecompensas.RecompensaService" data-source-line="8" id="ent0006"><rect fill="#B5BD68" height="37.6094" rx="2.5" ry="2.5" style="stroke:#181818;stroke-width:0.5;" width="149.1719" x="680" y="377"/><text fill="#000000" font-family="sans-serif" font-size="14" lengthAdjust="spacing" textLength="129.1719" x="690" y="401.5332">RecompensaService</text></g><!--entity SesionService--><g class="entity" data-qualified-name="abrirRecompensas.SesionService" data-source-line="9" id="ent0007"><rect fill="#B5BD68" height="37.6094" rx="2.5" ry="2.5" style="stroke:#181818;stroke-width:0.5;" width="109.4893" x="938" y="377"/><text fill="#000000" font-family="sans-serif" font-size="14" lengthAdjust="spacing" textLength="89.4893" x="948" y="401.5332">SesionService</text></g><!--entity RecompensaRepository--><g class="entity" data-qualified-name="abrirRecompensas.RecompensaRepository" data-source-line="10" id="ent0008"><rect fill="#F2AC4E" height="37.6094" rx="2.5" ry="2.5" style="stroke:#181818;stroke-width:0.5;" width="169.4063" x="426" y="493"/><text fill="#000000" font-family="sans-serif" font-size="14" lengthAdjust="spacing" textLength="149.4063" x="436" y="517.5332">RecompensaRepository</text></g><!--entity ProyectoRepository--><g class="entity" data-qualified-name="abrirRecompensas.ProyectoRepository" data-source-line="11" id="ent0009"><rect fill="#F2AC4E" height="37.6094" rx="2.5" ry="2.5" style="stroke:#181818;stroke-width:0.5;" width="142.165" x="837.5" y="493"/><text fill="#000000" font-family="sans-serif" font-size="14" lengthAdjust="spacing" textLength="122.165" x="847.5" y="517.5332">ProyectoRepository</text></g><!--entity InvestigadorRepository--><g class="entity" data-qualified-name="abrirRecompensas.InvestigadorRepository" data-source-line="12" id="ent0010"><rect fill="#F2AC4E" height="37.6094" rx="2.5" ry="2.5" style="stroke:#181818;stroke-width:0.5;" width="163.1855" x="1015" y="493"/><text fill="#000000" font-family="sans-serif" font-size="14" lengthAdjust="spacing" textLength="143.1855" x="1025" y="517.5332">InvestigadorRepository</text></g><!--entity Recompensa--><g class="entity" data-qualified-name="abrirRecompensas.Recompensa" data-source-line="13" id="ent0011"><rect fill="#F2AC4E" height="37.6094" rx="2.5" ry="2.5" style="stroke:#181818;stroke-width:0.5;" width="102.4893" x="459.5" y="592"/><text fill="#000000" font-family="sans-serif" font-size="14" lengthAdjust="spacing" textLength="82.4893" x="469.5" y="616.5332">Recompensa</text></g><!--entity Proyecto--><g class="entity" data-qualified-name="abrirRecompensas.Proyecto" data-source-line="14" id="ent0012"><rect fill="#F2AC4E" height="37.6094" rx="2.5" ry="2.5" style="stroke:#181818;stroke-width:0.5;" width="75.248" x="871" y="592"/><text fill="#000000" font-family="sans-serif" font-size="14" lengthAdjust="spacing" textLength="55.248" x="881" y="616.5332">Proyecto</text></g><!--entity Investigador--><g class="entity" data-qualified-name="abrirRecompensas.Investigador" data-source-line="15" id="ent0013"><rect fill="#F2AC4E" height="37.6094" rx="2.5" ry="2.5" style="stroke:#181818;stroke-width:0.5;" width="96.2686" x="1048.5" y="592"/><text fill="#000000" font-family="sans-serif" font-size="14" lengthAdjust="spacing" textLength="76.2686" x="1058.5" y="616.5332">Investigador</text></g><!--entity EstadoEntrada1--><g class="entity" data-qualified-name="EstadoEntrada1" data-source-line="3" id="ent0001"><rect fill="#CDEBA5" height="37.6094" rx="2.5" ry="2.5" style="stroke:#181818;stroke-width:0.5;" width="191.1514" x="7" y="42"/><text fill="#000000" font-family="sans-serif" font-size="14" lengthAdjust="spacing" textLength="171.1514" x="17" y="66.5332">:RECOMPENSA_ABIERTA</text></g><!--entity EstadoEntrada2--><g class="entity" data-qualified-name="EstadoEntrada2" data-source-line="4" id="ent0002"><rect fill="#CDEBA5" height="37.6094" rx="2.5" ry="2.5" style="stroke:#181818;stroke-width:0.5;" width="220.7373" x="1371" y="42"/><text fill="#000000" font-family="sans-serif" font-size="14" lengthAdjust="spacing" textLength="200.7373" x="1381" y="66.5332">:PANEL_PRINCIPAL_ABIERTO</text></g><!--entity EstadoSalida--><g class="entity" data-qualified-name="EstadoSalida" data-source-line="18" id="ent0014"><rect fill="#CDEBA5" height="37.6094" rx="2.5" ry="2.5" style="stroke:#181818;stroke-width:0.5;" width="209.8271" x="1249.5" y="209.5"/><text fill="#000000" font-family="sans-serif" font-size="14" lengthAdjust="spacing" textLength="189.8271" x="1259.5" y="234.0332">:RECOMPENSAS_ABIERTAS</text></g><!--entity AbrirRecompensa--><g class="entity" data-qualified-name="AbrirRecompensa" data-source-line="19" id="ent0015"><rect fill="#CDEBA5" height="37.6094" rx="2.5" ry="2.5" style="stroke:#181818;stroke-width:0.5;" width="222.3232" x="1494.5" y="209.5"/><text fill="#000000" font-family="sans-serif" font-size="14" lengthAdjust="spacing" textLength="202.3232" x="1504.5" y="234.0332">:Collaboration AbrirRecompensa</text></g><!--entity CrearRecompensa--><g class="entity" data-qualified-name="CrearRecompensa" data-source-line="20" id="ent0016"><rect fill="#CDEBA5" height="37.6094" rx="2.5" ry="2.5" style="stroke:#181818;stroke-width:0.5;" width="227.7715" x="1751.5" y="209.5"/><text fill="#000000" font-family="sans-serif" font-size="14" lengthAdjust="spacing" textLength="207.7715" x="1761.5" y="234.0332">:Collaboration CrearRecompensa</text></g><!--entity AbrirPanelPrincipal--><g class="entity" data-qualified-name="AbrirPanelPrincipal" data-source-line="21" id="ent0017"><rect fill="#CDEBA5" height="37.6094" rx="2.5" ry="2.5" style="stroke:#181818;stroke-width:0.5;" width="229.3301" x="2015" y="209.5"/><text fill="#000000" font-family="sans-serif" font-size="14" lengthAdjust="spacing" textLength="209.3301" x="2025" y="234.0332">:Collaboration AbrirPanelPrincipal</text></g><g class="entity" data-qualified-name="GMN32" data-source-line="39" id="ent0033"><path d="M2279,158 L2279,298.8125 L2503.7725,298.8125 L2503.7725,168 L2493.7725,158 L2279,158" fill="#FEFFDD" style="stroke:#181818;stroke-width:0.5;"/><path d="M2493.7725,158 L2493.7725,168 L2503.7725,168 L2493.7725,158" fill="#FEFFDD" style="stroke:#181818;stroke-width:1;"/><text fill="#000000" font-family="sans-serif" font-size="13" lengthAdjust="spacing" textLength="107.6816" x="2285" y="176.4951">Contexto opcional:</text><text fill="#000000" font-family="sans-serif" font-size="13" lengthAdjust="spacing" textLength="181.3779" x="2285" y="192.8467">- sin identificador: listado global</text><text fill="#000000" font-family="sans-serif" font-size="13" lengthAdjust="spacing" textLength="197.2852" x="2285" y="209.1982">- con identificador: listado acotado</text><text fill="#000000" font-family="sans-serif" font-size="13" lengthAdjust="spacing" textLength="3.6118" x="2285" y="225.5498">&#160;</text><text fill="#000000" font-family="sans-serif" font-size="13" lengthAdjust="spacing" textLength="44.0781" x="2285" y="241.9014">Reglas:</text><text fill="#000000" font-family="sans-serif" font-size="13" lengthAdjust="spacing" textLength="203.7725" x="2285" y="258.2529">- proyecto completado como origen</text><text fill="#000000" font-family="sans-serif" font-size="13" lengthAdjust="spacing" textLength="195.1143" x="2285" y="274.6045">- docente: economica o reduccion</text><text fill="#000000" font-family="sans-serif" font-size="13" lengthAdjust="spacing" textLength="169.8252" x="2285" y="290.9561">- no docente: solo economica</text></g><!--link EstadoEntrada1 to ListarRecompensasView--><g class="link" data-entity-1="ent0001" data-entity-2="ent0004" data-link-type="dependency" data-source-line="23" id="lnk18"><path d="M198.29,61 C397.17,61 847.21,61 1038.38,61" fill="none" id="EstadoEntrada1-to-ListarRecompensasView" style="stroke:#181818;stroke-width:1;"/><polygon fill="#181818" points="1043.38,61,1034.38,57,1038.38,61,1034.38,65,1043.38,61" style="stroke:#181818;stroke-width:1;stroke-linejoin:miter;stroke-miterlimit:10;"/><text fill="#000000" font-family="sans-serif" font-size="13" lengthAdjust="spacing" textLength="204.4771" x="518.75" y="54.4951">abrirRecompensas(idRecompensa)</text></g><!--link EstadoEntrada2 to ListarRecompensasView--><g class="link" data-entity-1="ent0002" data-entity-2="ent0004" data-link-type="dependency" data-source-line="24" id="lnk19"><path d="M1370.78,61 C1321.38,61 1269.01,61 1222.72,61" fill="none" id="EstadoEntrada2-to-ListarRecompensasView" style="stroke:#181818;stroke-width:1;"/><polygon fill="#181818" points="1217.72,61,1226.72,65,1222.72,61,1226.72,57,1217.72,61" style="stroke:#181818;stroke-width:1;stroke-linejoin:miter;stroke-miterlimit:10;"/><text fill="#000000" font-family="sans-serif" font-size="13" lengthAdjust="spacing" textLength="117.7617" x="1235.75" y="54.4951">abrirRecompensas()</text></g><!--link ListarRecompensasView to RecompensaController--><g class="link" data-entity-1="ent0004" data-entity-2="ent0005" data-link-type="dependency" data-source-line="26" id="lnk20"><path d="M1043.22,76.6 C958.78,90.72 843.5,110 843.5,110 C843.5,110 843.5,128 843.5,128 C843.5,128 918.4217,178.0336 961.3617,206.7036" fill="none" id="ListarRecompensasView-to-RecompensaController" style="stroke:#181818;stroke-width:1;"/><polygon fill="#181818" points="965.52,209.48,960.2562,201.1558,961.3617,206.7036,955.8139,207.8091,965.52,209.48" style="stroke:#181818;stroke-width:1;stroke-linejoin:miter;stroke-miterlimit:10;"/><text fill="#000000" font-family="sans-serif" font-size="13" lengthAdjust="spacing" textLength="168.3462" x="844.5" y="124.4951">listarRecompensas(contexto)</text></g><!--link ListarRecompensasView to RecompensaController--><g class="link" data-entity-1="ent0004" data-entity-2="ent0005" data-link-type="dependency" data-source-line="29" id="lnk23"><path d="M1115.47,80.03 C1088.92,111.86 1037.2419,173.8397 1010.7119,205.6597" fill="none" id="ListarRecompensasView-to-RecompensaController-1" style="stroke:#181818;stroke-width:1;"/><polygon fill="#181818" points="1007.51,209.5,1016.3456,205.1489,1010.7119,205.6597,1010.2011,200.0259,1007.51,209.5" style="stroke:#181818;stroke-width:1;stroke-linejoin:miter;stroke-miterlimit:10;"/><text fill="#000000" font-family="sans-serif" font-size="13" lengthAdjust="spacing" textLength="159.6499" x="1090.5" y="124.4951">filtrarRecompensas(criterio)</text></g><!--link RecompensaController to RecompensaService--><g class="link" data-entity-1="ent0005" data-entity-2="ent0006" data-link-type="dependency" data-source-line="27" id="lnk21"><path d="M966.58,247.53 C920.8,279.36 830.2551,342.3255 784.4951,374.1455" fill="none" id="RecompensaController-to-RecompensaService" style="stroke:#181818;stroke-width:1;"/><polygon fill="#181818" points="780.39,377,790.0628,375.1459,784.4951,374.1455,785.4955,368.5778,780.39,377" style="stroke:#181818;stroke-width:1;stroke-linejoin:miter;stroke-miterlimit:10;"/><text fill="#000000" font-family="sans-serif" font-size="13" lengthAdjust="spacing" textLength="126.4199" x="845.5" y="343.4951">listarGlobales(criterio)</text></g><!--link RecompensaController to SesionService--><g class="link" data-entity-1="ent0005" data-entity-2="ent0007" data-link-type="dependency" data-source-line="28" id="lnk22"><path d="M992.5,247.53 C992.5,279.36 992.5,340.18 992.5,372" fill="none" id="RecompensaController-to-SesionService" style="stroke:#181818;stroke-width:1;"/><polygon fill="#181818" points="992.5,377,996.5,368,992.5,372,988.5,368,992.5,377" style="stroke:#181818;stroke-width:1;stroke-linejoin:miter;stroke-miterlimit:10;"/><text fill="#000000" font-family="sans-serif" font-size="13" lengthAdjust="spacing" textLength="209.5806" x="993.5" y="343.4951">obtenerSesionActual(authentication)</text></g><!--link RecompensaService to RecompensaRepository--><g class="link" data-entity-1="ent0006" data-entity-2="ent0008" data-link-type="dependency" data-source-line="30" id="lnk24"><path d="M679.78,404.29 C542.14,417.72 262.5,445 262.5,445 C262.5,445 262.5,463 262.5,463 C262.5,463 349.0911,479.7597 420.9411,493.6697" fill="none" id="RecompensaService-to-RecompensaRepository" style="stroke:#181818;stroke-width:1;"/><polygon fill="#181818" points="425.85,494.62,417.7743,488.9823,420.9411,493.6697,416.2538,496.8365,425.85,494.62" style="stroke:#181818;stroke-width:1;stroke-linejoin:miter;stroke-miterlimit:10;"/><text fill="#000000" font-family="sans-serif" font-size="13" lengthAdjust="spacing" textLength="203.7661" x="263.5" y="459.4951">obtenerDeProyectosCompletados()</text></g><!--link RecompensaService to RecompensaRepository--><g class="link" data-entity-1="ent0006" data-entity-2="ent0008" data-link-type="dependency" data-source-line="31" id="lnk25"><path d="M679.72,411.53 C607.02,425.66 507.5,445 507.5,445 C507.5,445 507.5,463 507.5,463 C507.5,463 508.2079,474.2698 509.0579,487.8598" fill="none" id="RecompensaService-to-RecompensaRepository-1" style="stroke:#181818;stroke-width:1;"/><polygon fill="#181818" points="509.37,492.85,512.8004,483.6179,509.0579,487.8598,504.816,484.1172,509.37,492.85" style="stroke:#181818;stroke-width:1;stroke-linejoin:miter;stroke-miterlimit:10;"/><text fill="#000000" font-family="sans-serif" font-size="13" lengthAdjust="spacing" textLength="174.1543" x="508.5" y="459.4951">obtenerPorContexto(contexto)</text></g><!--link RecompensaService to RecompensaRepository--><g class="link" data-entity-1="ent0006" data-entity-2="ent0008" data-link-type="dependency" data-source-line="32" id="lnk26"><path d="M736.19,415.03 C716.35,434.58 687.5,463 687.5,463 C687.5,463 631.9657,478.0615 581.7357,491.6815" fill="none" id="RecompensaService-to-RecompensaRepository-2" style="stroke:#181818;stroke-width:1;"/><polygon fill="#181818" points="576.91,492.99,586.6431,494.4953,581.7357,491.6815,584.5495,486.7741,576.91,492.99" style="stroke:#181818;stroke-width:1;stroke-linejoin:miter;stroke-miterlimit:10;"/><text fill="#000000" font-family="sans-serif" font-size="13" lengthAdjust="spacing" textLength="148.8081" x="705.5" y="459.4951">buscarPorCriterio(criterio)</text></g><!--link RecompensaService to ProyectoRepository--><g class="link" data-entity-1="ent0006" data-entity-2="ent0009" data-link-type="dependency" data-source-line="33" id="lnk27"><path d="M800.65,415.01 C835.55,428.63 877.5,445 877.5,445 C877.5,445 888.7248,468.8941 897.9048,488.4441" fill="none" id="RecompensaService-to-ProyectoRepository" style="stroke:#181818;stroke-width:1;"/><polygon fill="#181818" points="900.03,492.97,899.8254,483.1233,897.9048,488.4441,892.584,486.5236,900.03,492.97" style="stroke:#181818;stroke-width:1;stroke-linejoin:miter;stroke-miterlimit:10;"/><text fill="#000000" font-family="sans-serif" font-size="13" lengthAdjust="spacing" textLength="130.7617" x="886.5" y="459.4951">verificarCompletados()</text></g><!--link RecompensaService to InvestigadorRepository--><g class="link" data-entity-1="ent0006" data-entity-2="ent0010" data-link-type="dependency" data-source-line="34" id="lnk28"><path d="M829.27,410.24 C909.48,424.45 1025.5,445 1025.5,445 C1025.5,445 1052.4188,470.0148 1073.4388,489.5648" fill="none" id="RecompensaService-to-InvestigadorRepository" style="stroke:#181818;stroke-width:1;"/><polygon fill="#181818" points="1077.1,492.97,1073.2339,483.9117,1073.4388,489.5648,1067.7856,489.7696,1077.1,492.97" style="stroke:#181818;stroke-width:1;stroke-linejoin:miter;stroke-miterlimit:10;"/><text fill="#000000" font-family="sans-serif" font-size="13" lengthAdjust="spacing" textLength="127.1753" x="1045.5" y="459.4951">obtenerBeneficiarios()</text></g><!--link RecompensaRepository to Recompensa--><g class="link" data-entity-1="ent0008" data-entity-2="ent0011" data-link-type="association" data-source-line="35" id="lnk29"><path d="M510.5,531.24 C510.5,548.59 510.5,574.52 510.5,591.84" fill="none" id="RecompensaRepository-Recompensa" style="stroke:#181818;stroke-width:1;"/></g><!--link ProyectoRepository to Proyecto--><g class="link" data-entity-1="ent0009" data-entity-2="ent0012" data-link-type="association" data-source-line="36" id="lnk30"><path d="M908.5,531.24 C908.5,548.59 908.5,574.52 908.5,591.84" fill="none" id="ProyectoRepository-Proyecto" style="stroke:#181818;stroke-width:1;"/></g><!--link InvestigadorRepository to Investigador--><g class="link" data-entity-1="ent0010" data-entity-2="ent0013" data-link-type="association" data-source-line="37" id="lnk31"><path d="M1096.5,531.24 C1096.5,548.59 1096.5,574.52 1096.5,591.84" fill="none" id="InvestigadorRepository-Investigador" style="stroke:#181818;stroke-width:1;"/></g><!--link RecompensaController to GMN32--><g class="link" data-entity-1="ent0005" data-entity-2="ent0033" data-link-type="association" data-source-line="39" id="lnk34"><path d="M1037.35,209.43 C1111.13,178.05 1250,119 1250,119 C1250,119 2244,119 2244,119 C2244,119 2267.88,136.73 2296.42,157.91" fill="none" id="RecompensaController-GMN32" style="stroke:#181818;stroke-width:1;stroke-dasharray:7,7;"/></g><!--link ListarRecompensasView to EstadoSalida--><g class="link" data-entity-1="ent0004" data-entity-2="ent0014" data-link-type="dependency" data-source-line="48" id="lnk35"><path d="M1178.53,80.01 C1214.85,93.63 1258.5,110 1258.5,110 C1258.5,110 1309.6164,172.5681 1336.5464,205.5281" fill="none" id="ListarRecompensasView-to-EstadoSalida" style="stroke:#181818;stroke-width:1;stroke-dasharray:7,7;"/><polygon fill="#181818" points="1339.71,209.4,1337.1131,199.8997,1336.5464,205.5281,1330.918,204.9614,1339.71,209.4" style="stroke:#181818;stroke-width:1;stroke-linejoin:miter;stroke-miterlimit:10;"/><text fill="#000000" font-family="sans-serif" font-size="13" lengthAdjust="spacing" textLength="130.7935" x="1272.5" y="124.4951">continuarNavegacion()</text></g><!--link ListarRecompensasView to AbrirRecompensa--><g class="link" data-entity-1="ent0004" data-entity-2="ent0015" data-link-type="dependency" data-source-line="49" id="lnk36"><path d="M1217.87,76.92 C1300.36,91.01 1411.5,110 1411.5,110 C1411.5,110 1516.9133,173.8497 1571.3333,206.8097" fill="none" id="ListarRecompensasView-to-AbrirRecompensa" style="stroke:#181818;stroke-width:1;stroke-dasharray:7,7;"/><polygon fill="#181818" points="1575.61,209.4,1569.9841,201.3161,1571.3333,206.8097,1565.8396,208.1589,1575.61,209.4" style="stroke:#181818;stroke-width:1;stroke-linejoin:miter;stroke-miterlimit:10;"/><text fill="#000000" font-family="sans-serif" font-size="13" lengthAdjust="spacing" textLength="111.2617" x="1440.5" y="124.4951">abrirRecompensa()</text></g><!--link ListarRecompensasView to CrearRecompensa--><g class="link" data-entity-1="ent0004" data-entity-2="ent0016" data-link-type="dependency" data-source-line="50" id="lnk37"><path d="M1217.52,71.71 C1343.16,85.74 1560.5,110 1560.5,110 C1560.5,110 1734.5,158 1734.5,158 C1734.5,158 1788.1931,186.4867 1827.0031,207.0767" fill="none" id="ListarRecompensasView-to-CrearRecompensa" style="stroke:#181818;stroke-width:1;stroke-dasharray:7,7;"/><polygon fill="#181818" points="1831.42,209.42,1825.3442,201.6685,1827.0031,207.0767,1821.595,208.7356,1831.42,209.42" style="stroke:#181818;stroke-width:1;stroke-linejoin:miter;stroke-miterlimit:10;"/><text fill="#000000" font-family="sans-serif" font-size="13" lengthAdjust="spacing" textLength="114.8735" x="1622.5" y="124.4951">crearRecompensa()</text></g><!--link ListarRecompensasView to AbrirPanelPrincipal--><g class="link" data-entity-1="ent0004" data-entity-2="ent0017" data-link-type="dependency" data-source-line="51" id="lnk38"><path d="M1217.68,69.04 C1280.22,74.09 1353.5,80 1353.5,80 C1353.5,80 1745.5,110 1745.5,110 C1745.5,110 1997.5,158 1997.5,158 C1997.5,158 2051.6257,186.5008 2090.7357,207.0908" fill="none" id="ListarRecompensasView-to-AbrirPanelPrincipal" style="stroke:#181818;stroke-width:1;stroke-dasharray:7,7;"/><polygon fill="#181818" points="2095.16,209.42,2089.0596,201.6879,2090.7357,207.0908,2085.3328,208.7668,2095.16,209.42" style="stroke:#181818;stroke-width:1;stroke-linejoin:miter;stroke-miterlimit:10;"/><text fill="#000000" font-family="sans-serif" font-size="13" lengthAdjust="spacing" textLength="117.7681" x="1834.5" y="124.4951">abrirPanelPrincipal()</text></g><?plantuml-src dLHHRzem47xthx3O2pnGQMYjrZnKIjDqGkfe1DDUgujpJQswTkGODZJjl-_C0Y4XQTWG0d9yzzrtv_DNlafTW8KthgH6josG5qPj_GDZ5eK3dIla7wAx-3QyvADW6KUFNvDuiGgVmjjvlFmMZZYKF2uTP2RMpa867pipat0HFpmbo_aYcYVXGvN-U9e-OmM8LyYHGsgbNQ8mRmNgad3q7hM3uyc8_sASNaTLhsRNyVqrVv14V0p-Bl576vjUfjdLPrwZ8aD2Z59e1w4hj1ifi0Utmb8QtOEvduNHf_Y8Quc5AQKpTji3JQpPKj0C0kTwWwMJEStK3e9h0GDbpoZ6VWzjpMg_DgkZWr-1aXbqPaPq3f0Q2uucoSFcsUyeMh4pM2ABq6PfnSxLae16bLYfXIn0rNgQSSQQzuDFxVIcUpc3awKVown-cZIPPl_6D66i4ygd6R5qNO20VA6LC1RqB_vqPiAwClYqGLKj_vxdYp8fA2GIAnrQ-Hv9u_O4tAGEDTg_qL2uDQWnhDqBQYV5xaWcVTtrDlSi5SsnsLs7i4f3YwY-MGTnTxY_B6L4A8N-hFpS_uChCJQg9jqvyc6YT5qAsF5KFGqsT-em0TzGmZDDs9xJKRVp77gwfG_Yaa0QcYGrc7YEFUbKaWSSFAcxe8SqV4aRXzpA_CLnyznjzVjXSrC8MYPG0PloKcekCxzYVWJ4L2roPdY-MsN2qE7qOK0O_yseqLn1wHcBIZaNXt7wdrIMvA4cH6O4aT76aqfjteYJ6_BTR2syBW9eKsDAeqmDPAWpxdljkGaN5pSDomsyU2Vr6km2DfY3hp2Ul9FTSjiJatatkMMoLBqP6AxSzDMgUZD897y0?></g></svg>