<?xml version="1.0" encoding="us-ascii" standalone="no"?><svg xmlns="http://www.w3.org/2000/svg" xmlns:xlink="http://www.w3.org/1999/xlink" contentStyleType="text/css" height="1175px" preserveAspectRatio="none" style="width:2156px;height:1175px;background:#FFFFFF;" version="1.1" viewBox="0 0 2156 1175" width="2156px" zoomAndPan="magnify"><defs/><g><text fill="#000000" font-family="sans-serif" font-size="14" font-weight="bold" lengthAdjust="spacing" textLength="455" x="851.5" y="29.5332">Diagrama de secuencia - Abrir investigadores como Investigador</text><rect fill="#FFFFFF" height="929.5391" style="stroke:#181818;stroke-width:1.0;" width="10" x="337.5" y="153.5703"/><rect fill="#FFFFFF" height="493.4609" style="stroke:#181818;stroke-width:1.0;" width="10" x="706.5" y="200.2734"/><rect fill="#FFFFFF" height="55.7031" style="stroke:#181818;stroke-width:1.0;" width="10" x="944.5" y="230.625"/><rect fill="#FFFFFF" height="346.7031" style="stroke:#181818;stroke-width:1.0;" width="10" x="1075.5" y="316.6797"/><rect fill="none" height="830.4844" style="stroke:#000000;stroke-width:1.5;" width="2139" x="10" y="245.625"/><rect fill="none" height="277" style="stroke:#000000;stroke-width:1.5;" width="1137.5" x="1001.5" y="331.6797"/><rect fill="none" height="339.5391" style="stroke:#000000;stroke-width:1.5;" width="1139.5" x="20" y="622.6797"/><line style="stroke:#181818;stroke-width:0.5;stroke-dasharray:5.0,5.0;" x1="71" x2="71" y1="121.2188" y2="1093.1094"/><line style="stroke:#181818;stroke-width:0.5;stroke-dasharray:5.0,5.0;" x1="342" x2="342" y1="121.2188" y2="1093.1094"/><line style="stroke:#181818;stroke-width:0.5;stroke-dasharray:5.0,5.0;" x1="711" x2="711" y1="121.2188" y2="1093.1094"/><line style="stroke:#181818;stroke-width:0.5;stroke-dasharray:5.0,5.0;" x1="949.5" x2="949.5" y1="121.2188" y2="1093.1094"/><line style="stroke:#181818;stroke-width:0.5;stroke-dasharray:5.0,5.0;" x1="1080.5" x2="1080.5" y1="121.2188" y2="1093.1094"/><line style="stroke:#181818;stroke-width:0.5;stroke-dasharray:5.0,5.0;" x1="1522.5" x2="1522.5" y1="121.2188" y2="1093.1094"/><line style="stroke:#181818;stroke-width:0.5;stroke-dasharray:5.0,5.0;" x1="1666.5" x2="1666.5" y1="121.2188" y2="1093.1094"/><line style="stroke:#181818;stroke-width:0.5;stroke-dasharray:5.0,5.0;" x1="2079" x2="2079" y1="121.2188" y2="1093.1094"/><text fill="#000000" font-family="sans-serif" font-size="14" lengthAdjust="spacing" textLength="77" x="30" y="118.1426">Investigador</text><ellipse cx="71.5" cy="52.1094" fill="#E2E2F0" rx="8" ry="8" style="stroke:#181818;stroke-width:0.5;"/><path d="M71.5,60.1094 L71.5,87.1094 M58.5,68.1094 L84.5,68.1094 M71.5,87.1094 L58.5,102.1094 M71.5,87.1094 L84.5,102.1094 " fill="none" style="stroke:#181818;stroke-width:0.5;"/><text fill="#000000" font-family="sans-serif" font-size="14" lengthAdjust="spacing" textLength="77" x="30" y="1106.6426">Investigador</text><ellipse cx="71.5" cy="1118.2188" fill="#E2E2F0" rx="8" ry="8" style="stroke:#181818;stroke-width:0.5;"/><path d="M71.5,1126.2188 L71.5,1153.2188 M58.5,1134.2188 L84.5,1134.2188 M71.5,1153.2188 L58.5,1168.2188 M71.5,1153.2188 L84.5,1168.2188 " fill="none" style="stroke:#181818;stroke-width:0.5;"/><rect fill="#E2E2F0" height="49.2188" rx="2.5" ry="2.5" style="stroke:#181818;stroke-width:0.5;" width="139" x="273" y="71"/><text fill="#000000" font-family="sans-serif" font-size="14" lengthAdjust="spacing" textLength="125" x="280" y="92.5332">InvestigadoresPage</text><text fill="#000000" font-family="sans-serif" font-size="14" lengthAdjust="spacing" textLength="47" x="319" y="110.1426">(React)</text><rect fill="#E2E2F0" height="49.2188" rx="2.5" ry="2.5" style="stroke:#181818;stroke-width:0.5;" width="139" x="273" y="1092.1094"/><text fill="#000000" font-family="sans-serif" font-size="14" lengthAdjust="spacing" textLength="125" x="280" y="1113.6426">InvestigadoresPage</text><text fill="#000000" font-family="sans-serif" font-size="14" lengthAdjust="spacing" textLength="47" x="319" y="1131.252">(React)</text><rect fill="#E2E2F0" height="49.2188" rx="2.5" ry="2.5" style="stroke:#181818;stroke-width:0.5;" width="153" x="635" y="71"/><text fill="#000000" font-family="sans-serif" font-size="14" lengthAdjust="spacing" textLength="139" x="642" y="92.5332">InvestigadorController</text><text fill="#000000" font-family="sans-serif" font-size="14" lengthAdjust="spacing" textLength="84" x="669.5" y="110.1426">(Spring Boot)</text><rect fill="#E2E2F0" height="49.2188" rx="2.5" ry="2.5" style="stroke:#181818;stroke-width:0.5;" width="153" x="635" y="1092.1094"/><text fill="#000000" font-family="sans-serif" font-size="14" lengthAdjust="spacing" textLength="139" x="642" y="1113.6426">InvestigadorController</text><text fill="#000000" font-family="sans-serif" font-size="14" lengthAdjust="spacing" textLength="84" x="669.5" y="1131.252">(Spring Boot)</text><rect fill="#E2E2F0" height="31.6094" rx="2.5" ry="2.5" style="stroke:#181818;stroke-width:0.5;" width="104" x="897.5" y="88.6094"/><text fill="#000000" font-family="sans-serif" font-size="14" lengthAdjust="spacing" textLength="90" x="904.5" y="110.1426">SesionService</text><rect fill="#E2E2F0" height="31.6094" rx="2.5" ry="2.5" style="stroke:#181818;stroke-width:0.5;" width="104" x="897.5" y="1092.1094"/><text fill="#000000" font-family="sans-serif" font-size="14" lengthAdjust="spacing" textLength="90" x="904.5" y="1113.6426">SesionService</text><rect fill="#E2E2F0" height="31.6094" rx="2.5" ry="2.5" style="stroke:#181818;stroke-width:0.5;" width="138" x="1011.5" y="88.6094"/><text fill="#000000" font-family="sans-serif" font-size="14" lengthAdjust="spacing" textLength="124" x="1018.5" y="110.1426">InvestigadorService</text><rect fill="#E2E2F0" height="31.6094" rx="2.5" ry="2.5" style="stroke:#181818;stroke-width:0.5;" width="138" x="1011.5" y="1092.1094"/><text fill="#000000" font-family="sans-serif" font-size="14" lengthAdjust="spacing" textLength="124" x="1018.5" y="1113.6426">InvestigadorService</text><rect fill="#E2E2F0" height="31.6094" rx="2.5" ry="2.5" style="stroke:#181818;stroke-width:0.5;" width="130" x="1457.5" y="88.6094"/><text fill="#000000" font-family="sans-serif" font-size="14" lengthAdjust="spacing" textLength="116" x="1464.5" y="110.1426">UsuarioRepository</text><rect fill="#E2E2F0" height="31.6094" rx="2.5" ry="2.5" style="stroke:#181818;stroke-width:0.5;" width="130" x="1457.5" y="1092.1094"/><text fill="#000000" font-family="sans-serif" font-size="14" lengthAdjust="spacing" textLength="116" x="1464.5" y="1113.6426">UsuarioRepository</text><rect fill="#E2E2F0" height="31.6094" rx="2.5" ry="2.5" style="stroke:#181818;stroke-width:0.5;" width="138" x="1597.5" y="88.6094"/><text fill="#000000" font-family="sans-serif" font-size="14" lengthAdjust="spacing" textLength="124" x="1604.5" y="110.1426">ProyectoRepository</text><rect fill="#E2E2F0" height="31.6094" rx="2.5" ry="2.5" style="stroke:#181818;stroke-width:0.5;" width="138" x="1597.5" y="1092.1094"/><text fill="#000000" font-family="sans-serif" font-size="14" lengthAdjust="spacing" textLength="124" x="1604.5" y="1113.6426">ProyectoRepository</text><text fill="#000000" font-family="sans-serif" font-size="14" lengthAdjust="spacing" textLength="93" x="2030" y="118.1426">Base de Datos</text><path d="M2061.5,67.6094 C2061.5,57.6094 2079.5,57.6094 2079.5,57.6094 C2079.5,57.6094 2097.5,57.6094 2097.5,67.6094 L2097.5,93.6094 C2097.5,103.6094 2079.5,103.6094 2079.5,103.6094 C2079.5,103.6094 2061.5,103.6094 2061.5,93.6094 L2061.5,67.6094 " fill="#E2E2F0" style="stroke:#181818;stroke-width:1.5;"/><path d="M2061.5,67.6094 C2061.5,77.6094 2079.5,77.6094 2079.5,77.6094 C2079.5,77.6094 2097.5,77.6094 2097.5,67.6094 " fill="none" style="stroke:#181818;stroke-width:1.5;"/><text fill="#000000" font-family="sans-serif" font-size="14" lengthAdjust="spacing" textLength="93" x="2030" y="1106.6426">Base de Datos</text><path d="M2061.5,1119.7188 C2061.5,1109.7188 2079.5,1109.7188 2079.5,1109.7188 C2079.5,1109.7188 2097.5,1109.7188 2097.5,1119.7188 L2097.5,1145.7188 C2097.5,1155.7188 2079.5,1155.7188 2079.5,1155.7188 C2079.5,1155.7188 2061.5,1155.7188 2061.5,1145.7188 L2061.5,1119.7188 " fill="#E2E2F0" style="stroke:#181818;stroke-width:1.5;"/><path d="M2061.5,1119.7188 C2061.5,1129.7188 2079.5,1129.7188 2079.5,1129.7188 C2079.5,1129.7188 2097.5,1129.7188 2097.5,1119.7188 " fill="none" style="stroke:#181818;stroke-width:1.5;"/><rect fill="#FFFFFF" height="929.5391" style="stroke:#181818;stroke-width:1.0;" width="10" x="337.5" y="153.5703"/><rect fill="#FFFFFF" height="493.4609" style="stroke:#181818;stroke-width:1.0;" width="10" x="706.5" y="200.2734"/><rect fill="#FFFFFF" height="55.7031" style="stroke:#181818;stroke-width:1.0;" width="10" x="944.5" y="230.625"/><rect fill="#FFFFFF" height="346.7031" style="stroke:#181818;stroke-width:1.0;" width="10" x="1075.5" y="316.6797"/><polygon fill="#181818" points="325.5,149.5703,335.5,153.5703,325.5,157.5703,329.5,153.5703" style="stroke:#181818;stroke-width:1.0;"/><line style="stroke:#181818;stroke-width:1.0;" x1="71.5" x2="331.5" y1="153.5703" y2="153.5703"/><text fill="#000000" font-family="sans-serif" font-size="13" lengthAdjust="spacing" textLength="233" x="78.5" y="148.7139">Solicita abrir investigadores del proyecto</text><polygon fill="#181818" points="694.5,196.2734,704.5,200.2734,694.5,204.2734,698.5,200.2734" style="stroke:#181818;stroke-width:1.0;"/><line style="stroke:#181818;stroke-width:1.0;" x1="347.5" x2="700.5" y1="200.2734" y2="200.2734"/><text fill="#000000" font-family="sans-serif" font-size="13" lengthAdjust="spacing" textLength="340" x="354.5" y="179.0654">GET /api/investigadores?proyectoId={id?}&amp;criterio={criterio}</text><text fill="#000000" font-family="sans-serif" font-size="13" lengthAdjust="spacing" textLength="100" x="354.5" y="195.417">Cookie de sesion</text><polygon fill="#181818" points="932.5,226.625,942.5,230.625,932.5,234.625,936.5,230.625" style="stroke:#181818;stroke-width:1.0;"/><line style="stroke:#181818;stroke-width:1.0;" x1="716.5" x2="938.5" y1="230.625" y2="230.625"/><text fill="#000000" font-family="sans-serif" font-size="13" lengthAdjust="spacing" textLength="209" x="723.5" y="225.7686">obtenerSesionActual(authentication)</text><path d="M10,245.625 L71,245.625 L71,253.9766 L61,263.9766 L10,263.9766 L10,245.625 " fill="#EEEEEE" style="stroke:#000000;stroke-width:1.5;"/><rect fill="none" height="830.4844" style="stroke:#000000;stroke-width:1.5;" width="2139" x="10" y="245.625"/><text fill="#000000" font-family="sans-serif" font-size="13" font-weight="bold" lengthAdjust="spacing" textLength="16" x="25" y="260.1201">alt</text><text fill="#000000" font-family="sans-serif" font-size="11" font-weight="bold" lengthAdjust="spacing" textLength="80" x="86" y="259.0439">[Sesion valida]</text><polygon fill="#181818" points="727.5,282.3281,717.5,286.3281,727.5,290.3281,723.5,286.3281" style="stroke:#181818;stroke-width:1.0;"/><line style="stroke:#181818;stroke-width:1.0;stroke-dasharray:2.0,2.0;" x1="721.5" x2="948.5" y1="286.3281" y2="286.3281"/><text fill="#000000" font-family="sans-serif" font-size="13" lengthAdjust="spacing" textLength="170" x="733.5" y="281.4717">SesionResponse(usuario, rol)</text><polygon fill="#181818" points="1063.5,312.6797,1073.5,316.6797,1063.5,320.6797,1067.5,316.6797" style="stroke:#181818;stroke-width:1.0;"/><line style="stroke:#181818;stroke-width:1.0;" x1="716.5" x2="1069.5" y1="316.6797" y2="316.6797"/><text fill="#000000" font-family="sans-serif" font-size="13" lengthAdjust="spacing" textLength="196" x="723.5" y="311.8232">listar(sesion, criterio, proyectoId?)</text><path d="M1001.5,331.6797 L1062.5,331.6797 L1062.5,340.0313 L1052.5,350.0313 L1001.5,350.0313 L1001.5,331.6797 " fill="#EEEEEE" style="stroke:#000000;stroke-width:1.5;"/><rect fill="none" height="277" style="stroke:#000000;stroke-width:1.5;" width="1137.5" x="1001.5" y="331.6797"/><text fill="#000000" font-family="sans-serif" font-size="13" font-weight="bold" lengthAdjust="spacing" textLength="16" x="1016.5" y="346.1748">alt</text><text fill="#000000" font-family="sans-serif" font-size="11" font-weight="bold" lengthAdjust="spacing" textLength="153" x="1077.5" y="345.0986">[Sin proyecto seleccionado]</text><polygon fill="#181818" points="1510.5,368.3828,1520.5,372.3828,1510.5,376.3828,1514.5,372.3828" style="stroke:#181818;stroke-width:1.0;"/><line style="stroke:#181818;stroke-width:1.0;" x1="1085.5" x2="1516.5" y1="372.3828" y2="372.3828"/><text fill="#000000" font-family="sans-serif" font-size="13" lengthAdjust="spacing" textLength="413" x="1092.5" y="367.5264">findByRolAndActivoTrueOrderByNombreCompletoAsc(INVESTIGADOR)</text><polygon fill="#181818" points="2067.5,398.7344,2077.5,402.7344,2067.5,406.7344,2071.5,402.7344" style="stroke:#181818;stroke-width:1.0;"/><line style="stroke:#181818;stroke-width:1.0;" x1="1522.5" x2="2073.5" y1="402.7344" y2="402.7344"/><text fill="#000000" font-family="sans-serif" font-size="13" lengthAdjust="spacing" textLength="533" x="1529.5" y="397.8779">SELECT * FROM usuarios WHERE rol = ? AND activo = true ORDER BY nombre_completo</text><polygon fill="#181818" points="1533.5,429.0859,1523.5,433.0859,1533.5,437.0859,1529.5,433.0859" style="stroke:#181818;stroke-width:1.0;"/><line style="stroke:#181818;stroke-width:1.0;stroke-dasharray:2.0,2.0;" x1="1527.5" x2="2078.5" y1="433.0859" y2="433.0859"/><text fill="#000000" font-family="sans-serif" font-size="13" lengthAdjust="spacing" textLength="150" x="1539.5" y="428.2295">Resultado de persistencia</text><polygon fill="#181818" points="1096.5,459.4375,1086.5,463.4375,1096.5,467.4375,1092.5,463.4375" style="stroke:#181818;stroke-width:1.0;"/><line style="stroke:#181818;stroke-width:1.0;stroke-dasharray:2.0,2.0;" x1="1090.5" x2="1521.5" y1="463.4375" y2="463.4375"/><text fill="#000000" font-family="sans-serif" font-size="13" lengthAdjust="spacing" textLength="88" x="1102.5" y="458.5811">Lista&lt;Usuario&gt;</text><line style="stroke:#000000;stroke-width:1.0;stroke-dasharray:2.0,2.0;" x1="1001.5" x2="2139" y1="472.4375" y2="472.4375"/><text fill="#000000" font-family="sans-serif" font-size="11" font-weight="bold" lengthAdjust="spacing" textLength="248" x="1006.5" y="483.8564">[Rol investigador con proyecto seleccionado]</text><polygon fill="#181818" points="1654.5,505.625,1664.5,509.625,1654.5,513.625,1658.5,509.625" style="stroke:#181818;stroke-width:1.0;"/><line style="stroke:#181818;stroke-width:1.0;" x1="1085.5" x2="1660.5" y1="509.625" y2="509.625"/><text fill="#000000" font-family="sans-serif" font-size="13" lengthAdjust="spacing" textLength="114" x="1092.5" y="504.7686">findById(proyectoId)</text><polygon fill="#181818" points="2067.5,535.9766,2077.5,539.9766,2067.5,543.9766,2071.5,539.9766" style="stroke:#181818;stroke-width:1.0;"/><line style="stroke:#181818;stroke-width:1.0;" x1="1666.5" x2="2073.5" y1="539.9766" y2="539.9766"/><text fill="#000000" font-family="sans-serif" font-size="13" lengthAdjust="spacing" textLength="252" x="1673.5" y="535.1201">SELECT * FROM proyectos WHERE id = ?</text><polygon fill="#181818" points="1677.5,566.3281,1667.5,570.3281,1677.5,574.3281,1673.5,570.3281" style="stroke:#181818;stroke-width:1.0;"/><line style="stroke:#181818;stroke-width:1.0;stroke-dasharray:2.0,2.0;" x1="1671.5" x2="2078.5" y1="570.3281" y2="570.3281"/><text fill="#000000" font-family="sans-serif" font-size="13" lengthAdjust="spacing" textLength="150" x="1683.5" y="565.4717">Resultado de persistencia</text><polygon fill="#181818" points="1096.5,596.6797,1086.5,600.6797,1096.5,604.6797,1092.5,600.6797" style="stroke:#181818;stroke-width:1.0;"/><line style="stroke:#181818;stroke-width:1.0;stroke-dasharray:2.0,2.0;" x1="1090.5" x2="1665.5" y1="600.6797" y2="600.6797"/><text fill="#000000" font-family="sans-serif" font-size="13" lengthAdjust="spacing" textLength="93" x="1102.5" y="595.8232">Proyecto / vacio</text><path d="M20,622.6797 L81,622.6797 L81,631.0313 L71,641.0313 L20,641.0313 L20,622.6797 " fill="#EEEEEE" style="stroke:#000000;stroke-width:1.5;"/><rect fill="none" height="339.5391" style="stroke:#000000;stroke-width:1.5;" width="1139.5" x="20" y="622.6797"/><text fill="#000000" font-family="sans-serif" font-size="13" font-weight="bold" lengthAdjust="spacing" textLength="16" x="35" y="637.1748">alt</text><text fill="#000000" font-family="sans-serif" font-size="11" font-weight="bold" lengthAdjust="spacing" textLength="113" x="96" y="636.0986">[Proyecto no visible]</text><polygon fill="#181818" points="727.5,659.3828,717.5,663.3828,727.5,667.3828,723.5,663.3828" style="stroke:#181818;stroke-width:1.0;"/><line style="stroke:#181818;stroke-width:1.0;stroke-dasharray:2.0,2.0;" x1="721.5" x2="1079.5" y1="663.3828" y2="663.3828"/><text fill="#000000" font-family="sans-serif" font-size="13" lengthAdjust="spacing" textLength="188" x="733.5" y="658.5264">RecursoNoEncontradoException</text><polygon fill="#181818" points="358.5,689.7344,348.5,693.7344,358.5,697.7344,354.5,693.7344" style="stroke:#181818;stroke-width:1.0;"/><line style="stroke:#181818;stroke-width:1.0;stroke-dasharray:2.0,2.0;" x1="352.5" x2="710.5" y1="693.7344" y2="693.7344"/><text fill="#000000" font-family="sans-serif" font-size="13" lengthAdjust="spacing" textLength="85" x="364.5" y="688.8779">404 Not Found</text><polygon fill="#181818" points="82.5,720.0859,72.5,724.0859,82.5,728.0859,78.5,724.0859" style="stroke:#181818;stroke-width:1.0;"/><line style="stroke:#181818;stroke-width:1.0;stroke-dasharray:2.0,2.0;" x1="76.5" x2="336.5" y1="724.0859" y2="724.0859"/><text fill="#000000" font-family="sans-serif" font-size="13" lengthAdjust="spacing" textLength="186" x="88.5" y="719.2295">Presenta proyecto no disponible</text><line style="stroke:#000000;stroke-width:1.0;stroke-dasharray:2.0,2.0;" x1="20" x2="1159.5" y1="733.0859" y2="733.0859"/><text fill="#000000" font-family="sans-serif" font-size="11" font-weight="bold" lengthAdjust="spacing" textLength="103" x="25" y="744.5049">[Rol no autorizado]</text><polygon fill="#181818" points="722.5,766.2734,712.5,770.2734,722.5,774.2734,718.5,770.2734" style="stroke:#181818;stroke-width:1.0;"/><line style="stroke:#181818;stroke-width:1.0;stroke-dasharray:2.0,2.0;" x1="716.5" x2="1079.5" y1="770.2734" y2="770.2734"/><text fill="#000000" font-family="sans-serif" font-size="13" lengthAdjust="spacing" textLength="173" x="728.5" y="765.417">AccesoNoPermitidoException</text><polygon fill="#181818" points="358.5,796.625,348.5,800.625,358.5,804.625,354.5,800.625" style="stroke:#181818;stroke-width:1.0;"/><line style="stroke:#181818;stroke-width:1.0;stroke-dasharray:2.0,2.0;" x1="352.5" x2="710.5" y1="800.625" y2="800.625"/><text fill="#000000" font-family="sans-serif" font-size="13" lengthAdjust="spacing" textLength="82" x="364.5" y="795.7686">403 Forbidden</text><polygon fill="#181818" points="82.5,826.9766,72.5,830.9766,82.5,834.9766,78.5,830.9766" style="stroke:#181818;stroke-width:1.0;"/><line style="stroke:#181818;stroke-width:1.0;stroke-dasharray:2.0,2.0;" x1="76.5" x2="336.5" y1="830.9766" y2="830.9766"/><text fill="#000000" font-family="sans-serif" font-size="13" lengthAdjust="spacing" textLength="146" x="88.5" y="826.1201">Presenta error de acceso</text><line style="stroke:#000000;stroke-width:1.0;stroke-dasharray:2.0,2.0;" x1="20" x2="1159.5" y1="839.9766" y2="839.9766"/><text fill="#000000" font-family="sans-serif" font-size="11" font-weight="bold" lengthAdjust="spacing" textLength="96" x="25" y="851.3955">[Proyecto visible]</text><polygon fill="#181818" points="722.5,873.1641,712.5,877.1641,722.5,881.1641,718.5,877.1641" style="stroke:#181818;stroke-width:1.0;"/><line style="stroke:#181818;stroke-width:1.0;stroke-dasharray:2.0,2.0;" x1="716.5" x2="1079.5" y1="877.1641" y2="877.1641"/><text fill="#000000" font-family="sans-serif" font-size="13" lengthAdjust="spacing" textLength="225" x="728.5" y="872.3076">Lista&lt;InvestigadorResumenResponse&gt;</text><polygon fill="#181818" points="358.5,919.8672,348.5,923.8672,358.5,927.8672,354.5,923.8672" style="stroke:#181818;stroke-width:1.0;"/><line style="stroke:#181818;stroke-width:1.0;stroke-dasharray:2.0,2.0;" x1="352.5" x2="710.5" y1="923.8672" y2="923.8672"/><text fill="#000000" font-family="sans-serif" font-size="13" lengthAdjust="spacing" textLength="44" x="364.5" y="902.6592">200 OK</text><text fill="#000000" font-family="sans-serif" font-size="13" lengthAdjust="spacing" textLength="122" x="364.5" y="919.0107">Participantes visibles</text><polygon fill="#181818" points="82.5,950.2188,72.5,954.2188,82.5,958.2188,78.5,954.2188" style="stroke:#181818;stroke-width:1.0;"/><line style="stroke:#181818;stroke-width:1.0;stroke-dasharray:2.0,2.0;" x1="76.5" x2="336.5" y1="954.2188" y2="954.2188"/><text fill="#000000" font-family="sans-serif" font-size="13" lengthAdjust="spacing" textLength="242" x="88.5" y="949.3623">Presenta INVESTIGADORES_ABIERTOS</text><line style="stroke:#000000;stroke-width:1.0;stroke-dasharray:2.0,2.0;" x1="10" x2="2149" y1="970.2188" y2="970.2188"/><text fill="#000000" font-family="sans-serif" font-size="11" font-weight="bold" lengthAdjust="spacing" textLength="148" x="15" y="981.6377">[Sesion ausente o invalida]</text><polygon fill="#181818" points="722.5,1003.4063,712.5,1007.4063,722.5,1011.4063,718.5,1007.4063" style="stroke:#181818;stroke-width:1.0;"/><line style="stroke:#181818;stroke-width:1.0;stroke-dasharray:2.0,2.0;" x1="716.5" x2="948.5" y1="1007.4063" y2="1007.4063"/><text fill="#000000" font-family="sans-serif" font-size="13" lengthAdjust="spacing" textLength="150" x="728.5" y="1002.5498">SesionNoValidaException</text><polygon fill="#181818" points="358.5,1033.7578,348.5,1037.7578,358.5,1041.7578,354.5,1037.7578" style="stroke:#181818;stroke-width:1.0;"/><line style="stroke:#181818;stroke-width:1.0;stroke-dasharray:2.0,2.0;" x1="352.5" x2="710.5" y1="1037.7578" y2="1037.7578"/><text fill="#000000" font-family="sans-serif" font-size="13" lengthAdjust="spacing" textLength="101" x="364.5" y="1032.9014">401 Unauthorized</text><polygon fill="#181818" points="82.5,1064.1094,72.5,1068.1094,82.5,1072.1094,78.5,1068.1094" style="stroke:#181818;stroke-width:1.0;"/><line style="stroke:#181818;stroke-width:1.0;stroke-dasharray:2.0,2.0;" x1="76.5" x2="336.5" y1="1068.1094" y2="1068.1094"/><text fill="#000000" font-family="sans-serif" font-size="13" lengthAdjust="spacing" textLength="146" x="88.5" y="1063.2529">Presenta error de acceso</text><!--SRC=[hLLRJzim57xlhpZYOIeJ2BRnL0sgX0HMRMjHMfWc8I4tFcFMKZkodMeTuh_lsBaN61gYKYhdvDo-xrniXSqG8i5kDLinu0W6qm9bAXZiGx3KGeEGQpHMt3AkD1f8rKh1f2CR35XgbUxBSgQjI4NEf8MTIS_31Rl5QpbCaCnsTu0PEDDAMfJyQQjJKj0gor2JvJpNGjv2g5Hb7-IYRpf78vISerwB5BrAANawG5_Nd_lAbwPWMgW4SsK4mTrurOwqhtwXrGQ9bYtzhdZ0cMLBPX1sGlTFv4VCAkCLet0mwEO7-oSDJIEOgumYMGRiiGfnp22l0hdQY3Mps99S7vnBOcu4v_423bWk3lf-nhMF2J- -4tny_oRLmYB1FRwhJ_VNybIfNmBBrl4SDn5TMUXnSKhwHw2M51br-Hgajc3Pa1Ns9qgYZbaIxhRsLSrOPgiZh5acE1i0_Ih9VWsYV4_Gv4eQ71PbOVQ0kcRN6t3STkoaJNw-v2F8XB5C3qieUr3Zt8EMZ77fh-EjR1SlTBaAsMWJ9nccAVaYJhr6cRktS84x3JI27qBoS9EeB90ySExLGXSuqnnrk9cgrLBZgLhb6LeLc7GucLx5yyNaF8XcoMxZlEFH1OX2uYR-4fyku2sS9RElK55ZuDkdE8aTGN0COmYcKOb9qQkbk31BeZY1y3j87_echM8teQBGyz_3G1KeCajeNKVag0qHwlV9umbskV_YkFzOVJxn-fZHO10XlHQd5VGV37T7hgPumeTjFLlgkggFSrTRrUG9xhZR9gGVydb6-d6xbDHVu81wdq2MfD0GrytMA4W5Qs74CiE79DGpaj1krqPDLInJjr0ff_XtYhcjf-71dBITtGnBRn4T7Hx1L5auKqMLr9OBjmDgSRjuo4TtkJcSQ6W7iBQiX8SBDymDfAONw1Fj3AN5dqTBNgCDqXGTs0lKAs75As3zG3ZrKd2EyZMmejRKpDGKp6VQWcoA-cn5ov7f-dVTji9c4Pwy3ElxmqEOVRwM5-sTHXTBbOvv3V3TvHNFRu9m4YUBsRnfS4z4jUHPuMmGb5i3prq1KtNbLVhL_iVstohoExYKxafo_OLyy0JCbzJNmUgugbty1G00]--></g></svg>