<svg xmlns="http://www.w3.org/2000/svg" xmlns:xlink="http://www.w3.org/1999/xlink" contentStyleType="text/css" height="1175px" preserveAspectRatio="none" style="width:2165px;height:1175px;background:#FFFFFF;" version="1.1" viewBox="0 0 2165 1175" width="2165px" zoomAndPan="magnify"><title>Diagrama de secuencia - Abrir investigadores como Investigador</title><defs/><g><text fill="#000000" font-family="sans-serif" font-size="14" font-weight="bold" lengthAdjust="spacing" textLength="432.585" x="867.2251" y="29.5332">Diagrama de secuencia - Abrir investigadores como Investigador</text><rect fill="#FFFFFF" height="929.5391" style="stroke:#181818;stroke-width:1;" width="10" x="339.3223" y="153.5703"/><rect fill="#FFFFFF" height="493.4609" style="stroke:#181818;stroke-width:1;" width="10" x="711.5718" y="200.2734"/><rect fill="#FFFFFF" height="55.7031" style="stroke:#181818;stroke-width:1;" width="10" x="950.1523" y="230.625"/><rect fill="#FFFFFF" height="346.7031" style="stroke:#181818;stroke-width:1;" width="10" x="1080.3726" y="316.6797"/><rect fill="none" height="830.4844" style="stroke:#000000;stroke-width:1.5;" width="2148.0352" x="10" y="245.625"/><rect fill="none" height="277" style="stroke:#000000;stroke-width:1.5;" width="1141.1382" x="1006.897" y="331.6797"/><rect fill="none" height="339.5391" style="stroke:#000000;stroke-width:1.5;" width="1143.8481" x="20" y="622.6797"/><line style="stroke:#181818;stroke-width:0.5;stroke-dasharray:5.0,5.0;" x1="71" x2="71" y1="121.2188" y2="1093.1094"/><line style="stroke:#181818;stroke-width:0.5;stroke-dasharray:5.0,5.0;" x1="343.4468" x2="343.4468" y1="121.2188" y2="1093.1094"/><line style="stroke:#181818;stroke-width:0.5;stroke-dasharray:5.0,5.0;" x1="716.0928" x2="716.0928" y1="121.2188" y2="1093.1094"/><line style="stroke:#181818;stroke-width:0.5;stroke-dasharray:5.0,5.0;" x1="954.4077" x2="954.4077" y1="121.2188" y2="1093.1094"/><line style="stroke:#181818;stroke-width:0.5;stroke-dasharray:5.0,5.0;" x1="1084.897" x2="1084.897" y1="121.2188" y2="1093.1094"/><line style="stroke:#181818;stroke-width:0.5;stroke-dasharray:5.0,5.0;" x1="1533.5322" x2="1533.5322" y1="121.2188" y2="1093.1094"/><line style="stroke:#181818;stroke-width:0.5;stroke-dasharray:5.0,5.0;" x1="1676.6904" x2="1676.6904" y1="121.2188" y2="1093.1094"/><line style="stroke:#181818;stroke-width:0.5;stroke-dasharray:5.0,5.0;" x1="2088.2012" x2="2088.2012" y1="121.2188" y2="1093.1094"/><text fill="#000000" font-family="sans-serif" font-size="14" lengthAdjust="spacing" textLength="76.2686" x="30" y="118.1426">Investigador</text><ellipse cx="71.1343" cy="52.1094" fill="#E2E2F0" rx="8" ry="8" style="stroke:#181818;stroke-width:0.5;"/><path d="M71.1343,60.1094 L71.1343,87.1094 M58.1343,68.1094 L84.1343,68.1094 M71.1343,87.1094 L58.1343,102.1094 M71.1343,87.1094 L84.1343,102.1094 " fill="none" style="stroke:#181818;stroke-width:0.5;"/><text fill="#000000" font-family="sans-serif" font-size="14" lengthAdjust="spacing" textLength="76.2686" x="30" y="1106.6426">Investigador</text><ellipse cx="71.1343" cy="1118.2188" fill="#E2E2F0" rx="8" ry="8" style="stroke:#181818;stroke-width:0.5;"/><path d="M71.1343,1126.2188 L71.1343,1153.2188 M58.1343,1134.2188 L84.1343,1134.2188 M71.1343,1153.2188 L58.1343,1168.2188 M71.1343,1153.2188 L84.1343,1168.2188 " fill="none" style="stroke:#181818;stroke-width:0.5;"/><rect fill="#E2E2F0" height="49.2188" rx="2.5" ry="2.5" style="stroke:#181818;stroke-width:0.5;" width="137.751" x="275.4468" y="71"/><text fill="#000000" font-family="sans-serif" font-size="14" lengthAdjust="spacing" textLength="123.751" x="282.4468" y="92.5332">InvestigadoresPage</text><text fill="#000000" font-family="sans-serif" font-size="14" lengthAdjust="spacing" textLength="45.8965" x="321.374" y="110.1426">(React)</text><rect fill="#E2E2F0" height="49.2188" rx="2.5" ry="2.5" style="stroke:#181818;stroke-width:0.5;" width="137.751" x="275.4468" y="1092.1094"/><text fill="#000000" font-family="sans-serif" font-size="14" lengthAdjust="spacing" textLength="123.751" x="282.4468" y="1113.6426">InvestigadoresPage</text><text fill="#000000" font-family="sans-serif" font-size="14" lengthAdjust="spacing" textLength="45.8965" x="321.374" y="1131.252">(React)</text><rect fill="#E2E2F0" height="49.2188" rx="2.5" ry="2.5" style="stroke:#181818;stroke-width:0.5;" width="150.958" x="641.0928" y="71"/><text fill="#000000" font-family="sans-serif" font-size="14" lengthAdjust="spacing" textLength="136.958" x="648.0928" y="92.5332">InvestigadorController</text><text fill="#000000" font-family="sans-serif" font-size="14" lengthAdjust="spacing" textLength="82.4824" x="675.3306" y="110.1426">(Spring Boot)</text><rect fill="#E2E2F0" height="49.2188" rx="2.5" ry="2.5" style="stroke:#181818;stroke-width:0.5;" width="150.958" x="641.0928" y="1092.1094"/><text fill="#000000" font-family="sans-serif" font-size="14" lengthAdjust="spacing" textLength="136.958" x="648.0928" y="1113.6426">InvestigadorController</text><text fill="#000000" font-family="sans-serif" font-size="14" lengthAdjust="spacing" textLength="82.4824" x="675.3306" y="1131.252">(Spring Boot)</text><rect fill="#E2E2F0" height="31.6094" rx="2.5" ry="2.5" style="stroke:#181818;stroke-width:0.5;" width="103.4893" x="903.4077" y="88.6094"/><text fill="#000000" font-family="sans-serif" font-size="14" lengthAdjust="spacing" textLength="89.4893" x="910.4077" y="110.1426">SesionService</text><rect fill="#E2E2F0" height="31.6094" rx="2.5" ry="2.5" style="stroke:#181818;stroke-width:0.5;" width="103.4893" x="903.4077" y="1092.1094"/><text fill="#000000" font-family="sans-serif" font-size="14" lengthAdjust="spacing" textLength="89.4893" x="910.4077" y="1113.6426">SesionService</text><rect fill="#E2E2F0" height="31.6094" rx="2.5" ry="2.5" style="stroke:#181818;stroke-width:0.5;" width="136.9512" x="1016.897" y="88.6094"/><text fill="#000000" font-family="sans-serif" font-size="14" lengthAdjust="spacing" textLength="122.9512" x="1023.897" y="110.1426">InvestigadorService</text><rect fill="#E2E2F0" height="31.6094" rx="2.5" ry="2.5" style="stroke:#181818;stroke-width:0.5;" width="136.9512" x="1016.897" y="1092.1094"/><text fill="#000000" font-family="sans-serif" font-size="14" lengthAdjust="spacing" textLength="122.9512" x="1023.897" y="1113.6426">InvestigadorService</text><rect fill="#E2E2F0" height="31.6094" rx="2.5" ry="2.5" style="stroke:#181818;stroke-width:0.5;" width="129.1582" x="1469.5322" y="88.6094"/><text fill="#000000" font-family="sans-serif" font-size="14" lengthAdjust="spacing" textLength="115.1582" x="1476.5322" y="110.1426">UsuarioRepository</text><rect fill="#E2E2F0" height="31.6094" rx="2.5" ry="2.5" style="stroke:#181818;stroke-width:0.5;" width="129.1582" x="1469.5322" y="1092.1094"/><text fill="#000000" font-family="sans-serif" font-size="14" lengthAdjust="spacing" textLength="115.1582" x="1476.5322" y="1113.6426">UsuarioRepository</text><rect fill="#E2E2F0" height="31.6094" rx="2.5" ry="2.5" style="stroke:#181818;stroke-width:0.5;" width="136.165" x="1608.6904" y="88.6094"/><text fill="#000000" font-family="sans-serif" font-size="14" lengthAdjust="spacing" textLength="122.165" x="1615.6904" y="110.1426">ProyectoRepository</text><rect fill="#E2E2F0" height="31.6094" rx="2.5" ry="2.5" style="stroke:#181818;stroke-width:0.5;" width="136.165" x="1608.6904" y="1092.1094"/><text fill="#000000" font-family="sans-serif" font-size="14" lengthAdjust="spacing" textLength="122.165" x="1615.6904" y="1113.6426">ProyectoRepository</text><text fill="#000000" font-family="sans-serif" font-size="14" lengthAdjust="spacing" textLength="91.834" x="2040.2012" y="118.1426">Base de Datos</text><path d="M2071.1182,67.6094 C2071.1182,57.6094 2089.1182,57.6094 2089.1182,57.6094 C2089.1182,57.6094 2107.1182,57.6094 2107.1182,67.6094 L2107.1182,93.6094 C2107.1182,103.6094 2089.1182,103.6094 2089.1182,103.6094 C2089.1182,103.6094 2071.1182,103.6094 2071.1182,93.6094 L2071.1182,67.6094 " fill="#E2E2F0" style="stroke:#181818;stroke-width:1.5;"/><path d="M2071.1182,67.6094 C2071.1182,77.6094 2089.1182,77.6094 2089.1182,77.6094 C2089.1182,77.6094 2107.1182,77.6094 2107.1182,67.6094 " fill="none" style="stroke:#181818;stroke-width:1.5;"/><text fill="#000000" font-family="sans-serif" font-size="14" lengthAdjust="spacing" textLength="91.834" x="2040.2012" y="1106.6426">Base de Datos</text><path d="M2071.1182,1119.7188 C2071.1182,1109.7188 2089.1182,1109.7188 2089.1182,1109.7188 C2089.1182,1109.7188 2107.1182,1109.7188 2107.1182,1119.7188 L2107.1182,1145.7188 C2107.1182,1155.7188 2089.1182,1155.7188 2089.1182,1155.7188 C2089.1182,1155.7188 2071.1182,1155.7188 2071.1182,1145.7188 L2071.1182,1119.7188 " fill="#E2E2F0" style="stroke:#181818;stroke-width:1.5;"/><path d="M2071.1182,1119.7188 C2071.1182,1129.7188 2089.1182,1129.7188 2089.1182,1129.7188 C2089.1182,1129.7188 2107.1182,1129.7188 2107.1182,1119.7188 " fill="none" style="stroke:#181818;stroke-width:1.5;"/><rect fill="#FFFFFF" height="929.5391" style="stroke:#181818;stroke-width:1;" width="10" x="339.3223" y="153.5703"/><rect fill="#FFFFFF" height="493.4609" style="stroke:#181818;stroke-width:1;" width="10" x="711.5718" y="200.2734"/><rect fill="#FFFFFF" height="55.7031" style="stroke:#181818;stroke-width:1;" width="10" x="950.1523" y="230.625"/><rect fill="#FFFFFF" height="346.7031" style="stroke:#181818;stroke-width:1;" width="10" x="1080.3726" y="316.6797"/><polygon fill="#181818" points="327.3223,149.5703,337.3223,153.5703,327.3223,157.5703,331.3223,153.5703" style="stroke:#181818;stroke-width:1;"/><line style="stroke:#181818;stroke-width:1;" x1="71.1343" x2="333.3223" y1="153.5703" y2="153.5703"/><text fill="#000000" font-family="sans-serif" font-size="13" lengthAdjust="spacing" textLength="233.397" x="78.1343" y="148.7139">Solicita abrir investigadores del proyecto</text><polygon fill="#181818" points="699.5718,196.2734,709.5718,200.2734,699.5718,204.2734,703.5718,200.2734" style="stroke:#181818;stroke-width:1;"/><line style="stroke:#181818;stroke-width:1;" x1="349.3223" x2="705.5718" y1="200.2734" y2="200.2734"/><text fill="#000000" font-family="sans-serif" font-size="13" lengthAdjust="spacing" textLength="343.2495" x="356.3223" y="179.0654">GET /api/investigadores?proyectoId={id?}&amp;criterio={criterio}</text><text fill="#000000" font-family="sans-serif" font-size="13" lengthAdjust="spacing" textLength="99.728" x="356.3223" y="195.417">Cookie de sesion</text><polygon fill="#181818" points="938.1523,226.625,948.1523,230.625,938.1523,234.625,942.1523,230.625" style="stroke:#181818;stroke-width:1;"/><line style="stroke:#181818;stroke-width:1;" x1="721.5718" x2="944.1523" y1="230.625" y2="230.625"/><text fill="#000000" font-family="sans-serif" font-size="13" lengthAdjust="spacing" textLength="209.5806" x="728.5718" y="225.7686">obtenerSesionActual(authentication)</text><path d="M10,245.625 L70.1709,245.625 L70.1709,253.9766 L60.1709,263.9766 L10,263.9766 L10,245.625 " fill="#EEEEEE" style="stroke:#000000;stroke-width:1.5;"/><rect fill="none" height="830.4844" style="stroke:#000000;stroke-width:1.5;" width="2148.0352" x="10" y="245.625"/><text fill="#000000" font-family="sans-serif" font-size="13" font-weight="bold" lengthAdjust="spacing" textLength="15.1709" x="25" y="260.1201">alt</text><text fill="#000000" font-family="sans-serif" font-size="11" font-weight="bold" lengthAdjust="spacing" textLength="77.6338" x="85.1709" y="259.0439">[Sesion valida]</text><polygon fill="#181818" points="732.5718,282.3281,722.5718,286.3281,732.5718,290.3281,728.5718,286.3281" style="stroke:#181818;stroke-width:1;"/><line style="stroke:#181818;stroke-width:1;stroke-dasharray:2.0,2.0;" x1="726.5718" x2="954.1523" y1="286.3281" y2="286.3281"/><text fill="#000000" font-family="sans-serif" font-size="13" lengthAdjust="spacing" textLength="98.2871" x="738.5718" y="281.4717">SesionResponse</text><polygon fill="#181818" points="1068.3726,312.6797,1078.3726,316.6797,1068.3726,320.6797,1072.3726,316.6797" style="stroke:#181818;stroke-width:1;"/><line style="stroke:#181818;stroke-width:1;" x1="721.5718" x2="1074.3726" y1="316.6797" y2="316.6797"/><text fill="#000000" font-family="sans-serif" font-size="13" lengthAdjust="spacing" textLength="195.0698" x="728.5718" y="311.8232">listar(sesion, criterio, proyectoId?)</text><path d="M1006.897,331.6797 L1067.0679,331.6797 L1067.0679,340.0313 L1057.0679,350.0313 L1006.897,350.0313 L1006.897,331.6797 " fill="#EEEEEE" style="stroke:#000000;stroke-width:1.5;"/><rect fill="none" height="277" style="stroke:#000000;stroke-width:1.5;" width="1141.1382" x="1006.897" y="331.6797"/><text fill="#000000" font-family="sans-serif" font-size="13" font-weight="bold" lengthAdjust="spacing" textLength="15.1709" x="1021.897" y="346.1748">alt</text><text fill="#000000" font-family="sans-serif" font-size="11" font-weight="bold" lengthAdjust="spacing" textLength="146.7007" x="1082.0679" y="345.0986">[Sin proyecto seleccionado]</text><polygon fill="#181818" points="1522.1113,368.3828,1532.1113,372.3828,1522.1113,376.3828,1526.1113,372.3828" style="stroke:#181818;stroke-width:1;"/><line style="stroke:#181818;stroke-width:1;" x1="1090.3726" x2="1528.1113" y1="372.3828" y2="372.3828"/><text fill="#000000" font-family="sans-serif" font-size="13" lengthAdjust="spacing" textLength="419.7388" x="1097.3726" y="367.5264">findByRolAndActivoTrueOrderByNombreCompletoAsc(INVESTIGADOR)</text><polygon fill="#181818" points="2077.1182,398.7344,2087.1182,402.7344,2077.1182,406.7344,2081.1182,402.7344" style="stroke:#181818;stroke-width:1;"/><line style="stroke:#181818;stroke-width:1;" x1="1534.1113" x2="2083.1182" y1="402.7344" y2="402.7344"/><text fill="#000000" font-family="sans-serif" font-size="13" lengthAdjust="spacing" textLength="531.0068" x="1541.1113" y="397.8779">SELECT * FROM usuarios WHERE rol = ? AND activo = true ORDER BY nombre_completo</text><polygon fill="#181818" points="1545.1113,429.0859,1535.1113,433.0859,1545.1113,437.0859,1541.1113,433.0859" style="stroke:#181818;stroke-width:1;"/><line style="stroke:#181818;stroke-width:1;stroke-dasharray:2.0,2.0;" x1="1539.1113" x2="2088.1182" y1="433.0859" y2="433.0859"/><text fill="#000000" font-family="sans-serif" font-size="13" lengthAdjust="spacing" textLength="149.5889" x="1551.1113" y="428.2295">Resultado de persistencia</text><polygon fill="#181818" points="1101.3726,459.4375,1091.3726,463.4375,1101.3726,467.4375,1097.3726,463.4375" style="stroke:#181818;stroke-width:1;"/><line style="stroke:#181818;stroke-width:1;stroke-dasharray:2.0,2.0;" x1="1095.3726" x2="1533.1113" y1="463.4375" y2="463.4375"/><text fill="#000000" font-family="sans-serif" font-size="13" lengthAdjust="spacing" textLength="87.439" x="1107.3726" y="458.5811">Lista&lt;Usuario&gt;</text><line style="stroke:#000000;stroke-width:1;stroke-dasharray:2.0,2.0;" x1="1006.897" x2="2148.0352" y1="472.4375" y2="472.4375"/><text fill="#000000" font-family="sans-serif" font-size="11" font-weight="bold" lengthAdjust="spacing" textLength="238.3799" x="1011.897" y="483.8564">[Rol investigador con proyecto seleccionado]</text><polygon fill="#181818" points="1664.7729,505.625,1674.7729,509.625,1664.7729,513.625,1668.7729,509.625" style="stroke:#181818;stroke-width:1;"/><line style="stroke:#181818;stroke-width:1;" x1="1090.3726" x2="1670.7729" y1="509.625" y2="509.625"/><text fill="#000000" font-family="sans-serif" font-size="13" lengthAdjust="spacing" textLength="116.3335" x="1097.3726" y="504.7686">findById(proyectoId)</text><polygon fill="#181818" points="2077.1182,535.9766,2087.1182,539.9766,2077.1182,543.9766,2081.1182,539.9766" style="stroke:#181818;stroke-width:1;"/><line style="stroke:#181818;stroke-width:1;" x1="1676.7729" x2="2083.1182" y1="539.9766" y2="539.9766"/><text fill="#000000" font-family="sans-serif" font-size="13" lengthAdjust="spacing" textLength="248.8726" x="1683.7729" y="535.1201">SELECT * FROM proyectos WHERE id = ?</text><polygon fill="#181818" points="1687.7729,566.3281,1677.7729,570.3281,1687.7729,574.3281,1683.7729,570.3281" style="stroke:#181818;stroke-width:1;"/><line style="stroke:#181818;stroke-width:1;stroke-dasharray:2.0,2.0;" x1="1681.7729" x2="2088.1182" y1="570.3281" y2="570.3281"/><text fill="#000000" font-family="sans-serif" font-size="13" lengthAdjust="spacing" textLength="149.5889" x="1693.7729" y="565.4717">Resultado de persistencia</text><polygon fill="#181818" points="1101.3726,596.6797,1091.3726,600.6797,1101.3726,604.6797,1097.3726,600.6797" style="stroke:#181818;stroke-width:1;"/><line style="stroke:#181818;stroke-width:1;stroke-dasharray:2.0,2.0;" x1="1095.3726" x2="1675.7729" y1="600.6797" y2="600.6797"/><text fill="#000000" font-family="sans-serif" font-size="13" lengthAdjust="spacing" textLength="92.4854" x="1107.3726" y="595.8232">Proyecto / vacio</text><path d="M20,622.6797 L80.1709,622.6797 L80.1709,631.0313 L70.1709,641.0313 L20,641.0313 L20,622.6797 " fill="#EEEEEE" style="stroke:#000000;stroke-width:1.5;"/><rect fill="none" height="339.5391" style="stroke:#000000;stroke-width:1.5;" width="1143.8481" x="20" y="622.6797"/><text fill="#000000" font-family="sans-serif" font-size="13" font-weight="bold" lengthAdjust="spacing" textLength="15.1709" x="35" y="637.1748">alt</text><text fill="#000000" font-family="sans-serif" font-size="11" font-weight="bold" lengthAdjust="spacing" textLength="108.1899" x="95.1709" y="636.0986">[Proyecto no visible]</text><polygon fill="#181818" points="732.5718,659.3828,722.5718,663.3828,732.5718,667.3828,728.5718,663.3828" style="stroke:#181818;stroke-width:1;"/><line style="stroke:#181818;stroke-width:1;stroke-dasharray:2.0,2.0;" x1="726.5718" x2="1084.3726" y1="663.3828" y2="663.3828"/><text fill="#000000" font-family="sans-serif" font-size="13" lengthAdjust="spacing" textLength="188.6079" x="738.5718" y="658.5264">RecursoNoEncontradoException</text><polygon fill="#181818" points="360.3223,689.7344,350.3223,693.7344,360.3223,697.7344,356.3223,693.7344" style="stroke:#181818;stroke-width:1;"/><line style="stroke:#181818;stroke-width:1;stroke-dasharray:2.0,2.0;" x1="354.3223" x2="715.5718" y1="693.7344" y2="693.7344"/><text fill="#000000" font-family="sans-serif" font-size="13" lengthAdjust="spacing" textLength="86.0044" x="366.3223" y="688.8779">404 Not Found</text><polygon fill="#181818" points="82.1343,720.0859,72.1343,724.0859,82.1343,728.0859,78.1343,724.0859" style="stroke:#181818;stroke-width:1;"/><line style="stroke:#181818;stroke-width:1;stroke-dasharray:2.0,2.0;" x1="76.1343" x2="338.3223" y1="724.0859" y2="724.0859"/><text fill="#000000" font-family="sans-serif" font-size="13" lengthAdjust="spacing" textLength="185.7324" x="88.1343" y="719.2295">Presenta proyecto no disponible</text><line style="stroke:#000000;stroke-width:1;stroke-dasharray:2.0,2.0;" x1="20" x2="1163.8481" y1="733.0859" y2="733.0859"/><text fill="#000000" font-family="sans-serif" font-size="11" font-weight="bold" lengthAdjust="spacing" textLength="100.2085" x="25" y="744.5049">[Rol no autorizado]</text><polygon fill="#181818" points="727.5718,766.2734,717.5718,770.2734,727.5718,774.2734,723.5718,770.2734" style="stroke:#181818;stroke-width:1;"/><line style="stroke:#181818;stroke-width:1;stroke-dasharray:2.0,2.0;" x1="721.5718" x2="1084.3726" y1="770.2734" y2="770.2734"/><text fill="#000000" font-family="sans-serif" font-size="13" lengthAdjust="spacing" textLength="171.2471" x="733.5718" y="765.417">AccesoNoPermitidoException</text><polygon fill="#181818" points="360.3223,796.625,350.3223,800.625,360.3223,804.625,356.3223,800.625" style="stroke:#181818;stroke-width:1;"/><line style="stroke:#181818;stroke-width:1;stroke-dasharray:2.0,2.0;" x1="354.3223" x2="715.5718" y1="800.625" y2="800.625"/><text fill="#000000" font-family="sans-serif" font-size="13" lengthAdjust="spacing" textLength="83.8398" x="366.3223" y="795.7686">403 Forbidden</text><polygon fill="#181818" points="82.1343,826.9766,72.1343,830.9766,82.1343,834.9766,78.1343,830.9766" style="stroke:#181818;stroke-width:1;"/><line style="stroke:#181818;stroke-width:1;stroke-dasharray:2.0,2.0;" x1="76.1343" x2="338.3223" y1="830.9766" y2="830.9766"/><text fill="#000000" font-family="sans-serif" font-size="13" lengthAdjust="spacing" textLength="145.9644" x="88.1343" y="826.1201">Presenta error de acceso</text><line style="stroke:#000000;stroke-width:1;stroke-dasharray:2.0,2.0;" x1="20" x2="1163.8481" y1="839.9766" y2="839.9766"/><text fill="#000000" font-family="sans-serif" font-size="11" font-weight="bold" lengthAdjust="spacing" textLength="91.6953" x="25" y="851.3955">[Proyecto visible]</text><polygon fill="#181818" points="727.5718,873.1641,717.5718,877.1641,727.5718,881.1641,723.5718,877.1641" style="stroke:#181818;stroke-width:1;"/><line style="stroke:#181818;stroke-width:1;stroke-dasharray:2.0,2.0;" x1="721.5718" x2="1084.3726" y1="877.1641" y2="877.1641"/><text fill="#000000" font-family="sans-serif" font-size="13" lengthAdjust="spacing" textLength="227.6396" x="733.5718" y="872.3076">Lista&lt;InvestigadorResumenResponse&gt;</text><polygon fill="#181818" points="360.3223,919.8672,350.3223,923.8672,360.3223,927.8672,356.3223,923.8672" style="stroke:#181818;stroke-width:1;"/><line style="stroke:#181818;stroke-width:1;stroke-dasharray:2.0,2.0;" x1="354.3223" x2="715.5718" y1="923.8672" y2="923.8672"/><text fill="#000000" font-family="sans-serif" font-size="13" lengthAdjust="spacing" textLength="44.0845" x="366.3223" y="902.6592">200 OK</text><text fill="#000000" font-family="sans-serif" font-size="13" lengthAdjust="spacing" textLength="121.3862" x="366.3223" y="919.0107">Participantes visibles</text><polygon fill="#181818" points="82.1343,950.2188,72.1343,954.2188,82.1343,958.2188,78.1343,954.2188" style="stroke:#181818;stroke-width:1;"/><line style="stroke:#181818;stroke-width:1;stroke-dasharray:2.0,2.0;" x1="76.1343" x2="338.3223" y1="954.2188" y2="954.2188"/><text fill="#000000" font-family="sans-serif" font-size="13" lengthAdjust="spacing" textLength="244.188" x="88.1343" y="949.3623">Presenta INVESTIGADORES_ABIERTOS</text><line style="stroke:#000000;stroke-width:1;stroke-dasharray:2.0,2.0;" x1="10" x2="2158.0352" y1="970.2188" y2="970.2188"/><text fill="#000000" font-family="sans-serif" font-size="11" font-weight="bold" lengthAdjust="spacing" textLength="141.813" x="15" y="981.6377">[Sesion ausente o invalida]</text><polygon fill="#181818" points="727.5718,1003.4063,717.5718,1007.4063,727.5718,1011.4063,723.5718,1007.4063" style="stroke:#181818;stroke-width:1;"/><line style="stroke:#181818;stroke-width:1;stroke-dasharray:2.0,2.0;" x1="721.5718" x2="954.1523" y1="1007.4063" y2="1007.4063"/><text fill="#000000" font-family="sans-serif" font-size="13" lengthAdjust="spacing" textLength="149.5952" x="733.5718" y="1002.5498">SesionNoValidaException</text><polygon fill="#181818" points="360.3223,1033.7578,350.3223,1037.7578,360.3223,1041.7578,356.3223,1037.7578" style="stroke:#181818;stroke-width:1;"/><line style="stroke:#181818;stroke-width:1;stroke-dasharray:2.0,2.0;" x1="354.3223" x2="715.5718" y1="1037.7578" y2="1037.7578"/><text fill="#000000" font-family="sans-serif" font-size="13" lengthAdjust="spacing" textLength="102.6289" x="366.3223" y="1032.9014">401 Unauthorized</text><polygon fill="#181818" points="82.1343,1064.1094,72.1343,1068.1094,82.1343,1072.1094,78.1343,1068.1094" style="stroke:#181818;stroke-width:1;"/><line style="stroke:#181818;stroke-width:1;stroke-dasharray:2.0,2.0;" x1="76.1343" x2="338.3223" y1="1068.1094" y2="1068.1094"/><text fill="#000000" font-family="sans-serif" font-size="13" lengthAdjust="spacing" textLength="145.9644" x="88.1343" y="1063.2529">Presenta error de acceso</text><!--SRC=[hLLRJzim57xlhpZYOIeJ2BRnL0sgX0HMRMjHMfWc8I4tFcFMKZkodMeTuh_lsBaN61gYKYhdvDo-xrniXSqG8i5kDLinu0W6qm9bAXZiGx3KGeEGQpHMt3AkD1f8rKh1f2CR35XgbUxBSgQjI4NEf8MTIS_31Rl5QpbCaCnsTu0PEDDAMfJyQQjJKj0gor2JvJpNGjv2g5Hb7-IYRpf78vISerwB5BrAANawG5_Nd_lAbwPWMgW4SsK4mTrurOwqhtwXrGQ9bYtzhdZ0cMLBPX1sGlTFv4VCAkCLet0mwEO7-oSDJIEOgumYMGRiiGfnp22l0hdQY3Mps99S7vnBOcu4v_423bWk3lf-nhMF2J- -4tny_oRLmYB1FRwhJ_VNybIfNmBBrl4SDn5TMUXnSKhwHw2M51br-Hgajc3Pa1Ns9qgYZbaIxhRsLSrOPgiZh5acE1i0_Ih9VWsYV4_Gv4eQz2eSjrqvQPEHB_88Cc4iqyCo-JseaUr12t-ywoqxtie6yKANdP2DDh6GOPgIBsBHQvJPUWiNkDCo8_WX90ytYSe2oGFdNYrqWJFDKOURgLejDPwgLPwXLO59XvFfLJnVJCw3Q9RiDiux7bs0A2GsuY_nwGBUmbao-mf5gM3WswSuYO462OvX3C4qAZ4fUhKK5sP952SGVWVfGz-aLUmcL1HwndiOYFCYiuJMzK2EsX2XVeCydc2N-o-E-u_LvnElZncD0X7IQsfQEl_1S7V8QeedVDZMiwMkg_euTxLLJPxWZhjjGleXdsUa7xTBIVq53gZR2MH92erjtMoDWbIm5aOiCtn8GZqL2MrpRTHKnJ9rAvHoYd-dcDjw6XxCITlPpR3qLi_HuH5CbOKpLLH9RRbmKr-BsrL3FhhhpE54GrFFsh8I7YxS-3QGcbwWJxGbb1P_7YrvZJP8KtHWBr2lX1MlWFK3uTHBmJdAry2AMbCpKrCmdsaBiYdginKjHwRhttNR2flLT_8ohEyF3s7s-LfUjBSONILLEkOrm7UNLpo_2S99d2ncywR1FH7LMcU5iq5GRWqyj_IdwighzAlzZ-s_LUHtS2dT9UJw2_dW2PWlgQ-3rN5Lk_WB]--></g></svg>