<svg xmlns="http://www.w3.org/2000/svg" xmlns:xlink="http://www.w3.org/1999/xlink" contentStyleType="text/css" data-diagram-type="DESCRIPTION" height="442px" preserveAspectRatio="none" style="width:2378px;height:442px;background:#FFFFFF;" version="1.1" viewBox="0 0 2378 442" width="2378px" zoomAndPan="magnify"><?plantuml 1.2026.4?><defs/><g><!--cluster abrirPanelPrincipal--><g class="cluster" data-qualified-name="abrirPanelPrincipal" data-source-line="4" id="ent0002"><path d="M253,6 L390.9307,6 A3.75,3.75 0 0 1 393.4307,8.5 L400.4307,29.6094 L751,29.6094 A2.5,2.5 0 0 1 753.5,32.1094 L753.5,424.5 A2.5,2.5 0 0 1 751,427 L253,427 A2.5,2.5 0 0 1 250.5,424.5 L250.5,8.5 A2.5,2.5 0 0 1 253,6" fill="none" style="stroke:#000000;stroke-width:1.5;"/><line style="stroke:#000000;stroke-width:1.5;" x1="250.5" x2="400.4307" y1="29.6094" y2="29.6094"/><text fill="#000000" font-family="sans-serif" font-size="14" font-weight="700" lengthAdjust="spacing" textLength="136.9307" x="254.5" y="22.5332">abrirPanelPrincipal()</text></g><!--entity DetallePanelPrincipalView--><g class="entity" data-qualified-name="abrirPanelPrincipal.DetallePanelPrincipalView" data-source-line="5" id="ent0003"><rect fill="#629EF9" height="37.6094" rx="2.5" ry="2.5" style="stroke:#181818;stroke-width:0.5;" width="183.4199" x="554" y="42"/><text fill="#000000" font-family="sans-serif" font-size="14" lengthAdjust="spacing" textLength="163.4199" x="564" y="66.5332">DetallePanelPrincipalView</text></g><!--entity PanelPrincipalController--><g class="entity" data-qualified-name="abrirPanelPrincipal.PanelPrincipalController" data-source-line="6" id="ent0004"><rect fill="#B5BD68" height="37.6094" rx="2.5" ry="2.5" style="stroke:#181818;stroke-width:0.5;" width="170.1855" x="308.5" y="158"/><text fill="#000000" font-family="sans-serif" font-size="14" lengthAdjust="spacing" textLength="150.1855" x="318.5" y="182.5332">PanelPrincipalController</text></g><!--entity PanelPrincipalRepository--><g class="entity" data-qualified-name="abrirPanelPrincipal.PanelPrincipalRepository" data-source-line="7" id="ent0005"><rect fill="#F2AC4E" height="37.6094" rx="2.5" ry="2.5" style="stroke:#181818;stroke-width:0.5;" width="176.4131" x="320.5" y="274"/><text fill="#000000" font-family="sans-serif" font-size="14" lengthAdjust="spacing" textLength="156.4131" x="330.5" y="298.5332">PanelPrincipalRepository</text></g><!--entity PanelPrincipal--><g class="entity" data-qualified-name="abrirPanelPrincipal.PanelPrincipal" data-source-line="8" id="ent0006"><rect fill="#F2AC4E" height="37.6094" rx="2.5" ry="2.5" style="stroke:#181818;stroke-width:0.5;" width="109.4961" x="354" y="373"/><text fill="#000000" font-family="sans-serif" font-size="14" lengthAdjust="spacing" textLength="89.4961" x="364" y="397.5332">PanelPrincipal</text></g><!--entity EstadoEntrada--><g class="entity" data-qualified-name="EstadoEntrada" data-source-line="3" id="ent0001"><rect fill="#CDEBA5" height="37.6094" rx="2.5" ry="2.5" style="stroke:#181818;stroke-width:0.5;" width="226.9375" x="7" y="42"/><text fill="#000000" font-family="sans-serif" font-size="14" lengthAdjust="spacing" textLength="206.9375" x="17" y="66.5332">:INVESTIGADORES_ABIERTOS</text></g><!--entity EstadoSalida--><g class="entity" data-qualified-name="EstadoSalida" data-source-line="11" id="ent0007"><rect fill="#CDEBA5" height="37.6094" rx="2.5" ry="2.5" style="stroke:#181818;stroke-width:0.5;" width="220.7373" x="770" y="158"/><text fill="#000000" font-family="sans-serif" font-size="14" lengthAdjust="spacing" textLength="200.7373" x="780" y="182.5332">:PANEL_PRINCIPAL_ABIERTO</text></g><!--entity AbrirOpcionesPerfil--><g class="entity" data-qualified-name="AbrirOpcionesPerfil" data-source-line="12" id="ent0008"><rect fill="#CDEBA5" height="37.6094" rx="2.5" ry="2.5" style="stroke:#181818;stroke-width:0.5;" width="230.875" x="1026" y="158"/><text fill="#000000" font-family="sans-serif" font-size="14" lengthAdjust="spacing" textLength="210.875" x="1036" y="182.5332">:Collaboration AbrirOpcionesPerfil</text></g><!--entity AbrirOpcionesCargaTrabajo--><g class="entity" data-qualified-name="AbrirOpcionesCargaTrabajo" data-source-line="13" id="ent0009"><rect fill="#CDEBA5" height="37.6094" rx="2.5" ry="2.5" style="stroke:#181818;stroke-width:0.5;" width="284.5781" x="1292" y="158"/><text fill="#000000" font-family="sans-serif" font-size="14" lengthAdjust="spacing" textLength="264.5781" x="1302" y="182.5332">:Collaboration AbrirOpcionesCargaTrabajo</text></g><!--entity AbrirProyectos--><g class="entity" data-qualified-name="AbrirProyectos" data-source-line="14" id="ent0010"><rect fill="#CDEBA5" height="37.6094" rx="2.5" ry="2.5" style="stroke:#181818;stroke-width:0.5;" width="202.082" x="1612.5" y="158"/><text fill="#000000" font-family="sans-serif" font-size="14" lengthAdjust="spacing" textLength="182.082" x="1622.5" y="182.5332">:Collaboration AbrirProyectos</text></g><!--entity AbrirInvestigadores--><g class="entity" data-qualified-name="AbrirInvestigadores" data-source-line="15" id="ent0011"><rect fill="#CDEBA5" height="37.6094" rx="2.5" ry="2.5" style="stroke:#181818;stroke-width:0.5;" width="230.8887" x="1850" y="158"/><text fill="#000000" font-family="sans-serif" font-size="14" lengthAdjust="spacing" textLength="210.8887" x="1860" y="182.5332">:Collaboration AbrirInvestigadores</text></g><!--entity AbrirMisPublicaciones--><g class="entity" data-qualified-name="AbrirMisPublicaciones" data-source-line="16" id="ent0012"><rect fill="#CDEBA5" height="37.6094" rx="2.5" ry="2.5" style="stroke:#181818;stroke-width:0.5;" width="247.9922" x="2116.5" y="158"/><text fill="#000000" font-family="sans-serif" font-size="14" lengthAdjust="spacing" textLength="227.9922" x="2126.5" y="182.5332">:Collaboration AbrirMisPublicaciones</text></g><!--link EstadoEntrada to DetallePanelPrincipalView--><g class="link" data-entity-1="ent0001" data-entity-2="ent0003" data-link-type="dependency" data-source-line="18" id="lnk13"><path d="M234.09,61 C329.82,61 460.03,61 548.94,61" fill="none" id="EstadoEntrada-to-DetallePanelPrincipalView" style="stroke:#181818;stroke-width:1;"/><polygon fill="#181818" points="553.94,61,544.94,57,548.94,61,544.94,65,553.94,61" style="stroke:#181818;stroke-width:1;stroke-linejoin:miter;stroke-miterlimit:10;"/><text fill="#000000" font-family="sans-serif" font-size="13" lengthAdjust="spacing" textLength="117.7681" x="335.5" y="54.4951">abrirPanelPrincipal()</text></g><!--link DetallePanelPrincipalView to PanelPrincipalController--><g class="link" data-entity-1="ent0003" data-entity-2="ent0004" data-link-type="dependency" data-source-line="20" id="lnk14"><path d="M553.88,74.67 C451.07,88.9 298.5,110 298.5,110 C298.5,110 298.5,128 298.5,128 C298.5,128 326.4372,142.1154 353.3972,155.7354" fill="none" id="DetallePanelPrincipalView-to-PanelPrincipalController" style="stroke:#181818;stroke-width:1;"/><polygon fill="#181818" points="357.86,157.99,351.6306,150.3615,353.3972,155.7354,348.0232,157.502,357.86,157.99" style="stroke:#181818;stroke-width:1;stroke-linejoin:miter;stroke-miterlimit:10;"/><text fill="#000000" font-family="sans-serif" font-size="13" lengthAdjust="spacing" textLength="145.9707" x="299.5" y="124.4951">obtenerPanelPrincipal(id)</text></g><!--link DetallePanelPrincipalView to PanelPrincipalController--><g class="link" data-entity-1="ent0003" data-entity-2="ent0004" data-link-type="dependency" data-source-line="21" id="lnk15"><path d="M586.59,80.01 C542.04,93.63 488.5,110 488.5,110 C488.5,110 451.6958,135.5665 423.5658,155.1165" fill="none" id="DetallePanelPrincipalView-to-PanelPrincipalController-1" style="stroke:#181818;stroke-width:1;"/><polygon fill="#181818" points="419.46,157.97,429.1332,156.1184,423.5658,155.1165,424.5677,149.5491,419.46,157.97" style="stroke:#181818;stroke-width:1;stroke-linejoin:miter;stroke-miterlimit:10;"/><text fill="#000000" font-family="sans-serif" font-size="13" lengthAdjust="spacing" textLength="247.8442" x="489.5" y="124.4951">prepararAccionesDisponibles(investigador)</text></g><!--link PanelPrincipalController to PanelPrincipalRepository--><g class="link" data-entity-1="ent0004" data-entity-2="ent0005" data-link-type="dependency" data-source-line="22" id="lnk16"><path d="M367.41,196.15 C347.87,209.74 324.5,226 324.5,226 C324.5,226 324.5,244 324.5,244 C324.5,244 348.6189,257.7791 372.3989,271.3691" fill="none" id="PanelPrincipalController-to-PanelPrincipalRepository" style="stroke:#181818;stroke-width:1;"/><polygon fill="#181818" points="376.74,273.85,370.9107,265.9115,372.3989,271.3691,366.9413,272.8573,376.74,273.85" style="stroke:#181818;stroke-width:1;stroke-linejoin:miter;stroke-miterlimit:10;"/><text fill="#000000" font-family="sans-serif" font-size="13" lengthAdjust="spacing" textLength="93.939" x="325.5" y="240.4951">obtenerPorId(id)</text></g><!--link PanelPrincipalController to PanelPrincipalRepository--><g class="link" data-entity-1="ent0004" data-entity-2="ent0005" data-link-type="dependency" data-source-line="23" id="lnk17"><path d="M404.84,196.15 C413.34,209.74 423.5,226 423.5,226 C423.5,226 423.5,244 423.5,244 C423.5,244 419.9124,255.4879 415.6624,269.0779" fill="none" id="PanelPrincipalController-to-PanelPrincipalRepository-1" style="stroke:#181818;stroke-width:1;"/><polygon fill="#181818" points="414.17,273.85,420.6739,266.4541,415.6624,269.0779,413.0386,264.0663,414.17,273.85" style="stroke:#181818;stroke-width:1;stroke-linejoin:miter;stroke-miterlimit:10;"/><text fill="#000000" font-family="sans-serif" font-size="13" lengthAdjust="spacing" textLength="137.2427" x="424.5" y="240.4951">verificarPermisos(actor)</text></g><!--link PanelPrincipalRepository to PanelPrincipal--><g class="link" data-entity-1="ent0005" data-entity-2="ent0006" data-link-type="association" data-source-line="24" id="lnk18"><path d="M408.5,312.24 C408.5,329.59 408.5,355.52 408.5,372.84" fill="none" id="PanelPrincipalRepository-PanelPrincipal" style="stroke:#181818;stroke-width:1;"/></g><!--link DetallePanelPrincipalView to EstadoSalida--><g class="link" data-entity-1="ent0003" data-entity-2="ent0007" data-link-type="dependency" data-source-line="25" id="lnk19"><path d="M683.02,80.01 C711.4,93.63 745.5,110 745.5,110 C745.5,110 799.1485,136.2231 839.1185,155.7731" fill="none" id="DetallePanelPrincipalView-to-EstadoSalida" style="stroke:#181818;stroke-width:1;stroke-dasharray:7,7;"/><polygon fill="#181818" points="843.61,157.97,837.2828,150.4224,839.1185,155.7731,833.7678,157.6088,843.61,157.97" style="stroke:#181818;stroke-width:1;stroke-linejoin:miter;stroke-miterlimit:10;"/><text fill="#000000" font-family="sans-serif" font-size="13" lengthAdjust="spacing" textLength="130.7935" x="782.5" y="124.4951">continuarNavegacion()</text></g><!--link DetallePanelPrincipalView to AbrirOpcionesPerfil--><g class="link" data-entity-1="ent0003" data-entity-2="ent0008" data-link-type="dependency" data-source-line="26" id="lnk20"><path d="M737.02,77.92 C817.36,91.89 921.5,110 921.5,110 C921.5,110 1011.4611,136.9825 1076.5911,156.5325" fill="none" id="DetallePanelPrincipalView-to-AbrirOpcionesPerfil" style="stroke:#181818;stroke-width:1;stroke-dasharray:7,7;"/><polygon fill="#181818" points="1081.38,157.97,1073.9099,151.5514,1076.5911,156.5325,1071.61,159.2137,1081.38,157.97" style="stroke:#181818;stroke-width:1;stroke-linejoin:miter;stroke-miterlimit:10;"/><text fill="#000000" font-family="sans-serif" font-size="13" lengthAdjust="spacing" textLength="119.2026" x="981.5" y="124.4951">abrirOpcionesPerfil()</text></g><!--link DetallePanelPrincipalView to AbrirOpcionesCargaTrabajo--><g class="link" data-entity-1="ent0003" data-entity-2="ent0009" data-link-type="dependency" data-source-line="27" id="lnk21"><path d="M737.17,71.48 C872.4,85.47 1109.5,110 1109.5,110 C1109.5,110 1244.5701,137.4244 1340.7901,156.9744" fill="none" id="DetallePanelPrincipalView-to-AbrirOpcionesCargaTrabajo" style="stroke:#181818;stroke-width:1;stroke-dasharray:7,7;"/><polygon fill="#181818" points="1345.69,157.97,1337.6667,152.2581,1340.7901,156.9744,1336.0738,160.0979,1345.69,157.97" style="stroke:#181818;stroke-width:1;stroke-linejoin:miter;stroke-miterlimit:10;"/><text fill="#000000" font-family="sans-serif" font-size="13" lengthAdjust="spacing" textLength="169.0698" x="1197.5" y="124.4951">abrirOpcionesCargaTrabajo()</text></g><!--link DetallePanelPrincipalView to AbrirProyectos--><g class="link" data-entity-1="ent0003" data-entity-2="ent0010" data-link-type="dependency" data-source-line="28" id="lnk22"><path d="M737.22,68.03 C933.28,80.92 1375.5,110 1375.5,110 C1375.5,110 1516.1528,137.4614 1616.2328,157.0114" fill="none" id="DetallePanelPrincipalView-to-AbrirProyectos" style="stroke:#181818;stroke-width:1;stroke-dasharray:7,7;"/><polygon fill="#181818" points="1621.14,157.97,1613.0738,152.3187,1616.2328,157.0114,1611.5401,160.1703,1621.14,157.97" style="stroke:#181818;stroke-width:1;stroke-linejoin:miter;stroke-miterlimit:10;"/><text fill="#000000" font-family="sans-serif" font-size="13" lengthAdjust="spacing" textLength="92.4663" x="1466.5" y="124.4951">abrirProyectos()</text></g><!--link DetallePanelPrincipalView to AbrirInvestigadores--><g class="link" data-entity-1="ent0003" data-entity-2="ent0011" data-link-type="dependency" data-source-line="29" id="lnk23"><path d="M737.28,66.78 C970.48,78.92 1567.5,110 1567.5,110 C1567.5,110 1733.9674,137.6017 1851.8074,157.1517" fill="none" id="DetallePanelPrincipalView-to-AbrirInvestigadores" style="stroke:#181818;stroke-width:1;stroke-dasharray:7,7;"/><polygon fill="#181818" points="1856.74,157.97,1848.516,152.5509,1851.8074,157.1517,1847.2067,160.4431,1856.74,157.97" style="stroke:#181818;stroke-width:1;stroke-linejoin:miter;stroke-miterlimit:10;"/><text fill="#000000" font-family="sans-serif" font-size="13" lengthAdjust="spacing" textLength="119.2153" x="1674.5" y="124.4951">abrirInvestigadores()</text></g><!--link DetallePanelPrincipalView to AbrirMisPublicaciones--><g class="link" data-entity-1="ent0003" data-entity-2="ent0012" data-link-type="dependency" data-source-line="30" id="lnk24"><path d="M737.25,65.81 C1010.91,77.16 1802.5,110 1802.5,110 C1802.5,110 1986.1859,137.6746 2115.8659,157.2246" fill="none" id="DetallePanelPrincipalView-to-AbrirMisPublicaciones" style="stroke:#181818;stroke-width:1;stroke-dasharray:7,7;"/><polygon fill="#181818" points="2120.81,157.97,2112.5068,152.6731,2115.8659,157.2246,2111.3143,160.5837,2120.81,157.97" style="stroke:#181818;stroke-width:1;stroke-linejoin:miter;stroke-miterlimit:10;"/><text fill="#000000" font-family="sans-serif" font-size="13" lengthAdjust="spacing" textLength="135.0972" x="1920.5" y="124.4951">abrirMisPublicaciones()</text></g><?plantuml-src dPDDRzim38Rl-XL2TaaEwQ5OYpM70gxZ3WQwn4Y2NWlQPWskgYHGRePWs7-VaYRrH-tEdKyMHJwYNl5rJwGjC3nBHHhBdKLfZThj5q8mPYNeGg7y4iwZc-12ZcRnuZvQR-BlmNovYjOFmKqShJRBzKY2av4h8JUHBXbo41Qo9oXGGih42MXK2PFEo8BQ9uywukF9IFuMqd-reo_FhwBRApd74fJ2Pi4zuQzsVdgHvfVVP3CnDBuhu-kvdNvx7eHVerRw2grnL1hU3KeNVxh5Ie95TFUGhE9562V1tKcjcbXhKEIrwYeEVRkG6eQIZ9R1NgsbpVm_kWJvaTG1qn7_B2q4Bc33aC9FyvvPtnrAJjZiVAPn5UujD9GHwoswaWel4cCDr8mFfVqWbxoaYZ9ulLN5Q-y8qHXZEUNfTV_mpMJd60lHMo6dkGVsJUTCchH4ZMqYvPEFa1yIBUFUuXnahpUSaxD6KwhGZQccvaJqCJeEg1nIjMmupW-T_YTdYqoF_Y7Op_4pEUF6u2VcNLzLYUUrdTWlqjdPTSDqCvdvnaY_02zWYyNX_SUJVn0w_7QSWMRmSw2woLgu-jOmw9lLJiDvMWyhRnhio6W6Xu7QpZgYsc4F-mi0?></g></svg>