<svg xmlns="http://www.w3.org/2000/svg" xmlns:xlink="http://www.w3.org/1999/xlink" contentStyleType="text/css" data-diagram-type="DESCRIPTION" height="496px" preserveAspectRatio="none" style="width:3109px;height:496px;background:#FFFFFF;" version="1.1" viewBox="0 0 3109 496" width="3109px" zoomAndPan="magnify"><?plantuml 1.2026.5?><defs/><g><!--cluster abrirPanelPrincipal--><g class="cluster" data-qualified-name="abrirPanelPrincipal" data-source-line="10" id="ent0008"><path d="M253,40.3564 L390.9307,40.3564 A3.75,3.75 0 0 1 393.4307,42.8564 L400.4307,63.9658 L729,63.9658 A2.5,2.5 0 0 1 731.5,66.4658 L731.5,478.8564 A2.5,2.5 0 0 1 729,481.3564 L253,481.3564 A2.5,2.5 0 0 1 250.5,478.8564 L250.5,42.8564 A2.5,2.5 0 0 1 253,40.3564" fill="none" style="stroke:#000000;stroke-width:1.5;"/><line style="stroke:#000000;stroke-width:1.5;" x1="250.5" x2="400.4307" y1="63.9658" y2="63.9658"/><text fill="#000000" font-family="sans-serif" font-size="14" font-weight="700" lengthAdjust="spacing" textLength="136.9307" x="254.5" y="56.8896">abrirPanelPrincipal()</text></g><!--entity DetallePanelPrincipalView--><g class="entity" data-qualified-name="abrirPanelPrincipal.DetallePanelPrincipalView" data-source-line="11" id="ent0009"><rect fill="#629EF9" height="37.6094" rx="2.5" ry="2.5" style="stroke:#181818;stroke-width:0.5;" width="183.4199" x="532" y="96.3564"/><text fill="#000000" font-family="sans-serif" font-size="14" lengthAdjust="spacing" textLength="163.4199" x="542" y="120.8896">DetallePanelPrincipalView</text></g><!--entity PanelPrincipalController--><g class="entity" data-qualified-name="abrirPanelPrincipal.PanelPrincipalController" data-source-line="12" id="ent0010"><rect fill="#B5BD68" height="37.6094" rx="2.5" ry="2.5" style="stroke:#181818;stroke-width:0.5;" width="170.1855" x="320.5" y="212.3564"/><text fill="#000000" font-family="sans-serif" font-size="14" lengthAdjust="spacing" textLength="150.1855" x="330.5" y="236.8896">PanelPrincipalController</text></g><!--entity SesionRepository--><g class="entity" data-qualified-name="abrirPanelPrincipal.SesionRepository" data-source-line="13" id="ent0011"><rect fill="#F2AC4E" height="37.6094" rx="2.5" ry="2.5" style="stroke:#181818;stroke-width:0.5;" width="129.7236" x="303.5" y="328.3564"/><text fill="#000000" font-family="sans-serif" font-size="14" lengthAdjust="spacing" textLength="109.7236" x="313.5" y="352.8896">SesionRepository</text></g><!--entity Sesion--><g class="entity" data-qualified-name="abrirPanelPrincipal.Sesion" data-source-line="14" id="ent0012"><rect fill="#F2AC4E" height="37.6094" rx="2.5" ry="2.5" style="stroke:#181818;stroke-width:0.5;" width="62.8066" x="405" y="427.3564"/><text fill="#000000" font-family="sans-serif" font-size="14" lengthAdjust="spacing" textLength="42.8066" x="415" y="451.8896">Sesion</text></g><!--entity EstadoEntrada1--><g class="entity" data-qualified-name="EstadoEntrada1" data-source-line="3" id="ent0001"><rect fill="#CDEBA5" height="37.6094" rx="2.5" ry="2.5" style="stroke:#181818;stroke-width:0.5;" width="226.9375" x="7" y="96.3564"/><text fill="#000000" font-family="sans-serif" font-size="14" lengthAdjust="spacing" textLength="206.9375" x="17" y="120.8896">:INVESTIGADORES_ABIERTOS</text></g><!--entity EstadoEntrada2--><g class="entity" data-qualified-name="EstadoEntrada2" data-source-line="4" id="ent0002"><rect fill="#CDEBA5" height="37.6094" rx="2.5" ry="2.5" style="stroke:#181818;stroke-width:0.5;" width="304.7441" x="869" y="96.3564"/><text fill="#000000" font-family="sans-serif" font-size="14" lengthAdjust="spacing" textLength="284.7441" x="879" y="120.8896">:OPCIONES_CARGA_TRABAJO_ABIERTAS</text></g><!--entity EstadoEntrada3--><g class="entity" data-qualified-name="EstadoEntrada3" data-source-line="5" id="ent0003"><rect fill="#CDEBA5" height="37.6094" rx="2.5" ry="2.5" style="stroke:#181818;stroke-width:0.5;" width="223.834" x="1329.5" y="96.3564"/><text fill="#000000" font-family="sans-serif" font-size="14" lengthAdjust="spacing" textLength="203.834" x="1339.5" y="120.8896">:OPCIONES_PERFIL_ABIERTO</text></g><!--entity EstadoEntrada4--><g class="entity" data-qualified-name="EstadoEntrada4" data-source-line="6" id="ent0004"><rect fill="#CDEBA5" height="37.6094" rx="2.5" ry="2.5" style="stroke:#181818;stroke-width:0.5;" width="247.1787" x="1589" y="96.3564"/><text fill="#000000" font-family="sans-serif" font-size="14" lengthAdjust="spacing" textLength="227.1787" x="1599" y="120.8896">:MIS_PUBLICACIONES_ABIERTAS</text></g><!--entity EstadoEntrada5--><g class="entity" data-qualified-name="EstadoEntrada5" data-source-line="7" id="ent0005"><rect fill="#CDEBA5" height="37.6094" rx="2.5" ry="2.5" style="stroke:#181818;stroke-width:0.5;" width="214.5029" x="1871" y="96.3564"/><text fill="#000000" font-family="sans-serif" font-size="14" lengthAdjust="spacing" textLength="194.5029" x="1881" y="120.8896">:PUBLICACIONES_ABIERTAS</text></g><!--entity EstadoEntrada6--><g class="entity" data-qualified-name="EstadoEntrada6" data-source-line="8" id="ent0006"><rect fill="#CDEBA5" height="37.6094" rx="2.5" ry="2.5" style="stroke:#181818;stroke-width:0.5;" width="209.8271" x="2121.5" y="96.3564"/><text fill="#000000" font-family="sans-serif" font-size="14" lengthAdjust="spacing" textLength="189.8271" x="2131.5" y="120.8896">:RECOMPENSAS_ABIERTAS</text></g><!--entity EstadoEntrada7--><g class="entity" data-qualified-name="EstadoEntrada7" data-source-line="9" id="ent0007"><rect fill="#CDEBA5" height="37.6094" rx="2.5" ry="2.5" style="stroke:#181818;stroke-width:0.5;" width="190.3721" x="2366.5" y="96.3564"/><text fill="#000000" font-family="sans-serif" font-size="14" lengthAdjust="spacing" textLength="170.3721" x="2376.5" y="120.8896">:PROYECTOS_ABIERTOS</text></g><!--entity EstadoSalida--><g class="entity" data-qualified-name="EstadoSalida" data-source-line="17" id="ent0013"><rect fill="#CDEBA5" height="37.6094" rx="2.5" ry="2.5" style="stroke:#181818;stroke-width:0.5;" width="220.7373" x="748" y="212.3564"/><text fill="#000000" font-family="sans-serif" font-size="14" lengthAdjust="spacing" textLength="200.7373" x="758" y="236.8896">:PANEL_PRINCIPAL_ABIERTO</text></g><!--entity AbrirOpcionesPerfil--><g class="entity" data-qualified-name="AbrirOpcionesPerfil" data-source-line="18" id="ent0014"><rect fill="#CDEBA5" height="37.6094" rx="2.5" ry="2.5" style="stroke:#181818;stroke-width:0.5;" width="230.875" x="1004" y="212.3564"/><text fill="#000000" font-family="sans-serif" font-size="14" lengthAdjust="spacing" textLength="210.875" x="1014" y="236.8896">:Collaboration AbrirOpcionesPerfil</text></g><!--entity AbrirOpcionesCargaTrabajo--><g class="entity" data-qualified-name="AbrirOpcionesCargaTrabajo" data-source-line="19" id="ent0015"><rect fill="#CDEBA5" height="37.6094" rx="2.5" ry="2.5" style="stroke:#181818;stroke-width:0.5;" width="284.5781" x="1270" y="212.3564"/><text fill="#000000" font-family="sans-serif" font-size="14" lengthAdjust="spacing" textLength="264.5781" x="1280" y="236.8896">:Collaboration AbrirOpcionesCargaTrabajo</text></g><!--entity AbrirProyectos--><g class="entity" data-qualified-name="AbrirProyectos" data-source-line="20" id="ent0016"><rect fill="#CDEBA5" height="37.6094" rx="2.5" ry="2.5" style="stroke:#181818;stroke-width:0.5;" width="202.082" x="1590.5" y="212.3564"/><text fill="#000000" font-family="sans-serif" font-size="14" lengthAdjust="spacing" textLength="182.082" x="1600.5" y="236.8896">:Collaboration AbrirProyectos</text></g><!--entity AbrirInvestigadores--><g class="entity" data-qualified-name="AbrirInvestigadores" data-source-line="21" id="ent0017"><rect fill="#CDEBA5" height="37.6094" rx="2.5" ry="2.5" style="stroke:#181818;stroke-width:0.5;" width="230.8887" x="1828" y="212.3564"/><text fill="#000000" font-family="sans-serif" font-size="14" lengthAdjust="spacing" textLength="210.8887" x="1838" y="236.8896">:Collaboration AbrirInvestigadores</text></g><!--entity AbrirMisPublicaciones--><g class="entity" data-qualified-name="AbrirMisPublicaciones" data-source-line="22" id="ent0018"><rect fill="#CDEBA5" height="37.6094" rx="2.5" ry="2.5" style="stroke:#181818;stroke-width:0.5;" width="247.9922" x="2094.5" y="212.3564"/><text fill="#000000" font-family="sans-serif" font-size="14" lengthAdjust="spacing" textLength="227.9922" x="2104.5" y="236.8896">:Collaboration AbrirMisPublicaciones</text></g><!--entity AbrirPublicaciones--><g class="entity" data-qualified-name="AbrirPublicaciones" data-source-line="23" id="ent0019"><rect fill="#CDEBA5" height="37.6094" rx="2.5" ry="2.5" style="stroke:#181818;stroke-width:0.5;" width="226.2197" x="2377.5" y="212.3564"/><text fill="#000000" font-family="sans-serif" font-size="14" lengthAdjust="spacing" textLength="206.2197" x="2387.5" y="236.8896">:Collaboration AbrirPublicaciones</text></g><!--entity AbrirRecompensas--><g class="entity" data-qualified-name="AbrirRecompensas" data-source-line="24" id="ent0020"><rect fill="#CDEBA5" height="37.6094" rx="2.5" ry="2.5" style="stroke:#181818;stroke-width:0.5;" width="229.3232" x="2639" y="212.3564"/><text fill="#000000" font-family="sans-serif" font-size="14" lengthAdjust="spacing" textLength="209.3232" x="2649" y="236.8896">:Collaboration AbrirRecompensas</text></g><!--entity CerrarSesion--><g class="entity" data-qualified-name="CerrarSesion" data-source-line="25" id="ent0021"><rect fill="#CDEBA5" height="37.6094" rx="2.5" ry="2.5" style="stroke:#181818;stroke-width:0.5;" width="192.751" x="2903" y="212.3564"/><text fill="#000000" font-family="sans-serif" font-size="14" lengthAdjust="spacing" textLength="172.751" x="2913" y="236.8896">:Collaboration CerrarSesion</text></g><!--link EstadoEntrada1 to DetallePanelPrincipalView--><g class="link" data-entity-1="ent0001" data-entity-2="ent0009" data-link-type="dependency" data-source-line="27" id="lnk22"><path d="M234.01,115.3564 C323.98,115.3564 443.07,115.3564 526.81,115.3564" fill="none" id="EstadoEntrada1-to-DetallePanelPrincipalView" style="stroke:#181818;stroke-width:1;"/><polygon fill="#181818" points="531.81,115.3564,522.81,111.3564,526.81,115.3564,522.81,119.3564,531.81,115.3564" style="stroke:#181818;stroke-width:1;stroke-linejoin:miter;stroke-miterlimit:10;"/><text fill="#000000" font-family="sans-serif" font-size="13" lengthAdjust="spacing" textLength="117.7681" x="324.5" y="108.8516">abrirPanelPrincipal()</text></g><!--link EstadoEntrada2 to DetallePanelPrincipalView--><g class="link" data-entity-1="ent0002" data-entity-2="ent0009" data-link-type="dependency" data-source-line="28" id="lnk23"><path d="M868.95,115.3564 C817.14,115.3564 765.88,115.3564 720.31,115.3564" fill="none" id="EstadoEntrada2-to-DetallePanelPrincipalView" style="stroke:#181818;stroke-width:1;"/><polygon fill="#181818" points="715.31,115.3564,724.31,119.3564,720.31,115.3564,724.31,111.3564,715.31,115.3564" style="stroke:#181818;stroke-width:1;stroke-linejoin:miter;stroke-miterlimit:10;"/><text fill="#000000" font-family="sans-serif" font-size="13" lengthAdjust="spacing" textLength="117.7681" x="733.5" y="108.8516">abrirPanelPrincipal()</text></g><!--link EstadoEntrada3 to DetallePanelPrincipalView--><g class="link" data-entity-1="ent0003" data-entity-2="ent0009" data-link-type="dependency" data-source-line="29" id="lnk24"><path d="M1383.52,96.3364 C1309.66,72.1164 1191.5,33.3564 1191.5,33.3564 C1191.5,33.3564 851.5,33.3564 851.5,33.3564 C851.5,33.3564 748.435,70.4245 681.085,94.6445" fill="none" id="EstadoEntrada3-to-DetallePanelPrincipalView" style="stroke:#181818;stroke-width:1;"/><polygon fill="#181818" points="676.38,96.3364,686.2026,97.0549,681.085,94.6445,683.4954,89.5269,676.38,96.3364" style="stroke:#181818;stroke-width:1;stroke-linejoin:miter;stroke-miterlimit:10;"/><text fill="#000000" font-family="sans-serif" font-size="13" lengthAdjust="spacing" textLength="117.7681" x="1212" y="20.8516">abrirPanelPrincipal()</text></g><!--link EstadoEntrada4 to DetallePanelPrincipalView--><g class="link" data-entity-1="ent0004" data-entity-2="ent0009" data-link-type="dependency" data-source-line="30" id="lnk25"><path d="M1679.8,96.3364 C1638.14,72.1164 1571.5,33.3564 1571.5,33.3564 C1571.5,33.3564 851.5,33.3564 851.5,33.3564 C851.5,33.3564 748.435,70.4245 681.085,94.6445" fill="none" id="EstadoEntrada4-to-DetallePanelPrincipalView" style="stroke:#181818;stroke-width:1;"/><polygon fill="#181818" points="676.38,96.3364,686.2026,97.0549,681.085,94.6445,683.4954,89.5269,676.38,96.3364" style="stroke:#181818;stroke-width:1;stroke-linejoin:miter;stroke-miterlimit:10;"/><text fill="#000000" font-family="sans-serif" font-size="13" lengthAdjust="spacing" textLength="117.7681" x="716" y="20.8516">abrirPanelPrincipal()</text></g><!--link EstadoEntrada5 to DetallePanelPrincipalView--><g class="link" data-entity-1="ent0005" data-entity-2="ent0009" data-link-type="dependency" data-source-line="31" id="lnk26"><path d="M1949.51,96.3364 C1912.58,72.1164 1853.5,33.3564 1853.5,33.3564 C1853.5,33.3564 851.5,33.3564 851.5,33.3564 C851.5,33.3564 748.435,70.4245 681.085,94.6445" fill="none" id="EstadoEntrada5-to-DetallePanelPrincipalView" style="stroke:#181818;stroke-width:1;"/><polygon fill="#181818" points="676.38,96.3364,686.2026,97.0549,681.085,94.6445,683.4954,89.5269,676.38,96.3364" style="stroke:#181818;stroke-width:1;stroke-linejoin:miter;stroke-miterlimit:10;"/><text fill="#000000" font-family="sans-serif" font-size="13" lengthAdjust="spacing" textLength="117.7681" x="1088" y="20.8516">abrirPanelPrincipal()</text></g><!--link EstadoEntrada6 to DetallePanelPrincipalView--><g class="link" data-entity-1="ent0006" data-entity-2="ent0009" data-link-type="dependency" data-source-line="32" id="lnk27"><path d="M2197.97,96.3364 C2161.64,72.1164 2103.5,33.3564 2103.5,33.3564 C2103.5,33.3564 851.5,33.3564 851.5,33.3564 C851.5,33.3564 748.435,70.4245 681.085,94.6445" fill="none" id="EstadoEntrada6-to-DetallePanelPrincipalView" style="stroke:#181818;stroke-width:1;"/><polygon fill="#181818" points="676.38,96.3364,686.2026,97.0549,681.085,94.6445,683.4954,89.5269,676.38,96.3364" style="stroke:#181818;stroke-width:1;stroke-linejoin:miter;stroke-miterlimit:10;"/><text fill="#000000" font-family="sans-serif" font-size="13" lengthAdjust="spacing" textLength="117.7681" x="840" y="20.8516">abrirPanelPrincipal()</text></g><!--link EstadoEntrada7 to DetallePanelPrincipalView--><g class="link" data-entity-1="ent0007" data-entity-2="ent0009" data-link-type="dependency" data-source-line="33" id="lnk28"><path d="M2435.52,96.3364 C2402.44,72.1164 2349.5,33.3564 2349.5,33.3564 C2349.5,33.3564 851.5,33.3564 851.5,33.3564 C851.5,33.3564 748.435,70.4245 681.085,94.6445" fill="none" id="EstadoEntrada7-to-DetallePanelPrincipalView" style="stroke:#181818;stroke-width:1;"/><polygon fill="#181818" points="676.38,96.3364,686.2026,97.0549,681.085,94.6445,683.4954,89.5269,676.38,96.3364" style="stroke:#181818;stroke-width:1;stroke-linejoin:miter;stroke-miterlimit:10;"/><text fill="#000000" font-family="sans-serif" font-size="13" lengthAdjust="spacing" textLength="117.7681" x="964" y="20.8516">abrirPanelPrincipal()</text></g><!--link DetallePanelPrincipalView to PanelPrincipalController--><g class="link" data-entity-1="ent0009" data-entity-2="ent0010" data-link-type="dependency" data-source-line="35" id="lnk29"><path d="M531.67,129.9164 C435.57,144.1164 298.5,164.3564 298.5,164.3564 C298.5,164.3564 298.5,182.3564 298.5,182.3564 C298.5,182.3564 330.428,196.6799 360.788,210.2999" fill="none" id="DetallePanelPrincipalView-to-PanelPrincipalController" style="stroke:#181818;stroke-width:1;"/><polygon fill="#181818" points="365.35,212.3464,358.7757,205.013,360.788,210.2999,355.5012,212.3122,365.35,212.3464" style="stroke:#181818;stroke-width:1;stroke-linejoin:miter;stroke-miterlimit:10;"/><text fill="#000000" font-family="sans-serif" font-size="13" lengthAdjust="spacing" textLength="117.7681" x="299.5" y="178.8516">abrirPanelPrincipal()</text></g><!--link PanelPrincipalController to DetallePanelPrincipalView--><g class="link" data-entity-1="ent0010" data-entity-2="ent0009" data-link-type="dependency" data-source-line="38" id="lnk32"><path d="M440.24,212.1864 C481.03,190.8564 543.8295,158.024 584.5295,136.734" fill="none" id="PanelPrincipalController-to-DetallePanelPrincipalView" style="stroke:#181818;stroke-width:1;"/><polygon fill="#181818" points="588.96,134.4164,579.1311,135.0437,584.5295,136.734,582.8392,142.1324,588.96,134.4164" style="stroke:#181818;stroke-width:1;stroke-linejoin:miter;stroke-miterlimit:10;"/><text fill="#000000" font-family="sans-serif" font-size="13" lengthAdjust="spacing" textLength="253.627" x="528.5" y="178.8516">presentarAccionesDisponibles(investigador)</text></g><!--link PanelPrincipalController to SesionRepository--><g class="link" data-entity-1="ent0010" data-entity-2="ent0011" data-link-type="dependency" data-source-line="36" id="lnk30"><path d="M390.38,250.5064 C379.05,264.0964 365.5,280.3564 365.5,280.3564 C365.5,280.3564 365.5,298.3564 365.5,298.3564 C365.5,298.3564 366.2079,309.6262 367.0579,323.2162" fill="none" id="PanelPrincipalController-to-SesionRepository" style="stroke:#181818;stroke-width:1;"/><polygon fill="#181818" points="367.37,328.2064,370.8004,318.9743,367.0579,323.2162,362.816,319.4737,367.37,328.2064" style="stroke:#181818;stroke-width:1;stroke-linejoin:miter;stroke-miterlimit:10;"/><text fill="#000000" font-family="sans-serif" font-size="13" lengthAdjust="spacing" textLength="127.8989" x="366.5" y="294.8516">obtenerSesionActiva()</text></g><!--link PanelPrincipalController to Sesion--><g class="link" data-entity-1="ent0010" data-entity-2="ent0012" data-link-type="dependency" data-source-line="37" id="lnk31"><path d="M440.39,250.3664 C466.78,263.9864 498.5,280.3564 498.5,280.3564 C498.5,280.3564 498.5,298.3564 498.5,298.3564 C498.5,298.3564 462.6036,383.4697 446.0436,422.7197" fill="none" id="PanelPrincipalController-to-Sesion" style="stroke:#181818;stroke-width:1;"/><polygon fill="#181818" points="444.1,427.3264,451.284,420.5892,446.0436,422.7197,443.9131,417.4794,444.1,427.3264" style="stroke:#181818;stroke-width:1;stroke-linejoin:miter;stroke-miterlimit:10;"/><text fill="#000000" font-family="sans-serif" font-size="13" lengthAdjust="spacing" textLength="107.6563" x="486.5" y="352.8516">obtenerRolActivo()</text></g><!--link SesionRepository to Sesion--><g class="link" data-entity-1="ent0011" data-entity-2="ent0012" data-link-type="association" data-source-line="39" id="lnk33"><path d="M381.29,366.5964 C393.45,383.9464 411.63,409.8764 423.77,427.1964" fill="none" id="SesionRepository-Sesion" style="stroke:#181818;stroke-width:1;"/></g><!--link DetallePanelPrincipalView to EstadoSalida--><g class="link" data-entity-1="ent0009" data-entity-2="ent0013" data-link-type="dependency" data-source-line="40" id="lnk34"><path d="M686.16,134.3664 C733.55,147.9864 790.5,164.3564 790.5,164.3564 C790.5,164.3564 816.2032,189.293 836.3332,208.843" fill="none" id="DetallePanelPrincipalView-to-EstadoSalida" style="stroke:#181818;stroke-width:1;stroke-dasharray:7,7;"/><polygon fill="#181818" points="839.92,212.3264,836.2505,203.1867,836.3332,208.843,830.6769,208.9256,839.92,212.3264" style="stroke:#181818;stroke-width:1;stroke-linejoin:miter;stroke-miterlimit:10;"/><text fill="#000000" font-family="sans-serif" font-size="13" lengthAdjust="spacing" textLength="130.7935" x="809.5" y="178.8516">continuarNavegacion()</text></g><!--link DetallePanelPrincipalView to AbrirOpcionesPerfil--><g class="link" data-entity-1="ent0009" data-entity-2="ent0014" data-link-type="dependency" data-source-line="41" id="lnk35"><path d="M715.33,129.9164 C811.43,144.1164 948.5,164.3564 948.5,164.3564 C948.5,164.3564 1017.4757,190.9754 1068.1057,210.5254" fill="none" id="DetallePanelPrincipalView-to-AbrirOpcionesPerfil" style="stroke:#181818;stroke-width:1;stroke-dasharray:7,7;"/><polygon fill="#181818" points="1072.77,212.3264,1065.815,205.353,1068.1057,210.5254,1062.9333,212.816,1072.77,212.3264" style="stroke:#181818;stroke-width:1;stroke-linejoin:miter;stroke-miterlimit:10;"/><text fill="#000000" font-family="sans-serif" font-size="13" lengthAdjust="spacing" textLength="119.2026" x="994.5" y="178.8516">abrirOpcionesPerfil()</text></g><!--link DetallePanelPrincipalView to AbrirOpcionesCargaTrabajo--><g class="link" data-entity-1="ent0009" data-entity-2="ent0015" data-link-type="dependency" data-source-line="42" id="lnk36"><path d="M715.02,125.1564 C859.08,139.0164 1122.5,164.3564 1122.5,164.3564 C1122.5,164.3564 1242.5148,191.6665 1328.3848,211.2165" fill="none" id="DetallePanelPrincipalView-to-AbrirOpcionesCargaTrabajo" style="stroke:#181818;stroke-width:1;stroke-dasharray:7,7;"/><polygon fill="#181818" points="1333.26,212.3264,1325.3725,206.4283,1328.3848,211.2165,1323.5966,214.2287,1333.26,212.3264" style="stroke:#181818;stroke-width:1;stroke-linejoin:miter;stroke-miterlimit:10;"/><text fill="#000000" font-family="sans-serif" font-size="13" lengthAdjust="spacing" textLength="169.0698" x="1200.5" y="178.8516">abrirOpcionesCargaTrabajo()</text></g><!--link DetallePanelPrincipalView to AbrirProyectos--><g class="link" data-entity-1="ent0009" data-entity-2="ent0016" data-link-type="dependency" data-source-line="43" id="lnk37"><path d="M715.25,123.5964 C778.61,128.6064 851.5,134.3564 851.5,134.3564 C851.5,134.3564 1378.5,164.3564 1378.5,164.3564 C1378.5,164.3564 1508.4077,191.7443 1601.0777,211.2943" fill="none" id="DetallePanelPrincipalView-to-AbrirProyectos" style="stroke:#181818;stroke-width:1;stroke-dasharray:7,7;"/><polygon fill="#181818" points="1605.97,212.3264,1597.9895,206.5548,1601.0777,211.2943,1596.3381,214.3825,1605.97,212.3264" style="stroke:#181818;stroke-width:1;stroke-linejoin:miter;stroke-miterlimit:10;"/><text fill="#000000" font-family="sans-serif" font-size="13" lengthAdjust="spacing" textLength="92.4663" x="1462.5" y="178.8516">abrirProyectos()</text></g><!--link DetallePanelPrincipalView to AbrirInvestigadores--><g class="link" data-entity-1="ent0009" data-entity-2="ent0017" data-link-type="dependency" data-source-line="44" id="lnk38"><path d="M715.25,123.5964 C778.61,128.6064 851.5,134.3564 851.5,134.3564 C851.5,134.3564 1563.5,164.3564 1563.5,164.3564 C1563.5,164.3564 1722.2238,191.9205 1834.7338,211.4705" fill="none" id="DetallePanelPrincipalView-to-AbrirInvestigadores" style="stroke:#181818;stroke-width:1;stroke-dasharray:7,7;"/><polygon fill="#181818" points="1839.66,212.3264,1831.4777,206.8447,1834.7338,211.4705,1830.1081,214.7266,1839.66,212.3264" style="stroke:#181818;stroke-width:1;stroke-linejoin:miter;stroke-miterlimit:10;"/><text fill="#000000" font-family="sans-serif" font-size="13" lengthAdjust="spacing" textLength="119.2153" x="1665.5" y="178.8516">abrirInvestigadores()</text></g><!--link DetallePanelPrincipalView to AbrirMisPublicaciones--><g class="link" data-entity-1="ent0009" data-entity-2="ent0018" data-link-type="dependency" data-source-line="45" id="lnk39"><path d="M715.25,123.5964 C778.61,128.6064 851.5,134.3564 851.5,134.3564 C851.5,134.3564 1793.5,164.3564 1793.5,164.3564 C1793.5,164.3564 1971.5893,192.0089 2097.4293,211.5589" fill="none" id="DetallePanelPrincipalView-to-AbrirMisPublicaciones" style="stroke:#181818;stroke-width:1;stroke-dasharray:7,7;"/><polygon fill="#181818" points="2102.37,212.3264,2094.0907,206.9922,2097.4293,211.5589,2092.8626,214.8974,2102.37,212.3264" style="stroke:#181818;stroke-width:1;stroke-linejoin:miter;stroke-miterlimit:10;"/><text fill="#000000" font-family="sans-serif" font-size="13" lengthAdjust="spacing" textLength="135.0972" x="1907.5" y="178.8516">abrirMisPublicaciones()</text></g><!--link DetallePanelPrincipalView to AbrirPublicaciones--><g class="link" data-entity-1="ent0009" data-entity-2="ent0019" data-link-type="dependency" data-source-line="46" id="lnk40"><path d="M715.25,123.5964 C778.61,128.6064 851.5,134.3564 851.5,134.3564 C851.5,134.3564 2051.5,164.3564 2051.5,164.3564 C2051.5,164.3564 2242.4255,193.0633 2372.5055,212.6133" fill="none" id="DetallePanelPrincipalView-to-AbrirPublicaciones" style="stroke:#181818;stroke-width:1;stroke-dasharray:7,7;"/><polygon fill="#181818" points="2377.45,213.3564,2369.1444,208.0633,2372.5055,212.6133,2367.9555,215.9744,2377.45,213.3564" style="stroke:#181818;stroke-width:1;stroke-linejoin:miter;stroke-miterlimit:10;"/><text fill="#000000" font-family="sans-serif" font-size="13" lengthAdjust="spacing" textLength="114.8799" x="2169.5" y="178.8516">abrirPublicaciones()</text></g><!--link DetallePanelPrincipalView to AbrirRecompensas--><g class="link" data-entity-1="ent0009" data-entity-2="ent0020" data-link-type="dependency" data-source-line="47" id="lnk41"><path d="M715.25,123.5964 C778.61,128.6064 851.5,134.3564 851.5,134.3564 C851.5,134.3564 2292.5,164.3564 2292.5,164.3564 C2292.5,164.3564 2497.4705,193.6977 2634.0005,213.2477" fill="none" id="DetallePanelPrincipalView-to-AbrirRecompensas" style="stroke:#181818;stroke-width:1;stroke-dasharray:7,7;"/><polygon fill="#181818" points="2638.95,213.9564,2630.6079,208.7211,2634.0005,213.2477,2629.4739,216.6403,2638.95,213.9564" style="stroke:#181818;stroke-width:1;stroke-linejoin:miter;stroke-miterlimit:10;"/><text fill="#000000" font-family="sans-serif" font-size="13" lengthAdjust="spacing" textLength="117.7617" x="2416.5" y="178.8516">abrirRecompensas()</text></g><!--link DetallePanelPrincipalView to CerrarSesion--><g class="link" data-entity-1="ent0009" data-entity-2="ent0021" data-link-type="dependency" data-source-line="48" id="lnk42"><path d="M715.25,123.5964 C778.61,128.6064 851.5,134.3564 851.5,134.3564 C851.5,134.3564 2542.5,164.3564 2542.5,164.3564 C2542.5,164.3564 2885.5,212.3564 2885.5,212.3564 C2885.5,212.3564 2887.4609,212.6683 2897.8709,214.3083" fill="none" id="DetallePanelPrincipalView-to-CerrarSesion" style="stroke:#181818;stroke-width:1;stroke-dasharray:7,7;"/><polygon fill="#181818" points="2902.81,215.0864,2894.5421,209.7346,2897.8709,214.3083,2893.2972,217.6371,2902.81,215.0864" style="stroke:#181818;stroke-width:1;stroke-linejoin:miter;stroke-miterlimit:10;"/><text fill="#000000" font-family="sans-serif" font-size="13" lengthAdjust="spacing" textLength="82.3545" x="2663.5" y="178.8516">cerrarSesion()</text></g><?plantuml-src hPHHRzem4CVVyoaizj8-K6aKwCf39HDCbGcIA66LzeGkmKDUKpjoKYOqxRlFGA1EwgGfWgVuVF-VpyVvdpqpdeA45vGmJlDjIb4gakrkOLcInZdmTKBH5tj2ndY0EYF7VIBXmdd44oyWuHAF7H8ilB2384Caos4b2CybhE2hKUxvjkEvIcZZu14l5m4Uu-zUWS46JAyPuvDWwioEPRoNtnhbSqSfVundZeqBJdq1VIEXhNfWL0V4zkO-SKFSf1sQJmwydyHMBM_e_PsLGlmCQueWaapwm6dYIyPZbaAoo-uOubVN7VJNGkgd7JlitPFfFPhG79A4bWLFZFwfvaU3Q3NyXig9jb1b2QMNrVHf3zjzWaAQCS43cegCvK9k6zEiV-R9zB5BPai_S5pRyR5f9a98s0gCObkL1v6GaAiJ4DvrnqjZzKqpdyfVBDbZ3F7FqcoGQrX8YE2tUC_KTzkIVIcsAbDaRxXJg2t3uHkQvMojcYIf1Yh7szBcBFDVeuJ5SBZL6w-wq_gEPjnPh836uYMbF0EDf0LRS6mg9SZ3EEuPUi2ooZw8khBxKF-2HiZu5ikGtYKWjvU0z2y16Lm2Chm4vEvCY5MhGDsL0jOPO1slBXzr5QngZoCaefnoMWmSZdEsWNQGapGGoLudFj8rj2PLda1v3XB7XoSuOLagE8iIcbqnpJgkhUeL5Ffev_MTlBbvA3dt2CMgDiPVGRgmeUlzmrVrDnCCfbty2-NWvq2wKrTm-bOxwCclZ-DnNBUJbrswO9I3xK1LUovGrN3BInb8Ps0qPouWMkH3X6xCQdoqbPB-1m00?></g></svg>