<?xml version="1.0" encoding="us-ascii" standalone="no"?><svg xmlns="http://www.w3.org/2000/svg" xmlns:xlink="http://www.w3.org/1999/xlink" contentStyleType="text/css" height="1465px" preserveAspectRatio="none" style="width:2032px;height:1465px;background:#FFFFFF;" version="1.1" viewBox="0 0 2032 1465" width="2032px" zoomAndPan="magnify"><defs/><g><text fill="#000000" font-family="sans-serif" font-size="14" font-weight="bold" lengthAdjust="spacing" textLength="308" x="863" y="29.5332">Diagrama de secuencia - Crear investigador</text><rect fill="#FFFFFF" height="1219.5703" style="stroke:#181818;stroke-width:1.0;" width="10" x="349.5" y="153.5703"/><rect fill="#FFFFFF" height="445.2734" style="stroke:#181818;stroke-width:1.0;" width="10" x="586.5" y="362.8672"/><rect fill="#FFFFFF" height="55.7031" style="stroke:#181818;stroke-width:1.0;" width="10" x="824.5" y="393.2188"/><rect fill="#FFFFFF" height="298.5156" style="stroke:#181818;stroke-width:1.0;" width="10" x="955.5" y="479.2734"/><rect fill="none" height="1167.2188" style="stroke:#000000;stroke-width:1.5;" width="2015" x="10" y="198.9219"/><rect fill="none" height="950.9219" style="stroke:#000000;stroke-width:1.5;" width="1995" x="20" y="408.2188"/><rect fill="none" height="508.1641" style="stroke:#000000;stroke-width:1.5;" width="1975" x="30" y="737.0859"/><line style="stroke:#181818;stroke-width:0.5;stroke-dasharray:5.0,5.0;" x1="82" x2="82" y1="121.2188" y2="1383.1406"/><line style="stroke:#181818;stroke-width:0.5;stroke-dasharray:5.0,5.0;" x1="354" x2="354" y1="121.2188" y2="1383.1406"/><line style="stroke:#181818;stroke-width:0.5;stroke-dasharray:5.0,5.0;" x1="591" x2="591" y1="121.2188" y2="1383.1406"/><line style="stroke:#181818;stroke-width:0.5;stroke-dasharray:5.0,5.0;" x1="829.5" x2="829.5" y1="121.2188" y2="1383.1406"/><line style="stroke:#181818;stroke-width:0.5;stroke-dasharray:5.0,5.0;" x1="960.5" x2="960.5" y1="121.2188" y2="1383.1406"/><line style="stroke:#181818;stroke-width:0.5;stroke-dasharray:5.0,5.0;" x1="1213.5" x2="1213.5" y1="121.2188" y2="1383.1406"/><line style="stroke:#181818;stroke-width:0.5;stroke-dasharray:5.0,5.0;" x1="1373.5" x2="1373.5" y1="121.2188" y2="1383.1406"/><line style="stroke:#181818;stroke-width:0.5;stroke-dasharray:5.0,5.0;" x1="1945" x2="1945" y1="121.2188" y2="1383.1406"/><text fill="#000000" font-family="sans-serif" font-size="14" lengthAdjust="spacing" textLength="79" x="40" y="118.1426">Coordinador</text><ellipse cx="82.5" cy="52.1094" fill="#E2E2F0" rx="8" ry="8" style="stroke:#181818;stroke-width:0.5;"/><path d="M82.5,60.1094 L82.5,87.1094 M69.5,68.1094 L95.5,68.1094 M82.5,87.1094 L69.5,102.1094 M82.5,87.1094 L95.5,102.1094 " fill="none" style="stroke:#181818;stroke-width:0.5;"/><text fill="#000000" font-family="sans-serif" font-size="14" lengthAdjust="spacing" textLength="79" x="40" y="1396.6738">Coordinador</text><ellipse cx="82.5" cy="1408.25" fill="#E2E2F0" rx="8" ry="8" style="stroke:#181818;stroke-width:0.5;"/><path d="M82.5,1416.25 L82.5,1443.25 M69.5,1424.25 L95.5,1424.25 M82.5,1443.25 L69.5,1458.25 M82.5,1443.25 L95.5,1458.25 " fill="none" style="stroke:#181818;stroke-width:0.5;"/><rect fill="#E2E2F0" height="49.2188" rx="2.5" ry="2.5" style="stroke:#181818;stroke-width:0.5;" width="139" x="285" y="71"/><text fill="#000000" font-family="sans-serif" font-size="14" lengthAdjust="spacing" textLength="125" x="292" y="92.5332">InvestigadoresPage</text><text fill="#000000" font-family="sans-serif" font-size="14" lengthAdjust="spacing" textLength="47" x="331" y="110.1426">(React)</text><rect fill="#E2E2F0" height="49.2188" rx="2.5" ry="2.5" style="stroke:#181818;stroke-width:0.5;" width="139" x="285" y="1382.1406"/><text fill="#000000" font-family="sans-serif" font-size="14" lengthAdjust="spacing" textLength="125" x="292" y="1403.6738">InvestigadoresPage</text><text fill="#000000" font-family="sans-serif" font-size="14" lengthAdjust="spacing" textLength="47" x="331" y="1421.2832">(React)</text><rect fill="#E2E2F0" height="49.2188" rx="2.5" ry="2.5" style="stroke:#181818;stroke-width:0.5;" width="153" x="515" y="71"/><text fill="#000000" font-family="sans-serif" font-size="14" lengthAdjust="spacing" textLength="139" x="522" y="92.5332">InvestigadorController</text><text fill="#000000" font-family="sans-serif" font-size="14" lengthAdjust="spacing" textLength="84" x="549.5" y="110.1426">(Spring Boot)</text><rect fill="#E2E2F0" height="49.2188" rx="2.5" ry="2.5" style="stroke:#181818;stroke-width:0.5;" width="153" x="515" y="1382.1406"/><text fill="#000000" font-family="sans-serif" font-size="14" lengthAdjust="spacing" textLength="139" x="522" y="1403.6738">InvestigadorController</text><text fill="#000000" font-family="sans-serif" font-size="14" lengthAdjust="spacing" textLength="84" x="549.5" y="1421.2832">(Spring Boot)</text><rect fill="#E2E2F0" height="31.6094" rx="2.5" ry="2.5" style="stroke:#181818;stroke-width:0.5;" width="104" x="777.5" y="88.6094"/><text fill="#000000" font-family="sans-serif" font-size="14" lengthAdjust="spacing" textLength="90" x="784.5" y="110.1426">SesionService</text><rect fill="#E2E2F0" height="31.6094" rx="2.5" ry="2.5" style="stroke:#181818;stroke-width:0.5;" width="104" x="777.5" y="1382.1406"/><text fill="#000000" font-family="sans-serif" font-size="14" lengthAdjust="spacing" textLength="90" x="784.5" y="1403.6738">SesionService</text><rect fill="#E2E2F0" height="31.6094" rx="2.5" ry="2.5" style="stroke:#181818;stroke-width:0.5;" width="138" x="891.5" y="88.6094"/><text fill="#000000" font-family="sans-serif" font-size="14" lengthAdjust="spacing" textLength="124" x="898.5" y="110.1426">InvestigadorService</text><rect fill="#E2E2F0" height="31.6094" rx="2.5" ry="2.5" style="stroke:#181818;stroke-width:0.5;" width="138" x="891.5" y="1382.1406"/><text fill="#000000" font-family="sans-serif" font-size="14" lengthAdjust="spacing" textLength="124" x="898.5" y="1403.6738">InvestigadorService</text><rect fill="#E2E2F0" height="31.6094" rx="2.5" ry="2.5" style="stroke:#181818;stroke-width:0.5;" width="130" x="1148.5" y="88.6094"/><text fill="#000000" font-family="sans-serif" font-size="14" lengthAdjust="spacing" textLength="116" x="1155.5" y="110.1426">UsuarioRepository</text><rect fill="#E2E2F0" height="31.6094" rx="2.5" ry="2.5" style="stroke:#181818;stroke-width:0.5;" width="130" x="1148.5" y="1382.1406"/><text fill="#000000" font-family="sans-serif" font-size="14" lengthAdjust="spacing" textLength="116" x="1155.5" y="1403.6738">UsuarioRepository</text><rect fill="#E2E2F0" height="31.6094" rx="2.5" ry="2.5" style="stroke:#181818;stroke-width:0.5;" width="170" x="1288.5" y="88.6094"/><text fill="#000000" font-family="sans-serif" font-size="14" lengthAdjust="spacing" textLength="156" x="1295.5" y="110.1426">CargaTrabajoRepository</text><rect fill="#E2E2F0" height="31.6094" rx="2.5" ry="2.5" style="stroke:#181818;stroke-width:0.5;" width="170" x="1288.5" y="1382.1406"/><text fill="#000000" font-family="sans-serif" font-size="14" lengthAdjust="spacing" textLength="156" x="1295.5" y="1403.6738">CargaTrabajoRepository</text><text fill="#000000" font-family="sans-serif" font-size="14" lengthAdjust="spacing" textLength="93" x="1896" y="118.1426">Base de Datos</text><path d="M1927.5,67.6094 C1927.5,57.6094 1945.5,57.6094 1945.5,57.6094 C1945.5,57.6094 1963.5,57.6094 1963.5,67.6094 L1963.5,93.6094 C1963.5,103.6094 1945.5,103.6094 1945.5,103.6094 C1945.5,103.6094 1927.5,103.6094 1927.5,93.6094 L1927.5,67.6094 " fill="#E2E2F0" style="stroke:#181818;stroke-width:1.5;"/><path d="M1927.5,67.6094 C1927.5,77.6094 1945.5,77.6094 1945.5,77.6094 C1945.5,77.6094 1963.5,77.6094 1963.5,67.6094 " fill="none" style="stroke:#181818;stroke-width:1.5;"/><text fill="#000000" font-family="sans-serif" font-size="14" lengthAdjust="spacing" textLength="93" x="1896" y="1396.6738">Base de Datos</text><path d="M1927.5,1409.75 C1927.5,1399.75 1945.5,1399.75 1945.5,1399.75 C1945.5,1399.75 1963.5,1399.75 1963.5,1409.75 L1963.5,1435.75 C1963.5,1445.75 1945.5,1445.75 1945.5,1445.75 C1945.5,1445.75 1927.5,1445.75 1927.5,1435.75 L1927.5,1409.75 " fill="#E2E2F0" style="stroke:#181818;stroke-width:1.5;"/><path d="M1927.5,1409.75 C1927.5,1419.75 1945.5,1419.75 1945.5,1419.75 C1945.5,1419.75 1963.5,1419.75 1963.5,1409.75 " fill="none" style="stroke:#181818;stroke-width:1.5;"/><rect fill="#FFFFFF" height="1219.5703" style="stroke:#181818;stroke-width:1.0;" width="10" x="349.5" y="153.5703"/><rect fill="#FFFFFF" height="445.2734" style="stroke:#181818;stroke-width:1.0;" width="10" x="586.5" y="362.8672"/><rect fill="#FFFFFF" height="55.7031" style="stroke:#181818;stroke-width:1.0;" width="10" x="824.5" y="393.2188"/><rect fill="#FFFFFF" height="298.5156" style="stroke:#181818;stroke-width:1.0;" width="10" x="955.5" y="479.2734"/><polygon fill="#181818" points="337.5,149.5703,347.5,153.5703,337.5,157.5703,341.5,153.5703" style="stroke:#181818;stroke-width:1.0;"/><line style="stroke:#181818;stroke-width:1.0;" x1="82.5" x2="343.5" y1="153.5703" y2="153.5703"/><text fill="#000000" font-family="sans-serif" font-size="13" lengthAdjust="spacing" textLength="148" x="89.5" y="148.7139">Solicita crear investigador</text><polygon fill="#181818" points="93.5,179.9219,83.5,183.9219,93.5,187.9219,89.5,183.9219" style="stroke:#181818;stroke-width:1.0;"/><line style="stroke:#181818;stroke-width:1.0;stroke-dasharray:2.0,2.0;" x1="87.5" x2="348.5" y1="183.9219" y2="183.9219"/><text fill="#000000" font-family="sans-serif" font-size="13" lengthAdjust="spacing" textLength="155" x="99.5" y="179.0654">Presenta formulario de alta</text><path d="M10,198.9219 L71,198.9219 L71,207.2734 L61,217.2734 L10,217.2734 L10,198.9219 " fill="#EEEEEE" style="stroke:#000000;stroke-width:1.5;"/><rect fill="none" height="1167.2188" style="stroke:#000000;stroke-width:1.5;" width="2015" x="10" y="198.9219"/><text fill="#000000" font-family="sans-serif" font-size="13" font-weight="bold" lengthAdjust="spacing" textLength="16" x="25" y="213.417">alt</text><text fill="#000000" font-family="sans-serif" font-size="11" font-weight="bold" lengthAdjust="spacing" textLength="121" x="86" y="212.3408">[Coordinador cancela]</text><polygon fill="#181818" points="337.5,235.625,347.5,239.625,337.5,243.625,341.5,239.625" style="stroke:#181818;stroke-width:1.0;"/><line style="stroke:#181818;stroke-width:1.0;" x1="82.5" x2="343.5" y1="239.625" y2="239.625"/><text fill="#000000" font-family="sans-serif" font-size="13" lengthAdjust="spacing" textLength="100" x="89.5" y="234.7686">Cancela creacion</text><polygon fill="#181818" points="93.5,265.9766,83.5,269.9766,93.5,273.9766,89.5,269.9766" style="stroke:#181818;stroke-width:1.0;"/><line style="stroke:#181818;stroke-width:1.0;stroke-dasharray:2.0,2.0;" x1="87.5" x2="348.5" y1="269.9766" y2="269.9766"/><text fill="#000000" font-family="sans-serif" font-size="13" lengthAdjust="spacing" textLength="243" x="99.5" y="265.1201">Conserva INVESTIGADORES_ABIERTOS</text><line style="stroke:#000000;stroke-width:1.0;stroke-dasharray:2.0,2.0;" x1="10" x2="2025" y1="278.9766" y2="278.9766"/><text fill="#000000" font-family="sans-serif" font-size="11" font-weight="bold" lengthAdjust="spacing" textLength="118" x="15" y="290.3955">[Coordinador guarda]</text><polygon fill="#181818" points="337.5,312.1641,347.5,316.1641,337.5,320.1641,341.5,316.1641" style="stroke:#181818;stroke-width:1.0;"/><line style="stroke:#181818;stroke-width:1.0;" x1="82.5" x2="343.5" y1="316.1641" y2="316.1641"/><text fill="#000000" font-family="sans-serif" font-size="13" lengthAdjust="spacing" textLength="143" x="89.5" y="311.3076">Introduce datos y guarda</text><polygon fill="#181818" points="574.5,358.8672,584.5,362.8672,574.5,366.8672,578.5,362.8672" style="stroke:#181818;stroke-width:1.0;"/><line style="stroke:#181818;stroke-width:1.0;" x1="359.5" x2="580.5" y1="362.8672" y2="362.8672"/><text fill="#000000" font-family="sans-serif" font-size="13" lengthAdjust="spacing" textLength="146" x="366.5" y="341.6592">POST /api/investigadores</text><text fill="#000000" font-family="sans-serif" font-size="13" lengthAdjust="spacing" textLength="208" x="366.5" y="358.0107">InvestigadorCreateRequest + cookie</text><polygon fill="#181818" points="812.5,389.2188,822.5,393.2188,812.5,397.2188,816.5,393.2188" style="stroke:#181818;stroke-width:1.0;"/><line style="stroke:#181818;stroke-width:1.0;" x1="596.5" x2="818.5" y1="393.2188" y2="393.2188"/><text fill="#000000" font-family="sans-serif" font-size="13" lengthAdjust="spacing" textLength="209" x="603.5" y="388.3623">obtenerSesionActual(authentication)</text><path d="M20,408.2188 L81,408.2188 L81,416.5703 L71,426.5703 L20,426.5703 L20,408.2188 " fill="#EEEEEE" style="stroke:#000000;stroke-width:1.5;"/><rect fill="none" height="950.9219" style="stroke:#000000;stroke-width:1.5;" width="1995" x="20" y="408.2188"/><text fill="#000000" font-family="sans-serif" font-size="13" font-weight="bold" lengthAdjust="spacing" textLength="16" x="35" y="422.7139">alt</text><text fill="#000000" font-family="sans-serif" font-size="11" font-weight="bold" lengthAdjust="spacing" textLength="80" x="96" y="421.6377">[Sesion valida]</text><polygon fill="#181818" points="607.5,444.9219,597.5,448.9219,607.5,452.9219,603.5,448.9219" style="stroke:#181818;stroke-width:1.0;"/><line style="stroke:#181818;stroke-width:1.0;stroke-dasharray:2.0,2.0;" x1="601.5" x2="828.5" y1="448.9219" y2="448.9219"/><text fill="#000000" font-family="sans-serif" font-size="13" lengthAdjust="spacing" textLength="170" x="613.5" y="444.0654">SesionResponse(usuario, rol)</text><polygon fill="#181818" points="943.5,475.2734,953.5,479.2734,943.5,483.2734,947.5,479.2734" style="stroke:#181818;stroke-width:1.0;"/><line style="stroke:#181818;stroke-width:1.0;" x1="596.5" x2="949.5" y1="479.2734" y2="479.2734"/><text fill="#000000" font-family="sans-serif" font-size="13" lengthAdjust="spacing" textLength="115" x="603.5" y="474.417">crear(sesion, datos)</text><polygon fill="#181818" points="1201.5,505.625,1211.5,509.625,1201.5,513.625,1205.5,509.625" style="stroke:#181818;stroke-width:1.0;"/><line style="stroke:#181818;stroke-width:1.0;" x1="965.5" x2="1207.5" y1="509.625" y2="509.625"/><text fill="#000000" font-family="sans-serif" font-size="13" lengthAdjust="spacing" textLength="211" x="972.5" y="504.7686">findByNombreUsuario(datos.usuario)</text><polygon fill="#181818" points="1933.5,535.9766,1943.5,539.9766,1933.5,543.9766,1937.5,539.9766" style="stroke:#181818;stroke-width:1.0;"/><line style="stroke:#181818;stroke-width:1.0;" x1="1213.5" x2="1939.5" y1="539.9766" y2="539.9766"/><text fill="#000000" font-family="sans-serif" font-size="13" lengthAdjust="spacing" textLength="326" x="1220.5" y="535.1201">SELECT * FROM usuarios WHERE nombre_usuario = ?</text><polygon fill="#181818" points="1224.5,566.3281,1214.5,570.3281,1224.5,574.3281,1220.5,570.3281" style="stroke:#181818;stroke-width:1.0;"/><line style="stroke:#181818;stroke-width:1.0;stroke-dasharray:2.0,2.0;" x1="1218.5" x2="1944.5" y1="570.3281" y2="570.3281"/><text fill="#000000" font-family="sans-serif" font-size="13" lengthAdjust="spacing" textLength="150" x="1230.5" y="565.4717">Resultado de persistencia</text><polygon fill="#181818" points="976.5,596.6797,966.5,600.6797,976.5,604.6797,972.5,600.6797" style="stroke:#181818;stroke-width:1.0;"/><line style="stroke:#181818;stroke-width:1.0;stroke-dasharray:2.0,2.0;" x1="970.5" x2="1212.5" y1="600.6797" y2="600.6797"/><text fill="#000000" font-family="sans-serif" font-size="13" lengthAdjust="spacing" textLength="85" x="982.5" y="595.8232">Usuario / vacio</text><polygon fill="#181818" points="1201.5,627.0313,1211.5,631.0313,1201.5,635.0313,1205.5,631.0313" style="stroke:#181818;stroke-width:1.0;"/><line style="stroke:#181818;stroke-width:1.0;" x1="965.5" x2="1207.5" y1="631.0313" y2="631.0313"/><text fill="#000000" font-family="sans-serif" font-size="13" lengthAdjust="spacing" textLength="224" x="972.5" y="626.1748">existsByEmailIgnoreCase(datos.email)</text><polygon fill="#181818" points="1933.5,657.3828,1943.5,661.3828,1933.5,665.3828,1937.5,661.3828" style="stroke:#181818;stroke-width:1.0;"/><line style="stroke:#181818;stroke-width:1.0;" x1="1213.5" x2="1939.5" y1="661.3828" y2="661.3828"/><text fill="#000000" font-family="sans-serif" font-size="13" lengthAdjust="spacing" textLength="485" x="1220.5" y="656.5264">SELECT EXISTS(SELECT 1 FROM usuarios WHERE LOWER(email) = LOWER(?))</text><polygon fill="#181818" points="1224.5,687.7344,1214.5,691.7344,1224.5,695.7344,1220.5,691.7344" style="stroke:#181818;stroke-width:1.0;"/><line style="stroke:#181818;stroke-width:1.0;stroke-dasharray:2.0,2.0;" x1="1218.5" x2="1944.5" y1="691.7344" y2="691.7344"/><text fill="#000000" font-family="sans-serif" font-size="13" lengthAdjust="spacing" textLength="150" x="1230.5" y="686.8779">Resultado de persistencia</text><polygon fill="#181818" points="976.5,718.0859,966.5,722.0859,976.5,726.0859,972.5,722.0859" style="stroke:#181818;stroke-width:1.0;"/><line style="stroke:#181818;stroke-width:1.0;stroke-dasharray:2.0,2.0;" x1="970.5" x2="1212.5" y1="722.0859" y2="722.0859"/><text fill="#000000" font-family="sans-serif" font-size="13" lengthAdjust="spacing" textLength="61" x="982.5" y="717.2295">true / false</text><path d="M30,737.0859 L91,737.0859 L91,745.4375 L81,755.4375 L30,755.4375 L30,737.0859 " fill="#EEEEEE" style="stroke:#000000;stroke-width:1.5;"/><rect fill="none" height="508.1641" style="stroke:#000000;stroke-width:1.5;" width="1975" x="30" y="737.0859"/><text fill="#000000" font-family="sans-serif" font-size="13" font-weight="bold" lengthAdjust="spacing" textLength="16" x="45" y="751.5811">alt</text><text fill="#000000" font-family="sans-serif" font-size="11" font-weight="bold" lengthAdjust="spacing" textLength="163" x="106" y="750.5049">[Usuario o correo duplicados]</text><polygon fill="#181818" points="607.5,773.7891,597.5,777.7891,607.5,781.7891,603.5,777.7891" style="stroke:#181818;stroke-width:1.0;"/><line style="stroke:#181818;stroke-width:1.0;stroke-dasharray:2.0,2.0;" x1="601.5" x2="959.5" y1="777.7891" y2="777.7891"/><text fill="#000000" font-family="sans-serif" font-size="13" lengthAdjust="spacing" textLength="118" x="613.5" y="772.9326">ValidacionException</text><polygon fill="#181818" points="370.5,804.1406,360.5,808.1406,370.5,812.1406,366.5,808.1406" style="stroke:#181818;stroke-width:1.0;"/><line style="stroke:#181818;stroke-width:1.0;stroke-dasharray:2.0,2.0;" x1="364.5" x2="590.5" y1="808.1406" y2="808.1406"/><text fill="#000000" font-family="sans-serif" font-size="13" lengthAdjust="spacing" textLength="100" x="376.5" y="803.2842">400 Bad Request</text><polygon fill="#181818" points="93.5,834.4922,83.5,838.4922,93.5,842.4922,89.5,838.4922" style="stroke:#181818;stroke-width:1.0;"/><line style="stroke:#181818;stroke-width:1.0;stroke-dasharray:2.0,2.0;" x1="87.5" x2="348.5" y1="838.4922" y2="838.4922"/><text fill="#000000" font-family="sans-serif" font-size="13" lengthAdjust="spacing" textLength="222" x="99.5" y="833.6357">Presenta errores y conserva formulario</text><line style="stroke:#000000;stroke-width:1.0;stroke-dasharray:2.0,2.0;" x1="30" x2="2005" y1="847.4922" y2="847.4922"/><text fill="#000000" font-family="sans-serif" font-size="11" font-weight="bold" lengthAdjust="spacing" textLength="81" x="35" y="858.9111">[Datos validos]</text><polygon fill="#181818" points="1201.5,880.6797,1211.5,884.6797,1201.5,888.6797,1205.5,884.6797" style="stroke:#181818;stroke-width:1.0;"/><line style="stroke:#181818;stroke-width:1.0;" x1="960.5" x2="1207.5" y1="884.6797" y2="884.6797"/><text fill="#000000" font-family="sans-serif" font-size="13" lengthAdjust="spacing" textLength="144" x="967.5" y="879.8232">save(usuarioInvestigador)</text><polygon fill="#181818" points="1933.5,927.3828,1943.5,931.3828,1933.5,935.3828,1937.5,931.3828" style="stroke:#181818;stroke-width:1.0;"/><line style="stroke:#181818;stroke-width:1.0;" x1="1213.5" x2="1939.5" y1="931.3828" y2="931.3828"/><text fill="#000000" font-family="sans-serif" font-size="13" lengthAdjust="spacing" textLength="490" x="1220.5" y="910.1748">INSERT INTO usuarios (nombre_usuario, nombre_completo, correo, sede, rol, activo)</text><text fill="#000000" font-family="sans-serif" font-size="13" lengthAdjust="spacing" textLength="254" x="1220.5" y="926.5264">VALUES (?, ?, ?, ?, 'INVESTIGADOR', true)</text><polygon fill="#181818" points="1224.5,957.7344,1214.5,961.7344,1224.5,965.7344,1220.5,961.7344" style="stroke:#181818;stroke-width:1.0;"/><line style="stroke:#181818;stroke-width:1.0;stroke-dasharray:2.0,2.0;" x1="1218.5" x2="1944.5" y1="961.7344" y2="961.7344"/><text fill="#000000" font-family="sans-serif" font-size="13" lengthAdjust="spacing" textLength="150" x="1230.5" y="956.8779">Resultado de persistencia</text><polygon fill="#181818" points="971.5,988.0859,961.5,992.0859,971.5,996.0859,967.5,992.0859" style="stroke:#181818;stroke-width:1.0;"/><line style="stroke:#181818;stroke-width:1.0;stroke-dasharray:2.0,2.0;" x1="965.5" x2="1212.5" y1="992.0859" y2="992.0859"/><text fill="#000000" font-family="sans-serif" font-size="13" lengthAdjust="spacing" textLength="87" x="977.5" y="987.2295">Usuario creado</text><polygon fill="#181818" points="1361.5,1018.4375,1371.5,1022.4375,1361.5,1026.4375,1365.5,1022.4375" style="stroke:#181818;stroke-width:1.0;"/><line style="stroke:#181818;stroke-width:1.0;" x1="960.5" x2="1367.5" y1="1022.4375" y2="1022.4375"/><text fill="#000000" font-family="sans-serif" font-size="13" lengthAdjust="spacing" textLength="99" x="967.5" y="1017.5811">save(cargaInicial)</text><polygon fill="#181818" points="1933.5,1065.1406,1943.5,1069.1406,1933.5,1073.1406,1937.5,1069.1406" style="stroke:#181818;stroke-width:1.0;"/><line style="stroke:#181818;stroke-width:1.0;" x1="1373.5" x2="1939.5" y1="1069.1406" y2="1069.1406"/><text fill="#000000" font-family="sans-serif" font-size="13" lengthAdjust="spacing" textLength="459" x="1380.5" y="1047.9326">INSERT INTO cargas_trabajo (usuario_id, horas_docencia, horas_investigacion,</text><text fill="#000000" font-family="sans-serif" font-size="13" lengthAdjust="spacing" textLength="548" x="1380.5" y="1064.2842">horas_gestion_academica, fecha_actualizacion) VALUES (?, ?, ?, ?, CURRENT_TIMESTAMP)</text><polygon fill="#181818" points="1384.5,1095.4922,1374.5,1099.4922,1384.5,1103.4922,1380.5,1099.4922" style="stroke:#181818;stroke-width:1.0;"/><line style="stroke:#181818;stroke-width:1.0;stroke-dasharray:2.0,2.0;" x1="1378.5" x2="1944.5" y1="1099.4922" y2="1099.4922"/><text fill="#000000" font-family="sans-serif" font-size="13" lengthAdjust="spacing" textLength="150" x="1390.5" y="1094.6357">Resultado de persistencia</text><polygon fill="#181818" points="971.5,1125.8438,961.5,1129.8438,971.5,1133.8438,967.5,1129.8438" style="stroke:#181818;stroke-width:1.0;"/><line style="stroke:#181818;stroke-width:1.0;stroke-dasharray:2.0,2.0;" x1="965.5" x2="1372.5" y1="1129.8438" y2="1129.8438"/><text fill="#000000" font-family="sans-serif" font-size="13" lengthAdjust="spacing" textLength="119" x="977.5" y="1124.9873">CargaTrabajo creada</text><polygon fill="#181818" points="602.5,1156.1953,592.5,1160.1953,602.5,1164.1953,598.5,1160.1953" style="stroke:#181818;stroke-width:1.0;"/><line style="stroke:#181818;stroke-width:1.0;stroke-dasharray:2.0,2.0;" x1="596.5" x2="959.5" y1="1160.1953" y2="1160.1953"/><text fill="#000000" font-family="sans-serif" font-size="13" lengthAdjust="spacing" textLength="166" x="608.5" y="1155.3389">InvestigadorDetalleResponse</text><polygon fill="#181818" points="370.5,1202.8984,360.5,1206.8984,370.5,1210.8984,366.5,1206.8984" style="stroke:#181818;stroke-width:1.0;"/><line style="stroke:#181818;stroke-width:1.0;stroke-dasharray:2.0,2.0;" x1="364.5" x2="590.5" y1="1206.8984" y2="1206.8984"/><text fill="#000000" font-family="sans-serif" font-size="13" lengthAdjust="spacing" textLength="70" x="376.5" y="1185.6904">201 Created</text><text fill="#000000" font-family="sans-serif" font-size="13" lengthAdjust="spacing" textLength="111" x="376.5" y="1202.042">Investigador creado</text><polygon fill="#181818" points="93.5,1233.25,83.5,1237.25,93.5,1241.25,89.5,1237.25" style="stroke:#181818;stroke-width:1.0;"/><line style="stroke:#181818;stroke-width:1.0;stroke-dasharray:2.0,2.0;" x1="87.5" x2="348.5" y1="1237.25" y2="1237.25"/><text fill="#000000" font-family="sans-serif" font-size="13" lengthAdjust="spacing" textLength="215" x="99.5" y="1232.3936">Presenta INVESTIGADOR_ABIERTO</text><line style="stroke:#000000;stroke-width:1.0;stroke-dasharray:2.0,2.0;" x1="20" x2="2015" y1="1253.25" y2="1253.25"/><text fill="#000000" font-family="sans-serif" font-size="11" font-weight="bold" lengthAdjust="spacing" textLength="148" x="25" y="1264.6689">[Sesion ausente o invalida]</text><polygon fill="#181818" points="602.5,1286.4375,592.5,1290.4375,602.5,1294.4375,598.5,1290.4375" style="stroke:#181818;stroke-width:1.0;"/><line style="stroke:#181818;stroke-width:1.0;stroke-dasharray:2.0,2.0;" x1="596.5" x2="828.5" y1="1290.4375" y2="1290.4375"/><text fill="#000000" font-family="sans-serif" font-size="13" lengthAdjust="spacing" textLength="150" x="608.5" y="1285.5811">SesionNoValidaException</text><polygon fill="#181818" points="370.5,1316.7891,360.5,1320.7891,370.5,1324.7891,366.5,1320.7891" style="stroke:#181818;stroke-width:1.0;"/><line style="stroke:#181818;stroke-width:1.0;stroke-dasharray:2.0,2.0;" x1="364.5" x2="590.5" y1="1320.7891" y2="1320.7891"/><text fill="#000000" font-family="sans-serif" font-size="13" lengthAdjust="spacing" textLength="101" x="376.5" y="1315.9326">401 Unauthorized</text><polygon fill="#181818" points="93.5,1347.1406,83.5,1351.1406,93.5,1355.1406,89.5,1351.1406" style="stroke:#181818;stroke-width:1.0;"/><line style="stroke:#181818;stroke-width:1.0;stroke-dasharray:2.0,2.0;" x1="87.5" x2="348.5" y1="1351.1406" y2="1351.1406"/><text fill="#000000" font-family="sans-serif" font-size="13" lengthAdjust="spacing" textLength="146" x="99.5" y="1346.2842">Presenta error de acceso</text><!--SRC=[hLPjR-Cs3FwUNq7qooMRkxR3VIgmA_BYsmoqIM6dlNqe4AWocsfp94-IW-lz-b6IxTXjqlPmP-HD34c93n-Iii8M23F1rffj6EG81dc5aWi6np3Lo3G8kKLZnPhbIWy6Z5kbOQgKpeNqef9fAxWecRHmb7IKqLopDTx9OOfaDJe2Pk2pLjAYp0zRJKb1gw90JPPPgOLSmqIfsdvSYhvfXaOecQ7U2evU9KWERz3NzR_xoZUcObge54jb14Nxv5NTigytPNhDbfhTit-UA_k_l4NEB2aOXAE9-oI4PymguxLcay6WWoGSVshnEOTC5RIJPS1VPe7W55jcSGTdymEEoKd7vpbSKnvGafy7fJTLuI9pfs25PGFww2e3Pv9ZmGP0py63JOEIFnTtI3ljm_jJFWsXp22PtyRPClbpF5kaSROQJv8uNIwo0HQ4ItUtDS6Vlt68n94ahpWXwk24fwxLxZ2V7648WqMsX1DMYXFHu-UTx36F0hAOudyLYU1Nu4hzAz1xR05t_7C2-dRU0zVEGTtJVgZ3SinjnOeXg-mZ0IyuioGSzVtK9FKoIa9OmfOLeex1FRNqk0aZh5CqfSDqM0MUHa3bCcgDSjotIU_CdlFdWLX3uvMYWEFEJST9A97TeVpQUN84FuS78VF9qrnjxZNMfJFqpdwh3xXpwWoSuMn2mSINyNG9ly3dT745jQg1Bt_5QGpIUrlLKlW3BbeViua79EnDM5H4vDnJkaHjXB6-UptRiXjsVKOu8RY9luS3mw_apKoUuWqJHRAMn9WfrN0T73hfgw75VoVPCXlMgxEzWLukliJfCFYYCCFoOZJwUU5QNI75-i2ep7RP9SurE2WYkjP8FgkIMWvvDwrU3vU6XhUUfQxquwySIzlbs0i6zidJqh1Np1zFJs72SgXBxv2pflQQvnqz3xLsTKxjWJTjQDS6MsU-0_cs72hm401D6WpRjjNNRI3xsP3CCsfqzBLSxB8_x3CyQXZFrQOiq98W92MYWPoZB_4erAGQtSdRyULDdC7m8eBszQ7RNpz4Fk-ZNXpVIQNNgySrZrmTmgcTVpLOtAqJIGEDTMgcrTe7bJSnAnlcApHuhqGUmQFIz5Ukk3znisvxkwDcT2U3TEraIguOCHitnEy87f0_CXAuDYs-UVKHxCDqUfEcyNovMYPN1Etuwdele9rWtuTg9-ukjDtxHC2NlLw8NUxDq3AwD3N3uSSAylVJCmZJCE-Fo7rf_x4AxRAskHFi2fDkDcs1rjEGLSuGgMrHljypB-SgDAoNpUgDKVciHvt1ZNGpNMdn3VF16-6_jpdvknZdQ0AeBcBtxdXjFFqF]--></g></svg>