<?xml version="1.0" encoding="us-ascii" standalone="no"?><svg xmlns="http://www.w3.org/2000/svg" xmlns:xlink="http://www.w3.org/1999/xlink" contentStyleType="text/css" height="434px" preserveAspectRatio="none" style="width:1391px;height:434px;background:#FFFFFF;" version="1.1" viewBox="0 0 1391 434" width="1391px" zoomAndPan="magnify"><defs/><g><!--cluster editarEntregable--><g id="cluster_editarEntregable"><path d="M209.5,6 L338.5,6 A3.75,3.75 0 0 1 341,8.5 L348,29.6094 L663.5,29.6094 A2.5,2.5 0 0 1 666,32.1094 L666,424.5 A2.5,2.5 0 0 1 663.5,427 L209.5,427 A2.5,2.5 0 0 1 207,424.5 L207,8.5 A2.5,2.5 0 0 1 209.5,6 " fill="none" style="stroke:#000000;stroke-width:1.5;"/><line style="stroke:#000000;stroke-width:1.5;" x1="207" x2="348" y1="29.6094" y2="29.6094"/><text fill="#000000" font-family="sans-serif" font-size="14" font-weight="bold" lengthAdjust="spacing" textLength="128" x="211" y="22.5332">editarEntregable()</text></g><!--entity EditarEntregableView--><g id="elem_EditarEntregableView"><rect fill="#629EF9" height="37.6094" rx="2.5" ry="2.5" style="stroke:#181818;stroke-width:0.5;" width="155" x="494.5" y="42"/><text fill="#000000" font-family="sans-serif" font-size="14" lengthAdjust="spacing" textLength="135" x="504.5" y="66.5332">EditarEntregableView</text></g><!--entity EntregableController--><g id="elem_EntregableController"><rect fill="#B5BD68" height="37.6094" rx="2.5" ry="2.5" style="stroke:#181818;stroke-width:0.5;" width="151" x="252.5" y="158"/><text fill="#000000" font-family="sans-serif" font-size="14" lengthAdjust="spacing" textLength="131" x="262.5" y="182.5332">EntregableController</text></g><!--entity EntregableRepository--><g id="elem_EntregableRepository"><rect fill="#F2AC4E" height="37.6094" rx="2.5" ry="2.5" style="stroke:#181818;stroke-width:0.5;" width="157" x="343.5" y="274"/><text fill="#000000" font-family="sans-serif" font-size="14" lengthAdjust="spacing" textLength="137" x="353.5" y="298.5332">EntregableRepository</text></g><!--entity Entregable--><g id="elem_Entregable"><rect fill="#F2AC4E" height="37.6094" rx="2.5" ry="2.5" style="stroke:#181818;stroke-width:0.5;" width="89" x="377.5" y="373"/><text fill="#000000" font-family="sans-serif" font-size="14" lengthAdjust="spacing" textLength="69" x="387.5" y="397.5332">Entregable</text></g><!--entity EstadoEntrada--><g id="elem_EstadoEntrada"><rect fill="#CDEBA5" height="37.6094" rx="2.5" ry="2.5" style="stroke:#181818;stroke-width:0.5;" width="184" x="7" y="42"/><text fill="#000000" font-family="sans-serif" font-size="14" lengthAdjust="spacing" textLength="164" x="17" y="66.5332">:ENTREGABLE_ABIERTO</text></g><!--entity EstadoSalida--><g id="elem_EstadoSalida"><rect fill="#CDEBA5" height="37.6094" rx="2.5" ry="2.5" style="stroke:#181818;stroke-width:0.5;" width="184" x="682" y="158"/><text fill="#000000" font-family="sans-serif" font-size="14" lengthAdjust="spacing" textLength="164" x="692" y="182.5332">:ENTREGABLE_ABIERTO</text></g><!--entity AbrirEntregables--><g id="elem_AbrirEntregables"><rect fill="#CDEBA5" height="37.6094" rx="2.5" ry="2.5" style="stroke:#181818;stroke-width:0.5;" width="218" x="901" y="158"/><text fill="#000000" font-family="sans-serif" font-size="14" lengthAdjust="spacing" textLength="198" x="911" y="182.5332">:Collaboration AbrirEntregables</text></g><!--entity EliminarEntregable--><g id="elem_EliminarEntregable"><rect fill="#CDEBA5" height="37.6094" rx="2.5" ry="2.5" style="stroke:#181818;stroke-width:0.5;" width="231" x="1154.5" y="158"/><text fill="#000000" font-family="sans-serif" font-size="14" lengthAdjust="spacing" textLength="211" x="1164.5" y="182.5332">:Collaboration EliminarEntregable</text></g><!--link EstadoEntrada to EditarEntregableView--><g id="link_EstadoEntrada_EditarEntregableView"><path d="M191.04,61 C279.33,61 405.15,61 488.29,61 " fill="none" id="EstadoEntrada-to-EditarEntregableView" style="stroke:#181818;stroke-width:1.0;"/><polygon fill="#181818" points="494.29,61,485.29,57,489.29,61,485.29,65,494.29,61" style="stroke:#181818;stroke-width:1.0;"/><text fill="#000000" font-family="sans-serif" font-size="13" lengthAdjust="spacing" textLength="102" x="291.75" y="54.4951">editarEntregable()</text></g><!--link EditarEntregableView to EntregableController--><g id="link_EditarEntregableView_EntregableController"><path d="M494.46,77.25 C423.01,91.31 328,110 328,110 C328,110 328,132.42 328,151.97 " fill="none" id="EditarEntregableView-to-EntregableController" style="stroke:#181818;stroke-width:1.0;"/><polygon fill="#181818" points="328,157.97,332,148.97,328,152.97,324,148.97,328,157.97" style="stroke:#181818;stroke-width:1.0;"/><text fill="#000000" font-family="sans-serif" font-size="13" lengthAdjust="spacing" textLength="320" x="329" y="124.4951">editarEntregablePropio(id, datos, archivo?, investigador)</text></g><!--link EntregableController to EntregableRepository--><g id="link_EntregableController_EntregableRepository"><path d="M300.4,196.15 C279.73,209.74 255,226 255,226 C255,226 255,244 255,244 C255,244 306.1834,258.7127 353.5734,272.3327 " fill="none" id="EntregableController-to-EntregableRepository" style="stroke:#181818;stroke-width:1.0;"/><polygon fill="#181818" points="359.34,273.99,351.795,267.6596,354.5345,272.6089,349.5853,275.3484,359.34,273.99" style="stroke:#181818;stroke-width:1.0;"/><text fill="#000000" font-family="sans-serif" font-size="13" lengthAdjust="spacing" textLength="242" x="256" y="240.4951">obtenerActivoPorIdYAutor(id, investigador)</text></g><!--link EntregableController to EntregableRepository--><g id="link_EntregableController_EntregableRepository"><path d="M393.66,196.01 C443.32,209.63 503,226 503,226 C503,226 503,244 503,244 C503,244 480.7222,257.2019 457.7822,270.7919 " fill="none" id="EntregableController-to-EntregableRepository-1" style="stroke:#181818;stroke-width:1.0;"/><polygon fill="#181818" points="452.62,273.85,462.402,272.7042,456.9218,271.3016,458.3245,265.8214,452.62,273.85" style="stroke:#181818;stroke-width:1.0;"/><text fill="#000000" font-family="sans-serif" font-size="13" lengthAdjust="spacing" textLength="106" x="504" y="240.4951">actualizar(entidad)</text></g><!--link EntregableRepository to Entregable--><g id="link_EntregableRepository_Entregable"><path d="M422,312.24 C422,329.59 422,355.52 422,372.84 " fill="none" id="EntregableRepository-Entregable" style="stroke:#181818;stroke-width:1.0;"/></g><!--link EditarEntregableView to EstadoSalida--><g id="link_EditarEntregableView_EstadoSalida"><path d="M604.51,80.15 C628.87,93.74 658,110 658,110 C658,110 702.7458,135.4515 737.0858,155.0015 " fill="none" id="EditarEntregableView-to-EstadoSalida" style="stroke:#181818;stroke-width:1.0;stroke-dasharray:7.0,7.0;"/><polygon fill="#181818" points="742.3,157.97,736.4577,150.0411,737.9548,155.4963,732.4997,156.9934,742.3,157.97" style="stroke:#181818;stroke-width:1.0;"/><text fill="#000000" font-family="sans-serif" font-size="13" lengthAdjust="spacing" textLength="127" x="690" y="124.4951">continuarNavegacion()</text></g><!--link EditarEntregableView to AbrirEntregables--><g id="link_EditarEntregableView_AbrirEntregables"><path d="M649.59,76.66 C724.29,90.78 826,110 826,110 C826,110 899.5926,136.3934 954.0726,155.9434 " fill="none" id="EditarEntregableView-to-AbrirEntregables" style="stroke:#181818;stroke-width:1.0;stroke-dasharray:7.0,7.0;"/><polygon fill="#181818" points="959.72,157.97,952.5999,151.1652,955.0138,156.2812,949.8979,158.6951,959.72,157.97" style="stroke:#181818;stroke-width:1.0;"/><text fill="#000000" font-family="sans-serif" font-size="13" lengthAdjust="spacing" textLength="102" x="876" y="124.4951">abrirEntregables()</text></g><!--link EditarEntregableView to EliminarEntregable--><g id="link_EditarEntregableView_EliminarEntregable"><path d="M649.57,70.97 C769.69,84.87 987,110 987,110 C987,110 1103.0369,137.0567 1186.8269,156.6067 " fill="none" id="EditarEntregableView-to-EliminarEntregable" style="stroke:#181818;stroke-width:1.0;stroke-dasharray:7.0,7.0;"/><polygon fill="#181818" points="1192.67,157.97,1184.8143,152.0297,1187.8008,156.8339,1182.9965,159.8204,1192.67,157.97" style="stroke:#181818;stroke-width:1.0;"/><text fill="#000000" font-family="sans-serif" font-size="13" lengthAdjust="spacing" textLength="115" x="1063" y="124.4951">eliminarEntregable()</text></g><!--SRC=[fL9DJy904BttLqpg1HBAWGWH3fXI5qDYq20nyMIctKtTK7QRwO91utztm0EbhH_HFNLVtxoPVM-AbJOv4guXqqQvNQuWjzbkV_4yKeb3asOApg8hCGdxu8_4VBaGr-7aHZo5avbOB6zzm094uL1QOHoXH2_7P8Mf0YMrGzgZAiMOTPZfLy5MsuSt3_YK-WrwGp4TWgXm7xHwgLBZVYm75t0aHPO_RPOfgbAdlJ0w5oNgGkMsqCxIxaUgz_u7G-unq-n7Krt44s9i2Pss1iAOTEcTnK6Z2lv2HsHwhKtPiizfQh3ddKG60GNZHhj7K0-CYnkO4CYzHaCETOqxihcsBIqx8D7PeWD8oRFUsiiEQBDLXTCfJqTjhqaFWfD6nnH7O6EdZA8mSInsPsac7yCD_pgq-fSo9cx3SRuYjPHn7AiiInoPB55UcqQdkjtnoOQC8E4HjDaWpN7Bn8J3P9-_BAwk1ezNGRwhhgy39rJ3ME43]--></g></svg>