<svg xmlns="http://www.w3.org/2000/svg" xmlns:xlink="http://www.w3.org/1999/xlink" contentStyleType="text/css" data-diagram-type="DESCRIPTION" height="558px" preserveAspectRatio="none" style="width:1782px;height:558px;background:#FFFFFF;" version="1.1" viewBox="0 0 1782 558" width="1782px" zoomAndPan="magnify"><?plantuml 1.2026.6?><defs/><g><!--cluster editarEntregable--><g class="cluster" data-qualified-name="editarEntregable" data-source-line="4" id="ent0002"><path d="M213,6 L333.7998,6 A3.75,3.75 0 0 1 336.2998,8.5 L343.2998,29.6094 L1049,29.6094 A2.5,2.5 0 0 1 1051.5,32.1094 L1051.5,540.5 A2.5,2.5 0 0 1 1049,543 L213,543 A2.5,2.5 0 0 1 210.5,540.5 L210.5,8.5 A2.5,2.5 0 0 1 213,6" fill="none" style="stroke:#000000;stroke-width:1.5;"/><line style="stroke:#000000;stroke-width:1.5;" x1="210.5" x2="343.2998" y1="29.6094" y2="29.6094"/><text fill="#000000" font-family="sans-serif" font-size="14" font-weight="700" lengthAdjust="spacing" textLength="119.7998" x="214.5" y="22.5332">editarEntregable()</text></g><!--entity EditarEntregableView--><g class="entity" data-qualified-name="editarEntregable.EditarEntregableView" data-source-line="5" id="ent0003"><rect fill="#629EF9" height="37.6094" rx="2.5" ry="2.5" style="stroke:#181818;stroke-width:0.5;" width="154.6338" x="880" y="42"/><text fill="#000000" font-family="sans-serif" font-size="14" lengthAdjust="spacing" textLength="134.6338" x="890" y="66.5332">EditarEntregableView</text></g><!--entity EntregableController--><g class="entity" data-qualified-name="editarEntregable.EntregableController" data-source-line="6" id="ent0004"><rect fill="#B5BD68" height="37.6094" rx="2.5" ry="2.5" style="stroke:#181818;stroke-width:0.5;" width="148.4063" x="635.5" y="158"/><text fill="#000000" font-family="sans-serif" font-size="14" lengthAdjust="spacing" textLength="128.4063" x="645.5" y="182.5332">EntregableController</text></g><!--entity EntregableService--><g class="entity" data-qualified-name="editarEntregable.EntregableService" data-source-line="7" id="ent0005"><rect fill="#B5BD68" height="37.6094" rx="2.5" ry="2.5" style="stroke:#181818;stroke-width:0.5;" width="134.3994" x="467.5" y="274"/><text fill="#000000" font-family="sans-serif" font-size="14" lengthAdjust="spacing" textLength="114.3994" x="477.5" y="298.5332">EntregableService</text></g><!--entity SesionService--><g class="entity" data-qualified-name="editarEntregable.SesionService" data-source-line="8" id="ent0006"><rect fill="#B5BD68" height="37.6094" rx="2.5" ry="2.5" style="stroke:#181818;stroke-width:0.5;" width="109.4893" x="770" y="274"/><text fill="#000000" font-family="sans-serif" font-size="14" lengthAdjust="spacing" textLength="89.4893" x="780" y="298.5332">SesionService</text></g><!--entity EntregableRepository--><g class="entity" data-qualified-name="editarEntregable.EntregableRepository" data-source-line="9" id="ent0007"><rect fill="#F2AC4E" height="37.6094" rx="2.5" ry="2.5" style="stroke:#181818;stroke-width:0.5;" width="154.6338" x="334" y="390"/><text fill="#000000" font-family="sans-serif" font-size="14" lengthAdjust="spacing" textLength="134.6338" x="344" y="414.5332">EntregableRepository</text></g><!--entity ArchivoRepository--><g class="entity" data-qualified-name="editarEntregable.ArchivoRepository" data-source-line="10" id="ent0008"><rect fill="#F2AC4E" height="37.6094" rx="2.5" ry="2.5" style="stroke:#181818;stroke-width:0.5;" width="133.5996" x="630.5" y="390"/><text fill="#000000" font-family="sans-serif" font-size="14" lengthAdjust="spacing" textLength="113.5996" x="640.5" y="414.5332">ArchivoRepository</text></g><!--entity Entregable--><g class="entity" data-qualified-name="editarEntregable.Entregable" data-source-line="11" id="ent0009"><rect fill="#F2AC4E" height="37.6094" rx="2.5" ry="2.5" style="stroke:#181818;stroke-width:0.5;" width="87.7168" x="367.5" y="489"/><text fill="#000000" font-family="sans-serif" font-size="14" lengthAdjust="spacing" textLength="67.7168" x="377.5" y="513.5332">Entregable</text></g><!--entity ArchivoAdjunto--><g class="entity" data-qualified-name="editarEntregable.ArchivoAdjunto" data-source-line="12" id="ent0010"><rect fill="#F2AC4E" height="37.6094" rx="2.5" ry="2.5" style="stroke:#181818;stroke-width:0.5;" width="114.165" x="640.5" y="489"/><text fill="#000000" font-family="sans-serif" font-size="14" lengthAdjust="spacing" textLength="94.165" x="650.5" y="513.5332">ArchivoAdjunto</text></g><!--entity EstadoEntrada--><g class="entity" data-qualified-name="EstadoEntrada" data-source-line="3" id="ent0001"><rect fill="#CDEBA5" height="37.6094" rx="2.5" ry="2.5" style="stroke:#181818;stroke-width:0.5;" width="187.2686" x="7" y="42"/><text fill="#000000" font-family="sans-serif" font-size="14" lengthAdjust="spacing" textLength="167.2686" x="17" y="66.5332">:ENTREGABLE_ABIERTO</text></g><!--entity EstadoSalida--><g class="entity" data-qualified-name="EstadoSalida" data-source-line="15" id="ent0011"><rect fill="#CDEBA5" height="37.6094" rx="2.5" ry="2.5" style="stroke:#181818;stroke-width:0.5;" width="187.2686" x="1068" y="158"/><text fill="#000000" font-family="sans-serif" font-size="14" lengthAdjust="spacing" textLength="167.2686" x="1078" y="182.5332">:ENTREGABLE_ABIERTO</text></g><!--entity AbrirEntregables--><g class="entity" data-qualified-name="AbrirEntregables" data-source-line="16" id="ent0012"><rect fill="#CDEBA5" height="37.6094" rx="2.5" ry="2.5" style="stroke:#181818;stroke-width:0.5;" width="214.5508" x="1290" y="158"/><text fill="#000000" font-family="sans-serif" font-size="14" lengthAdjust="spacing" textLength="194.5508" x="1300" y="182.5332">:Collaboration AbrirEntregables</text></g><!--entity EliminarEntregable--><g class="entity" data-qualified-name="EliminarEntregable" data-source-line="17" id="ent0013"><rect fill="#CDEBA5" height="37.6094" rx="2.5" ry="2.5" style="stroke:#181818;stroke-width:0.5;" width="228.5576" x="1540" y="158"/><text fill="#000000" font-family="sans-serif" font-size="14" lengthAdjust="spacing" textLength="208.5576" x="1550" y="182.5332">:Collaboration EliminarEntregable</text></g><!--link EstadoEntrada to EditarEntregableView--><g class="link" data-entity-1="ent0001" data-entity-2="ent0003" data-link-type="dependency" data-source-line="19" id="lnk14"><path d="M194.26,61 C364.62,61 716.92,61 874.73,61" fill="none" id="EstadoEntrada-to-EditarEntregableView" style="stroke:#181818;stroke-width:1;"/><polygon fill="#181818" points="879.73,61,870.73,57,874.73,61,870.73,65,879.73,61" style="stroke:#181818;stroke-width:1;stroke-linejoin:miter;stroke-miterlimit:10;"/><text fill="#000000" font-family="sans-serif" font-size="13" lengthAdjust="spacing" textLength="104.0571" x="485" y="54.4951">editarEntregable()</text></g><!--link EditarEntregableView to EntregableController--><g class="link" data-entity-1="ent0003" data-entity-2="ent0004" data-link-type="dependency" data-source-line="21" id="lnk15"><path d="M879.71,77.06 C806.98,91.13 709.5,110 709.5,110 C709.5,110 709.5,133.42 709.5,152.97" fill="none" id="EditarEntregableView-to-EntregableController" style="stroke:#181818;stroke-width:1;"/><polygon fill="#181818" points="709.5,157.97,713.5,148.97,709.5,152.97,705.5,148.97,709.5,157.97" style="stroke:#181818;stroke-width:1;stroke-linejoin:miter;stroke-miterlimit:10;"/><text fill="#000000" font-family="sans-serif" font-size="13" lengthAdjust="spacing" textLength="324.4604" x="710.5" y="124.4951">editarEntregablePropio(id, datos, archivo?, investigador)</text></g><!--link EntregableController to EntregableService--><g class="link" data-entity-1="ent0004" data-entity-2="ent0005" data-link-type="dependency" data-source-line="22" id="lnk16"><path d="M635.58,196.01 C579.68,209.63 512.5,226 512.5,226 C512.5,226 512.5,244 512.5,244 C512.5,244 517.8664,255.7148 524.0964,269.3048" fill="none" id="EntregableController-to-EntregableService" style="stroke:#181818;stroke-width:1;"/><polygon fill="#181818" points="526.18,273.85,526.0656,264.0018,524.0964,269.3048,518.7934,267.3356,526.18,273.85" style="stroke:#181818;stroke-width:1;stroke-linejoin:miter;stroke-miterlimit:10;"/><text fill="#000000" font-family="sans-serif" font-size="13" lengthAdjust="spacing" textLength="263.7261" x="513.5" y="240.4951">actualizar(id, cambios, archivo?, investigador)</text></g><!--link EntregableController to SesionService--><g class="link" data-entity-1="ent0004" data-entity-2="ent0006" data-link-type="dependency" data-source-line="23" id="lnk17"><path d="M738.23,196.15 C759.75,209.74 785.5,226 785.5,226 C785.5,226 799.7584,250.1142 811.2984,269.6642" fill="none" id="EntregableController-to-SesionService" style="stroke:#181818;stroke-width:1;"/><polygon fill="#181818" points="813.84,273.97,812.7097,264.1862,811.2984,269.6642,805.8204,268.2528,813.84,273.97" style="stroke:#181818;stroke-width:1;stroke-linejoin:miter;stroke-miterlimit:10;"/><text fill="#000000" font-family="sans-serif" font-size="13" lengthAdjust="spacing" textLength="209.5806" x="796.5" y="240.4951">obtenerSesionActual(authentication)</text></g><!--link EntregableService to EntregableRepository--><g class="link" data-entity-1="ent0005" data-entity-2="ent0007" data-link-type="dependency" data-source-line="24" id="lnk18"><path d="M467.34,305.68 C385.64,319.89 258.5,342 258.5,342 C258.5,342 258.5,360 258.5,360 C258.5,360 305.9093,374.8732 349.3193,388.4932" fill="none" id="EntregableService-to-EntregableRepository" style="stroke:#181818;stroke-width:1;"/><polygon fill="#181818" points="354.09,389.99,346.7002,383.4792,349.3193,388.4932,344.3053,391.1123,354.09,389.99" style="stroke:#181818;stroke-width:1;stroke-linejoin:miter;stroke-miterlimit:10;"/><text fill="#000000" font-family="sans-serif" font-size="13" lengthAdjust="spacing" textLength="246.4033" x="259.5" y="356.4951">obtenerActivoPorIdYAutor(id, investigador)</text></g><!--link EntregableService to EntregableRepository--><g class="link" data-entity-1="ent0005" data-entity-2="ent0007" data-link-type="dependency" data-source-line="25" id="lnk19"><path d="M527.94,312.03 C520.84,331.58 510.5,360 510.5,360 C510.5,360 481.239,374.1886 453.149,387.8086" fill="none" id="EntregableService-to-EntregableRepository-1" style="stroke:#181818;stroke-width:1;"/><polygon fill="#181818" points="448.65,389.99,458.4934,389.6626,453.149,387.8086,455.0031,382.4642,448.65,389.99" style="stroke:#181818;stroke-width:1;stroke-linejoin:miter;stroke-miterlimit:10;"/><text fill="#000000" font-family="sans-serif" font-size="13" lengthAdjust="spacing" textLength="106.9453" x="517.5" y="356.4951">actualizar(entidad)</text></g><!--link EntregableService to ArchivoRepository--><g class="link" data-entity-1="ent0005" data-entity-2="ent0008" data-link-type="dependency" data-source-line="26" id="lnk20"><path d="M571.27,312.01 C599.08,325.63 632.5,342 632.5,342 C632.5,342 656.9819,366.8572 676.2319,386.4072" fill="none" id="EntregableService-to-ArchivoRepository" style="stroke:#181818;stroke-width:1;"/><polygon fill="#181818" points="679.74,389.97,676.2756,380.7506,676.2319,386.4072,670.5752,386.3635,679.74,389.97" style="stroke:#181818;stroke-width:1;stroke-linejoin:miter;stroke-miterlimit:10;"/><text fill="#000000" font-family="sans-serif" font-size="13" lengthAdjust="spacing" textLength="336.7432" x="650.5" y="356.4951">agregarVersionOpcional(entregable, archivo, investigador)</text></g><!--link EntregableRepository to Entregable--><g class="link" data-entity-1="ent0007" data-entity-2="ent0009" data-link-type="association" data-source-line="27" id="lnk21"><path d="M411.5,428.24 C411.5,445.59 411.5,471.52 411.5,488.84" fill="none" id="EntregableRepository-Entregable" style="stroke:#181818;stroke-width:1;"/></g><!--link ArchivoRepository to ArchivoAdjunto--><g class="link" data-entity-1="ent0008" data-entity-2="ent0010" data-link-type="association" data-source-line="28" id="lnk22"><path d="M697.5,428.24 C697.5,445.59 697.5,471.52 697.5,488.84" fill="none" id="ArchivoRepository-ArchivoAdjunto" style="stroke:#181818;stroke-width:1;"/></g><!--link EditarEntregableView to EstadoSalida--><g class="link" data-entity-1="ent0003" data-entity-2="ent0011" data-link-type="dependency" data-source-line="29" id="lnk23"><path d="M990.01,80.15 C1014.37,93.74 1043.5,110 1043.5,110 C1043.5,110 1089.9566,135.9785 1124.8966,155.5285" fill="none" id="EditarEntregableView-to-EstadoSalida" style="stroke:#181818;stroke-width:1;stroke-dasharray:7,7;"/><polygon fill="#181818" points="1129.26,157.97,1123.359,150.0847,1124.8966,155.5285,1119.4527,157.0661,1129.26,157.97" style="stroke:#181818;stroke-width:1;stroke-linejoin:miter;stroke-miterlimit:10;"/><text fill="#000000" font-family="sans-serif" font-size="13" lengthAdjust="spacing" textLength="130.7935" x="1075.5" y="124.4951">continuarNavegacion()</text></g><!--link EditarEntregableView to AbrirEntregables--><g class="link" data-entity-1="ent0003" data-entity-2="ent0012" data-link-type="dependency" data-source-line="30" id="lnk24"><path d="M1035.31,76.53 C1110.95,90.66 1214.5,110 1214.5,110 C1214.5,110 1288.6068,136.7229 1342.7868,156.2729" fill="none" id="EditarEntregableView-to-AbrirEntregables" style="stroke:#181818;stroke-width:1;stroke-dasharray:7,7;"/><polygon fill="#181818" points="1347.49,157.97,1340.3819,151.1527,1342.7868,156.2729,1337.6666,158.6778,1347.49,157.97" style="stroke:#181818;stroke-width:1;stroke-linejoin:miter;stroke-miterlimit:10;"/><text fill="#000000" font-family="sans-serif" font-size="13" lengthAdjust="spacing" textLength="104.0444" x="1264.5" y="124.4951">abrirEntregables()</text></g><!--link EditarEntregableView to EliminarEntregable--><g class="link" data-entity-1="ent0003" data-entity-2="ent0013" data-link-type="dependency" data-source-line="31" id="lnk25"><path d="M1035.02,70.86 C1156.38,84.73 1377.5,110 1377.5,110 C1377.5,110 1491.9263,137.2607 1573.9463,156.8107" fill="none" id="EditarEntregableView-to-EliminarEntregable" style="stroke:#181818;stroke-width:1;stroke-dasharray:7,7;"/><polygon fill="#181818" points="1578.81,157.97,1570.9827,151.9923,1573.9463,156.8107,1569.1278,159.7742,1578.81,157.97" style="stroke:#181818;stroke-width:1;stroke-linejoin:miter;stroke-miterlimit:10;"/><text fill="#000000" font-family="sans-serif" font-size="13" lengthAdjust="spacing" textLength="117.0508" x="1452.5" y="124.4951">eliminarEntregable()</text></g><?plantuml-src dLDDQzj04BthLmpknG4xXv24HeSKsTcKG4c27G8zbP5sKBQHTyLevUAM_lUEv63B-eXBT33owCsRDpDlYbTZSsHSGMOi-KrEaBjiK_q90gR4eqqpWa_p6pMBBc0KglkdXVeQpRwf7z7iJYsU7aQ01QZ2etRAUaQDGOx9AwO4f8r7hgAKOYmyWXorW-EJ4Vm9G9v6lSkpAtLx1Qg5VJRqgmsDBs9z-HdseBcJLvTbn4UXI-ArIMW0jwJ2E3k0kJsBvkUgmRMWt1N6EzuCG2DENipQ7SNjATydYlJFqdeN_Ft0ffQO6LbKNzvSHeUnO_JIF4GncyO2YfgZ7VmF7fMPbR7DNMxLTC91SE0bcFBqkjS78NIT9CazI9ZgYgF785sEHtQvSMEZ9w3Hks82k9tsbmaOkwR2crJKyKdGnmVJWq9lrWa14r_An7yZrym9hcBp8Uu3IuRWOa-MU1kDwY9ZBFqBMM-IUl1DhhUqbiYz7tTymYIg7XtVwUzHAPzgrKCIZzCssg-KQTH3-PqRaUIqml4pSTNaGvx8hxH9k_pT68SbxlcaIlF0ElMgxwtxwhNKwUdrmIc5aCYcZ2sHxt4jm4gc678mkNr3qcWhybvszsx4ofsOCFm3?></g></svg>