<svg xmlns="http://www.w3.org/2000/svg" xmlns:xlink="http://www.w3.org/1999/xlink" contentStyleType="text/css" data-diagram-type="DESCRIPTION" height="442px" preserveAspectRatio="none" style="width:892px;height:442px;background:#FFFFFF;" version="1.1" viewBox="0 0 892 442" width="892px" zoomAndPan="magnify"><?plantuml 1.2026.4?><defs/><g><!--cluster eliminarMiPublicacion--><g class="cluster" data-qualified-name="eliminarMiPublicacion" data-source-line="4" id="ent0002"><path d="M253.5,6 L411.6377,6 A3.75,3.75 0 0 1 414.1377,8.5 L421.1377,29.6094 L612.5,29.6094 A2.5,2.5 0 0 1 615,32.1094 L615,424.5 A2.5,2.5 0 0 1 612.5,427 L253.5,427 A2.5,2.5 0 0 1 251,424.5 L251,8.5 A2.5,2.5 0 0 1 253.5,6" fill="none" style="stroke:#000000;stroke-width:1.5;"/><line style="stroke:#000000;stroke-width:1.5;" x1="251" x2="421.1377" y1="29.6094" y2="29.6094"/><text fill="#000000" font-family="sans-serif" font-size="14" font-weight="700" lengthAdjust="spacing" textLength="157.1377" x="255" y="22.5332">eliminarMiPublicacion()</text></g><!--entity EliminarPublicacionView--><g class="entity" data-qualified-name="eliminarMiPublicacion.EliminarPublicacionView" data-source-line="5" id="ent0003"><rect fill="#629EF9" height="37.6094" rx="2.5" ry="2.5" style="stroke:#181818;stroke-width:0.5;" width="172.5098" x="387.5" y="42"/><text fill="#000000" font-family="sans-serif" font-size="14" lengthAdjust="spacing" textLength="152.5098" x="397.5" y="66.5332">EliminarPublicacionView</text></g><!--entity PublicacionController--><g class="entity" data-qualified-name="eliminarMiPublicacion.PublicacionController" data-source-line="6" id="ent0004"><rect fill="#B5BD68" height="37.6094" rx="2.5" ry="2.5" style="stroke:#181818;stroke-width:0.5;" width="152.2891" x="314" y="158"/><text fill="#000000" font-family="sans-serif" font-size="14" lengthAdjust="spacing" textLength="132.2891" x="324" y="182.5332">PublicacionController</text></g><!--entity PublicacionRepository--><g class="entity" data-qualified-name="eliminarMiPublicacion.PublicacionRepository" data-source-line="7" id="ent0005"><rect fill="#F2AC4E" height="37.6094" rx="2.5" ry="2.5" style="stroke:#181818;stroke-width:0.5;" width="158.5166" x="323.5" y="274"/><text fill="#000000" font-family="sans-serif" font-size="14" lengthAdjust="spacing" textLength="138.5166" x="333.5" y="298.5332">PublicacionRepository</text></g><!--entity Publicacion--><g class="entity" data-qualified-name="eliminarMiPublicacion.Publicacion" data-source-line="8" id="ent0006"><rect fill="#F2AC4E" height="37.6094" rx="2.5" ry="2.5" style="stroke:#181818;stroke-width:0.5;" width="91.5996" x="357" y="373"/><text fill="#000000" font-family="sans-serif" font-size="14" lengthAdjust="spacing" textLength="71.5996" x="367" y="397.5332">Publicacion</text></g><!--entity EstadoEntrada--><g class="entity" data-qualified-name="EstadoEntrada" data-source-line="3" id="ent0001"><rect fill="#CDEBA5" height="37.6094" rx="2.5" ry="2.5" style="stroke:#181818;stroke-width:0.5;" width="209.8271" x="7" y="42"/><text fill="#000000" font-family="sans-serif" font-size="14" lengthAdjust="spacing" textLength="189.8271" x="17" y="66.5332">:MI_PUBLICACION_ABIERTA</text></g><!--entity EstadoSalida--><g class="entity" data-qualified-name="EstadoSalida" data-source-line="11" id="ent0007"><rect fill="#CDEBA5" height="37.6094" rx="2.5" ry="2.5" style="stroke:#181818;stroke-width:0.5;" width="247.1787" x="631.5" y="158"/><text fill="#000000" font-family="sans-serif" font-size="14" lengthAdjust="spacing" textLength="227.1787" x="641.5" y="182.5332">:MIS_PUBLICACIONES_ABIERTAS</text></g><!--link EstadoEntrada to EliminarPublicacionView--><g class="link" data-entity-1="ent0001" data-entity-2="ent0003" data-link-type="dependency" data-source-line="14" id="lnk8"><path d="M217.19,61 C271.26,61 331.34,61 382.46,61" fill="none" id="EstadoEntrada-to-EliminarPublicacionView" style="stroke:#181818;stroke-width:1;"/><polygon fill="#181818" points="387.46,61,378.46,57,382.46,61,378.46,65,387.46,61" style="stroke:#181818;stroke-width:1;stroke-linejoin:miter;stroke-miterlimit:10;"/><text fill="#000000" font-family="sans-serif" font-size="13" lengthAdjust="spacing" textLength="134.3735" x="235.25" y="54.4951">eliminarMiPublicacion()</text></g><!--link EliminarPublicacionView to PublicacionController--><g class="link" data-entity-1="ent0003" data-entity-2="ent0004" data-link-type="dependency" data-source-line="16" id="lnk9"><path d="M408.34,80.01 C358.68,93.63 299,110 299,110 C299,110 299,128 299,128 C299,128 325.6072,142.0379 351.4372,155.6579" fill="none" id="EliminarPublicacionView-to-PublicacionController" style="stroke:#181818;stroke-width:1;"/><polygon fill="#181818" points="355.86,157.99,349.7646,150.2539,351.4372,155.6579,346.0333,157.3304,355.86,157.99" style="stroke:#181818;stroke-width:1;stroke-linejoin:miter;stroke-miterlimit:10;"/><text fill="#000000" font-family="sans-serif" font-size="13" lengthAdjust="spacing" textLength="130.7744" x="300" y="124.4951">eliminarPublicacion(id)</text></g><!--link EliminarPublicacionView to PublicacionController--><g class="link" data-entity-1="ent0003" data-entity-2="ent0004" data-link-type="dependency" data-source-line="17" id="lnk10"><path d="M463.34,80.03 C451.8,99.58 435,128 435,128 C435,128 423.181,140.6136 410.431,154.2036" fill="none" id="EliminarPublicacionView-to-PublicacionController-1" style="stroke:#181818;stroke-width:1;"/><polygon fill="#181818" points="407.01,157.85,416.085,154.0233,410.431,154.2036,410.2507,148.5496,407.01,157.85" style="stroke:#181818;stroke-width:1;stroke-linejoin:miter;stroke-miterlimit:10;"/><text fill="#000000" font-family="sans-serif" font-size="13" lengthAdjust="spacing" textLength="123.5444" x="446" y="124.4951">validarEliminacion(id)</text></g><!--link PublicacionController to PublicacionRepository--><g class="link" data-entity-1="ent0004" data-entity-2="ent0005" data-link-type="dependency" data-source-line="18" id="lnk11"><path d="M363.91,196.15 C344.37,209.74 321,226 321,226 C321,226 321,244 321,244 C321,244 344.4647,257.7344 367.6847,271.3244" fill="none" id="PublicacionController-to-PublicacionRepository" style="stroke:#181818;stroke-width:1;"/><polygon fill="#181818" points="372,273.85,366.253,265.8517,367.6847,271.3244,362.2121,272.7561,372,273.85" style="stroke:#181818;stroke-width:1;stroke-linejoin:miter;stroke-miterlimit:10;"/><text fill="#000000" font-family="sans-serif" font-size="13" lengthAdjust="spacing" textLength="93.939" x="322" y="240.4951">obtenerPorId(id)</text></g><!--link PublicacionController to PublicacionRepository--><g class="link" data-entity-1="ent0004" data-entity-2="ent0005" data-link-type="dependency" data-source-line="19" id="lnk12"><path d="M401.34,196.15 C409.84,209.74 420,226 420,226 C420,226 420,244 420,244 C420,244 415.9083,255.5465 411.0983,269.1365" fill="none" id="PublicacionController-to-PublicacionRepository-1" style="stroke:#181818;stroke-width:1;"/><polygon fill="#181818" points="409.43,273.85,416.2037,266.7004,411.0983,269.1365,408.6621,264.0311,409.43,273.85" style="stroke:#181818;stroke-width:1;stroke-linejoin:miter;stroke-miterlimit:10;"/><text fill="#000000" font-family="sans-serif" font-size="13" lengthAdjust="spacing" textLength="64.2891" x="421" y="240.4951">eliminar(id)</text></g><!--link PublicacionRepository to Publicacion--><g class="link" data-entity-1="ent0005" data-entity-2="ent0006" data-link-type="association" data-source-line="20" id="lnk13"><path d="M403,312.24 C403,329.59 403,355.52 403,372.84" fill="none" id="PublicacionRepository-Publicacion" style="stroke:#181818;stroke-width:1;"/></g><!--link EliminarPublicacionView to EstadoSalida--><g class="link" data-entity-1="ent0003" data-entity-2="ent0007" data-link-type="dependency" data-source-line="21" id="lnk14"><path d="M518.53,80.06 C570.99,101.35 653.0169,134.6201 705.5869,155.9501" fill="none" id="EliminarPublicacionView-to-EstadoSalida" style="stroke:#181818;stroke-width:1;stroke-dasharray:7,7;"/><polygon fill="#181818" points="710.22,157.83,703.3842,150.7397,705.5869,155.9501,700.3764,158.1527,710.22,157.83" style="stroke:#181818;stroke-width:1;stroke-linejoin:miter;stroke-miterlimit:10;"/><text fill="#000000" font-family="sans-serif" font-size="13" lengthAdjust="spacing" textLength="130.7935" x="632" y="124.4951">continuarNavegacion()</text></g><?plantuml-src dP51Qy8m68Rl-HKVtMKUz21JPWz2sqKeJ5Vit5M-jg44OrBIwYXZ_trng4rBos2vXJplctnFoWEN1MeyWk2ILNN1e52Ylcm8qIojKEQ2mKFmGdrl1ewx3lVHpdyD0oy8tpPxpm_fzjrp04kWPOMPehBIc24fC3rWpe09VkGIzPf7fqJm55Ekv0LtUayUHmvy4J3Bkdq-NT3L0kWrOE4Vd7rswMIMPFDdiAX0cKSf8PZkigkf5pnHczsoGfMyKhh-coNVGv9YsnADRvvYIrICWXjFXBIymLYFbqEJkZ3Wp9Jq9s2ScRfU5KsPNSMpqN3NSDNvTnXzJTwRUkbkJsFS1PLKJ38TAHrc_sku3TLDDun9jpvnQDp9PDdwAXTIym8kJwWtU6RvtVqF?></g></svg>