<svg xmlns="http://www.w3.org/2000/svg" xmlns:xlink="http://www.w3.org/1999/xlink" contentStyleType="text/css" data-diagram-type="DESCRIPTION" height="517px" preserveAspectRatio="none" style="width:1894px;height:517px;background:#FFFFFF;" version="1.1" viewBox="0 0 1894 517" width="1894px" zoomAndPan="magnify"><?plantuml 1.2026.5?><defs/><g><!--cluster abrirProyectos--><g class="cluster" data-qualified-name="abrirProyectos" data-source-line="6" id="ent0004"><path d="M247,40.3564 L356.1445,40.3564 A3.75,3.75 0 0 1 358.6445,42.8564 L365.6445,63.9658 L883,63.9658 A2.5,2.5 0 0 1 885.5,66.4658 L885.5,499.8564 A2.5,2.5 0 0 1 883,502.3564 L247,502.3564 A2.5,2.5 0 0 1 244.5,499.8564 L244.5,42.8564 A2.5,2.5 0 0 1 247,40.3564" fill="none" style="stroke:#000000;stroke-width:1.5;"/><line style="stroke:#000000;stroke-width:1.5;" x1="244.5" x2="365.6445" y1="63.9658" y2="63.9658"/><text fill="#000000" font-family="sans-serif" font-size="14" font-weight="700" lengthAdjust="spacing" textLength="108.1445" x="248.5" y="56.8896">abrirProyectos()</text></g><!--entity ListarProyectosView--><g class="entity" data-qualified-name="abrirProyectos.ListarProyectosView" data-source-line="7" id="ent0005"><rect fill="#629EF9" height="37.6094" rx="2.5" ry="2.5" style="stroke:#181818;stroke-width:0.5;" width="146.8271" x="691" y="96.3564"/><text fill="#000000" font-family="sans-serif" font-size="14" lengthAdjust="spacing" textLength="126.8271" x="701" y="120.8896">ListarProyectosView</text></g><!--entity ProyectoController--><g class="entity" data-qualified-name="abrirProyectos.ProyectoController" data-source-line="8" id="ent0006"><rect fill="#B5BD68" height="37.6094" rx="2.5" ry="2.5" style="stroke:#181818;stroke-width:0.5;" width="135.9375" x="565.5" y="222.8564"/><text fill="#000000" font-family="sans-serif" font-size="14" lengthAdjust="spacing" textLength="115.9375" x="575.5" y="247.3896">ProyectoController</text></g><!--entity ProyectoRepository--><g class="entity" data-qualified-name="abrirProyectos.ProyectoRepository" data-source-line="9" id="ent0007"><rect fill="#F2AC4E" height="37.6094" rx="2.5" ry="2.5" style="stroke:#181818;stroke-width:0.5;" width="142.165" x="432.5" y="349.3564"/><text fill="#000000" font-family="sans-serif" font-size="14" lengthAdjust="spacing" textLength="122.165" x="442.5" y="373.8896">ProyectoRepository</text></g><!--entity Proyecto--><g class="entity" data-qualified-name="abrirProyectos.Proyecto" data-source-line="10" id="ent0008"><rect fill="#F2AC4E" height="37.6094" rx="2.5" ry="2.5" style="stroke:#181818;stroke-width:0.5;" width="75.248" x="466" y="448.3564"/><text fill="#000000" font-family="sans-serif" font-size="14" lengthAdjust="spacing" textLength="55.248" x="476" y="472.8896">Proyecto</text></g><!--entity EstadoEntrada1--><g class="entity" data-qualified-name="EstadoEntrada1" data-source-line="3" id="ent0001"><rect fill="#CDEBA5" height="37.6094" rx="2.5" ry="2.5" style="stroke:#181818;stroke-width:0.5;" width="220.7373" x="7" y="96.3564"/><text fill="#000000" font-family="sans-serif" font-size="14" lengthAdjust="spacing" textLength="200.7373" x="17" y="120.8896">:PANEL_PRINCIPAL_ABIERTO</text></g><!--entity EstadoEntrada2--><g class="entity" data-qualified-name="EstadoEntrada2" data-source-line="4" id="ent0002"><rect fill="#CDEBA5" height="37.6094" rx="2.5" ry="2.5" style="stroke:#181818;stroke-width:0.5;" width="171.6963" x="1027.5" y="96.3564"/><text fill="#000000" font-family="sans-serif" font-size="14" lengthAdjust="spacing" textLength="151.6963" x="1037.5" y="120.8896">:PROYECTO_ABIERTO</text></g><!--entity EstadoEntrada3--><g class="entity" data-qualified-name="EstadoEntrada3" data-source-line="5" id="ent0003"><rect fill="#CDEBA5" height="37.6094" rx="2.5" ry="2.5" style="stroke:#181818;stroke-width:0.5;" width="198.9238" x="1235" y="96.3564"/><text fill="#000000" font-family="sans-serif" font-size="14" lengthAdjust="spacing" textLength="178.9238" x="1245" y="120.8896">:INVESTIGADOR_ABIERTO</text></g><!--entity EstadoSalida--><g class="entity" data-qualified-name="EstadoSalida" data-source-line="13" id="ent0009"><rect fill="#CDEBA5" height="37.6094" rx="2.5" ry="2.5" style="stroke:#181818;stroke-width:0.5;" width="190.3721" x="901.5" y="222.8564"/><text fill="#000000" font-family="sans-serif" font-size="14" lengthAdjust="spacing" textLength="170.3721" x="911.5" y="247.3896">:PROYECTOS_ABIERTOS</text></g><!--entity AbrirProyecto--><g class="entity" data-qualified-name="AbrirProyecto" data-source-line="14" id="ent0010"><rect fill="#CDEBA5" height="37.6094" rx="2.5" ry="2.5" style="stroke:#181818;stroke-width:0.5;" width="195.082" x="1127" y="222.8564"/><text fill="#000000" font-family="sans-serif" font-size="14" lengthAdjust="spacing" textLength="175.082" x="1137" y="247.3896">:Collaboration AbrirProyecto</text></g><!--entity AbrirPanelPrincipal--><g class="entity" data-qualified-name="AbrirPanelPrincipal" data-source-line="15" id="ent0011"><rect fill="#CDEBA5" height="37.6094" rx="2.5" ry="2.5" style="stroke:#181818;stroke-width:0.5;" width="229.3301" x="1357" y="222.8564"/><text fill="#000000" font-family="sans-serif" font-size="14" lengthAdjust="spacing" textLength="209.3301" x="1367" y="247.3896">:Collaboration AbrirPanelPrincipal</text></g><g class="entity" data-qualified-name="GMN21" data-source-line="28" id="ent0022"><path d="M1621.5,212.3564 L1621.5,271.4111 L1879.5342,271.4111 L1879.5342,222.3564 L1869.5342,212.3564 L1621.5,212.3564" fill="#FEFFDD" style="stroke:#181818;stroke-width:0.5;"/><path d="M1869.5342,212.3564 L1869.5342,222.3564 L1879.5342,222.3564 L1869.5342,212.3564" fill="#FEFFDD" style="stroke:#181818;stroke-width:1;"/><text fill="#000000" font-family="sans-serif" font-size="13" lengthAdjust="spacing" textLength="107.6816" x="1627.5" y="230.8516">Contexto opcional:</text><text fill="#000000" font-family="sans-serif" font-size="13" lengthAdjust="spacing" textLength="182.8188" x="1627.5" y="247.2031">- sin identificador: listado propio</text><text fill="#000000" font-family="sans-serif" font-size="13" lengthAdjust="spacing" textLength="237.0342" x="1627.5" y="263.5547">- con identificador: listado propio acotado</text></g><!--link EstadoEntrada1 to ListarProyectosView--><g class="link" data-entity-1="ent0001" data-entity-2="ent0005" data-link-type="dependency" data-source-line="17" id="lnk12"><path d="M228.36,115.3564 C360.52,115.3564 572.7,115.3564 685.82,115.3564" fill="none" id="EstadoEntrada1-to-ListarProyectosView" style="stroke:#181818;stroke-width:1;"/><polygon fill="#181818" points="690.82,115.3564,681.82,111.3564,685.82,115.3564,681.82,119.3564,690.82,115.3564" style="stroke:#181818;stroke-width:1;stroke-linejoin:miter;stroke-miterlimit:10;"/><text fill="#000000" font-family="sans-serif" font-size="13" lengthAdjust="spacing" textLength="92.4663" x="413.5" y="108.8516">abrirProyectos()</text></g><!--link EstadoEntrada2 to ListarProyectosView--><g class="link" data-entity-1="ent0002" data-entity-2="ent0005" data-link-type="dependency" data-source-line="18" id="lnk13"><path d="M1027.4,115.3564 C969.28,115.3564 898.38,115.3564 843.09,115.3564" fill="none" id="EstadoEntrada2-to-ListarProyectosView" style="stroke:#181818;stroke-width:1;"/><polygon fill="#181818" points="838.09,115.3564,847.09,119.3564,843.09,115.3564,847.09,111.3564,838.09,115.3564" style="stroke:#181818;stroke-width:1;stroke-linejoin:miter;stroke-miterlimit:10;"/><text fill="#000000" font-family="sans-serif" font-size="13" lengthAdjust="spacing" textLength="153.8862" x="856.25" y="108.8516">abrirProyectos(idProyecto)</text></g><!--link EstadoEntrada3 to ListarProyectosView--><g class="link" data-entity-1="ent0003" data-entity-2="ent0005" data-link-type="dependency" data-source-line="19" id="lnk14"><path d="M1307.36,96.3364 C1272.8,72.1164 1217.5,33.3564 1217.5,33.3564 C1217.5,33.3564 1010.5,33.3564 1010.5,33.3564 C1010.5,33.3564 898.9735,70.5355 826.3035,94.7555" fill="none" id="EstadoEntrada3-to-ListarProyectosView" style="stroke:#181818;stroke-width:1;"/><polygon fill="#181818" points="821.56,96.3364,831.363,97.2855,826.3035,94.7555,828.8335,89.696,821.56,96.3364" style="stroke:#181818;stroke-width:1;stroke-linejoin:miter;stroke-miterlimit:10;"/><text fill="#000000" font-family="sans-serif" font-size="13" lengthAdjust="spacing" textLength="173.4053" x="950" y="20.8516">abrirProyectos(idInvestigador)</text></g><!--link ListarProyectosView to ProyectoController--><g class="link" data-entity-1="ent0005" data-entity-2="ent0006" data-link-type="dependency" data-source-line="21" id="lnk15"><path d="M690.97,132.4764 C627.35,146.4164 545.5,164.3564 545.5,164.3564 C545.5,164.3564 545.5,182.3564 545.5,182.3564 C545.5,182.3564 576.146,202.7285 601.976,219.8985" fill="none" id="ListarProyectosView-to-ProyectoController" style="stroke:#181818;stroke-width:1;"/><polygon fill="#181818" points="606.14,222.6664,600.8592,214.353,601.976,219.8985,596.4305,221.0154,606.14,222.6664" style="stroke:#181818;stroke-width:1;stroke-linejoin:miter;stroke-miterlimit:10;"/><text fill="#000000" font-family="sans-serif" font-size="13" lengthAdjust="spacing" textLength="143.0508" x="546.5" y="178.8516">listarProyectos(contexto)</text></g><!--link ListarProyectosView to ProyectoController--><g class="link" data-entity-1="ent0005" data-entity-2="ent0006" data-link-type="dependency" data-source-line="22" id="lnk16"><path d="M745.45,134.4564 C720.61,158.0664 681.0448,195.6725 656.1948,219.2825" fill="none" id="ListarProyectosView-to-ProyectoController-1" style="stroke:#181818;stroke-width:1;"/><polygon fill="#181818" points="652.57,222.7264,661.8498,219.4272,656.1948,219.2825,656.3395,213.6275,652.57,222.7264" style="stroke:#181818;stroke-width:1;stroke-linejoin:miter;stroke-miterlimit:10;"/><text fill="#000000" font-family="sans-serif" font-size="13" lengthAdjust="spacing" textLength="134.3545" x="711.5" y="178.8516">filtrarProyectos(criterio)</text></g><!--link ProyectoController to ProyectoRepository--><g class="link" data-entity-1="ent0006" data-entity-2="ent0007" data-link-type="dependency" data-source-line="23" id="lnk17"><path d="M565.31,254.5564 C465.8,271.6264 292.5,301.3564 292.5,301.3564 C292.5,301.3564 292.5,319.3564 292.5,319.3564 C292.5,319.3564 366.2246,336.127 427.4846,350.067" fill="none" id="ProyectoController-to-ProyectoRepository" style="stroke:#181818;stroke-width:1;"/><polygon fill="#181818" points="432.36,351.1764,424.4719,345.2792,427.4846,350.067,422.6968,353.0798,432.36,351.1764" style="stroke:#181818;stroke-width:1;stroke-linejoin:miter;stroke-miterlimit:10;"/><text fill="#000000" font-family="sans-serif" font-size="13" lengthAdjust="spacing" textLength="166.9243" x="293.5" y="315.8516">obtenerPropios(investigador)</text></g><!--link ProyectoController to ProyectoRepository--><g class="link" data-entity-1="ent0006" data-entity-2="ent0007" data-link-type="dependency" data-source-line="24" id="lnk18"><path d="M592.51,260.8864 C553.43,278.0764 500.5,301.3564 500.5,301.3564 C500.5,301.3564 500.5,319.3564 500.5,319.3564 C500.5,319.3564 501.2079,330.6262 502.0579,344.2162" fill="none" id="ProyectoController-to-ProyectoRepository-1" style="stroke:#181818;stroke-width:1;"/><polygon fill="#181818" points="502.37,349.2064,505.8004,339.9743,502.0579,344.2162,497.816,340.4737,502.37,349.2064" style="stroke:#181818;stroke-width:1;stroke-linejoin:miter;stroke-miterlimit:10;"/><text fill="#000000" font-family="sans-serif" font-size="13" lengthAdjust="spacing" textLength="174.1543" x="501.5" y="315.8516">obtenerPorContexto(contexto)</text></g><!--link ProyectoController to ProyectoRepository--><g class="link" data-entity-1="ent0006" data-entity-2="ent0007" data-link-type="dependency" data-source-line="25" id="lnk19"><path d="M648.11,261.0464 C661.91,278.2164 680.5,301.3564 680.5,301.3564 C680.5,301.3564 680.5,319.3564 680.5,319.3564 C680.5,319.3564 624.9657,334.4179 574.7357,348.0379" fill="none" id="ProyectoController-to-ProyectoRepository-2" style="stroke:#181818;stroke-width:1;"/><polygon fill="#181818" points="569.91,349.3464,579.6431,350.8517,574.7357,348.0379,577.5495,343.1305,569.91,349.3464" style="stroke:#181818;stroke-width:1;stroke-linejoin:miter;stroke-miterlimit:10;"/><text fill="#000000" font-family="sans-serif" font-size="13" lengthAdjust="spacing" textLength="148.8081" x="681.5" y="315.8516">buscarPorCriterio(criterio)</text></g><!--link ProyectoRepository to Proyecto--><g class="link" data-entity-1="ent0007" data-entity-2="ent0008" data-link-type="association" data-source-line="26" id="lnk20"><path d="M503.5,387.5964 C503.5,404.9464 503.5,430.8764 503.5,448.1964" fill="none" id="ProyectoRepository-Proyecto" style="stroke:#181818;stroke-width:1;"/></g><!--link ProyectoController to GMN21--><g class="link" data-entity-1="ent0006" data-entity-2="ent0022" data-link-type="association" data-source-line="28" id="lnk23"><path d="M701.6,224.4864 C781.15,204.1864 902,173.3564 902,173.3564 C902,173.3564 1586,173.3564 1586,173.3564 C1586,173.3564 1634.85,193.6964 1679.3,212.2064" fill="none" id="ProyectoController-GMN21" style="stroke:#181818;stroke-width:1;stroke-dasharray:7,7;"/></g><!--link ListarProyectosView to EstadoSalida--><g class="link" data-entity-1="ent0005" data-entity-2="ent0009" data-link-type="dependency" data-source-line="32" id="lnk24"><path d="M798.27,134.3664 C823.81,147.9864 854.5,164.3564 854.5,164.3564 C854.5,164.3564 916.4581,197.7351 958.4481,220.3551" fill="none" id="ListarProyectosView-to-EstadoSalida" style="stroke:#181818;stroke-width:1;stroke-dasharray:7,7;"/><polygon fill="#181818" points="962.85,222.7264,956.8236,214.9365,958.4481,220.3551,953.0295,221.9796,962.85,222.7264" style="stroke:#181818;stroke-width:1;stroke-linejoin:miter;stroke-miterlimit:10;"/><text fill="#000000" font-family="sans-serif" font-size="13" lengthAdjust="spacing" textLength="130.7935" x="885.5" y="178.8516">continuarNavegacion()</text></g><!--link ListarProyectosView to AbrirProyecto--><g class="link" data-entity-1="ent0005" data-entity-2="ent0010" data-link-type="dependency" data-source-line="33" id="lnk25"><path d="M838.31,129.9864 C915.18,144.1764 1024.5,164.3564 1024.5,164.3564 C1024.5,164.3564 1113.56,198.42 1172.69,221.04" fill="none" id="ListarProyectosView-to-AbrirProyecto" style="stroke:#181818;stroke-width:1;stroke-dasharray:7,7;"/><polygon fill="#181818" points="1177.36,222.8264,1170.3833,215.8748,1172.69,221.04,1167.5249,223.3468,1177.36,222.8264" style="stroke:#181818;stroke-width:1;stroke-linejoin:miter;stroke-miterlimit:10;"/><text fill="#000000" font-family="sans-serif" font-size="13" lengthAdjust="spacing" textLength="85.9663" x="1068.5" y="178.8516">abrirProyecto()</text></g><!--link ListarProyectosView to AbrirPanelPrincipal--><g class="link" data-entity-1="ent0005" data-entity-2="ent0011" data-link-type="dependency" data-source-line="34" id="lnk26"><path d="M838.43,125.2764 C953.53,139.1564 1162.5,164.3564 1162.5,164.3564 C1162.5,164.3564 1302.4566,199.0046 1393.8066,221.6246" fill="none" id="ListarProyectosView-to-AbrirPanelPrincipal" style="stroke:#181818;stroke-width:1;stroke-dasharray:7,7;"/><polygon fill="#181818" points="1398.66,222.8264,1390.8853,216.7805,1393.8066,221.6246,1388.9624,224.5459,1398.66,222.8264" style="stroke:#181818;stroke-width:1;stroke-linejoin:miter;stroke-miterlimit:10;"/><text fill="#000000" font-family="sans-serif" font-size="13" lengthAdjust="spacing" textLength="117.7681" x="1229.5" y="178.8516">abrirPanelPrincipal()</text></g><?plantuml-src dPDDRzim38Rl-XL4UaaEAR1qBLOV2hYkEnW84iC92knKqBRY4TKaGrQx1SF--wGWRYpNwPTF5ls-ZqcAR1v8rgZn5mYIt6nh3hKIMtTWJFF2eAm4XvFe9huEps4KfE4Ydj-dMRA8aZIStuVNIPojboF01kB6OAbYQJIM-6NOdYr_nD5wUTmt6_GbYxjujKw-XpVBxBZtZDLOF6350NDDEjLgQrcgSSAH7nfFHl2NWNqwlxkONSQtbp0d2pr8xuZ_xYlpyxoy-0Qj9b8s0IK4rttXxIoCliRFmepNgY6ZzFOD8Vl7NctWgkt2gjE65GegST0NsUmmLneDAGbXjnSxW1TvDm4b5wacML2DeiFnuepvWm5JFRqQQd80_JlodRFtEwbittkCiuym4ld46qELjUi9OmCcc9QMzd8C0hjFddXSs6_yZyjd47E4iY5Xq-vYD1ckoM9UoZtAOT82KBdXaZjAJQumhwnFS9IEzjLqole09tzi2jnXzjKCb7NGMynXBQGo73HLFmsepT3-jPc1gWixg2W2DeM69539fQ4D5Qxi_VsK2kfTKwp6LlAw1h1GxiYuBC7bCNYJfwTNtZO63cn8Fg9Uu1Elq6KrdXprUelOcyatRTxUjMOlQ17_0G00?></g></svg>