<svg xmlns="http://www.w3.org/2000/svg" xmlns:xlink="http://www.w3.org/1999/xlink" contentStyleType="text/css" data-diagram-type="DESCRIPTION" height="517px" preserveAspectRatio="none" style="width:2134px;height:517px;background:#FFFFFF;" version="1.1" viewBox="0 0 2134 517" width="2134px" zoomAndPan="magnify"><?plantuml 1.2026.5?><defs/><g><!--cluster abrirProyectos--><g class="cluster" data-qualified-name="abrirProyectos" data-source-line="6" id="ent0004"><path d="M247,40.3564 L356.1445,40.3564 A3.75,3.75 0 0 1 358.6445,42.8564 L365.6445,63.9658 L1075,63.9658 A2.5,2.5 0 0 1 1077.5,66.4658 L1077.5,499.8564 A2.5,2.5 0 0 1 1075,502.3564 L247,502.3564 A2.5,2.5 0 0 1 244.5,499.8564 L244.5,42.8564 A2.5,2.5 0 0 1 247,40.3564" fill="none" style="stroke:#000000;stroke-width:1.5;"/><line style="stroke:#000000;stroke-width:1.5;" x1="244.5" x2="365.6445" y1="63.9658" y2="63.9658"/><text fill="#000000" font-family="sans-serif" font-size="14" font-weight="700" lengthAdjust="spacing" textLength="108.1445" x="248.5" y="56.8896">abrirProyectos()</text></g><!--entity ListarProyectosView--><g class="entity" data-qualified-name="abrirProyectos.ListarProyectosView" data-source-line="7" id="ent0005"><rect fill="#629EF9" height="37.6094" rx="2.5" ry="2.5" style="stroke:#181818;stroke-width:0.5;" width="146.8271" x="866" y="96.3564"/><text fill="#000000" font-family="sans-serif" font-size="14" lengthAdjust="spacing" textLength="126.8271" x="876" y="120.8896">ListarProyectosView</text></g><!--entity ProyectoController--><g class="entity" data-qualified-name="abrirProyectos.ProyectoController" data-source-line="8" id="ent0006"><rect fill="#B5BD68" height="37.6094" rx="2.5" ry="2.5" style="stroke:#181818;stroke-width:0.5;" width="135.9375" x="579.5" y="222.8564"/><text fill="#000000" font-family="sans-serif" font-size="14" lengthAdjust="spacing" textLength="115.9375" x="589.5" y="247.3896">ProyectoController</text></g><!--entity ProyectoRepository--><g class="entity" data-qualified-name="abrirProyectos.ProyectoRepository" data-source-line="9" id="ent0007"><rect fill="#F2AC4E" height="37.6094" rx="2.5" ry="2.5" style="stroke:#181818;stroke-width:0.5;" width="142.165" x="432.5" y="349.3564"/><text fill="#000000" font-family="sans-serif" font-size="14" lengthAdjust="spacing" textLength="122.165" x="442.5" y="373.8896">ProyectoRepository</text></g><!--entity Proyecto--><g class="entity" data-qualified-name="abrirProyectos.Proyecto" data-source-line="10" id="ent0008"><rect fill="#F2AC4E" height="37.6094" rx="2.5" ry="2.5" style="stroke:#181818;stroke-width:0.5;" width="75.248" x="466" y="448.3564"/><text fill="#000000" font-family="sans-serif" font-size="14" lengthAdjust="spacing" textLength="55.248" x="476" y="472.8896">Proyecto</text></g><!--entity EstadoEntrada1--><g class="entity" data-qualified-name="EstadoEntrada1" data-source-line="3" id="ent0001"><rect fill="#CDEBA5" height="37.6094" rx="2.5" ry="2.5" style="stroke:#181818;stroke-width:0.5;" width="220.7373" x="7" y="96.3564"/><text fill="#000000" font-family="sans-serif" font-size="14" lengthAdjust="spacing" textLength="200.7373" x="17" y="120.8896">:PANEL_PRINCIPAL_ABIERTO</text></g><!--entity EstadoEntrada2--><g class="entity" data-qualified-name="EstadoEntrada2" data-source-line="4" id="ent0002"><rect fill="#CDEBA5" height="37.6094" rx="2.5" ry="2.5" style="stroke:#181818;stroke-width:0.5;" width="171.6963" x="1141.5" y="96.3564"/><text fill="#000000" font-family="sans-serif" font-size="14" lengthAdjust="spacing" textLength="151.6963" x="1151.5" y="120.8896">:PROYECTO_ABIERTO</text></g><!--entity EstadoEntrada3--><g class="entity" data-qualified-name="EstadoEntrada3" data-source-line="5" id="ent0003"><rect fill="#CDEBA5" height="37.6094" rx="2.5" ry="2.5" style="stroke:#181818;stroke-width:0.5;" width="198.9238" x="1349" y="96.3564"/><text fill="#000000" font-family="sans-serif" font-size="14" lengthAdjust="spacing" textLength="178.9238" x="1359" y="120.8896">:INVESTIGADOR_ABIERTO</text></g><!--entity EstadoSalida--><g class="entity" data-qualified-name="EstadoSalida" data-source-line="13" id="ent0009"><rect fill="#CDEBA5" height="37.6094" rx="2.5" ry="2.5" style="stroke:#181818;stroke-width:0.5;" width="190.3721" x="1093.5" y="222.8564"/><text fill="#000000" font-family="sans-serif" font-size="14" lengthAdjust="spacing" textLength="170.3721" x="1103.5" y="247.3896">:PROYECTOS_ABIERTOS</text></g><!--entity AbrirProyecto--><g class="entity" data-qualified-name="AbrirProyecto" data-source-line="14" id="ent0010"><rect fill="#CDEBA5" height="37.6094" rx="2.5" ry="2.5" style="stroke:#181818;stroke-width:0.5;" width="195.082" x="1319" y="222.8564"/><text fill="#000000" font-family="sans-serif" font-size="14" lengthAdjust="spacing" textLength="175.082" x="1329" y="247.3896">:Collaboration AbrirProyecto</text></g><!--entity AbrirPanelPrincipal--><g class="entity" data-qualified-name="AbrirPanelPrincipal" data-source-line="15" id="ent0011"><rect fill="#CDEBA5" height="37.6094" rx="2.5" ry="2.5" style="stroke:#181818;stroke-width:0.5;" width="229.3301" x="1549" y="222.8564"/><text fill="#000000" font-family="sans-serif" font-size="14" lengthAdjust="spacing" textLength="209.3301" x="1559" y="247.3896">:Collaboration AbrirPanelPrincipal</text></g><g class="entity" data-qualified-name="GMN21" data-source-line="28" id="ent0022"><path d="M1813.5,212.3564 L1813.5,271.4111 L2119.9224,271.4111 L2119.9224,222.3564 L2109.9224,212.3564 L1813.5,212.3564" fill="#FEFFDD" style="stroke:#181818;stroke-width:0.5;"/><path d="M2109.9224,212.3564 L2109.9224,222.3564 L2119.9224,222.3564 L2109.9224,212.3564" fill="#FEFFDD" style="stroke:#181818;stroke-width:1;"/><text fill="#000000" font-family="sans-serif" font-size="13" lengthAdjust="spacing" textLength="107.6816" x="1819.5" y="230.8516">Contexto opcional:</text><text fill="#000000" font-family="sans-serif" font-size="13" lengthAdjust="spacing" textLength="182.8188" x="1819.5" y="247.2031">- sin identificador: listado propio</text><text fill="#000000" font-family="sans-serif" font-size="13" lengthAdjust="spacing" textLength="285.4224" x="1819.5" y="263.5547">- con investigadorId: proyectos visibles asociados</text></g><!--link EstadoEntrada1 to ListarProyectosView--><g class="link" data-entity-1="ent0001" data-entity-2="ent0005" data-link-type="dependency" data-source-line="17" id="lnk12"><path d="M228.36,115.3564 C398.94,115.3564 716.18,115.3564 860.89,115.3564" fill="none" id="EstadoEntrada1-to-ListarProyectosView" style="stroke:#181818;stroke-width:1;"/><polygon fill="#181818" points="865.89,115.3564,856.89,111.3564,860.89,115.3564,856.89,119.3564,865.89,115.3564" style="stroke:#181818;stroke-width:1;stroke-linejoin:miter;stroke-miterlimit:10;"/><text fill="#000000" font-family="sans-serif" font-size="13" lengthAdjust="spacing" textLength="92.4663" x="501" y="108.8516">abrirProyectos()</text></g><!--link EstadoEntrada2 to ListarProyectosView--><g class="link" data-entity-1="ent0002" data-entity-2="ent0005" data-link-type="dependency" data-source-line="18" id="lnk13"><path d="M1141.38,115.3564 C1100.59,115.3564 1057.38,115.3564 1018.29,115.3564" fill="none" id="EstadoEntrada2-to-ListarProyectosView" style="stroke:#181818;stroke-width:1;"/><polygon fill="#181818" points="1013.29,115.3564,1022.29,119.3564,1018.29,115.3564,1022.29,111.3564,1013.29,115.3564" style="stroke:#181818;stroke-width:1;stroke-linejoin:miter;stroke-miterlimit:10;"/><text fill="#000000" font-family="sans-serif" font-size="13" lengthAdjust="spacing" textLength="92.4663" x="1031.25" y="108.8516">abrirProyectos()</text></g><!--link EstadoEntrada3 to ListarProyectosView--><g class="link" data-entity-1="ent0003" data-entity-2="ent0005" data-link-type="dependency" data-source-line="19" id="lnk14"><path d="M1421.36,96.3364 C1386.8,72.1164 1331.5,33.3564 1331.5,33.3564 C1331.5,33.3564 1124.5,33.3564 1124.5,33.3564 C1124.5,33.3564 1041.6312,70.0906 986.9812,94.3106" fill="none" id="EstadoEntrada3-to-ListarProyectosView" style="stroke:#181818;stroke-width:1;"/><polygon fill="#181818" points="982.41,96.3364,992.2589,96.3468,986.9812,94.3106,989.0174,89.0329,982.41,96.3364" style="stroke:#181818;stroke-width:1;stroke-linejoin:miter;stroke-miterlimit:10;"/><text fill="#000000" font-family="sans-serif" font-size="13" lengthAdjust="spacing" textLength="173.4053" x="1094" y="20.8516">abrirProyectos(idInvestigador)</text></g><!--link ListarProyectosView to ProyectoController--><g class="link" data-entity-1="ent0005" data-entity-2="ent0006" data-link-type="dependency" data-source-line="21" id="lnk15"><path d="M865.58,124.6064 C742.64,138.3364 509.5,164.3564 509.5,164.3564 C509.5,164.3564 509.5,182.3564 509.5,182.3564 C509.5,182.3564 559.8166,203.6849 600.3666,220.8749" fill="none" id="ListarProyectosView-to-ProyectoController" style="stroke:#181818;stroke-width:1;"/><polygon fill="#181818" points="604.97,222.8264,598.245,215.631,600.3666,220.8749,595.1226,222.9965,604.97,222.8264" style="stroke:#181818;stroke-width:1;stroke-linejoin:miter;stroke-miterlimit:10;"/><text fill="#000000" font-family="sans-serif" font-size="13" lengthAdjust="spacing" textLength="229.0425" x="510.5" y="178.8516">listarProyectos(actorId, investigadorId?)</text></g><!--link ListarProyectosView to ProyectoController--><g class="link" data-entity-1="ent0005" data-entity-2="ent0006" data-link-type="dependency" data-source-line="24" id="lnk18"><path d="M880.97,134.3664 C836.7,147.9864 783.5,164.3564 783.5,164.3564 C783.5,164.3564 724.3081,197.6554 684.0881,220.2754" fill="none" id="ListarProyectosView-to-ProyectoController-1" style="stroke:#181818;stroke-width:1;"/><polygon fill="#181818" points="679.73,222.7264,689.5353,221.8011,684.0881,220.2754,685.6137,214.8282,679.73,222.7264" style="stroke:#181818;stroke-width:1;stroke-linejoin:miter;stroke-miterlimit:10;"/><text fill="#000000" font-family="sans-serif" font-size="13" lengthAdjust="spacing" textLength="276.7134" x="784.5" y="178.8516">filtrarProyectos(criterio, actorId, investigadorId?)</text></g><!--link ProyectoController to ProyectoRepository--><g class="link" data-entity-1="ent0006" data-entity-2="ent0007" data-link-type="dependency" data-source-line="22" id="lnk16"><path d="M579.47,254.0664 C476.39,271.0564 292.5,301.3564 292.5,301.3564 C292.5,301.3564 292.5,319.3564 292.5,319.3564 C292.5,319.3564 366.2246,336.127 427.4846,350.067" fill="none" id="ProyectoController-to-ProyectoRepository" style="stroke:#181818;stroke-width:1;"/><polygon fill="#181818" points="432.36,351.1764,424.4719,345.2792,427.4846,350.067,422.6968,353.0798,432.36,351.1764" style="stroke:#181818;stroke-width:1;stroke-linejoin:miter;stroke-miterlimit:10;"/><text fill="#000000" font-family="sans-serif" font-size="13" lengthAdjust="spacing" textLength="166.9243" x="293.5" y="315.8516">obtenerPropios(investigador)</text></g><!--link ProyectoController to ProyectoRepository--><g class="link" data-entity-1="ent0006" data-entity-2="ent0007" data-link-type="dependency" data-source-line="23" id="lnk17"><path d="M602.2,260.8864 C559,278.0764 500.5,301.3564 500.5,301.3564 C500.5,301.3564 500.5,319.3564 500.5,319.3564 C500.5,319.3564 501.2079,330.6262 502.0579,344.2162" fill="none" id="ProyectoController-to-ProyectoRepository-1" style="stroke:#181818;stroke-width:1;"/><polygon fill="#181818" points="502.37,349.2064,505.8004,339.9743,502.0579,344.2162,497.816,340.4737,502.37,349.2064" style="stroke:#181818;stroke-width:1;stroke-linejoin:miter;stroke-miterlimit:10;"/><text fill="#000000" font-family="sans-serif" font-size="13" lengthAdjust="spacing" textLength="269.5342" x="501.5" y="315.8516">obtenerVisiblesPorInvestigador(investigadorId)</text></g><!--link ProyectoController to ProyectoRepository--><g class="link" data-entity-1="ent0006" data-entity-2="ent0007" data-link-type="dependency" data-source-line="25" id="lnk19"><path d="M686.95,260.8864 C724.56,278.0764 775.5,301.3564 775.5,301.3564 C775.5,301.3564 775.5,319.3564 775.5,319.3564 C775.5,319.3564 660.1239,339.7176 579.5339,353.9376" fill="none" id="ProyectoController-to-ProyectoRepository-2" style="stroke:#181818;stroke-width:1;"/><polygon fill="#181818" points="574.61,354.8064,584.1681,357.1817,579.5339,353.9376,582.778,349.3034,574.61,354.8064" style="stroke:#181818;stroke-width:1;stroke-linejoin:miter;stroke-miterlimit:10;"/><text fill="#000000" font-family="sans-serif" font-size="13" lengthAdjust="spacing" textLength="245.6353" x="776.5" y="315.8516">buscarVisiblesPorCriterio(criterio, alcance)</text></g><!--link ProyectoRepository to Proyecto--><g class="link" data-entity-1="ent0007" data-entity-2="ent0008" data-link-type="association" data-source-line="26" id="lnk20"><path d="M503.5,387.5964 C503.5,404.9464 503.5,430.8764 503.5,448.1964" fill="none" id="ProyectoRepository-Proyecto" style="stroke:#181818;stroke-width:1;"/></g><!--link ProyectoController to GMN21--><g class="link" data-entity-1="ent0006" data-entity-2="ent0022" data-link-type="association" data-source-line="28" id="lnk23"><path d="M715.8,231.3764 C840.88,212.1864 1094,173.3564 1094,173.3564 C1094,173.3564 1778,173.3564 1778,173.3564 C1778,173.3564 1834.17,193.7664 1885.19,212.3064" fill="none" id="ProyectoController-GMN21" style="stroke:#181818;stroke-width:1;stroke-dasharray:7,7;"/></g><!--link ListarProyectosView to EstadoSalida--><g class="link" data-entity-1="ent0005" data-entity-2="ent0009" data-link-type="dependency" data-source-line="32" id="lnk24"><path d="M988.28,134.3664 C1025.17,147.9864 1069.5,164.3564 1069.5,164.3564 C1069.5,164.3564 1120.904,197.4028 1156.094,220.0228" fill="none" id="ListarProyectosView-to-EstadoSalida" style="stroke:#181818;stroke-width:1;stroke-dasharray:7,7;"/><polygon fill="#181818" points="1160.3,222.7264,1154.8921,214.4951,1156.094,220.0228,1150.5663,221.2248,1160.3,222.7264" style="stroke:#181818;stroke-width:1;stroke-linejoin:miter;stroke-miterlimit:10;"/><text fill="#000000" font-family="sans-serif" font-size="13" lengthAdjust="spacing" textLength="130.7935" x="1095.5" y="178.8516">continuarNavegacion()</text></g><!--link ListarProyectosView to AbrirProyecto--><g class="link" data-entity-1="ent0005" data-entity-2="ent0010" data-link-type="dependency" data-source-line="33" id="lnk25"><path d="M1013.18,128.3464 C1100.56,142.5664 1234.5,164.3564 1234.5,164.3564 C1234.5,164.3564 1314.9406,198.1691 1368.7606,220.7891" fill="none" id="ListarProyectosView-to-AbrirProyecto" style="stroke:#181818;stroke-width:1;stroke-dasharray:7,7;"/><polygon fill="#181818" points="1373.37,222.7264,1366.6229,215.5518,1368.7606,220.7891,1363.5232,222.9269,1373.37,222.7264" style="stroke:#181818;stroke-width:1;stroke-linejoin:miter;stroke-miterlimit:10;"/><text fill="#000000" font-family="sans-serif" font-size="13" lengthAdjust="spacing" textLength="85.9663" x="1274.5" y="178.8516">abrirProyecto()</text></g><!--link ListarProyectosView to AbrirPanelPrincipal--><g class="link" data-entity-1="ent0005" data-entity-2="ent0011" data-link-type="dependency" data-source-line="34" id="lnk26"><path d="M1013.25,124.6064 C1135.91,138.3364 1368.5,164.3564 1368.5,164.3564 C1368.5,164.3564 1501.9102,198.9511 1589.1202,221.5711" fill="none" id="ListarProyectosView-to-AbrirPanelPrincipal" style="stroke:#181818;stroke-width:1;stroke-dasharray:7,7;"/><polygon fill="#181818" points="1593.96,222.8264,1586.2525,216.695,1589.1202,221.5711,1584.244,224.4387,1593.96,222.8264" style="stroke:#181818;stroke-width:1;stroke-linejoin:miter;stroke-miterlimit:10;"/><text fill="#000000" font-family="sans-serif" font-size="13" lengthAdjust="spacing" textLength="117.7681" x="1432.5" y="178.8516">abrirPanelPrincipal()</text></g><?plantuml-src hPHHQzim58NVzIiksKi2JM7fMbO_TBYkEmmbCKa8xAbSIqfsgIOPISqMnlvxvP8iLkgitPWVWYEVy_dSArsx1z8rMlm6YhJqcrf2RTIc-SEObToZNYa9xxAR_3ezXrvIfkFyxhwS5kEiADEx-_IwoAVpIG_GGUuy2fDhRr7W-sxxTF8bp-QJuxvHfwyOB_BPlFYStaocnxrdh4R-W2i9M5cofJMRm3Ak4VRYfVwW1pyPXAlrkelHPNvx2NSKe7lfWkJtGsLrNecBZx3JP2O4C4f9UoYy7QNPX_otS2fhuyWRktb5o7wnFpPmjkl2hDM66IeIsEdBGZgiZ4LFHaFQxiKp85fvCm6rLAKbpQb6rU94wup51mE6TdZLrUG43lSeTex-sNdsTYU9Gg-byxGATZjWhCC4Gn5eBpS_2LCKYViOVcqXJe1Qq49y6h2NRXYseFk3ae2flDIoeTRK98po_JrdGOug9LqPahHG_JZYeBlm8tKlIOL6jmhdbhoqP4xWlxIWUdGSsycpBR_z8iLHSxddxW61kvyiRRm4Iwkl7iooQuIRM_d36p0r3sSTLSA6u4W32QazBOat9MmtMnYedpScQ7WOZBZAf7cu_GYjj-d3c1XEuRbZKWjeudJs-lJqAfhhfE5xqezenxYMAsp2zGT7lT587vppLstH1E_CqM90F040?></g></svg>