<svg xmlns="http://www.w3.org/2000/svg" xmlns:xlink="http://www.w3.org/1999/xlink" contentStyleType="text/css" data-diagram-type="DESCRIPTION" height="633px" preserveAspectRatio="none" style="width:2218px;height:633px;background:#FFFFFF;" version="1.1" viewBox="0 0 2218 633" width="2218px" zoomAndPan="magnify"><?plantuml 1.2026.6?><defs/><g><!--cluster abrirProyectos--><g class="cluster" data-qualified-name="abrirProyectos" data-source-line="6" id="ent0004"><path d="M247,40.3564 L356.1445,40.3564 A3.75,3.75 0 0 1 358.6445,42.8564 L365.6445,63.9658 L1159,63.9658 A2.5,2.5 0 0 1 1161.5,66.4658 L1161.5,615.8564 A2.5,2.5 0 0 1 1159,618.3564 L247,618.3564 A2.5,2.5 0 0 1 244.5,615.8564 L244.5,42.8564 A2.5,2.5 0 0 1 247,40.3564" fill="none" style="stroke:#000000;stroke-width:1.5;"/><line style="stroke:#000000;stroke-width:1.5;" x1="244.5" x2="365.6445" y1="63.9658" y2="63.9658"/><text fill="#000000" font-family="sans-serif" font-size="14" font-weight="700" lengthAdjust="spacing" textLength="108.1445" x="248.5" y="56.8896">abrirProyectos()</text></g><!--entity ListarProyectosView--><g class="entity" data-qualified-name="abrirProyectos.ListarProyectosView" data-source-line="7" id="ent0005"><rect fill="#629EF9" height="37.6094" rx="2.5" ry="2.5" style="stroke:#181818;stroke-width:0.5;" width="146.8271" x="950" y="96.3564"/><text fill="#000000" font-family="sans-serif" font-size="14" lengthAdjust="spacing" textLength="126.8271" x="960" y="120.8896">ListarProyectosView</text></g><!--entity ProyectoController--><g class="entity" data-qualified-name="abrirProyectos.ProyectoController" data-source-line="8" id="ent0006"><rect fill="#B5BD68" height="37.6094" rx="2.5" ry="2.5" style="stroke:#181818;stroke-width:0.5;" width="135.9375" x="784.5" y="222.8564"/><text fill="#000000" font-family="sans-serif" font-size="14" lengthAdjust="spacing" textLength="115.9375" x="794.5" y="247.3896">ProyectoController</text></g><!--entity ProyectoService--><g class="entity" data-qualified-name="abrirProyectos.ProyectoService" data-source-line="9" id="ent0007"><rect fill="#B5BD68" height="37.6094" rx="2.5" ry="2.5" style="stroke:#181818;stroke-width:0.5;" width="121.9307" x="513.5" y="349.3564"/><text fill="#000000" font-family="sans-serif" font-size="14" lengthAdjust="spacing" textLength="101.9307" x="523.5" y="373.8896">ProyectoService</text></g><!--entity SesionService--><g class="entity" data-qualified-name="abrirProyectos.SesionService" data-source-line="10" id="ent0008"><rect fill="#B5BD68" height="37.6094" rx="2.5" ry="2.5" style="stroke:#181818;stroke-width:0.5;" width="109.4893" x="798" y="349.3564"/><text fill="#000000" font-family="sans-serif" font-size="14" lengthAdjust="spacing" textLength="89.4893" x="808" y="373.8896">SesionService</text></g><!--entity ProyectoRepository--><g class="entity" data-qualified-name="abrirProyectos.ProyectoRepository" data-source-line="11" id="ent0009"><rect fill="#F2AC4E" height="37.6094" rx="2.5" ry="2.5" style="stroke:#181818;stroke-width:0.5;" width="142.165" x="474.5" y="465.3564"/><text fill="#000000" font-family="sans-serif" font-size="14" lengthAdjust="spacing" textLength="122.165" x="484.5" y="489.8896">ProyectoRepository</text></g><!--entity Proyecto--><g class="entity" data-qualified-name="abrirProyectos.Proyecto" data-source-line="12" id="ent0010"><rect fill="#F2AC4E" height="37.6094" rx="2.5" ry="2.5" style="stroke:#181818;stroke-width:0.5;" width="75.248" x="508" y="564.3564"/><text fill="#000000" font-family="sans-serif" font-size="14" lengthAdjust="spacing" textLength="55.248" x="518" y="588.8896">Proyecto</text></g><!--entity EstadoEntrada1--><g class="entity" data-qualified-name="EstadoEntrada1" data-source-line="3" id="ent0001"><rect fill="#CDEBA5" height="37.6094" rx="2.5" ry="2.5" style="stroke:#181818;stroke-width:0.5;" width="220.7373" x="7" y="96.3564"/><text fill="#000000" font-family="sans-serif" font-size="14" lengthAdjust="spacing" textLength="200.7373" x="17" y="120.8896">:PANEL_PRINCIPAL_ABIERTO</text></g><!--entity EstadoEntrada2--><g class="entity" data-qualified-name="EstadoEntrada2" data-source-line="4" id="ent0002"><rect fill="#CDEBA5" height="37.6094" rx="2.5" ry="2.5" style="stroke:#181818;stroke-width:0.5;" width="171.6963" x="1225.5" y="96.3564"/><text fill="#000000" font-family="sans-serif" font-size="14" lengthAdjust="spacing" textLength="151.6963" x="1235.5" y="120.8896">:PROYECTO_ABIERTO</text></g><!--entity EstadoEntrada3--><g class="entity" data-qualified-name="EstadoEntrada3" data-source-line="5" id="ent0003"><rect fill="#CDEBA5" height="37.6094" rx="2.5" ry="2.5" style="stroke:#181818;stroke-width:0.5;" width="198.9238" x="1433" y="96.3564"/><text fill="#000000" font-family="sans-serif" font-size="14" lengthAdjust="spacing" textLength="178.9238" x="1443" y="120.8896">:INVESTIGADOR_ABIERTO</text></g><!--entity EstadoSalida--><g class="entity" data-qualified-name="EstadoSalida" data-source-line="15" id="ent0011"><rect fill="#CDEBA5" height="37.6094" rx="2.5" ry="2.5" style="stroke:#181818;stroke-width:0.5;" width="190.3721" x="1177.5" y="222.8564"/><text fill="#000000" font-family="sans-serif" font-size="14" lengthAdjust="spacing" textLength="170.3721" x="1187.5" y="247.3896">:PROYECTOS_ABIERTOS</text></g><!--entity AbrirProyecto--><g class="entity" data-qualified-name="AbrirProyecto" data-source-line="16" id="ent0012"><rect fill="#CDEBA5" height="37.6094" rx="2.5" ry="2.5" style="stroke:#181818;stroke-width:0.5;" width="195.082" x="1403" y="222.8564"/><text fill="#000000" font-family="sans-serif" font-size="14" lengthAdjust="spacing" textLength="175.082" x="1413" y="247.3896">:Collaboration AbrirProyecto</text></g><!--entity AbrirPanelPrincipal--><g class="entity" data-qualified-name="AbrirPanelPrincipal" data-source-line="17" id="ent0013"><rect fill="#CDEBA5" height="37.6094" rx="2.5" ry="2.5" style="stroke:#181818;stroke-width:0.5;" width="229.3301" x="1633" y="222.8564"/><text fill="#000000" font-family="sans-serif" font-size="14" lengthAdjust="spacing" textLength="209.3301" x="1643" y="247.3896">:Collaboration AbrirPanelPrincipal</text></g><g class="entity" data-qualified-name="GMN25" data-source-line="32" id="ent0026"><path d="M1897.5,212.3564 L1897.5,271.4111 L2203.9224,271.4111 L2203.9224,222.3564 L2193.9224,212.3564 L1897.5,212.3564" fill="#FEFFDD" style="stroke:#181818;stroke-width:0.5;"/><path d="M2193.9224,212.3564 L2193.9224,222.3564 L2203.9224,222.3564 L2193.9224,212.3564" fill="#FEFFDD" style="stroke:#181818;stroke-width:1;"/><text fill="#000000" font-family="sans-serif" font-size="13" lengthAdjust="spacing" textLength="107.6816" x="1903.5" y="230.8516">Contexto opcional:</text><text fill="#000000" font-family="sans-serif" font-size="13" lengthAdjust="spacing" textLength="182.8188" x="1903.5" y="247.2031">- sin identificador: listado propio</text><text fill="#000000" font-family="sans-serif" font-size="13" lengthAdjust="spacing" textLength="285.4224" x="1903.5" y="263.5547">- con investigadorId: proyectos visibles asociados</text></g><!--link EstadoEntrada1 to ListarProyectosView--><g class="link" data-entity-1="ent0001" data-entity-2="ent0005" data-link-type="dependency" data-source-line="19" id="lnk14"><path d="M228.14,115.3564 C415.66,115.3564 785.99,115.3564 944.81,115.3564" fill="none" id="EstadoEntrada1-to-ListarProyectosView" style="stroke:#181818;stroke-width:1;"/><polygon fill="#181818" points="949.81,115.3564,940.81,111.3564,944.81,115.3564,940.81,119.3564,949.81,115.3564" style="stroke:#181818;stroke-width:1;stroke-linejoin:miter;stroke-miterlimit:10;"/><text fill="#000000" font-family="sans-serif" font-size="13" lengthAdjust="spacing" textLength="92.4663" x="543" y="108.8516">abrirProyectos()</text></g><!--link EstadoEntrada2 to ListarProyectosView--><g class="link" data-entity-1="ent0002" data-entity-2="ent0005" data-link-type="dependency" data-source-line="20" id="lnk15"><path d="M1225.38,115.3564 C1184.59,115.3564 1141.38,115.3564 1102.29,115.3564" fill="none" id="EstadoEntrada2-to-ListarProyectosView" style="stroke:#181818;stroke-width:1;"/><polygon fill="#181818" points="1097.29,115.3564,1106.29,119.3564,1102.29,115.3564,1106.29,111.3564,1097.29,115.3564" style="stroke:#181818;stroke-width:1;stroke-linejoin:miter;stroke-miterlimit:10;"/><text fill="#000000" font-family="sans-serif" font-size="13" lengthAdjust="spacing" textLength="92.4663" x="1115.25" y="108.8516">abrirProyectos()</text></g><!--link EstadoEntrada3 to ListarProyectosView--><g class="link" data-entity-1="ent0003" data-entity-2="ent0005" data-link-type="dependency" data-source-line="21" id="lnk16"><path d="M1505.36,96.3364 C1470.8,72.1164 1415.5,33.3564 1415.5,33.3564 C1415.5,33.3564 1208.5,33.3564 1208.5,33.3564 C1208.5,33.3564 1125.6312,70.0906 1070.9812,94.3106" fill="none" id="EstadoEntrada3-to-ListarProyectosView" style="stroke:#181818;stroke-width:1;"/><polygon fill="#181818" points="1066.41,96.3364,1076.2589,96.3468,1070.9812,94.3106,1073.0174,89.0329,1066.41,96.3364" style="stroke:#181818;stroke-width:1;stroke-linejoin:miter;stroke-miterlimit:10;"/><text fill="#000000" font-family="sans-serif" font-size="13" lengthAdjust="spacing" textLength="173.4053" x="1178" y="20.8516">abrirProyectos(idInvestigador)</text></g><!--link ListarProyectosView to ProyectoController--><g class="link" data-entity-1="ent0005" data-entity-2="ent0006" data-link-type="dependency" data-source-line="23" id="lnk17"><path d="M949.58,124.6064 C826.64,138.3364 593.5,164.3564 593.5,164.3564 C593.5,164.3564 593.5,182.3564 593.5,182.3564 C593.5,182.3564 702.8328,207.055 779.5728,224.385" fill="none" id="ListarProyectosView-to-ProyectoController" style="stroke:#181818;stroke-width:1;"/><polygon fill="#181818" points="784.45,225.4864,776.5522,219.6022,779.5728,224.385,774.7899,227.4057,784.45,225.4864" style="stroke:#181818;stroke-width:1;stroke-linejoin:miter;stroke-miterlimit:10;"/><text fill="#000000" font-family="sans-serif" font-size="13" lengthAdjust="spacing" textLength="229.0425" x="594.5" y="178.8516">listarProyectos(actorId, investigadorId?)</text></g><!--link ListarProyectosView to ProyectoController--><g class="link" data-entity-1="ent0005" data-entity-2="ent0006" data-link-type="dependency" data-source-line="28" id="lnk22"><path d="M996.28,134.5064 C975.89,148.0964 951.5,164.3564 951.5,164.3564 C951.5,164.3564 909.1968,197.0497 879.9168,219.6697" fill="none" id="ListarProyectosView-to-ProyectoController-1" style="stroke:#181818;stroke-width:1;"/><polygon fill="#181818" points="875.96,222.7264,885.5276,220.3897,879.9168,219.6697,880.6368,214.0588,875.96,222.7264" style="stroke:#181818;stroke-width:1;stroke-linejoin:miter;stroke-miterlimit:10;"/><text fill="#000000" font-family="sans-serif" font-size="13" lengthAdjust="spacing" textLength="276.7134" x="952.5" y="178.8516">filtrarProyectos(criterio, actorId, investigadorId?)</text></g><!--link ProyectoController to ProyectoService--><g class="link" data-entity-1="ent0006" data-entity-2="ent0007" data-link-type="dependency" data-source-line="24" id="lnk18"><path d="M799.18,260.8864 C748.35,278.0764 679.5,301.3564 679.5,301.3564 C679.5,301.3564 638.5127,327.1148 607.4227,346.6648" fill="none" id="ProyectoController-to-ProyectoService" style="stroke:#181818;stroke-width:1;"/><polygon fill="#181818" points="603.19,349.3264,612.9382,347.9217,607.4227,346.6648,608.6796,341.1494,603.19,349.3264" style="stroke:#181818;stroke-width:1;stroke-linejoin:miter;stroke-miterlimit:10;"/><text fill="#000000" font-family="sans-serif" font-size="13" lengthAdjust="spacing" textLength="163.2744" x="680.5" y="315.8516">listar(investigadorId, criterio)</text></g><!--link ProyectoController to SesionService--><g class="link" data-entity-1="ent0006" data-entity-2="ent0008" data-link-type="dependency" data-source-line="25" id="lnk19"><path d="M852.5,260.9564 C852.5,284.5664 852.5,320.6164 852.5,344.2264" fill="none" id="ProyectoController-to-SesionService" style="stroke:#181818;stroke-width:1;"/><polygon fill="#181818" points="852.5,349.2264,856.5,340.2264,852.5,344.2264,848.5,340.2264,852.5,349.2264" style="stroke:#181818;stroke-width:1;stroke-linejoin:miter;stroke-miterlimit:10;"/><text fill="#000000" font-family="sans-serif" font-size="13" lengthAdjust="spacing" textLength="209.5806" x="853.5" y="315.8516">obtenerSesionActual(authentication)</text></g><!--link ProyectoService to ProyectoRepository--><g class="link" data-entity-1="ent0007" data-entity-2="ent0009" data-link-type="dependency" data-source-line="26" id="lnk20"><path d="M513.31,379.7764 C430.37,393.8864 292.5,417.3564 292.5,417.3564 C292.5,417.3564 292.5,435.3564 292.5,435.3564 C292.5,435.3564 394.6077,454.7243 469.4377,468.9243" fill="none" id="ProyectoService-to-ProyectoRepository" style="stroke:#181818;stroke-width:1;"/><polygon fill="#181818" points="474.35,469.8564,466.2535,464.2487,469.4377,468.9243,464.7621,472.1084,474.35,469.8564" style="stroke:#181818;stroke-width:1;stroke-linejoin:miter;stroke-miterlimit:10;"/><text fill="#000000" font-family="sans-serif" font-size="13" lengthAdjust="spacing" textLength="208.8252" x="293.5" y="431.8516">obtenerActivosPropios(investigador)</text></g><!--link ProyectoService to ProyectoRepository--><g class="link" data-entity-1="ent0007" data-entity-2="ent0009" data-link-type="dependency" data-source-line="27" id="lnk21"><path d="M562.4,387.5064 C553.34,401.0964 542.5,417.3564 542.5,417.3564 C542.5,417.3564 542.5,435.3564 542.5,435.3564 C542.5,435.3564 543.2079,446.6262 544.0579,460.2162" fill="none" id="ProyectoService-to-ProyectoRepository-1" style="stroke:#181818;stroke-width:1;"/><polygon fill="#181818" points="544.37,465.2064,547.8004,455.9743,544.0579,460.2162,539.816,456.4737,544.37,465.2064" style="stroke:#181818;stroke-width:1;stroke-linejoin:miter;stroke-miterlimit:10;"/><text fill="#000000" font-family="sans-serif" font-size="13" lengthAdjust="spacing" textLength="311.4351" x="543.5" y="431.8516">obtenerActivosVisiblesPorInvestigador(investigadorId)</text></g><!--link ProyectoService to ProyectoRepository--><g class="link" data-entity-1="ent0007" data-entity-2="ent0009" data-link-type="dependency" data-source-line="29" id="lnk23"><path d="M635.64,379.6564 C719.38,393.7564 859.5,417.3564 859.5,417.3564 C859.5,417.3564 859.5,435.3564 859.5,435.3564 C859.5,435.3564 714.3326,457.551 621.6926,471.711" fill="none" id="ProyectoService-to-ProyectoRepository-2" style="stroke:#181818;stroke-width:1;"/><polygon fill="#181818" points="616.75,472.4664,626.2511,475.0607,621.6926,471.711,625.0423,467.1525,616.75,472.4664" style="stroke:#181818;stroke-width:1;stroke-linejoin:miter;stroke-miterlimit:10;"/><text fill="#000000" font-family="sans-serif" font-size="13" lengthAdjust="spacing" textLength="245.6353" x="860.5" y="431.8516">buscarVisiblesPorCriterio(criterio, alcance)</text></g><!--link ProyectoRepository to Proyecto--><g class="link" data-entity-1="ent0009" data-entity-2="ent0010" data-link-type="association" data-source-line="30" id="lnk24"><path d="M545.5,503.5964 C545.5,520.9464 545.5,546.8764 545.5,564.1964" fill="none" id="ProyectoRepository-Proyecto" style="stroke:#181818;stroke-width:1;"/></g><!--link ProyectoController to GMN25--><g class="link" data-entity-1="ent0006" data-entity-2="ent0026" data-link-type="association" data-source-line="32" id="lnk27"><path d="M920.74,227.4964 C1016.18,207.4064 1178,173.3564 1178,173.3564 C1178,173.3564 1862,173.3564 1862,173.3564 C1862,173.3564 1918.17,193.7664 1969.19,212.3064" fill="none" id="ProyectoController-GMN25" style="stroke:#181818;stroke-width:1;stroke-dasharray:7,7;"/></g><!--link ListarProyectosView to EstadoSalida--><g class="link" data-entity-1="ent0005" data-entity-2="ent0011" data-link-type="dependency" data-source-line="36" id="lnk28"><path d="M1097.24,133.2164 C1157.75,147.0464 1233.5,164.3564 1233.5,164.3564 C1233.5,164.3564 1249.4478,195.6526 1260.9878,218.2726" fill="none" id="ListarProyectosView-to-EstadoSalida" style="stroke:#181818;stroke-width:1;stroke-dasharray:7,7;"/><polygon fill="#181818" points="1263.26,222.7264,1262.7331,212.8917,1260.9878,218.2726,1255.6069,216.5273,1263.26,222.7264" style="stroke:#181818;stroke-width:1;stroke-linejoin:miter;stroke-miterlimit:10;"/><text fill="#000000" font-family="sans-serif" font-size="13" lengthAdjust="spacing" textLength="130.7935" x="1242.5" y="178.8516">continuarNavegacion()</text></g><!--link ListarProyectosView to AbrirProyecto--><g class="link" data-entity-1="ent0005" data-entity-2="ent0012" data-link-type="dependency" data-source-line="37" id="lnk29"><path d="M1097.24,126.2464 C1202.04,140.2964 1381.5,164.3564 1381.5,164.3564 C1381.5,164.3564 1432.904,197.4028 1468.094,220.0228" fill="none" id="ListarProyectosView-to-AbrirProyecto" style="stroke:#181818;stroke-width:1;stroke-dasharray:7,7;"/><polygon fill="#181818" points="1472.3,222.7264,1466.8921,214.4951,1468.094,220.0228,1462.5663,221.2248,1472.3,222.7264" style="stroke:#181818;stroke-width:1;stroke-linejoin:miter;stroke-miterlimit:10;"/><text fill="#000000" font-family="sans-serif" font-size="13" lengthAdjust="spacing" textLength="85.9663" x="1407.5" y="178.8516">abrirProyecto()</text></g><!--link ListarProyectosView to AbrirPanelPrincipal--><g class="link" data-entity-1="ent0005" data-entity-2="ent0013" data-link-type="dependency" data-source-line="38" id="lnk30"><path d="M1097.14,123.7464 C1231.22,137.2164 1501.5,164.3564 1501.5,164.3564 C1501.5,164.3564 1612.0056,198.7215 1684.7356,221.3415" fill="none" id="ListarProyectosView-to-AbrirPanelPrincipal" style="stroke:#181818;stroke-width:1;stroke-dasharray:7,7;"/><polygon fill="#181818" points="1689.51,222.8264,1682.104,216.3341,1684.7356,221.3415,1679.7281,223.9731,1689.51,222.8264" style="stroke:#181818;stroke-width:1;stroke-linejoin:miter;stroke-miterlimit:10;"/><text fill="#000000" font-family="sans-serif" font-size="13" lengthAdjust="spacing" textLength="117.7681" x="1555.5" y="178.8516">abrirPanelPrincipal()</text></g><?plantuml-src dPHHRzem58NV_Ikks0j8fTBeMgrvw9IcwHIfWWXGfJrLDuvBh-hPaMtOqBJ_NeT1YMaoglA0m3ddo_KzrxRFf2eq-1CaAU7MbO1AotNzXp4Zk4Era08-9JVfTNmElIYFn-dTGpxDnacMntSFyNMMJkUJ7g25r3eiTQgSmH8_jzkdanzfCfzq-qQjlcnydyxcsVVuPZBjzfwn2lapBWHWOSZaHgyzIzjQs0kN-eCU_67WFutNNOmkqzjBk2CFtKllIVmwL1RdHNdn5NQQHFi2j9J2717EX5aH5nsgcR2aLOVcTXGdNz9NqbHKsfBJPdr4oFwo_qOns_LprcZe32MLsEfB_3wnq0QThnNYPbStW63btGHKGkQ65ASAPOCJh3CMZXWCpV2gBQu83jCEdQCFEy_UxwGoKojX7IsytGmOQp71iFIqjsCK-VCOYFlelqrMdW0re5dvRS3Ukc7OW6x7QKViX_uJu8QSCAGxGS5KHg0B9vGm_rPZxfOe-xXqJq8vufj8zwIjAQXdFxYlB4-XbRPUKL7TkA1j7sFTawL22flxJJPm1xiVj6VI4SaZIJy3ZKnshJk1u-aSAxzOMewcKNQoXJVV8ZagBlRGFS1pzoTUQIV0qEB9WNvikwJgd-Atqw0hxWD36R4XM590PHtZem_IrxyTcL93jKd6QxW_iE4Me_hXzffTRQltnrTpyiyj4wg4kfpMHf-UNWNtJLJp7QabcZ6kn0Bhulg3JczmrHoSlwEsu6RPcOD5ZtW1?></g></svg>