<svg xmlns="http://www.w3.org/2000/svg" xmlns:xlink="http://www.w3.org/1999/xlink" contentStyleType="text/css" data-diagram-type="DESCRIPTION" height="494px" preserveAspectRatio="none" style="width:987px;height:494px;background:#FFFFFF;" version="1.1" viewBox="0 0 987 494" width="987px" zoomAndPan="magnify"><?plantuml 1.2026.5?><defs/><g><!--cluster iniciarSesion--><g class="cluster" data-qualified-name="iniciarSesion" data-source-line="5" id="ent0002"><path d="M164.5,6 L261.9688,6 A3.75,3.75 0 0 1 264.4688,8.5 L271.4688,29.6094 L733.5,29.6094 A2.5,2.5 0 0 1 736,32.1094 L736,476.5 A2.5,2.5 0 0 1 733.5,479 L164.5,479 A2.5,2.5 0 0 1 162,476.5 L162,8.5 A2.5,2.5 0 0 1 164.5,6" fill="none" style="stroke:#000000;stroke-width:1.5;"/><line style="stroke:#000000;stroke-width:1.5;" x1="162" x2="271.4688" y1="29.6094" y2="29.6094"/><text fill="#000000" font-family="sans-serif" font-size="14" font-weight="700" lengthAdjust="spacing" textLength="96.4688" x="166" y="22.5332">iniciarSesion()</text></g><!--entity IniciarSesionView--><g class="entity" data-qualified-name="iniciarSesion.IniciarSesionView" data-source-line="6" id="ent0003"><rect fill="#629EF9" height="37.6094" rx="2.5" ry="2.5" style="stroke:#181818;stroke-width:0.5;" width="130.4961" x="399" y="42"/><text fill="#000000" font-family="sans-serif" font-size="14" lengthAdjust="spacing" textLength="110.4961" x="409" y="66.5332">IniciarSesionView</text></g><!--entity IniciarSesionController--><g class="entity" data-qualified-name="iniciarSesion.IniciarSesionController" data-source-line="7" id="ent0004"><rect fill="#B5BD68" height="37.6094" rx="2.5" ry="2.5" style="stroke:#181818;stroke-width:0.5;" width="160.8408" x="298.5" y="194"/><text fill="#000000" font-family="sans-serif" font-size="14" lengthAdjust="spacing" textLength="140.8408" x="308.5" y="218.5332">IniciarSesionController</text></g><!--entity UsuarioRepository--><g class="entity" data-qualified-name="iniciarSesion.UsuarioRepository" data-source-line="8" id="ent0005"><rect fill="#F2AC4E" height="37.6094" rx="2.5" ry="2.5" style="stroke:#181818;stroke-width:0.5;" width="135.1582" x="178.5" y="326"/><text fill="#000000" font-family="sans-serif" font-size="14" lengthAdjust="spacing" textLength="115.1582" x="188.5" y="350.5332">UsuarioRepository</text></g><!--entity Usuario--><g class="entity" data-qualified-name="iniciarSesion.Usuario" data-source-line="9" id="ent0006"><rect fill="#F2AC4E" height="37.6094" rx="2.5" ry="2.5" style="stroke:#181818;stroke-width:0.5;" width="68.2412" x="212" y="425"/><text fill="#000000" font-family="sans-serif" font-size="14" lengthAdjust="spacing" textLength="48.2412" x="222" y="449.5332">Usuario</text></g><!--entity Sesion--><g class="entity" data-qualified-name="iniciarSesion.Sesion" data-source-line="10" id="ent0007"><rect fill="#F2AC4E" height="37.6094" rx="2.5" ry="2.5" style="stroke:#181818;stroke-width:0.5;" width="62.8066" x="515.5" y="326"/><text fill="#000000" font-family="sans-serif" font-size="14" lengthAdjust="spacing" textLength="42.8066" x="525.5" y="350.5332">Sesion</text></g><!--entity UsuarioNoAutenticado--><g class="entity" data-qualified-name="UsuarioNoAutenticado" data-source-line="3" id="ent0001"><ellipse cx="76.041" cy="30.5" fill="#F1F1F1" rx="8" ry="8" style="stroke:#181818;stroke-width:0.5;"/><path d="M76.041,38.5 L76.041,65.5 M63.041,46.5 L89.041,46.5 M76.041,65.5 L63.041,80.5 M76.041,65.5 L89.041,80.5" fill="none" style="stroke:#181818;stroke-width:0.5;"/><text fill="#000000" font-family="sans-serif" font-size="14" lengthAdjust="spacing" textLength="140.082" x="6" y="96.5332">UsuarioNoAutenticado</text></g><!--entity PanelPrincipalAbierto--><g class="entity" data-qualified-name="PanelPrincipalAbierto" data-source-line="13" id="ent0008"><rect fill="#CDEBA5" height="37.6094" rx="2.5" ry="2.5" style="stroke:#181818;stroke-width:0.5;" width="220.7373" x="752.5" y="42"/><text fill="#000000" font-family="sans-serif" font-size="14" lengthAdjust="spacing" textLength="200.7373" x="762.5" y="66.5332">:PANEL_PRINCIPAL_ABIERTO</text></g><!--link UsuarioNoAutenticado to IniciarSesionView--><g class="link" data-entity-1="ent0001" data-entity-2="ent0003" data-link-type="dependency" data-source-line="15" id="lnk9"><path d="M146.26,61 C218.11,61 323.82,61 393.78,61" fill="none" id="UsuarioNoAutenticado-to-IniciarSesionView" style="stroke:#181818;stroke-width:1;"/><polygon fill="#181818" points="398.78,61,389.78,57,393.78,61,389.78,65,398.78,61" style="stroke:#181818;stroke-width:1;stroke-linejoin:miter;stroke-miterlimit:10;"/><text fill="#000000" font-family="sans-serif" font-size="13" lengthAdjust="spacing" textLength="196.5425" x="174.5" y="54.4951">iniciarSesion(usuario, contrasena)</text></g><!--link IniciarSesionView to IniciarSesionController--><g class="link" data-entity-1="ent0003" data-entity-2="ent0004" data-link-type="dependency" data-source-line="17" id="lnk10"><path d="M400.58,80.04 C329.77,100.19 225,130 225,130 C225,130 225,164 225,164 C225,164 272.7465,178.8822 316.4465,192.5022" fill="none" id="IniciarSesionView-to-IniciarSesionController" style="stroke:#181818;stroke-width:1;"/><polygon fill="#181818" points="321.22,193.99,313.8179,187.4932,316.4465,192.5022,311.4374,195.1308,321.22,193.99" style="stroke:#181818;stroke-width:1;stroke-linejoin:miter;stroke-miterlimit:10;"/><text fill="#000000" font-family="sans-serif" font-size="13" lengthAdjust="spacing" textLength="230.5151" x="226" y="152.4951">autenticar(usuario, contrasena) : Sesion</text></g><!--link IniciarSesionController to IniciarSesionView--><g class="link" data-entity-1="ent0004" data-entity-2="ent0003" data-link-type="dependency" data-source-line="23" id="lnk13"><path d="M410,193.85 C433.22,180.26 461,164 461,164 C461,164 462.4535,114.5679 463.3135,85.2379" fill="none" id="IniciarSesionController-to-IniciarSesionView" style="stroke:#181818;stroke-width:1;"/><polygon fill="#181818" points="463.46,80.24,459.1979,89.1189,463.3135,85.2379,467.1945,89.3534,463.46,80.24" style="stroke:#181818;stroke-width:1;stroke-linejoin:miter;stroke-miterlimit:10;"/><text fill="#000000" font-family="sans-serif" font-size="13" lengthAdjust="spacing" textLength="203.7534" x="462" y="144.4951">presentarCredencialesIncorrectas()</text><text fill="#000000" font-family="sans-serif" font-size="13" lengthAdjust="spacing" textLength="147.3989" x="490.1772" y="160.8467">[credenciales incorrectas]</text></g><!--link IniciarSesionController to UsuarioRepository--><g class="link" data-entity-1="ent0004" data-entity-2="ent0005" data-link-type="dependency" data-source-line="19" id="lnk11"><path d="M315.59,232.01 C267.64,245.63 210,262 210,262 C210,262 210,296 210,296 C210,296 219.2005,308.2596 229.3905,321.8496" fill="none" id="IniciarSesionController-to-UsuarioRepository" style="stroke:#181818;stroke-width:1;"/><polygon fill="#181818" points="232.39,325.85,230.1911,316.2497,229.3905,321.8496,223.7906,321.049,232.39,325.85" style="stroke:#181818;stroke-width:1;stroke-linejoin:miter;stroke-miterlimit:10;"/><text fill="#000000" font-family="sans-serif" font-size="13" lengthAdjust="spacing" textLength="292.6396" x="211" y="284.4951">validarCredenciales(usuario, contrasena) : Usuario</text></g><!--link UsuarioRepository to Usuario--><g class="link" data-entity-1="ent0005" data-entity-2="ent0006" data-link-type="association" data-source-line="21" id="lnk12"><path d="M246,364.24 C246,381.59 246,407.52 246,424.84" fill="none" id="UsuarioRepository-Usuario" style="stroke:#181818;stroke-width:1;"/></g><!--link IniciarSesionController to Sesion--><g class="link" data-entity-1="ent0004" data-entity-2="ent0007" data-link-type="dependency" data-source-line="25" id="lnk14"><path d="M427.4,232.01 C464.01,245.63 508,262 508,262 C508,262 524.7026,297.1246 536.1926,321.2846" fill="none" id="IniciarSesionController-to-Sesion" style="stroke:#181818;stroke-width:1;"/><polygon fill="#181818" points="538.34,325.8,538.0869,315.9544,536.1926,321.2846,530.8623,319.3903,538.34,325.8" style="stroke:#181818;stroke-width:1;stroke-linejoin:miter;stroke-miterlimit:10;"/><text fill="#000000" font-family="sans-serif" font-size="13" lengthAdjust="spacing" textLength="171.2471" x="525" y="276.4951">crearSesion(usuario) : Sesion</text><text fill="#000000" font-family="sans-serif" font-size="13" lengthAdjust="spacing" textLength="137.2808" x="541.9832" y="292.8467">[credenciales correctas]</text></g><!--link IniciarSesionView to PanelPrincipalAbierto--><g class="link" data-entity-1="ent0003" data-entity-2="ent0008" data-link-type="dependency" data-source-line="27" id="lnk15"><path d="M529.44,61 C589.8,61 675.62,61 747.26,61" fill="none" id="IniciarSesionView-to-PanelPrincipalAbierto" style="stroke:#181818;stroke-width:1;"/><polygon fill="#181818" points="752.26,61,743.26,57,747.26,61,743.26,65,752.26,61" style="stroke:#181818;stroke-width:1;stroke-linejoin:miter;stroke-miterlimit:10;"/><text fill="#000000" font-family="sans-serif" font-size="13" lengthAdjust="spacing" textLength="117.7681" x="582.0063" y="38.4951">abrirPanelPrincipal()</text><text fill="#000000" font-family="sans-serif" font-size="13" lengthAdjust="spacing" textLength="137.2808" x="572.25" y="54.8467">[credenciales correctas]</text></g><?plantuml-src VL9DQy904BtlhnZiHQ5Uf4hDeH3J206nmNvSsYAJpI2BszqmYIrI-j-xDgJcGztRxfjvxysRpRVAPCZu0LePAlOPGMRr_d0H0cLX6Pxp7RAoI-ll2ZA5afXQ8JAKMzmGAAEaGdwaN5a3c4ElyT8VzE1RW3jCia2pqGHNaz4qd4yXgXU-AFfgroNZ99tSDki2QmgsMXEtg-SZFxW9AxihocokdF_zvRepQ2acVeIeOS5zEFF7qFDYVnakrl4gMWPHx2_M_YmALqyFlSFyCHhICIiZLORQJnHnuV8wbI8CUNZNZS5hXjhVbQtN80-pOqu61q9qsc2OjjcEONc0bIwV90IlcbcSeO2Xe--awy4dQfKY1qmfkQ5HKtvEeSfST6WS-H6zPE14MXcJ4oYQ5Y8ZBV_jBkyFtiohh64ktt_m_R9S-UY1Qs_lunXPc_uiURccmz9F_XAtf8GLDx6k-nhzBm00?></g></svg>