<svg xmlns="http://www.w3.org/2000/svg" xmlns:xlink="http://www.w3.org/1999/xlink" contentStyleType="text/css" data-diagram-type="DESCRIPTION" height="564px" preserveAspectRatio="none" style="width:1113px;height:564px;background:#FFFFFF;" version="1.1" viewBox="0 0 1113 564" width="1113px" zoomAndPan="magnify"><?plantuml 1.2026.5?><defs/><g><!--cluster iniciarSesion--><g class="cluster" data-qualified-name="iniciarSesion" data-source-line="6" id="ent0003"><path d="M179,56.3564 L276.4688,56.3564 A3.75,3.75 0 0 1 278.9688,58.8564 L285.9688,79.9658 L748,79.9658 A2.5,2.5 0 0 1 750.5,82.4658 L750.5,546.8564 A2.5,2.5 0 0 1 748,549.3564 L179,549.3564 A2.5,2.5 0 0 1 176.5,546.8564 L176.5,58.8564 A2.5,2.5 0 0 1 179,56.3564" fill="none" style="stroke:#000000;stroke-width:1.5;"/><line style="stroke:#000000;stroke-width:1.5;" x1="176.5" x2="285.9688" y1="79.9658" y2="79.9658"/><text fill="#000000" font-family="sans-serif" font-size="14" font-weight="700" lengthAdjust="spacing" textLength="96.4688" x="180.5" y="72.8896">iniciarSesion()</text></g><!--entity IniciarSesionView--><g class="entity" data-qualified-name="iniciarSesion.IniciarSesionView" data-source-line="7" id="ent0004"><rect fill="#629EF9" height="37.6094" rx="2.5" ry="2.5" style="stroke:#181818;stroke-width:0.5;" width="130.4961" x="348.5" y="112.3564"/><text fill="#000000" font-family="sans-serif" font-size="14" lengthAdjust="spacing" textLength="110.4961" x="358.5" y="136.8896">IniciarSesionView</text></g><!--entity IniciarSesionController--><g class="entity" data-qualified-name="iniciarSesion.IniciarSesionController" data-source-line="8" id="ent0005"><rect fill="#B5BD68" height="37.6094" rx="2.5" ry="2.5" style="stroke:#181818;stroke-width:0.5;" width="160.8408" x="313" y="264.3564"/><text fill="#000000" font-family="sans-serif" font-size="14" lengthAdjust="spacing" textLength="140.8408" x="323" y="288.8896">IniciarSesionController</text></g><!--entity UsuarioRepository--><g class="entity" data-qualified-name="iniciarSesion.UsuarioRepository" data-source-line="9" id="ent0006"><rect fill="#F2AC4E" height="37.6094" rx="2.5" ry="2.5" style="stroke:#181818;stroke-width:0.5;" width="135.1582" x="193" y="396.3564"/><text fill="#000000" font-family="sans-serif" font-size="14" lengthAdjust="spacing" textLength="115.1582" x="203" y="420.8896">UsuarioRepository</text></g><!--entity Usuario--><g class="entity" data-qualified-name="iniciarSesion.Usuario" data-source-line="10" id="ent0007"><rect fill="#F2AC4E" height="37.6094" rx="2.5" ry="2.5" style="stroke:#181818;stroke-width:0.5;" width="68.2412" x="226.5" y="495.3564"/><text fill="#000000" font-family="sans-serif" font-size="14" lengthAdjust="spacing" textLength="48.2412" x="236.5" y="519.8896">Usuario</text></g><!--entity Sesion--><g class="entity" data-qualified-name="iniciarSesion.Sesion" data-source-line="11" id="ent0008"><rect fill="#F2AC4E" height="37.6094" rx="2.5" ry="2.5" style="stroke:#181818;stroke-width:0.5;" width="62.8066" x="530" y="396.3564"/><text fill="#000000" font-family="sans-serif" font-size="14" lengthAdjust="spacing" textLength="42.8066" x="540" y="420.8896">Sesion</text></g><!--entity Coordinador--><g class="entity" data-qualified-name="Coordinador" data-source-line="3" id="ent0001"><ellipse cx="805.5239" cy="100.8564" fill="#F1F1F1" rx="8" ry="8" style="stroke:#181818;stroke-width:0.5;"/><path d="M805.5239,108.8564 L805.5239,135.8564 M792.5239,116.8564 L818.5239,116.8564 M805.5239,135.8564 L792.5239,150.8564 M805.5239,135.8564 L818.5239,150.8564" fill="none" style="stroke:#181818;stroke-width:0.5;"/><text fill="#000000" font-family="sans-serif" font-size="14" lengthAdjust="spacing" textLength="77.0479" x="767" y="166.8896">Coordinador</text></g><!--entity SesionCerrada--><g class="entity" data-qualified-name="SesionCerrada" data-source-line="4" id="ent0002"><rect fill="#CDEBA5" height="37.6094" rx="2.5" ry="2.5" style="stroke:#181818;stroke-width:0.5;" width="153.0342" x="7" y="112.3564"/><text fill="#000000" font-family="sans-serif" font-size="14" lengthAdjust="spacing" textLength="133.0342" x="17" y="136.8896">:SESION_CERRADA</text></g><!--entity PanelPrincipalAbierto--><g class="entity" data-qualified-name="PanelPrincipalAbierto" data-source-line="14" id="ent0009"><rect fill="#CDEBA5" height="37.6094" rx="2.5" ry="2.5" style="stroke:#181818;stroke-width:0.5;" width="220.7373" x="879" y="112.3564"/><text fill="#000000" font-family="sans-serif" font-size="14" lengthAdjust="spacing" textLength="200.7373" x="889" y="136.8896">:PANEL_PRINCIPAL_ABIERTO</text></g><!--link SesionCerrada to IniciarSesionView--><g class="link" data-entity-1="ent0002" data-entity-2="ent0004" data-link-type="dependency" data-source-line="16" id="lnk10"><path d="M160.04,131.3564 C217.16,131.3564 289.36,131.3564 343.5,131.3564" fill="none" id="SesionCerrada-to-IniciarSesionView" style="stroke:#181818;stroke-width:1;"/><polygon fill="#181818" points="348.5,131.3564,339.5,127.3564,343.5,131.3564,339.5,135.3564,348.5,131.3564" style="stroke:#181818;stroke-width:1;stroke-linejoin:miter;stroke-miterlimit:10;"/><text fill="#000000" font-family="sans-serif" font-size="13" lengthAdjust="spacing" textLength="82.3608" x="213.25" y="124.8516">iniciarSesion()</text></g><!--link Coordinador to IniciarSesionView--><g class="link" data-entity-1="ent0001" data-entity-2="ent0004" data-link-type="dependency" data-source-line="18" id="lnk11"><path d="M766.97,131.3564 C699.89,131.3564 565.96,131.3564 483.67,131.3564" fill="none" id="Coordinador-to-IniciarSesionView" style="stroke:#181818;stroke-width:1;"/><polygon fill="#181818" points="478.67,131.3564,487.67,135.3564,483.67,131.3564,487.67,127.3564,478.67,131.3564" style="stroke:#181818;stroke-width:1;stroke-linejoin:miter;stroke-miterlimit:10;"/><text fill="#000000" font-family="sans-serif" font-size="13" lengthAdjust="spacing" textLength="252.1797" x="496.75" y="124.8516">introducirCredenciales(usuario, contrasena)</text></g><!--link IniciarSesionView to IniciarSesionController--><g class="link" data-entity-1="ent0004" data-entity-2="ent0005" data-link-type="dependency" data-source-line="20" id="lnk12"><path d="M367.33,150.3964 C315.78,170.5464 239.5,200.3564 239.5,200.3564 C239.5,200.3564 239.5,234.3564 239.5,234.3564 C239.5,234.3564 287.2465,249.2387 330.9465,262.8587" fill="none" id="IniciarSesionView-to-IniciarSesionController" style="stroke:#181818;stroke-width:1;"/><polygon fill="#181818" points="335.72,264.3464,328.3179,257.8496,330.9465,262.8587,325.9374,265.4873,335.72,264.3464" style="stroke:#181818;stroke-width:1;stroke-linejoin:miter;stroke-miterlimit:10;"/><text fill="#000000" font-family="sans-serif" font-size="13" lengthAdjust="spacing" textLength="230.5151" x="240.5" y="222.8516">autenticar(usuario, contrasena) : Sesion</text></g><!--link IniciarSesionController to IniciarSesionView--><g class="link" data-entity-1="ent0005" data-entity-2="ent0004" data-link-type="dependency" data-source-line="26" id="lnk15"><path d="M424.5,264.2064 C447.72,250.6164 475.5,234.3564 475.5,234.3564 C475.5,234.3564 475.5,200.3564 475.5,200.3564 C475.5,200.3564 451.8486,174.4214 433.4786,154.2714" fill="none" id="IniciarSesionController-to-IniciarSesionView" style="stroke:#181818;stroke-width:1;"/><polygon fill="#181818" points="430.11,150.5764,433.2174,159.9222,433.4786,154.2714,439.1294,154.5325,430.11,150.5764" style="stroke:#181818;stroke-width:1;stroke-linejoin:miter;stroke-miterlimit:10;"/><text fill="#000000" font-family="sans-serif" font-size="13" lengthAdjust="spacing" textLength="203.7534" x="476.5" y="214.8516">presentarCredencialesIncorrectas()</text><text fill="#000000" font-family="sans-serif" font-size="13" lengthAdjust="spacing" textLength="147.3989" x="504.6772" y="231.2031">[credenciales incorrectas]</text></g><!--link IniciarSesionController to UsuarioRepository--><g class="link" data-entity-1="ent0005" data-entity-2="ent0006" data-link-type="dependency" data-source-line="22" id="lnk13"><path d="M330.09,302.3664 C282.14,315.9864 224.5,332.3564 224.5,332.3564 C224.5,332.3564 224.5,366.3564 224.5,366.3564 C224.5,366.3564 233.7005,378.6161 243.8905,392.2061" fill="none" id="IniciarSesionController-to-UsuarioRepository" style="stroke:#181818;stroke-width:1;"/><polygon fill="#181818" points="246.89,396.2064,244.6911,386.6062,243.8905,392.2061,238.2906,391.4054,246.89,396.2064" style="stroke:#181818;stroke-width:1;stroke-linejoin:miter;stroke-miterlimit:10;"/><text fill="#000000" font-family="sans-serif" font-size="13" lengthAdjust="spacing" textLength="292.6396" x="225.5" y="354.8516">validarCredenciales(usuario, contrasena) : Usuario</text></g><!--link UsuarioRepository to Usuario--><g class="link" data-entity-1="ent0006" data-entity-2="ent0007" data-link-type="association" data-source-line="24" id="lnk14"><path d="M260.5,434.5964 C260.5,451.9464 260.5,477.8764 260.5,495.1964" fill="none" id="UsuarioRepository-Usuario" style="stroke:#181818;stroke-width:1;"/></g><!--link IniciarSesionController to Sesion--><g class="link" data-entity-1="ent0005" data-entity-2="ent0008" data-link-type="dependency" data-source-line="28" id="lnk16"><path d="M441.9,302.3664 C478.51,315.9864 522.5,332.3564 522.5,332.3564 C522.5,332.3564 539.2026,367.4811 550.6926,391.6411" fill="none" id="IniciarSesionController-to-Sesion" style="stroke:#181818;stroke-width:1;"/><polygon fill="#181818" points="552.84,396.1564,552.5869,386.3108,550.6926,391.6411,545.3623,389.7467,552.84,396.1564" style="stroke:#181818;stroke-width:1;stroke-linejoin:miter;stroke-miterlimit:10;"/><text fill="#000000" font-family="sans-serif" font-size="13" lengthAdjust="spacing" textLength="171.2471" x="539.5" y="346.8516">crearSesion(usuario) : Sesion</text><text fill="#000000" font-family="sans-serif" font-size="13" lengthAdjust="spacing" textLength="137.2808" x="556.4832" y="363.2031">[credenciales correctas]</text></g><!--link IniciarSesionView to PanelPrincipalAbierto--><g class="link" data-entity-1="ent0004" data-entity-2="ent0009" data-link-type="dependency" data-source-line="30" id="lnk17"><path d="M450.73,112.3164 C507.45,83.2964 609,31.3564 609,31.3564 C609,31.3564 748,31.3564 748,31.3564 C748,31.3564 861.5,48.3564 861.5,48.3564 C861.5,48.3564 918.1451,85.0857 955.9351,109.5957" fill="none" id="IniciarSesionView-to-PanelPrincipalAbierto" style="stroke:#181818;stroke-width:1;"/><polygon fill="#181818" points="960.13,112.3164,954.7557,104.0631,955.9351,109.5957,950.4025,110.775,960.13,112.3164" style="stroke:#181818;stroke-width:1;stroke-linejoin:miter;stroke-miterlimit:10;"/><text fill="#000000" font-family="sans-serif" font-size="13" lengthAdjust="spacing" textLength="117.7681" x="619.7563" y="20.8516">abrirPanelPrincipal()</text><text fill="#000000" font-family="sans-serif" font-size="13" lengthAdjust="spacing" textLength="137.2808" x="610" y="37.2031">[credenciales correctas]</text></g><?plantuml-src XL9DIyD04BtlhnZgfOAzY8hc8CGqGa1gIDMBIfbkXZAuxeP9gXJnlxirQlFHrjnstzltPjvB-SAsGC5NC6ofMXK4XJEhzK4fr9KJY9oJd2tcJfIGhj0k3C51D8wlmbCO1DDucjnEPb6SPU4u702MCAMIdOr817DKga3zWWi2jgmPfKRNl47hPdWuW0y5_clOd1rVnDSNa3I93qplNTxyT9wVdRTvaRELE6D8kkphup0wYU6-NAAmowXm9VjTL_jvEz3QJ7sghV6auII-cQLPCecIDBoPXLT9dDtTVkUKeYMJ2blD1PfmpYILKweL7unaTDdVFu1ETaerYjhpo2UIBpLB99IJDqP3vN1PBtW4UXqPbcJH2_RUmoZlocuo3W2N5TcADSfMGGX-er8x963avNkb1F26XdFyVsJly5kLwibuyGswRu0jiHL2tg1gZv1OxUIxyd9u-6GVTGFpGV-1p_ljwii0_FE_Dd-MsqJMbTyfNjUqRd_hp-LBcWjB6-jFtv3_0W00?></g></svg>