<svg xmlns="http://www.w3.org/2000/svg" xmlns:xlink="http://www.w3.org/1999/xlink" contentStyleType="text/css" data-diagram-type="STATE" height="788px" preserveAspectRatio="none" style="width:721px;height:788px;background:#FFFFFF;" version="1.1" viewBox="0 0 721 788" width="721px" zoomAndPan="magnify"><?plantuml 1.2026.3?><defs/><g><g class="entity" data-qualified-name="in2" id="ent0002"><rect fill="#F1F1F1" height="50" rx="12.5" ry="12.5" style="stroke:#181818;stroke-width:0.5;" width="182.5996" x="235" y="7"/><line style="stroke:#181818;stroke-width:0.5;" x1="235" x2="417.5996" y1="34.6094" y2="34.6094"/><text fill="#000000" font-family="sans-serif" font-size="14" lengthAdjust="spacing" textLength="162.5996" x="245" y="26.5332">PUBLICACION_ABIERTA</text></g><path d="M19.5,153 L633.5,153 A12.5,12.5 0 0 1 646,165.5 L646,180.6094 L7,180.6094 L7,165.5 A12.5,12.5 0 0 1 19.5,153" fill="#F1F1F1"/><rect fill="none" height="474.6094" rx="12.5" ry="12.5" style="stroke:#181818;stroke-width:0.5;" width="639" x="7" y="153"/><line style="stroke:#181818;stroke-width:0.5;" x1="7" x2="646" y1="180.6094" y2="180.6094"/><text fill="#000000" font-family="sans-serif" font-size="14" lengthAdjust="spacing" textLength="115.9443" x="268.5278" y="172.5332">editarPublicacion()</text><g class="entity" data-qualified-name="editarPublicacion.EditandoContenido" id="ent0004"><rect fill="#F1F1F1" height="50" rx="12.5" ry="12.5" style="stroke:#181818;stroke-width:0.5;" width="50" x="193" y="283.6094"/><line style="stroke:#181818;stroke-width:0.5;" x1="193" x2="243" y1="311.2188" y2="311.2188"/><text fill="#000000" font-family="sans-serif" font-size="14" lengthAdjust="spacing" textLength="3.8896" x="216.0552" y="303.1426">&#160;</text></g><g class="entity" data-qualified-name="editarPublicacion.CambiosGuardados" id="ent0005"><rect fill="#F1F1F1" height="50" rx="12.5" ry="12.5" style="stroke:#181818;stroke-width:0.5;" width="50" x="19" y="470.6094"/><line style="stroke:#181818;stroke-width:0.5;" x1="19" x2="69" y1="498.2188" y2="498.2188"/><text fill="#000000" font-family="sans-serif" font-size="14" lengthAdjust="spacing" textLength="3.8896" x="42.0552" y="490.1426">&#160;</text></g><g class="start_entity" data-qualified-name="editarPublicacion..start.editarPublicacion" data-source-line="16" id="ent0003"><ellipse cx="218" cy="201.6094" fill="#222222" rx="10" ry="10" style="stroke:#222222;stroke-width:1;"/></g><g class="end_entity" data-qualified-name="editarPublicacion..end.editarPublicacion" data-source-line="30" id="ent0006"><ellipse cx="211" cy="603.6094" fill="none" rx="11" ry="11" style="stroke:#222222;stroke-width:1;"/><ellipse cx="211" cy="603.6094" fill="#222222" rx="6" ry="6" style="stroke:#222222;stroke-width:1;"/></g><!--link *start*editarPublicacion to EditandoContenido--><g class="link" data-entity-1="ent0003" data-entity-2="ent0004" data-link-type="dependency" data-source-line="16" id="lnk4"><path d="M218,211.9294 C218,227.7894 218,254.5194 218,277.2494" fill="none" id="*start*editarPublicacion-to-EditandoContenido" style="stroke:#008000;stroke-width:1;"/><polygon fill="#008000" points="218,283.2494,222,274.2494,218,278.2494,214,274.2494,218,283.2494" style="stroke:#008000;stroke-width:1;"/><path d="M223,234.6094 L223,260.6094 L470,260.6094 L470,244.6094 L460,234.6094 L223,234.6094" fill="#FEFFDD" style="stroke:#181818;stroke-width:0.5;"/><path d="M460,234.6094 L460,244.6094 L470,244.6094 L460,234.6094" fill="#FEFFDD" style="stroke:#181818;stroke-width:0.5;"/><text fill="#000000" font-family="sans-serif" font-size="13" font-weight="700" lengthAdjust="spacing" textLength="77.9937" x="229" y="253.1045">Coordinador</text><text fill="#000000" font-family="sans-serif" font-size="13" lengthAdjust="spacing" textLength="144.5234" x="310.6055" y="253.1045">solicita editar publicaci&#243;n</text></g><!--link EditandoContenido to CambiosGuardados--><g class="link" data-entity-1="ent0004" data-entity-2="ent0005" data-link-type="dependency" data-source-line="21" id="lnk5"><path d="M192.81,316.2694 C147.97,328.1094 59,351.6094 59,351.6094 C59,351.6094 51.446,423.5821 47.166,464.3821" fill="none" id="EditandoContenido-to-CambiosGuardados" style="stroke:#008000;stroke-width:1;"/><polygon fill="#008000" points="46.54,470.3494,51.4571,461.8158,47.0616,465.3767,43.5008,460.9812,46.54,470.3494" style="stroke:#008000;stroke-width:1;"/><path d="M64,356.6094 L64,447.6094 L373,447.6094 L373,366.6094 L363,356.6094 L64,356.6094" fill="#FEFFDD" style="stroke:#181818;stroke-width:0.5;"/><path d="M363,356.6094 L363,366.6094 L373,366.6094 L363,356.6094" fill="#FEFFDD" style="stroke:#181818;stroke-width:0.5;"/><text fill="#000000" font-family="sans-serif" font-size="13" font-weight="700" lengthAdjust="spacing" textLength="49.8608" x="70" y="375.1045">Sistema</text><text fill="#000000" font-family="sans-serif" font-size="13" lengthAdjust="spacing" textLength="159.7324" x="123.4727" y="375.1045">presenta contenido editable</text><text fill="#000000" font-family="sans-serif" font-size="13" lengthAdjust="spacing" textLength="41.4058" x="70" y="391.4561">&#8226; T&#237;tulo</text><text fill="#000000" font-family="sans-serif" font-size="13" lengthAdjust="spacing" textLength="41.4058" x="70" y="407.8076">&#8226; Texto</text><text fill="#000000" font-family="sans-serif" font-size="13" font-weight="700" lengthAdjust="spacing" textLength="49.8608" x="70" y="424.1592">Sistema</text><text fill="#000000" font-family="sans-serif" font-size="13" lengthAdjust="spacing" textLength="190.0234" x="123.4727" y="424.1592">permite introducir modificaciones</text><text fill="#000000" font-family="sans-serif" font-size="13" font-weight="700" lengthAdjust="spacing" textLength="77.9937" x="70" y="440.5107">Coordinador</text><text fill="#000000" font-family="sans-serif" font-size="13" lengthAdjust="spacing" textLength="207.3779" x="151.6055" y="440.5107">introduce cambios y solicita guardar</text></g><!--link EditandoContenido to *end*editarPublicacion--><g class="link" data-entity-1="ent0004" data-entity-2="ent0006" data-link-type="dependency" data-source-line="30" id="lnk7"><path d="M243.35,316.2694 C288.47,328.1094 378,351.6094 378,351.6094 C378,351.6094 378,574.6094 378,574.6094 C378,574.6094 264.4774,593.6473 227.6174,599.8273" fill="none" id="EditandoContenido-to-*end*editarPublicacion" style="stroke:#FF0000;stroke-width:1;"/><polygon fill="#FF0000" points="221.7,600.8194,231.2375,603.2761,226.6312,599.9926,229.9147,595.3863,221.7,600.8194" style="stroke:#FF0000;stroke-width:1;"/><path d="M383,482.6094 L383,508.6094 L622,508.6094 L622,492.6094 L612,482.6094 L383,482.6094" fill="#FEFFDD" style="stroke:#181818;stroke-width:0.5;"/><path d="M612,482.6094 L612,492.6094 L622,492.6094 L612,482.6094" fill="#FEFFDD" style="stroke:#181818;stroke-width:0.5;"/><text fill="#000000" font-family="sans-serif" font-size="13" font-weight="700" lengthAdjust="spacing" textLength="77.9937" x="389" y="501.1045">Coordinador</text><text fill="#000000" font-family="sans-serif" font-size="13" lengthAdjust="spacing" textLength="137.2935" x="470.6055" y="501.1045">solicita cancelar edici&#243;n</text></g><!--link CambiosGuardados to *end*editarPublicacion--><g class="link" data-entity-1="ent0005" data-entity-2="ent0006" data-link-type="dependency" data-source-line="35" id="lnk8"><path d="M36.44,521.0394 C33.58,530.2794 31,538.6094 31,538.6094 C31,538.6094 31,574.6094 31,574.6094 C31,574.6094 155.6014,593.9868 194.3514,600.0168" fill="none" id="CambiosGuardados-to-*end*editarPublicacion" style="stroke:#008000;stroke-width:1;"/><polygon fill="#008000" points="200.28,600.9394,192.0021,595.6031,195.3395,600.1706,190.772,603.5079,200.28,600.9394" style="stroke:#008000;stroke-width:1;"/><path d="M36,543.6094 L36,569.6094 L373,569.6094 L373,553.6094 L363,543.6094 L36,543.6094" fill="#FEFFDD" style="stroke:#181818;stroke-width:0.5;"/><path d="M363,543.6094 L363,553.6094 L373,553.6094 L363,543.6094" fill="#FEFFDD" style="stroke:#181818;stroke-width:0.5;"/><text fill="#000000" font-family="sans-serif" font-size="13" font-weight="700" lengthAdjust="spacing" textLength="49.8608" x="42" y="562.1045">Sistema</text><text fill="#000000" font-family="sans-serif" font-size="13" lengthAdjust="spacing" textLength="263.0405" x="95.4727" y="562.1045">presenta confirmaci&#243;n de cambios guardados</text></g><g class="entity" data-qualified-name="PUBLICACION_ABIERTA" id="ent0009"><rect fill="#F1F1F1" height="50" rx="12.5" ry="12.5" style="stroke:#181818;stroke-width:0.5;" width="182.5996" x="27" y="724"/><line style="stroke:#181818;stroke-width:0.5;" x1="27" x2="209.5996" y1="751.6094" y2="751.6094"/><text fill="#000000" font-family="sans-serif" font-size="14" lengthAdjust="spacing" textLength="162.5996" x="37" y="743.5332">PUBLICACION_ABIERTA</text></g><g class="entity" data-qualified-name="PUBLICACIONES_ABIERTAS" id="ent0012"><rect fill="#F1F1F1" height="50" rx="12.5" ry="12.5" style="stroke:#181818;stroke-width:0.5;" width="210.6133" x="404" y="724"/><line style="stroke:#181818;stroke-width:0.5;" x1="404" x2="614.6133" y1="751.6094" y2="751.6094"/><text fill="#000000" font-family="sans-serif" font-size="14" lengthAdjust="spacing" textLength="190.6133" x="414" y="743.5332">PUBLICACIONES_ABIERTAS</text></g><!--link in2 to editarPublicacion--><g class="link" data-entity-1="ent0002" data-entity-2="ent0003" data-link-type="dependency" data-source-line="5" id="lnk2"><path d="M326.5,57.22 C326.5,79.16 326.5,107.95 326.5,146.91" fill="none" id="in2-to-editarPublicacion" style="stroke:#008000;stroke-width:1;"/><polygon fill="#008000" points="326.5,152.91,330.5,143.91,326.5,147.91,322.5,143.91,326.5,152.91" style="stroke:#008000;stroke-width:1;"/><path d="M331.5,92 L331.5,118 L459.5,118 L459.5,102 L449.5,92 L331.5,92" fill="#FEFFDD" style="stroke:#181818;stroke-width:0.5;"/><path d="M449.5,92 L449.5,102 L459.5,102 L449.5,92" fill="#FEFFDD" style="stroke:#181818;stroke-width:0.5;"/><text fill="#000000" font-family="sans-serif" font-size="13" lengthAdjust="spacing" textLength="107.6626" x="337.5" y="110.4951">editarPublicacion()</text></g><!--link editarPublicacion to PUBLICACION_ABIERTA--><g class="link" data-entity-1="ent0003" data-entity-2="ent0009" data-link-type="dependency" data-source-line="42" id="lnk10"><path d="M83.13,628.2 C64.36,646.47 52.5,658 52.5,658 C52.5,658 52.5,694 52.5,694 C52.5,694 66.7555,705.6714 84.3255,720.0414" fill="none" id="editarPublicacion-to-PUBLICACION_ABIERTA" style="stroke:#008000;stroke-width:1;"/><polygon fill="#008000" points="88.97,723.84,84.5357,715.0459,85.0996,720.6745,79.4709,721.2385,88.97,723.84" style="stroke:#008000;stroke-width:1;"/><path d="M57.5,663 L57.5,689 L190.5,689 L190.5,673 L180.5,663 L57.5,663" fill="#FEFFDD" style="stroke:#181818;stroke-width:0.5;"/><path d="M180.5,663 L180.5,673 L190.5,673 L180.5,663" fill="#FEFFDD" style="stroke:#181818;stroke-width:0.5;"/><text fill="#000000" font-family="sans-serif" font-size="13" lengthAdjust="spacing" textLength="112.7471" x="63.5" y="681.4951">Publicaci&#243;n editada</text></g><!--link editarPublicacion to PUBLICACION_ABIERTA--><g class="link" data-entity-1="ent0003" data-entity-2="ent0009" data-link-type="dependency" data-source-line="47" id="lnk11"><path d="M227.06,628.36 C210.99,666.63 199.5,694 199.5,694 C199.5,694 181.2927,706.1423 159.7327,720.5123" fill="none" id="editarPublicacion-to-PUBLICACION_ABIERTA-1" style="stroke:#FF0000;stroke-width:1;"/><polygon fill="#FF0000" points="154.74,723.84,164.4474,722.1769,158.9005,721.0669,160.0105,715.5201,154.74,723.84" style="stroke:#FF0000;stroke-width:1;"/><path d="M218.5,663 L218.5,689 L344.5,689 L344.5,673 L334.5,663 L218.5,663" fill="#FEFFDD" style="stroke:#181818;stroke-width:0.5;"/><path d="M334.5,663 L334.5,673 L344.5,673 L334.5,663" fill="#FEFFDD" style="stroke:#181818;stroke-width:0.5;"/><text fill="#000000" font-family="sans-serif" font-size="13" lengthAdjust="spacing" textLength="105.5171" x="224.5" y="681.4951">Edici&#243;n cancelada</text></g><!--link editarPublicacion to PUBLICACIONES_ABIERTAS--><g class="link" data-entity-1="ent0003" data-entity-2="ent0012" data-link-type="dependency" data-source-line="52" id="lnk13"><path d="M393.06,628.36 C403.81,666.63 411.5,694 411.5,694 C411.5,694 434.3144,706.5753 460.4044,720.9453" fill="none" id="editarPublicacion-to-PUBLICACIONES_ABIERTAS" style="stroke:#008000;stroke-width:1;"/><polygon fill="#008000" points="465.66,723.84,459.7065,715.9943,461.2804,721.4278,455.8469,723.0017,465.66,723.84" style="stroke:#008000;stroke-width:1;"/><path d="M416.5,663 L416.5,689 L557.5,689 L557.5,673 L547.5,663 L416.5,663" fill="#FEFFDD" style="stroke:#181818;stroke-width:0.5;"/><path d="M547.5,663 L547.5,673 L557.5,673 L547.5,663" fill="#FEFFDD" style="stroke:#181818;stroke-width:0.5;"/><text fill="#000000" font-family="sans-serif" font-size="13" lengthAdjust="spacing" textLength="120.6563" x="422.5" y="681.4951">eliminarPublicacion()</text></g><!--link editarPublicacion to PUBLICACIONES_ABIERTAS--><g class="link" data-entity-1="ent0003" data-entity-2="ent0012" data-link-type="dependency" data-source-line="57" id="lnk14"><path d="M539.67,628.2 C556.12,646.47 566.5,658 566.5,658 C566.5,658 566.5,694 566.5,694 C566.5,694 554.5373,705.3452 539.3573,719.7152" fill="none" id="editarPublicacion-to-PUBLICACIONES_ABIERTAS-1" style="stroke:#008000;stroke-width:1;"/><polygon fill="#008000" points="535,723.84,544.2858,720.5577,538.6311,720.4027,538.7861,714.7479,535,723.84" style="stroke:#008000;stroke-width:1;"/><path d="M571.5,663 L571.5,689 L706.5,689 L706.5,673 L696.5,663 L571.5,663" fill="#FEFFDD" style="stroke:#181818;stroke-width:0.5;"/><path d="M696.5,663 L696.5,673 L706.5,673 L696.5,663" fill="#FEFFDD" style="stroke:#181818;stroke-width:0.5;"/><text fill="#000000" font-family="sans-serif" font-size="13" lengthAdjust="spacing" textLength="114.8799" x="577.5" y="681.4951">abrirPublicaciones()</text></g><?plantuml-src fLJTIiCm5BxFKuHwey8Gl1w3hHGPY0uthyQGj3aRXxL9IL9mYE2pUE-LZx0tyKbC_zPsRPrYUvNadEzyv_jEehSeOgPOH4CKO7Onq5Y6ktH1Y3RC04LnJPccpknnSZjrn-xq_kvfF9bw3uknGzB3mV9iem34QZ2YmD4mDKly40CMe1H4I8iXHOg_9QtZymi2WjCqY9G5Mq5P-OvKXxuGGksNvpdsjv5U6YYuTAKm893BTeZB8X-blacOuenBdQCiBrUDNhg16lsa6qD_v4gfE0eBfOPN_eXgQKdQvA8L6fUizvyYowbwJbUjGWqQBR9zBEQe3KGiOn0hq20iW-20cN7nGyZ2lzxUwMB_OP9GLcjuDh8J35I4sIGO9NaIeAAHvBWkZ03TfqEP03J8cw2xIfjDrf3whHuAUAg6DUdlDWHC111Q8wm6VIOSozpmuAUgVRAlKKMvvPHN0cmQDXuelDhfRyzzdKB7zMlUhLbjo7ApEQjThaxqGjIJs5wXMwdaQUGktjwyH9yVFGiXHjQtteVX_nMOhx0E0BhvyX3o3G00?></g></svg>