<svg xmlns="http://www.w3.org/2000/svg" xmlns:xlink="http://www.w3.org/1999/xlink" contentStyleType="text/css" data-diagram-type="DESCRIPTION" height="442px" preserveAspectRatio="none" style="width:1254px;height:442px;background:#FFFFFF;" version="1.1" viewBox="0 0 1254 442" width="1254px" zoomAndPan="magnify"><?plantuml 1.2026.4?><defs/><g><!--cluster eliminarInvestigador--><g class="cluster" data-qualified-name="eliminarInvestigador" data-source-line="4" id="ent0002"><path d="M197.5,6 L344.7549,6 A3.75,3.75 0 0 1 347.2549,8.5 L354.2549,29.6094 L561.5,29.6094 A2.5,2.5 0 0 1 564,32.1094 L564,424.5 A2.5,2.5 0 0 1 561.5,427 L197.5,427 A2.5,2.5 0 0 1 195,424.5 L195,8.5 A2.5,2.5 0 0 1 197.5,6" fill="none" style="stroke:#000000;stroke-width:1.5;"/><line style="stroke:#000000;stroke-width:1.5;" x1="195" x2="354.2549" y1="29.6094" y2="29.6094"/><text fill="#000000" font-family="sans-serif" font-size="14" font-weight="700" lengthAdjust="spacing" textLength="146.2549" x="199" y="22.5332">eliminarInvestigador()</text></g><!--entity EliminarInvestigadorView--><g class="entity" data-qualified-name="eliminarInvestigador.EliminarInvestigadorView" data-source-line="5" id="ent0003"><rect fill="#629EF9" height="37.6094" rx="2.5" ry="2.5" style="stroke:#181818;stroke-width:0.5;" width="177.1787" x="354.5" y="42"/><text fill="#000000" font-family="sans-serif" font-size="14" lengthAdjust="spacing" textLength="157.1787" x="364.5" y="66.5332">EliminarInvestigadorView</text></g><!--entity InvestigadorController--><g class="entity" data-qualified-name="eliminarInvestigador.InvestigadorController" data-source-line="6" id="ent0004"><rect fill="#B5BD68" height="37.6094" rx="2.5" ry="2.5" style="stroke:#181818;stroke-width:0.5;" width="156.958" x="256.5" y="158"/><text fill="#000000" font-family="sans-serif" font-size="14" lengthAdjust="spacing" textLength="136.958" x="266.5" y="182.5332">InvestigadorController</text></g><!--entity InvestigadorRepository--><g class="entity" data-qualified-name="eliminarInvestigador.InvestigadorRepository" data-source-line="7" id="ent0005"><rect fill="#F2AC4E" height="37.6094" rx="2.5" ry="2.5" style="stroke:#181818;stroke-width:0.5;" width="163.1855" x="266.5" y="274"/><text fill="#000000" font-family="sans-serif" font-size="14" lengthAdjust="spacing" textLength="143.1855" x="276.5" y="298.5332">InvestigadorRepository</text></g><!--entity Investigador--><g class="entity" data-qualified-name="eliminarInvestigador.Investigador" data-source-line="8" id="ent0006"><rect fill="#F2AC4E" height="37.6094" rx="2.5" ry="2.5" style="stroke:#181818;stroke-width:0.5;" width="96.2686" x="300" y="373"/><text fill="#000000" font-family="sans-serif" font-size="14" lengthAdjust="spacing" textLength="76.2686" x="310" y="397.5332">Investigador</text></g><!--entity EstadoEntrada--><g class="entity" data-qualified-name="EstadoEntrada" data-source-line="3" id="ent0001"><rect fill="#CDEBA5" height="37.6094" rx="2.5" ry="2.5" style="stroke:#181818;stroke-width:0.5;" width="171.6963" x="7" y="42"/><text fill="#000000" font-family="sans-serif" font-size="14" lengthAdjust="spacing" textLength="151.6963" x="17" y="66.5332">:PROYECTO_ABIERTO</text></g><!--entity EstadoSalida--><g class="entity" data-qualified-name="EstadoSalida" data-source-line="11" id="ent0007"><rect fill="#CDEBA5" height="37.6094" rx="2.5" ry="2.5" style="stroke:#181818;stroke-width:0.5;" width="171.6963" x="580" y="158"/><text fill="#000000" font-family="sans-serif" font-size="14" lengthAdjust="spacing" textLength="151.6963" x="590" y="182.5332">:PROYECTO_ABIERTO</text></g><!--entity AbrirEntregables--><g class="entity" data-qualified-name="AbrirEntregables" data-source-line="12" id="ent0008"><rect fill="#CDEBA5" height="37.6094" rx="2.5" ry="2.5" style="stroke:#181818;stroke-width:0.5;" width="214.5508" x="787.5" y="158"/><text fill="#000000" font-family="sans-serif" font-size="14" lengthAdjust="spacing" textLength="194.5508" x="797.5" y="182.5332">:Collaboration AbrirEntregables</text></g><!--entity AbrirProyectos--><g class="entity" data-qualified-name="AbrirProyectos" data-source-line="13" id="ent0009"><rect fill="#CDEBA5" height="37.6094" rx="2.5" ry="2.5" style="stroke:#181818;stroke-width:0.5;" width="202.082" x="1038" y="158"/><text fill="#000000" font-family="sans-serif" font-size="14" lengthAdjust="spacing" textLength="182.082" x="1048" y="182.5332">:Collaboration AbrirProyectos</text></g><!--link EstadoEntrada to EliminarInvestigadorView--><g class="link" data-entity-1="ent0001" data-entity-2="ent0003" data-link-type="dependency" data-source-line="15" id="lnk10"><path d="M179.07,61 C232.3,61 295.49,61 349.22,61" fill="none" id="EstadoEntrada-to-EliminarInvestigadorView" style="stroke:#181818;stroke-width:1;"/><polygon fill="#181818" points="354.22,61,345.22,57,349.22,61,345.22,65,354.22,61" style="stroke:#181818;stroke-width:1;stroke-linejoin:miter;stroke-miterlimit:10;"/><text fill="#000000" font-family="sans-serif" font-size="13" lengthAdjust="spacing" textLength="124.9917" x="204.75" y="54.4951">eliminarInvestigador()</text></g><!--link EliminarInvestigadorView to InvestigadorController--><g class="link" data-entity-1="ent0003" data-entity-2="ent0004" data-link-type="dependency" data-source-line="17" id="lnk11"><path d="M367.96,80.01 C311.21,93.63 243,110 243,110 C243,110 243,128 243,128 C243,128 269.9473,142.0568 296.0473,155.6768" fill="none" id="EliminarInvestigadorView-to-InvestigadorController" style="stroke:#181818;stroke-width:1;"/><polygon fill="#181818" points="300.48,157.99,294.3516,150.2801,296.0473,155.6768,290.6505,157.3725,300.48,157.99" style="stroke:#181818;stroke-width:1;stroke-linejoin:miter;stroke-miterlimit:10;"/><text fill="#000000" font-family="sans-serif" font-size="13" lengthAdjust="spacing" textLength="135.1099" x="244" y="124.4951">eliminarInvestigador(id)</text></g><!--link EliminarInvestigadorView to InvestigadorController--><g class="link" data-entity-1="ent0003" data-entity-2="ent0004" data-link-type="dependency" data-source-line="18" id="lnk12"><path d="M426.88,80.03 C409.41,99.58 384,128 384,128 C384,128 370.9727,140.762 357.0927,154.352" fill="none" id="EliminarInvestigadorView-to-InvestigadorController-1" style="stroke:#181818;stroke-width:1;"/><polygon fill="#181818" points="353.52,157.85,362.7492,154.4117,357.0927,154.352,357.1524,148.6954,353.52,157.85" style="stroke:#181818;stroke-width:1;stroke-linejoin:miter;stroke-miterlimit:10;"/><text fill="#000000" font-family="sans-serif" font-size="13" lengthAdjust="spacing" textLength="123.5444" x="400" y="124.4951">validarEliminacion(id)</text></g><!--link InvestigadorController to InvestigadorRepository--><g class="link" data-entity-1="ent0004" data-entity-2="ent0005" data-link-type="dependency" data-source-line="19" id="lnk13"><path d="M308.91,196.15 C289.37,209.74 266,226 266,226 C266,226 266,244 266,244 C266,244 289.4647,257.7344 312.6847,271.3244" fill="none" id="InvestigadorController-to-InvestigadorRepository" style="stroke:#181818;stroke-width:1;"/><polygon fill="#181818" points="317,273.85,311.253,265.8517,312.6847,271.3244,307.2121,272.7561,317,273.85" style="stroke:#181818;stroke-width:1;stroke-linejoin:miter;stroke-miterlimit:10;"/><text fill="#000000" font-family="sans-serif" font-size="13" lengthAdjust="spacing" textLength="93.939" x="267" y="240.4951">obtenerPorId(id)</text></g><!--link InvestigadorController to InvestigadorRepository--><g class="link" data-entity-1="ent0004" data-entity-2="ent0005" data-link-type="dependency" data-source-line="20" id="lnk14"><path d="M346.34,196.15 C354.84,209.74 365,226 365,226 C365,226 365,244 365,244 C365,244 360.9083,255.5465 356.0983,269.1365" fill="none" id="InvestigadorController-to-InvestigadorRepository-1" style="stroke:#181818;stroke-width:1;"/><polygon fill="#181818" points="354.43,273.85,361.2037,266.7004,356.0983,269.1365,353.6621,264.0311,354.43,273.85" style="stroke:#181818;stroke-width:1;stroke-linejoin:miter;stroke-miterlimit:10;"/><text fill="#000000" font-family="sans-serif" font-size="13" lengthAdjust="spacing" textLength="64.2891" x="366" y="240.4951">eliminar(id)</text></g><!--link InvestigadorRepository to Investigador--><g class="link" data-entity-1="ent0005" data-entity-2="ent0006" data-link-type="association" data-source-line="21" id="lnk15"><path d="M348,312.24 C348,329.59 348,355.52 348,372.84" fill="none" id="InvestigadorRepository-Investigador" style="stroke:#181818;stroke-width:1;"/></g><!--link EliminarInvestigadorView to EstadoSalida--><g class="link" data-entity-1="ent0003" data-entity-2="ent0007" data-link-type="dependency" data-source-line="22" id="lnk16"><path d="M478.34,80.06 C519.97,101.35 584.2881,134.2239 626.0081,155.5539" fill="none" id="EliminarInvestigadorView-to-EstadoSalida" style="stroke:#181818;stroke-width:1;stroke-dasharray:7,7;"/><polygon fill="#181818" points="630.46,157.83,624.2675,150.1715,626.0081,155.5539,620.6257,157.2945,630.46,157.83" style="stroke:#181818;stroke-width:1;stroke-linejoin:miter;stroke-miterlimit:10;"/><text fill="#000000" font-family="sans-serif" font-size="13" lengthAdjust="spacing" textLength="130.7935" x="568" y="124.4951">continuarNavegacion()</text></g><!--link EliminarInvestigadorView to AbrirEntregables--><g class="link" data-entity-1="ent0003" data-entity-2="ent0008" data-link-type="dependency" data-source-line="23" id="lnk17"><path d="M531.64,78.12 C608.34,92.06 707,110 707,110 C707,110 783.2424,136.7633 838.9124,156.3133" fill="none" id="EliminarInvestigadorView-to-AbrirEntregables" style="stroke:#181818;stroke-width:1;stroke-dasharray:7,7;"/><polygon fill="#181818" points="843.63,157.97,836.4638,151.2139,838.9124,156.3133,833.813,158.762,843.63,157.97" style="stroke:#181818;stroke-width:1;stroke-linejoin:miter;stroke-miterlimit:10;"/><text fill="#000000" font-family="sans-serif" font-size="13" lengthAdjust="spacing" textLength="104.0444" x="758" y="124.4951">abrirEntregables()</text></g><!--link EliminarInvestigadorView to AbrirProyectos--><g class="link" data-entity-1="ent0003" data-entity-2="ent0009" data-link-type="dependency" data-source-line="24" id="lnk18"><path d="M531.68,71.95 C657.05,86.01 871,110 871,110 C871,110 981.5652,137.2239 1060.9152,156.7739" fill="none" id="EliminarInvestigadorView-to-AbrirProyectos" style="stroke:#181818;stroke-width:1;stroke-dasharray:7,7;"/><polygon fill="#181818" points="1065.77,157.97,1057.9882,151.9331,1060.9152,156.7739,1056.0744,159.7008,1065.77,157.97" style="stroke:#181818;stroke-width:1;stroke-linejoin:miter;stroke-miterlimit:10;"/><text fill="#000000" font-family="sans-serif" font-size="13" lengthAdjust="spacing" textLength="92.4663" x="943" y="124.4951">abrirProyectos()</text></g><?plantuml-src dPBFQy8m5CVl-IiUtMKUz21JPWz2xI9ucU9aiDDuRKC9ngIyPeuozhyl5gUsjiKjjxnylv-yN_bMwWm9Tw2a5hR816H65OSBOoHYYpfL0kx29puBHk3vg_NoZOURvNimM_3rPka1vi1pYudXsX8co3ACjvWA44hkf4PQwBt8hKoTX0vgh-dXlkV15mDtBduT3oTyFW7Ue7-LuhCkZqPHCdw4IrbeN596AK5ryNmOX0-y8bwBpEJI6Yfk4BFlFpVe1PLq_MboXIv7Z0oXbKP3496aGpj5Yf4IUSce1s_bhCWKJcakAASGOvNHGP_wqzPs-z0yE0TfSK0_SRpcURJGPDBhm7NGzcLpwUYDNVabgrb-HJgFtWSJMQ45hGmjalyoVckxyfz5pbzTgDQo1uDfPODyY5qMKdyWFUFUhKDPRQyRK5yV7x0MkObmMfsZ_tHtxXy0?></g></svg>