<svg xmlns="http://www.w3.org/2000/svg" xmlns:xlink="http://www.w3.org/1999/xlink" contentStyleType="text/css" data-diagram-type="DESCRIPTION" height="442px" preserveAspectRatio="none" style="width:3303px;height:442px;background:#FFFFFF;" version="1.1" viewBox="0 0 3303 442" width="3303px" zoomAndPan="magnify"><?plantuml 1.2026.5?><defs/><g><!--cluster eliminarInvestigador--><g class="cluster" data-qualified-name="eliminarInvestigador" data-source-line="4" id="ent0002"><path d="M197.5,6 L344.7549,6 A3.75,3.75 0 0 1 347.2549,8.5 L354.2549,29.6094 L1313.5,29.6094 A2.5,2.5 0 0 1 1316,32.1094 L1316,424.5 A2.5,2.5 0 0 1 1313.5,427 L197.5,427 A2.5,2.5 0 0 1 195,424.5 L195,8.5 A2.5,2.5 0 0 1 197.5,6" fill="none" style="stroke:#000000;stroke-width:1.5;"/><line style="stroke:#000000;stroke-width:1.5;" x1="195" x2="354.2549" y1="29.6094" y2="29.6094"/><text fill="#000000" font-family="sans-serif" font-size="14" font-weight="700" lengthAdjust="spacing" textLength="146.2549" x="199" y="22.5332">eliminarInvestigador()</text></g><!--entity EliminarInvestigadorView--><g class="entity" data-qualified-name="eliminarInvestigador.EliminarInvestigadorView" data-source-line="5" id="ent0003"><rect fill="#629EF9" height="37.6094" rx="2.5" ry="2.5" style="stroke:#181818;stroke-width:0.5;" width="177.1787" x="1122.5" y="42"/><text fill="#000000" font-family="sans-serif" font-size="14" lengthAdjust="spacing" textLength="157.1787" x="1132.5" y="66.5332">EliminarInvestigadorView</text></g><!--entity ProyectoController--><g class="entity" data-qualified-name="eliminarInvestigador.ProyectoController" data-source-line="6" id="ent0004"><rect fill="#B5BD68" height="37.6094" rx="2.5" ry="2.5" style="stroke:#181818;stroke-width:0.5;" width="135.9375" x="561" y="158"/><text fill="#000000" font-family="sans-serif" font-size="14" lengthAdjust="spacing" textLength="115.9375" x="571" y="182.5332">ProyectoController</text></g><!--entity ProyectoRepository--><g class="entity" data-qualified-name="eliminarInvestigador.ProyectoRepository" data-source-line="7" id="ent0005"><rect fill="#F2AC4E" height="37.6094" rx="2.5" ry="2.5" style="stroke:#181818;stroke-width:0.5;" width="142.165" x="286" y="274"/><text fill="#000000" font-family="sans-serif" font-size="14" lengthAdjust="spacing" textLength="122.165" x="296" y="298.5332">ProyectoRepository</text></g><!--entity InvestigadorRepository--><g class="entity" data-qualified-name="eliminarInvestigador.InvestigadorRepository" data-source-line="8" id="ent0006"><rect fill="#F2AC4E" height="37.6094" rx="2.5" ry="2.5" style="stroke:#181818;stroke-width:0.5;" width="163.1855" x="683.5" y="274"/><text fill="#000000" font-family="sans-serif" font-size="14" lengthAdjust="spacing" textLength="143.1855" x="693.5" y="298.5332">InvestigadorRepository</text></g><!--entity EntregableRepository--><g class="entity" data-qualified-name="eliminarInvestigador.EntregableRepository" data-source-line="9" id="ent0007"><rect fill="#F2AC4E" height="37.6094" rx="2.5" ry="2.5" style="stroke:#181818;stroke-width:0.5;" width="154.6338" x="893.5" y="274"/><text fill="#000000" font-family="sans-serif" font-size="14" lengthAdjust="spacing" textLength="134.6338" x="903.5" y="298.5332">EntregableRepository</text></g><!--entity Proyecto--><g class="entity" data-qualified-name="eliminarInvestigador.Proyecto" data-source-line="10" id="ent0008"><rect fill="#F2AC4E" height="37.6094" rx="2.5" ry="2.5" style="stroke:#181818;stroke-width:0.5;" width="75.248" x="319.5" y="373"/><text fill="#000000" font-family="sans-serif" font-size="14" lengthAdjust="spacing" textLength="55.248" x="329.5" y="397.5332">Proyecto</text></g><!--entity Investigador--><g class="entity" data-qualified-name="eliminarInvestigador.Investigador" data-source-line="11" id="ent0009"><rect fill="#F2AC4E" height="37.6094" rx="2.5" ry="2.5" style="stroke:#181818;stroke-width:0.5;" width="96.2686" x="717" y="373"/><text fill="#000000" font-family="sans-serif" font-size="14" lengthAdjust="spacing" textLength="76.2686" x="727" y="397.5332">Investigador</text></g><!--entity Entregable--><g class="entity" data-qualified-name="eliminarInvestigador.Entregable" data-source-line="12" id="ent0010"><rect fill="#F2AC4E" height="37.6094" rx="2.5" ry="2.5" style="stroke:#181818;stroke-width:0.5;" width="87.7168" x="927" y="373"/><text fill="#000000" font-family="sans-serif" font-size="14" lengthAdjust="spacing" textLength="67.7168" x="937" y="397.5332">Entregable</text></g><!--entity EstadoEntrada--><g class="entity" data-qualified-name="EstadoEntrada" data-source-line="3" id="ent0001"><rect fill="#CDEBA5" height="37.6094" rx="2.5" ry="2.5" style="stroke:#181818;stroke-width:0.5;" width="171.6963" x="7" y="42"/><text fill="#000000" font-family="sans-serif" font-size="14" lengthAdjust="spacing" textLength="151.6963" x="17" y="66.5332">:PROYECTO_ABIERTO</text></g><!--entity EstadoSalida--><g class="entity" data-qualified-name="EstadoSalida" data-source-line="15" id="ent0011"><rect fill="#CDEBA5" height="37.6094" rx="2.5" ry="2.5" style="stroke:#181818;stroke-width:0.5;" width="171.6963" x="1332" y="158"/><text fill="#000000" font-family="sans-serif" font-size="14" lengthAdjust="spacing" textLength="151.6963" x="1342" y="182.5332">:PROYECTO_ABIERTO</text></g><!--entity EditarProyecto--><g class="entity" data-qualified-name="EditarProyecto" data-source-line="16" id="ent0012"><rect fill="#CDEBA5" height="37.6094" rx="2.5" ry="2.5" style="stroke:#181818;stroke-width:0.5;" width="202.0957" x="1539" y="158"/><text fill="#000000" font-family="sans-serif" font-size="14" lengthAdjust="spacing" textLength="182.0957" x="1549" y="182.5332">:Collaboration EditarProyecto</text></g><!--entity EliminarProyecto--><g class="entity" data-qualified-name="EliminarProyecto" data-source-line="17" id="ent0013"><rect fill="#CDEBA5" height="37.6094" rx="2.5" ry="2.5" style="stroke:#181818;stroke-width:0.5;" width="216.0889" x="1776" y="158"/><text fill="#000000" font-family="sans-serif" font-size="14" lengthAdjust="spacing" textLength="196.0889" x="1786" y="182.5332">:Collaboration EliminarProyecto</text></g><!--entity AgregarInvestigador--><g class="entity" data-qualified-name="AgregarInvestigador" data-source-line="18" id="ent0014"><rect fill="#CDEBA5" height="37.6094" rx="2.5" ry="2.5" style="stroke:#181818;stroke-width:0.5;" width="236.3506" x="2027" y="158"/><text fill="#000000" font-family="sans-serif" font-size="14" lengthAdjust="spacing" textLength="216.3506" x="2037" y="182.5332">:Collaboration AgregarInvestigador</text></g><!--entity EliminarInvestigador--><g class="entity" data-qualified-name="EliminarInvestigador" data-source-line="19" id="ent0015"><rect fill="#CDEBA5" height="37.6094" rx="2.5" ry="2.5" style="stroke:#181818;stroke-width:0.5;" width="237.1094" x="2298.5" y="158"/><text fill="#000000" font-family="sans-serif" font-size="14" lengthAdjust="spacing" textLength="217.1094" x="2308.5" y="182.5332">:Collaboration EliminarInvestigador</text></g><!--entity AbrirEntregables--><g class="entity" data-qualified-name="AbrirEntregables" data-source-line="20" id="ent0016"><rect fill="#CDEBA5" height="37.6094" rx="2.5" ry="2.5" style="stroke:#181818;stroke-width:0.5;" width="214.5508" x="2570.5" y="158"/><text fill="#000000" font-family="sans-serif" font-size="14" lengthAdjust="spacing" textLength="194.5508" x="2580.5" y="182.5332">:Collaboration AbrirEntregables</text></g><!--entity AbrirInvestigadores--><g class="entity" data-qualified-name="AbrirInvestigadores" data-source-line="21" id="ent0017"><rect fill="#CDEBA5" height="37.6094" rx="2.5" ry="2.5" style="stroke:#181818;stroke-width:0.5;" width="230.8887" x="2820.5" y="158"/><text fill="#000000" font-family="sans-serif" font-size="14" lengthAdjust="spacing" textLength="210.8887" x="2830.5" y="182.5332">:Collaboration AbrirInvestigadores</text></g><!--entity AbrirProyectos--><g class="entity" data-qualified-name="AbrirProyectos" data-source-line="22" id="ent0018"><rect fill="#CDEBA5" height="37.6094" rx="2.5" ry="2.5" style="stroke:#181818;stroke-width:0.5;" width="202.082" x="3087" y="158"/><text fill="#000000" font-family="sans-serif" font-size="14" lengthAdjust="spacing" textLength="182.082" x="3097" y="182.5332">:Collaboration AbrirProyectos</text></g><!--link EstadoEntrada to EliminarInvestigadorView--><g class="link" data-entity-1="ent0001" data-entity-2="ent0003" data-link-type="dependency" data-source-line="24" id="lnk19"><path d="M179.33,61 C386.9,61 907.2,61 1117.23,61" fill="none" id="EstadoEntrada-to-EliminarInvestigadorView" style="stroke:#181818;stroke-width:1;"/><polygon fill="#181818" points="1122.23,61,1113.23,57,1117.23,61,1113.23,65,1122.23,61" style="stroke:#181818;stroke-width:1;stroke-linejoin:miter;stroke-miterlimit:10;"/><text fill="#000000" font-family="sans-serif" font-size="13" lengthAdjust="spacing" textLength="273.8569" x="514.25" y="54.4951">eliminarInvestigador(proyectoId, investigadorId)</text></g><!--link EliminarInvestigadorView to ProyectoController--><g class="link" data-entity-1="ent0003" data-entity-2="ent0004" data-link-type="dependency" data-source-line="26" id="lnk20"><path d="M1122.15,66.58 C889.45,78.58 280,110 280,110 C280,110 280,128 280,128 C280,128 454.3666,151.9786 555.9266,165.9486" fill="none" id="EliminarInvestigadorView-to-ProyectoController" style="stroke:#181818;stroke-width:1;"/><polygon fill="#181818" points="560.88,166.63,552.509,161.4409,555.9266,165.9486,551.4189,169.3662,560.88,166.63" style="stroke:#181818;stroke-width:1;stroke-linejoin:miter;stroke-miterlimit:10;"/><text fill="#000000" font-family="sans-serif" font-size="13" lengthAdjust="spacing" textLength="304.9351" x="281" y="124.4951">comprobarDesasignacion(proyectoId, investigadorId)</text></g><!--link ProyectoController to EliminarInvestigadorView--><g class="link" data-entity-1="ent0004" data-entity-2="ent0003" data-link-type="dependency" data-source-line="30" id="lnk24"><path d="M697.22,165.05 C785.47,150.88 928,128 928,128 C928,128 995,110 995,110 C995,110 1063.779,94.7145 1125.079,81.0945" fill="none" id="ProyectoController-to-EliminarInvestigadorView" style="stroke:#181818;stroke-width:1;"/><polygon fill="#181818" points="1129.96,80.01,1120.3067,78.0573,1125.079,81.0945,1122.0418,85.8668,1129.96,80.01" style="stroke:#181818;stroke-width:1;stroke-linejoin:miter;stroke-miterlimit:10;"/><text fill="#000000" font-family="sans-serif" font-size="13" lengthAdjust="spacing" textLength="207.3716" x="996" y="124.4951">presentarResultadoYConfirmacion()</text></g><!--link EliminarInvestigadorView to ProyectoController--><g class="link" data-entity-1="ent0003" data-entity-2="ent0004" data-link-type="dependency" data-source-line="31" id="lnk25"><path d="M1122.18,69.24 C957.64,82.65 622,110 622,110 C622,110 622,128 622,128 C622,128 623.6491,139.3122 625.6291,152.9022" fill="none" id="EliminarInvestigadorView-to-ProyectoController-1" style="stroke:#181818;stroke-width:1;"/><polygon fill="#181818" points="626.35,157.85,629.0107,148.3673,625.6291,152.9022,621.0942,149.5207,626.35,157.85" style="stroke:#181818;stroke-width:1;stroke-linejoin:miter;stroke-miterlimit:10;"/><text fill="#000000" font-family="sans-serif" font-size="13" lengthAdjust="spacing" textLength="296.9751" x="623" y="124.4951">confirmarDesasignacion(proyectoId, investigadorId)</text></g><!--link ProyectoController to ProyectoRepository--><g class="link" data-entity-1="ent0004" data-entity-2="ent0005" data-link-type="dependency" data-source-line="27" id="lnk21"><path d="M560.88,186.47 C450.07,200.25 243,226 243,226 C243,226 243,244 243,244 C243,244 277.2718,258.4298 309.6218,272.0498" fill="none" id="ProyectoController-to-ProyectoRepository" style="stroke:#181818;stroke-width:1;"/><polygon fill="#181818" points="314.23,273.99,307.4873,266.8111,309.6218,272.0498,304.3831,274.1843,314.23,273.99" style="stroke:#181818;stroke-width:1;stroke-linejoin:miter;stroke-miterlimit:10;"/><text fill="#000000" font-family="sans-serif" font-size="13" lengthAdjust="spacing" textLength="144.5234" x="244" y="240.4951">obtenerPorId(proyectoId)</text></g><!--link ProyectoController to ProyectoRepository--><g class="link" data-entity-1="ent0004" data-entity-2="ent0005" data-link-type="dependency" data-source-line="32" id="lnk26"><path d="M560.79,194.05 C501.48,208 425,226 425,226 C425,226 399.2968,250.9365 379.1668,270.4865" fill="none" id="ProyectoController-to-ProyectoRepository-1" style="stroke:#181818;stroke-width:1;"/><polygon fill="#181818" points="375.58,273.97,384.8231,270.5692,379.1668,270.4865,379.2495,264.8303,375.58,273.97" style="stroke:#181818;stroke-width:1;stroke-linejoin:miter;stroke-miterlimit:10;"/><text fill="#000000" font-family="sans-serif" font-size="13" lengthAdjust="spacing" textLength="291.2114" x="426" y="240.4951">desasociarInvestigador(proyectoId, investigadorId)</text></g><!--link ProyectoController to InvestigadorRepository--><g class="link" data-entity-1="ent0004" data-entity-2="ent0006" data-link-type="dependency" data-source-line="28" id="lnk22"><path d="M665.4,196.01 C692.92,209.63 726,226 726,226 C726,226 740.2584,250.1142 751.7984,269.6642" fill="none" id="ProyectoController-to-InvestigadorRepository" style="stroke:#181818;stroke-width:1;"/><polygon fill="#181818" points="754.34,273.97,753.2097,264.1862,751.7984,269.6642,746.3204,268.2528,754.34,273.97" style="stroke:#181818;stroke-width:1;stroke-linejoin:miter;stroke-miterlimit:10;"/><text fill="#000000" font-family="sans-serif" font-size="13" lengthAdjust="spacing" textLength="164.7598" x="737" y="240.4951">obtenerPorId(investigadorId)</text></g><!--link ProyectoController to EntregableRepository--><g class="link" data-entity-1="ent0004" data-entity-2="ent0007" data-link-type="dependency" data-source-line="29" id="lnk23"><path d="M697.02,189.62 C780.18,203.83 910,226 910,226 C910,226 932.8772,250.7473 950.9372,270.2973" fill="none" id="ProyectoController-to-EntregableRepository" style="stroke:#181818;stroke-width:1;"/><polygon fill="#181818" points="954.33,273.97,951.1611,264.6449,950.9372,270.2973,945.2848,270.0733,954.33,273.97" style="stroke:#181818;stroke-width:1;stroke-linejoin:miter;stroke-miterlimit:10;"/><text fill="#000000" font-family="sans-serif" font-size="13" lengthAdjust="spacing" textLength="327.374" x="927" y="240.4951">obtenerPendientesAsignados(proyectoId, investigadorId)</text></g><!--link ProyectoRepository to Proyecto--><g class="link" data-entity-1="ent0005" data-entity-2="ent0008" data-link-type="association" data-source-line="33" id="lnk27"><path d="M357,312.24 C357,329.59 357,355.52 357,372.84" fill="none" id="ProyectoRepository-Proyecto" style="stroke:#181818;stroke-width:1;"/></g><!--link InvestigadorRepository to Investigador--><g class="link" data-entity-1="ent0006" data-entity-2="ent0009" data-link-type="association" data-source-line="34" id="lnk28"><path d="M765,312.24 C765,329.59 765,355.52 765,372.84" fill="none" id="InvestigadorRepository-Investigador" style="stroke:#181818;stroke-width:1;"/></g><!--link EntregableRepository to Entregable--><g class="link" data-entity-1="ent0007" data-entity-2="ent0010" data-link-type="association" data-source-line="35" id="lnk29"><path d="M971,312.24 C971,329.59 971,355.52 971,372.84" fill="none" id="EntregableRepository-Entregable" style="stroke:#181818;stroke-width:1;"/></g><!--link EliminarInvestigadorView to EstadoSalida--><g class="link" data-entity-1="ent0003" data-entity-2="ent0011" data-link-type="dependency" data-source-line="36" id="lnk30"><path d="M1211.55,80.03 C1212.14,99.58 1213,128 1213,128 C1213,128 1278.0417,143.2301 1336.2117,156.8501" fill="none" id="EliminarInvestigadorView-to-EstadoSalida" style="stroke:#181818;stroke-width:1;stroke-dasharray:7,7;"/><polygon fill="#181818" points="1341.08,157.99,1333.2289,152.0436,1336.2117,156.8501,1331.4051,159.8329,1341.08,157.99" style="stroke:#181818;stroke-width:1;stroke-linejoin:miter;stroke-miterlimit:10;"/><text fill="#000000" font-family="sans-serif" font-size="13" lengthAdjust="spacing" textLength="154.6416" x="1214" y="124.4951">investigadorDesasignado()</text></g><!--link EliminarInvestigadorView to EstadoSalida--><g class="link" data-entity-1="ent0003" data-entity-2="ent0011" data-link-type="dependency" data-source-line="37" id="lnk31"><path d="M1271.78,80.01 C1317.75,93.63 1373,110 1373,110 C1373,110 1389.5647,134.2879 1402.8847,153.8379" fill="none" id="EliminarInvestigadorView-to-EstadoSalida-1" style="stroke:#181818;stroke-width:1;stroke-dasharray:7,7;"/><polygon fill="#181818" points="1405.7,157.97,1403.9381,148.28,1402.8847,153.8379,1397.3268,152.7845,1405.7,157.97" style="stroke:#181818;stroke-width:1;stroke-linejoin:miter;stroke-miterlimit:10;"/><text fill="#000000" font-family="sans-serif" font-size="13" lengthAdjust="spacing" textLength="196.5298" x="1386" y="124.4951">cancelarOImpedirDesasignacion()</text></g><!--link EliminarInvestigadorView to EditarProyecto--><g class="link" data-entity-1="ent0003" data-entity-2="ent0012" data-link-type="dependency" data-source-line="38" id="lnk32"><path d="M1299.61,73.19 C1411.9,87.38 1591,110 1591,110 C1591,110 1609.1201,134.405 1623.6301,153.955" fill="none" id="EliminarInvestigadorView-to-EditarProyecto" style="stroke:#181818;stroke-width:1;stroke-dasharray:7,7;"/><polygon fill="#181818" points="1626.61,157.97,1624.4581,148.3591,1623.6301,153.955,1618.0342,153.127,1626.61,157.97" style="stroke:#181818;stroke-width:1;stroke-linejoin:miter;stroke-miterlimit:10;"/><text fill="#000000" font-family="sans-serif" font-size="13" lengthAdjust="spacing" textLength="92.479" x="1605" y="124.4951">editarProyecto()</text></g><!--link EliminarInvestigadorView to EliminarProyecto--><g class="link" data-entity-1="ent0003" data-entity-2="ent0013" data-link-type="dependency" data-source-line="39" id="lnk33"><path d="M1299.78,70.61 C1442.23,84.42 1706,110 1706,110 C1706,110 1777.9722,136.681 1830.6722,156.231" fill="none" id="EliminarInvestigadorView-to-EliminarProyecto" style="stroke:#181818;stroke-width:1;stroke-dasharray:7,7;"/><polygon fill="#181818" points="1835.36,157.97,1828.3131,151.0895,1830.6722,156.231,1825.5307,158.59,1835.36,157.97" style="stroke:#181818;stroke-width:1;stroke-linejoin:miter;stroke-miterlimit:10;"/><text fill="#000000" font-family="sans-serif" font-size="13" lengthAdjust="spacing" textLength="105.4727" x="1754" y="124.4951">eliminarProyecto()</text></g><!--link EliminarInvestigadorView to AgregarInvestigador--><g class="link" data-entity-1="ent0003" data-entity-2="ent0014" data-link-type="dependency" data-source-line="40" id="lnk34"><path d="M1299.61,68.47 C1478.94,81.58 1868,110 1868,110 C1868,110 1982.4263,137.2607 2064.4463,156.8107" fill="none" id="EliminarInvestigadorView-to-AgregarInvestigador" style="stroke:#181818;stroke-width:1;stroke-dasharray:7,7;"/><polygon fill="#181818" points="2069.31,157.97,2061.4827,151.9923,2064.4463,156.8107,2059.6278,159.7742,2069.31,157.97" style="stroke:#181818;stroke-width:1;stroke-linejoin:miter;stroke-miterlimit:10;"/><text fill="#000000" font-family="sans-serif" font-size="13" lengthAdjust="spacing" textLength="124.2871" x="1943" y="124.4951">agregarInvestigador()</text></g><!--link EliminarInvestigadorView to EliminarInvestigador--><g class="link" data-entity-1="ent0003" data-entity-2="ent0015" data-link-type="dependency" data-source-line="41" id="lnk35"><path d="M1299.51,66.91 C1519.96,79.14 2076,110 2076,110 C2076,110 2217.9512,137.4695 2318.9112,157.0195" fill="none" id="EliminarInvestigadorView-to-EliminarInvestigador" style="stroke:#181818;stroke-width:1;stroke-dasharray:7,7;"/><polygon fill="#181818" points="2323.82,157.97,2315.7446,152.332,2318.9112,157.0195,2314.2237,160.1861,2323.82,157.97" style="stroke:#181818;stroke-width:1;stroke-linejoin:miter;stroke-miterlimit:10;"/><text fill="#000000" font-family="sans-serif" font-size="13" lengthAdjust="spacing" textLength="124.9917" x="2168" y="124.4951">eliminarInvestigador()</text></g><!--link EliminarInvestigadorView to AbrirEntregables--><g class="link" data-entity-1="ent0003" data-entity-2="ent0016" data-link-type="dependency" data-source-line="42" id="lnk36"><path d="M1299.74,65.91 C1559.65,77.35 2301,110 2301,110 C2301,110 2458.435,137.5574 2570.055,157.1074" fill="none" id="EliminarInvestigadorView-to-AbrirEntregables" style="stroke:#181818;stroke-width:1;stroke-dasharray:7,7;"/><polygon fill="#181818" points="2574.98,157.97,2566.805,152.4773,2570.055,157.1074,2565.4249,160.3573,2574.98,157.97" style="stroke:#181818;stroke-width:1;stroke-linejoin:miter;stroke-miterlimit:10;"/><text fill="#000000" font-family="sans-serif" font-size="13" lengthAdjust="spacing" textLength="104.0444" x="2403" y="124.4951">abrirEntregables()</text></g><!--link EliminarInvestigadorView to AbrirInvestigadores--><g class="link" data-entity-1="ent0003" data-entity-2="ent0017" data-link-type="dependency" data-source-line="43" id="lnk37"><path d="M1299.67,65.26 C1593.39,76.07 2516,110 2516,110 C2516,110 2691.9407,137.6435 2816.2907,157.1935" fill="none" id="EliminarInvestigadorView-to-AbrirInvestigadores" style="stroke:#181818;stroke-width:1;stroke-dasharray:7,7;"/><polygon fill="#181818" points="2821.23,157.97,2812.9604,152.6207,2816.2907,157.1935,2811.718,160.5237,2821.23,157.97" style="stroke:#181818;stroke-width:1;stroke-linejoin:miter;stroke-miterlimit:10;"/><text fill="#000000" font-family="sans-serif" font-size="13" lengthAdjust="spacing" textLength="119.2153" x="2629" y="124.4951">abrirInvestigadores()</text></g><!--link EliminarInvestigadorView to AbrirProyectos--><g class="link" data-entity-1="ent0003" data-entity-2="ent0018" data-link-type="dependency" data-source-line="44" id="lnk38"><path d="M1299.67,64.75 C1628.18,74.95 2757,110 2757,110 C2757,110 2954.6176,140.2631 3082.0076,159.7731" fill="none" id="EliminarInvestigadorView-to-AbrirProyectos" style="stroke:#181818;stroke-width:1;stroke-dasharray:7,7;"/><polygon fill="#181818" points="3086.95,160.53,3078.6593,155.2136,3082.0076,159.7731,3077.4482,163.1214,3086.95,160.53" style="stroke:#181818;stroke-width:1;stroke-linejoin:miter;stroke-miterlimit:10;"/><text fill="#000000" font-family="sans-serif" font-size="13" lengthAdjust="spacing" textLength="92.4663" x="2873" y="124.4951">abrirProyectos()</text></g><?plantuml-src jPPHQzim4CVV_Ib4zjB0qeUobjKFXTHrmKy9MHdqQPojcn6L9IDf6s7ikqzk4jkovLWPB6ywtVtkTEVx4_t6H0qAAiAPGBElaTIIxvj352ai38YI8_cGFAMFwrkoYBUxpMkQl6o-hH-pTFUoMH3G9DK6g4o5KK0Xgg5uWn89SbOn0IeJFr4RLbeNrNWlV1TNomNv7H7xwsMzkxbFd-z9wl7_ol3Nq3s_pUdTPx9LSc-DCf6s8Cavgg7Zyyqw-PIsZZkifMP6gls4Op_nh7FJ1YmXvpZhUYeW8EriikZFnGFx0fpPUVcY4jitoAK2mwGWAMK6rAdQ0y4nXJ2EGtGf0sC0Prqs3tQ-XNUKntv1LIESxoAakbmnrGr57qeR64Cv_Tnzb6iFfPrwt0ErfYXoLfYirEfXSkrYxsPVrKTOHZyIrhl8wDBY9rXaHMscySR6f92L9UQWdb23PgM0mZxbR9OnXgnwz6uTOo9pWmBLjWdiCISPVWKOS0BhyGb4Hq916Gg3Ult-Q2hrlxnvUdQr_MGi7-mpz0_U3FtLndvdgZeqU7bcLfEZEiJ_dr7H1YeBTi7dDiPOUgUs_c4sBiws--RKEFKqTx9LrzSFZiZ6JerjdwWyr-ynf01H80UroQeQAHiqV0xbIBRTOkSy6psGwau5GWaUXOu9Z8sXbRWW_v-AcOe6mcpB6LY22AuU7o6kCOZJol4HqPvjz5y0?></g></svg>