<svg xmlns="http://www.w3.org/2000/svg" xmlns:xlink="http://www.w3.org/1999/xlink" contentStyleType="text/css" data-diagram-type="DESCRIPTION" height="434px" preserveAspectRatio="none" style="width:1826px;height:434px;background:#FFFFFF;" version="1.1" viewBox="0 0 1826 434" width="1826px" zoomAndPan="magnify"><defs/><g><!--cluster eliminarInvestigador--><g class="cluster" data-entity="eliminarInvestigador" data-source-line="4" data-uid="ent0003" id="cluster_eliminarInvestigador"><path d="M197.5,6 L344.7549,6 A3.75,3.75 0 0 1 347.2549,8.5 L354.2549,29.6094 L1094.5,29.6094 A2.5,2.5 0 0 1 1097,32.1094 L1097,424.5 A2.5,2.5 0 0 1 1094.5,427 L197.5,427 A2.5,2.5 0 0 1 195,424.5 L195,8.5 A2.5,2.5 0 0 1 197.5,6" fill="none" style="stroke:#000000;stroke-width:1.5;"/><line style="stroke:#000000;stroke-width:1.5;" x1="195" x2="354.2549" y1="29.6094" y2="29.6094"/><text fill="#000000" font-family="sans-serif" font-size="14" font-weight="bold" lengthAdjust="spacing" textLength="146.2549" x="199" y="22.5332">eliminarInvestigador()</text></g><!--entity EliminarInvestigadorView--><g class="entity" data-entity="EliminarInvestigadorView" data-source-line="5" data-uid="ent0004" id="entity_EliminarInvestigadorView"><rect fill="#629EF9" height="37.6094" rx="2.5" ry="2.5" style="stroke:#181818;stroke-width:0.5;" width="177.1787" x="767.5" y="42"/><text fill="#000000" font-family="sans-serif" font-size="14" lengthAdjust="spacing" textLength="157.1787" x="777.5" y="66.5332">EliminarInvestigadorView</text></g><!--entity InvestigadorController--><g class="entity" data-entity="InvestigadorController" data-source-line="6" data-uid="ent0005" id="entity_InvestigadorController"><rect fill="#B5BD68" height="37.6094" rx="2.5" ry="2.5" style="stroke:#181818;stroke-width:0.5;" width="156.958" x="529.5" y="158"/><text fill="#000000" font-family="sans-serif" font-size="14" lengthAdjust="spacing" textLength="136.958" x="539.5" y="182.5332">InvestigadorController</text></g><!--entity InvestigadorRepository--><g class="entity" data-entity="InvestigadorRepository" data-source-line="7" data-uid="ent0006" id="entity_InvestigadorRepository"><rect fill="#F2AC4E" height="37.6094" rx="2.5" ry="2.5" style="stroke:#181818;stroke-width:0.5;" width="163.1855" x="525.5" y="274"/><text fill="#000000" font-family="sans-serif" font-size="14" lengthAdjust="spacing" textLength="143.1855" x="535.5" y="298.5332">InvestigadorRepository</text></g><!--entity Investigador--><g class="entity" data-entity="Investigador" data-source-line="8" data-uid="ent0007" id="entity_Investigador"><rect fill="#F2AC4E" height="37.6094" rx="2.5" ry="2.5" style="stroke:#181818;stroke-width:0.5;" width="96.2686" x="559" y="373"/><text fill="#000000" font-family="sans-serif" font-size="14" lengthAdjust="spacing" textLength="76.2686" x="569" y="397.5332">Investigador</text></g><!--entity EstadoEntrada--><g class="entity" data-entity="EstadoEntrada" data-source-line="3" data-uid="ent0002" id="entity_EstadoEntrada"><rect fill="#CDEBA5" height="37.6094" rx="2.5" ry="2.5" style="stroke:#181818;stroke-width:0.5;" width="171.6963" x="7" y="42"/><text fill="#000000" font-family="sans-serif" font-size="14" lengthAdjust="spacing" textLength="151.6963" x="17" y="66.5332">:PROYECTO_ABIERTO</text></g><!--entity EstadoSalida--><g class="entity" data-entity="EstadoSalida" data-source-line="11" data-uid="ent0008" id="entity_EstadoSalida"><rect fill="#CDEBA5" height="37.6094" rx="2.5" ry="2.5" style="stroke:#181818;stroke-width:0.5;" width="171.6963" x="1137" y="158"/><text fill="#000000" font-family="sans-serif" font-size="14" lengthAdjust="spacing" textLength="151.6963" x="1147" y="182.5332">:PROYECTO_ABIERTO</text></g><!--entity AbrirEntregables--><g class="entity" data-entity="AbrirEntregables" data-source-line="12" data-uid="ent0009" id="entity_AbrirEntregables"><rect fill="#CDEBA5" height="37.6094" rx="2.5" ry="2.5" style="stroke:#181818;stroke-width:0.5;" width="214.5508" x="1367.5" y="158"/><text fill="#000000" font-family="sans-serif" font-size="14" lengthAdjust="spacing" textLength="194.5508" x="1377.5" y="182.5332">:Collaboration AbrirEntregables</text></g><!--entity AbrirProyectos--><g class="entity" data-entity="AbrirProyectos" data-source-line="13" data-uid="ent0010" id="entity_AbrirProyectos"><rect fill="#CDEBA5" height="37.6094" rx="2.5" ry="2.5" style="stroke:#181818;stroke-width:0.5;" width="202.082" x="1618" y="158"/><text fill="#000000" font-family="sans-serif" font-size="14" lengthAdjust="spacing" textLength="182.082" x="1628" y="182.5332">:Collaboration AbrirProyectos</text></g><!--link EstadoEntrada to EliminarInvestigadorView--><g class="link" data-entity-1="EstadoEntrada" data-entity-2="EliminarInvestigadorView" data-source-line="15" data-uid="lnk11" id="link_EstadoEntrada_EliminarInvestigadorView"><path d="M179.04,61 C325,61 613.62,61 761.33,61" fill="none" id="EstadoEntrada-to-EliminarInvestigadorView" style="stroke:#181818;stroke-width:1;"/><polygon fill="#181818" points="767.33,61,758.33,57,762.33,61,758.33,65,767.33,61" style="stroke:#181818;stroke-width:1;"/><text fill="#000000" font-family="sans-serif" font-size="13" lengthAdjust="spacing" textLength="124.9917" x="411.25" y="54.4951">eliminarInvestigador()</text></g><!--link EliminarInvestigadorView to InvestigadorController--><g class="link" data-entity-1="EliminarInvestigadorView" data-entity-2="InvestigadorController" data-source-line="17" data-uid="lnk12" id="link_EliminarInvestigadorView_InvestigadorController"><path d="M767.19,68.95 C597.31,82.26 243,110 243,110 C243,110 243,128 243,128 C243,128 416.0012,150.7477 523.3012,164.8577" fill="none" id="EliminarInvestigadorView-to-InvestigadorController" style="stroke:#181818;stroke-width:1;"/><polygon fill="#181818" points="529.25,165.64,520.8483,160.5007,524.2927,164.9881,519.8053,168.4325,529.25,165.64" style="stroke:#181818;stroke-width:1;"/><text fill="#000000" font-family="sans-serif" font-size="13" lengthAdjust="spacing" textLength="139.4263" x="244" y="124.4951">solicitarConfirmacion(id)</text></g><!--link InvestigadorController to EliminarInvestigadorView--><g class="link" data-entity-1="InvestigadorController" data-entity-2="EliminarInvestigadorView" data-source-line="18" data-uid="lnk13" id="link_InvestigadorController_EliminarInvestigadorView"><path d="M686.63,163.07 C773.12,148.86 900,128 900,128 C900,128 900,110 900,110 C900,110 889.1448,98.1625 876.6848,84.5725" fill="none" id="InvestigadorController-to-EliminarInvestigadorView" style="stroke:#181818;stroke-width:1;"/><polygon fill="#181818" points="872.63,80.15,875.7638,89.487,876.009,83.8354,881.6605,84.0806,872.63,80.15" style="stroke:#181818;stroke-width:1;"/><text fill="#000000" font-family="sans-serif" font-size="13" lengthAdjust="spacing" textLength="140.1626" x="901" y="124.4951">presentarConfirmacion()</text></g><!--link EliminarInvestigadorView to InvestigadorController--><g class="link" data-entity-1="EliminarInvestigadorView" data-entity-2="InvestigadorController" data-source-line="19" data-uid="lnk14" id="link_EliminarInvestigadorView_InvestigadorController"><path d="M767.27,71.86 C640.85,85.91 424,110 424,110 C424,110 424,128 424,128 C424,128 480.9443,142.8555 533.1543,156.4755" fill="none" id="EliminarInvestigadorView-to-InvestigadorController-1" style="stroke:#181818;stroke-width:1;"/><polygon fill="#181818" points="538.96,157.99,531.2611,151.8477,534.1219,156.7279,529.2418,159.5887,538.96,157.99" style="stroke:#181818;stroke-width:1;"/><text fill="#000000" font-family="sans-serif" font-size="13" lengthAdjust="spacing" textLength="139.4263" x="425" y="124.4951">confirmarEliminacion(id)</text></g><!--link EliminarInvestigadorView to InvestigadorController--><g class="link" data-entity-1="EliminarInvestigadorView" data-entity-2="InvestigadorController" data-source-line="20" data-uid="lnk15" id="link_EliminarInvestigadorView_InvestigadorController"><path d="M767.15,78.99 C694.95,92.8 605,110 605,110 C605,110 605,128 605,128 C605,128 605.6455,138.2717 606.4955,151.8617" fill="none" id="EliminarInvestigadorView-to-InvestigadorController-2" style="stroke:#181818;stroke-width:1;"/><polygon fill="#181818" points="606.87,157.85,610.3004,148.6179,606.5579,152.8598,602.316,149.1172,606.87,157.85" style="stroke:#181818;stroke-width:1;"/><text fill="#000000" font-family="sans-serif" font-size="13" lengthAdjust="spacing" textLength="124.2681" x="606" y="124.4951">cancelarEliminacion()</text></g><!--link EliminarInvestigadorView to InvestigadorController--><g class="link" data-entity-1="EliminarInvestigadorView" data-entity-2="InvestigadorController" data-source-line="21" data-uid="lnk16" id="link_EliminarInvestigadorView_InvestigadorController"><path d="M822.61,80.01 C797.35,93.63 767,110 767,110 C767,110 735,128 735,128 C735,128 697.3026,142.2489 661.2626,155.8689" fill="none" id="EliminarInvestigadorView-to-InvestigadorController-3" style="stroke:#181818;stroke-width:1;"/><polygon fill="#181818" points="655.65,157.99,665.4829,158.5501,660.3272,156.2224,662.6548,151.0667,655.65,157.99" style="stroke:#181818;stroke-width:1;"/><text fill="#000000" font-family="sans-serif" font-size="13" lengthAdjust="spacing" textLength="123.5444" x="768" y="124.4951">validarEliminacion(id)</text></g><!--link InvestigadorController to InvestigadorRepository--><g class="link" data-entity-1="InvestigadorController" data-entity-2="InvestigadorRepository" data-source-line="22" data-uid="lnk17" id="link_InvestigadorController_InvestigadorRepository"><path d="M581.16,196.15 C561.05,209.74 537,226 537,226 C537,226 537,244 537,244 C537,244 555.7607,256.8681 575.5907,270.4581" fill="none" id="InvestigadorController-to-InvestigadorRepository" style="stroke:#181818;stroke-width:1;"/><polygon fill="#181818" points="580.54,273.85,575.3773,265.4627,576.4156,271.0234,570.8549,272.0617,580.54,273.85" style="stroke:#181818;stroke-width:1;"/><text fill="#000000" font-family="sans-serif" font-size="13" lengthAdjust="spacing" textLength="93.939" x="538" y="240.4951">obtenerPorId(id)</text></g><!--link InvestigadorController to InvestigadorRepository--><g class="link" data-entity-1="InvestigadorController" data-entity-2="InvestigadorRepository" data-source-line="23" data-uid="lnk18" id="link_InvestigadorController_InvestigadorRepository"><path d="M618.59,196.15 C626.51,209.74 636,226 636,226 C636,226 636,244 636,244 C636,244 629.2853,255.1261 621.0653,268.7161" fill="none" id="InvestigadorController-to-InvestigadorRepository-1" style="stroke:#181818;stroke-width:1;"/><polygon fill="#181818" points="617.96,273.85,626.0405,268.2193,620.5477,269.5717,619.1953,264.0789,617.96,273.85" style="stroke:#181818;stroke-width:1;"/><text fill="#000000" font-family="sans-serif" font-size="13" lengthAdjust="spacing" textLength="64.2891" x="637" y="240.4951">eliminar(id)</text></g><!--link InvestigadorRepository to Investigador--><g class="link" data-entity-1="InvestigadorRepository" data-entity-2="Investigador" data-source-line="24" data-uid="lnk19" id="link_InvestigadorRepository_Investigador"><path d="M607,312.24 C607,329.59 607,355.52 607,372.84" fill="none" id="InvestigadorRepository-Investigador" style="stroke:#181818;stroke-width:1;"/></g><!--link EliminarInvestigadorView to EstadoSalida--><g class="link" data-entity-1="EliminarInvestigadorView" data-entity-2="EstadoSalida" data-source-line="25" data-uid="lnk20" id="link_EliminarInvestigadorView_EstadoSalida"><path d="M928.79,80.01 C983.84,93.63 1050,110 1050,110 C1050,110 1118.8943,136.2808 1170.1243,155.8308" fill="none" id="EliminarInvestigadorView-to-EstadoSalida" style="stroke:#181818;stroke-width:1;stroke-dasharray:7,7;"/><polygon fill="#181818" points="1175.73,157.97,1168.7476,151.0241,1171.0586,156.1873,1165.8953,158.4983,1175.73,157.97" style="stroke:#181818;stroke-width:1;"/><text fill="#000000" font-family="sans-serif" font-size="13" lengthAdjust="spacing" textLength="135.8398" x="1097" y="124.4951">investigadorEliminado()</text></g><!--link EliminarInvestigadorView to EstadoSalida--><g class="link" data-entity-1="EliminarInvestigadorView" data-entity-2="EstadoSalida" data-source-line="26" data-uid="lnk21" id="link_EliminarInvestigadorView_EstadoSalida"><path d="M944.81,73.07 C1058.51,87.25 1241,110 1241,110 C1241,110 1241,128 1241,128 C1241,128 1237.0045,138.6412 1231.9145,152.2312" fill="none" id="EliminarInvestigadorView-to-EstadoSalida-1" style="stroke:#181818;stroke-width:1;stroke-dasharray:7,7;"/><polygon fill="#181818" points="1229.81,157.85,1236.7126,150.8247,1231.5637,153.1676,1229.2208,148.0188,1229.81,157.85" style="stroke:#181818;stroke-width:1;"/><text fill="#000000" font-family="sans-serif" font-size="13" lengthAdjust="spacing" textLength="135.8462" x="1242" y="124.4951">eliminacionCancelada()</text></g><!--link EliminarInvestigadorView to AbrirEntregables--><g class="link" data-entity-1="EliminarInvestigadorView" data-entity-2="AbrirEntregables" data-source-line="27" data-uid="lnk22" id="link_EliminarInvestigadorView_AbrirEntregables"><path d="M944.71,70.03 C1095.59,83.7 1386,110 1386,110 C1386,110 1419.5114,134.8449 1445.8614,154.3949" fill="none" id="EliminarInvestigadorView-to-AbrirEntregables" style="stroke:#181818;stroke-width:1;stroke-dasharray:7,7;"/><polygon fill="#181818" points="1450.68,157.97,1445.8355,149.395,1446.6645,154.9908,1441.0687,155.8198,1450.68,157.97" style="stroke:#181818;stroke-width:1;"/><text fill="#000000" font-family="sans-serif" font-size="13" lengthAdjust="spacing" textLength="104.0444" x="1410" y="124.4951">abrirEntregables()</text></g><!--link EliminarInvestigadorView to AbrirProyectos--><g class="link" data-entity-1="EliminarInvestigadorView" data-entity-2="AbrirProyectos" data-source-line="28" data-uid="lnk23" id="link_EliminarInvestigadorView_AbrirProyectos"><path d="M944.57,68.37 C1126.01,81.43 1523,110 1523,110 C1523,110 1601.724,136.5044 1659.754,156.0544" fill="none" id="EliminarInvestigadorView-to-AbrirProyectos" style="stroke:#181818;stroke-width:1;stroke-dasharray:7,7;"/><polygon fill="#181818" points="1665.44,157.97,1658.1881,151.306,1660.7017,156.3737,1655.634,158.8873,1665.44,157.97" style="stroke:#181818;stroke-width:1;"/><text fill="#000000" font-family="sans-serif" font-size="13" lengthAdjust="spacing" textLength="92.4663" x="1576" y="124.4951">abrirProyectos()</text></g><!--SRC=[dPD1Ru9048Nl_8e9lUW13wQQoi44AIQUDDOqwQaPO6eshhjasDYOfl-zYxKM4AcLsmxlVJncTlADK1aoRa4AHMQV4MHQxek3up0b1jLQ4jo5Zz4a683hBvRpboXSpL-3oInQhkOkO0vHRZ3LaJACAJeP9XjS4v0KMw6GPsf7kH5hA-52xJQzw7HT-730FgMl3lkZQ3g2g47_BEYzBey7SJfyWB8ir3QKbfAuBfxsW_0-geYNbEbS6CtxAyJEvxyRz8HIsFuqkKAR4MFDQ8HM4CGik6WdhJ6Mb1yOzUArd0NhlLNg4kLKSfpAwC1ZRtontJuq3yv2BZZ0IoslUHu-v5gAH1WiYc-2jvZOp1sHTfrc1tYjuJAcd5GTrsq9rv8jEJBuw3v5kus6AY5PXTs8sXtkq5cibeurtt0VT6n84Iyqpz9R6JyNuip_AxB-wjvS_ErURrnP51z4INAqfRgjS-S8-crK-3s55FyYr3VD1wnLhYASjkpeFvsj-mi0]--></g></svg>