<?xml version="1.0" encoding="us-ascii" standalone="no"?><svg xmlns="http://www.w3.org/2000/svg" xmlns:xlink="http://www.w3.org/1999/xlink" contentStyleType="text/css" height="790px" preserveAspectRatio="none" style="width:1379px;height:790px;background:#FFFFFF;" version="1.1" viewBox="0 0 1379 790" width="1379px" zoomAndPan="magnify"><defs/><g><text fill="#000000" font-family="sans-serif" font-size="14" font-weight="bold" lengthAdjust="spacing" textLength="291" x="545.75" y="29.5332">Diagrama de secuencia - Abrir entregable</text><line style="stroke:#181818;stroke-width:0.5;stroke-dasharray:5.0,5.0;" x1="47" x2="47" y1="121.2188" y2="708.6016"/><line style="stroke:#181818;stroke-width:0.5;stroke-dasharray:5.0,5.0;" x1="277.5" x2="277.5" y1="121.2188" y2="708.6016"/><line style="stroke:#181818;stroke-width:0.5;stroke-dasharray:5.0,5.0;" x1="445" x2="445" y1="121.2188" y2="708.6016"/><line style="stroke:#181818;stroke-width:0.5;stroke-dasharray:5.0,5.0;" x1="658.5" x2="658.5" y1="121.2188" y2="708.6016"/><line style="stroke:#181818;stroke-width:0.5;stroke-dasharray:5.0,5.0;" x1="785.5" x2="785.5" y1="121.2188" y2="708.6016"/><line style="stroke:#181818;stroke-width:0.5;stroke-dasharray:5.0,5.0;" x1="935.5" x2="935.5" y1="121.2188" y2="708.6016"/><line style="stroke:#181818;stroke-width:0.5;stroke-dasharray:5.0,5.0;" x1="1085.5" x2="1085.5" y1="121.2188" y2="708.6016"/><line style="stroke:#181818;stroke-width:0.5;stroke-dasharray:5.0,5.0;" x1="1328.5" x2="1328.5" y1="121.2188" y2="708.6016"/><text fill="#000000" font-family="sans-serif" font-size="14" lengthAdjust="spacing" textLength="79" x="5" y="118.1426">Coordinador</text><ellipse cx="47.5" cy="52.1094" fill="#E2E2F0" rx="8" ry="8" style="stroke:#181818;stroke-width:0.5;"/><path d="M47.5,60.1094 L47.5,87.1094 M34.5,68.1094 L60.5,68.1094 M47.5,87.1094 L34.5,102.1094 M47.5,87.1094 L60.5,102.1094 " fill="none" style="stroke:#181818;stroke-width:0.5;"/><text fill="#000000" font-family="sans-serif" font-size="14" lengthAdjust="spacing" textLength="79" x="5" y="722.1348">Coordinador</text><ellipse cx="47.5" cy="733.7109" fill="#E2E2F0" rx="8" ry="8" style="stroke:#181818;stroke-width:0.5;"/><path d="M47.5,741.7109 L47.5,768.7109 M34.5,749.7109 L60.5,749.7109 M47.5,768.7109 L34.5,783.7109 M47.5,768.7109 L60.5,783.7109 " fill="none" style="stroke:#181818;stroke-width:0.5;"/><rect fill="#E2E2F0" height="49.2188" rx="2.5" ry="2.5" style="stroke:#181818;stroke-width:0.5;" width="160" x="197.5" y="71"/><text fill="#000000" font-family="sans-serif" font-size="14" lengthAdjust="spacing" textLength="146" x="204.5" y="92.5332">EntregableDetallePage</text><text fill="#000000" font-family="sans-serif" font-size="14" lengthAdjust="spacing" textLength="47" x="254" y="110.1426">(React)</text><rect fill="#E2E2F0" height="49.2188" rx="2.5" ry="2.5" style="stroke:#181818;stroke-width:0.5;" width="160" x="197.5" y="707.6016"/><text fill="#000000" font-family="sans-serif" font-size="14" lengthAdjust="spacing" textLength="146" x="204.5" y="729.1348">EntregableDetallePage</text><text fill="#000000" font-family="sans-serif" font-size="14" lengthAdjust="spacing" textLength="47" x="254" y="746.7441">(React)</text><rect fill="#E2E2F0" height="49.2188" rx="2.5" ry="2.5" style="stroke:#181818;stroke-width:0.5;" width="145" x="373" y="71"/><text fill="#000000" font-family="sans-serif" font-size="14" lengthAdjust="spacing" textLength="131" x="380" y="92.5332">EntregableController</text><text fill="#000000" font-family="sans-serif" font-size="14" lengthAdjust="spacing" textLength="84" x="403.5" y="110.1426">(Spring Boot)</text><rect fill="#E2E2F0" height="49.2188" rx="2.5" ry="2.5" style="stroke:#181818;stroke-width:0.5;" width="145" x="373" y="707.6016"/><text fill="#000000" font-family="sans-serif" font-size="14" lengthAdjust="spacing" textLength="131" x="380" y="729.1348">EntregableController</text><text fill="#000000" font-family="sans-serif" font-size="14" lengthAdjust="spacing" textLength="84" x="403.5" y="746.7441">(Spring Boot)</text><rect fill="#E2E2F0" height="31.6094" rx="2.5" ry="2.5" style="stroke:#181818;stroke-width:0.5;" width="104" x="606.5" y="88.6094"/><text fill="#000000" font-family="sans-serif" font-size="14" lengthAdjust="spacing" textLength="90" x="613.5" y="110.1426">SesionService</text><rect fill="#E2E2F0" height="31.6094" rx="2.5" ry="2.5" style="stroke:#181818;stroke-width:0.5;" width="104" x="606.5" y="707.6016"/><text fill="#000000" font-family="sans-serif" font-size="14" lengthAdjust="spacing" textLength="90" x="613.5" y="729.1348">SesionService</text><rect fill="#E2E2F0" height="31.6094" rx="2.5" ry="2.5" style="stroke:#181818;stroke-width:0.5;" width="130" x="720.5" y="88.6094"/><text fill="#000000" font-family="sans-serif" font-size="14" lengthAdjust="spacing" textLength="116" x="727.5" y="110.1426">EntregableService</text><rect fill="#E2E2F0" height="31.6094" rx="2.5" ry="2.5" style="stroke:#181818;stroke-width:0.5;" width="130" x="720.5" y="707.6016"/><text fill="#000000" font-family="sans-serif" font-size="14" lengthAdjust="spacing" textLength="116" x="727.5" y="729.1348">EntregableService</text><rect fill="#E2E2F0" height="31.6094" rx="2.5" ry="2.5" style="stroke:#181818;stroke-width:0.5;" width="151" x="860.5" y="88.6094"/><text fill="#000000" font-family="sans-serif" font-size="14" lengthAdjust="spacing" textLength="137" x="867.5" y="110.1426">EntregableRepository</text><rect fill="#E2E2F0" height="31.6094" rx="2.5" ry="2.5" style="stroke:#181818;stroke-width:0.5;" width="151" x="860.5" y="707.6016"/><text fill="#000000" font-family="sans-serif" font-size="14" lengthAdjust="spacing" textLength="137" x="867.5" y="729.1348">EntregableRepository</text><rect fill="#E2E2F0" height="31.6094" rx="2.5" ry="2.5" style="stroke:#181818;stroke-width:0.5;" width="129" x="1021.5" y="88.6094"/><text fill="#000000" font-family="sans-serif" font-size="14" lengthAdjust="spacing" textLength="115" x="1028.5" y="110.1426">ArchivoRepository</text><rect fill="#E2E2F0" height="31.6094" rx="2.5" ry="2.5" style="stroke:#181818;stroke-width:0.5;" width="129" x="1021.5" y="707.6016"/><text fill="#000000" font-family="sans-serif" font-size="14" lengthAdjust="spacing" textLength="115" x="1028.5" y="729.1348">ArchivoRepository</text><text fill="#000000" font-family="sans-serif" font-size="14" lengthAdjust="spacing" textLength="93" x="1279.5" y="118.1426">Base de Datos</text><path d="M1311,67.6094 C1311,57.6094 1329,57.6094 1329,57.6094 C1329,57.6094 1347,57.6094 1347,67.6094 L1347,93.6094 C1347,103.6094 1329,103.6094 1329,103.6094 C1329,103.6094 1311,103.6094 1311,93.6094 L1311,67.6094 " fill="#E2E2F0" style="stroke:#181818;stroke-width:1.5;"/><path d="M1311,67.6094 C1311,77.6094 1329,77.6094 1329,77.6094 C1329,77.6094 1347,77.6094 1347,67.6094 " fill="none" style="stroke:#181818;stroke-width:1.5;"/><text fill="#000000" font-family="sans-serif" font-size="14" lengthAdjust="spacing" textLength="93" x="1279.5" y="722.1348">Base de Datos</text><path d="M1311,735.2109 C1311,725.2109 1329,725.2109 1329,725.2109 C1329,725.2109 1347,725.2109 1347,735.2109 L1347,761.2109 C1347,771.2109 1329,771.2109 1329,771.2109 C1329,771.2109 1311,771.2109 1311,761.2109 L1311,735.2109 " fill="#E2E2F0" style="stroke:#181818;stroke-width:1.5;"/><path d="M1311,735.2109 C1311,745.2109 1329,745.2109 1329,745.2109 C1329,745.2109 1347,745.2109 1347,735.2109 " fill="none" style="stroke:#181818;stroke-width:1.5;"/><polygon fill="#181818" points="265.5,149.5703,275.5,153.5703,265.5,157.5703,269.5,153.5703" style="stroke:#181818;stroke-width:1.0;"/><line style="stroke:#181818;stroke-width:1.0;" x1="47.5" x2="271.5" y1="153.5703" y2="153.5703"/><text fill="#000000" font-family="sans-serif" font-size="13" lengthAdjust="spacing" textLength="128" x="54.5" y="148.7139">Selecciona entregable</text><polygon fill="#181818" points="433.5,196.2734,443.5,200.2734,433.5,204.2734,437.5,200.2734" style="stroke:#181818;stroke-width:1.0;"/><line style="stroke:#181818;stroke-width:1.0;" x1="277.5" x2="439.5" y1="200.2734" y2="200.2734"/><text fill="#000000" font-family="sans-serif" font-size="13" lengthAdjust="spacing" textLength="144" x="284.5" y="179.0654">GET /api/entregables/{id}</text><text fill="#000000" font-family="sans-serif" font-size="13" lengthAdjust="spacing" textLength="100" x="284.5" y="195.417">Cookie de sesion</text><polygon fill="#181818" points="646.5,226.625,656.5,230.625,646.5,234.625,650.5,230.625" style="stroke:#181818;stroke-width:1.0;"/><line style="stroke:#181818;stroke-width:1.0;" x1="445.5" x2="652.5" y1="230.625" y2="230.625"/><text fill="#000000" font-family="sans-serif" font-size="13" lengthAdjust="spacing" textLength="189" x="452.5" y="225.7686">exigirCoordinador(authentication)</text><polygon fill="#181818" points="456.5,256.9766,446.5,260.9766,456.5,264.9766,452.5,260.9766" style="stroke:#181818;stroke-width:1.0;"/><line style="stroke:#181818;stroke-width:1.0;stroke-dasharray:2.0,2.0;" x1="450.5" x2="657.5" y1="260.9766" y2="260.9766"/><text fill="#000000" font-family="sans-serif" font-size="13" lengthAdjust="spacing" textLength="140" x="462.5" y="256.1201">Coordinador autenticado</text><polygon fill="#181818" points="773.5,287.3281,783.5,291.3281,773.5,295.3281,777.5,291.3281" style="stroke:#181818;stroke-width:1.0;"/><line style="stroke:#181818;stroke-width:1.0;" x1="445.5" x2="779.5" y1="291.3281" y2="291.3281"/><text fill="#000000" font-family="sans-serif" font-size="13" lengthAdjust="spacing" textLength="101" x="452.5" y="286.4717">obtenerDetalle(id)</text><polygon fill="#181818" points="924,317.6797,934,321.6797,924,325.6797,928,321.6797" style="stroke:#181818;stroke-width:1.0;"/><line style="stroke:#181818;stroke-width:1.0;" x1="785.5" x2="930" y1="321.6797" y2="321.6797"/><text fill="#000000" font-family="sans-serif" font-size="13" lengthAdjust="spacing" textLength="126" x="792.5" y="316.8232">obtenerActivoPorId(id)</text><polygon fill="#181818" points="1317,364.3828,1327,368.3828,1317,372.3828,1321,368.3828" style="stroke:#181818;stroke-width:1.0;"/><line style="stroke:#181818;stroke-width:1.0;" x1="936" x2="1323" y1="368.3828" y2="368.3828"/><text fill="#000000" font-family="sans-serif" font-size="13" lengthAdjust="spacing" textLength="172" x="943" y="347.1748">SELECT * FROM entregables</text><text fill="#000000" font-family="sans-serif" font-size="13" lengthAdjust="spacing" textLength="207" x="943" y="363.5264">WHERE id = ? AND retirado = false</text><polygon fill="#181818" points="947,394.7344,937,398.7344,947,402.7344,943,398.7344" style="stroke:#181818;stroke-width:1.0;"/><line style="stroke:#181818;stroke-width:1.0;stroke-dasharray:2.0,2.0;" x1="941" x2="1328" y1="398.7344" y2="398.7344"/><text fill="#000000" font-family="sans-serif" font-size="13" lengthAdjust="spacing" textLength="103" x="953" y="393.8779">Entregable / vacio</text><polygon fill="#181818" points="796.5,425.0859,786.5,429.0859,796.5,433.0859,792.5,429.0859" style="stroke:#181818;stroke-width:1.0;"/><line style="stroke:#181818;stroke-width:1.0;stroke-dasharray:2.0,2.0;" x1="790.5" x2="935" y1="429.0859" y2="429.0859"/><text fill="#000000" font-family="sans-serif" font-size="13" lengthAdjust="spacing" textLength="103" x="802.5" y="424.2295">Entregable / vacio</text><polygon fill="#181818" points="1074,455.4375,1084,459.4375,1074,463.4375,1078,459.4375" style="stroke:#181818;stroke-width:1.0;"/><line style="stroke:#181818;stroke-width:1.0;" x1="785.5" x2="1080" y1="459.4375" y2="459.4375"/><text fill="#000000" font-family="sans-serif" font-size="13" lengthAdjust="spacing" textLength="143" x="792.5" y="454.5811">obtenerPorEntregable(id)</text><polygon fill="#181818" points="1317,518.4922,1327,522.4922,1317,526.4922,1321,522.4922" style="stroke:#181818;stroke-width:1.0;"/><line style="stroke:#181818;stroke-width:1.0;" x1="1086" x2="1323" y1="522.4922" y2="522.4922"/><text fill="#000000" font-family="sans-serif" font-size="13" lengthAdjust="spacing" textLength="219" x="1093" y="484.9326">SELECT * FROM archivos_entregable</text><text fill="#000000" font-family="sans-serif" font-size="13" lengthAdjust="spacing" textLength="153" x="1093" y="501.2842">WHERE entregable_id = ?</text><text fill="#000000" font-family="sans-serif" font-size="13" lengthAdjust="spacing" textLength="152" x="1093" y="517.6357">ORDER BY version DESC</text><polygon fill="#181818" points="1097,548.8438,1087,552.8438,1097,556.8438,1093,552.8438" style="stroke:#181818;stroke-width:1.0;"/><line style="stroke:#181818;stroke-width:1.0;stroke-dasharray:2.0,2.0;" x1="1091" x2="1328" y1="552.8438" y2="552.8438"/><text fill="#000000" font-family="sans-serif" font-size="13" lengthAdjust="spacing" textLength="118" x="1103" y="547.9873">Archivos y versiones</text><polygon fill="#181818" points="796.5,579.1953,786.5,583.1953,796.5,587.1953,792.5,583.1953" style="stroke:#181818;stroke-width:1.0;"/><line style="stroke:#181818;stroke-width:1.0;stroke-dasharray:2.0,2.0;" x1="790.5" x2="1085" y1="583.1953" y2="583.1953"/><text fill="#000000" font-family="sans-serif" font-size="13" lengthAdjust="spacing" textLength="118" x="802.5" y="578.3389">Archivos y versiones</text><polygon fill="#181818" points="456.5,609.5469,446.5,613.5469,456.5,617.5469,452.5,613.5469" style="stroke:#181818;stroke-width:1.0;"/><line style="stroke:#181818;stroke-width:1.0;stroke-dasharray:2.0,2.0;" x1="450.5" x2="784.5" y1="613.5469" y2="613.5469"/><text fill="#000000" font-family="sans-serif" font-size="13" lengthAdjust="spacing" textLength="160" x="462.5" y="608.6904">EntregableDetalleResponse</text><polygon fill="#181818" points="288.5,639.8984,278.5,643.8984,288.5,647.8984,284.5,643.8984" style="stroke:#181818;stroke-width:1.0;"/><line style="stroke:#181818;stroke-width:1.0;stroke-dasharray:2.0,2.0;" x1="282.5" x2="444.5" y1="643.8984" y2="643.8984"/><text fill="#000000" font-family="sans-serif" font-size="13" lengthAdjust="spacing" textLength="44" x="294.5" y="639.042">200 OK</text><polygon fill="#181818" points="58.5,686.6016,48.5,690.6016,58.5,694.6016,54.5,690.6016" style="stroke:#181818;stroke-width:1.0;"/><line style="stroke:#181818;stroke-width:1.0;stroke-dasharray:2.0,2.0;" x1="52.5" x2="276.5" y1="690.6016" y2="690.6016"/><text fill="#000000" font-family="sans-serif" font-size="13" lengthAdjust="spacing" textLength="206" x="64.5" y="669.3936">Presenta ENTREGABLE_ABIERTO</text><text fill="#000000" font-family="sans-serif" font-size="13" lengthAdjust="spacing" textLength="105" x="64.5" y="685.7451">con editar y retirar</text><!--SRC=[TPFHQzim4CRV_LSSUKe78MMFWMtOiTgLTKrm0cKG21VxbefvaZcfOMNiVzzPZcDbIrwChVkTz7tVoLxxcY3Nk6VyYL0HE2fVoPGQOGBfZZK36S-qnrrD2PRUCiojvKeRh2md3RBNfMxGU1Yf4vcJnxgc9UvfOyO5IUFD2D317LlZoLJN6kTIPYkjB7shXhNPGsRjiJjjz7dZYfosPaLyq2K5f5kvjlqv6TwleGKrrcdn-nRezlCSJRbyqGVx3nUj9XLwtA4Z66NjKzBDqLiNk3nBaYX8c7myPJCJQJMLfVZ0EFs-thAIn0pkrHgcsEZf0BdfRrtzsHZP-eUcRg0X46be-xfuPa2_z5vp962Ch_v5zj4bUY5kaew4INzOB5RO3gtii758SmPs9pNYumqOwwhTAjHQhCtbnAIbbwYMbX-gmBN55iepYK0zglaQti5TiVWQfU0svlcpAXJe2Zx09qYVSc3ocaMBB7p7sb6IPq5tTzWmKfZ20INMuq6nwWjGf3eQwacyo1wQWlo8kkm2Ey1j1pkzcs5bsndRc4MHgmAoRt0W3gF8rMhUMpjJTFnmyDQpvCxLn5OlqYUp_RZ_-vSBSeqr4cuO-DbrVNzx2uilqVsKQdHTPh1aSk8GGJsj2tMVPezgcsOFgbWlDgOKQrHfZooAkb7oNm00]--></g></svg>