<svg xmlns="http://www.w3.org/2000/svg" xmlns:xlink="http://www.w3.org/1999/xlink" contentStyleType="text/css" height="790px" preserveAspectRatio="none" style="width:1446px;height:790px;background:#FFFFFF;" version="1.1" viewBox="0 0 1446 790" width="1446px" zoomAndPan="magnify"><title>Diagrama de secuencia - Abrir entregable</title><defs/><g><text fill="#000000" font-family="sans-serif" font-size="14" font-weight="bold" lengthAdjust="spacing" textLength="276.2129" x="586.585" y="29.5332">Diagrama de secuencia - Abrir entregable</text><line style="stroke:#181818;stroke-width:0.5;stroke-dasharray:5.0,5.0;" x1="46" x2="46" y1="121.2188" y2="708.6016"/><line style="stroke:#181818;stroke-width:0.5;stroke-dasharray:5.0,5.0;" x1="276.8804" x2="276.8804" y1="121.2188" y2="708.6016"/><line style="stroke:#181818;stroke-width:0.5;stroke-dasharray:5.0,5.0;" x1="446.9331" x2="446.9331" y1="121.2188" y2="708.6016"/><line style="stroke:#181818;stroke-width:0.5;stroke-dasharray:5.0,5.0;" x1="679.9722" x2="679.9722" y1="121.2188" y2="708.6016"/><line style="stroke:#181818;stroke-width:0.5;stroke-dasharray:5.0,5.0;" x1="806.4614" x2="806.4614" y1="121.2188" y2="708.6016"/><line style="stroke:#181818;stroke-width:0.5;stroke-dasharray:5.0,5.0;" x1="968.3613" x2="968.3613" y1="121.2188" y2="708.6016"/><line style="stroke:#181818;stroke-width:0.5;stroke-dasharray:5.0,5.0;" x1="1149.9951" x2="1149.9951" y1="121.2188" y2="708.6016"/><line style="stroke:#181818;stroke-width:0.5;stroke-dasharray:5.0,5.0;" x1="1395.5488" x2="1395.5488" y1="121.2188" y2="708.6016"/><text fill="#000000" font-family="sans-serif" font-size="14" lengthAdjust="spacing" textLength="77.0479" x="5" y="118.1426">Coordinador</text><ellipse cx="46.5239" cy="52.1094" fill="#E2E2F0" rx="8" ry="8" style="stroke:#181818;stroke-width:0.5;"/><path d="M46.5239,60.1094 L46.5239,87.1094 M33.5239,68.1094 L59.5239,68.1094 M46.5239,87.1094 L33.5239,102.1094 M46.5239,87.1094 L59.5239,102.1094 " fill="none" style="stroke:#181818;stroke-width:0.5;"/><text fill="#000000" font-family="sans-serif" font-size="14" lengthAdjust="spacing" textLength="77.0479" x="5" y="722.1348">Coordinador</text><ellipse cx="46.5239" cy="733.7109" fill="#E2E2F0" rx="8" ry="8" style="stroke:#181818;stroke-width:0.5;"/><path d="M46.5239,741.7109 L46.5239,768.7109 M33.5239,749.7109 L59.5239,749.7109 M46.5239,768.7109 L33.5239,783.7109 M46.5239,768.7109 L59.5239,783.7109 " fill="none" style="stroke:#181818;stroke-width:0.5;"/><rect fill="#E2E2F0" height="49.2188" rx="2.5" ry="2.5" style="stroke:#181818;stroke-width:0.5;" width="157.9922" x="198.8804" y="71"/><text fill="#000000" font-family="sans-serif" font-size="14" lengthAdjust="spacing" textLength="143.9922" x="205.8804" y="92.5332">EntregableDetallePage</text><text fill="#000000" font-family="sans-serif" font-size="14" lengthAdjust="spacing" textLength="45.8965" x="254.9282" y="110.1426">(React)</text><rect fill="#E2E2F0" height="49.2188" rx="2.5" ry="2.5" style="stroke:#181818;stroke-width:0.5;" width="157.9922" x="198.8804" y="707.6016"/><text fill="#000000" font-family="sans-serif" font-size="14" lengthAdjust="spacing" textLength="143.9922" x="205.8804" y="729.1348">EntregableDetallePage</text><text fill="#000000" font-family="sans-serif" font-size="14" lengthAdjust="spacing" textLength="45.8965" x="254.9282" y="746.7441">(React)</text><rect fill="#E2E2F0" height="49.2188" rx="2.5" ry="2.5" style="stroke:#181818;stroke-width:0.5;" width="142.4063" x="375.9331" y="71"/><text fill="#000000" font-family="sans-serif" font-size="14" lengthAdjust="spacing" textLength="128.4063" x="382.9331" y="92.5332">EntregableController</text><text fill="#000000" font-family="sans-serif" font-size="14" lengthAdjust="spacing" textLength="82.4824" x="405.895" y="110.1426">(Spring Boot)</text><rect fill="#E2E2F0" height="49.2188" rx="2.5" ry="2.5" style="stroke:#181818;stroke-width:0.5;" width="142.4063" x="375.9331" y="707.6016"/><text fill="#000000" font-family="sans-serif" font-size="14" lengthAdjust="spacing" textLength="128.4063" x="382.9331" y="729.1348">EntregableController</text><text fill="#000000" font-family="sans-serif" font-size="14" lengthAdjust="spacing" textLength="82.4824" x="405.895" y="746.7441">(Spring Boot)</text><rect fill="#E2E2F0" height="31.6094" rx="2.5" ry="2.5" style="stroke:#181818;stroke-width:0.5;" width="103.4893" x="628.9722" y="88.6094"/><text fill="#000000" font-family="sans-serif" font-size="14" lengthAdjust="spacing" textLength="89.4893" x="635.9722" y="110.1426">SesionService</text><rect fill="#E2E2F0" height="31.6094" rx="2.5" ry="2.5" style="stroke:#181818;stroke-width:0.5;" width="103.4893" x="628.9722" y="707.6016"/><text fill="#000000" font-family="sans-serif" font-size="14" lengthAdjust="spacing" textLength="89.4893" x="635.9722" y="729.1348">SesionService</text><rect fill="#E2E2F0" height="31.6094" rx="2.5" ry="2.5" style="stroke:#181818;stroke-width:0.5;" width="128.3994" x="742.4614" y="88.6094"/><text fill="#000000" font-family="sans-serif" font-size="14" lengthAdjust="spacing" textLength="114.3994" x="749.4614" y="110.1426">EntregableService</text><rect fill="#E2E2F0" height="31.6094" rx="2.5" ry="2.5" style="stroke:#181818;stroke-width:0.5;" width="128.3994" x="742.4614" y="707.6016"/><text fill="#000000" font-family="sans-serif" font-size="14" lengthAdjust="spacing" textLength="114.3994" x="749.4614" y="729.1348">EntregableService</text><rect fill="#E2E2F0" height="31.6094" rx="2.5" ry="2.5" style="stroke:#181818;stroke-width:0.5;" width="148.6338" x="894.3613" y="88.6094"/><text fill="#000000" font-family="sans-serif" font-size="14" lengthAdjust="spacing" textLength="134.6338" x="901.3613" y="110.1426">EntregableRepository</text><rect fill="#E2E2F0" height="31.6094" rx="2.5" ry="2.5" style="stroke:#181818;stroke-width:0.5;" width="148.6338" x="894.3613" y="707.6016"/><text fill="#000000" font-family="sans-serif" font-size="14" lengthAdjust="spacing" textLength="134.6338" x="901.3613" y="729.1348">EntregableRepository</text><rect fill="#E2E2F0" height="31.6094" rx="2.5" ry="2.5" style="stroke:#181818;stroke-width:0.5;" width="195.3164" x="1052.9951" y="88.6094"/><text fill="#000000" font-family="sans-serif" font-size="14" lengthAdjust="spacing" textLength="181.3164" x="1059.9951" y="110.1426">ArchivoEntregableRepository</text><rect fill="#E2E2F0" height="31.6094" rx="2.5" ry="2.5" style="stroke:#181818;stroke-width:0.5;" width="195.3164" x="1052.9951" y="707.6016"/><text fill="#000000" font-family="sans-serif" font-size="14" lengthAdjust="spacing" textLength="181.3164" x="1059.9951" y="729.1348">ArchivoEntregableRepository</text><text fill="#000000" font-family="sans-serif" font-size="14" lengthAdjust="spacing" textLength="91.834" x="1347.5488" y="118.1426">Base de Datos</text><path d="M1378.4658,67.6094 C1378.4658,57.6094 1396.4658,57.6094 1396.4658,57.6094 C1396.4658,57.6094 1414.4658,57.6094 1414.4658,67.6094 L1414.4658,93.6094 C1414.4658,103.6094 1396.4658,103.6094 1396.4658,103.6094 C1396.4658,103.6094 1378.4658,103.6094 1378.4658,93.6094 L1378.4658,67.6094 " fill="#E2E2F0" style="stroke:#181818;stroke-width:1.5;"/><path d="M1378.4658,67.6094 C1378.4658,77.6094 1396.4658,77.6094 1396.4658,77.6094 C1396.4658,77.6094 1414.4658,77.6094 1414.4658,67.6094 " fill="none" style="stroke:#181818;stroke-width:1.5;"/><text fill="#000000" font-family="sans-serif" font-size="14" lengthAdjust="spacing" textLength="91.834" x="1347.5488" y="722.1348">Base de Datos</text><path d="M1378.4658,735.2109 C1378.4658,725.2109 1396.4658,725.2109 1396.4658,725.2109 C1396.4658,725.2109 1414.4658,725.2109 1414.4658,735.2109 L1414.4658,761.2109 C1414.4658,771.2109 1396.4658,771.2109 1396.4658,771.2109 C1396.4658,771.2109 1378.4658,771.2109 1378.4658,761.2109 L1378.4658,735.2109 " fill="#E2E2F0" style="stroke:#181818;stroke-width:1.5;"/><path d="M1378.4658,735.2109 C1378.4658,745.2109 1396.4658,745.2109 1396.4658,745.2109 C1396.4658,745.2109 1414.4658,745.2109 1414.4658,735.2109 " fill="none" style="stroke:#181818;stroke-width:1.5;"/><polygon fill="#181818" points="265.8765,149.5703,275.8765,153.5703,265.8765,157.5703,269.8765,153.5703" style="stroke:#181818;stroke-width:1;"/><line style="stroke:#181818;stroke-width:1;" x1="46.5239" x2="271.8765" y1="153.5703" y2="153.5703"/><text fill="#000000" font-family="sans-serif" font-size="13" lengthAdjust="spacing" textLength="128.6479" x="53.5239" y="148.7139">Selecciona entregable</text><polygon fill="#181818" points="435.1362,196.2734,445.1362,200.2734,435.1362,204.2734,439.1362,200.2734" style="stroke:#181818;stroke-width:1;"/><line style="stroke:#181818;stroke-width:1;" x1="277.8765" x2="441.1362" y1="200.2734" y2="200.2734"/><text fill="#000000" font-family="sans-serif" font-size="13" lengthAdjust="spacing" textLength="145.2598" x="284.8765" y="179.0654">GET /api/entregables/{id}</text><text fill="#000000" font-family="sans-serif" font-size="13" lengthAdjust="spacing" textLength="99.728" x="284.8765" y="195.417">Cookie de sesion</text><polygon fill="#181818" points="668.7168,226.625,678.7168,230.625,668.7168,234.625,672.7168,230.625" style="stroke:#181818;stroke-width:1;"/><line style="stroke:#181818;stroke-width:1;" x1="447.1362" x2="674.7168" y1="230.625" y2="230.625"/><text fill="#000000" font-family="sans-serif" font-size="13" lengthAdjust="spacing" textLength="209.5806" x="454.1362" y="225.7686">obtenerSesionActual(authentication)</text><polygon fill="#181818" points="458.1362,256.9766,448.1362,260.9766,458.1362,264.9766,454.1362,260.9766" style="stroke:#181818;stroke-width:1;"/><line style="stroke:#181818;stroke-width:1;stroke-dasharray:2.0,2.0;" x1="452.1362" x2="679.7168" y1="260.9766" y2="260.9766"/><text fill="#000000" font-family="sans-serif" font-size="13" lengthAdjust="spacing" textLength="142.3779" x="464.1362" y="256.1201">Coordinador autenticado</text><polygon fill="#181818" points="794.6611,287.3281,804.6611,291.3281,794.6611,295.3281,798.6611,291.3281" style="stroke:#181818;stroke-width:1;"/><line style="stroke:#181818;stroke-width:1;" x1="447.1362" x2="800.6611" y1="291.3281" y2="291.3281"/><text fill="#000000" font-family="sans-serif" font-size="13" lengthAdjust="spacing" textLength="62.8672" x="454.1362" y="286.4717">obtener(id)</text><polygon fill="#181818" points="956.6782,317.6797,966.6782,321.6797,956.6782,325.6797,960.6782,321.6797" style="stroke:#181818;stroke-width:1;"/><line style="stroke:#181818;stroke-width:1;" x1="806.6611" x2="962.6782" y1="321.6797" y2="321.6797"/><text fill="#000000" font-family="sans-serif" font-size="13" lengthAdjust="spacing" textLength="138.0171" x="813.6611" y="316.8232">findByIdAndRetirado(id)</text><polygon fill="#181818" points="1384.4658,364.3828,1394.4658,368.3828,1384.4658,372.3828,1388.4658,368.3828" style="stroke:#181818;stroke-width:1;"/><line style="stroke:#181818;stroke-width:1;" x1="968.6782" x2="1390.4658" y1="368.3828" y2="368.3828"/><text fill="#000000" font-family="sans-serif" font-size="13" lengthAdjust="spacing" textLength="172.6753" x="975.6782" y="347.1748">SELECT * FROM entregables</text><text fill="#000000" font-family="sans-serif" font-size="13" lengthAdjust="spacing" textLength="205.188" x="975.6782" y="363.5264">WHERE id = ? AND retirado = false</text><polygon fill="#181818" points="979.6782,394.7344,969.6782,398.7344,979.6782,402.7344,975.6782,398.7344" style="stroke:#181818;stroke-width:1;"/><line style="stroke:#181818;stroke-width:1;stroke-dasharray:2.0,2.0;" x1="973.6782" x2="1395.4658" y1="398.7344" y2="398.7344"/><text fill="#000000" font-family="sans-serif" font-size="13" lengthAdjust="spacing" textLength="104.0635" x="985.6782" y="393.8779">Entregable / vacio</text><polygon fill="#181818" points="817.6611,425.0859,807.6611,429.0859,817.6611,433.0859,813.6611,429.0859" style="stroke:#181818;stroke-width:1;"/><line style="stroke:#181818;stroke-width:1;stroke-dasharray:2.0,2.0;" x1="811.6611" x2="967.6782" y1="429.0859" y2="429.0859"/><text fill="#000000" font-family="sans-serif" font-size="13" lengthAdjust="spacing" textLength="104.0635" x="823.6611" y="424.2295">Entregable / vacio</text><polygon fill="#181818" points="1138.6533,455.4375,1148.6533,459.4375,1138.6533,463.4375,1142.6533,459.4375" style="stroke:#181818;stroke-width:1;"/><line style="stroke:#181818;stroke-width:1;" x1="806.6611" x2="1144.6533" y1="459.4375" y2="459.4375"/><text fill="#000000" font-family="sans-serif" font-size="13" lengthAdjust="spacing" textLength="250.7261" x="813.6611" y="454.5811">findByEntregableIdOrderByVersionDesc(id)</text><polygon fill="#181818" points="1384.4658,518.4922,1394.4658,522.4922,1384.4658,526.4922,1388.4658,522.4922" style="stroke:#181818;stroke-width:1;"/><line style="stroke:#181818;stroke-width:1;" x1="1150.6533" x2="1390.4658" y1="522.4922" y2="522.4922"/><text fill="#000000" font-family="sans-serif" font-size="13" lengthAdjust="spacing" textLength="221.8125" x="1157.6533" y="484.9326">SELECT * FROM archivos_entregable</text><text fill="#000000" font-family="sans-serif" font-size="13" lengthAdjust="spacing" textLength="152.8325" x="1157.6533" y="501.2842">WHERE entregable_id = ?</text><text fill="#000000" font-family="sans-serif" font-size="13" lengthAdjust="spacing" textLength="153.1499" x="1157.6533" y="517.6357">ORDER BY version DESC</text><polygon fill="#181818" points="1161.6533,548.8438,1151.6533,552.8438,1161.6533,556.8438,1157.6533,552.8438" style="stroke:#181818;stroke-width:1;"/><line style="stroke:#181818;stroke-width:1;stroke-dasharray:2.0,2.0;" x1="1155.6533" x2="1395.4658" y1="552.8438" y2="552.8438"/><text fill="#000000" font-family="sans-serif" font-size="13" lengthAdjust="spacing" textLength="119.209" x="1167.6533" y="547.9873">Archivos y versiones</text><polygon fill="#181818" points="817.6611,579.1953,807.6611,583.1953,817.6611,587.1953,813.6611,583.1953" style="stroke:#181818;stroke-width:1;"/><line style="stroke:#181818;stroke-width:1;stroke-dasharray:2.0,2.0;" x1="811.6611" x2="1149.6533" y1="583.1953" y2="583.1953"/><text fill="#000000" font-family="sans-serif" font-size="13" lengthAdjust="spacing" textLength="119.209" x="823.6611" y="578.3389">Archivos y versiones</text><polygon fill="#181818" points="458.1362,609.5469,448.1362,613.5469,458.1362,617.5469,454.1362,613.5469" style="stroke:#181818;stroke-width:1;"/><line style="stroke:#181818;stroke-width:1;stroke-dasharray:2.0,2.0;" x1="452.1362" x2="805.6611" y1="613.5469" y2="613.5469"/><text fill="#000000" font-family="sans-serif" font-size="13" lengthAdjust="spacing" textLength="161.8843" x="464.1362" y="608.6904">EntregableDetalleResponse</text><polygon fill="#181818" points="288.8765,639.8984,278.8765,643.8984,288.8765,647.8984,284.8765,643.8984" style="stroke:#181818;stroke-width:1;"/><line style="stroke:#181818;stroke-width:1;stroke-dasharray:2.0,2.0;" x1="282.8765" x2="446.1362" y1="643.8984" y2="643.8984"/><text fill="#000000" font-family="sans-serif" font-size="13" lengthAdjust="spacing" textLength="44.0845" x="294.8765" y="639.042">200 OK</text><polygon fill="#181818" points="57.5239,686.6016,47.5239,690.6016,57.5239,694.6016,53.5239,690.6016" style="stroke:#181818;stroke-width:1;"/><line style="stroke:#181818;stroke-width:1;stroke-dasharray:2.0,2.0;" x1="51.5239" x2="276.8765" y1="690.6016" y2="690.6016"/><text fill="#000000" font-family="sans-serif" font-size="13" lengthAdjust="spacing" textLength="207.3525" x="63.5239" y="669.3936">Presenta ENTREGABLE_ABIERTO</text><text fill="#000000" font-family="sans-serif" font-size="13" lengthAdjust="spacing" textLength="104.7617" x="63.5239" y="685.7451">con editar y retirar</text><!--SRC=[TLFHYjim47ptLonvoXL2ZZu6scB7kclezN8uuKeX43RINaxKbOoa14BfltSjnx5DavTWxSwCTcQLe4D9a6lSE_oDe0WyoGCPgH4caEwSTa0cEDhZhgG4PR0EvjOwfGqgwv8ANT1ILsW2ZCG5cLF0igGNtDF6Z0jYujq8qCE3ioQGKRU8SsuxorJ7l5NbjDb3PksPdLPwI5oHrzQio1srf0XfAhVaXyZuVGjQK6MzPh-dYAwFGsZgvBi-sfkCSpyI5GRSeISOPVKlvvnZi3xYyYn9Uf72vFCbfHaFMPAKx0ZxUsZxDPOpcS6ZMCCKAptjG7xwHwk_6yFIlpGrgutHCA7cDK7DmEvOYLnpJ6KuO3d6GtXd9IqnSF4kQPemQQ_hZylO1gfi9nsJlMYFjQerOh7krv7Cu4qRbPqMAZMgeA0T2qHWtQrHUSRsnPEOh-43F1JBxxq4_CRy-2eA0Lh19_W2wNCExYp2XJSiFILv5YTkRklM15Cu8aTwlgW_xnLGR-pUGjlfEy92BPqYbvrUoTLXvUHbjDDZNNU53S1lEtkjkwwoROnkpBB8HG7PJpWszq0kLlFMwc32yy73gSMI7qxJjtuLVJ7VBlw_VtX1lhA6muwh7ppTZ_VtiFpMUwlSxJsS6RmuykmGGJol2_6OPazYcsOBKQoN6oFP6YaTqF54pMhTFm00]--></g></svg>