<svg xmlns="http://www.w3.org/2000/svg" xmlns:xlink="http://www.w3.org/1999/xlink" contentStyleType="text/css" data-diagram-type="DESCRIPTION" height="558px" preserveAspectRatio="none" style="width:1968px;height:558px;background:#FFFFFF;" version="1.1" viewBox="0 0 1968 558" width="1968px" zoomAndPan="magnify"><?plantuml 1.2026.6?><defs/><g><!--cluster abrirEntregable--><g class="cluster" data-qualified-name="abrirEntregable" data-source-line="4" id="ent0002"><path d="M231.5,6 L345.2998,6 A3.75,3.75 0 0 1 347.7998,8.5 L354.7998,29.6094 L984.5,29.6094 A2.5,2.5 0 0 1 987,32.1094 L987,540.5 A2.5,2.5 0 0 1 984.5,543 L231.5,543 A2.5,2.5 0 0 1 229,540.5 L229,8.5 A2.5,2.5 0 0 1 231.5,6" fill="none" style="stroke:#000000;stroke-width:1.5;"/><line style="stroke:#000000;stroke-width:1.5;" x1="229" x2="354.7998" y1="29.6094" y2="29.6094"/><text fill="#000000" font-family="sans-serif" font-size="14" font-weight="700" lengthAdjust="spacing" textLength="112.7998" x="233" y="22.5332">abrirEntregable()</text></g><!--entity DetalleEntregableView--><g class="entity" data-qualified-name="abrirEntregable.DetalleEntregableView" data-source-line="5" id="ent0003"><rect fill="#629EF9" height="37.6094" rx="2.5" ry="2.5" style="stroke:#181818;stroke-width:0.5;" width="161.6406" x="809" y="42"/><text fill="#000000" font-family="sans-serif" font-size="14" lengthAdjust="spacing" textLength="141.6406" x="819" y="66.5332">DetalleEntregableView</text></g><!--entity EntregableController--><g class="entity" data-qualified-name="abrirEntregable.EntregableController" data-source-line="6" id="ent0004"><rect fill="#B5BD68" height="37.6094" rx="2.5" ry="2.5" style="stroke:#181818;stroke-width:0.5;" width="148.4063" x="544" y="158"/><text fill="#000000" font-family="sans-serif" font-size="14" lengthAdjust="spacing" textLength="128.4063" x="554" y="182.5332">EntregableController</text></g><!--entity EntregableService--><g class="entity" data-qualified-name="abrirEntregable.EntregableService" data-source-line="7" id="ent0005"><rect fill="#B5BD68" height="37.6094" rx="2.5" ry="2.5" style="stroke:#181818;stroke-width:0.5;" width="134.3994" x="524" y="274"/><text fill="#000000" font-family="sans-serif" font-size="14" lengthAdjust="spacing" textLength="114.3994" x="534" y="298.5332">EntregableService</text></g><!--entity SesionService--><g class="entity" data-qualified-name="abrirEntregable.SesionService" data-source-line="8" id="ent0006"><rect fill="#B5BD68" height="37.6094" rx="2.5" ry="2.5" style="stroke:#181818;stroke-width:0.5;" width="109.4893" x="705.5" y="274"/><text fill="#000000" font-family="sans-serif" font-size="14" lengthAdjust="spacing" textLength="89.4893" x="715.5" y="298.5332">SesionService</text></g><!--entity ProyectoRepository--><g class="entity" data-qualified-name="abrirEntregable.ProyectoRepository" data-source-line="9" id="ent0007"><rect fill="#F2AC4E" height="37.6094" rx="2.5" ry="2.5" style="stroke:#181818;stroke-width:0.5;" width="142.165" x="245" y="390"/><text fill="#000000" font-family="sans-serif" font-size="14" lengthAdjust="spacing" textLength="122.165" x="255" y="414.5332">ProyectoRepository</text></g><!--entity EntregableRepository--><g class="entity" data-qualified-name="abrirEntregable.EntregableRepository" data-source-line="10" id="ent0008"><rect fill="#F2AC4E" height="37.6094" rx="2.5" ry="2.5" style="stroke:#181818;stroke-width:0.5;" width="154.6338" x="570.5" y="390"/><text fill="#000000" font-family="sans-serif" font-size="14" lengthAdjust="spacing" textLength="134.6338" x="580.5" y="414.5332">EntregableRepository</text></g><!--entity ArchivoRepository--><g class="entity" data-qualified-name="abrirEntregable.ArchivoRepository" data-source-line="11" id="ent0009"><rect fill="#F2AC4E" height="37.6094" rx="2.5" ry="2.5" style="stroke:#181818;stroke-width:0.5;" width="133.5996" x="761" y="390"/><text fill="#000000" font-family="sans-serif" font-size="14" lengthAdjust="spacing" textLength="113.5996" x="771" y="414.5332">ArchivoRepository</text></g><!--entity Proyecto--><g class="entity" data-qualified-name="abrirEntregable.Proyecto" data-source-line="12" id="ent0010"><rect fill="#F2AC4E" height="37.6094" rx="2.5" ry="2.5" style="stroke:#181818;stroke-width:0.5;" width="75.248" x="278.5" y="489"/><text fill="#000000" font-family="sans-serif" font-size="14" lengthAdjust="spacing" textLength="55.248" x="288.5" y="513.5332">Proyecto</text></g><!--entity Entregable--><g class="entity" data-qualified-name="abrirEntregable.Entregable" data-source-line="13" id="ent0011"><rect fill="#F2AC4E" height="37.6094" rx="2.5" ry="2.5" style="stroke:#181818;stroke-width:0.5;" width="87.7168" x="604" y="489"/><text fill="#000000" font-family="sans-serif" font-size="14" lengthAdjust="spacing" textLength="67.7168" x="614" y="513.5332">Entregable</text></g><!--entity ArchivoAdjunto--><g class="entity" data-qualified-name="abrirEntregable.ArchivoAdjunto" data-source-line="14" id="ent0012"><rect fill="#F2AC4E" height="37.6094" rx="2.5" ry="2.5" style="stroke:#181818;stroke-width:0.5;" width="114.165" x="771" y="489"/><text fill="#000000" font-family="sans-serif" font-size="14" lengthAdjust="spacing" textLength="94.165" x="781" y="513.5332">ArchivoAdjunto</text></g><!--entity EstadoEntrada--><g class="entity" data-qualified-name="EstadoEntrada" data-source-line="3" id="ent0001"><rect fill="#CDEBA5" height="37.6094" rx="2.5" ry="2.5" style="stroke:#181818;stroke-width:0.5;" width="205.9443" x="7" y="42"/><text fill="#000000" font-family="sans-serif" font-size="14" lengthAdjust="spacing" textLength="185.9443" x="17" y="66.5332">:ENTREGABLES_ABIERTOS</text></g><!--entity EstadoSalida--><g class="entity" data-qualified-name="EstadoSalida" data-source-line="17" id="ent0013"><rect fill="#CDEBA5" height="37.6094" rx="2.5" ry="2.5" style="stroke:#181818;stroke-width:0.5;" width="187.2686" x="1003.5" y="158"/><text fill="#000000" font-family="sans-serif" font-size="14" lengthAdjust="spacing" textLength="167.2686" x="1013.5" y="182.5332">:ENTREGABLE_ABIERTO</text></g><!--entity EditarEntregable--><g class="entity" data-qualified-name="EditarEntregable" data-source-line="18" id="ent0014"><rect fill="#CDEBA5" height="37.6094" rx="2.5" ry="2.5" style="stroke:#181818;stroke-width:0.5;" width="214.5645" x="1225.5" y="158"/><text fill="#000000" font-family="sans-serif" font-size="14" lengthAdjust="spacing" textLength="194.5645" x="1235.5" y="182.5332">:Collaboration EditarEntregable</text></g><!--entity EliminarEntregable--><g class="entity" data-qualified-name="EliminarEntregable" data-source-line="19" id="ent0015"><rect fill="#CDEBA5" height="37.6094" rx="2.5" ry="2.5" style="stroke:#181818;stroke-width:0.5;" width="228.5576" x="1475.5" y="158"/><text fill="#000000" font-family="sans-serif" font-size="14" lengthAdjust="spacing" textLength="208.5576" x="1485.5" y="182.5332">:Collaboration EliminarEntregable</text></g><!--entity AbrirEntregables--><g class="entity" data-qualified-name="AbrirEntregables" data-source-line="20" id="ent0016"><rect fill="#CDEBA5" height="37.6094" rx="2.5" ry="2.5" style="stroke:#181818;stroke-width:0.5;" width="214.5508" x="1739.5" y="158"/><text fill="#000000" font-family="sans-serif" font-size="14" lengthAdjust="spacing" textLength="194.5508" x="1749.5" y="182.5332">:Collaboration AbrirEntregables</text></g><!--link EstadoEntrada to DetalleEntregableView--><g class="link" data-entity-1="ent0001" data-entity-2="ent0003" data-link-type="dependency" data-source-line="22" id="lnk17"><path d="M213.18,61 C370.2,61 660.96,61 803.76,61" fill="none" id="EstadoEntrada-to-DetalleEntregableView" style="stroke:#181818;stroke-width:1;"/><polygon fill="#181818" points="808.76,61,799.76,57,803.76,61,799.76,65,808.76,61" style="stroke:#181818;stroke-width:1;stroke-linejoin:miter;stroke-miterlimit:10;"/><text fill="#000000" font-family="sans-serif" font-size="13" lengthAdjust="spacing" textLength="97.5444" x="462.5" y="54.4951">abrirEntregable()</text></g><!--link DetalleEntregableView to EntregableController--><g class="link" data-entity-1="ent0003" data-entity-2="ent0004" data-link-type="dependency" data-source-line="24" id="lnk18"><path d="M808.74,70.14 C672.08,83.84 411,110 411,110 C411,110 411,128 411,128 C411,128 479.5894,143.8999 538.9794,157.6799" fill="none" id="DetalleEntregableView-to-EntregableController" style="stroke:#181818;stroke-width:1;"/><polygon fill="#181818" points="543.85,158.81,535.987,152.8793,538.9794,157.6799,534.1788,160.6723,543.85,158.81" style="stroke:#181818;stroke-width:1;stroke-linejoin:miter;stroke-miterlimit:10;"/><text fill="#000000" font-family="sans-serif" font-size="13" lengthAdjust="spacing" textLength="203.0679" x="412" y="124.4951">obtenerEntregable(id, investigador)</text></g><!--link DetalleEntregableView to EntregableController--><g class="link" data-entity-1="ent0003" data-entity-2="ent0004" data-link-type="dependency" data-source-line="27" id="lnk21"><path d="M808.88,78.86 C742.32,92.69 659,110 659,110 C659,110 643.9777,134.1723 631.8377,153.7223" fill="none" id="DetalleEntregableView-to-EntregableController-1" style="stroke:#181818;stroke-width:1;"/><polygon fill="#181818" points="629.2,157.97,637.346,152.4343,631.8377,153.7223,630.5497,148.2141,629.2,157.97" style="stroke:#181818;stroke-width:1;stroke-linejoin:miter;stroke-miterlimit:10;"/><text fill="#000000" font-family="sans-serif" font-size="13" lengthAdjust="spacing" textLength="310.7241" x="660" y="124.4951">prepararAccionesPorAutoria(entregable, investigador)</text></g><!--link EntregableController to EntregableService--><g class="link" data-entity-1="ent0004" data-entity-2="ent0005" data-link-type="dependency" data-source-line="25" id="lnk19"><path d="M601.74,196.15 C589.57,209.74 575,226 575,226 C575,226 575,244 575,244 C575,244 578.8389,255.5166 583.3689,269.1066" fill="none" id="EntregableController-to-EntregableService" style="stroke:#181818;stroke-width:1;"/><polygon fill="#181818" points="584.95,273.85,585.8987,264.0469,583.3689,269.1066,578.3092,266.5768,584.95,273.85" style="stroke:#181818;stroke-width:1;stroke-linejoin:miter;stroke-miterlimit:10;"/><text fill="#000000" font-family="sans-serif" font-size="13" lengthAdjust="spacing" textLength="140.188" x="576" y="240.4951">obtener(id, investigador)</text></g><!--link EntregableController to SesionService--><g class="link" data-entity-1="ent0004" data-entity-2="ent0006" data-link-type="dependency" data-source-line="26" id="lnk20"><path d="M656.65,196.01 C685.87,209.63 721,226 721,226 C721,226 735.2584,250.1142 746.7984,269.6642" fill="none" id="EntregableController-to-SesionService" style="stroke:#181818;stroke-width:1;"/><polygon fill="#181818" points="749.34,273.97,748.2097,264.1862,746.7984,269.6642,741.3204,268.2528,749.34,273.97" style="stroke:#181818;stroke-width:1;stroke-linejoin:miter;stroke-miterlimit:10;"/><text fill="#000000" font-family="sans-serif" font-size="13" lengthAdjust="spacing" textLength="209.5806" x="732" y="240.4951">obtenerSesionActual(authentication)</text></g><!--link EntregableService to EntregableRepository--><g class="link" data-entity-1="ent0005" data-entity-2="ent0008" data-link-type="dependency" data-source-line="28" id="lnk22"><path d="M600.03,312.06 C610.64,333.28 625.9139,363.8279 636.5839,385.1679" fill="none" id="EntregableService-to-EntregableRepository" style="stroke:#181818;stroke-width:1;"/><polygon fill="#181818" points="638.82,389.64,638.3728,379.8013,636.5839,385.1679,631.2174,383.379,638.82,389.64" style="stroke:#181818;stroke-width:1;stroke-linejoin:miter;stroke-miterlimit:10;"/><text fill="#000000" font-family="sans-serif" font-size="13" lengthAdjust="spacing" textLength="129.3398" x="623" y="356.4951">obtenerActivoPorId(id)</text></g><!--link EntregableService to ProyectoRepository--><g class="link" data-entity-1="ent0005" data-entity-2="ent0007" data-link-type="dependency" data-source-line="29" id="lnk23"><path d="M523.98,304.18 C431.23,318.27 275,342 275,342 C275,342 275,360 275,360 C275,360 285.6423,372.4584 297.2523,386.0484" fill="none" id="EntregableService-to-ProyectoRepository" style="stroke:#181818;stroke-width:1;"/><polygon fill="#181818" points="300.5,389.85,297.6954,380.4089,297.2523,386.0484,291.6128,385.6053,300.5,389.85" style="stroke:#181818;stroke-width:1;stroke-linejoin:miter;stroke-miterlimit:10;"/><text fill="#000000" font-family="sans-serif" font-size="13" lengthAdjust="spacing" textLength="331.665" x="276" y="356.4951">verificarParticipacion(entregable.proyectoId, investigador)</text></g><!--link EntregableService to ArchivoRepository--><g class="link" data-entity-1="ent0005" data-entity-2="ent0009" data-link-type="dependency" data-source-line="30" id="lnk24"><path d="M654.79,312.01 C703.02,325.63 761,342 761,342 C761,342 786.2885,366.9106 806.1285,386.4606" fill="none" id="EntregableService-to-ArchivoRepository" style="stroke:#181818;stroke-width:1;"/><polygon fill="#181818" points="809.69,389.97,806.0869,380.8039,806.1285,386.4606,800.4718,386.5022,809.69,389.97" style="stroke:#181818;stroke-width:1;stroke-linejoin:miter;stroke-miterlimit:10;"/><text fill="#000000" font-family="sans-serif" font-size="13" lengthAdjust="spacing" textLength="145.9771" x="779" y="356.4951">obtenerPorEntregable(id)</text></g><!--link ProyectoRepository to Proyecto--><g class="link" data-entity-1="ent0007" data-entity-2="ent0010" data-link-type="association" data-source-line="31" id="lnk25"><path d="M316,428.24 C316,445.59 316,471.52 316,488.84" fill="none" id="ProyectoRepository-Proyecto" style="stroke:#181818;stroke-width:1;"/></g><!--link EntregableRepository to Entregable--><g class="link" data-entity-1="ent0008" data-entity-2="ent0011" data-link-type="association" data-source-line="32" id="lnk26"><path d="M648,428.24 C648,445.59 648,471.52 648,488.84" fill="none" id="EntregableRepository-Entregable" style="stroke:#181818;stroke-width:1;"/></g><!--link ArchivoRepository to ArchivoAdjunto--><g class="link" data-entity-1="ent0009" data-entity-2="ent0012" data-link-type="association" data-source-line="33" id="lnk27"><path d="M828,428.24 C828,445.59 828,471.52 828,488.84" fill="none" id="ArchivoRepository-ArchivoAdjunto" style="stroke:#181818;stroke-width:1;"/></g><!--link DetalleEntregableView to EstadoSalida--><g class="link" data-entity-1="ent0003" data-entity-2="ent0013" data-link-type="dependency" data-source-line="34" id="lnk28"><path d="M923.39,80.01 C948.65,93.63 979,110 979,110 C979,110 1025.4566,135.9785 1060.3966,155.5285" fill="none" id="DetalleEntregableView-to-EstadoSalida" style="stroke:#181818;stroke-width:1;stroke-dasharray:7,7;"/><polygon fill="#181818" points="1064.76,157.97,1058.859,150.0847,1060.3966,155.5285,1054.9527,157.0661,1064.76,157.97" style="stroke:#181818;stroke-width:1;stroke-linejoin:miter;stroke-miterlimit:10;"/><text fill="#000000" font-family="sans-serif" font-size="13" lengthAdjust="spacing" textLength="130.7935" x="1011" y="124.4951">continuarNavegacion()</text></g><!--link DetalleEntregableView to EditarEntregable--><g class="link" data-entity-1="ent0003" data-entity-2="ent0014" data-link-type="dependency" data-source-line="35" id="lnk29"><path d="M971.2,76.99 C1047.48,91.07 1150,110 1150,110 C1150,110 1224.1068,136.7229 1278.2868,156.2729" fill="none" id="DetalleEntregableView-to-EditarEntregable" style="stroke:#181818;stroke-width:1;stroke-dasharray:7,7;"/><polygon fill="#181818" points="1282.99,157.97,1275.8819,151.1527,1278.2868,156.2729,1273.1666,158.6778,1282.99,157.97" style="stroke:#181818;stroke-width:1;stroke-linejoin:miter;stroke-miterlimit:10;"/><text fill="#000000" font-family="sans-serif" font-size="13" lengthAdjust="spacing" textLength="104.0571" x="1200" y="124.4951">editarEntregable()</text></g><!--link DetalleEntregableView to EliminarEntregable--><g class="link" data-entity-1="ent0003" data-entity-2="ent0015" data-link-type="dependency" data-source-line="36" id="lnk30"><path d="M971.06,71.2 C1093.88,85.14 1313,110 1313,110 C1313,110 1427.4263,137.2607 1509.4463,156.8107" fill="none" id="DetalleEntregableView-to-EliminarEntregable" style="stroke:#181818;stroke-width:1;stroke-dasharray:7,7;"/><polygon fill="#181818" points="1514.31,157.97,1506.4827,151.9923,1509.4463,156.8107,1504.6278,159.7742,1514.31,157.97" style="stroke:#181818;stroke-width:1;stroke-linejoin:miter;stroke-miterlimit:10;"/><text fill="#000000" font-family="sans-serif" font-size="13" lengthAdjust="spacing" textLength="117.0508" x="1388" y="124.4951">eliminarEntregable()</text></g><!--link DetalleEntregableView to AbrirEntregables--><g class="link" data-entity-1="ent0003" data-entity-2="ent0016" data-link-type="dependency" data-source-line="37" id="lnk31"><path d="M971.26,68.25 C1140.25,81.25 1514,110 1514,110 C1514,110 1652.5055,137.4476 1751.1055,156.9976" fill="none" id="DetalleEntregableView-to-AbrirEntregables" style="stroke:#181818;stroke-width:1;stroke-dasharray:7,7;"/><polygon fill="#181818" points="1756.01,157.97,1747.9598,152.296,1751.1055,156.9976,1746.4039,160.1432,1756.01,157.97" style="stroke:#181818;stroke-width:1;stroke-linejoin:miter;stroke-miterlimit:10;"/><text fill="#000000" font-family="sans-serif" font-size="13" lengthAdjust="spacing" textLength="104.0444" x="1604" y="124.4951">abrirEntregables()</text></g><?plantuml-src bLHDRvj04BtpAqRknKYr3r4JDHmYhHrIMQfIoqIzLWDCdMt8BbeMAglgV-_WE7nZN4vc_ERDsvtto5waIj7WAoHIaJsa1AbE3kMBunYABAfzGl1XVU-ln3NCFF_nQUT_4QklVl13h3R-xkbRC0FCmCyinjfNrc2CJehH2-u9C3JIb4NQOyX439nrQdDt1dySuASnx-Rgrd-uXNkoc2HKWxzB-jt5XjTXVFCPQj1Qyq_DVMOI6f0fP4GZk80ogTK8vk5Ah3_vi3Nwm4MzerHdqcfp607MGoUXmaJFifYcV9yzEV7y717_oXMp_9rQ-Vl66miFC96yxw6-DQy0GstGyYM27qkBZRM_SNIAb_0aybMgFbElV06NQ3inEp9rYuxJiZOipE9ks9WUzApjE8D8MCHCCkHO3tHeIL6JHSOVGQg2CYltBCIupb0dB5gK9zTMVF_3ql9znV1M5P7DCPbZRfz9MHaTRz8TE-ReALD3vNV7Y2ZYVigsseYShIvnJbN3kE2Jjiw0EZ2LQ9RB3cVsJSmtC4RH3x471HdvayzdjcZud98_QQoqeMwPdhesyML2Ux6kLBA-rhvTfw-8AUh03vsv13JitvjM_jz9_F3MbikxLhezY7XpKkLe7h5WuF4Yt7FTdLnxG9tA-VPUc9cWLpjBqKrnBviPj_y3?></g></svg>