<?xml version="1.0" encoding="us-ascii" standalone="no"?><svg xmlns="http://www.w3.org/2000/svg" xmlns:xlink="http://www.w3.org/1999/xlink" contentStyleType="text/css" height="434px" preserveAspectRatio="none" style="width:1952px;height:434px;background:#FFFFFF;" version="1.1" viewBox="0 0 1952 434" width="1952px" zoomAndPan="magnify"><defs/><g><!--cluster abrirEntregable--><g id="cluster_abrirEntregable"><path d="M227.5,6 L348.5,6 A3.75,3.75 0 0 1 351,8.5 L358,29.6094 L970.5,29.6094 A2.5,2.5 0 0 1 973,32.1094 L973,424.5 A2.5,2.5 0 0 1 970.5,427 L227.5,427 A2.5,2.5 0 0 1 225,424.5 L225,8.5 A2.5,2.5 0 0 1 227.5,6 " fill="none" style="stroke:#000000;stroke-width:1.5;"/><line style="stroke:#000000;stroke-width:1.5;" x1="225" x2="358" y1="29.6094" y2="29.6094"/><text fill="#000000" font-family="sans-serif" font-size="14" font-weight="bold" lengthAdjust="spacing" textLength="120" x="229" y="22.5332">abrirEntregable()</text></g><!--entity DetalleEntregableView--><g id="elem_DetalleEntregableView"><rect fill="#629EF9" height="37.6094" rx="2.5" ry="2.5" style="stroke:#181818;stroke-width:0.5;" width="162" x="795" y="42"/><text fill="#000000" font-family="sans-serif" font-size="14" lengthAdjust="spacing" textLength="142" x="805" y="66.5332">DetalleEntregableView</text></g><!--entity EntregableController--><g id="elem_EntregableController"><rect fill="#B5BD68" height="37.6094" rx="2.5" ry="2.5" style="stroke:#181818;stroke-width:0.5;" width="151" x="568.5" y="158"/><text fill="#000000" font-family="sans-serif" font-size="14" lengthAdjust="spacing" textLength="131" x="578.5" y="182.5332">EntregableController</text></g><!--entity ProyectoRepository--><g id="elem_ProyectoRepository"><rect fill="#F2AC4E" height="37.6094" rx="2.5" ry="2.5" style="stroke:#181818;stroke-width:0.5;" width="144" x="241" y="274"/><text fill="#000000" font-family="sans-serif" font-size="14" lengthAdjust="spacing" textLength="124" x="251" y="298.5332">ProyectoRepository</text></g><!--entity EntregableRepository--><g id="elem_EntregableRepository"><rect fill="#F2AC4E" height="37.6094" rx="2.5" ry="2.5" style="stroke:#181818;stroke-width:0.5;" width="157" x="558.5" y="274"/><text fill="#000000" font-family="sans-serif" font-size="14" lengthAdjust="spacing" textLength="137" x="568.5" y="298.5332">EntregableRepository</text></g><!--entity ArchivoRepository--><g id="elem_ArchivoRepository"><rect fill="#F2AC4E" height="37.6094" rx="2.5" ry="2.5" style="stroke:#181818;stroke-width:0.5;" width="135" x="750.5" y="274"/><text fill="#000000" font-family="sans-serif" font-size="14" lengthAdjust="spacing" textLength="115" x="760.5" y="298.5332">ArchivoRepository</text></g><!--entity Proyecto--><g id="elem_Proyecto"><rect fill="#F2AC4E" height="37.6094" rx="2.5" ry="2.5" style="stroke:#181818;stroke-width:0.5;" width="76" x="275" y="373"/><text fill="#000000" font-family="sans-serif" font-size="14" lengthAdjust="spacing" textLength="56" x="285" y="397.5332">Proyecto</text></g><!--entity Entregable--><g id="elem_Entregable"><rect fill="#F2AC4E" height="37.6094" rx="2.5" ry="2.5" style="stroke:#181818;stroke-width:0.5;" width="89" x="592.5" y="373"/><text fill="#000000" font-family="sans-serif" font-size="14" lengthAdjust="spacing" textLength="69" x="602.5" y="397.5332">Entregable</text></g><!--entity ArchivoAdjunto--><g id="elem_ArchivoAdjunto"><rect fill="#F2AC4E" height="37.6094" rx="2.5" ry="2.5" style="stroke:#181818;stroke-width:0.5;" width="115" x="760.5" y="373"/><text fill="#000000" font-family="sans-serif" font-size="14" lengthAdjust="spacing" textLength="95" x="770.5" y="397.5332">ArchivoAdjunto</text></g><!--entity EstadoEntrada--><g id="elem_EstadoEntrada"><rect fill="#CDEBA5" height="37.6094" rx="2.5" ry="2.5" style="stroke:#181818;stroke-width:0.5;" width="202" x="7" y="42"/><text fill="#000000" font-family="sans-serif" font-size="14" lengthAdjust="spacing" textLength="182" x="17" y="66.5332">:ENTREGABLES_ABIERTOS</text></g><!--entity EstadoSalida--><g id="elem_EstadoSalida"><rect fill="#CDEBA5" height="37.6094" rx="2.5" ry="2.5" style="stroke:#181818;stroke-width:0.5;" width="184" x="989" y="158"/><text fill="#000000" font-family="sans-serif" font-size="14" lengthAdjust="spacing" textLength="164" x="999" y="182.5332">:ENTREGABLE_ABIERTO</text></g><!--entity EditarEntregable--><g id="elem_EditarEntregable"><rect fill="#CDEBA5" height="37.6094" rx="2.5" ry="2.5" style="stroke:#181818;stroke-width:0.5;" width="218" x="1208" y="158"/><text fill="#000000" font-family="sans-serif" font-size="14" lengthAdjust="spacing" textLength="198" x="1218" y="182.5332">:Collaboration EditarEntregable</text></g><!--entity EliminarEntregable--><g id="elem_EliminarEntregable"><rect fill="#CDEBA5" height="37.6094" rx="2.5" ry="2.5" style="stroke:#181818;stroke-width:0.5;" width="231" x="1461.5" y="158"/><text fill="#000000" font-family="sans-serif" font-size="14" lengthAdjust="spacing" textLength="211" x="1471.5" y="182.5332">:Collaboration EliminarEntregable</text></g><!--entity AbrirEntregables--><g id="elem_AbrirEntregables"><rect fill="#CDEBA5" height="37.6094" rx="2.5" ry="2.5" style="stroke:#181818;stroke-width:0.5;" width="218" x="1728" y="158"/><text fill="#000000" font-family="sans-serif" font-size="14" lengthAdjust="spacing" textLength="198" x="1738" y="182.5332">:Collaboration AbrirEntregables</text></g><!--link EstadoEntrada to DetalleEntregableView--><g id="link_EstadoEntrada_DetalleEntregableView"><path d="M209.19,61 C363.26,61 647.62,61 788.8,61 " fill="none" id="EstadoEntrada-to-DetalleEntregableView" style="stroke:#181818;stroke-width:1.0;"/><polygon fill="#181818" points="794.8,61,785.8,57,789.8,61,785.8,65,794.8,61" style="stroke:#181818;stroke-width:1.0;"/><text fill="#000000" font-family="sans-serif" font-size="13" lengthAdjust="spacing" textLength="95" x="454.5" y="54.4951">abrirEntregable()</text></g><!--link DetalleEntregableView to EntregableController--><g id="link_DetalleEntregableView_EntregableController"><path d="M794.76,70.28 C660.03,84.01 405,110 405,110 C405,110 405,128 405,128 C405,128 492.4774,145.5688 562.4974,159.6288 " fill="none" id="DetalleEntregableView-to-EntregableController" style="stroke:#181818;stroke-width:1.0;"/><polygon fill="#181818" points="568.38,160.81,560.3436,155.1165,563.4779,159.8256,558.7687,162.9599,568.38,160.81" style="stroke:#181818;stroke-width:1.0;"/><text fill="#000000" font-family="sans-serif" font-size="13" lengthAdjust="spacing" textLength="199" x="406" y="124.4951">obtenerEntregable(id, investigador)</text></g><!--link DetalleEntregableView to EntregableController--><g id="link_DetalleEntregableView_EntregableController"><path d="M794.69,79.19 C729.55,92.97 649,110 649,110 C649,110 647.3029,132.4371 645.8229,151.9871 " fill="none" id="DetalleEntregableView-to-EntregableController-1" style="stroke:#181818;stroke-width:1.0;"/><polygon fill="#181818" points="645.37,157.97,650.038,149.2976,645.7474,152.9843,642.0608,148.6937,645.37,157.97" style="stroke:#181818;stroke-width:1.0;"/><text fill="#000000" font-family="sans-serif" font-size="13" lengthAdjust="spacing" textLength="306" x="650" y="124.4951">prepararAccionesPorAutoria(entregable, investigador)</text></g><!--link EntregableController to EntregableRepository--><g id="link_EntregableController_EntregableRepository"><path d="M642.87,196.15 C642.02,209.74 641,226 641,226 C641,226 639.6445,248.4311 638.4545,267.9811 " fill="none" id="EntregableController-to-EntregableRepository" style="stroke:#181818;stroke-width:1.0;"/><polygon fill="#181818" points="638.09,273.97,642.6294,265.2297,638.3938,268.9792,634.6442,264.7436,638.09,273.97" style="stroke:#181818;stroke-width:1.0;"/><text fill="#000000" font-family="sans-serif" font-size="13" lengthAdjust="spacing" textLength="126" x="642" y="240.4951">obtenerActivoPorId(id)</text></g><!--link EntregableController to ProyectoRepository--><g id="link_EntregableController_ProyectoRepository"><path d="M568.32,188.65 C467.86,202.79 303,226 303,226 C303,226 303,244 303,244 C303,244 305.1668,254.386 307.9968,267.976 " fill="none" id="EntregableController-to-ProyectoRepository" style="stroke:#181818;stroke-width:1.0;"/><polygon fill="#181818" points="309.22,273.85,311.3012,264.2235,308.2007,268.955,303.4692,265.8545,309.22,273.85" style="stroke:#181818;stroke-width:1.0;"/><text fill="#000000" font-family="sans-serif" font-size="13" lengthAdjust="spacing" textLength="326" x="304" y="240.4951">verificarParticipacion(entregable.proyectoId, investigador)</text></g><!--link EntregableController to ArchivoRepository--><g id="link_EntregableController_ArchivoRepository"><path d="M692.4,196.01 C729.01,209.63 773,226 773,226 C773,226 789.0016,249.4615 802.3216,269.0115 " fill="none" id="EntregableController-to-ArchivoRepository" style="stroke:#181818;stroke-width:1.0;"/><polygon fill="#181818" points="805.7,273.97,803.9381,264.28,802.8847,269.8379,797.3268,268.7845,805.7,273.97" style="stroke:#181818;stroke-width:1.0;"/><text fill="#000000" font-family="sans-serif" font-size="13" lengthAdjust="spacing" textLength="143" x="786" y="240.4951">obtenerPorEntregable(id)</text></g><!--link ProyectoRepository to Proyecto--><g id="link_ProyectoRepository_Proyecto"><path d="M313,312.24 C313,329.59 313,355.52 313,372.84 " fill="none" id="ProyectoRepository-Proyecto" style="stroke:#181818;stroke-width:1.0;"/></g><!--link EntregableRepository to Entregable--><g id="link_EntregableRepository_Entregable"><path d="M637,312.24 C637,329.59 637,355.52 637,372.84 " fill="none" id="EntregableRepository-Entregable" style="stroke:#181818;stroke-width:1.0;"/></g><!--link ArchivoRepository to ArchivoAdjunto--><g id="link_ArchivoRepository_ArchivoAdjunto"><path d="M818,312.24 C818,329.59 818,355.52 818,372.84 " fill="none" id="ArchivoRepository-ArchivoAdjunto" style="stroke:#181818;stroke-width:1.0;"/></g><!--link DetalleEntregableView to EstadoSalida--><g id="link_DetalleEntregableView_EstadoSalida"><path d="M909.39,80.01 C934.65,93.63 965,110 965,110 C965,110 1009.7458,135.4515 1044.0858,155.0015 " fill="none" id="DetalleEntregableView-to-EstadoSalida" style="stroke:#181818;stroke-width:1.0;stroke-dasharray:7.0,7.0;"/><polygon fill="#181818" points="1049.3,157.97,1043.4577,150.0411,1044.9548,155.4963,1039.4997,156.9934,1049.3,157.97" style="stroke:#181818;stroke-width:1.0;"/><text fill="#000000" font-family="sans-serif" font-size="13" lengthAdjust="spacing" textLength="127" x="997" y="124.4951">continuarNavegacion()</text></g><!--link DetalleEntregableView to EditarEntregable--><g id="link_DetalleEntregableView_EditarEntregable"><path d="M957.32,77.19 C1032.61,91.25 1133,110 1133,110 C1133,110 1206.5926,136.3934 1261.0726,155.9434 " fill="none" id="DetalleEntregableView-to-EditarEntregable" style="stroke:#181818;stroke-width:1.0;stroke-dasharray:7.0,7.0;"/><polygon fill="#181818" points="1266.72,157.97,1259.5999,151.1652,1262.0138,156.2812,1256.8979,158.6951,1266.72,157.97" style="stroke:#181818;stroke-width:1.0;"/><text fill="#000000" font-family="sans-serif" font-size="13" lengthAdjust="spacing" textLength="102" x="1183" y="124.4951">editarEntregable()</text></g><!--link DetalleEntregableView to EliminarEntregable--><g id="link_DetalleEntregableView_EliminarEntregable"><path d="M957.09,71.31 C1078.65,85.27 1294,110 1294,110 C1294,110 1410.0369,137.0567 1493.8269,156.6067 " fill="none" id="DetalleEntregableView-to-EliminarEntregable" style="stroke:#181818;stroke-width:1.0;stroke-dasharray:7.0,7.0;"/><polygon fill="#181818" points="1499.67,157.97,1491.8143,152.0297,1494.8008,156.8339,1489.9965,159.8204,1499.67,157.97" style="stroke:#181818;stroke-width:1.0;"/><text fill="#000000" font-family="sans-serif" font-size="13" lengthAdjust="spacing" textLength="115" x="1370" y="124.4951">eliminarEntregable()</text></g><!--link DetalleEntregableView to AbrirEntregables--><g id="link_DetalleEntregableView_AbrirEntregables"><path d="M957.11,68.3 C1124.78,81.32 1494,110 1494,110 C1494,110 1635.8282,137.2857 1737.3782,156.8357 " fill="none" id="DetalleEntregableView-to-AbrirEntregables" style="stroke:#181818;stroke-width:1.0;stroke-dasharray:7.0,7.0;"/><polygon fill="#181818" points="1743.27,157.97,1735.1885,152.3407,1738.3602,157.0248,1733.6761,160.1965,1743.27,157.97" style="stroke:#181818;stroke-width:1.0;"/><text fill="#000000" font-family="sans-serif" font-size="13" lengthAdjust="spacing" textLength="102" x="1586" y="124.4951">abrirEntregables()</text></g><!--SRC=[ZLF1Rjf04BtxAqRq4gJ28MgYneT82zbKI5MA8Cer6jjREespQuqNAbJrtpka3JQxnk2JFNxpvktEU_KBsGePNw4aQ_osCb2vShlxI18skKUxAWrycDxfYRg2GQeV7XVwYvfyrSjdDPdfnUEtvG2m1brxB9osdh70fCBy1LS6C6FYNT6iC1CY0Gw2siLm0ByJaASrx_hoHj_Vm9tnM9Qc0J-H-HLYiwkikFuC3MZgvDL97uVG-qir_QHXpcuhHRSmbQl9EzuU0JQS9w6Ayn-qEKtvFllanFuvglYvjiBovzIQthVKMj8IIv8TTVLDvTemSuoUd0LTaCVMglvn1CLpU4fw9HipHUKpkDIXU-etfh2O90TsX16FRhlDb49anoJfHCAe498kbwNWCc-iQRDGyH78RapjQIL2U7YCz2XdnMQNJ5PvBkSszTonMekn22_ClY4SqaKLp6WSkjUjSY-MaW6pGeJtiCJ1IM5ZcBvJZZn7zfIJH5_qjZIEg_zTi-9ikL6Qzbf5vS4r3vDOb50qEUiw-GxGSbqqRVS_25ht-iRZsuDGfP3BGSYkaHzm8y2tknZsTGTnIi44bVxsA4D24DLwASBmH96efVql]--></g></svg>