<?xml version="1.0" encoding="us-ascii" standalone="no"?><svg xmlns="http://www.w3.org/2000/svg" xmlns:xlink="http://www.w3.org/1999/xlink" contentStyleType="text/css" height="434px" preserveAspectRatio="none" style="width:1820px;height:434px;background:#FFFFFF;" version="1.1" viewBox="0 0 1820 434" width="1820px" zoomAndPan="magnify"><defs/><g><!--cluster abrirEntregable--><g id="cluster_abrirEntregable"><path d="M227.5,6 L348.5,6 A3.75,3.75 0 0 1 351,8.5 L358,29.6094 L838.5,29.6094 A2.5,2.5 0 0 1 841,32.1094 L841,424.5 A2.5,2.5 0 0 1 838.5,427 L227.5,427 A2.5,2.5 0 0 1 225,424.5 L225,8.5 A2.5,2.5 0 0 1 227.5,6 " fill="none" style="stroke:#000000;stroke-width:1.5;"/><line style="stroke:#000000;stroke-width:1.5;" x1="225" x2="358" y1="29.6094" y2="29.6094"/><text fill="#000000" font-family="sans-serif" font-size="14" font-weight="bold" lengthAdjust="spacing" textLength="120" x="229" y="22.5332">abrirEntregable()</text></g><!--entity DetalleEntregableView--><g id="elem_DetalleEntregableView"><rect fill="#629EF9" height="37.6094" rx="2.5" ry="2.5" style="stroke:#181818;stroke-width:0.5;" width="162" x="663" y="42"/><text fill="#000000" font-family="sans-serif" font-size="14" lengthAdjust="spacing" textLength="142" x="673" y="66.5332">DetalleEntregableView</text></g><!--entity EntregableController--><g id="elem_EntregableController"><rect fill="#B5BD68" height="37.6094" rx="2.5" ry="2.5" style="stroke:#181818;stroke-width:0.5;" width="151" x="341.5" y="158"/><text fill="#000000" font-family="sans-serif" font-size="14" lengthAdjust="spacing" textLength="131" x="351.5" y="182.5332">EntregableController</text></g><!--entity ProyectoRepository--><g id="elem_ProyectoRepository"><rect fill="#F2AC4E" height="37.6094" rx="2.5" ry="2.5" style="stroke:#181818;stroke-width:0.5;" width="144" x="249" y="274"/><text fill="#000000" font-family="sans-serif" font-size="14" lengthAdjust="spacing" textLength="124" x="259" y="298.5332">ProyectoRepository</text></g><!--entity EntregableRepository--><g id="elem_EntregableRepository"><rect fill="#F2AC4E" height="37.6094" rx="2.5" ry="2.5" style="stroke:#181818;stroke-width:0.5;" width="157" x="610.5" y="274"/><text fill="#000000" font-family="sans-serif" font-size="14" lengthAdjust="spacing" textLength="137" x="620.5" y="298.5332">EntregableRepository</text></g><!--entity Proyecto--><g id="elem_Proyecto"><rect fill="#F2AC4E" height="37.6094" rx="2.5" ry="2.5" style="stroke:#181818;stroke-width:0.5;" width="76" x="283" y="373"/><text fill="#000000" font-family="sans-serif" font-size="14" lengthAdjust="spacing" textLength="56" x="293" y="397.5332">Proyecto</text></g><!--entity Entregable--><g id="elem_Entregable"><rect fill="#F2AC4E" height="37.6094" rx="2.5" ry="2.5" style="stroke:#181818;stroke-width:0.5;" width="89" x="644.5" y="373"/><text fill="#000000" font-family="sans-serif" font-size="14" lengthAdjust="spacing" textLength="69" x="654.5" y="397.5332">Entregable</text></g><!--entity EstadoEntrada--><g id="elem_EstadoEntrada"><rect fill="#CDEBA5" height="37.6094" rx="2.5" ry="2.5" style="stroke:#181818;stroke-width:0.5;" width="202" x="7" y="42"/><text fill="#000000" font-family="sans-serif" font-size="14" lengthAdjust="spacing" textLength="182" x="17" y="66.5332">:ENTREGABLES_ABIERTOS</text></g><!--entity EstadoSalida--><g id="elem_EstadoSalida"><rect fill="#CDEBA5" height="37.6094" rx="2.5" ry="2.5" style="stroke:#181818;stroke-width:0.5;" width="184" x="857" y="158"/><text fill="#000000" font-family="sans-serif" font-size="14" lengthAdjust="spacing" textLength="164" x="867" y="182.5332">:ENTREGABLE_ABIERTO</text></g><!--entity EditarEntregable--><g id="elem_EditarEntregable"><rect fill="#CDEBA5" height="37.6094" rx="2.5" ry="2.5" style="stroke:#181818;stroke-width:0.5;" width="218" x="1076" y="158"/><text fill="#000000" font-family="sans-serif" font-size="14" lengthAdjust="spacing" textLength="198" x="1086" y="182.5332">:Collaboration EditarEntregable</text></g><!--entity EliminarEntregable--><g id="elem_EliminarEntregable"><rect fill="#CDEBA5" height="37.6094" rx="2.5" ry="2.5" style="stroke:#181818;stroke-width:0.5;" width="231" x="1329.5" y="158"/><text fill="#000000" font-family="sans-serif" font-size="14" lengthAdjust="spacing" textLength="211" x="1339.5" y="182.5332">:Collaboration EliminarEntregable</text></g><!--entity AbrirEntregables--><g id="elem_AbrirEntregables"><rect fill="#CDEBA5" height="37.6094" rx="2.5" ry="2.5" style="stroke:#181818;stroke-width:0.5;" width="218" x="1596" y="158"/><text fill="#000000" font-family="sans-serif" font-size="14" lengthAdjust="spacing" textLength="198" x="1606" y="182.5332">:Collaboration AbrirEntregables</text></g><!--link EstadoEntrada to DetalleEntregableView--><g id="link_EstadoEntrada_DetalleEntregableView"><path d="M209.13,61 C334.95,61 541.29,61 656.96,61 " fill="none" id="EstadoEntrada-to-DetalleEntregableView" style="stroke:#181818;stroke-width:1.0;"/><polygon fill="#181818" points="662.96,61,653.96,57,657.96,61,653.96,65,662.96,61" style="stroke:#181818;stroke-width:1.0;"/><text fill="#000000" font-family="sans-serif" font-size="13" lengthAdjust="spacing" textLength="95" x="388.5" y="54.4951">abrirEntregable()</text></g><!--link DetalleEntregableView to EntregableController--><g id="link_DetalleEntregableView_EntregableController"><path d="M662.76,70.28 C528.03,84.01 273,110 273,110 C273,110 273,128 273,128 C273,128 316.4179,142.4726 357.2779,156.0926 " fill="none" id="DetalleEntregableView-to-EntregableController" style="stroke:#181818;stroke-width:1.0;"/><polygon fill="#181818" points="362.97,157.99,355.6968,151.3492,358.2266,156.4089,353.1669,158.9387,362.97,157.99" style="stroke:#181818;stroke-width:1.0;"/><text fill="#000000" font-family="sans-serif" font-size="13" lengthAdjust="spacing" textLength="199" x="274" y="124.4951">obtenerEntregable(id, investigador)</text></g><!--link DetalleEntregableView to EntregableController--><g id="link_DetalleEntregableView_EntregableController"><path d="M662.69,79.19 C597.55,92.97 517,110 517,110 C517,110 478.9366,135.1133 449.3366,154.6633 " fill="none" id="DetalleEntregableView-to-EntregableController-1" style="stroke:#181818;stroke-width:1.0;"/><polygon fill="#181818" points="444.33,157.97,454.0443,156.3477,448.5021,155.2144,449.6354,149.6722,444.33,157.97" style="stroke:#181818;stroke-width:1.0;"/><text fill="#000000" font-family="sans-serif" font-size="13" lengthAdjust="spacing" textLength="306" x="518" y="124.4951">prepararAccionesPorAutoria(entregable, investigador)</text></g><!--link EntregableController to EntregableRepository--><g id="link_EntregableController_EntregableRepository"><path d="M492.65,193.58 C560.68,207.6 650,226 650,226 C650,226 663.75,249.253 675.29,268.803 " fill="none" id="EntregableController-to-EntregableRepository" style="stroke:#181818;stroke-width:1.0;"/><polygon fill="#181818" points="678.34,273.97,677.2097,264.1862,675.7984,269.6642,670.3204,268.2528,678.34,273.97" style="stroke:#181818;stroke-width:1.0;"/><text fill="#000000" font-family="sans-serif" font-size="13" lengthAdjust="spacing" textLength="126" x="661" y="240.4951">obtenerActivoPorId(id)</text></g><!--link EntregableController to ProyectoRepository--><g id="link_EntregableController_ProyectoRepository"><path d="M379.85,196.01 C351.76,209.63 318,226 318,226 C318,226 318,244 318,244 C318,244 318.6455,254.2717 319.4955,267.8617 " fill="none" id="EntregableController-to-ProyectoRepository" style="stroke:#181818;stroke-width:1.0;"/><polygon fill="#181818" points="319.87,273.85,323.3004,264.6179,319.5579,268.8598,315.316,265.1172,319.87,273.85" style="stroke:#181818;stroke-width:1.0;"/><text fill="#000000" font-family="sans-serif" font-size="13" lengthAdjust="spacing" textLength="326" x="319" y="240.4951">verificarParticipacion(entregable.proyectoId, investigador)</text></g><!--link ProyectoRepository to Proyecto--><g id="link_ProyectoRepository_Proyecto"><path d="M321,312.24 C321,329.59 321,355.52 321,372.84 " fill="none" id="ProyectoRepository-Proyecto" style="stroke:#181818;stroke-width:1.0;"/></g><!--link EntregableRepository to Entregable--><g id="link_EntregableRepository_Entregable"><path d="M689,312.24 C689,329.59 689,355.52 689,372.84 " fill="none" id="EntregableRepository-Entregable" style="stroke:#181818;stroke-width:1.0;"/></g><!--link DetalleEntregableView to EstadoSalida--><g id="link_DetalleEntregableView_EstadoSalida"><path d="M777.39,80.01 C802.65,93.63 833,110 833,110 C833,110 877.7458,135.4515 912.0858,155.0015 " fill="none" id="DetalleEntregableView-to-EstadoSalida" style="stroke:#181818;stroke-width:1.0;stroke-dasharray:7.0,7.0;"/><polygon fill="#181818" points="917.3,157.97,911.4577,150.0411,912.9548,155.4963,907.4997,156.9934,917.3,157.97" style="stroke:#181818;stroke-width:1.0;"/><text fill="#000000" font-family="sans-serif" font-size="13" lengthAdjust="spacing" textLength="127" x="865" y="124.4951">continuarNavegacion()</text></g><!--link DetalleEntregableView to EditarEntregable--><g id="link_DetalleEntregableView_EditarEntregable"><path d="M825.32,77.19 C900.61,91.25 1001,110 1001,110 C1001,110 1074.5926,136.3934 1129.0726,155.9434 " fill="none" id="DetalleEntregableView-to-EditarEntregable" style="stroke:#181818;stroke-width:1.0;stroke-dasharray:7.0,7.0;"/><polygon fill="#181818" points="1134.72,157.97,1127.5999,151.1652,1130.0138,156.2812,1124.8979,158.6951,1134.72,157.97" style="stroke:#181818;stroke-width:1.0;"/><text fill="#000000" font-family="sans-serif" font-size="13" lengthAdjust="spacing" textLength="102" x="1051" y="124.4951">editarEntregable()</text></g><!--link DetalleEntregableView to EliminarEntregable--><g id="link_DetalleEntregableView_EliminarEntregable"><path d="M825.09,71.31 C946.65,85.27 1162,110 1162,110 C1162,110 1278.0369,137.0567 1361.8269,156.6067 " fill="none" id="DetalleEntregableView-to-EliminarEntregable" style="stroke:#181818;stroke-width:1.0;stroke-dasharray:7.0,7.0;"/><polygon fill="#181818" points="1367.67,157.97,1359.8143,152.0297,1362.8008,156.8339,1357.9965,159.8204,1367.67,157.97" style="stroke:#181818;stroke-width:1.0;"/><text fill="#000000" font-family="sans-serif" font-size="13" lengthAdjust="spacing" textLength="115" x="1238" y="124.4951">eliminarEntregable()</text></g><!--link DetalleEntregableView to AbrirEntregables--><g id="link_DetalleEntregableView_AbrirEntregables"><path d="M825.11,68.3 C992.78,81.32 1362,110 1362,110 C1362,110 1503.8282,137.2857 1605.3782,156.8357 " fill="none" id="DetalleEntregableView-to-AbrirEntregables" style="stroke:#181818;stroke-width:1.0;stroke-dasharray:7.0,7.0;"/><polygon fill="#181818" points="1611.27,157.97,1603.1885,152.3407,1606.3602,157.0248,1601.6761,160.1965,1611.27,157.97" style="stroke:#181818;stroke-width:1.0;"/><text fill="#000000" font-family="sans-serif" font-size="13" lengthAdjust="spacing" textLength="102" x="1454" y="124.4951">abrirEntregables()</text></g><!--SRC=[ZPD1J-D038NlyokiSg4IxG4jQCa1AIt3gjAAhLgqrvMJcCeYP29dwAf2_FTrMI3fJDgIK_Bq_DdZUMaUkQfHy0bAhiXlQeBQbPljXp52kSTgLHASJ6_i9Bs0GMBlxXVsHphvQPT_qidCBkv_BGU03TZ6O-5ivGKBD3NcZxWYm4nOjYAjC5EG6WU1TZeSm8i1VJhzBi-lxEqLt937igJM_9lfR-ZDBhBYyZkqfgdJLwTr4bflpzFfDmjpSHiLtO9grx1tijbZR9b7hH_CeoJpUcop7uljx7M99UjQ- -gcUbBCdA1dLu4js6Ddk_yPWVWLJibFNCMaIFu2AzszyEQD58h6x2G8HZAwxh__1A846TFhX56XaBvW9E0oJnLrALoS0LThQZolT10PxeFkPTP2svz9qZpNSrCpTv8-QsOOJ-cp86pIXmfwjE7xd3lDFQ-TDfWLElW1Ifpr1DOa_C0voXp5Syxwj-gydHd7zNlLBDf9pDCsRVhxXjuQEe7ft-fuVBsJzGHoFGXNpoXtk5RZsuZ3GzL1oXEWG3bS7aLR0P5s415cEafge-N_0000]--></g></svg>