<svg xmlns="http://www.w3.org/2000/svg" xmlns:xlink="http://www.w3.org/1999/xlink" contentStyleType="text/css" data-diagram-type="STATE" height="944px" preserveAspectRatio="none" style="width:978px;height:944px;background:#FFFFFF;" version="1.1" viewBox="0 0 978 944" width="978px" zoomAndPan="magnify"><?plantuml 1.2026.6?><defs/><g><g class="entity" data-qualified-name="in1" data-source-line="3" id="ent0001"><rect fill="#F1F1F1" height="50" rx="12.5" ry="12.5" style="stroke:#181818;stroke-width:0.5;" width="167.8066" x="296" y="7"/><line style="stroke:#181818;stroke-width:0.5;" x1="296" x2="463.8066" y1="34.6094" y2="34.6094"/><text fill="#000000" font-family="sans-serif" font-size="14" lengthAdjust="spacing" textLength="147.8066" x="306" y="26.5332">PROYECTO_ABIERTO</text></g><g class="entity" data-qualified-name="in2" data-source-line="6" id="ent0002"><rect fill="#F1F1F1" height="50" rx="12.5" ry="12.5" style="stroke:#181818;stroke-width:0.5;" width="183.3789" x="499.5" y="7"/><line style="stroke:#181818;stroke-width:0.5;" x1="499.5" x2="682.8789" y1="34.6094" y2="34.6094"/><text fill="#000000" font-family="sans-serif" font-size="14" lengthAdjust="spacing" textLength="163.3789" x="509.5" y="26.5332">ENTREGABLE_ABIERTO</text></g><g class="entity" data-qualified-name="abrirEntregables" data-source-line="9" id="ent0003"><path d="M19.5,118 L950.5,118 A12.5,12.5 0 0 1 963,130.5 L963,145.6094 L7,145.6094 L7,130.5 A12.5,12.5 0 0 1 19.5,118" fill="#F1F1F1"/><rect fill="none" height="665.6094" rx="12.5" ry="12.5" style="stroke:#181818;stroke-width:0.5;" width="956" x="7" y="118"/><line style="stroke:#181818;stroke-width:0.5;" x1="7" x2="963" y1="145.6094" y2="145.6094"/><text fill="#000000" font-family="sans-serif" font-size="14" lengthAdjust="spacing" textLength="112.0479" x="428.9761" y="137.5332">abrirEntregables()</text><g class="entity" data-qualified-name="abrirEntregables.SolicitandoApertura" data-source-line="11" id="ent0004"><rect fill="#F1F1F1" height="50" rx="12.5" ry="12.5" style="stroke:#181818;stroke-width:0.5;" width="50" x="287" y="248.6094"/><line style="stroke:#181818;stroke-width:0.5;" x1="287" x2="337" y1="276.2188" y2="276.2188"/><text fill="#000000" font-family="sans-serif" font-size="14" lengthAdjust="spacing" textLength="3.8896" x="310.0552" y="268.1426">&#160;</text></g><g class="entity" data-qualified-name="abrirEntregables.MostrandoListado" data-source-line="12" id="ent0005"><rect fill="#F1F1F1" height="50" rx="12.5" ry="12.5" style="stroke:#181818;stroke-width:0.5;" width="50" x="287" y="582.6094"/><line style="stroke:#181818;stroke-width:0.5;" x1="287" x2="337" y1="610.2188" y2="610.2188"/><text fill="#000000" font-family="sans-serif" font-size="14" lengthAdjust="spacing" textLength="3.8896" x="310.0552" y="602.1426">&#160;</text></g><g class="entity" data-qualified-name="abrirEntregables.FiltrandoBuscando" data-source-line="13" id="ent0006"><rect fill="#F1F1F1" height="50" rx="12.5" ry="12.5" style="stroke:#181818;stroke-width:0.5;" width="50" x="67" y="720.6094"/><line style="stroke:#181818;stroke-width:0.5;" x1="67" x2="117" y1="748.2188" y2="748.2188"/><text fill="#000000" font-family="sans-serif" font-size="14" lengthAdjust="spacing" textLength="3.8896" x="90.0552" y="740.1426">&#160;</text></g><g class="start_entity" data-qualified-name="abrirEntregables..start.abrirEntregables" data-source-line="15" id="ent0009"><ellipse cx="312" cy="166.6094" fill="#222222" rx="10" ry="10" style="stroke:#222222;stroke-width:1;"/></g><g class="end_entity" data-qualified-name="abrirEntregables..end.abrirEntregables" data-source-line="53" id="ent0015"><ellipse cx="623" cy="745.6094" fill="none" rx="11" ry="11" style="stroke:#222222;stroke-width:1;"/><ellipse cx="623" cy="745.6094" fill="#222222" rx="6" ry="6" style="stroke:#222222;stroke-width:1;"/></g><!--link *start*abrirEntregables to SolicitandoApertura--><g class="link" data-entity-1="ent0009" data-entity-2="ent0004" data-link-type="dependency" data-source-line="15" id="lnk10"><path d="M312,176.9294 C312,192.7894 312,220.5194 312,243.2494" fill="none" id="*start*abrirEntregables-to-SolicitandoApertura" style="stroke:#008000;stroke-width:1;"/><polygon fill="#008000" points="312,248.2494,316,239.2494,312,243.2494,308,239.2494,312,248.2494" style="stroke:#008000;stroke-width:1;stroke-linejoin:miter;stroke-miterlimit:10;"/><path d="M317,199.6094 L317,225.6094 L560,225.6094 L560,209.6094 L550,199.6094 L317,199.6094" fill="#FEFFDD" style="stroke:#181818;stroke-width:0.5;"/><path d="M550,199.6094 L550,209.6094 L560,209.6094 L550,199.6094" fill="#FEFFDD" style="stroke:#181818;stroke-width:0.5;"/><text fill="#000000" font-family="sans-serif" font-size="13" font-weight="700" lengthAdjust="spacing" textLength="77.9937" x="323" y="218.1045">Coordinador</text><text fill="#000000" font-family="sans-serif" font-size="13" lengthAdjust="spacing" textLength="140.9053" x="404.6055" y="218.1045">solicita abrir entregables</text></g><!--link SolicitandoApertura to MostrandoListado--><g class="link" data-entity-1="ent0004" data-entity-2="ent0005" data-link-type="dependency" data-source-line="20" id="lnk11"><path d="M312,298.7494 C312,360.0794 312,516.3294 312,577.5594" fill="none" id="SolicitandoApertura-to-MostrandoListado" style="stroke:#008000;stroke-width:1;"/><polygon fill="#008000" points="312,582.5594,316,573.5594,312,577.5594,308,573.5594,312,582.5594" style="stroke:#008000;stroke-width:1;stroke-linejoin:miter;stroke-miterlimit:10;"/><path d="M317,321.6094 L317,559.6094 L650,559.6094 L650,331.6094 L640,321.6094 L317,321.6094" fill="#FEFFDD" style="stroke:#181818;stroke-width:0.5;"/><path d="M640,321.6094 L640,331.6094 L650,331.6094 L640,321.6094" fill="#FEFFDD" style="stroke:#181818;stroke-width:0.5;"/><text fill="#000000" font-family="sans-serif" font-size="13" font-weight="700" lengthAdjust="spacing" textLength="49.8608" x="323" y="340.1045">Sistema</text><text fill="#000000" font-family="sans-serif" font-size="13" lengthAdjust="spacing" textLength="258.7114" x="376.4727" y="340.1045">presenta y visualiza el listado de entregables</text><text fill="#000000" font-family="sans-serif" font-size="13" font-weight="700" lengthAdjust="spacing" textLength="49.8608" x="323" y="356.4561">Sistema</text><text fill="#000000" font-family="sans-serif" font-size="13" lengthAdjust="spacing" textLength="121.3799" x="376.4727" y="356.4561">muestra informaci&#243;n:</text><text fill="#000000" font-family="sans-serif" font-size="13" lengthAdjust="spacing" textLength="21.8931" x="323" y="372.8076">&#8226; ID</text><text fill="#000000" font-family="sans-serif" font-size="13" lengthAdjust="spacing" textLength="41.4058" x="323" y="389.1592">&#8226; T&#237;tulo</text><text fill="#000000" font-family="sans-serif" font-size="13" lengthAdjust="spacing" textLength="34.1821" x="323" y="405.5107">&#8226; Tipo</text><text fill="#000000" font-family="sans-serif" font-size="13" lengthAdjust="spacing" textLength="79.6948" x="323" y="421.8623">&#8226; Fecha l&#237;mite</text><text fill="#000000" font-family="sans-serif" font-size="13" lengthAdjust="spacing" textLength="49.3657" x="323" y="438.2139">&#8226; Estado</text><text fill="#000000" font-family="sans-serif" font-size="13" lengthAdjust="spacing" textLength="190.9756" x="323" y="454.5654">&#8226; Informaci&#243;n adicional (si aplica)</text><text fill="#000000" font-family="sans-serif" font-size="13" lengthAdjust="spacing" textLength="3.6118" x="323" y="470.917">&#160;</text><text fill="#000000" font-family="sans-serif" font-size="13" font-weight="700" lengthAdjust="spacing" textLength="49.8608" x="323" y="487.2686">Sistema</text><text fill="#000000" font-family="sans-serif" font-size="13" lengthAdjust="spacing" textLength="205.9307" x="376.4727" y="487.2686">permite introducir filtros y b&#250;squeda</text><text fill="#000000" font-family="sans-serif" font-size="13" font-weight="700" lengthAdjust="spacing" textLength="49.8608" x="323" y="503.6201">Sistema</text><text fill="#000000" font-family="sans-serif" font-size="13" lengthAdjust="spacing" textLength="94.6372" x="376.4727" y="503.6201">permite solicitar:</text><text fill="#000000" font-family="sans-serif" font-size="13" lengthAdjust="spacing" textLength="101.3911" x="323" y="519.9717">&#8226; Abrir entregable</text><text fill="#000000" font-family="sans-serif" font-size="13" lengthAdjust="spacing" textLength="106.4502" x="323" y="536.3232">&#8226; Crear entregable</text><text fill="#000000" font-family="sans-serif" font-size="13" lengthAdjust="spacing" textLength="112.9438" x="323" y="552.6748">&#8226; Volver al proyecto</text></g><!--link MostrandoListado to FiltrandoBuscando--><g class="link" data-entity-1="ent0005" data-entity-2="ent0006" data-link-type="dependency" data-source-line="38" id="lnk12"><path d="M286.93,612.1894 C215.84,622.3494 18,650.6094 18,650.6094 C18,650.6094 18,702.6094 18,702.6094 C18,702.6094 41.1311,715.7422 62.6011,727.9222" fill="none" id="MostrandoListado-to-FiltrandoBuscando" style="stroke:#008000;stroke-width:1;"/><polygon fill="#008000" points="66.95,730.3894,61.0957,722.4694,62.6011,727.9222,57.1482,729.4276,66.95,730.3894" style="stroke:#008000;stroke-width:1;stroke-linejoin:miter;stroke-miterlimit:10;"/><path d="M23,663.6094 L23,689.6094 L285,689.6094 L285,673.6094 L275,663.6094 L23,663.6094" fill="#FEFFDD" style="stroke:#181818;stroke-width:0.5;"/><path d="M275,663.6094 L275,673.6094 L285,673.6094 L275,663.6094" fill="#FEFFDD" style="stroke:#181818;stroke-width:0.5;"/><text fill="#000000" font-family="sans-serif" font-size="13" font-weight="700" lengthAdjust="spacing" textLength="77.9937" x="29" y="682.1045">Coordinador</text><text fill="#000000" font-family="sans-serif" font-size="13" lengthAdjust="spacing" textLength="159.7134" x="110.6055" y="682.1045">introduce filtros o b&#250;squeda</text></g><!--link FiltrandoBuscando to FiltrandoBuscando--><g class="link" data-entity-1="ent0006" data-entity-2="ent0006" data-link-type="dependency" data-source-line="43" id="lnk13"><path d="M117.18,732.9094 C126.91,732.3494 135,736.5794 135,745.6094 C135,754.6394 131.9017,759.1567 122.1717,758.5967" fill="none" id="FiltrandoBuscando-to-FiltrandoBuscando" style="stroke:#008000;stroke-width:1;"/><polygon fill="#008000" points="117.18,758.3094,125.9353,762.8199,122.1717,758.5967,126.395,754.8331,117.18,758.3094" style="stroke:#008000;stroke-width:1;stroke-linejoin:miter;stroke-miterlimit:10;"/><path d="M140,732.6094 L140,758.6094 L514,758.6094 L514,742.6094 L504,732.6094 L140,732.6094" fill="#FEFFDD" style="stroke:#181818;stroke-width:0.5;"/><path d="M504,732.6094 L504,742.6094 L514,742.6094 L504,732.6094" fill="#FEFFDD" style="stroke:#181818;stroke-width:0.5;"/><text fill="#000000" font-family="sans-serif" font-size="13" font-weight="700" lengthAdjust="spacing" textLength="49.8608" x="146" y="751.1045">Sistema</text><text fill="#000000" font-family="sans-serif" font-size="13" lengthAdjust="spacing" textLength="299.8823" x="199.4727" y="751.1045">muestra y visualiza el listado seg&#250;n filtros/b&#250;squeda</text></g><!--link FiltrandoBuscando to MostrandoListado--><g class="link" data-entity-1="ent0006" data-entity-2="ent0005" data-link-type="dependency" data-source-line="48" id="lnk14"><path d="M117.08,739.2894 C170.36,727.9894 290,702.6094 290,702.6094 C290,702.6094 298.6819,665.5381 305.1919,637.6881" fill="none" id="FiltrandoBuscando-to-MostrandoListado" style="stroke:#008000;stroke-width:1;"/><polygon fill="#008000" points="306.33,632.8194,300.3864,640.6727,305.1919,637.6881,308.1765,642.4936,306.33,632.8194" style="stroke:#008000;stroke-width:1;stroke-linejoin:miter;stroke-miterlimit:10;"/><path d="M307,663.6094 L307,689.6094 L585,689.6094 L585,673.6094 L575,663.6094 L307,663.6094" fill="#FEFFDD" style="stroke:#181818;stroke-width:0.5;"/><path d="M575,663.6094 L575,673.6094 L585,673.6094 L575,663.6094" fill="#FEFFDD" style="stroke:#181818;stroke-width:0.5;"/><text fill="#000000" font-family="sans-serif" font-size="13" font-weight="700" lengthAdjust="spacing" textLength="77.9937" x="313" y="682.1045">Coordinador</text><text fill="#000000" font-family="sans-serif" font-size="13" lengthAdjust="spacing" textLength="176.3188" x="394.6055" y="682.1045">solicita continuar con el listado</text></g><!--link MostrandoListado to *end*abrirEntregables--><g class="link" data-entity-1="ent0005" data-entity-2="ent0015" data-link-type="dependency" data-source-line="53" id="lnk16"><path d="M337.03,612.3394 C406.04,622.6194 594,650.6094 594,650.6094 C594,650.6094 611.1255,706.1117 618.5355,730.1217" fill="none" id="MostrandoListado-to-*end*abrirEntregables" style="stroke:#008000;stroke-width:1;"/><polygon fill="#008000" points="620.01,734.8994,621.178,725.12,618.5355,730.1217,613.5338,727.4792,620.01,734.8994" style="stroke:#008000;stroke-width:1;stroke-linejoin:miter;stroke-miterlimit:10;"/><path d="M614,655.6094 L614,697.6094 L939,697.6094 L939,665.6094 L929,655.6094 L614,655.6094" fill="#FEFFDD" style="stroke:#181818;stroke-width:0.5;"/><path d="M929,655.6094 L929,665.6094 L939,665.6094 L929,655.6094" fill="#FEFFDD" style="stroke:#181818;stroke-width:0.5;"/><text fill="#000000" font-family="sans-serif" font-size="13" font-weight="700" lengthAdjust="spacing" textLength="77.9937" x="620" y="674.1045">Coordinador</text><text fill="#000000" font-family="sans-serif" font-size="13" lengthAdjust="spacing" textLength="214.627" x="701.6055" y="674.1045">solicita abrir un entregable del listado</text><text fill="#000000" font-family="sans-serif" font-size="13" font-weight="700" lengthAdjust="spacing" textLength="49.8608" x="620" y="690.4561">Sistema</text><text fill="#000000" font-family="sans-serif" font-size="13" lengthAdjust="spacing" textLength="250.7578" x="673.4727" y="690.4561">presenta y visualiza el entregable solicitado</text></g></g><g class="entity" data-qualified-name="ENTREGABLES_ABIERTOS" data-source-line="60" id="ent0017"><rect fill="#F1F1F1" height="50" rx="12.5" ry="12.5" style="stroke:#181818;stroke-width:0.5;" width="202.0547" x="40" y="880"/><line style="stroke:#181818;stroke-width:0.5;" x1="40" x2="242.0547" y1="907.6094" y2="907.6094"/><text fill="#000000" font-family="sans-serif" font-size="14" lengthAdjust="spacing" textLength="182.0547" x="50" y="899.5332">ENTREGABLES_ABIERTOS</text></g><g class="entity" data-qualified-name="ENTREGABLE_ABIERTO" data-source-line="65" id="ent0019"><rect fill="#F1F1F1" height="50" rx="12.5" ry="12.5" style="stroke:#181818;stroke-width:0.5;" width="183.3789" x="373.5" y="880"/><line style="stroke:#181818;stroke-width:0.5;" x1="373.5" x2="556.8789" y1="907.6094" y2="907.6094"/><text fill="#000000" font-family="sans-serif" font-size="14" lengthAdjust="spacing" textLength="163.3789" x="383.5" y="899.5332">ENTREGABLE_ABIERTO</text></g><g class="entity" data-qualified-name="PROYECTO_ABIERTO" data-source-line="75" id="ent0022"><rect fill="#F1F1F1" height="50" rx="12.5" ry="12.5" style="stroke:#181818;stroke-width:0.5;" width="167.8066" x="657" y="880"/><line style="stroke:#181818;stroke-width:0.5;" x1="657" x2="824.8066" y1="907.6094" y2="907.6094"/><text fill="#000000" font-family="sans-serif" font-size="14" lengthAdjust="spacing" textLength="147.8066" x="667" y="899.5332">PROYECTO_ABIERTO</text></g><!--link in1 to abrirEntregables--><g class="link" data-entity-1="ent0001" data-entity-2="ent0003" data-link-type="dependency" data-source-line="4" id="lnk7"><path d="M386.1,57.22 C389.86,72.17 393.9285,88.3315 400.1285,112.9415" fill="none" id="in1-to-abrirEntregables" style="stroke:#008000;stroke-width:1;"/><polygon fill="#008000" points="401.35,117.79,403.0301,108.0855,400.1285,112.9415,395.2725,110.0399,401.35,117.79" style="stroke:#008000;stroke-width:1;stroke-linejoin:miter;stroke-miterlimit:10;"/></g><!--link in2 to abrirEntregables--><g class="link" data-entity-1="ent0002" data-entity-2="ent0003" data-link-type="dependency" data-source-line="7" id="lnk8"><path d="M584.84,57.22 C581.04,72.17 576.9307,88.3338 570.6807,112.9438" fill="none" id="in2-to-abrirEntregables" style="stroke:#008000;stroke-width:1;"/><polygon fill="#008000" points="569.45,117.79,575.5423,110.0515,570.6807,112.9438,567.7884,108.0823,569.45,117.79" style="stroke:#008000;stroke-width:1;stroke-linejoin:miter;stroke-miterlimit:10;"/></g><!--link abrirEntregables to ENTREGABLES_ABIERTOS--><g class="link" data-entity-1="ent0003" data-entity-2="ent0017" data-link-type="dependency" data-source-line="60" id="lnk18"><path d="M196.05,784.07 C179.84,802.69 170,814 170,814 C170,814 158.8934,848.4609 150.3034,875.1209" fill="none" id="abrirEntregables-to-ENTREGABLES_ABIERTOS" style="stroke:#008000;stroke-width:1;"/><polygon fill="#008000" points="148.77,879.88,155.3374,872.5404,150.3034,875.1209,147.7229,870.087,148.77,879.88" style="stroke:#008000;stroke-width:1;stroke-linejoin:miter;stroke-miterlimit:10;"/><path d="M175,819 L175,845 L385,845 L385,829 L375,819 L175,819" fill="#FEFFDD" style="stroke:#181818;stroke-width:0.5;"/><path d="M375,819 L375,829 L385,829 L375,819" fill="#FEFFDD" style="stroke:#181818;stroke-width:0.5;"/><text fill="#000000" font-family="sans-serif" font-size="13" lengthAdjust="spacing" textLength="189.3442" x="181" y="837.4951">Listado de entregables mostrado</text></g><!--link abrirEntregables to ENTREGABLE_ABIERTO--><g class="link" data-entity-1="ent0003" data-entity-2="ent0019" data-link-type="dependency" data-source-line="65" id="lnk20"><path d="M405.19,784.07 C400.72,802.69 398,814 398,814 C398,814 398,850 398,850 C398,850 413.2961,862.3335 431.1361,876.7035" fill="none" id="abrirEntregables-to-ENTREGABLE_ABIERTO" style="stroke:#008000;stroke-width:1;"/><polygon fill="#008000" points="435.03,879.84,430.5302,871.0792,431.1361,876.7035,425.5118,877.3094,435.03,879.84" style="stroke:#008000;stroke-width:1;stroke-linejoin:miter;stroke-miterlimit:10;"/><path d="M403,819 L403,845 L521,845 L521,829 L511,819 L403,819" fill="#FEFFDD" style="stroke:#181818;stroke-width:0.5;"/><path d="M511,819 L511,829 L521,829 L511,819" fill="#FEFFDD" style="stroke:#181818;stroke-width:0.5;"/><text fill="#000000" font-family="sans-serif" font-size="13" lengthAdjust="spacing" textLength="97.5444" x="409" y="837.4951">abrirEntregable()</text></g><!--link abrirEntregables to ENTREGABLE_ABIERTO--><g class="link" data-entity-1="ent0003" data-entity-2="ent0019" data-link-type="dependency" data-source-line="70" id="lnk21"><path d="M526.28,784.07 C528.59,802.69 530,814 530,814 C530,814 530,850 530,850 C530,850 515.2262,862.2752 497.9262,876.6452" fill="none" id="abrirEntregables-to-ENTREGABLE_ABIERTO-1" style="stroke:#008000;stroke-width:1;"/><polygon fill="#008000" points="494.08,879.84,503.559,877.1663,497.9262,876.6452,498.4473,871.0124,494.08,879.84" style="stroke:#008000;stroke-width:1;stroke-linejoin:miter;stroke-miterlimit:10;"/><path d="M535,819 L535,845 L657,845 L657,829 L647,819 L535,819" fill="#FEFFDD" style="stroke:#181818;stroke-width:0.5;"/><path d="M647,819 L647,829 L657,829 L647,819" fill="#FEFFDD" style="stroke:#181818;stroke-width:0.5;"/><text fill="#000000" font-family="sans-serif" font-size="13" lengthAdjust="spacing" textLength="101.1563" x="541" y="837.4951">crearEntregable()</text></g><!--link abrirEntregables to PROYECTO_ABIERTO--><g class="link" data-entity-1="ent0003" data-entity-2="ent0022" data-link-type="dependency" data-source-line="75" id="lnk23"><path d="M673.07,784.06 C695.75,824.1 712.705,854.0499 724.905,875.5799" fill="none" id="abrirEntregables-to-PROYECTO_ABIERTO" style="stroke:#008000;stroke-width:1;"/><polygon fill="#008000" points="727.37,879.93,726.4131,870.1277,724.905,875.5799,719.4529,874.0718,727.37,879.93" style="stroke:#008000;stroke-width:1;stroke-linejoin:miter;stroke-miterlimit:10;"/><path d="M714,819 L714,845 L820,845 L820,829 L810,819 L714,819" fill="#FEFFDD" style="stroke:#181818;stroke-width:0.5;"/><path d="M810,819 L810,829 L820,829 L810,819" fill="#FEFFDD" style="stroke:#181818;stroke-width:0.5;"/><text fill="#000000" font-family="sans-serif" font-size="13" lengthAdjust="spacing" textLength="85.9663" x="720" y="837.4951">abrirProyecto()</text></g><?plantuml-src hLNDQjj04BxhAGRdOXT2Q8ub66nNAG6t3hOfb13AMfguIrQxwkugu9P2dwNtd7hBLM_I9-ci55c_3ggfVR2qE_lzpEoCpJsNCTCi0i4bsbsC42knSo-UPoop25o-1cPWSBrSVF9dwyNdoVJANwuN0y_jdDwSR3MYl3qT0zjehdrfDMxPHg0f4Sup1F_3Ukc_cqpdVXNZl1T6Spq3R2uEHmFuxdb0d_pKWBuKk5A21zmo6Qf9ZDecchM3tYjZjGkPSreFLJlYaeiyOfgOmFtcL3UlRciM3h59HL1AkapVPmiNc_5CAHroINJwucmp1lDyDlSBM4c4Eu4op61ouWwYcf1EHrqgLhIF4SiKn1eDqJBOmGCt2HFy6mCK59zXG8WjLGs4A477IsM_KpfY0Kz_opTPu9-Vl-3gxVvndJxQHAZodSVbooK6NnY8z37YvBTOzKiZ6LY50bX8sL2I2HWQ3YocvB2Hr-aHjKCbXLQhC0aeqtUkjigGwqtwPBuc6BANJXPrqgMnIQDY-usPHjQvyL691zH0WcEjTXXOrL7aPX5h5MxVoBuNhR2EU-UguRmkeyLqf8wkYtBWfXdSfa-oq7TslBhUVN2m6mCbBPS9bP6UAXh_jLuqAeuT1OciN27gmhg6darSGIZWcoP-U5vhrbOjb4DyLKpnbLVpC--S511bYI6wCbyzYGgUEatZy73qlu03rw_703V_8JlqNZytUXNqBm00?></g></svg>