<?xml version="1.0" encoding="us-ascii" standalone="no"?><svg xmlns="http://www.w3.org/2000/svg" xmlns:xlink="http://www.w3.org/1999/xlink" contentStyleType="text/css" height="844px" preserveAspectRatio="none" style="width:867px;height:844px;background:#FFFFFF;" version="1.1" viewBox="0 0 867 844" width="867px" zoomAndPan="magnify"><defs/><g><text fill="#000000" font-family="sans-serif" font-size="14" font-weight="bold" lengthAdjust="spacing" textLength="391" x="239.25" y="29.5332">Diagrama de secuencia - Cerrar sesi&#243;n del Investigador</text><rect fill="#FFFFFF" height="546.5156" style="stroke:#181818;stroke-width:1.0;" width="10" x="322.5" y="206.2734"/><rect fill="#FFFFFF" height="116.4063" style="stroke:#181818;stroke-width:1.0;" width="10" x="499" y="236.625"/><rect fill="#FFFFFF" height="46.7031" style="stroke:#181818;stroke-width:1.0;" width="10" x="659.5" y="506.625"/><rect fill="#FFFFFF" height="107.4063" style="stroke:#181818;stroke-width:1.0;" width="10" x="659.5" y="600.0313"/><rect fill="#FFFFFF" height="30.3516" style="stroke:#181818;stroke-width:1.0;" width="10" x="793.5" y="630.3828"/><rect fill="none" height="463.8125" style="stroke:#000000;stroke-width:1.5;" width="850.5" x="10" y="281.9766"/><line style="stroke:#181818;stroke-width:0.5;stroke-dasharray:5.0,5.0;" x1="61" x2="61" y1="121.2188" y2="762.7891"/><line style="stroke:#181818;stroke-width:0.5;stroke-dasharray:5.0,5.0;" x1="327" x2="327" y1="121.2188" y2="762.7891"/><line style="stroke:#181818;stroke-width:0.5;stroke-dasharray:5.0,5.0;" x1="504" x2="504" y1="121.2188" y2="762.7891"/><line style="stroke:#181818;stroke-width:0.5;stroke-dasharray:5.0,5.0;" x1="664" x2="664" y1="121.2188" y2="762.7891"/><line style="stroke:#181818;stroke-width:0.5;stroke-dasharray:5.0,5.0;" x1="798.5" x2="798.5" y1="121.2188" y2="762.7891"/><text fill="#000000" font-family="sans-serif" font-size="14" lengthAdjust="spacing" textLength="77" x="20" y="118.1426">Investigador</text><ellipse cx="61.5" cy="52.1094" fill="#E2E2F0" rx="8" ry="8" style="stroke:#181818;stroke-width:0.5;"/><path d="M61.5,60.1094 L61.5,87.1094 M48.5,68.1094 L74.5,68.1094 M61.5,87.1094 L48.5,102.1094 M61.5,87.1094 L74.5,102.1094 " fill="none" style="stroke:#181818;stroke-width:0.5;"/><text fill="#000000" font-family="sans-serif" font-size="14" lengthAdjust="spacing" textLength="77" x="20" y="776.3223">Investigador</text><ellipse cx="61.5" cy="787.8984" fill="#E2E2F0" rx="8" ry="8" style="stroke:#181818;stroke-width:0.5;"/><path d="M61.5,795.8984 L61.5,822.8984 M48.5,803.8984 L74.5,803.8984 M61.5,822.8984 L48.5,837.8984 M61.5,822.8984 L74.5,837.8984 " fill="none" style="stroke:#181818;stroke-width:0.5;"/><rect fill="#E2E2F0" height="49.2188" rx="2.5" ry="2.5" style="stroke:#181818;stroke-width:0.5;" width="137" x="259" y="71"/><text fill="#000000" font-family="sans-serif" font-size="14" lengthAdjust="spacing" textLength="123" x="266" y="92.5332">PanelPrincipalPage</text><text fill="#000000" font-family="sans-serif" font-size="14" lengthAdjust="spacing" textLength="47" x="304" y="110.1426">(React)</text><rect fill="#E2E2F0" height="49.2188" rx="2.5" ry="2.5" style="stroke:#181818;stroke-width:0.5;" width="137" x="259" y="761.7891"/><text fill="#000000" font-family="sans-serif" font-size="14" lengthAdjust="spacing" textLength="123" x="266" y="783.3223">PanelPrincipalPage</text><text fill="#000000" font-family="sans-serif" font-size="14" lengthAdjust="spacing" textLength="47" x="304" y="800.9316">(React)</text><rect fill="#E2E2F0" height="49.2188" rx="2.5" ry="2.5" style="stroke:#181818;stroke-width:0.5;" width="196" x="406" y="71"/><text fill="#000000" font-family="sans-serif" font-size="14" lengthAdjust="spacing" textLength="182" x="413" y="92.5332">ConfirmarCierreSesionModal</text><text fill="#000000" font-family="sans-serif" font-size="14" lengthAdjust="spacing" textLength="47" x="480.5" y="110.1426">(React)</text><rect fill="#E2E2F0" height="49.2188" rx="2.5" ry="2.5" style="stroke:#181818;stroke-width:0.5;" width="196" x="406" y="761.7891"/><text fill="#000000" font-family="sans-serif" font-size="14" lengthAdjust="spacing" textLength="182" x="413" y="783.3223">ConfirmarCierreSesionModal</text><text fill="#000000" font-family="sans-serif" font-size="14" lengthAdjust="spacing" textLength="47" x="480.5" y="800.9316">(React)</text><rect fill="#E2E2F0" height="49.2188" rx="2.5" ry="2.5" style="stroke:#181818;stroke-width:0.5;" width="105" x="612" y="71"/><text fill="#000000" font-family="sans-serif" font-size="14" lengthAdjust="spacing" textLength="91" x="619" y="92.5332">AuthController</text><text fill="#000000" font-family="sans-serif" font-size="14" lengthAdjust="spacing" textLength="84" x="622.5" y="110.1426">(Spring Boot)</text><rect fill="#E2E2F0" height="49.2188" rx="2.5" ry="2.5" style="stroke:#181818;stroke-width:0.5;" width="105" x="612" y="761.7891"/><text fill="#000000" font-family="sans-serif" font-size="14" lengthAdjust="spacing" textLength="91" x="619" y="783.3223">AuthController</text><text fill="#000000" font-family="sans-serif" font-size="14" lengthAdjust="spacing" textLength="84" x="622.5" y="800.9316">(Spring Boot)</text><rect fill="#E2E2F0" height="31.6094" rx="2.5" ry="2.5" style="stroke:#181818;stroke-width:0.5;" width="104" x="746.5" y="88.6094"/><text fill="#000000" font-family="sans-serif" font-size="14" lengthAdjust="spacing" textLength="90" x="753.5" y="110.1426">SesionService</text><rect fill="#E2E2F0" height="31.6094" rx="2.5" ry="2.5" style="stroke:#181818;stroke-width:0.5;" width="104" x="746.5" y="761.7891"/><text fill="#000000" font-family="sans-serif" font-size="14" lengthAdjust="spacing" textLength="90" x="753.5" y="783.3223">SesionService</text><rect fill="#FFFFFF" height="546.5156" style="stroke:#181818;stroke-width:1.0;" width="10" x="322.5" y="206.2734"/><rect fill="#FFFFFF" height="116.4063" style="stroke:#181818;stroke-width:1.0;" width="10" x="499" y="236.625"/><rect fill="#FFFFFF" height="46.7031" style="stroke:#181818;stroke-width:1.0;" width="10" x="659.5" y="506.625"/><rect fill="#FFFFFF" height="107.4063" style="stroke:#181818;stroke-width:1.0;" width="10" x="659.5" y="600.0313"/><rect fill="#FFFFFF" height="30.3516" style="stroke:#181818;stroke-width:1.0;" width="10" x="793.5" y="630.3828"/><path d="M614,136.2188 L614,178.2188 L847,178.2188 L847,146.2188 L837,136.2188 L614,136.2188 " fill="#FEFFDD" style="stroke:#181818;stroke-width:0.5;"/><path d="M837,136.2188 L837,146.2188 L847,146.2188 L837,136.2188 " fill="#FEFFDD" style="stroke:#181818;stroke-width:0.5;"/><text fill="#000000" font-family="sans-serif" font-size="13" lengthAdjust="spacing" textLength="167" x="630.75" y="154.7139">No accede a Base de Datos:</text><text fill="#000000" font-family="sans-serif" font-size="13" lengthAdjust="spacing" textLength="191" x="630.75" y="171.0654">se invalida la sesi&#243;n y su cookie.</text><polygon fill="#181818" points="310.5,202.2734,320.5,206.2734,310.5,210.2734,314.5,206.2734" style="stroke:#181818;stroke-width:1.0;"/><line style="stroke:#181818;stroke-width:1.0;" x1="61.5" x2="316.5" y1="206.2734" y2="206.2734"/><text fill="#000000" font-family="sans-serif" font-size="13" lengthAdjust="spacing" textLength="122" x="68.5" y="201.417">Solicita cerrar sesi&#243;n</text><polygon fill="#181818" points="487,232.625,497,236.625,487,240.625,491,236.625" style="stroke:#181818;stroke-width:1.0;"/><line style="stroke:#181818;stroke-width:1.0;" x1="332.5" x2="493" y1="236.625" y2="236.625"/><text fill="#000000" font-family="sans-serif" font-size="13" lengthAdjust="spacing" textLength="33" x="339.5" y="231.7686">abrir()</text><polygon fill="#181818" points="72.5,262.9766,62.5,266.9766,72.5,270.9766,68.5,266.9766" style="stroke:#181818;stroke-width:1.0;"/><line style="stroke:#181818;stroke-width:1.0;stroke-dasharray:2.0,2.0;" x1="66.5" x2="498" y1="266.9766" y2="266.9766"/><text fill="#000000" font-family="sans-serif" font-size="13" lengthAdjust="spacing" textLength="120" x="78.5" y="262.1201">Solicita confirmaci&#243;n</text><path d="M10,281.9766 L71,281.9766 L71,290.3281 L61,300.3281 L10,300.3281 L10,281.9766 " fill="#EEEEEE" style="stroke:#000000;stroke-width:1.5;"/><rect fill="none" height="463.8125" style="stroke:#000000;stroke-width:1.5;" width="850.5" x="10" y="281.9766"/><text fill="#000000" font-family="sans-serif" font-size="13" font-weight="bold" lengthAdjust="spacing" textLength="16" x="25" y="296.4717">alt</text><text fill="#000000" font-family="sans-serif" font-size="11" font-weight="bold" lengthAdjust="spacing" textLength="100" x="86" y="295.3955">[Cancela el cierre]</text><polygon fill="#181818" points="487,318.6797,497,322.6797,487,326.6797,491,322.6797" style="stroke:#181818;stroke-width:1.0;"/><line style="stroke:#181818;stroke-width:1.0;" x1="61.5" x2="493" y1="322.6797" y2="322.6797"/><text fill="#000000" font-family="sans-serif" font-size="13" lengthAdjust="spacing" textLength="57" x="68.5" y="317.8232">cancelar()</text><polygon fill="#181818" points="343.5,349.0313,333.5,353.0313,343.5,357.0313,339.5,353.0313" style="stroke:#181818;stroke-width:1.0;"/><line style="stroke:#181818;stroke-width:1.0;stroke-dasharray:2.0,2.0;" x1="337.5" x2="503" y1="353.0313" y2="353.0313"/><text fill="#000000" font-family="sans-serif" font-size="13" lengthAdjust="spacing" textLength="41" x="349.5" y="348.1748">cerrar()</text><polygon fill="#181818" points="72.5,379.3828,62.5,383.3828,72.5,387.3828,68.5,383.3828" style="stroke:#181818;stroke-width:1.0;"/><line style="stroke:#181818;stroke-width:1.0;stroke-dasharray:2.0,2.0;" x1="66.5" x2="321.5" y1="383.3828" y2="383.3828"/><text fill="#000000" font-family="sans-serif" font-size="13" lengthAdjust="spacing" textLength="237" x="78.5" y="378.5264">Mantiene PANEL_PRINCIPAL_ABIERTO</text><line style="stroke:#000000;stroke-width:1.0;stroke-dasharray:2.0,2.0;" x1="10" x2="860.5" y1="392.3828" y2="392.3828"/><text fill="#000000" font-family="sans-serif" font-size="11" font-weight="bold" lengthAdjust="spacing" textLength="108" x="15" y="403.8018">[Confirma el cierre]</text><polygon fill="#181818" points="492,425.5703,502,429.5703,492,433.5703,496,429.5703" style="stroke:#181818;stroke-width:1.0;"/><line style="stroke:#181818;stroke-width:1.0;" x1="61.5" x2="498" y1="429.5703" y2="429.5703"/><text fill="#000000" font-family="sans-serif" font-size="13" lengthAdjust="spacing" textLength="61" x="68.5" y="424.7139">confirmar()</text><polygon fill="#181818" points="343.5,455.9219,333.5,459.9219,343.5,463.9219,339.5,459.9219" style="stroke:#181818;stroke-width:1.0;"/><line style="stroke:#181818;stroke-width:1.0;stroke-dasharray:2.0,2.0;" x1="337.5" x2="503" y1="459.9219" y2="459.9219"/><text fill="#000000" font-family="sans-serif" font-size="13" lengthAdjust="spacing" textLength="95" x="349.5" y="455.0654">confirmarCierre()</text><polygon fill="#181818" points="647.5,502.625,657.5,506.625,647.5,510.625,651.5,506.625" style="stroke:#181818;stroke-width:1.0;"/><line style="stroke:#181818;stroke-width:1.0;" x1="332.5" x2="653.5" y1="506.625" y2="506.625"/><text fill="#000000" font-family="sans-serif" font-size="13" lengthAdjust="spacing" textLength="105" x="339.5" y="485.417">GET /api/auth/csrf</text><text fill="#000000" font-family="sans-serif" font-size="13" lengthAdjust="spacing" textLength="126" x="339.5" y="501.7686">Obtener token vigente</text><polygon fill="#181818" points="343.5,549.3281,333.5,553.3281,343.5,557.3281,339.5,553.3281" style="stroke:#181818;stroke-width:1.0;"/><line style="stroke:#181818;stroke-width:1.0;stroke-dasharray:2.0,2.0;" x1="337.5" x2="663.5" y1="553.3281" y2="553.3281"/><text fill="#000000" font-family="sans-serif" font-size="13" lengthAdjust="spacing" textLength="44" x="349.5" y="532.1201">200 OK</text><text fill="#000000" font-family="sans-serif" font-size="13" lengthAdjust="spacing" textLength="116" x="349.5" y="548.4717">CsrfTokenResponse</text><polygon fill="#181818" points="647.5,596.0313,657.5,600.0313,647.5,604.0313,651.5,600.0313" style="stroke:#181818;stroke-width:1.0;"/><line style="stroke:#181818;stroke-width:1.0;" x1="332.5" x2="653.5" y1="600.0313" y2="600.0313"/><text fill="#000000" font-family="sans-serif" font-size="13" lengthAdjust="spacing" textLength="128" x="339.5" y="578.8232">POST /api/auth/logout</text><text fill="#000000" font-family="sans-serif" font-size="13" lengthAdjust="spacing" textLength="187" x="339.5" y="595.1748">Cookie de sesi&#243;n + token CSRF</text><polygon fill="#181818" points="781.5,626.3828,791.5,630.3828,781.5,634.3828,785.5,630.3828" style="stroke:#181818;stroke-width:1.0;"/><line style="stroke:#181818;stroke-width:1.0;" x1="669.5" x2="787.5" y1="630.3828" y2="630.3828"/><text fill="#000000" font-family="sans-serif" font-size="13" lengthAdjust="spacing" textLength="81" x="676.5" y="625.5264">cerrarSesion()</text><polygon fill="#181818" points="680.5,656.7344,670.5,660.7344,680.5,664.7344,676.5,660.7344" style="stroke:#181818;stroke-width:1.0;"/><line style="stroke:#181818;stroke-width:1.0;stroke-dasharray:2.0,2.0;" x1="674.5" x2="797.5" y1="660.7344" y2="660.7344"/><text fill="#000000" font-family="sans-serif" font-size="13" lengthAdjust="spacing" textLength="100" x="686.5" y="655.8779">Sesi&#243;n invalidada</text><polygon fill="#181818" points="343.5,703.4375,333.5,707.4375,343.5,711.4375,339.5,707.4375" style="stroke:#181818;stroke-width:1.0;"/><line style="stroke:#181818;stroke-width:1.0;stroke-dasharray:2.0,2.0;" x1="337.5" x2="663.5" y1="707.4375" y2="707.4375"/><text fill="#000000" font-family="sans-serif" font-size="13" lengthAdjust="spacing" textLength="90" x="349.5" y="686.2295">204 No Content</text><text fill="#000000" font-family="sans-serif" font-size="13" lengthAdjust="spacing" textLength="100" x="349.5" y="702.5811">Sesi&#243;n invalidada</text><polygon fill="#181818" points="72.5,733.7891,62.5,737.7891,72.5,741.7891,68.5,737.7891" style="stroke:#181818;stroke-width:1.0;"/><line style="stroke:#181818;stroke-width:1.0;stroke-dasharray:2.0,2.0;" x1="66.5" x2="321.5" y1="737.7891" y2="737.7891"/><text fill="#000000" font-family="sans-serif" font-size="13" lengthAdjust="spacing" textLength="175" x="78.5" y="732.9326">Presenta SESION_CERRADA</text><!--SRC=[ZLHDRzf04BtlhnZbbAYbH5LF792C8HLg0fRD4GbDrXDtbSskjLuizNVr9_IFTTPVOAZIS03lC6_cpTitzifhWgN2mk4RGavGaJoIaGfX0Z4vXuv3bVhps_2_6jQcfigh0dFhX43fhHl7IdHUILMYyN2Je26TE6L2G2TOqDxSfiImknl02XwSDPvCFaR5rhmezuOkLao0CcvlpPFDKO_HJMWCZOx-9yEzirgJu_IivEu5BApjG56fnf2sV4QkLfAQb3OYXB6UmDRa0kXp7zvOG2c9fK9OO4L1j2LwMyq47vIfKQiSGUEWso-eZY2jVLNqHV2q40eBSIuRJEQ363F8h6Pw7a6EBY38hMfaKeDk_KF0DtBC09-TShTtf-HMfkOR9fnttlUyLwUwR5e9r1vYD99u4BvtsLo50FvSykxwoZOvj0vPftwdkTfnkeISBXY6u6cUAw9FV5kA344IRLQFXoHTR-9r4ZqUeiLwbUwsWZJhttldWvnxfxr7Ukp6Zx6V1ylCuFjg1rCirHJPbrDPkPUzsJvp2dlAsrSoKAk26DF0Xuh1eo70lnTaljxVm_R7tiHSQXSAf5ILrbHqIQelSKKfsMRddBGjxD5pmSQUxGkWTUsdZc6SfG_lq9jtUz7VRdlgL1eWtUw4MFlOpDKGohf-_URaU3dB6VXVYdm3NicuEVCW_oztBSsLrn975LT3o5RPUhivnAiqZPPHM5vnLcbOmxy0]--></g></svg>