<svg xmlns="http://www.w3.org/2000/svg" xmlns:xlink="http://www.w3.org/1999/xlink" contentStyleType="text/css" data-diagram-type="STATE" height="785px" preserveAspectRatio="none" style="width:702px;height:785px;background:#FFFFFF;" version="1.1" viewBox="0 0 702 785" width="702px" zoomAndPan="magnify"><?plantuml 1.2026.6?><defs/><g><g class="entity" data-qualified-name="in1" data-source-line="3" id="ent0001"><rect fill="#F1F1F1" height="50" rx="12.5" ry="12.5" style="stroke:#181818;stroke-width:0.5;" width="216.8477" x="119" y="7"/><line style="stroke:#181818;stroke-width:0.5;" x1="119" x2="335.8477" y1="34.6094" y2="34.6094"/><text fill="#000000" font-family="sans-serif" font-size="14" lengthAdjust="spacing" textLength="196.8477" x="129" y="26.5332">PANEL_PRINCIPAL_ABIERTO</text></g><g class="entity" data-qualified-name="in2" data-source-line="4" id="ent0002"><rect fill="#F1F1F1" height="50" rx="12.5" ry="12.5" style="stroke:#181818;stroke-width:0.5;" width="182.5996" x="371" y="7"/><line style="stroke:#181818;stroke-width:0.5;" x1="371" x2="553.5996" y1="34.6094" y2="34.6094"/><text fill="#000000" font-family="sans-serif" font-size="14" lengthAdjust="spacing" textLength="162.5996" x="381" y="26.5332">PUBLICACION_ABIERTA</text></g><g class="entity" data-qualified-name="abrirPublicaciones" data-source-line="8" id="ent0003"><path d="M25.5,135 L663.0194,135 A12.5,12.5 0 0 1 675.5194,147.5 L675.5194,162.6094 L13,162.6094 L13,147.5 A12.5,12.5 0 0 1 25.5,135" fill="#F1F1F1"/><rect fill="none" height="507.6094" rx="12.5" ry="12.5" style="stroke:#181818;stroke-width:0.5;" width="662.5194" x="13" y="135"/><line style="stroke:#181818;stroke-width:0.5;" x1="13" x2="675.5194" y1="162.6094" y2="162.6094"/><text fill="#000000" font-family="sans-serif" font-size="14" lengthAdjust="spacing" textLength="123.7168" x="282.4013" y="154.5332">abrirPublicaciones()</text><g class="entity" data-qualified-name="abrirPublicaciones.MostrandoListado" data-source-line="9" id="ent0004"><rect fill="#F1F1F1" height="50" rx="12.5" ry="12.5" style="stroke:#181818;stroke-width:0.5;" width="50" x="192.5194" y="347.6094"/><line style="stroke:#181818;stroke-width:0.5;" x1="192.5194" x2="242.5194" y1="375.2188" y2="375.2188"/><text fill="#000000" font-family="sans-serif" font-size="14" lengthAdjust="spacing" textLength="3.8896" x="215.5746" y="367.1426">&#160;</text></g><g class="entity" data-qualified-name="abrirPublicaciones.FiltrandoListado" data-source-line="10" id="ent0005"><rect fill="#F1F1F1" height="50" rx="12.5" ry="12.5" style="stroke:#181818;stroke-width:0.5;" width="50" x="29.5194" y="485.6094"/><line style="stroke:#181818;stroke-width:0.5;" x1="29.5194" x2="79.5194" y1="513.2188" y2="513.2188"/><text fill="#000000" font-family="sans-serif" font-size="14" lengthAdjust="spacing" textLength="3.8896" x="52.5746" y="505.1426">&#160;</text></g><g class="start_entity" data-qualified-name="abrirPublicaciones..start.abrirPublicaciones" data-source-line="12" id="ent0008"><ellipse cx="217.5194" cy="183.6094" fill="#222222" rx="10" ry="10" style="stroke:#222222;stroke-width:1;"/></g><g class="end_entity" data-qualified-name="abrirPublicaciones..end.abrirPublicaciones" data-source-line="28" id="ent0011"><ellipse cx="240.5194" cy="618.6094" fill="none" rx="11" ry="11" style="stroke:#222222;stroke-width:1;"/><ellipse cx="240.5194" cy="618.6094" fill="#222222" rx="6" ry="6" style="stroke:#222222;stroke-width:1;"/></g><!--link *start*abrirPublicaciones to MostrandoListado--><g class="link" data-entity-1="ent0008" data-entity-2="ent0004" data-link-type="dependency" data-source-line="12" id="lnk9"><path d="M217.5194,193.6294 C217.5194,221.2794 217.5194,300.5194 217.5194,342.4194" fill="none" id="*start*abrirPublicaciones-to-MostrandoListado" style="stroke:#008000;stroke-width:1;"/><polygon fill="#008000" points="217.5194,347.4194,221.5194,338.4194,217.5194,342.4194,213.5194,338.4194,217.5194,347.4194" style="stroke:#008000;stroke-width:1;stroke-linejoin:miter;stroke-miterlimit:10;"/><path d="M222.5194,216.6094 L222.5194,324.6094 L521.5194,324.6094 L521.5194,226.6094 L511.5194,216.6094 L222.5194,216.6094" fill="#FEFFDD" style="stroke:#181818;stroke-width:0.5;"/><path d="M511.5194,216.6094 L511.5194,226.6094 L521.5194,226.6094 L511.5194,216.6094" fill="#FEFFDD" style="stroke:#181818;stroke-width:0.5;"/><text fill="#000000" font-family="sans-serif" font-size="13" font-weight="700" lengthAdjust="spacing" textLength="77.2954" x="228.5194" y="235.1045">Investigador</text><text fill="#000000" font-family="sans-serif" font-size="13" lengthAdjust="spacing" textLength="151.7407" x="309.4266" y="235.1045">solicita abrir publicaciones</text><text fill="#000000" font-family="sans-serif" font-size="13" font-weight="700" lengthAdjust="spacing" textLength="49.8608" x="228.5194" y="251.4561">Sistema</text><text fill="#000000" font-family="sans-serif" font-size="13" lengthAdjust="spacing" textLength="225.4624" x="281.992" y="251.4561">presenta las publicaciones activas con:</text><text fill="#000000" font-family="sans-serif" font-size="13" lengthAdjust="spacing" textLength="40.6821" x="228.5194" y="267.8076">&#8226; Titulo</text><text fill="#000000" font-family="sans-serif" font-size="13" lengthAdjust="spacing" textLength="39.9648" x="228.5194" y="284.1592">&#8226; Autor</text><text fill="#000000" font-family="sans-serif" font-size="13" lengthAdjust="spacing" textLength="45.0239" x="228.5194" y="300.5107">&#8226; Fecha</text><text fill="#000000" font-family="sans-serif" font-size="13" lengthAdjust="spacing" textLength="49.3657" x="228.5194" y="316.8623">&#8226; Estado</text></g><!--link MostrandoListado to FiltrandoListado--><g class="link" data-entity-1="ent0004" data-entity-2="ent0005" data-link-type="dependency" data-source-line="22" id="lnk10"><path d="M192.1794,379.3594 C141.5194,390.8594 32.5194,415.6094 32.5194,415.6094 C32.5194,415.6094 32.5194,467.6094 32.5194,467.6094 C32.5194,467.6094 34.5594,471.5102 39.3994,480.7502" fill="none" id="MostrandoListado-to-FiltrandoListado" style="stroke:#008000;stroke-width:1;"/><polygon fill="#008000" points="41.7194,485.1794,41.0867,475.3509,39.3994,480.7502,34,479.0629,41.7194,485.1794" style="stroke:#008000;stroke-width:1;stroke-linejoin:miter;stroke-miterlimit:10;"/><path d="M37.5194,420.6094 L37.5194,462.6094 L384.5194,462.6094 L384.5194,430.6094 L374.5194,420.6094 L37.5194,420.6094" fill="#FEFFDD" style="stroke:#181818;stroke-width:0.5;"/><path d="M374.5194,420.6094 L374.5194,430.6094 L384.5194,430.6094 L374.5194,420.6094" fill="#FEFFDD" style="stroke:#181818;stroke-width:0.5;"/><text fill="#000000" font-family="sans-serif" font-size="13" font-weight="700" lengthAdjust="spacing" textLength="77.2954" x="43.5194" y="439.1045">Investigador</text><text fill="#000000" font-family="sans-serif" font-size="13" lengthAdjust="spacing" textLength="127.1563" x="124.4266" y="439.1045">solicita filtrar el listado</text><text fill="#000000" font-family="sans-serif" font-size="13" font-weight="700" lengthAdjust="spacing" textLength="49.8608" x="43.5194" y="455.4561">Sistema</text><text fill="#000000" font-family="sans-serif" font-size="13" lengthAdjust="spacing" textLength="273.1587" x="96.992" y="455.4561">presenta las publicaciones activas coincidentes</text></g><!--link MostrandoListado to *end*abrirPublicaciones--><g class="link" data-entity-1="ent0004" data-entity-2="ent0011" data-link-type="dependency" data-source-line="28" id="lnk12"><path d="M242.5294,379.7194 C290.2294,391.3694 389.5194,415.6094 389.5194,415.6094 C389.5194,415.6094 389.5194,589.6094 389.5194,589.6094 C389.5194,589.6094 290.3134,608.2558 256.1534,614.6758" fill="none" id="MostrandoListado-to-*end*abrirPublicaciones" style="stroke:#008000;stroke-width:1;"/><polygon fill="#008000" points="251.2394,615.5994,260.8234,617.8682,256.1534,614.6758,259.3457,610.0059,251.2394,615.5994" style="stroke:#008000;stroke-width:1;stroke-linejoin:miter;stroke-miterlimit:10;"/><path d="M394.5194,497.6094 L394.5194,523.6094 L651.5194,523.6094 L651.5194,507.6094 L641.5194,497.6094 L394.5194,497.6094" fill="#FEFFDD" style="stroke:#181818;stroke-width:0.5;"/><path d="M641.5194,497.6094 L641.5194,507.6094 L651.5194,507.6094 L641.5194,497.6094" fill="#FEFFDD" style="stroke:#181818;stroke-width:0.5;"/><text fill="#000000" font-family="sans-serif" font-size="13" font-weight="700" lengthAdjust="spacing" textLength="77.2954" x="400.5194" y="516.1045">Investigador</text><text fill="#000000" font-family="sans-serif" font-size="13" lengthAdjust="spacing" textLength="155.3843" x="481.4266" y="516.1045">selecciona una publicacion</text></g><!--link FiltrandoListado to *end*abrirPublicaciones--><g class="link" data-entity-1="ent0005" data-entity-2="ent0011" data-link-type="dependency" data-source-line="33" id="lnk13"><path d="M75.6594,535.8594 C95.6194,558.7594 122.5194,589.6094 122.5194,589.6094 C122.5194,589.6094 196.3047,607.1139 225.1847,613.9739" fill="none" id="FiltrandoListado-to-*end*abrirPublicaciones" style="stroke:#008000;stroke-width:1;"/><polygon fill="#008000" points="230.0494,615.1294,222.2174,609.1577,225.1847,613.9739,220.3686,616.9412,230.0494,615.1294" style="stroke:#008000;stroke-width:1;stroke-linejoin:miter;stroke-miterlimit:10;"/><path d="M127.5194,558.6094 L127.5194,584.6094 L384.5194,584.6094 L384.5194,568.6094 L374.5194,558.6094 L127.5194,558.6094" fill="#FEFFDD" style="stroke:#181818;stroke-width:0.5;"/><path d="M374.5194,558.6094 L374.5194,568.6094 L384.5194,568.6094 L374.5194,558.6094" fill="#FEFFDD" style="stroke:#181818;stroke-width:0.5;"/><text fill="#000000" font-family="sans-serif" font-size="13" font-weight="700" lengthAdjust="spacing" textLength="77.2954" x="133.5194" y="577.1045">Investigador</text><text fill="#000000" font-family="sans-serif" font-size="13" lengthAdjust="spacing" textLength="155.3843" x="214.4266" y="577.1045">selecciona una publicacion</text></g></g><g class="entity" data-qualified-name="PUBLICACIONES_ABIERTAS" data-source-line="39" id="ent0014"><rect fill="#F1F1F1" height="50" rx="12.5" ry="12.5" style="stroke:#181818;stroke-width:0.5;" width="210.6133" x="7" y="721"/><line style="stroke:#181818;stroke-width:0.5;" x1="7" x2="217.6133" y1="748.6094" y2="748.6094"/><text fill="#000000" font-family="sans-serif" font-size="14" lengthAdjust="spacing" textLength="190.6133" x="17" y="740.5332">PUBLICACIONES_ABIERTAS</text></g><g class="entity" data-qualified-name="PUBLICACION_ABIERTA" data-source-line="40" id="ent0016"><rect fill="#F1F1F1" height="50" rx="12.5" ry="12.5" style="stroke:#181818;stroke-width:0.5;" width="182.5996" x="253" y="721"/><line style="stroke:#181818;stroke-width:0.5;" x1="253" x2="435.5996" y1="748.6094" y2="748.6094"/><text fill="#000000" font-family="sans-serif" font-size="14" lengthAdjust="spacing" textLength="162.5996" x="263" y="740.5332">PUBLICACION_ABIERTA</text></g><g class="entity" data-qualified-name="PANEL_PRINCIPAL_ABIERTO" data-source-line="41" id="ent0018"><rect fill="#F1F1F1" height="50" rx="12.5" ry="12.5" style="stroke:#181818;stroke-width:0.5;" width="216.8477" x="471" y="721"/><line style="stroke:#181818;stroke-width:0.5;" x1="471" x2="687.8477" y1="748.6094" y2="748.6094"/><text fill="#000000" font-family="sans-serif" font-size="14" lengthAdjust="spacing" textLength="196.8477" x="481" y="740.5332">PANEL_PRINCIPAL_ABIERTO</text></g><!--link in1 to abrirPublicaciones--><g class="link" data-entity-1="ent0001" data-entity-2="ent0003" data-link-type="dependency" data-source-line="5" id="lnk6"><path d="M235.45,57.12 C241.54,75.61 249.0951,98.5212 259.5051,130.1112" fill="none" id="in1-to-abrirPublicaciones" style="stroke:#008000;stroke-width:1;"/><polygon fill="#008000" points="261.07,134.86,262.0522,125.0602,259.5051,130.1112,254.4541,127.5641,261.07,134.86" style="stroke:#008000;stroke-width:1;stroke-linejoin:miter;stroke-miterlimit:10;"/><text fill="#000000" font-family="sans-serif" font-size="13" lengthAdjust="spacing" textLength="114.8799" x="251.5" y="101.4951">abrirPublicaciones()</text></g><!--link in2 to abrirPublicaciones--><g class="link" data-entity-1="ent0002" data-entity-2="ent0003" data-link-type="dependency" data-source-line="6" id="lnk7"><path d="M454.48,57.12 C448.34,75.61 440.7171,98.5252 430.2171,130.1152" fill="none" id="in2-to-abrirPublicaciones" style="stroke:#008000;stroke-width:1;"/><polygon fill="#008000" points="428.64,134.86,435.2746,127.5811,430.2171,130.1152,427.6829,125.0578,428.64,134.86" style="stroke:#008000;stroke-width:1;stroke-linejoin:miter;stroke-miterlimit:10;"/><text fill="#000000" font-family="sans-serif" font-size="13" lengthAdjust="spacing" textLength="114.8799" x="443.5" y="101.4951">abrirPublicaciones()</text></g><!--link abrirPublicaciones to PUBLICACIONES_ABIERTAS--><g class="link" data-entity-1="ent0003" data-entity-2="ent0014" data-link-type="dependency" data-source-line="39" id="lnk15"><path d="M178.98,643.27 C158.33,674.87 142.9962,698.3352 130.9262,716.7952" fill="none" id="abrirPublicaciones-to-PUBLICACIONES_ABIERTAS" style="stroke:#008000;stroke-width:1;"/><polygon fill="#008000" points="128.19,720.98,136.4631,715.6363,130.9262,716.7952,129.7674,711.2583,128.19,720.98" style="stroke:#008000;stroke-width:1;stroke-linejoin:miter;stroke-miterlimit:10;"/><text fill="#000000" font-family="sans-serif" font-size="13" lengthAdjust="spacing" textLength="99.7217" x="158.5" y="687.4951">Listado mostrado</text></g><!--link abrirPublicaciones to PUBLICACION_ABIERTA--><g class="link" data-entity-1="ent0003" data-entity-2="ent0016" data-link-type="dependency" data-source-line="40" id="lnk17"><path d="M344.5,643.27 C344.5,674.87 344.5,697.52 344.5,715.98" fill="none" id="abrirPublicaciones-to-PUBLICACION_ABIERTA" style="stroke:#008000;stroke-width:1;"/><polygon fill="#008000" points="344.5,720.98,348.5,711.98,344.5,715.98,340.5,711.98,344.5,720.98" style="stroke:#008000;stroke-width:1;stroke-linejoin:miter;stroke-miterlimit:10;"/><text fill="#000000" font-family="sans-serif" font-size="13" lengthAdjust="spacing" textLength="101.1499" x="345.5" y="687.4951">abrirPublicacion()</text></g><!--link abrirPublicaciones to PANEL_PRINCIPAL_ABIERTO--><g class="link" data-entity-1="ent0003" data-entity-2="ent0018" data-link-type="dependency" data-source-line="41" id="lnk19"><path d="M512.16,643.27 C533.07,674.87 548.6201,698.3507 560.8401,716.8107" fill="none" id="abrirPublicaciones-to-PANEL_PRINCIPAL_ABIERTO" style="stroke:#008000;stroke-width:1;"/><polygon fill="#008000" points="563.6,720.98,561.9675,711.2674,560.8401,716.8107,555.2967,715.6833,563.6,720.98" style="stroke:#008000;stroke-width:1;stroke-linejoin:miter;stroke-miterlimit:10;"/><text fill="#000000" font-family="sans-serif" font-size="13" lengthAdjust="spacing" textLength="117.7681" x="540.5" y="687.4951">abrirPanelPrincipal()</text></g><?plantuml-src jLJ1Qi904BtdAvRqeWKfxL54Y18Xa6fGUnAHJJArY-jksDq8KWhzbdvQlwIJQ6AYWLQX2JdCyERDUpDCz8Q9X2gw9Pm9CFi4I2BvFWiiInjgW33nIAWcTk2CNNyLJBtnq0iSV-KCF7SwdzWbxEa0Undutj0PUfFn4UBOLiRHMToj5O1OTlg4Xegf80qvYsZ4f01DkWt9LjlAQ6-hFEfgACXaDfNOvDqY-1mARNmH-IorKLJ4qcUOZ-KbOiHu7P535lVBcl167Y6HHefi-9iyqGlxdjY1DcoD6DLx2Fj4InJ933rO8KbLT54qGrBOqXoVAD0W4CzHN59t7XcsmsmaHJSl_Vxy8dDcKYxBq4cDL6KqWkYDbf5xaWuYpkKVt9wxgrc_6D3rrbzp2aM0Oy69v1RdJ4GiHjHnU5Vum9LU8HquH5bpIbByAceQsfvFwF_RVbXMmsLKsrOEsPqLfpp3QoiqRlDPuIR-JbJGDDmiNknlFCq_e9AB2k21ojQRKDvg_m00?></g></svg>