<svg xmlns="http://www.w3.org/2000/svg" xmlns:xlink="http://www.w3.org/1999/xlink" contentStyleType="text/css" height="774px" preserveAspectRatio="none" style="width:694px;height:774px;background:#FFFFFF;" version="1.1" viewBox="0 0 694 774" width="694px" zoomAndPan="magnify"><defs/><g><g id="in1"><rect fill="#F1F1F1" height="50" rx="12.5" ry="12.5" style="stroke:#181818;stroke-width:0.5;" width="216.8477" x="119" y="7"/><line style="stroke:#181818;stroke-width:0.5;" x1="119" x2="335.8477" y1="34.6094" y2="34.6094"/><text fill="#000000" font-family="sans-serif" font-size="14" lengthAdjust="spacing" textLength="196.8477" x="129" y="26.5332">PANEL_PRINCIPAL_ABIERTO</text></g><g id="in2"><rect fill="#F1F1F1" height="50" rx="12.5" ry="12.5" style="stroke:#181818;stroke-width:0.5;" width="182.5996" x="371" y="7"/><line style="stroke:#181818;stroke-width:0.5;" x1="371" x2="553.5996" y1="34.6094" y2="34.6094"/><text fill="#000000" font-family="sans-serif" font-size="14" lengthAdjust="spacing" textLength="162.5996" x="381" y="26.5332">PUBLICACION_ABIERTA</text></g><path d="M33,135 L655.5194,135 A12.5,12.5 0 0 1 668.0194,147.5 L668.0194,162.6094 L20.5,162.6094 L20.5,147.5 A12.5,12.5 0 0 1 33,135 " fill="#F1F1F1" style="stroke:#F1F1F1;stroke-width:1;"/><rect fill="none" height="504.6094" rx="12.5" ry="12.5" style="stroke:#181818;stroke-width:0.5;" width="647.5194" x="20.5" y="135"/><line style="stroke:#181818;stroke-width:0.5;" x1="20.5" x2="668.0194" y1="162.6094" y2="162.6094"/><text fill="#000000" font-family="sans-serif" font-size="14" lengthAdjust="spacing" textLength="123.7168" x="282.4013" y="154.5332">abrirPublicaciones()</text><g id="abrirPublicaciones.MostrandoListado"><rect fill="#F1F1F1" height="50" rx="12.5" ry="12.5" style="stroke:#181818;stroke-width:0.5;" width="50" x="200.0194" y="347.6094"/><line style="stroke:#181818;stroke-width:0.5;" x1="200.0194" x2="250.0194" y1="375.2188" y2="375.2188"/><text fill="#000000" font-family="sans-serif" font-size="14" lengthAdjust="spacing" textLength="3.8896" x="223.0746" y="367.1426">&#160;</text></g><g id="abrirPublicaciones.FiltrandoListado"><rect fill="#F1F1F1" height="50" rx="12.5" ry="12.5" style="stroke:#181818;stroke-width:0.5;" width="50" x="37.0194" y="485.6094"/><line style="stroke:#181818;stroke-width:0.5;" x1="37.0194" x2="87.0194" y1="513.2188" y2="513.2188"/><text fill="#000000" font-family="sans-serif" font-size="14" lengthAdjust="spacing" textLength="3.8896" x="60.0746" y="505.1426">&#160;</text></g><ellipse cx="225.0194" cy="183.6094" fill="#222222" rx="10" ry="10" style="stroke:#222222;stroke-width:1;"/><ellipse cx="248.0194" cy="618.6094" fill="none" rx="11" ry="11" style="stroke:#222222;stroke-width:1;"/><ellipse cx="248.0194" cy="618.6094" fill="#222222" rx="6" ry="6" style="stroke:#222222;stroke-width:1;"/><!--link *start*abrirPublicaciones to MostrandoListado--><g id="link_*start*abrirPublicaciones_MostrandoListado"><path d="M225.0194,193.6294 C225.0194,221.2794 225.0194,299.5194 225.0194,341.4194 " fill="none" id="*start*abrirPublicaciones-to-MostrandoListado" style="stroke:#008000;stroke-width:1;"/><polygon fill="#008000" points="225.0194,347.4194,229.0194,338.4194,225.0194,342.4194,221.0194,338.4194,225.0194,347.4194" style="stroke:#008000;stroke-width:1;"/><path d="M230.0194,216.6094 L230.0194,324.6094 L529.0194,324.6094 L529.0194,226.6094 L519.0194,216.6094 L230.0194,216.6094 " fill="#FEFFDD" style="stroke:#181818;stroke-width:0.5;"/><path d="M519.0194,216.6094 L519.0194,226.6094 L529.0194,226.6094 L519.0194,216.6094 " fill="#FEFFDD" style="stroke:#181818;stroke-width:0.5;"/><text fill="#000000" font-family="sans-serif" font-size="13" font-weight="bold" lengthAdjust="spacing" textLength="77.2954" x="236.0194" y="235.1045">Investigador</text><text fill="#000000" font-family="sans-serif" font-size="13" lengthAdjust="spacing" textLength="151.7407" x="316.9266" y="235.1045">solicita abrir publicaciones</text><text fill="#000000" font-family="sans-serif" font-size="13" font-weight="bold" lengthAdjust="spacing" textLength="49.8608" x="236.0194" y="251.4561">Sistema</text><text fill="#000000" font-family="sans-serif" font-size="13" lengthAdjust="spacing" textLength="225.4624" x="289.492" y="251.4561">presenta las publicaciones activas con:</text><text fill="#000000" font-family="sans-serif" font-size="13" lengthAdjust="spacing" textLength="40.6821" x="236.0194" y="267.8076">&#8226; Titulo</text><text fill="#000000" font-family="sans-serif" font-size="13" lengthAdjust="spacing" textLength="39.9648" x="236.0194" y="284.1592">&#8226; Autor</text><text fill="#000000" font-family="sans-serif" font-size="13" lengthAdjust="spacing" textLength="45.0239" x="236.0194" y="300.5107">&#8226; Fecha</text><text fill="#000000" font-family="sans-serif" font-size="13" lengthAdjust="spacing" textLength="49.3657" x="236.0194" y="316.8623">&#8226; Estado</text></g><!--link MostrandoListado to FiltrandoListado--><g id="link_MostrandoListado_FiltrandoListado"><path d="M199.6794,379.3594 C149.0194,390.8594 40.0194,415.6094 40.0194,415.6094 C40.0194,415.6094 40.0194,467.6094 40.0194,467.6094 C40.0194,467.6094 41.5953,470.6244 46.4353,479.8644 " fill="none" id="MostrandoListado-to-FiltrandoListado" style="stroke:#008000;stroke-width:1;"/><polygon fill="#008000" points="49.2194,485.1794,48.5867,475.3509,46.8994,480.7502,41.5,479.0629,49.2194,485.1794" style="stroke:#008000;stroke-width:1;"/><path d="M45.0194,420.6094 L45.0194,462.6094 L392.0194,462.6094 L392.0194,430.6094 L382.0194,420.6094 L45.0194,420.6094 " fill="#FEFFDD" style="stroke:#181818;stroke-width:0.5;"/><path d="M382.0194,420.6094 L382.0194,430.6094 L392.0194,430.6094 L382.0194,420.6094 " fill="#FEFFDD" style="stroke:#181818;stroke-width:0.5;"/><text fill="#000000" font-family="sans-serif" font-size="13" font-weight="bold" lengthAdjust="spacing" textLength="77.2954" x="51.0194" y="439.1045">Investigador</text><text fill="#000000" font-family="sans-serif" font-size="13" lengthAdjust="spacing" textLength="127.1563" x="131.9266" y="439.1045">solicita filtrar el listado</text><text fill="#000000" font-family="sans-serif" font-size="13" font-weight="bold" lengthAdjust="spacing" textLength="49.8608" x="51.0194" y="455.4561">Sistema</text><text fill="#000000" font-family="sans-serif" font-size="13" lengthAdjust="spacing" textLength="273.1587" x="104.492" y="455.4561">presenta las publicaciones activas coincidentes</text></g><!--link MostrandoListado to *end*abrirPublicaciones--><g id="link_MostrandoListado_*end*abrirPublicaciones"><path d="M250.0294,379.7194 C297.7294,391.3694 397.0194,415.6094 397.0194,415.6094 C397.0194,415.6094 397.0194,589.6094 397.0194,589.6094 C397.0194,589.6094 298.7962,608.0711 264.6362,614.4911 " fill="none" id="MostrandoListado-to-*end*abrirPublicaciones" style="stroke:#008000;stroke-width:1;"/><polygon fill="#008000" points="258.7394,615.5994,268.3234,617.8682,263.6534,614.6758,266.8457,610.0059,258.7394,615.5994" style="stroke:#008000;stroke-width:1;"/><path d="M402.0194,497.6094 L402.0194,523.6094 L659.0194,523.6094 L659.0194,507.6094 L649.0194,497.6094 L402.0194,497.6094 " fill="#FEFFDD" style="stroke:#181818;stroke-width:0.5;"/><path d="M649.0194,497.6094 L649.0194,507.6094 L659.0194,507.6094 L649.0194,497.6094 " fill="#FEFFDD" style="stroke:#181818;stroke-width:0.5;"/><text fill="#000000" font-family="sans-serif" font-size="13" font-weight="bold" lengthAdjust="spacing" textLength="77.2954" x="408.0194" y="516.1045">Investigador</text><text fill="#000000" font-family="sans-serif" font-size="13" lengthAdjust="spacing" textLength="155.3843" x="488.9266" y="516.1045">selecciona una publicacion</text></g><!--link FiltrandoListado to *end*abrirPublicaciones--><g id="link_FiltrandoListado_*end*abrirPublicaciones"><path d="M83.1594,535.8594 C103.1194,558.7594 130.0194,589.6094 130.0194,589.6094 C130.0194,589.6094 202.8318,606.8827 231.7118,613.7427 " fill="none" id="FiltrandoListado-to-*end*abrirPublicaciones" style="stroke:#008000;stroke-width:1;"/><polygon fill="#008000" points="237.5494,615.1294,229.7174,609.1577,232.6847,613.9739,227.8686,616.9412,237.5494,615.1294" style="stroke:#008000;stroke-width:1;"/><path d="M135.0194,558.6094 L135.0194,584.6094 L392.0194,584.6094 L392.0194,568.6094 L382.0194,558.6094 L135.0194,558.6094 " fill="#FEFFDD" style="stroke:#181818;stroke-width:0.5;"/><path d="M382.0194,558.6094 L382.0194,568.6094 L392.0194,568.6094 L382.0194,558.6094 " fill="#FEFFDD" style="stroke:#181818;stroke-width:0.5;"/><text fill="#000000" font-family="sans-serif" font-size="13" font-weight="bold" lengthAdjust="spacing" textLength="77.2954" x="141.0194" y="577.1045">Investigador</text><text fill="#000000" font-family="sans-serif" font-size="13" lengthAdjust="spacing" textLength="155.3843" x="221.9266" y="577.1045">selecciona una publicacion</text></g><g id="PUBLICACIONES_ABIERTAS"><rect fill="#F1F1F1" height="50" rx="12.5" ry="12.5" style="stroke:#181818;stroke-width:0.5;" width="210.6133" x="7" y="718"/><line style="stroke:#181818;stroke-width:0.5;" x1="7" x2="217.6133" y1="745.6094" y2="745.6094"/><text fill="#000000" font-family="sans-serif" font-size="14" lengthAdjust="spacing" textLength="190.6133" x="17" y="737.5332">PUBLICACIONES_ABIERTAS</text></g><g id="PUBLICACION_ABIERTA"><rect fill="#F1F1F1" height="50" rx="12.5" ry="12.5" style="stroke:#181818;stroke-width:0.5;" width="182.5996" x="253" y="718"/><line style="stroke:#181818;stroke-width:0.5;" x1="253" x2="435.5996" y1="745.6094" y2="745.6094"/><text fill="#000000" font-family="sans-serif" font-size="14" lengthAdjust="spacing" textLength="162.5996" x="263" y="737.5332">PUBLICACION_ABIERTA</text></g><g id="PANEL_PRINCIPAL_ABIERTO"><rect fill="#F1F1F1" height="50" rx="12.5" ry="12.5" style="stroke:#181818;stroke-width:0.5;" width="216.8477" x="471" y="718"/><line style="stroke:#181818;stroke-width:0.5;" x1="471" x2="687.8477" y1="745.6094" y2="745.6094"/><text fill="#000000" font-family="sans-serif" font-size="14" lengthAdjust="spacing" textLength="196.8477" x="481" y="737.5332">PANEL_PRINCIPAL_ABIERTO</text></g><!--link in1 to abrirPublicaciones--><g id="link_in1_abrirPublicaciones"><path d="M235.45,57.02 C241.57,75.51 248.8556,97.5136 259.3156,129.1336 " fill="none" id="in1-to-abrirPublicaciones" style="stroke:#008000;stroke-width:1;"/><polygon fill="#008000" points="261.2,134.83,262.171,125.0291,259.6297,130.083,254.5758,127.5416,261.2,134.83" style="stroke:#008000;stroke-width:1;"/><text fill="#000000" font-family="sans-serif" font-size="13" lengthAdjust="spacing" textLength="114.8799" x="251.5" y="101.4951">abrirPublicaciones()</text></g><!--link in2 to abrirPublicaciones--><g id="link_in2_abrirPublicaciones"><path d="M454.48,57.02 C448.31,75.51 440.959,97.5184 430.409,129.1384 " fill="none" id="in2-to-abrirPublicaciones" style="stroke:#008000;stroke-width:1;"/><polygon fill="#008000" points="428.51,134.83,435.1529,127.5587,430.0925,130.087,427.5641,125.0267,428.51,134.83" style="stroke:#008000;stroke-width:1;"/><text fill="#000000" font-family="sans-serif" font-size="13" lengthAdjust="spacing" textLength="114.8799" x="443.5" y="101.4951">abrirPublicaciones()</text></g><!--link abrirPublicaciones to PUBLICACIONES_ABIERTAS--><g id="link_abrirPublicaciones_PUBLICACIONES_ABIERTAS"><path d="M179.29,640.23 C158.56,671.81 143.7024,694.464 131.5724,712.944 " fill="none" id="abrirPublicaciones-to-PUBLICACIONES_ABIERTAS" style="stroke:#008000;stroke-width:1;"/><polygon fill="#008000" points="128.28,717.96,136.5626,712.631,131.0237,713.78,129.8746,708.2411,128.28,717.96" style="stroke:#008000;stroke-width:1;"/><text fill="#000000" font-family="sans-serif" font-size="13" lengthAdjust="spacing" textLength="99.7217" x="158.5" y="684.4951">Listado mostrado</text></g><!--link abrirPublicaciones to PUBLICACION_ABIERTA--><g id="link_abrirPublicaciones_PUBLICACION_ABIERTA"><path d="M344.5,640.23 C344.5,671.81 344.5,693.48 344.5,711.96 " fill="none" id="abrirPublicaciones-to-PUBLICACION_ABIERTA" style="stroke:#008000;stroke-width:1;"/><polygon fill="#008000" points="344.5,717.96,348.5,708.96,344.5,712.96,340.5,708.96,344.5,717.96" style="stroke:#008000;stroke-width:1;"/><text fill="#000000" font-family="sans-serif" font-size="13" lengthAdjust="spacing" textLength="101.1499" x="345.5" y="684.4951">abrirPublicacion()</text></g><!--link abrirPublicaciones to PANEL_PRINCIPAL_ABIERTO--><g id="link_abrirPublicaciones_PANEL_PRINCIPAL_ABIERTO"><path d="M511.84,640.23 C532.84,671.81 547.9074,694.484 560.1974,712.964 " fill="none" id="abrirPublicaciones-to-PANEL_PRINCIPAL_ABIERTO" style="stroke:#008000;stroke-width:1;"/><polygon fill="#008000" points="563.52,717.96,561.8668,708.2509,560.7512,713.7966,555.2054,712.681,563.52,717.96" style="stroke:#008000;stroke-width:1;"/><text fill="#000000" font-family="sans-serif" font-size="13" lengthAdjust="spacing" textLength="117.7681" x="540.5" y="684.4951">abrirPanelPrincipal()</text></g><!--SRC=[jLJ1Qi904BtdAvRqeWKfxL54Y18Xa6fGUnAHJJArY-jksDq8KWhzbdvQlwIJQ6AYWLQX2JdCyERDUpDCz8Q9X2gw9Pm9CFi4I2BvFWiiInjgW33nIAWcTk2CNNyLJBtnq0iSV-KCF7SwdzWbxEa0Undutj0PUfFn4UBOLiRHMToj5O1OTlg4Xegf80qvYsZ4f01DkWt9LjlAQ6-hFEfgACXaDfNOvDqY-1mARNmH-IorKLJ4qcUOZ-KbOiHu7P535lVBcl167Y6HHefi-9iyqGlxdjY1DcoD6DLx2Fj4InJ933rO8KbLT54qGrBOqXoVAD0W4CzHN59t7XcsmsmaHJSl_Vxy8dDcKYxBq4cDL6KqWkYDbf5xaWuYpkKVt9wxgrc_6D3rrbzp2aM0Oy69v1RdJ4GiHjHnU5Vum9LU8HquH5bpIbByAceQsfvFwF_RVbXMmsLKsrOEsPqLfpp3QoiqRlDPuIR-JbJGDDmiNknlFCq_e9AB2k21ojQRKDvg_m00]--></g></svg>