<svg xmlns="http://www.w3.org/2000/svg" xmlns:xlink="http://www.w3.org/1999/xlink" contentStyleType="text/css" data-diagram-type="DESCRIPTION" height="447px" preserveAspectRatio="none" style="width:1787px;height:447px;background:#FFFFFF;" version="1.1" viewBox="0 0 1787 447" width="1787px" zoomAndPan="magnify"><?plantuml 1.2026.5?><defs/><g><!--cluster eliminarPublicacion--><g class="cluster" data-qualified-name="eliminarPublicacion" data-source-line="4" id="ent0002"><path d="M211.5,6 L354.0859,6 A3.75,3.75 0 0 1 356.5859,8.5 L363.5859,29.6094 L1056.5,29.6094 A2.5,2.5 0 0 1 1059,32.1094 L1059,429.5 A2.5,2.5 0 0 1 1056.5,432 L211.5,432 A2.5,2.5 0 0 1 209,429.5 L209,8.5 A2.5,2.5 0 0 1 211.5,6" fill="none" style="stroke:#000000;stroke-width:1.5;"/><line style="stroke:#000000;stroke-width:1.5;" x1="209" x2="363.5859" y1="29.6094" y2="29.6094"/><text fill="#000000" font-family="sans-serif" font-size="14" font-weight="700" lengthAdjust="spacing" textLength="141.5859" x="213" y="22.5332">eliminarPublicacion()</text></g><!--entity EliminarPublicacionView--><g class="entity" data-qualified-name="eliminarPublicacion.EliminarPublicacionView" data-source-line="5" id="ent0003"><rect fill="#629EF9" height="37.6094" rx="2.5" ry="2.5" style="stroke:#181818;stroke-width:0.5;" width="172.5098" x="666.5" y="42"/><text fill="#000000" font-family="sans-serif" font-size="14" lengthAdjust="spacing" textLength="152.5098" x="676.5" y="66.5332">EliminarPublicacionView</text></g><!--entity PublicacionController--><g class="entity" data-qualified-name="eliminarPublicacion.PublicacionController" data-source-line="6" id="ent0004"><rect fill="#B5BD68" height="37.6094" rx="2.5" ry="2.5" style="stroke:#181818;stroke-width:0.5;" width="152.2891" x="573" y="158"/><text fill="#000000" font-family="sans-serif" font-size="14" lengthAdjust="spacing" textLength="132.2891" x="583" y="182.5332">PublicacionController</text></g><!--entity PublicacionRepository--><g class="entity" data-qualified-name="eliminarPublicacion.PublicacionRepository" data-source-line="7" id="ent0005"><rect fill="#F2AC4E" height="37.6094" rx="2.5" ry="2.5" style="stroke:#181818;stroke-width:0.5;" width="158.5166" x="704.5" y="276.5"/><text fill="#000000" font-family="sans-serif" font-size="14" lengthAdjust="spacing" textLength="138.5166" x="714.5" y="301.0332">PublicacionRepository</text></g><!--entity Publicacion--><g class="entity" data-qualified-name="eliminarPublicacion.Publicacion" data-source-line="8" id="ent0006"><rect fill="#F2AC4E" height="37.6094" rx="2.5" ry="2.5" style="stroke:#181818;stroke-width:0.5;" width="91.5996" x="738" y="378"/><text fill="#000000" font-family="sans-serif" font-size="14" lengthAdjust="spacing" textLength="71.5996" x="748" y="402.5332">Publicacion</text></g><!--entity EstadoEntrada--><g class="entity" data-qualified-name="EstadoEntrada" data-source-line="3" id="ent0001"><rect fill="#CDEBA5" height="37.6094" rx="2.5" ry="2.5" style="stroke:#181818;stroke-width:0.5;" width="186.4893" x="7" y="42"/><text fill="#000000" font-family="sans-serif" font-size="14" lengthAdjust="spacing" textLength="166.4893" x="17" y="66.5332">:PUBLICACION_ABIERTA</text></g><!--entity EstadoSalidaExitosa--><g class="entity" data-qualified-name="EstadoSalidaExitosa" data-source-line="11" id="ent0007"><rect fill="#CDEBA5" height="37.6094" rx="2.5" ry="2.5" style="stroke:#181818;stroke-width:0.5;" width="214.5029" x="1075.5" y="158"/><text fill="#000000" font-family="sans-serif" font-size="14" lengthAdjust="spacing" textLength="194.5029" x="1085.5" y="182.5332">:PUBLICACIONES_ABIERTAS</text></g><!--entity EstadoSalidaCancelada--><g class="entity" data-qualified-name="EstadoSalidaCancelada" data-source-line="12" id="ent0008"><rect fill="#CDEBA5" height="37.6094" rx="2.5" ry="2.5" style="stroke:#181818;stroke-width:0.5;" width="186.4893" x="1326" y="158"/><text fill="#000000" font-family="sans-serif" font-size="14" lengthAdjust="spacing" textLength="166.4893" x="1336" y="182.5332">:PUBLICACION_ABIERTA</text></g><!--entity AbrirPublicaciones--><g class="entity" data-qualified-name="AbrirPublicaciones" data-source-line="13" id="ent0009"><rect fill="#CDEBA5" height="37.6094" rx="2.5" ry="2.5" style="stroke:#181818;stroke-width:0.5;" width="226.2197" x="1547" y="158"/><text fill="#000000" font-family="sans-serif" font-size="14" lengthAdjust="spacing" textLength="206.2197" x="1557" y="182.5332">:Collaboration AbrirPublicaciones</text></g><g class="entity" data-qualified-name="GMN22" data-source-line="30" id="ent0023"><path d="M1075.5,274 L1075.5,316.7031 L1292.3125,316.7031 L1292.3125,284 L1282.3125,274 L1075.5,274" fill="#FEFFDD" style="stroke:#181818;stroke-width:0.5;"/><path d="M1282.3125,274 L1282.3125,284 L1292.3125,284 L1282.3125,274" fill="#FEFFDD" style="stroke:#181818;stroke-width:1;"/><text fill="#000000" font-family="sans-serif" font-size="13" lengthAdjust="spacing" textLength="165.4834" x="1081.5" y="292.4951">La retirada conserva autoria,</text><text fill="#000000" font-family="sans-serif" font-size="13" lengthAdjust="spacing" textLength="195.8125" x="1081.5" y="308.8467">metadatos y relaciones historicas.</text></g><!--link EstadoEntrada to EliminarPublicacionView--><g class="link" data-entity-1="ent0001" data-entity-2="ent0003" data-link-type="dependency" data-source-line="15" id="lnk10"><path d="M193.21,61 C319.54,61 538.41,61 661.29,61" fill="none" id="EstadoEntrada-to-EliminarPublicacionView" style="stroke:#181818;stroke-width:1;"/><polygon fill="#181818" points="666.29,61,657.29,57,661.29,61,657.29,65,666.29,61" style="stroke:#181818;stroke-width:1;stroke-linejoin:miter;stroke-miterlimit:10;"/><text fill="#000000" font-family="sans-serif" font-size="13" lengthAdjust="spacing" textLength="120.6563" x="369.75" y="54.4951">eliminarPublicacion()</text></g><!--link EliminarPublicacionView to PublicacionController--><g class="link" data-entity-1="ent0003" data-entity-2="ent0004" data-link-type="dependency" data-source-line="17" id="lnk11"><path d="M666.32,70.39 C524.14,84.15 257,110 257,110 C257,110 257,128 257,128 C257,128 453.9971,152.1222 567.9871,166.0822" fill="none" id="EliminarPublicacionView-to-PublicacionController" style="stroke:#181818;stroke-width:1;"/><polygon fill="#181818" points="572.95,166.69,564.503,161.6256,567.9871,166.0822,563.5305,169.5663,572.95,166.69" style="stroke:#181818;stroke-width:1;stroke-linejoin:miter;stroke-miterlimit:10;"/><text fill="#000000" font-family="sans-serif" font-size="13" lengthAdjust="spacing" textLength="139.4263" x="258" y="124.4951">solicitarConfirmacion(id)</text></g><!--link PublicacionController to EliminarPublicacionView--><g class="link" data-entity-1="ent0004" data-entity-2="ent0003" data-link-type="dependency" data-source-line="18" id="lnk12"><path d="M725.3,158.81 C786.41,145.03 862,128 862,128 C862,128 862,110 862,110 C862,110 829.406,95.645 798.476,82.025" fill="none" id="PublicacionController-to-EliminarPublicacionView" style="stroke:#181818;stroke-width:1;"/><polygon fill="#181818" points="793.9,80.01,800.5247,87.2978,798.476,82.025,803.7488,79.9763,793.9,80.01" style="stroke:#181818;stroke-width:1;stroke-linejoin:miter;stroke-miterlimit:10;"/><text fill="#000000" font-family="sans-serif" font-size="13" lengthAdjust="spacing" textLength="140.1626" x="863" y="124.4951">presentarConfirmacion()</text></g><!--link EliminarPublicacionView to PublicacionController--><g class="link" data-entity-1="ent0003" data-entity-2="ent0004" data-link-type="dependency" data-source-line="19" id="lnk13"><path d="M666.09,75.24 C572.85,89.45 438,110 438,110 C438,110 438,128 438,128 C438,128 507.5146,143.8107 567.9446,157.5607" fill="none" id="EliminarPublicacionView-to-PublicacionController-1" style="stroke:#181818;stroke-width:1;"/><polygon fill="#181818" points="572.82,158.67,564.9318,152.7729,567.9446,157.5607,563.1568,160.5735,572.82,158.67" style="stroke:#181818;stroke-width:1;stroke-linejoin:miter;stroke-miterlimit:10;"/><text fill="#000000" font-family="sans-serif" font-size="13" lengthAdjust="spacing" textLength="122.0908" x="439" y="124.4951">confirmarRetirada(id)</text></g><!--link EliminarPublicacionView to PublicacionController--><g class="link" data-entity-1="ent0003" data-entity-2="ent0004" data-link-type="dependency" data-source-line="20" id="lnk14"><path d="M696.34,80.01 C653.5,93.63 602,110 602,110 C602,110 602,128 602,128 C602,128 614.4215,140.6879 627.7315,154.2779" fill="none" id="EliminarPublicacionView-to-PublicacionController-2" style="stroke:#181818;stroke-width:1;"/><polygon fill="#181818" points="631.23,157.85,627.7903,148.6213,627.7315,154.2779,622.0749,154.219,631.23,157.85" style="stroke:#181818;stroke-width:1;stroke-linejoin:miter;stroke-miterlimit:10;"/><text fill="#000000" font-family="sans-serif" font-size="13" lengthAdjust="spacing" textLength="106.9326" x="603" y="124.4951">cancelarRetirada()</text></g><!--link EliminarPublicacionView to PublicacionController--><g class="link" data-entity-1="ent0003" data-entity-2="ent0004" data-link-type="dependency" data-source-line="21" id="lnk15"><path d="M742.34,80.03 C730.8,99.58 714,128 714,128 C714,128 696.0027,141.2905 677.5927,154.8805" fill="none" id="EliminarPublicacionView-to-PublicacionController-3" style="stroke:#181818;stroke-width:1;"/><polygon fill="#181818" points="673.57,157.85,683.1865,155.7231,677.5927,154.8805,678.4353,149.2867,673.57,157.85" style="stroke:#181818;stroke-width:1;stroke-linejoin:miter;stroke-miterlimit:10;"/><text fill="#000000" font-family="sans-serif" font-size="13" lengthAdjust="spacing" textLength="106.209" x="725" y="124.4951">validarRetirada(id)</text></g><!--link PublicacionController to PublicacionRepository--><g class="link" data-entity-1="ent0004" data-entity-2="ent0005" data-link-type="dependency" data-source-line="22" id="lnk16"><path d="M647.87,196.15 C647.02,209.74 646,226 646,226 C646,226 646,244 646,244 C646,244 690.2745,260.2019 729.8745,274.6919" fill="none" id="PublicacionController-to-PublicacionRepository" style="stroke:#181818;stroke-width:1;"/><polygon fill="#181818" points="734.57,276.41,727.4926,269.5609,729.8745,274.6919,724.7435,277.0738,734.57,276.41" style="stroke:#181818;stroke-width:1;stroke-linejoin:miter;stroke-miterlimit:10;"/><text fill="#000000" font-family="sans-serif" font-size="13" lengthAdjust="spacing" textLength="93.939" x="647" y="240.4951">obtenerPorId(id)</text></g><!--link PublicacionController to PublicacionRepository--><g class="link" data-entity-1="ent0004" data-entity-2="ent0005" data-link-type="dependency" data-source-line="23" id="lnk17"><path d="M685.02,196.01 C712.26,209.63 745,226 745,226 C745,226 759.5265,251.5047 771.0765,271.7947" fill="none" id="PublicacionController-to-PublicacionRepository-1" style="stroke:#181818;stroke-width:1;"/><polygon fill="#181818" points="773.55,276.14,772.5739,266.3396,771.0765,271.7947,765.6214,270.2973,773.55,276.14" style="stroke:#181818;stroke-width:1;stroke-linejoin:miter;stroke-miterlimit:10;"/><text fill="#000000" font-family="sans-serif" font-size="13" lengthAdjust="spacing" textLength="213.1416" x="755" y="240.4951">retirar(id, fecha, coordinador, motivo)</text></g><!--link PublicacionRepository to Publicacion--><g class="link" data-entity-1="ent0005" data-entity-2="ent0006" data-link-type="association" data-source-line="24" id="lnk18"><path d="M784,314.75 C784,332.7 784,359.95 784,377.87" fill="none" id="PublicacionRepository-Publicacion" style="stroke:#181818;stroke-width:1;"/></g><!--link EliminarPublicacionView to EstadoSalidaExitosa--><g class="link" data-entity-1="ent0003" data-entity-2="ent0007" data-link-type="dependency" data-source-line="25" id="lnk19"><path d="M839.6,78.05 C914.9,92 1012,110 1012,110 C1012,110 1080.9757,136.6189 1131.6057,156.1689" fill="none" id="EliminarPublicacionView-to-EstadoSalidaExitosa" style="stroke:#181818;stroke-width:1;stroke-dasharray:7,7;"/><polygon fill="#181818" points="1136.27,157.97,1129.315,150.9966,1131.6057,156.1689,1126.4333,158.4596,1136.27,157.97" style="stroke:#181818;stroke-width:1;stroke-linejoin:miter;stroke-miterlimit:10;"/><text fill="#000000" font-family="sans-serif" font-size="13" lengthAdjust="spacing" textLength="122.8398" x="1058" y="124.4951">publicacionRetirada()</text></g><!--link EliminarPublicacionView to EstadoSalidaCancelada--><g class="link" data-entity-1="ent0003" data-entity-2="ent0008" data-link-type="dependency" data-source-line="26" id="lnk20"><path d="M839.66,71.54 C966.81,85.54 1189,110 1189,110 C1189,110 1283.2441,137.0403 1351.3441,156.5903" fill="none" id="EliminarPublicacionView-to-EstadoSalidaCancelada" style="stroke:#181818;stroke-width:1;stroke-dasharray:7,7;"/><polygon fill="#181818" points="1356.15,157.97,1348.6031,151.6419,1351.3441,156.5903,1346.3957,159.3313,1356.15,157.97" style="stroke:#181818;stroke-width:1;stroke-linejoin:miter;stroke-miterlimit:10;"/><text fill="#000000" font-family="sans-serif" font-size="13" lengthAdjust="spacing" textLength="114.8926" x="1251" y="124.4951">retiradaCancelada()</text></g><!--link EliminarPublicacionView to AbrirPublicaciones--><g class="link" data-entity-1="ent0003" data-entity-2="ent0009" data-link-type="dependency" data-source-line="27" id="lnk21"><path d="M839.67,68.7 C1010.45,81.9 1374,110 1374,110 C1374,110 1492.2982,137.2952 1576.9782,156.8452" fill="none" id="EliminarPublicacionView-to-AbrirPublicaciones" style="stroke:#181818;stroke-width:1;stroke-dasharray:7,7;"/><polygon fill="#181818" points="1581.85,157.97,1573.9805,152.048,1576.9782,156.8452,1572.1809,159.8429,1581.85,157.97" style="stroke:#181818;stroke-width:1;stroke-linejoin:miter;stroke-miterlimit:10;"/><text fill="#000000" font-family="sans-serif" font-size="13" lengthAdjust="spacing" textLength="114.8799" x="1451" y="124.4951">abrirPublicaciones()</text></g><!--link PublicacionRepository to GMN22--><g class="link" data-entity-1="ent0005" data-entity-2="ent0023" data-link-type="association" data-source-line="30" id="lnk24"><path d="M863.87,295.5 C892.27,295.5 917.33,295.5 917.33,295.5 C917.33,295.5 1050.67,295.5 1050.67,295.5 C1050.67,295.5 1060.78,295.5 1075.43,295.5" fill="none" id="PublicacionRepository-GMN22" style="stroke:#181818;stroke-width:1;stroke-dasharray:7,7;"/></g><?plantuml-src dPHDRzim38Rl-XL4Tcc098TYBLOV2ZYU2WGekY1PUoreYqc4of91gTc2OVzzSj8F9x4N8BwPVlMGV2dQlsXR8MC9HbiAcugWScPJlmZ1L0IqIqFm9Vikn-aLz9Bfu_X-agNPvCV3SpgUoDdFj0VeGVg0oaaR61MA2eiNN1AGqQMsoDFNtEW22-riBUwrn2_wFVWZ83wDjDUND_Bk1kIn_4dJhqDrVfMhws_GK6Kk5kIC8JxKtbscsLVPrCweSbu7nvlJMl7tf3jo_kxFl67G78rMA7_7F1xFC7XtFaDRaAcDRYDaiM7C7MEexKvpratZo6znns4XzcO8GnxUTZcVGEi48w9T3qCLOQs3IS2x6DK1EGONciiTJAk-Q3q0m__LLJ5vieUmVdTXtNKLRmIUKT2r9TkQpW7jnlN9EOkotev-lvXkWrelTW8k3sI9fuudwZm2R_DpF3o01HKh74IZ7AlOZN8yWD85lNPxuC_Z4RotHbqsZ4QtRGiJnzkaddJp4FEnD-zjD48dCCVxaW0UnUeLi2uGi5wk0hX5nm_c7ZyAgA-P9ruZu6lyfd4WIeebOsmODb5ctjYmqhuM5EX7Wgo2Ef7u1m00?></g></svg>