<svg xmlns="http://www.w3.org/2000/svg" xmlns:xlink="http://www.w3.org/1999/xlink" contentStyleType="text/css" data-diagram-type="DESCRIPTION" height="479px" preserveAspectRatio="none" style="width:1454px;height:479px;background:#FFFFFF;" version="1.1" viewBox="0 0 1454 479" width="1454px" zoomAndPan="magnify"><?plantuml 1.2026.6?><defs/><g><!--cluster eliminarPublicacion--><g class="cluster" data-qualified-name="eliminarPublicacion" data-source-line="4" id="ent0002"><path d="M413.5,6 L556.0859,6 A3.75,3.75 0 0 1 558.5859,8.5 L565.5859,29.6094 L1114.5,29.6094 A2.5,2.5 0 0 1 1117,32.1094 L1117,461.5 A2.5,2.5 0 0 1 1114.5,464 L413.5,464 A2.5,2.5 0 0 1 411,461.5 L411,8.5 A2.5,2.5 0 0 1 413.5,6" fill="none" style="stroke:#000000;stroke-width:1.5;"/><line style="stroke:#000000;stroke-width:1.5;" x1="411" x2="565.5859" y1="29.6094" y2="29.6094"/><text fill="#000000" font-family="sans-serif" font-size="14" font-weight="700" lengthAdjust="spacing" textLength="141.5859" x="415" y="22.5332">eliminarPublicacion()</text></g><!--entity View--><g class="entity" data-qualified-name="eliminarPublicacion.View" data-source-line="5" id="ent0003"><rect fill="#629EF9" height="37.6094" rx="2.5" ry="2.5" style="stroke:#181818;stroke-width:0.5;" width="170.958" x="653.5" y="42"/><text fill="#000000" font-family="sans-serif" font-size="14" lengthAdjust="spacing" textLength="150.958" x="663.5" y="66.5332">eliminarPublicacionView</text></g><!--entity PublicacionController--><g class="entity" data-qualified-name="eliminarPublicacion.PublicacionController" data-source-line="6" id="ent0004"><rect fill="#B5BD68" height="37.6094" rx="2.5" ry="2.5" style="stroke:#181818;stroke-width:0.5;" width="152.2891" x="663" y="158"/><text fill="#000000" font-family="sans-serif" font-size="14" lengthAdjust="spacing" textLength="132.2891" x="673" y="182.5332">PublicacionController</text></g><!--entity PoliticaPublicacion--><g class="entity" data-qualified-name="eliminarPublicacion.PoliticaPublicacion" data-source-line="7" id="ent0005"><rect fill="#B5BD68" height="37.6094" rx="2.5" ry="2.5" style="stroke:#181818;stroke-width:0.5;" width="136.7305" x="542.5" y="292.5"/><text fill="#000000" font-family="sans-serif" font-size="14" lengthAdjust="spacing" textLength="116.7305" x="552.5" y="317.0332">PoliticaPublicacion</text></g><!--entity PublicacionRepository--><g class="entity" data-qualified-name="eliminarPublicacion.PublicacionRepository" data-source-line="8" id="ent0006"><rect fill="#F2AC4E" height="37.6094" rx="2.5" ry="2.5" style="stroke:#181818;stroke-width:0.5;" width="158.5166" x="744.5" y="292.5"/><text fill="#000000" font-family="sans-serif" font-size="14" lengthAdjust="spacing" textLength="138.5166" x="754.5" y="317.0332">PublicacionRepository</text></g><!--entity Publicacion--><g class="entity" data-qualified-name="eliminarPublicacion.Publicacion" data-source-line="9" id="ent0007"><rect fill="#F2AC4E" height="37.6094" rx="2.5" ry="2.5" style="stroke:#181818;stroke-width:0.5;" width="91.5996" x="778" y="410"/><text fill="#000000" font-family="sans-serif" font-size="14" lengthAdjust="spacing" textLength="71.5996" x="788" y="434.5332">Publicacion</text></g><!--entity EstadoEntrada--><g class="entity" data-qualified-name="EstadoEntrada" data-source-line="3" id="ent0001"><rect fill="#CDEBA5" height="37.6094" rx="2.5" ry="2.5" style="stroke:#181818;stroke-width:0.5;" width="387.9922" x="7" y="42"/><text fill="#000000" font-family="sans-serif" font-size="14" lengthAdjust="spacing" textLength="367.9922" x="17" y="66.5332">:PUBLICACION_ABIERTA o MI_PUBLICACION_ABIERTA</text></g><!--entity EstadoSalida--><g class="entity" data-qualified-name="EstadoSalida" data-source-line="12" id="ent0008"><rect fill="#CDEBA5" height="37.6094" rx="2.5" ry="2.5" style="stroke:#181818;stroke-width:0.5;" width="307.1914" x="1133.5" y="158"/><text fill="#000000" font-family="sans-serif" font-size="14" lengthAdjust="spacing" textLength="287.1914" x="1143.5" y="182.5332">:Listado correspondiente al contexto de origen</text></g><g class="entity" data-qualified-name="GMN16" data-source-line="24" id="ent0017"><path d="M1133,274 L1133,349.4063 L1360.6226,349.4063 L1360.6226,284 L1350.6226,274 L1133,274" fill="#FEFFDD" style="stroke:#181818;stroke-width:0.5;"/><path d="M1350.6226,274 L1350.6226,284 L1360.6226,284 L1350.6226,274" fill="#FEFFDD" style="stroke:#181818;stroke-width:1;"/><text fill="#000000" font-family="sans-serif" font-size="13" lengthAdjust="spacing" textLength="134.4243" x="1139" y="292.4951">Responsabilidad unica:</text><text fill="#000000" font-family="sans-serif" font-size="13" lengthAdjust="spacing" textLength="191.4707" x="1139" y="308.8467">autoriza sin persistir ni presentar.</text><text fill="#000000" font-family="sans-serif" font-size="13" lengthAdjust="spacing" textLength="206.6226" x="1139" y="325.1982">Permite ampliar reglas sin modificar</text><text fill="#000000" font-family="sans-serif" font-size="13" lengthAdjust="spacing" textLength="185.7324" x="1139" y="341.5498">la coordinacion del caso de uso.</text></g><!--link EstadoEntrada to View--><g class="link" data-entity-1="ent0001" data-entity-2="ent0003" data-link-type="dependency" data-source-line="14" id="lnk9"><path d="M395.23,61 C483.72,61 578.93,61 648.23,61" fill="none" id="EstadoEntrada-to-View" style="stroke:#181818;stroke-width:1;"/><polygon fill="#181818" points="653.23,61,644.23,57,648.23,61,644.23,65,653.23,61" style="stroke:#181818;stroke-width:1;stroke-linejoin:miter;stroke-miterlimit:10;"/><text fill="#000000" font-family="sans-serif" font-size="13" lengthAdjust="spacing" textLength="120.6563" x="464.25" y="54.4951">eliminarPublicacion()</text></g><!--link View to PublicacionController--><g class="link" data-entity-1="ent0003" data-entity-2="ent0004" data-link-type="dependency" data-source-line="15" id="lnk10"><path d="M739,80.06 C739,101.28 739,131.3 739,152.64" fill="none" id="View-to-PublicacionController" style="stroke:#181818;stroke-width:1;"/><polygon fill="#181818" points="739,157.64,743,148.64,739,152.64,735,148.64,739,157.64" style="stroke:#181818;stroke-width:1;stroke-linejoin:miter;stroke-miterlimit:10;"/><text fill="#000000" font-family="sans-serif" font-size="13" lengthAdjust="spacing" textLength="203.7471" x="740" y="124.4951">eliminarPublicacion(solicitud, actor)</text></g><!--link PublicacionController to PublicacionRepository--><g class="link" data-entity-1="ent0004" data-entity-2="ent0006" data-link-type="dependency" data-source-line="16" id="lnk11"><path d="M737.87,196.15 C737.02,209.74 736,226 736,226 C736,226 736,244 736,244 C736,244 769.9112,269.6251 795.9612,289.3151" fill="none" id="PublicacionController-to-PublicacionRepository" style="stroke:#181818;stroke-width:1;"/><polygon fill="#181818" points="799.95,292.33,795.1822,283.7121,795.9612,289.3151,790.3583,290.0941,799.95,292.33" style="stroke:#181818;stroke-width:1;stroke-linejoin:miter;stroke-miterlimit:10;"/><text fill="#000000" font-family="sans-serif" font-size="13" lengthAdjust="spacing" textLength="129.3398" x="737" y="240.4951">obtenerActivaPorId(id)</text></g><!--link PublicacionController to PublicacionRepository--><g class="link" data-entity-1="ent0004" data-entity-2="ent0006" data-link-type="dependency" data-source-line="18" id="lnk13"><path d="M788.53,196.01 C825.98,209.63 871,226 871,226 C871,226 871,244 871,244 C871,244 853.6463,268.5572 839.7263,288.2472" fill="none" id="PublicacionController-to-PublicacionRepository-1" style="stroke:#181818;stroke-width:1;"/><polygon fill="#181818" points="836.84,292.33,845.3016,287.2901,839.7263,288.2472,838.7692,282.6719,836.84,292.33" style="stroke:#181818;stroke-width:1;stroke-linejoin:miter;stroke-miterlimit:10;"/><text fill="#000000" font-family="sans-serif" font-size="13" lengthAdjust="spacing" textLength="189.2871" x="872" y="240.4951">retirar(publicacion, motivo, actor)</text></g><!--link PublicacionController to PoliticaPublicacion--><g class="link" data-entity-1="ent0004" data-entity-2="ent0005" data-link-type="dependency" data-source-line="17" id="lnk12"><path d="M662.91,192.73 C590.01,206.84 491,226 491,226 C491,226 491,244 491,244 C491,244 538.3067,270.2164 573.8367,289.9064" fill="none" id="PublicacionController-to-PoliticaPublicacion" style="stroke:#181818;stroke-width:1;"/><polygon fill="#181818" points="578.21,292.33,572.2769,284.4688,573.8367,289.9064,568.3991,291.4662,578.21,292.33" style="stroke:#181818;stroke-width:1;stroke-linejoin:miter;stroke-miterlimit:10;"/><text fill="#000000" font-family="sans-serif" font-size="13" lengthAdjust="spacing" textLength="235.5425" x="492" y="240.4951">permitirGestionGlobal(actor, publicacion)</text></g><!--link PublicacionRepository to Publicacion--><g class="link" data-entity-1="ent0006" data-entity-2="ent0007" data-link-type="association" data-source-line="19" id="lnk14"><path d="M824,330.55 C824,352.12 824,388.02 824,409.7" fill="none" id="PublicacionRepository-Publicacion" style="stroke:#181818;stroke-width:1;"/></g><!--link View to EstadoSalida--><g class="link" data-entity-1="ent0003" data-entity-2="ent0008" data-link-type="dependency" data-source-line="21" id="lnk15"><path d="M824.62,79.81 C926.97,101.1 1092.3949,135.5113 1195.2749,156.9213" fill="none" id="View-to-EstadoSalida" style="stroke:#181818;stroke-width:1;stroke-dasharray:7,7;"/><polygon fill="#181818" points="1200.17,157.94,1192.1737,152.1902,1195.2749,156.9213,1190.5438,160.0224,1200.17,157.94" style="stroke:#181818;stroke-width:1;stroke-linejoin:miter;stroke-miterlimit:10;"/><text fill="#000000" font-family="sans-serif" font-size="13" lengthAdjust="spacing" textLength="130.7935" x="1046" y="124.4951">continuarNavegacion()</text></g><!--link PoliticaPublicacion to GMN16--><g class="link" data-entity-1="ent0005" data-entity-2="ent0017" data-link-type="association" data-source-line="24" id="lnk18"><path d="M644.34,292.39 C683.89,269.73 744.5,235 744.5,235 C744.5,235 1099.5,235 1099.5,235 C1099.5,235 1137.24,254.58 1174.55,273.92" fill="none" id="PoliticaPublicacion-GMN16" style="stroke:#181818;stroke-width:1;stroke-dasharray:7,7;"/></g><?plantuml-src dLF1Rjim3BthAuZiaW993iLQh3uKS3At2D1rGRhjMj2McX6LHOEIksN3_dsqWI5Ewsx0V9AfnoVglQVuIA51mHey1PVsZOE6_RxxCKPSbJ3il8Ctg_V5CZ-3IRRvlBnPh_BL-kFjVRvS5zjFEJ1yMD-FR4m08nGneUKY946Bfi7g4NSEdAUQ0igcBJrLM1673ZmPgKzF9l3JW7w3USvFBughYr7y5tBV-fExnVE-ygoqv-zW05-nZiRUEtaDovwIWWSzpv5Nf_dgRJ5atRg68oMM_R-nnlmQbVg6UkcWOX4N6mwMN4WEq6j95zyJWtN0GZiN1bhVeIULsXmf3tEPN_QIP30gikdsO6uLDQhEU5jKSIfAhPq1LdhT4pFQ3FDZseCy6N2PN72ILucUSCEojbEoV-LvQKW6ZPDQgtBjOjB2jUSI_RIVQGRD0VaV0ufJNfJfW6K6DUkuF7RhGwkI7llSIxnON1uPbVLkKcXHRl79xVxuOGAhsMhkrmJyC1h3RH-BY2LrH1RQe3kPmLPFfny8aK8dJDGWaK0WQ3H8cY6KXTdqWccQwiOJYjvovpL2NKlDbXwKIOn77Ox5gktz4xLEiuUnprqRUM5SiD3D-Hi0?></g></svg>