<svg xmlns="http://www.w3.org/2000/svg" xmlns:xlink="http://www.w3.org/1999/xlink" contentStyleType="text/css" data-diagram-type="DESCRIPTION" height="434px" preserveAspectRatio="none" style="width:1831px;height:434px;background:#FFFFFF;" version="1.1" viewBox="0 0 1831 434" width="1831px" zoomAndPan="magnify"><defs/><g><!--cluster eliminarPublicacion--><g class="cluster" data-entity="eliminarPublicacion" data-source-line="4" data-uid="ent0003" id="cluster_eliminarPublicacion"><path d="M211.5,6 L354.0859,6 A3.75,3.75 0 0 1 356.5859,8.5 L363.5859,29.6094 L1108.5,29.6094 A2.5,2.5 0 0 1 1111,32.1094 L1111,424.5 A2.5,2.5 0 0 1 1108.5,427 L211.5,427 A2.5,2.5 0 0 1 209,424.5 L209,8.5 A2.5,2.5 0 0 1 211.5,6" fill="none" style="stroke:#000000;stroke-width:1.5;"/><line style="stroke:#000000;stroke-width:1.5;" x1="209" x2="363.5859" y1="29.6094" y2="29.6094"/><text fill="#000000" font-family="sans-serif" font-size="14" font-weight="bold" lengthAdjust="spacing" textLength="141.5859" x="213" y="22.5332">eliminarPublicacion()</text></g><!--entity EliminarPublicacionView--><g class="entity" data-entity="EliminarPublicacionView" data-source-line="5" data-uid="ent0004" id="entity_EliminarPublicacionView"><rect fill="#629EF9" height="37.6094" rx="2.5" ry="2.5" style="stroke:#181818;stroke-width:0.5;" width="172.5098" x="701.5" y="42"/><text fill="#000000" font-family="sans-serif" font-size="14" lengthAdjust="spacing" textLength="152.5098" x="711.5" y="66.5332">EliminarPublicacionView</text></g><!--entity PublicacionController--><g class="entity" data-entity="PublicacionController" data-source-line="6" data-uid="ent0005" id="entity_PublicacionController"><rect fill="#B5BD68" height="37.6094" rx="2.5" ry="2.5" style="stroke:#181818;stroke-width:0.5;" width="152.2891" x="546" y="158"/><text fill="#000000" font-family="sans-serif" font-size="14" lengthAdjust="spacing" textLength="132.2891" x="556" y="182.5332">PublicacionController</text></g><!--entity PublicacionRepository--><g class="entity" data-entity="PublicacionRepository" data-source-line="7" data-uid="ent0006" id="entity_PublicacionRepository"><rect fill="#F2AC4E" height="37.6094" rx="2.5" ry="2.5" style="stroke:#181818;stroke-width:0.5;" width="158.5166" x="541.5" y="274"/><text fill="#000000" font-family="sans-serif" font-size="14" lengthAdjust="spacing" textLength="138.5166" x="551.5" y="298.5332">PublicacionRepository</text></g><!--entity Publicacion--><g class="entity" data-entity="Publicacion" data-source-line="8" data-uid="ent0007" id="entity_Publicacion"><rect fill="#F2AC4E" height="37.6094" rx="2.5" ry="2.5" style="stroke:#181818;stroke-width:0.5;" width="91.5996" x="575" y="373"/><text fill="#000000" font-family="sans-serif" font-size="14" lengthAdjust="spacing" textLength="71.5996" x="585" y="397.5332">Publicacion</text></g><!--entity EstadoEntrada--><g class="entity" data-entity="EstadoEntrada" data-source-line="3" data-uid="ent0002" id="entity_EstadoEntrada"><rect fill="#CDEBA5" height="37.6094" rx="2.5" ry="2.5" style="stroke:#181818;stroke-width:0.5;" width="186.4893" x="7" y="42"/><text fill="#000000" font-family="sans-serif" font-size="14" lengthAdjust="spacing" textLength="166.4893" x="17" y="66.5332">:PUBLICACION_ABIERTA</text></g><!--entity EstadoSalidaExitosa--><g class="entity" data-entity="EstadoSalidaExitosa" data-source-line="11" data-uid="ent0008" id="entity_EstadoSalidaExitosa"><rect fill="#CDEBA5" height="37.6094" rx="2.5" ry="2.5" style="stroke:#181818;stroke-width:0.5;" width="214.5029" x="1127.5" y="158"/><text fill="#000000" font-family="sans-serif" font-size="14" lengthAdjust="spacing" textLength="194.5029" x="1137.5" y="182.5332">:PUBLICACIONES_ABIERTAS</text></g><!--entity EstadoSalidaCancelada--><g class="entity" data-entity="EstadoSalidaCancelada" data-source-line="12" data-uid="ent0009" id="entity_EstadoSalidaCancelada"><rect fill="#CDEBA5" height="37.6094" rx="2.5" ry="2.5" style="stroke:#181818;stroke-width:0.5;" width="186.4893" x="1378" y="158"/><text fill="#000000" font-family="sans-serif" font-size="14" lengthAdjust="spacing" textLength="166.4893" x="1388" y="182.5332">:PUBLICACION_ABIERTA</text></g><!--entity AbrirPublicaciones--><g class="entity" data-entity="AbrirPublicaciones" data-source-line="13" data-uid="ent0010" id="entity_AbrirPublicaciones"><rect fill="#CDEBA5" height="37.6094" rx="2.5" ry="2.5" style="stroke:#181818;stroke-width:0.5;" width="226.2197" x="1599" y="158"/><text fill="#000000" font-family="sans-serif" font-size="14" lengthAdjust="spacing" textLength="206.2197" x="1609" y="182.5332">:Collaboration AbrirPublicaciones</text></g><!--link EstadoEntrada to EliminarPublicacionView--><g class="link" data-entity-1="EstadoEntrada" data-entity-2="EliminarPublicacionView" data-source-line="15" data-uid="lnk11" id="link_EstadoEntrada_EliminarPublicacionView"><path d="M193.14,61 C326.86,61 565.39,61 695.39,61" fill="none" id="EstadoEntrada-to-EliminarPublicacionView" style="stroke:#181818;stroke-width:1;"/><polygon fill="#181818" points="701.39,61,692.39,57,696.39,61,692.39,65,701.39,61" style="stroke:#181818;stroke-width:1;"/><text fill="#000000" font-family="sans-serif" font-size="13" lengthAdjust="spacing" textLength="120.6563" x="387.25" y="54.4951">eliminarPublicacion()</text></g><!--link EliminarPublicacionView to PublicacionController--><g class="link" data-entity-1="EliminarPublicacionView" data-entity-2="PublicacionController" data-source-line="17" data-uid="lnk12" id="link_EliminarPublicacionView_PublicacionController"><path d="M701.21,69.85 C550.65,83.46 257,110 257,110 C257,110 257,128 257,128 C257,128 433.0112,151.1475 539.9812,165.2175" fill="none" id="EliminarPublicacionView-to-PublicacionController" style="stroke:#181818;stroke-width:1;"/><polygon fill="#181818" points="545.93,166,537.5285,160.8605,540.9727,165.348,536.4852,168.7922,545.93,166" style="stroke:#181818;stroke-width:1;"/><text fill="#000000" font-family="sans-serif" font-size="13" lengthAdjust="spacing" textLength="139.4263" x="258" y="124.4951">solicitarConfirmacion(id)</text></g><!--link PublicacionController to EliminarPublicacionView--><g class="link" data-entity-1="PublicacionController" data-entity-2="EliminarPublicacionView" data-source-line="18" data-uid="lnk13" id="link_PublicacionController_EliminarPublicacionView"><path d="M698.34,163.45 C784.86,149.23 914,128 914,128 C914,128 914,110 914,110 C914,110 876.6369,95.7661 840.8869,82.1461" fill="none" id="PublicacionController-to-EliminarPublicacionView" style="stroke:#181818;stroke-width:1;"/><polygon fill="#181818" points="835.28,80.01,842.2662,86.9521,839.9524,81.7901,845.1144,79.4762,835.28,80.01" style="stroke:#181818;stroke-width:1;"/><text fill="#000000" font-family="sans-serif" font-size="13" lengthAdjust="spacing" textLength="140.1626" x="915" y="124.4951">presentarConfirmacion()</text></g><!--link EliminarPublicacionView to PublicacionController--><g class="link" data-entity-1="EliminarPublicacionView" data-entity-2="PublicacionController" data-source-line="19" data-uid="lnk14" id="link_EliminarPublicacionView_PublicacionController"><path d="M701.48,73.87 C597.84,88.08 438,110 438,110 C438,110 438,128 438,128 C438,128 494.9443,142.8555 547.1543,156.4755" fill="none" id="EliminarPublicacionView-to-PublicacionController-1" style="stroke:#181818;stroke-width:1;"/><polygon fill="#181818" points="552.96,157.99,545.2611,151.8477,548.1219,156.7279,543.2418,159.5887,552.96,157.99" style="stroke:#181818;stroke-width:1;"/><text fill="#000000" font-family="sans-serif" font-size="13" lengthAdjust="spacing" textLength="139.4263" x="439" y="124.4951">confirmarEliminacion(id)</text></g><!--link EliminarPublicacionView to PublicacionController--><g class="link" data-entity-1="EliminarPublicacionView" data-entity-2="PublicacionController" data-source-line="20" data-uid="lnk15" id="link_EliminarPublicacionView_PublicacionController"><path d="M724.59,80.01 C676.64,93.63 619,110 619,110 C619,110 619,128 619,128 C619,128 619.6455,138.2717 620.4955,151.8617" fill="none" id="EliminarPublicacionView-to-PublicacionController-2" style="stroke:#181818;stroke-width:1;"/><polygon fill="#181818" points="620.87,157.85,624.3004,148.6179,620.5579,152.8598,616.316,149.1172,620.87,157.85" style="stroke:#181818;stroke-width:1;"/><text fill="#000000" font-family="sans-serif" font-size="13" lengthAdjust="spacing" textLength="124.2681" x="620" y="124.4951">cancelarEliminacion()</text></g><!--link EliminarPublicacionView to PublicacionController--><g class="link" data-entity-1="EliminarPublicacionView" data-entity-2="PublicacionController" data-source-line="21" data-uid="lnk16" id="link_EliminarPublicacionView_PublicacionController"><path d="M777.34,80.03 C765.8,99.58 749,128 749,128 C749,128 711.3026,142.2489 675.2626,155.8689" fill="none" id="EliminarPublicacionView-to-PublicacionController-3" style="stroke:#181818;stroke-width:1;"/><polygon fill="#181818" points="669.65,157.99,679.4829,158.5501,674.3272,156.2224,676.6548,151.0667,669.65,157.99" style="stroke:#181818;stroke-width:1;"/><text fill="#000000" font-family="sans-serif" font-size="13" lengthAdjust="spacing" textLength="123.5444" x="760" y="124.4951">validarEliminacion(id)</text></g><!--link PublicacionController to PublicacionRepository--><g class="link" data-entity-1="PublicacionController" data-entity-2="PublicacionRepository" data-source-line="22" data-uid="lnk17" id="link_PublicacionController_PublicacionRepository"><path d="M595.16,196.15 C575.05,209.74 551,226 551,226 C551,226 551,244 551,244 C551,244 569.7607,256.8681 589.5907,270.4581" fill="none" id="PublicacionController-to-PublicacionRepository" style="stroke:#181818;stroke-width:1;"/><polygon fill="#181818" points="594.54,273.85,589.3773,265.4627,590.4156,271.0234,584.8549,272.0617,594.54,273.85" style="stroke:#181818;stroke-width:1;"/><text fill="#000000" font-family="sans-serif" font-size="13" lengthAdjust="spacing" textLength="93.939" x="552" y="240.4951">obtenerPorId(id)</text></g><!--link PublicacionController to PublicacionRepository--><g class="link" data-entity-1="PublicacionController" data-entity-2="PublicacionRepository" data-source-line="23" data-uid="lnk18" id="link_PublicacionController_PublicacionRepository"><path d="M632.59,196.15 C640.51,209.74 650,226 650,226 C650,226 650,244 650,244 C650,244 643.2853,255.1261 635.0653,268.7161" fill="none" id="PublicacionController-to-PublicacionRepository-1" style="stroke:#181818;stroke-width:1;"/><polygon fill="#181818" points="631.96,273.85,640.0405,268.2193,634.5477,269.5717,633.1953,264.0789,631.96,273.85" style="stroke:#181818;stroke-width:1;"/><text fill="#000000" font-family="sans-serif" font-size="13" lengthAdjust="spacing" textLength="64.2891" x="651" y="240.4951">eliminar(id)</text></g><!--link PublicacionRepository to Publicacion--><g class="link" data-entity-1="PublicacionRepository" data-entity-2="Publicacion" data-source-line="24" data-uid="lnk19" id="link_PublicacionRepository_Publicacion"><path d="M621,312.24 C621,329.59 621,355.52 621,372.84" fill="none" id="PublicacionRepository-Publicacion" style="stroke:#181818;stroke-width:1;"/></g><!--link EliminarPublicacionView to EstadoSalidaExitosa--><g class="link" data-entity-1="EliminarPublicacionView" data-entity-2="EstadoSalidaExitosa" data-source-line="25" data-uid="lnk20" id="link_EliminarPublicacionView_EstadoSalidaExitosa"><path d="M874.57,77.06 C955.51,91.13 1064,110 1064,110 C1064,110 1132.0428,136.2587 1182.6728,155.8087" fill="none" id="EliminarPublicacionView-to-EstadoSalidaExitosa" style="stroke:#181818;stroke-width:1;stroke-dasharray:7,7;"/><polygon fill="#181818" points="1188.27,157.97,1181.315,150.9966,1183.6057,156.1689,1178.4333,158.4596,1188.27,157.97" style="stroke:#181818;stroke-width:1;"/><text fill="#000000" font-family="sans-serif" font-size="13" lengthAdjust="spacing" textLength="130.7871" x="1110" y="124.4951">publicacionEliminada()</text></g><!--link EliminarPublicacionView to EstadoSalidaCancelada--><g class="link" data-entity-1="EliminarPublicacionView" data-entity-2="EstadoSalidaCancelada" data-source-line="26" data-uid="lnk21" id="link_EliminarPublicacionView_EstadoSalidaCancelada"><path d="M874.71,71.03 C1008.25,84.93 1249,110 1249,110 C1249,110 1338.859,136.7095 1404.589,156.2595" fill="none" id="EliminarPublicacionView-to-EstadoSalidaCancelada" style="stroke:#181818;stroke-width:1;stroke-dasharray:7,7;"/><polygon fill="#181818" points="1410.34,157.97,1402.8538,151.5702,1405.5475,156.5446,1400.5731,159.2382,1410.34,157.97" style="stroke:#181818;stroke-width:1;"/><text fill="#000000" font-family="sans-serif" font-size="13" lengthAdjust="spacing" textLength="135.8462" x="1309" y="124.4951">eliminacionCancelada()</text></g><!--link EliminarPublicacionView to AbrirPublicaciones--><g class="link" data-entity-1="EliminarPublicacionView" data-entity-2="AbrirPublicaciones" data-source-line="27" data-uid="lnk22" id="link_EliminarPublicacionView_AbrirPublicaciones"><path d="M874.6,68.25 C1054.69,81.25 1453,110 1453,110 C1453,110 1558.7259,136.9379 1635.4159,156.4879" fill="none" id="EliminarPublicacionView-to-AbrirPublicaciones" style="stroke:#181818;stroke-width:1;stroke-dasharray:7,7;"/><polygon fill="#181818" points="1641.23,157.97,1633.497,151.8708,1636.385,156.7349,1631.5208,159.6228,1641.23,157.97" style="stroke:#181818;stroke-width:1;"/><text fill="#000000" font-family="sans-serif" font-size="13" lengthAdjust="spacing" textLength="114.8799" x="1523" y="124.4951">abrirPublicaciones()</text></g><!--SRC=[dPFBRi8m44Nt-OfHkYcBi405bIoGGcgaI5MBeEssciGkiZ1sPASFLFNVw_0CYGCIsMLqv_ZwZiSikSnHume4bwnOvmno9TRbZ-TfbXKe5uB1JVn0nb4V_73wEdvCuYXEdf_Uet52PY-H3sY0c0Af8hBGID7BCLlYWW4JVCKbwkbdAdY66LUo5FkE-ct7XryFx5SvTj0RaiaGI5F-njbtNPtsKpguXuegLjQG4eBfkdRIY-8xKjNEMAuCBvHUNzPwVnVJ8VDzFlDAG7CKd2BviUSOl2BWRN-CCcEY3Df5YEs5CLKQYpBkADMy6Xmp6ropx7adCuH01wEsv4DmJj0Yt7e8g8Kv1nE2KRRA2zIs-C7rQWlZjECv6o0uvolNp31PXtNQZRNxodO4lUizsBg6jPtO2UegqDVc0JGijIVbVE4XgBHWakcfqWczZh1_0VNkeyPsdonDstMxtP5hFUmmZy9TByKpiTKvXpKvcDtSRb-zG6fkI0ZOg5d8Fm00]--></g></svg>