<svg xmlns="http://www.w3.org/2000/svg" xmlns:xlink="http://www.w3.org/1999/xlink" contentStyleType="text/css" data-diagram-type="DESCRIPTION" height="595px" preserveAspectRatio="none" style="width:1454px;height:595px;background:#FFFFFF;" version="1.1" viewBox="0 0 1454 595" width="1454px" zoomAndPan="magnify"><?plantuml 1.2026.6?><defs/><g><!--cluster eliminarPublicacion--><g class="cluster" data-qualified-name="eliminarPublicacion" data-source-line="4" id="ent0002"><path d="M413.5,6 L556.0859,6 A3.75,3.75 0 0 1 558.5859,8.5 L565.5859,29.6094 L1114.5,29.6094 A2.5,2.5 0 0 1 1117,32.1094 L1117,577.5 A2.5,2.5 0 0 1 1114.5,580 L413.5,580 A2.5,2.5 0 0 1 411,577.5 L411,8.5 A2.5,2.5 0 0 1 413.5,6" fill="none" style="stroke:#000000;stroke-width:1.5;"/><line style="stroke:#000000;stroke-width:1.5;" x1="411" x2="565.5859" y1="29.6094" y2="29.6094"/><text fill="#000000" font-family="sans-serif" font-size="14" font-weight="700" lengthAdjust="spacing" textLength="141.5859" x="415" y="22.5332">eliminarPublicacion()</text></g><!--entity View--><g class="entity" data-qualified-name="eliminarPublicacion.View" data-source-line="5" id="ent0003"><rect fill="#629EF9" height="37.6094" rx="2.5" ry="2.5" style="stroke:#181818;stroke-width:0.5;" width="170.958" x="716.5" y="42"/><text fill="#000000" font-family="sans-serif" font-size="14" lengthAdjust="spacing" textLength="150.958" x="726.5" y="66.5332">eliminarPublicacionView</text></g><!--entity PublicacionController--><g class="entity" data-qualified-name="eliminarPublicacion.PublicacionController" data-source-line="6" id="ent0004"><rect fill="#B5BD68" height="37.6094" rx="2.5" ry="2.5" style="stroke:#181818;stroke-width:0.5;" width="152.2891" x="726" y="158"/><text fill="#000000" font-family="sans-serif" font-size="14" lengthAdjust="spacing" textLength="132.2891" x="736" y="182.5332">PublicacionController</text></g><!--entity PublicacionService--><g class="entity" data-qualified-name="eliminarPublicacion.PublicacionService" data-source-line="7" id="ent0005"><rect fill="#B5BD68" height="37.6094" rx="2.5" ry="2.5" style="stroke:#181818;stroke-width:0.5;" width="138.2822" x="654" y="274"/><text fill="#000000" font-family="sans-serif" font-size="14" lengthAdjust="spacing" textLength="118.2822" x="664" y="298.5332">PublicacionService</text></g><!--entity SesionService--><g class="entity" data-qualified-name="eliminarPublicacion.SesionService" data-source-line="8" id="ent0006"><rect fill="#B5BD68" height="37.6094" rx="2.5" ry="2.5" style="stroke:#181818;stroke-width:0.5;" width="109.4893" x="835.5" y="274"/><text fill="#000000" font-family="sans-serif" font-size="14" lengthAdjust="spacing" textLength="89.4893" x="845.5" y="298.5332">SesionService</text></g><!--entity PoliticaPublicacion--><g class="entity" data-qualified-name="eliminarPublicacion.PoliticaPublicacion" data-source-line="9" id="ent0007"><rect fill="#B5BD68" height="37.6094" rx="2.5" ry="2.5" style="stroke:#181818;stroke-width:0.5;" width="136.7305" x="542.5" y="408.5"/><text fill="#000000" font-family="sans-serif" font-size="14" lengthAdjust="spacing" textLength="116.7305" x="552.5" y="433.0332">PoliticaPublicacion</text></g><!--entity PublicacionRepository--><g class="entity" data-qualified-name="eliminarPublicacion.PublicacionRepository" data-source-line="10" id="ent0008"><rect fill="#F2AC4E" height="37.6094" rx="2.5" ry="2.5" style="stroke:#181818;stroke-width:0.5;" width="158.5166" x="744.5" y="408.5"/><text fill="#000000" font-family="sans-serif" font-size="14" lengthAdjust="spacing" textLength="138.5166" x="754.5" y="433.0332">PublicacionRepository</text></g><!--entity Publicacion--><g class="entity" data-qualified-name="eliminarPublicacion.Publicacion" data-source-line="11" id="ent0009"><rect fill="#F2AC4E" height="37.6094" rx="2.5" ry="2.5" style="stroke:#181818;stroke-width:0.5;" width="91.5996" x="778" y="526"/><text fill="#000000" font-family="sans-serif" font-size="14" lengthAdjust="spacing" textLength="71.5996" x="788" y="550.5332">Publicacion</text></g><!--entity EstadoEntrada--><g class="entity" data-qualified-name="EstadoEntrada" data-source-line="3" id="ent0001"><rect fill="#CDEBA5" height="37.6094" rx="2.5" ry="2.5" style="stroke:#181818;stroke-width:0.5;" width="387.9922" x="7" y="42"/><text fill="#000000" font-family="sans-serif" font-size="14" lengthAdjust="spacing" textLength="367.9922" x="17" y="66.5332">:PUBLICACION_ABIERTA o MI_PUBLICACION_ABIERTA</text></g><!--entity EstadoSalida--><g class="entity" data-qualified-name="EstadoSalida" data-source-line="14" id="ent0010"><rect fill="#CDEBA5" height="37.6094" rx="2.5" ry="2.5" style="stroke:#181818;stroke-width:0.5;" width="307.1914" x="1133.5" y="158"/><text fill="#000000" font-family="sans-serif" font-size="14" lengthAdjust="spacing" textLength="287.1914" x="1143.5" y="182.5332">:Listado correspondiente al contexto de origen</text></g><g class="entity" data-qualified-name="GMN20" data-source-line="28" id="ent0021"><path d="M1133,390 L1133,465.4063 L1360.6226,465.4063 L1360.6226,400 L1350.6226,390 L1133,390" fill="#FEFFDD" style="stroke:#181818;stroke-width:0.5;"/><path d="M1350.6226,390 L1350.6226,400 L1360.6226,400 L1350.6226,390" fill="#FEFFDD" style="stroke:#181818;stroke-width:1;"/><text fill="#000000" font-family="sans-serif" font-size="13" lengthAdjust="spacing" textLength="134.4243" x="1139" y="408.4951">Responsabilidad unica:</text><text fill="#000000" font-family="sans-serif" font-size="13" lengthAdjust="spacing" textLength="191.4707" x="1139" y="424.8467">autoriza sin persistir ni presentar.</text><text fill="#000000" font-family="sans-serif" font-size="13" lengthAdjust="spacing" textLength="206.6226" x="1139" y="441.1982">Permite ampliar reglas sin modificar</text><text fill="#000000" font-family="sans-serif" font-size="13" lengthAdjust="spacing" textLength="185.7324" x="1139" y="457.5498">la coordinacion del caso de uso.</text></g><!--link EstadoEntrada to View--><g class="link" data-entity-1="ent0001" data-entity-2="ent0003" data-link-type="dependency" data-source-line="16" id="lnk11"><path d="M395.3,61 C503.67,61 628.19,61 711.47,61" fill="none" id="EstadoEntrada-to-View" style="stroke:#181818;stroke-width:1;"/><polygon fill="#181818" points="716.47,61,707.47,57,711.47,61,707.47,65,716.47,61" style="stroke:#181818;stroke-width:1;stroke-linejoin:miter;stroke-miterlimit:10;"/><text fill="#000000" font-family="sans-serif" font-size="13" lengthAdjust="spacing" textLength="120.6563" x="495.75" y="54.4951">eliminarPublicacion()</text></g><!--link View to PublicacionController--><g class="link" data-entity-1="ent0003" data-entity-2="ent0004" data-link-type="dependency" data-source-line="17" id="lnk12"><path d="M802,80.06 C802,101.28 802,131.3 802,152.64" fill="none" id="View-to-PublicacionController" style="stroke:#181818;stroke-width:1;"/><polygon fill="#181818" points="802,157.64,806,148.64,802,152.64,798,148.64,802,157.64" style="stroke:#181818;stroke-width:1;stroke-linejoin:miter;stroke-miterlimit:10;"/><text fill="#000000" font-family="sans-serif" font-size="13" lengthAdjust="spacing" textLength="203.7471" x="803" y="124.4951">eliminarPublicacion(solicitud, actor)</text></g><!--link PublicacionController to PublicacionService--><g class="link" data-entity-1="ent0004" data-entity-2="ent0005" data-link-type="dependency" data-source-line="18" id="lnk13"><path d="M767.86,196.01 C742.03,209.63 711,226 711,226 C711,226 711,244 711,244 C711,244 713.8598,255.4087 717.2498,268.9987" fill="none" id="PublicacionController-to-PublicacionService" style="stroke:#181818;stroke-width:1;"/><polygon fill="#181818" points="718.46,273.85,720.1628,264.1495,717.2498,268.9987,712.4006,266.0857,718.46,273.85" style="stroke:#181818;stroke-width:1;stroke-linejoin:miter;stroke-miterlimit:10;"/><text fill="#000000" font-family="sans-serif" font-size="13" lengthAdjust="spacing" textLength="134.3608" x="712" y="240.4951">retirar(id, motivo, actor)</text></g><!--link PublicacionController to SesionService--><g class="link" data-entity-1="ent0004" data-entity-2="ent0006" data-link-type="dependency" data-source-line="19" id="lnk14"><path d="M820.52,196.15 C834.4,209.74 851,226 851,226 C851,226 865.2584,250.1142 876.7984,269.6642" fill="none" id="PublicacionController-to-SesionService" style="stroke:#181818;stroke-width:1;"/><polygon fill="#181818" points="879.34,273.97,878.2097,264.1862,876.7984,269.6642,871.3204,268.2528,879.34,273.97" style="stroke:#181818;stroke-width:1;stroke-linejoin:miter;stroke-miterlimit:10;"/><text fill="#000000" font-family="sans-serif" font-size="13" lengthAdjust="spacing" textLength="209.5806" x="862" y="240.4951">obtenerSesionActual(authentication)</text></g><!--link PublicacionService to PublicacionRepository--><g class="link" data-entity-1="ent0005" data-entity-2="ent0008" data-link-type="dependency" data-source-line="20" id="lnk15"><path d="M726.55,312.03 C730.4,331.58 736,360 736,360 C736,360 769.9112,385.6251 795.9612,405.3151" fill="none" id="PublicacionService-to-PublicacionRepository" style="stroke:#181818;stroke-width:1;"/><polygon fill="#181818" points="799.95,408.33,795.1822,399.7121,795.9612,405.3151,790.3583,406.0941,799.95,408.33" style="stroke:#181818;stroke-width:1;stroke-linejoin:miter;stroke-miterlimit:10;"/><text fill="#000000" font-family="sans-serif" font-size="13" lengthAdjust="spacing" textLength="129.3398" x="737" y="356.4951">obtenerActivaPorId(id)</text></g><!--link PublicacionService to PublicacionRepository--><g class="link" data-entity-1="ent0005" data-entity-2="ent0008" data-link-type="dependency" data-source-line="22" id="lnk17"><path d="M778.53,312.01 C820.53,325.63 871,342 871,342 C871,342 871,360 871,360 C871,360 853.6463,384.5572 839.7263,404.2472" fill="none" id="PublicacionService-to-PublicacionRepository-1" style="stroke:#181818;stroke-width:1;"/><polygon fill="#181818" points="836.84,408.33,845.3016,403.2901,839.7263,404.2472,838.7692,398.6719,836.84,408.33" style="stroke:#181818;stroke-width:1;stroke-linejoin:miter;stroke-miterlimit:10;"/><text fill="#000000" font-family="sans-serif" font-size="13" lengthAdjust="spacing" textLength="189.2871" x="872" y="356.4951">retirar(publicacion, motivo, actor)</text></g><!--link PublicacionService to PoliticaPublicacion--><g class="link" data-entity-1="ent0005" data-entity-2="ent0007" data-link-type="dependency" data-source-line="21" id="lnk16"><path d="M653.79,308.08 C584.15,322.24 487,342 487,342 C487,342 487,360 487,360 C487,360 535.9935,386.2772 572.7135,405.9672" fill="none" id="PublicacionService-to-PoliticaPublicacion" style="stroke:#181818;stroke-width:1;"/><polygon fill="#181818" points="577.12,408.33,571.0786,400.5517,572.7135,405.9672,567.2981,407.6021,577.12,408.33" style="stroke:#181818;stroke-width:1;stroke-linejoin:miter;stroke-miterlimit:10;"/><text fill="#000000" font-family="sans-serif" font-size="13" lengthAdjust="spacing" textLength="235.5425" x="488" y="356.4951">permitirGestionGlobal(actor, publicacion)</text></g><!--link PublicacionRepository to Publicacion--><g class="link" data-entity-1="ent0008" data-entity-2="ent0009" data-link-type="association" data-source-line="23" id="lnk18"><path d="M824,446.55 C824,468.12 824,504.02 824,525.7" fill="none" id="PublicacionRepository-Publicacion" style="stroke:#181818;stroke-width:1;"/></g><!--link View to EstadoSalida--><g class="link" data-entity-1="ent0003" data-entity-2="ent0010" data-link-type="dependency" data-source-line="25" id="lnk19"><path d="M881.92,80.01 C942.36,93.63 1015,110 1015,110 C1015,110 1127.2811,137.2404 1207.8111,156.7904" fill="none" id="View-to-EstadoSalida" style="stroke:#181818;stroke-width:1;stroke-dasharray:7,7;"/><polygon fill="#181818" points="1212.67,157.97,1204.8677,151.9597,1207.8111,156.7904,1202.9804,159.7339,1212.67,157.97" style="stroke:#181818;stroke-width:1;stroke-linejoin:miter;stroke-miterlimit:10;"/><text fill="#000000" font-family="sans-serif" font-size="13" lengthAdjust="spacing" textLength="130.7935" x="1088" y="124.4951">continuarNavegacion()</text></g><!--link PoliticaPublicacion to GMN20--><g class="link" data-entity-1="ent0007" data-entity-2="ent0021" data-link-type="association" data-source-line="28" id="lnk22"><path d="M644.34,408.39 C683.89,385.73 744.5,351 744.5,351 C744.5,351 1099.5,351 1099.5,351 C1099.5,351 1137.24,370.58 1174.55,389.92" fill="none" id="PoliticaPublicacion-GMN20" style="stroke:#181818;stroke-width:1;stroke-dasharray:7,7;"/></g><?plantuml-src bLJ1Rjim3BthAuZiaW9D3iLQh3uKS3At2D1rGRFjMj0McnAL9KEIisN3_dsqsovsvYwRJpRr-4Izz-JmoBP2ZoKOjXIt5K7bpBRvKCfJ4T6k3S6R-Vjibfx2A5b-dbqlvkbyyV7cBfqjijjFAJZuiBWRM1W11iX2HEqo6prgL1KMZxWc8CCbM_JBEZTSOC7EDk3HG7ryD88V2kJfp7DsSfvTdW_Ylp1zRNTkNlRxyjDSdxs33dpkP3Hd3Fd3s1Nv3HVq2d15uI1cwGn7OUkGxYClJzBvswoxxIrLBd1qVdiOgzJFGT-kkVK12kSzXSfPpMGZ0HefoSktw40JECzhiXtZLcXOV5Cz6s7Y9nUjlWaCEgQQDPXeGGrAFTmMH9o2OwsF0Givxf4QR8P9d_PPyKI4YUpHZra8IXTvu_w1gETQ0YwFPCa_LTCYrcZ6MCS74KlwenHxPCzz-oFj7FlDA5oymQNp2oq3laxoPq0IgCYNKlLN59e9hepBcx6Qenr3jKF-xsWlWdKe_gRShbL8-w5h_PvEBtgfITfeiQtHt-26rY_XKDP9yYHf3n7S_U2Tk6qp6Z3dXaX3RMKbKUA49FGxGc3Rg18arUp1CbIIQl48_LGjMxKascLb6BsSScqapqrBwJJV2vDN1cKuvxLaiFtvQ9ABWA6z17LmKqLMGpFdBm00?></g></svg>