<svg xmlns="http://www.w3.org/2000/svg" xmlns:xlink="http://www.w3.org/1999/xlink" contentStyleType="text/css" data-diagram-type="DESCRIPTION" height="442px" preserveAspectRatio="none" style="width:1705px;height:442px;background:#FFFFFF;" version="1.1" viewBox="0 0 1705 442" width="1705px" zoomAndPan="magnify"><?plantuml 1.2026.4?><defs/><g><!--cluster crearPublicacion--><g class="cluster" data-qualified-name="crearPublicacion" data-source-line="4" id="ent0002"><path d="M273,6 L396.1514,6 A3.75,3.75 0 0 1 398.6514,8.5 L405.6514,29.6094 L660,29.6094 A2.5,2.5 0 0 1 662.5,32.1094 L662.5,424.5 A2.5,2.5 0 0 1 660,427 L273,427 A2.5,2.5 0 0 1 270.5,424.5 L270.5,8.5 A2.5,2.5 0 0 1 273,6" fill="none" style="stroke:#000000;stroke-width:1.5;"/><line style="stroke:#000000;stroke-width:1.5;" x1="270.5" x2="405.6514" y1="29.6094" y2="29.6094"/><text fill="#000000" font-family="sans-serif" font-size="14" font-weight="700" lengthAdjust="spacing" textLength="122.1514" x="274.5" y="22.5332">crearPublicacion()</text></g><!--entity CrearPublicacionView--><g class="entity" data-qualified-name="crearPublicacion.CrearPublicacionView" data-source-line="5" id="ent0003"><rect fill="#629EF9" height="37.6094" rx="2.5" ry="2.5" style="stroke:#181818;stroke-width:0.5;" width="156.9512" x="489" y="42"/><text fill="#000000" font-family="sans-serif" font-size="14" lengthAdjust="spacing" textLength="136.9512" x="499" y="66.5332">CrearPublicacionView</text></g><!--entity PublicacionController--><g class="entity" data-qualified-name="crearPublicacion.PublicacionController" data-source-line="6" id="ent0004"><rect fill="#B5BD68" height="37.6094" rx="2.5" ry="2.5" style="stroke:#181818;stroke-width:0.5;" width="152.2891" x="352.5" y="158"/><text fill="#000000" font-family="sans-serif" font-size="14" lengthAdjust="spacing" textLength="132.2891" x="362.5" y="182.5332">PublicacionController</text></g><!--entity PublicacionRepository--><g class="entity" data-qualified-name="crearPublicacion.PublicacionRepository" data-source-line="7" id="ent0005"><rect fill="#F2AC4E" height="37.6094" rx="2.5" ry="2.5" style="stroke:#181818;stroke-width:0.5;" width="158.5166" x="362" y="274"/><text fill="#000000" font-family="sans-serif" font-size="14" lengthAdjust="spacing" textLength="138.5166" x="372" y="298.5332">PublicacionRepository</text></g><!--entity Publicacion--><g class="entity" data-qualified-name="crearPublicacion.Publicacion" data-source-line="8" id="ent0006"><rect fill="#F2AC4E" height="37.6094" rx="2.5" ry="2.5" style="stroke:#181818;stroke-width:0.5;" width="91.5996" x="395.5" y="373"/><text fill="#000000" font-family="sans-serif" font-size="14" lengthAdjust="spacing" textLength="71.5996" x="405.5" y="397.5332">Publicacion</text></g><!--entity EstadoEntrada--><g class="entity" data-qualified-name="EstadoEntrada" data-source-line="3" id="ent0001"><rect fill="#CDEBA5" height="37.6094" rx="2.5" ry="2.5" style="stroke:#181818;stroke-width:0.5;" width="247.1787" x="7" y="42"/><text fill="#000000" font-family="sans-serif" font-size="14" lengthAdjust="spacing" textLength="227.1787" x="17" y="66.5332">:MIS_PUBLICACIONES_ABIERTAS</text></g><!--entity EstadoSalida--><g class="entity" data-qualified-name="EstadoSalida" data-source-line="11" id="ent0007"><rect fill="#CDEBA5" height="37.6094" rx="2.5" ry="2.5" style="stroke:#181818;stroke-width:0.5;" width="209.8271" x="678.5" y="158"/><text fill="#000000" font-family="sans-serif" font-size="14" lengthAdjust="spacing" textLength="189.8271" x="688.5" y="182.5332">:MI_PUBLICACION_ABIERTA</text></g><!--entity EditarPublicacion--><g class="entity" data-qualified-name="EditarPublicacion" data-source-line="12" id="ent0008"><rect fill="#CDEBA5" height="37.6094" rx="2.5" ry="2.5" style="stroke:#181818;stroke-width:0.5;" width="218.4473" x="923.5" y="158"/><text fill="#000000" font-family="sans-serif" font-size="14" lengthAdjust="spacing" textLength="198.4473" x="933.5" y="182.5332">:Collaboration EditarPublicacion</text></g><!--entity EliminarPublicacion--><g class="entity" data-qualified-name="EliminarPublicacion" data-source-line="13" id="ent0009"><rect fill="#CDEBA5" height="37.6094" rx="2.5" ry="2.5" style="stroke:#181818;stroke-width:0.5;" width="232.4404" x="1176.5" y="158"/><text fill="#000000" font-family="sans-serif" font-size="14" lengthAdjust="spacing" textLength="212.4404" x="1186.5" y="182.5332">:Collaboration EliminarPublicacion</text></g><!--entity AbrirMisPublicaciones--><g class="entity" data-qualified-name="AbrirMisPublicaciones" data-source-line="14" id="ent0010"><rect fill="#CDEBA5" height="37.6094" rx="2.5" ry="2.5" style="stroke:#181818;stroke-width:0.5;" width="247.9922" x="1443.5" y="158"/><text fill="#000000" font-family="sans-serif" font-size="14" lengthAdjust="spacing" textLength="227.9922" x="1453.5" y="182.5332">:Collaboration AbrirMisPublicaciones</text></g><!--link EstadoEntrada to CrearPublicacionView--><g class="link" data-entity-1="ent0001" data-entity-2="ent0003" data-link-type="dependency" data-source-line="16" id="lnk11"><path d="M254.27,61 C329.6,61 418.56,61 483.82,61" fill="none" id="EstadoEntrada-to-CrearPublicacionView" style="stroke:#181818;stroke-width:1;"/><polygon fill="#181818" points="488.82,61,479.82,57,483.82,61,479.82,65,488.82,61" style="stroke:#181818;stroke-width:1;stroke-linejoin:miter;stroke-miterlimit:10;"/><text fill="#000000" font-family="sans-serif" font-size="13" lengthAdjust="spacing" textLength="104.7617" x="319.5" y="54.4951">crearPublicacion()</text></g><!--link CrearPublicacionView to PublicacionController--><g class="link" data-entity-1="ent0003" data-entity-2="ent0004" data-link-type="dependency" data-source-line="18" id="lnk12"><path d="M488.71,77.19 C415.77,91.25 318.5,110 318.5,110 C318.5,110 318.5,128 318.5,128 C318.5,128 351.4271,142.3707 382.6471,155.9907" fill="none" id="CrearPublicacionView-to-PublicacionController" style="stroke:#181818;stroke-width:1;"/><polygon fill="#181818" points="387.23,157.99,380.5803,150.7249,382.6471,155.9907,377.3814,158.0575,387.23,157.99" style="stroke:#181818;stroke-width:1;stroke-linejoin:miter;stroke-miterlimit:10;"/><text fill="#000000" font-family="sans-serif" font-size="13" lengthAdjust="spacing" textLength="136.5635" x="319.5" y="124.4951">crearPublicacion(datos)</text></g><!--link CrearPublicacionView to PublicacionController--><g class="link" data-entity-1="ent0003" data-entity-2="ent0004" data-link-type="dependency" data-source-line="19" id="lnk13"><path d="M545.48,80.06 C519.6,101.28 480.7767,133.13 454.7467,154.47" fill="none" id="CrearPublicacionView-to-PublicacionController-1" style="stroke:#181818;stroke-width:1;"/><polygon fill="#181818" points="450.88,157.64,460.376,155.0274,454.7467,154.47,455.304,148.8407,450.88,157.64" style="stroke:#181818;stroke-width:1;stroke-linejoin:miter;stroke-miterlimit:10;"/><text fill="#000000" font-family="sans-serif" font-size="13" lengthAdjust="spacing" textLength="145.2407" x="506.5" y="124.4951">validarPublicacion(datos)</text></g><!--link PublicacionController to PublicacionRepository--><g class="link" data-entity-1="ent0004" data-entity-2="ent0005" data-link-type="dependency" data-source-line="20" id="lnk14"><path d="M395.48,196.01 C370.51,209.63 340.5,226 340.5,226 C340.5,226 340.5,244 340.5,244 C340.5,244 370.424,258.2239 399.084,271.8439" fill="none" id="PublicacionController-to-PublicacionRepository" style="stroke:#181818;stroke-width:1;"/><polygon fill="#181818" points="403.6,273.99,397.1881,266.5142,399.084,271.8439,393.7543,273.7398,403.6,273.99" style="stroke:#181818;stroke-width:1;stroke-linejoin:miter;stroke-miterlimit:10;"/><text fill="#000000" font-family="sans-serif" font-size="13" lengthAdjust="spacing" textLength="132.2344" x="341.5" y="240.4951">existeDuplicado(datos)</text></g><!--link PublicacionController to PublicacionRepository--><g class="link" data-entity-1="ent0004" data-entity-2="ent0005" data-link-type="dependency" data-source-line="21" id="lnk15"><path d="M447.4,196.15 C461.56,209.74 478.5,226 478.5,226 C478.5,226 478.5,244 478.5,244 C478.5,244 469.0233,256.3006 458.5433,269.8906" fill="none" id="PublicacionController-to-PublicacionRepository-1" style="stroke:#181818;stroke-width:1;"/><polygon fill="#181818" points="455.49,273.85,464.1536,269.1657,458.5433,269.8906,457.8185,264.2803,455.49,273.85" style="stroke:#181818;stroke-width:1;stroke-linejoin:miter;stroke-miterlimit:10;"/><text fill="#000000" font-family="sans-serif" font-size="13" lengthAdjust="spacing" textLength="96.1162" x="479.5" y="240.4951">guardar(entidad)</text></g><!--link PublicacionRepository to Publicacion--><g class="link" data-entity-1="ent0005" data-entity-2="ent0006" data-link-type="association" data-source-line="22" id="lnk16"><path d="M441.5,312.24 C441.5,329.59 441.5,355.52 441.5,372.84" fill="none" id="PublicacionRepository-Publicacion" style="stroke:#181818;stroke-width:1;"/></g><!--link CrearPublicacionView to EstadoSalida--><g class="link" data-entity-1="ent0003" data-entity-2="ent0007" data-link-type="dependency" data-source-line="23" id="lnk17"><path d="M602.39,80.01 C628.78,93.63 660.5,110 660.5,110 C660.5,110 709.0646,136.0552 745.4846,155.6052" fill="none" id="CrearPublicacionView-to-EstadoSalida" style="stroke:#181818;stroke-width:1;stroke-dasharray:7,7;"/><polygon fill="#181818" points="749.89,157.97,743.8521,150.189,745.4846,155.6052,740.0684,157.2377,749.89,157.97" style="stroke:#181818;stroke-width:1;stroke-linejoin:miter;stroke-miterlimit:10;"/><text fill="#000000" font-family="sans-serif" font-size="13" lengthAdjust="spacing" textLength="130.7935" x="693.5" y="124.4951">continuarNavegacion()</text></g><!--link CrearPublicacionView to EditarPublicacion--><g class="link" data-entity-1="ent0003" data-entity-2="ent0008" data-link-type="dependency" data-source-line="24" id="lnk18"><path d="M646.29,76.27 C724.41,90.42 832.5,110 832.5,110 C832.5,110 913.882,136.8526 973.102,156.4026" fill="none" id="CrearPublicacionView-to-EditarPublicacion" style="stroke:#181818;stroke-width:1;stroke-dasharray:7,7;"/><polygon fill="#181818" points="977.85,157.97,970.5576,151.3503,973.102,156.4026,968.0497,158.947,977.85,157.97" style="stroke:#181818;stroke-width:1;stroke-linejoin:miter;stroke-miterlimit:10;"/><text fill="#000000" font-family="sans-serif" font-size="13" lengthAdjust="spacing" textLength="107.6626" x="886.5" y="124.4951">editarPublicacion()</text></g><!--link CrearPublicacionView to EliminarPublicacion--><g class="link" data-entity-1="ent0003" data-entity-2="ent0009" data-link-type="dependency" data-source-line="25" id="lnk19"><path d="M646.02,70.66 C771.32,84.49 1002.5,110 1002.5,110 C1002.5,110 1122.5148,137.3101 1208.3848,156.8601" fill="none" id="CrearPublicacionView-to-EliminarPublicacion" style="stroke:#181818;stroke-width:1;stroke-dasharray:7,7;"/><polygon fill="#181818" points="1213.26,157.97,1205.3725,152.0719,1208.3848,156.8601,1203.5966,159.8723,1213.26,157.97" style="stroke:#181818;stroke-width:1;stroke-linejoin:miter;stroke-miterlimit:10;"/><text fill="#000000" font-family="sans-serif" font-size="13" lengthAdjust="spacing" textLength="120.6563" x="1080.5" y="124.4951">eliminarPublicacion()</text></g><!--link CrearPublicacionView to AbrirMisPublicaciones--><g class="link" data-entity-1="ent0003" data-entity-2="ent0010" data-link-type="dependency" data-source-line="26" id="lnk20"><path d="M646.22,67.89 C817.65,80.7 1209.5,110 1209.5,110 C1209.5,110 1358.7629,137.513 1464.7529,157.063" fill="none" id="CrearPublicacionView-to-AbrirMisPublicaciones" style="stroke:#181818;stroke-width:1;stroke-dasharray:7,7;"/><polygon fill="#181818" points="1469.67,157.97,1461.5449,152.4038,1464.7529,157.063,1460.0937,160.2711,1469.67,157.97" style="stroke:#181818;stroke-width:1;stroke-linejoin:miter;stroke-miterlimit:10;"/><text fill="#000000" font-family="sans-serif" font-size="13" lengthAdjust="spacing" textLength="135.0972" x="1306.5" y="124.4951">abrirMisPublicaciones()</text></g><?plantuml-src dPB1Qy8m5CRl-Ik2k-X13p9bzY3K6g4mdTXjLtbjGmdMf2JHJSR-zwKEiKrJ9-kjBz_xvRqldzenNe24FSuPf_fKK5o8_5J-82Hfee5dESKFmPpC_17kUCimsgxVPizXu0VXouf4MtyMaish7tKmA4oKXbGGhYMaW0f8Tf1Hd4WASds8SvP0mWGlbHsxsErry1V2vglSEnvEo6A20qlxpkY7BOr7SJf-mXLL8CmS8i-fjBMBeHyyagfsGmkXc1RozBSMVRTvKxNcOap5bmXoPcnnzGPcJeY515twGrAcQml_GkpgFQISxHbti9hrEsX-B9bSCbNfekhCSvuWLCi3xil-rFcM7cwc0I6N4lTJmt0-iWEIWXQgrm9gvnpFx-GYEHjir3LB7gQVJ6awFnJbOIh-pSaE8Cr8NSgr6Isj4QuwGwW5rRduO32jvT7uPaPWtDomWYFDBlwtDzivD6lQfPlzpUmPGhDuY-7CcuV1LJQS7m00?></g></svg>