<svg xmlns="http://www.w3.org/2000/svg" xmlns:xlink="http://www.w3.org/1999/xlink" contentStyleType="text/css" data-diagram-type="DESCRIPTION" height="595px" preserveAspectRatio="none" style="width:1212px;height:595px;background:#FFFFFF;" version="1.1" viewBox="0 0 1212 595" width="1212px" zoomAndPan="magnify"><?plantuml 1.2026.6?><defs/><g><!--cluster crearPublicacion--><g class="cluster" data-qualified-name="crearPublicacion" data-source-line="4" id="ent0002"><path d="M273,6 L396.1514,6 A3.75,3.75 0 0 1 398.6514,8.5 L405.6514,29.6094 L951,29.6094 A2.5,2.5 0 0 1 953.5,32.1094 L953.5,577.5 A2.5,2.5 0 0 1 951,580 L273,580 A2.5,2.5 0 0 1 270.5,577.5 L270.5,8.5 A2.5,2.5 0 0 1 273,6" fill="none" style="stroke:#000000;stroke-width:1.5;"/><line style="stroke:#000000;stroke-width:1.5;" x1="270.5" x2="405.6514" y1="29.6094" y2="29.6094"/><text fill="#000000" font-family="sans-serif" font-size="14" font-weight="700" lengthAdjust="spacing" textLength="122.1514" x="274.5" y="22.5332">crearPublicacion()</text></g><!--entity View--><g class="entity" data-qualified-name="crearPublicacion.View" data-source-line="5" id="ent0003"><rect fill="#629EF9" height="37.6094" rx="2.5" ry="2.5" style="stroke:#181818;stroke-width:0.5;" width="153.8408" x="481.5" y="42"/><text fill="#000000" font-family="sans-serif" font-size="14" lengthAdjust="spacing" textLength="133.8408" x="491.5" y="66.5332">crearPublicacionView</text></g><!--entity PublicacionController--><g class="entity" data-qualified-name="crearPublicacion.PublicacionController" data-source-line="6" id="ent0004"><rect fill="#B5BD68" height="37.6094" rx="2.5" ry="2.5" style="stroke:#181818;stroke-width:0.5;" width="152.2891" x="482.5" y="158"/><text fill="#000000" font-family="sans-serif" font-size="14" lengthAdjust="spacing" textLength="132.2891" x="492.5" y="182.5332">PublicacionController</text></g><!--entity PublicacionService--><g class="entity" data-qualified-name="crearPublicacion.PublicacionService" data-source-line="7" id="ent0005"><rect fill="#B5BD68" height="37.6094" rx="2.5" ry="2.5" style="stroke:#181818;stroke-width:0.5;" width="138.2822" x="407.5" y="274"/><text fill="#000000" font-family="sans-serif" font-size="14" lengthAdjust="spacing" textLength="118.2822" x="417.5" y="298.5332">PublicacionService</text></g><!--entity SesionService--><g class="entity" data-qualified-name="crearPublicacion.SesionService" data-source-line="8" id="ent0006"><rect fill="#B5BD68" height="37.6094" rx="2.5" ry="2.5" style="stroke:#181818;stroke-width:0.5;" width="109.4893" x="581" y="274"/><text fill="#000000" font-family="sans-serif" font-size="14" lengthAdjust="spacing" textLength="89.4893" x="591" y="298.5332">SesionService</text></g><!--entity PoliticaPublicacion--><g class="entity" data-qualified-name="crearPublicacion.PoliticaPublicacion" data-source-line="9" id="ent0007"><rect fill="#B5BD68" height="37.6094" rx="2.5" ry="2.5" style="stroke:#181818;stroke-width:0.5;" width="136.7305" x="287" y="408.5"/><text fill="#000000" font-family="sans-serif" font-size="14" lengthAdjust="spacing" textLength="116.7305" x="297" y="433.0332">PoliticaPublicacion</text></g><!--entity PublicacionRepository--><g class="entity" data-qualified-name="crearPublicacion.PublicacionRepository" data-source-line="10" id="ent0008"><rect fill="#F2AC4E" height="37.6094" rx="2.5" ry="2.5" style="stroke:#181818;stroke-width:0.5;" width="158.5166" x="459" y="408.5"/><text fill="#000000" font-family="sans-serif" font-size="14" lengthAdjust="spacing" textLength="138.5166" x="469" y="433.0332">PublicacionRepository</text></g><!--entity Publicacion--><g class="entity" data-qualified-name="crearPublicacion.Publicacion" data-source-line="11" id="ent0009"><rect fill="#F2AC4E" height="37.6094" rx="2.5" ry="2.5" style="stroke:#181818;stroke-width:0.5;" width="91.5996" x="492.5" y="526"/><text fill="#000000" font-family="sans-serif" font-size="14" lengthAdjust="spacing" textLength="71.5996" x="502.5" y="550.5332">Publicacion</text></g><!--entity ArchivoPublicacionRepository--><g class="entity" data-qualified-name="crearPublicacion.ArchivoPublicacionRepository" data-source-line="12" id="ent0010"><rect fill="#F2AC4E" height="37.6094" rx="2.5" ry="2.5" style="stroke:#181818;stroke-width:0.5;" width="205.1992" x="653" y="408.5"/><text fill="#000000" font-family="sans-serif" font-size="14" lengthAdjust="spacing" textLength="185.1992" x="663" y="433.0332">ArchivoPublicacionRepository</text></g><!--entity ArchivoPublicacion--><g class="entity" data-qualified-name="crearPublicacion.ArchivoPublicacion" data-source-line="13" id="ent0011"><rect fill="#F2AC4E" height="37.6094" rx="2.5" ry="2.5" style="stroke:#181818;stroke-width:0.5;" width="138.2822" x="686.5" y="526"/><text fill="#000000" font-family="sans-serif" font-size="14" lengthAdjust="spacing" textLength="118.2822" x="696.5" y="550.5332">ArchivoPublicacion</text></g><!--entity EstadoEntrada--><g class="entity" data-qualified-name="EstadoEntrada" data-source-line="3" id="ent0001"><rect fill="#CDEBA5" height="37.6094" rx="2.5" ry="2.5" style="stroke:#181818;stroke-width:0.5;" width="247.1787" x="7" y="42"/><text fill="#000000" font-family="sans-serif" font-size="14" lengthAdjust="spacing" textLength="227.1787" x="17" y="66.5332">:MIS_PUBLICACIONES_ABIERTAS</text></g><!--entity EstadoSalida--><g class="entity" data-qualified-name="EstadoSalida" data-source-line="15" id="ent0012"><rect fill="#CDEBA5" height="37.6094" rx="2.5" ry="2.5" style="stroke:#181818;stroke-width:0.5;" width="209.8271" x="969.5" y="158"/><text fill="#000000" font-family="sans-serif" font-size="14" lengthAdjust="spacing" textLength="189.8271" x="979.5" y="182.5332">:MI_PUBLICACION_ABIERTA</text></g><g class="entity" data-qualified-name="GMN23" data-source-line="29" id="ent0024"><path d="M969.5,390 L969.5,465.4063 L1197.1226,465.4063 L1197.1226,400 L1187.1226,390 L969.5,390" fill="#FEFFDD" style="stroke:#181818;stroke-width:0.5;"/><path d="M1187.1226,390 L1187.1226,400 L1197.1226,400 L1187.1226,390" fill="#FEFFDD" style="stroke:#181818;stroke-width:1;"/><text fill="#000000" font-family="sans-serif" font-size="13" lengthAdjust="spacing" textLength="134.4243" x="975.5" y="408.4951">Responsabilidad unica:</text><text fill="#000000" font-family="sans-serif" font-size="13" lengthAdjust="spacing" textLength="191.4707" x="975.5" y="424.8467">autoriza sin persistir ni presentar.</text><text fill="#000000" font-family="sans-serif" font-size="13" lengthAdjust="spacing" textLength="206.6226" x="975.5" y="441.1982">Permite ampliar reglas sin modificar</text><text fill="#000000" font-family="sans-serif" font-size="13" lengthAdjust="spacing" textLength="185.7324" x="975.5" y="457.5498">la coordinacion del caso de uso.</text></g><!--link EstadoEntrada to View--><g class="link" data-entity-1="ent0001" data-entity-2="ent0003" data-link-type="dependency" data-source-line="17" id="lnk13"><path d="M254.01,61 C327.34,61 413.06,61 476.31,61" fill="none" id="EstadoEntrada-to-View" style="stroke:#181818;stroke-width:1;"/><polygon fill="#181818" points="481.31,61,472.31,57,476.31,61,472.31,65,481.31,61" style="stroke:#181818;stroke-width:1;stroke-linejoin:miter;stroke-miterlimit:10;"/><text fill="#000000" font-family="sans-serif" font-size="13" lengthAdjust="spacing" textLength="104.7617" x="315.75" y="54.4951">crearPublicacion()</text></g><!--link View to PublicacionController--><g class="link" data-entity-1="ent0003" data-entity-2="ent0004" data-link-type="dependency" data-source-line="18" id="lnk14"><path d="M558.5,80.06 C558.5,101.28 558.5,131.3 558.5,152.64" fill="none" id="View-to-PublicacionController" style="stroke:#181818;stroke-width:1;"/><polygon fill="#181818" points="558.5,157.64,562.5,148.64,558.5,152.64,554.5,148.64,558.5,157.64" style="stroke:#181818;stroke-width:1;stroke-linejoin:miter;stroke-miterlimit:10;"/><text fill="#000000" font-family="sans-serif" font-size="13" lengthAdjust="spacing" textLength="187.8525" x="559.5" y="124.4951">crearPublicacion(solicitud, actor)</text></g><!--link PublicacionController to PublicacionService--><g class="link" data-entity-1="ent0004" data-entity-2="ent0005" data-link-type="dependency" data-source-line="19" id="lnk15"><path d="M527.88,196.15 C504.94,209.74 477.5,226 477.5,226 C477.5,226 477.1467,249.4206 476.8467,268.9706" fill="none" id="PublicacionController-to-PublicacionService" style="stroke:#181818;stroke-width:1;"/><polygon fill="#181818" points="476.77,273.97,480.9076,265.0324,476.8467,268.9706,472.9086,264.9097,476.77,273.97" style="stroke:#181818;stroke-width:1;stroke-linejoin:miter;stroke-miterlimit:10;"/><text fill="#000000" font-family="sans-serif" font-size="13" lengthAdjust="spacing" textLength="106.2026" x="478.5" y="240.4951">crear(datos, actor)</text></g><!--link PublicacionController to SesionService--><g class="link" data-entity-1="ent0004" data-entity-2="ent0006" data-link-type="dependency" data-source-line="20" id="lnk16"><path d="M571.73,196.15 C581.64,209.74 593.5,226 593.5,226 C593.5,226 608.9073,250.2006 621.3373,269.7506" fill="none" id="PublicacionController-to-SesionService" style="stroke:#181818;stroke-width:1;"/><polygon fill="#181818" points="624.02,273.97,622.5666,264.229,621.3373,269.7506,615.8156,268.5213,624.02,273.97" style="stroke:#181818;stroke-width:1;stroke-linejoin:miter;stroke-miterlimit:10;"/><text fill="#000000" font-family="sans-serif" font-size="13" lengthAdjust="spacing" textLength="209.5806" x="605.5" y="240.4951">obtenerSesionActual(authentication)</text></g><!--link PublicacionService to PoliticaPublicacion--><g class="link" data-entity-1="ent0005" data-entity-2="ent0007" data-link-type="dependency" data-source-line="21" id="lnk17"><path d="M429.22,312.01 C393.47,325.63 350.5,342 350.5,342 C350.5,342 350.5,360 350.5,360 C350.5,360 352.2752,383.6541 353.7552,403.3441" fill="none" id="PublicacionService-to-PoliticaPublicacion" style="stroke:#181818;stroke-width:1;"/><polygon fill="#181818" points="354.13,408.33,357.4442,399.0555,353.7552,403.3441,349.4667,399.6551,354.13,408.33" style="stroke:#181818;stroke-width:1;stroke-linejoin:miter;stroke-miterlimit:10;"/><text fill="#000000" font-family="sans-serif" font-size="13" lengthAdjust="spacing" textLength="113.4009" x="351.5" y="356.4951">permitirCrear(actor)</text></g><!--link PublicacionService to PublicacionRepository--><g class="link" data-entity-1="ent0005" data-entity-2="ent0008" data-link-type="dependency" data-source-line="22" id="lnk18"><path d="M475.37,312.15 C474.52,325.74 473.5,342 473.5,342 C473.5,342 473.5,360 473.5,360 C473.5,360 497.9946,385.0647 517.2446,404.7547" fill="none" id="PublicacionService-to-PublicacionRepository" style="stroke:#181818;stroke-width:1;"/><polygon fill="#181818" points="520.74,408.33,517.3086,399.0983,517.2446,404.7547,511.5881,404.6908,520.74,408.33" style="stroke:#181818;stroke-width:1;stroke-linejoin:miter;stroke-miterlimit:10;"/><text fill="#000000" font-family="sans-serif" font-size="13" lengthAdjust="spacing" textLength="118.5107" x="474.5" y="356.4951">guardar(publicacion)</text></g><!--link PublicacionRepository to Publicacion--><g class="link" data-entity-1="ent0008" data-entity-2="ent0009" data-link-type="association" data-source-line="23" id="lnk19"><path d="M538.5,446.55 C538.5,468.12 538.5,504.02 538.5,525.7" fill="none" id="PublicacionRepository-Publicacion" style="stroke:#181818;stroke-width:1;"/></g><!--link PublicacionService to ArchivoPublicacionRepository--><g class="link" data-entity-1="ent0005" data-entity-2="ent0010" data-link-type="dependency" data-source-line="24" id="lnk20"><path d="M521.9,312.01 C556.23,325.63 597.5,342 597.5,342 C597.5,342 670.7709,381.1821 717.2009,406.0121" fill="none" id="PublicacionService-to-ArchivoPublicacionRepository" style="stroke:#181818;stroke-width:1;"/><polygon fill="#181818" points="721.61,408.37,715.5599,400.5985,717.2009,406.0121,711.7873,407.653,721.61,408.37" style="stroke:#181818;stroke-width:1;stroke-linejoin:miter;stroke-miterlimit:10;"/><text fill="#000000" font-family="sans-serif" font-size="13" lengthAdjust="spacing" textLength="299.1841" x="628.5" y="356.4951">gestionarAdjuntosOpcionales(publicacion, adjuntos)</text></g><!--link ArchivoPublicacionRepository to ArchivoPublicacion--><g class="link" data-entity-1="ent0010" data-entity-2="ent0011" data-link-type="association" data-source-line="25" id="lnk21"><path d="M755.5,446.55 C755.5,468.12 755.5,504.02 755.5,525.7" fill="none" id="ArchivoPublicacionRepository-ArchivoPublicacion" style="stroke:#181818;stroke-width:1;"/></g><!--link View to EstadoSalida--><g class="link" data-entity-1="ent0003" data-entity-2="ent0012" data-link-type="dependency" data-source-line="26" id="lnk22"><path d="M635.75,79.07 C731.76,100.28 890.0077,135.2413 987.9977,156.8913" fill="none" id="View-to-EstadoSalida" style="stroke:#181818;stroke-width:1;stroke-dasharray:7,7;"/><polygon fill="#181818" points="992.88,157.97,984.9549,152.1226,987.9977,156.8913,983.229,159.9342,992.88,157.97" style="stroke:#181818;stroke-width:1;stroke-linejoin:miter;stroke-miterlimit:10;"/><text fill="#000000" font-family="sans-serif" font-size="13" lengthAdjust="spacing" textLength="130.7935" x="847.5" y="124.4951">continuarNavegacion()</text></g><!--link PoliticaPublicacion to GMN23--><g class="link" data-entity-1="ent0007" data-entity-2="ent0024" data-link-type="association" data-source-line="29" id="lnk25"><path d="M381.35,408.39 C412.01,385.73 459,351 459,351 C459,351 936,351 936,351 C936,351 973.74,370.58 1011.05,389.92" fill="none" id="PoliticaPublicacion-GMN23" style="stroke:#181818;stroke-width:1;stroke-dasharray:7,7;"/></g><?plantuml-src bPJHRzem4CRV_LUSs0j8WuTghTOyL0fPAY5jBIBRNgiZlWQlneviXubD-zzt1gec4DgDfs1_zztPlo_nJyhKw70DMXaAsvgWjdeR_mZXg0neAatmBlkKJzDB62HVPiN3_DlqyonBizdzNLuyfDDPllYQ5WD03xaFA6rkWaE9eiRo2Ik2qX6wURFKgiHIMHELW-F5uMW0lmNmhzNtwk8wlxq-5NzNz7FNC3uS5oqlb_Bg8xJacUM9hDRatjOMv3Qgf3F2WloRchdLAh1Ro_HOUNkHPX_oTji5rTQhODtsRUqPHUhAbThO_p4zBH5_pd1lOt-6tc9Ue5QCN7GI06CtljanIk2KjuWRC9OiwMNLK-FvQaiL6laUiEHpZKHl9OoxdWTU1yEXn63zFpXqO2TWbu4CkVrgMeO6zH2Ri28JQGTUx9WTwlQpd4OYWPhScbTTjXlgT9gEGH_K1Ae6dUJY-cMxO_6YPPTEXCxqUIr3t8vyF2QwLFve35_YVHqbgCctH-2hFUoFn6k6SQQU1EvYCPdST9B5x1YECdpWEznGzPmXOMmWSAfQ1R2FlU_UWdnjZSUbYaOI6iCxYM1qrgbV25wPoC8hFfm3ew1sv1agkecOxnWHuBhM2Xs_GfNcpCUIjPNgaPsSqCZ3MIULsN_U96aeqLj-WCRRYI0Z8Sxv5m00?></g></svg>