<svg xmlns="http://www.w3.org/2000/svg" xmlns:xlink="http://www.w3.org/1999/xlink" contentStyleType="text/css" data-diagram-type="DESCRIPTION" height="595px" preserveAspectRatio="none" style="width:933px;height:595px;background:#FFFFFF;" version="1.1" viewBox="0 0 933 595" width="933px" zoomAndPan="magnify"><?plantuml 1.2026.6?><defs/><g><!--cluster abrirPublicaciones--><g class="cluster" data-qualified-name="abrirPublicaciones" data-source-line="4" id="ent0002"><path d="M261,6 L396.5928,6 A3.75,3.75 0 0 1 399.0928,8.5 L406.0928,29.6094 L672,29.6094 A2.5,2.5 0 0 1 674.5,32.1094 L674.5,577.5 A2.5,2.5 0 0 1 672,580 L261,580 A2.5,2.5 0 0 1 258.5,577.5 L258.5,8.5 A2.5,2.5 0 0 1 261,6" fill="none" style="stroke:#000000;stroke-width:1.5;"/><line style="stroke:#000000;stroke-width:1.5;" x1="258.5" x2="406.0928" y1="29.6094" y2="29.6094"/><text fill="#000000" font-family="sans-serif" font-size="14" font-weight="700" lengthAdjust="spacing" textLength="134.5928" x="262.5" y="22.5332">abrirPublicaciones()</text></g><!--entity View--><g class="entity" data-qualified-name="abrirPublicaciones.View" data-source-line="5" id="ent0003"><rect fill="#629EF9" height="37.6094" rx="2.5" ry="2.5" style="stroke:#181818;stroke-width:0.5;" width="164.7373" x="379" y="42"/><text fill="#000000" font-family="sans-serif" font-size="14" lengthAdjust="spacing" textLength="144.7373" x="389" y="66.5332">abrirPublicacionesView</text></g><!--entity PublicacionController--><g class="entity" data-qualified-name="abrirPublicaciones.PublicacionController" data-source-line="6" id="ent0004"><rect fill="#B5BD68" height="37.6094" rx="2.5" ry="2.5" style="stroke:#181818;stroke-width:0.5;" width="152.2891" x="371.5" y="158"/><text fill="#000000" font-family="sans-serif" font-size="14" lengthAdjust="spacing" textLength="132.2891" x="381.5" y="182.5332">PublicacionController</text></g><!--entity PublicacionService--><g class="entity" data-qualified-name="abrirPublicaciones.PublicacionService" data-source-line="7" id="ent0005"><rect fill="#B5BD68" height="37.6094" rx="2.5" ry="2.5" style="stroke:#181818;stroke-width:0.5;" width="138.2822" x="274.5" y="274"/><text fill="#000000" font-family="sans-serif" font-size="14" lengthAdjust="spacing" textLength="118.2822" x="284.5" y="298.5332">PublicacionService</text></g><!--entity SesionService--><g class="entity" data-qualified-name="abrirPublicaciones.SesionService" data-source-line="8" id="ent0006"><rect fill="#B5BD68" height="37.6094" rx="2.5" ry="2.5" style="stroke:#181818;stroke-width:0.5;" width="109.4893" x="448" y="274"/><text fill="#000000" font-family="sans-serif" font-size="14" lengthAdjust="spacing" textLength="89.4893" x="458" y="298.5332">SesionService</text></g><!--entity PoliticaPublicacion--><g class="entity" data-qualified-name="abrirPublicaciones.PoliticaPublicacion" data-source-line="9" id="ent0007"><rect fill="#B5BD68" height="37.6094" rx="2.5" ry="2.5" style="stroke:#181818;stroke-width:0.5;" width="136.7305" x="283" y="408.5"/><text fill="#000000" font-family="sans-serif" font-size="14" lengthAdjust="spacing" textLength="116.7305" x="293" y="433.0332">PoliticaPublicacion</text></g><!--entity PublicacionRepository--><g class="entity" data-qualified-name="abrirPublicaciones.PublicacionRepository" data-source-line="10" id="ent0008"><rect fill="#F2AC4E" height="37.6094" rx="2.5" ry="2.5" style="stroke:#181818;stroke-width:0.5;" width="158.5166" x="463" y="408.5"/><text fill="#000000" font-family="sans-serif" font-size="14" lengthAdjust="spacing" textLength="138.5166" x="473" y="433.0332">PublicacionRepository</text></g><!--entity Publicacion--><g class="entity" data-qualified-name="abrirPublicaciones.Publicacion" data-source-line="11" id="ent0009"><rect fill="#F2AC4E" height="37.6094" rx="2.5" ry="2.5" style="stroke:#181818;stroke-width:0.5;" width="91.5996" x="496.5" y="526"/><text fill="#000000" font-family="sans-serif" font-size="14" lengthAdjust="spacing" textLength="71.5996" x="506.5" y="550.5332">Publicacion</text></g><!--entity EstadoEntrada--><g class="entity" data-qualified-name="EstadoEntrada" data-source-line="3" id="ent0001"><rect fill="#CDEBA5" height="37.6094" rx="2.5" ry="2.5" style="stroke:#181818;stroke-width:0.5;" width="220.7373" x="7" y="42"/><text fill="#000000" font-family="sans-serif" font-size="14" lengthAdjust="spacing" textLength="200.7373" x="17" y="66.5332">:PANEL_PRINCIPAL_ABIERTO</text></g><!--entity EstadoSalida--><g class="entity" data-qualified-name="EstadoSalida" data-source-line="14" id="ent0010"><rect fill="#CDEBA5" height="37.6094" rx="2.5" ry="2.5" style="stroke:#181818;stroke-width:0.5;" width="214.5029" x="691" y="158"/><text fill="#000000" font-family="sans-serif" font-size="14" lengthAdjust="spacing" textLength="194.5029" x="701" y="182.5332">:PUBLICACIONES_ABIERTAS</text></g><g class="entity" data-qualified-name="GMN19" data-source-line="27" id="ent0020"><path d="M690.5,390 L690.5,465.4063 L918.1226,465.4063 L918.1226,400 L908.1226,390 L690.5,390" fill="#FEFFDD" style="stroke:#181818;stroke-width:0.5;"/><path d="M908.1226,390 L908.1226,400 L918.1226,400 L908.1226,390" fill="#FEFFDD" style="stroke:#181818;stroke-width:1;"/><text fill="#000000" font-family="sans-serif" font-size="13" lengthAdjust="spacing" textLength="134.4243" x="696.5" y="408.4951">Responsabilidad unica:</text><text fill="#000000" font-family="sans-serif" font-size="13" lengthAdjust="spacing" textLength="191.4707" x="696.5" y="424.8467">autoriza sin persistir ni presentar.</text><text fill="#000000" font-family="sans-serif" font-size="13" lengthAdjust="spacing" textLength="206.6226" x="696.5" y="441.1982">Permite ampliar reglas sin modificar</text><text fill="#000000" font-family="sans-serif" font-size="13" lengthAdjust="spacing" textLength="185.7324" x="696.5" y="457.5498">la coordinacion del caso de uso.</text></g><!--link EstadoEntrada to View--><g class="link" data-entity-1="ent0001" data-entity-2="ent0003" data-link-type="dependency" data-source-line="16" id="lnk11"><path d="M228.24,61 C277.14,61 328.65,61 373.8,61" fill="none" id="EstadoEntrada-to-View" style="stroke:#181818;stroke-width:1;"/><polygon fill="#181818" points="378.8,61,369.8,57,373.8,61,369.8,65,378.8,61" style="stroke:#181818;stroke-width:1;stroke-linejoin:miter;stroke-miterlimit:10;"/><text fill="#000000" font-family="sans-serif" font-size="13" lengthAdjust="spacing" textLength="114.8799" x="246.5" y="54.4951">abrirPublicaciones()</text></g><!--link View to PublicacionController--><g class="link" data-entity-1="ent0003" data-entity-2="ent0004" data-link-type="dependency" data-source-line="17" id="lnk12"><path d="M459.28,80.06 C456.68,101.28 452.9916,131.3375 450.3616,152.6775" fill="none" id="View-to-PublicacionController" style="stroke:#181818;stroke-width:1;"/><polygon fill="#181818" points="449.75,157.64,454.8208,149.1968,450.3616,152.6775,446.8809,148.2183,449.75,157.64" style="stroke:#181818;stroke-width:1;stroke-linejoin:miter;stroke-miterlimit:10;"/><text fill="#000000" font-family="sans-serif" font-size="13" lengthAdjust="spacing" textLength="197.9707" x="455.5" y="124.4951">abrirPublicaciones(solicitud, actor)</text></g><!--link PublicacionController to PublicacionService--><g class="link" data-entity-1="ent0004" data-entity-2="ent0005" data-link-type="dependency" data-source-line="18" id="lnk13"><path d="M416.5,196.15 C393.28,209.74 365.5,226 365.5,226 C365.5,226 357.6119,249.6768 351.0919,269.2268" fill="none" id="PublicacionController-to-PublicacionService" style="stroke:#181818;stroke-width:1;"/><polygon fill="#181818" points="349.51,273.97,356.1519,266.6978,351.0919,269.2268,348.5628,264.1668,349.51,273.97" style="stroke:#181818;stroke-width:1;stroke-linejoin:miter;stroke-miterlimit:10;"/><text fill="#000000" font-family="sans-serif" font-size="13" lengthAdjust="spacing" textLength="96.7891" x="366.5" y="240.4951">listar(filtro, actor)</text></g><!--link PublicacionController to SesionService--><g class="link" data-entity-1="ent0004" data-entity-2="ent0006" data-link-type="dependency" data-source-line="19" id="lnk14"><path d="M456.21,196.06 C466.45,217.28 481.1666,247.7971 491.4666,269.1371" fill="none" id="PublicacionController-to-SesionService" style="stroke:#181818;stroke-width:1;"/><polygon fill="#181818" points="493.64,273.64,493.3302,263.796,491.4666,269.1371,486.1256,267.2734,493.64,273.64" style="stroke:#181818;stroke-width:1;stroke-linejoin:miter;stroke-miterlimit:10;"/><text fill="#000000" font-family="sans-serif" font-size="13" lengthAdjust="spacing" textLength="209.5806" x="478.5" y="240.4951">obtenerSesionActual(authentication)</text></g><!--link PublicacionService to PoliticaPublicacion--><g class="link" data-entity-1="ent0005" data-entity-2="ent0007" data-link-type="dependency" data-source-line="20" id="lnk15"><path d="M337.83,312.15 C333.58,325.74 328.5,342 328.5,342 C328.5,342 328.5,360 328.5,360 C328.5,360 336.7757,383.9146 343.5857,403.6046" fill="none" id="PublicacionService-to-PoliticaPublicacion" style="stroke:#181818;stroke-width:1;"/><polygon fill="#181818" points="345.22,408.33,346.0585,398.5169,343.5857,403.6046,338.4979,401.1318,345.22,408.33" style="stroke:#181818;stroke-width:1;stroke-linejoin:miter;stroke-miterlimit:10;"/><text fill="#000000" font-family="sans-serif" font-size="13" lengthAdjust="spacing" textLength="169.7808" x="329.5" y="356.4951">permitirConsultaGlobal(actor)</text></g><!--link PublicacionService to PublicacionRepository--><g class="link" data-entity-1="ent0005" data-entity-2="ent0008" data-link-type="dependency" data-source-line="21" id="lnk16"><path d="M403.53,312.01 C448.93,325.63 503.5,342 503.5,342 C503.5,342 520.4746,378.7703 531.9446,403.6203" fill="none" id="PublicacionService-to-PublicacionRepository" style="stroke:#181818;stroke-width:1;"/><polygon fill="#181818" points="534.04,408.16,533.9001,398.3121,531.9446,403.6203,526.6365,401.6648,534.04,408.16" style="stroke:#181818;stroke-width:1;stroke-linejoin:miter;stroke-miterlimit:10;"/><text fill="#000000" font-family="sans-serif" font-size="13" lengthAdjust="spacing" textLength="114.1372" x="511.5" y="356.4951">buscarActivas(filtro)</text></g><!--link PublicacionRepository to Publicacion--><g class="link" data-entity-1="ent0008" data-entity-2="ent0009" data-link-type="association" data-source-line="22" id="lnk17"><path d="M542.5,446.55 C542.5,468.12 542.5,504.02 542.5,525.7" fill="none" id="PublicacionRepository-Publicacion" style="stroke:#181818;stroke-width:1;"/></g><!--link View to EstadoSalida--><g class="link" data-entity-1="ent0003" data-entity-2="ent0010" data-link-type="dependency" data-source-line="24" id="lnk18"><path d="M536.54,80.01 C593.29,93.63 661.5,110 661.5,110 C661.5,110 715.9959,136.249 756.5559,155.799" fill="none" id="View-to-EstadoSalida" style="stroke:#181818;stroke-width:1;stroke-dasharray:7,7;"/><polygon fill="#181818" points="761.06,157.97,754.6894,150.459,756.5559,155.799,751.2159,157.6655,761.06,157.97" style="stroke:#181818;stroke-width:1;stroke-linejoin:miter;stroke-miterlimit:10;"/><text fill="#000000" font-family="sans-serif" font-size="13" lengthAdjust="spacing" textLength="130.7935" x="698.5" y="124.4951">continuarNavegacion()</text></g><!--link PoliticaPublicacion to GMN19--><g class="link" data-entity-1="ent0007" data-entity-2="ent0020" data-link-type="association" data-source-line="27" id="lnk21"><path d="M379.35,408.39 C412.37,385.73 463,351 463,351 C463,351 657,351 657,351 C657,351 694.74,370.58 732.05,389.92" fill="none" id="PoliticaPublicacion-GMN19" style="stroke:#181818;stroke-width:1;stroke-dasharray:7,7;"/></g><?plantuml-src ZLF1Rjim3BthAuZiaW9B3iLQh3uKS3nt212aHjBjMj2oaX9L98EICsJ3_dsq6s1nuo7pIQOU7ydtgF1AhaR67LXo9Xvg0xMtX_P7AJOwejjQ0n-oB_ailO5HKgJBVF5ShERBR5waY-TqDizNJuyZm01vY5Zvt4N62bMD-XMt1h1aug8fBMdKv9q9BNPq7XvVZU2N0lbE2jzUt-KFTqFmxsH-T6NRm_kqygQiRZ_3IKBcfIzlhU7BsBNXFMdp3-3QX8kOmbkAmdP2-XxvS9rcd_BJiYjJ-q3Hy-4oLgdVm_vycotcMPhD7vVv-kXEkZwnPusMn1tLCmicFBdlX4nWo1ZLNi6a4j2Wf8DPGJJG59lg8w2MgQxKO2vC-gn7OHFPI6cHnnkoWlmFZful2VWo6cVuBPhgsA0TOnDVZ6kDYHBiaHtpthevTo-1sl1EeYnLGsCZVhM-R2dFsken3RcRGDa4ZInDqHx3SS8Unr-mqFHzxwoOJkzxVYQWHGno3V8IzsRROSKtvNmqmBHzYU0tWskvCg6MaR2abgY2nibDeaGgp_GJ8P1hPm_Y1Z4uWffD416HfwheD94tlgij8SlARgriMfkoynLjX8cLHMdESqMkAmYLiQ0nU3b04_nK6LT1s-SV?></g></svg>