<svg xmlns="http://www.w3.org/2000/svg" xmlns:xlink="http://www.w3.org/1999/xlink" contentStyleType="text/css" data-diagram-type="DESCRIPTION" height="479px" preserveAspectRatio="none" style="width:916px;height:479px;background:#FFFFFF;" version="1.1" viewBox="0 0 916 479" width="916px" zoomAndPan="magnify"><?plantuml 1.2026.6?><defs/><g><!--cluster abrirPublicaciones--><g class="cluster" data-qualified-name="abrirPublicaciones" data-source-line="4" id="ent0002"><path d="M266,6 L401.5928,6 A3.75,3.75 0 0 1 404.0928,8.5 L411.0928,29.6094 L655,29.6094 A2.5,2.5 0 0 1 657.5,32.1094 L657.5,461.5 A2.5,2.5 0 0 1 655,464 L266,464 A2.5,2.5 0 0 1 263.5,461.5 L263.5,8.5 A2.5,2.5 0 0 1 266,6" fill="none" style="stroke:#000000;stroke-width:1.5;"/><line style="stroke:#000000;stroke-width:1.5;" x1="263.5" x2="411.0928" y1="29.6094" y2="29.6094"/><text fill="#000000" font-family="sans-serif" font-size="14" font-weight="700" lengthAdjust="spacing" textLength="134.5928" x="267.5" y="22.5332">abrirPublicaciones()</text></g><!--entity View--><g class="entity" data-qualified-name="abrirPublicaciones.View" data-source-line="5" id="ent0003"><rect fill="#629EF9" height="37.6094" rx="2.5" ry="2.5" style="stroke:#181818;stroke-width:0.5;" width="164.7373" x="379" y="42"/><text fill="#000000" font-family="sans-serif" font-size="14" lengthAdjust="spacing" textLength="144.7373" x="389" y="66.5332">abrirPublicacionesView</text></g><!--entity PublicacionController--><g class="entity" data-qualified-name="abrirPublicaciones.PublicacionController" data-source-line="6" id="ent0004"><rect fill="#B5BD68" height="37.6094" rx="2.5" ry="2.5" style="stroke:#181818;stroke-width:0.5;" width="152.2891" x="366.5" y="158"/><text fill="#000000" font-family="sans-serif" font-size="14" lengthAdjust="spacing" textLength="132.2891" x="376.5" y="182.5332">PublicacionController</text></g><!--entity PoliticaPublicacion--><g class="entity" data-qualified-name="abrirPublicaciones.PoliticaPublicacion" data-source-line="7" id="ent0005"><rect fill="#B5BD68" height="37.6094" rx="2.5" ry="2.5" style="stroke:#181818;stroke-width:0.5;" width="136.7305" x="280" y="292.5"/><text fill="#000000" font-family="sans-serif" font-size="14" lengthAdjust="spacing" textLength="116.7305" x="290" y="317.0332">PoliticaPublicacion</text></g><!--entity PublicacionRepository--><g class="entity" data-qualified-name="abrirPublicaciones.PublicacionRepository" data-source-line="8" id="ent0006"><rect fill="#F2AC4E" height="37.6094" rx="2.5" ry="2.5" style="stroke:#181818;stroke-width:0.5;" width="158.5166" x="452" y="292.5"/><text fill="#000000" font-family="sans-serif" font-size="14" lengthAdjust="spacing" textLength="138.5166" x="462" y="317.0332">PublicacionRepository</text></g><!--entity Publicacion--><g class="entity" data-qualified-name="abrirPublicaciones.Publicacion" data-source-line="9" id="ent0007"><rect fill="#F2AC4E" height="37.6094" rx="2.5" ry="2.5" style="stroke:#181818;stroke-width:0.5;" width="91.5996" x="485.5" y="410"/><text fill="#000000" font-family="sans-serif" font-size="14" lengthAdjust="spacing" textLength="71.5996" x="495.5" y="434.5332">Publicacion</text></g><!--entity EstadoEntrada--><g class="entity" data-qualified-name="EstadoEntrada" data-source-line="3" id="ent0001"><rect fill="#CDEBA5" height="37.6094" rx="2.5" ry="2.5" style="stroke:#181818;stroke-width:0.5;" width="220.7373" x="7" y="42"/><text fill="#000000" font-family="sans-serif" font-size="14" lengthAdjust="spacing" textLength="200.7373" x="17" y="66.5332">:PANEL_PRINCIPAL_ABIERTO</text></g><!--entity EstadoSalida--><g class="entity" data-qualified-name="EstadoSalida" data-source-line="12" id="ent0008"><rect fill="#CDEBA5" height="37.6094" rx="2.5" ry="2.5" style="stroke:#181818;stroke-width:0.5;" width="214.5029" x="674" y="158"/><text fill="#000000" font-family="sans-serif" font-size="14" lengthAdjust="spacing" textLength="194.5029" x="684" y="182.5332">:PUBLICACIONES_ABIERTAS</text></g><g class="entity" data-qualified-name="GMN15" data-source-line="24" id="ent0016"><path d="M673.5,274 L673.5,349.4063 L901.1226,349.4063 L901.1226,284 L891.1226,274 L673.5,274" fill="#FEFFDD" style="stroke:#181818;stroke-width:0.5;"/><path d="M891.1226,274 L891.1226,284 L901.1226,284 L891.1226,274" fill="#FEFFDD" style="stroke:#181818;stroke-width:1;"/><text fill="#000000" font-family="sans-serif" font-size="13" lengthAdjust="spacing" textLength="134.4243" x="679.5" y="292.4951">Responsabilidad unica:</text><text fill="#000000" font-family="sans-serif" font-size="13" lengthAdjust="spacing" textLength="191.4707" x="679.5" y="308.8467">autoriza sin persistir ni presentar.</text><text fill="#000000" font-family="sans-serif" font-size="13" lengthAdjust="spacing" textLength="206.6226" x="679.5" y="325.1982">Permite ampliar reglas sin modificar</text><text fill="#000000" font-family="sans-serif" font-size="13" lengthAdjust="spacing" textLength="185.7324" x="679.5" y="341.5498">la coordinacion del caso de uso.</text></g><!--link EstadoEntrada to View--><g class="link" data-entity-1="ent0001" data-entity-2="ent0003" data-link-type="dependency" data-source-line="14" id="lnk9"><path d="M228.24,61 C277.14,61 328.65,61 373.8,61" fill="none" id="EstadoEntrada-to-View" style="stroke:#181818;stroke-width:1;"/><polygon fill="#181818" points="378.8,61,369.8,57,373.8,61,369.8,65,378.8,61" style="stroke:#181818;stroke-width:1;stroke-linejoin:miter;stroke-miterlimit:10;"/><text fill="#000000" font-family="sans-serif" font-size="13" lengthAdjust="spacing" textLength="114.8799" x="246.5" y="54.4951">abrirPublicaciones()</text></g><!--link View to PublicacionController--><g class="link" data-entity-1="ent0003" data-entity-2="ent0004" data-link-type="dependency" data-source-line="15" id="lnk10"><path d="M458.49,80.06 C454.95,101.28 449.9427,131.3682 446.3827,152.7082" fill="none" id="View-to-PublicacionController" style="stroke:#181818;stroke-width:1;"/><polygon fill="#181818" points="445.56,157.64,450.9864,149.4209,446.3827,152.7082,443.0955,148.1045,445.56,157.64" style="stroke:#181818;stroke-width:1;stroke-linejoin:miter;stroke-miterlimit:10;"/><text fill="#000000" font-family="sans-serif" font-size="13" lengthAdjust="spacing" textLength="197.9707" x="453.5" y="124.4951">abrirPublicaciones(solicitud, actor)</text></g><!--link PublicacionController to PoliticaPublicacion--><g class="link" data-entity-1="ent0004" data-entity-2="ent0005" data-link-type="dependency" data-source-line="17" id="lnk11"><path d="M391.85,196.01 C353.54,209.63 307.5,226 307.5,226 C307.5,226 307.5,244 307.5,244 C307.5,244 322.5359,268.3839 334.6759,288.0739" fill="none" id="PublicacionController-to-PoliticaPublicacion" style="stroke:#181818;stroke-width:1;"/><polygon fill="#181818" points="337.3,292.33,335.9815,282.5698,334.6759,288.0739,329.1718,286.7684,337.3,292.33" style="stroke:#181818;stroke-width:1;stroke-linejoin:miter;stroke-miterlimit:10;"/><text fill="#000000" font-family="sans-serif" font-size="13" lengthAdjust="spacing" textLength="169.7808" x="308.5" y="240.4951">permitirConsultaGlobal(actor)</text></g><!--link PublicacionController to PublicacionRepository--><g class="link" data-entity-1="ent0004" data-entity-2="ent0006" data-link-type="dependency" data-source-line="18" id="lnk12"><path d="M459.13,196.15 C471.59,209.74 486.5,226 486.5,226 C486.5,226 506.1489,262.8973 519.3889,287.7473" fill="none" id="PublicacionController-to-PublicacionRepository" style="stroke:#181818;stroke-width:1;"/><polygon fill="#181818" points="521.74,292.16,521.0382,282.3362,519.3889,287.7473,513.9778,286.0979,521.74,292.16" style="stroke:#181818;stroke-width:1;stroke-linejoin:miter;stroke-miterlimit:10;"/><text fill="#000000" font-family="sans-serif" font-size="13" lengthAdjust="spacing" textLength="114.1372" x="495.5" y="240.4951">buscarActivas(filtro)</text></g><!--link PublicacionRepository to Publicacion--><g class="link" data-entity-1="ent0006" data-entity-2="ent0007" data-link-type="association" data-source-line="19" id="lnk13"><path d="M531.5,330.55 C531.5,352.12 531.5,388.02 531.5,409.7" fill="none" id="PublicacionRepository-Publicacion" style="stroke:#181818;stroke-width:1;"/></g><!--link View to EstadoSalida--><g class="link" data-entity-1="ent0003" data-entity-2="ent0008" data-link-type="dependency" data-source-line="21" id="lnk14"><path d="M535.79,80.01 C591.97,93.63 659.5,110 659.5,110 C659.5,110 707.6428,136.04 743.7628,155.59" fill="none" id="View-to-EstadoSalida" style="stroke:#181818;stroke-width:1;stroke-dasharray:7,7;"/><polygon fill="#181818" points="748.16,157.97,742.149,150.1682,743.7628,155.59,738.341,157.2038,748.16,157.97" style="stroke:#181818;stroke-width:1;stroke-linejoin:miter;stroke-miterlimit:10;"/><text fill="#000000" font-family="sans-serif" font-size="13" lengthAdjust="spacing" textLength="130.7935" x="692.5" y="124.4951">continuarNavegacion()</text></g><!--link PoliticaPublicacion to GMN15--><g class="link" data-entity-1="ent0005" data-entity-2="ent0016" data-link-type="association" data-source-line="24" id="lnk17"><path d="M374.35,292.39 C405.01,269.73 452,235 452,235 C452,235 640,235 640,235 C640,235 677.74,254.58 715.05,273.92" fill="none" id="PoliticaPublicacion-GMN15" style="stroke:#181818;stroke-width:1;stroke-dasharray:7,7;"/></g><?plantuml-src XPFHQzim4CRVzLSSsKiAJHxAMbO_51pF7OQGcgJRQpbBYdTKaOmaTsHZ_tjF9Z2dzJO_oTBtVNVtinoUoNReyG26h8x7JaFdp36z2E6rZ6XRe-53yRbSvTSmo-fyKwwVwcsrAQewNp_bgwhSFZxC00EK8Q9ofOqU5OeEvJEs6h3nvEk-CIHHahCw9Eti_VRyOWQ_1F0pAdnpTLlUtqx9lv7-CPHDYxUsvhfHDvzWP2WSz-MCqVvlMcSeidZaUQkylygBZ-KuTQix5oWwV_o_LeZVqqY_hjPLaHVLmwRSdO3ckn7H7HfYeEACBopyucwOFOCfbY8TmKAnQ9B2f2im0qcnLvU0agUw46BI38iK-nvO1fts1zxrh0szYVZ5k0RD_9JsZx0ffXaqVP3eSndf1SDyJuOzPp5_n1npJdi0i5pUdL7CG79XiZtw3RxeTj0oBM5TrE2f_Hx1xISlmrQ7ZgV2XbAGWjxoIIQmv-hq4o6GJUC72Zm_M8BEww1jHByKzO25VuP3PmWzNvJMyFTDbeDJjESaBmnoSyuhiaD1KDg0nE1u0NrmIw6jWjJdAm00?></g></svg>