<svg xmlns="http://www.w3.org/2000/svg" xmlns:xlink="http://www.w3.org/1999/xlink" contentStyleType="text/css" data-diagram-type="STATE" height="821px" preserveAspectRatio="none" style="width:648px;height:821px;background:#FFFFFF;" version="1.1" viewBox="0 0 648 821" width="648px" zoomAndPan="magnify"><?plantuml 1.2026.3?><defs/><g><g class="entity" data-qualified-name="in1" id="ent0002"><rect fill="#F1F1F1" height="50" rx="12.5" ry="12.5" style="stroke:#181818;stroke-width:0.5;" width="167.8066" x="227" y="7"/><line style="stroke:#181818;stroke-width:0.5;" x1="227" x2="394.8066" y1="34.6094" y2="34.6094"/><text fill="#000000" font-family="sans-serif" font-size="14" lengthAdjust="spacing" textLength="147.8066" x="237" y="26.5332">PROYECTO_ABIERTO</text></g><path d="M102.5,153 L519.5,153 A12.5,12.5 0 0 1 532,165.5 L532,180.6094 L90,180.6094 L90,165.5 A12.5,12.5 0 0 1 102.5,153" fill="#F1F1F1"/><rect fill="none" height="507.6094" rx="12.5" ry="12.5" style="stroke:#181818;stroke-width:0.5;" width="442" x="90" y="153"/><line style="stroke:#181818;stroke-width:0.5;" x1="90" x2="532" y1="180.6094" y2="180.6094"/><text fill="#000000" font-family="sans-serif" font-size="14" lengthAdjust="spacing" textLength="133.8477" x="244.0762" y="172.5332">agregarInvestigador()</text><g class="entity" data-qualified-name="agregarInvestigador.SolicitandoDatos" id="ent0004"><rect fill="#F1F1F1" height="50" rx="12.5" ry="12.5" style="stroke:#181818;stroke-width:0.5;" width="50" x="102" y="283.6094"/><line style="stroke:#181818;stroke-width:0.5;" x1="102" x2="152" y1="311.2188" y2="311.2188"/><text fill="#000000" font-family="sans-serif" font-size="14" lengthAdjust="spacing" textLength="3.8896" x="125.0552" y="303.1426">&#160;</text></g><g class="entity" data-qualified-name="agregarInvestigador.CreandoInvestigador" id="ent0005"><rect fill="#F1F1F1" height="50" rx="12.5" ry="12.5" style="stroke:#181818;stroke-width:0.5;" width="50" x="102" y="487.6094"/><line style="stroke:#181818;stroke-width:0.5;" x1="102" x2="152" y1="515.2188" y2="515.2188"/><text fill="#000000" font-family="sans-serif" font-size="14" lengthAdjust="spacing" textLength="3.8896" x="125.0552" y="507.1426">&#160;</text></g><g class="start_entity" data-qualified-name="agregarInvestigador..start.agregarInvestigador" data-source-line="15" id="ent0003"><ellipse cx="127" cy="201.6094" fill="#222222" rx="10" ry="10" style="stroke:#222222;stroke-width:1;"/></g><g class="end_entity" data-qualified-name="agregarInvestigador..end.agregarInvestigador" data-source-line="30" id="ent0006"><ellipse cx="127" cy="636.6094" fill="none" rx="11" ry="11" style="stroke:#222222;stroke-width:1;"/><ellipse cx="127" cy="636.6094" fill="#222222" rx="6" ry="6" style="stroke:#222222;stroke-width:1;"/></g><!--link *start*agregarInvestigador to SolicitandoDatos--><g class="link" data-entity-1="ent0003" data-entity-2="ent0004" data-link-type="dependency" data-source-line="15" id="lnk4"><path d="M127,211.9294 C127,227.7894 127,254.5194 127,277.2494" fill="none" id="*start*agregarInvestigador-to-SolicitandoDatos" style="stroke:#008000;stroke-width:1;"/><polygon fill="#008000" points="127,283.2494,131,274.2494,127,278.2494,123,274.2494,127,283.2494" style="stroke:#008000;stroke-width:1;"/><path d="M132,234.6094 L132,260.6094 L496,260.6094 L496,244.6094 L486,234.6094 L132,234.6094" fill="#FEFFDD" style="stroke:#181818;stroke-width:0.5;"/><path d="M486,234.6094 L486,244.6094 L496,244.6094 L486,234.6094" fill="#FEFFDD" style="stroke:#181818;stroke-width:0.5;"/><text fill="#000000" font-family="sans-serif" font-size="13" font-weight="700" lengthAdjust="spacing" textLength="77.9937" x="138" y="253.1045">Coordinador</text><text fill="#000000" font-family="sans-serif" font-size="13" lengthAdjust="spacing" textLength="262.3232" x="219.6055" y="253.1045">solicita agregar un investigador a un proyecto</text></g><!--link SolicitandoDatos to CreandoInvestigador--><g class="link" data-entity-1="ent0004" data-entity-2="ent0005" data-link-type="dependency" data-source-line="20" id="lnk5"><path d="M127,333.9794 C127,372.9094 127,442.6894 127,481.4694" fill="none" id="SolicitandoDatos-to-CreandoInvestigador" style="stroke:#008000;stroke-width:1;"/><polygon fill="#008000" points="127,487.4694,131,478.4694,127,482.4694,123,478.4694,127,487.4694" style="stroke:#008000;stroke-width:1;"/><path d="M132,356.6094 L132,464.6094 L508,464.6094 L508,366.6094 L498,356.6094 L132,356.6094" fill="#FEFFDD" style="stroke:#181818;stroke-width:0.5;"/><path d="M498,356.6094 L498,366.6094 L508,366.6094 L498,356.6094" fill="#FEFFDD" style="stroke:#181818;stroke-width:0.5;"/><text fill="#000000" font-family="sans-serif" font-size="13" font-weight="700" lengthAdjust="spacing" textLength="49.8608" x="138" y="375.1045">Sistema</text><text fill="#000000" font-family="sans-serif" font-size="13" lengthAdjust="spacing" textLength="302.0532" x="191.4727" y="375.1045">presenta solicitud de datos m&#237;nimos del investigador</text><text fill="#000000" font-family="sans-serif" font-size="13" lengthAdjust="spacing" textLength="188.8174" x="138" y="391.4561">&#8226; ID del investigador (obligatorio)</text><text fill="#000000" font-family="sans-serif" font-size="13" lengthAdjust="spacing" textLength="222.0537" x="138" y="407.8076">&#8226; Nombre del investigador (obligatorio)</text><text fill="#000000" font-family="sans-serif" font-size="13" lengthAdjust="spacing" textLength="217.7246" x="138" y="424.1592">&#8226; Campo del investigador (obligatorio)</text><text fill="#000000" font-family="sans-serif" font-size="13" lengthAdjust="spacing" textLength="223.4883" x="138" y="440.5107">&#8226; Permite solicitar agregar investigador</text><text fill="#000000" font-family="sans-serif" font-size="13" lengthAdjust="spacing" textLength="235.7773" x="138" y="456.8623">&#8226; Permite solicitar cancelar la agregacion</text></g><!--link CreandoInvestigador to *end*agregarInvestigador--><g class="link" data-entity-1="ent0005" data-entity-2="ent0006" data-link-type="dependency" data-source-line="30" id="lnk7"><path d="M127,537.7094 C127,564.3794 127,600.1094 127,619.3094" fill="none" id="CreandoInvestigador-to-*end*agregarInvestigador" style="stroke:#008000;stroke-width:1;"/><polygon fill="#008000" points="127,625.3094,131,616.3094,127,620.3094,123,616.3094,127,625.3094" style="stroke:#008000;stroke-width:1;"/><path d="M132,560.6094 L132,602.6094 L391,602.6094 L391,570.6094 L381,560.6094 L132,560.6094" fill="#FEFFDD" style="stroke:#181818;stroke-width:0.5;"/><path d="M381,560.6094 L381,570.6094 L391,570.6094 L381,560.6094" fill="#FEFFDD" style="stroke:#181818;stroke-width:0.5;"/><text fill="#000000" font-family="sans-serif" font-size="13" font-weight="700" lengthAdjust="spacing" textLength="77.9937" x="138" y="579.1045">Coordinador</text><text fill="#000000" font-family="sans-serif" font-size="13" lengthAdjust="spacing" textLength="156.7998" x="219.6055" y="579.1045">proporciona datos m&#237;nimos</text><text fill="#000000" font-family="sans-serif" font-size="13" font-weight="700" lengthAdjust="spacing" textLength="49.8608" x="138" y="595.4561">Sistema</text><text fill="#000000" font-family="sans-serif" font-size="13" lengthAdjust="spacing" textLength="114.188" x="191.4727" y="595.4561">agrega investigador</text></g><g class="entity" data-qualified-name="PROYECTO_ABIERTO" id="ent0008"><rect fill="#F1F1F1" height="50" rx="12.5" ry="12.5" style="stroke:#181818;stroke-width:0.5;" width="167.8066" x="7" y="757"/><line style="stroke:#181818;stroke-width:0.5;" x1="7" x2="174.8066" y1="784.6094" y2="784.6094"/><text fill="#000000" font-family="sans-serif" font-size="14" lengthAdjust="spacing" textLength="147.8066" x="17" y="776.5332">PROYECTO_ABIERTO</text></g><g class="entity" data-qualified-name="ENTREGABLES_ABIERTOS" id="ent0010"><rect fill="#F1F1F1" height="50" rx="12.5" ry="12.5" style="stroke:#181818;stroke-width:0.5;" width="202.0547" x="210" y="757"/><line style="stroke:#181818;stroke-width:0.5;" x1="210" x2="412.0547" y1="784.6094" y2="784.6094"/><text fill="#000000" font-family="sans-serif" font-size="14" lengthAdjust="spacing" textLength="182.0547" x="220" y="776.5332">ENTREGABLES_ABIERTOS</text></g><g class="entity" data-qualified-name="PROYECTOS_ABIERTOS" id="ent0012"><rect fill="#F1F1F1" height="50" rx="12.5" ry="12.5" style="stroke:#181818;stroke-width:0.5;" width="186.4824" x="447" y="757"/><line style="stroke:#181818;stroke-width:0.5;" x1="447" x2="633.4824" y1="784.6094" y2="784.6094"/><text fill="#000000" font-family="sans-serif" font-size="14" lengthAdjust="spacing" textLength="166.4824" x="457" y="776.5332">PROYECTOS_ABIERTOS</text></g><!--link in1 to agregarInvestigador--><g class="link" data-entity-1="ent0002" data-entity-2="ent0003" data-link-type="dependency" data-source-line="5" id="lnk2"><path d="M311,57.19 C311,78.98 311,107.53 311,146.6" fill="none" id="in1-to-agregarInvestigador" style="stroke:#008000;stroke-width:1;"/><polygon fill="#008000" points="311,152.6,315,143.6,311,147.6,307,143.6,311,152.6" style="stroke:#008000;stroke-width:1;"/><path d="M316,92 L316,118 L461,118 L461,102 L451,92 L316,92" fill="#FEFFDD" style="stroke:#181818;stroke-width:0.5;"/><path d="M451,92 L451,102 L461,102 L451,92" fill="#FEFFDD" style="stroke:#181818;stroke-width:0.5;"/><text fill="#000000" font-family="sans-serif" font-size="13" lengthAdjust="spacing" textLength="124.2871" x="322" y="110.4951">agregarInvestigador()</text></g><!--link agregarInvestigador to PROYECTO_ABIERTO--><g class="link" data-entity-1="ent0003" data-entity-2="ent0008" data-link-type="dependency" data-source-line="38" id="lnk9"><path d="M160.66,661.25 C149.8,679.55 143,691 143,691 C143,691 123.3411,725.0245 107.9411,751.6845" fill="none" id="agregarInvestigador-to-PROYECTO_ABIERTO" style="stroke:#008000;stroke-width:1;"/><polygon fill="#008000" points="104.94,756.88,112.9054,751.0875,107.441,752.5504,105.9781,747.086,104.94,756.88" style="stroke:#008000;stroke-width:1;"/><path d="M148,696 L148,722 L298,722 L298,706 L288,696 L148,696" fill="#FEFFDD" style="stroke:#181818;stroke-width:0.5;"/><path d="M288,696 L288,706 L298,706 L288,696" fill="#FEFFDD" style="stroke:#181818;stroke-width:0.5;"/><text fill="#000000" font-family="sans-serif" font-size="13" lengthAdjust="spacing" textLength="129.3716" x="154" y="714.4951">Investigador agregado</text></g><!--link agregarInvestigador to ENTREGABLES_ABIERTOS--><g class="link" data-entity-1="ent0003" data-entity-2="ent0010" data-link-type="dependency" data-source-line="43" id="lnk11"><path d="M311,661.18 C311,700.35 311,729 311,750.83" fill="none" id="agregarInvestigador-to-ENTREGABLES_ABIERTOS" style="stroke:#008000;stroke-width:1;"/><polygon fill="#008000" points="311,756.83,315,747.83,311,751.83,307,747.83,311,756.83" style="stroke:#008000;stroke-width:1;"/><path d="M316,696 L316,722 L441,722 L441,706 L431,696 L316,696" fill="#FEFFDD" style="stroke:#181818;stroke-width:0.5;"/><path d="M431,696 L431,706 L441,706 L431,696" fill="#FEFFDD" style="stroke:#181818;stroke-width:0.5;"/><text fill="#000000" font-family="sans-serif" font-size="13" lengthAdjust="spacing" textLength="104.0444" x="322" y="714.4951">abrirEntregables()</text></g><!--link agregarInvestigador to PROYECTOS_ABIERTOS--><g class="link" data-entity-1="ent0003" data-entity-2="ent0012" data-link-type="dependency" data-source-line="48" id="lnk13"><path d="M466.44,661.18 C490.49,700.35 508.6212,729.8865 522.0212,751.7165" fill="none" id="agregarInvestigador-to-PROYECTOS_ABIERTOS" style="stroke:#008000;stroke-width:1;"/><polygon fill="#008000" points="525.16,756.83,523.8607,747.0672,522.5443,752.5688,517.0428,751.2523,525.16,756.83" style="stroke:#008000;stroke-width:1;"/><path d="M511,696 L511,722 L624,722 L624,706 L614,696 L511,696" fill="#FEFFDD" style="stroke:#181818;stroke-width:0.5;"/><path d="M614,696 L614,706 L624,706 L614,696" fill="#FEFFDD" style="stroke:#181818;stroke-width:0.5;"/><text fill="#000000" font-family="sans-serif" font-size="13" lengthAdjust="spacing" textLength="92.4663" x="517" y="714.4951">abrirProyectos()</text></g><?plantuml-src ZLFHQi8m57tFLmJteWCPUnT1Qnd2KB6-396HDXS9jhabYGCPWttBtlSL-vDzoPBETgRjjhPGRfDpJywzDqSVXCoPOXbDXGHpoe7cc9xS3o7QC0DKo5lADEsjrik7CDWi7oVJURZUB7l4xGotLti587V3CMKssZCrbq-WZTWpZef8j1Ge7Vs1j03w0mAIKmSh3sn15G9QitlqcH1gd-_SddqjDi9K9C8moN763Eec8b3WTZsj1MfxlVEAgbFH0kMLvHP6yJX0L5n8HpMwYSTKdpFBWkXHscPU5kLMSeKdI0mMB6KhN4ogJqF2fRwsGdvJ60bj86E5kbo11cdLdMKUEUL0US6VVRnBaTc0G-f9BeW-Nz_eVDROetsCKniQL0875NA1MQoWApfWMOvTmIjGcR1LberMLQTRDJVX2PC9f3P8oo4b0gKtYPyfj3JQ6uIzE9slXXrwZieTncejRnlLjxHcKPN65qBQlEN9gzlNTwPljeAAuuKp_sCF5vjrU3UPteTHUK1KytwiX0gbSJnn2jepVbVnVvAlpaxogSaN?></g></svg>