<svg xmlns="http://www.w3.org/2000/svg" xmlns:xlink="http://www.w3.org/1999/xlink" contentStyleType="text/css" data-diagram-type="STATE" height="768px" preserveAspectRatio="none" style="width:568px;height:768px;background:#FFFFFF;" version="1.1" viewBox="0 0 568 768" width="568px" zoomAndPan="magnify"><?plantuml 1.2026.6?><defs/><g><g class="entity" data-qualified-name="proyecto" data-source-line="3" id="ent0001"><rect fill="#F1F1F1" height="50" rx="12.5" ry="12.5" style="stroke:#181818;stroke-width:0.5;" width="167.8066" x="196" y="7"/><line style="stroke:#181818;stroke-width:0.5;" x1="196" x2="363.8066" y1="34.6094" y2="34.6094"/><text fill="#000000" font-family="sans-serif" font-size="14" lengthAdjust="spacing" textLength="147.8066" x="206" y="26.5332">PROYECTO_ABIERTO</text></g><g class="entity" data-qualified-name="agregarInvestigador" data-source-line="6" id="ent0002"><path d="M19.5,118 L540.5,118 A12.5,12.5 0 0 1 553,130.5 L553,145.6094 L7,145.6094 L7,130.5 A12.5,12.5 0 0 1 19.5,118" fill="#F1F1F1"/><rect fill="none" height="507.6094" rx="12.5" ry="12.5" style="stroke:#181818;stroke-width:0.5;" width="546" x="7" y="118"/><line style="stroke:#181818;stroke-width:0.5;" x1="7" x2="553" y1="145.6094" y2="145.6094"/><text fill="#000000" font-family="sans-serif" font-size="14" lengthAdjust="spacing" textLength="133.8477" x="213.0762" y="137.5332">agregarInvestigador()</text><g class="entity" data-qualified-name="agregarInvestigador.PresentandoCandidatos" data-source-line="7" id="ent0003"><rect fill="#F1F1F1" height="50" rx="12.5" ry="12.5" style="stroke:#181818;stroke-width:0.5;" width="50" x="141" y="248.6094"/><line style="stroke:#181818;stroke-width:0.5;" x1="141" x2="191" y1="276.2188" y2="276.2188"/><text fill="#000000" font-family="sans-serif" font-size="14" lengthAdjust="spacing" textLength="3.8896" x="164.0552" y="268.1426">&#160;</text></g><g class="entity" data-qualified-name="agregarInvestigador.ConfirmandoAsignacion" data-source-line="8" id="ent0004"><rect fill="#F1F1F1" height="50" rx="12.5" ry="12.5" style="stroke:#181818;stroke-width:0.5;" width="50" x="141" y="452.6094"/><line style="stroke:#181818;stroke-width:0.5;" x1="141" x2="191" y1="480.2188" y2="480.2188"/><text fill="#000000" font-family="sans-serif" font-size="14" lengthAdjust="spacing" textLength="3.8896" x="164.0552" y="472.1426">&#160;</text></g><g class="start_entity" data-qualified-name="agregarInvestigador..start.agregarInvestigador" data-source-line="10" id="ent0006"><ellipse cx="166" cy="166.6094" fill="#222222" rx="10" ry="10" style="stroke:#222222;stroke-width:1;"/></g><g class="end_entity" data-qualified-name="agregarInvestigador..end.agregarInvestigador" data-source-line="25" id="ent0009"><ellipse cx="166" cy="601.6094" fill="none" rx="11" ry="11" style="stroke:#222222;stroke-width:1;"/><ellipse cx="166" cy="601.6094" fill="#222222" rx="6" ry="6" style="stroke:#222222;stroke-width:1;"/></g><!--link *start*agregarInvestigador to PresentandoCandidatos--><g class="link" data-entity-1="ent0006" data-entity-2="ent0003" data-link-type="dependency" data-source-line="10" id="lnk7"><path d="M166,176.9294 C166,192.7894 166,220.5194 166,243.2494" fill="none" id="*start*agregarInvestigador-to-PresentandoCandidatos" style="stroke:#008000;stroke-width:1;"/><polygon fill="#008000" points="166,248.2494,170,239.2494,166,243.2494,162,239.2494,166,248.2494" style="stroke:#008000;stroke-width:1;stroke-linejoin:miter;stroke-miterlimit:10;"/><path d="M171,199.6094 L171,225.6094 L520,225.6094 L520,209.6094 L510,199.6094 L171,199.6094" fill="#FEFFDD" style="stroke:#181818;stroke-width:0.5;"/><path d="M510,199.6094 L510,209.6094 L520,209.6094 L510,199.6094" fill="#FEFFDD" style="stroke:#181818;stroke-width:0.5;"/><text fill="#000000" font-family="sans-serif" font-size="13" font-weight="700" lengthAdjust="spacing" textLength="77.9937" x="177" y="218.1045">Coordinador</text><text fill="#000000" font-family="sans-serif" font-size="13" lengthAdjust="spacing" textLength="247.1396" x="258.6055" y="218.1045">solicita agregar un investigador al proyecto</text></g><!--link PresentandoCandidatos to ConfirmandoAsignacion--><g class="link" data-entity-1="ent0003" data-entity-2="ent0004" data-link-type="dependency" data-source-line="15" id="lnk8"><path d="M166,298.9794 C166,337.9094 166,408.6894 166,447.4694" fill="none" id="PresentandoCandidatos-to-ConfirmandoAsignacion" style="stroke:#008000;stroke-width:1;"/><polygon fill="#008000" points="166,452.4694,170,443.4694,166,447.4694,162,443.4694,166,452.4694" style="stroke:#008000;stroke-width:1;stroke-linejoin:miter;stroke-miterlimit:10;"/><path d="M171,321.6094 L171,429.6094 L529,429.6094 L529,331.6094 L519,321.6094 L171,321.6094" fill="#FEFFDD" style="stroke:#181818;stroke-width:0.5;"/><path d="M519,321.6094 L519,331.6094 L529,331.6094 L519,321.6094" fill="#FEFFDD" style="stroke:#181818;stroke-width:0.5;"/><text fill="#000000" font-family="sans-serif" font-size="13" font-weight="700" lengthAdjust="spacing" textLength="49.8608" x="177" y="340.1045">Sistema</text><text fill="#000000" font-family="sans-serif" font-size="13" lengthAdjust="spacing" textLength="284.0068" x="230.4727" y="340.1045">presenta investigadores existentes no asociados:</text><text fill="#000000" font-family="sans-serif" font-size="13" lengthAdjust="spacing" textLength="264.6973" x="177" y="356.4561">&#8226; Nombre, sede, perfil y l&#237;nea de investigaci&#243;n</text><text fill="#000000" font-family="sans-serif" font-size="13" lengthAdjust="spacing" textLength="198.2373" x="177" y="372.8076">&#8226; Carga de trabajo y disponibilidad</text><text fill="#000000" font-family="sans-serif" font-size="13" lengthAdjust="spacing" textLength="263.98" x="177" y="389.1592">&#8226; Recomendaci&#243;n de menor carga compatible</text><text fill="#000000" font-family="sans-serif" font-size="13" lengthAdjust="spacing" textLength="3.6118" x="177" y="405.5107">&#160;</text><text fill="#000000" font-family="sans-serif" font-size="13" font-weight="700" lengthAdjust="spacing" textLength="77.9937" x="177" y="421.8623">Coordinador</text><text fill="#000000" font-family="sans-serif" font-size="13" lengthAdjust="spacing" textLength="153.207" x="258.6055" y="421.8623">selecciona un investigador</text></g><!--link ConfirmandoAsignacion to *end*agregarInvestigador--><g class="link" data-entity-1="ent0004" data-entity-2="ent0009" data-link-type="dependency" data-source-line="25" id="lnk10"><path d="M140.89,485.7294 C98.67,497.7194 18,520.6094 18,520.6094 C18,520.6094 18,572.6094 18,572.6094 C18,572.6094 116.5071,591.2501 150.4471,597.6701" fill="none" id="ConfirmandoAsignacion-to-*end*agregarInvestigador" style="stroke:#008000;stroke-width:1;"/><polygon fill="#008000" points="155.36,598.5994,147.2603,592.9963,150.4471,597.6701,145.7734,600.8569,155.36,598.5994" style="stroke:#008000;stroke-width:1;stroke-linejoin:miter;stroke-miterlimit:10;"/><path d="M23,525.6094 L23,567.6094 L289,567.6094 L289,535.6094 L279,525.6094 L23,525.6094" fill="#FEFFDD" style="stroke:#181818;stroke-width:0.5;"/><path d="M279,525.6094 L279,535.6094 L289,535.6094 L279,525.6094" fill="#FEFFDD" style="stroke:#181818;stroke-width:0.5;"/><text fill="#000000" font-family="sans-serif" font-size="13" font-weight="700" lengthAdjust="spacing" textLength="77.9937" x="29" y="544.1045">Coordinador</text><text fill="#000000" font-family="sans-serif" font-size="13" lengthAdjust="spacing" textLength="129.3462" x="110.6055" y="544.1045">confirma la asignaci&#243;n</text><text fill="#000000" font-family="sans-serif" font-size="13" font-weight="700" lengthAdjust="spacing" textLength="49.8608" x="29" y="560.4561">Sistema</text><text fill="#000000" font-family="sans-serif" font-size="13" lengthAdjust="spacing" textLength="192.2197" x="82.4727" y="560.4561">asocia el investigador al proyecto</text></g><!--link ConfirmandoAsignacion to *end*agregarInvestigador--><g class="link" data-entity-1="ent0004" data-entity-2="ent0009" data-link-type="dependency" data-source-line="31" id="lnk11"><path d="M191.29,486.9094 C228.59,499.1494 294,520.6094 294,520.6094 C294,520.6094 294,572.6094 294,572.6094 C294,572.6094 212.7546,590.3813 181.7946,597.1513" fill="none" id="ConfirmandoAsignacion-to-*end*agregarInvestigador-1" style="stroke:#FF0000;stroke-width:1;"/><polygon fill="#FF0000" points="176.91,598.2194,186.5567,600.2044,181.7946,597.1513,184.8478,592.3891,176.91,598.2194" style="stroke:#FF0000;stroke-width:1;stroke-linejoin:miter;stroke-miterlimit:10;"/><path d="M299,533.6094 L299,559.6094 L525,559.6094 L525,543.6094 L515,533.6094 L299,533.6094" fill="#FEFFDD" style="stroke:#181818;stroke-width:0.5;"/><path d="M515,533.6094 L515,543.6094 L525,543.6094 L515,533.6094" fill="#FEFFDD" style="stroke:#181818;stroke-width:0.5;"/><text fill="#000000" font-family="sans-serif" font-size="13" font-weight="700" lengthAdjust="spacing" textLength="77.9937" x="305" y="552.1045">Coordinador</text><text fill="#000000" font-family="sans-serif" font-size="13" lengthAdjust="spacing" textLength="124.3062" x="386.6055" y="552.1045">cancela la asignaci&#243;n</text></g></g><g class="entity" data-qualified-name="PROYECTO_ABIERTO" data-source-line="37" id="ent0012"><rect fill="#F1F1F1" height="50" rx="12.5" ry="12.5" style="stroke:#181818;stroke-width:0.5;" width="167.8066" x="196" y="704"/><line style="stroke:#181818;stroke-width:0.5;" x1="196" x2="363.8066" y1="731.6094" y2="731.6094"/><text fill="#000000" font-family="sans-serif" font-size="14" lengthAdjust="spacing" textLength="147.8066" x="206" y="723.5332">PROYECTO_ABIERTO</text></g><!--link proyecto to agregarInvestigador--><g class="link" data-entity-1="ent0001" data-entity-2="ent0002" data-link-type="dependency" data-source-line="4" id="lnk5"><path d="M280,57.04 C280,72.19 280,88.5 280,112.95" fill="none" id="proyecto-to-agregarInvestigador" style="stroke:#008000;stroke-width:1;"/><polygon fill="#008000" points="280,117.95,284,108.95,280,112.95,276,108.95,280,117.95" style="stroke:#008000;stroke-width:1;stroke-linejoin:miter;stroke-miterlimit:10;"/></g><!--link agregarInvestigador to PROYECTO_ABIERTO--><g class="link" data-entity-1="ent0002" data-entity-2="ent0012" data-link-type="dependency" data-source-line="37" id="lnk13"><path d="M202.15,626.25 C196.52,644.55 193,656 193,656 C193,656 193,674 193,674 C193,674 213.6714,686.8339 236.8314,701.2039" fill="none" id="agregarInvestigador-to-PROYECTO_ABIERTO" style="stroke:#008000;stroke-width:1;"/><polygon fill="#008000" points="241.08,703.84,235.5414,695.6961,236.8314,701.2039,231.3236,702.4939,241.08,703.84" style="stroke:#008000;stroke-width:1;stroke-linejoin:miter;stroke-miterlimit:10;"/><text fill="#000000" font-family="sans-serif" font-size="13" lengthAdjust="spacing" textLength="126.4707" x="194" y="670.4951">Investigador asociado</text></g><!--link agregarInvestigador to PROYECTO_ABIERTO--><g class="link" data-entity-1="ent0002" data-entity-2="ent0012" data-link-type="dependency" data-source-line="38" id="lnk14"><path d="M320.27,626.25 C323.18,644.55 325,656 325,656 C325,656 325,674 325,674 C325,674 315.3117,685.6296 303.3317,699.9996" fill="none" id="agregarInvestigador-to-PROYECTO_ABIERTO-1" style="stroke:#FF0000;stroke-width:1;"/><polygon fill="#FF0000" points="300.13,703.84,308.9654,699.4886,303.3317,699.9996,302.8207,694.3658,300.13,703.84" style="stroke:#FF0000;stroke-width:1;stroke-linejoin:miter;stroke-miterlimit:10;"/><text fill="#000000" font-family="sans-serif" font-size="13" lengthAdjust="spacing" textLength="126.4771" x="326" y="670.4951">Asignaci&#243;n cancelada</text></g><?plantuml-src bLFDQXmn3BxFKuZj9IqDlOUmi1rooAKRDhcK48h6LWOr7dcmdT2b5F8ikVVKHyYRz4cg-Ta9i_52CmF6jgJFdpv9yOwbnO0DE1PAsvQWzMxR7OeY9anw3dvB9dd028kBpVhhMNcr_hRwV7wskLelYibyVFsk3aHoSxm4r5sDuLmUA2QkqVgmWykOUkJC_T7x1VmiGByXTA6_kbu4YYG9nVfI5xQOV7pjLdgvvT1qRgl8jQ1XBqNlT_tXPaRtCA9u1VJIgNFNNvnMozBxO5awXgUVgYL4xzXmmbrgS2_0i_JS96AFGM9xu85Czl4PlNmcX-XTSapKO4-j7R5dV2W2_UYS9EbMki9wmsg99pt6tySd-EARAj17Y6HrRIdSieCjkEVVGWYMNW0DF_-HAQx4KFVs5B32xrvZBCVM2rViD3KxUMx8-4QL602w43sfMAP7K5kBYIitYfIJdHoPJWdS5pmZSbR2cSZQ4_zTSJEYWTEYZt0x5VOgC6WBvDxI4WVP1h9lvefYo6MfJe_-AehSMCv6P6_mJs1lWeSMEeGp4d-DidhXjADgiVW7?></g></svg>