<svg xmlns="http://www.w3.org/2000/svg" xmlns:xlink="http://www.w3.org/1999/xlink" contentStyleType="text/css" data-diagram-type="STATE" height="1120px" preserveAspectRatio="none" style="width:873px;height:1120px;background:#FFFFFF;" version="1.1" viewBox="0 0 873 1120" width="873px" zoomAndPan="magnify"><?plantuml 1.2026.6?><defs/><g><g class="entity" data-qualified-name="in1" data-source-line="3" id="ent0001"><rect fill="#F1F1F1" height="50" rx="12.5" ry="12.5" style="stroke:#181818;stroke-width:0.5;" width="201.2549" x="332" y="7"/><line style="stroke:#181818;stroke-width:0.5;" x1="332" x2="533.2549" y1="34.6094" y2="34.6094"/><text fill="#000000" font-family="sans-serif" font-size="14" lengthAdjust="spacing" textLength="181.2549" x="342" y="26.5332">CONVOCATORIA_ABIERTA</text></g><g class="entity" data-qualified-name="importarConvocatoria" data-source-line="6" id="ent0002"><path d="M19.5,118 L845.5,118 A12.5,12.5 0 0 1 858,130.5 L858,145.6094 L7,145.6094 L7,130.5 A12.5,12.5 0 0 1 19.5,118" fill="#F1F1F1"/><rect fill="none" height="841.6094" rx="12.5" ry="12.5" style="stroke:#181818;stroke-width:0.5;" width="851" x="7" y="118"/><line style="stroke:#181818;stroke-width:0.5;" x1="7" x2="858" y1="145.6094" y2="145.6094"/><text fill="#000000" font-family="sans-serif" font-size="14" lengthAdjust="spacing" textLength="143.1582" x="360.9209" y="137.5332">importarConvocatoria()</text><g class="entity" data-qualified-name="importarConvocatoria.SolicitandoImportacion" data-source-line="8" id="ent0003"><rect fill="#F1F1F1" height="50" rx="12.5" ry="12.5" style="stroke:#181818;stroke-width:0.5;" width="50" x="233" y="248.6094"/><line style="stroke:#181818;stroke-width:0.5;" x1="233" x2="283" y1="276.2188" y2="276.2188"/><text fill="#000000" font-family="sans-serif" font-size="14" lengthAdjust="spacing" textLength="3.8896" x="256.0552" y="268.1426">&#160;</text></g><g class="entity" data-qualified-name="importarConvocatoria.IntroduciendoFuente" data-source-line="9" id="ent0004"><rect fill="#F1F1F1" height="50" rx="12.5" ry="12.5" style="stroke:#181818;stroke-width:0.5;" width="50" x="233" y="664.6094"/><line style="stroke:#181818;stroke-width:0.5;" x1="233" x2="283" y1="692.2188" y2="692.2188"/><text fill="#000000" font-family="sans-serif" font-size="14" lengthAdjust="spacing" textLength="3.8896" x="256.0552" y="684.1426">&#160;</text></g><g class="entity" data-qualified-name="importarConvocatoria.ConfirmandoImportacion" data-source-line="10" id="ent0005"><rect fill="#F1F1F1" height="50" rx="12.5" ry="12.5" style="stroke:#181818;stroke-width:0.5;" width="50" x="233" y="786.6094"/><line style="stroke:#181818;stroke-width:0.5;" x1="233" x2="283" y1="814.2188" y2="814.2188"/><text fill="#000000" font-family="sans-serif" font-size="14" lengthAdjust="spacing" textLength="3.8896" x="256.0552" y="806.1426">&#160;</text></g><g class="start_entity" data-qualified-name="importarConvocatoria..start.importarConvocatoria" data-source-line="12" id="ent0007"><ellipse cx="258" cy="166.6094" fill="#222222" rx="10" ry="10" style="stroke:#222222;stroke-width:1;"/></g><g class="end_entity" data-qualified-name="importarConvocatoria..end.importarConvocatoria" data-source-line="45" id="ent0011"><ellipse cx="258" cy="935.6094" fill="none" rx="11" ry="11" style="stroke:#222222;stroke-width:1;"/><ellipse cx="258" cy="935.6094" fill="#222222" rx="6" ry="6" style="stroke:#222222;stroke-width:1;"/></g><!--link *start*importarConvocatoria to SolicitandoImportacion--><g class="link" data-entity-1="ent0007" data-entity-2="ent0003" data-link-type="dependency" data-source-line="12" id="lnk8"><path d="M258,176.9294 C258,192.7894 258,220.5194 258,243.2494" fill="none" id="*start*importarConvocatoria-to-SolicitandoImportacion" style="stroke:#008000;stroke-width:1;"/><polygon fill="#008000" points="258,248.2494,262,239.2494,258,243.2494,254,239.2494,258,248.2494" style="stroke:#008000;stroke-width:1;stroke-linejoin:miter;stroke-miterlimit:10;"/><path d="M263,199.6094 L263,225.6094 L547,225.6094 L547,209.6094 L537,199.6094 L263,199.6094" fill="#FEFFDD" style="stroke:#181818;stroke-width:0.5;"/><path d="M537,199.6094 L537,209.6094 L547,209.6094 L537,199.6094" fill="#FEFFDD" style="stroke:#181818;stroke-width:0.5;"/><text fill="#000000" font-family="sans-serif" font-size="13" font-weight="700" lengthAdjust="spacing" textLength="77.9937" x="269" y="218.1045">Coordinador</text><text fill="#000000" font-family="sans-serif" font-size="13" lengthAdjust="spacing" textLength="182.0762" x="350.6055" y="218.1045">solicita importar la convocatoria</text></g><!--link SolicitandoImportacion to IntroduciendoFuente--><g class="link" data-entity-1="ent0003" data-entity-2="ent0004" data-link-type="dependency" data-source-line="17" id="lnk9"><path d="M258,298.6594 C258,371.8294 258,586.2394 258,659.4994" fill="none" id="SolicitandoImportacion-to-IntroduciendoFuente" style="stroke:#008000;stroke-width:1;"/><polygon fill="#008000" points="258,664.4994,262,655.4994,258,659.4994,254,655.4994,258,664.4994" style="stroke:#008000;stroke-width:1;stroke-linejoin:miter;stroke-miterlimit:10;"/><path d="M263,321.6094 L263,641.6094 L591,641.6094 L591,331.6094 L581,321.6094 L263,321.6094" fill="#FEFFDD" style="stroke:#181818;stroke-width:0.5;"/><path d="M581,321.6094 L581,331.6094 L591,331.6094 L581,321.6094" fill="#FEFFDD" style="stroke:#181818;stroke-width:0.5;"/><text fill="#000000" font-family="sans-serif" font-size="13" font-weight="700" lengthAdjust="spacing" textLength="49.8608" x="269" y="340.1045">Sistema</text><text fill="#000000" font-family="sans-serif" font-size="13" lengthAdjust="spacing" textLength="195.1206" x="322.4727" y="340.1045">presenta la opci&#243;n de importaci&#243;n</text><text fill="#000000" font-family="sans-serif" font-size="13" font-weight="700" lengthAdjust="spacing" textLength="49.8608" x="269" y="356.4561">Sistema</text><text fill="#000000" font-family="sans-serif" font-size="13" lengthAdjust="spacing" textLength="246.4033" x="322.4727" y="356.4561">permite introducir la fuente de importaci&#243;n:</text><text fill="#000000" font-family="sans-serif" font-size="13" lengthAdjust="spacing" textLength="165.6421" x="269" y="372.8076">&#8226; Archivo (PDF / DOC / XLS)</text><text fill="#000000" font-family="sans-serif" font-size="13" lengthAdjust="spacing" textLength="95.6147" x="269" y="389.1592">&#8226; Enlace externo</text><text fill="#000000" font-family="sans-serif" font-size="13" lengthAdjust="spacing" textLength="3.6118" x="269" y="405.5107">&#160;</text><text fill="#000000" font-family="sans-serif" font-size="13" font-weight="700" lengthAdjust="spacing" textLength="49.8608" x="269" y="421.8623">Sistema</text><text fill="#000000" font-family="sans-serif" font-size="13" lengthAdjust="spacing" textLength="253.5952" x="322.4727" y="421.8623">muestra informaci&#243;n a incorporar (si aplica):</text><text fill="#000000" font-family="sans-serif" font-size="13" lengthAdjust="spacing" textLength="41.4058" x="269" y="438.2139">&#8226; T&#237;tulo</text><text fill="#000000" font-family="sans-serif" font-size="13" lengthAdjust="spacing" textLength="36.353" x="269" y="454.5654">&#8226; &#193;rea</text><text fill="#000000" font-family="sans-serif" font-size="13" lengthAdjust="spacing" textLength="49.3657" x="269" y="470.917">&#8226; Estado</text><text fill="#000000" font-family="sans-serif" font-size="13" lengthAdjust="spacing" textLength="115.1147" x="269" y="487.2686">&#8226; Fechas relevantes</text><text fill="#000000" font-family="sans-serif" font-size="13" lengthAdjust="spacing" textLength="76.8066" x="269" y="503.6201">&#8226; Descripci&#243;n</text><text fill="#000000" font-family="sans-serif" font-size="13" lengthAdjust="spacing" textLength="151.9692" x="269" y="519.9717">&#8226; Requisitos y condiciones</text><text fill="#000000" font-family="sans-serif" font-size="13" lengthAdjust="spacing" textLength="204.001" x="269" y="536.3232">&#8226; Criterios de evaluaci&#243;n y dotaci&#243;n</text><text fill="#000000" font-family="sans-serif" font-size="13" lengthAdjust="spacing" textLength="154.8701" x="269" y="552.6748">&#8226; Documentaci&#243;n asociada</text><text fill="#000000" font-family="sans-serif" font-size="13" lengthAdjust="spacing" textLength="147.6401" x="269" y="569.0264">&#8226; Informaci&#243;n de contacto</text><text fill="#000000" font-family="sans-serif" font-size="13" lengthAdjust="spacing" textLength="3.6118" x="269" y="585.3779">&#160;</text><text fill="#000000" font-family="sans-serif" font-size="13" font-weight="700" lengthAdjust="spacing" textLength="49.8608" x="269" y="601.7295">Sistema</text><text fill="#000000" font-family="sans-serif" font-size="13" lengthAdjust="spacing" textLength="94.6372" x="322.4727" y="601.7295">permite solicitar:</text><text fill="#000000" font-family="sans-serif" font-size="13" lengthAdjust="spacing" textLength="134.6147" x="269" y="618.0811">&#8226; Importar convocatoria</text><text fill="#000000" font-family="sans-serif" font-size="13" lengthAdjust="spacing" textLength="60.9185" x="269" y="634.4326">&#8226; Cancelar</text></g><!--link IntroduciendoFuente to ConfirmandoImportacion--><g class="link" data-entity-1="ent0004" data-entity-2="ent0005" data-link-type="dependency" data-source-line="40" id="lnk10"><path d="M258,714.8894 C258,735.7094 258,760.5494 258,781.3594" fill="none" id="IntroduciendoFuente-to-ConfirmandoImportacion" style="stroke:#008000;stroke-width:1;"/><polygon fill="#008000" points="258,786.3594,262,777.3594,258,781.3594,254,777.3594,258,786.3594" style="stroke:#008000;stroke-width:1;stroke-linejoin:miter;stroke-miterlimit:10;"/><path d="M263,737.6094 L263,763.6094 L541,763.6094 L541,747.6094 L531,737.6094 L263,737.6094" fill="#FEFFDD" style="stroke:#181818;stroke-width:0.5;"/><path d="M531,737.6094 L531,747.6094 L541,747.6094 L531,737.6094" fill="#FEFFDD" style="stroke:#181818;stroke-width:0.5;"/><text fill="#000000" font-family="sans-serif" font-size="13" font-weight="700" lengthAdjust="spacing" textLength="77.9937" x="269" y="756.1045">Coordinador</text><text fill="#000000" font-family="sans-serif" font-size="13" lengthAdjust="spacing" textLength="175.5635" x="350.6055" y="756.1045">solicita importar la informaci&#243;n</text></g><!--link ConfirmandoImportacion to *end*importarConvocatoria--><g class="link" data-entity-1="ent0005" data-entity-2="ent0011" data-link-type="dependency" data-source-line="45" id="lnk12"><path d="M232.77,817.0294 C171.15,827.8094 18,854.6094 18,854.6094 C18,854.6094 18,906.6094 18,906.6094 C18,906.6094 195.1436,927.2808 242.0936,932.7508" fill="none" id="ConfirmandoImportacion-to-*end*importarConvocatoria" style="stroke:#008000;stroke-width:1;"/><polygon fill="#008000" points="247.06,933.3294,238.5834,928.3147,242.0936,932.7508,237.6576,936.261,247.06,933.3294" style="stroke:#008000;stroke-width:1;stroke-linejoin:miter;stroke-miterlimit:10;"/><path d="M23,859.6094 L23,901.6094 L473,901.6094 L473,869.6094 L463,859.6094 L23,859.6094" fill="#FEFFDD" style="stroke:#181818;stroke-width:0.5;"/><path d="M463,859.6094 L463,869.6094 L473,869.6094 L463,859.6094" fill="#FEFFDD" style="stroke:#181818;stroke-width:0.5;"/><text fill="#000000" font-family="sans-serif" font-size="13" font-weight="700" lengthAdjust="spacing" textLength="49.8608" x="29" y="878.1045">Sistema</text><text fill="#000000" font-family="sans-serif" font-size="13" lengthAdjust="spacing" textLength="175.5635" x="82.4727" y="878.1045">permite solicitar la importaci&#243;n</text><text fill="#000000" font-family="sans-serif" font-size="13" font-weight="700" lengthAdjust="spacing" textLength="49.8608" x="29" y="894.4561">Sistema</text><text fill="#000000" font-family="sans-serif" font-size="13" lengthAdjust="spacing" textLength="375.7495" x="82.4727" y="894.4561">presenta y visualiza la convocatoria con la informaci&#243;n importada</text></g><!--link ConfirmandoImportacion to *end*importarConvocatoria--><g class="link" data-entity-1="ent0005" data-entity-2="ent0011" data-link-type="dependency" data-source-line="51" id="lnk13"><path d="M283.24,817.4294 C341.02,828.4594 478,854.6094 478,854.6094 C478,854.6094 478,906.6094 478,906.6094 C478,906.6094 318.26,926.9381 273.87,932.5881" fill="none" id="ConfirmandoImportacion-to-*end*importarConvocatoria-1" style="stroke:#FF0000;stroke-width:1;"/><polygon fill="#FF0000" points="268.91,933.2194,278.343,936.051,273.87,932.5881,277.3329,928.115,268.91,933.2194" style="stroke:#FF0000;stroke-width:1;stroke-linejoin:miter;stroke-miterlimit:10;"/><path d="M483,859.6094 L483,901.6094 L834,901.6094 L834,869.6094 L824,859.6094 L483,859.6094" fill="#FEFFDD" style="stroke:#181818;stroke-width:0.5;"/><path d="M824,859.6094 L824,869.6094 L834,869.6094 L824,859.6094" fill="#FEFFDD" style="stroke:#181818;stroke-width:0.5;"/><text fill="#000000" font-family="sans-serif" font-size="13" font-weight="700" lengthAdjust="spacing" textLength="77.9937" x="489" y="878.1045">Coordinador</text><text fill="#000000" font-family="sans-serif" font-size="13" lengthAdjust="spacing" textLength="177.0234" x="570.6055" y="878.1045">solicita cancelar la importaci&#243;n</text><text fill="#000000" font-family="sans-serif" font-size="13" font-weight="700" lengthAdjust="spacing" textLength="49.8608" x="489" y="894.4561">Sistema</text><text fill="#000000" font-family="sans-serif" font-size="13" lengthAdjust="spacing" textLength="277.4688" x="542.4727" y="894.4561">presenta y visualiza la convocatoria sin cambios</text></g></g><g class="entity" data-qualified-name="CONVOCATORIA_ABIERTA" data-source-line="58" id="ent0014"><rect fill="#F1F1F1" height="50" rx="12.5" ry="12.5" style="stroke:#181818;stroke-width:0.5;" width="201.2549" x="332" y="1056"/><line style="stroke:#181818;stroke-width:0.5;" x1="332" x2="533.2549" y1="1083.6094" y2="1083.6094"/><text fill="#000000" font-family="sans-serif" font-size="14" lengthAdjust="spacing" textLength="181.2549" x="342" y="1075.5332">CONVOCATORIA_ABIERTA</text></g><!--link in1 to importarConvocatoria--><g class="link" data-entity-1="ent0001" data-entity-2="ent0002" data-link-type="dependency" data-source-line="4" id="lnk6"><path d="M432.5,57.02 C432.5,71.82 432.5,87.71 432.5,112.58" fill="none" id="in1-to-importarConvocatoria" style="stroke:#008000;stroke-width:1;"/><polygon fill="#008000" points="432.5,117.58,436.5,108.58,432.5,112.58,428.5,108.58,432.5,117.58" style="stroke:#008000;stroke-width:1;stroke-linejoin:miter;stroke-miterlimit:10;"/></g><!--link importarConvocatoria to CONVOCATORIA_ABIERTA--><g class="link" data-entity-1="ent0002" data-entity-2="ent0014" data-link-type="dependency" data-source-line="58" id="lnk15"><path d="M332.6,960.13 C328.15,978.88 325.5,990 325.5,990 C325.5,990 325.5,1026 325.5,1026 C325.5,1026 351.6757,1039.2183 380.1657,1053.5883" fill="none" id="importarConvocatoria-to-CONVOCATORIA_ABIERTA" style="stroke:#008000;stroke-width:1;"/><polygon fill="#008000" points="384.63,1055.84,378.3957,1048.2155,380.1657,1053.5883,374.7929,1055.3583,384.63,1055.84" style="stroke:#008000;stroke-width:1;stroke-linejoin:miter;stroke-miterlimit:10;"/><path d="M330.5,995 L330.5,1021 L489.5,1021 L489.5,1005 L479.5,995 L330.5,995" fill="#FEFFDD" style="stroke:#181818;stroke-width:0.5;"/><path d="M479.5,995 L479.5,1005 L489.5,1005 L479.5,995" fill="#FEFFDD" style="stroke:#181818;stroke-width:0.5;"/><text fill="#000000" font-family="sans-serif" font-size="13" lengthAdjust="spacing" textLength="138.0171" x="336.5" y="1013.4951">Convocatoria importada</text></g><!--link importarConvocatoria to CONVOCATORIA_ABIERTA--><g class="link" data-entity-1="ent0002" data-entity-2="ent0014" data-link-type="dependency" data-source-line="63" id="lnk16"><path d="M494.12,960.13 C496.87,978.88 498.5,990 498.5,990 C498.5,990 498.5,1026 498.5,1026 C498.5,1026 483.4704,1038.3045 465.9004,1052.6745" fill="none" id="importarConvocatoria-to-CONVOCATORIA_ABIERTA-1" style="stroke:#FF0000;stroke-width:1;"/><polygon fill="#FF0000" points="462.03,1055.84,471.5291,1053.2385,465.9004,1052.6745,466.4643,1047.0459,462.03,1055.84" style="stroke:#FF0000;stroke-width:1;stroke-linejoin:miter;stroke-miterlimit:10;"/><path d="M503.5,995 L503.5,1021 L654.5,1021 L654.5,1005 L644.5,995 L503.5,995" fill="#FEFFDD" style="stroke:#181818;stroke-width:0.5;"/><path d="M644.5,995 L644.5,1005 L654.5,1005 L644.5,995" fill="#FEFFDD" style="stroke:#181818;stroke-width:0.5;"/><text fill="#000000" font-family="sans-serif" font-size="13" lengthAdjust="spacing" textLength="130.7998" x="509.5" y="1013.4951">Importaci&#243;n cancelada</text></g><?plantuml-src hLNDYXD14BxFKpJnaXMMnQiiWJZPm80OIO88ooATxevRx4pNsDqJZ2BegtZtv2FaJVP9hEdCRz8nYYOGwEcg-dwgQc8VGEVSy8obe9NRvehbc6xBGnHPnvrYe9ynRjaWdhrwCul7ozay6RyRlqXkviln82flBs-Vl3TAwRlB4OCiH-EuYL5lK7271dXJAN3dIuSkXXS3zZcA67tssGFwKl02Kn3Wk9QOxDC4e3wEIxGpA0i1YYAdXT9E7GSHu1fCTbZC1zu-lUif-msmHYg9klJmmJ-uNerYH2D1Sudc-cerOhPARrnWAMUYwrAPI6HzjJs5C6IFrIcP8KeBi4vbtDF9ZR8Kp4iMc0lO_THCDYtovs2QCXdueQXWlOornptCV-uBF7xzpiP6tCC6sV3rPCgks6GMq-_RbukB9k96frmefZuwPJH68UYiKDOPya-laLgsfrmU1He29KE75XZFoJ9-qM8lTpzSaM9ptdqpYhUuD0wolPmgSKzZOLIgDfmasUPcegmmaBV6b0_dwaC15XnQjYrxAQ7iJoShDcIM0RedRwXaMbIyjqnYrsOFWQB8ofvKqYmAuBBbcdI5Kpq2f5WNTgjkL3rsfdKagGVmQFeyPQw5Iha9Z6DWrdgpU6AR_cb3kjqEK0f3zbZH7l_PHXmwvk7FxKEzHbks0Llm53xnmyKk3uTIwiAI_vKee-GvIITT5LLZ_vii2vgAPYiQxxw8Br4KVDNtPYNmRnBrzFHIMxjQgqvXL2QTHqWwBjJsT15-0G00?></g></svg>