<svg xmlns="http://www.w3.org/2000/svg" xmlns:xlink="http://www.w3.org/1999/xlink" contentStyleType="text/css" data-diagram-type="STATE" height="683px" preserveAspectRatio="none" style="width:539px;height:683px;background:#FFFFFF;" version="1.1" viewBox="0 0 539 683" width="539px" zoomAndPan="magnify"><?plantuml 1.2026.6?><defs/><g><g class="entity" data-qualified-name="in2" data-source-line="4" id="ent0001"><rect fill="#F1F1F1" height="50" rx="12.5" ry="12.5" style="stroke:#181818;stroke-width:0.5;" width="205.9375" x="116" y="7"/><line style="stroke:#181818;stroke-width:0.5;" x1="116" x2="321.9375" y1="34.6094" y2="34.6094"/><text fill="#000000" font-family="sans-serif" font-size="14" lengthAdjust="spacing" textLength="185.9375" x="126" y="26.5332">RECOMPENSAS_ABIERTAS</text></g><g class="entity" data-qualified-name="abrirRecompensa" data-source-line="10" id="ent0002"><path d="M47.5,153 L390.5,153 A12.5,12.5 0 0 1 403,165.5 L403,180.6094 L35,180.6094 L35,165.5 A12.5,12.5 0 0 1 47.5,153" fill="#F1F1F1"/><rect fill="none" height="369.6094" rx="12.5" ry="12.5" style="stroke:#181818;stroke-width:0.5;" width="368" x="35" y="153"/><line style="stroke:#181818;stroke-width:0.5;" x1="35" x2="403" y1="180.6094" y2="180.6094"/><text fill="#000000" font-family="sans-serif" font-size="14" lengthAdjust="spacing" textLength="119.8203" x="159.0898" y="172.5332">abrirRecompensa()</text><g class="entity" data-qualified-name="abrirRecompensa.MostrandoRecompensa" data-source-line="12" id="ent0003"><rect fill="#F1F1F1" height="50" rx="12.5" ry="12.5" style="stroke:#181818;stroke-width:0.5;" width="50" x="47" y="283.6094"/><line style="stroke:#181818;stroke-width:0.5;" x1="47" x2="97" y1="311.2188" y2="311.2188"/><text fill="#000000" font-family="sans-serif" font-size="14" lengthAdjust="spacing" textLength="3.8896" x="70.0552" y="303.1426">&#160;</text></g><g class="start_entity" data-qualified-name="abrirRecompensa..start.abrirRecompensa" data-source-line="14" id="ent0005"><ellipse cx="72" cy="201.6094" fill="#222222" rx="10" ry="10" style="stroke:#222222;stroke-width:1;"/></g><g class="end_entity" data-qualified-name="abrirRecompensa..end.abrirRecompensa" data-source-line="19" id="ent0007"><ellipse cx="72" cy="498.6094" fill="none" rx="11" ry="11" style="stroke:#222222;stroke-width:1;"/><ellipse cx="72" cy="498.6094" fill="#222222" rx="6" ry="6" style="stroke:#222222;stroke-width:1;"/></g><!--link *start*abrirRecompensa to MostrandoRecompensa--><g class="link" data-entity-1="ent0005" data-entity-2="ent0003" data-link-type="dependency" data-source-line="14" id="lnk6"><path d="M72,211.9294 C72,227.7894 72,255.5194 72,278.2494" fill="none" id="*start*abrirRecompensa-to-MostrandoRecompensa" style="stroke:#008000;stroke-width:1;"/><polygon fill="#008000" points="72,283.2494,76,274.2494,72,278.2494,68,274.2494,72,283.2494" style="stroke:#008000;stroke-width:1;stroke-linejoin:miter;stroke-miterlimit:10;"/><path d="M77,234.6094 L77,260.6094 L349,260.6094 L349,244.6094 L339,234.6094 L77,234.6094" fill="#FEFFDD" style="stroke:#181818;stroke-width:0.5;"/><path d="M339,234.6094 L339,244.6094 L349,244.6094 L339,234.6094" fill="#FEFFDD" style="stroke:#181818;stroke-width:0.5;"/><text fill="#000000" font-family="sans-serif" font-size="13" font-weight="700" lengthAdjust="spacing" textLength="77.9937" x="83" y="253.1045">Coordinador</text><text fill="#000000" font-family="sans-serif" font-size="13" lengthAdjust="spacing" textLength="169.8062" x="164.6055" y="253.1045">solicita abrir una recompensa</text></g><!--link MostrandoRecompensa to *end*abrirRecompensa--><g class="link" data-entity-1="ent0003" data-entity-2="ent0007" data-link-type="dependency" data-source-line="19" id="lnk8"><path d="M72,333.7994 C72,375.2594 72,453.1994 72,482.2694" fill="none" id="MostrandoRecompensa-to-*end*abrirRecompensa" style="stroke:#008000;stroke-width:1;"/><polygon fill="#008000" points="72,487.2694,76,478.2694,72,482.2694,68,478.2694,72,487.2694" style="stroke:#008000;stroke-width:1;stroke-linejoin:miter;stroke-miterlimit:10;"/><path d="M77,356.6094 L77,464.6094 L379,464.6094 L379,366.6094 L369,356.6094 L77,356.6094" fill="#FEFFDD" style="stroke:#181818;stroke-width:0.5;"/><path d="M369,356.6094 L369,366.6094 L379,366.6094 L369,356.6094" fill="#FEFFDD" style="stroke:#181818;stroke-width:0.5;"/><text fill="#000000" font-family="sans-serif" font-size="13" font-weight="700" lengthAdjust="spacing" textLength="49.8608" x="83" y="375.1045">Sistema</text><text fill="#000000" font-family="sans-serif" font-size="13" lengthAdjust="spacing" textLength="228.3506" x="136.4727" y="375.1045">presenta informaci&#243;n de la recompensa</text><text fill="#000000" font-family="sans-serif" font-size="13" lengthAdjust="spacing" textLength="34.1821" x="83" y="391.4561">&#8226; Tipo</text><text fill="#000000" font-family="sans-serif" font-size="13" lengthAdjust="spacing" textLength="60.9312" x="83" y="407.8076">&#8226; Cantidad</text><text fill="#000000" font-family="sans-serif" font-size="13" font-weight="700" lengthAdjust="spacing" textLength="49.8608" x="83" y="424.1592">Sistema</text><text fill="#000000" font-family="sans-serif" font-size="13" lengthAdjust="spacing" textLength="94.6372" x="136.4727" y="424.1592">permite solicitar:</text><text fill="#000000" font-family="sans-serif" font-size="13" lengthAdjust="spacing" textLength="116.562" x="83" y="440.5107">&#8226; editar recompensa</text><text fill="#000000" font-family="sans-serif" font-size="13" lengthAdjust="spacing" textLength="129.5557" x="83" y="456.8623">&#8226; eliminar recompensa</text></g></g><g class="entity" data-qualified-name="RECOMPENSAS_ABIERTAS" data-source-line="31" id="ent0009"><rect fill="#F1F1F1" height="50" rx="12.5" ry="12.5" style="stroke:#181818;stroke-width:0.5;" width="205.9375" x="7" y="619"/><line style="stroke:#181818;stroke-width:0.5;" x1="7" x2="212.9375" y1="646.6094" y2="646.6094"/><text fill="#000000" font-family="sans-serif" font-size="14" lengthAdjust="spacing" textLength="185.9375" x="17" y="638.5332">RECOMPENSAS_ABIERTAS</text></g><g class="entity" data-qualified-name="RECOMPENSA_ABIERTA" data-source-line="41" id="ent0012"><rect fill="#F1F1F1" height="50" rx="12.5" ry="12.5" style="stroke:#181818;stroke-width:0.5;" width="187.2617" x="326.5" y="619"/><line style="stroke:#181818;stroke-width:0.5;" x1="326.5" x2="513.7617" y1="646.6094" y2="646.6094"/><text fill="#000000" font-family="sans-serif" font-size="14" lengthAdjust="spacing" textLength="167.2617" x="336.5" y="638.5332">RECOMPENSA_ABIERTA</text></g><!--link in2 to abrirRecompensa--><g class="link" data-entity-1="ent0001" data-entity-2="ent0002" data-link-type="dependency" data-source-line="5" id="lnk4"><path d="M219,57.11 C219,79.37 219,109.67 219,147.8" fill="none" id="in2-to-abrirRecompensa" style="stroke:#008000;stroke-width:1;"/><polygon fill="#008000" points="219,152.8,223,143.8,219,147.8,215,143.8,219,152.8" style="stroke:#008000;stroke-width:1;stroke-linejoin:miter;stroke-miterlimit:10;"/><path d="M224,92 L224,118 L356,118 L356,102 L346,92 L224,92" fill="#FEFFDD" style="stroke:#181818;stroke-width:0.5;"/><path d="M346,92 L346,102 L356,102 L346,92" fill="#FEFFDD" style="stroke:#181818;stroke-width:0.5;"/><text fill="#000000" font-family="sans-serif" font-size="13" lengthAdjust="spacing" textLength="111.2617" x="230" y="110.4951">abrirRecompensa()</text></g><!--link abrirRecompensa to RECOMPENSAS_ABIERTAS--><g class="link" data-entity-1="ent0002" data-entity-2="ent0009" data-link-type="dependency" data-source-line="31" id="lnk10"><path d="M54.56,523.24 C38.49,541.24 28,553 28,553 C28,553 28,589 28,589 C28,589 47.3031,601.7217 69.1431,616.0917" fill="none" id="abrirRecompensa-to-RECOMPENSAS_ABIERTAS" style="stroke:#008000;stroke-width:1;"/><polygon fill="#008000" points="73.32,618.84,68.0001,610.5515,69.1431,616.0917,63.6029,617.2346,73.32,618.84" style="stroke:#008000;stroke-width:1;stroke-linejoin:miter;stroke-miterlimit:10;"/><path d="M33,558 L33,584 L171,584 L171,568 L161,558 L33,558" fill="#FEFFDD" style="stroke:#181818;stroke-width:0.5;"/><path d="M161,558 L161,568 L171,568 L161,558" fill="#FEFFDD" style="stroke:#181818;stroke-width:0.5;"/><text fill="#000000" font-family="sans-serif" font-size="13" lengthAdjust="spacing" textLength="117.7617" x="39" y="576.4951">abrirRecompensas()</text></g><!--link abrirRecompensa to RECOMPENSAS_ABIERTAS--><g class="link" data-entity-1="ent0002" data-entity-2="ent0009" data-link-type="dependency" data-source-line="36" id="lnk11"><path d="M190.25,523.32 C184.4,560.79 180,589 180,589 C180,589 163.9099,601.4172 145.2699,615.7872" fill="none" id="abrirRecompensa-to-RECOMPENSAS_ABIERTAS-1" style="stroke:#008000;stroke-width:1;"/><polygon fill="#008000" points="141.31,618.84,150.88,616.5129,145.2699,615.7872,145.9956,610.1771,141.31,618.84" style="stroke:#008000;stroke-width:1;stroke-linejoin:miter;stroke-miterlimit:10;"/><path d="M190,558 L190,584 L341,584 L341,568 L331,558 L190,558" fill="#FEFFDD" style="stroke:#181818;stroke-width:0.5;"/><path d="M331,558 L331,568 L341,568 L331,558" fill="#FEFFDD" style="stroke:#181818;stroke-width:0.5;"/><text fill="#000000" font-family="sans-serif" font-size="13" lengthAdjust="spacing" textLength="130.7681" x="196" y="576.4951">eliminarRecompensa()</text></g><!--link abrirRecompensa to RECOMPENSA_ABIERTA--><g class="link" data-entity-1="ent0002" data-entity-2="ent0012" data-link-type="dependency" data-source-line="41" id="lnk13"><path d="M340.85,523.29 C366.07,561.44 386.663,592.5788 401.363,614.8188" fill="none" id="abrirRecompensa-to-RECOMPENSA_ABIERTA" style="stroke:#008000;stroke-width:1;"/><polygon fill="#008000" points="404.12,618.99,402.4943,609.2762,401.363,614.8188,395.8204,613.6875,404.12,618.99" style="stroke:#008000;stroke-width:1;stroke-linejoin:miter;stroke-miterlimit:10;"/><path d="M386,558 L386,584 L524,584 L524,568 L514,558 L386,558" fill="#FEFFDD" style="stroke:#181818;stroke-width:0.5;"/><path d="M514,558 L514,568 L524,568 L514,558" fill="#FEFFDD" style="stroke:#181818;stroke-width:0.5;"/><text fill="#000000" font-family="sans-serif" font-size="13" lengthAdjust="spacing" textLength="117.7744" x="392" y="576.4951">editarRecompensa()</text></g><?plantuml-src fPB1IiD048Rl-nH3lAXG18zI0h7quA4gJM-boBGxbQ79RDXT3qK4dyLNy15y4v_4tPHKawOYc9mc-y_t_xCPjs6fq6891GlvRKLGcM8R2wMSHq_0SWde89cEHtUJ-_5jdkKFsVNDU3hByaJ5qy7yvD4IoMAG0YujsocjJ5cHE5HY0i98n6zKv_3qJ95eY9B6hAEeZG-w4dXM2iApwqd26tGJuxn5qUQ7UwsQdozQ4Vk4KTUA6ZyCb-d86AjPK1ixl5Ycu4p1A_Qu2mfFWc3RbE-9OjNZrSeIiXtrpjbvAh7shImvak3BiZQsn1L_l0jeWk8WmEVh6youCljYXE9Pe-xbaYqvM3TpsQjz6-bOzz6fu3BSYJqw-ejItN_TchflbNxT5DTQbV-Xc_H7zl1ly8RTGTTNrW_-0W00?></g></svg>