<svg xmlns="http://www.w3.org/2000/svg" xmlns:xlink="http://www.w3.org/1999/xlink" contentStyleType="text/css" data-diagram-type="DESCRIPTION" height="442px" preserveAspectRatio="none" style="width:1444px;height:442px;background:#FFFFFF;" version="1.1" viewBox="0 0 1444 442" width="1444px" zoomAndPan="magnify"><?plantuml 1.2026.4?><defs/><g><!--cluster agregarInvestigador--><g class="cluster" data-qualified-name="agregarInvestigador" data-source-line="4" id="ent0002"><path d="M197.5,6 L342.4238,6 A3.75,3.75 0 0 1 344.9238,8.5 L351.9238,29.6094 L751.5,29.6094 A2.5,2.5 0 0 1 754,32.1094 L754,424.5 A2.5,2.5 0 0 1 751.5,427 L197.5,427 A2.5,2.5 0 0 1 195,424.5 L195,8.5 A2.5,2.5 0 0 1 197.5,6" fill="none" style="stroke:#000000;stroke-width:1.5;"/><line style="stroke:#000000;stroke-width:1.5;" x1="195" x2="351.9238" y1="29.6094" y2="29.6094"/><text fill="#000000" font-family="sans-serif" font-size="14" font-weight="700" lengthAdjust="spacing" textLength="143.9238" x="199" y="22.5332">agregarInvestigador()</text></g><!--entity AgregarInvestigadorView--><g class="entity" data-qualified-name="agregarInvestigador.AgregarInvestigadorView" data-source-line="5" id="ent0003"><rect fill="#629EF9" height="37.6094" rx="2.5" ry="2.5" style="stroke:#181818;stroke-width:0.5;" width="176.4199" x="506" y="42"/><text fill="#000000" font-family="sans-serif" font-size="14" lengthAdjust="spacing" textLength="156.4199" x="516" y="66.5332">AgregarInvestigadorView</text></g><!--entity InvestigadorController--><g class="entity" data-qualified-name="agregarInvestigador.InvestigadorController" data-source-line="6" id="ent0004"><rect fill="#B5BD68" height="37.6094" rx="2.5" ry="2.5" style="stroke:#181818;stroke-width:0.5;" width="156.958" x="256.5" y="158"/><text fill="#000000" font-family="sans-serif" font-size="14" lengthAdjust="spacing" textLength="136.958" x="266.5" y="182.5332">InvestigadorController</text></g><!--entity InvestigadorRepository--><g class="entity" data-qualified-name="agregarInvestigador.InvestigadorRepository" data-source-line="7" id="ent0005"><rect fill="#F2AC4E" height="37.6094" rx="2.5" ry="2.5" style="stroke:#181818;stroke-width:0.5;" width="163.1855" x="266.5" y="274"/><text fill="#000000" font-family="sans-serif" font-size="14" lengthAdjust="spacing" textLength="143.1855" x="276.5" y="298.5332">InvestigadorRepository</text></g><!--entity Investigador--><g class="entity" data-qualified-name="agregarInvestigador.Investigador" data-source-line="8" id="ent0006"><rect fill="#F2AC4E" height="37.6094" rx="2.5" ry="2.5" style="stroke:#181818;stroke-width:0.5;" width="96.2686" x="300" y="373"/><text fill="#000000" font-family="sans-serif" font-size="14" lengthAdjust="spacing" textLength="76.2686" x="310" y="397.5332">Investigador</text></g><!--entity EstadoEntrada--><g class="entity" data-qualified-name="EstadoEntrada" data-source-line="3" id="ent0001"><rect fill="#CDEBA5" height="37.6094" rx="2.5" ry="2.5" style="stroke:#181818;stroke-width:0.5;" width="171.6963" x="7" y="42"/><text fill="#000000" font-family="sans-serif" font-size="14" lengthAdjust="spacing" textLength="151.6963" x="17" y="66.5332">:PROYECTO_ABIERTO</text></g><!--entity EstadoSalida--><g class="entity" data-qualified-name="EstadoSalida" data-source-line="11" id="ent0007"><rect fill="#CDEBA5" height="37.6094" rx="2.5" ry="2.5" style="stroke:#181818;stroke-width:0.5;" width="171.6963" x="770" y="158"/><text fill="#000000" font-family="sans-serif" font-size="14" lengthAdjust="spacing" textLength="151.6963" x="780" y="182.5332">:PROYECTO_ABIERTO</text></g><!--entity AbrirEntregables--><g class="entity" data-qualified-name="AbrirEntregables" data-source-line="12" id="ent0008"><rect fill="#CDEBA5" height="37.6094" rx="2.5" ry="2.5" style="stroke:#181818;stroke-width:0.5;" width="214.5508" x="977.5" y="158"/><text fill="#000000" font-family="sans-serif" font-size="14" lengthAdjust="spacing" textLength="194.5508" x="987.5" y="182.5332">:Collaboration AbrirEntregables</text></g><!--entity AbrirProyectos--><g class="entity" data-qualified-name="AbrirProyectos" data-source-line="13" id="ent0009"><rect fill="#CDEBA5" height="37.6094" rx="2.5" ry="2.5" style="stroke:#181818;stroke-width:0.5;" width="202.082" x="1228" y="158"/><text fill="#000000" font-family="sans-serif" font-size="14" lengthAdjust="spacing" textLength="182.082" x="1238" y="182.5332">:Collaboration AbrirProyectos</text></g><!--link EstadoEntrada to AgregarInvestigadorView--><g class="link" data-entity-1="ent0001" data-entity-2="ent0003" data-link-type="dependency" data-source-line="15" id="lnk10"><path d="M179.12,61 C270.33,61 408.59,61 500.63,61" fill="none" id="EstadoEntrada-to-AgregarInvestigadorView" style="stroke:#181818;stroke-width:1;"/><polygon fill="#181818" points="505.63,61,496.63,57,500.63,61,496.63,65,505.63,61" style="stroke:#181818;stroke-width:1;stroke-linejoin:miter;stroke-miterlimit:10;"/><text fill="#000000" font-family="sans-serif" font-size="13" lengthAdjust="spacing" textLength="124.2871" x="280.5" y="54.4951">agregarInvestigador()</text></g><!--link AgregarInvestigadorView to InvestigadorController--><g class="link" data-entity-1="ent0003" data-entity-2="ent0004" data-link-type="dependency" data-source-line="17" id="lnk11"><path d="M505.88,74.05 C401.91,88.27 243,110 243,110 C243,110 243,128 243,128 C243,128 269.9473,142.0568 296.0473,155.6768" fill="none" id="AgregarInvestigadorView-to-InvestigadorController" style="stroke:#181818;stroke-width:1;"/><polygon fill="#181818" points="300.48,157.99,294.3516,150.2801,296.0473,155.6768,290.6505,157.3725,300.48,157.99" style="stroke:#181818;stroke-width:1;stroke-linejoin:miter;stroke-miterlimit:10;"/><text fill="#000000" font-family="sans-serif" font-size="13" lengthAdjust="spacing" textLength="251.4688" x="244" y="124.4951">agregarInvestigador(proyecto, investigador)</text></g><!--link AgregarInvestigadorView to InvestigadorController--><g class="link" data-entity-1="ent0003" data-entity-2="ent0004" data-link-type="dependency" data-source-line="18" id="lnk12"><path d="M568.31,80.03 C540.48,99.58 500,128 500,128 C500,128 448.531,142.9734 401.711,156.5934" fill="none" id="AgregarInvestigadorView-to-InvestigadorController-1" style="stroke:#181818;stroke-width:1;"/><polygon fill="#181818" points="396.91,157.99,406.6691,159.3169,401.711,156.5934,404.4345,151.6353,396.91,157.99" style="stroke:#181818;stroke-width:1;stroke-linejoin:miter;stroke-miterlimit:10;"/><text fill="#000000" font-family="sans-serif" font-size="13" lengthAdjust="spacing" textLength="197.9897" x="526" y="124.4951">validarDisponibilidad(investigador)</text></g><!--link InvestigadorController to InvestigadorRepository--><g class="link" data-entity-1="ent0004" data-entity-2="ent0005" data-link-type="dependency" data-source-line="19" id="lnk13"><path d="M308.91,196.15 C289.37,209.74 266,226 266,226 C266,226 266,244 266,244 C266,244 289.4647,257.7344 312.6847,271.3244" fill="none" id="InvestigadorController-to-InvestigadorRepository" style="stroke:#181818;stroke-width:1;"/><polygon fill="#181818" points="317,273.85,311.253,265.8517,312.6847,271.3244,307.2121,272.7561,317,273.85" style="stroke:#181818;stroke-width:1;stroke-linejoin:miter;stroke-miterlimit:10;"/><text fill="#000000" font-family="sans-serif" font-size="13" lengthAdjust="spacing" textLength="93.939" x="267" y="240.4951">obtenerPorId(id)</text></g><!--link InvestigadorController to InvestigadorRepository--><g class="link" data-entity-1="ent0004" data-entity-2="ent0005" data-link-type="dependency" data-source-line="20" id="lnk14"><path d="M346.34,196.15 C354.84,209.74 365,226 365,226 C365,226 365,244 365,244 C365,244 360.9083,255.5465 356.0983,269.1365" fill="none" id="InvestigadorController-to-InvestigadorRepository-1" style="stroke:#181818;stroke-width:1;"/><polygon fill="#181818" points="354.43,273.85,361.2037,266.7004,356.0983,269.1365,353.6621,264.0311,354.43,273.85" style="stroke:#181818;stroke-width:1;stroke-linejoin:miter;stroke-miterlimit:10;"/><text fill="#000000" font-family="sans-serif" font-size="13" lengthAdjust="spacing" textLength="248.5679" x="366" y="240.4951">asociarInvestigador(proyecto, investigador)</text></g><!--link InvestigadorRepository to Investigador--><g class="link" data-entity-1="ent0005" data-entity-2="ent0006" data-link-type="association" data-source-line="21" id="lnk15"><path d="M348,312.24 C348,329.59 348,355.52 348,372.84" fill="none" id="InvestigadorRepository-Investigador" style="stroke:#181818;stroke-width:1;"/></g><!--link AgregarInvestigadorView to EstadoSalida--><g class="link" data-entity-1="ent0003" data-entity-2="ent0007" data-link-type="dependency" data-source-line="22" id="lnk16"><path d="M645.78,80.01 C684.94,93.63 732,110 732,110 C732,110 780.9865,136.0702 817.7065,155.6202" fill="none" id="AgregarInvestigadorView-to-EstadoSalida" style="stroke:#181818;stroke-width:1;stroke-dasharray:7,7;"/><polygon fill="#181818" points="822.12,157.97,816.0556,150.2097,817.7065,155.6202,812.296,157.2712,822.12,157.97" style="stroke:#181818;stroke-width:1;stroke-linejoin:miter;stroke-miterlimit:10;"/><text fill="#000000" font-family="sans-serif" font-size="13" lengthAdjust="spacing" textLength="130.7935" x="766" y="124.4951">continuarNavegacion()</text></g><!--link AgregarInvestigadorView to AbrirEntregables--><g class="link" data-entity-1="ent0003" data-entity-2="ent0008" data-link-type="dependency" data-source-line="23" id="lnk17"><path d="M682.29,75.63 C774.23,89.82 905,110 905,110 C905,110 977.8259,136.6979 1031.1159,156.2479" fill="none" id="AgregarInvestigadorView-to-AbrirEntregables" style="stroke:#181818;stroke-width:1;stroke-dasharray:7,7;"/><polygon fill="#181818" points="1035.81,157.97,1028.7383,151.115,1031.1159,156.2479,1025.983,158.6255,1035.81,157.97" style="stroke:#181818;stroke-width:1;stroke-linejoin:miter;stroke-miterlimit:10;"/><text fill="#000000" font-family="sans-serif" font-size="13" lengthAdjust="spacing" textLength="104.0444" x="954" y="124.4951">abrirEntregables()</text></g><!--link AgregarInvestigadorView to AbrirProyectos--><g class="link" data-entity-1="ent0003" data-entity-2="ent0009" data-link-type="dependency" data-source-line="24" id="lnk18"><path d="M682.14,70.94 C818.98,84.83 1067,110 1067,110 C1067,110 1174.9816,137.1982 1252.5616,156.7482" fill="none" id="AgregarInvestigadorView-to-AbrirProyectos" style="stroke:#181818;stroke-width:1;stroke-dasharray:7,7;"/><polygon fill="#181818" points="1257.41,157.97,1249.6603,151.892,1252.5616,156.7482,1247.7054,159.6495,1257.41,157.97" style="stroke:#181818;stroke-width:1;stroke-linejoin:miter;stroke-miterlimit:10;"/><text fill="#000000" font-family="sans-serif" font-size="13" lengthAdjust="spacing" textLength="92.4663" x="1138" y="124.4951">abrirProyectos()</text></g><?plantuml-src dP9DQy9048Rl-ok6zABGU90gDGSXnWXUgbWfz5GcoH8MqzqmkxM4ql_UZOXDOY9fzpR3-puxN_eWP8w4xv09oKsHSyXLLfG1OyHZWpBDEDm5ot3XJy3njhlDQnZiDs_-OXtkzXi7K4Ee3IOgb8OmGPPZVC2K0wR4KwIrF79jH6eLL8gTblnWwC0N0_igVqx7it0r0_zQ_YBuPrCTJQ9a-WXLMQ1iHIhBE3N5gx4VF8GryOxdIWkZgEWXPjz_diupPi8EfyqLs1enKeH6A0b-H8BAMTgkeuph4wEPxClPaYgiKbKebnHZjRs1I-wyQzeUj6wDiGuzk8c5jI-ZdPMVoxe7KKaFkp-umJ-UParBeNCbHIJAA1dKkUtUA-plMNYW8iCbfwsYjQKb_sAWLh7esNexm-BhjzWreT5eNhiz3s9Rev0VI4zuj9ROdibWUDFVl3lRG2FJ1t0vkRFz4blp3m00?></g></svg>