<svg xmlns="http://www.w3.org/2000/svg" xmlns:xlink="http://www.w3.org/1999/xlink" contentStyleType="text/css" data-diagram-type="DESCRIPTION" height="442px" preserveAspectRatio="none" style="width:3138px;height:442px;background:#FFFFFF;" version="1.1" viewBox="0 0 3138 442" width="3138px" zoomAndPan="magnify"><?plantuml 1.2026.5?><defs/><g><!--cluster agregarInvestigador--><g class="cluster" data-qualified-name="agregarInvestigador" data-source-line="4" id="ent0002"><path d="M197.5,6 L342.4238,6 A3.75,3.75 0 0 1 344.9238,8.5 L351.9238,29.6094 L1148.5,29.6094 A2.5,2.5 0 0 1 1151,32.1094 L1151,424.5 A2.5,2.5 0 0 1 1148.5,427 L197.5,427 A2.5,2.5 0 0 1 195,424.5 L195,8.5 A2.5,2.5 0 0 1 197.5,6" fill="none" style="stroke:#000000;stroke-width:1.5;"/><line style="stroke:#000000;stroke-width:1.5;" x1="195" x2="351.9238" y1="29.6094" y2="29.6094"/><text fill="#000000" font-family="sans-serif" font-size="14" font-weight="700" lengthAdjust="spacing" textLength="143.9238" x="199" y="22.5332">agregarInvestigador()</text></g><!--entity AgregarInvestigadorView--><g class="entity" data-qualified-name="agregarInvestigador.AgregarInvestigadorView" data-source-line="5" id="ent0003"><rect fill="#629EF9" height="37.6094" rx="2.5" ry="2.5" style="stroke:#181818;stroke-width:0.5;" width="176.4199" x="959" y="42"/><text fill="#000000" font-family="sans-serif" font-size="14" lengthAdjust="spacing" textLength="156.4199" x="969" y="66.5332">AgregarInvestigadorView</text></g><!--entity ProyectoController--><g class="entity" data-qualified-name="agregarInvestigador.ProyectoController" data-source-line="6" id="ent0004"><rect fill="#B5BD68" height="37.6094" rx="2.5" ry="2.5" style="stroke:#181818;stroke-width:0.5;" width="135.9375" x="489" y="158"/><text fill="#000000" font-family="sans-serif" font-size="14" lengthAdjust="spacing" textLength="115.9375" x="499" y="182.5332">ProyectoController</text></g><!--entity ProyectoRepository--><g class="entity" data-qualified-name="agregarInvestigador.ProyectoRepository" data-source-line="7" id="ent0005"><rect fill="#F2AC4E" height="37.6094" rx="2.5" ry="2.5" style="stroke:#181818;stroke-width:0.5;" width="142.165" x="286" y="274"/><text fill="#000000" font-family="sans-serif" font-size="14" lengthAdjust="spacing" textLength="122.165" x="296" y="298.5332">ProyectoRepository</text></g><!--entity InvestigadorRepository--><g class="entity" data-qualified-name="agregarInvestigador.InvestigadorRepository" data-source-line="8" id="ent0006"><rect fill="#F2AC4E" height="37.6094" rx="2.5" ry="2.5" style="stroke:#181818;stroke-width:0.5;" width="163.1855" x="662.5" y="274"/><text fill="#000000" font-family="sans-serif" font-size="14" lengthAdjust="spacing" textLength="143.1855" x="672.5" y="298.5332">InvestigadorRepository</text></g><!--entity CargaTrabajoRepository--><g class="entity" data-qualified-name="agregarInvestigador.CargaTrabajoRepository" data-source-line="9" id="ent0007"><rect fill="#F2AC4E" height="37.6094" rx="2.5" ry="2.5" style="stroke:#181818;stroke-width:0.5;" width="172.5166" x="889.5" y="274"/><text fill="#000000" font-family="sans-serif" font-size="14" lengthAdjust="spacing" textLength="152.5166" x="899.5" y="298.5332">CargaTrabajoRepository</text></g><!--entity Proyecto--><g class="entity" data-qualified-name="agregarInvestigador.Proyecto" data-source-line="10" id="ent0008"><rect fill="#F2AC4E" height="37.6094" rx="2.5" ry="2.5" style="stroke:#181818;stroke-width:0.5;" width="75.248" x="319.5" y="373"/><text fill="#000000" font-family="sans-serif" font-size="14" lengthAdjust="spacing" textLength="55.248" x="329.5" y="397.5332">Proyecto</text></g><!--entity Investigador--><g class="entity" data-qualified-name="agregarInvestigador.Investigador" data-source-line="11" id="ent0009"><rect fill="#F2AC4E" height="37.6094" rx="2.5" ry="2.5" style="stroke:#181818;stroke-width:0.5;" width="96.2686" x="696" y="373"/><text fill="#000000" font-family="sans-serif" font-size="14" lengthAdjust="spacing" textLength="76.2686" x="706" y="397.5332">Investigador</text></g><!--entity CargaTrabajo--><g class="entity" data-qualified-name="agregarInvestigador.CargaTrabajo" data-source-line="12" id="ent0010"><rect fill="#F2AC4E" height="37.6094" rx="2.5" ry="2.5" style="stroke:#181818;stroke-width:0.5;" width="105.5996" x="923" y="373"/><text fill="#000000" font-family="sans-serif" font-size="14" lengthAdjust="spacing" textLength="85.5996" x="933" y="397.5332">CargaTrabajo</text></g><!--entity EstadoEntrada--><g class="entity" data-qualified-name="EstadoEntrada" data-source-line="3" id="ent0001"><rect fill="#CDEBA5" height="37.6094" rx="2.5" ry="2.5" style="stroke:#181818;stroke-width:0.5;" width="171.6963" x="7" y="42"/><text fill="#000000" font-family="sans-serif" font-size="14" lengthAdjust="spacing" textLength="151.6963" x="17" y="66.5332">:PROYECTO_ABIERTO</text></g><!--entity EstadoSalida--><g class="entity" data-qualified-name="EstadoSalida" data-source-line="15" id="ent0011"><rect fill="#CDEBA5" height="37.6094" rx="2.5" ry="2.5" style="stroke:#181818;stroke-width:0.5;" width="171.6963" x="1167" y="158"/><text fill="#000000" font-family="sans-serif" font-size="14" lengthAdjust="spacing" textLength="151.6963" x="1177" y="182.5332">:PROYECTO_ABIERTO</text></g><!--entity EditarProyecto--><g class="entity" data-qualified-name="EditarProyecto" data-source-line="16" id="ent0012"><rect fill="#CDEBA5" height="37.6094" rx="2.5" ry="2.5" style="stroke:#181818;stroke-width:0.5;" width="202.0957" x="1374" y="158"/><text fill="#000000" font-family="sans-serif" font-size="14" lengthAdjust="spacing" textLength="182.0957" x="1384" y="182.5332">:Collaboration EditarProyecto</text></g><!--entity EliminarProyecto--><g class="entity" data-qualified-name="EliminarProyecto" data-source-line="17" id="ent0013"><rect fill="#CDEBA5" height="37.6094" rx="2.5" ry="2.5" style="stroke:#181818;stroke-width:0.5;" width="216.0889" x="1611" y="158"/><text fill="#000000" font-family="sans-serif" font-size="14" lengthAdjust="spacing" textLength="196.0889" x="1621" y="182.5332">:Collaboration EliminarProyecto</text></g><!--entity AgregarInvestigador--><g class="entity" data-qualified-name="AgregarInvestigador" data-source-line="18" id="ent0014"><rect fill="#CDEBA5" height="37.6094" rx="2.5" ry="2.5" style="stroke:#181818;stroke-width:0.5;" width="236.3506" x="1862" y="158"/><text fill="#000000" font-family="sans-serif" font-size="14" lengthAdjust="spacing" textLength="216.3506" x="1872" y="182.5332">:Collaboration AgregarInvestigador</text></g><!--entity EliminarInvestigador--><g class="entity" data-qualified-name="EliminarInvestigador" data-source-line="19" id="ent0015"><rect fill="#CDEBA5" height="37.6094" rx="2.5" ry="2.5" style="stroke:#181818;stroke-width:0.5;" width="237.1094" x="2133.5" y="158"/><text fill="#000000" font-family="sans-serif" font-size="14" lengthAdjust="spacing" textLength="217.1094" x="2143.5" y="182.5332">:Collaboration EliminarInvestigador</text></g><!--entity AbrirEntregables--><g class="entity" data-qualified-name="AbrirEntregables" data-source-line="20" id="ent0016"><rect fill="#CDEBA5" height="37.6094" rx="2.5" ry="2.5" style="stroke:#181818;stroke-width:0.5;" width="214.5508" x="2405.5" y="158"/><text fill="#000000" font-family="sans-serif" font-size="14" lengthAdjust="spacing" textLength="194.5508" x="2415.5" y="182.5332">:Collaboration AbrirEntregables</text></g><!--entity AbrirInvestigadores--><g class="entity" data-qualified-name="AbrirInvestigadores" data-source-line="21" id="ent0017"><rect fill="#CDEBA5" height="37.6094" rx="2.5" ry="2.5" style="stroke:#181818;stroke-width:0.5;" width="230.8887" x="2655.5" y="158"/><text fill="#000000" font-family="sans-serif" font-size="14" lengthAdjust="spacing" textLength="210.8887" x="2665.5" y="182.5332">:Collaboration AbrirInvestigadores</text></g><!--entity AbrirProyectos--><g class="entity" data-qualified-name="AbrirProyectos" data-source-line="22" id="ent0018"><rect fill="#CDEBA5" height="37.6094" rx="2.5" ry="2.5" style="stroke:#181818;stroke-width:0.5;" width="202.082" x="2922" y="158"/><text fill="#000000" font-family="sans-serif" font-size="14" lengthAdjust="spacing" textLength="182.082" x="2932" y="182.5332">:Collaboration AbrirProyectos</text></g><!--link EstadoEntrada to AgregarInvestigadorView--><g class="link" data-entity-1="ent0001" data-entity-2="ent0003" data-link-type="dependency" data-source-line="24" id="lnk19"><path d="M179.34,61 C360.06,61 771.45,61 953.78,61" fill="none" id="EstadoEntrada-to-AgregarInvestigadorView" style="stroke:#181818;stroke-width:1;"/><polygon fill="#181818" points="958.78,61,949.78,57,953.78,61,949.78,65,958.78,61" style="stroke:#181818;stroke-width:1;stroke-linejoin:miter;stroke-miterlimit:10;"/><text fill="#000000" font-family="sans-serif" font-size="13" lengthAdjust="spacing" textLength="184.9897" x="477" y="54.4951">agregarInvestigador(proyectoId)</text></g><!--link AgregarInvestigadorView to ProyectoController--><g class="link" data-entity-1="ent0003" data-entity-2="ent0004" data-link-type="dependency" data-source-line="26" id="lnk20"><path d="M958.81,70.42 C814.55,84.18 544,110 544,110 C544,110 544,128 544,128 C544,128 547.0898,139.4347 550.7798,153.0247" fill="none" id="AgregarInvestigadorView-to-ProyectoController" style="stroke:#181818;stroke-width:1;"/><polygon fill="#181818" points="552.09,157.85,553.5919,148.1163,550.7798,153.0247,545.8714,150.2126,552.09,157.85" style="stroke:#181818;stroke-width:1;stroke-linejoin:miter;stroke-miterlimit:10;"/><text fill="#000000" font-family="sans-serif" font-size="13" lengthAdjust="spacing" textLength="184.2661" x="545" y="124.4951">prepararCandidatos(proyectoId)</text></g><!--link AgregarInvestigadorView to ProyectoController--><g class="link" data-entity-1="ent0003" data-entity-2="ent0004" data-link-type="dependency" data-source-line="32" id="lnk26"><path d="M958.89,78.59 C885.18,92.46 792,110 792,110 C792,110 734,128 734,128 C734,128 678.4657,143.0615 628.2357,156.6815" fill="none" id="AgregarInvestigadorView-to-ProyectoController-1" style="stroke:#181818;stroke-width:1;"/><polygon fill="#181818" points="623.41,157.99,633.1431,159.4953,628.2357,156.6815,631.0495,151.7741,623.41,157.99" style="stroke:#181818;stroke-width:1;stroke-linejoin:miter;stroke-miterlimit:10;"/><text fill="#000000" font-family="sans-serif" font-size="13" lengthAdjust="spacing" textLength="270.2515" x="793" y="124.4951">asociarInvestigador(proyectoId, investigadorId)</text></g><!--link ProyectoController to ProyectoRepository--><g class="link" data-entity-1="ent0004" data-entity-2="ent0005" data-link-type="dependency" data-source-line="27" id="lnk21"><path d="M488.87,188.42 C396.52,202.53 243,226 243,226 C243,226 243,244 243,244 C243,244 277.2718,258.4298 309.6218,272.0498" fill="none" id="ProyectoController-to-ProyectoRepository" style="stroke:#181818;stroke-width:1;"/><polygon fill="#181818" points="314.23,273.99,307.4873,266.8111,309.6218,272.0498,304.3831,274.1843,314.23,273.99" style="stroke:#181818;stroke-width:1;stroke-linejoin:miter;stroke-miterlimit:10;"/><text fill="#000000" font-family="sans-serif" font-size="13" lengthAdjust="spacing" textLength="144.5234" x="244" y="240.4951">obtenerPorId(proyectoId)</text></g><!--link ProyectoController to ProyectoRepository--><g class="link" data-entity-1="ent0004" data-entity-2="ent0005" data-link-type="dependency" data-source-line="33" id="lnk27"><path d="M507.47,196.01 C470.02,209.63 425,226 425,226 C425,226 399.2968,250.9365 379.1668,270.4865" fill="none" id="ProyectoController-to-ProyectoRepository-1" style="stroke:#181818;stroke-width:1;"/><polygon fill="#181818" points="375.58,273.97,384.8231,270.5692,379.1668,270.4865,379.2495,264.8303,375.58,273.97" style="stroke:#181818;stroke-width:1;stroke-linejoin:miter;stroke-miterlimit:10;"/><text fill="#000000" font-family="sans-serif" font-size="13" lengthAdjust="spacing" textLength="270.2515" x="426" y="240.4951">asociarInvestigador(proyectoId, investigadorId)</text></g><!--link ProyectoController to InvestigadorRepository--><g class="link" data-entity-1="ent0004" data-entity-2="ent0006" data-link-type="dependency" data-source-line="28" id="lnk22"><path d="M612.53,196.01 C654.53,209.63 705,226 705,226 C705,226 719.2584,250.1142 730.7984,269.6642" fill="none" id="ProyectoController-to-InvestigadorRepository" style="stroke:#181818;stroke-width:1;"/><polygon fill="#181818" points="733.34,273.97,732.2097,264.1862,730.7984,269.6642,725.3204,268.2528,733.34,273.97" style="stroke:#181818;stroke-width:1;stroke-linejoin:miter;stroke-miterlimit:10;"/><text fill="#000000" font-family="sans-serif" font-size="13" lengthAdjust="spacing" textLength="190.0488" x="716" y="240.4951">obtenerNoAsociados(proyectoId)</text></g><!--link ProyectoController to CargaTrabajoRepository--><g class="link" data-entity-1="ent0004" data-entity-2="ent0007" data-link-type="dependency" data-source-line="29" id="lnk23"><path d="M625.18,187.14 C729.05,201.07 915,226 915,226 C915,226 937.8772,250.7473 955.9372,270.2973" fill="none" id="ProyectoController-to-CargaTrabajoRepository" style="stroke:#181818;stroke-width:1;"/><polygon fill="#181818" points="959.33,273.97,956.1611,264.6449,955.9372,270.2973,950.2848,270.0733,959.33,273.97" style="stroke:#181818;stroke-width:1;stroke-linejoin:miter;stroke-miterlimit:10;"/><text fill="#000000" font-family="sans-serif" font-size="13" lengthAdjust="spacing" textLength="157.5361" x="932" y="240.4951">obtenerCargas(candidatos)</text></g><!--link ProyectoController to ProyectoController--><g class="link" data-entity-1="ent0004" data-entity-2="ent0004" data-link-type="dependency" data-source-line="30" id="lnk24"><path d="M625.35,171.58 C644.91,171.8 660,173.6 660,177 C660,180.4 649.9097,182.1438 630.3497,182.3638" fill="none" id="ProyectoController-to-ProyectoController" style="stroke:#181818;stroke-width:1;"/><polygon fill="#181818" points="625.35,182.42,634.3944,186.3185,630.3497,182.3638,634.3044,178.319,625.35,182.42" style="stroke:#181818;stroke-width:1;stroke-linejoin:miter;stroke-miterlimit:10;"/><text fill="#000000" font-family="sans-serif" font-size="13" lengthAdjust="spacing" textLength="226.897" x="666" y="182.4951">evaluarCompatibilidadYDisponibilidad()</text></g><!--link ProyectoController to ProyectoController--><g class="link" data-entity-1="ent0004" data-entity-2="ent0004" data-link-type="dependency" data-source-line="31" id="lnk25"><path d="M625.33,169.08 C727.28,163.33 898,165.97 898,177 C898,188.03 732.2721,190.9516 630.3221,185.2016" fill="none" id="ProyectoController-to-ProyectoController-1" style="stroke:#181818;stroke-width:1;"/><polygon fill="#181818" points="625.33,184.92,634.0905,189.4204,630.3221,185.2016,634.541,181.4331,625.33,184.92" style="stroke:#181818;stroke-width:1;stroke-linejoin:miter;stroke-miterlimit:10;"/><text fill="#000000" font-family="sans-serif" font-size="13" lengthAdjust="spacing" textLength="216.0361" x="904" y="182.4951">recomendarMenorCargaCompatible()</text></g><!--link ProyectoRepository to Proyecto--><g class="link" data-entity-1="ent0005" data-entity-2="ent0008" data-link-type="association" data-source-line="34" id="lnk28"><path d="M357,312.24 C357,329.59 357,355.52 357,372.84" fill="none" id="ProyectoRepository-Proyecto" style="stroke:#181818;stroke-width:1;"/></g><!--link InvestigadorRepository to Investigador--><g class="link" data-entity-1="ent0006" data-entity-2="ent0009" data-link-type="association" data-source-line="35" id="lnk29"><path d="M744,312.24 C744,329.59 744,355.52 744,372.84" fill="none" id="InvestigadorRepository-Investigador" style="stroke:#181818;stroke-width:1;"/></g><!--link CargaTrabajoRepository to CargaTrabajo--><g class="link" data-entity-1="ent0007" data-entity-2="ent0010" data-link-type="association" data-source-line="36" id="lnk30"><path d="M976,312.24 C976,329.59 976,355.52 976,372.84" fill="none" id="CargaTrabajoRepository-CargaTrabajo" style="stroke:#181818;stroke-width:1;"/></g><!--link AgregarInvestigadorView to EstadoSalida--><g class="link" data-entity-1="ent0003" data-entity-2="ent0011" data-link-type="dependency" data-source-line="37" id="lnk31"><path d="M1056.56,80.03 C1066.93,99.58 1082,128 1082,128 C1082,128 1135.5061,143.0187 1184.0261,156.6387" fill="none" id="AgregarInvestigadorView-to-EstadoSalida" style="stroke:#181818;stroke-width:1;stroke-dasharray:7,7;"/><polygon fill="#181818" points="1188.84,157.99,1181.256,151.7065,1184.0261,156.6387,1179.0939,159.4088,1188.84,157.99" style="stroke:#181818;stroke-width:1;stroke-linejoin:miter;stroke-miterlimit:10;"/><text fill="#000000" font-family="sans-serif" font-size="13" lengthAdjust="spacing" textLength="132.2344" x="1083" y="124.4951">investigadorAsociado()</text></g><!--link AgregarInvestigadorView to EstadoSalida--><g class="link" data-entity-1="ent0003" data-entity-2="ent0011" data-link-type="dependency" data-source-line="38" id="lnk32"><path d="M1111.91,80.01 C1161,93.63 1220,110 1220,110 C1220,110 1231.9748,133.9474 1241.7448,153.4974" fill="none" id="AgregarInvestigadorView-to-EstadoSalida-1" style="stroke:#181818;stroke-width:1;stroke-dasharray:7,7;"/><polygon fill="#181818" points="1243.98,157.97,1243.5348,148.1312,1241.7448,153.4974,1236.3787,151.7075,1243.98,157.97" style="stroke:#181818;stroke-width:1;stroke-linejoin:miter;stroke-miterlimit:10;"/><text fill="#000000" font-family="sans-serif" font-size="13" lengthAdjust="spacing" textLength="121.3926" x="1229" y="124.4951">cancelarAsignacion()</text></g><!--link AgregarInvestigadorView to EditarProyecto--><g class="link" data-entity-1="ent0003" data-entity-2="ent0012" data-link-type="dependency" data-source-line="39" id="lnk33"><path d="M1135.16,75.56 C1227.42,89.76 1359,110 1359,110 C1359,110 1404.6148,135.9463 1438.9548,155.4963" fill="none" id="AgregarInvestigadorView-to-EditarProyecto" style="stroke:#181818;stroke-width:1;stroke-dasharray:7,7;"/><polygon fill="#181818" points="1443.3,157.97,1437.4577,150.0411,1438.9548,155.4963,1433.4997,156.9934,1443.3,157.97" style="stroke:#181818;stroke-width:1;stroke-linejoin:miter;stroke-miterlimit:10;"/><text fill="#000000" font-family="sans-serif" font-size="13" lengthAdjust="spacing" textLength="92.479" x="1391" y="124.4951">editarProyecto()</text></g><!--link AgregarInvestigadorView to EliminarProyecto--><g class="link" data-entity-1="ent0003" data-entity-2="ent0013" data-link-type="dependency" data-source-line="40" id="lnk34"><path d="M1135.18,71.51 C1264.91,85.51 1492,110 1492,110 C1492,110 1584.959,137.0235 1652.169,156.5735" fill="none" id="AgregarInvestigadorView-to-EliminarProyecto" style="stroke:#181818;stroke-width:1;stroke-dasharray:7,7;"/><polygon fill="#181818" points="1656.97,157.97,1649.4454,151.6155,1652.169,156.5735,1647.211,159.2971,1656.97,157.97" style="stroke:#181818;stroke-width:1;stroke-linejoin:miter;stroke-miterlimit:10;"/><text fill="#000000" font-family="sans-serif" font-size="13" lengthAdjust="spacing" textLength="105.4727" x="1553" y="124.4951">eliminarProyecto()</text></g><!--link AgregarInvestigadorView to AgregarInvestigador--><g class="link" data-entity-1="ent0003" data-entity-2="ent0014" data-link-type="dependency" data-source-line="41" id="lnk35"><path d="M1135.17,68.83 C1306.34,82.08 1667,110 1667,110 C1667,110 1796.9077,137.3879 1889.5777,156.9379" fill="none" id="AgregarInvestigadorView-to-AgregarInvestigador" style="stroke:#181818;stroke-width:1;stroke-dasharray:7,7;"/><polygon fill="#181818" points="1894.47,157.97,1886.4895,152.1984,1889.5777,156.9379,1884.8381,160.0261,1894.47,157.97" style="stroke:#181818;stroke-width:1;stroke-linejoin:miter;stroke-miterlimit:10;"/><text fill="#000000" font-family="sans-serif" font-size="13" lengthAdjust="spacing" textLength="124.2871" x="1751" y="124.4951">agregarInvestigador()</text></g><!--link AgregarInvestigadorView to EliminarInvestigador--><g class="link" data-entity-1="ent0003" data-entity-2="ent0015" data-link-type="dependency" data-source-line="42" id="lnk36"><path d="M1135.39,67.07 C1350.54,79.41 1884,110 1884,110 C1884,110 2037.5586,137.537 2146.5186,157.087" fill="none" id="AgregarInvestigadorView-to-EliminarInvestigador" style="stroke:#181818;stroke-width:1;stroke-dasharray:7,7;"/><polygon fill="#181818" points="2151.44,157.97,2143.2879,152.4434,2146.5186,157.087,2141.875,160.3177,2151.44,157.97" style="stroke:#181818;stroke-width:1;stroke-linejoin:miter;stroke-miterlimit:10;"/><text fill="#000000" font-family="sans-serif" font-size="13" lengthAdjust="spacing" textLength="124.9917" x="1983" y="124.4951">eliminarInvestigador()</text></g><!--link AgregarInvestigadorView to AbrirEntregables--><g class="link" data-entity-1="ent0003" data-entity-2="ent0016" data-link-type="dependency" data-source-line="43" id="lnk37"><path d="M1135.39,65.97 C1391.51,77.47 2116,110 2116,110 C2116,110 2282.8077,137.7298 2400.3677,157.2798" fill="none" id="AgregarInvestigadorView-to-AbrirEntregables" style="stroke:#181818;stroke-width:1;stroke-dasharray:7,7;"/><polygon fill="#181818" points="2405.3,158.1,2397.0781,152.6778,2400.3677,157.2798,2395.7657,160.5694,2405.3,158.1" style="stroke:#181818;stroke-width:1;stroke-linejoin:miter;stroke-miterlimit:10;"/><text fill="#000000" font-family="sans-serif" font-size="13" lengthAdjust="spacing" textLength="104.0444" x="2223" y="124.4951">abrirEntregables()</text></g><!--link AgregarInvestigadorView to AbrirInvestigadores--><g class="link" data-entity-1="ent0003" data-entity-2="ent0017" data-link-type="dependency" data-source-line="44" id="lnk38"><path d="M1135.09,65.28 C1425.76,76.1 2336,110 2336,110 C2336,110 2521.4766,138.14 2650.3366,157.69" fill="none" id="AgregarInvestigadorView-to-AbrirInvestigadores" style="stroke:#181818;stroke-width:1;stroke-dasharray:7,7;"/><polygon fill="#181818" points="2655.28,158.44,2646.9818,153.1353,2650.3366,157.69,2645.7818,161.0448,2655.28,158.44" style="stroke:#181818;stroke-width:1;stroke-linejoin:miter;stroke-miterlimit:10;"/><text fill="#000000" font-family="sans-serif" font-size="13" lengthAdjust="spacing" textLength="119.2153" x="2453" y="124.4951">abrirInvestigadores()</text></g><!--link AgregarInvestigadorView to AbrirProyectos--><g class="link" data-entity-1="ent0003" data-entity-2="ent0018" data-link-type="dependency" data-source-line="45" id="lnk39"><path d="M1135.26,64.76 C1461.58,74.97 2581,110 2581,110 C2581,110 2904,158 2904,158 C2904,158 2906.146,158.3236 2916.876,159.9436" fill="none" id="AgregarInvestigadorView-to-AbrirProyectos" style="stroke:#181818;stroke-width:1;stroke-dasharray:7,7;"/><polygon fill="#181818" points="2921.82,160.69,2913.518,155.3912,2916.876,159.9436,2912.3237,163.3016,2921.82,160.69" style="stroke:#181818;stroke-width:1;stroke-linejoin:miter;stroke-miterlimit:10;"/><text fill="#000000" font-family="sans-serif" font-size="13" lengthAdjust="spacing" textLength="92.4663" x="2695" y="124.4951">abrirProyectos()</text></g><?plantuml-src dPJVRvim4CVV-Ikix2MLbZvKQxNoK8bIAkLXIvH5bVeq7TX2NXqR7QnJDEr_tv44Wi4CPxpvVFVnb_jLlabT0CAEAQb5jIy4AupQruSWG95Le7Cbs8VuANcCRjaiN6zMhqcyNNsF7fV9PhkQCIXPKbR0JQ8h10v10TaRv891ZY87NEftKLOo9m-idMSE-_ngndu7ZBxEctStzydpFOk6xYzI_EfxfxSfl_lCrcZsP3In8JL6AO5zn-URAFwKj8uRKPXILWRt8uxTXoUTOy0SjWWf_9WcDn8y7lPuBlXpSSM-WP9KC5TKJBc3r21KqcYMS5a1DdgF1Clamr1o9tMVqZDwS1pzS40vx1Ue6k1S5pxgKfHOJm9fIPKeZz9wHbzEz-qkohRxqfeSTq2jAGYi6MOBN3oCJLxecknvSK8j-LKGZ4Io1IViS4H3Lg2ern36e3cr92coWCCGjkYGpfCMCfDMGWjS6rno7uPxl5lELnEL9fDqwwN8FVyjxN1TphFsBoT_hPiayGxg9-N8x0egQohhuUMlJx8iZ6wEyuk8r3bc9pG7_2AqESfhy4eGQxIG8q0u96kiCpuosRcuiB3_Ypup27tUkUwwroxMnBiBMhjPktSiJzVN3zQk3IsPJMlz8z5303LF9XHGiCmrP3JUK-7MfgOsiivJmRq5JU4zomJ0SUTU87uwR8vmMAVqz7OnYUbPV03s1ZunRACFfjs_9q9xfk2_?></g></svg>