<svg xmlns="http://www.w3.org/2000/svg" xmlns:xlink="http://www.w3.org/1999/xlink" contentStyleType="text/css" height="640px" preserveAspectRatio="none" style="width:1610px;height:640px;background:#FFFFFF;" version="1.1" viewBox="0 0 1610 640" width="1610px" zoomAndPan="magnify"><title>Diagrama de secuencia - abrirPublicaciones</title><defs/><g><text fill="#000000" font-family="sans-serif" font-size="14" font-weight="bold" lengthAdjust="spacing" textLength="293.3438" x="660.3098" y="29.5332">Diagrama de secuencia - abrirPublicaciones</text><line style="stroke:#181818;stroke-width:0.5;stroke-dasharray:5.0,5.0;" x1="46" x2="46" y1="121.2188" y2="558.1406"/><line style="stroke:#181818;stroke-width:0.5;stroke-dasharray:5.0,5.0;" x1="302.6211" x2="302.6211" y1="121.2188" y2="558.1406"/><line style="stroke:#181818;stroke-width:0.5;stroke-dasharray:5.0,5.0;" x1="552.4771" x2="552.4771" y1="121.2188" y2="558.1406"/><line style="stroke:#181818;stroke-width:0.5;stroke-dasharray:5.0,5.0;" x1="785.4575" x2="785.4575" y1="121.2188" y2="558.1406"/><line style="stroke:#181818;stroke-width:0.5;stroke-dasharray:5.0,5.0;" x1="913.9468" x2="913.9468" y1="121.2188" y2="558.1406"/><line style="stroke:#181818;stroke-width:0.5;stroke-dasharray:5.0,5.0;" x1="1055.229" x2="1055.229" y1="121.2188" y2="558.1406"/><line style="stroke:#181818;stroke-width:0.5;stroke-dasharray:5.0,5.0;" x1="1247.062" x2="1247.062" y1="121.2188" y2="558.1406"/><line style="stroke:#181818;stroke-width:0.5;stroke-dasharray:5.0,5.0;" x1="1560.1294" x2="1560.1294" y1="121.2188" y2="558.1406"/><text fill="#000000" font-family="sans-serif" font-size="14" lengthAdjust="spacing" textLength="77.0479" x="5" y="118.1426">Coordinador</text><ellipse cx="46.5239" cy="52.1094" fill="#E2E2F0" rx="8" ry="8" style="stroke:#181818;stroke-width:0.5;"/><path d="M46.5239,60.1094 L46.5239,87.1094 M33.5239,68.1094 L59.5239,68.1094 M46.5239,87.1094 L33.5239,102.1094 M46.5239,87.1094 L59.5239,102.1094 " fill="none" style="stroke:#181818;stroke-width:0.5;"/><text fill="#000000" font-family="sans-serif" font-size="14" lengthAdjust="spacing" textLength="77.0479" x="5" y="571.6738">Coordinador</text><ellipse cx="46.5239" cy="583.25" fill="#E2E2F0" rx="8" ry="8" style="stroke:#181818;stroke-width:0.5;"/><path d="M46.5239,591.25 L46.5239,618.25 M33.5239,599.25 L59.5239,599.25 M46.5239,618.25 L33.5239,633.25 M46.5239,618.25 L59.5239,633.25 " fill="none" style="stroke:#181818;stroke-width:0.5;"/><rect fill="#E2E2F0" height="49.2188" rx="2.5" ry="2.5" style="stroke:#181818;stroke-width:0.5;" width="161.0889" x="222.6211" y="71"/><text fill="#000000" font-family="sans-serif" font-size="14" lengthAdjust="spacing" textLength="147.0889" x="229.6211" y="92.5332">abrirPublicacionesPage</text><text fill="#000000" font-family="sans-serif" font-size="14" lengthAdjust="spacing" textLength="45.8965" x="280.2173" y="110.1426">(React)</text><rect fill="#E2E2F0" height="49.2188" rx="2.5" ry="2.5" style="stroke:#181818;stroke-width:0.5;" width="161.0889" x="222.6211" y="557.1406"/><text fill="#000000" font-family="sans-serif" font-size="14" lengthAdjust="spacing" textLength="147.0889" x="229.6211" y="578.6738">abrirPublicacionesPage</text><text fill="#000000" font-family="sans-serif" font-size="14" lengthAdjust="spacing" textLength="45.8965" x="280.2173" y="596.2832">(React)</text><rect fill="#E2E2F0" height="49.2188" rx="2.5" ry="2.5" style="stroke:#181818;stroke-width:0.5;" width="146.2891" x="479.4771" y="71"/><text fill="#000000" font-family="sans-serif" font-size="14" lengthAdjust="spacing" textLength="132.2891" x="486.4771" y="92.5332">PublicacionController</text><text fill="#000000" font-family="sans-serif" font-size="14" lengthAdjust="spacing" textLength="82.4824" x="511.3804" y="110.1426">(Spring Boot)</text><rect fill="#E2E2F0" height="49.2188" rx="2.5" ry="2.5" style="stroke:#181818;stroke-width:0.5;" width="146.2891" x="479.4771" y="557.1406"/><text fill="#000000" font-family="sans-serif" font-size="14" lengthAdjust="spacing" textLength="132.2891" x="486.4771" y="578.6738">PublicacionController</text><text fill="#000000" font-family="sans-serif" font-size="14" lengthAdjust="spacing" textLength="82.4824" x="511.3804" y="596.2832">(Spring Boot)</text><rect fill="#E2E2F0" height="31.6094" rx="2.5" ry="2.5" style="stroke:#181818;stroke-width:0.5;" width="103.4893" x="734.4575" y="88.6094"/><text fill="#000000" font-family="sans-serif" font-size="14" lengthAdjust="spacing" textLength="89.4893" x="741.4575" y="110.1426">SesionService</text><rect fill="#E2E2F0" height="31.6094" rx="2.5" ry="2.5" style="stroke:#181818;stroke-width:0.5;" width="103.4893" x="734.4575" y="557.1406"/><text fill="#000000" font-family="sans-serif" font-size="14" lengthAdjust="spacing" textLength="89.4893" x="741.4575" y="578.6738">SesionService</text><rect fill="#E2E2F0" height="31.6094" rx="2.5" ry="2.5" style="stroke:#181818;stroke-width:0.5;" width="132.2822" x="847.9468" y="88.6094"/><text fill="#000000" font-family="sans-serif" font-size="14" lengthAdjust="spacing" textLength="118.2822" x="854.9468" y="110.1426">PublicacionService</text><rect fill="#E2E2F0" height="31.6094" rx="2.5" ry="2.5" style="stroke:#181818;stroke-width:0.5;" width="132.2822" x="847.9468" y="557.1406"/><text fill="#000000" font-family="sans-serif" font-size="14" lengthAdjust="spacing" textLength="118.2822" x="854.9468" y="578.6738">PublicacionService</text><rect fill="#E2E2F0" height="31.6094" rx="2.5" ry="2.5" style="stroke:#181818;stroke-width:0.5;" width="130.7305" x="990.229" y="88.6094"/><text fill="#000000" font-family="sans-serif" font-size="14" lengthAdjust="spacing" textLength="116.7305" x="997.229" y="110.1426">PoliticaPublicacion</text><rect fill="#E2E2F0" height="31.6094" rx="2.5" ry="2.5" style="stroke:#181818;stroke-width:0.5;" width="130.7305" x="990.229" y="557.1406"/><text fill="#000000" font-family="sans-serif" font-size="14" lengthAdjust="spacing" textLength="116.7305" x="997.229" y="578.6738">PoliticaPublicacion</text><rect fill="#E2E2F0" height="31.6094" rx="2.5" ry="2.5" style="stroke:#181818;stroke-width:0.5;" width="152.5166" x="1171.062" y="88.6094"/><text fill="#000000" font-family="sans-serif" font-size="14" lengthAdjust="spacing" textLength="138.5166" x="1178.062" y="110.1426">PublicacionRepository</text><rect fill="#E2E2F0" height="31.6094" rx="2.5" ry="2.5" style="stroke:#181818;stroke-width:0.5;" width="152.5166" x="1171.062" y="557.1406"/><text fill="#000000" font-family="sans-serif" font-size="14" lengthAdjust="spacing" textLength="138.5166" x="1178.062" y="578.6738">PublicacionRepository</text><text fill="#000000" font-family="sans-serif" font-size="14" lengthAdjust="spacing" textLength="91.834" x="1512.1294" y="118.1426">Base de Datos</text><path d="M1543.0464,67.6094 C1543.0464,57.6094 1561.0464,57.6094 1561.0464,57.6094 C1561.0464,57.6094 1579.0464,57.6094 1579.0464,67.6094 L1579.0464,93.6094 C1579.0464,103.6094 1561.0464,103.6094 1561.0464,103.6094 C1561.0464,103.6094 1543.0464,103.6094 1543.0464,93.6094 L1543.0464,67.6094 " fill="#E2E2F0" style="stroke:#181818;stroke-width:1.5;"/><path d="M1543.0464,67.6094 C1543.0464,77.6094 1561.0464,77.6094 1561.0464,77.6094 C1561.0464,77.6094 1579.0464,77.6094 1579.0464,67.6094 " fill="none" style="stroke:#181818;stroke-width:1.5;"/><text fill="#000000" font-family="sans-serif" font-size="14" lengthAdjust="spacing" textLength="91.834" x="1512.1294" y="571.6738">Base de Datos</text><path d="M1543.0464,584.75 C1543.0464,574.75 1561.0464,574.75 1561.0464,574.75 C1561.0464,574.75 1579.0464,574.75 1579.0464,584.75 L1579.0464,610.75 C1579.0464,620.75 1561.0464,620.75 1561.0464,620.75 C1561.0464,620.75 1543.0464,620.75 1543.0464,610.75 L1543.0464,584.75 " fill="#E2E2F0" style="stroke:#181818;stroke-width:1.5;"/><path d="M1543.0464,584.75 C1543.0464,594.75 1561.0464,594.75 1561.0464,594.75 C1561.0464,594.75 1579.0464,594.75 1579.0464,584.75 " fill="none" style="stroke:#181818;stroke-width:1.5;"/><polygon fill="#181818" points="291.1655,149.5703,301.1655,153.5703,291.1655,157.5703,295.1655,153.5703" style="stroke:#181818;stroke-width:1;"/><line style="stroke:#181818;stroke-width:1;" x1="46.5239" x2="297.1655" y1="153.5703" y2="153.5703"/><text fill="#000000" font-family="sans-serif" font-size="13" lengthAdjust="spacing" textLength="160.3989" x="53.5239" y="148.7139">Solicita abrirPublicaciones()</text><polygon fill="#181818" points="540.6216,179.9219,550.6216,183.9219,540.6216,187.9219,544.6216,183.9219" style="stroke:#181818;stroke-width:1;"/><line style="stroke:#181818;stroke-width:1;" x1="303.1655" x2="546.6216" y1="183.9219" y2="183.9219"/><text fill="#000000" font-family="sans-serif" font-size="13" lengthAdjust="spacing" textLength="225.4561" x="310.1655" y="179.0654">GET /api/publicaciones?filtro= + cookie</text><polygon fill="#181818" points="774.2021,210.2734,784.2021,214.2734,774.2021,218.2734,778.2021,214.2734" style="stroke:#181818;stroke-width:1;"/><line style="stroke:#181818;stroke-width:1;" x1="552.6216" x2="780.2021" y1="214.2734" y2="214.2734"/><text fill="#000000" font-family="sans-serif" font-size="13" lengthAdjust="spacing" textLength="209.5806" x="559.6216" y="209.417">obtenerSesionActual(authentication)</text><polygon fill="#181818" points="563.6216,240.625,553.6216,244.625,563.6216,248.625,559.6216,244.625" style="stroke:#181818;stroke-width:1;"/><line style="stroke:#181818;stroke-width:1;stroke-dasharray:2.0,2.0;" x1="557.6216" x2="785.2021" y1="244.625" y2="244.625"/><text fill="#000000" font-family="sans-serif" font-size="13" lengthAdjust="spacing" textLength="101.1753" x="569.6216" y="239.7686">Actor autenticado</text><polygon fill="#181818" points="902.0879,270.9766,912.0879,274.9766,902.0879,278.9766,906.0879,274.9766" style="stroke:#181818;stroke-width:1;"/><line style="stroke:#181818;stroke-width:1;" x1="552.6216" x2="908.0879" y1="274.9766" y2="274.9766"/><text fill="#000000" font-family="sans-serif" font-size="13" lengthAdjust="spacing" textLength="96.7891" x="559.6216" y="270.1201">listar(filtro, actor)</text><path d="M1060,287.9766 L1060,313.9766 L1359,313.9766 L1359,297.9766 L1349,287.9766 L1060,287.9766 " fill="#FEFFDD" style="stroke:#181818;stroke-width:0.5;"/><path d="M1349,287.9766 L1349,297.9766 L1359,297.9766 L1349,287.9766 " fill="#FEFFDD" style="stroke:#181818;stroke-width:0.5;"/><text fill="#000000" font-family="sans-serif" font-size="13" lengthAdjust="spacing" textLength="278.9287" x="1066" y="306.4717">Responsabilidad interna: permitirConsultaGlobal</text><polygon fill="#181818" points="1235.3203,337.6797,1245.3203,341.6797,1235.3203,345.6797,1239.3203,341.6797" style="stroke:#181818;stroke-width:1;"/><line style="stroke:#181818;stroke-width:1;" x1="914.0879" x2="1241.3203" y1="341.6797" y2="341.6797"/><text fill="#000000" font-family="sans-serif" font-size="13" lengthAdjust="spacing" textLength="309.2324" x="921.0879" y="336.8232">findByRetiradaOrderByFechaActualizacionDesc(filtro)</text><polygon fill="#181818" points="1549.0464,384.3828,1559.0464,388.3828,1549.0464,392.3828,1553.0464,388.3828" style="stroke:#181818;stroke-width:1;"/><line style="stroke:#181818;stroke-width:1;" x1="1247.3203" x2="1555.0464" y1="388.3828" y2="388.3828"/><text fill="#000000" font-family="sans-serif" font-size="13" lengthAdjust="spacing" textLength="183.5107" x="1254.3203" y="367.1748">SELECT * FROM publicaciones</text><text fill="#000000" font-family="sans-serif" font-size="13" lengthAdjust="spacing" textLength="289.7261" x="1254.3203" y="383.5264">WHERE retirada = false AND coincide_filtro = true</text><polygon fill="#181818" points="1258.3203,414.7344,1248.3203,418.7344,1258.3203,422.7344,1254.3203,418.7344" style="stroke:#181818;stroke-width:1;"/><line style="stroke:#181818;stroke-width:1;stroke-dasharray:2.0,2.0;" x1="1252.3203" x2="1560.0464" y1="418.7344" y2="418.7344"/><text fill="#000000" font-family="sans-serif" font-size="13" lengthAdjust="spacing" textLength="124.2871" x="1264.3203" y="413.8779">Publicaciones activas</text><polygon fill="#181818" points="925.0879,445.0859,915.0879,449.0859,925.0879,453.0859,921.0879,449.0859" style="stroke:#181818;stroke-width:1;"/><line style="stroke:#181818;stroke-width:1;stroke-dasharray:2.0,2.0;" x1="919.0879" x2="1246.3203" y1="449.0859" y2="449.0859"/><text fill="#000000" font-family="sans-serif" font-size="13" lengthAdjust="spacing" textLength="124.2871" x="931.0879" y="444.2295">Publicaciones activas</text><polygon fill="#181818" points="563.6216,475.4375,553.6216,479.4375,563.6216,483.4375,559.6216,479.4375" style="stroke:#181818;stroke-width:1;"/><line style="stroke:#181818;stroke-width:1;stroke-dasharray:2.0,2.0;" x1="557.6216" x2="913.0879" y1="479.4375" y2="479.4375"/><text fill="#000000" font-family="sans-serif" font-size="13" lengthAdjust="spacing" textLength="153.2134" x="569.6216" y="474.5811">Resultado del caso de uso</text><polygon fill="#181818" points="314.1655,505.7891,304.1655,509.7891,314.1655,513.7891,310.1655,509.7891" style="stroke:#181818;stroke-width:1;"/><line style="stroke:#181818;stroke-width:1;stroke-dasharray:2.0,2.0;" x1="308.1655" x2="551.6216" y1="509.7891" y2="509.7891"/><text fill="#000000" font-family="sans-serif" font-size="13" lengthAdjust="spacing" textLength="181.3779" x="320.1655" y="504.9326">200 OK (PublicacionResponse)</text><polygon fill="#181818" points="57.5239,536.1406,47.5239,540.1406,57.5239,544.1406,53.5239,540.1406" style="stroke:#181818;stroke-width:1;"/><line style="stroke:#181818;stroke-width:1;stroke-dasharray:2.0,2.0;" x1="51.5239" x2="302.1655" y1="540.1406" y2="540.1406"/><text fill="#000000" font-family="sans-serif" font-size="13" lengthAdjust="spacing" textLength="232.6416" x="63.5239" y="535.2842">Presenta PUBLICACIONES_ABIERTAS</text><!--SRC=[TPFHJzim4CRV_LUSU6gt8T0U8p6KD85LOnIrJ7j1GbVdsfvcxCXsaBg_VkSai6I3bogsl-_E_jtNoD4Gb8nxZqy8DK4WtPBLZ70AkFNixzgjOOsQdQMWK4VdOU6ShzbYxRngq4VMtA2DSFA_umxtz61dQnBd_0Gmm9LtDfAjfywHQI7dtXb3NeoRnhFTG-7SOCyRdZet5CIq8V_CcZf9l_Dk_Qcq-_v7wmpB2aUUJfpszV7TkcjgN63XS-pKQQbKZH6t60XEYlGhX4kCBdIAib1gX19Elxp2oM2Jcd74DwOmcwiNNV88aGokgtiumuRFch7oSiT6M5x0Hz3E_M9I8awU7b46RYjLoFVBNCSMpGpRU22R04JPdAl-44vVMkLT1aJLYshtjsW7CmF38QAVzSq_GHUQkR8k4dZU7oAutG0p4qoXSJRWbWtNM0FBkxp531hoJp86Bt48hObuRTmMZHgQf7w9S0OxjdLnN9D8iSQLhyaNnolI1-pVmxyx62K5FTnehf8pLIWB0LtTL8jx-01NwzLtcE1xi3-_LkiA_50SBc27HiQOtvO2bEL_KjDZNrJEecz9bKL7gh_RP6o90pzZ6BgFWRsjUttg2tbXbKZKJd9aG6D87z26OGAJ_7m-FuVLDvXD0jgXfd5yn3EAeDp4Kv2v8jpzA6wMYtonNDrMcyUyM5Rh-tpp1m00]--></g></svg>