<svg xmlns="http://www.w3.org/2000/svg" xmlns:xlink="http://www.w3.org/1999/xlink" contentStyleType="text/css" data-diagram-type="DESCRIPTION" height="558px" preserveAspectRatio="none" style="width:1787px;height:558px;background:#FFFFFF;" version="1.1" viewBox="0 0 1787 558" width="1787px" zoomAndPan="magnify"><?plantuml 1.2026.6?><defs/><g><!--cluster abrirOpcionesPerfil--><g class="cluster" data-qualified-name="abrirOpcionesPerfil" data-source-line="4" id="ent0002"><path d="M247,6 L387.2549,6 A3.75,3.75 0 0 1 389.7549,8.5 L396.7549,29.6094 L752,29.6094 A2.5,2.5 0 0 1 754.5,32.1094 L754.5,540.5 A2.5,2.5 0 0 1 752,543 L247,543 A2.5,2.5 0 0 1 244.5,540.5 L244.5,8.5 A2.5,2.5 0 0 1 247,6" fill="none" style="stroke:#000000;stroke-width:1.5;"/><line style="stroke:#000000;stroke-width:1.5;" x1="244.5" x2="396.7549" y1="29.6094" y2="29.6094"/><text fill="#000000" font-family="sans-serif" font-size="14" font-weight="700" lengthAdjust="spacing" textLength="139.2549" x="248.5" y="22.5332">abrirOpcionesPerfil()</text></g><!--entity OpcionesPerfilView--><g class="entity" data-qualified-name="abrirOpcionesPerfil.OpcionesPerfilView" data-source-line="5" id="ent0003"><rect fill="#629EF9" height="37.6094" rx="2.5" ry="2.5" style="stroke:#181818;stroke-width:0.5;" width="141.3857" x="597" y="42"/><text fill="#000000" font-family="sans-serif" font-size="14" lengthAdjust="spacing" textLength="121.3857" x="607" y="66.5332">OpcionesPerfilView</text></g><!--entity PerfilController--><g class="entity" data-qualified-name="abrirOpcionesPerfil.PerfilController" data-source-line="6" id="ent0004"><rect fill="#B5BD68" height="37.6094" rx="2.5" ry="2.5" style="stroke:#181818;stroke-width:0.5;" width="112.5859" x="352" y="158"/><text fill="#000000" font-family="sans-serif" font-size="14" lengthAdjust="spacing" textLength="92.5859" x="362" y="182.5332">PerfilController</text></g><!--entity PerfilService--><g class="entity" data-qualified-name="abrirOpcionesPerfil.PerfilService" data-source-line="7" id="ent0005"><rect fill="#B5BD68" height="37.6094" rx="2.5" ry="2.5" style="stroke:#181818;stroke-width:0.5;" width="98.5791" x="261" y="274"/><text fill="#000000" font-family="sans-serif" font-size="14" lengthAdjust="spacing" textLength="78.5791" x="271" y="298.5332">PerfilService</text></g><!--entity SesionService--><g class="entity" data-qualified-name="abrirOpcionesPerfil.SesionService" data-source-line="8" id="ent0006"><rect fill="#B5BD68" height="37.6094" rx="2.5" ry="2.5" style="stroke:#181818;stroke-width:0.5;" width="109.4893" x="473" y="274"/><text fill="#000000" font-family="sans-serif" font-size="14" lengthAdjust="spacing" textLength="89.4893" x="483" y="298.5332">SesionService</text></g><!--entity PerfilRepository--><g class="entity" data-qualified-name="abrirOpcionesPerfil.PerfilRepository" data-source-line="9" id="ent0007"><rect fill="#F2AC4E" height="37.6094" rx="2.5" ry="2.5" style="stroke:#181818;stroke-width:0.5;" width="118.8135" x="346" y="390"/><text fill="#000000" font-family="sans-serif" font-size="14" lengthAdjust="spacing" textLength="98.8135" x="356" y="414.5332">PerfilRepository</text></g><!--entity Perfil--><g class="entity" data-qualified-name="abrirOpcionesPerfil.Perfil" data-source-line="10" id="ent0008"><rect fill="#F2AC4E" height="37.6094" rx="2.5" ry="2.5" style="stroke:#181818;stroke-width:0.5;" width="51.8965" x="379.5" y="489"/><text fill="#000000" font-family="sans-serif" font-size="14" lengthAdjust="spacing" textLength="31.8965" x="389.5" y="513.5332">Perfil</text></g><!--entity EstadoEntrada--><g class="entity" data-qualified-name="EstadoEntrada" data-source-line="3" id="ent0001"><rect fill="#CDEBA5" height="37.6094" rx="2.5" ry="2.5" style="stroke:#181818;stroke-width:0.5;" width="220.7373" x="7" y="42"/><text fill="#000000" font-family="sans-serif" font-size="14" lengthAdjust="spacing" textLength="200.7373" x="17" y="66.5332">:PANEL_PRINCIPAL_ABIERTO</text></g><!--entity EstadoSalida--><g class="entity" data-qualified-name="EstadoSalida" data-source-line="13" id="ent0009"><rect fill="#CDEBA5" height="37.6094" rx="2.5" ry="2.5" style="stroke:#181818;stroke-width:0.5;" width="223.834" x="770.5" y="158"/><text fill="#000000" font-family="sans-serif" font-size="14" lengthAdjust="spacing" textLength="203.834" x="780.5" y="182.5332">:OPCIONES_PERFIL_ABIERTO</text></g><!--entity EditarPerfil--><g class="entity" data-qualified-name="EditarPerfil" data-source-line="14" id="ent0010"><rect fill="#CDEBA5" height="37.6094" rx="2.5" ry="2.5" style="stroke:#181818;stroke-width:0.5;" width="178.7441" x="1030" y="158"/><text fill="#000000" font-family="sans-serif" font-size="14" lengthAdjust="spacing" textLength="158.7441" x="1040" y="182.5332">:Collaboration EditarPerfil</text></g><!--entity SolicitarEliminacionPerfil--><g class="entity" data-qualified-name="SolicitarEliminacionPerfil" data-source-line="15" id="ent0011"><rect fill="#CDEBA5" height="37.6094" rx="2.5" ry="2.5" style="stroke:#181818;stroke-width:0.5;" width="263.5508" x="1244.5" y="158"/><text fill="#000000" font-family="sans-serif" font-size="14" lengthAdjust="spacing" textLength="243.5508" x="1254.5" y="182.5332">:Collaboration SolicitarEliminacionPerfil</text></g><!--entity AbrirPanelPrincipal--><g class="entity" data-qualified-name="AbrirPanelPrincipal" data-source-line="16" id="ent0012"><rect fill="#CDEBA5" height="37.6094" rx="2.5" ry="2.5" style="stroke:#181818;stroke-width:0.5;" width="229.3301" x="1544" y="158"/><text fill="#000000" font-family="sans-serif" font-size="14" lengthAdjust="spacing" textLength="209.3301" x="1554" y="182.5332">:Collaboration AbrirPanelPrincipal</text></g><!--link EstadoEntrada to OpcionesPerfilView--><g class="link" data-entity-1="ent0001" data-entity-2="ent0003" data-link-type="dependency" data-source-line="18" id="lnk13"><path d="M228.14,61 C338.09,61 498.4,61 591.75,61" fill="none" id="EstadoEntrada-to-OpcionesPerfilView" style="stroke:#181818;stroke-width:1;"/><polygon fill="#181818" points="596.75,61,587.75,57,591.75,61,587.75,65,596.75,61" style="stroke:#181818;stroke-width:1;stroke-linejoin:miter;stroke-miterlimit:10;"/><text fill="#000000" font-family="sans-serif" font-size="13" lengthAdjust="spacing" textLength="119.2026" x="353" y="54.4951">abrirOpcionesPerfil()</text></g><!--link OpcionesPerfilView to PerfilController--><g class="link" data-entity-1="ent0003" data-entity-2="ent0004" data-link-type="dependency" data-source-line="20" id="lnk14"><path d="M596.64,71.95 C496.46,86.01 325.5,110 325.5,110 C325.5,110 325.5,128 325.5,128 C325.5,128 349.2917,141.7569 372.7917,155.3469" fill="none" id="OpcionesPerfilView-to-PerfilController" style="stroke:#181818;stroke-width:1;"/><polygon fill="#181818" points="377.12,157.85,371.3314,149.8818,372.7917,155.3469,367.3265,156.8071,377.12,157.85" style="stroke:#181818;stroke-width:1;stroke-linejoin:miter;stroke-miterlimit:10;"/><text fill="#000000" font-family="sans-serif" font-size="13" lengthAdjust="spacing" textLength="119.9453" x="326.5" y="124.4951">obtenerPerfilPropio()</text></g><!--link OpcionesPerfilView to PerfilController--><g class="link" data-entity-1="ent0003" data-entity-2="ent0004" data-link-type="dependency" data-source-line="23" id="lnk17"><path d="M606.34,80.01 C560.09,93.63 504.5,110 504.5,110 C504.5,110 467.2799,135.5869 438.8499,155.1369" fill="none" id="OpcionesPerfilView-to-PerfilController-1" style="stroke:#181818;stroke-width:1;"/><polygon fill="#181818" points="434.73,157.97,444.4123,156.1664,438.8499,155.1369,439.8794,149.5745,434.73,157.97" style="stroke:#181818;stroke-width:1;stroke-linejoin:miter;stroke-miterlimit:10;"/><text fill="#000000" font-family="sans-serif" font-size="13" lengthAdjust="spacing" textLength="247.8442" x="505.5" y="124.4951">prepararAccionesDisponibles(investigador)</text></g><!--link PerfilController to SesionService--><g class="link" data-entity-1="ent0004" data-entity-2="ent0006" data-link-type="dependency" data-source-line="21" id="lnk15"><path d="M438.74,196.15 C461.4,209.74 488.5,226 488.5,226 C488.5,226 502.7584,250.1142 514.2984,269.6642" fill="none" id="PerfilController-to-SesionService" style="stroke:#181818;stroke-width:1;"/><polygon fill="#181818" points="516.84,273.97,515.7097,264.1862,514.2984,269.6642,508.8204,268.2528,516.84,273.97" style="stroke:#181818;stroke-width:1;stroke-linejoin:miter;stroke-miterlimit:10;"/><text fill="#000000" font-family="sans-serif" font-size="13" lengthAdjust="spacing" textLength="209.5806" x="499.5" y="240.4951">obtenerSesionActual(authentication)</text></g><!--link PerfilController to PerfilService--><g class="link" data-entity-1="ent0004" data-entity-2="ent0005" data-link-type="dependency" data-source-line="22" id="lnk16"><path d="M364.98,196.01 C332.06,209.63 292.5,226 292.5,226 C292.5,226 292.5,244 292.5,244 C292.5,244 296.8463,255.5776 301.9363,269.1676" fill="none" id="PerfilController-to-PerfilService" style="stroke:#181818;stroke-width:1;"/><polygon fill="#181818" points="303.69,273.85,304.2792,264.0188,301.9363,269.1676,296.7874,266.8247,303.69,273.85" style="stroke:#181818;stroke-width:1;stroke-linejoin:miter;stroke-miterlimit:10;"/><text fill="#000000" font-family="sans-serif" font-size="13" lengthAdjust="spacing" textLength="190.0425" x="293.5" y="240.4951">obtenerPerfilPropio(investigador)</text></g><!--link PerfilService to PerfilRepository--><g class="link" data-entity-1="ent0005" data-entity-2="ent0007" data-link-type="dependency" data-source-line="24" id="lnk18"><path d="M306.34,312.15 C303.23,325.74 299.5,342 299.5,342 C299.5,342 299.5,360 299.5,360 C299.5,360 331.0952,374.3076 361.1752,387.9276" fill="none" id="PerfilService-to-PerfilRepository" style="stroke:#181818;stroke-width:1;"/><polygon fill="#181818" points="365.73,389.99,359.1812,382.6338,361.1752,387.9276,355.8814,389.9216,365.73,389.99" style="stroke:#181818;stroke-width:1;stroke-linejoin:miter;stroke-miterlimit:10;"/><text fill="#000000" font-family="sans-serif" font-size="13" lengthAdjust="spacing" textLength="146.6753" x="300.5" y="356.4951">obtenerPorUsuario(actor)</text></g><!--link PerfilService to PerfilRepository--><g class="link" data-entity-1="ent0005" data-entity-2="ent0007" data-link-type="dependency" data-source-line="25" id="lnk19"><path d="M360.21,310.92 C400.81,324.74 451.5,342 451.5,342 C451.5,342 451.5,360 451.5,360 C451.5,360 439.3804,372.6509 426.3504,386.2409" fill="none" id="PerfilService-to-PerfilRepository-1" style="stroke:#181818;stroke-width:1;"/><polygon fill="#181818" points="422.89,389.85,432.006,386.1219,426.3504,386.2409,426.2314,380.5853,422.89,389.85" style="stroke:#181818;stroke-width:1;stroke-linejoin:miter;stroke-miterlimit:10;"/><text fill="#000000" font-family="sans-serif" font-size="13" lengthAdjust="spacing" textLength="137.2427" x="452.5" y="356.4951">verificarPermisos(actor)</text></g><!--link PerfilRepository to Perfil--><g class="link" data-entity-1="ent0007" data-entity-2="ent0008" data-link-type="association" data-source-line="26" id="lnk20"><path d="M405.5,428.24 C405.5,445.59 405.5,471.52 405.5,488.84" fill="none" id="PerfilRepository-Perfil" style="stroke:#181818;stroke-width:1;"/></g><!--link OpcionesPerfilView to EstadoSalida--><g class="link" data-entity-1="ent0003" data-entity-2="ent0009" data-link-type="dependency" data-source-line="27" id="lnk21"><path d="M701.57,80.06 C741.71,101.35 803.5925,134.1578 843.8225,155.4878" fill="none" id="OpcionesPerfilView-to-EstadoSalida" style="stroke:#181818;stroke-width:1;stroke-dasharray:7,7;"/><polygon fill="#181818" points="848.24,157.83,842.1622,150.0801,843.8225,155.4878,838.4148,157.1481,848.24,157.83" style="stroke:#181818;stroke-width:1;stroke-linejoin:miter;stroke-miterlimit:10;"/><text fill="#000000" font-family="sans-serif" font-size="13" lengthAdjust="spacing" textLength="131.5044" x="788.5" y="124.4951">opcionesPerfilAbierto()</text></g><!--link OpcionesPerfilView to EditarPerfil--><g class="link" data-entity-1="ent0003" data-entity-2="ent0010" data-link-type="dependency" data-source-line="28" id="lnk22"><path d="M738.13,74.99 C815.43,89.2 928.5,110 928.5,110 C928.5,110 1006.0344,136.7863 1062.5844,156.3363" fill="none" id="OpcionesPerfilView-to-EditarPerfil" style="stroke:#181818;stroke-width:1;stroke-dasharray:7,7;"/><polygon fill="#181818" points="1067.31,157.97,1060.1109,151.2489,1062.5844,156.3363,1057.497,158.8098,1067.31,157.97" style="stroke:#181818;stroke-width:1;stroke-linejoin:miter;stroke-miterlimit:10;"/><text fill="#000000" font-family="sans-serif" font-size="13" lengthAdjust="spacing" textLength="70.7954" x="980.5" y="124.4951">editarPerfil()</text></g><!--link OpcionesPerfilView to SolicitarEliminacionPerfil--><g class="link" data-entity-1="ent0003" data-entity-2="ent0011" data-link-type="dependency" data-source-line="29" id="lnk23"><path d="M738.03,70.64 C850.89,84.46 1059.5,110 1059.5,110 C1059.5,110 1191.1251,137.4004 1284.9851,156.9504" fill="none" id="OpcionesPerfilView-to-SolicitarEliminacionPerfil" style="stroke:#181818;stroke-width:1;stroke-dasharray:7,7;"/><polygon fill="#181818" points="1289.88,157.97,1281.8847,152.2188,1284.9851,156.9504,1280.2534,160.0507,1289.88,157.97" style="stroke:#181818;stroke-width:1;stroke-linejoin:miter;stroke-miterlimit:10;"/><text fill="#000000" font-family="sans-serif" font-size="13" lengthAdjust="spacing" textLength="148.8145" x="1145.5" y="124.4951">solicitarEliminacionPerfil()</text></g><!--link OpcionesPerfilView to AbrirPanelPrincipal--><g class="link" data-entity-1="ent0003" data-entity-2="ent0012" data-link-type="dependency" data-source-line="30" id="lnk24"><path d="M738.19,67.34 C903.7,79.85 1302.5,110 1302.5,110 C1302.5,110 1450.9039,137.5081 1556.3039,157.0581" fill="none" id="OpcionesPerfilView-to-AbrirPanelPrincipal" style="stroke:#181818;stroke-width:1;stroke-dasharray:7,7;"/><polygon fill="#181818" points="1561.22,157.97,1553.1004,152.3957,1556.3039,157.0581,1551.6414,160.2616,1561.22,157.97" style="stroke:#181818;stroke-width:1;stroke-linejoin:miter;stroke-miterlimit:10;"/><text fill="#000000" font-family="sans-serif" font-size="13" lengthAdjust="spacing" textLength="117.7681" x="1398.5" y="124.4951">abrirPanelPrincipal()</text></g><?plantuml-src ZLD1Rjim4Bph5OHxIGxE8MY2neS0Ya830W9RiDfUZHMrSHUXIM59kp2A_hrKvTIIImNcZSkPuUnowDx8DC2m5PeC-aE3eh7wq6wIX55vC1kDubFsB9_IEp6P5Ub2lgoBLRx8yY9zMQTFkLnzNKu4E26TXzfAunbgI1fGRx110HKJBnj5rg0ha5z9j-19f7vrFH6_4X5Mx-hxsmSvVn13v7V2d-V0wgwgxx-83f3POCDgZVmXh4JUay8HJ8akt3c2cT-csMTvr5bXOnrvouSFOSdl-5INHPOl5x9S5t8rpsDJBK5J66gCd8KseR8CFfWLiYOFt5tNyNk52_YbrQHQXjIq9GFjr7jguySNQAVjanTWK1TCHb43dMYadYI3D8afJnyZ6PY9Q8oIv7-ecDP1uZmTCs4hZmQF0ohODcI3m3bEJ0Dva8T_pAwQAhy3VGKx_mED9_Mtun6TGVRY3iZiqNdQX17mTRIRQ3CDO_kTELKTuPbSOmrL6jsPvC13J-sKv9Cnoz_S3ZZO0kKl9U-HwJNCeUrhIyww8Va43Vptxn7fy-RcSV05Wgi1AAq8sRTFDaRkvNyciBSRvuodV2RSwDcuNYJWn-GEYq7X3m00?></g></svg>