<svg xmlns="http://www.w3.org/2000/svg" xmlns:xlink="http://www.w3.org/1999/xlink" contentStyleType="text/css" data-diagram-type="DESCRIPTION" height="442px" preserveAspectRatio="none" style="width:1727px;height:442px;background:#FFFFFF;" version="1.1" viewBox="0 0 1727 442" width="1727px" zoomAndPan="magnify"><?plantuml 1.2026.4?><defs/><g><!--cluster abrirOpcionesPerfil--><g class="cluster" data-qualified-name="abrirOpcionesPerfil" data-source-line="4" id="ent0002"><path d="M247,6 L387.2549,6 A3.75,3.75 0 0 1 389.7549,8.5 L396.7549,29.6094 L692,29.6094 A2.5,2.5 0 0 1 694.5,32.1094 L694.5,424.5 A2.5,2.5 0 0 1 692,427 L247,427 A2.5,2.5 0 0 1 244.5,424.5 L244.5,8.5 A2.5,2.5 0 0 1 247,6" fill="none" style="stroke:#000000;stroke-width:1.5;"/><line style="stroke:#000000;stroke-width:1.5;" x1="244.5" x2="396.7549" y1="29.6094" y2="29.6094"/><text fill="#000000" font-family="sans-serif" font-size="14" font-weight="700" lengthAdjust="spacing" textLength="139.2549" x="248.5" y="22.5332">abrirOpcionesPerfil()</text></g><!--entity DetallePerfilView--><g class="entity" data-qualified-name="abrirOpcionesPerfil.DetallePerfilView" data-source-line="5" id="ent0003"><rect fill="#629EF9" height="37.6094" rx="2.5" ry="2.5" style="stroke:#181818;stroke-width:0.5;" width="125.8203" x="552.5" y="42"/><text fill="#000000" font-family="sans-serif" font-size="14" lengthAdjust="spacing" textLength="105.8203" x="562.5" y="66.5332">DetallePerfilView</text></g><!--entity PerfilController--><g class="entity" data-qualified-name="abrirOpcionesPerfil.PerfilController" data-source-line="6" id="ent0004"><rect fill="#B5BD68" height="37.6094" rx="2.5" ry="2.5" style="stroke:#181818;stroke-width:0.5;" width="112.5859" x="317" y="158"/><text fill="#000000" font-family="sans-serif" font-size="14" lengthAdjust="spacing" textLength="92.5859" x="327" y="182.5332">PerfilController</text></g><!--entity PerfilRepository--><g class="entity" data-qualified-name="abrirOpcionesPerfil.PerfilRepository" data-source-line="7" id="ent0005"><rect fill="#F2AC4E" height="37.6094" rx="2.5" ry="2.5" style="stroke:#181818;stroke-width:0.5;" width="118.8135" x="322" y="274"/><text fill="#000000" font-family="sans-serif" font-size="14" lengthAdjust="spacing" textLength="98.8135" x="332" y="298.5332">PerfilRepository</text></g><!--entity Perfil--><g class="entity" data-qualified-name="abrirOpcionesPerfil.Perfil" data-source-line="8" id="ent0006"><rect fill="#F2AC4E" height="37.6094" rx="2.5" ry="2.5" style="stroke:#181818;stroke-width:0.5;" width="51.8965" x="355.5" y="373"/><text fill="#000000" font-family="sans-serif" font-size="14" lengthAdjust="spacing" textLength="31.8965" x="365.5" y="397.5332">Perfil</text></g><!--entity EstadoEntrada--><g class="entity" data-qualified-name="EstadoEntrada" data-source-line="3" id="ent0001"><rect fill="#CDEBA5" height="37.6094" rx="2.5" ry="2.5" style="stroke:#181818;stroke-width:0.5;" width="220.7373" x="7" y="42"/><text fill="#000000" font-family="sans-serif" font-size="14" lengthAdjust="spacing" textLength="200.7373" x="17" y="66.5332">:PANEL_PRINCIPAL_ABIERTO</text></g><!--entity EstadoSalida--><g class="entity" data-qualified-name="EstadoSalida" data-source-line="11" id="ent0007"><rect fill="#CDEBA5" height="37.6094" rx="2.5" ry="2.5" style="stroke:#181818;stroke-width:0.5;" width="223.834" x="710.5" y="158"/><text fill="#000000" font-family="sans-serif" font-size="14" lengthAdjust="spacing" textLength="203.834" x="720.5" y="182.5332">:OPCIONES_PERFIL_ABIERTO</text></g><!--entity EditarPerfil--><g class="entity" data-qualified-name="EditarPerfil" data-source-line="12" id="ent0008"><rect fill="#CDEBA5" height="37.6094" rx="2.5" ry="2.5" style="stroke:#181818;stroke-width:0.5;" width="178.7441" x="970" y="158"/><text fill="#000000" font-family="sans-serif" font-size="14" lengthAdjust="spacing" textLength="158.7441" x="980" y="182.5332">:Collaboration EditarPerfil</text></g><!--entity SolicitarEliminacionPerfil--><g class="entity" data-qualified-name="SolicitarEliminacionPerfil" data-source-line="13" id="ent0009"><rect fill="#CDEBA5" height="37.6094" rx="2.5" ry="2.5" style="stroke:#181818;stroke-width:0.5;" width="263.5508" x="1184.5" y="158"/><text fill="#000000" font-family="sans-serif" font-size="14" lengthAdjust="spacing" textLength="243.5508" x="1194.5" y="182.5332">:Collaboration SolicitarEliminacionPerfil</text></g><!--entity AbrirPanelPrincipal--><g class="entity" data-qualified-name="AbrirPanelPrincipal" data-source-line="14" id="ent0010"><rect fill="#CDEBA5" height="37.6094" rx="2.5" ry="2.5" style="stroke:#181818;stroke-width:0.5;" width="229.3301" x="1484" y="158"/><text fill="#000000" font-family="sans-serif" font-size="14" lengthAdjust="spacing" textLength="209.3301" x="1494" y="182.5332">:Collaboration AbrirPanelPrincipal</text></g><!--link EstadoEntrada to DetallePerfilView--><g class="link" data-entity-1="ent0001" data-entity-2="ent0003" data-link-type="dependency" data-source-line="16" id="lnk11"><path d="M228.02,61 C327.74,61 465.91,61 547.4,61" fill="none" id="EstadoEntrada-to-DetallePerfilView" style="stroke:#181818;stroke-width:1;"/><polygon fill="#181818" points="552.4,61,543.4,57,547.4,61,543.4,65,552.4,61" style="stroke:#181818;stroke-width:1;stroke-linejoin:miter;stroke-miterlimit:10;"/><text fill="#000000" font-family="sans-serif" font-size="13" lengthAdjust="spacing" textLength="119.2026" x="330.75" y="54.4951">abrirOpcionesPerfil()</text></g><!--link DetallePerfilView to PerfilController--><g class="link" data-entity-1="ent0003" data-entity-2="ent0004" data-link-type="dependency" data-source-line="18" id="lnk12"><path d="M552.46,71.37 C458.46,85.34 292.5,110 292.5,110 C292.5,110 292.5,128 292.5,128 C292.5,128 315.6382,141.7116 338.5782,155.3016" fill="none" id="DetallePerfilView-to-PerfilController" style="stroke:#181818;stroke-width:1;"/><polygon fill="#181818" points="342.88,157.85,337.1755,149.8214,338.5782,155.3016,333.098,156.7042,342.88,157.85" style="stroke:#181818;stroke-width:1;stroke-linejoin:miter;stroke-miterlimit:10;"/><text fill="#000000" font-family="sans-serif" font-size="13" lengthAdjust="spacing" textLength="92.4854" x="293.5" y="124.4951">obtenerPerfil(id)</text></g><!--link DetallePerfilView to PerfilController--><g class="link" data-entity-1="ent0003" data-entity-2="ent0004" data-link-type="dependency" data-source-line="19" id="lnk13"><path d="M553.22,80.01 C506.11,93.63 449.5,110 449.5,110 C449.5,110 420.5443,135.1406 398.0443,154.6906" fill="none" id="DetallePerfilView-to-PerfilController-1" style="stroke:#181818;stroke-width:1;"/><polygon fill="#181818" points="394.27,157.97,403.6873,155.0864,398.0443,154.6906,398.4402,149.0476,394.27,157.97" style="stroke:#181818;stroke-width:1;stroke-linejoin:miter;stroke-miterlimit:10;"/><text fill="#000000" font-family="sans-serif" font-size="13" lengthAdjust="spacing" textLength="247.8442" x="450.5" y="124.4951">prepararAccionesDisponibles(investigador)</text></g><!--link PerfilController to PerfilRepository--><g class="link" data-entity-1="ent0004" data-entity-2="ent0005" data-link-type="dependency" data-source-line="20" id="lnk14"><path d="M347.41,196.15 C327.87,209.74 304.5,226 304.5,226 C304.5,226 304.5,244 304.5,244 C304.5,244 326.3364,257.6158 348.1464,271.2058" fill="none" id="PerfilController-to-PerfilRepository" style="stroke:#181818;stroke-width:1;"/><polygon fill="#181818" points="352.39,273.85,346.8669,265.6955,348.1464,271.2058,342.6362,272.4853,352.39,273.85" style="stroke:#181818;stroke-width:1;stroke-linejoin:miter;stroke-miterlimit:10;"/><text fill="#000000" font-family="sans-serif" font-size="13" lengthAdjust="spacing" textLength="93.939" x="305.5" y="240.4951">obtenerPorId(id)</text></g><!--link PerfilController to PerfilRepository--><g class="link" data-entity-1="ent0004" data-entity-2="ent0005" data-link-type="dependency" data-source-line="21" id="lnk15"><path d="M384.84,196.15 C393.34,209.74 403.5,226 403.5,226 C403.5,226 403.5,244 403.5,244 C403.5,244 398.1336,255.7148 391.9036,269.3048" fill="none" id="PerfilController-to-PerfilRepository-1" style="stroke:#181818;stroke-width:1;"/><polygon fill="#181818" points="389.82,273.85,397.2066,267.3356,391.9036,269.3048,389.9344,264.0018,389.82,273.85" style="stroke:#181818;stroke-width:1;stroke-linejoin:miter;stroke-miterlimit:10;"/><text fill="#000000" font-family="sans-serif" font-size="13" lengthAdjust="spacing" textLength="137.2427" x="404.5" y="240.4951">verificarPermisos(actor)</text></g><!--link PerfilRepository to Perfil--><g class="link" data-entity-1="ent0005" data-entity-2="ent0006" data-link-type="association" data-source-line="22" id="lnk16"><path d="M381.5,312.24 C381.5,329.59 381.5,355.52 381.5,372.84" fill="none" id="PerfilRepository-Perfil" style="stroke:#181818;stroke-width:1;"/></g><!--link DetallePerfilView to EstadoSalida--><g class="link" data-entity-1="ent0003" data-entity-2="ent0007" data-link-type="dependency" data-source-line="23" id="lnk17"><path d="M648.3,80.06 C686.95,101.35 746.4003,134.0879 785.1303,155.4179" fill="none" id="DetallePerfilView-to-EstadoSalida" style="stroke:#181818;stroke-width:1;stroke-dasharray:7,7;"/><polygon fill="#181818" points="789.51,157.83,783.5562,149.9845,785.1303,155.4179,779.6969,156.9921,789.51,157.83" style="stroke:#181818;stroke-width:1;stroke-linejoin:miter;stroke-miterlimit:10;"/><text fill="#000000" font-family="sans-serif" font-size="13" lengthAdjust="spacing" textLength="130.7935" x="731.5" y="124.4951">continuarNavegacion()</text></g><!--link DetallePerfilView to EditarPerfil--><g class="link" data-entity-1="ent0003" data-entity-2="ent0008" data-link-type="dependency" data-source-line="24" id="lnk18"><path d="M678.53,73.87 C754.05,88.08 870.5,110 870.5,110 C870.5,110 947.1799,136.7707 1003.1299,156.3207" fill="none" id="DetallePerfilView-to-EditarPerfil" style="stroke:#181818;stroke-width:1;stroke-dasharray:7,7;"/><polygon fill="#181818" points="1007.85,157.97,1000.6732,151.2251,1003.1299,156.3207,998.0343,158.7774,1007.85,157.97" style="stroke:#181818;stroke-width:1;stroke-linejoin:miter;stroke-miterlimit:10;"/><text fill="#000000" font-family="sans-serif" font-size="13" lengthAdjust="spacing" textLength="70.7954" x="921.5" y="124.4951">editarPerfil()</text></g><!--link DetallePerfilView to SolicitarEliminacionPerfil--><g class="link" data-entity-1="ent0003" data-entity-2="ent0009" data-link-type="dependency" data-source-line="25" id="lnk19"><path d="M678.64,69.87 C787.87,83.49 1000.5,110 1000.5,110 C1000.5,110 1131.6957,137.3973 1225.2557,156.9473" fill="none" id="DetallePerfilView-to-SolicitarEliminacionPerfil" style="stroke:#181818;stroke-width:1;stroke-dasharray:7,7;"/><polygon fill="#181818" points="1230.15,157.97,1222.1584,152.2137,1225.2557,156.9473,1220.5221,160.0446,1230.15,157.97" style="stroke:#181818;stroke-width:1;stroke-linejoin:miter;stroke-miterlimit:10;"/><text fill="#000000" font-family="sans-serif" font-size="13" lengthAdjust="spacing" textLength="148.8145" x="1085.5" y="124.4951">solicitarEliminacionPerfil()</text></g><!--link DetallePerfilView to AbrirPanelPrincipal--><g class="link" data-entity-1="ent0003" data-entity-2="ent0010" data-link-type="dependency" data-source-line="26" id="lnk20"><path d="M678.78,66.84 C837.98,79.03 1242.5,110 1242.5,110 C1242.5,110 1390.9039,137.5081 1496.3039,157.0581" fill="none" id="DetallePerfilView-to-AbrirPanelPrincipal" style="stroke:#181818;stroke-width:1;stroke-dasharray:7,7;"/><polygon fill="#181818" points="1501.22,157.97,1493.1004,152.3957,1496.3039,157.0581,1491.6414,160.2616,1501.22,157.97" style="stroke:#181818;stroke-width:1;stroke-linejoin:miter;stroke-miterlimit:10;"/><text fill="#000000" font-family="sans-serif" font-size="13" lengthAdjust="spacing" textLength="117.7681" x="1338.5" y="124.4951">abrirPanelPrincipal()</text></g><?plantuml-src ZLB1QkCm4BthAuRinJcaXx8jMnyAhgE0eIGcMNeDOtiQXYgIaRGfeUo_hnodn4di9RffzDwRqPldFbZNQ74BYZNvVKrG6xLlBa9OAZtgZIBuaKxbI_80epXFvl9rdI-pUPhboUiwUSdaylTY1EX0Ee-LaTfRh53KM7xWXW0BotPHbsmqkPpiEwi6FEgfH-CHV0a8fzFwyVv9pfvWIXwLeXRunlHvYIiUYkhn5xI0r8GfJC3RIzZiFab_oYDiIRLnx8tT_nSc_lQRiSZJR36NgtKkbxEipumLAWvUz97JC1uMng8F3e2isADjsxNyJk46_ieeBXk6LBnbZOsj7RNXvnkqasPJEMfIkMLTSesjQ4zTYBCGmCHEdgzN5qFlyeMuGiAa2WANEut159uq7Us9k1htKNkPjQKcy3Ofs-PJThNHN2Xo4UiTES-Ry04x5fVSZk0fDwTHZCsgmoGtydPa-PtBmuwtx8oBiFIdlYTeu7_dyFgJTtVFPr6BeGoDMVz1EySTRGwRZiP3p4x8Og3ERP0odAGOtE3Re5nFXexfE2y6WNy0?></g></svg>