<svg xmlns="http://www.w3.org/2000/svg" xmlns:xlink="http://www.w3.org/1999/xlink" contentStyleType="text/css" data-diagram-type="DESCRIPTION" height="442px" preserveAspectRatio="none" style="width:1124px;height:442px;background:#FFFFFF;" version="1.1" viewBox="0 0 1124 442" width="1124px" zoomAndPan="magnify"><?plantuml 1.2026.5?><defs/><g><!--cluster iniciarSesion--><g class="cluster" data-qualified-name="iniciarSesion" data-source-line="4" id="ent0002"><path d="M179,6 L276.4688,6 A3.75,3.75 0 0 1 278.9688,8.5 L285.9688,29.6094 L831,29.6094 A2.5,2.5 0 0 1 833.5,32.1094 L833.5,424.5 A2.5,2.5 0 0 1 831,427 L179,427 A2.5,2.5 0 0 1 176.5,424.5 L176.5,8.5 A2.5,2.5 0 0 1 179,6" fill="none" style="stroke:#000000;stroke-width:1.5;"/><line style="stroke:#000000;stroke-width:1.5;" x1="176.5" x2="285.9688" y1="29.6094" y2="29.6094"/><text fill="#000000" font-family="sans-serif" font-size="14" font-weight="700" lengthAdjust="spacing" textLength="96.4688" x="180.5" y="22.5332">iniciarSesion()</text></g><!--entity IniciarSesionView--><g class="entity" data-qualified-name="iniciarSesion.IniciarSesionView" data-source-line="5" id="ent0003"><rect fill="#629EF9" height="37.6094" rx="2.5" ry="2.5" style="stroke:#181818;stroke-width:0.5;" width="130.4961" x="337.5" y="42"/><text fill="#000000" font-family="sans-serif" font-size="14" lengthAdjust="spacing" textLength="110.4961" x="347.5" y="66.5332">IniciarSesionView</text></g><!--entity SesionController--><g class="entity" data-qualified-name="iniciarSesion.SesionController" data-source-line="6" id="ent0004"><rect fill="#B5BD68" height="37.6094" rx="2.5" ry="2.5" style="stroke:#181818;stroke-width:0.5;" width="123.4961" x="337" y="158"/><text fill="#000000" font-family="sans-serif" font-size="14" lengthAdjust="spacing" textLength="103.4961" x="347" y="182.5332">SesionController</text></g><!--entity UsuarioRepository--><g class="entity" data-qualified-name="iniciarSesion.UsuarioRepository" data-source-line="7" id="ent0005"><rect fill="#F2AC4E" height="37.6094" rx="2.5" ry="2.5" style="stroke:#181818;stroke-width:0.5;" width="135.1582" x="193" y="274"/><text fill="#000000" font-family="sans-serif" font-size="14" lengthAdjust="spacing" textLength="115.1582" x="203" y="298.5332">UsuarioRepository</text></g><!--entity Usuario--><g class="entity" data-qualified-name="iniciarSesion.Usuario" data-source-line="8" id="ent0006"><rect fill="#F2AC4E" height="37.6094" rx="2.5" ry="2.5" style="stroke:#181818;stroke-width:0.5;" width="68.2412" x="329.5" y="373"/><text fill="#000000" font-family="sans-serif" font-size="14" lengthAdjust="spacing" textLength="48.2412" x="339.5" y="397.5332">Usuario</text></g><!--entity SesionRepository--><g class="entity" data-qualified-name="iniciarSesion.SesionRepository" data-source-line="9" id="ent0007"><rect fill="#F2AC4E" height="37.6094" rx="2.5" ry="2.5" style="stroke:#181818;stroke-width:0.5;" width="129.7236" x="687.5" y="274"/><text fill="#000000" font-family="sans-serif" font-size="14" lengthAdjust="spacing" textLength="109.7236" x="697.5" y="298.5332">SesionRepository</text></g><!--entity Sesion--><g class="entity" data-qualified-name="iniciarSesion.Sesion" data-source-line="10" id="ent0008"><rect fill="#F2AC4E" height="37.6094" rx="2.5" ry="2.5" style="stroke:#181818;stroke-width:0.5;" width="62.8066" x="721" y="373"/><text fill="#000000" font-family="sans-serif" font-size="14" lengthAdjust="spacing" textLength="42.8066" x="731" y="397.5332">Sesion</text></g><!--entity EstadoEntrada--><g class="entity" data-qualified-name="EstadoEntrada" data-source-line="3" id="ent0001"><rect fill="#CDEBA5" height="37.6094" rx="2.5" ry="2.5" style="stroke:#181818;stroke-width:0.5;" width="153.0342" x="7" y="42"/><text fill="#000000" font-family="sans-serif" font-size="14" lengthAdjust="spacing" textLength="133.0342" x="17" y="66.5332">:SESION_CERRADA</text></g><!--entity EstadoSalida--><g class="entity" data-qualified-name="EstadoSalida" data-source-line="13" id="ent0009"><rect fill="#CDEBA5" height="37.6094" rx="2.5" ry="2.5" style="stroke:#181818;stroke-width:0.5;" width="220.7373" x="850" y="158"/><text fill="#000000" font-family="sans-serif" font-size="14" lengthAdjust="spacing" textLength="200.7373" x="860" y="182.5332">:PANEL_PRINCIPAL_ABIERTO</text></g><!--link EstadoEntrada to IniciarSesionView--><g class="link" data-entity-1="ent0001" data-entity-2="ent0003" data-link-type="dependency" data-source-line="16" id="lnk10"><path d="M160.31,61 C214.42,61 281.08,61 332.39,61" fill="none" id="EstadoEntrada-to-IniciarSesionView" style="stroke:#181818;stroke-width:1;"/><polygon fill="#181818" points="337.39,61,328.39,57,332.39,61,328.39,65,337.39,61" style="stroke:#181818;stroke-width:1;stroke-linejoin:miter;stroke-miterlimit:10;"/><text fill="#000000" font-family="sans-serif" font-size="13" lengthAdjust="spacing" textLength="82.3608" x="207.75" y="54.4951">iniciarSesion()</text></g><!--link IniciarSesionView to SesionController--><g class="link" data-entity-1="ent0003" data-entity-2="ent0004" data-link-type="dependency" data-source-line="18" id="lnk11"><path d="M342.84,80.01 C297.73,93.63 243.5,110 243.5,110 C243.5,110 243.5,128 243.5,128 C243.5,128 291.5838,142.8909 335.5638,156.5109" fill="none" id="IniciarSesionView-to-SesionController" style="stroke:#181818;stroke-width:1;"/><polygon fill="#181818" points="340.34,157.99,332.9261,151.5066,335.5638,156.5109,330.5595,159.1485,340.34,157.99" style="stroke:#181818;stroke-width:1;stroke-linejoin:miter;stroke-miterlimit:10;"/><text fill="#000000" font-family="sans-serif" font-size="13" lengthAdjust="spacing" textLength="155.3462" x="244.5" y="124.4951">iniciarSesion(credenciales)</text></g><!--link SesionController to IniciarSesionView--><g class="link" data-entity-1="ent0004" data-entity-2="ent0003" data-link-type="dependency" data-source-line="21" id="lnk14"><path d="M400.77,157.85 C402.47,144.26 404.5,128 404.5,128 C404.5,128 404.5,110 404.5,110 C404.5,110 404.0259,98.7358 403.4659,85.1458" fill="none" id="SesionController-to-IniciarSesionView" style="stroke:#181818;stroke-width:1;"/><polygon fill="#181818" points="403.26,80.15,399.6339,89.3071,403.4659,85.1458,407.6272,88.9777,403.26,80.15" style="stroke:#181818;stroke-width:1;stroke-linejoin:miter;stroke-miterlimit:10;"/><text fill="#000000" font-family="sans-serif" font-size="13" lengthAdjust="spacing" textLength="354.7642" x="405.5" y="124.4951">presentarCredencialesIncorrectas() [credenciales incorrectas]</text></g><!--link SesionController to UsuarioRepository--><g class="link" data-entity-1="ent0004" data-entity-2="ent0005" data-link-type="dependency" data-source-line="19" id="lnk12"><path d="M338.47,196.01 C293.07,209.63 238.5,226 238.5,226 C238.5,226 238.5,244 238.5,244 C238.5,244 243.8664,255.7148 250.0964,269.3048" fill="none" id="SesionController-to-UsuarioRepository" style="stroke:#181818;stroke-width:1;"/><polygon fill="#181818" points="252.18,273.85,252.0656,264.0018,250.0964,269.3048,244.7934,267.3356,252.18,273.85" style="stroke:#181818;stroke-width:1;stroke-linejoin:miter;stroke-miterlimit:10;"/><text fill="#000000" font-family="sans-serif" font-size="13" lengthAdjust="spacing" textLength="149.5635" x="239.5" y="240.4951">obtenerPorCorreo(correo)</text></g><!--link SesionController to Usuario--><g class="link" data-entity-1="ent0004" data-entity-2="ent0006" data-link-type="dependency" data-source-line="20" id="lnk13"><path d="M397.13,196.03 C395.65,215.58 393.5,244 393.5,244 C393.5,244 376.1898,328.821 368.1798,368.071" fill="none" id="SesionController-to-Usuario" style="stroke:#181818;stroke-width:1;"/><polygon fill="#181818" points="367.18,372.97,372.8988,364.9516,368.1798,368.071,365.0604,363.3519,367.18,372.97" style="stroke:#181818;stroke-width:1;stroke-linejoin:miter;stroke-miterlimit:10;"/><text fill="#000000" font-family="sans-serif" font-size="13" lengthAdjust="spacing" textLength="252.916" x="387.5" y="298.4951">validarCredenciales(credenciales) : boolean</text></g><!--link SesionController to SesionRepository--><g class="link" data-entity-1="ent0004" data-entity-2="ent0007" data-link-type="dependency" data-source-line="22" id="lnk15"><path d="M454.59,196.06 C520.78,217.38 625.4207,251.0773 691.6207,272.3973" fill="none" id="SesionController-to-SesionRepository" style="stroke:#181818;stroke-width:1;"/><polygon fill="#181818" points="696.38,273.93,689.0395,267.3636,691.6207,272.3973,686.5871,274.9785,696.38,273.93" style="stroke:#181818;stroke-width:1;stroke-linejoin:miter;stroke-miterlimit:10;"/><text fill="#000000" font-family="sans-serif" font-size="13" lengthAdjust="spacing" textLength="279.6143" x="597.5" y="240.4951">registrarSesion(usuario) [credenciales correctas]</text></g><!--link UsuarioRepository to Usuario--><g class="link" data-entity-1="ent0005" data-entity-2="ent0006" data-link-type="association" data-source-line="23" id="lnk16"><path d="M279.87,312.24 C298.29,329.59 325.83,355.52 344.21,372.84" fill="none" id="UsuarioRepository-Usuario" style="stroke:#181818;stroke-width:1;"/></g><!--link SesionRepository to Sesion--><g class="link" data-entity-1="ent0007" data-entity-2="ent0008" data-link-type="association" data-source-line="24" id="lnk17"><path d="M752.5,312.24 C752.5,329.59 752.5,355.52 752.5,372.84" fill="none" id="SesionRepository-Sesion" style="stroke:#181818;stroke-width:1;"/></g><!--link IniciarSesionView to EstadoSalida--><g class="link" data-entity-1="ent0003" data-entity-2="ent0009" data-link-type="dependency" data-source-line="25" id="lnk18"><path d="M467.51,70.53 C572.69,84.32 768.5,110 768.5,110 C768.5,110 846.4618,136.794 903.3118,156.344" fill="none" id="IniciarSesionView-to-EstadoSalida" style="stroke:#181818;stroke-width:1;stroke-dasharray:7,7;"/><polygon fill="#181818" points="908.04,157.97,900.83,151.2606,903.3118,156.344,898.2284,158.8258,908.04,157.97" style="stroke:#181818;stroke-width:1;stroke-linejoin:miter;stroke-miterlimit:10;"/><text fill="#000000" font-family="sans-serif" font-size="13" lengthAdjust="spacing" textLength="287.5742" x="820.5" y="124.4951">presentarPanelPrincipal() [credenciales correctas]</text></g><?plantuml-src XLBHQi8m57tFLrowb_gW3p9bza6eDK91jDHjBsD8R2yIp9AIr0qP-_T5kqcRTguleRadvznpxZK7BWkcsHi8Bh4y5GY54gVp3o4QivB9lK2uY-Pq5ex02pPq4wzNsuYcQJWFFM06g2bPhgWiDSiPALXsO7i4Bdd6cTwWuKgUOLxZnkzvy4d0VZMLyN125nE8wy1dZXykRZVQvUC7g02HiifA2DGkR34CetiAJ-R8D5Sf5ihmKkdJRTmVrKhiNv8AHhwwqql25LrkapHUHN4IBhVXBARfuxeMuuO9RbCaf94gz7L_siub02TJGbeOwEVsgHkL-pBJcAEq5m9DZxXew5kALem1g5s94dMYTAIqHkLdb-CsGG3l5uywgcas6u00Tae9PBARgIE8GgD1MJPPOtbfoCx1-3rugMjO_zVQQxUAE_70ZdlFZHt8Rsh7of5BNIDkXMQPhulc2fnhF_lJ7kDWC6siICromYIAH5j7l632lz4E-GO0?></g></svg>