<svg xmlns="http://www.w3.org/2000/svg" xmlns:xlink="http://www.w3.org/1999/xlink" contentStyleType="text/css" data-diagram-type="DESCRIPTION" height="564px" preserveAspectRatio="none" style="width:1112px;height:564px;background:#FFFFFF;" version="1.1" viewBox="0 0 1112 564" width="1112px" zoomAndPan="magnify"><?plantuml 1.2026.5?><defs/><g><!--cluster iniciarSesion--><g class="cluster" data-qualified-name="iniciarSesion" data-source-line="6" id="ent0003"><path d="M179,56.3564 L276.4688,56.3564 A3.75,3.75 0 0 1 278.9688,58.8564 L285.9688,79.9658 L748,79.9658 A2.5,2.5 0 0 1 750.5,82.4658 L750.5,546.8564 A2.5,2.5 0 0 1 748,549.3564 L179,549.3564 A2.5,2.5 0 0 1 176.5,546.8564 L176.5,58.8564 A2.5,2.5 0 0 1 179,56.3564" fill="none" style="stroke:#000000;stroke-width:1.5;"/><line style="stroke:#000000;stroke-width:1.5;" x1="176.5" x2="285.9688" y1="79.9658" y2="79.9658"/><text fill="#000000" font-family="sans-serif" font-size="14" font-weight="700" lengthAdjust="spacing" textLength="96.4688" x="180.5" y="72.8896">iniciarSesion()</text></g><!--entity IniciarSesionView--><g class="entity" data-qualified-name="iniciarSesion.IniciarSesionView" data-source-line="7" id="ent0004"><rect fill="#629EF9" height="37.6094" rx="2.5" ry="2.5" style="stroke:#181818;stroke-width:0.5;" width="130.4961" x="347.5" y="112.3564"/><text fill="#000000" font-family="sans-serif" font-size="14" lengthAdjust="spacing" textLength="110.4961" x="357.5" y="136.8896">IniciarSesionView</text></g><!--entity IniciarSesionController--><g class="entity" data-qualified-name="iniciarSesion.IniciarSesionController" data-source-line="8" id="ent0005"><rect fill="#B5BD68" height="37.6094" rx="2.5" ry="2.5" style="stroke:#181818;stroke-width:0.5;" width="160.8408" x="313" y="264.3564"/><text fill="#000000" font-family="sans-serif" font-size="14" lengthAdjust="spacing" textLength="140.8408" x="323" y="288.8896">IniciarSesionController</text></g><!--entity UsuarioRepository--><g class="entity" data-qualified-name="iniciarSesion.UsuarioRepository" data-source-line="9" id="ent0006"><rect fill="#F2AC4E" height="37.6094" rx="2.5" ry="2.5" style="stroke:#181818;stroke-width:0.5;" width="135.1582" x="193" y="396.3564"/><text fill="#000000" font-family="sans-serif" font-size="14" lengthAdjust="spacing" textLength="115.1582" x="203" y="420.8896">UsuarioRepository</text></g><!--entity Usuario--><g class="entity" data-qualified-name="iniciarSesion.Usuario" data-source-line="10" id="ent0007"><rect fill="#F2AC4E" height="37.6094" rx="2.5" ry="2.5" style="stroke:#181818;stroke-width:0.5;" width="68.2412" x="226.5" y="495.3564"/><text fill="#000000" font-family="sans-serif" font-size="14" lengthAdjust="spacing" textLength="48.2412" x="236.5" y="519.8896">Usuario</text></g><!--entity Sesion--><g class="entity" data-qualified-name="iniciarSesion.Sesion" data-source-line="11" id="ent0008"><rect fill="#F2AC4E" height="37.6094" rx="2.5" ry="2.5" style="stroke:#181818;stroke-width:0.5;" width="62.8066" x="530" y="396.3564"/><text fill="#000000" font-family="sans-serif" font-size="14" lengthAdjust="spacing" textLength="42.8066" x="540" y="420.8896">Sesion</text></g><!--entity Investigador--><g class="entity" data-qualified-name="Investigador" data-source-line="3" id="ent0001"><ellipse cx="804.6343" cy="100.8564" fill="#F1F1F1" rx="8" ry="8" style="stroke:#181818;stroke-width:0.5;"/><path d="M804.6343,108.8564 L804.6343,135.8564 M791.6343,116.8564 L817.6343,116.8564 M804.6343,135.8564 L791.6343,150.8564 M804.6343,135.8564 L817.6343,150.8564" fill="none" style="stroke:#181818;stroke-width:0.5;"/><text fill="#000000" font-family="sans-serif" font-size="14" lengthAdjust="spacing" textLength="76.2686" x="766.5" y="166.8896">Investigador</text></g><!--entity SesionCerrada--><g class="entity" data-qualified-name="SesionCerrada" data-source-line="4" id="ent0002"><rect fill="#CDEBA5" height="37.6094" rx="2.5" ry="2.5" style="stroke:#181818;stroke-width:0.5;" width="153.0342" x="7" y="112.3564"/><text fill="#000000" font-family="sans-serif" font-size="14" lengthAdjust="spacing" textLength="133.0342" x="17" y="136.8896">:SESION_CERRADA</text></g><!--entity PanelPrincipalAbierto--><g class="entity" data-qualified-name="PanelPrincipalAbierto" data-source-line="14" id="ent0009"><rect fill="#CDEBA5" height="37.6094" rx="2.5" ry="2.5" style="stroke:#181818;stroke-width:0.5;" width="220.7373" x="878" y="112.3564"/><text fill="#000000" font-family="sans-serif" font-size="14" lengthAdjust="spacing" textLength="200.7373" x="888" y="136.8896">:PANEL_PRINCIPAL_ABIERTO</text></g><!--link SesionCerrada to IniciarSesionView--><g class="link" data-entity-1="ent0002" data-entity-2="ent0004" data-link-type="dependency" data-source-line="16" id="lnk10"><path d="M160.22,131.3564 C216.99,131.3564 288.49,131.3564 342.32,131.3564" fill="none" id="SesionCerrada-to-IniciarSesionView" style="stroke:#181818;stroke-width:1;"/><polygon fill="#181818" points="347.32,131.3564,338.32,127.3564,342.32,131.3564,338.32,135.3564,347.32,131.3564" style="stroke:#181818;stroke-width:1;stroke-linejoin:miter;stroke-miterlimit:10;"/><text fill="#000000" font-family="sans-serif" font-size="13" lengthAdjust="spacing" textLength="82.3608" x="212.75" y="124.8516">iniciarSesion()</text></g><!--link Investigador to IniciarSesionView--><g class="link" data-entity-1="ent0001" data-entity-2="ent0004" data-link-type="dependency" data-source-line="18" id="lnk11"><path d="M766.5,131.3564 C699.62,131.3564 565.18,131.3564 482.67,131.3564" fill="none" id="Investigador-to-IniciarSesionView" style="stroke:#181818;stroke-width:1;"/><polygon fill="#181818" points="477.67,131.3564,486.67,135.3564,482.67,131.3564,486.67,127.3564,477.67,131.3564" style="stroke:#181818;stroke-width:1;stroke-linejoin:miter;stroke-miterlimit:10;"/><text fill="#000000" font-family="sans-serif" font-size="13" lengthAdjust="spacing" textLength="252.1797" x="496" y="124.8516">introducirCredenciales(usuario, contrasena)</text></g><!--link IniciarSesionView to IniciarSesionController--><g class="link" data-entity-1="ent0004" data-entity-2="ent0005" data-link-type="dependency" data-source-line="20" id="lnk12"><path d="M366.59,150.3964 C315.34,170.5464 239.5,200.3564 239.5,200.3564 C239.5,200.3564 239.5,234.3564 239.5,234.3564 C239.5,234.3564 287.2465,249.2387 330.9465,262.8587" fill="none" id="IniciarSesionView-to-IniciarSesionController" style="stroke:#181818;stroke-width:1;"/><polygon fill="#181818" points="335.72,264.3464,328.3179,257.8496,330.9465,262.8587,325.9374,265.4873,335.72,264.3464" style="stroke:#181818;stroke-width:1;stroke-linejoin:miter;stroke-miterlimit:10;"/><text fill="#000000" font-family="sans-serif" font-size="13" lengthAdjust="spacing" textLength="230.5151" x="240.5" y="222.8516">autenticar(usuario, contrasena) : Sesion</text></g><!--link IniciarSesionController to IniciarSesionView--><g class="link" data-entity-1="ent0005" data-entity-2="ent0004" data-link-type="dependency" data-source-line="26" id="lnk15"><path d="M424.5,264.2064 C447.72,250.6164 475.5,234.3564 475.5,234.3564 C475.5,234.3564 475.5,200.3564 475.5,200.3564 C475.5,200.3564 451.4373,174.395 432.7773,154.245" fill="none" id="IniciarSesionController-to-IniciarSesionView" style="stroke:#181818;stroke-width:1;"/><polygon fill="#181818" points="429.38,150.5764,432.5603,159.8977,432.7773,154.245,438.43,154.462,429.38,150.5764" style="stroke:#181818;stroke-width:1;stroke-linejoin:miter;stroke-miterlimit:10;"/><text fill="#000000" font-family="sans-serif" font-size="13" lengthAdjust="spacing" textLength="203.7534" x="476.5" y="214.8516">presentarCredencialesIncorrectas()</text><text fill="#000000" font-family="sans-serif" font-size="13" lengthAdjust="spacing" textLength="147.3989" x="504.6772" y="231.2031">[credenciales incorrectas]</text></g><!--link IniciarSesionController to UsuarioRepository--><g class="link" data-entity-1="ent0005" data-entity-2="ent0006" data-link-type="dependency" data-source-line="22" id="lnk13"><path d="M330.09,302.3664 C282.14,315.9864 224.5,332.3564 224.5,332.3564 C224.5,332.3564 224.5,366.3564 224.5,366.3564 C224.5,366.3564 233.7005,378.6161 243.8905,392.2061" fill="none" id="IniciarSesionController-to-UsuarioRepository" style="stroke:#181818;stroke-width:1;"/><polygon fill="#181818" points="246.89,396.2064,244.6911,386.6062,243.8905,392.2061,238.2906,391.4054,246.89,396.2064" style="stroke:#181818;stroke-width:1;stroke-linejoin:miter;stroke-miterlimit:10;"/><text fill="#000000" font-family="sans-serif" font-size="13" lengthAdjust="spacing" textLength="292.6396" x="225.5" y="354.8516">validarCredenciales(usuario, contrasena) : Usuario</text></g><!--link UsuarioRepository to Usuario--><g class="link" data-entity-1="ent0006" data-entity-2="ent0007" data-link-type="association" data-source-line="24" id="lnk14"><path d="M260.5,434.5964 C260.5,451.9464 260.5,477.8764 260.5,495.1964" fill="none" id="UsuarioRepository-Usuario" style="stroke:#181818;stroke-width:1;"/></g><!--link IniciarSesionController to Sesion--><g class="link" data-entity-1="ent0005" data-entity-2="ent0008" data-link-type="dependency" data-source-line="28" id="lnk16"><path d="M441.9,302.3664 C478.51,315.9864 522.5,332.3564 522.5,332.3564 C522.5,332.3564 539.2026,367.4811 550.6926,391.6411" fill="none" id="IniciarSesionController-to-Sesion" style="stroke:#181818;stroke-width:1;"/><polygon fill="#181818" points="552.84,396.1564,552.5869,386.3108,550.6926,391.6411,545.3623,389.7467,552.84,396.1564" style="stroke:#181818;stroke-width:1;stroke-linejoin:miter;stroke-miterlimit:10;"/><text fill="#000000" font-family="sans-serif" font-size="13" lengthAdjust="spacing" textLength="171.2471" x="539.5" y="346.8516">crearSesion(usuario) : Sesion</text><text fill="#000000" font-family="sans-serif" font-size="13" lengthAdjust="spacing" textLength="137.2808" x="556.4832" y="363.2031">[credenciales correctas]</text></g><!--link IniciarSesionView to PanelPrincipalAbierto--><g class="link" data-entity-1="ent0004" data-entity-2="ent0009" data-link-type="dependency" data-source-line="30" id="lnk17"><path d="M449.73,112.3164 C506.45,83.2964 608,31.3564 608,31.3564 C608,31.3564 747,31.3564 747,31.3564 C747,31.3564 860.5,48.3564 860.5,48.3564 C860.5,48.3564 917.1451,85.0857 954.9351,109.5957" fill="none" id="IniciarSesionView-to-PanelPrincipalAbierto" style="stroke:#181818;stroke-width:1;"/><polygon fill="#181818" points="959.13,112.3164,953.7557,104.0631,954.9351,109.5957,949.4025,110.775,959.13,112.3164" style="stroke:#181818;stroke-width:1;stroke-linejoin:miter;stroke-miterlimit:10;"/><text fill="#000000" font-family="sans-serif" font-size="13" lengthAdjust="spacing" textLength="117.7681" x="618.7563" y="20.8516">abrirPanelPrincipal()</text><text fill="#000000" font-family="sans-serif" font-size="13" lengthAdjust="spacing" textLength="137.2808" x="609" y="37.2031">[credenciales correctas]</text></g><?plantuml-src XL9TQzj047o_Nx4uBmxKBw49ZHuAYgA083X2RlFI5hC-BMR9zKxidLDCo7_lsKfYIVw8tkvcRcPtHlw9ROE2Vy6mfR1k21fdrfk3KgY34oZiC_d0IwoTA24Tq2uDmLbscz-abp1APlciU9ZEixogqjjq1EXXHfwTpKW4QrIgGVs4ImAsh1cbHJUyKUzcV3w25mNnwzXSNLpdTzTnYWxnaUdVaBUuNDHNt_gypDaWpXYI8Vlk8is-vl3Jhr3OLTGupt7PzMdU4RGrKw_gO3nbEitlvsLLJBEYJE_dwKsHLpyUjZcLQCcKmbPpWoPTC4bmIlNYWubClk_ldy0WEwMwJPru5IEfLveb4wefEgCXFrwr6tu1lSaCFLdSAWxUmwGUokv2JW1NWMnWZN9G49BthDGH2PX4-RrM4dX6mpL-Fd9qUEzAxSb4yHrwQe03iJL2qI3qHoYiThBjt8_FVzjVkeF5e3_0FwVjsii4ulEFEj-MsqKsb3ygtjQqQV_WtnLBMWXB7zkVlYF_7m00?></g></svg>