<svg xmlns="http://www.w3.org/2000/svg" xmlns:xlink="http://www.w3.org/1999/xlink" contentStyleType="text/css" data-diagram-type="DESCRIPTION" height="442px" preserveAspectRatio="none" style="width:1301px;height:442px;background:#FFFFFF;" version="1.1" viewBox="0 0 1301 442" width="1301px" zoomAndPan="magnify"><?plantuml 1.2026.4?><defs/><g><!--cluster eliminarEntregable--><g class="cluster" data-qualified-name="eliminarEntregable" data-source-line="4" id="ent0002"><path d="M213,6 L349.3652,6 A3.75,3.75 0 0 1 351.8652,8.5 L358.8652,29.6094 L569,29.6094 A2.5,2.5 0 0 1 571.5,32.1094 L571.5,424.5 A2.5,2.5 0 0 1 569,427 L213,427 A2.5,2.5 0 0 1 210.5,424.5 L210.5,8.5 A2.5,2.5 0 0 1 213,6" fill="none" style="stroke:#000000;stroke-width:1.5;"/><line style="stroke:#000000;stroke-width:1.5;" x1="210.5" x2="358.8652" y1="29.6094" y2="29.6094"/><text fill="#000000" font-family="sans-serif" font-size="14" font-weight="700" lengthAdjust="spacing" textLength="135.3652" x="214.5" y="22.5332">eliminarEntregable()</text></g><!--entity EliminarEntregableView--><g class="entity" data-qualified-name="eliminarEntregable.EliminarEntregableView" data-source-line="5" id="ent0003"><rect fill="#629EF9" height="37.6094" rx="2.5" ry="2.5" style="stroke:#181818;stroke-width:0.5;" width="168.627" x="367" y="42"/><text fill="#000000" font-family="sans-serif" font-size="14" lengthAdjust="spacing" textLength="148.627" x="377" y="66.5332">EliminarEntregableView</text></g><!--entity EntregableController--><g class="entity" data-qualified-name="eliminarEntregable.EntregableController" data-source-line="6" id="ent0004"><rect fill="#B5BD68" height="37.6094" rx="2.5" ry="2.5" style="stroke:#181818;stroke-width:0.5;" width="148.4063" x="274.5" y="158"/><text fill="#000000" font-family="sans-serif" font-size="14" lengthAdjust="spacing" textLength="128.4063" x="284.5" y="182.5332">EntregableController</text></g><!--entity EntregableRepository--><g class="entity" data-qualified-name="eliminarEntregable.EntregableRepository" data-source-line="7" id="ent0005"><rect fill="#F2AC4E" height="37.6094" rx="2.5" ry="2.5" style="stroke:#181818;stroke-width:0.5;" width="154.6338" x="283" y="274"/><text fill="#000000" font-family="sans-serif" font-size="14" lengthAdjust="spacing" textLength="134.6338" x="293" y="298.5332">EntregableRepository</text></g><!--entity Entregable--><g class="entity" data-qualified-name="eliminarEntregable.Entregable" data-source-line="8" id="ent0006"><rect fill="#F2AC4E" height="37.6094" rx="2.5" ry="2.5" style="stroke:#181818;stroke-width:0.5;" width="87.7168" x="316.5" y="373"/><text fill="#000000" font-family="sans-serif" font-size="14" lengthAdjust="spacing" textLength="67.7168" x="326.5" y="397.5332">Entregable</text></g><!--entity EstadoEntrada--><g class="entity" data-qualified-name="EstadoEntrada" data-source-line="3" id="ent0001"><rect fill="#CDEBA5" height="37.6094" rx="2.5" ry="2.5" style="stroke:#181818;stroke-width:0.5;" width="187.2686" x="7" y="42"/><text fill="#000000" font-family="sans-serif" font-size="14" lengthAdjust="spacing" textLength="167.2686" x="17" y="66.5332">:ENTREGABLE_ABIERTO</text></g><!--entity EstadoSalida--><g class="entity" data-qualified-name="EstadoSalida" data-source-line="11" id="ent0007"><rect fill="#CDEBA5" height="37.6094" rx="2.5" ry="2.5" style="stroke:#181818;stroke-width:0.5;" width="205.9443" x="587.5" y="158"/><text fill="#000000" font-family="sans-serif" font-size="14" lengthAdjust="spacing" textLength="185.9443" x="597.5" y="182.5332">:ENTREGABLES_ABIERTOS</text></g><!--entity AbrirEntregables--><g class="entity" data-qualified-name="AbrirEntregables" data-source-line="12" id="ent0008"><rect fill="#CDEBA5" height="37.6094" rx="2.5" ry="2.5" style="stroke:#181818;stroke-width:0.5;" width="214.5508" x="829" y="158"/><text fill="#000000" font-family="sans-serif" font-size="14" lengthAdjust="spacing" textLength="194.5508" x="839" y="182.5332">:Collaboration AbrirEntregables</text></g><!--entity AbrirEntregable--><g class="entity" data-qualified-name="AbrirEntregable" data-source-line="13" id="ent0009"><rect fill="#CDEBA5" height="37.6094" rx="2.5" ry="2.5" style="stroke:#181818;stroke-width:0.5;" width="207.5508" x="1079.5" y="158"/><text fill="#000000" font-family="sans-serif" font-size="14" lengthAdjust="spacing" textLength="187.5508" x="1089.5" y="182.5332">:Collaboration AbrirEntregable</text></g><!--link EstadoEntrada to EliminarEntregableView--><g class="link" data-entity-1="ent0001" data-entity-2="ent0003" data-link-type="dependency" data-source-line="15" id="lnk10"><path d="M194.1,61 C247.82,61 309.73,61 361.86,61" fill="none" id="EstadoEntrada-to-EliminarEntregableView" style="stroke:#181818;stroke-width:1;"/><polygon fill="#181818" points="366.86,61,357.86,57,361.86,61,357.86,65,366.86,61" style="stroke:#181818;stroke-width:1;stroke-linejoin:miter;stroke-miterlimit:10;"/><text fill="#000000" font-family="sans-serif" font-size="13" lengthAdjust="spacing" textLength="117.0508" x="222" y="54.4951">eliminarEntregable()</text></g><!--link EliminarEntregableView to EntregableController--><g class="link" data-entity-1="ent0003" data-entity-2="ent0004" data-link-type="dependency" data-source-line="17" id="lnk11"><path d="M379.08,80.01 C324.32,93.63 258.5,110 258.5,110 C258.5,110 258.5,128 258.5,128 C258.5,128 284.7781,142.0172 310.3181,155.6372" fill="none" id="EliminarEntregableView-to-EntregableController" style="stroke:#181818;stroke-width:1;"/><polygon fill="#181818" points="314.73,157.99,308.6709,150.2255,310.3181,155.6372,304.9064,157.2845,314.73,157.99" style="stroke:#181818;stroke-width:1;stroke-linejoin:miter;stroke-miterlimit:10;"/><text fill="#000000" font-family="sans-serif" font-size="13" lengthAdjust="spacing" textLength="127.1689" x="259.5" y="124.4951">eliminarEntregable(id)</text></g><!--link EliminarEntregableView to EntregableController--><g class="link" data-entity-1="ent0003" data-entity-2="ent0004" data-link-type="dependency" data-source-line="18" id="lnk12"><path d="M435.18,80.06 C416.01,101.28 387.7219,132.5899 368.4419,153.9299" fill="none" id="EliminarEntregableView-to-EntregableController-1" style="stroke:#181818;stroke-width:1;"/><polygon fill="#181818" points="365.09,157.64,374.0915,153.6434,368.4419,153.9299,368.1554,148.2803,365.09,157.64" style="stroke:#181818;stroke-width:1;stroke-linejoin:miter;stroke-miterlimit:10;"/><text fill="#000000" font-family="sans-serif" font-size="13" lengthAdjust="spacing" textLength="123.5444" x="406.5" y="124.4951">validarEliminacion(id)</text></g><!--link EntregableController to EntregableRepository--><g class="link" data-entity-1="ent0004" data-entity-2="ent0005" data-link-type="dependency" data-source-line="19" id="lnk13"><path d="M322.41,196.15 C302.87,209.74 279.5,226 279.5,226 C279.5,226 279.5,244 279.5,244 C279.5,244 302.6382,257.7116 325.5782,271.3016" fill="none" id="EntregableController-to-EntregableRepository" style="stroke:#181818;stroke-width:1;"/><polygon fill="#181818" points="329.88,273.85,324.1755,265.8214,325.5782,271.3016,320.098,272.7042,329.88,273.85" style="stroke:#181818;stroke-width:1;stroke-linejoin:miter;stroke-miterlimit:10;"/><text fill="#000000" font-family="sans-serif" font-size="13" lengthAdjust="spacing" textLength="93.939" x="280.5" y="240.4951">obtenerPorId(id)</text></g><!--link EntregableController to EntregableRepository--><g class="link" data-entity-1="ent0004" data-entity-2="ent0005" data-link-type="dependency" data-source-line="20" id="lnk14"><path d="M359.84,196.15 C368.34,209.74 378.5,226 378.5,226 C378.5,226 378.5,244 378.5,244 C378.5,244 374.1537,255.5776 369.0637,269.1676" fill="none" id="EntregableController-to-EntregableRepository-1" style="stroke:#181818;stroke-width:1;"/><polygon fill="#181818" points="367.31,273.85,374.2126,266.8247,369.0637,269.1676,366.7208,264.0188,367.31,273.85" style="stroke:#181818;stroke-width:1;stroke-linejoin:miter;stroke-miterlimit:10;"/><text fill="#000000" font-family="sans-serif" font-size="13" lengthAdjust="spacing" textLength="64.2891" x="379.5" y="240.4951">eliminar(id)</text></g><!--link EntregableRepository to Entregable--><g class="link" data-entity-1="ent0005" data-entity-2="ent0006" data-link-type="association" data-source-line="21" id="lnk15"><path d="M360.5,312.24 C360.5,329.59 360.5,355.52 360.5,372.84" fill="none" id="EntregableRepository-Entregable" style="stroke:#181818;stroke-width:1;"/></g><!--link EliminarEntregableView to EstadoSalida--><g class="link" data-entity-1="ent0003" data-entity-2="ent0007" data-link-type="dependency" data-source-line="22" id="lnk16"><path d="M489.37,80.06 C533.99,101.35 603.1872,134.3471 647.8972,155.6771" fill="none" id="EliminarEntregableView-to-EstadoSalida" style="stroke:#181818;stroke-width:1;stroke-dasharray:7,7;"/><polygon fill="#181818" points="652.41,157.83,646.0094,150.3445,647.8972,155.6771,642.5647,157.5649,652.41,157.83" style="stroke:#181818;stroke-width:1;stroke-linejoin:miter;stroke-miterlimit:10;"/><text fill="#000000" font-family="sans-serif" font-size="13" lengthAdjust="spacing" textLength="130.7935" x="585.5" y="124.4951">continuarNavegacion()</text></g><!--link EliminarEntregableView to AbrirEntregables--><g class="link" data-entity-1="ent0003" data-entity-2="ent0008" data-link-type="dependency" data-source-line="23" id="lnk17"><path d="M536.01,76.86 C616.19,90.96 724.5,110 724.5,110 C724.5,110 811.0262,136.9332 873.7962,156.4832" fill="none" id="EliminarEntregableView-to-AbrirEntregables" style="stroke:#181818;stroke-width:1;stroke-dasharray:7,7;"/><polygon fill="#181818" points="878.57,157.97,871.1666,151.4747,873.7962,156.4832,868.7877,159.1128,878.57,157.97" style="stroke:#181818;stroke-width:1;stroke-linejoin:miter;stroke-miterlimit:10;"/><text fill="#000000" font-family="sans-serif" font-size="13" lengthAdjust="spacing" textLength="104.0444" x="781.5" y="124.4951">abrirEntregables()</text></g><!--link EliminarEntregableView to AbrirEntregable--><g class="link" data-entity-1="ent0003" data-entity-2="ent0009" data-link-type="dependency" data-source-line="24" id="lnk18"><path d="M536.13,71.17 C664.71,85.1 894.5,110 894.5,110 C894.5,110 1014.0856,137.3064 1099.6556,156.8564" fill="none" id="EliminarEntregableView-to-AbrirEntregable" style="stroke:#181818;stroke-width:1;stroke-dasharray:7,7;"/><polygon fill="#181818" points="1104.53,157.97,1096.647,152.0659,1099.6556,156.8564,1094.8652,159.865,1104.53,157.97" style="stroke:#181818;stroke-width:1;stroke-linejoin:miter;stroke-miterlimit:10;"/><text fill="#000000" font-family="sans-serif" font-size="13" lengthAdjust="spacing" textLength="97.5444" x="972.5" y="124.4951">abrirEntregable()</text></g><?plantuml-src dP91Qm8n48Nl-HN3zb8FUf0gTG_2ker5ABQez5fcTuC4OxBCfXOf_U-Djk8QinMRqsRutilEcwbMKfT8k0ObjR3RKa1fr7PtOOn4Rb4lbO2Rz86FaXv4CPykPlmn6JtnjsGquRF5SmHO0Qyi5ePhIrWWAp5VuLA0K78jDTAkBfQOEIV7HkVbsrO4dmpSgRtPxmxuU03yZ7wLuiE7irvMzE_X2AN6VHgb1Fdek9kaTxo6paHfAcaDRI-YxEjIBFD3BlDQC7DKqkKIKgRk7p4pX5OQ3Kb6ijPfjVVmYzVxX6mOEnaQjAazR0WxXj38d46GXdQnSmfC8kWZYrQZKQFFPXye_Ufor_AFJm3sN8x3Zi5aLcX1BuOcnN_qXsuyxH5nslhoDBJPwGnFzYI6tBqkzJlI53SEtFVN-alkhqWCw5Mkqf_9dVeR?></g></svg>