<svg xmlns="http://www.w3.org/2000/svg" xmlns:xlink="http://www.w3.org/1999/xlink" contentStyleType="text/css" data-diagram-type="SALT" height="204px" preserveAspectRatio="none" style="width:545px;height:204px;background:#FFFFFF;" version="1.1" viewBox="0 0 545 204" width="545px" zoomAndPan="magnify"><?plantuml 1.2026.5?><defs/><g><line style="stroke:#AAAAAA;stroke-width:1;" x1="6" x2="539" y1="8.5" y2="8.5"/><line style="stroke:#AAAAAA;stroke-width:1;" x1="6" x2="539" y1="10.5" y2="10.5"/><text fill="#000000" font-family="sans-serif" font-size="12" font-weight="700" lengthAdjust="spacing" textLength="146.0156" x="6" y="26.457">GIPF - INVESTIGADORES</text><line style="stroke:#AAAAAA;stroke-width:1;" x1="6" x2="539" y1="33.5938" y2="33.5938"/><line style="stroke:#AAAAAA;stroke-width:1;" x1="6" x2="539" y1="35.5938" y2="35.5938"/><text fill="#000000" font-family="sans-serif" font-size="12" font-weight="700" lengthAdjust="spacing" textLength="124.6992" x="8" y="53.5508">Nombre, sede o linea:</text><rect fill="#EEEEEE" height="19.0938" rx="5" ry="5" style="stroke:#000000;stroke-width:2.5;" width="244" x="137.1992" y="43.5938"/><text fill="#000000" font-family="sans-serif" font-size="12" lengthAdjust="spacing" textLength="3.334" x="257.5322" y="58.0508">&#160;</text><text fill="#000000" font-family="sans-serif" font-size="12" font-weight="700" lengthAdjust="spacing" textLength="55.9922" x="8" y="81.6445">Contexto:</text><text fill="#000000" font-family="sans-serif" font-size="12" lengthAdjust="spacing" textLength="86.0273" x="69.9922" y="82.6445">Directorio activo</text><line style="stroke:#000000;stroke-width:1;" x1="67.9922" x2="206.9922" y1="85.2813" y2="85.2813"/><line style="stroke:#000000;stroke-width:1;" x1="67.9922" x2="67.9922" y1="82.2813" y2="84.2813"/><line style="stroke:#000000;stroke-width:1;" x1="206.9922" x2="206.9922" y1="82.2813" y2="84.2813"/><text fill="#000000" font-family="sans-serif" font-size="12" lengthAdjust="spacing" textLength="138.0762" x="213.9922" y="82.6445">Participantes del proyecto</text><line style="stroke:#000000;stroke-width:1;" x1="211.9922" x2="422.9922" y1="85.2813" y2="85.2813"/><line style="stroke:#000000;stroke-width:1;" x1="211.9922" x2="211.9922" y1="82.2813" y2="84.2813"/><line style="stroke:#000000;stroke-width:1;" x1="422.9922" x2="422.9922" y1="82.2813" y2="84.2813"/><line style="stroke:#AAAAAA;stroke-width:1.5;" x1="7" x2="538" y1="94.7813" y2="94.7813"/><text fill="#000000" font-family="sans-serif" font-size="12" font-weight="700" lengthAdjust="spacing" textLength="45.3398" x="9" y="113.7383">Nombre</text><text fill="#000000" font-family="sans-serif" font-size="12" font-weight="700" lengthAdjust="spacing" textLength="28.6816" x="56.3398" y="113.7383">Sede</text><text fill="#000000" font-family="sans-serif" font-size="12" font-weight="700" lengthAdjust="spacing" textLength="31.3418" x="87.0215" y="113.7383">Linea</text><text fill="#000000" font-family="sans-serif" font-size="12" font-weight="700" lengthAdjust="spacing" textLength="25.3242" x="120.3633" y="113.7383">Tipo</text><text fill="#000000" font-family="sans-serif" font-size="12" lengthAdjust="spacing" textLength="57.3809" x="12" y="132.832">Ana Lopez</text><line style="stroke:#000000;stroke-width:1;" x1="10" x2="85" y1="135.4688" y2="135.4688"/><line style="stroke:#000000;stroke-width:1;" x1="10" x2="10" y1="132.4688" y2="134.4688"/><line style="stroke:#000000;stroke-width:1;" x1="85" x2="85" y1="132.4688" y2="134.4688"/><text fill="#000000" font-family="sans-serif" font-size="12" lengthAdjust="spacing" textLength="55.377" x="92" y="132.832">Santander</text><line style="stroke:#000000;stroke-width:1;" x1="90" x2="165" y1="135.4688" y2="135.4688"/><line style="stroke:#000000;stroke-width:1;" x1="90" x2="90" y1="132.4688" y2="134.4688"/><line style="stroke:#000000;stroke-width:1;" x1="165" x2="165" y1="132.4688" y2="134.4688"/><text fill="#000000" font-family="sans-serif" font-size="12" lengthAdjust="spacing" textLength="104.7188" x="172" y="132.832">Inteligencia artificial</text><line style="stroke:#000000;stroke-width:1;" x1="170" x2="357" y1="135.4688" y2="135.4688"/><line style="stroke:#000000;stroke-width:1;" x1="170" x2="170" y1="132.4688" y2="134.4688"/><line style="stroke:#000000;stroke-width:1;" x1="357" x2="357" y1="132.4688" y2="134.4688"/><text fill="#000000" font-family="sans-serif" font-size="12" lengthAdjust="spacing" textLength="118.7461" x="364" y="132.832">Investigadora-docente</text><line style="stroke:#000000;stroke-width:1;" x1="362" x2="533" y1="135.4688" y2="135.4688"/><line style="stroke:#000000;stroke-width:1;" x1="362" x2="362" y1="132.4688" y2="134.4688"/><line style="stroke:#000000;stroke-width:1;" x1="533" x2="533" y1="132.4688" y2="134.4688"/><text fill="#000000" font-family="sans-serif" font-size="12" lengthAdjust="spacing" textLength="68.6836" x="12" y="153.9258">Mario Garcia</text><line style="stroke:#000000;stroke-width:1;" x1="10" x2="109" y1="156.5625" y2="156.5625"/><line style="stroke:#000000;stroke-width:1;" x1="10" x2="10" y1="153.5625" y2="155.5625"/><line style="stroke:#000000;stroke-width:1;" x1="109" x2="109" y1="153.5625" y2="155.5625"/><text fill="#000000" font-family="sans-serif" font-size="12" lengthAdjust="spacing" textLength="54.0352" x="116" y="153.9258">Barcelona</text><line style="stroke:#000000;stroke-width:1;" x1="114" x2="189" y1="156.5625" y2="156.5625"/><line style="stroke:#000000;stroke-width:1;" x1="114" x2="114" y1="153.5625" y2="155.5625"/><line style="stroke:#000000;stroke-width:1;" x1="189" x2="189" y1="153.5625" y2="155.5625"/><text fill="#000000" font-family="sans-serif" font-size="12" lengthAdjust="spacing" textLength="110.0566" x="196" y="153.9258">Produccion cientifica</text><line style="stroke:#000000;stroke-width:1;" x1="194" x2="365" y1="156.5625" y2="156.5625"/><line style="stroke:#000000;stroke-width:1;" x1="194" x2="194" y1="153.5625" y2="155.5625"/><line style="stroke:#000000;stroke-width:1;" x1="365" x2="365" y1="153.5625" y2="155.5625"/><text fill="#000000" font-family="sans-serif" font-size="12" lengthAdjust="spacing" textLength="65.373" x="372" y="153.9258">Investigador</text><line style="stroke:#000000;stroke-width:1;" x1="370" x2="469" y1="156.5625" y2="156.5625"/><line style="stroke:#000000;stroke-width:1;" x1="370" x2="370" y1="153.5625" y2="155.5625"/><line style="stroke:#000000;stroke-width:1;" x1="469" x2="469" y1="153.5625" y2="155.5625"/><line style="stroke:#AAAAAA;stroke-width:1.5;" x1="7" x2="538" y1="166.0625" y2="166.0625"/><rect fill="#EEEEEE" height="19.0938" rx="5" ry="5" style="stroke:#000000;stroke-width:2.5;" width="148" x="10.5" y="174.0625"/><text fill="#000000" font-family="sans-serif" font-size="12" lengthAdjust="spacing" textLength="93.375" x="37.8125" y="188.5195">Abrir investigador</text><rect fill="#EEEEEE" height="19.0938" rx="5" ry="5" style="stroke:#000000;stroke-width:2.5;" width="148" x="165.5" y="174.0625"/><text fill="#000000" font-family="sans-serif" font-size="12" lengthAdjust="spacing" textLength="98.0449" x="190.4775" y="188.5195">Crear investigador</text><rect fill="#EEEEEE" height="19.0938" rx="5" ry="5" style="stroke:#000000;stroke-width:2.5;" width="116" x="320.5" y="174.0625"/><text fill="#000000" font-family="sans-serif" font-size="12" lengthAdjust="spacing" textLength="62.6836" x="347.1582" y="188.5195">Aplicar filtro</text><rect fill="#EEEEEE" height="19.0938" rx="5" ry="5" style="stroke:#000000;stroke-width:2.5;" width="52" x="443.5" y="174.0625"/><text fill="#000000" font-family="sans-serif" font-size="12" lengthAdjust="spacing" textLength="34.0137" x="452.4932" y="188.5195">Volver</text><?plantuml-src VL9DJy904BttLqnw5bGIFHWa821fWaWiuK8u3Er0DbbscksA7rX-kxC5Kr3YdEPDvxrvqzbsxj2w7BK3N5Xb8xEXtAaLfcmfhxqfIqkBQmgs0KZSIvH9Sz4QHED7g44qclRZIJJez9vV-d7pSj4wxTmJoqn88rulB5r0JYa1WrQ6yCwJu0jcy6_CYnEbBXj7xuv_s5i8U-8sSMmL0oPERJYKUZYM1LMYCfJ-75BIa5d-y8qX59NcRbV91yTpAzk7IO9ZiL-XeT-YWXELiKV5gKpOCGX3pkYpj1MB7pGfsH95Oawh5Pb48NZ3Ix6C-l2jkWdMKav8ciFVwa_eznwW5Lv9Uv2KD9iz6bjENvD4iO54YO0VW7_aZrJF_vbPnxyIK4USkJzTrnAUANSoBMCiB9LsbilIbFM6xE6OHL04RJAfVu11S5rlN3LkwpVV?></g></svg>