<svg xmlns="http://www.w3.org/2000/svg" xmlns:xlink="http://www.w3.org/1999/xlink" contentStyleType="text/css" data-diagram-type="DESCRIPTION" height="442px" preserveAspectRatio="none" style="width:1594px;height:442px;background:#FFFFFF;" version="1.1" viewBox="0 0 1594 442" width="1594px" zoomAndPan="magnify"><?plantuml 1.2026.4?><defs/><g><!--cluster crearEntregable--><g class="cluster" data-qualified-name="crearEntregable" data-source-line="4" id="ent0002"><path d="M231.5,6 L348.4307,6 A3.75,3.75 0 0 1 350.9307,8.5 L357.9307,29.6094 L610.5,29.6094 A2.5,2.5 0 0 1 613,32.1094 L613,424.5 A2.5,2.5 0 0 1 610.5,427 L231.5,427 A2.5,2.5 0 0 1 229,424.5 L229,8.5 A2.5,2.5 0 0 1 231.5,6" fill="none" style="stroke:#000000;stroke-width:1.5;"/><line style="stroke:#000000;stroke-width:1.5;" x1="229" x2="357.9307" y1="29.6094" y2="29.6094"/><text fill="#000000" font-family="sans-serif" font-size="14" font-weight="700" lengthAdjust="spacing" textLength="115.9307" x="233" y="22.5332">crearEntregable()</text></g><!--entity CrearEntregableView--><g class="entity" data-qualified-name="crearEntregable.CrearEntregableView" data-source-line="5" id="ent0003"><rect fill="#629EF9" height="37.6094" rx="2.5" ry="2.5" style="stroke:#181818;stroke-width:0.5;" width="153.0684" x="443.5" y="42"/><text fill="#000000" font-family="sans-serif" font-size="14" lengthAdjust="spacing" textLength="133.0684" x="453.5" y="66.5332">CrearEntregableView</text></g><!--entity EntregableController--><g class="entity" data-qualified-name="crearEntregable.EntregableController" data-source-line="6" id="ent0004"><rect fill="#B5BD68" height="37.6094" rx="2.5" ry="2.5" style="stroke:#181818;stroke-width:0.5;" width="148.4063" x="312" y="158"/><text fill="#000000" font-family="sans-serif" font-size="14" lengthAdjust="spacing" textLength="128.4063" x="322" y="182.5332">EntregableController</text></g><!--entity EntregableRepository--><g class="entity" data-qualified-name="crearEntregable.EntregableRepository" data-source-line="7" id="ent0005"><rect fill="#F2AC4E" height="37.6094" rx="2.5" ry="2.5" style="stroke:#181818;stroke-width:0.5;" width="154.6338" x="321.5" y="274"/><text fill="#000000" font-family="sans-serif" font-size="14" lengthAdjust="spacing" textLength="134.6338" x="331.5" y="298.5332">EntregableRepository</text></g><!--entity Entregable--><g class="entity" data-qualified-name="crearEntregable.Entregable" data-source-line="8" id="ent0006"><rect fill="#F2AC4E" height="37.6094" rx="2.5" ry="2.5" style="stroke:#181818;stroke-width:0.5;" width="87.7168" x="355" y="373"/><text fill="#000000" font-family="sans-serif" font-size="14" lengthAdjust="spacing" textLength="67.7168" x="365" y="397.5332">Entregable</text></g><!--entity EstadoEntrada--><g class="entity" data-qualified-name="EstadoEntrada" data-source-line="3" id="ent0001"><rect fill="#CDEBA5" height="37.6094" rx="2.5" ry="2.5" style="stroke:#181818;stroke-width:0.5;" width="205.9443" x="7" y="42"/><text fill="#000000" font-family="sans-serif" font-size="14" lengthAdjust="spacing" textLength="185.9443" x="17" y="66.5332">:ENTREGABLES_ABIERTOS</text></g><!--entity EstadoSalida--><g class="entity" data-qualified-name="EstadoSalida" data-source-line="11" id="ent0007"><rect fill="#CDEBA5" height="37.6094" rx="2.5" ry="2.5" style="stroke:#181818;stroke-width:0.5;" width="187.2686" x="629.5" y="158"/><text fill="#000000" font-family="sans-serif" font-size="14" lengthAdjust="spacing" textLength="167.2686" x="639.5" y="182.5332">:ENTREGABLE_ABIERTO</text></g><!--entity EditarEntregable--><g class="entity" data-qualified-name="EditarEntregable" data-source-line="12" id="ent0008"><rect fill="#CDEBA5" height="37.6094" rx="2.5" ry="2.5" style="stroke:#181818;stroke-width:0.5;" width="214.5645" x="851.5" y="158"/><text fill="#000000" font-family="sans-serif" font-size="14" lengthAdjust="spacing" textLength="194.5645" x="861.5" y="182.5332">:Collaboration EditarEntregable</text></g><!--entity EliminarEntregable--><g class="entity" data-qualified-name="EliminarEntregable" data-source-line="13" id="ent0009"><rect fill="#CDEBA5" height="37.6094" rx="2.5" ry="2.5" style="stroke:#181818;stroke-width:0.5;" width="228.5576" x="1101.5" y="158"/><text fill="#000000" font-family="sans-serif" font-size="14" lengthAdjust="spacing" textLength="208.5576" x="1111.5" y="182.5332">:Collaboration EliminarEntregable</text></g><!--entity AbrirEntregables--><g class="entity" data-qualified-name="AbrirEntregables" data-source-line="14" id="ent0010"><rect fill="#CDEBA5" height="37.6094" rx="2.5" ry="2.5" style="stroke:#181818;stroke-width:0.5;" width="214.5508" x="1365.5" y="158"/><text fill="#000000" font-family="sans-serif" font-size="14" lengthAdjust="spacing" textLength="194.5508" x="1375.5" y="182.5332">:Collaboration AbrirEntregables</text></g><!--link EstadoEntrada to CrearEntregableView--><g class="link" data-entity-1="ent0001" data-entity-2="ent0003" data-link-type="dependency" data-source-line="16" id="lnk11"><path d="M213.2,61 C284.72,61 373.39,61 438.33,61" fill="none" id="EstadoEntrada-to-CrearEntregableView" style="stroke:#181818;stroke-width:1;"/><polygon fill="#181818" points="443.33,61,434.33,57,438.33,61,434.33,65,443.33,61" style="stroke:#181818;stroke-width:1;stroke-linejoin:miter;stroke-miterlimit:10;"/><text fill="#000000" font-family="sans-serif" font-size="13" lengthAdjust="spacing" textLength="101.1563" x="277.75" y="54.4951">crearEntregable()</text></g><!--link CrearEntregableView to EntregableController--><g class="link" data-entity-1="ent0003" data-entity-2="ent0004" data-link-type="dependency" data-source-line="18" id="lnk12"><path d="M443.45,77.12 C372.22,91.19 277,110 277,110 C277,110 277,128 277,128 C277,128 309.594,142.355 340.524,155.975" fill="none" id="CrearEntregableView-to-EntregableController" style="stroke:#181818;stroke-width:1;"/><polygon fill="#181818" points="345.1,157.99,338.4753,150.7022,340.524,155.975,335.2512,158.0237,345.1,157.99" style="stroke:#181818;stroke-width:1;stroke-linejoin:miter;stroke-miterlimit:10;"/><text fill="#000000" font-family="sans-serif" font-size="13" lengthAdjust="spacing" textLength="132.958" x="278" y="124.4951">crearEntregable(datos)</text></g><!--link CrearEntregableView to EntregableController--><g class="link" data-entity-1="ent0003" data-entity-2="ent0004" data-link-type="dependency" data-source-line="19" id="lnk13"><path d="M498.77,80.06 C473.82,101.28 436.4787,133.0606 411.3887,154.4006" fill="none" id="CrearEntregableView-to-EntregableController-1" style="stroke:#181818;stroke-width:1;"/><polygon fill="#181818" points="407.58,157.64,417.0272,154.856,411.3887,154.4006,411.8441,148.7621,407.58,157.64" style="stroke:#181818;stroke-width:1;stroke-linejoin:miter;stroke-miterlimit:10;"/><text fill="#000000" font-family="sans-serif" font-size="13" lengthAdjust="spacing" textLength="141.6353" x="462" y="124.4951">validarEntregable(datos)</text></g><!--link EntregableController to EntregableRepository--><g class="link" data-entity-1="ent0004" data-entity-2="ent0005" data-link-type="dependency" data-source-line="20" id="lnk14"><path d="M352.98,196.01 C328.01,209.63 298,226 298,226 C298,226 298,244 298,244 C298,244 327.924,258.2239 356.584,271.8439" fill="none" id="EntregableController-to-EntregableRepository" style="stroke:#181818;stroke-width:1;"/><polygon fill="#181818" points="361.1,273.99,354.6881,266.5142,356.584,271.8439,351.2543,273.7398,361.1,273.99" style="stroke:#181818;stroke-width:1;stroke-linejoin:miter;stroke-miterlimit:10;"/><text fill="#000000" font-family="sans-serif" font-size="13" lengthAdjust="spacing" textLength="132.2344" x="299" y="240.4951">existeDuplicado(datos)</text></g><!--link EntregableController to EntregableRepository--><g class="link" data-entity-1="ent0004" data-entity-2="ent0005" data-link-type="dependency" data-source-line="21" id="lnk15"><path d="M404.9,196.15 C419.06,209.74 436,226 436,226 C436,226 436,244 436,244 C436,244 426.5233,256.3006 416.0433,269.8906" fill="none" id="EntregableController-to-EntregableRepository-1" style="stroke:#181818;stroke-width:1;"/><polygon fill="#181818" points="412.99,273.85,421.6536,269.1657,416.0433,269.8906,415.3185,264.2803,412.99,273.85" style="stroke:#181818;stroke-width:1;stroke-linejoin:miter;stroke-miterlimit:10;"/><text fill="#000000" font-family="sans-serif" font-size="13" lengthAdjust="spacing" textLength="96.1162" x="437" y="240.4951">guardar(entidad)</text></g><!--link EntregableRepository to Entregable--><g class="link" data-entity-1="ent0005" data-entity-2="ent0006" data-link-type="association" data-source-line="22" id="lnk16"><path d="M399,312.24 C399,329.59 399,355.52 399,372.84" fill="none" id="EntregableRepository-Entregable" style="stroke:#181818;stroke-width:1;"/></g><!--link CrearEntregableView to EstadoSalida--><g class="link" data-entity-1="ent0003" data-entity-2="ent0007" data-link-type="dependency" data-source-line="23" id="lnk17"><path d="M554.52,80.01 C580.62,93.63 612,110 612,110 C612,110 655.5026,135.8641 688.3726,155.4141" fill="none" id="CrearEntregableView-to-EstadoSalida" style="stroke:#181818;stroke-width:1;stroke-dasharray:7,7;"/><polygon fill="#181818" points="692.67,157.97,686.9795,149.9315,688.3726,155.4141,682.89,156.8072,692.67,157.97" style="stroke:#181818;stroke-width:1;stroke-linejoin:miter;stroke-miterlimit:10;"/><text fill="#000000" font-family="sans-serif" font-size="13" lengthAdjust="spacing" textLength="130.7935" x="642" y="124.4951">continuarNavegacion()</text></g><!--link CrearEntregableView to EditarEntregable--><g class="link" data-entity-1="ent0003" data-entity-2="ent0008" data-link-type="dependency" data-source-line="24" id="lnk18"><path d="M596.55,76.08 C673.56,90.24 781,110 781,110 C781,110 852.9722,136.681 905.6722,156.231" fill="none" id="CrearEntregableView-to-EditarEntregable" style="stroke:#181818;stroke-width:1;stroke-dasharray:7,7;"/><polygon fill="#181818" points="910.36,157.97,903.3131,151.0895,905.6722,156.231,900.5307,158.59,910.36,157.97" style="stroke:#181818;stroke-width:1;stroke-linejoin:miter;stroke-miterlimit:10;"/><text fill="#000000" font-family="sans-serif" font-size="13" lengthAdjust="spacing" textLength="104.0571" x="829" y="124.4951">editarEntregable()</text></g><!--link CrearEntregableView to EliminarEntregable--><g class="link" data-entity-1="ent0003" data-entity-2="ent0009" data-link-type="dependency" data-source-line="25" id="lnk19"><path d="M596.91,70.75 C718.63,84.59 942,110 942,110 C942,110 1055.1391,137.2487 1136.2691,156.7987" fill="none" id="CrearEntregableView-to-EliminarEntregable" style="stroke:#181818;stroke-width:1;stroke-dasharray:7,7;"/><polygon fill="#181818" points="1141.13,157.97,1133.3175,151.9729,1136.2691,156.7987,1131.4434,159.7503,1141.13,157.97" style="stroke:#181818;stroke-width:1;stroke-linejoin:miter;stroke-miterlimit:10;"/><text fill="#000000" font-family="sans-serif" font-size="13" lengthAdjust="spacing" textLength="117.0508" x="1016" y="124.4951">eliminarEntregable()</text></g><!--link CrearEntregableView to AbrirEntregables--><g class="link" data-entity-1="ent0003" data-entity-2="ent0010" data-link-type="dependency" data-source-line="26" id="lnk20"><path d="M596.58,67.91 C762.84,80.74 1142,110 1142,110 C1142,110 1279.6466,137.4418 1377.6466,156.9918" fill="none" id="CrearEntregableView-to-AbrirEntregables" style="stroke:#181818;stroke-width:1;stroke-dasharray:7,7;"/><polygon fill="#181818" points="1382.55,157.97,1374.5064,152.2866,1377.6466,156.9918,1372.9414,160.132,1382.55,157.97" style="stroke:#181818;stroke-width:1;stroke-linejoin:miter;stroke-miterlimit:10;"/><text fill="#000000" font-family="sans-serif" font-size="13" lengthAdjust="spacing" textLength="104.0444" x="1231" y="124.4951">abrirEntregables()</text></g><?plantuml-src dP9TQy8m58RlyoiEtOrUw8LCcLu8jSOn60vqx7QSjg44OrBIw2PZ_tr7nx2cyOFrAdrvtoSv7zLAwX8jha59BTok550QjTl_C6P5vb0NIi1TCkMJk0_HYCzV5_mndZppvNiyUUABrvTb15W1hnpcXcjdCKTMOhR2Ga1c1TgzA0fC2KJ6oDDQxGY-6D1Nks_G6_BP499JwviK7xupxQVvu06EfiJGqIWbh6-TzUBadjUi2r6QIZfZTrUjxFjQF_xQKUl64fMaPeHo2RqGKsFHIQE1vzBL2_rbUE8j72NNKZT93Va6LfnQMKjK1v8lCdOoT-ZOpZWqjH4qfivOm0UTd02XOJO9EJfJjSEKiv3jOIG1JCZkSOxhCWBnAIidffjIoOpg_oUbsA2brxI4TlIgl9u_sYXVNyHGlTtk-6Jbg5bqlTI4d-EMZ1bDjDK-d_LMZUhpb4lXndPHlA5T0FXBDGBq50h_0000?></g></svg>