<svg xmlns="http://www.w3.org/2000/svg" xmlns:xlink="http://www.w3.org/1999/xlink" contentStyleType="text/css" data-diagram-type="DESCRIPTION" height="442px" preserveAspectRatio="none" style="width:2058px;height:442px;background:#FFFFFF;" version="1.1" viewBox="0 0 2058 442" width="2058px" zoomAndPan="magnify"><?plantuml 1.2026.4?><defs/><g><!--cluster crearProyecto--><g class="cluster" data-qualified-name="crearProyecto" data-source-line="4" id="ent0002"><path d="M215.5,6 L319.9893,6 A3.75,3.75 0 0 1 322.4893,8.5 L329.4893,29.6094 L572.5,29.6094 A2.5,2.5 0 0 1 575,32.1094 L575,424.5 A2.5,2.5 0 0 1 572.5,427 L215.5,427 A2.5,2.5 0 0 1 213,424.5 L213,8.5 A2.5,2.5 0 0 1 215.5,6" fill="none" style="stroke:#000000;stroke-width:1.5;"/><line style="stroke:#000000;stroke-width:1.5;" x1="213" x2="329.4893" y1="29.6094" y2="29.6094"/><text fill="#000000" font-family="sans-serif" font-size="14" font-weight="700" lengthAdjust="spacing" textLength="103.4893" x="217" y="22.5332">crearProyecto()</text></g><!--entity CrearProyectoView--><g class="entity" data-qualified-name="crearProyecto.CrearProyectoView" data-source-line="5" id="ent0003"><rect fill="#629EF9" height="37.6094" rx="2.5" ry="2.5" style="stroke:#181818;stroke-width:0.5;" width="140.5996" x="417.5" y="42"/><text fill="#000000" font-family="sans-serif" font-size="14" lengthAdjust="spacing" textLength="120.5996" x="427.5" y="66.5332">CrearProyectoView</text></g><!--entity ProyectoController--><g class="entity" data-qualified-name="crearProyecto.ProyectoController" data-source-line="6" id="ent0004"><rect fill="#B5BD68" height="37.6094" rx="2.5" ry="2.5" style="stroke:#181818;stroke-width:0.5;" width="135.9375" x="294" y="158"/><text fill="#000000" font-family="sans-serif" font-size="14" lengthAdjust="spacing" textLength="115.9375" x="304" y="182.5332">ProyectoController</text></g><!--entity ProyectoRepository--><g class="entity" data-qualified-name="crearProyecto.ProyectoRepository" data-source-line="7" id="ent0005"><rect fill="#F2AC4E" height="37.6094" rx="2.5" ry="2.5" style="stroke:#181818;stroke-width:0.5;" width="142.165" x="303" y="274"/><text fill="#000000" font-family="sans-serif" font-size="14" lengthAdjust="spacing" textLength="122.165" x="313" y="298.5332">ProyectoRepository</text></g><!--entity Proyecto--><g class="entity" data-qualified-name="crearProyecto.Proyecto" data-source-line="8" id="ent0006"><rect fill="#F2AC4E" height="37.6094" rx="2.5" ry="2.5" style="stroke:#181818;stroke-width:0.5;" width="75.248" x="336.5" y="373"/><text fill="#000000" font-family="sans-serif" font-size="14" lengthAdjust="spacing" textLength="55.248" x="346.5" y="397.5332">Proyecto</text></g><!--entity EstadoEntrada--><g class="entity" data-qualified-name="EstadoEntrada" data-source-line="3" id="ent0001"><rect fill="#CDEBA5" height="37.6094" rx="2.5" ry="2.5" style="stroke:#181818;stroke-width:0.5;" width="190.3721" x="7" y="42"/><text fill="#000000" font-family="sans-serif" font-size="14" lengthAdjust="spacing" textLength="170.3721" x="17" y="66.5332">:PROYECTOS_ABIERTOS</text></g><!--entity EstadoSalida--><g class="entity" data-qualified-name="EstadoSalida" data-source-line="11" id="ent0007"><rect fill="#CDEBA5" height="37.6094" rx="2.5" ry="2.5" style="stroke:#181818;stroke-width:0.5;" width="171.6963" x="591" y="158"/><text fill="#000000" font-family="sans-serif" font-size="14" lengthAdjust="spacing" textLength="151.6963" x="601" y="182.5332">:PROYECTO_ABIERTO</text></g><!--entity EditarProyecto--><g class="entity" data-qualified-name="EditarProyecto" data-source-line="12" id="ent0008"><rect fill="#CDEBA5" height="37.6094" rx="2.5" ry="2.5" style="stroke:#181818;stroke-width:0.5;" width="202.0957" x="798" y="158"/><text fill="#000000" font-family="sans-serif" font-size="14" lengthAdjust="spacing" textLength="182.0957" x="808" y="182.5332">:Collaboration EditarProyecto</text></g><!--entity EliminarProyecto--><g class="entity" data-qualified-name="EliminarProyecto" data-source-line="13" id="ent0009"><rect fill="#CDEBA5" height="37.6094" rx="2.5" ry="2.5" style="stroke:#181818;stroke-width:0.5;" width="216.0889" x="1035" y="158"/><text fill="#000000" font-family="sans-serif" font-size="14" lengthAdjust="spacing" textLength="196.0889" x="1045" y="182.5332">:Collaboration EliminarProyecto</text></g><!--entity AgregarInvestigador--><g class="entity" data-qualified-name="AgregarInvestigador" data-source-line="14" id="ent0010"><rect fill="#CDEBA5" height="37.6094" rx="2.5" ry="2.5" style="stroke:#181818;stroke-width:0.5;" width="236.3506" x="1286" y="158"/><text fill="#000000" font-family="sans-serif" font-size="14" lengthAdjust="spacing" textLength="216.3506" x="1296" y="182.5332">:Collaboration AgregarInvestigador</text></g><!--entity EliminarInvestigador--><g class="entity" data-qualified-name="EliminarInvestigador" data-source-line="15" id="ent0011"><rect fill="#CDEBA5" height="37.6094" rx="2.5" ry="2.5" style="stroke:#181818;stroke-width:0.5;" width="237.1094" x="1557.5" y="158"/><text fill="#000000" font-family="sans-serif" font-size="14" lengthAdjust="spacing" textLength="217.1094" x="1567.5" y="182.5332">:Collaboration EliminarInvestigador</text></g><!--entity AbrirEntregables--><g class="entity" data-qualified-name="AbrirEntregables" data-source-line="16" id="ent0012"><rect fill="#CDEBA5" height="37.6094" rx="2.5" ry="2.5" style="stroke:#181818;stroke-width:0.5;" width="214.5508" x="1829.5" y="158"/><text fill="#000000" font-family="sans-serif" font-size="14" lengthAdjust="spacing" textLength="194.5508" x="1839.5" y="182.5332">:Collaboration AbrirEntregables</text></g><!--link EstadoEntrada to CrearProyectoView--><g class="link" data-entity-1="ent0001" data-entity-2="ent0003" data-link-type="dependency" data-source-line="18" id="lnk13"><path d="M197.42,61 C265.51,61 350.59,61 412.3,61" fill="none" id="EstadoEntrada-to-CrearProyectoView" style="stroke:#181818;stroke-width:1;"/><polygon fill="#181818" points="417.3,61,408.3,57,412.3,61,408.3,65,417.3,61" style="stroke:#181818;stroke-width:1;stroke-linejoin:miter;stroke-miterlimit:10;"/><text fill="#000000" font-family="sans-serif" font-size="13" lengthAdjust="spacing" textLength="89.5781" x="262.75" y="54.4951">crearProyecto()</text></g><!--link CrearProyectoView to ProyectoController--><g class="link" data-entity-1="ent0003" data-entity-2="ent0004" data-link-type="dependency" data-source-line="20" id="lnk14"><path d="M417.42,76.92 C350.78,91.01 261,110 261,110 C261,110 261,128 261,128 C261,128 290.924,142.2239 319.584,155.8439" fill="none" id="CrearProyectoView-to-ProyectoController" style="stroke:#181818;stroke-width:1;"/><polygon fill="#181818" points="324.1,157.99,317.6881,150.5142,319.584,155.8439,314.2543,157.7398,324.1,157.99" style="stroke:#181818;stroke-width:1;stroke-linejoin:miter;stroke-miterlimit:10;"/><text fill="#000000" font-family="sans-serif" font-size="13" lengthAdjust="spacing" textLength="121.3799" x="262" y="124.4951">crearProyecto(datos)</text></g><!--link CrearProyectoView to ProyectoController--><g class="link" data-entity-1="ent0003" data-entity-2="ent0004" data-link-type="dependency" data-source-line="21" id="lnk15"><path d="M468.03,80.06 C444.58,101.28 409.5879,132.9457 385.9979,154.2857" fill="none" id="CrearProyectoView-to-ProyectoController-1" style="stroke:#181818;stroke-width:1;"/><polygon fill="#181818" points="382.29,157.64,391.6477,154.5687,385.9979,154.2857,386.2809,148.6359,382.29,157.64" style="stroke:#181818;stroke-width:1;stroke-linejoin:miter;stroke-miterlimit:10;"/><text fill="#000000" font-family="sans-serif" font-size="13" lengthAdjust="spacing" textLength="130.0571" x="433" y="124.4951">validarProyecto(datos)</text></g><!--link ProyectoController to ProyectoRepository--><g class="link" data-entity-1="ent0004" data-entity-2="ent0005" data-link-type="dependency" data-source-line="22" id="lnk16"><path d="M328.23,196.01 C302.69,209.63 272,226 272,226 C272,226 272,244 272,244 C272,244 302.266,258.2409 331.206,271.8609" fill="none" id="ProyectoController-to-ProyectoRepository" style="stroke:#181818;stroke-width:1;"/><polygon fill="#181818" points="335.73,273.99,329.2901,266.5383,331.206,271.8609,325.8835,273.7768,335.73,273.99" style="stroke:#181818;stroke-width:1;stroke-linejoin:miter;stroke-miterlimit:10;"/><text fill="#000000" font-family="sans-serif" font-size="13" lengthAdjust="spacing" textLength="132.2344" x="273" y="240.4951">existeDuplicado(datos)</text></g><!--link ProyectoController to ProyectoRepository--><g class="link" data-entity-1="ent0004" data-entity-2="ent0005" data-link-type="dependency" data-source-line="23" id="lnk17"><path d="M380.15,196.15 C393.74,209.74 410,226 410,226 C410,226 410,244 410,244 C410,244 400.7995,256.2596 390.6095,269.8496" fill="none" id="ProyectoController-to-ProyectoRepository-1" style="stroke:#181818;stroke-width:1;"/><polygon fill="#181818" points="387.61,273.85,396.2094,269.049,390.6095,269.8496,389.8089,264.2497,387.61,273.85" style="stroke:#181818;stroke-width:1;stroke-linejoin:miter;stroke-miterlimit:10;"/><text fill="#000000" font-family="sans-serif" font-size="13" lengthAdjust="spacing" textLength="96.1162" x="411" y="240.4951">guardar(entidad)</text></g><!--link ProyectoRepository to Proyecto--><g class="link" data-entity-1="ent0005" data-entity-2="ent0006" data-link-type="association" data-source-line="24" id="lnk18"><path d="M374,312.24 C374,329.59 374,355.52 374,372.84" fill="none" id="ProyectoRepository-Proyecto" style="stroke:#181818;stroke-width:1;"/></g><!--link CrearProyectoView to EstadoSalida--><g class="link" data-entity-1="ent0003" data-entity-2="ent0007" data-link-type="dependency" data-source-line="25" id="lnk19"><path d="M519.76,80.15 C543.54,93.74 572,110 572,110 C572,110 612.9873,135.7584 644.0773,155.3084" fill="none" id="CrearProyectoView-to-EstadoSalida" style="stroke:#181818;stroke-width:1;stroke-dasharray:7,7;"/><polygon fill="#181818" points="648.31,157.97,642.8204,149.7929,644.0773,155.3084,638.5618,156.5653,648.31,157.97" style="stroke:#181818;stroke-width:1;stroke-linejoin:miter;stroke-miterlimit:10;"/><text fill="#000000" font-family="sans-serif" font-size="13" lengthAdjust="spacing" textLength="130.7935" x="601" y="124.4951">continuarNavegacion()</text></g><!--link CrearProyectoView to EditarProyecto--><g class="link" data-entity-1="ent0003" data-entity-2="ent0008" data-link-type="dependency" data-source-line="26" id="lnk20"><path d="M558.53,75.43 C633.08,89.63 740,110 740,110 C740,110 803.8624,136.5021 850.9324,156.0521" fill="none" id="CrearProyectoView-to-EditarProyecto" style="stroke:#181818;stroke-width:1;stroke-dasharray:7,7;"/><polygon fill="#181818" points="855.55,157.97,848.7727,150.8238,850.9324,156.0521,845.7041,158.2119,855.55,157.97" style="stroke:#181818;stroke-width:1;stroke-linejoin:miter;stroke-miterlimit:10;"/><text fill="#000000" font-family="sans-serif" font-size="13" lengthAdjust="spacing" textLength="92.479" x="783" y="124.4951">editarProyecto()</text></g><!--link CrearProyectoView to EliminarProyecto--><g class="link" data-entity-1="ent0003" data-entity-2="ent0009" data-link-type="dependency" data-source-line="27" id="lnk21"><path d="M558.8,70.58 C672.7,84.39 884,110 884,110 C884,110 990.695,137.1849 1067.385,156.7349" fill="none" id="CrearProyectoView-to-EliminarProyecto" style="stroke:#181818;stroke-width:1;stroke-dasharray:7,7;"/><polygon fill="#181818" points="1072.23,157.97,1064.497,151.8708,1067.385,156.7349,1062.5208,159.6228,1072.23,157.97" style="stroke:#181818;stroke-width:1;stroke-linejoin:miter;stroke-miterlimit:10;"/><text fill="#000000" font-family="sans-serif" font-size="13" lengthAdjust="spacing" textLength="105.4727" x="954" y="124.4951">eliminarProyecto()</text></g><!--link CrearProyectoView to AgregarInvestigador--><g class="link" data-entity-1="ent0003" data-entity-2="ent0010" data-link-type="dependency" data-source-line="28" id="lnk22"><path d="M558.54,67.84 C713.11,80.63 1068,110 1068,110 C1068,110 1207.7938,137.4559 1307.2838,157.0059" fill="none" id="CrearProyectoView-to-AgregarInvestigador" style="stroke:#181818;stroke-width:1;stroke-dasharray:7,7;"/><polygon fill="#181818" points="1312.19,157.97,1304.1301,152.3097,1307.2838,157.0059,1302.5876,160.1596,1312.19,157.97" style="stroke:#181818;stroke-width:1;stroke-linejoin:miter;stroke-miterlimit:10;"/><text fill="#000000" font-family="sans-serif" font-size="13" lengthAdjust="spacing" textLength="124.2871" x="1159" y="124.4951">agregarInvestigador()</text></g><!--link CrearProyectoView to EliminarInvestigador--><g class="link" data-entity-1="ent0003" data-entity-2="ent0011" data-link-type="dependency" data-source-line="29" id="lnk23"><path d="M558.64,66.22 C754.84,77.93 1292,110 1292,110 C1292,110 1452.4523,137.5726 1566.1423,157.1226" fill="none" id="CrearProyectoView-to-EliminarInvestigador" style="stroke:#181818;stroke-width:1;stroke-dasharray:7,7;"/><polygon fill="#181818" points="1571.07,157.97,1562.8781,152.5026,1566.1423,157.1226,1561.5223,160.3869,1571.07,157.97" style="stroke:#181818;stroke-width:1;stroke-linejoin:miter;stroke-miterlimit:10;"/><text fill="#000000" font-family="sans-serif" font-size="13" lengthAdjust="spacing" textLength="124.9917" x="1395" y="124.4951">eliminarInvestigador()</text></g><!--link CrearProyectoView to AbrirEntregables--><g class="link" data-entity-1="ent0003" data-entity-2="ent0012" data-link-type="dependency" data-source-line="30" id="lnk24"><path d="M558.67,65.26 C792.74,76.07 1528,110 1528,110 C1528,110 1703.1639,138.2632 1824.3339,157.8232" fill="none" id="CrearProyectoView-to-AbrirEntregables" style="stroke:#181818;stroke-width:1;stroke-dasharray:7,7;"/><polygon fill="#181818" points="1829.27,158.62,1821.0225,153.2369,1824.3339,157.8232,1819.7476,161.1346,1829.27,158.62" style="stroke:#181818;stroke-width:1;stroke-linejoin:miter;stroke-miterlimit:10;"/><text fill="#000000" font-family="sans-serif" font-size="13" lengthAdjust="spacing" textLength="104.0444" x="1638" y="124.4951">abrirEntregables()</text></g><?plantuml-src dLEnRi8m5Dpz5K_f0WCCgA2I0Gb2a5WAWgfIf-ebiI8BOqUEeKLL_xqFK1lY98KsKtovEz-pB_b6g0mDRa4AnUqXuv1fUJWk63CyjgXIoU4kc8QJSHyyVxbQl8J1qsBzEfxCmnMzU80vXBd5H8VA6aoGPHXlCEKG6uvcQVI1ZFIHvfMGLjk33mRqNEmqw0t3sH22I-Apu6ykB-f7oU01lYc1fhsrbDoun5bl7Do7FyGLptGkh3Q7AqJs-Vi9V1_0nVnhb8B6hrC5b0qZRT0AhI1CX2t6EpkKe5iyfDWAvReuu0q-uzJm5CrSxNbkHKfZc9DL3Vw7L1MxkW-tf8kCCCTUKPP8ylmSpG4PA_KFEgOpgZR81wTzZ5Kuq4b8MYsLgqtGwhnTfs-Gxq_Lg1XKgIM7egm-y7UHMpxTPLB4DEi_7D8T6ihGuifIbgJG5YJI5Zz0TRfkTrIgEXqBRIiK6J_YdcuZfZjhjPkKfOhJHALriypfD0aTf55Qqs4Vi0fUtRlim6lGvWnEMIc0Wv3q2m00?></g></svg>