<svg xmlns="http://www.w3.org/2000/svg" xmlns:xlink="http://www.w3.org/1999/xlink" contentStyleType="text/css" data-diagram-type="DESCRIPTION" height="442px" preserveAspectRatio="none" style="width:3854px;height:442px;background:#FFFFFF;" version="1.1" viewBox="0 0 3854 442" width="3854px" zoomAndPan="magnify"><?plantuml 1.2026.5?><defs/><g><!--cluster crearProyecto--><g class="cluster" data-qualified-name="crearProyecto" data-source-line="4" id="ent0002"><path d="M215.5,6 L319.9893,6 A3.75,3.75 0 0 1 322.4893,8.5 L329.4893,29.6094 L905.5,29.6094 A2.5,2.5 0 0 1 908,32.1094 L908,424.5 A2.5,2.5 0 0 1 905.5,427 L215.5,427 A2.5,2.5 0 0 1 213,424.5 L213,8.5 A2.5,2.5 0 0 1 215.5,6" fill="none" style="stroke:#000000;stroke-width:1.5;"/><line style="stroke:#000000;stroke-width:1.5;" x1="213" x2="329.4893" y1="29.6094" y2="29.6094"/><text fill="#000000" font-family="sans-serif" font-size="14" font-weight="700" lengthAdjust="spacing" textLength="103.4893" x="217" y="22.5332">crearProyecto()</text></g><!--entity CrearProyectoView--><g class="entity" data-qualified-name="crearProyecto.CrearProyectoView" data-source-line="5" id="ent0003"><rect fill="#629EF9" height="37.6094" rx="2.5" ry="2.5" style="stroke:#181818;stroke-width:0.5;" width="140.5996" x="750.5" y="42"/><text fill="#000000" font-family="sans-serif" font-size="14" lengthAdjust="spacing" textLength="120.5996" x="760.5" y="66.5332">CrearProyectoView</text></g><!--entity ProyectoController--><g class="entity" data-qualified-name="crearProyecto.ProyectoController" data-source-line="6" id="ent0004"><rect fill="#B5BD68" height="37.6094" rx="2.5" ry="2.5" style="stroke:#181818;stroke-width:0.5;" width="135.9375" x="229" y="158"/><text fill="#000000" font-family="sans-serif" font-size="14" lengthAdjust="spacing" textLength="115.9375" x="239" y="182.5332">ProyectoController</text></g><!--entity ProyectoRepository--><g class="entity" data-qualified-name="crearProyecto.ProyectoRepository" data-source-line="7" id="ent0005"><rect fill="#F2AC4E" height="37.6094" rx="2.5" ry="2.5" style="stroke:#181818;stroke-width:0.5;" width="142.165" x="229" y="274"/><text fill="#000000" font-family="sans-serif" font-size="14" lengthAdjust="spacing" textLength="122.165" x="239" y="298.5332">ProyectoRepository</text></g><!--entity ConvocatoriaRepository--><g class="entity" data-qualified-name="crearProyecto.ConvocatoriaRepository" data-source-line="8" id="ent0006"><rect fill="#F2AC4E" height="37.6094" rx="2.5" ry="2.5" style="stroke:#181818;stroke-width:0.5;" width="169.4063" x="406.5" y="274"/><text fill="#000000" font-family="sans-serif" font-size="14" lengthAdjust="spacing" textLength="149.4063" x="416.5" y="298.5332">ConvocatoriaRepository</text></g><!--entity Proyecto--><g class="entity" data-qualified-name="crearProyecto.Proyecto" data-source-line="9" id="ent0007"><rect fill="#F2AC4E" height="37.6094" rx="2.5" ry="2.5" style="stroke:#181818;stroke-width:0.5;" width="75.248" x="262.5" y="373"/><text fill="#000000" font-family="sans-serif" font-size="14" lengthAdjust="spacing" textLength="55.248" x="272.5" y="397.5332">Proyecto</text></g><!--entity Convocatoria--><g class="entity" data-qualified-name="crearProyecto.Convocatoria" data-source-line="10" id="ent0008"><rect fill="#F2AC4E" height="37.6094" rx="2.5" ry="2.5" style="stroke:#181818;stroke-width:0.5;" width="102.4893" x="440" y="373"/><text fill="#000000" font-family="sans-serif" font-size="14" lengthAdjust="spacing" textLength="82.4893" x="450" y="397.5332">Convocatoria</text></g><!--entity EstadoEntrada--><g class="entity" data-qualified-name="EstadoEntrada" data-source-line="3" id="ent0001"><rect fill="#CDEBA5" height="37.6094" rx="2.5" ry="2.5" style="stroke:#181818;stroke-width:0.5;" width="190.3721" x="7" y="42"/><text fill="#000000" font-family="sans-serif" font-size="14" lengthAdjust="spacing" textLength="170.3721" x="17" y="66.5332">:PROYECTOS_ABIERTOS</text></g><!--entity EstadoSalida--><g class="entity" data-qualified-name="EstadoSalida" data-source-line="13" id="ent0009"><rect fill="#CDEBA5" height="37.6094" rx="2.5" ry="2.5" style="stroke:#181818;stroke-width:0.5;" width="171.6963" x="927" y="158"/><text fill="#000000" font-family="sans-serif" font-size="14" lengthAdjust="spacing" textLength="151.6963" x="937" y="182.5332">:PROYECTO_ABIERTO</text></g><!--entity EstadoSalidaCancelada--><g class="entity" data-qualified-name="EstadoSalidaCancelada" data-source-line="14" id="ent0010"><rect fill="#CDEBA5" height="37.6094" rx="2.5" ry="2.5" style="stroke:#181818;stroke-width:0.5;" width="190.3721" x="1134" y="158"/><text fill="#000000" font-family="sans-serif" font-size="14" lengthAdjust="spacing" textLength="170.3721" x="1144" y="182.5332">:PROYECTOS_ABIERTOS</text></g><!--entity AbrirProyecto--><g class="entity" data-qualified-name="AbrirProyecto" data-source-line="15" id="ent0011"><rect fill="#CDEBA5" height="37.6094" rx="2.5" ry="2.5" style="stroke:#181818;stroke-width:0.5;" width="195.082" x="1359.5" y="158"/><text fill="#000000" font-family="sans-serif" font-size="14" lengthAdjust="spacing" textLength="175.082" x="1369.5" y="182.5332">:Collaboration AbrirProyecto</text></g><!--entity EditarProyecto--><g class="entity" data-qualified-name="EditarProyecto" data-source-line="16" id="ent0012"><rect fill="#CDEBA5" height="37.6094" rx="2.5" ry="2.5" style="stroke:#181818;stroke-width:0.5;" width="202.0957" x="1590" y="158"/><text fill="#000000" font-family="sans-serif" font-size="14" lengthAdjust="spacing" textLength="182.0957" x="1600" y="182.5332">:Collaboration EditarProyecto</text></g><!--entity EliminarProyecto--><g class="entity" data-qualified-name="EliminarProyecto" data-source-line="17" id="ent0013"><rect fill="#CDEBA5" height="37.6094" rx="2.5" ry="2.5" style="stroke:#181818;stroke-width:0.5;" width="216.0889" x="1827" y="158"/><text fill="#000000" font-family="sans-serif" font-size="14" lengthAdjust="spacing" textLength="196.0889" x="1837" y="182.5332">:Collaboration EliminarProyecto</text></g><!--entity AgregarInvestigador--><g class="entity" data-qualified-name="AgregarInvestigador" data-source-line="18" id="ent0014"><rect fill="#CDEBA5" height="37.6094" rx="2.5" ry="2.5" style="stroke:#181818;stroke-width:0.5;" width="236.3506" x="2078" y="158"/><text fill="#000000" font-family="sans-serif" font-size="14" lengthAdjust="spacing" textLength="216.3506" x="2088" y="182.5332">:Collaboration AgregarInvestigador</text></g><!--entity EliminarInvestigador--><g class="entity" data-qualified-name="EliminarInvestigador" data-source-line="19" id="ent0015"><rect fill="#CDEBA5" height="37.6094" rx="2.5" ry="2.5" style="stroke:#181818;stroke-width:0.5;" width="237.1094" x="2349.5" y="158"/><text fill="#000000" font-family="sans-serif" font-size="14" lengthAdjust="spacing" textLength="217.1094" x="2359.5" y="182.5332">:Collaboration EliminarInvestigador</text></g><!--entity AbrirEntregables--><g class="entity" data-qualified-name="AbrirEntregables" data-source-line="20" id="ent0016"><rect fill="#CDEBA5" height="37.6094" rx="2.5" ry="2.5" style="stroke:#181818;stroke-width:0.5;" width="214.5508" x="2621.5" y="158"/><text fill="#000000" font-family="sans-serif" font-size="14" lengthAdjust="spacing" textLength="194.5508" x="2631.5" y="182.5332">:Collaboration AbrirEntregables</text></g><!--entity AbrirInvestigadores--><g class="entity" data-qualified-name="AbrirInvestigadores" data-source-line="21" id="ent0017"><rect fill="#CDEBA5" height="37.6094" rx="2.5" ry="2.5" style="stroke:#181818;stroke-width:0.5;" width="230.8887" x="2871.5" y="158"/><text fill="#000000" font-family="sans-serif" font-size="14" lengthAdjust="spacing" textLength="210.8887" x="2881.5" y="182.5332">:Collaboration AbrirInvestigadores</text></g><!--entity AbrirProyectos--><g class="entity" data-qualified-name="AbrirProyectos" data-source-line="22" id="ent0018"><rect fill="#CDEBA5" height="37.6094" rx="2.5" ry="2.5" style="stroke:#181818;stroke-width:0.5;" width="202.082" x="3138" y="158"/><text fill="#000000" font-family="sans-serif" font-size="14" lengthAdjust="spacing" textLength="182.082" x="3148" y="182.5332">:Collaboration AbrirProyectos</text></g><!--entity CrearProyecto--><g class="entity" data-qualified-name="CrearProyecto" data-source-line="23" id="ent0019"><rect fill="#CDEBA5" height="37.6094" rx="2.5" ry="2.5" style="stroke:#181818;stroke-width:0.5;" width="200.5303" x="3375.5" y="158"/><text fill="#000000" font-family="sans-serif" font-size="14" lengthAdjust="spacing" textLength="180.5303" x="3385.5" y="182.5332">:Collaboration CrearProyecto</text></g><!--entity AbrirPanelPrincipal--><g class="entity" data-qualified-name="AbrirPanelPrincipal" data-source-line="24" id="ent0020"><rect fill="#CDEBA5" height="37.6094" rx="2.5" ry="2.5" style="stroke:#181818;stroke-width:0.5;" width="229.3301" x="3611.5" y="158"/><text fill="#000000" font-family="sans-serif" font-size="14" lengthAdjust="spacing" textLength="209.3301" x="3621.5" y="182.5332">:Collaboration AbrirPanelPrincipal</text></g><!--link EstadoEntrada to CrearProyectoView--><g class="link" data-entity-1="ent0001" data-entity-2="ent0003" data-link-type="dependency" data-source-line="26" id="lnk21"><path d="M197.11,61 C343.47,61 615.6,61 745.49,61" fill="none" id="EstadoEntrada-to-CrearProyectoView" style="stroke:#181818;stroke-width:1;"/><polygon fill="#181818" points="750.49,61,741.49,57,745.49,61,741.49,65,750.49,61" style="stroke:#181818;stroke-width:1;stroke-linejoin:miter;stroke-miterlimit:10;"/><text fill="#000000" font-family="sans-serif" font-size="13" lengthAdjust="spacing" textLength="89.5781" x="429.25" y="54.4951">crearProyecto()</text></g><!--link CrearProyectoView to ProyectoController--><g class="link" data-entity-1="ent0003" data-entity-2="ent0004" data-link-type="dependency" data-source-line="28" id="lnk22"><path d="M750.32,69.93 C628.76,83.56 393,110 393,110 C393,110 355.7799,135.5869 327.3499,155.1369" fill="none" id="CrearProyectoView-to-ProyectoController" style="stroke:#181818;stroke-width:1;"/><polygon fill="#181818" points="323.23,157.97,332.9123,156.1664,327.3499,155.1369,328.3794,149.5745,323.23,157.97" style="stroke:#181818;stroke-width:1;stroke-linejoin:miter;stroke-miterlimit:10;"/><text fill="#000000" font-family="sans-serif" font-size="13" lengthAdjust="spacing" textLength="109.8208" x="394" y="124.4951">prepararCreacion()</text></g><!--link CrearProyectoView to ProyectoController--><g class="link" data-entity-1="ent0003" data-entity-2="ent0004" data-link-type="dependency" data-source-line="30" id="lnk24"><path d="M750.33,77.37 C649.34,99.34 469.8558,138.3973 370.1858,160.0773" fill="none" id="CrearProyectoView-to-ProyectoController-1" style="stroke:#181818;stroke-width:1;"/><polygon fill="#181818" points="365.3,161.14,374.9445,163.1357,370.1858,160.0773,373.2442,155.3185,365.3,161.14" style="stroke:#181818;stroke-width:1;stroke-linejoin:miter;stroke-miterlimit:10;"/><text fill="#000000" font-family="sans-serif" font-size="13" lengthAdjust="spacing" textLength="245.6543" x="591" y="124.4951">crearProyecto(datosMinimos, coordinador)</text></g><!--link ProyectoController to ConvocatoriaRepository--><g class="link" data-entity-1="ent0004" data-entity-2="ent0006" data-link-type="dependency" data-source-line="29" id="lnk23"><path d="M339.77,196.01 C372.12,209.63 411,226 411,226 C411,226 441.5936,251.2375 465.2836,270.7875" fill="none" id="ProyectoController-to-ConvocatoriaRepository" style="stroke:#181818;stroke-width:1;"/><polygon fill="#181818" points="469.14,273.97,464.7444,265.1564,465.2836,270.7875,459.6525,271.3267,469.14,273.97" style="stroke:#181818;stroke-width:1;stroke-linejoin:miter;stroke-miterlimit:10;"/><text fill="#000000" font-family="sans-serif" font-size="13" lengthAdjust="spacing" textLength="119.9517" x="433" y="240.4951">obtenerDisponibles()</text></g><!--link ProyectoController to ProyectoController--><g class="link" data-entity-1="ent0004" data-entity-2="ent0004" data-link-type="dependency" data-source-line="31" id="lnk25"><path d="M365.35,171.58 C384.91,171.8 400,173.6 400,177 C400,180.4 389.9097,182.1438 370.3497,182.3638" fill="none" id="ProyectoController-to-ProyectoController" style="stroke:#181818;stroke-width:1;"/><polygon fill="#181818" points="365.35,182.42,374.3944,186.3185,370.3497,182.3638,374.3044,178.319,365.35,182.42" style="stroke:#181818;stroke-width:1;stroke-linejoin:miter;stroke-miterlimit:10;"/><text fill="#000000" font-family="sans-serif" font-size="13" lengthAdjust="spacing" textLength="212.4116" x="406" y="182.4951">validarDatosYFechas(datosMinimos)</text></g><!--link ProyectoController to ProyectoController--><g class="link" data-entity-1="ent0004" data-entity-2="ent0004" data-link-type="dependency" data-source-line="32" id="lnk26"><path d="M365.2,168.97 C463.46,163.36 624,166.04 624,177 C624,187.96 468.4519,190.925 370.1919,185.315" fill="none" id="ProyectoController-to-ProyectoController-1" style="stroke:#181818;stroke-width:1;"/><polygon fill="#181818" points="365.2,185.03,373.9574,189.5365,370.1919,185.315,374.4134,181.5495,365.2,185.03" style="stroke:#181818;stroke-width:1;stroke-linejoin:miter;stroke-miterlimit:10;"/><text fill="#000000" font-family="sans-serif" font-size="13" lengthAdjust="spacing" textLength="255.8169" x="630" y="182.4951">asignarCodigoCoordinadorYEstadoCreado()</text></g><!--link ProyectoController to ProyectoRepository--><g class="link" data-entity-1="ent0004" data-entity-2="ent0005" data-link-type="dependency" data-source-line="33" id="lnk27"><path d="M297.48,196.06 C298.03,217.28 298.8288,247.3017 299.3888,268.6417" fill="none" id="ProyectoController-to-ProyectoRepository" style="stroke:#181818;stroke-width:1;"/><polygon fill="#181818" points="299.52,273.64,303.2825,264.5382,299.3888,268.6417,295.2853,264.748,299.52,273.64" style="stroke:#181818;stroke-width:1;stroke-linejoin:miter;stroke-miterlimit:10;"/><text fill="#000000" font-family="sans-serif" font-size="13" lengthAdjust="spacing" textLength="103.3271" x="299" y="240.4951">guardar(proyecto)</text></g><!--link ProyectoRepository to Proyecto--><g class="link" data-entity-1="ent0005" data-entity-2="ent0007" data-link-type="association" data-source-line="34" id="lnk28"><path d="M300,312.24 C300,329.59 300,355.52 300,372.84" fill="none" id="ProyectoRepository-Proyecto" style="stroke:#181818;stroke-width:1;"/></g><!--link ConvocatoriaRepository to Convocatoria--><g class="link" data-entity-1="ent0006" data-entity-2="ent0008" data-link-type="association" data-source-line="35" id="lnk29"><path d="M491,312.24 C491,329.59 491,355.52 491,372.84" fill="none" id="ConvocatoriaRepository-Convocatoria" style="stroke:#181818;stroke-width:1;"/></g><!--link CrearProyectoView to EstadoSalida--><g class="link" data-entity-1="ent0003" data-entity-2="ent0009" data-link-type="dependency" data-source-line="36" id="lnk30"><path d="M851.42,80.06 C887.27,101.35 942.1809,133.9471 978.1009,155.2771" fill="none" id="CrearProyectoView-to-EstadoSalida" style="stroke:#181818;stroke-width:1;stroke-dasharray:7,7;"/><polygon fill="#181818" points="982.4,157.83,976.7039,149.7954,978.1009,155.2771,972.6192,156.6741,982.4,157.83" style="stroke:#181818;stroke-width:1;stroke-linejoin:miter;stroke-miterlimit:10;"/><text fill="#000000" font-family="sans-serif" font-size="13" lengthAdjust="spacing" textLength="101.1563" x="929" y="124.4951">proyectoCreado()</text></g><!--link CrearProyectoView to EstadoSalidaCancelada--><g class="link" data-entity-1="ent0003" data-entity-2="ent0010" data-link-type="dependency" data-source-line="37" id="lnk31"><path d="M891.78,77.58 C955.43,91.6 1039,110 1039,110 C1039,110 1116.1071,136.7785 1172.3571,156.3285" fill="none" id="CrearProyectoView-to-EstadoSalidaCancelada" style="stroke:#181818;stroke-width:1;stroke-dasharray:7,7;"/><polygon fill="#181818" points="1177.08,157.97,1169.892,151.2371,1172.3571,156.3285,1167.2656,158.7937,1177.08,157.97" style="stroke:#181818;stroke-width:1;stroke-linejoin:miter;stroke-miterlimit:10;"/><text fill="#000000" font-family="sans-serif" font-size="13" lengthAdjust="spacing" textLength="109.8208" x="1090" y="124.4951">cancelarCreacion()</text></g><!--link CrearProyectoView to AbrirProyecto--><g class="link" data-entity-1="ent0003" data-entity-2="ent0011" data-link-type="dependency" data-source-line="38" id="lnk32"><path d="M891.53,70.75 C1003.16,84.59 1208,110 1208,110 C1208,110 1310.4071,137.1383 1384.1271,156.6883" fill="none" id="CrearProyectoView-to-AbrirProyecto" style="stroke:#181818;stroke-width:1;stroke-dasharray:7,7;"/><polygon fill="#181818" points="1388.96,157.97,1381.286,151.7967,1384.1271,156.6883,1379.2354,159.5294,1388.96,157.97" style="stroke:#181818;stroke-width:1;stroke-linejoin:miter;stroke-miterlimit:10;"/><text fill="#000000" font-family="sans-serif" font-size="13" lengthAdjust="spacing" textLength="146.6689" x="1275" y="124.4951">abrirProyecto(proyectoId)</text></g><!--link CrearProyectoView to EditarProyecto--><g class="link" data-entity-1="ent0003" data-entity-2="ent0012" data-link-type="dependency" data-source-line="39" id="lnk33"><path d="M891.75,67.58 C1052.23,80.23 1430,110 1430,110 C1430,110 1537.5527,137.1937 1614.8327,156.7437" fill="none" id="CrearProyectoView-to-EditarProyecto" style="stroke:#181818;stroke-width:1;stroke-dasharray:7,7;"/><polygon fill="#181818" points="1619.68,157.97,1611.9359,151.8849,1614.8327,156.7437,1609.9739,159.6406,1619.68,157.97" style="stroke:#181818;stroke-width:1;stroke-linejoin:miter;stroke-miterlimit:10;"/><text fill="#000000" font-family="sans-serif" font-size="13" lengthAdjust="spacing" textLength="92.479" x="1500" y="124.4951">editarProyecto()</text></g><!--link CrearProyectoView to EliminarProyecto--><g class="link" data-entity-1="ent0003" data-entity-2="ent0013" data-link-type="dependency" data-source-line="40" id="lnk34"><path d="M891.6,66.34 C1083.6,78.16 1601,110 1601,110 C1601,110 1739.9349,137.4503 1838.8249,157.0003" fill="none" id="CrearProyectoView-to-EliminarProyecto" style="stroke:#181818;stroke-width:1;stroke-dasharray:7,7;"/><polygon fill="#181818" points="1843.73,157.97,1835.6766,152.3005,1838.8249,157.0003,1834.1251,160.1486,1843.73,157.97" style="stroke:#181818;stroke-width:1;stroke-linejoin:miter;stroke-miterlimit:10;"/><text fill="#000000" font-family="sans-serif" font-size="13" lengthAdjust="spacing" textLength="105.4727" x="1691" y="124.4951">eliminarProyecto()</text></g><!--link CrearProyectoView to AgregarInvestigador--><g class="link" data-entity-1="ent0003" data-entity-2="ent0014" data-link-type="dependency" data-source-line="41" id="lnk35"><path d="M891.77,65.45 C1117.39,76.46 1805,110 1805,110 C1805,110 1968.4598,137.5874 2084.2298,157.1374" fill="none" id="CrearProyectoView-to-AgregarInvestigador" style="stroke:#181818;stroke-width:1;stroke-dasharray:7,7;"/><polygon fill="#181818" points="2089.16,157.97,2080.9517,152.5272,2084.2298,157.1374,2079.6196,160.4156,2089.16,157.97" style="stroke:#181818;stroke-width:1;stroke-linejoin:miter;stroke-miterlimit:10;"/><text fill="#000000" font-family="sans-serif" font-size="13" lengthAdjust="spacing" textLength="124.2871" x="1910" y="124.4951">agregarInvestigador()</text></g><!--link CrearProyectoView to EliminarInvestigador--><g class="link" data-entity-1="ent0003" data-entity-2="ent0015" data-link-type="dependency" data-source-line="42" id="lnk36"><path d="M891.53,64.77 C1151.77,74.99 2043,110 2043,110 C2043,110 2221.0893,137.6524 2346.9293,157.2024" fill="none" id="CrearProyectoView-to-EliminarInvestigador" style="stroke:#181818;stroke-width:1;stroke-dasharray:7,7;"/><polygon fill="#181818" points="2351.87,157.97,2343.5907,152.6358,2346.9293,157.2024,2342.3626,160.541,2351.87,157.97" style="stroke:#181818;stroke-width:1;stroke-linejoin:miter;stroke-miterlimit:10;"/><text fill="#000000" font-family="sans-serif" font-size="13" lengthAdjust="spacing" textLength="124.9917" x="2157" y="124.4951">eliminarInvestigador()</text></g><!--link CrearProyectoView to AbrirEntregables--><g class="link" data-entity-1="ent0003" data-entity-2="ent0016" data-link-type="dependency" data-source-line="43" id="lnk37"><path d="M891.85,64.32 C1185.29,73.9 2290,110 2290,110 C2290,110 2486.4056,139.5267 2616.3856,159.0667" fill="none" id="CrearProyectoView-to-AbrirEntregables" style="stroke:#181818;stroke-width:1;stroke-dasharray:7,7;"/><polygon fill="#181818" points="2621.33,159.81,2613.0246,154.5165,2616.3856,159.0667,2611.8354,162.4276,2621.33,159.81" style="stroke:#181818;stroke-width:1;stroke-linejoin:miter;stroke-miterlimit:10;"/><text fill="#000000" font-family="sans-serif" font-size="13" lengthAdjust="spacing" textLength="104.0444" x="2408" y="124.4951">abrirEntregables()</text></g><!--link CrearProyectoView to AbrirInvestigadores--><g class="link" data-entity-1="ent0003" data-entity-2="ent0017" data-link-type="dependency" data-source-line="44" id="lnk38"><path d="M891.61,63.99 C1212.89,73.07 2521,110 2521,110 C2521,110 2728.2494,139.3487 2866.2594,158.8987" fill="none" id="CrearProyectoView-to-AbrirInvestigadores" style="stroke:#181818;stroke-width:1;stroke-dasharray:7,7;"/><polygon fill="#181818" points="2871.21,159.6,2862.86,154.3772,2866.2594,158.8987,2861.7379,162.2982,2871.21,159.6" style="stroke:#181818;stroke-width:1;stroke-linejoin:miter;stroke-miterlimit:10;"/><text fill="#000000" font-family="sans-serif" font-size="13" lengthAdjust="spacing" textLength="119.2153" x="2646" y="124.4951">abrirInvestigadores()</text></g><!--link CrearProyectoView to AbrirProyectos--><g class="link" data-entity-1="ent0003" data-entity-2="ent0018" data-link-type="dependency" data-source-line="45" id="lnk39"><path d="M891.66,63.74 C1241.79,72.34 2774,110 2774,110 C2774,110 3120,158 3120,158 C3120,158 3122.146,158.3236 3132.876,159.9436" fill="none" id="CrearProyectoView-to-AbrirProyectos" style="stroke:#181818;stroke-width:1;stroke-dasharray:7,7;"/><polygon fill="#181818" points="3137.82,160.69,3129.518,155.3912,3132.876,159.9436,3128.3237,163.3016,3137.82,160.69" style="stroke:#181818;stroke-width:1;stroke-linejoin:miter;stroke-miterlimit:10;"/><text fill="#000000" font-family="sans-serif" font-size="13" lengthAdjust="spacing" textLength="92.4663" x="2896" y="124.4951">abrirProyectos()</text></g><!--link CrearProyectoView to CrearProyecto--><g class="link" data-entity-1="ent0003" data-entity-2="ent0019" data-link-type="dependency" data-source-line="46" id="lnk40"><path d="M891.55,63.56 C1265.29,71.8 2997,110 2997,110 C2997,110 3358,158 3358,158 C3358,158 3359.9772,158.3061 3370.4672,159.9061" fill="none" id="CrearProyectoView-to-CrearProyecto" style="stroke:#181818;stroke-width:1;stroke-dasharray:7,7;"/><polygon fill="#181818" points="3375.41,160.66,3367.116,155.3487,3370.4672,159.9061,3365.9098,163.2572,3375.41,160.66" style="stroke:#181818;stroke-width:1;stroke-linejoin:miter;stroke-miterlimit:10;"/><text fill="#000000" font-family="sans-serif" font-size="13" lengthAdjust="spacing" textLength="89.5781" x="3125" y="124.4951">crearProyecto()</text></g><!--link CrearProyectoView to AbrirPanelPrincipal--><g class="link" data-entity-1="ent0003" data-entity-2="ent0020" data-link-type="dependency" data-source-line="47" id="lnk41"><path d="M891.59,63.41 C1288.34,71.34 3223,110 3223,110 C3223,110 3594,158 3594,158 C3594,158 3595.8259,158.244 3606.3059,159.674" fill="none" id="CrearProyectoView-to-AbrirPanelPrincipal" style="stroke:#181818;stroke-width:1;stroke-dasharray:7,7;"/><polygon fill="#181818" points="3611.26,160.35,3602.8834,155.1699,3606.3059,159.674,3601.8018,163.0965,3611.26,160.35" style="stroke:#181818;stroke-width:1;stroke-linejoin:miter;stroke-miterlimit:10;"/><text fill="#000000" font-family="sans-serif" font-size="13" lengthAdjust="spacing" textLength="117.7681" x="3354" y="124.4951">abrirPanelPrincipal()</text></g><?plantuml-src bLHDYzim4BtxLuZqaaApXwMxT7rOo3eEv50sP4iXfsLi2rUi8Xd9JGcb_xsZV3WQoqwSdEBdcJTFR-HdFuIgmC26IQ5ulQiugxJSkOSeCZolGPMIiq_9B7sPFh1Hl5ozhjFan-lR-_HbaQxmpuY1PQcjeT2fgWqK45MGVq39MMuucANHEoJIhcn4aF7d4ViRCVnvanxldzBv4qlymf-2_sdNPGzPyVYDdKeIZRErbDoq2-Vtq-HhsXIkUAMjgBNPzHGYqrRdW1K2hXQVM0TmHVykEteorFFp3QH0Es_Umw4l0PLp2Jq42Pe5cJPG2wtOD3EYiNlFH90136aXQg0K51h28SL6g3PB2nnocjBm4in2RRcjHOcEcCEPGlm6LG5TrukXNhjF1RLaajkptHuubCUVxLDH_DOROCChC8I3VBHx2e8CLW6AowKHAXSLI4yAmQE8X0wRcCbp61inQqLE50KrR59WQvWaCQiCT-beN4kE-h0zB6CJDxWpDMAcivehRcR2Lbe9jrdaw53G8u2ABv3VVXTARBJzmdAjJO7t3pVSAwkBSxjF1pDpPEivpt-19SmtaO4L9Nu2YIv4YIyQHUl3Sjn92ps-IkbRLlu6W_h6rV7TkVbSXStdxEtstfMG_0rTlxjx9edf5dwKUT9zlQc9MTpMuQz_NRhxoPU59lgFpRaNHUzu4gmnu-IvNtKhIR6nXVGB3fCJPOVWrTcKWNUWbqtp8lBecuTSRgMHUEocuB25sTR6-ji86aRHfLaawqu32OW4_m40?></g></svg>