<svg xmlns="http://www.w3.org/2000/svg" xmlns:xlink="http://www.w3.org/1999/xlink" contentStyleType="text/css" data-diagram-type="DESCRIPTION" height="558px" preserveAspectRatio="none" style="width:3982px;height:558px;background:#FFFFFF;" version="1.1" viewBox="0 0 3982 558" width="3982px" zoomAndPan="magnify"><?plantuml 1.2026.6?><defs/><g><!--cluster crearProyecto--><g class="cluster" data-qualified-name="crearProyecto" data-source-line="4" id="ent0002"><path d="M215.5,6 L319.9893,6 A3.75,3.75 0 0 1 322.4893,8.5 L329.4893,29.6094 L1036.5,29.6094 A2.5,2.5 0 0 1 1039,32.1094 L1039,540.5 A2.5,2.5 0 0 1 1036.5,543 L215.5,543 A2.5,2.5 0 0 1 213,540.5 L213,8.5 A2.5,2.5 0 0 1 215.5,6" fill="none" style="stroke:#000000;stroke-width:1.5;"/><line style="stroke:#000000;stroke-width:1.5;" x1="213" x2="329.4893" y1="29.6094" y2="29.6094"/><text fill="#000000" font-family="sans-serif" font-size="14" font-weight="700" lengthAdjust="spacing" textLength="103.4893" x="217" y="22.5332">crearProyecto()</text></g><!--entity CrearProyectoView--><g class="entity" data-qualified-name="crearProyecto.CrearProyectoView" data-source-line="5" id="ent0003"><rect fill="#629EF9" height="37.6094" rx="2.5" ry="2.5" style="stroke:#181818;stroke-width:0.5;" width="140.5996" x="881.5" y="42"/><text fill="#000000" font-family="sans-serif" font-size="14" lengthAdjust="spacing" textLength="120.5996" x="891.5" y="66.5332">CrearProyectoView</text></g><!--entity ProyectoController--><g class="entity" data-qualified-name="crearProyecto.ProyectoController" data-source-line="6" id="ent0004"><rect fill="#B5BD68" height="37.6094" rx="2.5" ry="2.5" style="stroke:#181818;stroke-width:0.5;" width="135.9375" x="632" y="158"/><text fill="#000000" font-family="sans-serif" font-size="14" lengthAdjust="spacing" textLength="115.9375" x="642" y="182.5332">ProyectoController</text></g><!--entity ProyectoService--><g class="entity" data-qualified-name="crearProyecto.ProyectoService" data-source-line="7" id="ent0005"><rect fill="#B5BD68" height="37.6094" rx="2.5" ry="2.5" style="stroke:#181818;stroke-width:0.5;" width="121.9307" x="229" y="274"/><text fill="#000000" font-family="sans-serif" font-size="14" lengthAdjust="spacing" textLength="101.9307" x="239" y="298.5332">ProyectoService</text></g><!--entity SesionService--><g class="entity" data-qualified-name="crearProyecto.SesionService" data-source-line="8" id="ent0006"><rect fill="#B5BD68" height="37.6094" rx="2.5" ry="2.5" style="stroke:#181818;stroke-width:0.5;" width="109.4893" x="913.5" y="274"/><text fill="#000000" font-family="sans-serif" font-size="14" lengthAdjust="spacing" textLength="89.4893" x="923.5" y="298.5332">SesionService</text></g><!--entity ProyectoRepository--><g class="entity" data-qualified-name="crearProyecto.ProyectoRepository" data-source-line="9" id="ent0007"><rect fill="#F2AC4E" height="37.6094" rx="2.5" ry="2.5" style="stroke:#181818;stroke-width:0.5;" width="142.165" x="229" y="390"/><text fill="#000000" font-family="sans-serif" font-size="14" lengthAdjust="spacing" textLength="122.165" x="239" y="414.5332">ProyectoRepository</text></g><!--entity ConvocatoriaRepository--><g class="entity" data-qualified-name="crearProyecto.ConvocatoriaRepository" data-source-line="10" id="ent0008"><rect fill="#F2AC4E" height="37.6094" rx="2.5" ry="2.5" style="stroke:#181818;stroke-width:0.5;" width="169.4063" x="406.5" y="390"/><text fill="#000000" font-family="sans-serif" font-size="14" lengthAdjust="spacing" textLength="149.4063" x="416.5" y="414.5332">ConvocatoriaRepository</text></g><!--entity Proyecto--><g class="entity" data-qualified-name="crearProyecto.Proyecto" data-source-line="11" id="ent0009"><rect fill="#F2AC4E" height="37.6094" rx="2.5" ry="2.5" style="stroke:#181818;stroke-width:0.5;" width="75.248" x="262.5" y="489"/><text fill="#000000" font-family="sans-serif" font-size="14" lengthAdjust="spacing" textLength="55.248" x="272.5" y="513.5332">Proyecto</text></g><!--entity Convocatoria--><g class="entity" data-qualified-name="crearProyecto.Convocatoria" data-source-line="12" id="ent0010"><rect fill="#F2AC4E" height="37.6094" rx="2.5" ry="2.5" style="stroke:#181818;stroke-width:0.5;" width="102.4893" x="440" y="489"/><text fill="#000000" font-family="sans-serif" font-size="14" lengthAdjust="spacing" textLength="82.4893" x="450" y="513.5332">Convocatoria</text></g><!--entity EstadoEntrada--><g class="entity" data-qualified-name="EstadoEntrada" data-source-line="3" id="ent0001"><rect fill="#CDEBA5" height="37.6094" rx="2.5" ry="2.5" style="stroke:#181818;stroke-width:0.5;" width="190.3721" x="7" y="42"/><text fill="#000000" font-family="sans-serif" font-size="14" lengthAdjust="spacing" textLength="170.3721" x="17" y="66.5332">:PROYECTOS_ABIERTOS</text></g><!--entity EstadoSalida--><g class="entity" data-qualified-name="EstadoSalida" data-source-line="15" id="ent0011"><rect fill="#CDEBA5" height="37.6094" rx="2.5" ry="2.5" style="stroke:#181818;stroke-width:0.5;" width="171.6963" x="1055" y="158"/><text fill="#000000" font-family="sans-serif" font-size="14" lengthAdjust="spacing" textLength="151.6963" x="1065" y="182.5332">:PROYECTO_ABIERTO</text></g><!--entity EstadoSalidaCancelada--><g class="entity" data-qualified-name="EstadoSalidaCancelada" data-source-line="16" id="ent0012"><rect fill="#CDEBA5" height="37.6094" rx="2.5" ry="2.5" style="stroke:#181818;stroke-width:0.5;" width="190.3721" x="1262" y="158"/><text fill="#000000" font-family="sans-serif" font-size="14" lengthAdjust="spacing" textLength="170.3721" x="1272" y="182.5332">:PROYECTOS_ABIERTOS</text></g><!--entity AbrirProyecto--><g class="entity" data-qualified-name="AbrirProyecto" data-source-line="17" id="ent0013"><rect fill="#CDEBA5" height="37.6094" rx="2.5" ry="2.5" style="stroke:#181818;stroke-width:0.5;" width="195.082" x="1487.5" y="158"/><text fill="#000000" font-family="sans-serif" font-size="14" lengthAdjust="spacing" textLength="175.082" x="1497.5" y="182.5332">:Collaboration AbrirProyecto</text></g><!--entity EditarProyecto--><g class="entity" data-qualified-name="EditarProyecto" data-source-line="18" id="ent0014"><rect fill="#CDEBA5" height="37.6094" rx="2.5" ry="2.5" style="stroke:#181818;stroke-width:0.5;" width="202.0957" x="1718" y="158"/><text fill="#000000" font-family="sans-serif" font-size="14" lengthAdjust="spacing" textLength="182.0957" x="1728" y="182.5332">:Collaboration EditarProyecto</text></g><!--entity EliminarProyecto--><g class="entity" data-qualified-name="EliminarProyecto" data-source-line="19" id="ent0015"><rect fill="#CDEBA5" height="37.6094" rx="2.5" ry="2.5" style="stroke:#181818;stroke-width:0.5;" width="216.0889" x="1955" y="158"/><text fill="#000000" font-family="sans-serif" font-size="14" lengthAdjust="spacing" textLength="196.0889" x="1965" y="182.5332">:Collaboration EliminarProyecto</text></g><!--entity AgregarInvestigador--><g class="entity" data-qualified-name="AgregarInvestigador" data-source-line="20" id="ent0016"><rect fill="#CDEBA5" height="37.6094" rx="2.5" ry="2.5" style="stroke:#181818;stroke-width:0.5;" width="236.3506" x="2206" y="158"/><text fill="#000000" font-family="sans-serif" font-size="14" lengthAdjust="spacing" textLength="216.3506" x="2216" y="182.5332">:Collaboration AgregarInvestigador</text></g><!--entity EliminarInvestigador--><g class="entity" data-qualified-name="EliminarInvestigador" data-source-line="21" id="ent0017"><rect fill="#CDEBA5" height="37.6094" rx="2.5" ry="2.5" style="stroke:#181818;stroke-width:0.5;" width="237.1094" x="2477.5" y="158"/><text fill="#000000" font-family="sans-serif" font-size="14" lengthAdjust="spacing" textLength="217.1094" x="2487.5" y="182.5332">:Collaboration EliminarInvestigador</text></g><!--entity AbrirEntregables--><g class="entity" data-qualified-name="AbrirEntregables" data-source-line="22" id="ent0018"><rect fill="#CDEBA5" height="37.6094" rx="2.5" ry="2.5" style="stroke:#181818;stroke-width:0.5;" width="214.5508" x="2749.5" y="158"/><text fill="#000000" font-family="sans-serif" font-size="14" lengthAdjust="spacing" textLength="194.5508" x="2759.5" y="182.5332">:Collaboration AbrirEntregables</text></g><!--entity AbrirInvestigadores--><g class="entity" data-qualified-name="AbrirInvestigadores" data-source-line="23" id="ent0019"><rect fill="#CDEBA5" height="37.6094" rx="2.5" ry="2.5" style="stroke:#181818;stroke-width:0.5;" width="230.8887" x="2999.5" y="158"/><text fill="#000000" font-family="sans-serif" font-size="14" lengthAdjust="spacing" textLength="210.8887" x="3009.5" y="182.5332">:Collaboration AbrirInvestigadores</text></g><!--entity AbrirProyectos--><g class="entity" data-qualified-name="AbrirProyectos" data-source-line="24" id="ent0020"><rect fill="#CDEBA5" height="37.6094" rx="2.5" ry="2.5" style="stroke:#181818;stroke-width:0.5;" width="202.082" x="3266" y="158"/><text fill="#000000" font-family="sans-serif" font-size="14" lengthAdjust="spacing" textLength="182.082" x="3276" y="182.5332">:Collaboration AbrirProyectos</text></g><!--entity CrearProyecto--><g class="entity" data-qualified-name="CrearProyecto" data-source-line="25" id="ent0021"><rect fill="#CDEBA5" height="37.6094" rx="2.5" ry="2.5" style="stroke:#181818;stroke-width:0.5;" width="200.5303" x="3503.5" y="158"/><text fill="#000000" font-family="sans-serif" font-size="14" lengthAdjust="spacing" textLength="180.5303" x="3513.5" y="182.5332">:Collaboration CrearProyecto</text></g><!--entity AbrirPanelPrincipal--><g class="entity" data-qualified-name="AbrirPanelPrincipal" data-source-line="26" id="ent0022"><rect fill="#CDEBA5" height="37.6094" rx="2.5" ry="2.5" style="stroke:#181818;stroke-width:0.5;" width="229.3301" x="3739.5" y="158"/><text fill="#000000" font-family="sans-serif" font-size="14" lengthAdjust="spacing" textLength="209.3301" x="3749.5" y="182.5332">:Collaboration AbrirPanelPrincipal</text></g><!--link EstadoEntrada to CrearProyectoView--><g class="link" data-entity-1="ent0001" data-entity-2="ent0003" data-link-type="dependency" data-source-line="28" id="lnk23"><path d="M197.03,61 C369.23,61 724.11,61 876.45,61" fill="none" id="EstadoEntrada-to-CrearProyectoView" style="stroke:#181818;stroke-width:1;"/><polygon fill="#181818" points="881.45,61,872.45,57,876.45,61,872.45,65,881.45,61" style="stroke:#181818;stroke-width:1;stroke-linejoin:miter;stroke-miterlimit:10;"/><text fill="#000000" font-family="sans-serif" font-size="13" lengthAdjust="spacing" textLength="89.5781" x="494.75" y="54.4951">crearProyecto()</text></g><!--link CrearProyectoView to ProyectoController--><g class="link" data-entity-1="ent0003" data-entity-2="ent0004" data-link-type="dependency" data-source-line="30" id="lnk24"><path d="M881.21,72.3 C784.24,86.4 622,110 622,110 C622,110 622,128 622,128 C622,128 644.1614,141.6401 666.2514,155.2301" fill="none" id="CrearProyectoView-to-ProyectoController" style="stroke:#181818;stroke-width:1;"/><polygon fill="#181818" points="670.51,157.85,664.9404,149.7272,666.2514,155.2301,660.7485,156.541,670.51,157.85" style="stroke:#181818;stroke-width:1;stroke-linejoin:miter;stroke-miterlimit:10;"/><text fill="#000000" font-family="sans-serif" font-size="13" lengthAdjust="spacing" textLength="109.8208" x="623" y="124.4951">prepararCreacion()</text></g><!--link CrearProyectoView to ProyectoController--><g class="link" data-entity-1="ent0003" data-entity-2="ent0004" data-link-type="dependency" data-source-line="34" id="lnk28"><path d="M887.46,80.01 C838.66,93.63 780,110 780,110 C780,110 749.4064,135.2375 725.7164,154.7875" fill="none" id="CrearProyectoView-to-ProyectoController-1" style="stroke:#181818;stroke-width:1;"/><polygon fill="#181818" points="721.86,157.97,731.3475,155.3267,725.7164,154.7875,726.2556,149.1564,721.86,157.97" style="stroke:#181818;stroke-width:1;stroke-linejoin:miter;stroke-miterlimit:10;"/><text fill="#000000" font-family="sans-serif" font-size="13" lengthAdjust="spacing" textLength="245.6543" x="781" y="124.4951">crearProyecto(datosMinimos, coordinador)</text></g><!--link ProyectoController to ProyectoService--><g class="link" data-entity-1="ent0004" data-entity-2="ent0005" data-link-type="dependency" data-source-line="31" id="lnk25"><path d="M635.03,196.06 C557.13,217.72 432.3773,252.4106 356.1273,273.6106" fill="none" id="ProyectoController-to-ProyectoService" style="stroke:#181818;stroke-width:1;"/><polygon fill="#181818" points="351.31,274.95,361.0526,276.393,356.1273,273.6106,358.9096,268.6853,351.31,274.95" style="stroke:#181818;stroke-width:1;stroke-linejoin:miter;stroke-miterlimit:10;"/><text fill="#000000" font-family="sans-serif" font-size="13" lengthAdjust="spacing" textLength="145.958" x="520" y="240.4951">crear(datos, coordinador)</text></g><!--link ProyectoController to SesionService--><g class="link" data-entity-1="ent0004" data-entity-2="ent0006" data-link-type="dependency" data-source-line="32" id="lnk26"><path d="M742.47,196.06 C792.5,217.35 870.549,250.5427 920.689,271.8727" fill="none" id="ProyectoController-to-SesionService" style="stroke:#181818;stroke-width:1;"/><polygon fill="#181818" points="925.29,273.83,918.5741,266.6261,920.689,271.8727,915.4424,273.9876,925.29,273.83" style="stroke:#181818;stroke-width:1;stroke-linejoin:miter;stroke-miterlimit:10;"/><text fill="#000000" font-family="sans-serif" font-size="13" lengthAdjust="spacing" textLength="209.5806" x="851" y="240.4951">obtenerSesionActual(authentication)</text></g><!--link ProyectoService to ConvocatoriaRepository--><g class="link" data-entity-1="ent0005" data-entity-2="ent0008" data-link-type="dependency" data-source-line="33" id="lnk27"><path d="M334.27,312.01 C367.76,325.63 408,342 408,342 C408,342 439.8374,367.3068 464.4074,386.8568" fill="none" id="ProyectoService-to-ConvocatoriaRepository" style="stroke:#181818;stroke-width:1;"/><polygon fill="#181818" points="468.32,389.97,463.7679,381.2362,464.4074,386.8568,458.7868,387.4963,468.32,389.97" style="stroke:#181818;stroke-width:1;stroke-linejoin:miter;stroke-miterlimit:10;"/><text fill="#000000" font-family="sans-serif" font-size="13" lengthAdjust="spacing" textLength="119.9517" x="431" y="356.4951">obtenerDisponibles()</text></g><!--link ProyectoService to ProyectoService--><g class="link" data-entity-1="ent0005" data-entity-2="ent0005" data-link-type="dependency" data-source-line="35" id="lnk29"><path d="M351.4,287.57 C370.74,287.65 386,289.46 386,293 C386,296.54 375.74,298.3293 356.4,298.4093" fill="none" id="ProyectoService-to-ProyectoService" style="stroke:#181818;stroke-width:1;"/><polygon fill="#181818" points="351.4,298.43,360.4165,302.3927,356.4,298.4093,360.3834,294.3928,351.4,298.43" style="stroke:#181818;stroke-width:1;stroke-linejoin:miter;stroke-miterlimit:10;"/><text fill="#000000" font-family="sans-serif" font-size="13" lengthAdjust="spacing" textLength="212.4116" x="392" y="298.4951">validarDatosYFechas(datosMinimos)</text></g><!--link ProyectoService to ProyectoService--><g class="link" data-entity-1="ent0005" data-entity-2="ent0005" data-link-type="dependency" data-source-line="36" id="lnk30"><path d="M351.04,285.29 C446.36,279.27 610,281.84 610,293 C610,304.16 451.3501,307.0452 356.0301,301.0252" fill="none" id="ProyectoService-to-ProyectoService-1" style="stroke:#181818;stroke-width:1;"/><polygon fill="#181818" points="351.04,300.71,359.77,305.2693,356.0301,301.0252,360.2742,297.2852,351.04,300.71" style="stroke:#181818;stroke-width:1;stroke-linejoin:miter;stroke-miterlimit:10;"/><text fill="#000000" font-family="sans-serif" font-size="13" lengthAdjust="spacing" textLength="255.8169" x="616" y="298.4951">asignarCodigoCoordinadorYEstadoCreado()</text></g><!--link ProyectoService to ProyectoRepository--><g class="link" data-entity-1="ent0005" data-entity-2="ent0007" data-link-type="dependency" data-source-line="37" id="lnk31"><path d="M291.58,312.06 C293.45,333.28 296.0835,363.3191 297.9535,384.6591" fill="none" id="ProyectoService-to-ProyectoRepository" style="stroke:#181818;stroke-width:1;"/><polygon fill="#181818" points="298.39,389.64,301.5891,380.3252,297.9535,384.6591,293.6196,381.0235,298.39,389.64" style="stroke:#181818;stroke-width:1;stroke-linejoin:miter;stroke-miterlimit:10;"/><text fill="#000000" font-family="sans-serif" font-size="13" lengthAdjust="spacing" textLength="103.3271" x="296" y="356.4951">guardar(proyecto)</text></g><!--link ProyectoRepository to Proyecto--><g class="link" data-entity-1="ent0007" data-entity-2="ent0009" data-link-type="association" data-source-line="38" id="lnk32"><path d="M300,428.24 C300,445.59 300,471.52 300,488.84" fill="none" id="ProyectoRepository-Proyecto" style="stroke:#181818;stroke-width:1;"/></g><!--link ConvocatoriaRepository to Convocatoria--><g class="link" data-entity-1="ent0008" data-entity-2="ent0010" data-link-type="association" data-source-line="39" id="lnk33"><path d="M491,428.24 C491,445.59 491,471.52 491,488.84" fill="none" id="ConvocatoriaRepository-Convocatoria" style="stroke:#181818;stroke-width:1;"/></g><!--link CrearProyectoView to EstadoSalida--><g class="link" data-entity-1="ent0003" data-entity-2="ent0011" data-link-type="dependency" data-source-line="40" id="lnk34"><path d="M981.95,80.06 C1017.23,101.35 1071.2386,133.9174 1106.5986,155.2474" fill="none" id="CrearProyectoView-to-EstadoSalida" style="stroke:#181818;stroke-width:1;stroke-dasharray:7,7;"/><polygon fill="#181818" points="1110.88,157.83,1105.2396,149.7562,1106.5986,155.2474,1101.1074,156.6064,1110.88,157.83" style="stroke:#181818;stroke-width:1;stroke-linejoin:miter;stroke-miterlimit:10;"/><text fill="#000000" font-family="sans-serif" font-size="13" lengthAdjust="spacing" textLength="101.1563" x="1058" y="124.4951">proyectoCreado()</text></g><!--link CrearProyectoView to EstadoSalidaCancelada--><g class="link" data-entity-1="ent0003" data-entity-2="ent0012" data-link-type="dependency" data-source-line="41" id="lnk35"><path d="M1022.73,77.72 C1085.72,91.72 1168,110 1168,110 C1168,110 1244.6799,136.7707 1300.6299,156.3207" fill="none" id="CrearProyectoView-to-EstadoSalidaCancelada" style="stroke:#181818;stroke-width:1;stroke-dasharray:7,7;"/><polygon fill="#181818" points="1305.35,157.97,1298.1732,151.2251,1300.6299,156.3207,1295.5343,158.7774,1305.35,157.97" style="stroke:#181818;stroke-width:1;stroke-linejoin:miter;stroke-miterlimit:10;"/><text fill="#000000" font-family="sans-serif" font-size="13" lengthAdjust="spacing" textLength="109.8208" x="1219" y="124.4951">cancelarCreacion()</text></g><!--link CrearProyectoView to AbrirProyecto--><g class="link" data-entity-1="ent0003" data-entity-2="ent0013" data-link-type="dependency" data-source-line="42" id="lnk36"><path d="M1022.61,70.8 C1133.76,84.66 1337,110 1337,110 C1337,110 1438.9683,137.1336 1512.3983,156.6836" fill="none" id="CrearProyectoView-to-AbrirProyecto" style="stroke:#181818;stroke-width:1;stroke-dasharray:7,7;"/><polygon fill="#181818" points="1517.23,157.97,1509.5621,151.7892,1512.3983,156.6836,1507.5039,159.5199,1517.23,157.97" style="stroke:#181818;stroke-width:1;stroke-linejoin:miter;stroke-miterlimit:10;"/><text fill="#000000" font-family="sans-serif" font-size="13" lengthAdjust="spacing" textLength="146.6689" x="1404" y="124.4951">abrirProyecto(proyectoId)</text></g><!--link CrearProyectoView to EditarProyecto--><g class="link" data-entity-1="ent0003" data-entity-2="ent0014" data-link-type="dependency" data-source-line="43" id="lnk37"><path d="M1022.52,67.58 C1182.47,80.23 1559,110 1559,110 C1559,110 1666.1238,137.1893 1743.1038,156.7393" fill="none" id="CrearProyectoView-to-EditarProyecto" style="stroke:#181818;stroke-width:1;stroke-dasharray:7,7;"/><polygon fill="#181818" points="1747.95,157.97,1740.2115,151.8777,1743.1038,156.7393,1738.2423,159.6316,1747.95,157.97" style="stroke:#181818;stroke-width:1;stroke-linejoin:miter;stroke-miterlimit:10;"/><text fill="#000000" font-family="sans-serif" font-size="13" lengthAdjust="spacing" textLength="92.479" x="1629" y="124.4951">editarProyecto()</text></g><!--link CrearProyectoView to EliminarProyecto--><g class="link" data-entity-1="ent0003" data-entity-2="ent0015" data-link-type="dependency" data-source-line="44" id="lnk38"><path d="M1022.76,66.37 C1214.54,78.2 1730,110 1730,110 C1730,110 1868.5055,137.4476 1967.1055,156.9976" fill="none" id="CrearProyectoView-to-EliminarProyecto" style="stroke:#181818;stroke-width:1;stroke-dasharray:7,7;"/><polygon fill="#181818" points="1972.01,157.97,1963.9598,152.296,1967.1055,156.9976,1962.4039,160.1432,1972.01,157.97" style="stroke:#181818;stroke-width:1;stroke-linejoin:miter;stroke-miterlimit:10;"/><text fill="#000000" font-family="sans-serif" font-size="13" lengthAdjust="spacing" textLength="105.4727" x="1820" y="124.4951">eliminarProyecto()</text></g><!--link CrearProyectoView to AgregarInvestigador--><g class="link" data-entity-1="ent0003" data-entity-2="ent0016" data-link-type="dependency" data-source-line="45" id="lnk39"><path d="M1022.62,65.45 C1247.79,76.46 1934,110 1934,110 C1934,110 2097.0302,137.5853 2212.5002,157.1353" fill="none" id="CrearProyectoView-to-AgregarInvestigador" style="stroke:#181818;stroke-width:1;stroke-dasharray:7,7;"/><polygon fill="#181818" points="2217.43,157.97,2209.224,152.5237,2212.5002,157.1353,2207.8886,160.4115,2217.43,157.97" style="stroke:#181818;stroke-width:1;stroke-linejoin:miter;stroke-miterlimit:10;"/><text fill="#000000" font-family="sans-serif" font-size="13" lengthAdjust="spacing" textLength="124.2871" x="2039" y="124.4951">agregarInvestigador()</text></g><!--link CrearProyectoView to EliminarInvestigador--><g class="link" data-entity-1="ent0003" data-entity-2="ent0017" data-link-type="dependency" data-source-line="46" id="lnk40"><path d="M1022.87,64.79 C1283.24,75.03 2172,110 2172,110 C2172,110 2349.6595,137.6506 2475.1995,157.2006" fill="none" id="CrearProyectoView-to-EliminarInvestigador" style="stroke:#181818;stroke-width:1;stroke-dasharray:7,7;"/><polygon fill="#181818" points="2480.14,157.97,2471.8627,152.6328,2475.1995,157.2006,2470.6317,160.5375,2480.14,157.97" style="stroke:#181818;stroke-width:1;stroke-linejoin:miter;stroke-miterlimit:10;"/><text fill="#000000" font-family="sans-serif" font-size="13" lengthAdjust="spacing" textLength="124.9917" x="2286" y="124.4951">eliminarInvestigador()</text></g><!--link CrearProyectoView to AbrirEntregables--><g class="link" data-entity-1="ent0003" data-entity-2="ent0018" data-link-type="dependency" data-source-line="47" id="lnk41"><path d="M1022.76,64.32 C1315.8,73.9 2419,110 2419,110 C2419,110 2614.6558,139.4851 2744.3458,159.0251" fill="none" id="CrearProyectoView-to-AbrirEntregables" style="stroke:#181818;stroke-width:1;stroke-dasharray:7,7;"/><polygon fill="#181818" points="2749.29,159.77,2740.9864,154.4738,2744.3458,159.0251,2739.7945,162.3845,2749.29,159.77" style="stroke:#181818;stroke-width:1;stroke-linejoin:miter;stroke-miterlimit:10;"/><text fill="#000000" font-family="sans-serif" font-size="13" lengthAdjust="spacing" textLength="104.0444" x="2537" y="124.4951">abrirEntregables()</text></g><!--link CrearProyectoView to AbrirInvestigadores--><g class="link" data-entity-1="ent0003" data-entity-2="ent0019" data-link-type="dependency" data-source-line="48" id="lnk42"><path d="M1022.53,63.99 C1343.43,73.07 2650,110 2650,110 C2650,110 2856.7896,139.3473 2994.5096,158.8973" fill="none" id="CrearProyectoView-to-AbrirInvestigadores" style="stroke:#181818;stroke-width:1;stroke-dasharray:7,7;"/><polygon fill="#181818" points="2999.46,159.6,2991.1115,154.3748,2994.5096,158.8973,2989.9871,162.2954,2999.46,159.6" style="stroke:#181818;stroke-width:1;stroke-linejoin:miter;stroke-miterlimit:10;"/><text fill="#000000" font-family="sans-serif" font-size="13" lengthAdjust="spacing" textLength="119.2153" x="2775" y="124.4951">abrirInvestigadores()</text></g><!--link CrearProyectoView to AbrirProyectos--><g class="link" data-entity-1="ent0003" data-entity-2="ent0020" data-link-type="dependency" data-source-line="49" id="lnk43"><path d="M1022.59,63.74 C1372.36,72.34 2903,110 2903,110 C2903,110 3248,158 3248,158 C3248,158 3250.146,158.3236 3260.876,159.9436" fill="none" id="CrearProyectoView-to-AbrirProyectos" style="stroke:#181818;stroke-width:1;stroke-dasharray:7,7;"/><polygon fill="#181818" points="3265.82,160.69,3257.518,155.3912,3260.876,159.9436,3256.3237,163.3016,3265.82,160.69" style="stroke:#181818;stroke-width:1;stroke-linejoin:miter;stroke-miterlimit:10;"/><text fill="#000000" font-family="sans-serif" font-size="13" lengthAdjust="spacing" textLength="92.4663" x="3025" y="124.4951">abrirProyectos()</text></g><!--link CrearProyectoView to CrearProyecto--><g class="link" data-entity-1="ent0003" data-entity-2="ent0021" data-link-type="dependency" data-source-line="50" id="lnk44"><path d="M1022.79,63.56 C1396.82,71.82 3126,110 3126,110 C3126,110 3486,158 3486,158 C3486,158 3487.9772,158.3061 3498.4672,159.9061" fill="none" id="CrearProyectoView-to-CrearProyecto" style="stroke:#181818;stroke-width:1;stroke-dasharray:7,7;"/><polygon fill="#181818" points="3503.41,160.66,3495.116,155.3487,3498.4672,159.9061,3493.9098,163.2572,3503.41,160.66" style="stroke:#181818;stroke-width:1;stroke-linejoin:miter;stroke-miterlimit:10;"/><text fill="#000000" font-family="sans-serif" font-size="13" lengthAdjust="spacing" textLength="89.5781" x="3253" y="124.4951">crearProyecto()</text></g><!--link CrearProyectoView to AbrirPanelPrincipal--><g class="link" data-entity-1="ent0003" data-entity-2="ent0022" data-link-type="dependency" data-source-line="51" id="lnk45"><path d="M1022.82,63.42 C1419.81,71.36 3351,110 3351,110 C3351,110 3722,158 3722,158 C3722,158 3723.8259,158.244 3734.3059,159.674" fill="none" id="CrearProyectoView-to-AbrirPanelPrincipal" style="stroke:#181818;stroke-width:1;stroke-dasharray:7,7;"/><polygon fill="#181818" points="3739.26,160.35,3730.8834,155.1699,3734.3059,159.674,3729.8018,163.0965,3739.26,160.35" style="stroke:#181818;stroke-width:1;stroke-linejoin:miter;stroke-miterlimit:10;"/><text fill="#000000" font-family="sans-serif" font-size="13" lengthAdjust="spacing" textLength="117.7681" x="3482" y="124.4951">abrirPanelPrincipal()</text></g><?plantuml-src bLJ1Zjem4BtdAonweLBPmwgxwd9OYGr1ub0jMgfAd5OJnyfQQ-p8DbIewhzt4aAmumH2JidBp9kPD_OpdrmMe65B19VC7Wf62YKEvKSKQKOjo5mmyYMU9o-p1pAQhjvUDqdywtNzFdjP9c_uCY9WI68iP2gHLaC6KG7q4t96g6QWLreTa4YLOICF6NyTaRyHmSUfz7Z_b2oUIEm6_kRiJpikVKYpnn_a518hhAs4OFfAu9hfFQUi9shD35Uo9sPnFuk_9mtJ6okKuLRfGqyWzhHN5322mzNW4-i0hkZVvTsSLkDiPWs2us9ktkWnBmP9cO0UWXXbXrHfi2WTcQMQDukhc3na04EISGi-XGyDuH1yosMRfGKEcIRNB0Uzb7jcBCzH4NsSASHlw2gWw_enLEloqc4lgM3cBBS33kLnQxjKFdxh2J3X4HZ2uLt_Yi931dS1aecLvfBo0eJJYeT7aMTVPA8dpw41JKdBlA8eY26J35D3JvgIGhFIPtMPGh4_J0_3oCJ9haseBZlEyEwRRuGgfJCyAhYCNWRFnAP4fPP9fe_eZDeTY37ix0UJbjDAh3DJdLJHTDjNmpVdfb2IbqSCX-cGeaS9NyLgh9zSyctlT6vFWJZxog3qlAJPB1Zz0EDn3gG1mtEyVx7AU8xTDbriZYUZd2vJuyjahaRv3ZIsDIxgV-VCSnGcdrs_M-mon7F-KEQxksVFgykZLej-QlfwKcFmk9xZgtjGk_EzEuqAkf_DtCkijxndwLF2lE_-hbiUZeajfB_XqBEnxH2yMjjdO1tePT4SSwvrSv3BgRuPrza-E6nXfhMn_ZGF3KtmKYtFPKy5FH09_WC0?></g></svg>