<svg xmlns="http://www.w3.org/2000/svg" xmlns:xlink="http://www.w3.org/1999/xlink" contentStyleType="text/css" data-diagram-type="DESCRIPTION" height="442px" preserveAspectRatio="none" style="width:1513px;height:442px;background:#FFFFFF;" version="1.1" viewBox="0 0 1513 442" width="1513px" zoomAndPan="magnify"><?plantuml 1.2026.4?><defs/><g><!--cluster abrirEntregables--><g class="cluster" data-qualified-name="abrirEntregables" data-source-line="4" id="ent0002"><path d="M197.5,6 L319.0859,6 A3.75,3.75 0 0 1 321.5859,8.5 L328.5859,29.6094 L553.5,29.6094 A2.5,2.5 0 0 1 556,32.1094 L556,424.5 A2.5,2.5 0 0 1 553.5,427 L197.5,427 A2.5,2.5 0 0 1 195,424.5 L195,8.5 A2.5,2.5 0 0 1 197.5,6" fill="none" style="stroke:#000000;stroke-width:1.5;"/><line style="stroke:#000000;stroke-width:1.5;" x1="195" x2="328.5859" y1="29.6094" y2="29.6094"/><text fill="#000000" font-family="sans-serif" font-size="14" font-weight="700" lengthAdjust="spacing" textLength="120.5859" x="199" y="22.5332">abrirEntregables()</text></g><!--entity ListarEntregablesView--><g class="entity" data-qualified-name="abrirEntregables.ListarEntregablesView" data-source-line="5" id="ent0003"><rect fill="#629EF9" height="37.6094" rx="2.5" ry="2.5" style="stroke:#181818;stroke-width:0.5;" width="159.2959" x="380.5" y="42"/><text fill="#000000" font-family="sans-serif" font-size="14" lengthAdjust="spacing" textLength="139.2959" x="390.5" y="66.5332">ListarEntregablesView</text></g><!--entity EntregableController--><g class="entity" data-qualified-name="abrirEntregables.EntregableController" data-source-line="6" id="ent0004"><rect fill="#B5BD68" height="37.6094" rx="2.5" ry="2.5" style="stroke:#181818;stroke-width:0.5;" width="148.4063" x="256" y="158"/><text fill="#000000" font-family="sans-serif" font-size="14" lengthAdjust="spacing" textLength="128.4063" x="266" y="182.5332">EntregableController</text></g><!--entity EntregableRepository--><g class="entity" data-qualified-name="abrirEntregables.EntregableRepository" data-source-line="7" id="ent0005"><rect fill="#F2AC4E" height="37.6094" rx="2.5" ry="2.5" style="stroke:#181818;stroke-width:0.5;" width="154.6338" x="258.5" y="274"/><text fill="#000000" font-family="sans-serif" font-size="14" lengthAdjust="spacing" textLength="134.6338" x="268.5" y="298.5332">EntregableRepository</text></g><!--entity Entregable--><g class="entity" data-qualified-name="abrirEntregables.Entregable" data-source-line="8" id="ent0006"><rect fill="#F2AC4E" height="37.6094" rx="2.5" ry="2.5" style="stroke:#181818;stroke-width:0.5;" width="87.7168" x="292" y="373"/><text fill="#000000" font-family="sans-serif" font-size="14" lengthAdjust="spacing" textLength="67.7168" x="302" y="397.5332">Entregable</text></g><!--entity EstadoEntrada--><g class="entity" data-qualified-name="EstadoEntrada" data-source-line="3" id="ent0001"><rect fill="#CDEBA5" height="37.6094" rx="2.5" ry="2.5" style="stroke:#181818;stroke-width:0.5;" width="171.6963" x="7" y="42"/><text fill="#000000" font-family="sans-serif" font-size="14" lengthAdjust="spacing" textLength="151.6963" x="17" y="66.5332">:PROYECTO_ABIERTO</text></g><!--entity EstadoSalida--><g class="entity" data-qualified-name="EstadoSalida" data-source-line="11" id="ent0007"><rect fill="#CDEBA5" height="37.6094" rx="2.5" ry="2.5" style="stroke:#181818;stroke-width:0.5;" width="205.9443" x="572" y="158"/><text fill="#000000" font-family="sans-serif" font-size="14" lengthAdjust="spacing" textLength="185.9443" x="582" y="182.5332">:ENTREGABLES_ABIERTOS</text></g><!--entity AbrirEntregable--><g class="entity" data-qualified-name="AbrirEntregable" data-source-line="12" id="ent0008"><rect fill="#CDEBA5" height="37.6094" rx="2.5" ry="2.5" style="stroke:#181818;stroke-width:0.5;" width="207.5508" x="813" y="158"/><text fill="#000000" font-family="sans-serif" font-size="14" lengthAdjust="spacing" textLength="187.5508" x="823" y="182.5332">:Collaboration AbrirEntregable</text></g><!--entity CrearEntregable--><g class="entity" data-qualified-name="CrearEntregable" data-source-line="13" id="ent0009"><rect fill="#CDEBA5" height="37.6094" rx="2.5" ry="2.5" style="stroke:#181818;stroke-width:0.5;" width="212.999" x="1056.5" y="158"/><text fill="#000000" font-family="sans-serif" font-size="14" lengthAdjust="spacing" textLength="192.999" x="1066.5" y="182.5332">:Collaboration CrearEntregable</text></g><!--entity AbrirProyecto--><g class="entity" data-qualified-name="AbrirProyecto" data-source-line="14" id="ent0010"><rect fill="#CDEBA5" height="37.6094" rx="2.5" ry="2.5" style="stroke:#181818;stroke-width:0.5;" width="195.082" x="1304.5" y="158"/><text fill="#000000" font-family="sans-serif" font-size="14" lengthAdjust="spacing" textLength="175.082" x="1314.5" y="182.5332">:Collaboration AbrirProyecto</text></g><!--link EstadoEntrada to ListarEntregablesView--><g class="link" data-entity-1="ent0001" data-entity-2="ent0003" data-link-type="dependency" data-source-line="16" id="lnk11"><path d="M179.05,61 C239.96,61 316.05,61 375.45,61" fill="none" id="EstadoEntrada-to-ListarEntregablesView" style="stroke:#181818;stroke-width:1;"/><polygon fill="#181818" points="380.45,61,371.45,57,375.45,61,371.45,65,380.45,61" style="stroke:#181818;stroke-width:1;stroke-linejoin:miter;stroke-miterlimit:10;"/><text fill="#000000" font-family="sans-serif" font-size="13" lengthAdjust="spacing" textLength="104.0444" x="227.75" y="54.4951">abrirEntregables()</text></g><!--link ListarEntregablesView to EntregableController--><g class="link" data-entity-1="ent0003" data-entity-2="ent0004" data-link-type="dependency" data-source-line="18" id="lnk12"><path d="M380.43,79.6 C318.5,93.3 243,110 243,110 C243,110 243,128 243,128 C243,128 268.0918,141.8452 292.7318,155.4352" fill="none" id="ListarEntregablesView-to-EntregableController" style="stroke:#181818;stroke-width:1;"/><polygon fill="#181818" points="297.11,157.85,291.161,150.0008,292.7318,155.4352,287.2974,157.006,297.11,157.85" style="stroke:#181818;stroke-width:1;stroke-linejoin:miter;stroke-miterlimit:10;"/><text fill="#000000" font-family="sans-serif" font-size="13" lengthAdjust="spacing" textLength="105.4854" x="244" y="124.4951">listarEntregables()</text></g><!--link ListarEntregablesView to EntregableController--><g class="link" data-entity-1="ent0003" data-entity-2="ent0004" data-link-type="dependency" data-source-line="19" id="lnk13"><path d="M439.4,80.06 C415.2,101.28 379.0403,133.0045 354.6903,154.3445" fill="none" id="ListarEntregablesView-to-EntregableController-1" style="stroke:#181818;stroke-width:1;"/><polygon fill="#181818" points="350.93,157.64,360.3349,154.7164,354.6903,154.3445,355.0622,148.6999,350.93,157.64" style="stroke:#181818;stroke-width:1;stroke-linejoin:miter;stroke-miterlimit:10;"/><text fill="#000000" font-family="sans-serif" font-size="13" lengthAdjust="spacing" textLength="145.9326" x="403" y="124.4951">filtrarEntregables(criterio)</text></g><!--link EntregableController to EntregableRepository--><g class="link" data-entity-1="ent0004" data-entity-2="ent0005" data-link-type="dependency" data-source-line="20" id="lnk14"><path d="M299.76,196.15 C277.1,209.74 250,226 250,226 C250,226 250,244 250,244 C250,244 274.7635,257.824 299.1235,271.414" fill="none" id="EntregableController-to-EntregableRepository" style="stroke:#181818;stroke-width:1;"/><polygon fill="#181818" points="303.49,273.85,297.5791,265.9721,299.1235,271.414,293.6816,272.9584,303.49,273.85" style="stroke:#181818;stroke-width:1;stroke-linejoin:miter;stroke-miterlimit:10;"/><text fill="#000000" font-family="sans-serif" font-size="13" lengthAdjust="spacing" textLength="88.8799" x="251" y="240.4951">obtenerTodos()</text></g><!--link EntregableController to EntregableRepository--><g class="link" data-entity-1="ent0004" data-entity-2="ent0005" data-link-type="dependency" data-source-line="21" id="lnk15"><path d="M335.29,196.15 C339.26,209.74 344,226 344,226 C344,226 344,244 344,244 C344,244 342.1138,255.3283 339.8438,268.9183" fill="none" id="EntregableController-to-EntregableRepository-1" style="stroke:#181818;stroke-width:1;"/><polygon fill="#181818" points="339.02,273.85,344.4481,265.632,339.8438,268.9183,336.5574,264.314,339.02,273.85" style="stroke:#181818;stroke-width:1;stroke-linejoin:miter;stroke-miterlimit:10;"/><text fill="#000000" font-family="sans-serif" font-size="13" lengthAdjust="spacing" textLength="148.8081" x="345" y="240.4951">buscarPorCriterio(criterio)</text></g><!--link EntregableRepository to Entregable--><g class="link" data-entity-1="ent0005" data-entity-2="ent0006" data-link-type="association" data-source-line="22" id="lnk16"><path d="M336,312.24 C336,329.59 336,355.52 336,372.84" fill="none" id="EntregableRepository-Entregable" style="stroke:#181818;stroke-width:1;"/></g><!--link ListarEntregablesView to EstadoSalida--><g class="link" data-entity-1="ent0003" data-entity-2="ent0007" data-link-type="dependency" data-source-line="23" id="lnk17"><path d="M496.4,80.01 C523.92,93.63 557,110 557,110 C557,110 603.4566,135.9785 638.3966,155.5285" fill="none" id="ListarEntregablesView-to-EstadoSalida" style="stroke:#181818;stroke-width:1;stroke-dasharray:7,7;"/><polygon fill="#181818" points="642.76,157.97,636.859,150.0847,638.3966,155.5285,632.9527,157.0661,642.76,157.97" style="stroke:#181818;stroke-width:1;stroke-linejoin:miter;stroke-miterlimit:10;"/><text fill="#000000" font-family="sans-serif" font-size="13" lengthAdjust="spacing" textLength="130.7935" x="589" y="124.4951">continuarNavegacion()</text></g><!--link ListarEntregablesView to AbrirEntregable--><g class="link" data-entity-1="ent0003" data-entity-2="ent0008" data-link-type="dependency" data-source-line="24" id="lnk18"><path d="M539.68,76.27 C618.68,90.42 728,110 728,110 C728,110 804.6799,136.7707 860.6299,156.3207" fill="none" id="ListarEntregablesView-to-AbrirEntregable" style="stroke:#181818;stroke-width:1;stroke-dasharray:7,7;"/><polygon fill="#181818" points="865.35,157.97,858.1732,151.2251,860.6299,156.3207,855.5343,158.7774,865.35,157.97" style="stroke:#181818;stroke-width:1;stroke-linejoin:miter;stroke-miterlimit:10;"/><text fill="#000000" font-family="sans-serif" font-size="13" lengthAdjust="spacing" textLength="97.5444" x="779" y="124.4951">abrirEntregable()</text></g><!--link ListarEntregablesView to CrearEntregable--><g class="link" data-entity-1="ent0003" data-entity-2="ent0009" data-link-type="dependency" data-source-line="25" id="lnk19"><path d="M539.94,71.03 C663.05,84.93 885,110 885,110 C885,110 999.8553,137.2647 1082.1753,156.8147" fill="none" id="ListarEntregablesView-to-CrearEntregable" style="stroke:#181818;stroke-width:1;stroke-dasharray:7,7;"/><polygon fill="#181818" points="1087.04,157.97,1079.2078,151.9987,1082.1753,156.8147,1077.3593,159.7822,1087.04,157.97" style="stroke:#181818;stroke-width:1;stroke-linejoin:miter;stroke-miterlimit:10;"/><text fill="#000000" font-family="sans-serif" font-size="13" lengthAdjust="spacing" textLength="101.1563" x="960" y="124.4951">crearEntregable()</text></g><!--link ListarEntregablesView to AbrirProyecto--><g class="link" data-entity-1="ent0003" data-entity-2="ent0010" data-link-type="dependency" data-source-line="26" id="lnk20"><path d="M539.75,68.28 C705.09,81.29 1070,110 1070,110 C1070,110 1208.076,137.4447 1306.376,156.9947" fill="none" id="ListarEntregablesView-to-AbrirProyecto" style="stroke:#181818;stroke-width:1;stroke-dasharray:7,7;"/><polygon fill="#181818" points="1311.28,157.97,1303.2331,152.2913,1306.376,156.9947,1301.6726,160.1376,1311.28,157.97" style="stroke:#181818;stroke-width:1;stroke-linejoin:miter;stroke-miterlimit:10;"/><text fill="#000000" font-family="sans-serif" font-size="13" lengthAdjust="spacing" textLength="85.9663" x="1160" y="124.4951">abrirProyecto()</text></g><?plantuml-src bLB1Qi905BplLppIIpteGQhK78IOhgKWAXeAFPMNP2kBQJQyn9PG-k_T54EITQqsfsIOcJTvR_AzJ3CaV8T4fg8eCm6PIihgWp4IKO7fBX5mup_mcJS2nrrlLY_S3rQltko9RuAL0vW3pmkC5KyBmXXPXj4UTm8m94aLA7OO9YAlc8u9tlOS-6AWdzQqyN32vnDOIEtR9ZzByMbomr4OZ--XOVbAlwea4MHIvqFFl-CjwaPaAfU5el8YbNtRzy6NmOO_UhC5tzOhsRPsiiL4wfNObBxEYA4YBAHAmUlkvTV2mAvmyKcWwM9WrsPPaoerKpL9QeInphsXJ_sf_LOkd9wRCIiL-h5siLtHrTKq1DhbZCbPZpUPwBGTauXa8KYg7hD93A-cAYwei12fe435gehoJtLuo2EajIB_EDyQf55egtOFxJy-64mxZNCXqbbaUa1QueTcHlgmPzTMgOsodPpkJx7HCJsz2roUN9VhEBV-rC8V?></g></svg>