<?xml version="1.0" encoding="us-ascii" standalone="no"?><svg xmlns="http://www.w3.org/2000/svg" xmlns:xlink="http://www.w3.org/1999/xlink" contentStyleType="text/css" height="439px" preserveAspectRatio="none" style="width:2192px;height:439px;background:#FFFFFF;" version="1.1" viewBox="0 0 2192 439" width="2192px" zoomAndPan="magnify"><defs/><g><!--cluster abrirEntregables--><g id="cluster_abrirEntregables"><path d="M195.5,6 L324.5,6 A3.75,3.75 0 0 1 327,8.5 L334,29.6094 L983.5,29.6094 A2.5,2.5 0 0 1 986,32.1094 L986,429.5 A2.5,2.5 0 0 1 983.5,432 L195.5,432 A2.5,2.5 0 0 1 193,429.5 L193,8.5 A2.5,2.5 0 0 1 195.5,6 " fill="none" style="stroke:#000000;stroke-width:1.5;"/><line style="stroke:#000000;stroke-width:1.5;" x1="193" x2="334" y1="29.6094" y2="29.6094"/><text fill="#000000" font-family="sans-serif" font-size="14" font-weight="bold" lengthAdjust="spacing" textLength="128" x="197" y="22.5332">abrirEntregables()</text></g><!--entity ListarEntregablesView--><g id="elem_ListarEntregablesView"><rect fill="#629EF9" height="37.6094" rx="2.5" ry="2.5" style="stroke:#181818;stroke-width:0.5;" width="160" x="810" y="42"/><text fill="#000000" font-family="sans-serif" font-size="14" lengthAdjust="spacing" textLength="140" x="820" y="66.5332">ListarEntregablesView</text></g><!--entity EntregableController--><g id="elem_EntregableController"><rect fill="#B5BD68" height="37.6094" rx="2.5" ry="2.5" style="stroke:#181818;stroke-width:0.5;" width="151" x="545.5" y="160.5"/><text fill="#000000" font-family="sans-serif" font-size="14" lengthAdjust="spacing" textLength="131" x="555.5" y="185.0332">EntregableController</text></g><!--entity ProyectoRepository--><g id="elem_ProyectoRepository"><rect fill="#F2AC4E" height="37.6094" rx="2.5" ry="2.5" style="stroke:#181818;stroke-width:0.5;" width="144" x="209" y="279"/><text fill="#000000" font-family="sans-serif" font-size="14" lengthAdjust="spacing" textLength="124" x="219" y="303.5332">ProyectoRepository</text></g><!--entity EntregableRepository--><g id="elem_EntregableRepository"><rect fill="#F2AC4E" height="37.6094" rx="2.5" ry="2.5" style="stroke:#181818;stroke-width:0.5;" width="157" x="503.5" y="279"/><text fill="#000000" font-family="sans-serif" font-size="14" lengthAdjust="spacing" textLength="137" x="513.5" y="303.5332">EntregableRepository</text></g><!--entity Proyecto--><g id="elem_Proyecto"><rect fill="#F2AC4E" height="37.6094" rx="2.5" ry="2.5" style="stroke:#181818;stroke-width:0.5;" width="76" x="243" y="378"/><text fill="#000000" font-family="sans-serif" font-size="14" lengthAdjust="spacing" textLength="56" x="253" y="402.5332">Proyecto</text></g><!--entity Entregable--><g id="elem_Entregable"><rect fill="#F2AC4E" height="37.6094" rx="2.5" ry="2.5" style="stroke:#181818;stroke-width:0.5;" width="89" x="537.5" y="378"/><text fill="#000000" font-family="sans-serif" font-size="14" lengthAdjust="spacing" textLength="69" x="547.5" y="402.5332">Entregable</text></g><!--entity EstadoEntrada1--><g id="elem_EstadoEntrada1"><rect fill="#CDEBA5" height="37.6094" rx="2.5" ry="2.5" style="stroke:#181818;stroke-width:0.5;" width="170" x="7" y="42"/><text fill="#000000" font-family="sans-serif" font-size="14" lengthAdjust="spacing" textLength="150" x="17" y="66.5332">:PROYECTO_ABIERTO</text></g><!--entity EstadoEntrada2--><g id="elem_EstadoEntrada2"><rect fill="#CDEBA5" height="37.6094" rx="2.5" ry="2.5" style="stroke:#181818;stroke-width:0.5;" width="184" x="1171" y="42"/><text fill="#000000" font-family="sans-serif" font-size="14" lengthAdjust="spacing" textLength="164" x="1181" y="66.5332">:ENTREGABLE_ABIERTO</text></g><!--entity EstadoSalida--><g id="elem_EstadoSalida"><rect fill="#CDEBA5" height="37.6094" rx="2.5" ry="2.5" style="stroke:#181818;stroke-width:0.5;" width="202" x="1002" y="160.5"/><text fill="#000000" font-family="sans-serif" font-size="14" lengthAdjust="spacing" textLength="182" x="1012" y="185.0332">:ENTREGABLES_ABIERTOS</text></g><!--entity AbrirEntregable--><g id="elem_AbrirEntregable"><rect fill="#CDEBA5" height="37.6094" rx="2.5" ry="2.5" style="stroke:#181818;stroke-width:0.5;" width="211" x="1239.5" y="160.5"/><text fill="#000000" font-family="sans-serif" font-size="14" lengthAdjust="spacing" textLength="191" x="1249.5" y="185.0332">:Collaboration AbrirEntregable</text></g><!--entity CrearEntregable--><g id="elem_CrearEntregable"><rect fill="#CDEBA5" height="37.6094" rx="2.5" ry="2.5" style="stroke:#181818;stroke-width:0.5;" width="217" x="1485.5" y="160.5"/><text fill="#000000" font-family="sans-serif" font-size="14" lengthAdjust="spacing" textLength="197" x="1495.5" y="185.0332">:Collaboration CrearEntregable</text></g><!--entity AbrirProyecto--><g id="elem_AbrirProyecto"><rect fill="#CDEBA5" height="37.6094" rx="2.5" ry="2.5" style="stroke:#181818;stroke-width:0.5;" width="198" x="1738" y="160.5"/><text fill="#000000" font-family="sans-serif" font-size="14" lengthAdjust="spacing" textLength="178" x="1748" y="185.0332">:Collaboration AbrirProyecto</text></g><g id="elem_GMN24"><path d="M1971,158 L1971,200.7031 L2185,200.7031 L2185,168 L2175,158 L1971,158 " fill="#FEFFDD" style="stroke:#181818;stroke-width:0.5;"/><path d="M2175,158 L2175,168 L2185,168 L2175,158 " fill="#FEFFDD" style="stroke:#181818;stroke-width:1.0;"/><text fill="#000000" font-family="sans-serif" font-size="13" lengthAdjust="spacing" textLength="193" x="1977" y="176.4951">El listado siempre queda acotado</text><text fill="#000000" font-family="sans-serif" font-size="13" lengthAdjust="spacing" textLength="186" x="1977" y="192.8467">al proyecto actualmente abierto.</text></g><!--link EstadoEntrada1 to ListarEntregablesView--><g id="link_EstadoEntrada1_ListarEntregablesView"><path d="M177.02,61 C332.04,61 652.56,61 803.88,61 " fill="none" id="EstadoEntrada1-to-ListarEntregablesView" style="stroke:#181818;stroke-width:1.0;"/><polygon fill="#181818" points="809.88,61,800.88,57,804.88,61,800.88,65,809.88,61" style="stroke:#181818;stroke-width:1.0;"/><text fill="#000000" font-family="sans-serif" font-size="13" lengthAdjust="spacing" textLength="164" x="411.5" y="54.4951">abrirEntregables(idProyecto)</text></g><!--link EstadoEntrada2 to ListarEntregablesView--><g id="link_EstadoEntrada2_ListarEntregablesView"><path d="M1170.96,61 C1109.33,61 1034.99,61 976.02,61 " fill="none" id="EstadoEntrada2-to-ListarEntregablesView" style="stroke:#181818;stroke-width:1.0;"/><polygon fill="#181818" points="970.02,61,979.02,65,975.02,61,979.02,57,970.02,61" style="stroke:#181818;stroke-width:1.0;"/><text fill="#000000" font-family="sans-serif" font-size="13" lengthAdjust="spacing" textLength="164" x="988.5" y="54.4951">abrirEntregables(idProyecto)</text></g><!--link ListarEntregablesView to EntregableController--><g id="link_ListarEntregablesView_EntregableController"><path d="M809.72,73.07 C706.95,87.25 542,110 542,110 C542,110 542,128 542,128 C542,128 564.795,142.5678 587.425,157.0378 " fill="none" id="ListarEntregablesView-to-EntregableController" style="stroke:#181818;stroke-width:1.0;"/><polygon fill="#181818" points="592.48,160.27,587.0524,152.0517,588.2675,157.5765,582.7427,158.7916,592.48,160.27" style="stroke:#181818;stroke-width:1.0;"/><text fill="#000000" font-family="sans-serif" font-size="13" lengthAdjust="spacing" textLength="167" x="543" y="124.4951">listarEntregables(idProyecto)</text></g><!--link ListarEntregablesView to EntregableController--><g id="link_ListarEntregablesView_EntregableController"><path d="M838.97,80.01 C800.38,93.63 754,110 754,110 C754,110 701.0242,137.283 661.6242,157.573 " fill="none" id="ListarEntregablesView-to-EntregableController-1" style="stroke:#181818;stroke-width:1.0;"/><polygon fill="#181818" points="656.29,160.32,666.1227,159.7557,660.7352,158.0308,662.46,152.6434,656.29,160.32" style="stroke:#181818;stroke-width:1.0;"/><text fill="#000000" font-family="sans-serif" font-size="13" lengthAdjust="spacing" textLength="214" x="755" y="124.4951">filtrarEntregables(idProyecto, criterio)</text></g><!--link EntregableController to ProyectoRepository--><g id="link_EntregableController_ProyectoRepository"><path d="M545.49,191.46 C443.14,206.31 273,231 273,231 C273,231 273,249 273,249 C273,249 274.7215,259.342 276.9915,272.932 " fill="none" id="EntregableController-to-ProyectoRepository" style="stroke:#181818;stroke-width:1.0;"/><polygon fill="#181818" points="277.98,278.85,280.4426,269.314,277.1562,273.9183,272.5519,270.632,277.98,278.85" style="stroke:#181818;stroke-width:1.0;"/><text fill="#000000" font-family="sans-serif" font-size="13" lengthAdjust="spacing" textLength="143" x="274" y="245.4951">obtenerPorId(idProyecto)</text></g><!--link EntregableController to EntregableRepository--><g id="link_EntregableController_EntregableRepository"><path d="M551.43,198.52 C495.43,213.02 426,231 426,231 C426,231 426,249 426,249 C426,249 473.4653,263.6057 517.7353,277.2257 " fill="none" id="EntregableController-to-EntregableRepository" style="stroke:#181818;stroke-width:1.0;"/><polygon fill="#181818" points="523.47,278.99,516.0441,272.5203,518.6911,277.5197,513.6917,280.1667,523.47,278.99" style="stroke:#181818;stroke-width:1.0;"/><text fill="#000000" font-family="sans-serif" font-size="13" lengthAdjust="spacing" textLength="227" x="427" y="245.4951">obtenerActivosPorProyecto(idProyecto)</text></g><!--link EntregableController to EntregableRepository--><g id="link_EntregableController_EntregableRepository"><path d="M634.72,198.73 C645.6,213.2 659,231 659,231 C659,231 659,249 659,249 C659,249 638.0123,262.0869 616.2023,275.6769 " fill="none" id="EntregableController-to-EntregableRepository-1" style="stroke:#181818;stroke-width:1.0;"/><polygon fill="#181818" points="611.11,278.85,620.8638,277.4853,615.3536,276.2058,616.6331,270.6955,611.11,278.85" style="stroke:#181818;stroke-width:1.0;"/><text fill="#000000" font-family="sans-serif" font-size="13" lengthAdjust="spacing" textLength="270" x="660" y="245.4951">buscarActivosPorProyecto(idProyecto, criterio)</text></g><!--link ProyectoRepository to Proyecto--><g id="link_ProyectoRepository_Proyecto"><path d="M281,317.24 C281,334.59 281,360.52 281,377.84 " fill="none" id="ProyectoRepository-Proyecto" style="stroke:#181818;stroke-width:1.0;"/></g><!--link EntregableRepository to Entregable--><g id="link_EntregableRepository_Entregable"><path d="M582,317.24 C582,334.59 582,360.52 582,377.84 " fill="none" id="EntregableRepository-Entregable" style="stroke:#181818;stroke-width:1.0;"/></g><!--link EntregableController to GMN24--><g id="link_EntregableController_GMN24"><path d="M696.83,167.47 C808.09,149.83 1002.5,119 1002.5,119 C1002.5,119 1936.5,119 1936.5,119 C1936.5,119 1987.04,140.61 2027.71,158 " fill="none" id="EntregableController-GMN24" style="stroke:#181818;stroke-width:1.0;stroke-dasharray:7.0,7.0;"/></g><!--link ListarEntregablesView to EstadoSalida--><g id="link_ListarEntregablesView_EstadoSalida"><path d="M923.02,80.01 C947.99,93.63 978,110 978,110 C978,110 1027.5381,137.1468 1064.5681,157.4368 " fill="none" id="ListarEntregablesView-to-EstadoSalida" style="stroke:#181818;stroke-width:1.0;stroke-dasharray:7.0,7.0;"/><polygon fill="#181818" points="1069.83,160.32,1063.8593,152.4873,1065.4451,157.9174,1060.0151,159.5032,1069.83,160.32" style="stroke:#181818;stroke-width:1.0;"/><text fill="#000000" font-family="sans-serif" font-size="13" lengthAdjust="spacing" textLength="127" x="1009" y="124.4951">continuarNavegacion()</text></g><!--link ListarEntregablesView to AbrirEntregable--><g id="link_ListarEntregablesView_AbrirEntregable"><path d="M970.33,77.12 C1045.08,91.19 1145,110 1145,110 C1145,110 1227.2636,138.1761 1286.5136,158.4661 " fill="none" id="ListarEntregablesView-to-AbrirEntregable" style="stroke:#181818;stroke-width:1.0;stroke-dasharray:7.0,7.0;"/><polygon fill="#181818" points="1292.19,160.41,1284.9713,153.7099,1287.4597,158.7901,1282.3795,161.2785,1292.19,160.41" style="stroke:#181818;stroke-width:1.0;"/><text fill="#000000" font-family="sans-serif" font-size="13" lengthAdjust="spacing" textLength="95" x="1194" y="124.4951">abrirEntregable()</text></g><!--link ListarEntregablesView to CrearEntregable--><g id="link_ListarEntregablesView_CrearEntregable"><path d="M970.12,71.43 C1088.94,85.4 1298,110 1298,110 C1298,110 1422.3044,138.7674 1509.9944,159.0574 " fill="none" id="ListarEntregablesView-to-CrearEntregable" style="stroke:#181818;stroke-width:1.0;stroke-dasharray:7.0,7.0;"/><polygon fill="#181818" points="1515.84,160.41,1507.9734,154.4841,1510.9687,159.2829,1506.17,162.2782,1515.84,160.41" style="stroke:#181818;stroke-width:1.0;"/><text fill="#000000" font-family="sans-serif" font-size="13" lengthAdjust="spacing" textLength="99" x="1370" y="124.4951">crearEntregable()</text></g><!--link ListarEntregablesView to AbrirProyecto--><g id="link_ListarEntregablesView_AbrirProyecto"><path d="M970.22,68.55 C1131.12,81.68 1478,110 1478,110 C1478,110 1629.9563,138.9957 1736.3163,159.2857 " fill="none" id="ListarEntregablesView-to-AbrirProyecto" style="stroke:#181818;stroke-width:1.0;stroke-dasharray:7.0,7.0;"/><polygon fill="#181818" points="1742.21,160.41,1734.119,154.7944,1737.2986,159.4731,1732.6199,162.6527,1742.21,160.41" style="stroke:#181818;stroke-width:1.0;"/><text fill="#000000" font-family="sans-serif" font-size="13" lengthAdjust="spacing" textLength="85" x="1565" y="124.4951">abrirProyecto()</text></g><!--SRC=[fPHHQzim4CVVzIcEx2M19R2mbjKF1STJHw4q8Gc3FOspTSr45SaxAnrXxBjFRkiaTkoaR7woZ__z_hhJdOj7RNDaN8FHblms9yYTsPOVGZ1b7ktA4BnBFij9V06zQ3QVVfF9SlezdjpA-NBQ0on05XwLazOpAlpGcYVlbtFv9PxSoUxCiSWnUyGL0QQikOpI2bD3HIdjDOFzGGz-2mZFWU7b-4hUNC6T3k13yLTDlvhQz29LbvzWhqfSU7N643UbD-Cu-IXXncuRWcvEkIkqTxpj4EwPPwKLyon9_15dMhkeUhiuQEu2ZLROcfc4MZ5rZ5ux2t6zly-8HkmDb8G9cvH6xArdgJgpFyckLw8-SZ3auNNxfKT7mzJNgk8CwfpnltD4Qn8CLU2r3LWK5gwHKEDru3ff3zg44Zfmxo5ZxObrMN1B-ZFtUBOZSAadIpnpVAlgRUkYj0t-ZXDdNZ-v8k0gqlz0qqsHuMdcOU77zGNsVllQF4h1mTXQvmbOhtvuS0_jlmrfNkvLEIWqhNCc-BaXXO2PAwC23UIlbY7cDsZMP7tvnzF4teq4MGMbKSS4Z4RNjRsE80lkscwGx_4fABEmFlt1YUp6IX_DzSdanYO7zthWl7FLy5VVtQKDn5y0]--></g></svg>