<svg xmlns="http://www.w3.org/2000/svg" xmlns:xlink="http://www.w3.org/1999/xlink" contentStyleType="text/css" data-diagram-type="STATE" height="837px" preserveAspectRatio="none" style="width:952px;height:837px;background:#FFFFFF;" version="1.1" viewBox="0 0 952 837" width="952px" zoomAndPan="magnify"><?plantuml 1.2026.3?><defs/><g><g class="entity" data-qualified-name="in1" id="ent0002"><rect fill="#F1F1F1" height="50" rx="12.5" ry="12.5" style="stroke:#181818;stroke-width:0.5;" width="219.9443" x="237.5" y="7"/><line style="stroke:#181818;stroke-width:0.5;" x1="237.5" x2="457.4443" y1="34.6094" y2="34.6094"/><text fill="#000000" font-family="sans-serif" font-size="14" lengthAdjust="spacing" textLength="199.9443" x="247.5" y="26.5332">OPCIONES_PERFIL_ABIERTO</text></g><g class="entity" data-qualified-name="in2" id="ent0003"><rect fill="#F1F1F1" height="50" rx="12.5" ry="12.5" style="stroke:#181818;stroke-width:0.5;" width="223.0479" x="493" y="7"/><line style="stroke:#181818;stroke-width:0.5;" x1="493" x2="716.0479" y1="34.6094" y2="34.6094"/><text fill="#000000" font-family="sans-serif" font-size="14" lengthAdjust="spacing" textLength="203.0479" x="503" y="26.5332">INVESTIGADORES_ABIERTOS</text></g><path d="M235.5,153 L715.5,153 A12.5,12.5 0 0 1 728,165.5 L728,180.6094 L223,180.6094 L223,165.5 A12.5,12.5 0 0 1 235.5,153" fill="#F1F1F1"/><rect fill="none" height="523.6094" rx="12.5" ry="12.5" style="stroke:#181818;stroke-width:0.5;" width="505" x="223" y="153"/><line style="stroke:#181818;stroke-width:0.5;" x1="223" x2="728" y1="180.6094" y2="180.6094"/><text fill="#000000" font-family="sans-serif" font-size="14" lengthAdjust="spacing" textLength="113.5996" x="418.7002" y="172.5332">abrirInvestigador()</text><g class="entity" data-qualified-name="abrirInvestigador.MostrandoLista" id="ent0005"><rect fill="#F1F1F1" height="50" rx="12.5" ry="12.5" style="stroke:#181818;stroke-width:0.5;" width="50" x="235" y="283.6094"/><line style="stroke:#181818;stroke-width:0.5;" x1="235" x2="285" y1="311.2188" y2="311.2188"/><text fill="#000000" font-family="sans-serif" font-size="14" lengthAdjust="spacing" textLength="3.8896" x="258.0552" y="303.1426">&#160;</text></g><g class="entity" data-qualified-name="abrirInvestigador.FiltrandoLista" id="ent0006"><rect fill="#F1F1F1" height="50" rx="12.5" ry="12.5" style="stroke:#181818;stroke-width:0.5;" width="50" x="235" y="519.6094"/><line style="stroke:#181818;stroke-width:0.5;" x1="235" x2="285" y1="547.2188" y2="547.2188"/><text fill="#000000" font-family="sans-serif" font-size="14" lengthAdjust="spacing" textLength="3.8896" x="258.0552" y="539.1426">&#160;</text></g><g class="start_entity" data-qualified-name="abrirInvestigador..start.abrirInvestigador" data-source-line="22" id="ent0004"><ellipse cx="260" cy="201.6094" fill="#222222" rx="10" ry="10" style="stroke:#222222;stroke-width:1;"/></g><g class="end_entity" data-qualified-name="abrirInvestigador..end.abrirInvestigador" data-source-line="38" id="ent0007"><ellipse cx="260" cy="652.6094" fill="none" rx="11" ry="11" style="stroke:#222222;stroke-width:1;"/><ellipse cx="260" cy="652.6094" fill="#222222" rx="6" ry="6" style="stroke:#222222;stroke-width:1;"/></g><!--link *start*abrirInvestigador to MostrandoLista--><g class="link" data-entity-1="ent0004" data-entity-2="ent0005" data-link-type="dependency" data-source-line="22" id="lnk5"><path d="M260,211.9294 C260,227.7894 260,254.5194 260,277.2494" fill="none" id="*start*abrirInvestigador-to-MostrandoLista" style="stroke:#008000;stroke-width:1;"/><polygon fill="#008000" points="260,283.2494,264,274.2494,260,278.2494,256,274.2494,260,283.2494" style="stroke:#008000;stroke-width:1;"/><path d="M265,234.6094 L265,260.6094 L510,260.6094 L510,244.6094 L500,234.6094 L265,234.6094" fill="#FEFFDD" style="stroke:#181818;stroke-width:0.5;"/><path d="M500,234.6094 L500,244.6094 L510,244.6094 L500,234.6094" fill="#FEFFDD" style="stroke:#181818;stroke-width:0.5;"/><text fill="#000000" font-family="sans-serif" font-size="13" font-weight="700" lengthAdjust="spacing" textLength="77.9937" x="271" y="253.1045">Coordinador</text><text fill="#000000" font-family="sans-serif" font-size="13" lengthAdjust="spacing" textLength="143.0635" x="352.6055" y="253.1045">solicita abrir investigador</text></g><!--link MostrandoLista to FiltrandoLista--><g class="link" data-entity-1="ent0005" data-entity-2="ent0006" data-link-type="dependency" data-source-line="27" id="lnk6"><path d="M260,333.7694 C260,378.7294 260,468.7194 260,513.5794" fill="none" id="MostrandoLista-to-FiltrandoLista" style="stroke:#008000;stroke-width:1;"/><polygon fill="#008000" points="260,519.5794,264,510.5794,260,514.5794,256,510.5794,260,519.5794" style="stroke:#008000;stroke-width:1;"/><path d="M265,356.6094 L265,496.6094 L704,496.6094 L704,366.6094 L694,356.6094 L265,356.6094" fill="#FEFFDD" style="stroke:#181818;stroke-width:0.5;"/><path d="M694,356.6094 L694,366.6094 L704,366.6094 L694,356.6094" fill="#FEFFDD" style="stroke:#181818;stroke-width:0.5;"/><text fill="#000000" font-family="sans-serif" font-size="13" font-weight="700" lengthAdjust="spacing" textLength="49.8608" x="271" y="375.1045">Sistema</text><text fill="#000000" font-family="sans-serif" font-size="13" lengthAdjust="spacing" textLength="174.1606" x="324.4727" y="375.1045">presenta perfil de investigador</text><text fill="#000000" font-family="sans-serif" font-size="13" lengthAdjust="spacing" textLength="418.5835" x="271" y="391.4561">&#8226; ID, nombre, apellido, campo, carrera, master y rol de cada investigador</text><text fill="#000000" font-family="sans-serif" font-size="13" lengthAdjust="spacing" textLength="169.2793" x="271" y="407.8076">&#8226; Permite solicitar editar perfil</text><text fill="#000000" font-family="sans-serif" font-size="13" lengthAdjust="spacing" textLength="215.5283" x="271" y="424.1592">&#8226; Permite solicitar abrirInvestigadores</text><text fill="#000000" font-family="sans-serif" font-size="13" lengthAdjust="spacing" textLength="3.6118" x="271" y="440.5107">&#160;</text><text fill="#000000" font-family="sans-serif" font-size="13" lengthAdjust="spacing" textLength="3.6118" x="271" y="456.8623">&#160;</text><text fill="#000000" font-family="sans-serif" font-size="13" lengthAdjust="spacing" textLength="3.6118" x="271" y="473.2139">&#160;</text><text fill="#000000" font-family="sans-serif" font-size="13" lengthAdjust="spacing" textLength="3.6118" x="271" y="489.5654">&#160;</text></g><!--link FiltrandoLista to *end*abrirInvestigador--><g class="link" data-entity-1="ent0006" data-entity-2="ent0007" data-link-type="dependency" data-source-line="38" id="lnk8"><path d="M260,569.6594 C260,592.2594 260,618.9894 260,635.4094" fill="none" id="FiltrandoLista-to-*end*abrirInvestigador" style="stroke:#008000;stroke-width:1;"/><polygon fill="#008000" points="260,641.4094,264,632.4094,260,636.4094,256,632.4094,260,641.4094" style="stroke:#008000;stroke-width:1;"/><path d="M265,592.6094 L265,618.6094 L526,618.6094 L526,602.6094 L516,592.6094 L265,592.6094" fill="#FEFFDD" style="stroke:#181818;stroke-width:0.5;"/><path d="M516,592.6094 L516,602.6094 L526,602.6094 L516,592.6094" fill="#FEFFDD" style="stroke:#181818;stroke-width:0.5;"/><text fill="#000000" font-family="sans-serif" font-size="13" font-weight="700" lengthAdjust="spacing" textLength="77.9937" x="271" y="611.1045">Coordinador</text><text fill="#000000" font-family="sans-serif" font-size="13" lengthAdjust="spacing" textLength="158.9897" x="352.6055" y="611.1045">solicita una de las opciones</text></g><g class="entity" data-qualified-name="INVESTIGADOR_ABIERTO" id="ent0009"><rect fill="#F1F1F1" height="50" rx="12.5" ry="12.5" style="stroke:#181818;stroke-width:0.5;" width="195.0342" x="7" y="773"/><line style="stroke:#181818;stroke-width:0.5;" x1="7" x2="202.0342" y1="800.6094" y2="800.6094"/><text fill="#000000" font-family="sans-serif" font-size="14" lengthAdjust="spacing" textLength="175.0342" x="17" y="792.5332">INVESTIGADOR_ABIERTO</text></g><g class="entity" data-qualified-name="OPCIONES_PERFIL_ABIERTO" id="ent0011"><rect fill="#F1F1F1" height="50" rx="12.5" ry="12.5" style="stroke:#181818;stroke-width:0.5;" width="219.9443" x="237.5" y="773"/><line style="stroke:#181818;stroke-width:0.5;" x1="237.5" x2="457.4443" y1="800.6094" y2="800.6094"/><text fill="#000000" font-family="sans-serif" font-size="14" lengthAdjust="spacing" textLength="199.9443" x="247.5" y="792.5332">OPCIONES_PERFIL_ABIERTO</text></g><g class="entity" data-qualified-name="INVESTIGADORES_ABIERTOS" id="ent0013"><rect fill="#F1F1F1" height="50" rx="12.5" ry="12.5" style="stroke:#181818;stroke-width:0.5;" width="223.0479" x="493" y="773"/><line style="stroke:#181818;stroke-width:0.5;" x1="493" x2="716.0479" y1="800.6094" y2="800.6094"/><text fill="#000000" font-family="sans-serif" font-size="14" lengthAdjust="spacing" textLength="203.0479" x="503" y="792.5332">INVESTIGADORES_ABIERTOS</text></g><g class="entity" data-qualified-name="PROYECTOS_ABIERTOS" id="ent0015"><rect fill="#F1F1F1" height="50" rx="12.5" ry="12.5" style="stroke:#181818;stroke-width:0.5;" width="186.4824" x="751.5" y="773"/><line style="stroke:#181818;stroke-width:0.5;" x1="751.5" x2="937.9824" y1="800.6094" y2="800.6094"/><text fill="#000000" font-family="sans-serif" font-size="14" lengthAdjust="spacing" textLength="166.4824" x="761.5" y="792.5332">PROYECTOS_ABIERTOS</text></g><!--link in1 to abrirInvestigador--><g class="link" data-entity-1="ent0002" data-entity-2="ent0004" data-link-type="dependency" data-source-line="5" id="lnk2"><path d="M355.6,57.12 C362.91,78.88 372.6096,107.7223 385.7796,146.9323" fill="none" id="in1-to-abrirInvestigador" style="stroke:#008000;stroke-width:1;"/><polygon fill="#008000" points="387.69,152.62,388.6162,142.8148,386.098,147.8802,381.0326,145.362,387.69,152.62" style="stroke:#008000;stroke-width:1;"/><path d="M380.5,92 L380.5,118 L519.5,118 L519.5,102 L509.5,92 L380.5,92" fill="#FEFFDD" style="stroke:#181818;stroke-width:0.5;"/><path d="M509.5,92 L509.5,102 L519.5,102 L509.5,92" fill="#FEFFDD" style="stroke:#181818;stroke-width:0.5;"/><text fill="#000000" font-family="sans-serif" font-size="13" lengthAdjust="spacing" textLength="118.4854" x="386.5" y="110.4951">abrirInvestigador(ID)</text></g><!--link in2 to abrirInvestigador--><g class="link" data-entity-1="ent0003" data-entity-2="ent0004" data-link-type="dependency" data-source-line="11" id="lnk3"><path d="M596.33,57.12 C588.97,78.88 579.1934,107.7267 565.9234,146.9367" fill="none" id="in2-to-abrirInvestigador" style="stroke:#008000;stroke-width:1;"/><polygon fill="#008000" points="564,152.62,570.6741,145.3773,565.6029,147.8839,563.0963,142.8127,564,152.62" style="stroke:#008000;stroke-width:1;"/><path d="M590.5,92 L590.5,118 L716.5,118 L716.5,102 L706.5,92 L590.5,92" fill="#FEFFDD" style="stroke:#181818;stroke-width:0.5;"/><path d="M706.5,92 L706.5,102 L716.5,102 L706.5,92" fill="#FEFFDD" style="stroke:#181818;stroke-width:0.5;"/><text fill="#000000" font-family="sans-serif" font-size="13" lengthAdjust="spacing" textLength="105.4854" x="596.5" y="110.4951">abrirInvestigador()</text></g><!--link abrirInvestigador to INVESTIGADOR_ABIERTO--><g class="link" data-entity-1="ent0004" data-entity-2="ent0009" data-link-type="dependency" data-source-line="44" id="lnk10"><path d="M222.91,675.4 C183.9,715.46 153.6549,746.5104 132.1249,768.6304" fill="none" id="abrirInvestigador-to-INVESTIGADOR_ABIERTO" style="stroke:#008000;stroke-width:1;"/><polygon fill="#008000" points="127.94,772.93,137.0838,769.2706,131.4274,769.347,131.351,763.6907,127.94,772.93" style="stroke:#008000;stroke-width:1;"/><path d="M190.5,712 L190.5,738 L339.5,738 L339.5,722 L329.5,712 L190.5,712" fill="#FEFFDD" style="stroke:#181818;stroke-width:0.5;"/><path d="M329.5,712 L329.5,722 L339.5,722 L329.5,712" fill="#FEFFDD" style="stroke:#181818;stroke-width:0.5;"/><text fill="#000000" font-family="sans-serif" font-size="13" lengthAdjust="spacing" textLength="128.6226" x="196.5" y="730.4951">Investigador mostrado</text></g><!--link abrirInvestigador to OPCIONES_PERFIL_ABIERTO--><g class="link" data-entity-1="ent0004" data-entity-2="ent0011" data-link-type="dependency" data-source-line="49" id="lnk12"><path d="M387.74,677.23 C374.54,716.52 364.8215,745.4426 357.5015,767.2226" fill="none" id="abrirInvestigador-to-OPCIONES_PERFIL_ABIERTO" style="stroke:#008000;stroke-width:1;"/><polygon fill="#008000" points="355.59,772.91,362.2488,765.6532,357.1829,768.1705,354.6656,763.1046,355.59,772.91" style="stroke:#008000;stroke-width:1;"/><path d="M380.5,712 L380.5,738 L520.5,738 L520.5,722 L510.5,712 L380.5,712" fill="#FEFFDD" style="stroke:#181818;stroke-width:0.5;"/><path d="M510.5,712 L510.5,722 L520.5,722 L510.5,712" fill="#FEFFDD" style="stroke:#181818;stroke-width:0.5;"/><text fill="#000000" font-family="sans-serif" font-size="13" lengthAdjust="spacing" textLength="119.2026" x="386.5" y="730.4951">abrirOpcionesPerfil()</text></g><!--link abrirInvestigador to INVESTIGADORES_ABIERTOS--><g class="link" data-entity-1="ent0004" data-entity-2="ent0013" data-link-type="dependency" data-source-line="54" id="lnk14"><path d="M563.95,677.23 C577.25,716.52 587.0468,745.4466 594.4168,767.2266" fill="none" id="abrirInvestigador-to-INVESTIGADORES_ABIERTOS" style="stroke:#008000;stroke-width:1;"/><polygon fill="#008000" points="596.34,772.91,597.2442,763.1027,594.7373,768.1738,589.6663,765.667,596.34,772.91" style="stroke:#008000;stroke-width:1;"/><path d="M590.5,712 L590.5,738 L730.5,738 L730.5,722 L720.5,712 L590.5,712" fill="#FEFFDD" style="stroke:#181818;stroke-width:0.5;"/><path d="M720.5,712 L720.5,722 L730.5,722 L720.5,712" fill="#FEFFDD" style="stroke:#181818;stroke-width:0.5;"/><text fill="#000000" font-family="sans-serif" font-size="13" lengthAdjust="spacing" textLength="119.2153" x="596.5" y="730.4951">abrirInvestigadores()</text></g><!--link abrirInvestigador to PROYECTOS_ABIERTOS--><g class="link" data-entity-1="ent0004" data-entity-2="ent0015" data-link-type="dependency" data-source-line="59" id="lnk16"><path d="M728.25,676.97 C766.37,716.33 795.796,746.7098 816.936,768.5398" fill="none" id="abrirInvestigador-to-PROYECTOS_ABIERTOS" style="stroke:#008000;stroke-width:1;"/><polygon fill="#008000" points="821.11,772.85,817.7225,763.602,817.6317,769.2582,811.9756,769.1673,821.11,772.85" style="stroke:#008000;stroke-width:1;"/><path d="M795.5,712 L795.5,738 L908.5,738 L908.5,722 L898.5,712 L795.5,712" fill="#FEFFDD" style="stroke:#181818;stroke-width:0.5;"/><path d="M898.5,712 L898.5,722 L908.5,722 L898.5,712" fill="#FEFFDD" style="stroke:#181818;stroke-width:0.5;"/><text fill="#000000" font-family="sans-serif" font-size="13" lengthAdjust="spacing" textLength="92.4663" x="801.5" y="730.4951">abrirProyectos()</text></g><?plantuml-src fLFXQjim4FwlfpZIFzr86Ctl4EWITnZQs2HXK48fYdKhehPaJkuWZ46VfO-s9zb9IJQhJhE6sM1Pkhll--vEvnwrgIN92afjiDdK2BKjDtuZX6jaWw3D1KW7lIoVfDaiMTpdoVmglRw__9mcysNM4zvXi3fx84HpDnY3N9Ecr7n7r-W7gIm9Ond76i_nA3hcytJwGQ1HuDt-iWu3QphxcYoMwPVBQJPdxXtfmhCE_u-rpRaZxJW52GT2U_132E1d6zVZbprlh6j86cMlDPztxLUwRDk3m-hZNPH6Z0719qh47upMuucrfBJnSaQVrcDmjjI5veYWbilNAeGFsUVg_yMVpoksjf1NOj_IiM0hLZ9eg0aT6iQfaRxf4XHsTVnwVe5qscUiQatO1rbZMMfb-r38gWuB4PBiGoKPcM03P0DK8PKyZ9SZLPgbxMj0W2eiMnr7_3gjHUVRiYrGLBUmYMiIbOlxU7gldepqcPLyDsnTQ6kOFYBzAReNDw9jZyT-EEAB7uLMeT_Ajgx-SVmtXlx0R6Mx1F9GysYwtfz2QyB_CRxeJg38vzbjCc7GO-WvsGqMZOs1nMy0?></g></svg>