<svg xmlns="http://www.w3.org/2000/svg" xmlns:xlink="http://www.w3.org/1999/xlink" contentStyleType="text/css" data-diagram-type="DESCRIPTION" height="442px" preserveAspectRatio="none" style="width:1242px;height:442px;background:#FFFFFF;" version="1.1" viewBox="0 0 1242 442" width="1242px" zoomAndPan="magnify"><?plantuml 1.2026.4?><defs/><g><!--cluster abrirConvocatoria--><g class="cluster" data-qualified-name="abrirConvocatoria" data-source-line="4" id="ent0002"><path d="M249.5,6 L380.4102,6 A3.75,3.75 0 0 1 382.9102,8.5 L389.9102,29.6094 L740.5,29.6094 A2.5,2.5 0 0 1 743,32.1094 L743,424.5 A2.5,2.5 0 0 1 740.5,427 L249.5,427 A2.5,2.5 0 0 1 247,424.5 L247,8.5 A2.5,2.5 0 0 1 249.5,6" fill="none" style="stroke:#000000;stroke-width:1.5;"/><line style="stroke:#000000;stroke-width:1.5;" x1="247" x2="389.9102" y1="29.6094" y2="29.6094"/><text fill="#000000" font-family="sans-serif" font-size="14" font-weight="700" lengthAdjust="spacing" textLength="129.9102" x="251" y="22.5332">abrirConvocatoria()</text></g><!--entity DetalleConvocatoriaView--><g class="entity" data-qualified-name="abrirConvocatoria.DetalleConvocatoriaView" data-source-line="5" id="ent0003"><rect fill="#629EF9" height="37.6094" rx="2.5" ry="2.5" style="stroke:#181818;stroke-width:0.5;" width="176.4131" x="391" y="42"/><text fill="#000000" font-family="sans-serif" font-size="14" lengthAdjust="spacing" textLength="156.4131" x="401" y="66.5332">DetalleConvocatoriaView</text></g><!--entity ConvocatoriaController--><g class="entity" data-qualified-name="abrirConvocatoria.ConvocatoriaController" data-source-line="6" id="ent0004"><rect fill="#B5BD68" height="37.6094" rx="2.5" ry="2.5" style="stroke:#181818;stroke-width:0.5;" width="163.1787" x="307.5" y="158"/><text fill="#000000" font-family="sans-serif" font-size="14" lengthAdjust="spacing" textLength="143.1787" x="317.5" y="182.5332">ConvocatoriaController</text></g><!--entity ConvocatoriaRepository--><g class="entity" data-qualified-name="abrirConvocatoria.ConvocatoriaRepository" data-source-line="7" id="ent0005"><rect fill="#F2AC4E" height="37.6094" rx="2.5" ry="2.5" style="stroke:#181818;stroke-width:0.5;" width="169.4063" x="318.5" y="274"/><text fill="#000000" font-family="sans-serif" font-size="14" lengthAdjust="spacing" textLength="149.4063" x="328.5" y="298.5332">ConvocatoriaRepository</text></g><!--entity Convocatoria--><g class="entity" data-qualified-name="abrirConvocatoria.Convocatoria" data-source-line="8" id="ent0006"><rect fill="#F2AC4E" height="37.6094" rx="2.5" ry="2.5" style="stroke:#181818;stroke-width:0.5;" width="102.4893" x="352" y="373"/><text fill="#000000" font-family="sans-serif" font-size="14" lengthAdjust="spacing" textLength="82.4893" x="362" y="397.5332">Convocatoria</text></g><!--entity EstadoEntrada--><g class="entity" data-qualified-name="EstadoEntrada" data-source-line="3" id="ent0001"><rect fill="#CDEBA5" height="37.6094" rx="2.5" ry="2.5" style="stroke:#181818;stroke-width:0.5;" width="223.8203" x="7" y="42"/><text fill="#000000" font-family="sans-serif" font-size="14" lengthAdjust="spacing" textLength="203.8203" x="17" y="66.5332">:CONVOCATORIAS_ABIERTAS</text></g><!--entity EstadoSalida--><g class="entity" data-qualified-name="EstadoSalida" data-source-line="11" id="ent0007"><rect fill="#CDEBA5" height="37.6094" rx="2.5" ry="2.5" style="stroke:#181818;stroke-width:0.5;" width="205.1445" x="759.5" y="158"/><text fill="#000000" font-family="sans-serif" font-size="14" lengthAdjust="spacing" textLength="185.1445" x="769.5" y="182.5332">:CONVOCATORIA_ABIERTA</text></g><!--entity AbrirConvocatorias--><g class="entity" data-qualified-name="AbrirConvocatorias" data-source-line="12" id="ent0008"><rect fill="#CDEBA5" height="37.6094" rx="2.5" ry="2.5" style="stroke:#181818;stroke-width:0.5;" width="229.3232" x="999.5" y="158"/><text fill="#000000" font-family="sans-serif" font-size="14" lengthAdjust="spacing" textLength="209.3232" x="1009.5" y="182.5332">:Collaboration AbrirConvocatorias</text></g><!--link EstadoEntrada to DetalleConvocatoriaView--><g class="link" data-entity-1="ent0001" data-entity-2="ent0003" data-link-type="dependency" data-source-line="14" id="lnk9"><path d="M231.43,61 C282.8,61 337.76,61 385.8,61" fill="none" id="EstadoEntrada-to-DetalleConvocatoriaView" style="stroke:#181818;stroke-width:1;"/><polygon fill="#181818" points="390.8,61,381.8,57,385.8,61,381.8,65,390.8,61" style="stroke:#181818;stroke-width:1;stroke-linejoin:miter;stroke-miterlimit:10;"/><text fill="#000000" font-family="sans-serif" font-size="13" lengthAdjust="spacing" textLength="111.2617" x="255.5" y="54.4951">abrirConvocatoria()</text></g><!--link DetalleConvocatoriaView to ConvocatoriaController--><g class="link" data-entity-1="ent0003" data-entity-2="ent0004" data-link-type="dependency" data-source-line="16" id="lnk10"><path d="M409.96,80.01 C357.75,93.63 295,110 295,110 C295,110 295,128 295,128 C295,128 322.6071,142.0959 349.2771,155.7159" fill="none" id="DetalleConvocatoriaView-to-ConvocatoriaController" style="stroke:#181818;stroke-width:1;"/><polygon fill="#181818" points="353.73,157.99,347.534,150.3343,349.2771,155.7159,343.8955,157.4591,353.73,157.99" style="stroke:#181818;stroke-width:1;stroke-linejoin:miter;stroke-miterlimit:10;"/><text fill="#000000" font-family="sans-serif" font-size="13" lengthAdjust="spacing" textLength="139.4644" x="296" y="124.4951">obtenerConvocatoria(id)</text></g><!--link DetalleConvocatoriaView to ConvocatoriaController--><g class="link" data-entity-1="ent0003" data-entity-2="ent0004" data-link-type="dependency" data-source-line="17" id="lnk11"><path d="M468.34,80.03 C456.8,99.58 440,128 440,128 C440,128 426.3611,140.8333 411.9211,154.4233" fill="none" id="DetalleConvocatoriaView-to-ConvocatoriaController-1" style="stroke:#181818;stroke-width:1;"/><polygon fill="#181818" points="408.28,157.85,417.5753,154.5947,411.9211,154.4233,412.0925,148.769,408.28,157.85" style="stroke:#181818;stroke-width:1;stroke-linejoin:miter;stroke-miterlimit:10;"/><text fill="#000000" font-family="sans-serif" font-size="13" lengthAdjust="spacing" textLength="246.4033" x="451" y="124.4951">prepararAccionesDisponibles(coordinador)</text></g><!--link ConvocatoriaController to ConvocatoriaRepository--><g class="link" data-entity-1="ent0004" data-entity-2="ent0005" data-link-type="dependency" data-source-line="18" id="lnk12"><path d="M362.91,196.15 C343.37,209.74 320,226 320,226 C320,226 320,244 320,244 C320,244 343.7917,257.7569 367.2917,271.3469" fill="none" id="ConvocatoriaController-to-ConvocatoriaRepository" style="stroke:#181818;stroke-width:1;"/><polygon fill="#181818" points="371.62,273.85,365.8314,265.8818,367.2917,271.3469,361.8265,272.8071,371.62,273.85" style="stroke:#181818;stroke-width:1;stroke-linejoin:miter;stroke-miterlimit:10;"/><text fill="#000000" font-family="sans-serif" font-size="13" lengthAdjust="spacing" textLength="93.939" x="321" y="240.4951">obtenerPorId(id)</text></g><!--link ConvocatoriaController to ConvocatoriaRepository--><g class="link" data-entity-1="ent0004" data-entity-2="ent0005" data-link-type="dependency" data-source-line="19" id="lnk13"><path d="M400.34,196.15 C408.84,209.74 419,226 419,226 C419,226 419,244 419,244 C419,244 415.1611,255.5166 410.6311,269.1066" fill="none" id="ConvocatoriaController-to-ConvocatoriaRepository-1" style="stroke:#181818;stroke-width:1;"/><polygon fill="#181818" points="409.05,273.85,415.6908,266.5768,410.6311,269.1066,408.1013,264.0469,409.05,273.85" style="stroke:#181818;stroke-width:1;stroke-linejoin:miter;stroke-miterlimit:10;"/><text fill="#000000" font-family="sans-serif" font-size="13" lengthAdjust="spacing" textLength="137.2427" x="420" y="240.4951">verificarPermisos(actor)</text></g><!--link ConvocatoriaRepository to Convocatoria--><g class="link" data-entity-1="ent0005" data-entity-2="ent0006" data-link-type="association" data-source-line="20" id="lnk14"><path d="M403,312.24 C403,329.59 403,355.52 403,372.84" fill="none" id="ConvocatoriaRepository-Convocatoria" style="stroke:#181818;stroke-width:1;"/></g><!--link DetalleConvocatoriaView to EstadoSalida--><g class="link" data-entity-1="ent0003" data-entity-2="ent0007" data-link-type="dependency" data-source-line="21" id="lnk15"><path d="M564.17,80.01 C628.58,93.63 706,110 706,110 C706,110 768.5755,136.4711 814.7655,156.0211" fill="none" id="DetalleConvocatoriaView-to-EstadoSalida" style="stroke:#181818;stroke-width:1;stroke-dasharray:7,7;"/><polygon fill="#181818" points="819.37,157.97,812.6409,150.7784,814.7655,156.0211,809.5227,158.1456,819.37,157.97" style="stroke:#181818;stroke-width:1;stroke-linejoin:miter;stroke-miterlimit:10;"/><text fill="#000000" font-family="sans-serif" font-size="13" lengthAdjust="spacing" textLength="130.7935" x="748" y="124.4951">continuarNavegacion()</text></g><!--link DetalleConvocatoriaView to AbrirConvocatorias--><g class="link" data-entity-1="ent0003" data-entity-2="ent0008" data-link-type="dependency" data-source-line="22" id="lnk16"><path d="M567.03,72.36 C686.97,86.47 887,110 887,110 C887,110 979.959,137.0235 1047.169,156.5735" fill="none" id="DetalleConvocatoriaView-to-AbrirConvocatorias" style="stroke:#181818;stroke-width:1;stroke-dasharray:7,7;"/><polygon fill="#181818" points="1051.97,157.97,1044.4454,151.6155,1047.169,156.5735,1042.211,159.2971,1051.97,157.97" style="stroke:#181818;stroke-width:1;stroke-linejoin:miter;stroke-miterlimit:10;"/><text fill="#000000" font-family="sans-serif" font-size="13" lengthAdjust="spacing" textLength="117.7617" x="948" y="124.4951">abrirConvocatorias()</text></g><?plantuml-src dPAnRi8m48PtFyKfNSW00ogeC22542GMG81OgujpHHR1Ziuk5QhwxZL8RGb9QDLCZlNVv_Fditkb2sGyGAuqkLD1K9ZyTFuHWaawrBkSu26U9EEe1y4mNiotYpZQB5QpQFqSZMV9QXEj0q0BYNMOcKGxnWn5WNAFEm9CMN5izD58T8OLdgD1PRSL1l0km7zNf_QxWsGwW0avp7EwZcyLlTscqrwQzP_WEkRNZeslvTlmj1l5ZqaflAB2MEMNfp-4nSVlVhxqNDbPOwwydDfAtoUcXj4feo6w5MGlbEgs42NlqERsgCdO46gy2z6GXdRcKVKwXs1IHvhAB9M5pR0xh8BfF8GSIUdlJdQYR66qIdEoBMaCPqhx6t8ewW4LzizBVlUvD3pBBWt-Wt4aLYzA8Y-93yeQsqBfRllvAV2iygmqEUbqHgMv68Bq3IdzYZp78-tmhACLtgslJaJDAriF-GG0?></g></svg>