<svg xmlns="http://www.w3.org/2000/svg" xmlns:xlink="http://www.w3.org/1999/xlink" contentStyleType="text/css" data-diagram-type="DESCRIPTION" height="558px" preserveAspectRatio="none" style="width:1653px;height:558px;background:#FFFFFF;" version="1.1" viewBox="0 0 1653 558" width="1653px" zoomAndPan="magnify"><?plantuml 1.2026.6?><defs/><g><!--cluster abrirOpcionesCargaTrabajo--><g class="cluster" data-qualified-name="abrirOpcionesCargaTrabajo" data-source-line="4" id="ent0002"><path d="M247,6 L442.4893,6 A3.75,3.75 0 0 1 444.9893,8.5 L451.9893,29.6094 L783,29.6094 A2.5,2.5 0 0 1 785.5,32.1094 L785.5,540.5 A2.5,2.5 0 0 1 783,543 L247,543 A2.5,2.5 0 0 1 244.5,540.5 L244.5,8.5 A2.5,2.5 0 0 1 247,6" fill="none" style="stroke:#000000;stroke-width:1.5;"/><line style="stroke:#000000;stroke-width:1.5;" x1="244.5" x2="451.9893" y1="29.6094" y2="29.6094"/><text fill="#000000" font-family="sans-serif" font-size="14" font-weight="700" lengthAdjust="spacing" textLength="194.4893" x="248.5" y="22.5332">abrirOpcionesCargaTrabajo()</text></g><!--entity CargaTrabajoPropiaView--><g class="entity" data-qualified-name="abrirOpcionesCargaTrabajo.CargaTrabajoPropiaView" data-source-line="5" id="ent0003"><rect fill="#629EF9" height="37.6094" rx="2.5" ry="2.5" style="stroke:#181818;stroke-width:0.5;" width="176.4131" x="524.5" y="42"/><text fill="#000000" font-family="sans-serif" font-size="14" lengthAdjust="spacing" textLength="156.4131" x="534.5" y="66.5332">CargaTrabajoPropiaView</text></g><!--entity CargaTrabajoController--><g class="entity" data-qualified-name="abrirOpcionesCargaTrabajo.CargaTrabajoController" data-source-line="6" id="ent0004"><rect fill="#B5BD68" height="37.6094" rx="2.5" ry="2.5" style="stroke:#181818;stroke-width:0.5;" width="166.2891" x="360.5" y="158"/><text fill="#000000" font-family="sans-serif" font-size="14" lengthAdjust="spacing" textLength="146.2891" x="370.5" y="182.5332">CargaTrabajoController</text></g><!--entity CargaTrabajoService--><g class="entity" data-qualified-name="abrirOpcionesCargaTrabajo.CargaTrabajoService" data-source-line="7" id="ent0005"><rect fill="#B5BD68" height="37.6094" rx="2.5" ry="2.5" style="stroke:#181818;stroke-width:0.5;" width="152.2822" x="288.5" y="274"/><text fill="#000000" font-family="sans-serif" font-size="14" lengthAdjust="spacing" textLength="132.2822" x="298.5" y="298.5332">CargaTrabajoService</text></g><!--entity SesionService--><g class="entity" data-qualified-name="abrirOpcionesCargaTrabajo.SesionService" data-source-line="8" id="ent0006"><rect fill="#B5BD68" height="37.6094" rx="2.5" ry="2.5" style="stroke:#181818;stroke-width:0.5;" width="109.4893" x="504" y="274"/><text fill="#000000" font-family="sans-serif" font-size="14" lengthAdjust="spacing" textLength="89.4893" x="514" y="298.5332">SesionService</text></g><!--entity CargaTrabajoRepository--><g class="entity" data-qualified-name="abrirOpcionesCargaTrabajo.CargaTrabajoRepository" data-source-line="9" id="ent0007"><rect fill="#F2AC4E" height="37.6094" rx="2.5" ry="2.5" style="stroke:#181818;stroke-width:0.5;" width="172.5166" x="311" y="390"/><text fill="#000000" font-family="sans-serif" font-size="14" lengthAdjust="spacing" textLength="152.5166" x="321" y="414.5332">CargaTrabajoRepository</text></g><!--entity CargaTrabajo--><g class="entity" data-qualified-name="abrirOpcionesCargaTrabajo.CargaTrabajo" data-source-line="10" id="ent0008"><rect fill="#F2AC4E" height="37.6094" rx="2.5" ry="2.5" style="stroke:#181818;stroke-width:0.5;" width="105.5996" x="423.5" y="489"/><text fill="#000000" font-family="sans-serif" font-size="14" lengthAdjust="spacing" textLength="85.5996" x="433.5" y="513.5332">CargaTrabajo</text></g><!--entity EstadoEntrada--><g class="entity" data-qualified-name="EstadoEntrada" data-source-line="3" id="ent0001"><rect fill="#CDEBA5" height="37.6094" rx="2.5" ry="2.5" style="stroke:#181818;stroke-width:0.5;" width="220.7373" x="7" y="42"/><text fill="#000000" font-family="sans-serif" font-size="14" lengthAdjust="spacing" textLength="200.7373" x="17" y="66.5332">:PANEL_PRINCIPAL_ABIERTO</text></g><!--entity EstadoSalida--><g class="entity" data-qualified-name="EstadoSalida" data-source-line="13" id="ent0009"><rect fill="#CDEBA5" height="37.6094" rx="2.5" ry="2.5" style="stroke:#181818;stroke-width:0.5;" width="304.7441" x="802" y="158"/><text fill="#000000" font-family="sans-serif" font-size="14" lengthAdjust="spacing" textLength="284.7441" x="812" y="182.5332">:OPCIONES_CARGA_TRABAJO_ABIERTAS</text></g><!--entity EditarCargaTrabajo--><g class="entity" data-qualified-name="EditarCargaTrabajo" data-source-line="14" id="ent0010"><rect fill="#CDEBA5" height="37.6094" rx="2.5" ry="2.5" style="stroke:#181818;stroke-width:0.5;" width="232.4473" x="1142.5" y="158"/><text fill="#000000" font-family="sans-serif" font-size="14" lengthAdjust="spacing" textLength="212.4473" x="1152.5" y="182.5332">:Collaboration EditarCargaTrabajo</text></g><!--entity AbrirPanelPrincipal--><g class="entity" data-qualified-name="AbrirPanelPrincipal" data-source-line="15" id="ent0011"><rect fill="#CDEBA5" height="37.6094" rx="2.5" ry="2.5" style="stroke:#181818;stroke-width:0.5;" width="229.3301" x="1410" y="158"/><text fill="#000000" font-family="sans-serif" font-size="14" lengthAdjust="spacing" textLength="209.3301" x="1420" y="182.5332">:Collaboration AbrirPanelPrincipal</text></g><!--link EstadoEntrada to CargaTrabajoPropiaView--><g class="link" data-entity-1="ent0001" data-entity-2="ent0003" data-link-type="dependency" data-source-line="17" id="lnk12"><path d="M228.28,61 C317.62,61 436.61,61 519.31,61" fill="none" id="EstadoEntrada-to-CargaTrabajoPropiaView" style="stroke:#181818;stroke-width:1;"/><polygon fill="#181818" points="524.31,61,515.31,57,519.31,61,515.31,65,524.31,61" style="stroke:#181818;stroke-width:1;stroke-linejoin:miter;stroke-miterlimit:10;"/><text fill="#000000" font-family="sans-serif" font-size="13" lengthAdjust="spacing" textLength="169.0698" x="291.75" y="54.4951">abrirOpcionesCargaTrabajo()</text></g><!--link CargaTrabajoPropiaView to CargaTrabajoController--><g class="link" data-entity-1="ent0003" data-entity-2="ent0004" data-link-type="dependency" data-source-line="19" id="lnk13"><path d="M524.37,75.69 C433.03,89.88 303.5,110 303.5,110 C303.5,110 303.5,128 303.5,128 C303.5,128 346.5203,142.7482 386.2403,156.3682" fill="none" id="CargaTrabajoPropiaView-to-CargaTrabajoController" style="stroke:#181818;stroke-width:1;"/><polygon fill="#181818" points="390.97,157.99,383.754,151.287,386.2403,156.3682,381.1592,158.8545,390.97,157.99" style="stroke:#181818;stroke-width:1;stroke-linejoin:miter;stroke-miterlimit:10;"/><text fill="#000000" font-family="sans-serif" font-size="13" lengthAdjust="spacing" textLength="195.8315" x="304.5" y="124.4951">obtenerCargaPropia(investigador)</text></g><!--link CargaTrabajoPropiaView to CargaTrabajoController--><g class="link" data-entity-1="ent0003" data-entity-2="ent0004" data-link-type="dependency" data-source-line="22" id="lnk16"><path d="M585.72,80.06 C554.17,101.35 506.1951,133.7039 474.5751,155.0339" fill="none" id="CargaTrabajoPropiaView-to-CargaTrabajoController-1" style="stroke:#181818;stroke-width:1;"/><polygon fill="#181818" points="470.43,157.83,480.128,156.113,474.5751,155.0339,475.6542,149.4809,470.43,157.83" style="stroke:#181818;stroke-width:1;stroke-linejoin:miter;stroke-miterlimit:10;"/><text fill="#000000" font-family="sans-serif" font-size="13" lengthAdjust="spacing" textLength="224.7197" x="538.5" y="124.4951">prepararAccionesPropias(investigador)</text></g><!--link CargaTrabajoController to CargaTrabajoService--><g class="link" data-entity-1="ent0004" data-entity-2="ent0005" data-link-type="dependency" data-source-line="20" id="lnk14"><path d="M396.6,196.01 C361.13,209.63 318.5,226 318.5,226 C318.5,226 318.5,244 318.5,244 C318.5,244 330.6196,256.6509 343.6496,270.2409" fill="none" id="CargaTrabajoController-to-CargaTrabajoService" style="stroke:#181818;stroke-width:1;"/><polygon fill="#181818" points="347.11,273.85,343.7686,264.5853,343.6496,270.2409,337.994,270.1219,347.11,273.85" style="stroke:#181818;stroke-width:1;stroke-linejoin:miter;stroke-miterlimit:10;"/><text fill="#000000" font-family="sans-serif" font-size="13" lengthAdjust="spacing" textLength="195.8315" x="319.5" y="240.4951">obtenerCargaPropia(investigador)</text></g><!--link CargaTrabajoController to SesionService--><g class="link" data-entity-1="ent0004" data-entity-2="ent0006" data-link-type="dependency" data-source-line="21" id="lnk15"><path d="M472.23,196.15 C493.75,209.74 519.5,226 519.5,226 C519.5,226 533.7584,250.1142 545.2984,269.6642" fill="none" id="CargaTrabajoController-to-SesionService" style="stroke:#181818;stroke-width:1;"/><polygon fill="#181818" points="547.84,273.97,546.7097,264.1862,545.2984,269.6642,539.8204,268.2528,547.84,273.97" style="stroke:#181818;stroke-width:1;stroke-linejoin:miter;stroke-miterlimit:10;"/><text fill="#000000" font-family="sans-serif" font-size="13" lengthAdjust="spacing" textLength="209.5806" x="530.5" y="240.4951">obtenerSesionActual(authentication)</text></g><!--link CargaTrabajoService to CargaTrabajoRepository--><g class="link" data-entity-1="ent0005" data-entity-2="ent0007" data-link-type="dependency" data-source-line="23" id="lnk17"><path d="M337.28,312.15 C316.89,325.74 292.5,342 292.5,342 C292.5,342 292.5,360 292.5,360 C292.5,360 323.7627,374.291 353.5527,387.911" fill="none" id="CargaTrabajoService-to-CargaTrabajoRepository" style="stroke:#181818;stroke-width:1;"/><polygon fill="#181818" points="358.1,389.99,351.5781,382.61,353.5527,387.911,348.2517,389.8856,358.1,389.99" style="stroke:#181818;stroke-width:1;stroke-linejoin:miter;stroke-miterlimit:10;"/><text fill="#000000" font-family="sans-serif" font-size="13" lengthAdjust="spacing" textLength="187.8716" x="293.5" y="356.4951">obtenerPorUsuario(investigador)</text></g><!--link CargaTrabajoService to CargaTrabajoRepository--><g class="link" data-entity-1="ent0005" data-entity-2="ent0007" data-link-type="dependency" data-source-line="24" id="lnk18"><path d="M409.9,312.01 C444.23,325.63 485.5,342 485.5,342 C485.5,342 485.5,360 485.5,360 C485.5,360 459.8795,373.9757 434.9095,387.5957" fill="none" id="CargaTrabajoService-to-CargaTrabajoRepository-1" style="stroke:#181818;stroke-width:1;"/><polygon fill="#181818" points="430.52,389.99,440.3365,389.1919,434.9095,387.5957,436.5057,382.1687,430.52,389.99" style="stroke:#181818;stroke-width:1;stroke-linejoin:miter;stroke-miterlimit:10;"/><text fill="#000000" font-family="sans-serif" font-size="13" lengthAdjust="spacing" textLength="236.9961" x="486.5" y="356.4951">calcularResumenPersonal(cargaTrabajo)</text></g><!--link CargaTrabajoService to CargaTrabajo--><g class="link" data-entity-1="ent0005" data-entity-2="ent0008" data-link-type="dependency" data-source-line="25" id="lnk19"><path d="M440.72,305.25 C465.39,308.88 486.5,312 486.5,312 C486.5,312 731.5,342 731.5,342 C731.5,342 731.5,360 731.5,360 C731.5,360 580.1918,447.2229 512.1018,486.4729" fill="none" id="CargaTrabajoService-to-CargaTrabajo" style="stroke:#181818;stroke-width:1;"/><polygon fill="#181818" points="507.77,488.97,517.5649,487.9408,512.1018,486.4729,513.5696,481.0098,507.77,488.97" style="stroke:#181818;stroke-width:1;stroke-linejoin:miter;stroke-miterlimit:10;"/><text fill="#000000" font-family="sans-serif" font-size="13" lengthAdjust="spacing" textLength="213.1479" x="678.5" y="414.4951">calcularMargenDocente(maximo16h)</text></g><!--link CargaTrabajoRepository to CargaTrabajo--><g class="link" data-entity-1="ent0007" data-entity-2="ent0008" data-link-type="association" data-source-line="26" id="lnk20"><path d="M412.36,428.24 C426.48,445.59 447.61,471.52 461.71,488.84" fill="none" id="CargaTrabajoRepository-CargaTrabajo" style="stroke:#181818;stroke-width:1;"/></g><!--link CargaTrabajoPropiaView to EstadoSalida--><g class="link" data-entity-1="ent0003" data-entity-2="ent0009" data-link-type="dependency" data-source-line="27" id="lnk21"><path d="M672.16,80.01 C717.27,93.63 771.5,110 771.5,110 C771.5,110 845.6068,136.7229 899.7868,156.2729" fill="none" id="CargaTrabajoPropiaView-to-EstadoSalida" style="stroke:#181818;stroke-width:1;stroke-dasharray:7,7;"/><polygon fill="#181818" points="904.49,157.97,897.3819,151.1527,899.7868,156.2729,894.6666,158.6778,904.49,157.97" style="stroke:#181818;stroke-width:1;stroke-linejoin:miter;stroke-miterlimit:10;"/><text fill="#000000" font-family="sans-serif" font-size="13" lengthAdjust="spacing" textLength="187.8716" x="821.5" y="124.4951">opcionesCargaTrabajoAbiertas()</text></g><!--link CargaTrabajoPropiaView to EditarCargaTrabajo--><g class="link" data-entity-1="ent0003" data-entity-2="ent0010" data-link-type="dependency" data-source-line="28" id="lnk22"><path d="M700.63,72.44 C819.77,86.57 1017.5,110 1017.5,110 C1017.5,110 1116.4677,137.0989 1187.8277,156.6489" fill="none" id="CargaTrabajoPropiaView-to-EditarCargaTrabajo" style="stroke:#181818;stroke-width:1;stroke-dasharray:7,7;"/><polygon fill="#181818" points="1192.65,157.97,1185.0268,151.7341,1187.8277,156.6489,1182.9129,159.4498,1192.65,157.97" style="stroke:#181818;stroke-width:1;stroke-linejoin:miter;stroke-miterlimit:10;"/><text fill="#000000" font-family="sans-serif" font-size="13" lengthAdjust="spacing" textLength="120.6626" x="1082.5" y="124.4951">editarCargaTrabajo()</text></g><!--link CargaTrabajoPropiaView to AbrirPanelPrincipal--><g class="link" data-entity-1="ent0003" data-entity-2="ent0011" data-link-type="dependency" data-source-line="29" id="lnk23"><path d="M700.56,69.06 C867.06,82.4 1211.5,110 1211.5,110 C1211.5,110 1341.4077,137.3879 1434.0777,156.9379" fill="none" id="CargaTrabajoPropiaView-to-AbrirPanelPrincipal" style="stroke:#181818;stroke-width:1;stroke-dasharray:7,7;"/><polygon fill="#181818" points="1438.97,157.97,1430.9895,152.1984,1434.0777,156.9379,1429.3381,160.0261,1438.97,157.97" style="stroke:#181818;stroke-width:1;stroke-linejoin:miter;stroke-miterlimit:10;"/><text fill="#000000" font-family="sans-serif" font-size="13" lengthAdjust="spacing" textLength="117.7681" x="1295.5" y="124.4951">abrirPanelPrincipal()</text></g><?plantuml-src fPF1Rjf048RlVeeLlS21I8qQr728j3XEHPLYooQzel5wHBPPTgtP9Isg-kvTOXHii2sa-ERnpET__fcnBrANGB1XIcfqkn9PQTHk_n84XCA1NYjadyBxQCPls62Qy4Nqk4hI-IAS9_nnnMVpA5t60mQMHTP1OIBj20e8IX0li4O6EKcAIo6DHXi2hM59aCClioyPT7uTZWRiRy3yKvCnkRwD7cvPFIyXKqhuAV7tQN9-anUJhutaq7XnHYca2v8pf5Sfi2CpG-irT-GyNFFmIzIWfLWQAvsXtGN9mRzsz-CadCUBA5k5FFt6LykKp_Zt-304djMca86IVWXjaD0R0BaXSBu15XNI0TL_Nb7EmXUm-7wO2MXK2KajP0dg3TOI3uB6jh0nZUywvZfbFKiI1Er5R5oS08-pdpAJEzHOjLVL3AL-HUlasckYKT1UoCOdpCFuFmPiRD8xgefouRQWXh1rpwYT56y-Zpfxxccv9DmVEd5HsLYLsHwP1qLdrECclujD33tPBP0q7-G9K6AhW5Aqsmtg1CaQxGqGjVpBg4VM3nz5VM-4Tn276_WZD-RpvBc9EOhmfEOjTfXzTNNNk3LlHik6ybmYEU_pg9TpTcrJXcUnVaRBaHqkfndqbFy0?></g></svg>