<svg xmlns="http://www.w3.org/2000/svg" xmlns:xlink="http://www.w3.org/1999/xlink" contentStyleType="text/css" data-diagram-type="DESCRIPTION" height="442px" preserveAspectRatio="none" style="width:1653px;height:442px;background:#FFFFFF;" version="1.1" viewBox="0 0 1653 442" width="1653px" zoomAndPan="magnify"><?plantuml 1.2026.5?><defs/><g><!--cluster abrirOpcionesCargaTrabajo--><g class="cluster" data-qualified-name="abrirOpcionesCargaTrabajo" data-source-line="4" id="ent0002"><path d="M247,6 L442.4893,6 A3.75,3.75 0 0 1 444.9893,8.5 L451.9893,29.6094 L783,29.6094 A2.5,2.5 0 0 1 785.5,32.1094 L785.5,424.5 A2.5,2.5 0 0 1 783,427 L247,427 A2.5,2.5 0 0 1 244.5,424.5 L244.5,8.5 A2.5,2.5 0 0 1 247,6" fill="none" style="stroke:#000000;stroke-width:1.5;"/><line style="stroke:#000000;stroke-width:1.5;" x1="244.5" x2="451.9893" y1="29.6094" y2="29.6094"/><text fill="#000000" font-family="sans-serif" font-size="14" font-weight="700" lengthAdjust="spacing" textLength="194.4893" x="248.5" y="22.5332">abrirOpcionesCargaTrabajo()</text></g><!--entity CargaTrabajoPropiaView--><g class="entity" data-qualified-name="abrirOpcionesCargaTrabajo.CargaTrabajoPropiaView" data-source-line="5" id="ent0003"><rect fill="#629EF9" height="37.6094" rx="2.5" ry="2.5" style="stroke:#181818;stroke-width:0.5;" width="176.4131" x="524.5" y="42"/><text fill="#000000" font-family="sans-serif" font-size="14" lengthAdjust="spacing" textLength="156.4131" x="534.5" y="66.5332">CargaTrabajoPropiaView</text></g><!--entity CargaTrabajoController--><g class="entity" data-qualified-name="abrirOpcionesCargaTrabajo.CargaTrabajoController" data-source-line="6" id="ent0004"><rect fill="#B5BD68" height="37.6094" rx="2.5" ry="2.5" style="stroke:#181818;stroke-width:0.5;" width="166.2891" x="441.5" y="158"/><text fill="#000000" font-family="sans-serif" font-size="14" lengthAdjust="spacing" textLength="146.2891" x="451.5" y="182.5332">CargaTrabajoController</text></g><!--entity CargaTrabajoRepository--><g class="entity" data-qualified-name="abrirOpcionesCargaTrabajo.CargaTrabajoRepository" data-source-line="7" id="ent0005"><rect fill="#F2AC4E" height="37.6094" rx="2.5" ry="2.5" style="stroke:#181818;stroke-width:0.5;" width="172.5166" x="311" y="274"/><text fill="#000000" font-family="sans-serif" font-size="14" lengthAdjust="spacing" textLength="152.5166" x="321" y="298.5332">CargaTrabajoRepository</text></g><!--entity CargaTrabajo--><g class="entity" data-qualified-name="abrirOpcionesCargaTrabajo.CargaTrabajo" data-source-line="8" id="ent0006"><rect fill="#F2AC4E" height="37.6094" rx="2.5" ry="2.5" style="stroke:#181818;stroke-width:0.5;" width="105.5996" x="423.5" y="373"/><text fill="#000000" font-family="sans-serif" font-size="14" lengthAdjust="spacing" textLength="85.5996" x="433.5" y="397.5332">CargaTrabajo</text></g><!--entity EstadoEntrada--><g class="entity" data-qualified-name="EstadoEntrada" data-source-line="3" id="ent0001"><rect fill="#CDEBA5" height="37.6094" rx="2.5" ry="2.5" style="stroke:#181818;stroke-width:0.5;" width="220.7373" x="7" y="42"/><text fill="#000000" font-family="sans-serif" font-size="14" lengthAdjust="spacing" textLength="200.7373" x="17" y="66.5332">:PANEL_PRINCIPAL_ABIERTO</text></g><!--entity EstadoSalida--><g class="entity" data-qualified-name="EstadoSalida" data-source-line="11" id="ent0007"><rect fill="#CDEBA5" height="37.6094" rx="2.5" ry="2.5" style="stroke:#181818;stroke-width:0.5;" width="304.7441" x="802" y="158"/><text fill="#000000" font-family="sans-serif" font-size="14" lengthAdjust="spacing" textLength="284.7441" x="812" y="182.5332">:OPCIONES_CARGA_TRABAJO_ABIERTAS</text></g><!--entity EditarCargaTrabajo--><g class="entity" data-qualified-name="EditarCargaTrabajo" data-source-line="12" id="ent0008"><rect fill="#CDEBA5" height="37.6094" rx="2.5" ry="2.5" style="stroke:#181818;stroke-width:0.5;" width="232.4473" x="1142.5" y="158"/><text fill="#000000" font-family="sans-serif" font-size="14" lengthAdjust="spacing" textLength="212.4473" x="1152.5" y="182.5332">:Collaboration EditarCargaTrabajo</text></g><!--entity AbrirPanelPrincipal--><g class="entity" data-qualified-name="AbrirPanelPrincipal" data-source-line="13" id="ent0009"><rect fill="#CDEBA5" height="37.6094" rx="2.5" ry="2.5" style="stroke:#181818;stroke-width:0.5;" width="229.3301" x="1410" y="158"/><text fill="#000000" font-family="sans-serif" font-size="14" lengthAdjust="spacing" textLength="209.3301" x="1420" y="182.5332">:Collaboration AbrirPanelPrincipal</text></g><!--link EstadoEntrada to CargaTrabajoPropiaView--><g class="link" data-entity-1="ent0001" data-entity-2="ent0003" data-link-type="dependency" data-source-line="15" id="lnk10"><path d="M228.28,61 C317.62,61 436.61,61 519.31,61" fill="none" id="EstadoEntrada-to-CargaTrabajoPropiaView" style="stroke:#181818;stroke-width:1;"/><polygon fill="#181818" points="524.31,61,515.31,57,519.31,61,515.31,65,524.31,61" style="stroke:#181818;stroke-width:1;stroke-linejoin:miter;stroke-miterlimit:10;"/><text fill="#000000" font-family="sans-serif" font-size="13" lengthAdjust="spacing" textLength="169.0698" x="291.75" y="54.4951">abrirOpcionesCargaTrabajo()</text></g><!--link CargaTrabajoPropiaView to CargaTrabajoController--><g class="link" data-entity-1="ent0003" data-entity-2="ent0004" data-link-type="dependency" data-source-line="17" id="lnk11"><path d="M524.37,75.69 C433.03,89.88 303.5,110 303.5,110 C303.5,110 303.5,128 303.5,128 C303.5,128 373.9839,143.3088 436.6939,156.9288" fill="none" id="CargaTrabajoPropiaView-to-CargaTrabajoController" style="stroke:#181818;stroke-width:1;"/><polygon fill="#181818" points="441.58,157.99,433.634,152.171,436.6939,156.9288,431.9361,159.9887,441.58,157.99" style="stroke:#181818;stroke-width:1;stroke-linejoin:miter;stroke-miterlimit:10;"/><text fill="#000000" font-family="sans-serif" font-size="13" lengthAdjust="spacing" textLength="195.8315" x="304.5" y="124.4951">obtenerCargaPropia(investigador)</text></g><!--link CargaTrabajoPropiaView to CargaTrabajoController--><g class="link" data-entity-1="ent0003" data-entity-2="ent0004" data-link-type="dependency" data-source-line="18" id="lnk12"><path d="M598.56,80.06 C582.18,101.28 558.2061,132.3427 541.7261,153.6827" fill="none" id="CargaTrabajoPropiaView-to-CargaTrabajoController-1" style="stroke:#181818;stroke-width:1;"/><polygon fill="#181818" points="538.67,157.64,547.3368,152.9617,541.7261,153.6827,541.0051,148.072,538.67,157.64" style="stroke:#181818;stroke-width:1;stroke-linejoin:miter;stroke-miterlimit:10;"/><text fill="#000000" font-family="sans-serif" font-size="13" lengthAdjust="spacing" textLength="224.7197" x="574.5" y="124.4951">prepararAccionesPropias(investigador)</text></g><!--link CargaTrabajoController to CargaTrabajoRepository--><g class="link" data-entity-1="ent0004" data-entity-2="ent0005" data-link-type="dependency" data-source-line="19" id="lnk13"><path d="M441.4,195.19 C374.83,208.97 292.5,226 292.5,226 C292.5,226 292.5,244 292.5,244 C292.5,244 323.7627,258.291 353.5527,271.911" fill="none" id="CargaTrabajoController-to-CargaTrabajoRepository" style="stroke:#181818;stroke-width:1;"/><polygon fill="#181818" points="358.1,273.99,351.5781,266.61,353.5527,271.911,348.2517,273.8856,358.1,273.99" style="stroke:#181818;stroke-width:1;stroke-linejoin:miter;stroke-miterlimit:10;"/><text fill="#000000" font-family="sans-serif" font-size="13" lengthAdjust="spacing" textLength="187.8716" x="293.5" y="240.4951">obtenerPorUsuario(investigador)</text></g><!--link CargaTrabajoController to CargaTrabajoRepository--><g class="link" data-entity-1="ent0004" data-entity-2="ent0005" data-link-type="dependency" data-source-line="20" id="lnk14"><path d="M513.84,196.03 C502.3,215.58 485.5,244 485.5,244 C485.5,244 459.8795,257.9757 434.9095,271.5957" fill="none" id="CargaTrabajoController-to-CargaTrabajoRepository-1" style="stroke:#181818;stroke-width:1;"/><polygon fill="#181818" points="430.52,273.99,440.3365,273.1919,434.9095,271.5957,436.5057,266.1687,430.52,273.99" style="stroke:#181818;stroke-width:1;stroke-linejoin:miter;stroke-miterlimit:10;"/><text fill="#000000" font-family="sans-serif" font-size="13" lengthAdjust="spacing" textLength="236.9961" x="496.5" y="240.4951">calcularResumenPersonal(cargaTrabajo)</text></g><!--link CargaTrabajoController to CargaTrabajo--><g class="link" data-entity-1="ent0004" data-entity-2="ent0006" data-link-type="dependency" data-source-line="21" id="lnk15"><path d="M605.92,196.01 C667.49,209.63 741.5,226 741.5,226 C741.5,226 741.5,244 741.5,244 C741.5,244 584.1325,331.2949 513.3625,370.5449" fill="none" id="CargaTrabajoController-to-CargaTrabajo" style="stroke:#181818;stroke-width:1;"/><polygon fill="#181818" points="508.99,372.97,518.8006,372.1029,513.3625,370.5449,514.9205,365.1069,508.99,372.97" style="stroke:#181818;stroke-width:1;stroke-linejoin:miter;stroke-miterlimit:10;"/><text fill="#000000" font-family="sans-serif" font-size="13" lengthAdjust="spacing" textLength="213.1479" x="686.5" y="298.4951">calcularMargenDocente(maximo16h)</text></g><!--link CargaTrabajoRepository to CargaTrabajo--><g class="link" data-entity-1="ent0005" data-entity-2="ent0006" data-link-type="association" data-source-line="22" id="lnk16"><path d="M412.36,312.24 C426.48,329.59 447.61,355.52 461.71,372.84" fill="none" id="CargaTrabajoRepository-CargaTrabajo" style="stroke:#181818;stroke-width:1;"/></g><!--link CargaTrabajoPropiaView to EstadoSalida--><g class="link" data-entity-1="ent0003" data-entity-2="ent0007" data-link-type="dependency" data-source-line="23" id="lnk17"><path d="M685.67,80.01 C741,93.63 807.5,110 807.5,110 C807.5,110 866.2491,136.3711 909.7691,155.9211" fill="none" id="CargaTrabajoPropiaView-to-EstadoSalida" style="stroke:#181818;stroke-width:1;stroke-dasharray:7,7;"/><polygon fill="#181818" points="914.33,157.97,907.7594,150.6333,909.7691,155.9211,904.4812,157.9308,914.33,157.97" style="stroke:#181818;stroke-width:1;stroke-linejoin:miter;stroke-miterlimit:10;"/><text fill="#000000" font-family="sans-serif" font-size="13" lengthAdjust="spacing" textLength="187.8716" x="847.5" y="124.4951">opcionesCargaTrabajoAbiertas()</text></g><!--link CargaTrabajoPropiaView to EditarCargaTrabajo--><g class="link" data-entity-1="ent0003" data-entity-2="ent0008" data-link-type="dependency" data-source-line="24" id="lnk18"><path d="M700.76,71.83 C826.85,85.87 1043.5,110 1043.5,110 C1043.5,110 1131.3103,136.9522 1194.9703,156.5022" fill="none" id="CargaTrabajoPropiaView-to-EditarCargaTrabajo" style="stroke:#181818;stroke-width:1;stroke-dasharray:7,7;"/><polygon fill="#181818" points="1199.75,157.97,1192.3208,151.5041,1194.9703,156.5022,1189.9723,159.1516,1199.75,157.97" style="stroke:#181818;stroke-width:1;stroke-linejoin:miter;stroke-miterlimit:10;"/><text fill="#000000" font-family="sans-serif" font-size="13" lengthAdjust="spacing" textLength="120.6626" x="1101.5" y="124.4951">editarCargaTrabajo()</text></g><!--link CargaTrabajoPropiaView to AbrirPanelPrincipal--><g class="link" data-entity-1="ent0003" data-entity-2="ent0009" data-link-type="dependency" data-source-line="25" id="lnk19"><path d="M700.72,68.85 C871.47,82.11 1230.5,110 1230.5,110 C1230.5,110 1352.2415,137.3243 1439.2815,156.8743" fill="none" id="CargaTrabajoPropiaView-to-AbrirPanelPrincipal" style="stroke:#181818;stroke-width:1;stroke-dasharray:7,7;"/><polygon fill="#181818" points="1444.16,157.97,1436.2554,152.0949,1439.2815,156.8743,1434.5022,159.9004,1444.16,157.97" style="stroke:#181818;stroke-width:1;stroke-linejoin:miter;stroke-miterlimit:10;"/><text fill="#000000" font-family="sans-serif" font-size="13" lengthAdjust="spacing" textLength="117.7681" x="1309.5" y="124.4951">abrirPanelPrincipal()</text></g><?plantuml-src fP91Rzf048Nl_XKhUe43aHergE4GQN4s4L6ABKDxHUFrY6wpx5gpIrjKzRztYQFO1cCXrJSFRpu_tZpteam915kcbK6_Bv6LLkyFBr54A3sOZKRs8RuNCtx31jEKByJpEitcYtYUykSrdyr5jae631mJpaDXXV441KGbo1VO88ES52MbLDQWYu4si2B8uOSzh0pE_ZeS3TYVY8MdOMDoVIiURbbJbv8j5NnJ-EjOdD_anUHpInpROCvgZNGiVhZcyIVH4cTOMgUyfVq5ukXlTrv96i-JXLYkOvuzylKgupF-bBp5nfUDt9QWLOYj2n87ov1R0XzYOg9G7gZvyOfoChw0nG_nfs1GfwICL2NeLrZ7F8fQzsLZ6j-TkSIKzPmrYhgNsBWu0jRNcZARUpHO_RrgPwZCJtHURO8d6fs5zZ1BmaFtYSlAPxNcUi3rzWcuRikxsTJILxS3KlR_aHAqt6cW3DrkYoP5SjQ07ig6_c9mZViIfcZkhKJZSRY5tsfhFqw-jqcrZq1gj_vCwbTNTwrMXqWwki1pXUH3uADUpaclfmnFPlsCZZg_TRGz39H_?></g></svg>