<svg xmlns="http://www.w3.org/2000/svg" xmlns:xlink="http://www.w3.org/1999/xlink" contentStyleType="text/css" height="434px" preserveAspectRatio="none" style="width:1948px;height:434px;background:#FFFFFF;" version="1.1" viewBox="0 0 1948 434" width="1948px" zoomAndPan="magnify"><defs/><g><!--cluster abrirOpcionesCargaTrabajo--><g id="cluster_abrirOpcionesCargaTrabajo"><path d="M247,6 L442.4893,6 A3.75,3.75 0 0 1 444.9893,8.5 L451.9893,29.6094 L1086,29.6094 A2.5,2.5 0 0 1 1088.5,32.1094 L1088.5,424.5 A2.5,2.5 0 0 1 1086,427 L247,427 A2.5,2.5 0 0 1 244.5,424.5 L244.5,8.5 A2.5,2.5 0 0 1 247,6 " fill="none" style="stroke:#000000;stroke-width:1.5;"/><line style="stroke:#000000;stroke-width:1.5;" x1="244.5" x2="451.9893" y1="29.6094" y2="29.6094"/><text fill="#000000" font-family="sans-serif" font-size="14" font-weight="bold" lengthAdjust="spacing" textLength="194.4893" x="248.5" y="22.5332">abrirOpcionesCargaTrabajo()</text></g><!--entity CargaTrabajoPropiaView--><g id="elem_CargaTrabajoPropiaView"><rect fill="#629EF9" height="37.6094" rx="2.5" ry="2.5" style="stroke:#181818;stroke-width:0.5;" width="176.4131" x="827.5" y="42"/><text fill="#000000" font-family="sans-serif" font-size="14" lengthAdjust="spacing" textLength="156.4131" x="837.5" y="66.5332">CargaTrabajoPropiaView</text></g><!--entity CargaTrabajoController--><g id="elem_CargaTrabajoController"><rect fill="#B5BD68" height="37.6094" rx="2.5" ry="2.5" style="stroke:#181818;stroke-width:0.5;" width="166.2891" x="526.5" y="158"/><text fill="#000000" font-family="sans-serif" font-size="14" lengthAdjust="spacing" textLength="146.2891" x="536.5" y="182.5332">CargaTrabajoController</text></g><!--entity CargaTrabajoRepository--><g id="elem_CargaTrabajoRepository"><rect fill="#F2AC4E" height="37.6094" rx="2.5" ry="2.5" style="stroke:#181818;stroke-width:0.5;" width="172.5166" x="350" y="274"/><text fill="#000000" font-family="sans-serif" font-size="14" lengthAdjust="spacing" textLength="152.5166" x="360" y="298.5332">CargaTrabajoRepository</text></g><!--entity RecompensaRepository--><g id="elem_RecompensaRepository"><rect fill="#F2AC4E" height="37.6094" rx="2.5" ry="2.5" style="stroke:#181818;stroke-width:0.5;" width="169.4063" x="718" y="274"/><text fill="#000000" font-family="sans-serif" font-size="14" lengthAdjust="spacing" textLength="149.4063" x="728" y="298.5332">RecompensaRepository</text></g><!--entity CargaTrabajo--><g id="elem_CargaTrabajo"><rect fill="#F2AC4E" height="37.6094" rx="2.5" ry="2.5" style="stroke:#181818;stroke-width:0.5;" width="105.5996" x="383.5" y="373"/><text fill="#000000" font-family="sans-serif" font-size="14" lengthAdjust="spacing" textLength="85.5996" x="393.5" y="397.5332">CargaTrabajo</text></g><!--entity Recompensa--><g id="elem_Recompensa"><rect fill="#F2AC4E" height="37.6094" rx="2.5" ry="2.5" style="stroke:#181818;stroke-width:0.5;" width="102.4893" x="751.5" y="373"/><text fill="#000000" font-family="sans-serif" font-size="14" lengthAdjust="spacing" textLength="82.4893" x="761.5" y="397.5332">Recompensa</text></g><!--entity EstadoEntrada--><g id="elem_EstadoEntrada"><rect fill="#CDEBA5" height="37.6094" rx="2.5" ry="2.5" style="stroke:#181818;stroke-width:0.5;" width="220.7373" x="7" y="42"/><text fill="#000000" font-family="sans-serif" font-size="14" lengthAdjust="spacing" textLength="200.7373" x="17" y="66.5332">:PANEL_PRINCIPAL_ABIERTO</text></g><!--entity EstadoSalida--><g id="elem_EstadoSalida"><rect fill="#CDEBA5" height="37.6094" rx="2.5" ry="2.5" style="stroke:#181818;stroke-width:0.5;" width="304.7441" x="1105" y="158"/><text fill="#000000" font-family="sans-serif" font-size="14" lengthAdjust="spacing" textLength="284.7441" x="1115" y="182.5332">:OPCIONES_CARGA_TRABAJO_ABIERTAS</text></g><!--entity EditarCargaTrabajo--><g id="elem_EditarCargaTrabajo"><rect fill="#CDEBA5" height="37.6094" rx="2.5" ry="2.5" style="stroke:#181818;stroke-width:0.5;" width="232.4473" x="1445.5" y="158"/><text fill="#000000" font-family="sans-serif" font-size="14" lengthAdjust="spacing" textLength="212.4473" x="1455.5" y="182.5332">:Collaboration EditarCargaTrabajo</text></g><!--entity AbrirPanelPrincipal--><g id="elem_AbrirPanelPrincipal"><rect fill="#CDEBA5" height="37.6094" rx="2.5" ry="2.5" style="stroke:#181818;stroke-width:0.5;" width="229.3301" x="1713" y="158"/><text fill="#000000" font-family="sans-serif" font-size="14" lengthAdjust="spacing" textLength="209.3301" x="1723" y="182.5332">:Collaboration AbrirPanelPrincipal</text></g><!--link EstadoEntrada to CargaTrabajoPropiaView--><g id="link_EstadoEntrada_CargaTrabajoPropiaView"><path d="M228.04,61 C388.08,61 675.13,61 821.47,61 " fill="none" id="EstadoEntrada-to-CargaTrabajoPropiaView" style="stroke:#181818;stroke-width:1;"/><polygon fill="#181818" points="827.47,61,818.47,57,822.47,61,818.47,65,827.47,61" style="stroke:#181818;stroke-width:1;"/><text fill="#000000" font-family="sans-serif" font-size="13" lengthAdjust="spacing" textLength="169.0698" x="443.25" y="54.4951">abrirOpcionesCargaTrabajo()</text></g><!--link CargaTrabajoPropiaView to CargaTrabajoController--><g id="link_CargaTrabajoPropiaView_CargaTrabajoController"><path d="M827.37,75.69 C736.03,89.88 606.5,110 606.5,110 C606.5,110 606.5,128 606.5,128 C606.5,128 607.1455,138.2717 607.9955,151.8617 " fill="none" id="CargaTrabajoPropiaView-to-CargaTrabajoController" style="stroke:#181818;stroke-width:1;"/><polygon fill="#181818" points="608.37,157.85,611.8004,148.6179,608.0579,152.8598,603.816,149.1172,608.37,157.85" style="stroke:#181818;stroke-width:1;"/><text fill="#000000" font-family="sans-serif" font-size="13" lengthAdjust="spacing" textLength="195.8315" x="607.5" y="124.4951">obtenerCargaPropia(investigador)</text></g><!--link CargaTrabajoPropiaView to CargaTrabajoController--><g id="link_CargaTrabajoPropiaView_CargaTrabajoController"><path d="M885.99,80.03 C854.01,99.58 807.5,128 807.5,128 C807.5,128 745.8011,142.9563 689.6211,156.5763 " fill="none" id="CargaTrabajoPropiaView-to-CargaTrabajoController-1" style="stroke:#181818;stroke-width:1;"/><polygon fill="#181818" points="683.79,157.99,693.4791,159.7569,688.6492,156.812,691.5942,151.9821,683.79,157.99" style="stroke:#181818;stroke-width:1;"/><text fill="#000000" font-family="sans-serif" font-size="13" lengthAdjust="spacing" textLength="224.7197" x="836.5" y="124.4951">prepararAccionesPropias(investigador)</text></g><!--link CargaTrabajoController to CargaTrabajoRepository--><g id="link_CargaTrabajoController_CargaTrabajoRepository"><path d="M526.21,190.61 C432.29,204.83 292.5,226 292.5,226 C292.5,226 292.5,244 292.5,244 C292.5,244 335.9179,258.4726 376.7779,272.0926 " fill="none" id="CargaTrabajoController-to-CargaTrabajoRepository" style="stroke:#181818;stroke-width:1;"/><polygon fill="#181818" points="382.47,273.99,375.1968,267.3492,377.7266,272.4089,372.6669,274.9387,382.47,273.99" style="stroke:#181818;stroke-width:1;"/><text fill="#000000" font-family="sans-serif" font-size="13" lengthAdjust="spacing" textLength="187.8716" x="293.5" y="240.4951">obtenerPorUsuario(investigador)</text></g><!--link CargaTrabajoController to CargaTrabajoRepository--><g id="link_CargaTrabajoController_CargaTrabajoRepository"><path d="M576.48,196.01 C551.51,209.63 521.5,226 521.5,226 C521.5,226 489.6278,250.7386 464.4678,270.2886 " fill="none" id="CargaTrabajoController-to-CargaTrabajoRepository-1" style="stroke:#181818;stroke-width:1;"/><polygon fill="#181818" points="459.73,273.97,469.291,271.6064,463.6782,270.9021,464.3825,265.2893,459.73,273.97" style="stroke:#181818;stroke-width:1;"/><text fill="#000000" font-family="sans-serif" font-size="13" lengthAdjust="spacing" textLength="236.9961" x="522.5" y="240.4951">calcularResumenPersonal(cargaTrabajo)</text></g><!--link CargaTrabajoController to RecompensaRepository--><g id="link_CargaTrabajoController_RecompensaRepository"><path d="M667.28,196.01 C710.98,209.63 763.5,226 763.5,226 C763.5,226 777.25,249.253 788.79,268.803 " fill="none" id="CargaTrabajoController-to-RecompensaRepository" style="stroke:#181818;stroke-width:1;"/><polygon fill="#181818" points="791.84,273.97,790.7097,264.1862,789.2984,269.6642,783.8204,268.2528,791.84,273.97" style="stroke:#181818;stroke-width:1;"/><text fill="#000000" font-family="sans-serif" font-size="13" lengthAdjust="spacing" textLength="268.1123" x="774.5" y="240.4951">obtenerCompensacionPendiente(investigador)</text></g><!--link CargaTrabajoRepository to CargaTrabajo--><g id="link_CargaTrabajoRepository_CargaTrabajo"><path d="M436.5,312.24 C436.5,329.59 436.5,355.52 436.5,372.84 " fill="none" id="CargaTrabajoRepository-CargaTrabajo" style="stroke:#181818;stroke-width:1;"/></g><!--link RecompensaRepository to Recompensa--><g id="link_RecompensaRepository_Recompensa"><path d="M802.5,312.24 C802.5,329.59 802.5,355.52 802.5,372.84 " fill="none" id="RecompensaRepository-Recompensa" style="stroke:#181818;stroke-width:1;"/></g><!--link CargaTrabajoPropiaView to EstadoSalida--><g id="link_CargaTrabajoPropiaView_EstadoSalida"><path d="M973.28,80.01 C1016.98,93.63 1069.5,110 1069.5,110 C1069.5,110 1144.7989,136.432 1200.4689,155.982 " fill="none" id="CargaTrabajoPropiaView-to-EstadoSalida" style="stroke:#181818;stroke-width:1;stroke-dasharray:7.0,7.0;"/><polygon fill="#181818" points="1206.13,157.97,1198.9638,151.2139,1201.4124,156.3133,1196.313,158.762,1206.13,157.97" style="stroke:#181818;stroke-width:1;"/><text fill="#000000" font-family="sans-serif" font-size="13" lengthAdjust="spacing" textLength="187.8716" x="1120.5" y="124.4951">opcionesCargaTrabajoAbiertas()</text></g><!--link CargaTrabajoPropiaView to EditarCargaTrabajo--><g id="link_CargaTrabajoPropiaView_EditarCargaTrabajo"><path d="M1003.5,72.53 C1121.54,86.66 1316.5,110 1316.5,110 C1316.5,110 1416.2167,136.8587 1488.7567,156.4087 " fill="none" id="CargaTrabajoPropiaView-to-EditarCargaTrabajo" style="stroke:#181818;stroke-width:1;stroke-dasharray:7.0,7.0;"/><polygon fill="#181818" points="1494.55,157.97,1486.9009,151.7658,1489.7223,156.6689,1484.8192,159.4902,1494.55,157.97" style="stroke:#181818;stroke-width:1;"/><text fill="#000000" font-family="sans-serif" font-size="13" lengthAdjust="spacing" textLength="120.6626" x="1382.5" y="124.4951">editarCargaTrabajo()</text></g><!--link CargaTrabajoPropiaView to AbrirPanelPrincipal--><g id="link_CargaTrabajoPropiaView_AbrirPanelPrincipal"><path d="M1003.76,69.11 C1169.67,82.47 1511.5,110 1511.5,110 C1511.5,110 1641.7168,137.1928 1735.2768,156.7428 " fill="none" id="CargaTrabajoPropiaView-to-AbrirPanelPrincipal" style="stroke:#181818;stroke-width:1;stroke-dasharray:7.0,7.0;"/><polygon fill="#181818" points="1741.15,157.97,1733.1584,152.2137,1736.2557,156.9473,1731.5221,160.0446,1741.15,157.97" style="stroke:#181818;stroke-width:1;"/><text fill="#000000" font-family="sans-serif" font-size="13" lengthAdjust="spacing" textLength="117.7681" x="1596.5" y="124.4951">abrirPanelPrincipal()</text></g><!--SRC=[fPD1Zvim48Nl_0ehUqaEsSEgk-hci993sIhLAbWaxJKQO1IvwzZMs6aLLVtlDIKga01RQRbXl_bup9jnhr9R83Wm9JNwaqLcZJfLBr54M7ZGUuNi9lwKBFazcom4NoSlEv6jrl5Ay9STNwwIR9jE63YME0-bIRGdA26oKBp27Xda92crXJGQNGoqXor13jzDLJ8Pl9tE9knNnCBJil5mzvWyFxAsJf2n4hv9_7afpk_pyk5ZHnoROCueXNGfVhxZyOUa8yxG6YUzeTE0ECF272ng1szAszmtQT7l_jwd8bwbwsIpYtdscU-s6L_oB-av0hvfPR019KC4VP0u_3xaXi27bhEab1wexQwcN1t_1ujNKGhGg0H9NKWBwY-ivpoAEhF2vZH_6aXrmKP698hwYzYyl00soI-OoJrgh7-lhfbA_GETb_lWYMQ3q16c9QpsY7XH-wpBt0YugRu2D-FqpwmmzDKTWQHvFx80LHmLK8RkU40ja9pHeAP5IpyAxXlyfgtdgweF0dKfKNiSCTqW0hkxA7tVgKIjLHc8wlRsgRCAmLtF0F5S8lcGqcoKSxKC2uPNP-ECdXqu3tRtC53-0000]--></g></svg>