<svg xmlns="http://www.w3.org/2000/svg" xmlns:xlink="http://www.w3.org/1999/xlink" contentStyleType="text/css" height="1059px" preserveAspectRatio="none" style="width:1870px;height:1059px;background:#FFFFFF;" version="1.1" viewBox="0 0 1870 1059" width="1870px" zoomAndPan="magnify"><title>Diagrama de secuencia - Crear entregable propio</title><defs/><g><text fill="#000000" font-family="sans-serif" font-size="14" font-weight="bold" lengthAdjust="spacing" textLength="326.7783" x="772.6555" y="29.5332">Diagrama de secuencia - Crear entregable propio</text><rect fill="none" height="463.8125" style="stroke:#000000;stroke-width:1.5;" width="1853.0894" x="10" y="496.7891"/><line style="stroke:#181818;stroke-width:0.5;stroke-dasharray:5.0,5.0;" x1="61" x2="61" y1="121.2188" y2="977.6016"/><line style="stroke:#181818;stroke-width:0.5;stroke-dasharray:5.0,5.0;" x1="291.7939" x2="291.7939" y1="121.2188" y2="977.6016"/><line style="stroke:#181818;stroke-width:0.5;stroke-dasharray:5.0,5.0;" x1="582.9487" x2="582.9487" y1="121.2188" y2="977.6016"/><line style="stroke:#181818;stroke-width:0.5;stroke-dasharray:5.0,5.0;" x1="815.9878" x2="815.9878" y1="121.2188" y2="977.6016"/><line style="stroke:#181818;stroke-width:0.5;stroke-dasharray:5.0,5.0;" x1="942.4771" x2="942.4771" y1="121.2188" y2="977.6016"/><line style="stroke:#181818;stroke-width:0.5;stroke-dasharray:5.0,5.0;" x1="1171.1094" x2="1171.1094" y1="121.2188" y2="977.6016"/><line style="stroke:#181818;stroke-width:0.5;stroke-dasharray:5.0,5.0;" x1="1323.2744" x2="1323.2744" y1="121.2188" y2="977.6016"/><line style="stroke:#181818;stroke-width:0.5;stroke-dasharray:5.0,5.0;" x1="1504.9082" x2="1504.9082" y1="121.2188" y2="977.6016"/><line style="stroke:#181818;stroke-width:0.5;stroke-dasharray:5.0,5.0;" x1="1803.2554" x2="1803.2554" y1="121.2188" y2="977.6016"/><text fill="#000000" font-family="sans-serif" font-size="14" lengthAdjust="spacing" textLength="76.2686" x="20" y="118.1426">Investigador</text><ellipse cx="61.1343" cy="52.1094" fill="#E2E2F0" rx="8" ry="8" style="stroke:#181818;stroke-width:0.5;"/><path d="M61.1343,60.1094 L61.1343,87.1094 M48.1343,68.1094 L74.1343,68.1094 M61.1343,87.1094 L48.1343,102.1094 M61.1343,87.1094 L74.1343,102.1094 " fill="none" style="stroke:#181818;stroke-width:0.5;"/><text fill="#000000" font-family="sans-serif" font-size="14" lengthAdjust="spacing" textLength="76.2686" x="20" y="991.1348">Investigador</text><ellipse cx="61.1343" cy="1002.7109" fill="#E2E2F0" rx="8" ry="8" style="stroke:#181818;stroke-width:0.5;"/><path d="M61.1343,1010.7109 L61.1343,1037.7109 M48.1343,1018.7109 L74.1343,1018.7109 M61.1343,1037.7109 L48.1343,1052.7109 M61.1343,1037.7109 L74.1343,1052.7109 " fill="none" style="stroke:#181818;stroke-width:0.5;"/><rect fill="#E2E2F0" height="49.2188" rx="2.5" ry="2.5" style="stroke:#181818;stroke-width:0.5;" width="149.3857" x="217.7939" y="71"/><text fill="#000000" font-family="sans-serif" font-size="14" lengthAdjust="spacing" textLength="135.3857" x="224.7939" y="92.5332">CrearEntregableForm</text><text fill="#000000" font-family="sans-serif" font-size="14" lengthAdjust="spacing" textLength="45.8965" x="269.5386" y="110.1426">(React)</text><rect fill="#E2E2F0" height="49.2188" rx="2.5" ry="2.5" style="stroke:#181818;stroke-width:0.5;" width="149.3857" x="217.7939" y="976.6016"/><text fill="#000000" font-family="sans-serif" font-size="14" lengthAdjust="spacing" textLength="135.3857" x="224.7939" y="998.1348">CrearEntregableForm</text><text fill="#000000" font-family="sans-serif" font-size="14" lengthAdjust="spacing" textLength="45.8965" x="269.5386" y="1015.7441">(React)</text><rect fill="#E2E2F0" height="49.2188" rx="2.5" ry="2.5" style="stroke:#181818;stroke-width:0.5;" width="142.4063" x="511.9487" y="71"/><text fill="#000000" font-family="sans-serif" font-size="14" lengthAdjust="spacing" textLength="128.4063" x="518.9487" y="92.5332">EntregableController</text><text fill="#000000" font-family="sans-serif" font-size="14" lengthAdjust="spacing" textLength="82.4824" x="541.9106" y="110.1426">(Spring Boot)</text><rect fill="#E2E2F0" height="49.2188" rx="2.5" ry="2.5" style="stroke:#181818;stroke-width:0.5;" width="142.4063" x="511.9487" y="976.6016"/><text fill="#000000" font-family="sans-serif" font-size="14" lengthAdjust="spacing" textLength="128.4063" x="518.9487" y="998.1348">EntregableController</text><text fill="#000000" font-family="sans-serif" font-size="14" lengthAdjust="spacing" textLength="82.4824" x="541.9106" y="1015.7441">(Spring Boot)</text><rect fill="#E2E2F0" height="31.6094" rx="2.5" ry="2.5" style="stroke:#181818;stroke-width:0.5;" width="103.4893" x="764.9878" y="88.6094"/><text fill="#000000" font-family="sans-serif" font-size="14" lengthAdjust="spacing" textLength="89.4893" x="771.9878" y="110.1426">SesionService</text><rect fill="#E2E2F0" height="31.6094" rx="2.5" ry="2.5" style="stroke:#181818;stroke-width:0.5;" width="103.4893" x="764.9878" y="976.6016"/><text fill="#000000" font-family="sans-serif" font-size="14" lengthAdjust="spacing" textLength="89.4893" x="771.9878" y="998.1348">SesionService</text><rect fill="#E2E2F0" height="31.6094" rx="2.5" ry="2.5" style="stroke:#181818;stroke-width:0.5;" width="128.3994" x="878.4771" y="88.6094"/><text fill="#000000" font-family="sans-serif" font-size="14" lengthAdjust="spacing" textLength="114.3994" x="885.4771" y="110.1426">EntregableService</text><rect fill="#E2E2F0" height="31.6094" rx="2.5" ry="2.5" style="stroke:#181818;stroke-width:0.5;" width="128.3994" x="878.4771" y="976.6016"/><text fill="#000000" font-family="sans-serif" font-size="14" lengthAdjust="spacing" textLength="114.3994" x="885.4771" y="998.1348">EntregableService</text><rect fill="#E2E2F0" height="31.6094" rx="2.5" ry="2.5" style="stroke:#181818;stroke-width:0.5;" width="136.165" x="1103.1094" y="88.6094"/><text fill="#000000" font-family="sans-serif" font-size="14" lengthAdjust="spacing" textLength="122.165" x="1110.1094" y="110.1426">ProyectoRepository</text><rect fill="#E2E2F0" height="31.6094" rx="2.5" ry="2.5" style="stroke:#181818;stroke-width:0.5;" width="136.165" x="1103.1094" y="976.6016"/><text fill="#000000" font-family="sans-serif" font-size="14" lengthAdjust="spacing" textLength="122.165" x="1110.1094" y="998.1348">ProyectoRepository</text><rect fill="#E2E2F0" height="31.6094" rx="2.5" ry="2.5" style="stroke:#181818;stroke-width:0.5;" width="148.6338" x="1249.2744" y="88.6094"/><text fill="#000000" font-family="sans-serif" font-size="14" lengthAdjust="spacing" textLength="134.6338" x="1256.2744" y="110.1426">EntregableRepository</text><rect fill="#E2E2F0" height="31.6094" rx="2.5" ry="2.5" style="stroke:#181818;stroke-width:0.5;" width="148.6338" x="1249.2744" y="976.6016"/><text fill="#000000" font-family="sans-serif" font-size="14" lengthAdjust="spacing" textLength="134.6338" x="1256.2744" y="998.1348">EntregableRepository</text><rect fill="#E2E2F0" height="31.6094" rx="2.5" ry="2.5" style="stroke:#181818;stroke-width:0.5;" width="195.3164" x="1407.9082" y="88.6094"/><text fill="#000000" font-family="sans-serif" font-size="14" lengthAdjust="spacing" textLength="181.3164" x="1414.9082" y="110.1426">ArchivoEntregableRepository</text><rect fill="#E2E2F0" height="31.6094" rx="2.5" ry="2.5" style="stroke:#181818;stroke-width:0.5;" width="195.3164" x="1407.9082" y="976.6016"/><text fill="#000000" font-family="sans-serif" font-size="14" lengthAdjust="spacing" textLength="181.3164" x="1414.9082" y="998.1348">ArchivoEntregableRepository</text><text fill="#000000" font-family="sans-serif" font-size="14" lengthAdjust="spacing" textLength="91.834" x="1755.2554" y="118.1426">Base de Datos</text><path d="M1786.1724,67.6094 C1786.1724,57.6094 1804.1724,57.6094 1804.1724,57.6094 C1804.1724,57.6094 1822.1724,57.6094 1822.1724,67.6094 L1822.1724,93.6094 C1822.1724,103.6094 1804.1724,103.6094 1804.1724,103.6094 C1804.1724,103.6094 1786.1724,103.6094 1786.1724,93.6094 L1786.1724,67.6094 " fill="#E2E2F0" style="stroke:#181818;stroke-width:1.5;"/><path d="M1786.1724,67.6094 C1786.1724,77.6094 1804.1724,77.6094 1804.1724,77.6094 C1804.1724,77.6094 1822.1724,77.6094 1822.1724,67.6094 " fill="none" style="stroke:#181818;stroke-width:1.5;"/><text fill="#000000" font-family="sans-serif" font-size="14" lengthAdjust="spacing" textLength="91.834" x="1755.2554" y="991.1348">Base de Datos</text><path d="M1786.1724,1004.2109 C1786.1724,994.2109 1804.1724,994.2109 1804.1724,994.2109 C1804.1724,994.2109 1822.1724,994.2109 1822.1724,1004.2109 L1822.1724,1030.2109 C1822.1724,1040.2109 1804.1724,1040.2109 1804.1724,1040.2109 C1804.1724,1040.2109 1786.1724,1040.2109 1786.1724,1030.2109 L1786.1724,1004.2109 " fill="#E2E2F0" style="stroke:#181818;stroke-width:1.5;"/><path d="M1786.1724,1004.2109 C1786.1724,1014.2109 1804.1724,1014.2109 1804.1724,1014.2109 C1804.1724,1014.2109 1822.1724,1014.2109 1822.1724,1004.2109 " fill="none" style="stroke:#181818;stroke-width:1.5;"/><polygon fill="#181818" points="280.4868,149.5703,290.4868,153.5703,280.4868,157.5703,284.4868,153.5703" style="stroke:#181818;stroke-width:1;"/><line style="stroke:#181818;stroke-width:1;" x1="61.1343" x2="286.4868" y1="153.5703" y2="153.5703"/><text fill="#000000" font-family="sans-serif" font-size="13" lengthAdjust="spacing" textLength="197.2852" x="68.1343" y="148.7139">Introduce datos y archivo opcional</text><polygon fill="#181818" points="571.1519,196.2734,581.1519,200.2734,571.1519,204.2734,575.1519,200.2734" style="stroke:#181818;stroke-width:1;"/><line style="stroke:#181818;stroke-width:1;" x1="292.4868" x2="577.1519" y1="200.2734" y2="200.2734"/><text fill="#000000" font-family="sans-serif" font-size="13" lengthAdjust="spacing" textLength="264.4878" x="299.4868" y="179.0654">POST /api/proyectos/{proyectoId}/entregables</text><text fill="#000000" font-family="sans-serif" font-size="13" lengthAdjust="spacing" textLength="266.665" x="299.4868" y="195.417">EntregableCreateRequest + archivo? + cookie</text><polygon fill="#181818" points="804.7324,226.625,814.7324,230.625,804.7324,234.625,808.7324,230.625" style="stroke:#181818;stroke-width:1;"/><line style="stroke:#181818;stroke-width:1;" x1="583.1519" x2="810.7324" y1="230.625" y2="230.625"/><text fill="#000000" font-family="sans-serif" font-size="13" lengthAdjust="spacing" textLength="209.5806" x="590.1519" y="225.7686">obtenerSesionActual(authentication)</text><polygon fill="#181818" points="594.1519,256.9766,584.1519,260.9766,594.1519,264.9766,590.1519,260.9766" style="stroke:#181818;stroke-width:1;"/><line style="stroke:#181818;stroke-width:1;stroke-dasharray:2.0,2.0;" x1="588.1519" x2="815.7324" y1="260.9766" y2="260.9766"/><text fill="#000000" font-family="sans-serif" font-size="13" lengthAdjust="spacing" textLength="141.6543" x="600.1519" y="256.1201">Investigador autenticado</text><polygon fill="#181818" points="930.6768,287.3281,940.6768,291.3281,930.6768,295.3281,934.6768,291.3281" style="stroke:#181818;stroke-width:1;"/><line style="stroke:#181818;stroke-width:1;" x1="583.1519" x2="936.6768" y1="291.3281" y2="291.3281"/><text fill="#000000" font-family="sans-serif" font-size="13" lengthAdjust="spacing" textLength="271.686" x="590.1519" y="286.4717">crear(proyectoId, datos, archivo?, investigador)</text><polygon fill="#181818" points="1159.1919,317.6797,1169.1919,321.6797,1159.1919,325.6797,1163.1919,321.6797" style="stroke:#181818;stroke-width:1;"/><line style="stroke:#181818;stroke-width:1;" x1="942.6768" x2="1165.1919" y1="321.6797" y2="321.6797"/><text fill="#000000" font-family="sans-serif" font-size="13" lengthAdjust="spacing" textLength="193.6543" x="949.6768" y="316.8232">findById(proyectoId, investigador)</text><polygon fill="#181818" points="1792.1724,380.7344,1802.1724,384.7344,1792.1724,388.7344,1796.1724,384.7344" style="stroke:#181818;stroke-width:1;"/><line style="stroke:#181818;stroke-width:1;" x1="1171.1919" x2="1798.1724" y1="384.7344" y2="384.7344"/><text fill="#000000" font-family="sans-serif" font-size="13" lengthAdjust="spacing" textLength="247.8252" x="1178.1919" y="347.1748">SELECT 1 FROM proyecto_investigadores</text><text fill="#000000" font-family="sans-serif" font-size="13" lengthAdjust="spacing" textLength="285.416" x="1178.1919" y="363.5264">WHERE proyecto_id = ? AND investigador_id = ?</text><text fill="#000000" font-family="sans-serif" font-size="13" lengthAdjust="spacing" textLength="102.2354" x="1178.1919" y="379.8779">AND activo = true</text><polygon fill="#181818" points="1182.1919,411.0859,1172.1919,415.0859,1182.1919,419.0859,1178.1919,415.0859" style="stroke:#181818;stroke-width:1;"/><line style="stroke:#181818;stroke-width:1;stroke-dasharray:2.0,2.0;" x1="1176.1919" x2="1803.1724" y1="415.0859" y2="415.0859"/><text fill="#000000" font-family="sans-serif" font-size="13" lengthAdjust="spacing" textLength="115.6099" x="1188.1919" y="410.2295">Participacion / vacio</text><polygon fill="#181818" points="953.6768,441.4375,943.6768,445.4375,953.6768,449.4375,949.6768,445.4375" style="stroke:#181818;stroke-width:1;"/><line style="stroke:#181818;stroke-width:1;stroke-dasharray:2.0,2.0;" x1="947.6768" x2="1170.1919" y1="445.4375" y2="445.4375"/><text fill="#000000" font-family="sans-serif" font-size="13" lengthAdjust="spacing" textLength="204.5151" x="959.6768" y="440.5811">Proyecto visible / acceso denegado</text><path d="M947,458.4375 L947,484.4375 L1270,484.4375 L1270,468.4375 L1260,458.4375 L947,458.4375 " fill="#FEFFDD" style="stroke:#181818;stroke-width:0.5;"/><path d="M1260,458.4375 L1260,468.4375 L1270,468.4375 L1260,458.4375 " fill="#FEFFDD" style="stroke:#181818;stroke-width:0.5;"/><text fill="#000000" font-family="sans-serif" font-size="13" lengthAdjust="spacing" textLength="302.7832" x="953" y="476.9326">Responsabilidad interna: validarDatosYAsignarAutor</text><path d="M10,496.7891 L70.1709,496.7891 L70.1709,505.1406 L60.1709,515.1406 L10,515.1406 L10,496.7891 " fill="#EEEEEE" style="stroke:#000000;stroke-width:1.5;"/><rect fill="none" height="463.8125" style="stroke:#000000;stroke-width:1.5;" width="1853.0894" x="10" y="496.7891"/><text fill="#000000" font-family="sans-serif" font-size="13" font-weight="bold" lengthAdjust="spacing" textLength="15.1709" x="25" y="511.2842">alt</text><text fill="#000000" font-family="sans-serif" font-size="11" font-weight="bold" lengthAdjust="spacing" textLength="188.8638" x="85.1709" y="510.208">[Datos invalidos o sin participacion]</text><polygon fill="#181818" points="594.1519,533.4922,584.1519,537.4922,594.1519,541.4922,590.1519,537.4922" style="stroke:#181818;stroke-width:1;"/><line style="stroke:#181818;stroke-width:1;stroke-dasharray:2.0,2.0;" x1="588.1519" x2="941.6768" y1="537.4922" y2="537.4922"/><text fill="#000000" font-family="sans-serif" font-size="13" lengthAdjust="spacing" textLength="287.6313" x="600.1519" y="532.6357">ValidacionException / AccesoDenegadoException</text><polygon fill="#181818" points="303.4868,563.8438,293.4868,567.8438,303.4868,571.8438,299.4868,567.8438" style="stroke:#181818;stroke-width:1;"/><line style="stroke:#181818;stroke-width:1;stroke-dasharray:2.0,2.0;" x1="297.4868" x2="582.1519" y1="567.8438" y2="567.8438"/><text fill="#000000" font-family="sans-serif" font-size="13" lengthAdjust="spacing" textLength="54.2153" x="309.4868" y="562.9873">400 / 403</text><line style="stroke:#000000;stroke-width:1;stroke-dasharray:2.0,2.0;" x1="10" x2="1863.0894" y1="576.8438" y2="576.8438"/><text fill="#000000" font-family="sans-serif" font-size="11" font-weight="bold" lengthAdjust="spacing" textLength="78.8477" x="15" y="588.2627">[Datos validos]</text><polygon fill="#181818" points="1311.5913,610.0313,1321.5913,614.0313,1311.5913,618.0313,1315.5913,614.0313" style="stroke:#181818;stroke-width:1;"/><line style="stroke:#181818;stroke-width:1;" x1="942.6768" x2="1317.5913" y1="614.0313" y2="614.0313"/><text fill="#000000" font-family="sans-serif" font-size="13" lengthAdjust="spacing" textLength="97.5571" x="949.6768" y="609.1748">save(entregable)</text><polygon fill="#181818" points="1792.1724,673.0859,1802.1724,677.0859,1792.1724,681.0859,1796.1724,677.0859" style="stroke:#181818;stroke-width:1;"/><line style="stroke:#181818;stroke-width:1;" x1="1323.5913" x2="1798.1724" y1="677.0859" y2="677.0859"/><text fill="#000000" font-family="sans-serif" font-size="13" lengthAdjust="spacing" textLength="153.8862" x="1330.5913" y="639.5264">INSERT INTO entregables</text><text fill="#000000" font-family="sans-serif" font-size="13" lengthAdjust="spacing" textLength="289.0342" x="1330.5913" y="655.8779">(proyecto_id, titulo, descripcion, autor_id, retirado)</text><text fill="#000000" font-family="sans-serif" font-size="13" lengthAdjust="spacing" textLength="148.8462" x="1330.5913" y="672.2295">VALUES (?, ?, ?, ?, false)</text><polygon fill="#181818" points="1334.5913,703.4375,1324.5913,707.4375,1334.5913,711.4375,1330.5913,707.4375" style="stroke:#181818;stroke-width:1;"/><line style="stroke:#181818;stroke-width:1;stroke-dasharray:2.0,2.0;" x1="1328.5913" x2="1803.1724" y1="707.4375" y2="707.4375"/><text fill="#000000" font-family="sans-serif" font-size="13" lengthAdjust="spacing" textLength="147.4243" x="1340.5913" y="702.5811">Entregable creado con ID</text><polygon fill="#181818" points="953.6768,733.7891,943.6768,737.7891,953.6768,741.7891,949.6768,737.7891" style="stroke:#181818;stroke-width:1;"/><line style="stroke:#181818;stroke-width:1;stroke-dasharray:2.0,2.0;" x1="947.6768" x2="1322.5913" y1="737.7891" y2="737.7891"/><text fill="#000000" font-family="sans-serif" font-size="13" lengthAdjust="spacing" textLength="106.2407" x="959.6768" y="732.9326">Entregable creado</text><polygon fill="#181818" points="1493.5664,764.1406,1503.5664,768.1406,1493.5664,772.1406,1497.5664,768.1406" style="stroke:#181818;stroke-width:1;"/><line style="stroke:#181818;stroke-width:1;" x1="942.6768" x2="1499.5664" y1="768.1406" y2="768.1406"/><text fill="#000000" font-family="sans-serif" font-size="13" lengthAdjust="spacing" textLength="224.0088" x="949.6768" y="763.2842">save(entregable, archivo, investigador)</text><polygon fill="#181818" points="1792.1724,827.1953,1802.1724,831.1953,1792.1724,835.1953,1796.1724,831.1953" style="stroke:#181818;stroke-width:1;"/><line style="stroke:#181818;stroke-width:1;" x1="1505.5664" x2="1798.1724" y1="831.1953" y2="831.1953"/><text fill="#000000" font-family="sans-serif" font-size="13" lengthAdjust="spacing" textLength="203.0234" x="1512.5664" y="793.6357">INSERT INTO archivos_entregable</text><text fill="#000000" font-family="sans-serif" font-size="13" lengthAdjust="spacing" textLength="274.606" x="1512.5664" y="809.9873">(entregable_id, version, archivo, subido_por_id)</text><text fill="#000000" font-family="sans-serif" font-size="13" lengthAdjust="spacing" textLength="114.1626" x="1512.5664" y="826.3389">VALUES (?, 1, ?, ?)</text><polygon fill="#181818" points="1516.5664,857.5469,1506.5664,861.5469,1516.5664,865.5469,1512.5664,861.5469" style="stroke:#181818;stroke-width:1;"/><line style="stroke:#181818;stroke-width:1;stroke-dasharray:2.0,2.0;" x1="1510.5664" x2="1803.1724" y1="861.5469" y2="861.5469"/><text fill="#000000" font-family="sans-serif" font-size="13" lengthAdjust="spacing" textLength="84.5317" x="1522.5664" y="856.6904">Archivo / vacio</text><polygon fill="#181818" points="594.1519,887.8984,584.1519,891.8984,594.1519,895.8984,590.1519,891.8984" style="stroke:#181818;stroke-width:1;"/><line style="stroke:#181818;stroke-width:1;stroke-dasharray:2.0,2.0;" x1="588.1519" x2="941.6768" y1="891.8984" y2="891.8984"/><text fill="#000000" font-family="sans-serif" font-size="13" lengthAdjust="spacing" textLength="161.8843" x="600.1519" y="887.042">EntregableDetalleResponse</text><polygon fill="#181818" points="303.4868,918.25,293.4868,922.25,303.4868,926.25,299.4868,922.25" style="stroke:#181818;stroke-width:1;"/><line style="stroke:#181818;stroke-width:1;stroke-dasharray:2.0,2.0;" x1="297.4868" x2="582.1519" y1="922.25" y2="922.25"/><text fill="#000000" font-family="sans-serif" font-size="13" lengthAdjust="spacing" textLength="71.5508" x="309.4868" y="917.3936">201 Created</text><polygon fill="#181818" points="72.1343,948.6016,62.1343,952.6016,72.1343,956.6016,68.1343,952.6016" style="stroke:#181818;stroke-width:1;"/><line style="stroke:#181818;stroke-width:1;stroke-dasharray:2.0,2.0;" x1="66.1343" x2="291.4868" y1="952.6016" y2="952.6016"/><text fill="#000000" font-family="sans-serif" font-size="13" lengthAdjust="spacing" textLength="207.3525" x="78.1343" y="947.7451">Presenta ENTREGABLE_ABIERTO</text><!--SRC=[TLHjQzim4FxkNt7qKy9Iacxx56YBNRjRe6jBadKC0a6HhwcOAtcI71R6_ljEyflS5oYfhBldtfxdP8Kj45B1zfezCyWH3F8A9HSCJk5A8zE0qchSinqvbbgLGaMCMwLX8GzehDYpNEcePDeABaecBPnuNDR1hfL-tiZH4WatFW5cu5ehQL7cGrYFk2ApLaM1cd2hKWkvXqIf1XsNOWXSeH5Ahb0V14VlKj-y5txewSz3rtkjZaXDBh5KHb2pH-yRNhyN-mNajMki-PCug7SHZTq3SsRPZXc4ayJz4ZqfiyfulpI9ef02EBtevZedScY0USK9v11m15R71LLo6WqhejRP0McaSxY_MwrXoaenBPj6pVHlUrpa_wQz4in61cmHtPRQ-5rHCV2XpNH9HwxKBu4HXNTPQbRce7QK5tNz6NDRiMB4Alj4yGLdbYx7KMs4qxQuGQlaNFlcge_jUPm3T-8RzMLFwWbCkh8c889OBfD7kY0XmNDu539FZejy46o83G4kG9hCOPNTP5ThE8FhvTqtQB7R4EZcz-Dhjim2SmxdS0dnRJf8qTnlf3FG_ZW6py7g2gCqyTCPrdpVIisH35CukCEBCiDfjHOu22FSYayf2qUZI6mINGcHL1P1Y_sJ1VNO8vTeIYKDsub2v2odgYrgoUQKqbrehzIViH5xoNHSaRuZLjXQmAv5vqKd1KP8ACEo8u2EavR-1n_KMRC_74jRTnVxKjEcqiv20Rmg1XlnUJOZnEVPfmWBqomID5M46I-WdgHX1nprYX-JJyZoudQLBTVqRtq7WxqO1PHEm0fR5OeqY8PhuLTlukJhcPs0HYiqbJxUo8VuvdksWX7fi_jxP5IgoznmNLVMRvuNUwvepIGiqgx2aE1NpiDUWzVcLSlTohnKFOImjmRIuCos3qQ3wJzyxmVKfXv7cyLKEs9ZM_hX34ToLeyacCMWykQZ4_mR2ke7aQ9bXNjtlO3nJRLyd9r1_QxbPE-VId8ANoAtG6YeCGRPxNgPVOcJcsmR9miQnLr4YFy0]--></g></svg>