<?xml version="1.0" encoding="us-ascii" standalone="no"?><svg xmlns="http://www.w3.org/2000/svg" xmlns:xlink="http://www.w3.org/1999/xlink" contentStyleType="text/css" height="816px" preserveAspectRatio="none" style="width:1686px;height:816px;background:#FFFFFF;" version="1.1" viewBox="0 0 1686 816" width="1686px" zoomAndPan="magnify"><defs/><g><text fill="#000000" font-family="sans-serif" font-size="14" font-weight="bold" lengthAdjust="spacing" textLength="346" x="671.25" y="29.5332">Diagrama de secuencia - Crear entregable propio</text><rect fill="none" height="277" style="stroke:#000000;stroke-width:1.5;" width="1669.5" x="10" y="440.7344"/><line style="stroke:#181818;stroke-width:0.5;stroke-dasharray:5.0,5.0;" x1="61" x2="61" y1="121.2188" y2="734.7344"/><line style="stroke:#181818;stroke-width:0.5;stroke-dasharray:5.0,5.0;" x1="291.5" x2="291.5" y1="121.2188" y2="734.7344"/><line style="stroke:#181818;stroke-width:0.5;stroke-dasharray:5.0,5.0;" x1="580" x2="580" y1="121.2188" y2="734.7344"/><line style="stroke:#181818;stroke-width:0.5;stroke-dasharray:5.0,5.0;" x1="792.5" x2="792.5" y1="121.2188" y2="734.7344"/><line style="stroke:#181818;stroke-width:0.5;stroke-dasharray:5.0,5.0;" x1="1014.5" x2="1014.5" y1="121.2188" y2="734.7344"/><line style="stroke:#181818;stroke-width:0.5;stroke-dasharray:5.0,5.0;" x1="1300.5" x2="1300.5" y1="121.2188" y2="734.7344"/><line style="stroke:#181818;stroke-width:0.5;stroke-dasharray:5.0,5.0;" x1="1454.5" x2="1454.5" y1="121.2188" y2="734.7344"/><line style="stroke:#181818;stroke-width:0.5;stroke-dasharray:5.0,5.0;" x1="1604.5" x2="1604.5" y1="121.2188" y2="734.7344"/><text fill="#000000" font-family="sans-serif" font-size="14" lengthAdjust="spacing" textLength="77" x="20" y="118.1426">Investigador</text><ellipse cx="61.5" cy="52.1094" fill="#E2E2F0" rx="8" ry="8" style="stroke:#181818;stroke-width:0.5;"/><path d="M61.5,60.1094 L61.5,87.1094 M48.5,68.1094 L74.5,68.1094 M61.5,87.1094 L48.5,102.1094 M61.5,87.1094 L74.5,102.1094 " fill="none" style="stroke:#181818;stroke-width:0.5;"/><text fill="#000000" font-family="sans-serif" font-size="14" lengthAdjust="spacing" textLength="77" x="20" y="748.2676">Investigador</text><ellipse cx="61.5" cy="759.8438" fill="#E2E2F0" rx="8" ry="8" style="stroke:#181818;stroke-width:0.5;"/><path d="M61.5,767.8438 L61.5,794.8438 M48.5,775.8438 L74.5,775.8438 M61.5,794.8438 L48.5,809.8438 M61.5,794.8438 L74.5,809.8438 " fill="none" style="stroke:#181818;stroke-width:0.5;"/><rect fill="#E2E2F0" height="49.2188" rx="2.5" ry="2.5" style="stroke:#181818;stroke-width:0.5;" width="152" x="215.5" y="71"/><text fill="#000000" font-family="sans-serif" font-size="14" lengthAdjust="spacing" textLength="138" x="222.5" y="92.5332">CrearEntregableForm</text><text fill="#000000" font-family="sans-serif" font-size="14" lengthAdjust="spacing" textLength="47" x="268" y="110.1426">(React)</text><rect fill="#E2E2F0" height="49.2188" rx="2.5" ry="2.5" style="stroke:#181818;stroke-width:0.5;" width="152" x="215.5" y="733.7344"/><text fill="#000000" font-family="sans-serif" font-size="14" lengthAdjust="spacing" textLength="138" x="222.5" y="755.2676">CrearEntregableForm</text><text fill="#000000" font-family="sans-serif" font-size="14" lengthAdjust="spacing" textLength="47" x="268" y="772.877">(React)</text><rect fill="#E2E2F0" height="49.2188" rx="2.5" ry="2.5" style="stroke:#181818;stroke-width:0.5;" width="145" x="508" y="71"/><text fill="#000000" font-family="sans-serif" font-size="14" lengthAdjust="spacing" textLength="131" x="515" y="92.5332">EntregableController</text><text fill="#000000" font-family="sans-serif" font-size="14" lengthAdjust="spacing" textLength="84" x="538.5" y="110.1426">(Spring Boot)</text><rect fill="#E2E2F0" height="49.2188" rx="2.5" ry="2.5" style="stroke:#181818;stroke-width:0.5;" width="145" x="508" y="733.7344"/><text fill="#000000" font-family="sans-serif" font-size="14" lengthAdjust="spacing" textLength="131" x="515" y="755.2676">EntregableController</text><text fill="#000000" font-family="sans-serif" font-size="14" lengthAdjust="spacing" textLength="84" x="538.5" y="772.877">(Spring Boot)</text><rect fill="#E2E2F0" height="31.6094" rx="2.5" ry="2.5" style="stroke:#181818;stroke-width:0.5;" width="104" x="740.5" y="88.6094"/><text fill="#000000" font-family="sans-serif" font-size="14" lengthAdjust="spacing" textLength="90" x="747.5" y="110.1426">SesionService</text><rect fill="#E2E2F0" height="31.6094" rx="2.5" ry="2.5" style="stroke:#181818;stroke-width:0.5;" width="104" x="740.5" y="733.7344"/><text fill="#000000" font-family="sans-serif" font-size="14" lengthAdjust="spacing" textLength="90" x="747.5" y="755.2676">SesionService</text><rect fill="#E2E2F0" height="31.6094" rx="2.5" ry="2.5" style="stroke:#181818;stroke-width:0.5;" width="130" x="949.5" y="88.6094"/><text fill="#000000" font-family="sans-serif" font-size="14" lengthAdjust="spacing" textLength="116" x="956.5" y="110.1426">EntregableService</text><rect fill="#E2E2F0" height="31.6094" rx="2.5" ry="2.5" style="stroke:#181818;stroke-width:0.5;" width="130" x="949.5" y="733.7344"/><text fill="#000000" font-family="sans-serif" font-size="14" lengthAdjust="spacing" textLength="116" x="956.5" y="755.2676">EntregableService</text><rect fill="#E2E2F0" height="31.6094" rx="2.5" ry="2.5" style="stroke:#181818;stroke-width:0.5;" width="138" x="1231.5" y="88.6094"/><text fill="#000000" font-family="sans-serif" font-size="14" lengthAdjust="spacing" textLength="124" x="1238.5" y="110.1426">ProyectoRepository</text><rect fill="#E2E2F0" height="31.6094" rx="2.5" ry="2.5" style="stroke:#181818;stroke-width:0.5;" width="138" x="1231.5" y="733.7344"/><text fill="#000000" font-family="sans-serif" font-size="14" lengthAdjust="spacing" textLength="124" x="1238.5" y="755.2676">ProyectoRepository</text><rect fill="#E2E2F0" height="31.6094" rx="2.5" ry="2.5" style="stroke:#181818;stroke-width:0.5;" width="151" x="1379.5" y="88.6094"/><text fill="#000000" font-family="sans-serif" font-size="14" lengthAdjust="spacing" textLength="137" x="1386.5" y="110.1426">EntregableRepository</text><rect fill="#E2E2F0" height="31.6094" rx="2.5" ry="2.5" style="stroke:#181818;stroke-width:0.5;" width="151" x="1379.5" y="733.7344"/><text fill="#000000" font-family="sans-serif" font-size="14" lengthAdjust="spacing" textLength="137" x="1386.5" y="755.2676">EntregableRepository</text><rect fill="#E2E2F0" height="31.6094" rx="2.5" ry="2.5" style="stroke:#181818;stroke-width:0.5;" width="129" x="1540.5" y="88.6094"/><text fill="#000000" font-family="sans-serif" font-size="14" lengthAdjust="spacing" textLength="115" x="1547.5" y="110.1426">ArchivoRepository</text><rect fill="#E2E2F0" height="31.6094" rx="2.5" ry="2.5" style="stroke:#181818;stroke-width:0.5;" width="129" x="1540.5" y="733.7344"/><text fill="#000000" font-family="sans-serif" font-size="14" lengthAdjust="spacing" textLength="115" x="1547.5" y="755.2676">ArchivoRepository</text><polygon fill="#181818" points="279.5,149.5703,289.5,153.5703,279.5,157.5703,283.5,153.5703" style="stroke:#181818;stroke-width:1.0;"/><line style="stroke:#181818;stroke-width:1.0;" x1="61.5" x2="285.5" y1="153.5703" y2="153.5703"/><text fill="#000000" font-family="sans-serif" font-size="13" lengthAdjust="spacing" textLength="196" x="68.5" y="148.7139">Introduce datos y archivo opcional</text><polygon fill="#181818" points="568.5,196.2734,578.5,200.2734,568.5,204.2734,572.5,200.2734" style="stroke:#181818;stroke-width:1.0;"/><line style="stroke:#181818;stroke-width:1.0;" x1="291.5" x2="574.5" y1="200.2734" y2="200.2734"/><text fill="#000000" font-family="sans-serif" font-size="13" lengthAdjust="spacing" textLength="264" x="298.5" y="179.0654">POST /api/proyectos/{proyectoId}/entregables</text><text fill="#000000" font-family="sans-serif" font-size="13" lengthAdjust="spacing" textLength="265" x="298.5" y="195.417">EntregableCreateRequest + archivo? + cookie</text><polygon fill="#181818" points="780.5,226.625,790.5,230.625,780.5,234.625,784.5,230.625" style="stroke:#181818;stroke-width:1.0;"/><line style="stroke:#181818;stroke-width:1.0;" x1="580.5" x2="786.5" y1="230.625" y2="230.625"/><text fill="#000000" font-family="sans-serif" font-size="13" lengthAdjust="spacing" textLength="188" x="587.5" y="225.7686">exigirInvestigador(authentication)</text><polygon fill="#181818" points="591.5,256.9766,581.5,260.9766,591.5,264.9766,587.5,260.9766" style="stroke:#181818;stroke-width:1.0;"/><line style="stroke:#181818;stroke-width:1.0;stroke-dasharray:2.0,2.0;" x1="585.5" x2="791.5" y1="260.9766" y2="260.9766"/><text fill="#000000" font-family="sans-serif" font-size="13" lengthAdjust="spacing" textLength="139" x="597.5" y="256.1201">Investigador autenticado</text><polygon fill="#181818" points="1002.5,287.3281,1012.5,291.3281,1002.5,295.3281,1006.5,291.3281" style="stroke:#181818;stroke-width:1.0;"/><line style="stroke:#181818;stroke-width:1.0;" x1="580.5" x2="1008.5" y1="291.3281" y2="291.3281"/><text fill="#000000" font-family="sans-serif" font-size="13" lengthAdjust="spacing" textLength="305" x="587.5" y="286.4717">crearPropio(proyectoId, datos, archivo?, investigador)</text><polygon fill="#181818" points="1288.5,317.6797,1298.5,321.6797,1288.5,325.6797,1292.5,321.6797" style="stroke:#181818;stroke-width:1.0;"/><line style="stroke:#181818;stroke-width:1.0;" x1="1014.5" x2="1294.5" y1="321.6797" y2="321.6797"/><text fill="#000000" font-family="sans-serif" font-size="13" lengthAdjust="spacing" textLength="262" x="1021.5" y="316.8232">verificarParticipacion(proyectoId, investigador)</text><polygon fill="#181818" points="1025.5,348.0313,1015.5,352.0313,1025.5,356.0313,1021.5,352.0313" style="stroke:#181818;stroke-width:1.0;"/><line style="stroke:#181818;stroke-width:1.0;stroke-dasharray:2.0,2.0;" x1="1019.5" x2="1299.5" y1="352.0313" y2="352.0313"/><text fill="#000000" font-family="sans-serif" font-size="13" lengthAdjust="spacing" textLength="205" x="1031.5" y="347.1748">Proyecto visible / acceso denegado</text><polygon fill="#181818" points="1443,378.3828,1453,382.3828,1443,386.3828,1447,382.3828" style="stroke:#181818;stroke-width:1.0;"/><line style="stroke:#181818;stroke-width:1.0;" x1="1014.5" x2="1449" y1="382.3828" y2="382.3828"/><text fill="#000000" font-family="sans-serif" font-size="13" lengthAdjust="spacing" textLength="205" x="1021.5" y="377.5264">existeTituloActivo(proyectoId, titulo)</text><line style="stroke:#181818;stroke-width:1.0;" x1="1014.5" x2="1056.5" y1="412.7344" y2="412.7344"/><line style="stroke:#181818;stroke-width:1.0;" x1="1056.5" x2="1056.5" y1="412.7344" y2="425.7344"/><line style="stroke:#181818;stroke-width:1.0;" x1="1015.5" x2="1056.5" y1="425.7344" y2="425.7344"/><polygon fill="#181818" points="1025.5,421.7344,1015.5,425.7344,1025.5,429.7344,1021.5,425.7344" style="stroke:#181818;stroke-width:1.0;"/><text fill="#000000" font-family="sans-serif" font-size="13" lengthAdjust="spacing" textLength="230" x="1021.5" y="407.8779">validarDatosYAsignarAutor(investigador)</text><path d="M10,440.7344 L71,440.7344 L71,449.0859 L61,459.0859 L10,459.0859 L10,440.7344 " fill="#EEEEEE" style="stroke:#000000;stroke-width:1.5;"/><rect fill="none" height="277" style="stroke:#000000;stroke-width:1.5;" width="1669.5" x="10" y="440.7344"/><text fill="#000000" font-family="sans-serif" font-size="13" font-weight="bold" lengthAdjust="spacing" textLength="16" x="25" y="455.2295">alt</text><text fill="#000000" font-family="sans-serif" font-size="11" font-weight="bold" lengthAdjust="spacing" textLength="260" x="86" y="454.1533">[Datos invalidos, duplicados o sin participacion]</text><polygon fill="#181818" points="591.5,477.4375,581.5,481.4375,591.5,485.4375,587.5,481.4375" style="stroke:#181818;stroke-width:1.0;"/><line style="stroke:#181818;stroke-width:1.0;stroke-dasharray:2.0,2.0;" x1="585.5" x2="1013.5" y1="481.4375" y2="481.4375"/><text fill="#000000" font-family="sans-serif" font-size="13" lengthAdjust="spacing" textLength="410" x="597.5" y="476.5811">ValidacionException / ConflictoException / AccesoDenegadoException</text><polygon fill="#181818" points="302.5,507.7891,292.5,511.7891,302.5,515.7891,298.5,511.7891" style="stroke:#181818;stroke-width:1.0;"/><line style="stroke:#181818;stroke-width:1.0;stroke-dasharray:2.0,2.0;" x1="296.5" x2="579.5" y1="511.7891" y2="511.7891"/><text fill="#000000" font-family="sans-serif" font-size="13" lengthAdjust="spacing" textLength="87" x="308.5" y="506.9326">400 / 409 / 403</text><line style="stroke:#000000;stroke-width:1.0;stroke-dasharray:2.0,2.0;" x1="10" x2="1679.5" y1="520.7891" y2="520.7891"/><text fill="#000000" font-family="sans-serif" font-size="11" font-weight="bold" lengthAdjust="spacing" textLength="81" x="15" y="532.208">[Datos validos]</text><polygon fill="#181818" points="1443,553.9766,1453,557.9766,1443,561.9766,1447,557.9766" style="stroke:#181818;stroke-width:1.0;"/><line style="stroke:#181818;stroke-width:1.0;" x1="1014.5" x2="1449" y1="557.9766" y2="557.9766"/><text fill="#000000" font-family="sans-serif" font-size="13" lengthAdjust="spacing" textLength="111" x="1021.5" y="553.1201">guardar(entregable)</text><polygon fill="#181818" points="1025.5,584.3281,1015.5,588.3281,1025.5,592.3281,1021.5,588.3281" style="stroke:#181818;stroke-width:1.0;"/><line style="stroke:#181818;stroke-width:1.0;stroke-dasharray:2.0,2.0;" x1="1019.5" x2="1454" y1="588.3281" y2="588.3281"/><text fill="#000000" font-family="sans-serif" font-size="13" lengthAdjust="spacing" textLength="105" x="1031.5" y="583.4717">Entregable creado</text><polygon fill="#181818" points="1593,614.6797,1603,618.6797,1593,622.6797,1597,618.6797" style="stroke:#181818;stroke-width:1.0;"/><line style="stroke:#181818;stroke-width:1.0;" x1="1014.5" x2="1599" y1="618.6797" y2="618.6797"/><text fill="#000000" font-family="sans-serif" font-size="13" lengthAdjust="spacing" textLength="286" x="1021.5" y="613.8232">guardarOpcional(entregable, archivo, investigador)</text><polygon fill="#181818" points="591.5,645.0313,581.5,649.0313,591.5,653.0313,587.5,649.0313" style="stroke:#181818;stroke-width:1.0;"/><line style="stroke:#181818;stroke-width:1.0;stroke-dasharray:2.0,2.0;" x1="585.5" x2="1013.5" y1="649.0313" y2="649.0313"/><text fill="#000000" font-family="sans-serif" font-size="13" lengthAdjust="spacing" textLength="160" x="597.5" y="644.1748">EntregableDetalleResponse</text><polygon fill="#181818" points="302.5,675.3828,292.5,679.3828,302.5,683.3828,298.5,679.3828" style="stroke:#181818;stroke-width:1.0;"/><line style="stroke:#181818;stroke-width:1.0;stroke-dasharray:2.0,2.0;" x1="296.5" x2="579.5" y1="679.3828" y2="679.3828"/><text fill="#000000" font-family="sans-serif" font-size="13" lengthAdjust="spacing" textLength="70" x="308.5" y="674.5264">201 Created</text><polygon fill="#181818" points="72.5,705.7344,62.5,709.7344,72.5,713.7344,68.5,709.7344" style="stroke:#181818;stroke-width:1.0;"/><line style="stroke:#181818;stroke-width:1.0;stroke-dasharray:2.0,2.0;" x1="66.5" x2="290.5" y1="709.7344" y2="709.7344"/><text fill="#000000" font-family="sans-serif" font-size="13" lengthAdjust="spacing" textLength="206" x="78.5" y="704.8779">Presenta ENTREGABLE_ABIERTO</text><!--SRC=[TLHDQzj04BthLmmvsTJ1RfjBVMXHOgSOIcri4oW4odOrKOOgkzlTbOaf_U-TNLdIoaakHkoyz-RDbptv2c51ehJYIK21u53Mg2G9k8GRYy82Ac-n5ByOQAmsf3CXlRQmKWTqdafHQ9iPOJr9Ca9vk8YyPKUxrVRfNessoBpn1GW7jrOhZweOqdh63OUjhYgqpDiPIwg4QwrFxDpGaBX3Hrhjq1v8OeGqBs_93v7nUmZTM7r4BdABHZlYOeyHcpw_fNr6UGdDhNoamxbqyffbQMVXydFNhZdtdFjIr1AX45uxE89eYA2Dv8f5bRNWGEHEpM6ptkrXAWnDpSc_c_vjFrV5lsa_O7UlaY7m53tNywTcC_2kpVI5FwNMlmapbWzPccRF0P-f99kQ7udQFx8yIU4PCiuQA5ostWQLChZ15hgNZjEPWmmhjOdhD-gzJvesJ3fl4w14CUIB_22L3cyE1xJqmAdiffrDQDz0UgYKqgF_pbeRWGCv2bSo1I4bEitdf33GKnjDUcwLyxWdNrSwbvwj3rBx61ZOxz8TH4M5i8jG-8_SKQc4pMjUfD7GiAWyH50e9712duhQLB713ZGuKc3IyZE0BcCxeRkOBaINpn9D62CNo0Vwm49Ufuzvh7fnAhgBi6gSvc2HhsOpPbpDFiNVZnbM3azsJsPJCstRobfOhdtKR-oOOIz7qYznN1oUm40iERPEStswdqIxMwlpNNYbJNt61NfHXVy1PxHo-6hr7sRleJclWkFznJ8elOYmM-ZOa83bz_rs-JM__hRycL-lbjlzEcF6Vm00]--></g></svg>