<?xml version="1.0" encoding="us-ascii" standalone="no"?><svg xmlns="http://www.w3.org/2000/svg" xmlns:xlink="http://www.w3.org/1999/xlink" contentStyleType="text/css" height="1066px" preserveAspectRatio="none" style="width:1869px;height:1066px;background:#FFFFFF;" version="1.1" viewBox="0 0 1869 1066" width="1869px" zoomAndPan="magnify"><defs/><g><text fill="#000000" font-family="sans-serif" font-size="14" font-weight="bold" lengthAdjust="spacing" textLength="346" x="762.75" y="29.5332">Diagrama de secuencia - Crear entregable propio</text><rect fill="none" height="463.8125" style="stroke:#000000;stroke-width:1.5;" width="1852.5" x="10" y="503.7891"/><line style="stroke:#181818;stroke-width:0.5;stroke-dasharray:5.0,5.0;" x1="61" x2="61" y1="121.2188" y2="984.6016"/><line style="stroke:#181818;stroke-width:0.5;stroke-dasharray:5.0,5.0;" x1="291.5" x2="291.5" y1="121.2188" y2="984.6016"/><line style="stroke:#181818;stroke-width:0.5;stroke-dasharray:5.0,5.0;" x1="580" x2="580" y1="121.2188" y2="984.6016"/><line style="stroke:#181818;stroke-width:0.5;stroke-dasharray:5.0,5.0;" x1="792.5" x2="792.5" y1="121.2188" y2="984.6016"/><line style="stroke:#181818;stroke-width:0.5;stroke-dasharray:5.0,5.0;" x1="919.5" x2="919.5" y1="121.2188" y2="984.6016"/><line style="stroke:#181818;stroke-width:0.5;stroke-dasharray:5.0,5.0;" x1="1205.5" x2="1205.5" y1="121.2188" y2="984.6016"/><line style="stroke:#181818;stroke-width:0.5;stroke-dasharray:5.0,5.0;" x1="1359.5" x2="1359.5" y1="121.2188" y2="984.6016"/><line style="stroke:#181818;stroke-width:0.5;stroke-dasharray:5.0,5.0;" x1="1509.5" x2="1509.5" y1="121.2188" y2="984.6016"/><line style="stroke:#181818;stroke-width:0.5;stroke-dasharray:5.0,5.0;" x1="1802.5" x2="1802.5" y1="121.2188" y2="984.6016"/><text fill="#000000" font-family="sans-serif" font-size="14" lengthAdjust="spacing" textLength="77" x="20" y="118.1426">Investigador</text><ellipse cx="61.5" cy="52.1094" fill="#E2E2F0" rx="8" ry="8" style="stroke:#181818;stroke-width:0.5;"/><path d="M61.5,60.1094 L61.5,87.1094 M48.5,68.1094 L74.5,68.1094 M61.5,87.1094 L48.5,102.1094 M61.5,87.1094 L74.5,102.1094 " fill="none" style="stroke:#181818;stroke-width:0.5;"/><text fill="#000000" font-family="sans-serif" font-size="14" lengthAdjust="spacing" textLength="77" x="20" y="998.1348">Investigador</text><ellipse cx="61.5" cy="1009.7109" fill="#E2E2F0" rx="8" ry="8" style="stroke:#181818;stroke-width:0.5;"/><path d="M61.5,1017.7109 L61.5,1044.7109 M48.5,1025.7109 L74.5,1025.7109 M61.5,1044.7109 L48.5,1059.7109 M61.5,1044.7109 L74.5,1059.7109 " fill="none" style="stroke:#181818;stroke-width:0.5;"/><rect fill="#E2E2F0" height="49.2188" rx="2.5" ry="2.5" style="stroke:#181818;stroke-width:0.5;" width="152" x="215.5" y="71"/><text fill="#000000" font-family="sans-serif" font-size="14" lengthAdjust="spacing" textLength="138" x="222.5" y="92.5332">CrearEntregableForm</text><text fill="#000000" font-family="sans-serif" font-size="14" lengthAdjust="spacing" textLength="47" x="268" y="110.1426">(React)</text><rect fill="#E2E2F0" height="49.2188" rx="2.5" ry="2.5" style="stroke:#181818;stroke-width:0.5;" width="152" x="215.5" y="983.6016"/><text fill="#000000" font-family="sans-serif" font-size="14" lengthAdjust="spacing" textLength="138" x="222.5" y="1005.1348">CrearEntregableForm</text><text fill="#000000" font-family="sans-serif" font-size="14" lengthAdjust="spacing" textLength="47" x="268" y="1022.7441">(React)</text><rect fill="#E2E2F0" height="49.2188" rx="2.5" ry="2.5" style="stroke:#181818;stroke-width:0.5;" width="145" x="508" y="71"/><text fill="#000000" font-family="sans-serif" font-size="14" lengthAdjust="spacing" textLength="131" x="515" y="92.5332">EntregableController</text><text fill="#000000" font-family="sans-serif" font-size="14" lengthAdjust="spacing" textLength="84" x="538.5" y="110.1426">(Spring Boot)</text><rect fill="#E2E2F0" height="49.2188" rx="2.5" ry="2.5" style="stroke:#181818;stroke-width:0.5;" width="145" x="508" y="983.6016"/><text fill="#000000" font-family="sans-serif" font-size="14" lengthAdjust="spacing" textLength="131" x="515" y="1005.1348">EntregableController</text><text fill="#000000" font-family="sans-serif" font-size="14" lengthAdjust="spacing" textLength="84" x="538.5" y="1022.7441">(Spring Boot)</text><rect fill="#E2E2F0" height="31.6094" rx="2.5" ry="2.5" style="stroke:#181818;stroke-width:0.5;" width="104" x="740.5" y="88.6094"/><text fill="#000000" font-family="sans-serif" font-size="14" lengthAdjust="spacing" textLength="90" x="747.5" y="110.1426">SesionService</text><rect fill="#E2E2F0" height="31.6094" rx="2.5" ry="2.5" style="stroke:#181818;stroke-width:0.5;" width="104" x="740.5" y="983.6016"/><text fill="#000000" font-family="sans-serif" font-size="14" lengthAdjust="spacing" textLength="90" x="747.5" y="1005.1348">SesionService</text><rect fill="#E2E2F0" height="31.6094" rx="2.5" ry="2.5" style="stroke:#181818;stroke-width:0.5;" width="130" x="854.5" y="88.6094"/><text fill="#000000" font-family="sans-serif" font-size="14" lengthAdjust="spacing" textLength="116" x="861.5" y="110.1426">EntregableService</text><rect fill="#E2E2F0" height="31.6094" rx="2.5" ry="2.5" style="stroke:#181818;stroke-width:0.5;" width="130" x="854.5" y="983.6016"/><text fill="#000000" font-family="sans-serif" font-size="14" lengthAdjust="spacing" textLength="116" x="861.5" y="1005.1348">EntregableService</text><rect fill="#E2E2F0" height="31.6094" rx="2.5" ry="2.5" style="stroke:#181818;stroke-width:0.5;" width="138" x="1136.5" y="88.6094"/><text fill="#000000" font-family="sans-serif" font-size="14" lengthAdjust="spacing" textLength="124" x="1143.5" y="110.1426">ProyectoRepository</text><rect fill="#E2E2F0" height="31.6094" rx="2.5" ry="2.5" style="stroke:#181818;stroke-width:0.5;" width="138" x="1136.5" y="983.6016"/><text fill="#000000" font-family="sans-serif" font-size="14" lengthAdjust="spacing" textLength="124" x="1143.5" y="1005.1348">ProyectoRepository</text><rect fill="#E2E2F0" height="31.6094" rx="2.5" ry="2.5" style="stroke:#181818;stroke-width:0.5;" width="151" x="1284.5" y="88.6094"/><text fill="#000000" font-family="sans-serif" font-size="14" lengthAdjust="spacing" textLength="137" x="1291.5" y="110.1426">EntregableRepository</text><rect fill="#E2E2F0" height="31.6094" rx="2.5" ry="2.5" style="stroke:#181818;stroke-width:0.5;" width="151" x="1284.5" y="983.6016"/><text fill="#000000" font-family="sans-serif" font-size="14" lengthAdjust="spacing" textLength="137" x="1291.5" y="1005.1348">EntregableRepository</text><rect fill="#E2E2F0" height="31.6094" rx="2.5" ry="2.5" style="stroke:#181818;stroke-width:0.5;" width="129" x="1445.5" y="88.6094"/><text fill="#000000" font-family="sans-serif" font-size="14" lengthAdjust="spacing" textLength="115" x="1452.5" y="110.1426">ArchivoRepository</text><rect fill="#E2E2F0" height="31.6094" rx="2.5" ry="2.5" style="stroke:#181818;stroke-width:0.5;" width="129" x="1445.5" y="983.6016"/><text fill="#000000" font-family="sans-serif" font-size="14" lengthAdjust="spacing" textLength="115" x="1452.5" y="1005.1348">ArchivoRepository</text><text fill="#000000" font-family="sans-serif" font-size="14" lengthAdjust="spacing" textLength="93" x="1753.5" y="118.1426">Base de Datos</text><path d="M1785,67.6094 C1785,57.6094 1803,57.6094 1803,57.6094 C1803,57.6094 1821,57.6094 1821,67.6094 L1821,93.6094 C1821,103.6094 1803,103.6094 1803,103.6094 C1803,103.6094 1785,103.6094 1785,93.6094 L1785,67.6094 " fill="#E2E2F0" style="stroke:#181818;stroke-width:1.5;"/><path d="M1785,67.6094 C1785,77.6094 1803,77.6094 1803,77.6094 C1803,77.6094 1821,77.6094 1821,67.6094 " fill="none" style="stroke:#181818;stroke-width:1.5;"/><text fill="#000000" font-family="sans-serif" font-size="14" lengthAdjust="spacing" textLength="93" x="1753.5" y="998.1348">Base de Datos</text><path d="M1785,1011.2109 C1785,1001.2109 1803,1001.2109 1803,1001.2109 C1803,1001.2109 1821,1001.2109 1821,1011.2109 L1821,1037.2109 C1821,1047.2109 1803,1047.2109 1803,1047.2109 C1803,1047.2109 1785,1047.2109 1785,1037.2109 L1785,1011.2109 " fill="#E2E2F0" style="stroke:#181818;stroke-width:1.5;"/><path d="M1785,1011.2109 C1785,1021.2109 1803,1021.2109 1803,1021.2109 C1803,1021.2109 1821,1021.2109 1821,1011.2109 " fill="none" style="stroke:#181818;stroke-width:1.5;"/><polygon fill="#181818" points="279.5,149.5703,289.5,153.5703,279.5,157.5703,283.5,153.5703" style="stroke:#181818;stroke-width:1.0;"/><line style="stroke:#181818;stroke-width:1.0;" x1="61.5" x2="285.5" y1="153.5703" y2="153.5703"/><text fill="#000000" font-family="sans-serif" font-size="13" lengthAdjust="spacing" textLength="196" x="68.5" y="148.7139">Introduce datos y archivo opcional</text><polygon fill="#181818" points="568.5,196.2734,578.5,200.2734,568.5,204.2734,572.5,200.2734" style="stroke:#181818;stroke-width:1.0;"/><line style="stroke:#181818;stroke-width:1.0;" x1="291.5" x2="574.5" y1="200.2734" y2="200.2734"/><text fill="#000000" font-family="sans-serif" font-size="13" lengthAdjust="spacing" textLength="264" x="298.5" y="179.0654">POST /api/proyectos/{proyectoId}/entregables</text><text fill="#000000" font-family="sans-serif" font-size="13" lengthAdjust="spacing" textLength="265" x="298.5" y="195.417">EntregableCreateRequest + archivo? + cookie</text><polygon fill="#181818" points="780.5,226.625,790.5,230.625,780.5,234.625,784.5,230.625" style="stroke:#181818;stroke-width:1.0;"/><line style="stroke:#181818;stroke-width:1.0;" x1="580.5" x2="786.5" y1="230.625" y2="230.625"/><text fill="#000000" font-family="sans-serif" font-size="13" lengthAdjust="spacing" textLength="188" x="587.5" y="225.7686">exigirInvestigador(authentication)</text><polygon fill="#181818" points="591.5,256.9766,581.5,260.9766,591.5,264.9766,587.5,260.9766" style="stroke:#181818;stroke-width:1.0;"/><line style="stroke:#181818;stroke-width:1.0;stroke-dasharray:2.0,2.0;" x1="585.5" x2="791.5" y1="260.9766" y2="260.9766"/><text fill="#000000" font-family="sans-serif" font-size="13" lengthAdjust="spacing" textLength="139" x="597.5" y="256.1201">Investigador autenticado</text><polygon fill="#181818" points="907.5,287.3281,917.5,291.3281,907.5,295.3281,911.5,291.3281" style="stroke:#181818;stroke-width:1.0;"/><line style="stroke:#181818;stroke-width:1.0;" x1="580.5" x2="913.5" y1="291.3281" y2="291.3281"/><text fill="#000000" font-family="sans-serif" font-size="13" lengthAdjust="spacing" textLength="305" x="587.5" y="286.4717">crearPropio(proyectoId, datos, archivo?, investigador)</text><polygon fill="#181818" points="1193.5,317.6797,1203.5,321.6797,1193.5,325.6797,1197.5,321.6797" style="stroke:#181818;stroke-width:1.0;"/><line style="stroke:#181818;stroke-width:1.0;" x1="919.5" x2="1199.5" y1="321.6797" y2="321.6797"/><text fill="#000000" font-family="sans-serif" font-size="13" lengthAdjust="spacing" textLength="262" x="926.5" y="316.8232">verificarParticipacion(proyectoId, investigador)</text><polygon fill="#181818" points="1791,380.7344,1801,384.7344,1791,388.7344,1795,384.7344" style="stroke:#181818;stroke-width:1.0;"/><line style="stroke:#181818;stroke-width:1.0;" x1="1205.5" x2="1797" y1="384.7344" y2="384.7344"/><text fill="#000000" font-family="sans-serif" font-size="13" lengthAdjust="spacing" textLength="246" x="1212.5" y="347.1748">SELECT 1 FROM proyecto_investigadores</text><text fill="#000000" font-family="sans-serif" font-size="13" lengthAdjust="spacing" textLength="286" x="1212.5" y="363.5264">WHERE proyecto_id = ? AND investigador_id = ?</text><text fill="#000000" font-family="sans-serif" font-size="13" lengthAdjust="spacing" textLength="102" x="1212.5" y="379.8779">AND activo = true</text><polygon fill="#181818" points="1216.5,411.0859,1206.5,415.0859,1216.5,419.0859,1212.5,415.0859" style="stroke:#181818;stroke-width:1.0;"/><line style="stroke:#181818;stroke-width:1.0;stroke-dasharray:2.0,2.0;" x1="1210.5" x2="1802" y1="415.0859" y2="415.0859"/><text fill="#000000" font-family="sans-serif" font-size="13" lengthAdjust="spacing" textLength="116" x="1222.5" y="410.2295">Participacion / vacio</text><polygon fill="#181818" points="930.5,441.4375,920.5,445.4375,930.5,449.4375,926.5,445.4375" style="stroke:#181818;stroke-width:1.0;"/><line style="stroke:#181818;stroke-width:1.0;stroke-dasharray:2.0,2.0;" x1="924.5" x2="1204.5" y1="445.4375" y2="445.4375"/><text fill="#000000" font-family="sans-serif" font-size="13" lengthAdjust="spacing" textLength="205" x="936.5" y="440.5811">Proyecto visible / acceso denegado</text><line style="stroke:#181818;stroke-width:1.0;" x1="919.5" x2="961.5" y1="475.7891" y2="475.7891"/><line style="stroke:#181818;stroke-width:1.0;" x1="961.5" x2="961.5" y1="475.7891" y2="488.7891"/><line style="stroke:#181818;stroke-width:1.0;" x1="920.5" x2="961.5" y1="488.7891" y2="488.7891"/><polygon fill="#181818" points="930.5,484.7891,920.5,488.7891,930.5,492.7891,926.5,488.7891" style="stroke:#181818;stroke-width:1.0;"/><text fill="#000000" font-family="sans-serif" font-size="13" lengthAdjust="spacing" textLength="230" x="926.5" y="470.9326">validarDatosYAsignarAutor(investigador)</text><path d="M10,503.7891 L71,503.7891 L71,512.1406 L61,522.1406 L10,522.1406 L10,503.7891 " fill="#EEEEEE" style="stroke:#000000;stroke-width:1.5;"/><rect fill="none" height="463.8125" style="stroke:#000000;stroke-width:1.5;" width="1852.5" x="10" y="503.7891"/><text fill="#000000" font-family="sans-serif" font-size="13" font-weight="bold" lengthAdjust="spacing" textLength="16" x="25" y="518.2842">alt</text><text fill="#000000" font-family="sans-serif" font-size="11" font-weight="bold" lengthAdjust="spacing" textLength="194" x="86" y="517.208">[Datos invalidos o sin participacion]</text><polygon fill="#181818" points="591.5,540.4922,581.5,544.4922,591.5,548.4922,587.5,544.4922" style="stroke:#181818;stroke-width:1.0;"/><line style="stroke:#181818;stroke-width:1.0;stroke-dasharray:2.0,2.0;" x1="585.5" x2="918.5" y1="544.4922" y2="544.4922"/><text fill="#000000" font-family="sans-serif" font-size="13" lengthAdjust="spacing" textLength="290" x="597.5" y="539.6357">ValidacionException / AccesoDenegadoException</text><polygon fill="#181818" points="302.5,570.8438,292.5,574.8438,302.5,578.8438,298.5,574.8438" style="stroke:#181818;stroke-width:1.0;"/><line style="stroke:#181818;stroke-width:1.0;stroke-dasharray:2.0,2.0;" x1="296.5" x2="579.5" y1="574.8438" y2="574.8438"/><text fill="#000000" font-family="sans-serif" font-size="13" lengthAdjust="spacing" textLength="54" x="308.5" y="569.9873">400 / 403</text><line style="stroke:#000000;stroke-width:1.0;stroke-dasharray:2.0,2.0;" x1="10" x2="1862.5" y1="583.8438" y2="583.8438"/><text fill="#000000" font-family="sans-serif" font-size="11" font-weight="bold" lengthAdjust="spacing" textLength="81" x="15" y="595.2627">[Datos validos]</text><polygon fill="#181818" points="1348,617.0313,1358,621.0313,1348,625.0313,1352,621.0313" style="stroke:#181818;stroke-width:1.0;"/><line style="stroke:#181818;stroke-width:1.0;" x1="919.5" x2="1354" y1="621.0313" y2="621.0313"/><text fill="#000000" font-family="sans-serif" font-size="13" lengthAdjust="spacing" textLength="111" x="926.5" y="616.1748">guardar(entregable)</text><polygon fill="#181818" points="1791,680.0859,1801,684.0859,1791,688.0859,1795,684.0859" style="stroke:#181818;stroke-width:1.0;"/><line style="stroke:#181818;stroke-width:1.0;" x1="1360" x2="1797" y1="684.0859" y2="684.0859"/><text fill="#000000" font-family="sans-serif" font-size="13" lengthAdjust="spacing" textLength="150" x="1367" y="646.5264">INSERT INTO entregables</text><text fill="#000000" font-family="sans-serif" font-size="13" lengthAdjust="spacing" textLength="290" x="1367" y="662.8779">(proyecto_id, titulo, descripcion, autor_id, retirado)</text><text fill="#000000" font-family="sans-serif" font-size="13" lengthAdjust="spacing" textLength="151" x="1367" y="679.2295">VALUES (?, ?, ?, ?, false)</text><polygon fill="#181818" points="1371,710.4375,1361,714.4375,1371,718.4375,1367,714.4375" style="stroke:#181818;stroke-width:1.0;"/><line style="stroke:#181818;stroke-width:1.0;stroke-dasharray:2.0,2.0;" x1="1365" x2="1802" y1="714.4375" y2="714.4375"/><text fill="#000000" font-family="sans-serif" font-size="13" lengthAdjust="spacing" textLength="146" x="1377" y="709.5811">Entregable creado con ID</text><polygon fill="#181818" points="930.5,740.7891,920.5,744.7891,930.5,748.7891,926.5,744.7891" style="stroke:#181818;stroke-width:1.0;"/><line style="stroke:#181818;stroke-width:1.0;stroke-dasharray:2.0,2.0;" x1="924.5" x2="1359" y1="744.7891" y2="744.7891"/><text fill="#000000" font-family="sans-serif" font-size="13" lengthAdjust="spacing" textLength="105" x="936.5" y="739.9326">Entregable creado</text><polygon fill="#181818" points="1498,771.1406,1508,775.1406,1498,779.1406,1502,775.1406" style="stroke:#181818;stroke-width:1.0;"/><line style="stroke:#181818;stroke-width:1.0;" x1="919.5" x2="1504" y1="775.1406" y2="775.1406"/><text fill="#000000" font-family="sans-serif" font-size="13" lengthAdjust="spacing" textLength="286" x="926.5" y="770.2842">guardarOpcional(entregable, archivo, investigador)</text><polygon fill="#181818" points="1791,834.1953,1801,838.1953,1791,842.1953,1795,838.1953" style="stroke:#181818;stroke-width:1.0;"/><line style="stroke:#181818;stroke-width:1.0;" x1="1510" x2="1797" y1="838.1953" y2="838.1953"/><text fill="#000000" font-family="sans-serif" font-size="13" lengthAdjust="spacing" textLength="197" x="1517" y="800.6357">INSERT INTO archivos_entregable</text><text fill="#000000" font-family="sans-serif" font-size="13" lengthAdjust="spacing" textLength="269" x="1517" y="816.9873">(entregable_id, version, archivo, subido_por_id)</text><text fill="#000000" font-family="sans-serif" font-size="13" lengthAdjust="spacing" textLength="116" x="1517" y="833.3389">VALUES (?, 1, ?, ?)</text><polygon fill="#181818" points="1521,864.5469,1511,868.5469,1521,872.5469,1517,868.5469" style="stroke:#181818;stroke-width:1.0;"/><line style="stroke:#181818;stroke-width:1.0;stroke-dasharray:2.0,2.0;" x1="1515" x2="1802" y1="868.5469" y2="868.5469"/><text fill="#000000" font-family="sans-serif" font-size="13" lengthAdjust="spacing" textLength="83" x="1527" y="863.6904">Archivo / vacio</text><polygon fill="#181818" points="591.5,894.8984,581.5,898.8984,591.5,902.8984,587.5,898.8984" style="stroke:#181818;stroke-width:1.0;"/><line style="stroke:#181818;stroke-width:1.0;stroke-dasharray:2.0,2.0;" x1="585.5" x2="918.5" y1="898.8984" y2="898.8984"/><text fill="#000000" font-family="sans-serif" font-size="13" lengthAdjust="spacing" textLength="160" x="597.5" y="894.042">EntregableDetalleResponse</text><polygon fill="#181818" points="302.5,925.25,292.5,929.25,302.5,933.25,298.5,929.25" style="stroke:#181818;stroke-width:1.0;"/><line style="stroke:#181818;stroke-width:1.0;stroke-dasharray:2.0,2.0;" x1="296.5" x2="579.5" y1="929.25" y2="929.25"/><text fill="#000000" font-family="sans-serif" font-size="13" lengthAdjust="spacing" textLength="70" x="308.5" y="924.3936">201 Created</text><polygon fill="#181818" points="72.5,955.6016,62.5,959.6016,72.5,963.6016,68.5,959.6016" style="stroke:#181818;stroke-width:1.0;"/><line style="stroke:#181818;stroke-width:1.0;stroke-dasharray:2.0,2.0;" x1="66.5" x2="290.5" y1="959.6016" y2="959.6016"/><text fill="#000000" font-family="sans-serif" font-size="13" lengthAdjust="spacing" textLength="206" x="78.5" y="954.7451">Presenta ENTREGABLE_ABIERTO</text><!--SRC=[TLJRQXin47tVhnZoP5C7EssU34bOPpUj8OsDxQOK34RPdJYY6sahQKr2wRztfBr9JWB6bZLpvdBcZ0mt1KB2sLwnPmOvWiQiGf5n1gTmhP0fG64Kxja3EPPAbbn6B3DImLmSK1k-PxbKKScKuHalcJ1mud1f1xkHwdah1YiatF04c8OR9OL1aOUm7d5DPYMB0XNXrgNYOWypAHjqNF8Gk4RDfLYZEl0CdKjzyr7uqDETGzUbagz8JQwmb9fJiw_Erx_-AFOHvArhhB8dVZWExTr6EJFiWMc4avdzfg4ap4Zj_99P5Fd4m-bbn-QKHaAqvLL688k0Ls1rN91bHeIm8cgTBP28dC9oiTx0c9LyN3RjwV7VzZZF_utx-Ukjy6P4GpRKxf-AYe5FRQOhEcPI_kOOKNYRfPx55F25xxdoYn-moZnHU9unGox3g7Q5qxQse5DohdrpsOTsmvj2PXMtTEeSzBMFQXf6NMqZu5v4cy_XRIX_jbCueEAFb4ejsz5P-eBGOIGVRiCbiociqzlqUWDdSBDQV8SMk_E1bjAVtz9Lwfbpk80hYE-I84LplnNMG8jaXte1HbKO9JF7MDX1K3YCuM0FHsNw3BOME73DxQwFAKk6MfB-1DeIVBOws84LF6VA2VHNhFbUC1LN9Ej1o0yhJArYsvJ5q4c2vW9Alz08eClIYk3UfR3Mz2N3qjJznAwufAcjir00furWBSud4qASJxv4MEXccw2fmizu2JLt-uefQchGAtz8RlvevtVhTBMXdyq2WlqOU7CSWU6cAYJ947Mck5l1aTMn6-S851gkgFhXLjp7jp_IDGn8ejtdaL6rDdCpuBguVWETwdD9woPWddGL-kDvunoswxqwNTUBvgNmkkyMw5Zru4TuZvi6ftTzCEAe_-Dee6NJDJDj5bqzq6nsfUCfPEUiPiUZ9MYY-TC9_XqzzPmaQ5XXdsnTIg7nNUrydfn1_TJbPEzVJtBoNoUxGAYfCGRftMQLVerdj-akdis9YaL4YFy0]--></g></svg>