<svg xmlns="http://www.w3.org/2000/svg" xmlns:xlink="http://www.w3.org/1999/xlink" contentStyleType="text/css" data-diagram-type="STATE" height="860px" preserveAspectRatio="none" style="width:932px;height:860px;background:#FFFFFF;" version="1.1" viewBox="0 0 932 860" width="932px" zoomAndPan="magnify"><?plantuml 1.2026.6?><defs/><g><g class="entity" data-qualified-name="in1" data-source-line="3" id="ent0001"><rect fill="#F1F1F1" height="50" rx="12.5" ry="12.5" style="stroke:#181818;stroke-width:0.5;" width="300.8545" x="311.5" y="7"/><line style="stroke:#181818;stroke-width:0.5;" x1="311.5" x2="612.3545" y1="34.6094" y2="34.6094"/><text fill="#000000" font-family="sans-serif" font-size="14" lengthAdjust="spacing" textLength="280.8545" x="321.5" y="26.5332">OPCIONES_CARGA_TRABAJO_ABIERTAS</text></g><g class="entity" data-qualified-name="editarCargaTrabajo" data-source-line="6" id="ent0002"><path d="M19.5,118 L904.5,118 A12.5,12.5 0 0 1 917,130.5 L917,145.6094 L7,145.6094 L7,130.5 A12.5,12.5 0 0 1 19.5,118" fill="#F1F1F1"/><rect fill="none" height="581.6094" rx="12.5" ry="12.5" style="stroke:#181818;stroke-width:0.5;" width="910" x="7" y="118"/><line style="stroke:#181818;stroke-width:0.5;" x1="7" x2="917" y1="145.6094" y2="145.6094"/><text fill="#000000" font-family="sans-serif" font-size="14" lengthAdjust="spacing" textLength="129.9443" x="397.0278" y="137.5332">editarCargaTrabajo()</text><g class="entity" data-qualified-name="editarCargaTrabajo.MostrandoCarga" data-source-line="8" id="ent0003"><rect fill="#F1F1F1" height="50" rx="12.5" ry="12.5" style="stroke:#181818;stroke-width:0.5;" width="50" x="287" y="248.6094"/><line style="stroke:#181818;stroke-width:0.5;" x1="287" x2="337" y1="276.2188" y2="276.2188"/><text fill="#000000" font-family="sans-serif" font-size="14" lengthAdjust="spacing" textLength="3.8896" x="310.0552" y="268.1426">&#160;</text></g><g class="entity" data-qualified-name="editarCargaTrabajo.EditandoCarga" data-source-line="9" id="ent0004"><rect fill="#F1F1F1" height="50" rx="12.5" ry="12.5" style="stroke:#181818;stroke-width:0.5;" width="50" x="287" y="386.6094"/><line style="stroke:#181818;stroke-width:0.5;" x1="287" x2="337" y1="414.2188" y2="414.2188"/><text fill="#000000" font-family="sans-serif" font-size="14" lengthAdjust="spacing" textLength="3.8896" x="310.0552" y="406.1426">&#160;</text></g><g class="entity" data-qualified-name="editarCargaTrabajo.ValidandoDatos" data-source-line="10" id="ent0005"><rect fill="#F1F1F1" height="50" rx="12.5" ry="12.5" style="stroke:#181818;stroke-width:0.5;" width="50" x="158" y="525.6094"/><line style="stroke:#181818;stroke-width:0.5;" x1="158" x2="208" y1="553.2188" y2="553.2188"/><text fill="#000000" font-family="sans-serif" font-size="14" lengthAdjust="spacing" textLength="3.8896" x="181.0552" y="545.1426">&#160;</text></g><g class="start_entity" data-qualified-name="editarCargaTrabajo..start.editarCargaTrabajo" data-source-line="12" id="ent0007"><ellipse cx="312" cy="166.6094" fill="#222222" rx="10" ry="10" style="stroke:#222222;stroke-width:1;"/></g><g class="end_entity" data-qualified-name="editarCargaTrabajo..end.editarCargaTrabajo" data-source-line="28" id="ent0011"><ellipse cx="389" cy="675.6094" fill="none" rx="11" ry="11" style="stroke:#222222;stroke-width:1;"/><ellipse cx="389" cy="675.6094" fill="#222222" rx="6" ry="6" style="stroke:#222222;stroke-width:1;"/></g><!--link *start*editarCargaTrabajo to MostrandoCarga--><g class="link" data-entity-1="ent0007" data-entity-2="ent0003" data-link-type="dependency" data-source-line="12" id="lnk8"><path d="M312,176.9294 C312,192.7894 312,220.5194 312,243.2494" fill="none" id="*start*editarCargaTrabajo-to-MostrandoCarga" style="stroke:#008000;stroke-width:1;"/><polygon fill="#008000" points="312,248.2494,316,239.2494,312,243.2494,308,239.2494,312,248.2494" style="stroke:#008000;stroke-width:1;stroke-linejoin:miter;stroke-miterlimit:10;"/><path d="M317,199.6094 L317,225.6094 L609,225.6094 L609,209.6094 L599,199.6094 L317,199.6094" fill="#FEFFDD" style="stroke:#181818;stroke-width:0.5;"/><path d="M599,199.6094 L599,209.6094 L609,209.6094 L599,199.6094" fill="#FEFFDD" style="stroke:#181818;stroke-width:0.5;"/><text fill="#000000" font-family="sans-serif" font-size="13" font-weight="700" lengthAdjust="spacing" textLength="77.2954" x="323" y="218.1045">Investigador</text><text fill="#000000" font-family="sans-serif" font-size="13" lengthAdjust="spacing" textLength="190.7725" x="403.9072" y="218.1045">solicita editar su carga de trabajo</text></g><!--link MostrandoCarga to EditandoCarga--><g class="link" data-entity-1="ent0003" data-entity-2="ent0004" data-link-type="dependency" data-source-line="17" id="lnk9"><path d="M312,298.6094 C312,323.3194 312,356.6094 312,381.3894" fill="none" id="MostrandoCarga-to-EditandoCarga" style="stroke:#008000;stroke-width:1;"/><polygon fill="#008000" points="312,386.3894,316,377.3894,312,381.3894,308,377.3894,312,386.3894" style="stroke:#008000;stroke-width:1;stroke-linejoin:miter;stroke-miterlimit:10;"/><path d="M317,321.6094 L317,363.6094 L591,363.6094 L591,331.6094 L581,321.6094 L317,321.6094" fill="#FEFFDD" style="stroke:#181818;stroke-width:0.5;"/><path d="M581,321.6094 L581,331.6094 L591,331.6094 L581,321.6094" fill="#FEFFDD" style="stroke:#181818;stroke-width:0.5;"/><text fill="#000000" font-family="sans-serif" font-size="13" font-weight="700" lengthAdjust="spacing" textLength="49.8608" x="323" y="340.1045">Sistema</text><text fill="#000000" font-family="sans-serif" font-size="13" lengthAdjust="spacing" textLength="200.186" x="376.4727" y="340.1045">presenta la carga de trabajo actual</text><text fill="#000000" font-family="sans-serif" font-size="13" font-weight="700" lengthAdjust="spacing" textLength="49.8608" x="323" y="356.4561">Sistema</text><text fill="#000000" font-family="sans-serif" font-size="13" lengthAdjust="spacing" textLength="190.0234" x="376.4727" y="356.4561">permite introducir modificaciones</text></g><!--link EditandoCarga to ValidandoDatos--><g class="link" data-entity-1="ent0004" data-entity-2="ent0005" data-link-type="dependency" data-source-line="23" id="lnk10"><path d="M286.93,416.1894 C215.84,426.3494 18,454.6094 18,454.6094 C18,454.6094 18,506.6094 18,506.6094 C18,506.6094 106.9416,529.7884 153.1016,541.8184" fill="none" id="EditandoCarga-to-ValidandoDatos" style="stroke:#008000;stroke-width:1;"/><polygon fill="#008000" points="157.94,543.0794,150.2397,536.9389,153.1016,541.8184,148.2221,544.6804,157.94,543.0794" style="stroke:#008000;stroke-width:1;stroke-linejoin:miter;stroke-miterlimit:10;"/><path d="M23,467.6094 L23,493.6094 L285,493.6094 L285,477.6094 L275,467.6094 L23,467.6094" fill="#FEFFDD" style="stroke:#181818;stroke-width:0.5;"/><path d="M275,467.6094 L275,477.6094 L285,477.6094 L275,467.6094" fill="#FEFFDD" style="stroke:#181818;stroke-width:0.5;"/><text fill="#000000" font-family="sans-serif" font-size="13" font-weight="700" lengthAdjust="spacing" textLength="77.2954" x="29" y="486.1045">Investigador</text><text fill="#000000" font-family="sans-serif" font-size="13" lengthAdjust="spacing" textLength="160.4053" x="109.9072" y="486.1045">solicita guardar los cambios</text></g><!--link ValidandoDatos to *end*editarCargaTrabajo--><g class="link" data-entity-1="ent0005" data-entity-2="ent0011" data-link-type="dependency" data-source-line="28" id="lnk12"><path d="M183.26,576.0694 C183.55,604.2194 184,646.6094 184,646.6094 C184,646.6094 331.136,666.7029 373.316,672.4629" fill="none" id="ValidandoDatos-to-*end*editarCargaTrabajo" style="stroke:#008000;stroke-width:1;"/><polygon fill="#008000" points="378.27,673.1394,369.894,667.9584,373.316,672.4629,368.8116,675.8849,378.27,673.1394" style="stroke:#008000;stroke-width:1;stroke-linejoin:miter;stroke-miterlimit:10;"/><path d="M189,599.6094 L189,641.6094 L576,641.6094 L576,609.6094 L566,599.6094 L189,599.6094" fill="#FEFFDD" style="stroke:#181818;stroke-width:0.5;"/><path d="M566,599.6094 L566,609.6094 L576,609.6094 L566,599.6094" fill="#FEFFDD" style="stroke:#181818;stroke-width:0.5;"/><text fill="#000000" font-family="sans-serif" font-size="13" font-weight="700" lengthAdjust="spacing" textLength="49.8608" x="195" y="618.1045">Sistema</text><text fill="#000000" font-family="sans-serif" font-size="13" lengthAdjust="spacing" textLength="312.8887" x="248.4727" y="618.1045">permite solicitar la actualizaci&#243;n de la carga de trabajo</text><text fill="#000000" font-family="sans-serif" font-size="13" font-weight="700" lengthAdjust="spacing" textLength="49.8608" x="195" y="634.4561">Sistema</text><text fill="#000000" font-family="sans-serif" font-size="13" lengthAdjust="spacing" textLength="231.2642" x="248.4727" y="634.4561">presenta la carga de trabajo actualizada</text></g><!--link ValidandoDatos to EditandoCarga--><g class="link" data-entity-1="ent0005" data-entity-2="ent0004" data-link-type="dependency" data-source-line="34" id="lnk13"><path d="M208.09,539.5294 C239.71,526.8194 290,506.6094 290,506.6094 C290,506.6094 298.6819,469.5381 305.1919,441.6881" fill="none" id="ValidandoDatos-to-EditandoCarga" style="stroke:#FF0000;stroke-width:1;"/><polygon fill="#FF0000" points="306.33,436.8194,300.3864,444.6727,305.1919,441.6881,308.1765,446.4936,306.33,436.8194" style="stroke:#FF0000;stroke-width:1;stroke-linejoin:miter;stroke-miterlimit:10;"/><path d="M307,459.6094 L307,501.6094 L565,501.6094 L565,469.6094 L555,459.6094 L307,459.6094" fill="#FEFFDD" style="stroke:#181818;stroke-width:0.5;"/><path d="M555,459.6094 L555,469.6094 L565,469.6094 L555,459.6094" fill="#FEFFDD" style="stroke:#181818;stroke-width:0.5;"/><text fill="#000000" font-family="sans-serif" font-size="13" font-weight="700" lengthAdjust="spacing" textLength="49.8608" x="313" y="478.1045">Sistema</text><text fill="#000000" font-family="sans-serif" font-size="13" lengthAdjust="spacing" textLength="183.5298" x="366.4727" y="478.1045">muestra errores de introducci&#243;n</text><text fill="#000000" font-family="sans-serif" font-size="13" font-weight="700" lengthAdjust="spacing" textLength="49.8608" x="313" y="494.4561">Sistema</text><text fill="#000000" font-family="sans-serif" font-size="13" lengthAdjust="spacing" textLength="177.7344" x="366.4727" y="494.4561">permite introducir correcciones</text></g><!--link EditandoCarga to *end*editarCargaTrabajo--><g class="link" data-entity-1="ent0004" data-entity-2="ent0011" data-link-type="dependency" data-source-line="40" id="lnk14"><path d="M337.12,416.6394 C402.7,427.1494 574,454.6094 574,454.6094 C574,454.6094 581,594.6094 581,594.6094 C581,594.6094 581,646.6094 581,646.6094 C581,646.6094 445.4377,666.3783 404.8177,672.2983" fill="none" id="EditandoCarga-to-*end*editarCargaTrabajo" style="stroke:#FF0000;stroke-width:1;"/><polygon fill="#FF0000" points="399.87,673.0194,409.3528,675.6796,404.8177,672.2983,408.199,667.7632,399.87,673.0194" style="stroke:#FF0000;stroke-width:1;stroke-linejoin:miter;stroke-miterlimit:10;"/><path d="M585,529.6094 L585,571.6094 L893,571.6094 L893,539.6094 L883,529.6094 L585,529.6094" fill="#FEFFDD" style="stroke:#181818;stroke-width:0.5;"/><path d="M883,529.6094 L883,539.6094 L893,539.6094 L883,529.6094" fill="#FEFFDD" style="stroke:#181818;stroke-width:0.5;"/><text fill="#000000" font-family="sans-serif" font-size="13" font-weight="700" lengthAdjust="spacing" textLength="77.2954" x="591" y="548.1045">Investigador</text><text fill="#000000" font-family="sans-serif" font-size="13" lengthAdjust="spacing" textLength="151.0234" x="671.9072" y="548.1045">solicita cancelar la edici&#243;n</text><text fill="#000000" font-family="sans-serif" font-size="13" font-weight="700" lengthAdjust="spacing" textLength="49.8608" x="591" y="564.4561">Sistema</text><text fill="#000000" font-family="sans-serif" font-size="13" lengthAdjust="spacing" textLength="234.1333" x="644.4727" y="564.4561">presenta la carga de trabajo sin cambios</text></g></g><g class="entity" data-qualified-name="OPCIONES_CARGA_TRABAJO_ABIERTAS" data-source-line="47" id="ent0015"><rect fill="#F1F1F1" height="50" rx="12.5" ry="12.5" style="stroke:#181818;stroke-width:0.5;" width="300.8545" x="161.5" y="796"/><line style="stroke:#181818;stroke-width:0.5;" x1="161.5" x2="462.3545" y1="823.6094" y2="823.6094"/><text fill="#000000" font-family="sans-serif" font-size="14" lengthAdjust="spacing" textLength="280.8545" x="171.5" y="815.5332">OPCIONES_CARGA_TRABAJO_ABIERTAS</text></g><g class="entity" data-qualified-name="PANEL_PRINCIPAL_ABIERTO" data-source-line="57" id="ent0018"><rect fill="#F1F1F1" height="50" rx="12.5" ry="12.5" style="stroke:#181818;stroke-width:0.5;" width="216.8477" x="529.5" y="796"/><line style="stroke:#181818;stroke-width:0.5;" x1="529.5" x2="746.3477" y1="823.6094" y2="823.6094"/><text fill="#000000" font-family="sans-serif" font-size="14" lengthAdjust="spacing" textLength="196.8477" x="539.5" y="815.5332">PANEL_PRINCIPAL_ABIERTO</text></g><!--link in1 to editarCargaTrabajo--><g class="link" data-entity-1="ent0001" data-entity-2="ent0002" data-link-type="dependency" data-source-line="4" id="lnk6"><path d="M462,57.03 C462,72.06 462,88.21 462,112.77" fill="none" id="in1-to-editarCargaTrabajo" style="stroke:#008000;stroke-width:1;"/><polygon fill="#008000" points="462,117.77,466,108.77,462,112.77,458,108.77,462,117.77" style="stroke:#008000;stroke-width:1;stroke-linejoin:miter;stroke-miterlimit:10;"/></g><!--link editarCargaTrabajo to OPCIONES_CARGA_TRABAJO_ABIERTAS--><g class="link" data-entity-1="ent0002" data-entity-2="ent0015" data-link-type="dependency" data-source-line="47" id="lnk16"><path d="M295.15,700.18 C284.54,718.63 278,730 278,730 C278,730 278,766 278,766 C278,766 285.0755,777.2391 294.1255,791.6091" fill="none" id="editarCargaTrabajo-to-OPCIONES_CARGA_TRABAJO_ABIERTAS" style="stroke:#008000;stroke-width:1;"/><polygon fill="#008000" points="296.79,795.84,295.3785,786.0928,294.1255,791.6091,288.6091,790.3561,296.79,795.84" style="stroke:#008000;stroke-width:1;stroke-linejoin:miter;stroke-miterlimit:10;"/><path d="M283,735 L283,761 L414,761 L414,745 L404,735 L283,735" fill="#FEFFDD" style="stroke:#181818;stroke-width:0.5;"/><path d="M404,735 L404,745 L414,745 L404,735" fill="#FEFFDD" style="stroke:#181818;stroke-width:0.5;"/><text fill="#000000" font-family="sans-serif" font-size="13" lengthAdjust="spacing" textLength="110.5571" x="289" y="753.4951">Edici&#243;n confirmada</text></g><!--link editarCargaTrabajo to OPCIONES_CARGA_TRABAJO_ABIERTAS--><g class="link" data-entity-1="ent0002" data-entity-2="ent0015" data-link-type="dependency" data-source-line="52" id="lnk17"><path d="M430.2,700.29 C425.94,739.19 423,766 423,766 C423,766 395.7065,779.2834 366.1565,793.6534" fill="none" id="editarCargaTrabajo-to-OPCIONES_CARGA_TRABAJO_ABIERTAS-1" style="stroke:#FF0000;stroke-width:1;"/><polygon fill="#FF0000" points="361.66,795.84,371.503,795.5013,366.1565,793.6534,368.0044,788.3069,361.66,795.84" style="stroke:#FF0000;stroke-width:1;stroke-linejoin:miter;stroke-miterlimit:10;"/><path d="M431,735 L431,761 L557,761 L557,745 L547,735 L431,735" fill="#FEFFDD" style="stroke:#181818;stroke-width:0.5;"/><path d="M547,735 L547,745 L557,745 L547,735" fill="#FEFFDD" style="stroke:#181818;stroke-width:0.5;"/><text fill="#000000" font-family="sans-serif" font-size="13" lengthAdjust="spacing" textLength="105.5171" x="437" y="753.4951">Edici&#243;n cancelada</text></g><!--link editarCargaTrabajo to PANEL_PRINCIPAL_ABIERTO--><g class="link" data-entity-1="ent0002" data-entity-2="ent0018" data-link-type="dependency" data-source-line="57" id="lnk19"><path d="M586.5,700.03 C603.47,739.55 616.2576,769.3555 625.5776,791.0655" fill="none" id="editarCargaTrabajo-to-PANEL_PRINCIPAL_ABIERTO" style="stroke:#008000;stroke-width:1;"/><polygon fill="#008000" points="627.55,795.66,627.6753,785.8119,625.5776,791.0655,620.3241,788.9678,627.55,795.66" style="stroke:#008000;stroke-width:1;stroke-linejoin:miter;stroke-miterlimit:10;"/><path d="M617,735 L617,761 L755,761 L755,745 L745,735 L617,735" fill="#FEFFDD" style="stroke:#181818;stroke-width:0.5;"/><path d="M745,735 L745,745 L755,745 L745,735" fill="#FEFFDD" style="stroke:#181818;stroke-width:0.5;"/><text fill="#000000" font-family="sans-serif" font-size="13" lengthAdjust="spacing" textLength="117.7681" x="623" y="753.4951">abrirPanelPrincipal()</text></g><?plantuml-src dPJVRjCm5CRlynHMkTcG9iJzL2ah4IeQRTHMt4nJTMAVLOSvTdJi80t4K_48l1XsaZ92qX6QNCL_plTzl-FOFPAfWA4KcWpwfmf5PVLJ_4WIvy6Z8FDMW1EpTRvOhbVPThz8D-_J_MwJtgGVrllqPfbjTkbsbiI5LtUl3enexg_c0XLvu0Nm0NOC1NosnvB3cKPXE7nnEHFVaaI4fzqv2szO-j4wps2KRHOFvxDOwVJq9z2aulmxyDQrzUzUt_VSZqWO6qfO4r4zDWFNnNnflg3pT01b-VfDCHVEQf91lGifN2rah20K2jzXY7lHgAPWgzvNwnaPPXdpiINdiOJ6GiNeq0GB6WRQ0gIlGOzkGowfQRXdgsf9B4ghw84aIB86tOZldhcUxRyO_p-_Gmsi0a1jNKXH5cJ73FHbUWv2HwVXwd8VbJboQp7Hrn3zvmyJ0Ox0F1D-gAfWKXP6TTuHA6kC1qeWims6eeTZMvj04_ilBJFAwTtl_Bv4_dJ39HY9kiKVVfxJFbyYxCYCdvRlIJ9oxVnvNlvnmIMzD5bdC20o3yHbxEWpd76bZiwPEYsT2JA_0-NfAhlTvvlbQh7CqzjEOTqNW8A9Sp2eSoOZgG9zSVciyGi0?></g></svg>