<svg xmlns="http://www.w3.org/2000/svg" xmlns:xlink="http://www.w3.org/1999/xlink" contentStyleType="text/css" height="1167px" preserveAspectRatio="none" style="width:1826px;height:1167px;background:#FFFFFF;" version="1.1" viewBox="0 0 1826 1167" width="1826px" zoomAndPan="magnify"><title>Diagrama de secuencia - Editar perfil propio del Coordinador</title><defs/><g><text fill="#000000" font-family="sans-serif" font-size="14" font-weight="bold" lengthAdjust="spacing" textLength="405.3027" x="711.7048" y="29.5332">Diagrama de secuencia - Editar perfil propio del Coordinador</text><rect fill="#FFFFFF" height="922.0313" style="stroke:#181818;stroke-width:1;" width="10" x="396.21" y="153.5703"/><rect fill="#FFFFFF" height="532.3281" style="stroke:#181818;stroke-width:1;" width="10" x="703.3369" y="347.6797"/><rect fill="#FFFFFF" height="55.7031" style="stroke:#181818;stroke-width:1;" width="10" x="983.1602" y="378.0313"/><rect fill="#FFFFFF" height="369.2188" style="stroke:#181818;stroke-width:1;" width="10" x="1091.1943" y="464.0859"/><rect fill="#FFFFFF" height="211.4609" style="stroke:#181818;stroke-width:1;" width="10" x="1324.6714" y="591.4922"/><rect fill="none" height="675.5703" style="stroke:#000000;stroke-width:1.5;" width="1809.7124" x="10" y="393.0313"/><line style="stroke:#181818;stroke-width:0.5;stroke-dasharray:5.0,5.0;" x1="61" x2="61" y1="121.2188" y2="1085.6016"/><line style="stroke:#181818;stroke-width:0.5;stroke-dasharray:5.0,5.0;" x1="400.6445" x2="400.6445" y1="121.2188" y2="1085.6016"/><line style="stroke:#181818;stroke-width:0.5;stroke-dasharray:5.0,5.0;" x1="708.0439" x2="708.0439" y1="121.2188" y2="1085.6016"/><line style="stroke:#181818;stroke-width:0.5;stroke-dasharray:5.0,5.0;" x1="987.4155" x2="987.4155" y1="121.2188" y2="1085.6016"/><line style="stroke:#181818;stroke-width:0.5;stroke-dasharray:5.0,5.0;" x1="1095.9048" x2="1095.9048" y1="121.2188" y2="1085.6016"/><line style="stroke:#181818;stroke-width:0.5;stroke-dasharray:5.0,5.0;" x1="1329.0923" x2="1329.0923" y1="121.2188" y2="1085.6016"/><line style="stroke:#181818;stroke-width:0.5;stroke-dasharray:5.0,5.0;" x1="1759.8784" x2="1759.8784" y1="121.2188" y2="1085.6016"/><text fill="#000000" font-family="sans-serif" font-size="14" lengthAdjust="spacing" textLength="77.0479" x="20" y="118.1426">Coordinador</text><ellipse cx="61.5239" cy="52.1094" fill="#E2E2F0" rx="8" ry="8" style="stroke:#181818;stroke-width:0.5;"/><path d="M61.5239,60.1094 L61.5239,87.1094 M48.5239,68.1094 L74.5239,68.1094 M61.5239,87.1094 L48.5239,102.1094 M61.5239,87.1094 L74.5239,102.1094 " fill="none" style="stroke:#181818;stroke-width:0.5;"/><text fill="#000000" font-family="sans-serif" font-size="14" lengthAdjust="spacing" textLength="77.0479" x="20" y="1099.1348">Coordinador</text><ellipse cx="61.5239" cy="1110.7109" fill="#E2E2F0" rx="8" ry="8" style="stroke:#181818;stroke-width:0.5;"/><path d="M61.5239,1118.7109 L61.5239,1145.7109 M48.5239,1126.7109 L74.5239,1126.7109 M61.5239,1145.7109 L48.5239,1160.7109 M61.5239,1145.7109 L74.5239,1160.7109 " fill="none" style="stroke:#181818;stroke-width:0.5;"/><rect fill="#E2E2F0" height="49.2188" rx="2.5" ry="2.5" style="stroke:#181818;stroke-width:0.5;" width="115.1309" x="343.6445" y="71"/><text fill="#000000" font-family="sans-serif" font-size="14" lengthAdjust="spacing" textLength="101.1309" x="350.6445" y="92.5332">EditarPerfilForm</text><text fill="#000000" font-family="sans-serif" font-size="14" lengthAdjust="spacing" textLength="45.8965" x="378.2617" y="110.1426">(React)</text><rect fill="#E2E2F0" height="49.2188" rx="2.5" ry="2.5" style="stroke:#181818;stroke-width:0.5;" width="115.1309" x="343.6445" y="1084.6016"/><text fill="#000000" font-family="sans-serif" font-size="14" lengthAdjust="spacing" textLength="101.1309" x="350.6445" y="1106.1348">EditarPerfilForm</text><text fill="#000000" font-family="sans-serif" font-size="14" lengthAdjust="spacing" textLength="45.8965" x="378.2617" y="1123.7441">(React)</text><rect fill="#E2E2F0" height="49.2188" rx="2.5" ry="2.5" style="stroke:#181818;stroke-width:0.5;" width="106.5859" x="655.0439" y="71"/><text fill="#000000" font-family="sans-serif" font-size="14" lengthAdjust="spacing" textLength="92.5859" x="662.0439" y="92.5332">PerfilController</text><text fill="#000000" font-family="sans-serif" font-size="14" lengthAdjust="spacing" textLength="82.4824" x="667.0957" y="110.1426">(Spring Boot)</text><rect fill="#E2E2F0" height="49.2188" rx="2.5" ry="2.5" style="stroke:#181818;stroke-width:0.5;" width="106.5859" x="655.0439" y="1084.6016"/><text fill="#000000" font-family="sans-serif" font-size="14" lengthAdjust="spacing" textLength="92.5859" x="662.0439" y="1106.1348">PerfilController</text><text fill="#000000" font-family="sans-serif" font-size="14" lengthAdjust="spacing" textLength="82.4824" x="667.0957" y="1123.7441">(Spring Boot)</text><rect fill="#E2E2F0" height="31.6094" rx="2.5" ry="2.5" style="stroke:#181818;stroke-width:0.5;" width="103.4893" x="936.4155" y="88.6094"/><text fill="#000000" font-family="sans-serif" font-size="14" lengthAdjust="spacing" textLength="89.4893" x="943.4155" y="110.1426">SesionService</text><rect fill="#E2E2F0" height="31.6094" rx="2.5" ry="2.5" style="stroke:#181818;stroke-width:0.5;" width="103.4893" x="936.4155" y="1084.6016"/><text fill="#000000" font-family="sans-serif" font-size="14" lengthAdjust="spacing" textLength="89.4893" x="943.4155" y="1106.1348">SesionService</text><rect fill="#E2E2F0" height="31.6094" rx="2.5" ry="2.5" style="stroke:#181818;stroke-width:0.5;" width="92.5791" x="1049.9048" y="88.6094"/><text fill="#000000" font-family="sans-serif" font-size="14" lengthAdjust="spacing" textLength="78.5791" x="1056.9048" y="110.1426">PerfilService</text><rect fill="#E2E2F0" height="31.6094" rx="2.5" ry="2.5" style="stroke:#181818;stroke-width:0.5;" width="92.5791" x="1049.9048" y="1084.6016"/><text fill="#000000" font-family="sans-serif" font-size="14" lengthAdjust="spacing" textLength="78.5791" x="1056.9048" y="1106.1348">PerfilService</text><rect fill="#E2E2F0" height="31.6094" rx="2.5" ry="2.5" style="stroke:#181818;stroke-width:0.5;" width="129.1582" x="1265.0923" y="88.6094"/><text fill="#000000" font-family="sans-serif" font-size="14" lengthAdjust="spacing" textLength="115.1582" x="1272.0923" y="110.1426">UsuarioRepository</text><rect fill="#E2E2F0" height="31.6094" rx="2.5" ry="2.5" style="stroke:#181818;stroke-width:0.5;" width="129.1582" x="1265.0923" y="1084.6016"/><text fill="#000000" font-family="sans-serif" font-size="14" lengthAdjust="spacing" textLength="115.1582" x="1272.0923" y="1106.1348">UsuarioRepository</text><text fill="#000000" font-family="sans-serif" font-size="14" lengthAdjust="spacing" textLength="91.834" x="1711.8784" y="118.1426">Base de Datos</text><path d="M1742.7954,67.6094 C1742.7954,57.6094 1760.7954,57.6094 1760.7954,57.6094 C1760.7954,57.6094 1778.7954,57.6094 1778.7954,67.6094 L1778.7954,93.6094 C1778.7954,103.6094 1760.7954,103.6094 1760.7954,103.6094 C1760.7954,103.6094 1742.7954,103.6094 1742.7954,93.6094 L1742.7954,67.6094 " fill="#E2E2F0" style="stroke:#181818;stroke-width:1.5;"/><path d="M1742.7954,67.6094 C1742.7954,77.6094 1760.7954,77.6094 1760.7954,77.6094 C1760.7954,77.6094 1778.7954,77.6094 1778.7954,67.6094 " fill="none" style="stroke:#181818;stroke-width:1.5;"/><text fill="#000000" font-family="sans-serif" font-size="14" lengthAdjust="spacing" textLength="91.834" x="1711.8784" y="1099.1348">Base de Datos</text><path d="M1742.7954,1112.2109 C1742.7954,1102.2109 1760.7954,1102.2109 1760.7954,1102.2109 C1760.7954,1102.2109 1778.7954,1102.2109 1778.7954,1112.2109 L1778.7954,1138.2109 C1778.7954,1148.2109 1760.7954,1148.2109 1760.7954,1148.2109 C1760.7954,1148.2109 1742.7954,1148.2109 1742.7954,1138.2109 L1742.7954,1112.2109 " fill="#E2E2F0" style="stroke:#181818;stroke-width:1.5;"/><path d="M1742.7954,1112.2109 C1742.7954,1122.2109 1760.7954,1122.2109 1760.7954,1122.2109 C1760.7954,1122.2109 1778.7954,1122.2109 1778.7954,1112.2109 " fill="none" style="stroke:#181818;stroke-width:1.5;"/><rect fill="#FFFFFF" height="922.0313" style="stroke:#181818;stroke-width:1;" width="10" x="396.21" y="153.5703"/><rect fill="#FFFFFF" height="532.3281" style="stroke:#181818;stroke-width:1;" width="10" x="703.3369" y="347.6797"/><rect fill="#FFFFFF" height="55.7031" style="stroke:#181818;stroke-width:1;" width="10" x="983.1602" y="378.0313"/><rect fill="#FFFFFF" height="369.2188" style="stroke:#181818;stroke-width:1;" width="10" x="1091.1943" y="464.0859"/><rect fill="#FFFFFF" height="211.4609" style="stroke:#181818;stroke-width:1;" width="10" x="1324.6714" y="591.4922"/><polygon fill="#181818" points="384.21,149.5703,394.21,153.5703,384.21,157.5703,388.21,153.5703" style="stroke:#181818;stroke-width:1;"/><line style="stroke:#181818;stroke-width:1;" x1="61.5239" x2="390.21" y1="153.5703" y2="153.5703"/><text fill="#000000" font-family="sans-serif" font-size="13" lengthAdjust="spacing" textLength="109.8271" x="68.5239" y="148.7139">Solicita editar perfil</text><line style="stroke:#181818;stroke-width:1;" x1="406.21" x2="448.21" y1="183.9219" y2="183.9219"/><line style="stroke:#181818;stroke-width:1;" x1="448.21" x2="448.21" y1="183.9219" y2="196.9219"/><line style="stroke:#181818;stroke-width:1;" x1="407.21" x2="448.21" y1="196.9219" y2="196.9219"/><polygon fill="#181818" points="417.21,192.9219,407.21,196.9219,417.21,200.9219,413.21,196.9219" style="stroke:#181818;stroke-width:1;"/><text fill="#000000" font-family="sans-serif" font-size="13" lengthAdjust="spacing" textLength="273.127" x="413.21" y="179.0654">Precargar formulario con PerfilResponse actual</text><polygon fill="#181818" points="72.5239,223.2734,62.5239,227.2734,72.5239,231.2734,68.5239,227.2734" style="stroke:#181818;stroke-width:1;"/><line style="stroke:#181818;stroke-width:1;stroke-dasharray:2.0,2.0;" x1="66.5239" x2="395.21" y1="227.2734" y2="227.2734"/><text fill="#000000" font-family="sans-serif" font-size="13" lengthAdjust="spacing" textLength="244.2324" x="78.5239" y="222.417">Muestra formulario con datos precargados</text><polygon fill="#181818" points="384.21,253.625,394.21,257.625,384.21,261.625,388.21,257.625" style="stroke:#181818;stroke-width:1;"/><line style="stroke:#181818;stroke-width:1;" x1="61.5239" x2="390.21" y1="257.625" y2="257.625"/><text fill="#000000" font-family="sans-serif" font-size="13" lengthAdjust="spacing" textLength="138.0234" x="68.5239" y="252.7686">Modifica datos y guarda</text><line style="stroke:#181818;stroke-width:1;" x1="406.21" x2="448.21" y1="287.9766" y2="287.9766"/><line style="stroke:#181818;stroke-width:1;" x1="448.21" x2="448.21" y1="287.9766" y2="300.9766"/><line style="stroke:#181818;stroke-width:1;" x1="407.21" x2="448.21" y1="300.9766" y2="300.9766"/><polygon fill="#181818" points="417.21,296.9766,407.21,300.9766,417.21,304.9766,413.21,300.9766" style="stroke:#181818;stroke-width:1;"/><text fill="#000000" font-family="sans-serif" font-size="13" lengthAdjust="spacing" textLength="136.5635" x="413.21" y="283.1201">Comprobar sesi&#243;n local</text><polygon fill="#181818" points="691.3369,343.6797,701.3369,347.6797,691.3369,351.6797,695.3369,347.6797" style="stroke:#181818;stroke-width:1;"/><line style="stroke:#181818;stroke-width:1;" x1="406.21" x2="697.3369" y1="347.6797" y2="347.6797"/><text fill="#000000" font-family="sans-serif" font-size="13" lengthAdjust="spacing" textLength="100.4199" x="413.21" y="326.4717">PATCH /api/perfil</text><text fill="#000000" font-family="sans-serif" font-size="13" lengthAdjust="spacing" textLength="172.3516" x="413.21" y="342.8232">PerfilUpdateRequest + cookie</text><polygon fill="#181818" points="971.1602,374.0313,981.1602,378.0313,971.1602,382.0313,975.1602,378.0313" style="stroke:#181818;stroke-width:1;"/><line style="stroke:#181818;stroke-width:1;" x1="713.3369" x2="977.1602" y1="378.0313" y2="378.0313"/><text fill="#000000" font-family="sans-serif" font-size="13" lengthAdjust="spacing" textLength="209.5806" x="720.3369" y="373.1748">obtenerSesionActual(authentication)</text><path d="M10,393.0313 L70.1709,393.0313 L70.1709,401.3828 L60.1709,411.3828 L10,411.3828 L10,393.0313 " fill="#EEEEEE" style="stroke:#000000;stroke-width:1.5;"/><rect fill="none" height="675.5703" style="stroke:#000000;stroke-width:1.5;" width="1809.7124" x="10" y="393.0313"/><text fill="#000000" font-family="sans-serif" font-size="13" font-weight="bold" lengthAdjust="spacing" textLength="15.1709" x="25" y="407.5264">alt</text><text fill="#000000" font-family="sans-serif" font-size="11" font-weight="bold" lengthAdjust="spacing" textLength="162.583" x="85.1709" y="406.4502">[Sesi&#243;n de Coordinador activa]</text><polygon fill="#181818" points="724.3369,429.7344,714.3369,433.7344,724.3369,437.7344,720.3369,433.7344" style="stroke:#181818;stroke-width:1;"/><line style="stroke:#181818;stroke-width:1;stroke-dasharray:2.0,2.0;" x1="718.3369" x2="987.1602" y1="433.7344" y2="433.7344"/><text fill="#000000" font-family="sans-serif" font-size="13" lengthAdjust="spacing" textLength="98.2871" x="730.3369" y="428.8779">SesionResponse</text><polygon fill="#181818" points="1079.1943,460.0859,1089.1943,464.0859,1079.1943,468.0859,1083.1943,464.0859" style="stroke:#181818;stroke-width:1;"/><line style="stroke:#181818;stroke-width:1;" x1="713.3369" x2="1085.1943" y1="464.0859" y2="464.0859"/><text fill="#000000" font-family="sans-serif" font-size="13" lengthAdjust="spacing" textLength="239.1733" x="720.3369" y="459.2295">actualizarPerfilPropio(coordinador, datos)</text><path d="M1106,477.0859 L1106,503.0859 L1363,503.0859 L1363,487.0859 L1353,477.0859 L1106,477.0859 " fill="#FEFFDD" style="stroke:#181818;stroke-width:0.5;"/><path d="M1353,477.0859 L1353,487.0859 L1363,487.0859 L1353,477.0859 " fill="#FEFFDD" style="stroke:#181818;stroke-width:0.5;"/><text fill="#000000" font-family="sans-serif" font-size="13" lengthAdjust="spacing" textLength="236.2979" x="1112" y="495.5811">Responsabilidad interna: validarCambios</text><polygon fill="#181818" points="1317.6714,526.7891,1327.6714,530.7891,1317.6714,534.7891,1321.6714,530.7891" style="stroke:#181818;stroke-width:1;"/><line style="stroke:#181818;stroke-width:1;" x1="1101.1943" x2="1323.6714" y1="530.7891" y2="530.7891"/><text fill="#000000" font-family="sans-serif" font-size="13" lengthAdjust="spacing" textLength="204.4771" x="1108.1943" y="525.9326">findByNombreUsuario(coordinador)</text><polygon fill="#181818" points="1748.7954,557.1406,1758.7954,561.1406,1748.7954,565.1406,1752.7954,561.1406" style="stroke:#181818;stroke-width:1;"/><line style="stroke:#181818;stroke-width:1;" x1="1329.6714" x2="1754.7954" y1="561.1406" y2="561.1406"/><text fill="#000000" font-family="sans-serif" font-size="13" lengthAdjust="spacing" textLength="291.5161" x="1336.6714" y="556.2842">SELECT * FROM usuarios WHERE usuario_id = ?</text><polygon fill="#181818" points="1345.6714,587.4922,1335.6714,591.4922,1345.6714,595.4922,1341.6714,591.4922" style="stroke:#181818;stroke-width:1;"/><line style="stroke:#181818;stroke-width:1;stroke-dasharray:2.0,2.0;" x1="1339.6714" x2="1759.7954" y1="591.4922" y2="591.4922"/><text fill="#000000" font-family="sans-serif" font-size="13" lengthAdjust="spacing" textLength="149.5889" x="1351.6714" y="586.6357">Resultado de persistencia</text><polygon fill="#181818" points="1112.1943,617.8438,1102.1943,621.8438,1112.1943,625.8438,1108.1943,621.8438" style="stroke:#181818;stroke-width:1;"/><line style="stroke:#181818;stroke-width:1;stroke-dasharray:2.0,2.0;" x1="1106.1943" x2="1323.6714" y1="621.8438" y2="621.8438"/><text fill="#000000" font-family="sans-serif" font-size="13" lengthAdjust="spacing" textLength="29.6182" x="1118.1943" y="616.9873">Perfil</text><line style="stroke:#181818;stroke-width:1;" x1="1101.1943" x2="1143.1943" y1="652.1953" y2="652.1953"/><line style="stroke:#181818;stroke-width:1;" x1="1143.1943" x2="1143.1943" y1="652.1953" y2="665.1953"/><line style="stroke:#181818;stroke-width:1;" x1="1102.1943" x2="1143.1943" y1="665.1953" y2="665.1953"/><polygon fill="#181818" points="1112.1943,661.1953,1102.1943,665.1953,1112.1943,669.1953,1108.1943,665.1953" style="stroke:#181818;stroke-width:1;"/><text fill="#000000" font-family="sans-serif" font-size="13" lengthAdjust="spacing" textLength="131.498" x="1108.1943" y="647.3389">actualizar(perfil, datos)</text><polygon fill="#181818" points="1312.6714,691.5469,1322.6714,695.5469,1312.6714,699.5469,1316.6714,695.5469" style="stroke:#181818;stroke-width:1;"/><line style="stroke:#181818;stroke-width:1;" x1="1101.1943" x2="1318.6714" y1="695.5469" y2="695.5469"/><text fill="#000000" font-family="sans-serif" font-size="13" lengthAdjust="spacing" textLength="131.5044" x="1108.1943" y="690.6904">save(perfilActualizado)</text><polygon fill="#181818" points="1748.7954,738.25,1758.7954,742.25,1748.7954,746.25,1752.7954,742.25" style="stroke:#181818;stroke-width:1;"/><line style="stroke:#181818;stroke-width:1;" x1="1334.6714" x2="1754.7954" y1="742.25" y2="742.25"/><text fill="#000000" font-family="sans-serif" font-size="13" lengthAdjust="spacing" textLength="402.124" x="1341.6714" y="721.042">UPDATE usuarios SET nombre_completo = ?, correo = ?, unidad = ?,</text><text fill="#000000" font-family="sans-serif" font-size="13" lengthAdjust="spacing" textLength="298.8096" x="1341.6714" y="737.3936">linea_investigacion = ?, biografia = ? WHERE id = ?</text><polygon fill="#181818" points="1345.6714,768.6016,1335.6714,772.6016,1345.6714,776.6016,1341.6714,772.6016" style="stroke:#181818;stroke-width:1;"/><line style="stroke:#181818;stroke-width:1;stroke-dasharray:2.0,2.0;" x1="1339.6714" x2="1759.7954" y1="772.6016" y2="772.6016"/><text fill="#000000" font-family="sans-serif" font-size="13" lengthAdjust="spacing" textLength="149.5889" x="1351.6714" y="767.7451">Resultado de persistencia</text><polygon fill="#181818" points="1112.1943,798.9531,1102.1943,802.9531,1112.1943,806.9531,1108.1943,802.9531" style="stroke:#181818;stroke-width:1;"/><line style="stroke:#181818;stroke-width:1;stroke-dasharray:2.0,2.0;" x1="1106.1943" x2="1328.6714" y1="802.9531" y2="802.9531"/><text fill="#000000" font-family="sans-serif" font-size="13" lengthAdjust="spacing" textLength="98.998" x="1118.1943" y="798.0967">Perfil actualizado</text><polygon fill="#181818" points="724.3369,829.3047,714.3369,833.3047,724.3369,837.3047,720.3369,833.3047" style="stroke:#181818;stroke-width:1;"/><line style="stroke:#181818;stroke-width:1;stroke-dasharray:2.0,2.0;" x1="718.3369" x2="1095.1943" y1="833.3047" y2="833.3047"/><text fill="#000000" font-family="sans-serif" font-size="13" lengthAdjust="spacing" textLength="88.1563" x="730.3369" y="828.4482">PerfilResponse</text><polygon fill="#181818" points="417.21,876.0078,407.21,880.0078,417.21,884.0078,413.21,880.0078" style="stroke:#181818;stroke-width:1;"/><line style="stroke:#181818;stroke-width:1;stroke-dasharray:2.0,2.0;" x1="411.21" x2="707.3369" y1="880.0078" y2="880.0078"/><text fill="#000000" font-family="sans-serif" font-size="13" lengthAdjust="spacing" textLength="44.0845" x="423.21" y="858.7998">200 OK</text><text fill="#000000" font-family="sans-serif" font-size="13" lengthAdjust="spacing" textLength="88.1563" x="423.21" y="875.1514">PerfilResponse</text><line style="stroke:#181818;stroke-width:1;" x1="406.21" x2="448.21" y1="910.3594" y2="910.3594"/><line style="stroke:#181818;stroke-width:1;" x1="448.21" x2="448.21" y1="910.3594" y2="923.3594"/><line style="stroke:#181818;stroke-width:1;" x1="407.21" x2="448.21" y1="923.3594" y2="923.3594"/><polygon fill="#181818" points="417.21,919.3594,407.21,923.3594,417.21,927.3594,413.21,923.3594" style="stroke:#181818;stroke-width:1;"/><text fill="#000000" font-family="sans-serif" font-size="13" lengthAdjust="spacing" textLength="232.667" x="413.21" y="905.5029">Actualizar datos de perfil y notificar &#233;xito</text><polygon fill="#181818" points="72.5239,949.7109,62.5239,953.7109,72.5239,957.7109,68.5239,953.7109" style="stroke:#181818;stroke-width:1;"/><line style="stroke:#181818;stroke-width:1;stroke-dasharray:2.0,2.0;" x1="66.5239" x2="395.21" y1="953.7109" y2="953.7109"/><text fill="#000000" font-family="sans-serif" font-size="13" lengthAdjust="spacing" textLength="310.686" x="78.5239" y="948.8545">Presenta OPCIONES_PERFIL_ABIERTO actualizado</text><line style="stroke:#000000;stroke-width:1;stroke-dasharray:2.0,2.0;" x1="10" x2="1819.7124" y1="962.7109" y2="962.7109"/><text fill="#000000" font-family="sans-serif" font-size="11" font-weight="bold" lengthAdjust="spacing" textLength="180.9307" x="15" y="974.1299">[Datos inv&#225;lidos o sesi&#243;n ausente]</text><polygon fill="#181818" points="719.3369,995.8984,709.3369,999.8984,719.3369,1003.8984,715.3369,999.8984" style="stroke:#181818;stroke-width:1;"/><line style="stroke:#181818;stroke-width:1;stroke-dasharray:2.0,2.0;" x1="713.3369" x2="987.1602" y1="999.8984" y2="999.8984"/><text fill="#000000" font-family="sans-serif" font-size="13" lengthAdjust="spacing" textLength="255.8232" x="725.3369" y="995.042">SesionNoValidaException / validaci&#243;n fallida</text><polygon fill="#181818" points="417.21,1026.25,407.21,1030.25,417.21,1034.25,413.21,1030.25" style="stroke:#181818;stroke-width:1;"/><line style="stroke:#181818;stroke-width:1;stroke-dasharray:2.0,2.0;" x1="411.21" x2="707.3369" y1="1030.25" y2="1030.25"/><text fill="#000000" font-family="sans-serif" font-size="13" lengthAdjust="spacing" textLength="213.9287" x="423.21" y="1025.3936">400 Bad Request / 401 Unauthorized</text><polygon fill="#181818" points="72.5239,1056.6016,62.5239,1060.6016,72.5239,1064.6016,68.5239,1060.6016" style="stroke:#181818;stroke-width:1;"/><line style="stroke:#181818;stroke-width:1;stroke-dasharray:2.0,2.0;" x1="66.5239" x2="395.21" y1="1060.6016" y2="1060.6016"/><text fill="#000000" font-family="sans-serif" font-size="13" lengthAdjust="spacing" textLength="145.9707" x="78.5239" y="1055.7451">Presenta error de edici&#243;n</text><!--SRC=[fLNTRXDD3BtFKrYzQlb01VHTHGAKdwsee4sKf71JAN9sd62ncLbcPYFAst39DO_G5yCpkvlT3Mb1ebAh7TS-On_RPppxZ63CkB6uHL04ZjA2TCe8po1HxD52JdRD6UJMv6p49uEHCLQnHcLihuUfDxPZoj5wJZb7xU6a19b6Z0jZjxVwT4OIStO2wE326kr9gsvCwJsIVrcJPMGbPfvRrXiO6bD53dBk1it9iT5piZjEARgKbcFGRQ-EfUjyumgqR6QK6yTIvLqhe37s57fSeICu6OQ_mk8OlN7HUJpizLhSmBFN-vhxC3UPtEKHgCrqO9HtwAbXf_xeXayjfMWt4hWMOeiiv0gfqViCNMwq92Hu1MOj445fvTI7guASjtW8eq8LqlVo5cNSmvLS6SLhJh6AkOEDCAVmWSH7PYlJj9B4dRJe_gU6pAIT35-7_ag5WyNeBPnZpkSbDxUwhEqcbujeHbz2vl2Vf6i-CpNCXUcGtm1KJa4Vp4gWoPR7GQJa50l_YRGq7BqOpvhuQdGmy_4pf2XjRPTVklP0VahdI6lCkZpNz4SNHOVGmLfbs9d0VjKk_bPlpJGktcdQNFwqfFaiWko1kuEiZPWiRpvvCEl3AwhSSCKPArJ0GhlLs8ST1eCTuNR5qk-0tmbjqctclmzhrcfuTsssAqlLphJJFMlXD641QZmKjfBtoMW1J-1YDhc2eWntyF5jCalguv8Ll88t4MSyZ4p_deKKLMHUBWojad5nx7oKicCqjTRtU7A_zwKyFiR9aHQUbdFRwTXVCEfmHrNeeCPIvd4YRwRZmI9f69md2z2n9yjK5YuZRmA9JsLPhANgkz1n0CBthSvO4ovPxsIfU8DfcEhe9SCWByHQNWKvLgtvzvRyFUaDeSeSxjCZ_TnJlDUJZZ0UHweNQB-W7Ubw-VmvJDxLClGGKf2VO3ekV_kEsaekIt92dNVICH-LrCBzZwzIq07EeNJB6-14mH0cqz7bv3gPBwV9xEBo_N8ml4ncYqc7ESfSzJR9nk_klykkowVPgp0M0OiU4RLhyo4gHF8rfJne9fnNcf56X3LcuV0dpUlGyRzGEfGPhDNyN2mlu4O7SJQMlv7wCxqFqaBMYbWBmVB4nXHxuJrjOTKOlm00]--></g></svg>