<svg xmlns="http://www.w3.org/2000/svg" xmlns:xlink="http://www.w3.org/1999/xlink" contentStyleType="text/css" height="1036px" preserveAspectRatio="none" style="width:1390px;height:1036px;background:#FFFFFF;" version="1.1" viewBox="0 0 1390 1036" width="1390px" zoomAndPan="magnify"><title>Diagrama de secuencia - Editar perfil propio del Coordinador</title><defs/><g><text fill="#000000" font-family="sans-serif" font-size="14" font-weight="bold" lengthAdjust="spacing" textLength="405.3027" x="493.7495" y="29.5332">Diagrama de secuencia - Editar perfil propio del Coordinador</text><rect fill="#FFFFFF" height="791.2734" style="stroke:#181818;stroke-width:1;" width="10" x="396.21" y="153.5703"/><rect fill="#FFFFFF" height="401.5703" style="stroke:#181818;stroke-width:1;" width="10" x="703.3369" y="347.6797"/><rect fill="#FFFFFF" height="55.7031" style="stroke:#181818;stroke-width:1;" width="10" x="988.9302" y="378.0313"/><rect fill="#FFFFFF" height="238.4609" style="stroke:#181818;stroke-width:1;" width="10" x="1096.9644" y="464.0859"/><rect fill="#FFFFFF" height="134.4063" style="stroke:#181818;stroke-width:1;" width="10" x="1312.395" y="537.7891"/><rect fill="none" height="544.8125" style="stroke:#000000;stroke-width:1.5;" width="1373.8018" x="10" y="393.0313"/><line style="stroke:#181818;stroke-width:0.5;stroke-dasharray:5.0,5.0;" x1="61" x2="61" y1="121.2188" y2="954.8438"/><line style="stroke:#181818;stroke-width:0.5;stroke-dasharray:5.0,5.0;" x1="400.6445" x2="400.6445" y1="121.2188" y2="954.8438"/><line style="stroke:#181818;stroke-width:0.5;stroke-dasharray:5.0,5.0;" x1="708.0439" x2="708.0439" y1="121.2188" y2="954.8438"/><line style="stroke:#181818;stroke-width:0.5;stroke-dasharray:5.0,5.0;" x1="993.1855" x2="993.1855" y1="121.2188" y2="954.8438"/><line style="stroke:#181818;stroke-width:0.5;stroke-dasharray:5.0,5.0;" x1="1101.6748" x2="1101.6748" y1="121.2188" y2="954.8438"/><line style="stroke:#181818;stroke-width:0.5;stroke-dasharray:5.0,5.0;" x1="1316.9883" x2="1316.9883" y1="121.2188" y2="954.8438"/><text fill="#000000" font-family="sans-serif" font-size="14" lengthAdjust="spacing" textLength="77.0479" x="20" y="118.1426">Coordinador</text><ellipse cx="61.5239" cy="52.1094" fill="#E2E2F0" rx="8" ry="8" style="stroke:#181818;stroke-width:0.5;"/><path d="M61.5239,60.1094 L61.5239,87.1094 M48.5239,68.1094 L74.5239,68.1094 M61.5239,87.1094 L48.5239,102.1094 M61.5239,87.1094 L74.5239,102.1094 " fill="none" style="stroke:#181818;stroke-width:0.5;"/><text fill="#000000" font-family="sans-serif" font-size="14" lengthAdjust="spacing" textLength="77.0479" x="20" y="968.377">Coordinador</text><ellipse cx="61.5239" cy="979.9531" fill="#E2E2F0" rx="8" ry="8" style="stroke:#181818;stroke-width:0.5;"/><path d="M61.5239,987.9531 L61.5239,1014.9531 M48.5239,995.9531 L74.5239,995.9531 M61.5239,1014.9531 L48.5239,1029.9531 M61.5239,1014.9531 L74.5239,1029.9531 " fill="none" style="stroke:#181818;stroke-width:0.5;"/><rect fill="#E2E2F0" height="49.2188" rx="2.5" ry="2.5" style="stroke:#181818;stroke-width:0.5;" width="115.1309" x="343.6445" y="71"/><text fill="#000000" font-family="sans-serif" font-size="14" lengthAdjust="spacing" textLength="101.1309" x="350.6445" y="92.5332">EditarPerfilForm</text><text fill="#000000" font-family="sans-serif" font-size="14" lengthAdjust="spacing" textLength="45.8965" x="378.2617" y="110.1426">(React)</text><rect fill="#E2E2F0" height="49.2188" rx="2.5" ry="2.5" style="stroke:#181818;stroke-width:0.5;" width="115.1309" x="343.6445" y="953.8438"/><text fill="#000000" font-family="sans-serif" font-size="14" lengthAdjust="spacing" textLength="101.1309" x="350.6445" y="975.377">EditarPerfilForm</text><text fill="#000000" font-family="sans-serif" font-size="14" lengthAdjust="spacing" textLength="45.8965" x="378.2617" y="992.9863">(React)</text><rect fill="#E2E2F0" height="49.2188" rx="2.5" ry="2.5" style="stroke:#181818;stroke-width:0.5;" width="106.5859" x="655.0439" y="71"/><text fill="#000000" font-family="sans-serif" font-size="14" lengthAdjust="spacing" textLength="92.5859" x="662.0439" y="92.5332">PerfilController</text><text fill="#000000" font-family="sans-serif" font-size="14" lengthAdjust="spacing" textLength="82.4824" x="667.0957" y="110.1426">(Spring Boot)</text><rect fill="#E2E2F0" height="49.2188" rx="2.5" ry="2.5" style="stroke:#181818;stroke-width:0.5;" width="106.5859" x="655.0439" y="953.8438"/><text fill="#000000" font-family="sans-serif" font-size="14" lengthAdjust="spacing" textLength="92.5859" x="662.0439" y="975.377">PerfilController</text><text fill="#000000" font-family="sans-serif" font-size="14" lengthAdjust="spacing" textLength="82.4824" x="667.0957" y="992.9863">(Spring Boot)</text><rect fill="#E2E2F0" height="31.6094" rx="2.5" ry="2.5" style="stroke:#181818;stroke-width:0.5;" width="103.4893" x="942.1855" y="88.6094"/><text fill="#000000" font-family="sans-serif" font-size="14" lengthAdjust="spacing" textLength="89.4893" x="949.1855" y="110.1426">SesionService</text><rect fill="#E2E2F0" height="31.6094" rx="2.5" ry="2.5" style="stroke:#181818;stroke-width:0.5;" width="103.4893" x="942.1855" y="953.8438"/><text fill="#000000" font-family="sans-serif" font-size="14" lengthAdjust="spacing" textLength="89.4893" x="949.1855" y="975.377">SesionService</text><rect fill="#E2E2F0" height="31.6094" rx="2.5" ry="2.5" style="stroke:#181818;stroke-width:0.5;" width="92.5791" x="1055.6748" y="88.6094"/><text fill="#000000" font-family="sans-serif" font-size="14" lengthAdjust="spacing" textLength="78.5791" x="1062.6748" y="110.1426">PerfilService</text><rect fill="#E2E2F0" height="31.6094" rx="2.5" ry="2.5" style="stroke:#181818;stroke-width:0.5;" width="92.5791" x="1055.6748" y="953.8438"/><text fill="#000000" font-family="sans-serif" font-size="14" lengthAdjust="spacing" textLength="78.5791" x="1062.6748" y="975.377">PerfilService</text><rect fill="#E2E2F0" height="31.6094" rx="2.5" ry="2.5" style="stroke:#181818;stroke-width:0.5;" width="112.8135" x="1260.9883" y="88.6094"/><text fill="#000000" font-family="sans-serif" font-size="14" lengthAdjust="spacing" textLength="98.8135" x="1267.9883" y="110.1426">PerfilRepository</text><rect fill="#E2E2F0" height="31.6094" rx="2.5" ry="2.5" style="stroke:#181818;stroke-width:0.5;" width="112.8135" x="1260.9883" y="953.8438"/><text fill="#000000" font-family="sans-serif" font-size="14" lengthAdjust="spacing" textLength="98.8135" x="1267.9883" y="975.377">PerfilRepository</text><rect fill="#FFFFFF" height="791.2734" style="stroke:#181818;stroke-width:1;" width="10" x="396.21" y="153.5703"/><rect fill="#FFFFFF" height="401.5703" style="stroke:#181818;stroke-width:1;" width="10" x="703.3369" y="347.6797"/><rect fill="#FFFFFF" height="55.7031" style="stroke:#181818;stroke-width:1;" width="10" x="988.9302" y="378.0313"/><rect fill="#FFFFFF" height="238.4609" style="stroke:#181818;stroke-width:1;" width="10" x="1096.9644" y="464.0859"/><rect fill="#FFFFFF" height="134.4063" style="stroke:#181818;stroke-width:1;" width="10" x="1312.395" y="537.7891"/><polygon fill="#181818" points="384.21,149.5703,394.21,153.5703,384.21,157.5703,388.21,153.5703" style="stroke:#181818;stroke-width:1;"/><line style="stroke:#181818;stroke-width:1;" x1="61.5239" x2="390.21" y1="153.5703" y2="153.5703"/><text fill="#000000" font-family="sans-serif" font-size="13" lengthAdjust="spacing" textLength="109.8271" x="68.5239" y="148.7139">Solicita editar perfil</text><line style="stroke:#181818;stroke-width:1;" x1="406.21" x2="448.21" y1="183.9219" y2="183.9219"/><line style="stroke:#181818;stroke-width:1;" x1="448.21" x2="448.21" y1="183.9219" y2="196.9219"/><line style="stroke:#181818;stroke-width:1;" x1="407.21" x2="448.21" y1="196.9219" y2="196.9219"/><polygon fill="#181818" points="417.21,192.9219,407.21,196.9219,417.21,200.9219,413.21,196.9219" style="stroke:#181818;stroke-width:1;"/><text fill="#000000" font-family="sans-serif" font-size="13" lengthAdjust="spacing" textLength="273.127" x="413.21" y="179.0654">Precargar formulario con PerfilResponse actual</text><polygon fill="#181818" points="72.5239,223.2734,62.5239,227.2734,72.5239,231.2734,68.5239,227.2734" style="stroke:#181818;stroke-width:1;"/><line style="stroke:#181818;stroke-width:1;stroke-dasharray:2.0,2.0;" x1="66.5239" x2="395.21" y1="227.2734" y2="227.2734"/><text fill="#000000" font-family="sans-serif" font-size="13" lengthAdjust="spacing" textLength="244.2324" x="78.5239" y="222.417">Muestra formulario con datos precargados</text><polygon fill="#181818" points="384.21,253.625,394.21,257.625,384.21,261.625,388.21,257.625" style="stroke:#181818;stroke-width:1;"/><line style="stroke:#181818;stroke-width:1;" x1="61.5239" x2="390.21" y1="257.625" y2="257.625"/><text fill="#000000" font-family="sans-serif" font-size="13" lengthAdjust="spacing" textLength="138.0234" x="68.5239" y="252.7686">Modifica datos y guarda</text><line style="stroke:#181818;stroke-width:1;" x1="406.21" x2="448.21" y1="287.9766" y2="287.9766"/><line style="stroke:#181818;stroke-width:1;" x1="448.21" x2="448.21" y1="287.9766" y2="300.9766"/><line style="stroke:#181818;stroke-width:1;" x1="407.21" x2="448.21" y1="300.9766" y2="300.9766"/><polygon fill="#181818" points="417.21,296.9766,407.21,300.9766,417.21,304.9766,413.21,300.9766" style="stroke:#181818;stroke-width:1;"/><text fill="#000000" font-family="sans-serif" font-size="13" lengthAdjust="spacing" textLength="142.3335" x="413.21" y="283.1201">Comprobar sesi&#195;&#179;n local</text><polygon fill="#181818" points="691.3369,343.6797,701.3369,347.6797,691.3369,351.6797,695.3369,347.6797" style="stroke:#181818;stroke-width:1;"/><line style="stroke:#181818;stroke-width:1;" x1="406.21" x2="697.3369" y1="347.6797" y2="347.6797"/><text fill="#000000" font-family="sans-serif" font-size="13" lengthAdjust="spacing" textLength="100.4199" x="413.21" y="326.4717">PATCH /api/perfil</text><text fill="#000000" font-family="sans-serif" font-size="13" lengthAdjust="spacing" textLength="172.3516" x="413.21" y="342.8232">PerfilUpdateRequest + cookie</text><polygon fill="#181818" points="976.9302,374.0313,986.9302,378.0313,976.9302,382.0313,980.9302,378.0313" style="stroke:#181818;stroke-width:1;"/><line style="stroke:#181818;stroke-width:1;" x1="713.3369" x2="982.9302" y1="378.0313" y2="378.0313"/><text fill="#000000" font-family="sans-serif" font-size="13" lengthAdjust="spacing" textLength="209.5806" x="720.3369" y="373.1748">obtenerSesionActual(authentication)</text><path d="M10,393.0313 L70.1709,393.0313 L70.1709,401.3828 L60.1709,411.3828 L10,411.3828 L10,393.0313 " fill="#EEEEEE" style="stroke:#000000;stroke-width:1.5;"/><rect fill="none" height="544.8125" style="stroke:#000000;stroke-width:1.5;" width="1373.8018" x="10" y="393.0313"/><text fill="#000000" font-family="sans-serif" font-size="13" font-weight="bold" lengthAdjust="spacing" textLength="15.1709" x="25" y="407.5264">alt</text><text fill="#000000" font-family="sans-serif" font-size="11" font-weight="bold" lengthAdjust="spacing" textLength="167.4707" x="85.1709" y="406.4502">[Sesi&#195;&#179;n de Coordinador activa]</text><polygon fill="#181818" points="724.3369,429.7344,714.3369,433.7344,724.3369,437.7344,720.3369,433.7344" style="stroke:#181818;stroke-width:1;"/><line style="stroke:#181818;stroke-width:1;stroke-dasharray:2.0,2.0;" x1="718.3369" x2="992.9302" y1="433.7344" y2="433.7344"/><text fill="#000000" font-family="sans-serif" font-size="13" lengthAdjust="spacing" textLength="205.8926" x="730.3369" y="428.8779">SesionResponse(COORDINADOR)</text><polygon fill="#181818" points="1084.9644,460.0859,1094.9644,464.0859,1084.9644,468.0859,1088.9644,464.0859" style="stroke:#181818;stroke-width:1;"/><line style="stroke:#181818;stroke-width:1;" x1="713.3369" x2="1090.9644" y1="464.0859" y2="464.0859"/><text fill="#000000" font-family="sans-serif" font-size="13" lengthAdjust="spacing" textLength="216.0552" x="720.3369" y="459.2295">editarPerfilPropio(coordinador, datos)</text><line style="stroke:#181818;stroke-width:1;" x1="1106.9644" x2="1148.9644" y1="494.4375" y2="494.4375"/><line style="stroke:#181818;stroke-width:1;" x1="1148.9644" x2="1148.9644" y1="494.4375" y2="507.4375"/><line style="stroke:#181818;stroke-width:1;" x1="1107.9644" x2="1148.9644" y1="507.4375" y2="507.4375"/><polygon fill="#181818" points="1117.9644,503.4375,1107.9644,507.4375,1117.9644,511.4375,1113.9644,507.4375" style="stroke:#181818;stroke-width:1;"/><text fill="#000000" font-family="sans-serif" font-size="13" lengthAdjust="spacing" textLength="130.0508" x="1113.9644" y="489.5811">validarCambios(datos)</text><polygon fill="#181818" points="1300.395,533.7891,1310.395,537.7891,1300.395,541.7891,1304.395,537.7891" style="stroke:#181818;stroke-width:1;"/><line style="stroke:#181818;stroke-width:1;" x1="1106.9644" x2="1306.395" y1="537.7891" y2="537.7891"/><text fill="#000000" font-family="sans-serif" font-size="13" lengthAdjust="spacing" textLength="186.4307" x="1113.9644" y="532.9326">obtenerPorUsuario(coordinador)</text><polygon fill="#181818" points="1117.9644,564.1406,1107.9644,568.1406,1117.9644,572.1406,1113.9644,568.1406" style="stroke:#181818;stroke-width:1;"/><line style="stroke:#181818;stroke-width:1;stroke-dasharray:2.0,2.0;" x1="1111.9644" x2="1311.395" y1="568.1406" y2="568.1406"/><text fill="#000000" font-family="sans-serif" font-size="13" lengthAdjust="spacing" textLength="29.6182" x="1123.9644" y="563.2842">Perfil</text><line style="stroke:#181818;stroke-width:1;" x1="1106.9644" x2="1148.9644" y1="598.4922" y2="598.4922"/><line style="stroke:#181818;stroke-width:1;" x1="1148.9644" x2="1148.9644" y1="598.4922" y2="611.4922"/><line style="stroke:#181818;stroke-width:1;" x1="1107.9644" x2="1148.9644" y1="611.4922" y2="611.4922"/><polygon fill="#181818" points="1117.9644,607.4922,1107.9644,611.4922,1117.9644,615.4922,1113.9644,611.4922" style="stroke:#181818;stroke-width:1;"/><text fill="#000000" font-family="sans-serif" font-size="13" lengthAdjust="spacing" textLength="179.9053" x="1113.9644" y="593.6357">actualizarCampos(perfil, datos)</text><polygon fill="#181818" points="1300.395,637.8438,1310.395,641.8438,1300.395,645.8438,1304.395,641.8438" style="stroke:#181818;stroke-width:1;"/><line style="stroke:#181818;stroke-width:1;" x1="1106.9644" x2="1306.395" y1="641.8438" y2="641.8438"/><text fill="#000000" font-family="sans-serif" font-size="13" lengthAdjust="spacing" textLength="148.8525" x="1113.9644" y="636.9873">guardar(perfilActualizado)</text><polygon fill="#181818" points="1117.9644,668.1953,1107.9644,672.1953,1117.9644,676.1953,1113.9644,672.1953" style="stroke:#181818;stroke-width:1;"/><line style="stroke:#181818;stroke-width:1;stroke-dasharray:2.0,2.0;" x1="1111.9644" x2="1316.395" y1="672.1953" y2="672.1953"/><text fill="#000000" font-family="sans-serif" font-size="13" lengthAdjust="spacing" textLength="98.998" x="1123.9644" y="667.3389">Perfil actualizado</text><polygon fill="#181818" points="724.3369,698.5469,714.3369,702.5469,724.3369,706.5469,720.3369,702.5469" style="stroke:#181818;stroke-width:1;"/><line style="stroke:#181818;stroke-width:1;stroke-dasharray:2.0,2.0;" x1="718.3369" x2="1100.9644" y1="702.5469" y2="702.5469"/><text fill="#000000" font-family="sans-serif" font-size="13" lengthAdjust="spacing" textLength="88.1563" x="730.3369" y="697.6904">PerfilResponse</text><polygon fill="#181818" points="417.21,745.25,407.21,749.25,417.21,753.25,413.21,749.25" style="stroke:#181818;stroke-width:1;"/><line style="stroke:#181818;stroke-width:1;stroke-dasharray:2.0,2.0;" x1="411.21" x2="707.3369" y1="749.25" y2="749.25"/><text fill="#000000" font-family="sans-serif" font-size="13" lengthAdjust="spacing" textLength="44.0845" x="423.21" y="728.042">200 OK</text><text fill="#000000" font-family="sans-serif" font-size="13" lengthAdjust="spacing" textLength="88.1563" x="423.21" y="744.3936">PerfilResponse</text><line style="stroke:#181818;stroke-width:1;" x1="406.21" x2="448.21" y1="779.6016" y2="779.6016"/><line style="stroke:#181818;stroke-width:1;" x1="448.21" x2="448.21" y1="779.6016" y2="792.6016"/><line style="stroke:#181818;stroke-width:1;" x1="407.21" x2="448.21" y1="792.6016" y2="792.6016"/><polygon fill="#181818" points="417.21,788.6016,407.21,792.6016,417.21,796.6016,413.21,792.6016" style="stroke:#181818;stroke-width:1;"/><text fill="#000000" font-family="sans-serif" font-size="13" lengthAdjust="spacing" textLength="243.6865" x="413.21" y="774.7451">Actualizar datos de perfil y notificar &#195;&#169;xito</text><polygon fill="#181818" points="72.5239,818.9531,62.5239,822.9531,72.5239,826.9531,68.5239,822.9531" style="stroke:#181818;stroke-width:1;"/><line style="stroke:#181818;stroke-width:1;stroke-dasharray:2.0,2.0;" x1="66.5239" x2="395.21" y1="822.9531" y2="822.9531"/><text fill="#000000" font-family="sans-serif" font-size="13" lengthAdjust="spacing" textLength="310.686" x="78.5239" y="818.0967">Presenta OPCIONES_PERFIL_ABIERTO actualizado</text><line style="stroke:#000000;stroke-width:1;stroke-dasharray:2.0,2.0;" x1="10" x2="1383.8018" y1="831.9531" y2="831.9531"/><text fill="#000000" font-family="sans-serif" font-size="11" font-weight="bold" lengthAdjust="spacing" textLength="191.3076" x="15" y="843.3721">[Datos inv&#195;&#161;lidos o sesi&#195;&#179;n ausente]</text><polygon fill="#181818" points="719.3369,865.1406,709.3369,869.1406,719.3369,873.1406,715.3369,869.1406" style="stroke:#181818;stroke-width:1;"/><line style="stroke:#181818;stroke-width:1;stroke-dasharray:2.0,2.0;" x1="713.3369" x2="992.9302" y1="869.1406" y2="869.1406"/><text fill="#000000" font-family="sans-serif" font-size="13" lengthAdjust="spacing" textLength="261.5933" x="725.3369" y="864.2842">SesionNoValidaException / validaci&#195;&#179;n fallida</text><polygon fill="#181818" points="417.21,895.4922,407.21,899.4922,417.21,903.4922,413.21,899.4922" style="stroke:#181818;stroke-width:1;"/><line style="stroke:#181818;stroke-width:1;stroke-dasharray:2.0,2.0;" x1="411.21" x2="707.3369" y1="899.4922" y2="899.4922"/><text fill="#000000" font-family="sans-serif" font-size="13" lengthAdjust="spacing" textLength="213.9287" x="423.21" y="894.6357">400 Bad Request / 401 Unauthorized</text><polygon fill="#181818" points="72.5239,925.8438,62.5239,929.8438,72.5239,933.8438,68.5239,929.8438" style="stroke:#181818;stroke-width:1;"/><line style="stroke:#181818;stroke-width:1;stroke-dasharray:2.0,2.0;" x1="66.5239" x2="395.21" y1="929.8438" y2="929.8438"/><text fill="#000000" font-family="sans-serif" font-size="13" lengthAdjust="spacing" textLength="151.7407" x="78.5239" y="924.9873">Presenta error de edici&#195;&#179;n</text><!--SRC=[bLNDRjf04Bxp5AESG6r4MlN48H8nH4LjOcH2Jv6YYNUXgveTTxr6IQvzaXvxxXkqBzPPhx6z298K2Saxdldscsz-R9ND94mKhWrk48I4GgQbrAb2E8MfK1ODvDAiL0QveLmH-sGG4HcXD0eolHwcbanWoj5ObQeSjOKJ3pAlC2x9R6vrFv4SCpW1BE3IaBPIYp36UqVyob2MISCnYzmelOOBeZfodAimQ24BHNeXpLQbidBnbaFGNQ_0SiWvaJaLYfDyxFYtnbwlapkSdZSvZM116MDP1DbLqYccjcXbc_tk8GoV6vcYMNFWYeKhCpIiVqgweL3af0i9Z5TYrW5Xb0wd4LoLih06zs44MYguhluMGSNnJAv8g9LAiOvvX7M9Hk0HuX5jk5lkcNZ19VZxuyzl3Hcb0STpLq7ESNmJVOGXvcherRdLFhjbpbV9H7vttE4D4wPlIhRQkVhptm7vEe-0xXbQ6dySLwBqiRHVfUQIecNZe8slcmCpMprwaZm0NGcySm_uvzqhQIlU_hmhGJ-AusGoknvFucHG-GkvVvEpreI3bXlLtU6DyshA-cdBugtNtCCse67NkbU1vS0jMyoKG1FXvbvHqU-07ebiMxoHTavcMPIkWReC3rBh34XxHskibDnZw8-lIiQtl7ggyc7Clc-UGAjNfEMxsDJHunseeC5_acu92Tgl_pDwDEIQSGWc-p1Ij-XLGmMpz_xi3E9FkoawXkIcnvaEpsyZXAdddUUY_WeyWYPRhG83F3E_7ZYbFQJzxSDhhE0HH8ZdqIo-dYxkvjFaSlRvRdmncoOtSQ2Tp7YXJQfBbTxo3J-vQ_b0dLM2fSEJpypbDNsfkdtwaChS3JuCw_vFQumLPkxuqgm6idnWQIzGm6uf3Tdo3fRQxHWowacAbsK-AeuqXZSE2ytRe2RPSv-63jeEvHy0]--></g></svg>