<svg xmlns="http://www.w3.org/2000/svg" xmlns:xlink="http://www.w3.org/1999/xlink" contentStyleType="text/css" data-diagram-type="DESCRIPTION" height="603px" preserveAspectRatio="none" style="width:2354px;height:603px;background:#FFFFFF;" version="1.1" viewBox="0 0 2354 603" width="2354px" zoomAndPan="magnify"><?plantuml 1.2026.5?><defs/><g><!--cluster abrirInvestigadores--><g class="cluster" data-qualified-name="abrirInvestigadores" data-source-line="6" id="ent0004"><path d="M454,147.5 L728.0615,147.5 A3.75,3.75 0 0 1 730.5615,150 L737.5615,171.1094 L1578,171.1094 A2.5,2.5 0 0 1 1580.5,173.6094 L1580.5,586 A2.5,2.5 0 0 1 1578,588.5 L454,588.5 A2.5,2.5 0 0 1 451.5,586 L451.5,150 A2.5,2.5 0 0 1 454,147.5" fill="none" style="stroke:#000000;stroke-width:1.5;"/><line style="stroke:#000000;stroke-width:1.5;" x1="451.5" x2="737.5615" y1="171.1094" y2="171.1094"/><text fill="#000000" font-family="sans-serif" font-size="14" font-weight="700" lengthAdjust="spacing" textLength="273.0615" x="455.5" y="164.0332">abrirInvestigadores(idProyecto opcional)</text></g><!--entity ListarInvestigadoresView--><g class="entity" data-qualified-name="abrirInvestigadores.ListarInvestigadoresView" data-source-line="7" id="ent0005"><rect fill="#629EF9" height="37.6094" rx="2.5" ry="2.5" style="stroke:#181818;stroke-width:0.5;" width="175.6338" x="830.5" y="203.5"/><text fill="#000000" font-family="sans-serif" font-size="14" lengthAdjust="spacing" textLength="155.6338" x="840.5" y="228.0332">ListarInvestigadoresView</text></g><!--entity InvestigadoresController--><g class="entity" data-qualified-name="abrirInvestigadores.InvestigadoresController" data-source-line="8" id="ent0006"><rect fill="#B5BD68" height="37.6094" rx="2.5" ry="2.5" style="stroke:#181818;stroke-width:0.5;" width="171.7441" x="669.5" y="319.5"/><text fill="#000000" font-family="sans-serif" font-size="14" lengthAdjust="spacing" textLength="151.7441" x="679.5" y="344.0332">InvestigadoresController</text></g><!--entity InvestigadorRepository--><g class="entity" data-qualified-name="abrirInvestigadores.InvestigadorRepository" data-source-line="9" id="ent0007"><rect fill="#F2AC4E" height="37.6094" rx="2.5" ry="2.5" style="stroke:#181818;stroke-width:0.5;" width="163.1855" x="674" y="435.5"/><text fill="#000000" font-family="sans-serif" font-size="14" lengthAdjust="spacing" textLength="143.1855" x="684" y="460.0332">InvestigadorRepository</text></g><!--entity ProyectoRepository--><g class="entity" data-qualified-name="abrirInvestigadores.ProyectoRepository" data-source-line="10" id="ent0008"><rect fill="#F2AC4E" height="37.6094" rx="2.5" ry="2.5" style="stroke:#181818;stroke-width:0.5;" width="142.165" x="921.5" y="435.5"/><text fill="#000000" font-family="sans-serif" font-size="14" lengthAdjust="spacing" textLength="122.165" x="931.5" y="460.0332">ProyectoRepository</text></g><!--entity Investigador--><g class="entity" data-qualified-name="abrirInvestigadores.Investigador" data-source-line="11" id="ent0009"><rect fill="#F2AC4E" height="37.6094" rx="2.5" ry="2.5" style="stroke:#181818;stroke-width:0.5;" width="96.2686" x="825.5" y="534.5"/><text fill="#000000" font-family="sans-serif" font-size="14" lengthAdjust="spacing" textLength="76.2686" x="835.5" y="559.0332">Investigador</text></g><!--entity ActorInvestigador--><g class="entity" data-qualified-name="ActorInvestigador" data-source-line="3" id="ent0001"><ellipse cx="232.6343" cy="14" fill="#F1F1F1" rx="8" ry="8" style="stroke:#181818;stroke-width:0.5;"/><path d="M232.6343,22 L232.6343,49 M219.6343,30 L245.6343,30 M232.6343,49 L219.6343,64 M232.6343,49 L245.6343,64" fill="none" style="stroke:#181818;stroke-width:0.5;"/><text fill="#000000" font-family="sans-serif" font-size="14" lengthAdjust="spacing" textLength="76.2686" x="194.5" y="80.0332">Investigador</text></g><!--entity Panel--><g class="entity" data-qualified-name="Panel" data-source-line="4" id="ent0002"><rect fill="#CDEBA5" height="37.6094" rx="2.5" ry="2.5" style="stroke:#181818;stroke-width:0.5;" width="220.7373" x="7" y="203.5"/><text fill="#000000" font-family="sans-serif" font-size="14" lengthAdjust="spacing" textLength="200.7373" x="17" y="228.0332">:PANEL_PRINCIPAL_ABIERTO</text></g><!--entity ProyectoAbierto--><g class="entity" data-qualified-name="ProyectoAbierto" data-source-line="5" id="ent0003"><rect fill="#CDEBA5" height="37.6094" rx="2.5" ry="2.5" style="stroke:#181818;stroke-width:0.5;" width="171.6963" x="263.5" y="203.5"/><text fill="#000000" font-family="sans-serif" font-size="14" lengthAdjust="spacing" textLength="151.6963" x="273.5" y="228.0332">:PROYECTO_ABIERTO</text></g><!--entity InvestigadoresAbiertos--><g class="entity" data-qualified-name="InvestigadoresAbiertos" data-source-line="13" id="ent0010"><rect fill="#CDEBA5" height="37.6094" rx="2.5" ry="2.5" style="stroke:#181818;stroke-width:0.5;" width="226.9375" x="1597" y="319.5"/><text fill="#000000" font-family="sans-serif" font-size="14" lengthAdjust="spacing" textLength="206.9375" x="1607" y="344.0332">:INVESTIGADORES_ABIERTOS</text></g><!--entity AbrirInvestigador--><g class="entity" data-qualified-name="AbrirInvestigador" data-source-line="14" id="ent0011"><rect fill="#CDEBA5" height="37.6094" rx="2.5" ry="2.5" style="stroke:#181818;stroke-width:0.5;" width="216.1025" x="1859.5" y="319.5"/><text fill="#000000" font-family="sans-serif" font-size="14" lengthAdjust="spacing" textLength="196.1025" x="1869.5" y="344.0332">:Collaboration AbrirInvestigador</text></g><!--entity AbrirPanel--><g class="entity" data-qualified-name="AbrirPanel" data-source-line="15" id="ent0012"><rect fill="#CDEBA5" height="37.6094" rx="2.5" ry="2.5" style="stroke:#181818;stroke-width:0.5;" width="229.3301" x="2111" y="319.5"/><text fill="#000000" font-family="sans-serif" font-size="14" lengthAdjust="spacing" textLength="209.3301" x="2121" y="344.0332">:Collaboration AbrirPanelPrincipal</text></g><!--link ActorInvestigador to Panel--><g class="link" data-entity-1="ent0001" data-entity-2="ent0002" data-link-type="association" data-source-line="17" id="lnk13"><path d="M207.55,83.69 C183.37,120.69 147.74,175.21 129.39,203.3" fill="none" id="ActorInvestigador-Panel" style="stroke:#181818;stroke-width:1;"/></g><!--link ActorInvestigador to ProyectoAbierto--><g class="link" data-entity-1="ent0001" data-entity-2="ent0003" data-link-type="association" data-source-line="18" id="lnk14"><path d="M257.89,83.69 C282.49,120.69 318.73,175.21 337.4,203.3" fill="none" id="ActorInvestigador-ProyectoAbierto" style="stroke:#181818;stroke-width:1;"/></g><!--link Panel to ListarInvestigadoresView--><g class="link" data-entity-1="ent0002" data-entity-2="ent0005" data-link-type="dependency" data-source-line="19" id="lnk15"><path d="M147.19,203.48 C185,179.26 245.5,140.5 245.5,140.5 C245.5,140.5 453.5,140.5 453.5,140.5 C453.5,140.5 690.756,182.3418 825.566,206.1118" fill="none" id="Panel-to-ListarInvestigadoresView" style="stroke:#181818;stroke-width:1;"/><polygon fill="#181818" points="830.49,206.98,822.3213,201.478,825.566,206.1118,820.9321,209.3564,830.49,206.98" style="stroke:#181818;stroke-width:1;stroke-linejoin:miter;stroke-miterlimit:10;"/><text fill="#000000" font-family="sans-serif" font-size="13" lengthAdjust="spacing" textLength="119.2153" x="388" y="127.9951">abrirInvestigadores()</text></g><!--link ProyectoAbierto to ListarInvestigadoresView--><g class="link" data-entity-1="ent0003" data-entity-2="ent0005" data-link-type="dependency" data-source-line="20" id="lnk16"><path d="M435.61,222.5 C542.17,222.5 717.68,222.5 825.23,222.5" fill="none" id="ProyectoAbierto-to-ListarInvestigadoresView" style="stroke:#181818;stroke-width:1;"/><polygon fill="#181818" points="830.23,222.5,821.23,218.5,825.23,222.5,821.23,226.5,830.23,222.5" style="stroke:#181818;stroke-width:1;stroke-linejoin:miter;stroke-miterlimit:10;"/><text fill="#000000" font-family="sans-serif" font-size="13" lengthAdjust="spacing" textLength="180.6353" x="543" y="215.9951">abrirInvestigadores(idProyecto)</text></g><!--link ListarInvestigadoresView to InvestigadoresController--><g class="link" data-entity-1="ent0005" data-entity-2="ent0006" data-link-type="dependency" data-source-line="21" id="lnk17"><path d="M853.59,241.51 C804.5,255.13 745.5,271.5 745.5,271.5 C745.5,271.5 745.5,289.5 745.5,289.5 C745.5,289.5 747.8707,300.865 750.7007,314.455" fill="none" id="ListarInvestigadoresView-to-InvestigadoresController" style="stroke:#181818;stroke-width:1;"/><polygon fill="#181818" points="751.72,319.35,753.8012,309.7235,750.7007,314.455,745.9692,311.3545,751.72,319.35" style="stroke:#181818;stroke-width:1;stroke-linejoin:miter;stroke-miterlimit:10;"/><text fill="#000000" font-family="sans-serif" font-size="13" lengthAdjust="spacing" textLength="299.146" x="746.5" y="285.9951">listarInvestigadores(idProyecto) : List&lt;Investigador&gt;</text></g><!--link ListarInvestigadoresView to InvestigadoresController--><g class="link" data-entity-1="ent0005" data-entity-2="ent0006" data-link-type="dependency" data-source-line="24" id="lnk20"><path d="M968.03,241.51 C1005.48,255.13 1050.5,271.5 1050.5,271.5 C1050.5,271.5 1050.5,289.5 1050.5,289.5 C1050.5,289.5 933.6251,308.5169 846.5551,322.6869" fill="none" id="ListarInvestigadoresView-to-InvestigadoresController-1" style="stroke:#181818;stroke-width:1;"/><polygon fill="#181818" points="841.62,323.49,851.1457,325.9924,846.5551,322.6869,849.8606,318.0963,841.62,323.49" style="stroke:#181818;stroke-width:1;stroke-linejoin:miter;stroke-miterlimit:10;"/><text fill="#000000" font-family="sans-serif" font-size="13" lengthAdjust="spacing" textLength="346.8169" x="1051.5" y="285.9951">filtrarInvestigadores(idProyecto, criterio) : List&lt;Investigador&gt;</text></g><!--link InvestigadoresController to InvestigadorRepository--><g class="link" data-entity-1="ent0006" data-entity-2="ent0007" data-link-type="dependency" data-source-line="22" id="lnk18"><path d="M669.19,355.68 C594.87,369.62 499.5,387.5 499.5,387.5 C499.5,387.5 499.5,405.5 499.5,405.5 C499.5,405.5 593.9657,423.2084 668.8857,437.2584" fill="none" id="InvestigadoresController-to-InvestigadorRepository" style="stroke:#181818;stroke-width:1;"/><polygon fill="#181818" points="673.8,438.18,665.6915,432.5897,668.8857,437.2584,664.2169,440.4526,673.8,438.18" style="stroke:#181818;stroke-width:1;stroke-linejoin:miter;stroke-miterlimit:10;"/><text fill="#000000" font-family="sans-serif" font-size="13" lengthAdjust="spacing" textLength="211.7197" x="500.5" y="401.9951">obtenerActivos() : List&lt;Investigador&gt;</text></g><!--link InvestigadoresController to InvestigadorRepository--><g class="link" data-entity-1="ent0006" data-entity-2="ent0007" data-link-type="dependency" data-source-line="25" id="lnk21"><path d="M754.37,357.65 C753.52,371.24 752.5,387.5 752.5,387.5 C752.5,387.5 752.5,405.5 752.5,405.5 C752.5,405.5 753.2079,416.7698 754.0579,430.3598" fill="none" id="InvestigadoresController-to-InvestigadorRepository-1" style="stroke:#181818;stroke-width:1;"/><polygon fill="#181818" points="754.37,435.35,757.8004,426.1179,754.0579,430.3598,749.816,426.6172,754.37,435.35" style="stroke:#181818;stroke-width:1;stroke-linejoin:miter;stroke-miterlimit:10;"/><text fill="#000000" font-family="sans-serif" font-size="13" lengthAdjust="spacing" textLength="245.6543" x="753.5" y="401.9951">buscarActivos(criterio) : List&lt;Investigador&gt;</text></g><!--link InvestigadoresController to ProyectoRepository--><g class="link" data-entity-1="ent0006" data-entity-2="ent0008" data-link-type="dependency" data-source-line="23" id="lnk19"><path d="M841.54,356.15 C913.17,370.02 1003.5,387.5 1003.5,387.5 C1003.5,387.5 1003.5,405.5 1003.5,405.5 C1003.5,405.5 1000.8854,416.886 997.7754,430.476" fill="none" id="InvestigadoresController-to-ProyectoRepository" style="stroke:#181818;stroke-width:1;"/><polygon fill="#181818" points="996.66,435.35,1002.5669,427.4691,997.7754,430.476,994.7685,425.6845,996.66,435.35" style="stroke:#181818;stroke-width:1;stroke-linejoin:miter;stroke-miterlimit:10;"/><text fill="#000000" font-family="sans-serif" font-size="13" lengthAdjust="spacing" textLength="520.2729" x="1004.5" y="401.9951">obtenerParticipantesDeProyectoPropio(idProyecto, ActorInvestigador) : List&lt;Investigador&gt;</text></g><!--link InvestigadorRepository to Investigador--><g class="link" data-entity-1="ent0007" data-entity-2="ent0009" data-link-type="association" data-source-line="26" id="lnk22"><path d="M777.42,473.52 C798.48,490.83 830.14,516.86 851.3,534.25" fill="none" id="InvestigadorRepository-Investigador" style="stroke:#181818;stroke-width:1;"/></g><!--link ProyectoRepository to Investigador--><g class="link" data-entity-1="ent0008" data-entity-2="ent0009" data-link-type="association" data-source-line="27" id="lnk23"><path d="M970.4,473.52 C949.16,490.83 917.22,516.86 895.89,534.25" fill="none" id="ProyectoRepository-Investigador" style="stroke:#181818;stroke-width:1;"/></g><!--link ListarInvestigadoresView to InvestigadoresAbiertos--><g class="link" data-entity-1="ent0005" data-entity-2="ent0010" data-link-type="dependency" data-source-line="28" id="lnk24"><path d="M1006.59,232.16 C1147.15,245.99 1406.5,271.5 1406.5,271.5 C1406.5,271.5 1532.5339,298.8588 1622.5439,318.4088" fill="none" id="ListarInvestigadoresView-to-InvestigadoresAbiertos" style="stroke:#181818;stroke-width:1;stroke-dasharray:7,7;"/><polygon fill="#181818" points="1627.43,319.47,1619.4841,313.6509,1622.5439,318.4088,1617.7861,321.4686,1627.43,319.47" style="stroke:#181818;stroke-width:1;stroke-linejoin:miter;stroke-miterlimit:10;"/><text fill="#000000" font-family="sans-serif" font-size="13" lengthAdjust="spacing" textLength="165.4771" x="1488.5" y="285.9951">investigadoresPresentados()</text></g><!--link ListarInvestigadoresView to AbrirInvestigador--><g class="link" data-entity-1="ent0005" data-entity-2="ent0011" data-link-type="dependency" data-source-line="29" id="lnk25"><path d="M1006.77,229.19 C1203.85,241.91 1662.5,271.5 1662.5,271.5 C1662.5,271.5 1788.9632,298.8621 1879.2732,318.4121" fill="none" id="ListarInvestigadoresView-to-AbrirInvestigador" style="stroke:#181818;stroke-width:1;stroke-dasharray:7,7;"/><polygon fill="#181818" points="1884.16,319.47,1876.21,313.6564,1879.2732,318.4121,1874.5174,321.4753,1884.16,319.47" style="stroke:#181818;stroke-width:1;stroke-linejoin:miter;stroke-miterlimit:10;"/><text fill="#000000" font-family="sans-serif" font-size="13" lengthAdjust="spacing" textLength="186.4243" x="1744.5" y="285.9951">abrirInvestigador(idInvestigador)</text></g><!--link ListarInvestigadoresView to AbrirPanel--><g class="link" data-entity-1="ent0005" data-entity-2="ent0012" data-link-type="dependency" data-source-line="30" id="lnk26"><path d="M1006.88,227.65 C1254.91,239.32 1939.5,271.5 1939.5,271.5 C1939.5,271.5 2057.7982,298.7952 2142.4782,318.3452" fill="none" id="ListarInvestigadoresView-to-AbrirPanel" style="stroke:#181818;stroke-width:1;stroke-dasharray:7,7;"/><polygon fill="#181818" points="2147.35,319.47,2139.4805,313.548,2142.4782,318.3452,2137.6809,321.3429,2147.35,319.47" style="stroke:#181818;stroke-width:1;stroke-linejoin:miter;stroke-miterlimit:10;"/><text fill="#000000" font-family="sans-serif" font-size="13" lengthAdjust="spacing" textLength="117.7681" x="2016.5" y="285.9951">abrirPanelPrincipal()</text></g><?plantuml-src hPHHQzim58NVzIiktai2TH_AMbOp0gxZ3aD8Z1CAUogoeuLBDSb8MaSO---JtQInR2lhoW8X-ERe-EhJkT9FA6ggw7VWA9ZPrmngoVVD0o6qCb91a8bdfWtkw5Qg0AY6kAbtgqInob2numm-9FFqBhw68ChZPRfup8jicMHvl7YCxxAqsAnQXvmAniTN5QklQR9PkN8bzrOhunAPCfBKj7gYEmQqLEWqmdGZ3qRg4zmUNK3M5Kf1-JI0NmJifzF8pTLjUdyB2zI6zYmUaFtioylhSdlp2LnX8eLHadEc-lBxgpZvc3hoWjLIemMwzuYFRVzLw9p8xr6wsV8XNM-oB_5yLQJh8-Dr2zdTmm6r7hL9xEPeAHKrbYF4VTel8UbNt-hKPYDNA2giAJzvlMI63C87ONZ8q_XVlUoqKWXLEFCUSZGMhCcKzApUOt9AuPJuLaAujRw-I4LsKeVhkiOGjKrzxYfcnETd6SqyWOn0beO9fYnOV9OMmJkiX_5zjSsfCjYSiZ1CpzbHQNzhb9qTNGnl74ydVgHdYNv3RjGPf1TGAJHCuN-5M_xG5Nrb-mzlE9aq0NTcR4Xx8F4okhoSUIw12D2fv_RBXB4FpLYSDHnS0oDpOKaxP_i6ntQA3rRkXJ6P_W40?></g></svg>