<svg xmlns="http://www.w3.org/2000/svg" xmlns:xlink="http://www.w3.org/1999/xlink" contentStyleType="text/css" data-diagram-type="DESCRIPTION" height="719px" preserveAspectRatio="none" style="width:2354px;height:719px;background:#FFFFFF;" version="1.1" viewBox="0 0 2354 719" width="2354px" zoomAndPan="magnify"><?plantuml 1.2026.6?><defs/><g><!--cluster abrirInvestigadores--><g class="cluster" data-qualified-name="abrirInvestigadores" data-source-line="6" id="ent0004"><path d="M454,147.5 L728.0615,147.5 A3.75,3.75 0 0 1 730.5615,150 L737.5615,171.1094 L1578,171.1094 A2.5,2.5 0 0 1 1580.5,173.6094 L1580.5,702 A2.5,2.5 0 0 1 1578,704.5 L454,704.5 A2.5,2.5 0 0 1 451.5,702 L451.5,150 A2.5,2.5 0 0 1 454,147.5" fill="none" style="stroke:#000000;stroke-width:1.5;"/><line style="stroke:#000000;stroke-width:1.5;" x1="451.5" x2="737.5615" y1="171.1094" y2="171.1094"/><text fill="#000000" font-family="sans-serif" font-size="14" font-weight="700" lengthAdjust="spacing" textLength="273.0615" x="455.5" y="164.0332">abrirInvestigadores(idProyecto opcional)</text></g><!--entity ListarInvestigadoresView--><g class="entity" data-qualified-name="abrirInvestigadores.ListarInvestigadoresView" data-source-line="7" id="ent0005"><rect fill="#629EF9" height="37.6094" rx="2.5" ry="2.5" style="stroke:#181818;stroke-width:0.5;" width="175.6338" x="893.5" y="203.5"/><text fill="#000000" font-family="sans-serif" font-size="14" lengthAdjust="spacing" textLength="155.6338" x="903.5" y="228.0332">ListarInvestigadoresView</text></g><!--entity InvestigadoresController--><g class="entity" data-qualified-name="abrirInvestigadores.InvestigadoresController" data-source-line="8" id="ent0006"><rect fill="#B5BD68" height="37.6094" rx="2.5" ry="2.5" style="stroke:#181818;stroke-width:0.5;" width="171.7441" x="732.5" y="319.5"/><text fill="#000000" font-family="sans-serif" font-size="14" lengthAdjust="spacing" textLength="151.7441" x="742.5" y="344.0332">InvestigadoresController</text></g><!--entity InvestigadorService--><g class="entity" data-qualified-name="abrirInvestigadores.InvestigadorService" data-source-line="9" id="ent0007"><rect fill="#B5BD68" height="37.6094" rx="2.5" ry="2.5" style="stroke:#181818;stroke-width:0.5;" width="142.9512" x="684" y="435.5"/><text fill="#000000" font-family="sans-serif" font-size="14" lengthAdjust="spacing" textLength="122.9512" x="694" y="460.0332">InvestigadorService</text></g><!--entity SesionService--><g class="entity" data-qualified-name="abrirInvestigadores.SesionService" data-source-line="10" id="ent0008"><rect fill="#B5BD68" height="37.6094" rx="2.5" ry="2.5" style="stroke:#181818;stroke-width:0.5;" width="109.4893" x="938" y="435.5"/><text fill="#000000" font-family="sans-serif" font-size="14" lengthAdjust="spacing" textLength="89.4893" x="948" y="460.0332">SesionService</text></g><!--entity InvestigadorRepository--><g class="entity" data-qualified-name="abrirInvestigadores.InvestigadorRepository" data-source-line="11" id="ent0009"><rect fill="#F2AC4E" height="37.6094" rx="2.5" ry="2.5" style="stroke:#181818;stroke-width:0.5;" width="163.1855" x="674" y="551.5"/><text fill="#000000" font-family="sans-serif" font-size="14" lengthAdjust="spacing" textLength="143.1855" x="684" y="576.0332">InvestigadorRepository</text></g><!--entity ProyectoRepository--><g class="entity" data-qualified-name="abrirInvestigadores.ProyectoRepository" data-source-line="12" id="ent0010"><rect fill="#F2AC4E" height="37.6094" rx="2.5" ry="2.5" style="stroke:#181818;stroke-width:0.5;" width="142.165" x="921.5" y="551.5"/><text fill="#000000" font-family="sans-serif" font-size="14" lengthAdjust="spacing" textLength="122.165" x="931.5" y="576.0332">ProyectoRepository</text></g><!--entity Investigador--><g class="entity" data-qualified-name="abrirInvestigadores.Investigador" data-source-line="13" id="ent0011"><rect fill="#F2AC4E" height="37.6094" rx="2.5" ry="2.5" style="stroke:#181818;stroke-width:0.5;" width="96.2686" x="825.5" y="650.5"/><text fill="#000000" font-family="sans-serif" font-size="14" lengthAdjust="spacing" textLength="76.2686" x="835.5" y="675.0332">Investigador</text></g><!--entity ActorInvestigador--><g class="entity" data-qualified-name="ActorInvestigador" data-source-line="3" id="ent0001"><ellipse cx="232.6343" cy="14" fill="#F1F1F1" rx="8" ry="8" style="stroke:#181818;stroke-width:0.5;"/><path d="M232.6343,22 L232.6343,49 M219.6343,30 L245.6343,30 M232.6343,49 L219.6343,64 M232.6343,49 L245.6343,64" fill="none" style="stroke:#181818;stroke-width:0.5;"/><text fill="#000000" font-family="sans-serif" font-size="14" lengthAdjust="spacing" textLength="76.2686" x="194.5" y="80.0332">Investigador</text></g><!--entity Panel--><g class="entity" data-qualified-name="Panel" data-source-line="4" id="ent0002"><rect fill="#CDEBA5" height="37.6094" rx="2.5" ry="2.5" style="stroke:#181818;stroke-width:0.5;" width="220.7373" x="7" y="203.5"/><text fill="#000000" font-family="sans-serif" font-size="14" lengthAdjust="spacing" textLength="200.7373" x="17" y="228.0332">:PANEL_PRINCIPAL_ABIERTO</text></g><!--entity ProyectoAbierto--><g class="entity" data-qualified-name="ProyectoAbierto" data-source-line="5" id="ent0003"><rect fill="#CDEBA5" height="37.6094" rx="2.5" ry="2.5" style="stroke:#181818;stroke-width:0.5;" width="171.6963" x="263.5" y="203.5"/><text fill="#000000" font-family="sans-serif" font-size="14" lengthAdjust="spacing" textLength="151.6963" x="273.5" y="228.0332">:PROYECTO_ABIERTO</text></g><!--entity InvestigadoresAbiertos--><g class="entity" data-qualified-name="InvestigadoresAbiertos" data-source-line="15" id="ent0012"><rect fill="#CDEBA5" height="37.6094" rx="2.5" ry="2.5" style="stroke:#181818;stroke-width:0.5;" width="226.9375" x="1597" y="319.5"/><text fill="#000000" font-family="sans-serif" font-size="14" lengthAdjust="spacing" textLength="206.9375" x="1607" y="344.0332">:INVESTIGADORES_ABIERTOS</text></g><!--entity AbrirInvestigador--><g class="entity" data-qualified-name="AbrirInvestigador" data-source-line="16" id="ent0013"><rect fill="#CDEBA5" height="37.6094" rx="2.5" ry="2.5" style="stroke:#181818;stroke-width:0.5;" width="216.1025" x="1859.5" y="319.5"/><text fill="#000000" font-family="sans-serif" font-size="14" lengthAdjust="spacing" textLength="196.1025" x="1869.5" y="344.0332">:Collaboration AbrirInvestigador</text></g><!--entity AbrirPanel--><g class="entity" data-qualified-name="AbrirPanel" data-source-line="17" id="ent0014"><rect fill="#CDEBA5" height="37.6094" rx="2.5" ry="2.5" style="stroke:#181818;stroke-width:0.5;" width="229.3301" x="2111" y="319.5"/><text fill="#000000" font-family="sans-serif" font-size="14" lengthAdjust="spacing" textLength="209.3301" x="2121" y="344.0332">:Collaboration AbrirPanelPrincipal</text></g><!--link ActorInvestigador to Panel--><g class="link" data-entity-1="ent0001" data-entity-2="ent0002" data-link-type="association" data-source-line="19" id="lnk15"><path d="M207.55,83.69 C183.37,120.69 147.74,175.21 129.39,203.3" fill="none" id="ActorInvestigador-Panel" style="stroke:#181818;stroke-width:1;"/></g><!--link ActorInvestigador to ProyectoAbierto--><g class="link" data-entity-1="ent0001" data-entity-2="ent0003" data-link-type="association" data-source-line="20" id="lnk16"><path d="M257.89,83.69 C282.49,120.69 318.73,175.21 337.4,203.3" fill="none" id="ActorInvestigador-ProyectoAbierto" style="stroke:#181818;stroke-width:1;"/></g><!--link Panel to ListarInvestigadoresView--><g class="link" data-entity-1="ent0002" data-entity-2="ent0005" data-link-type="dependency" data-source-line="21" id="lnk17"><path d="M147.19,203.48 C185,179.26 245.5,140.5 245.5,140.5 C245.5,140.5 453.5,140.5 453.5,140.5 C453.5,140.5 738.2592,184.7227 888.4792,208.0527" fill="none" id="Panel-to-ListarInvestigadoresView" style="stroke:#181818;stroke-width:1;"/><polygon fill="#181818" points="893.42,208.82,885.1405,203.4862,888.4792,208.0527,883.9128,211.3914,893.42,208.82" style="stroke:#181818;stroke-width:1;stroke-linejoin:miter;stroke-miterlimit:10;"/><text fill="#000000" font-family="sans-serif" font-size="13" lengthAdjust="spacing" textLength="119.2153" x="388" y="127.9951">abrirInvestigadores()</text></g><!--link ProyectoAbierto to ListarInvestigadoresView--><g class="link" data-entity-1="ent0003" data-entity-2="ent0005" data-link-type="dependency" data-source-line="22" id="lnk18"><path d="M435.72,222.5 C555.8,222.5 767.25,222.5 888.35,222.5" fill="none" id="ProyectoAbierto-to-ListarInvestigadoresView" style="stroke:#181818;stroke-width:1;"/><polygon fill="#181818" points="893.35,222.5,884.35,218.5,888.35,222.5,884.35,226.5,893.35,222.5" style="stroke:#181818;stroke-width:1;stroke-linejoin:miter;stroke-miterlimit:10;"/><text fill="#000000" font-family="sans-serif" font-size="13" lengthAdjust="spacing" textLength="180.6353" x="574.5" y="215.9951">abrirInvestigadores(idProyecto)</text></g><!--link ListarInvestigadoresView to InvestigadoresController--><g class="link" data-entity-1="ent0005" data-entity-2="ent0006" data-link-type="dependency" data-source-line="23" id="lnk19"><path d="M916.59,241.51 C867.5,255.13 808.5,271.5 808.5,271.5 C808.5,271.5 808.5,289.5 808.5,289.5 C808.5,289.5 810.8707,300.865 813.7007,314.455" fill="none" id="ListarInvestigadoresView-to-InvestigadoresController" style="stroke:#181818;stroke-width:1;"/><polygon fill="#181818" points="814.72,319.35,816.8012,309.7235,813.7007,314.455,808.9692,311.3545,814.72,319.35" style="stroke:#181818;stroke-width:1;stroke-linejoin:miter;stroke-miterlimit:10;"/><text fill="#000000" font-family="sans-serif" font-size="13" lengthAdjust="spacing" textLength="299.146" x="809.5" y="285.9951">listarInvestigadores(idProyecto) : List&lt;Investigador&gt;</text></g><!--link ListarInvestigadoresView to InvestigadoresController--><g class="link" data-entity-1="ent0005" data-entity-2="ent0006" data-link-type="dependency" data-source-line="28" id="lnk24"><path d="M1031.03,241.51 C1068.48,255.13 1113.5,271.5 1113.5,271.5 C1113.5,271.5 1113.5,289.5 1113.5,289.5 C1113.5,289.5 996.6251,308.5169 909.5551,322.6869" fill="none" id="ListarInvestigadoresView-to-InvestigadoresController-1" style="stroke:#181818;stroke-width:1;"/><polygon fill="#181818" points="904.62,323.49,914.1457,325.9924,909.5551,322.6869,912.8606,318.0963,904.62,323.49" style="stroke:#181818;stroke-width:1;stroke-linejoin:miter;stroke-miterlimit:10;"/><text fill="#000000" font-family="sans-serif" font-size="13" lengthAdjust="spacing" textLength="346.8169" x="1114.5" y="285.9951">filtrarInvestigadores(idProyecto, criterio) : List&lt;Investigador&gt;</text></g><!--link InvestigadoresController to InvestigadorService--><g class="link" data-entity-1="ent0006" data-entity-2="ent0007" data-link-type="dependency" data-source-line="24" id="lnk20"><path d="M793.55,357.65 C774.86,371.24 752.5,387.5 752.5,387.5 C752.5,387.5 752.5,405.5 752.5,405.5 C752.5,405.5 753.2079,416.7698 754.0579,430.3598" fill="none" id="InvestigadoresController-to-InvestigadorService" style="stroke:#181818;stroke-width:1;"/><polygon fill="#181818" points="754.37,435.35,757.8004,426.1179,754.0579,430.3598,749.816,426.6172,754.37,435.35" style="stroke:#181818;stroke-width:1;stroke-linejoin:miter;stroke-miterlimit:10;"/><text fill="#000000" font-family="sans-serif" font-size="13" lengthAdjust="spacing" textLength="195.0698" x="753.5" y="401.9951">listar(sesion, criterio, proyectoId?)</text></g><!--link InvestigadoresController to SesionService--><g class="link" data-entity-1="ent0006" data-entity-2="ent0008" data-link-type="dependency" data-source-line="25" id="lnk21"><path d="M869.15,357.51 C907.46,371.13 953.5,387.5 953.5,387.5 C953.5,387.5 967.7584,411.6142 979.2984,431.1642" fill="none" id="InvestigadoresController-to-SesionService" style="stroke:#181818;stroke-width:1;"/><polygon fill="#181818" points="981.84,435.47,980.7097,425.6862,979.2984,431.1642,973.8204,429.7528,981.84,435.47" style="stroke:#181818;stroke-width:1;stroke-linejoin:miter;stroke-miterlimit:10;"/><text fill="#000000" font-family="sans-serif" font-size="13" lengthAdjust="spacing" textLength="209.5806" x="964.5" y="401.9951">obtenerSesionActual(authentication)</text></g><!--link InvestigadorService to InvestigadorRepository--><g class="link" data-entity-1="ent0007" data-entity-2="ent0009" data-link-type="dependency" data-source-line="26" id="lnk22"><path d="M683.85,468.93 C608.12,483.13 499.5,503.5 499.5,503.5 C499.5,503.5 499.5,521.5 499.5,521.5 C499.5,521.5 593.9657,539.2084 668.8857,553.2584" fill="none" id="InvestigadorService-to-InvestigadorRepository" style="stroke:#181818;stroke-width:1;"/><polygon fill="#181818" points="673.8,554.18,665.6915,548.5897,668.8857,553.2584,664.2169,556.4526,673.8,554.18" style="stroke:#181818;stroke-width:1;stroke-linejoin:miter;stroke-miterlimit:10;"/><text fill="#000000" font-family="sans-serif" font-size="13" lengthAdjust="spacing" textLength="211.7197" x="500.5" y="517.9951">obtenerActivos() : List&lt;Investigador&gt;</text></g><!--link InvestigadorService to InvestigadorRepository--><g class="link" data-entity-1="ent0007" data-entity-2="ent0009" data-link-type="dependency" data-source-line="29" id="lnk25"><path d="M754.37,473.65 C753.52,487.24 752.5,503.5 752.5,503.5 C752.5,503.5 752.5,521.5 752.5,521.5 C752.5,521.5 753.2079,532.7698 754.0579,546.3598" fill="none" id="InvestigadorService-to-InvestigadorRepository-1" style="stroke:#181818;stroke-width:1;"/><polygon fill="#181818" points="754.37,551.35,757.8004,542.1179,754.0579,546.3598,749.816,542.6172,754.37,551.35" style="stroke:#181818;stroke-width:1;stroke-linejoin:miter;stroke-miterlimit:10;"/><text fill="#000000" font-family="sans-serif" font-size="13" lengthAdjust="spacing" textLength="245.6543" x="753.5" y="517.9951">buscarActivos(criterio) : List&lt;Investigador&gt;</text></g><!--link InvestigadorService to ProyectoRepository--><g class="link" data-entity-1="ent0007" data-entity-2="ent0010" data-link-type="dependency" data-source-line="27" id="lnk23"><path d="M827.23,469.38 C900.48,483.56 1003.5,503.5 1003.5,503.5 C1003.5,503.5 1003.5,521.5 1003.5,521.5 C1003.5,521.5 1000.8854,532.886 997.7754,546.476" fill="none" id="InvestigadorService-to-ProyectoRepository" style="stroke:#181818;stroke-width:1;"/><polygon fill="#181818" points="996.66,551.35,1002.5669,543.4691,997.7754,546.476,994.7685,541.6845,996.66,551.35" style="stroke:#181818;stroke-width:1;stroke-linejoin:miter;stroke-miterlimit:10;"/><text fill="#000000" font-family="sans-serif" font-size="13" lengthAdjust="spacing" textLength="520.2729" x="1004.5" y="517.9951">obtenerParticipantesDeProyectoPropio(idProyecto, ActorInvestigador) : List&lt;Investigador&gt;</text></g><!--link InvestigadorRepository to Investigador--><g class="link" data-entity-1="ent0009" data-entity-2="ent0011" data-link-type="association" data-source-line="30" id="lnk26"><path d="M777.42,589.52 C798.48,606.83 830.14,632.86 851.3,650.25" fill="none" id="InvestigadorRepository-Investigador" style="stroke:#181818;stroke-width:1;"/></g><!--link ProyectoRepository to Investigador--><g class="link" data-entity-1="ent0010" data-entity-2="ent0011" data-link-type="association" data-source-line="31" id="lnk27"><path d="M970.4,589.52 C949.16,606.83 917.22,632.86 895.89,650.25" fill="none" id="ProyectoRepository-Investigador" style="stroke:#181818;stroke-width:1;"/></g><!--link ListarInvestigadoresView to InvestigadoresAbiertos--><g class="link" data-entity-1="ent0005" data-entity-2="ent0012" data-link-type="dependency" data-source-line="32" id="lnk28"><path d="M1069.59,232.16 C1210.15,245.99 1469.5,271.5 1469.5,271.5 C1469.5,271.5 1568.4677,298.5989 1639.8277,318.1489" fill="none" id="ListarInvestigadoresView-to-InvestigadoresAbiertos" style="stroke:#181818;stroke-width:1;stroke-dasharray:7,7;"/><polygon fill="#181818" points="1644.65,319.47,1637.0268,313.2341,1639.8277,318.1489,1634.9129,320.9498,1644.65,319.47" style="stroke:#181818;stroke-width:1;stroke-linejoin:miter;stroke-miterlimit:10;"/><text fill="#000000" font-family="sans-serif" font-size="13" lengthAdjust="spacing" textLength="165.4771" x="1534.5" y="285.9951">investigadoresPresentados()</text></g><!--link ListarInvestigadoresView to AbrirInvestigador--><g class="link" data-entity-1="ent0005" data-entity-2="ent0013" data-link-type="dependency" data-source-line="33" id="lnk29"><path d="M1069.56,229.31 C1263.11,242.09 1708.5,271.5 1708.5,271.5 C1708.5,271.5 1815.195,298.6849 1891.885,318.2349" fill="none" id="ListarInvestigadoresView-to-AbrirInvestigador" style="stroke:#181818;stroke-width:1;stroke-dasharray:7,7;"/><polygon fill="#181818" points="1896.73,319.47,1888.997,313.3708,1891.885,318.2349,1887.0208,321.1228,1896.73,319.47" style="stroke:#181818;stroke-width:1;stroke-linejoin:miter;stroke-miterlimit:10;"/><text fill="#000000" font-family="sans-serif" font-size="13" lengthAdjust="spacing" textLength="186.4243" x="1778.5" y="285.9951">abrirInvestigador(idInvestigador)</text></g><!--link ListarInvestigadoresView to AbrirPanel--><g class="link" data-entity-1="ent0005" data-entity-2="ent0014" data-link-type="dependency" data-source-line="34" id="lnk30"><path d="M1069.53,227.76 C1312.31,239.51 1973.5,271.5 1973.5,271.5 C1973.5,271.5 2077.1933,298.6526 2151.8033,318.2026" fill="none" id="ListarInvestigadoresView-to-AbrirPanel" style="stroke:#181818;stroke-width:1;stroke-dasharray:7,7;"/><polygon fill="#181818" points="2156.64,319.47,2148.9478,313.3194,2151.8033,318.2026,2146.92,321.0581,2156.64,319.47" style="stroke:#181818;stroke-width:1;stroke-linejoin:miter;stroke-miterlimit:10;"/><text fill="#000000" font-family="sans-serif" font-size="13" lengthAdjust="spacing" textLength="117.7681" x="2041.5" y="285.9951">abrirPanelPrincipal()</text></g><?plantuml-src dPHVQzim5CNV_Iaktai2IH_AMbPJCbp77OQGc2GKzbHavouJrIGZAHbXxBjFTlvPjfMc2uHWvUZdgtlEbNgZl22I_096EUfTWL08jYiVF8_aMaZm4xv5fUcQh8JqWIW8o_NwgYSnruIl6SAdQ1m_XNVW1sauZIUlwJoPHaaQJbx3foIUBsSL8IKSMVUk-Unx72rdjboAdT6ACACejV0Aah-HDGB99BKAGLNA_Oxr7bqTAI2Ad0fEMD-7FnwOJwsG-zk7-Fa19bHfqa2yKFpTb6TtsUh-2zZ2I70j1MCehv0lK6vfZWxb0fKfrQ5vlWsZpx55csCX53Nsx1pYOnFU5Lh-_ktqAfc-n8jbyYqSp-RnukZOehBCxiZ1EDM9YKohI2OaqUQe43QzsqUkkNejgKfQAYdFQK7OcRLFeDUACWo7XtHs_zL8OYM5eHoEd949kcBQwtiDrFz0pfdkUwwTC5mPhYkWWPdxzhuw68AggCUwOkIvUAP7ewvu7z_JKrMW1v1Bgb5ICO3YyAPazRL_cMiDGm0YqyXHxbUDMnl2UcIZVoBNDAyYOFCE6ribdaVXn3GqkXN6fVTFNwUsX-j4J8aqLPaCSergZ4Ub-IsegFLxqBvT7KMu3R_ezm_AjBnW-DcQ3nxUrT9iet9owkW7u6T8ENdMyBSRtP8ustDpCtBSJW5GQpqrNnCcyr3EwqLWwtxg65ZJPClMAuZLzN90sJTPh_yF?></g></svg>