<svg xmlns="http://www.w3.org/2000/svg" xmlns:xlink="http://www.w3.org/1999/xlink" contentStyleType="text/css" data-diagram-type="STATE" height="860px" preserveAspectRatio="none" style="width:963px;height:860px;background:#FFFFFF;" version="1.1" viewBox="0 0 963 860" width="963px" zoomAndPan="magnify"><?plantuml 1.2026.6?><defs/><g><g class="entity" data-qualified-name="in1" data-source-line="3" id="ent0001"><rect fill="#F1F1F1" height="50" rx="12.5" ry="12.5" style="stroke:#181818;stroke-width:0.5;" width="205.9375" x="374.5" y="7"/><line style="stroke:#181818;stroke-width:0.5;" x1="374.5" x2="580.4375" y1="34.6094" y2="34.6094"/><text fill="#000000" font-family="sans-serif" font-size="14" lengthAdjust="spacing" textLength="185.9375" x="384.5" y="26.5332">MI_PUBLICACION_ABIERTA</text></g><g class="entity" data-qualified-name="editarPublicacion" data-source-line="6" id="ent0002"><path d="M19.5,135 L935.5,135 A12.5,12.5 0 0 1 948,147.5 L948,162.6094 L7,162.6094 L7,147.5 A12.5,12.5 0 0 1 19.5,135" fill="#F1F1F1"/><rect fill="none" height="582.6094" rx="12.5" ry="12.5" style="stroke:#181818;stroke-width:0.5;" width="941" x="7" y="135"/><line style="stroke:#181818;stroke-width:0.5;" x1="7" x2="948" y1="162.6094" y2="162.6094"/><text fill="#000000" font-family="sans-serif" font-size="14" lengthAdjust="spacing" textLength="115.9443" x="419.5278" y="154.5332">editarPublicacion()</text><g class="entity" data-qualified-name="editarPublicacion.VerificandoAutoria" data-source-line="7" id="ent0003"><rect fill="#F1F1F1" height="50" rx="12.5" ry="12.5" style="stroke:#181818;stroke-width:0.5;" width="50" x="334" y="265.6094"/><line style="stroke:#181818;stroke-width:0.5;" x1="334" x2="384" y1="293.2188" y2="293.2188"/><text fill="#000000" font-family="sans-serif" font-size="14" lengthAdjust="spacing" textLength="3.8896" x="357.0552" y="285.1426">&#160;</text></g><g class="entity" data-qualified-name="editarPublicacion.EditandoDatos" data-source-line="8" id="ent0004"><rect fill="#F1F1F1" height="50" rx="12.5" ry="12.5" style="stroke:#181818;stroke-width:0.5;" width="50" x="334" y="420.6094"/><line style="stroke:#181818;stroke-width:0.5;" x1="334" x2="384" y1="448.2188" y2="448.2188"/><text fill="#000000" font-family="sans-serif" font-size="14" lengthAdjust="spacing" textLength="3.8896" x="357.0552" y="440.1426">&#160;</text></g><g class="entity" data-qualified-name="editarPublicacion.ValidandoDatos" data-source-line="9" id="ent0005"><rect fill="#F1F1F1" height="50" rx="12.5" ry="12.5" style="stroke:#181818;stroke-width:0.5;" width="50" x="270" y="543.6094"/><line style="stroke:#181818;stroke-width:0.5;" x1="270" x2="320" y1="571.2188" y2="571.2188"/><text fill="#000000" font-family="sans-serif" font-size="14" lengthAdjust="spacing" textLength="3.8896" x="293.0552" y="563.1426">&#160;</text></g><g class="start_entity" data-qualified-name="editarPublicacion..start.editarPublicacion" data-source-line="11" id="ent0007"><ellipse cx="359" cy="183.6094" fill="#222222" rx="10" ry="10" style="stroke:#222222;stroke-width:1;"/></g><g class="end_entity" data-qualified-name="editarPublicacion..end.editarPublicacion" data-source-line="28" id="ent0011"><ellipse cx="474" cy="693.6094" fill="none" rx="11" ry="11" style="stroke:#222222;stroke-width:1;"/><ellipse cx="474" cy="693.6094" fill="#222222" rx="6" ry="6" style="stroke:#222222;stroke-width:1;"/></g><!--link *start*editarPublicacion to VerificandoAutoria--><g class="link" data-entity-1="ent0007" data-entity-2="ent0003" data-link-type="dependency" data-source-line="11" id="lnk8"><path d="M359,193.9294 C359,209.7894 359,237.5194 359,260.2494" fill="none" id="*start*editarPublicacion-to-VerificandoAutoria" style="stroke:#008000;stroke-width:1;"/><polygon fill="#008000" points="359,265.2494,363,256.2494,359,260.2494,355,256.2494,359,265.2494" style="stroke:#008000;stroke-width:1;stroke-linejoin:miter;stroke-miterlimit:10;"/><path d="M364,216.6094 L364,242.6094 L675,242.6094 L675,226.6094 L665,216.6094 L364,216.6094" fill="#FEFFDD" style="stroke:#181818;stroke-width:0.5;"/><path d="M665,216.6094 L665,226.6094 L675,226.6094 L665,216.6094" fill="#FEFFDD" style="stroke:#181818;stroke-width:0.5;"/><text fill="#000000" font-family="sans-serif" font-size="13" font-weight="700" lengthAdjust="spacing" textLength="77.2954" x="370" y="235.1045">Investigador</text><text fill="#000000" font-family="sans-serif" font-size="13" lengthAdjust="spacing" textLength="209.5742" x="450.9072" y="235.1045">solicita editar una publicacion propia</text></g><!--link VerificandoAutoria to EditandoDatos--><g class="link" data-entity-1="ent0003" data-entity-2="ent0004" data-link-type="dependency" data-source-line="16" id="lnk9"><path d="M359,315.8494 C359,344.4994 359,386.8794 359,415.4794" fill="none" id="VerificandoAutoria-to-EditandoDatos" style="stroke:#008000;stroke-width:1;"/><polygon fill="#008000" points="359,420.4794,363,411.4794,359,415.4794,355,411.4794,359,420.4794" style="stroke:#008000;stroke-width:1;stroke-linejoin:miter;stroke-miterlimit:10;"/><path d="M364,338.6094 L364,397.6094 L661,397.6094 L661,348.6094 L651,338.6094 L364,338.6094" fill="#FEFFDD" style="stroke:#181818;stroke-width:0.5;"/><path d="M651,338.6094 L651,348.6094 L661,348.6094 L651,338.6094" fill="#FEFFDD" style="stroke:#181818;stroke-width:0.5;"/><text fill="#000000" font-family="sans-serif" font-size="13" font-weight="700" lengthAdjust="spacing" textLength="49.8608" x="370" y="357.1045">Sistema</text><text fill="#000000" font-family="sans-serif" font-size="13" lengthAdjust="spacing" textLength="222.5679" x="423.4727" y="357.1045">verifica que el Investigador es su autor</text><text fill="#000000" font-family="sans-serif" font-size="13" font-weight="700" lengthAdjust="spacing" textLength="49.8608" x="370" y="373.4561">Sistema</text><text fill="#000000" font-family="sans-serif" font-size="13" lengthAdjust="spacing" textLength="195.1333" x="423.4727" y="373.4561">presenta titulo, contenido, estado,</text><text fill="#000000" font-family="sans-serif" font-size="13" lengthAdjust="spacing" textLength="174.8843" x="370" y="389.8076">visibilidad y adjuntos editables</text></g><!--link EditandoDatos to ValidandoDatos--><g class="link" data-entity-1="ent0004" data-entity-2="ent0005" data-link-type="dependency" data-source-line="23" id="lnk10"><path d="M333.93,449.6994 C255.18,459.3994 18,488.6094 18,488.6094 C18,488.6094 18,524.6094 18,524.6094 C18,524.6094 196.7992,552.3621 264.9892,562.9521" fill="none" id="EditandoDatos-to-ValidandoDatos" style="stroke:#008000;stroke-width:1;"/><polygon fill="#008000" points="269.93,563.7194,261.6505,558.3856,264.9892,562.9521,260.4228,566.2908,269.93,563.7194" style="stroke:#008000;stroke-width:1;stroke-linejoin:miter;stroke-miterlimit:10;"/><path d="M23,493.6094 L23,519.6094 L332,519.6094 L332,503.6094 L322,493.6094 L23,493.6094" fill="#FEFFDD" style="stroke:#181818;stroke-width:0.5;"/><path d="M322,493.6094 L322,503.6094 L332,503.6094 L322,493.6094" fill="#FEFFDD" style="stroke:#181818;stroke-width:0.5;"/><text fill="#000000" font-family="sans-serif" font-size="13" font-weight="700" lengthAdjust="spacing" textLength="77.2954" x="29" y="512.1045">Investigador</text><text fill="#000000" font-family="sans-serif" font-size="13" lengthAdjust="spacing" textLength="207.3779" x="109.9072" y="512.1045">introduce cambios y solicita guardar</text></g><!--link ValidandoDatos to *end*editarPublicacion--><g class="link" data-entity-1="ent0005" data-entity-2="ent0011" data-link-type="dependency" data-source-line="28" id="lnk12"><path d="M295.26,594.0694 C295.55,622.2194 296,664.6094 296,664.6094 C296,664.6094 419.5508,684.0422 458.1908,690.1222" fill="none" id="ValidandoDatos-to-*end*editarPublicacion" style="stroke:#008000;stroke-width:1;"/><polygon fill="#008000" points="463.13,690.8994,454.8611,685.5491,458.1908,690.1222,453.6176,693.4518,463.13,690.8994" style="stroke:#008000;stroke-width:1;stroke-linejoin:miter;stroke-miterlimit:10;"/><path d="M301,617.6094 L301,659.6094 L634,659.6094 L634,627.6094 L624,617.6094 L301,617.6094" fill="#FEFFDD" style="stroke:#181818;stroke-width:0.5;"/><path d="M624,617.6094 L624,627.6094 L634,627.6094 L624,617.6094" fill="#FEFFDD" style="stroke:#181818;stroke-width:0.5;"/><text fill="#000000" font-family="sans-serif" font-size="13" font-weight="700" lengthAdjust="spacing" textLength="49.8608" x="307" y="636.1045">Sistema</text><text fill="#000000" font-family="sans-serif" font-size="13" lengthAdjust="spacing" textLength="259.397" x="360.4727" y="636.1045">registra los cambios, conserva la trazabilidad</text><text fill="#000000" font-family="sans-serif" font-size="13" lengthAdjust="spacing" textLength="212.4688" x="307" y="652.4561">y presenta la publicacion actualizada</text></g><!--link ValidandoDatos to EditandoDatos--><g class="link" data-entity-1="ent0005" data-entity-2="ent0004" data-link-type="dependency" data-source-line="34" id="lnk13"><path d="M318.46,543.5994 C328.08,533.7494 337,524.6094 337,524.6094 C337,524.6094 344.3425,498.5716 350.8025,475.6716" fill="none" id="ValidandoDatos-to-EditandoDatos" style="stroke:#FF0000;stroke-width:1;"/><polygon fill="#FF0000" points="352.16,470.8594,345.8667,478.4353,350.8025,475.6716,353.5663,480.6073,352.16,470.8594" style="stroke:#FF0000;stroke-width:1;stroke-linejoin:miter;stroke-miterlimit:10;"/><path d="M352,493.6094 L352,519.6094 L621,519.6094 L621,503.6094 L611,493.6094 L352,493.6094" fill="#FEFFDD" style="stroke:#181818;stroke-width:0.5;"/><path d="M611,493.6094 L611,503.6094 L621,503.6094 L611,493.6094" fill="#FEFFDD" style="stroke:#181818;stroke-width:0.5;"/><text fill="#000000" font-family="sans-serif" font-size="13" font-weight="700" lengthAdjust="spacing" textLength="49.8608" x="358" y="512.1045">Sistema</text><text fill="#000000" font-family="sans-serif" font-size="13" lengthAdjust="spacing" textLength="195.1079" x="411.4727" y="512.1045">presenta los errores de validacion</text></g><!--link EditandoDatos to *end*editarPublicacion--><g class="link" data-entity-1="ent0004" data-entity-2="ent0011" data-link-type="dependency" data-source-line="39" id="lnk14"><path d="M384.01,450.4894 C451.1,460.8794 630,488.6094 630,488.6094 C630,488.6094 639,612.6094 639,612.6094 C639,612.6094 639,664.6094 639,664.6094 C639,664.6094 526.4595,683.7026 489.7595,689.9326" fill="none" id="EditandoDatos-to-*end*editarPublicacion" style="stroke:#FF0000;stroke-width:1;"/><polygon fill="#FF0000" points="484.83,690.7694,494.3725,693.2067,489.7595,689.9326,493.0336,685.3195,484.83,690.7694" style="stroke:#FF0000;stroke-width:1;stroke-linejoin:miter;stroke-miterlimit:10;"/><path d="M642,547.6094 L642,589.6094 L924,589.6094 L924,557.6094 L914,547.6094 L642,547.6094" fill="#FEFFDD" style="stroke:#181818;stroke-width:0.5;"/><path d="M914,547.6094 L914,557.6094 L924,557.6094 L914,547.6094" fill="#FEFFDD" style="stroke:#181818;stroke-width:0.5;"/><text fill="#000000" font-family="sans-serif" font-size="13" font-weight="700" lengthAdjust="spacing" textLength="77.2954" x="648" y="566.1045">Investigador</text><text fill="#000000" font-family="sans-serif" font-size="13" lengthAdjust="spacing" textLength="92.4854" x="728.9072" y="566.1045">solicita cancelar</text><text fill="#000000" font-family="sans-serif" font-size="13" font-weight="700" lengthAdjust="spacing" textLength="49.8608" x="648" y="582.4561">Sistema</text><text fill="#000000" font-family="sans-serif" font-size="13" lengthAdjust="spacing" textLength="208.1143" x="701.4727" y="582.4561">mantiene la publicacion sin cambios</text></g></g><g class="entity" data-qualified-name="MI_PUBLICACION_ABIERTA" data-source-line="46" id="ent0015"><rect fill="#F1F1F1" height="50" rx="12.5" ry="12.5" style="stroke:#181818;stroke-width:0.5;" width="205.9375" x="374.5" y="796"/><line style="stroke:#181818;stroke-width:0.5;" x1="374.5" x2="580.4375" y1="823.6094" y2="823.6094"/><text fill="#000000" font-family="sans-serif" font-size="14" lengthAdjust="spacing" textLength="185.9375" x="384.5" y="815.5332">MI_PUBLICACION_ABIERTA</text></g><!--link in1 to editarPublicacion--><g class="link" data-entity-1="ent0001" data-entity-2="ent0002" data-link-type="dependency" data-source-line="4" id="lnk6"><path d="M477.5,57.26 C477.5,75.64 477.5,98.12 477.5,129.95" fill="none" id="in1-to-editarPublicacion" style="stroke:#008000;stroke-width:1;"/><polygon fill="#008000" points="477.5,134.95,481.5,125.95,477.5,129.95,473.5,125.95,477.5,134.95" style="stroke:#008000;stroke-width:1;stroke-linejoin:miter;stroke-miterlimit:10;"/><text fill="#000000" font-family="sans-serif" font-size="13" lengthAdjust="spacing" textLength="107.6626" x="478.5" y="101.4951">editarPublicacion()</text></g><!--link editarPublicacion to MI_PUBLICACION_ABIERTA--><g class="link" data-entity-1="ent0002" data-entity-2="ent0015" data-link-type="dependency" data-source-line="46" id="lnk16"><path d="M477.5,718.16 C477.5,749.98 477.5,772.45 477.5,790.82" fill="none" id="editarPublicacion-to-MI_PUBLICACION_ABIERTA" style="stroke:#008000;stroke-width:1;"/><polygon fill="#008000" points="477.5,795.82,481.5,786.82,477.5,790.82,473.5,786.82,477.5,795.82" style="stroke:#008000;stroke-width:1;stroke-linejoin:miter;stroke-miterlimit:10;"/><text fill="#000000" font-family="sans-serif" font-size="13" lengthAdjust="spacing" textLength="218.9561" x="478.5" y="762.4951">Publicacion actualizada o sin cambios</text></g><?plantuml-src dLHBQzj04BxhLmpk9Iq9eTSI34wQWw1fJL-N4C98EpNJh6ULVGYKql_UaQnWRwKKK_cYNSr-hnblU61fqECMB0l5hY5edEtwHL64Y960vIrWWCLDUR_-TlcXl5fTbPy-tgyko-lFNrUBelz-Tljguudaxcm9P3YYNwVASeqrEu5tqxsJry_mq_AURER00duLeC_ks49_MlYTFF_G4Z5kbQBpZDEQwnvB2zvZT6460YsR_VUXuFRDNURf1Hfn2gEADQw7OUEYMfRIKeYyGUFynNcrXE3KWoeOdK8IXER0RkDTC-AHc05p9s9AcccQsfgJyuL3f2qEIjeH41wJvcxXK2fGW900UwAviusdGA8k8iTatIdKJY896trL48Ku7Owr7BZYFb437Q3vcKJbxRnNbiACpyn87dlUcgCZPudUcLGJrBYjM56xVHis2Rr1FnTuHfSfqO4uAc9F6rrv1Ai08_cGLI3Vwgxcv_49nuG6X6wVhSqd0-kOLD8J6ZnAhIVpVuEn5z2todkdQp04xK3HQpccRIFzlw9w-S-XOrwJnTdPsw949g6_ymaipndd-duNnVHQEMpd_5sc5zLwFdvmXsH_0000?></g></svg>