<svg xmlns="http://www.w3.org/2000/svg" xmlns:xlink="http://www.w3.org/1999/xlink" contentStyleType="text/css" height="849px" preserveAspectRatio="none" style="width:946px;height:849px;background:#FFFFFF;" version="1.1" viewBox="0 0 946 849" width="946px" zoomAndPan="magnify"><defs/><g><g id="in1"><rect fill="#F1F1F1" height="50" rx="12.5" ry="12.5" style="stroke:#181818;stroke-width:0.5;" width="205.9375" x="367" y="7"/><line style="stroke:#181818;stroke-width:0.5;" x1="367" x2="572.9375" y1="34.6094" y2="34.6094"/><text fill="#000000" font-family="sans-serif" font-size="14" lengthAdjust="spacing" textLength="185.9375" x="377" y="26.5332">MI_PUBLICACION_ABIERTA</text></g><path d="M19.5,135 L920.5,135 A12.5,12.5 0 0 1 933,147.5 L933,162.6094 L7,162.6094 L7,147.5 A12.5,12.5 0 0 1 19.5,135 " fill="#F1F1F1" style="stroke:#F1F1F1;stroke-width:1;"/><rect fill="none" height="579.6094" rx="12.5" ry="12.5" style="stroke:#181818;stroke-width:0.5;" width="926" x="7" y="135"/><line style="stroke:#181818;stroke-width:0.5;" x1="7" x2="933" y1="162.6094" y2="162.6094"/><text fill="#000000" font-family="sans-serif" font-size="14" lengthAdjust="spacing" textLength="115.9443" x="412.0278" y="154.5332">editarPublicacion()</text><g id="editarPublicacion.VerificandoAutoria"><rect fill="#F1F1F1" height="50" rx="12.5" ry="12.5" style="stroke:#181818;stroke-width:0.5;" width="50" x="334" y="265.6094"/><line style="stroke:#181818;stroke-width:0.5;" x1="334" x2="384" y1="293.2188" y2="293.2188"/><text fill="#000000" font-family="sans-serif" font-size="14" lengthAdjust="spacing" textLength="3.8896" x="357.0552" y="285.1426">&#160;</text></g><g id="editarPublicacion.EditandoDatos"><rect fill="#F1F1F1" height="50" rx="12.5" ry="12.5" style="stroke:#181818;stroke-width:0.5;" width="50" x="334" y="420.6094"/><line style="stroke:#181818;stroke-width:0.5;" x1="334" x2="384" y1="448.2188" y2="448.2188"/><text fill="#000000" font-family="sans-serif" font-size="14" lengthAdjust="spacing" textLength="3.8896" x="357.0552" y="440.1426">&#160;</text></g><g id="editarPublicacion.ValidandoDatos"><rect fill="#F1F1F1" height="50" rx="12.5" ry="12.5" style="stroke:#181818;stroke-width:0.5;" width="50" x="270" y="543.6094"/><line style="stroke:#181818;stroke-width:0.5;" x1="270" x2="320" y1="571.2188" y2="571.2188"/><text fill="#000000" font-family="sans-serif" font-size="14" lengthAdjust="spacing" textLength="3.8896" x="293.0552" y="563.1426">&#160;</text></g><ellipse cx="359" cy="183.6094" fill="#222222" rx="10" ry="10" style="stroke:#222222;stroke-width:1;"/><ellipse cx="474" cy="693.6094" fill="none" rx="11" ry="11" style="stroke:#222222;stroke-width:1;"/><ellipse cx="474" cy="693.6094" fill="#222222" rx="6" ry="6" style="stroke:#222222;stroke-width:1;"/><!--link *start*editarPublicacion to VerificandoAutoria--><g id="link_*start*editarPublicacion_VerificandoAutoria"><path d="M359,193.9294 C359,209.7894 359,236.5194 359,259.2494 " fill="none" id="*start*editarPublicacion-to-VerificandoAutoria" style="stroke:#008000;stroke-width:1;"/><polygon fill="#008000" points="359,265.2494,363,256.2494,359,260.2494,355,256.2494,359,265.2494" style="stroke:#008000;stroke-width:1;"/><path d="M364,216.6094 L364,242.6094 L675,242.6094 L675,226.6094 L665,216.6094 L364,216.6094 " fill="#FEFFDD" style="stroke:#181818;stroke-width:0.5;"/><path d="M665,216.6094 L665,226.6094 L675,226.6094 L665,216.6094 " fill="#FEFFDD" style="stroke:#181818;stroke-width:0.5;"/><text fill="#000000" font-family="sans-serif" font-size="13" font-weight="bold" lengthAdjust="spacing" textLength="77.2954" x="370" y="235.1045">Investigador</text><text fill="#000000" font-family="sans-serif" font-size="13" lengthAdjust="spacing" textLength="209.5742" x="450.9072" y="235.1045">solicita editar una publicacion propia</text></g><!--link VerificandoAutoria to EditandoDatos--><g id="link_VerificandoAutoria_EditandoDatos"><path d="M359,315.8494 C359,344.4994 359,385.8794 359,414.4794 " fill="none" id="VerificandoAutoria-to-EditandoDatos" style="stroke:#008000;stroke-width:1;"/><polygon fill="#008000" points="359,420.4794,363,411.4794,359,415.4794,355,411.4794,359,420.4794" style="stroke:#008000;stroke-width:1;"/><path d="M364,338.6094 L364,397.6094 L661,397.6094 L661,348.6094 L651,338.6094 L364,338.6094 " fill="#FEFFDD" style="stroke:#181818;stroke-width:0.5;"/><path d="M651,338.6094 L651,348.6094 L661,348.6094 L651,338.6094 " fill="#FEFFDD" style="stroke:#181818;stroke-width:0.5;"/><text fill="#000000" font-family="sans-serif" font-size="13" font-weight="bold" lengthAdjust="spacing" textLength="49.8608" x="370" y="357.1045">Sistema</text><text fill="#000000" font-family="sans-serif" font-size="13" lengthAdjust="spacing" textLength="222.5679" x="423.4727" y="357.1045">verifica que el Investigador es su autor</text><text fill="#000000" font-family="sans-serif" font-size="13" font-weight="bold" lengthAdjust="spacing" textLength="49.8608" x="370" y="373.4561">Sistema</text><text fill="#000000" font-family="sans-serif" font-size="13" lengthAdjust="spacing" textLength="195.1333" x="423.4727" y="373.4561">presenta titulo, contenido, estado,</text><text fill="#000000" font-family="sans-serif" font-size="13" lengthAdjust="spacing" textLength="174.8843" x="370" y="389.8076">visibilidad y adjuntos editables</text></g><!--link EditandoDatos to ValidandoDatos--><g id="link_EditandoDatos_ValidandoDatos"><path d="M333.93,449.6994 C255.18,459.3994 18,488.6094 18,488.6094 C18,488.6094 18,524.6094 18,524.6094 C18,524.6094 195.8111,552.2086 264.0011,562.7986 " fill="none" id="EditandoDatos-to-ValidandoDatos" style="stroke:#008000;stroke-width:1;"/><polygon fill="#008000" points="269.93,563.7194,261.6505,558.3856,264.9892,562.9521,260.4228,566.2908,269.93,563.7194" style="stroke:#008000;stroke-width:1;"/><path d="M23,493.6094 L23,519.6094 L332,519.6094 L332,503.6094 L322,493.6094 L23,493.6094 " fill="#FEFFDD" style="stroke:#181818;stroke-width:0.5;"/><path d="M322,493.6094 L322,503.6094 L332,503.6094 L322,493.6094 " fill="#FEFFDD" style="stroke:#181818;stroke-width:0.5;"/><text fill="#000000" font-family="sans-serif" font-size="13" font-weight="bold" lengthAdjust="spacing" textLength="77.2954" x="29" y="512.1045">Investigador</text><text fill="#000000" font-family="sans-serif" font-size="13" lengthAdjust="spacing" textLength="207.3779" x="109.9072" y="512.1045">introduce cambios y solicita guardar</text></g><!--link ValidandoDatos to *end*editarPublicacion--><g id="link_ValidandoDatos_*end*editarPublicacion"><path d="M295.26,594.0694 C295.55,622.2194 296,664.6094 296,664.6094 C296,664.6094 418.5629,683.8868 457.2029,689.9668 " fill="none" id="ValidandoDatos-to-*end*editarPublicacion" style="stroke:#008000;stroke-width:1;"/><polygon fill="#008000" points="463.13,690.8994,454.8611,685.5491,458.1908,690.1222,453.6176,693.4518,463.13,690.8994" style="stroke:#008000;stroke-width:1;"/><path d="M301,617.6094 L301,659.6094 L634,659.6094 L634,627.6094 L624,617.6094 L301,617.6094 " fill="#FEFFDD" style="stroke:#181818;stroke-width:0.5;"/><path d="M624,617.6094 L624,627.6094 L634,627.6094 L624,617.6094 " fill="#FEFFDD" style="stroke:#181818;stroke-width:0.5;"/><text fill="#000000" font-family="sans-serif" font-size="13" font-weight="bold" lengthAdjust="spacing" textLength="49.8608" x="307" y="636.1045">Sistema</text><text fill="#000000" font-family="sans-serif" font-size="13" lengthAdjust="spacing" textLength="259.397" x="360.4727" y="636.1045">registra los cambios, conserva la trazabilidad</text><text fill="#000000" font-family="sans-serif" font-size="13" lengthAdjust="spacing" textLength="212.4688" x="307" y="652.4561">y presenta la publicacion actualizada</text></g><!--link ValidandoDatos to EditandoDatos--><g id="link_ValidandoDatos_EditandoDatos"><path d="M318.46,543.5994 C328.08,533.7494 337,524.6094 337,524.6094 C337,524.6094 344.071,499.534 350.531,476.634 " fill="none" id="ValidandoDatos-to-EditandoDatos" style="stroke:#FF0000;stroke-width:1;"/><polygon fill="#FF0000" points="352.16,470.8594,345.8667,478.4353,350.8025,475.6716,353.5663,480.6073,352.16,470.8594" style="stroke:#FF0000;stroke-width:1;"/><path d="M352,493.6094 L352,519.6094 L621,519.6094 L621,503.6094 L611,493.6094 L352,493.6094 " fill="#FEFFDD" style="stroke:#181818;stroke-width:0.5;"/><path d="M611,493.6094 L611,503.6094 L621,503.6094 L611,493.6094 " fill="#FEFFDD" style="stroke:#181818;stroke-width:0.5;"/><text fill="#000000" font-family="sans-serif" font-size="13" font-weight="bold" lengthAdjust="spacing" textLength="49.8608" x="358" y="512.1045">Sistema</text><text fill="#000000" font-family="sans-serif" font-size="13" lengthAdjust="spacing" textLength="195.1079" x="411.4727" y="512.1045">presenta los errores de validacion</text></g><!--link EditandoDatos to *end*editarPublicacion--><g id="link_EditandoDatos_*end*editarPublicacion"><path d="M384.01,450.4894 C451.1,460.8794 630,488.6094 630,488.6094 C630,488.6094 639,612.6094 639,612.6094 C639,612.6094 639,664.6094 639,664.6094 C639,664.6094 527.4454,683.5352 490.7454,689.7652 " fill="none" id="EditandoDatos-to-*end*editarPublicacion" style="stroke:#FF0000;stroke-width:1;"/><polygon fill="#FF0000" points="484.83,690.7694,494.3725,693.2067,489.7595,689.9326,493.0336,685.3195,484.83,690.7694" style="stroke:#FF0000;stroke-width:1;"/><path d="M642,547.6094 L642,589.6094 L924,589.6094 L924,557.6094 L914,547.6094 L642,547.6094 " fill="#FEFFDD" style="stroke:#181818;stroke-width:0.5;"/><path d="M914,547.6094 L914,557.6094 L924,557.6094 L914,547.6094 " fill="#FEFFDD" style="stroke:#181818;stroke-width:0.5;"/><text fill="#000000" font-family="sans-serif" font-size="13" font-weight="bold" lengthAdjust="spacing" textLength="77.2954" x="648" y="566.1045">Investigador</text><text fill="#000000" font-family="sans-serif" font-size="13" lengthAdjust="spacing" textLength="92.4854" x="728.9072" y="566.1045">solicita cancelar</text><text fill="#000000" font-family="sans-serif" font-size="13" font-weight="bold" lengthAdjust="spacing" textLength="49.8608" x="648" y="582.4561">Sistema</text><text fill="#000000" font-family="sans-serif" font-size="13" lengthAdjust="spacing" textLength="208.1143" x="701.4727" y="582.4561">mantiene la publicacion sin cambios</text></g><g id="MI_PUBLICACION_ABIERTA"><rect fill="#F1F1F1" height="50" rx="12.5" ry="12.5" style="stroke:#181818;stroke-width:0.5;" width="205.9375" x="367" y="793"/><line style="stroke:#181818;stroke-width:0.5;" x1="367" x2="572.9375" y1="820.6094" y2="820.6094"/><text fill="#000000" font-family="sans-serif" font-size="14" lengthAdjust="spacing" textLength="185.9375" x="377" y="812.5332">MI_PUBLICACION_ABIERTA</text></g><!--link in1 to editarPublicacion--><g id="link_in1_editarPublicacion"><path d="M470,57.16 C470,75.56 470,97.11 470,128.99 " fill="none" id="in1-to-editarPublicacion" style="stroke:#008000;stroke-width:1;"/><polygon fill="#008000" points="470,134.99,474,125.99,470,129.99,466,125.99,470,134.99" style="stroke:#008000;stroke-width:1;"/><text fill="#000000" font-family="sans-serif" font-size="13" lengthAdjust="spacing" textLength="107.6626" x="471" y="101.4951">editarPublicacion()</text></g><!--link editarPublicacion to MI_PUBLICACION_ABIERTA--><g id="link_editarPublicacion_MI_PUBLICACION_ABIERTA"><path d="M470,715.04 C470,746.88 470,768.39 470,786.78 " fill="none" id="editarPublicacion-to-MI_PUBLICACION_ABIERTA" style="stroke:#008000;stroke-width:1;"/><polygon fill="#008000" points="470,792.78,474,783.78,470,787.78,466,783.78,470,792.78" style="stroke:#008000;stroke-width:1;"/><text fill="#000000" font-family="sans-serif" font-size="13" lengthAdjust="spacing" textLength="218.9561" x="471" y="759.4951">Publicacion actualizada o sin cambios</text></g><!--SRC=[dLHBQzj04BxhLmpk9Iq9eTSI34wQWw1fJL-N4C98EpNJh6ULVGYKql_UaQnWRwKKK_cYNSr-hnblU61fqECMB0l5hY5edEtwHL64Y960vIrWWCLDUR_-TlcXl5fTbPy-tgyko-lFNrUBelz-Tljguudaxcm9P3YYNwVASeqrEu5tqxsJry_mq_AURER00duLeC_ks49_MlYTFF_G4Z5kbQBpZDEQwnvB2zvZT6460YsR_VUXuFRDNURf1Hfn2gEADQw7OUEYMfRIKeYyGUFynNcrXE3KWoeOdK8IXER0RkDTC-AHc05p9s9AcccQsfgJyuL3f2qEIjeH41wJvcxXK2fGW900UwAviusdGA8k8iTatIdKJY896trL48Ku7Owr7BZYFb437Q3vcKJbxRnNbiACpyn87dlUcgCZPudUcLGJrBYjM56xVHis2Rr1FnTuHfSfqO4uAc9F6rrv1Ai08_cGLI3Vwgxcv_49nuG6X6wVhSqd0-kOLD8J6ZnAhIVpVuEn5z2todkdQp04xK3HQpccRIFzlw9w-S-XOrwJnTdPsw949g6_ymaipndd-duNnVHQEMpd_5sc5zLwFdvmXsH_0000]--></g></svg>