<svg xmlns="http://www.w3.org/2000/svg" xmlns:xlink="http://www.w3.org/1999/xlink" contentStyleType="text/css" data-diagram-type="DESCRIPTION" height="442px" preserveAspectRatio="none" style="width:792px;height:442px;background:#FFFFFF;" version="1.1" viewBox="0 0 792 442" width="792px" zoomAndPan="magnify"><?plantuml 1.2026.4?><defs/><g><!--cluster cerrarSesion--><g class="cluster" data-qualified-name="cerrarSesion" data-source-line="4" id="ent0002"><path d="M247,6 L342.9307,6 A3.75,3.75 0 0 1 345.4307,8.5 L352.4307,29.6094 L606,29.6094 A2.5,2.5 0 0 1 608.5,32.1094 L608.5,424.5 A2.5,2.5 0 0 1 606,427 L247,427 A2.5,2.5 0 0 1 244.5,424.5 L244.5,8.5 A2.5,2.5 0 0 1 247,6" fill="none" style="stroke:#000000;stroke-width:1.5;"/><line style="stroke:#000000;stroke-width:1.5;" x1="244.5" x2="352.4307" y1="29.6094" y2="29.6094"/><text fill="#000000" font-family="sans-serif" font-size="14" font-weight="700" lengthAdjust="spacing" textLength="94.9307" x="248.5" y="22.5332">cerrarSesion()</text></g><!--entity CerrarSesionView--><g class="entity" data-qualified-name="cerrarSesion.CerrarSesionView" data-source-line="5" id="ent0003"><rect fill="#629EF9" height="37.6094" rx="2.5" ry="2.5" style="stroke:#181818;stroke-width:0.5;" width="132.8203" x="368" y="42"/><text fill="#000000" font-family="sans-serif" font-size="14" lengthAdjust="spacing" textLength="112.8203" x="378" y="66.5332">CerrarSesionView</text></g><!--entity SesionController--><g class="entity" data-qualified-name="cerrarSesion.SesionController" data-source-line="6" id="ent0004"><rect fill="#B5BD68" height="37.6094" rx="2.5" ry="2.5" style="stroke:#181818;stroke-width:0.5;" width="123.4961" x="328" y="158"/><text fill="#000000" font-family="sans-serif" font-size="14" lengthAdjust="spacing" textLength="103.4961" x="338" y="182.5332">SesionController</text></g><!--entity SesionRepository--><g class="entity" data-qualified-name="cerrarSesion.SesionRepository" data-source-line="7" id="ent0005"><rect fill="#F2AC4E" height="37.6094" rx="2.5" ry="2.5" style="stroke:#181818;stroke-width:0.5;" width="129.7236" x="348.5" y="274"/><text fill="#000000" font-family="sans-serif" font-size="14" lengthAdjust="spacing" textLength="109.7236" x="358.5" y="298.5332">SesionRepository</text></g><!--entity Sesion--><g class="entity" data-qualified-name="cerrarSesion.Sesion" data-source-line="8" id="ent0006"><rect fill="#F2AC4E" height="37.6094" rx="2.5" ry="2.5" style="stroke:#181818;stroke-width:0.5;" width="62.8066" x="382" y="373"/><text fill="#000000" font-family="sans-serif" font-size="14" lengthAdjust="spacing" textLength="42.8066" x="392" y="397.5332">Sesion</text></g><!--entity EstadoEntrada--><g class="entity" data-qualified-name="EstadoEntrada" data-source-line="3" id="ent0001"><rect fill="#CDEBA5" height="37.6094" rx="2.5" ry="2.5" style="stroke:#181818;stroke-width:0.5;" width="220.7373" x="7" y="42"/><text fill="#000000" font-family="sans-serif" font-size="14" lengthAdjust="spacing" textLength="200.7373" x="17" y="66.5332">:PANEL_PRINCIPAL_ABIERTO</text></g><!--entity EstadoSalida--><g class="entity" data-qualified-name="EstadoSalida" data-source-line="11" id="ent0007"><rect fill="#CDEBA5" height="37.6094" rx="2.5" ry="2.5" style="stroke:#181818;stroke-width:0.5;" width="153.0342" x="625" y="158"/><text fill="#000000" font-family="sans-serif" font-size="14" lengthAdjust="spacing" textLength="133.0342" x="635" y="182.5332">:SESION_CERRADA</text></g><!--link EstadoEntrada to CerrarSesionView--><g class="link" data-entity-1="ent0001" data-entity-2="ent0003" data-link-type="dependency" data-source-line="14" id="lnk8"><path d="M228.37,61 C274.79,61 322.22,61 362.59,61" fill="none" id="EstadoEntrada-to-CerrarSesionView" style="stroke:#181818;stroke-width:1;"/><polygon fill="#181818" points="367.59,61,358.59,57,362.59,61,358.59,65,367.59,61" style="stroke:#181818;stroke-width:1;stroke-linejoin:miter;stroke-miterlimit:10;"/><text fill="#000000" font-family="sans-serif" font-size="13" lengthAdjust="spacing" textLength="82.3545" x="257" y="54.4951">cerrarSesion()</text></g><!--link CerrarSesionView to SesionController--><g class="link" data-entity-1="ent0003" data-entity-2="ent0004" data-link-type="dependency" data-source-line="16" id="lnk9"><path d="M381.22,80.01 C340.93,93.63 292.5,110 292.5,110 C292.5,110 292.5,128 292.5,128 C292.5,128 321.0988,142.1522 348.6188,155.7722" fill="none" id="CerrarSesionView-to-SesionController" style="stroke:#181818;stroke-width:1;"/><polygon fill="#181818" points="353.1,157.99,346.8081,150.413,348.6188,155.7722,343.2596,157.5829,353.1,157.99" style="stroke:#181818;stroke-width:1;stroke-linejoin:miter;stroke-miterlimit:10;"/><text fill="#000000" font-family="sans-serif" font-size="13" lengthAdjust="spacing" textLength="119.9326" x="293.5" y="124.4951">cerrarSesion(sesion)</text></g><!--link CerrarSesionView to SesionController--><g class="link" data-entity-1="ent0003" data-entity-2="ent0004" data-link-type="dependency" data-source-line="17" id="lnk10"><path d="M429.85,80.03 C424.82,99.58 417.5,128 417.5,128 C417.5,128 410.5276,139.9401 402.6076,153.5301" fill="none" id="CerrarSesionView-to-SesionController-1" style="stroke:#181818;stroke-width:1;"/><polygon fill="#181818" points="400.09,157.85,408.0776,152.0882,402.6076,153.5301,401.1657,148.0601,400.09,157.85" style="stroke:#181818;stroke-width:1;stroke-linejoin:miter;stroke-miterlimit:10;"/><text fill="#000000" font-family="sans-serif" font-size="13" lengthAdjust="spacing" textLength="134.3989" x="422.5" y="124.4951">invalidarSesion(sesion)</text></g><!--link SesionController to SesionRepository--><g class="link" data-entity-1="ent0004" data-entity-2="ent0005" data-link-type="dependency" data-source-line="18" id="lnk11"><path d="M356.11,196.01 C330.85,209.63 300.5,226 300.5,226 C300.5,226 300.5,244 300.5,244 C300.5,244 334.4381,258.415 366.4981,272.035" fill="none" id="SesionController-to-SesionRepository" style="stroke:#181818;stroke-width:1;"/><polygon fill="#181818" points="371.1,273.99,364.3805,266.7894,366.4981,272.035,361.2525,274.1525,371.1,273.99" style="stroke:#181818;stroke-width:1;stroke-linejoin:miter;stroke-miterlimit:10;"/><text fill="#000000" font-family="sans-serif" font-size="13" lengthAdjust="spacing" textLength="156.7998" x="301.5" y="240.4951">obtenerSesionActiva(actor)</text></g><!--link SesionController to SesionRepository--><g class="link" data-entity-1="ent0004" data-entity-2="ent0005" data-link-type="dependency" data-source-line="19" id="lnk12"><path d="M417.1,196.15 C437.77,209.74 462.5,226 462.5,226 C462.5,226 462.5,244 462.5,244 C462.5,244 449.4727,256.762 435.5927,270.352" fill="none" id="SesionController-to-SesionRepository-1" style="stroke:#181818;stroke-width:1;"/><polygon fill="#181818" points="432.02,273.85,441.2492,270.4117,435.5927,270.352,435.6524,264.6954,432.02,273.85" style="stroke:#181818;stroke-width:1;stroke-linejoin:miter;stroke-miterlimit:10;"/><text fill="#000000" font-family="sans-serif" font-size="13" lengthAdjust="spacing" textLength="80.1836" x="463.5" y="240.4951">cerrar(sesion)</text></g><!--link SesionRepository to Sesion--><g class="link" data-entity-1="ent0005" data-entity-2="ent0006" data-link-type="association" data-source-line="20" id="lnk13"><path d="M413.5,312.24 C413.5,329.59 413.5,355.52 413.5,372.84" fill="none" id="SesionRepository-Sesion" style="stroke:#181818;stroke-width:1;"/></g><!--link CerrarSesionView to EstadoSalida--><g class="link" data-entity-1="ent0003" data-entity-2="ent0007" data-link-type="dependency" data-source-line="21" id="lnk14"><path d="M483.65,80.01 C520.82,93.63 565.5,110 565.5,110 C565.5,110 619.572,136.2364 659.842,155.7864" fill="none" id="CerrarSesionView-to-EstadoSalida" style="stroke:#181818;stroke-width:1;stroke-dasharray:7,7;"/><polygon fill="#181818" points="664.34,157.97,657.9906,150.4411,659.842,155.7864,654.4967,157.6378,664.34,157.97" style="stroke:#181818;stroke-width:1;stroke-linejoin:miter;stroke-miterlimit:10;"/><text fill="#000000" font-family="sans-serif" font-size="13" lengthAdjust="spacing" textLength="130.7935" x="602.5" y="124.4951">continuarNavegacion()</text></g><?plantuml-src ZP1HQy8m58NVyoiktOi-w8DCcJu8iKOeI9LsxBLSsui4kwIaMOUC_VT5xR166SjBIFATUt9EVP2gGeFlK4f5zbWHLBeydWwC6Sejgdr9y1GknOAF8PXjUIpMsJQ9uZ3QydN65v58NZS1O0sYjbXeeQp10bc5-G7t13aPWoQbMcfreeBkHQyVm1S3jpfcaz5KhAOGThWtIPy-jXllYiaBN81GErjTbcHyR3NYuRDeiOGgNKkhpV5FZ7q_Jf-ADDh4MIYIX2zv9tIAfNIP6Rlf00PcCB_BCOFR1XZp2HWKJkS7ytJrUUi_43_KIjMS_-ZBVR8ZlvOr0xspfAWLyzpA1dkOkxT_JxXytlEz0axrM_vTek5mVjEp6-RSfFf04sD3UypR8dy0?></g></svg>