<svg xmlns="http://www.w3.org/2000/svg" xmlns:xlink="http://www.w3.org/1999/xlink" contentStyleType="text/css" data-diagram-type="DESCRIPTION" height="442px" preserveAspectRatio="none" style="width:1094px;height:442px;background:#FFFFFF;" version="1.1" viewBox="0 0 1094 442" width="1094px" zoomAndPan="magnify"><?plantuml 1.2026.5?><defs/><g><!--cluster cerrarSesion--><g class="cluster" data-qualified-name="cerrarSesion" data-source-line="4" id="ent0002"><path d="M311,6 L406.9307,6 A3.75,3.75 0 0 1 409.4307,8.5 L416.4307,29.6094 L653,29.6094 A2.5,2.5 0 0 1 655.5,32.1094 L655.5,424.5 A2.5,2.5 0 0 1 653,427 L311,427 A2.5,2.5 0 0 1 308.5,424.5 L308.5,8.5 A2.5,2.5 0 0 1 311,6" fill="none" style="stroke:#000000;stroke-width:1.5;"/><line style="stroke:#000000;stroke-width:1.5;" x1="308.5" x2="416.4307" y1="29.6094" y2="29.6094"/><text fill="#000000" font-family="sans-serif" font-size="14" font-weight="700" lengthAdjust="spacing" textLength="94.9307" x="312.5" y="22.5332">cerrarSesion()</text></g><!--entity CerrarSesionView--><g class="entity" data-qualified-name="cerrarSesion.CerrarSesionView" data-source-line="5" id="ent0003"><rect fill="#629EF9" height="37.6094" rx="2.5" ry="2.5" style="stroke:#181818;stroke-width:0.5;" width="132.8203" x="347" y="42"/><text fill="#000000" font-family="sans-serif" font-size="14" lengthAdjust="spacing" textLength="112.8203" x="357" y="66.5332">CerrarSesionView</text></g><!--entity SesionController--><g class="entity" data-qualified-name="cerrarSesion.SesionController" data-source-line="6" id="ent0004"><rect fill="#B5BD68" height="37.6094" rx="2.5" ry="2.5" style="stroke:#181818;stroke-width:0.5;" width="123.4961" x="352" y="158"/><text fill="#000000" font-family="sans-serif" font-size="14" lengthAdjust="spacing" textLength="103.4961" x="362" y="182.5332">SesionController</text></g><!--entity SesionRepository--><g class="entity" data-qualified-name="cerrarSesion.SesionRepository" data-source-line="7" id="ent0005"><rect fill="#F2AC4E" height="37.6094" rx="2.5" ry="2.5" style="stroke:#181818;stroke-width:0.5;" width="129.7236" x="408.5" y="274"/><text fill="#000000" font-family="sans-serif" font-size="14" lengthAdjust="spacing" textLength="109.7236" x="418.5" y="298.5332">SesionRepository</text></g><!--entity Sesion--><g class="entity" data-qualified-name="cerrarSesion.Sesion" data-source-line="8" id="ent0006"><rect fill="#F2AC4E" height="37.6094" rx="2.5" ry="2.5" style="stroke:#181818;stroke-width:0.5;" width="62.8066" x="442" y="373"/><text fill="#000000" font-family="sans-serif" font-size="14" lengthAdjust="spacing" textLength="42.8066" x="452" y="397.5332">Sesion</text></g><!--entity EstadoEntrada--><g class="entity" data-qualified-name="EstadoEntrada" data-source-line="3" id="ent0001"><rect fill="#CDEBA5" height="37.6094" rx="2.5" ry="2.5" style="stroke:#181818;stroke-width:0.5;" width="220.7373" x="7" y="42"/><text fill="#000000" font-family="sans-serif" font-size="14" lengthAdjust="spacing" textLength="200.7373" x="17" y="66.5332">:PANEL_PRINCIPAL_ABIERTO</text></g><!--entity EstadoSalida--><g class="entity" data-qualified-name="EstadoSalida" data-source-line="11" id="ent0007"><rect fill="#CDEBA5" height="37.6094" rx="2.5" ry="2.5" style="stroke:#181818;stroke-width:0.5;" width="153.0342" x="672" y="158"/><text fill="#000000" font-family="sans-serif" font-size="14" lengthAdjust="spacing" textLength="133.0342" x="682" y="182.5332">:SESION_CERRADA</text></g><!--entity EstadoCancelacion--><g class="entity" data-qualified-name="EstadoCancelacion" data-source-line="12" id="ent0008"><rect fill="#CDEBA5" height="37.6094" rx="2.5" ry="2.5" style="stroke:#181818;stroke-width:0.5;" width="220.7373" x="860" y="158"/><text fill="#000000" font-family="sans-serif" font-size="14" lengthAdjust="spacing" textLength="200.7373" x="870" y="182.5332">:PANEL_PRINCIPAL_ABIERTO</text></g><!--link EstadoEntrada to CerrarSesionView--><g class="link" data-entity-1="ent0001" data-entity-2="ent0003" data-link-type="dependency" data-source-line="15" id="lnk9"><path d="M228.14,61 C268.04,61 306.82,61 341.81,61" fill="none" id="EstadoEntrada-to-CerrarSesionView" style="stroke:#181818;stroke-width:1;"/><polygon fill="#181818" points="346.81,61,337.81,57,341.81,61,337.81,65,346.81,61" style="stroke:#181818;stroke-width:1;stroke-linejoin:miter;stroke-miterlimit:10;"/><text fill="#000000" font-family="sans-serif" font-size="13" lengthAdjust="spacing" textLength="82.3545" x="246.5" y="54.4951">cerrarSesion()</text></g><!--link CerrarSesionView to CerrarSesionView--><g class="link" data-entity-1="ent0003" data-entity-2="ent0003" data-link-type="dependency" data-source-line="17" id="lnk10"><path d="M480.37,50.16 C499.88,50.53 515,54.15 515,61 C515,67.85 504.8791,71.3752 485.3691,71.7452" fill="none" id="CerrarSesionView-to-CerrarSesionView" style="stroke:#181818;stroke-width:1;"/><polygon fill="#181818" points="480.37,71.84,489.4442,75.6686,485.3691,71.7452,489.2925,67.6701,480.37,71.84" style="stroke:#181818;stroke-width:1;stroke-linejoin:miter;stroke-miterlimit:10;"/><text fill="#000000" font-family="sans-serif" font-size="13" lengthAdjust="spacing" textLength="129.3081" x="521" y="66.4951">solicitarConfirmacion()</text></g><!--link CerrarSesionView to EstadoCancelacion--><g class="link" data-entity-1="ent0003" data-entity-2="ent0008" data-link-type="dependency" data-source-line="18" id="lnk11"><path d="M480.1,70.2 C591.49,83.91 803.5,110 803.5,110 C803.5,110 870.7702,136.5817 920.2202,156.1317" fill="none" id="CerrarSesionView-to-EstadoCancelacion" style="stroke:#181818;stroke-width:1;stroke-dasharray:7,7;"/><polygon fill="#181818" points="924.87,157.97,917.971,150.9412,920.2202,156.1317,915.0297,158.3809,924.87,157.97" style="stroke:#181818;stroke-width:1;stroke-linejoin:miter;stroke-miterlimit:10;"/><text fill="#000000" font-family="sans-serif" font-size="13" lengthAdjust="spacing" textLength="172.6816" x="848.5" y="124.4951">cancelarCierre() [cancelacion]</text></g><!--link CerrarSesionView to SesionController--><g class="link" data-entity-1="ent0003" data-entity-2="ent0004" data-link-type="dependency" data-source-line="19" id="lnk12"><path d="M413.5,80.06 C413.5,101.28 413.5,131.3 413.5,152.64" fill="none" id="CerrarSesionView-to-SesionController" style="stroke:#181818;stroke-width:1;"/><polygon fill="#181818" points="413.5,157.64,417.5,148.64,413.5,152.64,409.5,148.64,413.5,157.64" style="stroke:#181818;stroke-width:1;stroke-linejoin:miter;stroke-miterlimit:10;"/><text fill="#000000" font-family="sans-serif" font-size="13" lengthAdjust="spacing" textLength="182.7617" x="414.5" y="124.4951">confirmarCierre() [confirmacion]</text></g><!--link SesionController to SesionRepository--><g class="link" data-entity-1="ent0004" data-entity-2="ent0005" data-link-type="dependency" data-source-line="20" id="lnk13"><path d="M391.95,196.15 C375.81,209.74 356.5,226 356.5,226 C356.5,226 356.5,244 356.5,244 C356.5,244 391.7741,258.4723 424.9741,272.0923" fill="none" id="SesionController-to-SesionRepository" style="stroke:#181818;stroke-width:1;"/><polygon fill="#181818" points="429.6,273.99,422.7916,266.8734,424.9741,272.0923,419.7553,274.2748,429.6,273.99" style="stroke:#181818;stroke-width:1;stroke-linejoin:miter;stroke-miterlimit:10;"/><text fill="#000000" font-family="sans-serif" font-size="13" lengthAdjust="spacing" textLength="156.7998" x="357.5" y="240.4951">obtenerSesionActiva(actor)</text></g><!--link SesionController to SesionRepository--><g class="link" data-entity-1="ent0004" data-entity-2="ent0005" data-link-type="dependency" data-source-line="21" id="lnk14"><path d="M452.9,196.01 C482.69,209.63 518.5,226 518.5,226 C518.5,226 518.5,244 518.5,244 C518.5,244 506.681,256.6136 493.931,270.2036" fill="none" id="SesionController-to-SesionRepository-1" style="stroke:#181818;stroke-width:1;"/><polygon fill="#181818" points="490.51,273.85,499.585,270.0233,493.931,270.2036,493.7507,264.5496,490.51,273.85" style="stroke:#181818;stroke-width:1;stroke-linejoin:miter;stroke-miterlimit:10;"/><text fill="#000000" font-family="sans-serif" font-size="13" lengthAdjust="spacing" textLength="80.1836" x="519.5" y="240.4951">cerrar(sesion)</text></g><!--link SesionRepository to Sesion--><g class="link" data-entity-1="ent0005" data-entity-2="ent0006" data-link-type="association" data-source-line="22" id="lnk15"><path d="M473.5,312.24 C473.5,329.59 473.5,355.52 473.5,372.84" fill="none" id="SesionRepository-Sesion" style="stroke:#181818;stroke-width:1;"/></g><!--link CerrarSesionView to EstadoSalida--><g class="link" data-entity-1="ent0003" data-entity-2="ent0007" data-link-type="dependency" data-source-line="23" id="lnk16"><path d="M480.11,78.65 C535.57,92.52 605.5,110 605.5,110 C605.5,110 662.5405,136.324 704.8805,155.874" fill="none" id="CerrarSesionView-to-EstadoSalida" style="stroke:#181818;stroke-width:1;stroke-dasharray:7,7;"/><polygon fill="#181818" points="709.42,157.97,702.9258,150.5656,704.8805,155.874,699.5722,157.8287,709.42,157.97" style="stroke:#181818;stroke-width:1;stroke-linejoin:miter;stroke-miterlimit:10;"/><text fill="#000000" font-family="sans-serif" font-size="13" lengthAdjust="spacing" textLength="150.2935" x="644.5" y="124.4951">presentarSesionCerrada()</text></g><?plantuml-src dPB1Qy8m5CRl-IiUtQKUz21JPWz2hH4AejAENOR8Cyqa69kIX0qP-z-NjegrYeprbhxVb--zxyNiHLwWnWD8aNDxB3WKIXxB0o6QCulvJd9uYgPq4Wx02rRXWiutgoHUHF4gd6_2IKoJrwK7Q80QYvcYkTMO8IcGxN77WN6jKQVS29MNbDVyuNSy-2RWleRPi3-Yin543UvDyAysjXrii-4Br42adAsIakisDkk7qJCzOGalb15MwUD3ZFpSdpwbQRnSR2AQ9E4qR0oTeXHkvlyb5c7Ek4HM6XDobI9qTNTyaqG0rnaIqYQWUrTcb1HCMDGkhW-X3vMdqz_8UxtnRNFEjZxeI3W1zplmpYxbzPqkCjT6Uq7kcfDxyvv6GslIbbJZj3SOWDfQdlEJOSYi-4GVcQjr_df3dQDlgi9PTG6SwlmY7aHKBp-0GdF3StkcAaM6vNf-0G00?></g></svg>