<svg xmlns="http://www.w3.org/2000/svg" xmlns:xlink="http://www.w3.org/1999/xlink" contentStyleType="text/css" height="818px" preserveAspectRatio="none" style="width:2038px;height:818px;background:#FFFFFF;" version="1.1" viewBox="0 0 2038 818" width="2038px" zoomAndPan="magnify"><title>Diagrama de secuencia - abrirMiPublicacion</title><defs/><g><text fill="#000000" font-family="sans-serif" font-size="14" font-weight="bold" lengthAdjust="spacing" textLength="293.3232" x="874.0637" y="29.5332">Diagrama de secuencia - abrirMiPublicacion</text><line style="stroke:#181818;stroke-width:0.5;stroke-dasharray:5.0,5.0;" x1="46" x2="46" y1="121.2188" y2="736.6016"/><line style="stroke:#181818;stroke-width:0.5;stroke-dasharray:5.0,5.0;" x1="297.8965" x2="297.8965" y1="121.2188" y2="736.6016"/><line style="stroke:#181818;stroke-width:0.5;stroke-dasharray:5.0,5.0;" x1="552.4492" x2="552.4492" y1="121.2188" y2="736.6016"/><line style="stroke:#181818;stroke-width:0.5;stroke-dasharray:5.0,5.0;" x1="785.4297" x2="785.4297" y1="121.2188" y2="736.6016"/><line style="stroke:#181818;stroke-width:0.5;stroke-dasharray:5.0,5.0;" x1="913.9189" x2="913.9189" y1="121.2188" y2="736.6016"/><line style="stroke:#181818;stroke-width:0.5;stroke-dasharray:5.0,5.0;" x1="1119.7773" x2="1119.7773" y1="121.2188" y2="736.6016"/><line style="stroke:#181818;stroke-width:0.5;stroke-dasharray:5.0,5.0;" x1="1271.5078" x2="1271.5078" y1="121.2188" y2="736.6016"/><line style="stroke:#181818;stroke-width:0.5;stroke-dasharray:5.0,5.0;" x1="1467.0244" x2="1467.0244" y1="121.2188" y2="736.6016"/><line style="stroke:#181818;stroke-width:0.5;stroke-dasharray:5.0,5.0;" x1="1686.4717" x2="1686.4717" y1="121.2188" y2="736.6016"/><line style="stroke:#181818;stroke-width:0.5;stroke-dasharray:5.0,5.0;" x1="1987.6167" x2="1987.6167" y1="121.2188" y2="736.6016"/><text fill="#000000" font-family="sans-serif" font-size="14" lengthAdjust="spacing" textLength="76.2686" x="5" y="118.1426">Investigador</text><ellipse cx="46.1343" cy="52.1094" fill="#E2E2F0" rx="8" ry="8" style="stroke:#181818;stroke-width:0.5;"/><path d="M46.1343,60.1094 L46.1343,87.1094 M33.1343,68.1094 L59.1343,68.1094 M46.1343,87.1094 L33.1343,102.1094 M46.1343,87.1094 L59.1343,102.1094 " fill="none" style="stroke:#181818;stroke-width:0.5;"/><text fill="#000000" font-family="sans-serif" font-size="14" lengthAdjust="spacing" textLength="76.2686" x="5" y="750.1348">Investigador</text><ellipse cx="46.1343" cy="761.7109" fill="#E2E2F0" rx="8" ry="8" style="stroke:#181818;stroke-width:0.5;"/><path d="M46.1343,769.7109 L46.1343,796.7109 M33.1343,777.7109 L59.1343,777.7109 M46.1343,796.7109 L33.1343,811.7109 M46.1343,796.7109 L59.1343,811.7109 " fill="none" style="stroke:#181818;stroke-width:0.5;"/><rect fill="#E2E2F0" height="49.2188" rx="2.5" ry="2.5" style="stroke:#181818;stroke-width:0.5;" width="161.0752" x="217.8965" y="71"/><text fill="#000000" font-family="sans-serif" font-size="14" lengthAdjust="spacing" textLength="147.0752" x="224.8965" y="92.5332">abrirMiPublicacionPage</text><text fill="#000000" font-family="sans-serif" font-size="14" lengthAdjust="spacing" textLength="45.8965" x="275.4858" y="110.1426">(React)</text><rect fill="#E2E2F0" height="49.2188" rx="2.5" ry="2.5" style="stroke:#181818;stroke-width:0.5;" width="161.0752" x="217.8965" y="735.6016"/><text fill="#000000" font-family="sans-serif" font-size="14" lengthAdjust="spacing" textLength="147.0752" x="224.8965" y="757.1348">abrirMiPublicacionPage</text><text fill="#000000" font-family="sans-serif" font-size="14" lengthAdjust="spacing" textLength="45.8965" x="275.4858" y="774.7441">(React)</text><rect fill="#E2E2F0" height="49.2188" rx="2.5" ry="2.5" style="stroke:#181818;stroke-width:0.5;" width="146.2891" x="479.4492" y="71"/><text fill="#000000" font-family="sans-serif" font-size="14" lengthAdjust="spacing" textLength="132.2891" x="486.4492" y="92.5332">PublicacionController</text><text fill="#000000" font-family="sans-serif" font-size="14" lengthAdjust="spacing" textLength="82.4824" x="511.3525" y="110.1426">(Spring Boot)</text><rect fill="#E2E2F0" height="49.2188" rx="2.5" ry="2.5" style="stroke:#181818;stroke-width:0.5;" width="146.2891" x="479.4492" y="735.6016"/><text fill="#000000" font-family="sans-serif" font-size="14" lengthAdjust="spacing" textLength="132.2891" x="486.4492" y="757.1348">PublicacionController</text><text fill="#000000" font-family="sans-serif" font-size="14" lengthAdjust="spacing" textLength="82.4824" x="511.3525" y="774.7441">(Spring Boot)</text><rect fill="#E2E2F0" height="31.6094" rx="2.5" ry="2.5" style="stroke:#181818;stroke-width:0.5;" width="103.4893" x="734.4297" y="88.6094"/><text fill="#000000" font-family="sans-serif" font-size="14" lengthAdjust="spacing" textLength="89.4893" x="741.4297" y="110.1426">SesionService</text><rect fill="#E2E2F0" height="31.6094" rx="2.5" ry="2.5" style="stroke:#181818;stroke-width:0.5;" width="103.4893" x="734.4297" y="735.6016"/><text fill="#000000" font-family="sans-serif" font-size="14" lengthAdjust="spacing" textLength="89.4893" x="741.4297" y="757.1348">SesionService</text><rect fill="#E2E2F0" height="31.6094" rx="2.5" ry="2.5" style="stroke:#181818;stroke-width:0.5;" width="132.2822" x="847.9189" y="88.6094"/><text fill="#000000" font-family="sans-serif" font-size="14" lengthAdjust="spacing" textLength="118.2822" x="854.9189" y="110.1426">PublicacionService</text><rect fill="#E2E2F0" height="31.6094" rx="2.5" ry="2.5" style="stroke:#181818;stroke-width:0.5;" width="132.2822" x="847.9189" y="735.6016"/><text fill="#000000" font-family="sans-serif" font-size="14" lengthAdjust="spacing" textLength="118.2822" x="854.9189" y="757.1348">PublicacionService</text><rect fill="#E2E2F0" height="31.6094" rx="2.5" ry="2.5" style="stroke:#181818;stroke-width:0.5;" width="130.7305" x="1054.7773" y="88.6094"/><text fill="#000000" font-family="sans-serif" font-size="14" lengthAdjust="spacing" textLength="116.7305" x="1061.7773" y="110.1426">PoliticaPublicacion</text><rect fill="#E2E2F0" height="31.6094" rx="2.5" ry="2.5" style="stroke:#181818;stroke-width:0.5;" width="130.7305" x="1054.7773" y="735.6016"/><text fill="#000000" font-family="sans-serif" font-size="14" lengthAdjust="spacing" textLength="116.7305" x="1061.7773" y="757.1348">PoliticaPublicacion</text><rect fill="#E2E2F0" height="31.6094" rx="2.5" ry="2.5" style="stroke:#181818;stroke-width:0.5;" width="152.5166" x="1195.5078" y="88.6094"/><text fill="#000000" font-family="sans-serif" font-size="14" lengthAdjust="spacing" textLength="138.5166" x="1202.5078" y="110.1426">PublicacionRepository</text><rect fill="#E2E2F0" height="31.6094" rx="2.5" ry="2.5" style="stroke:#181818;stroke-width:0.5;" width="152.5166" x="1195.5078" y="735.6016"/><text fill="#000000" font-family="sans-serif" font-size="14" lengthAdjust="spacing" textLength="138.5166" x="1202.5078" y="757.1348">PublicacionRepository</text><rect fill="#E2E2F0" height="31.6094" rx="2.5" ry="2.5" style="stroke:#181818;stroke-width:0.5;" width="219.4473" x="1358.0244" y="88.6094"/><text fill="#000000" font-family="sans-serif" font-size="14" lengthAdjust="spacing" textLength="205.4473" x="1365.0244" y="110.1426">RespuestaPublicacionRepository</text><rect fill="#E2E2F0" height="31.6094" rx="2.5" ry="2.5" style="stroke:#181818;stroke-width:0.5;" width="219.4473" x="1358.0244" y="735.6016"/><text fill="#000000" font-family="sans-serif" font-size="14" lengthAdjust="spacing" textLength="205.4473" x="1365.0244" y="757.1348">RespuestaPublicacionRepository</text><rect fill="#E2E2F0" height="31.6094" rx="2.5" ry="2.5" style="stroke:#181818;stroke-width:0.5;" width="199.1992" x="1587.4717" y="88.6094"/><text fill="#000000" font-family="sans-serif" font-size="14" lengthAdjust="spacing" textLength="185.1992" x="1594.4717" y="110.1426">ArchivoPublicacionRepository</text><rect fill="#E2E2F0" height="31.6094" rx="2.5" ry="2.5" style="stroke:#181818;stroke-width:0.5;" width="199.1992" x="1587.4717" y="735.6016"/><text fill="#000000" font-family="sans-serif" font-size="14" lengthAdjust="spacing" textLength="185.1992" x="1594.4717" y="757.1348">ArchivoPublicacionRepository</text><text fill="#000000" font-family="sans-serif" font-size="14" lengthAdjust="spacing" textLength="91.834" x="1939.6167" y="118.1426">Base de Datos</text><path d="M1970.5337,67.6094 C1970.5337,57.6094 1988.5337,57.6094 1988.5337,57.6094 C1988.5337,57.6094 2006.5337,57.6094 2006.5337,67.6094 L2006.5337,93.6094 C2006.5337,103.6094 1988.5337,103.6094 1988.5337,103.6094 C1988.5337,103.6094 1970.5337,103.6094 1970.5337,93.6094 L1970.5337,67.6094 " fill="#E2E2F0" style="stroke:#181818;stroke-width:1.5;"/><path d="M1970.5337,67.6094 C1970.5337,77.6094 1988.5337,77.6094 1988.5337,77.6094 C1988.5337,77.6094 2006.5337,77.6094 2006.5337,67.6094 " fill="none" style="stroke:#181818;stroke-width:1.5;"/><text fill="#000000" font-family="sans-serif" font-size="14" lengthAdjust="spacing" textLength="91.834" x="1939.6167" y="750.1348">Base de Datos</text><path d="M1970.5337,763.2109 C1970.5337,753.2109 1988.5337,753.2109 1988.5337,753.2109 C1988.5337,753.2109 2006.5337,753.2109 2006.5337,763.2109 L2006.5337,789.2109 C2006.5337,799.2109 1988.5337,799.2109 1988.5337,799.2109 C1988.5337,799.2109 1970.5337,799.2109 1970.5337,789.2109 L1970.5337,763.2109 " fill="#E2E2F0" style="stroke:#181818;stroke-width:1.5;"/><path d="M1970.5337,763.2109 C1970.5337,773.2109 1988.5337,773.2109 1988.5337,773.2109 C1988.5337,773.2109 2006.5337,773.2109 2006.5337,763.2109 " fill="none" style="stroke:#181818;stroke-width:1.5;"/><polygon fill="#181818" points="286.4341,149.5703,296.4341,153.5703,286.4341,157.5703,290.4341,153.5703" style="stroke:#181818;stroke-width:1;"/><line style="stroke:#181818;stroke-width:1;" x1="46.1343" x2="292.4341" y1="153.5703" y2="153.5703"/><text fill="#000000" font-family="sans-serif" font-size="13" lengthAdjust="spacing" textLength="160.3862" x="53.1343" y="148.7139">Solicita abrirMiPublicacion()</text><polygon fill="#181818" points="540.5938,179.9219,550.5938,183.9219,540.5938,187.9219,544.5938,183.9219" style="stroke:#181818;stroke-width:1;"/><line style="stroke:#181818;stroke-width:1;" x1="298.4341" x2="546.5938" y1="183.9219" y2="183.9219"/><text fill="#000000" font-family="sans-serif" font-size="13" lengthAdjust="spacing" textLength="230.1597" x="305.4341" y="179.0654">GET /api/publicaciones/me/{id} + cookie</text><polygon fill="#181818" points="774.1743,210.2734,784.1743,214.2734,774.1743,218.2734,778.1743,214.2734" style="stroke:#181818;stroke-width:1;"/><line style="stroke:#181818;stroke-width:1;" x1="552.5938" x2="780.1743" y1="214.2734" y2="214.2734"/><text fill="#000000" font-family="sans-serif" font-size="13" lengthAdjust="spacing" textLength="209.5806" x="559.5938" y="209.417">obtenerSesionActual(authentication)</text><polygon fill="#181818" points="563.5938,240.625,553.5938,244.625,563.5938,248.625,559.5938,244.625" style="stroke:#181818;stroke-width:1;"/><line style="stroke:#181818;stroke-width:1;stroke-dasharray:2.0,2.0;" x1="557.5938" x2="785.1743" y1="244.625" y2="244.625"/><text fill="#000000" font-family="sans-serif" font-size="13" lengthAdjust="spacing" textLength="101.1753" x="569.5938" y="239.7686">Actor autenticado</text><polygon fill="#181818" points="902.0601,270.9766,912.0601,274.9766,902.0601,278.9766,906.0601,274.9766" style="stroke:#181818;stroke-width:1;"/><line style="stroke:#181818;stroke-width:1;" x1="552.5938" x2="908.0601" y1="274.9766" y2="274.9766"/><text fill="#000000" font-family="sans-serif" font-size="13" lengthAdjust="spacing" textLength="98.9917" x="559.5938" y="270.1201">obtener(id, actor)</text><polygon fill="#181818" points="1259.7661,301.3281,1269.7661,305.3281,1259.7661,309.3281,1263.7661,305.3281" style="stroke:#181818;stroke-width:1;"/><line style="stroke:#181818;stroke-width:1;" x1="914.0601" x2="1265.7661" y1="305.3281" y2="305.3281"/><text fill="#000000" font-family="sans-serif" font-size="13" lengthAdjust="spacing" textLength="138.0171" x="921.0601" y="300.4717">findByIdAndRetirada(id)</text><polygon fill="#181818" points="1976.5337,348.0313,1986.5337,352.0313,1976.5337,356.0313,1980.5337,352.0313" style="stroke:#181818;stroke-width:1;"/><line style="stroke:#181818;stroke-width:1;" x1="1271.7661" x2="1982.5337" y1="352.0313" y2="352.0313"/><text fill="#000000" font-family="sans-serif" font-size="13" lengthAdjust="spacing" textLength="183.5107" x="1278.7661" y="330.8232">SELECT * FROM publicaciones</text><text fill="#000000" font-family="sans-serif" font-size="13" lengthAdjust="spacing" textLength="205.188" x="1278.7661" y="347.1748">WHERE id = ? AND retirada = false</text><polygon fill="#181818" points="1282.7661,378.3828,1272.7661,382.3828,1282.7661,386.3828,1278.7661,382.3828" style="stroke:#181818;stroke-width:1;"/><line style="stroke:#181818;stroke-width:1;stroke-dasharray:2.0,2.0;" x1="1276.7661" x2="1987.5337" y1="382.3828" y2="382.3828"/><text fill="#000000" font-family="sans-serif" font-size="13" lengthAdjust="spacing" textLength="107.6689" x="1288.7661" y="377.5264">Publicacion / vacio</text><polygon fill="#181818" points="1108.1426,408.7344,1118.1426,412.7344,1108.1426,416.7344,1112.1426,412.7344" style="stroke:#181818;stroke-width:1;"/><line style="stroke:#181818;stroke-width:1;" x1="914.0601" x2="1114.1426" y1="412.7344" y2="412.7344"/><text fill="#000000" font-family="sans-serif" font-size="13" lengthAdjust="spacing" textLength="182.0825" x="921.0601" y="407.8779">exigirAutoria(actor, publicacion)</text><polygon fill="#181818" points="1455.748,439.0859,1465.748,443.0859,1455.748,447.0859,1459.748,443.0859" style="stroke:#181818;stroke-width:1;"/><line style="stroke:#181818;stroke-width:1;" x1="914.0601" x2="1461.748" y1="443.0859" y2="443.0859"/><text fill="#000000" font-family="sans-serif" font-size="13" lengthAdjust="spacing" textLength="216.7661" x="921.0601" y="438.2295">findByPublicacionIdOrderByFecha(id)</text><polygon fill="#181818" points="1976.5337,485.7891,1986.5337,489.7891,1976.5337,493.7891,1980.5337,489.7891" style="stroke:#181818;stroke-width:1;"/><line style="stroke:#181818;stroke-width:1;" x1="1467.748" x2="1982.5337" y1="489.7891" y2="489.7891"/><text fill="#000000" font-family="sans-serif" font-size="13" lengthAdjust="spacing" textLength="240.6016" x="1474.748" y="468.5811">SELECT * FROM respuestas_publicacion</text><text fill="#000000" font-family="sans-serif" font-size="13" lengthAdjust="spacing" textLength="263.3643" x="1474.748" y="484.9326">WHERE publicacion_id = ? ORDER BY fecha</text><polygon fill="#181818" points="1478.748,516.1406,1468.748,520.1406,1478.748,524.1406,1474.748,520.1406" style="stroke:#181818;stroke-width:1;"/><line style="stroke:#181818;stroke-width:1;stroke-dasharray:2.0,2.0;" x1="1472.748" x2="1987.5337" y1="520.1406" y2="520.1406"/><text fill="#000000" font-family="sans-serif" font-size="13" lengthAdjust="spacing" textLength="68.6499" x="1484.748" y="515.2842">Respuestas</text><polygon fill="#181818" points="1675.0713,546.4922,1685.0713,550.4922,1675.0713,554.4922,1679.0713,550.4922" style="stroke:#181818;stroke-width:1;"/><line style="stroke:#181818;stroke-width:1;" x1="914.0601" x2="1681.0713" y1="550.4922" y2="550.4922"/><text fill="#000000" font-family="sans-serif" font-size="13" lengthAdjust="spacing" textLength="286.8633" x="921.0601" y="545.6357">findByPublicacionIdOrderByFechaSubidaDesc(id)</text><polygon fill="#181818" points="1976.5337,593.1953,1986.5337,597.1953,1976.5337,601.1953,1980.5337,597.1953" style="stroke:#181818;stroke-width:1;"/><line style="stroke:#181818;stroke-width:1;" x1="1687.0713" x2="1982.5337" y1="597.1953" y2="597.1953"/><text fill="#000000" font-family="sans-serif" font-size="13" lengthAdjust="spacing" textLength="225.418" x="1694.0713" y="575.9873">SELECT * FROM archivos_publicacion</text><text fill="#000000" font-family="sans-serif" font-size="13" lengthAdjust="spacing" textLength="277.4624" x="1694.0713" y="592.3389">WHERE publicacion_id = ? AND retirado = false</text><polygon fill="#181818" points="1698.0713,623.5469,1688.0713,627.5469,1698.0713,631.5469,1694.0713,627.5469" style="stroke:#181818;stroke-width:1;"/><line style="stroke:#181818;stroke-width:1;stroke-dasharray:2.0,2.0;" x1="1692.0713" x2="1987.5337" y1="627.5469" y2="627.5469"/><text fill="#000000" font-family="sans-serif" font-size="13" lengthAdjust="spacing" textLength="50.5908" x="1704.0713" y="622.6904">Adjuntos</text><polygon fill="#181818" points="563.5938,653.8984,553.5938,657.8984,563.5938,661.8984,559.5938,657.8984" style="stroke:#181818;stroke-width:1;"/><line style="stroke:#181818;stroke-width:1;stroke-dasharray:2.0,2.0;" x1="557.5938" x2="913.0601" y1="657.8984" y2="657.8984"/><text fill="#000000" font-family="sans-serif" font-size="13" lengthAdjust="spacing" textLength="153.2134" x="569.5938" y="653.042">Resultado del caso de uso</text><polygon fill="#181818" points="309.4341,684.25,299.4341,688.25,309.4341,692.25,305.4341,688.25" style="stroke:#181818;stroke-width:1;"/><line style="stroke:#181818;stroke-width:1;stroke-dasharray:2.0,2.0;" x1="303.4341" x2="551.5938" y1="688.25" y2="688.25"/><text fill="#000000" font-family="sans-serif" font-size="13" lengthAdjust="spacing" textLength="181.3779" x="315.4341" y="683.3936">200 OK (PublicacionResponse)</text><polygon fill="#181818" points="57.1343,714.6016,47.1343,718.6016,57.1343,722.6016,53.1343,718.6016" style="stroke:#181818;stroke-width:1;"/><line style="stroke:#181818;stroke-width:1;stroke-dasharray:2.0,2.0;" x1="51.1343" x2="297.4341" y1="718.6016" y2="718.6016"/><text fill="#000000" font-family="sans-serif" font-size="13" lengthAdjust="spacing" textLength="228.2998" x="63.1343" y="713.7451">Presenta MI_PUBLICACION_ABIERTA</text><!--SRC=[ZLDTRzim37ptho3wb6mjKkmnm3ROiRi5Qvl2wJ0CA10m4fjoSoL3aeC5G__x93jkv7viUp5awexaaIV7hYB86JS6xn4aWINHa1ACS0AuDcmk-AfPLonGi5O92gSDpDMMhECDIcsI6erZmJKg1qVFALUueHirAibJnqU05iwCLewK738ZoipV6rrLP3nnMHjM6yYqtjFJceVC9LbFMfBPig0MqaLUpJ-4jkSdM5sn_yE8qu93NEnUpLjIhItx0UrQTFWTOakoTUCdXtyZsVevCJNYZhVwTTeUq38bEboZ9JZAmjSlDKUdROlBioI9jmSd7nxtCOLbqCSENzZyQ9pqkC3nIvZ2f-8Q9bZpf3xWo4xkQVARvGEy1Q7rJwR4WmEdsyeKzDfd8TFzfi8rM8smSNUamioT3uwJxX9E-b9fwpkFwa1I7vAs-tlCEc9v3ArBGvBsBi32OAPmoqfckxbCbIp9iK697ZzEmcr0vPcVGN5UpAxX3PoLYmiOABjHtpuNPG4iuJryXFGo1xDFumEtM5bAygnjkgiNpGyci0s7kAdEJbEWNxnXapQ-QSPHs_nnNFc9aiuWlPgenbmkZ2IJxSv8tFNAElJBwaplHxkAolKoez1gBtbHvaK9sNUu3HKEOlkM7WrkuvOZS_wpwsMpPeavMT7s7r5Vbe0Tu7y5H3lJJtSsQ3ELFnhbNyr1Hsz5hx6fNE1Bga2W3GTexDwIWmVrxlGK5bzWD7YujjRAKloUF2T-bDuuVZFUwGWNyzNLr-nyFajdyyNbAitcHNcT_W40]--></g></svg>