<svg xmlns="http://www.w3.org/2000/svg" xmlns:xlink="http://www.w3.org/1999/xlink" contentStyleType="text/css" height="656px" preserveAspectRatio="none" style="width:1718px;height:656px;background:#FFFFFF;" version="1.1" viewBox="0 0 1718 656" width="1718px" zoomAndPan="magnify"><title>Diagrama de secuencia - abrirMisPublicaciones</title><defs/><g><text fill="#000000" font-family="sans-serif" font-size="14" font-weight="bold" lengthAdjust="spacing" textLength="316.6816" x="702.6423" y="29.5332">Diagrama de secuencia - abrirMisPublicaciones</text><line style="stroke:#181818;stroke-width:0.5;stroke-dasharray:5.0,5.0;" x1="46" x2="46" y1="121.2188" y2="574.4922"/><line style="stroke:#181818;stroke-width:0.5;stroke-dasharray:5.0,5.0;" x1="332.687" x2="332.687" y1="121.2188" y2="574.4922"/><line style="stroke:#181818;stroke-width:0.5;stroke-dasharray:5.0,5.0;" x1="604.1001" x2="604.1001" y1="121.2188" y2="574.4922"/><line style="stroke:#181818;stroke-width:0.5;stroke-dasharray:5.0,5.0;" x1="837.0806" x2="837.0806" y1="121.2188" y2="574.4922"/><line style="stroke:#181818;stroke-width:0.5;stroke-dasharray:5.0,5.0;" x1="965.5698" x2="965.5698" y1="121.2188" y2="574.4922"/><line style="stroke:#181818;stroke-width:0.5;stroke-dasharray:5.0,5.0;" x1="1106.8521" x2="1106.8521" y1="121.2188" y2="574.4922"/><line style="stroke:#181818;stroke-width:0.5;stroke-dasharray:5.0,5.0;" x1="1402.7422" x2="1402.7422" y1="121.2188" y2="574.4922"/><line style="stroke:#181818;stroke-width:0.5;stroke-dasharray:5.0,5.0;" x1="1668.1323" x2="1668.1323" y1="121.2188" y2="574.4922"/><text fill="#000000" font-family="sans-serif" font-size="14" lengthAdjust="spacing" textLength="76.2686" x="5" y="118.1426">Investigador</text><ellipse cx="46.1343" cy="52.1094" fill="#E2E2F0" rx="8" ry="8" style="stroke:#181818;stroke-width:0.5;"/><path d="M46.1343,60.1094 L46.1343,87.1094 M33.1343,68.1094 L59.1343,68.1094 M46.1343,87.1094 L33.1343,102.1094 M46.1343,87.1094 L59.1343,102.1094 " fill="none" style="stroke:#181818;stroke-width:0.5;"/><text fill="#000000" font-family="sans-serif" font-size="14" lengthAdjust="spacing" textLength="76.2686" x="5" y="588.0254">Investigador</text><ellipse cx="46.1343" cy="599.6016" fill="#E2E2F0" rx="8" ry="8" style="stroke:#181818;stroke-width:0.5;"/><path d="M46.1343,607.6016 L46.1343,634.6016 M33.1343,615.6016 L59.1343,615.6016 M46.1343,634.6016 L33.1343,649.6016 M46.1343,634.6016 L59.1343,649.6016 " fill="none" style="stroke:#181818;stroke-width:0.5;"/><rect fill="#E2E2F0" height="49.2188" rx="2.5" ry="2.5" style="stroke:#181818;stroke-width:0.5;" width="182.8613" x="241.687" y="71"/><text fill="#000000" font-family="sans-serif" font-size="14" lengthAdjust="spacing" textLength="168.8613" x="248.687" y="92.5332">abrirMisPublicacionesPage</text><text fill="#000000" font-family="sans-serif" font-size="14" lengthAdjust="spacing" textLength="45.8965" x="310.1694" y="110.1426">(React)</text><rect fill="#E2E2F0" height="49.2188" rx="2.5" ry="2.5" style="stroke:#181818;stroke-width:0.5;" width="182.8613" x="241.687" y="573.4922"/><text fill="#000000" font-family="sans-serif" font-size="14" lengthAdjust="spacing" textLength="168.8613" x="248.687" y="595.0254">abrirMisPublicacionesPage</text><text fill="#000000" font-family="sans-serif" font-size="14" lengthAdjust="spacing" textLength="45.8965" x="310.1694" y="612.6348">(React)</text><rect fill="#E2E2F0" height="49.2188" rx="2.5" ry="2.5" style="stroke:#181818;stroke-width:0.5;" width="146.2891" x="531.1001" y="71"/><text fill="#000000" font-family="sans-serif" font-size="14" lengthAdjust="spacing" textLength="132.2891" x="538.1001" y="92.5332">PublicacionController</text><text fill="#000000" font-family="sans-serif" font-size="14" lengthAdjust="spacing" textLength="82.4824" x="563.0034" y="110.1426">(Spring Boot)</text><rect fill="#E2E2F0" height="49.2188" rx="2.5" ry="2.5" style="stroke:#181818;stroke-width:0.5;" width="146.2891" x="531.1001" y="573.4922"/><text fill="#000000" font-family="sans-serif" font-size="14" lengthAdjust="spacing" textLength="132.2891" x="538.1001" y="595.0254">PublicacionController</text><text fill="#000000" font-family="sans-serif" font-size="14" lengthAdjust="spacing" textLength="82.4824" x="563.0034" y="612.6348">(Spring Boot)</text><rect fill="#E2E2F0" height="31.6094" rx="2.5" ry="2.5" style="stroke:#181818;stroke-width:0.5;" width="103.4893" x="786.0806" y="88.6094"/><text fill="#000000" font-family="sans-serif" font-size="14" lengthAdjust="spacing" textLength="89.4893" x="793.0806" y="110.1426">SesionService</text><rect fill="#E2E2F0" height="31.6094" rx="2.5" ry="2.5" style="stroke:#181818;stroke-width:0.5;" width="103.4893" x="786.0806" y="573.4922"/><text fill="#000000" font-family="sans-serif" font-size="14" lengthAdjust="spacing" textLength="89.4893" x="793.0806" y="595.0254">SesionService</text><rect fill="#E2E2F0" height="31.6094" rx="2.5" ry="2.5" style="stroke:#181818;stroke-width:0.5;" width="132.2822" x="899.5698" y="88.6094"/><text fill="#000000" font-family="sans-serif" font-size="14" lengthAdjust="spacing" textLength="118.2822" x="906.5698" y="110.1426">PublicacionService</text><rect fill="#E2E2F0" height="31.6094" rx="2.5" ry="2.5" style="stroke:#181818;stroke-width:0.5;" width="132.2822" x="899.5698" y="573.4922"/><text fill="#000000" font-family="sans-serif" font-size="14" lengthAdjust="spacing" textLength="118.2822" x="906.5698" y="595.0254">PublicacionService</text><rect fill="#E2E2F0" height="31.6094" rx="2.5" ry="2.5" style="stroke:#181818;stroke-width:0.5;" width="130.7305" x="1041.8521" y="88.6094"/><text fill="#000000" font-family="sans-serif" font-size="14" lengthAdjust="spacing" textLength="116.7305" x="1048.8521" y="110.1426">PoliticaPublicacion</text><rect fill="#E2E2F0" height="31.6094" rx="2.5" ry="2.5" style="stroke:#181818;stroke-width:0.5;" width="130.7305" x="1041.8521" y="573.4922"/><text fill="#000000" font-family="sans-serif" font-size="14" lengthAdjust="spacing" textLength="116.7305" x="1048.8521" y="595.0254">PoliticaPublicacion</text><rect fill="#E2E2F0" height="31.6094" rx="2.5" ry="2.5" style="stroke:#181818;stroke-width:0.5;" width="152.5166" x="1326.7422" y="88.6094"/><text fill="#000000" font-family="sans-serif" font-size="14" lengthAdjust="spacing" textLength="138.5166" x="1333.7422" y="110.1426">PublicacionRepository</text><rect fill="#E2E2F0" height="31.6094" rx="2.5" ry="2.5" style="stroke:#181818;stroke-width:0.5;" width="152.5166" x="1326.7422" y="573.4922"/><text fill="#000000" font-family="sans-serif" font-size="14" lengthAdjust="spacing" textLength="138.5166" x="1333.7422" y="595.0254">PublicacionRepository</text><text fill="#000000" font-family="sans-serif" font-size="14" lengthAdjust="spacing" textLength="91.834" x="1620.1323" y="118.1426">Base de Datos</text><path d="M1651.0493,67.6094 C1651.0493,57.6094 1669.0493,57.6094 1669.0493,57.6094 C1669.0493,57.6094 1687.0493,57.6094 1687.0493,67.6094 L1687.0493,93.6094 C1687.0493,103.6094 1669.0493,103.6094 1669.0493,103.6094 C1669.0493,103.6094 1651.0493,103.6094 1651.0493,93.6094 L1651.0493,67.6094 " fill="#E2E2F0" style="stroke:#181818;stroke-width:1.5;"/><path d="M1651.0493,67.6094 C1651.0493,77.6094 1669.0493,77.6094 1669.0493,77.6094 C1669.0493,77.6094 1687.0493,77.6094 1687.0493,67.6094 " fill="none" style="stroke:#181818;stroke-width:1.5;"/><text fill="#000000" font-family="sans-serif" font-size="14" lengthAdjust="spacing" textLength="91.834" x="1620.1323" y="588.0254">Base de Datos</text><path d="M1651.0493,601.1016 C1651.0493,591.1016 1669.0493,591.1016 1669.0493,591.1016 C1669.0493,591.1016 1687.0493,591.1016 1687.0493,601.1016 L1687.0493,627.1016 C1687.0493,637.1016 1669.0493,637.1016 1669.0493,637.1016 C1669.0493,637.1016 1651.0493,637.1016 1651.0493,627.1016 L1651.0493,601.1016 " fill="#E2E2F0" style="stroke:#181818;stroke-width:1.5;"/><path d="M1651.0493,601.1016 C1651.0493,611.1016 1669.0493,611.1016 1669.0493,611.1016 C1669.0493,611.1016 1687.0493,611.1016 1687.0493,601.1016 " fill="none" style="stroke:#181818;stroke-width:1.5;"/><polygon fill="#181818" points="321.1177,149.5703,331.1177,153.5703,321.1177,157.5703,325.1177,153.5703" style="stroke:#181818;stroke-width:1;"/><line style="stroke:#181818;stroke-width:1;" x1="46.1343" x2="327.1177" y1="153.5703" y2="153.5703"/><text fill="#000000" font-family="sans-serif" font-size="13" lengthAdjust="spacing" textLength="180.6162" x="53.1343" y="148.7139">Solicita abrirMisPublicaciones()</text><polygon fill="#181818" points="592.2446,179.9219,602.2446,183.9219,592.2446,187.9219,596.2446,183.9219" style="stroke:#181818;stroke-width:1;"/><line style="stroke:#181818;stroke-width:1;" x1="333.1177" x2="598.2446" y1="183.9219" y2="183.9219"/><text fill="#000000" font-family="sans-serif" font-size="13" lengthAdjust="spacing" textLength="247.127" x="340.1177" y="179.0654">GET /api/publicaciones/me?filtro= + cookie</text><polygon fill="#181818" points="825.8252,210.2734,835.8252,214.2734,825.8252,218.2734,829.8252,214.2734" style="stroke:#181818;stroke-width:1;"/><line style="stroke:#181818;stroke-width:1;" x1="604.2446" x2="831.8252" y1="214.2734" y2="214.2734"/><text fill="#000000" font-family="sans-serif" font-size="13" lengthAdjust="spacing" textLength="209.5806" x="611.2446" y="209.417">obtenerSesionActual(authentication)</text><polygon fill="#181818" points="615.2446,240.625,605.2446,244.625,615.2446,248.625,611.2446,244.625" style="stroke:#181818;stroke-width:1;"/><line style="stroke:#181818;stroke-width:1;stroke-dasharray:2.0,2.0;" x1="609.2446" x2="836.8252" y1="244.625" y2="244.625"/><text fill="#000000" font-family="sans-serif" font-size="13" lengthAdjust="spacing" textLength="101.1753" x="621.2446" y="239.7686">Actor autenticado</text><polygon fill="#181818" points="953.7109,270.9766,963.7109,274.9766,953.7109,278.9766,957.7109,274.9766" style="stroke:#181818;stroke-width:1;"/><line style="stroke:#181818;stroke-width:1;" x1="604.2446" x2="959.7109" y1="274.9766" y2="274.9766"/><text fill="#000000" font-family="sans-serif" font-size="13" lengthAdjust="spacing" textLength="96.7891" x="611.2446" y="270.1201">listar(filtro, actor)</text><path d="M1112,287.9766 L1112,313.9766 L1362,313.9766 L1362,297.9766 L1352,287.9766 L1112,287.9766 " fill="#FEFFDD" style="stroke:#181818;stroke-width:0.5;"/><path d="M1352,287.9766 L1352,297.9766 L1362,297.9766 L1352,287.9766 " fill="#FEFFDD" style="stroke:#181818;stroke-width:0.5;"/><text fill="#000000" font-family="sans-serif" font-size="13" lengthAdjust="spacing" textLength="229.0933" x="1118" y="306.4717">Responsabilidad interna: alcancePropio</text><polygon fill="#181818" points="1391.0005,337.6797,1401.0005,341.6797,1391.0005,345.6797,1395.0005,341.6797" style="stroke:#181818;stroke-width:1;"/><line style="stroke:#181818;stroke-width:1;" x1="965.7109" x2="1397.0005" y1="341.6797" y2="341.6797"/><text fill="#000000" font-family="sans-serif" font-size="13" lengthAdjust="spacing" textLength="413.2896" x="972.7109" y="336.8232">findByAutorAndRetiradaOrderByFechaActualizacionDesc(actor.id, filtro)</text><polygon fill="#181818" points="1657.0493,400.7344,1667.0493,404.7344,1657.0493,408.7344,1661.0493,404.7344" style="stroke:#181818;stroke-width:1;"/><line style="stroke:#181818;stroke-width:1;" x1="1403.0005" x2="1663.0493" y1="404.7344" y2="404.7344"/><text fill="#000000" font-family="sans-serif" font-size="13" lengthAdjust="spacing" textLength="183.5107" x="1410.0005" y="367.1748">SELECT * FROM publicaciones</text><text fill="#000000" font-family="sans-serif" font-size="13" lengthAdjust="spacing" textLength="242.0488" x="1410.0005" y="383.5264">WHERE autor_id = ? AND retirada = false</text><text fill="#000000" font-family="sans-serif" font-size="13" lengthAdjust="spacing" textLength="147.7607" x="1410.0005" y="399.8779">AND coincide_filtro = true</text><polygon fill="#181818" points="1414.0005,431.0859,1404.0005,435.0859,1414.0005,439.0859,1410.0005,435.0859" style="stroke:#181818;stroke-width:1;"/><line style="stroke:#181818;stroke-width:1;stroke-dasharray:2.0,2.0;" x1="1408.0005" x2="1668.0493" y1="435.0859" y2="435.0859"/><text fill="#000000" font-family="sans-serif" font-size="13" lengthAdjust="spacing" textLength="126.4644" x="1420.0005" y="430.2295">Publicaciones propias</text><polygon fill="#181818" points="976.7109,461.4375,966.7109,465.4375,976.7109,469.4375,972.7109,465.4375" style="stroke:#181818;stroke-width:1;"/><line style="stroke:#181818;stroke-width:1;stroke-dasharray:2.0,2.0;" x1="970.7109" x2="1402.0005" y1="465.4375" y2="465.4375"/><text fill="#000000" font-family="sans-serif" font-size="13" lengthAdjust="spacing" textLength="126.4644" x="982.7109" y="460.5811">Publicaciones propias</text><polygon fill="#181818" points="615.2446,491.7891,605.2446,495.7891,615.2446,499.7891,611.2446,495.7891" style="stroke:#181818;stroke-width:1;"/><line style="stroke:#181818;stroke-width:1;stroke-dasharray:2.0,2.0;" x1="609.2446" x2="964.7109" y1="495.7891" y2="495.7891"/><text fill="#000000" font-family="sans-serif" font-size="13" lengthAdjust="spacing" textLength="153.2134" x="621.2446" y="490.9326">Resultado del caso de uso</text><polygon fill="#181818" points="344.1177,522.1406,334.1177,526.1406,344.1177,530.1406,340.1177,526.1406" style="stroke:#181818;stroke-width:1;"/><line style="stroke:#181818;stroke-width:1;stroke-dasharray:2.0,2.0;" x1="338.1177" x2="603.2446" y1="526.1406" y2="526.1406"/><text fill="#000000" font-family="sans-serif" font-size="13" lengthAdjust="spacing" textLength="181.3779" x="350.1177" y="521.2842">200 OK (PublicacionResponse)</text><polygon fill="#181818" points="57.1343,552.4922,47.1343,556.4922,57.1343,560.4922,53.1343,556.4922" style="stroke:#181818;stroke-width:1;"/><line style="stroke:#181818;stroke-width:1;stroke-dasharray:2.0,2.0;" x1="51.1343" x2="332.1177" y1="556.4922" y2="556.4922"/><text fill="#000000" font-family="sans-serif" font-size="13" lengthAdjust="spacing" textLength="262.9834" x="63.1343" y="551.6357">Presenta MIS_PUBLICACIONES_ABIERTAS</text><!--SRC=[TPF1Rjim38RlVWgYfsHhrs970srXnyuMh6s2kCCk1G96OX9YhcH8Se7iwKVPQMSFxIMmgFydgOzCu50J58nxXyy8ci2JQiaeHhW0t3fsz-nNxRPcXOgj8P-W2jR1mhoG3xn7RLtIe0kik44JuEnTrmhtz6GcQnBtz0pGmznP4yZeiNbWciczitLDJenLuzZi8RVsPCyQ7ZihycAgoBsmeaxIHpxCFvPst_zfRSrome6d4yUuEdwOTqsDzIoCZfqw7fD4Oy0jUeApFFuAw0A3zPsYo9DaY1CkRjxef535QXpm_MbCfichDDg4IWhVoaUun8Olcw7oyfbkTrmBqclu3ChQtqo9wAEj9vM2tKeYSlqnKw75Ue9jE9297884fqb_2HUlrR9k7KJLYxJzbxHZcaBDFg2RzCNFeTkVQM9i872yFmImknFJL6ZvnXgFMwvPemQMfpc3AM2jq2XQETkmJKwvOvd8DuKT6vqVirPIPqQlAR13ZKkdoUN7EQa3zi_XFnsEWhoQT8ryONqEVMlJ9EQAEOjSk9TtvUmHFi5ylRo74Sedy-jxkIxZewtRi8Phk8NieG1tgYk17TPUDZv6bMNvGsdQz6NaChYMaYBl8FRzZuOAJNmb-bC_GvRlwzvml0v5CBPra678fjMWqCSFQFrfEAC5-tfr1SiVC1cjS3S56YwNU8PBAgquyZ9pXFj5jLdzpEyMisosM3wKrIRB5-NwCQl-0W00]--></g></svg>