<svg xmlns="http://www.w3.org/2000/svg" xmlns:xlink="http://www.w3.org/1999/xlink" contentStyleType="text/css" height="656px" preserveAspectRatio="none" style="width:1719px;height:656px;background:#FFFFFF;" version="1.1" viewBox="0 0 1719 656" width="1719px" zoomAndPan="magnify"><title>Diagrama de secuencia - abrirMisPublicaciones</title><defs/><g><text fill="#000000" font-family="sans-serif" font-size="14" font-weight="bold" lengthAdjust="spacing" textLength="316.6816" x="702.8372" y="29.5332">Diagrama de secuencia - abrirMisPublicaciones</text><line style="stroke:#181818;stroke-width:0.5;stroke-dasharray:5.0,5.0;" x1="46" x2="46" y1="121.2188" y2="574.4922"/><line style="stroke:#181818;stroke-width:0.5;stroke-dasharray:5.0,5.0;" x1="333.0767" x2="333.0767" y1="121.2188" y2="574.4922"/><line style="stroke:#181818;stroke-width:0.5;stroke-dasharray:5.0,5.0;" x1="604.4897" x2="604.4897" y1="121.2188" y2="574.4922"/><line style="stroke:#181818;stroke-width:0.5;stroke-dasharray:5.0,5.0;" x1="837.4702" x2="837.4702" y1="121.2188" y2="574.4922"/><line style="stroke:#181818;stroke-width:0.5;stroke-dasharray:5.0,5.0;" x1="965.9595" x2="965.9595" y1="121.2188" y2="574.4922"/><line style="stroke:#181818;stroke-width:0.5;stroke-dasharray:5.0,5.0;" x1="1107.2417" x2="1107.2417" y1="121.2188" y2="574.4922"/><line style="stroke:#181818;stroke-width:0.5;stroke-dasharray:5.0,5.0;" x1="1403.1318" x2="1403.1318" y1="121.2188" y2="574.4922"/><line style="stroke:#181818;stroke-width:0.5;stroke-dasharray:5.0,5.0;" x1="1668.522" x2="1668.522" y1="121.2188" y2="574.4922"/><text fill="#000000" font-family="sans-serif" font-size="14" lengthAdjust="spacing" textLength="77.0479" x="5" y="118.1426">Coordinador</text><ellipse cx="46.5239" cy="52.1094" fill="#E2E2F0" rx="8" ry="8" style="stroke:#181818;stroke-width:0.5;"/><path d="M46.5239,60.1094 L46.5239,87.1094 M33.5239,68.1094 L59.5239,68.1094 M46.5239,87.1094 L33.5239,102.1094 M46.5239,87.1094 L59.5239,102.1094 " fill="none" style="stroke:#181818;stroke-width:0.5;"/><text fill="#000000" font-family="sans-serif" font-size="14" lengthAdjust="spacing" textLength="77.0479" x="5" y="588.0254">Coordinador</text><ellipse cx="46.5239" cy="599.6016" fill="#E2E2F0" rx="8" ry="8" style="stroke:#181818;stroke-width:0.5;"/><path d="M46.5239,607.6016 L46.5239,634.6016 M33.5239,615.6016 L59.5239,615.6016 M46.5239,634.6016 L33.5239,649.6016 M46.5239,634.6016 L59.5239,649.6016 " fill="none" style="stroke:#181818;stroke-width:0.5;"/><rect fill="#E2E2F0" height="49.2188" rx="2.5" ry="2.5" style="stroke:#181818;stroke-width:0.5;" width="182.8613" x="242.0767" y="71"/><text fill="#000000" font-family="sans-serif" font-size="14" lengthAdjust="spacing" textLength="168.8613" x="249.0767" y="92.5332">abrirMisPublicacionesPage</text><text fill="#000000" font-family="sans-serif" font-size="14" lengthAdjust="spacing" textLength="45.8965" x="310.5591" y="110.1426">(React)</text><rect fill="#E2E2F0" height="49.2188" rx="2.5" ry="2.5" style="stroke:#181818;stroke-width:0.5;" width="182.8613" x="242.0767" y="573.4922"/><text fill="#000000" font-family="sans-serif" font-size="14" lengthAdjust="spacing" textLength="168.8613" x="249.0767" y="595.0254">abrirMisPublicacionesPage</text><text fill="#000000" font-family="sans-serif" font-size="14" lengthAdjust="spacing" textLength="45.8965" x="310.5591" y="612.6348">(React)</text><rect fill="#E2E2F0" height="49.2188" rx="2.5" ry="2.5" style="stroke:#181818;stroke-width:0.5;" width="146.2891" x="531.4897" y="71"/><text fill="#000000" font-family="sans-serif" font-size="14" lengthAdjust="spacing" textLength="132.2891" x="538.4897" y="92.5332">PublicacionController</text><text fill="#000000" font-family="sans-serif" font-size="14" lengthAdjust="spacing" textLength="82.4824" x="563.3931" y="110.1426">(Spring Boot)</text><rect fill="#E2E2F0" height="49.2188" rx="2.5" ry="2.5" style="stroke:#181818;stroke-width:0.5;" width="146.2891" x="531.4897" y="573.4922"/><text fill="#000000" font-family="sans-serif" font-size="14" lengthAdjust="spacing" textLength="132.2891" x="538.4897" y="595.0254">PublicacionController</text><text fill="#000000" font-family="sans-serif" font-size="14" lengthAdjust="spacing" textLength="82.4824" x="563.3931" y="612.6348">(Spring Boot)</text><rect fill="#E2E2F0" height="31.6094" rx="2.5" ry="2.5" style="stroke:#181818;stroke-width:0.5;" width="103.4893" x="786.4702" y="88.6094"/><text fill="#000000" font-family="sans-serif" font-size="14" lengthAdjust="spacing" textLength="89.4893" x="793.4702" y="110.1426">SesionService</text><rect fill="#E2E2F0" height="31.6094" rx="2.5" ry="2.5" style="stroke:#181818;stroke-width:0.5;" width="103.4893" x="786.4702" y="573.4922"/><text fill="#000000" font-family="sans-serif" font-size="14" lengthAdjust="spacing" textLength="89.4893" x="793.4702" y="595.0254">SesionService</text><rect fill="#E2E2F0" height="31.6094" rx="2.5" ry="2.5" style="stroke:#181818;stroke-width:0.5;" width="132.2822" x="899.9595" y="88.6094"/><text fill="#000000" font-family="sans-serif" font-size="14" lengthAdjust="spacing" textLength="118.2822" x="906.9595" y="110.1426">PublicacionService</text><rect fill="#E2E2F0" height="31.6094" rx="2.5" ry="2.5" style="stroke:#181818;stroke-width:0.5;" width="132.2822" x="899.9595" y="573.4922"/><text fill="#000000" font-family="sans-serif" font-size="14" lengthAdjust="spacing" textLength="118.2822" x="906.9595" y="595.0254">PublicacionService</text><rect fill="#E2E2F0" height="31.6094" rx="2.5" ry="2.5" style="stroke:#181818;stroke-width:0.5;" width="130.7305" x="1042.2417" y="88.6094"/><text fill="#000000" font-family="sans-serif" font-size="14" lengthAdjust="spacing" textLength="116.7305" x="1049.2417" y="110.1426">PoliticaPublicacion</text><rect fill="#E2E2F0" height="31.6094" rx="2.5" ry="2.5" style="stroke:#181818;stroke-width:0.5;" width="130.7305" x="1042.2417" y="573.4922"/><text fill="#000000" font-family="sans-serif" font-size="14" lengthAdjust="spacing" textLength="116.7305" x="1049.2417" y="595.0254">PoliticaPublicacion</text><rect fill="#E2E2F0" height="31.6094" rx="2.5" ry="2.5" style="stroke:#181818;stroke-width:0.5;" width="152.5166" x="1327.1318" y="88.6094"/><text fill="#000000" font-family="sans-serif" font-size="14" lengthAdjust="spacing" textLength="138.5166" x="1334.1318" y="110.1426">PublicacionRepository</text><rect fill="#E2E2F0" height="31.6094" rx="2.5" ry="2.5" style="stroke:#181818;stroke-width:0.5;" width="152.5166" x="1327.1318" y="573.4922"/><text fill="#000000" font-family="sans-serif" font-size="14" lengthAdjust="spacing" textLength="138.5166" x="1334.1318" y="595.0254">PublicacionRepository</text><text fill="#000000" font-family="sans-serif" font-size="14" lengthAdjust="spacing" textLength="91.834" x="1620.522" y="118.1426">Base de Datos</text><path d="M1651.439,67.6094 C1651.439,57.6094 1669.439,57.6094 1669.439,57.6094 C1669.439,57.6094 1687.439,57.6094 1687.439,67.6094 L1687.439,93.6094 C1687.439,103.6094 1669.439,103.6094 1669.439,103.6094 C1669.439,103.6094 1651.439,103.6094 1651.439,93.6094 L1651.439,67.6094 " fill="#E2E2F0" style="stroke:#181818;stroke-width:1.5;"/><path d="M1651.439,67.6094 C1651.439,77.6094 1669.439,77.6094 1669.439,77.6094 C1669.439,77.6094 1687.439,77.6094 1687.439,67.6094 " fill="none" style="stroke:#181818;stroke-width:1.5;"/><text fill="#000000" font-family="sans-serif" font-size="14" lengthAdjust="spacing" textLength="91.834" x="1620.522" y="588.0254">Base de Datos</text><path d="M1651.439,601.1016 C1651.439,591.1016 1669.439,591.1016 1669.439,591.1016 C1669.439,591.1016 1687.439,591.1016 1687.439,601.1016 L1687.439,627.1016 C1687.439,637.1016 1669.439,637.1016 1669.439,637.1016 C1669.439,637.1016 1651.439,637.1016 1651.439,627.1016 L1651.439,601.1016 " fill="#E2E2F0" style="stroke:#181818;stroke-width:1.5;"/><path d="M1651.439,601.1016 C1651.439,611.1016 1669.439,611.1016 1669.439,611.1016 C1669.439,611.1016 1687.439,611.1016 1687.439,601.1016 " fill="none" style="stroke:#181818;stroke-width:1.5;"/><polygon fill="#181818" points="321.5073,149.5703,331.5073,153.5703,321.5073,157.5703,325.5073,153.5703" style="stroke:#181818;stroke-width:1;"/><line style="stroke:#181818;stroke-width:1;" x1="46.5239" x2="327.5073" y1="153.5703" y2="153.5703"/><text fill="#000000" font-family="sans-serif" font-size="13" lengthAdjust="spacing" textLength="180.6162" x="53.5239" y="148.7139">Solicita abrirMisPublicaciones()</text><polygon fill="#181818" points="592.6343,179.9219,602.6343,183.9219,592.6343,187.9219,596.6343,183.9219" style="stroke:#181818;stroke-width:1;"/><line style="stroke:#181818;stroke-width:1;" x1="333.5073" x2="598.6343" y1="183.9219" y2="183.9219"/><text fill="#000000" font-family="sans-serif" font-size="13" lengthAdjust="spacing" textLength="247.127" x="340.5073" y="179.0654">GET /api/publicaciones/me?filtro= + cookie</text><polygon fill="#181818" points="826.2148,210.2734,836.2148,214.2734,826.2148,218.2734,830.2148,214.2734" style="stroke:#181818;stroke-width:1;"/><line style="stroke:#181818;stroke-width:1;" x1="604.6343" x2="832.2148" y1="214.2734" y2="214.2734"/><text fill="#000000" font-family="sans-serif" font-size="13" lengthAdjust="spacing" textLength="209.5806" x="611.6343" y="209.417">obtenerSesionActual(authentication)</text><polygon fill="#181818" points="615.6343,240.625,605.6343,244.625,615.6343,248.625,611.6343,244.625" style="stroke:#181818;stroke-width:1;"/><line style="stroke:#181818;stroke-width:1;stroke-dasharray:2.0,2.0;" x1="609.6343" x2="837.2148" y1="244.625" y2="244.625"/><text fill="#000000" font-family="sans-serif" font-size="13" lengthAdjust="spacing" textLength="101.1753" x="621.6343" y="239.7686">Actor autenticado</text><polygon fill="#181818" points="954.1006,270.9766,964.1006,274.9766,954.1006,278.9766,958.1006,274.9766" style="stroke:#181818;stroke-width:1;"/><line style="stroke:#181818;stroke-width:1;" x1="604.6343" x2="960.1006" y1="274.9766" y2="274.9766"/><text fill="#000000" font-family="sans-serif" font-size="13" lengthAdjust="spacing" textLength="96.7891" x="611.6343" y="270.1201">listar(filtro, actor)</text><path d="M1112,287.9766 L1112,313.9766 L1362,313.9766 L1362,297.9766 L1352,287.9766 L1112,287.9766 " fill="#FEFFDD" style="stroke:#181818;stroke-width:0.5;"/><path d="M1352,287.9766 L1352,297.9766 L1362,297.9766 L1352,287.9766 " fill="#FEFFDD" style="stroke:#181818;stroke-width:0.5;"/><text fill="#000000" font-family="sans-serif" font-size="13" lengthAdjust="spacing" textLength="229.0933" x="1118" y="306.4717">Responsabilidad interna: alcancePropio</text><polygon fill="#181818" points="1391.3901,337.6797,1401.3901,341.6797,1391.3901,345.6797,1395.3901,341.6797" style="stroke:#181818;stroke-width:1;"/><line style="stroke:#181818;stroke-width:1;" x1="966.1006" x2="1397.3901" y1="341.6797" y2="341.6797"/><text fill="#000000" font-family="sans-serif" font-size="13" lengthAdjust="spacing" textLength="413.2896" x="973.1006" y="336.8232">findByAutorAndRetiradaOrderByFechaActualizacionDesc(actor.id, filtro)</text><polygon fill="#181818" points="1657.439,400.7344,1667.439,404.7344,1657.439,408.7344,1661.439,404.7344" style="stroke:#181818;stroke-width:1;"/><line style="stroke:#181818;stroke-width:1;" x1="1403.3901" x2="1663.439" y1="404.7344" y2="404.7344"/><text fill="#000000" font-family="sans-serif" font-size="13" lengthAdjust="spacing" textLength="183.5107" x="1410.3901" y="367.1748">SELECT * FROM publicaciones</text><text fill="#000000" font-family="sans-serif" font-size="13" lengthAdjust="spacing" textLength="242.0488" x="1410.3901" y="383.5264">WHERE autor_id = ? AND retirada = false</text><text fill="#000000" font-family="sans-serif" font-size="13" lengthAdjust="spacing" textLength="147.7607" x="1410.3901" y="399.8779">AND coincide_filtro = true</text><polygon fill="#181818" points="1414.3901,431.0859,1404.3901,435.0859,1414.3901,439.0859,1410.3901,435.0859" style="stroke:#181818;stroke-width:1;"/><line style="stroke:#181818;stroke-width:1;stroke-dasharray:2.0,2.0;" x1="1408.3901" x2="1668.439" y1="435.0859" y2="435.0859"/><text fill="#000000" font-family="sans-serif" font-size="13" lengthAdjust="spacing" textLength="126.4644" x="1420.3901" y="430.2295">Publicaciones propias</text><polygon fill="#181818" points="977.1006,461.4375,967.1006,465.4375,977.1006,469.4375,973.1006,465.4375" style="stroke:#181818;stroke-width:1;"/><line style="stroke:#181818;stroke-width:1;stroke-dasharray:2.0,2.0;" x1="971.1006" x2="1402.3901" y1="465.4375" y2="465.4375"/><text fill="#000000" font-family="sans-serif" font-size="13" lengthAdjust="spacing" textLength="126.4644" x="983.1006" y="460.5811">Publicaciones propias</text><polygon fill="#181818" points="615.6343,491.7891,605.6343,495.7891,615.6343,499.7891,611.6343,495.7891" style="stroke:#181818;stroke-width:1;"/><line style="stroke:#181818;stroke-width:1;stroke-dasharray:2.0,2.0;" x1="609.6343" x2="965.1006" y1="495.7891" y2="495.7891"/><text fill="#000000" font-family="sans-serif" font-size="13" lengthAdjust="spacing" textLength="153.2134" x="621.6343" y="490.9326">Resultado del caso de uso</text><polygon fill="#181818" points="344.5073,522.1406,334.5073,526.1406,344.5073,530.1406,340.5073,526.1406" style="stroke:#181818;stroke-width:1;"/><line style="stroke:#181818;stroke-width:1;stroke-dasharray:2.0,2.0;" x1="338.5073" x2="603.6343" y1="526.1406" y2="526.1406"/><text fill="#000000" font-family="sans-serif" font-size="13" lengthAdjust="spacing" textLength="181.3779" x="350.5073" y="521.2842">200 OK (PublicacionResponse)</text><polygon fill="#181818" points="57.5239,552.4922,47.5239,556.4922,57.5239,560.4922,53.5239,556.4922" style="stroke:#181818;stroke-width:1;"/><line style="stroke:#181818;stroke-width:1;stroke-dasharray:2.0,2.0;" x1="51.5239" x2="332.5073" y1="556.4922" y2="556.4922"/><text fill="#000000" font-family="sans-serif" font-size="13" lengthAdjust="spacing" textLength="262.9834" x="63.5239" y="551.6357">Presenta MIS_PUBLICACIONES_ABIERTAS</text><!--SRC=[TPF1Rjim38RlVWgYfsHhrc970rrXnyuMh6s2kCCk1G96OX9YhcH8ye3iwKVPQMSFxIMmgFydgOzCu50J58m7Xyy8ci2JQiaeHfW1xXoxU_RhTbUpGiNMa4zG1UjWRgtJR51RbpJe0Yjkq0IuUDEqnWCzcSc6n3oz0FImSDO4Cdfi7fZcSkziNPCJOzKuDWV8hJtRiuR7pegyc2folrbH9-aZx-OVIxll_xIsPZdXmDE9OroTtisxeSPw5aIdJXsFIQ8nu0uzmKKUVuLpWS7wJb7aIJAW2RClht1Ig68n3lZsB2RJv4KQRG8bXQ_b8rnXmrVDK7drJBTxheNe3Nm4PUqlfaJqqTQ3Ii7k916v_fYfq68zmJOSoKGCGOBJfB-4sKkrh5i6KVKYRVybxP2cKBCFw2PzyKlejcUQ61i871-E0Up-Z3GLMBwnnkEEQzQeWULfpc0AM2iqYjREDcoJS-vO9k9DOSz6vwUibTIPqHiAx53Zocbo-Mb1weZzS_XFXwCWhoPT8vzONqBVsZI9kMBE8XVkvLqvVuGFiDYixc64yidy_5PkolXewxQiuGPk8Niem9thIc2FjPU5Zr5bMVvEchPz6RaChgMao3k8VV-ZeK8JNud-tC-GvTkwLnmlGn6CRHra6B9eDIZqyGDQVnxEQC4-Nr_3wZjCHXlSJO66ooMUmOvA9uwyZ1pXVbbjrp_ok-KycozN3sMrpV9bkNdCghy0]--></g></svg>