<svg xmlns="http://www.w3.org/2000/svg" xmlns:xlink="http://www.w3.org/1999/xlink" contentStyleType="text/css" data-diagram-type="DESCRIPTION" height="595px" preserveAspectRatio="none" style="width:1326px;height:595px;background:#FFFFFF;" version="1.1" viewBox="0 0 1326 595" width="1326px" zoomAndPan="magnify"><?plantuml 1.2026.6?><defs/><g><!--cluster abrirMiPublicacion--><g class="cluster" data-qualified-name="abrirMiPublicacion" data-source-line="4" id="ent0002"><path d="M273,6 L408.5723,6 A3.75,3.75 0 0 1 411.0723,8.5 L418.0723,29.6094 L1062,29.6094 A2.5,2.5 0 0 1 1064.5,32.1094 L1064.5,577.5 A2.5,2.5 0 0 1 1062,580 L273,580 A2.5,2.5 0 0 1 270.5,577.5 L270.5,8.5 A2.5,2.5 0 0 1 273,6" fill="none" style="stroke:#000000;stroke-width:1.5;"/><line style="stroke:#000000;stroke-width:1.5;" x1="270.5" x2="418.0723" y1="29.6094" y2="29.6094"/><text fill="#000000" font-family="sans-serif" font-size="14" font-weight="700" lengthAdjust="spacing" textLength="134.5723" x="274.5" y="22.5332">abrirMiPublicacion()</text></g><!--entity View--><g class="entity" data-qualified-name="abrirMiPublicacion.View" data-source-line="5" id="ent0003"><rect fill="#629EF9" height="37.6094" rx="2.5" ry="2.5" style="stroke:#181818;stroke-width:0.5;" width="164.7236" x="618" y="42"/><text fill="#000000" font-family="sans-serif" font-size="14" lengthAdjust="spacing" textLength="144.7236" x="628" y="66.5332">abrirMiPublicacionView</text></g><!--entity PublicacionController--><g class="entity" data-qualified-name="abrirMiPublicacion.PublicacionController" data-source-line="6" id="ent0004"><rect fill="#B5BD68" height="37.6094" rx="2.5" ry="2.5" style="stroke:#181818;stroke-width:0.5;" width="152.2891" x="624.5" y="158"/><text fill="#000000" font-family="sans-serif" font-size="14" lengthAdjust="spacing" textLength="132.2891" x="634.5" y="182.5332">PublicacionController</text></g><!--entity PublicacionService--><g class="entity" data-qualified-name="abrirMiPublicacion.PublicacionService" data-source-line="7" id="ent0005"><rect fill="#B5BD68" height="37.6094" rx="2.5" ry="2.5" style="stroke:#181818;stroke-width:0.5;" width="138.2822" x="547.5" y="274"/><text fill="#000000" font-family="sans-serif" font-size="14" lengthAdjust="spacing" textLength="118.2822" x="557.5" y="298.5332">PublicacionService</text></g><!--entity SesionService--><g class="entity" data-qualified-name="abrirMiPublicacion.SesionService" data-source-line="8" id="ent0006"><rect fill="#B5BD68" height="37.6094" rx="2.5" ry="2.5" style="stroke:#181818;stroke-width:0.5;" width="109.4893" x="721" y="274"/><text fill="#000000" font-family="sans-serif" font-size="14" lengthAdjust="spacing" textLength="89.4893" x="731" y="298.5332">SesionService</text></g><!--entity PoliticaPublicacion--><g class="entity" data-qualified-name="abrirMiPublicacion.PoliticaPublicacion" data-source-line="9" id="ent0007"><rect fill="#B5BD68" height="37.6094" rx="2.5" ry="2.5" style="stroke:#181818;stroke-width:0.5;" width="136.7305" x="287" y="408.5"/><text fill="#000000" font-family="sans-serif" font-size="14" lengthAdjust="spacing" textLength="116.7305" x="297" y="433.0332">PoliticaPublicacion</text></g><!--entity PublicacionRepository--><g class="entity" data-qualified-name="abrirMiPublicacion.PublicacionRepository" data-source-line="10" id="ent0008"><rect fill="#F2AC4E" height="37.6094" rx="2.5" ry="2.5" style="stroke:#181818;stroke-width:0.5;" width="158.5166" x="459" y="408.5"/><text fill="#000000" font-family="sans-serif" font-size="14" lengthAdjust="spacing" textLength="138.5166" x="469" y="433.0332">PublicacionRepository</text></g><!--entity Publicacion--><g class="entity" data-qualified-name="abrirMiPublicacion.Publicacion" data-source-line="11" id="ent0009"><rect fill="#F2AC4E" height="37.6094" rx="2.5" ry="2.5" style="stroke:#181818;stroke-width:0.5;" width="91.5996" x="492.5" y="526"/><text fill="#000000" font-family="sans-serif" font-size="14" lengthAdjust="spacing" textLength="71.5996" x="502.5" y="550.5332">Publicacion</text></g><!--entity RespuestaRepository--><g class="entity" data-qualified-name="abrirMiPublicacion.RespuestaRepository" data-source-line="12" id="ent0010"><rect fill="#F2AC4E" height="37.6094" rx="2.5" ry="2.5" style="stroke:#181818;stroke-width:0.5;" width="153.8477" x="653.5" y="408.5"/><text fill="#000000" font-family="sans-serif" font-size="14" lengthAdjust="spacing" textLength="133.8477" x="663.5" y="433.0332">RespuestaRepository</text></g><!--entity ArchivoPublicacionRepository--><g class="entity" data-qualified-name="abrirMiPublicacion.ArchivoPublicacionRepository" data-source-line="13" id="ent0011"><rect fill="#F2AC4E" height="37.6094" rx="2.5" ry="2.5" style="stroke:#181818;stroke-width:0.5;" width="205.1992" x="843" y="408.5"/><text fill="#000000" font-family="sans-serif" font-size="14" lengthAdjust="spacing" textLength="185.1992" x="853" y="433.0332">ArchivoPublicacionRepository</text></g><!--entity Respuesta--><g class="entity" data-qualified-name="abrirMiPublicacion.Respuesta" data-source-line="14" id="ent0012"><rect fill="#F2AC4E" height="37.6094" rx="2.5" ry="2.5" style="stroke:#181818;stroke-width:0.5;" width="86.9307" x="687" y="526"/><text fill="#000000" font-family="sans-serif" font-size="14" lengthAdjust="spacing" textLength="66.9307" x="697" y="550.5332">Respuesta</text></g><!--entity ArchivoPublicacion--><g class="entity" data-qualified-name="abrirMiPublicacion.ArchivoPublicacion" data-source-line="15" id="ent0013"><rect fill="#F2AC4E" height="37.6094" rx="2.5" ry="2.5" style="stroke:#181818;stroke-width:0.5;" width="138.2822" x="876.5" y="526"/><text fill="#000000" font-family="sans-serif" font-size="14" lengthAdjust="spacing" textLength="118.2822" x="886.5" y="550.5332">ArchivoPublicacion</text></g><!--entity EstadoEntrada--><g class="entity" data-qualified-name="EstadoEntrada" data-source-line="3" id="ent0001"><rect fill="#CDEBA5" height="37.6094" rx="2.5" ry="2.5" style="stroke:#181818;stroke-width:0.5;" width="247.1787" x="7" y="42"/><text fill="#000000" font-family="sans-serif" font-size="14" lengthAdjust="spacing" textLength="227.1787" x="17" y="66.5332">:MIS_PUBLICACIONES_ABIERTAS</text></g><!--entity EstadoSalida--><g class="entity" data-qualified-name="EstadoSalida" data-source-line="17" id="ent0014"><rect fill="#CDEBA5" height="37.6094" rx="2.5" ry="2.5" style="stroke:#181818;stroke-width:0.5;" width="209.8271" x="1080.5" y="158"/><text fill="#000000" font-family="sans-serif" font-size="14" lengthAdjust="spacing" textLength="189.8271" x="1090.5" y="182.5332">:MI_PUBLICACION_ABIERTA</text></g><g class="entity" data-qualified-name="GMN27" data-source-line="34" id="ent0028"><path d="M1083.5,390 L1083.5,465.4063 L1311.1226,465.4063 L1311.1226,400 L1301.1226,390 L1083.5,390" fill="#FEFFDD" style="stroke:#181818;stroke-width:0.5;"/><path d="M1301.1226,390 L1301.1226,400 L1311.1226,400 L1301.1226,390" fill="#FEFFDD" style="stroke:#181818;stroke-width:1;"/><text fill="#000000" font-family="sans-serif" font-size="13" lengthAdjust="spacing" textLength="134.4243" x="1089.5" y="408.4951">Responsabilidad unica:</text><text fill="#000000" font-family="sans-serif" font-size="13" lengthAdjust="spacing" textLength="191.4707" x="1089.5" y="424.8467">autoriza sin persistir ni presentar.</text><text fill="#000000" font-family="sans-serif" font-size="13" lengthAdjust="spacing" textLength="206.6226" x="1089.5" y="441.1982">Permite ampliar reglas sin modificar</text><text fill="#000000" font-family="sans-serif" font-size="13" lengthAdjust="spacing" textLength="185.7324" x="1089.5" y="457.5498">la coordinacion del caso de uso.</text></g><!--link EstadoEntrada to View--><g class="link" data-entity-1="ent0001" data-entity-2="ent0003" data-link-type="dependency" data-source-line="19" id="lnk15"><path d="M254.18,61 C364.36,61 517.5,61 612.97,61" fill="none" id="EstadoEntrada-to-View" style="stroke:#181818;stroke-width:1;"/><polygon fill="#181818" points="617.97,61,608.97,57,612.97,61,608.97,65,617.97,61" style="stroke:#181818;stroke-width:1;stroke-linejoin:miter;stroke-miterlimit:10;"/><text fill="#000000" font-family="sans-serif" font-size="13" lengthAdjust="spacing" textLength="114.8672" x="379" y="54.4951">abrirMiPublicacion()</text></g><!--link View to PublicacionController--><g class="link" data-entity-1="ent0003" data-entity-2="ent0004" data-link-type="dependency" data-source-line="20" id="lnk16"><path d="M700.5,80.06 C700.5,101.28 700.5,131.3 700.5,152.64" fill="none" id="View-to-PublicacionController" style="stroke:#181818;stroke-width:1;"/><polygon fill="#181818" points="700.5,157.64,704.5,148.64,700.5,152.64,696.5,148.64,700.5,157.64" style="stroke:#181818;stroke-width:1;stroke-linejoin:miter;stroke-miterlimit:10;"/><text fill="#000000" font-family="sans-serif" font-size="13" lengthAdjust="spacing" textLength="197.958" x="701.5" y="124.4951">abrirMiPublicacion(solicitud, actor)</text></g><!--link PublicacionController to PublicacionService--><g class="link" data-entity-1="ent0004" data-entity-2="ent0005" data-link-type="dependency" data-source-line="21" id="lnk17"><path d="M672.15,196.15 C650.91,209.74 625.5,226 625.5,226 C625.5,226 622.2941,249.4656 619.6341,269.0156" fill="none" id="PublicacionController-to-PublicacionService" style="stroke:#181818;stroke-width:1;"/><polygon fill="#181818" points="618.96,273.97,624.1369,265.5914,619.6341,269.0156,616.2099,264.5129,618.96,273.97" style="stroke:#181818;stroke-width:1;stroke-linejoin:miter;stroke-miterlimit:10;"/><text fill="#000000" font-family="sans-serif" font-size="13" lengthAdjust="spacing" textLength="98.9917" x="626.5" y="240.4951">obtener(id, actor)</text></g><!--link PublicacionController to SesionService--><g class="link" data-entity-1="ent0004" data-entity-2="ent0006" data-link-type="dependency" data-source-line="22" id="lnk18"><path d="M712.38,196.06 C726.34,217.28 746.6318,248.123 760.6718,269.463" fill="none" id="PublicacionController-to-SesionService" style="stroke:#181818;stroke-width:1;"/><polygon fill="#181818" points="763.42,273.64,761.815,263.9228,760.6718,269.463,755.1317,268.3199,763.42,273.64" style="stroke:#181818;stroke-width:1;stroke-linejoin:miter;stroke-miterlimit:10;"/><text fill="#000000" font-family="sans-serif" font-size="13" lengthAdjust="spacing" textLength="209.5806" x="742.5" y="240.4951">obtenerSesionActual(authentication)</text></g><!--link PublicacionService to PublicacionRepository--><g class="link" data-entity-1="ent0005" data-entity-2="ent0008" data-link-type="dependency" data-source-line="23" id="lnk19"><path d="M588.52,312.15 C567.57,325.74 542.5,342 542.5,342 C542.5,342 540.7752,378.3155 539.6052,403.1655" fill="none" id="PublicacionService-to-PublicacionRepository" style="stroke:#181818;stroke-width:1;"/><polygon fill="#181818" points="539.37,408.16,543.7888,399.3581,539.6052,403.1655,535.7977,398.9818,539.37,408.16" style="stroke:#181818;stroke-width:1;stroke-linejoin:miter;stroke-miterlimit:10;"/><text fill="#000000" font-family="sans-serif" font-size="13" lengthAdjust="spacing" textLength="129.3398" x="543.5" y="356.4951">obtenerActivaPorId(id)</text></g><!--link PublicacionService to PoliticaPublicacion--><g class="link" data-entity-1="ent0005" data-entity-2="ent0007" data-link-type="dependency" data-source-line="24" id="lnk20"><path d="M547.39,306.42 C468.28,320.65 349.5,342 349.5,342 C349.5,342 349.5,360 349.5,360 C349.5,360 351.6298,383.6603 353.4098,403.3503" fill="none" id="PublicacionService-to-PoliticaPublicacion" style="stroke:#181818;stroke-width:1;"/><polygon fill="#181818" points="353.86,408.33,357.0334,399.0064,353.4098,403.3503,349.0659,399.7267,353.86,408.33" style="stroke:#181818;stroke-width:1;stroke-linejoin:miter;stroke-miterlimit:10;"/><text fill="#000000" font-family="sans-serif" font-size="13" lengthAdjust="spacing" textLength="182.0825" x="350.5" y="356.4951">exigirAutoria(actor, publicacion)</text></g><!--link PublicacionRepository to Publicacion--><g class="link" data-entity-1="ent0008" data-entity-2="ent0009" data-link-type="association" data-source-line="26" id="lnk21"><path d="M538.5,446.55 C538.5,468.12 538.5,504.02 538.5,525.7" fill="none" id="PublicacionRepository-Publicacion" style="stroke:#181818;stroke-width:1;"/></g><!--link PublicacionService to RespuestaRepository--><g class="link" data-entity-1="ent0005" data-entity-2="ent0010" data-link-type="dependency" data-source-line="27" id="lnk22"><path d="M639.56,312.15 C656.84,325.74 677.5,342 677.5,342 C677.5,342 700.7528,379.0745 716.3428,403.9245" fill="none" id="PublicacionService-to-RespuestaRepository" style="stroke:#181818;stroke-width:1;"/><polygon fill="#181818" points="719,408.16,717.6054,398.4104,716.3428,403.9245,710.8287,402.6619,719,408.16" style="stroke:#181818;stroke-width:1;stroke-linejoin:miter;stroke-miterlimit:10;"/><text fill="#000000" font-family="sans-serif" font-size="13" lengthAdjust="spacing" textLength="144.5107" x="688.5" y="356.4951">buscarPorPublicacion(id)</text></g><!--link PublicacionService to ArchivoPublicacionRepository--><g class="link" data-entity-1="ent0005" data-entity-2="ent0011" data-link-type="dependency" data-source-line="28" id="lnk23"><path d="M685.54,308.73 C751.68,322.84 841.5,342 841.5,342 C841.5,342 888.7494,380.387 919.3094,405.217" fill="none" id="PublicacionService-to-ArchivoPublicacionRepository" style="stroke:#181818;stroke-width:1;"/><polygon fill="#181818" points="923.19,408.37,918.7273,399.5902,919.3094,405.217,913.6826,405.7991,923.19,408.37" style="stroke:#181818;stroke-width:1;stroke-linejoin:miter;stroke-miterlimit:10;"/><text fill="#000000" font-family="sans-serif" font-size="13" lengthAdjust="spacing" textLength="144.5107" x="861.5" y="356.4951">buscarPorPublicacion(id)</text></g><!--link RespuestaRepository to Respuesta--><g class="link" data-entity-1="ent0010" data-entity-2="ent0012" data-link-type="association" data-source-line="29" id="lnk24"><path d="M730.5,446.55 C730.5,468.12 730.5,504.02 730.5,525.7" fill="none" id="RespuestaRepository-Respuesta" style="stroke:#181818;stroke-width:1;"/></g><!--link ArchivoPublicacionRepository to ArchivoPublicacion--><g class="link" data-entity-1="ent0011" data-entity-2="ent0013" data-link-type="association" data-source-line="30" id="lnk25"><path d="M945.5,446.55 C945.5,468.12 945.5,504.02 945.5,525.7" fill="none" id="ArchivoPublicacionRepository-ArchivoPublicacion" style="stroke:#181818;stroke-width:1;"/></g><!--link View to EstadoSalida--><g class="link" data-entity-1="ent0003" data-entity-2="ent0014" data-link-type="dependency" data-source-line="31" id="lnk26"><path d="M778.17,80.01 C836.91,93.63 907.5,110 907.5,110 C907.5,110 1022.3553,137.2647 1104.6753,156.8147" fill="none" id="View-to-EstadoSalida" style="stroke:#181818;stroke-width:1;stroke-dasharray:7,7;"/><polygon fill="#181818" points="1109.54,157.97,1101.7078,151.9987,1104.6753,156.8147,1099.8593,159.7822,1109.54,157.97" style="stroke:#181818;stroke-width:1;stroke-linejoin:miter;stroke-miterlimit:10;"/><text fill="#000000" font-family="sans-serif" font-size="13" lengthAdjust="spacing" textLength="130.7935" x="982.5" y="124.4951">continuarNavegacion()</text></g><!--link PoliticaPublicacion to GMN27--><g class="link" data-entity-1="ent0007" data-entity-2="ent0028" data-link-type="association" data-source-line="34" id="lnk29"><path d="M381.35,408.39 C412.01,385.73 459,351 459,351 C459,351 1047,351 1047,351 C1047,351 1085.51,370.58 1123.57,389.92" fill="none" id="PoliticaPublicacion-GMN27" style="stroke:#181818;stroke-width:1;stroke-dasharray:7,7;"/></g><?plantuml-src bPH1Rzf048Nl-oj6z09Iu10rKUD394CT2Qb9KMXxZSRsn8oox5gpQrfQzRztJHAmYO6Karc_UVEizzdkYKs9WalGRCYlIuBIwdNzHocXpACfDC67oUTa75z0BxgTpXzctyTVffDuClrwbymVul4qkVyMptk03XBdCRU9yO8vgXAp9om8C1MMMvvLgUOCCxQcrlRU7lS7FVYZ8FmQko_FhvARgoxv3wQVcxNrnVvOUf7cbv-W8P_OaCjgJN9QEoTPSKO7X7Do9pKpgza7juRfllBcF9vyJ9fhxwcqZhsLzMdj0SKzkRAYqCD9hrYo1Q_i_wpVch_RKlqzm54JerU86WpDKND0IBM8Wg4ChpTjHz15ZwflmJ0FeixUEwTSA2fZN-LdW5buze7gd8LXs_Mb_GXiwicGzFaz1YrojhFFft7cAzHzhFo2J8sE3uSjivUv_IYxshQEmOjNEBCopKEmmoPl8Os0Vd714bV1aB6_UQGpA7UAWLATouDZYyy3Epi0ZI2jN8OIyZQREHBy6Bj7t3fsrwbtM1_phPKTW6-O6uskM-16a8NYsLGeTxYYuXLGPQmd42uM7knZvqUY3cEDmvHhenmg4-v42ZTz_4PmRA0aSUmy2nY6KiW5O516QaQovB00bwLcbF265ZgyKlN8qkRy69n4QGpXhEHidh_5EMd8qDbm0PMp8qKcXphdFm00?></g></svg>