<svg xmlns="http://www.w3.org/2000/svg" xmlns:xlink="http://www.w3.org/1999/xlink" contentStyleType="text/css" data-diagram-type="DESCRIPTION" height="442px" preserveAspectRatio="none" style="width:1800px;height:442px;background:#FFFFFF;" version="1.1" viewBox="0 0 1800 442" width="1800px" zoomAndPan="magnify"><?plantuml 1.2026.4?><defs/><g><!--cluster abrirMiPublicacion--><g class="cluster" data-qualified-name="abrirMiPublicacion" data-source-line="4" id="ent0002"><path d="M273,6 L408.5723,6 A3.75,3.75 0 0 1 411.0723,8.5 L418.0723,29.6094 L755,29.6094 A2.5,2.5 0 0 1 757.5,32.1094 L757.5,424.5 A2.5,2.5 0 0 1 755,427 L273,427 A2.5,2.5 0 0 1 270.5,424.5 L270.5,8.5 A2.5,2.5 0 0 1 273,6" fill="none" style="stroke:#000000;stroke-width:1.5;"/><line style="stroke:#000000;stroke-width:1.5;" x1="270.5" x2="418.0723" y1="29.6094" y2="29.6094"/><text fill="#000000" font-family="sans-serif" font-size="14" font-weight="700" lengthAdjust="spacing" textLength="134.5723" x="274.5" y="22.5332">abrirMiPublicacion()</text></g><!--entity DetallePublicacionView--><g class="entity" data-qualified-name="abrirMiPublicacion.DetallePublicacionView" data-source-line="5" id="ent0003"><rect fill="#629EF9" height="37.6094" rx="2.5" ry="2.5" style="stroke:#181818;stroke-width:0.5;" width="165.5234" x="575.5" y="42"/><text fill="#000000" font-family="sans-serif" font-size="14" lengthAdjust="spacing" textLength="145.5234" x="585.5" y="66.5332">DetallePublicacionView</text></g><!--entity PublicacionController--><g class="entity" data-qualified-name="abrirMiPublicacion.PublicacionController" data-source-line="6" id="ent0004"><rect fill="#B5BD68" height="37.6094" rx="2.5" ry="2.5" style="stroke:#181818;stroke-width:0.5;" width="152.2891" x="333.5" y="158"/><text fill="#000000" font-family="sans-serif" font-size="14" lengthAdjust="spacing" textLength="132.2891" x="343.5" y="182.5332">PublicacionController</text></g><!--entity PublicacionRepository--><g class="entity" data-qualified-name="abrirMiPublicacion.PublicacionRepository" data-source-line="7" id="ent0005"><rect fill="#F2AC4E" height="37.6094" rx="2.5" ry="2.5" style="stroke:#181818;stroke-width:0.5;" width="158.5166" x="343" y="274"/><text fill="#000000" font-family="sans-serif" font-size="14" lengthAdjust="spacing" textLength="138.5166" x="353" y="298.5332">PublicacionRepository</text></g><!--entity Publicacion--><g class="entity" data-qualified-name="abrirMiPublicacion.Publicacion" data-source-line="8" id="ent0006"><rect fill="#F2AC4E" height="37.6094" rx="2.5" ry="2.5" style="stroke:#181818;stroke-width:0.5;" width="91.5996" x="376.5" y="373"/><text fill="#000000" font-family="sans-serif" font-size="14" lengthAdjust="spacing" textLength="71.5996" x="386.5" y="397.5332">Publicacion</text></g><!--entity EstadoEntrada--><g class="entity" data-qualified-name="EstadoEntrada" data-source-line="3" id="ent0001"><rect fill="#CDEBA5" height="37.6094" rx="2.5" ry="2.5" style="stroke:#181818;stroke-width:0.5;" width="247.1787" x="7" y="42"/><text fill="#000000" font-family="sans-serif" font-size="14" lengthAdjust="spacing" textLength="227.1787" x="17" y="66.5332">:MIS_PUBLICACIONES_ABIERTAS</text></g><!--entity EstadoSalida--><g class="entity" data-qualified-name="EstadoSalida" data-source-line="11" id="ent0007"><rect fill="#CDEBA5" height="37.6094" rx="2.5" ry="2.5" style="stroke:#181818;stroke-width:0.5;" width="209.8271" x="773.5" y="158"/><text fill="#000000" font-family="sans-serif" font-size="14" lengthAdjust="spacing" textLength="189.8271" x="783.5" y="182.5332">:MI_PUBLICACION_ABIERTA</text></g><!--entity EditarPublicacion--><g class="entity" data-qualified-name="EditarPublicacion" data-source-line="12" id="ent0008"><rect fill="#CDEBA5" height="37.6094" rx="2.5" ry="2.5" style="stroke:#181818;stroke-width:0.5;" width="218.4473" x="1018.5" y="158"/><text fill="#000000" font-family="sans-serif" font-size="14" lengthAdjust="spacing" textLength="198.4473" x="1028.5" y="182.5332">:Collaboration EditarPublicacion</text></g><!--entity EliminarPublicacion--><g class="entity" data-qualified-name="EliminarPublicacion" data-source-line="13" id="ent0009"><rect fill="#CDEBA5" height="37.6094" rx="2.5" ry="2.5" style="stroke:#181818;stroke-width:0.5;" width="232.4404" x="1271.5" y="158"/><text fill="#000000" font-family="sans-serif" font-size="14" lengthAdjust="spacing" textLength="212.4404" x="1281.5" y="182.5332">:Collaboration EliminarPublicacion</text></g><!--entity AbrirMisPublicaciones--><g class="entity" data-qualified-name="AbrirMisPublicaciones" data-source-line="14" id="ent0010"><rect fill="#CDEBA5" height="37.6094" rx="2.5" ry="2.5" style="stroke:#181818;stroke-width:0.5;" width="247.9922" x="1538.5" y="158"/><text fill="#000000" font-family="sans-serif" font-size="14" lengthAdjust="spacing" textLength="227.9922" x="1548.5" y="182.5332">:Collaboration AbrirMisPublicaciones</text></g><!--link EstadoEntrada to DetallePublicacionView--><g class="link" data-entity-1="ent0001" data-entity-2="ent0003" data-link-type="dependency" data-source-line="16" id="lnk11"><path d="M254.29,61 C353.2,61 484.1,61 570.37,61" fill="none" id="EstadoEntrada-to-DetallePublicacionView" style="stroke:#181818;stroke-width:1;"/><polygon fill="#181818" points="575.37,61,566.37,57,570.37,61,566.37,65,575.37,61" style="stroke:#181818;stroke-width:1;stroke-linejoin:miter;stroke-miterlimit:10;"/><text fill="#000000" font-family="sans-serif" font-size="13" lengthAdjust="spacing" textLength="114.8672" x="357.75" y="54.4951">abrirMiPublicacion()</text></g><!--link DetallePublicacionView to PublicacionController--><g class="link" data-entity-1="ent0003" data-entity-2="ent0004" data-link-type="dependency" data-source-line="18" id="lnk12"><path d="M575.33,73.74 C474.67,87.95 318.5,110 318.5,110 C318.5,110 318.5,128 318.5,128 C318.5,128 345.1072,142.0379 370.9372,155.6579" fill="none" id="DetallePublicacionView-to-PublicacionController" style="stroke:#181818;stroke-width:1;"/><polygon fill="#181818" points="375.36,157.99,369.2646,150.2539,370.9372,155.6579,365.5333,157.3304,375.36,157.99" style="stroke:#181818;stroke-width:1;stroke-linejoin:miter;stroke-miterlimit:10;"/><text fill="#000000" font-family="sans-serif" font-size="13" lengthAdjust="spacing" textLength="129.3525" x="319.5" y="124.4951">obtenerPublicacion(id)</text></g><!--link DetallePublicacionView to PublicacionController--><g class="link" data-entity-1="ent0003" data-entity-2="ent0004" data-link-type="dependency" data-source-line="19" id="lnk13"><path d="M598.09,80.01 C552.41,93.63 497.5,110 497.5,110 C497.5,110 463.5991,135.4188 437.5491,154.9688" fill="none" id="DetallePublicacionView-to-PublicacionController-1" style="stroke:#181818;stroke-width:1;"/><polygon fill="#181818" points="433.55,157.97,443.1493,155.7671,437.5491,154.9688,438.3474,149.3685,433.55,157.97" style="stroke:#181818;stroke-width:1;stroke-linejoin:miter;stroke-miterlimit:10;"/><text fill="#000000" font-family="sans-serif" font-size="13" lengthAdjust="spacing" textLength="247.8442" x="498.5" y="124.4951">prepararAccionesDisponibles(investigador)</text></g><!--link PublicacionController to PublicacionRepository--><g class="link" data-entity-1="ent0004" data-entity-2="ent0005" data-link-type="dependency" data-source-line="20" id="lnk14"><path d="M383.41,196.15 C363.87,209.74 340.5,226 340.5,226 C340.5,226 340.5,244 340.5,244 C340.5,244 363.9647,257.7344 387.1847,271.3244" fill="none" id="PublicacionController-to-PublicacionRepository" style="stroke:#181818;stroke-width:1;"/><polygon fill="#181818" points="391.5,273.85,385.753,265.8517,387.1847,271.3244,381.7121,272.7561,391.5,273.85" style="stroke:#181818;stroke-width:1;stroke-linejoin:miter;stroke-miterlimit:10;"/><text fill="#000000" font-family="sans-serif" font-size="13" lengthAdjust="spacing" textLength="93.939" x="341.5" y="240.4951">obtenerPorId(id)</text></g><!--link PublicacionController to PublicacionRepository--><g class="link" data-entity-1="ent0004" data-entity-2="ent0005" data-link-type="dependency" data-source-line="21" id="lnk15"><path d="M420.84,196.15 C429.34,209.74 439.5,226 439.5,226 C439.5,226 439.5,244 439.5,244 C439.5,244 435.4083,255.5465 430.5983,269.1365" fill="none" id="PublicacionController-to-PublicacionRepository-1" style="stroke:#181818;stroke-width:1;"/><polygon fill="#181818" points="428.93,273.85,435.7037,266.7004,430.5983,269.1365,428.1621,264.0311,428.93,273.85" style="stroke:#181818;stroke-width:1;stroke-linejoin:miter;stroke-miterlimit:10;"/><text fill="#000000" font-family="sans-serif" font-size="13" lengthAdjust="spacing" textLength="137.2427" x="440.5" y="240.4951">verificarPermisos(actor)</text></g><!--link PublicacionRepository to Publicacion--><g class="link" data-entity-1="ent0005" data-entity-2="ent0006" data-link-type="association" data-source-line="22" id="lnk16"><path d="M422.5,312.24 C422.5,329.59 422.5,355.52 422.5,372.84" fill="none" id="PublicacionRepository-Publicacion" style="stroke:#181818;stroke-width:1;"/></g><!--link DetallePublicacionView to EstadoSalida--><g class="link" data-entity-1="ent0003" data-entity-2="ent0007" data-link-type="dependency" data-source-line="23" id="lnk17"><path d="M693.36,80.06 C734.43,101.35 797.8407,134.1995 839.0007,155.5295" fill="none" id="DetallePublicacionView-to-EstadoSalida" style="stroke:#181818;stroke-width:1;stroke-dasharray:7,7;"/><polygon fill="#181818" points="843.44,157.83,837.2897,150.1376,839.0007,155.5295,833.6088,157.2405,843.44,157.83" style="stroke:#181818;stroke-width:1;stroke-linejoin:miter;stroke-miterlimit:10;"/><text fill="#000000" font-family="sans-serif" font-size="13" lengthAdjust="spacing" textLength="130.7935" x="782.5" y="124.4951">continuarNavegacion()</text></g><!--link DetallePublicacionView to EditarPublicacion--><g class="link" data-entity-1="ent0003" data-entity-2="ent0008" data-link-type="dependency" data-source-line="24" id="lnk18"><path d="M741.71,77.19 C818.77,91.25 921.5,110 921.5,110 C921.5,110 1005.4586,136.8938 1066.4486,156.4438" fill="none" id="DetallePublicacionView-to-EditarPublicacion" style="stroke:#181818;stroke-width:1;stroke-dasharray:7,7;"/><polygon fill="#181818" points="1071.21,157.97,1063.8605,151.4137,1066.4486,156.4438,1061.4186,159.0319,1071.21,157.97" style="stroke:#181818;stroke-width:1;stroke-linejoin:miter;stroke-miterlimit:10;"/><text fill="#000000" font-family="sans-serif" font-size="13" lengthAdjust="spacing" textLength="107.6626" x="977.5" y="124.4951">editarPublicacion()</text></g><!--link DetallePublicacionView to EliminarPublicacion--><g class="link" data-entity-1="ent0003" data-entity-2="ent0009" data-link-type="dependency" data-source-line="25" id="lnk19"><path d="M741.6,71.17 C867.86,85.1 1093.5,110 1093.5,110 C1093.5,110 1215.2415,137.3243 1302.2815,156.8743" fill="none" id="DetallePublicacionView-to-EliminarPublicacion" style="stroke:#181818;stroke-width:1;stroke-dasharray:7,7;"/><polygon fill="#181818" points="1307.16,157.97,1299.2554,152.0949,1302.2815,156.8743,1297.5022,159.9004,1307.16,157.97" style="stroke:#181818;stroke-width:1;stroke-linejoin:miter;stroke-miterlimit:10;"/><text fill="#000000" font-family="sans-serif" font-size="13" lengthAdjust="spacing" textLength="120.6563" x="1172.5" y="124.4951">eliminarPublicacion()</text></g><!--link DetallePublicacionView to AbrirMisPublicaciones--><g class="link" data-entity-1="ent0003" data-entity-2="ent0010" data-link-type="dependency" data-source-line="26" id="lnk20"><path d="M741.57,68.2 C915.4,81.18 1301.5,110 1301.5,110 C1301.5,110 1452.0516,137.5204 1558.9416,157.0704" fill="none" id="DetallePublicacionView-to-AbrirMisPublicaciones" style="stroke:#181818;stroke-width:1;stroke-dasharray:7,7;"/><polygon fill="#181818" points="1563.86,157.97,1555.7265,152.416,1558.9416,157.0704,1554.2872,160.2855,1563.86,157.97" style="stroke:#181818;stroke-width:1;stroke-linejoin:miter;stroke-miterlimit:10;"/><text fill="#000000" font-family="sans-serif" font-size="13" lengthAdjust="spacing" textLength="135.0972" x="1398.5" y="124.4951">abrirMisPublicaciones()</text></g><?plantuml-src bPD1J-Cm48Nl_XMZxgKzj0S4QCa1AKs356bXAxfmHPDag4QuTZGsNLM8_xuk5THD4s1po-JDv_6R5_V4fa715MWsv3SDGMFrPlkYb53bqImrmOziba_JCnWaryNYONut_LLaQLRyliaN3-cqo6__f8i1e8FSUQnjRhnWZQh1wWcN15WAopNFdqlD5LPipLOxE2uFHmDuKH2UwEppaulywW9cv55hYjJtJ7_RulAihCz_GgJAR9Z6XavfQwzEqkmqZxMtr5Z7tihcQwrwxNCeDkZTdiYT1MeEvdJrPc5EBAsWttgKr-nHeYDta7RrEoJDApOThEFwDsZfRcykwYBtnklyejH1Ac0iuykURIRGbGcbkjKmhWEfSzK9sDAJeVXcGwv7lQH-K2Eq_KCahNRNcR5hhE5IankoMPFpl0otav7g1BJH-uZjPxHIr6_J_JTXJSAFeIvpaXKxwuPO-TOiUtqW7IIunup9vF8WgWbKOHWspoWtkARb-re-Qs-7D05gbxuW74SpC8wBdrCw0_cHiiDo8Fq3?></g></svg>