<svg xmlns="http://www.w3.org/2000/svg" xmlns:xlink="http://www.w3.org/1999/xlink" contentStyleType="text/css" data-diagram-type="STATE" height="851px" preserveAspectRatio="none" style="width:749px;height:851px;background:#FFFFFF;" version="1.1" viewBox="0 0 749 851" width="749px" zoomAndPan="magnify"><?plantuml 1.2026.6?><defs/><g><g class="entity" data-qualified-name="in1" data-source-line="3" id="ent0001"><rect fill="#F1F1F1" height="50" rx="12.5" ry="12.5" style="stroke:#181818;stroke-width:0.5;" width="243.2891" x="210.5" y="7"/><line style="stroke:#181818;stroke-width:0.5;" x1="210.5" x2="453.7891" y1="34.6094" y2="34.6094"/><text fill="#000000" font-family="sans-serif" font-size="14" lengthAdjust="spacing" textLength="223.2891" x="220.5" y="26.5332">MIS_PUBLICACIONES_ABIERTAS</text></g><g class="entity" data-qualified-name="crearPublicacion" data-source-line="6" id="ent0002"><path d="M67,118 L597,118 A12.5,12.5 0 0 1 609.5,130.5 L609.5,145.6094 L54.5,145.6094 L54.5,130.5 A12.5,12.5 0 0 1 67,118" fill="#F1F1F1"/><rect fill="none" height="572.6094" rx="12.5" ry="12.5" style="stroke:#181818;stroke-width:0.5;" width="555" x="54.5" y="118"/><line style="stroke:#181818;stroke-width:0.5;" x1="54.5" x2="609.5" y1="145.6094" y2="145.6094"/><text fill="#000000" font-family="sans-serif" font-size="14" lengthAdjust="spacing" textLength="112.8203" x="275.5898" y="137.5332">crearPublicacion()</text><g class="entity" data-qualified-name="crearPublicacion.SolicitandoDatos" data-source-line="8" id="ent0003"><rect fill="#F1F1F1" height="50" rx="12.5" ry="12.5" style="stroke:#181818;stroke-width:0.5;" width="50" x="66.5" y="248.6094"/><line style="stroke:#181818;stroke-width:0.5;" x1="66.5" x2="116.5" y1="276.2188" y2="276.2188"/><text fill="#000000" font-family="sans-serif" font-size="14" lengthAdjust="spacing" textLength="3.8896" x="89.5552" y="268.1426">&#160;</text></g><g class="entity" data-qualified-name="crearPublicacion.CreandoPublicacion" data-source-line="9" id="ent0004"><rect fill="#F1F1F1" height="50" rx="12.5" ry="12.5" style="stroke:#181818;stroke-width:0.5;" width="50" x="66.5" y="517.6094"/><line style="stroke:#181818;stroke-width:0.5;" x1="66.5" x2="116.5" y1="545.2188" y2="545.2188"/><text fill="#000000" font-family="sans-serif" font-size="14" lengthAdjust="spacing" textLength="3.8896" x="89.5552" y="537.1426">&#160;</text></g><g class="start_entity" data-qualified-name="crearPublicacion..start.crearPublicacion" data-source-line="11" id="ent0006"><ellipse cx="91.5" cy="166.6094" fill="#222222" rx="10" ry="10" style="stroke:#222222;stroke-width:1;"/></g><g class="end_entity" data-qualified-name="crearPublicacion..end.crearPublicacion" data-source-line="30" id="ent0009"><ellipse cx="91.5" cy="666.6094" fill="none" rx="11" ry="11" style="stroke:#222222;stroke-width:1;"/><ellipse cx="91.5" cy="666.6094" fill="#222222" rx="6" ry="6" style="stroke:#222222;stroke-width:1;"/></g><!--link *start*crearPublicacion to SolicitandoDatos--><g class="link" data-entity-1="ent0006" data-entity-2="ent0003" data-link-type="dependency" data-source-line="11" id="lnk7"><path d="M91.5,176.9294 C91.5,192.7894 91.5,220.5194 91.5,243.2494" fill="none" id="*start*crearPublicacion-to-SolicitandoDatos" style="stroke:#008000;stroke-width:1;"/><polygon fill="#008000" points="91.5,248.2494,95.5,239.2494,91.5,243.2494,87.5,239.2494,91.5,248.2494" style="stroke:#008000;stroke-width:1;stroke-linejoin:miter;stroke-miterlimit:10;"/><path d="M96.5,199.6094 L96.5,225.6094 L364.5,225.6094 L364.5,209.6094 L354.5,199.6094 L96.5,199.6094" fill="#FEFFDD" style="stroke:#181818;stroke-width:0.5;"/><path d="M354.5,199.6094 L354.5,209.6094 L364.5,209.6094 L354.5,199.6094" fill="#FEFFDD" style="stroke:#181818;stroke-width:0.5;"/><text fill="#000000" font-family="sans-serif" font-size="13" font-weight="700" lengthAdjust="spacing" textLength="77.2954" x="102.5" y="218.1045">Investigador</text><text fill="#000000" font-family="sans-serif" font-size="13" lengthAdjust="spacing" textLength="166.9243" x="183.4072" y="218.1045">solicita crear una publicaci&#243;n</text></g><!--link SolicitandoDatos to CreandoPublicacion--><g class="link" data-entity-1="ent0003" data-entity-2="ent0004" data-link-type="dependency" data-source-line="16" id="lnk8"><path d="M91.5,298.7794 C91.5,349.4794 91.5,461.4794 91.5,512.3094" fill="none" id="SolicitandoDatos-to-CreandoPublicacion" style="stroke:#008000;stroke-width:1;"/><polygon fill="#008000" points="91.5,517.3094,95.5,508.3094,91.5,512.3094,87.5,508.3094,91.5,517.3094" style="stroke:#008000;stroke-width:1;stroke-linejoin:miter;stroke-miterlimit:10;"/><path d="M96.5,321.6094 L96.5,494.6094 L585.5,494.6094 L585.5,331.6094 L575.5,321.6094 L96.5,321.6094" fill="#FEFFDD" style="stroke:#181818;stroke-width:0.5;"/><path d="M575.5,321.6094 L575.5,331.6094 L585.5,331.6094 L575.5,321.6094" fill="#FEFFDD" style="stroke:#181818;stroke-width:0.5;"/><text fill="#000000" font-family="sans-serif" font-size="13" font-weight="700" lengthAdjust="spacing" textLength="49.8608" x="102.5" y="340.1045">Sistema</text><text fill="#000000" font-family="sans-serif" font-size="13" lengthAdjust="spacing" textLength="414.7686" x="155.9727" y="340.1045">presenta el formulario de creaci&#243;n de la publicaci&#243;n y permite introducir:</text><text fill="#000000" font-family="sans-serif" font-size="13" lengthAdjust="spacing" textLength="41.4058" x="102.5" y="356.4561">&#8226; T&#237;tulo</text><text fill="#000000" font-family="sans-serif" font-size="13" lengthAdjust="spacing" textLength="49.3657" x="102.5" y="372.8076">&#8226; Estado</text><text fill="#000000" font-family="sans-serif" font-size="13" lengthAdjust="spacing" textLength="67.4248" x="102.5" y="389.1592">&#8226; Visibilidad</text><text fill="#000000" font-family="sans-serif" font-size="13" lengthAdjust="spacing" textLength="76.8066" x="102.5" y="405.5107">&#8226; Descripci&#243;n</text><text fill="#000000" font-family="sans-serif" font-size="13" lengthAdjust="spacing" textLength="120.1802" x="102.5" y="421.8623">&#8226; Adjuntos (opcional)</text><text fill="#000000" font-family="sans-serif" font-size="13" lengthAdjust="spacing" textLength="3.6118" x="102.5" y="438.2139">&#160;</text><text fill="#000000" font-family="sans-serif" font-size="13" lengthAdjust="spacing" textLength="242.0488" x="102.5" y="454.5654">y permite solicitar las siguientes acciones:</text><text fill="#000000" font-family="sans-serif" font-size="13" lengthAdjust="spacing" textLength="110.0557" x="102.5" y="470.917">&#8226; Crear publicaci&#243;n</text><text fill="#000000" font-family="sans-serif" font-size="13" lengthAdjust="spacing" textLength="162.7983" x="102.5" y="487.2686">&#8226; Volver a mis publicaciones</text></g><!--link CreandoPublicacion to *end*crearPublicacion--><g class="link" data-entity-1="ent0004" data-entity-2="ent0009" data-link-type="dependency" data-source-line="30" id="lnk10"><path d="M91.5,567.7094 C91.5,594.3794 91.5,631.1094 91.5,650.3094" fill="none" id="CreandoPublicacion-to-*end*crearPublicacion" style="stroke:#008000;stroke-width:1;"/><polygon fill="#008000" points="91.5,655.3094,95.5,646.3094,91.5,650.3094,87.5,646.3094,91.5,655.3094" style="stroke:#008000;stroke-width:1;stroke-linejoin:miter;stroke-miterlimit:10;"/><path d="M96.5,590.6094 L96.5,632.6094 L540.5,632.6094 L540.5,600.6094 L530.5,590.6094 L96.5,590.6094" fill="#FEFFDD" style="stroke:#181818;stroke-width:0.5;"/><path d="M530.5,590.6094 L530.5,600.6094 L540.5,600.6094 L530.5,590.6094" fill="#FEFFDD" style="stroke:#181818;stroke-width:0.5;"/><text fill="#000000" font-family="sans-serif" font-size="13" font-weight="700" lengthAdjust="spacing" textLength="77.2954" x="102.5" y="609.1045">Investigador</text><text fill="#000000" font-family="sans-serif" font-size="13" lengthAdjust="spacing" textLength="342.5068" x="183.4072" y="609.1045">introduce los datos solicitados y solicita crear la publicaci&#243;n</text><text fill="#000000" font-family="sans-serif" font-size="13" font-weight="700" lengthAdjust="spacing" textLength="49.8608" x="102.5" y="625.4561">Sistema</text><text fill="#000000" font-family="sans-serif" font-size="13" lengthAdjust="spacing" textLength="175.6016" x="155.9727" y="625.4561">visualiza la publicaci&#243;n creada</text></g></g><g class="entity" data-qualified-name="MI_PUBLICACION_ABIERTA" data-source-line="37" id="ent0011"><rect fill="#F1F1F1" height="50" rx="12.5" ry="12.5" style="stroke:#181818;stroke-width:0.5;" width="205.9375" x="61" y="787"/><line style="stroke:#181818;stroke-width:0.5;" x1="61" x2="266.9375" y1="814.6094" y2="814.6094"/><text fill="#000000" font-family="sans-serif" font-size="14" lengthAdjust="spacing" textLength="185.9375" x="71" y="806.5332">MI_PUBLICACION_ABIERTA</text></g><g class="entity" data-qualified-name="MIS_PUBLICACIONES_ABIERTAS" data-source-line="47" id="ent0014"><rect fill="#F1F1F1" height="50" rx="12.5" ry="12.5" style="stroke:#181818;stroke-width:0.5;" width="243.2891" x="378.5" y="787"/><line style="stroke:#181818;stroke-width:0.5;" x1="378.5" x2="621.7891" y1="814.6094" y2="814.6094"/><text fill="#000000" font-family="sans-serif" font-size="14" lengthAdjust="spacing" textLength="223.2891" x="388.5" y="806.5332">MIS_PUBLICACIONES_ABIERTAS</text></g><!--link in1 to crearPublicacion--><g class="link" data-entity-1="ent0001" data-entity-2="ent0002" data-link-type="dependency" data-source-line="4" id="lnk5"><path d="M332,57.02 C332,72.1 332,88.31 332,112.91" fill="none" id="in1-to-crearPublicacion" style="stroke:#008000;stroke-width:1;"/><polygon fill="#008000" points="332,117.91,336,108.91,332,112.91,328,108.91,332,117.91" style="stroke:#008000;stroke-width:1;stroke-linejoin:miter;stroke-miterlimit:10;"/></g><!--link crearPublicacion to MI_PUBLICACION_ABIERTA--><g class="link" data-entity-1="ent0002" data-entity-2="ent0011" data-link-type="dependency" data-source-line="37" id="lnk12"><path d="M54.45,674.11 C25.28,702.34 6,721 6,721 C6,721 6,757 6,757 C6,757 46.5184,770.8538 88.5884,785.2238" fill="none" id="crearPublicacion-to-MI_PUBLICACION_ABIERTA" style="stroke:#008000;stroke-width:1;"/><polygon fill="#008000" points="93.32,786.84,86.0961,780.1456,88.5884,785.2238,83.5102,787.7161,93.32,786.84" style="stroke:#008000;stroke-width:1;stroke-linejoin:miter;stroke-miterlimit:10;"/><path d="M11,726 L11,752 L195,752 L195,736 L185,726 L11,726" fill="#FEFFDD" style="stroke:#181818;stroke-width:0.5;"/><path d="M185,726 L185,736 L195,736 L185,726" fill="#FEFFDD" style="stroke:#181818;stroke-width:0.5;"/><text fill="#000000" font-family="sans-serif" font-size="13" lengthAdjust="spacing" textLength="163.3188" x="17" y="744.4951">Publicaci&#243;n creada y abierta</text></g><!--link crearPublicacion to MI_PUBLICACION_ABIERTA--><g class="link" data-entity-1="ent0002" data-entity-2="ent0011" data-link-type="dependency" data-source-line="42" id="lnk13"><path d="M227.93,691.3 C213.78,730.15 204,757 204,757 C204,757 195.5171,768.453 184.8671,782.823" fill="none" id="crearPublicacion-to-MI_PUBLICACION_ABIERTA-1" style="stroke:#008000;stroke-width:1;"/><polygon fill="#008000" points="181.89,786.84,190.4625,781.991,184.8671,782.823,184.0352,777.2276,181.89,786.84" style="stroke:#008000;stroke-width:1;stroke-linejoin:miter;stroke-miterlimit:10;"/><path d="M220,726 L220,752 L348,752 L348,736 L338,726 L220,726" fill="#FEFFDD" style="stroke:#181818;stroke-width:0.5;"/><path d="M338,726 L338,736 L348,736 L338,726" fill="#FEFFDD" style="stroke:#181818;stroke-width:0.5;"/><text fill="#000000" font-family="sans-serif" font-size="13" lengthAdjust="spacing" textLength="107.6626" x="226" y="744.4951">editarPublicacion()</text></g><!--link crearPublicacion to MIS_PUBLICACIONES_ABIERTAS--><g class="link" data-entity-1="ent0002" data-entity-2="ent0014" data-link-type="dependency" data-source-line="47" id="lnk15"><path d="M401.92,691.3 C411.43,730.15 418,757 418,757 C418,757 437.3031,769.7217 459.1431,784.0917" fill="none" id="crearPublicacion-to-MIS_PUBLICACIONES_ABIERTAS" style="stroke:#008000;stroke-width:1;"/><polygon fill="#008000" points="463.32,786.84,458.0001,778.5515,459.1431,784.0917,453.6029,785.2346,463.32,786.84" style="stroke:#008000;stroke-width:1;stroke-linejoin:miter;stroke-miterlimit:10;"/><path d="M423,726 L423,752 L564,752 L564,736 L554,726 L423,726" fill="#FEFFDD" style="stroke:#181818;stroke-width:0.5;"/><path d="M554,726 L554,736 L564,736 L554,726" fill="#FEFFDD" style="stroke:#181818;stroke-width:0.5;"/><text fill="#000000" font-family="sans-serif" font-size="13" lengthAdjust="spacing" textLength="120.6563" x="429" y="744.4951">eliminarPublicacion()</text></g><!--link crearPublicacion to MIS_PUBLICACIONES_ABIERTAS--><g class="link" data-entity-1="ent0002" data-entity-2="ent0014" data-link-type="dependency" data-source-line="52" id="lnk16"><path d="M550.11,691.03 C564.26,709.56 573,721 573,721 C573,721 573,757 573,757 C573,757 556.11,769.4969 536.68,783.8669" fill="none" id="crearPublicacion-to-MIS_PUBLICACIONES_ABIERTAS-1" style="stroke:#008000;stroke-width:1;"/><polygon fill="#008000" points="532.66,786.84,542.2745,784.7044,536.68,783.8669,537.5175,778.2724,532.66,786.84" style="stroke:#008000;stroke-width:1;stroke-linejoin:miter;stroke-miterlimit:10;"/><path d="M578,726 L578,752 L734,752 L734,736 L724,726 L578,726" fill="#FEFFDD" style="stroke:#181818;stroke-width:0.5;"/><path d="M724,726 L724,736 L734,736 L724,726" fill="#FEFFDD" style="stroke:#181818;stroke-width:0.5;"/><text fill="#000000" font-family="sans-serif" font-size="13" lengthAdjust="spacing" textLength="135.0972" x="584" y="744.4951">abrirMisPublicaciones()</text></g><?plantuml-src jLJDQjj04BxlKmpk9Ic4qci91iVnGL2tfafx2I6Cj5CppMfNxAuCRYdqMNhlgO-GD-cJT7SLHPRaGA3KkdX7C_FzpApS7UiQBLQWM9FVrmIrKVju4C9vz0IiNmCwcAsp_7RpyU9jjbmii_VlLldjuY9RVRXQv3CHSywkNsmjaRuvcqDf2UscAHINMBBHNQznF3KU1qzEP_1D20Y_jceMdf2Ocv317hKqb-YDcsOiGwVmTW0SawvVtWpe7UsaJMWKA0NjTobmNimplIFdUOlIsFDNnHpSGsMh11gDK7TezxzrgYCjKxCMUumr87A4y5DKSdQUAamiQakET6112ZuRMpKABHkGhS69IJoe8JdOGqssuZHJRuriIhPlKly_Ftx2rVqltoZpU5u5QsL__CIE2rOiKJx6BicLbkjUUWmkv9T6Hw4dfewAK9ssJlJmdOisK7JWUDjma4CEi8mLv7fMo-JpnEF4oAWTMK2esFKPiVp86APE3mOHDkJvIz2v5nmECcMQQYT9Xl_xyPge8rio6kcENOEAl-9aQh65nA6axq9ChjAXd7LsU5MxYoe6wZPJaC0S2oRhKVJk_JCGoJZgmGL_VlkdlZaZ2CKLw_yCWeLbksQtELorGvY_?></g></svg>