<svg xmlns="http://www.w3.org/2000/svg" xmlns:xlink="http://www.w3.org/1999/xlink" contentStyleType="text/css" data-diagram-type="STATE" height="811px" preserveAspectRatio="none" style="width:493px;height:811px;background:#FFFFFF;" version="1.1" viewBox="0 0 493 811" width="493px" zoomAndPan="magnify"><?plantuml 1.2026.3?><defs/><g><g class="entity" data-qualified-name="in1" id="ent0002"><rect fill="#F1F1F1" height="50" rx="12.5" ry="12.5" style="stroke:#181818;stroke-width:0.5;" width="219.9307" x="120.5" y="7"/><line style="stroke:#181818;stroke-width:0.5;" x1="120.5" x2="340.4307" y1="34.6094" y2="34.6094"/><text fill="#000000" font-family="sans-serif" font-size="14" lengthAdjust="spacing" textLength="199.9307" x="130.5" y="26.5332">CONVOCATORIAS_ABIERTAS</text></g><path d="M41.5,118 L419.5,118 A12.5,12.5 0 0 1 432,130.5 L432,145.6094 L29,145.6094 L29,130.5 A12.5,12.5 0 0 1 41.5,118" fill="#F1F1F1"/><rect fill="none" height="532.6094" rx="12.5" ry="12.5" style="stroke:#181818;stroke-width:0.5;" width="403" x="29" y="118"/><line style="stroke:#181818;stroke-width:0.5;" x1="29" x2="432" y1="145.6094" y2="145.6094"/><text fill="#000000" font-family="sans-serif" font-size="14" lengthAdjust="spacing" textLength="119.8203" x="170.5898" y="137.5332">abrirConvocatoria()</text><g class="entity" data-qualified-name="abrirConvocatoria.CargandoDetalle" id="ent0004"><rect fill="#F1F1F1" height="50" rx="12.5" ry="12.5" style="stroke:#181818;stroke-width:0.5;" width="50" x="41" y="248.6094"/><line style="stroke:#181818;stroke-width:0.5;" x1="41" x2="91" y1="276.2188" y2="276.2188"/><text fill="#000000" font-family="sans-serif" font-size="14" lengthAdjust="spacing" textLength="3.8896" x="64.0552" y="268.1426">&#160;</text></g><g class="start_entity" data-qualified-name="abrirConvocatoria..start.abrirConvocatoria" data-source-line="10" id="ent0003"><ellipse cx="66" cy="166.6094" fill="#222222" rx="10" ry="10" style="stroke:#222222;stroke-width:1;"/></g><g class="end_entity" data-qualified-name="abrirConvocatoria..end.abrirConvocatoria" data-source-line="15" id="ent0005"><ellipse cx="66" cy="626.6094" fill="none" rx="11" ry="11" style="stroke:#222222;stroke-width:1;"/><ellipse cx="66" cy="626.6094" fill="#222222" rx="6" ry="6" style="stroke:#222222;stroke-width:1;"/></g><!--link *start*abrirConvocatoria to CargandoDetalle--><g class="link" data-entity-1="ent0003" data-entity-2="ent0004" data-link-type="dependency" data-source-line="10" id="lnk4"><path d="M66,176.9294 C66,192.7894 66,219.5194 66,242.2494" fill="none" id="*start*abrirConvocatoria-to-CargandoDetalle" style="stroke:#008000;stroke-width:1;"/><polygon fill="#008000" points="66,248.2494,70,239.2494,66,243.2494,62,239.2494,66,248.2494" style="stroke:#008000;stroke-width:1;"/><path d="M71,199.6094 L71,225.6094 L345,225.6094 L345,209.6094 L335,199.6094 L71,199.6094" fill="#FEFFDD" style="stroke:#181818;stroke-width:0.5;"/><path d="M335,199.6094 L335,209.6094 L345,209.6094 L335,199.6094" fill="#FEFFDD" style="stroke:#181818;stroke-width:0.5;"/><text fill="#000000" font-family="sans-serif" font-size="13" font-weight="700" lengthAdjust="spacing" textLength="77.9937" x="77" y="218.1045">Coordinador</text><text fill="#000000" font-family="sans-serif" font-size="13" lengthAdjust="spacing" textLength="171.9771" x="158.6055" y="218.1045">solicita abrir una convocatoria</text></g><!--link CargandoDetalle to *end*abrirConvocatoria--><g class="link" data-entity-1="ent0004" data-entity-2="ent0005" data-link-type="dependency" data-source-line="15" id="lnk6"><path d="M66,298.7394 C66,368.4294 66,562.1194 66,609.4594" fill="none" id="CargandoDetalle-to-*end*abrirConvocatoria" style="stroke:#008000;stroke-width:1;"/><polygon fill="#008000" points="66,615.4594,70,606.4594,66,610.4594,62,606.4594,66,615.4594" style="stroke:#008000;stroke-width:1;"/><path d="M71,321.6094 L71,592.6094 L408,592.6094 L408,331.6094 L398,321.6094 L71,321.6094" fill="#FEFFDD" style="stroke:#181818;stroke-width:0.5;"/><path d="M398,321.6094 L398,331.6094 L408,331.6094 L398,321.6094" fill="#FEFFDD" style="stroke:#181818;stroke-width:0.5;"/><text fill="#000000" font-family="sans-serif" font-size="13" font-weight="700" lengthAdjust="spacing" textLength="49.8608" x="77" y="340.1045">Sistema</text><text fill="#000000" font-family="sans-serif" font-size="13" lengthAdjust="spacing" textLength="263.0278" x="130.4727" y="340.1045">presenta y visualiza la convocatoria solicitada</text><text fill="#000000" font-family="sans-serif" font-size="13" font-weight="700" lengthAdjust="spacing" textLength="49.8608" x="77" y="356.4561">Sistema</text><text fill="#000000" font-family="sans-serif" font-size="13" lengthAdjust="spacing" textLength="50.5718" x="130.4727" y="356.4561">muestra:</text><text fill="#000000" font-family="sans-serif" font-size="13" lengthAdjust="spacing" textLength="41.4058" x="77" y="372.8076">&#8226; T&#237;tulo</text><text fill="#000000" font-family="sans-serif" font-size="13" lengthAdjust="spacing" textLength="36.353" x="77" y="389.1592">&#8226; &#193;rea</text><text fill="#000000" font-family="sans-serif" font-size="13" lengthAdjust="spacing" textLength="49.3657" x="77" y="405.5107">&#8226; Estado</text><text fill="#000000" font-family="sans-serif" font-size="13" lengthAdjust="spacing" textLength="115.1147" x="77" y="421.8623">&#8226; Fechas relevantes</text><text fill="#000000" font-family="sans-serif" font-size="13" lengthAdjust="spacing" textLength="76.8066" x="77" y="438.2139">&#8226; Descripci&#243;n</text><text fill="#000000" font-family="sans-serif" font-size="13" lengthAdjust="spacing" textLength="151.9692" x="77" y="454.5654">&#8226; Requisitos y condiciones</text><text fill="#000000" font-family="sans-serif" font-size="13" lengthAdjust="spacing" textLength="204.001" x="77" y="470.917">&#8226; Criterios de evaluaci&#243;n y dotaci&#243;n</text><text fill="#000000" font-family="sans-serif" font-size="13" lengthAdjust="spacing" textLength="154.8701" x="77" y="487.2686">&#8226; Documentaci&#243;n asociada</text><text fill="#000000" font-family="sans-serif" font-size="13" lengthAdjust="spacing" textLength="147.6401" x="77" y="503.6201">&#8226; Informaci&#243;n de contacto</text><text fill="#000000" font-family="sans-serif" font-size="13" lengthAdjust="spacing" textLength="3.6118" x="77" y="519.9717">&#160;</text><text fill="#000000" font-family="sans-serif" font-size="13" font-weight="700" lengthAdjust="spacing" textLength="49.8608" x="77" y="536.3232">Sistema</text><text fill="#000000" font-family="sans-serif" font-size="13" lengthAdjust="spacing" textLength="94.6372" x="130.4727" y="536.3232">permite solicitar:</text><text fill="#000000" font-family="sans-serif" font-size="13" lengthAdjust="spacing" textLength="134.6147" x="77" y="552.6748">&#8226; Importar convocatoria</text><text fill="#000000" font-family="sans-serif" font-size="13" lengthAdjust="spacing" textLength="140.4038" x="77" y="569.0264">&#8226; Volver a convocatorias</text><text fill="#000000" font-family="sans-serif" font-size="13" lengthAdjust="spacing" textLength="146.9165" x="77" y="585.3779">&#8226; Volver al panel principal</text></g><g class="entity" data-qualified-name="CONVOCATORIA_ABIERTA" id="ent0007"><rect fill="#F1F1F1" height="50" rx="12.5" ry="12.5" style="stroke:#181818;stroke-width:0.5;" width="201.2549" x="7" y="747"/><line style="stroke:#181818;stroke-width:0.5;" x1="7" x2="208.2549" y1="774.6094" y2="774.6094"/><text fill="#000000" font-family="sans-serif" font-size="14" lengthAdjust="spacing" textLength="181.2549" x="17" y="766.5332">CONVOCATORIA_ABIERTA</text></g><g class="entity" data-qualified-name="CONVOCATORIAS_ABIERTAS" id="ent0009"><rect fill="#F1F1F1" height="50" rx="12.5" ry="12.5" style="stroke:#181818;stroke-width:0.5;" width="219.9307" x="243.5" y="747"/><line style="stroke:#181818;stroke-width:0.5;" x1="243.5" x2="463.4307" y1="774.6094" y2="774.6094"/><text fill="#000000" font-family="sans-serif" font-size="14" lengthAdjust="spacing" textLength="199.9307" x="253.5" y="766.5332">CONVOCATORIAS_ABIERTAS</text></g><!--link in1 to abrirConvocatoria--><g class="link" data-entity-1="ent0002" data-entity-2="ent0003" data-link-type="dependency" data-source-line="4" id="lnk2"><path d="M230.5,57.09 C230.5,72.17 230.5,87.34 230.5,111.74" fill="none" id="in1-to-abrirConvocatoria" style="stroke:#008000;stroke-width:1;"/><polygon fill="#008000" points="230.5,117.74,234.5,108.74,230.5,112.74,226.5,108.74,230.5,117.74" style="stroke:#008000;stroke-width:1;"/></g><!--link abrirConvocatoria to CONVOCATORIA_ABIERTA--><g class="link" data-entity-1="ent0003" data-entity-2="ent0007" data-link-type="dependency" data-source-line="36" id="lnk8"><path d="M145.74,651.14 C133.18,690.52 123.954,719.434 117.004,741.214" fill="none" id="abrirConvocatoria-to-CONVOCATORIA_ABIERTA" style="stroke:#008000;stroke-width:1;"/><polygon fill="#008000" points="115.18,746.93,121.7267,739.5719,116.7,742.1666,114.1053,737.14,115.18,746.93" style="stroke:#008000;stroke-width:1;"/><path d="M139.5,686 L139.5,712 L294.5,712 L294.5,696 L284.5,686 L139.5,686" fill="#FEFFDD" style="stroke:#181818;stroke-width:0.5;"/><path d="M284.5,686 L284.5,696 L294.5,696 L284.5,686" fill="#FEFFDD" style="stroke:#181818;stroke-width:0.5;"/><text fill="#000000" font-family="sans-serif" font-size="13" lengthAdjust="spacing" textLength="134.3989" x="145.5" y="704.4951">Convocatoria mostrada</text></g><!--link abrirConvocatoria to CONVOCATORIAS_ABIERTAS--><g class="link" data-entity-1="ent0003" data-entity-2="ent0009" data-link-type="dependency" data-source-line="41" id="lnk10"><path d="M315.26,651.14 C327.82,690.52 337.046,719.434 343.996,741.214" fill="none" id="abrirConvocatoria-to-CONVOCATORIAS_ABIERTAS" style="stroke:#008000;stroke-width:1;"/><polygon fill="#008000" points="345.82,746.93,346.8947,737.14,344.3,742.1666,339.2733,739.5719,345.82,746.93" style="stroke:#008000;stroke-width:1;"/><path d="M340.5,686 L340.5,712 L478.5,712 L478.5,696 L468.5,686 L340.5,686" fill="#FEFFDD" style="stroke:#181818;stroke-width:0.5;"/><path d="M468.5,686 L468.5,696 L478.5,696 L468.5,686" fill="#FEFFDD" style="stroke:#181818;stroke-width:0.5;"/><text fill="#000000" font-family="sans-serif" font-size="13" lengthAdjust="spacing" textLength="117.7617" x="346.5" y="704.4951">abrirConvocatorias()</text></g><?plantuml-src ZLF1Qjj04BthAnRtaXH2wRK4Woidu4iDjiabX3BMJjCXgnrrTcLmIw7zbTvxwYVuJ_eb7Kcnv8rIY0I2dVVclPdHR7WWNu50QHnvZFiAJSLktnooB4I8QCY_DH3C95z-k5dciyrojPYjFyxUBwvMczbwaZNunUshUq7qTnTJ0riXoTdlk838Gd0K6W6jx2XwTZuntxBCwDFbJVHLPWvo3zxo72CuXntZzlLTOlwKr70ygmZxfiE7Dd2vdURCOic3PRbyivsQm8uAYj0LQMeFfZXjeKb3Rrkjplc9KrA5LlLVvpM5Y2MqhfLWGA-kUxEZK8EZhs1SQjsNPk4vYRB640NUjTZV7x_Cvl0xrexxy-6d8FIdAnsf7S1hB3xhQ0KTxi1733qonr08LGKT_lW-kC8lDGMA7BHYBT9gOUnFidAXY4AAMpGgwMfe5PHkEKAgDkUYBflsEme4BkZOPOCl_2UMyX5LFJLKRkJisL6YbEhTJqk6YIpAYaKZup_Qe3ViTYWc7NeOmSvKu56_GhwW2bow4j-pRBpUoMAUt9xZvScI_KXIIsx-gWvZMBgNwm-tCtKOAOIpyy7W7m00?></g></svg>