<?xml version="1.0" encoding="us-ascii" standalone="no"?><svg xmlns="http://www.w3.org/2000/svg" xmlns:xlink="http://www.w3.org/1999/xlink" contentStyleType="text/css" height="784px" preserveAspectRatio="none" style="width:475px;height:784px;background:#FFFFFF;" version="1.1" viewBox="0 0 475 784" width="475px" zoomAndPan="magnify"><defs/><g><g id="in1"><rect fill="#F1F1F1" height="50" rx="12.5" ry="12.5" style="stroke:#181818;stroke-width:0.5;" width="215" x="118" y="7"/><line style="stroke:#181818;stroke-width:0.5;" x1="118" x2="333" y1="34.6094" y2="34.6094"/><text fill="#000000" font-family="sans-serif" font-size="14" lengthAdjust="spacing" textLength="195" x="128" y="26.5332">CONVOCATORIAS_ABIERTAS</text></g><path d="M43,118 L408,118 A12.5,12.5 0 0 1 420.5,130.5 L420.5,145.6094 L30.5,145.6094 L30.5,130.5 A12.5,12.5 0 0 1 43,118 " fill="#F1F1F1" style="stroke:#F1F1F1;stroke-width:1.0;"/><rect fill="none" height="513.6094" rx="12.5" ry="12.5" style="stroke:#181818;stroke-width:0.5;" width="390" x="30.5" y="118"/><line style="stroke:#181818;stroke-width:0.5;" x1="30.5" x2="420.5" y1="145.6094" y2="145.6094"/><text fill="#000000" font-family="sans-serif" font-size="14" lengthAdjust="spacing" textLength="123" x="164" y="137.5332">abrirConvocatoria()</text><g id="abrirConvocatoria.CargandoDetalle"><rect fill="#F1F1F1" height="50" rx="12.5" ry="12.5" style="stroke:#181818;stroke-width:0.5;" width="50" x="42.5" y="248.6094"/><line style="stroke:#181818;stroke-width:0.5;" x1="42.5" x2="92.5" y1="276.2188" y2="276.2188"/><text fill="#000000" font-family="sans-serif" font-size="14" lengthAdjust="spacing" textLength="4" x="65.5" y="268.1426">&#160;</text></g><ellipse cx="67.5" cy="166.6094" fill="#222222" rx="10" ry="10" style="stroke:#222222;stroke-width:1.0;"/><ellipse cx="67.5" cy="610.6094" fill="none" rx="11" ry="11" style="stroke:#222222;stroke-width:1.0;"/><ellipse cx="67.5" cy="610.6094" fill="#222222" rx="6" ry="6" style="stroke:#222222;stroke-width:1.0;"/><!--link *start*abrirConvocatoria to CargandoDetalle--><g id="link_*start*abrirConvocatoria_CargandoDetalle"><path d="M67.5,176.9294 C67.5,192.7894 67.5,219.5194 67.5,242.2494 " fill="none" id="*start*abrirConvocatoria-to-CargandoDetalle" style="stroke:#008000;stroke-width:1.0;"/><polygon fill="#008000" points="67.5,248.2494,71.5,239.2494,67.5,243.2494,63.5,239.2494,67.5,248.2494" style="stroke:#008000;stroke-width:1.0;"/><path d="M72.5,199.6094 L72.5,225.6094 L347.5,225.6094 L347.5,209.6094 L337.5,199.6094 L72.5,199.6094 " fill="#FEFFDD" style="stroke:#181818;stroke-width:0.5;"/><path d="M337.5,199.6094 L337.5,209.6094 L347.5,209.6094 L337.5,199.6094 " fill="#FEFFDD" style="stroke:#181818;stroke-width:0.5;"/><text fill="#000000" font-family="sans-serif" font-size="13" font-weight="bold" lengthAdjust="spacing" textLength="79" x="78.5" y="218.1045">Coordinador</text><text fill="#000000" font-family="sans-serif" font-size="13" lengthAdjust="spacing" textLength="171" x="161.5" y="218.1045">solicita abrir una convocatoria</text></g><!--link CargandoDetalle to *end*abrirConvocatoria--><g id="link_CargandoDetalle_*end*abrirConvocatoria"><path d="M67.5,298.6994 C67.5,365.9094 67.5,547.5394 67.5,593.3994 " fill="none" id="CargandoDetalle-to-*end*abrirConvocatoria" style="stroke:#008000;stroke-width:1.0;"/><polygon fill="#008000" points="67.5,599.3994,71.5,590.3994,67.5,594.3994,63.5,590.3994,67.5,599.3994" style="stroke:#008000;stroke-width:1.0;"/><path d="M72.5,321.6094 L72.5,576.6094 L411.5,576.6094 L411.5,331.6094 L401.5,321.6094 L72.5,321.6094 " fill="#FEFFDD" style="stroke:#181818;stroke-width:0.5;"/><path d="M401.5,321.6094 L401.5,331.6094 L411.5,331.6094 L401.5,321.6094 " fill="#FEFFDD" style="stroke:#181818;stroke-width:0.5;"/><text fill="#000000" font-family="sans-serif" font-size="13" font-weight="bold" lengthAdjust="spacing" textLength="51" x="78.5" y="340.1045">Sistema</text><text fill="#000000" font-family="sans-serif" font-size="13" lengthAdjust="spacing" textLength="263" x="133.5" y="340.1045">presenta y visualiza la convocatoria solicitada</text><text fill="#000000" font-family="sans-serif" font-size="13" font-weight="bold" lengthAdjust="spacing" textLength="51" x="78.5" y="356.4561">Sistema</text><text fill="#000000" font-family="sans-serif" font-size="13" lengthAdjust="spacing" textLength="51" x="133.5" y="356.4561">muestra:</text><text fill="#000000" font-family="sans-serif" font-size="13" lengthAdjust="spacing" textLength="66" x="78.5" y="372.8076">&#226;&#8364;&#162; T&#195;&#173;tulo</text><text fill="#000000" font-family="sans-serif" font-size="13" lengthAdjust="spacing" textLength="62" x="78.5" y="389.1592">&#226;&#8364;&#162; &#195;&#65533;rea</text><text fill="#000000" font-family="sans-serif" font-size="13" lengthAdjust="spacing" textLength="66" x="78.5" y="405.5107">&#226;&#8364;&#162; Estado</text><text fill="#000000" font-family="sans-serif" font-size="13" lengthAdjust="spacing" textLength="130" x="78.5" y="421.8623">&#226;&#8364;&#162; Fechas relevantes</text><text fill="#000000" font-family="sans-serif" font-size="13" lengthAdjust="spacing" textLength="99" x="78.5" y="438.2139">&#226;&#8364;&#162; Descripci&#195;&#179;n</text><text fill="#000000" font-family="sans-serif" font-size="13" lengthAdjust="spacing" textLength="170" x="78.5" y="454.5654">&#226;&#8364;&#162; Requisitos y condiciones</text><text fill="#000000" font-family="sans-serif" font-size="13" lengthAdjust="spacing" textLength="231" x="78.5" y="470.917">&#226;&#8364;&#162; Criterios de evaluaci&#195;&#179;n y dotaci&#195;&#179;n</text><text fill="#000000" font-family="sans-serif" font-size="13" lengthAdjust="spacing" textLength="177" x="78.5" y="487.2686">&#226;&#8364;&#162; Documentaci&#195;&#179;n asociada</text><text fill="#000000" font-family="sans-serif" font-size="13" lengthAdjust="spacing" textLength="169" x="78.5" y="503.6201">&#226;&#8364;&#162; Informaci&#195;&#179;n de contacto</text><text fill="#000000" font-family="sans-serif" font-size="13" lengthAdjust="spacing" textLength="4" x="78.5" y="519.9717">&#160;</text><text fill="#000000" font-family="sans-serif" font-size="13" font-weight="bold" lengthAdjust="spacing" textLength="51" x="78.5" y="536.3232">Sistema</text><text fill="#000000" font-family="sans-serif" font-size="13" lengthAdjust="spacing" textLength="96" x="133.5" y="536.3232">permite solicitar:</text><text fill="#000000" font-family="sans-serif" font-size="13" lengthAdjust="spacing" textLength="148" x="78.5" y="552.6748">&#226;&#8364;&#162; Importar convocatoria</text><text fill="#000000" font-family="sans-serif" font-size="13" lengthAdjust="spacing" textLength="154" x="78.5" y="569.0264">&#226;&#8364;&#162; Volver a convocatorias</text></g><g id="CONVOCATORIA_ABIERTA"><rect fill="#F1F1F1" height="50" rx="12.5" ry="12.5" style="stroke:#181818;stroke-width:0.5;" width="197" x="7" y="728"/><line style="stroke:#181818;stroke-width:0.5;" x1="7" x2="204" y1="755.6094" y2="755.6094"/><text fill="#000000" font-family="sans-serif" font-size="14" lengthAdjust="spacing" textLength="177" x="17" y="747.5332">CONVOCATORIA_ABIERTA</text></g><g id="CONVOCATORIAS_ABIERTAS"><rect fill="#F1F1F1" height="50" rx="12.5" ry="12.5" style="stroke:#181818;stroke-width:0.5;" width="215" x="239" y="728"/><line style="stroke:#181818;stroke-width:0.5;" x1="239" x2="454" y1="755.6094" y2="755.6094"/><text fill="#000000" font-family="sans-serif" font-size="14" lengthAdjust="spacing" textLength="195" x="249" y="747.5332">CONVOCATORIAS_ABIERTAS</text></g><!--link in1 to abrirConvocatoria--><g id="link_in1_abrirConvocatoria"><path d="M225.5,57.25 C225.5,72.39 225.5,87.61 225.5,111.97 " fill="none" id="in1-to-abrirConvocatoria" style="stroke:#008000;stroke-width:1.0;"/><polygon fill="#008000" points="225.5,117.97,229.5,108.97,225.5,112.97,221.5,108.97,225.5,117.97" style="stroke:#008000;stroke-width:1.0;"/></g><!--link abrirConvocatoria to CONVOCATORIA_ABIERTA--><g id="link_abrirConvocatoria_CONVOCATORIA_ABIERTA"><path d="M143.72,632.26 C131.21,671.45 121.9848,700.3542 115.0248,722.1542 " fill="none" id="abrirConvocatoria-to-CONVOCATORIA_ABIERTA" style="stroke:#008000;stroke-width:1.0;"/><polygon fill="#008000" points="113.2,727.87,119.7478,720.5129,114.7207,723.1069,112.1268,718.0798,113.2,727.87" style="stroke:#008000;stroke-width:1.0;"/><path d="M136.5,667 L136.5,693 L289.5,693 L289.5,677 L279.5,667 L136.5,667 " fill="#FEFFDD" style="stroke:#181818;stroke-width:0.5;"/><path d="M279.5,667 L279.5,677 L289.5,677 L279.5,667 " fill="#FEFFDD" style="stroke:#181818;stroke-width:0.5;"/><text fill="#000000" font-family="sans-serif" font-size="13" lengthAdjust="spacing" textLength="132" x="142.5" y="685.4951">Convocatoria mostrada</text></g><!--link abrirConvocatoria to CONVOCATORIAS_ABIERTAS--><g id="link_abrirConvocatoria_CONVOCATORIAS_ABIERTAS"><path d="M307.97,632.26 C320.58,671.45 329.8809,700.3588 336.9009,722.1588 " fill="none" id="abrirConvocatoria-to-CONVOCATORIAS_ABIERTAS" style="stroke:#008000;stroke-width:1.0;"/><polygon fill="#008000" points="338.74,727.87,339.7888,718.0771,337.2074,723.1107,332.1739,720.5293,338.74,727.87" style="stroke:#008000;stroke-width:1.0;"/><path d="M333.5,667 L333.5,693 L468.5,693 L468.5,677 L458.5,667 L333.5,667 " fill="#FEFFDD" style="stroke:#181818;stroke-width:0.5;"/><path d="M458.5,667 L458.5,677 L468.5,677 L458.5,667 " fill="#FEFFDD" style="stroke:#181818;stroke-width:0.5;"/><text fill="#000000" font-family="sans-serif" font-size="13" lengthAdjust="spacing" textLength="114" x="339.5" y="685.4951">abrirConvocatorias()</text></g><!--SRC=[ZLF1Qjj04BthAnRtaXH2wRK4Wokdu4iDjiabX3BMJjCXgnrrTcLmIo_Dd-JSddekXVXFyWFzXOxaoivQBbHxqioRzzxCpePRyXK8bCQHnxYkq5JirirFbeK84GtvbmQ26UJJjvVJVBIOpYQZ-RlHwyd5R36Q3x8cVtRrx4OG_VNPqC1II7BsAouWiX1qHBr4IzkBdfmEpESiC_fjwmPw59c3t82tFCO8pk4MSVNyEX4_13KOpqh2lkdmjWsSBuSvirZoO5dENoo79h2ZWY9iJPhQWocUjj2KeRSjrrRvG2bneQx-gJod4B64LhKI3EXLTMrM56fmz0cCIwLtrYmSeoXh357WLPlRt3z-_VPmRnQRkuVliNQSH3Ttlt_z58GaUA4pjYdk3HOVTDw23bVW8uOaEyPG25K5gSOFdwHc-B6cG963DgGzMFND_g0-5ueef1YBHWLS3N-vjCXoX6FCOoxgifbK1uN01NKZwL0J_vwbt66KNqreJUJiwFHHIlMo6x2aGvoK5Oj6-ulG8IxPhL1CUbyXtPKlMTRV-sHZdpohxbLboU8afIKtrwsDxxVn__dtppPLw364azEzm1y0]--></g></svg>