<svg xmlns="http://www.w3.org/2000/svg" xmlns:xlink="http://www.w3.org/1999/xlink" contentStyleType="text/css" height="784px" preserveAspectRatio="none" style="width:485px;height:784px;background:#FFFFFF;" version="1.1" viewBox="0 0 485 784" width="485px" zoomAndPan="magnify"><defs/><g><g id="in1"><rect fill="#F1F1F1" height="50" rx="12.5" ry="12.5" style="stroke:#181818;stroke-width:0.5;" width="219.9307" x="120.5" y="7"/><line style="stroke:#181818;stroke-width:0.5;" x1="120.5" x2="340.4307" y1="34.6094" y2="34.6094"/><text fill="#000000" font-family="sans-serif" font-size="14" lengthAdjust="spacing" textLength="199.9307" x="130.5" y="26.5332">CONVOCATORIAS_ABIERTAS</text></g><path d="M49,118 L412,118 A12.5,12.5 0 0 1 424.5,130.5 L424.5,145.6094 L36.5,145.6094 L36.5,130.5 A12.5,12.5 0 0 1 49,118 " fill="#F1F1F1" style="stroke:#F1F1F1;stroke-width:1;"/><rect fill="none" height="513.6094" rx="12.5" ry="12.5" style="stroke:#181818;stroke-width:0.5;" width="388" x="36.5" y="118"/><line style="stroke:#181818;stroke-width:0.5;" x1="36.5" x2="424.5" y1="145.6094" y2="145.6094"/><text fill="#000000" font-family="sans-serif" font-size="14" lengthAdjust="spacing" textLength="119.8203" x="170.5898" y="137.5332">abrirConvocatoria()</text><g id="abrirConvocatoria.CargandoDetalle"><rect fill="#F1F1F1" height="50" rx="12.5" ry="12.5" style="stroke:#181818;stroke-width:0.5;" width="50" x="48.5" y="248.6094"/><line style="stroke:#181818;stroke-width:0.5;" x1="48.5" x2="98.5" y1="276.2188" y2="276.2188"/><text fill="#000000" font-family="sans-serif" font-size="14" lengthAdjust="spacing" textLength="3.8896" x="71.5552" y="268.1426">&#160;</text></g><ellipse cx="73.5" cy="166.6094" fill="#222222" rx="10" ry="10" style="stroke:#222222;stroke-width:1;"/><ellipse cx="73.5" cy="610.6094" fill="none" rx="11" ry="11" style="stroke:#222222;stroke-width:1;"/><ellipse cx="73.5" cy="610.6094" fill="#222222" rx="6" ry="6" style="stroke:#222222;stroke-width:1;"/><!--link *start*abrirConvocatoria to CargandoDetalle--><g id="link_*start*abrirConvocatoria_CargandoDetalle"><path d="M73.5,176.9294 C73.5,192.7894 73.5,219.5194 73.5,242.2494 " fill="none" id="*start*abrirConvocatoria-to-CargandoDetalle" style="stroke:#008000;stroke-width:1;"/><polygon fill="#008000" points="73.5,248.2494,77.5,239.2494,73.5,243.2494,69.5,239.2494,73.5,248.2494" style="stroke:#008000;stroke-width:1;"/><path d="M78.5,199.6094 L78.5,225.6094 L352.5,225.6094 L352.5,209.6094 L342.5,199.6094 L78.5,199.6094 " fill="#FEFFDD" style="stroke:#181818;stroke-width:0.5;"/><path d="M342.5,199.6094 L342.5,209.6094 L352.5,209.6094 L342.5,199.6094 " fill="#FEFFDD" style="stroke:#181818;stroke-width:0.5;"/><text fill="#000000" font-family="sans-serif" font-size="13" font-weight="bold" lengthAdjust="spacing" textLength="77.9937" x="84.5" y="218.1045">Coordinador</text><text fill="#000000" font-family="sans-serif" font-size="13" lengthAdjust="spacing" textLength="171.9771" x="166.1055" y="218.1045">solicita abrir una convocatoria</text></g><!--link CargandoDetalle to *end*abrirConvocatoria--><g id="link_CargandoDetalle_*end*abrirConvocatoria"><path d="M73.5,298.6994 C73.5,365.9094 73.5,547.5394 73.5,593.3994 " fill="none" id="CargandoDetalle-to-*end*abrirConvocatoria" style="stroke:#008000;stroke-width:1;"/><polygon fill="#008000" points="73.5,599.3994,77.5,590.3994,73.5,594.3994,69.5,590.3994,73.5,599.3994" style="stroke:#008000;stroke-width:1;"/><path d="M78.5,321.6094 L78.5,576.6094 L415.5,576.6094 L415.5,331.6094 L405.5,321.6094 L78.5,321.6094 " fill="#FEFFDD" style="stroke:#181818;stroke-width:0.5;"/><path d="M405.5,321.6094 L405.5,331.6094 L415.5,331.6094 L405.5,321.6094 " fill="#FEFFDD" style="stroke:#181818;stroke-width:0.5;"/><text fill="#000000" font-family="sans-serif" font-size="13" font-weight="bold" lengthAdjust="spacing" textLength="49.8608" x="84.5" y="340.1045">Sistema</text><text fill="#000000" font-family="sans-serif" font-size="13" lengthAdjust="spacing" textLength="263.0278" x="137.9727" y="340.1045">presenta y visualiza la convocatoria solicitada</text><text fill="#000000" font-family="sans-serif" font-size="13" font-weight="bold" lengthAdjust="spacing" textLength="49.8608" x="84.5" y="356.4561">Sistema</text><text fill="#000000" font-family="sans-serif" font-size="13" lengthAdjust="spacing" textLength="50.5718" x="137.9727" y="356.4561">muestra:</text><text fill="#000000" font-family="sans-serif" font-size="13" lengthAdjust="spacing" textLength="41.4058" x="84.5" y="372.8076">&#8226; T&#237;tulo</text><text fill="#000000" font-family="sans-serif" font-size="13" lengthAdjust="spacing" textLength="36.353" x="84.5" y="389.1592">&#8226; &#193;rea</text><text fill="#000000" font-family="sans-serif" font-size="13" lengthAdjust="spacing" textLength="49.3657" x="84.5" y="405.5107">&#8226; Estado</text><text fill="#000000" font-family="sans-serif" font-size="13" lengthAdjust="spacing" textLength="115.1147" x="84.5" y="421.8623">&#8226; Fechas relevantes</text><text fill="#000000" font-family="sans-serif" font-size="13" lengthAdjust="spacing" textLength="76.8066" x="84.5" y="438.2139">&#8226; Descripci&#243;n</text><text fill="#000000" font-family="sans-serif" font-size="13" lengthAdjust="spacing" textLength="151.9692" x="84.5" y="454.5654">&#8226; Requisitos y condiciones</text><text fill="#000000" font-family="sans-serif" font-size="13" lengthAdjust="spacing" textLength="204.001" x="84.5" y="470.917">&#8226; Criterios de evaluaci&#243;n y dotaci&#243;n</text><text fill="#000000" font-family="sans-serif" font-size="13" lengthAdjust="spacing" textLength="154.8701" x="84.5" y="487.2686">&#8226; Documentaci&#243;n asociada</text><text fill="#000000" font-family="sans-serif" font-size="13" lengthAdjust="spacing" textLength="147.6401" x="84.5" y="503.6201">&#8226; Informaci&#243;n de contacto</text><text fill="#000000" font-family="sans-serif" font-size="13" lengthAdjust="spacing" textLength="3.6118" x="84.5" y="519.9717">&#160;</text><text fill="#000000" font-family="sans-serif" font-size="13" font-weight="bold" lengthAdjust="spacing" textLength="49.8608" x="84.5" y="536.3232">Sistema</text><text fill="#000000" font-family="sans-serif" font-size="13" lengthAdjust="spacing" textLength="94.6372" x="137.9727" y="536.3232">permite solicitar:</text><text fill="#000000" font-family="sans-serif" font-size="13" lengthAdjust="spacing" textLength="134.6147" x="84.5" y="552.6748">&#8226; Importar convocatoria</text><text fill="#000000" font-family="sans-serif" font-size="13" lengthAdjust="spacing" textLength="140.4038" x="84.5" y="569.0264">&#8226; Volver a convocatorias</text></g><g id="CONVOCATORIA_ABIERTA"><rect fill="#F1F1F1" height="50" rx="12.5" ry="12.5" style="stroke:#181818;stroke-width:0.5;" width="201.2549" x="7" y="728"/><line style="stroke:#181818;stroke-width:0.5;" x1="7" x2="208.2549" y1="755.6094" y2="755.6094"/><text fill="#000000" font-family="sans-serif" font-size="14" lengthAdjust="spacing" textLength="181.2549" x="17" y="747.5332">CONVOCATORIA_ABIERTA</text></g><g id="CONVOCATORIAS_ABIERTAS"><rect fill="#F1F1F1" height="50" rx="12.5" ry="12.5" style="stroke:#181818;stroke-width:0.5;" width="219.9307" x="243.5" y="728"/><line style="stroke:#181818;stroke-width:0.5;" x1="243.5" x2="463.4307" y1="755.6094" y2="755.6094"/><text fill="#000000" font-family="sans-serif" font-size="14" lengthAdjust="spacing" textLength="199.9307" x="253.5" y="747.5332">CONVOCATORIAS_ABIERTAS</text></g><!--link in1 to abrirConvocatoria--><g id="link_in1_abrirConvocatoria"><path d="M230.5,57.25 C230.5,72.39 230.5,87.61 230.5,111.97 " fill="none" id="in1-to-abrirConvocatoria" style="stroke:#008000;stroke-width:1;"/><polygon fill="#008000" points="230.5,117.97,234.5,108.97,230.5,112.97,226.5,108.97,230.5,117.97" style="stroke:#008000;stroke-width:1;"/></g><!--link abrirConvocatoria to CONVOCATORIA_ABIERTA--><g id="link_abrirConvocatoria_CONVOCATORIA_ABIERTA"><path d="M146.67,632.26 C133.85,671.45 124.3852,700.3673 117.2552,722.1673 " fill="none" id="abrirConvocatoria-to-CONVOCATORIA_ABIERTA" style="stroke:#008000;stroke-width:1;"/><polygon fill="#008000" points="115.39,727.87,121.9896,720.5593,116.9443,723.1177,114.3859,718.0725,115.39,727.87" style="stroke:#008000;stroke-width:1;"/><path d="M139.5,667 L139.5,693 L294.5,693 L294.5,677 L284.5,667 L139.5,667 " fill="#FEFFDD" style="stroke:#181818;stroke-width:0.5;"/><path d="M284.5,667 L284.5,677 L294.5,677 L284.5,667 " fill="#FEFFDD" style="stroke:#181818;stroke-width:0.5;"/><text fill="#000000" font-family="sans-serif" font-size="13" lengthAdjust="spacing" textLength="134.3989" x="145.5" y="685.4951">Convocatoria mostrada</text></g><!--link abrirConvocatoria to CONVOCATORIAS_ABIERTAS--><g id="link_abrirConvocatoria_CONVOCATORIAS_ABIERTAS"><path d="M314.33,632.26 C327.15,671.45 336.6148,700.3673 343.7448,722.1673 " fill="none" id="abrirConvocatoria-to-CONVOCATORIAS_ABIERTAS" style="stroke:#008000;stroke-width:1;"/><polygon fill="#008000" points="345.61,727.87,346.6141,718.0725,344.0557,723.1177,339.0104,720.5593,345.61,727.87" style="stroke:#008000;stroke-width:1;"/><path d="M340.5,667 L340.5,693 L478.5,693 L478.5,677 L468.5,667 L340.5,667 " fill="#FEFFDD" style="stroke:#181818;stroke-width:0.5;"/><path d="M468.5,667 L468.5,677 L478.5,677 L468.5,667 " fill="#FEFFDD" style="stroke:#181818;stroke-width:0.5;"/><text fill="#000000" font-family="sans-serif" font-size="13" lengthAdjust="spacing" textLength="117.7617" x="346.5" y="685.4951">abrirConvocatorias()</text></g><!--SRC=[ZLFDQXin4BxhAOHxIGgXz5g2mLqdu4iDjiabX39UJLCHhMOxqXhSKcXVfVUU-WX-apv9HxlnhfLD8RidpVVDzysF51wihu6XqivwZFiQTKrkdmvAXGWHjVLlDGGzAPOVRfR5RBDSBMRhZxFtYwlLPhQUg8HVtBwwPqH_Tp7Li6NB1VaTbH29BHo5Ha0hEugUdK_qDwMqV5tUH7vX5i3tu0tDCO9ps35kNzzbvaz9YUD9HCYd3X_QmELsMX2niHuCyUMRxLG7ShQq4ReYTUD1bwSjf3JqfjNgd9yuPLL8LVzrNjiGiOBMjMOCwCLrhtSsDE3iLz0kj-vBC_2SHDLWY0plMkplZrzwS_WT6qVz-V2J4VhJbOpK3E0rbfzbj8mET-0ZXXwPOoZPrgKz_F5zS8LV6Xjif20LIv562YD_abMmZSXMS8DQ95q3hOBG3KN8rUPKDbLglwD0eD8UkqpumdyYhXvHqHD3uKPIpuuIkHBlVbeyJ6HHrSGI6MyqeJVaTiWw7th85_vTgV7bpQxToTiuFWsLRJzBhIZjJ5eThjJBzOUtbpkC5CBP-M3m3m00]--></g></svg>