<svg xmlns="http://www.w3.org/2000/svg" xmlns:xlink="http://www.w3.org/1999/xlink" contentStyleType="text/css" data-diagram-type="STATE" height="795px" preserveAspectRatio="none" style="width:493px;height:795px;background:#FFFFFF;" version="1.1" viewBox="0 0 493 795" width="493px" zoomAndPan="magnify"><?plantuml 1.2026.6?><defs/><g><g class="entity" data-qualified-name="in1" data-source-line="3" id="ent0001"><rect fill="#F1F1F1" height="50" rx="12.5" ry="12.5" style="stroke:#181818;stroke-width:0.5;" width="219.9307" x="120.5" y="7"/><line style="stroke:#181818;stroke-width:0.5;" x1="120.5" x2="340.4307" y1="34.6094" y2="34.6094"/><text fill="#000000" font-family="sans-serif" font-size="14" lengthAdjust="spacing" textLength="199.9307" x="130.5" y="26.5332">CONVOCATORIAS_ABIERTAS</text></g><g class="entity" data-qualified-name="abrirConvocatoria" data-source-line="6" id="ent0002"><path d="M41.5,118 L419.5,118 A12.5,12.5 0 0 1 432,130.5 L432,145.6094 L29,145.6094 L29,130.5 A12.5,12.5 0 0 1 41.5,118" fill="#F1F1F1"/><rect fill="none" height="516.6094" rx="12.5" ry="12.5" style="stroke:#181818;stroke-width:0.5;" width="403" x="29" y="118"/><line style="stroke:#181818;stroke-width:0.5;" x1="29" x2="432" y1="145.6094" y2="145.6094"/><text fill="#000000" font-family="sans-serif" font-size="14" lengthAdjust="spacing" textLength="119.8203" x="170.5898" y="137.5332">abrirConvocatoria()</text><g class="entity" data-qualified-name="abrirConvocatoria.CargandoDetalle" data-source-line="8" id="ent0003"><rect fill="#F1F1F1" height="50" rx="12.5" ry="12.5" style="stroke:#181818;stroke-width:0.5;" width="50" x="41" y="248.6094"/><line style="stroke:#181818;stroke-width:0.5;" x1="41" x2="91" y1="276.2188" y2="276.2188"/><text fill="#000000" font-family="sans-serif" font-size="14" lengthAdjust="spacing" textLength="3.8896" x="64.0552" y="268.1426">&#160;</text></g><g class="start_entity" data-qualified-name="abrirConvocatoria..start.abrirConvocatoria" data-source-line="10" id="ent0005"><ellipse cx="66" cy="166.6094" fill="#222222" rx="10" ry="10" style="stroke:#222222;stroke-width:1;"/></g><g class="end_entity" data-qualified-name="abrirConvocatoria..end.abrirConvocatoria" data-source-line="15" id="ent0007"><ellipse cx="66" cy="610.6094" fill="none" rx="11" ry="11" style="stroke:#222222;stroke-width:1;"/><ellipse cx="66" cy="610.6094" fill="#222222" rx="6" ry="6" style="stroke:#222222;stroke-width:1;"/></g><!--link *start*abrirConvocatoria to CargandoDetalle--><g class="link" data-entity-1="ent0005" data-entity-2="ent0003" data-link-type="dependency" data-source-line="10" id="lnk6"><path d="M66,176.9294 C66,192.7894 66,220.5194 66,243.2494" fill="none" id="*start*abrirConvocatoria-to-CargandoDetalle" style="stroke:#008000;stroke-width:1;"/><polygon fill="#008000" points="66,248.2494,70,239.2494,66,243.2494,62,239.2494,66,248.2494" style="stroke:#008000;stroke-width:1;stroke-linejoin:miter;stroke-miterlimit:10;"/><path d="M71,199.6094 L71,225.6094 L345,225.6094 L345,209.6094 L335,199.6094 L71,199.6094" fill="#FEFFDD" style="stroke:#181818;stroke-width:0.5;"/><path d="M335,199.6094 L335,209.6094 L345,209.6094 L335,199.6094" fill="#FEFFDD" style="stroke:#181818;stroke-width:0.5;"/><text fill="#000000" font-family="sans-serif" font-size="13" font-weight="700" lengthAdjust="spacing" textLength="77.9937" x="77" y="218.1045">Coordinador</text><text fill="#000000" font-family="sans-serif" font-size="13" lengthAdjust="spacing" textLength="171.9771" x="158.6055" y="218.1045">solicita abrir una convocatoria</text></g><!--link CargandoDetalle to *end*abrirConvocatoria--><g class="link" data-entity-1="ent0003" data-entity-2="ent0007" data-link-type="dependency" data-source-line="15" id="lnk8"><path d="M66,298.6994 C66,365.9094 66,548.5394 66,594.3994" fill="none" id="CargandoDetalle-to-*end*abrirConvocatoria" style="stroke:#008000;stroke-width:1;"/><polygon fill="#008000" points="66,599.3994,70,590.3994,66,594.3994,62,590.3994,66,599.3994" style="stroke:#008000;stroke-width:1;stroke-linejoin:miter;stroke-miterlimit:10;"/><path d="M71,321.6094 L71,576.6094 L408,576.6094 L408,331.6094 L398,321.6094 L71,321.6094" fill="#FEFFDD" style="stroke:#181818;stroke-width:0.5;"/><path d="M398,321.6094 L398,331.6094 L408,331.6094 L398,321.6094" fill="#FEFFDD" style="stroke:#181818;stroke-width:0.5;"/><text fill="#000000" font-family="sans-serif" font-size="13" font-weight="700" lengthAdjust="spacing" textLength="49.8608" x="77" y="340.1045">Sistema</text><text fill="#000000" font-family="sans-serif" font-size="13" lengthAdjust="spacing" textLength="263.0278" x="130.4727" y="340.1045">presenta y visualiza la convocatoria solicitada</text><text fill="#000000" font-family="sans-serif" font-size="13" font-weight="700" lengthAdjust="spacing" textLength="49.8608" x="77" y="356.4561">Sistema</text><text fill="#000000" font-family="sans-serif" font-size="13" lengthAdjust="spacing" textLength="50.5718" x="130.4727" y="356.4561">muestra:</text><text fill="#000000" font-family="sans-serif" font-size="13" lengthAdjust="spacing" textLength="41.4058" x="77" y="372.8076">&#8226; T&#237;tulo</text><text fill="#000000" font-family="sans-serif" font-size="13" lengthAdjust="spacing" textLength="36.353" x="77" y="389.1592">&#8226; &#193;rea</text><text fill="#000000" font-family="sans-serif" font-size="13" lengthAdjust="spacing" textLength="49.3657" x="77" y="405.5107">&#8226; Estado</text><text fill="#000000" font-family="sans-serif" font-size="13" lengthAdjust="spacing" textLength="115.1147" x="77" y="421.8623">&#8226; Fechas relevantes</text><text fill="#000000" font-family="sans-serif" font-size="13" lengthAdjust="spacing" textLength="76.8066" x="77" y="438.2139">&#8226; Descripci&#243;n</text><text fill="#000000" font-family="sans-serif" font-size="13" lengthAdjust="spacing" textLength="151.9692" x="77" y="454.5654">&#8226; Requisitos y condiciones</text><text fill="#000000" font-family="sans-serif" font-size="13" lengthAdjust="spacing" textLength="204.001" x="77" y="470.917">&#8226; Criterios de evaluaci&#243;n y dotaci&#243;n</text><text fill="#000000" font-family="sans-serif" font-size="13" lengthAdjust="spacing" textLength="154.8701" x="77" y="487.2686">&#8226; Documentaci&#243;n asociada</text><text fill="#000000" font-family="sans-serif" font-size="13" lengthAdjust="spacing" textLength="147.6401" x="77" y="503.6201">&#8226; Informaci&#243;n de contacto</text><text fill="#000000" font-family="sans-serif" font-size="13" lengthAdjust="spacing" textLength="3.6118" x="77" y="519.9717">&#160;</text><text fill="#000000" font-family="sans-serif" font-size="13" font-weight="700" lengthAdjust="spacing" textLength="49.8608" x="77" y="536.3232">Sistema</text><text fill="#000000" font-family="sans-serif" font-size="13" lengthAdjust="spacing" textLength="94.6372" x="130.4727" y="536.3232">permite solicitar:</text><text fill="#000000" font-family="sans-serif" font-size="13" lengthAdjust="spacing" textLength="134.6147" x="77" y="552.6748">&#8226; Importar convocatoria</text><text fill="#000000" font-family="sans-serif" font-size="13" lengthAdjust="spacing" textLength="140.4038" x="77" y="569.0264">&#8226; Volver a convocatorias</text></g></g><g class="entity" data-qualified-name="CONVOCATORIA_ABIERTA" data-source-line="35" id="ent0009"><rect fill="#F1F1F1" height="50" rx="12.5" ry="12.5" style="stroke:#181818;stroke-width:0.5;" width="201.2549" x="7" y="731"/><line style="stroke:#181818;stroke-width:0.5;" x1="7" x2="208.2549" y1="758.6094" y2="758.6094"/><text fill="#000000" font-family="sans-serif" font-size="14" lengthAdjust="spacing" textLength="181.2549" x="17" y="750.5332">CONVOCATORIA_ABIERTA</text></g><g class="entity" data-qualified-name="CONVOCATORIAS_ABIERTAS" data-source-line="40" id="ent0011"><rect fill="#F1F1F1" height="50" rx="12.5" ry="12.5" style="stroke:#181818;stroke-width:0.5;" width="219.9307" x="243.5" y="731"/><line style="stroke:#181818;stroke-width:0.5;" x1="243.5" x2="463.4307" y1="758.6094" y2="758.6094"/><text fill="#000000" font-family="sans-serif" font-size="14" lengthAdjust="spacing" textLength="199.9307" x="253.5" y="750.5332">CONVOCATORIAS_ABIERTAS</text></g><!--link in1 to abrirConvocatoria--><g class="link" data-entity-1="ent0001" data-entity-2="ent0002" data-link-type="dependency" data-source-line="4" id="lnk4"><path d="M230.5,57.08 C230.5,72.23 230.5,88.52 230.5,112.99" fill="none" id="in1-to-abrirConvocatoria" style="stroke:#008000;stroke-width:1;"/><polygon fill="#008000" points="230.5,117.99,234.5,108.99,230.5,112.99,226.5,108.99,230.5,117.99" style="stroke:#008000;stroke-width:1;stroke-linejoin:miter;stroke-miterlimit:10;"/></g><!--link abrirConvocatoria to CONVOCATORIA_ABIERTA--><g class="link" data-entity-1="ent0002" data-entity-2="ent0009" data-link-type="dependency" data-source-line="35" id="lnk10"><path d="M146.59,635.04 C133.79,674.32 124.0398,704.2462 116.9198,726.0862" fill="none" id="abrirConvocatoria-to-CONVOCATORIA_ABIERTA" style="stroke:#008000;stroke-width:1;"/><polygon fill="#008000" points="115.37,730.84,121.9626,723.523,116.9198,726.0862,114.3566,721.0434,115.37,730.84" style="stroke:#008000;stroke-width:1;stroke-linejoin:miter;stroke-miterlimit:10;"/><path d="M139.5,670 L139.5,696 L294.5,696 L294.5,680 L284.5,670 L139.5,670" fill="#FEFFDD" style="stroke:#181818;stroke-width:0.5;"/><path d="M284.5,670 L284.5,680 L294.5,680 L284.5,670" fill="#FEFFDD" style="stroke:#181818;stroke-width:0.5;"/><text fill="#000000" font-family="sans-serif" font-size="13" lengthAdjust="spacing" textLength="134.3989" x="145.5" y="688.4951">Convocatoria mostrada</text></g><!--link abrirConvocatoria to CONVOCATORIAS_ABIERTAS--><g class="link" data-entity-1="ent0002" data-entity-2="ent0011" data-link-type="dependency" data-source-line="40" id="lnk12"><path d="M314.41,635.04 C327.21,674.32 336.9602,704.2462 344.0802,726.0862" fill="none" id="abrirConvocatoria-to-CONVOCATORIAS_ABIERTAS" style="stroke:#008000;stroke-width:1;"/><polygon fill="#008000" points="345.63,730.84,346.6434,721.0434,344.0802,726.0862,339.0374,723.523,345.63,730.84" style="stroke:#008000;stroke-width:1;stroke-linejoin:miter;stroke-miterlimit:10;"/><path d="M340.5,670 L340.5,696 L478.5,696 L478.5,680 L468.5,670 L340.5,670" fill="#FEFFDD" style="stroke:#181818;stroke-width:0.5;"/><path d="M468.5,670 L468.5,680 L478.5,680 L468.5,670" fill="#FEFFDD" style="stroke:#181818;stroke-width:0.5;"/><text fill="#000000" font-family="sans-serif" font-size="13" lengthAdjust="spacing" textLength="117.7617" x="346.5" y="688.4951">abrirConvocatorias()</text></g><?plantuml-src ZLFDQXin4BxhAOHxIGgXz5g2mLqdu4iDjiabX39UJLCHhMOxqXhSKcXVfVUU-WX-apv9HxlnhfLD8RidpVVDzysF51wihu6XqivwZFiQTKrkdmvAXGWHjVLlDGGzAPOVRfR5RBDSBMRhZxFtYwlLPhQUg8HVtBwwPqH_Tp7Li6NB1VaTbH29BHo5Ha0hEugUdK_qDwMqV5tUH7vX5i3tu0tDCO9ps35kNzzbvaz9YUD9HCYd3X_QmELsMX2niHuCyUMRxLG7ShQq4ReYTUD1bwSjf3JqfjNgd9yuPLL8LVzrNjiGiOBMjMOCwCLrhtSsDE3iLz0kj-vBC_2SHDLWY0plMkplZrzwS_WT6qVz-V2J4VhJbOpK3E0rbfzbj8mET-0ZXXwPOoZPrgKz_F5zS8LV6Xjif20LIv562YD_abMmZSXMS8DQ95q3hOBG3KN8rUPKDbLglwD0eD8UkqpumdyYhXvHqHD3uKPIpuuIkHBlVbeyJ6HHrSGI6MyqeJVaTiWw7th85_vTgV7bpQxToTiuFWsLRJzBhIZjJ5eThjJBzOUtbpkC5CBP-M3m3m00?></g></svg>