<svg xmlns="http://www.w3.org/2000/svg" xmlns:xlink="http://www.w3.org/1999/xlink" contentStyleType="text/css" data-diagram-type="STATE" height="732px" preserveAspectRatio="none" style="width:757px;height:732px;background:#FFFFFF;" version="1.1" viewBox="0 0 757 732" width="757px" zoomAndPan="magnify"><?plantuml 1.2026.6?><defs/><g><g class="entity" data-qualified-name="in1" data-source-line="3" id="ent0001"><rect fill="#F1F1F1" height="50" rx="12.5" ry="12.5" style="stroke:#181818;stroke-width:0.5;" width="345.9785" x="170" y="7"/><line style="stroke:#181818;stroke-width:0.5;" x1="170" x2="515.9785" y1="34.6094" y2="34.6094"/><text fill="#000000" font-family="sans-serif" font-size="14" lengthAdjust="spacing" textLength="325.9785" x="180" y="26.5332">SOLICITUDES_ELIMINACION_PERFIL_ABIERTAS</text></g><g class="entity" data-qualified-name="abrirSolicitudEliminacionPerfil" data-source-line="9" id="ent0002"><path d="M130.5,153 L555.5,153 A12.5,12.5 0 0 1 568,165.5 L568,180.6094 L118,180.6094 L118,165.5 A12.5,12.5 0 0 1 130.5,153" fill="#F1F1F1"/><rect fill="none" height="418.6094" rx="12.5" ry="12.5" style="stroke:#181818;stroke-width:0.5;" width="450" x="118" y="153"/><line style="stroke:#181818;stroke-width:0.5;" x1="118" x2="568" y1="180.6094" y2="180.6094"/><text fill="#000000" font-family="sans-serif" font-size="14" lengthAdjust="spacing" textLength="193.7305" x="246.1348" y="172.5332">abrirSolicitudEliminacionPerfil()</text><g class="entity" data-qualified-name="abrirSolicitudEliminacionPerfil.CargandoDetalle" data-source-line="11" id="ent0003"><rect fill="#F1F1F1" height="50" rx="12.5" ry="12.5" style="stroke:#181818;stroke-width:0.5;" width="50" x="130" y="283.6094"/><line style="stroke:#181818;stroke-width:0.5;" x1="130" x2="180" y1="311.2188" y2="311.2188"/><text fill="#000000" font-family="sans-serif" font-size="14" lengthAdjust="spacing" textLength="3.8896" x="153.0552" y="303.1426">&#160;</text></g><g class="start_entity" data-qualified-name="abrirSolicitudEliminacionPerfil..start.abrirSolicitudEliminacionPerfil" data-source-line="13" id="ent0005"><ellipse cx="155" cy="201.6094" fill="#222222" rx="10" ry="10" style="stroke:#222222;stroke-width:1;"/></g><g class="end_entity" data-qualified-name="abrirSolicitudEliminacionPerfil..end.abrirSolicitudEliminacionPerfil" data-source-line="18" id="ent0007"><ellipse cx="155" cy="547.6094" fill="none" rx="11" ry="11" style="stroke:#222222;stroke-width:1;"/><ellipse cx="155" cy="547.6094" fill="#222222" rx="6" ry="6" style="stroke:#222222;stroke-width:1;"/></g><!--link *start*abrirSolicitudEliminacionPerfil to CargandoDetalle--><g class="link" data-entity-1="ent0005" data-entity-2="ent0003" data-link-type="dependency" data-source-line="13" id="lnk6"><path d="M155,211.9294 C155,227.7894 155,255.5194 155,278.2494" fill="none" id="*start*abrirSolicitudEliminacionPerfil-to-CargandoDetalle" style="stroke:#008000;stroke-width:1;"/><polygon fill="#008000" points="155,283.2494,159,274.2494,155,278.2494,151,274.2494,155,283.2494" style="stroke:#008000;stroke-width:1;stroke-linejoin:miter;stroke-miterlimit:10;"/><path d="M160,234.6094 L160,260.6094 L544,260.6094 L544,244.6094 L534,234.6094 L160,234.6094" fill="#FEFFDD" style="stroke:#181818;stroke-width:0.5;"/><path d="M534,234.6094 L534,244.6094 L544,244.6094 L534,234.6094" fill="#FEFFDD" style="stroke:#181818;stroke-width:0.5;"/><text fill="#000000" font-family="sans-serif" font-size="13" font-weight="700" lengthAdjust="spacing" textLength="77.9937" x="166" y="253.1045">Coordinador</text><text fill="#000000" font-family="sans-serif" font-size="13" lengthAdjust="spacing" textLength="281.8105" x="247.6055" y="253.1045">solicita abrir una solicitud de eliminaci&#243;n de perfil</text></g><!--link CargandoDetalle to *end*abrirSolicitudEliminacionPerfil--><g class="link" data-entity-1="ent0003" data-entity-2="ent0007" data-link-type="dependency" data-source-line="18" id="lnk8"><path d="M155,333.6394 C155,384.4794 155,496.1394 155,531.3594" fill="none" id="CargandoDetalle-to-*end*abrirSolicitudEliminacionPerfil" style="stroke:#008000;stroke-width:1;"/><polygon fill="#008000" points="155,536.3594,159,527.3594,155,531.3594,151,527.3594,155,536.3594" style="stroke:#008000;stroke-width:1;stroke-linejoin:miter;stroke-miterlimit:10;"/><path d="M160,356.6094 L160,513.6094 L520,513.6094 L520,366.6094 L510,356.6094 L160,356.6094" fill="#FEFFDD" style="stroke:#181818;stroke-width:0.5;"/><path d="M510,356.6094 L510,366.6094 L520,366.6094 L510,356.6094" fill="#FEFFDD" style="stroke:#181818;stroke-width:0.5;"/><text fill="#000000" font-family="sans-serif" font-size="13" font-weight="700" lengthAdjust="spacing" textLength="49.8608" x="166" y="375.1045">Sistema</text><text fill="#000000" font-family="sans-serif" font-size="13" lengthAdjust="spacing" textLength="286.1587" x="219.4727" y="375.1045">presenta y visualiza la solicitud seleccionada con:</text><text fill="#000000" font-family="sans-serif" font-size="13" lengthAdjust="spacing" textLength="116.562" x="166" y="391.4561">&#8226; ID del investigador</text><text fill="#000000" font-family="sans-serif" font-size="13" lengthAdjust="spacing" textLength="55.1294" x="166" y="407.8076">&#8226; Nombre</text><text fill="#000000" font-family="sans-serif" font-size="13" lengthAdjust="spacing" textLength="113.6738" x="166" y="424.1592">&#8226; Fecha de solicitud</text><text fill="#000000" font-family="sans-serif" font-size="13" lengthAdjust="spacing" textLength="47.1821" x="166" y="440.5107">&#8226; Motivo</text><text fill="#000000" font-family="sans-serif" font-size="13" lengthAdjust="spacing" textLength="3.6118" x="166" y="456.8623">&#160;</text><text fill="#000000" font-family="sans-serif" font-size="13" font-weight="700" lengthAdjust="spacing" textLength="49.8608" x="166" y="473.2139">Sistema</text><text fill="#000000" font-family="sans-serif" font-size="13" lengthAdjust="spacing" textLength="94.6372" x="219.4727" y="473.2139">permite solicitar:</text><text fill="#000000" font-family="sans-serif" font-size="13" lengthAdjust="spacing" textLength="87.6357" x="166" y="489.5654">&#8226; Eliminar perfil</text><text fill="#000000" font-family="sans-serif" font-size="13" lengthAdjust="spacing" textLength="257.4673" x="166" y="505.917">&#8226; Volver a solicitudes de eliminaci&#243;n de perfil</text></g></g><g class="entity" data-qualified-name="SOLICITUD_ELIMINACION_PERFIL_ABIERTA" data-source-line="32" id="ent0009"><rect fill="#F1F1F1" height="50" rx="12.5" ry="12.5" style="stroke:#181818;stroke-width:0.5;" width="317.9648" x="7" y="668"/><line style="stroke:#181818;stroke-width:0.5;" x1="7" x2="324.9648" y1="695.6094" y2="695.6094"/><text fill="#000000" font-family="sans-serif" font-size="14" lengthAdjust="spacing" textLength="297.9648" x="17" y="687.5332">SOLICITUD_ELIMINACION_PERFIL_ABIERTA</text></g><g class="entity" data-qualified-name="SOLICITUDES_ELIMINACION_PERFIL_ABIERTAS" data-source-line="37" id="ent0011"><rect fill="#F1F1F1" height="50" rx="12.5" ry="12.5" style="stroke:#181818;stroke-width:0.5;" width="345.9785" x="397" y="668"/><line style="stroke:#181818;stroke-width:0.5;" x1="397" x2="742.9785" y1="695.6094" y2="695.6094"/><text fill="#000000" font-family="sans-serif" font-size="14" lengthAdjust="spacing" textLength="325.9785" x="407" y="687.5332">SOLICITUDES_ELIMINACION_PERFIL_ABIERTAS</text></g><!--link in1 to abrirSolicitudEliminacionPerfil--><g class="link" data-entity-1="ent0001" data-entity-2="ent0002" data-link-type="dependency" data-source-line="4" id="lnk4"><path d="M343,57.16 C343,79.23 343,109.24 343,147.77" fill="none" id="in1-to-abrirSolicitudEliminacionPerfil" style="stroke:#008000;stroke-width:1;"/><polygon fill="#008000" points="343,152.77,347,143.77,343,147.77,339,143.77,343,152.77" style="stroke:#008000;stroke-width:1;stroke-linejoin:miter;stroke-miterlimit:10;"/><path d="M348,92 L348,118 L548,118 L548,102 L538,92 L348,92" fill="#FEFFDD" style="stroke:#181818;stroke-width:0.5;"/><path d="M538,92 L538,102 L548,102 L538,92" fill="#FEFFDD" style="stroke:#181818;stroke-width:0.5;"/><text fill="#000000" font-family="sans-serif" font-size="13" lengthAdjust="spacing" textLength="179.8926" x="354" y="110.4951">abrirSolicitudEliminacionPerfil()</text></g><!--link abrirSolicitudEliminacionPerfil to SOLICITUD_ELIMINACION_PERFIL_ABIERTA--><g class="link" data-entity-1="ent0002" data-entity-2="ent0009" data-link-type="dependency" data-source-line="32" id="lnk10"><path d="M185.43,572.28 C171.77,590.38 163,602 163,602 C163,602 163,638 163,638 C163,638 163.5821,648.4777 164.3821,662.8477" fill="none" id="abrirSolicitudEliminacionPerfil-to-SOLICITUD_ELIMINACION_PERFIL_ABIERTA" style="stroke:#008000;stroke-width:1;"/><polygon fill="#008000" points="164.66,667.84,168.1535,658.6316,164.3821,662.8477,160.1659,659.0763,164.66,667.84" style="stroke:#008000;stroke-width:1;stroke-linejoin:miter;stroke-miterlimit:10;"/><path d="M168,607 L168,633 L295,633 L295,617 L285,607 L168,607" fill="#FEFFDD" style="stroke:#181818;stroke-width:0.5;"/><path d="M285,607 L285,617 L295,617 L285,607" fill="#FEFFDD" style="stroke:#181818;stroke-width:0.5;"/><text fill="#000000" font-family="sans-serif" font-size="13" lengthAdjust="spacing" textLength="106.939" x="174" y="625.4951">Solicitud mostrada</text></g><!--link abrirSolicitudEliminacionPerfil to SOLICITUDES_ELIMINACION_PERFIL_ABIERTAS--><g class="link" data-entity-1="ent0002" data-entity-2="ent0011" data-link-type="dependency" data-source-line="37" id="lnk12"><path d="M340.37,572.28 C340.15,590.38 340,602 340,602 C340,602 340,638 340,638 C340,638 401.2424,652.3771 462.5724,666.7771" fill="none" id="abrirSolicitudEliminacionPerfil-to-SOLICITUDES_ELIMINACION_PERFIL_ABIERTAS" style="stroke:#008000;stroke-width:1;"/><polygon fill="#008000" points="467.44,667.92,459.5926,661.9687,462.5724,666.7771,457.764,669.7569,467.44,667.92" style="stroke:#008000;stroke-width:1;stroke-linejoin:miter;stroke-miterlimit:10;"/><path d="M345,607 L345,633 L559,633 L559,617 L549,607 L345,607" fill="#FEFFDD" style="stroke:#181818;stroke-width:0.5;"/><path d="M549,607 L549,617 L559,617 L549,607" fill="#FEFFDD" style="stroke:#181818;stroke-width:0.5;"/><text fill="#000000" font-family="sans-serif" font-size="13" lengthAdjust="spacing" textLength="193.6226" x="351" y="625.4951">abrirSolicitudesEliminacionPerfil()</text></g><!--link abrirSolicitudEliminacionPerfil to SOLICITUDES_ELIMINACION_PERFIL_ABIERTAS--><g class="link" data-entity-1="ent0002" data-entity-2="ent0011" data-link-type="dependency" data-source-line="42" id="lnk13"><path d="M539.96,572.28 C557.04,590.38 568,602 568,602 C568,602 568.7594,636.2212 569.3494,662.8812" fill="none" id="abrirSolicitudEliminacionPerfil-to-SOLICITUDES_ELIMINACION_PERFIL_ABIERTAS-1" style="stroke:#008000;stroke-width:1;"/><polygon fill="#008000" points="569.46,667.88,573.2599,658.7937,569.3494,662.8812,565.2619,658.9707,569.46,667.88" style="stroke:#008000;stroke-width:1;stroke-linejoin:miter;stroke-miterlimit:10;"/><path d="M573,607 L573,633 L677,633 L677,617 L667,607 L573,607" fill="#FEFFDD" style="stroke:#181818;stroke-width:0.5;"/><path d="M667,607 L667,617 L677,617 L667,607" fill="#FEFFDD" style="stroke:#181818;stroke-width:0.5;"/><text fill="#000000" font-family="sans-serif" font-size="13" lengthAdjust="spacing" textLength="83.7891" x="579" y="625.4951">eliminarPerfil()</text></g><?plantuml-src jPDTIiD04CVVznH3VL51n5SfXPgc4AYr6FL5IfacOrswsGsxcq0LmRDu1O_WJJo9kusDZH-j22PFipiVl_dlZ9bpcQF630INP1SvGQx4mXkC6OkMWCiZG0Ej-6mG1T75PI-C9-4WEes6tI0w6qv6uNa_6aow9r5uVj6DMym775plp3IH71zq0AUQwrW9dd1RfA7W6PUOS2L7f6-uO5AvAafwWZdRuhoxnqYcu4DMV5iYbknRixRWdZ5mNvMpvNuN5w2UeKnLZomAGPN7zVwuqTvd9-_JQCaVjAUTG2cTkhAfqkt3QGTCXODL0r18N1qLAQG4jA9yUPRUpYkrVBOF2Rpr2Q01vs1_18gviPJX4YRNP4Wwc0MKt1Ge-1s2M2So92Znac6Aa2Xvl4pp-lW4KS_X2JSd9HdBPxx1-cweigccsknJSek-cJflVNMgB2yL-nQETCPj7OJwe_RxK-frTVpvbH8bQLXhWCnlHNrWswQm8N6z5nkseZdZTMB8bB7Q2Resr7yglNabDsqOcSqxzkyuxo-YlzP-0m00?></g></svg>