<svg xmlns="http://www.w3.org/2000/svg" xmlns:xlink="http://www.w3.org/1999/xlink" contentStyleType="text/css" data-diagram-type="STATE" height="699px" preserveAspectRatio="none" style="width:731px;height:699px;background:#FFFFFF;" version="1.1" viewBox="0 0 731 699" width="731px" zoomAndPan="magnify"><?plantuml 1.2026.3?><defs/><g><g class="entity" data-qualified-name="in1" id="ent0002"><rect fill="#F1F1F1" height="50" rx="12.5" ry="12.5" style="stroke:#181818;stroke-width:0.5;" width="345.9785" x="176" y="7"/><line style="stroke:#181818;stroke-width:0.5;" x1="176" x2="521.9785" y1="34.6094" y2="34.6094"/><text fill="#000000" font-family="sans-serif" font-size="14" lengthAdjust="spacing" textLength="325.9785" x="186" y="26.5332">SOLICITUDES_ELIMINACION_PERFIL_ABIERTAS</text></g><path d="M136.5,153 L561.5,153 A12.5,12.5 0 0 1 574,165.5 L574,180.6094 L124,180.6094 L124,165.5 A12.5,12.5 0 0 1 136.5,153" fill="#F1F1F1"/><rect fill="none" height="385.6094" rx="12.5" ry="12.5" style="stroke:#181818;stroke-width:0.5;" width="450" x="124" y="153"/><line style="stroke:#181818;stroke-width:0.5;" x1="124" x2="574" y1="180.6094" y2="180.6094"/><text fill="#000000" font-family="sans-serif" font-size="14" lengthAdjust="spacing" textLength="193.7305" x="252.1348" y="172.5332">abrirSolicitudEliminacionPerfil()</text><g class="entity" data-qualified-name="abrirSolicitudEliminacionPerfil.CargandoDetalle" id="ent0004"><rect fill="#F1F1F1" height="50" rx="12.5" ry="12.5" style="stroke:#181818;stroke-width:0.5;" width="50" x="136" y="283.6094"/><line style="stroke:#181818;stroke-width:0.5;" x1="136" x2="186" y1="311.2188" y2="311.2188"/><text fill="#000000" font-family="sans-serif" font-size="14" lengthAdjust="spacing" textLength="3.8896" x="159.0552" y="303.1426">&#160;</text></g><g class="start_entity" data-qualified-name="abrirSolicitudEliminacionPerfil..start.abrirSolicitudEliminacionPerfil" data-source-line="13" id="ent0003"><ellipse cx="161" cy="201.6094" fill="#222222" rx="10" ry="10" style="stroke:#222222;stroke-width:1;"/></g><g class="end_entity" data-qualified-name="abrirSolicitudEliminacionPerfil..end.abrirSolicitudEliminacionPerfil" data-source-line="18" id="ent0005"><ellipse cx="161" cy="514.6094" fill="none" rx="11" ry="11" style="stroke:#222222;stroke-width:1;"/><ellipse cx="161" cy="514.6094" fill="#222222" rx="6" ry="6" style="stroke:#222222;stroke-width:1;"/></g><!--link *start*abrirSolicitudEliminacionPerfil to CargandoDetalle--><g class="link" data-entity-1="ent0003" data-entity-2="ent0004" data-link-type="dependency" data-source-line="13" id="lnk4"><path d="M161,211.9294 C161,227.7894 161,254.5194 161,277.2494" fill="none" id="*start*abrirSolicitudEliminacionPerfil-to-CargandoDetalle" style="stroke:#008000;stroke-width:1;"/><polygon fill="#008000" points="161,283.2494,165,274.2494,161,278.2494,157,274.2494,161,283.2494" style="stroke:#008000;stroke-width:1;"/><path d="M166,234.6094 L166,260.6094 L550,260.6094 L550,244.6094 L540,234.6094 L166,234.6094" fill="#FEFFDD" style="stroke:#181818;stroke-width:0.5;"/><path d="M540,234.6094 L540,244.6094 L550,244.6094 L540,234.6094" fill="#FEFFDD" style="stroke:#181818;stroke-width:0.5;"/><text fill="#000000" font-family="sans-serif" font-size="13" font-weight="700" lengthAdjust="spacing" textLength="77.9937" x="172" y="253.1045">Coordinador</text><text fill="#000000" font-family="sans-serif" font-size="13" lengthAdjust="spacing" textLength="281.8105" x="253.6055" y="253.1045">solicita abrir una solicitud de eliminaci&#243;n de perfil</text></g><!--link CargandoDetalle to *end*abrirSolicitudEliminacionPerfil--><g class="link" data-entity-1="ent0004" data-entity-2="ent0005" data-link-type="dependency" data-source-line="18" id="lnk6"><path d="M161,333.8094 C161,378.5594 161,466.4994 161,497.4694" fill="none" id="CargandoDetalle-to-*end*abrirSolicitudEliminacionPerfil" style="stroke:#008000;stroke-width:1;"/><polygon fill="#008000" points="161,503.4694,165,494.4694,161,498.4694,157,494.4694,161,503.4694" style="stroke:#008000;stroke-width:1;"/><path d="M166,356.6094 L166,480.6094 L526,480.6094 L526,366.6094 L516,356.6094 L166,356.6094" fill="#FEFFDD" style="stroke:#181818;stroke-width:0.5;"/><path d="M516,356.6094 L516,366.6094 L526,366.6094 L516,356.6094" fill="#FEFFDD" style="stroke:#181818;stroke-width:0.5;"/><text fill="#000000" font-family="sans-serif" font-size="13" font-weight="700" lengthAdjust="spacing" textLength="49.8608" x="172" y="375.1045">Sistema</text><text fill="#000000" font-family="sans-serif" font-size="13" lengthAdjust="spacing" textLength="286.1587" x="225.4727" y="375.1045">presenta y visualiza la solicitud seleccionada con:</text><text fill="#000000" font-family="sans-serif" font-size="13" lengthAdjust="spacing" textLength="116.562" x="172" y="391.4561">&#8226; ID del investigador</text><text fill="#000000" font-family="sans-serif" font-size="13" lengthAdjust="spacing" textLength="55.1294" x="172" y="407.8076">&#8226; Nombre</text><text fill="#000000" font-family="sans-serif" font-size="13" lengthAdjust="spacing" textLength="50.8003" x="172" y="424.1592">&#8226; Campo</text><text fill="#000000" font-family="sans-serif" font-size="13" lengthAdjust="spacing" textLength="3.6118" x="172" y="440.5107">&#160;</text><text fill="#000000" font-family="sans-serif" font-size="13" font-weight="700" lengthAdjust="spacing" textLength="49.8608" x="172" y="456.8623">Sistema</text><text fill="#000000" font-family="sans-serif" font-size="13" lengthAdjust="spacing" textLength="94.6372" x="225.4727" y="456.8623">permite solicitar:</text><text fill="#000000" font-family="sans-serif" font-size="13" lengthAdjust="spacing" textLength="257.4673" x="172" y="473.2139">&#8226; Volver a solicitudes de eliminaci&#243;n de perfil</text></g><g class="entity" data-qualified-name="SOLICITUD_ELIMINACION_PERFIL_ABIERTA" id="ent0007"><rect fill="#F1F1F1" height="50" rx="12.5" ry="12.5" style="stroke:#181818;stroke-width:0.5;" width="317.9648" x="7" y="635"/><line style="stroke:#181818;stroke-width:0.5;" x1="7" x2="324.9648" y1="662.6094" y2="662.6094"/><text fill="#000000" font-family="sans-serif" font-size="14" lengthAdjust="spacing" textLength="297.9648" x="17" y="654.5332">SOLICITUD_ELIMINACION_PERFIL_ABIERTA</text></g><g class="entity" data-qualified-name="SOLICITUDES_ELIMINACION_PERFIL_ABIERTAS" id="ent0009"><rect fill="#F1F1F1" height="50" rx="12.5" ry="12.5" style="stroke:#181818;stroke-width:0.5;" width="345.9785" x="360" y="635"/><line style="stroke:#181818;stroke-width:0.5;" x1="360" x2="705.9785" y1="662.6094" y2="662.6094"/><text fill="#000000" font-family="sans-serif" font-size="14" lengthAdjust="spacing" textLength="325.9785" x="370" y="654.5332">SOLICITUDES_ELIMINACION_PERFIL_ABIERTAS</text></g><!--link in1 to abrirSolicitudEliminacionPerfil--><g class="link" data-entity-1="ent0002" data-entity-2="ent0003" data-link-type="dependency" data-source-line="4" id="lnk2"><path d="M349,57.22 C349,79.41 349,108.54 349,146.74" fill="none" id="in1-to-abrirSolicitudEliminacionPerfil" style="stroke:#008000;stroke-width:1;"/><polygon fill="#008000" points="349,152.74,353,143.74,349,147.74,345,143.74,349,152.74" style="stroke:#008000;stroke-width:1;"/><path d="M354,92 L354,118 L554,118 L554,102 L544,92 L354,92" fill="#FEFFDD" style="stroke:#181818;stroke-width:0.5;"/><path d="M544,92 L544,102 L554,102 L544,92" fill="#FEFFDD" style="stroke:#181818;stroke-width:0.5;"/><text fill="#000000" font-family="sans-serif" font-size="13" lengthAdjust="spacing" textLength="179.8926" x="360" y="110.4951">abrirSolicitudEliminacionPerfil()</text></g><!--link abrirSolicitudEliminacionPerfil to SOLICITUD_ELIMINACION_PERFIL_ABIERTA--><g class="link" data-entity-1="ent0003" data-entity-2="ent0007" data-link-type="dependency" data-source-line="30" id="lnk8"><path d="M236.23,539.26 C213.87,577.39 196.3354,607.2744 183.3154,629.4744" fill="none" id="abrirSolicitudEliminacionPerfil-to-SOLICITUD_ELIMINACION_PERFIL_ABIERTA" style="stroke:#008000;stroke-width:1;"/><polygon fill="#008000" points="180.28,634.65,188.2835,628.9103,182.8095,630.337,181.3827,624.8631,180.28,634.65" style="stroke:#008000;stroke-width:1;"/><path d="M221,574 L221,600 L348,600 L348,584 L338,574 L221,574" fill="#FEFFDD" style="stroke:#181818;stroke-width:0.5;"/><path d="M338,574 L338,584 L348,584 L338,574" fill="#FEFFDD" style="stroke:#181818;stroke-width:0.5;"/><text fill="#000000" font-family="sans-serif" font-size="13" lengthAdjust="spacing" textLength="106.939" x="227" y="592.4951">Solicitud mostrada</text></g><!--link abrirSolicitudEliminacionPerfil to SOLICITUDES_ELIMINACION_PERFIL_ABIERTAS--><g class="link" data-entity-1="ent0003" data-entity-2="ent0009" data-link-type="dependency" data-source-line="35" id="lnk10"><path d="M462.39,539.26 C484.87,577.39 502.5025,607.2816 515.5925,629.4816" fill="none" id="abrirSolicitudEliminacionPerfil-to-SOLICITUDES_ELIMINACION_PERFIL_ABIERTAS" style="stroke:#008000;stroke-width:1;"/><polygon fill="#008000" points="518.64,634.65,517.5144,624.8657,516.1004,630.343,510.6231,628.929,518.64,634.65" style="stroke:#008000;stroke-width:1;"/><path d="M502,574 L502,600 L716,600 L716,584 L706,574 L502,574" fill="#FEFFDD" style="stroke:#181818;stroke-width:0.5;"/><path d="M706,574 L706,584 L716,584 L706,574" fill="#FEFFDD" style="stroke:#181818;stroke-width:0.5;"/><text fill="#000000" font-family="sans-serif" font-size="13" lengthAdjust="spacing" textLength="193.6226" x="508" y="592.4951">abrirSolicitudesEliminacionPerfil()</text></g><?plantuml-src dPDHQi9048RVznI3VMaBKlfQHB0nXO1LCROl8Z8cKrdSx8RTLR2bqBFq2Zr2RzAJTDTWDDAQqkHfTcV--UPdrYovp55Z1e9BifkS85TYumF6Z4LBmEKre856FEX5GJH-w8RnBEn5zr6_4qI3_cmOZkwYtgnp6uMZSITkC5_Gd9mjD96SDjk0Syrrh0HFk5sbeU0PbvXm9OUadxXWKhakIdg29Qj9FhzW95Fm9Jk-ceejUwrg0ruO0_SLcWttkxe0zG9bghfaKGWgCYQNqyfunqa-fpAIFsZDsu5IEdLjKwLRL_Csc087Ym5W9N5tj4eX9Q0TvUU7z75UkENLzXRuw0YW0kTWVmMAkR6KuHOcrsH8EfWDhBbPeU3F2EAGo92Wn5k6AKAYvCrMvklj7QAkmnDkJzPaB5_u0Skxlihcciemm2nNx4S0qXbtZ3jNz5x_KOarQJY08VDNWrvPtKPLx2ft_CI6L_Ur58PC6QkTEGSB-g_Mfv_NgTT2vkHx-GO0?></g></svg>