<?xml version="1.0" encoding="us-ascii" standalone="no"?><svg xmlns="http://www.w3.org/2000/svg" xmlns:xlink="http://www.w3.org/1999/xlink" contentStyleType="text/css" height="1489px" preserveAspectRatio="none" style="width:1968px;height:1489px;background:#FFFFFF;" version="1.1" viewBox="0 0 1968 1489" width="1968px" zoomAndPan="magnify"><defs/><g><text fill="#000000" font-family="sans-serif" font-size="14" font-weight="bold" lengthAdjust="spacing" textLength="281" x="844.75" y="29.5332">Diagrama de secuencia - Crear proyecto</text><rect fill="#FFFFFF" height="1244.0859" style="stroke:#181818;stroke-width:1.0;" width="10" x="318.5" y="153.5703"/><rect fill="#FFFFFF" height="289.5156" style="stroke:#181818;stroke-width:1.0;" width="10" x="568.5" y="200.2734"/><rect fill="#FFFFFF" height="385.2188" style="stroke:#181818;stroke-width:1.0;" width="10" x="568.5" y="699.0859"/><rect fill="#FFFFFF" height="151.7578" style="stroke:#181818;stroke-width:1.0;" width="10" x="907" y="291.3281"/><rect fill="#FFFFFF" height="263.8125" style="stroke:#181818;stroke-width:1.0;" width="10" x="907" y="790.1406"/><rect fill="none" height="855.5156" style="stroke:#000000;stroke-width:1.5;" width="1951.5" x="10" y="535.1406"/><rect fill="none" height="370.4063" style="stroke:#000000;stroke-width:1.5;" width="1931.5" x="20" y="1013.25"/><line style="stroke:#181818;stroke-width:0.5;stroke-dasharray:5.0,5.0;" x1="72" x2="72" y1="121.2188" y2="1407.6563"/><line style="stroke:#181818;stroke-width:0.5;stroke-dasharray:5.0,5.0;" x1="323" x2="323" y1="121.2188" y2="1407.6563"/><line style="stroke:#181818;stroke-width:0.5;stroke-dasharray:5.0,5.0;" x1="573.5" x2="573.5" y1="121.2188" y2="1407.6563"/><line style="stroke:#181818;stroke-width:0.5;stroke-dasharray:5.0,5.0;" x1="791.5" x2="791.5" y1="121.2188" y2="1407.6563"/><line style="stroke:#181818;stroke-width:0.5;stroke-dasharray:5.0,5.0;" x1="911.5" x2="911.5" y1="121.2188" y2="1407.6563"/><line style="stroke:#181818;stroke-width:0.5;stroke-dasharray:5.0,5.0;" x1="1186" x2="1186" y1="121.2188" y2="1407.6563"/><line style="stroke:#181818;stroke-width:0.5;stroke-dasharray:5.0,5.0;" x1="1348" x2="1348" y1="121.2188" y2="1407.6563"/><line style="stroke:#181818;stroke-width:0.5;stroke-dasharray:5.0,5.0;" x1="1891.5" x2="1891.5" y1="121.2188" y2="1407.6563"/><text fill="#000000" font-family="sans-serif" font-size="14" lengthAdjust="spacing" textLength="79" x="30" y="118.1426">Coordinador</text><ellipse cx="72.5" cy="52.1094" fill="#E2E2F0" rx="8" ry="8" style="stroke:#181818;stroke-width:0.5;"/><path d="M72.5,60.1094 L72.5,87.1094 M59.5,68.1094 L85.5,68.1094 M72.5,87.1094 L59.5,102.1094 M72.5,87.1094 L85.5,102.1094 " fill="none" style="stroke:#181818;stroke-width:0.5;"/><text fill="#000000" font-family="sans-serif" font-size="14" lengthAdjust="spacing" textLength="79" x="30" y="1421.1895">Coordinador</text><ellipse cx="72.5" cy="1432.7656" fill="#E2E2F0" rx="8" ry="8" style="stroke:#181818;stroke-width:0.5;"/><path d="M72.5,1440.7656 L72.5,1467.7656 M59.5,1448.7656 L85.5,1448.7656 M72.5,1467.7656 L59.5,1482.7656 M72.5,1467.7656 L85.5,1482.7656 " fill="none" style="stroke:#181818;stroke-width:0.5;"/><rect fill="#E2E2F0" height="49.2188" rx="2.5" ry="2.5" style="stroke:#181818;stroke-width:0.5;" width="139" x="254" y="71"/><text fill="#000000" font-family="sans-serif" font-size="14" lengthAdjust="spacing" textLength="125" x="261" y="92.5332">CrearProyectoForm</text><text fill="#000000" font-family="sans-serif" font-size="14" lengthAdjust="spacing" textLength="47" x="300" y="110.1426">(React)</text><rect fill="#E2E2F0" height="49.2188" rx="2.5" ry="2.5" style="stroke:#181818;stroke-width:0.5;" width="139" x="254" y="1406.6563"/><text fill="#000000" font-family="sans-serif" font-size="14" lengthAdjust="spacing" textLength="125" x="261" y="1428.1895">CrearProyectoForm</text><text fill="#000000" font-family="sans-serif" font-size="14" lengthAdjust="spacing" textLength="47" x="300" y="1445.7988">(React)</text><rect fill="#E2E2F0" height="49.2188" rx="2.5" ry="2.5" style="stroke:#181818;stroke-width:0.5;" width="132" x="507.5" y="71"/><text fill="#000000" font-family="sans-serif" font-size="14" lengthAdjust="spacing" textLength="118" x="514.5" y="92.5332">ProyectoController</text><text fill="#000000" font-family="sans-serif" font-size="14" lengthAdjust="spacing" textLength="84" x="531.5" y="110.1426">(Spring Boot)</text><rect fill="#E2E2F0" height="49.2188" rx="2.5" ry="2.5" style="stroke:#181818;stroke-width:0.5;" width="132" x="507.5" y="1406.6563"/><text fill="#000000" font-family="sans-serif" font-size="14" lengthAdjust="spacing" textLength="118" x="514.5" y="1428.1895">ProyectoController</text><text fill="#000000" font-family="sans-serif" font-size="14" lengthAdjust="spacing" textLength="84" x="531.5" y="1445.7988">(Spring Boot)</text><rect fill="#E2E2F0" height="31.6094" rx="2.5" ry="2.5" style="stroke:#181818;stroke-width:0.5;" width="104" x="739.5" y="88.6094"/><text fill="#000000" font-family="sans-serif" font-size="14" lengthAdjust="spacing" textLength="90" x="746.5" y="110.1426">SesionService</text><rect fill="#E2E2F0" height="31.6094" rx="2.5" ry="2.5" style="stroke:#181818;stroke-width:0.5;" width="104" x="739.5" y="1406.6563"/><text fill="#000000" font-family="sans-serif" font-size="14" lengthAdjust="spacing" textLength="90" x="746.5" y="1428.1895">SesionService</text><rect fill="#E2E2F0" height="31.6094" rx="2.5" ry="2.5" style="stroke:#181818;stroke-width:0.5;" width="117" x="853.5" y="88.6094"/><text fill="#000000" font-family="sans-serif" font-size="14" lengthAdjust="spacing" textLength="103" x="860.5" y="110.1426">ProyectoService</text><rect fill="#E2E2F0" height="31.6094" rx="2.5" ry="2.5" style="stroke:#181818;stroke-width:0.5;" width="117" x="853.5" y="1406.6563"/><text fill="#000000" font-family="sans-serif" font-size="14" lengthAdjust="spacing" textLength="103" x="860.5" y="1428.1895">ProyectoService</text><rect fill="#E2E2F0" height="31.6094" rx="2.5" ry="2.5" style="stroke:#181818;stroke-width:0.5;" width="166" x="1103" y="88.6094"/><text fill="#000000" font-family="sans-serif" font-size="14" lengthAdjust="spacing" textLength="152" x="1110" y="110.1426">ConvocatoriaRepository</text><rect fill="#E2E2F0" height="31.6094" rx="2.5" ry="2.5" style="stroke:#181818;stroke-width:0.5;" width="166" x="1103" y="1406.6563"/><text fill="#000000" font-family="sans-serif" font-size="14" lengthAdjust="spacing" textLength="152" x="1110" y="1428.1895">ConvocatoriaRepository</text><rect fill="#E2E2F0" height="31.6094" rx="2.5" ry="2.5" style="stroke:#181818;stroke-width:0.5;" width="138" x="1279" y="88.6094"/><text fill="#000000" font-family="sans-serif" font-size="14" lengthAdjust="spacing" textLength="124" x="1286" y="110.1426">ProyectoRepository</text><rect fill="#E2E2F0" height="31.6094" rx="2.5" ry="2.5" style="stroke:#181818;stroke-width:0.5;" width="138" x="1279" y="1406.6563"/><text fill="#000000" font-family="sans-serif" font-size="14" lengthAdjust="spacing" textLength="124" x="1286" y="1428.1895">ProyectoRepository</text><text fill="#000000" font-family="sans-serif" font-size="14" lengthAdjust="spacing" textLength="93" x="1842.5" y="118.1426">Base de Datos</text><path d="M1874,67.6094 C1874,57.6094 1892,57.6094 1892,57.6094 C1892,57.6094 1910,57.6094 1910,67.6094 L1910,93.6094 C1910,103.6094 1892,103.6094 1892,103.6094 C1892,103.6094 1874,103.6094 1874,93.6094 L1874,67.6094 " fill="#E2E2F0" style="stroke:#181818;stroke-width:1.5;"/><path d="M1874,67.6094 C1874,77.6094 1892,77.6094 1892,77.6094 C1892,77.6094 1910,77.6094 1910,67.6094 " fill="none" style="stroke:#181818;stroke-width:1.5;"/><text fill="#000000" font-family="sans-serif" font-size="14" lengthAdjust="spacing" textLength="93" x="1842.5" y="1421.1895">Base de Datos</text><path d="M1874,1434.2656 C1874,1424.2656 1892,1424.2656 1892,1424.2656 C1892,1424.2656 1910,1424.2656 1910,1434.2656 L1910,1460.2656 C1910,1470.2656 1892,1470.2656 1892,1470.2656 C1892,1470.2656 1874,1470.2656 1874,1460.2656 L1874,1434.2656 " fill="#E2E2F0" style="stroke:#181818;stroke-width:1.5;"/><path d="M1874,1434.2656 C1874,1444.2656 1892,1444.2656 1892,1444.2656 C1892,1444.2656 1910,1444.2656 1910,1434.2656 " fill="none" style="stroke:#181818;stroke-width:1.5;"/><rect fill="#FFFFFF" height="1244.0859" style="stroke:#181818;stroke-width:1.0;" width="10" x="318.5" y="153.5703"/><rect fill="#FFFFFF" height="289.5156" style="stroke:#181818;stroke-width:1.0;" width="10" x="568.5" y="200.2734"/><rect fill="#FFFFFF" height="385.2188" style="stroke:#181818;stroke-width:1.0;" width="10" x="568.5" y="699.0859"/><rect fill="#FFFFFF" height="151.7578" style="stroke:#181818;stroke-width:1.0;" width="10" x="907" y="291.3281"/><rect fill="#FFFFFF" height="263.8125" style="stroke:#181818;stroke-width:1.0;" width="10" x="907" y="790.1406"/><polygon fill="#181818" points="306.5,149.5703,316.5,153.5703,306.5,157.5703,310.5,153.5703" style="stroke:#181818;stroke-width:1.0;"/><line style="stroke:#181818;stroke-width:1.0;" x1="72.5" x2="312.5" y1="153.5703" y2="153.5703"/><text fill="#000000" font-family="sans-serif" font-size="13" lengthAdjust="spacing" textLength="130" x="79.5" y="148.7139">Solicita crear proyecto</text><polygon fill="#181818" points="556.5,196.2734,566.5,200.2734,556.5,204.2734,560.5,200.2734" style="stroke:#181818;stroke-width:1.0;"/><line style="stroke:#181818;stroke-width:1.0;" x1="328.5" x2="562.5" y1="200.2734" y2="200.2734"/><text fill="#000000" font-family="sans-serif" font-size="13" lengthAdjust="spacing" textLength="221" x="335.5" y="179.0654">GET /api/proyectos/opciones-creacion</text><text fill="#000000" font-family="sans-serif" font-size="13" lengthAdjust="spacing" textLength="100" x="335.5" y="195.417">Cookie de sesion</text><polygon fill="#181818" points="779.5,226.625,789.5,230.625,779.5,234.625,783.5,230.625" style="stroke:#181818;stroke-width:1.0;"/><line style="stroke:#181818;stroke-width:1.0;" x1="578.5" x2="785.5" y1="230.625" y2="230.625"/><text fill="#000000" font-family="sans-serif" font-size="13" lengthAdjust="spacing" textLength="189" x="585.5" y="225.7686">exigirCoordinador(authentication)</text><polygon fill="#181818" points="589.5,256.9766,579.5,260.9766,589.5,264.9766,585.5,260.9766" style="stroke:#181818;stroke-width:1.0;"/><line style="stroke:#181818;stroke-width:1.0;stroke-dasharray:2.0,2.0;" x1="583.5" x2="790.5" y1="260.9766" y2="260.9766"/><text fill="#000000" font-family="sans-serif" font-size="13" lengthAdjust="spacing" textLength="140" x="595.5" y="256.1201">Coordinador autenticado</text><polygon fill="#181818" points="895,287.3281,905,291.3281,895,295.3281,899,291.3281" style="stroke:#181818;stroke-width:1.0;"/><line style="stroke:#181818;stroke-width:1.0;" x1="578.5" x2="901" y1="291.3281" y2="291.3281"/><text fill="#000000" font-family="sans-serif" font-size="13" lengthAdjust="spacing" textLength="106" x="585.5" y="286.4717">prepararCreacion()</text><polygon fill="#181818" points="1174,317.6797,1184,321.6797,1174,325.6797,1178,321.6797" style="stroke:#181818;stroke-width:1.0;"/><line style="stroke:#181818;stroke-width:1.0;" x1="917" x2="1180" y1="321.6797" y2="321.6797"/><text fill="#000000" font-family="sans-serif" font-size="13" lengthAdjust="spacing" textLength="118" x="924" y="316.8232">obtenerDisponibles()</text><polygon fill="#181818" points="1880,348.0313,1890,352.0313,1880,356.0313,1884,352.0313" style="stroke:#181818;stroke-width:1.0;"/><line style="stroke:#181818;stroke-width:1.0;" x1="1186" x2="1886" y1="352.0313" y2="352.0313"/><text fill="#000000" font-family="sans-serif" font-size="13" lengthAdjust="spacing" textLength="464" x="1193" y="347.1748">SELECT * FROM convocatorias WHERE disponible = true ORDER BY fecha_fin</text><polygon fill="#181818" points="1197,378.3828,1187,382.3828,1197,386.3828,1193,382.3828" style="stroke:#181818;stroke-width:1.0;"/><line style="stroke:#181818;stroke-width:1.0;stroke-dasharray:2.0,2.0;" x1="1191" x2="1891" y1="382.3828" y2="382.3828"/><text fill="#000000" font-family="sans-serif" font-size="13" lengthAdjust="spacing" textLength="150" x="1203" y="377.5264">Resultado de persistencia</text><polygon fill="#181818" points="928,408.7344,918,412.7344,928,416.7344,924,412.7344" style="stroke:#181818;stroke-width:1.0;"/><line style="stroke:#181818;stroke-width:1.0;stroke-dasharray:2.0,2.0;" x1="922" x2="1185" y1="412.7344" y2="412.7344"/><text fill="#000000" font-family="sans-serif" font-size="13" lengthAdjust="spacing" textLength="149" x="934" y="407.8779">Convocatorias importadas</text><polygon fill="#181818" points="589.5,439.0859,579.5,443.0859,589.5,447.0859,585.5,443.0859" style="stroke:#181818;stroke-width:1.0;"/><line style="stroke:#181818;stroke-width:1.0;stroke-dasharray:2.0,2.0;" x1="583.5" x2="911" y1="443.0859" y2="443.0859"/><text fill="#000000" font-family="sans-serif" font-size="13" lengthAdjust="spacing" textLength="216" x="595.5" y="438.2295">OpcionesCreacionProyectoResponse</text><polygon fill="#181818" points="339.5,485.7891,329.5,489.7891,339.5,493.7891,335.5,489.7891" style="stroke:#181818;stroke-width:1.0;"/><line style="stroke:#181818;stroke-width:1.0;stroke-dasharray:2.0,2.0;" x1="333.5" x2="572.5" y1="489.7891" y2="489.7891"/><text fill="#000000" font-family="sans-serif" font-size="13" lengthAdjust="spacing" textLength="44" x="345.5" y="468.5811">200 OK</text><text fill="#000000" font-family="sans-serif" font-size="13" lengthAdjust="spacing" textLength="126" x="345.5" y="484.9326">Opciones de creacion</text><polygon fill="#181818" points="83.5,516.1406,73.5,520.1406,83.5,524.1406,79.5,520.1406" style="stroke:#181818;stroke-width:1.0;"/><line style="stroke:#181818;stroke-width:1.0;stroke-dasharray:2.0,2.0;" x1="77.5" x2="317.5" y1="520.1406" y2="520.1406"/><text fill="#000000" font-family="sans-serif" font-size="13" lengthAdjust="spacing" textLength="158" x="89.5" y="515.2842">Presenta formulario minimo</text><path d="M10,535.1406 L71,535.1406 L71,543.4922 L61,553.4922 L10,553.4922 L10,535.1406 " fill="#EEEEEE" style="stroke:#000000;stroke-width:1.5;"/><rect fill="none" height="855.5156" style="stroke:#000000;stroke-width:1.5;" width="1951.5" x="10" y="535.1406"/><text fill="#000000" font-family="sans-serif" font-size="13" font-weight="bold" lengthAdjust="spacing" textLength="16" x="25" y="549.6357">alt</text><text fill="#000000" font-family="sans-serif" font-size="11" font-weight="bold" lengthAdjust="spacing" textLength="121" x="86" y="548.5596">[Coordinador cancela]</text><polygon fill="#181818" points="306.5,571.8438,316.5,575.8438,306.5,579.8438,310.5,575.8438" style="stroke:#181818;stroke-width:1.0;"/><line style="stroke:#181818;stroke-width:1.0;" x1="72.5" x2="312.5" y1="575.8438" y2="575.8438"/><text fill="#000000" font-family="sans-serif" font-size="13" lengthAdjust="spacing" textLength="100" x="79.5" y="570.9873">Cancela creacion</text><polygon fill="#181818" points="83.5,602.1953,73.5,606.1953,83.5,610.1953,79.5,606.1953" style="stroke:#181818;stroke-width:1.0;"/><line style="stroke:#181818;stroke-width:1.0;stroke-dasharray:2.0,2.0;" x1="77.5" x2="317.5" y1="606.1953" y2="606.1953"/><text fill="#000000" font-family="sans-serif" font-size="13" lengthAdjust="spacing" textLength="210" x="89.5" y="601.3389">Conserva PROYECTOS_ABIERTOS</text><line style="stroke:#000000;stroke-width:1.0;stroke-dasharray:2.0,2.0;" x1="10" x2="1961.5" y1="615.1953" y2="615.1953"/><text fill="#000000" font-family="sans-serif" font-size="11" font-weight="bold" lengthAdjust="spacing" textLength="118" x="15" y="626.6143">[Coordinador guarda]</text><polygon fill="#181818" points="306.5,648.3828,316.5,652.3828,306.5,656.3828,310.5,652.3828" style="stroke:#181818;stroke-width:1.0;"/><line style="stroke:#181818;stroke-width:1.0;" x1="72.5" x2="312.5" y1="652.3828" y2="652.3828"/><text fill="#000000" font-family="sans-serif" font-size="13" lengthAdjust="spacing" textLength="143" x="79.5" y="647.5264">Introduce datos y guarda</text><polygon fill="#181818" points="556.5,695.0859,566.5,699.0859,556.5,703.0859,560.5,699.0859" style="stroke:#181818;stroke-width:1.0;"/><line style="stroke:#181818;stroke-width:1.0;" x1="328.5" x2="562.5" y1="699.0859" y2="699.0859"/><text fill="#000000" font-family="sans-serif" font-size="13" lengthAdjust="spacing" textLength="121" x="335.5" y="677.8779">POST /api/proyectos</text><text fill="#000000" font-family="sans-serif" font-size="13" lengthAdjust="spacing" textLength="192" x="335.5" y="694.2295">ProyectoCreateRequest + cookie</text><polygon fill="#181818" points="779.5,725.4375,789.5,729.4375,779.5,733.4375,783.5,729.4375" style="stroke:#181818;stroke-width:1.0;"/><line style="stroke:#181818;stroke-width:1.0;" x1="578.5" x2="785.5" y1="729.4375" y2="729.4375"/><text fill="#000000" font-family="sans-serif" font-size="13" lengthAdjust="spacing" textLength="189" x="585.5" y="724.5811">exigirCoordinador(authentication)</text><polygon fill="#181818" points="589.5,755.7891,579.5,759.7891,589.5,763.7891,585.5,759.7891" style="stroke:#181818;stroke-width:1.0;"/><line style="stroke:#181818;stroke-width:1.0;stroke-dasharray:2.0,2.0;" x1="583.5" x2="790.5" y1="759.7891" y2="759.7891"/><text fill="#000000" font-family="sans-serif" font-size="13" lengthAdjust="spacing" textLength="140" x="595.5" y="754.9326">Coordinador autenticado</text><polygon fill="#181818" points="895,786.1406,905,790.1406,895,794.1406,899,790.1406" style="stroke:#181818;stroke-width:1.0;"/><line style="stroke:#181818;stroke-width:1.0;" x1="578.5" x2="901" y1="790.1406" y2="790.1406"/><text fill="#000000" font-family="sans-serif" font-size="13" lengthAdjust="spacing" textLength="144" x="585.5" y="785.2842">crear(datos, coordinador)</text><polygon fill="#181818" points="1174,816.4922,1184,820.4922,1174,824.4922,1178,820.4922" style="stroke:#181818;stroke-width:1.0;"/><line style="stroke:#181818;stroke-width:1.0;" x1="917" x2="1180" y1="820.4922" y2="820.4922"/><text fill="#000000" font-family="sans-serif" font-size="13" lengthAdjust="spacing" textLength="226" x="924" y="815.6357">obtenerImportada(datos.convocatoriaId)</text><polygon fill="#181818" points="1880,846.8438,1890,850.8438,1880,854.8438,1884,850.8438" style="stroke:#181818;stroke-width:1.0;"/><line style="stroke:#181818;stroke-width:1.0;" x1="1186" x2="1886" y1="850.8438" y2="850.8438"/><text fill="#000000" font-family="sans-serif" font-size="13" lengthAdjust="spacing" textLength="404" x="1193" y="845.9873">SELECT * FROM convocatorias WHERE id = ? AND importada = true</text><polygon fill="#181818" points="1197,877.1953,1187,881.1953,1197,885.1953,1193,881.1953" style="stroke:#181818;stroke-width:1.0;"/><line style="stroke:#181818;stroke-width:1.0;stroke-dasharray:2.0,2.0;" x1="1191" x2="1891" y1="881.1953" y2="881.1953"/><text fill="#000000" font-family="sans-serif" font-size="13" lengthAdjust="spacing" textLength="150" x="1203" y="876.3389">Resultado de persistencia</text><polygon fill="#181818" points="928,907.5469,918,911.5469,928,915.5469,924,911.5469" style="stroke:#181818;stroke-width:1.0;"/><line style="stroke:#181818;stroke-width:1.0;stroke-dasharray:2.0,2.0;" x1="922" x2="1185" y1="911.5469" y2="911.5469"/><text fill="#000000" font-family="sans-serif" font-size="13" lengthAdjust="spacing" textLength="115" x="934" y="906.6904">Convocatoria / vacio</text><line style="stroke:#181818;stroke-width:1.0;" x1="917" x2="959" y1="941.8984" y2="941.8984"/><line style="stroke:#181818;stroke-width:1.0;" x1="959" x2="959" y1="941.8984" y2="954.8984"/><line style="stroke:#181818;stroke-width:1.0;" x1="918" x2="959" y1="954.8984" y2="954.8984"/><polygon fill="#181818" points="928,950.8984,918,954.8984,928,958.8984,924,954.8984" style="stroke:#181818;stroke-width:1.0;"/><text fill="#000000" font-family="sans-serif" font-size="13" lengthAdjust="spacing" textLength="162" x="924" y="937.042">validarDatosYFechas(datos)</text><line style="stroke:#181818;stroke-width:1.0;" x1="917" x2="959" y1="985.25" y2="985.25"/><line style="stroke:#181818;stroke-width:1.0;" x1="959" x2="959" y1="985.25" y2="998.25"/><line style="stroke:#181818;stroke-width:1.0;" x1="918" x2="959" y1="998.25" y2="998.25"/><polygon fill="#181818" points="928,994.25,918,998.25,928,1002.25,924,998.25" style="stroke:#181818;stroke-width:1.0;"/><text fill="#000000" font-family="sans-serif" font-size="13" lengthAdjust="spacing" textLength="250" x="924" y="980.3936">asignarCodigoCoordinadorYEstadoCreado()</text><path d="M20,1013.25 L81,1013.25 L81,1021.6016 L71,1031.6016 L20,1031.6016 L20,1013.25 " fill="#EEEEEE" style="stroke:#000000;stroke-width:1.5;"/><rect fill="none" height="370.4063" style="stroke:#000000;stroke-width:1.5;" width="1931.5" x="20" y="1013.25"/><text fill="#000000" font-family="sans-serif" font-size="13" font-weight="bold" lengthAdjust="spacing" textLength="16" x="35" y="1027.7451">alt</text><text fill="#000000" font-family="sans-serif" font-size="11" font-weight="bold" lengthAdjust="spacing" textLength="91" x="96" y="1026.6689">[Datos invalidos]</text><polygon fill="#181818" points="589.5,1049.9531,579.5,1053.9531,589.5,1057.9531,585.5,1053.9531" style="stroke:#181818;stroke-width:1.0;"/><line style="stroke:#181818;stroke-width:1.0;stroke-dasharray:2.0,2.0;" x1="583.5" x2="911" y1="1053.9531" y2="1053.9531"/><text fill="#000000" font-family="sans-serif" font-size="13" lengthAdjust="spacing" textLength="118" x="595.5" y="1049.0967">ValidacionException</text><polygon fill="#181818" points="339.5,1080.3047,329.5,1084.3047,339.5,1088.3047,335.5,1084.3047" style="stroke:#181818;stroke-width:1.0;"/><line style="stroke:#181818;stroke-width:1.0;stroke-dasharray:2.0,2.0;" x1="333.5" x2="572.5" y1="1084.3047" y2="1084.3047"/><text fill="#000000" font-family="sans-serif" font-size="13" lengthAdjust="spacing" textLength="100" x="345.5" y="1079.4482">400 Bad Request</text><polygon fill="#181818" points="83.5,1110.6563,73.5,1114.6563,83.5,1118.6563,79.5,1114.6563" style="stroke:#181818;stroke-width:1.0;"/><line style="stroke:#181818;stroke-width:1.0;stroke-dasharray:2.0,2.0;" x1="77.5" x2="317.5" y1="1114.6563" y2="1114.6563"/><text fill="#000000" font-family="sans-serif" font-size="13" lengthAdjust="spacing" textLength="222" x="89.5" y="1109.7998">Presenta errores y conserva formulario</text><line style="stroke:#000000;stroke-width:1.0;stroke-dasharray:2.0,2.0;" x1="20" x2="1951.5" y1="1123.6563" y2="1123.6563"/><text fill="#000000" font-family="sans-serif" font-size="11" font-weight="bold" lengthAdjust="spacing" textLength="81" x="25" y="1135.0752">[Datos validos]</text><polygon fill="#181818" points="1336,1156.8438,1346,1160.8438,1336,1164.8438,1340,1160.8438" style="stroke:#181818;stroke-width:1.0;"/><line style="stroke:#181818;stroke-width:1.0;" x1="912" x2="1342" y1="1160.8438" y2="1160.8438"/><text fill="#000000" font-family="sans-serif" font-size="13" lengthAdjust="spacing" textLength="101" x="919" y="1155.9873">guardar(proyecto)</text><polygon fill="#181818" points="1880,1203.5469,1890,1207.5469,1880,1211.5469,1884,1207.5469" style="stroke:#181818;stroke-width:1.0;"/><line style="stroke:#181818;stroke-width:1.0;" x1="1348" x2="1886" y1="1207.5469" y2="1207.5469"/><text fill="#000000" font-family="sans-serif" font-size="13" lengthAdjust="spacing" textLength="431" x="1355" y="1186.3389">INSERT INTO proyectos (codigo, nombre, descripcion, area, sede, estado,</text><text fill="#000000" font-family="sans-serif" font-size="13" lengthAdjust="spacing" textLength="520" x="1355" y="1202.6904">fecha_inicio, fecha_fin, convocatoria_id, archivado) VALUES (?, ?, ?, ?, ?, ?, ?, ?, ?, false)</text><polygon fill="#181818" points="1359,1233.8984,1349,1237.8984,1359,1241.8984,1355,1237.8984" style="stroke:#181818;stroke-width:1.0;"/><line style="stroke:#181818;stroke-width:1.0;stroke-dasharray:2.0,2.0;" x1="1353" x2="1891" y1="1237.8984" y2="1237.8984"/><text fill="#000000" font-family="sans-serif" font-size="13" lengthAdjust="spacing" textLength="150" x="1365" y="1233.042">Resultado de persistencia</text><polygon fill="#181818" points="923,1264.25,913,1268.25,923,1272.25,919,1268.25" style="stroke:#181818;stroke-width:1.0;"/><line style="stroke:#181818;stroke-width:1.0;stroke-dasharray:2.0,2.0;" x1="917" x2="1347" y1="1268.25" y2="1268.25"/><text fill="#000000" font-family="sans-serif" font-size="13" lengthAdjust="spacing" textLength="95" x="929" y="1263.3936">Proyecto creado</text><polygon fill="#181818" points="584.5,1294.6016,574.5,1298.6016,584.5,1302.6016,580.5,1298.6016" style="stroke:#181818;stroke-width:1.0;"/><line style="stroke:#181818;stroke-width:1.0;stroke-dasharray:2.0,2.0;" x1="578.5" x2="911" y1="1298.6016" y2="1298.6016"/><text fill="#000000" font-family="sans-serif" font-size="13" lengthAdjust="spacing" textLength="150" x="590.5" y="1293.7451">ProyectoDetalleResponse</text><polygon fill="#181818" points="339.5,1341.3047,329.5,1345.3047,339.5,1349.3047,335.5,1345.3047" style="stroke:#181818;stroke-width:1.0;"/><line style="stroke:#181818;stroke-width:1.0;stroke-dasharray:2.0,2.0;" x1="333.5" x2="572.5" y1="1345.3047" y2="1345.3047"/><text fill="#000000" font-family="sans-serif" font-size="13" lengthAdjust="spacing" textLength="70" x="345.5" y="1324.0967">201 Created</text><text fill="#000000" font-family="sans-serif" font-size="13" lengthAdjust="spacing" textLength="95" x="345.5" y="1340.4482">Proyecto creado</text><polygon fill="#181818" points="83.5,1371.6563,73.5,1375.6563,83.5,1379.6563,79.5,1375.6563" style="stroke:#181818;stroke-width:1.0;"/><line style="stroke:#181818;stroke-width:1.0;stroke-dasharray:2.0,2.0;" x1="77.5" x2="317.5" y1="1375.6563" y2="1375.6563"/><text fill="#000000" font-family="sans-serif" font-size="13" lengthAdjust="spacing" textLength="191" x="89.5" y="1370.7998">Presenta PROYECTO_ABIERTO</text><!--SRC=[dLPjRzis4FwkNt789tjJcgpO9mDj4TlAPgoh0pdj4C10S14l3Z6Pr4ZQQFvzZvIe5yTUsmYsHKXtnxlddkTe9rr9C9UuCRX540IMYXsfGYASmymG6gYCVgR2wIH1_ZKmqze8gL1earHed2naXSh1MJ2_QQoljTckrIWdTXgV0LguDbevKcBe5Erd_DBeiYJ3NglAIBM1gTQDxrKbXsuhibAh5PczB2YOr4-E1n_QXVL1wbhjTO5SdiISAcqbBv-3_U6hupiSE0L3WGuVq1ASJVqlWpldC3OOpAT9qWCIpj-t-4nWfKlUm24KmmOmb7AFZZeeuyBxCqOJ-2ExXGkiv4LqiXUwAXWOikS-cb-k5U_yhwIwtG6rDh87chy-NWte1EYht4ZJItQ4E_T4Ya50nnRZfBQ4yvX4lp2shKs5xWA73aouC68mqSoQn4RZBf7OfkRk_GuxCG7zmC79pAMjj98F9LaESMZcNUTJHZNxcCrkuHUupfT_Gz6pil3FdrcUWMZZm3jmPaUmpETP3jCxUAJY2UyVfKhcqr3eosHoihlISPqUrugCbTO59Ht9g8_2R929t5RQS1IqNUaHrsNJoOXNHpwVjwL4q0ly0kO3Thszl8JbNsiLe_bq8pNw4JmLEdw5ajksJk36aEN68Zooq7Sb6gbXAvNSCarBDw10WQgW4XFWwoJdPxLHbuctFhtzpDThzWWt-VAEsxfStLzD5rdEYuHALbj_eyqEZVZE_Wi_ViIEuHPUfF3SzteXivlbwb1dwxOTlZsESlflHzR1hqmrhxOGQ02kV_3JMlDEFwgtmGODsy986OKQKvzPT1mFyulqgRVxlWGNaRPrw3TzUIt4kC7-jSAKWWNv0Qu-pJjzD18DaL-XoUC9dT8bNC3Uq_8GZzPuZwKKQCA0lxlsmyBMI8nFkg2L6yN3JmkvqRqMtcNMP-nP9FIewGjBAiG6gS9MseRdWzYH3bz2Bbv4sTU2AXVLvAyZ4oA-UZafVkT9CKK13PMF1Oay_d-rjiE2ZD6yPdKLKS3T_0Y1WdZhKayM-XxgxjOADQEemN5hsgVNujEAvmBVRfVjKMfXL0JSKr1w-s0evQ9iOMIOYIaWWv_ouIZu1OLsf6jLdm4yuzWcxKw4T43PUocyU_74-0WzXYzN7pzdAnXzIE7Kvn6vvYxtXim_Gk2kr3wnuXmAMc_6m56YHCCvEUH_NkqnyYgolBty3Uh99xfHU9Z2wvaJvtmSypLP-2-G__R2nb3V0000]--></g></svg>