<svg xmlns="http://www.w3.org/2000/svg" xmlns:xlink="http://www.w3.org/1999/xlink" contentStyleType="text/css" height="1481px" preserveAspectRatio="none" style="width:1942px;height:1481px;background:#FFFFFF;" version="1.1" viewBox="0 0 1942 1481" width="1942px" zoomAndPan="magnify"><title>Diagrama de secuencia - Crear proyecto</title><defs/><g><text fill="#000000" font-family="sans-serif" font-size="14" font-weight="bold" lengthAdjust="spacing" textLength="267.668" x="838.168" y="29.5332">Diagrama de secuencia - Crear proyecto</text><rect fill="#FFFFFF" height="1236.0859" style="stroke:#181818;stroke-width:1;" width="10" x="320.2246" y="153.5703"/><rect fill="#FFFFFF" height="295.5156" style="stroke:#181818;stroke-width:1;" width="10" x="569.6089" y="200.2734"/><rect fill="#FFFFFF" height="371.2188" style="stroke:#181818;stroke-width:1;" width="10" x="569.6089" y="705.0859"/><rect fill="#FFFFFF" height="188.1094" style="stroke:#181818;stroke-width:1;" width="10" x="927.8994" y="260.9766"/><rect fill="#FFFFFF" height="249.8125" style="stroke:#181818;stroke-width:1;" width="10" x="927.8994" y="796.1406"/><rect fill="none" height="841.5156" style="stroke:#000000;stroke-width:1.5;" width="1925.0039" x="10" y="541.1406"/><rect fill="none" height="370.4063" style="stroke:#000000;stroke-width:1.5;" width="1905.0039" x="20" y="1005.25"/><line style="stroke:#181818;stroke-width:0.5;stroke-dasharray:5.0,5.0;" x1="71" x2="71" y1="121.2188" y2="1399.6563"/><line style="stroke:#181818;stroke-width:0.5;stroke-dasharray:5.0,5.0;" x1="324.7661" x2="324.7661" y1="121.2188" y2="1399.6563"/><line style="stroke:#181818;stroke-width:0.5;stroke-dasharray:5.0,5.0;" x1="573.6401" x2="573.6401" y1="121.2188" y2="1399.6563"/><line style="stroke:#181818;stroke-width:0.5;stroke-dasharray:5.0,5.0;" x1="812.4448" x2="812.4448" y1="121.2188" y2="1399.6563"/><line style="stroke:#181818;stroke-width:0.5;stroke-dasharray:5.0,5.0;" x1="931.9341" x2="931.9341" y1="121.2188" y2="1399.6563"/><line style="stroke:#181818;stroke-width:0.5;stroke-dasharray:5.0,5.0;" x1="1162.0298" x2="1162.0298" y1="121.2188" y2="1399.6563"/><line style="stroke:#181818;stroke-width:0.5;stroke-dasharray:5.0,5.0;" x1="1322.436" x2="1322.436" y1="121.2188" y2="1399.6563"/><line style="stroke:#181818;stroke-width:0.5;stroke-dasharray:5.0,5.0;" x1="1865.1699" x2="1865.1699" y1="121.2188" y2="1399.6563"/><text fill="#000000" font-family="sans-serif" font-size="14" lengthAdjust="spacing" textLength="77.0479" x="30" y="118.1426">Coordinador</text><ellipse cx="71.5239" cy="52.1094" fill="#E2E2F0" rx="8" ry="8" style="stroke:#181818;stroke-width:0.5;"/><path d="M71.5239,60.1094 L71.5239,87.1094 M58.5239,68.1094 L84.5239,68.1094 M71.5239,87.1094 L58.5239,102.1094 M71.5239,87.1094 L84.5239,102.1094 " fill="none" style="stroke:#181818;stroke-width:0.5;"/><text fill="#000000" font-family="sans-serif" font-size="14" lengthAdjust="spacing" textLength="77.0479" x="30" y="1413.1895">Coordinador</text><ellipse cx="71.5239" cy="1424.7656" fill="#E2E2F0" rx="8" ry="8" style="stroke:#181818;stroke-width:0.5;"/><path d="M71.5239,1432.7656 L71.5239,1459.7656 M58.5239,1440.7656 L84.5239,1440.7656 M71.5239,1459.7656 L58.5239,1474.7656 M71.5239,1459.7656 L84.5239,1474.7656 " fill="none" style="stroke:#181818;stroke-width:0.5;"/><rect fill="#E2E2F0" height="49.2188" rx="2.5" ry="2.5" style="stroke:#181818;stroke-width:0.5;" width="136.917" x="256.7661" y="71"/><text fill="#000000" font-family="sans-serif" font-size="14" lengthAdjust="spacing" textLength="122.917" x="263.7661" y="92.5332">CrearProyectoForm</text><text fill="#000000" font-family="sans-serif" font-size="14" lengthAdjust="spacing" textLength="45.8965" x="302.2764" y="110.1426">(React)</text><rect fill="#E2E2F0" height="49.2188" rx="2.5" ry="2.5" style="stroke:#181818;stroke-width:0.5;" width="136.917" x="256.7661" y="1398.6563"/><text fill="#000000" font-family="sans-serif" font-size="14" lengthAdjust="spacing" textLength="122.917" x="263.7661" y="1420.1895">CrearProyectoForm</text><text fill="#000000" font-family="sans-serif" font-size="14" lengthAdjust="spacing" textLength="45.8965" x="302.2764" y="1437.7988">(React)</text><rect fill="#E2E2F0" height="49.2188" rx="2.5" ry="2.5" style="stroke:#181818;stroke-width:0.5;" width="129.9375" x="509.6401" y="71"/><text fill="#000000" font-family="sans-serif" font-size="14" lengthAdjust="spacing" textLength="115.9375" x="516.6401" y="92.5332">ProyectoController</text><text fill="#000000" font-family="sans-serif" font-size="14" lengthAdjust="spacing" textLength="82.4824" x="533.3677" y="110.1426">(Spring Boot)</text><rect fill="#E2E2F0" height="49.2188" rx="2.5" ry="2.5" style="stroke:#181818;stroke-width:0.5;" width="129.9375" x="509.6401" y="1398.6563"/><text fill="#000000" font-family="sans-serif" font-size="14" lengthAdjust="spacing" textLength="115.9375" x="516.6401" y="1420.1895">ProyectoController</text><text fill="#000000" font-family="sans-serif" font-size="14" lengthAdjust="spacing" textLength="82.4824" x="533.3677" y="1437.7988">(Spring Boot)</text><rect fill="#E2E2F0" height="31.6094" rx="2.5" ry="2.5" style="stroke:#181818;stroke-width:0.5;" width="103.4893" x="761.4448" y="88.6094"/><text fill="#000000" font-family="sans-serif" font-size="14" lengthAdjust="spacing" textLength="89.4893" x="768.4448" y="110.1426">SesionService</text><rect fill="#E2E2F0" height="31.6094" rx="2.5" ry="2.5" style="stroke:#181818;stroke-width:0.5;" width="103.4893" x="761.4448" y="1398.6563"/><text fill="#000000" font-family="sans-serif" font-size="14" lengthAdjust="spacing" textLength="89.4893" x="768.4448" y="1420.1895">SesionService</text><rect fill="#E2E2F0" height="31.6094" rx="2.5" ry="2.5" style="stroke:#181818;stroke-width:0.5;" width="115.9307" x="874.9341" y="88.6094"/><text fill="#000000" font-family="sans-serif" font-size="14" lengthAdjust="spacing" textLength="101.9307" x="881.9341" y="110.1426">ProyectoService</text><rect fill="#E2E2F0" height="31.6094" rx="2.5" ry="2.5" style="stroke:#181818;stroke-width:0.5;" width="115.9307" x="874.9341" y="1398.6563"/><text fill="#000000" font-family="sans-serif" font-size="14" lengthAdjust="spacing" textLength="101.9307" x="881.9341" y="1420.1895">ProyectoService</text><rect fill="#E2E2F0" height="31.6094" rx="2.5" ry="2.5" style="stroke:#181818;stroke-width:0.5;" width="163.4063" x="1081.0298" y="88.6094"/><text fill="#000000" font-family="sans-serif" font-size="14" lengthAdjust="spacing" textLength="149.4063" x="1088.0298" y="110.1426">ConvocatoriaRepository</text><rect fill="#E2E2F0" height="31.6094" rx="2.5" ry="2.5" style="stroke:#181818;stroke-width:0.5;" width="163.4063" x="1081.0298" y="1398.6563"/><text fill="#000000" font-family="sans-serif" font-size="14" lengthAdjust="spacing" textLength="149.4063" x="1088.0298" y="1420.1895">ConvocatoriaRepository</text><rect fill="#E2E2F0" height="31.6094" rx="2.5" ry="2.5" style="stroke:#181818;stroke-width:0.5;" width="136.165" x="1254.436" y="88.6094"/><text fill="#000000" font-family="sans-serif" font-size="14" lengthAdjust="spacing" textLength="122.165" x="1261.436" y="110.1426">ProyectoRepository</text><rect fill="#E2E2F0" height="31.6094" rx="2.5" ry="2.5" style="stroke:#181818;stroke-width:0.5;" width="136.165" x="1254.436" y="1398.6563"/><text fill="#000000" font-family="sans-serif" font-size="14" lengthAdjust="spacing" textLength="122.165" x="1261.436" y="1420.1895">ProyectoRepository</text><text fill="#000000" font-family="sans-serif" font-size="14" lengthAdjust="spacing" textLength="91.834" x="1817.1699" y="118.1426">Base de Datos</text><path d="M1848.0869,67.6094 C1848.0869,57.6094 1866.0869,57.6094 1866.0869,57.6094 C1866.0869,57.6094 1884.0869,57.6094 1884.0869,67.6094 L1884.0869,93.6094 C1884.0869,103.6094 1866.0869,103.6094 1866.0869,103.6094 C1866.0869,103.6094 1848.0869,103.6094 1848.0869,93.6094 L1848.0869,67.6094 " fill="#E2E2F0" style="stroke:#181818;stroke-width:1.5;"/><path d="M1848.0869,67.6094 C1848.0869,77.6094 1866.0869,77.6094 1866.0869,77.6094 C1866.0869,77.6094 1884.0869,77.6094 1884.0869,67.6094 " fill="none" style="stroke:#181818;stroke-width:1.5;"/><text fill="#000000" font-family="sans-serif" font-size="14" lengthAdjust="spacing" textLength="91.834" x="1817.1699" y="1413.1895">Base de Datos</text><path d="M1848.0869,1426.2656 C1848.0869,1416.2656 1866.0869,1416.2656 1866.0869,1416.2656 C1866.0869,1416.2656 1884.0869,1416.2656 1884.0869,1426.2656 L1884.0869,1452.2656 C1884.0869,1462.2656 1866.0869,1462.2656 1866.0869,1462.2656 C1866.0869,1462.2656 1848.0869,1462.2656 1848.0869,1452.2656 L1848.0869,1426.2656 " fill="#E2E2F0" style="stroke:#181818;stroke-width:1.5;"/><path d="M1848.0869,1426.2656 C1848.0869,1436.2656 1866.0869,1436.2656 1866.0869,1436.2656 C1866.0869,1436.2656 1884.0869,1436.2656 1884.0869,1426.2656 " fill="none" style="stroke:#181818;stroke-width:1.5;"/><rect fill="#FFFFFF" height="1236.0859" style="stroke:#181818;stroke-width:1;" width="10" x="320.2246" y="153.5703"/><rect fill="#FFFFFF" height="295.5156" style="stroke:#181818;stroke-width:1;" width="10" x="569.6089" y="200.2734"/><rect fill="#FFFFFF" height="371.2188" style="stroke:#181818;stroke-width:1;" width="10" x="569.6089" y="705.0859"/><rect fill="#FFFFFF" height="188.1094" style="stroke:#181818;stroke-width:1;" width="10" x="927.8994" y="260.9766"/><rect fill="#FFFFFF" height="249.8125" style="stroke:#181818;stroke-width:1;" width="10" x="927.8994" y="796.1406"/><polygon fill="#181818" points="308.2246,149.5703,318.2246,153.5703,308.2246,157.5703,312.2246,153.5703" style="stroke:#181818;stroke-width:1;"/><line style="stroke:#181818;stroke-width:1;" x1="71.5239" x2="314.2246" y1="153.5703" y2="153.5703"/><text fill="#000000" font-family="sans-serif" font-size="13" lengthAdjust="spacing" textLength="128.6099" x="78.5239" y="148.7139">Solicita crear proyecto</text><polygon fill="#181818" points="557.6089,196.2734,567.6089,200.2734,557.6089,204.2734,561.6089,200.2734" style="stroke:#181818;stroke-width:1;"/><line style="stroke:#181818;stroke-width:1;" x1="330.2246" x2="563.6089" y1="200.2734" y2="200.2734"/><text fill="#000000" font-family="sans-serif" font-size="13" lengthAdjust="spacing" textLength="220.3843" x="337.2246" y="179.0654">GET /api/proyectos/opciones-creacion</text><text fill="#000000" font-family="sans-serif" font-size="13" lengthAdjust="spacing" textLength="99.728" x="337.2246" y="195.417">Cookie de sesion</text><polygon fill="#181818" points="801.1895,226.625,811.1895,230.625,801.1895,234.625,805.1895,230.625" style="stroke:#181818;stroke-width:1;"/><line style="stroke:#181818;stroke-width:1;" x1="579.6089" x2="807.1895" y1="230.625" y2="230.625"/><text fill="#000000" font-family="sans-serif" font-size="13" lengthAdjust="spacing" textLength="209.5806" x="586.6089" y="225.7686">obtenerSesionActual(authentication)</text><polygon fill="#181818" points="590.6089,256.9766,580.6089,260.9766,590.6089,264.9766,586.6089,260.9766" style="stroke:#181818;stroke-width:1;"/><line style="stroke:#181818;stroke-width:1;stroke-dasharray:2.0,2.0;" x1="584.6089" x2="812.1895" y1="260.9766" y2="260.9766"/><text fill="#000000" font-family="sans-serif" font-size="13" lengthAdjust="spacing" textLength="142.3779" x="596.6089" y="256.1201">Coordinador autenticado</text><path d="M942,273.9766 L942,299.9766 L1210,299.9766 L1210,283.9766 L1200,273.9766 L942,273.9766 " fill="#FEFFDD" style="stroke:#181818;stroke-width:0.5;"/><path d="M1200,273.9766 L1200,283.9766 L1210,283.9766 L1200,273.9766 " fill="#FEFFDD" style="stroke:#181818;stroke-width:0.5;"/><text fill="#000000" font-family="sans-serif" font-size="13" lengthAdjust="spacing" textLength="247.8696" x="948" y="292.4717">Responsabilidad interna: prepararCreacion</text><polygon fill="#181818" points="1150.7329,323.6797,1160.7329,327.6797,1150.7329,331.6797,1154.7329,327.6797" style="stroke:#181818;stroke-width:1;"/><line style="stroke:#181818;stroke-width:1;" x1="937.8994" x2="1156.7329" y1="327.6797" y2="327.6797"/><text fill="#000000" font-family="sans-serif" font-size="13" lengthAdjust="spacing" textLength="200.8335" x="944.8994" y="322.8232">findAllByOrderByFechaCierreAsc()</text><polygon fill="#181818" points="1854.0869,354.0313,1864.0869,358.0313,1854.0869,362.0313,1858.0869,358.0313" style="stroke:#181818;stroke-width:1;"/><line style="stroke:#181818;stroke-width:1;" x1="1162.7329" x2="1860.0869" y1="358.0313" y2="358.0313"/><text fill="#000000" font-family="sans-serif" font-size="13" lengthAdjust="spacing" textLength="464.2041" x="1169.7329" y="353.1748">SELECT * FROM convocatorias WHERE disponible = true ORDER BY fecha_fin</text><polygon fill="#181818" points="1173.7329,384.3828,1163.7329,388.3828,1173.7329,392.3828,1169.7329,388.3828" style="stroke:#181818;stroke-width:1;"/><line style="stroke:#181818;stroke-width:1;stroke-dasharray:2.0,2.0;" x1="1167.7329" x2="1865.0869" y1="388.3828" y2="388.3828"/><text fill="#000000" font-family="sans-serif" font-size="13" lengthAdjust="spacing" textLength="149.5889" x="1179.7329" y="383.5264">Resultado de persistencia</text><polygon fill="#181818" points="948.8994,414.7344,938.8994,418.7344,948.8994,422.7344,944.8994,418.7344" style="stroke:#181818;stroke-width:1;"/><line style="stroke:#181818;stroke-width:1;stroke-dasharray:2.0,2.0;" x1="942.8994" x2="1161.7329" y1="418.7344" y2="418.7344"/><text fill="#000000" font-family="sans-serif" font-size="13" lengthAdjust="spacing" textLength="151.0171" x="954.8994" y="413.8779">Convocatorias importadas</text><polygon fill="#181818" points="590.6089,445.0859,580.6089,449.0859,590.6089,453.0859,586.6089,449.0859" style="stroke:#181818;stroke-width:1;"/><line style="stroke:#181818;stroke-width:1;stroke-dasharray:2.0,2.0;" x1="584.6089" x2="931.8994" y1="449.0859" y2="449.0859"/><text fill="#000000" font-family="sans-serif" font-size="13" lengthAdjust="spacing" textLength="216.7852" x="596.6089" y="444.2295">OpcionesCreacionProyectoResponse</text><polygon fill="#181818" points="341.2246,491.7891,331.2246,495.7891,341.2246,499.7891,337.2246,495.7891" style="stroke:#181818;stroke-width:1;"/><line style="stroke:#181818;stroke-width:1;stroke-dasharray:2.0,2.0;" x1="335.2246" x2="573.6089" y1="495.7891" y2="495.7891"/><text fill="#000000" font-family="sans-serif" font-size="13" lengthAdjust="spacing" textLength="44.0845" x="347.2246" y="474.5811">200 OK</text><text fill="#000000" font-family="sans-serif" font-size="13" lengthAdjust="spacing" textLength="125.7407" x="347.2246" y="490.9326">Opciones de creacion</text><polygon fill="#181818" points="82.5239,522.1406,72.5239,526.1406,82.5239,530.1406,78.5239,526.1406" style="stroke:#181818;stroke-width:1;"/><line style="stroke:#181818;stroke-width:1;stroke-dasharray:2.0,2.0;" x1="76.5239" x2="319.2246" y1="526.1406" y2="526.1406"/><text fill="#000000" font-family="sans-serif" font-size="13" lengthAdjust="spacing" textLength="158.9453" x="88.5239" y="521.2842">Presenta formulario minimo</text><path d="M10,541.1406 L70.1709,541.1406 L70.1709,549.4922 L60.1709,559.4922 L10,559.4922 L10,541.1406 " fill="#EEEEEE" style="stroke:#000000;stroke-width:1.5;"/><rect fill="none" height="841.5156" style="stroke:#000000;stroke-width:1.5;" width="1925.0039" x="10" y="541.1406"/><text fill="#000000" font-family="sans-serif" font-size="13" font-weight="bold" lengthAdjust="spacing" textLength="15.1709" x="25" y="555.6357">alt</text><text fill="#000000" font-family="sans-serif" font-size="11" font-weight="bold" lengthAdjust="spacing" textLength="116.7407" x="85.1709" y="554.5596">[Coordinador cancela]</text><polygon fill="#181818" points="308.2246,577.8438,318.2246,581.8438,308.2246,585.8438,312.2246,581.8438" style="stroke:#181818;stroke-width:1;"/><line style="stroke:#181818;stroke-width:1;" x1="71.5239" x2="314.2246" y1="581.8438" y2="581.8438"/><text fill="#000000" font-family="sans-serif" font-size="13" lengthAdjust="spacing" textLength="100.4453" x="78.5239" y="576.9873">Cancela creacion</text><polygon fill="#181818" points="82.5239,608.1953,72.5239,612.1953,82.5239,616.1953,78.5239,612.1953" style="stroke:#181818;stroke-width:1;"/><line style="stroke:#181818;stroke-width:1;stroke-dasharray:2.0,2.0;" x1="76.5239" x2="319.2246" y1="612.1953" y2="612.1953"/><text fill="#000000" font-family="sans-serif" font-size="13" lengthAdjust="spacing" textLength="213.8398" x="88.5239" y="607.3389">Conserva PROYECTOS_ABIERTOS</text><line style="stroke:#000000;stroke-width:1;stroke-dasharray:2.0,2.0;" x1="10" x2="1935.0039" y1="621.1953" y2="621.1953"/><text fill="#000000" font-family="sans-serif" font-size="11" font-weight="bold" lengthAdjust="spacing" textLength="113.0508" x="15" y="632.6143">[Coordinador guarda]</text><polygon fill="#181818" points="308.2246,654.3828,318.2246,658.3828,308.2246,662.3828,312.2246,658.3828" style="stroke:#181818;stroke-width:1;"/><line style="stroke:#181818;stroke-width:1;" x1="71.5239" x2="314.2246" y1="658.3828" y2="658.3828"/><text fill="#000000" font-family="sans-serif" font-size="13" lengthAdjust="spacing" textLength="143.8188" x="78.5239" y="653.5264">Introduce datos y guarda</text><polygon fill="#181818" points="557.6089,701.0859,567.6089,705.0859,557.6089,709.0859,561.6089,705.0859" style="stroke:#181818;stroke-width:1;"/><line style="stroke:#181818;stroke-width:1;" x1="330.2246" x2="563.6089" y1="705.0859" y2="705.0859"/><text fill="#000000" font-family="sans-serif" font-size="13" lengthAdjust="spacing" textLength="119.939" x="337.2246" y="683.8779">POST /api/proyectos</text><text fill="#000000" font-family="sans-serif" font-size="13" lengthAdjust="spacing" textLength="191.1343" x="337.2246" y="700.2295">ProyectoCreateRequest + cookie</text><polygon fill="#181818" points="801.1895,731.4375,811.1895,735.4375,801.1895,739.4375,805.1895,735.4375" style="stroke:#181818;stroke-width:1;"/><line style="stroke:#181818;stroke-width:1;" x1="579.6089" x2="807.1895" y1="735.4375" y2="735.4375"/><text fill="#000000" font-family="sans-serif" font-size="13" lengthAdjust="spacing" textLength="209.5806" x="586.6089" y="730.5811">obtenerSesionActual(authentication)</text><polygon fill="#181818" points="590.6089,761.7891,580.6089,765.7891,590.6089,769.7891,586.6089,765.7891" style="stroke:#181818;stroke-width:1;"/><line style="stroke:#181818;stroke-width:1;stroke-dasharray:2.0,2.0;" x1="584.6089" x2="812.1895" y1="765.7891" y2="765.7891"/><text fill="#000000" font-family="sans-serif" font-size="13" lengthAdjust="spacing" textLength="142.3779" x="596.6089" y="760.9326">Coordinador autenticado</text><polygon fill="#181818" points="915.8994,792.1406,925.8994,796.1406,915.8994,800.1406,919.8994,796.1406" style="stroke:#181818;stroke-width:1;"/><line style="stroke:#181818;stroke-width:1;" x1="579.6089" x2="921.8994" y1="796.1406" y2="796.1406"/><text fill="#000000" font-family="sans-serif" font-size="13" lengthAdjust="spacing" textLength="145.958" x="586.6089" y="791.2842">crear(datos, coordinador)</text><polygon fill="#181818" points="1150.7329,822.4922,1160.7329,826.4922,1150.7329,830.4922,1154.7329,826.4922" style="stroke:#181818;stroke-width:1;"/><line style="stroke:#181818;stroke-width:1;" x1="937.8994" x2="1156.7329" y1="826.4922" y2="826.4922"/><text fill="#000000" font-family="sans-serif" font-size="13" lengthAdjust="spacing" textLength="175.5952" x="944.8994" y="821.6357">findById(datos.convocatoriaId)</text><polygon fill="#181818" points="1854.0869,852.8438,1864.0869,856.8438,1854.0869,860.8438,1858.0869,856.8438" style="stroke:#181818;stroke-width:1;"/><line style="stroke:#181818;stroke-width:1;" x1="1162.7329" x2="1860.0869" y1="856.8438" y2="856.8438"/><text fill="#000000" font-family="sans-serif" font-size="13" lengthAdjust="spacing" textLength="402.416" x="1169.7329" y="851.9873">SELECT * FROM convocatorias WHERE id = ? AND importada = true</text><polygon fill="#181818" points="1173.7329,883.1953,1163.7329,887.1953,1173.7329,891.1953,1169.7329,887.1953" style="stroke:#181818;stroke-width:1;"/><line style="stroke:#181818;stroke-width:1;stroke-dasharray:2.0,2.0;" x1="1167.7329" x2="1865.0869" y1="887.1953" y2="887.1953"/><text fill="#000000" font-family="sans-serif" font-size="13" lengthAdjust="spacing" textLength="149.5889" x="1179.7329" y="882.3389">Resultado de persistencia</text><polygon fill="#181818" points="948.8994,913.5469,938.8994,917.5469,948.8994,921.5469,944.8994,917.5469" style="stroke:#181818;stroke-width:1;"/><line style="stroke:#181818;stroke-width:1;stroke-dasharray:2.0,2.0;" x1="942.8994" x2="1161.7329" y1="917.5469" y2="917.5469"/><text fill="#000000" font-family="sans-serif" font-size="13" lengthAdjust="spacing" textLength="117.7808" x="954.8994" y="912.6904">Convocatoria / vacio</text><path d="M942,930.5469 L942,956.5469 L1233,956.5469 L1233,940.5469 L1223,930.5469 L942,930.5469 " fill="#FEFFDD" style="stroke:#181818;stroke-width:0.5;"/><path d="M1223,930.5469 L1223,940.5469 L1233,940.5469 L1223,930.5469 " fill="#FEFFDD" style="stroke:#181818;stroke-width:0.5;"/><text fill="#000000" font-family="sans-serif" font-size="13" lengthAdjust="spacing" textLength="270.2642" x="948" y="949.042">Responsabilidad interna: validarDatosYFechas</text><path d="M942,966.8984 L942,992.8984 L1356,992.8984 L1356,976.8984 L1346,966.8984 L942,966.8984 " fill="#FEFFDD" style="stroke:#181818;stroke-width:0.5;"/><path d="M1346,966.8984 L1346,976.8984 L1356,976.8984 L1346,966.8984 " fill="#FEFFDD" style="stroke:#181818;stroke-width:0.5;"/><text fill="#000000" font-family="sans-serif" font-size="13" lengthAdjust="spacing" textLength="393.8657" x="948" y="985.3936">Responsabilidad interna: asignarCodigoCoordinadorYEstadoCreado</text><path d="M20,1005.25 L80.1709,1005.25 L80.1709,1013.6016 L70.1709,1023.6016 L20,1023.6016 L20,1005.25 " fill="#EEEEEE" style="stroke:#000000;stroke-width:1.5;"/><rect fill="none" height="370.4063" style="stroke:#000000;stroke-width:1.5;" width="1905.0039" x="20" y="1005.25"/><text fill="#000000" font-family="sans-serif" font-size="13" font-weight="bold" lengthAdjust="spacing" textLength="15.1709" x="35" y="1019.7451">alt</text><text fill="#000000" font-family="sans-serif" font-size="11" font-weight="bold" lengthAdjust="spacing" textLength="88.623" x="95.1709" y="1018.6689">[Datos invalidos]</text><polygon fill="#181818" points="590.6089,1041.9531,580.6089,1045.9531,590.6089,1049.9531,586.6089,1045.9531" style="stroke:#181818;stroke-width:1;"/><line style="stroke:#181818;stroke-width:1;stroke-dasharray:2.0,2.0;" x1="584.6089" x2="931.8994" y1="1045.9531" y2="1045.9531"/><text fill="#000000" font-family="sans-serif" font-size="13" lengthAdjust="spacing" textLength="117.0762" x="596.6089" y="1041.0967">ValidacionException</text><polygon fill="#181818" points="341.2246,1072.3047,331.2246,1076.3047,341.2246,1080.3047,337.2246,1076.3047" style="stroke:#181818;stroke-width:1;"/><line style="stroke:#181818;stroke-width:1;stroke-dasharray:2.0,2.0;" x1="335.2246" x2="573.6089" y1="1076.3047" y2="1076.3047"/><text fill="#000000" font-family="sans-serif" font-size="13" lengthAdjust="spacing" textLength="100.4644" x="347.2246" y="1071.4482">400 Bad Request</text><polygon fill="#181818" points="82.5239,1102.6563,72.5239,1106.6563,82.5239,1110.6563,78.5239,1106.6563" style="stroke:#181818;stroke-width:1;"/><line style="stroke:#181818;stroke-width:1;stroke-dasharray:2.0,2.0;" x1="76.5239" x2="319.2246" y1="1106.6563" y2="1106.6563"/><text fill="#000000" font-family="sans-serif" font-size="13" lengthAdjust="spacing" textLength="224.7007" x="88.5239" y="1101.7998">Presenta errores y conserva formulario</text><line style="stroke:#000000;stroke-width:1;stroke-dasharray:2.0,2.0;" x1="20" x2="1925.0039" y1="1115.6563" y2="1115.6563"/><text fill="#000000" font-family="sans-serif" font-size="11" font-weight="bold" lengthAdjust="spacing" textLength="78.8477" x="25" y="1127.0752">[Datos validos]</text><polygon fill="#181818" points="1310.5186,1148.8438,1320.5186,1152.8438,1310.5186,1156.8438,1314.5186,1152.8438" style="stroke:#181818;stroke-width:1;"/><line style="stroke:#181818;stroke-width:1;" x1="932.8994" x2="1316.5186" y1="1152.8438" y2="1152.8438"/><text fill="#000000" font-family="sans-serif" font-size="13" lengthAdjust="spacing" textLength="85.979" x="939.8994" y="1147.9873">save(proyecto)</text><polygon fill="#181818" points="1854.0869,1195.5469,1864.0869,1199.5469,1854.0869,1203.5469,1858.0869,1199.5469" style="stroke:#181818;stroke-width:1;"/><line style="stroke:#181818;stroke-width:1;" x1="1322.5186" x2="1860.0869" y1="1199.5469" y2="1199.5469"/><text fill="#000000" font-family="sans-serif" font-size="13" lengthAdjust="spacing" textLength="431.3613" x="1329.5186" y="1178.3389">INSERT INTO proyectos (codigo, nombre, descripcion, area, sede, estado,</text><text fill="#000000" font-family="sans-serif" font-size="13" lengthAdjust="spacing" textLength="519.5684" x="1329.5186" y="1194.6904">fecha_inicio, fecha_fin, convocatoria_id, archivado) VALUES (?, ?, ?, ?, ?, ?, ?, ?, ?, false)</text><polygon fill="#181818" points="1333.5186,1225.8984,1323.5186,1229.8984,1333.5186,1233.8984,1329.5186,1229.8984" style="stroke:#181818;stroke-width:1;"/><line style="stroke:#181818;stroke-width:1;stroke-dasharray:2.0,2.0;" x1="1327.5186" x2="1865.0869" y1="1229.8984" y2="1229.8984"/><text fill="#000000" font-family="sans-serif" font-size="13" lengthAdjust="spacing" textLength="149.5889" x="1339.5186" y="1225.042">Resultado de persistencia</text><polygon fill="#181818" points="943.8994,1256.25,933.8994,1260.25,943.8994,1264.25,939.8994,1260.25" style="stroke:#181818;stroke-width:1;"/><line style="stroke:#181818;stroke-width:1;stroke-dasharray:2.0,2.0;" x1="937.8994" x2="1321.5186" y1="1260.25" y2="1260.25"/><text fill="#000000" font-family="sans-serif" font-size="13" lengthAdjust="spacing" textLength="94.6626" x="949.8994" y="1255.3936">Proyecto creado</text><polygon fill="#181818" points="585.6089,1286.6016,575.6089,1290.6016,585.6089,1294.6016,581.6089,1290.6016" style="stroke:#181818;stroke-width:1;"/><line style="stroke:#181818;stroke-width:1;stroke-dasharray:2.0,2.0;" x1="579.6089" x2="931.8994" y1="1290.6016" y2="1290.6016"/><text fill="#000000" font-family="sans-serif" font-size="13" lengthAdjust="spacing" textLength="150.3062" x="591.6089" y="1285.7451">ProyectoDetalleResponse</text><polygon fill="#181818" points="341.2246,1333.3047,331.2246,1337.3047,341.2246,1341.3047,337.2246,1337.3047" style="stroke:#181818;stroke-width:1;"/><line style="stroke:#181818;stroke-width:1;stroke-dasharray:2.0,2.0;" x1="335.2246" x2="573.6089" y1="1337.3047" y2="1337.3047"/><text fill="#000000" font-family="sans-serif" font-size="13" lengthAdjust="spacing" textLength="71.5508" x="347.2246" y="1316.0967">201 Created</text><text fill="#000000" font-family="sans-serif" font-size="13" lengthAdjust="spacing" textLength="94.6626" x="347.2246" y="1332.4482">Proyecto creado</text><polygon fill="#181818" points="82.5239,1363.6563,72.5239,1367.6563,82.5239,1371.6563,78.5239,1367.6563" style="stroke:#181818;stroke-width:1;"/><line style="stroke:#181818;stroke-width:1;stroke-dasharray:2.0,2.0;" x1="76.5239" x2="319.2246" y1="1367.6563" y2="1367.6563"/><text fill="#000000" font-family="sans-serif" font-size="13" lengthAdjust="spacing" textLength="192.8926" x="88.5239" y="1362.7998">Presenta PROYECTO_ABIERTO</text><!--SRC=[dLPjR-964FxkNp7A9sX9avxw2Qbtmk2qgDSZWlIgI4ZHu1t8gcRNtLtGyUyxk_PYcq3l3XJ0iUVrcUUPnKbN44maRWnk4GI1fNn7AfS8jp0sX0PAem-KEvqao9y6nbeR8HKARP8IZPEvB54vk0dcZxNrWpRRfUhDYPtwDu0M7enMZfJeEaNxCJyqkYZ8iDUYD59j8DMwzXsLikks82krMf3Povo2INNdVF2kNRW-ALshlSwHsvCufr9RoPU7O7_ww7o64wTWAD3X2Yt1JUe_6Tm9Xx71O98cIGj8k7r_n6S82rrm0eUGTmV0KCezEcgWZ1VUdp4Qmc_P4znXAU-YaxtJPSx0aBtrqVpbKd7cVoHLumwe7IDxeFdjurM03a6lE0EPwjzHxdPOz73dNaan3EZuPZ-f7i9jBAFT6jjMfa8dIdCE8pUl3lGwZcB8SDbIAuihMKY10YGtPHGEkNLYkD6CwzARGkCOwszVyEcaXh2MIeoA8ZtCZ22J7XueVyMn96DePFDUFpbryM4cAKyW-vYDd-07U9ZF_eIyPMNXxz-pUGP2-fBbYkNpApYp8vZD9zaSqcTO-omld3kPf06IjuLnmxl2CI9-1YKPAwqBgZjJKHX53TIuKudSbjfm5BGD3742ithg4Rc6g05gIWIzmJ8CliF4T_VtCFjZgM8qNswaKJk2fqt3nT3oaG13U3HacG88QruAkmADrB2LIcwPqeNha2L7bLE12V3heZx6bL5JYRU-d7xi-pLxXCVvx9d7EbkyZD9fDkUBX0fMPZlHPeT6V2N_rAygiMEuXHSq7DfURoJvE5kSQd9v78SVZwCv_RiZw-17fffNPWZK0TVVk4ANtkrRjTb9KVCjBA1Uw7BWQukE_Mw5aK1Lkgy8CZrCHHNofxQmfg9Vetwj9ALWANw0qQT9eunQd27o5MeyNz0bHS8Tx3qXltlDxT7VCE5uU0vBodvt3BHoetXJQY4tkZNZvypwrZpHwY5xpOLKx1moQnlkTwONsV8vbEPLbdt9gNHHRlvrPeN4HszNoI-yIb8kkERwkI2HwFylv-CsuJMk-PhbbqU5Dmic10hghbgzsEXxg4XWSK-zgD3-qQvDmUcd1MyD_dgQ7Gzb2xqyG3u0fRShGmFkoEP6Xeqv06JS1tpC2dv0OHA3fQfE2Dw0R3Depej1XzOlKdZt_9N14ReFdqSV_yeMqFimW4j_Q-I6czfhmdyBoPjMs-IEMohiWPezPraI3IVaa7_37G-PgvZoxlvdgFQYQ1RbQGdNqoQU0l4Gg9Z2FwRyknKsXleF]--></g></svg>