<?xml version="1.0" encoding="us-ascii" standalone="no"?><svg xmlns="http://www.w3.org/2000/svg" xmlns:xlink="http://www.w3.org/1999/xlink" contentStyleType="text/css" height="795px" preserveAspectRatio="none" style="width:1319px;height:795px;background:#FFFFFF;" version="1.1" viewBox="0 0 1319 795" width="1319px" zoomAndPan="magnify"><defs/><g><text fill="#000000" font-family="sans-serif" font-size="14" font-weight="bold" lengthAdjust="spacing" textLength="305" x="508" y="29.5332">Diagrama de secuencia - Retirar entregable</text><rect fill="none" height="497.8125" style="stroke:#000000;stroke-width:1.5;" width="1302" x="10" y="198.9219"/><line style="stroke:#181818;stroke-width:0.5;stroke-dasharray:5.0,5.0;" x1="62" x2="62" y1="121.2188" y2="713.7344"/><line style="stroke:#181818;stroke-width:0.5;stroke-dasharray:5.0,5.0;" x1="312.5" x2="312.5" y1="121.2188" y2="713.7344"/><line style="stroke:#181818;stroke-width:0.5;stroke-dasharray:5.0,5.0;" x1="544" x2="544" y1="121.2188" y2="713.7344"/><line style="stroke:#181818;stroke-width:0.5;stroke-dasharray:5.0,5.0;" x1="757.5" x2="757.5" y1="121.2188" y2="713.7344"/><line style="stroke:#181818;stroke-width:0.5;stroke-dasharray:5.0,5.0;" x1="884.5" x2="884.5" y1="121.2188" y2="713.7344"/><line style="stroke:#181818;stroke-width:0.5;stroke-dasharray:5.0,5.0;" x1="1118" x2="1118" y1="121.2188" y2="713.7344"/><text fill="#000000" font-family="sans-serif" font-size="14" lengthAdjust="spacing" textLength="79" x="20" y="118.1426">Coordinador</text><ellipse cx="62.5" cy="52.1094" fill="#E2E2F0" rx="8" ry="8" style="stroke:#181818;stroke-width:0.5;"/><path d="M62.5,60.1094 L62.5,87.1094 M49.5,68.1094 L75.5,68.1094 M62.5,87.1094 L49.5,102.1094 M62.5,87.1094 L75.5,102.1094 " fill="none" style="stroke:#181818;stroke-width:0.5;"/><text fill="#000000" font-family="sans-serif" font-size="14" lengthAdjust="spacing" textLength="79" x="20" y="727.2676">Coordinador</text><ellipse cx="62.5" cy="738.8438" fill="#E2E2F0" rx="8" ry="8" style="stroke:#181818;stroke-width:0.5;"/><path d="M62.5,746.8438 L62.5,773.8438 M49.5,754.8438 L75.5,754.8438 M62.5,773.8438 L49.5,788.8438 M62.5,773.8438 L75.5,788.8438 " fill="none" style="stroke:#181818;stroke-width:0.5;"/><rect fill="#E2E2F0" height="49.2188" rx="2.5" ry="2.5" style="stroke:#181818;stroke-width:0.5;" width="160" x="232.5" y="71"/><text fill="#000000" font-family="sans-serif" font-size="14" lengthAdjust="spacing" textLength="146" x="239.5" y="92.5332">EntregableDetallePage</text><text fill="#000000" font-family="sans-serif" font-size="14" lengthAdjust="spacing" textLength="47" x="289" y="110.1426">(React)</text><rect fill="#E2E2F0" height="49.2188" rx="2.5" ry="2.5" style="stroke:#181818;stroke-width:0.5;" width="160" x="232.5" y="712.7344"/><text fill="#000000" font-family="sans-serif" font-size="14" lengthAdjust="spacing" textLength="146" x="239.5" y="734.2676">EntregableDetallePage</text><text fill="#000000" font-family="sans-serif" font-size="14" lengthAdjust="spacing" textLength="47" x="289" y="751.877">(React)</text><rect fill="#E2E2F0" height="49.2188" rx="2.5" ry="2.5" style="stroke:#181818;stroke-width:0.5;" width="145" x="472" y="71"/><text fill="#000000" font-family="sans-serif" font-size="14" lengthAdjust="spacing" textLength="131" x="479" y="92.5332">EntregableController</text><text fill="#000000" font-family="sans-serif" font-size="14" lengthAdjust="spacing" textLength="84" x="502.5" y="110.1426">(Spring Boot)</text><rect fill="#E2E2F0" height="49.2188" rx="2.5" ry="2.5" style="stroke:#181818;stroke-width:0.5;" width="145" x="472" y="712.7344"/><text fill="#000000" font-family="sans-serif" font-size="14" lengthAdjust="spacing" textLength="131" x="479" y="734.2676">EntregableController</text><text fill="#000000" font-family="sans-serif" font-size="14" lengthAdjust="spacing" textLength="84" x="502.5" y="751.877">(Spring Boot)</text><rect fill="#E2E2F0" height="31.6094" rx="2.5" ry="2.5" style="stroke:#181818;stroke-width:0.5;" width="104" x="705.5" y="88.6094"/><text fill="#000000" font-family="sans-serif" font-size="14" lengthAdjust="spacing" textLength="90" x="712.5" y="110.1426">SesionService</text><rect fill="#E2E2F0" height="31.6094" rx="2.5" ry="2.5" style="stroke:#181818;stroke-width:0.5;" width="104" x="705.5" y="712.7344"/><text fill="#000000" font-family="sans-serif" font-size="14" lengthAdjust="spacing" textLength="90" x="712.5" y="734.2676">SesionService</text><rect fill="#E2E2F0" height="31.6094" rx="2.5" ry="2.5" style="stroke:#181818;stroke-width:0.5;" width="130" x="819.5" y="88.6094"/><text fill="#000000" font-family="sans-serif" font-size="14" lengthAdjust="spacing" textLength="116" x="826.5" y="110.1426">EntregableService</text><rect fill="#E2E2F0" height="31.6094" rx="2.5" ry="2.5" style="stroke:#181818;stroke-width:0.5;" width="130" x="819.5" y="712.7344"/><text fill="#000000" font-family="sans-serif" font-size="14" lengthAdjust="spacing" textLength="116" x="826.5" y="734.2676">EntregableService</text><rect fill="#E2E2F0" height="31.6094" rx="2.5" ry="2.5" style="stroke:#181818;stroke-width:0.5;" width="151" x="1043" y="88.6094"/><text fill="#000000" font-family="sans-serif" font-size="14" lengthAdjust="spacing" textLength="137" x="1050" y="110.1426">EntregableRepository</text><rect fill="#E2E2F0" height="31.6094" rx="2.5" ry="2.5" style="stroke:#181818;stroke-width:0.5;" width="151" x="1043" y="712.7344"/><text fill="#000000" font-family="sans-serif" font-size="14" lengthAdjust="spacing" textLength="137" x="1050" y="734.2676">EntregableRepository</text><polygon fill="#181818" points="300.5,149.5703,310.5,153.5703,300.5,157.5703,304.5,153.5703" style="stroke:#181818;stroke-width:1.0;"/><line style="stroke:#181818;stroke-width:1.0;" x1="62.5" x2="306.5" y1="153.5703" y2="153.5703"/><text fill="#000000" font-family="sans-serif" font-size="13" lengthAdjust="spacing" textLength="144" x="69.5" y="148.7139">Solicita retirar entregable</text><polygon fill="#181818" points="73.5,179.9219,63.5,183.9219,73.5,187.9219,69.5,183.9219" style="stroke:#181818;stroke-width:1.0;"/><line style="stroke:#181818;stroke-width:1.0;stroke-dasharray:2.0,2.0;" x1="67.5" x2="311.5" y1="183.9219" y2="183.9219"/><text fill="#000000" font-family="sans-serif" font-size="13" lengthAdjust="spacing" textLength="226" x="79.5" y="179.0654">Presenta confirmacion y solicita motivo</text><path d="M10,198.9219 L71,198.9219 L71,207.2734 L61,217.2734 L10,217.2734 L10,198.9219 " fill="#EEEEEE" style="stroke:#000000;stroke-width:1.5;"/><rect fill="none" height="497.8125" style="stroke:#000000;stroke-width:1.5;" width="1302" x="10" y="198.9219"/><text fill="#000000" font-family="sans-serif" font-size="13" font-weight="bold" lengthAdjust="spacing" textLength="16" x="25" y="213.417">alt</text><text fill="#000000" font-family="sans-serif" font-size="11" font-weight="bold" lengthAdjust="spacing" textLength="121" x="86" y="212.3408">[Coordinador cancela]</text><polygon fill="#181818" points="73.5,235.625,63.5,239.625,73.5,243.625,69.5,239.625" style="stroke:#181818;stroke-width:1.0;"/><line style="stroke:#181818;stroke-width:1.0;stroke-dasharray:2.0,2.0;" x1="67.5" x2="311.5" y1="239.625" y2="239.625"/><text fill="#000000" font-family="sans-serif" font-size="13" lengthAdjust="spacing" textLength="207" x="79.5" y="234.7686">Conserva ENTREGABLE_ABIERTO</text><line style="stroke:#000000;stroke-width:1.0;stroke-dasharray:2.0,2.0;" x1="10" x2="1312" y1="248.625" y2="248.625"/><text fill="#000000" font-family="sans-serif" font-size="11" font-weight="bold" lengthAdjust="spacing" textLength="129" x="15" y="260.0439">[Coordinador confirma]</text><polygon fill="#181818" points="300.5,281.8125,310.5,285.8125,300.5,289.8125,304.5,285.8125" style="stroke:#181818;stroke-width:1.0;"/><line style="stroke:#181818;stroke-width:1.0;" x1="62.5" x2="306.5" y1="285.8125" y2="285.8125"/><text fill="#000000" font-family="sans-serif" font-size="13" lengthAdjust="spacing" textLength="164" x="69.5" y="280.9561">Confirma retirada con motivo</text><polygon fill="#181818" points="532.5,328.5156,542.5,332.5156,532.5,336.5156,536.5,332.5156" style="stroke:#181818;stroke-width:1.0;"/><line style="stroke:#181818;stroke-width:1.0;" x1="312.5" x2="538.5" y1="332.5156" y2="332.5156"/><text fill="#000000" font-family="sans-serif" font-size="13" lengthAdjust="spacing" textLength="208" x="319.5" y="311.3076">PATCH /api/entregables/{id}/retirada</text><text fill="#000000" font-family="sans-serif" font-size="13" lengthAdjust="spacing" textLength="91" x="319.5" y="327.6592">motivo + cookie</text><polygon fill="#181818" points="745.5,358.8672,755.5,362.8672,745.5,366.8672,749.5,362.8672" style="stroke:#181818;stroke-width:1.0;"/><line style="stroke:#181818;stroke-width:1.0;" x1="544.5" x2="751.5" y1="362.8672" y2="362.8672"/><text fill="#000000" font-family="sans-serif" font-size="13" lengthAdjust="spacing" textLength="189" x="551.5" y="358.0107">exigirCoordinador(authentication)</text><polygon fill="#181818" points="555.5,389.2188,545.5,393.2188,555.5,397.2188,551.5,393.2188" style="stroke:#181818;stroke-width:1.0;"/><line style="stroke:#181818;stroke-width:1.0;stroke-dasharray:2.0,2.0;" x1="549.5" x2="756.5" y1="393.2188" y2="393.2188"/><text fill="#000000" font-family="sans-serif" font-size="13" lengthAdjust="spacing" textLength="140" x="561.5" y="388.3623">Coordinador autenticado</text><polygon fill="#181818" points="872.5,419.5703,882.5,423.5703,872.5,427.5703,876.5,423.5703" style="stroke:#181818;stroke-width:1.0;"/><line style="stroke:#181818;stroke-width:1.0;" x1="544.5" x2="878.5" y1="423.5703" y2="423.5703"/><text fill="#000000" font-family="sans-serif" font-size="13" lengthAdjust="spacing" textLength="171" x="551.5" y="418.7139">retirar(id, motivo, coordinador)</text><polygon fill="#181818" points="1106.5,449.9219,1116.5,453.9219,1106.5,457.9219,1110.5,453.9219" style="stroke:#181818;stroke-width:1.0;"/><line style="stroke:#181818;stroke-width:1.0;" x1="884.5" x2="1112.5" y1="453.9219" y2="453.9219"/><text fill="#000000" font-family="sans-serif" font-size="13" lengthAdjust="spacing" textLength="126" x="891.5" y="449.0654">obtenerActivoPorId(id)</text><polygon fill="#181818" points="895.5,480.2734,885.5,484.2734,895.5,488.2734,891.5,484.2734" style="stroke:#181818;stroke-width:1.0;"/><line style="stroke:#181818;stroke-width:1.0;stroke-dasharray:2.0,2.0;" x1="889.5" x2="1117.5" y1="484.2734" y2="484.2734"/><text fill="#000000" font-family="sans-serif" font-size="13" lengthAdjust="spacing" textLength="103" x="901.5" y="479.417">Entregable / vacio</text><polygon fill="#181818" points="1106.5,510.625,1116.5,514.625,1106.5,518.625,1110.5,514.625" style="stroke:#181818;stroke-width:1.0;"/><line style="stroke:#181818;stroke-width:1.0;" x1="884.5" x2="1112.5" y1="514.625" y2="514.625"/><text fill="#000000" font-family="sans-serif" font-size="13" lengthAdjust="spacing" textLength="210" x="891.5" y="509.7686">retirar(id, fecha, coordinador, motivo)</text><polygon fill="#181818" points="895.5,540.9766,885.5,544.9766,895.5,548.9766,891.5,544.9766" style="stroke:#181818;stroke-width:1.0;"/><line style="stroke:#181818;stroke-width:1.0;stroke-dasharray:2.0,2.0;" x1="889.5" x2="1117.5" y1="544.9766" y2="544.9766"/><text fill="#000000" font-family="sans-serif" font-size="13" lengthAdjust="spacing" textLength="109" x="901.5" y="540.1201">Entregable retirado</text><path d="M1123,557.9766 L1123,599.9766 L1302,599.9766 L1302,567.9766 L1292,557.9766 L1123,557.9766 " fill="#FEFFDD" style="stroke:#181818;stroke-width:0.5;"/><path d="M1292,557.9766 L1292,567.9766 L1302,567.9766 L1292,557.9766 " fill="#FEFFDD" style="stroke:#181818;stroke-width:0.5;"/><text fill="#000000" font-family="sans-serif" font-size="13" lengthAdjust="spacing" textLength="158" x="1129" y="576.4717">Conserva autoria, proyecto,</text><text fill="#000000" font-family="sans-serif" font-size="13" lengthAdjust="spacing" textLength="120" x="1129" y="592.8232">archivos y versiones.</text><polygon fill="#181818" points="555.5,624.0313,545.5,628.0313,555.5,632.0313,551.5,628.0313" style="stroke:#181818;stroke-width:1.0;"/><line style="stroke:#181818;stroke-width:1.0;stroke-dasharray:2.0,2.0;" x1="549.5" x2="883.5" y1="628.0313" y2="628.0313"/><text fill="#000000" font-family="sans-serif" font-size="13" lengthAdjust="spacing" textLength="168" x="561.5" y="623.1748">EntregableRetiradoResponse</text><polygon fill="#181818" points="323.5,654.3828,313.5,658.3828,323.5,662.3828,319.5,658.3828" style="stroke:#181818;stroke-width:1.0;"/><line style="stroke:#181818;stroke-width:1.0;stroke-dasharray:2.0,2.0;" x1="317.5" x2="543.5" y1="658.3828" y2="658.3828"/><text fill="#000000" font-family="sans-serif" font-size="13" lengthAdjust="spacing" textLength="44" x="329.5" y="653.5264">200 OK</text><polygon fill="#181818" points="73.5,684.7344,63.5,688.7344,73.5,692.7344,69.5,688.7344" style="stroke:#181818;stroke-width:1.0;"/><line style="stroke:#181818;stroke-width:1.0;stroke-dasharray:2.0,2.0;" x1="67.5" x2="311.5" y1="688.7344" y2="688.7344"/><text fill="#000000" font-family="sans-serif" font-size="13" lengthAdjust="spacing" textLength="224" x="79.5" y="683.8779">Presenta ENTREGABLES_ABIERTOS</text><!--SRC=[XLDDRzim3BtxLn0zfLYo53lcK219iwtOi0PsZWKALcOSOevaK6gmODX_7-MFnCRcxMPPxpq-FbA1Gqdmm5W87X5o0a_cZQnXX1ca55XGW6mGAl2rf0HDS09hvoHdYxcJf489RBX26-1cSq4-KC2of2qMz6mdAIdnzWRGmqTnDf3DnuXhlHQdL55ULWdR0bREjUnbnKDYHfwTpKXERAY6D7_6v8V8-diCcbBbF6k_vneTZqdIQnrczvTk5f2vKZK2WloPMeU2cL9w2WlO2da58XXdzon7DEeTpk0xjQCBV789bg5F18FMK8a9mBYs9kcrGuJDjrsw-RHSVTsyB5UFctJtb53fQIZOrbV5qHRNBQPjCQzTTmxxJkxZdBIvvMxz6UPOyVmQXf__vFpNl9DujWqVtgcO-ywaGagE6iqW5q0_k63fkPhWMpYe8XiCYhXLIeEjCwXBztjGT0FENL-ydlsY6zU4ysdRoZGwwTYDU8sDjBW42t2lgaYoD16-TVAOApqYutLjuY9_NIUOmocEzs-2VHDxCWSSUEYC_RT26seiOLtGCnU706xVx2vSDq8ZSS9QfH9t9dtJKxr5CGUjudNzJYGnJ_BlzNySQPJh6-zoxh-MfdPAlefbkgW76_JXxWwUllnpQoyluhgrMRUsMQAKtm00]--></g></svg>