<?xml version="1.0" encoding="us-ascii" standalone="no"?><svg xmlns="http://www.w3.org/2000/svg" xmlns:xlink="http://www.w3.org/1999/xlink" contentStyleType="text/css" height="966px" preserveAspectRatio="none" style="width:1547px;height:966px;background:#FFFFFF;" version="1.1" viewBox="0 0 1547 966" width="1547px" zoomAndPan="magnify"><defs/><g><text fill="#000000" font-family="sans-serif" font-size="14" font-weight="bold" lengthAdjust="spacing" textLength="305" x="622" y="29.5332">Diagrama de secuencia - Retirar entregable</text><rect fill="none" height="668.2734" style="stroke:#000000;stroke-width:1.5;" width="1530" x="10" y="198.9219"/><line style="stroke:#181818;stroke-width:0.5;stroke-dasharray:5.0,5.0;" x1="62" x2="62" y1="121.2188" y2="884.1953"/><line style="stroke:#181818;stroke-width:0.5;stroke-dasharray:5.0,5.0;" x1="312.5" x2="312.5" y1="121.2188" y2="884.1953"/><line style="stroke:#181818;stroke-width:0.5;stroke-dasharray:5.0,5.0;" x1="544" x2="544" y1="121.2188" y2="884.1953"/><line style="stroke:#181818;stroke-width:0.5;stroke-dasharray:5.0,5.0;" x1="757.5" x2="757.5" y1="121.2188" y2="884.1953"/><line style="stroke:#181818;stroke-width:0.5;stroke-dasharray:5.0,5.0;" x1="884.5" x2="884.5" y1="121.2188" y2="884.1953"/><line style="stroke:#181818;stroke-width:0.5;stroke-dasharray:5.0,5.0;" x1="1118" x2="1118" y1="121.2188" y2="884.1953"/><line style="stroke:#181818;stroke-width:0.5;stroke-dasharray:5.0,5.0;" x1="1480" x2="1480" y1="121.2188" y2="884.1953"/><text fill="#000000" font-family="sans-serif" font-size="14" lengthAdjust="spacing" textLength="79" x="20" y="118.1426">Coordinador</text><ellipse cx="62.5" cy="52.1094" fill="#E2E2F0" rx="8" ry="8" style="stroke:#181818;stroke-width:0.5;"/><path d="M62.5,60.1094 L62.5,87.1094 M49.5,68.1094 L75.5,68.1094 M62.5,87.1094 L49.5,102.1094 M62.5,87.1094 L75.5,102.1094 " fill="none" style="stroke:#181818;stroke-width:0.5;"/><text fill="#000000" font-family="sans-serif" font-size="14" lengthAdjust="spacing" textLength="79" x="20" y="897.7285">Coordinador</text><ellipse cx="62.5" cy="909.3047" fill="#E2E2F0" rx="8" ry="8" style="stroke:#181818;stroke-width:0.5;"/><path d="M62.5,917.3047 L62.5,944.3047 M49.5,925.3047 L75.5,925.3047 M62.5,944.3047 L49.5,959.3047 M62.5,944.3047 L75.5,959.3047 " fill="none" style="stroke:#181818;stroke-width:0.5;"/><rect fill="#E2E2F0" height="49.2188" rx="2.5" ry="2.5" style="stroke:#181818;stroke-width:0.5;" width="160" x="232.5" y="71"/><text fill="#000000" font-family="sans-serif" font-size="14" lengthAdjust="spacing" textLength="146" x="239.5" y="92.5332">EntregableDetallePage</text><text fill="#000000" font-family="sans-serif" font-size="14" lengthAdjust="spacing" textLength="47" x="289" y="110.1426">(React)</text><rect fill="#E2E2F0" height="49.2188" rx="2.5" ry="2.5" style="stroke:#181818;stroke-width:0.5;" width="160" x="232.5" y="883.1953"/><text fill="#000000" font-family="sans-serif" font-size="14" lengthAdjust="spacing" textLength="146" x="239.5" y="904.7285">EntregableDetallePage</text><text fill="#000000" font-family="sans-serif" font-size="14" lengthAdjust="spacing" textLength="47" x="289" y="922.3379">(React)</text><rect fill="#E2E2F0" height="49.2188" rx="2.5" ry="2.5" style="stroke:#181818;stroke-width:0.5;" width="145" x="472" y="71"/><text fill="#000000" font-family="sans-serif" font-size="14" lengthAdjust="spacing" textLength="131" x="479" y="92.5332">EntregableController</text><text fill="#000000" font-family="sans-serif" font-size="14" lengthAdjust="spacing" textLength="84" x="502.5" y="110.1426">(Spring Boot)</text><rect fill="#E2E2F0" height="49.2188" rx="2.5" ry="2.5" style="stroke:#181818;stroke-width:0.5;" width="145" x="472" y="883.1953"/><text fill="#000000" font-family="sans-serif" font-size="14" lengthAdjust="spacing" textLength="131" x="479" y="904.7285">EntregableController</text><text fill="#000000" font-family="sans-serif" font-size="14" lengthAdjust="spacing" textLength="84" x="502.5" y="922.3379">(Spring Boot)</text><rect fill="#E2E2F0" height="31.6094" rx="2.5" ry="2.5" style="stroke:#181818;stroke-width:0.5;" width="104" x="705.5" y="88.6094"/><text fill="#000000" font-family="sans-serif" font-size="14" lengthAdjust="spacing" textLength="90" x="712.5" y="110.1426">SesionService</text><rect fill="#E2E2F0" height="31.6094" rx="2.5" ry="2.5" style="stroke:#181818;stroke-width:0.5;" width="104" x="705.5" y="883.1953"/><text fill="#000000" font-family="sans-serif" font-size="14" lengthAdjust="spacing" textLength="90" x="712.5" y="904.7285">SesionService</text><rect fill="#E2E2F0" height="31.6094" rx="2.5" ry="2.5" style="stroke:#181818;stroke-width:0.5;" width="130" x="819.5" y="88.6094"/><text fill="#000000" font-family="sans-serif" font-size="14" lengthAdjust="spacing" textLength="116" x="826.5" y="110.1426">EntregableService</text><rect fill="#E2E2F0" height="31.6094" rx="2.5" ry="2.5" style="stroke:#181818;stroke-width:0.5;" width="130" x="819.5" y="883.1953"/><text fill="#000000" font-family="sans-serif" font-size="14" lengthAdjust="spacing" textLength="116" x="826.5" y="904.7285">EntregableService</text><rect fill="#E2E2F0" height="31.6094" rx="2.5" ry="2.5" style="stroke:#181818;stroke-width:0.5;" width="151" x="1043" y="88.6094"/><text fill="#000000" font-family="sans-serif" font-size="14" lengthAdjust="spacing" textLength="137" x="1050" y="110.1426">EntregableRepository</text><rect fill="#E2E2F0" height="31.6094" rx="2.5" ry="2.5" style="stroke:#181818;stroke-width:0.5;" width="151" x="1043" y="883.1953"/><text fill="#000000" font-family="sans-serif" font-size="14" lengthAdjust="spacing" textLength="137" x="1050" y="904.7285">EntregableRepository</text><text fill="#000000" font-family="sans-serif" font-size="14" lengthAdjust="spacing" textLength="93" x="1431" y="118.1426">Base de Datos</text><path d="M1462.5,67.6094 C1462.5,57.6094 1480.5,57.6094 1480.5,57.6094 C1480.5,57.6094 1498.5,57.6094 1498.5,67.6094 L1498.5,93.6094 C1498.5,103.6094 1480.5,103.6094 1480.5,103.6094 C1480.5,103.6094 1462.5,103.6094 1462.5,93.6094 L1462.5,67.6094 " fill="#E2E2F0" style="stroke:#181818;stroke-width:1.5;"/><path d="M1462.5,67.6094 C1462.5,77.6094 1480.5,77.6094 1480.5,77.6094 C1480.5,77.6094 1498.5,77.6094 1498.5,67.6094 " fill="none" style="stroke:#181818;stroke-width:1.5;"/><text fill="#000000" font-family="sans-serif" font-size="14" lengthAdjust="spacing" textLength="93" x="1431" y="897.7285">Base de Datos</text><path d="M1462.5,910.8047 C1462.5,900.8047 1480.5,900.8047 1480.5,900.8047 C1480.5,900.8047 1498.5,900.8047 1498.5,910.8047 L1498.5,936.8047 C1498.5,946.8047 1480.5,946.8047 1480.5,946.8047 C1480.5,946.8047 1462.5,946.8047 1462.5,936.8047 L1462.5,910.8047 " fill="#E2E2F0" style="stroke:#181818;stroke-width:1.5;"/><path d="M1462.5,910.8047 C1462.5,920.8047 1480.5,920.8047 1480.5,920.8047 C1480.5,920.8047 1498.5,920.8047 1498.5,910.8047 " fill="none" style="stroke:#181818;stroke-width:1.5;"/><polygon fill="#181818" points="300.5,149.5703,310.5,153.5703,300.5,157.5703,304.5,153.5703" style="stroke:#181818;stroke-width:1.0;"/><line style="stroke:#181818;stroke-width:1.0;" x1="62.5" x2="306.5" y1="153.5703" y2="153.5703"/><text fill="#000000" font-family="sans-serif" font-size="13" lengthAdjust="spacing" textLength="144" x="69.5" y="148.7139">Solicita retirar entregable</text><polygon fill="#181818" points="73.5,179.9219,63.5,183.9219,73.5,187.9219,69.5,183.9219" style="stroke:#181818;stroke-width:1.0;"/><line style="stroke:#181818;stroke-width:1.0;stroke-dasharray:2.0,2.0;" x1="67.5" x2="311.5" y1="183.9219" y2="183.9219"/><text fill="#000000" font-family="sans-serif" font-size="13" lengthAdjust="spacing" textLength="226" x="79.5" y="179.0654">Presenta confirmacion y solicita motivo</text><path d="M10,198.9219 L71,198.9219 L71,207.2734 L61,217.2734 L10,217.2734 L10,198.9219 " fill="#EEEEEE" style="stroke:#000000;stroke-width:1.5;"/><rect fill="none" height="668.2734" style="stroke:#000000;stroke-width:1.5;" width="1530" x="10" y="198.9219"/><text fill="#000000" font-family="sans-serif" font-size="13" font-weight="bold" lengthAdjust="spacing" textLength="16" x="25" y="213.417">alt</text><text fill="#000000" font-family="sans-serif" font-size="11" font-weight="bold" lengthAdjust="spacing" textLength="121" x="86" y="212.3408">[Coordinador cancela]</text><polygon fill="#181818" points="73.5,235.625,63.5,239.625,73.5,243.625,69.5,239.625" style="stroke:#181818;stroke-width:1.0;"/><line style="stroke:#181818;stroke-width:1.0;stroke-dasharray:2.0,2.0;" x1="67.5" x2="311.5" y1="239.625" y2="239.625"/><text fill="#000000" font-family="sans-serif" font-size="13" lengthAdjust="spacing" textLength="207" x="79.5" y="234.7686">Conserva ENTREGABLE_ABIERTO</text><line style="stroke:#000000;stroke-width:1.0;stroke-dasharray:2.0,2.0;" x1="10" x2="1540" y1="248.625" y2="248.625"/><text fill="#000000" font-family="sans-serif" font-size="11" font-weight="bold" lengthAdjust="spacing" textLength="129" x="15" y="260.0439">[Coordinador confirma]</text><polygon fill="#181818" points="300.5,281.8125,310.5,285.8125,300.5,289.8125,304.5,285.8125" style="stroke:#181818;stroke-width:1.0;"/><line style="stroke:#181818;stroke-width:1.0;" x1="62.5" x2="306.5" y1="285.8125" y2="285.8125"/><text fill="#000000" font-family="sans-serif" font-size="13" lengthAdjust="spacing" textLength="164" x="69.5" y="280.9561">Confirma retirada con motivo</text><polygon fill="#181818" points="532.5,328.5156,542.5,332.5156,532.5,336.5156,536.5,332.5156" style="stroke:#181818;stroke-width:1.0;"/><line style="stroke:#181818;stroke-width:1.0;" x1="312.5" x2="538.5" y1="332.5156" y2="332.5156"/><text fill="#000000" font-family="sans-serif" font-size="13" lengthAdjust="spacing" textLength="208" x="319.5" y="311.3076">PATCH /api/entregables/{id}/retirada</text><text fill="#000000" font-family="sans-serif" font-size="13" lengthAdjust="spacing" textLength="91" x="319.5" y="327.6592">motivo + cookie</text><polygon fill="#181818" points="745.5,358.8672,755.5,362.8672,745.5,366.8672,749.5,362.8672" style="stroke:#181818;stroke-width:1.0;"/><line style="stroke:#181818;stroke-width:1.0;" x1="544.5" x2="751.5" y1="362.8672" y2="362.8672"/><text fill="#000000" font-family="sans-serif" font-size="13" lengthAdjust="spacing" textLength="189" x="551.5" y="358.0107">exigirCoordinador(authentication)</text><polygon fill="#181818" points="555.5,389.2188,545.5,393.2188,555.5,397.2188,551.5,393.2188" style="stroke:#181818;stroke-width:1.0;"/><line style="stroke:#181818;stroke-width:1.0;stroke-dasharray:2.0,2.0;" x1="549.5" x2="756.5" y1="393.2188" y2="393.2188"/><text fill="#000000" font-family="sans-serif" font-size="13" lengthAdjust="spacing" textLength="140" x="561.5" y="388.3623">Coordinador autenticado</text><polygon fill="#181818" points="872.5,419.5703,882.5,423.5703,872.5,427.5703,876.5,423.5703" style="stroke:#181818;stroke-width:1.0;"/><line style="stroke:#181818;stroke-width:1.0;" x1="544.5" x2="878.5" y1="423.5703" y2="423.5703"/><text fill="#000000" font-family="sans-serif" font-size="13" lengthAdjust="spacing" textLength="171" x="551.5" y="418.7139">retirar(id, motivo, coordinador)</text><polygon fill="#181818" points="1106.5,449.9219,1116.5,453.9219,1106.5,457.9219,1110.5,453.9219" style="stroke:#181818;stroke-width:1.0;"/><line style="stroke:#181818;stroke-width:1.0;" x1="884.5" x2="1112.5" y1="453.9219" y2="453.9219"/><text fill="#000000" font-family="sans-serif" font-size="13" lengthAdjust="spacing" textLength="126" x="891.5" y="449.0654">obtenerActivoPorId(id)</text><polygon fill="#181818" points="1468.5,496.625,1478.5,500.625,1468.5,504.625,1472.5,500.625" style="stroke:#181818;stroke-width:1.0;"/><line style="stroke:#181818;stroke-width:1.0;" x1="1118.5" x2="1474.5" y1="500.625" y2="500.625"/><text fill="#000000" font-family="sans-serif" font-size="13" lengthAdjust="spacing" textLength="172" x="1125.5" y="479.417">SELECT * FROM entregables</text><text fill="#000000" font-family="sans-serif" font-size="13" lengthAdjust="spacing" textLength="207" x="1125.5" y="495.7686">WHERE id = ? AND retirado = false</text><polygon fill="#181818" points="1129.5,526.9766,1119.5,530.9766,1129.5,534.9766,1125.5,530.9766" style="stroke:#181818;stroke-width:1.0;"/><line style="stroke:#181818;stroke-width:1.0;stroke-dasharray:2.0,2.0;" x1="1123.5" x2="1479.5" y1="530.9766" y2="530.9766"/><text fill="#000000" font-family="sans-serif" font-size="13" lengthAdjust="spacing" textLength="103" x="1135.5" y="526.1201">Entregable / vacio</text><polygon fill="#181818" points="895.5,557.3281,885.5,561.3281,895.5,565.3281,891.5,561.3281" style="stroke:#181818;stroke-width:1.0;"/><line style="stroke:#181818;stroke-width:1.0;stroke-dasharray:2.0,2.0;" x1="889.5" x2="1117.5" y1="561.3281" y2="561.3281"/><text fill="#000000" font-family="sans-serif" font-size="13" lengthAdjust="spacing" textLength="103" x="901.5" y="556.4717">Entregable / vacio</text><polygon fill="#181818" points="1106.5,587.6797,1116.5,591.6797,1106.5,595.6797,1110.5,591.6797" style="stroke:#181818;stroke-width:1.0;"/><line style="stroke:#181818;stroke-width:1.0;" x1="884.5" x2="1112.5" y1="591.6797" y2="591.6797"/><text fill="#000000" font-family="sans-serif" font-size="13" lengthAdjust="spacing" textLength="210" x="891.5" y="586.8232">retirar(id, fecha, coordinador, motivo)</text><polygon fill="#181818" points="1468.5,650.7344,1478.5,654.7344,1468.5,658.7344,1472.5,654.7344" style="stroke:#181818;stroke-width:1.0;"/><line style="stroke:#181818;stroke-width:1.0;" x1="1118.5" x2="1474.5" y1="654.7344" y2="654.7344"/><text fill="#000000" font-family="sans-serif" font-size="13" lengthAdjust="spacing" textLength="241" x="1125.5" y="617.1748">UPDATE entregables SET retirado = true,</text><text fill="#000000" font-family="sans-serif" font-size="13" lengthAdjust="spacing" textLength="338" x="1125.5" y="633.5264">fecha_retirada = ?, retirado_por_id = ?, motivo_retirada = ?</text><text fill="#000000" font-family="sans-serif" font-size="13" lengthAdjust="spacing" textLength="86" x="1125.5" y="649.8779">WHERE id = ?</text><polygon fill="#181818" points="1129.5,681.0859,1119.5,685.0859,1129.5,689.0859,1125.5,685.0859" style="stroke:#181818;stroke-width:1.0;"/><line style="stroke:#181818;stroke-width:1.0;stroke-dasharray:2.0,2.0;" x1="1123.5" x2="1479.5" y1="685.0859" y2="685.0859"/><text fill="#000000" font-family="sans-serif" font-size="13" lengthAdjust="spacing" textLength="109" x="1135.5" y="680.2295">Entregable retirado</text><polygon fill="#181818" points="895.5,711.4375,885.5,715.4375,895.5,719.4375,891.5,715.4375" style="stroke:#181818;stroke-width:1.0;"/><line style="stroke:#181818;stroke-width:1.0;stroke-dasharray:2.0,2.0;" x1="889.5" x2="1117.5" y1="715.4375" y2="715.4375"/><text fill="#000000" font-family="sans-serif" font-size="13" lengthAdjust="spacing" textLength="109" x="901.5" y="710.5811">Entregable retirado</text><path d="M1123,728.4375 L1123,770.4375 L1302,770.4375 L1302,738.4375 L1292,728.4375 L1123,728.4375 " fill="#FEFFDD" style="stroke:#181818;stroke-width:0.5;"/><path d="M1292,728.4375 L1292,738.4375 L1302,738.4375 L1292,728.4375 " fill="#FEFFDD" style="stroke:#181818;stroke-width:0.5;"/><text fill="#000000" font-family="sans-serif" font-size="13" lengthAdjust="spacing" textLength="158" x="1129" y="746.9326">Conserva autoria, proyecto,</text><text fill="#000000" font-family="sans-serif" font-size="13" lengthAdjust="spacing" textLength="120" x="1129" y="763.2842">archivos y versiones.</text><polygon fill="#181818" points="555.5,794.4922,545.5,798.4922,555.5,802.4922,551.5,798.4922" style="stroke:#181818;stroke-width:1.0;"/><line style="stroke:#181818;stroke-width:1.0;stroke-dasharray:2.0,2.0;" x1="549.5" x2="883.5" y1="798.4922" y2="798.4922"/><text fill="#000000" font-family="sans-serif" font-size="13" lengthAdjust="spacing" textLength="168" x="561.5" y="793.6357">EntregableRetiradoResponse</text><polygon fill="#181818" points="323.5,824.8438,313.5,828.8438,323.5,832.8438,319.5,828.8438" style="stroke:#181818;stroke-width:1.0;"/><line style="stroke:#181818;stroke-width:1.0;stroke-dasharray:2.0,2.0;" x1="317.5" x2="543.5" y1="828.8438" y2="828.8438"/><text fill="#000000" font-family="sans-serif" font-size="13" lengthAdjust="spacing" textLength="44" x="329.5" y="823.9873">200 OK</text><polygon fill="#181818" points="73.5,855.1953,63.5,859.1953,73.5,863.1953,69.5,859.1953" style="stroke:#181818;stroke-width:1.0;"/><line style="stroke:#181818;stroke-width:1.0;stroke-dasharray:2.0,2.0;" x1="67.5" x2="311.5" y1="859.1953" y2="859.1953"/><text fill="#000000" font-family="sans-serif" font-size="13" lengthAdjust="spacing" textLength="224" x="79.5" y="854.3389">Presenta ENTREGABLES_ABIERTOS</text><!--SRC=[XLJ1Rjf04BtxAqOv9IqfKOz8JMLZfucQ9iXGzOA4XlK0gvfTQtU36bNzzypQBAoRabuGjjzxC-_jp3hfQe9SujhW5g4Yi2IUI0c9S0abEMdG02bdQ8tBcX8KJXiOQsqggR3I9cdGE2baWyh1MN50vkImhcc2QvghyvAOU746QE76QEL8LQU8O_viD5CDywQDaMeDcTPxTjh8Fd5ALcer9REJWbf8z-QKV1_P_Zy5BQdHLhBVvnRj7vCA7IxH4fnb_fS3oz5fsmBoB4cYPE3o-c1s15DTSmc7O5w76b1moPH8OGGJGvQ124AhbJHR56mDdi46jQrsSgSJh5rC185AK8q9m6bj3jfo00Z5mwmilgJPVR58ixkYd3qcLBEvdk2-FYkUj3ZUO_OMgxRhq67SoRK_HZQNpiQtCCH63ezXsE5lMVqP1ecvwlZmdiNqJqain6IlqPtp2EYNN4iJTNMEJsx3YbAWOyG5Kpficq5RElR0w0vSwLYy7OrHEAvpMGtsLWQ-ay3kn5kif_aP6O5UiYAPL7ZuH9kxYkaUwJzxM9xnG1JtnNW6x-2cVFmMJOETgn-tHLc0hE0JV8Rq8G-1QdwnGZuQbigprarNy3YpC8IT7v93iTZBFs6lkeyThqXii6SufF2tdU-JF9qLiGzsE8ixT-Q91dFLIYuE8y8M1mVKej5cqVaETNh8VZHlf104_nT3X5FQyRDSRnpeLRViSDmH7X9j94VH6FrCV0aE-2iQiU4MBI_aZeoVCB8V-BqVSYyNfnicBxvUkjebsSQN2SFNswcFLrVm-FNDFJxS4SSzdeP5dYPCUG40]--></g></svg>