<svg xmlns="http://www.w3.org/2000/svg" xmlns:xlink="http://www.w3.org/1999/xlink" contentStyleType="text/css" data-diagram-type="DESCRIPTION" height="442px" preserveAspectRatio="none" style="width:2101px;height:442px;background:#FFFFFF;" version="1.1" viewBox="0 0 2101 442" width="2101px" zoomAndPan="magnify"><?plantuml 1.2026.5?><defs/><g><!--cluster abrirProyecto--><g class="cluster" data-qualified-name="abrirProyecto" data-source-line="5" id="ent0003"><path d="M215.5,6 L316.8584,6 A3.75,3.75 0 0 1 319.3584,8.5 L326.3584,29.6094 L1142.5,29.6094 A2.5,2.5 0 0 1 1145,32.1094 L1145,424.5 A2.5,2.5 0 0 1 1142.5,427 L215.5,427 A2.5,2.5 0 0 1 213,424.5 L213,8.5 A2.5,2.5 0 0 1 215.5,6" fill="none" style="stroke:#000000;stroke-width:1.5;"/><line style="stroke:#000000;stroke-width:1.5;" x1="213" x2="326.3584" y1="29.6094" y2="29.6094"/><text fill="#000000" font-family="sans-serif" font-size="14" font-weight="700" lengthAdjust="spacing" textLength="100.3584" x="217" y="22.5332">abrirProyecto()</text></g><!--entity DetalleProyectoView--><g class="entity" data-qualified-name="abrirProyecto.DetalleProyectoView" data-source-line="6" id="ent0004"><rect fill="#629EF9" height="37.6094" rx="2.5" ry="2.5" style="stroke:#181818;stroke-width:0.5;" width="149.1719" x="979.5" y="42"/><text fill="#000000" font-family="sans-serif" font-size="14" lengthAdjust="spacing" textLength="129.1719" x="989.5" y="66.5332">DetalleProyectoView</text></g><!--entity ProyectoController--><g class="entity" data-qualified-name="abrirProyecto.ProyectoController" data-source-line="7" id="ent0005"><rect fill="#B5BD68" height="37.6094" rx="2.5" ry="2.5" style="stroke:#181818;stroke-width:0.5;" width="135.9375" x="625" y="158"/><text fill="#000000" font-family="sans-serif" font-size="14" lengthAdjust="spacing" textLength="115.9375" x="635" y="182.5332">ProyectoController</text></g><!--entity ProyectoRepository--><g class="entity" data-qualified-name="abrirProyecto.ProyectoRepository" data-source-line="8" id="ent0006"><rect fill="#F2AC4E" height="37.6094" rx="2.5" ry="2.5" style="stroke:#181818;stroke-width:0.5;" width="142.165" x="229" y="274"/><text fill="#000000" font-family="sans-serif" font-size="14" lengthAdjust="spacing" textLength="122.165" x="239" y="298.5332">ProyectoRepository</text></g><!--entity InvestigadorRepository--><g class="entity" data-qualified-name="abrirProyecto.InvestigadorRepository" data-source-line="9" id="ent0007"><rect fill="#F2AC4E" height="37.6094" rx="2.5" ry="2.5" style="stroke:#181818;stroke-width:0.5;" width="163.1855" x="494.5" y="274"/><text fill="#000000" font-family="sans-serif" font-size="14" lengthAdjust="spacing" textLength="143.1855" x="504.5" y="298.5332">InvestigadorRepository</text></g><!--entity EntregableRepository--><g class="entity" data-qualified-name="abrirProyecto.EntregableRepository" data-source-line="10" id="ent0008"><rect fill="#F2AC4E" height="37.6094" rx="2.5" ry="2.5" style="stroke:#181818;stroke-width:0.5;" width="154.6338" x="732.5" y="274"/><text fill="#000000" font-family="sans-serif" font-size="14" lengthAdjust="spacing" textLength="134.6338" x="742.5" y="298.5332">EntregableRepository</text></g><!--entity Proyecto--><g class="entity" data-qualified-name="abrirProyecto.Proyecto" data-source-line="11" id="ent0009"><rect fill="#F2AC4E" height="37.6094" rx="2.5" ry="2.5" style="stroke:#181818;stroke-width:0.5;" width="75.248" x="262.5" y="373"/><text fill="#000000" font-family="sans-serif" font-size="14" lengthAdjust="spacing" textLength="55.248" x="272.5" y="397.5332">Proyecto</text></g><!--entity Investigador--><g class="entity" data-qualified-name="abrirProyecto.Investigador" data-source-line="12" id="ent0010"><rect fill="#F2AC4E" height="37.6094" rx="2.5" ry="2.5" style="stroke:#181818;stroke-width:0.5;" width="96.2686" x="528" y="373"/><text fill="#000000" font-family="sans-serif" font-size="14" lengthAdjust="spacing" textLength="76.2686" x="538" y="397.5332">Investigador</text></g><!--entity Entregable--><g class="entity" data-qualified-name="abrirProyecto.Entregable" data-source-line="13" id="ent0011"><rect fill="#F2AC4E" height="37.6094" rx="2.5" ry="2.5" style="stroke:#181818;stroke-width:0.5;" width="87.7168" x="766" y="373"/><text fill="#000000" font-family="sans-serif" font-size="14" lengthAdjust="spacing" textLength="67.7168" x="776" y="397.5332">Entregable</text></g><!--entity EstadoEntrada1--><g class="entity" data-qualified-name="EstadoEntrada1" data-source-line="3" id="ent0001"><rect fill="#CDEBA5" height="37.6094" rx="2.5" ry="2.5" style="stroke:#181818;stroke-width:0.5;" width="190.3721" x="7" y="42"/><text fill="#000000" font-family="sans-serif" font-size="14" lengthAdjust="spacing" textLength="170.3721" x="17" y="66.5332">:PROYECTOS_ABIERTOS</text></g><!--entity EstadoEntrada2--><g class="entity" data-qualified-name="EstadoEntrada2" data-source-line="4" id="ent0002"><rect fill="#CDEBA5" height="37.6094" rx="2.5" ry="2.5" style="stroke:#181818;stroke-width:0.5;" width="205.9443" x="1311" y="42"/><text fill="#000000" font-family="sans-serif" font-size="14" lengthAdjust="spacing" textLength="185.9443" x="1321" y="66.5332">:ENTREGABLES_ABIERTOS</text></g><!--entity EstadoSalida--><g class="entity" data-qualified-name="EstadoSalida" data-source-line="16" id="ent0012"><rect fill="#CDEBA5" height="37.6094" rx="2.5" ry="2.5" style="stroke:#181818;stroke-width:0.5;" width="171.6963" x="1161" y="158"/><text fill="#000000" font-family="sans-serif" font-size="14" lengthAdjust="spacing" textLength="151.6963" x="1171" y="182.5332">:PROYECTO_ABIERTO</text></g><!--entity AbrirEntregables--><g class="entity" data-qualified-name="AbrirEntregables" data-source-line="17" id="ent0013"><rect fill="#CDEBA5" height="37.6094" rx="2.5" ry="2.5" style="stroke:#181818;stroke-width:0.5;" width="214.5508" x="1368.5" y="158"/><text fill="#000000" font-family="sans-serif" font-size="14" lengthAdjust="spacing" textLength="194.5508" x="1378.5" y="182.5332">:Collaboration AbrirEntregables</text></g><!--entity AbrirInvestigadores--><g class="entity" data-qualified-name="AbrirInvestigadores" data-source-line="18" id="ent0014"><rect fill="#CDEBA5" height="37.6094" rx="2.5" ry="2.5" style="stroke:#181818;stroke-width:0.5;" width="230.8887" x="1618.5" y="158"/><text fill="#000000" font-family="sans-serif" font-size="14" lengthAdjust="spacing" textLength="210.8887" x="1628.5" y="182.5332">:Collaboration AbrirInvestigadores</text></g><!--entity AbrirProyectos--><g class="entity" data-qualified-name="AbrirProyectos" data-source-line="19" id="ent0015"><rect fill="#CDEBA5" height="37.6094" rx="2.5" ry="2.5" style="stroke:#181818;stroke-width:0.5;" width="202.082" x="1885" y="158"/><text fill="#000000" font-family="sans-serif" font-size="14" lengthAdjust="spacing" textLength="182.082" x="1895" y="182.5332">:Collaboration AbrirProyectos</text></g><!--link EstadoEntrada1 to DetalleProyectoView--><g class="link" data-entity-1="ent0001" data-entity-2="ent0004" data-link-type="dependency" data-source-line="21" id="lnk16"><path d="M197.2,61 C386.74,61 802.78,61 974.2,61" fill="none" id="EstadoEntrada1-to-DetalleProyectoView" style="stroke:#181818;stroke-width:1;"/><polygon fill="#181818" points="979.2,61,970.2,57,974.2,61,970.2,65,979.2,61" style="stroke:#181818;stroke-width:1;stroke-linejoin:miter;stroke-miterlimit:10;"/><text fill="#000000" font-family="sans-serif" font-size="13" lengthAdjust="spacing" textLength="147.3862" x="514.75" y="54.4951">abrirProyecto(idProyecto)</text></g><!--link EstadoEntrada2 to DetalleProyectoView--><g class="link" data-entity-1="ent0002" data-entity-2="ent0004" data-link-type="dependency" data-source-line="22" id="lnk17"><path d="M1310.84,61 C1252.67,61 1186.32,61 1133.59,61" fill="none" id="EstadoEntrada2-to-DetalleProyectoView" style="stroke:#181818;stroke-width:1;"/><polygon fill="#181818" points="1128.59,61,1137.59,65,1133.59,61,1137.59,57,1128.59,61" style="stroke:#181818;stroke-width:1;stroke-linejoin:miter;stroke-miterlimit:10;"/><text fill="#000000" font-family="sans-serif" font-size="13" lengthAdjust="spacing" textLength="146.6689" x="1146.75" y="54.4951">abrirProyecto(proyectoId)</text></g><!--link DetalleProyectoView to ProyectoController--><g class="link" data-entity-1="ent0004" data-entity-2="ent0005" data-link-type="dependency" data-source-line="24" id="lnk18"><path d="M993.97,80.01 C948.57,93.63 894,110 894,110 C894,110 812.1903,136.8597 752.6703,156.4097" fill="none" id="DetalleProyectoView-to-ProyectoController" style="stroke:#181818;stroke-width:1;"/><polygon fill="#181818" points="747.92,157.97,757.7188,158.9617,752.6703,156.4097,755.2223,151.3612,747.92,157.97" style="stroke:#181818;stroke-width:1;stroke-linejoin:miter;stroke-miterlimit:10;"/><text fill="#000000" font-family="sans-serif" font-size="13" lengthAdjust="spacing" textLength="234.8315" x="895" y="124.4951">abrirProyecto(proyectoId, investigadorId)</text></g><!--link ProyectoController to ProyectoRepository--><g class="link" data-entity-1="ent0005" data-entity-2="ent0006" data-link-type="dependency" data-source-line="25" id="lnk19"><path d="M624.69,186.2 C510.45,199.91 293,226 293,226 C293,226 293,244 293,244 C293,244 294.6491,255.3122 296.6291,268.9022" fill="none" id="ProyectoController-to-ProyectoRepository" style="stroke:#181818;stroke-width:1;"/><polygon fill="#181818" points="297.35,273.85,300.0107,264.3673,296.6291,268.9022,292.0942,265.5207,297.35,273.85" style="stroke:#181818;stroke-width:1;stroke-linejoin:miter;stroke-miterlimit:10;"/><text fill="#000000" font-family="sans-serif" font-size="13" lengthAdjust="spacing" textLength="270.9814" x="294" y="240.4951">obtenerVisiblePorId(proyectoId, investigadorId)</text></g><!--link ProyectoController to InvestigadorRepository--><g class="link" data-entity-1="ent0005" data-entity-2="ent0007" data-link-type="dependency" data-source-line="26" id="lnk20"><path d="M647.98,196.01 C613.92,209.63 573,226 573,226 C573,226 573,244 573,244 C573,244 573.7079,255.2698 574.5579,268.8598" fill="none" id="ProyectoController-to-InvestigadorRepository" style="stroke:#181818;stroke-width:1;"/><polygon fill="#181818" points="574.87,273.85,578.3004,264.6179,574.5579,268.8598,570.316,265.1172,574.87,273.85" style="stroke:#181818;stroke-width:1;stroke-linejoin:miter;stroke-miterlimit:10;"/><text fill="#000000" font-family="sans-serif" font-size="13" lengthAdjust="spacing" textLength="192.2261" x="574" y="240.4951">obtenerEquipoVisible(proyectoId)</text></g><!--link ProyectoController to EntregableRepository--><g class="link" data-entity-1="ent0005" data-entity-2="ent0008" data-link-type="dependency" data-source-line="27" id="lnk21"><path d="M722.49,196.15 C744.58,209.74 771,226 771,226 C771,226 785.2584,250.1142 796.7984,269.6642" fill="none" id="ProyectoController-to-EntregableRepository" style="stroke:#181818;stroke-width:1;"/><polygon fill="#181818" points="799.34,273.97,798.2097,264.1862,796.7984,269.6642,791.3204,268.2528,799.34,273.97" style="stroke:#181818;stroke-width:1;stroke-linejoin:miter;stroke-miterlimit:10;"/><text fill="#000000" font-family="sans-serif" font-size="13" lengthAdjust="spacing" textLength="317.9414" x="782" y="240.4951">obtenerVisiblesPorProyecto(proyectoId, investigadorId)</text></g><!--link ProyectoRepository to Proyecto--><g class="link" data-entity-1="ent0006" data-entity-2="ent0009" data-link-type="association" data-source-line="28" id="lnk22"><path d="M300,312.24 C300,329.59 300,355.52 300,372.84" fill="none" id="ProyectoRepository-Proyecto" style="stroke:#181818;stroke-width:1;"/></g><!--link InvestigadorRepository to Investigador--><g class="link" data-entity-1="ent0007" data-entity-2="ent0010" data-link-type="association" data-source-line="29" id="lnk23"><path d="M576,312.24 C576,329.59 576,355.52 576,372.84" fill="none" id="InvestigadorRepository-Investigador" style="stroke:#181818;stroke-width:1;"/></g><!--link EntregableRepository to Entregable--><g class="link" data-entity-1="ent0008" data-entity-2="ent0011" data-link-type="association" data-source-line="30" id="lnk24"><path d="M810,312.24 C810,329.59 810,355.52 810,372.84" fill="none" id="EntregableRepository-Entregable" style="stroke:#181818;stroke-width:1;"/></g><!--link DetalleProyectoView to EstadoSalida--><g class="link" data-entity-1="ent0004" data-entity-2="ent0012" data-link-type="dependency" data-source-line="31" id="lnk25"><path d="M1084.58,80.06 C1120.61,101.35 1175.825,133.957 1211.935,155.287" fill="none" id="DetalleProyectoView-to-EstadoSalida" style="stroke:#181818;stroke-width:1;stroke-dasharray:7,7;"/><polygon fill="#181818" points="1216.24,157.83,1210.5253,149.8086,1211.935,155.287,1206.4566,156.6967,1216.24,157.83" style="stroke:#181818;stroke-width:1;stroke-linejoin:miter;stroke-miterlimit:10;"/><text fill="#000000" font-family="sans-serif" font-size="13" lengthAdjust="spacing" textLength="130.7935" x="1163" y="124.4951">continuarNavegacion()</text></g><!--link DetalleProyectoView to AbrirEntregables--><g class="link" data-entity-1="ent0004" data-entity-2="ent0013" data-link-type="dependency" data-source-line="32" id="lnk26"><path d="M1128.74,76.47 C1201.77,90.6 1302,110 1302,110 C1302,110 1372.2654,136.6458 1423.7754,156.1958" fill="none" id="DetalleProyectoView-to-AbrirEntregables" style="stroke:#181818;stroke-width:1;stroke-dasharray:7,7;"/><polygon fill="#181818" points="1428.45,157.97,1421.455,151.0367,1423.7754,156.1958,1418.6163,158.5161,1428.45,157.97" style="stroke:#181818;stroke-width:1;stroke-linejoin:miter;stroke-miterlimit:10;"/><text fill="#000000" font-family="sans-serif" font-size="13" lengthAdjust="spacing" textLength="104.0444" x="1349" y="124.4951">abrirEntregables()</text></g><!--link DetalleProyectoView to AbrirInvestigadores--><g class="link" data-entity-1="ent0004" data-entity-2="ent0014" data-link-type="dependency" data-source-line="33" id="lnk27"><path d="M1128.83,70.8 C1246.62,84.66 1462,110 1462,110 C1462,110 1574.2811,137.2404 1654.8111,156.7904" fill="none" id="DetalleProyectoView-to-AbrirInvestigadores" style="stroke:#181818;stroke-width:1;stroke-dasharray:7,7;"/><polygon fill="#181818" points="1659.67,157.97,1651.8677,151.9597,1654.8111,156.7904,1649.9804,159.7339,1659.67,157.97" style="stroke:#181818;stroke-width:1;stroke-linejoin:miter;stroke-miterlimit:10;"/><text fill="#000000" font-family="sans-serif" font-size="13" lengthAdjust="spacing" textLength="119.2153" x="1535" y="124.4951">abrirInvestigadores()</text></g><!--link DetalleProyectoView to AbrirProyectos--><g class="link" data-entity-1="ent0004" data-entity-2="ent0015" data-link-type="dependency" data-source-line="34" id="lnk28"><path d="M1128.68,67.89 C1291.3,80.7 1663,110 1663,110 C1663,110 1797.2013,137.4186 1892.8413,156.9686" fill="none" id="DetalleProyectoView-to-AbrirProyectos" style="stroke:#181818;stroke-width:1;stroke-dasharray:7,7;"/><polygon fill="#181818" points="1897.74,157.97,1889.7234,152.2486,1892.8413,156.9686,1888.1213,160.0865,1897.74,157.97" style="stroke:#181818;stroke-width:1;stroke-linejoin:miter;stroke-miterlimit:10;"/><text fill="#000000" font-family="sans-serif" font-size="13" lengthAdjust="spacing" textLength="92.4663" x="1750" y="124.4951">abrirProyectos()</text></g><?plantuml-src dLDTIyCm57tFhxZCbmsSu733xK7eQfI1R6CRWazosuOIh4rDiyaG_xk9h5jICpljKtevvzpFKxxml429hv3ndAbjmQ0GsTRy429Ph31FCmPduIqT1treZUQBsHCDLxFbSp2Uq8L-j01BeAN2HD1SIKpmqikaqzM2tWVZ1_eRjqSAZ5ymPO2Hv78knLPh2ODhEP5sfmKV1FHd9HlqXlHk2BTCOPQn2lh8sNiT6VMZP70D5IGKEhtG75a7tlM2y8hkWGjMY98h8RT7W9Dymqh5KzsIR0IRfbcAKSOQeLK19wHjJ4O-VrzkjHzhFKlCU89ULgZdXf6GgBZ88J1BEgGglpNgmLDrxAviAJT-gberGaje7oB4FM7eokwDxv16xc6sUL8zEwv4xsI9OlUO91r2F7Ze9bhevwaUrpa7Rat8wFvaGzSIFPpV24IaMCxa8o-vtjNSyFyZxJV2Nfw-hNaXTacS4HpHytcbNcofg_tJE0vIEiV1O_xQ3SJncQya0xASvbldnSMDuweHnBfLdgzHJd6ZYR4-sNRdABVkfjqTM94cikkV7TyDDadidLExGaFy0W00?></g></svg>