<svg xmlns="http://www.w3.org/2000/svg" xmlns:xlink="http://www.w3.org/1999/xlink" contentStyleType="text/css" data-diagram-type="DESCRIPTION" height="442px" preserveAspectRatio="none" style="width:1641px;height:442px;background:#FFFFFF;" version="1.1" viewBox="0 0 1641 442" width="1641px" zoomAndPan="magnify"><?plantuml 1.2026.4?><defs/><g><!--cluster abrirProyecto--><g class="cluster" data-qualified-name="abrirProyecto" data-source-line="4" id="ent0002"><path d="M215.5,6 L316.8584,6 A3.75,3.75 0 0 1 319.3584,8.5 L326.3584,29.6094 L682.5,29.6094 A2.5,2.5 0 0 1 685,32.1094 L685,424.5 A2.5,2.5 0 0 1 682.5,427 L215.5,427 A2.5,2.5 0 0 1 213,424.5 L213,8.5 A2.5,2.5 0 0 1 215.5,6" fill="none" style="stroke:#000000;stroke-width:1.5;"/><line style="stroke:#000000;stroke-width:1.5;" x1="213" x2="326.3584" y1="29.6094" y2="29.6094"/><text fill="#000000" font-family="sans-serif" font-size="14" font-weight="700" lengthAdjust="spacing" textLength="100.3584" x="217" y="22.5332">abrirProyecto()</text></g><!--entity DetalleProyectoView--><g class="entity" data-qualified-name="abrirProyecto.DetalleProyectoView" data-source-line="5" id="ent0003"><rect fill="#629EF9" height="37.6094" rx="2.5" ry="2.5" style="stroke:#181818;stroke-width:0.5;" width="149.1719" x="519.5" y="42"/><text fill="#000000" font-family="sans-serif" font-size="14" lengthAdjust="spacing" textLength="129.1719" x="529.5" y="66.5332">DetalleProyectoView</text></g><!--entity ProyectoController--><g class="entity" data-qualified-name="abrirProyecto.ProyectoController" data-source-line="6" id="ent0004"><rect fill="#B5BD68" height="37.6094" rx="2.5" ry="2.5" style="stroke:#181818;stroke-width:0.5;" width="135.9375" x="280" y="158"/><text fill="#000000" font-family="sans-serif" font-size="14" lengthAdjust="spacing" textLength="115.9375" x="290" y="182.5332">ProyectoController</text></g><!--entity ProyectoRepository--><g class="entity" data-qualified-name="abrirProyecto.ProyectoRepository" data-source-line="7" id="ent0005"><rect fill="#F2AC4E" height="37.6094" rx="2.5" ry="2.5" style="stroke:#181818;stroke-width:0.5;" width="142.165" x="287" y="274"/><text fill="#000000" font-family="sans-serif" font-size="14" lengthAdjust="spacing" textLength="122.165" x="297" y="298.5332">ProyectoRepository</text></g><!--entity Proyecto--><g class="entity" data-qualified-name="abrirProyecto.Proyecto" data-source-line="8" id="ent0006"><rect fill="#F2AC4E" height="37.6094" rx="2.5" ry="2.5" style="stroke:#181818;stroke-width:0.5;" width="75.248" x="320.5" y="373"/><text fill="#000000" font-family="sans-serif" font-size="14" lengthAdjust="spacing" textLength="55.248" x="330.5" y="397.5332">Proyecto</text></g><!--entity EstadoEntrada--><g class="entity" data-qualified-name="EstadoEntrada" data-source-line="3" id="ent0001"><rect fill="#CDEBA5" height="37.6094" rx="2.5" ry="2.5" style="stroke:#181818;stroke-width:0.5;" width="190.3721" x="7" y="42"/><text fill="#000000" font-family="sans-serif" font-size="14" lengthAdjust="spacing" textLength="170.3721" x="17" y="66.5332">:PROYECTOS_ABIERTOS</text></g><!--entity EstadoSalida--><g class="entity" data-qualified-name="EstadoSalida" data-source-line="11" id="ent0007"><rect fill="#CDEBA5" height="37.6094" rx="2.5" ry="2.5" style="stroke:#181818;stroke-width:0.5;" width="171.6963" x="701" y="158"/><text fill="#000000" font-family="sans-serif" font-size="14" lengthAdjust="spacing" textLength="151.6963" x="711" y="182.5332">:PROYECTO_ABIERTO</text></g><!--entity AbrirEntregables--><g class="entity" data-qualified-name="AbrirEntregables" data-source-line="12" id="ent0008"><rect fill="#CDEBA5" height="37.6094" rx="2.5" ry="2.5" style="stroke:#181818;stroke-width:0.5;" width="214.5508" x="908.5" y="158"/><text fill="#000000" font-family="sans-serif" font-size="14" lengthAdjust="spacing" textLength="194.5508" x="918.5" y="182.5332">:Collaboration AbrirEntregables</text></g><!--entity AbrirInvestigadores--><g class="entity" data-qualified-name="AbrirInvestigadores" data-source-line="13" id="ent0009"><rect fill="#CDEBA5" height="37.6094" rx="2.5" ry="2.5" style="stroke:#181818;stroke-width:0.5;" width="230.8887" x="1158.5" y="158"/><text fill="#000000" font-family="sans-serif" font-size="14" lengthAdjust="spacing" textLength="210.8887" x="1168.5" y="182.5332">:Collaboration AbrirInvestigadores</text></g><!--entity AbrirProyectos--><g class="entity" data-qualified-name="AbrirProyectos" data-source-line="14" id="ent0010"><rect fill="#CDEBA5" height="37.6094" rx="2.5" ry="2.5" style="stroke:#181818;stroke-width:0.5;" width="202.082" x="1425" y="158"/><text fill="#000000" font-family="sans-serif" font-size="14" lengthAdjust="spacing" textLength="182.082" x="1435" y="182.5332">:Collaboration AbrirProyectos</text></g><!--link EstadoEntrada to DetalleProyectoView--><g class="link" data-entity-1="ent0001" data-entity-2="ent0003" data-link-type="dependency" data-source-line="16" id="lnk11"><path d="M197.15,61 C291.15,61 428.01,61 514.22,61" fill="none" id="EstadoEntrada-to-DetalleProyectoView" style="stroke:#181818;stroke-width:1;"/><polygon fill="#181818" points="519.22,61,510.22,57,514.22,61,510.22,65,519.22,61" style="stroke:#181818;stroke-width:1;stroke-linejoin:miter;stroke-miterlimit:10;"/><text fill="#000000" font-family="sans-serif" font-size="13" lengthAdjust="spacing" textLength="85.9663" x="315.75" y="54.4951">abrirProyecto()</text></g><!--link DetalleProyectoView to ProyectoController--><g class="link" data-entity-1="ent0003" data-entity-2="ent0004" data-link-type="dependency" data-source-line="18" id="lnk12"><path d="M519.27,72.77 C421.09,86.92 261,110 261,110 C261,110 261,128 261,128 C261,128 286.0918,141.8452 310.7318,155.4352" fill="none" id="DetalleProyectoView-to-ProyectoController" style="stroke:#181818;stroke-width:1;"/><polygon fill="#181818" points="315.11,157.85,309.161,150.0008,310.7318,155.4352,305.2974,157.006,315.11,157.85" style="stroke:#181818;stroke-width:1;stroke-linejoin:miter;stroke-miterlimit:10;"/><text fill="#000000" font-family="sans-serif" font-size="13" lengthAdjust="spacing" textLength="114.1689" x="262" y="124.4951">obtenerProyecto(id)</text></g><!--link DetalleProyectoView to ProyectoController--><g class="link" data-entity-1="ent0003" data-entity-2="ent0004" data-link-type="dependency" data-source-line="19" id="lnk13"><path d="M528.71,80.01 C479.34,93.63 420,110 420,110 C420,110 392.6752,135.0408 371.3552,154.5908" fill="none" id="DetalleProyectoView-to-ProyectoController-1" style="stroke:#181818;stroke-width:1;"/><polygon fill="#181818" points="367.67,157.97,377.0068,154.8355,371.3552,154.5908,371.6,148.9392,367.67,157.97" style="stroke:#181818;stroke-width:1;stroke-linejoin:miter;stroke-miterlimit:10;"/><text fill="#000000" font-family="sans-serif" font-size="13" lengthAdjust="spacing" textLength="247.8442" x="421" y="124.4951">prepararAccionesDisponibles(investigador)</text></g><!--link ProyectoController to ProyectoRepository--><g class="link" data-entity-1="ent0004" data-entity-2="ent0005" data-link-type="dependency" data-source-line="20" id="lnk14"><path d="M321.91,196.15 C302.37,209.74 279,226 279,226 C279,226 279,244 279,244 C279,244 301.4868,257.664 323.8568,271.254" fill="none" id="ProyectoController-to-ProyectoRepository" style="stroke:#181818;stroke-width:1;"/><polygon fill="#181818" points="328.13,273.85,322.515,265.7585,323.8568,271.254,318.3613,272.5957,328.13,273.85" style="stroke:#181818;stroke-width:1;stroke-linejoin:miter;stroke-miterlimit:10;"/><text fill="#000000" font-family="sans-serif" font-size="13" lengthAdjust="spacing" textLength="93.939" x="280" y="240.4951">obtenerPorId(id)</text></g><!--link ProyectoController to ProyectoRepository--><g class="link" data-entity-1="ent0004" data-entity-2="ent0005" data-link-type="dependency" data-source-line="21" id="lnk15"><path d="M359.34,196.15 C367.84,209.74 378,226 378,226 C378,226 378,244 378,244 C378,244 373.1424,255.6443 367.4824,269.2343" fill="none" id="ProyectoController-to-ProyectoRepository-1" style="stroke:#181818;stroke-width:1;"/><polygon fill="#181818" points="365.56,273.85,372.7128,267.0796,367.4824,269.2343,365.3277,264.0039,365.56,273.85" style="stroke:#181818;stroke-width:1;stroke-linejoin:miter;stroke-miterlimit:10;"/><text fill="#000000" font-family="sans-serif" font-size="13" lengthAdjust="spacing" textLength="137.2427" x="379" y="240.4951">verificarPermisos(actor)</text></g><!--link ProyectoRepository to Proyecto--><g class="link" data-entity-1="ent0005" data-entity-2="ent0006" data-link-type="association" data-source-line="22" id="lnk16"><path d="M358,312.24 C358,329.59 358,355.52 358,372.84" fill="none" id="ProyectoRepository-Proyecto" style="stroke:#181818;stroke-width:1;"/></g><!--link DetalleProyectoView to EstadoSalida--><g class="link" data-entity-1="ent0003" data-entity-2="ent0007" data-link-type="dependency" data-source-line="23" id="lnk17"><path d="M625.38,80.15 C648.88,93.74 677,110 677,110 C677,110 720.083,135.8467 752.653,155.3967" fill="none" id="DetalleProyectoView-to-EstadoSalida" style="stroke:#181818;stroke-width:1;stroke-dasharray:7,7;"/><polygon fill="#181818" points="756.94,157.97,751.282,149.9085,752.653,155.3967,747.1648,156.7677,756.94,157.97" style="stroke:#181818;stroke-width:1;stroke-linejoin:miter;stroke-miterlimit:10;"/><text fill="#000000" font-family="sans-serif" font-size="13" lengthAdjust="spacing" textLength="130.7935" x="707" y="124.4951">continuarNavegacion()</text></g><!--link DetalleProyectoView to AbrirEntregables--><g class="link" data-entity-1="ent0003" data-entity-2="ent0008" data-link-type="dependency" data-source-line="24" id="lnk18"><path d="M668.59,76.21 C742.89,90.36 846,110 846,110 C846,110 914.5491,136.6099 964.8891,156.1599" fill="none" id="DetalleProyectoView-to-AbrirEntregables" style="stroke:#181818;stroke-width:1;stroke-dasharray:7,7;"/><polygon fill="#181818" points="969.55,157.97,962.6085,150.9832,964.8891,156.1599,959.7124,158.4405,969.55,157.97" style="stroke:#181818;stroke-width:1;stroke-linejoin:miter;stroke-miterlimit:10;"/><text fill="#000000" font-family="sans-serif" font-size="13" lengthAdjust="spacing" textLength="104.0444" x="892" y="124.4951">abrirEntregables()</text></g><!--link DetalleProyectoView to AbrirInvestigadores--><g class="link" data-entity-1="ent0003" data-entity-2="ent0009" data-link-type="dependency" data-source-line="25" id="lnk19"><path d="M668.91,70.75 C787.45,84.59 1005,110 1005,110 C1005,110 1115.9942,137.228 1195.6342,156.778" fill="none" id="DetalleProyectoView-to-AbrirInvestigadores" style="stroke:#181818;stroke-width:1;stroke-dasharray:7,7;"/><polygon fill="#181818" points="1200.49,157.97,1192.7031,151.9397,1195.6342,156.778,1190.7959,159.7091,1200.49,157.97" style="stroke:#181818;stroke-width:1;stroke-linejoin:miter;stroke-miterlimit:10;"/><text fill="#000000" font-family="sans-serif" font-size="13" lengthAdjust="spacing" textLength="119.2153" x="1078" y="124.4951">abrirInvestigadores()</text></g><!--link DetalleProyectoView to AbrirProyectos--><g class="link" data-entity-1="ent0003" data-entity-2="ent0010" data-link-type="dependency" data-source-line="26" id="lnk20"><path d="M668.74,67.86 C832,80.67 1206,110 1206,110 C1206,110 1338.9132,137.4096 1433.6632,156.9596" fill="none" id="DetalleProyectoView-to-AbrirProyectos" style="stroke:#181818;stroke-width:1;stroke-dasharray:7,7;"/><polygon fill="#181818" points="1438.56,157.97,1430.554,152.2338,1433.6632,156.9596,1428.9374,160.0688,1438.56,157.97" style="stroke:#181818;stroke-width:1;stroke-linejoin:miter;stroke-miterlimit:10;"/><text fill="#000000" font-family="sans-serif" font-size="13" lengthAdjust="spacing" textLength="92.4663" x="1292" y="124.4951">abrirProyectos()</text></g><?plantuml-src bL9DQy904BtlhnZiHGzwa2hLWn1Z12zLj1HwAfDaAejnDynkBLBwtxiHDH_6QdFQ3E-zcNdpp4Qg51cta4X5TfyIf3hPPpz2C4KMrJeXUF0dmTZhGMEuMCxV0lzbldhtnhDWwHuDG0E1iHZhG5d664MAqGRN11Yov0NhlHFI6QnHgZHR3VWMuBv2ftvt44m7C26BIK8dwAkahoeox8Ln_mbE45-xxjfnk0gSTZt_CJW3bvHg8wtc_GsW-FdRWvC51GTMc4XdG1tBTxDXg1cjr0gyp8ZCBrfZc90vQ5IBz-hCr8wCbMit01UbolLxrKxh5uJE9I5AbuOsjqTrjnf2vT92rA2W7JlwvG67e4DBYdA-Z5lr0bVuALCMQ_QYoEr5PY9DgfNCJ6tAWYijSSakYUPXoOVIF8iF4_s3koEM7p92NX1lfT6cYGvHw9-3dKOUmRgbEvrHAMv3YDm0KdqYF-FEPIVRkTcwogt6x7YiGkKMkHoi8xzSl2LnZbGbAXdn5m00?></g></svg>