<svg xmlns="http://www.w3.org/2000/svg" xmlns:xlink="http://www.w3.org/1999/xlink" contentStyleType="text/css" data-diagram-type="STATE" height="782px" preserveAspectRatio="none" style="width:565px;height:782px;background:#FFFFFF;" version="1.1" viewBox="0 0 565 782" width="565px" zoomAndPan="magnify"><?plantuml 1.2026.6?><defs/><g><!--cluster cerrarSesion--><g class="cluster" data-qualified-name="cerrarSesion" data-source-line="7" id="ent0002"><path d="M201,112 L538,112 A12.5,12.5 0 0 1 550.5,124.5 L550.5,134.6094 L188.5,134.6094 L188.5,124.5 A12.5,12.5 0 0 1 201,112" fill="#F1F1F1"/><rect fill="none" height="516" rx="12.5" ry="12.5" style="stroke:#181818;stroke-width:0.5;" width="362" x="188.5" y="112"/><line style="stroke:#181818;stroke-width:0.5;" x1="188.5" x2="550.5" y1="134.6094" y2="134.6094"/><text fill="#000000" font-family="sans-serif" font-size="14" lengthAdjust="spacing" textLength="88.6895" x="325.1553" y="130.5332">cerrarSesion()</text></g><g class="entity" data-qualified-name="cerrarSesion.SolicitandoCierre" data-source-line="9" id="ent0003"><rect fill="#F1F1F1" height="50" rx="12.5" ry="12.5" style="stroke:#181818;stroke-width:0.5;" width="50" x="230.5" y="272"/><line style="stroke:#181818;stroke-width:0.5;" x1="230.5" x2="280.5" y1="299.6094" y2="299.6094"/><text fill="#000000" font-family="sans-serif" font-size="14" lengthAdjust="spacing" textLength="3.8896" x="253.5552" y="291.5332">&#160;</text></g><g class="entity" data-qualified-name="cerrarSesion.ConfirmandoCierre" data-source-line="10" id="ent0004"><rect fill="#F1F1F1" height="50" rx="12.5" ry="12.5" style="stroke:#181818;stroke-width:0.5;" width="50" x="230.5" y="434"/><line style="stroke:#181818;stroke-width:0.5;" x1="230.5" x2="280.5" y1="461.6094" y2="461.6094"/><text fill="#000000" font-family="sans-serif" font-size="14" lengthAdjust="spacing" textLength="3.8896" x="253.5552" y="453.5332">&#160;</text></g><g class="entity" data-qualified-name="cerrarSesion.c" id="ent0005"><polygon fill="#F1F1F1" points="255.5,580,267.5,592,255.5,604,243.5,592,255.5,580" style="stroke:#181818;stroke-width:0.5;stroke-linejoin:miter;stroke-miterlimit:10;"/></g><g class="start_entity" data-qualified-name="cerrarSesion..start.cerrarSesion" data-source-line="13" id="ent0007"><ellipse cx="255.5" cy="166" fill="#222222" rx="10" ry="10" style="stroke:#222222;stroke-width:1;"/></g><g class="entity" data-qualified-name="in1" data-source-line="4" id="ent0001"><rect fill="#F1F1F1" height="50" rx="12.5" ry="12.5" style="stroke:#181818;stroke-width:0.5;" width="216.8477" x="88" y="7"/><line style="stroke:#181818;stroke-width:0.5;" x1="88" x2="304.8477" y1="34.6094" y2="34.6094"/><text fill="#000000" font-family="sans-serif" font-size="14" lengthAdjust="spacing" textLength="196.8477" x="98" y="26.5332">PANEL_PRINCIPAL_ABIERTO</text></g><g class="entity" data-qualified-name="PANEL_PRINCIPAL_ABIERTO" data-source-line="30" id="ent0011"><rect fill="#F1F1F1" height="50" rx="12.5" ry="12.5" style="stroke:#181818;stroke-width:0.5;" width="216.8477" x="7" y="718"/><line style="stroke:#181818;stroke-width:0.5;" x1="7" x2="223.8477" y1="745.6094" y2="745.6094"/><text fill="#000000" font-family="sans-serif" font-size="14" lengthAdjust="spacing" textLength="196.8477" x="17" y="737.5332">PANEL_PRINCIPAL_ABIERTO</text></g><g class="entity" data-qualified-name="SESION_CERRADA" data-source-line="35" id="ent0013"><rect fill="#F1F1F1" height="50" rx="12.5" ry="12.5" style="stroke:#181818;stroke-width:0.5;" width="149.1445" x="322" y="718"/><line style="stroke:#181818;stroke-width:0.5;" x1="322" x2="471.1445" y1="745.6094" y2="745.6094"/><text fill="#000000" font-family="sans-serif" font-size="14" lengthAdjust="spacing" textLength="129.1445" x="332" y="737.5332">SESION_CERRADA</text></g><!--link in1 to cerrarSesion--><g class="link" data-entity-1="ent0001" data-entity-2="ent0002" data-link-type="dependency" data-source-line="5" id="lnk6"><path d="M196.5,57.21 C196.5,66.5875 196.5,77.8775 196.5,89.5708 C196.5,95.4174 196.5,101.3649 196.5,107.2245 C196.5,108.6894 196.5,105.1488 196.5,106.5998" fill="none" id="in1-to-cerrarSesion" style="stroke:#008000;stroke-width:1;"/><polygon fill="#008000" points="196.5,111.5998,200.5,102.5998,196.5,106.5998,192.5,102.5998,196.5,111.5998" style="stroke:#008000;stroke-width:1;stroke-linejoin:miter;stroke-miterlimit:10;"/></g><!--link *start*cerrarSesion to SolicitandoCierre--><g class="link" data-entity-1="ent0007" data-entity-2="ent0003" data-link-type="dependency" data-source-line="13" id="lnk8"><path d="M255.5,176.28 C255.5,196.09 255.5,238.09 255.5,266.96" fill="none" id="*start*cerrarSesion-to-SolicitandoCierre" style="stroke:#008000;stroke-width:1;"/><polygon fill="#008000" points="255.5,271.96,259.5,262.96,255.5,266.96,251.5,262.96,255.5,271.96" style="stroke:#008000;stroke-width:1;stroke-linejoin:miter;stroke-miterlimit:10;"/><path d="M260.5,211 L260.5,237 L481.5,237 L481.5,221 L471.5,211 L260.5,211" fill="#FEFFDD" style="stroke:#181818;stroke-width:0.5;"/><path d="M471.5,211 L471.5,221 L481.5,221 L471.5,211" fill="#FEFFDD" style="stroke:#181818;stroke-width:0.5;"/><text fill="#000000" font-family="sans-serif" font-size="13" font-weight="700" lengthAdjust="spacing" textLength="77.9937" x="266.5" y="229.4951">Coordinador</text><text fill="#000000" font-family="sans-serif" font-size="13" lengthAdjust="spacing" textLength="118.4854" x="348.1055" y="229.4951">solicita cerrar sesi&#243;n</text></g><!--link SolicitandoCierre to ConfirmandoCierre--><g class="link" data-entity-1="ent0003" data-entity-2="ent0004" data-link-type="dependency" data-source-line="18" id="lnk9"><path d="M255.5,322.3 C255.5,352.55 255.5,398.89 255.5,429" fill="none" id="SolicitandoCierre-to-ConfirmandoCierre" style="stroke:#008000;stroke-width:1;"/><polygon fill="#008000" points="255.5,434,259.5,425,255.5,429,251.5,425,255.5,434" style="stroke:#008000;stroke-width:1;stroke-linejoin:miter;stroke-miterlimit:10;"/><path d="M260.5,357 L260.5,399 L451.5,399 L451.5,367 L441.5,357 L260.5,357" fill="#FEFFDD" style="stroke:#181818;stroke-width:0.5;"/><path d="M441.5,357 L441.5,367 L451.5,367 L441.5,357" fill="#FEFFDD" style="stroke:#181818;stroke-width:0.5;"/><text fill="#000000" font-family="sans-serif" font-size="13" font-weight="700" lengthAdjust="spacing" textLength="49.8608" x="266.5" y="375.4951">Sistema</text><text fill="#000000" font-family="sans-serif" font-size="13" lengthAdjust="spacing" textLength="117.0444" x="319.9727" y="375.4951">solicita confirmaci&#243;n</text><text fill="#000000" font-family="sans-serif" font-size="13" lengthAdjust="spacing" textLength="145.228" x="266.5" y="391.8467">&#191;Desea cerrar la sesi&#243;n?</text></g><!--link ConfirmandoCierre to c--><g class="link" data-entity-1="ent0004" data-entity-2="ent0005" data-link-type="dependency" data-source-line="24" id="lnk10"><path d="M255.5,484.03 C255.5,512.54 255.5,553.86 255.5,574.93" fill="none" id="ConfirmandoCierre-to-c" style="stroke:#008000;stroke-width:1;"/><polygon fill="#008000" points="255.5,579.93,259.5,570.93,255.5,574.93,251.5,570.93,255.5,579.93" style="stroke:#008000;stroke-width:1;stroke-linejoin:miter;stroke-miterlimit:10;"/><path d="M260.5,519 L260.5,545 L521.5,545 L521.5,529 L511.5,519 L260.5,519" fill="#FEFFDD" style="stroke:#181818;stroke-width:0.5;"/><path d="M511.5,519 L511.5,529 L521.5,529 L511.5,519" fill="#FEFFDD" style="stroke:#181818;stroke-width:0.5;"/><text fill="#000000" font-family="sans-serif" font-size="13" font-weight="700" lengthAdjust="spacing" textLength="77.9937" x="266.5" y="537.4951">Coordinador</text><text fill="#000000" font-family="sans-serif" font-size="13" lengthAdjust="spacing" textLength="158.958" x="348.1055" y="537.4951">confirma o cancela el cierre</text></g><!--link c to PANEL_PRINCIPAL_ABIERTO--><g class="link" data-entity-1="ent0005" data-entity-2="ent0011" data-link-type="dependency" data-source-line="30" id="lnk12"><path d="M247.4,596.34 C217.15,608.82 112.5,652 112.5,652 C112.5,652 112.5,688 112.5,688 C112.5,688 113.0821,698.4777 113.8821,712.8477" fill="none" id="c-to-PANEL_PRINCIPAL_ABIERTO" style="stroke:#0000FF;stroke-width:1;"/><polygon fill="#0000FF" points="114.16,717.84,117.6535,708.6316,113.8821,712.8477,109.6659,709.0763,114.16,717.84" style="stroke:#0000FF;stroke-width:1;stroke-linejoin:miter;stroke-miterlimit:10;"/><path d="M117.5,657 L117.5,683 L348.5,683 L348.5,667 L338.5,657 L117.5,657" fill="#FEFFDD" style="stroke:#181818;stroke-width:0.5;"/><path d="M338.5,657 L338.5,667 L348.5,667 L338.5,657" fill="#FEFFDD" style="stroke:#181818;stroke-width:0.5;"/><text fill="#000000" font-family="sans-serif" font-size="13" font-weight="700" lengthAdjust="spacing" textLength="77.9937" x="123.5" y="675.4951">Coordinador</text><text fill="#000000" font-family="sans-serif" font-size="13" lengthAdjust="spacing" textLength="128.6035" x="205.1055" y="675.4951">solicita cancelar cierre</text></g><!--link c to SESION_CERRADA--><g class="link" data-entity-1="ent0005" data-entity-2="ent0013" data-link-type="dependency" data-source-line="35" id="lnk14"><path d="M262.51,597.06 C285.56,610.39 357.5,652 357.5,652 C357.5,652 372.5123,686.6321 384.0623,713.2921" fill="none" id="c-to-SESION_CERRADA" style="stroke:#008000;stroke-width:1;"/><polygon fill="#008000" points="386.05,717.88,386.1426,708.0316,384.0623,713.2921,378.8019,711.2118,386.05,717.88" style="stroke:#008000;stroke-width:1;stroke-linejoin:miter;stroke-miterlimit:10;"/><path d="M377.5,657 L377.5,683 L525.5,683 L525.5,667 L515.5,657 L377.5,657" fill="#FEFFDD" style="stroke:#181818;stroke-width:0.5;"/><path d="M515.5,657 L515.5,667 L525.5,667 L515.5,657" fill="#FEFFDD" style="stroke:#181818;stroke-width:0.5;"/><text fill="#000000" font-family="sans-serif" font-size="13" font-weight="700" lengthAdjust="spacing" textLength="49.8608" x="383.5" y="675.4951">Sistema</text><text fill="#000000" font-family="sans-serif" font-size="13" lengthAdjust="spacing" textLength="73.6963" x="436.9727" y="675.4951">cierra sesi&#243;n</text></g><?plantuml-src ZPBFJeGm4CRlVOe9NjHaOxmJ3B8SI3Oi0M-R3UcMKPk5bhHus1YVoWSmqHUp_5qGD9PJ9zzyls-cw2CN9LMqW9mBh4ubGYdpKtqXH5UqGk3Y5gW6At93VvD6SH1wGUHkKlS-yEE7hKLgmMftyQGGnNxb04Ebg4fGSobwat6jSHiNBgyiU2K4p6dLblcCA94vPxoY8fCUDtgSIpmf7hag5YKCR9izIyxGSLhttVL-adGP8AHfDZ7D4evDmJuudfGguu9cKjat1mTqrzaD1jeCylKk6ZcAhF5ecJF69C5o_gK42TSL5lG7lMjd0_ppOuqQXrmvxQFTBMIRqQVl-Ezjz3500gE2eQ5Y3kmyq81z8uJLa4F-WZNZbv-AJAX_xh_bgPvs7f1DdzfFWcsOUduSksjtvZ_URkCqx6taIBu1?></g></svg>