<svg xmlns="http://www.w3.org/2000/svg" xmlns:xlink="http://www.w3.org/1999/xlink" contentStyleType="text/css" data-diagram-type="STATE" height="735px" preserveAspectRatio="none" style="width:893px;height:735px;background:#FFFFFF;" version="1.1" viewBox="0 0 893 735" width="893px" zoomAndPan="magnify"><?plantuml 1.2026.5?><defs/><g><g class="entity" data-qualified-name="proyecto" data-source-line="3" id="ent0001"><rect fill="#F1F1F1" height="50" rx="12.5" ry="12.5" style="stroke:#181818;stroke-width:0.5;" width="167.8066" x="358.5" y="7"/><line style="stroke:#181818;stroke-width:0.5;" x1="358.5" x2="526.3066" y1="34.6094" y2="34.6094"/><text fill="#000000" font-family="sans-serif" font-size="14" lengthAdjust="spacing" textLength="147.8066" x="368.5" y="26.5332">PROYECTO_ABIERTO</text></g><g class="entity" data-qualified-name="eliminarInvestigador" data-source-line="6" id="ent0002"><path d="M19.5,118 L865.5,118 A12.5,12.5 0 0 1 878,130.5 L878,145.6094 L7,145.6094 L7,130.5 A12.5,12.5 0 0 1 19.5,118" fill="#F1F1F1"/><rect fill="none" height="474.6094" rx="12.5" ry="12.5" style="stroke:#181818;stroke-width:0.5;" width="871" x="7" y="118"/><line style="stroke:#181818;stroke-width:0.5;" x1="7" x2="878" y1="145.6094" y2="145.6094"/><text fill="#000000" font-family="sans-serif" font-size="14" lengthAdjust="spacing" textLength="221.7715" x="331.6143" y="137.5332">eliminarInvestigador(investigadorId)</text><g class="entity" data-qualified-name="eliminarInvestigador.ComprobandoResponsabilidades" data-source-line="7" id="ent0003"><rect fill="#F1F1F1" height="50" rx="12.5" ry="12.5" style="stroke:#181818;stroke-width:0.5;" width="50" x="313" y="248.6094"/><line style="stroke:#181818;stroke-width:0.5;" x1="313" x2="363" y1="276.2188" y2="276.2188"/><text fill="#000000" font-family="sans-serif" font-size="14" lengthAdjust="spacing" textLength="3.8896" x="336.0552" y="268.1426">&#160;</text></g><g class="entity" data-qualified-name="eliminarInvestigador.ConfirmandoDesasignacion" data-source-line="8" id="ent0004"><rect fill="#F1F1F1" height="50" rx="12.5" ry="12.5" style="stroke:#181818;stroke-width:0.5;" width="50" x="155" y="419.6094"/><line style="stroke:#181818;stroke-width:0.5;" x1="155" x2="205" y1="447.2188" y2="447.2188"/><text fill="#000000" font-family="sans-serif" font-size="14" lengthAdjust="spacing" textLength="3.8896" x="178.0552" y="439.1426">&#160;</text></g><g class="start_entity" data-qualified-name="eliminarInvestigador..start.eliminarInvestigador" data-source-line="10" id="ent0006"><ellipse cx="338" cy="166.6094" fill="#222222" rx="10" ry="10" style="stroke:#222222;stroke-width:1;"/></g><g class="end_entity" data-qualified-name="eliminarInvestigador..end.eliminarInvestigador" data-source-line="23" id="ent0009"><ellipse cx="324" cy="568.6094" fill="none" rx="11" ry="11" style="stroke:#222222;stroke-width:1;"/><ellipse cx="324" cy="568.6094" fill="#222222" rx="6" ry="6" style="stroke:#222222;stroke-width:1;"/></g><!--link *start*eliminarInvestigador to ComprobandoResponsabilidades--><g class="link" data-entity-1="ent0006" data-entity-2="ent0003" data-link-type="dependency" data-source-line="10" id="lnk7"><path d="M338,176.9294 C338,192.7894 338,220.5194 338,243.2494" fill="none" id="*start*eliminarInvestigador-to-ComprobandoResponsabilidades" style="stroke:#008000;stroke-width:1;"/><polygon fill="#008000" points="338,248.2494,342,239.2494,338,243.2494,334,239.2494,338,248.2494" style="stroke:#008000;stroke-width:1;stroke-linejoin:miter;stroke-miterlimit:10;"/><path d="M343,199.6094 L343,225.6094 L764,225.6094 L764,209.6094 L754,199.6094 L343,199.6094" fill="#FEFFDD" style="stroke:#181818;stroke-width:0.5;"/><path d="M754,199.6094 L754,209.6094 L764,209.6094 L754,199.6094" fill="#FEFFDD" style="stroke:#181818;stroke-width:0.5;"/><text fill="#000000" font-family="sans-serif" font-size="13" font-weight="700" lengthAdjust="spacing" textLength="77.9937" x="349" y="218.1045">Coordinador</text><text fill="#000000" font-family="sans-serif" font-size="13" lengthAdjust="spacing" textLength="318.665" x="430.6055" y="218.1045">solicita retirar del proyecto al investigador seleccionado</text></g><!--link ComprobandoResponsabilidades to ConfirmandoDesasignacion--><g class="link" data-entity-1="ent0003" data-entity-2="ent0004" data-link-type="dependency" data-source-line="15" id="lnk8"><path d="M312.78,281.3594 C268.39,293.2294 181,316.6094 181,316.6094 C181,316.6094 180.5194,377.5795 180.2294,414.4195" fill="none" id="ComprobandoResponsabilidades-to-ConfirmandoDesasignacion" style="stroke:#008000;stroke-width:1;"/><polygon fill="#008000" points="180.19,419.4194,184.2607,410.4511,180.2294,414.4195,176.261,410.3882,180.19,419.4194" style="stroke:#008000;stroke-width:1;stroke-linejoin:miter;stroke-miterlimit:10;"/><path d="M186,321.6094 L186,396.6094 L477,396.6094 L477,331.6094 L467,321.6094 L186,321.6094" fill="#FEFFDD" style="stroke:#181818;stroke-width:0.5;"/><path d="M467,321.6094 L467,331.6094 L477,331.6094 L467,321.6094" fill="#FEFFDD" style="stroke:#181818;stroke-width:0.5;"/><text fill="#000000" font-family="sans-serif" font-size="13" font-weight="700" lengthAdjust="spacing" textLength="49.8608" x="192" y="340.1045">Sistema</text><text fill="#000000" font-family="sans-serif" font-size="13" lengthAdjust="spacing" textLength="216.7915" x="245.4727" y="340.1045">presenta el investigador y comprueba</text><text fill="#000000" font-family="sans-serif" font-size="13" lengthAdjust="spacing" textLength="254.4077" x="192" y="356.4561">entregables o responsabilidades pendientes</text><text fill="#000000" font-family="sans-serif" font-size="13" lengthAdjust="spacing" textLength="3.6118" x="192" y="372.8076">&#160;</text><text fill="#000000" font-family="sans-serif" font-size="13" lengthAdjust="spacing" textLength="226.8779" x="192" y="389.1592">Si puede retirarse, solicita confirmaci&#243;n</text></g><!--link ComprobandoResponsabilidades to *end*eliminarInvestigador--><g class="link" data-entity-1="ent0003" data-entity-2="ent0009" data-link-type="dependency" data-source-line="23" id="lnk10"><path d="M363.08,281.9294 C404.34,293.9594 482,316.6094 482,316.6094 C482,316.6094 482,401.6094 482,401.6094 C482,401.6094 478,539.6094 478,539.6094 C478,539.6094 375.3093,558.2849 339.9993,564.7049" fill="none" id="ComprobandoResponsabilidades-to-*end*eliminarInvestigador" style="stroke:#FF0000;stroke-width:1;"/><polygon fill="#FF0000" points="335.08,565.5994,344.6504,567.9249,339.9993,564.7049,343.2193,560.0539,335.08,565.5994" style="stroke:#FF0000;stroke-width:1;stroke-linejoin:miter;stroke-miterlimit:10;"/><path d="M486,431.6094 L486,457.6094 L854,457.6094 L854,441.6094 L844,431.6094 L486,431.6094" fill="#FEFFDD" style="stroke:#181818;stroke-width:0.5;"/><path d="M844,431.6094 L844,441.6094 L854,441.6094 L844,431.6094" fill="#FEFFDD" style="stroke:#181818;stroke-width:0.5;"/><text fill="#000000" font-family="sans-serif" font-size="13" font-weight="700" lengthAdjust="spacing" textLength="49.8608" x="492" y="450.1045">Sistema</text><text fill="#000000" font-family="sans-serif" font-size="13" lengthAdjust="spacing" textLength="294.0996" x="545.4727" y="450.1045">informa las responsabilidades que impiden retirarlo</text></g><!--link ConfirmandoDesasignacion to *end*eliminarInvestigador--><g class="link" data-entity-1="ent0004" data-entity-2="ent0009" data-link-type="dependency" data-source-line="28" id="lnk11"><path d="M154.69,452.1694 C109.12,463.9894 18,487.6094 18,487.6094 C18,487.6094 18,539.6094 18,539.6094 C18,539.6094 253.6207,561.1745 308.1307,566.1545" fill="none" id="ConfirmandoDesasignacion-to-*end*eliminarInvestigador" style="stroke:#008000;stroke-width:1;"/><polygon fill="#008000" points="313.11,566.6094,304.5112,561.8071,308.1307,566.1545,303.7834,569.774,313.11,566.6094" style="stroke:#008000;stroke-width:1;stroke-linejoin:miter;stroke-miterlimit:10;"/><path d="M23,492.6094 L23,534.6094 L297,534.6094 L297,502.6094 L287,492.6094 L23,492.6094" fill="#FEFFDD" style="stroke:#181818;stroke-width:0.5;"/><path d="M287,492.6094 L287,502.6094 L297,502.6094 L287,492.6094" fill="#FEFFDD" style="stroke:#181818;stroke-width:0.5;"/><text fill="#000000" font-family="sans-serif" font-size="13" font-weight="700" lengthAdjust="spacing" textLength="77.9937" x="29" y="511.1045">Coordinador</text><text fill="#000000" font-family="sans-serif" font-size="13" lengthAdjust="spacing" textLength="49.8481" x="110.6055" y="511.1045">confirma</text><text fill="#000000" font-family="sans-serif" font-size="13" font-weight="700" lengthAdjust="spacing" textLength="49.8608" x="29" y="527.4561">Sistema</text><text fill="#000000" font-family="sans-serif" font-size="13" lengthAdjust="spacing" textLength="200.1606" x="82.4727" y="527.4561">retira la asociaci&#243;n con el proyecto</text></g><!--link ConfirmandoDesasignacion to *end*eliminarInvestigador--><g class="link" data-entity-1="ent0004" data-entity-2="ent0009" data-link-type="dependency" data-source-line="34" id="lnk12"><path d="M205.28,454.3094 C241.01,466.6094 302,487.6094 302,487.6094 C302,487.6094 314.1051,531.6181 319.9751,552.9781" fill="none" id="ConfirmandoDesasignacion-to-*end*eliminarInvestigador-1" style="stroke:#FF0000;stroke-width:1;"/><polygon fill="#FF0000" points="321.3,557.7994,322.7721,548.0612,319.9751,552.9781,315.0581,550.1811,321.3,557.7994" style="stroke:#FF0000;stroke-width:1;stroke-linejoin:miter;stroke-miterlimit:10;"/><path d="M322,500.6094 L322,526.6094 L469,526.6094 L469,510.6094 L459,500.6094 L322,500.6094" fill="#FEFFDD" style="stroke:#181818;stroke-width:0.5;"/><path d="M459,500.6094 L459,510.6094 L469,510.6094 L459,500.6094" fill="#FEFFDD" style="stroke:#181818;stroke-width:0.5;"/><text fill="#000000" font-family="sans-serif" font-size="13" font-weight="700" lengthAdjust="spacing" textLength="77.9937" x="328" y="519.1045">Coordinador</text><text fill="#000000" font-family="sans-serif" font-size="13" lengthAdjust="spacing" textLength="44.8081" x="409.6055" y="519.1045">cancela</text></g></g><g class="entity" data-qualified-name="PROYECTO_ABIERTO" data-source-line="40" id="ent0013"><rect fill="#F1F1F1" height="50" rx="12.5" ry="12.5" style="stroke:#181818;stroke-width:0.5;" width="167.8066" x="358.5" y="671"/><line style="stroke:#181818;stroke-width:0.5;" x1="358.5" x2="526.3066" y1="698.6094" y2="698.6094"/><text fill="#000000" font-family="sans-serif" font-size="14" lengthAdjust="spacing" textLength="147.8066" x="368.5" y="690.5332">PROYECTO_ABIERTO</text></g><!--link proyecto to eliminarInvestigador--><g class="link" data-entity-1="ent0001" data-entity-2="ent0002" data-link-type="dependency" data-source-line="4" id="lnk5"><path d="M442.5,57.16 C442.5,72.35 442.5,88.64 442.5,112.92" fill="none" id="proyecto-to-eliminarInvestigador" style="stroke:#008000;stroke-width:1;"/><polygon fill="#008000" points="442.5,117.92,446.5,108.92,442.5,112.92,438.5,108.92,442.5,117.92" style="stroke:#008000;stroke-width:1;stroke-linejoin:miter;stroke-miterlimit:10;"/></g><!--link eliminarInvestigador to PROYECTO_ABIERTO--><g class="link" data-entity-1="ent0002" data-entity-2="ent0013" data-link-type="dependency" data-source-line="40" id="lnk14"><path d="M368.78,593.2 C363.09,611.47 359.5,623 359.5,623 C359.5,623 359.5,641 359.5,641 C359.5,641 379.0782,653.7444 401.1782,668.1144" fill="none" id="eliminarInvestigador-to-PROYECTO_ABIERTO" style="stroke:#008000;stroke-width:1;"/><polygon fill="#008000" points="405.37,670.84,400.0053,662.5805,401.1782,668.1144,395.6443,669.2873,405.37,670.84" style="stroke:#008000;stroke-width:1;stroke-linejoin:miter;stroke-miterlimit:10;"/><text fill="#000000" font-family="sans-serif" font-size="13" lengthAdjust="spacing" textLength="118.5107" x="360.5" y="637.4951">Investigador retirado</text></g><!--link eliminarInvestigador to PROYECTO_ABIERTO--><g class="link" data-entity-1="ent0002" data-entity-2="ent0013" data-link-type="dependency" data-source-line="41" id="lnk15"><path d="M478.92,593.2 C481.73,611.47 483.5,623 483.5,623 C483.5,623 483.5,641 483.5,641 C483.5,641 474.7852,652.489 463.8652,666.859" fill="none" id="eliminarInvestigador-to-PROYECTO_ABIERTO-1" style="stroke:#FF0000;stroke-width:1;"/><polygon fill="#FF0000" points="460.84,670.84,469.4701,666.0944,463.8652,666.859,463.1006,661.2541,460.84,670.84" style="stroke:#FF0000;stroke-width:1;stroke-linejoin:miter;stroke-miterlimit:10;"/><text fill="#000000" font-family="sans-serif" font-size="13" lengthAdjust="spacing" textLength="70.8081" x="484.5" y="637.4951">Sin cambios</text></g><?plantuml-src dPJ1Rjim38RlVWeYlMn3Yzs78i2Mzf1JXgINeIW6Mc83eZBfIag1eDXJxH7sOgFjP7CSf-rcdsJHFx__5-tqm59Zn0e22-LjJL1hs3QBeaWPiwsZRibb1Kmm-RfSVBkUtIo-V_uolrxUB2R5d-sBsxDr99AxYobGu8e5uroUA6LUezUurnlRQxN7DjvnRp7txoVmN81TdTJ4RdjpffLHb2XUbvHgbOGb1_ReAOrLopt7ggc-eeI9ruAELOgszFR3tO6JLxL5JLgboU-XVN1PJcUgqPiLOxxyM4uXQM376I5IveWHF8LUhW7wBY5H8DSGsQfL9F5jcuxm9Q81-WcZfx1Nd39Ls2BNaHA98TE0RWkk0TXGYJku76cDPR3kQWQ7HBNHinLPN6tzYg7UaATz5edE_-RZTiYEV_sK__0UoJVExH3VP9BbNgqR11kBO_B73G5NDNkIFMmOFv3nd0yEuoMauRZiKnX3xa2Cs4PP7NT9DMz0RwJ-4V8DgHqXeZWAUDZeHr6CVjpz78O_a4zmKDhPixa_9RHZFPPPiSM0LScQYjy0?></g></svg>