<svg xmlns="http://www.w3.org/2000/svg" xmlns:xlink="http://www.w3.org/1999/xlink" contentStyleType="text/css" height="1104px" preserveAspectRatio="none" style="width:1787px;height:1104px;background:#FFFFFF;" version="1.1" viewBox="0 0 1787 1104" width="1787px" zoomAndPan="magnify"><title>Diagrama de secuencia - Crear entregable</title><defs/><g><text fill="#000000" font-family="sans-serif" font-size="14" font-weight="bold" lengthAdjust="spacing" textLength="279.3438" x="755.2603" y="29.5332">Diagrama de secuencia - Crear entregable</text><rect fill="none" height="524.5156" style="stroke:#000000;stroke-width:1.5;" width="1770.8643" x="10" y="480.4375"/><line style="stroke:#181818;stroke-width:0.5;stroke-dasharray:5.0,5.0;" x1="61" x2="61" y1="121.2188" y2="1021.9531"/><line style="stroke:#181818;stroke-width:0.5;stroke-dasharray:5.0,5.0;" x1="295.8018" x2="295.8018" y1="121.2188" y2="1021.9531"/><line style="stroke:#181818;stroke-width:0.5;stroke-dasharray:5.0,5.0;" x1="586.9565" x2="586.9565" y1="121.2188" y2="1021.9531"/><line style="stroke:#181818;stroke-width:0.5;stroke-dasharray:5.0,5.0;" x1="819.9956" x2="819.9956" y1="121.2188" y2="1021.9531"/><line style="stroke:#181818;stroke-width:0.5;stroke-dasharray:5.0,5.0;" x1="946.4849" x2="946.4849" y1="121.2188" y2="1021.9531"/><line style="stroke:#181818;stroke-width:0.5;stroke-dasharray:5.0,5.0;" x1="1088.8843" x2="1088.8843" y1="121.2188" y2="1021.9531"/><line style="stroke:#181818;stroke-width:0.5;stroke-dasharray:5.0,5.0;" x1="1241.0493" x2="1241.0493" y1="121.2188" y2="1021.9531"/><line style="stroke:#181818;stroke-width:0.5;stroke-dasharray:5.0,5.0;" x1="1422.6831" x2="1422.6831" y1="121.2188" y2="1021.9531"/><line style="stroke:#181818;stroke-width:0.5;stroke-dasharray:5.0,5.0;" x1="1721.0303" x2="1721.0303" y1="121.2188" y2="1021.9531"/><text fill="#000000" font-family="sans-serif" font-size="14" lengthAdjust="spacing" textLength="77.0479" x="20" y="118.1426">Coordinador</text><ellipse cx="61.5239" cy="52.1094" fill="#E2E2F0" rx="8" ry="8" style="stroke:#181818;stroke-width:0.5;"/><path d="M61.5239,60.1094 L61.5239,87.1094 M48.5239,68.1094 L74.5239,68.1094 M61.5239,87.1094 L48.5239,102.1094 M61.5239,87.1094 L74.5239,102.1094 " fill="none" style="stroke:#181818;stroke-width:0.5;"/><text fill="#000000" font-family="sans-serif" font-size="14" lengthAdjust="spacing" textLength="77.0479" x="20" y="1035.4863">Coordinador</text><ellipse cx="61.5239" cy="1047.0625" fill="#E2E2F0" rx="8" ry="8" style="stroke:#181818;stroke-width:0.5;"/><path d="M61.5239,1055.0625 L61.5239,1082.0625 M48.5239,1063.0625 L74.5239,1063.0625 M61.5239,1082.0625 L48.5239,1097.0625 M61.5239,1082.0625 L74.5239,1097.0625 " fill="none" style="stroke:#181818;stroke-width:0.5;"/><rect fill="#E2E2F0" height="49.2188" rx="2.5" ry="2.5" style="stroke:#181818;stroke-width:0.5;" width="149.3857" x="221.8018" y="71"/><text fill="#000000" font-family="sans-serif" font-size="14" lengthAdjust="spacing" textLength="135.3857" x="228.8018" y="92.5332">CrearEntregableForm</text><text fill="#000000" font-family="sans-serif" font-size="14" lengthAdjust="spacing" textLength="45.8965" x="273.5464" y="110.1426">(React)</text><rect fill="#E2E2F0" height="49.2188" rx="2.5" ry="2.5" style="stroke:#181818;stroke-width:0.5;" width="149.3857" x="221.8018" y="1020.9531"/><text fill="#000000" font-family="sans-serif" font-size="14" lengthAdjust="spacing" textLength="135.3857" x="228.8018" y="1042.4863">CrearEntregableForm</text><text fill="#000000" font-family="sans-serif" font-size="14" lengthAdjust="spacing" textLength="45.8965" x="273.5464" y="1060.0957">(React)</text><rect fill="#E2E2F0" height="49.2188" rx="2.5" ry="2.5" style="stroke:#181818;stroke-width:0.5;" width="142.4063" x="515.9565" y="71"/><text fill="#000000" font-family="sans-serif" font-size="14" lengthAdjust="spacing" textLength="128.4063" x="522.9565" y="92.5332">EntregableController</text><text fill="#000000" font-family="sans-serif" font-size="14" lengthAdjust="spacing" textLength="82.4824" x="545.9185" y="110.1426">(Spring Boot)</text><rect fill="#E2E2F0" height="49.2188" rx="2.5" ry="2.5" style="stroke:#181818;stroke-width:0.5;" width="142.4063" x="515.9565" y="1020.9531"/><text fill="#000000" font-family="sans-serif" font-size="14" lengthAdjust="spacing" textLength="128.4063" x="522.9565" y="1042.4863">EntregableController</text><text fill="#000000" font-family="sans-serif" font-size="14" lengthAdjust="spacing" textLength="82.4824" x="545.9185" y="1060.0957">(Spring Boot)</text><rect fill="#E2E2F0" height="31.6094" rx="2.5" ry="2.5" style="stroke:#181818;stroke-width:0.5;" width="103.4893" x="768.9956" y="88.6094"/><text fill="#000000" font-family="sans-serif" font-size="14" lengthAdjust="spacing" textLength="89.4893" x="775.9956" y="110.1426">SesionService</text><rect fill="#E2E2F0" height="31.6094" rx="2.5" ry="2.5" style="stroke:#181818;stroke-width:0.5;" width="103.4893" x="768.9956" y="1020.9531"/><text fill="#000000" font-family="sans-serif" font-size="14" lengthAdjust="spacing" textLength="89.4893" x="775.9956" y="1042.4863">SesionService</text><rect fill="#E2E2F0" height="31.6094" rx="2.5" ry="2.5" style="stroke:#181818;stroke-width:0.5;" width="128.3994" x="882.4849" y="88.6094"/><text fill="#000000" font-family="sans-serif" font-size="14" lengthAdjust="spacing" textLength="114.3994" x="889.4849" y="110.1426">EntregableService</text><rect fill="#E2E2F0" height="31.6094" rx="2.5" ry="2.5" style="stroke:#181818;stroke-width:0.5;" width="128.3994" x="882.4849" y="1020.9531"/><text fill="#000000" font-family="sans-serif" font-size="14" lengthAdjust="spacing" textLength="114.3994" x="889.4849" y="1042.4863">EntregableService</text><rect fill="#E2E2F0" height="31.6094" rx="2.5" ry="2.5" style="stroke:#181818;stroke-width:0.5;" width="136.165" x="1020.8843" y="88.6094"/><text fill="#000000" font-family="sans-serif" font-size="14" lengthAdjust="spacing" textLength="122.165" x="1027.8843" y="110.1426">ProyectoRepository</text><rect fill="#E2E2F0" height="31.6094" rx="2.5" ry="2.5" style="stroke:#181818;stroke-width:0.5;" width="136.165" x="1020.8843" y="1020.9531"/><text fill="#000000" font-family="sans-serif" font-size="14" lengthAdjust="spacing" textLength="122.165" x="1027.8843" y="1042.4863">ProyectoRepository</text><rect fill="#E2E2F0" height="31.6094" rx="2.5" ry="2.5" style="stroke:#181818;stroke-width:0.5;" width="148.6338" x="1167.0493" y="88.6094"/><text fill="#000000" font-family="sans-serif" font-size="14" lengthAdjust="spacing" textLength="134.6338" x="1174.0493" y="110.1426">EntregableRepository</text><rect fill="#E2E2F0" height="31.6094" rx="2.5" ry="2.5" style="stroke:#181818;stroke-width:0.5;" width="148.6338" x="1167.0493" y="1020.9531"/><text fill="#000000" font-family="sans-serif" font-size="14" lengthAdjust="spacing" textLength="134.6338" x="1174.0493" y="1042.4863">EntregableRepository</text><rect fill="#E2E2F0" height="31.6094" rx="2.5" ry="2.5" style="stroke:#181818;stroke-width:0.5;" width="195.3164" x="1325.6831" y="88.6094"/><text fill="#000000" font-family="sans-serif" font-size="14" lengthAdjust="spacing" textLength="181.3164" x="1332.6831" y="110.1426">ArchivoEntregableRepository</text><rect fill="#E2E2F0" height="31.6094" rx="2.5" ry="2.5" style="stroke:#181818;stroke-width:0.5;" width="195.3164" x="1325.6831" y="1020.9531"/><text fill="#000000" font-family="sans-serif" font-size="14" lengthAdjust="spacing" textLength="181.3164" x="1332.6831" y="1042.4863">ArchivoEntregableRepository</text><text fill="#000000" font-family="sans-serif" font-size="14" lengthAdjust="spacing" textLength="91.834" x="1673.0303" y="118.1426">Base de Datos</text><path d="M1703.9473,67.6094 C1703.9473,57.6094 1721.9473,57.6094 1721.9473,57.6094 C1721.9473,57.6094 1739.9473,57.6094 1739.9473,67.6094 L1739.9473,93.6094 C1739.9473,103.6094 1721.9473,103.6094 1721.9473,103.6094 C1721.9473,103.6094 1703.9473,103.6094 1703.9473,93.6094 L1703.9473,67.6094 " fill="#E2E2F0" style="stroke:#181818;stroke-width:1.5;"/><path d="M1703.9473,67.6094 C1703.9473,77.6094 1721.9473,77.6094 1721.9473,77.6094 C1721.9473,77.6094 1739.9473,77.6094 1739.9473,67.6094 " fill="none" style="stroke:#181818;stroke-width:1.5;"/><text fill="#000000" font-family="sans-serif" font-size="14" lengthAdjust="spacing" textLength="91.834" x="1673.0303" y="1035.4863">Base de Datos</text><path d="M1703.9473,1048.5625 C1703.9473,1038.5625 1721.9473,1038.5625 1721.9473,1038.5625 C1721.9473,1038.5625 1739.9473,1038.5625 1739.9473,1048.5625 L1739.9473,1074.5625 C1739.9473,1084.5625 1721.9473,1084.5625 1721.9473,1084.5625 C1721.9473,1084.5625 1703.9473,1084.5625 1703.9473,1074.5625 L1703.9473,1048.5625 " fill="#E2E2F0" style="stroke:#181818;stroke-width:1.5;"/><path d="M1703.9473,1048.5625 C1703.9473,1058.5625 1721.9473,1058.5625 1721.9473,1058.5625 C1721.9473,1058.5625 1739.9473,1058.5625 1739.9473,1048.5625 " fill="none" style="stroke:#181818;stroke-width:1.5;"/><polygon fill="#181818" points="284.4946,149.5703,294.4946,153.5703,284.4946,157.5703,288.4946,153.5703" style="stroke:#181818;stroke-width:1;"/><line style="stroke:#181818;stroke-width:1;" x1="61.5239" x2="290.4946" y1="153.5703" y2="153.5703"/><text fill="#000000" font-family="sans-serif" font-size="13" lengthAdjust="spacing" textLength="197.2852" x="68.5239" y="148.7139">Introduce datos y archivo opcional</text><polygon fill="#181818" points="575.1597,196.2734,585.1597,200.2734,575.1597,204.2734,579.1597,200.2734" style="stroke:#181818;stroke-width:1;"/><line style="stroke:#181818;stroke-width:1;" x1="296.4946" x2="581.1597" y1="200.2734" y2="200.2734"/><text fill="#000000" font-family="sans-serif" font-size="13" lengthAdjust="spacing" textLength="264.4878" x="303.4946" y="179.0654">POST /api/proyectos/{proyectoId}/entregables</text><text fill="#000000" font-family="sans-serif" font-size="13" lengthAdjust="spacing" textLength="266.665" x="303.4946" y="195.417">EntregableCreateRequest + archivo? + cookie</text><polygon fill="#181818" points="808.7402,226.625,818.7402,230.625,808.7402,234.625,812.7402,230.625" style="stroke:#181818;stroke-width:1;"/><line style="stroke:#181818;stroke-width:1;" x1="587.1597" x2="814.7402" y1="230.625" y2="230.625"/><text fill="#000000" font-family="sans-serif" font-size="13" lengthAdjust="spacing" textLength="209.5806" x="594.1597" y="225.7686">obtenerSesionActual(authentication)</text><polygon fill="#181818" points="598.1597,256.9766,588.1597,260.9766,598.1597,264.9766,594.1597,260.9766" style="stroke:#181818;stroke-width:1;"/><line style="stroke:#181818;stroke-width:1;stroke-dasharray:2.0,2.0;" x1="592.1597" x2="819.7402" y1="260.9766" y2="260.9766"/><text fill="#000000" font-family="sans-serif" font-size="13" lengthAdjust="spacing" textLength="142.3779" x="604.1597" y="256.1201">Coordinador autenticado</text><polygon fill="#181818" points="934.6846,287.3281,944.6846,291.3281,934.6846,295.3281,938.6846,291.3281" style="stroke:#181818;stroke-width:1;"/><line style="stroke:#181818;stroke-width:1;" x1="587.1597" x2="940.6846" y1="291.3281" y2="291.3281"/><text fill="#000000" font-family="sans-serif" font-size="13" lengthAdjust="spacing" textLength="270.2451" x="594.1597" y="286.4717">crear(proyectoId, datos, archivo?, coordinador)</text><polygon fill="#181818" points="1076.9668,317.6797,1086.9668,321.6797,1076.9668,325.6797,1080.9668,321.6797" style="stroke:#181818;stroke-width:1;"/><line style="stroke:#181818;stroke-width:1;" x1="946.6846" x2="1082.9668" y1="321.6797" y2="321.6797"/><text fill="#000000" font-family="sans-serif" font-size="13" lengthAdjust="spacing" textLength="116.3335" x="953.6846" y="316.8232">findById(proyectoId)</text><polygon fill="#181818" points="1709.9473,364.3828,1719.9473,368.3828,1709.9473,372.3828,1713.9473,368.3828" style="stroke:#181818;stroke-width:1;"/><line style="stroke:#181818;stroke-width:1;" x1="1088.9668" x2="1715.9473" y1="368.3828" y2="368.3828"/><text fill="#000000" font-family="sans-serif" font-size="13" lengthAdjust="spacing" textLength="161.0972" x="1095.9668" y="347.1748">SELECT * FROM proyectos</text><text fill="#000000" font-family="sans-serif" font-size="13" lengthAdjust="spacing" textLength="217.4771" x="1095.9668" y="363.5264">WHERE id = ? AND archivado = false</text><polygon fill="#181818" points="1099.9668,394.7344,1089.9668,398.7344,1099.9668,402.7344,1095.9668,398.7344" style="stroke:#181818;stroke-width:1;"/><line style="stroke:#181818;stroke-width:1;stroke-dasharray:2.0,2.0;" x1="1093.9668" x2="1720.9473" y1="398.7344" y2="398.7344"/><text fill="#000000" font-family="sans-serif" font-size="13" lengthAdjust="spacing" textLength="92.4854" x="1105.9668" y="393.8779">Proyecto / vacio</text><polygon fill="#181818" points="957.6846,425.0859,947.6846,429.0859,957.6846,433.0859,953.6846,429.0859" style="stroke:#181818;stroke-width:1;"/><line style="stroke:#181818;stroke-width:1;stroke-dasharray:2.0,2.0;" x1="951.6846" x2="1087.9668" y1="429.0859" y2="429.0859"/><text fill="#000000" font-family="sans-serif" font-size="13" lengthAdjust="spacing" textLength="92.4854" x="963.6846" y="424.2295">Proyecto / vacio</text><path d="M951,442.0859 L951,468.0859 L1242,468.0859 L1242,452.0859 L1232,442.0859 L951,442.0859 " fill="#FEFFDD" style="stroke:#181818;stroke-width:0.5;"/><path d="M1232,442.0859 L1232,452.0859 L1242,452.0859 L1232,442.0859 " fill="#FEFFDD" style="stroke:#181818;stroke-width:0.5;"/><text fill="#000000" font-family="sans-serif" font-size="13" lengthAdjust="spacing" textLength="270.9814" x="957" y="460.5811">Responsabilidad interna: validarDatosYArchivo</text><path d="M10,480.4375 L70.1709,480.4375 L70.1709,488.7891 L60.1709,498.7891 L10,498.7891 L10,480.4375 " fill="#EEEEEE" style="stroke:#000000;stroke-width:1.5;"/><rect fill="none" height="524.5156" style="stroke:#000000;stroke-width:1.5;" width="1770.8643" x="10" y="480.4375"/><text fill="#000000" font-family="sans-serif" font-size="13" font-weight="bold" lengthAdjust="spacing" textLength="15.1709" x="25" y="494.9326">alt</text><text fill="#000000" font-family="sans-serif" font-size="11" font-weight="bold" lengthAdjust="spacing" textLength="207.8237" x="85.1709" y="493.8564">[Proyecto inexistente o datos invalidos]</text><polygon fill="#181818" points="598.1597,517.1406,588.1597,521.1406,598.1597,525.1406,594.1597,521.1406" style="stroke:#181818;stroke-width:1;"/><line style="stroke:#181818;stroke-width:1;stroke-dasharray:2.0,2.0;" x1="592.1597" x2="945.6846" y1="521.1406" y2="521.1406"/><text fill="#000000" font-family="sans-serif" font-size="13" lengthAdjust="spacing" textLength="316.5195" x="604.1597" y="516.2842">RecursoNoEncontradoException / ValidacionException</text><polygon fill="#181818" points="307.4946,547.4922,297.4946,551.4922,307.4946,555.4922,303.4946,551.4922" style="stroke:#181818;stroke-width:1;"/><line style="stroke:#181818;stroke-width:1;stroke-dasharray:2.0,2.0;" x1="301.4946" x2="586.1597" y1="551.4922" y2="551.4922"/><text fill="#000000" font-family="sans-serif" font-size="13" lengthAdjust="spacing" textLength="197.3042" x="313.4946" y="546.6357">404 Not Found / 400 Bad Request</text><polygon fill="#181818" points="72.5239,577.8438,62.5239,581.8438,72.5239,585.8438,68.5239,581.8438" style="stroke:#181818;stroke-width:1;"/><line style="stroke:#181818;stroke-width:1;stroke-dasharray:2.0,2.0;" x1="66.5239" x2="295.4946" y1="581.8438" y2="581.8438"/><text fill="#000000" font-family="sans-serif" font-size="13" lengthAdjust="spacing" textLength="210.9707" x="78.5239" y="576.9873">Presenta error y conserva formulario</text><line style="stroke:#000000;stroke-width:1;stroke-dasharray:2.0,2.0;" x1="10" x2="1780.8643" y1="590.8438" y2="590.8438"/><text fill="#000000" font-family="sans-serif" font-size="11" font-weight="bold" lengthAdjust="spacing" textLength="78.8477" x="15" y="602.2627">[Datos validos]</text><polygon fill="#181818" points="1229.3662,624.0313,1239.3662,628.0313,1229.3662,632.0313,1233.3662,628.0313" style="stroke:#181818;stroke-width:1;"/><line style="stroke:#181818;stroke-width:1;" x1="946.6846" x2="1235.3662" y1="628.0313" y2="628.0313"/><text fill="#000000" font-family="sans-serif" font-size="13" lengthAdjust="spacing" textLength="97.5571" x="953.6846" y="623.1748">save(entregable)</text><polygon fill="#181818" points="1709.9473,687.0859,1719.9473,691.0859,1709.9473,695.0859,1713.9473,691.0859" style="stroke:#181818;stroke-width:1;"/><line style="stroke:#181818;stroke-width:1;" x1="1241.3662" x2="1715.9473" y1="691.0859" y2="691.0859"/><text fill="#000000" font-family="sans-serif" font-size="13" lengthAdjust="spacing" textLength="153.8862" x="1248.3662" y="653.5264">INSERT INTO entregables</text><text fill="#000000" font-family="sans-serif" font-size="13" lengthAdjust="spacing" textLength="289.0342" x="1248.3662" y="669.8779">(proyecto_id, titulo, descripcion, autor_id, retirado)</text><text fill="#000000" font-family="sans-serif" font-size="13" lengthAdjust="spacing" textLength="148.8462" x="1248.3662" y="686.2295">VALUES (?, ?, ?, ?, false)</text><polygon fill="#181818" points="1252.3662,717.4375,1242.3662,721.4375,1252.3662,725.4375,1248.3662,721.4375" style="stroke:#181818;stroke-width:1;"/><line style="stroke:#181818;stroke-width:1;stroke-dasharray:2.0,2.0;" x1="1246.3662" x2="1720.9473" y1="721.4375" y2="721.4375"/><text fill="#000000" font-family="sans-serif" font-size="13" lengthAdjust="spacing" textLength="147.4243" x="1258.3662" y="716.5811">Entregable creado con ID</text><polygon fill="#181818" points="957.6846,747.7891,947.6846,751.7891,957.6846,755.7891,953.6846,751.7891" style="stroke:#181818;stroke-width:1;"/><line style="stroke:#181818;stroke-width:1;stroke-dasharray:2.0,2.0;" x1="951.6846" x2="1240.3662" y1="751.7891" y2="751.7891"/><text fill="#000000" font-family="sans-serif" font-size="13" lengthAdjust="spacing" textLength="106.2407" x="963.6846" y="746.9326">Entregable creado</text><polygon fill="#181818" points="1411.3413,778.1406,1421.3413,782.1406,1411.3413,786.1406,1415.3413,782.1406" style="stroke:#181818;stroke-width:1;"/><line style="stroke:#181818;stroke-width:1;" x1="946.6846" x2="1417.3413" y1="782.1406" y2="782.1406"/><text fill="#000000" font-family="sans-serif" font-size="13" lengthAdjust="spacing" textLength="222.5679" x="953.6846" y="777.2842">save(entregable, archivo, coordinador)</text><polygon fill="#181818" points="1709.9473,841.1953,1719.9473,845.1953,1709.9473,849.1953,1713.9473,845.1953" style="stroke:#181818;stroke-width:1;"/><line style="stroke:#181818;stroke-width:1;" x1="1423.3413" x2="1715.9473" y1="845.1953" y2="845.1953"/><text fill="#000000" font-family="sans-serif" font-size="13" lengthAdjust="spacing" textLength="203.0234" x="1430.3413" y="807.6357">INSERT INTO archivos_entregable</text><text fill="#000000" font-family="sans-serif" font-size="13" lengthAdjust="spacing" textLength="274.606" x="1430.3413" y="823.9873">(entregable_id, version, archivo, subido_por_id)</text><text fill="#000000" font-family="sans-serif" font-size="13" lengthAdjust="spacing" textLength="114.1626" x="1430.3413" y="840.3389">VALUES (?, 1, ?, ?)</text><polygon fill="#181818" points="1434.3413,871.5469,1424.3413,875.5469,1434.3413,879.5469,1430.3413,875.5469" style="stroke:#181818;stroke-width:1;"/><line style="stroke:#181818;stroke-width:1;stroke-dasharray:2.0,2.0;" x1="1428.3413" x2="1720.9473" y1="875.5469" y2="875.5469"/><text fill="#000000" font-family="sans-serif" font-size="13" lengthAdjust="spacing" textLength="84.5317" x="1440.3413" y="870.6904">Archivo / vacio</text><polygon fill="#181818" points="957.6846,901.8984,947.6846,905.8984,957.6846,909.8984,953.6846,905.8984" style="stroke:#181818;stroke-width:1;"/><line style="stroke:#181818;stroke-width:1;stroke-dasharray:2.0,2.0;" x1="951.6846" x2="1422.3413" y1="905.8984" y2="905.8984"/><text fill="#000000" font-family="sans-serif" font-size="13" lengthAdjust="spacing" textLength="84.5317" x="963.6846" y="901.042">Archivo / vacio</text><polygon fill="#181818" points="598.1597,932.25,588.1597,936.25,598.1597,940.25,594.1597,936.25" style="stroke:#181818;stroke-width:1;"/><line style="stroke:#181818;stroke-width:1;stroke-dasharray:2.0,2.0;" x1="592.1597" x2="945.6846" y1="936.25" y2="936.25"/><text fill="#000000" font-family="sans-serif" font-size="13" lengthAdjust="spacing" textLength="161.8843" x="604.1597" y="931.3936">EntregableDetalleResponse</text><polygon fill="#181818" points="307.4946,962.6016,297.4946,966.6016,307.4946,970.6016,303.4946,966.6016" style="stroke:#181818;stroke-width:1;"/><line style="stroke:#181818;stroke-width:1;stroke-dasharray:2.0,2.0;" x1="301.4946" x2="586.1597" y1="966.6016" y2="966.6016"/><text fill="#000000" font-family="sans-serif" font-size="13" lengthAdjust="spacing" textLength="71.5508" x="313.4946" y="961.7451">201 Created</text><polygon fill="#181818" points="72.5239,992.9531,62.5239,996.9531,72.5239,1000.9531,68.5239,996.9531" style="stroke:#181818;stroke-width:1;"/><line style="stroke:#181818;stroke-width:1;stroke-dasharray:2.0,2.0;" x1="66.5239" x2="295.4946" y1="996.9531" y2="996.9531"/><text fill="#000000" font-family="sans-serif" font-size="13" lengthAdjust="spacing" textLength="207.3525" x="78.5239" y="992.0967">Presenta ENTREGABLE_ABIERTO</text><!--SRC=[ZLHTRzem57tFhxZg4snKj5EVaDQAGDYGEbe1wpG92LsI2xMMsfdjeA9f_ttNJiW7jDAaYiRsEVVZt6DROLE2iS2TnXU4XC1Gd9EC1S8bZ3IX1f9MqmutAGKOMwLXf9HEXCH4wI13RKKiCfGMBZm-gk0JfLzMiZCdfdKl00rCj9AMPDAcrOmH7skLfgIPjyYqa3i8bIhPmqoqYGioGia5wRs8oKEAdVV2jv7-kmrzrEf0tEESCcK4zthmsERsUx5FAEVGeOwVnLwzooZFFJ51Yniq11UX- -MnZD4gut7ZC0WQ4u3BsqhM0KoTVaaUCySHu01OX0MLnQmCfi4Hx8Yiw00U7nPBw6Cc-bdPf-d_ENvEax_zsW1c9Hl3ucbRxk9tJiR2nsEcE_wCbVebAE3mBainb06e3USbNIo7iSqnxM1kdpc-YD7oPZSe3k7oM5opKyOMq4JLeVqK1n0xwtNggdk50BsggfuhwXZAvV545wCvtG5iXKp2mpHfnEe6JOYZZCC1BABxQBI43p2PFto3IhgL_F4rcaSW4lWCTp2SZSiIE2_lR34r58n3ts4xyt45VTWZ3-iaQxFRCwXKba2BtRC5jQrnSpAPaWOt8XK99Y1uybhYW5bkGtjN_IoT5s1gwyX2qgimJd02LRf9ICzJ9W2e13nEQiuFXpPgnWwFtJNcVgFNc38tLwxpoMTq7gnsEOeVOyl1DrStC5CM9YfdZ_PvVGKXbrxwZ3crWPdOy8UJXGmNZ41QiryEF79fk4w4BJz5UOgQfI8UG76Tu8rkRg4OXi4zTMhZTndJ7FvqjeZcI_wtV83MzQXiinRiGIjidYhs8fbO2ty3Uyx6IljZJLOudReh-JIy_nujeCC-hVwyLrpcqYv5PVK5zAPdLt6NC1rN5JQDSWPkzzfuSyvQhgxEoSs19kijFKgQMTUnM9TwuLlVapQ56iSa9j_mCDQPrwQjo7MXI4EALk7beheC9nKszJY7dlcubcnC5bFtJljBH6_QzTFLDHGFOV9_rencotdqPHZUH-jXE6NH7W8c_0C0]--></g></svg>