<?xml version="1.0" encoding="us-ascii" standalone="no"?><svg xmlns="http://www.w3.org/2000/svg" xmlns:xlink="http://www.w3.org/1999/xlink" contentStyleType="text/css" height="907px" preserveAspectRatio="none" style="width:1509px;height:907px;background:#FFFFFF;" version="1.1" viewBox="0 0 1509 907" width="1509px" zoomAndPan="magnify"><defs/><g><text fill="#000000" font-family="sans-serif" font-size="14" font-weight="bold" lengthAdjust="spacing" textLength="296" x="607.75" y="29.5332">Diagrama de secuencia - Crear entregable</text><rect fill="none" height="337.7031" style="stroke:#000000;stroke-width:1.5;" width="1492.5" x="10" y="471.0859"/><line style="stroke:#181818;stroke-width:0.5;stroke-dasharray:5.0,5.0;" x1="62" x2="62" y1="121.2188" y2="825.7891"/><line style="stroke:#181818;stroke-width:0.5;stroke-dasharray:5.0,5.0;" x1="294.5" x2="294.5" y1="121.2188" y2="825.7891"/><line style="stroke:#181818;stroke-width:0.5;stroke-dasharray:5.0,5.0;" x1="583" x2="583" y1="121.2188" y2="825.7891"/><line style="stroke:#181818;stroke-width:0.5;stroke-dasharray:5.0,5.0;" x1="796.5" x2="796.5" y1="121.2188" y2="825.7891"/><line style="stroke:#181818;stroke-width:0.5;stroke-dasharray:5.0,5.0;" x1="923.5" x2="923.5" y1="121.2188" y2="825.7891"/><line style="stroke:#181818;stroke-width:0.5;stroke-dasharray:5.0,5.0;" x1="1123.5" x2="1123.5" y1="121.2188" y2="825.7891"/><line style="stroke:#181818;stroke-width:0.5;stroke-dasharray:5.0,5.0;" x1="1277.5" x2="1277.5" y1="121.2188" y2="825.7891"/><line style="stroke:#181818;stroke-width:0.5;stroke-dasharray:5.0,5.0;" x1="1427.5" x2="1427.5" y1="121.2188" y2="825.7891"/><text fill="#000000" font-family="sans-serif" font-size="14" lengthAdjust="spacing" textLength="79" x="20" y="118.1426">Coordinador</text><ellipse cx="62.5" cy="52.1094" fill="#E2E2F0" rx="8" ry="8" style="stroke:#181818;stroke-width:0.5;"/><path d="M62.5,60.1094 L62.5,87.1094 M49.5,68.1094 L75.5,68.1094 M62.5,87.1094 L49.5,102.1094 M62.5,87.1094 L75.5,102.1094 " fill="none" style="stroke:#181818;stroke-width:0.5;"/><text fill="#000000" font-family="sans-serif" font-size="14" lengthAdjust="spacing" textLength="79" x="20" y="839.3223">Coordinador</text><ellipse cx="62.5" cy="850.8984" fill="#E2E2F0" rx="8" ry="8" style="stroke:#181818;stroke-width:0.5;"/><path d="M62.5,858.8984 L62.5,885.8984 M49.5,866.8984 L75.5,866.8984 M62.5,885.8984 L49.5,900.8984 M62.5,885.8984 L75.5,900.8984 " fill="none" style="stroke:#181818;stroke-width:0.5;"/><rect fill="#E2E2F0" height="49.2188" rx="2.5" ry="2.5" style="stroke:#181818;stroke-width:0.5;" width="152" x="218.5" y="71"/><text fill="#000000" font-family="sans-serif" font-size="14" lengthAdjust="spacing" textLength="138" x="225.5" y="92.5332">CrearEntregableForm</text><text fill="#000000" font-family="sans-serif" font-size="14" lengthAdjust="spacing" textLength="47" x="271" y="110.1426">(React)</text><rect fill="#E2E2F0" height="49.2188" rx="2.5" ry="2.5" style="stroke:#181818;stroke-width:0.5;" width="152" x="218.5" y="824.7891"/><text fill="#000000" font-family="sans-serif" font-size="14" lengthAdjust="spacing" textLength="138" x="225.5" y="846.3223">CrearEntregableForm</text><text fill="#000000" font-family="sans-serif" font-size="14" lengthAdjust="spacing" textLength="47" x="271" y="863.9316">(React)</text><rect fill="#E2E2F0" height="49.2188" rx="2.5" ry="2.5" style="stroke:#181818;stroke-width:0.5;" width="145" x="511" y="71"/><text fill="#000000" font-family="sans-serif" font-size="14" lengthAdjust="spacing" textLength="131" x="518" y="92.5332">EntregableController</text><text fill="#000000" font-family="sans-serif" font-size="14" lengthAdjust="spacing" textLength="84" x="541.5" y="110.1426">(Spring Boot)</text><rect fill="#E2E2F0" height="49.2188" rx="2.5" ry="2.5" style="stroke:#181818;stroke-width:0.5;" width="145" x="511" y="824.7891"/><text fill="#000000" font-family="sans-serif" font-size="14" lengthAdjust="spacing" textLength="131" x="518" y="846.3223">EntregableController</text><text fill="#000000" font-family="sans-serif" font-size="14" lengthAdjust="spacing" textLength="84" x="541.5" y="863.9316">(Spring Boot)</text><rect fill="#E2E2F0" height="31.6094" rx="2.5" ry="2.5" style="stroke:#181818;stroke-width:0.5;" width="104" x="744.5" y="88.6094"/><text fill="#000000" font-family="sans-serif" font-size="14" lengthAdjust="spacing" textLength="90" x="751.5" y="110.1426">SesionService</text><rect fill="#E2E2F0" height="31.6094" rx="2.5" ry="2.5" style="stroke:#181818;stroke-width:0.5;" width="104" x="744.5" y="824.7891"/><text fill="#000000" font-family="sans-serif" font-size="14" lengthAdjust="spacing" textLength="90" x="751.5" y="846.3223">SesionService</text><rect fill="#E2E2F0" height="31.6094" rx="2.5" ry="2.5" style="stroke:#181818;stroke-width:0.5;" width="130" x="858.5" y="88.6094"/><text fill="#000000" font-family="sans-serif" font-size="14" lengthAdjust="spacing" textLength="116" x="865.5" y="110.1426">EntregableService</text><rect fill="#E2E2F0" height="31.6094" rx="2.5" ry="2.5" style="stroke:#181818;stroke-width:0.5;" width="130" x="858.5" y="824.7891"/><text fill="#000000" font-family="sans-serif" font-size="14" lengthAdjust="spacing" textLength="116" x="865.5" y="846.3223">EntregableService</text><rect fill="#E2E2F0" height="31.6094" rx="2.5" ry="2.5" style="stroke:#181818;stroke-width:0.5;" width="138" x="1054.5" y="88.6094"/><text fill="#000000" font-family="sans-serif" font-size="14" lengthAdjust="spacing" textLength="124" x="1061.5" y="110.1426">ProyectoRepository</text><rect fill="#E2E2F0" height="31.6094" rx="2.5" ry="2.5" style="stroke:#181818;stroke-width:0.5;" width="138" x="1054.5" y="824.7891"/><text fill="#000000" font-family="sans-serif" font-size="14" lengthAdjust="spacing" textLength="124" x="1061.5" y="846.3223">ProyectoRepository</text><rect fill="#E2E2F0" height="31.6094" rx="2.5" ry="2.5" style="stroke:#181818;stroke-width:0.5;" width="151" x="1202.5" y="88.6094"/><text fill="#000000" font-family="sans-serif" font-size="14" lengthAdjust="spacing" textLength="137" x="1209.5" y="110.1426">EntregableRepository</text><rect fill="#E2E2F0" height="31.6094" rx="2.5" ry="2.5" style="stroke:#181818;stroke-width:0.5;" width="151" x="1202.5" y="824.7891"/><text fill="#000000" font-family="sans-serif" font-size="14" lengthAdjust="spacing" textLength="137" x="1209.5" y="846.3223">EntregableRepository</text><rect fill="#E2E2F0" height="31.6094" rx="2.5" ry="2.5" style="stroke:#181818;stroke-width:0.5;" width="129" x="1363.5" y="88.6094"/><text fill="#000000" font-family="sans-serif" font-size="14" lengthAdjust="spacing" textLength="115" x="1370.5" y="110.1426">ArchivoRepository</text><rect fill="#E2E2F0" height="31.6094" rx="2.5" ry="2.5" style="stroke:#181818;stroke-width:0.5;" width="129" x="1363.5" y="824.7891"/><text fill="#000000" font-family="sans-serif" font-size="14" lengthAdjust="spacing" textLength="115" x="1370.5" y="846.3223">ArchivoRepository</text><polygon fill="#181818" points="282.5,149.5703,292.5,153.5703,282.5,157.5703,286.5,153.5703" style="stroke:#181818;stroke-width:1.0;"/><line style="stroke:#181818;stroke-width:1.0;" x1="62.5" x2="288.5" y1="153.5703" y2="153.5703"/><text fill="#000000" font-family="sans-serif" font-size="13" lengthAdjust="spacing" textLength="196" x="69.5" y="148.7139">Introduce datos y archivo opcional</text><polygon fill="#181818" points="571.5,196.2734,581.5,200.2734,571.5,204.2734,575.5,200.2734" style="stroke:#181818;stroke-width:1.0;"/><line style="stroke:#181818;stroke-width:1.0;" x1="294.5" x2="577.5" y1="200.2734" y2="200.2734"/><text fill="#000000" font-family="sans-serif" font-size="13" lengthAdjust="spacing" textLength="264" x="301.5" y="179.0654">POST /api/proyectos/{proyectoId}/entregables</text><text fill="#000000" font-family="sans-serif" font-size="13" lengthAdjust="spacing" textLength="265" x="301.5" y="195.417">EntregableCreateRequest + archivo? + cookie</text><polygon fill="#181818" points="784.5,226.625,794.5,230.625,784.5,234.625,788.5,230.625" style="stroke:#181818;stroke-width:1.0;"/><line style="stroke:#181818;stroke-width:1.0;" x1="583.5" x2="790.5" y1="230.625" y2="230.625"/><text fill="#000000" font-family="sans-serif" font-size="13" lengthAdjust="spacing" textLength="189" x="590.5" y="225.7686">exigirCoordinador(authentication)</text><polygon fill="#181818" points="594.5,256.9766,584.5,260.9766,594.5,264.9766,590.5,260.9766" style="stroke:#181818;stroke-width:1.0;"/><line style="stroke:#181818;stroke-width:1.0;stroke-dasharray:2.0,2.0;" x1="588.5" x2="795.5" y1="260.9766" y2="260.9766"/><text fill="#000000" font-family="sans-serif" font-size="13" lengthAdjust="spacing" textLength="140" x="600.5" y="256.1201">Coordinador autenticado</text><polygon fill="#181818" points="911.5,287.3281,921.5,291.3281,911.5,295.3281,915.5,291.3281" style="stroke:#181818;stroke-width:1.0;"/><line style="stroke:#181818;stroke-width:1.0;" x1="583.5" x2="917.5" y1="291.3281" y2="291.3281"/><text fill="#000000" font-family="sans-serif" font-size="13" lengthAdjust="spacing" textLength="267" x="590.5" y="286.4717">crear(proyectoId, datos, archivo?, coordinador)</text><polygon fill="#181818" points="1111.5,317.6797,1121.5,321.6797,1111.5,325.6797,1115.5,321.6797" style="stroke:#181818;stroke-width:1.0;"/><line style="stroke:#181818;stroke-width:1.0;" x1="923.5" x2="1117.5" y1="321.6797" y2="321.6797"/><text fill="#000000" font-family="sans-serif" font-size="13" lengthAdjust="spacing" textLength="176" x="930.5" y="316.8232">obtenerActivoPorId(proyectoId)</text><polygon fill="#181818" points="934.5,348.0313,924.5,352.0313,934.5,356.0313,930.5,352.0313" style="stroke:#181818;stroke-width:1.0;"/><line style="stroke:#181818;stroke-width:1.0;stroke-dasharray:2.0,2.0;" x1="928.5" x2="1122.5" y1="352.0313" y2="352.0313"/><text fill="#000000" font-family="sans-serif" font-size="13" lengthAdjust="spacing" textLength="93" x="940.5" y="347.1748">Proyecto / vacio</text><polygon fill="#181818" points="1266,378.3828,1276,382.3828,1266,386.3828,1270,382.3828" style="stroke:#181818;stroke-width:1.0;"/><line style="stroke:#181818;stroke-width:1.0;" x1="923.5" x2="1272" y1="382.3828" y2="382.3828"/><text fill="#000000" font-family="sans-serif" font-size="13" lengthAdjust="spacing" textLength="205" x="930.5" y="377.5264">existeTituloActivo(proyectoId, titulo)</text><polygon fill="#181818" points="934.5,408.7344,924.5,412.7344,934.5,416.7344,930.5,412.7344" style="stroke:#181818;stroke-width:1.0;"/><line style="stroke:#181818;stroke-width:1.0;stroke-dasharray:2.0,2.0;" x1="928.5" x2="1277" y1="412.7344" y2="412.7344"/><text fill="#000000" font-family="sans-serif" font-size="13" lengthAdjust="spacing" textLength="61" x="940.5" y="407.8779">true / false</text><line style="stroke:#181818;stroke-width:1.0;" x1="923.5" x2="965.5" y1="443.0859" y2="443.0859"/><line style="stroke:#181818;stroke-width:1.0;" x1="965.5" x2="965.5" y1="443.0859" y2="456.0859"/><line style="stroke:#181818;stroke-width:1.0;" x1="924.5" x2="965.5" y1="456.0859" y2="456.0859"/><polygon fill="#181818" points="934.5,452.0859,924.5,456.0859,934.5,460.0859,930.5,456.0859" style="stroke:#181818;stroke-width:1.0;"/><text fill="#000000" font-family="sans-serif" font-size="13" lengthAdjust="spacing" textLength="129" x="930.5" y="438.2295">validarDatosYArchivo()</text><path d="M10,471.0859 L71,471.0859 L71,479.4375 L61,489.4375 L10,489.4375 L10,471.0859 " fill="#EEEEEE" style="stroke:#000000;stroke-width:1.5;"/><rect fill="none" height="337.7031" style="stroke:#000000;stroke-width:1.5;" width="1492.5" x="10" y="471.0859"/><text fill="#000000" font-family="sans-serif" font-size="13" font-weight="bold" lengthAdjust="spacing" textLength="16" x="25" y="485.5811">alt</text><text fill="#000000" font-family="sans-serif" font-size="11" font-weight="bold" lengthAdjust="spacing" textLength="164" x="86" y="484.5049">[Datos invalidos o duplicados]</text><polygon fill="#181818" points="594.5,507.7891,584.5,511.7891,594.5,515.7891,590.5,511.7891" style="stroke:#181818;stroke-width:1.0;"/><line style="stroke:#181818;stroke-width:1.0;stroke-dasharray:2.0,2.0;" x1="588.5" x2="922.5" y1="511.7891" y2="511.7891"/><text fill="#000000" font-family="sans-serif" font-size="13" lengthAdjust="spacing" textLength="238" x="600.5" y="506.9326">ValidacionException / ConflictoException</text><polygon fill="#181818" points="305.5,538.1406,295.5,542.1406,305.5,546.1406,301.5,542.1406" style="stroke:#181818;stroke-width:1.0;"/><line style="stroke:#181818;stroke-width:1.0;stroke-dasharray:2.0,2.0;" x1="299.5" x2="582.5" y1="542.1406" y2="542.1406"/><text fill="#000000" font-family="sans-serif" font-size="13" lengthAdjust="spacing" textLength="180" x="311.5" y="537.2842">400 Bad Request / 409 Conflict</text><polygon fill="#181818" points="73.5,568.4922,63.5,572.4922,73.5,576.4922,69.5,572.4922" style="stroke:#181818;stroke-width:1.0;"/><line style="stroke:#181818;stroke-width:1.0;stroke-dasharray:2.0,2.0;" x1="67.5" x2="293.5" y1="572.4922" y2="572.4922"/><text fill="#000000" font-family="sans-serif" font-size="13" lengthAdjust="spacing" textLength="208" x="79.5" y="567.6357">Presenta error y conserva formulario</text><line style="stroke:#000000;stroke-width:1.0;stroke-dasharray:2.0,2.0;" x1="10" x2="1502.5" y1="581.4922" y2="581.4922"/><text fill="#000000" font-family="sans-serif" font-size="11" font-weight="bold" lengthAdjust="spacing" textLength="81" x="15" y="592.9111">[Datos validos]</text><polygon fill="#181818" points="1266,614.6797,1276,618.6797,1266,622.6797,1270,618.6797" style="stroke:#181818;stroke-width:1.0;"/><line style="stroke:#181818;stroke-width:1.0;" x1="923.5" x2="1272" y1="618.6797" y2="618.6797"/><text fill="#000000" font-family="sans-serif" font-size="13" lengthAdjust="spacing" textLength="111" x="930.5" y="613.8232">guardar(entregable)</text><polygon fill="#181818" points="934.5,645.0313,924.5,649.0313,934.5,653.0313,930.5,649.0313" style="stroke:#181818;stroke-width:1.0;"/><line style="stroke:#181818;stroke-width:1.0;stroke-dasharray:2.0,2.0;" x1="928.5" x2="1277" y1="649.0313" y2="649.0313"/><text fill="#000000" font-family="sans-serif" font-size="13" lengthAdjust="spacing" textLength="105" x="940.5" y="644.1748">Entregable creado</text><polygon fill="#181818" points="1416,675.3828,1426,679.3828,1416,683.3828,1420,679.3828" style="stroke:#181818;stroke-width:1.0;"/><line style="stroke:#181818;stroke-width:1.0;" x1="923.5" x2="1422" y1="679.3828" y2="679.3828"/><text fill="#000000" font-family="sans-serif" font-size="13" lengthAdjust="spacing" textLength="285" x="930.5" y="674.5264">guardarOpcional(entregable, archivo, coordinador)</text><polygon fill="#181818" points="934.5,705.7344,924.5,709.7344,934.5,713.7344,930.5,709.7344" style="stroke:#181818;stroke-width:1.0;"/><line style="stroke:#181818;stroke-width:1.0;stroke-dasharray:2.0,2.0;" x1="928.5" x2="1427" y1="709.7344" y2="709.7344"/><text fill="#000000" font-family="sans-serif" font-size="13" lengthAdjust="spacing" textLength="83" x="940.5" y="704.8779">Archivo / vacio</text><polygon fill="#181818" points="594.5,736.0859,584.5,740.0859,594.5,744.0859,590.5,740.0859" style="stroke:#181818;stroke-width:1.0;"/><line style="stroke:#181818;stroke-width:1.0;stroke-dasharray:2.0,2.0;" x1="588.5" x2="922.5" y1="740.0859" y2="740.0859"/><text fill="#000000" font-family="sans-serif" font-size="13" lengthAdjust="spacing" textLength="160" x="600.5" y="735.2295">EntregableDetalleResponse</text><polygon fill="#181818" points="305.5,766.4375,295.5,770.4375,305.5,774.4375,301.5,770.4375" style="stroke:#181818;stroke-width:1.0;"/><line style="stroke:#181818;stroke-width:1.0;stroke-dasharray:2.0,2.0;" x1="299.5" x2="582.5" y1="770.4375" y2="770.4375"/><text fill="#000000" font-family="sans-serif" font-size="13" lengthAdjust="spacing" textLength="70" x="311.5" y="765.5811">201 Created</text><polygon fill="#181818" points="73.5,796.7891,63.5,800.7891,73.5,804.7891,69.5,800.7891" style="stroke:#181818;stroke-width:1.0;"/><line style="stroke:#181818;stroke-width:1.0;stroke-dasharray:2.0,2.0;" x1="67.5" x2="293.5" y1="800.7891" y2="800.7891"/><text fill="#000000" font-family="sans-serif" font-size="13" lengthAdjust="spacing" textLength="206" x="79.5" y="795.9326">Presenta ENTREGABLE_ABIERTO</text><!--SRC=[ZLHDQnin4BtlhnXoiccCqz9BVMYn7QSOIXDi4oW4oaGQEwARrNQaDJ6b_xqZxPSs7z3R8httPkRDqthZSu9BWmV6HmHDu4XLL2Y3C84b4p9GuPaEU9zJXifRXgMrh4s1sd9M8dkZJ8c5XxE8NtNmAykFTyLeGq8Rdm4wk69RU2hqaDOpbdBDDi-9XRSjsHG7M5ZRiEUb6HAtv8mjjiH7eoX2wfEtv8V8-3s4th0zaSoueT8w8xEU8ZOzValx6UKbTCxgmHoVIoUdMPOO2vFFdLipM0TRTAK8D7hhu0HOyy2MIWR6F6l1WIX6pU3cUhk3APPcMZRjk-cVzdEj_qxxlRgx8jc1BD7BEByhSXxUjPM-oAUozfUXJEH3bThh6T2JEHXEUXzXvHz4tIZqWXXdDH8cRMlfd8AjeThsmd4rCr0XJwE-v_Dw_FEkf_FGKYiLwaHYq4XNDWDxBqM8vyeBwyRoMYUguom5nowx3jeRcC8HnUcqH2qjqpjFE-EhtDRwWuPzl1XdBwKzLoIoUymTfR8Tu8YvqSYNOUGVJKv6umnp3_4CJ14XycL1LsKUJNGPGAVM6duRfK9ILa-Aoh0LAIslRIyaRxj3uSOT3CBtyU825gYXZSHKJZvrPA7qqHDUijjW7pdPBW8nowvFigx2INC8U_atL3coM4fYG3DHCqywGklpeK8MDqPzQiS2Usbh7-GO7qdLG2nvRvtcTVE64kqkOiyI1gd0i71pqINbbJNqlLsInppyD5mP77dLzmyNxw5-ZFh_J5vztsrMN-UBRwkVyyLwjTbTPqBu1m00]--></g></svg>