<?xml version="1.0" encoding="us-ascii" standalone="no"?><svg xmlns="http://www.w3.org/2000/svg" xmlns:xlink="http://www.w3.org/1999/xlink" contentStyleType="text/css" height="880px" preserveAspectRatio="none" style="width:2509px;height:880px;background:#FFFFFF;" version="1.1" viewBox="0 0 2509 880" width="2509px" zoomAndPan="magnify"><defs/><g><text fill="#000000" font-family="sans-serif" font-size="14" font-weight="bold" lengthAdjust="spacing" textLength="366" x="1072.5" y="29.5332">Diagrama de secuencia - Abrir recompensas propias</text><rect fill="#FFFFFF" height="635.2188" style="stroke:#181818;stroke-width:1.0;" width="10" x="314.5" y="153.5703"/><rect fill="#FFFFFF" height="436.2734" style="stroke:#181818;stroke-width:1.0;" width="10" x="599.5" y="200.2734"/><rect fill="#FFFFFF" height="55.7031" style="stroke:#181818;stroke-width:1.0;" width="10" x="945.5" y="230.625"/><rect fill="#FFFFFF" height="273.1641" style="stroke:#181818;stroke-width:1.0;" width="10" x="1079.5" y="316.6797"/><rect fill="none" height="536.1641" style="stroke:#000000;stroke-width:1.5;" width="2492" x="10" y="245.625"/><line style="stroke:#181818;stroke-width:0.5;stroke-dasharray:5.0,5.0;" x1="61" x2="61" y1="121.2188" y2="798.7891"/><line style="stroke:#181818;stroke-width:0.5;stroke-dasharray:5.0,5.0;" x1="319.5" x2="319.5" y1="121.2188" y2="798.7891"/><line style="stroke:#181818;stroke-width:0.5;stroke-dasharray:5.0,5.0;" x1="604" x2="604" y1="121.2188" y2="798.7891"/><line style="stroke:#181818;stroke-width:0.5;stroke-dasharray:5.0,5.0;" x1="950.5" x2="950.5" y1="121.2188" y2="798.7891"/><line style="stroke:#181818;stroke-width:0.5;stroke-dasharray:5.0,5.0;" x1="1084.5" x2="1084.5" y1="121.2188" y2="798.7891"/><line style="stroke:#181818;stroke-width:0.5;stroke-dasharray:5.0,5.0;" x1="1480" x2="1480" y1="121.2188" y2="798.7891"/><line style="stroke:#181818;stroke-width:0.5;stroke-dasharray:5.0,5.0;" x1="1642" x2="1642" y1="121.2188" y2="798.7891"/><line style="stroke:#181818;stroke-width:0.5;stroke-dasharray:5.0,5.0;" x1="2442" x2="2442" y1="121.2188" y2="798.7891"/><text fill="#000000" font-family="sans-serif" font-size="14" lengthAdjust="spacing" textLength="77" x="20" y="118.1426">Investigador</text><ellipse cx="61.5" cy="52.1094" fill="#E2E2F0" rx="8" ry="8" style="stroke:#181818;stroke-width:0.5;"/><path d="M61.5,60.1094 L61.5,87.1094 M48.5,68.1094 L74.5,68.1094 M61.5,87.1094 L48.5,102.1094 M61.5,87.1094 L74.5,102.1094 " fill="none" style="stroke:#181818;stroke-width:0.5;"/><text fill="#000000" font-family="sans-serif" font-size="14" lengthAdjust="spacing" textLength="77" x="20" y="812.3223">Investigador</text><ellipse cx="61.5" cy="823.8984" fill="#E2E2F0" rx="8" ry="8" style="stroke:#181818;stroke-width:0.5;"/><path d="M61.5,831.8984 L61.5,858.8984 M48.5,839.8984 L74.5,839.8984 M61.5,858.8984 L48.5,873.8984 M61.5,858.8984 L74.5,873.8984 " fill="none" style="stroke:#181818;stroke-width:0.5;"/><rect fill="#E2E2F0" height="49.2188" rx="2.5" ry="2.5" style="stroke:#181818;stroke-width:0.5;" width="158" x="240.5" y="71"/><text fill="#000000" font-family="sans-serif" font-size="14" lengthAdjust="spacing" textLength="144" x="247.5" y="92.5332">MisRecompensasPage</text><text fill="#000000" font-family="sans-serif" font-size="14" lengthAdjust="spacing" textLength="47" x="296" y="110.1426">(React)</text><rect fill="#E2E2F0" height="49.2188" rx="2.5" ry="2.5" style="stroke:#181818;stroke-width:0.5;" width="158" x="240.5" y="797.7891"/><text fill="#000000" font-family="sans-serif" font-size="14" lengthAdjust="spacing" textLength="144" x="247.5" y="819.3223">MisRecompensasPage</text><text fill="#000000" font-family="sans-serif" font-size="14" lengthAdjust="spacing" textLength="47" x="296" y="836.9316">(React)</text><rect fill="#E2E2F0" height="49.2188" rx="2.5" ry="2.5" style="stroke:#181818;stroke-width:0.5;" width="159" x="525" y="71"/><text fill="#000000" font-family="sans-serif" font-size="14" lengthAdjust="spacing" textLength="145" x="532" y="92.5332">RecompensaController</text><text fill="#000000" font-family="sans-serif" font-size="14" lengthAdjust="spacing" textLength="84" x="562.5" y="110.1426">(Spring Boot)</text><rect fill="#E2E2F0" height="49.2188" rx="2.5" ry="2.5" style="stroke:#181818;stroke-width:0.5;" width="159" x="525" y="797.7891"/><text fill="#000000" font-family="sans-serif" font-size="14" lengthAdjust="spacing" textLength="145" x="532" y="819.3223">RecompensaController</text><text fill="#000000" font-family="sans-serif" font-size="14" lengthAdjust="spacing" textLength="84" x="562.5" y="836.9316">(Spring Boot)</text><rect fill="#E2E2F0" height="31.6094" rx="2.5" ry="2.5" style="stroke:#181818;stroke-width:0.5;" width="104" x="898.5" y="88.6094"/><text fill="#000000" font-family="sans-serif" font-size="14" lengthAdjust="spacing" textLength="90" x="905.5" y="110.1426">SesionService</text><rect fill="#E2E2F0" height="31.6094" rx="2.5" ry="2.5" style="stroke:#181818;stroke-width:0.5;" width="104" x="898.5" y="797.7891"/><text fill="#000000" font-family="sans-serif" font-size="14" lengthAdjust="spacing" textLength="90" x="905.5" y="819.3223">SesionService</text><rect fill="#E2E2F0" height="31.6094" rx="2.5" ry="2.5" style="stroke:#181818;stroke-width:0.5;" width="144" x="1012.5" y="88.6094"/><text fill="#000000" font-family="sans-serif" font-size="14" lengthAdjust="spacing" textLength="130" x="1019.5" y="110.1426">RecompensaService</text><rect fill="#E2E2F0" height="31.6094" rx="2.5" ry="2.5" style="stroke:#181818;stroke-width:0.5;" width="144" x="1012.5" y="797.7891"/><text fill="#000000" font-family="sans-serif" font-size="14" lengthAdjust="spacing" textLength="130" x="1019.5" y="819.3223">RecompensaService</text><rect fill="#E2E2F0" height="31.6094" rx="2.5" ry="2.5" style="stroke:#181818;stroke-width:0.5;" width="165" x="1398" y="88.6094"/><text fill="#000000" font-family="sans-serif" font-size="14" lengthAdjust="spacing" textLength="151" x="1405" y="110.1426">RecompensaRepository</text><rect fill="#E2E2F0" height="31.6094" rx="2.5" ry="2.5" style="stroke:#181818;stroke-width:0.5;" width="165" x="1398" y="797.7891"/><text fill="#000000" font-family="sans-serif" font-size="14" lengthAdjust="spacing" textLength="151" x="1405" y="819.3223">RecompensaRepository</text><rect fill="#E2E2F0" height="31.6094" rx="2.5" ry="2.5" style="stroke:#181818;stroke-width:0.5;" width="138" x="1573" y="88.6094"/><text fill="#000000" font-family="sans-serif" font-size="14" lengthAdjust="spacing" textLength="124" x="1580" y="110.1426">ProyectoRepository</text><rect fill="#E2E2F0" height="31.6094" rx="2.5" ry="2.5" style="stroke:#181818;stroke-width:0.5;" width="138" x="1573" y="797.7891"/><text fill="#000000" font-family="sans-serif" font-size="14" lengthAdjust="spacing" textLength="124" x="1580" y="819.3223">ProyectoRepository</text><text fill="#000000" font-family="sans-serif" font-size="14" lengthAdjust="spacing" textLength="93" x="2393" y="118.1426">Base de Datos</text><path d="M2424.5,67.6094 C2424.5,57.6094 2442.5,57.6094 2442.5,57.6094 C2442.5,57.6094 2460.5,57.6094 2460.5,67.6094 L2460.5,93.6094 C2460.5,103.6094 2442.5,103.6094 2442.5,103.6094 C2442.5,103.6094 2424.5,103.6094 2424.5,93.6094 L2424.5,67.6094 " fill="#E2E2F0" style="stroke:#181818;stroke-width:1.5;"/><path d="M2424.5,67.6094 C2424.5,77.6094 2442.5,77.6094 2442.5,77.6094 C2442.5,77.6094 2460.5,77.6094 2460.5,67.6094 " fill="none" style="stroke:#181818;stroke-width:1.5;"/><text fill="#000000" font-family="sans-serif" font-size="14" lengthAdjust="spacing" textLength="93" x="2393" y="812.3223">Base de Datos</text><path d="M2424.5,825.3984 C2424.5,815.3984 2442.5,815.3984 2442.5,815.3984 C2442.5,815.3984 2460.5,815.3984 2460.5,825.3984 L2460.5,851.3984 C2460.5,861.3984 2442.5,861.3984 2442.5,861.3984 C2442.5,861.3984 2424.5,861.3984 2424.5,851.3984 L2424.5,825.3984 " fill="#E2E2F0" style="stroke:#181818;stroke-width:1.5;"/><path d="M2424.5,825.3984 C2424.5,835.3984 2442.5,835.3984 2442.5,835.3984 C2442.5,835.3984 2460.5,835.3984 2460.5,825.3984 " fill="none" style="stroke:#181818;stroke-width:1.5;"/><rect fill="#FFFFFF" height="635.2188" style="stroke:#181818;stroke-width:1.0;" width="10" x="314.5" y="153.5703"/><rect fill="#FFFFFF" height="436.2734" style="stroke:#181818;stroke-width:1.0;" width="10" x="599.5" y="200.2734"/><rect fill="#FFFFFF" height="55.7031" style="stroke:#181818;stroke-width:1.0;" width="10" x="945.5" y="230.625"/><rect fill="#FFFFFF" height="273.1641" style="stroke:#181818;stroke-width:1.0;" width="10" x="1079.5" y="316.6797"/><polygon fill="#181818" points="302.5,149.5703,312.5,153.5703,302.5,157.5703,306.5,153.5703" style="stroke:#181818;stroke-width:1.0;"/><line style="stroke:#181818;stroke-width:1.0;" x1="61.5" x2="308.5" y1="153.5703" y2="153.5703"/><text fill="#000000" font-family="sans-serif" font-size="13" lengthAdjust="spacing" textLength="154" x="68.5" y="148.7139">Solicita abrir recompensas</text><polygon fill="#181818" points="587.5,196.2734,597.5,200.2734,587.5,204.2734,591.5,200.2734" style="stroke:#181818;stroke-width:1.0;"/><line style="stroke:#181818;stroke-width:1.0;" x1="324.5" x2="593.5" y1="200.2734" y2="200.2734"/><text fill="#000000" font-family="sans-serif" font-size="13" lengthAdjust="spacing" textLength="256" x="331.5" y="179.0654">GET /api/recompensas/me?criterio={criterio}</text><text fill="#000000" font-family="sans-serif" font-size="13" lengthAdjust="spacing" textLength="100" x="331.5" y="195.417">Cookie de sesion</text><polygon fill="#181818" points="933.5,226.625,943.5,230.625,933.5,234.625,937.5,230.625" style="stroke:#181818;stroke-width:1.0;"/><line style="stroke:#181818;stroke-width:1.0;" x1="609.5" x2="939.5" y1="230.625" y2="230.625"/><text fill="#000000" font-family="sans-serif" font-size="13" lengthAdjust="spacing" textLength="188" x="616.5" y="225.7686">exigirInvestigador(authentication)</text><path d="M10,245.625 L71,245.625 L71,253.9766 L61,263.9766 L10,263.9766 L10,245.625 " fill="#EEEEEE" style="stroke:#000000;stroke-width:1.5;"/><rect fill="none" height="536.1641" style="stroke:#000000;stroke-width:1.5;" width="2492" x="10" y="245.625"/><text fill="#000000" font-family="sans-serif" font-size="13" font-weight="bold" lengthAdjust="spacing" textLength="16" x="25" y="260.1201">alt</text><text fill="#000000" font-family="sans-serif" font-size="11" font-weight="bold" lengthAdjust="spacing" textLength="169" x="86" y="259.0439">[Sesion de Investigador activa]</text><polygon fill="#181818" points="620.5,282.3281,610.5,286.3281,620.5,290.3281,616.5,286.3281" style="stroke:#181818;stroke-width:1.0;"/><line style="stroke:#181818;stroke-width:1.0;stroke-dasharray:2.0,2.0;" x1="614.5" x2="949.5" y1="286.3281" y2="286.3281"/><text fill="#000000" font-family="sans-serif" font-size="13" lengthAdjust="spacing" textLength="139" x="626.5" y="281.4717">Investigador autenticado</text><polygon fill="#181818" points="1067.5,312.6797,1077.5,316.6797,1067.5,320.6797,1071.5,316.6797" style="stroke:#181818;stroke-width:1.0;"/><line style="stroke:#181818;stroke-width:1.0;" x1="609.5" x2="1073.5" y1="316.6797" y2="316.6797"/><text fill="#000000" font-family="sans-serif" font-size="13" lengthAdjust="spacing" textLength="205" x="616.5" y="311.8232">listarPropias(investigadorId, criterio)</text><polygon fill="#181818" points="1468.5,343.0313,1478.5,347.0313,1468.5,351.0313,1472.5,347.0313" style="stroke:#181818;stroke-width:1.0;"/><line style="stroke:#181818;stroke-width:1.0;" x1="1089.5" x2="1474.5" y1="347.0313" y2="347.0313"/><text fill="#000000" font-family="sans-serif" font-size="13" lengthAdjust="spacing" textLength="367" x="1096.5" y="342.1748">buscarPropiasDeProyectosCompletados(investigadorId, criterio)</text><polygon fill="#181818" points="2430.5,373.3828,2440.5,377.3828,2430.5,381.3828,2434.5,377.3828" style="stroke:#181818;stroke-width:1.0;"/><line style="stroke:#181818;stroke-width:1.0;" x1="1480.5" x2="2436.5" y1="377.3828" y2="377.3828"/><text fill="#000000" font-family="sans-serif" font-size="13" lengthAdjust="spacing" textLength="938" x="1487.5" y="372.5264">SELECT r.* FROM recompensas r JOIN proyectos p ON p.id = r.proyecto_id WHERE r.beneficiario_id = ? AND p.estado = 'COMPLETADO' AND r.anulada = false</text><polygon fill="#181818" points="1491.5,403.7344,1481.5,407.7344,1491.5,411.7344,1487.5,407.7344" style="stroke:#181818;stroke-width:1.0;"/><line style="stroke:#181818;stroke-width:1.0;stroke-dasharray:2.0,2.0;" x1="1485.5" x2="2441.5" y1="407.7344" y2="407.7344"/><text fill="#000000" font-family="sans-serif" font-size="13" lengthAdjust="spacing" textLength="150" x="1497.5" y="402.8779">Resultado de persistencia</text><polygon fill="#181818" points="1100.5,434.0859,1090.5,438.0859,1100.5,442.0859,1096.5,438.0859" style="stroke:#181818;stroke-width:1.0;"/><line style="stroke:#181818;stroke-width:1.0;stroke-dasharray:2.0,2.0;" x1="1094.5" x2="1479.5" y1="438.0859" y2="438.0859"/><text fill="#000000" font-family="sans-serif" font-size="13" lengthAdjust="spacing" textLength="120" x="1106.5" y="433.2295">Lista&lt;Recompensa&gt;</text><polygon fill="#181818" points="1630,464.4375,1640,468.4375,1630,472.4375,1634,468.4375" style="stroke:#181818;stroke-width:1.0;"/><line style="stroke:#181818;stroke-width:1.0;" x1="1089.5" x2="1636" y1="468.4375" y2="468.4375"/><text fill="#000000" font-family="sans-serif" font-size="13" lengthAdjust="spacing" textLength="187" x="1096.5" y="463.5811">obtenerResumenes(proyectoIds)</text><polygon fill="#181818" points="2430.5,494.7891,2440.5,498.7891,2430.5,502.7891,2434.5,498.7891" style="stroke:#181818;stroke-width:1.0;"/><line style="stroke:#181818;stroke-width:1.0;" x1="1642" x2="2436.5" y1="498.7891" y2="498.7891"/><text fill="#000000" font-family="sans-serif" font-size="13" lengthAdjust="spacing" textLength="264" x="1649" y="493.9326">SELECT * FROM proyectos WHERE id IN (?)</text><polygon fill="#181818" points="1653,525.1406,1643,529.1406,1653,533.1406,1649,529.1406" style="stroke:#181818;stroke-width:1.0;"/><line style="stroke:#181818;stroke-width:1.0;stroke-dasharray:2.0,2.0;" x1="1647" x2="2441.5" y1="529.1406" y2="529.1406"/><text fill="#000000" font-family="sans-serif" font-size="13" lengthAdjust="spacing" textLength="150" x="1659" y="524.2842">Resultado de persistencia</text><polygon fill="#181818" points="1100.5,555.4922,1090.5,559.4922,1100.5,563.4922,1096.5,559.4922" style="stroke:#181818;stroke-width:1.0;"/><line style="stroke:#181818;stroke-width:1.0;stroke-dasharray:2.0,2.0;" x1="1094.5" x2="1641" y1="559.4922" y2="559.4922"/><text fill="#000000" font-family="sans-serif" font-size="13" lengthAdjust="spacing" textLength="137" x="1106.5" y="554.6357">Proyectos completados</text><polygon fill="#181818" points="620.5,585.8438,610.5,589.8438,620.5,593.8438,616.5,589.8438" style="stroke:#181818;stroke-width:1.0;"/><line style="stroke:#181818;stroke-width:1.0;stroke-dasharray:2.0,2.0;" x1="614.5" x2="1083.5" y1="589.8438" y2="589.8438"/><text fill="#000000" font-family="sans-serif" font-size="13" lengthAdjust="spacing" textLength="233" x="626.5" y="584.9873">Lista&lt;RecompensaResumenResponse&gt;</text><polygon fill="#181818" points="335.5,632.5469,325.5,636.5469,335.5,640.5469,331.5,636.5469" style="stroke:#181818;stroke-width:1.0;"/><line style="stroke:#181818;stroke-width:1.0;stroke-dasharray:2.0,2.0;" x1="329.5" x2="603.5" y1="636.5469" y2="636.5469"/><text fill="#000000" font-family="sans-serif" font-size="13" lengthAdjust="spacing" textLength="44" x="341.5" y="615.3389">200 OK</text><text fill="#000000" font-family="sans-serif" font-size="13" lengthAdjust="spacing" textLength="129" x="341.5" y="631.6904">Recompensas propias</text><polygon fill="#181818" points="72.5,662.8984,62.5,666.8984,72.5,670.8984,68.5,666.8984" style="stroke:#181818;stroke-width:1.0;"/><line style="stroke:#181818;stroke-width:1.0;stroke-dasharray:2.0,2.0;" x1="66.5" x2="313.5" y1="666.8984" y2="666.8984"/><text fill="#000000" font-family="sans-serif" font-size="13" lengthAdjust="spacing" textLength="229" x="78.5" y="662.042">Presenta RECOMPENSAS_ABIERTAS</text><line style="stroke:#000000;stroke-width:1.0;stroke-dasharray:2.0,2.0;" x1="10" x2="2502" y1="675.8984" y2="675.8984"/><text fill="#000000" font-family="sans-serif" font-size="11" font-weight="bold" lengthAdjust="spacing" textLength="167" x="15" y="687.3174">[Sesion ausente o rol invalido]</text><polygon fill="#181818" points="615.5,709.0859,605.5,713.0859,615.5,717.0859,611.5,713.0859" style="stroke:#181818;stroke-width:1.0;"/><line style="stroke:#181818;stroke-width:1.0;stroke-dasharray:2.0,2.0;" x1="609.5" x2="949.5" y1="713.0859" y2="713.0859"/><text fill="#000000" font-family="sans-serif" font-size="13" lengthAdjust="spacing" textLength="322" x="621.5" y="708.2295">SesionNoValidaException / AccesoDenegadoException</text><polygon fill="#181818" points="335.5,739.4375,325.5,743.4375,335.5,747.4375,331.5,743.4375" style="stroke:#181818;stroke-width:1.0;"/><line style="stroke:#181818;stroke-width:1.0;stroke-dasharray:2.0,2.0;" x1="329.5" x2="603.5" y1="743.4375" y2="743.4375"/><text fill="#000000" font-family="sans-serif" font-size="13" lengthAdjust="spacing" textLength="195" x="341.5" y="738.5811">401 Unauthorized / 403 Forbidden</text><polygon fill="#181818" points="72.5,769.7891,62.5,773.7891,72.5,777.7891,68.5,773.7891" style="stroke:#181818;stroke-width:1.0;"/><line style="stroke:#181818;stroke-width:1.0;stroke-dasharray:2.0,2.0;" x1="66.5" x2="313.5" y1="773.7891" y2="773.7891"/><text fill="#000000" font-family="sans-serif" font-size="13" lengthAdjust="spacing" textLength="146" x="78.5" y="768.9326">Presenta error de acceso</text><!--SRC=[fLJRRjf047ttLupo4gYQGDiyeIQHmKvBcm0oj7s950tsXAvgTgtT9KfQzTyxkyRuqaiUYWJivSoPdJCNAsnE40dSQDmYP0I6qXt9L22SGBZMGeEcL6qBaWOD55eL0aqGO6gLXgby86F51ZEbWmAr5QaeK5eukX4cgUqMkA5RsKk8pVf7m4HNMabBCcjRrIOJljOgpqcptRBGGcvWhDJUEYn4st19HYYv9FqWKlAGykHlz6saN_yDcb2XZE1edppQRTlGXLPFn79qWCtZ84EBQpG4HsFtopf7Q9Nnm6WS14qXuUJY8Cy8bYfdJnO1kybmEH0FQAaMireu2jPe1E_Y5Gom48E6tM1BbwaMbhHGvp-grSzREL7gcw2o2Bnu1mTER_uwsbBN4T2Zs0ZTV7SFT_OhIHO6BKFwjVa-5vZR_TBvQ8LSGWFWpnvnKeNGnkriwI5J7fnHruaxFJpL9tO4kJ0MzQAitPve44wpbr0fqFUs3RwoBCet-RKZTUaSmNfdqWDZH5MkpOH5piaozND-78_ZYyQSu_Wwdgn0dxw0gsH-q-eu3H_cqvbhlD83533dxQd8u9mjglCxtdzv7oSndwr9qZqN3RApEu-xX70MiH6_Xr_31yUJ-StYEbw5qVpOt-bJbBiSC-JBUynD6NSqzdaeOqx8x79lpzahI1jMrK-AHZnDrQ-Twc_hHhheIjdia16eDREHTbwsl32zAhHfPah9clYET7lXQfLABJXurgvtsMz6qtRxxwZQBflH7L8EQPtpTeHL1NU5s8V8VuMIXYv-h-IwydmfjmR2w-4GvXzlPVA7iTmXScthZkgnm4pDVd9XaE6EGaXYLnBnR1akxyBnD4vMuJ8WBeIg8N7dW0GAU2u35pVcOj-5tPOjzpFrsK4mVaofS1C11X2cAHaLSNwT_yFDSxtS4k1i-0e-IJTib1RVAMFQi-4Rk59wBRACvF-eG5hpbE5AGF_Gm0tL1bL5yGi0]--></g></svg>