<svg xmlns="http://www.w3.org/2000/svg" xmlns:xlink="http://www.w3.org/1999/xlink" contentStyleType="text/css" height="880px" preserveAspectRatio="none" style="width:2542px;height:880px;background:#FFFFFF;" version="1.1" viewBox="0 0 2542 880" width="2542px" zoomAndPan="magnify"><title>Diagrama de secuencia - Abrir recompensas propias</title><defs/><g><text fill="#000000" font-family="sans-serif" font-size="14" font-weight="bold" lengthAdjust="spacing" textLength="350.1367" x="1097.0779" y="29.5332">Diagrama de secuencia - Abrir recompensas propias</text><rect fill="#FFFFFF" height="635.2188" style="stroke:#181818;stroke-width:1;" width="10" x="313.4341" y="153.5703"/><rect fill="#FFFFFF" height="436.2734" style="stroke:#181818;stroke-width:1;" width="10" x="598.5684" y="200.2734"/><rect fill="#FFFFFF" height="55.7031" style="stroke:#181818;stroke-width:1;" width="10" x="942.7188" y="230.625"/><rect fill="#FFFFFF" height="273.1641" style="stroke:#181818;stroke-width:1;" width="10" x="1076.0493" y="316.6797"/><rect fill="none" height="536.1641" style="stroke:#000000;stroke-width:1.5;" width="2525.2925" x="10" y="245.625"/><line style="stroke:#181818;stroke-width:0.5;stroke-dasharray:5.0,5.0;" x1="61" x2="61" y1="121.2188" y2="798.7891"/><line style="stroke:#181818;stroke-width:0.5;stroke-dasharray:5.0,5.0;" x1="317.4551" x2="317.4551" y1="121.2188" y2="798.7891"/><line style="stroke:#181818;stroke-width:0.5;stroke-dasharray:5.0,5.0;" x1="602.979" x2="602.979" y1="121.2188" y2="798.7891"/><line style="stroke:#181818;stroke-width:0.5;stroke-dasharray:5.0,5.0;" x1="946.9741" x2="946.9741" y1="121.2188" y2="798.7891"/><line style="stroke:#181818;stroke-width:0.5;stroke-dasharray:5.0,5.0;" x1="1080.4634" x2="1080.4634" y1="121.2188" y2="798.7891"/><line style="stroke:#181818;stroke-width:0.5;stroke-dasharray:5.0,5.0;" x1="1515.4058" x2="1515.4058" y1="121.2188" y2="798.7891"/><line style="stroke:#181818;stroke-width:0.5;stroke-dasharray:5.0,5.0;" x1="1675.812" x2="1675.812" y1="121.2188" y2="798.7891"/><line style="stroke:#181818;stroke-width:0.5;stroke-dasharray:5.0,5.0;" x1="2475.4585" x2="2475.4585" y1="121.2188" y2="798.7891"/><text fill="#000000" font-family="sans-serif" font-size="14" lengthAdjust="spacing" textLength="76.2686" x="20" y="118.1426">Investigador</text><ellipse cx="61.1343" cy="52.1094" fill="#E2E2F0" rx="8" ry="8" style="stroke:#181818;stroke-width:0.5;"/><path d="M61.1343,60.1094 L61.1343,87.1094 M48.1343,68.1094 L74.1343,68.1094 M61.1343,87.1094 L48.1343,102.1094 M61.1343,87.1094 L74.1343,102.1094 " fill="none" style="stroke:#181818;stroke-width:0.5;"/><text fill="#000000" font-family="sans-serif" font-size="14" lengthAdjust="spacing" textLength="76.2686" x="20" y="812.3223">Investigador</text><ellipse cx="61.1343" cy="823.8984" fill="#E2E2F0" rx="8" ry="8" style="stroke:#181818;stroke-width:0.5;"/><path d="M61.1343,831.8984 L61.1343,858.8984 M48.1343,839.8984 L74.1343,839.8984 M61.1343,858.8984 L48.1343,873.8984 M61.1343,858.8984 L74.1343,873.8984 " fill="none" style="stroke:#181818;stroke-width:0.5;"/><rect fill="#E2E2F0" height="49.2188" rx="2.5" ry="2.5" style="stroke:#181818;stroke-width:0.5;" width="157.958" x="239.4551" y="71"/><text fill="#000000" font-family="sans-serif" font-size="14" lengthAdjust="spacing" textLength="143.958" x="246.4551" y="92.5332">MisRecompensasPage</text><text fill="#000000" font-family="sans-serif" font-size="14" lengthAdjust="spacing" textLength="45.8965" x="295.4858" y="110.1426">(React)</text><rect fill="#E2E2F0" height="49.2188" rx="2.5" ry="2.5" style="stroke:#181818;stroke-width:0.5;" width="157.958" x="239.4551" y="797.7891"/><text fill="#000000" font-family="sans-serif" font-size="14" lengthAdjust="spacing" textLength="143.958" x="246.4551" y="819.3223">MisRecompensasPage</text><text fill="#000000" font-family="sans-serif" font-size="14" lengthAdjust="spacing" textLength="45.8965" x="295.4858" y="836.9316">(React)</text><rect fill="#E2E2F0" height="49.2188" rx="2.5" ry="2.5" style="stroke:#181818;stroke-width:0.5;" width="157.1787" x="524.979" y="71"/><text fill="#000000" font-family="sans-serif" font-size="14" lengthAdjust="spacing" textLength="143.1787" x="531.979" y="92.5332">RecompensaController</text><text fill="#000000" font-family="sans-serif" font-size="14" lengthAdjust="spacing" textLength="82.4824" x="562.3271" y="110.1426">(Spring Boot)</text><rect fill="#E2E2F0" height="49.2188" rx="2.5" ry="2.5" style="stroke:#181818;stroke-width:0.5;" width="157.1787" x="524.979" y="797.7891"/><text fill="#000000" font-family="sans-serif" font-size="14" lengthAdjust="spacing" textLength="143.1787" x="531.979" y="819.3223">RecompensaController</text><text fill="#000000" font-family="sans-serif" font-size="14" lengthAdjust="spacing" textLength="82.4824" x="562.3271" y="836.9316">(Spring Boot)</text><rect fill="#E2E2F0" height="31.6094" rx="2.5" ry="2.5" style="stroke:#181818;stroke-width:0.5;" width="103.4893" x="895.9741" y="88.6094"/><text fill="#000000" font-family="sans-serif" font-size="14" lengthAdjust="spacing" textLength="89.4893" x="902.9741" y="110.1426">SesionService</text><rect fill="#E2E2F0" height="31.6094" rx="2.5" ry="2.5" style="stroke:#181818;stroke-width:0.5;" width="103.4893" x="895.9741" y="797.7891"/><text fill="#000000" font-family="sans-serif" font-size="14" lengthAdjust="spacing" textLength="89.4893" x="902.9741" y="819.3223">SesionService</text><rect fill="#E2E2F0" height="31.6094" rx="2.5" ry="2.5" style="stroke:#181818;stroke-width:0.5;" width="143.1719" x="1009.4634" y="88.6094"/><text fill="#000000" font-family="sans-serif" font-size="14" lengthAdjust="spacing" textLength="129.1719" x="1016.4634" y="110.1426">RecompensaService</text><rect fill="#E2E2F0" height="31.6094" rx="2.5" ry="2.5" style="stroke:#181818;stroke-width:0.5;" width="143.1719" x="1009.4634" y="797.7891"/><text fill="#000000" font-family="sans-serif" font-size="14" lengthAdjust="spacing" textLength="129.1719" x="1016.4634" y="819.3223">RecompensaService</text><rect fill="#E2E2F0" height="31.6094" rx="2.5" ry="2.5" style="stroke:#181818;stroke-width:0.5;" width="163.4063" x="1434.4058" y="88.6094"/><text fill="#000000" font-family="sans-serif" font-size="14" lengthAdjust="spacing" textLength="149.4063" x="1441.4058" y="110.1426">RecompensaRepository</text><rect fill="#E2E2F0" height="31.6094" rx="2.5" ry="2.5" style="stroke:#181818;stroke-width:0.5;" width="163.4063" x="1434.4058" y="797.7891"/><text fill="#000000" font-family="sans-serif" font-size="14" lengthAdjust="spacing" textLength="149.4063" x="1441.4058" y="819.3223">RecompensaRepository</text><rect fill="#E2E2F0" height="31.6094" rx="2.5" ry="2.5" style="stroke:#181818;stroke-width:0.5;" width="136.165" x="1607.812" y="88.6094"/><text fill="#000000" font-family="sans-serif" font-size="14" lengthAdjust="spacing" textLength="122.165" x="1614.812" y="110.1426">ProyectoRepository</text><rect fill="#E2E2F0" height="31.6094" rx="2.5" ry="2.5" style="stroke:#181818;stroke-width:0.5;" width="136.165" x="1607.812" y="797.7891"/><text fill="#000000" font-family="sans-serif" font-size="14" lengthAdjust="spacing" textLength="122.165" x="1614.812" y="819.3223">ProyectoRepository</text><text fill="#000000" font-family="sans-serif" font-size="14" lengthAdjust="spacing" textLength="91.834" x="2427.4585" y="118.1426">Base de Datos</text><path d="M2458.3755,67.6094 C2458.3755,57.6094 2476.3755,57.6094 2476.3755,57.6094 C2476.3755,57.6094 2494.3755,57.6094 2494.3755,67.6094 L2494.3755,93.6094 C2494.3755,103.6094 2476.3755,103.6094 2476.3755,103.6094 C2476.3755,103.6094 2458.3755,103.6094 2458.3755,93.6094 L2458.3755,67.6094 " fill="#E2E2F0" style="stroke:#181818;stroke-width:1.5;"/><path d="M2458.3755,67.6094 C2458.3755,77.6094 2476.3755,77.6094 2476.3755,77.6094 C2476.3755,77.6094 2494.3755,77.6094 2494.3755,67.6094 " fill="none" style="stroke:#181818;stroke-width:1.5;"/><text fill="#000000" font-family="sans-serif" font-size="14" lengthAdjust="spacing" textLength="91.834" x="2427.4585" y="812.3223">Base de Datos</text><path d="M2458.3755,825.3984 C2458.3755,815.3984 2476.3755,815.3984 2476.3755,815.3984 C2476.3755,815.3984 2494.3755,815.3984 2494.3755,825.3984 L2494.3755,851.3984 C2494.3755,861.3984 2476.3755,861.3984 2476.3755,861.3984 C2476.3755,861.3984 2458.3755,861.3984 2458.3755,851.3984 L2458.3755,825.3984 " fill="#E2E2F0" style="stroke:#181818;stroke-width:1.5;"/><path d="M2458.3755,825.3984 C2458.3755,835.3984 2476.3755,835.3984 2476.3755,835.3984 C2476.3755,835.3984 2494.3755,835.3984 2494.3755,825.3984 " fill="none" style="stroke:#181818;stroke-width:1.5;"/><rect fill="#FFFFFF" height="635.2188" style="stroke:#181818;stroke-width:1;" width="10" x="313.4341" y="153.5703"/><rect fill="#FFFFFF" height="436.2734" style="stroke:#181818;stroke-width:1;" width="10" x="598.5684" y="200.2734"/><rect fill="#FFFFFF" height="55.7031" style="stroke:#181818;stroke-width:1;" width="10" x="942.7188" y="230.625"/><rect fill="#FFFFFF" height="273.1641" style="stroke:#181818;stroke-width:1;" width="10" x="1076.0493" y="316.6797"/><polygon fill="#181818" points="301.4341,149.5703,311.4341,153.5703,301.4341,157.5703,305.4341,153.5703" style="stroke:#181818;stroke-width:1;"/><line style="stroke:#181818;stroke-width:1;" x1="61.1343" x2="307.4341" y1="153.5703" y2="153.5703"/><text fill="#000000" font-family="sans-serif" font-size="13" lengthAdjust="spacing" textLength="153.1753" x="68.1343" y="148.7139">Solicita abrir recompensas</text><polygon fill="#181818" points="586.5684,196.2734,596.5684,200.2734,586.5684,204.2734,590.5684,200.2734" style="stroke:#181818;stroke-width:1;"/><line style="stroke:#181818;stroke-width:1;" x1="323.4341" x2="592.5684" y1="200.2734" y2="200.2734"/><text fill="#000000" font-family="sans-serif" font-size="13" lengthAdjust="spacing" textLength="256.1343" x="330.4341" y="179.0654">GET /api/recompensas/me?criterio={criterio}</text><text fill="#000000" font-family="sans-serif" font-size="13" lengthAdjust="spacing" textLength="99.728" x="330.4341" y="195.417">Cookie de sesion</text><polygon fill="#181818" points="930.7188,226.625,940.7188,230.625,930.7188,234.625,934.7188,230.625" style="stroke:#181818;stroke-width:1;"/><line style="stroke:#181818;stroke-width:1;" x1="608.5684" x2="936.7188" y1="230.625" y2="230.625"/><text fill="#000000" font-family="sans-serif" font-size="13" lengthAdjust="spacing" textLength="209.5806" x="615.5684" y="225.7686">obtenerSesionActual(authentication)</text><path d="M10,245.625 L70.1709,245.625 L70.1709,253.9766 L60.1709,263.9766 L10,263.9766 L10,245.625 " fill="#EEEEEE" style="stroke:#000000;stroke-width:1.5;"/><rect fill="none" height="536.1641" style="stroke:#000000;stroke-width:1.5;" width="2525.2925" x="10" y="245.625"/><text fill="#000000" font-family="sans-serif" font-size="13" font-weight="bold" lengthAdjust="spacing" textLength="15.1709" x="25" y="260.1201">alt</text><text fill="#000000" font-family="sans-serif" font-size="11" font-weight="bold" lengthAdjust="spacing" textLength="161.9922" x="85.1709" y="259.0439">[Sesion de Investigador activa]</text><polygon fill="#181818" points="619.5684,282.3281,609.5684,286.3281,619.5684,290.3281,615.5684,286.3281" style="stroke:#181818;stroke-width:1;"/><line style="stroke:#181818;stroke-width:1;stroke-dasharray:2.0,2.0;" x1="613.5684" x2="946.7188" y1="286.3281" y2="286.3281"/><text fill="#000000" font-family="sans-serif" font-size="13" lengthAdjust="spacing" textLength="141.6543" x="625.5684" y="281.4717">Investigador autenticado</text><polygon fill="#181818" points="1064.0493,312.6797,1074.0493,316.6797,1064.0493,320.6797,1068.0493,316.6797" style="stroke:#181818;stroke-width:1;"/><line style="stroke:#181818;stroke-width:1;" x1="608.5684" x2="1070.0493" y1="316.6797" y2="316.6797"/><text fill="#000000" font-family="sans-serif" font-size="13" lengthAdjust="spacing" textLength="207.3525" x="615.5684" y="311.8232">listarPropias(investigadorId, criterio)</text><polygon fill="#181818" points="1504.1089,343.0313,1514.1089,347.0313,1504.1089,351.0313,1508.1089,347.0313" style="stroke:#181818;stroke-width:1;"/><line style="stroke:#181818;stroke-width:1;" x1="1086.0493" x2="1510.1089" y1="347.0313" y2="347.0313"/><text fill="#000000" font-family="sans-serif" font-size="13" lengthAdjust="spacing" textLength="406.0596" x="1093.0493" y="342.1748">findByBeneficiarioOrderByFechaCreacionDesc(investigadorId, criterio)</text><polygon fill="#181818" points="2464.3755,373.3828,2474.3755,377.3828,2464.3755,381.3828,2468.3755,377.3828" style="stroke:#181818;stroke-width:1;"/><line style="stroke:#181818;stroke-width:1;" x1="1516.1089" x2="2470.3755" y1="377.3828" y2="377.3828"/><text fill="#000000" font-family="sans-serif" font-size="13" lengthAdjust="spacing" textLength="936.2666" x="1523.1089" y="372.5264">SELECT r.* FROM recompensas r JOIN proyectos p ON p.id = r.proyecto_id WHERE r.beneficiario_id = ? AND p.estado = 'COMPLETADO' AND r.anulada = false</text><polygon fill="#181818" points="1527.1089,403.7344,1517.1089,407.7344,1527.1089,411.7344,1523.1089,407.7344" style="stroke:#181818;stroke-width:1;"/><line style="stroke:#181818;stroke-width:1;stroke-dasharray:2.0,2.0;" x1="1521.1089" x2="2475.3755" y1="407.7344" y2="407.7344"/><text fill="#000000" font-family="sans-serif" font-size="13" lengthAdjust="spacing" textLength="149.5889" x="1533.1089" y="402.8779">Resultado de persistencia</text><polygon fill="#181818" points="1097.0493,434.0859,1087.0493,438.0859,1097.0493,442.0859,1093.0493,438.0859" style="stroke:#181818;stroke-width:1;"/><line style="stroke:#181818;stroke-width:1;stroke-dasharray:2.0,2.0;" x1="1091.0493" x2="1515.1089" y1="438.0859" y2="438.0859"/><text fill="#000000" font-family="sans-serif" font-size="13" lengthAdjust="spacing" textLength="119.2407" x="1103.0493" y="433.2295">Lista&lt;Recompensa&gt;</text><polygon fill="#181818" points="1663.8945,464.4375,1673.8945,468.4375,1663.8945,472.4375,1667.8945,468.4375" style="stroke:#181818;stroke-width:1;"/><line style="stroke:#181818;stroke-width:1;" x1="1086.0493" x2="1669.8945" y1="468.4375" y2="468.4375"/><text fill="#000000" font-family="sans-serif" font-size="13" lengthAdjust="spacing" textLength="111.2681" x="1093.0493" y="463.5811">findAll(proyectoIds)</text><polygon fill="#181818" points="2464.3755,494.7891,2474.3755,498.7891,2464.3755,502.7891,2468.3755,498.7891" style="stroke:#181818;stroke-width:1;"/><line style="stroke:#181818;stroke-width:1;" x1="1675.8945" x2="2470.3755" y1="498.7891" y2="498.7891"/><text fill="#000000" font-family="sans-serif" font-size="13" lengthAdjust="spacing" textLength="262.939" x="1682.8945" y="493.9326">SELECT * FROM proyectos WHERE id IN (?)</text><polygon fill="#181818" points="1686.8945,525.1406,1676.8945,529.1406,1686.8945,533.1406,1682.8945,529.1406" style="stroke:#181818;stroke-width:1;"/><line style="stroke:#181818;stroke-width:1;stroke-dasharray:2.0,2.0;" x1="1680.8945" x2="2475.3755" y1="529.1406" y2="529.1406"/><text fill="#000000" font-family="sans-serif" font-size="13" lengthAdjust="spacing" textLength="149.5889" x="1692.8945" y="524.2842">Resultado de persistencia</text><polygon fill="#181818" points="1097.0493,555.4922,1087.0493,559.4922,1097.0493,563.4922,1093.0493,559.4922" style="stroke:#181818;stroke-width:1;"/><line style="stroke:#181818;stroke-width:1;stroke-dasharray:2.0,2.0;" x1="1091.0493" x2="1674.8945" y1="559.4922" y2="559.4922"/><text fill="#000000" font-family="sans-serif" font-size="13" lengthAdjust="spacing" textLength="135.1226" x="1103.0493" y="554.6357">Proyectos completados</text><polygon fill="#181818" points="619.5684,585.8438,609.5684,589.8438,619.5684,593.8438,615.5684,589.8438" style="stroke:#181818;stroke-width:1;"/><line style="stroke:#181818;stroke-width:1;stroke-dasharray:2.0,2.0;" x1="613.5684" x2="1080.0493" y1="589.8438" y2="589.8438"/><text fill="#000000" font-family="sans-serif" font-size="13" lengthAdjust="spacing" textLength="233.416" x="625.5684" y="584.9873">Lista&lt;RecompensaResumenResponse&gt;</text><polygon fill="#181818" points="334.4341,632.5469,324.4341,636.5469,334.4341,640.5469,330.4341,636.5469" style="stroke:#181818;stroke-width:1;"/><line style="stroke:#181818;stroke-width:1;stroke-dasharray:2.0,2.0;" x1="328.4341" x2="602.5684" y1="636.5469" y2="636.5469"/><text fill="#000000" font-family="sans-serif" font-size="13" lengthAdjust="spacing" textLength="44.0845" x="340.4341" y="615.3389">200 OK</text><text fill="#000000" font-family="sans-serif" font-size="13" lengthAdjust="spacing" textLength="129.3462" x="340.4341" y="631.6904">Recompensas propias</text><polygon fill="#181818" points="72.1343,662.8984,62.1343,666.8984,72.1343,670.8984,68.1343,666.8984" style="stroke:#181818;stroke-width:1;"/><line style="stroke:#181818;stroke-width:1;stroke-dasharray:2.0,2.0;" x1="66.1343" x2="312.4341" y1="666.8984" y2="666.8984"/><text fill="#000000" font-family="sans-serif" font-size="13" lengthAdjust="spacing" textLength="228.2998" x="78.1343" y="662.042">Presenta RECOMPENSAS_ABIERTAS</text><line style="stroke:#000000;stroke-width:1;stroke-dasharray:2.0,2.0;" x1="10" x2="2535.2925" y1="675.8984" y2="675.8984"/><text fill="#000000" font-family="sans-serif" font-size="11" font-weight="bold" lengthAdjust="spacing" textLength="159.5269" x="15" y="687.3174">[Sesion ausente o rol invalido]</text><polygon fill="#181818" points="614.5684,709.0859,604.5684,713.0859,614.5684,717.0859,610.5684,713.0859" style="stroke:#181818;stroke-width:1;"/><line style="stroke:#181818;stroke-width:1;stroke-dasharray:2.0,2.0;" x1="608.5684" x2="946.7188" y1="713.0859" y2="713.0859"/><text fill="#000000" font-family="sans-serif" font-size="13" lengthAdjust="spacing" textLength="320.1504" x="620.5684" y="708.2295">SesionNoValidaException / AccesoDenegadoException</text><polygon fill="#181818" points="334.4341,739.4375,324.4341,743.4375,334.4341,747.4375,330.4341,743.4375" style="stroke:#181818;stroke-width:1;"/><line style="stroke:#181818;stroke-width:1;stroke-dasharray:2.0,2.0;" x1="328.4341" x2="602.5684" y1="743.4375" y2="743.4375"/><text fill="#000000" font-family="sans-serif" font-size="13" lengthAdjust="spacing" textLength="197.3042" x="340.4341" y="738.5811">401 Unauthorized / 403 Forbidden</text><polygon fill="#181818" points="72.1343,769.7891,62.1343,773.7891,72.1343,777.7891,68.1343,773.7891" style="stroke:#181818;stroke-width:1;"/><line style="stroke:#181818;stroke-width:1;stroke-dasharray:2.0,2.0;" x1="66.1343" x2="312.4341" y1="773.7891" y2="773.7891"/><text fill="#000000" font-family="sans-serif" font-size="13" lengthAdjust="spacing" textLength="145.9644" x="78.1343" y="768.9326">Presenta error de acceso</text><!--SRC=[fLHBRzf04BxxLuno2LHDe6rEg4baOzFI9e0CRI-Hei6Ua5NDhhMxHALL_tjdrnXi-iYXIC3kx3UlRnvMs88W5hZIk4R82Gnb6vAPG3Y3SAc51asPMfSa3HeejIe5cY30p2eDO_b4neeLvae79MehCb6Yj71oAqnwq9lXYkva9oLMwvu06nff9It9lArrK1doirP5GPhrvgKMSWMHKZlji1HjnJaPeUISz9F8o4CgoT_Cjv7-_3TeIgKoWhFTUhIxjg4phRR4T1m1c-8WHujBD0GdaVjbdcEqodXW70L1aqWukzhJCu2vAjYJHS3ZOhWQY2UqT22pFZWJpD40tYKBw64fUWsztfgkCoqiQQ4kVzIddtTogDHNGLKJUFBs3XpV_7LcAru7e9RiY7Hr3JExmQA36_j8afb1oyBkGNzN32pixkYSj7Ake07mPuSugtDeupQsyf0h3yxfs8cJxcFrbHr08On5FQkQjoCQ1iVvIwWfw7hTXhsgBwgO_DaPTVKSm8EGURIDc887BW-ozbJdfAFjYB9776eEYuE9oMJFk7FcdDauubedDybm0Vhy1OpIwMrhyZHyc8udRW1zL_4emfIlvoA7IzQevVTy__8-IHEMBHlHtNlSDOIJc9Ku7ew61QV3wUti9bc4yVJKl-bpb9i2S-J71onCbNuS-N9KgQTaDeNNvoAMf0sJwpT68vyc-JUE_BU7WRewPhGvAHMpOL5qwep6kQcOQiAE6DlnTI2dee1pPiewrzrc4crl_qwcxRAPr6plogLLa3DXsedL_NkSltEv9ib_fPA6hdxluqFV-KPkxOFN_JvCFzx9z0zR-SYGcredEcm5jjIS9fS66PudX3HndP1Cvk7yFep6IRe8vm5n_Ujnn8q34YZWjGpSqrY8tGmU3snrdwZF3eB9junAjm-W1s6MaL4nzwNpltzvRf9R15pqNy4dwLQDqk8xvMpsely6HaelHPwJ_1yMI6lUCTm9w0CDt4vjcAfD_080]--></g></svg>