<?xml version="1.0" encoding="us-ascii" standalone="no"?><svg xmlns="http://www.w3.org/2000/svg" xmlns:xlink="http://www.w3.org/1999/xlink" contentStyleType="text/css" height="759px" preserveAspectRatio="none" style="width:2311px;height:759px;background:#FFFFFF;" version="1.1" viewBox="0 0 2311 759" width="2311px" zoomAndPan="magnify"><defs/><g><text fill="#000000" font-family="sans-serif" font-size="14" font-weight="bold" lengthAdjust="spacing" textLength="419" x="947.25" y="29.5332">Diagrama de secuencia - Abrir proyectos como Investigador</text><rect fill="#FFFFFF" height="513.8125" style="stroke:#181818;stroke-width:1.0;" width="10" x="294.5" y="153.5703"/><rect fill="#FFFFFF" height="314.8672" style="stroke:#181818;stroke-width:1.0;" width="10" x="558.5" y="200.2734"/><rect fill="#FFFFFF" height="55.7031" style="stroke:#181818;stroke-width:1.0;" width="10" x="904.5" y="230.625"/><rect fill="#FFFFFF" height="151.7578" style="stroke:#181818;stroke-width:1.0;" width="10" x="1025" y="316.6797"/><rect fill="none" height="414.7578" style="stroke:#000000;stroke-width:1.5;" width="2294.5" x="10" y="245.625"/><line style="stroke:#181818;stroke-width:0.5;stroke-dasharray:5.0,5.0;" x1="61" x2="61" y1="121.2188" y2="677.3828"/><line style="stroke:#181818;stroke-width:0.5;stroke-dasharray:5.0,5.0;" x1="299" x2="299" y1="121.2188" y2="677.3828"/><line style="stroke:#181818;stroke-width:0.5;stroke-dasharray:5.0,5.0;" x1="563.5" x2="563.5" y1="121.2188" y2="677.3828"/><line style="stroke:#181818;stroke-width:0.5;stroke-dasharray:5.0,5.0;" x1="909.5" x2="909.5" y1="121.2188" y2="677.3828"/><line style="stroke:#181818;stroke-width:0.5;stroke-dasharray:5.0,5.0;" x1="1029.5" x2="1029.5" y1="121.2188" y2="677.3828"/><line style="stroke:#181818;stroke-width:0.5;stroke-dasharray:5.0,5.0;" x1="1407" x2="1407" y1="121.2188" y2="677.3828"/><line style="stroke:#181818;stroke-width:0.5;stroke-dasharray:5.0,5.0;" x1="2244.5" x2="2244.5" y1="121.2188" y2="677.3828"/><text fill="#000000" font-family="sans-serif" font-size="14" lengthAdjust="spacing" textLength="77" x="20" y="118.1426">Investigador</text><ellipse cx="61.5" cy="52.1094" fill="#E2E2F0" rx="8" ry="8" style="stroke:#181818;stroke-width:0.5;"/><path d="M61.5,60.1094 L61.5,87.1094 M48.5,68.1094 L74.5,68.1094 M61.5,87.1094 L48.5,102.1094 M61.5,87.1094 L74.5,102.1094 " fill="none" style="stroke:#181818;stroke-width:0.5;"/><text fill="#000000" font-family="sans-serif" font-size="14" lengthAdjust="spacing" textLength="77" x="20" y="690.916">Investigador</text><ellipse cx="61.5" cy="702.4922" fill="#E2E2F0" rx="8" ry="8" style="stroke:#181818;stroke-width:0.5;"/><path d="M61.5,710.4922 L61.5,737.4922 M48.5,718.4922 L74.5,718.4922 M61.5,737.4922 L48.5,752.4922 M61.5,737.4922 L74.5,752.4922 " fill="none" style="stroke:#181818;stroke-width:0.5;"/><rect fill="#E2E2F0" height="49.2188" rx="2.5" ry="2.5" style="stroke:#181818;stroke-width:0.5;" width="131" x="234" y="71"/><text fill="#000000" font-family="sans-serif" font-size="14" lengthAdjust="spacing" textLength="117" x="241" y="92.5332">MisProyectosPage</text><text fill="#000000" font-family="sans-serif" font-size="14" lengthAdjust="spacing" textLength="47" x="276" y="110.1426">(React)</text><rect fill="#E2E2F0" height="49.2188" rx="2.5" ry="2.5" style="stroke:#181818;stroke-width:0.5;" width="131" x="234" y="676.3828"/><text fill="#000000" font-family="sans-serif" font-size="14" lengthAdjust="spacing" textLength="117" x="241" y="697.916">MisProyectosPage</text><text fill="#000000" font-family="sans-serif" font-size="14" lengthAdjust="spacing" textLength="47" x="276" y="715.5254">(React)</text><rect fill="#E2E2F0" height="49.2188" rx="2.5" ry="2.5" style="stroke:#181818;stroke-width:0.5;" width="132" x="497.5" y="71"/><text fill="#000000" font-family="sans-serif" font-size="14" lengthAdjust="spacing" textLength="118" x="504.5" y="92.5332">ProyectoController</text><text fill="#000000" font-family="sans-serif" font-size="14" lengthAdjust="spacing" textLength="84" x="521.5" y="110.1426">(Spring Boot)</text><rect fill="#E2E2F0" height="49.2188" rx="2.5" ry="2.5" style="stroke:#181818;stroke-width:0.5;" width="132" x="497.5" y="676.3828"/><text fill="#000000" font-family="sans-serif" font-size="14" lengthAdjust="spacing" textLength="118" x="504.5" y="697.916">ProyectoController</text><text fill="#000000" font-family="sans-serif" font-size="14" lengthAdjust="spacing" textLength="84" x="521.5" y="715.5254">(Spring Boot)</text><rect fill="#E2E2F0" height="31.6094" rx="2.5" ry="2.5" style="stroke:#181818;stroke-width:0.5;" width="104" x="857.5" y="88.6094"/><text fill="#000000" font-family="sans-serif" font-size="14" lengthAdjust="spacing" textLength="90" x="864.5" y="110.1426">SesionService</text><rect fill="#E2E2F0" height="31.6094" rx="2.5" ry="2.5" style="stroke:#181818;stroke-width:0.5;" width="104" x="857.5" y="676.3828"/><text fill="#000000" font-family="sans-serif" font-size="14" lengthAdjust="spacing" textLength="90" x="864.5" y="697.916">SesionService</text><rect fill="#E2E2F0" height="31.6094" rx="2.5" ry="2.5" style="stroke:#181818;stroke-width:0.5;" width="117" x="971.5" y="88.6094"/><text fill="#000000" font-family="sans-serif" font-size="14" lengthAdjust="spacing" textLength="103" x="978.5" y="110.1426">ProyectoService</text><rect fill="#E2E2F0" height="31.6094" rx="2.5" ry="2.5" style="stroke:#181818;stroke-width:0.5;" width="117" x="971.5" y="676.3828"/><text fill="#000000" font-family="sans-serif" font-size="14" lengthAdjust="spacing" textLength="103" x="978.5" y="697.916">ProyectoService</text><rect fill="#E2E2F0" height="31.6094" rx="2.5" ry="2.5" style="stroke:#181818;stroke-width:0.5;" width="138" x="1338" y="88.6094"/><text fill="#000000" font-family="sans-serif" font-size="14" lengthAdjust="spacing" textLength="124" x="1345" y="110.1426">ProyectoRepository</text><rect fill="#E2E2F0" height="31.6094" rx="2.5" ry="2.5" style="stroke:#181818;stroke-width:0.5;" width="138" x="1338" y="676.3828"/><text fill="#000000" font-family="sans-serif" font-size="14" lengthAdjust="spacing" textLength="124" x="1345" y="697.916">ProyectoRepository</text><text fill="#000000" font-family="sans-serif" font-size="14" lengthAdjust="spacing" textLength="93" x="2195.5" y="118.1426">Base de Datos</text><path d="M2227,67.6094 C2227,57.6094 2245,57.6094 2245,57.6094 C2245,57.6094 2263,57.6094 2263,67.6094 L2263,93.6094 C2263,103.6094 2245,103.6094 2245,103.6094 C2245,103.6094 2227,103.6094 2227,93.6094 L2227,67.6094 " fill="#E2E2F0" style="stroke:#181818;stroke-width:1.5;"/><path d="M2227,67.6094 C2227,77.6094 2245,77.6094 2245,77.6094 C2245,77.6094 2263,77.6094 2263,67.6094 " fill="none" style="stroke:#181818;stroke-width:1.5;"/><text fill="#000000" font-family="sans-serif" font-size="14" lengthAdjust="spacing" textLength="93" x="2195.5" y="690.916">Base de Datos</text><path d="M2227,703.9922 C2227,693.9922 2245,693.9922 2245,693.9922 C2245,693.9922 2263,693.9922 2263,703.9922 L2263,729.9922 C2263,739.9922 2245,739.9922 2245,739.9922 C2245,739.9922 2227,739.9922 2227,729.9922 L2227,703.9922 " fill="#E2E2F0" style="stroke:#181818;stroke-width:1.5;"/><path d="M2227,703.9922 C2227,713.9922 2245,713.9922 2245,713.9922 C2245,713.9922 2263,713.9922 2263,703.9922 " fill="none" style="stroke:#181818;stroke-width:1.5;"/><rect fill="#FFFFFF" height="513.8125" style="stroke:#181818;stroke-width:1.0;" width="10" x="294.5" y="153.5703"/><rect fill="#FFFFFF" height="314.8672" style="stroke:#181818;stroke-width:1.0;" width="10" x="558.5" y="200.2734"/><rect fill="#FFFFFF" height="55.7031" style="stroke:#181818;stroke-width:1.0;" width="10" x="904.5" y="230.625"/><rect fill="#FFFFFF" height="151.7578" style="stroke:#181818;stroke-width:1.0;" width="10" x="1025" y="316.6797"/><polygon fill="#181818" points="282.5,149.5703,292.5,153.5703,282.5,157.5703,286.5,153.5703" style="stroke:#181818;stroke-width:1.0;"/><line style="stroke:#181818;stroke-width:1.0;" x1="61.5" x2="288.5" y1="153.5703" y2="153.5703"/><text fill="#000000" font-family="sans-serif" font-size="13" lengthAdjust="spacing" textLength="133" x="68.5" y="148.7139">Solicita abrir proyectos</text><polygon fill="#181818" points="546.5,196.2734,556.5,200.2734,546.5,204.2734,550.5,200.2734" style="stroke:#181818;stroke-width:1.0;"/><line style="stroke:#181818;stroke-width:1.0;" x1="304.5" x2="552.5" y1="200.2734" y2="200.2734"/><text fill="#000000" font-family="sans-serif" font-size="13" lengthAdjust="spacing" textLength="235" x="311.5" y="179.0654">GET /api/proyectos/me?criterio={criterio}</text><text fill="#000000" font-family="sans-serif" font-size="13" lengthAdjust="spacing" textLength="100" x="311.5" y="195.417">Cookie de sesion</text><polygon fill="#181818" points="892.5,226.625,902.5,230.625,892.5,234.625,896.5,230.625" style="stroke:#181818;stroke-width:1.0;"/><line style="stroke:#181818;stroke-width:1.0;" x1="568.5" x2="898.5" y1="230.625" y2="230.625"/><text fill="#000000" font-family="sans-serif" font-size="13" lengthAdjust="spacing" textLength="188" x="575.5" y="225.7686">exigirInvestigador(authentication)</text><path d="M10,245.625 L71,245.625 L71,253.9766 L61,263.9766 L10,263.9766 L10,245.625 " fill="#EEEEEE" style="stroke:#000000;stroke-width:1.5;"/><rect fill="none" height="414.7578" style="stroke:#000000;stroke-width:1.5;" width="2294.5" x="10" y="245.625"/><text fill="#000000" font-family="sans-serif" font-size="13" font-weight="bold" lengthAdjust="spacing" textLength="16" x="25" y="260.1201">alt</text><text fill="#000000" font-family="sans-serif" font-size="11" font-weight="bold" lengthAdjust="spacing" textLength="169" x="86" y="259.0439">[Sesion de Investigador activa]</text><polygon fill="#181818" points="579.5,282.3281,569.5,286.3281,579.5,290.3281,575.5,286.3281" style="stroke:#181818;stroke-width:1.0;"/><line style="stroke:#181818;stroke-width:1.0;stroke-dasharray:2.0,2.0;" x1="573.5" x2="908.5" y1="286.3281" y2="286.3281"/><text fill="#000000" font-family="sans-serif" font-size="13" lengthAdjust="spacing" textLength="139" x="585.5" y="281.4717">Investigador autenticado</text><polygon fill="#181818" points="1013,312.6797,1023,316.6797,1013,320.6797,1017,316.6797" style="stroke:#181818;stroke-width:1.0;"/><line style="stroke:#181818;stroke-width:1.0;" x1="568.5" x2="1019" y1="316.6797" y2="316.6797"/><text fill="#000000" font-family="sans-serif" font-size="13" lengthAdjust="spacing" textLength="251" x="575.5" y="311.8232">listarVisiblesPropios(investigadorId, criterio)</text><polygon fill="#181818" points="1395,343.0313,1405,347.0313,1395,351.0313,1399,347.0313" style="stroke:#181818;stroke-width:1.0;"/><line style="stroke:#181818;stroke-width:1.0;" x1="1035" x2="1401" y1="347.0313" y2="347.0313"/><text fill="#000000" font-family="sans-serif" font-size="13" lengthAdjust="spacing" textLength="348" x="1042" y="342.1748">buscarActivosVisiblesPorInvestigador(investigadorId, criterio)</text><polygon fill="#181818" points="2233,373.3828,2243,377.3828,2233,381.3828,2237,377.3828" style="stroke:#181818;stroke-width:1.0;"/><line style="stroke:#181818;stroke-width:1.0;" x1="1407" x2="2239" y1="377.3828" y2="377.3828"/><text fill="#000000" font-family="sans-serif" font-size="13" lengthAdjust="spacing" textLength="814" x="1414" y="372.5264">SELECT p.* FROM proyectos p JOIN proyecto_investigadores pi ON pi.proyecto_id = p.id WHERE pi.usuario_id = ? AND p.archivado = false</text><polygon fill="#181818" points="1418,403.7344,1408,407.7344,1418,411.7344,1414,407.7344" style="stroke:#181818;stroke-width:1.0;"/><line style="stroke:#181818;stroke-width:1.0;stroke-dasharray:2.0,2.0;" x1="1412" x2="2244" y1="407.7344" y2="407.7344"/><text fill="#000000" font-family="sans-serif" font-size="13" lengthAdjust="spacing" textLength="150" x="1424" y="402.8779">Resultado de persistencia</text><polygon fill="#181818" points="1046,434.0859,1036,438.0859,1046,442.0859,1042,438.0859" style="stroke:#181818;stroke-width:1.0;"/><line style="stroke:#181818;stroke-width:1.0;stroke-dasharray:2.0,2.0;" x1="1040" x2="1406" y1="438.0859" y2="438.0859"/><text fill="#000000" font-family="sans-serif" font-size="13" lengthAdjust="spacing" textLength="96" x="1052" y="433.2295">Lista&lt;Proyecto&gt;</text><polygon fill="#181818" points="579.5,464.4375,569.5,468.4375,579.5,472.4375,575.5,468.4375" style="stroke:#181818;stroke-width:1.0;"/><line style="stroke:#181818;stroke-width:1.0;stroke-dasharray:2.0,2.0;" x1="573.5" x2="1029" y1="468.4375" y2="468.4375"/><text fill="#000000" font-family="sans-serif" font-size="13" lengthAdjust="spacing" textLength="209" x="585.5" y="463.5811">Lista&lt;ProyectoResumenResponse&gt;</text><polygon fill="#181818" points="315.5,511.1406,305.5,515.1406,315.5,519.1406,311.5,515.1406" style="stroke:#181818;stroke-width:1.0;"/><line style="stroke:#181818;stroke-width:1.0;stroke-dasharray:2.0,2.0;" x1="309.5" x2="562.5" y1="515.1406" y2="515.1406"/><text fill="#000000" font-family="sans-serif" font-size="13" lengthAdjust="spacing" textLength="44" x="321.5" y="493.9326">200 OK</text><text fill="#000000" font-family="sans-serif" font-size="13" lengthAdjust="spacing" textLength="105" x="321.5" y="510.2842">Proyectos visibles</text><polygon fill="#181818" points="72.5,541.4922,62.5,545.4922,72.5,549.4922,68.5,545.4922" style="stroke:#181818;stroke-width:1.0;"/><line style="stroke:#181818;stroke-width:1.0;stroke-dasharray:2.0,2.0;" x1="66.5" x2="293.5" y1="545.4922" y2="545.4922"/><text fill="#000000" font-family="sans-serif" font-size="13" lengthAdjust="spacing" textLength="209" x="78.5" y="540.6357">Presenta PROYECTOS_ABIERTOS</text><line style="stroke:#000000;stroke-width:1.0;stroke-dasharray:2.0,2.0;" x1="10" x2="2304.5" y1="554.4922" y2="554.4922"/><text fill="#000000" font-family="sans-serif" font-size="11" font-weight="bold" lengthAdjust="spacing" textLength="167" x="15" y="565.9111">[Sesion ausente o rol invalido]</text><polygon fill="#181818" points="574.5,587.6797,564.5,591.6797,574.5,595.6797,570.5,591.6797" style="stroke:#181818;stroke-width:1.0;"/><line style="stroke:#181818;stroke-width:1.0;stroke-dasharray:2.0,2.0;" x1="568.5" x2="908.5" y1="591.6797" y2="591.6797"/><text fill="#000000" font-family="sans-serif" font-size="13" lengthAdjust="spacing" textLength="322" x="580.5" y="586.8232">SesionNoValidaException / AccesoDenegadoException</text><polygon fill="#181818" points="315.5,618.0313,305.5,622.0313,315.5,626.0313,311.5,622.0313" style="stroke:#181818;stroke-width:1.0;"/><line style="stroke:#181818;stroke-width:1.0;stroke-dasharray:2.0,2.0;" x1="309.5" x2="562.5" y1="622.0313" y2="622.0313"/><text fill="#000000" font-family="sans-serif" font-size="13" lengthAdjust="spacing" textLength="195" x="321.5" y="617.1748">401 Unauthorized / 403 Forbidden</text><polygon fill="#181818" points="72.5,648.3828,62.5,652.3828,72.5,656.3828,68.5,652.3828" style="stroke:#181818;stroke-width:1.0;"/><line style="stroke:#181818;stroke-width:1.0;stroke-dasharray:2.0,2.0;" x1="66.5" x2="293.5" y1="652.3828" y2="652.3828"/><text fill="#000000" font-family="sans-serif" font-size="13" lengthAdjust="spacing" textLength="146" x="78.5" y="647.5264">Presenta error de acceso</text><!--SRC=[fLHTJzj047pthrZn15KXwSTJL409DcrQ8953gIeXeOsz3QiwTwUxSmIj-j-xPyUEJL7xq4Y9BxUpixSpj_Ri2uAOSMLnZP0JECfAKXaZ7C9uQTc2iVgHCgyTP7gjOQesv3olCDSsYb02jhzdq7hEsA3oi7V9Rjxapt55jse_9Kaws0DqS6wrygJoVawJS2P1guk2h6GjZ6MrWedMszonuNxQWXnhjI2xuOmgIBtpF7aVLwsV1wPaj6Ffyh72XhzHZXwNw0Zs9k5NP8jH6gm0yIIAkdh0uKdRvmWMkf0A7W7xsWOXUOEUTfeqYq0WpOxWVN8D0pGyQBC6QphDB7koh8z_DgjVj-fCw-zCjP-L1Yrza4s-WRIMPmJqm2kstJFlO-dlIOaOw0Loi4lVIeg5tov3ZLwxDJG2-MmHXqq3VLpfwmgvhi0vFIqITjkZLWwDe63dqTwmusL1uMePrcwVEyJJ_2KqIXnK71tUskVwRDKwa0TBHx0iNOPs7B3QjGLqNvU_5mf4WJ2UYD79HN9s3URe1PodiylE51duE9jUjHjtNKwICCDCedoq0-HmB4Jo-F8XIPCGArs9KhOEdSBuAXO0sknU6isrx7t3mjMDnfFAWBh9b5nP-00HsmnP9t9MqzuvVrVkYo3tksOKJlhADRRsGQ74cfGyZ5QEJluqTsT2vMvlFbuFXp3xTAlQbmPijbOyvGaNEMpjnaI8kcQDO2vwoXr3cAUph-B6R74tdaoJL1OHYJxD1SKom0WqoEi6n0yiU7ihdrxX-l-LlWaGJ1uoCc52O03ZB2EdOr8KghUHVztjNlTlXw_Wimh3fot_e5netmxVmBcsIyvpKl-Z0LahKoUsOtNGABnYEbGDnMy0]--></g></svg>