<svg xmlns="http://www.w3.org/2000/svg" xmlns:xlink="http://www.w3.org/1999/xlink" contentStyleType="text/css" data-diagram-type="DESCRIPTION" height="434px" preserveAspectRatio="none" style="width:2544px;height:434px;background:#FFFFFF;" version="1.1" viewBox="0 0 2544 434" width="2544px" zoomAndPan="magnify"><defs/><g><!--cluster eliminarPerfil--><g class="cluster" data-entity="eliminarPerfil" data-source-line="4" data-uid="ent0003" id="cluster_eliminarPerfil"><path d="M347.5,6 L446.5273,6 A3.75,3.75 0 0 1 449.0273,8.5 L456.0273,29.6094 L1466.5,29.6094 A2.5,2.5 0 0 1 1469,32.1094 L1469,424.5 A2.5,2.5 0 0 1 1466.5,427 L347.5,427 A2.5,2.5 0 0 1 345,424.5 L345,8.5 A2.5,2.5 0 0 1 347.5,6" fill="none" style="stroke:#000000;stroke-width:1.5;"/><line style="stroke:#000000;stroke-width:1.5;" x1="345" x2="456.0273" y1="29.6094" y2="29.6094"/><text fill="#000000" font-family="sans-serif" font-size="14" font-weight="bold" lengthAdjust="spacing" textLength="98.0273" x="349" y="22.5332">eliminarPerfil()</text></g><!--entity EliminarPerfilView--><g class="entity" data-entity="EliminarPerfilView" data-source-line="5" data-uid="ent0004" id="entity_EliminarPerfilView"><rect fill="#629EF9" height="37.6094" rx="2.5" ry="2.5" style="stroke:#181818;stroke-width:0.5;" width="132.8066" x="1049.5" y="42"/><text fill="#000000" font-family="sans-serif" font-size="14" lengthAdjust="spacing" textLength="112.8066" x="1059.5" y="66.5332">EliminarPerfilView</text></g><!--entity PerfilController--><g class="entity" data-entity="PerfilController" data-source-line="6" data-uid="ent0005" id="entity_PerfilController"><rect fill="#B5BD68" height="37.6094" rx="2.5" ry="2.5" style="stroke:#181818;stroke-width:0.5;" width="112.5859" x="893.5" y="158"/><text fill="#000000" font-family="sans-serif" font-size="14" lengthAdjust="spacing" textLength="92.5859" x="903.5" y="182.5332">PerfilController</text></g><!--entity PerfilRepository--><g class="entity" data-entity="PerfilRepository" data-source-line="7" data-uid="ent0006" id="entity_PerfilRepository"><rect fill="#F2AC4E" height="37.6094" rx="2.5" ry="2.5" style="stroke:#181818;stroke-width:0.5;" width="118.8135" x="760.5" y="274"/><text fill="#000000" font-family="sans-serif" font-size="14" lengthAdjust="spacing" textLength="98.8135" x="770.5" y="298.5332">PerfilRepository</text></g><!--entity Perfil--><g class="entity" data-entity="Perfil" data-source-line="8" data-uid="ent0007" id="entity_Perfil"><rect fill="#F2AC4E" height="37.6094" rx="2.5" ry="2.5" style="stroke:#181818;stroke-width:0.5;" width="51.8965" x="794" y="373"/><text fill="#000000" font-family="sans-serif" font-size="14" lengthAdjust="spacing" textLength="31.8965" x="804" y="397.5332">Perfil</text></g><!--entity SolicitudEliminacionPerfilRepository--><g class="entity" data-entity="SolicitudEliminacionPerfilRepository" data-source-line="9" data-uid="ent0008" id="entity_SolicitudEliminacionPerfilRepository"><rect fill="#F2AC4E" height="37.6094" rx="2.5" ry="2.5" style="stroke:#181818;stroke-width:0.5;" width="243.3164" x="956.5" y="274"/><text fill="#000000" font-family="sans-serif" font-size="14" lengthAdjust="spacing" textLength="223.3164" x="966.5" y="298.5332">SolicitudEliminacionPerfilRepository</text></g><!--entity SolicitudEliminacionPerfil--><g class="entity" data-entity="SolicitudEliminacionPerfil" data-source-line="10" data-uid="ent0009" id="entity_SolicitudEliminacionPerfil"><rect fill="#F2AC4E" height="37.6094" rx="2.5" ry="2.5" style="stroke:#181818;stroke-width:0.5;" width="176.3994" x="990" y="373"/><text fill="#000000" font-family="sans-serif" font-size="14" lengthAdjust="spacing" textLength="156.3994" x="1000" y="397.5332">SolicitudEliminacionPerfil</text></g><!--entity EstadoEntrada--><g class="entity" data-entity="EstadoEntrada" data-source-line="3" data-uid="ent0002" id="entity_EstadoEntrada"><rect fill="#CDEBA5" height="37.6094" rx="2.5" ry="2.5" style="stroke:#181818;stroke-width:0.5;" width="321.8545" x="7" y="42"/><text fill="#000000" font-family="sans-serif" font-size="14" lengthAdjust="spacing" textLength="301.8545" x="17" y="66.5332">:SOLICITUD_ELIMINACION_PERFIL_ABIERTA</text></g><!--entity EstadoSalidaExitosa--><g class="entity" data-entity="EstadoSalidaExitosa" data-source-line="13" data-uid="ent0010" id="entity_EstadoSalidaExitosa"><rect fill="#CDEBA5" height="37.6094" rx="2.5" ry="2.5" style="stroke:#181818;stroke-width:0.5;" width="349.8682" x="1485" y="158"/><text fill="#000000" font-family="sans-serif" font-size="14" lengthAdjust="spacing" textLength="329.8682" x="1495" y="182.5332">:SOLICITUDES_ELIMINACION_PERFIL_ABIERTAS</text></g><!--entity EstadoSalidaCancelada--><g class="entity" data-entity="EstadoSalidaCancelada" data-source-line="14" data-uid="ent0011" id="entity_EstadoSalidaCancelada"><rect fill="#CDEBA5" height="37.6094" rx="2.5" ry="2.5" style="stroke:#181818;stroke-width:0.5;" width="321.8545" x="1870" y="158"/><text fill="#000000" font-family="sans-serif" font-size="14" lengthAdjust="spacing" textLength="301.8545" x="1880" y="182.5332">:SOLICITUD_ELIMINACION_PERFIL_ABIERTA</text></g><!--entity AbrirSolicitudesEliminacionPerfil--><g class="entity" data-entity="AbrirSolicitudesEliminacionPerfil" data-source-line="15" data-uid="ent0012" id="entity_AbrirSolicitudesEliminacionPerfil"><rect fill="#CDEBA5" height="37.6094" rx="2.5" ry="2.5" style="stroke:#181818;stroke-width:0.5;" width="311.0195" x="2227.5" y="158"/><text fill="#000000" font-family="sans-serif" font-size="14" lengthAdjust="spacing" textLength="291.0195" x="2237.5" y="182.5332">:Collaboration AbrirSolicitudesEliminacionPerfil</text></g><!--link EstadoEntrada to EliminarPerfilView--><g class="link" data-entity-1="EstadoEntrada" data-entity-2="EliminarPerfilView" data-source-line="17" data-uid="lnk13" id="link_EstadoEntrada_EliminarPerfilView"><path d="M329.08,61 C540.18,61 894.95,61 1043.29,61" fill="none" id="EstadoEntrada-to-EliminarPerfilView" style="stroke:#181818;stroke-width:1;"/><polygon fill="#181818" points="1049.29,61,1040.29,57,1044.29,61,1040.29,65,1049.29,61" style="stroke:#181818;stroke-width:1;"/><text fill="#000000" font-family="sans-serif" font-size="13" lengthAdjust="spacing" textLength="83.7891" x="647.75" y="54.4951">eliminarPerfil()</text></g><!--link EliminarPerfilView to PerfilController--><g class="link" data-entity-1="EliminarPerfilView" data-entity-2="PerfilController" data-source-line="19" data-uid="lnk14" id="link_EliminarPerfilView_PerfilController"><path d="M1049.28,66.43 C870.29,78.31 393,110 393,110 C393,110 393,128 393,128 C393,128 745.5022,158.3748 887.2922,170.5948" fill="none" id="EliminarPerfilView-to-PerfilController" style="stroke:#181818;stroke-width:1;"/><polygon fill="#181818" points="893.27,171.11,884.6467,166.352,888.2885,170.6807,883.9598,174.3224,893.27,171.11" style="stroke:#181818;stroke-width:1;"/><text fill="#000000" font-family="sans-serif" font-size="13" lengthAdjust="spacing" textLength="235.5234" x="394" y="124.4951">solicitarConfirmacion(idSolicitud, idPerfil)</text></g><!--link PerfilController to EliminarPerfilView--><g class="link" data-entity-1="PerfilController" data-entity-2="EliminarPerfilView" data-source-line="20" data-uid="lnk15" id="link_PerfilController_EliminarPerfilView"><path d="M1006.83,167.53 C1099.27,153.75 1272,128 1272,128 C1272,128 1272,110 1272,110 C1272,110 1224.5347,95.3943 1180.2647,81.7743" fill="none" id="PerfilController-to-EliminarPerfilView" style="stroke:#181818;stroke-width:1;"/><polygon fill="#181818" points="1174.53,80.01,1181.9559,86.4797,1179.3089,81.4803,1184.3083,78.8333,1174.53,80.01" style="stroke:#181818;stroke-width:1;"/><text fill="#000000" font-family="sans-serif" font-size="13" lengthAdjust="spacing" textLength="140.1626" x="1273" y="124.4951">presentarConfirmacion()</text></g><!--link EliminarPerfilView to PerfilController--><g class="link" data-entity-1="EliminarPerfilView" data-entity-2="PerfilController" data-source-line="21" data-uid="lnk16" id="link_EliminarPerfilView_PerfilController"><path d="M1049.23,69.19 C924.81,82.58 670,110 670,110 C670,110 670,128 670,128 C670,128 805.6063,151.246 887.4263,165.276" fill="none" id="EliminarPerfilView-to-PerfilController-1" style="stroke:#181818;stroke-width:1;"/><polygon fill="#181818" points="893.34,166.29,885.1455,160.8265,888.4119,165.445,883.7934,168.7114,893.34,166.29" style="stroke:#181818;stroke-width:1;"/><text fill="#000000" font-family="sans-serif" font-size="13" lengthAdjust="spacing" textLength="235.5234" x="671" y="124.4951">confirmarEliminacion(idSolicitud, idPerfil)</text></g><!--link EliminarPerfilView to PerfilController--><g class="link" data-entity-1="EliminarPerfilView" data-entity-2="PerfilController" data-source-line="22" data-uid="lnk17" id="link_EliminarPerfilView_PerfilController"><path d="M1052.59,80.01 C1004.64,93.63 947,110 947,110 C947,110 947,128 947,128 C947,128 947.6455,138.2717 948.4955,151.8617" fill="none" id="EliminarPerfilView-to-PerfilController-2" style="stroke:#181818;stroke-width:1;"/><polygon fill="#181818" points="948.87,157.85,952.3004,148.6179,948.5579,152.8598,944.316,149.1172,948.87,157.85" style="stroke:#181818;stroke-width:1;"/><text fill="#000000" font-family="sans-serif" font-size="13" lengthAdjust="spacing" textLength="124.2681" x="948" y="124.4951">cancelarEliminacion()</text></g><!--link EliminarPerfilView to PerfilController--><g class="link" data-entity-1="EliminarPerfilView" data-entity-2="PerfilController" data-source-line="23" data-uid="lnk18" id="link_EliminarPerfilView_PerfilController"><path d="M1105.34,80.03 C1093.8,99.58 1077,128 1077,128 C1077,128 1039.3026,142.2489 1003.2626,155.8689" fill="none" id="EliminarPerfilView-to-PerfilController-3" style="stroke:#181818;stroke-width:1;"/><polygon fill="#181818" points="997.65,157.99,1007.4829,158.5501,1002.3272,156.2224,1004.6548,151.0667,997.65,157.99" style="stroke:#181818;stroke-width:1;"/><text fill="#000000" font-family="sans-serif" font-size="13" lengthAdjust="spacing" textLength="153.1626" x="1088" y="124.4951">validarEliminacion(idPerfil)</text></g><!--link PerfilController to SolicitudEliminacionPerfilRepository--><g class="link" data-entity-1="PerfilController" data-entity-2="SolicitudEliminacionPerfilRepository" data-source-line="24" data-uid="lnk19" id="link_PerfilController_SolicitudEliminacionPerfilRepository"><path d="M967.49,196.03 C986.44,215.58 1014,244 1014,244 C1014,244 1030.88,256.66 1049,270.25" fill="none" id="PerfilController-to-SolicitudEliminacionPerfilRepository" style="stroke:#181818;stroke-width:1;"/><polygon fill="#181818" points="1053.8,273.85,1049,265.25,1049.8,270.85,1044.2,271.65,1053.8,273.85" style="stroke:#181818;stroke-width:1;"/><text fill="#000000" font-family="sans-serif" font-size="13" lengthAdjust="spacing" textLength="143.0762" x="1015" y="240.4951">obtenerPorId(idSolicitud)</text></g><!--link PerfilController to SolicitudEliminacionPerfilRepository--><g class="link" data-entity-1="PerfilController" data-entity-2="SolicitudEliminacionPerfilRepository" data-source-line="27" data-uid="lnk22" id="link_PerfilController_SolicitudEliminacionPerfilRepository"><path d="M1006.52,190.74 C1069.62,204.96 1163,226 1163,226 C1163,226 1163,244 1163,244 C1163,244 1139.4353,257.311 1115.3553,270.901" fill="none" id="PerfilController-to-SolicitudEliminacionPerfilRepository-1" style="stroke:#181818;stroke-width:1;"/><polygon fill="#181818" points="1110.13,273.85,1119.9339,272.91,1114.4844,271.3925,1116.0019,265.943,1110.13,273.85" style="stroke:#181818;stroke-width:1;"/><text fill="#000000" font-family="sans-serif" font-size="13" lengthAdjust="spacing" textLength="159.6689" x="1164" y="240.4951">marcarResuelta(idSolicitud)</text></g><!--link PerfilController to PerfilRepository--><g class="link" data-entity-1="PerfilController" data-entity-2="PerfilRepository" data-source-line="25" data-uid="lnk20" id="link_PerfilController_PerfilRepository"><path d="M893.47,189.5 C823.65,203.7 714,226 714,226 C714,226 714,244 714,244 C714,244 744.6842,257.8951 774.7642,271.5151" fill="none" id="PerfilController-to-PerfilRepository" style="stroke:#181818;stroke-width:1;"/><polygon fill="#181818" points="780.23,273.99,773.6812,266.6338,775.6752,271.9276,770.3814,273.9216,780.23,273.99" style="stroke:#181818;stroke-width:1;"/><text fill="#000000" font-family="sans-serif" font-size="13" lengthAdjust="spacing" textLength="123.5571" x="715" y="240.4951">obtenerPorId(idPerfil)</text></g><!--link PerfilController to PerfilRepository--><g class="link" data-entity-1="PerfilController" data-entity-2="PerfilRepository" data-source-line="26" data-uid="lnk21" id="link_PerfilController_PerfilRepository"><path d="M928.45,196.15 C912.31,209.74 893,226 893,226 C893,226 866.0094,250.3947 844.3994,269.9447" fill="none" id="PerfilController-to-PerfilRepository-1" style="stroke:#181818;stroke-width:1;"/><polygon fill="#181818" points="839.95,273.97,849.3076,270.8984,843.6578,270.6156,843.9406,264.9658,839.95,273.97" style="stroke:#181818;stroke-width:1;"/><text fill="#000000" font-family="sans-serif" font-size="13" lengthAdjust="spacing" textLength="93.9072" x="894" y="240.4951">eliminar(idPerfil)</text></g><!--link PerfilRepository to Perfil--><g class="link" data-entity-1="PerfilRepository" data-entity-2="Perfil" data-source-line="28" data-uid="lnk23" id="link_PerfilRepository_Perfil"><path d="M820,312.24 C820,329.59 820,355.52 820,372.84" fill="none" id="PerfilRepository-Perfil" style="stroke:#181818;stroke-width:1;"/></g><!--link SolicitudEliminacionPerfilRepository to SolicitudEliminacionPerfil--><g class="link" data-entity-1="SolicitudEliminacionPerfilRepository" data-entity-2="SolicitudEliminacionPerfil" data-source-line="29" data-uid="lnk24" id="link_SolicitudEliminacionPerfilRepository_SolicitudEliminacionPerfil"><path d="M1078,312.24 C1078,329.59 1078,355.52 1078,372.84" fill="none" id="SolicitudEliminacionPerfilRepository-SolicitudEliminacionPerfil" style="stroke:#181818;stroke-width:1;"/></g><!--link EliminarPerfilView to EstadoSalidaExitosa--><g class="link" data-entity-1="EliminarPerfilView" data-entity-2="EstadoSalidaExitosa" data-source-line="30" data-uid="lnk25" id="link_EliminarPerfilView_EstadoSalidaExitosa"><path d="M1182.77,72.47 C1272.81,86.6 1422,110 1422,110 C1422,110 1518.7184,136.816 1589.1884,156.366" fill="none" id="EliminarPerfilView-to-EstadoSalidaExitosa" style="stroke:#181818;stroke-width:1;stroke-dasharray:7,7;"/><polygon fill="#181818" points="1594.97,157.97,1587.3669,151.7096,1590.152,156.6334,1585.2282,159.4185,1594.97,157.97" style="stroke:#181818;stroke-width:1;"/><text fill="#000000" font-family="sans-serif" font-size="13" lengthAdjust="spacing" textLength="93.9199" x="1486" y="124.4951">perfilEliminado()</text></g><!--link EliminarPerfilView to EstadoSalidaCancelada--><g class="link" data-entity-1="EliminarPerfilView" data-entity-2="EstadoSalidaCancelada" data-source-line="31" data-uid="lnk26" id="link_EliminarPerfilView_EstadoSalidaCancelada"><path d="M1182.62,68.78 C1312.73,82.01 1588,110 1588,110 C1588,110 1772.8456,137.5355 1904.0156,157.0855" fill="none" id="EliminarPerfilView-to-EstadoSalidaCancelada" style="stroke:#181818;stroke-width:1;stroke-dasharray:7,7;"/><polygon fill="#181818" points="1909.95,157.97,1901.638,152.687,1905.0046,157.2329,1900.4587,160.5996,1909.95,157.97" style="stroke:#181818;stroke-width:1;"/><text fill="#000000" font-family="sans-serif" font-size="13" lengthAdjust="spacing" textLength="135.8462" x="1707" y="124.4951">eliminacionCancelada()</text></g><!--link EliminarPerfilView to AbrirSolicitudesEliminacionPerfil--><g class="link" data-entity-1="EliminarPerfilView" data-entity-2="AbrirSolicitudesEliminacionPerfil" data-source-line="32" data-uid="lnk27" id="link_EliminarPerfilView_AbrirSolicitudesEliminacionPerfil"><path d="M1182.52,66.34 C1363.45,78.16 1851,110 1851,110 C1851,110 2074.1557,137.681 2231.6757,157.231" fill="none" id="EliminarPerfilView-to-AbrirSolicitudesEliminacionPerfil" style="stroke:#181818;stroke-width:1;stroke-dasharray:7,7;"/><polygon fill="#181818" points="2237.63,157.97,2229.1912,152.892,2232.6681,157.3542,2228.2059,160.831,2237.63,157.97" style="stroke:#181818;stroke-width:1;"/><text fill="#000000" font-family="sans-serif" font-size="13" lengthAdjust="spacing" textLength="193.6226" x="1994" y="124.4951">abrirSolicitudesEliminacionPerfil()</text></g><!--SRC=[hLJBRjim4BphAnRk9GRg788cI7G8e2Wq8C1D3ClfrLY9J4249eKbqzOeyk-bB4UrPJrS8Bg9cfcTtHtHlafT8E4QbDJ2RGe1XL6RyYK8IEGEzOiIy2M-PtVH9Op2z76MnCdowNx5Pidtv26AayU7rPmjfibi5TqbRB6CHe0Mc7N83TEEa6DGOFwABmA4ackfaUQ2dgKgSQF3exFn2Fu4u9-zwbSNDsnw0-m0-KEANqrWTfdngske0B7nnOrIWfgmwKKKVsCxs48KnafdQDCBw_YO6YLpwTxupbmkZJvHjviQl0yCdwKzuq_tvf-YaXpPR-_3ucSij1ACKUT2bOjjaupzq34pXCvt1556akfUXJtgTgi-Y0g2WqJ1X2QtBOa8ePadJpn2mOHxTZCc8TZA098_V9QqtjO_axmszXKahsZZe4c7IOUZWeGLkgawRlNLQYlVyMXlAbskJXUjTdYW-H_qdziWD1prZkQKNoK4apcX1SqD9No_nmxHGO5UIyViZ_HyJZD-PJdIGjWteHosjVCFxMK_hffJn4jupmtIiiVpyzksMy7dSulPCRXfJq6JNLy1zSpAwlLfjyZWdnu23a6y-by0]--></g></svg>