<svg xmlns="http://www.w3.org/2000/svg" xmlns:xlink="http://www.w3.org/1999/xlink" contentStyleType="text/css" data-diagram-type="DESCRIPTION" height="434px" preserveAspectRatio="none" style="width:2133px;height:434px;background:#FFFFFF;" version="1.1" viewBox="0 0 2133 434" width="2133px" zoomAndPan="magnify"><defs/><g><!--cluster eliminarPerfil--><g class="cluster" data-entity="eliminarPerfil" data-source-line="4" data-uid="ent0003" id="cluster_eliminarPerfil"><path d="M347.5,6 L446.5273,6 A3.75,3.75 0 0 1 449.0273,8.5 L456.0273,29.6094 L1055.5,29.6094 A2.5,2.5 0 0 1 1058,32.1094 L1058,424.5 A2.5,2.5 0 0 1 1055.5,427 L347.5,427 A2.5,2.5 0 0 1 345,424.5 L345,8.5 A2.5,2.5 0 0 1 347.5,6" fill="none" style="stroke:#000000;stroke-width:1.5;"/><line style="stroke:#000000;stroke-width:1.5;" x1="345" x2="456.0273" y1="29.6094" y2="29.6094"/><text fill="#000000" font-family="sans-serif" font-size="14" font-weight="bold" lengthAdjust="spacing" textLength="98.0273" x="349" y="22.5332">eliminarPerfil()</text></g><!--entity EliminarPerfilView--><g class="entity" data-entity="EliminarPerfilView" data-source-line="5" data-uid="ent0004" id="entity_EliminarPerfilView"><rect fill="#629EF9" height="37.6094" rx="2.5" ry="2.5" style="stroke:#181818;stroke-width:0.5;" width="132.8066" x="849.5" y="42"/><text fill="#000000" font-family="sans-serif" font-size="14" lengthAdjust="spacing" textLength="112.8066" x="859.5" y="66.5332">EliminarPerfilView</text></g><!--entity PerfilController--><g class="entity" data-entity="PerfilController" data-source-line="6" data-uid="ent0005" id="entity_PerfilController"><rect fill="#B5BD68" height="37.6094" rx="2.5" ry="2.5" style="stroke:#181818;stroke-width:0.5;" width="112.5859" x="639.5" y="158"/><text fill="#000000" font-family="sans-serif" font-size="14" lengthAdjust="spacing" textLength="92.5859" x="649.5" y="182.5332">PerfilController</text></g><!--entity PerfilRepository--><g class="entity" data-entity="PerfilRepository" data-source-line="7" data-uid="ent0006" id="entity_PerfilRepository"><rect fill="#F2AC4E" height="37.6094" rx="2.5" ry="2.5" style="stroke:#181818;stroke-width:0.5;" width="118.8135" x="446.5" y="274"/><text fill="#000000" font-family="sans-serif" font-size="14" lengthAdjust="spacing" textLength="98.8135" x="456.5" y="298.5332">PerfilRepository</text></g><!--entity Perfil--><g class="entity" data-entity="Perfil" data-source-line="8" data-uid="ent0007" id="entity_Perfil"><rect fill="#F2AC4E" height="37.6094" rx="2.5" ry="2.5" style="stroke:#181818;stroke-width:0.5;" width="51.8965" x="480" y="373"/><text fill="#000000" font-family="sans-serif" font-size="14" lengthAdjust="spacing" textLength="31.8965" x="490" y="397.5332">Perfil</text></g><!--entity SolicitudEliminacionPerfilRepository--><g class="entity" data-entity="SolicitudEliminacionPerfilRepository" data-source-line="9" data-uid="ent0008" id="entity_SolicitudEliminacionPerfilRepository"><rect fill="#F2AC4E" height="37.6094" rx="2.5" ry="2.5" style="stroke:#181818;stroke-width:0.5;" width="243.3164" x="629.5" y="274"/><text fill="#000000" font-family="sans-serif" font-size="14" lengthAdjust="spacing" textLength="223.3164" x="639.5" y="298.5332">SolicitudEliminacionPerfilRepository</text></g><!--entity SolicitudEliminacionPerfil--><g class="entity" data-entity="SolicitudEliminacionPerfil" data-source-line="10" data-uid="ent0009" id="entity_SolicitudEliminacionPerfil"><rect fill="#F2AC4E" height="37.6094" rx="2.5" ry="2.5" style="stroke:#181818;stroke-width:0.5;" width="176.3994" x="663" y="373"/><text fill="#000000" font-family="sans-serif" font-size="14" lengthAdjust="spacing" textLength="156.3994" x="673" y="397.5332">SolicitudEliminacionPerfil</text></g><!--entity EstadoEntrada--><g class="entity" data-entity="EstadoEntrada" data-source-line="3" data-uid="ent0002" id="entity_EstadoEntrada"><rect fill="#CDEBA5" height="37.6094" rx="2.5" ry="2.5" style="stroke:#181818;stroke-width:0.5;" width="321.8545" x="7" y="42"/><text fill="#000000" font-family="sans-serif" font-size="14" lengthAdjust="spacing" textLength="301.8545" x="17" y="66.5332">:SOLICITUD_ELIMINACION_PERFIL_ABIERTA</text></g><!--entity EstadoSalidaExitosa--><g class="entity" data-entity="EstadoSalidaExitosa" data-source-line="13" data-uid="ent0010" id="entity_EstadoSalidaExitosa"><rect fill="#CDEBA5" height="37.6094" rx="2.5" ry="2.5" style="stroke:#181818;stroke-width:0.5;" width="349.8682" x="1074" y="158"/><text fill="#000000" font-family="sans-serif" font-size="14" lengthAdjust="spacing" textLength="329.8682" x="1084" y="182.5332">:SOLICITUDES_ELIMINACION_PERFIL_ABIERTAS</text></g><!--entity EstadoSalidaCancelada--><g class="entity" data-entity="EstadoSalidaCancelada" data-source-line="14" data-uid="ent0011" id="entity_EstadoSalidaCancelada"><rect fill="#CDEBA5" height="37.6094" rx="2.5" ry="2.5" style="stroke:#181818;stroke-width:0.5;" width="321.8545" x="1459" y="158"/><text fill="#000000" font-family="sans-serif" font-size="14" lengthAdjust="spacing" textLength="301.8545" x="1469" y="182.5332">:SOLICITUD_ELIMINACION_PERFIL_ABIERTA</text></g><!--entity AbrirSolicitudesEliminacionPerfil--><g class="entity" data-entity="AbrirSolicitudesEliminacionPerfil" data-source-line="15" data-uid="ent0012" id="entity_AbrirSolicitudesEliminacionPerfil"><rect fill="#CDEBA5" height="37.6094" rx="2.5" ry="2.5" style="stroke:#181818;stroke-width:0.5;" width="311.0195" x="1816.5" y="158"/><text fill="#000000" font-family="sans-serif" font-size="14" lengthAdjust="spacing" textLength="291.0195" x="1826.5" y="182.5332">:Collaboration AbrirSolicitudesEliminacionPerfil</text></g><!--link EstadoEntrada to EliminarPerfilView--><g class="link" data-entity-1="EstadoEntrada" data-entity-2="EliminarPerfilView" data-source-line="17" data-uid="lnk13" id="link_EstadoEntrada_EliminarPerfilView"><path d="M329.38,61 C491.51,61 727.46,61 843.39,61" fill="none" id="EstadoEntrada-to-EliminarPerfilView" style="stroke:#181818;stroke-width:1;"/><polygon fill="#181818" points="849.39,61,840.39,57,844.39,61,840.39,65,849.39,61" style="stroke:#181818;stroke-width:1;"/><text fill="#000000" font-family="sans-serif" font-size="13" lengthAdjust="spacing" textLength="83.7891" x="547.75" y="54.4951">eliminarPerfil()</text></g><!--link EliminarPerfilView to PerfilController--><g class="link" data-entity-1="EliminarPerfilView" data-entity-2="PerfilController" data-source-line="19" data-uid="lnk14" id="link_EliminarPerfilView_PerfilController"><path d="M849.28,69.45 C728.51,82.93 486,110 486,110 C486,110 486,128 486,128 C486,128 571.4007,147.5237 633.6007,161.7337" fill="none" id="EliminarPerfilView-to-PerfilController" style="stroke:#181818;stroke-width:1;"/><polygon fill="#181818" points="639.45,163.07,631.5669,157.166,634.5756,161.9564,629.7852,164.9651,639.45,163.07" style="stroke:#181818;stroke-width:1;"/><text fill="#000000" font-family="sans-serif" font-size="13" lengthAdjust="spacing" textLength="190.0044" x="487" y="124.4951">eliminarPerfil(idSolicitud, idPerfil)</text></g><!--link EliminarPerfilView to PerfilController--><g class="link" data-entity-1="EliminarPerfilView" data-entity-2="PerfilController" data-source-line="20" data-uid="lnk15" id="link_EliminarPerfilView_PerfilController"><path d="M849.24,78.18 C791.76,92.12 718,110 718,110 C718,110 710.4282,132.7282 703.9082,152.2782" fill="none" id="EliminarPerfilView-to-PerfilController-1" style="stroke:#181818;stroke-width:1;"/><polygon fill="#181818" points="702.01,157.97,708.6519,150.6978,703.5919,153.2268,701.0628,148.1668,702.01,157.97" style="stroke:#181818;stroke-width:1;"/><text fill="#000000" font-family="sans-serif" font-size="13" lengthAdjust="spacing" textLength="153.1626" x="719" y="124.4951">validarEliminacion(idPerfil)</text></g><!--link EliminarPerfilView to PerfilController--><g class="link" data-entity-1="EliminarPerfilView" data-entity-2="PerfilController" data-source-line="21" data-uid="lnk16" id="link_EliminarPerfilView_PerfilController"><path d="M905.34,80.03 C893.8,99.58 877,128 877,128 C877,128 811.6497,145.3327 758.5697,159.4027" fill="none" id="EliminarPerfilView-to-PerfilController-2" style="stroke:#181818;stroke-width:1;"/><polygon fill="#181818" points="752.77,160.94,762.4945,162.5005,757.6031,159.6589,760.4447,154.7675,752.77,160.94" style="stroke:#181818;stroke-width:1;"/><text fill="#000000" font-family="sans-serif" font-size="13" lengthAdjust="spacing" textLength="124.2681" x="888" y="124.4951">cancelarEliminacion()</text></g><!--link PerfilController to SolicitudEliminacionPerfilRepository--><g class="link" data-entity-1="PerfilController" data-entity-2="SolicitudEliminacionPerfilRepository" data-source-line="22" data-uid="lnk17" id="link_PerfilController_SolicitudEliminacionPerfilRepository"><path d="M694.87,196.15 C694.02,209.74 693,226 693,226 C693,226 693,244 693,244 C693,244 708.0278,256.4344 724.4478,270.0244" fill="none" id="PerfilController-to-SolicitudEliminacionPerfilRepository" style="stroke:#181818;stroke-width:1;"/><polygon fill="#181818" points="729.07,273.85,724.6871,265.0301,725.2181,270.662,719.5863,271.1931,729.07,273.85" style="stroke:#181818;stroke-width:1;"/><text fill="#000000" font-family="sans-serif" font-size="13" lengthAdjust="spacing" textLength="143.0762" x="694" y="240.4951">obtenerPorId(idSolicitud)</text></g><!--link PerfilController to SolicitudEliminacionPerfilRepository--><g class="link" data-entity-1="PerfilController" data-entity-2="SolicitudEliminacionPerfilRepository" data-source-line="25" data-uid="lnk20" id="link_PerfilController_SolicitudEliminacionPerfilRepository"><path d="M750.78,196.01 C792.21,209.63 842,226 842,226 C842,226 842,244 842,244 C842,244 816.2774,257.5715 790.4474,271.1915" fill="none" id="PerfilController-to-SolicitudEliminacionPerfilRepository-1" style="stroke:#181818;stroke-width:1;"/><polygon fill="#181818" points="785.14,273.99,794.9667,273.3304,789.5628,271.6579,791.2354,266.2539,785.14,273.99" style="stroke:#181818;stroke-width:1;"/><text fill="#000000" font-family="sans-serif" font-size="13" lengthAdjust="spacing" textLength="159.6689" x="843" y="240.4951">marcarResuelta(idSolicitud)</text></g><!--link PerfilController to PerfilRepository--><g class="link" data-entity-1="PerfilController" data-entity-2="PerfilRepository" data-source-line="23" data-uid="lnk18" id="link_PerfilController_PerfilRepository"><path d="M639.36,186.97 C551.66,200.87 393,226 393,226 C393,226 393,244 393,244 C393,244 426.0177,258.024 458.0777,271.644" fill="none" id="PerfilController-to-PerfilRepository" style="stroke:#181818;stroke-width:1;"/><polygon fill="#181818" points="463.6,273.99,456.8805,266.7894,458.9981,272.035,453.7525,274.1525,463.6,273.99" style="stroke:#181818;stroke-width:1;"/><text fill="#000000" font-family="sans-serif" font-size="13" lengthAdjust="spacing" textLength="123.5571" x="394" y="240.4951">obtenerPorId(idPerfil)</text></g><!--link PerfilController to PerfilRepository--><g class="link" data-entity-1="PerfilController" data-entity-2="PerfilRepository" data-source-line="24" data-uid="lnk19" id="link_PerfilController_PerfilRepository"><path d="M656.23,196.01 C626.15,209.63 590,226 590,226 C590,226 558.5371,250.712 533.6671,270.262" fill="none" id="PerfilController-to-PerfilRepository-1" style="stroke:#181818;stroke-width:1;"/><polygon fill="#181818" points="528.95,273.97,538.4976,271.5527,532.8809,270.88,533.5536,265.2633,528.95,273.97" style="stroke:#181818;stroke-width:1;"/><text fill="#000000" font-family="sans-serif" font-size="13" lengthAdjust="spacing" textLength="93.9072" x="591" y="240.4951">eliminar(idPerfil)</text></g><!--link PerfilRepository to Perfil--><g class="link" data-entity-1="PerfilRepository" data-entity-2="Perfil" data-source-line="26" data-uid="lnk21" id="link_PerfilRepository_Perfil"><path d="M506,312.24 C506,329.59 506,355.52 506,372.84" fill="none" id="PerfilRepository-Perfil" style="stroke:#181818;stroke-width:1;"/></g><!--link SolicitudEliminacionPerfilRepository to SolicitudEliminacionPerfil--><g class="link" data-entity-1="SolicitudEliminacionPerfilRepository" data-entity-2="SolicitudEliminacionPerfil" data-source-line="27" data-uid="lnk22" id="link_SolicitudEliminacionPerfilRepository_SolicitudEliminacionPerfil"><path d="M751,312.24 C751,329.59 751,355.52 751,372.84" fill="none" id="SolicitudEliminacionPerfilRepository-SolicitudEliminacionPerfil" style="stroke:#181818;stroke-width:1;"/></g><!--link EliminarPerfilView to EstadoSalidaExitosa--><g class="link" data-entity-1="EliminarPerfilView" data-entity-2="EstadoSalidaExitosa" data-source-line="28" data-uid="lnk23" id="link_EliminarPerfilView_EstadoSalidaExitosa"><path d="M968.76,80.06 C1031.03,101.38 1128.2534,134.6668 1190.5334,155.9868" fill="none" id="EliminarPerfilView-to-EstadoSalidaExitosa" style="stroke:#181818;stroke-width:1;stroke-dasharray:7,7;"/><polygon fill="#181818" points="1196.21,157.93,1188.9906,151.2307,1191.4795,156.3106,1186.3996,158.7995,1196.21,157.93" style="stroke:#181818;stroke-width:1;"/><text fill="#000000" font-family="sans-serif" font-size="13" lengthAdjust="spacing" textLength="93.9199" x="1103" y="124.4951">perfilEliminado()</text></g><!--link EliminarPerfilView to EstadoSalidaCancelada--><g class="link" data-entity-1="EliminarPerfilView" data-entity-2="EstadoSalidaCancelada" data-source-line="29" data-uid="lnk24" id="link_EliminarPerfilView_EstadoSalidaCancelada"><path d="M982.55,72.78 C1103.54,92.37 1354.7872,133.0507 1502.8372,157.0307" fill="none" id="EliminarPerfilView-to-EstadoSalidaCancelada" style="stroke:#181818;stroke-width:1;stroke-dasharray:7,7;"/><polygon fill="#181818" points="1508.76,157.99,1500.5153,152.6025,1503.8243,157.1906,1499.2362,160.4995,1508.76,157.99" style="stroke:#181818;stroke-width:1;"/><text fill="#000000" font-family="sans-serif" font-size="13" lengthAdjust="spacing" textLength="135.8462" x="1311" y="124.4951">eliminacionCancelada()</text></g><!--link EliminarPerfilView to AbrirSolicitudesEliminacionPerfil--><g class="link" data-entity-1="EliminarPerfilView" data-entity-2="AbrirSolicitudesEliminacionPerfil" data-source-line="30" data-uid="lnk25" id="link_EliminarPerfilView_AbrirSolicitudesEliminacionPerfil"><path d="M982.63,67.93 C1126.84,80.78 1455,110 1455,110 C1455,110 1671.6983,137.6599 1824.7783,157.2099" fill="none" id="EliminarPerfilView-to-AbrirSolicitudesEliminacionPerfil" style="stroke:#181818;stroke-width:1;stroke-dasharray:7,7;"/><polygon fill="#181818" points="1830.73,157.97,1822.3092,152.8621,1825.7703,157.3366,1821.2958,160.7976,1830.73,157.97" style="stroke:#181818;stroke-width:1;"/><text fill="#000000" font-family="sans-serif" font-size="13" lengthAdjust="spacing" textLength="193.6226" x="1594" y="124.4951">abrirSolicitudesEliminacionPerfil()</text></g><!--SRC=[hLFBRi8m4BpdArRq0bBXW0fgSq0AmKYHA212UqMRs4KM9euSqnPL_VSwF588WKHLSyjwPkoPtKrMF8fHuHe4ZvZUnWnYARRfZsKf5cgCbeB1dJiWVQS3DTkVZ3pNcxyC5cJaFNjZn_KcuyMKp8RUQE7qFJAREpN014YYaKeIQOKKhHZ35IuPCC7NF48rPUgDYnHNEo_L6pNuii1y9xTtsqza-0Ja3FdAsKSU67G2sds4FS2Lvd8f15DvsB3jk0_a09knM2PSIxMz2Rjow4l1GwutzF2uaCkeekvrglLT4ZxnRyJld-Jle-0KoQTvHuB_qT2ze8jHo4JQs299ruIEWLIeZIDm0iLLvfKb5svtwgKeopgRA6YgPgzW8cp8pvCXNg2WIGqxFoONN4wp5zq3f_jger2lKEvz5vOwyLB_Wqgu3_jCfc7bSJjobMcqGGQQHKnDfVBegSShegK2HqSLsSUGovZLpAnHXQXcBDameR78pY_Qo1wtkOfu2h-nf0KDRBLwHOjdGxp371XKrXjLsDcMPPcbjsVLwoAbosG3ba6C-Wy0]--></g></svg>