<svg xmlns="http://www.w3.org/2000/svg" xmlns:xlink="http://www.w3.org/1999/xlink" contentStyleType="text/css" data-diagram-type="DESCRIPTION" height="463px" preserveAspectRatio="none" style="width:2594px;height:463px;background:#FFFFFF;" version="1.1" viewBox="0 0 2594 463" width="2594px" zoomAndPan="magnify"><?plantuml 1.2026.5?><defs/><g><!--cluster eliminarPerfil--><g class="cluster" data-qualified-name="eliminarPerfil" data-source-line="4" id="ent0002"><path d="M347.5,6 L446.5273,6 A3.75,3.75 0 0 1 449.0273,8.5 L456.0273,29.6094 L1508.5,29.6094 A2.5,2.5 0 0 1 1511,32.1094 L1511,445.5 A2.5,2.5 0 0 1 1508.5,448 L347.5,448 A2.5,2.5 0 0 1 345,445.5 L345,8.5 A2.5,2.5 0 0 1 347.5,6" fill="none" style="stroke:#000000;stroke-width:1.5;"/><line style="stroke:#000000;stroke-width:1.5;" x1="345" x2="456.0273" y1="29.6094" y2="29.6094"/><text fill="#000000" font-family="sans-serif" font-size="14" font-weight="700" lengthAdjust="spacing" textLength="98.0273" x="349" y="22.5332">eliminarPerfil()</text></g><!--entity EliminarPerfilView--><g class="entity" data-qualified-name="eliminarPerfil.EliminarPerfilView" data-source-line="5" id="ent0003"><rect fill="#629EF9" height="37.6094" rx="2.5" ry="2.5" style="stroke:#181818;stroke-width:0.5;" width="132.8066" x="1077.5" y="42"/><text fill="#000000" font-family="sans-serif" font-size="14" lengthAdjust="spacing" textLength="112.8066" x="1087.5" y="66.5332">EliminarPerfilView</text></g><!--entity PerfilController--><g class="entity" data-qualified-name="eliminarPerfil.PerfilController" data-source-line="6" id="ent0004"><rect fill="#B5BD68" height="37.6094" rx="2.5" ry="2.5" style="stroke:#181818;stroke-width:0.5;" width="112.5859" x="907.5" y="158"/><text fill="#000000" font-family="sans-serif" font-size="14" lengthAdjust="spacing" textLength="92.5859" x="917.5" y="182.5332">PerfilController</text></g><!--entity PerfilRepository--><g class="entity" data-qualified-name="eliminarPerfil.PerfilRepository" data-source-line="7" id="ent0005"><rect fill="#F2AC4E" height="37.6094" rx="2.5" ry="2.5" style="stroke:#181818;stroke-width:0.5;" width="118.8135" x="825.5" y="284.5"/><text fill="#000000" font-family="sans-serif" font-size="14" lengthAdjust="spacing" textLength="98.8135" x="835.5" y="309.0332">PerfilRepository</text></g><!--entity Perfil--><g class="entity" data-qualified-name="eliminarPerfil.Perfil" data-source-line="8" id="ent0006"><rect fill="#F2AC4E" height="37.6094" rx="2.5" ry="2.5" style="stroke:#181818;stroke-width:0.5;" width="51.8965" x="859" y="394"/><text fill="#000000" font-family="sans-serif" font-size="14" lengthAdjust="spacing" textLength="31.8965" x="869" y="418.5332">Perfil</text></g><!--entity SolicitudEliminacionPerfilRepository--><g class="entity" data-qualified-name="eliminarPerfil.SolicitudEliminacionPerfilRepository" data-source-line="9" id="ent0007"><rect fill="#F2AC4E" height="37.6094" rx="2.5" ry="2.5" style="stroke:#181818;stroke-width:0.5;" width="243.3164" x="1119.5" y="284.5"/><text fill="#000000" font-family="sans-serif" font-size="14" lengthAdjust="spacing" textLength="223.3164" x="1129.5" y="309.0332">SolicitudEliminacionPerfilRepository</text></g><!--entity SolicitudEliminacionPerfil--><g class="entity" data-qualified-name="eliminarPerfil.SolicitudEliminacionPerfil" data-source-line="10" id="ent0008"><rect fill="#F2AC4E" height="37.6094" rx="2.5" ry="2.5" style="stroke:#181818;stroke-width:0.5;" width="176.3994" x="1153" y="394"/><text fill="#000000" font-family="sans-serif" font-size="14" lengthAdjust="spacing" textLength="156.3994" x="1163" y="418.5332">SolicitudEliminacionPerfil</text></g><!--entity EstadoEntrada--><g class="entity" data-qualified-name="EstadoEntrada" data-source-line="3" id="ent0001"><rect fill="#CDEBA5" height="37.6094" rx="2.5" ry="2.5" style="stroke:#181818;stroke-width:0.5;" width="321.8545" x="7" y="42"/><text fill="#000000" font-family="sans-serif" font-size="14" lengthAdjust="spacing" textLength="301.8545" x="17" y="66.5332">:SOLICITUD_ELIMINACION_PERFIL_ABIERTA</text></g><!--entity EstadoSalidaExitosa--><g class="entity" data-qualified-name="EstadoSalidaExitosa" data-source-line="13" id="ent0009"><rect fill="#CDEBA5" height="37.6094" rx="2.5" ry="2.5" style="stroke:#181818;stroke-width:0.5;" width="349.8682" x="1527" y="158"/><text fill="#000000" font-family="sans-serif" font-size="14" lengthAdjust="spacing" textLength="329.8682" x="1537" y="182.5332">:SOLICITUDES_ELIMINACION_PERFIL_ABIERTAS</text></g><!--entity EstadoSalidaCancelada--><g class="entity" data-qualified-name="EstadoSalidaCancelada" data-source-line="14" id="ent0010"><rect fill="#CDEBA5" height="37.6094" rx="2.5" ry="2.5" style="stroke:#181818;stroke-width:0.5;" width="321.8545" x="1912" y="158"/><text fill="#000000" font-family="sans-serif" font-size="14" lengthAdjust="spacing" textLength="301.8545" x="1922" y="182.5332">:SOLICITUD_ELIMINACION_PERFIL_ABIERTA</text></g><!--entity AbrirSolicitudesEliminacionPerfil--><g class="entity" data-qualified-name="AbrirSolicitudesEliminacionPerfil" data-source-line="15" id="ent0011"><rect fill="#CDEBA5" height="37.6094" rx="2.5" ry="2.5" style="stroke:#181818;stroke-width:0.5;" width="311.0195" x="2269.5" y="158"/><text fill="#000000" font-family="sans-serif" font-size="14" lengthAdjust="spacing" textLength="291.0195" x="2279.5" y="182.5332">:Collaboration AbrirSolicitudesEliminacionPerfil</text></g><g class="entity" data-qualified-name="GMN27" data-source-line="35" id="ent0028"><path d="M1527,274 L1527,333.0547 L1695.4243,333.0547 L1695.4243,284 L1685.4243,274 L1527,274" fill="#FEFFDD" style="stroke:#181818;stroke-width:0.5;"/><path d="M1685.4243,274 L1685.4243,284 L1695.4243,284 L1685.4243,274" fill="#FEFFDD" style="stroke:#181818;stroke-width:1;"/><text fill="#000000" font-family="sans-serif" font-size="13" lengthAdjust="spacing" textLength="147.4243" x="1533" y="292.4951">La baja revoca el acceso,</text><text fill="#000000" font-family="sans-serif" font-size="13" lengthAdjust="spacing" textLength="138.0107" x="1533" y="308.8467">pero conserva el perfil y</text><text fill="#000000" font-family="sans-serif" font-size="13" lengthAdjust="spacing" textLength="145.228" x="1533" y="325.1982">sus relaciones historicas.</text></g><!--link EstadoEntrada to EliminarPerfilView--><g class="link" data-entity-1="ent0001" data-entity-2="ent0003" data-link-type="dependency" data-source-line="17" id="lnk12"><path d="M329.17,61 C546.82,61 920.01,61 1072.47,61" fill="none" id="EstadoEntrada-to-EliminarPerfilView" style="stroke:#181818;stroke-width:1;"/><polygon fill="#181818" points="1077.47,61,1068.47,57,1072.47,61,1068.47,65,1077.47,61" style="stroke:#181818;stroke-width:1;stroke-linejoin:miter;stroke-miterlimit:10;"/><text fill="#000000" font-family="sans-serif" font-size="13" lengthAdjust="spacing" textLength="83.7891" x="661.75" y="54.4951">eliminarPerfil()</text></g><!--link EliminarPerfilView to PerfilController--><g class="link" data-entity-1="ent0003" data-entity-2="ent0004" data-link-type="dependency" data-source-line="19" id="lnk13"><path d="M1077.35,66.26 C893.56,78.01 393,110 393,110 C393,110 393,128 393,128 C393,128 758.1976,158.7014 902.4476,170.8214" fill="none" id="EliminarPerfilView-to-PerfilController" style="stroke:#181818;stroke-width:1;"/><polygon fill="#181818" points="907.43,171.24,898.7965,166.5005,902.4476,170.8214,898.1267,174.4724,907.43,171.24" style="stroke:#181818;stroke-width:1;stroke-linejoin:miter;stroke-miterlimit:10;"/><text fill="#000000" font-family="sans-serif" font-size="13" lengthAdjust="spacing" textLength="235.5234" x="394" y="124.4951">solicitarConfirmacion(idSolicitud, idPerfil)</text></g><!--link PerfilController to EliminarPerfilView--><g class="link" data-entity-1="ent0004" data-entity-2="ent0003" data-link-type="dependency" data-source-line="20" id="lnk14"><path d="M1020.62,168.23 C1119.68,154.65 1314,128 1314,128 C1314,128 1314,110 1314,110 C1314,110 1260.8318,94.9888 1212.6018,81.3688" fill="none" id="PerfilController-to-EliminarPerfilView" style="stroke:#181818;stroke-width:1;"/><polygon fill="#181818" points="1207.79,80.01,1215.3642,86.3054,1212.6018,81.3688,1217.5383,78.6065,1207.79,80.01" style="stroke:#181818;stroke-width:1;stroke-linejoin:miter;stroke-miterlimit:10;"/><text fill="#000000" font-family="sans-serif" font-size="13" lengthAdjust="spacing" textLength="140.1626" x="1315" y="124.4951">presentarConfirmacion()</text></g><!--link EliminarPerfilView to PerfilController--><g class="link" data-entity-1="ent0003" data-entity-2="ent0004" data-link-type="dependency" data-source-line="21" id="lnk15"><path d="M1077.34,68.75 C946.79,81.97 670,110 670,110 C670,110 670,128 670,128 C670,128 816.9454,151.9942 902.3754,165.9442" fill="none" id="EliminarPerfilView-to-PerfilController-1" style="stroke:#181818;stroke-width:1;"/><polygon fill="#181818" points="907.31,166.75,899.0723,161.3519,902.3754,165.9442,897.783,169.2473,907.31,166.75" style="stroke:#181818;stroke-width:1;stroke-linejoin:miter;stroke-miterlimit:10;"/><text fill="#000000" font-family="sans-serif" font-size="13" lengthAdjust="spacing" textLength="249.9771" x="671" y="124.4951">confirmarDesactivacion(idSolicitud, idPerfil)</text></g><!--link EliminarPerfilView to PerfilController--><g class="link" data-entity-1="ent0003" data-entity-2="ent0004" data-link-type="dependency" data-source-line="22" id="lnk16"><path d="M1077.42,79.46 C1025.09,93.19 961,110 961,110 C961,110 961,128 961,128 C961,128 961.7079,139.2698 962.5579,152.8598" fill="none" id="EliminarPerfilView-to-PerfilController-2" style="stroke:#181818;stroke-width:1;"/><polygon fill="#181818" points="962.87,157.85,966.3004,148.6179,962.5579,152.8598,958.316,149.1172,962.87,157.85" style="stroke:#181818;stroke-width:1;stroke-linejoin:miter;stroke-miterlimit:10;"/><text fill="#000000" font-family="sans-serif" font-size="13" lengthAdjust="spacing" textLength="138.7217" x="962" y="124.4951">cancelarDesactivacion()</text></g><!--link EliminarPerfilView to PerfilController--><g class="link" data-entity-1="ent0003" data-entity-2="ent0004" data-link-type="dependency" data-source-line="23" id="lnk17"><path d="M1133.34,80.03 C1121.8,99.58 1105,128 1105,128 C1105,128 1061.6433,142.7587 1021.6333,156.3787" fill="none" id="EliminarPerfilView-to-PerfilController-3" style="stroke:#181818;stroke-width:1;"/><polygon fill="#181818" points="1016.9,157.99,1026.7089,158.8763,1021.6333,156.3787,1024.1309,151.3031,1016.9,157.99" style="stroke:#181818;stroke-width:1;stroke-linejoin:miter;stroke-miterlimit:10;"/><text fill="#000000" font-family="sans-serif" font-size="13" lengthAdjust="spacing" textLength="167.6162" x="1116" y="124.4951">validarDesactivacion(idPerfil)</text></g><!--link PerfilController to SolicitudEliminacionPerfilRepository--><g class="link" data-entity-1="ent0004" data-entity-2="ent0007" data-link-type="dependency" data-source-line="24" id="lnk18"><path d="M1018.78,196.01 C1060.21,209.63 1110,226 1110,226 C1110,226 1166.9024,259.2284 1205.6324,281.8484" fill="none" id="PerfilController-to-SolicitudEliminacionPerfilRepository" style="stroke:#181818;stroke-width:1;"/><polygon fill="#181818" points="1209.95,284.37,1204.1957,276.377,1205.6324,281.8484,1200.1611,283.2851,1209.95,284.37" style="stroke:#181818;stroke-width:1;stroke-linejoin:miter;stroke-miterlimit:10;"/><text fill="#000000" font-family="sans-serif" font-size="13" lengthAdjust="spacing" textLength="143.0762" x="1139" y="240.4951">obtenerPorId(idSolicitud)</text></g><!--link PerfilController to SolicitudEliminacionPerfilRepository--><g class="link" data-entity-1="ent0004" data-entity-2="ent0007" data-link-type="dependency" data-source-line="27" id="lnk21"><path d="M1020.59,186.31 C1114.18,200.04 1291,226 1291,226 C1291,226 1291,244 1291,244 C1291,244 1274.4679,263.3386 1259.7979,280.5086" fill="none" id="PerfilController-to-SolicitudEliminacionPerfilRepository-1" style="stroke:#181818;stroke-width:1;"/><polygon fill="#181818" points="1256.55,284.31,1265.4374,280.0658,1259.7979,280.5086,1259.3551,274.8691,1256.55,284.31" style="stroke:#181818;stroke-width:1;stroke-linejoin:miter;stroke-miterlimit:10;"/><text fill="#000000" font-family="sans-serif" font-size="13" lengthAdjust="spacing" textLength="159.6689" x="1292" y="240.4951">marcarResuelta(idSolicitud)</text></g><!--link PerfilController to PerfilRepository--><g class="link" data-entity-1="ent0004" data-entity-2="ent0005" data-link-type="dependency" data-source-line="25" id="lnk19"><path d="M907.33,189.01 C834.41,203.18 717,226 717,226 C717,226 717,244 717,244 C717,244 779.1381,265.6356 828.4981,282.8256" fill="none" id="PerfilController-to-PerfilRepository" style="stroke:#181818;stroke-width:1;"/><polygon fill="#181818" points="833.22,284.47,826.0362,277.7326,828.4981,282.8256,823.4051,285.2875,833.22,284.47" style="stroke:#181818;stroke-width:1;stroke-linejoin:miter;stroke-miterlimit:10;"/><text fill="#000000" font-family="sans-serif" font-size="13" lengthAdjust="spacing" textLength="123.5571" x="718" y="240.4951">obtenerPorId(idPerfil)</text></g><!--link PerfilController to PerfilRepository--><g class="link" data-entity-1="ent0004" data-entity-2="ent0005" data-link-type="dependency" data-source-line="26" id="lnk20"><path d="M933,196.15 C909.78,209.74 882,226 882,226 C882,226 882,244 882,244 C882,244 882.9341,262.1466 883.8141,279.3166" fill="none" id="PerfilController-to-PerfilRepository-1" style="stroke:#181818;stroke-width:1;"/><polygon fill="#181818" points="884.07,284.31,887.6041,275.1171,883.8141,279.3166,879.6146,275.5265,884.07,284.31" style="stroke:#181818;stroke-width:1;stroke-linejoin:miter;stroke-miterlimit:10;"/><text fill="#000000" font-family="sans-serif" font-size="13" lengthAdjust="spacing" textLength="222.5488" x="883" y="240.4951">desactivar(idPerfil, fecha, coordinador)</text></g><!--link PerfilRepository to Perfil--><g class="link" data-entity-1="ent0005" data-entity-2="ent0006" data-link-type="association" data-source-line="28" id="lnk22"><path d="M885,322.74 C885,342.5 885,373.87 885,393.67" fill="none" id="PerfilRepository-Perfil" style="stroke:#181818;stroke-width:1;"/></g><!--link SolicitudEliminacionPerfilRepository to SolicitudEliminacionPerfil--><g class="link" data-entity-1="ent0007" data-entity-2="ent0008" data-link-type="association" data-source-line="29" id="lnk23"><path d="M1241,322.74 C1241,342.5 1241,373.87 1241,393.67" fill="none" id="SolicitudEliminacionPerfilRepository-SolicitudEliminacionPerfil" style="stroke:#181818;stroke-width:1;"/></g><!--link EliminarPerfilView to EstadoSalidaExitosa--><g class="link" data-entity-1="ent0003" data-entity-2="ent0009" data-link-type="dependency" data-source-line="30" id="lnk24"><path d="M1210.69,72 C1304.48,86.07 1464,110 1464,110 C1464,110 1561.682,137.0834 1632.152,156.6334" fill="none" id="EliminarPerfilView-to-EstadoSalidaExitosa" style="stroke:#181818;stroke-width:1;stroke-dasharray:7,7;"/><polygon fill="#181818" points="1636.97,157.97,1629.3669,151.7096,1632.152,156.6334,1627.2282,159.4185,1636.97,157.97" style="stroke:#181818;stroke-width:1;stroke-linejoin:miter;stroke-miterlimit:10;"/><text fill="#000000" font-family="sans-serif" font-size="13" lengthAdjust="spacing" textLength="108.3735" x="1528" y="124.4951">perfilDesactivado()</text></g><!--link EliminarPerfilView to EstadoSalidaCancelada--><g class="link" data-entity-1="ent0003" data-entity-2="ent0010" data-link-type="dependency" data-source-line="31" id="lnk25"><path d="M1210.53,68.37 C1346.81,81.43 1645,110 1645,110 C1645,110 1824.3785,137.6577 1951.1085,157.2077" fill="none" id="EliminarPerfilView-to-EstadoSalidaCancelada" style="stroke:#181818;stroke-width:1;stroke-dasharray:7,7;"/><polygon fill="#181818" points="1956.05,157.97,1947.7651,152.6446,1951.1085,157.2077,1946.5454,160.5511,1956.05,157.97" style="stroke:#181818;stroke-width:1;stroke-linejoin:miter;stroke-miterlimit:10;"/><text fill="#000000" font-family="sans-serif" font-size="13" lengthAdjust="spacing" textLength="149.5825" x="1760" y="124.4951">desactivacionCancelada()</text></g><!--link EliminarPerfilView to AbrirSolicitudesEliminacionPerfil--><g class="link" data-entity-1="ent0003" data-entity-2="ent0011" data-link-type="dependency" data-source-line="32" id="lnk26"><path d="M1210.66,66.13 C1398.4,77.78 1918,110 1918,110 C1918,110 2131.3919,137.7743 2281.5019,157.3243" fill="none" id="EliminarPerfilView-to-AbrirSolicitudesEliminacionPerfil" style="stroke:#181818;stroke-width:1;stroke-dasharray:7,7;"/><polygon fill="#181818" points="2286.46,157.97,2278.052,152.8412,2281.5019,157.3243,2277.0188,160.7742,2286.46,157.97" style="stroke:#181818;stroke-width:1;stroke-linejoin:miter;stroke-miterlimit:10;"/><text fill="#000000" font-family="sans-serif" font-size="13" lengthAdjust="spacing" textLength="193.6226" x="2054" y="124.4951">abrirSolicitudesEliminacionPerfil()</text></g><!--link PerfilRepository to GMN27--><g class="link" data-entity-1="ent0005" data-entity-2="ent0028" data-link-type="association" data-source-line="35" id="lnk29"><path d="M944.78,286.04 C1014.26,265.74 1119.5,235 1119.5,235 C1119.5,235 1493.5,235 1493.5,235 C1493.5,235 1528.39,255.34 1560.15,273.85" fill="none" id="PerfilRepository-GMN27" style="stroke:#181818;stroke-width:1;stroke-dasharray:7,7;"/></g><?plantuml-src hLHDZzem4BtxLupePP60mwgxwd9OAHk258dk8jZsYYRs0EwQEB8DBQhwt-iaR0eXV5HjRh7VU_FcmsFVP9gXmHKecPBRPWIPLjlyXp53t66wK0GVma7q5Dn1gpzz6SLX_FfbC8j6yUVuEGZZb-VPE9eCuz4iU8gZoMlG0hGGMOT2HwapA91boDzmGK1AhcIAPancBbMEQnqUtRHRy9E1__QYtzy-HCC7Y0wGNoLzhmEJkqJSVu8I46eVN2j5fWuRtWRXnsW7cr2chNJQRC_2JbnEjP9SkhNOcUDIfrVgdgQoNnUA7qtFb7-wL_yfAYam-k5zMFmV3Iq5GqmvgRonJPAXBpecsg3p6K6G66cgNCaUPLkeNqGnTZ1Hq3NTnuQ9w4DzdZpn20LTuTdrCUc3BGsWyOTpQLP5_1ifAcCTaAAajLcT3jqJZZ93bjAwQhlHLwCjlkEP0LdaJcxE-hfUjknYJVKl13R5C1ovEbkWQnvC7tJYA2KprYOM-tcU4BqeSDRICLkyPsGgRWVcn9VOyStGHdZZGfj_Ij6tawEPa5sJSjYKv1-qbtrVGzU8v_0pswMXlxtUOzF6yBDROAeE2zqy7tL-jI3sQfaxgCvForpS17t0Iv3yrQVQ4HYvM3hGy-DTFq98y1lwlRpH7FtM0EIShEumdxBEdvmbioakoXh0bjcrzNXL128BIsczbEHeUunI0Nb4zXi0?></g></svg>