<svg xmlns="http://www.w3.org/2000/svg" xmlns:xlink="http://www.w3.org/1999/xlink" contentStyleType="text/css" data-diagram-type="STATE" height="968px" preserveAspectRatio="none" style="width:768px;height:968px;background:#FFFFFF;" version="1.1" viewBox="0 0 768 968" width="768px" zoomAndPan="magnify"><?plantuml 1.2026.6?><defs/><g><g class="entity" data-qualified-name="in1" data-source-line="3" id="ent0001"><rect fill="#F1F1F1" height="50" rx="12.5" ry="12.5" style="stroke:#181818;stroke-width:0.5;" width="216.8477" x="158.5" y="7"/><line style="stroke:#181818;stroke-width:0.5;" x1="158.5" x2="375.3477" y1="34.6094" y2="34.6094"/><text fill="#000000" font-family="sans-serif" font-size="14" lengthAdjust="spacing" textLength="196.8477" x="168.5" y="26.5332">PANEL_PRINCIPAL_ABIERTO</text></g><g class="entity" data-qualified-name="in2" data-source-line="6" id="ent0002"><rect fill="#F1F1F1" height="50" rx="12.5" ry="12.5" style="stroke:#181818;stroke-width:0.5;" width="201.2549" x="410.5" y="7"/><line style="stroke:#181818;stroke-width:0.5;" x1="410.5" x2="611.7549" y1="34.6094" y2="34.6094"/><text fill="#000000" font-family="sans-serif" font-size="14" lengthAdjust="spacing" textLength="181.2549" x="420.5" y="26.5332">CONVOCATORIA_ABIERTA</text></g><g class="entity" data-qualified-name="abrirConvocatorias" data-source-line="9" id="ent0003"><path d="M37,118 L741,118 A12.5,12.5 0 0 1 753.5,130.5 L753.5,145.6094 L24.5,145.6094 L24.5,130.5 A12.5,12.5 0 0 1 37,118" fill="#F1F1F1"/><rect fill="none" height="689.6094" rx="12.5" ry="12.5" style="stroke:#181818;stroke-width:0.5;" width="729" x="24.5" y="118"/><line style="stroke:#181818;stroke-width:0.5;" x1="24.5" x2="753.5" y1="145.6094" y2="145.6094"/><text fill="#000000" font-family="sans-serif" font-size="14" lengthAdjust="spacing" textLength="126.8203" x="325.5898" y="137.5332">abrirConvocatorias()</text><g class="entity" data-qualified-name="abrirConvocatorias.CargandoListado" data-source-line="11" id="ent0004"><rect fill="#F1F1F1" height="50" rx="12.5" ry="12.5" style="stroke:#181818;stroke-width:0.5;" width="50" x="210.5" y="248.6094"/><line style="stroke:#181818;stroke-width:0.5;" x1="210.5" x2="260.5" y1="276.2188" y2="276.2188"/><text fill="#000000" font-family="sans-serif" font-size="14" lengthAdjust="spacing" textLength="3.8896" x="233.5552" y="268.1426">&#160;</text></g><g class="entity" data-qualified-name="abrirConvocatorias.MostrandoConvocatorias" data-source-line="12" id="ent0005"><rect fill="#F1F1F1" height="50" rx="12.5" ry="12.5" style="stroke:#181818;stroke-width:0.5;" width="50" x="36.5" y="616.6094"/><line style="stroke:#181818;stroke-width:0.5;" x1="36.5" x2="86.5" y1="644.2188" y2="644.2188"/><text fill="#000000" font-family="sans-serif" font-size="14" lengthAdjust="spacing" textLength="3.8896" x="59.5552" y="636.1426">&#160;</text></g><g class="start_entity" data-qualified-name="abrirConvocatorias..start.abrirConvocatorias" data-source-line="14" id="ent0008"><ellipse cx="235.5" cy="166.6094" fill="#222222" rx="10" ry="10" style="stroke:#222222;stroke-width:1;"/></g><g class="end_entity" data-qualified-name="abrirConvocatorias..end.abrirConvocatorias" data-source-line="39" id="ent0011"><ellipse cx="243.5" cy="783.6094" fill="none" rx="11" ry="11" style="stroke:#222222;stroke-width:1;"/><ellipse cx="243.5" cy="783.6094" fill="#222222" rx="6" ry="6" style="stroke:#222222;stroke-width:1;"/></g><!--link *start*abrirConvocatorias to CargandoListado--><g class="link" data-entity-1="ent0008" data-entity-2="ent0004" data-link-type="dependency" data-source-line="14" id="lnk9"><path d="M235.5,176.9294 C235.5,192.7894 235.5,220.5194 235.5,243.2494" fill="none" id="*start*abrirConvocatorias-to-CargandoListado" style="stroke:#008000;stroke-width:1;"/><polygon fill="#008000" points="235.5,248.2494,239.5,239.2494,235.5,243.2494,231.5,239.2494,235.5,248.2494" style="stroke:#008000;stroke-width:1;stroke-linejoin:miter;stroke-miterlimit:10;"/><path d="M240.5,199.6094 L240.5,225.6094 L495.5,225.6094 L495.5,209.6094 L485.5,199.6094 L240.5,199.6094" fill="#FEFFDD" style="stroke:#181818;stroke-width:0.5;"/><path d="M485.5,199.6094 L485.5,209.6094 L495.5,209.6094 L485.5,199.6094" fill="#FEFFDD" style="stroke:#181818;stroke-width:0.5;"/><text fill="#000000" font-family="sans-serif" font-size="13" font-weight="700" lengthAdjust="spacing" textLength="77.9937" x="246.5" y="218.1045">Coordinador</text><text fill="#000000" font-family="sans-serif" font-size="13" lengthAdjust="spacing" textLength="153.1753" x="328.1055" y="218.1045">solicita abrir convocatorias</text></g><!--link CargandoListado to MostrandoConvocatorias--><g class="link" data-entity-1="ent0004" data-entity-2="ent0005" data-link-type="dependency" data-source-line="19" id="lnk10"><path d="M210.19,280.4494 C160.19,291.9894 53.5,316.6094 53.5,316.6094 C53.5,316.6094 53.5,597.6094 53.5,597.6094 C53.5,597.6094 54.2867,601.8335 56.1167,611.6835" fill="none" id="CargandoListado-to-MostrandoConvocatorias" style="stroke:#008000;stroke-width:1;"/><polygon fill="#008000" points="57.03,616.5994,59.3188,607.0201,56.1167,611.6835,51.4533,608.4814,57.03,616.5994" style="stroke:#008000;stroke-width:1;stroke-linejoin:miter;stroke-miterlimit:10;"/><path d="M58.5,321.6094 L58.5,592.6094 L399.5,592.6094 L399.5,331.6094 L389.5,321.6094 L58.5,321.6094" fill="#FEFFDD" style="stroke:#181818;stroke-width:0.5;"/><path d="M389.5,321.6094 L389.5,331.6094 L399.5,331.6094 L389.5,321.6094" fill="#FEFFDD" style="stroke:#181818;stroke-width:0.5;"/><text fill="#000000" font-family="sans-serif" font-size="13" font-weight="700" lengthAdjust="spacing" textLength="49.8608" x="64.5" y="340.1045">Sistema</text><text fill="#000000" font-family="sans-serif" font-size="13" lengthAdjust="spacing" textLength="266.6904" x="117.9727" y="340.1045">presenta el bloque de b&#250;squeda y filtrado con:</text><text fill="#000000" font-family="sans-serif" font-size="13" lengthAdjust="spacing" textLength="41.4058" x="64.5" y="356.4561">&#8226; Texto</text><text fill="#000000" font-family="sans-serif" font-size="13" lengthAdjust="spacing" textLength="36.353" x="64.5" y="372.8076">&#8226; &#193;rea</text><text fill="#000000" font-family="sans-serif" font-size="13" lengthAdjust="spacing" textLength="49.3657" x="64.5" y="389.1592">&#8226; Estado</text><text fill="#000000" font-family="sans-serif" font-size="13" lengthAdjust="spacing" textLength="3.6118" x="64.5" y="405.5107">&#160;</text><text fill="#000000" font-family="sans-serif" font-size="13" lengthAdjust="spacing" textLength="242.0488" x="64.5" y="421.8623">y permite solicitar las siguientes acciones:</text><text fill="#000000" font-family="sans-serif" font-size="13" lengthAdjust="spacing" textLength="49.353" x="64.5" y="438.2139">&#8226; Buscar</text><text fill="#000000" font-family="sans-serif" font-size="13" lengthAdjust="spacing" textLength="86.1885" x="64.5" y="454.5654">&#8226; Limpiar filtros</text><text fill="#000000" font-family="sans-serif" font-size="13" lengthAdjust="spacing" textLength="3.6118" x="64.5" y="470.917">&#160;</text><text fill="#000000" font-family="sans-serif" font-size="13" font-weight="700" lengthAdjust="spacing" textLength="49.8608" x="64.5" y="487.2686">Sistema</text><text fill="#000000" font-family="sans-serif" font-size="13" lengthAdjust="spacing" textLength="235.5869" x="117.9727" y="487.2686">presenta el listado de convocatorias con:</text><text fill="#000000" font-family="sans-serif" font-size="13" lengthAdjust="spacing" textLength="21.8931" x="64.5" y="503.6201">&#8226; ID</text><text fill="#000000" font-family="sans-serif" font-size="13" lengthAdjust="spacing" textLength="41.4058" x="64.5" y="519.9717">&#8226; T&#237;tulo</text><text fill="#000000" font-family="sans-serif" font-size="13" lengthAdjust="spacing" textLength="36.353" x="64.5" y="536.3232">&#8226; &#193;rea</text><text fill="#000000" font-family="sans-serif" font-size="13" lengthAdjust="spacing" textLength="49.3657" x="64.5" y="552.6748">&#8226; Estado</text><text fill="#000000" font-family="sans-serif" font-size="13" lengthAdjust="spacing" textLength="99.2139" x="64.5" y="569.0264">&#8226; Fecha de cierre</text><text fill="#000000" font-family="sans-serif" font-size="13" lengthAdjust="spacing" textLength="120.1548" x="64.5" y="585.3779">&#8226; abrirConvocatoria()</text></g><!--link CargandoListado to *end*abrirConvocatorias--><g class="link" data-entity-1="ent0004" data-entity-2="ent0011" data-link-type="dependency" data-source-line="39" id="lnk12"><path d="M260.8,280.8994 C307.95,292.6094 404.5,316.6094 404.5,316.6094 C404.5,316.6094 404.5,754.6094 404.5,754.6094 C404.5,754.6094 295.336,773.5924 259.236,779.8724" fill="none" id="CargandoListado-to-*end*abrirConvocatorias" style="stroke:#FF0000;stroke-width:1;"/><polygon fill="#FF0000" points="254.31,780.7294,263.8624,783.1277,259.236,779.8724,262.4913,775.2461,254.31,780.7294" style="stroke:#FF0000;stroke-width:1;stroke-linejoin:miter;stroke-miterlimit:10;"/><path d="M409.5,620.6094 L409.5,662.6094 L729.5,662.6094 L729.5,630.6094 L719.5,620.6094 L409.5,620.6094" fill="#FEFFDD" style="stroke:#181818;stroke-width:0.5;"/><path d="M719.5,620.6094 L719.5,630.6094 L729.5,630.6094 L719.5,620.6094" fill="#FEFFDD" style="stroke:#181818;stroke-width:0.5;"/><text fill="#000000" font-family="sans-serif" font-size="13" font-weight="700" lengthAdjust="spacing" textLength="49.8608" x="415.5" y="639.1045">Sistema</text><text fill="#000000" font-family="sans-serif" font-size="13" lengthAdjust="spacing" textLength="246.4097" x="468.9727" y="639.1045">informa de un problema al cargar el listado</text><text fill="#000000" font-family="sans-serif" font-size="13" lengthAdjust="spacing" textLength="195.1206" x="415.5" y="655.4561">y mantiene la navegaci&#243;n anterior</text></g><!--link MostrandoConvocatorias to *end*abrirConvocatorias--><g class="link" data-entity-1="ent0005" data-entity-2="ent0011" data-link-type="dependency" data-source-line="45" id="lnk13"><path d="M67.29,666.6394 C75.23,699.5494 88.5,754.6094 88.5,754.6094 C88.5,754.6094 192.9097,773.47 227.9297,779.8" fill="none" id="MostrandoConvocatorias-to-*end*abrirConvocatorias" style="stroke:#008000;stroke-width:1;"/><polygon fill="#008000" points="232.85,780.6894,224.705,775.1523,227.9297,779.8,223.282,783.0247,232.85,780.6894" style="stroke:#008000;stroke-width:1;stroke-linejoin:miter;stroke-miterlimit:10;"/><path d="M93.5,690.6094 L93.5,749.6094 L399.5,749.6094 L399.5,700.6094 L389.5,690.6094 L93.5,690.6094" fill="#FEFFDD" style="stroke:#181818;stroke-width:0.5;"/><path d="M389.5,690.6094 L389.5,700.6094 L399.5,700.6094 L389.5,690.6094" fill="#FEFFDD" style="stroke:#181818;stroke-width:0.5;"/><text fill="#000000" font-family="sans-serif" font-size="13" font-weight="700" lengthAdjust="spacing" textLength="49.8608" x="99.5" y="709.1045">Sistema</text><text fill="#000000" font-family="sans-serif" font-size="13" lengthAdjust="spacing" textLength="231.937" x="152.9727" y="709.1045">permite solicitar las siguientes acciones:</text><text fill="#000000" font-family="sans-serif" font-size="13" lengthAdjust="spacing" textLength="113.6611" x="99.5" y="725.4561">&#8226; Abrir convocatoria</text><text fill="#000000" font-family="sans-serif" font-size="13" lengthAdjust="spacing" textLength="123.7856" x="99.5" y="741.8076">&#8226; Abrir panel principal</text></g></g><g class="entity" data-qualified-name="CONVOCATORIAS_ABIERTAS" data-source-line="53" id="ent0014"><rect fill="#F1F1F1" height="50" rx="12.5" ry="12.5" style="stroke:#181818;stroke-width:0.5;" width="219.9307" x="7" y="904"/><line style="stroke:#181818;stroke-width:0.5;" x1="7" x2="226.9307" y1="931.6094" y2="931.6094"/><text fill="#000000" font-family="sans-serif" font-size="14" lengthAdjust="spacing" textLength="199.9307" x="17" y="923.5332">CONVOCATORIAS_ABIERTAS</text></g><g class="entity" data-qualified-name="CONVOCATORIA_ABIERTA" data-source-line="58" id="ent0016"><rect fill="#F1F1F1" height="50" rx="12.5" ry="12.5" style="stroke:#181818;stroke-width:0.5;" width="201.2549" x="288.5" y="904"/><line style="stroke:#181818;stroke-width:0.5;" x1="288.5" x2="489.7549" y1="931.6094" y2="931.6094"/><text fill="#000000" font-family="sans-serif" font-size="14" lengthAdjust="spacing" textLength="181.2549" x="298.5" y="923.5332">CONVOCATORIA_ABIERTA</text></g><g class="entity" data-qualified-name="PANEL_PRINCIPAL_ABIERTO" data-source-line="63" id="ent0018"><rect fill="#F1F1F1" height="50" rx="12.5" ry="12.5" style="stroke:#181818;stroke-width:0.5;" width="216.8477" x="524.5" y="904"/><line style="stroke:#181818;stroke-width:0.5;" x1="524.5" x2="741.3477" y1="931.6094" y2="931.6094"/><text fill="#000000" font-family="sans-serif" font-size="14" lengthAdjust="spacing" textLength="196.8477" x="534.5" y="923.5332">PANEL_PRINCIPAL_ABIERTO</text></g><!--link in1 to abrirConvocatorias--><g class="link" data-entity-1="ent0001" data-entity-2="ent0003" data-link-type="dependency" data-source-line="4" id="lnk6"><path d="M273.91,57.29 C278.14,72.18 282.7234,88.2704 289.6934,112.8004" fill="none" id="in1-to-abrirConvocatorias" style="stroke:#008000;stroke-width:1;"/><polygon fill="#008000" points="291.06,117.61,292.4478,107.8594,289.6934,112.8004,284.7524,110.046,291.06,117.61" style="stroke:#008000;stroke-width:1;stroke-linejoin:miter;stroke-miterlimit:10;"/></g><!--link in2 to abrirConvocatorias--><g class="link" data-entity-1="ent0002" data-entity-2="ent0003" data-link-type="dependency" data-source-line="7" id="lnk7"><path d="M504.09,57.29 C499.86,72.18 495.2766,88.2704 488.3066,112.8004" fill="none" id="in2-to-abrirConvocatorias" style="stroke:#008000;stroke-width:1;"/><polygon fill="#008000" points="486.94,117.61,493.2476,110.046,488.3066,112.8004,485.5522,107.8594,486.94,117.61" style="stroke:#008000;stroke-width:1;stroke-linejoin:miter;stroke-miterlimit:10;"/></g><!--link abrirConvocatorias to CONVOCATORIAS_ABIERTAS--><g class="link" data-entity-1="ent0003" data-entity-2="ent0014" data-link-type="dependency" data-source-line="53" id="lnk15"><path d="M168.23,808.03 C156.25,826.7 149,838 149,838 C149,838 136.7236,872.5084 127.2536,899.1684" fill="none" id="abrirConvocatorias-to-CONVOCATORIAS_ABIERTAS" style="stroke:#008000;stroke-width:1;"/><polygon fill="#008000" points="125.58,903.88,132.3618,896.738,127.2536,899.1684,124.8232,894.0603,125.58,903.88" style="stroke:#008000;stroke-width:1;stroke-linejoin:miter;stroke-miterlimit:10;"/><path d="M154,843 L154,869 L376,869 L376,853 L366,843 L154,843" fill="#FEFFDD" style="stroke:#181818;stroke-width:0.5;"/><path d="M366,843 L366,853 L376,853 L366,843" fill="#FEFFDD" style="stroke:#181818;stroke-width:0.5;"/><text fill="#000000" font-family="sans-serif" font-size="13" lengthAdjust="spacing" textLength="201.6143" x="160" y="861.4951">Listado de convocatorias mostrado</text></g><!--link abrirConvocatorias to CONVOCATORIA_ABIERTA--><g class="link" data-entity-1="ent0003" data-entity-2="ent0016" data-link-type="dependency" data-source-line="58" id="lnk17"><path d="M389,808.21 C389,848.07 389,877.11 389,898.6" fill="none" id="abrirConvocatorias-to-CONVOCATORIA_ABIERTA" style="stroke:#008000;stroke-width:1;"/><polygon fill="#008000" points="389,903.6,393,894.6,389,898.6,385,894.6,389,903.6" style="stroke:#008000;stroke-width:1;stroke-linejoin:miter;stroke-miterlimit:10;"/><path d="M394,843 L394,869 L526,869 L526,853 L516,843 L394,843" fill="#FEFFDD" style="stroke:#181818;stroke-width:0.5;"/><path d="M516,843 L516,853 L526,853 L516,843" fill="#FEFFDD" style="stroke:#181818;stroke-width:0.5;"/><text fill="#000000" font-family="sans-serif" font-size="13" lengthAdjust="spacing" textLength="111.2617" x="400" y="861.4951">abrirConvocatoria()</text></g><!--link abrirConvocatorias to PANEL_PRINCIPAL_ABIERTO--><g class="link" data-entity-1="ent0003" data-entity-2="ent0018" data-link-type="dependency" data-source-line="63" id="lnk19"><path d="M570.01,808.21 C590.97,848.07 606.543,877.6845 617.843,899.1745" fill="none" id="abrirConvocatorias-to-PANEL_PRINCIPAL_ABIERTO" style="stroke:#008000;stroke-width:1;"/><polygon fill="#008000" points="620.17,903.6,619.5217,893.7725,617.843,899.1745,612.441,897.4958,620.17,903.6" style="stroke:#008000;stroke-width:1;stroke-linejoin:miter;stroke-miterlimit:10;"/><path d="M607,843 L607,869 L745,869 L745,853 L735,843 L607,843" fill="#FEFFDD" style="stroke:#181818;stroke-width:0.5;"/><path d="M735,843 L735,853 L745,853 L735,843" fill="#FEFFDD" style="stroke:#181818;stroke-width:0.5;"/><text fill="#000000" font-family="sans-serif" font-size="13" lengthAdjust="spacing" textLength="117.7681" x="613" y="861.4951">abrirPanelPrincipal()</text></g><?plantuml-src dLHDRzD04BtxLupIIujKLVI8gaYk2L8aaqH9nAMgghKz3QEkTysiKn4X9FWht3bnuvf_mYzXlFbque31ldXsPzzxysQyxebCeLZbeCbWkIWG2giNLH04hbGb0fcNe1nqHk6W5p-Cnlr1r1-5yKDus--DfyDEK2LStftD6D7SNtP19KmSMVDiKrLQ9kLsKDSUAXeEtWsZS3eSzyCrJbZXNBV4ETxniCVBvnST-1G48C_gP4TUIOqKpvJ9R4oodDdZXBVMbLnb7F1NYNSlxciwcy2C5InhAbUV_C9DqesivOoCfF3DLT85PpMbLAfLEP3McAepQ38FjA8zeAb9E27tb9A9G62kl8g2qQ4H5QWXqVR37253I9O_dNnc2XRmI5h0XL4Kll8GlxvyWob-BEqsMdvbLDkejpB2nmiea7CI4Pjw6RGux6Ws9o56wLsQaZNeTk2tSvSgteOnvGN9EQ_4hjlmXphqsY8ffEPglOB-wrqno-_bNF-bd4tu1jFtocCJCkDs_MZypY_QjP4ngveeSzMgOsGUBUTUmTn8tJRHiWLAGrfXyvu3wmxaofJYDOhnODGppbHAony6P1cPB3V8R9wesj2rrViV_G-F_eY3hK8PgR9WCYaLIjSB-1m43JT4xPVTku0ccnje4jGgYKyDKUwj4NDtZlq3tOQjJjOqEwtXJzpC3GoZohRHnhLzZjy0?></g></svg>