<svg xmlns="http://www.w3.org/2000/svg" xmlns:xlink="http://www.w3.org/1999/xlink" contentStyleType="text/css" height="1189px" preserveAspectRatio="none" style="width:2417px;height:1189px;background:#FFFFFF;" version="1.1" viewBox="0 0 2417 1189" width="2417px" zoomAndPan="magnify"><title>Diagrama de secuencia - Abrir investigador como Investigador</title><defs/><g><text fill="#000000" font-family="sans-serif" font-size="14" font-weight="bold" lengthAdjust="spacing" textLength="417.0127" x="1001.3201" y="29.5332">Diagrama de secuencia - Abrir investigador como Investigador</text><rect fill="#FFFFFF" height="944.0547" style="stroke:#181818;stroke-width:1;" width="10" x="313.3096" y="153.5703"/><rect fill="#FFFFFF" height="614.8672" style="stroke:#181818;stroke-width:1;" width="10" x="655.5981" y="200.2734"/><rect fill="#FFFFFF" height="55.7031" style="stroke:#181818;stroke-width:1;" width="10" x="894.1787" y="230.625"/><rect fill="#FFFFFF" height="468.1094" style="stroke:#181818;stroke-width:1;" width="10" x="1024.3989" y="316.6797"/><rect fill="none" height="845" style="stroke:#000000;stroke-width:1.5;" width="2400.6528" x="10" y="245.625"/><rect fill="none" height="277" style="stroke:#000000;stroke-width:1.5;" width="1449.7295" x="950.9233" y="453.0859"/><rect fill="none" height="232.6484" style="stroke:#000000;stroke-width:1.5;" width="1087.8745" x="20" y="744.0859"/><line style="stroke:#181818;stroke-width:0.5;stroke-dasharray:5.0,5.0;" x1="71" x2="71" y1="121.2188" y2="1107.625"/><line style="stroke:#181818;stroke-width:0.5;stroke-dasharray:5.0,5.0;" x1="318.0376" x2="318.0376" y1="121.2188" y2="1107.625"/><line style="stroke:#181818;stroke-width:0.5;stroke-dasharray:5.0,5.0;" x1="660.1191" x2="660.1191" y1="121.2188" y2="1107.625"/><line style="stroke:#181818;stroke-width:0.5;stroke-dasharray:5.0,5.0;" x1="898.4341" x2="898.4341" y1="121.2188" y2="1107.625"/><line style="stroke:#181818;stroke-width:0.5;stroke-dasharray:5.0,5.0;" x1="1028.9233" x2="1028.9233" y1="121.2188" y2="1107.625"/><line style="stroke:#181818;stroke-width:0.5;stroke-dasharray:5.0,5.0;" x1="1171.8745" x2="1171.8745" y1="121.2188" y2="1107.625"/><line style="stroke:#181818;stroke-width:0.5;stroke-dasharray:5.0,5.0;" x1="1454.9814" x2="1454.9814" y1="121.2188" y2="1107.625"/><line style="stroke:#181818;stroke-width:0.5;stroke-dasharray:5.0,5.0;" x1="2340.8188" x2="2340.8188" y1="121.2188" y2="1107.625"/><text fill="#000000" font-family="sans-serif" font-size="14" lengthAdjust="spacing" textLength="76.2686" x="30" y="118.1426">Investigador</text><ellipse cx="71.1343" cy="52.1094" fill="#E2E2F0" rx="8" ry="8" style="stroke:#181818;stroke-width:0.5;"/><path d="M71.1343,60.1094 L71.1343,87.1094 M58.1343,68.1094 L84.1343,68.1094 M71.1343,87.1094 L58.1343,102.1094 M71.1343,87.1094 L84.1343,102.1094 " fill="none" style="stroke:#181818;stroke-width:0.5;"/><text fill="#000000" font-family="sans-serif" font-size="14" lengthAdjust="spacing" textLength="76.2686" x="30" y="1121.1582">Investigador</text><ellipse cx="71.1343" cy="1132.7344" fill="#E2E2F0" rx="8" ry="8" style="stroke:#181818;stroke-width:0.5;"/><path d="M71.1343,1140.7344 L71.1343,1167.7344 M58.1343,1148.7344 L84.1343,1148.7344 M71.1343,1167.7344 L58.1343,1182.7344 M71.1343,1167.7344 L84.1343,1182.7344 " fill="none" style="stroke:#181818;stroke-width:0.5;"/><rect fill="#E2E2F0" height="49.2188" rx="2.5" ry="2.5" style="stroke:#181818;stroke-width:0.5;" width="166.5439" x="235.0376" y="71"/><text fill="#000000" font-family="sans-serif" font-size="14" lengthAdjust="spacing" textLength="152.5439" x="242.0376" y="92.5332">InvestigadorDetallePage</text><text fill="#000000" font-family="sans-serif" font-size="14" lengthAdjust="spacing" textLength="45.8965" x="295.3613" y="110.1426">(React)</text><rect fill="#E2E2F0" height="49.2188" rx="2.5" ry="2.5" style="stroke:#181818;stroke-width:0.5;" width="166.5439" x="235.0376" y="1106.625"/><text fill="#000000" font-family="sans-serif" font-size="14" lengthAdjust="spacing" textLength="152.5439" x="242.0376" y="1128.1582">InvestigadorDetallePage</text><text fill="#000000" font-family="sans-serif" font-size="14" lengthAdjust="spacing" textLength="45.8965" x="295.3613" y="1145.7676">(React)</text><rect fill="#E2E2F0" height="49.2188" rx="2.5" ry="2.5" style="stroke:#181818;stroke-width:0.5;" width="150.958" x="585.1191" y="71"/><text fill="#000000" font-family="sans-serif" font-size="14" lengthAdjust="spacing" textLength="136.958" x="592.1191" y="92.5332">InvestigadorController</text><text fill="#000000" font-family="sans-serif" font-size="14" lengthAdjust="spacing" textLength="82.4824" x="619.3569" y="110.1426">(Spring Boot)</text><rect fill="#E2E2F0" height="49.2188" rx="2.5" ry="2.5" style="stroke:#181818;stroke-width:0.5;" width="150.958" x="585.1191" y="1106.625"/><text fill="#000000" font-family="sans-serif" font-size="14" lengthAdjust="spacing" textLength="136.958" x="592.1191" y="1128.1582">InvestigadorController</text><text fill="#000000" font-family="sans-serif" font-size="14" lengthAdjust="spacing" textLength="82.4824" x="619.3569" y="1145.7676">(Spring Boot)</text><rect fill="#E2E2F0" height="31.6094" rx="2.5" ry="2.5" style="stroke:#181818;stroke-width:0.5;" width="103.4893" x="847.4341" y="88.6094"/><text fill="#000000" font-family="sans-serif" font-size="14" lengthAdjust="spacing" textLength="89.4893" x="854.4341" y="110.1426">SesionService</text><rect fill="#E2E2F0" height="31.6094" rx="2.5" ry="2.5" style="stroke:#181818;stroke-width:0.5;" width="103.4893" x="847.4341" y="1106.625"/><text fill="#000000" font-family="sans-serif" font-size="14" lengthAdjust="spacing" textLength="89.4893" x="854.4341" y="1128.1582">SesionService</text><rect fill="#E2E2F0" height="31.6094" rx="2.5" ry="2.5" style="stroke:#181818;stroke-width:0.5;" width="136.9512" x="960.9233" y="88.6094"/><text fill="#000000" font-family="sans-serif" font-size="14" lengthAdjust="spacing" textLength="122.9512" x="967.9233" y="110.1426">InvestigadorService</text><rect fill="#E2E2F0" height="31.6094" rx="2.5" ry="2.5" style="stroke:#181818;stroke-width:0.5;" width="136.9512" x="960.9233" y="1106.625"/><text fill="#000000" font-family="sans-serif" font-size="14" lengthAdjust="spacing" textLength="122.9512" x="967.9233" y="1128.1582">InvestigadorService</text><rect fill="#E2E2F0" height="31.6094" rx="2.5" ry="2.5" style="stroke:#181818;stroke-width:0.5;" width="129.1582" x="1107.8745" y="88.6094"/><text fill="#000000" font-family="sans-serif" font-size="14" lengthAdjust="spacing" textLength="115.1582" x="1114.8745" y="110.1426">UsuarioRepository</text><rect fill="#E2E2F0" height="31.6094" rx="2.5" ry="2.5" style="stroke:#181818;stroke-width:0.5;" width="129.1582" x="1107.8745" y="1106.625"/><text fill="#000000" font-family="sans-serif" font-size="14" lengthAdjust="spacing" textLength="115.1582" x="1114.8745" y="1128.1582">UsuarioRepository</text><rect fill="#E2E2F0" height="31.6094" rx="2.5" ry="2.5" style="stroke:#181818;stroke-width:0.5;" width="136.165" x="1386.9814" y="88.6094"/><text fill="#000000" font-family="sans-serif" font-size="14" lengthAdjust="spacing" textLength="122.165" x="1393.9814" y="110.1426">ProyectoRepository</text><rect fill="#E2E2F0" height="31.6094" rx="2.5" ry="2.5" style="stroke:#181818;stroke-width:0.5;" width="136.165" x="1386.9814" y="1106.625"/><text fill="#000000" font-family="sans-serif" font-size="14" lengthAdjust="spacing" textLength="122.165" x="1393.9814" y="1128.1582">ProyectoRepository</text><text fill="#000000" font-family="sans-serif" font-size="14" lengthAdjust="spacing" textLength="91.834" x="2292.8188" y="118.1426">Base de Datos</text><path d="M2323.7358,67.6094 C2323.7358,57.6094 2341.7358,57.6094 2341.7358,57.6094 C2341.7358,57.6094 2359.7358,57.6094 2359.7358,67.6094 L2359.7358,93.6094 C2359.7358,103.6094 2341.7358,103.6094 2341.7358,103.6094 C2341.7358,103.6094 2323.7358,103.6094 2323.7358,93.6094 L2323.7358,67.6094 " fill="#E2E2F0" style="stroke:#181818;stroke-width:1.5;"/><path d="M2323.7358,67.6094 C2323.7358,77.6094 2341.7358,77.6094 2341.7358,77.6094 C2341.7358,77.6094 2359.7358,77.6094 2359.7358,67.6094 " fill="none" style="stroke:#181818;stroke-width:1.5;"/><text fill="#000000" font-family="sans-serif" font-size="14" lengthAdjust="spacing" textLength="91.834" x="2292.8188" y="1121.1582">Base de Datos</text><path d="M2323.7358,1134.2344 C2323.7358,1124.2344 2341.7358,1124.2344 2341.7358,1124.2344 C2341.7358,1124.2344 2359.7358,1124.2344 2359.7358,1134.2344 L2359.7358,1160.2344 C2359.7358,1170.2344 2341.7358,1170.2344 2341.7358,1170.2344 C2341.7358,1170.2344 2323.7358,1170.2344 2323.7358,1160.2344 L2323.7358,1134.2344 " fill="#E2E2F0" style="stroke:#181818;stroke-width:1.5;"/><path d="M2323.7358,1134.2344 C2323.7358,1144.2344 2341.7358,1144.2344 2341.7358,1144.2344 C2341.7358,1144.2344 2359.7358,1144.2344 2359.7358,1134.2344 " fill="none" style="stroke:#181818;stroke-width:1.5;"/><rect fill="#FFFFFF" height="944.0547" style="stroke:#181818;stroke-width:1;" width="10" x="313.3096" y="153.5703"/><rect fill="#FFFFFF" height="614.8672" style="stroke:#181818;stroke-width:1;" width="10" x="655.5981" y="200.2734"/><rect fill="#FFFFFF" height="55.7031" style="stroke:#181818;stroke-width:1;" width="10" x="894.1787" y="230.625"/><rect fill="#FFFFFF" height="468.1094" style="stroke:#181818;stroke-width:1;" width="10" x="1024.3989" y="316.6797"/><polygon fill="#181818" points="301.3096,149.5703,311.3096,153.5703,301.3096,157.5703,305.3096,153.5703" style="stroke:#181818;stroke-width:1;"/><line style="stroke:#181818;stroke-width:1;" x1="71.1343" x2="307.3096" y1="153.5703" y2="153.5703"/><text fill="#000000" font-family="sans-serif" font-size="13" lengthAdjust="spacing" textLength="177.0425" x="78.1343" y="148.7139">Selecciona investigador visible</text><polygon fill="#181818" points="643.5981,196.2734,653.5981,200.2734,643.5981,204.2734,647.5981,200.2734" style="stroke:#181818;stroke-width:1;"/><line style="stroke:#181818;stroke-width:1;" x1="323.3096" x2="649.5981" y1="200.2734" y2="200.2734"/><text fill="#000000" font-family="sans-serif" font-size="13" lengthAdjust="spacing" textLength="313.2886" x="330.3096" y="179.0654">GET /api/investigadores/{id}?proyectoId={proyectoId?}</text><text fill="#000000" font-family="sans-serif" font-size="13" lengthAdjust="spacing" textLength="99.728" x="330.3096" y="195.417">Cookie de sesion</text><polygon fill="#181818" points="882.1787,226.625,892.1787,230.625,882.1787,234.625,886.1787,230.625" style="stroke:#181818;stroke-width:1;"/><line style="stroke:#181818;stroke-width:1;" x1="665.5981" x2="888.1787" y1="230.625" y2="230.625"/><text fill="#000000" font-family="sans-serif" font-size="13" lengthAdjust="spacing" textLength="209.5806" x="672.5981" y="225.7686">obtenerSesionActual(authentication)</text><path d="M10,245.625 L70.1709,245.625 L70.1709,253.9766 L60.1709,263.9766 L10,263.9766 L10,245.625 " fill="#EEEEEE" style="stroke:#000000;stroke-width:1.5;"/><rect fill="none" height="845" style="stroke:#000000;stroke-width:1.5;" width="2400.6528" x="10" y="245.625"/><text fill="#000000" font-family="sans-serif" font-size="13" font-weight="bold" lengthAdjust="spacing" textLength="15.1709" x="25" y="260.1201">alt</text><text fill="#000000" font-family="sans-serif" font-size="11" font-weight="bold" lengthAdjust="spacing" textLength="77.6338" x="85.1709" y="259.0439">[Sesion valida]</text><polygon fill="#181818" points="676.5981,282.3281,666.5981,286.3281,676.5981,290.3281,672.5981,286.3281" style="stroke:#181818;stroke-width:1;"/><line style="stroke:#181818;stroke-width:1;stroke-dasharray:2.0,2.0;" x1="670.5981" x2="898.1787" y1="286.3281" y2="286.3281"/><text fill="#000000" font-family="sans-serif" font-size="13" lengthAdjust="spacing" textLength="98.2871" x="682.5981" y="281.4717">SesionResponse</text><polygon fill="#181818" points="1012.3989,312.6797,1022.3989,316.6797,1012.3989,320.6797,1016.3989,316.6797" style="stroke:#181818;stroke-width:1;"/><line style="stroke:#181818;stroke-width:1;" x1="665.5981" x2="1018.3989" y1="316.6797" y2="316.6797"/><text fill="#000000" font-family="sans-serif" font-size="13" lengthAdjust="spacing" textLength="182.8252" x="672.5981" y="311.8232">obtener(sesion, id, proyectoId?)</text><polygon fill="#181818" points="1160.4536,343.0313,1170.4536,347.0313,1160.4536,351.0313,1164.4536,347.0313" style="stroke:#181818;stroke-width:1;"/><line style="stroke:#181818;stroke-width:1;" x1="1034.3989" x2="1166.4536" y1="347.0313" y2="347.0313"/><text fill="#000000" font-family="sans-serif" font-size="13" lengthAdjust="spacing" textLength="65.749" x="1041.3989" y="342.1748">findById(id)</text><polygon fill="#181818" points="2329.7358,373.3828,2339.7358,377.3828,2329.7358,381.3828,2333.7358,377.3828" style="stroke:#181818;stroke-width:1;"/><line style="stroke:#181818;stroke-width:1;" x1="1172.4536" x2="2335.7358" y1="377.3828" y2="377.3828"/><text fill="#000000" font-family="sans-serif" font-size="13" lengthAdjust="spacing" textLength="241.6489" x="1179.4536" y="372.5264">SELECT * FROM usuarios WHERE id = ?</text><polygon fill="#181818" points="1183.4536,403.7344,1173.4536,407.7344,1183.4536,411.7344,1179.4536,407.7344" style="stroke:#181818;stroke-width:1;"/><line style="stroke:#181818;stroke-width:1;stroke-dasharray:2.0,2.0;" x1="1177.4536" x2="2340.7358" y1="407.7344" y2="407.7344"/><text fill="#000000" font-family="sans-serif" font-size="13" lengthAdjust="spacing" textLength="149.5889" x="1189.4536" y="402.8779">Resultado de persistencia</text><polygon fill="#181818" points="1045.3989,434.0859,1035.3989,438.0859,1045.3989,442.0859,1041.3989,438.0859" style="stroke:#181818;stroke-width:1;"/><line style="stroke:#181818;stroke-width:1;stroke-dasharray:2.0,2.0;" x1="1039.3989" x2="1171.4536" y1="438.0859" y2="438.0859"/><text fill="#000000" font-family="sans-serif" font-size="13" lengthAdjust="spacing" textLength="85.979" x="1051.3989" y="433.2295">Usuario / vacio</text><path d="M950.9233,453.0859 L1011.0942,453.0859 L1011.0942,461.4375 L1001.0942,471.4375 L950.9233,471.4375 L950.9233,453.0859 " fill="#EEEEEE" style="stroke:#000000;stroke-width:1.5;"/><rect fill="none" height="277" style="stroke:#000000;stroke-width:1.5;" width="1449.7295" x="950.9233" y="453.0859"/><text fill="#000000" font-family="sans-serif" font-size="13" font-weight="bold" lengthAdjust="spacing" textLength="15.1709" x="965.9233" y="467.5811">alt</text><text fill="#000000" font-family="sans-serif" font-size="11" font-weight="bold" lengthAdjust="spacing" textLength="185.2007" x="1026.0942" y="466.5049">[Consulta desde directorio general]</text><polygon fill="#181818" points="1443.064,489.7891,1453.064,493.7891,1443.064,497.7891,1447.064,493.7891" style="stroke:#181818;stroke-width:1;"/><line style="stroke:#181818;stroke-width:1;" x1="1034.3989" x2="1449.064" y1="493.7891" y2="493.7891"/><text fill="#000000" font-family="sans-serif" font-size="13" lengthAdjust="spacing" textLength="396.665" x="1041.3989" y="488.9326">findDistinctByInvestigadoresIdOrderByNombreAsc(sesion.usuario.id)</text><polygon fill="#181818" points="2329.7358,520.1406,2339.7358,524.1406,2329.7358,528.1406,2333.7358,524.1406" style="stroke:#181818;stroke-width:1;"/><line style="stroke:#181818;stroke-width:1;" x1="1455.064" x2="2335.7358" y1="524.1406" y2="524.1406"/><text fill="#000000" font-family="sans-serif" font-size="13" lengthAdjust="spacing" textLength="862.6719" x="1462.064" y="519.2842">SELECT DISTINCT p.* FROM proyectos p JOIN proyecto_investigadores pi ON pi.proyecto_id = p.id WHERE pi.usuario_id = ? ORDER BY p.nombre</text><polygon fill="#181818" points="1466.064,550.4922,1456.064,554.4922,1466.064,558.4922,1462.064,554.4922" style="stroke:#181818;stroke-width:1;"/><line style="stroke:#181818;stroke-width:1;stroke-dasharray:2.0,2.0;" x1="1460.064" x2="2340.7358" y1="554.4922" y2="554.4922"/><text fill="#000000" font-family="sans-serif" font-size="13" lengthAdjust="spacing" textLength="149.5889" x="1472.064" y="549.6357">Resultado de persistencia</text><polygon fill="#181818" points="1045.3989,580.8438,1035.3989,584.8438,1045.3989,588.8438,1041.3989,584.8438" style="stroke:#181818;stroke-width:1;"/><line style="stroke:#181818;stroke-width:1;stroke-dasharray:2.0,2.0;" x1="1039.3989" x2="1454.064" y1="584.8438" y2="584.8438"/><text fill="#000000" font-family="sans-serif" font-size="13" lengthAdjust="spacing" textLength="149.5825" x="1051.3989" y="579.9873">Lista&lt;ProyectoResumen&gt;</text><line style="stroke:#000000;stroke-width:1;stroke-dasharray:2.0,2.0;" x1="950.9233" x2="2400.6528" y1="593.8438" y2="593.8438"/><text fill="#000000" font-family="sans-serif" font-size="11" font-weight="bold" lengthAdjust="spacing" textLength="201.6899" x="955.9233" y="605.2627">[Consulta desde proyecto compartido]</text><polygon fill="#181818" points="1443.064,627.0313,1453.064,631.0313,1443.064,635.0313,1447.064,631.0313" style="stroke:#181818;stroke-width:1;"/><line style="stroke:#181818;stroke-width:1;" x1="1034.3989" x2="1449.064" y1="631.0313" y2="631.0313"/><text fill="#000000" font-family="sans-serif" font-size="13" lengthAdjust="spacing" textLength="116.3335" x="1041.3989" y="626.1748">findById(proyectoId)</text><polygon fill="#181818" points="2329.7358,657.3828,2339.7358,661.3828,2329.7358,665.3828,2333.7358,661.3828" style="stroke:#181818;stroke-width:1;"/><line style="stroke:#181818;stroke-width:1;" x1="1455.064" x2="2335.7358" y1="661.3828" y2="661.3828"/><text fill="#000000" font-family="sans-serif" font-size="13" lengthAdjust="spacing" textLength="248.8726" x="1462.064" y="656.5264">SELECT * FROM proyectos WHERE id = ?</text><polygon fill="#181818" points="1466.064,687.7344,1456.064,691.7344,1466.064,695.7344,1462.064,691.7344" style="stroke:#181818;stroke-width:1;"/><line style="stroke:#181818;stroke-width:1;stroke-dasharray:2.0,2.0;" x1="1460.064" x2="2340.7358" y1="691.7344" y2="691.7344"/><text fill="#000000" font-family="sans-serif" font-size="13" lengthAdjust="spacing" textLength="149.5889" x="1472.064" y="686.8779">Resultado de persistencia</text><polygon fill="#181818" points="1045.3989,718.0859,1035.3989,722.0859,1045.3989,726.0859,1041.3989,722.0859" style="stroke:#181818;stroke-width:1;"/><line style="stroke:#181818;stroke-width:1;stroke-dasharray:2.0,2.0;" x1="1039.3989" x2="1454.064" y1="722.0859" y2="722.0859"/><text fill="#000000" font-family="sans-serif" font-size="13" lengthAdjust="spacing" textLength="92.4854" x="1051.3989" y="717.2295">Proyecto / vacio</text><path d="M20,744.0859 L80.1709,744.0859 L80.1709,752.4375 L70.1709,762.4375 L20,762.4375 L20,744.0859 " fill="#EEEEEE" style="stroke:#000000;stroke-width:1.5;"/><rect fill="none" height="232.6484" style="stroke:#000000;stroke-width:1.5;" width="1087.8745" x="20" y="744.0859"/><text fill="#000000" font-family="sans-serif" font-size="13" font-weight="bold" lengthAdjust="spacing" textLength="15.1709" x="35" y="758.5811">alt</text><text fill="#000000" font-family="sans-serif" font-size="11" font-weight="bold" lengthAdjust="spacing" textLength="196.8184" x="95.1709" y="757.5049">[Investigador inexistente o no visible]</text><polygon fill="#181818" points="676.5981,780.7891,666.5981,784.7891,676.5981,788.7891,672.5981,784.7891" style="stroke:#181818;stroke-width:1;"/><line style="stroke:#181818;stroke-width:1;stroke-dasharray:2.0,2.0;" x1="670.5981" x2="1028.3989" y1="784.7891" y2="784.7891"/><text fill="#000000" font-family="sans-serif" font-size="13" lengthAdjust="spacing" textLength="188.6079" x="682.5981" y="779.9326">RecursoNoEncontradoException</text><polygon fill="#181818" points="334.3096,811.1406,324.3096,815.1406,334.3096,819.1406,330.3096,815.1406" style="stroke:#181818;stroke-width:1;"/><line style="stroke:#181818;stroke-width:1;stroke-dasharray:2.0,2.0;" x1="328.3096" x2="659.5981" y1="815.1406" y2="815.1406"/><text fill="#000000" font-family="sans-serif" font-size="13" lengthAdjust="spacing" textLength="86.0044" x="340.3096" y="810.2842">404 Not Found</text><polygon fill="#181818" points="82.1343,841.4922,72.1343,845.4922,82.1343,849.4922,78.1343,845.4922" style="stroke:#181818;stroke-width:1;"/><line style="stroke:#181818;stroke-width:1;stroke-dasharray:2.0,2.0;" x1="76.1343" x2="312.3096" y1="845.4922" y2="845.4922"/><text fill="#000000" font-family="sans-serif" font-size="13" lengthAdjust="spacing" textLength="205.9688" x="88.1343" y="840.6357">Presenta investigador no disponible</text><line style="stroke:#000000;stroke-width:1;stroke-dasharray:2.0,2.0;" x1="20" x2="1107.8745" y1="854.4922" y2="854.4922"/><text fill="#000000" font-family="sans-serif" font-size="11" font-weight="bold" lengthAdjust="spacing" textLength="110.0269" x="25" y="865.9111">[Investigador visible]</text><polygon fill="#181818" points="671.5981,887.6797,661.5981,891.6797,671.5981,895.6797,667.5981,891.6797" style="stroke:#181818;stroke-width:1;"/><line style="stroke:#181818;stroke-width:1;stroke-dasharray:2.0,2.0;" x1="665.5981" x2="1028.3989" y1="891.6797" y2="891.6797"/><text fill="#000000" font-family="sans-serif" font-size="13" lengthAdjust="spacing" textLength="169.8252" x="677.5981" y="886.8232">InvestigadorDetalleResponse</text><polygon fill="#181818" points="334.3096,934.3828,324.3096,938.3828,334.3096,942.3828,330.3096,938.3828" style="stroke:#181818;stroke-width:1;"/><line style="stroke:#181818;stroke-width:1;stroke-dasharray:2.0,2.0;" x1="328.3096" x2="659.5981" y1="938.3828" y2="938.3828"/><text fill="#000000" font-family="sans-serif" font-size="13" lengthAdjust="spacing" textLength="44.0845" x="340.3096" y="917.1748">200 OK</text><text fill="#000000" font-family="sans-serif" font-size="13" lengthAdjust="spacing" textLength="174.8716" x="340.3096" y="933.5264">Detalle visible del investigador</text><polygon fill="#181818" points="82.1343,964.7344,72.1343,968.7344,82.1343,972.7344,78.1343,968.7344" style="stroke:#181818;stroke-width:1;"/><line style="stroke:#181818;stroke-width:1;stroke-dasharray:2.0,2.0;" x1="76.1343" x2="312.3096" y1="968.7344" y2="968.7344"/><text fill="#000000" font-family="sans-serif" font-size="13" lengthAdjust="spacing" textLength="218.1753" x="88.1343" y="963.8779">Presenta INVESTIGADOR_ABIERTO</text><line style="stroke:#000000;stroke-width:1;stroke-dasharray:2.0,2.0;" x1="10" x2="2410.6528" y1="984.7344" y2="984.7344"/><text fill="#000000" font-family="sans-serif" font-size="11" font-weight="bold" lengthAdjust="spacing" textLength="141.813" x="15" y="996.1533">[Sesion ausente o invalida]</text><polygon fill="#181818" points="671.5981,1017.9219,661.5981,1021.9219,671.5981,1025.9219,667.5981,1021.9219" style="stroke:#181818;stroke-width:1;"/><line style="stroke:#181818;stroke-width:1;stroke-dasharray:2.0,2.0;" x1="665.5981" x2="898.1787" y1="1021.9219" y2="1021.9219"/><text fill="#000000" font-family="sans-serif" font-size="13" lengthAdjust="spacing" textLength="149.5952" x="677.5981" y="1017.0654">SesionNoValidaException</text><polygon fill="#181818" points="334.3096,1048.2734,324.3096,1052.2734,334.3096,1056.2734,330.3096,1052.2734" style="stroke:#181818;stroke-width:1;"/><line style="stroke:#181818;stroke-width:1;stroke-dasharray:2.0,2.0;" x1="328.3096" x2="659.5981" y1="1052.2734" y2="1052.2734"/><text fill="#000000" font-family="sans-serif" font-size="13" lengthAdjust="spacing" textLength="102.6289" x="340.3096" y="1047.417">401 Unauthorized</text><polygon fill="#181818" points="82.1343,1078.625,72.1343,1082.625,82.1343,1086.625,78.1343,1082.625" style="stroke:#181818;stroke-width:1;"/><line style="stroke:#181818;stroke-width:1;stroke-dasharray:2.0,2.0;" x1="76.1343" x2="312.3096" y1="1082.625" y2="1082.625"/><text fill="#000000" font-family="sans-serif" font-size="13" lengthAdjust="spacing" textLength="145.9644" x="88.1343" y="1077.7686">Presenta error de acceso</text><!--SRC=[jLLjJzim4FxUNt7YKvb6OHEVga7LaC2oiHQ5bsaI4dBZMsSjjIFRgUWG_trdvwL92un9MwLMxldkVCzpvyTMs0mX56oksO81Hp2O5YXJmM0FnZCjD0YvH6F5d76b8LKB1N7BqkknrD96nvOpRKKgSYOjxBHtGhGio_22pV5MzXEasDqTO0PEjP8M9Ny-z8GSjA9WJP6NkHPo3e5ILVmu5ztGIpH2oKlKIv6YToajpn_GzVNhhlErAPWMAi5S6K6OLzwrPUswNsYrGk9cmxzjxd5csOmPX9t0_HB_8RFAUCSmwFNQzS7USKFJa2hCC4q94EisQ2cCc6NekYAMpEAQsNhXyX1TGpYBhc2VvMA_dG3D_eFWZwEyAZFcHm_hzUZnLfuezLDWEIkUqUOermJwkWDAieUWPdGawlBlEBK5o_gii3zG4b7Cad5t7LzrY6MsMiAIPOAp7j2dikpLrPV_4pIvaWQz2yVDLCxQLEHRsfJKBwj_2uA_XHR2NH_KIbHEGbc2NxjihQuFuRkGF5Z5l2zu6TtQTSvXGEL6vz795Ro1qsJw1OhImS3NZr4IKGbm12CV6WOUOYS_WImoIzrnfEUeZJ3Mtz7jmzf0gmtO9nffKafSn2tT99-FiXbAo8Lsq9tdt173Ck-v0RWzjYNYaAeGChM4l3C_CPzgZZfOJTHYfd5iqehgGOLwKDFaFksy6ro5yULLFA55FgXegzja88TFqtZI6Eww8mpKyYdjYi7QmL6Sqz4LvRHNbLDkZM2QX542mJVoahxofiQg9rqANcxADhHsPyx9btrOxvjYWVBO1s96Eh3HeHg4KrylCLozhaL-ADUp_IhMjwZU6j7_GaczqvbM9rlrr7QaK4YyzydfXYgGgf6zBLfgkKZeNTD6JLGaK_UIK9heFiNSrZAn9I3hUz-eI4U13myEOQ8idAgYAdCZXPF3shmMNyhHXkAGeo4W6pfEcBXmsjR0yfCHFwNrpu9-ukdj2EPVOtv_S03JpxUoIbPNG4coJld_WevuSXEH09oDmsboDmxYABcQDbFXoQYU15QOQX2eX3yz61DrurswpN_XvTZe-Jkubku18xtyXRpt3CRNu4EjgOTqKrYQeb4z1wkLgaxn6m00]--></g></svg>