<?xml version="1.0" encoding="us-ascii" standalone="no"?><svg xmlns="http://www.w3.org/2000/svg" xmlns:xlink="http://www.w3.org/1999/xlink" contentStyleType="text/css" height="1189px" preserveAspectRatio="none" style="width:2407px;height:1189px;background:#FFFFFF;" version="1.1" viewBox="0 0 2407 1189" width="2407px" zoomAndPan="magnify"><defs/><g><text fill="#000000" font-family="sans-serif" font-size="14" font-weight="bold" lengthAdjust="spacing" textLength="438" x="985.5" y="29.5332">Diagrama de secuencia - Abrir investigador como Investigador</text><rect fill="#FFFFFF" height="944.0547" style="stroke:#181818;stroke-width:1.0;" width="10" x="310.5" y="153.5703"/><rect fill="#FFFFFF" height="614.8672" style="stroke:#181818;stroke-width:1.0;" width="10" x="648.5" y="200.2734"/><rect fill="#FFFFFF" height="55.7031" style="stroke:#181818;stroke-width:1.0;" width="10" x="886.5" y="230.625"/><rect fill="#FFFFFF" height="468.1094" style="stroke:#181818;stroke-width:1.0;" width="10" x="1017.5" y="316.6797"/><rect fill="none" height="845" style="stroke:#000000;stroke-width:1.5;" width="2390" x="10" y="245.625"/><rect fill="none" height="277" style="stroke:#000000;stroke-width:1.5;" width="1446.5" x="943.5" y="453.0859"/><rect fill="none" height="232.6484" style="stroke:#000000;stroke-width:1.5;" width="1081.5" x="20" y="744.0859"/><line style="stroke:#181818;stroke-width:0.5;stroke-dasharray:5.0,5.0;" x1="71" x2="71" y1="121.2188" y2="1107.625"/><line style="stroke:#181818;stroke-width:0.5;stroke-dasharray:5.0,5.0;" x1="315.5" x2="315.5" y1="121.2188" y2="1107.625"/><line style="stroke:#181818;stroke-width:0.5;stroke-dasharray:5.0,5.0;" x1="653" x2="653" y1="121.2188" y2="1107.625"/><line style="stroke:#181818;stroke-width:0.5;stroke-dasharray:5.0,5.0;" x1="891.5" x2="891.5" y1="121.2188" y2="1107.625"/><line style="stroke:#181818;stroke-width:0.5;stroke-dasharray:5.0,5.0;" x1="1022.5" x2="1022.5" y1="121.2188" y2="1107.625"/><line style="stroke:#181818;stroke-width:0.5;stroke-dasharray:5.0,5.0;" x1="1166.5" x2="1166.5" y1="121.2188" y2="1107.625"/><line style="stroke:#181818;stroke-width:0.5;stroke-dasharray:5.0,5.0;" x1="1445.5" x2="1445.5" y1="121.2188" y2="1107.625"/><line style="stroke:#181818;stroke-width:0.5;stroke-dasharray:5.0,5.0;" x1="2330" x2="2330" y1="121.2188" y2="1107.625"/><text fill="#000000" font-family="sans-serif" font-size="14" lengthAdjust="spacing" textLength="77" x="30" y="118.1426">Investigador</text><ellipse cx="71.5" cy="52.1094" fill="#E2E2F0" rx="8" ry="8" style="stroke:#181818;stroke-width:0.5;"/><path d="M71.5,60.1094 L71.5,87.1094 M58.5,68.1094 L84.5,68.1094 M71.5,87.1094 L58.5,102.1094 M71.5,87.1094 L84.5,102.1094 " fill="none" style="stroke:#181818;stroke-width:0.5;"/><text fill="#000000" font-family="sans-serif" font-size="14" lengthAdjust="spacing" textLength="77" x="30" y="1121.1582">Investigador</text><ellipse cx="71.5" cy="1132.7344" fill="#E2E2F0" rx="8" ry="8" style="stroke:#181818;stroke-width:0.5;"/><path d="M71.5,1140.7344 L71.5,1167.7344 M58.5,1148.7344 L84.5,1148.7344 M71.5,1167.7344 L58.5,1182.7344 M71.5,1167.7344 L84.5,1182.7344 " fill="none" style="stroke:#181818;stroke-width:0.5;"/><rect fill="#E2E2F0" height="49.2188" rx="2.5" ry="2.5" style="stroke:#181818;stroke-width:0.5;" width="168" x="231.5" y="71"/><text fill="#000000" font-family="sans-serif" font-size="14" lengthAdjust="spacing" textLength="154" x="238.5" y="92.5332">InvestigadorDetallePage</text><text fill="#000000" font-family="sans-serif" font-size="14" lengthAdjust="spacing" textLength="47" x="292" y="110.1426">(React)</text><rect fill="#E2E2F0" height="49.2188" rx="2.5" ry="2.5" style="stroke:#181818;stroke-width:0.5;" width="168" x="231.5" y="1106.625"/><text fill="#000000" font-family="sans-serif" font-size="14" lengthAdjust="spacing" textLength="154" x="238.5" y="1128.1582">InvestigadorDetallePage</text><text fill="#000000" font-family="sans-serif" font-size="14" lengthAdjust="spacing" textLength="47" x="292" y="1145.7676">(React)</text><rect fill="#E2E2F0" height="49.2188" rx="2.5" ry="2.5" style="stroke:#181818;stroke-width:0.5;" width="153" x="577" y="71"/><text fill="#000000" font-family="sans-serif" font-size="14" lengthAdjust="spacing" textLength="139" x="584" y="92.5332">InvestigadorController</text><text fill="#000000" font-family="sans-serif" font-size="14" lengthAdjust="spacing" textLength="84" x="611.5" y="110.1426">(Spring Boot)</text><rect fill="#E2E2F0" height="49.2188" rx="2.5" ry="2.5" style="stroke:#181818;stroke-width:0.5;" width="153" x="577" y="1106.625"/><text fill="#000000" font-family="sans-serif" font-size="14" lengthAdjust="spacing" textLength="139" x="584" y="1128.1582">InvestigadorController</text><text fill="#000000" font-family="sans-serif" font-size="14" lengthAdjust="spacing" textLength="84" x="611.5" y="1145.7676">(Spring Boot)</text><rect fill="#E2E2F0" height="31.6094" rx="2.5" ry="2.5" style="stroke:#181818;stroke-width:0.5;" width="104" x="839.5" y="88.6094"/><text fill="#000000" font-family="sans-serif" font-size="14" lengthAdjust="spacing" textLength="90" x="846.5" y="110.1426">SesionService</text><rect fill="#E2E2F0" height="31.6094" rx="2.5" ry="2.5" style="stroke:#181818;stroke-width:0.5;" width="104" x="839.5" y="1106.625"/><text fill="#000000" font-family="sans-serif" font-size="14" lengthAdjust="spacing" textLength="90" x="846.5" y="1128.1582">SesionService</text><rect fill="#E2E2F0" height="31.6094" rx="2.5" ry="2.5" style="stroke:#181818;stroke-width:0.5;" width="138" x="953.5" y="88.6094"/><text fill="#000000" font-family="sans-serif" font-size="14" lengthAdjust="spacing" textLength="124" x="960.5" y="110.1426">InvestigadorService</text><rect fill="#E2E2F0" height="31.6094" rx="2.5" ry="2.5" style="stroke:#181818;stroke-width:0.5;" width="138" x="953.5" y="1106.625"/><text fill="#000000" font-family="sans-serif" font-size="14" lengthAdjust="spacing" textLength="124" x="960.5" y="1128.1582">InvestigadorService</text><rect fill="#E2E2F0" height="31.6094" rx="2.5" ry="2.5" style="stroke:#181818;stroke-width:0.5;" width="130" x="1101.5" y="88.6094"/><text fill="#000000" font-family="sans-serif" font-size="14" lengthAdjust="spacing" textLength="116" x="1108.5" y="110.1426">UsuarioRepository</text><rect fill="#E2E2F0" height="31.6094" rx="2.5" ry="2.5" style="stroke:#181818;stroke-width:0.5;" width="130" x="1101.5" y="1106.625"/><text fill="#000000" font-family="sans-serif" font-size="14" lengthAdjust="spacing" textLength="116" x="1108.5" y="1128.1582">UsuarioRepository</text><rect fill="#E2E2F0" height="31.6094" rx="2.5" ry="2.5" style="stroke:#181818;stroke-width:0.5;" width="138" x="1376.5" y="88.6094"/><text fill="#000000" font-family="sans-serif" font-size="14" lengthAdjust="spacing" textLength="124" x="1383.5" y="110.1426">ProyectoRepository</text><rect fill="#E2E2F0" height="31.6094" rx="2.5" ry="2.5" style="stroke:#181818;stroke-width:0.5;" width="138" x="1376.5" y="1106.625"/><text fill="#000000" font-family="sans-serif" font-size="14" lengthAdjust="spacing" textLength="124" x="1383.5" y="1128.1582">ProyectoRepository</text><text fill="#000000" font-family="sans-serif" font-size="14" lengthAdjust="spacing" textLength="93" x="2281" y="118.1426">Base de Datos</text><path d="M2312.5,67.6094 C2312.5,57.6094 2330.5,57.6094 2330.5,57.6094 C2330.5,57.6094 2348.5,57.6094 2348.5,67.6094 L2348.5,93.6094 C2348.5,103.6094 2330.5,103.6094 2330.5,103.6094 C2330.5,103.6094 2312.5,103.6094 2312.5,93.6094 L2312.5,67.6094 " fill="#E2E2F0" style="stroke:#181818;stroke-width:1.5;"/><path d="M2312.5,67.6094 C2312.5,77.6094 2330.5,77.6094 2330.5,77.6094 C2330.5,77.6094 2348.5,77.6094 2348.5,67.6094 " fill="none" style="stroke:#181818;stroke-width:1.5;"/><text fill="#000000" font-family="sans-serif" font-size="14" lengthAdjust="spacing" textLength="93" x="2281" y="1121.1582">Base de Datos</text><path d="M2312.5,1134.2344 C2312.5,1124.2344 2330.5,1124.2344 2330.5,1124.2344 C2330.5,1124.2344 2348.5,1124.2344 2348.5,1134.2344 L2348.5,1160.2344 C2348.5,1170.2344 2330.5,1170.2344 2330.5,1170.2344 C2330.5,1170.2344 2312.5,1170.2344 2312.5,1160.2344 L2312.5,1134.2344 " fill="#E2E2F0" style="stroke:#181818;stroke-width:1.5;"/><path d="M2312.5,1134.2344 C2312.5,1144.2344 2330.5,1144.2344 2330.5,1144.2344 C2330.5,1144.2344 2348.5,1144.2344 2348.5,1134.2344 " fill="none" style="stroke:#181818;stroke-width:1.5;"/><rect fill="#FFFFFF" height="944.0547" style="stroke:#181818;stroke-width:1.0;" width="10" x="310.5" y="153.5703"/><rect fill="#FFFFFF" height="614.8672" style="stroke:#181818;stroke-width:1.0;" width="10" x="648.5" y="200.2734"/><rect fill="#FFFFFF" height="55.7031" style="stroke:#181818;stroke-width:1.0;" width="10" x="886.5" y="230.625"/><rect fill="#FFFFFF" height="468.1094" style="stroke:#181818;stroke-width:1.0;" width="10" x="1017.5" y="316.6797"/><polygon fill="#181818" points="298.5,149.5703,308.5,153.5703,298.5,157.5703,302.5,153.5703" style="stroke:#181818;stroke-width:1.0;"/><line style="stroke:#181818;stroke-width:1.0;" x1="71.5" x2="304.5" y1="153.5703" y2="153.5703"/><text fill="#000000" font-family="sans-serif" font-size="13" lengthAdjust="spacing" textLength="175" x="78.5" y="148.7139">Selecciona investigador visible</text><polygon fill="#181818" points="636.5,196.2734,646.5,200.2734,636.5,204.2734,640.5,200.2734" style="stroke:#181818;stroke-width:1.0;"/><line style="stroke:#181818;stroke-width:1.0;" x1="320.5" x2="642.5" y1="200.2734" y2="200.2734"/><text fill="#000000" font-family="sans-serif" font-size="13" lengthAdjust="spacing" textLength="309" x="327.5" y="179.0654">GET /api/investigadores/{id}?proyectoId={proyectoId?}</text><text fill="#000000" font-family="sans-serif" font-size="13" lengthAdjust="spacing" textLength="100" x="327.5" y="195.417">Cookie de sesion</text><polygon fill="#181818" points="874.5,226.625,884.5,230.625,874.5,234.625,878.5,230.625" style="stroke:#181818;stroke-width:1.0;"/><line style="stroke:#181818;stroke-width:1.0;" x1="658.5" x2="880.5" y1="230.625" y2="230.625"/><text fill="#000000" font-family="sans-serif" font-size="13" lengthAdjust="spacing" textLength="209" x="665.5" y="225.7686">obtenerSesionActual(authentication)</text><path d="M10,245.625 L71,245.625 L71,253.9766 L61,263.9766 L10,263.9766 L10,245.625 " fill="#EEEEEE" style="stroke:#000000;stroke-width:1.5;"/><rect fill="none" height="845" style="stroke:#000000;stroke-width:1.5;" width="2390" x="10" y="245.625"/><text fill="#000000" font-family="sans-serif" font-size="13" font-weight="bold" lengthAdjust="spacing" textLength="16" x="25" y="260.1201">alt</text><text fill="#000000" font-family="sans-serif" font-size="11" font-weight="bold" lengthAdjust="spacing" textLength="80" x="86" y="259.0439">[Sesion valida]</text><polygon fill="#181818" points="669.5,282.3281,659.5,286.3281,669.5,290.3281,665.5,286.3281" style="stroke:#181818;stroke-width:1.0;"/><line style="stroke:#181818;stroke-width:1.0;stroke-dasharray:2.0,2.0;" x1="663.5" x2="890.5" y1="286.3281" y2="286.3281"/><text fill="#000000" font-family="sans-serif" font-size="13" lengthAdjust="spacing" textLength="170" x="675.5" y="281.4717">SesionResponse(usuario, rol)</text><polygon fill="#181818" points="1005.5,312.6797,1015.5,316.6797,1005.5,320.6797,1009.5,316.6797" style="stroke:#181818;stroke-width:1.0;"/><line style="stroke:#181818;stroke-width:1.0;" x1="658.5" x2="1011.5" y1="316.6797" y2="316.6797"/><text fill="#000000" font-family="sans-serif" font-size="13" lengthAdjust="spacing" textLength="222" x="665.5" y="311.8232">obtenerDetalle(sesion, id, proyectoId?)</text><polygon fill="#181818" points="1154.5,343.0313,1164.5,347.0313,1154.5,351.0313,1158.5,347.0313" style="stroke:#181818;stroke-width:1.0;"/><line style="stroke:#181818;stroke-width:1.0;" x1="1027.5" x2="1160.5" y1="347.0313" y2="347.0313"/><text fill="#000000" font-family="sans-serif" font-size="13" lengthAdjust="spacing" textLength="64" x="1034.5" y="342.1748">findById(id)</text><polygon fill="#181818" points="2318.5,373.3828,2328.5,377.3828,2318.5,381.3828,2322.5,377.3828" style="stroke:#181818;stroke-width:1.0;"/><line style="stroke:#181818;stroke-width:1.0;" x1="1166.5" x2="2324.5" y1="377.3828" y2="377.3828"/><text fill="#000000" font-family="sans-serif" font-size="13" lengthAdjust="spacing" textLength="244" x="1173.5" y="372.5264">SELECT * FROM usuarios WHERE id = ?</text><polygon fill="#181818" points="1177.5,403.7344,1167.5,407.7344,1177.5,411.7344,1173.5,407.7344" style="stroke:#181818;stroke-width:1.0;"/><line style="stroke:#181818;stroke-width:1.0;stroke-dasharray:2.0,2.0;" x1="1171.5" x2="2329.5" y1="407.7344" y2="407.7344"/><text fill="#000000" font-family="sans-serif" font-size="13" lengthAdjust="spacing" textLength="150" x="1183.5" y="402.8779">Resultado de persistencia</text><polygon fill="#181818" points="1038.5,434.0859,1028.5,438.0859,1038.5,442.0859,1034.5,438.0859" style="stroke:#181818;stroke-width:1.0;"/><line style="stroke:#181818;stroke-width:1.0;stroke-dasharray:2.0,2.0;" x1="1032.5" x2="1165.5" y1="438.0859" y2="438.0859"/><text fill="#000000" font-family="sans-serif" font-size="13" lengthAdjust="spacing" textLength="85" x="1044.5" y="433.2295">Usuario / vacio</text><path d="M943.5,453.0859 L1004.5,453.0859 L1004.5,461.4375 L994.5,471.4375 L943.5,471.4375 L943.5,453.0859 " fill="#EEEEEE" style="stroke:#000000;stroke-width:1.5;"/><rect fill="none" height="277" style="stroke:#000000;stroke-width:1.5;" width="1446.5" x="943.5" y="453.0859"/><text fill="#000000" font-family="sans-serif" font-size="13" font-weight="bold" lengthAdjust="spacing" textLength="16" x="958.5" y="467.5811">alt</text><text fill="#000000" font-family="sans-serif" font-size="11" font-weight="bold" lengthAdjust="spacing" textLength="197" x="1019.5" y="466.5049">[Consulta desde directorio general]</text><polygon fill="#181818" points="1433.5,489.7891,1443.5,493.7891,1433.5,497.7891,1437.5,493.7891" style="stroke:#181818;stroke-width:1.0;"/><line style="stroke:#181818;stroke-width:1.0;" x1="1027.5" x2="1439.5" y1="493.7891" y2="493.7891"/><text fill="#000000" font-family="sans-serif" font-size="13" lengthAdjust="spacing" textLength="394" x="1034.5" y="488.9326">findDistinctByInvestigadoresIdOrderByNombreAsc(sesion.usuario.id)</text><polygon fill="#181818" points="2318.5,520.1406,2328.5,524.1406,2318.5,528.1406,2322.5,524.1406" style="stroke:#181818;stroke-width:1.0;"/><line style="stroke:#181818;stroke-width:1.0;" x1="1445.5" x2="2324.5" y1="524.1406" y2="524.1406"/><text fill="#000000" font-family="sans-serif" font-size="13" lengthAdjust="spacing" textLength="861" x="1452.5" y="519.2842">SELECT DISTINCT p.* FROM proyectos p JOIN proyecto_investigadores pi ON pi.proyecto_id = p.id WHERE pi.usuario_id = ? ORDER BY p.nombre</text><polygon fill="#181818" points="1456.5,550.4922,1446.5,554.4922,1456.5,558.4922,1452.5,554.4922" style="stroke:#181818;stroke-width:1.0;"/><line style="stroke:#181818;stroke-width:1.0;stroke-dasharray:2.0,2.0;" x1="1450.5" x2="2329.5" y1="554.4922" y2="554.4922"/><text fill="#000000" font-family="sans-serif" font-size="13" lengthAdjust="spacing" textLength="150" x="1462.5" y="549.6357">Resultado de persistencia</text><polygon fill="#181818" points="1038.5,580.8438,1028.5,584.8438,1038.5,588.8438,1034.5,584.8438" style="stroke:#181818;stroke-width:1.0;"/><line style="stroke:#181818;stroke-width:1.0;stroke-dasharray:2.0,2.0;" x1="1032.5" x2="1444.5" y1="584.8438" y2="584.8438"/><text fill="#000000" font-family="sans-serif" font-size="13" lengthAdjust="spacing" textLength="151" x="1044.5" y="579.9873">Lista&lt;ProyectoResumen&gt;</text><line style="stroke:#000000;stroke-width:1.0;stroke-dasharray:2.0,2.0;" x1="943.5" x2="2390" y1="593.8438" y2="593.8438"/><text fill="#000000" font-family="sans-serif" font-size="11" font-weight="bold" lengthAdjust="spacing" textLength="213" x="948.5" y="605.2627">[Consulta desde proyecto compartido]</text><polygon fill="#181818" points="1433.5,627.0313,1443.5,631.0313,1433.5,635.0313,1437.5,631.0313" style="stroke:#181818;stroke-width:1.0;"/><line style="stroke:#181818;stroke-width:1.0;" x1="1027.5" x2="1439.5" y1="631.0313" y2="631.0313"/><text fill="#000000" font-family="sans-serif" font-size="13" lengthAdjust="spacing" textLength="114" x="1034.5" y="626.1748">findById(proyectoId)</text><polygon fill="#181818" points="2318.5,657.3828,2328.5,661.3828,2318.5,665.3828,2322.5,661.3828" style="stroke:#181818;stroke-width:1.0;"/><line style="stroke:#181818;stroke-width:1.0;" x1="1445.5" x2="2324.5" y1="661.3828" y2="661.3828"/><text fill="#000000" font-family="sans-serif" font-size="13" lengthAdjust="spacing" textLength="252" x="1452.5" y="656.5264">SELECT * FROM proyectos WHERE id = ?</text><polygon fill="#181818" points="1456.5,687.7344,1446.5,691.7344,1456.5,695.7344,1452.5,691.7344" style="stroke:#181818;stroke-width:1.0;"/><line style="stroke:#181818;stroke-width:1.0;stroke-dasharray:2.0,2.0;" x1="1450.5" x2="2329.5" y1="691.7344" y2="691.7344"/><text fill="#000000" font-family="sans-serif" font-size="13" lengthAdjust="spacing" textLength="150" x="1462.5" y="686.8779">Resultado de persistencia</text><polygon fill="#181818" points="1038.5,718.0859,1028.5,722.0859,1038.5,726.0859,1034.5,722.0859" style="stroke:#181818;stroke-width:1.0;"/><line style="stroke:#181818;stroke-width:1.0;stroke-dasharray:2.0,2.0;" x1="1032.5" x2="1444.5" y1="722.0859" y2="722.0859"/><text fill="#000000" font-family="sans-serif" font-size="13" lengthAdjust="spacing" textLength="93" x="1044.5" y="717.2295">Proyecto / vacio</text><path d="M20,744.0859 L81,744.0859 L81,752.4375 L71,762.4375 L20,762.4375 L20,744.0859 " fill="#EEEEEE" style="stroke:#000000;stroke-width:1.5;"/><rect fill="none" height="232.6484" style="stroke:#000000;stroke-width:1.5;" width="1081.5" x="20" y="744.0859"/><text fill="#000000" font-family="sans-serif" font-size="13" font-weight="bold" lengthAdjust="spacing" textLength="16" x="35" y="758.5811">alt</text><text fill="#000000" font-family="sans-serif" font-size="11" font-weight="bold" lengthAdjust="spacing" textLength="208" x="96" y="757.5049">[Investigador inexistente o no visible]</text><polygon fill="#181818" points="669.5,780.7891,659.5,784.7891,669.5,788.7891,665.5,784.7891" style="stroke:#181818;stroke-width:1.0;"/><line style="stroke:#181818;stroke-width:1.0;stroke-dasharray:2.0,2.0;" x1="663.5" x2="1021.5" y1="784.7891" y2="784.7891"/><text fill="#000000" font-family="sans-serif" font-size="13" lengthAdjust="spacing" textLength="188" x="675.5" y="779.9326">RecursoNoEncontradoException</text><polygon fill="#181818" points="331.5,811.1406,321.5,815.1406,331.5,819.1406,327.5,815.1406" style="stroke:#181818;stroke-width:1.0;"/><line style="stroke:#181818;stroke-width:1.0;stroke-dasharray:2.0,2.0;" x1="325.5" x2="652.5" y1="815.1406" y2="815.1406"/><text fill="#000000" font-family="sans-serif" font-size="13" lengthAdjust="spacing" textLength="85" x="337.5" y="810.2842">404 Not Found</text><polygon fill="#181818" points="82.5,841.4922,72.5,845.4922,82.5,849.4922,78.5,845.4922" style="stroke:#181818;stroke-width:1.0;"/><line style="stroke:#181818;stroke-width:1.0;stroke-dasharray:2.0,2.0;" x1="76.5" x2="309.5" y1="845.4922" y2="845.4922"/><text fill="#000000" font-family="sans-serif" font-size="13" lengthAdjust="spacing" textLength="204" x="88.5" y="840.6357">Presenta investigador no disponible</text><line style="stroke:#000000;stroke-width:1.0;stroke-dasharray:2.0,2.0;" x1="20" x2="1101.5" y1="854.4922" y2="854.4922"/><text fill="#000000" font-family="sans-serif" font-size="11" font-weight="bold" lengthAdjust="spacing" textLength="116" x="25" y="865.9111">[Investigador visible]</text><polygon fill="#181818" points="664.5,887.6797,654.5,891.6797,664.5,895.6797,660.5,891.6797" style="stroke:#181818;stroke-width:1.0;"/><line style="stroke:#181818;stroke-width:1.0;stroke-dasharray:2.0,2.0;" x1="658.5" x2="1021.5" y1="891.6797" y2="891.6797"/><text fill="#000000" font-family="sans-serif" font-size="13" lengthAdjust="spacing" textLength="166" x="670.5" y="886.8232">InvestigadorDetalleResponse</text><polygon fill="#181818" points="331.5,934.3828,321.5,938.3828,331.5,942.3828,327.5,938.3828" style="stroke:#181818;stroke-width:1.0;"/><line style="stroke:#181818;stroke-width:1.0;stroke-dasharray:2.0,2.0;" x1="325.5" x2="652.5" y1="938.3828" y2="938.3828"/><text fill="#000000" font-family="sans-serif" font-size="13" lengthAdjust="spacing" textLength="44" x="337.5" y="917.1748">200 OK</text><text fill="#000000" font-family="sans-serif" font-size="13" lengthAdjust="spacing" textLength="172" x="337.5" y="933.5264">Detalle visible del investigador</text><polygon fill="#181818" points="82.5,964.7344,72.5,968.7344,82.5,972.7344,78.5,968.7344" style="stroke:#181818;stroke-width:1.0;"/><line style="stroke:#181818;stroke-width:1.0;stroke-dasharray:2.0,2.0;" x1="76.5" x2="309.5" y1="968.7344" y2="968.7344"/><text fill="#000000" font-family="sans-serif" font-size="13" lengthAdjust="spacing" textLength="215" x="88.5" y="963.8779">Presenta INVESTIGADOR_ABIERTO</text><line style="stroke:#000000;stroke-width:1.0;stroke-dasharray:2.0,2.0;" x1="10" x2="2400" y1="984.7344" y2="984.7344"/><text fill="#000000" font-family="sans-serif" font-size="11" font-weight="bold" lengthAdjust="spacing" textLength="148" x="15" y="996.1533">[Sesion ausente o invalida]</text><polygon fill="#181818" points="664.5,1017.9219,654.5,1021.9219,664.5,1025.9219,660.5,1021.9219" style="stroke:#181818;stroke-width:1.0;"/><line style="stroke:#181818;stroke-width:1.0;stroke-dasharray:2.0,2.0;" x1="658.5" x2="890.5" y1="1021.9219" y2="1021.9219"/><text fill="#000000" font-family="sans-serif" font-size="13" lengthAdjust="spacing" textLength="150" x="670.5" y="1017.0654">SesionNoValidaException</text><polygon fill="#181818" points="331.5,1048.2734,321.5,1052.2734,331.5,1056.2734,327.5,1052.2734" style="stroke:#181818;stroke-width:1.0;"/><line style="stroke:#181818;stroke-width:1.0;stroke-dasharray:2.0,2.0;" x1="325.5" x2="652.5" y1="1052.2734" y2="1052.2734"/><text fill="#000000" font-family="sans-serif" font-size="13" lengthAdjust="spacing" textLength="101" x="337.5" y="1047.417">401 Unauthorized</text><polygon fill="#181818" points="82.5,1078.625,72.5,1082.625,82.5,1086.625,78.5,1082.625" style="stroke:#181818;stroke-width:1.0;"/><line style="stroke:#181818;stroke-width:1.0;stroke-dasharray:2.0,2.0;" x1="76.5" x2="309.5" y1="1082.625" y2="1082.625"/><text fill="#000000" font-family="sans-serif" font-size="13" lengthAdjust="spacing" textLength="146" x="88.5" y="1077.7686">Presenta error de acceso</text><!--SRC=[jLLjJzim4FxUNt7YKvbusyGdD40D2InxQL5ucIOX8JU-TTQ27TbEHOVuxpixJfgqmD2qLMhbdkyUt_FS-Mo5BH1YmMQQtJ7W20Rp2cKk66p3QAg51Y7dQAoOCQuqvEfEGTgn30OijxJHivLCMv6BaaaB6zsT62qh2ZndCxoHmmmfTdC3c85JhQH5oPyFFI47hIXOK-H5gOMSGQHKY1-LeXzwWKOeUO5wBdBqBhNb-GFwldxTTxuo5TD2PLWg8uZpmhjsh7ttSwqMIDgi-7VD0yuicpA3i16vNz8_PbOPxnX7Wq4tFzW-QcKwe0mBp7CYnFe5cWiZfWMwgeWvixXKjbau79Bh0CwIIzXbfTZj0g3PVH3yyRWCQQRyy66vFdwyaITA_HHOzufNj3tA5O6-xe1Qx0DGKpeITVrtbDkA5KDMsHyeIIXcoRYvZ0yLOeKDIvYpGd0s0Fe4otQJVVq_GrCgQN1OrMNO0kgHJH_0SHNOMTlyV87R14DZ3cjAMo3u5dHeruWTlBezwhpyse5sMk40lWl9eqNAXuBNqPrTvnn7n27vd9nSmXiupIPV850myFL3aYMK0Xp2iG-D8y-xXq_Cgy9IoLmbIjH66EilxlfXNRvX0tP9MsgVcXS9JjVBun6Q8K0kjAFkF6TE7rPupnN2tLwk6SUKXP2v9UQzfahvH7FKqMAixgOQHoOFKky4rZkDJExJnLtHAaulBjCnBSgT85jJ9WCbV9oauzPms-zheCfFQ5ViB1sSn2KT7IIdlP1ElNKCaonECeY-aPVqcRSvXfhq9NYvAElKkfNvJBxi_NBVL7SeZtmW5ZGSLYhKa70ZsSyThbvN8j-Kozv-bUfhKg-rw7-HfDdfTQkRPKtNzkQZa7ZlmUc6Af2gdOLhiZGp9AF7JXirLedCtVD2CCbzZgLjfiNQ75dU-tQOzCRo_ju-Z9M5KrM5D5SWt8nipCk9J1XTAeuv6YAoCjo94nTkuBMqV6UaJpq0pv9-uZrkfkZVSNwtjmUJJpSoW3KP44ZHI_zVo96EhnCQ06UZU9BTZg8qoIudRLTuCS8xmIeJ6e5I-DChCbRNtgLV_1SUa9MQluKhwLurcfU_a0-UuVWQVgWrrP1k2ijpD6hWQ7MW6eZV]--></g></svg>