<svg xmlns="http://www.w3.org/2000/svg" xmlns:xlink="http://www.w3.org/1999/xlink" contentStyleType="text/css" height="981px" preserveAspectRatio="none" style="width:1597px;height:981px;background:#FFFFFF;" version="1.1" viewBox="0 0 1597 981" width="1597px" zoomAndPan="magnify"><title>Diagrama de secuencia - Abrir carga de trabajo propia del Investigador</title><defs/><g><text fill="#000000" font-family="sans-serif" font-size="14" font-weight="bold" lengthAdjust="spacing" textLength="471.4814" x="563.8958" y="29.5332">Diagrama de secuencia - Abrir carga de trabajo propia del Investigador</text><rect fill="#FFFFFF" height="735.4063" style="stroke:#181818;stroke-width:1;" width="10" x="401.5713" y="153.5703"/><rect fill="#FFFFFF" height="449.7578" style="stroke:#181818;stroke-width:1;" width="10" x="611.1729" y="243.625"/><rect fill="#FFFFFF" height="55.7031" style="stroke:#181818;stroke-width:1;" width="10" x="849.7534" y="273.9766"/><rect fill="#FFFFFF" height="286.6484" style="stroke:#181818;stroke-width:1;" width="10" x="984.6392" y="360.0313"/><rect fill="#FFFFFF" height="30.3516" style="stroke:#181818;stroke-width:1;" width="10" x="1173.979" y="451.0859"/><rect fill="none" height="593" style="stroke:#000000;stroke-width:1.5;" width="1580.2729" x="10" y="288.9766"/><rect fill="none" height="120.8906" style="stroke:#000000;stroke-width:1.5;" width="272.481" x="906.498" y="496.4375"/><line style="stroke:#181818;stroke-width:0.5;stroke-dasharray:5.0,5.0;" x1="61" x2="61" y1="121.2188" y2="898.9766"/><line style="stroke:#181818;stroke-width:0.5;stroke-dasharray:5.0,5.0;" x1="406.189" x2="406.189" y1="121.2188" y2="898.9766"/><line style="stroke:#181818;stroke-width:0.5;stroke-dasharray:5.0,5.0;" x1="616.0283" x2="616.0283" y1="121.2188" y2="898.9766"/><line style="stroke:#181818;stroke-width:0.5;stroke-dasharray:5.0,5.0;" x1="854.0088" x2="854.0088" y1="121.2188" y2="898.9766"/><line style="stroke:#181818;stroke-width:0.5;stroke-dasharray:5.0,5.0;" x1="989.498" x2="989.498" y1="121.2188" y2="898.9766"/><line style="stroke:#181818;stroke-width:0.5;stroke-dasharray:5.0,5.0;" x1="1178.7207" x2="1178.7207" y1="121.2188" y2="898.9766"/><line style="stroke:#181818;stroke-width:0.5;stroke-dasharray:5.0,5.0;" x1="1530.439" x2="1530.439" y1="121.2188" y2="898.9766"/><text fill="#000000" font-family="sans-serif" font-size="14" lengthAdjust="spacing" textLength="76.2686" x="20" y="118.1426">Investigador</text><ellipse cx="61.1343" cy="52.1094" fill="#E2E2F0" rx="8" ry="8" style="stroke:#181818;stroke-width:0.5;"/><path d="M61.1343,60.1094 L61.1343,87.1094 M48.1343,68.1094 L74.1343,68.1094 M61.1343,87.1094 L48.1343,102.1094 M61.1343,87.1094 L74.1343,102.1094 " fill="none" style="stroke:#181818;stroke-width:0.5;"/><text fill="#000000" font-family="sans-serif" font-size="14" lengthAdjust="spacing" textLength="76.2686" x="20" y="912.5098">Investigador</text><ellipse cx="61.1343" cy="924.0859" fill="#E2E2F0" rx="8" ry="8" style="stroke:#181818;stroke-width:0.5;"/><path d="M61.1343,932.0859 L61.1343,959.0859 M48.1343,940.0859 L74.1343,940.0859 M61.1343,959.0859 L48.1343,974.0859 M61.1343,959.0859 L74.1343,974.0859 " fill="none" style="stroke:#181818;stroke-width:0.5;"/><rect fill="#E2E2F0" height="49.2188" rx="2.5" ry="2.5" style="stroke:#181818;stroke-width:0.5;" width="172.7646" x="320.189" y="71"/><text fill="#000000" font-family="sans-serif" font-size="14" lengthAdjust="spacing" textLength="158.7646" x="327.189" y="92.5332">CargaTrabajoPropiaPage</text><text fill="#000000" font-family="sans-serif" font-size="14" lengthAdjust="spacing" textLength="45.8965" x="383.623" y="110.1426">(React)</text><rect fill="#E2E2F0" height="49.2188" rx="2.5" ry="2.5" style="stroke:#181818;stroke-width:0.5;" width="172.7646" x="320.189" y="897.9766"/><text fill="#000000" font-family="sans-serif" font-size="14" lengthAdjust="spacing" textLength="158.7646" x="327.189" y="919.5098">CargaTrabajoPropiaPage</text><text fill="#000000" font-family="sans-serif" font-size="14" lengthAdjust="spacing" textLength="45.8965" x="383.623" y="937.1191">(React)</text><rect fill="#E2E2F0" height="49.2188" rx="2.5" ry="2.5" style="stroke:#181818;stroke-width:0.5;" width="160.2891" x="536.0283" y="71"/><text fill="#000000" font-family="sans-serif" font-size="14" lengthAdjust="spacing" textLength="146.2891" x="543.0283" y="92.5332">CargaTrabajoController</text><text fill="#000000" font-family="sans-serif" font-size="14" lengthAdjust="spacing" textLength="82.4824" x="574.9316" y="110.1426">(Spring Boot)</text><rect fill="#E2E2F0" height="49.2188" rx="2.5" ry="2.5" style="stroke:#181818;stroke-width:0.5;" width="160.2891" x="536.0283" y="897.9766"/><text fill="#000000" font-family="sans-serif" font-size="14" lengthAdjust="spacing" textLength="146.2891" x="543.0283" y="919.5098">CargaTrabajoController</text><text fill="#000000" font-family="sans-serif" font-size="14" lengthAdjust="spacing" textLength="82.4824" x="574.9316" y="937.1191">(Spring Boot)</text><rect fill="#E2E2F0" height="31.6094" rx="2.5" ry="2.5" style="stroke:#181818;stroke-width:0.5;" width="103.4893" x="803.0088" y="88.6094"/><text fill="#000000" font-family="sans-serif" font-size="14" lengthAdjust="spacing" textLength="89.4893" x="810.0088" y="110.1426">SesionService</text><rect fill="#E2E2F0" height="31.6094" rx="2.5" ry="2.5" style="stroke:#181818;stroke-width:0.5;" width="103.4893" x="803.0088" y="897.9766"/><text fill="#000000" font-family="sans-serif" font-size="14" lengthAdjust="spacing" textLength="89.4893" x="810.0088" y="919.5098">SesionService</text><rect fill="#E2E2F0" height="31.6094" rx="2.5" ry="2.5" style="stroke:#181818;stroke-width:0.5;" width="146.2822" x="916.498" y="88.6094"/><text fill="#000000" font-family="sans-serif" font-size="14" lengthAdjust="spacing" textLength="132.2822" x="923.498" y="110.1426">CargaTrabajoService</text><rect fill="#E2E2F0" height="31.6094" rx="2.5" ry="2.5" style="stroke:#181818;stroke-width:0.5;" width="146.2822" x="916.498" y="897.9766"/><text fill="#000000" font-family="sans-serif" font-size="14" lengthAdjust="spacing" textLength="132.2822" x="923.498" y="919.5098">CargaTrabajoService</text><rect fill="#E2E2F0" height="31.6094" rx="2.5" ry="2.5" style="stroke:#181818;stroke-width:0.5;" width="166.5166" x="1095.7207" y="88.6094"/><text fill="#000000" font-family="sans-serif" font-size="14" lengthAdjust="spacing" textLength="152.5166" x="1102.7207" y="110.1426">CargaTrabajoRepository</text><rect fill="#E2E2F0" height="31.6094" rx="2.5" ry="2.5" style="stroke:#181818;stroke-width:0.5;" width="166.5166" x="1095.7207" y="897.9766"/><text fill="#000000" font-family="sans-serif" font-size="14" lengthAdjust="spacing" textLength="152.5166" x="1102.7207" y="919.5098">CargaTrabajoRepository</text><text fill="#000000" font-family="sans-serif" font-size="14" lengthAdjust="spacing" textLength="91.834" x="1482.439" y="118.1426">Base de Datos</text><path d="M1513.356,67.6094 C1513.356,57.6094 1531.356,57.6094 1531.356,57.6094 C1531.356,57.6094 1549.356,57.6094 1549.356,67.6094 L1549.356,93.6094 C1549.356,103.6094 1531.356,103.6094 1531.356,103.6094 C1531.356,103.6094 1513.356,103.6094 1513.356,93.6094 L1513.356,67.6094 " fill="#E2E2F0" style="stroke:#181818;stroke-width:1.5;"/><path d="M1513.356,67.6094 C1513.356,77.6094 1531.356,77.6094 1531.356,77.6094 C1531.356,77.6094 1549.356,77.6094 1549.356,67.6094 " fill="none" style="stroke:#181818;stroke-width:1.5;"/><text fill="#000000" font-family="sans-serif" font-size="14" lengthAdjust="spacing" textLength="91.834" x="1482.439" y="912.5098">Base de Datos</text><path d="M1513.356,925.5859 C1513.356,915.5859 1531.356,915.5859 1531.356,915.5859 C1531.356,915.5859 1549.356,915.5859 1549.356,925.5859 L1549.356,951.5859 C1549.356,961.5859 1531.356,961.5859 1531.356,961.5859 C1531.356,961.5859 1513.356,961.5859 1513.356,951.5859 L1513.356,925.5859 " fill="#E2E2F0" style="stroke:#181818;stroke-width:1.5;"/><path d="M1513.356,925.5859 C1513.356,935.5859 1531.356,935.5859 1531.356,935.5859 C1531.356,935.5859 1549.356,935.5859 1549.356,925.5859 " fill="none" style="stroke:#181818;stroke-width:1.5;"/><rect fill="#FFFFFF" height="735.4063" style="stroke:#181818;stroke-width:1;" width="10" x="401.5713" y="153.5703"/><rect fill="#FFFFFF" height="449.7578" style="stroke:#181818;stroke-width:1;" width="10" x="611.1729" y="243.625"/><rect fill="#FFFFFF" height="55.7031" style="stroke:#181818;stroke-width:1;" width="10" x="849.7534" y="273.9766"/><rect fill="#FFFFFF" height="286.6484" style="stroke:#181818;stroke-width:1;" width="10" x="984.6392" y="360.0313"/><rect fill="#FFFFFF" height="30.3516" style="stroke:#181818;stroke-width:1;" width="10" x="1173.979" y="451.0859"/><polygon fill="#181818" points="389.5713,149.5703,399.5713,153.5703,389.5713,157.5703,393.5713,153.5703" style="stroke:#181818;stroke-width:1;"/><line style="stroke:#181818;stroke-width:1;" x1="61.1343" x2="395.5713" y1="153.5703" y2="153.5703"/><text fill="#000000" font-family="sans-serif" font-size="13" lengthAdjust="spacing" textLength="169.0889" x="68.1343" y="148.7139">Solicita abrir carga de trabajo</text><line style="stroke:#181818;stroke-width:1;" x1="411.5713" x2="453.5713" y1="183.9219" y2="183.9219"/><line style="stroke:#181818;stroke-width:1;" x1="453.5713" x2="453.5713" y1="183.9219" y2="196.9219"/><line style="stroke:#181818;stroke-width:1;" x1="412.5713" x2="453.5713" y1="196.9219" y2="196.9219"/><polygon fill="#181818" points="422.5713,192.9219,412.5713,196.9219,422.5713,200.9219,418.5713,196.9219" style="stroke:#181818;stroke-width:1;"/><text fill="#000000" font-family="sans-serif" font-size="13" lengthAdjust="spacing" textLength="136.5635" x="418.5713" y="179.0654">Comprobar sesion local</text><polygon fill="#181818" points="599.1729,239.625,609.1729,243.625,599.1729,247.625,603.1729,243.625" style="stroke:#181818;stroke-width:1;"/><line style="stroke:#181818;stroke-width:1;" x1="411.5713" x2="605.1729" y1="243.625" y2="243.625"/><text fill="#000000" font-family="sans-serif" font-size="13" lengthAdjust="spacing" textLength="153.1753" x="418.5713" y="222.417">GET /api/carga-trabajo/me</text><text fill="#000000" font-family="sans-serif" font-size="13" lengthAdjust="spacing" textLength="99.728" x="418.5713" y="238.7686">Cookie de sesion</text><polygon fill="#181818" points="837.7534,269.9766,847.7534,273.9766,837.7534,277.9766,841.7534,273.9766" style="stroke:#181818;stroke-width:1;"/><line style="stroke:#181818;stroke-width:1;" x1="621.1729" x2="843.7534" y1="273.9766" y2="273.9766"/><text fill="#000000" font-family="sans-serif" font-size="13" lengthAdjust="spacing" textLength="209.5806" x="628.1729" y="269.1201">obtenerSesionActual(authentication)</text><path d="M10,288.9766 L70.1709,288.9766 L70.1709,297.3281 L60.1709,307.3281 L10,307.3281 L10,288.9766 " fill="#EEEEEE" style="stroke:#000000;stroke-width:1.5;"/><rect fill="none" height="593" style="stroke:#000000;stroke-width:1.5;" width="1580.2729" x="10" y="288.9766"/><text fill="#000000" font-family="sans-serif" font-size="13" font-weight="bold" lengthAdjust="spacing" textLength="15.1709" x="25" y="303.4717">alt</text><text fill="#000000" font-family="sans-serif" font-size="11" font-weight="bold" lengthAdjust="spacing" textLength="77.6392" x="85.1709" y="302.3955">[Sesion activa]</text><polygon fill="#181818" points="632.1729,325.6797,622.1729,329.6797,632.1729,333.6797,628.1729,329.6797" style="stroke:#181818;stroke-width:1;"/><line style="stroke:#181818;stroke-width:1;stroke-dasharray:2.0,2.0;" x1="626.1729" x2="853.7534" y1="329.6797" y2="329.6797"/><text fill="#000000" font-family="sans-serif" font-size="13" lengthAdjust="spacing" textLength="98.2871" x="638.1729" y="324.8232">SesionResponse</text><polygon fill="#181818" points="972.6392,356.0313,982.6392,360.0313,972.6392,364.0313,976.6392,360.0313" style="stroke:#181818;stroke-width:1;"/><line style="stroke:#181818;stroke-width:1;" x1="621.1729" x2="978.6392" y1="360.0313" y2="360.0313"/><text fill="#000000" font-family="sans-serif" font-size="13" lengthAdjust="spacing" textLength="195.8315" x="628.1729" y="355.1748">obtenerCargaPropia(investigador)</text><polygon fill="#181818" points="1166.979,386.3828,1176.979,390.3828,1166.979,394.3828,1170.979,390.3828" style="stroke:#181818;stroke-width:1;"/><line style="stroke:#181818;stroke-width:1;" x1="994.6392" x2="1172.979" y1="390.3828" y2="390.3828"/><text fill="#000000" font-family="sans-serif" font-size="13" lengthAdjust="spacing" textLength="159.6816" x="1001.6392" y="385.5264">findByUsuario(investigador)</text><polygon fill="#181818" points="1519.356,416.7344,1529.356,420.7344,1519.356,424.7344,1523.356,420.7344" style="stroke:#181818;stroke-width:1;"/><line style="stroke:#181818;stroke-width:1;" x1="1178.979" x2="1525.356" y1="420.7344" y2="420.7344"/><text fill="#000000" font-family="sans-serif" font-size="13" lengthAdjust="spacing" textLength="328.377" x="1185.979" y="415.8779">SELECT * FROM cargas_trabajo WHERE usuario_id = ?</text><polygon fill="#181818" points="1194.979,447.0859,1184.979,451.0859,1194.979,455.0859,1190.979,451.0859" style="stroke:#181818;stroke-width:1;"/><line style="stroke:#181818;stroke-width:1;stroke-dasharray:2.0,2.0;" x1="1188.979" x2="1530.356" y1="451.0859" y2="451.0859"/><text fill="#000000" font-family="sans-serif" font-size="13" lengthAdjust="spacing" textLength="149.5889" x="1200.979" y="446.2295">Resultado de persistencia</text><polygon fill="#181818" points="1005.6392,477.4375,995.6392,481.4375,1005.6392,485.4375,1001.6392,481.4375" style="stroke:#181818;stroke-width:1;"/><line style="stroke:#181818;stroke-width:1;stroke-dasharray:2.0,2.0;" x1="999.6392" x2="1177.979" y1="481.4375" y2="481.4375"/><text fill="#000000" font-family="sans-serif" font-size="13" lengthAdjust="spacing" textLength="79.4854" x="1011.6392" y="476.5811">CargaTrabajo</text><path d="M906.498,496.4375 L966.6689,496.4375 L966.6689,504.7891 L956.6689,514.7891 L906.498,514.7891 L906.498,496.4375 " fill="#EEEEEE" style="stroke:#000000;stroke-width:1.5;"/><rect fill="none" height="120.8906" style="stroke:#000000;stroke-width:1.5;" width="272.481" x="906.498" y="496.4375"/><text fill="#000000" font-family="sans-serif" font-size="13" font-weight="bold" lengthAdjust="spacing" textLength="15.1709" x="921.498" y="510.9326">alt</text><text fill="#000000" font-family="sans-serif" font-size="11" font-weight="bold" lengthAdjust="spacing" textLength="181.5483" x="981.6689" y="509.8564">[Sede con docencia investigadora]</text><line style="stroke:#181818;stroke-width:1;" x1="994.6392" x2="1036.6392" y1="537.1406" y2="537.1406"/><line style="stroke:#181818;stroke-width:1;" x1="1036.6392" x2="1036.6392" y1="537.1406" y2="550.1406"/><line style="stroke:#181818;stroke-width:1;" x1="995.6392" x2="1036.6392" y1="550.1406" y2="550.1406"/><polygon fill="#181818" points="1005.6392,546.1406,995.6392,550.1406,1005.6392,554.1406,1001.6392,550.1406" style="stroke:#181818;stroke-width:1;"/><text fill="#000000" font-family="sans-serif" font-size="13" lengthAdjust="spacing" textLength="155.3398" x="1001.6392" y="532.2842">mapearCarga(maximo16h)</text><line style="stroke:#000000;stroke-width:1;stroke-dasharray:2.0,2.0;" x1="906.498" x2="1178.979" y1="559.1406" y2="559.1406"/><text fill="#000000" font-family="sans-serif" font-size="11" font-weight="bold" lengthAdjust="spacing" textLength="133.8638" x="911.498" y="570.5596">[Sede solo investigadora]</text><line style="stroke:#181818;stroke-width:1;" x1="994.6392" x2="1036.6392" y1="596.3281" y2="596.3281"/><line style="stroke:#181818;stroke-width:1;" x1="1036.6392" x2="1036.6392" y1="596.3281" y2="609.3281"/><line style="stroke:#181818;stroke-width:1;" x1="995.6392" x2="1036.6392" y1="609.3281" y2="609.3281"/><polygon fill="#181818" points="1005.6392,605.3281,995.6392,609.3281,1005.6392,613.3281,1001.6392,609.3281" style="stroke:#181818;stroke-width:1;"/><text fill="#000000" font-family="sans-serif" font-size="13" lengthAdjust="spacing" textLength="88.1436" x="1001.6392" y="591.4717">mapearCarga()</text><polygon fill="#181818" points="632.1729,642.6797,622.1729,646.6797,632.1729,650.6797,628.1729,646.6797" style="stroke:#181818;stroke-width:1;"/><line style="stroke:#181818;stroke-width:1;stroke-dasharray:2.0,2.0;" x1="626.1729" x2="988.6392" y1="646.6797" y2="646.6797"/><text fill="#000000" font-family="sans-serif" font-size="13" lengthAdjust="spacing" textLength="175.6016" x="638.1729" y="641.8232">CargaTrabajoPropiaResponse</text><polygon fill="#181818" points="422.5713,689.3828,412.5713,693.3828,422.5713,697.3828,418.5713,693.3828" style="stroke:#181818;stroke-width:1;"/><line style="stroke:#181818;stroke-width:1;stroke-dasharray:2.0,2.0;" x1="416.5713" x2="615.1729" y1="693.3828" y2="693.3828"/><text fill="#000000" font-family="sans-serif" font-size="13" lengthAdjust="spacing" textLength="44.0845" x="428.5713" y="672.1748">200 OK</text><text fill="#000000" font-family="sans-serif" font-size="13" lengthAdjust="spacing" textLength="175.6016" x="428.5713" y="688.5264">CargaTrabajoPropiaResponse</text><line style="stroke:#181818;stroke-width:1;" x1="411.5713" x2="453.5713" y1="723.7344" y2="723.7344"/><line style="stroke:#181818;stroke-width:1;" x1="453.5713" x2="453.5713" y1="723.7344" y2="736.7344"/><line style="stroke:#181818;stroke-width:1;" x1="412.5713" x2="453.5713" y1="736.7344" y2="736.7344"/><polygon fill="#181818" points="422.5713,732.7344,412.5713,736.7344,422.5713,740.7344,418.5713,736.7344" style="stroke:#181818;stroke-width:1;"/><text fill="#000000" font-family="sans-serif" font-size="13" lengthAdjust="spacing" textLength="157.5234" x="418.5713" y="718.8779">Renderizar resumen propio</text><polygon fill="#181818" points="72.1343,763.0859,62.1343,767.0859,72.1343,771.0859,68.1343,767.0859" style="stroke:#181818;stroke-width:1;"/><line style="stroke:#181818;stroke-width:1;stroke-dasharray:2.0,2.0;" x1="66.1343" x2="400.5713" y1="767.0859" y2="767.0859"/><text fill="#000000" font-family="sans-serif" font-size="13" lengthAdjust="spacing" textLength="316.437" x="78.1343" y="762.2295">Presenta OPCIONES_CARGA_TRABAJO_ABIERTAS</text><line style="stroke:#000000;stroke-width:1;stroke-dasharray:2.0,2.0;" x1="10" x2="1590.2729" y1="776.0859" y2="776.0859"/><text fill="#000000" font-family="sans-serif" font-size="11" font-weight="bold" lengthAdjust="spacing" textLength="88.0215" x="15" y="787.5049">[Sesion ausente]</text><polygon fill="#181818" points="627.1729,809.2734,617.1729,813.2734,627.1729,817.2734,623.1729,813.2734" style="stroke:#181818;stroke-width:1;"/><line style="stroke:#181818;stroke-width:1;stroke-dasharray:2.0,2.0;" x1="621.1729" x2="853.7534" y1="813.2734" y2="813.2734"/><text fill="#000000" font-family="sans-serif" font-size="13" lengthAdjust="spacing" textLength="149.5952" x="633.1729" y="808.417">SesionNoValidaException</text><polygon fill="#181818" points="422.5713,839.625,412.5713,843.625,422.5713,847.625,418.5713,843.625" style="stroke:#181818;stroke-width:1;"/><line style="stroke:#181818;stroke-width:1;stroke-dasharray:2.0,2.0;" x1="416.5713" x2="615.1729" y1="843.625" y2="843.625"/><text fill="#000000" font-family="sans-serif" font-size="13" lengthAdjust="spacing" textLength="102.6289" x="428.5713" y="838.7686">401 Unauthorized</text><polygon fill="#181818" points="72.1343,869.9766,62.1343,873.9766,72.1343,877.9766,68.1343,873.9766" style="stroke:#181818;stroke-width:1;"/><line style="stroke:#181818;stroke-width:1;stroke-dasharray:2.0,2.0;" x1="66.1343" x2="400.5713" y1="873.9766" y2="873.9766"/><text fill="#000000" font-family="sans-serif" font-size="13" lengthAdjust="spacing" textLength="175.5635" x="78.1343" y="869.1201">Presenta SESION_CERRADA</text><!--SRC=[dLJlRvim4FtENt7gftHIr7QQzY7IDW6XNVUZYI3TlaoABd1BlG56jgdQ_VKxsuH0rdJJ8WMPu-wTxpq_6s5AWhd0hS8AeI3GbBTKvm9X2k562GKvggtxP1Hky8U4Hib6s4W9r_KzQIEsM4WL19WRgSQn1fKHkMYmDd0IMwILHrawa2LkwLizIObBJqy0DLmgMHkgY-ELCISeMPQak39hbAYt44dPrOUD69Tcf8MiCrBt8YUNuYF76unptVfuSagDr8BdVdJvxfED1GKQJj049v5zCdzpD5Axh7aK14EQOFgs7tm6cIovbK709_ctD8jxDBJdQhSOuyIoOgasg5XKEp6KCiTobCnipU0gMS4PDkBCTPfsRSugLYQMygSWVouSQNrlopF_BOZdSmPomx2a_6kOcnRB2RRcZcgc3Wq7J_VrdGXOccu9_bC0_EiYqzqE_NjAkf6r9fTIq26KZVOxSghrMtAg-1Ct4GFUJrtH0CYBxRVWrXQjrtG6tqLTH8-tkaKbv1DGVQgjcqUyy-HJ4g_W1LocYyzUIhtU6Udh-oHDeFLeQr706tZdOEQHcttGc6TlIyEDh1ODAIsqSJOTJx0_VWUx6P8oFBw7N8u1l3hSCMSr2fdxYs4ujkz_G5ZVgSA6qBC_gV11LFBYzPrdYafD7blBKludPWV53XXbxuxDd_VDyIEqLzwTeP6HNfwVm-8Zk-6VyQmxREXfOwRy92L-iJCLwrfHxUzKUL33HSDROWPBJcSt8IoMyVNY9idMSPXUXUjL6aRXXyKwZAwJT1LcGSUkzrLhQ-WPOzt8BrYA0fE7d1gpyz8p3XjDy-hy0cvhQtJ9Cr7nTowEpvKb6S-rZfCq3UTXO9KT8EqGVWC0]--></g></svg>