<svg xmlns="http://www.w3.org/2000/svg" xmlns:xlink="http://www.w3.org/1999/xlink" contentStyleType="text/css" height="889px" preserveAspectRatio="none" style="width:1739px;height:889px;background:#FFFFFF;" version="1.1" viewBox="0 0 1739 889" width="1739px" zoomAndPan="magnify"><title>Diagrama de secuencia - Abrir carga de trabajo propia del Investigador</title><defs/><g><text fill="#000000" font-family="sans-serif" font-size="14" font-weight="bold" lengthAdjust="spacing" textLength="471.4814" x="634.9419" y="29.5332">Diagrama de secuencia - Abrir carga de trabajo propia del Investigador</text><rect fill="#FFFFFF" height="643.8672" style="stroke:#181818;stroke-width:1;" width="10" x="401.5713" y="153.5703"/><rect fill="#FFFFFF" height="358.2188" style="stroke:#181818;stroke-width:1;" width="10" x="741.2173" y="243.625"/><rect fill="#FFFFFF" height="55.7031" style="stroke:#181818;stroke-width:1;" width="10" x="980.3989" y="273.9766"/><rect fill="#FFFFFF" height="195.1094" style="stroke:#181818;stroke-width:1;" width="10" x="1115.2847" y="360.0313"/><rect fill="#FFFFFF" height="30.3516" style="stroke:#181818;stroke-width:1;" width="10" x="1460.7007" y="390.3828"/><rect fill="#FFFFFF" height="30.3516" style="stroke:#181818;stroke-width:1;" width="10" x="1635.6621" y="494.4375"/><rect fill="none" height="501.4609" style="stroke:#000000;stroke-width:1.5;" width="1722.3652" x="10" y="288.9766"/><line style="stroke:#181818;stroke-width:0.5;stroke-dasharray:5.0,5.0;" x1="61" x2="61" y1="121.2188" y2="807.4375"/><line style="stroke:#181818;stroke-width:0.5;stroke-dasharray:5.0,5.0;" x1="406.189" x2="406.189" y1="121.2188" y2="807.4375"/><line style="stroke:#181818;stroke-width:0.5;stroke-dasharray:5.0,5.0;" x1="746.0728" x2="746.0728" y1="121.2188" y2="807.4375"/><line style="stroke:#181818;stroke-width:0.5;stroke-dasharray:5.0,5.0;" x1="984.6543" x2="984.6543" y1="121.2188" y2="807.4375"/><line style="stroke:#181818;stroke-width:0.5;stroke-dasharray:5.0,5.0;" x1="1120.1436" x2="1120.1436" y1="121.2188" y2="807.4375"/><line style="stroke:#181818;stroke-width:0.5;stroke-dasharray:5.0,5.0;" x1="1465.4424" x2="1465.4424" y1="121.2188" y2="807.4375"/><line style="stroke:#181818;stroke-width:0.5;stroke-dasharray:5.0,5.0;" x1="1639.959" x2="1639.959" y1="121.2188" y2="807.4375"/><text fill="#000000" font-family="sans-serif" font-size="14" lengthAdjust="spacing" textLength="76.2686" x="20" y="118.1426">Investigador</text><ellipse cx="61.1343" cy="52.1094" fill="#E2E2F0" rx="8" ry="8" style="stroke:#181818;stroke-width:0.5;"/><path d="M61.1343,60.1094 L61.1343,87.1094 M48.1343,68.1094 L74.1343,68.1094 M61.1343,87.1094 L48.1343,102.1094 M61.1343,87.1094 L74.1343,102.1094 " fill="none" style="stroke:#181818;stroke-width:0.5;"/><text fill="#000000" font-family="sans-serif" font-size="14" lengthAdjust="spacing" textLength="76.2686" x="20" y="820.9707">Investigador</text><ellipse cx="61.1343" cy="832.5469" fill="#E2E2F0" rx="8" ry="8" style="stroke:#181818;stroke-width:0.5;"/><path d="M61.1343,840.5469 L61.1343,867.5469 M48.1343,848.5469 L74.1343,848.5469 M61.1343,867.5469 L48.1343,882.5469 M61.1343,867.5469 L74.1343,882.5469 " fill="none" style="stroke:#181818;stroke-width:0.5;"/><rect fill="#E2E2F0" height="49.2188" rx="2.5" ry="2.5" style="stroke:#181818;stroke-width:0.5;" width="172.7646" x="320.189" y="71"/><text fill="#000000" font-family="sans-serif" font-size="14" lengthAdjust="spacing" textLength="158.7646" x="327.189" y="92.5332">CargaTrabajoPropiaPage</text><text fill="#000000" font-family="sans-serif" font-size="14" lengthAdjust="spacing" textLength="45.8965" x="383.623" y="110.1426">(React)</text><rect fill="#E2E2F0" height="49.2188" rx="2.5" ry="2.5" style="stroke:#181818;stroke-width:0.5;" width="172.7646" x="320.189" y="806.4375"/><text fill="#000000" font-family="sans-serif" font-size="14" lengthAdjust="spacing" textLength="158.7646" x="327.189" y="827.9707">CargaTrabajoPropiaPage</text><text fill="#000000" font-family="sans-serif" font-size="14" lengthAdjust="spacing" textLength="45.8965" x="383.623" y="845.5801">(React)</text><rect fill="#E2E2F0" height="49.2188" rx="2.5" ry="2.5" style="stroke:#181818;stroke-width:0.5;" width="160.2891" x="666.0728" y="71"/><text fill="#000000" font-family="sans-serif" font-size="14" lengthAdjust="spacing" textLength="146.2891" x="673.0728" y="92.5332">CargaTrabajoController</text><text fill="#000000" font-family="sans-serif" font-size="14" lengthAdjust="spacing" textLength="82.4824" x="704.9761" y="110.1426">(Spring Boot)</text><rect fill="#E2E2F0" height="49.2188" rx="2.5" ry="2.5" style="stroke:#181818;stroke-width:0.5;" width="160.2891" x="666.0728" y="806.4375"/><text fill="#000000" font-family="sans-serif" font-size="14" lengthAdjust="spacing" textLength="146.2891" x="673.0728" y="827.9707">CargaTrabajoController</text><text fill="#000000" font-family="sans-serif" font-size="14" lengthAdjust="spacing" textLength="82.4824" x="704.9761" y="845.5801">(Spring Boot)</text><rect fill="#E2E2F0" height="31.6094" rx="2.5" ry="2.5" style="stroke:#181818;stroke-width:0.5;" width="103.4893" x="933.6543" y="88.6094"/><text fill="#000000" font-family="sans-serif" font-size="14" lengthAdjust="spacing" textLength="89.4893" x="940.6543" y="110.1426">SesionService</text><rect fill="#E2E2F0" height="31.6094" rx="2.5" ry="2.5" style="stroke:#181818;stroke-width:0.5;" width="103.4893" x="933.6543" y="806.4375"/><text fill="#000000" font-family="sans-serif" font-size="14" lengthAdjust="spacing" textLength="89.4893" x="940.6543" y="827.9707">SesionService</text><rect fill="#E2E2F0" height="31.6094" rx="2.5" ry="2.5" style="stroke:#181818;stroke-width:0.5;" width="146.2822" x="1047.1436" y="88.6094"/><text fill="#000000" font-family="sans-serif" font-size="14" lengthAdjust="spacing" textLength="132.2822" x="1054.1436" y="110.1426">CargaTrabajoService</text><rect fill="#E2E2F0" height="31.6094" rx="2.5" ry="2.5" style="stroke:#181818;stroke-width:0.5;" width="146.2822" x="1047.1436" y="806.4375"/><text fill="#000000" font-family="sans-serif" font-size="14" lengthAdjust="spacing" textLength="132.2822" x="1054.1436" y="827.9707">CargaTrabajoService</text><rect fill="#E2E2F0" height="31.6094" rx="2.5" ry="2.5" style="stroke:#181818;stroke-width:0.5;" width="166.5166" x="1382.4424" y="88.6094"/><text fill="#000000" font-family="sans-serif" font-size="14" lengthAdjust="spacing" textLength="152.5166" x="1389.4424" y="110.1426">CargaTrabajoRepository</text><rect fill="#E2E2F0" height="31.6094" rx="2.5" ry="2.5" style="stroke:#181818;stroke-width:0.5;" width="166.5166" x="1382.4424" y="806.4375"/><text fill="#000000" font-family="sans-serif" font-size="14" lengthAdjust="spacing" textLength="152.5166" x="1389.4424" y="827.9707">CargaTrabajoRepository</text><rect fill="#E2E2F0" height="31.6094" rx="2.5" ry="2.5" style="stroke:#181818;stroke-width:0.5;" width="163.4063" x="1558.959" y="88.6094"/><text fill="#000000" font-family="sans-serif" font-size="14" lengthAdjust="spacing" textLength="149.4063" x="1565.959" y="110.1426">RecompensaRepository</text><rect fill="#E2E2F0" height="31.6094" rx="2.5" ry="2.5" style="stroke:#181818;stroke-width:0.5;" width="163.4063" x="1558.959" y="806.4375"/><text fill="#000000" font-family="sans-serif" font-size="14" lengthAdjust="spacing" textLength="149.4063" x="1565.959" y="827.9707">RecompensaRepository</text><rect fill="#FFFFFF" height="643.8672" style="stroke:#181818;stroke-width:1;" width="10" x="401.5713" y="153.5703"/><rect fill="#FFFFFF" height="358.2188" style="stroke:#181818;stroke-width:1;" width="10" x="741.2173" y="243.625"/><rect fill="#FFFFFF" height="55.7031" style="stroke:#181818;stroke-width:1;" width="10" x="980.3989" y="273.9766"/><rect fill="#FFFFFF" height="195.1094" style="stroke:#181818;stroke-width:1;" width="10" x="1115.2847" y="360.0313"/><rect fill="#FFFFFF" height="30.3516" style="stroke:#181818;stroke-width:1;" width="10" x="1460.7007" y="390.3828"/><rect fill="#FFFFFF" height="30.3516" style="stroke:#181818;stroke-width:1;" width="10" x="1635.6621" y="494.4375"/><polygon fill="#181818" points="389.5713,149.5703,399.5713,153.5703,389.5713,157.5703,393.5713,153.5703" style="stroke:#181818;stroke-width:1;"/><line style="stroke:#181818;stroke-width:1;" x1="61.1343" x2="395.5713" y1="153.5703" y2="153.5703"/><text fill="#000000" font-family="sans-serif" font-size="13" lengthAdjust="spacing" textLength="169.0889" x="68.1343" y="148.7139">Solicita abrir carga de trabajo</text><line style="stroke:#181818;stroke-width:1;" x1="411.5713" x2="453.5713" y1="183.9219" y2="183.9219"/><line style="stroke:#181818;stroke-width:1;" x1="453.5713" x2="453.5713" y1="183.9219" y2="196.9219"/><line style="stroke:#181818;stroke-width:1;" x1="412.5713" x2="453.5713" y1="196.9219" y2="196.9219"/><polygon fill="#181818" points="422.5713,192.9219,412.5713,196.9219,422.5713,200.9219,418.5713,196.9219" style="stroke:#181818;stroke-width:1;"/><text fill="#000000" font-family="sans-serif" font-size="13" lengthAdjust="spacing" textLength="136.5635" x="418.5713" y="179.0654">Comprobar sesion local</text><polygon fill="#181818" points="729.2173,239.625,739.2173,243.625,729.2173,247.625,733.2173,243.625" style="stroke:#181818;stroke-width:1;"/><line style="stroke:#181818;stroke-width:1;" x1="411.5713" x2="735.2173" y1="243.625" y2="243.625"/><text fill="#000000" font-family="sans-serif" font-size="13" lengthAdjust="spacing" textLength="153.1753" x="418.5713" y="222.417">GET /api/carga-trabajo/me</text><text fill="#000000" font-family="sans-serif" font-size="13" lengthAdjust="spacing" textLength="99.728" x="418.5713" y="238.7686">Cookie de sesion</text><polygon fill="#181818" points="968.3989,269.9766,978.3989,273.9766,968.3989,277.9766,972.3989,273.9766" style="stroke:#181818;stroke-width:1;"/><line style="stroke:#181818;stroke-width:1;" x1="751.2173" x2="974.3989" y1="273.9766" y2="273.9766"/><text fill="#000000" font-family="sans-serif" font-size="13" lengthAdjust="spacing" textLength="209.5806" x="758.2173" y="269.1201">obtenerSesionActual(authentication)</text><path d="M10,288.9766 L70.1709,288.9766 L70.1709,297.3281 L60.1709,307.3281 L10,307.3281 L10,288.9766 " fill="#EEEEEE" style="stroke:#000000;stroke-width:1.5;"/><rect fill="none" height="501.4609" style="stroke:#000000;stroke-width:1.5;" width="1722.3652" x="10" y="288.9766"/><text fill="#000000" font-family="sans-serif" font-size="13" font-weight="bold" lengthAdjust="spacing" textLength="15.1709" x="25" y="303.4717">alt</text><text fill="#000000" font-family="sans-serif" font-size="11" font-weight="bold" lengthAdjust="spacing" textLength="77.6392" x="85.1709" y="302.3955">[Sesion activa]</text><polygon fill="#181818" points="762.2173,325.6797,752.2173,329.6797,762.2173,333.6797,758.2173,329.6797" style="stroke:#181818;stroke-width:1;"/><line style="stroke:#181818;stroke-width:1;stroke-dasharray:2.0,2.0;" x1="756.2173" x2="984.3989" y1="329.6797" y2="329.6797"/><text fill="#000000" font-family="sans-serif" font-size="13" lengthAdjust="spacing" textLength="205.1816" x="768.2173" y="324.8232">SesionResponse(INVESTIGADOR)</text><polygon fill="#181818" points="1103.2847,356.0313,1113.2847,360.0313,1103.2847,364.0313,1107.2847,360.0313" style="stroke:#181818;stroke-width:1;"/><line style="stroke:#181818;stroke-width:1;" x1="751.2173" x2="1109.2847" y1="360.0313" y2="360.0313"/><text fill="#000000" font-family="sans-serif" font-size="13" lengthAdjust="spacing" textLength="195.8315" x="758.2173" y="355.1748">obtenerCargaPropia(investigador)</text><polygon fill="#181818" points="1448.7007,386.3828,1458.7007,390.3828,1448.7007,394.3828,1452.7007,390.3828" style="stroke:#181818;stroke-width:1;"/><line style="stroke:#181818;stroke-width:1;" x1="1125.2847" x2="1454.7007" y1="390.3828" y2="390.3828"/><text fill="#000000" font-family="sans-serif" font-size="13" lengthAdjust="spacing" textLength="187.8716" x="1132.2847" y="385.5264">obtenerPorUsuario(investigador)</text><polygon fill="#181818" points="1136.2847,416.7344,1126.2847,420.7344,1136.2847,424.7344,1132.2847,420.7344" style="stroke:#181818;stroke-width:1;"/><line style="stroke:#181818;stroke-width:1;stroke-dasharray:2.0,2.0;" x1="1130.2847" x2="1464.7007" y1="420.7344" y2="420.7344"/><text fill="#000000" font-family="sans-serif" font-size="13" lengthAdjust="spacing" textLength="79.4854" x="1142.2847" y="415.8779">CargaTrabajo</text><line style="stroke:#181818;stroke-width:1;" x1="1125.2847" x2="1167.2847" y1="451.0859" y2="451.0859"/><line style="stroke:#181818;stroke-width:1;" x1="1167.2847" x2="1167.2847" y1="451.0859" y2="464.0859"/><line style="stroke:#181818;stroke-width:1;" x1="1126.2847" x2="1167.2847" y1="464.0859" y2="464.0859"/><polygon fill="#181818" points="1136.2847,460.0859,1126.2847,464.0859,1136.2847,468.0859,1132.2847,464.0859" style="stroke:#181818;stroke-width:1;"/><text fill="#000000" font-family="sans-serif" font-size="13" lengthAdjust="spacing" textLength="311.416" x="1132.2847" y="446.2295">calcularResumenPersonal(cargaTrabajo, maximo16h)</text><polygon fill="#181818" points="1623.6621,490.4375,1633.6621,494.4375,1623.6621,498.4375,1627.6621,494.4375" style="stroke:#181818;stroke-width:1;"/><line style="stroke:#181818;stroke-width:1;" x1="1125.2847" x2="1629.6621" y1="494.4375" y2="494.4375"/><text fill="#000000" font-family="sans-serif" font-size="13" lengthAdjust="spacing" textLength="268.1123" x="1132.2847" y="489.5811">obtenerCompensacionPendiente(investigador)</text><polygon fill="#181818" points="1136.2847,520.7891,1126.2847,524.7891,1136.2847,528.7891,1132.2847,524.7891" style="stroke:#181818;stroke-width:1;"/><line style="stroke:#181818;stroke-width:1;stroke-dasharray:2.0,2.0;" x1="1130.2847" x2="1639.6621" y1="524.7891" y2="524.7891"/><text fill="#000000" font-family="sans-serif" font-size="13" lengthAdjust="spacing" textLength="135.1479" x="1142.2847" y="519.9326">RecompensaPendiente</text><polygon fill="#181818" points="762.2173,551.1406,752.2173,555.1406,762.2173,559.1406,758.2173,555.1406" style="stroke:#181818;stroke-width:1;"/><line style="stroke:#181818;stroke-width:1;stroke-dasharray:2.0,2.0;" x1="756.2173" x2="1119.2847" y1="555.1406" y2="555.1406"/><text fill="#000000" font-family="sans-serif" font-size="13" lengthAdjust="spacing" textLength="175.6016" x="768.2173" y="550.2842">CargaTrabajoPropiaResponse</text><polygon fill="#181818" points="422.5713,597.8438,412.5713,601.8438,422.5713,605.8438,418.5713,601.8438" style="stroke:#181818;stroke-width:1;"/><line style="stroke:#181818;stroke-width:1;stroke-dasharray:2.0,2.0;" x1="416.5713" x2="745.2173" y1="601.8438" y2="601.8438"/><text fill="#000000" font-family="sans-serif" font-size="13" lengthAdjust="spacing" textLength="44.0845" x="428.5713" y="580.6357">200 OK</text><text fill="#000000" font-family="sans-serif" font-size="13" lengthAdjust="spacing" textLength="175.6016" x="428.5713" y="596.9873">CargaTrabajoPropiaResponse</text><line style="stroke:#181818;stroke-width:1;" x1="411.5713" x2="453.5713" y1="632.1953" y2="632.1953"/><line style="stroke:#181818;stroke-width:1;" x1="453.5713" x2="453.5713" y1="632.1953" y2="645.1953"/><line style="stroke:#181818;stroke-width:1;" x1="412.5713" x2="453.5713" y1="645.1953" y2="645.1953"/><polygon fill="#181818" points="422.5713,641.1953,412.5713,645.1953,422.5713,649.1953,418.5713,645.1953" style="stroke:#181818;stroke-width:1;"/><text fill="#000000" font-family="sans-serif" font-size="13" lengthAdjust="spacing" textLength="305.646" x="418.5713" y="627.3389">Renderizar resumen propio y compensacion si existe</text><polygon fill="#181818" points="72.1343,671.5469,62.1343,675.5469,72.1343,679.5469,68.1343,675.5469" style="stroke:#181818;stroke-width:1;"/><line style="stroke:#181818;stroke-width:1;stroke-dasharray:2.0,2.0;" x1="66.1343" x2="400.5713" y1="675.5469" y2="675.5469"/><text fill="#000000" font-family="sans-serif" font-size="13" lengthAdjust="spacing" textLength="316.437" x="78.1343" y="670.6904">Presenta OPCIONES_CARGA_TRABAJO_ABIERTAS</text><line style="stroke:#000000;stroke-width:1;stroke-dasharray:2.0,2.0;" x1="10" x2="1732.3652" y1="684.5469" y2="684.5469"/><text fill="#000000" font-family="sans-serif" font-size="11" font-weight="bold" lengthAdjust="spacing" textLength="88.0215" x="15" y="695.9658">[Sesion ausente]</text><polygon fill="#181818" points="757.2173,717.7344,747.2173,721.7344,757.2173,725.7344,753.2173,721.7344" style="stroke:#181818;stroke-width:1;"/><line style="stroke:#181818;stroke-width:1;stroke-dasharray:2.0,2.0;" x1="751.2173" x2="984.3989" y1="721.7344" y2="721.7344"/><text fill="#000000" font-family="sans-serif" font-size="13" lengthAdjust="spacing" textLength="149.5952" x="763.2173" y="716.8779">SesionNoValidaException</text><polygon fill="#181818" points="422.5713,748.0859,412.5713,752.0859,422.5713,756.0859,418.5713,752.0859" style="stroke:#181818;stroke-width:1;"/><line style="stroke:#181818;stroke-width:1;stroke-dasharray:2.0,2.0;" x1="416.5713" x2="745.2173" y1="752.0859" y2="752.0859"/><text fill="#000000" font-family="sans-serif" font-size="13" lengthAdjust="spacing" textLength="102.6289" x="428.5713" y="747.2295">401 Unauthorized</text><polygon fill="#181818" points="72.1343,778.4375,62.1343,782.4375,72.1343,786.4375,68.1343,782.4375" style="stroke:#181818;stroke-width:1;"/><line style="stroke:#181818;stroke-width:1;stroke-dasharray:2.0,2.0;" x1="66.1343" x2="400.5713" y1="782.4375" y2="782.4375"/><text fill="#000000" font-family="sans-serif" font-size="13" lengthAdjust="spacing" textLength="175.5635" x="78.1343" y="777.5811">Presenta SESION_CERRADA</text><!--SRC=[ZLHDRzim3BtxLn0z9S22jiEmGmu3NDShiW6DOQSz5GWOXKYrEP8XoKMxNpzATloH9jq2E90eyebyV9IJhYIubRWpk4VO4bWIDIaX4MOGRumq8D3imf4pkC5V6YgZA-aj9IpK2radTxZL9efGE6t6jWgDaq9Mg1nS91vfrQ1a0IJ37JsfIKuSEhq0jF3TQEL8RSz79knWT5cIuSYYCbBju4RhDZwkv3Yq82krAiYyI471fR6Sls3i6zRddNEgj9LSzrlm3qVUDex8IUXzHShYaV_u88g6vC7iMqV770fTCfn3m9DTyUJB5tJKCtXOZ74Ili_e3HfkjUS1IYsm73apXtEuIrTmYPMy33VDscikzzolHElVaXgr12gxkptx_7cGXkKvw0t3accsiN0rbXEitJCffWST6wTzVDiQB5sxXEOe0lwrbjaXmsQVawsqiZHPt3-cnMfn5zykysa8sD8niBTs-ONETWc6pZMgdCX15nge0L0ZY2QXiFPeNTyxl4oR1rkZaVeZk5ultjpjGf5TXaEz7HSs1XXar4LpTqLTec6YwZsfZ8pLYfiW1gYVO8-lSg-llpvFZu764ktvQes2USrOE98RIX-LUYHrVpOsZOlkpphquzfF87Pv7qJo_iqv2EQzHFhE1esCnkRprHKiVxBs_nlFpu8tdHx3dF_9o3yyXwPfJFEkQdW3CQ0Mh0HwbRQjlWTZjE5ZCOUCSPWbX6MMB9RtQR5EulmkNg_o-2R-iLp7DuiqNyL5HAMbRhngsp5xUhxkzIEMSelfgw3A7OReWz4QbVdbwXeUb9ztpSNIzjyadQ-hI0kkQvsaUHxVnf5_uWP81uI_]--></g></svg>