<?xml version="1.0" encoding="us-ascii" standalone="no"?><svg xmlns="http://www.w3.org/2000/svg" xmlns:xlink="http://www.w3.org/1999/xlink" contentStyleType="text/css" height="981px" preserveAspectRatio="none" style="width:1638px;height:981px;background:#FFFFFF;" version="1.1" viewBox="0 0 1638 981" width="1638px" zoomAndPan="magnify"><defs/><g><text fill="#000000" font-family="sans-serif" font-size="14" font-weight="bold" lengthAdjust="spacing" textLength="496" x="572.25" y="29.5332">Diagrama de secuencia - Abrir carga de trabajo propia del Investigador</text><rect fill="#FFFFFF" height="735.4063" style="stroke:#181818;stroke-width:1.0;" width="10" x="399.5" y="153.5703"/><rect fill="#FFFFFF" height="449.7578" style="stroke:#181818;stroke-width:1.0;" width="10" x="604.5" y="243.625"/><rect fill="#FFFFFF" height="55.7031" style="stroke:#181818;stroke-width:1.0;" width="10" x="842.5" y="273.9766"/><rect fill="#FFFFFF" height="286.6484" style="stroke:#181818;stroke-width:1.0;" width="10" x="979" y="360.0313"/><rect fill="#FFFFFF" height="30.3516" style="stroke:#181818;stroke-width:1.0;" width="10" x="1214" y="451.0859"/><rect fill="none" height="593" style="stroke:#000000;stroke-width:1.5;" width="1621.5" x="10" y="288.9766"/><rect fill="none" height="120.8906" style="stroke:#000000;stroke-width:1.5;" width="319.5" x="899.5" y="496.4375"/><line style="stroke:#181818;stroke-width:0.5;stroke-dasharray:5.0,5.0;" x1="61" x2="61" y1="121.2188" y2="898.9766"/><line style="stroke:#181818;stroke-width:0.5;stroke-dasharray:5.0,5.0;" x1="404.5" x2="404.5" y1="121.2188" y2="898.9766"/><line style="stroke:#181818;stroke-width:0.5;stroke-dasharray:5.0,5.0;" x1="609.5" x2="609.5" y1="121.2188" y2="898.9766"/><line style="stroke:#181818;stroke-width:0.5;stroke-dasharray:5.0,5.0;" x1="847.5" x2="847.5" y1="121.2188" y2="898.9766"/><line style="stroke:#181818;stroke-width:0.5;stroke-dasharray:5.0,5.0;" x1="983.5" x2="983.5" y1="121.2188" y2="898.9766"/><line style="stroke:#181818;stroke-width:0.5;stroke-dasharray:5.0,5.0;" x1="1219" x2="1219" y1="121.2188" y2="898.9766"/><line style="stroke:#181818;stroke-width:0.5;stroke-dasharray:5.0,5.0;" x1="1571.5" x2="1571.5" y1="121.2188" y2="898.9766"/><text fill="#000000" font-family="sans-serif" font-size="14" lengthAdjust="spacing" textLength="77" x="20" y="118.1426">Investigador</text><ellipse cx="61.5" cy="52.1094" fill="#E2E2F0" rx="8" ry="8" style="stroke:#181818;stroke-width:0.5;"/><path d="M61.5,60.1094 L61.5,87.1094 M48.5,68.1094 L74.5,68.1094 M61.5,87.1094 L48.5,102.1094 M61.5,87.1094 L74.5,102.1094 " fill="none" style="stroke:#181818;stroke-width:0.5;"/><text fill="#000000" font-family="sans-serif" font-size="14" lengthAdjust="spacing" textLength="77" x="20" y="912.5098">Investigador</text><ellipse cx="61.5" cy="924.0859" fill="#E2E2F0" rx="8" ry="8" style="stroke:#181818;stroke-width:0.5;"/><path d="M61.5,932.0859 L61.5,959.0859 M48.5,940.0859 L74.5,940.0859 M61.5,959.0859 L48.5,974.0859 M61.5,959.0859 L74.5,974.0859 " fill="none" style="stroke:#181818;stroke-width:0.5;"/><rect fill="#E2E2F0" height="49.2188" rx="2.5" ry="2.5" style="stroke:#181818;stroke-width:0.5;" width="176" x="316.5" y="71"/><text fill="#000000" font-family="sans-serif" font-size="14" lengthAdjust="spacing" textLength="162" x="323.5" y="92.5332">CargaTrabajoPropiaPage</text><text fill="#000000" font-family="sans-serif" font-size="14" lengthAdjust="spacing" textLength="47" x="381" y="110.1426">(React)</text><rect fill="#E2E2F0" height="49.2188" rx="2.5" ry="2.5" style="stroke:#181818;stroke-width:0.5;" width="176" x="316.5" y="897.9766"/><text fill="#000000" font-family="sans-serif" font-size="14" lengthAdjust="spacing" textLength="162" x="323.5" y="919.5098">CargaTrabajoPropiaPage</text><text fill="#000000" font-family="sans-serif" font-size="14" lengthAdjust="spacing" textLength="47" x="381" y="937.1191">(React)</text><rect fill="#E2E2F0" height="49.2188" rx="2.5" ry="2.5" style="stroke:#181818;stroke-width:0.5;" width="164" x="527.5" y="71"/><text fill="#000000" font-family="sans-serif" font-size="14" lengthAdjust="spacing" textLength="150" x="534.5" y="92.5332">CargaTrabajoController</text><text fill="#000000" font-family="sans-serif" font-size="14" lengthAdjust="spacing" textLength="84" x="567.5" y="110.1426">(Spring Boot)</text><rect fill="#E2E2F0" height="49.2188" rx="2.5" ry="2.5" style="stroke:#181818;stroke-width:0.5;" width="164" x="527.5" y="897.9766"/><text fill="#000000" font-family="sans-serif" font-size="14" lengthAdjust="spacing" textLength="150" x="534.5" y="919.5098">CargaTrabajoController</text><text fill="#000000" font-family="sans-serif" font-size="14" lengthAdjust="spacing" textLength="84" x="567.5" y="937.1191">(Spring Boot)</text><rect fill="#E2E2F0" height="31.6094" rx="2.5" ry="2.5" style="stroke:#181818;stroke-width:0.5;" width="104" x="795.5" y="88.6094"/><text fill="#000000" font-family="sans-serif" font-size="14" lengthAdjust="spacing" textLength="90" x="802.5" y="110.1426">SesionService</text><rect fill="#E2E2F0" height="31.6094" rx="2.5" ry="2.5" style="stroke:#181818;stroke-width:0.5;" width="104" x="795.5" y="897.9766"/><text fill="#000000" font-family="sans-serif" font-size="14" lengthAdjust="spacing" textLength="90" x="802.5" y="919.5098">SesionService</text><rect fill="#E2E2F0" height="31.6094" rx="2.5" ry="2.5" style="stroke:#181818;stroke-width:0.5;" width="149" x="909.5" y="88.6094"/><text fill="#000000" font-family="sans-serif" font-size="14" lengthAdjust="spacing" textLength="135" x="916.5" y="110.1426">CargaTrabajoService</text><rect fill="#E2E2F0" height="31.6094" rx="2.5" ry="2.5" style="stroke:#181818;stroke-width:0.5;" width="149" x="909.5" y="897.9766"/><text fill="#000000" font-family="sans-serif" font-size="14" lengthAdjust="spacing" textLength="135" x="916.5" y="919.5098">CargaTrabajoService</text><rect fill="#E2E2F0" height="31.6094" rx="2.5" ry="2.5" style="stroke:#181818;stroke-width:0.5;" width="170" x="1134" y="88.6094"/><text fill="#000000" font-family="sans-serif" font-size="14" lengthAdjust="spacing" textLength="156" x="1141" y="110.1426">CargaTrabajoRepository</text><rect fill="#E2E2F0" height="31.6094" rx="2.5" ry="2.5" style="stroke:#181818;stroke-width:0.5;" width="170" x="1134" y="897.9766"/><text fill="#000000" font-family="sans-serif" font-size="14" lengthAdjust="spacing" textLength="156" x="1141" y="919.5098">CargaTrabajoRepository</text><text fill="#000000" font-family="sans-serif" font-size="14" lengthAdjust="spacing" textLength="93" x="1522.5" y="118.1426">Base de Datos</text><path d="M1554,67.6094 C1554,57.6094 1572,57.6094 1572,57.6094 C1572,57.6094 1590,57.6094 1590,67.6094 L1590,93.6094 C1590,103.6094 1572,103.6094 1572,103.6094 C1572,103.6094 1554,103.6094 1554,93.6094 L1554,67.6094 " fill="#E2E2F0" style="stroke:#181818;stroke-width:1.5;"/><path d="M1554,67.6094 C1554,77.6094 1572,77.6094 1572,77.6094 C1572,77.6094 1590,77.6094 1590,67.6094 " fill="none" style="stroke:#181818;stroke-width:1.5;"/><text fill="#000000" font-family="sans-serif" font-size="14" lengthAdjust="spacing" textLength="93" x="1522.5" y="912.5098">Base de Datos</text><path d="M1554,925.5859 C1554,915.5859 1572,915.5859 1572,915.5859 C1572,915.5859 1590,915.5859 1590,925.5859 L1590,951.5859 C1590,961.5859 1572,961.5859 1572,961.5859 C1572,961.5859 1554,961.5859 1554,951.5859 L1554,925.5859 " fill="#E2E2F0" style="stroke:#181818;stroke-width:1.5;"/><path d="M1554,925.5859 C1554,935.5859 1572,935.5859 1572,935.5859 C1572,935.5859 1590,935.5859 1590,925.5859 " fill="none" style="stroke:#181818;stroke-width:1.5;"/><rect fill="#FFFFFF" height="735.4063" style="stroke:#181818;stroke-width:1.0;" width="10" x="399.5" y="153.5703"/><rect fill="#FFFFFF" height="449.7578" style="stroke:#181818;stroke-width:1.0;" width="10" x="604.5" y="243.625"/><rect fill="#FFFFFF" height="55.7031" style="stroke:#181818;stroke-width:1.0;" width="10" x="842.5" y="273.9766"/><rect fill="#FFFFFF" height="286.6484" style="stroke:#181818;stroke-width:1.0;" width="10" x="979" y="360.0313"/><rect fill="#FFFFFF" height="30.3516" style="stroke:#181818;stroke-width:1.0;" width="10" x="1214" y="451.0859"/><polygon fill="#181818" points="387.5,149.5703,397.5,153.5703,387.5,157.5703,391.5,153.5703" style="stroke:#181818;stroke-width:1.0;"/><line style="stroke:#181818;stroke-width:1.0;" x1="61.5" x2="393.5" y1="153.5703" y2="153.5703"/><text fill="#000000" font-family="sans-serif" font-size="13" lengthAdjust="spacing" textLength="169" x="68.5" y="148.7139">Solicita abrir carga de trabajo</text><line style="stroke:#181818;stroke-width:1.0;" x1="409.5" x2="451.5" y1="183.9219" y2="183.9219"/><line style="stroke:#181818;stroke-width:1.0;" x1="451.5" x2="451.5" y1="183.9219" y2="196.9219"/><line style="stroke:#181818;stroke-width:1.0;" x1="410.5" x2="451.5" y1="196.9219" y2="196.9219"/><polygon fill="#181818" points="420.5,192.9219,410.5,196.9219,420.5,200.9219,416.5,196.9219" style="stroke:#181818;stroke-width:1.0;"/><text fill="#000000" font-family="sans-serif" font-size="13" lengthAdjust="spacing" textLength="136" x="416.5" y="179.0654">Comprobar sesion local</text><polygon fill="#181818" points="592.5,239.625,602.5,243.625,592.5,247.625,596.5,243.625" style="stroke:#181818;stroke-width:1.0;"/><line style="stroke:#181818;stroke-width:1.0;" x1="409.5" x2="598.5" y1="243.625" y2="243.625"/><text fill="#000000" font-family="sans-serif" font-size="13" lengthAdjust="spacing" textLength="152" x="416.5" y="222.417">GET /api/carga-trabajo/me</text><text fill="#000000" font-family="sans-serif" font-size="13" lengthAdjust="spacing" textLength="100" x="416.5" y="238.7686">Cookie de sesion</text><polygon fill="#181818" points="830.5,269.9766,840.5,273.9766,830.5,277.9766,834.5,273.9766" style="stroke:#181818;stroke-width:1.0;"/><line style="stroke:#181818;stroke-width:1.0;" x1="614.5" x2="836.5" y1="273.9766" y2="273.9766"/><text fill="#000000" font-family="sans-serif" font-size="13" lengthAdjust="spacing" textLength="209" x="621.5" y="269.1201">obtenerSesionActual(authentication)</text><path d="M10,288.9766 L71,288.9766 L71,297.3281 L61,307.3281 L10,307.3281 L10,288.9766 " fill="#EEEEEE" style="stroke:#000000;stroke-width:1.5;"/><rect fill="none" height="593" style="stroke:#000000;stroke-width:1.5;" width="1621.5" x="10" y="288.9766"/><text fill="#000000" font-family="sans-serif" font-size="13" font-weight="bold" lengthAdjust="spacing" textLength="16" x="25" y="303.4717">alt</text><text fill="#000000" font-family="sans-serif" font-size="11" font-weight="bold" lengthAdjust="spacing" textLength="80" x="86" y="302.3955">[Sesion activa]</text><polygon fill="#181818" points="625.5,325.6797,615.5,329.6797,625.5,333.6797,621.5,329.6797" style="stroke:#181818;stroke-width:1.0;"/><line style="stroke:#181818;stroke-width:1.0;stroke-dasharray:2.0,2.0;" x1="619.5" x2="846.5" y1="329.6797" y2="329.6797"/><text fill="#000000" font-family="sans-serif" font-size="13" lengthAdjust="spacing" textLength="202" x="631.5" y="324.8232">SesionResponse(INVESTIGADOR)</text><polygon fill="#181818" points="967,356.0313,977,360.0313,967,364.0313,971,360.0313" style="stroke:#181818;stroke-width:1.0;"/><line style="stroke:#181818;stroke-width:1.0;" x1="614.5" x2="973" y1="360.0313" y2="360.0313"/><text fill="#000000" font-family="sans-serif" font-size="13" lengthAdjust="spacing" textLength="190" x="621.5" y="355.1748">obtenerCargaPropia(investigador)</text><polygon fill="#181818" points="1207,386.3828,1217,390.3828,1207,394.3828,1211,390.3828" style="stroke:#181818;stroke-width:1.0;"/><line style="stroke:#181818;stroke-width:1.0;" x1="989" x2="1213" y1="390.3828" y2="390.3828"/><text fill="#000000" font-family="sans-serif" font-size="13" lengthAdjust="spacing" textLength="183" x="996" y="385.5264">obtenerPorUsuario(investigador)</text><polygon fill="#181818" points="1560,416.7344,1570,420.7344,1560,424.7344,1564,420.7344" style="stroke:#181818;stroke-width:1.0;"/><line style="stroke:#181818;stroke-width:1.0;" x1="1219" x2="1566" y1="420.7344" y2="420.7344"/><text fill="#000000" font-family="sans-serif" font-size="13" lengthAdjust="spacing" textLength="329" x="1226" y="415.8779">SELECT * FROM cargas_trabajo WHERE usuario_id = ?</text><polygon fill="#181818" points="1235,447.0859,1225,451.0859,1235,455.0859,1231,451.0859" style="stroke:#181818;stroke-width:1.0;"/><line style="stroke:#181818;stroke-width:1.0;stroke-dasharray:2.0,2.0;" x1="1229" x2="1571" y1="451.0859" y2="451.0859"/><text fill="#000000" font-family="sans-serif" font-size="13" lengthAdjust="spacing" textLength="150" x="1241" y="446.2295">Resultado de persistencia</text><polygon fill="#181818" points="1000,477.4375,990,481.4375,1000,485.4375,996,481.4375" style="stroke:#181818;stroke-width:1.0;"/><line style="stroke:#181818;stroke-width:1.0;stroke-dasharray:2.0,2.0;" x1="994" x2="1218" y1="481.4375" y2="481.4375"/><text fill="#000000" font-family="sans-serif" font-size="13" lengthAdjust="spacing" textLength="76" x="1006" y="476.5811">CargaTrabajo</text><path d="M899.5,496.4375 L960.5,496.4375 L960.5,504.7891 L950.5,514.7891 L899.5,514.7891 L899.5,496.4375 " fill="#EEEEEE" style="stroke:#000000;stroke-width:1.5;"/><rect fill="none" height="120.8906" style="stroke:#000000;stroke-width:1.5;" width="319.5" x="899.5" y="496.4375"/><text fill="#000000" font-family="sans-serif" font-size="13" font-weight="bold" lengthAdjust="spacing" textLength="16" x="914.5" y="510.9326">alt</text><text fill="#000000" font-family="sans-serif" font-size="11" font-weight="bold" lengthAdjust="spacing" textLength="189" x="975.5" y="509.8564">[Sede con docencia investigadora]</text><line style="stroke:#181818;stroke-width:1.0;" x1="989" x2="1031" y1="537.1406" y2="537.1406"/><line style="stroke:#181818;stroke-width:1.0;" x1="1031" x2="1031" y1="537.1406" y2="550.1406"/><line style="stroke:#181818;stroke-width:1.0;" x1="990" x2="1031" y1="550.1406" y2="550.1406"/><polygon fill="#181818" points="1000,546.1406,990,550.1406,1000,554.1406,996,550.1406" style="stroke:#181818;stroke-width:1.0;"/><text fill="#000000" font-family="sans-serif" font-size="13" lengthAdjust="spacing" textLength="211" x="996" y="532.2842">calcularMargenDocente(maximo16h)</text><line style="stroke:#000000;stroke-width:1.0;stroke-dasharray:2.0,2.0;" x1="899.5" x2="1219" y1="559.1406" y2="559.1406"/><text fill="#000000" font-family="sans-serif" font-size="11" font-weight="bold" lengthAdjust="spacing" textLength="141" x="904.5" y="570.5596">[Sede solo investigadora]</text><line style="stroke:#181818;stroke-width:1.0;" x1="989" x2="1031" y1="596.3281" y2="596.3281"/><line style="stroke:#181818;stroke-width:1.0;" x1="1031" x2="1031" y1="596.3281" y2="609.3281"/><line style="stroke:#181818;stroke-width:1.0;" x1="990" x2="1031" y1="609.3281" y2="609.3281"/><polygon fill="#181818" points="1000,605.3281,990,609.3281,1000,613.3281,996,609.3281" style="stroke:#181818;stroke-width:1.0;"/><text fill="#000000" font-family="sans-serif" font-size="13" lengthAdjust="spacing" textLength="171" x="996" y="591.4717">marcarDocenciaNoAplicable()</text><polygon fill="#181818" points="625.5,642.6797,615.5,646.6797,625.5,650.6797,621.5,646.6797" style="stroke:#181818;stroke-width:1.0;"/><line style="stroke:#181818;stroke-width:1.0;stroke-dasharray:2.0,2.0;" x1="619.5" x2="983" y1="646.6797" y2="646.6797"/><text fill="#000000" font-family="sans-serif" font-size="13" lengthAdjust="spacing" textLength="171" x="631.5" y="641.8232">CargaTrabajoPropiaResponse</text><polygon fill="#181818" points="420.5,689.3828,410.5,693.3828,420.5,697.3828,416.5,693.3828" style="stroke:#181818;stroke-width:1.0;"/><line style="stroke:#181818;stroke-width:1.0;stroke-dasharray:2.0,2.0;" x1="414.5" x2="608.5" y1="693.3828" y2="693.3828"/><text fill="#000000" font-family="sans-serif" font-size="13" lengthAdjust="spacing" textLength="44" x="426.5" y="672.1748">200 OK</text><text fill="#000000" font-family="sans-serif" font-size="13" lengthAdjust="spacing" textLength="171" x="426.5" y="688.5264">CargaTrabajoPropiaResponse</text><line style="stroke:#181818;stroke-width:1.0;" x1="409.5" x2="451.5" y1="723.7344" y2="723.7344"/><line style="stroke:#181818;stroke-width:1.0;" x1="451.5" x2="451.5" y1="723.7344" y2="736.7344"/><line style="stroke:#181818;stroke-width:1.0;" x1="410.5" x2="451.5" y1="736.7344" y2="736.7344"/><polygon fill="#181818" points="420.5,732.7344,410.5,736.7344,420.5,740.7344,416.5,736.7344" style="stroke:#181818;stroke-width:1.0;"/><text fill="#000000" font-family="sans-serif" font-size="13" lengthAdjust="spacing" textLength="155" x="416.5" y="718.8779">Renderizar resumen propio</text><polygon fill="#181818" points="72.5,763.0859,62.5,767.0859,72.5,771.0859,68.5,767.0859" style="stroke:#181818;stroke-width:1.0;"/><line style="stroke:#181818;stroke-width:1.0;stroke-dasharray:2.0,2.0;" x1="66.5" x2="398.5" y1="767.0859" y2="767.0859"/><text fill="#000000" font-family="sans-serif" font-size="13" lengthAdjust="spacing" textLength="314" x="78.5" y="762.2295">Presenta OPCIONES_CARGA_TRABAJO_ABIERTAS</text><line style="stroke:#000000;stroke-width:1.0;stroke-dasharray:2.0,2.0;" x1="10" x2="1631.5" y1="776.0859" y2="776.0859"/><text fill="#000000" font-family="sans-serif" font-size="11" font-weight="bold" lengthAdjust="spacing" textLength="94" x="15" y="787.5049">[Sesion ausente]</text><polygon fill="#181818" points="620.5,809.2734,610.5,813.2734,620.5,817.2734,616.5,813.2734" style="stroke:#181818;stroke-width:1.0;"/><line style="stroke:#181818;stroke-width:1.0;stroke-dasharray:2.0,2.0;" x1="614.5" x2="846.5" y1="813.2734" y2="813.2734"/><text fill="#000000" font-family="sans-serif" font-size="13" lengthAdjust="spacing" textLength="150" x="626.5" y="808.417">SesionNoValidaException</text><polygon fill="#181818" points="420.5,839.625,410.5,843.625,420.5,847.625,416.5,843.625" style="stroke:#181818;stroke-width:1.0;"/><line style="stroke:#181818;stroke-width:1.0;stroke-dasharray:2.0,2.0;" x1="414.5" x2="608.5" y1="843.625" y2="843.625"/><text fill="#000000" font-family="sans-serif" font-size="13" lengthAdjust="spacing" textLength="101" x="426.5" y="838.7686">401 Unauthorized</text><polygon fill="#181818" points="72.5,869.9766,62.5,873.9766,72.5,877.9766,68.5,873.9766" style="stroke:#181818;stroke-width:1.0;"/><line style="stroke:#181818;stroke-width:1.0;stroke-dasharray:2.0,2.0;" x1="66.5" x2="398.5" y1="873.9766" y2="873.9766"/><text fill="#000000" font-family="sans-serif" font-size="13" lengthAdjust="spacing" textLength="175" x="78.5" y="869.1201">Presenta SESION_CERRADA</text><!--SRC=[bLHHRzD037xFhx3sr25Lsn3YeHAWDCb6WRLLqeqNfCfDhExWceikbmduzVZkqZJfrW6L6bqS-xFzVVOPOIH1B72hSOTG4DIKDrJc0c4CuKOB3JdghVjaD6xmku9AgqfOYuHP-KYr4Liib0u2p8tIGrk5seXSL5WQE8iiqigZB1t84hVqhHobnA7dPu0rN6jL6YgBqv4HEsWb9McEp2ejoYrCbMhZmqeCGpEgXIepqeyY9-VYBQSJ37tT-RHpIfMg1VVzo_cxJzOM56ZOeIOuczedynUZKRNpYgT1qAS9nk-xnYUGAScf308-ox-bMJoYeGDN-yCG9r8xbcg3caMr7ODKESg1CxCrWPja1HTOYGkNQTockTYnCf5IFmJvkN2aTRajp_ot89xF2QWDmvBshs5k6fGZRCm3bKmT6ZQU7-9R4L2QzWZ-Km3yQotZVON-FQMwKcLDezdyFibMivimNgJdBg2WOs1hxUfp6dO5Eety_8r4JmKFrGFoqlk2tDcYTGftU4kbx-e6jL3Fm7NkDZQUSY_9boHQmIkuJXUtNjnwlL-jhn-JD876ewr50U_WWuE9fuwDNd9cev664rbrAjArg8rRt64NXu4yggPFJ7-WZ_aS0dYzE6FE-XGgzrT5lssV_uYqBXCFODv8rBUCIcLi0GoDTlXJxDJLsmVF6ScQV9PQIVKVw3lKJ6ZSbZLNOSMRX1j9enQOTsKGkn-mfpVJVjYUZjTXAjny3LRkzUKbB3xptlmpdjqZQtf-XLD-aXQ_UOSrwxsZqj- -wYY6W_htoGIMxCxK8YoMqMmnJx9r5AOtuNgLXjFmqs8TJcT9kWgpeENQRs1ZO-Y55PohUvIYmEHdJfNPxzaBspVevitb5ToLzafGt1CLV-VYT5zPad5VwoX9qp0E0wji3scFy0S0]--></g></svg>