<svg xmlns="http://www.w3.org/2000/svg" xmlns:xlink="http://www.w3.org/1999/xlink" contentStyleType="text/css" height="981px" preserveAspectRatio="none" style="width:1784px;height:981px;background:#FFFFFF;" version="1.1" viewBox="0 0 1784 981" width="1784px" zoomAndPan="magnify"><title>Diagrama de secuencia - Abrir carga de trabajo propia del Investigador</title><defs/><g><text fill="#000000" font-family="sans-serif" font-size="14" font-weight="bold" lengthAdjust="spacing" textLength="471.4814" x="657.6487" y="29.5332">Diagrama de secuencia - Abrir carga de trabajo propia del Investigador</text><rect fill="#FFFFFF" height="735.4063" style="stroke:#181818;stroke-width:1;" width="10" x="401.5713" y="153.5703"/><rect fill="#FFFFFF" height="449.7578" style="stroke:#181818;stroke-width:1;" width="10" x="741.2173" y="243.625"/><rect fill="#FFFFFF" height="55.7031" style="stroke:#181818;stroke-width:1;" width="10" x="980.3989" y="273.9766"/><rect fill="#FFFFFF" height="286.6484" style="stroke:#181818;stroke-width:1;" width="10" x="1115.2847" y="360.0313"/><rect fill="#FFFFFF" height="30.3516" style="stroke:#181818;stroke-width:1;" width="10" x="1496.1143" y="390.3828"/><rect fill="#FFFFFF" height="30.3516" style="stroke:#181818;stroke-width:1;" width="10" x="1671.0757" y="519.7891"/><rect fill="none" height="593" style="stroke:#000000;stroke-width:1.5;" width="1767.7788" x="10" y="288.9766"/><rect fill="none" height="138.2422" style="stroke:#000000;stroke-width:1.5;" width="730.6353" x="1037.1436" y="479.0859"/><line style="stroke:#181818;stroke-width:0.5;stroke-dasharray:5.0,5.0;" x1="61" x2="61" y1="121.2188" y2="898.9766"/><line style="stroke:#181818;stroke-width:0.5;stroke-dasharray:5.0,5.0;" x1="406.189" x2="406.189" y1="121.2188" y2="898.9766"/><line style="stroke:#181818;stroke-width:0.5;stroke-dasharray:5.0,5.0;" x1="746.0728" x2="746.0728" y1="121.2188" y2="898.9766"/><line style="stroke:#181818;stroke-width:0.5;stroke-dasharray:5.0,5.0;" x1="984.6543" x2="984.6543" y1="121.2188" y2="898.9766"/><line style="stroke:#181818;stroke-width:0.5;stroke-dasharray:5.0,5.0;" x1="1120.1436" x2="1120.1436" y1="121.2188" y2="898.9766"/><line style="stroke:#181818;stroke-width:0.5;stroke-dasharray:5.0,5.0;" x1="1500.856" x2="1500.856" y1="121.2188" y2="898.9766"/><line style="stroke:#181818;stroke-width:0.5;stroke-dasharray:5.0,5.0;" x1="1675.3726" x2="1675.3726" y1="121.2188" y2="898.9766"/><text fill="#000000" font-family="sans-serif" font-size="14" lengthAdjust="spacing" textLength="76.2686" x="20" y="118.1426">Investigador</text><ellipse cx="61.1343" cy="52.1094" fill="#E2E2F0" rx="8" ry="8" style="stroke:#181818;stroke-width:0.5;"/><path d="M61.1343,60.1094 L61.1343,87.1094 M48.1343,68.1094 L74.1343,68.1094 M61.1343,87.1094 L48.1343,102.1094 M61.1343,87.1094 L74.1343,102.1094 " fill="none" style="stroke:#181818;stroke-width:0.5;"/><text fill="#000000" font-family="sans-serif" font-size="14" lengthAdjust="spacing" textLength="76.2686" x="20" y="912.5098">Investigador</text><ellipse cx="61.1343" cy="924.0859" fill="#E2E2F0" rx="8" ry="8" style="stroke:#181818;stroke-width:0.5;"/><path d="M61.1343,932.0859 L61.1343,959.0859 M48.1343,940.0859 L74.1343,940.0859 M61.1343,959.0859 L48.1343,974.0859 M61.1343,959.0859 L74.1343,974.0859 " fill="none" style="stroke:#181818;stroke-width:0.5;"/><rect fill="#E2E2F0" height="49.2188" rx="2.5" ry="2.5" style="stroke:#181818;stroke-width:0.5;" width="172.7646" x="320.189" y="71"/><text fill="#000000" font-family="sans-serif" font-size="14" lengthAdjust="spacing" textLength="158.7646" x="327.189" y="92.5332">CargaTrabajoPropiaPage</text><text fill="#000000" font-family="sans-serif" font-size="14" lengthAdjust="spacing" textLength="45.8965" x="383.623" y="110.1426">(React)</text><rect fill="#E2E2F0" height="49.2188" rx="2.5" ry="2.5" style="stroke:#181818;stroke-width:0.5;" width="172.7646" x="320.189" y="897.9766"/><text fill="#000000" font-family="sans-serif" font-size="14" lengthAdjust="spacing" textLength="158.7646" x="327.189" y="919.5098">CargaTrabajoPropiaPage</text><text fill="#000000" font-family="sans-serif" font-size="14" lengthAdjust="spacing" textLength="45.8965" x="383.623" y="937.1191">(React)</text><rect fill="#E2E2F0" height="49.2188" rx="2.5" ry="2.5" style="stroke:#181818;stroke-width:0.5;" width="160.2891" x="666.0728" y="71"/><text fill="#000000" font-family="sans-serif" font-size="14" lengthAdjust="spacing" textLength="146.2891" x="673.0728" y="92.5332">CargaTrabajoController</text><text fill="#000000" font-family="sans-serif" font-size="14" lengthAdjust="spacing" textLength="82.4824" x="704.9761" y="110.1426">(Spring Boot)</text><rect fill="#E2E2F0" height="49.2188" rx="2.5" ry="2.5" style="stroke:#181818;stroke-width:0.5;" width="160.2891" x="666.0728" y="897.9766"/><text fill="#000000" font-family="sans-serif" font-size="14" lengthAdjust="spacing" textLength="146.2891" x="673.0728" y="919.5098">CargaTrabajoController</text><text fill="#000000" font-family="sans-serif" font-size="14" lengthAdjust="spacing" textLength="82.4824" x="704.9761" y="937.1191">(Spring Boot)</text><rect fill="#E2E2F0" height="31.6094" rx="2.5" ry="2.5" style="stroke:#181818;stroke-width:0.5;" width="103.4893" x="933.6543" y="88.6094"/><text fill="#000000" font-family="sans-serif" font-size="14" lengthAdjust="spacing" textLength="89.4893" x="940.6543" y="110.1426">SesionService</text><rect fill="#E2E2F0" height="31.6094" rx="2.5" ry="2.5" style="stroke:#181818;stroke-width:0.5;" width="103.4893" x="933.6543" y="897.9766"/><text fill="#000000" font-family="sans-serif" font-size="14" lengthAdjust="spacing" textLength="89.4893" x="940.6543" y="919.5098">SesionService</text><rect fill="#E2E2F0" height="31.6094" rx="2.5" ry="2.5" style="stroke:#181818;stroke-width:0.5;" width="146.2822" x="1047.1436" y="88.6094"/><text fill="#000000" font-family="sans-serif" font-size="14" lengthAdjust="spacing" textLength="132.2822" x="1054.1436" y="110.1426">CargaTrabajoService</text><rect fill="#E2E2F0" height="31.6094" rx="2.5" ry="2.5" style="stroke:#181818;stroke-width:0.5;" width="146.2822" x="1047.1436" y="897.9766"/><text fill="#000000" font-family="sans-serif" font-size="14" lengthAdjust="spacing" textLength="132.2822" x="1054.1436" y="919.5098">CargaTrabajoService</text><rect fill="#E2E2F0" height="31.6094" rx="2.5" ry="2.5" style="stroke:#181818;stroke-width:0.5;" width="166.5166" x="1417.856" y="88.6094"/><text fill="#000000" font-family="sans-serif" font-size="14" lengthAdjust="spacing" textLength="152.5166" x="1424.856" y="110.1426">CargaTrabajoRepository</text><rect fill="#E2E2F0" height="31.6094" rx="2.5" ry="2.5" style="stroke:#181818;stroke-width:0.5;" width="166.5166" x="1417.856" y="897.9766"/><text fill="#000000" font-family="sans-serif" font-size="14" lengthAdjust="spacing" textLength="152.5166" x="1424.856" y="919.5098">CargaTrabajoRepository</text><rect fill="#E2E2F0" height="31.6094" rx="2.5" ry="2.5" style="stroke:#181818;stroke-width:0.5;" width="163.4063" x="1594.3726" y="88.6094"/><text fill="#000000" font-family="sans-serif" font-size="14" lengthAdjust="spacing" textLength="149.4063" x="1601.3726" y="110.1426">RecompensaRepository</text><rect fill="#E2E2F0" height="31.6094" rx="2.5" ry="2.5" style="stroke:#181818;stroke-width:0.5;" width="163.4063" x="1594.3726" y="897.9766"/><text fill="#000000" font-family="sans-serif" font-size="14" lengthAdjust="spacing" textLength="149.4063" x="1601.3726" y="919.5098">RecompensaRepository</text><rect fill="#FFFFFF" height="735.4063" style="stroke:#181818;stroke-width:1;" width="10" x="401.5713" y="153.5703"/><rect fill="#FFFFFF" height="449.7578" style="stroke:#181818;stroke-width:1;" width="10" x="741.2173" y="243.625"/><rect fill="#FFFFFF" height="55.7031" style="stroke:#181818;stroke-width:1;" width="10" x="980.3989" y="273.9766"/><rect fill="#FFFFFF" height="286.6484" style="stroke:#181818;stroke-width:1;" width="10" x="1115.2847" y="360.0313"/><rect fill="#FFFFFF" height="30.3516" style="stroke:#181818;stroke-width:1;" width="10" x="1496.1143" y="390.3828"/><rect fill="#FFFFFF" height="30.3516" style="stroke:#181818;stroke-width:1;" width="10" x="1671.0757" y="519.7891"/><polygon fill="#181818" points="389.5713,149.5703,399.5713,153.5703,389.5713,157.5703,393.5713,153.5703" style="stroke:#181818;stroke-width:1;"/><line style="stroke:#181818;stroke-width:1;" x1="61.1343" x2="395.5713" y1="153.5703" y2="153.5703"/><text fill="#000000" font-family="sans-serif" font-size="13" lengthAdjust="spacing" textLength="169.0889" x="68.1343" y="148.7139">Solicita abrir carga de trabajo</text><line style="stroke:#181818;stroke-width:1;" x1="411.5713" x2="453.5713" y1="183.9219" y2="183.9219"/><line style="stroke:#181818;stroke-width:1;" x1="453.5713" x2="453.5713" y1="183.9219" y2="196.9219"/><line style="stroke:#181818;stroke-width:1;" x1="412.5713" x2="453.5713" y1="196.9219" y2="196.9219"/><polygon fill="#181818" points="422.5713,192.9219,412.5713,196.9219,422.5713,200.9219,418.5713,196.9219" style="stroke:#181818;stroke-width:1;"/><text fill="#000000" font-family="sans-serif" font-size="13" lengthAdjust="spacing" textLength="136.5635" x="418.5713" y="179.0654">Comprobar sesion local</text><polygon fill="#181818" points="729.2173,239.625,739.2173,243.625,729.2173,247.625,733.2173,243.625" style="stroke:#181818;stroke-width:1;"/><line style="stroke:#181818;stroke-width:1;" x1="411.5713" x2="735.2173" y1="243.625" y2="243.625"/><text fill="#000000" font-family="sans-serif" font-size="13" lengthAdjust="spacing" textLength="153.1753" x="418.5713" y="222.417">GET /api/carga-trabajo/me</text><text fill="#000000" font-family="sans-serif" font-size="13" lengthAdjust="spacing" textLength="99.728" x="418.5713" y="238.7686">Cookie de sesion</text><polygon fill="#181818" points="968.3989,269.9766,978.3989,273.9766,968.3989,277.9766,972.3989,273.9766" style="stroke:#181818;stroke-width:1;"/><line style="stroke:#181818;stroke-width:1;" x1="751.2173" x2="974.3989" y1="273.9766" y2="273.9766"/><text fill="#000000" font-family="sans-serif" font-size="13" lengthAdjust="spacing" textLength="209.5806" x="758.2173" y="269.1201">obtenerSesionActual(authentication)</text><path d="M10,288.9766 L70.1709,288.9766 L70.1709,297.3281 L60.1709,307.3281 L10,307.3281 L10,288.9766 " fill="#EEEEEE" style="stroke:#000000;stroke-width:1.5;"/><rect fill="none" height="593" style="stroke:#000000;stroke-width:1.5;" width="1767.7788" x="10" y="288.9766"/><text fill="#000000" font-family="sans-serif" font-size="13" font-weight="bold" lengthAdjust="spacing" textLength="15.1709" x="25" y="303.4717">alt</text><text fill="#000000" font-family="sans-serif" font-size="11" font-weight="bold" lengthAdjust="spacing" textLength="77.6392" x="85.1709" y="302.3955">[Sesion activa]</text><polygon fill="#181818" points="762.2173,325.6797,752.2173,329.6797,762.2173,333.6797,758.2173,329.6797" style="stroke:#181818;stroke-width:1;"/><line style="stroke:#181818;stroke-width:1;stroke-dasharray:2.0,2.0;" x1="756.2173" x2="984.3989" y1="329.6797" y2="329.6797"/><text fill="#000000" font-family="sans-serif" font-size="13" lengthAdjust="spacing" textLength="205.1816" x="768.2173" y="324.8232">SesionResponse(INVESTIGADOR)</text><polygon fill="#181818" points="1103.2847,356.0313,1113.2847,360.0313,1103.2847,364.0313,1107.2847,360.0313" style="stroke:#181818;stroke-width:1;"/><line style="stroke:#181818;stroke-width:1;" x1="751.2173" x2="1109.2847" y1="360.0313" y2="360.0313"/><text fill="#000000" font-family="sans-serif" font-size="13" lengthAdjust="spacing" textLength="195.8315" x="758.2173" y="355.1748">obtenerCargaPropia(investigador)</text><polygon fill="#181818" points="1484.1143,386.3828,1494.1143,390.3828,1484.1143,394.3828,1488.1143,390.3828" style="stroke:#181818;stroke-width:1;"/><line style="stroke:#181818;stroke-width:1;" x1="1125.2847" x2="1490.1143" y1="390.3828" y2="390.3828"/><text fill="#000000" font-family="sans-serif" font-size="13" lengthAdjust="spacing" textLength="187.8716" x="1132.2847" y="385.5264">obtenerPorUsuario(investigador)</text><polygon fill="#181818" points="1136.2847,416.7344,1126.2847,420.7344,1136.2847,424.7344,1132.2847,420.7344" style="stroke:#181818;stroke-width:1;"/><line style="stroke:#181818;stroke-width:1;stroke-dasharray:2.0,2.0;" x1="1130.2847" x2="1500.1143" y1="420.7344" y2="420.7344"/><text fill="#000000" font-family="sans-serif" font-size="13" lengthAdjust="spacing" textLength="79.4854" x="1142.2847" y="415.8779">CargaTrabajo</text><line style="stroke:#181818;stroke-width:1;" x1="1125.2847" x2="1167.2847" y1="451.0859" y2="451.0859"/><line style="stroke:#181818;stroke-width:1;" x1="1167.2847" x2="1167.2847" y1="451.0859" y2="464.0859"/><line style="stroke:#181818;stroke-width:1;" x1="1126.2847" x2="1167.2847" y1="464.0859" y2="464.0859"/><polygon fill="#181818" points="1136.2847,460.0859,1126.2847,464.0859,1136.2847,468.0859,1132.2847,464.0859" style="stroke:#181818;stroke-width:1;"/><text fill="#000000" font-family="sans-serif" font-size="13" lengthAdjust="spacing" textLength="346.8296" x="1132.2847" y="446.2295">calcularResumenPersonal(cargaTrabajo, sede, maximo16h)</text><path d="M1037.1436,479.0859 L1097.3145,479.0859 L1097.3145,487.4375 L1087.3145,497.4375 L1037.1436,497.4375 L1037.1436,479.0859 " fill="#EEEEEE" style="stroke:#000000;stroke-width:1.5;"/><rect fill="none" height="138.2422" style="stroke:#000000;stroke-width:1.5;" width="730.6353" x="1037.1436" y="479.0859"/><text fill="#000000" font-family="sans-serif" font-size="13" font-weight="bold" lengthAdjust="spacing" textLength="15.1709" x="1052.1436" y="493.5811">alt</text><text fill="#000000" font-family="sans-serif" font-size="11" font-weight="bold" lengthAdjust="spacing" textLength="181.5483" x="1112.3145" y="492.5049">[Sede con docencia investigadora]</text><polygon fill="#181818" points="1659.0757,515.7891,1669.0757,519.7891,1659.0757,523.7891,1663.0757,519.7891" style="stroke:#181818;stroke-width:1;"/><line style="stroke:#181818;stroke-width:1;" x1="1125.2847" x2="1665.0757" y1="519.7891" y2="519.7891"/><text fill="#000000" font-family="sans-serif" font-size="13" lengthAdjust="spacing" textLength="268.1123" x="1132.2847" y="514.9326">obtenerCompensacionPendiente(investigador)</text><polygon fill="#181818" points="1136.2847,546.1406,1126.2847,550.1406,1136.2847,554.1406,1132.2847,550.1406" style="stroke:#181818;stroke-width:1;"/><line style="stroke:#181818;stroke-width:1;stroke-dasharray:2.0,2.0;" x1="1130.2847" x2="1675.0757" y1="550.1406" y2="550.1406"/><text fill="#000000" font-family="sans-serif" font-size="13" lengthAdjust="spacing" textLength="135.1479" x="1142.2847" y="545.2842">RecompensaPendiente</text><line style="stroke:#000000;stroke-width:1;stroke-dasharray:2.0,2.0;" x1="1037.1436" x2="1767.7788" y1="559.1406" y2="559.1406"/><text fill="#000000" font-family="sans-serif" font-size="11" font-weight="bold" lengthAdjust="spacing" textLength="133.8638" x="1042.1436" y="570.5596">[Sede solo investigadora]</text><line style="stroke:#181818;stroke-width:1;" x1="1125.2847" x2="1167.2847" y1="596.3281" y2="596.3281"/><line style="stroke:#181818;stroke-width:1;" x1="1167.2847" x2="1167.2847" y1="596.3281" y2="609.3281"/><line style="stroke:#181818;stroke-width:1;" x1="1126.2847" x2="1167.2847" y1="609.3281" y2="609.3281"/><polygon fill="#181818" points="1136.2847,605.3281,1126.2847,609.3281,1136.2847,613.3281,1132.2847,609.3281" style="stroke:#181818;stroke-width:1;"/><text fill="#000000" font-family="sans-serif" font-size="13" lengthAdjust="spacing" textLength="229.7725" x="1132.2847" y="591.4717">Omitir margen docente y compensacion</text><polygon fill="#181818" points="762.2173,642.6797,752.2173,646.6797,762.2173,650.6797,758.2173,646.6797" style="stroke:#181818;stroke-width:1;"/><line style="stroke:#181818;stroke-width:1;stroke-dasharray:2.0,2.0;" x1="756.2173" x2="1119.2847" y1="646.6797" y2="646.6797"/><text fill="#000000" font-family="sans-serif" font-size="13" lengthAdjust="spacing" textLength="175.6016" x="768.2173" y="641.8232">CargaTrabajoPropiaResponse</text><polygon fill="#181818" points="422.5713,689.3828,412.5713,693.3828,422.5713,697.3828,418.5713,693.3828" style="stroke:#181818;stroke-width:1;"/><line style="stroke:#181818;stroke-width:1;stroke-dasharray:2.0,2.0;" x1="416.5713" x2="745.2173" y1="693.3828" y2="693.3828"/><text fill="#000000" font-family="sans-serif" font-size="13" lengthAdjust="spacing" textLength="44.0845" x="428.5713" y="672.1748">200 OK</text><text fill="#000000" font-family="sans-serif" font-size="13" lengthAdjust="spacing" textLength="175.6016" x="428.5713" y="688.5264">CargaTrabajoPropiaResponse</text><line style="stroke:#181818;stroke-width:1;" x1="411.5713" x2="453.5713" y1="723.7344" y2="723.7344"/><line style="stroke:#181818;stroke-width:1;" x1="453.5713" x2="453.5713" y1="723.7344" y2="736.7344"/><line style="stroke:#181818;stroke-width:1;" x1="412.5713" x2="453.5713" y1="736.7344" y2="736.7344"/><polygon fill="#181818" points="422.5713,732.7344,412.5713,736.7344,422.5713,740.7344,418.5713,736.7344" style="stroke:#181818;stroke-width:1;"/><text fill="#000000" font-family="sans-serif" font-size="13" lengthAdjust="spacing" textLength="305.646" x="418.5713" y="718.8779">Renderizar resumen propio y compensacion si existe</text><polygon fill="#181818" points="72.1343,763.0859,62.1343,767.0859,72.1343,771.0859,68.1343,767.0859" style="stroke:#181818;stroke-width:1;"/><line style="stroke:#181818;stroke-width:1;stroke-dasharray:2.0,2.0;" x1="66.1343" x2="400.5713" y1="767.0859" y2="767.0859"/><text fill="#000000" font-family="sans-serif" font-size="13" lengthAdjust="spacing" textLength="316.437" x="78.1343" y="762.2295">Presenta OPCIONES_CARGA_TRABAJO_ABIERTAS</text><line style="stroke:#000000;stroke-width:1;stroke-dasharray:2.0,2.0;" x1="10" x2="1777.7788" y1="776.0859" y2="776.0859"/><text fill="#000000" font-family="sans-serif" font-size="11" font-weight="bold" lengthAdjust="spacing" textLength="88.0215" x="15" y="787.5049">[Sesion ausente]</text><polygon fill="#181818" points="757.2173,809.2734,747.2173,813.2734,757.2173,817.2734,753.2173,813.2734" style="stroke:#181818;stroke-width:1;"/><line style="stroke:#181818;stroke-width:1;stroke-dasharray:2.0,2.0;" x1="751.2173" x2="984.3989" y1="813.2734" y2="813.2734"/><text fill="#000000" font-family="sans-serif" font-size="13" lengthAdjust="spacing" textLength="149.5952" x="763.2173" y="808.417">SesionNoValidaException</text><polygon fill="#181818" points="422.5713,839.625,412.5713,843.625,422.5713,847.625,418.5713,843.625" style="stroke:#181818;stroke-width:1;"/><line style="stroke:#181818;stroke-width:1;stroke-dasharray:2.0,2.0;" x1="416.5713" x2="745.2173" y1="843.625" y2="843.625"/><text fill="#000000" font-family="sans-serif" font-size="13" lengthAdjust="spacing" textLength="102.6289" x="428.5713" y="838.7686">401 Unauthorized</text><polygon fill="#181818" points="72.1343,869.9766,62.1343,873.9766,72.1343,877.9766,68.1343,873.9766" style="stroke:#181818;stroke-width:1;"/><line style="stroke:#181818;stroke-width:1;stroke-dasharray:2.0,2.0;" x1="66.1343" x2="400.5713" y1="873.9766" y2="873.9766"/><text fill="#000000" font-family="sans-serif" font-size="13" lengthAdjust="spacing" textLength="175.5635" x="78.1343" y="869.1201">Presenta SESION_CERRADA</text><!--SRC=[ZLJ1Rjim3BtdAuYUKg11ss7O8OS1RkeLsO0ciDEU2WICJAJQRCkGvABTru-I7CTAatO5KiWK-KY-Hz5AMnBSIjngh10A0aEYfLf8X0aa6oqr2DHRVsKrRl2tWaQhHZfB2VFwXOoLMooK7erGMALZMuFQIY4Rh2sSpHpIAg0iFSWIj_HKZpFYqFCpG0C_jAejrSNfo1axQ5MMf3aoRxIijt2ZL1UVD38EpSb8LUUaNwGWxn8ifnF4llvysZcZHXd9VRzvVt_bR754Ha9L3TK63_pZYz5eI1vCllTqJ25N9SDP13ogYYDVlg2bFOExGumputnQRL2pr8u7A9N0Cd9c3gTmbwxW4XjvwJDDkZIN5UirK-gFf30jdie-jsEVVmuai3m5jM5Oqk4p4RR5SeojVQQQwK7BnlDzV2SDbhOxGhWQ0Vzrbickml2TaMbKRMWyltzCyzNyBhbTPES-eA13O6Vjw_FAzWLwvS9KZkL0XG0r00e34GhoPuVMwzxZBPL-C2rggJw2sy-BC_TVlic-mk6y7JOM0mmgwgDPNT6Mg9cejg9wITgecaKG0zGBLhAW2wZmLLRg-jjpLwRNWNKMp7kXH5WCmtQ2CWUfuw7UCzmP1Iknv56JF09qX9o8e8C7ihkFpJ5T-xi-InytOEu8CfM6GiD6bUhpHlkKYqfQVfGLKqeTKvpX3SIWvP21tsK4iXlczxjnDzZlHta_WNwMe-VzvUeA5h_uZVutddkppdHyNMJydxJyo_j2Xm4A-ryTT0T60hrAqt6z1sEquLARmf9nc1w4nN8sNzod-NgMP7V9UfKbDydFnJgvcQVPAib7dHfX3RIcr_7u7hXNZrZA0jDNGOtTyVt12eZQ_7fr3G-rsqkAcwNYSv9EzvMdEVUrdgLPbjmc8oVv06c7y0y0]--></g></svg>