<svg xmlns="http://www.w3.org/2000/svg" xmlns:xlink="http://www.w3.org/1999/xlink" contentStyleType="text/css" data-diagram-type="DESCRIPTION" height="533px" preserveAspectRatio="none" style="width:3274px;height:533px;background:#FFFFFF;" version="1.1" viewBox="0 0 3274 533" width="3274px" zoomAndPan="magnify"><?plantuml 1.2026.6?><defs/><g><!--cluster abrirPanelPrincipal--><g class="cluster" data-qualified-name="abrirPanelPrincipal" data-source-line="5" id="ent0002"><path d="M102,40.3564 L239.9307,40.3564 A3.75,3.75 0 0 1 242.4307,42.8564 L249.4307,63.9658 L670,63.9658 A2.5,2.5 0 0 1 672.5,66.4658 L672.5,515.8564 A2.5,2.5 0 0 1 670,518.3564 L102,518.3564 A2.5,2.5 0 0 1 99.5,515.8564 L99.5,42.8564 A2.5,2.5 0 0 1 102,40.3564" fill="none" style="stroke:#000000;stroke-width:1.5;"/><line style="stroke:#000000;stroke-width:1.5;" x1="99.5" x2="249.4307" y1="63.9658" y2="63.9658"/><text fill="#000000" font-family="sans-serif" font-size="14" font-weight="700" lengthAdjust="spacing" textLength="136.9307" x="103.5" y="56.8896">abrirPanelPrincipal()</text></g><!--entity PanelPrincipalView--><g class="entity" data-qualified-name="abrirPanelPrincipal.PanelPrincipalView" data-source-line="6" id="ent0003"><rect fill="#629EF9" height="37.6094" rx="2.5" ry="2.5" style="stroke:#181818;stroke-width:0.5;" width="139.8408" x="516.5" y="96.3564"/><text fill="#000000" font-family="sans-serif" font-size="14" lengthAdjust="spacing" textLength="119.8408" x="526.5" y="120.8896">PanelPrincipalView</text></g><!--entity AbrirPanelPrincipalController--><g class="entity" data-qualified-name="abrirPanelPrincipal.AbrirPanelPrincipalController" data-source-line="7" id="ent0004"><rect fill="#B5BD68" height="37.6094" rx="2.5" ry="2.5" style="stroke:#181818;stroke-width:0.5;" width="199.7441" x="208.5" y="232.3564"/><text fill="#000000" font-family="sans-serif" font-size="14" lengthAdjust="spacing" textLength="179.7441" x="218.5" y="256.8896">AbrirPanelPrincipalController</text></g><!--entity PanelPrincipalService--><g class="entity" data-qualified-name="abrirPanelPrincipal.PanelPrincipalService" data-source-line="8" id="ent0005"><rect fill="#B5BD68" height="37.6094" rx="2.5" ry="2.5" style="stroke:#181818;stroke-width:0.5;" width="156.1787" x="125.5" y="348.3564"/><text fill="#000000" font-family="sans-serif" font-size="14" lengthAdjust="spacing" textLength="136.1787" x="135.5" y="372.8896">PanelPrincipalService</text></g><!--entity SesionService--><g class="entity" data-qualified-name="abrirPanelPrincipal.SesionService" data-source-line="9" id="ent0006"><rect fill="#B5BD68" height="37.6094" rx="2.5" ry="2.5" style="stroke:#181818;stroke-width:0.5;" width="109.4893" x="462" y="348.3564"/><text fill="#000000" font-family="sans-serif" font-size="14" lengthAdjust="spacing" textLength="89.4893" x="472" y="372.8896">SesionService</text></g><!--entity Sesion--><g class="entity" data-qualified-name="abrirPanelPrincipal.Sesion" data-source-line="10" id="ent0007"><rect fill="#F2AC4E" height="37.6094" rx="2.5" ry="2.5" style="stroke:#181818;stroke-width:0.5;" width="62.8066" x="172" y="464.3564"/><text fill="#000000" font-family="sans-serif" font-size="14" lengthAdjust="spacing" textLength="42.8066" x="182" y="488.8896">Sesion</text></g><!--entity Coordinador--><g class="entity" data-qualified-name="Coordinador" data-source-line="3" id="ent0001"><ellipse cx="44.5239" cy="84.8564" fill="#F1F1F1" rx="8" ry="8" style="stroke:#181818;stroke-width:0.5;"/><path d="M44.5239,92.8564 L44.5239,119.8564 M31.5239,100.8564 L57.5239,100.8564 M44.5239,119.8564 L31.5239,134.8564 M44.5239,119.8564 L57.5239,134.8564" fill="none" style="stroke:#181818;stroke-width:0.5;"/><text fill="#000000" font-family="sans-serif" font-size="14" lengthAdjust="spacing" textLength="77.0479" x="6" y="150.8896">Coordinador</text></g><!--entity PanelPrincipalAbierto--><g class="entity" data-qualified-name="PanelPrincipalAbierto" data-source-line="13" id="ent0008"><rect fill="#CDEBA5" height="37.6094" rx="2.5" ry="2.5" style="stroke:#181818;stroke-width:0.5;" width="220.7373" x="3040" y="96.3564"/><text fill="#000000" font-family="sans-serif" font-size="14" lengthAdjust="spacing" textLength="200.7373" x="3050" y="120.8896">:PANEL_PRINCIPAL_ABIERTO</text></g><!--entity InvestigadoresAbiertos--><g class="entity" data-qualified-name="InvestigadoresAbiertos" data-source-line="14" id="ent0009"><rect fill="#CDEBA5" height="37.6094" rx="2.5" ry="2.5" style="stroke:#181818;stroke-width:0.5;" width="226.9375" x="810" y="96.3564"/><text fill="#000000" font-family="sans-serif" font-size="14" lengthAdjust="spacing" textLength="206.9375" x="820" y="120.8896">:INVESTIGADORES_ABIERTOS</text></g><!--entity OpcionesCargaTrabajoAbiertas--><g class="entity" data-qualified-name="OpcionesCargaTrabajoAbiertas" data-source-line="15" id="ent0010"><rect fill="#CDEBA5" height="37.6094" rx="2.5" ry="2.5" style="stroke:#181818;stroke-width:0.5;" width="304.7441" x="1072" y="96.3564"/><text fill="#000000" font-family="sans-serif" font-size="14" lengthAdjust="spacing" textLength="284.7441" x="1082" y="120.8896">:OPCIONES_CARGA_TRABAJO_ABIERTAS</text></g><!--entity OpcionesPerfilAbierto--><g class="entity" data-qualified-name="OpcionesPerfilAbierto" data-source-line="16" id="ent0011"><rect fill="#CDEBA5" height="37.6094" rx="2.5" ry="2.5" style="stroke:#181818;stroke-width:0.5;" width="223.834" x="1518.5" y="96.3564"/><text fill="#000000" font-family="sans-serif" font-size="14" lengthAdjust="spacing" textLength="203.834" x="1528.5" y="120.8896">:OPCIONES_PERFIL_ABIERTO</text></g><!--entity MisPublicacionesAbiertas--><g class="entity" data-qualified-name="MisPublicacionesAbiertas" data-source-line="17" id="ent0012"><rect fill="#CDEBA5" height="37.6094" rx="2.5" ry="2.5" style="stroke:#181818;stroke-width:0.5;" width="247.1787" x="1778" y="96.3564"/><text fill="#000000" font-family="sans-serif" font-size="14" lengthAdjust="spacing" textLength="227.1787" x="1788" y="120.8896">:MIS_PUBLICACIONES_ABIERTAS</text></g><!--entity PublicacionesAbiertas--><g class="entity" data-qualified-name="PublicacionesAbiertas" data-source-line="18" id="ent0013"><rect fill="#CDEBA5" height="37.6094" rx="2.5" ry="2.5" style="stroke:#181818;stroke-width:0.5;" width="214.5029" x="2060" y="96.3564"/><text fill="#000000" font-family="sans-serif" font-size="14" lengthAdjust="spacing" textLength="194.5029" x="2070" y="120.8896">:PUBLICACIONES_ABIERTAS</text></g><!--entity ConvocatoriasAbiertas--><g class="entity" data-qualified-name="ConvocatoriasAbiertas" data-source-line="19" id="ent0014"><rect fill="#CDEBA5" height="37.6094" rx="2.5" ry="2.5" style="stroke:#181818;stroke-width:0.5;" width="223.8203" x="2310.5" y="96.3564"/><text fill="#000000" font-family="sans-serif" font-size="14" lengthAdjust="spacing" textLength="203.8203" x="2320.5" y="120.8896">:CONVOCATORIAS_ABIERTAS</text></g><!--entity RecompensasAbiertas--><g class="entity" data-qualified-name="RecompensasAbiertas" data-source-line="20" id="ent0015"><rect fill="#CDEBA5" height="37.6094" rx="2.5" ry="2.5" style="stroke:#181818;stroke-width:0.5;" width="209.8271" x="2569.5" y="96.3564"/><text fill="#000000" font-family="sans-serif" font-size="14" lengthAdjust="spacing" textLength="189.8271" x="2579.5" y="120.8896">:RECOMPENSAS_ABIERTAS</text></g><!--entity ProyectosAbiertos--><g class="entity" data-qualified-name="ProyectosAbiertos" data-source-line="21" id="ent0016"><rect fill="#CDEBA5" height="37.6094" rx="2.5" ry="2.5" style="stroke:#181818;stroke-width:0.5;" width="190.3721" x="2814.5" y="96.3564"/><text fill="#000000" font-family="sans-serif" font-size="14" lengthAdjust="spacing" textLength="170.3721" x="2824.5" y="120.8896">:PROYECTOS_ABIERTOS</text></g><!--entity AbrirOpcionesPerfil--><g class="entity" data-qualified-name="AbrirOpcionesPerfil" data-source-line="22" id="ent0017"><rect fill="#CDEBA5" height="37.6094" rx="2.5" ry="2.5" style="stroke:#181818;stroke-width:0.5;" width="230.875" x="689" y="232.3564"/><text fill="#000000" font-family="sans-serif" font-size="14" lengthAdjust="spacing" textLength="210.875" x="699" y="256.8896">:Collaboration AbrirOpcionesPerfil</text></g><!--entity AbrirOpcionesCargaTrabajo--><g class="entity" data-qualified-name="AbrirOpcionesCargaTrabajo" data-source-line="23" id="ent0018"><rect fill="#CDEBA5" height="37.6094" rx="2.5" ry="2.5" style="stroke:#181818;stroke-width:0.5;" width="284.5781" x="955" y="232.3564"/><text fill="#000000" font-family="sans-serif" font-size="14" lengthAdjust="spacing" textLength="264.5781" x="965" y="256.8896">:Collaboration AbrirOpcionesCargaTrabajo</text></g><!--entity AbrirProyectos--><g class="entity" data-qualified-name="AbrirProyectos" data-source-line="24" id="ent0019"><rect fill="#CDEBA5" height="37.6094" rx="2.5" ry="2.5" style="stroke:#181818;stroke-width:0.5;" width="202.082" x="1275.5" y="232.3564"/><text fill="#000000" font-family="sans-serif" font-size="14" lengthAdjust="spacing" textLength="182.082" x="1285.5" y="256.8896">:Collaboration AbrirProyectos</text></g><!--entity AbrirInvestigadores--><g class="entity" data-qualified-name="AbrirInvestigadores" data-source-line="25" id="ent0020"><rect fill="#CDEBA5" height="37.6094" rx="2.5" ry="2.5" style="stroke:#181818;stroke-width:0.5;" width="230.8887" x="1513" y="232.3564"/><text fill="#000000" font-family="sans-serif" font-size="14" lengthAdjust="spacing" textLength="210.8887" x="1523" y="256.8896">:Collaboration AbrirInvestigadores</text></g><!--entity AbrirMisPublicaciones--><g class="entity" data-qualified-name="AbrirMisPublicaciones" data-source-line="26" id="ent0021"><rect fill="#CDEBA5" height="37.6094" rx="2.5" ry="2.5" style="stroke:#181818;stroke-width:0.5;" width="247.9922" x="1779.5" y="232.3564"/><text fill="#000000" font-family="sans-serif" font-size="14" lengthAdjust="spacing" textLength="227.9922" x="1789.5" y="256.8896">:Collaboration AbrirMisPublicaciones</text></g><!--entity AbrirPublicaciones--><g class="entity" data-qualified-name="AbrirPublicaciones" data-source-line="27" id="ent0022"><rect fill="#CDEBA5" height="37.6094" rx="2.5" ry="2.5" style="stroke:#181818;stroke-width:0.5;" width="226.2197" x="2062.5" y="232.3564"/><text fill="#000000" font-family="sans-serif" font-size="14" lengthAdjust="spacing" textLength="206.2197" x="2072.5" y="256.8896">:Collaboration AbrirPublicaciones</text></g><!--entity AbrirConvocatorias--><g class="entity" data-qualified-name="AbrirConvocatorias" data-source-line="28" id="ent0023"><rect fill="#CDEBA5" height="37.6094" rx="2.5" ry="2.5" style="stroke:#181818;stroke-width:0.5;" width="229.3232" x="2324" y="232.3564"/><text fill="#000000" font-family="sans-serif" font-size="14" lengthAdjust="spacing" textLength="209.3232" x="2334" y="256.8896">:Collaboration AbrirConvocatorias</text></g><!--entity AbrirRecompensas--><g class="entity" data-qualified-name="AbrirRecompensas" data-source-line="29" id="ent0024"><rect fill="#CDEBA5" height="37.6094" rx="2.5" ry="2.5" style="stroke:#181818;stroke-width:0.5;" width="229.3232" x="2588" y="232.3564"/><text fill="#000000" font-family="sans-serif" font-size="14" lengthAdjust="spacing" textLength="209.3232" x="2598" y="256.8896">:Collaboration AbrirRecompensas</text></g><!--entity CerrarSesion--><g class="entity" data-qualified-name="CerrarSesion" data-source-line="30" id="ent0025"><rect fill="#CDEBA5" height="37.6094" rx="2.5" ry="2.5" style="stroke:#181818;stroke-width:0.5;" width="192.751" x="2852" y="232.3564"/><text fill="#000000" font-family="sans-serif" font-size="14" lengthAdjust="spacing" textLength="172.751" x="2862" y="256.8896">:Collaboration CerrarSesion</text></g><!--link Coordinador to PanelPrincipalView--><g class="link" data-entity-1="ent0001" data-entity-2="ent0003" data-link-type="dependency" data-source-line="32" id="lnk26"><path d="M83.04,115.3564 C173.49,115.3564 395.44,115.3564 511.21,115.3564" fill="none" id="Coordinador-to-PanelPrincipalView" style="stroke:#181818;stroke-width:1;"/><polygon fill="#181818" points="516.21,115.3564,507.21,111.3564,511.21,115.3564,507.21,119.3564,516.21,115.3564" style="stroke:#181818;stroke-width:1;stroke-linejoin:miter;stroke-miterlimit:10;"/><text fill="#000000" font-family="sans-serif" font-size="13" lengthAdjust="spacing" textLength="117.7681" x="241.25" y="108.8516">abrirPanelPrincipal()</text></g><!--link InvestigadoresAbiertos to PanelPrincipalView--><g class="link" data-entity-1="ent0009" data-entity-2="ent0003" data-link-type="dependency" data-source-line="34" id="lnk27"><path d="M809.91,115.3564 C759.19,115.3564 706.01,115.3564 661.74,115.3564" fill="none" id="InvestigadoresAbiertos-to-PanelPrincipalView" style="stroke:#181818;stroke-width:1;"/><polygon fill="#181818" points="656.74,115.3564,665.74,119.3564,661.74,115.3564,665.74,111.3564,656.74,115.3564" style="stroke:#181818;stroke-width:1;stroke-linejoin:miter;stroke-miterlimit:10;"/><text fill="#000000" font-family="sans-serif" font-size="13" lengthAdjust="spacing" textLength="117.7681" x="674.75" y="108.8516">abrirPanelPrincipal()</text></g><!--link OpcionesCargaTrabajoAbiertas to PanelPrincipalView--><g class="link" data-entity-1="ent0010" data-entity-2="ent0003" data-link-type="dependency" data-source-line="35" id="lnk28"><path d="M1185.5,96.3164 C1135.31,71.8064 1054.5,32.3564 1054.5,32.3564 C1054.5,32.3564 775,30.3564 775,30.3564 C775,30.3564 656,30.3564 656,30.3564 C656,30.3564 625.9453,67.1159 605.4353,92.1959" fill="none" id="OpcionesCargaTrabajoAbiertas-to-PanelPrincipalView" style="stroke:#181818;stroke-width:1;"/><polygon fill="#181818" points="602.27,96.0664,611.0639,91.6317,605.4353,92.1959,604.871,86.5673,602.27,96.0664" style="stroke:#181818;stroke-width:1;stroke-linejoin:miter;stroke-miterlimit:10;"/><text fill="#000000" font-family="sans-serif" font-size="13" lengthAdjust="spacing" textLength="117.7681" x="657" y="20.8516">abrirPanelPrincipal()</text></g><!--link OpcionesPerfilAbierto to PanelPrincipalView--><g class="link" data-entity-1="ent0011" data-entity-2="ent0003" data-link-type="dependency" data-source-line="36" id="lnk29"><path d="M1605.48,96.2764 C1572.6,71.2164 1519,30.3564 1519,30.3564 C1519,30.3564 1400,30.3564 1400,30.3564 C1400,30.3564 792.5,32.3564 792.5,32.3564 C792.5,32.3564 699.2176,69.9375 638.3976,94.4475" fill="none" id="OpcionesPerfilAbierto-to-PanelPrincipalView" style="stroke:#181818;stroke-width:1;"/><polygon fill="#181818" points="633.76,96.3164,643.6028,96.6625,638.3976,94.4475,640.6125,89.2423,633.76,96.3164" style="stroke:#181818;stroke-width:1;stroke-linejoin:miter;stroke-miterlimit:10;"/><text fill="#000000" font-family="sans-serif" font-size="13" lengthAdjust="spacing" textLength="117.7681" x="1401" y="20.8516">abrirPanelPrincipal()</text></g><!--link MisPublicacionesAbiertas to PanelPrincipalView--><g class="link" data-entity-1="ent0012" data-entity-2="ent0003" data-link-type="dependency" data-source-line="37" id="lnk30"><path d="M1869.15,96.3164 C1827.52,71.8064 1760.5,32.3564 1760.5,32.3564 C1760.5,32.3564 899,30.3564 899,30.3564 C899,30.3564 780,30.3564 780,30.3564 C780,30.3564 691.5578,69.2056 634.5078,94.2656" fill="none" id="MisPublicacionesAbiertas-to-PanelPrincipalView" style="stroke:#181818;stroke-width:1;"/><polygon fill="#181818" points="629.93,96.2764,639.7788,96.3191,634.5078,94.2656,636.5614,88.9946,629.93,96.2764" style="stroke:#181818;stroke-width:1;stroke-linejoin:miter;stroke-miterlimit:10;"/><text fill="#000000" font-family="sans-serif" font-size="13" lengthAdjust="spacing" textLength="117.7681" x="781" y="20.8516">abrirPanelPrincipal()</text></g><!--link PublicacionesAbiertas to PanelPrincipalView--><g class="link" data-entity-1="ent0013" data-entity-2="ent0003" data-link-type="dependency" data-source-line="38" id="lnk31"><path d="M2138.82,96.3164 C2101.92,71.8064 2042.5,32.3564 2042.5,32.3564 C2042.5,32.3564 1395,30.3564 1395,30.3564 C1395,30.3564 1276,30.3564 1276,30.3564 C1276,30.3564 792.5,32.3564 792.5,32.3564 C792.5,32.3564 699.2176,69.9375 638.3976,94.4475" fill="none" id="PublicacionesAbiertas-to-PanelPrincipalView" style="stroke:#181818;stroke-width:1;"/><polygon fill="#181818" points="633.76,96.3164,643.6028,96.6625,638.3976,94.4475,640.6125,89.2423,633.76,96.3164" style="stroke:#181818;stroke-width:1;stroke-linejoin:miter;stroke-miterlimit:10;"/><text fill="#000000" font-family="sans-serif" font-size="13" lengthAdjust="spacing" textLength="117.7681" x="1277" y="20.8516">abrirPanelPrincipal()</text></g><!--link ConvocatoriasAbiertas to PanelPrincipalView--><g class="link" data-entity-1="ent0014" data-entity-2="ent0003" data-link-type="dependency" data-source-line="39" id="lnk32"><path d="M2392.68,96.3164 C2354.29,71.8064 2292.5,32.3564 2292.5,32.3564 C2292.5,32.3564 1023,30.3564 1023,30.3564 C1023,30.3564 904,30.3564 904,30.3564 C904,30.3564 792.5,32.3564 792.5,32.3564 C792.5,32.3564 699.2176,69.9375 638.3976,94.4475" fill="none" id="ConvocatoriasAbiertas-to-PanelPrincipalView" style="stroke:#181818;stroke-width:1;"/><polygon fill="#181818" points="633.76,96.3164,643.6028,96.6625,638.3976,94.4475,640.6125,89.2423,633.76,96.3164" style="stroke:#181818;stroke-width:1;stroke-linejoin:miter;stroke-miterlimit:10;"/><text fill="#000000" font-family="sans-serif" font-size="13" lengthAdjust="spacing" textLength="117.7681" x="905" y="20.8516">abrirPanelPrincipal()</text></g><!--link RecompensasAbiertas to PanelPrincipalView--><g class="link" data-entity-1="ent0015" data-entity-2="ent0003" data-link-type="dependency" data-source-line="40" id="lnk33"><path d="M2646.51,96.3164 C2610.49,71.8064 2552.5,32.3564 2552.5,32.3564 C2552.5,32.3564 1271,30.3564 1271,30.3564 C1271,30.3564 1152,30.3564 1152,30.3564 C1152,30.3564 792.5,32.3564 792.5,32.3564 C792.5,32.3564 699.2176,69.9375 638.3976,94.4475" fill="none" id="RecompensasAbiertas-to-PanelPrincipalView" style="stroke:#181818;stroke-width:1;"/><polygon fill="#181818" points="633.76,96.3164,643.6028,96.6625,638.3976,94.4475,640.6125,89.2423,633.76,96.3164" style="stroke:#181818;stroke-width:1;stroke-linejoin:miter;stroke-miterlimit:10;"/><text fill="#000000" font-family="sans-serif" font-size="13" lengthAdjust="spacing" textLength="117.7681" x="1153" y="20.8516">abrirPanelPrincipal()</text></g><!--link ProyectosAbiertos to PanelPrincipalView--><g class="link" data-entity-1="ent0016" data-entity-2="ent0003" data-link-type="dependency" data-source-line="41" id="lnk34"><path d="M2883.8,96.3164 C2850.74,71.8064 2797.5,32.3564 2797.5,32.3564 C2797.5,32.3564 1147,30.3564 1147,30.3564 C1147,30.3564 1028,30.3564 1028,30.3564 C1028,30.3564 792.5,32.3564 792.5,32.3564 C792.5,32.3564 699.2176,69.9375 638.3976,94.4475" fill="none" id="ProyectosAbiertos-to-PanelPrincipalView" style="stroke:#181818;stroke-width:1;"/><polygon fill="#181818" points="633.76,96.3164,643.6028,96.6625,638.3976,94.4475,640.6125,89.2423,633.76,96.3164" style="stroke:#181818;stroke-width:1;stroke-linejoin:miter;stroke-miterlimit:10;"/><text fill="#000000" font-family="sans-serif" font-size="13" lengthAdjust="spacing" textLength="117.7681" x="1029" y="20.8516">abrirPanelPrincipal()</text></g><!--link PanelPrincipalView to AbrirPanelPrincipalController--><g class="link" data-entity-1="ent0003" data-entity-2="ent0004" data-link-type="dependency" data-source-line="43" id="lnk35"><path d="M516.45,127.2064 C392.51,146.4064 147.5,184.3564 147.5,184.3564 C147.5,184.3564 147.5,202.3564 147.5,202.3564 C147.5,202.3564 197.6185,217.2978 243.2985,230.9178" fill="none" id="PanelPrincipalView-to-AbrirPanelPrincipalController" style="stroke:#181818;stroke-width:1;"/><polygon fill="#181818" points="248.09,232.3464,240.6081,225.9416,243.2985,230.9178,238.3223,233.6081,248.09,232.3464" style="stroke:#181818;stroke-width:1;stroke-linejoin:miter;stroke-miterlimit:10;"/><text fill="#000000" font-family="sans-serif" font-size="13" lengthAdjust="spacing" textLength="210.2788" x="148.5" y="198.8516">obtenerAccionesDisponibles(sesion)</text></g><!--link AbrirPanelPrincipalController to PanelPrincipalView--><g class="link" data-entity-1="ent0004" data-entity-2="ent0003" data-link-type="dependency" data-source-line="49" id="lnk39"><path d="M344.3,232.3264 C383.08,212.7764 439.5,184.3564 439.5,184.3564 C439.5,184.3564 499.4022,156.646 542.9522,136.496" fill="none" id="AbrirPanelPrincipalController-to-PanelPrincipalView" style="stroke:#181818;stroke-width:1;"/><polygon fill="#181818" points="547.49,134.3964,537.6423,134.5454,542.9522,136.496,541.0016,141.8059,547.49,134.3964" style="stroke:#181818;stroke-width:1;stroke-linejoin:miter;stroke-miterlimit:10;"/><text fill="#000000" font-family="sans-serif" font-size="13" lengthAdjust="spacing" textLength="252.186" x="440.5" y="198.8516">presentarAccionesDisponibles(coordinador)</text></g><!--link AbrirPanelPrincipalController to SesionService--><g class="link" data-entity-1="ent0004" data-entity-2="ent0006" data-link-type="dependency" data-source-line="44" id="lnk36"><path d="M371.91,270.3664 C419.86,283.9864 477.5,300.3564 477.5,300.3564 C477.5,300.3564 491.7584,324.4706 503.2984,344.0206" fill="none" id="AbrirPanelPrincipalController-to-SesionService" style="stroke:#181818;stroke-width:1;"/><polygon fill="#181818" points="505.84,348.3264,504.7097,338.5427,503.2984,344.0206,497.8204,342.6093,505.84,348.3264" style="stroke:#181818;stroke-width:1;stroke-linejoin:miter;stroke-miterlimit:10;"/><text fill="#000000" font-family="sans-serif" font-size="13" lengthAdjust="spacing" textLength="128.6289" x="488.5" y="314.8516">obtenerSesionActual()</text></g><!--link AbrirPanelPrincipalController to PanelPrincipalService--><g class="link" data-entity-1="ent0004" data-entity-2="ent0005" data-link-type="dependency" data-source-line="45" id="lnk37"><path d="M267.98,270.3664 C237.33,283.9864 200.5,300.3564 200.5,300.3564 C200.5,300.3564 200.5,318.3564 200.5,318.3564 C200.5,318.3564 201.2079,329.6262 202.0579,343.2162" fill="none" id="AbrirPanelPrincipalController-to-PanelPrincipalService" style="stroke:#181818;stroke-width:1;"/><polygon fill="#181818" points="202.37,348.2064,205.8004,338.9743,202.0579,343.2162,197.816,339.4737,202.37,348.2064" style="stroke:#181818;stroke-width:1;stroke-linejoin:miter;stroke-miterlimit:10;"/><text fill="#000000" font-family="sans-serif" font-size="13" lengthAdjust="spacing" textLength="271.6479" x="201.5" y="314.8516">obtenerAccionesDisponibles(COORDINADOR)</text></g><!--link PanelPrincipalService to Sesion--><g class="link" data-entity-1="ent0005" data-entity-2="ent0007" data-link-type="dependency" data-source-line="47" id="lnk38"><path d="M203.5,386.4164 C203.5,407.6364 203.5,437.6564 203.5,458.9964" fill="none" id="PanelPrincipalService-to-Sesion" style="stroke:#181818;stroke-width:1;"/><polygon fill="#181818" points="203.5,463.9964,207.5,454.9964,203.5,458.9964,199.5,454.9964,203.5,463.9964" style="stroke:#181818;stroke-width:1;stroke-linejoin:miter;stroke-miterlimit:10;"/><text fill="#000000" font-family="sans-serif" font-size="13" lengthAdjust="spacing" textLength="190.0361" x="204.5" y="430.8516">obtenerRolActivo() : Coordinador</text></g><!--link PanelPrincipalView to PanelPrincipalAbierto--><g class="link" data-entity-1="ent0003" data-entity-2="ent0008" data-link-type="dependency" data-source-line="51" id="lnk40"><path d="M633.76,96.3164 C694.58,71.8064 792.5,32.3564 792.5,32.3564 C792.5,32.3564 2217.5,30.3564 2217.5,30.3564 C2217.5,30.3564 2347.5,30.3564 2347.5,30.3564 C2347.5,30.3564 3022.5,32.3564 3022.5,32.3564 C3022.5,32.3564 3079.1451,69.0857 3116.9351,93.5957" fill="none" id="PanelPrincipalView-to-PanelPrincipalAbierto" style="stroke:#181818;stroke-width:1;"/><polygon fill="#181818" points="3121.13,96.3164,3115.7557,88.0631,3116.9351,93.5957,3111.4025,94.775,3121.13,96.3164" style="stroke:#181818;stroke-width:1;stroke-linejoin:miter;stroke-miterlimit:10;"/><text fill="#000000" font-family="sans-serif" font-size="13" lengthAdjust="spacing" textLength="128.6162" x="2218.5" y="20.8516">panelPrincipalVisible()</text></g><!--link PanelPrincipalView to AbrirOpcionesPerfil--><g class="link" data-entity-1="ent0003" data-entity-2="ent0017" data-link-type="dependency" data-source-line="52" id="lnk41"><path d="M615.9,134.4264 C657.51,160.0064 728.8808,203.8674 770.6108,229.5274" fill="none" id="PanelPrincipalView-to-AbrirOpcionesPerfil" style="stroke:#181818;stroke-width:1;stroke-dasharray:7,7;"/><polygon fill="#181818" points="774.87,232.1464,769.2986,224.0249,770.6108,229.5274,765.1082,230.8396,774.87,232.1464" style="stroke:#181818;stroke-width:1;stroke-linejoin:miter;stroke-miterlimit:10;"/><text fill="#000000" font-family="sans-serif" font-size="13" lengthAdjust="spacing" textLength="119.2026" x="721.5" y="198.8516">abrirOpcionesPerfil()</text></g><!--link PanelPrincipalView to AbrirOpcionesCargaTrabajo--><g class="link" data-entity-1="ent0003" data-entity-2="ent0018" data-link-type="dependency" data-source-line="53" id="lnk42"><path d="M656.29,134.3964 C734.2,154.5464 849.5,184.3564 849.5,184.3564 C849.5,184.3564 951.4683,211.4901 1024.8983,231.0401" fill="none" id="PanelPrincipalView-to-AbrirOpcionesCargaTrabajo" style="stroke:#181818;stroke-width:1;stroke-dasharray:7,7;"/><polygon fill="#181818" points="1029.73,232.3264,1022.0621,226.1456,1024.8983,231.0401,1020.0039,233.8763,1029.73,232.3264" style="stroke:#181818;stroke-width:1;stroke-linejoin:miter;stroke-miterlimit:10;"/><text fill="#000000" font-family="sans-serif" font-size="13" lengthAdjust="spacing" textLength="169.0698" x="916.5" y="198.8516">abrirOpcionesCargaTrabajo()</text></g><!--link PanelPrincipalView to AbrirProyectos--><g class="link" data-entity-1="ent0003" data-entity-2="ent0019" data-link-type="dependency" data-source-line="54" id="lnk43"><path d="M656.53,129.2764 C716.25,140.2864 792.5,154.3564 792.5,154.3564 C792.5,154.3564 1094.5,184.3564 1094.5,184.3564 C1094.5,184.3564 1211.0817,211.6365 1294.5717,231.1865" fill="none" id="PanelPrincipalView-to-AbrirProyectos" style="stroke:#181818;stroke-width:1;stroke-dasharray:7,7;"/><polygon fill="#181818" points="1299.44,232.3264,1291.589,226.3799,1294.5717,231.1865,1289.7651,234.1692,1299.44,232.3264" style="stroke:#181818;stroke-width:1;stroke-linejoin:miter;stroke-miterlimit:10;"/><text fill="#000000" font-family="sans-serif" font-size="13" lengthAdjust="spacing" textLength="92.4663" x="1170.5" y="198.8516">abrirProyectos()</text></g><!--link PanelPrincipalView to AbrirInvestigadores--><g class="link" data-entity-1="ent0003" data-entity-2="ent0020" data-link-type="dependency" data-source-line="55" id="lnk44"><path d="M656.53,129.2764 C716.25,140.2864 792.5,154.3564 792.5,154.3564 C792.5,154.3564 1271.5,184.3564 1271.5,184.3564 C1271.5,184.3564 1420.3334,211.8671 1526.0334,231.4171" fill="none" id="PanelPrincipalView-to-AbrirInvestigadores" style="stroke:#181818;stroke-width:1;stroke-dasharray:7,7;"/><polygon fill="#181818" points="1530.95,232.3264,1522.8276,226.7563,1526.0334,231.4171,1521.3726,234.6229,1530.95,232.3264" style="stroke:#181818;stroke-width:1;stroke-linejoin:miter;stroke-miterlimit:10;"/><text fill="#000000" font-family="sans-serif" font-size="13" lengthAdjust="spacing" textLength="119.2153" x="1367.5" y="198.8516">abrirInvestigadores()</text></g><!--link PanelPrincipalView to AbrirMisPublicaciones--><g class="link" data-entity-1="ent0003" data-entity-2="ent0021" data-link-type="dependency" data-source-line="56" id="lnk45"><path d="M656.53,129.2764 C716.25,140.2864 792.5,154.3564 792.5,154.3564 C792.5,154.3564 1495.5,184.3564 1495.5,184.3564 C1495.5,184.3564 1666.2742,211.9776 1787.0742,231.5276" fill="none" id="PanelPrincipalView-to-AbrirMisPublicaciones" style="stroke:#181818;stroke-width:1;stroke-dasharray:7,7;"/><polygon fill="#181818" points="1792.01,232.3264,1783.7646,226.94,1787.0742,231.5276,1782.4866,234.8372,1792.01,232.3264" style="stroke:#181818;stroke-width:1;stroke-linejoin:miter;stroke-miterlimit:10;"/><text fill="#000000" font-family="sans-serif" font-size="13" lengthAdjust="spacing" textLength="135.0972" x="1605.5" y="198.8516">abrirMisPublicaciones()</text></g><!--link PanelPrincipalView to AbrirPublicaciones--><g class="link" data-entity-1="ent0003" data-entity-2="ent0022" data-link-type="dependency" data-source-line="57" id="lnk46"><path d="M656.53,129.2764 C716.25,140.2864 792.5,154.3564 792.5,154.3564 C792.5,154.3564 1749.5,184.3564 1749.5,184.3564 C1749.5,184.3564 1931.309,212.5207 2057.519,232.0807" fill="none" id="PanelPrincipalView-to-AbrirPublicaciones" style="stroke:#181818;stroke-width:1;stroke-dasharray:7,7;"/><polygon fill="#181818" points="2062.46,232.8464,2054.1788,227.5153,2057.519,232.0807,2052.9536,235.4209,2062.46,232.8464" style="stroke:#181818;stroke-width:1;stroke-linejoin:miter;stroke-miterlimit:10;"/><text fill="#000000" font-family="sans-serif" font-size="13" lengthAdjust="spacing" textLength="114.8799" x="1864.5" y="198.8516">abrirPublicaciones()</text></g><!--link PanelPrincipalView to AbrirConvocatorias--><g class="link" data-entity-1="ent0003" data-entity-2="ent0023" data-link-type="dependency" data-source-line="58" id="lnk47"><path d="M656.53,129.2764 C716.25,140.2864 792.5,154.3564 792.5,154.3564 C792.5,154.3564 1987.5,184.3564 1987.5,184.3564 C1987.5,184.3564 2185.2527,213.2922 2318.8727,232.8522" fill="none" id="PanelPrincipalView-to-AbrirConvocatorias" style="stroke:#181818;stroke-width:1;stroke-dasharray:7,7;"/><polygon fill="#181818" points="2323.82,233.5764,2315.4943,228.3151,2318.8727,232.8522,2314.3355,236.2307,2323.82,233.5764" style="stroke:#181818;stroke-width:1;stroke-linejoin:miter;stroke-miterlimit:10;"/><text fill="#000000" font-family="sans-serif" font-size="13" lengthAdjust="spacing" textLength="117.7617" x="2108.5" y="198.8516">abrirConvocatorias()</text></g><!--link PanelPrincipalView to AbrirRecompensas--><g class="link" data-entity-1="ent0003" data-entity-2="ent0024" data-link-type="dependency" data-source-line="59" id="lnk48"><path d="M656.53,129.2764 C716.25,140.2864 792.5,154.3564 792.5,154.3564 C792.5,154.3564 2234.5,184.3564 2234.5,184.3564 C2234.5,184.3564 2444.199,213.9282 2582.759,233.4682" fill="none" id="PanelPrincipalView-to-AbrirRecompensas" style="stroke:#181818;stroke-width:1;stroke-dasharray:7,7;"/><polygon fill="#181818" points="2587.71,234.1664,2579.3567,228.9489,2582.759,233.4682,2578.2396,236.8705,2587.71,234.1664" style="stroke:#181818;stroke-width:1;stroke-linejoin:miter;stroke-miterlimit:10;"/><text fill="#000000" font-family="sans-serif" font-size="13" lengthAdjust="spacing" textLength="117.7617" x="2360.5" y="198.8516">abrirRecompensas()</text></g><!--link PanelPrincipalView to CerrarSesion--><g class="link" data-entity-1="ent0003" data-entity-2="ent0025" data-link-type="dependency" data-source-line="60" id="lnk49"><path d="M656.53,129.2764 C716.25,140.2864 792.5,154.3564 792.5,154.3564 C792.5,154.3564 2486.5,184.3564 2486.5,184.3564 C2486.5,184.3564 2834.5,232.3564 2834.5,232.3564 C2834.5,232.3564 2836.4609,232.6683 2846.8709,234.3083" fill="none" id="PanelPrincipalView-to-CerrarSesion" style="stroke:#181818;stroke-width:1;stroke-dasharray:7,7;"/><polygon fill="#181818" points="2851.81,235.0864,2843.5421,229.7346,2846.8709,234.3083,2842.2972,237.6371,2851.81,235.0864" style="stroke:#181818;stroke-width:1;stroke-linejoin:miter;stroke-miterlimit:10;"/><text fill="#000000" font-family="sans-serif" font-size="13" lengthAdjust="spacing" textLength="82.3545" x="2609.5" y="198.8516">cerrarSesion()</text></g><?plantuml-src hPPDR-CW48Rl_0gKlRI7z51jgsqEbGXnAwzQOpbffJrLcB0HMzTOu6PLhVQ_BucT11pYZsfpOvXvCkCPNj2l8Y-eecym4palFmeE2vbzR1O0K5PA1R6KQYbokfGAW8AoLxhYaAPAg9ZcF8kLo9aeQ0QfXYEF_Uny1Fy0Q7wAivBcgup3BzUNDy7T3NGzdmN_tNHChzBbzJU8ZhbOvgMIMSRLYHZNVSxLMZ1-mdVEjP3v2P-xIuI_1hKF-0k0jOTdmHHTmT4aHb7my18dOOJ363sye6aO90iosdmMDnEK2gvAwQM4qNCmNuJtQ4QIOBw3pBUKC5zpNOhLfXDSrnJjnP0OXoGo08oIU_IoID0KVISr3bKuKZ1J3jUOgXLTA9hINxA2qWve72HteLlX3XPpzLEqLlWO6i3Jz274gCOvMJqA7R-dcM2q0hPcrCBf3y4aUYOOBKWIeWR4ZDXQCcfEWQ3ja2J0v34EedaJaN0ctmgUwmv0d90V0JQjTdiUA_bXl6Lxkx4v1ZILYfQctEgik0tPiZpseJHxLewPzcvVyhx00svlwijm3yO1vDhxqfeJUE0rTthNwCTzYkMCv87bcFkohDaya2nZ3mxcIb5LAMDrP2m30DRT0STgVEiH_0dqtXa0-ELkAAPDvJxBSaHkAEIKm0tb_1U8L-26GZmIDxYOfimDdfPZLpXU6aJhms42PLhod2l4gkyu4xgGkKWphi_qTeRFGIi1Zir_E8-7FREo8bQ-RpFindZVAwqfOaAIMHXj7Wj7dw2EjnBSenAPcRJ4MfwTmudxlXkQPTMJmXnGdfVKcoGxy4_qwRZLzHWOSiDTRvYRWJd6N5pS-gwuUc9SOq-2BHeDZhtLGTiFzsvuT-kEE5S0ws3Ns45eQatDQ9gxylSWXiGx8bF7ExQEU4jVwcZBSZhMleaca5ah4_CF?></g></svg>