<svg xmlns="http://www.w3.org/2000/svg" xmlns:xlink="http://www.w3.org/1999/xlink" contentStyleType="text/css" data-diagram-type="DESCRIPTION" height="363px" preserveAspectRatio="none" style="width:3058px;height:363px;background:#FFFFFF;" version="1.1" viewBox="0 0 3058 363" width="3058px" zoomAndPan="magnify"><?plantuml 1.2026.5?><defs/><g><!--cluster abrirPanelPrincipal--><g class="cluster" data-qualified-name="abrirPanelPrincipal" data-source-line="5" id="ent0002"><path d="M102,6 L239.9307,6 A3.75,3.75 0 0 1 242.4307,8.5 L249.4307,29.6094 L670,29.6094 A2.5,2.5 0 0 1 672.5,32.1094 L672.5,345.5 A2.5,2.5 0 0 1 670,348 L102,348 A2.5,2.5 0 0 1 99.5,345.5 L99.5,8.5 A2.5,2.5 0 0 1 102,6" fill="none" style="stroke:#000000;stroke-width:1.5;"/><line style="stroke:#000000;stroke-width:1.5;" x1="99.5" x2="249.4307" y1="29.6094" y2="29.6094"/><text fill="#000000" font-family="sans-serif" font-size="14" font-weight="700" lengthAdjust="spacing" textLength="136.9307" x="103.5" y="22.5332">abrirPanelPrincipal()</text></g><!--entity PanelPrincipalView--><g class="entity" data-qualified-name="abrirPanelPrincipal.PanelPrincipalView" data-source-line="6" id="ent0003"><rect fill="#629EF9" height="37.6094" rx="2.5" ry="2.5" style="stroke:#181818;stroke-width:0.5;" width="139.8408" x="516.5" y="42"/><text fill="#000000" font-family="sans-serif" font-size="14" lengthAdjust="spacing" textLength="119.8408" x="526.5" y="66.5332">PanelPrincipalView</text></g><!--entity AbrirPanelPrincipalController--><g class="entity" data-qualified-name="abrirPanelPrincipal.AbrirPanelPrincipalController" data-source-line="7" id="ent0004"><rect fill="#B5BD68" height="37.6094" rx="2.5" ry="2.5" style="stroke:#181818;stroke-width:0.5;" width="199.7441" x="208.5" y="178"/><text fill="#000000" font-family="sans-serif" font-size="14" lengthAdjust="spacing" textLength="179.7441" x="218.5" y="202.5332">AbrirPanelPrincipalController</text></g><!--entity Sesion--><g class="entity" data-qualified-name="abrirPanelPrincipal.Sesion" data-source-line="8" id="ent0005"><rect fill="#F2AC4E" height="37.6094" rx="2.5" ry="2.5" style="stroke:#181818;stroke-width:0.5;" width="62.8066" x="277" y="294"/><text fill="#000000" font-family="sans-serif" font-size="14" lengthAdjust="spacing" textLength="42.8066" x="287" y="318.5332">Sesion</text></g><!--entity Coordinador--><g class="entity" data-qualified-name="Coordinador" data-source-line="3" id="ent0001"><ellipse cx="44.5239" cy="30.5" fill="#F1F1F1" rx="8" ry="8" style="stroke:#181818;stroke-width:0.5;"/><path d="M44.5239,38.5 L44.5239,65.5 M31.5239,46.5 L57.5239,46.5 M44.5239,65.5 L31.5239,80.5 M44.5239,65.5 L57.5239,80.5" fill="none" style="stroke:#181818;stroke-width:0.5;"/><text fill="#000000" font-family="sans-serif" font-size="14" lengthAdjust="spacing" textLength="77.0479" x="6" y="96.5332">Coordinador</text></g><!--entity PanelPrincipalAbierto--><g class="entity" data-qualified-name="PanelPrincipalAbierto" data-source-line="11" id="ent0006"><rect fill="#CDEBA5" height="37.6094" rx="2.5" ry="2.5" style="stroke:#181818;stroke-width:0.5;" width="220.7373" x="821" y="42"/><text fill="#000000" font-family="sans-serif" font-size="14" lengthAdjust="spacing" textLength="200.7373" x="831" y="66.5332">:PANEL_PRINCIPAL_ABIERTO</text></g><!--entity AbrirOpcionesPerfil--><g class="entity" data-qualified-name="AbrirOpcionesPerfil" data-source-line="12" id="ent0007"><rect fill="#CDEBA5" height="37.6094" rx="2.5" ry="2.5" style="stroke:#181818;stroke-width:0.5;" width="230.875" x="689" y="178"/><text fill="#000000" font-family="sans-serif" font-size="14" lengthAdjust="spacing" textLength="210.875" x="699" y="202.5332">:Collaboration AbrirOpcionesPerfil</text></g><!--entity AbrirOpcionesCargaTrabajo--><g class="entity" data-qualified-name="AbrirOpcionesCargaTrabajo" data-source-line="13" id="ent0008"><rect fill="#CDEBA5" height="37.6094" rx="2.5" ry="2.5" style="stroke:#181818;stroke-width:0.5;" width="284.5781" x="955" y="178"/><text fill="#000000" font-family="sans-serif" font-size="14" lengthAdjust="spacing" textLength="264.5781" x="965" y="202.5332">:Collaboration AbrirOpcionesCargaTrabajo</text></g><!--entity AbrirProyectos--><g class="entity" data-qualified-name="AbrirProyectos" data-source-line="14" id="ent0009"><rect fill="#CDEBA5" height="37.6094" rx="2.5" ry="2.5" style="stroke:#181818;stroke-width:0.5;" width="202.082" x="1275.5" y="178"/><text fill="#000000" font-family="sans-serif" font-size="14" lengthAdjust="spacing" textLength="182.082" x="1285.5" y="202.5332">:Collaboration AbrirProyectos</text></g><!--entity AbrirInvestigadores--><g class="entity" data-qualified-name="AbrirInvestigadores" data-source-line="15" id="ent0010"><rect fill="#CDEBA5" height="37.6094" rx="2.5" ry="2.5" style="stroke:#181818;stroke-width:0.5;" width="230.8887" x="1513" y="178"/><text fill="#000000" font-family="sans-serif" font-size="14" lengthAdjust="spacing" textLength="210.8887" x="1523" y="202.5332">:Collaboration AbrirInvestigadores</text></g><!--entity AbrirMisPublicaciones--><g class="entity" data-qualified-name="AbrirMisPublicaciones" data-source-line="16" id="ent0011"><rect fill="#CDEBA5" height="37.6094" rx="2.5" ry="2.5" style="stroke:#181818;stroke-width:0.5;" width="247.9922" x="1779.5" y="178"/><text fill="#000000" font-family="sans-serif" font-size="14" lengthAdjust="spacing" textLength="227.9922" x="1789.5" y="202.5332">:Collaboration AbrirMisPublicaciones</text></g><!--entity AbrirPublicaciones--><g class="entity" data-qualified-name="AbrirPublicaciones" data-source-line="17" id="ent0012"><rect fill="#CDEBA5" height="37.6094" rx="2.5" ry="2.5" style="stroke:#181818;stroke-width:0.5;" width="226.2197" x="2062.5" y="178"/><text fill="#000000" font-family="sans-serif" font-size="14" lengthAdjust="spacing" textLength="206.2197" x="2072.5" y="202.5332">:Collaboration AbrirPublicaciones</text></g><!--entity AbrirConvocatorias--><g class="entity" data-qualified-name="AbrirConvocatorias" data-source-line="18" id="ent0013"><rect fill="#CDEBA5" height="37.6094" rx="2.5" ry="2.5" style="stroke:#181818;stroke-width:0.5;" width="229.3232" x="2324" y="178"/><text fill="#000000" font-family="sans-serif" font-size="14" lengthAdjust="spacing" textLength="209.3232" x="2334" y="202.5332">:Collaboration AbrirConvocatorias</text></g><!--entity AbrirRecompensas--><g class="entity" data-qualified-name="AbrirRecompensas" data-source-line="19" id="ent0014"><rect fill="#CDEBA5" height="37.6094" rx="2.5" ry="2.5" style="stroke:#181818;stroke-width:0.5;" width="229.3232" x="2588" y="178"/><text fill="#000000" font-family="sans-serif" font-size="14" lengthAdjust="spacing" textLength="209.3232" x="2598" y="202.5332">:Collaboration AbrirRecompensas</text></g><!--entity CerrarSesion--><g class="entity" data-qualified-name="CerrarSesion" data-source-line="20" id="ent0015"><rect fill="#CDEBA5" height="37.6094" rx="2.5" ry="2.5" style="stroke:#181818;stroke-width:0.5;" width="192.751" x="2852" y="178"/><text fill="#000000" font-family="sans-serif" font-size="14" lengthAdjust="spacing" textLength="172.751" x="2862" y="202.5332">:Collaboration CerrarSesion</text></g><!--link Coordinador to PanelPrincipalView--><g class="link" data-entity-1="ent0001" data-entity-2="ent0003" data-link-type="dependency" data-source-line="22" id="lnk16"><path d="M83.04,61 C173.49,61 395.44,61 511.21,61" fill="none" id="Coordinador-to-PanelPrincipalView" style="stroke:#181818;stroke-width:1;"/><polygon fill="#181818" points="516.21,61,507.21,57,511.21,61,507.21,65,516.21,61" style="stroke:#181818;stroke-width:1;stroke-linejoin:miter;stroke-miterlimit:10;"/><text fill="#000000" font-family="sans-serif" font-size="13" lengthAdjust="spacing" textLength="117.7681" x="241.25" y="54.4951">abrirPanelPrincipal()</text></g><!--link PanelPrincipalView to AbrirPanelPrincipalController--><g class="link" data-entity-1="ent0003" data-entity-2="ent0004" data-link-type="dependency" data-source-line="24" id="lnk17"><path d="M516.45,72.85 C392.51,92.05 147.5,130 147.5,130 C147.5,130 147.5,148 147.5,148 C147.5,148 197.6185,162.9413 243.2985,176.5613" fill="none" id="PanelPrincipalView-to-AbrirPanelPrincipalController" style="stroke:#181818;stroke-width:1;"/><polygon fill="#181818" points="248.09,177.99,240.6081,171.5852,243.2985,176.5613,238.3223,179.2517,248.09,177.99" style="stroke:#181818;stroke-width:1;stroke-linejoin:miter;stroke-miterlimit:10;"/><text fill="#000000" font-family="sans-serif" font-size="13" lengthAdjust="spacing" textLength="210.2788" x="148.5" y="144.4951">obtenerAccionesDisponibles(sesion)</text></g><!--link AbrirPanelPrincipalController to PanelPrincipalView--><g class="link" data-entity-1="ent0004" data-entity-2="ent0003" data-link-type="dependency" data-source-line="28" id="lnk19"><path d="M344.3,177.97 C383.08,158.42 439.5,130 439.5,130 C439.5,130 499.4022,102.2896 542.9522,82.1396" fill="none" id="AbrirPanelPrincipalController-to-PanelPrincipalView" style="stroke:#181818;stroke-width:1;"/><polygon fill="#181818" points="547.49,80.04,537.6423,80.189,542.9522,82.1396,541.0016,87.4495,547.49,80.04" style="stroke:#181818;stroke-width:1;stroke-linejoin:miter;stroke-miterlimit:10;"/><text fill="#000000" font-family="sans-serif" font-size="13" lengthAdjust="spacing" textLength="252.186" x="440.5" y="144.4951">presentarAccionesDisponibles(coordinador)</text></g><!--link AbrirPanelPrincipalController to Sesion--><g class="link" data-entity-1="ent0004" data-entity-2="ent0005" data-link-type="dependency" data-source-line="26" id="lnk18"><path d="M308.5,216.06 C308.5,237.28 308.5,267.3 308.5,288.64" fill="none" id="AbrirPanelPrincipalController-to-Sesion" style="stroke:#181818;stroke-width:1;"/><polygon fill="#181818" points="308.5,293.64,312.5,284.64,308.5,288.64,304.5,284.64,308.5,293.64" style="stroke:#181818;stroke-width:1;stroke-linejoin:miter;stroke-miterlimit:10;"/><text fill="#000000" font-family="sans-serif" font-size="13" lengthAdjust="spacing" textLength="190.0361" x="309.5" y="260.4951">obtenerRolActivo() : Coordinador</text></g><!--link PanelPrincipalView to PanelPrincipalAbierto--><g class="link" data-entity-1="ent0003" data-entity-2="ent0006" data-link-type="dependency" data-source-line="30" id="lnk20"><path d="M656.73,61 C703.92,61 762.08,61 815.95,61" fill="none" id="PanelPrincipalView-to-PanelPrincipalAbierto" style="stroke:#181818;stroke-width:1;"/><polygon fill="#181818" points="820.95,61,811.95,57,815.95,61,811.95,65,820.95,61" style="stroke:#181818;stroke-width:1;stroke-linejoin:miter;stroke-miterlimit:10;"/><text fill="#000000" font-family="sans-serif" font-size="13" lengthAdjust="spacing" textLength="128.6162" x="674.75" y="54.4951">panelPrincipalVisible()</text></g><!--link PanelPrincipalView to AbrirOpcionesPerfil--><g class="link" data-entity-1="ent0003" data-entity-2="ent0007" data-link-type="dependency" data-source-line="31" id="lnk21"><path d="M615.9,80.07 C657.51,105.65 728.8808,149.511 770.6108,175.171" fill="none" id="PanelPrincipalView-to-AbrirOpcionesPerfil" style="stroke:#181818;stroke-width:1;stroke-dasharray:7,7;"/><polygon fill="#181818" points="774.87,177.79,769.2986,169.6684,770.6108,175.171,765.1082,176.4832,774.87,177.79" style="stroke:#181818;stroke-width:1;stroke-linejoin:miter;stroke-miterlimit:10;"/><text fill="#000000" font-family="sans-serif" font-size="13" lengthAdjust="spacing" textLength="119.2026" x="721.5" y="144.4951">abrirOpcionesPerfil()</text></g><!--link PanelPrincipalView to AbrirOpcionesCargaTrabajo--><g class="link" data-entity-1="ent0003" data-entity-2="ent0008" data-link-type="dependency" data-source-line="32" id="lnk22"><path d="M656.29,80.04 C734.2,100.19 849.5,130 849.5,130 C849.5,130 951.4683,157.1336 1024.8983,176.6836" fill="none" id="PanelPrincipalView-to-AbrirOpcionesCargaTrabajo" style="stroke:#181818;stroke-width:1;stroke-dasharray:7,7;"/><polygon fill="#181818" points="1029.73,177.97,1022.0621,171.7892,1024.8983,176.6836,1020.0039,179.5199,1029.73,177.97" style="stroke:#181818;stroke-width:1;stroke-linejoin:miter;stroke-miterlimit:10;"/><text fill="#000000" font-family="sans-serif" font-size="13" lengthAdjust="spacing" textLength="169.0698" x="916.5" y="144.4951">abrirOpcionesCargaTrabajo()</text></g><!--link PanelPrincipalView to AbrirProyectos--><g class="link" data-entity-1="ent0003" data-entity-2="ent0009" data-link-type="dependency" data-source-line="33" id="lnk23"><path d="M656.65,74.29 C720.05,85.39 803.5,100 803.5,100 C803.5,100 1094.5,130 1094.5,130 C1094.5,130 1211.0817,157.28 1294.5717,176.83" fill="none" id="PanelPrincipalView-to-AbrirProyectos" style="stroke:#181818;stroke-width:1;stroke-dasharray:7,7;"/><polygon fill="#181818" points="1299.44,177.97,1291.589,172.0234,1294.5717,176.83,1289.7651,179.8127,1299.44,177.97" style="stroke:#181818;stroke-width:1;stroke-linejoin:miter;stroke-miterlimit:10;"/><text fill="#000000" font-family="sans-serif" font-size="13" lengthAdjust="spacing" textLength="92.4663" x="1170.5" y="144.4951">abrirProyectos()</text></g><!--link PanelPrincipalView to AbrirInvestigadores--><g class="link" data-entity-1="ent0003" data-entity-2="ent0010" data-link-type="dependency" data-source-line="34" id="lnk24"><path d="M656.65,74.29 C720.05,85.39 803.5,100 803.5,100 C803.5,100 1271.5,130 1271.5,130 C1271.5,130 1420.3334,157.5106 1526.0334,177.0606" fill="none" id="PanelPrincipalView-to-AbrirInvestigadores" style="stroke:#181818;stroke-width:1;stroke-dasharray:7,7;"/><polygon fill="#181818" points="1530.95,177.97,1522.8276,172.3999,1526.0334,177.0606,1521.3726,180.2664,1530.95,177.97" style="stroke:#181818;stroke-width:1;stroke-linejoin:miter;stroke-miterlimit:10;"/><text fill="#000000" font-family="sans-serif" font-size="13" lengthAdjust="spacing" textLength="119.2153" x="1367.5" y="144.4951">abrirInvestigadores()</text></g><!--link PanelPrincipalView to AbrirMisPublicaciones--><g class="link" data-entity-1="ent0003" data-entity-2="ent0011" data-link-type="dependency" data-source-line="35" id="lnk25"><path d="M656.65,74.29 C720.05,85.39 803.5,100 803.5,100 C803.5,100 1495.5,130 1495.5,130 C1495.5,130 1666.2742,157.6212 1787.0742,177.1712" fill="none" id="PanelPrincipalView-to-AbrirMisPublicaciones" style="stroke:#181818;stroke-width:1;stroke-dasharray:7,7;"/><polygon fill="#181818" points="1792.01,177.97,1783.7646,172.5835,1787.0742,177.1712,1782.4866,180.4808,1792.01,177.97" style="stroke:#181818;stroke-width:1;stroke-linejoin:miter;stroke-miterlimit:10;"/><text fill="#000000" font-family="sans-serif" font-size="13" lengthAdjust="spacing" textLength="135.0972" x="1605.5" y="144.4951">abrirMisPublicaciones()</text></g><!--link PanelPrincipalView to AbrirPublicaciones--><g class="link" data-entity-1="ent0003" data-entity-2="ent0012" data-link-type="dependency" data-source-line="36" id="lnk26"><path d="M656.65,74.29 C720.05,85.39 803.5,100 803.5,100 C803.5,100 1749.5,130 1749.5,130 C1749.5,130 1931.309,158.1642 2057.519,177.7242" fill="none" id="PanelPrincipalView-to-AbrirPublicaciones" style="stroke:#181818;stroke-width:1;stroke-dasharray:7,7;"/><polygon fill="#181818" points="2062.46,178.49,2054.1788,173.1588,2057.519,177.7242,2052.9536,181.0644,2062.46,178.49" style="stroke:#181818;stroke-width:1;stroke-linejoin:miter;stroke-miterlimit:10;"/><text fill="#000000" font-family="sans-serif" font-size="13" lengthAdjust="spacing" textLength="114.8799" x="1864.5" y="144.4951">abrirPublicaciones()</text></g><!--link PanelPrincipalView to AbrirConvocatorias--><g class="link" data-entity-1="ent0003" data-entity-2="ent0013" data-link-type="dependency" data-source-line="37" id="lnk27"><path d="M656.65,74.29 C720.05,85.39 803.5,100 803.5,100 C803.5,100 1987.5,130 1987.5,130 C1987.5,130 2185.2527,158.9358 2318.8727,178.4958" fill="none" id="PanelPrincipalView-to-AbrirConvocatorias" style="stroke:#181818;stroke-width:1;stroke-dasharray:7,7;"/><polygon fill="#181818" points="2323.82,179.22,2315.4943,173.9586,2318.8727,178.4958,2314.3355,181.8742,2323.82,179.22" style="stroke:#181818;stroke-width:1;stroke-linejoin:miter;stroke-miterlimit:10;"/><text fill="#000000" font-family="sans-serif" font-size="13" lengthAdjust="spacing" textLength="117.7617" x="2108.5" y="144.4951">abrirConvocatorias()</text></g><!--link PanelPrincipalView to AbrirRecompensas--><g class="link" data-entity-1="ent0003" data-entity-2="ent0014" data-link-type="dependency" data-source-line="38" id="lnk28"><path d="M656.65,74.29 C720.05,85.39 803.5,100 803.5,100 C803.5,100 2234.5,130 2234.5,130 C2234.5,130 2444.199,159.5718 2582.759,179.1118" fill="none" id="PanelPrincipalView-to-AbrirRecompensas" style="stroke:#181818;stroke-width:1;stroke-dasharray:7,7;"/><polygon fill="#181818" points="2587.71,179.81,2579.3567,174.5924,2582.759,179.1118,2578.2396,182.514,2587.71,179.81" style="stroke:#181818;stroke-width:1;stroke-linejoin:miter;stroke-miterlimit:10;"/><text fill="#000000" font-family="sans-serif" font-size="13" lengthAdjust="spacing" textLength="117.7617" x="2360.5" y="144.4951">abrirRecompensas()</text></g><!--link PanelPrincipalView to CerrarSesion--><g class="link" data-entity-1="ent0003" data-entity-2="ent0015" data-link-type="dependency" data-source-line="39" id="lnk29"><path d="M656.65,74.29 C720.05,85.39 803.5,100 803.5,100 C803.5,100 2486.5,130 2486.5,130 C2486.5,130 2834.5,178 2834.5,178 C2834.5,178 2836.4609,178.3119 2846.8709,179.9519" fill="none" id="PanelPrincipalView-to-CerrarSesion" style="stroke:#181818;stroke-width:1;stroke-dasharray:7,7;"/><polygon fill="#181818" points="2851.81,180.73,2843.5421,175.3781,2846.8709,179.9519,2842.2972,183.2807,2851.81,180.73" style="stroke:#181818;stroke-width:1;stroke-linejoin:miter;stroke-miterlimit:10;"/><text fill="#000000" font-family="sans-serif" font-size="13" lengthAdjust="spacing" textLength="82.3545" x="2609.5" y="144.4951">cerrarSesion()</text></g><?plantuml-src dPHHJzim4CVV_IcixgKyb0SqqCW3KWX1giGWwj1UqSMzLHx6ZivUfshQTv_RXDPE3GdhK_pttSzthlzddwLkWE25AwdHRHhaZL6RxO8n4CuGBuoXfTImDCHO0-8PLiYX9aaLQ5GLIIra0ug3vPE4FZsPy3-C-n-XSA1N2lcdYxFBylQInv7V9Vxk1zRdzVBY2y-FkONHZenIIFsSsxEy-5poRsYbqUmlOy5USLDUv-TyabNvVNdtL2tczyMyok-UykjvkNXyc6pRY0_AQudaJ99I-0AWDWJE7zLM-T08_ussGleXrOwNq3zAAu1My4XGmqzpp0ntnv8hCXiVQUm1jvV6CkPwZTR9rVPnO02AzR6qhz9Mlseb1RHT7NZzdT4zfd7_nVBlRMq4U4j825YHF9QrG65U6jGs90NY24w1H43j6zynGe6nmBLyHhEhXDKoddGhOyUXVBRqY7TDc75JEzH8kMZlzKRQncXPAxHJkwlAezz5y9a_f6rWJriObGidrsPwmhDu5WspKZqt_a6YTf2iKnpuRzp3yLLsuy6JU-5so_JtcS2SdbwbXaBtZyJYI48u0dgSS6k0jfy0hu_ZTJsG5nk-Iux50KBVuXsZBm_Ldq1y93zoSvSVQGFvWOUxx41vEpVqRiP5iF8v_m00?></g></svg>