<svg xmlns="http://www.w3.org/2000/svg" xmlns:xlink="http://www.w3.org/1999/xlink" contentStyleType="text/css" data-diagram-type="DESCRIPTION" height="496px" preserveAspectRatio="none" style="width:2974px;height:496px;background:#FFFFFF;" version="1.1" viewBox="0 0 2974 496" width="2974px" zoomAndPan="magnify"><?plantuml 1.2026.5?><defs/><g><!--cluster abrirPanelPrincipal--><g class="cluster" data-qualified-name="abrirPanelPrincipal" data-source-line="11" id="ent0009"><path d="M253,40.3564 L390.9307,40.3564 A3.75,3.75 0 0 1 393.4307,42.8564 L400.4307,63.9658 L750,63.9658 A2.5,2.5 0 0 1 752.5,66.4658 L752.5,478.8564 A2.5,2.5 0 0 1 750,481.3564 L253,481.3564 A2.5,2.5 0 0 1 250.5,478.8564 L250.5,42.8564 A2.5,2.5 0 0 1 253,40.3564" fill="none" style="stroke:#000000;stroke-width:1.5;"/><line style="stroke:#000000;stroke-width:1.5;" x1="250.5" x2="400.4307" y1="63.9658" y2="63.9658"/><text fill="#000000" font-family="sans-serif" font-size="14" font-weight="700" lengthAdjust="spacing" textLength="136.9307" x="254.5" y="56.8896">abrirPanelPrincipal()</text></g><!--entity DetallePanelPrincipalView--><g class="entity" data-qualified-name="abrirPanelPrincipal.DetallePanelPrincipalView" data-source-line="12" id="ent0010"><rect fill="#629EF9" height="37.6094" rx="2.5" ry="2.5" style="stroke:#181818;stroke-width:0.5;" width="183.4199" x="553" y="96.3564"/><text fill="#000000" font-family="sans-serif" font-size="14" lengthAdjust="spacing" textLength="163.4199" x="563" y="120.8896">DetallePanelPrincipalView</text></g><!--entity PanelPrincipalController--><g class="entity" data-qualified-name="abrirPanelPrincipal.PanelPrincipalController" data-source-line="13" id="ent0011"><rect fill="#B5BD68" height="37.6094" rx="2.5" ry="2.5" style="stroke:#181818;stroke-width:0.5;" width="170.1855" x="308.5" y="212.3564"/><text fill="#000000" font-family="sans-serif" font-size="14" lengthAdjust="spacing" textLength="150.1855" x="318.5" y="236.8896">PanelPrincipalController</text></g><!--entity PanelPrincipalRepository--><g class="entity" data-qualified-name="abrirPanelPrincipal.PanelPrincipalRepository" data-source-line="14" id="ent0012"><rect fill="#F2AC4E" height="37.6094" rx="2.5" ry="2.5" style="stroke:#181818;stroke-width:0.5;" width="176.4131" x="320.5" y="328.3564"/><text fill="#000000" font-family="sans-serif" font-size="14" lengthAdjust="spacing" textLength="156.4131" x="330.5" y="352.8896">PanelPrincipalRepository</text></g><!--entity PanelPrincipal--><g class="entity" data-qualified-name="abrirPanelPrincipal.PanelPrincipal" data-source-line="15" id="ent0013"><rect fill="#F2AC4E" height="37.6094" rx="2.5" ry="2.5" style="stroke:#181818;stroke-width:0.5;" width="109.4961" x="354" y="427.3564"/><text fill="#000000" font-family="sans-serif" font-size="14" lengthAdjust="spacing" textLength="89.4961" x="364" y="451.8896">PanelPrincipal</text></g><!--entity EstadoEntrada1--><g class="entity" data-qualified-name="EstadoEntrada1" data-source-line="3" id="ent0001"><rect fill="#CDEBA5" height="37.6094" rx="2.5" ry="2.5" style="stroke:#181818;stroke-width:0.5;" width="226.9375" x="7" y="96.3564"/><text fill="#000000" font-family="sans-serif" font-size="14" lengthAdjust="spacing" textLength="206.9375" x="17" y="120.8896">:INVESTIGADORES_ABIERTOS</text></g><!--entity EstadoEntrada2--><g class="entity" data-qualified-name="EstadoEntrada2" data-source-line="4" id="ent0002"><rect fill="#CDEBA5" height="37.6094" rx="2.5" ry="2.5" style="stroke:#181818;stroke-width:0.5;" width="304.7441" x="890" y="96.3564"/><text fill="#000000" font-family="sans-serif" font-size="14" lengthAdjust="spacing" textLength="284.7441" x="900" y="120.8896">:OPCIONES_CARGA_TRABAJO_ABIERTAS</text></g><!--entity EstadoEntrada3--><g class="entity" data-qualified-name="EstadoEntrada3" data-source-line="5" id="ent0003"><rect fill="#CDEBA5" height="37.6094" rx="2.5" ry="2.5" style="stroke:#181818;stroke-width:0.5;" width="223.834" x="1474.5" y="96.3564"/><text fill="#000000" font-family="sans-serif" font-size="14" lengthAdjust="spacing" textLength="203.834" x="1484.5" y="120.8896">:OPCIONES_PERFIL_ABIERTO</text></g><!--entity EstadoEntrada4--><g class="entity" data-qualified-name="EstadoEntrada4" data-source-line="6" id="ent0004"><rect fill="#CDEBA5" height="37.6094" rx="2.5" ry="2.5" style="stroke:#181818;stroke-width:0.5;" width="247.1787" x="1734" y="96.3564"/><text fill="#000000" font-family="sans-serif" font-size="14" lengthAdjust="spacing" textLength="227.1787" x="1744" y="120.8896">:MIS_PUBLICACIONES_ABIERTAS</text></g><!--entity EstadoEntrada5--><g class="entity" data-qualified-name="EstadoEntrada5" data-source-line="7" id="ent0005"><rect fill="#CDEBA5" height="37.6094" rx="2.5" ry="2.5" style="stroke:#181818;stroke-width:0.5;" width="214.5029" x="2016" y="96.3564"/><text fill="#000000" font-family="sans-serif" font-size="14" lengthAdjust="spacing" textLength="194.5029" x="2026" y="120.8896">:PUBLICACIONES_ABIERTAS</text></g><!--entity EstadoEntrada6--><g class="entity" data-qualified-name="EstadoEntrada6" data-source-line="8" id="ent0006"><rect fill="#CDEBA5" height="37.6094" rx="2.5" ry="2.5" style="stroke:#181818;stroke-width:0.5;" width="223.8203" x="2266.5" y="96.3564"/><text fill="#000000" font-family="sans-serif" font-size="14" lengthAdjust="spacing" textLength="203.8203" x="2276.5" y="120.8896">:CONVOCATORIAS_ABIERTAS</text></g><!--entity EstadoEntrada7--><g class="entity" data-qualified-name="EstadoEntrada7" data-source-line="9" id="ent0007"><rect fill="#CDEBA5" height="37.6094" rx="2.5" ry="2.5" style="stroke:#181818;stroke-width:0.5;" width="209.8271" x="2525.5" y="96.3564"/><text fill="#000000" font-family="sans-serif" font-size="14" lengthAdjust="spacing" textLength="189.8271" x="2535.5" y="120.8896">:RECOMPENSAS_ABIERTAS</text></g><!--entity EstadoEntrada8--><g class="entity" data-qualified-name="EstadoEntrada8" data-source-line="10" id="ent0008"><rect fill="#CDEBA5" height="37.6094" rx="2.5" ry="2.5" style="stroke:#181818;stroke-width:0.5;" width="190.3721" x="2770.5" y="96.3564"/><text fill="#000000" font-family="sans-serif" font-size="14" lengthAdjust="spacing" textLength="170.3721" x="2780.5" y="120.8896">:PROYECTOS_ABIERTOS</text></g><!--entity EstadoSalida--><g class="entity" data-qualified-name="EstadoSalida" data-source-line="18" id="ent0014"><rect fill="#CDEBA5" height="37.6094" rx="2.5" ry="2.5" style="stroke:#181818;stroke-width:0.5;" width="220.7373" x="769" y="212.3564"/><text fill="#000000" font-family="sans-serif" font-size="14" lengthAdjust="spacing" textLength="200.7373" x="779" y="236.8896">:PANEL_PRINCIPAL_ABIERTO</text></g><!--entity AbrirOpcionesPerfil--><g class="entity" data-qualified-name="AbrirOpcionesPerfil" data-source-line="19" id="ent0015"><rect fill="#CDEBA5" height="37.6094" rx="2.5" ry="2.5" style="stroke:#181818;stroke-width:0.5;" width="230.875" x="1025" y="212.3564"/><text fill="#000000" font-family="sans-serif" font-size="14" lengthAdjust="spacing" textLength="210.875" x="1035" y="236.8896">:Collaboration AbrirOpcionesPerfil</text></g><!--entity AbrirOpcionesCargaTrabajo--><g class="entity" data-qualified-name="AbrirOpcionesCargaTrabajo" data-source-line="20" id="ent0016"><rect fill="#CDEBA5" height="37.6094" rx="2.5" ry="2.5" style="stroke:#181818;stroke-width:0.5;" width="284.5781" x="1291" y="212.3564"/><text fill="#000000" font-family="sans-serif" font-size="14" lengthAdjust="spacing" textLength="264.5781" x="1301" y="236.8896">:Collaboration AbrirOpcionesCargaTrabajo</text></g><!--entity AbrirProyectos--><g class="entity" data-qualified-name="AbrirProyectos" data-source-line="21" id="ent0017"><rect fill="#CDEBA5" height="37.6094" rx="2.5" ry="2.5" style="stroke:#181818;stroke-width:0.5;" width="202.082" x="1611.5" y="212.3564"/><text fill="#000000" font-family="sans-serif" font-size="14" lengthAdjust="spacing" textLength="182.082" x="1621.5" y="236.8896">:Collaboration AbrirProyectos</text></g><!--entity AbrirInvestigadores--><g class="entity" data-qualified-name="AbrirInvestigadores" data-source-line="22" id="ent0018"><rect fill="#CDEBA5" height="37.6094" rx="2.5" ry="2.5" style="stroke:#181818;stroke-width:0.5;" width="230.8887" x="1849" y="212.3564"/><text fill="#000000" font-family="sans-serif" font-size="14" lengthAdjust="spacing" textLength="210.8887" x="1859" y="236.8896">:Collaboration AbrirInvestigadores</text></g><!--entity AbrirMisPublicaciones--><g class="entity" data-qualified-name="AbrirMisPublicaciones" data-source-line="23" id="ent0019"><rect fill="#CDEBA5" height="37.6094" rx="2.5" ry="2.5" style="stroke:#181818;stroke-width:0.5;" width="247.9922" x="2115.5" y="212.3564"/><text fill="#000000" font-family="sans-serif" font-size="14" lengthAdjust="spacing" textLength="227.9922" x="2125.5" y="236.8896">:Collaboration AbrirMisPublicaciones</text></g><!--link EstadoEntrada1 to DetallePanelPrincipalView--><g class="link" data-entity-1="ent0001" data-entity-2="ent0010" data-link-type="dependency" data-source-line="25" id="lnk20"><path d="M234.2,115.3564 C329.62,115.3564 459.16,115.3564 547.81,115.3564" fill="none" id="EstadoEntrada1-to-DetallePanelPrincipalView" style="stroke:#181818;stroke-width:1;"/><polygon fill="#181818" points="552.81,115.3564,543.81,111.3564,547.81,115.3564,543.81,119.3564,552.81,115.3564" style="stroke:#181818;stroke-width:1;stroke-linejoin:miter;stroke-miterlimit:10;"/><text fill="#000000" font-family="sans-serif" font-size="13" lengthAdjust="spacing" textLength="117.7681" x="335" y="108.8516">abrirPanelPrincipal()</text></g><!--link EstadoEntrada2 to DetallePanelPrincipalView--><g class="link" data-entity-1="ent0002" data-entity-2="ent0010" data-link-type="dependency" data-source-line="26" id="lnk21"><path d="M889.95,115.3564 C838.14,115.3564 786.88,115.3564 741.31,115.3564" fill="none" id="EstadoEntrada2-to-DetallePanelPrincipalView" style="stroke:#181818;stroke-width:1;"/><polygon fill="#181818" points="736.31,115.3564,745.31,119.3564,741.31,115.3564,745.31,111.3564,736.31,115.3564" style="stroke:#181818;stroke-width:1;stroke-linejoin:miter;stroke-miterlimit:10;"/><text fill="#000000" font-family="sans-serif" font-size="13" lengthAdjust="spacing" textLength="117.7681" x="754.5" y="108.8516">abrirPanelPrincipal()</text></g><!--link EstadoEntrada3 to DetallePanelPrincipalView--><g class="link" data-entity-1="ent0003" data-entity-2="ent0010" data-link-type="dependency" data-source-line="27" id="lnk22"><path d="M1499.76,96.3364 C1389.27,72.1164 1212.5,33.3564 1212.5,33.3564 C1212.5,33.3564 872.5,33.3564 872.5,33.3564 C872.5,33.3564 769.435,70.4245 702.085,94.6445" fill="none" id="EstadoEntrada3-to-DetallePanelPrincipalView" style="stroke:#181818;stroke-width:1;"/><polygon fill="#181818" points="697.38,96.3364,707.2026,97.0549,702.085,94.6445,704.4954,89.5269,697.38,96.3364" style="stroke:#181818;stroke-width:1;stroke-linejoin:miter;stroke-miterlimit:10;"/><text fill="#000000" font-family="sans-serif" font-size="13" lengthAdjust="spacing" textLength="117.7681" x="1357" y="20.8516">abrirPanelPrincipal()</text></g><!--link EstadoEntrada4 to DetallePanelPrincipalView--><g class="link" data-entity-1="ent0004" data-entity-2="ent0010" data-link-type="dependency" data-source-line="28" id="lnk23"><path d="M1824.8,96.3364 C1783.14,72.1164 1716.5,33.3564 1716.5,33.3564 C1716.5,33.3564 872.5,33.3564 872.5,33.3564 C872.5,33.3564 769.435,70.4245 702.085,94.6445" fill="none" id="EstadoEntrada4-to-DetallePanelPrincipalView" style="stroke:#181818;stroke-width:1;"/><polygon fill="#181818" points="697.38,96.3364,707.2026,97.0549,702.085,94.6445,704.4954,89.5269,697.38,96.3364" style="stroke:#181818;stroke-width:1;stroke-linejoin:miter;stroke-miterlimit:10;"/><text fill="#000000" font-family="sans-serif" font-size="13" lengthAdjust="spacing" textLength="117.7681" x="737" y="20.8516">abrirPanelPrincipal()</text></g><!--link EstadoEntrada5 to DetallePanelPrincipalView--><g class="link" data-entity-1="ent0005" data-entity-2="ent0010" data-link-type="dependency" data-source-line="29" id="lnk24"><path d="M2094.51,96.3364 C2057.58,72.1164 1998.5,33.3564 1998.5,33.3564 C1998.5,33.3564 872.5,33.3564 872.5,33.3564 C872.5,33.3564 769.435,70.4245 702.085,94.6445" fill="none" id="EstadoEntrada5-to-DetallePanelPrincipalView" style="stroke:#181818;stroke-width:1;"/><polygon fill="#181818" points="697.38,96.3364,707.2026,97.0549,702.085,94.6445,704.4954,89.5269,697.38,96.3364" style="stroke:#181818;stroke-width:1;stroke-linejoin:miter;stroke-miterlimit:10;"/><text fill="#000000" font-family="sans-serif" font-size="13" lengthAdjust="spacing" textLength="117.7681" x="1233" y="20.8516">abrirPanelPrincipal()</text></g><!--link EstadoEntrada6 to DetallePanelPrincipalView--><g class="link" data-entity-1="ent0006" data-entity-2="ent0010" data-link-type="dependency" data-source-line="30" id="lnk25"><path d="M2348.35,96.3364 C2309.95,72.1164 2248.5,33.3564 2248.5,33.3564 C2248.5,33.3564 872.5,33.3564 872.5,33.3564 C872.5,33.3564 769.435,70.4245 702.085,94.6445" fill="none" id="EstadoEntrada6-to-DetallePanelPrincipalView" style="stroke:#181818;stroke-width:1;"/><polygon fill="#181818" points="697.38,96.3364,707.2026,97.0549,702.085,94.6445,704.4954,89.5269,697.38,96.3364" style="stroke:#181818;stroke-width:1;stroke-linejoin:miter;stroke-miterlimit:10;"/><text fill="#000000" font-family="sans-serif" font-size="13" lengthAdjust="spacing" textLength="117.7681" x="861" y="20.8516">abrirPanelPrincipal()</text></g><!--link EstadoEntrada7 to DetallePanelPrincipalView--><g class="link" data-entity-1="ent0007" data-entity-2="ent0010" data-link-type="dependency" data-source-line="31" id="lnk26"><path d="M2602.2,96.3364 C2566.16,72.1164 2508.5,33.3564 2508.5,33.3564 C2508.5,33.3564 872.5,33.3564 872.5,33.3564 C872.5,33.3564 769.435,70.4245 702.085,94.6445" fill="none" id="EstadoEntrada7-to-DetallePanelPrincipalView" style="stroke:#181818;stroke-width:1;"/><polygon fill="#181818" points="697.38,96.3364,707.2026,97.0549,702.085,94.6445,704.4954,89.5269,697.38,96.3364" style="stroke:#181818;stroke-width:1;stroke-linejoin:miter;stroke-miterlimit:10;"/><text fill="#000000" font-family="sans-serif" font-size="13" lengthAdjust="spacing" textLength="117.7681" x="1109" y="20.8516">abrirPanelPrincipal()</text></g><!--link EstadoEntrada8 to DetallePanelPrincipalView--><g class="link" data-entity-1="ent0008" data-entity-2="ent0010" data-link-type="dependency" data-source-line="32" id="lnk27"><path d="M2839.52,96.3364 C2806.44,72.1164 2753.5,33.3564 2753.5,33.3564 C2753.5,33.3564 872.5,33.3564 872.5,33.3564 C872.5,33.3564 769.435,70.4245 702.085,94.6445" fill="none" id="EstadoEntrada8-to-DetallePanelPrincipalView" style="stroke:#181818;stroke-width:1;"/><polygon fill="#181818" points="697.38,96.3364,707.2026,97.0549,702.085,94.6445,704.4954,89.5269,697.38,96.3364" style="stroke:#181818;stroke-width:1;stroke-linejoin:miter;stroke-miterlimit:10;"/><text fill="#000000" font-family="sans-serif" font-size="13" lengthAdjust="spacing" textLength="117.7681" x="985" y="20.8516">abrirPanelPrincipal()</text></g><!--link DetallePanelPrincipalView to PanelPrincipalController--><g class="link" data-entity-1="ent0010" data-entity-2="ent0011" data-link-type="dependency" data-source-line="34" id="lnk28"><path d="M552.69,129.0964 C450.18,143.3164 298.5,164.3564 298.5,164.3564 C298.5,164.3564 298.5,182.3564 298.5,182.3564 C298.5,182.3564 326.4372,196.4719 353.3972,210.0919" fill="none" id="DetallePanelPrincipalView-to-PanelPrincipalController" style="stroke:#181818;stroke-width:1;"/><polygon fill="#181818" points="357.86,212.3464,351.6306,204.7179,353.3972,210.0919,348.0232,211.8584,357.86,212.3464" style="stroke:#181818;stroke-width:1;stroke-linejoin:miter;stroke-miterlimit:10;"/><text fill="#000000" font-family="sans-serif" font-size="13" lengthAdjust="spacing" textLength="145.9707" x="299.5" y="178.8516">obtenerPanelPrincipal(id)</text></g><!--link DetallePanelPrincipalView to PanelPrincipalController--><g class="link" data-entity-1="ent0010" data-entity-2="ent0011" data-link-type="dependency" data-source-line="35" id="lnk29"><path d="M585.97,134.3664 C541.7,147.9864 488.5,164.3564 488.5,164.3564 C488.5,164.3564 451.6958,189.923 423.5658,209.473" fill="none" id="DetallePanelPrincipalView-to-PanelPrincipalController-1" style="stroke:#181818;stroke-width:1;"/><polygon fill="#181818" points="419.46,212.3264,429.1332,210.4748,423.5658,209.473,424.5677,203.9055,419.46,212.3264" style="stroke:#181818;stroke-width:1;stroke-linejoin:miter;stroke-miterlimit:10;"/><text fill="#000000" font-family="sans-serif" font-size="13" lengthAdjust="spacing" textLength="246.4033" x="489.5" y="178.8516">prepararAccionesDisponibles(coordinador)</text></g><!--link PanelPrincipalController to PanelPrincipalRepository--><g class="link" data-entity-1="ent0011" data-entity-2="ent0012" data-link-type="dependency" data-source-line="36" id="lnk30"><path d="M367.41,250.5064 C347.87,264.0964 324.5,280.3564 324.5,280.3564 C324.5,280.3564 324.5,298.3564 324.5,298.3564 C324.5,298.3564 348.6189,312.1356 372.3989,325.7256" fill="none" id="PanelPrincipalController-to-PanelPrincipalRepository" style="stroke:#181818;stroke-width:1;"/><polygon fill="#181818" points="376.74,328.2064,370.9107,320.268,372.3989,325.7256,366.9413,327.2137,376.74,328.2064" style="stroke:#181818;stroke-width:1;stroke-linejoin:miter;stroke-miterlimit:10;"/><text fill="#000000" font-family="sans-serif" font-size="13" lengthAdjust="spacing" textLength="93.939" x="325.5" y="294.8516">obtenerPorId(id)</text></g><!--link PanelPrincipalController to PanelPrincipalRepository--><g class="link" data-entity-1="ent0011" data-entity-2="ent0012" data-link-type="dependency" data-source-line="37" id="lnk31"><path d="M404.84,250.5064 C413.34,264.0964 423.5,280.3564 423.5,280.3564 C423.5,280.3564 423.5,298.3564 423.5,298.3564 C423.5,298.3564 419.9124,309.8444 415.6624,323.4344" fill="none" id="PanelPrincipalController-to-PanelPrincipalRepository-1" style="stroke:#181818;stroke-width:1;"/><polygon fill="#181818" points="414.17,328.2064,420.6739,320.8106,415.6624,323.4344,413.0386,318.4228,414.17,328.2064" style="stroke:#181818;stroke-width:1;stroke-linejoin:miter;stroke-miterlimit:10;"/><text fill="#000000" font-family="sans-serif" font-size="13" lengthAdjust="spacing" textLength="137.2427" x="424.5" y="294.8516">verificarPermisos(actor)</text></g><!--link PanelPrincipalRepository to PanelPrincipal--><g class="link" data-entity-1="ent0012" data-entity-2="ent0013" data-link-type="association" data-source-line="38" id="lnk32"><path d="M408.5,366.5964 C408.5,383.9464 408.5,409.8764 408.5,427.1964" fill="none" id="PanelPrincipalRepository-PanelPrincipal" style="stroke:#181818;stroke-width:1;"/></g><!--link DetallePanelPrincipalView to EstadoSalida--><g class="link" data-entity-1="ent0010" data-entity-2="ent0014" data-link-type="dependency" data-source-line="39" id="lnk33"><path d="M682.02,134.3664 C710.4,147.9864 744.5,164.3564 744.5,164.3564 C744.5,164.3564 798.1485,190.5796 838.1185,210.1296" fill="none" id="DetallePanelPrincipalView-to-EstadoSalida" style="stroke:#181818;stroke-width:1;stroke-dasharray:7,7;"/><polygon fill="#181818" points="842.61,212.3264,836.2828,204.7789,838.1185,210.1296,832.7678,211.9653,842.61,212.3264" style="stroke:#181818;stroke-width:1;stroke-linejoin:miter;stroke-miterlimit:10;"/><text fill="#000000" font-family="sans-serif" font-size="13" lengthAdjust="spacing" textLength="130.7935" x="781.5" y="178.8516">continuarNavegacion()</text></g><!--link DetallePanelPrincipalView to AbrirOpcionesPerfil--><g class="link" data-entity-1="ent0010" data-entity-2="ent0015" data-link-type="dependency" data-source-line="40" id="lnk34"><path d="M736.02,132.2764 C816.36,146.2464 920.5,164.3564 920.5,164.3564 C920.5,164.3564 1010.4611,191.339 1075.5911,210.889" fill="none" id="DetallePanelPrincipalView-to-AbrirOpcionesPerfil" style="stroke:#181818;stroke-width:1;stroke-dasharray:7,7;"/><polygon fill="#181818" points="1080.38,212.3264,1072.9099,205.9079,1075.5911,210.889,1070.61,213.5701,1080.38,212.3264" style="stroke:#181818;stroke-width:1;stroke-linejoin:miter;stroke-miterlimit:10;"/><text fill="#000000" font-family="sans-serif" font-size="13" lengthAdjust="spacing" textLength="119.2026" x="980.5" y="178.8516">abrirOpcionesPerfil()</text></g><!--link DetallePanelPrincipalView to AbrirOpcionesCargaTrabajo--><g class="link" data-entity-1="ent0010" data-entity-2="ent0016" data-link-type="dependency" data-source-line="41" id="lnk35"><path d="M736.17,125.8364 C871.4,139.8264 1108.5,164.3564 1108.5,164.3564 C1108.5,164.3564 1243.5701,191.7809 1339.7901,211.3309" fill="none" id="DetallePanelPrincipalView-to-AbrirOpcionesCargaTrabajo" style="stroke:#181818;stroke-width:1;stroke-dasharray:7,7;"/><polygon fill="#181818" points="1344.69,212.3264,1336.6667,206.6145,1339.7901,211.3309,1335.0738,214.4543,1344.69,212.3264" style="stroke:#181818;stroke-width:1;stroke-linejoin:miter;stroke-miterlimit:10;"/><text fill="#000000" font-family="sans-serif" font-size="13" lengthAdjust="spacing" textLength="169.0698" x="1196.5" y="178.8516">abrirOpcionesCargaTrabajo()</text></g><!--link DetallePanelPrincipalView to AbrirProyectos--><g class="link" data-entity-1="ent0010" data-entity-2="ent0017" data-link-type="dependency" data-source-line="42" id="lnk36"><path d="M736.25,123.5964 C799.61,128.6064 872.5,134.3564 872.5,134.3564 C872.5,134.3564 1374.5,164.3564 1374.5,164.3564 C1374.5,164.3564 1515.1528,191.8178 1615.2328,211.3678" fill="none" id="DetallePanelPrincipalView-to-AbrirProyectos" style="stroke:#181818;stroke-width:1;stroke-dasharray:7,7;"/><polygon fill="#181818" points="1620.14,212.3264,1612.0738,206.6752,1615.2328,211.3678,1610.5401,214.5268,1620.14,212.3264" style="stroke:#181818;stroke-width:1;stroke-linejoin:miter;stroke-miterlimit:10;"/><text fill="#000000" font-family="sans-serif" font-size="13" lengthAdjust="spacing" textLength="92.4663" x="1465.5" y="178.8516">abrirProyectos()</text></g><!--link DetallePanelPrincipalView to AbrirInvestigadores--><g class="link" data-entity-1="ent0010" data-entity-2="ent0018" data-link-type="dependency" data-source-line="43" id="lnk37"><path d="M736.25,123.5964 C799.61,128.6064 872.5,134.3564 872.5,134.3564 C872.5,134.3564 1566.5,164.3564 1566.5,164.3564 C1566.5,164.3564 1732.9674,191.9581 1850.8074,211.5081" fill="none" id="DetallePanelPrincipalView-to-AbrirInvestigadores" style="stroke:#181818;stroke-width:1;stroke-dasharray:7,7;"/><polygon fill="#181818" points="1855.74,212.3264,1847.516,206.9074,1850.8074,211.5081,1846.2067,214.7995,1855.74,212.3264" style="stroke:#181818;stroke-width:1;stroke-linejoin:miter;stroke-miterlimit:10;"/><text fill="#000000" font-family="sans-serif" font-size="13" lengthAdjust="spacing" textLength="119.2153" x="1673.5" y="178.8516">abrirInvestigadores()</text></g><!--link DetallePanelPrincipalView to AbrirMisPublicaciones--><g class="link" data-entity-1="ent0010" data-entity-2="ent0019" data-link-type="dependency" data-source-line="44" id="lnk38"><path d="M736.25,123.5964 C799.61,128.6064 872.5,134.3564 872.5,134.3564 C872.5,134.3564 1801.5,164.3564 1801.5,164.3564 C1801.5,164.3564 1985.1859,192.0311 2114.8659,211.5811" fill="none" id="DetallePanelPrincipalView-to-AbrirMisPublicaciones" style="stroke:#181818;stroke-width:1;stroke-dasharray:7,7;"/><polygon fill="#181818" points="2119.81,212.3264,2111.5068,207.0295,2114.8659,211.5811,2110.3143,214.9401,2119.81,212.3264" style="stroke:#181818;stroke-width:1;stroke-linejoin:miter;stroke-miterlimit:10;"/><text fill="#000000" font-family="sans-serif" font-size="13" lengthAdjust="spacing" textLength="135.0972" x="1919.5" y="178.8516">abrirMisPublicaciones()</text></g><?plantuml-src hPL1R-8m48Nl-HKMUu43bPO2fHmg6MCgho290ekq9pH9NEHj6aTEoWgj-j_NK2WaEDcqWXCPp_jusEENz5d42IXuGP68URPDE4fajDqzM9RYGGRnEkBe6ndJ4UwXnf3PIpfVi4SyTZmwN-4Hezx2cJSGf8Yc6OIInfc24BuRvOvBc6Dh8S7U8rujF3p2Fvm31XimdMgCIxq9cnvjNCflZV8PqygVeoaZ-C0fDz0r4kggUqOrSUobG_32yHYkKlUDQeyIP-PIUrwflJFxzfnVbEW3gpYvWPL0y0nhZi1NGhaGyyXL8Wv40j6kks6eDriDzDT2-dFsi_tEFPtSep7F88fuNh0K_4-nt-_vON-0yer4QbjIwrMnVTB1f4iBxHvFP2eogRQrsgqtyvoxsARJbUincp0NcoPi3f48mNo-sYxuKa4cP8pmRhUS9D3VUUfozIIYFSPG_ooDW5h3Ge4Fl-KbytorBjbLSgixPNh2VPJgCbYyuMacrdgJ53y3vUjrQJEHkgz-909u_rSdNd75il89XDgg_L0-VKDadECyf7CDoEqr8DrhG7hNWFIl0Rcx1cJmHOXLga3jK0FB4cY8f9_nc1U98cnL8Ik9YUAxDx32mViKZqMQo5Zu4K-RWPGg5F7kmhIiCeI1Vmh1asEfMBWt-aNEXYlnfE-Qqb7r8bAPDa67meMlaqJpYc5RlaStDm-vN1sYG1iJyIie6pPylR_YpTP_28P8FOn0llWvq7cE5d3dI_MW7sbwdCtZSprvFaCFZ7on7gWOdWTKiQnX_m00?></g></svg>