<svg xmlns="http://www.w3.org/2000/svg" xmlns:xlink="http://www.w3.org/1999/xlink" contentStyleType="text/css" data-diagram-type="DESCRIPTION" height="496px" preserveAspectRatio="none" style="width:3372px;height:496px;background:#FFFFFF;" version="1.1" viewBox="0 0 3372 496" width="3372px" zoomAndPan="magnify"><?plantuml 1.2026.5?><defs/><g><!--cluster abrirPanelPrincipal--><g class="cluster" data-qualified-name="abrirPanelPrincipal" data-source-line="11" id="ent0009"><path d="M253,40.3564 L390.9307,40.3564 A3.75,3.75 0 0 1 393.4307,42.8564 L400.4307,63.9658 L728,63.9658 A2.5,2.5 0 0 1 730.5,66.4658 L730.5,478.8564 A2.5,2.5 0 0 1 728,481.3564 L253,481.3564 A2.5,2.5 0 0 1 250.5,478.8564 L250.5,42.8564 A2.5,2.5 0 0 1 253,40.3564" fill="none" style="stroke:#000000;stroke-width:1.5;"/><line style="stroke:#000000;stroke-width:1.5;" x1="250.5" x2="400.4307" y1="63.9658" y2="63.9658"/><text fill="#000000" font-family="sans-serif" font-size="14" font-weight="700" lengthAdjust="spacing" textLength="136.9307" x="254.5" y="56.8896">abrirPanelPrincipal()</text></g><!--entity DetallePanelPrincipalView--><g class="entity" data-qualified-name="abrirPanelPrincipal.DetallePanelPrincipalView" data-source-line="12" id="ent0010"><rect fill="#629EF9" height="37.6094" rx="2.5" ry="2.5" style="stroke:#181818;stroke-width:0.5;" width="183.4199" x="531" y="96.3564"/><text fill="#000000" font-family="sans-serif" font-size="14" lengthAdjust="spacing" textLength="163.4199" x="541" y="120.8896">DetallePanelPrincipalView</text></g><!--entity PanelPrincipalController--><g class="entity" data-qualified-name="abrirPanelPrincipal.PanelPrincipalController" data-source-line="13" id="ent0011"><rect fill="#B5BD68" height="37.6094" rx="2.5" ry="2.5" style="stroke:#181818;stroke-width:0.5;" width="170.1855" x="320.5" y="212.3564"/><text fill="#000000" font-family="sans-serif" font-size="14" lengthAdjust="spacing" textLength="150.1855" x="330.5" y="236.8896">PanelPrincipalController</text></g><!--entity SesionRepository--><g class="entity" data-qualified-name="abrirPanelPrincipal.SesionRepository" data-source-line="14" id="ent0012"><rect fill="#F2AC4E" height="37.6094" rx="2.5" ry="2.5" style="stroke:#181818;stroke-width:0.5;" width="129.7236" x="303.5" y="328.3564"/><text fill="#000000" font-family="sans-serif" font-size="14" lengthAdjust="spacing" textLength="109.7236" x="313.5" y="352.8896">SesionRepository</text></g><!--entity Sesion--><g class="entity" data-qualified-name="abrirPanelPrincipal.Sesion" data-source-line="15" id="ent0013"><rect fill="#F2AC4E" height="37.6094" rx="2.5" ry="2.5" style="stroke:#181818;stroke-width:0.5;" width="62.8066" x="405" y="427.3564"/><text fill="#000000" font-family="sans-serif" font-size="14" lengthAdjust="spacing" textLength="42.8066" x="415" y="451.8896">Sesion</text></g><!--entity EstadoEntrada1--><g class="entity" data-qualified-name="EstadoEntrada1" data-source-line="3" id="ent0001"><rect fill="#CDEBA5" height="37.6094" rx="2.5" ry="2.5" style="stroke:#181818;stroke-width:0.5;" width="226.9375" x="7" y="96.3564"/><text fill="#000000" font-family="sans-serif" font-size="14" lengthAdjust="spacing" textLength="206.9375" x="17" y="120.8896">:INVESTIGADORES_ABIERTOS</text></g><!--entity EstadoEntrada2--><g class="entity" data-qualified-name="EstadoEntrada2" data-source-line="4" id="ent0002"><rect fill="#CDEBA5" height="37.6094" rx="2.5" ry="2.5" style="stroke:#181818;stroke-width:0.5;" width="304.7441" x="868" y="96.3564"/><text fill="#000000" font-family="sans-serif" font-size="14" lengthAdjust="spacing" textLength="284.7441" x="878" y="120.8896">:OPCIONES_CARGA_TRABAJO_ABIERTAS</text></g><!--entity EstadoEntrada3--><g class="entity" data-qualified-name="EstadoEntrada3" data-source-line="5" id="ent0003"><rect fill="#CDEBA5" height="37.6094" rx="2.5" ry="2.5" style="stroke:#181818;stroke-width:0.5;" width="223.834" x="1452.5" y="96.3564"/><text fill="#000000" font-family="sans-serif" font-size="14" lengthAdjust="spacing" textLength="203.834" x="1462.5" y="120.8896">:OPCIONES_PERFIL_ABIERTO</text></g><!--entity EstadoEntrada4--><g class="entity" data-qualified-name="EstadoEntrada4" data-source-line="6" id="ent0004"><rect fill="#CDEBA5" height="37.6094" rx="2.5" ry="2.5" style="stroke:#181818;stroke-width:0.5;" width="247.1787" x="1712" y="96.3564"/><text fill="#000000" font-family="sans-serif" font-size="14" lengthAdjust="spacing" textLength="227.1787" x="1722" y="120.8896">:MIS_PUBLICACIONES_ABIERTAS</text></g><!--entity EstadoEntrada5--><g class="entity" data-qualified-name="EstadoEntrada5" data-source-line="7" id="ent0005"><rect fill="#CDEBA5" height="37.6094" rx="2.5" ry="2.5" style="stroke:#181818;stroke-width:0.5;" width="214.5029" x="1994" y="96.3564"/><text fill="#000000" font-family="sans-serif" font-size="14" lengthAdjust="spacing" textLength="194.5029" x="2004" y="120.8896">:PUBLICACIONES_ABIERTAS</text></g><!--entity EstadoEntrada6--><g class="entity" data-qualified-name="EstadoEntrada6" data-source-line="8" id="ent0006"><rect fill="#CDEBA5" height="37.6094" rx="2.5" ry="2.5" style="stroke:#181818;stroke-width:0.5;" width="223.8203" x="2244.5" y="96.3564"/><text fill="#000000" font-family="sans-serif" font-size="14" lengthAdjust="spacing" textLength="203.8203" x="2254.5" y="120.8896">:CONVOCATORIAS_ABIERTAS</text></g><!--entity EstadoEntrada7--><g class="entity" data-qualified-name="EstadoEntrada7" data-source-line="9" id="ent0007"><rect fill="#CDEBA5" height="37.6094" rx="2.5" ry="2.5" style="stroke:#181818;stroke-width:0.5;" width="209.8271" x="2503.5" y="96.3564"/><text fill="#000000" font-family="sans-serif" font-size="14" lengthAdjust="spacing" textLength="189.8271" x="2513.5" y="120.8896">:RECOMPENSAS_ABIERTAS</text></g><!--entity EstadoEntrada8--><g class="entity" data-qualified-name="EstadoEntrada8" data-source-line="10" id="ent0008"><rect fill="#CDEBA5" height="37.6094" rx="2.5" ry="2.5" style="stroke:#181818;stroke-width:0.5;" width="190.3721" x="2748.5" y="96.3564"/><text fill="#000000" font-family="sans-serif" font-size="14" lengthAdjust="spacing" textLength="170.3721" x="2758.5" y="120.8896">:PROYECTOS_ABIERTOS</text></g><!--entity EstadoSalida--><g class="entity" data-qualified-name="EstadoSalida" data-source-line="18" id="ent0014"><rect fill="#CDEBA5" height="37.6094" rx="2.5" ry="2.5" style="stroke:#181818;stroke-width:0.5;" width="220.7373" x="747" y="212.3564"/><text fill="#000000" font-family="sans-serif" font-size="14" lengthAdjust="spacing" textLength="200.7373" x="757" y="236.8896">:PANEL_PRINCIPAL_ABIERTO</text></g><!--entity AbrirOpcionesPerfil--><g class="entity" data-qualified-name="AbrirOpcionesPerfil" data-source-line="19" id="ent0015"><rect fill="#CDEBA5" height="37.6094" rx="2.5" ry="2.5" style="stroke:#181818;stroke-width:0.5;" width="230.875" x="1003" y="212.3564"/><text fill="#000000" font-family="sans-serif" font-size="14" lengthAdjust="spacing" textLength="210.875" x="1013" y="236.8896">:Collaboration AbrirOpcionesPerfil</text></g><!--entity AbrirOpcionesCargaTrabajo--><g class="entity" data-qualified-name="AbrirOpcionesCargaTrabajo" data-source-line="20" id="ent0016"><rect fill="#CDEBA5" height="37.6094" rx="2.5" ry="2.5" style="stroke:#181818;stroke-width:0.5;" width="284.5781" x="1269" y="212.3564"/><text fill="#000000" font-family="sans-serif" font-size="14" lengthAdjust="spacing" textLength="264.5781" x="1279" y="236.8896">:Collaboration AbrirOpcionesCargaTrabajo</text></g><!--entity AbrirProyectos--><g class="entity" data-qualified-name="AbrirProyectos" data-source-line="21" id="ent0017"><rect fill="#CDEBA5" height="37.6094" rx="2.5" ry="2.5" style="stroke:#181818;stroke-width:0.5;" width="202.082" x="1589.5" y="212.3564"/><text fill="#000000" font-family="sans-serif" font-size="14" lengthAdjust="spacing" textLength="182.082" x="1599.5" y="236.8896">:Collaboration AbrirProyectos</text></g><!--entity AbrirInvestigadores--><g class="entity" data-qualified-name="AbrirInvestigadores" data-source-line="22" id="ent0018"><rect fill="#CDEBA5" height="37.6094" rx="2.5" ry="2.5" style="stroke:#181818;stroke-width:0.5;" width="230.8887" x="1827" y="212.3564"/><text fill="#000000" font-family="sans-serif" font-size="14" lengthAdjust="spacing" textLength="210.8887" x="1837" y="236.8896">:Collaboration AbrirInvestigadores</text></g><!--entity AbrirMisPublicaciones--><g class="entity" data-qualified-name="AbrirMisPublicaciones" data-source-line="23" id="ent0019"><rect fill="#CDEBA5" height="37.6094" rx="2.5" ry="2.5" style="stroke:#181818;stroke-width:0.5;" width="247.9922" x="2093.5" y="212.3564"/><text fill="#000000" font-family="sans-serif" font-size="14" lengthAdjust="spacing" textLength="227.9922" x="2103.5" y="236.8896">:Collaboration AbrirMisPublicaciones</text></g><!--entity AbrirPublicaciones--><g class="entity" data-qualified-name="AbrirPublicaciones" data-source-line="24" id="ent0020"><rect fill="#CDEBA5" height="37.6094" rx="2.5" ry="2.5" style="stroke:#181818;stroke-width:0.5;" width="226.2197" x="2376.5" y="212.3564"/><text fill="#000000" font-family="sans-serif" font-size="14" lengthAdjust="spacing" textLength="206.2197" x="2386.5" y="236.8896">:Collaboration AbrirPublicaciones</text></g><!--entity AbrirConvocatorias--><g class="entity" data-qualified-name="AbrirConvocatorias" data-source-line="25" id="ent0021"><rect fill="#CDEBA5" height="37.6094" rx="2.5" ry="2.5" style="stroke:#181818;stroke-width:0.5;" width="229.3232" x="2638" y="212.3564"/><text fill="#000000" font-family="sans-serif" font-size="14" lengthAdjust="spacing" textLength="209.3232" x="2648" y="236.8896">:Collaboration AbrirConvocatorias</text></g><!--entity AbrirRecompensas--><g class="entity" data-qualified-name="AbrirRecompensas" data-source-line="26" id="ent0022"><rect fill="#CDEBA5" height="37.6094" rx="2.5" ry="2.5" style="stroke:#181818;stroke-width:0.5;" width="229.3232" x="2902" y="212.3564"/><text fill="#000000" font-family="sans-serif" font-size="14" lengthAdjust="spacing" textLength="209.3232" x="2912" y="236.8896">:Collaboration AbrirRecompensas</text></g><!--entity CerrarSesion--><g class="entity" data-qualified-name="CerrarSesion" data-source-line="27" id="ent0023"><rect fill="#CDEBA5" height="37.6094" rx="2.5" ry="2.5" style="stroke:#181818;stroke-width:0.5;" width="192.751" x="3166" y="212.3564"/><text fill="#000000" font-family="sans-serif" font-size="14" lengthAdjust="spacing" textLength="172.751" x="3176" y="236.8896">:Collaboration CerrarSesion</text></g><!--link EstadoEntrada1 to DetallePanelPrincipalView--><g class="link" data-entity-1="ent0001" data-entity-2="ent0010" data-link-type="dependency" data-source-line="29" id="lnk24"><path d="M234.1,115.3564 C323.76,115.3564 442.23,115.3564 525.7,115.3564" fill="none" id="EstadoEntrada1-to-DetallePanelPrincipalView" style="stroke:#181818;stroke-width:1;"/><polygon fill="#181818" points="530.7,115.3564,521.7,111.3564,525.7,115.3564,521.7,119.3564,530.7,115.3564" style="stroke:#181818;stroke-width:1;stroke-linejoin:miter;stroke-miterlimit:10;"/><text fill="#000000" font-family="sans-serif" font-size="13" lengthAdjust="spacing" textLength="117.7681" x="324" y="108.8516">abrirPanelPrincipal()</text></g><!--link EstadoEntrada2 to DetallePanelPrincipalView--><g class="link" data-entity-1="ent0002" data-entity-2="ent0010" data-link-type="dependency" data-source-line="30" id="lnk25"><path d="M867.95,115.3564 C816.14,115.3564 764.88,115.3564 719.31,115.3564" fill="none" id="EstadoEntrada2-to-DetallePanelPrincipalView" style="stroke:#181818;stroke-width:1;"/><polygon fill="#181818" points="714.31,115.3564,723.31,119.3564,719.31,115.3564,723.31,111.3564,714.31,115.3564" style="stroke:#181818;stroke-width:1;stroke-linejoin:miter;stroke-miterlimit:10;"/><text fill="#000000" font-family="sans-serif" font-size="13" lengthAdjust="spacing" textLength="117.7681" x="732.5" y="108.8516">abrirPanelPrincipal()</text></g><!--link EstadoEntrada3 to DetallePanelPrincipalView--><g class="link" data-entity-1="ent0003" data-entity-2="ent0010" data-link-type="dependency" data-source-line="31" id="lnk26"><path d="M1477.76,96.3364 C1367.27,72.1164 1190.5,33.3564 1190.5,33.3564 C1190.5,33.3564 850.5,33.3564 850.5,33.3564 C850.5,33.3564 747.435,70.4245 680.085,94.6445" fill="none" id="EstadoEntrada3-to-DetallePanelPrincipalView" style="stroke:#181818;stroke-width:1;"/><polygon fill="#181818" points="675.38,96.3364,685.2026,97.0549,680.085,94.6445,682.4954,89.5269,675.38,96.3364" style="stroke:#181818;stroke-width:1;stroke-linejoin:miter;stroke-miterlimit:10;"/><text fill="#000000" font-family="sans-serif" font-size="13" lengthAdjust="spacing" textLength="117.7681" x="1335" y="20.8516">abrirPanelPrincipal()</text></g><!--link EstadoEntrada4 to DetallePanelPrincipalView--><g class="link" data-entity-1="ent0004" data-entity-2="ent0010" data-link-type="dependency" data-source-line="32" id="lnk27"><path d="M1802.8,96.3364 C1761.14,72.1164 1694.5,33.3564 1694.5,33.3564 C1694.5,33.3564 850.5,33.3564 850.5,33.3564 C850.5,33.3564 747.435,70.4245 680.085,94.6445" fill="none" id="EstadoEntrada4-to-DetallePanelPrincipalView" style="stroke:#181818;stroke-width:1;"/><polygon fill="#181818" points="675.38,96.3364,685.2026,97.0549,680.085,94.6445,682.4954,89.5269,675.38,96.3364" style="stroke:#181818;stroke-width:1;stroke-linejoin:miter;stroke-miterlimit:10;"/><text fill="#000000" font-family="sans-serif" font-size="13" lengthAdjust="spacing" textLength="117.7681" x="715" y="20.8516">abrirPanelPrincipal()</text></g><!--link EstadoEntrada5 to DetallePanelPrincipalView--><g class="link" data-entity-1="ent0005" data-entity-2="ent0010" data-link-type="dependency" data-source-line="33" id="lnk28"><path d="M2072.51,96.3364 C2035.58,72.1164 1976.5,33.3564 1976.5,33.3564 C1976.5,33.3564 850.5,33.3564 850.5,33.3564 C850.5,33.3564 747.435,70.4245 680.085,94.6445" fill="none" id="EstadoEntrada5-to-DetallePanelPrincipalView" style="stroke:#181818;stroke-width:1;"/><polygon fill="#181818" points="675.38,96.3364,685.2026,97.0549,680.085,94.6445,682.4954,89.5269,675.38,96.3364" style="stroke:#181818;stroke-width:1;stroke-linejoin:miter;stroke-miterlimit:10;"/><text fill="#000000" font-family="sans-serif" font-size="13" lengthAdjust="spacing" textLength="117.7681" x="1211" y="20.8516">abrirPanelPrincipal()</text></g><!--link EstadoEntrada6 to DetallePanelPrincipalView--><g class="link" data-entity-1="ent0006" data-entity-2="ent0010" data-link-type="dependency" data-source-line="34" id="lnk29"><path d="M2326.35,96.3364 C2287.95,72.1164 2226.5,33.3564 2226.5,33.3564 C2226.5,33.3564 850.5,33.3564 850.5,33.3564 C850.5,33.3564 747.435,70.4245 680.085,94.6445" fill="none" id="EstadoEntrada6-to-DetallePanelPrincipalView" style="stroke:#181818;stroke-width:1;"/><polygon fill="#181818" points="675.38,96.3364,685.2026,97.0549,680.085,94.6445,682.4954,89.5269,675.38,96.3364" style="stroke:#181818;stroke-width:1;stroke-linejoin:miter;stroke-miterlimit:10;"/><text fill="#000000" font-family="sans-serif" font-size="13" lengthAdjust="spacing" textLength="117.7681" x="839" y="20.8516">abrirPanelPrincipal()</text></g><!--link EstadoEntrada7 to DetallePanelPrincipalView--><g class="link" data-entity-1="ent0007" data-entity-2="ent0010" data-link-type="dependency" data-source-line="35" id="lnk30"><path d="M2580.2,96.3364 C2544.16,72.1164 2486.5,33.3564 2486.5,33.3564 C2486.5,33.3564 850.5,33.3564 850.5,33.3564 C850.5,33.3564 747.435,70.4245 680.085,94.6445" fill="none" id="EstadoEntrada7-to-DetallePanelPrincipalView" style="stroke:#181818;stroke-width:1;"/><polygon fill="#181818" points="675.38,96.3364,685.2026,97.0549,680.085,94.6445,682.4954,89.5269,675.38,96.3364" style="stroke:#181818;stroke-width:1;stroke-linejoin:miter;stroke-miterlimit:10;"/><text fill="#000000" font-family="sans-serif" font-size="13" lengthAdjust="spacing" textLength="117.7681" x="1087" y="20.8516">abrirPanelPrincipal()</text></g><!--link EstadoEntrada8 to DetallePanelPrincipalView--><g class="link" data-entity-1="ent0008" data-entity-2="ent0010" data-link-type="dependency" data-source-line="36" id="lnk31"><path d="M2817.52,96.3364 C2784.44,72.1164 2731.5,33.3564 2731.5,33.3564 C2731.5,33.3564 850.5,33.3564 850.5,33.3564 C850.5,33.3564 747.435,70.4245 680.085,94.6445" fill="none" id="EstadoEntrada8-to-DetallePanelPrincipalView" style="stroke:#181818;stroke-width:1;"/><polygon fill="#181818" points="675.38,96.3364,685.2026,97.0549,680.085,94.6445,682.4954,89.5269,675.38,96.3364" style="stroke:#181818;stroke-width:1;stroke-linejoin:miter;stroke-miterlimit:10;"/><text fill="#000000" font-family="sans-serif" font-size="13" lengthAdjust="spacing" textLength="117.7681" x="963" y="20.8516">abrirPanelPrincipal()</text></g><!--link DetallePanelPrincipalView to PanelPrincipalController--><g class="link" data-entity-1="ent0010" data-entity-2="ent0011" data-link-type="dependency" data-source-line="38" id="lnk32"><path d="M530.95,129.9164 C435.14,144.1164 298.5,164.3564 298.5,164.3564 C298.5,164.3564 298.5,182.3564 298.5,182.3564 C298.5,182.3564 330.428,196.6799 360.788,210.2999" fill="none" id="DetallePanelPrincipalView-to-PanelPrincipalController" style="stroke:#181818;stroke-width:1;"/><polygon fill="#181818" points="365.35,212.3464,358.7757,205.013,360.788,210.2999,355.5012,212.3122,365.35,212.3464" style="stroke:#181818;stroke-width:1;stroke-linejoin:miter;stroke-miterlimit:10;"/><text fill="#000000" font-family="sans-serif" font-size="13" lengthAdjust="spacing" textLength="117.7681" x="299.5" y="178.8516">abrirPanelPrincipal()</text></g><!--link PanelPrincipalController to DetallePanelPrincipalView--><g class="link" data-entity-1="ent0011" data-entity-2="ent0010" data-link-type="dependency" data-source-line="41" id="lnk35"><path d="M440.08,212.1864 C480.68,190.8564 543.1738,158.0321 583.6938,136.7421" fill="none" id="PanelPrincipalController-to-DetallePanelPrincipalView" style="stroke:#181818;stroke-width:1;"/><polygon fill="#181818" points="588.12,134.4164,578.2923,135.0616,583.6938,136.7421,582.0133,142.1436,588.12,134.4164" style="stroke:#181818;stroke-width:1;stroke-linejoin:miter;stroke-miterlimit:10;"/><text fill="#000000" font-family="sans-serif" font-size="13" lengthAdjust="spacing" textLength="252.186" x="527.5" y="178.8516">presentarAccionesDisponibles(coordinador)</text></g><!--link PanelPrincipalController to SesionRepository--><g class="link" data-entity-1="ent0011" data-entity-2="ent0012" data-link-type="dependency" data-source-line="39" id="lnk33"><path d="M390.38,250.5064 C379.05,264.0964 365.5,280.3564 365.5,280.3564 C365.5,280.3564 365.5,298.3564 365.5,298.3564 C365.5,298.3564 366.2079,309.6262 367.0579,323.2162" fill="none" id="PanelPrincipalController-to-SesionRepository" style="stroke:#181818;stroke-width:1;"/><polygon fill="#181818" points="367.37,328.2064,370.8004,318.9743,367.0579,323.2162,362.816,319.4737,367.37,328.2064" style="stroke:#181818;stroke-width:1;stroke-linejoin:miter;stroke-miterlimit:10;"/><text fill="#000000" font-family="sans-serif" font-size="13" lengthAdjust="spacing" textLength="127.8989" x="366.5" y="294.8516">obtenerSesionActiva()</text></g><!--link PanelPrincipalController to Sesion--><g class="link" data-entity-1="ent0011" data-entity-2="ent0013" data-link-type="dependency" data-source-line="40" id="lnk34"><path d="M440.39,250.3664 C466.78,263.9864 498.5,280.3564 498.5,280.3564 C498.5,280.3564 498.5,298.3564 498.5,298.3564 C498.5,298.3564 462.6036,383.4697 446.0436,422.7197" fill="none" id="PanelPrincipalController-to-Sesion" style="stroke:#181818;stroke-width:1;"/><polygon fill="#181818" points="444.1,427.3264,451.284,420.5892,446.0436,422.7197,443.9131,417.4794,444.1,427.3264" style="stroke:#181818;stroke-width:1;stroke-linejoin:miter;stroke-miterlimit:10;"/><text fill="#000000" font-family="sans-serif" font-size="13" lengthAdjust="spacing" textLength="107.6563" x="486.5" y="352.8516">obtenerRolActivo()</text></g><!--link SesionRepository to Sesion--><g class="link" data-entity-1="ent0012" data-entity-2="ent0013" data-link-type="association" data-source-line="42" id="lnk36"><path d="M381.29,366.5964 C393.45,383.9464 411.63,409.8764 423.77,427.1964" fill="none" id="SesionRepository-Sesion" style="stroke:#181818;stroke-width:1;"/></g><!--link DetallePanelPrincipalView to EstadoSalida--><g class="link" data-entity-1="ent0010" data-entity-2="ent0014" data-link-type="dependency" data-source-line="43" id="lnk37"><path d="M684.78,134.3664 C731.89,147.9864 788.5,164.3564 788.5,164.3564 C788.5,164.3564 814.6075,189.3196 835.0375,208.8696" fill="none" id="DetallePanelPrincipalView-to-EstadoSalida" style="stroke:#181818;stroke-width:1;stroke-dasharray:7,7;"/><polygon fill="#181818" points="838.65,212.3264,834.913,203.2141,835.0375,208.8696,829.382,208.9941,838.65,212.3264" style="stroke:#181818;stroke-width:1;stroke-linejoin:miter;stroke-miterlimit:10;"/><text fill="#000000" font-family="sans-serif" font-size="13" lengthAdjust="spacing" textLength="130.7935" x="807.5" y="178.8516">continuarNavegacion()</text></g><!--link DetallePanelPrincipalView to AbrirOpcionesPerfil--><g class="link" data-entity-1="ent0010" data-entity-2="ent0015" data-link-type="dependency" data-source-line="44" id="lnk38"><path d="M714.05,129.9164 C809.86,144.1164 946.5,164.3564 946.5,164.3564 C946.5,164.3564 1015.9021,190.9846 1066.8321,210.5346" fill="none" id="DetallePanelPrincipalView-to-AbrirOpcionesPerfil" style="stroke:#181818;stroke-width:1;stroke-dasharray:7,7;"/><polygon fill="#181818" points="1071.5,212.3264,1064.5312,205.3668,1066.8321,210.5346,1061.6643,212.8355,1071.5,212.3264" style="stroke:#181818;stroke-width:1;stroke-linejoin:miter;stroke-miterlimit:10;"/><text fill="#000000" font-family="sans-serif" font-size="13" lengthAdjust="spacing" textLength="119.2026" x="993.5" y="178.8516">abrirOpcionesPerfil()</text></g><!--link DetallePanelPrincipalView to AbrirOpcionesCargaTrabajo--><g class="link" data-entity-1="ent0010" data-entity-2="ent0016" data-link-type="dependency" data-source-line="45" id="lnk39"><path d="M714.02,125.1564 C858.08,139.0164 1121.5,164.3564 1121.5,164.3564 C1121.5,164.3564 1241.5148,191.6665 1327.3848,211.2165" fill="none" id="DetallePanelPrincipalView-to-AbrirOpcionesCargaTrabajo" style="stroke:#181818;stroke-width:1;stroke-dasharray:7,7;"/><polygon fill="#181818" points="1332.26,212.3264,1324.3725,206.4283,1327.3848,211.2165,1322.5966,214.2287,1332.26,212.3264" style="stroke:#181818;stroke-width:1;stroke-linejoin:miter;stroke-miterlimit:10;"/><text fill="#000000" font-family="sans-serif" font-size="13" lengthAdjust="spacing" textLength="169.0698" x="1199.5" y="178.8516">abrirOpcionesCargaTrabajo()</text></g><!--link DetallePanelPrincipalView to AbrirProyectos--><g class="link" data-entity-1="ent0010" data-entity-2="ent0017" data-link-type="dependency" data-source-line="46" id="lnk40"><path d="M714.25,123.5964 C777.61,128.6064 850.5,134.3564 850.5,134.3564 C850.5,134.3564 1377.5,164.3564 1377.5,164.3564 C1377.5,164.3564 1507.4077,191.7443 1600.0777,211.2943" fill="none" id="DetallePanelPrincipalView-to-AbrirProyectos" style="stroke:#181818;stroke-width:1;stroke-dasharray:7,7;"/><polygon fill="#181818" points="1604.97,212.3264,1596.9895,206.5548,1600.0777,211.2943,1595.3381,214.3825,1604.97,212.3264" style="stroke:#181818;stroke-width:1;stroke-linejoin:miter;stroke-miterlimit:10;"/><text fill="#000000" font-family="sans-serif" font-size="13" lengthAdjust="spacing" textLength="92.4663" x="1461.5" y="178.8516">abrirProyectos()</text></g><!--link DetallePanelPrincipalView to AbrirInvestigadores--><g class="link" data-entity-1="ent0010" data-entity-2="ent0018" data-link-type="dependency" data-source-line="47" id="lnk41"><path d="M714.25,123.5964 C777.61,128.6064 850.5,134.3564 850.5,134.3564 C850.5,134.3564 1562.5,164.3564 1562.5,164.3564 C1562.5,164.3564 1721.2238,191.9205 1833.7338,211.4705" fill="none" id="DetallePanelPrincipalView-to-AbrirInvestigadores" style="stroke:#181818;stroke-width:1;stroke-dasharray:7,7;"/><polygon fill="#181818" points="1838.66,212.3264,1830.4777,206.8447,1833.7338,211.4705,1829.1081,214.7266,1838.66,212.3264" style="stroke:#181818;stroke-width:1;stroke-linejoin:miter;stroke-miterlimit:10;"/><text fill="#000000" font-family="sans-serif" font-size="13" lengthAdjust="spacing" textLength="119.2153" x="1664.5" y="178.8516">abrirInvestigadores()</text></g><!--link DetallePanelPrincipalView to AbrirMisPublicaciones--><g class="link" data-entity-1="ent0010" data-entity-2="ent0019" data-link-type="dependency" data-source-line="48" id="lnk42"><path d="M714.25,123.5964 C777.61,128.6064 850.5,134.3564 850.5,134.3564 C850.5,134.3564 1792.5,164.3564 1792.5,164.3564 C1792.5,164.3564 1970.5893,192.0089 2096.4293,211.5589" fill="none" id="DetallePanelPrincipalView-to-AbrirMisPublicaciones" style="stroke:#181818;stroke-width:1;stroke-dasharray:7,7;"/><polygon fill="#181818" points="2101.37,212.3264,2093.0907,206.9922,2096.4293,211.5589,2091.8626,214.8974,2101.37,212.3264" style="stroke:#181818;stroke-width:1;stroke-linejoin:miter;stroke-miterlimit:10;"/><text fill="#000000" font-family="sans-serif" font-size="13" lengthAdjust="spacing" textLength="135.0972" x="1906.5" y="178.8516">abrirMisPublicaciones()</text></g><!--link DetallePanelPrincipalView to AbrirPublicaciones--><g class="link" data-entity-1="ent0010" data-entity-2="ent0020" data-link-type="dependency" data-source-line="49" id="lnk43"><path d="M714.25,123.5964 C777.61,128.6064 850.5,134.3564 850.5,134.3564 C850.5,134.3564 2050.5,164.3564 2050.5,164.3564 C2050.5,164.3564 2241.4255,193.0633 2371.5055,212.6133" fill="none" id="DetallePanelPrincipalView-to-AbrirPublicaciones" style="stroke:#181818;stroke-width:1;stroke-dasharray:7,7;"/><polygon fill="#181818" points="2376.45,213.3564,2368.1444,208.0633,2371.5055,212.6133,2366.9555,215.9744,2376.45,213.3564" style="stroke:#181818;stroke-width:1;stroke-linejoin:miter;stroke-miterlimit:10;"/><text fill="#000000" font-family="sans-serif" font-size="13" lengthAdjust="spacing" textLength="114.8799" x="2168.5" y="178.8516">abrirPublicaciones()</text></g><!--link DetallePanelPrincipalView to AbrirConvocatorias--><g class="link" data-entity-1="ent0010" data-entity-2="ent0021" data-link-type="dependency" data-source-line="50" id="lnk44"><path d="M714.25,123.5964 C777.61,128.6064 850.5,134.3564 850.5,134.3564 C850.5,134.3564 2291.5,164.3564 2291.5,164.3564 C2291.5,164.3564 2496.4705,193.6977 2633.0005,213.2477" fill="none" id="DetallePanelPrincipalView-to-AbrirConvocatorias" style="stroke:#181818;stroke-width:1;stroke-dasharray:7,7;"/><polygon fill="#181818" points="2637.95,213.9564,2629.6079,208.7211,2633.0005,213.2477,2628.4739,216.6403,2637.95,213.9564" style="stroke:#181818;stroke-width:1;stroke-linejoin:miter;stroke-miterlimit:10;"/><text fill="#000000" font-family="sans-serif" font-size="13" lengthAdjust="spacing" textLength="117.7617" x="2415.5" y="178.8516">abrirConvocatorias()</text></g><!--link DetallePanelPrincipalView to AbrirRecompensas--><g class="link" data-entity-1="ent0010" data-entity-2="ent0022" data-link-type="dependency" data-source-line="51" id="lnk45"><path d="M714.25,123.5964 C777.61,128.6064 850.5,134.3564 850.5,134.3564 C850.5,134.3564 2541.5,164.3564 2541.5,164.3564 C2541.5,164.3564 2756.2976,194.198 2896.8676,213.738" fill="none" id="DetallePanelPrincipalView-to-AbrirRecompensas" style="stroke:#181818;stroke-width:1;stroke-dasharray:7,7;"/><polygon fill="#181818" points="2901.82,214.4264,2893.4564,209.2254,2896.8676,213.738,2892.355,217.1492,2901.82,214.4264" style="stroke:#181818;stroke-width:1;stroke-linejoin:miter;stroke-miterlimit:10;"/><text fill="#000000" font-family="sans-serif" font-size="13" lengthAdjust="spacing" textLength="117.7617" x="2669.5" y="178.8516">abrirRecompensas()</text></g><!--link DetallePanelPrincipalView to CerrarSesion--><g class="link" data-entity-1="ent0010" data-entity-2="ent0023" data-link-type="dependency" data-source-line="52" id="lnk46"><path d="M714.25,123.5964 C777.61,128.6064 850.5,134.3564 850.5,134.3564 C850.5,134.3564 2795.5,164.3564 2795.5,164.3564 C2795.5,164.3564 3148.5,212.3564 3148.5,212.3564 C3148.5,212.3564 3150.4609,212.6683 3160.8709,214.3083" fill="none" id="DetallePanelPrincipalView-to-CerrarSesion" style="stroke:#181818;stroke-width:1;stroke-dasharray:7,7;"/><polygon fill="#181818" points="3165.81,215.0864,3157.5421,209.7346,3160.8709,214.3083,3156.2972,217.6371,3165.81,215.0864" style="stroke:#181818;stroke-width:1;stroke-linejoin:miter;stroke-miterlimit:10;"/><text fill="#000000" font-family="sans-serif" font-size="13" lengthAdjust="spacing" textLength="82.3545" x="2920.5" y="178.8516">cerrarSesion()</text></g><?plantuml-src hPN1JkCm48RlUGghUu53aRRGKdf0Sbs3ie8aIhj8UqAJr5jv2NRaXAwg5U--Rad12Kumg3qrl-V_ChOdCyK35paeU4GP5wpSv0pbCjji7pnFiRG4iSeO-aPcT8g7g3VnWpiwN_ZNU1R6T7wFfpwD5-6yXw10j2XXAQae5IpXkzKUHiGF0sqaEBx6zuiOJ_6FiC9W2sRGZObeVENVxDDuRp-rsczzxVmvlV49hZZj2PnP2QxkeTLDmk0k97WHnZxkSe-ixfYIy3QYmRpJUsxFEmv_KQ8lhEFcnbuEwGEi6894SHM1O5cak4Xv3jaskcVHZuvxw9-7zCzuxMXmGQykq8oLa6MiRhZZx6ypFXacoz4OrGE9r6b9xLVDyAi19cSKpLd1fOXPBWjUIhNf3FEUxNKTuO3Ut4Un7n0_mhQAcaF6bs2_JvqU9591gT-0yFPqmZpL_raHCVMRPpkCHVyiZO1QmK910d_aUwQvwagEbDpeI5cyuLubLuOlrgme-KeVac86gAwxqcvv4Jqb6K_XPLTllEQAynxjk2-nT3MkPGgwpZWOh9hioefPAXzp9WgJP8WE7CAK0lLIsZk6ANXUlIEZlkfVjd-D4sJzhkkGmI4WfuU0d1q2CZm4P7G8oFaX8EClGhnM1-elDR2j8xVnsk9HNyEQ_Ng2P58omQggnMd9r-06URN6Cjlvv4U-ZgF9TPDYeWI5qvUUCED5BWLFCbOSfLAg9HVRLdRiDNUWoVlnqdwG9oUNjKaoGQbEZOidK06isMhNY7JwtGJB4AakeIv-3cHEZWREN7A3liwFVNNidztizQbHCUgY6wWvBYfKKtRSb8Nq1KnjJbIOckQ6COP41J6K3n7cZD1LQ3nfwty0?></g></svg>