<svg xmlns="http://www.w3.org/2000/svg" xmlns:xlink="http://www.w3.org/1999/xlink" contentStyleType="text/css" data-diagram-type="STATE" height="737px" preserveAspectRatio="none" style="width:769px;height:737px;background:#FFFFFF;" version="1.1" viewBox="0 0 769 737" width="769px" zoomAndPan="magnify"><?plantuml 1.2026.5?><defs/><g><g class="entity" data-qualified-name="proyecto" data-source-line="3" id="ent0001"><rect fill="#F1F1F1" height="50" rx="12.5" ry="12.5" style="stroke:#181818;stroke-width:0.5;" width="167.8066" x="296.5" y="7"/><line style="stroke:#181818;stroke-width:0.5;" x1="296.5" x2="464.3066" y1="34.6094" y2="34.6094"/><text fill="#000000" font-family="sans-serif" font-size="14" lengthAdjust="spacing" textLength="147.8066" x="306.5" y="26.5332">PROYECTO_ABIERTO</text></g><g class="entity" data-qualified-name="eliminarProyecto" data-source-line="6" id="ent0002"><path d="M19.5,118 L741.5,118 A12.5,12.5 0 0 1 754,130.5 L754,145.6094 L7,145.6094 L7,130.5 A12.5,12.5 0 0 1 19.5,118" fill="#F1F1F1"/><rect fill="none" height="476.6094" rx="12.5" ry="12.5" style="stroke:#181818;stroke-width:0.5;" width="747" x="7" y="118"/><line style="stroke:#181818;stroke-width:0.5;" x1="7" x2="754" y1="145.6094" y2="145.6094"/><text fill="#000000" font-family="sans-serif" font-size="14" lengthAdjust="spacing" textLength="113.5859" x="323.707" y="137.5332">eliminarProyecto()</text><g class="entity" data-qualified-name="eliminarProyecto.ComprobandoDependencias" data-source-line="7" id="ent0003"><rect fill="#F1F1F1" height="50" rx="12.5" ry="12.5" style="stroke:#181818;stroke-width:0.5;" width="50" x="205" y="281.6094"/><line style="stroke:#181818;stroke-width:0.5;" x1="205" x2="255" y1="309.2188" y2="309.2188"/><text fill="#000000" font-family="sans-serif" font-size="14" lengthAdjust="spacing" textLength="3.8896" x="228.0552" y="301.1426">&#160;</text></g><g class="entity" data-qualified-name="eliminarProyecto.ConfirmandoEliminacion" data-source-line="8" id="ent0004"><rect fill="#F1F1F1" height="50" rx="12.5" ry="12.5" style="stroke:#181818;stroke-width:0.5;" width="50" x="31" y="420.6094"/><line style="stroke:#181818;stroke-width:0.5;" x1="31" x2="81" y1="448.2188" y2="448.2188"/><text fill="#000000" font-family="sans-serif" font-size="14" lengthAdjust="spacing" textLength="3.8896" x="54.0552" y="440.1426">&#160;</text></g><g class="start_entity" data-qualified-name="eliminarProyecto..start.eliminarProyecto" data-source-line="10" id="ent0006"><ellipse cx="230" cy="166.6094" fill="#222222" rx="10" ry="10" style="stroke:#222222;stroke-width:1;"/></g><g class="end_entity" data-qualified-name="eliminarProyecto..end.eliminarProyecto" data-source-line="17" id="ent0008"><ellipse cx="232" cy="570.6094" fill="none" rx="11" ry="11" style="stroke:#222222;stroke-width:1;"/><ellipse cx="232" cy="570.6094" fill="#222222" rx="6" ry="6" style="stroke:#222222;stroke-width:1;"/></g><!--link *start*eliminarProyecto to ComprobandoDependencias--><g class="link" data-entity-1="ent0006" data-entity-2="ent0003" data-link-type="dependency" data-source-line="10" id="lnk7"><path d="M230,176.6594 C230,197.6494 230,245.1994 230,276.3594" fill="none" id="*start*eliminarProyecto-to-ComprobandoDependencias" style="stroke:#008000;stroke-width:1;"/><polygon fill="#008000" points="230,281.3594,234,272.3594,230,276.3594,226,272.3594,230,281.3594" style="stroke:#008000;stroke-width:1;stroke-linejoin:miter;stroke-miterlimit:10;"/><path d="M235,199.6094 L235,258.6094 L537,258.6094 L537,209.6094 L527,199.6094 L235,199.6094" fill="#FEFFDD" style="stroke:#181818;stroke-width:0.5;"/><path d="M527,199.6094 L527,209.6094 L537,209.6094 L527,199.6094" fill="#FEFFDD" style="stroke:#181818;stroke-width:0.5;"/><text fill="#000000" font-family="sans-serif" font-size="13" font-weight="700" lengthAdjust="spacing" textLength="77.9937" x="241" y="218.1045">Coordinador</text><text fill="#000000" font-family="sans-serif" font-size="13" lengthAdjust="spacing" textLength="199.4243" x="322.6055" y="218.1045">solicita eliminar el proyecto abierto</text><text fill="#000000" font-family="sans-serif" font-size="13" font-weight="700" lengthAdjust="spacing" textLength="49.8608" x="241" y="234.4561">Sistema</text><text fill="#000000" font-family="sans-serif" font-size="13" lengthAdjust="spacing" textLength="186.4624" x="294.4727" y="234.4561">comprueba entregables, equipo,</text><text fill="#000000" font-family="sans-serif" font-size="13" lengthAdjust="spacing" textLength="260.127" x="241" y="250.8076">recompensas y dem&#225;s informaci&#243;n vinculada</text></g><!--link ComprobandoDependencias to *end*eliminarProyecto--><g class="link" data-entity-1="ent0003" data-entity-2="ent0008" data-link-type="dependency" data-source-line="17" id="lnk9"><path d="M255.35,314.2694 C300.47,326.1094 390,349.6094 390,349.6094 C390,349.6094 390,401.6094 390,401.6094 C390,401.6094 386,541.6094 386,541.6094 C386,541.6094 283.3093,560.2849 247.9993,566.7049" fill="none" id="ComprobandoDependencias-to-*end*eliminarProyecto" style="stroke:#FF0000;stroke-width:1;"/><polygon fill="#FF0000" points="243.08,567.5994,252.6504,569.9249,247.9993,566.7049,251.2193,562.0539,243.08,567.5994" style="stroke:#FF0000;stroke-width:1;stroke-linejoin:miter;stroke-miterlimit:10;"/><path d="M394,424.6094 L394,466.6094 L730,466.6094 L730,434.6094 L720,424.6094 L394,424.6094" fill="#FEFFDD" style="stroke:#181818;stroke-width:0.5;"/><path d="M720,424.6094 L720,434.6094 L730,434.6094 L720,424.6094" fill="#FEFFDD" style="stroke:#181818;stroke-width:0.5;"/><text fill="#000000" font-family="sans-serif" font-size="13" font-weight="700" lengthAdjust="spacing" textLength="49.8608" x="400" y="443.1045">Sistema</text><text fill="#000000" font-family="sans-serif" font-size="13" lengthAdjust="spacing" textLength="178.4707" x="453.4727" y="443.1045">impide la eliminaci&#243;n e informa</text><text fill="#000000" font-family="sans-serif" font-size="13" lengthAdjust="spacing" textLength="315.0913" x="400" y="459.4561">las dependencias que deben resolverse o conservarse</text></g><!--link ComprobandoDependencias to ConfirmandoEliminacion--><g class="link" data-entity-1="ent0003" data-entity-2="ent0004" data-link-type="dependency" data-source-line="23" id="lnk10"><path d="M204.84,313.7194 C156.86,325.3694 57,349.6094 57,349.6094 C57,349.6094 56.6015,386.9996 56.3115,415.1496" fill="none" id="ComprobandoDependencias-to-ConfirmandoEliminacion" style="stroke:#008000;stroke-width:1;"/><polygon fill="#008000" points="56.26,420.1494,60.3525,411.1911,56.3115,415.1496,52.3529,411.1086,56.26,420.1494" style="stroke:#008000;stroke-width:1;stroke-linejoin:miter;stroke-miterlimit:10;"/><path d="M62,354.6094 L62,396.6094 L385,396.6094 L385,364.6094 L375,354.6094 L62,354.6094" fill="#FEFFDD" style="stroke:#181818;stroke-width:0.5;"/><path d="M375,354.6094 L375,364.6094 L385,364.6094 L375,354.6094" fill="#FEFFDD" style="stroke:#181818;stroke-width:0.5;"/><text fill="#000000" font-family="sans-serif" font-size="13" font-weight="700" lengthAdjust="spacing" textLength="49.8608" x="68" y="373.1045">Sistema</text><text fill="#000000" font-family="sans-serif" font-size="13" lengthAdjust="spacing" textLength="248.5615" x="121.4727" y="373.1045">presenta el proyecto y solicita confirmaci&#243;n</text><text fill="#000000" font-family="sans-serif" font-size="13" lengthAdjust="spacing" textLength="276.7832" x="68" y="389.4561">cuando puede eliminarse sin perder trazabilidad</text></g><!--link ConfirmandoEliminacion to *end*eliminarProyecto--><g class="link" data-entity-1="ent0004" data-entity-2="ent0008" data-link-type="dependency" data-source-line="29" id="lnk11"><path d="M34.78,470.6194 C26.07,480.4694 18,489.6094 18,489.6094 C18,489.6094 18,541.6094 18,541.6094 C18,541.6094 172.5222,561.8314 216.1322,567.5314" fill="none" id="ConfirmandoEliminacion-to-*end*eliminarProyecto" style="stroke:#008000;stroke-width:1;"/><polygon fill="#008000" points="221.09,568.1794,212.6843,563.0467,216.1322,567.5314,211.6475,570.9792,221.09,568.1794" style="stroke:#008000;stroke-width:1;stroke-linejoin:miter;stroke-miterlimit:10;"/><path d="M23,494.6094 L23,536.6094 L205,536.6094 L205,504.6094 L195,494.6094 L23,494.6094" fill="#FEFFDD" style="stroke:#181818;stroke-width:0.5;"/><path d="M195,494.6094 L195,504.6094 L205,504.6094 L195,494.6094" fill="#FEFFDD" style="stroke:#181818;stroke-width:0.5;"/><text fill="#000000" font-family="sans-serif" font-size="13" font-weight="700" lengthAdjust="spacing" textLength="77.9937" x="29" y="513.1045">Coordinador</text><text fill="#000000" font-family="sans-serif" font-size="13" lengthAdjust="spacing" textLength="49.8481" x="110.6055" y="513.1045">confirma</text><text fill="#000000" font-family="sans-serif" font-size="13" font-weight="700" lengthAdjust="spacing" textLength="49.8608" x="29" y="529.4561">Sistema</text><text fill="#000000" font-family="sans-serif" font-size="13" lengthAdjust="spacing" textLength="108.3862" x="82.4727" y="529.4561">elimina el proyecto</text></g><!--link ConfirmandoEliminacion to *end*eliminarProyecto--><g class="link" data-entity-1="ent0004" data-entity-2="ent0008" data-link-type="dependency" data-source-line="35" id="lnk12"><path d="M81.09,453.6094 C124.72,465.7994 210,489.6094 210,489.6094 C210,489.6094 222.1051,533.6181 227.9751,554.9781" fill="none" id="ConfirmandoEliminacion-to-*end*eliminarProyecto-1" style="stroke:#FF0000;stroke-width:1;"/><polygon fill="#FF0000" points="229.3,559.7994,230.7721,550.0612,227.9751,554.9781,223.0581,552.1811,229.3,559.7994" style="stroke:#FF0000;stroke-width:1;stroke-linejoin:miter;stroke-miterlimit:10;"/><path d="M230,502.6094 L230,528.6094 L377,528.6094 L377,512.6094 L367,502.6094 L230,502.6094" fill="#FEFFDD" style="stroke:#181818;stroke-width:0.5;"/><path d="M367,502.6094 L367,512.6094 L377,512.6094 L367,502.6094" fill="#FEFFDD" style="stroke:#181818;stroke-width:0.5;"/><text fill="#000000" font-family="sans-serif" font-size="13" font-weight="700" lengthAdjust="spacing" textLength="77.9937" x="236" y="521.1045">Coordinador</text><text fill="#000000" font-family="sans-serif" font-size="13" lengthAdjust="spacing" textLength="44.8081" x="317.6055" y="521.1045">cancela</text></g></g><g class="entity" data-qualified-name="PROYECTOS_ABIERTOS" data-source-line="41" id="ent0013"><rect fill="#F1F1F1" height="50" rx="12.5" ry="12.5" style="stroke:#181818;stroke-width:0.5;" width="186.4824" x="181.5" y="673"/><line style="stroke:#181818;stroke-width:0.5;" x1="181.5" x2="367.9824" y1="700.6094" y2="700.6094"/><text fill="#000000" font-family="sans-serif" font-size="14" lengthAdjust="spacing" textLength="166.4824" x="191.5" y="692.5332">PROYECTOS_ABIERTOS</text></g><g class="entity" data-qualified-name="PROYECTO_ABIERTO" data-source-line="42" id="ent0015"><rect fill="#F1F1F1" height="50" rx="12.5" ry="12.5" style="stroke:#181818;stroke-width:0.5;" width="167.8066" x="402.5" y="673"/><line style="stroke:#181818;stroke-width:0.5;" x1="402.5" x2="570.3066" y1="700.6094" y2="700.6094"/><text fill="#000000" font-family="sans-serif" font-size="14" lengthAdjust="spacing" textLength="147.8066" x="412.5" y="692.5332">PROYECTO_ABIERTO</text></g><!--link proyecto to eliminarProyecto--><g class="link" data-entity-1="ent0001" data-entity-2="ent0002" data-link-type="dependency" data-source-line="4" id="lnk5"><path d="M380.5,57.24 C380.5,72.4 380.5,88.62 380.5,112.83" fill="none" id="proyecto-to-eliminarProyecto" style="stroke:#008000;stroke-width:1;"/><polygon fill="#008000" points="380.5,117.83,384.5,108.83,380.5,112.83,376.5,108.83,380.5,117.83" style="stroke:#008000;stroke-width:1;stroke-linejoin:miter;stroke-miterlimit:10;"/></g><!--link eliminarProyecto to PROYECTOS_ABIERTOS--><g class="link" data-entity-1="ent0002" data-entity-2="ent0013" data-link-type="dependency" data-source-line="41" id="lnk14"><path d="M306.3,595.14 C296.49,626.56 289.329,649.4969 283.539,668.0569" fill="none" id="eliminarProyecto-to-PROYECTOS_ABIERTOS" style="stroke:#008000;stroke-width:1;"/><polygon fill="#008000" points="282.05,672.83,288.5488,665.4296,283.539,668.0569,280.9118,663.0471,282.05,672.83" style="stroke:#008000;stroke-width:1;stroke-linejoin:miter;stroke-miterlimit:10;"/><text fill="#000000" font-family="sans-serif" font-size="13" lengthAdjust="spacing" textLength="110.5571" x="296.5" y="639.4951">Proyecto eliminado</text></g><!--link eliminarProyecto to PROYECTO_ABIERTO--><g class="link" data-entity-1="ent0002" data-entity-2="ent0015" data-link-type="dependency" data-source-line="42" id="lnk16"><path d="M454.7,595.14 C464.51,626.56 471.671,649.4969 477.461,668.0569" fill="none" id="eliminarProyecto-to-PROYECTO_ABIERTO" style="stroke:#FF0000;stroke-width:1;"/><polygon fill="#FF0000" points="478.95,672.83,480.0882,663.0471,477.461,668.0569,472.4512,665.4296,478.95,672.83" style="stroke:#FF0000;stroke-width:1;stroke-linejoin:miter;stroke-miterlimit:10;"/><text fill="#000000" font-family="sans-serif" font-size="13" lengthAdjust="spacing" textLength="70.8081" x="469.5" y="639.4951">Sin cambios</text></g><?plantuml-src bPJ1JkD038RlUGghUs5N8Eu8LM9B3tigebnM225dnY2BYIVC99MogtqOde57uCNMcIOb3G51UibCxD__PqydFh2K6B00nq9LKnAKtZNj8ijYXPMkWs_8L1ummkpYSlLxkRXQtPxz_BMyl5hDijtde-jlzu58RexcG8uB5WmNtSTUQxoVDCUR1zzdy3S3VRP9C_rftC8NMYj7iVwSIX9BOXZZLA3SSIZQmELMsh2NB0LU_xZPC_gHg7ZLzD9svY5jdERpXVV1ggBruVGudqFqZWrNk2FJbq77SgQWz5toccD51QP4qnQkATTCgGBTO-ue7W8zrbpwmvGHg0qYYShKWANYvIa2ovrNDiClpm8R5bCxj9ZYrNtol2LzXwob3sHRTkt5kvn3groKR0dS3d9Rd7elASUfj1tMUQn9Dt8IvT0kRIX4hQBS4YbiK5TVCpqOsUHuFqDIgXLjD-uDgNaTekca4s0IC7LR1ygQxElfLP380YK5Im6gW7zqq8ujsacaARjxH1yDOdpWUejJU9s_8TsN37tYNBonWsB8ZSxVlonxyqSVylQNoBg_HTOdi0liCgsVrEWiZg-X4rZhG0mMEVkO_GS0?></g></svg>