<svg xmlns="http://www.w3.org/2000/svg" xmlns:xlink="http://www.w3.org/1999/xlink" contentStyleType="text/css" data-diagram-type="DESCRIPTION" height="442px" preserveAspectRatio="none" style="width:1775px;height:442px;background:#FFFFFF;" version="1.1" viewBox="0 0 1775 442" width="1775px" zoomAndPan="magnify"><?plantuml 1.2026.4?><defs/><g><!--cluster abrirRecompensa--><g class="cluster" data-qualified-name="abrirRecompensa" data-source-line="4" id="ent0002"><path d="M235.5,6 L364.0928,6 A3.75,3.75 0 0 1 366.5928,8.5 L373.5928,29.6094 L726.5,29.6094 A2.5,2.5 0 0 1 729,32.1094 L729,424.5 A2.5,2.5 0 0 1 726.5,427 L235.5,427 A2.5,2.5 0 0 1 233,424.5 L233,8.5 A2.5,2.5 0 0 1 235.5,6" fill="none" style="stroke:#000000;stroke-width:1.5;"/><line style="stroke:#000000;stroke-width:1.5;" x1="233" x2="373.5928" y1="29.6094" y2="29.6094"/><text fill="#000000" font-family="sans-serif" font-size="14" font-weight="700" lengthAdjust="spacing" textLength="127.5928" x="237" y="22.5332">abrirRecompensa()</text></g><!--entity DetalleRecompensaView--><g class="entity" data-qualified-name="abrirRecompensa.DetalleRecompensaView" data-source-line="5" id="ent0003"><rect fill="#629EF9" height="37.6094" rx="2.5" ry="2.5" style="stroke:#181818;stroke-width:0.5;" width="176.4131" x="537" y="42"/><text fill="#000000" font-family="sans-serif" font-size="14" lengthAdjust="spacing" textLength="156.4131" x="547" y="66.5332">DetalleRecompensaView</text></g><!--entity RecompensaController--><g class="entity" data-qualified-name="abrirRecompensa.RecompensaController" data-source-line="6" id="ent0004"><rect fill="#B5BD68" height="37.6094" rx="2.5" ry="2.5" style="stroke:#181818;stroke-width:0.5;" width="163.1787" x="293.5" y="158"/><text fill="#000000" font-family="sans-serif" font-size="14" lengthAdjust="spacing" textLength="143.1787" x="303.5" y="182.5332">RecompensaController</text></g><!--entity RecompensaRepository--><g class="entity" data-qualified-name="abrirRecompensa.RecompensaRepository" data-source-line="7" id="ent0005"><rect fill="#F2AC4E" height="37.6094" rx="2.5" ry="2.5" style="stroke:#181818;stroke-width:0.5;" width="169.4063" x="304.5" y="274"/><text fill="#000000" font-family="sans-serif" font-size="14" lengthAdjust="spacing" textLength="149.4063" x="314.5" y="298.5332">RecompensaRepository</text></g><!--entity Recompensa--><g class="entity" data-qualified-name="abrirRecompensa.Recompensa" data-source-line="8" id="ent0006"><rect fill="#F2AC4E" height="37.6094" rx="2.5" ry="2.5" style="stroke:#181818;stroke-width:0.5;" width="102.4893" x="338" y="373"/><text fill="#000000" font-family="sans-serif" font-size="14" lengthAdjust="spacing" textLength="82.4893" x="348" y="397.5332">Recompensa</text></g><!--entity EstadoEntrada--><g class="entity" data-qualified-name="EstadoEntrada" data-source-line="3" id="ent0001"><rect fill="#CDEBA5" height="37.6094" rx="2.5" ry="2.5" style="stroke:#181818;stroke-width:0.5;" width="209.8271" x="7" y="42"/><text fill="#000000" font-family="sans-serif" font-size="14" lengthAdjust="spacing" textLength="189.8271" x="17" y="66.5332">:RECOMPENSAS_ABIERTAS</text></g><!--entity EstadoSalida--><g class="entity" data-qualified-name="EstadoSalida" data-source-line="11" id="ent0007"><rect fill="#CDEBA5" height="37.6094" rx="2.5" ry="2.5" style="stroke:#181818;stroke-width:0.5;" width="209.8271" x="745" y="158"/><text fill="#000000" font-family="sans-serif" font-size="14" lengthAdjust="spacing" textLength="189.8271" x="755" y="182.5332">:RECOMPENSAS_ABIERTAS</text></g><!--entity AbrirRecompensas--><g class="entity" data-qualified-name="AbrirRecompensas" data-source-line="12" id="ent0008"><rect fill="#CDEBA5" height="37.6094" rx="2.5" ry="2.5" style="stroke:#181818;stroke-width:0.5;" width="229.3232" x="990.5" y="158"/><text fill="#000000" font-family="sans-serif" font-size="14" lengthAdjust="spacing" textLength="209.3232" x="1000.5" y="182.5332">:Collaboration AbrirRecompensas</text></g><!--entity EliminarRecompensa--><g class="entity" data-qualified-name="EliminarRecompensa" data-source-line="13" id="ent0009"><rect fill="#CDEBA5" height="37.6094" rx="2.5" ry="2.5" style="stroke:#181818;stroke-width:0.5;" width="243.3301" x="1254.5" y="158"/><text fill="#000000" font-family="sans-serif" font-size="14" lengthAdjust="spacing" textLength="223.3301" x="1264.5" y="182.5332">:Collaboration EliminarRecompensa</text></g><!--entity EditarRecompensa--><g class="entity" data-qualified-name="EditarRecompensa" data-source-line="14" id="ent0010"><rect fill="#CDEBA5" height="37.6094" rx="2.5" ry="2.5" style="stroke:#181818;stroke-width:0.5;" width="229.3369" x="1532.5" y="158"/><text fill="#000000" font-family="sans-serif" font-size="14" lengthAdjust="spacing" textLength="209.3369" x="1542.5" y="182.5332">:Collaboration EditarRecompensa</text></g><!--link EstadoEntrada to DetalleRecompensaView--><g class="link" data-entity-1="ent0001" data-entity-2="ent0003" data-link-type="dependency" data-source-line="16" id="lnk11"><path d="M217.05,61 C311.29,61 443.03,61 531.74,61" fill="none" id="EstadoEntrada-to-DetalleRecompensaView" style="stroke:#181818;stroke-width:1;"/><polygon fill="#181818" points="536.74,61,527.74,57,531.74,61,527.74,65,536.74,61" style="stroke:#181818;stroke-width:1;stroke-linejoin:miter;stroke-miterlimit:10;"/><text fill="#000000" font-family="sans-serif" font-size="13" lengthAdjust="spacing" textLength="111.2617" x="321.5" y="54.4951">abrirRecompensa()</text></g><!--link DetalleRecompensaView to RecompensaController--><g class="link" data-entity-1="ent0003" data-entity-2="ent0004" data-link-type="dependency" data-source-line="18" id="lnk12"><path d="M536.86,74.3 C434.94,88.52 281,110 281,110 C281,110 281,128 281,128 C281,128 308.6071,142.0959 335.2771,155.7159" fill="none" id="DetalleRecompensaView-to-RecompensaController" style="stroke:#181818;stroke-width:1;"/><polygon fill="#181818" points="339.73,157.99,333.534,150.3343,335.2771,155.7159,329.8955,157.4591,339.73,157.99" style="stroke:#181818;stroke-width:1;stroke-linejoin:miter;stroke-miterlimit:10;"/><text fill="#000000" font-family="sans-serif" font-size="13" lengthAdjust="spacing" textLength="139.4644" x="282" y="124.4951">obtenerRecompensa(id)</text></g><!--link DetalleRecompensaView to RecompensaController--><g class="link" data-entity-1="ent0003" data-entity-2="ent0004" data-link-type="dependency" data-source-line="19" id="lnk13"><path d="M564.97,80.01 C519.57,93.63 465,110 465,110 C465,110 430.2715,135.4625 403.6215,155.0125" fill="none" id="DetalleRecompensaView-to-RecompensaController-1" style="stroke:#181818;stroke-width:1;"/><polygon fill="#181818" points="399.59,157.97,409.2128,155.8718,403.6215,155.0125,404.4808,149.4213,399.59,157.97" style="stroke:#181818;stroke-width:1;stroke-linejoin:miter;stroke-miterlimit:10;"/><text fill="#000000" font-family="sans-serif" font-size="13" lengthAdjust="spacing" textLength="246.4033" x="466" y="124.4951">prepararAccionesDisponibles(coordinador)</text></g><!--link RecompensaController to RecompensaRepository--><g class="link" data-entity-1="ent0004" data-entity-2="ent0005" data-link-type="dependency" data-source-line="20" id="lnk14"><path d="M348.91,196.15 C329.37,209.74 306,226 306,226 C306,226 306,244 306,244 C306,244 329.7917,257.7569 353.2917,271.3469" fill="none" id="RecompensaController-to-RecompensaRepository" style="stroke:#181818;stroke-width:1;"/><polygon fill="#181818" points="357.62,273.85,351.8314,265.8818,353.2917,271.3469,347.8265,272.8071,357.62,273.85" style="stroke:#181818;stroke-width:1;stroke-linejoin:miter;stroke-miterlimit:10;"/><text fill="#000000" font-family="sans-serif" font-size="13" lengthAdjust="spacing" textLength="93.939" x="307" y="240.4951">obtenerPorId(id)</text></g><!--link RecompensaController to RecompensaRepository--><g class="link" data-entity-1="ent0004" data-entity-2="ent0005" data-link-type="dependency" data-source-line="21" id="lnk15"><path d="M386.34,196.15 C394.84,209.74 405,226 405,226 C405,226 405,244 405,244 C405,244 401.1611,255.5166 396.6311,269.1066" fill="none" id="RecompensaController-to-RecompensaRepository-1" style="stroke:#181818;stroke-width:1;"/><polygon fill="#181818" points="395.05,273.85,401.6908,266.5768,396.6311,269.1066,394.1013,264.0469,395.05,273.85" style="stroke:#181818;stroke-width:1;stroke-linejoin:miter;stroke-miterlimit:10;"/><text fill="#000000" font-family="sans-serif" font-size="13" lengthAdjust="spacing" textLength="137.2427" x="406" y="240.4951">verificarPermisos(actor)</text></g><!--link RecompensaRepository to Recompensa--><g class="link" data-entity-1="ent0005" data-entity-2="ent0006" data-link-type="association" data-source-line="22" id="lnk16"><path d="M389,312.24 C389,329.59 389,355.52 389,372.84" fill="none" id="RecompensaRepository-Recompensa" style="stroke:#181818;stroke-width:1;"/></g><!--link DetalleRecompensaView to EstadoSalida--><g class="link" data-entity-1="ent0003" data-entity-2="ent0007" data-link-type="dependency" data-source-line="23" id="lnk17"><path d="M661.02,80.01 C688.26,93.63 721,110 721,110 C721,110 772.1093,136.1416 810.2993,155.6916" fill="none" id="DetalleRecompensaView-to-EstadoSalida" style="stroke:#181818;stroke-width:1;stroke-dasharray:7,7;"/><polygon fill="#181818" points="814.75,157.97,808.5614,150.3083,810.2993,155.6916,804.916,157.4295,814.75,157.97" style="stroke:#181818;stroke-width:1;stroke-linejoin:miter;stroke-miterlimit:10;"/><text fill="#000000" font-family="sans-serif" font-size="13" lengthAdjust="spacing" textLength="130.7935" x="756" y="124.4951">continuarNavegacion()</text></g><!--link DetalleRecompensaView to AbrirRecompensas--><g class="link" data-entity-1="ent0003" data-entity-2="ent0008" data-link-type="dependency" data-source-line="24" id="lnk18"><path d="M713.03,77.65 C791.83,91.66 895,110 895,110 C895,110 980.6702,136.9203 1042.8502,156.4703" fill="none" id="DetalleRecompensaView-to-AbrirRecompensas" style="stroke:#181818;stroke-width:1;stroke-dasharray:7,7;"/><polygon fill="#181818" points="1047.62,157.97,1040.2341,151.4548,1042.8502,156.4703,1037.8346,159.0864,1047.62,157.97" style="stroke:#181818;stroke-width:1;stroke-linejoin:miter;stroke-miterlimit:10;"/><text fill="#000000" font-family="sans-serif" font-size="13" lengthAdjust="spacing" textLength="117.7617" x="952" y="124.4951">abrirRecompensas()</text></g><!--link DetalleRecompensaView to EliminarRecompensa--><g class="link" data-entity-1="ent0003" data-entity-2="ent0009" data-link-type="dependency" data-source-line="25" id="lnk19"><path d="M713.15,71.34 C844.93,85.3 1078,110 1078,110 C1078,110 1201.4584,137.3383 1289.6884,156.8883" fill="none" id="DetalleRecompensaView-to-EliminarRecompensa" style="stroke:#181818;stroke-width:1;stroke-dasharray:7,7;"/><polygon fill="#181818" points="1294.57,157.97,1286.6485,152.1177,1289.6884,156.8883,1284.9178,159.9283,1294.57,157.97" style="stroke:#181818;stroke-width:1;stroke-linejoin:miter;stroke-miterlimit:10;"/><text fill="#000000" font-family="sans-serif" font-size="13" lengthAdjust="spacing" textLength="130.7681" x="1158" y="124.4951">eliminarRecompensa()</text></g><!--link DetalleRecompensaView to EditarRecompensa--><g class="link" data-entity-1="ent0003" data-entity-2="ent0010" data-link-type="dependency" data-source-line="26" id="lnk20"><path d="M713.2,68.3 C895.51,81.32 1297,110 1297,110 C1297,110 1442.8167,137.4931 1546.4467,157.0431" fill="none" id="DetalleRecompensaView-to-EditarRecompensa" style="stroke:#181818;stroke-width:1;stroke-dasharray:7,7;"/><polygon fill="#181818" points="1551.36,157.97,1543.2575,152.3709,1546.4467,157.0431,1541.7745,160.2322,1551.36,157.97" style="stroke:#181818;stroke-width:1;stroke-linejoin:miter;stroke-miterlimit:10;"/><text fill="#000000" font-family="sans-serif" font-size="13" lengthAdjust="spacing" textLength="117.7744" x="1391" y="124.4951">editarRecompensa()</text></g><?plantuml-src dLB1JkCm5BpxAvwwb_PG3cX1a0DII8t4OQ5g4LVqOZ-g9r8xUlQ2gjN-Eov8D7L2boMtZ6OcataJdjYrABY6XXt5JKlG-cQpVL5Ao4HqguRWHpNJb-K9Z8g5hcv_pVNDibm-b9VNUd5NBaU00NI8QBrsKT2YQj4yuOe0Qs5PaF7hbbp0BN6KOUF92FueI4_dUwV7v_hg76OKiMbeHxvdUicvzKbjJyzWHwfyIk6JJdBgrN5P_TGTwe9Q7pXwsVoJglv-gv4bDfmA6L9MAIFMNZ2oTr3krnBUF7Bm2pwwuJKxxAZUq_JWhtXPZdsd35Hgx_OmbUd5yEKAwDrUgK4cJ6qo6Jff0RwEvAZhmdRocSsdBgtGTlXI6fF-bCACG-iTrms5iV5UR2hBUfce8NdckrlHHxgvbslx5km_zSya_CW6PKwovk3364tSpx6Z9v_kGeSxE3gwsDjY0IO5OVSRvGQVQONR0iQJ0-fyXRqxXeFo_lGAe1vss2BRN3B8a2H_1G00?></g></svg>