<svg xmlns="http://www.w3.org/2000/svg" xmlns:xlink="http://www.w3.org/1999/xlink" contentStyleType="text/css" data-diagram-type="STATE" height="851px" preserveAspectRatio="none" style="width:897px;height:851px;background:#FFFFFF;" version="1.1" viewBox="0 0 897 851" width="897px" zoomAndPan="magnify"><?plantuml 1.2026.6?><defs/><g><g class="entity" data-qualified-name="in1" data-source-line="3" id="ent0001"><rect fill="#F1F1F1" height="50" rx="12.5" ry="12.5" style="stroke:#181818;stroke-width:0.5;" width="205.9375" x="288" y="7"/><line style="stroke:#181818;stroke-width:0.5;" x1="288" x2="493.9375" y1="34.6094" y2="34.6094"/><text fill="#000000" font-family="sans-serif" font-size="14" lengthAdjust="spacing" textLength="185.9375" x="298" y="26.5332">MI_PUBLICACION_ABIERTA</text></g><g class="entity" data-qualified-name="editarPublicacion" data-source-line="6" id="ent0002"><path d="M40.5,118 L741.5,118 A12.5,12.5 0 0 1 754,130.5 L754,145.6094 L28,145.6094 L28,130.5 A12.5,12.5 0 0 1 40.5,118" fill="#F1F1F1"/><rect fill="none" height="572.6094" rx="12.5" ry="12.5" style="stroke:#181818;stroke-width:0.5;" width="726" x="28" y="118"/><line style="stroke:#181818;stroke-width:0.5;" x1="28" x2="754" y1="145.6094" y2="145.6094"/><text fill="#000000" font-family="sans-serif" font-size="14" lengthAdjust="spacing" textLength="115.9443" x="333.0278" y="137.5332">editarPublicacion()</text><g class="entity" data-qualified-name="editarPublicacion.MostrandoPublicacion" data-source-line="8" id="ent0003"><rect fill="#F1F1F1" height="50" rx="12.5" ry="12.5" style="stroke:#181818;stroke-width:0.5;" width="50" x="228" y="248.6094"/><line style="stroke:#181818;stroke-width:0.5;" x1="228" x2="278" y1="276.2188" y2="276.2188"/><text fill="#000000" font-family="sans-serif" font-size="14" lengthAdjust="spacing" textLength="3.8896" x="251.0552" y="268.1426">&#160;</text></g><g class="entity" data-qualified-name="editarPublicacion.EditandoDatos" data-source-line="9" id="ent0004"><rect fill="#F1F1F1" height="50" rx="12.5" ry="12.5" style="stroke:#181818;stroke-width:0.5;" width="50" x="228" y="517.6094"/><line style="stroke:#181818;stroke-width:0.5;" x1="228" x2="278" y1="545.2188" y2="545.2188"/><text fill="#000000" font-family="sans-serif" font-size="14" lengthAdjust="spacing" textLength="3.8896" x="251.0552" y="537.1426">&#160;</text></g><g class="start_entity" data-qualified-name="editarPublicacion..start.editarPublicacion" data-source-line="11" id="ent0006"><ellipse cx="253" cy="166.6094" fill="#222222" rx="10" ry="10" style="stroke:#222222;stroke-width:1;"/></g><g class="end_entity" data-qualified-name="editarPublicacion..end.editarPublicacion" data-source-line="30" id="ent0009"><ellipse cx="253" cy="666.6094" fill="none" rx="11" ry="11" style="stroke:#222222;stroke-width:1;"/><ellipse cx="253" cy="666.6094" fill="#222222" rx="6" ry="6" style="stroke:#222222;stroke-width:1;"/></g><!--link *start*editarPublicacion to MostrandoPublicacion--><g class="link" data-entity-1="ent0006" data-entity-2="ent0003" data-link-type="dependency" data-source-line="11" id="lnk7"><path d="M253,176.9294 C253,192.7894 253,220.5194 253,243.2494" fill="none" id="*start*editarPublicacion-to-MostrandoPublicacion" style="stroke:#008000;stroke-width:1;"/><polygon fill="#008000" points="253,248.2494,257,239.2494,253,243.2494,249,239.2494,253,248.2494" style="stroke:#008000;stroke-width:1;stroke-linejoin:miter;stroke-miterlimit:10;"/><path d="M258,199.6094 L258,225.6094 L570,225.6094 L570,209.6094 L560,199.6094 L258,199.6094" fill="#FEFFDD" style="stroke:#181818;stroke-width:0.5;"/><path d="M560,199.6094 L560,209.6094 L570,209.6094 L560,199.6094" fill="#FEFFDD" style="stroke:#181818;stroke-width:0.5;"/><text fill="#000000" font-family="sans-serif" font-size="13" font-weight="700" lengthAdjust="spacing" textLength="77.9937" x="264" y="218.1045">Coordinador</text><text fill="#000000" font-family="sans-serif" font-size="13" lengthAdjust="spacing" textLength="209.5742" x="345.6055" y="218.1045">solicita editar una publicaci&#243;n propia</text></g><!--link MostrandoPublicacion to EditandoDatos--><g class="link" data-entity-1="ent0003" data-entity-2="ent0004" data-link-type="dependency" data-source-line="16" id="lnk8"><path d="M227.61,279.5894 C170.92,290.7194 39,316.6094 39,316.6094 C39,316.6094 39,499.6094 39,499.6094 C39,499.6094 166.0137,524.5361 222.7037,535.6661" fill="none" id="MostrandoPublicacion-to-EditandoDatos" style="stroke:#008000;stroke-width:1;"/><polygon fill="#008000" points="227.61,536.6294,219.5492,530.9704,222.7037,535.6661,218.008,538.8206,227.61,536.6294" style="stroke:#008000;stroke-width:1;stroke-linejoin:miter;stroke-miterlimit:10;"/><path d="M44,321.6094 L44,494.6094 L442,494.6094 L442,331.6094 L432,321.6094 L44,321.6094" fill="#FEFFDD" style="stroke:#181818;stroke-width:0.5;"/><path d="M432,321.6094 L432,331.6094 L442,331.6094 L432,321.6094" fill="#FEFFDD" style="stroke:#181818;stroke-width:0.5;"/><text fill="#000000" font-family="sans-serif" font-size="13" font-weight="700" lengthAdjust="spacing" textLength="49.8608" x="50" y="340.1045">Sistema</text><text fill="#000000" font-family="sans-serif" font-size="13" lengthAdjust="spacing" textLength="324.4668" x="103.4727" y="340.1045">presenta el formulario de edici&#243;n con los datos actuales:</text><text fill="#000000" font-family="sans-serif" font-size="13" lengthAdjust="spacing" textLength="41.4058" x="50" y="356.4561">&#8226; T&#237;tulo</text><text fill="#000000" font-family="sans-serif" font-size="13" lengthAdjust="spacing" textLength="49.3657" x="50" y="372.8076">&#8226; Estado</text><text fill="#000000" font-family="sans-serif" font-size="13" lengthAdjust="spacing" textLength="67.4248" x="50" y="389.1592">&#8226; Visibilidad</text><text fill="#000000" font-family="sans-serif" font-size="13" lengthAdjust="spacing" textLength="76.8066" x="50" y="405.5107">&#8226; Descripci&#243;n</text><text fill="#000000" font-family="sans-serif" font-size="13" lengthAdjust="spacing" textLength="120.1802" x="50" y="421.8623">&#8226; Adjuntos (opcional)</text><text fill="#000000" font-family="sans-serif" font-size="13" lengthAdjust="spacing" textLength="3.6118" x="50" y="438.2139">&#160;</text><text fill="#000000" font-family="sans-serif" font-size="13" lengthAdjust="spacing" textLength="242.0488" x="50" y="454.5654">y permite solicitar las siguientes acciones:</text><text fill="#000000" font-family="sans-serif" font-size="13" lengthAdjust="spacing" textLength="108.6021" x="50" y="470.917">&#8226; Guardar cambios</text><text fill="#000000" font-family="sans-serif" font-size="13" lengthAdjust="spacing" textLength="60.9185" x="50" y="487.2686">&#8226; Cancelar</text></g><!--link EditandoDatos to *end*editarPublicacion--><g class="link" data-entity-1="ent0004" data-entity-2="ent0009" data-link-type="dependency" data-source-line="30" id="lnk10"><path d="M253,567.7094 C253,594.3794 253,631.1094 253,650.3094" fill="none" id="EditandoDatos-to-*end*editarPublicacion" style="stroke:#008000;stroke-width:1;"/><polygon fill="#008000" points="253,655.3094,257,646.3094,253,650.3094,249,646.3094,253,655.3094" style="stroke:#008000;stroke-width:1;stroke-linejoin:miter;stroke-miterlimit:10;"/><path d="M258,590.6094 L258,632.6094 L534,632.6094 L534,600.6094 L524,590.6094 L258,590.6094" fill="#FEFFDD" style="stroke:#181818;stroke-width:0.5;"/><path d="M524,590.6094 L524,600.6094 L534,600.6094 L524,590.6094" fill="#FEFFDD" style="stroke:#181818;stroke-width:0.5;"/><text fill="#000000" font-family="sans-serif" font-size="13" font-weight="700" lengthAdjust="spacing" textLength="77.9937" x="264" y="609.1045">Coordinador</text><text fill="#000000" font-family="sans-serif" font-size="13" lengthAdjust="spacing" textLength="140.1753" x="345.6055" y="609.1045">solicita guardar cambios</text><text fill="#000000" font-family="sans-serif" font-size="13" font-weight="700" lengthAdjust="spacing" textLength="49.8608" x="264" y="625.4561">Sistema</text><text fill="#000000" font-family="sans-serif" font-size="13" lengthAdjust="spacing" textLength="201.6206" x="317.4727" y="625.4561">visualiza la publicaci&#243;n actualizada</text></g><!--link EditandoDatos to MostrandoPublicacion--><g class="link" data-entity-1="ent0004" data-entity-2="ent0003" data-link-type="dependency" data-source-line="36" id="lnk11"><path d="M278.36,536.1194 C330.95,524.7294 447,499.6094 447,499.6094 C447,499.6094 447,316.6094 447,316.6094 C447,316.6094 335.8367,292.5477 283.2467,281.1577" fill="none" id="EditandoDatos-to-MostrandoPublicacion" style="stroke:#FF0000;stroke-width:1;"/><polygon fill="#FF0000" points="278.36,280.0994,286.3094,285.9138,283.2467,281.1577,288.0028,278.0951,278.36,280.0994" style="stroke:#FF0000;stroke-width:1;stroke-linejoin:miter;stroke-miterlimit:10;"/><path d="M452,387.1094 L452,429.1094 L730,429.1094 L730,397.1094 L720,387.1094 L452,387.1094" fill="#FEFFDD" style="stroke:#181818;stroke-width:0.5;"/><path d="M720,387.1094 L720,397.1094 L730,397.1094 L720,387.1094" fill="#FEFFDD" style="stroke:#181818;stroke-width:0.5;"/><text fill="#000000" font-family="sans-serif" font-size="13" font-weight="700" lengthAdjust="spacing" textLength="77.9937" x="458" y="405.6045">Coordinador</text><text fill="#000000" font-family="sans-serif" font-size="13" lengthAdjust="spacing" textLength="92.4854" x="539.6055" y="405.6045">solicita cancelar</text><text fill="#000000" font-family="sans-serif" font-size="13" font-weight="700" lengthAdjust="spacing" textLength="49.8608" x="458" y="421.9561">Sistema</text><text fill="#000000" font-family="sans-serif" font-size="13" lengthAdjust="spacing" textLength="204.4897" x="511.4727" y="421.9561">visualiza la publicaci&#243;n sin cambios</text></g></g><g class="entity" data-qualified-name="MI_PUBLICACION_ABIERTA" data-source-line="43" id="ent0012"><rect fill="#F1F1F1" height="50" rx="12.5" ry="12.5" style="stroke:#181818;stroke-width:0.5;" width="205.9375" x="112" y="787"/><line style="stroke:#181818;stroke-width:0.5;" x1="112" x2="317.9375" y1="814.6094" y2="814.6094"/><text fill="#000000" font-family="sans-serif" font-size="14" lengthAdjust="spacing" textLength="185.9375" x="122" y="806.5332">MI_PUBLICACION_ABIERTA</text></g><g class="entity" data-qualified-name="MIS_PUBLICACIONES_ABIERTAS" data-source-line="58" id="ent0016"><rect fill="#F1F1F1" height="50" rx="12.5" ry="12.5" style="stroke:#181818;stroke-width:0.5;" width="243.2891" x="542.5" y="787"/><line style="stroke:#181818;stroke-width:0.5;" x1="542.5" x2="785.7891" y1="814.6094" y2="814.6094"/><text fill="#000000" font-family="sans-serif" font-size="14" lengthAdjust="spacing" textLength="223.2891" x="552.5" y="806.5332">MIS_PUBLICACIONES_ABIERTAS</text></g><!--link in1 to editarPublicacion--><g class="link" data-entity-1="ent0001" data-entity-2="ent0002" data-link-type="dependency" data-source-line="4" id="lnk5"><path d="M391,57.02 C391,72.1 391,88.31 391,112.91" fill="none" id="in1-to-editarPublicacion" style="stroke:#008000;stroke-width:1;"/><polygon fill="#008000" points="391,117.91,395,108.91,391,112.91,387,108.91,391,117.91" style="stroke:#008000;stroke-width:1;stroke-linejoin:miter;stroke-miterlimit:10;"/></g><!--link editarPublicacion to MI_PUBLICACION_ABIERTA--><g class="link" data-entity-1="ent0002" data-entity-2="ent0012" data-link-type="dependency" data-source-line="43" id="lnk13"><path d="M42.57,691.03 C19.96,709.56 6,721 6,721 C6,721 6,757 6,757 C6,757 61.2289,771.2693 116.9689,785.6693" fill="none" id="editarPublicacion-to-MI_PUBLICACION_ABIERTA" style="stroke:#008000;stroke-width:1;"/><polygon fill="#008000" points="121.81,786.92,114.0966,780.796,116.9689,785.6693,112.0956,788.5417,121.81,786.92" style="stroke:#008000;stroke-width:1;stroke-linejoin:miter;stroke-miterlimit:10;"/><path d="M11,726 L11,752 L167,752 L167,736 L157,726 L11,726" fill="#FEFFDD" style="stroke:#181818;stroke-width:0.5;"/><path d="M157,726 L157,736 L167,736 L157,726" fill="#FEFFDD" style="stroke:#181818;stroke-width:0.5;"/><text fill="#000000" font-family="sans-serif" font-size="13" lengthAdjust="spacing" textLength="135.8652" x="17" y="744.4951">Publicaci&#243;n actualizada</text></g><!--link editarPublicacion to MI_PUBLICACION_ABIERTA--><g class="link" data-entity-1="ent0002" data-entity-2="ent0012" data-link-type="dependency" data-source-line="48" id="lnk14"><path d="M229,691.03 C218.49,709.56 212,721 212,721 C212,721 212,757 212,757 C212,757 212.5821,767.4777 213.3821,781.8477" fill="none" id="editarPublicacion-to-MI_PUBLICACION_ABIERTA-1" style="stroke:#FF0000;stroke-width:1;"/><polygon fill="#FF0000" points="213.66,786.84,217.1535,777.6316,213.3821,781.8477,209.1659,778.0763,213.66,786.84" style="stroke:#FF0000;stroke-width:1;stroke-linejoin:miter;stroke-miterlimit:10;"/><path d="M217,726 L217,752 L343,752 L343,736 L333,726 L217,726" fill="#FEFFDD" style="stroke:#181818;stroke-width:0.5;"/><path d="M333,726 L333,736 L343,736 L333,726" fill="#FEFFDD" style="stroke:#181818;stroke-width:0.5;"/><text fill="#000000" font-family="sans-serif" font-size="13" lengthAdjust="spacing" textLength="105.5171" x="223" y="744.4951">Edici&#243;n cancelada</text></g><!--link editarPublicacion to MI_PUBLICACION_ABIERTA--><g class="link" data-entity-1="ent0002" data-entity-2="ent0012" data-link-type="dependency" data-source-line="53" id="lnk15"><path d="M359.29,691.3 C354.98,730.15 352,757 352,757 C352,757 317.4119,770.637 280.9419,785.007" fill="none" id="editarPublicacion-to-MI_PUBLICACION_ABIERTA-2" style="stroke:#008000;stroke-width:1;"/><polygon fill="#008000" points="276.29,786.84,286.1298,787.2622,280.9419,785.007,283.1971,779.8191,276.29,786.84" style="stroke:#008000;stroke-width:1;stroke-linejoin:miter;stroke-miterlimit:10;"/><path d="M361,726 L361,752 L489,752 L489,736 L479,726 L361,726" fill="#FEFFDD" style="stroke:#181818;stroke-width:0.5;"/><path d="M479,726 L479,736 L489,736 L479,726" fill="#FEFFDD" style="stroke:#181818;stroke-width:0.5;"/><text fill="#000000" font-family="sans-serif" font-size="13" lengthAdjust="spacing" textLength="107.6626" x="367" y="744.4951">editarPublicacion()</text></g><!--link editarPublicacion to MIS_PUBLICACIONES_ABIERTAS--><g class="link" data-entity-1="ent0002" data-entity-2="ent0016" data-link-type="dependency" data-source-line="58" id="lnk17"><path d="M533.29,691.3 C552.63,730.15 566,757 566,757 C566,757 589.6904,770.0578 615.7804,784.4278" fill="none" id="editarPublicacion-to-MIS_PUBLICACIONES_ABIERTAS" style="stroke:#008000;stroke-width:1;"/><polygon fill="#008000" points="620.16,786.84,614.2065,778.9943,615.7804,784.4278,610.3469,786.0017,620.16,786.84" style="stroke:#008000;stroke-width:1;stroke-linejoin:miter;stroke-miterlimit:10;"/><path d="M571,726 L571,752 L712,752 L712,736 L702,726 L571,726" fill="#FEFFDD" style="stroke:#181818;stroke-width:0.5;"/><path d="M702,726 L702,736 L712,736 L702,726" fill="#FEFFDD" style="stroke:#181818;stroke-width:0.5;"/><text fill="#000000" font-family="sans-serif" font-size="13" lengthAdjust="spacing" textLength="120.6563" x="577" y="744.4951">eliminarPublicacion()</text></g><!--link editarPublicacion to MIS_PUBLICACIONES_ABIERTAS--><g class="link" data-entity-1="ent0002" data-entity-2="ent0016" data-link-type="dependency" data-source-line="63" id="lnk18"><path d="M689.66,691.03 C709.03,709.56 721,721 721,721 C721,721 721,757 721,757 C721,757 708.3111,769.0327 693.1311,783.4027" fill="none" id="editarPublicacion-to-MIS_PUBLICACIONES_ABIERTAS-1" style="stroke:#008000;stroke-width:1;"/><polygon fill="#008000" points="689.5,786.84,698.7858,783.5577,693.1311,783.4027,693.2861,777.7479,689.5,786.84" style="stroke:#008000;stroke-width:1;stroke-linejoin:miter;stroke-miterlimit:10;"/><path d="M726,726 L726,752 L882,752 L882,736 L872,726 L726,726" fill="#FEFFDD" style="stroke:#181818;stroke-width:0.5;"/><path d="M872,726 L872,736 L882,736 L872,726" fill="#FEFFDD" style="stroke:#181818;stroke-width:0.5;"/><text fill="#000000" font-family="sans-serif" font-size="13" lengthAdjust="spacing" textLength="135.0972" x="732" y="744.4951">abrirMisPublicaciones()</text></g><?plantuml-src jLJTQjim5BxtKnpIctPGocvB2QIfAO5b3KktcrBAiQM6iygIaEn1DWPxbjtlQe_GDzcJzCYkNQjnM0ARVQKZdUzFF_w1j4M71IZIibnR2TQeTHWaYI-nb43wBQ27qNnsj_Xu_cusdKndL-_l9kUpzCFrP9I4-UERWvMJKjyUZq4AAj4jganHZZaPtG9jJDIm6zN3en5yInBWh-aRySyhvyQN3hKmVUYDLMc0uqKNM1hVeDoykOq4RWNIXd5O5hj_g0jdsNXgZ1EaKHXtTfADmHjkOOfdDr1f1DlYFFxMO9snX7MxrAB6R6GCqKQwOkdR12t9bxB0MenrqaiTn2YuDwwe53eo8Egi6pbvQ3SUH005pCiAbVIdDTgV7p_X-l5NMIdJZLDEKxmCFv6dZ1G955tjGlhSaQtnk-94VAvqe3WqDZX3TTJONeELhY0sqaRdGF56ULfLnE9bK1Kw-gekAtI25-POPFGSHgXFKUUIJGx46wKNvShxl__shWOKl4h_2taEaxuY-udFG1CppmZSHQcJuj-ToxmVqSwAFUd8QgVuUv9itjleDWq-2qcaUR4jd9TW1adQO7QWIBi3t_Z_E_XU3WPUgJtmbts2TDbIB5znA2fuH_yp2sQEt9ny3qVwFiyJ?></g></svg>