<?xml version="1.0" encoding="us-ascii" standalone="no"?><svg xmlns="http://www.w3.org/2000/svg" xmlns:xlink="http://www.w3.org/1999/xlink" contentStyleType="text/css" height="1294px" preserveAspectRatio="none" style="width:2200px;height:1294px;background:#FFFFFF;" version="1.1" viewBox="0 0 2200 1294" width="2200px" zoomAndPan="magnify"><defs/><g><text fill="#000000" font-family="sans-serif" font-size="14" font-weight="bold" lengthAdjust="spacing" textLength="312" x="945" y="29.5332">Diagrama de secuencia - Anular recompensa</text><rect fill="#FFFFFF" height="1049.1094" style="stroke:#181818;stroke-width:1.0;" width="10" x="335.5" y="153.5703"/><rect fill="#FFFFFF" height="323.8672" style="stroke:#181818;stroke-width:1.0;" width="10" x="595.5" y="362.8672"/><rect fill="#FFFFFF" height="55.7031" style="stroke:#181818;stroke-width:1.0;" width="10" x="941.5" y="393.2188"/><rect fill="#FFFFFF" height="177.1094" style="stroke:#181818;stroke-width:1.0;" width="10" x="1075.5" y="479.2734"/><rect fill="none" height="996.7578" style="stroke:#000000;stroke-width:1.5;" width="2183" x="10" y="198.9219"/><rect fill="none" height="780.4609" style="stroke:#000000;stroke-width:1.5;" width="2163" x="20" y="408.2188"/><rect fill="none" height="459.1094" style="stroke:#000000;stroke-width:1.5;" width="2143" x="30" y="615.6797"/><line style="stroke:#181818;stroke-width:0.5;stroke-dasharray:5.0,5.0;" x1="82" x2="82" y1="121.2188" y2="1212.6797"/><line style="stroke:#181818;stroke-width:0.5;stroke-dasharray:5.0,5.0;" x1="340.5" x2="340.5" y1="121.2188" y2="1212.6797"/><line style="stroke:#181818;stroke-width:0.5;stroke-dasharray:5.0,5.0;" x1="600" x2="600" y1="121.2188" y2="1212.6797"/><line style="stroke:#181818;stroke-width:0.5;stroke-dasharray:5.0,5.0;" x1="946.5" x2="946.5" y1="121.2188" y2="1212.6797"/><line style="stroke:#181818;stroke-width:0.5;stroke-dasharray:5.0,5.0;" x1="1080.5" x2="1080.5" y1="121.2188" y2="1212.6797"/><line style="stroke:#181818;stroke-width:0.5;stroke-dasharray:5.0,5.0;" x1="1377" x2="1377" y1="121.2188" y2="1212.6797"/><line style="stroke:#181818;stroke-width:0.5;stroke-dasharray:5.0,5.0;" x1="1539" x2="1539" y1="121.2188" y2="1212.6797"/><line style="stroke:#181818;stroke-width:0.5;stroke-dasharray:5.0,5.0;" x1="2113" x2="2113" y1="121.2188" y2="1212.6797"/><text fill="#000000" font-family="sans-serif" font-size="14" lengthAdjust="spacing" textLength="79" x="40" y="118.1426">Coordinador</text><ellipse cx="82.5" cy="52.1094" fill="#E2E2F0" rx="8" ry="8" style="stroke:#181818;stroke-width:0.5;"/><path d="M82.5,60.1094 L82.5,87.1094 M69.5,68.1094 L95.5,68.1094 M82.5,87.1094 L69.5,102.1094 M82.5,87.1094 L95.5,102.1094 " fill="none" style="stroke:#181818;stroke-width:0.5;"/><text fill="#000000" font-family="sans-serif" font-size="14" lengthAdjust="spacing" textLength="79" x="40" y="1226.2129">Coordinador</text><ellipse cx="82.5" cy="1237.7891" fill="#E2E2F0" rx="8" ry="8" style="stroke:#181818;stroke-width:0.5;"/><path d="M82.5,1245.7891 L82.5,1272.7891 M69.5,1253.7891 L95.5,1253.7891 M82.5,1272.7891 L69.5,1287.7891 M82.5,1272.7891 L95.5,1287.7891 " fill="none" style="stroke:#181818;stroke-width:0.5;"/><rect fill="#E2E2F0" height="49.2188" rx="2.5" ry="2.5" style="stroke:#181818;stroke-width:0.5;" width="174" x="253.5" y="71"/><text fill="#000000" font-family="sans-serif" font-size="14" lengthAdjust="spacing" textLength="160" x="260.5" y="92.5332">RecompensaDetallePage</text><text fill="#000000" font-family="sans-serif" font-size="14" lengthAdjust="spacing" textLength="47" x="317" y="110.1426">(React)</text><rect fill="#E2E2F0" height="49.2188" rx="2.5" ry="2.5" style="stroke:#181818;stroke-width:0.5;" width="174" x="253.5" y="1211.6797"/><text fill="#000000" font-family="sans-serif" font-size="14" lengthAdjust="spacing" textLength="160" x="260.5" y="1233.2129">RecompensaDetallePage</text><text fill="#000000" font-family="sans-serif" font-size="14" lengthAdjust="spacing" textLength="47" x="317" y="1250.8223">(React)</text><rect fill="#E2E2F0" height="49.2188" rx="2.5" ry="2.5" style="stroke:#181818;stroke-width:0.5;" width="159" x="521" y="71"/><text fill="#000000" font-family="sans-serif" font-size="14" lengthAdjust="spacing" textLength="145" x="528" y="92.5332">RecompensaController</text><text fill="#000000" font-family="sans-serif" font-size="14" lengthAdjust="spacing" textLength="84" x="558.5" y="110.1426">(Spring Boot)</text><rect fill="#E2E2F0" height="49.2188" rx="2.5" ry="2.5" style="stroke:#181818;stroke-width:0.5;" width="159" x="521" y="1211.6797"/><text fill="#000000" font-family="sans-serif" font-size="14" lengthAdjust="spacing" textLength="145" x="528" y="1233.2129">RecompensaController</text><text fill="#000000" font-family="sans-serif" font-size="14" lengthAdjust="spacing" textLength="84" x="558.5" y="1250.8223">(Spring Boot)</text><rect fill="#E2E2F0" height="31.6094" rx="2.5" ry="2.5" style="stroke:#181818;stroke-width:0.5;" width="104" x="894.5" y="88.6094"/><text fill="#000000" font-family="sans-serif" font-size="14" lengthAdjust="spacing" textLength="90" x="901.5" y="110.1426">SesionService</text><rect fill="#E2E2F0" height="31.6094" rx="2.5" ry="2.5" style="stroke:#181818;stroke-width:0.5;" width="104" x="894.5" y="1211.6797"/><text fill="#000000" font-family="sans-serif" font-size="14" lengthAdjust="spacing" textLength="90" x="901.5" y="1233.2129">SesionService</text><rect fill="#E2E2F0" height="31.6094" rx="2.5" ry="2.5" style="stroke:#181818;stroke-width:0.5;" width="144" x="1008.5" y="88.6094"/><text fill="#000000" font-family="sans-serif" font-size="14" lengthAdjust="spacing" textLength="130" x="1015.5" y="110.1426">RecompensaService</text><rect fill="#E2E2F0" height="31.6094" rx="2.5" ry="2.5" style="stroke:#181818;stroke-width:0.5;" width="144" x="1008.5" y="1211.6797"/><text fill="#000000" font-family="sans-serif" font-size="14" lengthAdjust="spacing" textLength="130" x="1015.5" y="1233.2129">RecompensaService</text><rect fill="#E2E2F0" height="31.6094" rx="2.5" ry="2.5" style="stroke:#181818;stroke-width:0.5;" width="165" x="1295" y="88.6094"/><text fill="#000000" font-family="sans-serif" font-size="14" lengthAdjust="spacing" textLength="151" x="1302" y="110.1426">RecompensaRepository</text><rect fill="#E2E2F0" height="31.6094" rx="2.5" ry="2.5" style="stroke:#181818;stroke-width:0.5;" width="165" x="1295" y="1211.6797"/><text fill="#000000" font-family="sans-serif" font-size="14" lengthAdjust="spacing" textLength="151" x="1302" y="1233.2129">RecompensaRepository</text><rect fill="#E2E2F0" height="31.6094" rx="2.5" ry="2.5" style="stroke:#181818;stroke-width:0.5;" width="138" x="1470" y="88.6094"/><text fill="#000000" font-family="sans-serif" font-size="14" lengthAdjust="spacing" textLength="124" x="1477" y="110.1426">ProyectoRepository</text><rect fill="#E2E2F0" height="31.6094" rx="2.5" ry="2.5" style="stroke:#181818;stroke-width:0.5;" width="138" x="1470" y="1211.6797"/><text fill="#000000" font-family="sans-serif" font-size="14" lengthAdjust="spacing" textLength="124" x="1477" y="1233.2129">ProyectoRepository</text><text fill="#000000" font-family="sans-serif" font-size="14" lengthAdjust="spacing" textLength="93" x="2064" y="118.1426">Base de Datos</text><path d="M2095.5,67.6094 C2095.5,57.6094 2113.5,57.6094 2113.5,57.6094 C2113.5,57.6094 2131.5,57.6094 2131.5,67.6094 L2131.5,93.6094 C2131.5,103.6094 2113.5,103.6094 2113.5,103.6094 C2113.5,103.6094 2095.5,103.6094 2095.5,93.6094 L2095.5,67.6094 " fill="#E2E2F0" style="stroke:#181818;stroke-width:1.5;"/><path d="M2095.5,67.6094 C2095.5,77.6094 2113.5,77.6094 2113.5,77.6094 C2113.5,77.6094 2131.5,77.6094 2131.5,67.6094 " fill="none" style="stroke:#181818;stroke-width:1.5;"/><text fill="#000000" font-family="sans-serif" font-size="14" lengthAdjust="spacing" textLength="93" x="2064" y="1226.2129">Base de Datos</text><path d="M2095.5,1239.2891 C2095.5,1229.2891 2113.5,1229.2891 2113.5,1229.2891 C2113.5,1229.2891 2131.5,1229.2891 2131.5,1239.2891 L2131.5,1265.2891 C2131.5,1275.2891 2113.5,1275.2891 2113.5,1275.2891 C2113.5,1275.2891 2095.5,1275.2891 2095.5,1265.2891 L2095.5,1239.2891 " fill="#E2E2F0" style="stroke:#181818;stroke-width:1.5;"/><path d="M2095.5,1239.2891 C2095.5,1249.2891 2113.5,1249.2891 2113.5,1249.2891 C2113.5,1249.2891 2131.5,1249.2891 2131.5,1239.2891 " fill="none" style="stroke:#181818;stroke-width:1.5;"/><rect fill="#FFFFFF" height="1049.1094" style="stroke:#181818;stroke-width:1.0;" width="10" x="335.5" y="153.5703"/><rect fill="#FFFFFF" height="323.8672" style="stroke:#181818;stroke-width:1.0;" width="10" x="595.5" y="362.8672"/><rect fill="#FFFFFF" height="55.7031" style="stroke:#181818;stroke-width:1.0;" width="10" x="941.5" y="393.2188"/><rect fill="#FFFFFF" height="177.1094" style="stroke:#181818;stroke-width:1.0;" width="10" x="1075.5" y="479.2734"/><polygon fill="#181818" points="323.5,149.5703,333.5,153.5703,323.5,157.5703,327.5,153.5703" style="stroke:#181818;stroke-width:1.0;"/><line style="stroke:#181818;stroke-width:1.0;" x1="82.5" x2="329.5" y1="153.5703" y2="153.5703"/><text fill="#000000" font-family="sans-serif" font-size="13" lengthAdjust="spacing" textLength="157" x="89.5" y="148.7139">Solicita anular recompensa</text><polygon fill="#181818" points="93.5,179.9219,83.5,183.9219,93.5,187.9219,89.5,183.9219" style="stroke:#181818;stroke-width:1.0;"/><line style="stroke:#181818;stroke-width:1.0;stroke-dasharray:2.0,2.0;" x1="87.5" x2="334.5" y1="183.9219" y2="183.9219"/><text fill="#000000" font-family="sans-serif" font-size="13" lengthAdjust="spacing" textLength="226" x="99.5" y="179.0654">Presenta confirmacion y solicita motivo</text><path d="M10,198.9219 L71,198.9219 L71,207.2734 L61,217.2734 L10,217.2734 L10,198.9219 " fill="#EEEEEE" style="stroke:#000000;stroke-width:1.5;"/><rect fill="none" height="996.7578" style="stroke:#000000;stroke-width:1.5;" width="2183" x="10" y="198.9219"/><text fill="#000000" font-family="sans-serif" font-size="13" font-weight="bold" lengthAdjust="spacing" textLength="16" x="25" y="213.417">alt</text><text fill="#000000" font-family="sans-serif" font-size="11" font-weight="bold" lengthAdjust="spacing" textLength="121" x="86" y="212.3408">[Coordinador cancela]</text><polygon fill="#181818" points="323.5,235.625,333.5,239.625,323.5,243.625,327.5,239.625" style="stroke:#181818;stroke-width:1.0;"/><line style="stroke:#181818;stroke-width:1.0;" x1="82.5" x2="329.5" y1="239.625" y2="239.625"/><text fill="#000000" font-family="sans-serif" font-size="13" lengthAdjust="spacing" textLength="106" x="89.5" y="234.7686">Cancela anulacion</text><polygon fill="#181818" points="93.5,265.9766,83.5,269.9766,93.5,273.9766,89.5,269.9766" style="stroke:#181818;stroke-width:1.0;"/><line style="stroke:#181818;stroke-width:1.0;stroke-dasharray:2.0,2.0;" x1="87.5" x2="334.5" y1="269.9766" y2="269.9766"/><text fill="#000000" font-family="sans-serif" font-size="13" lengthAdjust="spacing" textLength="212" x="99.5" y="265.1201">Conserva RECOMPENSA_ABIERTA</text><line style="stroke:#000000;stroke-width:1.0;stroke-dasharray:2.0,2.0;" x1="10" x2="2193" y1="278.9766" y2="278.9766"/><text fill="#000000" font-family="sans-serif" font-size="11" font-weight="bold" lengthAdjust="spacing" textLength="129" x="15" y="290.3955">[Coordinador confirma]</text><polygon fill="#181818" points="323.5,312.1641,333.5,316.1641,323.5,320.1641,327.5,316.1641" style="stroke:#181818;stroke-width:1.0;"/><line style="stroke:#181818;stroke-width:1.0;" x1="82.5" x2="329.5" y1="316.1641" y2="316.1641"/><text fill="#000000" font-family="sans-serif" font-size="13" lengthAdjust="spacing" textLength="176" x="89.5" y="311.3076">Confirma anulacion con motivo</text><polygon fill="#181818" points="583.5,358.8672,593.5,362.8672,583.5,366.8672,587.5,362.8672" style="stroke:#181818;stroke-width:1.0;"/><line style="stroke:#181818;stroke-width:1.0;" x1="345.5" x2="589.5" y1="362.8672" y2="362.8672"/><text fill="#000000" font-family="sans-serif" font-size="13" lengthAdjust="spacing" textLength="231" x="352.5" y="341.6592">PATCH /api/recompensas/{id}/anulacion</text><text fill="#000000" font-family="sans-serif" font-size="13" lengthAdjust="spacing" textLength="150" x="352.5" y="358.0107">Motivo y cookie de sesion</text><polygon fill="#181818" points="929.5,389.2188,939.5,393.2188,929.5,397.2188,933.5,393.2188" style="stroke:#181818;stroke-width:1.0;"/><line style="stroke:#181818;stroke-width:1.0;" x1="605.5" x2="935.5" y1="393.2188" y2="393.2188"/><text fill="#000000" font-family="sans-serif" font-size="13" lengthAdjust="spacing" textLength="189" x="612.5" y="388.3623">exigirCoordinador(authentication)</text><path d="M20,408.2188 L81,408.2188 L81,416.5703 L71,426.5703 L20,426.5703 L20,408.2188 " fill="#EEEEEE" style="stroke:#000000;stroke-width:1.5;"/><rect fill="none" height="780.4609" style="stroke:#000000;stroke-width:1.5;" width="2163" x="20" y="408.2188"/><text fill="#000000" font-family="sans-serif" font-size="13" font-weight="bold" lengthAdjust="spacing" textLength="16" x="35" y="422.7139">alt</text><text fill="#000000" font-family="sans-serif" font-size="11" font-weight="bold" lengthAdjust="spacing" textLength="169" x="96" y="421.6377">[Sesion de Coordinador activa]</text><polygon fill="#181818" points="616.5,444.9219,606.5,448.9219,616.5,452.9219,612.5,448.9219" style="stroke:#181818;stroke-width:1.0;"/><line style="stroke:#181818;stroke-width:1.0;stroke-dasharray:2.0,2.0;" x1="610.5" x2="945.5" y1="448.9219" y2="448.9219"/><text fill="#000000" font-family="sans-serif" font-size="13" lengthAdjust="spacing" textLength="140" x="622.5" y="444.0654">Coordinador autenticado</text><polygon fill="#181818" points="1063.5,475.2734,1073.5,479.2734,1063.5,483.2734,1067.5,479.2734" style="stroke:#181818;stroke-width:1.0;"/><line style="stroke:#181818;stroke-width:1.0;" x1="605.5" x2="1069.5" y1="479.2734" y2="479.2734"/><text fill="#000000" font-family="sans-serif" font-size="13" lengthAdjust="spacing" textLength="173" x="612.5" y="474.417">anular(id, motivo, coordinador)</text><polygon fill="#181818" points="1365.5,505.625,1375.5,509.625,1365.5,513.625,1369.5,509.625" style="stroke:#181818;stroke-width:1.0;"/><line style="stroke:#181818;stroke-width:1.0;" x1="1085.5" x2="1371.5" y1="509.625" y2="509.625"/><text fill="#000000" font-family="sans-serif" font-size="13" lengthAdjust="spacing" textLength="91" x="1092.5" y="504.7686">obtenerPorId(id)</text><polygon fill="#181818" points="2101.5,535.9766,2111.5,539.9766,2101.5,543.9766,2105.5,539.9766" style="stroke:#181818;stroke-width:1.0;"/><line style="stroke:#181818;stroke-width:1.0;" x1="1377.5" x2="2107.5" y1="539.9766" y2="539.9766"/><text fill="#000000" font-family="sans-serif" font-size="13" lengthAdjust="spacing" textLength="273" x="1384.5" y="535.1201">SELECT * FROM recompensas WHERE id = ?</text><polygon fill="#181818" points="1388.5,566.3281,1378.5,570.3281,1388.5,574.3281,1384.5,570.3281" style="stroke:#181818;stroke-width:1.0;"/><line style="stroke:#181818;stroke-width:1.0;stroke-dasharray:2.0,2.0;" x1="1382.5" x2="2112.5" y1="570.3281" y2="570.3281"/><text fill="#000000" font-family="sans-serif" font-size="13" lengthAdjust="spacing" textLength="150" x="1394.5" y="565.4717">Resultado de persistencia</text><polygon fill="#181818" points="1096.5,596.6797,1086.5,600.6797,1096.5,604.6797,1092.5,600.6797" style="stroke:#181818;stroke-width:1.0;"/><line style="stroke:#181818;stroke-width:1.0;stroke-dasharray:2.0,2.0;" x1="1090.5" x2="1376.5" y1="600.6797" y2="600.6797"/><text fill="#000000" font-family="sans-serif" font-size="13" lengthAdjust="spacing" textLength="117" x="1102.5" y="595.8232">Recompensa / vacio</text><path d="M30,615.6797 L91,615.6797 L91,624.0313 L81,634.0313 L30,634.0313 L30,615.6797 " fill="#EEEEEE" style="stroke:#000000;stroke-width:1.5;"/><rect fill="none" height="459.1094" style="stroke:#000000;stroke-width:1.5;" width="2143" x="30" y="615.6797"/><text fill="#000000" font-family="sans-serif" font-size="13" font-weight="bold" lengthAdjust="spacing" textLength="16" x="45" y="630.1748">alt</text><text fill="#000000" font-family="sans-serif" font-size="11" font-weight="bold" lengthAdjust="spacing" textLength="145" x="106" y="629.0986">[Recompensa inexistente]</text><polygon fill="#181818" points="616.5,652.3828,606.5,656.3828,616.5,660.3828,612.5,656.3828" style="stroke:#181818;stroke-width:1.0;"/><line style="stroke:#181818;stroke-width:1.0;stroke-dasharray:2.0,2.0;" x1="610.5" x2="1079.5" y1="656.3828" y2="656.3828"/><text fill="#000000" font-family="sans-serif" font-size="13" lengthAdjust="spacing" textLength="188" x="622.5" y="651.5264">RecursoNoEncontradoException</text><polygon fill="#181818" points="356.5,682.7344,346.5,686.7344,356.5,690.7344,352.5,686.7344" style="stroke:#181818;stroke-width:1.0;"/><line style="stroke:#181818;stroke-width:1.0;stroke-dasharray:2.0,2.0;" x1="350.5" x2="599.5" y1="686.7344" y2="686.7344"/><text fill="#000000" font-family="sans-serif" font-size="13" lengthAdjust="spacing" textLength="85" x="362.5" y="681.8779">404 Not Found</text><polygon fill="#181818" points="93.5,713.0859,83.5,717.0859,93.5,721.0859,89.5,717.0859" style="stroke:#181818;stroke-width:1.0;"/><line style="stroke:#181818;stroke-width:1.0;stroke-dasharray:2.0,2.0;" x1="87.5" x2="334.5" y1="717.0859" y2="717.0859"/><text fill="#000000" font-family="sans-serif" font-size="13" lengthAdjust="spacing" textLength="213" x="99.5" y="712.2295">Presenta recompensa no encontrada</text><line style="stroke:#000000;stroke-width:1.0;stroke-dasharray:2.0,2.0;" x1="30" x2="2173" y1="726.0859" y2="726.0859"/><text fill="#000000" font-family="sans-serif" font-size="11" font-weight="bold" lengthAdjust="spacing" textLength="135" x="35" y="737.5049">[Recompensa existente]</text><polygon fill="#181818" points="1527,759.2734,1537,763.2734,1527,767.2734,1531,763.2734" style="stroke:#181818;stroke-width:1.0;"/><line style="stroke:#181818;stroke-width:1.0;" x1="1080.5" x2="1533" y1="763.2734" y2="763.2734"/><text fill="#000000" font-family="sans-serif" font-size="13" lengthAdjust="spacing" textLength="255" x="1087.5" y="758.417">obtenerCompletado(recompensa.proyectoId)</text><polygon fill="#181818" points="2101.5,789.625,2111.5,793.625,2101.5,797.625,2105.5,793.625" style="stroke:#181818;stroke-width:1.0;"/><line style="stroke:#181818;stroke-width:1.0;" x1="1539" x2="2107.5" y1="793.625" y2="793.625"/><text fill="#000000" font-family="sans-serif" font-size="13" lengthAdjust="spacing" textLength="436" x="1546" y="788.7686">SELECT * FROM proyectos WHERE id = ? AND estado = 'COMPLETADO'</text><polygon fill="#181818" points="1550,819.9766,1540,823.9766,1550,827.9766,1546,823.9766" style="stroke:#181818;stroke-width:1.0;"/><line style="stroke:#181818;stroke-width:1.0;stroke-dasharray:2.0,2.0;" x1="1544" x2="2112.5" y1="823.9766" y2="823.9766"/><text fill="#000000" font-family="sans-serif" font-size="13" lengthAdjust="spacing" textLength="150" x="1556" y="819.1201">Resultado de persistencia</text><polygon fill="#181818" points="1091.5,850.3281,1081.5,854.3281,1091.5,858.3281,1087.5,854.3281" style="stroke:#181818;stroke-width:1.0;"/><line style="stroke:#181818;stroke-width:1.0;stroke-dasharray:2.0,2.0;" x1="1085.5" x2="1538" y1="854.3281" y2="854.3281"/><text fill="#000000" font-family="sans-serif" font-size="13" lengthAdjust="spacing" textLength="123" x="1097.5" y="849.4717">Proyecto completado</text><polygon fill="#181818" points="1365.5,880.6797,1375.5,884.6797,1365.5,888.6797,1369.5,884.6797" style="stroke:#181818;stroke-width:1.0;"/><line style="stroke:#181818;stroke-width:1.0;" x1="1080.5" x2="1371.5" y1="884.6797" y2="884.6797"/><text fill="#000000" font-family="sans-serif" font-size="13" lengthAdjust="spacing" textLength="273" x="1087.5" y="879.8232">anular(recompensa, fecha, coordinador, motivo)</text><polygon fill="#181818" points="2101.5,911.0313,2111.5,915.0313,2101.5,919.0313,2105.5,915.0313" style="stroke:#181818;stroke-width:1.0;"/><line style="stroke:#181818;stroke-width:1.0;" x1="1377.5" x2="2107.5" y1="915.0313" y2="915.0313"/><text fill="#000000" font-family="sans-serif" font-size="13" lengthAdjust="spacing" textLength="712" x="1384.5" y="910.1748">UPDATE recompensas SET anulada = true, fecha_anulacion = ?, anulada_por_id = ?, motivo_anulacion = ? WHERE id = ?</text><polygon fill="#181818" points="1388.5,941.3828,1378.5,945.3828,1388.5,949.3828,1384.5,945.3828" style="stroke:#181818;stroke-width:1.0;"/><line style="stroke:#181818;stroke-width:1.0;stroke-dasharray:2.0,2.0;" x1="1382.5" x2="2112.5" y1="945.3828" y2="945.3828"/><text fill="#000000" font-family="sans-serif" font-size="13" lengthAdjust="spacing" textLength="150" x="1394.5" y="940.5264">Resultado de persistencia</text><polygon fill="#181818" points="1091.5,971.7344,1081.5,975.7344,1091.5,979.7344,1087.5,975.7344" style="stroke:#181818;stroke-width:1.0;"/><line style="stroke:#181818;stroke-width:1.0;stroke-dasharray:2.0,2.0;" x1="1085.5" x2="1376.5" y1="975.7344" y2="975.7344"/><text fill="#000000" font-family="sans-serif" font-size="13" lengthAdjust="spacing" textLength="125" x="1097.5" y="970.8779">Recompensa anulada</text><polygon fill="#181818" points="611.5,1002.0859,601.5,1006.0859,611.5,1010.0859,607.5,1006.0859" style="stroke:#181818;stroke-width:1.0;"/><line style="stroke:#181818;stroke-width:1.0;stroke-dasharray:2.0,2.0;" x1="605.5" x2="1079.5" y1="1006.0859" y2="1006.0859"/><text fill="#000000" font-family="sans-serif" font-size="13" lengthAdjust="spacing" textLength="116" x="617.5" y="1001.2295">anulacion registrada</text><polygon fill="#181818" points="356.5,1032.4375,346.5,1036.4375,356.5,1040.4375,352.5,1036.4375" style="stroke:#181818;stroke-width:1.0;"/><line style="stroke:#181818;stroke-width:1.0;stroke-dasharray:2.0,2.0;" x1="350.5" x2="599.5" y1="1036.4375" y2="1036.4375"/><text fill="#000000" font-family="sans-serif" font-size="13" lengthAdjust="spacing" textLength="90" x="362.5" y="1031.5811">204 No Content</text><polygon fill="#181818" points="93.5,1062.7891,83.5,1066.7891,93.5,1070.7891,89.5,1066.7891" style="stroke:#181818;stroke-width:1.0;"/><line style="stroke:#181818;stroke-width:1.0;stroke-dasharray:2.0,2.0;" x1="87.5" x2="334.5" y1="1066.7891" y2="1066.7891"/><text fill="#000000" font-family="sans-serif" font-size="13" lengthAdjust="spacing" textLength="229" x="99.5" y="1061.9326">Presenta RECOMPENSAS_ABIERTAS</text><line style="stroke:#000000;stroke-width:1.0;stroke-dasharray:2.0,2.0;" x1="20" x2="2183" y1="1082.7891" y2="1082.7891"/><text fill="#000000" font-family="sans-serif" font-size="11" font-weight="bold" lengthAdjust="spacing" textLength="167" x="25" y="1094.208">[Sesion ausente o rol invalido]</text><polygon fill="#181818" points="611.5,1115.9766,601.5,1119.9766,611.5,1123.9766,607.5,1119.9766" style="stroke:#181818;stroke-width:1.0;"/><line style="stroke:#181818;stroke-width:1.0;stroke-dasharray:2.0,2.0;" x1="605.5" x2="945.5" y1="1119.9766" y2="1119.9766"/><text fill="#000000" font-family="sans-serif" font-size="13" lengthAdjust="spacing" textLength="322" x="617.5" y="1115.1201">SesionNoValidaException / AccesoDenegadoException</text><polygon fill="#181818" points="356.5,1146.3281,346.5,1150.3281,356.5,1154.3281,352.5,1150.3281" style="stroke:#181818;stroke-width:1.0;"/><line style="stroke:#181818;stroke-width:1.0;stroke-dasharray:2.0,2.0;" x1="350.5" x2="599.5" y1="1150.3281" y2="1150.3281"/><text fill="#000000" font-family="sans-serif" font-size="13" lengthAdjust="spacing" textLength="195" x="362.5" y="1145.4717">401 Unauthorized / 403 Forbidden</text><polygon fill="#181818" points="93.5,1176.6797,83.5,1180.6797,93.5,1184.6797,89.5,1180.6797" style="stroke:#181818;stroke-width:1.0;"/><line style="stroke:#181818;stroke-width:1.0;stroke-dasharray:2.0,2.0;" x1="87.5" x2="334.5" y1="1180.6797" y2="1180.6797"/><text fill="#000000" font-family="sans-serif" font-size="13" lengthAdjust="spacing" textLength="159" x="99.5" y="1175.8232">Presenta error de anulacion</text><!--SRC=[hLPHRziu37xtho3wilRGNdPtVGgm7fpOnGgiQH1dsyk0GfNPJ3XNCYIvM3Vilu-oBLjAawKtp42Rs2O_aX_vKR72LWYPO1lD7XYK20PvWv8B1cUGogPY6ZHozL2ZD2n96BTAmrmfNGh9IgMJccahkAYPj72q6ampjAogSCas-4aUhv0SJuw06RZKIbgKvJx7ERtMYbmr-HMr5d83CwLwxxGMiME1HYXPe7uK75kJxia- -DYo_RxFT8MrCeBgVMgjtMrikjJg2OcGBSFmSL8oo-wOGJYQkV_4SCQiCgrXDakIW4euknZOcKAXAWfa6R1dNI0knIEpE7Bfly0POGIGKqe63Kg2uKhU2_t0E943Js0y_8CYC9MmoeQEm9daMB44wDgRuxmpwb9qmAtv_cIejuOuPx3AvpVNotnHfBVfx2fVhTC4Aw8dog1F-40AlTMOWtFqLSNfNBZn8KhIzVmjJ5Wj9YEfPl9DbDyd0yedUTr245LSgVy4Tk8mliYX1suYtGFwT16wwPi2VX4ReOEqZrbZFrCd16UMB4vYb290favqjovaM7XdtHgvgpSwytL5fetjOfLgi2znLxWezrOFqtxaZaLvsXDvwaZmu2U3Nu3NAMbChRrte4u5Kr1tb0_gfT9N9U6E4EwrCyjcDFBvkto-XZ_WSdLp7GoyWOzlyrKEeeGtyE_WcitQshi0ApHDPIazHrgDsWXZspss5IaiSvGwJE3HjNsiZ9eGl1QI-ka0xLXZLAVl0VaqsgY5oYLtYumIohzmh6r8zxDcnEGD7Oa6_VprEIoKXKlLaE3tGFbXzDSBzi98CqW5wDCUUMk56N1nW8cBQFyDdP-JUuMkGSTZn3_htlGgc0XtXH2xfyDxnhC1wI83DEqSl85NRicyozTfTlCgWkyd9qxqy0GzpooS9ly6-53gFeQwWBtAHZfEuHxvPnQ9pIimvYVavVqoIzTv99SYNtVe9ICQh6wmXxuTjoInTUgDRckbRpi6VRpOShS0Vq641uNOP_HpbOsvQTnG3BtjyR_LzNUhBdUQkD7-ZV8QJxh27tN5AArUoQt4-dNE6kU8e81-1T7YUMIL22PfU-btzmlrmPcnOTVGGaivHwCo4jzcvnOwS1niBP-_uBrq9vZIuYkM17_- -X_QHVfEb2Nk10t9UW5Hg3MTMpGtyOy9Hv7x2u0zs0y0]--></g></svg>