<svg xmlns="http://www.w3.org/2000/svg" xmlns:xlink="http://www.w3.org/1999/xlink" contentStyleType="text/css" data-diagram-type="STATE" height="788px" preserveAspectRatio="none" style="width:760px;height:788px;background:#FFFFFF;" version="1.1" viewBox="0 0 760 788" width="760px" zoomAndPan="magnify"><?plantuml 1.2026.6?><defs/><g><g class="entity" data-qualified-name="in2" data-source-line="5" id="ent0001"><rect fill="#F1F1F1" height="50" rx="12.5" ry="12.5" style="stroke:#181818;stroke-width:0.5;" width="216.8477" x="230.5" y="7"/><line style="stroke:#181818;stroke-width:0.5;" x1="230.5" x2="447.3477" y1="34.6094" y2="34.6094"/><text fill="#000000" font-family="sans-serif" font-size="14" lengthAdjust="spacing" textLength="196.8477" x="240.5" y="26.5332">PANEL_PRINCIPAL_ABIERTO</text></g><g class="entity" data-qualified-name="abrirOpcionesPerfil" data-source-line="13" id="ent0002"><path d="M159,153 L519,153 A12.5,12.5 0 0 1 531.5,165.5 L531.5,180.6094 L146.5,180.6094 L146.5,165.5 A12.5,12.5 0 0 1 159,153" fill="#F1F1F1"/><rect fill="none" height="474.6094" rx="12.5" ry="12.5" style="stroke:#181818;stroke-width:0.5;" width="385" x="146.5" y="153"/><line style="stroke:#181818;stroke-width:0.5;" x1="146.5" x2="531.5" y1="180.6094" y2="180.6094"/><text fill="#000000" font-family="sans-serif" font-size="14" lengthAdjust="spacing" textLength="128.3721" x="274.814" y="172.5332">abrirOpcionesPerfil()</text><g class="entity" data-qualified-name="abrirOpcionesPerfil.MostrandoLista" data-source-line="15" id="ent0003"><rect fill="#F1F1F1" height="50" rx="12.5" ry="12.5" style="stroke:#181818;stroke-width:0.5;" width="50" x="158.5" y="283.6094"/><line style="stroke:#181818;stroke-width:0.5;" x1="158.5" x2="208.5" y1="311.2188" y2="311.2188"/><text fill="#000000" font-family="sans-serif" font-size="14" lengthAdjust="spacing" textLength="3.8896" x="181.5552" y="303.1426">&#160;</text></g><g class="entity" data-qualified-name="abrirOpcionesPerfil.FiltrandoLista" data-source-line="16" id="ent0004"><rect fill="#F1F1F1" height="50" rx="12.5" ry="12.5" style="stroke:#181818;stroke-width:0.5;" width="50" x="158.5" y="470.6094"/><line style="stroke:#181818;stroke-width:0.5;" x1="158.5" x2="208.5" y1="498.2188" y2="498.2188"/><text fill="#000000" font-family="sans-serif" font-size="14" lengthAdjust="spacing" textLength="3.8896" x="181.5552" y="490.1426">&#160;</text></g><g class="start_entity" data-qualified-name="abrirOpcionesPerfil..start.abrirOpcionesPerfil" data-source-line="18" id="ent0006"><ellipse cx="183.5" cy="201.6094" fill="#222222" rx="10" ry="10" style="stroke:#222222;stroke-width:1;"/></g><g class="end_entity" data-qualified-name="abrirOpcionesPerfil..end.abrirOpcionesPerfil" data-source-line="32" id="ent0009"><ellipse cx="183.5" cy="603.6094" fill="none" rx="11" ry="11" style="stroke:#222222;stroke-width:1;"/><ellipse cx="183.5" cy="603.6094" fill="#222222" rx="6" ry="6" style="stroke:#222222;stroke-width:1;"/></g><!--link *start*abrirOpcionesPerfil to MostrandoLista--><g class="link" data-entity-1="ent0006" data-entity-2="ent0003" data-link-type="dependency" data-source-line="18" id="lnk7"><path d="M183.5,211.9294 C183.5,227.7894 183.5,255.5194 183.5,278.2494" fill="none" id="*start*abrirOpcionesPerfil-to-MostrandoLista" style="stroke:#008000;stroke-width:1;"/><polygon fill="#008000" points="183.5,283.2494,187.5,274.2494,183.5,278.2494,179.5,274.2494,183.5,283.2494" style="stroke:#008000;stroke-width:1;stroke-linejoin:miter;stroke-miterlimit:10;"/><path d="M188.5,234.6094 L188.5,260.6094 L446.5,260.6094 L446.5,244.6094 L436.5,234.6094 L188.5,234.6094" fill="#FEFFDD" style="stroke:#181818;stroke-width:0.5;"/><path d="M436.5,234.6094 L436.5,244.6094 L446.5,244.6094 L436.5,234.6094" fill="#FEFFDD" style="stroke:#181818;stroke-width:0.5;"/><text fill="#000000" font-family="sans-serif" font-size="13" font-weight="700" lengthAdjust="spacing" textLength="77.2954" x="194.5" y="253.1045">Investigador</text><text fill="#000000" font-family="sans-serif" font-size="13" lengthAdjust="spacing" textLength="156.7935" x="275.4072" y="253.1045">solicita abrir opciones perfil</text></g><!--link MostrandoLista to FiltrandoLista--><g class="link" data-entity-1="ent0003" data-entity-2="ent0004" data-link-type="dependency" data-source-line="23" id="lnk8"><path d="M183.5,333.7994 C183.5,369.2494 183.5,429.9594 183.5,465.4194" fill="none" id="MostrandoLista-to-FiltrandoLista" style="stroke:#008000;stroke-width:1;"/><polygon fill="#008000" points="183.5,470.4194,187.5,461.4194,183.5,465.4194,179.5,461.4194,183.5,470.4194" style="stroke:#008000;stroke-width:1;stroke-linejoin:miter;stroke-miterlimit:10;"/><path d="M188.5,356.6094 L188.5,447.6094 L507.5,447.6094 L507.5,366.6094 L497.5,356.6094 L188.5,356.6094" fill="#FEFFDD" style="stroke:#181818;stroke-width:0.5;"/><path d="M497.5,356.6094 L497.5,366.6094 L507.5,366.6094 L497.5,356.6094" fill="#FEFFDD" style="stroke:#181818;stroke-width:0.5;"/><text fill="#000000" font-family="sans-serif" font-size="13" font-weight="700" lengthAdjust="spacing" textLength="49.8608" x="194.5" y="375.1045">Sistema</text><text fill="#000000" font-family="sans-serif" font-size="13" lengthAdjust="spacing" textLength="244.9878" x="247.9727" y="375.1045">presenta las opciones disponibles en perfil</text><text fill="#000000" font-family="sans-serif" font-size="13" lengthAdjust="spacing" textLength="211.2183" x="194.5" y="391.4561">&#8226; ID, nombre, campo de investigador</text><text fill="#000000" font-family="sans-serif" font-size="13" lengthAdjust="spacing" textLength="169.2793" x="194.5" y="407.8076">&#8226; Permite solicitar editar perfil</text><text fill="#000000" font-family="sans-serif" font-size="13" lengthAdjust="spacing" textLength="182.2729" x="194.5" y="424.1592">&#8226; Permite solicitar eliminar perfil</text><text fill="#000000" font-family="sans-serif" font-size="13" lengthAdjust="spacing" textLength="240.8237" x="194.5" y="440.5107">&#8226; Permite solicitar volver al panel principal</text></g><!--link FiltrandoLista to *end*abrirOpcionesPerfil--><g class="link" data-entity-1="ent0004" data-entity-2="ent0009" data-link-type="dependency" data-source-line="32" id="lnk10"><path d="M183.5,520.6594 C183.5,543.2594 183.5,570.9894 183.5,587.4094" fill="none" id="FiltrandoLista-to-*end*abrirOpcionesPerfil" style="stroke:#008000;stroke-width:1;"/><polygon fill="#008000" points="183.5,592.4094,187.5,583.4094,183.5,587.4094,179.5,583.4094,183.5,592.4094" style="stroke:#008000;stroke-width:1;stroke-linejoin:miter;stroke-miterlimit:10;"/><path d="M188.5,543.6094 L188.5,569.6094 L448.5,569.6094 L448.5,553.6094 L438.5,543.6094 L188.5,543.6094" fill="#FEFFDD" style="stroke:#181818;stroke-width:0.5;"/><path d="M438.5,543.6094 L438.5,553.6094 L448.5,553.6094 L438.5,543.6094" fill="#FEFFDD" style="stroke:#181818;stroke-width:0.5;"/><text fill="#000000" font-family="sans-serif" font-size="13" font-weight="700" lengthAdjust="spacing" textLength="77.2954" x="194.5" y="562.1045">Investigador</text><text fill="#000000" font-family="sans-serif" font-size="13" lengthAdjust="spacing" textLength="158.9897" x="275.4072" y="562.1045">solicita una de las opciones</text></g></g><g class="entity" data-qualified-name="OPCIONES_PERFIL_ABIERTO" data-source-line="38" id="ent0011"><rect fill="#F1F1F1" height="50" rx="12.5" ry="12.5" style="stroke:#181818;stroke-width:0.5;" width="219.9443" x="7" y="724"/><line style="stroke:#181818;stroke-width:0.5;" x1="7" x2="226.9443" y1="751.6094" y2="751.6094"/><text fill="#000000" font-family="sans-serif" font-size="14" lengthAdjust="spacing" textLength="199.9443" x="17" y="743.5332">OPCIONES_PERFIL_ABIERTO</text></g><g class="entity" data-qualified-name="SESION_CERRADA" data-source-line="49" id="ent0014"><rect fill="#F1F1F1" height="50" rx="12.5" ry="12.5" style="stroke:#181818;stroke-width:0.5;" width="149.1445" x="335.5" y="724"/><line style="stroke:#181818;stroke-width:0.5;" x1="335.5" x2="484.6445" y1="751.6094" y2="751.6094"/><text fill="#000000" font-family="sans-serif" font-size="14" lengthAdjust="spacing" textLength="129.1445" x="345.5" y="743.5332">SESION_CERRADA</text></g><g class="entity" data-qualified-name="PANEL_PRINCIPAL_ABIERTO" data-source-line="56" id="ent0016"><rect fill="#F1F1F1" height="50" rx="12.5" ry="12.5" style="stroke:#181818;stroke-width:0.5;" width="216.8477" x="520.5" y="724"/><line style="stroke:#181818;stroke-width:0.5;" x1="520.5" x2="737.3477" y1="751.6094" y2="751.6094"/><text fill="#000000" font-family="sans-serif" font-size="14" lengthAdjust="spacing" textLength="196.8477" x="530.5" y="743.5332">PANEL_PRINCIPAL_ABIERTO</text></g><!--link in2 to abrirOpcionesPerfil--><g class="link" data-entity-1="ent0001" data-entity-2="ent0002" data-link-type="dependency" data-source-line="6" id="lnk5"><path d="M339,57.22 C339,79.16 339,108.95 339,147.91" fill="none" id="in2-to-abrirOpcionesPerfil" style="stroke:#008000;stroke-width:1;"/><polygon fill="#008000" points="339,152.91,343,143.91,339,147.91,335,143.91,339,152.91" style="stroke:#008000;stroke-width:1;stroke-linejoin:miter;stroke-miterlimit:10;"/><path d="M344,92 L344,118 L484,118 L484,102 L474,92 L344,92" fill="#FEFFDD" style="stroke:#181818;stroke-width:0.5;"/><path d="M474,92 L474,102 L484,102 L474,92" fill="#FEFFDD" style="stroke:#181818;stroke-width:0.5;"/><text fill="#000000" font-family="sans-serif" font-size="13" lengthAdjust="spacing" textLength="119.2026" x="350" y="110.4951">abrirOpcionesPerfil()</text></g><!--link abrirOpcionesPerfil to OPCIONES_PERFIL_ABIERTO--><g class="link" data-entity-1="ent0002" data-entity-2="ent0011" data-link-type="dependency" data-source-line="38" id="lnk12"><path d="M146.48,563.67 C89.01,615.07 41,658 41,658 C41,658 41,694 41,694 C41,694 58.6937,706.5745 78.9237,720.9445" fill="none" id="abrirOpcionesPerfil-to-OPCIONES_PERFIL_ABIERTO" style="stroke:#008000;stroke-width:1;"/><polygon fill="#008000" points="83,723.84,77.9791,715.3671,78.9237,720.9445,73.3463,721.8891,83,723.84" style="stroke:#008000;stroke-width:1;stroke-linejoin:miter;stroke-miterlimit:10;"/><path d="M46,663 L46,689 L221,689 L221,673 L211,663 L46,663" fill="#FEFFDD" style="stroke:#181818;stroke-width:0.5;"/><path d="M211,663 L211,673 L221,673 L211,663" fill="#FEFFDD" style="stroke:#181818;stroke-width:0.5;"/><text fill="#000000" font-family="sans-serif" font-size="13" lengthAdjust="spacing" textLength="154.6416" x="52" y="681.4951">Opciones de perfil abiertas</text></g><!--link abrirOpcionesPerfil to OPCIONES_PERFIL_ABIERTO--><g class="link" data-entity-1="ent0002" data-entity-2="ent0011" data-link-type="dependency" data-source-line="43" id="lnk13"><path d="M253.65,628.36 C239.86,666.63 230,694 230,694 C230,694 202.1519,707.3153 172.0619,721.6853" fill="none" id="abrirOpcionesPerfil-to-OPCIONES_PERFIL_ABIERTO-1" style="stroke:#008000;stroke-width:1;"/><polygon fill="#008000" points="167.55,723.84,177.3952,723.571,172.0619,721.6853,173.9476,716.352,167.55,723.84" style="stroke:#008000;stroke-width:1;stroke-linejoin:miter;stroke-miterlimit:10;"/><path d="M247,663 L247,689 L338,689 L338,673 L328,663 L247,663" fill="#FEFFDD" style="stroke:#181818;stroke-width:0.5;"/><path d="M328,663 L328,673 L338,673 L328,663" fill="#FEFFDD" style="stroke:#181818;stroke-width:0.5;"/><text fill="#000000" font-family="sans-serif" font-size="13" lengthAdjust="spacing" textLength="70.7954" x="253" y="681.4951">editarPerfil()</text></g><!--link abrirOpcionesPerfil to SESION_CERRADA--><g class="link" data-entity-1="ent0002" data-entity-2="ent0014" data-link-type="dependency" data-source-line="49" id="lnk15"><path d="M386.16,628.3 C393.9,667.14 399.8242,696.8962 404.1842,718.8062" fill="none" id="abrirOpcionesPerfil-to-SESION_CERRADA" style="stroke:#008000;stroke-width:1;"/><polygon fill="#008000" points="405.16,723.71,407.3266,714.1024,404.1842,718.8062,399.4804,715.6638,405.16,723.71" style="stroke:#008000;stroke-width:1;stroke-linejoin:miter;stroke-miterlimit:10;"/><path d="M404,663 L404,689 L573,689 L573,673 L563,663 L404,663" fill="#FEFFDD" style="stroke:#181818;stroke-width:0.5;"/><path d="M563,663 L563,673 L573,673 L563,663" fill="#FEFFDD" style="stroke:#181818;stroke-width:0.5;"/><text fill="#000000" font-family="sans-serif" font-size="13" lengthAdjust="spacing" textLength="148.8145" x="410" y="681.4951">solicitarEliminacionPerfil()</text></g><!--link abrirOpcionesPerfil to PANEL_PRINCIPAL_ABIERTO--><g class="link" data-entity-1="ent0002" data-entity-2="ent0016" data-link-type="dependency" data-source-line="56" id="lnk17"><path d="M531.79,599.52 C563.36,633.58 586,658 586,658 C586,658 602.5842,692.7086 615.3242,719.3686" fill="none" id="abrirOpcionesPerfil-to-PANEL_PRINCIPAL_ABIERTO" style="stroke:#008000;stroke-width:1;"/><polygon fill="#008000" points="617.48,723.88,617.2086,714.0349,615.3242,719.3686,609.9904,717.4842,617.48,723.88" style="stroke:#008000;stroke-width:1;stroke-linejoin:miter;stroke-miterlimit:10;"/><path d="M607,663 L607,689 L745,689 L745,673 L735,663 L607,663" fill="#FEFFDD" style="stroke:#181818;stroke-width:0.5;"/><path d="M735,663 L735,673 L745,673 L735,663" fill="#FEFFDD" style="stroke:#181818;stroke-width:0.5;"/><text fill="#000000" font-family="sans-serif" font-size="13" lengthAdjust="spacing" textLength="117.7681" x="613" y="681.4951">abrirPanelPrincipal()</text></g><?plantuml-src hLJRQjj047tVhnZSbpOa5FeS38eZWy2rX9ot4CpAceJ1gzbbLpM4KkYtzDFw9TcLOaNhAAIKIA3RdZrpvioCt9xOI2iRKCJOFXe4ezLZU152k5Qs2CJVG3gO5SawNMsBCbiliY9PRPEhB2rlyfa8W8lRJmyMaUykvY0hIpOtEzACha1xJqgmzaoQGvYzc01y_YAGQmWmCKIUm7LA9lVFuASGu8z-xyoV7ljTkzPAhlMA_FVNwqjIu_KES7js5-KJSq27YV897owhUSO7T2qzo5hRow_L79nMj2E_fHCC-bancDwJiEsOT7WMm-KaubZCYU2tj6pyAZQoas4iEcJFetp2WuYQdD5CbVBFo6DDVt__WUpwtFCsbSLpsCd6QAX39xmaE22z_mrv0STaBM3TtKuO9t2A6k9_GHwqEg05gS18Hd-rn3ioClRmnR_OfCW_Nzp_AE0Fbi60iO5nw5zYggkZo7cnoF9rkjaMQRdCXlc9HoCVoeFFjlZc8RIjTAC1-P1GVPccnkyz-aswyVJRHLgMoNKIimv5I_lg1fB94Nylo1k_cua_IH5weZYsn4cO_dW2?></g></svg>