<svg xmlns="http://www.w3.org/2000/svg" xmlns:xlink="http://www.w3.org/1999/xlink" contentStyleType="text/css" height="1431px" preserveAspectRatio="none" style="width:2538px;height:1431px;background:#FFFFFF;" version="1.1" viewBox="0 0 2538 1431" width="2538px" zoomAndPan="magnify"><title>Diagrama de secuencia - importarConvocatoria</title><defs/><g><text fill="#000000" font-family="sans-serif" font-size="14" font-weight="bold" lengthAdjust="spacing" textLength="314.3232" x="1112.926" y="29.5332">Diagrama de secuencia - importarConvocatoria</text><rect fill="none" height="585.2188" style="stroke:#000000;stroke-width:1.5;" width="2521.1753" x="10" y="747.6016"/><line style="stroke:#181818;stroke-width:0.5;stroke-dasharray:5.0,5.0;" x1="61" x2="61" y1="121.2188" y2="1349.8203"/><line style="stroke:#181818;stroke-width:0.5;stroke-dasharray:5.0,5.0;" x1="382.9067" x2="382.9067" y1="121.2188" y2="1349.8203"/><line style="stroke:#181818;stroke-width:0.5;stroke-dasharray:5.0,5.0;" x1="731.0112" x2="731.0112" y1="121.2188" y2="1349.8203"/><line style="stroke:#181818;stroke-width:0.5;stroke-dasharray:5.0,5.0;" x1="964.4365" x2="964.4365" y1="121.2188" y2="1349.8203"/><line style="stroke:#181818;stroke-width:0.5;stroke-dasharray:5.0,5.0;" x1="1134.9258" x2="1134.9258" y1="121.2188" y2="1349.8203"/><line style="stroke:#181818;stroke-width:0.5;stroke-dasharray:5.0,5.0;" x1="1323.2422" x2="1323.2422" y1="121.2188" y2="1349.8203"/><line style="stroke:#181818;stroke-width:0.5;stroke-dasharray:5.0,5.0;" x1="1519.8623" x2="1519.8623" y1="121.2188" y2="1349.8203"/><line style="stroke:#181818;stroke-width:0.5;stroke-dasharray:5.0,5.0;" x1="1727.9648" x2="1727.9648" y1="121.2188" y2="1349.8203"/><line style="stroke:#181818;stroke-width:0.5;stroke-dasharray:5.0,5.0;" x1="1897.1504" x2="1897.1504" y1="121.2188" y2="1349.8203"/><line style="stroke:#181818;stroke-width:0.5;stroke-dasharray:5.0,5.0;" x1="2066.791" x2="2066.791" y1="121.2188" y2="1349.8203"/><line style="stroke:#181818;stroke-width:0.5;stroke-dasharray:5.0,5.0;" x1="2471.3413" x2="2471.3413" y1="121.2188" y2="1349.8203"/><text fill="#000000" font-family="sans-serif" font-size="14" lengthAdjust="spacing" textLength="77.0479" x="20" y="118.1426">Coordinador</text><ellipse cx="61.5239" cy="52.1094" fill="#E2E2F0" rx="8" ry="8" style="stroke:#181818;stroke-width:0.5;"/><path d="M61.5239,60.1094 L61.5239,87.1094 M48.5239,68.1094 L74.5239,68.1094 M61.5239,87.1094 L48.5239,102.1094 M61.5239,87.1094 L74.5239,102.1094 " fill="none" style="stroke:#181818;stroke-width:0.5;"/><text fill="#000000" font-family="sans-serif" font-size="14" lengthAdjust="spacing" textLength="77.0479" x="20" y="1363.3535">Coordinador</text><ellipse cx="61.5239" cy="1374.9297" fill="#E2E2F0" rx="8" ry="8" style="stroke:#181818;stroke-width:0.5;"/><path d="M61.5239,1382.9297 L61.5239,1409.9297 M48.5239,1390.9297 L74.5239,1390.9297 M61.5239,1409.9297 L48.5239,1424.9297 M61.5239,1409.9297 L74.5239,1424.9297 " fill="none" style="stroke:#181818;stroke-width:0.5;"/><rect fill="#E2E2F0" height="49.2188" rx="2.5" ry="2.5" style="stroke:#181818;stroke-width:0.5;" width="180.5303" x="292.9067" y="71"/><text fill="#000000" font-family="sans-serif" font-size="14" lengthAdjust="spacing" textLength="166.5303" x="299.9067" y="92.5332">importarConvocatoriaPage</text><text fill="#000000" font-family="sans-serif" font-size="14" lengthAdjust="spacing" textLength="45.8965" x="360.2236" y="110.1426">(React)</text><rect fill="#E2E2F0" height="49.2188" rx="2.5" ry="2.5" style="stroke:#181818;stroke-width:0.5;" width="180.5303" x="292.9067" y="1348.8203"/><text fill="#000000" font-family="sans-serif" font-size="14" lengthAdjust="spacing" textLength="166.5303" x="299.9067" y="1370.3535">importarConvocatoriaPage</text><text fill="#000000" font-family="sans-serif" font-size="14" lengthAdjust="spacing" textLength="45.8965" x="360.2236" y="1387.9629">(React)</text><rect fill="#E2E2F0" height="49.2188" rx="2.5" ry="2.5" style="stroke:#181818;stroke-width:0.5;" width="157.1787" x="653.0112" y="71"/><text fill="#000000" font-family="sans-serif" font-size="14" lengthAdjust="spacing" textLength="143.1787" x="660.0112" y="92.5332">ConvocatoriaController</text><text fill="#000000" font-family="sans-serif" font-size="14" lengthAdjust="spacing" textLength="82.4824" x="690.3594" y="110.1426">(Spring Boot)</text><rect fill="#E2E2F0" height="49.2188" rx="2.5" ry="2.5" style="stroke:#181818;stroke-width:0.5;" width="157.1787" x="653.0112" y="1348.8203"/><text fill="#000000" font-family="sans-serif" font-size="14" lengthAdjust="spacing" textLength="143.1787" x="660.0112" y="1370.3535">ConvocatoriaController</text><text fill="#000000" font-family="sans-serif" font-size="14" lengthAdjust="spacing" textLength="82.4824" x="690.3594" y="1387.9629">(Spring Boot)</text><rect fill="#E2E2F0" height="31.6094" rx="2.5" ry="2.5" style="stroke:#181818;stroke-width:0.5;" width="103.4893" x="913.4365" y="88.6094"/><text fill="#000000" font-family="sans-serif" font-size="14" lengthAdjust="spacing" textLength="89.4893" x="920.4365" y="110.1426">SesionService</text><rect fill="#E2E2F0" height="31.6094" rx="2.5" ry="2.5" style="stroke:#181818;stroke-width:0.5;" width="103.4893" x="913.4365" y="1348.8203"/><text fill="#000000" font-family="sans-serif" font-size="14" lengthAdjust="spacing" textLength="89.4893" x="920.4365" y="1370.3535">SesionService</text><rect fill="#E2E2F0" height="31.6094" rx="2.5" ry="2.5" style="stroke:#181818;stroke-width:0.5;" width="216.3164" x="1026.9258" y="88.6094"/><text fill="#000000" font-family="sans-serif" font-size="14" lengthAdjust="spacing" textLength="202.3164" x="1033.9258" y="110.1426">ImportacionConvocatoriaService</text><rect fill="#E2E2F0" height="31.6094" rx="2.5" ry="2.5" style="stroke:#181818;stroke-width:0.5;" width="216.3164" x="1026.9258" y="1348.8203"/><text fill="#000000" font-family="sans-serif" font-size="14" lengthAdjust="spacing" textLength="202.3164" x="1033.9258" y="1370.3535">ImportacionConvocatoriaService</text><rect fill="#E2E2F0" height="31.6094" rx="2.5" ry="2.5" style="stroke:#181818;stroke-width:0.5;" width="141.6201" x="1253.2422" y="88.6094"/><text fill="#000000" font-family="sans-serif" font-size="14" lengthAdjust="spacing" textLength="127.6201" x="1260.2422" y="110.1426">PoliticaConvocatoria</text><rect fill="#E2E2F0" height="31.6094" rx="2.5" ry="2.5" style="stroke:#181818;stroke-width:0.5;" width="141.6201" x="1253.2422" y="1348.8203"/><text fill="#000000" font-family="sans-serif" font-size="14" lengthAdjust="spacing" textLength="127.6201" x="1260.2422" y="1370.3535">PoliticaConvocatoria</text><rect fill="#E2E2F0" height="31.6094" rx="2.5" ry="2.5" style="stroke:#181818;stroke-width:0.5;" width="231.1025" x="1404.8623" y="88.6094"/><text fill="#000000" font-family="sans-serif" font-size="14" lengthAdjust="spacing" textLength="217.1025" x="1411.8623" y="110.1426">RegistroImportadoresConvocatoria</text><rect fill="#E2E2F0" height="31.6094" rx="2.5" ry="2.5" style="stroke:#181818;stroke-width:0.5;" width="231.1025" x="1404.8623" y="1348.8203"/><text fill="#000000" font-family="sans-serif" font-size="14" lengthAdjust="spacing" textLength="217.1025" x="1411.8623" y="1370.3535">RegistroImportadoresConvocatoria</text><rect fill="#E2E2F0" height="49.2188" rx="2.5" ry="2.5" style="stroke:#181818;stroke-width:0.5;" width="164.1855" x="1645.9648" y="71"/><text fill="#000000" font-family="sans-serif" font-size="14" lengthAdjust="spacing" textLength="150.1855" x="1652.9648" y="92.5332">ImportadorConvocatoria</text><text fill="#000000" font-family="sans-serif" font-size="14" lengthAdjust="spacing" textLength="69.2686" x="1693.4233" y="110.1426">&#171;interface&#187;</text><rect fill="#E2E2F0" height="49.2188" rx="2.5" ry="2.5" style="stroke:#181818;stroke-width:0.5;" width="164.1855" x="1645.9648" y="1348.8203"/><text fill="#000000" font-family="sans-serif" font-size="14" lengthAdjust="spacing" textLength="150.1855" x="1652.9648" y="1370.3535">ImportadorConvocatoria</text><text fill="#000000" font-family="sans-serif" font-size="14" lengthAdjust="spacing" textLength="69.2686" x="1693.4233" y="1387.9629">&#171;interface&#187;</text><rect fill="#E2E2F0" height="31.6094" rx="2.5" ry="2.5" style="stroke:#181818;stroke-width:0.5;" width="155.6406" x="1820.1504" y="88.6094"/><text fill="#000000" font-family="sans-serif" font-size="14" lengthAdjust="spacing" textLength="141.6406" x="1827.1504" y="110.1426">ValidadorConvocatoria</text><rect fill="#E2E2F0" height="31.6094" rx="2.5" ry="2.5" style="stroke:#181818;stroke-width:0.5;" width="155.6406" x="1820.1504" y="1348.8203"/><text fill="#000000" font-family="sans-serif" font-size="14" lengthAdjust="spacing" textLength="141.6406" x="1827.1504" y="1370.3535">ValidadorConvocatoria</text><rect fill="#E2E2F0" height="31.6094" rx="2.5" ry="2.5" style="stroke:#181818;stroke-width:0.5;" width="163.4063" x="1985.791" y="88.6094"/><text fill="#000000" font-family="sans-serif" font-size="14" lengthAdjust="spacing" textLength="149.4063" x="1992.791" y="110.1426">ConvocatoriaRepository</text><rect fill="#E2E2F0" height="31.6094" rx="2.5" ry="2.5" style="stroke:#181818;stroke-width:0.5;" width="163.4063" x="1985.791" y="1348.8203"/><text fill="#000000" font-family="sans-serif" font-size="14" lengthAdjust="spacing" textLength="149.4063" x="1992.791" y="1370.3535">ConvocatoriaRepository</text><text fill="#000000" font-family="sans-serif" font-size="14" lengthAdjust="spacing" textLength="91.834" x="2423.3413" y="118.1426">Base de Datos</text><path d="M2454.2583,67.6094 C2454.2583,57.6094 2472.2583,57.6094 2472.2583,57.6094 C2472.2583,57.6094 2490.2583,57.6094 2490.2583,67.6094 L2490.2583,93.6094 C2490.2583,103.6094 2472.2583,103.6094 2472.2583,103.6094 C2472.2583,103.6094 2454.2583,103.6094 2454.2583,93.6094 L2454.2583,67.6094 " fill="#E2E2F0" style="stroke:#181818;stroke-width:1.5;"/><path d="M2454.2583,67.6094 C2454.2583,77.6094 2472.2583,77.6094 2472.2583,77.6094 C2472.2583,77.6094 2490.2583,77.6094 2490.2583,67.6094 " fill="none" style="stroke:#181818;stroke-width:1.5;"/><text fill="#000000" font-family="sans-serif" font-size="14" lengthAdjust="spacing" textLength="91.834" x="2423.3413" y="1363.3535">Base de Datos</text><path d="M2454.2583,1376.4297 C2454.2583,1366.4297 2472.2583,1366.4297 2472.2583,1366.4297 C2472.2583,1366.4297 2490.2583,1366.4297 2490.2583,1376.4297 L2490.2583,1402.4297 C2490.2583,1412.4297 2472.2583,1412.4297 2472.2583,1412.4297 C2472.2583,1412.4297 2454.2583,1412.4297 2454.2583,1402.4297 L2454.2583,1376.4297 " fill="#E2E2F0" style="stroke:#181818;stroke-width:1.5;"/><path d="M2454.2583,1376.4297 C2454.2583,1386.4297 2472.2583,1386.4297 2472.2583,1386.4297 C2472.2583,1386.4297 2490.2583,1386.4297 2490.2583,1376.4297 " fill="none" style="stroke:#181818;stroke-width:1.5;"/><polygon fill="#181818" points="371.1719,149.5703,381.1719,153.5703,371.1719,157.5703,375.1719,153.5703" style="stroke:#181818;stroke-width:1;"/><line style="stroke:#181818;stroke-width:1;" x1="61.5239" x2="377.1719" y1="153.5703" y2="153.5703"/><text fill="#000000" font-family="sans-serif" font-size="13" lengthAdjust="spacing" textLength="152.4834" x="68.5239" y="148.7139">Introduce archivo o enlace</text><polygon fill="#181818" points="719.6006,196.2734,729.6006,200.2734,719.6006,204.2734,723.6006,200.2734" style="stroke:#181818;stroke-width:1;"/><line style="stroke:#181818;stroke-width:1;" x1="383.1719" x2="725.6006" y1="200.2734" y2="200.2734"/><text fill="#000000" font-family="sans-serif" font-size="13" lengthAdjust="spacing" textLength="324.4287" x="390.1719" y="179.0654">POST /api/convocatorias/importaciones/previsualizacion</text><text fill="#000000" font-family="sans-serif" font-size="13" lengthAdjust="spacing" textLength="226.5415" x="390.1719" y="195.417">(FuenteConvocatoriaRequest) + cookie</text><polygon fill="#181818" points="953.1812,226.625,963.1812,230.625,953.1812,234.625,957.1812,230.625" style="stroke:#181818;stroke-width:1;"/><line style="stroke:#181818;stroke-width:1;" x1="731.6006" x2="959.1812" y1="230.625" y2="230.625"/><text fill="#000000" font-family="sans-serif" font-size="13" lengthAdjust="spacing" textLength="209.5806" x="738.6006" y="225.7686">obtenerSesionActual(authentication)</text><polygon fill="#181818" points="742.6006,256.9766,732.6006,260.9766,742.6006,264.9766,738.6006,260.9766" style="stroke:#181818;stroke-width:1;"/><line style="stroke:#181818;stroke-width:1;stroke-dasharray:2.0,2.0;" x1="736.6006" x2="964.1812" y1="260.9766" y2="260.9766"/><text fill="#000000" font-family="sans-serif" font-size="13" lengthAdjust="spacing" textLength="142.3779" x="748.6006" y="256.1201">Coordinador autenticado</text><polygon fill="#181818" points="1123.084,287.3281,1133.084,291.3281,1123.084,295.3281,1127.084,291.3281" style="stroke:#181818;stroke-width:1;"/><line style="stroke:#181818;stroke-width:1;" x1="731.6006" x2="1129.084" y1="291.3281" y2="291.3281"/><text fill="#000000" font-family="sans-serif" font-size="13" lengthAdjust="spacing" textLength="153.8989" x="738.6006" y="286.4717">previsualizar(fuente, actor)</text><polygon fill="#181818" points="1312.0522,317.6797,1322.0522,321.6797,1312.0522,325.6797,1316.0522,321.6797" style="stroke:#181818;stroke-width:1;"/><line style="stroke:#181818;stroke-width:1;" x1="1135.084" x2="1318.0522" y1="321.6797" y2="321.6797"/><text fill="#000000" font-family="sans-serif" font-size="13" lengthAdjust="spacing" textLength="136.5444" x="1142.084" y="316.8232">exigirImportacion(actor)</text><polygon fill="#181818" points="1508.4136,348.0313,1518.4136,352.0313,1508.4136,356.0313,1512.4136,352.0313" style="stroke:#181818;stroke-width:1;"/><line style="stroke:#181818;stroke-width:1;" x1="1135.084" x2="1514.4136" y1="352.0313" y2="352.0313"/><text fill="#000000" font-family="sans-serif" font-size="13" lengthAdjust="spacing" textLength="154.6479" x="1142.084" y="347.1748">obtenerCompatible(fuente)</text><polygon fill="#181818" points="1146.084,378.3828,1136.084,382.3828,1146.084,386.3828,1142.084,382.3828" style="stroke:#181818;stroke-width:1;"/><line style="stroke:#181818;stroke-width:1;stroke-dasharray:2.0,2.0;" x1="1140.084" x2="1519.4136" y1="382.3828" y2="382.3828"/><text fill="#000000" font-family="sans-serif" font-size="13" lengthAdjust="spacing" textLength="139.458" x="1152.084" y="377.5264">ImportadorConvocatoria</text><polygon fill="#181818" points="1716.0576,408.7344,1726.0576,412.7344,1716.0576,416.7344,1720.0576,412.7344" style="stroke:#181818;stroke-width:1;"/><line style="stroke:#181818;stroke-width:1;" x1="1135.084" x2="1722.0576" y1="412.7344" y2="412.7344"/><text fill="#000000" font-family="sans-serif" font-size="13" lengthAdjust="spacing" textLength="85.2617" x="1142.084" y="407.8779">extraer(fuente)</text><polygon fill="#181818" points="1146.084,439.0859,1136.084,443.0859,1146.084,447.0859,1142.084,443.0859" style="stroke:#181818;stroke-width:1;"/><line style="stroke:#181818;stroke-width:1;stroke-dasharray:2.0,2.0;" x1="1140.084" x2="1727.0576" y1="443.0859" y2="443.0859"/><text fill="#000000" font-family="sans-serif" font-size="13" lengthAdjust="spacing" textLength="190.0298" x="1152.084" y="438.2295">DatosConvocatoriaNormalizados</text><polygon fill="#181818" points="1885.9707,469.4375,1895.9707,473.4375,1885.9707,477.4375,1889.9707,473.4375" style="stroke:#181818;stroke-width:1;"/><line style="stroke:#181818;stroke-width:1;" x1="1135.084" x2="1891.9707" y1="473.4375" y2="473.4375"/><text fill="#000000" font-family="sans-serif" font-size="13" lengthAdjust="spacing" textLength="78.7554" x="1142.084" y="468.5811">validar(datos)</text><polygon fill="#181818" points="2055.4941,499.7891,2065.4941,503.7891,2055.4941,507.7891,2059.4941,503.7891" style="stroke:#181818;stroke-width:1;"/><line style="stroke:#181818;stroke-width:1;" x1="1135.084" x2="2061.4941" y1="503.7891" y2="503.7891"/><text fill="#000000" font-family="sans-serif" font-size="13" lengthAdjust="spacing" textLength="222.5361" x="1142.084" y="498.9326">existsByReferenciaExterna(referencia)</text><polygon fill="#181818" points="2460.2583,546.4922,2470.2583,550.4922,2460.2583,554.4922,2464.2583,550.4922" style="stroke:#181818;stroke-width:1;"/><line style="stroke:#181818;stroke-width:1;" x1="2067.4941" x2="2466.2583" y1="550.4922" y2="550.4922"/><text fill="#000000" font-family="sans-serif" font-size="13" lengthAdjust="spacing" textLength="291.8652" x="2074.4941" y="529.2842">SELECT EXISTS(SELECT 1 FROM convocatorias</text><text fill="#000000" font-family="sans-serif" font-size="13" lengthAdjust="spacing" textLength="186.7734" x="2074.4941" y="545.6357">WHERE referencia_externa = ?)</text><polygon fill="#181818" points="2078.4941,576.8438,2068.4941,580.8438,2078.4941,584.8438,2074.4941,580.8438" style="stroke:#181818;stroke-width:1;"/><line style="stroke:#181818;stroke-width:1;stroke-dasharray:2.0,2.0;" x1="2072.4941" x2="2471.2583" y1="580.8438" y2="580.8438"/><text fill="#000000" font-family="sans-serif" font-size="13" lengthAdjust="spacing" textLength="98.2681" x="2084.4941" y="575.9873">Existe / no existe</text><polygon fill="#181818" points="1146.084,607.1953,1136.084,611.1953,1146.084,615.1953,1142.084,611.1953" style="stroke:#181818;stroke-width:1;"/><line style="stroke:#181818;stroke-width:1;stroke-dasharray:2.0,2.0;" x1="1140.084" x2="2066.4941" y1="611.1953" y2="611.1953"/><text fill="#000000" font-family="sans-serif" font-size="13" lengthAdjust="spacing" textLength="98.2681" x="1152.084" y="606.3389">Existe / no existe</text><polygon fill="#181818" points="1885.9707,637.5469,1895.9707,641.5469,1885.9707,645.5469,1889.9707,641.5469" style="stroke:#181818;stroke-width:1;"/><line style="stroke:#181818;stroke-width:1;" x1="1135.084" x2="1891.9707" y1="641.5469" y2="641.5469"/><text fill="#000000" font-family="sans-serif" font-size="13" lengthAdjust="spacing" textLength="184.2725" x="1142.084" y="636.6904">yaIncorporada(estadoExistente)</text><polygon fill="#181818" points="742.6006,667.8984,732.6006,671.8984,742.6006,675.8984,738.6006,671.8984" style="stroke:#181818;stroke-width:1;"/><line style="stroke:#181818;stroke-width:1;stroke-dasharray:2.0,2.0;" x1="736.6006" x2="1134.084" y1="671.8984" y2="671.8984"/><text fill="#000000" font-family="sans-serif" font-size="13" lengthAdjust="spacing" textLength="170.5298" x="748.6006" y="667.042">PrevisualizacionConvocatoria</text><polygon fill="#181818" points="394.1719,698.25,384.1719,702.25,394.1719,706.25,390.1719,702.25" style="stroke:#181818;stroke-width:1;"/><line style="stroke:#181818;stroke-width:1;stroke-dasharray:2.0,2.0;" x1="388.1719" x2="730.6006" y1="702.25" y2="702.25"/><text fill="#000000" font-family="sans-serif" font-size="13" lengthAdjust="spacing" textLength="285.4224" x="400.1719" y="697.3936">200 OK (PrevisualizacionConvocatoriaResponse)</text><polygon fill="#181818" points="72.5239,728.6016,62.5239,732.6016,72.5239,736.6016,68.5239,732.6016" style="stroke:#181818;stroke-width:1;"/><line style="stroke:#181818;stroke-width:1;stroke-dasharray:2.0,2.0;" x1="66.5239" x2="382.1719" y1="732.6016" y2="732.6016"/><text fill="#000000" font-family="sans-serif" font-size="13" lengthAdjust="spacing" textLength="218.2134" x="78.5239" y="727.7451">Presenta datos y solicita confirmacion</text><path d="M10,747.6016 L70.1709,747.6016 L70.1709,755.9531 L60.1709,765.9531 L10,765.9531 L10,747.6016 " fill="#EEEEEE" style="stroke:#000000;stroke-width:1.5;"/><rect fill="none" height="585.2188" style="stroke:#000000;stroke-width:1.5;" width="2521.1753" x="10" y="747.6016"/><text fill="#000000" font-family="sans-serif" font-size="13" font-weight="bold" lengthAdjust="spacing" textLength="15.1709" x="25" y="762.0967">alt</text><text fill="#000000" font-family="sans-serif" font-size="11" font-weight="bold" lengthAdjust="spacing" textLength="122.8315" x="85.1709" y="761.0205">[Coordinador confirma]</text><polygon fill="#181818" points="371.1719,784.3047,381.1719,788.3047,371.1719,792.3047,375.1719,788.3047" style="stroke:#181818;stroke-width:1;"/><line style="stroke:#181818;stroke-width:1;" x1="61.5239" x2="377.1719" y1="788.3047" y2="788.3047"/><text fill="#000000" font-family="sans-serif" font-size="13" lengthAdjust="spacing" textLength="123.5444" x="68.5239" y="783.4482">Confirma importacion</text><polygon fill="#181818" points="719.6006,831.0078,729.6006,835.0078,719.6006,839.0078,723.6006,835.0078" style="stroke:#181818;stroke-width:1;"/><line style="stroke:#181818;stroke-width:1;" x1="383.1719" x2="725.6006" y1="835.0078" y2="835.0078"/><text fill="#000000" font-family="sans-serif" font-size="13" lengthAdjust="spacing" textLength="228.3252" x="390.1719" y="813.7998">POST /api/convocatorias/importaciones</text><text fill="#000000" font-family="sans-serif" font-size="13" lengthAdjust="spacing" textLength="234.457" x="390.1719" y="830.1514">(ConfirmarImportacionRequest) + cookie</text><polygon fill="#181818" points="953.1812,861.3594,963.1812,865.3594,953.1812,869.3594,957.1812,865.3594" style="stroke:#181818;stroke-width:1;"/><line style="stroke:#181818;stroke-width:1;" x1="731.6006" x2="959.1812" y1="865.3594" y2="865.3594"/><text fill="#000000" font-family="sans-serif" font-size="13" lengthAdjust="spacing" textLength="209.5806" x="738.6006" y="860.5029">obtenerSesionActual(authentication)</text><polygon fill="#181818" points="742.6006,891.7109,732.6006,895.7109,742.6006,899.7109,738.6006,895.7109" style="stroke:#181818;stroke-width:1;"/><line style="stroke:#181818;stroke-width:1;stroke-dasharray:2.0,2.0;" x1="736.6006" x2="964.1812" y1="895.7109" y2="895.7109"/><text fill="#000000" font-family="sans-serif" font-size="13" lengthAdjust="spacing" textLength="142.3779" x="748.6006" y="890.8545">Coordinador autenticado</text><polygon fill="#181818" points="1123.084,922.0625,1133.084,926.0625,1123.084,930.0625,1127.084,926.0625" style="stroke:#181818;stroke-width:1;"/><line style="stroke:#181818;stroke-width:1;" x1="731.6006" x2="1129.084" y1="926.0625" y2="926.0625"/><text fill="#000000" font-family="sans-serif" font-size="13" lengthAdjust="spacing" textLength="174.1289" x="738.6006" y="921.2061">confirmar(datos, fuente, actor)</text><polygon fill="#181818" points="1312.0522,952.4141,1322.0522,956.4141,1312.0522,960.4141,1316.0522,956.4141" style="stroke:#181818;stroke-width:1;"/><line style="stroke:#181818;stroke-width:1;" x1="1135.084" x2="1318.0522" y1="956.4141" y2="956.4141"/><text fill="#000000" font-family="sans-serif" font-size="13" lengthAdjust="spacing" textLength="136.5444" x="1142.084" y="951.5576">exigirImportacion(actor)</text><polygon fill="#181818" points="1885.9707,982.7656,1895.9707,986.7656,1885.9707,990.7656,1889.9707,986.7656" style="stroke:#181818;stroke-width:1;"/><line style="stroke:#181818;stroke-width:1;" x1="1135.084" x2="1891.9707" y1="986.7656" y2="986.7656"/><text fill="#000000" font-family="sans-serif" font-size="13" lengthAdjust="spacing" textLength="122.1226" x="1142.084" y="981.9092">validar(datos, fuente)</text><polygon fill="#181818" points="2055.4941,1013.1172,2065.4941,1017.1172,2055.4941,1021.1172,2059.4941,1017.1172" style="stroke:#181818;stroke-width:1;"/><line style="stroke:#181818;stroke-width:1;" x1="1135.084" x2="2061.4941" y1="1017.1172" y2="1017.1172"/><text fill="#000000" font-family="sans-serif" font-size="13" lengthAdjust="spacing" textLength="109.8271" x="1142.084" y="1012.2607">save(convocatoria)</text><polygon fill="#181818" points="2460.2583,1092.5234,2470.2583,1096.5234,2460.2583,1100.5234,2464.2583,1096.5234" style="stroke:#181818;stroke-width:1;"/><line style="stroke:#181818;stroke-width:1;" x1="2067.4941" x2="2466.2583" y1="1096.5234" y2="1096.5234"/><text fill="#000000" font-family="sans-serif" font-size="13" lengthAdjust="spacing" textLength="380.7642" x="2074.4941" y="1042.6123">INSERT INTO convocatorias (..., referencia_externa, incorporada)</text><text fill="#000000" font-family="sans-serif" font-size="13" lengthAdjust="spacing" textLength="118.4854" x="2074.4941" y="1058.9639">VALUES (..., ?, true)</text><text fill="#000000" font-family="sans-serif" font-size="13" lengthAdjust="spacing" textLength="208.7808" x="2074.4941" y="1075.3154">ON CONFLICT (referencia_externa)</text><text fill="#000000" font-family="sans-serif" font-size="13" lengthAdjust="spacing" textLength="232.2798" x="2074.4941" y="1091.667">DO UPDATE SET ..., incorporada = true</text><polygon fill="#181818" points="2078.4941,1122.875,2068.4941,1126.875,2078.4941,1130.875,2074.4941,1126.875" style="stroke:#181818;stroke-width:1;"/><line style="stroke:#181818;stroke-width:1;stroke-dasharray:2.0,2.0;" x1="2072.4941" x2="2471.2583" y1="1126.875" y2="1126.875"/><text fill="#000000" font-family="sans-serif" font-size="13" lengthAdjust="spacing" textLength="138.0171" x="2084.4941" y="1122.0186">Convocatoria importada</text><polygon fill="#181818" points="1146.084,1153.2266,1136.084,1157.2266,1146.084,1161.2266,1142.084,1157.2266" style="stroke:#181818;stroke-width:1;"/><line style="stroke:#181818;stroke-width:1;stroke-dasharray:2.0,2.0;" x1="1140.084" x2="2066.4941" y1="1157.2266" y2="1157.2266"/><text fill="#000000" font-family="sans-serif" font-size="13" lengthAdjust="spacing" textLength="138.0171" x="1152.084" y="1152.3701">Convocatoria importada</text><polygon fill="#181818" points="742.6006,1183.5781,732.6006,1187.5781,742.6006,1191.5781,738.6006,1187.5781" style="stroke:#181818;stroke-width:1;"/><line style="stroke:#181818;stroke-width:1;stroke-dasharray:2.0,2.0;" x1="736.6006" x2="1134.084" y1="1187.5781" y2="1187.5781"/><text fill="#000000" font-family="sans-serif" font-size="13" lengthAdjust="spacing" textLength="117.0635" x="748.6006" y="1182.7217">ConvocatoriaDetalle</text><polygon fill="#181818" points="394.1719,1213.9297,384.1719,1217.9297,394.1719,1221.9297,390.1719,1217.9297" style="stroke:#181818;stroke-width:1;"/><line style="stroke:#181818;stroke-width:1;stroke-dasharray:2.0,2.0;" x1="388.1719" x2="730.6006" y1="1217.9297" y2="1217.9297"/><text fill="#000000" font-family="sans-serif" font-size="13" lengthAdjust="spacing" textLength="126.4707" x="400.1719" y="1213.0732">201 Created / 200 OK</text><polygon fill="#181818" points="72.5239,1244.2813,62.5239,1248.2813,72.5239,1252.2813,68.5239,1248.2813" style="stroke:#181818;stroke-width:1;"/><line style="stroke:#181818;stroke-width:1;stroke-dasharray:2.0,2.0;" x1="66.5239" x2="382.1719" y1="1248.2813" y2="1248.2813"/><text fill="#000000" font-family="sans-serif" font-size="13" lengthAdjust="spacing" textLength="293.3315" x="78.5239" y="1243.4248">Presenta CONVOCATORIA_ABIERTA actualizada</text><line style="stroke:#000000;stroke-width:1;stroke-dasharray:2.0,2.0;" x1="10" x2="2531.1753" y1="1257.2813" y2="1257.2813"/><text fill="#000000" font-family="sans-serif" font-size="11" font-weight="bold" lengthAdjust="spacing" textLength="116.7407" x="15" y="1268.7002">[Coordinador cancela]</text><polygon fill="#181818" points="371.1719,1290.4688,381.1719,1294.4688,371.1719,1298.4688,375.1719,1294.4688" style="stroke:#181818;stroke-width:1;"/><line style="stroke:#181818;stroke-width:1;" x1="61.5239" x2="377.1719" y1="1294.4688" y2="1294.4688"/><text fill="#000000" font-family="sans-serif" font-size="13" lengthAdjust="spacing" textLength="118.5044" x="68.5239" y="1289.6123">Cancela importacion</text><polygon fill="#181818" points="72.5239,1320.8203,62.5239,1324.8203,72.5239,1328.8203,68.5239,1324.8203" style="stroke:#181818;stroke-width:1;"/><line style="stroke:#181818;stroke-width:1;stroke-dasharray:2.0,2.0;" x1="66.5239" x2="382.1719" y1="1324.8203" y2="1324.8203"/><text fill="#000000" font-family="sans-serif" font-size="13" lengthAdjust="spacing" textLength="297.6479" x="78.5239" y="1319.9639">Mantiene CONVOCATORIA_ABIERTA sin cambios</text><!--SRC=[dLRVRzCm47xFNt7QKogw5NYiOAW_Cb4nbYdf1W-Ja9VSYaLg1zkjA7yzPpjfdRGRY3wiYVrzT-Uxx_DgkAaGvfoj55ipA14q5XiK1MTm3dnTIsMOcacnbGKpKd4MHQoW1vX9gKekM2bLL3DbUC5h9WoSdIBTiXK-Y3X3uWxEW6cuKb8O56MN6tBesIXPLQY8cTUAYnLCfMpuavftgJbgBaMEQiiBT12_qaKjV745ROIvkZJttENToehJ6mj93cqtYbqNdE6AQwgzIKOTGdr4R42xa_KH9IGyY7VlEBLBFR42BoyTtoEnr_nxLl6oJtTulsFwqmfn6TPISthSDHNMCY8AUsGQuMng_v90vWJM3Z2VHb4W0pY_t8zr30ixlN9J831LVETR2H9GL7I0g0LP0irn3BTfleGHg_ce2ChH8twO5kfHhN3BzOREyTijaIokIAe6ksVukK5j1l0A2Yb_S8meWqtarJ06-KYfKVdNIM4eNimsvZi5elaQMXn4VXFEs_h2GnBMGqjv2EqKCuQmGXK_kUA6uFnYWpgK9NZHZ05_yHLNWIRZOsohattbCxckgSx72fiCWwZ5k8htrPpMKXYxrP2jn2Y6QX-ntUb6TACFWzr8jNQdBQKE0-_5DeQjUrInVTMzazNIzK0RFTrb-8JANJp9BqeiMApsA_Q4jRIS-NGCUNATp9QGV5taopnktjx0LPP-Xev-7iINZqcMm27GD_InuJry64JpgJkUhoEnTI2CG4XV4pP9mmQS09q-zOujH24LDP6LB2P1KeSysRLtJzexeAVjpiISp3hcUllwDQIV87w9bg6kfT2KxU0t2X9esQNLL15T_7Owi0DjbSbfWHhvn6cuDYfT-PNfcA3TZO0-pru1imO5WOyTu_yk0F9x6p7qpB7ZROh_SBsb_QlpEoaQSRHDQRG-XDu5uEF_-oNGmp_dgJRF4S7hMhCjnc5NFIuqrE8cJx8bVItJhe4WlhYu69xmpn3uGTw31t4_kRvByWR-OGX6RP2MqnkOfJTNrmioQ7mSXH3p5EvkvvDbGgvUWgC7aSccDf8hk6FMKEUjkaeM72oSomlW8n-6s3aQHZy_3hFkMV0Dp1GoWoNT1zwGFN4_wpPgodqwcopJR37vDfakgFiJgn9lPAeDA_fVsp4S4mLMV_ER1xrWjtv5d-at02TZdAv8Sq69ru-SBdUY_m40]--></g></svg>