<?xml version="1.0" encoding="us-ascii" standalone="no"?><svg xmlns="http://www.w3.org/2000/svg" xmlns:xlink="http://www.w3.org/1999/xlink" contentStyleType="text/css" height="1431px" preserveAspectRatio="none" style="width:2522px;height:1431px;background:#FFFFFF;" version="1.1" viewBox="0 0 2522 1431" width="2522px" zoomAndPan="magnify"><defs/><g><text fill="#000000" font-family="sans-serif" font-size="14" font-weight="bold" lengthAdjust="spacing" textLength="329" x="1097.5" y="29.5332">Diagrama de secuencia - importarConvocatoria</text><rect fill="none" height="585.2188" style="stroke:#000000;stroke-width:1.5;" width="2505" x="10" y="747.6016"/><line style="stroke:#181818;stroke-width:0.5;stroke-dasharray:5.0,5.0;" x1="62" x2="62" y1="121.2188" y2="1349.8203"/><line style="stroke:#181818;stroke-width:0.5;stroke-dasharray:5.0,5.0;" x1="382" x2="382" y1="121.2188" y2="1349.8203"/><line style="stroke:#181818;stroke-width:0.5;stroke-dasharray:5.0,5.0;" x1="729.5" x2="729.5" y1="121.2188" y2="1349.8203"/><line style="stroke:#181818;stroke-width:0.5;stroke-dasharray:5.0,5.0;" x1="942.5" x2="942.5" y1="121.2188" y2="1349.8203"/><line style="stroke:#181818;stroke-width:0.5;stroke-dasharray:5.0,5.0;" x1="1113.5" x2="1113.5" y1="121.2188" y2="1349.8203"/><line style="stroke:#181818;stroke-width:0.5;stroke-dasharray:5.0,5.0;" x1="1303.5" x2="1303.5" y1="121.2188" y2="1349.8203"/><line style="stroke:#181818;stroke-width:0.5;stroke-dasharray:5.0,5.0;" x1="1502.5" x2="1502.5" y1="121.2188" y2="1349.8203"/><line style="stroke:#181818;stroke-width:0.5;stroke-dasharray:5.0,5.0;" x1="1712.5" x2="1712.5" y1="121.2188" y2="1349.8203"/><line style="stroke:#181818;stroke-width:0.5;stroke-dasharray:5.0,5.0;" x1="1884.5" x2="1884.5" y1="121.2188" y2="1349.8203"/><line style="stroke:#181818;stroke-width:0.5;stroke-dasharray:5.0,5.0;" x1="2056.5" x2="2056.5" y1="121.2188" y2="1349.8203"/><line style="stroke:#181818;stroke-width:0.5;stroke-dasharray:5.0,5.0;" x1="2455" x2="2455" y1="121.2188" y2="1349.8203"/><text fill="#000000" font-family="sans-serif" font-size="14" lengthAdjust="spacing" textLength="79" x="20" y="118.1426">Coordinador</text><ellipse cx="62.5" cy="52.1094" fill="#E2E2F0" rx="8" ry="8" style="stroke:#181818;stroke-width:0.5;"/><path d="M62.5,60.1094 L62.5,87.1094 M49.5,68.1094 L75.5,68.1094 M62.5,87.1094 L49.5,102.1094 M62.5,87.1094 L75.5,102.1094 " fill="none" style="stroke:#181818;stroke-width:0.5;"/><text fill="#000000" font-family="sans-serif" font-size="14" lengthAdjust="spacing" textLength="79" x="20" y="1363.3535">Coordinador</text><ellipse cx="62.5" cy="1374.9297" fill="#E2E2F0" rx="8" ry="8" style="stroke:#181818;stroke-width:0.5;"/><path d="M62.5,1382.9297 L62.5,1409.9297 M49.5,1390.9297 L75.5,1390.9297 M62.5,1409.9297 L49.5,1424.9297 M62.5,1409.9297 L75.5,1424.9297 " fill="none" style="stroke:#181818;stroke-width:0.5;"/><rect fill="#E2E2F0" height="49.2188" rx="2.5" ry="2.5" style="stroke:#181818;stroke-width:0.5;" width="183" x="291" y="71"/><text fill="#000000" font-family="sans-serif" font-size="14" lengthAdjust="spacing" textLength="169" x="298" y="92.5332">importarConvocatoriaPage</text><text fill="#000000" font-family="sans-serif" font-size="14" lengthAdjust="spacing" textLength="47" x="359" y="110.1426">(React)</text><rect fill="#E2E2F0" height="49.2188" rx="2.5" ry="2.5" style="stroke:#181818;stroke-width:0.5;" width="183" x="291" y="1348.8203"/><text fill="#000000" font-family="sans-serif" font-size="14" lengthAdjust="spacing" textLength="169" x="298" y="1370.3535">importarConvocatoriaPage</text><text fill="#000000" font-family="sans-serif" font-size="14" lengthAdjust="spacing" textLength="47" x="359" y="1387.9629">(React)</text><rect fill="#E2E2F0" height="49.2188" rx="2.5" ry="2.5" style="stroke:#181818;stroke-width:0.5;" width="160" x="649.5" y="71"/><text fill="#000000" font-family="sans-serif" font-size="14" lengthAdjust="spacing" textLength="146" x="656.5" y="92.5332">ConvocatoriaController</text><text fill="#000000" font-family="sans-serif" font-size="14" lengthAdjust="spacing" textLength="84" x="687.5" y="110.1426">(Spring Boot)</text><rect fill="#E2E2F0" height="49.2188" rx="2.5" ry="2.5" style="stroke:#181818;stroke-width:0.5;" width="160" x="649.5" y="1348.8203"/><text fill="#000000" font-family="sans-serif" font-size="14" lengthAdjust="spacing" textLength="146" x="656.5" y="1370.3535">ConvocatoriaController</text><text fill="#000000" font-family="sans-serif" font-size="14" lengthAdjust="spacing" textLength="84" x="687.5" y="1387.9629">(Spring Boot)</text><rect fill="#E2E2F0" height="31.6094" rx="2.5" ry="2.5" style="stroke:#181818;stroke-width:0.5;" width="104" x="890.5" y="88.6094"/><text fill="#000000" font-family="sans-serif" font-size="14" lengthAdjust="spacing" textLength="90" x="897.5" y="110.1426">SesionService</text><rect fill="#E2E2F0" height="31.6094" rx="2.5" ry="2.5" style="stroke:#181818;stroke-width:0.5;" width="104" x="890.5" y="1348.8203"/><text fill="#000000" font-family="sans-serif" font-size="14" lengthAdjust="spacing" textLength="90" x="897.5" y="1370.3535">SesionService</text><rect fill="#E2E2F0" height="31.6094" rx="2.5" ry="2.5" style="stroke:#181818;stroke-width:0.5;" width="218" x="1004.5" y="88.6094"/><text fill="#000000" font-family="sans-serif" font-size="14" lengthAdjust="spacing" textLength="204" x="1011.5" y="110.1426">ImportacionConvocatoriaService</text><rect fill="#E2E2F0" height="31.6094" rx="2.5" ry="2.5" style="stroke:#181818;stroke-width:0.5;" width="218" x="1004.5" y="1348.8203"/><text fill="#000000" font-family="sans-serif" font-size="14" lengthAdjust="spacing" textLength="204" x="1011.5" y="1370.3535">ImportacionConvocatoriaService</text><rect fill="#E2E2F0" height="31.6094" rx="2.5" ry="2.5" style="stroke:#181818;stroke-width:0.5;" width="143" x="1232.5" y="88.6094"/><text fill="#000000" font-family="sans-serif" font-size="14" lengthAdjust="spacing" textLength="129" x="1239.5" y="110.1426">PoliticaConvocatoria</text><rect fill="#E2E2F0" height="31.6094" rx="2.5" ry="2.5" style="stroke:#181818;stroke-width:0.5;" width="143" x="1232.5" y="1348.8203"/><text fill="#000000" font-family="sans-serif" font-size="14" lengthAdjust="spacing" textLength="129" x="1239.5" y="1370.3535">PoliticaConvocatoria</text><rect fill="#E2E2F0" height="31.6094" rx="2.5" ry="2.5" style="stroke:#181818;stroke-width:0.5;" width="234" x="1385.5" y="88.6094"/><text fill="#000000" font-family="sans-serif" font-size="14" lengthAdjust="spacing" textLength="220" x="1392.5" y="110.1426">RegistroImportadoresConvocatoria</text><rect fill="#E2E2F0" height="31.6094" rx="2.5" ry="2.5" style="stroke:#181818;stroke-width:0.5;" width="234" x="1385.5" y="1348.8203"/><text fill="#000000" font-family="sans-serif" font-size="14" lengthAdjust="spacing" textLength="220" x="1392.5" y="1370.3535">RegistroImportadoresConvocatoria</text><rect fill="#E2E2F0" height="49.2188" rx="2.5" ry="2.5" style="stroke:#181818;stroke-width:0.5;" width="166" x="1629.5" y="71"/><text fill="#000000" font-family="sans-serif" font-size="14" lengthAdjust="spacing" textLength="152" x="1636.5" y="92.5332">ImportadorConvocatoria</text><text fill="#000000" font-family="sans-serif" font-size="14" lengthAdjust="spacing" textLength="71" x="1677" y="110.1426">&#171;interface&#187;</text><rect fill="#E2E2F0" height="49.2188" rx="2.5" ry="2.5" style="stroke:#181818;stroke-width:0.5;" width="166" x="1629.5" y="1348.8203"/><text fill="#000000" font-family="sans-serif" font-size="14" lengthAdjust="spacing" textLength="152" x="1636.5" y="1370.3535">ImportadorConvocatoria</text><text fill="#000000" font-family="sans-serif" font-size="14" lengthAdjust="spacing" textLength="71" x="1677" y="1387.9629">&#171;interface&#187;</text><rect fill="#E2E2F0" height="31.6094" rx="2.5" ry="2.5" style="stroke:#181818;stroke-width:0.5;" width="158" x="1805.5" y="88.6094"/><text fill="#000000" font-family="sans-serif" font-size="14" lengthAdjust="spacing" textLength="144" x="1812.5" y="110.1426">ValidadorConvocatoria</text><rect fill="#E2E2F0" height="31.6094" rx="2.5" ry="2.5" style="stroke:#181818;stroke-width:0.5;" width="158" x="1805.5" y="1348.8203"/><text fill="#000000" font-family="sans-serif" font-size="14" lengthAdjust="spacing" textLength="144" x="1812.5" y="1370.3535">ValidadorConvocatoria</text><rect fill="#E2E2F0" height="31.6094" rx="2.5" ry="2.5" style="stroke:#181818;stroke-width:0.5;" width="166" x="1973.5" y="88.6094"/><text fill="#000000" font-family="sans-serif" font-size="14" lengthAdjust="spacing" textLength="152" x="1980.5" y="110.1426">ConvocatoriaRepository</text><rect fill="#E2E2F0" height="31.6094" rx="2.5" ry="2.5" style="stroke:#181818;stroke-width:0.5;" width="166" x="1973.5" y="1348.8203"/><text fill="#000000" font-family="sans-serif" font-size="14" lengthAdjust="spacing" textLength="152" x="1980.5" y="1370.3535">ConvocatoriaRepository</text><text fill="#000000" font-family="sans-serif" font-size="14" lengthAdjust="spacing" textLength="93" x="2406" y="118.1426">Base de Datos</text><path d="M2437.5,67.6094 C2437.5,57.6094 2455.5,57.6094 2455.5,57.6094 C2455.5,57.6094 2473.5,57.6094 2473.5,67.6094 L2473.5,93.6094 C2473.5,103.6094 2455.5,103.6094 2455.5,103.6094 C2455.5,103.6094 2437.5,103.6094 2437.5,93.6094 L2437.5,67.6094 " fill="#E2E2F0" style="stroke:#181818;stroke-width:1.5;"/><path d="M2437.5,67.6094 C2437.5,77.6094 2455.5,77.6094 2455.5,77.6094 C2455.5,77.6094 2473.5,77.6094 2473.5,67.6094 " fill="none" style="stroke:#181818;stroke-width:1.5;"/><text fill="#000000" font-family="sans-serif" font-size="14" lengthAdjust="spacing" textLength="93" x="2406" y="1363.3535">Base de Datos</text><path d="M2437.5,1376.4297 C2437.5,1366.4297 2455.5,1366.4297 2455.5,1366.4297 C2455.5,1366.4297 2473.5,1366.4297 2473.5,1376.4297 L2473.5,1402.4297 C2473.5,1412.4297 2455.5,1412.4297 2455.5,1412.4297 C2455.5,1412.4297 2437.5,1412.4297 2437.5,1402.4297 L2437.5,1376.4297 " fill="#E2E2F0" style="stroke:#181818;stroke-width:1.5;"/><path d="M2437.5,1376.4297 C2437.5,1386.4297 2455.5,1386.4297 2455.5,1386.4297 C2455.5,1386.4297 2473.5,1386.4297 2473.5,1376.4297 " fill="none" style="stroke:#181818;stroke-width:1.5;"/><polygon fill="#181818" points="370.5,149.5703,380.5,153.5703,370.5,157.5703,374.5,153.5703" style="stroke:#181818;stroke-width:1.0;"/><line style="stroke:#181818;stroke-width:1.0;" x1="62.5" x2="376.5" y1="153.5703" y2="153.5703"/><text fill="#000000" font-family="sans-serif" font-size="13" lengthAdjust="spacing" textLength="150" x="69.5" y="148.7139">Introduce archivo o enlace</text><polygon fill="#181818" points="717.5,196.2734,727.5,200.2734,717.5,204.2734,721.5,200.2734" style="stroke:#181818;stroke-width:1.0;"/><line style="stroke:#181818;stroke-width:1.0;" x1="382.5" x2="723.5" y1="200.2734" y2="200.2734"/><text fill="#000000" font-family="sans-serif" font-size="13" lengthAdjust="spacing" textLength="323" x="389.5" y="179.0654">POST /api/convocatorias/importaciones/previsualizacion</text><text fill="#000000" font-family="sans-serif" font-size="13" lengthAdjust="spacing" textLength="224" x="389.5" y="195.417">(FuenteConvocatoriaRequest) + cookie</text><polygon fill="#181818" points="930.5,226.625,940.5,230.625,930.5,234.625,934.5,230.625" style="stroke:#181818;stroke-width:1.0;"/><line style="stroke:#181818;stroke-width:1.0;" x1="729.5" x2="936.5" y1="230.625" y2="230.625"/><text fill="#000000" font-family="sans-serif" font-size="13" lengthAdjust="spacing" textLength="189" x="736.5" y="225.7686">exigirCoordinador(authentication)</text><polygon fill="#181818" points="740.5,256.9766,730.5,260.9766,740.5,264.9766,736.5,260.9766" style="stroke:#181818;stroke-width:1.0;"/><line style="stroke:#181818;stroke-width:1.0;stroke-dasharray:2.0,2.0;" x1="734.5" x2="941.5" y1="260.9766" y2="260.9766"/><text fill="#000000" font-family="sans-serif" font-size="13" lengthAdjust="spacing" textLength="140" x="746.5" y="256.1201">Coordinador autenticado</text><polygon fill="#181818" points="1101.5,287.3281,1111.5,291.3281,1101.5,295.3281,1105.5,291.3281" style="stroke:#181818;stroke-width:1.0;"/><line style="stroke:#181818;stroke-width:1.0;" x1="729.5" x2="1107.5" y1="291.3281" y2="291.3281"/><text fill="#000000" font-family="sans-serif" font-size="13" lengthAdjust="spacing" textLength="151" x="736.5" y="286.4717">previsualizar(fuente, actor)</text><polygon fill="#181818" points="1292,317.6797,1302,321.6797,1292,325.6797,1296,321.6797" style="stroke:#181818;stroke-width:1.0;"/><line style="stroke:#181818;stroke-width:1.0;" x1="1113.5" x2="1298" y1="321.6797" y2="321.6797"/><text fill="#000000" font-family="sans-serif" font-size="13" lengthAdjust="spacing" textLength="147" x="1120.5" y="316.8232">permitirImportacion(actor)</text><polygon fill="#181818" points="1490.5,348.0313,1500.5,352.0313,1490.5,356.0313,1494.5,352.0313" style="stroke:#181818;stroke-width:1.0;"/><line style="stroke:#181818;stroke-width:1.0;" x1="1113.5" x2="1496.5" y1="352.0313" y2="352.0313"/><text fill="#000000" font-family="sans-serif" font-size="13" lengthAdjust="spacing" textLength="151" x="1120.5" y="347.1748">obtenerCompatible(fuente)</text><polygon fill="#181818" points="1124.5,378.3828,1114.5,382.3828,1124.5,386.3828,1120.5,382.3828" style="stroke:#181818;stroke-width:1.0;"/><line style="stroke:#181818;stroke-width:1.0;stroke-dasharray:2.0,2.0;" x1="1118.5" x2="1501.5" y1="382.3828" y2="382.3828"/><text fill="#000000" font-family="sans-serif" font-size="13" lengthAdjust="spacing" textLength="135" x="1130.5" y="377.5264">ImportadorConvocatoria</text><polygon fill="#181818" points="1700.5,408.7344,1710.5,412.7344,1700.5,416.7344,1704.5,412.7344" style="stroke:#181818;stroke-width:1.0;"/><line style="stroke:#181818;stroke-width:1.0;" x1="1113.5" x2="1706.5" y1="412.7344" y2="412.7344"/><text fill="#000000" font-family="sans-serif" font-size="13" lengthAdjust="spacing" textLength="83" x="1120.5" y="407.8779">extraer(fuente)</text><polygon fill="#181818" points="1124.5,439.0859,1114.5,443.0859,1124.5,447.0859,1120.5,443.0859" style="stroke:#181818;stroke-width:1.0;"/><line style="stroke:#181818;stroke-width:1.0;stroke-dasharray:2.0,2.0;" x1="1118.5" x2="1711.5" y1="443.0859" y2="443.0859"/><text fill="#000000" font-family="sans-serif" font-size="13" lengthAdjust="spacing" textLength="187" x="1130.5" y="438.2295">DatosConvocatoriaNormalizados</text><polygon fill="#181818" points="1872.5,469.4375,1882.5,473.4375,1872.5,477.4375,1876.5,473.4375" style="stroke:#181818;stroke-width:1.0;"/><line style="stroke:#181818;stroke-width:1.0;" x1="1113.5" x2="1878.5" y1="473.4375" y2="473.4375"/><text fill="#000000" font-family="sans-serif" font-size="13" lengthAdjust="spacing" textLength="136" x="1120.5" y="468.5811">validarEstructura(datos)</text><polygon fill="#181818" points="2044.5,499.7891,2054.5,503.7891,2044.5,507.7891,2048.5,503.7891" style="stroke:#181818;stroke-width:1.0;"/><line style="stroke:#181818;stroke-width:1.0;" x1="1113.5" x2="2050.5" y1="503.7891" y2="503.7891"/><text fill="#000000" font-family="sans-serif" font-size="13" lengthAdjust="spacing" textLength="205" x="1120.5" y="498.9326">existeReferenciaExterna(referencia)</text><polygon fill="#181818" points="2443.5,546.4922,2453.5,550.4922,2443.5,554.4922,2447.5,550.4922" style="stroke:#181818;stroke-width:1.0;"/><line style="stroke:#181818;stroke-width:1.0;" x1="2056.5" x2="2449.5" y1="550.4922" y2="550.4922"/><text fill="#000000" font-family="sans-serif" font-size="13" lengthAdjust="spacing" textLength="288" x="2063.5" y="529.2842">SELECT EXISTS(SELECT 1 FROM convocatorias</text><text fill="#000000" font-family="sans-serif" font-size="13" lengthAdjust="spacing" textLength="186" x="2063.5" y="545.6357">WHERE referencia_externa = ?)</text><polygon fill="#181818" points="2067.5,576.8438,2057.5,580.8438,2067.5,584.8438,2063.5,580.8438" style="stroke:#181818;stroke-width:1.0;"/><line style="stroke:#181818;stroke-width:1.0;stroke-dasharray:2.0,2.0;" x1="2061.5" x2="2454.5" y1="580.8438" y2="580.8438"/><text fill="#000000" font-family="sans-serif" font-size="13" lengthAdjust="spacing" textLength="102" x="2073.5" y="575.9873">Existe / no existe</text><polygon fill="#181818" points="1124.5,607.1953,1114.5,611.1953,1124.5,615.1953,1120.5,611.1953" style="stroke:#181818;stroke-width:1.0;"/><line style="stroke:#181818;stroke-width:1.0;stroke-dasharray:2.0,2.0;" x1="1118.5" x2="2055.5" y1="611.1953" y2="611.1953"/><text fill="#000000" font-family="sans-serif" font-size="13" lengthAdjust="spacing" textLength="102" x="1130.5" y="606.3389">Existe / no existe</text><polygon fill="#181818" points="1872.5,637.5469,1882.5,641.5469,1872.5,645.5469,1876.5,641.5469" style="stroke:#181818;stroke-width:1.0;"/><line style="stroke:#181818;stroke-width:1.0;" x1="1113.5" x2="1878.5" y1="641.5469" y2="641.5469"/><text fill="#000000" font-family="sans-serif" font-size="13" lengthAdjust="spacing" textLength="195" x="1120.5" y="636.6904">validarDuplicado(estadoExistente)</text><polygon fill="#181818" points="740.5,667.8984,730.5,671.8984,740.5,675.8984,736.5,671.8984" style="stroke:#181818;stroke-width:1.0;"/><line style="stroke:#181818;stroke-width:1.0;stroke-dasharray:2.0,2.0;" x1="734.5" x2="1112.5" y1="671.8984" y2="671.8984"/><text fill="#000000" font-family="sans-serif" font-size="13" lengthAdjust="spacing" textLength="167" x="746.5" y="667.042">PrevisualizacionConvocatoria</text><polygon fill="#181818" points="393.5,698.25,383.5,702.25,393.5,706.25,389.5,702.25" style="stroke:#181818;stroke-width:1.0;"/><line style="stroke:#181818;stroke-width:1.0;stroke-dasharray:2.0,2.0;" x1="387.5" x2="728.5" y1="702.25" y2="702.25"/><text fill="#000000" font-family="sans-serif" font-size="13" lengthAdjust="spacing" textLength="281" x="399.5" y="697.3936">200 OK (PrevisualizacionConvocatoriaResponse)</text><polygon fill="#181818" points="73.5,728.6016,63.5,732.6016,73.5,736.6016,69.5,732.6016" style="stroke:#181818;stroke-width:1.0;"/><line style="stroke:#181818;stroke-width:1.0;stroke-dasharray:2.0,2.0;" x1="67.5" x2="381.5" y1="732.6016" y2="732.6016"/><text fill="#000000" font-family="sans-serif" font-size="13" lengthAdjust="spacing" textLength="221" x="79.5" y="727.7451">Presenta datos y solicita confirmacion</text><path d="M10,747.6016 L71,747.6016 L71,755.9531 L61,765.9531 L10,765.9531 L10,747.6016 " fill="#EEEEEE" style="stroke:#000000;stroke-width:1.5;"/><rect fill="none" height="585.2188" style="stroke:#000000;stroke-width:1.5;" width="2505" x="10" y="747.6016"/><text fill="#000000" font-family="sans-serif" font-size="13" font-weight="bold" lengthAdjust="spacing" textLength="16" x="25" y="762.0967">alt</text><text fill="#000000" font-family="sans-serif" font-size="11" font-weight="bold" lengthAdjust="spacing" textLength="129" x="86" y="761.0205">[Coordinador confirma]</text><polygon fill="#181818" points="370.5,784.3047,380.5,788.3047,370.5,792.3047,374.5,788.3047" style="stroke:#181818;stroke-width:1.0;"/><line style="stroke:#181818;stroke-width:1.0;" x1="62.5" x2="376.5" y1="788.3047" y2="788.3047"/><text fill="#000000" font-family="sans-serif" font-size="13" lengthAdjust="spacing" textLength="122" x="69.5" y="783.4482">Confirma importacion</text><polygon fill="#181818" points="717.5,831.0078,727.5,835.0078,717.5,839.0078,721.5,835.0078" style="stroke:#181818;stroke-width:1.0;"/><line style="stroke:#181818;stroke-width:1.0;" x1="382.5" x2="723.5" y1="835.0078" y2="835.0078"/><text fill="#000000" font-family="sans-serif" font-size="13" lengthAdjust="spacing" textLength="228" x="389.5" y="813.7998">POST /api/convocatorias/importaciones</text><text fill="#000000" font-family="sans-serif" font-size="13" lengthAdjust="spacing" textLength="232" x="389.5" y="830.1514">(ConfirmarImportacionRequest) + cookie</text><polygon fill="#181818" points="930.5,861.3594,940.5,865.3594,930.5,869.3594,934.5,865.3594" style="stroke:#181818;stroke-width:1.0;"/><line style="stroke:#181818;stroke-width:1.0;" x1="729.5" x2="936.5" y1="865.3594" y2="865.3594"/><text fill="#000000" font-family="sans-serif" font-size="13" lengthAdjust="spacing" textLength="189" x="736.5" y="860.5029">exigirCoordinador(authentication)</text><polygon fill="#181818" points="740.5,891.7109,730.5,895.7109,740.5,899.7109,736.5,895.7109" style="stroke:#181818;stroke-width:1.0;"/><line style="stroke:#181818;stroke-width:1.0;stroke-dasharray:2.0,2.0;" x1="734.5" x2="941.5" y1="895.7109" y2="895.7109"/><text fill="#000000" font-family="sans-serif" font-size="13" lengthAdjust="spacing" textLength="140" x="746.5" y="890.8545">Coordinador autenticado</text><polygon fill="#181818" points="1101.5,922.0625,1111.5,926.0625,1101.5,930.0625,1105.5,926.0625" style="stroke:#181818;stroke-width:1.0;"/><line style="stroke:#181818;stroke-width:1.0;" x1="729.5" x2="1107.5" y1="926.0625" y2="926.0625"/><text fill="#000000" font-family="sans-serif" font-size="13" lengthAdjust="spacing" textLength="173" x="736.5" y="921.2061">confirmar(datos, fuente, actor)</text><polygon fill="#181818" points="1292,952.4141,1302,956.4141,1292,960.4141,1296,956.4141" style="stroke:#181818;stroke-width:1.0;"/><line style="stroke:#181818;stroke-width:1.0;" x1="1113.5" x2="1298" y1="956.4141" y2="956.4141"/><text fill="#000000" font-family="sans-serif" font-size="13" lengthAdjust="spacing" textLength="147" x="1120.5" y="951.5576">permitirImportacion(actor)</text><polygon fill="#181818" points="1872.5,982.7656,1882.5,986.7656,1872.5,990.7656,1876.5,986.7656" style="stroke:#181818;stroke-width:1.0;"/><line style="stroke:#181818;stroke-width:1.0;" x1="1113.5" x2="1878.5" y1="986.7656" y2="986.7656"/><text fill="#000000" font-family="sans-serif" font-size="13" lengthAdjust="spacing" textLength="130" x="1120.5" y="981.9092">revalidar(datos, fuente)</text><polygon fill="#181818" points="2044.5,1013.1172,2054.5,1017.1172,2044.5,1021.1172,2048.5,1017.1172" style="stroke:#181818;stroke-width:1.0;"/><line style="stroke:#181818;stroke-width:1.0;" x1="1113.5" x2="2050.5" y1="1017.1172" y2="1017.1172"/><text fill="#000000" font-family="sans-serif" font-size="13" lengthAdjust="spacing" textLength="180" x="1120.5" y="1012.2607">guardarImportada(convocatoria)</text><polygon fill="#181818" points="2443.5,1092.5234,2453.5,1096.5234,2443.5,1100.5234,2447.5,1096.5234" style="stroke:#181818;stroke-width:1.0;"/><line style="stroke:#181818;stroke-width:1.0;" x1="2056.5" x2="2449.5" y1="1096.5234" y2="1096.5234"/><text fill="#000000" font-family="sans-serif" font-size="13" lengthAdjust="spacing" textLength="375" x="2063.5" y="1042.6123">INSERT INTO convocatorias (..., referencia_externa, incorporada)</text><text fill="#000000" font-family="sans-serif" font-size="13" lengthAdjust="spacing" textLength="121" x="2063.5" y="1058.9639">VALUES (..., ?, true)</text><text fill="#000000" font-family="sans-serif" font-size="13" lengthAdjust="spacing" textLength="203" x="2063.5" y="1075.3154">ON CONFLICT (referencia_externa)</text><text fill="#000000" font-family="sans-serif" font-size="13" lengthAdjust="spacing" textLength="233" x="2063.5" y="1091.667">DO UPDATE SET ..., incorporada = true</text><polygon fill="#181818" points="2067.5,1122.875,2057.5,1126.875,2067.5,1130.875,2063.5,1126.875" style="stroke:#181818;stroke-width:1.0;"/><line style="stroke:#181818;stroke-width:1.0;stroke-dasharray:2.0,2.0;" x1="2061.5" x2="2454.5" y1="1126.875" y2="1126.875"/><text fill="#000000" font-family="sans-serif" font-size="13" lengthAdjust="spacing" textLength="135" x="2073.5" y="1122.0186">Convocatoria importada</text><polygon fill="#181818" points="1124.5,1153.2266,1114.5,1157.2266,1124.5,1161.2266,1120.5,1157.2266" style="stroke:#181818;stroke-width:1.0;"/><line style="stroke:#181818;stroke-width:1.0;stroke-dasharray:2.0,2.0;" x1="1118.5" x2="2055.5" y1="1157.2266" y2="1157.2266"/><text fill="#000000" font-family="sans-serif" font-size="13" lengthAdjust="spacing" textLength="135" x="1130.5" y="1152.3701">Convocatoria importada</text><polygon fill="#181818" points="740.5,1183.5781,730.5,1187.5781,740.5,1191.5781,736.5,1187.5781" style="stroke:#181818;stroke-width:1.0;"/><line style="stroke:#181818;stroke-width:1.0;stroke-dasharray:2.0,2.0;" x1="734.5" x2="1112.5" y1="1187.5781" y2="1187.5781"/><text fill="#000000" font-family="sans-serif" font-size="13" lengthAdjust="spacing" textLength="114" x="746.5" y="1182.7217">ConvocatoriaDetalle</text><polygon fill="#181818" points="393.5,1213.9297,383.5,1217.9297,393.5,1221.9297,389.5,1217.9297" style="stroke:#181818;stroke-width:1.0;"/><line style="stroke:#181818;stroke-width:1.0;stroke-dasharray:2.0,2.0;" x1="387.5" x2="728.5" y1="1217.9297" y2="1217.9297"/><text fill="#000000" font-family="sans-serif" font-size="13" lengthAdjust="spacing" textLength="126" x="399.5" y="1213.0732">201 Created / 200 OK</text><polygon fill="#181818" points="73.5,1244.2813,63.5,1248.2813,73.5,1252.2813,69.5,1248.2813" style="stroke:#181818;stroke-width:1.0;"/><line style="stroke:#181818;stroke-width:1.0;stroke-dasharray:2.0,2.0;" x1="67.5" x2="381.5" y1="1248.2813" y2="1248.2813"/><text fill="#000000" font-family="sans-serif" font-size="13" lengthAdjust="spacing" textLength="291" x="79.5" y="1243.4248">Presenta CONVOCATORIA_ABIERTA actualizada</text><line style="stroke:#000000;stroke-width:1.0;stroke-dasharray:2.0,2.0;" x1="10" x2="2515" y1="1257.2813" y2="1257.2813"/><text fill="#000000" font-family="sans-serif" font-size="11" font-weight="bold" lengthAdjust="spacing" textLength="121" x="15" y="1268.7002">[Coordinador cancela]</text><polygon fill="#181818" points="370.5,1290.4688,380.5,1294.4688,370.5,1298.4688,374.5,1294.4688" style="stroke:#181818;stroke-width:1.0;"/><line style="stroke:#181818;stroke-width:1.0;" x1="62.5" x2="376.5" y1="1294.4688" y2="1294.4688"/><text fill="#000000" font-family="sans-serif" font-size="13" lengthAdjust="spacing" textLength="118" x="69.5" y="1289.6123">Cancela importacion</text><polygon fill="#181818" points="73.5,1320.8203,63.5,1324.8203,73.5,1328.8203,69.5,1324.8203" style="stroke:#181818;stroke-width:1.0;"/><line style="stroke:#181818;stroke-width:1.0;stroke-dasharray:2.0,2.0;" x1="67.5" x2="381.5" y1="1324.8203" y2="1324.8203"/><text fill="#000000" font-family="sans-serif" font-size="13" lengthAdjust="spacing" textLength="296" x="79.5" y="1319.9639">Mantiene CONVOCATORIA_ABIERTA sin cambios</text><!--SRC=[dLR1Rjiu4BthAmOvoLWdRlTej2biIq6DJQD0SjCz12WOQU8IbKajIHdDVlqEISccP3UxtHnYMdnlPZZp7cN3JOsGSBPLRCUWGj1OjYXApk0I-AwHoZ2rac8lIsQauYoAM4aBM4cfAYvO9LNKC6LuoHic35oS8zspBJwAE4VYJYw0QRXHKXWKrP0RScXjbAnhLCGi6iN55fPITln5muVK0ZMNea2rvoKwY7yoHArzSILjXBc6DBSUykvbpUaR2qaERJVAbo4unotNL7kNZ3g4-eJOWLxEraUKaF0ethtZr2xrp4gyldPyZyHHynzOpQintU7zZXbFAyJbs4ZDQVdILTZ8Y2ZiYMc4YwNzJm992AmT85b6KI03kBm-Z7KEQpkzgYqHc2g_yRq42IXgEa3KWoo1vZY7-wpOm8mrV5O6vUWPFquBzQnHkEUwfNFyxHwHB6v8gWQ7P_YhHMqcy1kKKdxd6546cyYhOGxuWs-v2igEMMk-KHYQhY749F98kEoh2uz8M0-jv36mqyiSmlfK_EnAcu9pYmtgK9RW9KDuL3iIbGeq6P-YUvtCGJvHRgJITmrL-bHZbsCIzHXNyw6UyreAO_SQibqnYg4wHEntXX7TwCDWTrBjt7ahgSF01x7DOU-MAgNwsjAqYiLsGu_Es4Wt6MqmnsTKxW9AVr01WiNgyCIUj96MaIpdKAItwMe3wP_hObF4tRUtS9Ddds2WeqVnvMEQft0Cz1LzR7WF7oPHidJ7z5MahWgOWP1THLtIi15dGA-UFccRseac9ctIX-UxJXzu1pECP3uOdjFSm6U_lta3sHyGlqRBKJTIQCfsj1u52OJjqcggYDu1TZpm0jhAbDC3wkKpfpdRg7JxrsRWY7ut0lhxwMsmwb0GMDen_jzTGDRl8uRsEJM_JV7B5u0b_TTBO92WKqVV4kMbFeNHNU3Z_yfzC6840gEfUuaDSvrGlBYtBLFLeMKLYyCUUqxeiFLTaUOR-jXaGqT1V7LrDJrZg2bmKKf5uIdwv54yB6u_fqK7_p05kWIG7cTtiChkRcxNvDZuD0eXaWm-toUBJKestu2Z1v79jpQIAtZWtb3rlTOg5XmidDChu1DNXjW43QFV9SVPZmpv5bOAcS6ABWXlpv7KV-ezQif3jbfiidoz-BfOhgdx2wiQRskg3Mjw2G_inqI9zR-vpuDUCT-uea_quu3Js-PyHPeBIhnxudJh4_qV]--></g></svg>