<svg xmlns="http://www.w3.org/2000/svg" xmlns:xlink="http://www.w3.org/1999/xlink" contentStyleType="text/css" data-diagram-type="DESCRIPTION" height="558px" preserveAspectRatio="none" style="width:1327px;height:558px;background:#FFFFFF;" version="1.1" viewBox="0 0 1327 558" width="1327px" zoomAndPan="magnify"><?plantuml 1.2026.6?><defs/><g><!--cluster editarPerfil--><g class="cluster" data-qualified-name="editarPerfil" data-source-line="4" id="ent0002"><path d="M249.5,6 L332.9619,6 A3.75,3.75 0 0 1 335.4619,8.5 L342.4619,29.6094 L804.5,29.6094 A2.5,2.5 0 0 1 807,32.1094 L807,540.5 A2.5,2.5 0 0 1 804.5,543 L249.5,543 A2.5,2.5 0 0 1 247,540.5 L247,8.5 A2.5,2.5 0 0 1 249.5,6" fill="none" style="stroke:#000000;stroke-width:1.5;"/><line style="stroke:#000000;stroke-width:1.5;" x1="247" x2="342.4619" y1="29.6094" y2="29.6094"/><text fill="#000000" font-family="sans-serif" font-size="14" font-weight="700" lengthAdjust="spacing" textLength="82.4619" x="251" y="22.5332">editarPerfil()</text></g><!--entity EditarPerfilView--><g class="entity" data-qualified-name="editarPerfil.EditarPerfilView" data-source-line="5" id="ent0003"><rect fill="#629EF9" height="37.6094" rx="2.5" ry="2.5" style="stroke:#181818;stroke-width:0.5;" width="118.8135" x="599.5" y="42"/><text fill="#000000" font-family="sans-serif" font-size="14" lengthAdjust="spacing" textLength="98.8135" x="609.5" y="66.5332">EditarPerfilView</text></g><!--entity PerfilController--><g class="entity" data-qualified-name="editarPerfil.PerfilController" data-source-line="6" id="ent0004"><rect fill="#B5BD68" height="37.6094" rx="2.5" ry="2.5" style="stroke:#181818;stroke-width:0.5;" width="112.5859" x="482.5" y="158"/><text fill="#000000" font-family="sans-serif" font-size="14" lengthAdjust="spacing" textLength="92.5859" x="492.5" y="182.5332">PerfilController</text></g><!--entity PerfilService--><g class="entity" data-qualified-name="editarPerfil.PerfilService" data-source-line="7" id="ent0005"><rect fill="#B5BD68" height="37.6094" rx="2.5" ry="2.5" style="stroke:#181818;stroke-width:0.5;" width="98.5791" x="263.5" y="274"/><text fill="#000000" font-family="sans-serif" font-size="14" lengthAdjust="spacing" textLength="78.5791" x="273.5" y="298.5332">PerfilService</text></g><!--entity SesionService--><g class="entity" data-qualified-name="editarPerfil.SesionService" data-source-line="8" id="ent0006"><rect fill="#B5BD68" height="37.6094" rx="2.5" ry="2.5" style="stroke:#181818;stroke-width:0.5;" width="109.4893" x="525.5" y="274"/><text fill="#000000" font-family="sans-serif" font-size="14" lengthAdjust="spacing" textLength="89.4893" x="535.5" y="298.5332">SesionService</text></g><!--entity PerfilRepository--><g class="entity" data-qualified-name="editarPerfil.PerfilRepository" data-source-line="9" id="ent0007"><rect fill="#F2AC4E" height="37.6094" rx="2.5" ry="2.5" style="stroke:#181818;stroke-width:0.5;" width="118.8135" x="321.5" y="390"/><text fill="#000000" font-family="sans-serif" font-size="14" lengthAdjust="spacing" textLength="98.8135" x="331.5" y="414.5332">PerfilRepository</text></g><!--entity Perfil--><g class="entity" data-qualified-name="editarPerfil.Perfil" data-source-line="10" id="ent0008"><rect fill="#F2AC4E" height="37.6094" rx="2.5" ry="2.5" style="stroke:#181818;stroke-width:0.5;" width="51.8965" x="355" y="489"/><text fill="#000000" font-family="sans-serif" font-size="14" lengthAdjust="spacing" textLength="31.8965" x="365" y="513.5332">Perfil</text></g><!--entity EstadoEntrada--><g class="entity" data-qualified-name="EstadoEntrada" data-source-line="3" id="ent0001"><rect fill="#CDEBA5" height="37.6094" rx="2.5" ry="2.5" style="stroke:#181818;stroke-width:0.5;" width="223.834" x="7" y="42"/><text fill="#000000" font-family="sans-serif" font-size="14" lengthAdjust="spacing" textLength="203.834" x="17" y="66.5332">:OPCIONES_PERFIL_ABIERTO</text></g><!--entity EstadoSalida--><g class="entity" data-qualified-name="EstadoSalida" data-source-line="13" id="ent0009"><rect fill="#CDEBA5" height="37.6094" rx="2.5" ry="2.5" style="stroke:#181818;stroke-width:0.5;" width="223.834" x="823" y="158"/><text fill="#000000" font-family="sans-serif" font-size="14" lengthAdjust="spacing" textLength="203.834" x="833" y="182.5332">:OPCIONES_PERFIL_ABIERTO</text></g><!--entity AbrirOpcionesPerfil--><g class="entity" data-qualified-name="AbrirOpcionesPerfil" data-source-line="14" id="ent0010"><rect fill="#CDEBA5" height="37.6094" rx="2.5" ry="2.5" style="stroke:#181818;stroke-width:0.5;" width="230.875" x="1082.5" y="158"/><text fill="#000000" font-family="sans-serif" font-size="14" lengthAdjust="spacing" textLength="210.875" x="1092.5" y="182.5332">:Collaboration AbrirOpcionesPerfil</text></g><!--link EstadoEntrada to EditarPerfilView--><g class="link" data-entity-1="ent0001" data-entity-2="ent0003" data-link-type="dependency" data-source-line="16" id="lnk11"><path d="M231.22,61 C343.08,61 505.61,61 594.17,61" fill="none" id="EstadoEntrada-to-EditarPerfilView" style="stroke:#181818;stroke-width:1;"/><polygon fill="#181818" points="599.17,61,590.17,57,594.17,61,590.17,65,599.17,61" style="stroke:#181818;stroke-width:1;stroke-linejoin:miter;stroke-miterlimit:10;"/><text fill="#000000" font-family="sans-serif" font-size="13" lengthAdjust="spacing" textLength="70.7954" x="380.25" y="54.4951">editarPerfil()</text></g><!--link EditarPerfilView to PerfilController--><g class="link" data-entity-1="ent0003" data-entity-2="ent0004" data-link-type="dependency" data-source-line="18" id="lnk12"><path d="M599.33,79.46 C552.44,93.19 495,110 495,110 C495,110 495,128 495,128 C495,128 506.531,140.5746 518.991,154.1646" fill="none" id="EditarPerfilView-to-PerfilController" style="stroke:#181818;stroke-width:1;"/><polygon fill="#181818" points="522.37,157.85,519.2362,148.513,518.991,154.1646,513.3395,153.9194,522.37,157.85" style="stroke:#181818;stroke-width:1;stroke-linejoin:miter;stroke-miterlimit:10;"/><text fill="#000000" font-family="sans-serif" font-size="13" lengthAdjust="spacing" textLength="119.939" x="496" y="124.4951">editarPerfil(id, datos)</text></g><!--link EditarPerfilView to PerfilController--><g class="link" data-entity-1="ent0003" data-entity-2="ent0004" data-link-type="dependency" data-source-line="21" id="lnk15"><path d="M648.34,80.03 C636.8,99.58 620,128 620,128 C620,128 596.8618,141.7116 573.9218,155.3016" fill="none" id="EditarPerfilView-to-PerfilController-1" style="stroke:#181818;stroke-width:1;"/><polygon fill="#181818" points="569.62,157.85,579.402,156.7042,573.9218,155.3016,575.3245,149.8214,569.62,157.85" style="stroke:#181818;stroke-width:1;stroke-linejoin:miter;stroke-miterlimit:10;"/><text fill="#000000" font-family="sans-serif" font-size="13" lengthAdjust="spacing" textLength="130.0508" x="631" y="124.4951">validarCambios(datos)</text></g><!--link PerfilController to SesionService--><g class="link" data-entity-1="ent0004" data-entity-2="ent0006" data-link-type="dependency" data-source-line="19" id="lnk13"><path d="M545.5,196.06 C553.13,217.28 564.0269,247.5954 571.7069,268.9354" fill="none" id="PerfilController-to-SesionService" style="stroke:#181818;stroke-width:1;"/><polygon fill="#181818" points="573.4,273.64,574.1161,263.8172,571.7069,268.9354,566.5887,266.5262,573.4,273.64" style="stroke:#181818;stroke-width:1;stroke-linejoin:miter;stroke-miterlimit:10;"/><text fill="#000000" font-family="sans-serif" font-size="13" lengthAdjust="spacing" textLength="209.5806" x="562" y="240.4951">obtenerSesionActual(authentication)</text></g><!--link PerfilController to PerfilService--><g class="link" data-entity-1="ent0004" data-entity-2="ent0005" data-link-type="dependency" data-source-line="20" id="lnk14"><path d="M482.25,189.74 C413.56,203.95 307,226 307,226 C307,226 307,244 307,244 C307,244 308.4094,255.2987 310.1094,268.8887" fill="none" id="PerfilController-to-PerfilService" style="stroke:#181818;stroke-width:1;"/><polygon fill="#181818" points="310.73,273.85,313.5819,264.4231,310.1094,268.8887,305.6438,265.4161,310.73,273.85" style="stroke:#181818;stroke-width:1;stroke-linejoin:miter;stroke-miterlimit:10;"/><text fill="#000000" font-family="sans-serif" font-size="13" lengthAdjust="spacing" textLength="240.6143" x="308" y="240.4951">actualizarPerfilPropio(investigador, datos)</text></g><!--link PerfilService to PerfilRepository--><g class="link" data-entity-1="ent0005" data-entity-2="ent0007" data-link-type="dependency" data-source-line="22" id="lnk16"><path d="M308.84,312.15 C305.73,325.74 302,342 302,342 C302,342 302,360 302,360 C302,360 324.4868,373.664 346.8568,387.254" fill="none" id="PerfilService-to-PerfilRepository" style="stroke:#181818;stroke-width:1;"/><polygon fill="#181818" points="351.13,389.85,345.515,381.7585,346.8568,387.254,341.3613,388.5957,351.13,389.85" style="stroke:#181818;stroke-width:1;stroke-linejoin:miter;stroke-miterlimit:10;"/><text fill="#000000" font-family="sans-serif" font-size="13" lengthAdjust="spacing" textLength="93.939" x="303" y="356.4951">obtenerPorId(id)</text></g><!--link PerfilService to PerfilRepository--><g class="link" data-entity-1="ent0005" data-entity-2="ent0007" data-link-type="dependency" data-source-line="23" id="lnk17"><path d="M346.02,312.01 C370.99,325.63 401,342 401,342 C401,342 401,360 401,360 C401,360 396.1424,371.6443 390.4824,385.2343" fill="none" id="PerfilService-to-PerfilRepository-1" style="stroke:#181818;stroke-width:1;"/><polygon fill="#181818" points="388.56,389.85,395.7128,383.0796,390.4824,385.2343,388.3277,380.0039,388.56,389.85" style="stroke:#181818;stroke-width:1;stroke-linejoin:miter;stroke-miterlimit:10;"/><text fill="#000000" font-family="sans-serif" font-size="13" lengthAdjust="spacing" textLength="106.9453" x="402" y="356.4951">actualizar(entidad)</text></g><!--link PerfilRepository to Perfil--><g class="link" data-entity-1="ent0007" data-entity-2="ent0008" data-link-type="association" data-source-line="24" id="lnk18"><path d="M381,428.24 C381,445.59 381,471.52 381,488.84" fill="none" id="PerfilRepository-Perfil" style="stroke:#181818;stroke-width:1;"/></g><!--link EditarPerfilView to EstadoSalida--><g class="link" data-entity-1="ent0003" data-entity-2="ent0009" data-link-type="dependency" data-source-line="25" id="lnk19"><path d="M702.73,80.06 C754.26,101.35 834.7587,134.5912 886.3987,155.9212" fill="none" id="EditarPerfilView-to-EstadoSalida" style="stroke:#181818;stroke-width:1;stroke-dasharray:7,7;"/><polygon fill="#181818" points="891.02,157.83,884.2287,150.6971,886.3987,155.9212,881.1746,158.0911,891.02,157.83" style="stroke:#181818;stroke-width:1;stroke-linejoin:miter;stroke-miterlimit:10;"/><text fill="#000000" font-family="sans-serif" font-size="13" lengthAdjust="spacing" textLength="130.7935" x="814" y="124.4951">continuarNavegacion()</text></g><!--link EditarPerfilView to AbrirOpcionesPerfil--><g class="link" data-entity-1="ent0003" data-entity-2="ent0010" data-link-type="dependency" data-source-line="26" id="lnk20"><path d="M718.85,71.77 C804.81,85.81 953,110 953,110 C953,110 1053.6823,137.1189 1126.2223,156.6689" fill="none" id="EditarPerfilView-to-AbrirOpcionesPerfil" style="stroke:#181818;stroke-width:1;stroke-dasharray:7,7;"/><polygon fill="#181818" points="1131.05,157.97,1123.4009,151.7658,1126.2223,156.6689,1121.3192,159.4902,1131.05,157.97" style="stroke:#181818;stroke-width:1;stroke-linejoin:miter;stroke-miterlimit:10;"/><text fill="#000000" font-family="sans-serif" font-size="13" lengthAdjust="spacing" textLength="119.2026" x="1019" y="124.4951">abrirOpcionesPerfil()</text></g><?plantuml-src dP9DJ-D038Rl-HLMkQGIvO0M13aWXUnKghIYKOku8YTZkXPX9l9CYyfg_plJbduaJT5gSvfOxsFxjUrUsTGe-0OL6_BBcg2srNBr4qL2fKSpgmZEif_gFhs2NZBEiz7uGKsVSpKPZduzf_SZDNaSzm0TAETHMsMyeCQenl8LPmIasQFa92zShLIzmq3Sxy6V2C9tKEpwybODRq4Tw9wOtjkoughGrpUm4MGsbBLLHVAjR4gou99EQARas9eJck5bclrGNtacL5l7tihoMrdqzt-dECMAmn2xu2pOnC8A-j0if8MmZEiolCbjggxJTCIZgB4X6CZWxcZA2JJt4w2M0WOwSEsnjpZMvw3HMzUFsaeO1BmnwWHiuScGRA9fwUTOnJZtlybuBjT6J-Hfh3K1NAFyiUqZ5rkpZTaio7cU1VEow-lOLwUjnNeJak5RmTR53LDVTG_8_M7iJELMHZeCvD-WlODuPLxZZjkh0hezi2CJ5nTtZHDAe0ncsCnH7d11CrnTHDpl1ZkE9dHq70py9m00?></g></svg>