<svg xmlns="http://www.w3.org/2000/svg" xmlns:xlink="http://www.w3.org/1999/xlink" contentStyleType="text/css" height="786px" preserveAspectRatio="none" style="width:1946px;height:786px;background:#FFFFFF;" version="1.1" viewBox="0 0 1946 786" width="1946px" zoomAndPan="magnify"><title>Diagrama de secuencia - crearPublicacion</title><defs/><g><text fill="#000000" font-family="sans-serif" font-size="14" font-weight="bold" lengthAdjust="spacing" textLength="280.9023" x="834.2727" y="29.5332">Diagrama de secuencia - crearPublicacion</text><line style="stroke:#181818;stroke-width:0.5;stroke-dasharray:5.0,5.0;" x1="46" x2="46" y1="121.2188" y2="704.25"/><line style="stroke:#181818;stroke-width:0.5;stroke-dasharray:5.0,5.0;" x1="298.3379" x2="298.3379" y1="121.2188" y2="704.25"/><line style="stroke:#181818;stroke-width:0.5;stroke-dasharray:5.0,5.0;" x1="685.7754" x2="685.7754" y1="121.2188" y2="704.25"/><line style="stroke:#181818;stroke-width:0.5;stroke-dasharray:5.0,5.0;" x1="918.7559" x2="918.7559" y1="121.2188" y2="704.25"/><line style="stroke:#181818;stroke-width:0.5;stroke-dasharray:5.0,5.0;" x1="1047.2451" x2="1047.2451" y1="121.2188" y2="704.25"/><line style="stroke:#181818;stroke-width:0.5;stroke-dasharray:5.0,5.0;" x1="1188.5273" x2="1188.5273" y1="121.2188" y2="704.25"/><line style="stroke:#181818;stroke-width:0.5;stroke-dasharray:5.0,5.0;" x1="1340.2578" x2="1340.2578" y1="121.2188" y2="704.25"/><line style="stroke:#181818;stroke-width:0.5;stroke-dasharray:5.0,5.0;" x1="1525.7744" x2="1525.7744" y1="121.2188" y2="704.25"/><line style="stroke:#181818;stroke-width:0.5;stroke-dasharray:5.0,5.0;" x1="1895.6138" x2="1895.6138" y1="121.2188" y2="704.25"/><text fill="#000000" font-family="sans-serif" font-size="14" lengthAdjust="spacing" textLength="76.2686" x="5" y="118.1426">Investigador</text><ellipse cx="46.1343" cy="52.1094" fill="#E2E2F0" rx="8" ry="8" style="stroke:#181818;stroke-width:0.5;"/><path d="M46.1343,60.1094 L46.1343,87.1094 M33.1343,68.1094 L59.1343,68.1094 M46.1343,87.1094 L33.1343,102.1094 M46.1343,87.1094 L59.1343,102.1094 " fill="none" style="stroke:#181818;stroke-width:0.5;"/><text fill="#000000" font-family="sans-serif" font-size="14" lengthAdjust="spacing" textLength="76.2686" x="5" y="717.7832">Investigador</text><ellipse cx="46.1343" cy="729.3594" fill="#E2E2F0" rx="8" ry="8" style="stroke:#181818;stroke-width:0.5;"/><path d="M46.1343,737.3594 L46.1343,764.3594 M33.1343,745.3594 L59.1343,745.3594 M46.1343,764.3594 L33.1343,779.3594 M46.1343,764.3594 L59.1343,779.3594 " fill="none" style="stroke:#181818;stroke-width:0.5;"/><rect fill="#E2E2F0" height="49.2188" rx="2.5" ry="2.5" style="stroke:#181818;stroke-width:0.5;" width="150.1924" x="223.3379" y="71"/><text fill="#000000" font-family="sans-serif" font-size="14" lengthAdjust="spacing" textLength="136.1924" x="230.3379" y="92.5332">crearPublicacionPage</text><text fill="#000000" font-family="sans-serif" font-size="14" lengthAdjust="spacing" textLength="45.8965" x="275.4858" y="110.1426">(React)</text><rect fill="#E2E2F0" height="49.2188" rx="2.5" ry="2.5" style="stroke:#181818;stroke-width:0.5;" width="150.1924" x="223.3379" y="703.25"/><text fill="#000000" font-family="sans-serif" font-size="14" lengthAdjust="spacing" textLength="136.1924" x="230.3379" y="724.7832">crearPublicacionPage</text><text fill="#000000" font-family="sans-serif" font-size="14" lengthAdjust="spacing" textLength="45.8965" x="275.4858" y="742.3926">(React)</text><rect fill="#E2E2F0" height="49.2188" rx="2.5" ry="2.5" style="stroke:#181818;stroke-width:0.5;" width="146.2891" x="612.7754" y="71"/><text fill="#000000" font-family="sans-serif" font-size="14" lengthAdjust="spacing" textLength="132.2891" x="619.7754" y="92.5332">PublicacionController</text><text fill="#000000" font-family="sans-serif" font-size="14" lengthAdjust="spacing" textLength="82.4824" x="644.6787" y="110.1426">(Spring Boot)</text><rect fill="#E2E2F0" height="49.2188" rx="2.5" ry="2.5" style="stroke:#181818;stroke-width:0.5;" width="146.2891" x="612.7754" y="703.25"/><text fill="#000000" font-family="sans-serif" font-size="14" lengthAdjust="spacing" textLength="132.2891" x="619.7754" y="724.7832">PublicacionController</text><text fill="#000000" font-family="sans-serif" font-size="14" lengthAdjust="spacing" textLength="82.4824" x="644.6787" y="742.3926">(Spring Boot)</text><rect fill="#E2E2F0" height="31.6094" rx="2.5" ry="2.5" style="stroke:#181818;stroke-width:0.5;" width="103.4893" x="867.7559" y="88.6094"/><text fill="#000000" font-family="sans-serif" font-size="14" lengthAdjust="spacing" textLength="89.4893" x="874.7559" y="110.1426">SesionService</text><rect fill="#E2E2F0" height="31.6094" rx="2.5" ry="2.5" style="stroke:#181818;stroke-width:0.5;" width="103.4893" x="867.7559" y="703.25"/><text fill="#000000" font-family="sans-serif" font-size="14" lengthAdjust="spacing" textLength="89.4893" x="874.7559" y="724.7832">SesionService</text><rect fill="#E2E2F0" height="31.6094" rx="2.5" ry="2.5" style="stroke:#181818;stroke-width:0.5;" width="132.2822" x="981.2451" y="88.6094"/><text fill="#000000" font-family="sans-serif" font-size="14" lengthAdjust="spacing" textLength="118.2822" x="988.2451" y="110.1426">PublicacionService</text><rect fill="#E2E2F0" height="31.6094" rx="2.5" ry="2.5" style="stroke:#181818;stroke-width:0.5;" width="132.2822" x="981.2451" y="703.25"/><text fill="#000000" font-family="sans-serif" font-size="14" lengthAdjust="spacing" textLength="118.2822" x="988.2451" y="724.7832">PublicacionService</text><rect fill="#E2E2F0" height="31.6094" rx="2.5" ry="2.5" style="stroke:#181818;stroke-width:0.5;" width="130.7305" x="1123.5273" y="88.6094"/><text fill="#000000" font-family="sans-serif" font-size="14" lengthAdjust="spacing" textLength="116.7305" x="1130.5273" y="110.1426">PoliticaPublicacion</text><rect fill="#E2E2F0" height="31.6094" rx="2.5" ry="2.5" style="stroke:#181818;stroke-width:0.5;" width="130.7305" x="1123.5273" y="703.25"/><text fill="#000000" font-family="sans-serif" font-size="14" lengthAdjust="spacing" textLength="116.7305" x="1130.5273" y="724.7832">PoliticaPublicacion</text><rect fill="#E2E2F0" height="31.6094" rx="2.5" ry="2.5" style="stroke:#181818;stroke-width:0.5;" width="152.5166" x="1264.2578" y="88.6094"/><text fill="#000000" font-family="sans-serif" font-size="14" lengthAdjust="spacing" textLength="138.5166" x="1271.2578" y="110.1426">PublicacionRepository</text><rect fill="#E2E2F0" height="31.6094" rx="2.5" ry="2.5" style="stroke:#181818;stroke-width:0.5;" width="152.5166" x="1264.2578" y="703.25"/><text fill="#000000" font-family="sans-serif" font-size="14" lengthAdjust="spacing" textLength="138.5166" x="1271.2578" y="724.7832">PublicacionRepository</text><rect fill="#E2E2F0" height="31.6094" rx="2.5" ry="2.5" style="stroke:#181818;stroke-width:0.5;" width="199.1992" x="1426.7744" y="88.6094"/><text fill="#000000" font-family="sans-serif" font-size="14" lengthAdjust="spacing" textLength="185.1992" x="1433.7744" y="110.1426">ArchivoPublicacionRepository</text><rect fill="#E2E2F0" height="31.6094" rx="2.5" ry="2.5" style="stroke:#181818;stroke-width:0.5;" width="199.1992" x="1426.7744" y="703.25"/><text fill="#000000" font-family="sans-serif" font-size="14" lengthAdjust="spacing" textLength="185.1992" x="1433.7744" y="724.7832">ArchivoPublicacionRepository</text><text fill="#000000" font-family="sans-serif" font-size="14" lengthAdjust="spacing" textLength="91.834" x="1847.6138" y="118.1426">Base de Datos</text><path d="M1878.5308,67.6094 C1878.5308,57.6094 1896.5308,57.6094 1896.5308,57.6094 C1896.5308,57.6094 1914.5308,57.6094 1914.5308,67.6094 L1914.5308,93.6094 C1914.5308,103.6094 1896.5308,103.6094 1896.5308,103.6094 C1896.5308,103.6094 1878.5308,103.6094 1878.5308,93.6094 L1878.5308,67.6094 " fill="#E2E2F0" style="stroke:#181818;stroke-width:1.5;"/><path d="M1878.5308,67.6094 C1878.5308,77.6094 1896.5308,77.6094 1896.5308,77.6094 C1896.5308,77.6094 1914.5308,77.6094 1914.5308,67.6094 " fill="none" style="stroke:#181818;stroke-width:1.5;"/><text fill="#000000" font-family="sans-serif" font-size="14" lengthAdjust="spacing" textLength="91.834" x="1847.6138" y="717.7832">Base de Datos</text><path d="M1878.5308,730.8594 C1878.5308,720.8594 1896.5308,720.8594 1896.5308,720.8594 C1896.5308,720.8594 1914.5308,720.8594 1914.5308,730.8594 L1914.5308,756.8594 C1914.5308,766.8594 1896.5308,766.8594 1896.5308,766.8594 C1896.5308,766.8594 1878.5308,766.8594 1878.5308,756.8594 L1878.5308,730.8594 " fill="#E2E2F0" style="stroke:#181818;stroke-width:1.5;"/><path d="M1878.5308,730.8594 C1878.5308,740.8594 1896.5308,740.8594 1896.5308,740.8594 C1896.5308,740.8594 1914.5308,740.8594 1914.5308,730.8594 " fill="none" style="stroke:#181818;stroke-width:1.5;"/><polygon fill="#181818" points="286.4341,149.5703,296.4341,153.5703,286.4341,157.5703,290.4341,153.5703" style="stroke:#181818;stroke-width:1;"/><line style="stroke:#181818;stroke-width:1;" x1="46.1343" x2="292.4341" y1="153.5703" y2="153.5703"/><text fill="#000000" font-family="sans-serif" font-size="13" lengthAdjust="spacing" textLength="150.2808" x="53.1343" y="148.7139">Solicita crearPublicacion()</text><polygon fill="#181818" points="673.9199,179.9219,683.9199,183.9219,673.9199,187.9219,677.9199,183.9219" style="stroke:#181818;stroke-width:1;"/><line style="stroke:#181818;stroke-width:1;" x1="298.4341" x2="679.9199" y1="183.9219" y2="183.9219"/><text fill="#000000" font-family="sans-serif" font-size="13" lengthAdjust="spacing" textLength="363.4858" x="305.4341" y="179.0654">POST /api/publicaciones + PublicacionCreateRequest + cookie</text><polygon fill="#181818" points="907.5005,210.2734,917.5005,214.2734,907.5005,218.2734,911.5005,214.2734" style="stroke:#181818;stroke-width:1;"/><line style="stroke:#181818;stroke-width:1;" x1="685.9199" x2="913.5005" y1="214.2734" y2="214.2734"/><text fill="#000000" font-family="sans-serif" font-size="13" lengthAdjust="spacing" textLength="209.5806" x="692.9199" y="209.417">obtenerSesionActual(authentication)</text><polygon fill="#181818" points="696.9199,240.625,686.9199,244.625,696.9199,248.625,692.9199,244.625" style="stroke:#181818;stroke-width:1;"/><line style="stroke:#181818;stroke-width:1;stroke-dasharray:2.0,2.0;" x1="690.9199" x2="918.5005" y1="244.625" y2="244.625"/><text fill="#000000" font-family="sans-serif" font-size="13" lengthAdjust="spacing" textLength="101.1753" x="702.9199" y="239.7686">Actor autenticado</text><polygon fill="#181818" points="1035.3862,270.9766,1045.3862,274.9766,1035.3862,278.9766,1039.3862,274.9766" style="stroke:#181818;stroke-width:1;"/><line style="stroke:#181818;stroke-width:1;" x1="685.9199" x2="1041.3862" y1="274.9766" y2="274.9766"/><text fill="#000000" font-family="sans-serif" font-size="13" lengthAdjust="spacing" textLength="106.2026" x="692.9199" y="270.1201">crear(datos, actor)</text><path d="M1193,287.9766 L1193,313.9766 L1436,313.9766 L1436,297.9766 L1426,287.9766 L1193,287.9766 " fill="#FEFFDD" style="stroke:#181818;stroke-width:0.5;"/><path d="M1426,287.9766 L1426,297.9766 L1436,297.9766 L1426,287.9766 " fill="#FEFFDD" style="stroke:#181818;stroke-width:0.5;"/><text fill="#000000" font-family="sans-serif" font-size="13" lengthAdjust="spacing" textLength="222.5488" x="1199" y="306.4717">Responsabilidad interna: permitirCrear</text><path d="M1052,324.3281 L1052,350.3281 L1341,350.3281 L1341,334.3281 L1331,324.3281 L1052,324.3281 " fill="#FEFFDD" style="stroke:#181818;stroke-width:0.5;"/><path d="M1331,324.3281 L1331,334.3281 L1341,334.3281 L1331,324.3281 " fill="#FEFFDD" style="stroke:#181818;stroke-width:0.5;"/><text fill="#000000" font-family="sans-serif" font-size="13" lengthAdjust="spacing" textLength="268.8232" x="1058" y="342.8232">Responsabilidad interna: validarYAsignarAutor</text><polygon fill="#181818" points="1328.5161,374.0313,1338.5161,378.0313,1328.5161,382.0313,1332.5161,378.0313" style="stroke:#181818;stroke-width:1;"/><line style="stroke:#181818;stroke-width:1;" x1="1047.3862" x2="1334.5161" y1="378.0313" y2="378.0313"/><text fill="#000000" font-family="sans-serif" font-size="13" lengthAdjust="spacing" textLength="101.1626" x="1054.3862" y="373.1748">save(publicacion)</text><polygon fill="#181818" points="1884.5308,437.0859,1894.5308,441.0859,1884.5308,445.0859,1888.5308,441.0859" style="stroke:#181818;stroke-width:1;"/><line style="stroke:#181818;stroke-width:1;" x1="1340.5161" x2="1890.5308" y1="441.0859" y2="441.0859"/><text fill="#000000" font-family="sans-serif" font-size="13" lengthAdjust="spacing" textLength="164.7217" x="1347.5161" y="403.5264">INSERT INTO publicaciones</text><text fill="#000000" font-family="sans-serif" font-size="13" lengthAdjust="spacing" textLength="315.0659" x="1347.5161" y="419.8779">(titulo, contenido, estado, visibilidad, autor_id, retirada)</text><text fill="#000000" font-family="sans-serif" font-size="13" lengthAdjust="spacing" textLength="163.2998" x="1347.5161" y="436.2295">VALUES (?, ?, ?, ?, ?, false)</text><polygon fill="#181818" points="1351.5161,467.4375,1341.5161,471.4375,1351.5161,475.4375,1347.5161,471.4375" style="stroke:#181818;stroke-width:1;"/><line style="stroke:#181818;stroke-width:1;stroke-dasharray:2.0,2.0;" x1="1345.5161" x2="1895.5308" y1="471.4375" y2="471.4375"/><text fill="#000000" font-family="sans-serif" font-size="13" lengthAdjust="spacing" textLength="109.8462" x="1357.5161" y="466.5811">Publicacion creada</text><polygon fill="#181818" points="1514.374,497.7891,1524.374,501.7891,1514.374,505.7891,1518.374,501.7891" style="stroke:#181818;stroke-width:1;"/><line style="stroke:#181818;stroke-width:1;" x1="1047.3862" x2="1520.374" y1="501.7891" y2="501.7891"/><text fill="#000000" font-family="sans-serif" font-size="13" lengthAdjust="spacing" textLength="193.6606" x="1054.3862" y="496.9326">save(publicacion, adjuntos, actor)</text><polygon fill="#181818" points="1884.5308,560.8438,1894.5308,564.8438,1884.5308,568.8438,1888.5308,564.8438" style="stroke:#181818;stroke-width:1;"/><line style="stroke:#181818;stroke-width:1;" x1="1526.374" x2="1890.5308" y1="564.8438" y2="564.8438"/><text fill="#000000" font-family="sans-serif" font-size="13" lengthAdjust="spacing" textLength="206.6289" x="1533.374" y="527.2842">INSERT INTO archivos_publicacion</text><text fill="#000000" font-family="sans-serif" font-size="13" lengthAdjust="spacing" textLength="346.1567" x="1533.374" y="543.6357">(publicacion_id, nombre, contenido, subido_por_id, retirado)</text><text fill="#000000" font-family="sans-serif" font-size="13" lengthAdjust="spacing" textLength="148.8462" x="1533.374" y="559.9873">VALUES (?, ?, ?, ?, false)</text><polygon fill="#181818" points="1537.374,591.1953,1527.374,595.1953,1537.374,599.1953,1533.374,595.1953" style="stroke:#181818;stroke-width:1;"/><line style="stroke:#181818;stroke-width:1;stroke-dasharray:2.0,2.0;" x1="1531.374" x2="1895.5308" y1="595.1953" y2="595.1953"/><text fill="#000000" font-family="sans-serif" font-size="13" lengthAdjust="spacing" textLength="141.6353" x="1543.374" y="590.3389">Adjuntos creados / vacio</text><polygon fill="#181818" points="696.9199,621.5469,686.9199,625.5469,696.9199,629.5469,692.9199,625.5469" style="stroke:#181818;stroke-width:1;"/><line style="stroke:#181818;stroke-width:1;stroke-dasharray:2.0,2.0;" x1="690.9199" x2="1046.3862" y1="625.5469" y2="625.5469"/><text fill="#000000" font-family="sans-serif" font-size="13" lengthAdjust="spacing" textLength="153.2134" x="702.9199" y="620.6904">Resultado del caso de uso</text><polygon fill="#181818" points="309.4341,651.8984,299.4341,655.8984,309.4341,659.8984,305.4341,655.8984" style="stroke:#181818;stroke-width:1;"/><line style="stroke:#181818;stroke-width:1;stroke-dasharray:2.0,2.0;" x1="303.4341" x2="684.9199" y1="655.8984" y2="655.8984"/><text fill="#000000" font-family="sans-serif" font-size="13" lengthAdjust="spacing" textLength="208.8442" x="315.4341" y="651.042">201 Created (PublicacionResponse)</text><polygon fill="#181818" points="57.1343,682.25,47.1343,686.25,57.1343,690.25,53.1343,686.25" style="stroke:#181818;stroke-width:1;"/><line style="stroke:#181818;stroke-width:1;stroke-dasharray:2.0,2.0;" x1="51.1343" x2="297.4341" y1="686.25" y2="686.25"/><text fill="#000000" font-family="sans-serif" font-size="13" lengthAdjust="spacing" textLength="228.2998" x="63.1343" y="681.3936">Presenta MI_PUBLICACION_ABIERTA</text><!--SRC=[TLDTJzmm47pFhrZnbAY7QFkOXrO9HwMJA9mkW5G9wRJdBCUsmKvjvoJ-VTTE00TwqkdYZvcrPsRjsNS4IyQznIU4bi2H6aWhHZW5PGdjUjXrh52nqHagRooiz86SvpssncOzMi-AUzGUJjuJrhYdUvrlI8Z52Q237zPeJxgTynBAkUnRqtLaXTZqblKUQcCcUjNpdDcG4r93zi2A8cHSELf_3etZTrZJiSmmuKHmM5VFH-jkg3UEnPxdY0xJERQowf4FvZXb0aHcYnvtw0XEwl0lkIpH6nTnophBqWZWzDkhhIKquPhiyKDuUP6ze093d2nXVTtSm1dsVDQ_0Sd19qWJaKAUDlHta2DbIndpXocJ0g7EQ7S9PYULoOxJIla1knm7_qWwcEbbiSZ6JJXzERwAxIIe4TIQjw8nc78KaRT1-m9YznMPDfx0ylxHWtcOOYd5SDSRxN377RVO0ejIgx64dkoJ16g33FkE_7hEKVO1muBzLJdUQxJL85V89bguQKYh18S7oXCBYooiX_rbNSBgghdOtCZdvXfcFak7U_P3PnPYQaY6MncAonY-1tOytMSHJ39sopAo96AmnU9UtrMNjnSDvDyNaFuUi7DKPCiwEZtUCCapcjfYgY9flOzYvF3szw3J21By_qJYkEssIHNHcioY4csUTfPcsjsma- -sdsirHxJEXSv4LDELHx7oFPCevUGtrIzDAD4FNN1SNba72bqOmE2cPfmzhg-Vly3u75h8PoyvjW-bJqo8wIkL22mvQNI4dwlj-hQ-N9rNvwlhgsrLhyIvwXy0]--></g></svg>