<?xml version="1.0" encoding="us-ascii" standalone="no"?><svg xmlns="http://www.w3.org/2000/svg" xmlns:xlink="http://www.w3.org/1999/xlink" contentStyleType="text/css" height="1003px" preserveAspectRatio="none" style="width:1943px;height:1003px;background:#FFFFFF;" version="1.1" viewBox="0 0 1943 1003" width="1943px" zoomAndPan="magnify"><defs/><g><text fill="#000000" font-family="sans-serif" font-size="14" font-weight="bold" lengthAdjust="spacing" textLength="348" x="798.5" y="29.5332">Diagrama de secuencia - Editar entregable propio</text><rect fill="none" height="417.1094" style="stroke:#000000;stroke-width:1.5;" width="1926" x="10" y="487.4375"/><line style="stroke:#181818;stroke-width:0.5;stroke-dasharray:5.0,5.0;" x1="61" x2="61" y1="121.2188" y2="921.5469"/><line style="stroke:#181818;stroke-width:0.5;stroke-dasharray:5.0,5.0;" x1="361" x2="361" y1="121.2188" y2="921.5469"/><line style="stroke:#181818;stroke-width:0.5;stroke-dasharray:5.0,5.0;" x1="653" x2="653" y1="121.2188" y2="921.5469"/><line style="stroke:#181818;stroke-width:0.5;stroke-dasharray:5.0,5.0;" x1="865.5" x2="865.5" y1="121.2188" y2="921.5469"/><line style="stroke:#181818;stroke-width:0.5;stroke-dasharray:5.0,5.0;" x1="1167.5" x2="1167.5" y1="121.2188" y2="921.5469"/><line style="stroke:#181818;stroke-width:0.5;stroke-dasharray:5.0,5.0;" x1="1433" x2="1433" y1="121.2188" y2="921.5469"/><line style="stroke:#181818;stroke-width:0.5;stroke-dasharray:5.0,5.0;" x1="1583" x2="1583" y1="121.2188" y2="921.5469"/><line style="stroke:#181818;stroke-width:0.5;stroke-dasharray:5.0,5.0;" x1="1876" x2="1876" y1="121.2188" y2="921.5469"/><text fill="#000000" font-family="sans-serif" font-size="14" lengthAdjust="spacing" textLength="77" x="20" y="118.1426">Investigador</text><ellipse cx="61.5" cy="52.1094" fill="#E2E2F0" rx="8" ry="8" style="stroke:#181818;stroke-width:0.5;"/><path d="M61.5,60.1094 L61.5,87.1094 M48.5,68.1094 L74.5,68.1094 M61.5,87.1094 L48.5,102.1094 M61.5,87.1094 L74.5,102.1094 " fill="none" style="stroke:#181818;stroke-width:0.5;"/><text fill="#000000" font-family="sans-serif" font-size="14" lengthAdjust="spacing" textLength="77" x="20" y="935.0801">Investigador</text><ellipse cx="61.5" cy="946.6563" fill="#E2E2F0" rx="8" ry="8" style="stroke:#181818;stroke-width:0.5;"/><path d="M61.5,954.6563 L61.5,981.6563 M48.5,962.6563 L74.5,962.6563 M61.5,981.6563 L48.5,996.6563 M61.5,981.6563 L74.5,996.6563 " fill="none" style="stroke:#181818;stroke-width:0.5;"/><rect fill="#E2E2F0" height="49.2188" rx="2.5" ry="2.5" style="stroke:#181818;stroke-width:0.5;" width="153" x="285" y="71"/><text fill="#000000" font-family="sans-serif" font-size="14" lengthAdjust="spacing" textLength="139" x="292" y="92.5332">EditarEntregableForm</text><text fill="#000000" font-family="sans-serif" font-size="14" lengthAdjust="spacing" textLength="47" x="338" y="110.1426">(React)</text><rect fill="#E2E2F0" height="49.2188" rx="2.5" ry="2.5" style="stroke:#181818;stroke-width:0.5;" width="153" x="285" y="920.5469"/><text fill="#000000" font-family="sans-serif" font-size="14" lengthAdjust="spacing" textLength="139" x="292" y="942.0801">EditarEntregableForm</text><text fill="#000000" font-family="sans-serif" font-size="14" lengthAdjust="spacing" textLength="47" x="338" y="959.6895">(React)</text><rect fill="#E2E2F0" height="49.2188" rx="2.5" ry="2.5" style="stroke:#181818;stroke-width:0.5;" width="145" x="581" y="71"/><text fill="#000000" font-family="sans-serif" font-size="14" lengthAdjust="spacing" textLength="131" x="588" y="92.5332">EntregableController</text><text fill="#000000" font-family="sans-serif" font-size="14" lengthAdjust="spacing" textLength="84" x="611.5" y="110.1426">(Spring Boot)</text><rect fill="#E2E2F0" height="49.2188" rx="2.5" ry="2.5" style="stroke:#181818;stroke-width:0.5;" width="145" x="581" y="920.5469"/><text fill="#000000" font-family="sans-serif" font-size="14" lengthAdjust="spacing" textLength="131" x="588" y="942.0801">EntregableController</text><text fill="#000000" font-family="sans-serif" font-size="14" lengthAdjust="spacing" textLength="84" x="611.5" y="959.6895">(Spring Boot)</text><rect fill="#E2E2F0" height="31.6094" rx="2.5" ry="2.5" style="stroke:#181818;stroke-width:0.5;" width="104" x="813.5" y="88.6094"/><text fill="#000000" font-family="sans-serif" font-size="14" lengthAdjust="spacing" textLength="90" x="820.5" y="110.1426">SesionService</text><rect fill="#E2E2F0" height="31.6094" rx="2.5" ry="2.5" style="stroke:#181818;stroke-width:0.5;" width="104" x="813.5" y="920.5469"/><text fill="#000000" font-family="sans-serif" font-size="14" lengthAdjust="spacing" textLength="90" x="820.5" y="942.0801">SesionService</text><rect fill="#E2E2F0" height="31.6094" rx="2.5" ry="2.5" style="stroke:#181818;stroke-width:0.5;" width="130" x="1102.5" y="88.6094"/><text fill="#000000" font-family="sans-serif" font-size="14" lengthAdjust="spacing" textLength="116" x="1109.5" y="110.1426">EntregableService</text><rect fill="#E2E2F0" height="31.6094" rx="2.5" ry="2.5" style="stroke:#181818;stroke-width:0.5;" width="130" x="1102.5" y="920.5469"/><text fill="#000000" font-family="sans-serif" font-size="14" lengthAdjust="spacing" textLength="116" x="1109.5" y="942.0801">EntregableService</text><rect fill="#E2E2F0" height="31.6094" rx="2.5" ry="2.5" style="stroke:#181818;stroke-width:0.5;" width="151" x="1358" y="88.6094"/><text fill="#000000" font-family="sans-serif" font-size="14" lengthAdjust="spacing" textLength="137" x="1365" y="110.1426">EntregableRepository</text><rect fill="#E2E2F0" height="31.6094" rx="2.5" ry="2.5" style="stroke:#181818;stroke-width:0.5;" width="151" x="1358" y="920.5469"/><text fill="#000000" font-family="sans-serif" font-size="14" lengthAdjust="spacing" textLength="137" x="1365" y="942.0801">EntregableRepository</text><rect fill="#E2E2F0" height="31.6094" rx="2.5" ry="2.5" style="stroke:#181818;stroke-width:0.5;" width="129" x="1519" y="88.6094"/><text fill="#000000" font-family="sans-serif" font-size="14" lengthAdjust="spacing" textLength="115" x="1526" y="110.1426">ArchivoRepository</text><rect fill="#E2E2F0" height="31.6094" rx="2.5" ry="2.5" style="stroke:#181818;stroke-width:0.5;" width="129" x="1519" y="920.5469"/><text fill="#000000" font-family="sans-serif" font-size="14" lengthAdjust="spacing" textLength="115" x="1526" y="942.0801">ArchivoRepository</text><text fill="#000000" font-family="sans-serif" font-size="14" lengthAdjust="spacing" textLength="93" x="1827" y="118.1426">Base de Datos</text><path d="M1858.5,67.6094 C1858.5,57.6094 1876.5,57.6094 1876.5,57.6094 C1876.5,57.6094 1894.5,57.6094 1894.5,67.6094 L1894.5,93.6094 C1894.5,103.6094 1876.5,103.6094 1876.5,103.6094 C1876.5,103.6094 1858.5,103.6094 1858.5,93.6094 L1858.5,67.6094 " fill="#E2E2F0" style="stroke:#181818;stroke-width:1.5;"/><path d="M1858.5,67.6094 C1858.5,77.6094 1876.5,77.6094 1876.5,77.6094 C1876.5,77.6094 1894.5,77.6094 1894.5,67.6094 " fill="none" style="stroke:#181818;stroke-width:1.5;"/><text fill="#000000" font-family="sans-serif" font-size="14" lengthAdjust="spacing" textLength="93" x="1827" y="935.0801">Base de Datos</text><path d="M1858.5,948.1563 C1858.5,938.1563 1876.5,938.1563 1876.5,938.1563 C1876.5,938.1563 1894.5,938.1563 1894.5,948.1563 L1894.5,974.1563 C1894.5,984.1563 1876.5,984.1563 1876.5,984.1563 C1876.5,984.1563 1858.5,984.1563 1858.5,974.1563 L1858.5,948.1563 " fill="#E2E2F0" style="stroke:#181818;stroke-width:1.5;"/><path d="M1858.5,948.1563 C1858.5,958.1563 1876.5,958.1563 1876.5,958.1563 C1876.5,958.1563 1894.5,958.1563 1894.5,948.1563 " fill="none" style="stroke:#181818;stroke-width:1.5;"/><polygon fill="#181818" points="349.5,149.5703,359.5,153.5703,349.5,157.5703,353.5,153.5703" style="stroke:#181818;stroke-width:1.0;"/><line style="stroke:#181818;stroke-width:1.0;" x1="61.5" x2="355.5" y1="153.5703" y2="153.5703"/><text fill="#000000" font-family="sans-serif" font-size="13" lengthAdjust="spacing" textLength="138" x="68.5" y="148.7139">Modifica datos y guarda</text><polygon fill="#181818" points="641.5,196.2734,651.5,200.2734,641.5,204.2734,645.5,200.2734" style="stroke:#181818;stroke-width:1.0;"/><line style="stroke:#181818;stroke-width:1.0;" x1="361.5" x2="647.5" y1="200.2734" y2="200.2734"/><text fill="#000000" font-family="sans-serif" font-size="13" lengthAdjust="spacing" textLength="161" x="368.5" y="179.0654">PATCH /api/entregables/{id}</text><text fill="#000000" font-family="sans-serif" font-size="13" lengthAdjust="spacing" textLength="268" x="368.5" y="195.417">EntregableUpdateRequest + archivo? + cookie</text><polygon fill="#181818" points="853.5,226.625,863.5,230.625,853.5,234.625,857.5,230.625" style="stroke:#181818;stroke-width:1.0;"/><line style="stroke:#181818;stroke-width:1.0;" x1="653.5" x2="859.5" y1="230.625" y2="230.625"/><text fill="#000000" font-family="sans-serif" font-size="13" lengthAdjust="spacing" textLength="188" x="660.5" y="225.7686">exigirInvestigador(authentication)</text><polygon fill="#181818" points="664.5,256.9766,654.5,260.9766,664.5,264.9766,660.5,260.9766" style="stroke:#181818;stroke-width:1.0;"/><line style="stroke:#181818;stroke-width:1.0;stroke-dasharray:2.0,2.0;" x1="658.5" x2="864.5" y1="260.9766" y2="260.9766"/><text fill="#000000" font-family="sans-serif" font-size="13" lengthAdjust="spacing" textLength="139" x="670.5" y="256.1201">Investigador autenticado</text><polygon fill="#181818" points="1155.5,287.3281,1165.5,291.3281,1155.5,295.3281,1159.5,291.3281" style="stroke:#181818;stroke-width:1.0;"/><line style="stroke:#181818;stroke-width:1.0;" x1="653.5" x2="1161.5" y1="291.3281" y2="291.3281"/><text fill="#000000" font-family="sans-serif" font-size="13" lengthAdjust="spacing" textLength="299" x="660.5" y="286.4717">actualizarPropio(id, cambios, archivo?, investigador)</text><polygon fill="#181818" points="1421.5,317.6797,1431.5,321.6797,1421.5,325.6797,1425.5,321.6797" style="stroke:#181818;stroke-width:1.0;"/><line style="stroke:#181818;stroke-width:1.0;" x1="1167.5" x2="1427.5" y1="321.6797" y2="321.6797"/><text fill="#000000" font-family="sans-serif" font-size="13" lengthAdjust="spacing" textLength="242" x="1174.5" y="316.8232">obtenerActivoPorIdYAutor(id, investigador)</text><polygon fill="#181818" points="1864.5,364.3828,1874.5,368.3828,1864.5,372.3828,1868.5,368.3828" style="stroke:#181818;stroke-width:1.0;"/><line style="stroke:#181818;stroke-width:1.0;" x1="1433.5" x2="1870.5" y1="368.3828" y2="368.3828"/><text fill="#000000" font-family="sans-serif" font-size="13" lengthAdjust="spacing" textLength="172" x="1440.5" y="347.1748">SELECT * FROM entregables</text><text fill="#000000" font-family="sans-serif" font-size="13" lengthAdjust="spacing" textLength="311" x="1440.5" y="363.5264">WHERE id = ? AND autor_id = ? AND retirado = false</text><polygon fill="#181818" points="1444.5,394.7344,1434.5,398.7344,1444.5,402.7344,1440.5,398.7344" style="stroke:#181818;stroke-width:1.0;"/><line style="stroke:#181818;stroke-width:1.0;stroke-dasharray:2.0,2.0;" x1="1438.5" x2="1875.5" y1="398.7344" y2="398.7344"/><text fill="#000000" font-family="sans-serif" font-size="13" lengthAdjust="spacing" textLength="142" x="1450.5" y="393.8779">Entregable propio / vacio</text><polygon fill="#181818" points="1178.5,425.0859,1168.5,429.0859,1178.5,433.0859,1174.5,429.0859" style="stroke:#181818;stroke-width:1.0;"/><line style="stroke:#181818;stroke-width:1.0;stroke-dasharray:2.0,2.0;" x1="1172.5" x2="1432.5" y1="429.0859" y2="429.0859"/><text fill="#000000" font-family="sans-serif" font-size="13" lengthAdjust="spacing" textLength="142" x="1184.5" y="424.2295">Entregable propio / vacio</text><line style="stroke:#181818;stroke-width:1.0;" x1="1167.5" x2="1209.5" y1="459.4375" y2="459.4375"/><line style="stroke:#181818;stroke-width:1.0;" x1="1209.5" x2="1209.5" y1="459.4375" y2="472.4375"/><line style="stroke:#181818;stroke-width:1.0;" x1="1168.5" x2="1209.5" y1="472.4375" y2="472.4375"/><polygon fill="#181818" points="1178.5,468.4375,1168.5,472.4375,1178.5,476.4375,1174.5,472.4375" style="stroke:#181818;stroke-width:1.0;"/><text fill="#000000" font-family="sans-serif" font-size="13" lengthAdjust="spacing" textLength="146" x="1174.5" y="454.5811">aplicarCambiosYValidar()</text><path d="M10,487.4375 L71,487.4375 L71,495.7891 L61,505.7891 L10,505.7891 L10,487.4375 " fill="#EEEEEE" style="stroke:#000000;stroke-width:1.5;"/><rect fill="none" height="417.1094" style="stroke:#000000;stroke-width:1.5;" width="1926" x="10" y="487.4375"/><text fill="#000000" font-family="sans-serif" font-size="13" font-weight="bold" lengthAdjust="spacing" textLength="16" x="25" y="501.9326">alt</text><text fill="#000000" font-family="sans-serif" font-size="11" font-weight="bold" lengthAdjust="spacing" textLength="244" x="86" y="500.8564">[No es autor, esta retirado o datos invalidos]</text><polygon fill="#181818" points="664.5,524.1406,654.5,528.1406,664.5,532.1406,660.5,528.1406" style="stroke:#181818;stroke-width:1.0;"/><line style="stroke:#181818;stroke-width:1.0;stroke-dasharray:2.0,2.0;" x1="658.5" x2="1166.5" y1="528.1406" y2="528.1406"/><text fill="#000000" font-family="sans-serif" font-size="13" lengthAdjust="spacing" textLength="490" x="670.5" y="523.2842">AccesoDenegadoException / RecursoNoEncontradoException / ValidacionException</text><polygon fill="#181818" points="372.5,554.4922,362.5,558.4922,372.5,562.4922,368.5,558.4922" style="stroke:#181818;stroke-width:1.0;"/><line style="stroke:#181818;stroke-width:1.0;stroke-dasharray:2.0,2.0;" x1="366.5" x2="652.5" y1="558.4922" y2="558.4922"/><text fill="#000000" font-family="sans-serif" font-size="13" lengthAdjust="spacing" textLength="87" x="378.5" y="553.6357">403 / 404 / 400</text><line style="stroke:#000000;stroke-width:1.0;stroke-dasharray:2.0,2.0;" x1="10" x2="1936" y1="567.4922" y2="567.4922"/><text fill="#000000" font-family="sans-serif" font-size="11" font-weight="bold" lengthAdjust="spacing" textLength="99" x="15" y="578.9111">[Cambios validos]</text><polygon fill="#181818" points="1421.5,600.6797,1431.5,604.6797,1421.5,608.6797,1425.5,604.6797" style="stroke:#181818;stroke-width:1.0;"/><line style="stroke:#181818;stroke-width:1.0;" x1="1167.5" x2="1427.5" y1="604.6797" y2="604.6797"/><text fill="#000000" font-family="sans-serif" font-size="13" lengthAdjust="spacing" textLength="111" x="1174.5" y="599.8232">guardar(entregable)</text><polygon fill="#181818" points="1864.5,647.3828,1874.5,651.3828,1864.5,655.3828,1868.5,651.3828" style="stroke:#181818;stroke-width:1.0;"/><line style="stroke:#181818;stroke-width:1.0;" x1="1433.5" x2="1870.5" y1="651.3828" y2="651.3828"/><text fill="#000000" font-family="sans-serif" font-size="13" lengthAdjust="spacing" textLength="211" x="1440.5" y="630.1748">UPDATE entregables SET titulo = ?,</text><text fill="#000000" font-family="sans-serif" font-size="13" lengthAdjust="spacing" textLength="353" x="1440.5" y="646.5264">descripcion = ?, estado = ? WHERE id = ? AND autor_id = ?</text><polygon fill="#181818" points="1444.5,677.7344,1434.5,681.7344,1444.5,685.7344,1440.5,681.7344" style="stroke:#181818;stroke-width:1.0;"/><line style="stroke:#181818;stroke-width:1.0;stroke-dasharray:2.0,2.0;" x1="1438.5" x2="1875.5" y1="681.7344" y2="681.7344"/><text fill="#000000" font-family="sans-serif" font-size="13" lengthAdjust="spacing" textLength="132" x="1450.5" y="676.8779">Entregable actualizado</text><polygon fill="#181818" points="1571.5,708.0859,1581.5,712.0859,1571.5,716.0859,1575.5,712.0859" style="stroke:#181818;stroke-width:1.0;"/><line style="stroke:#181818;stroke-width:1.0;" x1="1167.5" x2="1577.5" y1="712.0859" y2="712.0859"/><text fill="#000000" font-family="sans-serif" font-size="13" lengthAdjust="spacing" textLength="330" x="1174.5" y="707.2295">agregarVersionOpcional(entregable, archivo, investigador)</text><polygon fill="#181818" points="1864.5,771.1406,1874.5,775.1406,1864.5,779.1406,1868.5,775.1406" style="stroke:#181818;stroke-width:1.0;"/><line style="stroke:#181818;stroke-width:1.0;" x1="1583.5" x2="1870.5" y1="775.1406" y2="775.1406"/><text fill="#000000" font-family="sans-serif" font-size="13" lengthAdjust="spacing" textLength="197" x="1590.5" y="737.5811">INSERT INTO archivos_entregable</text><text fill="#000000" font-family="sans-serif" font-size="13" lengthAdjust="spacing" textLength="269" x="1590.5" y="753.9326">(entregable_id, version, archivo, subido_por_id)</text><text fill="#000000" font-family="sans-serif" font-size="13" lengthAdjust="spacing" textLength="208" x="1590.5" y="770.2842">VALUES (?, siguiente_version, ?, ?)</text><polygon fill="#181818" points="1594.5,801.4922,1584.5,805.4922,1594.5,809.4922,1590.5,805.4922" style="stroke:#181818;stroke-width:1.0;"/><line style="stroke:#181818;stroke-width:1.0;stroke-dasharray:2.0,2.0;" x1="1588.5" x2="1875.5" y1="805.4922" y2="805.4922"/><text fill="#000000" font-family="sans-serif" font-size="13" lengthAdjust="spacing" textLength="120" x="1600.5" y="800.6357">Nueva version / vacio</text><polygon fill="#181818" points="664.5,831.8438,654.5,835.8438,664.5,839.8438,660.5,835.8438" style="stroke:#181818;stroke-width:1.0;"/><line style="stroke:#181818;stroke-width:1.0;stroke-dasharray:2.0,2.0;" x1="658.5" x2="1166.5" y1="835.8438" y2="835.8438"/><text fill="#000000" font-family="sans-serif" font-size="13" lengthAdjust="spacing" textLength="160" x="670.5" y="830.9873">EntregableDetalleResponse</text><polygon fill="#181818" points="372.5,862.1953,362.5,866.1953,372.5,870.1953,368.5,866.1953" style="stroke:#181818;stroke-width:1.0;"/><line style="stroke:#181818;stroke-width:1.0;stroke-dasharray:2.0,2.0;" x1="366.5" x2="652.5" y1="866.1953" y2="866.1953"/><text fill="#000000" font-family="sans-serif" font-size="13" lengthAdjust="spacing" textLength="44" x="378.5" y="861.3389">200 OK</text><polygon fill="#181818" points="72.5,892.5469,62.5,896.5469,72.5,900.5469,68.5,896.5469" style="stroke:#181818;stroke-width:1.0;"/><line style="stroke:#181818;stroke-width:1.0;stroke-dasharray:2.0,2.0;" x1="66.5" x2="360.5" y1="896.5469" y2="896.5469"/><text fill="#000000" font-family="sans-serif" font-size="13" lengthAdjust="spacing" textLength="276" x="78.5" y="891.6904">Presenta ENTREGABLE_ABIERTO actualizado</text><!--SRC=[VLHTRzem57tFhxZg4snKeArFI1iA95tHMa10ErL2GXV7JQsbTcOxgDsq_xvh1_A1obuWSSwvFlUSQrjXCmwHm5JZ2qB2mN1MSCa4mYN4YR2eWKkhUOexGkPQvK85oApIC9LxRgn8CL4wo55RmKIEqi95IOmhthNIBnlPMN8YTYy03Lnh9IsNoGclOapeirPPnZNnLhaMCeMnKWTsc8isSSMDK7B5zLumxY7bohdoRQH_FWTTybmPGVs-URHxRKD3pPx5NftW6gj1WXPtQ3XSZDqlkHoXLSRZed4GD8s4ow-LEKEuKubu4eoISGHuWxH0dM1mH3WqcJ64HRYUt40VSz6lupBzFoBvkv5rC_Sv5QAMVXMq8Nm4B5MEw94fzLFmWAgvegLzG-2l8XMwAR23XNscFKYL9KWtAA5mUPJIweR09JPHTMdlzn1e60hCn6_K2pzM7P7qWE7BJYZJgwJrG3GAkkqytLLovWv1xMWBhaDc2RvGUfeyXWNbuCkrkOxWYD5u2AluDfwiuGDSB-TtZHat6_dZ9bx681Bu0YC8Pv7hGkbjOq5pApJLf8Kdp0mFeh4te5GKdnuOwCCU6HsSKa3JXFFOHgErPNb6Nkf9QTBZ0zcNeEvq0ymip1HmKshjqPF5MgOw313PuIZA101L_MDm8MFSg8ZCT7R5hupdBc4IjAHBGHirKx5axc2UV2vba6PPhL9z7tThcgy6dmbzDRZoluE0atDmw0NU4NRqinnwtQb3wXAi6URz8WhNSJD5odSDLjWYSo6DUXkPSCEqo9rCl-8jyX6EuB-9qrxdugr6cCQx9Rnn_2crrE7r0zVkfCoz1CmQxLJJVZgmq2nqR7OwMyNBDVsjvqUUsTR5wCAiNxRk4EpBZHkxc697PczptsDt8n_2s_ju1HronOYq45I0RoiQhOwwjGkjtcO5t-DnXsfstvckshM8MypSnMfo9Udil3SgdmO3c7-dJ_LDHz-RLmlTUPeR4eeGpzRB-5iulestuNXAtinRmH3x7m00]--></g></svg>