<svg xmlns="http://www.w3.org/2000/svg" xmlns:xlink="http://www.w3.org/1999/xlink" contentStyleType="text/css" height="1003px" preserveAspectRatio="none" style="width:1952px;height:1003px;background:#FFFFFF;" version="1.1" viewBox="0 0 1952 1003" width="1952px" zoomAndPan="magnify"><title>Diagrama de secuencia - Editar entregable propio</title><defs/><g><text fill="#000000" font-family="sans-serif" font-size="14" font-weight="bold" lengthAdjust="spacing" textLength="329.875" x="812.2341" y="29.5332">Diagrama de secuencia - Editar entregable propio</text><rect fill="none" height="417.1094" style="stroke:#000000;stroke-width:1.5;" width="1935.3433" x="10" y="487.4375"/><line style="stroke:#181818;stroke-width:0.5;stroke-dasharray:5.0,5.0;" x1="61" x2="61" y1="121.2188" y2="921.5469"/><line style="stroke:#181818;stroke-width:0.5;stroke-dasharray:5.0,5.0;" x1="361.3911" x2="361.3911" y1="121.2188" y2="921.5469"/><line style="stroke:#181818;stroke-width:0.5;stroke-dasharray:5.0,5.0;" x1="655.2295" x2="655.2295" y1="121.2188" y2="921.5469"/><line style="stroke:#181818;stroke-width:0.5;stroke-dasharray:5.0,5.0;" x1="888.2686" x2="888.2686" y1="121.2188" y2="921.5469"/><line style="stroke:#181818;stroke-width:0.5;stroke-dasharray:5.0,5.0;" x1="1166.3076" x2="1166.3076" y1="121.2188" y2="921.5469"/><line style="stroke:#181818;stroke-width:0.5;stroke-dasharray:5.0,5.0;" x1="1405.5283" x2="1405.5283" y1="121.2188" y2="921.5469"/><line style="stroke:#181818;stroke-width:0.5;stroke-dasharray:5.0,5.0;" x1="1587.1621" x2="1587.1621" y1="121.2188" y2="921.5469"/><line style="stroke:#181818;stroke-width:0.5;stroke-dasharray:5.0,5.0;" x1="1885.5093" x2="1885.5093" y1="121.2188" y2="921.5469"/><text fill="#000000" font-family="sans-serif" font-size="14" lengthAdjust="spacing" textLength="76.2686" x="20" y="118.1426">Investigador</text><ellipse cx="61.1343" cy="52.1094" fill="#E2E2F0" rx="8" ry="8" style="stroke:#181818;stroke-width:0.5;"/><path d="M61.1343,60.1094 L61.1343,87.1094 M48.1343,68.1094 L74.1343,68.1094 M61.1343,87.1094 L48.1343,102.1094 M61.1343,87.1094 L74.1343,102.1094 " fill="none" style="stroke:#181818;stroke-width:0.5;"/><text fill="#000000" font-family="sans-serif" font-size="14" lengthAdjust="spacing" textLength="76.2686" x="20" y="935.0801">Investigador</text><ellipse cx="61.1343" cy="946.6563" fill="#E2E2F0" rx="8" ry="8" style="stroke:#181818;stroke-width:0.5;"/><path d="M61.1343,954.6563 L61.1343,981.6563 M48.1343,962.6563 L74.1343,962.6563 M61.1343,981.6563 L48.1343,996.6563 M61.1343,981.6563 L74.1343,996.6563 " fill="none" style="stroke:#181818;stroke-width:0.5;"/><rect fill="#E2E2F0" height="49.2188" rx="2.5" ry="2.5" style="stroke:#181818;stroke-width:0.5;" width="150.9512" x="286.3911" y="71"/><text fill="#000000" font-family="sans-serif" font-size="14" lengthAdjust="spacing" textLength="136.9512" x="293.3911" y="92.5332">EditarEntregableForm</text><text fill="#000000" font-family="sans-serif" font-size="14" lengthAdjust="spacing" textLength="45.8965" x="338.9185" y="110.1426">(React)</text><rect fill="#E2E2F0" height="49.2188" rx="2.5" ry="2.5" style="stroke:#181818;stroke-width:0.5;" width="150.9512" x="286.3911" y="920.5469"/><text fill="#000000" font-family="sans-serif" font-size="14" lengthAdjust="spacing" textLength="136.9512" x="293.3911" y="942.0801">EditarEntregableForm</text><text fill="#000000" font-family="sans-serif" font-size="14" lengthAdjust="spacing" textLength="45.8965" x="338.9185" y="959.6895">(React)</text><rect fill="#E2E2F0" height="49.2188" rx="2.5" ry="2.5" style="stroke:#181818;stroke-width:0.5;" width="142.4063" x="584.2295" y="71"/><text fill="#000000" font-family="sans-serif" font-size="14" lengthAdjust="spacing" textLength="128.4063" x="591.2295" y="92.5332">EntregableController</text><text fill="#000000" font-family="sans-serif" font-size="14" lengthAdjust="spacing" textLength="82.4824" x="614.1914" y="110.1426">(Spring Boot)</text><rect fill="#E2E2F0" height="49.2188" rx="2.5" ry="2.5" style="stroke:#181818;stroke-width:0.5;" width="142.4063" x="584.2295" y="920.5469"/><text fill="#000000" font-family="sans-serif" font-size="14" lengthAdjust="spacing" textLength="128.4063" x="591.2295" y="942.0801">EntregableController</text><text fill="#000000" font-family="sans-serif" font-size="14" lengthAdjust="spacing" textLength="82.4824" x="614.1914" y="959.6895">(Spring Boot)</text><rect fill="#E2E2F0" height="31.6094" rx="2.5" ry="2.5" style="stroke:#181818;stroke-width:0.5;" width="103.4893" x="837.2686" y="88.6094"/><text fill="#000000" font-family="sans-serif" font-size="14" lengthAdjust="spacing" textLength="89.4893" x="844.2686" y="110.1426">SesionService</text><rect fill="#E2E2F0" height="31.6094" rx="2.5" ry="2.5" style="stroke:#181818;stroke-width:0.5;" width="103.4893" x="837.2686" y="920.5469"/><text fill="#000000" font-family="sans-serif" font-size="14" lengthAdjust="spacing" textLength="89.4893" x="844.2686" y="942.0801">SesionService</text><rect fill="#E2E2F0" height="31.6094" rx="2.5" ry="2.5" style="stroke:#181818;stroke-width:0.5;" width="128.3994" x="1102.3076" y="88.6094"/><text fill="#000000" font-family="sans-serif" font-size="14" lengthAdjust="spacing" textLength="114.3994" x="1109.3076" y="110.1426">EntregableService</text><rect fill="#E2E2F0" height="31.6094" rx="2.5" ry="2.5" style="stroke:#181818;stroke-width:0.5;" width="128.3994" x="1102.3076" y="920.5469"/><text fill="#000000" font-family="sans-serif" font-size="14" lengthAdjust="spacing" textLength="114.3994" x="1109.3076" y="942.0801">EntregableService</text><rect fill="#E2E2F0" height="31.6094" rx="2.5" ry="2.5" style="stroke:#181818;stroke-width:0.5;" width="148.6338" x="1331.5283" y="88.6094"/><text fill="#000000" font-family="sans-serif" font-size="14" lengthAdjust="spacing" textLength="134.6338" x="1338.5283" y="110.1426">EntregableRepository</text><rect fill="#E2E2F0" height="31.6094" rx="2.5" ry="2.5" style="stroke:#181818;stroke-width:0.5;" width="148.6338" x="1331.5283" y="920.5469"/><text fill="#000000" font-family="sans-serif" font-size="14" lengthAdjust="spacing" textLength="134.6338" x="1338.5283" y="942.0801">EntregableRepository</text><rect fill="#E2E2F0" height="31.6094" rx="2.5" ry="2.5" style="stroke:#181818;stroke-width:0.5;" width="195.3164" x="1490.1621" y="88.6094"/><text fill="#000000" font-family="sans-serif" font-size="14" lengthAdjust="spacing" textLength="181.3164" x="1497.1621" y="110.1426">ArchivoEntregableRepository</text><rect fill="#E2E2F0" height="31.6094" rx="2.5" ry="2.5" style="stroke:#181818;stroke-width:0.5;" width="195.3164" x="1490.1621" y="920.5469"/><text fill="#000000" font-family="sans-serif" font-size="14" lengthAdjust="spacing" textLength="181.3164" x="1497.1621" y="942.0801">ArchivoEntregableRepository</text><text fill="#000000" font-family="sans-serif" font-size="14" lengthAdjust="spacing" textLength="91.834" x="1837.5093" y="118.1426">Base de Datos</text><path d="M1868.4263,67.6094 C1868.4263,57.6094 1886.4263,57.6094 1886.4263,57.6094 C1886.4263,57.6094 1904.4263,57.6094 1904.4263,67.6094 L1904.4263,93.6094 C1904.4263,103.6094 1886.4263,103.6094 1886.4263,103.6094 C1886.4263,103.6094 1868.4263,103.6094 1868.4263,93.6094 L1868.4263,67.6094 " fill="#E2E2F0" style="stroke:#181818;stroke-width:1.5;"/><path d="M1868.4263,67.6094 C1868.4263,77.6094 1886.4263,77.6094 1886.4263,77.6094 C1886.4263,77.6094 1904.4263,77.6094 1904.4263,67.6094 " fill="none" style="stroke:#181818;stroke-width:1.5;"/><text fill="#000000" font-family="sans-serif" font-size="14" lengthAdjust="spacing" textLength="91.834" x="1837.5093" y="935.0801">Base de Datos</text><path d="M1868.4263,948.1563 C1868.4263,938.1563 1886.4263,938.1563 1886.4263,938.1563 C1886.4263,938.1563 1904.4263,938.1563 1904.4263,948.1563 L1904.4263,974.1563 C1904.4263,984.1563 1886.4263,984.1563 1886.4263,984.1563 C1886.4263,984.1563 1868.4263,984.1563 1868.4263,974.1563 L1868.4263,948.1563 " fill="#E2E2F0" style="stroke:#181818;stroke-width:1.5;"/><path d="M1868.4263,948.1563 C1868.4263,958.1563 1886.4263,958.1563 1886.4263,958.1563 C1886.4263,958.1563 1904.4263,958.1563 1904.4263,948.1563 " fill="none" style="stroke:#181818;stroke-width:1.5;"/><polygon fill="#181818" points="349.8667,149.5703,359.8667,153.5703,349.8667,157.5703,353.8667,153.5703" style="stroke:#181818;stroke-width:1;"/><line style="stroke:#181818;stroke-width:1;" x1="61.1343" x2="355.8667" y1="153.5703" y2="153.5703"/><text fill="#000000" font-family="sans-serif" font-size="13" lengthAdjust="spacing" textLength="138.0234" x="68.1343" y="148.7139">Modifica datos y guarda</text><polygon fill="#181818" points="643.4326,196.2734,653.4326,200.2734,643.4326,204.2734,647.4326,200.2734" style="stroke:#181818;stroke-width:1;"/><line style="stroke:#181818;stroke-width:1;" x1="361.8667" x2="649.4326" y1="200.2734" y2="200.2734"/><text fill="#000000" font-family="sans-serif" font-size="13" lengthAdjust="spacing" textLength="162.5952" x="368.8667" y="179.0654">PATCH /api/entregables/{id}</text><text fill="#000000" font-family="sans-serif" font-size="13" lengthAdjust="spacing" textLength="269.5659" x="368.8667" y="195.417">EntregableUpdateRequest + archivo? + cookie</text><polygon fill="#181818" points="877.0132,226.625,887.0132,230.625,877.0132,234.625,881.0132,230.625" style="stroke:#181818;stroke-width:1;"/><line style="stroke:#181818;stroke-width:1;" x1="655.4326" x2="883.0132" y1="230.625" y2="230.625"/><text fill="#000000" font-family="sans-serif" font-size="13" lengthAdjust="spacing" textLength="209.5806" x="662.4326" y="225.7686">obtenerSesionActual(authentication)</text><polygon fill="#181818" points="666.4326,256.9766,656.4326,260.9766,666.4326,264.9766,662.4326,260.9766" style="stroke:#181818;stroke-width:1;"/><line style="stroke:#181818;stroke-width:1;stroke-dasharray:2.0,2.0;" x1="660.4326" x2="888.0132" y1="260.9766" y2="260.9766"/><text fill="#000000" font-family="sans-serif" font-size="13" lengthAdjust="spacing" textLength="141.6543" x="672.4326" y="256.1201">Investigador autenticado</text><polygon fill="#181818" points="1154.5073,287.3281,1164.5073,291.3281,1154.5073,295.3281,1158.5073,291.3281" style="stroke:#181818;stroke-width:1;"/><line style="stroke:#181818;stroke-width:1;" x1="655.4326" x2="1160.5073" y1="291.3281" y2="291.3281"/><text fill="#000000" font-family="sans-serif" font-size="13" lengthAdjust="spacing" textLength="263.7261" x="662.4326" y="286.4717">actualizar(id, cambios, archivo?, investigador)</text><polygon fill="#181818" points="1393.8452,317.6797,1403.8452,321.6797,1393.8452,325.6797,1397.8452,321.6797" style="stroke:#181818;stroke-width:1;"/><line style="stroke:#181818;stroke-width:1;" x1="1166.5073" x2="1399.8452" y1="321.6797" y2="321.6797"/><text fill="#000000" font-family="sans-serif" font-size="13" lengthAdjust="spacing" textLength="215.3379" x="1173.5073" y="316.8232">findByIdAndRetirado(id, investigador)</text><polygon fill="#181818" points="1874.4263,364.3828,1884.4263,368.3828,1874.4263,372.3828,1878.4263,368.3828" style="stroke:#181818;stroke-width:1;"/><line style="stroke:#181818;stroke-width:1;" x1="1405.8452" x2="1880.4263" y1="368.3828" y2="368.3828"/><text fill="#000000" font-family="sans-serif" font-size="13" lengthAdjust="spacing" textLength="172.6753" x="1412.8452" y="347.1748">SELECT * FROM entregables</text><text fill="#000000" font-family="sans-serif" font-size="13" lengthAdjust="spacing" textLength="308.8833" x="1412.8452" y="363.5264">WHERE id = ? AND autor_id = ? AND retirado = false</text><polygon fill="#181818" points="1416.8452,394.7344,1406.8452,398.7344,1416.8452,402.7344,1412.8452,398.7344" style="stroke:#181818;stroke-width:1;"/><line style="stroke:#181818;stroke-width:1;stroke-dasharray:2.0,2.0;" x1="1410.8452" x2="1885.4263" y1="398.7344" y2="398.7344"/><text fill="#000000" font-family="sans-serif" font-size="13" lengthAdjust="spacing" textLength="143.8125" x="1422.8452" y="393.8779">Entregable propio / vacio</text><polygon fill="#181818" points="1177.5073,425.0859,1167.5073,429.0859,1177.5073,433.0859,1173.5073,429.0859" style="stroke:#181818;stroke-width:1;"/><line style="stroke:#181818;stroke-width:1;stroke-dasharray:2.0,2.0;" x1="1171.5073" x2="1404.8452" y1="429.0859" y2="429.0859"/><text fill="#000000" font-family="sans-serif" font-size="13" lengthAdjust="spacing" textLength="143.8125" x="1183.5073" y="424.2295">Entregable propio / vacio</text><line style="stroke:#181818;stroke-width:1;" x1="1166.5073" x2="1208.5073" y1="459.4375" y2="459.4375"/><line style="stroke:#181818;stroke-width:1;" x1="1208.5073" x2="1208.5073" y1="459.4375" y2="472.4375"/><line style="stroke:#181818;stroke-width:1;" x1="1167.5073" x2="1208.5073" y1="472.4375" y2="472.4375"/><polygon fill="#181818" points="1177.5073,468.4375,1167.5073,472.4375,1177.5073,476.4375,1173.5073,472.4375" style="stroke:#181818;stroke-width:1;"/><text fill="#000000" font-family="sans-serif" font-size="13" lengthAdjust="spacing" textLength="64.2954" x="1173.5073" y="454.5811">actualizar()</text><path d="M10,487.4375 L70.1709,487.4375 L70.1709,495.7891 L60.1709,505.7891 L10,505.7891 L10,487.4375 " fill="#EEEEEE" style="stroke:#000000;stroke-width:1.5;"/><rect fill="none" height="417.1094" style="stroke:#000000;stroke-width:1.5;" width="1935.3433" x="10" y="487.4375"/><text fill="#000000" font-family="sans-serif" font-size="13" font-weight="bold" lengthAdjust="spacing" textLength="15.1709" x="25" y="501.9326">alt</text><text fill="#000000" font-family="sans-serif" font-size="11" font-weight="bold" lengthAdjust="spacing" textLength="232.8799" x="85.1709" y="500.8564">[No es autor, esta retirado o datos invalidos]</text><polygon fill="#181818" points="666.4326,524.1406,656.4326,528.1406,666.4326,532.1406,662.4326,528.1406" style="stroke:#181818;stroke-width:1;"/><line style="stroke:#181818;stroke-width:1;stroke-dasharray:2.0,2.0;" x1="660.4326" x2="1165.5073" y1="528.1406" y2="528.1406"/><text fill="#000000" font-family="sans-serif" font-size="13" lengthAdjust="spacing" textLength="487.0747" x="672.4326" y="523.2842">AccesoDenegadoException / RecursoNoEncontradoException / ValidacionException</text><polygon fill="#181818" points="372.8667,554.4922,362.8667,558.4922,372.8667,562.4922,368.8667,558.4922" style="stroke:#181818;stroke-width:1;"/><line style="stroke:#181818;stroke-width:1;stroke-dasharray:2.0,2.0;" x1="366.8667" x2="654.4326" y1="558.4922" y2="558.4922"/><text fill="#000000" font-family="sans-serif" font-size="13" lengthAdjust="spacing" textLength="86.7407" x="378.8667" y="553.6357">403 / 404 / 400</text><line style="stroke:#000000;stroke-width:1;stroke-dasharray:2.0,2.0;" x1="10" x2="1945.3433" y1="567.4922" y2="567.4922"/><text fill="#000000" font-family="sans-serif" font-size="11" font-weight="bold" lengthAdjust="spacing" textLength="94.7407" x="15" y="578.9111">[Cambios validos]</text><polygon fill="#181818" points="1393.8452,600.6797,1403.8452,604.6797,1393.8452,608.6797,1397.8452,604.6797" style="stroke:#181818;stroke-width:1;"/><line style="stroke:#181818;stroke-width:1;" x1="1166.5073" x2="1399.8452" y1="604.6797" y2="604.6797"/><text fill="#000000" font-family="sans-serif" font-size="13" lengthAdjust="spacing" textLength="97.5571" x="1173.5073" y="599.8232">save(entregable)</text><polygon fill="#181818" points="1874.4263,647.3828,1884.4263,651.3828,1874.4263,655.3828,1878.4263,651.3828" style="stroke:#181818;stroke-width:1;"/><line style="stroke:#181818;stroke-width:1;" x1="1405.8452" x2="1880.4263" y1="651.3828" y2="651.3828"/><text fill="#000000" font-family="sans-serif" font-size="13" lengthAdjust="spacing" textLength="209.9043" x="1412.8452" y="630.1748">UPDATE entregables SET titulo = ?,</text><text fill="#000000" font-family="sans-serif" font-size="13" lengthAdjust="spacing" textLength="347.5723" x="1412.8452" y="646.5264">descripcion = ?, estado = ? WHERE id = ? AND autor_id = ?</text><polygon fill="#181818" points="1416.8452,677.7344,1406.8452,681.7344,1416.8452,685.7344,1412.8452,681.7344" style="stroke:#181818;stroke-width:1;"/><line style="stroke:#181818;stroke-width:1;stroke-dasharray:2.0,2.0;" x1="1410.8452" x2="1885.4263" y1="681.7344" y2="681.7344"/><text fill="#000000" font-family="sans-serif" font-size="13" lengthAdjust="spacing" textLength="132.2598" x="1422.8452" y="676.8779">Entregable actualizado</text><polygon fill="#181818" points="1575.8203,708.0859,1585.8203,712.0859,1575.8203,716.0859,1579.8203,712.0859" style="stroke:#181818;stroke-width:1;"/><line style="stroke:#181818;stroke-width:1;" x1="1166.5073" x2="1581.8203" y1="712.0859" y2="712.0859"/><text fill="#000000" font-family="sans-serif" font-size="13" lengthAdjust="spacing" textLength="224.0088" x="1173.5073" y="707.2295">save(entregable, archivo, investigador)</text><polygon fill="#181818" points="1874.4263,771.1406,1884.4263,775.1406,1874.4263,779.1406,1878.4263,775.1406" style="stroke:#181818;stroke-width:1;"/><line style="stroke:#181818;stroke-width:1;" x1="1587.8203" x2="1880.4263" y1="775.1406" y2="775.1406"/><text fill="#000000" font-family="sans-serif" font-size="13" lengthAdjust="spacing" textLength="203.0234" x="1594.8203" y="737.5811">INSERT INTO archivos_entregable</text><text fill="#000000" font-family="sans-serif" font-size="13" lengthAdjust="spacing" textLength="274.606" x="1594.8203" y="753.9326">(entregable_id, version, archivo, subido_por_id)</text><text fill="#000000" font-family="sans-serif" font-size="13" lengthAdjust="spacing" textLength="208.1079" x="1594.8203" y="770.2842">VALUES (?, siguiente_version, ?, ?)</text><polygon fill="#181818" points="1598.8203,801.4922,1588.8203,805.4922,1598.8203,809.4922,1594.8203,805.4922" style="stroke:#181818;stroke-width:1;"/><line style="stroke:#181818;stroke-width:1;stroke-dasharray:2.0,2.0;" x1="1592.8203" x2="1885.4263" y1="805.4922" y2="805.4922"/><text fill="#000000" font-family="sans-serif" font-size="13" lengthAdjust="spacing" textLength="124.2808" x="1604.8203" y="800.6357">Nueva version / vacio</text><polygon fill="#181818" points="666.4326,831.8438,656.4326,835.8438,666.4326,839.8438,662.4326,835.8438" style="stroke:#181818;stroke-width:1;"/><line style="stroke:#181818;stroke-width:1;stroke-dasharray:2.0,2.0;" x1="660.4326" x2="1165.5073" y1="835.8438" y2="835.8438"/><text fill="#000000" font-family="sans-serif" font-size="13" lengthAdjust="spacing" textLength="161.8843" x="672.4326" y="830.9873">EntregableDetalleResponse</text><polygon fill="#181818" points="372.8667,862.1953,362.8667,866.1953,372.8667,870.1953,368.8667,866.1953" style="stroke:#181818;stroke-width:1;"/><line style="stroke:#181818;stroke-width:1;stroke-dasharray:2.0,2.0;" x1="366.8667" x2="654.4326" y1="866.1953" y2="866.1953"/><text fill="#000000" font-family="sans-serif" font-size="13" lengthAdjust="spacing" textLength="44.0845" x="378.8667" y="861.3389">200 OK</text><polygon fill="#181818" points="72.1343,892.5469,62.1343,896.5469,72.1343,900.5469,68.1343,896.5469" style="stroke:#181818;stroke-width:1;"/><line style="stroke:#181818;stroke-width:1;stroke-dasharray:2.0,2.0;" x1="66.1343" x2="360.8667" y1="896.5469" y2="896.5469"/><text fill="#000000" font-family="sans-serif" font-size="13" lengthAdjust="spacing" textLength="276.7324" x="78.1343" y="891.6904">Presenta ENTREGABLE_ABIERTO actualizado</text><!--SRC=[VLHDRnen4BtlhnZb12qHgCq9gKMxxAQ9ca2qaFI2X0RR8LOtzjRsegPL_tl7kx0V57hP3tlUp9ltndRIPG9YYLk3hmXSW1Mi48f9X4j8k7HeG2Xdn1Ot59aRdKiT87FQmAtQ2Ula5hasGOx6IIPpL0ukAc1IuwwrULsfNYe8sBy0j71jj792yIDSZPZIjj5P9WpX5hcHQWkHrdjqcCikS26ir6eXp4uoKOPKA-VIToFBxtEXgSYrbTJlMndjVxkXeM4lSgVF8lRx9P2ZmmrQ0HUHVvBUCJfjoxWu2eAsf73vkPPf3FUQosV9o2CFW3VO5cWu1eS87qsoZE4XN4vlO8Yv73R6sU5loV-iL4FoCQT4HFL7GGNXFM35SaAVJEllKWIKpIUjX1o3tb0POQhVaBa2inuMxeMA42r7Y_sWseJB0vTEEnHSnNBTv2wb7mEM-UGlD3t91y3mTIEr7TIi1Y1RgNoX4kXpU5t7y2mLZzvkUQXuAfmq55Pcwi9yhCV4qHWMoLqoNS8xk4xdzwqPjolrxIP94v0SFi44mbdigMkpRYsOVGrQUCRCYY2EoguhCidnWO4Xx93HmQa8j3i_7zlgyPHE_G0p1pCDmbRy1lJbiA6czwD24X24Qni0r3aF3eMC2QjZSjPBbFna8lTM4ecKBW9ZzOm6c_d3UBJzv7DwdgfUfVobhvsvlHfzfEYhqLNv70M2r89fvI-S87RGqE9Ez1fN-XJJTk_n8GwNITisCdG9JheYywvC1Yl5XML6vfvZkLBgKtesWVzQJBNE-LaRG4FSOTqwvV-Gh-VuU1wX3JkqTZjR9EcINilv0MVNJJAw3vkVjP_ndJ3-sBMgs693kgxpigF-IZs5Tu_90dgaWPNRGb82iQvXj3hfDprtEfaLOeU72lLedXYaHgDOECpyBMXphUXed9gA3wCHpB_ILdDzqNxxkg2Bp0XBH16IsJ9DleJHNR8EerlIPjwnWT1_0G00]--></g></svg>