<?xml version="1.0" encoding="us-ascii" standalone="no"?><svg xmlns="http://www.w3.org/2000/svg" xmlns:xlink="http://www.w3.org/1999/xlink" contentStyleType="text/css" height="756px" preserveAspectRatio="none" style="width:1665px;height:756px;background:#FFFFFF;" version="1.1" viewBox="0 0 1665 756" width="1665px" zoomAndPan="magnify"><defs/><g><text fill="#000000" font-family="sans-serif" font-size="14" font-weight="bold" lengthAdjust="spacing" textLength="348" x="659.5" y="29.5332">Diagrama de secuencia - Editar entregable propio</text><rect fill="none" height="246.6484" style="stroke:#000000;stroke-width:1.5;" width="1648" x="10" y="410.3828"/><line style="stroke:#181818;stroke-width:0.5;stroke-dasharray:5.0,5.0;" x1="61" x2="61" y1="121.2188" y2="674.0313"/><line style="stroke:#181818;stroke-width:0.5;stroke-dasharray:5.0,5.0;" x1="361" x2="361" y1="121.2188" y2="674.0313"/><line style="stroke:#181818;stroke-width:0.5;stroke-dasharray:5.0,5.0;" x1="653" x2="653" y1="121.2188" y2="674.0313"/><line style="stroke:#181818;stroke-width:0.5;stroke-dasharray:5.0,5.0;" x1="865.5" x2="865.5" y1="121.2188" y2="674.0313"/><line style="stroke:#181818;stroke-width:0.5;stroke-dasharray:5.0,5.0;" x1="1167.5" x2="1167.5" y1="121.2188" y2="674.0313"/><line style="stroke:#181818;stroke-width:0.5;stroke-dasharray:5.0,5.0;" x1="1433" x2="1433" y1="121.2188" y2="674.0313"/><line style="stroke:#181818;stroke-width:0.5;stroke-dasharray:5.0,5.0;" x1="1583" x2="1583" y1="121.2188" y2="674.0313"/><text fill="#000000" font-family="sans-serif" font-size="14" lengthAdjust="spacing" textLength="77" x="20" y="118.1426">Investigador</text><ellipse cx="61.5" cy="52.1094" fill="#E2E2F0" rx="8" ry="8" style="stroke:#181818;stroke-width:0.5;"/><path d="M61.5,60.1094 L61.5,87.1094 M48.5,68.1094 L74.5,68.1094 M61.5,87.1094 L48.5,102.1094 M61.5,87.1094 L74.5,102.1094 " fill="none" style="stroke:#181818;stroke-width:0.5;"/><text fill="#000000" font-family="sans-serif" font-size="14" lengthAdjust="spacing" textLength="77" x="20" y="687.5645">Investigador</text><ellipse cx="61.5" cy="699.1406" fill="#E2E2F0" rx="8" ry="8" style="stroke:#181818;stroke-width:0.5;"/><path d="M61.5,707.1406 L61.5,734.1406 M48.5,715.1406 L74.5,715.1406 M61.5,734.1406 L48.5,749.1406 M61.5,734.1406 L74.5,749.1406 " fill="none" style="stroke:#181818;stroke-width:0.5;"/><rect fill="#E2E2F0" height="49.2188" rx="2.5" ry="2.5" style="stroke:#181818;stroke-width:0.5;" width="153" x="285" y="71"/><text fill="#000000" font-family="sans-serif" font-size="14" lengthAdjust="spacing" textLength="139" x="292" y="92.5332">EditarEntregableForm</text><text fill="#000000" font-family="sans-serif" font-size="14" lengthAdjust="spacing" textLength="47" x="338" y="110.1426">(React)</text><rect fill="#E2E2F0" height="49.2188" rx="2.5" ry="2.5" style="stroke:#181818;stroke-width:0.5;" width="153" x="285" y="673.0313"/><text fill="#000000" font-family="sans-serif" font-size="14" lengthAdjust="spacing" textLength="139" x="292" y="694.5645">EditarEntregableForm</text><text fill="#000000" font-family="sans-serif" font-size="14" lengthAdjust="spacing" textLength="47" x="338" y="712.1738">(React)</text><rect fill="#E2E2F0" height="49.2188" rx="2.5" ry="2.5" style="stroke:#181818;stroke-width:0.5;" width="145" x="581" y="71"/><text fill="#000000" font-family="sans-serif" font-size="14" lengthAdjust="spacing" textLength="131" x="588" y="92.5332">EntregableController</text><text fill="#000000" font-family="sans-serif" font-size="14" lengthAdjust="spacing" textLength="84" x="611.5" y="110.1426">(Spring Boot)</text><rect fill="#E2E2F0" height="49.2188" rx="2.5" ry="2.5" style="stroke:#181818;stroke-width:0.5;" width="145" x="581" y="673.0313"/><text fill="#000000" font-family="sans-serif" font-size="14" lengthAdjust="spacing" textLength="131" x="588" y="694.5645">EntregableController</text><text fill="#000000" font-family="sans-serif" font-size="14" lengthAdjust="spacing" textLength="84" x="611.5" y="712.1738">(Spring Boot)</text><rect fill="#E2E2F0" height="31.6094" rx="2.5" ry="2.5" style="stroke:#181818;stroke-width:0.5;" width="104" x="813.5" y="88.6094"/><text fill="#000000" font-family="sans-serif" font-size="14" lengthAdjust="spacing" textLength="90" x="820.5" y="110.1426">SesionService</text><rect fill="#E2E2F0" height="31.6094" rx="2.5" ry="2.5" style="stroke:#181818;stroke-width:0.5;" width="104" x="813.5" y="673.0313"/><text fill="#000000" font-family="sans-serif" font-size="14" lengthAdjust="spacing" textLength="90" x="820.5" y="694.5645">SesionService</text><rect fill="#E2E2F0" height="31.6094" rx="2.5" ry="2.5" style="stroke:#181818;stroke-width:0.5;" width="130" x="1102.5" y="88.6094"/><text fill="#000000" font-family="sans-serif" font-size="14" lengthAdjust="spacing" textLength="116" x="1109.5" y="110.1426">EntregableService</text><rect fill="#E2E2F0" height="31.6094" rx="2.5" ry="2.5" style="stroke:#181818;stroke-width:0.5;" width="130" x="1102.5" y="673.0313"/><text fill="#000000" font-family="sans-serif" font-size="14" lengthAdjust="spacing" textLength="116" x="1109.5" y="694.5645">EntregableService</text><rect fill="#E2E2F0" height="31.6094" rx="2.5" ry="2.5" style="stroke:#181818;stroke-width:0.5;" width="151" x="1358" y="88.6094"/><text fill="#000000" font-family="sans-serif" font-size="14" lengthAdjust="spacing" textLength="137" x="1365" y="110.1426">EntregableRepository</text><rect fill="#E2E2F0" height="31.6094" rx="2.5" ry="2.5" style="stroke:#181818;stroke-width:0.5;" width="151" x="1358" y="673.0313"/><text fill="#000000" font-family="sans-serif" font-size="14" lengthAdjust="spacing" textLength="137" x="1365" y="694.5645">EntregableRepository</text><rect fill="#E2E2F0" height="31.6094" rx="2.5" ry="2.5" style="stroke:#181818;stroke-width:0.5;" width="129" x="1519" y="88.6094"/><text fill="#000000" font-family="sans-serif" font-size="14" lengthAdjust="spacing" textLength="115" x="1526" y="110.1426">ArchivoRepository</text><rect fill="#E2E2F0" height="31.6094" rx="2.5" ry="2.5" style="stroke:#181818;stroke-width:0.5;" width="129" x="1519" y="673.0313"/><text fill="#000000" font-family="sans-serif" font-size="14" lengthAdjust="spacing" textLength="115" x="1526" y="694.5645">ArchivoRepository</text><polygon fill="#181818" points="349.5,149.5703,359.5,153.5703,349.5,157.5703,353.5,153.5703" style="stroke:#181818;stroke-width:1.0;"/><line style="stroke:#181818;stroke-width:1.0;" x1="61.5" x2="355.5" y1="153.5703" y2="153.5703"/><text fill="#000000" font-family="sans-serif" font-size="13" lengthAdjust="spacing" textLength="138" x="68.5" y="148.7139">Modifica datos y guarda</text><polygon fill="#181818" points="641.5,196.2734,651.5,200.2734,641.5,204.2734,645.5,200.2734" style="stroke:#181818;stroke-width:1.0;"/><line style="stroke:#181818;stroke-width:1.0;" x1="361.5" x2="647.5" y1="200.2734" y2="200.2734"/><text fill="#000000" font-family="sans-serif" font-size="13" lengthAdjust="spacing" textLength="161" x="368.5" y="179.0654">PATCH /api/entregables/{id}</text><text fill="#000000" font-family="sans-serif" font-size="13" lengthAdjust="spacing" textLength="268" x="368.5" y="195.417">EntregableUpdateRequest + archivo? + cookie</text><polygon fill="#181818" points="853.5,226.625,863.5,230.625,853.5,234.625,857.5,230.625" style="stroke:#181818;stroke-width:1.0;"/><line style="stroke:#181818;stroke-width:1.0;" x1="653.5" x2="859.5" y1="230.625" y2="230.625"/><text fill="#000000" font-family="sans-serif" font-size="13" lengthAdjust="spacing" textLength="188" x="660.5" y="225.7686">exigirInvestigador(authentication)</text><polygon fill="#181818" points="664.5,256.9766,654.5,260.9766,664.5,264.9766,660.5,260.9766" style="stroke:#181818;stroke-width:1.0;"/><line style="stroke:#181818;stroke-width:1.0;stroke-dasharray:2.0,2.0;" x1="658.5" x2="864.5" y1="260.9766" y2="260.9766"/><text fill="#000000" font-family="sans-serif" font-size="13" lengthAdjust="spacing" textLength="139" x="670.5" y="256.1201">Investigador autenticado</text><polygon fill="#181818" points="1155.5,287.3281,1165.5,291.3281,1155.5,295.3281,1159.5,291.3281" style="stroke:#181818;stroke-width:1.0;"/><line style="stroke:#181818;stroke-width:1.0;" x1="653.5" x2="1161.5" y1="291.3281" y2="291.3281"/><text fill="#000000" font-family="sans-serif" font-size="13" lengthAdjust="spacing" textLength="299" x="660.5" y="286.4717">actualizarPropio(id, cambios, archivo?, investigador)</text><polygon fill="#181818" points="1421.5,317.6797,1431.5,321.6797,1421.5,325.6797,1425.5,321.6797" style="stroke:#181818;stroke-width:1.0;"/><line style="stroke:#181818;stroke-width:1.0;" x1="1167.5" x2="1427.5" y1="321.6797" y2="321.6797"/><text fill="#000000" font-family="sans-serif" font-size="13" lengthAdjust="spacing" textLength="242" x="1174.5" y="316.8232">obtenerActivoPorIdYAutor(id, investigador)</text><polygon fill="#181818" points="1178.5,348.0313,1168.5,352.0313,1178.5,356.0313,1174.5,352.0313" style="stroke:#181818;stroke-width:1.0;"/><line style="stroke:#181818;stroke-width:1.0;stroke-dasharray:2.0,2.0;" x1="1172.5" x2="1432.5" y1="352.0313" y2="352.0313"/><text fill="#000000" font-family="sans-serif" font-size="13" lengthAdjust="spacing" textLength="142" x="1184.5" y="347.1748">Entregable propio / vacio</text><line style="stroke:#181818;stroke-width:1.0;" x1="1167.5" x2="1209.5" y1="382.3828" y2="382.3828"/><line style="stroke:#181818;stroke-width:1.0;" x1="1209.5" x2="1209.5" y1="382.3828" y2="395.3828"/><line style="stroke:#181818;stroke-width:1.0;" x1="1168.5" x2="1209.5" y1="395.3828" y2="395.3828"/><polygon fill="#181818" points="1178.5,391.3828,1168.5,395.3828,1178.5,399.3828,1174.5,395.3828" style="stroke:#181818;stroke-width:1.0;"/><text fill="#000000" font-family="sans-serif" font-size="13" lengthAdjust="spacing" textLength="146" x="1174.5" y="377.5264">aplicarCambiosYValidar()</text><path d="M10,410.3828 L71,410.3828 L71,418.7344 L61,428.7344 L10,428.7344 L10,410.3828 " fill="#EEEEEE" style="stroke:#000000;stroke-width:1.5;"/><rect fill="none" height="246.6484" style="stroke:#000000;stroke-width:1.5;" width="1648" x="10" y="410.3828"/><text fill="#000000" font-family="sans-serif" font-size="13" font-weight="bold" lengthAdjust="spacing" textLength="16" x="25" y="424.8779">alt</text><text fill="#000000" font-family="sans-serif" font-size="11" font-weight="bold" lengthAdjust="spacing" textLength="244" x="86" y="423.8018">[No es autor, esta retirado o datos invalidos]</text><polygon fill="#181818" points="664.5,447.0859,654.5,451.0859,664.5,455.0859,660.5,451.0859" style="stroke:#181818;stroke-width:1.0;"/><line style="stroke:#181818;stroke-width:1.0;stroke-dasharray:2.0,2.0;" x1="658.5" x2="1166.5" y1="451.0859" y2="451.0859"/><text fill="#000000" font-family="sans-serif" font-size="13" lengthAdjust="spacing" textLength="490" x="670.5" y="446.2295">AccesoDenegadoException / RecursoNoEncontradoException / ValidacionException</text><polygon fill="#181818" points="372.5,477.4375,362.5,481.4375,372.5,485.4375,368.5,481.4375" style="stroke:#181818;stroke-width:1.0;"/><line style="stroke:#181818;stroke-width:1.0;stroke-dasharray:2.0,2.0;" x1="366.5" x2="652.5" y1="481.4375" y2="481.4375"/><text fill="#000000" font-family="sans-serif" font-size="13" lengthAdjust="spacing" textLength="87" x="378.5" y="476.5811">403 / 404 / 400</text><line style="stroke:#000000;stroke-width:1.0;stroke-dasharray:2.0,2.0;" x1="10" x2="1658" y1="490.4375" y2="490.4375"/><text fill="#000000" font-family="sans-serif" font-size="11" font-weight="bold" lengthAdjust="spacing" textLength="99" x="15" y="501.8564">[Cambios validos]</text><polygon fill="#181818" points="1421.5,523.625,1431.5,527.625,1421.5,531.625,1425.5,527.625" style="stroke:#181818;stroke-width:1.0;"/><line style="stroke:#181818;stroke-width:1.0;" x1="1167.5" x2="1427.5" y1="527.625" y2="527.625"/><text fill="#000000" font-family="sans-serif" font-size="13" lengthAdjust="spacing" textLength="111" x="1174.5" y="522.7686">guardar(entregable)</text><polygon fill="#181818" points="1571.5,553.9766,1581.5,557.9766,1571.5,561.9766,1575.5,557.9766" style="stroke:#181818;stroke-width:1.0;"/><line style="stroke:#181818;stroke-width:1.0;" x1="1167.5" x2="1577.5" y1="557.9766" y2="557.9766"/><text fill="#000000" font-family="sans-serif" font-size="13" lengthAdjust="spacing" textLength="330" x="1174.5" y="553.1201">agregarVersionOpcional(entregable, archivo, investigador)</text><polygon fill="#181818" points="664.5,584.3281,654.5,588.3281,664.5,592.3281,660.5,588.3281" style="stroke:#181818;stroke-width:1.0;"/><line style="stroke:#181818;stroke-width:1.0;stroke-dasharray:2.0,2.0;" x1="658.5" x2="1166.5" y1="588.3281" y2="588.3281"/><text fill="#000000" font-family="sans-serif" font-size="13" lengthAdjust="spacing" textLength="160" x="670.5" y="583.4717">EntregableDetalleResponse</text><polygon fill="#181818" points="372.5,614.6797,362.5,618.6797,372.5,622.6797,368.5,618.6797" style="stroke:#181818;stroke-width:1.0;"/><line style="stroke:#181818;stroke-width:1.0;stroke-dasharray:2.0,2.0;" x1="366.5" x2="652.5" y1="618.6797" y2="618.6797"/><text fill="#000000" font-family="sans-serif" font-size="13" lengthAdjust="spacing" textLength="44" x="378.5" y="613.8232">200 OK</text><polygon fill="#181818" points="72.5,645.0313,62.5,649.0313,72.5,653.0313,68.5,649.0313" style="stroke:#181818;stroke-width:1.0;"/><line style="stroke:#181818;stroke-width:1.0;stroke-dasharray:2.0,2.0;" x1="66.5" x2="360.5" y1="649.0313" y2="649.0313"/><text fill="#000000" font-family="sans-serif" font-size="13" lengthAdjust="spacing" textLength="276" x="78.5" y="644.1748">Presenta ENTREGABLE_ABIERTO actualizado</text><!--SRC=[TLDTJnin47o_Nx7YAL634hKyvQ7L0KUBsW8A50a9gLfysyFguNNNJWH5_UzTtv7xYE0bkjWpkxEpusXZJN1iiH9yG2W90farEMCHzg4eRKG1Sb6emZj5Uc5lEKCJMU3KRIX4Ms79adcKQ8trw2BijSIYuvsmFDowoOgKEDq3370Yx2AvSeVNCOxqMhYkIPHtwSMw2WwPNzYvjsFY9GNBxf9aOmqraFRahV9ZPFFz5dH5deFLUPyQTFexXkPYxks6Tt23qomREWNx7xlfb_2TI_lB6hKU8mTuWcgDKcAsHIIqJhk4Y_pgw0lCqTjvluymVxRblrlNg_tXjP1g_hFMXl0Ei9NnIJyDyszBcLPBHLj_ba2Fjh8o53Z1TRpN7gegAcIQjL3OtqePJQFW5bjoNxenT0cwxJNMzY_AHPERYIrdOF3XpdAOTT9cO0S5Kxk6dYebzvR0Tzg293THuHSif-LDlbQZct9ZRY8qGZiDnMvuOGuRD1hYGPzUiQzr53bgDTvSg_eIPJBDi8vmna0X3Smoqw-881IjQ6VWb_sfcaJXa05qzRU-vSPGu6ET9Qaj7WtvPB0AMkcZay1dN3YJWhzptSfGpQuxrVgDswCm7Im-AFfWST3yBZAg0y7BBF2AiAt1RUPaqWThEeODmgmULGaaroGf5kS-wS9wGEvMkxkTLppfrtDC4Ulqt89d5-ZL0Tyl5d3-LQ_wvw7tmppgGn4AgWMXEBjQ5P_pms_5p_pmj5XTdVU1rB0g-py0]--></g></svg>