<svg xmlns="http://www.w3.org/2000/svg" xmlns:xlink="http://www.w3.org/1999/xlink" contentStyleType="text/css" data-diagram-type="CLASS" height="928px" preserveAspectRatio="none" style="width:603px;height:928px;background:#FFFFFF;" version="1.1" viewBox="0 0 603 928" width="603px" zoomAndPan="magnify"><?plantuml 1.2026.5?><defs/><g><g class="title" data-source-line="2"><text fill="#000000" font-family="sans-serif" font-size="14" font-weight="700" lengthAdjust="spacing" textLength="518.5537" x="39.0557" y="24.5332">Diagrama de Clases Unificado: Gesti&#243;n de Proyectos + Red de Investigadores</text></g><!--class Proyecto--><g class="entity" data-qualified-name="Proyecto" data-source-line="4" id="ent0001"><rect fill="#FFAAAA" height="111.5313" rx="2.5" ry="2.5" style="stroke:#181818;stroke-width:0.5;" width="108.5029" x="185" y="423.6094"/><ellipse cx="209.5111" cy="444.9609" fill="#ADD1B2" rx="11" ry="11" style="stroke:#181818;stroke-width:1;"/><path d="M212.2767,440.8359 Q212.433,440.6172 212.6205,440.5078 Q212.808,440.3984 213.0267,440.3984 Q213.4017,440.3984 213.6361,440.6641 Q213.8705,440.9141 213.8705,441.5234 L213.8705,442.9766 Q213.8705,443.5859 213.6361,443.8516 Q213.4017,444.1172 213.0267,444.1172 Q212.683,444.1172 212.4798,443.9141 Q212.2767,443.7266 212.1673,443.2109 Q212.1205,442.8516 211.933,442.6641 Q211.6048,442.2891 210.9955,442.0703 Q210.3861,441.8516 209.7611,441.8516 Q208.9955,441.8516 208.3548,442.1797 Q207.7298,442.5078 207.2298,443.2578 Q206.7455,444.0078 206.7455,445.0391 L206.7455,446.1328 Q206.7455,447.3672 207.6361,448.1953 Q208.5267,449.0078 210.1205,449.0078 Q211.058,449.0078 211.7142,448.7578 Q212.1048,448.6016 212.5267,448.1641 Q212.7923,447.8984 212.933,447.8203 Q213.0892,447.7422 213.2923,447.7422 Q213.6205,447.7422 213.8705,448.0078 Q214.1361,448.2578 214.1361,448.6016 Q214.1361,448.9453 213.7923,449.3516 Q213.2923,449.9297 212.4955,450.2578 Q211.4173,450.7109 210.1205,450.7109 Q208.6048,450.7109 207.4017,450.0859 Q206.4173,449.5859 205.7298,448.5234 Q205.0423,447.4453 205.0423,446.1641 L205.0423,445.0078 Q205.0423,443.6797 205.6517,442.5391 Q206.2767,441.3828 207.3705,440.7734 Q208.4642,440.1484 209.6986,440.1484 Q210.433,440.1484 211.0736,440.3203 Q211.7298,440.4766 212.2767,440.8359 Z " fill="#000000"/><text fill="#000000" font-family="sans-serif" font-size="12" font-style="italic" lengthAdjust="spacing" textLength="59.3672" x="223.6247" y="441.0664">&#171;Principal&#187;</text><text fill="#000000" font-family="sans-serif" font-size="14" lengthAdjust="spacing" textLength="55.248" x="225.6842" y="458.2363">Proyecto</text><line style="stroke:#181818;stroke-width:0.5;" x1="186" x2="292.5029" y1="466.3125" y2="466.3125"/><text fill="#000000" font-family="sans-serif" font-size="14" lengthAdjust="spacing" textLength="60.7031" x="191" y="484.8457">archivado</text><text fill="#000000" font-family="sans-serif" font-size="14" lengthAdjust="spacing" textLength="96.5029" x="191" y="502.4551">fechaArchivado</text><text fill="#000000" font-family="sans-serif" font-size="14" lengthAdjust="spacing" textLength="82.4893" x="191" y="520.0645">archivadoPor</text><line style="stroke:#181818;stroke-width:0.5;" x1="186" x2="292.5029" y1="527.1406" y2="527.1406"/></g><!--class Convocatoria--><g class="entity" data-qualified-name="Convocatoria" data-source-line="10" id="ent0002"><rect fill="#F1F1F1" height="48" rx="2.5" ry="2.5" style="stroke:#181818;stroke-width:0.5;" width="114.4893" x="104.5" y="171.6094"/><ellipse cx="119.5" cy="187.6094" fill="#ADD1B2" rx="11" ry="11" style="stroke:#181818;stroke-width:1;"/><path d="M122.2656,183.4844 Q122.4219,183.2656 122.6094,183.1563 Q122.7969,183.0469 123.0156,183.0469 Q123.3906,183.0469 123.625,183.3125 Q123.8594,183.5625 123.8594,184.1719 L123.8594,185.625 Q123.8594,186.2344 123.625,186.5 Q123.3906,186.7656 123.0156,186.7656 Q122.6719,186.7656 122.4688,186.5625 Q122.2656,186.375 122.1563,185.8594 Q122.1094,185.5 121.9219,185.3125 Q121.5938,184.9375 120.9844,184.7188 Q120.375,184.5 119.75,184.5 Q118.9844,184.5 118.3438,184.8281 Q117.7188,185.1563 117.2188,185.9063 Q116.7344,186.6563 116.7344,187.6875 L116.7344,188.7813 Q116.7344,190.0156 117.625,190.8438 Q118.5156,191.6563 120.1094,191.6563 Q121.0469,191.6563 121.7031,191.4063 Q122.0938,191.25 122.5156,190.8125 Q122.7813,190.5469 122.9219,190.4688 Q123.0781,190.3906 123.2813,190.3906 Q123.6094,190.3906 123.8594,190.6563 Q124.125,190.9063 124.125,191.25 Q124.125,191.5938 123.7813,192 Q123.2813,192.5781 122.4844,192.9063 Q121.4063,193.3594 120.1094,193.3594 Q118.5938,193.3594 117.3906,192.7344 Q116.4063,192.2344 115.7188,191.1719 Q115.0313,190.0938 115.0313,188.8125 L115.0313,187.6563 Q115.0313,186.3281 115.6406,185.1875 Q116.2656,184.0313 117.3594,183.4219 Q118.4531,182.7969 119.6875,182.7969 Q120.4219,182.7969 121.0625,182.9688 Q121.7188,183.125 122.2656,183.4844 Z " fill="#000000"/><text fill="#000000" font-family="sans-serif" font-size="14" lengthAdjust="spacing" textLength="82.4893" x="133.5" y="193.3379">Convocatoria</text><line style="stroke:#181818;stroke-width:0.5;" x1="105.5" x2="217.9893" y1="203.6094" y2="203.6094"/><line style="stroke:#181818;stroke-width:0.5;" x1="105.5" x2="217.9893" y1="211.6094" y2="211.6094"/></g><!--class Propuesta--><g class="entity" data-qualified-name="Propuesta" data-source-line="13" id="ent0003"><rect fill="#F1F1F1" height="48" rx="2.5" ry="2.5" style="stroke:#181818;stroke-width:0.5;" width="95.8203" x="120.5" y="297.6094"/><ellipse cx="135.5" cy="313.6094" fill="#ADD1B2" rx="11" ry="11" style="stroke:#181818;stroke-width:1;"/><path d="M138.2656,309.4844 Q138.4219,309.2656 138.6094,309.1563 Q138.7969,309.0469 139.0156,309.0469 Q139.3906,309.0469 139.625,309.3125 Q139.8594,309.5625 139.8594,310.1719 L139.8594,311.625 Q139.8594,312.2344 139.625,312.5 Q139.3906,312.7656 139.0156,312.7656 Q138.6719,312.7656 138.4688,312.5625 Q138.2656,312.375 138.1563,311.8594 Q138.1094,311.5 137.9219,311.3125 Q137.5938,310.9375 136.9844,310.7188 Q136.375,310.5 135.75,310.5 Q134.9844,310.5 134.3438,310.8281 Q133.7188,311.1563 133.2188,311.9063 Q132.7344,312.6563 132.7344,313.6875 L132.7344,314.7813 Q132.7344,316.0156 133.625,316.8438 Q134.5156,317.6563 136.1094,317.6563 Q137.0469,317.6563 137.7031,317.4063 Q138.0938,317.25 138.5156,316.8125 Q138.7813,316.5469 138.9219,316.4688 Q139.0781,316.3906 139.2813,316.3906 Q139.6094,316.3906 139.8594,316.6563 Q140.125,316.9063 140.125,317.25 Q140.125,317.5938 139.7813,318 Q139.2813,318.5781 138.4844,318.9063 Q137.4063,319.3594 136.1094,319.3594 Q134.5938,319.3594 133.3906,318.7344 Q132.4063,318.2344 131.7188,317.1719 Q131.0313,316.0938 131.0313,314.8125 L131.0313,313.6563 Q131.0313,312.3281 131.6406,311.1875 Q132.2656,310.0313 133.3594,309.4219 Q134.4531,308.7969 135.6875,308.7969 Q136.4219,308.7969 137.0625,308.9688 Q137.7188,309.125 138.2656,309.4844 Z " fill="#000000"/><text fill="#000000" font-family="sans-serif" font-size="14" lengthAdjust="spacing" textLength="63.8203" x="149.5" y="319.3379">Propuesta</text><line style="stroke:#181818;stroke-width:0.5;" x1="121.5" x2="215.3203" y1="329.6094" y2="329.6094"/><line style="stroke:#181818;stroke-width:0.5;" x1="121.5" x2="215.3203" y1="337.6094" y2="337.6094"/></g><!--class InvestigadorDocente--><g class="entity" data-qualified-name="InvestigadorDocente" data-source-line="16" id="ent0004"><rect fill="#F1F1F1" height="48" rx="2.5" ry="2.5" style="stroke:#181818;stroke-width:0.5;" width="160.4131" x="272.5" y="739.6094"/><ellipse cx="287.5" cy="755.6094" fill="#ADD1B2" rx="11" ry="11" style="stroke:#181818;stroke-width:1;"/><path d="M290.2656,751.4844 Q290.4219,751.2656 290.6094,751.1563 Q290.7969,751.0469 291.0156,751.0469 Q291.3906,751.0469 291.625,751.3125 Q291.8594,751.5625 291.8594,752.1719 L291.8594,753.625 Q291.8594,754.2344 291.625,754.5 Q291.3906,754.7656 291.0156,754.7656 Q290.6719,754.7656 290.4688,754.5625 Q290.2656,754.375 290.1563,753.8594 Q290.1094,753.5 289.9219,753.3125 Q289.5938,752.9375 288.9844,752.7188 Q288.375,752.5 287.75,752.5 Q286.9844,752.5 286.3438,752.8281 Q285.7188,753.1563 285.2188,753.9063 Q284.7344,754.6563 284.7344,755.6875 L284.7344,756.7813 Q284.7344,758.0156 285.625,758.8438 Q286.5156,759.6563 288.1094,759.6563 Q289.0469,759.6563 289.7031,759.4063 Q290.0938,759.25 290.5156,758.8125 Q290.7813,758.5469 290.9219,758.4688 Q291.0781,758.3906 291.2813,758.3906 Q291.6094,758.3906 291.8594,758.6563 Q292.125,758.9063 292.125,759.25 Q292.125,759.5938 291.7813,760 Q291.2813,760.5781 290.4844,760.9063 Q289.4063,761.3594 288.1094,761.3594 Q286.5938,761.3594 285.3906,760.7344 Q284.4063,760.2344 283.7188,759.1719 Q283.0313,758.0938 283.0313,756.8125 L283.0313,755.6563 Q283.0313,754.3281 283.6406,753.1875 Q284.2656,752.0313 285.3594,751.4219 Q286.4531,750.7969 287.6875,750.7969 Q288.4219,750.7969 289.0625,750.9688 Q289.7188,751.125 290.2656,751.4844 Z " fill="#000000"/><text fill="#000000" font-family="sans-serif" font-size="14" lengthAdjust="spacing" textLength="128.4131" x="301.5" y="761.3379">InvestigadorDocente</text><line style="stroke:#181818;stroke-width:0.5;" x1="273.5" x2="431.9131" y1="771.6094" y2="771.6094"/><line style="stroke:#181818;stroke-width:0.5;" x1="273.5" x2="431.9131" y1="779.6094" y2="779.6094"/></g><!--class Coordinador--><g class="entity" data-qualified-name="Coordinador" data-source-line="19" id="ent0005"><rect fill="#F1F1F1" height="48" rx="2.5" ry="2.5" style="stroke:#181818;stroke-width:0.5;" width="109.0479" x="217" y="45.6094"/><ellipse cx="232" cy="61.6094" fill="#ADD1B2" rx="11" ry="11" style="stroke:#181818;stroke-width:1;"/><path d="M234.7656,57.4844 Q234.9219,57.2656 235.1094,57.1563 Q235.2969,57.0469 235.5156,57.0469 Q235.8906,57.0469 236.125,57.3125 Q236.3594,57.5625 236.3594,58.1719 L236.3594,59.625 Q236.3594,60.2344 236.125,60.5 Q235.8906,60.7656 235.5156,60.7656 Q235.1719,60.7656 234.9688,60.5625 Q234.7656,60.375 234.6563,59.8594 Q234.6094,59.5 234.4219,59.3125 Q234.0938,58.9375 233.4844,58.7188 Q232.875,58.5 232.25,58.5 Q231.4844,58.5 230.8438,58.8281 Q230.2188,59.1563 229.7188,59.9063 Q229.2344,60.6563 229.2344,61.6875 L229.2344,62.7813 Q229.2344,64.0156 230.125,64.8438 Q231.0156,65.6563 232.6094,65.6563 Q233.5469,65.6563 234.2031,65.4063 Q234.5938,65.25 235.0156,64.8125 Q235.2813,64.5469 235.4219,64.4688 Q235.5781,64.3906 235.7813,64.3906 Q236.1094,64.3906 236.3594,64.6563 Q236.625,64.9063 236.625,65.25 Q236.625,65.5938 236.2813,66 Q235.7813,66.5781 234.9844,66.9063 Q233.9063,67.3594 232.6094,67.3594 Q231.0938,67.3594 229.8906,66.7344 Q228.9063,66.2344 228.2188,65.1719 Q227.5313,64.0938 227.5313,62.8125 L227.5313,61.6563 Q227.5313,60.3281 228.1406,59.1875 Q228.7656,58.0313 229.8594,57.4219 Q230.9531,56.7969 232.1875,56.7969 Q232.9219,56.7969 233.5625,56.9688 Q234.2188,57.125 234.7656,57.4844 Z " fill="#000000"/><text fill="#000000" font-family="sans-serif" font-size="14" lengthAdjust="spacing" textLength="77.0479" x="246" y="67.3379">Coordinador</text><line style="stroke:#181818;stroke-width:0.5;" x1="218" x2="325.0479" y1="77.6094" y2="77.6094"/><line style="stroke:#181818;stroke-width:0.5;" x1="218" x2="325.0479" y1="85.6094" y2="85.6094"/></g><!--class Colaborador--><g class="entity" data-qualified-name="Colaborador" data-source-line="22" id="ent0006"><rect fill="#F1F1F1" height="48" rx="2.5" ry="2.5" style="stroke:#181818;stroke-width:0.5;" width="109.0479" x="325" y="297.6094"/><ellipse cx="340" cy="313.6094" fill="#ADD1B2" rx="11" ry="11" style="stroke:#181818;stroke-width:1;"/><path d="M342.7656,309.4844 Q342.9219,309.2656 343.1094,309.1563 Q343.2969,309.0469 343.5156,309.0469 Q343.8906,309.0469 344.125,309.3125 Q344.3594,309.5625 344.3594,310.1719 L344.3594,311.625 Q344.3594,312.2344 344.125,312.5 Q343.8906,312.7656 343.5156,312.7656 Q343.1719,312.7656 342.9688,312.5625 Q342.7656,312.375 342.6563,311.8594 Q342.6094,311.5 342.4219,311.3125 Q342.0938,310.9375 341.4844,310.7188 Q340.875,310.5 340.25,310.5 Q339.4844,310.5 338.8438,310.8281 Q338.2188,311.1563 337.7188,311.9063 Q337.2344,312.6563 337.2344,313.6875 L337.2344,314.7813 Q337.2344,316.0156 338.125,316.8438 Q339.0156,317.6563 340.6094,317.6563 Q341.5469,317.6563 342.2031,317.4063 Q342.5938,317.25 343.0156,316.8125 Q343.2813,316.5469 343.4219,316.4688 Q343.5781,316.3906 343.7813,316.3906 Q344.1094,316.3906 344.3594,316.6563 Q344.625,316.9063 344.625,317.25 Q344.625,317.5938 344.2813,318 Q343.7813,318.5781 342.9844,318.9063 Q341.9063,319.3594 340.6094,319.3594 Q339.0938,319.3594 337.8906,318.7344 Q336.9063,318.2344 336.2188,317.1719 Q335.5313,316.0938 335.5313,314.8125 L335.5313,313.6563 Q335.5313,312.3281 336.1406,311.1875 Q336.7656,310.0313 337.8594,309.4219 Q338.9531,308.7969 340.1875,308.7969 Q340.9219,308.7969 341.5625,308.9688 Q342.2188,309.125 342.7656,309.4844 Z " fill="#000000"/><text fill="#000000" font-family="sans-serif" font-size="14" lengthAdjust="spacing" textLength="77.0479" x="354" y="319.3379">Colaborador</text><line style="stroke:#181818;stroke-width:0.5;" x1="326" x2="433.0479" y1="329.6094" y2="329.6094"/><line style="stroke:#181818;stroke-width:0.5;" x1="326" x2="433.0479" y1="337.6094" y2="337.6094"/></g><!--class CargaTrabajo--><g class="entity" data-qualified-name="CargaTrabajo" data-source-line="25" id="ent0007"><rect fill="#F1F1F1" height="48" rx="2.5" ry="2.5" style="stroke:#181818;stroke-width:0.5;" width="117.5996" x="153.5" y="865.6094"/><ellipse cx="168.5" cy="881.6094" fill="#ADD1B2" rx="11" ry="11" style="stroke:#181818;stroke-width:1;"/><path d="M171.2656,877.4844 Q171.4219,877.2656 171.6094,877.1563 Q171.7969,877.0469 172.0156,877.0469 Q172.3906,877.0469 172.625,877.3125 Q172.8594,877.5625 172.8594,878.1719 L172.8594,879.625 Q172.8594,880.2344 172.625,880.5 Q172.3906,880.7656 172.0156,880.7656 Q171.6719,880.7656 171.4688,880.5625 Q171.2656,880.375 171.1563,879.8594 Q171.1094,879.5 170.9219,879.3125 Q170.5938,878.9375 169.9844,878.7188 Q169.375,878.5 168.75,878.5 Q167.9844,878.5 167.3438,878.8281 Q166.7188,879.1563 166.2188,879.9063 Q165.7344,880.6563 165.7344,881.6875 L165.7344,882.7813 Q165.7344,884.0156 166.625,884.8438 Q167.5156,885.6563 169.1094,885.6563 Q170.0469,885.6563 170.7031,885.4063 Q171.0938,885.25 171.5156,884.8125 Q171.7813,884.5469 171.9219,884.4688 Q172.0781,884.3906 172.2813,884.3906 Q172.6094,884.3906 172.8594,884.6563 Q173.125,884.9063 173.125,885.25 Q173.125,885.5938 172.7813,886 Q172.2813,886.5781 171.4844,886.9063 Q170.4063,887.3594 169.1094,887.3594 Q167.5938,887.3594 166.3906,886.7344 Q165.4063,886.2344 164.7188,885.1719 Q164.0313,884.0938 164.0313,882.8125 L164.0313,881.6563 Q164.0313,880.3281 164.6406,879.1875 Q165.2656,878.0313 166.3594,877.4219 Q167.4531,876.7969 168.6875,876.7969 Q169.4219,876.7969 170.0625,876.9688 Q170.7188,877.125 171.2656,877.4844 Z " fill="#000000"/><text fill="#000000" font-family="sans-serif" font-size="14" lengthAdjust="spacing" textLength="85.5996" x="182.5" y="887.3379">CargaTrabajo</text><line style="stroke:#181818;stroke-width:0.5;" x1="154.5" x2="270.0996" y1="897.6094" y2="897.6094"/><line style="stroke:#181818;stroke-width:0.5;" x1="154.5" x2="270.0996" y1="905.6094" y2="905.6094"/></g><!--class Entregables--><g class="entity" data-qualified-name="Entregables" data-source-line="28" id="ent0008"><rect fill="#F1F1F1" height="48" rx="2.5" ry="2.5" style="stroke:#181818;stroke-width:0.5;" width="106.7168" x="7" y="865.6094"/><ellipse cx="22" cy="881.6094" fill="#ADD1B2" rx="11" ry="11" style="stroke:#181818;stroke-width:1;"/><path d="M24.7656,877.4844 Q24.9219,877.2656 25.1094,877.1563 Q25.2969,877.0469 25.5156,877.0469 Q25.8906,877.0469 26.125,877.3125 Q26.3594,877.5625 26.3594,878.1719 L26.3594,879.625 Q26.3594,880.2344 26.125,880.5 Q25.8906,880.7656 25.5156,880.7656 Q25.1719,880.7656 24.9688,880.5625 Q24.7656,880.375 24.6563,879.8594 Q24.6094,879.5 24.4219,879.3125 Q24.0938,878.9375 23.4844,878.7188 Q22.875,878.5 22.25,878.5 Q21.4844,878.5 20.8438,878.8281 Q20.2188,879.1563 19.7188,879.9063 Q19.2344,880.6563 19.2344,881.6875 L19.2344,882.7813 Q19.2344,884.0156 20.125,884.8438 Q21.0156,885.6563 22.6094,885.6563 Q23.5469,885.6563 24.2031,885.4063 Q24.5938,885.25 25.0156,884.8125 Q25.2813,884.5469 25.4219,884.4688 Q25.5781,884.3906 25.7813,884.3906 Q26.1094,884.3906 26.3594,884.6563 Q26.625,884.9063 26.625,885.25 Q26.625,885.5938 26.2813,886 Q25.7813,886.5781 24.9844,886.9063 Q23.9063,887.3594 22.6094,887.3594 Q21.0938,887.3594 19.8906,886.7344 Q18.9063,886.2344 18.2188,885.1719 Q17.5313,884.0938 17.5313,882.8125 L17.5313,881.6563 Q17.5313,880.3281 18.1406,879.1875 Q18.7656,878.0313 19.8594,877.4219 Q20.9531,876.7969 22.1875,876.7969 Q22.9219,876.7969 23.5625,876.9688 Q24.2188,877.125 24.7656,877.4844 Z " fill="#000000"/><text fill="#000000" font-family="sans-serif" font-size="14" lengthAdjust="spacing" textLength="74.7168" x="36" y="887.3379">Entregables</text><line style="stroke:#181818;stroke-width:0.5;" x1="8" x2="112.7168" y1="897.6094" y2="897.6094"/><line style="stroke:#181818;stroke-width:0.5;" x1="8" x2="112.7168" y1="905.6094" y2="905.6094"/></g><!--class Recompensa--><g class="entity" data-qualified-name="Recompensa" data-source-line="31" id="ent0009"><rect fill="#F1F1F1" height="48" rx="2.5" ry="2.5" style="stroke:#181818;stroke-width:0.5;" width="114.4893" x="182.5" y="613.6094"/><ellipse cx="197.5" cy="629.6094" fill="#ADD1B2" rx="11" ry="11" style="stroke:#181818;stroke-width:1;"/><path d="M200.2656,625.4844 Q200.4219,625.2656 200.6094,625.1563 Q200.7969,625.0469 201.0156,625.0469 Q201.3906,625.0469 201.625,625.3125 Q201.8594,625.5625 201.8594,626.1719 L201.8594,627.625 Q201.8594,628.2344 201.625,628.5 Q201.3906,628.7656 201.0156,628.7656 Q200.6719,628.7656 200.4688,628.5625 Q200.2656,628.375 200.1563,627.8594 Q200.1094,627.5 199.9219,627.3125 Q199.5938,626.9375 198.9844,626.7188 Q198.375,626.5 197.75,626.5 Q196.9844,626.5 196.3438,626.8281 Q195.7188,627.1563 195.2188,627.9063 Q194.7344,628.6563 194.7344,629.6875 L194.7344,630.7813 Q194.7344,632.0156 195.625,632.8438 Q196.5156,633.6563 198.1094,633.6563 Q199.0469,633.6563 199.7031,633.4063 Q200.0938,633.25 200.5156,632.8125 Q200.7813,632.5469 200.9219,632.4688 Q201.0781,632.3906 201.2813,632.3906 Q201.6094,632.3906 201.8594,632.6563 Q202.125,632.9063 202.125,633.25 Q202.125,633.5938 201.7813,634 Q201.2813,634.5781 200.4844,634.9063 Q199.4063,635.3594 198.1094,635.3594 Q196.5938,635.3594 195.3906,634.7344 Q194.4063,634.2344 193.7188,633.1719 Q193.0313,632.0938 193.0313,630.8125 L193.0313,629.6563 Q193.0313,628.3281 193.6406,627.1875 Q194.2656,626.0313 195.3594,625.4219 Q196.4531,624.7969 197.6875,624.7969 Q198.4219,624.7969 199.0625,624.9688 Q199.7188,625.125 200.2656,625.4844 Z " fill="#000000"/><text fill="#000000" font-family="sans-serif" font-size="14" lengthAdjust="spacing" textLength="82.4893" x="211.5" y="635.3379">Recompensa</text><line style="stroke:#181818;stroke-width:0.5;" x1="183.5" x2="295.9893" y1="645.6094" y2="645.6094"/><line style="stroke:#181818;stroke-width:0.5;" x1="183.5" x2="295.9893" y1="653.6094" y2="653.6094"/></g><!--class PerfilInvestigador--><g class="entity" data-qualified-name="PerfilInvestigador" data-source-line="34" id="ent0010"><rect fill="#F1F1F1" height="48" rx="2.5" ry="2.5" style="stroke:#181818;stroke-width:0.5;" width="140.165" x="448.5" y="865.6094"/><ellipse cx="463.5" cy="881.6094" fill="#ADD1B2" rx="11" ry="11" style="stroke:#181818;stroke-width:1;"/><path d="M466.2656,877.4844 Q466.4219,877.2656 466.6094,877.1563 Q466.7969,877.0469 467.0156,877.0469 Q467.3906,877.0469 467.625,877.3125 Q467.8594,877.5625 467.8594,878.1719 L467.8594,879.625 Q467.8594,880.2344 467.625,880.5 Q467.3906,880.7656 467.0156,880.7656 Q466.6719,880.7656 466.4688,880.5625 Q466.2656,880.375 466.1563,879.8594 Q466.1094,879.5 465.9219,879.3125 Q465.5938,878.9375 464.9844,878.7188 Q464.375,878.5 463.75,878.5 Q462.9844,878.5 462.3438,878.8281 Q461.7188,879.1563 461.2188,879.9063 Q460.7344,880.6563 460.7344,881.6875 L460.7344,882.7813 Q460.7344,884.0156 461.625,884.8438 Q462.5156,885.6563 464.1094,885.6563 Q465.0469,885.6563 465.7031,885.4063 Q466.0938,885.25 466.5156,884.8125 Q466.7813,884.5469 466.9219,884.4688 Q467.0781,884.3906 467.2813,884.3906 Q467.6094,884.3906 467.8594,884.6563 Q468.125,884.9063 468.125,885.25 Q468.125,885.5938 467.7813,886 Q467.2813,886.5781 466.4844,886.9063 Q465.4063,887.3594 464.1094,887.3594 Q462.5938,887.3594 461.3906,886.7344 Q460.4063,886.2344 459.7188,885.1719 Q459.0313,884.0938 459.0313,882.8125 L459.0313,881.6563 Q459.0313,880.3281 459.6406,879.1875 Q460.2656,878.0313 461.3594,877.4219 Q462.4531,876.7969 463.6875,876.7969 Q464.4219,876.7969 465.0625,876.9688 Q465.7188,877.125 466.2656,877.4844 Z " fill="#000000"/><text fill="#000000" font-family="sans-serif" font-size="14" lengthAdjust="spacing" textLength="108.165" x="477.5" y="887.3379">PerfilInvestigador</text><line style="stroke:#181818;stroke-width:0.5;" x1="449.5" x2="587.665" y1="897.6094" y2="897.6094"/><line style="stroke:#181818;stroke-width:0.5;" x1="449.5" x2="587.665" y1="905.6094" y2="905.6094"/></g><!--class Publicacion--><g class="entity" data-qualified-name="Publicacion" data-source-line="37" id="ent0011"><rect fill="#F1F1F1" height="48" rx="2.5" ry="2.5" style="stroke:#181818;stroke-width:0.5;" width="103.5996" x="308.5" y="865.6094"/><ellipse cx="323.5" cy="881.6094" fill="#ADD1B2" rx="11" ry="11" style="stroke:#181818;stroke-width:1;"/><path d="M326.2656,877.4844 Q326.4219,877.2656 326.6094,877.1563 Q326.7969,877.0469 327.0156,877.0469 Q327.3906,877.0469 327.625,877.3125 Q327.8594,877.5625 327.8594,878.1719 L327.8594,879.625 Q327.8594,880.2344 327.625,880.5 Q327.3906,880.7656 327.0156,880.7656 Q326.6719,880.7656 326.4688,880.5625 Q326.2656,880.375 326.1563,879.8594 Q326.1094,879.5 325.9219,879.3125 Q325.5938,878.9375 324.9844,878.7188 Q324.375,878.5 323.75,878.5 Q322.9844,878.5 322.3438,878.8281 Q321.7188,879.1563 321.2188,879.9063 Q320.7344,880.6563 320.7344,881.6875 L320.7344,882.7813 Q320.7344,884.0156 321.625,884.8438 Q322.5156,885.6563 324.1094,885.6563 Q325.0469,885.6563 325.7031,885.4063 Q326.0938,885.25 326.5156,884.8125 Q326.7813,884.5469 326.9219,884.4688 Q327.0781,884.3906 327.2813,884.3906 Q327.6094,884.3906 327.8594,884.6563 Q328.125,884.9063 328.125,885.25 Q328.125,885.5938 327.7813,886 Q327.2813,886.5781 326.4844,886.9063 Q325.4063,887.3594 324.1094,887.3594 Q322.5938,887.3594 321.3906,886.7344 Q320.4063,886.2344 319.7188,885.1719 Q319.0313,884.0938 319.0313,882.8125 L319.0313,881.6563 Q319.0313,880.3281 319.6406,879.1875 Q320.2656,878.0313 321.3594,877.4219 Q322.4531,876.7969 323.6875,876.7969 Q324.4219,876.7969 325.0625,876.9688 Q325.7188,877.125 326.2656,877.4844 Z " fill="#000000"/><text fill="#000000" font-family="sans-serif" font-size="14" lengthAdjust="spacing" textLength="71.5996" x="337.5" y="887.3379">Publicacion</text><line style="stroke:#181818;stroke-width:0.5;" x1="309.5" x2="411.0996" y1="897.6094" y2="897.6094"/><line style="stroke:#181818;stroke-width:0.5;" x1="309.5" x2="411.0996" y1="905.6094" y2="905.6094"/></g><!--link Convocatoria to Propuesta--><g class="link" data-entity-1="ent0002" data-entity-2="ent0003" data-link-type="dependency" data-source-line="42" id="lnk12"><path codeLine="42" d="M162.8,219.6394 C164.05,241.7794 165.6493,270.0573 166.8993,292.2873" fill="none" id="Convocatoria-to-Propuesta" style="stroke:#181818;stroke-width:1;"/><polygon fill="#181818" points="167.18,297.2794,170.6684,288.069,166.8993,292.2873,162.681,288.5181,167.18,297.2794" style="stroke:#181818;stroke-width:1;stroke-linejoin:miter;stroke-miterlimit:10;"/><text fill="#000000" font-family="sans-serif" font-size="13" lengthAdjust="spacing" textLength="40.479" x="166.5" y="264.1045">genera</text></g><!--link Propuesta to Proyecto--><g class="link" data-entity-1="ent0003" data-entity-2="ent0001" data-link-type="dependency" data-source-line="43" id="lnk13"><path codeLine="43" d="M178.98,345.6294 C188.27,366.0494 200.1602,392.1579 212.3202,418.8979" fill="none" id="Propuesta-to-Proyecto" style="stroke:#181818;stroke-width:1;"/><polygon fill="#181818" points="214.39,423.4494,214.3056,413.6009,212.3202,418.8979,207.0232,416.9125,214.39,423.4494" style="stroke:#181818;stroke-width:1;stroke-linejoin:miter;stroke-miterlimit:10;"/><text fill="#000000" font-family="sans-serif" font-size="13" lengthAdjust="spacing" textLength="40.479" x="201.5" y="390.1045">genera</text></g><!--reverse link Proyecto to InvestigadorDocente--><g class="link" data-entity-1="ent0001" data-entity-2="ent0004" data-link-type="aggregation" data-source-line="46" id="lnk14"><path codeLine="46" d="M281.651,546.0211 C306.301,587.1311 330.76,635.3694 344.5,691.6094 C348.33,707.2694 350.33,725.3394 351.38,739.3294" fill="none" id="Proyecto-backto-InvestigadorDocente" style="stroke:#181818;stroke-width:1;"/><polygon fill="none" points="275.48,535.7294,275.1349,542.9322,281.651,546.0211,281.9961,538.8182,275.48,535.7294" style="stroke:#181818;stroke-width:1;stroke-linejoin:miter;stroke-miterlimit:10;"/><text fill="#000000" font-family="sans-serif" font-size="13" lengthAdjust="spacing" textLength="98.2744" x="336.5" y="643.1045">est&#225; formado por</text></g><!--reverse link Proyecto to Entregables--><g class="link" data-entity-1="ent0001" data-entity-2="ent0008" data-link-type="composition" data-source-line="47" id="lnk15"><path codeLine="47" d="M180.9931,545.2691 C173.4431,554.8091 173.6,555.5094 167.5,565.6094 C105.62,667.9794 74.69,810.4994 64.46,865.5994" fill="none" id="Proyecto-backto-Entregables" style="stroke:#181818;stroke-width:1;"/><polygon fill="#181818" points="188.44,535.8594,181.58,538.0819,180.9931,545.2691,187.8531,543.0466,188.44,535.8594" style="stroke:#181818;stroke-width:1;stroke-linejoin:miter;stroke-miterlimit:10;"/><text fill="#000000" font-family="sans-serif" font-size="13" lengthAdjust="spacing" textLength="28.1899" x="111.5" y="706.1045">tiene</text></g><!--reverse link Proyecto to CargaTrabajo--><g class="link" data-entity-1="ent0001" data-entity-2="ent0007" data-link-type="composition" data-source-line="48" id="lnk16"><path codeLine="48" d="M193.6778,545.9874 C179.5578,568.9174 171.67,586.2994 164.5,613.6094 C151.85,661.7894 145.57,749.9894 175.5,835.6094 C179.2,846.1994 185.66,856.6094 192.15,865.3494" fill="none" id="Proyecto-backto-CargaTrabajo" style="stroke:#181818;stroke-width:1;"/><polygon fill="#181818" points="199.97,535.7694,193.4179,538.781,193.6778,545.9874,200.2299,542.9758,199.97,535.7694" style="stroke:#181818;stroke-width:1;stroke-linejoin:miter;stroke-miterlimit:10;"/><text fill="#000000" font-family="sans-serif" font-size="13" lengthAdjust="spacing" textLength="40.479" x="155.5" y="706.1045">genera</text></g><!--reverse link Proyecto to Recompensa--><g class="link" data-entity-1="ent0001" data-entity-2="ent0009" data-link-type="composition" data-source-line="49" id="lnk17"><path codeLine="49" d="M239.5,548.0494 C239.5,574.6694 239.5,593.1294 239.5,613.4894" fill="none" id="Proyecto-backto-Recompensa" style="stroke:#181818;stroke-width:1;"/><polygon fill="#181818" points="239.5,536.0494,235.5,542.0494,239.5,548.0494,243.5,542.0494,239.5,536.0494" style="stroke:#181818;stroke-width:1;stroke-linejoin:miter;stroke-miterlimit:10;"/><text fill="#000000" font-family="sans-serif" font-size="13" lengthAdjust="spacing" textLength="40.479" x="240.5" y="580.1045">genera</text></g><!--link Coordinador to Proyecto--><g class="link" data-entity-1="ent0005" data-entity-2="ent0001" data-link-type="dependency" data-source-line="52" id="lnk18"><path codeLine="52" d="M270.31,93.7494 C267.51,146.8294 259.92,281.3994 249.5,393.6094 C248.61,403.2294 248.0826,408.4711 246.9626,418.3611" fill="none" id="Coordinador-to-Proyecto" style="stroke:#181818;stroke-width:1;"/><polygon fill="#181818" points="246.4,423.3294,251.3873,414.8366,246.9626,418.3611,243.4381,413.9364,246.4,423.3294" style="stroke:#181818;stroke-width:1;stroke-linejoin:miter;stroke-miterlimit:10;"/><text fill="#000000" font-family="sans-serif" font-size="13" lengthAdjust="spacing" textLength="49.8672" x="261.5" y="264.1045">coordina</text></g><!--link Coordinador to Convocatoria--><g class="link" data-entity-1="ent0005" data-entity-2="ent0002" data-link-type="dependency" data-source-line="53" id="lnk19"><path codeLine="53" d="M241.31,93.6394 C230.69,102.4394 219.03,112.9394 209.5,123.6094 C196.32,138.3694 186.5043,152.7034 177.5943,167.1534" fill="none" id="Coordinador-to-Convocatoria" style="stroke:#181818;stroke-width:1;"/><polygon fill="#181818" points="174.97,171.4094,183.0984,165.8481,177.5943,167.1534,176.2889,161.6492,174.97,171.4094" style="stroke:#181818;stroke-width:1;stroke-linejoin:miter;stroke-miterlimit:10;"/><text fill="#000000" font-family="sans-serif" font-size="13" lengthAdjust="spacing" textLength="34.6899" x="210.5" y="138.1045">busca</text></g><!--link Coordinador to InvestigadorDocente--><g class="link" data-entity-1="ent0005" data-entity-2="ent0004" data-link-type="dependency" data-source-line="54" id="lnk20"><path codeLine="54" d="M326.23,74.2294 C399.27,82.3694 519.5,108.7994 519.5,194.6094 C519.5,194.6094 519.5,194.6094 519.5,638.6094 C519.5,688.2594 475.9174,718.3836 431.3174,737.4536" fill="none" id="Coordinador-to-InvestigadorDocente" style="stroke:#181818;stroke-width:1;"/><polygon fill="#181818" points="426.72,739.4194,436.5679,739.5589,431.3174,737.4536,433.4227,732.2031,426.72,739.4194" style="stroke:#181818;stroke-width:1;stroke-linejoin:miter;stroke-miterlimit:10;"/><text fill="#000000" font-family="sans-serif" font-size="13" lengthAdjust="spacing" textLength="39.019" x="520.5" y="390.1045">recluta</text></g><!--link Colaborador to Proyecto--><g class="link" data-entity-1="ent0006" data-entity-2="ent0001" data-link-type="dependency" data-source-line="57" id="lnk21"><path codeLine="57" d="M358.84,345.6294 C340.51,366.0494 316.3397,392.9883 292.3397,419.7283" fill="none" id="Colaborador-to-Proyecto" style="stroke:#181818;stroke-width:1;"/><polygon fill="#181818" points="289,423.4494,297.9884,419.4233,292.3397,419.7283,292.0347,414.0797,289,423.4494" style="stroke:#181818;stroke-width:1;stroke-linejoin:miter;stroke-miterlimit:10;"/><text fill="#000000" font-family="sans-serif" font-size="13" lengthAdjust="spacing" textLength="49.1372" x="330.5" y="390.1045">participa</text></g><!--link InvestigadorDocente to CargaTrabajo--><g class="link" data-entity-1="ent0004" data-entity-2="ent0007" data-link-type="dependency" data-source-line="60" id="lnk22"><path codeLine="60" d="M326.5,787.6394 C301.51,809.7794 267.683,839.7343 242.583,861.9643" fill="none" id="InvestigadorDocente-to-CargaTrabajo" style="stroke:#181818;stroke-width:1;"/><polygon fill="#181818" points="238.84,865.2794,248.2295,862.3067,242.583,861.9643,242.9254,856.3178,238.84,865.2794" style="stroke:#181818;stroke-width:1;stroke-linejoin:miter;stroke-miterlimit:10;"/><text fill="#000000" font-family="sans-serif" font-size="13" lengthAdjust="spacing" textLength="28.1899" x="291.5" y="832.1045">tiene</text></g><!--reverse link InvestigadorDocente to PerfilInvestigador--><g class="link" data-entity-1="ent0004" data-entity-2="ent0010" data-link-type="composition" data-source-line="61" id="lnk23"><path codeLine="61" d="M411.1355,793.3103 C427.0055,801.8203 433.78,806.4594 448.5,817.6094 C467.12,831.7194 485.57,850.6994 498.85,865.4794" fill="none" id="InvestigadorDocente-backto-PerfilInvestigador" style="stroke:#181818;stroke-width:1;"/><polygon fill="#181818" points="400.56,787.6394,403.9574,794,411.1355,793.3103,407.738,786.9497,400.56,787.6394" style="stroke:#181818;stroke-width:1;stroke-linejoin:miter;stroke-miterlimit:10;"/><text fill="#000000" font-family="sans-serif" font-size="13" lengthAdjust="spacing" textLength="28.1899" x="469.5" y="832.1045">tiene</text></g><!--link InvestigadorDocente to InvestigadorDocente--><g class="link" data-entity-1="ent0004" data-entity-2="ent0004" data-link-type="dependency" data-source-line="62" id="lnk24"><path codeLine="62" d="M432.58,752.1394 C452.56,752.9494 467.5,756.7694 467.5,763.6094 C467.5,770.4494 457.5559,774.0668 437.5759,774.8768" fill="none" id="InvestigadorDocente-to-InvestigadorDocente" style="stroke:#181818;stroke-width:1;"/><polygon fill="#181818" points="432.58,775.0794,441.7346,778.7115,437.5759,774.8768,441.4106,770.7181,432.58,775.0794" style="stroke:#181818;stroke-width:1;stroke-linejoin:miter;stroke-miterlimit:10;"/><text fill="#000000" font-family="sans-serif" font-size="13" lengthAdjust="spacing" textLength="81.6626" x="473.5" y="769.1045">interact&#250;a con</text></g><!--link InvestigadorDocente to Entregables--><g class="link" data-entity-1="ent0004" data-entity-2="ent0008" data-link-type="dependency" data-source-line="63" id="lnk25"><path codeLine="63" d="M295.56,787.6994 C273.07,796.8994 247.02,807.6594 223.5,817.6094 C186.4,833.3094 149.3474,849.4376 117.4474,863.4576" fill="none" id="InvestigadorDocente-to-Entregables" style="stroke:#181818;stroke-width:1;"/><polygon fill="#181818" points="112.87,865.4694,122.7188,865.5101,117.4474,863.4576,119.4999,858.1863,112.87,865.4694" style="stroke:#181818;stroke-width:1;stroke-linejoin:miter;stroke-miterlimit:10;"/><text fill="#000000" font-family="sans-serif" font-size="13" lengthAdjust="spacing" textLength="40.479" x="224.5" y="832.1045">genera</text></g><!--link InvestigadorDocente to Publicacion--><g class="link" data-entity-1="ent0004" data-entity-2="ent0011" data-link-type="dependency" data-source-line="64" id="lnk26"><path codeLine="64" d="M342.05,787.9294 C337.15,801.7694 333.06,819.6794 336.5,835.6094 C338.72,845.8794 340.8957,852.0566 345.3157,861.1066" fill="none" id="InvestigadorDocente-to-Publicacion" style="stroke:#181818;stroke-width:1;"/><polygon fill="#181818" points="347.51,865.5994,347.1545,855.7569,345.3157,861.1066,339.9661,859.2678,347.51,865.5994" style="stroke:#181818;stroke-width:1;stroke-linejoin:miter;stroke-miterlimit:10;"/><text fill="#000000" font-family="sans-serif" font-size="13" lengthAdjust="spacing" textLength="41.1963" x="337.5" y="832.1045">publica</text></g><!--link InvestigadorDocente to Publicacion--><g class="link" data-entity-1="ent0004" data-entity-2="ent0011" data-link-type="dependency" data-source-line="65" id="lnk27"><path codeLine="65" d="M369.57,787.6794 C375.16,796.5694 380.66,807.1194 383.5,817.6094 C387.87,833.7394 384.24,847.1792 377.33,860.9692" fill="none" id="InvestigadorDocente-to-Publicacion-1" style="stroke:#181818;stroke-width:1;"/><polygon fill="#181818" points="375.09,865.4394,382.6981,859.185,377.33,860.9692,375.5458,855.6011,375.09,865.4394" style="stroke:#181818;stroke-width:1;stroke-linejoin:miter;stroke-miterlimit:10;"/><text fill="#000000" font-family="sans-serif" font-size="13" lengthAdjust="spacing" textLength="54.209" x="385.5" y="832.1045">responde</text></g><!--link Recompensa to InvestigadorDocente--><g class="link" data-entity-1="ent0009" data-entity-2="ent0004" data-link-type="dependency" data-source-line="68" id="lnk28"><path codeLine="68" d="M252.25,661.6394 C260.9,676.2094 273.15,694.9794 286.5,709.6094 C296.3,720.3594 304.4542,727.6484 315.5942,736.3184" fill="none" id="Recompensa-to-InvestigadorDocente" style="stroke:#181818;stroke-width:1;"/><polygon fill="#181818" points="319.54,739.3894,314.8943,730.7051,315.5942,736.3184,309.9808,737.0183,319.54,739.3894" style="stroke:#181818;stroke-width:1;stroke-linejoin:miter;stroke-miterlimit:10;"/><text fill="#000000" font-family="sans-serif" font-size="13" lengthAdjust="spacing" textLength="52.0381" x="287.5" y="706.1045">beneficia</text></g><?plantuml-src ZLH1Ri903BplAonwQyK78eI4e5Iz8TG-mDcOi5LOHyw2L5Kyfc_ehLS-LWSex4AeoWMO6Nl7uqs22nL1R-Am55mX50JZ2XjguDMxXRDOS0PFr0It-_8jEnD-9nkuWGUOKz52ptxJ2ahL2ZKzOwnsQ4vA60ncuhnrDLR38TnDfoFzm8S1GB5Bjz4w_RqWkyHH19p86OlP_dOTiz-mnS3YK7jiezFgjTf8mDZPX2tvG34zPfR2-PPDuGfpbYiOfSGNmHpVECOVVH0gCQyqj0YUa-LLJRv9RP8iN1NxIjXrNcdcrh7VvmFGSYQPkTyVHiDcK98dGNE6Ze93zYVUc1F6_NvdCXdq5Djzme9bfGJKBBrpsRsMnRDc49psJWL9IB6vioGA9d8Nx-9Y0dkahZH9BXdawyPUYxed5RBLEXmEFc_xuk0Q9RZstggigytUGphm8P8kSJjwn_R_Ahbjt-cNe0sxRzHu_CtgT5_7i6-9ezkdin_-_4-iZttDlY3DAThkRVkv6j6NYqFp0m00?></g></svg>