<svg xmlns="http://www.w3.org/2000/svg" xmlns:xlink="http://www.w3.org/1999/xlink" contentStyleType="text/css" data-diagram-type="CLASS" height="928px" preserveAspectRatio="none" style="width:424px;height:928px;background:#FFFFFF;" version="1.1" viewBox="0 0 424 928" width="424px" zoomAndPan="magnify"><?plantuml 1.2026.5?><defs/><g><g class="title" data-source-line="2"><text fill="#000000" font-family="sans-serif" font-size="14" font-weight="700" lengthAdjust="spacing" textLength="218.6201" x="99.5039" y="24.5332">Sistema de gesti&#243;n de proyectos</text></g><!--class Proyecto--><g class="entity" data-qualified-name="Proyecto" data-source-line="4" id="ent0001"><rect fill="#FFAAAA" height="111.5313" rx="2.5" ry="2.5" style="stroke:#181818;stroke-width:0.5;" width="108.5029" x="162.58" y="423.6094"/><ellipse cx="187.0911" cy="444.9609" fill="#ADD1B2" rx="11" ry="11" style="stroke:#181818;stroke-width:1;"/><path d="M189.8567,440.8359 Q190.013,440.6172 190.2005,440.5078 Q190.388,440.3984 190.6067,440.3984 Q190.9817,440.3984 191.2161,440.6641 Q191.4505,440.9141 191.4505,441.5234 L191.4505,442.9766 Q191.4505,443.5859 191.2161,443.8516 Q190.9817,444.1172 190.6067,444.1172 Q190.263,444.1172 190.0598,443.9141 Q189.8567,443.7266 189.7473,443.2109 Q189.7005,442.8516 189.513,442.6641 Q189.1848,442.2891 188.5755,442.0703 Q187.9661,441.8516 187.3411,441.8516 Q186.5755,441.8516 185.9348,442.1797 Q185.3098,442.5078 184.8098,443.2578 Q184.3255,444.0078 184.3255,445.0391 L184.3255,446.1328 Q184.3255,447.3672 185.2161,448.1953 Q186.1067,449.0078 187.7005,449.0078 Q188.638,449.0078 189.2942,448.7578 Q189.6848,448.6016 190.1067,448.1641 Q190.3723,447.8984 190.513,447.8203 Q190.6692,447.7422 190.8723,447.7422 Q191.2005,447.7422 191.4505,448.0078 Q191.7161,448.2578 191.7161,448.6016 Q191.7161,448.9453 191.3723,449.3516 Q190.8723,449.9297 190.0755,450.2578 Q188.9973,450.7109 187.7005,450.7109 Q186.1848,450.7109 184.9817,450.0859 Q183.9973,449.5859 183.3098,448.5234 Q182.6223,447.4453 182.6223,446.1641 L182.6223,445.0078 Q182.6223,443.6797 183.2317,442.5391 Q183.8567,441.3828 184.9505,440.7734 Q186.0442,440.1484 187.2786,440.1484 Q188.013,440.1484 188.6536,440.3203 Q189.3098,440.4766 189.8567,440.8359 Z " fill="#000000"/><text fill="#000000" font-family="sans-serif" font-size="12" font-style="italic" lengthAdjust="spacing" textLength="59.3672" x="201.2047" y="441.0664">&#171;Principal&#187;</text><text fill="#000000" font-family="sans-serif" font-size="14" lengthAdjust="spacing" textLength="55.248" x="203.2642" y="458.2363">Proyecto</text><line style="stroke:#181818;stroke-width:0.5;" x1="163.58" x2="270.0829" y1="466.3125" y2="466.3125"/><text fill="#000000" font-family="sans-serif" font-size="14" lengthAdjust="spacing" textLength="60.7031" x="168.58" y="484.8457">archivado</text><text fill="#000000" font-family="sans-serif" font-size="14" lengthAdjust="spacing" textLength="96.5029" x="168.58" y="502.4551">fechaArchivado</text><text fill="#000000" font-family="sans-serif" font-size="14" lengthAdjust="spacing" textLength="82.4893" x="168.58" y="520.0645">archivadoPor</text><line style="stroke:#181818;stroke-width:0.5;" x1="163.58" x2="270.0829" y1="527.1406" y2="527.1406"/></g><!--class Convocatoria--><g class="entity" data-qualified-name="Convocatoria" data-source-line="10" id="ent0002"><rect fill="#F1F1F1" height="48" rx="2.5" ry="2.5" style="stroke:#181818;stroke-width:0.5;" width="114.4893" x="165.08" y="171.6094"/><ellipse cx="180.08" cy="187.6094" fill="#ADD1B2" rx="11" ry="11" style="stroke:#181818;stroke-width:1;"/><path d="M182.8456,183.4844 Q183.0019,183.2656 183.1894,183.1563 Q183.3769,183.0469 183.5956,183.0469 Q183.9706,183.0469 184.205,183.3125 Q184.4394,183.5625 184.4394,184.1719 L184.4394,185.625 Q184.4394,186.2344 184.205,186.5 Q183.9706,186.7656 183.5956,186.7656 Q183.2519,186.7656 183.0488,186.5625 Q182.8456,186.375 182.7363,185.8594 Q182.6894,185.5 182.5019,185.3125 Q182.1738,184.9375 181.5644,184.7188 Q180.955,184.5 180.33,184.5 Q179.5644,184.5 178.9238,184.8281 Q178.2988,185.1563 177.7988,185.9063 Q177.3144,186.6563 177.3144,187.6875 L177.3144,188.7813 Q177.3144,190.0156 178.205,190.8438 Q179.0956,191.6563 180.6894,191.6563 Q181.6269,191.6563 182.2831,191.4063 Q182.6738,191.25 183.0956,190.8125 Q183.3613,190.5469 183.5019,190.4688 Q183.6581,190.3906 183.8613,190.3906 Q184.1894,190.3906 184.4394,190.6563 Q184.705,190.9063 184.705,191.25 Q184.705,191.5938 184.3613,192 Q183.8613,192.5781 183.0644,192.9063 Q181.9863,193.3594 180.6894,193.3594 Q179.1738,193.3594 177.9706,192.7344 Q176.9863,192.2344 176.2988,191.1719 Q175.6113,190.0938 175.6113,188.8125 L175.6113,187.6563 Q175.6113,186.3281 176.2206,185.1875 Q176.8456,184.0313 177.9394,183.4219 Q179.0331,182.7969 180.2675,182.7969 Q181.0019,182.7969 181.6425,182.9688 Q182.2988,183.125 182.8456,183.4844 Z " fill="#000000"/><text fill="#000000" font-family="sans-serif" font-size="14" lengthAdjust="spacing" textLength="82.4893" x="194.08" y="193.3379">Convocatoria</text><line style="stroke:#181818;stroke-width:0.5;" x1="166.08" x2="278.5693" y1="203.6094" y2="203.6094"/><line style="stroke:#181818;stroke-width:0.5;" x1="166.08" x2="278.5693" y1="211.6094" y2="211.6094"/></g><!--class Propuesta--><g class="entity" data-qualified-name="Propuesta" data-source-line="13" id="ent0003"><rect fill="#F1F1F1" height="48" rx="2.5" ry="2.5" style="stroke:#181818;stroke-width:0.5;" width="95.8203" x="169.08" y="297.6094"/><ellipse cx="184.08" cy="313.6094" fill="#ADD1B2" rx="11" ry="11" style="stroke:#181818;stroke-width:1;"/><path d="M186.8456,309.4844 Q187.0019,309.2656 187.1894,309.1563 Q187.3769,309.0469 187.5956,309.0469 Q187.9706,309.0469 188.205,309.3125 Q188.4394,309.5625 188.4394,310.1719 L188.4394,311.625 Q188.4394,312.2344 188.205,312.5 Q187.9706,312.7656 187.5956,312.7656 Q187.2519,312.7656 187.0488,312.5625 Q186.8456,312.375 186.7363,311.8594 Q186.6894,311.5 186.5019,311.3125 Q186.1738,310.9375 185.5644,310.7188 Q184.955,310.5 184.33,310.5 Q183.5644,310.5 182.9238,310.8281 Q182.2988,311.1563 181.7988,311.9063 Q181.3144,312.6563 181.3144,313.6875 L181.3144,314.7813 Q181.3144,316.0156 182.205,316.8438 Q183.0956,317.6563 184.6894,317.6563 Q185.6269,317.6563 186.2831,317.4063 Q186.6738,317.25 187.0956,316.8125 Q187.3613,316.5469 187.5019,316.4688 Q187.6581,316.3906 187.8613,316.3906 Q188.1894,316.3906 188.4394,316.6563 Q188.705,316.9063 188.705,317.25 Q188.705,317.5938 188.3613,318 Q187.8613,318.5781 187.0644,318.9063 Q185.9863,319.3594 184.6894,319.3594 Q183.1738,319.3594 181.9706,318.7344 Q180.9863,318.2344 180.2988,317.1719 Q179.6113,316.0938 179.6113,314.8125 L179.6113,313.6563 Q179.6113,312.3281 180.2206,311.1875 Q180.8456,310.0313 181.9394,309.4219 Q183.0331,308.7969 184.2675,308.7969 Q185.0019,308.7969 185.6425,308.9688 Q186.2988,309.125 186.8456,309.4844 Z " fill="#000000"/><text fill="#000000" font-family="sans-serif" font-size="14" lengthAdjust="spacing" textLength="63.8203" x="198.08" y="319.3379">Propuesta</text><line style="stroke:#181818;stroke-width:0.5;" x1="170.08" x2="263.9003" y1="329.6094" y2="329.6094"/><line style="stroke:#181818;stroke-width:0.5;" x1="170.08" x2="263.9003" y1="337.6094" y2="337.6094"/></g><!--class InvestigadorDocente--><g class="entity" data-qualified-name="InvestigadorDocente" data-source-line="16" id="ent0004"><rect fill="#F1F1F1" height="48" rx="2.5" ry="2.5" style="stroke:#181818;stroke-width:0.5;" width="160.4131" x="137.08" y="739.6094"/><ellipse cx="152.08" cy="755.6094" fill="#ADD1B2" rx="11" ry="11" style="stroke:#181818;stroke-width:1;"/><path d="M154.8456,751.4844 Q155.0019,751.2656 155.1894,751.1563 Q155.3769,751.0469 155.5956,751.0469 Q155.9706,751.0469 156.205,751.3125 Q156.4394,751.5625 156.4394,752.1719 L156.4394,753.625 Q156.4394,754.2344 156.205,754.5 Q155.9706,754.7656 155.5956,754.7656 Q155.2519,754.7656 155.0487,754.5625 Q154.8456,754.375 154.7362,753.8594 Q154.6894,753.5 154.5019,753.3125 Q154.1737,752.9375 153.5644,752.7188 Q152.955,752.5 152.33,752.5 Q151.5644,752.5 150.9237,752.8281 Q150.2987,753.1563 149.7987,753.9063 Q149.3144,754.6563 149.3144,755.6875 L149.3144,756.7813 Q149.3144,758.0156 150.205,758.8438 Q151.0956,759.6563 152.6894,759.6563 Q153.6269,759.6563 154.2831,759.4063 Q154.6737,759.25 155.0956,758.8125 Q155.3612,758.5469 155.5019,758.4688 Q155.6581,758.3906 155.8612,758.3906 Q156.1894,758.3906 156.4394,758.6563 Q156.705,758.9063 156.705,759.25 Q156.705,759.5938 156.3612,760 Q155.8612,760.5781 155.0644,760.9063 Q153.9862,761.3594 152.6894,761.3594 Q151.1737,761.3594 149.9706,760.7344 Q148.9862,760.2344 148.2987,759.1719 Q147.6112,758.0938 147.6112,756.8125 L147.6112,755.6563 Q147.6112,754.3281 148.2206,753.1875 Q148.8456,752.0313 149.9394,751.4219 Q151.0331,750.7969 152.2675,750.7969 Q153.0019,750.7969 153.6425,750.9688 Q154.2987,751.125 154.8456,751.4844 Z " fill="#000000"/><text fill="#000000" font-family="sans-serif" font-size="14" lengthAdjust="spacing" textLength="128.4131" x="166.08" y="761.3379">InvestigadorDocente</text><line style="stroke:#181818;stroke-width:0.5;" x1="138.08" x2="296.4931" y1="771.6094" y2="771.6094"/><line style="stroke:#181818;stroke-width:0.5;" x1="138.08" x2="296.4931" y1="779.6094" y2="779.6094"/></g><!--class Coordinador--><g class="entity" data-qualified-name="Coordinador" data-source-line="19" id="ent0005"><rect fill="#F1F1F1" height="48" rx="2.5" ry="2.5" style="stroke:#181818;stroke-width:0.5;" width="109.0479" x="86.58" y="45.6094"/><ellipse cx="101.58" cy="61.6094" fill="#ADD1B2" rx="11" ry="11" style="stroke:#181818;stroke-width:1;"/><path d="M104.3456,57.4844 Q104.5019,57.2656 104.6894,57.1563 Q104.8769,57.0469 105.0956,57.0469 Q105.4706,57.0469 105.705,57.3125 Q105.9394,57.5625 105.9394,58.1719 L105.9394,59.625 Q105.9394,60.2344 105.705,60.5 Q105.4706,60.7656 105.0956,60.7656 Q104.7519,60.7656 104.5488,60.5625 Q104.3456,60.375 104.2363,59.8594 Q104.1894,59.5 104.0019,59.3125 Q103.6738,58.9375 103.0644,58.7188 Q102.455,58.5 101.83,58.5 Q101.0644,58.5 100.4238,58.8281 Q99.7988,59.1563 99.2988,59.9063 Q98.8144,60.6563 98.8144,61.6875 L98.8144,62.7813 Q98.8144,64.0156 99.705,64.8438 Q100.5956,65.6563 102.1894,65.6563 Q103.1269,65.6563 103.7831,65.4063 Q104.1738,65.25 104.5956,64.8125 Q104.8613,64.5469 105.0019,64.4688 Q105.1581,64.3906 105.3613,64.3906 Q105.6894,64.3906 105.9394,64.6563 Q106.205,64.9063 106.205,65.25 Q106.205,65.5938 105.8613,66 Q105.3613,66.5781 104.5644,66.9063 Q103.4863,67.3594 102.1894,67.3594 Q100.6738,67.3594 99.4706,66.7344 Q98.4863,66.2344 97.7988,65.1719 Q97.1113,64.0938 97.1113,62.8125 L97.1113,61.6563 Q97.1113,60.3281 97.7206,59.1875 Q98.3456,58.0313 99.4394,57.4219 Q100.5331,56.7969 101.7675,56.7969 Q102.5019,56.7969 103.1425,56.9688 Q103.7988,57.125 104.3456,57.4844 Z " fill="#000000"/><text fill="#000000" font-family="sans-serif" font-size="14" lengthAdjust="spacing" textLength="77.0479" x="115.58" y="67.3379">Coordinador</text><line style="stroke:#181818;stroke-width:0.5;" x1="87.58" x2="194.6279" y1="77.6094" y2="77.6094"/><line style="stroke:#181818;stroke-width:0.5;" x1="87.58" x2="194.6279" y1="85.6094" y2="85.6094"/></g><!--class Colaborador--><g class="entity" data-qualified-name="Colaborador" data-source-line="22" id="ent0006"><rect fill="#F1F1F1" height="48" rx="2.5" ry="2.5" style="stroke:#181818;stroke-width:0.5;" width="109.0479" x="300.58" y="297.6094"/><ellipse cx="315.58" cy="313.6094" fill="#ADD1B2" rx="11" ry="11" style="stroke:#181818;stroke-width:1;"/><path d="M318.3456,309.4844 Q318.5019,309.2656 318.6894,309.1563 Q318.8769,309.0469 319.0956,309.0469 Q319.4706,309.0469 319.705,309.3125 Q319.9394,309.5625 319.9394,310.1719 L319.9394,311.625 Q319.9394,312.2344 319.705,312.5 Q319.4706,312.7656 319.0956,312.7656 Q318.7519,312.7656 318.5488,312.5625 Q318.3456,312.375 318.2363,311.8594 Q318.1894,311.5 318.0019,311.3125 Q317.6738,310.9375 317.0644,310.7188 Q316.455,310.5 315.83,310.5 Q315.0644,310.5 314.4238,310.8281 Q313.7988,311.1563 313.2988,311.9063 Q312.8144,312.6563 312.8144,313.6875 L312.8144,314.7813 Q312.8144,316.0156 313.705,316.8438 Q314.5956,317.6563 316.1894,317.6563 Q317.1269,317.6563 317.7831,317.4063 Q318.1738,317.25 318.5956,316.8125 Q318.8613,316.5469 319.0019,316.4688 Q319.1581,316.3906 319.3613,316.3906 Q319.6894,316.3906 319.9394,316.6563 Q320.205,316.9063 320.205,317.25 Q320.205,317.5938 319.8613,318 Q319.3613,318.5781 318.5644,318.9063 Q317.4863,319.3594 316.1894,319.3594 Q314.6738,319.3594 313.4706,318.7344 Q312.4863,318.2344 311.7988,317.1719 Q311.1113,316.0938 311.1113,314.8125 L311.1113,313.6563 Q311.1113,312.3281 311.7206,311.1875 Q312.3456,310.0313 313.4394,309.4219 Q314.5331,308.7969 315.7675,308.7969 Q316.5019,308.7969 317.1425,308.9688 Q317.7988,309.125 318.3456,309.4844 Z " fill="#000000"/><text fill="#000000" font-family="sans-serif" font-size="14" lengthAdjust="spacing" textLength="77.0479" x="329.58" y="319.3379">Colaborador</text><line style="stroke:#181818;stroke-width:0.5;" x1="301.58" x2="408.6279" y1="329.6094" y2="329.6094"/><line style="stroke:#181818;stroke-width:0.5;" x1="301.58" x2="408.6279" y1="337.6094" y2="337.6094"/></g><!--class CargaTrabajo--><g class="entity" data-qualified-name="CargaTrabajo" data-source-line="25" id="ent0007"><rect fill="#F1F1F1" height="48" rx="2.5" ry="2.5" style="stroke:#181818;stroke-width:0.5;" width="117.5996" x="50.08" y="865.6094"/><ellipse cx="65.08" cy="881.6094" fill="#ADD1B2" rx="11" ry="11" style="stroke:#181818;stroke-width:1;"/><path d="M67.8456,877.4844 Q68.0019,877.2656 68.1894,877.1563 Q68.3769,877.0469 68.5956,877.0469 Q68.9706,877.0469 69.205,877.3125 Q69.4394,877.5625 69.4394,878.1719 L69.4394,879.625 Q69.4394,880.2344 69.205,880.5 Q68.9706,880.7656 68.5956,880.7656 Q68.2519,880.7656 68.0488,880.5625 Q67.8456,880.375 67.7363,879.8594 Q67.6894,879.5 67.5019,879.3125 Q67.1738,878.9375 66.5644,878.7188 Q65.955,878.5 65.33,878.5 Q64.5644,878.5 63.9238,878.8281 Q63.2988,879.1563 62.7988,879.9063 Q62.3144,880.6563 62.3144,881.6875 L62.3144,882.7813 Q62.3144,884.0156 63.205,884.8438 Q64.0956,885.6563 65.6894,885.6563 Q66.6269,885.6563 67.2831,885.4063 Q67.6738,885.25 68.0956,884.8125 Q68.3613,884.5469 68.5019,884.4688 Q68.6581,884.3906 68.8613,884.3906 Q69.1894,884.3906 69.4394,884.6563 Q69.705,884.9063 69.705,885.25 Q69.705,885.5938 69.3613,886 Q68.8613,886.5781 68.0644,886.9063 Q66.9863,887.3594 65.6894,887.3594 Q64.1738,887.3594 62.9706,886.7344 Q61.9863,886.2344 61.2988,885.1719 Q60.6113,884.0938 60.6113,882.8125 L60.6113,881.6563 Q60.6113,880.3281 61.2206,879.1875 Q61.8456,878.0313 62.9394,877.4219 Q64.0331,876.7969 65.2675,876.7969 Q66.0019,876.7969 66.6425,876.9688 Q67.2988,877.125 67.8456,877.4844 Z " fill="#000000"/><text fill="#000000" font-family="sans-serif" font-size="14" lengthAdjust="spacing" textLength="85.5996" x="79.08" y="887.3379">CargaTrabajo</text><line style="stroke:#181818;stroke-width:0.5;" x1="51.08" x2="166.6796" y1="897.6094" y2="897.6094"/><line style="stroke:#181818;stroke-width:0.5;" x1="51.08" x2="166.6796" y1="905.6094" y2="905.6094"/></g><!--class Entregables--><g class="entity" data-qualified-name="Entregables" data-source-line="28" id="ent0008"><rect fill="#F1F1F1" height="48" rx="2.5" ry="2.5" style="stroke:#181818;stroke-width:0.5;" width="106.7168" x="243.58" y="865.6094"/><ellipse cx="258.58" cy="881.6094" fill="#ADD1B2" rx="11" ry="11" style="stroke:#181818;stroke-width:1;"/><path d="M261.3456,877.4844 Q261.5019,877.2656 261.6894,877.1563 Q261.8769,877.0469 262.0956,877.0469 Q262.4706,877.0469 262.705,877.3125 Q262.9394,877.5625 262.9394,878.1719 L262.9394,879.625 Q262.9394,880.2344 262.705,880.5 Q262.4706,880.7656 262.0956,880.7656 Q261.7519,880.7656 261.5488,880.5625 Q261.3456,880.375 261.2363,879.8594 Q261.1894,879.5 261.0019,879.3125 Q260.6738,878.9375 260.0644,878.7188 Q259.455,878.5 258.83,878.5 Q258.0644,878.5 257.4238,878.8281 Q256.7988,879.1563 256.2988,879.9063 Q255.8144,880.6563 255.8144,881.6875 L255.8144,882.7813 Q255.8144,884.0156 256.705,884.8438 Q257.5956,885.6563 259.1894,885.6563 Q260.1269,885.6563 260.7831,885.4063 Q261.1738,885.25 261.5956,884.8125 Q261.8613,884.5469 262.0019,884.4688 Q262.1581,884.3906 262.3613,884.3906 Q262.6894,884.3906 262.9394,884.6563 Q263.205,884.9063 263.205,885.25 Q263.205,885.5938 262.8613,886 Q262.3613,886.5781 261.5644,886.9063 Q260.4863,887.3594 259.1894,887.3594 Q257.6738,887.3594 256.4706,886.7344 Q255.4863,886.2344 254.7988,885.1719 Q254.1113,884.0938 254.1113,882.8125 L254.1113,881.6563 Q254.1113,880.3281 254.7206,879.1875 Q255.3456,878.0313 256.4394,877.4219 Q257.5331,876.7969 258.7675,876.7969 Q259.5019,876.7969 260.1425,876.9688 Q260.7988,877.125 261.3456,877.4844 Z " fill="#000000"/><text fill="#000000" font-family="sans-serif" font-size="14" lengthAdjust="spacing" textLength="74.7168" x="272.58" y="887.3379">Entregables</text><line style="stroke:#181818;stroke-width:0.5;" x1="244.58" x2="349.2968" y1="897.6094" y2="897.6094"/><line style="stroke:#181818;stroke-width:0.5;" x1="244.58" x2="349.2968" y1="905.6094" y2="905.6094"/></g><!--class Recompensa--><g class="entity" data-qualified-name="Recompensa" data-source-line="31" id="ent0009"><rect fill="#F1F1F1" height="48" rx="2.5" ry="2.5" style="stroke:#181818;stroke-width:0.5;" width="114.4893" x="66.08" y="613.6094"/><ellipse cx="81.08" cy="629.6094" fill="#ADD1B2" rx="11" ry="11" style="stroke:#181818;stroke-width:1;"/><path d="M83.8456,625.4844 Q84.0019,625.2656 84.1894,625.1563 Q84.3769,625.0469 84.5956,625.0469 Q84.9706,625.0469 85.205,625.3125 Q85.4394,625.5625 85.4394,626.1719 L85.4394,627.625 Q85.4394,628.2344 85.205,628.5 Q84.9706,628.7656 84.5956,628.7656 Q84.2519,628.7656 84.0488,628.5625 Q83.8456,628.375 83.7363,627.8594 Q83.6894,627.5 83.5019,627.3125 Q83.1738,626.9375 82.5644,626.7188 Q81.955,626.5 81.33,626.5 Q80.5644,626.5 79.9238,626.8281 Q79.2988,627.1563 78.7988,627.9063 Q78.3144,628.6563 78.3144,629.6875 L78.3144,630.7813 Q78.3144,632.0156 79.205,632.8438 Q80.0956,633.6563 81.6894,633.6563 Q82.6269,633.6563 83.2831,633.4063 Q83.6738,633.25 84.0956,632.8125 Q84.3613,632.5469 84.5019,632.4688 Q84.6581,632.3906 84.8613,632.3906 Q85.1894,632.3906 85.4394,632.6563 Q85.705,632.9063 85.705,633.25 Q85.705,633.5938 85.3613,634 Q84.8613,634.5781 84.0644,634.9063 Q82.9863,635.3594 81.6894,635.3594 Q80.1738,635.3594 78.9706,634.7344 Q77.9863,634.2344 77.2988,633.1719 Q76.6113,632.0938 76.6113,630.8125 L76.6113,629.6563 Q76.6113,628.3281 77.2206,627.1875 Q77.8456,626.0313 78.9394,625.4219 Q80.0331,624.7969 81.2675,624.7969 Q82.0019,624.7969 82.6425,624.9688 Q83.2988,625.125 83.8456,625.4844 Z " fill="#000000"/><text fill="#000000" font-family="sans-serif" font-size="14" lengthAdjust="spacing" textLength="82.4893" x="95.08" y="635.3379">Recompensa</text><line style="stroke:#181818;stroke-width:0.5;" x1="67.08" x2="179.5693" y1="645.6094" y2="645.6094"/><line style="stroke:#181818;stroke-width:0.5;" x1="67.08" x2="179.5693" y1="653.6094" y2="653.6094"/></g><!--link Convocatoria to Propuesta--><g class="link" data-entity-1="ent0002" data-entity-2="ent0003" data-link-type="dependency" data-source-line="35" id="lnk10"><path codeLine="35" d="M221.15,219.6394 C220.26,241.7794 219.11,270.0534 218.22,292.2834" fill="none" id="Convocatoria-to-Propuesta" style="stroke:#181818;stroke-width:1;"/><polygon fill="#181818" points="218.02,297.2794,222.3768,288.4466,218.22,292.2834,214.3832,288.1266,218.02,297.2794" style="stroke:#181818;stroke-width:1;stroke-linejoin:miter;stroke-miterlimit:10;"/><text fill="#000000" font-family="sans-serif" font-size="13" lengthAdjust="spacing" textLength="40.479" x="220.08" y="264.1045">genera</text></g><!--link Propuesta to Proyecto--><g class="link" data-entity-1="ent0003" data-entity-2="ent0001" data-link-type="dependency" data-source-line="36" id="lnk11"><path codeLine="36" d="M217.08,345.6294 C217.08,366.0494 217.08,391.7094 217.08,418.4494" fill="none" id="Propuesta-to-Proyecto" style="stroke:#181818;stroke-width:1;"/><polygon fill="#181818" points="217.08,423.4494,221.08,414.4494,217.08,418.4494,213.08,414.4494,217.08,423.4494" style="stroke:#181818;stroke-width:1;stroke-linejoin:miter;stroke-miterlimit:10;"/><text fill="#000000" font-family="sans-serif" font-size="13" lengthAdjust="spacing" textLength="40.479" x="218.08" y="390.1045">genera</text></g><!--reverse link Proyecto to InvestigadorDocente--><g class="link" data-entity-1="ent0001" data-entity-2="ent0004" data-link-type="aggregation" data-source-line="39" id="lnk12"><path codeLine="39" d="M225.6491,547.7299 C230.6691,594.1899 234.16,650.4194 228.08,709.6094 C227.06,719.5194 225,730.3094 222.93,739.5494" fill="none" id="Proyecto-backto-InvestigadorDocente" style="stroke:#181818;stroke-width:1;"/><polygon fill="none" points="224.36,535.7994,221.0277,542.1944,225.6491,547.7299,228.9814,541.335,224.36,535.7994" style="stroke:#181818;stroke-width:1;stroke-linejoin:miter;stroke-miterlimit:10;"/><text fill="#000000" font-family="sans-serif" font-size="13" lengthAdjust="spacing" textLength="70.0908" x="231.08" y="643.1045">formado por</text></g><!--reverse link Proyecto to Entregables--><g class="link" data-entity-1="ent0001" data-entity-2="ent0008" data-link-type="composition" data-source-line="40" id="lnk13"><path codeLine="40" d="M273.6169,545.4564 C290.7169,567.9764 300.68,585.7094 310.08,613.6094 C341.58,707.1094 327.84,738.3794 311.08,835.6094 C309.36,845.5494 306.67,856.3494 304.1,865.5794" fill="none" id="Proyecto-backto-Entregables" style="stroke:#181818;stroke-width:1;"/><polygon fill="#181818" points="266.36,535.8994,266.8028,543.0969,273.6169,545.4564,273.1741,538.2589,266.36,535.8994" style="stroke:#181818;stroke-width:1;stroke-linejoin:miter;stroke-miterlimit:10;"/><text fill="#000000" font-family="sans-serif" font-size="13" lengthAdjust="spacing" textLength="28.1899" x="329.08" y="706.1045">tiene</text></g><!--reverse link Proyecto to CargaTrabajo--><g class="link" data-entity-1="ent0001" data-entity-2="ent0007" data-link-type="composition" data-source-line="41" id="lnk14"><path codeLine="41" d="M151.7674,512.5581 C111.9774,534.8181 71.64,565.0794 48.08,613.6094 C6,700.2694 64.8,816.4094 94.15,865.3294" fill="none" id="Proyecto-backto-CargaTrabajo" style="stroke:#181818;stroke-width:1;"/><polygon fill="#181818" points="162.24,506.6994,155.0508,506.1379,151.7674,512.5581,158.9566,513.1196,162.24,506.6994" style="stroke:#181818;stroke-width:1;stroke-linejoin:miter;stroke-miterlimit:10;"/><text fill="#000000" font-family="sans-serif" font-size="13" lengthAdjust="spacing" textLength="40.479" x="36.08" y="706.1045">genera</text></g><!--reverse link Proyecto to Recompensa--><g class="link" data-entity-1="ent0001" data-entity-2="ent0009" data-link-type="composition" data-source-line="42" id="lnk15"><path codeLine="42" d="M177.4768,546.3277 C161.4368,572.9477 149.28,593.1294 137.01,613.4894" fill="none" id="Proyecto-backto-Recompensa" style="stroke:#181818;stroke-width:1;"/><polygon fill="#181818" points="183.67,536.0494,177.1473,539.1241,177.4768,546.3277,183.9995,543.2529,183.67,536.0494" style="stroke:#181818;stroke-width:1;stroke-linejoin:miter;stroke-miterlimit:10;"/><text fill="#000000" font-family="sans-serif" font-size="13" lengthAdjust="spacing" textLength="40.479" x="166.08" y="580.1045">genera</text></g><!--link Coordinador to Proyecto--><g class="link" data-entity-1="ent0005" data-entity-2="ent0001" data-link-type="dependency" data-source-line="45" id="lnk16"><path codeLine="45" d="M138.67,93.8894 C134.42,141.8694 128.05,254.8494 151.08,345.6094 C157.89,372.4694 168.2481,395.8178 180.7281,418.9778" fill="none" id="Coordinador-to-Proyecto" style="stroke:#181818;stroke-width:1;"/><polygon fill="#181818" points="183.1,423.3794,182.352,413.559,180.7281,418.9778,175.3094,417.3539,183.1,423.3794" style="stroke:#181818;stroke-width:1;stroke-linejoin:miter;stroke-miterlimit:10;"/><text fill="#000000" font-family="sans-serif" font-size="13" lengthAdjust="spacing" textLength="49.8672" x="139.08" y="264.1045">coordina</text></g><!--link Coordinador to Convocatoria--><g class="link" data-entity-1="ent0005" data-entity-2="ent0002" data-link-type="dependency" data-source-line="46" id="lnk17"><path codeLine="46" d="M156.12,93.6394 C170.58,115.7794 189.5857,144.8632 204.1057,167.0932" fill="none" id="Coordinador-to-Convocatoria" style="stroke:#181818;stroke-width:1;"/><polygon fill="#181818" points="206.84,171.2794,205.2672,161.5569,204.1057,167.0932,198.5694,165.9317,206.84,171.2794" style="stroke:#181818;stroke-width:1;stroke-linejoin:miter;stroke-miterlimit:10;"/><text fill="#000000" font-family="sans-serif" font-size="13" lengthAdjust="spacing" textLength="34.6899" x="188.08" y="138.1045">busca</text></g><!--link Colaborador to Proyecto--><g class="link" data-entity-1="ent0006" data-entity-2="ent0001" data-link-type="dependency" data-source-line="49" id="lnk18"><path codeLine="49" d="M334.72,345.6294 C316.65,366.0494 292.8325,392.9641 269.1825,419.7041" fill="none" id="Colaborador-to-Proyecto" style="stroke:#181818;stroke-width:1;"/><polygon fill="#181818" points="265.87,423.4494,274.8288,419.3578,269.1825,419.7041,268.8363,414.0578,265.87,423.4494" style="stroke:#181818;stroke-width:1;stroke-linejoin:miter;stroke-miterlimit:10;"/><text fill="#000000" font-family="sans-serif" font-size="13" lengthAdjust="spacing" textLength="49.1372" x="307.08" y="390.1045">participa</text></g><!--link InvestigadorDocente to CargaTrabajo--><g class="link" data-entity-1="ent0004" data-entity-2="ent0007" data-link-type="dependency" data-source-line="52" id="lnk19"><path codeLine="52" d="M197.02,787.6394 C177.74,809.7794 152.0437,839.2788 132.6837,861.5088" fill="none" id="InvestigadorDocente-to-CargaTrabajo" style="stroke:#181818;stroke-width:1;"/><polygon fill="#181818" points="129.4,865.2794,138.3272,861.1194,132.6837,861.5088,132.2943,855.8654,129.4,865.2794" style="stroke:#181818;stroke-width:1;stroke-linejoin:miter;stroke-miterlimit:10;"/><text fill="#000000" font-family="sans-serif" font-size="13" lengthAdjust="spacing" textLength="28.1899" x="171.08" y="832.1045">tiene</text></g><!--link InvestigadorDocente to Entregables--><g class="link" data-entity-1="ent0004" data-entity-2="ent0008" data-link-type="dependency" data-source-line="53" id="lnk20"><path codeLine="53" d="M231.94,787.6394 C246.22,809.7794 264.9683,838.8486 279.3183,861.0786" fill="none" id="InvestigadorDocente-to-Entregables" style="stroke:#181818;stroke-width:1;"/><polygon fill="#181818" points="282.03,865.2794,280.5096,855.5486,279.3183,861.0786,273.7883,859.8873,282.03,865.2794" style="stroke:#181818;stroke-width:1;stroke-linejoin:miter;stroke-miterlimit:10;"/><text fill="#000000" font-family="sans-serif" font-size="13" lengthAdjust="spacing" textLength="40.479" x="262.08" y="832.1045">genera</text></g><!--link Recompensa to InvestigadorDocente--><g class="link" data-entity-1="ent0009" data-entity-2="ent0004" data-link-type="dependency" data-source-line="56" id="lnk21"><path codeLine="56" d="M137.31,661.8794 C146.25,676.0194 158.28,694.2494 170.08,709.6094 C177.87,719.7494 183.7368,726.6904 191.9368,735.7604" fill="none" id="Recompensa-to-InvestigadorDocente" style="stroke:#181818;stroke-width:1;"/><polygon fill="#181818" points="195.29,739.4694,192.2214,730.1107,191.9368,735.7604,186.2871,735.4758,195.29,739.4694" style="stroke:#181818;stroke-width:1;stroke-linejoin:miter;stroke-miterlimit:10;"/><text fill="#000000" font-family="sans-serif" font-size="13" lengthAdjust="spacing" textLength="52.0381" x="171.08" y="706.1045">beneficia</text></g><?plantuml-src TL91QiCm4Bph5Gkz5Vm14m8XRQ2taFO3Qtdjg3XQir82fUHLVK8_rdNZsbAIwYHcXj7CeEXYH_3gGgG3GatGKeZk-yiFzrxuWspaO8pjC0JOZW0i5bjntheUk-KI7ZQRbHxuD00eTkzEMBFU6x9xN2N0H6vPpFdFTSt-n1OZYqFrE2UlzKUDau4l_ZGaRDL4djYIZvJIQsQfdH_O7EwmOhc1KLfy4wpmdLFysKUX5gkEGWhloFAX9n_6H2PBNXJB97AfIteID3Cq2YuBJhmn4yP5SRTV2GtBGH7eTRT9_gZoD6a9qQbdBiWgfg5cIL8hIPKkUPNSZjID9jkZXEeOxCLgNl_AgaU9RlX7AhjN_TSrht0f-Pyu7sHgatGSLFTNhbJTQ1eqFm00?></g></svg>