<svg xmlns="http://www.w3.org/2000/svg" xmlns:xlink="http://www.w3.org/1999/xlink" contentStyleType="text/css" data-diagram-type="DESCRIPTION" height="558px" preserveAspectRatio="none" style="width:1692px;height:558px;background:#FFFFFF;" version="1.1" viewBox="0 0 1692 558" width="1692px" zoomAndPan="magnify"><?plantuml 1.2026.6?><defs/><g><!--cluster abrirEntregable--><g class="cluster" data-qualified-name="abrirEntregable" data-source-line="4" id="ent0002"><path d="M231.5,6 L345.2998,6 A3.75,3.75 0 0 1 347.7998,8.5 L354.7998,29.6094 L708.5,29.6094 A2.5,2.5 0 0 1 711,32.1094 L711,540.5 A2.5,2.5 0 0 1 708.5,543 L231.5,543 A2.5,2.5 0 0 1 229,540.5 L229,8.5 A2.5,2.5 0 0 1 231.5,6" fill="none" style="stroke:#000000;stroke-width:1.5;"/><line style="stroke:#000000;stroke-width:1.5;" x1="229" x2="354.7998" y1="29.6094" y2="29.6094"/><text fill="#000000" font-family="sans-serif" font-size="14" font-weight="700" lengthAdjust="spacing" textLength="112.7998" x="233" y="22.5332">abrirEntregable()</text></g><!--entity DetalleEntregableView--><g class="entity" data-qualified-name="abrirEntregable.DetalleEntregableView" data-source-line="5" id="ent0003"><rect fill="#629EF9" height="37.6094" rx="2.5" ry="2.5" style="stroke:#181818;stroke-width:0.5;" width="161.6406" x="533" y="42"/><text fill="#000000" font-family="sans-serif" font-size="14" lengthAdjust="spacing" textLength="141.6406" x="543" y="66.5332">DetalleEntregableView</text></g><!--entity EntregableController--><g class="entity" data-qualified-name="abrirEntregable.EntregableController" data-source-line="6" id="ent0004"><rect fill="#B5BD68" height="37.6094" rx="2.5" ry="2.5" style="stroke:#181818;stroke-width:0.5;" width="148.4063" x="339" y="158"/><text fill="#000000" font-family="sans-serif" font-size="14" lengthAdjust="spacing" textLength="128.4063" x="349" y="182.5332">EntregableController</text></g><!--entity EntregableService--><g class="entity" data-qualified-name="abrirEntregable.EntregableService" data-source-line="7" id="ent0005"><rect fill="#B5BD68" height="37.6094" rx="2.5" ry="2.5" style="stroke:#181818;stroke-width:0.5;" width="134.3994" x="281" y="274"/><text fill="#000000" font-family="sans-serif" font-size="14" lengthAdjust="spacing" textLength="114.3994" x="291" y="298.5332">EntregableService</text></g><!--entity SesionService--><g class="entity" data-qualified-name="abrirEntregable.SesionService" data-source-line="8" id="ent0006"><rect fill="#B5BD68" height="37.6094" rx="2.5" ry="2.5" style="stroke:#181818;stroke-width:0.5;" width="109.4893" x="450.5" y="274"/><text fill="#000000" font-family="sans-serif" font-size="14" lengthAdjust="spacing" textLength="89.4893" x="460.5" y="298.5332">SesionService</text></g><!--entity EntregableRepository--><g class="entity" data-qualified-name="abrirEntregable.EntregableRepository" data-source-line="9" id="ent0007"><rect fill="#F2AC4E" height="37.6094" rx="2.5" ry="2.5" style="stroke:#181818;stroke-width:0.5;" width="154.6338" x="253.5" y="390"/><text fill="#000000" font-family="sans-serif" font-size="14" lengthAdjust="spacing" textLength="134.6338" x="263.5" y="414.5332">EntregableRepository</text></g><!--entity ArchivoRepository--><g class="entity" data-qualified-name="abrirEntregable.ArchivoRepository" data-source-line="10" id="ent0008"><rect fill="#F2AC4E" height="37.6094" rx="2.5" ry="2.5" style="stroke:#181818;stroke-width:0.5;" width="133.5996" x="444" y="390"/><text fill="#000000" font-family="sans-serif" font-size="14" lengthAdjust="spacing" textLength="113.5996" x="454" y="414.5332">ArchivoRepository</text></g><!--entity Entregable--><g class="entity" data-qualified-name="abrirEntregable.Entregable" data-source-line="11" id="ent0009"><rect fill="#F2AC4E" height="37.6094" rx="2.5" ry="2.5" style="stroke:#181818;stroke-width:0.5;" width="87.7168" x="287" y="489"/><text fill="#000000" font-family="sans-serif" font-size="14" lengthAdjust="spacing" textLength="67.7168" x="297" y="513.5332">Entregable</text></g><!--entity ArchivoAdjunto--><g class="entity" data-qualified-name="abrirEntregable.ArchivoAdjunto" data-source-line="12" id="ent0010"><rect fill="#F2AC4E" height="37.6094" rx="2.5" ry="2.5" style="stroke:#181818;stroke-width:0.5;" width="114.165" x="454" y="489"/><text fill="#000000" font-family="sans-serif" font-size="14" lengthAdjust="spacing" textLength="94.165" x="464" y="513.5332">ArchivoAdjunto</text></g><!--entity EstadoEntrada--><g class="entity" data-qualified-name="EstadoEntrada" data-source-line="3" id="ent0001"><rect fill="#CDEBA5" height="37.6094" rx="2.5" ry="2.5" style="stroke:#181818;stroke-width:0.5;" width="205.9443" x="7" y="42"/><text fill="#000000" font-family="sans-serif" font-size="14" lengthAdjust="spacing" textLength="185.9443" x="17" y="66.5332">:ENTREGABLES_ABIERTOS</text></g><!--entity EstadoSalida--><g class="entity" data-qualified-name="EstadoSalida" data-source-line="15" id="ent0011"><rect fill="#CDEBA5" height="37.6094" rx="2.5" ry="2.5" style="stroke:#181818;stroke-width:0.5;" width="187.2686" x="727.5" y="158"/><text fill="#000000" font-family="sans-serif" font-size="14" lengthAdjust="spacing" textLength="167.2686" x="737.5" y="182.5332">:ENTREGABLE_ABIERTO</text></g><!--entity EditarEntregable--><g class="entity" data-qualified-name="EditarEntregable" data-source-line="16" id="ent0012"><rect fill="#CDEBA5" height="37.6094" rx="2.5" ry="2.5" style="stroke:#181818;stroke-width:0.5;" width="214.5645" x="949.5" y="158"/><text fill="#000000" font-family="sans-serif" font-size="14" lengthAdjust="spacing" textLength="194.5645" x="959.5" y="182.5332">:Collaboration EditarEntregable</text></g><!--entity EliminarEntregable--><g class="entity" data-qualified-name="EliminarEntregable" data-source-line="17" id="ent0013"><rect fill="#CDEBA5" height="37.6094" rx="2.5" ry="2.5" style="stroke:#181818;stroke-width:0.5;" width="228.5576" x="1199.5" y="158"/><text fill="#000000" font-family="sans-serif" font-size="14" lengthAdjust="spacing" textLength="208.5576" x="1209.5" y="182.5332">:Collaboration EliminarEntregable</text></g><!--entity AbrirEntregables--><g class="entity" data-qualified-name="AbrirEntregables" data-source-line="18" id="ent0014"><rect fill="#CDEBA5" height="37.6094" rx="2.5" ry="2.5" style="stroke:#181818;stroke-width:0.5;" width="214.5508" x="1463.5" y="158"/><text fill="#000000" font-family="sans-serif" font-size="14" lengthAdjust="spacing" textLength="194.5508" x="1473.5" y="182.5332">:Collaboration AbrirEntregables</text></g><!--link EstadoEntrada to DetalleEntregableView--><g class="link" data-entity-1="ent0001" data-entity-2="ent0003" data-link-type="dependency" data-source-line="20" id="lnk15"><path d="M213.21,61 C307.81,61 441.01,61 527.91,61" fill="none" id="EstadoEntrada-to-DetalleEntregableView" style="stroke:#181818;stroke-width:1;"/><polygon fill="#181818" points="532.91,61,523.91,57,527.91,61,523.91,65,532.91,61" style="stroke:#181818;stroke-width:1;stroke-linejoin:miter;stroke-miterlimit:10;"/><text fill="#000000" font-family="sans-serif" font-size="13" lengthAdjust="spacing" textLength="97.5444" x="324.5" y="54.4951">abrirEntregable()</text></g><!--link DetalleEntregableView to EntregableController--><g class="link" data-entity-1="ent0003" data-entity-2="ent0004" data-link-type="dependency" data-source-line="22" id="lnk16"><path d="M532.85,73.56 C433.13,87.76 277,110 277,110 C277,110 277,128 277,128 C277,128 318.665,142.7059 357.255,156.3259" fill="none" id="DetalleEntregableView-to-EntregableController" style="stroke:#181818;stroke-width:1;"/><polygon fill="#181818" points="361.97,157.99,354.8144,151.2227,357.255,156.3259,352.1518,158.7666,361.97,157.99" style="stroke:#181818;stroke-width:1;stroke-linejoin:miter;stroke-miterlimit:10;"/><text fill="#000000" font-family="sans-serif" font-size="13" lengthAdjust="spacing" textLength="125.7471" x="278" y="124.4951">obtenerEntregable(id)</text></g><!--link DetalleEntregableView to EntregableController--><g class="link" data-entity-1="ent0003" data-entity-2="ent0004" data-link-type="dependency" data-source-line="25" id="lnk19"><path d="M582.15,80.06 C544.62,101.35 486.9892,134.0334 449.3792,155.3634" fill="none" id="DetalleEntregableView-to-EntregableController-1" style="stroke:#181818;stroke-width:1;"/><polygon fill="#181818" points="445.03,157.83,454.8319,156.8695,449.3792,155.3634,450.8853,149.9107,445.03,157.83" style="stroke:#181818;stroke-width:1;stroke-linejoin:miter;stroke-miterlimit:10;"/><text fill="#000000" font-family="sans-serif" font-size="13" lengthAdjust="spacing" textLength="246.4033" x="526" y="124.4951">prepararAccionesDisponibles(coordinador)</text></g><!--link EntregableController to EntregableService--><g class="link" data-entity-1="ent0004" data-entity-2="ent0005" data-link-type="dependency" data-source-line="23" id="lnk17"><path d="M398.26,196.15 C387.21,209.74 374,226 374,226 C374,226 364.6323,249.7678 356.9323,269.3178" fill="none" id="EntregableController-to-EntregableService" style="stroke:#181818;stroke-width:1;"/><polygon fill="#181818" points="355.1,273.97,362.1199,267.062,356.9323,269.3178,354.6764,264.1303,355.1,273.97" style="stroke:#181818;stroke-width:1;stroke-linejoin:miter;stroke-miterlimit:10;"/><text fill="#000000" font-family="sans-serif" font-size="13" lengthAdjust="spacing" textLength="62.8672" x="375" y="240.4951">obtener(id)</text></g><!--link EntregableController to SesionService--><g class="link" data-entity-1="ent0004" data-entity-2="ent0006" data-link-type="dependency" data-source-line="24" id="lnk18"><path d="M427.58,196.06 C444.7,217.28 469.819,248.4097 487.049,269.7497" fill="none" id="EntregableController-to-SesionService" style="stroke:#181818;stroke-width:1;"/><polygon fill="#181818" points="490.19,273.64,487.6484,264.1247,487.049,269.7497,481.424,269.1503,490.19,273.64" style="stroke:#181818;stroke-width:1;stroke-linejoin:miter;stroke-miterlimit:10;"/><text fill="#000000" font-family="sans-serif" font-size="13" lengthAdjust="spacing" textLength="209.5806" x="465" y="240.4951">obtenerSesionActual(authentication)</text></g><!--link EntregableService to EntregableRepository--><g class="link" data-entity-1="ent0005" data-entity-2="ent0007" data-link-type="dependency" data-source-line="26" id="lnk20"><path d="M342.71,312.15 C338.74,325.74 334,342 334,342 C334,342 332.9374,365.4252 332.0474,384.9752" fill="none" id="EntregableService-to-EntregableRepository" style="stroke:#181818;stroke-width:1;"/><polygon fill="#181818" points="331.82,389.97,336.2252,381.1612,332.0474,384.9752,328.2334,380.7974,331.82,389.97" style="stroke:#181818;stroke-width:1;stroke-linejoin:miter;stroke-miterlimit:10;"/><text fill="#000000" font-family="sans-serif" font-size="13" lengthAdjust="spacing" textLength="129.3398" x="335" y="356.4951">obtenerActivoPorId(id)</text></g><!--link EntregableService to ArchivoRepository--><g class="link" data-entity-1="ent0005" data-entity-2="ent0008" data-link-type="dependency" data-source-line="27" id="lnk21"><path d="M393.4,312.01 C427.73,325.63 469,342 469,342 C469,342 484.4073,366.2006 496.8373,385.7506" fill="none" id="EntregableService-to-ArchivoRepository" style="stroke:#181818;stroke-width:1;"/><polygon fill="#181818" points="499.52,389.97,498.0666,380.229,496.8373,385.7506,491.3156,384.5213,499.52,389.97" style="stroke:#181818;stroke-width:1;stroke-linejoin:miter;stroke-miterlimit:10;"/><text fill="#000000" font-family="sans-serif" font-size="13" lengthAdjust="spacing" textLength="145.9771" x="481" y="356.4951">obtenerPorEntregable(id)</text></g><!--link EntregableRepository to Entregable--><g class="link" data-entity-1="ent0007" data-entity-2="ent0009" data-link-type="association" data-source-line="28" id="lnk22"><path d="M331,428.24 C331,445.59 331,471.52 331,488.84" fill="none" id="EntregableRepository-Entregable" style="stroke:#181818;stroke-width:1;"/></g><!--link ArchivoRepository to ArchivoAdjunto--><g class="link" data-entity-1="ent0008" data-entity-2="ent0010" data-link-type="association" data-source-line="29" id="lnk23"><path d="M511,428.24 C511,445.59 511,471.52 511,488.84" fill="none" id="ArchivoRepository-ArchivoAdjunto" style="stroke:#181818;stroke-width:1;"/></g><!--link DetalleEntregableView to EstadoSalida--><g class="link" data-entity-1="ent0003" data-entity-2="ent0011" data-link-type="dependency" data-source-line="30" id="lnk24"><path d="M676.66,80.01 C724.05,93.63 781,110 781,110 C781,110 795.6398,134.1432 807.4798,153.6932" fill="none" id="DetalleEntregableView-to-EstadoSalida" style="stroke:#181818;stroke-width:1;stroke-dasharray:7,7;"/><polygon fill="#181818" points="810.07,157.97,808.8292,148.1996,807.4798,153.6932,801.9863,152.3439,810.07,157.97" style="stroke:#181818;stroke-width:1;stroke-linejoin:miter;stroke-miterlimit:10;"/><text fill="#000000" font-family="sans-serif" font-size="13" lengthAdjust="spacing" textLength="130.7935" x="792" y="124.4951">continuarNavegacion()</text></g><!--link DetalleEntregableView to EditarEntregable--><g class="link" data-entity-1="ent0003" data-entity-2="ent0012" data-link-type="dependency" data-source-line="31" id="lnk25"><path d="M695.22,74.3 C789.15,88.52 931,110 931,110 C931,110 980.8312,136.0993 1018.1412,155.6493" fill="none" id="DetalleEntregableView-to-EditarEntregable" style="stroke:#181818;stroke-width:1;stroke-dasharray:7,7;"/><polygon fill="#181818" points="1022.57,157.97,1016.4546,150.2498,1018.1412,155.6493,1012.7416,157.3359,1022.57,157.97" style="stroke:#181818;stroke-width:1;stroke-linejoin:miter;stroke-miterlimit:10;"/><text fill="#000000" font-family="sans-serif" font-size="13" lengthAdjust="spacing" textLength="104.0571" x="965" y="124.4951">editarEntregable()</text></g><!--link DetalleEntregableView to EliminarEntregable--><g class="link" data-entity-1="ent0003" data-entity-2="ent0013" data-link-type="dependency" data-source-line="32" id="lnk26"><path d="M695.09,70.39 C828.09,84.15 1078,110 1078,110 C1078,110 1174.8249,137.0727 1244.6949,156.6227" fill="none" id="DetalleEntregableView-to-EliminarEntregable" style="stroke:#181818;stroke-width:1;stroke-dasharray:7,7;"/><polygon fill="#181818" points="1249.51,157.97,1241.9207,151.6928,1244.6949,156.6227,1239.7651,159.3969,1249.51,157.97" style="stroke:#181818;stroke-width:1;stroke-linejoin:miter;stroke-miterlimit:10;"/><text fill="#000000" font-family="sans-serif" font-size="13" lengthAdjust="spacing" textLength="117.0508" x="1142" y="124.4951">eliminarEntregable()</text></g><!--link DetalleEntregableView to AbrirEntregables--><g class="link" data-entity-1="ent0003" data-entity-2="ent0014" data-link-type="dependency" data-source-line="33" id="lnk27"><path d="M695.18,67.96 C870.33,80.81 1268,110 1268,110 C1268,110 1393.6047,137.3554 1483.3147,156.9054" fill="none" id="DetalleEntregableView-to-AbrirEntregables" style="stroke:#181818;stroke-width:1;stroke-dasharray:7,7;"/><polygon fill="#181818" points="1488.2,157.97,1480.2581,152.1454,1483.3147,156.9054,1478.5547,159.9619,1488.2,157.97" style="stroke:#181818;stroke-width:1;stroke-linejoin:miter;stroke-miterlimit:10;"/><text fill="#000000" font-family="sans-serif" font-size="13" lengthAdjust="spacing" textLength="104.0444" x="1350" y="124.4951">abrirEntregables()</text></g><?plantuml-src ZPJBRjim44Nt_8g1ix4NpY9eWaQB0BBD506AjB23ReiHEN2OAAH0qIwCel_UKHwMH3qSh-JHlSVap1sNpyOMwF45ScCf70g2mkM7weiGdbH0kyq9pfOhkKWlOPB8-uUr_9OklilDxtHn9zSFFpOJm19a6L0xQOD7ZQ90zOnR0ioyyLMHjfWnY8MJg3QTJU2l0FuqVk_gubhUNiEA0kOvrU9VXlx4skmoqrTVeHOj7JywzlcJqWtvlL4qeDjGQPmTqDnUfCilii5QK-5A4vm_34XJhnxDtftKrSXnKAgVTZOuyU_Kg3ucrHZK1dF3S-hpBRbrc3cFWIyFKfk0ZN6zCQBYPpYvUJ6sI-gKFy5AsmagNqbnKOXM967kvpVzWKgW4qaXUfKmrmpfIre2BWjagKanUYRwj31lGTxpTIIC-rgPF7hUggaAEyodk0kFP8DHhzsQ3Lrby2Q5f-e_mQTAiP_AbIaBPqtLrAbopciUc7Q-USZtyqJGEkd7W_8HERa_dR_JqJsRYCwc7Fti7EnmBMT8SuiwkEfzj4JzJJe_lsajJ0AA6sNi3lqzxbbOTMWw6tD7gv80HPLnUsS_6D2fZIBYnUZ4lMJxVm00?></g></svg>