<svg xmlns="http://www.w3.org/2000/svg" xmlns:xlink="http://www.w3.org/1999/xlink" contentStyleType="text/css" data-diagram-type="DESCRIPTION" height="442px" preserveAspectRatio="none" style="width:1692px;height:442px;background:#FFFFFF;" version="1.1" viewBox="0 0 1692 442" width="1692px" zoomAndPan="magnify"><?plantuml 1.2026.4?><defs/><g><!--cluster abrirEntregable--><g class="cluster" data-qualified-name="abrirEntregable" data-source-line="4" id="ent0002"><path d="M231.5,6 L345.2998,6 A3.75,3.75 0 0 1 347.7998,8.5 L354.7998,29.6094 L708.5,29.6094 A2.5,2.5 0 0 1 711,32.1094 L711,424.5 A2.5,2.5 0 0 1 708.5,427 L231.5,427 A2.5,2.5 0 0 1 229,424.5 L229,8.5 A2.5,2.5 0 0 1 231.5,6" fill="none" style="stroke:#000000;stroke-width:1.5;"/><line style="stroke:#000000;stroke-width:1.5;" x1="229" x2="354.7998" y1="29.6094" y2="29.6094"/><text fill="#000000" font-family="sans-serif" font-size="14" font-weight="700" lengthAdjust="spacing" textLength="112.7998" x="233" y="22.5332">abrirEntregable()</text></g><!--entity DetalleEntregableView--><g class="entity" data-qualified-name="abrirEntregable.DetalleEntregableView" data-source-line="5" id="ent0003"><rect fill="#629EF9" height="37.6094" rx="2.5" ry="2.5" style="stroke:#181818;stroke-width:0.5;" width="161.6406" x="533" y="42"/><text fill="#000000" font-family="sans-serif" font-size="14" lengthAdjust="spacing" textLength="141.6406" x="543" y="66.5332">DetalleEntregableView</text></g><!--entity EntregableController--><g class="entity" data-qualified-name="abrirEntregable.EntregableController" data-source-line="6" id="ent0004"><rect fill="#B5BD68" height="37.6094" rx="2.5" ry="2.5" style="stroke:#181818;stroke-width:0.5;" width="148.4063" x="293" y="158"/><text fill="#000000" font-family="sans-serif" font-size="14" lengthAdjust="spacing" textLength="128.4063" x="303" y="182.5332">EntregableController</text></g><!--entity EntregableRepository--><g class="entity" data-qualified-name="abrirEntregable.EntregableRepository" data-source-line="7" id="ent0005"><rect fill="#F2AC4E" height="37.6094" rx="2.5" ry="2.5" style="stroke:#181818;stroke-width:0.5;" width="154.6338" x="301.5" y="274"/><text fill="#000000" font-family="sans-serif" font-size="14" lengthAdjust="spacing" textLength="134.6338" x="311.5" y="298.5332">EntregableRepository</text></g><!--entity Entregable--><g class="entity" data-qualified-name="abrirEntregable.Entregable" data-source-line="8" id="ent0006"><rect fill="#F2AC4E" height="37.6094" rx="2.5" ry="2.5" style="stroke:#181818;stroke-width:0.5;" width="87.7168" x="335" y="373"/><text fill="#000000" font-family="sans-serif" font-size="14" lengthAdjust="spacing" textLength="67.7168" x="345" y="397.5332">Entregable</text></g><!--entity EstadoEntrada--><g class="entity" data-qualified-name="EstadoEntrada" data-source-line="3" id="ent0001"><rect fill="#CDEBA5" height="37.6094" rx="2.5" ry="2.5" style="stroke:#181818;stroke-width:0.5;" width="205.9443" x="7" y="42"/><text fill="#000000" font-family="sans-serif" font-size="14" lengthAdjust="spacing" textLength="185.9443" x="17" y="66.5332">:ENTREGABLES_ABIERTOS</text></g><!--entity EstadoSalida--><g class="entity" data-qualified-name="EstadoSalida" data-source-line="11" id="ent0007"><rect fill="#CDEBA5" height="37.6094" rx="2.5" ry="2.5" style="stroke:#181818;stroke-width:0.5;" width="187.2686" x="727.5" y="158"/><text fill="#000000" font-family="sans-serif" font-size="14" lengthAdjust="spacing" textLength="167.2686" x="737.5" y="182.5332">:ENTREGABLE_ABIERTO</text></g><!--entity EditarEntregable--><g class="entity" data-qualified-name="EditarEntregable" data-source-line="12" id="ent0008"><rect fill="#CDEBA5" height="37.6094" rx="2.5" ry="2.5" style="stroke:#181818;stroke-width:0.5;" width="214.5645" x="949.5" y="158"/><text fill="#000000" font-family="sans-serif" font-size="14" lengthAdjust="spacing" textLength="194.5645" x="959.5" y="182.5332">:Collaboration EditarEntregable</text></g><!--entity EliminarEntregable--><g class="entity" data-qualified-name="EliminarEntregable" data-source-line="13" id="ent0009"><rect fill="#CDEBA5" height="37.6094" rx="2.5" ry="2.5" style="stroke:#181818;stroke-width:0.5;" width="228.5576" x="1199.5" y="158"/><text fill="#000000" font-family="sans-serif" font-size="14" lengthAdjust="spacing" textLength="208.5576" x="1209.5" y="182.5332">:Collaboration EliminarEntregable</text></g><!--entity AbrirEntregables--><g class="entity" data-qualified-name="AbrirEntregables" data-source-line="14" id="ent0010"><rect fill="#CDEBA5" height="37.6094" rx="2.5" ry="2.5" style="stroke:#181818;stroke-width:0.5;" width="214.5508" x="1463.5" y="158"/><text fill="#000000" font-family="sans-serif" font-size="14" lengthAdjust="spacing" textLength="194.5508" x="1473.5" y="182.5332">:Collaboration AbrirEntregables</text></g><!--link EstadoEntrada to DetalleEntregableView--><g class="link" data-entity-1="ent0001" data-entity-2="ent0003" data-link-type="dependency" data-source-line="16" id="lnk11"><path d="M213.21,61 C307.81,61 441.01,61 527.91,61" fill="none" id="EstadoEntrada-to-DetalleEntregableView" style="stroke:#181818;stroke-width:1;"/><polygon fill="#181818" points="532.91,61,523.91,57,527.91,61,523.91,65,532.91,61" style="stroke:#181818;stroke-width:1;stroke-linejoin:miter;stroke-miterlimit:10;"/><text fill="#000000" font-family="sans-serif" font-size="13" lengthAdjust="spacing" textLength="97.5444" x="324.5" y="54.4951">abrirEntregable()</text></g><!--link DetalleEntregableView to EntregableController--><g class="link" data-entity-1="ent0003" data-entity-2="ent0004" data-link-type="dependency" data-source-line="18" id="lnk12"><path d="M532.85,73.56 C433.13,87.76 277,110 277,110 C277,110 277,128 277,128 C277,128 303.2781,142.0172 328.8181,155.6372" fill="none" id="DetalleEntregableView-to-EntregableController" style="stroke:#181818;stroke-width:1;"/><polygon fill="#181818" points="333.23,157.99,327.1709,150.2255,328.8181,155.6372,323.4064,157.2845,333.23,157.99" style="stroke:#181818;stroke-width:1;stroke-linejoin:miter;stroke-miterlimit:10;"/><text fill="#000000" font-family="sans-serif" font-size="13" lengthAdjust="spacing" textLength="125.7471" x="278" y="124.4951">obtenerEntregable(id)</text></g><!--link DetalleEntregableView to EntregableController--><g class="link" data-entity-1="ent0003" data-entity-2="ent0004" data-link-type="dependency" data-source-line="19" id="lnk13"><path d="M551.34,80.01 C503.95,93.63 447,110 447,110 C447,110 416.4064,135.2375 392.7164,154.7875" fill="none" id="DetalleEntregableView-to-EntregableController-1" style="stroke:#181818;stroke-width:1;"/><polygon fill="#181818" points="388.86,157.97,398.3475,155.3267,392.7164,154.7875,393.2556,149.1564,388.86,157.97" style="stroke:#181818;stroke-width:1;stroke-linejoin:miter;stroke-miterlimit:10;"/><text fill="#000000" font-family="sans-serif" font-size="13" lengthAdjust="spacing" textLength="246.4033" x="448" y="124.4951">prepararAccionesDisponibles(coordinador)</text></g><!--link EntregableController to EntregableRepository--><g class="link" data-entity-1="ent0004" data-entity-2="ent0005" data-link-type="dependency" data-source-line="20" id="lnk14"><path d="M340.91,196.15 C321.37,209.74 298,226 298,226 C298,226 298,244 298,244 C298,244 321.1382,257.7116 344.0782,271.3016" fill="none" id="EntregableController-to-EntregableRepository" style="stroke:#181818;stroke-width:1;"/><polygon fill="#181818" points="348.38,273.85,342.6755,265.8214,344.0782,271.3016,338.598,272.7042,348.38,273.85" style="stroke:#181818;stroke-width:1;stroke-linejoin:miter;stroke-miterlimit:10;"/><text fill="#000000" font-family="sans-serif" font-size="13" lengthAdjust="spacing" textLength="93.939" x="299" y="240.4951">obtenerPorId(id)</text></g><!--link EntregableController to EntregableRepository--><g class="link" data-entity-1="ent0004" data-entity-2="ent0005" data-link-type="dependency" data-source-line="21" id="lnk15"><path d="M378.34,196.15 C386.84,209.74 397,226 397,226 C397,226 397,244 397,244 C397,244 392.6537,255.5776 387.5637,269.1676" fill="none" id="EntregableController-to-EntregableRepository-1" style="stroke:#181818;stroke-width:1;"/><polygon fill="#181818" points="385.81,273.85,392.7126,266.8247,387.5637,269.1676,385.2208,264.0188,385.81,273.85" style="stroke:#181818;stroke-width:1;stroke-linejoin:miter;stroke-miterlimit:10;"/><text fill="#000000" font-family="sans-serif" font-size="13" lengthAdjust="spacing" textLength="137.2427" x="398" y="240.4951">verificarPermisos(actor)</text></g><!--link EntregableRepository to Entregable--><g class="link" data-entity-1="ent0005" data-entity-2="ent0006" data-link-type="association" data-source-line="22" id="lnk16"><path d="M379,312.24 C379,329.59 379,355.52 379,372.84" fill="none" id="EntregableRepository-Entregable" style="stroke:#181818;stroke-width:1;"/></g><!--link DetalleEntregableView to EstadoSalida--><g class="link" data-entity-1="ent0003" data-entity-2="ent0007" data-link-type="dependency" data-source-line="23" id="lnk17"><path d="M647.39,80.01 C672.65,93.63 703,110 703,110 C703,110 749.4566,135.9785 784.3966,155.5285" fill="none" id="DetalleEntregableView-to-EstadoSalida" style="stroke:#181818;stroke-width:1;stroke-dasharray:7,7;"/><polygon fill="#181818" points="788.76,157.97,782.859,150.0847,784.3966,155.5285,778.9527,157.0661,788.76,157.97" style="stroke:#181818;stroke-width:1;stroke-linejoin:miter;stroke-miterlimit:10;"/><text fill="#000000" font-family="sans-serif" font-size="13" lengthAdjust="spacing" textLength="130.7935" x="735" y="124.4951">continuarNavegacion()</text></g><!--link DetalleEntregableView to EditarEntregable--><g class="link" data-entity-1="ent0003" data-entity-2="ent0008" data-link-type="dependency" data-source-line="24" id="lnk18"><path d="M695.2,76.99 C771.48,91.07 874,110 874,110 C874,110 948.1068,136.7229 1002.2868,156.2729" fill="none" id="DetalleEntregableView-to-EditarEntregable" style="stroke:#181818;stroke-width:1;stroke-dasharray:7,7;"/><polygon fill="#181818" points="1006.99,157.97,999.8819,151.1527,1002.2868,156.2729,997.1666,158.6778,1006.99,157.97" style="stroke:#181818;stroke-width:1;stroke-linejoin:miter;stroke-miterlimit:10;"/><text fill="#000000" font-family="sans-serif" font-size="13" lengthAdjust="spacing" textLength="104.0571" x="924" y="124.4951">editarEntregable()</text></g><!--link DetalleEntregableView to EliminarEntregable--><g class="link" data-entity-1="ent0003" data-entity-2="ent0009" data-link-type="dependency" data-source-line="25" id="lnk19"><path d="M695.06,71.2 C817.88,85.14 1037,110 1037,110 C1037,110 1151.4263,137.2607 1233.4463,156.8107" fill="none" id="DetalleEntregableView-to-EliminarEntregable" style="stroke:#181818;stroke-width:1;stroke-dasharray:7,7;"/><polygon fill="#181818" points="1238.31,157.97,1230.4827,151.9923,1233.4463,156.8107,1228.6278,159.7742,1238.31,157.97" style="stroke:#181818;stroke-width:1;stroke-linejoin:miter;stroke-miterlimit:10;"/><text fill="#000000" font-family="sans-serif" font-size="13" lengthAdjust="spacing" textLength="117.0508" x="1112" y="124.4951">eliminarEntregable()</text></g><!--link DetalleEntregableView to AbrirEntregables--><g class="link" data-entity-1="ent0003" data-entity-2="ent0010" data-link-type="dependency" data-source-line="26" id="lnk20"><path d="M695.26,68.25 C864.25,81.25 1238,110 1238,110 C1238,110 1376.5055,137.4476 1475.1055,156.9976" fill="none" id="DetalleEntregableView-to-AbrirEntregables" style="stroke:#181818;stroke-width:1;stroke-dasharray:7,7;"/><polygon fill="#181818" points="1480.01,157.97,1471.9598,152.296,1475.1055,156.9976,1470.4039,160.1432,1480.01,157.97" style="stroke:#181818;stroke-width:1;stroke-linejoin:miter;stroke-miterlimit:10;"/><text fill="#000000" font-family="sans-serif" font-size="13" lengthAdjust="spacing" textLength="104.0444" x="1328" y="124.4951">abrirEntregables()</text></g><?plantuml-src bP91Rzf048Nl-oj6z087SeXAbFWGoS1I8LKqWgZNQkoTeX5crvhTfa9L_dlMYLhCse7K9_pqvcFyvlaTsne5zr2nfN2e2MfN7PeNfOJAW7PR4NoQpVKqdy0Wqwl7jVwIJx_gpOzykjJhns-R0Q07xGCQfsqGDAXgB7Uu9S12M1gHjbX4K3GE4cqu6i0V1V5f_T_DzPrUtC6S0bOL7StVcNwdtc9Ic9jRE9fcBlvqSKvIw-8wdttMBUkQQkSvE3bSjAhdIudy3QILnmOhZd7qpStYXbWumS3EWZOSi9NA6oCHFyAfUC-sI-h87s3bfuVohwHKLEhayZ2MyNt_tJBeN5wfNYUCJOJq7JG3LmIorAQm6Rs7UPTI2pMrbxmiuvUIdxEldUNcWuQbSs9YMCR9IFMD9znZX_vjz-1aQLuN-y_v9nB-oINA0ycUlVD3BCFf7aTxvBJxsP_1rTNzIHSpAECYR7-XhF0f6fi0XgDpqqaBCw14EJ_UgLu4TBIpYBHpdIRvEFu2?></g></svg>