<svg xmlns="http://www.w3.org/2000/svg" xmlns:xlink="http://www.w3.org/1999/xlink" contentStyleType="text/css" data-diagram-type="STATE" height="850px" preserveAspectRatio="none" style="width:536px;height:850px;background:#FFFFFF;" version="1.1" viewBox="0 0 536 850" width="536px" zoomAndPan="magnify"><?plantuml 1.2026.6?><defs/><g><g class="entity" data-qualified-name="iniciarSesion" data-source-line="6" id="ent0001"><path d="M19.5,118 L508.5,118 A12.5,12.5 0 0 1 521,130.5 L521,145.6094 L7,145.6094 L7,130.5 A12.5,12.5 0 0 1 19.5,118" fill="#F1F1F1"/><rect fill="none" height="571.6094" rx="12.5" ry="12.5" style="stroke:#181818;stroke-width:0.5;" width="514" x="7" y="118"/><line style="stroke:#181818;stroke-width:0.5;" x1="7" x2="521" y1="145.6094" y2="145.6094"/><text fill="#000000" font-family="sans-serif" font-size="14" lengthAdjust="spacing" textLength="88.6963" x="219.6519" y="137.5332">iniciarSesion()</text><g class="entity" data-qualified-name="iniciarSesion.SolicitandoAcceso" data-source-line="8" id="ent0002"><rect fill="#F1F1F1" height="50" rx="12.5" ry="12.5" style="stroke:#181818;stroke-width:0.5;" width="50" x="113" y="248.6094"/><line style="stroke:#181818;stroke-width:0.5;" x1="113" x2="163" y1="276.2188" y2="276.2188"/><text fill="#000000" font-family="sans-serif" font-size="14" lengthAdjust="spacing" textLength="3.8896" x="136.0552" y="268.1426">&#160;</text></g><g class="entity" data-qualified-name="iniciarSesion.ProporcionandoCredenciales" data-source-line="9" id="ent0003"><rect fill="#F1F1F1" height="50" rx="12.5" ry="12.5" style="stroke:#181818;stroke-width:0.5;" width="50" x="19" y="403.6094"/><line style="stroke:#181818;stroke-width:0.5;" x1="19" x2="69" y1="431.2188" y2="431.2188"/><text fill="#000000" font-family="sans-serif" font-size="14" lengthAdjust="spacing" textLength="3.8896" x="42.0552" y="423.1426">&#160;</text></g><g class="entity" data-qualified-name="iniciarSesion.c" id="ent0004"><polygon fill="#F1F1F1" points="143,558.6094,155,570.6094,143,582.6094,131,570.6094,143,558.6094" style="stroke:#181818;stroke-width:0.5;stroke-linejoin:miter;stroke-miterlimit:10;"/></g><g class="start_entity" data-qualified-name="iniciarSesion..start.iniciarSesion" data-source-line="12" id="ent0007"><ellipse cx="138" cy="166.6094" fill="#222222" rx="10" ry="10" style="stroke:#222222;stroke-width:1;"/></g><g class="end_entity" data-qualified-name="iniciarSesion..end.iniciarSesion" data-source-line="36" id="ent0012"><ellipse cx="143" cy="665.6094" fill="none" rx="11" ry="11" style="stroke:#222222;stroke-width:1;"/><ellipse cx="143" cy="665.6094" fill="#222222" rx="6" ry="6" style="stroke:#222222;stroke-width:1;"/></g><!--link *start*iniciarSesion to SolicitandoAcceso--><g class="link" data-entity-1="ent0007" data-entity-2="ent0002" data-link-type="dependency" data-source-line="12" id="lnk8"><path d="M138,176.9294 C138,192.7894 138,220.5194 138,243.2494" fill="none" id="*start*iniciarSesion-to-SolicitandoAcceso" style="stroke:#008000;stroke-width:1;"/><polygon fill="#008000" points="138,248.2494,142,239.2494,138,243.2494,134,239.2494,138,248.2494" style="stroke:#008000;stroke-width:1;stroke-linejoin:miter;stroke-miterlimit:10;"/><path d="M143,199.6094 L143,225.6094 L396,225.6094 L396,209.6094 L386,199.6094 L143,199.6094" fill="#FEFFDD" style="stroke:#181818;stroke-width:0.5;"/><path d="M386,199.6094 L386,209.6094 L396,209.6094 L386,199.6094" fill="#FEFFDD" style="stroke:#181818;stroke-width:0.5;"/><text fill="#000000" font-family="sans-serif" font-size="13" font-weight="700" lengthAdjust="spacing" textLength="77.2954" x="149" y="218.1045">Investigador</text><text fill="#000000" font-family="sans-serif" font-size="13" lengthAdjust="spacing" textLength="151.728" x="229.9072" y="218.1045">solicita acceder al sistema</text></g><!--link SolicitandoAcceso to ProporcionandoCredenciales--><g class="link" data-entity-1="ent0002" data-entity-2="ent0003" data-link-type="dependency" data-source-line="17" id="lnk9"><path d="M112.76,285.4294 C83.73,297.8694 40,316.6094 40,316.6094 C40,316.6094 40,385.6094 40,385.6094 C40,385.6094 40.316,388.9619 41.196,398.2019" fill="none" id="SolicitandoAcceso-to-ProporcionandoCredenciales" style="stroke:#008000;stroke-width:1;"/><polygon fill="#008000" points="41.67,403.1794,44.7987,393.8407,41.196,398.2019,36.8347,394.5992,41.67,403.1794" style="stroke:#008000;stroke-width:1;stroke-linejoin:miter;stroke-miterlimit:10;"/><path d="M45,321.6094 L45,380.6094 L219,380.6094 L219,331.6094 L209,321.6094 L45,321.6094" fill="#FEFFDD" style="stroke:#181818;stroke-width:0.5;"/><path d="M209,321.6094 L209,331.6094 L219,331.6094 L209,321.6094" fill="#FEFFDD" style="stroke:#181818;stroke-width:0.5;"/><text fill="#000000" font-family="sans-serif" font-size="13" font-weight="700" lengthAdjust="spacing" textLength="49.8608" x="51" y="340.1045">Sistema</text><text fill="#000000" font-family="sans-serif" font-size="13" lengthAdjust="spacing" textLength="100.4263" x="104.4727" y="340.1045">permite introducir</text><text fill="#000000" font-family="sans-serif" font-size="13" lengthAdjust="spacing" textLength="51.5303" x="51" y="356.4561">&#8226; usuario</text><text fill="#000000" font-family="sans-serif" font-size="13" lengthAdjust="spacing" textLength="73.2139" x="51" y="372.8076">&#8226; contrase&#241;a</text></g><!--link ProporcionandoCredenciales to c--><g class="link" data-entity-1="ent0003" data-entity-2="ent0004" data-link-type="dependency" data-source-line="24" id="lnk10"><path d="M47.25,453.6994 C51.67,486.3394 59,540.6094 59,540.6094 C59,540.6094 108.6633,557.7589 129.9133,565.0889" fill="none" id="ProporcionandoCredenciales-to-c" style="stroke:#008000;stroke-width:1;"/><polygon fill="#008000" points="134.64,566.7194,127.4363,560.0032,129.9133,565.0889,124.8276,567.566,134.64,566.7194" style="stroke:#008000;stroke-width:1;stroke-linejoin:miter;stroke-miterlimit:10;"/><path d="M64,476.6094 L64,535.6094 L219,535.6094 L219,486.6094 L209,476.6094 L64,476.6094" fill="#FEFFDD" style="stroke:#181818;stroke-width:0.5;"/><path d="M209,476.6094 L209,486.6094 L219,486.6094 L209,476.6094" fill="#FEFFDD" style="stroke:#181818;stroke-width:0.5;"/><text fill="#000000" font-family="sans-serif" font-size="13" font-weight="700" lengthAdjust="spacing" textLength="77.2954" x="70" y="495.1045">Investigador</text><text fill="#000000" font-family="sans-serif" font-size="13" lengthAdjust="spacing" textLength="53.479" x="150.9072" y="495.1045">introduce</text><text fill="#000000" font-family="sans-serif" font-size="13" lengthAdjust="spacing" textLength="51.5303" x="70" y="511.4561">&#8226; usuario</text><text fill="#000000" font-family="sans-serif" font-size="13" lengthAdjust="spacing" textLength="73.2139" x="70" y="527.8076">&#8226; contrase&#241;a</text></g><!--link c to SolicitandoAcceso--><g class="link" data-entity-1="ent0004" data-entity-2="ent0002" data-link-type="dependency" data-source-line="31" id="lnk11"><path d="M151.36,566.6194 C172.06,559.2094 224,540.6094 224,540.6094 C224,540.6094 224,316.6094 224,316.6094 C224,316.6094 193.2028,301.5636 167.8328,289.1736" fill="none" id="c-to-SolicitandoAcceso" style="stroke:#FF0000;stroke-width:1;"/><polygon fill="#FF0000" points="163.34,286.9794,169.6718,294.5232,167.8328,289.1736,173.1824,287.3346,163.34,286.9794" style="stroke:#FF0000;stroke-width:1;stroke-linejoin:miter;stroke-miterlimit:10;"/><path d="M229,415.6094 L229,441.6094 L497,441.6094 L497,425.6094 L487,415.6094 L229,415.6094" fill="#FEFFDD" style="stroke:#181818;stroke-width:0.5;"/><path d="M487,415.6094 L487,425.6094 L497,425.6094 L487,415.6094" fill="#FEFFDD" style="stroke:#181818;stroke-width:0.5;"/><text fill="#000000" font-family="sans-serif" font-size="13" font-weight="700" lengthAdjust="spacing" textLength="49.8608" x="235" y="434.1045">Sistema</text><text fill="#000000" font-family="sans-serif" font-size="13" lengthAdjust="spacing" textLength="194.3779" x="288.4727" y="434.1045">presenta credenciales incorrectas</text></g><!--link c to *end*iniciarSesion--><g class="link" data-entity-1="ent0004" data-entity-2="ent0012" data-link-type="dependency" data-source-line="36" id="lnk13"><path d="M143,582.6394 C143,600.8294 143,631.8394 143,649.4394" fill="none" id="c-to-*end*iniciarSesion" style="stroke:#008000;stroke-width:1;"/><polygon fill="#008000" points="143,654.4394,147,645.4394,143,649.4394,139,645.4394,143,654.4394" style="stroke:#008000;stroke-width:1;stroke-linejoin:miter;stroke-miterlimit:10;"/><path d="M148,605.6094 L148,631.6094 L368,631.6094 L368,615.6094 L358,605.6094 L148,605.6094" fill="#FEFFDD" style="stroke:#181818;stroke-width:0.5;"/><path d="M358,605.6094 L358,615.6094 L368,615.6094 L358,605.6094" fill="#FEFFDD" style="stroke:#181818;stroke-width:0.5;"/><text fill="#000000" font-family="sans-serif" font-size="13" font-weight="700" lengthAdjust="spacing" textLength="49.8608" x="154" y="624.1045">Sistema</text><text fill="#000000" font-family="sans-serif" font-size="13" lengthAdjust="spacing" textLength="145.9644" x="207.4727" y="624.1045">presenta acceso correcto</text></g></g><g class="entity" data-qualified-name="SESION_CERRADA" data-source-line="4" id="ent0005"><rect fill="#F1F1F1" height="50" rx="12.5" ry="12.5" style="stroke:#181818;stroke-width:0.5;" width="149.1445" x="189.5" y="7"/><line style="stroke:#181818;stroke-width:0.5;" x1="189.5" x2="338.6445" y1="34.6094" y2="34.6094"/><text fill="#000000" font-family="sans-serif" font-size="14" lengthAdjust="spacing" textLength="129.1445" x="199.5" y="26.5332">SESION_CERRADA</text></g><g class="entity" data-qualified-name="PANEL_PRINCIPAL_ABIERTO" data-source-line="42" id="ent0014"><rect fill="#F1F1F1" height="50" rx="12.5" ry="12.5" style="stroke:#181818;stroke-width:0.5;" width="216.8477" x="155.5" y="786"/><line style="stroke:#181818;stroke-width:0.5;" x1="155.5" x2="372.3477" y1="813.6094" y2="813.6094"/><text fill="#000000" font-family="sans-serif" font-size="14" lengthAdjust="spacing" textLength="196.8477" x="165.5" y="805.5332">PANEL_PRINCIPAL_ABIERTO</text></g><!--link SESION_CERRADA to iniciarSesion--><g class="link" data-entity-1="ent0005" data-entity-2="ent0001" data-link-type="dependency" data-source-line="4" id="lnk6"><path d="M264,57.28 C264,72.31 264,88.38 264,112.78" fill="none" id="SESION_CERRADA-to-iniciarSesion" style="stroke:#008000;stroke-width:1;"/><polygon fill="#008000" points="264,117.78,268,108.78,264,112.78,260,108.78,264,117.78" style="stroke:#008000;stroke-width:1;stroke-linejoin:miter;stroke-miterlimit:10;"/></g><!--link iniciarSesion to PANEL_PRINCIPAL_ABIERTO--><g class="link" data-entity-1="ent0001" data-entity-2="ent0014" data-link-type="dependency" data-source-line="42" id="lnk15"><path d="M264,690.13 C264,729.55 264,758.93 264,780.64" fill="none" id="iniciarSesion-to-PANEL_PRINCIPAL_ABIERTO" style="stroke:#008000;stroke-width:1;"/><polygon fill="#008000" points="264,785.64,268,776.64,264,780.64,260,776.64,264,785.64" style="stroke:#008000;stroke-width:1;stroke-linejoin:miter;stroke-miterlimit:10;"/><path d="M269,725 L269,751 L481,751 L481,735 L471,725 L269,725" fill="#FEFFDD" style="stroke:#181818;stroke-width:0.5;"/><path d="M471,725 L471,735 L481,735 L471,725" fill="#FEFFDD" style="stroke:#181818;stroke-width:0.5;"/><text fill="#000000" font-family="sans-serif" font-size="13" font-weight="700" lengthAdjust="spacing" textLength="49.8608" x="275" y="743.4951">Sistema</text><text fill="#000000" font-family="sans-serif" font-size="13" lengthAdjust="spacing" textLength="138.0361" x="328.4727" y="743.4951">presenta panel principal</text></g><?plantuml-src dPDHQi9048RVznIBVMaBqWk4G6hp412Lf6yYCcu6knXtmkvQa5BeMNg3dg4twKaw9bPSDBGs-pJ3F_FzCxjnAsrgiB2MbJRejpNAcghjBX2YI8jiF9eFqZnF7XBPdrujBQAPzMEfZLOQR85Ean72UV0O9YKusGiorpSz-IA4vA_Lz_Ymgg2ALHvCIObIwEXKCh5KarNSPASQM2pHSECAtP5MoIXIJwGLnd6BcTxE0jVdIOQuc0tpqAic4ItYp3oZyte99TdeRX5Bjo-Lm8KbMWcLTDfvN4DJWwPi6hNW4r1WuvTfplafMbHZfKQxriswlQLoexHjL5zlxtBZDc0r7M95h067dn_dN7Rx2Eogls_fnnB-qv7QWTd7PPSLBCUYGyFtf8x7qKQHjQWyk2xgOLn-D9UHeBtXFO52mAiGuMyHF8Hab0xdapmR3R99CfmdzrcQFuv5WEx2rc2muf1dqpLKue3y1W00?></g></svg>