<svg xmlns="http://www.w3.org/2000/svg" xmlns:xlink="http://www.w3.org/1999/xlink" contentStyleType="text/css" data-diagram-type="DESCRIPTION" height="442px" preserveAspectRatio="none" style="width:2748px;height:442px;background:#FFFFFF;" version="1.1" viewBox="0 0 2748 442" width="2748px" zoomAndPan="magnify"><?plantuml 1.2026.5?><defs/><g><!--cluster abrirOpcionesCargaTrabajo--><g class="cluster" data-qualified-name="abrirOpcionesCargaTrabajo" data-source-line="4" id="ent0002"><path d="M247,6 L442.4893,6 A3.75,3.75 0 0 1 444.9893,8.5 L451.9893,29.6094 L1878,29.6094 A2.5,2.5 0 0 1 1880.5,32.1094 L1880.5,424.5 A2.5,2.5 0 0 1 1878,427 L247,427 A2.5,2.5 0 0 1 244.5,424.5 L244.5,8.5 A2.5,2.5 0 0 1 247,6" fill="none" style="stroke:#000000;stroke-width:1.5;"/><line style="stroke:#000000;stroke-width:1.5;" x1="244.5" x2="451.9893" y1="29.6094" y2="29.6094"/><text fill="#000000" font-family="sans-serif" font-size="14" font-weight="700" lengthAdjust="spacing" textLength="194.4893" x="248.5" y="22.5332">abrirOpcionesCargaTrabajo()</text></g><!--entity PanelCargaTrabajoView--><g class="entity" data-qualified-name="abrirOpcionesCargaTrabajo.PanelCargaTrabajoView" data-source-line="5" id="ent0003"><rect fill="#629EF9" height="37.6094" rx="2.5" ry="2.5" style="stroke:#181818;stroke-width:0.5;" width="171.751" x="1595.5" y="42"/><text fill="#000000" font-family="sans-serif" font-size="14" lengthAdjust="spacing" textLength="151.751" x="1605.5" y="66.5332">PanelCargaTrabajoView</text></g><!--entity CargaTrabajoController--><g class="entity" data-qualified-name="abrirOpcionesCargaTrabajo.CargaTrabajoController" data-source-line="6" id="ent0004"><rect fill="#B5BD68" height="37.6094" rx="2.5" ry="2.5" style="stroke:#181818;stroke-width:0.5;" width="166.2891" x="1166.5" y="158"/><text fill="#000000" font-family="sans-serif" font-size="14" lengthAdjust="spacing" textLength="146.2891" x="1176.5" y="182.5332">CargaTrabajoController</text></g><!--entity CargaTrabajoRepository--><g class="entity" data-qualified-name="abrirOpcionesCargaTrabajo.CargaTrabajoRepository" data-source-line="7" id="ent0005"><rect fill="#F2AC4E" height="37.6094" rx="2.5" ry="2.5" style="stroke:#181818;stroke-width:0.5;" width="172.5166" x="428" y="274"/><text fill="#000000" font-family="sans-serif" font-size="14" lengthAdjust="spacing" textLength="152.5166" x="438" y="298.5332">CargaTrabajoRepository</text></g><!--entity PersonaRepository--><g class="entity" data-qualified-name="abrirOpcionesCargaTrabajo.PersonaRepository" data-source-line="8" id="ent0006"><rect fill="#F2AC4E" height="37.6094" rx="2.5" ry="2.5" style="stroke:#181818;stroke-width:0.5;" width="139.0615" x="1322" y="274"/><text fill="#000000" font-family="sans-serif" font-size="14" lengthAdjust="spacing" textLength="119.0615" x="1332" y="298.5332">PersonaRepository</text></g><!--entity ProyectoRepository--><g class="entity" data-qualified-name="abrirOpcionesCargaTrabajo.ProyectoRepository" data-source-line="9" id="ent0007"><rect fill="#F2AC4E" height="37.6094" rx="2.5" ry="2.5" style="stroke:#181818;stroke-width:0.5;" width="142.165" x="1646.5" y="274"/><text fill="#000000" font-family="sans-serif" font-size="14" lengthAdjust="spacing" textLength="122.165" x="1656.5" y="298.5332">ProyectoRepository</text></g><!--entity CargaTrabajo--><g class="entity" data-qualified-name="abrirOpcionesCargaTrabajo.CargaTrabajo" data-source-line="10" id="ent0008"><rect fill="#F2AC4E" height="37.6094" rx="2.5" ry="2.5" style="stroke:#181818;stroke-width:0.5;" width="105.5996" x="461.5" y="373"/><text fill="#000000" font-family="sans-serif" font-size="14" lengthAdjust="spacing" textLength="85.5996" x="471.5" y="397.5332">CargaTrabajo</text></g><!--entity Persona--><g class="entity" data-qualified-name="abrirOpcionesCargaTrabajo.Persona" data-source-line="11" id="ent0009"><rect fill="#F2AC4E" height="37.6094" rx="2.5" ry="2.5" style="stroke:#181818;stroke-width:0.5;" width="72.1445" x="1355.5" y="373"/><text fill="#000000" font-family="sans-serif" font-size="14" lengthAdjust="spacing" textLength="52.1445" x="1365.5" y="397.5332">Persona</text></g><!--entity Proyecto--><g class="entity" data-qualified-name="abrirOpcionesCargaTrabajo.Proyecto" data-source-line="12" id="ent0010"><rect fill="#F2AC4E" height="37.6094" rx="2.5" ry="2.5" style="stroke:#181818;stroke-width:0.5;" width="75.248" x="1680" y="373"/><text fill="#000000" font-family="sans-serif" font-size="14" lengthAdjust="spacing" textLength="55.248" x="1690" y="397.5332">Proyecto</text></g><!--entity EstadoEntrada--><g class="entity" data-qualified-name="EstadoEntrada" data-source-line="3" id="ent0001"><rect fill="#CDEBA5" height="37.6094" rx="2.5" ry="2.5" style="stroke:#181818;stroke-width:0.5;" width="220.7373" x="7" y="42"/><text fill="#000000" font-family="sans-serif" font-size="14" lengthAdjust="spacing" textLength="200.7373" x="17" y="66.5332">:PANEL_PRINCIPAL_ABIERTO</text></g><!--entity EstadoSalida--><g class="entity" data-qualified-name="EstadoSalida" data-source-line="15" id="ent0011"><rect fill="#CDEBA5" height="37.6094" rx="2.5" ry="2.5" style="stroke:#181818;stroke-width:0.5;" width="304.7441" x="1897" y="158"/><text fill="#000000" font-family="sans-serif" font-size="14" lengthAdjust="spacing" textLength="284.7441" x="1907" y="182.5332">:OPCIONES_CARGA_TRABAJO_ABIERTAS</text></g><!--entity EditarCargaTrabajo--><g class="entity" data-qualified-name="EditarCargaTrabajo" data-source-line="16" id="ent0012"><rect fill="#CDEBA5" height="37.6094" rx="2.5" ry="2.5" style="stroke:#181818;stroke-width:0.5;" width="232.4473" x="2237.5" y="158"/><text fill="#000000" font-family="sans-serif" font-size="14" lengthAdjust="spacing" textLength="212.4473" x="2247.5" y="182.5332">:Collaboration EditarCargaTrabajo</text></g><!--entity AbrirPanelPrincipal--><g class="entity" data-qualified-name="AbrirPanelPrincipal" data-source-line="17" id="ent0013"><rect fill="#CDEBA5" height="37.6094" rx="2.5" ry="2.5" style="stroke:#181818;stroke-width:0.5;" width="229.3301" x="2505" y="158"/><text fill="#000000" font-family="sans-serif" font-size="14" lengthAdjust="spacing" textLength="209.3301" x="2515" y="182.5332">:Collaboration AbrirPanelPrincipal</text></g><!--link EstadoEntrada to PanelCargaTrabajoView--><g class="link" data-entity-1="ent0001" data-entity-2="ent0003" data-link-type="dependency" data-source-line="19" id="lnk14"><path d="M228.1,61 C523.98,61 1324.2,61 1590.04,61" fill="none" id="EstadoEntrada-to-PanelCargaTrabajoView" style="stroke:#181818;stroke-width:1;"/><polygon fill="#181818" points="1595.04,61,1586.04,57,1590.04,61,1586.04,65,1595.04,61" style="stroke:#181818;stroke-width:1;stroke-linejoin:miter;stroke-miterlimit:10;"/><text fill="#000000" font-family="sans-serif" font-size="13" lengthAdjust="spacing" textLength="169.0698" x="827.25" y="54.4951">abrirOpcionesCargaTrabajo()</text></g><!--link PanelCargaTrabajoView to CargaTrabajoController--><g class="link" data-entity-1="ent0003" data-entity-2="ent0004" data-link-type="dependency" data-source-line="21" id="lnk15"><path d="M1595.27,70.12 C1449.85,83.8 1171.5,110 1171.5,110 C1171.5,110 1171.5,128 1171.5,128 C1171.5,128 1193.6614,141.6401 1215.7514,155.2301" fill="none" id="PanelCargaTrabajoView-to-CargaTrabajoController" style="stroke:#181818;stroke-width:1;"/><polygon fill="#181818" points="1220.01,157.85,1214.4404,149.7272,1215.7514,155.2301,1210.2485,156.541,1220.01,157.85" style="stroke:#181818;stroke-width:1;stroke-linejoin:miter;stroke-miterlimit:10;"/><text fill="#000000" font-family="sans-serif" font-size="13" lengthAdjust="spacing" textLength="252.9033" x="1172.5" y="124.4951">obtenerResumenGlobal(coordinador, filtros)</text></g><!--link PanelCargaTrabajoView to CargaTrabajoController--><g class="link" data-entity-1="ent0003" data-entity-2="ent0004" data-link-type="dependency" data-source-line="22" id="lnk16"><path d="M1600.46,80.01 C1539.16,93.63 1465.5,110 1465.5,110 C1465.5,110 1429.5,128 1429.5,128 C1429.5,128 1372.9411,143.0816 1321.8711,156.7016" fill="none" id="PanelCargaTrabajoView-to-CargaTrabajoController-1" style="stroke:#181818;stroke-width:1;"/><polygon fill="#181818" points="1317.04,157.99,1326.7668,159.5357,1321.8711,156.7016,1324.7053,151.8059,1317.04,157.99" style="stroke:#181818;stroke-width:1;stroke-linejoin:miter;stroke-miterlimit:10;"/><text fill="#000000" font-family="sans-serif" font-size="13" lengthAdjust="spacing" textLength="171.2217" x="1466.5" y="124.4951">listarCargaPorPersona(filtros)</text></g><!--link PanelCargaTrabajoView to CargaTrabajoController--><g class="link" data-entity-1="ent0003" data-entity-2="ent0004" data-link-type="dependency" data-source-line="23" id="lnk17"><path d="M1670.84,80.03 C1659.3,99.58 1642.5,128 1642.5,128 C1642.5,128 1453.1731,151.1238 1337.8131,165.2138" fill="none" id="PanelCargaTrabajoView-to-CargaTrabajoController-2" style="stroke:#181818;stroke-width:1;"/><polygon fill="#181818" points="1332.85,165.82,1342.2686,168.6993,1337.8131,165.2138,1341.2987,160.7584,1332.85,165.82" style="stroke:#181818;stroke-width:1;stroke-linejoin:miter;stroke-miterlimit:10;"/><text fill="#000000" font-family="sans-serif" font-size="13" lengthAdjust="spacing" textLength="181.3716" x="1653.5" y="124.4951">seleccionarPersona(idPersona)</text></g><!--link CargaTrabajoController to CargaTrabajoRepository--><g class="link" data-entity-1="ent0004" data-entity-2="ent0005" data-link-type="dependency" data-source-line="24" id="lnk18"><path d="M1166.25,182.18 C933.41,193.85 292.5,226 292.5,226 C292.5,226 292.5,244 292.5,244 C292.5,244 363.3229,259.3133 426.3129,272.9333" fill="none" id="CargaTrabajoController-to-CargaTrabajoRepository" style="stroke:#181818;stroke-width:1;"/><polygon fill="#181818" points="431.2,273.99,423.2487,268.1783,426.3129,272.9333,421.5579,275.9976,431.2,273.99" style="stroke:#181818;stroke-width:1;stroke-linejoin:miter;stroke-miterlimit:10;"/><text fill="#000000" font-family="sans-serif" font-size="13" lengthAdjust="spacing" textLength="177.0234" x="293.5" y="240.4951">obtenerResumenGlobal(filtros)</text></g><!--link CargaTrabajoController to CargaTrabajoRepository--><g class="link" data-entity-1="ent0004" data-entity-2="ent0005" data-link-type="dependency" data-source-line="25" id="lnk19"><path d="M1166.28,183.41 C973.27,195.97 511.5,226 511.5,226 C511.5,226 511.5,244 511.5,244 C511.5,244 512.2079,255.2698 513.0579,268.8598" fill="none" id="CargaTrabajoController-to-CargaTrabajoRepository-1" style="stroke:#181818;stroke-width:1;"/><polygon fill="#181818" points="513.37,273.85,516.8004,264.6179,513.0579,268.8598,508.816,265.1172,513.37,273.85" style="stroke:#181818;stroke-width:1;stroke-linejoin:miter;stroke-miterlimit:10;"/><text fill="#000000" font-family="sans-serif" font-size="13" lengthAdjust="spacing" textLength="192.9243" x="512.5" y="240.4951">obtenerDetallePorPersona(filtros)</text></g><!--link CargaTrabajoController to CargaTrabajoRepository--><g class="link" data-entity-1="ent0004" data-entity-2="ent0005" data-link-type="dependency" data-source-line="28" id="lnk22"><path d="M1166.47,186.44 C1031.04,200.22 777.5,226 777.5,226 C777.5,226 709.5,244 709.5,244 C709.5,244 647.8551,259.1749 592.5251,272.7949" fill="none" id="CargaTrabajoController-to-CargaTrabajoRepository-2" style="stroke:#181818;stroke-width:1;"/><polygon fill="#181818" points="587.67,273.99,597.3652,275.7228,592.5251,272.7949,595.453,267.9547,587.67,273.99" style="stroke:#181818;stroke-width:1;stroke-linejoin:miter;stroke-miterlimit:10;"/><text fill="#000000" font-family="sans-serif" font-size="13" lengthAdjust="spacing" textLength="459.5703" x="778.5" y="240.4951">sugerirInvestigadoresDocentesConMenorCarga(proyectoLibre, sedesDocentes)</text></g><!--link CargaTrabajoController to ProyectoRepository--><g class="link" data-entity-1="ent0004" data-entity-2="ent0007" data-link-type="dependency" data-source-line="26" id="lnk20"><path d="M1332.72,188.06 C1449.14,202.14 1646.5,226 1646.5,226 C1646.5,226 1673.4188,251.0148 1694.4388,270.5648" fill="none" id="CargaTrabajoController-to-ProyectoRepository" style="stroke:#181818;stroke-width:1;"/><polygon fill="#181818" points="1698.1,273.97,1694.2339,264.9117,1694.4388,270.5648,1688.7856,270.7696,1698.1,273.97" style="stroke:#181818;stroke-width:1;stroke-linejoin:miter;stroke-miterlimit:10;"/><text fill="#000000" font-family="sans-serif" font-size="13" lengthAdjust="spacing" textLength="145.958" x="1666.5" y="240.4951">obtenerProyectosLibres()</text></g><!--link CargaTrabajoController to PersonaRepository--><g class="link" data-entity-1="ent0004" data-entity-2="ent0006" data-link-type="dependency" data-source-line="27" id="lnk21"><path d="M1248.37,196.15 C1247.52,209.74 1246.5,226 1246.5,226 C1246.5,226 1246.5,244 1246.5,244 C1246.5,244 1291.2034,258.7986 1332.3434,272.4186" fill="none" id="CargaTrabajoController-to-PersonaRepository" style="stroke:#181818;stroke-width:1;"/><polygon fill="#181818" points="1337.09,273.99,1329.8032,267.3641,1332.3434,272.4186,1327.2889,274.9587,1337.09,273.99" style="stroke:#181818;stroke-width:1;stroke-linejoin:miter;stroke-miterlimit:10;"/><text fill="#000000" font-family="sans-serif" font-size="13" lengthAdjust="spacing" textLength="242.8105" x="1247.5" y="240.4951">obtenerInvestigadoresDocentesPorSede()</text></g><!--link CargaTrabajoController to PersonaRepository--><g class="link" data-entity-1="ent0004" data-entity-2="ent0006" data-link-type="dependency" data-source-line="29" id="lnk23"><path d="M1332.79,194.32 C1403.81,208.23 1494.5,226 1494.5,226 C1494.5,226 1494.5,244 1494.5,244 C1494.5,244 1463.9019,258.2576 1434.6819,271.8776" fill="none" id="CargaTrabajoController-to-PersonaRepository-1" style="stroke:#181818;stroke-width:1;"/><polygon fill="#181818" points="1430.15,273.99,1439.9973,273.8132,1434.6819,271.8776,1436.6174,266.5622,1430.15,273.99" style="stroke:#181818;stroke-width:1;stroke-linejoin:miter;stroke-miterlimit:10;"/><text fill="#000000" font-family="sans-serif" font-size="13" lengthAdjust="spacing" textLength="142.3589" x="1495.5" y="240.4951">obtenerPorId(idPersona)</text></g><!--link CargaTrabajoRepository to CargaTrabajo--><g class="link" data-entity-1="ent0005" data-entity-2="ent0008" data-link-type="association" data-source-line="30" id="lnk24"><path d="M514.5,312.24 C514.5,329.59 514.5,355.52 514.5,372.84" fill="none" id="CargaTrabajoRepository-CargaTrabajo" style="stroke:#181818;stroke-width:1;"/></g><!--link PersonaRepository to Persona--><g class="link" data-entity-1="ent0006" data-entity-2="ent0009" data-link-type="association" data-source-line="31" id="lnk25"><path d="M1391.5,312.24 C1391.5,329.59 1391.5,355.52 1391.5,372.84" fill="none" id="PersonaRepository-Persona" style="stroke:#181818;stroke-width:1;"/></g><!--link ProyectoRepository to Proyecto--><g class="link" data-entity-1="ent0007" data-entity-2="ent0010" data-link-type="association" data-source-line="32" id="lnk26"><path d="M1717.5,312.24 C1717.5,329.59 1717.5,355.52 1717.5,372.84" fill="none" id="ProyectoRepository-Proyecto" style="stroke:#181818;stroke-width:1;"/></g><!--link PanelCargaTrabajoView to EstadoSalida--><g class="link" data-entity-1="ent0003" data-entity-2="ent0011" data-link-type="dependency" data-source-line="33" id="lnk27"><path d="M1753.16,80.01 C1807.36,93.63 1872.5,110 1872.5,110 C1872.5,110 1944.0454,136.6722 1996.4454,156.2222" fill="none" id="PanelCargaTrabajoView-to-EstadoSalida" style="stroke:#181818;stroke-width:1;stroke-dasharray:7,7;"/><polygon fill="#181818" points="2001.13,157.97,1994.096,151.0763,1996.4454,156.2222,1991.2995,158.5717,2001.13,157.97" style="stroke:#181818;stroke-width:1;stroke-linejoin:miter;stroke-miterlimit:10;"/><text fill="#000000" font-family="sans-serif" font-size="13" lengthAdjust="spacing" textLength="187.8716" x="1920.5" y="124.4951">opcionesCargaTrabajoAbiertas()</text></g><!--link PanelCargaTrabajoView to EditarCargaTrabajo--><g class="link" data-entity-1="ent0003" data-entity-2="ent0012" data-link-type="dependency" data-source-line="34" id="lnk28"><path d="M1767.7,71.51 C1894.52,85.51 2116.5,110 2116.5,110 C2116.5,110 2213.7534,137.0781 2283.9234,156.6281" fill="none" id="PanelCargaTrabajoView-to-EditarCargaTrabajo" style="stroke:#181818;stroke-width:1;stroke-dasharray:7,7;"/><polygon fill="#181818" points="2288.74,157.97,2281.1437,151.7013,2283.9234,156.6281,2278.9967,159.4078,2288.74,157.97" style="stroke:#181818;stroke-width:1;stroke-linejoin:miter;stroke-miterlimit:10;"/><text fill="#000000" font-family="sans-serif" font-size="13" lengthAdjust="spacing" textLength="179.2007" x="2180.5" y="124.4951">editarCargaTrabajo(idPersona)</text></g><!--link PanelCargaTrabajoView to AbrirPanelPrincipal--><g class="link" data-entity-1="ent0003" data-entity-2="ent0013" data-link-type="dependency" data-source-line="35" id="lnk29"><path d="M1767.81,68.03 C1952.33,80.92 2368.5,110 2368.5,110 C2368.5,110 2471.7645,137.1479 2546.0745,156.6979" fill="none" id="PanelCargaTrabajoView-to-AbrirPanelPrincipal" style="stroke:#181818;stroke-width:1;stroke-dasharray:7,7;"/><polygon fill="#181818" points="2550.91,157.97,2543.2239,151.8118,2546.0745,156.6979,2541.1885,159.5485,2550.91,157.97" style="stroke:#181818;stroke-width:1;stroke-linejoin:miter;stroke-miterlimit:10;"/><text fill="#000000" font-family="sans-serif" font-size="13" lengthAdjust="spacing" textLength="117.7681" x="2436.5" y="124.4951">abrirPanelPrincipal()</text></g><?plantuml-src fPHHRvim4CVV-HHMzaAafW_LMgrvgEGGMZ5b0P6ehz41ryYhQoFRtHHD--upAKb8C6HAUOBptp_VyJ-VVcMY10LlX3E1PbCYAINVL1-Ufp0t8DOSoPTW6axeBHcC4peFPwiaZUP1bD3PYawYC5t60mAQXDf08KDX51JWbP2_mXe9P8gfkCoP5AW3K6jOAiZWfwos33fN_U60_F68VHfftDtSXu_t9061l2b-PlZxL9lTPiNTDzAK1TBc9Zb7TIf-lA71r_18d68fDJDIRJh42Iej1PpNARcnmVF0vkdzPvuvoVlhDYzEWYYUXujLGDCdkbgcT4A_nxM7TD4mSG6SMGzTaC3-GCYa0cCz8s713AXcvX-KLlW_MBJgXQstYM8YPoNmBSmHzxoZPYCZDNfmjyMOzBIOvpdta55XSUxE6HEP6HIeKjJlRoYUkCo0-xcKgc32fgIko0lZLgs7NVGUE6Twz-CIgMgx_Ky0DNBCgzfXJsD5_JRqtBjQm4FhTfI_J_1ou1GDMAshwXve-tBjWRibFMEPGkttSqulynuJYL-e3LjNrgAUoXo5GMtJN621_aKLw_SrsfvqaotZ1mhvqGD-MHUnhU7AkbaSb1SMP5EFYgucEEWjvNWYjOYLOZUGsZviLtS3oTstrzSFH_F6fkYufZHZg0nK1lPWMWDdJB0LQrRTpNBCctgA70TjGly0?></g></svg>