<svg xmlns="http://www.w3.org/2000/svg" xmlns:xlink="http://www.w3.org/1999/xlink" contentStyleType="text/css" data-diagram-type="DESCRIPTION" height="442px" preserveAspectRatio="none" style="width:1611px;height:442px;background:#FFFFFF;" version="1.1" viewBox="0 0 1611 442" width="1611px" zoomAndPan="magnify"><?plantuml 1.2026.4?><defs/><g><!--cluster abrirOpcionesCargaTrabajo--><g class="cluster" data-qualified-name="abrirOpcionesCargaTrabajo" data-source-line="4" id="ent0002"><path d="M247,6 L442.4893,6 A3.75,3.75 0 0 1 444.9893,8.5 L451.9893,29.6094 L741,29.6094 A2.5,2.5 0 0 1 743.5,32.1094 L743.5,424.5 A2.5,2.5 0 0 1 741,427 L247,427 A2.5,2.5 0 0 1 244.5,424.5 L244.5,8.5 A2.5,2.5 0 0 1 247,6" fill="none" style="stroke:#000000;stroke-width:1.5;"/><line style="stroke:#000000;stroke-width:1.5;" x1="244.5" x2="451.9893" y1="29.6094" y2="29.6094"/><text fill="#000000" font-family="sans-serif" font-size="14" font-weight="700" lengthAdjust="spacing" textLength="194.4893" x="248.5" y="22.5332">abrirOpcionesCargaTrabajo()</text></g><!--entity DetalleCargaTrabajoView--><g class="entity" data-qualified-name="abrirOpcionesCargaTrabajo.DetalleCargaTrabajoView" data-source-line="5" id="ent0003"><rect fill="#629EF9" height="37.6094" rx="2.5" ry="2.5" style="stroke:#181818;stroke-width:0.5;" width="179.5234" x="490.5" y="42"/><text fill="#000000" font-family="sans-serif" font-size="14" lengthAdjust="spacing" textLength="159.5234" x="500.5" y="66.5332">DetalleCargaTrabajoView</text></g><!--entity CargaTrabajoController--><g class="entity" data-qualified-name="abrirOpcionesCargaTrabajo.CargaTrabajoController" data-source-line="6" id="ent0004"><rect fill="#B5BD68" height="37.6094" rx="2.5" ry="2.5" style="stroke:#181818;stroke-width:0.5;" width="166.2891" x="303.5" y="158"/><text fill="#000000" font-family="sans-serif" font-size="14" lengthAdjust="spacing" textLength="146.2891" x="313.5" y="182.5332">CargaTrabajoController</text></g><!--entity CargaTrabajoRepository--><g class="entity" data-qualified-name="abrirOpcionesCargaTrabajo.CargaTrabajoRepository" data-source-line="7" id="ent0005"><rect fill="#F2AC4E" height="37.6094" rx="2.5" ry="2.5" style="stroke:#181818;stroke-width:0.5;" width="172.5166" x="315" y="274"/><text fill="#000000" font-family="sans-serif" font-size="14" lengthAdjust="spacing" textLength="152.5166" x="325" y="298.5332">CargaTrabajoRepository</text></g><!--entity CargaTrabajo--><g class="entity" data-qualified-name="abrirOpcionesCargaTrabajo.CargaTrabajo" data-source-line="8" id="ent0006"><rect fill="#F2AC4E" height="37.6094" rx="2.5" ry="2.5" style="stroke:#181818;stroke-width:0.5;" width="105.5996" x="348.5" y="373"/><text fill="#000000" font-family="sans-serif" font-size="14" lengthAdjust="spacing" textLength="85.5996" x="358.5" y="397.5332">CargaTrabajo</text></g><!--entity EstadoEntrada--><g class="entity" data-qualified-name="EstadoEntrada" data-source-line="3" id="ent0001"><rect fill="#CDEBA5" height="37.6094" rx="2.5" ry="2.5" style="stroke:#181818;stroke-width:0.5;" width="220.7373" x="7" y="42"/><text fill="#000000" font-family="sans-serif" font-size="14" lengthAdjust="spacing" textLength="200.7373" x="17" y="66.5332">:PANEL_PRINCIPAL_ABIERTO</text></g><!--entity EstadoSalida--><g class="entity" data-qualified-name="EstadoSalida" data-source-line="11" id="ent0007"><rect fill="#CDEBA5" height="37.6094" rx="2.5" ry="2.5" style="stroke:#181818;stroke-width:0.5;" width="304.7441" x="760" y="158"/><text fill="#000000" font-family="sans-serif" font-size="14" lengthAdjust="spacing" textLength="284.7441" x="770" y="182.5332">:OPCIONES_CARGA_TRABAJO_ABIERTAS</text></g><!--entity EditarCargaTrabajo--><g class="entity" data-qualified-name="EditarCargaTrabajo" data-source-line="12" id="ent0008"><rect fill="#CDEBA5" height="37.6094" rx="2.5" ry="2.5" style="stroke:#181818;stroke-width:0.5;" width="232.4473" x="1100.5" y="158"/><text fill="#000000" font-family="sans-serif" font-size="14" lengthAdjust="spacing" textLength="212.4473" x="1110.5" y="182.5332">:Collaboration EditarCargaTrabajo</text></g><!--entity AbrirPanelPrincipal--><g class="entity" data-qualified-name="AbrirPanelPrincipal" data-source-line="13" id="ent0009"><rect fill="#CDEBA5" height="37.6094" rx="2.5" ry="2.5" style="stroke:#181818;stroke-width:0.5;" width="229.3301" x="1368" y="158"/><text fill="#000000" font-family="sans-serif" font-size="14" lengthAdjust="spacing" textLength="209.3301" x="1378" y="182.5332">:Collaboration AbrirPanelPrincipal</text></g><!--link EstadoEntrada to DetalleCargaTrabajoView--><g class="link" data-entity-1="ent0001" data-entity-2="ent0003" data-link-type="dependency" data-source-line="15" id="lnk10"><path d="M228.11,61 C308.22,61 410.19,61 485.18,61" fill="none" id="EstadoEntrada-to-DetalleCargaTrabajoView" style="stroke:#181818;stroke-width:1;"/><polygon fill="#181818" points="490.18,61,481.18,57,485.18,61,481.18,65,490.18,61" style="stroke:#181818;stroke-width:1;stroke-linejoin:miter;stroke-miterlimit:10;"/><text fill="#000000" font-family="sans-serif" font-size="13" lengthAdjust="spacing" textLength="169.0698" x="274.75" y="54.4951">abrirOpcionesCargaTrabajo()</text></g><!--link DetalleCargaTrabajoView to CargaTrabajoController--><g class="link" data-entity-1="ent0003" data-entity-2="ent0004" data-link-type="dependency" data-source-line="17" id="lnk11"><path d="M490.17,77.06 C405.7,91.13 292.5,110 292.5,110 C292.5,110 292.5,128 292.5,128 C292.5,128 320.1071,142.0959 346.7771,155.7159" fill="none" id="DetalleCargaTrabajoView-to-CargaTrabajoController" style="stroke:#181818;stroke-width:1;"/><polygon fill="#181818" points="351.23,157.99,345.034,150.3343,346.7771,155.7159,341.3955,157.4591,351.23,157.99" style="stroke:#181818;stroke-width:1;stroke-linejoin:miter;stroke-miterlimit:10;"/><text fill="#000000" font-family="sans-serif" font-size="13" lengthAdjust="spacing" textLength="142.3525" x="293.5" y="124.4951">obtenerCargaTrabajo(id)</text></g><!--link DetalleCargaTrabajoView to CargaTrabajoController--><g class="link" data-entity-1="ent0003" data-entity-2="ent0004" data-link-type="dependency" data-source-line="18" id="lnk12"><path d="M549.76,80.06 C513.54,101.35 458.0206,133.9664 421.7306,155.2964" fill="none" id="DetalleCargaTrabajoView-to-CargaTrabajoController-1" style="stroke:#181818;stroke-width:1;"/><polygon fill="#181818" points="417.42,157.83,427.2059,156.718,421.7306,155.2964,423.1521,149.8211,417.42,157.83" style="stroke:#181818;stroke-width:1;stroke-linejoin:miter;stroke-miterlimit:10;"/><text fill="#000000" font-family="sans-serif" font-size="13" lengthAdjust="spacing" textLength="246.4033" x="495.5" y="124.4951">prepararAccionesDisponibles(coordinador)</text></g><!--link CargaTrabajoController to CargaTrabajoRepository--><g class="link" data-entity-1="ent0004" data-entity-2="ent0005" data-link-type="dependency" data-source-line="19" id="lnk13"><path d="M360.79,196.15 C341.54,209.74 318.5,226 318.5,226 C318.5,226 318.5,244 318.5,244 C318.5,244 342.2917,257.7569 365.7917,271.3469" fill="none" id="CargaTrabajoController-to-CargaTrabajoRepository" style="stroke:#181818;stroke-width:1;"/><polygon fill="#181818" points="370.12,273.85,364.3314,265.8818,365.7917,271.3469,360.3265,272.8071,370.12,273.85" style="stroke:#181818;stroke-width:1;stroke-linejoin:miter;stroke-miterlimit:10;"/><text fill="#000000" font-family="sans-serif" font-size="13" lengthAdjust="spacing" textLength="93.939" x="319.5" y="240.4951">obtenerPorId(id)</text></g><!--link CargaTrabajoController to CargaTrabajoRepository--><g class="link" data-entity-1="ent0004" data-entity-2="ent0005" data-link-type="dependency" data-source-line="20" id="lnk14"><path d="M398.22,196.15 C407,209.74 417.5,226 417.5,226 C417.5,226 417.5,244 417.5,244 C417.5,244 413.6611,255.5166 409.1311,269.1066" fill="none" id="CargaTrabajoController-to-CargaTrabajoRepository-1" style="stroke:#181818;stroke-width:1;"/><polygon fill="#181818" points="407.55,273.85,414.1908,266.5768,409.1311,269.1066,406.6013,264.0469,407.55,273.85" style="stroke:#181818;stroke-width:1;stroke-linejoin:miter;stroke-miterlimit:10;"/><text fill="#000000" font-family="sans-serif" font-size="13" lengthAdjust="spacing" textLength="137.2427" x="418.5" y="240.4951">verificarPermisos(actor)</text></g><!--link CargaTrabajoRepository to CargaTrabajo--><g class="link" data-entity-1="ent0005" data-entity-2="ent0006" data-link-type="association" data-source-line="21" id="lnk15"><path d="M401.5,312.24 C401.5,329.59 401.5,355.52 401.5,372.84" fill="none" id="CargaTrabajoRepository-CargaTrabajo" style="stroke:#181818;stroke-width:1;"/></g><!--link DetalleCargaTrabajoView to EstadoSalida--><g class="link" data-entity-1="ent0003" data-entity-2="ent0007" data-link-type="dependency" data-source-line="22" id="lnk16"><path d="M644.29,80.01 C692.52,93.63 750.5,110 750.5,110 C750.5,110 815.6399,136.5326 863.5999,156.0826" fill="none" id="DetalleCargaTrabajoView-to-EstadoSalida" style="stroke:#181818;stroke-width:1;stroke-dasharray:7,7;"/><polygon fill="#181818" points="868.23,157.97,861.4057,150.8686,863.5999,156.0826,858.3859,158.2768,868.23,157.97" style="stroke:#181818;stroke-width:1;stroke-linejoin:miter;stroke-miterlimit:10;"/><text fill="#000000" font-family="sans-serif" font-size="13" lengthAdjust="spacing" textLength="130.7935" x="794.5" y="124.4951">continuarNavegacion()</text></g><!--link DetalleCargaTrabajoView to EditarCargaTrabajo--><g class="link" data-entity-1="ent0003" data-entity-2="ent0008" data-link-type="dependency" data-source-line="23" id="lnk17"><path d="M670.95,74.3 C775.54,88.52 933.5,110 933.5,110 C933.5,110 1050.5108,137.2839 1134.3008,156.8339" fill="none" id="DetalleCargaTrabajoView-to-EditarCargaTrabajo" style="stroke:#181818;stroke-width:1;stroke-dasharray:7,7;"/><polygon fill="#181818" points="1139.17,157.97,1131.3143,152.0297,1134.3008,156.8339,1129.4965,159.8204,1139.17,157.97" style="stroke:#181818;stroke-width:1;stroke-linejoin:miter;stroke-miterlimit:10;"/><text fill="#000000" font-family="sans-serif" font-size="13" lengthAdjust="spacing" textLength="120.6626" x="1009.5" y="124.4951">editarCargaTrabajo()</text></g><!--link DetalleCargaTrabajoView to AbrirPanelPrincipal--><g class="link" data-entity-1="ent0003" data-entity-2="ent0009" data-link-type="dependency" data-source-line="24" id="lnk18"><path d="M670.77,69.77 C828.7,83.35 1138.5,110 1138.5,110 C1138.5,110 1281.7396,137.4775 1383.5896,157.0275" fill="none" id="DetalleCargaTrabajoView-to-AbrirPanelPrincipal" style="stroke:#181818;stroke-width:1;stroke-dasharray:7,7;"/><polygon fill="#181818" points="1388.5,157.97,1380.4154,152.3451,1383.5896,157.0275,1378.9073,160.2017,1388.5,157.97" style="stroke:#181818;stroke-width:1;stroke-linejoin:miter;stroke-miterlimit:10;"/><text fill="#000000" font-family="sans-serif" font-size="13" lengthAdjust="spacing" textLength="117.7681" x="1231.5" y="124.4951">abrirPanelPrincipal()</text></g><?plantuml-src dP91Rzim38Nl-XL2Td4EwQ5OYzM70egZ3XwAs722NGDQvWAjgYJGMeTWs7-Vt1QhdTXPCTr4av-V7b_xeAq7WaTkjCLmyCYzCuVkmXYX2c3t1lc7R2MNuehFqbAivVskhF9rbfVYVYUMkQosnOn3osKRe77I1e86c0Vr07laK9EcmYljBBOPq1ws13LyTzt8RF9hCf_nNup7qvDnVNaZxsxu2WCOW_tshnf_7dVNLtLp_Odtsp8NrRauIyVDTvSY-oW7pHLwr-hWwF2EPlPxtB2YpF9YBJUxJ5IVnMvRYQNuKhpw9ZOzupPWTFHj3995oL0xWX1zuhBH0QZ_ynVAIVaTBD7vNu95KvAsIdimpx2HEcE31VC5BMwdLf7oCujbR6AABvg87DzNobqTqEBWWObkvjEmConFsCMUX7eHkDAjTrRN1jj4EKUDjl6bD6VZW1FsMrJ-wYmTvSspmFzWF27fRre1bKYFkdLj0YeSwtaRYAnX6ASykRYu7QGjvIeAqlO7q1gUS0-T7Sdy_Fn9pbAE9xL_G4RozPgPOJ5Y_W00?></g></svg>