<svg xmlns="http://www.w3.org/2000/svg" xmlns:xlink="http://www.w3.org/1999/xlink" contentStyleType="text/css" height="434px" preserveAspectRatio="none" style="width:2650px;height:434px;background:#FFFFFF;" version="1.1" viewBox="0 0 2650 434" width="2650px" zoomAndPan="magnify"><defs/><g><!--cluster abrirOpcionesCargaTrabajo--><g id="cluster_abrirOpcionesCargaTrabajo"><path d="M247,6 L442.4893,6 A3.75,3.75 0 0 1 444.9893,8.5 L451.9893,29.6094 L1788,29.6094 A2.5,2.5 0 0 1 1790.5,32.1094 L1790.5,424.5 A2.5,2.5 0 0 1 1788,427 L247,427 A2.5,2.5 0 0 1 244.5,424.5 L244.5,8.5 A2.5,2.5 0 0 1 247,6 " fill="none" style="stroke:#000000;stroke-width:1.5;"/><line style="stroke:#000000;stroke-width:1.5;" x1="244.5" x2="451.9893" y1="29.6094" y2="29.6094"/><text fill="#000000" font-family="sans-serif" font-size="14" font-weight="bold" lengthAdjust="spacing" textLength="194.4893" x="248.5" y="22.5332">abrirOpcionesCargaTrabajo()</text></g><!--entity PanelCargaTrabajoView--><g id="elem_PanelCargaTrabajoView"><rect fill="#629EF9" height="37.6094" rx="2.5" ry="2.5" style="stroke:#181818;stroke-width:0.5;" width="171.751" x="1505.5" y="42"/><text fill="#000000" font-family="sans-serif" font-size="14" lengthAdjust="spacing" textLength="151.751" x="1515.5" y="66.5332">PanelCargaTrabajoView</text></g><!--entity CargaTrabajoController--><g id="elem_CargaTrabajoController"><rect fill="#B5BD68" height="37.6094" rx="2.5" ry="2.5" style="stroke:#181818;stroke-width:0.5;" width="166.2891" x="1069.5" y="158"/><text fill="#000000" font-family="sans-serif" font-size="14" lengthAdjust="spacing" textLength="146.2891" x="1079.5" y="182.5332">CargaTrabajoController</text></g><!--entity CargaTrabajoRepository--><g id="elem_CargaTrabajoRepository"><rect fill="#F2AC4E" height="37.6094" rx="2.5" ry="2.5" style="stroke:#181818;stroke-width:0.5;" width="172.5166" x="428" y="274"/><text fill="#000000" font-family="sans-serif" font-size="14" lengthAdjust="spacing" textLength="152.5166" x="438" y="298.5332">CargaTrabajoRepository</text></g><!--entity PersonaRepository--><g id="elem_PersonaRepository"><rect fill="#F2AC4E" height="37.6094" rx="2.5" ry="2.5" style="stroke:#181818;stroke-width:0.5;" width="139.0615" x="1083" y="274"/><text fill="#000000" font-family="sans-serif" font-size="14" lengthAdjust="spacing" textLength="119.0615" x="1093" y="298.5332">PersonaRepository</text></g><!--entity ProyectoRepository--><g id="elem_ProyectoRepository"><rect fill="#F2AC4E" height="37.6094" rx="2.5" ry="2.5" style="stroke:#181818;stroke-width:0.5;" width="142.165" x="1263.5" y="274"/><text fill="#000000" font-family="sans-serif" font-size="14" lengthAdjust="spacing" textLength="122.165" x="1273.5" y="298.5332">ProyectoRepository</text></g><!--entity RecompensaRepository--><g id="elem_RecompensaRepository"><rect fill="#F2AC4E" height="37.6094" rx="2.5" ry="2.5" style="stroke:#181818;stroke-width:0.5;" width="169.4063" x="1441" y="274"/><text fill="#000000" font-family="sans-serif" font-size="14" lengthAdjust="spacing" textLength="149.4063" x="1451" y="298.5332">RecompensaRepository</text></g><!--entity CargaTrabajo--><g id="elem_CargaTrabajo"><rect fill="#F2AC4E" height="37.6094" rx="2.5" ry="2.5" style="stroke:#181818;stroke-width:0.5;" width="105.5996" x="461.5" y="373"/><text fill="#000000" font-family="sans-serif" font-size="14" lengthAdjust="spacing" textLength="85.5996" x="471.5" y="397.5332">CargaTrabajo</text></g><!--entity Persona--><g id="elem_Persona"><rect fill="#F2AC4E" height="37.6094" rx="2.5" ry="2.5" style="stroke:#181818;stroke-width:0.5;" width="72.1445" x="1116.5" y="373"/><text fill="#000000" font-family="sans-serif" font-size="14" lengthAdjust="spacing" textLength="52.1445" x="1126.5" y="397.5332">Persona</text></g><!--entity Proyecto--><g id="elem_Proyecto"><rect fill="#F2AC4E" height="37.6094" rx="2.5" ry="2.5" style="stroke:#181818;stroke-width:0.5;" width="75.248" x="1297" y="373"/><text fill="#000000" font-family="sans-serif" font-size="14" lengthAdjust="spacing" textLength="55.248" x="1307" y="397.5332">Proyecto</text></g><!--entity Recompensa--><g id="elem_Recompensa"><rect fill="#F2AC4E" height="37.6094" rx="2.5" ry="2.5" style="stroke:#181818;stroke-width:0.5;" width="102.4893" x="1474.5" y="373"/><text fill="#000000" font-family="sans-serif" font-size="14" lengthAdjust="spacing" textLength="82.4893" x="1484.5" y="397.5332">Recompensa</text></g><!--entity EstadoEntrada--><g id="elem_EstadoEntrada"><rect fill="#CDEBA5" height="37.6094" rx="2.5" ry="2.5" style="stroke:#181818;stroke-width:0.5;" width="220.7373" x="7" y="42"/><text fill="#000000" font-family="sans-serif" font-size="14" lengthAdjust="spacing" textLength="200.7373" x="17" y="66.5332">:PANEL_PRINCIPAL_ABIERTO</text></g><!--entity EstadoSalida--><g id="elem_EstadoSalida"><rect fill="#CDEBA5" height="37.6094" rx="2.5" ry="2.5" style="stroke:#181818;stroke-width:0.5;" width="304.7441" x="1807" y="158"/><text fill="#000000" font-family="sans-serif" font-size="14" lengthAdjust="spacing" textLength="284.7441" x="1817" y="182.5332">:OPCIONES_CARGA_TRABAJO_ABIERTAS</text></g><!--entity EditarCargaTrabajo--><g id="elem_EditarCargaTrabajo"><rect fill="#CDEBA5" height="37.6094" rx="2.5" ry="2.5" style="stroke:#181818;stroke-width:0.5;" width="232.4473" x="2147.5" y="158"/><text fill="#000000" font-family="sans-serif" font-size="14" lengthAdjust="spacing" textLength="212.4473" x="2157.5" y="182.5332">:Collaboration EditarCargaTrabajo</text></g><!--entity AbrirPanelPrincipal--><g id="elem_AbrirPanelPrincipal"><rect fill="#CDEBA5" height="37.6094" rx="2.5" ry="2.5" style="stroke:#181818;stroke-width:0.5;" width="229.3301" x="2415" y="158"/><text fill="#000000" font-family="sans-serif" font-size="14" lengthAdjust="spacing" textLength="209.3301" x="2425" y="182.5332">:Collaboration AbrirPanelPrincipal</text></g><!--link EstadoEntrada to PanelCargaTrabajoView--><g id="link_EstadoEntrada_PanelCargaTrabajoView"><path d="M228.29,61 C510.49,61 1245.94,61 1499.23,61 " fill="none" id="EstadoEntrada-to-PanelCargaTrabajoView" style="stroke:#181818;stroke-width:1;"/><polygon fill="#181818" points="1505.23,61,1496.23,57,1500.23,61,1496.23,65,1505.23,61" style="stroke:#181818;stroke-width:1;"/><text fill="#000000" font-family="sans-serif" font-size="13" lengthAdjust="spacing" textLength="169.0698" x="782.25" y="54.4951">abrirOpcionesCargaTrabajo()</text></g><!--link PanelCargaTrabajoView to CargaTrabajoController--><g id="link_PanelCargaTrabajoView_CargaTrabajoController"><path d="M1505.27,70.12 C1359.85,83.8 1081.5,110 1081.5,110 C1081.5,110 1081.5,128 1081.5,128 C1081.5,128 1100.5787,140.9005 1120.6887,154.4905 " fill="none" id="PanelCargaTrabajoView-to-CargaTrabajoController" style="stroke:#181818;stroke-width:1;"/><polygon fill="#181818" points="1125.66,157.85,1120.4427,149.4965,1121.5173,155.0504,1115.9634,156.1249,1125.66,157.85" style="stroke:#181818;stroke-width:1;"/><text fill="#000000" font-family="sans-serif" font-size="13" lengthAdjust="spacing" textLength="252.9033" x="1082.5" y="124.4951">obtenerResumenGlobal(coordinador, filtros)</text></g><!--link PanelCargaTrabajoView to CargaTrabajoController--><g id="link_PanelCargaTrabajoView_CargaTrabajoController"><path d="M1510.46,80.01 C1449.16,93.63 1375.5,110 1375.5,110 C1375.5,110 1339.5,128 1339.5,128 C1339.5,128 1281.5417,142.8785 1228.4717,156.4985 " fill="none" id="PanelCargaTrabajoView-to-CargaTrabajoController-1" style="stroke:#181818;stroke-width:1;"/><polygon fill="#181818" points="1222.66,157.99,1232.3718,159.6272,1227.503,156.7471,1230.3831,151.8783,1222.66,157.99" style="stroke:#181818;stroke-width:1;"/><text fill="#000000" font-family="sans-serif" font-size="13" lengthAdjust="spacing" textLength="171.2217" x="1376.5" y="124.4951">listarCargaPorPersona(filtros)</text></g><!--link PanelCargaTrabajoView to CargaTrabajoController--><g id="link_PanelCargaTrabajoView_CargaTrabajoController"><path d="M1580.84,80.03 C1569.3,99.58 1552.5,128 1552.5,128 C1552.5,128 1359.0472,151.2149 1241.8272,165.2849 " fill="none" id="PanelCargaTrabajoView-to-CargaTrabajoController-2" style="stroke:#181818;stroke-width:1;"/><polygon fill="#181818" points="1235.87,166,1245.2826,168.8989,1240.8344,165.4041,1244.3292,160.9559,1235.87,166" style="stroke:#181818;stroke-width:1;"/><text fill="#000000" font-family="sans-serif" font-size="13" lengthAdjust="spacing" textLength="181.3716" x="1563.5" y="124.4951">seleccionarPersona(idPersona)</text></g><!--link CargaTrabajoController to CargaTrabajoRepository--><g id="link_CargaTrabajoController_CargaTrabajoRepository"><path d="M1069.26,182.65 C853.43,194.69 292.5,226 292.5,226 C292.5,226 292.5,244 292.5,244 C292.5,244 362.3455,259.102 425.3355,272.722 " fill="none" id="CargaTrabajoController-to-CargaTrabajoRepository" style="stroke:#181818;stroke-width:1;"/><polygon fill="#181818" points="431.2,273.99,423.2487,268.1783,426.3129,272.9333,421.5579,275.9976,431.2,273.99" style="stroke:#181818;stroke-width:1;"/><text fill="#000000" font-family="sans-serif" font-size="13" lengthAdjust="spacing" textLength="177.0234" x="293.5" y="240.4951">obtenerResumenGlobal(filtros)</text></g><!--link CargaTrabajoController to CargaTrabajoRepository--><g id="link_CargaTrabajoController_CargaTrabajoRepository"><path d="M1069.36,184.23 C895.92,197.21 511.5,226 511.5,226 C511.5,226 511.5,244 511.5,244 C511.5,244 512.1455,254.2717 512.9955,267.8617 " fill="none" id="CargaTrabajoController-to-CargaTrabajoRepository-1" style="stroke:#181818;stroke-width:1;"/><polygon fill="#181818" points="513.37,273.85,516.8004,264.6179,513.0579,268.8598,508.816,265.1172,513.37,273.85" style="stroke:#181818;stroke-width:1;"/><text fill="#000000" font-family="sans-serif" font-size="13" lengthAdjust="spacing" textLength="192.9243" x="512.5" y="240.4951">obtenerDetallePorPersona(filtros)</text></g><!--link CargaTrabajoController to CargaTrabajoRepository--><g id="link_CargaTrabajoController_CargaTrabajoRepository"><path d="M1069.28,188.65 C958.8,202.79 777.5,226 777.5,226 C777.5,226 709.5,244 709.5,244 C709.5,244 648.8261,258.9359 593.4961,272.5559 " fill="none" id="CargaTrabajoController-to-CargaTrabajoRepository-2" style="stroke:#181818;stroke-width:1;"/><polygon fill="#181818" points="587.67,273.99,597.3652,275.7228,592.5251,272.7949,595.453,267.9547,587.67,273.99" style="stroke:#181818;stroke-width:1;"/><text fill="#000000" font-family="sans-serif" font-size="13" lengthAdjust="spacing" textLength="362.7368" x="778.5" y="240.4951">sugerirInvestigadoresDocentesConMenorCarga(proyectoLibre)</text></g><!--link CargaTrabajoController to ProyectoRepository--><g id="link_CargaTrabajoController_ProyectoRepository"><path d="M1206.91,196.01 C1248.05,209.63 1297.5,226 1297.5,226 C1297.5,226 1310.4959,249.1863 1321.4559,268.7363 " fill="none" id="CargaTrabajoController-to-ProyectoRepository" style="stroke:#181818;stroke-width:1;"/><polygon fill="#181818" points="1324.39,273.97,1323.478,264.1635,1321.9449,269.6086,1316.4998,268.0755,1324.39,273.97" style="stroke:#181818;stroke-width:1;"/><text fill="#000000" font-family="sans-serif" font-size="13" lengthAdjust="spacing" textLength="145.958" x="1307.5" y="240.4951">obtenerProyectosLibres()</text></g><!--link CargaTrabajoController to RecompensaRepository--><g id="link_CargaTrabajoController_RecompensaRepository"><path d="M1235.71,190.93 C1327.23,205.14 1461.5,226 1461.5,226 C1461.5,226 1484.884,250.1118 1503.834,269.6618 " fill="none" id="CargaTrabajoController-to-RecompensaRepository" style="stroke:#181818;stroke-width:1;"/><polygon fill="#181818" points="1508.01,273.97,1504.6181,264.7236,1504.53,270.3798,1498.8738,270.2917,1508.01,273.97" style="stroke:#181818;stroke-width:1;"/><text fill="#000000" font-family="sans-serif" font-size="13" lengthAdjust="spacing" textLength="249.3042" x="1479.5" y="240.4951">obtenerCompensacionesPendientes(filtros)</text></g><!--link CargaTrabajoController to PersonaRepository--><g id="link_CargaTrabajoController_PersonaRepository"><path d="M1151.37,196.15 C1150.52,209.74 1149.5,226 1149.5,226 C1149.5,226 1149.5,244 1149.5,244 C1149.5,244 1150.1455,254.2717 1150.9955,267.8617 " fill="none" id="CargaTrabajoController-to-PersonaRepository" style="stroke:#181818;stroke-width:1;"/><polygon fill="#181818" points="1151.37,273.85,1154.8004,264.6179,1151.0579,268.8598,1146.816,265.1172,1151.37,273.85" style="stroke:#181818;stroke-width:1;"/><text fill="#000000" font-family="sans-serif" font-size="13" lengthAdjust="spacing" textLength="142.3589" x="1150.5" y="240.4951">obtenerPorId(idPersona)</text></g><!--link CargaTrabajoRepository to CargaTrabajo--><g id="link_CargaTrabajoRepository_CargaTrabajo"><path d="M514.5,312.24 C514.5,329.59 514.5,355.52 514.5,372.84 " fill="none" id="CargaTrabajoRepository-CargaTrabajo" style="stroke:#181818;stroke-width:1;"/></g><!--link PersonaRepository to Persona--><g id="link_PersonaRepository_Persona"><path d="M1152.5,312.24 C1152.5,329.59 1152.5,355.52 1152.5,372.84 " fill="none" id="PersonaRepository-Persona" style="stroke:#181818;stroke-width:1;"/></g><!--link ProyectoRepository to Proyecto--><g id="link_ProyectoRepository_Proyecto"><path d="M1334.5,312.24 C1334.5,329.59 1334.5,355.52 1334.5,372.84 " fill="none" id="ProyectoRepository-Proyecto" style="stroke:#181818;stroke-width:1;"/></g><!--link RecompensaRepository to Recompensa--><g id="link_RecompensaRepository_Recompensa"><path d="M1525.5,312.24 C1525.5,329.59 1525.5,355.52 1525.5,372.84 " fill="none" id="RecompensaRepository-Recompensa" style="stroke:#181818;stroke-width:1;"/></g><!--link PanelCargaTrabajoView to EstadoSalida--><g id="link_PanelCargaTrabajoView_EstadoSalida"><path d="M1663.16,80.01 C1717.36,93.63 1782.5,110 1782.5,110 C1782.5,110 1853.1085,136.3227 1905.5085,155.8727 " fill="none" id="PanelCargaTrabajoView-to-EstadoSalida" style="stroke:#181818;stroke-width:1;stroke-dasharray:7.0,7.0;"/><polygon fill="#181818" points="1911.13,157.97,1904.096,151.0763,1906.4454,156.2222,1901.2995,158.5717,1911.13,157.97" style="stroke:#181818;stroke-width:1;"/><text fill="#000000" font-family="sans-serif" font-size="13" lengthAdjust="spacing" textLength="187.8716" x="1830.5" y="124.4951">opcionesCargaTrabajoAbiertas()</text></g><!--link PanelCargaTrabajoView to EditarCargaTrabajo--><g id="link_PanelCargaTrabajoView_EditarCargaTrabajo"><path d="M1677.7,71.51 C1804.52,85.51 2026.5,110 2026.5,110 C2026.5,110 2122.7901,136.8097 2192.9601,156.3597 " fill="none" id="PanelCargaTrabajoView-to-EditarCargaTrabajo" style="stroke:#181818;stroke-width:1;stroke-dasharray:7.0,7.0;"/><polygon fill="#181818" points="2198.74,157.97,2191.1437,151.7013,2193.9234,156.6281,2188.9967,159.4078,2198.74,157.97" style="stroke:#181818;stroke-width:1;"/><text fill="#000000" font-family="sans-serif" font-size="13" lengthAdjust="spacing" textLength="179.2007" x="2090.5" y="124.4951">editarCargaTrabajo(idPersona)</text></g><!--link PanelCargaTrabajoView to AbrirPanelPrincipal--><g id="link_PanelCargaTrabajoView_AbrirPanelPrincipal"><path d="M1677.81,68.03 C1862.33,80.92 2278.5,110 2278.5,110 C2278.5,110 2380.7975,136.8934 2455.1075,156.4434 " fill="none" id="PanelCargaTrabajoView-to-AbrirPanelPrincipal" style="stroke:#181818;stroke-width:1;stroke-dasharray:7.0,7.0;"/><polygon fill="#181818" points="2460.91,157.97,2453.2239,151.8118,2456.0745,156.6979,2451.1885,159.5485,2460.91,157.97" style="stroke:#181818;stroke-width:1;"/><text fill="#000000" font-family="sans-serif" font-size="13" lengthAdjust="spacing" textLength="117.7681" x="2346.5" y="124.4951">abrirPanelPrincipal()</text></g><!--SRC=[fLJHRfim57tdAwpi9P6MFbHhjUQXaaDenPGbY4HzZIvmXxmwDhBTJT6qVvyX9271aAhZ2QwFZy_rFHpzoaG12hQ4Cu5cLo0f9D-L7vwdC3KWSexaapyBflIE32OHNGJpJHI72p-Cw7n3fs4GhvS30fe4sa0c0s4KPE0LaBv2ZWGInTIoI9aKg7rGEQmL9F1Jbbi6dQl3qO3yyOXz6ZBkRn-2fmSIWK3U1Bym_7s9JUwIxFuhQS9yQRL9pb5TWfzkgVybE0F7M4ZDZ5Ix3d24Iai1rt5AxcpnEc6CgTmMAFHrpgRGVdbNH5sLulrr6s4P-U5o4QmsFesVwMOTqodzjgpzG5SDGwo0C-i75ublXm69L63i_4cGCGEgsTgUfLL-1nSjVLNv959CfAm0Nf4vwfvtPbmoLkD7jyKcfCUkdkVSGyQPfNExS49aOb2WYb6_RL4ySva07wPIgem9Aqbz9ZyOjsWzwcBl8UTC7oukaghsm_0_23LoJClUuSZ6ilfjvBbtjGXFtkve_oZmuuGpD62nhgvxIDi_wf7miAJdB56eXnyIfzzojFO9nI_KXkNbV57FP8h2M3D9yHs5t8zhMDJdLSVr7kOAZQDilrxQ-pL2aR7giFTTnsM-dMv3gZ3h6lq9RrdEWwh5M28EETM-_Mhra5EkFaj08wdSXhwvUJmB8jk5u_-b2KDbe9ni3qqhYIO4MxNcnNHpEOAeZfVpeXNq3m00]--></g></svg>