<svg xmlns="http://www.w3.org/2000/svg" xmlns:xlink="http://www.w3.org/1999/xlink" contentStyleType="text/css" data-diagram-type="STATE" height="1022px" preserveAspectRatio="none" style="width:655px;height:1022px;background:#FFFFFF;" version="1.1" viewBox="0 0 655 1022" width="655px" zoomAndPan="magnify"><?plantuml 1.2026.6?><defs/><g><g class="entity" data-qualified-name="in1" data-source-line="3" id="ent0001"><rect fill="#F1F1F1" height="50" rx="12.5" ry="12.5" style="stroke:#181818;stroke-width:0.5;" width="202.0547" x="172" y="7"/><line style="stroke:#181818;stroke-width:0.5;" x1="172" x2="374.0547" y1="34.6094" y2="34.6094"/><text fill="#000000" font-family="sans-serif" font-size="14" lengthAdjust="spacing" textLength="182.0547" x="182" y="26.5332">ENTREGABLES_ABIERTOS</text></g><g class="entity" data-qualified-name="abrirEntregable" data-source-line="6" id="ent0002"><path d="M86,118 L460,118 A12.5,12.5 0 0 1 472.5,130.5 L472.5,145.6094 L73.5,145.6094 L73.5,130.5 A12.5,12.5 0 0 1 86,118" fill="#F1F1F1"/><rect fill="none" height="743.6094" rx="12.5" ry="12.5" style="stroke:#181818;stroke-width:0.5;" width="399" x="73.5" y="118"/><line style="stroke:#181818;stroke-width:0.5;" x1="73.5" x2="472.5" y1="145.6094" y2="145.6094"/><text fill="#000000" font-family="sans-serif" font-size="14" lengthAdjust="spacing" textLength="105.0479" x="220.4761" y="137.5332">abrirEntregable()</text><g class="entity" data-qualified-name="abrirEntregable.SolicitandoApertura" data-source-line="8" id="ent0003"><rect fill="#F1F1F1" height="50" rx="12.5" ry="12.5" style="stroke:#181818;stroke-width:0.5;" width="50" x="85.5" y="248.6094"/><line style="stroke:#181818;stroke-width:0.5;" x1="85.5" x2="135.5" y1="276.2188" y2="276.2188"/><text fill="#000000" font-family="sans-serif" font-size="14" lengthAdjust="spacing" textLength="3.8896" x="108.5552" y="268.1426">&#160;</text></g><g class="entity" data-qualified-name="abrirEntregable.MostrandoListado" data-source-line="9" id="ent0004"><rect fill="#F1F1F1" height="50" rx="12.5" ry="12.5" style="stroke:#181818;stroke-width:0.5;" width="50" x="85.5" y="582.6094"/><line style="stroke:#181818;stroke-width:0.5;" x1="85.5" x2="135.5" y1="610.2188" y2="610.2188"/><text fill="#000000" font-family="sans-serif" font-size="14" lengthAdjust="spacing" textLength="3.8896" x="108.5552" y="602.1426">&#160;</text></g><g class="entity" data-qualified-name="abrirEntregable.SolicitandoEntregable" data-source-line="10" id="ent0005"><rect fill="#F1F1F1" height="50" rx="12.5" ry="12.5" style="stroke:#181818;stroke-width:0.5;" width="50" x="85.5" y="704.6094"/><line style="stroke:#181818;stroke-width:0.5;" x1="85.5" x2="135.5" y1="732.2188" y2="732.2188"/><text fill="#000000" font-family="sans-serif" font-size="14" lengthAdjust="spacing" textLength="3.8896" x="108.5552" y="724.1426">&#160;</text></g><g class="start_entity" data-qualified-name="abrirEntregable..start.abrirEntregable" data-source-line="12" id="ent0007"><ellipse cx="110.5" cy="166.6094" fill="#222222" rx="10" ry="10" style="stroke:#222222;stroke-width:1;"/></g><g class="end_entity" data-qualified-name="abrirEntregable..end.abrirEntregable" data-source-line="40" id="ent0011"><ellipse cx="110.5" cy="837.6094" fill="none" rx="11" ry="11" style="stroke:#222222;stroke-width:1;"/><ellipse cx="110.5" cy="837.6094" fill="#222222" rx="6" ry="6" style="stroke:#222222;stroke-width:1;"/></g><!--link *start*abrirEntregable to SolicitandoApertura--><g class="link" data-entity-1="ent0007" data-entity-2="ent0003" data-link-type="dependency" data-source-line="12" id="lnk8"><path d="M110.5,176.9294 C110.5,192.7894 110.5,220.5194 110.5,243.2494" fill="none" id="*start*abrirEntregable-to-SolicitandoApertura" style="stroke:#008000;stroke-width:1;"/><polygon fill="#008000" points="110.5,248.2494,114.5,239.2494,110.5,243.2494,106.5,239.2494,110.5,248.2494" style="stroke:#008000;stroke-width:1;stroke-linejoin:miter;stroke-miterlimit:10;"/><path d="M115.5,199.6094 L115.5,225.6094 L369.5,225.6094 L369.5,209.6094 L359.5,199.6094 L115.5,199.6094" fill="#FEFFDD" style="stroke:#181818;stroke-width:0.5;"/><path d="M359.5,199.6094 L359.5,209.6094 L369.5,209.6094 L359.5,199.6094" fill="#FEFFDD" style="stroke:#181818;stroke-width:0.5;"/><text fill="#000000" font-family="sans-serif" font-size="13" font-weight="700" lengthAdjust="spacing" textLength="77.2954" x="121.5" y="218.1045">Investigador</text><text fill="#000000" font-family="sans-serif" font-size="13" lengthAdjust="spacing" textLength="152.4771" x="202.4072" y="218.1045">solicita abrir un entregable</text></g><!--link SolicitandoApertura to MostrandoListado--><g class="link" data-entity-1="ent0003" data-entity-2="ent0004" data-link-type="dependency" data-source-line="17" id="lnk9"><path d="M110.5,298.7494 C110.5,360.0794 110.5,516.3294 110.5,577.5594" fill="none" id="SolicitandoApertura-to-MostrandoListado" style="stroke:#008000;stroke-width:1;"/><polygon fill="#008000" points="110.5,582.5594,114.5,573.5594,110.5,577.5594,106.5,573.5594,110.5,582.5594" style="stroke:#008000;stroke-width:1;stroke-linejoin:miter;stroke-miterlimit:10;"/><path d="M115.5,321.6094 L115.5,559.6094 L448.5,559.6094 L448.5,331.6094 L438.5,321.6094 L115.5,321.6094" fill="#FEFFDD" style="stroke:#181818;stroke-width:0.5;"/><path d="M438.5,321.6094 L438.5,331.6094 L448.5,331.6094 L438.5,321.6094" fill="#FEFFDD" style="stroke:#181818;stroke-width:0.5;"/><text fill="#000000" font-family="sans-serif" font-size="13" font-weight="700" lengthAdjust="spacing" textLength="49.8608" x="121.5" y="340.1045">Sistema</text><text fill="#000000" font-family="sans-serif" font-size="13" lengthAdjust="spacing" textLength="258.7114" x="174.9727" y="340.1045">presenta y visualiza el listado de entregables</text><text fill="#000000" font-family="sans-serif" font-size="13" font-weight="700" lengthAdjust="spacing" textLength="49.8608" x="121.5" y="356.4561">Sistema</text><text fill="#000000" font-family="sans-serif" font-size="13" lengthAdjust="spacing" textLength="121.3799" x="174.9727" y="356.4561">muestra informaci&#243;n:</text><text fill="#000000" font-family="sans-serif" font-size="13" lengthAdjust="spacing" textLength="21.8931" x="121.5" y="372.8076">&#8226; ID</text><text fill="#000000" font-family="sans-serif" font-size="13" lengthAdjust="spacing" textLength="41.4058" x="121.5" y="389.1592">&#8226; T&#237;tulo</text><text fill="#000000" font-family="sans-serif" font-size="13" lengthAdjust="spacing" textLength="34.1821" x="121.5" y="405.5107">&#8226; Tipo</text><text fill="#000000" font-family="sans-serif" font-size="13" lengthAdjust="spacing" textLength="79.6948" x="121.5" y="421.8623">&#8226; Fecha l&#237;mite</text><text fill="#000000" font-family="sans-serif" font-size="13" lengthAdjust="spacing" textLength="49.3657" x="121.5" y="438.2139">&#8226; Estado</text><text fill="#000000" font-family="sans-serif" font-size="13" lengthAdjust="spacing" textLength="136.043" x="121.5" y="454.5654">&#8226; Descripci&#243;n (si aplica)</text><text fill="#000000" font-family="sans-serif" font-size="13" lengthAdjust="spacing" textLength="157.7393" x="121.5" y="470.917">&#8226; Archivo adjunto (si aplica)</text><text fill="#000000" font-family="sans-serif" font-size="13" lengthAdjust="spacing" textLength="3.6118" x="121.5" y="487.2686">&#160;</text><text fill="#000000" font-family="sans-serif" font-size="13" font-weight="700" lengthAdjust="spacing" textLength="49.8608" x="121.5" y="503.6201">Sistema</text><text fill="#000000" font-family="sans-serif" font-size="13" lengthAdjust="spacing" textLength="94.6372" x="174.9727" y="503.6201">permite solicitar:</text><text fill="#000000" font-family="sans-serif" font-size="13" lengthAdjust="spacing" textLength="107.9038" x="121.5" y="519.9717">&#8226; Editar entregable</text><text fill="#000000" font-family="sans-serif" font-size="13" lengthAdjust="spacing" textLength="120.8975" x="121.5" y="536.3232">&#8226; Eliminar entregable</text><text fill="#000000" font-family="sans-serif" font-size="13" lengthAdjust="spacing" textLength="128.1338" x="121.5" y="552.6748">&#8226; Volver a entregables</text></g><!--link MostrandoListado to SolicitandoEntregable--><g class="link" data-entity-1="ent0004" data-entity-2="ent0005" data-link-type="dependency" data-source-line="35" id="lnk10"><path d="M110.5,632.8894 C110.5,653.7094 110.5,678.5494 110.5,699.3594" fill="none" id="MostrandoListado-to-SolicitandoEntregable" style="stroke:#008000;stroke-width:1;"/><polygon fill="#008000" points="110.5,704.3594,114.5,695.3594,110.5,699.3594,106.5,695.3594,110.5,704.3594" style="stroke:#008000;stroke-width:1;stroke-linejoin:miter;stroke-miterlimit:10;"/><path d="M115.5,655.6094 L115.5,681.6094 L431.5,681.6094 L431.5,665.6094 L421.5,655.6094 L115.5,655.6094" fill="#FEFFDD" style="stroke:#181818;stroke-width:0.5;"/><path d="M421.5,655.6094 L421.5,665.6094 L431.5,665.6094 L421.5,655.6094" fill="#FEFFDD" style="stroke:#181818;stroke-width:0.5;"/><text fill="#000000" font-family="sans-serif" font-size="13" font-weight="700" lengthAdjust="spacing" textLength="77.2954" x="121.5" y="674.1045">Investigador</text><text fill="#000000" font-family="sans-serif" font-size="13" lengthAdjust="spacing" textLength="214.627" x="202.4072" y="674.1045">solicita abrir un entregable del listado</text></g><!--link SolicitandoEntregable to *end*abrirEntregable--><g class="link" data-entity-1="ent0005" data-entity-2="ent0011" data-link-type="dependency" data-source-line="40" id="lnk12"><path d="M110.5,754.6594 C110.5,777.2594 110.5,804.9894 110.5,821.4094" fill="none" id="SolicitandoEntregable-to-*end*abrirEntregable" style="stroke:#008000;stroke-width:1;"/><polygon fill="#008000" points="110.5,826.4094,114.5,817.4094,110.5,821.4094,106.5,817.4094,110.5,826.4094" style="stroke:#008000;stroke-width:1;stroke-linejoin:miter;stroke-miterlimit:10;"/><path d="M115.5,777.6094 L115.5,803.6094 L440.5,803.6094 L440.5,787.6094 L430.5,777.6094 L115.5,777.6094" fill="#FEFFDD" style="stroke:#181818;stroke-width:0.5;"/><path d="M430.5,777.6094 L430.5,787.6094 L440.5,787.6094 L430.5,777.6094" fill="#FEFFDD" style="stroke:#181818;stroke-width:0.5;"/><text fill="#000000" font-family="sans-serif" font-size="13" font-weight="700" lengthAdjust="spacing" textLength="49.8608" x="121.5" y="796.1045">Sistema</text><text fill="#000000" font-family="sans-serif" font-size="13" lengthAdjust="spacing" textLength="250.7578" x="174.9727" y="796.1045">presenta y visualiza el entregable solicitado</text></g></g><g class="entity" data-qualified-name="ENTREGABLE_ABIERTO" data-source-line="46" id="ent0013"><rect fill="#F1F1F1" height="50" rx="12.5" ry="12.5" style="stroke:#181818;stroke-width:0.5;" width="183.3789" x="36.5" y="958"/><line style="stroke:#181818;stroke-width:0.5;" x1="36.5" x2="219.8789" y1="985.6094" y2="985.6094"/><text fill="#000000" font-family="sans-serif" font-size="14" lengthAdjust="spacing" textLength="163.3789" x="46.5" y="977.5332">ENTREGABLE_ABIERTO</text></g><g class="entity" data-qualified-name="ENTREGABLES_ABIERTOS" data-source-line="56" id="ent0016"><rect fill="#F1F1F1" height="50" rx="12.5" ry="12.5" style="stroke:#181818;stroke-width:0.5;" width="202.0547" x="317" y="958"/><line style="stroke:#181818;stroke-width:0.5;" x1="317" x2="519.0547" y1="985.6094" y2="985.6094"/><text fill="#000000" font-family="sans-serif" font-size="14" lengthAdjust="spacing" textLength="182.0547" x="327" y="977.5332">ENTREGABLES_ABIERTOS</text></g><!--link in1 to abrirEntregable--><g class="link" data-entity-1="ent0001" data-entity-2="ent0002" data-link-type="dependency" data-source-line="4" id="lnk6"><path d="M273,57.19 C273,72.11 273,88.11 273,112.9" fill="none" id="in1-to-abrirEntregable" style="stroke:#008000;stroke-width:1;"/><polygon fill="#008000" points="273,117.9,277,108.9,273,112.9,269,108.9,273,117.9" style="stroke:#008000;stroke-width:1;stroke-linejoin:miter;stroke-miterlimit:10;"/></g><!--link abrirEntregable to ENTREGABLE_ABIERTO--><g class="link" data-entity-1="ent0002" data-entity-2="ent0013" data-link-type="dependency" data-source-line="46" id="lnk14"><path d="M73.38,790.81 C34.75,848.83 6,892 6,892 C6,892 6,928 6,928 C6,928 36.3675,941.447 68.8475,955.817" fill="none" id="abrirEntregable-to-ENTREGABLE_ABIERTO" style="stroke:#008000;stroke-width:1;"/><polygon fill="#008000" points="73.42,957.84,66.8079,950.5406,68.8475,955.817,63.5712,957.8566,73.42,957.84" style="stroke:#008000;stroke-width:1;stroke-linejoin:miter;stroke-miterlimit:10;"/><path d="M11,897 L11,923 L138,923 L138,907 L128,897 L11,897" fill="#FEFFDD" style="stroke:#181818;stroke-width:0.5;"/><path d="M128,897 L128,907 L138,907 L128,897" fill="#FEFFDD" style="stroke:#181818;stroke-width:0.5;"/><text fill="#000000" font-family="sans-serif" font-size="13" lengthAdjust="spacing" textLength="106.2407" x="17" y="915.4951">Entregable abierto</text></g><!--link abrirEntregable to ENTREGABLE_ABIERTO--><g class="link" data-entity-1="ent0002" data-entity-2="ent0013" data-link-type="dependency" data-source-line="51" id="lnk15"><path d="M166,862.1 C154.57,901.74 147,928 147,928 C147,928 143.2207,938.7538 138.1607,953.1238" fill="none" id="abrirEntregable-to-ENTREGABLE_ABIERTO-1" style="stroke:#008000;stroke-width:1;"/><polygon fill="#008000" points="136.5,957.84,143.2621,950.6794,138.1607,953.1238,135.7163,948.0224,136.5,957.84" style="stroke:#008000;stroke-width:1;stroke-linejoin:miter;stroke-miterlimit:10;"/><path d="M161,897 L161,923 L286,923 L286,907 L276,897 L161,897" fill="#FEFFDD" style="stroke:#181818;stroke-width:0.5;"/><path d="M276,897 L276,907 L286,907 L276,897" fill="#FEFFDD" style="stroke:#181818;stroke-width:0.5;"/><text fill="#000000" font-family="sans-serif" font-size="13" lengthAdjust="spacing" textLength="104.0571" x="167" y="915.4951">editarEntregable()</text></g><!--link abrirEntregable to ENTREGABLES_ABIERTOS--><g class="link" data-entity-1="ent0002" data-entity-2="ent0016" data-link-type="dependency" data-source-line="56" id="lnk17"><path d="M345.18,862.1 C352.89,901.74 358,928 358,928 C358,928 371.4621,940.1267 387.4421,954.4967" fill="none" id="abrirEntregable-to-ENTREGABLES_ABIERTOS" style="stroke:#008000;stroke-width:1;"/><polygon fill="#008000" points="391.16,957.84,387.1425,948.8478,387.4421,954.4967,381.7932,954.7964,391.16,957.84" style="stroke:#008000;stroke-width:1;stroke-linejoin:miter;stroke-miterlimit:10;"/><path d="M363,897 L363,923 L501,923 L501,907 L491,897 L363,897" fill="#FEFFDD" style="stroke:#181818;stroke-width:0.5;"/><path d="M491,897 L491,907 L501,907 L491,897" fill="#FEFFDD" style="stroke:#181818;stroke-width:0.5;"/><text fill="#000000" font-family="sans-serif" font-size="13" lengthAdjust="spacing" textLength="117.0508" x="369" y="915.4951">eliminarEntregable()</text></g><!--link abrirEntregable to ENTREGABLES_ABIERTOS--><g class="link" data-entity-1="ent0002" data-entity-2="ent0016" data-link-type="dependency" data-source-line="61" id="lnk18"><path d="M472.71,828.9 C495.07,866.74 510,892 510,892 C510,892 510,928 510,928 C510,928 487.9624,940.9396 463.4724,955.3096" fill="none" id="abrirEntregable-to-ENTREGABLES_ABIERTOS-1" style="stroke:#008000;stroke-width:1;"/><polygon fill="#008000" points="459.16,957.84,468.9467,956.7352,463.4724,955.3096,464.898,949.8353,459.16,957.84" style="stroke:#008000;stroke-width:1;stroke-linejoin:miter;stroke-miterlimit:10;"/><path d="M515,897 L515,923 L640,923 L640,907 L630,897 L515,897" fill="#FEFFDD" style="stroke:#181818;stroke-width:0.5;"/><path d="M630,897 L630,907 L640,907 L630,897" fill="#FEFFDD" style="stroke:#181818;stroke-width:0.5;"/><text fill="#000000" font-family="sans-serif" font-size="13" lengthAdjust="spacing" textLength="104.0444" x="521" y="915.4951">abrirEntregables()</text></g><?plantuml-src jLJ1Qjmm4BthAuRj9Ic4qci82nlYXeKqXUpIImXbR4ytqyYIaUI5RIdqMthFgP-mVz8lgQHDRDbn0c6fVV6CPjvxencFlMDLey4A92jocvgWrd8J326iGqV0wZsWXKbskRpApcUd5zdYo-nqdbqjFoqc8fmUNRzP6I9rSpG5p0sRJ3b3Aynb2p9mHy21x-1m0Z-40F_iSYR-zN4BBRbWXwhKivgCQmm-3VgehJCXv8AzlzGlmgJoGjprsvjU3SynAktXj0fNTHST9_bqhjPa7Qyyfpbvbq_1FYJlIeP60NLq8ObK6P5st2DSFIsZXOq9MVXpgZ1gg0rPpugmWJNR1YL_Ho3fuoC6b9I8icC8LKE1rpV_gpOL5hpzeuvZuDzVls5-rdukj_UkaRgpkUwC3rJS8iZjVSMEMc_M5HBCCxA5uJfIm85bmDfV2Hws0JDJtF9Q0vRV6kLqBsQqUZA1h-s4wOHdPR277OadaYjMusUVjLoJ0NnoQVrM3blrt4nbVOQzfygtistjonEM_82fDZ__UurL8kLHvr39Jo66Ao1LqEsMnzKYUcBIpP6p_qsqw8hS1vZYGAHBwDN0tJOSG3zCr7y17sJR5FeV?></g></svg>