<svg xmlns="http://www.w3.org/2000/svg" xmlns:xlink="http://www.w3.org/1999/xlink" contentStyleType="text/css" height="1232px" preserveAspectRatio="none" style="width:1768px;height:1232px;background:#FFFFFF;" version="1.1" viewBox="0 0 1768 1232" width="1768px" zoomAndPan="magnify"><title>Diagrama de secuencia - Editar carga de trabajo propia del Investigador</title><defs/><g><text fill="#000000" font-family="sans-serif" font-size="14" font-weight="bold" lengthAdjust="spacing" textLength="477.709" x="646.3135" y="29.5332">Diagrama de secuencia - Editar carga de trabajo propia del Investigador</text><rect fill="#FFFFFF" height="986.8672" style="stroke:#181818;stroke-width:1;" width="10" x="401.5713" y="153.5703"/><rect fill="#FFFFFF" height="597.1641" style="stroke:#181818;stroke-width:1;" width="10" x="653.061" y="347.6797"/><rect fill="#FFFFFF" height="55.7031" style="stroke:#181818;stroke-width:1;" width="10" x="932.8843" y="378.0313"/><rect fill="#FFFFFF" height="434.0547" style="stroke:#181818;stroke-width:1;" width="10" x="1067.77" y="464.0859"/><rect fill="#FFFFFF" height="177.7578" style="stroke:#181818;stroke-width:1;" width="10" x="1479.6714" y="537.7891"/><rect fill="#FFFFFF" height="30.3516" style="stroke:#181818;stroke-width:1;" width="10" x="1654.6328" y="771.25"/><rect fill="none" height="740.4063" style="stroke:#000000;stroke-width:1.5;" width="1751.3359" x="10" y="393.0313"/><rect fill="none" height="138.2422" style="stroke:#000000;stroke-width:1.5;" width="761.707" x="989.6289" y="730.5469"/><line style="stroke:#181818;stroke-width:0.5;stroke-dasharray:5.0,5.0;" x1="61" x2="61" y1="121.2188" y2="1150.4375"/><line style="stroke:#181818;stroke-width:0.5;stroke-dasharray:5.0,5.0;" x1="405.9199" x2="405.9199" y1="121.2188" y2="1150.4375"/><line style="stroke:#181818;stroke-width:0.5;stroke-dasharray:5.0,5.0;" x1="657.9165" x2="657.9165" y1="121.2188" y2="1150.4375"/><line style="stroke:#181818;stroke-width:0.5;stroke-dasharray:5.0,5.0;" x1="937.1396" x2="937.1396" y1="121.2188" y2="1150.4375"/><line style="stroke:#181818;stroke-width:0.5;stroke-dasharray:5.0,5.0;" x1="1072.6289" x2="1072.6289" y1="121.2188" y2="1150.4375"/><line style="stroke:#181818;stroke-width:0.5;stroke-dasharray:5.0,5.0;" x1="1484.4131" x2="1484.4131" y1="121.2188" y2="1150.4375"/><line style="stroke:#181818;stroke-width:0.5;stroke-dasharray:5.0,5.0;" x1="1658.9297" x2="1658.9297" y1="121.2188" y2="1150.4375"/><text fill="#000000" font-family="sans-serif" font-size="14" lengthAdjust="spacing" textLength="76.2686" x="20" y="118.1426">Investigador</text><ellipse cx="61.1343" cy="52.1094" fill="#E2E2F0" rx="8" ry="8" style="stroke:#181818;stroke-width:0.5;"/><path d="M61.1343,60.1094 L61.1343,87.1094 M48.1343,68.1094 L74.1343,68.1094 M61.1343,87.1094 L48.1343,102.1094 M61.1343,87.1094 L74.1343,102.1094 " fill="none" style="stroke:#181818;stroke-width:0.5;"/><text fill="#000000" font-family="sans-serif" font-size="14" lengthAdjust="spacing" textLength="76.2686" x="20" y="1163.9707">Investigador</text><ellipse cx="61.1343" cy="1175.5469" fill="#E2E2F0" rx="8" ry="8" style="stroke:#181818;stroke-width:0.5;"/><path d="M61.1343,1183.5469 L61.1343,1210.5469 M48.1343,1191.5469 L74.1343,1191.5469 M61.1343,1210.5469 L48.1343,1225.5469 M61.1343,1210.5469 L74.1343,1225.5469 " fill="none" style="stroke:#181818;stroke-width:0.5;"/><rect fill="#E2E2F0" height="49.2188" rx="2.5" ry="2.5" style="stroke:#181818;stroke-width:0.5;" width="209.3027" x="301.9199" y="71"/><text fill="#000000" font-family="sans-serif" font-size="14" lengthAdjust="spacing" textLength="195.3027" x="308.9199" y="92.5332">EditarCargaTrabajoPropiaForm</text><text fill="#000000" font-family="sans-serif" font-size="14" lengthAdjust="spacing" textLength="45.8965" x="383.623" y="110.1426">(React)</text><rect fill="#E2E2F0" height="49.2188" rx="2.5" ry="2.5" style="stroke:#181818;stroke-width:0.5;" width="209.3027" x="301.9199" y="1149.4375"/><text fill="#000000" font-family="sans-serif" font-size="14" lengthAdjust="spacing" textLength="195.3027" x="308.9199" y="1170.9707">EditarCargaTrabajoPropiaForm</text><text fill="#000000" font-family="sans-serif" font-size="14" lengthAdjust="spacing" textLength="45.8965" x="383.623" y="1188.5801">(React)</text><rect fill="#E2E2F0" height="49.2188" rx="2.5" ry="2.5" style="stroke:#181818;stroke-width:0.5;" width="160.2891" x="577.9165" y="71"/><text fill="#000000" font-family="sans-serif" font-size="14" lengthAdjust="spacing" textLength="146.2891" x="584.9165" y="92.5332">CargaTrabajoController</text><text fill="#000000" font-family="sans-serif" font-size="14" lengthAdjust="spacing" textLength="82.4824" x="616.8198" y="110.1426">(Spring Boot)</text><rect fill="#E2E2F0" height="49.2188" rx="2.5" ry="2.5" style="stroke:#181818;stroke-width:0.5;" width="160.2891" x="577.9165" y="1149.4375"/><text fill="#000000" font-family="sans-serif" font-size="14" lengthAdjust="spacing" textLength="146.2891" x="584.9165" y="1170.9707">CargaTrabajoController</text><text fill="#000000" font-family="sans-serif" font-size="14" lengthAdjust="spacing" textLength="82.4824" x="616.8198" y="1188.5801">(Spring Boot)</text><rect fill="#E2E2F0" height="31.6094" rx="2.5" ry="2.5" style="stroke:#181818;stroke-width:0.5;" width="103.4893" x="886.1396" y="88.6094"/><text fill="#000000" font-family="sans-serif" font-size="14" lengthAdjust="spacing" textLength="89.4893" x="893.1396" y="110.1426">SesionService</text><rect fill="#E2E2F0" height="31.6094" rx="2.5" ry="2.5" style="stroke:#181818;stroke-width:0.5;" width="103.4893" x="886.1396" y="1149.4375"/><text fill="#000000" font-family="sans-serif" font-size="14" lengthAdjust="spacing" textLength="89.4893" x="893.1396" y="1170.9707">SesionService</text><rect fill="#E2E2F0" height="31.6094" rx="2.5" ry="2.5" style="stroke:#181818;stroke-width:0.5;" width="146.2822" x="999.6289" y="88.6094"/><text fill="#000000" font-family="sans-serif" font-size="14" lengthAdjust="spacing" textLength="132.2822" x="1006.6289" y="110.1426">CargaTrabajoService</text><rect fill="#E2E2F0" height="31.6094" rx="2.5" ry="2.5" style="stroke:#181818;stroke-width:0.5;" width="146.2822" x="999.6289" y="1149.4375"/><text fill="#000000" font-family="sans-serif" font-size="14" lengthAdjust="spacing" textLength="132.2822" x="1006.6289" y="1170.9707">CargaTrabajoService</text><rect fill="#E2E2F0" height="31.6094" rx="2.5" ry="2.5" style="stroke:#181818;stroke-width:0.5;" width="166.5166" x="1401.4131" y="88.6094"/><text fill="#000000" font-family="sans-serif" font-size="14" lengthAdjust="spacing" textLength="152.5166" x="1408.4131" y="110.1426">CargaTrabajoRepository</text><rect fill="#E2E2F0" height="31.6094" rx="2.5" ry="2.5" style="stroke:#181818;stroke-width:0.5;" width="166.5166" x="1401.4131" y="1149.4375"/><text fill="#000000" font-family="sans-serif" font-size="14" lengthAdjust="spacing" textLength="152.5166" x="1408.4131" y="1170.9707">CargaTrabajoRepository</text><rect fill="#E2E2F0" height="31.6094" rx="2.5" ry="2.5" style="stroke:#181818;stroke-width:0.5;" width="163.4063" x="1577.9297" y="88.6094"/><text fill="#000000" font-family="sans-serif" font-size="14" lengthAdjust="spacing" textLength="149.4063" x="1584.9297" y="110.1426">RecompensaRepository</text><rect fill="#E2E2F0" height="31.6094" rx="2.5" ry="2.5" style="stroke:#181818;stroke-width:0.5;" width="163.4063" x="1577.9297" y="1149.4375"/><text fill="#000000" font-family="sans-serif" font-size="14" lengthAdjust="spacing" textLength="149.4063" x="1584.9297" y="1170.9707">RecompensaRepository</text><rect fill="#FFFFFF" height="986.8672" style="stroke:#181818;stroke-width:1;" width="10" x="401.5713" y="153.5703"/><rect fill="#FFFFFF" height="597.1641" style="stroke:#181818;stroke-width:1;" width="10" x="653.061" y="347.6797"/><rect fill="#FFFFFF" height="55.7031" style="stroke:#181818;stroke-width:1;" width="10" x="932.8843" y="378.0313"/><rect fill="#FFFFFF" height="434.0547" style="stroke:#181818;stroke-width:1;" width="10" x="1067.77" y="464.0859"/><rect fill="#FFFFFF" height="177.7578" style="stroke:#181818;stroke-width:1;" width="10" x="1479.6714" y="537.7891"/><rect fill="#FFFFFF" height="30.3516" style="stroke:#181818;stroke-width:1;" width="10" x="1654.6328" y="771.25"/><polygon fill="#181818" points="389.5713,149.5703,399.5713,153.5703,389.5713,157.5703,393.5713,153.5703" style="stroke:#181818;stroke-width:1;"/><line style="stroke:#181818;stroke-width:1;" x1="61.1343" x2="395.5713" y1="153.5703" y2="153.5703"/><text fill="#000000" font-family="sans-serif" font-size="13" lengthAdjust="spacing" textLength="192.9434" x="68.1343" y="148.7139">Solicita editar su carga de trabajo</text><line style="stroke:#181818;stroke-width:1;" x1="411.5713" x2="453.5713" y1="183.9219" y2="183.9219"/><line style="stroke:#181818;stroke-width:1;" x1="453.5713" x2="453.5713" y1="183.9219" y2="196.9219"/><line style="stroke:#181818;stroke-width:1;" x1="412.5713" x2="453.5713" y1="196.9219" y2="196.9219"/><polygon fill="#181818" points="422.5713,192.9219,412.5713,196.9219,422.5713,200.9219,418.5713,196.9219" style="stroke:#181818;stroke-width:1;"/><text fill="#000000" font-family="sans-serif" font-size="13" lengthAdjust="spacing" textLength="217.4897" x="418.5713" y="179.0654">Precargar formulario con carga actual</text><polygon fill="#181818" points="72.1343,223.2734,62.1343,227.2734,72.1343,231.2734,68.1343,227.2734" style="stroke:#181818;stroke-width:1;"/><line style="stroke:#181818;stroke-width:1;stroke-dasharray:2.0,2.0;" x1="66.1343" x2="400.5713" y1="227.2734" y2="227.2734"/><text fill="#000000" font-family="sans-serif" font-size="13" lengthAdjust="spacing" textLength="244.2324" x="78.1343" y="222.417">Muestra formulario con datos precargados</text><polygon fill="#181818" points="389.5713,253.625,399.5713,257.625,389.5713,261.625,393.5713,257.625" style="stroke:#181818;stroke-width:1;"/><line style="stroke:#181818;stroke-width:1;" x1="61.1343" x2="395.5713" y1="257.625" y2="257.625"/><text fill="#000000" font-family="sans-serif" font-size="13" lengthAdjust="spacing" textLength="138.7407" x="68.1343" y="252.7686">Modifica horas y guarda</text><line style="stroke:#181818;stroke-width:1;" x1="411.5713" x2="453.5713" y1="287.9766" y2="287.9766"/><line style="stroke:#181818;stroke-width:1;" x1="453.5713" x2="453.5713" y1="287.9766" y2="300.9766"/><line style="stroke:#181818;stroke-width:1;" x1="412.5713" x2="453.5713" y1="300.9766" y2="300.9766"/><polygon fill="#181818" points="422.5713,296.9766,412.5713,300.9766,422.5713,304.9766,418.5713,300.9766" style="stroke:#181818;stroke-width:1;"/><text fill="#000000" font-family="sans-serif" font-size="13" lengthAdjust="spacing" textLength="136.5635" x="418.5713" y="283.1201">Comprobar sesion local</text><polygon fill="#181818" points="641.061,343.6797,651.061,347.6797,641.061,351.6797,645.061,347.6797" style="stroke:#181818;stroke-width:1;"/><line style="stroke:#181818;stroke-width:1;" x1="411.5713" x2="647.061" y1="347.6797" y2="347.6797"/><text fill="#000000" font-family="sans-serif" font-size="13" lengthAdjust="spacing" textLength="170.5107" x="418.5713" y="326.4717">PATCH /api/carga-trabajo/me</text><text fill="#000000" font-family="sans-serif" font-size="13" lengthAdjust="spacing" textLength="222.2188" x="418.5713" y="342.8232">CargaTrabajoUpdateRequest + cookie</text><polygon fill="#181818" points="920.8843,374.0313,930.8843,378.0313,920.8843,382.0313,924.8843,378.0313" style="stroke:#181818;stroke-width:1;"/><line style="stroke:#181818;stroke-width:1;" x1="663.061" x2="926.8843" y1="378.0313" y2="378.0313"/><text fill="#000000" font-family="sans-serif" font-size="13" lengthAdjust="spacing" textLength="209.5806" x="670.061" y="373.1748">obtenerSesionActual(authentication)</text><path d="M10,393.0313 L70.1709,393.0313 L70.1709,401.3828 L60.1709,411.3828 L10,411.3828 L10,393.0313 " fill="#EEEEEE" style="stroke:#000000;stroke-width:1.5;"/><rect fill="none" height="740.4063" style="stroke:#000000;stroke-width:1.5;" width="1751.3359" x="10" y="393.0313"/><text fill="#000000" font-family="sans-serif" font-size="13" font-weight="bold" lengthAdjust="spacing" textLength="15.1709" x="25" y="407.5264">alt</text><text fill="#000000" font-family="sans-serif" font-size="11" font-weight="bold" lengthAdjust="spacing" textLength="77.6392" x="85.1709" y="406.4502">[Sesion activa]</text><polygon fill="#181818" points="674.061,429.7344,664.061,433.7344,674.061,437.7344,670.061,433.7344" style="stroke:#181818;stroke-width:1;"/><line style="stroke:#181818;stroke-width:1;stroke-dasharray:2.0,2.0;" x1="668.061" x2="936.8843" y1="433.7344" y2="433.7344"/><text fill="#000000" font-family="sans-serif" font-size="13" lengthAdjust="spacing" textLength="205.1816" x="680.061" y="428.8779">SesionResponse(INVESTIGADOR)</text><polygon fill="#181818" points="1055.77,460.0859,1065.77,464.0859,1055.77,468.0859,1059.77,464.0859" style="stroke:#181818;stroke-width:1;"/><line style="stroke:#181818;stroke-width:1;" x1="663.061" x2="1061.77" y1="464.0859" y2="464.0859"/><text fill="#000000" font-family="sans-serif" font-size="13" lengthAdjust="spacing" textLength="246.4033" x="670.061" y="459.2295">actualizarCargaPropia(investigador, datos)</text><line style="stroke:#181818;stroke-width:1;" x1="1077.77" x2="1119.77" y1="494.4375" y2="494.4375"/><line style="stroke:#181818;stroke-width:1;" x1="1119.77" x2="1119.77" y1="494.4375" y2="507.4375"/><line style="stroke:#181818;stroke-width:1;" x1="1078.77" x2="1119.77" y1="507.4375" y2="507.4375"/><polygon fill="#181818" points="1088.77,503.4375,1078.77,507.4375,1088.77,511.4375,1084.77,507.4375" style="stroke:#181818;stroke-width:1;"/><text fill="#000000" font-family="sans-serif" font-size="13" lengthAdjust="spacing" textLength="113.4326" x="1084.77" y="489.5811">validarHoras(datos)</text><polygon fill="#181818" points="1467.6714,533.7891,1477.6714,537.7891,1467.6714,541.7891,1471.6714,537.7891" style="stroke:#181818;stroke-width:1;"/><line style="stroke:#181818;stroke-width:1;" x1="1077.77" x2="1473.6714" y1="537.7891" y2="537.7891"/><text fill="#000000" font-family="sans-serif" font-size="13" lengthAdjust="spacing" textLength="187.8716" x="1084.77" y="532.9326">obtenerPorUsuario(investigador)</text><polygon fill="#181818" points="1088.77,564.1406,1078.77,568.1406,1088.77,572.1406,1084.77,568.1406" style="stroke:#181818;stroke-width:1;"/><line style="stroke:#181818;stroke-width:1;stroke-dasharray:2.0,2.0;" x1="1082.77" x2="1478.6714" y1="568.1406" y2="568.1406"/><text fill="#000000" font-family="sans-serif" font-size="13" lengthAdjust="spacing" textLength="79.4854" x="1094.77" y="563.2842">CargaTrabajo</text><line style="stroke:#181818;stroke-width:1;" x1="1077.77" x2="1119.77" y1="598.4922" y2="598.4922"/><line style="stroke:#181818;stroke-width:1;" x1="1119.77" x2="1119.77" y1="598.4922" y2="611.4922"/><line style="stroke:#181818;stroke-width:1;" x1="1078.77" x2="1119.77" y1="611.4922" y2="611.4922"/><polygon fill="#181818" points="1088.77,607.4922,1078.77,611.4922,1088.77,615.4922,1084.77,611.4922" style="stroke:#181818;stroke-width:1;"/><text fill="#000000" font-family="sans-serif" font-size="13" lengthAdjust="spacing" textLength="228.3252" x="1084.77" y="593.6357">actualizarCampos(cargaTrabajo, datos)</text><line style="stroke:#181818;stroke-width:1;" x1="1077.77" x2="1119.77" y1="641.8438" y2="641.8438"/><line style="stroke:#181818;stroke-width:1;" x1="1119.77" x2="1119.77" y1="641.8438" y2="654.8438"/><line style="stroke:#181818;stroke-width:1;" x1="1078.77" x2="1119.77" y1="654.8438" y2="654.8438"/><polygon fill="#181818" points="1088.77,650.8438,1078.77,654.8438,1088.77,658.8438,1084.77,654.8438" style="stroke:#181818;stroke-width:1;"/><text fill="#000000" font-family="sans-serif" font-size="13" lengthAdjust="spacing" textLength="377.9014" x="1084.77" y="636.9873">calcularExcesoDocenteSiAplica(cargaTrabajo, sede, maximo16h)</text><polygon fill="#181818" points="1467.6714,681.1953,1477.6714,685.1953,1467.6714,689.1953,1471.6714,685.1953" style="stroke:#181818;stroke-width:1;"/><line style="stroke:#181818;stroke-width:1;" x1="1077.77" x2="1473.6714" y1="685.1953" y2="685.1953"/><text fill="#000000" font-family="sans-serif" font-size="13" lengthAdjust="spacing" textLength="197.2725" x="1084.77" y="680.3389">guardar(cargaTrabajoActualizada)</text><polygon fill="#181818" points="1088.77,711.5469,1078.77,715.5469,1088.77,719.5469,1084.77,715.5469" style="stroke:#181818;stroke-width:1;"/><line style="stroke:#181818;stroke-width:1;stroke-dasharray:2.0,2.0;" x1="1082.77" x2="1483.6714" y1="715.5469" y2="715.5469"/><text fill="#000000" font-family="sans-serif" font-size="13" lengthAdjust="spacing" textLength="148.8652" x="1094.77" y="710.6904">CargaTrabajo actualizada</text><path d="M989.6289,730.5469 L1049.7998,730.5469 L1049.7998,738.8984 L1039.7998,748.8984 L989.6289,748.8984 L989.6289,730.5469 " fill="#EEEEEE" style="stroke:#000000;stroke-width:1.5;"/><rect fill="none" height="138.2422" style="stroke:#000000;stroke-width:1.5;" width="761.707" x="989.6289" y="730.5469"/><text fill="#000000" font-family="sans-serif" font-size="13" font-weight="bold" lengthAdjust="spacing" textLength="15.1709" x="1004.6289" y="745.042">alt</text><text fill="#000000" font-family="sans-serif" font-size="11" font-weight="bold" lengthAdjust="spacing" textLength="256.1582" x="1064.7998" y="743.9658">[Sede con docencia y excede 16 horas docentes]</text><polygon fill="#181818" points="1642.6328,767.25,1652.6328,771.25,1642.6328,775.25,1646.6328,771.25" style="stroke:#181818;stroke-width:1;"/><line style="stroke:#181818;stroke-width:1;" x1="1077.77" x2="1648.6328" y1="771.25" y2="771.25"/><text fill="#000000" font-family="sans-serif" font-size="13" lengthAdjust="spacing" textLength="333.1187" x="1084.77" y="766.3936">registrarCompensacionPendienteSiExcede(cargaTrabajo)</text><polygon fill="#181818" points="1088.77,797.6016,1078.77,801.6016,1088.77,805.6016,1084.77,801.6016" style="stroke:#181818;stroke-width:1;"/><line style="stroke:#181818;stroke-width:1;stroke-dasharray:2.0,2.0;" x1="1082.77" x2="1658.6328" y1="801.6016" y2="801.6016"/><text fill="#000000" font-family="sans-serif" font-size="13" lengthAdjust="spacing" textLength="137.3188" x="1094.77" y="796.7451">Recompensa pendiente</text><line style="stroke:#000000;stroke-width:1;stroke-dasharray:2.0,2.0;" x1="989.6289" x2="1751.3359" y1="810.6016" y2="810.6016"/><text fill="#000000" font-family="sans-serif" font-size="11" font-weight="bold" lengthAdjust="spacing" textLength="246.9575" x="994.6289" y="822.0205">[Sede sin docencia o no excede limite docente]</text><line style="stroke:#181818;stroke-width:1;" x1="1077.77" x2="1119.77" y1="847.7891" y2="847.7891"/><line style="stroke:#181818;stroke-width:1;" x1="1119.77" x2="1119.77" y1="847.7891" y2="860.7891"/><line style="stroke:#181818;stroke-width:1;" x1="1078.77" x2="1119.77" y1="860.7891" y2="860.7891"/><polygon fill="#181818" points="1088.77,856.7891,1078.77,860.7891,1088.77,864.7891,1084.77,860.7891" style="stroke:#181818;stroke-width:1;"/><text fill="#000000" font-family="sans-serif" font-size="13" lengthAdjust="spacing" textLength="237.7515" x="1084.77" y="842.9326">Mantener carga sin compensacion nueva</text><polygon fill="#181818" points="674.061,894.1406,664.061,898.1406,674.061,902.1406,670.061,898.1406" style="stroke:#181818;stroke-width:1;"/><line style="stroke:#181818;stroke-width:1;stroke-dasharray:2.0,2.0;" x1="668.061" x2="1071.77" y1="898.1406" y2="898.1406"/><text fill="#000000" font-family="sans-serif" font-size="13" lengthAdjust="spacing" textLength="175.6016" x="680.061" y="893.2842">CargaTrabajoPropiaResponse</text><polygon fill="#181818" points="422.5713,940.8438,412.5713,944.8438,422.5713,948.8438,418.5713,944.8438" style="stroke:#181818;stroke-width:1;"/><line style="stroke:#181818;stroke-width:1;stroke-dasharray:2.0,2.0;" x1="416.5713" x2="657.061" y1="944.8438" y2="944.8438"/><text fill="#000000" font-family="sans-serif" font-size="13" lengthAdjust="spacing" textLength="44.0845" x="428.5713" y="923.6357">200 OK</text><text fill="#000000" font-family="sans-serif" font-size="13" lengthAdjust="spacing" textLength="175.6016" x="428.5713" y="939.9873">CargaTrabajoPropiaResponse</text><line style="stroke:#181818;stroke-width:1;" x1="411.5713" x2="453.5713" y1="975.1953" y2="975.1953"/><line style="stroke:#181818;stroke-width:1;" x1="453.5713" x2="453.5713" y1="975.1953" y2="988.1953"/><line style="stroke:#181818;stroke-width:1;" x1="412.5713" x2="453.5713" y1="988.1953" y2="988.1953"/><polygon fill="#181818" points="422.5713,984.1953,412.5713,988.1953,422.5713,992.1953,418.5713,988.1953" style="stroke:#181818;stroke-width:1;"/><text fill="#000000" font-family="sans-serif" font-size="13" lengthAdjust="spacing" textLength="201.5825" x="418.5713" y="970.3389">Actualizar resumen y notificar exito</text><polygon fill="#181818" points="72.1343,1014.5469,62.1343,1018.5469,72.1343,1022.5469,68.1343,1018.5469" style="stroke:#181818;stroke-width:1;"/><line style="stroke:#181818;stroke-width:1;stroke-dasharray:2.0,2.0;" x1="66.1343" x2="400.5713" y1="1018.5469" y2="1018.5469"/><text fill="#000000" font-family="sans-serif" font-size="13" lengthAdjust="spacing" textLength="316.437" x="78.1343" y="1013.6904">Presenta OPCIONES_CARGA_TRABAJO_ABIERTAS</text><line style="stroke:#000000;stroke-width:1;stroke-dasharray:2.0,2.0;" x1="10" x2="1761.3359" y1="1027.5469" y2="1027.5469"/><text fill="#000000" font-family="sans-serif" font-size="11" font-weight="bold" lengthAdjust="spacing" textLength="180.9307" x="15" y="1038.9658">[Datos invalidos o sesion ausente]</text><polygon fill="#181818" points="669.061,1060.7344,659.061,1064.7344,669.061,1068.7344,665.061,1064.7344" style="stroke:#181818;stroke-width:1;"/><line style="stroke:#181818;stroke-width:1;stroke-dasharray:2.0,2.0;" x1="663.061" x2="936.8843" y1="1064.7344" y2="1064.7344"/><text fill="#000000" font-family="sans-serif" font-size="13" lengthAdjust="spacing" textLength="255.8232" x="675.061" y="1059.8779">SesionNoValidaException / validacion fallida</text><polygon fill="#181818" points="422.5713,1091.0859,412.5713,1095.0859,422.5713,1099.0859,418.5713,1095.0859" style="stroke:#181818;stroke-width:1;"/><line style="stroke:#181818;stroke-width:1;stroke-dasharray:2.0,2.0;" x1="416.5713" x2="657.061" y1="1095.0859" y2="1095.0859"/><text fill="#000000" font-family="sans-serif" font-size="13" lengthAdjust="spacing" textLength="213.9287" x="428.5713" y="1090.2295">400 Bad Request / 401 Unauthorized</text><polygon fill="#181818" points="72.1343,1121.4375,62.1343,1125.4375,72.1343,1129.4375,68.1343,1125.4375" style="stroke:#181818;stroke-width:1;"/><line style="stroke:#181818;stroke-width:1;stroke-dasharray:2.0,2.0;" x1="66.1343" x2="400.5713" y1="1125.4375" y2="1125.4375"/><text fill="#000000" font-family="sans-serif" font-size="13" lengthAdjust="spacing" textLength="145.9707" x="78.1343" y="1120.5811">Presenta error de edicion</text><!--SRC=[ZLLHRziu37xFho3sbE1MP3qSzf270MwQRRb3cy19zpIWO6qsrPqj-YIxMFVhZv9intAJxW84a2dn4_dn8rMhkY2uLdWmM2Ba19QoXdIc42vWbQiQ3MHe3dwlDlY0VpDKXYlbB0MizJFPMXqmPpEPO5QpYMqLcbfbga9Tmxi0k7Hu-u2rzL2VsPJVzJGb0PYz0xJmsR2kIUUn_z1pAGSC5mKPyTnLHka3N36t_acbOjSTMSLwH-PPPUIF1Clv2-ApVdt-S4eLMoNPl_ZpVilPOe-KCYuhqXP7v-EDoMH88LnywkbOm8uBWQiHA1J7Dg_guygWdh6c8ulT8iRQ6lA-1Xwb04s1HZ5ah5j4WMcm6FYAyp2m1Tmqyc5mx9vZpLPK4j1pjc_aSyEvUbGPmXCR8U853WsQ7Cz4l1IM33-ul7treE0i2l6JgxnabkoNNs6EbPhx62vQQkObVTV3kjrL4YobzA_B17wJyFaVHKS6dOxaxu23NXR03t8LcV2PU8wcsDHFfANGM8jnTlHlHOP5tIuXR4r0VgtbeeiwVATaAzQMfklRRwlTVlqbkTwaC- -GqnZOMVlul4ONRTtKpxRJGejDrQ04xqE90kW0CeWyXERN4UwpWEPelhf2JGS0WxEzxdkQjcpkREEa4KKmklhOByxSVtbg-lk7TJiRv33vKdficWsyehnFUOkOCYVarO-CB5zp9aMbdKegQJeSGLdAwJsK-4ELVFdnwIqkWgPD191qWUOu-xzP7xFBSIo8cC8WE9a9lXzT7cwalm19OcAz_DZsMnvIjDvfb40yb1PWwA1SkvjbQyv4WLjfEnLOMddiACbPZzl7EHfrtNviZYauxa7LNTSx3YWu0Ks5fK24LGCY63HtN1IgLEBSCd6AY3wG6zHUrEs0T93PW0lG3RMjxOPkXDBr-El7h-ltrnr-R4VVuj4a_Ft31zZy5G-pj_7SA7EcqvErbwEHEjkc92rgqLpxuMo4AtciHkwldWDvJwnmYB3PBjURszNkVfcaNvBxVPfS9NzkxfEhzIhT9xk9hygrVoLaABYn8YlkPZesjg_4wH5voz_yB7AAgzp4XNaxdNmP7h5mwr-Dp2Z_FuJFAyoXUmhcOhc4E-qcEnlra_9VytcU43967ZuHcxpQBiI9qyS0gyFu3m00]--></g></svg>