<svg xmlns="http://www.w3.org/2000/svg" xmlns:xlink="http://www.w3.org/1999/xlink" contentStyleType="text/css" height="434px" preserveAspectRatio="none" style="width:1740px;height:434px;background:#FFFFFF;" version="1.1" viewBox="0 0 1740 434" width="1740px" zoomAndPan="magnify"><defs/><g><!--cluster editarCargaTrabajo--><g id="cluster_editarCargaTrabajo"><path d="M331,6 L469.6963,6 A3.75,3.75 0 0 1 472.1963,8.5 L479.1963,29.6094 L1146,29.6094 A2.5,2.5 0 0 1 1148.5,32.1094 L1148.5,424.5 A2.5,2.5 0 0 1 1146,427 L331,427 A2.5,2.5 0 0 1 328.5,424.5 L328.5,8.5 A2.5,2.5 0 0 1 331,6 " fill="none" style="stroke:#000000;stroke-width:1.5;"/><line style="stroke:#000000;stroke-width:1.5;" x1="328.5" x2="479.1963" y1="29.6094" y2="29.6094"/><text fill="#000000" font-family="sans-serif" font-size="14" font-weight="bold" lengthAdjust="spacing" textLength="137.6963" x="332.5" y="22.5332">editarCargaTrabajo()</text></g><!--entity EditarCargaTrabajoPropiaView--><g id="elem_EditarCargaTrabajoPropiaView"><rect fill="#629EF9" height="37.6094" rx="2.5" ry="2.5" style="stroke:#181818;stroke-width:0.5;" width="212.9854" x="753" y="42"/><text fill="#000000" font-family="sans-serif" font-size="14" lengthAdjust="spacing" textLength="192.9854" x="763" y="66.5332">EditarCargaTrabajoPropiaView</text></g><!--entity CargaTrabajoController--><g id="elem_CargaTrabajoController"><rect fill="#B5BD68" height="37.6094" rx="2.5" ry="2.5" style="stroke:#181818;stroke-width:0.5;" width="166.2891" x="621.5" y="158"/><text fill="#000000" font-family="sans-serif" font-size="14" lengthAdjust="spacing" textLength="146.2891" x="631.5" y="182.5332">CargaTrabajoController</text></g><!--entity CargaTrabajoRepository--><g id="elem_CargaTrabajoRepository"><rect fill="#F2AC4E" height="37.6094" rx="2.5" ry="2.5" style="stroke:#181818;stroke-width:0.5;" width="172.5166" x="424" y="274"/><text fill="#000000" font-family="sans-serif" font-size="14" lengthAdjust="spacing" textLength="152.5166" x="434" y="298.5332">CargaTrabajoRepository</text></g><!--entity RecompensaRepository--><g id="elem_RecompensaRepository"><rect fill="#F2AC4E" height="37.6094" rx="2.5" ry="2.5" style="stroke:#181818;stroke-width:0.5;" width="169.4063" x="963" y="274"/><text fill="#000000" font-family="sans-serif" font-size="14" lengthAdjust="spacing" textLength="149.4063" x="973" y="298.5332">RecompensaRepository</text></g><!--entity CargaTrabajo--><g id="elem_CargaTrabajo"><rect fill="#F2AC4E" height="37.6094" rx="2.5" ry="2.5" style="stroke:#181818;stroke-width:0.5;" width="105.5996" x="574.5" y="373"/><text fill="#000000" font-family="sans-serif" font-size="14" lengthAdjust="spacing" textLength="85.5996" x="584.5" y="397.5332">CargaTrabajo</text></g><!--entity Recompensa--><g id="elem_Recompensa"><rect fill="#F2AC4E" height="37.6094" rx="2.5" ry="2.5" style="stroke:#181818;stroke-width:0.5;" width="102.4893" x="996.5" y="373"/><text fill="#000000" font-family="sans-serif" font-size="14" lengthAdjust="spacing" textLength="82.4893" x="1006.5" y="397.5332">Recompensa</text></g><!--entity EstadoEntrada--><g id="elem_EstadoEntrada"><rect fill="#CDEBA5" height="37.6094" rx="2.5" ry="2.5" style="stroke:#181818;stroke-width:0.5;" width="304.7441" x="7" y="42"/><text fill="#000000" font-family="sans-serif" font-size="14" lengthAdjust="spacing" textLength="284.7441" x="17" y="66.5332">:OPCIONES_CARGA_TRABAJO_ABIERTAS</text></g><!--entity EstadoSalida--><g id="elem_EstadoSalida"><rect fill="#CDEBA5" height="37.6094" rx="2.5" ry="2.5" style="stroke:#181818;stroke-width:0.5;" width="304.7441" x="1165" y="158"/><text fill="#000000" font-family="sans-serif" font-size="14" lengthAdjust="spacing" textLength="284.7441" x="1175" y="182.5332">:OPCIONES_CARGA_TRABAJO_ABIERTAS</text></g><!--entity AbrirPanelPrincipal--><g id="elem_AbrirPanelPrincipal"><rect fill="#CDEBA5" height="37.6094" rx="2.5" ry="2.5" style="stroke:#181818;stroke-width:0.5;" width="229.3301" x="1505" y="158"/><text fill="#000000" font-family="sans-serif" font-size="14" lengthAdjust="spacing" textLength="209.3301" x="1515" y="182.5332">:Collaboration AbrirPanelPrincipal</text></g><!--link EstadoEntrada to EditarCargaTrabajoPropiaView--><g id="link_EstadoEntrada_EditarCargaTrabajoPropiaView"><path d="M312.25,61 C445.51,61 629.4,61 746.87,61 " fill="none" id="EstadoEntrada-to-EditarCargaTrabajoPropiaView" style="stroke:#181818;stroke-width:1;"/><polygon fill="#181818" points="752.87,61,743.87,57,747.87,61,743.87,65,752.87,61" style="stroke:#181818;stroke-width:1;"/><text fill="#000000" font-family="sans-serif" font-size="13" lengthAdjust="spacing" textLength="120.6626" x="472.5" y="54.4951">editarCargaTrabajo()</text></g><!--link EditarCargaTrabajoPropiaView to CargaTrabajoController--><g id="link_EditarCargaTrabajoPropiaView_CargaTrabajoController"><path d="M752.87,74.96 C635.88,89.17 464.5,110 464.5,110 C464.5,110 464.5,128 464.5,128 C464.5,128 546.0366,144.3027 615.3466,158.1727 " fill="none" id="EditarCargaTrabajoPropiaView-to-CargaTrabajoController" style="stroke:#181818;stroke-width:1;"/><polygon fill="#181818" points="621.23,159.35,613.1899,153.6617,616.3272,158.3689,611.6201,161.5062,621.23,159.35" style="stroke:#181818;stroke-width:1;"/><text fill="#000000" font-family="sans-serif" font-size="13" lengthAdjust="spacing" textLength="195.8315" x="465.5" y="124.4951">obtenerCargaPropia(investigador)</text></g><!--link EditarCargaTrabajoPropiaView to CargaTrabajoController--><g id="link_EditarCargaTrabajoPropiaView_CargaTrabajoController"><path d="M800.22,80.01 C755.38,93.63 701.5,110 701.5,110 C701.5,110 701.5,128 701.5,128 C701.5,128 702.1455,138.2717 702.9955,151.8617 " fill="none" id="EditarCargaTrabajoPropiaView-to-CargaTrabajoController-1" style="stroke:#181818;stroke-width:1;"/><polygon fill="#181818" points="703.37,157.85,706.8004,148.6179,703.0579,152.8598,698.816,149.1172,703.37,157.85" style="stroke:#181818;stroke-width:1;"/><text fill="#000000" font-family="sans-serif" font-size="13" lengthAdjust="spacing" textLength="113.4326" x="702.5" y="124.4951">validarHoras(datos)</text></g><!--link EditarCargaTrabajoPropiaView to CargaTrabajoController--><g id="link_EditarCargaTrabajoPropiaView_CargaTrabajoController"><path d="M848.84,80.03 C837.3,99.58 820.5,128 820.5,128 C820.5,128 786.4842,142.0762 753.5642,155.6962 " fill="none" id="EditarCargaTrabajoPropiaView-to-CargaTrabajoController-2" style="stroke:#181818;stroke-width:1;"/><polygon fill="#181818" points="748.02,157.99,757.8655,158.2454,752.6402,156.0785,754.8071,150.8531,748.02,157.99" style="stroke:#181818;stroke-width:1;"/><text fill="#000000" font-family="sans-serif" font-size="13" lengthAdjust="spacing" textLength="246.4033" x="831.5" y="124.4951">actualizarCargaPropia(investigador, datos)</text></g><!--link CargaTrabajoController to CargaTrabajoRepository--><g id="link_CargaTrabajoController_CargaTrabajoRepository"><path d="M621.31,190.17 C524.13,204.39 376.5,226 376.5,226 C376.5,226 376.5,244 376.5,244 C376.5,244 416.5515,258.3465 454.5715,271.9665 " fill="none" id="CargaTrabajoController-to-CargaTrabajoRepository" style="stroke:#181818;stroke-width:1;"/><polygon fill="#181818" points="460.22,273.99,453.0962,267.1891,455.5129,272.3038,450.3983,274.7205,460.22,273.99" style="stroke:#181818;stroke-width:1;"/><text fill="#000000" font-family="sans-serif" font-size="13" lengthAdjust="spacing" textLength="187.8716" x="377.5" y="240.4951">obtenerPorUsuario(investigador)</text></g><!--link CargaTrabajoController to CargaTrabajoRepository--><g id="link_CargaTrabajoController_CargaTrabajoRepository"><path d="M667.35,196.01 C639.26,209.63 605.5,226 605.5,226 C605.5,226 569.517,250.9958 541.387,270.5458 " fill="none" id="CargaTrabajoController-to-CargaTrabajoRepository-1" style="stroke:#181818;stroke-width:1;"/><polygon fill="#181818" points="536.46,273.97,546.1332,272.1184,540.5658,271.1165,541.5677,265.5491,536.46,273.97" style="stroke:#181818;stroke-width:1;"/><text fill="#000000" font-family="sans-serif" font-size="13" lengthAdjust="spacing" textLength="140.8926" x="606.5" y="240.4951">actualizar(cargaTrabajo)</text></g><!--link CargaTrabajoController to CargaTrabajo--><g id="link_CargaTrabajoController_CargaTrabajo"><path d="M722.27,196.15 C735.58,209.74 751.5,226 751.5,226 C751.5,226 751.5,244 751.5,244 C751.5,244 685.5,274 685.5,274 C685.5,274 655.3636,334.7836 639.1036,367.6036 " fill="none" id="CargaTrabajoController-to-CargaTrabajo" style="stroke:#181818;stroke-width:1;"/><polygon fill="#181818" points="636.44,372.98,644.0196,366.6912,638.6597,368.4997,636.8512,363.1397,636.44,372.98" style="stroke:#181818;stroke-width:1;"/><text fill="#000000" font-family="sans-serif" font-size="13" lengthAdjust="spacing" textLength="258.667" x="686.5" y="298.4951">calcularExcesoDocenteSiAplica(maximo16h)</text></g><!--link CargaTrabajoController to RecompensaRepository--><g id="link_CargaTrabajoController_RecompensaRepository"><path d="M758.85,196.06 C822.98,217.38 923.2863,250.7174 987.4263,272.0374 " fill="none" id="CargaTrabajoController-to-RecompensaRepository" style="stroke:#181818;stroke-width:1;"/><polygon fill="#181818" points="993.12,273.93,985.8412,267.2953,988.3753,272.3529,983.3177,274.8869,993.12,273.93" style="stroke:#181818;stroke-width:1;"/><text fill="#000000" font-family="sans-serif" font-size="13" lengthAdjust="spacing" textLength="333.1187" x="897.5" y="240.4951">registrarCompensacionPendienteSiExcede(cargaTrabajo)</text></g><!--link CargaTrabajoRepository to CargaTrabajo--><g id="link_CargaTrabajoRepository_CargaTrabajo"><path d="M532.23,312.02 C553.12,329.33 584.51,355.36 605.49,372.75 " fill="none" id="CargaTrabajoRepository-CargaTrabajo" style="stroke:#181818;stroke-width:1;"/></g><!--link RecompensaRepository to Recompensa--><g id="link_RecompensaRepository_Recompensa"><path d="M1047.5,312.24 C1047.5,329.59 1047.5,355.52 1047.5,372.84 " fill="none" id="RecompensaRepository-Recompensa" style="stroke:#181818;stroke-width:1;"/></g><!--link EditarCargaTrabajoPropiaView to EstadoSalida--><g id="link_EditarCargaTrabajoPropiaView_EstadoSalida"><path d="M944.67,80.01 C1009.08,93.63 1086.5,110 1086.5,110 C1086.5,110 1144.5,128 1144.5,128 C1144.5,128 1197.7184,142.7659 1246.8084,156.3859 " fill="none" id="EditarCargaTrabajoPropiaView-to-EstadoSalida" style="stroke:#181818;stroke-width:1;stroke-dasharray:7.0,7.0;"/><polygon fill="#181818" points="1252.59,157.99,1244.987,151.7295,1247.772,156.6532,1242.8482,159.4382,1252.59,157.99" style="stroke:#181818;stroke-width:1;"/><text fill="#000000" font-family="sans-serif" font-size="13" lengthAdjust="spacing" textLength="152.4644" x="1145.5" y="124.4951">cargaTrabajoActualizada()</text></g><!--link EditarCargaTrabajoPropiaView to EstadoSalida--><g id="link_EditarCargaTrabajoPropiaView_EstadoSalida"><path d="M966.17,73.56 C1097.26,87.76 1302.5,110 1302.5,110 C1302.5,110 1307.6312,132.569 1312.0712,152.119 " fill="none" id="EditarCargaTrabajoPropiaView-to-EstadoSalida-1" style="stroke:#181818;stroke-width:1;stroke-dasharray:7.0,7.0;"/><polygon fill="#181818" points="1313.4,157.97,1315.3074,148.3076,1312.2926,153.0942,1307.5061,150.0794,1313.4,157.97" style="stroke:#181818;stroke-width:1;"/><text fill="#000000" font-family="sans-serif" font-size="13" lengthAdjust="spacing" textLength="100.4326" x="1307.5" y="124.4951">cancelarEdicion()</text></g><!--link EditarCargaTrabajoPropiaView to AbrirPanelPrincipal--><g id="link_EditarCargaTrabajoPropiaView_AbrirPanelPrincipal"><path d="M966.24,71.2 C1127.97,85.14 1416.5,110 1416.5,110 C1416.5,110 1498.2142,136.5643 1558.3242,156.1143 " fill="none" id="EditarCargaTrabajoPropiaView-to-AbrirPanelPrincipal" style="stroke:#181818;stroke-width:1;stroke-dasharray:7.0,7.0;"/><polygon fill="#181818" points="1564.03,157.97,1556.7084,151.3825,1559.2752,156.4236,1554.2341,158.9903,1564.03,157.97" style="stroke:#181818;stroke-width:1;"/><text fill="#000000" font-family="sans-serif" font-size="13" lengthAdjust="spacing" textLength="117.7681" x="1471.5" y="124.4951">abrirPanelPrincipal()</text></g><!--SRC=[fPF1Rjim38RlVWeXlJZ0Kc356gm-551ST-iEY-5alGQqH7XS5ScGbAxPi7UVt7IBaxXEj_fcwUT7wYVfxaZNO67956dqwnfPRTIw-OaYYyA3hXIoa_Ggc_1pDaYcUNep_PpD5YalFl35lE0J_ccwu9ERh9ZpsO21Ovdp84sclGK9KGtY3YfaACc3JS5MCBTGmZVJQ0U7n_5mm7v6B7oj0iPd5zdr1SiErBarDS4juVVzaFAybEFth2rEJIZAA8LsNtnznjDtsOwumDeuyiQkdn4NACooHktWgBJDFKgBVhtM-nae2jPtGTBmV2YD1Kz6CrvQiZbeLBabBQW6zOZfE8-YdRwoaHrTzlOZOLsz3PYU63QIWThTieIPqgF6JUWc9YPzZyvJ5GgpmoFe7lBzes7sO_35nHAySQ-0WV2hmFi1prRwXZtbw4OSqBVpzTU4tDWlRWMMp9u7BqGcJ80IAmKsUn3ep9KHg3tEYDUA1CHBUA2bUJl- -bz5RYs8HKlIo-fQfoGiIaKkJ9nDdov5cDiSjQHDkKtr4dkoR64Xo-uYTcLiHArLx1s2qzFBdOLhFDqA-HyF9CJ3VmTfWKrp93KFVWcWOsT38muF0-it]--></g></svg>