<svg xmlns="http://www.w3.org/2000/svg" xmlns:xlink="http://www.w3.org/1999/xlink" contentStyleType="text/css" data-diagram-type="DESCRIPTION" height="442px" preserveAspectRatio="none" style="width:1635px;height:442px;background:#FFFFFF;" version="1.1" viewBox="0 0 1635 442" width="1635px" zoomAndPan="magnify"><?plantuml 1.2026.5?><defs/><g><!--cluster editarCargaTrabajo--><g class="cluster" data-qualified-name="editarCargaTrabajo" data-source-line="4" id="ent0002"><path d="M331,6 L469.6963,6 A3.75,3.75 0 0 1 472.1963,8.5 L479.1963,29.6094 L1033,29.6094 A2.5,2.5 0 0 1 1035.5,32.1094 L1035.5,424.5 A2.5,2.5 0 0 1 1033,427 L331,427 A2.5,2.5 0 0 1 328.5,424.5 L328.5,8.5 A2.5,2.5 0 0 1 331,6" fill="none" style="stroke:#000000;stroke-width:1.5;"/><line style="stroke:#000000;stroke-width:1.5;" x1="328.5" x2="479.1963" y1="29.6094" y2="29.6094"/><text fill="#000000" font-family="sans-serif" font-size="14" font-weight="700" lengthAdjust="spacing" textLength="137.6963" x="332.5" y="22.5332">editarCargaTrabajo()</text></g><!--entity EditarCargaTrabajoPropiaView--><g class="entity" data-qualified-name="editarCargaTrabajo.EditarCargaTrabajoPropiaView" data-source-line="5" id="ent0003"><rect fill="#629EF9" height="37.6094" rx="2.5" ry="2.5" style="stroke:#181818;stroke-width:0.5;" width="212.9854" x="665" y="42"/><text fill="#000000" font-family="sans-serif" font-size="14" lengthAdjust="spacing" textLength="192.9854" x="675" y="66.5332">EditarCargaTrabajoPropiaView</text></g><!--entity CargaTrabajoController--><g class="entity" data-qualified-name="editarCargaTrabajo.CargaTrabajoController" data-source-line="6" id="ent0004"><rect fill="#B5BD68" height="37.6094" rx="2.5" ry="2.5" style="stroke:#181818;stroke-width:0.5;" width="166.2891" x="533.5" y="158"/><text fill="#000000" font-family="sans-serif" font-size="14" lengthAdjust="spacing" textLength="146.2891" x="543.5" y="182.5332">CargaTrabajoController</text></g><!--entity CargaTrabajoRepository--><g class="entity" data-qualified-name="editarCargaTrabajo.CargaTrabajoRepository" data-source-line="7" id="ent0005"><rect fill="#F2AC4E" height="37.6094" rx="2.5" ry="2.5" style="stroke:#181818;stroke-width:0.5;" width="172.5166" x="521" y="274"/><text fill="#000000" font-family="sans-serif" font-size="14" lengthAdjust="spacing" textLength="152.5166" x="531" y="298.5332">CargaTrabajoRepository</text></g><!--entity CargaTrabajo--><g class="entity" data-qualified-name="editarCargaTrabajo.CargaTrabajo" data-source-line="8" id="ent0006"><rect fill="#F2AC4E" height="37.6094" rx="2.5" ry="2.5" style="stroke:#181818;stroke-width:0.5;" width="105.5996" x="633.5" y="373"/><text fill="#000000" font-family="sans-serif" font-size="14" lengthAdjust="spacing" textLength="85.5996" x="643.5" y="397.5332">CargaTrabajo</text></g><!--entity EstadoEntrada--><g class="entity" data-qualified-name="EstadoEntrada" data-source-line="3" id="ent0001"><rect fill="#CDEBA5" height="37.6094" rx="2.5" ry="2.5" style="stroke:#181818;stroke-width:0.5;" width="304.7441" x="7" y="42"/><text fill="#000000" font-family="sans-serif" font-size="14" lengthAdjust="spacing" textLength="284.7441" x="17" y="66.5332">:OPCIONES_CARGA_TRABAJO_ABIERTAS</text></g><!--entity EstadoSalida--><g class="entity" data-qualified-name="EstadoSalida" data-source-line="11" id="ent0007"><rect fill="#CDEBA5" height="37.6094" rx="2.5" ry="2.5" style="stroke:#181818;stroke-width:0.5;" width="304.7441" x="1052" y="158"/><text fill="#000000" font-family="sans-serif" font-size="14" lengthAdjust="spacing" textLength="284.7441" x="1062" y="182.5332">:OPCIONES_CARGA_TRABAJO_ABIERTAS</text></g><!--entity AbrirPanelPrincipal--><g class="entity" data-qualified-name="AbrirPanelPrincipal" data-source-line="12" id="ent0008"><rect fill="#CDEBA5" height="37.6094" rx="2.5" ry="2.5" style="stroke:#181818;stroke-width:0.5;" width="229.3301" x="1392" y="158"/><text fill="#000000" font-family="sans-serif" font-size="14" lengthAdjust="spacing" textLength="209.3301" x="1402" y="182.5332">:Collaboration AbrirPanelPrincipal</text></g><!--link EstadoEntrada to EditarCargaTrabajoPropiaView--><g class="link" data-entity-1="ent0001" data-entity-2="ent0003" data-link-type="dependency" data-source-line="14" id="lnk9"><path d="M312.35,61 C422.11,61 562.28,61 659.74,61" fill="none" id="EstadoEntrada-to-EditarCargaTrabajoPropiaView" style="stroke:#181818;stroke-width:1;"/><polygon fill="#181818" points="664.74,61,655.74,57,659.74,61,655.74,65,664.74,61" style="stroke:#181818;stroke-width:1;stroke-linejoin:miter;stroke-miterlimit:10;"/><text fill="#000000" font-family="sans-serif" font-size="13" lengthAdjust="spacing" textLength="120.6626" x="428.5" y="54.4951">editarCargaTrabajo()</text></g><!--link EditarCargaTrabajoPropiaView to CargaTrabajoController--><g class="link" data-entity-1="ent0003" data-entity-2="ent0004" data-link-type="dependency" data-source-line="16" id="lnk10"><path d="M664.87,74.96 C547.88,89.17 376.5,110 376.5,110 C376.5,110 376.5,128 376.5,128 C376.5,128 459.0172,144.4989 528.3272,158.3689" fill="none" id="EditarCargaTrabajoPropiaView-to-CargaTrabajoController" style="stroke:#181818;stroke-width:1;"/><polygon fill="#181818" points="533.23,159.35,525.1899,153.6617,528.3272,158.3689,523.6201,161.5062,533.23,159.35" style="stroke:#181818;stroke-width:1;stroke-linejoin:miter;stroke-miterlimit:10;"/><text fill="#000000" font-family="sans-serif" font-size="13" lengthAdjust="spacing" textLength="195.8315" x="377.5" y="124.4951">obtenerCargaPropia(investigador)</text></g><!--link EditarCargaTrabajoPropiaView to CargaTrabajoController--><g class="link" data-entity-1="ent0003" data-entity-2="ent0004" data-link-type="dependency" data-source-line="17" id="lnk11"><path d="M712.22,80.01 C667.38,93.63 613.5,110 613.5,110 C613.5,110 613.5,128 613.5,128 C613.5,128 614.2079,139.2698 615.0579,152.8598" fill="none" id="EditarCargaTrabajoPropiaView-to-CargaTrabajoController-1" style="stroke:#181818;stroke-width:1;"/><polygon fill="#181818" points="615.37,157.85,618.8004,148.6179,615.0579,152.8598,610.816,149.1172,615.37,157.85" style="stroke:#181818;stroke-width:1;stroke-linejoin:miter;stroke-miterlimit:10;"/><text fill="#000000" font-family="sans-serif" font-size="13" lengthAdjust="spacing" textLength="113.4326" x="614.5" y="124.4951">validarHoras(datos)</text></g><!--link EditarCargaTrabajoPropiaView to CargaTrabajoController--><g class="link" data-entity-1="ent0003" data-entity-2="ent0004" data-link-type="dependency" data-source-line="18" id="lnk12"><path d="M760.84,80.03 C749.3,99.58 732.5,128 732.5,128 C732.5,128 697.5602,142.4585 664.6402,156.0785" fill="none" id="EditarCargaTrabajoPropiaView-to-CargaTrabajoController-2" style="stroke:#181818;stroke-width:1;"/><polygon fill="#181818" points="660.02,157.99,669.8655,158.2454,664.6402,156.0785,666.8071,150.8531,660.02,157.99" style="stroke:#181818;stroke-width:1;stroke-linejoin:miter;stroke-miterlimit:10;"/><text fill="#000000" font-family="sans-serif" font-size="13" lengthAdjust="spacing" textLength="246.4033" x="743.5" y="124.4951">actualizarCargaPropia(investigador, datos)</text></g><!--link CargaTrabajoController to CargaTrabajoRepository--><g class="link" data-entity-1="ent0004" data-entity-2="ent0005" data-link-type="dependency" data-source-line="19" id="lnk13"><path d="M533.4,195.19 C466.83,208.97 384.5,226 384.5,226 C384.5,226 384.5,244 384.5,244 C384.5,244 455.6619,259.3179 518.9419,272.9379" fill="none" id="CargaTrabajoController-to-CargaTrabajoRepository" style="stroke:#181818;stroke-width:1;"/><polygon fill="#181818" points="523.83,273.99,515.8732,268.1858,518.9419,272.9379,514.1898,276.0067,523.83,273.99" style="stroke:#181818;stroke-width:1;stroke-linejoin:miter;stroke-miterlimit:10;"/><text fill="#000000" font-family="sans-serif" font-size="13" lengthAdjust="spacing" textLength="187.8716" x="385.5" y="240.4951">obtenerPorUsuario(investigador)</text></g><!--link CargaTrabajoController to CargaTrabajoRepository--><g class="link" data-entity-1="ent0004" data-entity-2="ent0005" data-link-type="dependency" data-source-line="21" id="lnk15"><path d="M615.07,196.06 C613.4,217.28 611.0224,247.3154 609.3424,268.6554" fill="none" id="CargaTrabajoController-to-CargaTrabajoRepository-1" style="stroke:#181818;stroke-width:1;"/><polygon fill="#181818" points="608.95,273.64,613.644,264.9817,609.3424,268.6554,605.6687,264.3538,608.95,273.64" style="stroke:#181818;stroke-width:1;stroke-linejoin:miter;stroke-miterlimit:10;"/><text fill="#000000" font-family="sans-serif" font-size="13" lengthAdjust="spacing" textLength="140.8926" x="613.5" y="240.4951">actualizar(cargaTrabajo)</text></g><!--link CargaTrabajoController to CargaTrabajo--><g class="link" data-entity-1="ent0004" data-entity-2="ent0006" data-link-type="dependency" data-source-line="20" id="lnk14"><path d="M670.15,196.01 C710.73,209.63 759.5,226 759.5,226 C759.5,226 759.5,244 759.5,244 C759.5,244 717.1637,329.2417 697.6737,368.4917" fill="none" id="CargaTrabajoController-to-CargaTrabajo" style="stroke:#181818;stroke-width:1;"/><polygon fill="#181818" points="695.45,372.97,703.0354,366.6881,697.6737,368.4917,695.8701,363.1301,695.45,372.97" style="stroke:#181818;stroke-width:1;stroke-linejoin:miter;stroke-miterlimit:10;"/><text fill="#000000" font-family="sans-serif" font-size="13" lengthAdjust="spacing" textLength="197.2471" x="744.5" y="298.4951">validarLimiteDocente(maximo16h)</text></g><!--link CargaTrabajoRepository to CargaTrabajo--><g class="link" data-entity-1="ent0005" data-entity-2="ent0006" data-link-type="association" data-source-line="22" id="lnk16"><path d="M622.36,312.24 C636.48,329.59 657.61,355.52 671.71,372.84" fill="none" id="CargaTrabajoRepository-CargaTrabajo" style="stroke:#181818;stroke-width:1;"/></g><!--link EditarCargaTrabajoPropiaView to EstadoSalida--><g class="link" data-entity-1="ent0003" data-entity-2="ent0007" data-link-type="dependency" data-source-line="23" id="lnk17"><path d="M856.67,80.01 C921.08,93.63 998.5,110 998.5,110 C998.5,110 1082.4586,136.8938 1143.4486,156.4438" fill="none" id="EditarCargaTrabajoPropiaView-to-EstadoSalida" style="stroke:#181818;stroke-width:1;stroke-dasharray:7,7;"/><polygon fill="#181818" points="1148.21,157.97,1140.8605,151.4137,1143.4486,156.4438,1138.4186,159.0319,1148.21,157.97" style="stroke:#181818;stroke-width:1;stroke-linejoin:miter;stroke-miterlimit:10;"/><text fill="#000000" font-family="sans-serif" font-size="13" lengthAdjust="spacing" textLength="152.4644" x="1054.5" y="124.4951">cargaTrabajoActualizada()</text></g><!--link EditarCargaTrabajoPropiaView to EstadoSalida--><g class="link" data-entity-1="ent0003" data-entity-2="ent0007" data-link-type="dependency" data-source-line="24" id="lnk18"><path d="M878.17,73.56 C1009.26,87.76 1214.5,110 1214.5,110 C1214.5,110 1214.5,128 1214.5,128 C1214.5,128 1212.1293,139.365 1209.2993,152.955" fill="none" id="EditarCargaTrabajoPropiaView-to-EstadoSalida-1" style="stroke:#181818;stroke-width:1;stroke-dasharray:7,7;"/><polygon fill="#181818" points="1208.28,157.85,1214.0308,149.8545,1209.2993,152.955,1206.1988,148.2235,1208.28,157.85" style="stroke:#181818;stroke-width:1;stroke-linejoin:miter;stroke-miterlimit:10;"/><text fill="#000000" font-family="sans-serif" font-size="13" lengthAdjust="spacing" textLength="100.4326" x="1215.5" y="124.4951">cancelarEdicion()</text></g><!--link EditarCargaTrabajoPropiaView to AbrirPanelPrincipal--><g class="link" data-entity-1="ent0003" data-entity-2="ent0008" data-link-type="dependency" data-source-line="25" id="lnk19"><path d="M878.12,71.25 C1038.82,85.2 1324.5,110 1324.5,110 C1324.5,110 1398.1797,136.7149 1452.0697,156.2649" fill="none" id="EditarCargaTrabajoPropiaView-to-AbrirPanelPrincipal" style="stroke:#181818;stroke-width:1;stroke-dasharray:7,7;"/><polygon fill="#181818" points="1456.77,157.97,1449.6736,151.1405,1452.0697,156.2649,1446.9454,158.661,1456.77,157.97" style="stroke:#181818;stroke-width:1;stroke-linejoin:miter;stroke-miterlimit:10;"/><text fill="#000000" font-family="sans-serif" font-size="13" lengthAdjust="spacing" textLength="117.7681" x="1373.5" y="124.4951">abrirPanelPrincipal()</text></g><?plantuml-src fPD1Rzf048Nl_XKZUZ5IYDIeGGa7fCKnRQggM41oHMDxH2OikzPueQLL_disIGiON48Qtpnwy-sRjxFbZ4s1WdFGRCYj2eB2wjNJJn08PGxDL1DyYAxYdZg7HcUGHDU3x_5e4gdXPpKP3rLFVHrCLEyw7exLg05OGbmwp6rid62EGO7P3AS4bBD3YL2cE1PCyTu-QHlxvR3PWDy1-6_BGFliCkvVGhodJiGMZBTCFtPRqlCqRr_0jZYotfJLccHNt3zJqQUu8XvIOKjsLbP7Y8E7z-OrGiq-hZf8v2rZQWKTMmCg5PO43Ub4s6HSe7x6rDI3e78Nq99Mzs267QYx3uyvq0Ejt5FhO-w0JHqPUcbzwGdPBAbqFFN6fFaA-W1v-HoOVF6vb66EpfRlW67c5fxt2__fz0J-d56FsADlrcSTGcBbfboWiDt9u4ZaUkPlF6T7LpOZuoYSuq-Usu_jk__ojfaypBOaLTQcmREgYtymyjFJRcMzEx1zXlfxT8vXy-qWav56yMsPVnR706fUY9z_l-XPZm00?></g></svg>