<svg xmlns="http://www.w3.org/2000/svg" xmlns:xlink="http://www.w3.org/1999/xlink" contentStyleType="text/css" data-diagram-type="DESCRIPTION" height="558px" preserveAspectRatio="none" style="width:1635px;height:558px;background:#FFFFFF;" version="1.1" viewBox="0 0 1635 558" width="1635px" zoomAndPan="magnify"><?plantuml 1.2026.6?><defs/><g><!--cluster editarCargaTrabajo--><g class="cluster" data-qualified-name="editarCargaTrabajo" data-source-line="4" id="ent0002"><path d="M331,6 L469.6963,6 A3.75,3.75 0 0 1 472.1963,8.5 L479.1963,29.6094 L1033,29.6094 A2.5,2.5 0 0 1 1035.5,32.1094 L1035.5,540.5 A2.5,2.5 0 0 1 1033,543 L331,543 A2.5,2.5 0 0 1 328.5,540.5 L328.5,8.5 A2.5,2.5 0 0 1 331,6" fill="none" style="stroke:#000000;stroke-width:1.5;"/><line style="stroke:#000000;stroke-width:1.5;" x1="328.5" x2="479.1963" y1="29.6094" y2="29.6094"/><text fill="#000000" font-family="sans-serif" font-size="14" font-weight="700" lengthAdjust="spacing" textLength="137.6963" x="332.5" y="22.5332">editarCargaTrabajo()</text></g><!--entity EditarCargaTrabajoPropiaView--><g class="entity" data-qualified-name="editarCargaTrabajo.EditarCargaTrabajoPropiaView" data-source-line="5" id="ent0003"><rect fill="#629EF9" height="37.6094" rx="2.5" ry="2.5" style="stroke:#181818;stroke-width:0.5;" width="212.9854" x="665" y="42"/><text fill="#000000" font-family="sans-serif" font-size="14" lengthAdjust="spacing" textLength="192.9854" x="675" y="66.5332">EditarCargaTrabajoPropiaView</text></g><!--entity CargaTrabajoController--><g class="entity" data-qualified-name="editarCargaTrabajo.CargaTrabajoController" data-source-line="6" id="ent0004"><rect fill="#B5BD68" height="37.6094" rx="2.5" ry="2.5" style="stroke:#181818;stroke-width:0.5;" width="166.2891" x="533.5" y="158"/><text fill="#000000" font-family="sans-serif" font-size="14" lengthAdjust="spacing" textLength="146.2891" x="543.5" y="182.5332">CargaTrabajoController</text></g><!--entity CargaTrabajoService--><g class="entity" data-qualified-name="editarCargaTrabajo.CargaTrabajoService" data-source-line="7" id="ent0005"><rect fill="#B5BD68" height="37.6094" rx="2.5" ry="2.5" style="stroke:#181818;stroke-width:0.5;" width="152.2822" x="488.5" y="274"/><text fill="#000000" font-family="sans-serif" font-size="14" lengthAdjust="spacing" textLength="132.2822" x="498.5" y="298.5332">CargaTrabajoService</text></g><!--entity SesionService--><g class="entity" data-qualified-name="editarCargaTrabajo.SesionService" data-source-line="8" id="ent0006"><rect fill="#B5BD68" height="37.6094" rx="2.5" ry="2.5" style="stroke:#181818;stroke-width:0.5;" width="109.4893" x="754" y="274"/><text fill="#000000" font-family="sans-serif" font-size="14" lengthAdjust="spacing" textLength="89.4893" x="764" y="298.5332">SesionService</text></g><!--entity CargaTrabajoRepository--><g class="entity" data-qualified-name="editarCargaTrabajo.CargaTrabajoRepository" data-source-line="9" id="ent0007"><rect fill="#F2AC4E" height="37.6094" rx="2.5" ry="2.5" style="stroke:#181818;stroke-width:0.5;" width="172.5166" x="513" y="390"/><text fill="#000000" font-family="sans-serif" font-size="14" lengthAdjust="spacing" textLength="152.5166" x="523" y="414.5332">CargaTrabajoRepository</text></g><!--entity CargaTrabajo--><g class="entity" data-qualified-name="editarCargaTrabajo.CargaTrabajo" data-source-line="10" id="ent0008"><rect fill="#F2AC4E" height="37.6094" rx="2.5" ry="2.5" style="stroke:#181818;stroke-width:0.5;" width="105.5996" x="625.5" y="489"/><text fill="#000000" font-family="sans-serif" font-size="14" lengthAdjust="spacing" textLength="85.5996" x="635.5" y="513.5332">CargaTrabajo</text></g><!--entity EstadoEntrada--><g class="entity" data-qualified-name="EstadoEntrada" data-source-line="3" id="ent0001"><rect fill="#CDEBA5" height="37.6094" rx="2.5" ry="2.5" style="stroke:#181818;stroke-width:0.5;" width="304.7441" x="7" y="42"/><text fill="#000000" font-family="sans-serif" font-size="14" lengthAdjust="spacing" textLength="284.7441" x="17" y="66.5332">:OPCIONES_CARGA_TRABAJO_ABIERTAS</text></g><!--entity EstadoSalida--><g class="entity" data-qualified-name="EstadoSalida" data-source-line="13" id="ent0009"><rect fill="#CDEBA5" height="37.6094" rx="2.5" ry="2.5" style="stroke:#181818;stroke-width:0.5;" width="304.7441" x="1052" y="158"/><text fill="#000000" font-family="sans-serif" font-size="14" lengthAdjust="spacing" textLength="284.7441" x="1062" y="182.5332">:OPCIONES_CARGA_TRABAJO_ABIERTAS</text></g><!--entity AbrirPanelPrincipal--><g class="entity" data-qualified-name="AbrirPanelPrincipal" data-source-line="14" id="ent0010"><rect fill="#CDEBA5" height="37.6094" rx="2.5" ry="2.5" style="stroke:#181818;stroke-width:0.5;" width="229.3301" x="1392" y="158"/><text fill="#000000" font-family="sans-serif" font-size="14" lengthAdjust="spacing" textLength="209.3301" x="1402" y="182.5332">:Collaboration AbrirPanelPrincipal</text></g><!--link EstadoEntrada to EditarCargaTrabajoPropiaView--><g class="link" data-entity-1="ent0001" data-entity-2="ent0003" data-link-type="dependency" data-source-line="16" id="lnk11"><path d="M312.35,61 C422.11,61 562.28,61 659.74,61" fill="none" id="EstadoEntrada-to-EditarCargaTrabajoPropiaView" style="stroke:#181818;stroke-width:1;"/><polygon fill="#181818" points="664.74,61,655.74,57,659.74,61,655.74,65,664.74,61" style="stroke:#181818;stroke-width:1;stroke-linejoin:miter;stroke-miterlimit:10;"/><text fill="#000000" font-family="sans-serif" font-size="13" lengthAdjust="spacing" textLength="120.6626" x="428.5" y="54.4951">editarCargaTrabajo()</text></g><!--link EditarCargaTrabajoPropiaView to CargaTrabajoController--><g class="link" data-entity-1="ent0003" data-entity-2="ent0004" data-link-type="dependency" data-source-line="18" id="lnk12"><path d="M664.87,74.96 C547.88,89.17 376.5,110 376.5,110 C376.5,110 376.5,128 376.5,128 C376.5,128 459.0172,144.4989 528.3272,158.3689" fill="none" id="EditarCargaTrabajoPropiaView-to-CargaTrabajoController" style="stroke:#181818;stroke-width:1;"/><polygon fill="#181818" points="533.23,159.35,525.1899,153.6617,528.3272,158.3689,523.6201,161.5062,533.23,159.35" style="stroke:#181818;stroke-width:1;stroke-linejoin:miter;stroke-miterlimit:10;"/><text fill="#000000" font-family="sans-serif" font-size="13" lengthAdjust="spacing" textLength="195.8315" x="377.5" y="124.4951">obtenerCargaPropia(investigador)</text></g><!--link EditarCargaTrabajoPropiaView to CargaTrabajoController--><g class="link" data-entity-1="ent0003" data-entity-2="ent0004" data-link-type="dependency" data-source-line="21" id="lnk15"><path d="M712.22,80.01 C667.38,93.63 613.5,110 613.5,110 C613.5,110 613.5,128 613.5,128 C613.5,128 614.2079,139.2698 615.0579,152.8598" fill="none" id="EditarCargaTrabajoPropiaView-to-CargaTrabajoController-1" style="stroke:#181818;stroke-width:1;"/><polygon fill="#181818" points="615.37,157.85,618.8004,148.6179,615.0579,152.8598,610.816,149.1172,615.37,157.85" style="stroke:#181818;stroke-width:1;stroke-linejoin:miter;stroke-miterlimit:10;"/><text fill="#000000" font-family="sans-serif" font-size="13" lengthAdjust="spacing" textLength="113.4326" x="614.5" y="124.4951">validarHoras(datos)</text></g><!--link EditarCargaTrabajoPropiaView to CargaTrabajoController--><g class="link" data-entity-1="ent0003" data-entity-2="ent0004" data-link-type="dependency" data-source-line="22" id="lnk16"><path d="M760.84,80.03 C749.3,99.58 732.5,128 732.5,128 C732.5,128 697.5602,142.4585 664.6402,156.0785" fill="none" id="EditarCargaTrabajoPropiaView-to-CargaTrabajoController-2" style="stroke:#181818;stroke-width:1;"/><polygon fill="#181818" points="660.02,157.99,669.8655,158.2454,664.6402,156.0785,666.8071,150.8531,660.02,157.99" style="stroke:#181818;stroke-width:1;stroke-linejoin:miter;stroke-miterlimit:10;"/><text fill="#000000" font-family="sans-serif" font-size="13" lengthAdjust="spacing" textLength="246.4033" x="743.5" y="124.4951">actualizarCargaPropia(investigador, datos)</text></g><!--link CargaTrabajoController to CargaTrabajoService--><g class="link" data-entity-1="ent0004" data-entity-2="ent0005" data-link-type="dependency" data-source-line="19" id="lnk13"><path d="M579.35,196.01 C551.26,209.63 517.5,226 517.5,226 C517.5,226 517.5,244 517.5,244 C517.5,244 529.9215,256.6879 543.2315,270.2779" fill="none" id="CargaTrabajoController-to-CargaTrabajoService" style="stroke:#181818;stroke-width:1;"/><polygon fill="#181818" points="546.73,273.85,543.2903,264.6213,543.2315,270.2779,537.5749,270.219,546.73,273.85" style="stroke:#181818;stroke-width:1;stroke-linejoin:miter;stroke-miterlimit:10;"/><text fill="#000000" font-family="sans-serif" font-size="13" lengthAdjust="spacing" textLength="246.4033" x="518.5" y="240.4951">actualizarCargaPropia(investigador, datos)</text></g><!--link CargaTrabajoController to SesionService--><g class="link" data-entity-1="ent0004" data-entity-2="ent0006" data-link-type="dependency" data-source-line="20" id="lnk14"><path d="M673.91,196.01 C717.32,209.63 769.5,226 769.5,226 C769.5,226 783.7584,250.1142 795.2984,269.6642" fill="none" id="CargaTrabajoController-to-SesionService" style="stroke:#181818;stroke-width:1;"/><polygon fill="#181818" points="797.84,273.97,796.7097,264.1862,795.2984,269.6642,789.8204,268.2528,797.84,273.97" style="stroke:#181818;stroke-width:1;stroke-linejoin:miter;stroke-miterlimit:10;"/><text fill="#000000" font-family="sans-serif" font-size="13" lengthAdjust="spacing" textLength="209.5806" x="780.5" y="240.4951">obtenerSesionActual(authentication)</text></g><!--link CargaTrabajoService to CargaTrabajoRepository--><g class="link" data-entity-1="ent0005" data-entity-2="ent0007" data-link-type="dependency" data-source-line="23" id="lnk17"><path d="M493.96,312.01 C440.62,325.63 376.5,342 376.5,342 C376.5,342 376.5,360 376.5,360 C376.5,360 447.6619,375.3179 510.9419,388.9379" fill="none" id="CargaTrabajoService-to-CargaTrabajoRepository" style="stroke:#181818;stroke-width:1;"/><polygon fill="#181818" points="515.83,389.99,507.8732,384.1858,510.9419,388.9379,506.1898,392.0067,515.83,389.99" style="stroke:#181818;stroke-width:1;stroke-linejoin:miter;stroke-miterlimit:10;"/><text fill="#000000" font-family="sans-serif" font-size="13" lengthAdjust="spacing" textLength="187.8716" x="377.5" y="356.4951">obtenerPorUsuario(investigador)</text></g><!--link CargaTrabajoService to CargaTrabajoRepository--><g class="link" data-entity-1="ent0005" data-entity-2="ent0007" data-link-type="dependency" data-source-line="25" id="lnk19"><path d="M570.05,312.06 C576.56,333.28 585.8429,363.5201 592.3929,384.8601" fill="none" id="CargaTrabajoService-to-CargaTrabajoRepository-1" style="stroke:#181818;stroke-width:1;"/><polygon fill="#181818" points="593.86,389.64,595.0431,379.8625,592.3929,384.8601,587.3952,382.2099,593.86,389.64" style="stroke:#181818;stroke-width:1;stroke-linejoin:miter;stroke-miterlimit:10;"/><text fill="#000000" font-family="sans-serif" font-size="13" lengthAdjust="spacing" textLength="140.8926" x="584.5" y="356.4951">actualizar(cargaTrabajo)</text></g><!--link CargaTrabajoService to CargaTrabajo--><g class="link" data-entity-1="ent0005" data-entity-2="ent0008" data-link-type="dependency" data-source-line="24" id="lnk18"><path d="M627.91,312.01 C675.86,325.63 733.5,342 733.5,342 C733.5,342 733.5,360 733.5,360 C733.5,360 701.6826,445.0372 686.9926,484.2872" fill="none" id="CargaTrabajoService-to-CargaTrabajo" style="stroke:#181818;stroke-width:1;"/><polygon fill="#181818" points="685.24,488.97,692.1409,481.9431,686.9926,484.2872,684.6485,479.1389,685.24,488.97" style="stroke:#181818;stroke-width:1;stroke-linejoin:miter;stroke-miterlimit:10;"/><text fill="#000000" font-family="sans-serif" font-size="13" lengthAdjust="spacing" textLength="197.2471" x="722.5" y="414.4951">validarLimiteDocente(maximo16h)</text></g><!--link CargaTrabajoRepository to CargaTrabajo--><g class="link" data-entity-1="ent0007" data-entity-2="ent0008" data-link-type="association" data-source-line="26" id="lnk20"><path d="M614.36,428.24 C628.48,445.59 649.61,471.52 663.71,488.84" fill="none" id="CargaTrabajoRepository-CargaTrabajo" style="stroke:#181818;stroke-width:1;"/></g><!--link EditarCargaTrabajoPropiaView to EstadoSalida--><g class="link" data-entity-1="ent0003" data-entity-2="ent0009" data-link-type="dependency" data-source-line="27" id="lnk21"><path d="M856.67,80.01 C921.08,93.63 998.5,110 998.5,110 C998.5,110 1082.4586,136.8938 1143.4486,156.4438" fill="none" id="EditarCargaTrabajoPropiaView-to-EstadoSalida" style="stroke:#181818;stroke-width:1;stroke-dasharray:7,7;"/><polygon fill="#181818" points="1148.21,157.97,1140.8605,151.4137,1143.4486,156.4438,1138.4186,159.0319,1148.21,157.97" style="stroke:#181818;stroke-width:1;stroke-linejoin:miter;stroke-miterlimit:10;"/><text fill="#000000" font-family="sans-serif" font-size="13" lengthAdjust="spacing" textLength="152.4644" x="1054.5" y="124.4951">cargaTrabajoActualizada()</text></g><!--link EditarCargaTrabajoPropiaView to EstadoSalida--><g class="link" data-entity-1="ent0003" data-entity-2="ent0009" data-link-type="dependency" data-source-line="28" id="lnk22"><path d="M878.17,73.56 C1009.26,87.76 1214.5,110 1214.5,110 C1214.5,110 1214.5,128 1214.5,128 C1214.5,128 1212.1293,139.365 1209.2993,152.955" fill="none" id="EditarCargaTrabajoPropiaView-to-EstadoSalida-1" style="stroke:#181818;stroke-width:1;stroke-dasharray:7,7;"/><polygon fill="#181818" points="1208.28,157.85,1214.0308,149.8545,1209.2993,152.955,1206.1988,148.2235,1208.28,157.85" style="stroke:#181818;stroke-width:1;stroke-linejoin:miter;stroke-miterlimit:10;"/><text fill="#000000" font-family="sans-serif" font-size="13" lengthAdjust="spacing" textLength="100.4326" x="1215.5" y="124.4951">cancelarEdicion()</text></g><!--link EditarCargaTrabajoPropiaView to AbrirPanelPrincipal--><g class="link" data-entity-1="ent0003" data-entity-2="ent0010" data-link-type="dependency" data-source-line="29" id="lnk23"><path d="M878.12,71.25 C1038.82,85.2 1324.5,110 1324.5,110 C1324.5,110 1398.1797,136.7149 1452.0697,156.2649" fill="none" id="EditarCargaTrabajoPropiaView-to-AbrirPanelPrincipal" style="stroke:#181818;stroke-width:1;stroke-dasharray:7,7;"/><polygon fill="#181818" points="1456.77,157.97,1449.6736,151.1405,1452.0697,156.2649,1446.9454,158.661,1456.77,157.97" style="stroke:#181818;stroke-width:1;stroke-linejoin:miter;stroke-miterlimit:10;"/><text fill="#000000" font-family="sans-serif" font-size="13" lengthAdjust="spacing" textLength="117.7681" x="1373.5" y="124.4951">abrirPanelPrincipal()</text></g><?plantuml-src fPD1Rzf048Nl_XKZSZ5IYTIeGOqFaHR7QLDLnS8qLpHUZyWsowurNcXfrV_U3L30mRWazSsZDz_ElBTRFIfJ8kCCj3BabYL1QVNowIS8cAH3CzK4P_5DCX2Nq8c6QNmt_99aarYCFeZ9U2G6ujDm8WPtoMWiiWvW1KdbiB29SOm51YNAHvmIKA4SSemynJ5ZZj_iaxPpM0wx7VWLWF_s1kXVN2MtLv0Sg5EsfS9xHT-Vj-INUT5_3_lYsFgXhDR49uWpueMIT4IPKQMiEQAvlH3nkwH66r5fA-KiBqyG1x__r_qCjVBcDq5YRm3cbj7v1K3ah3X5GpfbPQGgKQym3VKWg2KBFUvTjoOIGLEw7jFI0xt2Kvj3Yy3cZWojMzSzeJ8BgfoQ-i6u6pGtGkyPSvDR12ZTt5lr4uyotq21pbQjwDfbs4wvhehL2I7EtGCPf-JAzku_F6YnOB5AbZ_w0AjmCzghOQzSVxFf0NftoRScf9Q_LdDaPLkIEiRRRljPpPIZ6okzXHJEy8UQsRVzXvTFjLiub7kIEcZNu5drXzdgzFdvTUtvHR1_XlXxT85Xz-KW8qaZ-pRfxyyfW8ONxFS_B7hM7m00?></g></svg>