<svg xmlns="http://www.w3.org/2000/svg" xmlns:xlink="http://www.w3.org/1999/xlink" contentStyleType="text/css" data-diagram-type="STATE" height="806px" preserveAspectRatio="none" style="width:773px;height:806px;background:#FFFFFF;" version="1.1" viewBox="0 0 773 806" width="773px" zoomAndPan="magnify"><?plantuml 1.2026.4beta2?><defs/><g><g class="entity" data-qualified-name="in2" id="ent0002"><rect fill="#F1F1F1" height="50" rx="12.5" ry="12.5" style="stroke:#181818;stroke-width:0.5;" width="213.0879" x="185.76" y="7"/><line style="stroke:#181818;stroke-width:0.5;" x1="185.76" x2="398.8479" y1="33.2969" y2="33.2969"/><text fill="#000000" font-family="sans-serif" font-size="14" lengthAdjust="spacing" textLength="193.0879" x="195.76" y="24.9951">PANEL_PRINCIPAL_ABIERTO</text></g><g class="entity" data-qualified-name="in1" id="ent0003"><rect fill="#F1F1F1" height="50" rx="12.5" ry="12.5" style="stroke:#181818;stroke-width:0.5;" width="181.9844" x="434.31" y="7"/><line style="stroke:#181818;stroke-width:0.5;" x1="434.31" x2="616.2944" y1="33.2969" y2="33.2969"/><text fill="#000000" font-family="sans-serif" font-size="14" lengthAdjust="spacing" textLength="161.9844" x="444.31" y="24.9951">PUBLICACION_ABIERTA</text></g><path d="M233.8,152 L582.8,152 A12.5,12.5 0 0 1 595.3,164.5 L595.3,178.2969 L221.3,178.2969 L221.3,164.5 A12.5,12.5 0 0 1 233.8,152" fill="#F1F1F1"/><rect fill="none" height="495.2969" rx="12.5" ry="12.5" style="stroke:#181818;stroke-width:0.5;" width="374" x="221.3" y="152"/><line style="stroke:#181818;stroke-width:0.5;" x1="221.3" x2="595.3" y1="178.2969" y2="178.2969"/><text fill="#000000" font-family="sans-serif" font-size="14" lengthAdjust="spacing" textLength="138.9814" x="338.8093" y="169.9951">abrirPublicaciones()</text><g class="entity" data-qualified-name="abrirPublicaciones.MostrandoListado" id="ent0005"><rect fill="#F1F1F1" height="50" rx="12.5" ry="12.5" style="stroke:#181818;stroke-width:0.5;" width="50" x="233.3" y="280.2969"/><line style="stroke:#181818;stroke-width:0.5;" x1="233.3" x2="283.3" y1="306.5938" y2="306.5938"/><text fill="#000000" font-family="sans-serif" font-size="14" lengthAdjust="spacing" textLength="4.4502" x="256.0749" y="298.292">&#160;</text></g><g class="entity" data-qualified-name="abrirPublicaciones.FiltrandoListado" id="ent0006"><rect fill="#F1F1F1" height="50" rx="12.5" ry="12.5" style="stroke:#181818;stroke-width:0.5;" width="50" x="233.3" y="491.2969"/><line style="stroke:#181818;stroke-width:0.5;" x1="233.3" x2="283.3" y1="517.5938" y2="517.5938"/><text fill="#000000" font-family="sans-serif" font-size="14" lengthAdjust="spacing" textLength="4.4502" x="256.0749" y="509.292">&#160;</text></g><g class="start_entity" data-qualified-name="abrirPublicaciones..start.abrirPublicaciones" data-source-line="20" id="ent0004"><ellipse cx="258.3" cy="199.2969" fill="#222222" rx="10" ry="10" style="stroke:#222222;stroke-width:1;"/></g><g class="end_entity" data-qualified-name="abrirPublicaciones..end.abrirPublicaciones" data-source-line="36" id="ent0007"><ellipse cx="258.3" cy="623.2969" fill="none" rx="11" ry="11" style="stroke:#222222;stroke-width:1;"/><ellipse cx="258.3" cy="623.2969" fill="#222222" rx="6" ry="6" style="stroke:#222222;stroke-width:1;"/></g><!--link *start*abrirPublicaciones to MostrandoListado--><g class="link" data-entity-1="ent0004" data-entity-2="ent0005" data-link-type="dependency" data-source-line="20" id="lnk5"><path d="M258.3,209.5269 C258.3,225.2369 258.3,251.6569 258.3,274.1669" fill="none" id="*start*abrirPublicaciones-to-MostrandoListado" style="stroke:#008000;stroke-width:1;"/><polygon fill="#008000" points="258.3,280.1669,262.3,271.1669,258.3,275.1669,254.3,271.1669,258.3,280.1669" style="stroke:#008000;stroke-width:1;"/><path d="M263.3,232.2969 L263.3,257.2969 L551.3,257.2969 L551.3,242.2969 L541.3,232.2969 L263.3,232.2969" fill="#FEFFDD" style="stroke:#181818;stroke-width:0.5;"/><path d="M541.3,232.2969 L541.3,242.2969 L551.3,242.2969 L541.3,232.2969" fill="#FEFFDD" style="stroke:#181818;stroke-width:0.5;"/><text fill="#000000" font-family="sans-serif" font-size="13" font-weight="700" lengthAdjust="spacing" textLength="90.251" x="269.3" y="249.3638">Coordinador</text><text fill="#000000" font-family="sans-serif" font-size="13" lengthAdjust="spacing" textLength="173.3608" x="363.6833" y="249.3638">solicita abrir publicaciones</text></g><!--link MostrandoListado to FiltrandoListado--><g class="link" data-entity-1="ent0005" data-entity-2="ent0006" data-link-type="dependency" data-source-line="25" id="lnk6"><path d="M258.3,330.6769 C258.3,370.9569 258.3,444.8969 258.3,485.0669" fill="none" id="MostrandoListado-to-FiltrandoListado" style="stroke:#008000;stroke-width:1;"/><polygon fill="#008000" points="258.3,491.0669,262.3,482.0669,258.3,486.0669,254.3,482.0669,258.3,491.0669" style="stroke:#008000;stroke-width:1;"/><path d="M263.3,353.2969 L263.3,468.2969 L565.3,468.2969 L565.3,363.2969 L555.3,353.2969 L263.3,353.2969" fill="#FEFFDD" style="stroke:#181818;stroke-width:0.5;"/><path d="M555.3,353.2969 L555.3,363.2969 L565.3,363.2969 L555.3,353.2969" fill="#FEFFDD" style="stroke:#181818;stroke-width:0.5;"/><text fill="#000000" font-family="sans-serif" font-size="13" font-weight="700" lengthAdjust="spacing" textLength="58.9063" x="269.3" y="370.3638">Sistema</text><text fill="#000000" font-family="sans-serif" font-size="13" lengthAdjust="spacing" textLength="218.3848" x="332.3386" y="370.3638">presenta listado de publicaciones</text><text fill="#000000" font-family="sans-serif" font-size="13" lengthAdjust="spacing" textLength="48.2549" x="269.3" y="385.4966">&#8226; Titulo</text><text fill="#000000" font-family="sans-serif" font-size="13" lengthAdjust="spacing" textLength="47.3281" x="269.3" y="400.6294">&#8226; Autor</text><text fill="#000000" font-family="sans-serif" font-size="13" lengthAdjust="spacing" textLength="50.6289" x="269.3" y="415.7622">&#8226; Fecha</text><text fill="#000000" font-family="sans-serif" font-size="13" font-weight="700" lengthAdjust="spacing" textLength="58.9063" x="269.3" y="430.895">Sistema</text><text fill="#000000" font-family="sans-serif" font-size="13" lengthAdjust="spacing" textLength="110.5952" x="332.3386" y="430.895">permite solicitar:</text><text fill="#000000" font-family="sans-serif" font-size="13" lengthAdjust="spacing" textLength="120.4849" x="269.3" y="446.0278">&#8226; abrir publicaci&#243;n</text><text fill="#000000" font-family="sans-serif" font-size="13" lengthAdjust="spacing" textLength="133.5991" x="269.3" y="461.1606">&#8226; abrirPanelPrincipal</text></g><!--link FiltrandoListado to *end*abrirPublicaciones--><g class="link" data-entity-1="ent0006" data-entity-2="ent0007" data-link-type="dependency" data-source-line="36" id="lnk8"><path d="M258.3,541.6469 C258.3,563.9469 258.3,589.8569 258.3,606.0369" fill="none" id="FiltrandoListado-to-*end*abrirPublicaciones" style="stroke:#008000;stroke-width:1;"/><polygon fill="#008000" points="258.3,612.0369,262.3,603.0369,258.3,607.0369,254.3,603.0369,258.3,612.0369" style="stroke:#008000;stroke-width:1;"/><path d="M263.3,564.2969 L263.3,589.2969 L571.3,589.2969 L571.3,574.2969 L561.3,564.2969 L263.3,564.2969" fill="#FEFFDD" style="stroke:#181818;stroke-width:0.5;"/><path d="M561.3,564.2969 L561.3,574.2969 L571.3,574.2969 L561.3,564.2969" fill="#FEFFDD" style="stroke:#181818;stroke-width:0.5;"/><text fill="#000000" font-family="sans-serif" font-size="13" font-weight="700" lengthAdjust="spacing" textLength="90.251" x="269.3" y="581.3638">Coordinador</text><text fill="#000000" font-family="sans-serif" font-size="13" lengthAdjust="spacing" textLength="193.0322" x="363.6833" y="581.3638">solicita una opci&#243;n del listado</text></g><g class="entity" data-qualified-name="PUBLICACIONES_ABIERTAS" id="ent0009"><rect fill="#F1F1F1" height="50" rx="12.5" ry="12.5" style="stroke:#181818;stroke-width:0.5;" width="208.6035" x="7" y="742.3"/><line style="stroke:#181818;stroke-width:0.5;" x1="7" x2="215.6035" y1="768.5969" y2="768.5969"/><text fill="#000000" font-family="sans-serif" font-size="14" lengthAdjust="spacing" textLength="188.6035" x="17" y="760.2951">PUBLICACIONES_ABIERTAS</text></g><g class="entity" data-qualified-name="PUBLICACION_ABIERTA" id="ent0011"><rect fill="#F1F1F1" height="50" rx="12.5" ry="12.5" style="stroke:#181818;stroke-width:0.5;" width="181.9844" x="317.31" y="742.3"/><line style="stroke:#181818;stroke-width:0.5;" x1="317.31" x2="499.2944" y1="768.5969" y2="768.5969"/><text fill="#000000" font-family="sans-serif" font-size="14" lengthAdjust="spacing" textLength="161.9844" x="327.31" y="760.2951">PUBLICACION_ABIERTA</text></g><g class="entity" data-qualified-name="PANEL_PRINCIPAL_ABIERTO" id="ent0013"><rect fill="#F1F1F1" height="50" rx="12.5" ry="12.5" style="stroke:#181818;stroke-width:0.5;" width="213.0879" x="534.76" y="742.3"/><line style="stroke:#181818;stroke-width:0.5;" x1="534.76" x2="747.8479" y1="768.5969" y2="768.5969"/><text fill="#000000" font-family="sans-serif" font-size="14" lengthAdjust="spacing" textLength="193.0879" x="544.76" y="760.2951">PANEL_PRINCIPAL_ABIERTO</text></g><!--link in2 to abrirPublicaciones--><g class="link" data-entity-1="ent0002" data-entity-2="ent0004" data-link-type="dependency" data-source-line="4" id="lnk2"><path d="M300,57.28 C306.88,78.97 315.9359,107.5008 328.1859,146.1208" fill="none" id="in2-to-abrirPublicaciones" style="stroke:#008000;stroke-width:1;"/><polygon fill="#008000" points="330,151.84,331.0917,142.0518,328.4883,147.074,323.4661,144.4706,330,151.84" style="stroke:#008000;stroke-width:1;"/><path d="M326.3,92 L326.3,117 L476.3,117 L476.3,102 L466.3,92 L326.3,92" fill="#FEFFDD" style="stroke:#181818;stroke-width:0.5;"/><path d="M466.3,92 L466.3,102 L476.3,102 L466.3,92" fill="#FEFFDD" style="stroke:#181818;stroke-width:0.5;"/><text fill="#000000" font-family="sans-serif" font-size="13" lengthAdjust="spacing" textLength="129.0542" x="332.3" y="109.0669">abrirPublicaciones()</text></g><!--link in1 to abrirPublicaciones--><g class="link" data-entity-1="ent0003" data-entity-2="ent0004" data-link-type="dependency" data-source-line="10" id="lnk3"><path d="M517.53,57.28 C510.59,78.97 501.4575,107.5051 489.1075,146.1251" fill="none" id="in1-to-abrirPublicaciones" style="stroke:#008000;stroke-width:1;"/><polygon fill="#008000" points="487.28,151.84,493.8312,144.486,488.8029,147.0776,486.2114,142.0493,487.28,151.84" style="stroke:#008000;stroke-width:1;"/><path d="M510.3,92 L510.3,117 L660.3,117 L660.3,102 L650.3,92 L510.3,92" fill="#FEFFDD" style="stroke:#181818;stroke-width:0.5;"/><path d="M650.3,92 L650.3,102 L660.3,102 L650.3,92" fill="#FEFFDD" style="stroke:#181818;stroke-width:0.5;"/><text fill="#000000" font-family="sans-serif" font-size="13" lengthAdjust="spacing" textLength="129.0542" x="516.3" y="109.0669">abrirPublicaciones()</text></g><!--link abrirPublicaciones to PUBLICACIONES_ABIERTAS--><g class="link" data-entity-1="ent0004" data-entity-2="ent0009" data-link-type="dependency" data-source-line="43" id="lnk10"><path d="M221.02,596.17 C177.34,641.76 143.3,677.3 143.3,677.3 C143.3,677.3 131.5493,709.9836 122.0793,736.3336" fill="none" id="abrirPublicaciones-to-PUBLICACIONES_ABIERTAS" style="stroke:#008000;stroke-width:1;"/><polygon fill="#008000" points="120.05,741.98,126.8582,734.8632,121.7411,737.2747,119.3296,732.1575,120.05,741.98" style="stroke:#008000;stroke-width:1;"/><path d="M148.3,682.3 L148.3,707.3 L395.3,707.3 L395.3,692.3 L385.3,682.3 L148.3,682.3" fill="#FEFFDD" style="stroke:#181818;stroke-width:0.5;"/><path d="M385.3,682.3 L385.3,692.3 L395.3,692.3 L385.3,682.3" fill="#FEFFDD" style="stroke:#181818;stroke-width:0.5;"/><text fill="#000000" font-family="sans-serif" font-size="13" lengthAdjust="spacing" textLength="226.3511" x="154.3" y="699.3669">Listado de publicaciones mostrado</text></g><!--link abrirPublicaciones to PUBLICACION_ABIERTA--><g class="link" data-entity-1="ent0004" data-entity-2="ent0011" data-link-type="dependency" data-source-line="48" id="lnk12"><path d="M408.3,647.58 C408.3,686.07 408.3,714.21 408.3,735.89" fill="none" id="abrirPublicaciones-to-PUBLICACION_ABIERTA" style="stroke:#008000;stroke-width:1;"/><polygon fill="#008000" points="408.3,741.89,412.3,732.89,408.3,736.89,404.3,732.89,408.3,741.89" style="stroke:#008000;stroke-width:1;"/><path d="M413.3,682.3 L413.3,707.3 L548.3,707.3 L548.3,692.3 L538.3,682.3 L413.3,682.3" fill="#FEFFDD" style="stroke:#181818;stroke-width:0.5;"/><path d="M538.3,682.3 L538.3,692.3 L548.3,692.3 L538.3,682.3" fill="#FEFFDD" style="stroke:#181818;stroke-width:0.5;"/><text fill="#000000" font-family="sans-serif" font-size="13" lengthAdjust="spacing" textLength="114.2832" x="419.3" y="699.3669">abrirPublicacion()</text></g><!--link abrirPublicaciones to PANEL_PRINCIPAL_ABIERTO--><g class="link" data-entity-1="ent0004" data-entity-2="ent0013" data-link-type="dependency" data-source-line="53" id="lnk14"><path d="M565.65,647.58 C590.18,686.07 608.7048,715.1505 622.5248,736.8305" fill="none" id="abrirPublicaciones-to-PANEL_PRINCIPAL_ABIERTO" style="stroke:#008000;stroke-width:1;"/><polygon fill="#008000" points="625.75,741.89,624.2852,732.1507,623.0624,737.6738,617.5393,736.4509,625.75,741.89" style="stroke:#008000;stroke-width:1;"/><path d="M606.3,682.3 L606.3,707.3 L758.3,707.3 L758.3,692.3 L748.3,682.3 L606.3,682.3" fill="#FEFFDD" style="stroke:#181818;stroke-width:0.5;"/><path d="M748.3,682.3 L748.3,692.3 L758.3,692.3 L748.3,682.3" fill="#FEFFDD" style="stroke:#181818;stroke-width:0.5;"/><text fill="#000000" font-family="sans-serif" font-size="13" lengthAdjust="spacing" textLength="131.9424" x="612.3" y="699.3669">abrirPanelPrincipal()</text></g><?plantuml-src hLHBQiCm4Dth5CBTj8LGqcK90SSaO70JawIh489iYrP47XbPNeHIw5bwXHwXD-b9AZbn4iLAFr1xDTARUU_DU5ok6HH4aXnp1bHj2eeBmJScGAXKH57Cu1QJ4dknFnv6gtWQZeCmzgELFmY7q_d4GmRGMLmyIafXsUbZaaWcuohXB2Kf4q1B148N4c18rgXzVtc5A6JOe0witIthmo0A0py89-CTesyOk__Fs0RL0bov7dv62Ejdc-dfLqFlHQaaWKn4J9zdeeqOCMuZQiZYUccvSTQn_9Y3Nj8FX90P0msHlPkaZqkXHJ95jbPmOJN4v1mic-YKnnBHadfEn4pVqvpK0Wf9ImfQ0DzLpAX3nUVh6vupLN6n3_rA2RcFHZHz8ixwLEPCIsYCohjzpedbZtUmhs82bCUIGSeAmXtTE3LiTKEFwEzJg81WKTHQT2DuqnIR-mKXn-TfaH-jm73MBC7C_iAZCmt7UJrapNfm-tkwXkpxRR9swQVYxf-8Yy0Qs1775m00?></g></svg>