<svg xmlns="http://www.w3.org/2000/svg" xmlns:xlink="http://www.w3.org/1999/xlink" contentStyleType="text/css" data-diagram-type="DESCRIPTION" height="661px" preserveAspectRatio="none" style="width:2671px;height:661px;background:#FFFFFF;" version="1.1" viewBox="0 0 2671 661" width="2671px" zoomAndPan="magnify"><?plantuml 1.2026.6?><defs/><g><!--cluster abrirRecompensas--><g class="cluster" data-qualified-name="abrirRecompensas" data-source-line="5" id="ent0003"><path d="M217,6 L353.3789,6 A3.75,3.75 0 0 1 355.8789,8.5 L362.8789,29.6094 L1613,29.6094 A2.5,2.5 0 0 1 1615.5,32.1094 L1615.5,643.5 A2.5,2.5 0 0 1 1613,646 L217,646 A2.5,2.5 0 0 1 214.5,643.5 L214.5,8.5 A2.5,2.5 0 0 1 217,6" fill="none" style="stroke:#000000;stroke-width:1.5;"/><line style="stroke:#000000;stroke-width:1.5;" x1="214.5" x2="362.8789" y1="29.6094" y2="29.6094"/><text fill="#000000" font-family="sans-serif" font-size="14" font-weight="700" lengthAdjust="spacing" textLength="135.3789" x="218.5" y="22.5332">abrirRecompensas()</text></g><!--entity ListarRecompensasView--><g class="entity" data-qualified-name="abrirRecompensas.ListarRecompensasView" data-source-line="6" id="ent0004"><rect fill="#629EF9" height="37.6094" rx="2.5" ry="2.5" style="stroke:#181818;stroke-width:0.5;" width="174.0684" x="1366.5" y="42"/><text fill="#000000" font-family="sans-serif" font-size="14" lengthAdjust="spacing" textLength="154.0684" x="1376.5" y="66.5332">ListarRecompensasView</text></g><!--entity RecompensaController--><g class="entity" data-qualified-name="abrirRecompensas.RecompensaController" data-source-line="7" id="ent0005"><rect fill="#B5BD68" height="37.6094" rx="2.5" ry="2.5" style="stroke:#181818;stroke-width:0.5;" width="163.1787" x="1284" y="209.5"/><text fill="#000000" font-family="sans-serif" font-size="14" lengthAdjust="spacing" textLength="143.1787" x="1294" y="234.0332">RecompensaController</text></g><!--entity RecompensaService--><g class="entity" data-qualified-name="abrirRecompensas.RecompensaService" data-source-line="8" id="ent0006"><rect fill="#B5BD68" height="37.6094" rx="2.5" ry="2.5" style="stroke:#181818;stroke-width:0.5;" width="149.1719" x="931" y="377"/><text fill="#000000" font-family="sans-serif" font-size="14" lengthAdjust="spacing" textLength="129.1719" x="941" y="401.5332">RecompensaService</text></g><!--entity SesionService--><g class="entity" data-qualified-name="abrirRecompensas.SesionService" data-source-line="9" id="ent0007"><rect fill="#B5BD68" height="37.6094" rx="2.5" ry="2.5" style="stroke:#181818;stroke-width:0.5;" width="109.4893" x="1311" y="377"/><text fill="#000000" font-family="sans-serif" font-size="14" lengthAdjust="spacing" textLength="89.4893" x="1321" y="401.5332">SesionService</text></g><!--entity RecompensaRepository--><g class="entity" data-qualified-name="abrirRecompensas.RecompensaRepository" data-source-line="10" id="ent0008"><rect fill="#F2AC4E" height="37.6094" rx="2.5" ry="2.5" style="stroke:#181818;stroke-width:0.5;" width="169.4063" x="540" y="493"/><text fill="#000000" font-family="sans-serif" font-size="14" lengthAdjust="spacing" textLength="149.4063" x="550" y="517.5332">RecompensaRepository</text></g><!--entity ProyectoRepository--><g class="entity" data-qualified-name="abrirRecompensas.ProyectoRepository" data-source-line="11" id="ent0009"><rect fill="#F2AC4E" height="37.6094" rx="2.5" ry="2.5" style="stroke:#181818;stroke-width:0.5;" width="142.165" x="1194.5" y="493"/><text fill="#000000" font-family="sans-serif" font-size="14" lengthAdjust="spacing" textLength="122.165" x="1204.5" y="517.5332">ProyectoRepository</text></g><!--entity InvestigadorRepository--><g class="entity" data-qualified-name="abrirRecompensas.InvestigadorRepository" data-source-line="12" id="ent0010"><rect fill="#F2AC4E" height="37.6094" rx="2.5" ry="2.5" style="stroke:#181818;stroke-width:0.5;" width="163.1855" x="1372" y="493"/><text fill="#000000" font-family="sans-serif" font-size="14" lengthAdjust="spacing" textLength="143.1855" x="1382" y="517.5332">InvestigadorRepository</text></g><!--entity Recompensa--><g class="entity" data-qualified-name="abrirRecompensas.Recompensa" data-source-line="13" id="ent0011"><rect fill="#F2AC4E" height="37.6094" rx="2.5" ry="2.5" style="stroke:#181818;stroke-width:0.5;" width="102.4893" x="573.5" y="592"/><text fill="#000000" font-family="sans-serif" font-size="14" lengthAdjust="spacing" textLength="82.4893" x="583.5" y="616.5332">Recompensa</text></g><!--entity Proyecto--><g class="entity" data-qualified-name="abrirRecompensas.Proyecto" data-source-line="14" id="ent0012"><rect fill="#F2AC4E" height="37.6094" rx="2.5" ry="2.5" style="stroke:#181818;stroke-width:0.5;" width="75.248" x="1228" y="592"/><text fill="#000000" font-family="sans-serif" font-size="14" lengthAdjust="spacing" textLength="55.248" x="1238" y="616.5332">Proyecto</text></g><!--entity Investigador--><g class="entity" data-qualified-name="abrirRecompensas.Investigador" data-source-line="15" id="ent0013"><rect fill="#F2AC4E" height="37.6094" rx="2.5" ry="2.5" style="stroke:#181818;stroke-width:0.5;" width="96.2686" x="1405.5" y="592"/><text fill="#000000" font-family="sans-serif" font-size="14" lengthAdjust="spacing" textLength="76.2686" x="1415.5" y="616.5332">Investigador</text></g><!--entity EstadoEntrada1--><g class="entity" data-qualified-name="EstadoEntrada1" data-source-line="3" id="ent0001"><rect fill="#CDEBA5" height="37.6094" rx="2.5" ry="2.5" style="stroke:#181818;stroke-width:0.5;" width="191.1514" x="7" y="42"/><text fill="#000000" font-family="sans-serif" font-size="14" lengthAdjust="spacing" textLength="171.1514" x="17" y="66.5332">:RECOMPENSA_ABIERTA</text></g><!--entity EstadoEntrada2--><g class="entity" data-qualified-name="EstadoEntrada2" data-source-line="4" id="ent0002"><rect fill="#CDEBA5" height="37.6094" rx="2.5" ry="2.5" style="stroke:#181818;stroke-width:0.5;" width="220.7373" x="1694" y="42"/><text fill="#000000" font-family="sans-serif" font-size="14" lengthAdjust="spacing" textLength="200.7373" x="1704" y="66.5332">:PANEL_PRINCIPAL_ABIERTO</text></g><!--entity EstadoSalida--><g class="entity" data-qualified-name="EstadoSalida" data-source-line="18" id="ent0014"><rect fill="#CDEBA5" height="37.6094" rx="2.5" ry="2.5" style="stroke:#181818;stroke-width:0.5;" width="209.8271" x="1631.5" y="209.5"/><text fill="#000000" font-family="sans-serif" font-size="14" lengthAdjust="spacing" textLength="189.8271" x="1641.5" y="234.0332">:RECOMPENSAS_ABIERTAS</text></g><!--entity AbrirRecompensa--><g class="entity" data-qualified-name="AbrirRecompensa" data-source-line="19" id="ent0015"><rect fill="#CDEBA5" height="37.6094" rx="2.5" ry="2.5" style="stroke:#181818;stroke-width:0.5;" width="222.3232" x="1876.5" y="209.5"/><text fill="#000000" font-family="sans-serif" font-size="14" lengthAdjust="spacing" textLength="202.3232" x="1886.5" y="234.0332">:Collaboration AbrirRecompensa</text></g><!--entity AbrirPanelPrincipal--><g class="entity" data-qualified-name="AbrirPanelPrincipal" data-source-line="20" id="ent0016"><rect fill="#CDEBA5" height="37.6094" rx="2.5" ry="2.5" style="stroke:#181818;stroke-width:0.5;" width="229.3301" x="2134" y="209.5"/><text fill="#000000" font-family="sans-serif" font-size="14" lengthAdjust="spacing" textLength="209.3301" x="2144" y="234.0332">:Collaboration AbrirPanelPrincipal</text></g><g class="entity" data-qualified-name="GMN31" data-source-line="38" id="ent0032"><path d="M2398.5,158 L2398.5,298.8125 L2656.5342,298.8125 L2656.5342,168 L2646.5342,158 L2398.5,158" fill="#FEFFDD" style="stroke:#181818;stroke-width:0.5;"/><path d="M2646.5342,158 L2646.5342,168 L2656.5342,168 L2646.5342,158" fill="#FEFFDD" style="stroke:#181818;stroke-width:1;"/><text fill="#000000" font-family="sans-serif" font-size="13" lengthAdjust="spacing" textLength="107.6816" x="2404.5" y="176.4951">Contexto opcional:</text><text fill="#000000" font-family="sans-serif" font-size="13" lengthAdjust="spacing" textLength="182.8188" x="2404.5" y="192.8467">- sin identificador: listado propio</text><text fill="#000000" font-family="sans-serif" font-size="13" lengthAdjust="spacing" textLength="237.0342" x="2404.5" y="209.1982">- con identificador: listado propio acotado</text><text fill="#000000" font-family="sans-serif" font-size="13" lengthAdjust="spacing" textLength="3.6118" x="2404.5" y="225.5498">&#160;</text><text fill="#000000" font-family="sans-serif" font-size="13" lengthAdjust="spacing" textLength="44.0781" x="2404.5" y="241.9014">Reglas:</text><text fill="#000000" font-family="sans-serif" font-size="13" lengthAdjust="spacing" textLength="159.688" x="2404.5" y="258.2529">- solo recompensas propias</text><text fill="#000000" font-family="sans-serif" font-size="13" lengthAdjust="spacing" textLength="195.1143" x="2404.5" y="274.6045">- docente: economica o reduccion</text><text fill="#000000" font-family="sans-serif" font-size="13" lengthAdjust="spacing" textLength="169.8252" x="2404.5" y="290.9561">- no docente: solo economica</text></g><!--link EstadoEntrada1 to ListarRecompensasView--><g class="link" data-entity-1="ent0001" data-entity-2="ent0004" data-link-type="dependency" data-source-line="22" id="lnk17"><path d="M198.04,61 C449.11,61 1119.75,61 1361.22,61" fill="none" id="EstadoEntrada1-to-ListarRecompensasView" style="stroke:#181818;stroke-width:1;"/><polygon fill="#181818" points="1366.22,61,1357.22,57,1361.22,61,1357.22,65,1366.22,61" style="stroke:#181818;stroke-width:1;stroke-linejoin:miter;stroke-miterlimit:10;"/><text fill="#000000" font-family="sans-serif" font-size="13" lengthAdjust="spacing" textLength="204.4771" x="680.25" y="54.4951">abrirRecompensas(idRecompensa)</text></g><!--link EstadoEntrada2 to ListarRecompensasView--><g class="link" data-entity-1="ent0002" data-entity-2="ent0004" data-link-type="dependency" data-source-line="23" id="lnk18"><path d="M1693.78,61 C1644.38,61 1592.01,61 1545.72,61" fill="none" id="EstadoEntrada2-to-ListarRecompensasView" style="stroke:#181818;stroke-width:1;"/><polygon fill="#181818" points="1540.72,61,1549.72,65,1545.72,61,1549.72,57,1540.72,61" style="stroke:#181818;stroke-width:1;stroke-linejoin:miter;stroke-miterlimit:10;"/><text fill="#000000" font-family="sans-serif" font-size="13" lengthAdjust="spacing" textLength="117.7617" x="1558.75" y="54.4951">abrirRecompensas()</text></g><!--link ListarRecompensasView to RecompensaController--><g class="link" data-entity-1="ent0004" data-entity-2="ent0005" data-link-type="dependency" data-source-line="25" id="lnk19"><path d="M1366.28,72.65 C1250.5,86.79 1060.5,110 1060.5,110 C1060.5,110 1060.5,128 1060.5,128 C1060.5,128 1217.6165,179.2596 1305.5165,207.9296" fill="none" id="ListarRecompensasView-to-RecompensaController" style="stroke:#181818;stroke-width:1;"/><polygon fill="#181818" points="1310.27,209.48,1302.954,202.8864,1305.5165,207.9296,1300.4733,210.492,1310.27,209.48" style="stroke:#181818;stroke-width:1;stroke-linejoin:miter;stroke-miterlimit:10;"/><text fill="#000000" font-family="sans-serif" font-size="13" lengthAdjust="spacing" textLength="289.7451" x="1061.5" y="124.4951">listarRecompensasPropias(investigador, contexto)</text></g><!--link ListarRecompensasView to RecompensaController--><g class="link" data-entity-1="ent0004" data-entity-2="ent0005" data-link-type="dependency" data-source-line="28" id="lnk22"><path d="M1443.91,80.03 C1426.99,111.86 1394.3375,173.2653 1377.4175,205.0853" fill="none" id="ListarRecompensasView-to-RecompensaController-1" style="stroke:#181818;stroke-width:1;"/><polygon fill="#181818" points="1375.07,209.5,1382.8272,203.4315,1377.4175,205.0853,1375.7637,199.6756,1375.07,209.5" style="stroke:#181818;stroke-width:1;stroke-linejoin:miter;stroke-miterlimit:10;"/><text fill="#000000" font-family="sans-serif" font-size="13" lengthAdjust="spacing" textLength="203.728" x="1427.5" y="124.4951">filtrarRecompensasPropias(criterio)</text></g><!--link RecompensaController to RecompensaService--><g class="link" data-entity-1="ent0005" data-entity-2="ent0006" data-link-type="dependency" data-source-line="26" id="lnk20"><path d="M1326.2,247.52 C1263.67,276.19 1148.5,329 1148.5,329 C1148.5,329 1091.4595,355.324 1049.1195,374.874" fill="none" id="RecompensaController-to-RecompensaService" style="stroke:#181818;stroke-width:1;"/><polygon fill="#181818" points="1044.58,376.97,1054.4278,376.8287,1049.1195,374.874,1051.0742,369.5656,1044.58,376.97" style="stroke:#181818;stroke-width:1;stroke-linejoin:miter;stroke-miterlimit:10;"/><text fill="#000000" font-family="sans-serif" font-size="13" lengthAdjust="spacing" textLength="207.3525" x="1149.5" y="343.4951">listarPropias(investigadorId, criterio)</text></g><!--link RecompensaController to SesionService--><g class="link" data-entity-1="ent0005" data-entity-2="ent0007" data-link-type="dependency" data-source-line="27" id="lnk21"><path d="M1365.5,247.53 C1365.5,279.36 1365.5,340.18 1365.5,372" fill="none" id="RecompensaController-to-SesionService" style="stroke:#181818;stroke-width:1;"/><polygon fill="#181818" points="1365.5,377,1369.5,368,1365.5,372,1361.5,368,1365.5,377" style="stroke:#181818;stroke-width:1;stroke-linejoin:miter;stroke-miterlimit:10;"/><text fill="#000000" font-family="sans-serif" font-size="13" lengthAdjust="spacing" textLength="209.5806" x="1366.5" y="343.4951">obtenerSesionActual(authentication)</text></g><!--link RecompensaService to InvestigadorRepository--><g class="link" data-entity-1="ent0006" data-entity-2="ent0010" data-link-type="dependency" data-source-line="29" id="lnk23"><path d="M1080.43,406.54 C1190.38,420.54 1382.5,445 1382.5,445 C1382.5,445 1409.4188,470.0148 1430.4388,489.5648" fill="none" id="RecompensaService-to-InvestigadorRepository" style="stroke:#181818;stroke-width:1;"/><polygon fill="#181818" points="1434.1,492.97,1430.2339,483.9117,1430.4388,489.5648,1424.7856,489.7696,1434.1,492.97" style="stroke:#181818;stroke-width:1;stroke-linejoin:miter;stroke-miterlimit:10;"/><text fill="#000000" font-family="sans-serif" font-size="13" lengthAdjust="spacing" textLength="152.4644" x="1402.5" y="459.4951">obtenerPerfil(investigador)</text></g><!--link RecompensaService to RecompensaRepository--><g class="link" data-entity-1="ent0006" data-entity-2="ent0008" data-link-type="dependency" data-source-line="30" id="lnk24"><path d="M930.86,401.82 C742.44,413.99 262.5,445 262.5,445 C262.5,445 262.5,463 262.5,463 C262.5,463 427.6734,484.9027 534.6734,499.0927" fill="none" id="RecompensaService-to-RecompensaRepository" style="stroke:#181818;stroke-width:1;"/><polygon fill="#181818" points="539.63,499.75,531.234,494.6015,534.6734,499.0927,530.1823,502.5321,539.63,499.75" style="stroke:#181818;stroke-width:1;stroke-linejoin:miter;stroke-miterlimit:10;"/><text fill="#000000" font-family="sans-serif" font-size="13" lengthAdjust="spacing" textLength="317.9414" x="263.5" y="459.4951">obtenerPropiasDeProyectosCompletados(investigador)</text></g><!--link RecompensaService to RecompensaRepository--><g class="link" data-entity-1="ent0006" data-entity-2="ent0008" data-link-type="dependency" data-source-line="31" id="lnk25"><path d="M930.55,406.37 C818.8,420.34 621.5,445 621.5,445 C621.5,445 621.5,463 621.5,463 C621.5,463 622.2079,474.2698 623.0579,487.8598" fill="none" id="RecompensaService-to-RecompensaRepository-1" style="stroke:#181818;stroke-width:1;"/><polygon fill="#181818" points="623.37,492.85,626.8004,483.6179,623.0579,487.8598,618.816,484.1172,623.37,492.85" style="stroke:#181818;stroke-width:1;stroke-linejoin:miter;stroke-miterlimit:10;"/><text fill="#000000" font-family="sans-serif" font-size="13" lengthAdjust="spacing" textLength="295.5532" x="622.5" y="459.4951">obtenerPropiasPorContexto(investigador, contexto)</text></g><!--link RecompensaService to RecompensaRepository--><g class="link" data-entity-1="ent0006" data-entity-2="ent0008" data-link-type="dependency" data-source-line="32" id="lnk26"><path d="M982.82,415.03 C958.25,434.58 922.5,463 922.5,463 C922.5,463 802.1364,482.3849 714.0364,496.5749" fill="none" id="RecompensaService-to-RecompensaRepository-2" style="stroke:#181818;stroke-width:1;"/><polygon fill="#181818" points="709.1,497.37,718.6216,499.8879,714.0364,496.5749,717.3494,491.9897,709.1,497.37" style="stroke:#181818;stroke-width:1;stroke-linejoin:miter;stroke-miterlimit:10;"/><text fill="#000000" font-family="sans-serif" font-size="13" lengthAdjust="spacing" textLength="270.207" x="945.5" y="459.4951">buscarPropiasPorCriterio(investigador, criterio)</text></g><!--link RecompensaService to ProyectoRepository--><g class="link" data-entity-1="ent0006" data-entity-2="ent0009" data-link-type="dependency" data-source-line="33" id="lnk27"><path d="M1080.17,412.65 C1146.99,426.66 1234.5,445 1234.5,445 C1234.5,445 1245.7248,468.8941 1254.9048,488.4441" fill="none" id="RecompensaService-to-ProyectoRepository" style="stroke:#181818;stroke-width:1;"/><polygon fill="#181818" points="1257.03,492.97,1256.8254,483.1233,1254.9048,488.4441,1249.584,486.5236,1257.03,492.97" style="stroke:#181818;stroke-width:1;stroke-linejoin:miter;stroke-miterlimit:10;"/><text fill="#000000" font-family="sans-serif" font-size="13" lengthAdjust="spacing" textLength="130.7617" x="1243.5" y="459.4951">verificarCompletados()</text></g><!--link RecompensaRepository to Recompensa--><g class="link" data-entity-1="ent0008" data-entity-2="ent0011" data-link-type="association" data-source-line="34" id="lnk28"><path d="M624.5,531.24 C624.5,548.59 624.5,574.52 624.5,591.84" fill="none" id="RecompensaRepository-Recompensa" style="stroke:#181818;stroke-width:1;"/></g><!--link ProyectoRepository to Proyecto--><g class="link" data-entity-1="ent0009" data-entity-2="ent0012" data-link-type="association" data-source-line="35" id="lnk29"><path d="M1265.5,531.24 C1265.5,548.59 1265.5,574.52 1265.5,591.84" fill="none" id="ProyectoRepository-Proyecto" style="stroke:#181818;stroke-width:1;"/></g><!--link InvestigadorRepository to Investigador--><g class="link" data-entity-1="ent0010" data-entity-2="ent0013" data-link-type="association" data-source-line="36" id="lnk30"><path d="M1453.5,531.24 C1453.5,548.59 1453.5,574.52 1453.5,591.84" fill="none" id="InvestigadorRepository-Investigador" style="stroke:#181818;stroke-width:1;"/></g><!--link RecompensaController to GMN31--><g class="link" data-entity-1="ent0005" data-entity-2="ent0032" data-link-type="association" data-source-line="38" id="lnk33"><path d="M1411.92,209.43 C1488.27,178.05 1632,119 1632,119 C1632,119 2363,119 2363,119 C2363,119 2389.63,136.73 2421.46,157.91" fill="none" id="RecompensaController-GMN31" style="stroke:#181818;stroke-width:1;stroke-dasharray:7,7;"/></g><!--link ListarRecompensasView to EstadoSalida--><g class="link" data-entity-1="ent0004" data-entity-2="ent0014" data-link-type="dependency" data-source-line="47" id="lnk34"><path d="M1523.29,80.01 C1576.07,93.63 1639.5,110 1639.5,110 C1639.5,110 1691.1668,172.5842 1718.3768,205.5442" fill="none" id="ListarRecompensasView-to-EstadoSalida" style="stroke:#181818;stroke-width:1;stroke-dasharray:7,7;"/><polygon fill="#181818" points="1721.56,209.4,1718.915,199.913,1718.3768,205.5442,1712.7456,205.006,1721.56,209.4" style="stroke:#181818;stroke-width:1;stroke-linejoin:miter;stroke-miterlimit:10;"/><text fill="#000000" font-family="sans-serif" font-size="13" lengthAdjust="spacing" textLength="130.7935" x="1654.5" y="124.4951">continuarNavegacion()</text></g><!--link ListarRecompensasView to AbrirRecompensa--><g class="link" data-entity-1="ent0004" data-entity-2="ent0015" data-link-type="dependency" data-source-line="48" id="lnk35"><path d="M1540.62,74.3 C1641.35,88.52 1793.5,110 1793.5,110 C1793.5,110 1898.9133,173.8497 1953.3333,206.8097" fill="none" id="ListarRecompensasView-to-AbrirRecompensa" style="stroke:#181818;stroke-width:1;stroke-dasharray:7,7;"/><polygon fill="#181818" points="1957.61,209.4,1951.9841,201.3161,1953.3333,206.8097,1947.8396,208.1589,1957.61,209.4" style="stroke:#181818;stroke-width:1;stroke-linejoin:miter;stroke-miterlimit:10;"/><text fill="#000000" font-family="sans-serif" font-size="13" lengthAdjust="spacing" textLength="111.2617" x="1822.5" y="124.4951">abrirRecompensa()</text></g><!--link ListarRecompensasView to AbrirPanelPrincipal--><g class="link" data-entity-1="ent0004" data-entity-2="ent0016" data-link-type="dependency" data-source-line="49" id="lnk36"><path d="M1540.64,70.55 C1681.23,84.35 1942.5,110 1942.5,110 C1942.5,110 2116.5,158 2116.5,158 C2116.5,158 2170.6257,186.5008 2209.7357,207.0908" fill="none" id="ListarRecompensasView-to-AbrirPanelPrincipal" style="stroke:#181818;stroke-width:1;stroke-dasharray:7,7;"/><polygon fill="#181818" points="2214.16,209.42,2208.0596,201.6879,2209.7357,207.0908,2204.3328,208.7668,2214.16,209.42" style="stroke:#181818;stroke-width:1;stroke-linejoin:miter;stroke-miterlimit:10;"/><text fill="#000000" font-family="sans-serif" font-size="13" lengthAdjust="spacing" textLength="117.7681" x="2004.5" y="124.4951">abrirPanelPrincipal()</text></g><?plantuml-src hPNVQzim4CVVzLSSsKi2Is5XBQiV2gxhGg1BJLBsMXJvceggaf6LR67iVzyfTM8xaUiE5lBYy_S-EjqlbozI5zpoLr1IeziM28LHM__0c4NXk5ufX4_9JNeTdyCWcgV9_VSidItYn_XwciuVuW7m4jBIyToasbcUyoz1pooUfNUFsNmwIwPPV5Uvtv-wJrZ1nGjV8V2bbNQEmhmMg4lIqNzmR1oE1l2R0VqQfrvCBjFRIxYJ16wAVqZyUQnTdY_pYszGgn93WHYbqFPA5sWtKc27Re6bDBf3Spk9awzfWpN7mfJI6Rlja6RMRCbeUeLJlS7IoHNbrFQAwm1wZlt0OUnFNzSizcspQ1H-mPNCUT0peJhmfR7SKIOXRjT-XpYoVPIISOqgir8BMN1LazfsnjgT3MCxlWgtLNJIhaEPrq-ZDcdoRwGHOq4fZ7EYX5eteea-Sg125jA7rQZOPn3aWh-S6R4G1iOjVjNBUtY8ECs9QQL3AzzZjcOZ0hDqgD6-MMFXrbmD-TezetPIxCeswif0PmAUfA9SXp8GYgyAPSSB3z0XoWmjiLktxYA5nhlcl8LpW_iHAnCIA_HzKlutV6PiKjNu0wNlfo_NfU1DU9NCOtXFZa-tMGGRSdYYUjjc7fg0MaoCvkewfNd1ONM52-ebhVMbZKEmSlNim3o5lmZxL88f17KbLn4RGoaroDptge-UIDM0v0OAdoT36ahs-nhWmlX7HlTTALxkm4OPltCFNy3YBUtqAZU2O3Gwz5QRLsA2b-PhuUCYWJQrPiSv21dg7FnTEqRgxEogjPcZNQT8lUPsnZUuulw4uUWTxwEbVBBH-ftRUxW2j8q4-Gi0?></g></svg>