<svg xmlns="http://www.w3.org/2000/svg" xmlns:xlink="http://www.w3.org/1999/xlink" contentStyleType="text/css" data-diagram-type="DESCRIPTION" height="442px" preserveAspectRatio="none" style="width:1365px;height:442px;background:#FFFFFF;" version="1.1" viewBox="0 0 1365 442" width="1365px" zoomAndPan="magnify"><?plantuml 1.2026.4?><defs/><g><!--cluster abrirRecompensas--><g class="cluster" data-qualified-name="abrirRecompensas" data-source-line="4" id="ent0002"><path d="M217,6 L353.3789,6 A3.75,3.75 0 0 1 355.8789,8.5 L362.8789,29.6094 L601,29.6094 A2.5,2.5 0 0 1 603.5,32.1094 L603.5,424.5 A2.5,2.5 0 0 1 601,427 L217,427 A2.5,2.5 0 0 1 214.5,424.5 L214.5,8.5 A2.5,2.5 0 0 1 217,6" fill="none" style="stroke:#000000;stroke-width:1.5;"/><line style="stroke:#000000;stroke-width:1.5;" x1="214.5" x2="362.8789" y1="29.6094" y2="29.6094"/><text fill="#000000" font-family="sans-serif" font-size="14" font-weight="700" lengthAdjust="spacing" textLength="135.3789" x="218.5" y="22.5332">abrirRecompensas()</text></g><!--entity ListarRecompensasView--><g class="entity" data-qualified-name="abrirRecompensas.ListarRecompensasView" data-source-line="5" id="ent0003"><rect fill="#629EF9" height="37.6094" rx="2.5" ry="2.5" style="stroke:#181818;stroke-width:0.5;" width="174.0684" x="382.5" y="42"/><text fill="#000000" font-family="sans-serif" font-size="14" lengthAdjust="spacing" textLength="154.0684" x="392.5" y="66.5332">ListarRecompensasView</text></g><!--entity RecompensaController--><g class="entity" data-qualified-name="abrirRecompensas.RecompensaController" data-source-line="6" id="ent0004"><rect fill="#B5BD68" height="37.6094" rx="2.5" ry="2.5" style="stroke:#181818;stroke-width:0.5;" width="163.1787" x="272" y="158"/><text fill="#000000" font-family="sans-serif" font-size="14" lengthAdjust="spacing" textLength="143.1787" x="282" y="182.5332">RecompensaController</text></g><!--entity RecompensaRepository--><g class="entity" data-qualified-name="abrirRecompensas.RecompensaRepository" data-source-line="7" id="ent0005"><rect fill="#F2AC4E" height="37.6094" rx="2.5" ry="2.5" style="stroke:#181818;stroke-width:0.5;" width="169.4063" x="281" y="274"/><text fill="#000000" font-family="sans-serif" font-size="14" lengthAdjust="spacing" textLength="149.4063" x="291" y="298.5332">RecompensaRepository</text></g><!--entity Recompensa--><g class="entity" data-qualified-name="abrirRecompensas.Recompensa" data-source-line="8" id="ent0006"><rect fill="#F2AC4E" height="37.6094" rx="2.5" ry="2.5" style="stroke:#181818;stroke-width:0.5;" width="102.4893" x="314.5" y="373"/><text fill="#000000" font-family="sans-serif" font-size="14" lengthAdjust="spacing" textLength="82.4893" x="324.5" y="397.5332">Recompensa</text></g><!--entity EstadoEntrada--><g class="entity" data-qualified-name="EstadoEntrada" data-source-line="3" id="ent0001"><rect fill="#CDEBA5" height="37.6094" rx="2.5" ry="2.5" style="stroke:#181818;stroke-width:0.5;" width="191.1514" x="7" y="42"/><text fill="#000000" font-family="sans-serif" font-size="14" lengthAdjust="spacing" textLength="171.1514" x="17" y="66.5332">:RECOMPENSA_ABIERTA</text></g><!--entity EstadoSalida--><g class="entity" data-qualified-name="EstadoSalida" data-source-line="11" id="ent0007"><rect fill="#CDEBA5" height="37.6094" rx="2.5" ry="2.5" style="stroke:#181818;stroke-width:0.5;" width="209.8271" x="619.5" y="158"/><text fill="#000000" font-family="sans-serif" font-size="14" lengthAdjust="spacing" textLength="189.8271" x="629.5" y="182.5332">:RECOMPENSAS_ABIERTAS</text></g><!--entity AbrirRecompensa--><g class="entity" data-qualified-name="AbrirRecompensa" data-source-line="12" id="ent0008"><rect fill="#CDEBA5" height="37.6094" rx="2.5" ry="2.5" style="stroke:#181818;stroke-width:0.5;" width="222.3232" x="864.5" y="158"/><text fill="#000000" font-family="sans-serif" font-size="14" lengthAdjust="spacing" textLength="202.3232" x="874.5" y="182.5332">:Collaboration AbrirRecompensa</text></g><!--entity AbrirPanelPrincipal--><g class="entity" data-qualified-name="AbrirPanelPrincipal" data-source-line="13" id="ent0009"><rect fill="#CDEBA5" height="37.6094" rx="2.5" ry="2.5" style="stroke:#181818;stroke-width:0.5;" width="229.3301" x="1122" y="158"/><text fill="#000000" font-family="sans-serif" font-size="14" lengthAdjust="spacing" textLength="209.3301" x="1132" y="182.5332">:Collaboration AbrirPanelPrincipal</text></g><!--link EstadoEntrada to ListarRecompensasView--><g class="link" data-entity-1="ent0001" data-entity-2="ent0003" data-link-type="dependency" data-source-line="15" id="lnk10"><path d="M198.45,61 C255.36,61 321.96,61 377.28,61" fill="none" id="EstadoEntrada-to-ListarRecompensasView" style="stroke:#181818;stroke-width:1;"/><polygon fill="#181818" points="382.28,61,373.28,57,377.28,61,373.28,65,382.28,61" style="stroke:#181818;stroke-width:1;stroke-linejoin:miter;stroke-miterlimit:10;"/><text fill="#000000" font-family="sans-serif" font-size="13" lengthAdjust="spacing" textLength="117.7617" x="231.75" y="54.4951">abrirRecompensas()</text></g><!--link ListarRecompensasView to RecompensaController--><g class="link" data-entity-1="ent0003" data-entity-2="ent0004" data-link-type="dependency" data-source-line="17" id="lnk11"><path d="M391.83,80.01 C333.09,93.63 262.5,110 262.5,110 C262.5,110 262.5,128 262.5,128 C262.5,128 289.1072,142.0379 314.9372,155.6579" fill="none" id="ListarRecompensasView-to-RecompensaController" style="stroke:#181818;stroke-width:1;"/><polygon fill="#181818" points="319.36,157.99,313.2646,150.2539,314.9372,155.6579,309.5333,157.3304,319.36,157.99" style="stroke:#181818;stroke-width:1;stroke-linejoin:miter;stroke-miterlimit:10;"/><text fill="#000000" font-family="sans-serif" font-size="13" lengthAdjust="spacing" textLength="119.2026" x="263.5" y="124.4951">listarRecompensas()</text></g><!--link ListarRecompensasView to RecompensaController--><g class="link" data-entity-1="ent0003" data-entity-2="ent0004" data-link-type="dependency" data-source-line="18" id="lnk12"><path d="M451.12,80.06 C429.53,101.28 397.4666,132.7958 375.7466,154.1358" fill="none" id="ListarRecompensasView-to-RecompensaController-1" style="stroke:#181818;stroke-width:1;"/><polygon fill="#181818" points="372.18,157.64,381.4032,154.1857,375.7466,154.1358,375.7965,148.4792,372.18,157.64" style="stroke:#181818;stroke-width:1;stroke-linejoin:miter;stroke-miterlimit:10;"/><text fill="#000000" font-family="sans-serif" font-size="13" lengthAdjust="spacing" textLength="159.6499" x="418.5" y="124.4951">filtrarRecompensas(criterio)</text></g><!--link RecompensaController to RecompensaRepository--><g class="link" data-entity-1="ent0004" data-entity-2="ent0005" data-link-type="dependency" data-source-line="19" id="lnk13"><path d="M327.04,196.15 C307.21,209.74 283.5,226 283.5,226 C283.5,226 283.5,244 283.5,244 C283.5,244 306.9647,257.7344 330.1847,271.3244" fill="none" id="RecompensaController-to-RecompensaRepository" style="stroke:#181818;stroke-width:1;"/><polygon fill="#181818" points="334.5,273.85,328.753,265.8517,330.1847,271.3244,324.7121,272.7561,334.5,273.85" style="stroke:#181818;stroke-width:1;stroke-linejoin:miter;stroke-miterlimit:10;"/><text fill="#000000" font-family="sans-serif" font-size="13" lengthAdjust="spacing" textLength="88.8799" x="284.5" y="240.4951">obtenerTodos()</text></g><!--link RecompensaController to RecompensaRepository--><g class="link" data-entity-1="ent0004" data-entity-2="ent0005" data-link-type="dependency" data-source-line="20" id="lnk14"><path d="M362.57,196.15 C369.37,209.74 377.5,226 377.5,226 C377.5,226 377.5,244 377.5,244 C377.5,244 374.6402,255.4087 371.2502,268.9987" fill="none" id="RecompensaController-to-RecompensaRepository-1" style="stroke:#181818;stroke-width:1;"/><polygon fill="#181818" points="370.04,273.85,376.0994,266.0857,371.2502,268.9987,368.3372,264.1495,370.04,273.85" style="stroke:#181818;stroke-width:1;stroke-linejoin:miter;stroke-miterlimit:10;"/><text fill="#000000" font-family="sans-serif" font-size="13" lengthAdjust="spacing" textLength="148.8081" x="378.5" y="240.4951">buscarPorCriterio(criterio)</text></g><!--link RecompensaRepository to Recompensa--><g class="link" data-entity-1="ent0005" data-entity-2="ent0006" data-link-type="association" data-source-line="21" id="lnk15"><path d="M365.5,312.24 C365.5,329.59 365.5,355.52 365.5,372.84" fill="none" id="RecompensaRepository-Recompensa" style="stroke:#181818;stroke-width:1;"/></g><!--link ListarRecompensasView to EstadoSalida--><g class="link" data-entity-1="ent0003" data-entity-2="ent0007" data-link-type="dependency" data-source-line="22" id="lnk16"><path d="M513.4,80.01 C546.6,93.63 586.5,110 586.5,110 C586.5,110 641.4197,136.262 682.2797,155.812" fill="none" id="ListarRecompensasView-to-EstadoSalida" style="stroke:#181818;stroke-width:1;stroke-dasharray:7,7;"/><polygon fill="#181818" points="686.79,157.97,680.3978,150.4773,682.2797,155.812,676.945,157.6938,686.79,157.97" style="stroke:#181818;stroke-width:1;stroke-linejoin:miter;stroke-miterlimit:10;"/><text fill="#000000" font-family="sans-serif" font-size="13" lengthAdjust="spacing" textLength="130.7935" x="624.5" y="124.4951">continuarNavegacion()</text></g><!--link ListarRecompensasView to AbrirRecompensa--><g class="link" data-entity-1="ent0003" data-entity-2="ent0008" data-link-type="dependency" data-source-line="23" id="lnk17"><path d="M556.52,76.21 C643.21,90.36 763.5,110 763.5,110 C763.5,110 850.0262,136.9332 912.7962,156.4832" fill="none" id="ListarRecompensasView-to-AbrirRecompensa" style="stroke:#181818;stroke-width:1;stroke-dasharray:7,7;"/><polygon fill="#181818" points="917.57,157.97,910.1666,151.4747,912.7962,156.4832,907.7877,159.1128,917.57,157.97" style="stroke:#181818;stroke-width:1;stroke-linejoin:miter;stroke-miterlimit:10;"/><text fill="#000000" font-family="sans-serif" font-size="13" lengthAdjust="spacing" textLength="111.2617" x="820.5" y="124.4951">abrirRecompensa()</text></g><!--link ListarRecompensasView to AbrirPanelPrincipal--><g class="link" data-entity-1="ent0003" data-entity-2="ent0009" data-link-type="dependency" data-source-line="24" id="lnk18"><path d="M556.71,70.89 C692.86,84.76 940.5,110 940.5,110 C940.5,110 1063.0999,137.3314 1150.7399,156.8814" fill="none" id="ListarRecompensasView-to-AbrirPanelPrincipal" style="stroke:#181818;stroke-width:1;stroke-dasharray:7,7;"/><polygon fill="#181818" points="1155.62,157.97,1147.7068,152.1065,1150.7399,156.8814,1145.965,159.9146,1155.62,157.97" style="stroke:#181818;stroke-width:1;stroke-linejoin:miter;stroke-miterlimit:10;"/><text fill="#000000" font-family="sans-serif" font-size="13" lengthAdjust="spacing" textLength="117.7681" x="1020.5" y="124.4951">abrirPanelPrincipal()</text></g><?plantuml-src bP9FIyD04CNl-oc6UB67zb1iiJaKqhW5GMj8nAjCDcjPkjqDawrInE_kLYhvqvJgaiiEx_rsycQgZJ8b4cv1AoFTlfHGMhq_N1WZAHoQjPPm5T_nHJI184nv_FIOy5KMlKQBUvu-Hm5W1RnoM5Xk7661h4InmRK4p4bHAeNTbj9KNkQ_e5ky7WJmoS2VndlJyOmlP_2WFBSfVb7oewlD9tanlOLQ5LlVXzLQKbUw74Vn3Mz8KrdQIZbB-ujIzdKfaUmtagoHIOPQ-KZwdB7l4NDBw9Gr4BLp-K5qQd-b96YaJaWPeKhKDQbTPwmrDHZISDwVU0YdGsEiLmh3mbFwPX7w5UiOFEKCv2pZJMdVRGiYI3b9oWvOdwN3gWSUWisTD9AURM4FhVpJdUygWPHOYe_lzpPIEpogkKtzFpuQpLjx4uBmlIYpGrhXkroZy4C-6zl1tLcPaz5TDhUtv0Xe5pta6m00?></g></svg>