<svg xmlns="http://www.w3.org/2000/svg" xmlns:xlink="http://www.w3.org/1999/xlink" contentStyleType="text/css" data-diagram-type="DESCRIPTION" height="545px" preserveAspectRatio="none" style="width:2671px;height:545px;background:#FFFFFF;" version="1.1" viewBox="0 0 2671 545" width="2671px" zoomAndPan="magnify"><?plantuml 1.2026.5?><defs/><g><!--cluster abrirRecompensas--><g class="cluster" data-qualified-name="abrirRecompensas" data-source-line="5" id="ent0003"><path d="M217,6 L353.3789,6 A3.75,3.75 0 0 1 355.8789,8.5 L362.8789,29.6094 L1613,29.6094 A2.5,2.5 0 0 1 1615.5,32.1094 L1615.5,527.5 A2.5,2.5 0 0 1 1613,530 L217,530 A2.5,2.5 0 0 1 214.5,527.5 L214.5,8.5 A2.5,2.5 0 0 1 217,6" fill="none" style="stroke:#000000;stroke-width:1.5;"/><line style="stroke:#000000;stroke-width:1.5;" x1="214.5" x2="362.8789" y1="29.6094" y2="29.6094"/><text fill="#000000" font-family="sans-serif" font-size="14" font-weight="700" lengthAdjust="spacing" textLength="135.3789" x="218.5" y="22.5332">abrirRecompensas()</text></g><!--entity ListarRecompensasView--><g class="entity" data-qualified-name="abrirRecompensas.ListarRecompensasView" data-source-line="6" id="ent0004"><rect fill="#629EF9" height="37.6094" rx="2.5" ry="2.5" style="stroke:#181818;stroke-width:0.5;" width="174.0684" x="1366.5" y="42"/><text fill="#000000" font-family="sans-serif" font-size="14" lengthAdjust="spacing" textLength="154.0684" x="1376.5" y="66.5332">ListarRecompensasView</text></g><!--entity RecompensaController--><g class="entity" data-qualified-name="abrirRecompensas.RecompensaController" data-source-line="7" id="ent0005"><rect fill="#B5BD68" height="37.6094" rx="2.5" ry="2.5" style="stroke:#181818;stroke-width:0.5;" width="163.1787" x="1087" y="209.5"/><text fill="#000000" font-family="sans-serif" font-size="14" lengthAdjust="spacing" textLength="143.1787" x="1097" y="234.0332">RecompensaController</text></g><!--entity RecompensaRepository--><g class="entity" data-qualified-name="abrirRecompensas.RecompensaRepository" data-source-line="8" id="ent0006"><rect fill="#F2AC4E" height="37.6094" rx="2.5" ry="2.5" style="stroke:#181818;stroke-width:0.5;" width="169.4063" x="540" y="377"/><text fill="#000000" font-family="sans-serif" font-size="14" lengthAdjust="spacing" textLength="149.4063" x="550" y="401.5332">RecompensaRepository</text></g><!--entity ProyectoRepository--><g class="entity" data-qualified-name="abrirRecompensas.ProyectoRepository" data-source-line="9" id="ent0007"><rect fill="#F2AC4E" height="37.6094" rx="2.5" ry="2.5" style="stroke:#181818;stroke-width:0.5;" width="142.165" x="1194.5" y="377"/><text fill="#000000" font-family="sans-serif" font-size="14" lengthAdjust="spacing" textLength="122.165" x="1204.5" y="401.5332">ProyectoRepository</text></g><!--entity InvestigadorRepository--><g class="entity" data-qualified-name="abrirRecompensas.InvestigadorRepository" data-source-line="10" id="ent0008"><rect fill="#F2AC4E" height="37.6094" rx="2.5" ry="2.5" style="stroke:#181818;stroke-width:0.5;" width="163.1855" x="1372" y="377"/><text fill="#000000" font-family="sans-serif" font-size="14" lengthAdjust="spacing" textLength="143.1855" x="1382" y="401.5332">InvestigadorRepository</text></g><!--entity Recompensa--><g class="entity" data-qualified-name="abrirRecompensas.Recompensa" data-source-line="11" id="ent0009"><rect fill="#F2AC4E" height="37.6094" rx="2.5" ry="2.5" style="stroke:#181818;stroke-width:0.5;" width="102.4893" x="573.5" y="476"/><text fill="#000000" font-family="sans-serif" font-size="14" lengthAdjust="spacing" textLength="82.4893" x="583.5" y="500.5332">Recompensa</text></g><!--entity Proyecto--><g class="entity" data-qualified-name="abrirRecompensas.Proyecto" data-source-line="12" id="ent0010"><rect fill="#F2AC4E" height="37.6094" rx="2.5" ry="2.5" style="stroke:#181818;stroke-width:0.5;" width="75.248" x="1228" y="476"/><text fill="#000000" font-family="sans-serif" font-size="14" lengthAdjust="spacing" textLength="55.248" x="1238" y="500.5332">Proyecto</text></g><!--entity Investigador--><g class="entity" data-qualified-name="abrirRecompensas.Investigador" data-source-line="13" id="ent0011"><rect fill="#F2AC4E" height="37.6094" rx="2.5" ry="2.5" style="stroke:#181818;stroke-width:0.5;" width="96.2686" x="1405.5" y="476"/><text fill="#000000" font-family="sans-serif" font-size="14" lengthAdjust="spacing" textLength="76.2686" x="1415.5" y="500.5332">Investigador</text></g><!--entity EstadoEntrada1--><g class="entity" data-qualified-name="EstadoEntrada1" data-source-line="3" id="ent0001"><rect fill="#CDEBA5" height="37.6094" rx="2.5" ry="2.5" style="stroke:#181818;stroke-width:0.5;" width="191.1514" x="7" y="42"/><text fill="#000000" font-family="sans-serif" font-size="14" lengthAdjust="spacing" textLength="171.1514" x="17" y="66.5332">:RECOMPENSA_ABIERTA</text></g><!--entity EstadoEntrada2--><g class="entity" data-qualified-name="EstadoEntrada2" data-source-line="4" id="ent0002"><rect fill="#CDEBA5" height="37.6094" rx="2.5" ry="2.5" style="stroke:#181818;stroke-width:0.5;" width="220.7373" x="1694" y="42"/><text fill="#000000" font-family="sans-serif" font-size="14" lengthAdjust="spacing" textLength="200.7373" x="1704" y="66.5332">:PANEL_PRINCIPAL_ABIERTO</text></g><!--entity EstadoSalida--><g class="entity" data-qualified-name="EstadoSalida" data-source-line="16" id="ent0012"><rect fill="#CDEBA5" height="37.6094" rx="2.5" ry="2.5" style="stroke:#181818;stroke-width:0.5;" width="209.8271" x="1631.5" y="209.5"/><text fill="#000000" font-family="sans-serif" font-size="14" lengthAdjust="spacing" textLength="189.8271" x="1641.5" y="234.0332">:RECOMPENSAS_ABIERTAS</text></g><!--entity AbrirRecompensa--><g class="entity" data-qualified-name="AbrirRecompensa" data-source-line="17" id="ent0013"><rect fill="#CDEBA5" height="37.6094" rx="2.5" ry="2.5" style="stroke:#181818;stroke-width:0.5;" width="222.3232" x="1876.5" y="209.5"/><text fill="#000000" font-family="sans-serif" font-size="14" lengthAdjust="spacing" textLength="202.3232" x="1886.5" y="234.0332">:Collaboration AbrirRecompensa</text></g><!--entity AbrirPanelPrincipal--><g class="entity" data-qualified-name="AbrirPanelPrincipal" data-source-line="18" id="ent0014"><rect fill="#CDEBA5" height="37.6094" rx="2.5" ry="2.5" style="stroke:#181818;stroke-width:0.5;" width="229.3301" x="2134" y="209.5"/><text fill="#000000" font-family="sans-serif" font-size="14" lengthAdjust="spacing" textLength="209.3301" x="2144" y="234.0332">:Collaboration AbrirPanelPrincipal</text></g><g class="entity" data-qualified-name="GMN27" data-source-line="34" id="ent0028"><path d="M2398.5,158 L2398.5,298.8125 L2656.5342,298.8125 L2656.5342,168 L2646.5342,158 L2398.5,158" fill="#FEFFDD" style="stroke:#181818;stroke-width:0.5;"/><path d="M2646.5342,158 L2646.5342,168 L2656.5342,168 L2646.5342,158" fill="#FEFFDD" style="stroke:#181818;stroke-width:1;"/><text fill="#000000" font-family="sans-serif" font-size="13" lengthAdjust="spacing" textLength="107.6816" x="2404.5" y="176.4951">Contexto opcional:</text><text fill="#000000" font-family="sans-serif" font-size="13" lengthAdjust="spacing" textLength="182.8188" x="2404.5" y="192.8467">- sin identificador: listado propio</text><text fill="#000000" font-family="sans-serif" font-size="13" lengthAdjust="spacing" textLength="237.0342" x="2404.5" y="209.1982">- con identificador: listado propio acotado</text><text fill="#000000" font-family="sans-serif" font-size="13" lengthAdjust="spacing" textLength="3.6118" x="2404.5" y="225.5498">&#160;</text><text fill="#000000" font-family="sans-serif" font-size="13" lengthAdjust="spacing" textLength="44.0781" x="2404.5" y="241.9014">Reglas:</text><text fill="#000000" font-family="sans-serif" font-size="13" lengthAdjust="spacing" textLength="159.688" x="2404.5" y="258.2529">- solo recompensas propias</text><text fill="#000000" font-family="sans-serif" font-size="13" lengthAdjust="spacing" textLength="195.1143" x="2404.5" y="274.6045">- docente: economica o reduccion</text><text fill="#000000" font-family="sans-serif" font-size="13" lengthAdjust="spacing" textLength="169.8252" x="2404.5" y="290.9561">- no docente: solo economica</text></g><!--link EstadoEntrada1 to ListarRecompensasView--><g class="link" data-entity-1="ent0001" data-entity-2="ent0004" data-link-type="dependency" data-source-line="20" id="lnk15"><path d="M198.04,61 C449.11,61 1119.75,61 1361.22,61" fill="none" id="EstadoEntrada1-to-ListarRecompensasView" style="stroke:#181818;stroke-width:1;"/><polygon fill="#181818" points="1366.22,61,1357.22,57,1361.22,61,1357.22,65,1366.22,61" style="stroke:#181818;stroke-width:1;stroke-linejoin:miter;stroke-miterlimit:10;"/><text fill="#000000" font-family="sans-serif" font-size="13" lengthAdjust="spacing" textLength="204.4771" x="680.25" y="54.4951">abrirRecompensas(idRecompensa)</text></g><!--link EstadoEntrada2 to ListarRecompensasView--><g class="link" data-entity-1="ent0002" data-entity-2="ent0004" data-link-type="dependency" data-source-line="21" id="lnk16"><path d="M1693.78,61 C1644.38,61 1592.01,61 1545.72,61" fill="none" id="EstadoEntrada2-to-ListarRecompensasView" style="stroke:#181818;stroke-width:1;"/><polygon fill="#181818" points="1540.72,61,1549.72,65,1545.72,61,1549.72,57,1540.72,61" style="stroke:#181818;stroke-width:1;stroke-linejoin:miter;stroke-miterlimit:10;"/><text fill="#000000" font-family="sans-serif" font-size="13" lengthAdjust="spacing" textLength="117.7617" x="1558.75" y="54.4951">abrirRecompensas()</text></g><!--link ListarRecompensasView to RecompensaController--><g class="link" data-entity-1="ent0004" data-entity-2="ent0005" data-link-type="dependency" data-source-line="23" id="lnk17"><path d="M1366.28,72.65 C1250.5,86.79 1060.5,110 1060.5,110 C1060.5,110 1060.5,128 1060.5,128 C1060.5,128 1114.1427,177.4222 1145.2627,206.0922" fill="none" id="ListarRecompensasView-to-RecompensaController" style="stroke:#181818;stroke-width:1;"/><polygon fill="#181818" points="1148.94,209.48,1145.0311,200.4401,1145.2627,206.0922,1139.6106,206.3238,1148.94,209.48" style="stroke:#181818;stroke-width:1;stroke-linejoin:miter;stroke-miterlimit:10;"/><text fill="#000000" font-family="sans-serif" font-size="13" lengthAdjust="spacing" textLength="289.7451" x="1061.5" y="124.4951">listarRecompensasPropias(investigador, contexto)</text></g><!--link ListarRecompensasView to RecompensaController--><g class="link" data-entity-1="ent0004" data-entity-2="ent0005" data-link-type="dependency" data-source-line="24" id="lnk18"><path d="M1426.72,80.03 C1397.71,99.58 1355.5,128 1355.5,128 C1355.5,128 1260.6642,178.4616 1206.7742,207.1316" fill="none" id="ListarRecompensasView-to-RecompensaController-1" style="stroke:#181818;stroke-width:1;"/><polygon fill="#181818" points="1202.36,209.48,1212.1843,208.7842,1206.7742,207.1316,1208.4268,201.7215,1202.36,209.48" style="stroke:#181818;stroke-width:1;stroke-linejoin:miter;stroke-miterlimit:10;"/><text fill="#000000" font-family="sans-serif" font-size="13" lengthAdjust="spacing" textLength="203.728" x="1382.5" y="124.4951">filtrarRecompensasPropias(criterio)</text></g><!--link RecompensaController to InvestigadorRepository--><g class="link" data-entity-1="ent0005" data-entity-2="ent0008" data-link-type="dependency" data-source-line="25" id="lnk19"><path d="M1207.25,247.52 C1268.92,276.19 1382.5,329 1382.5,329 C1382.5,329 1409.4188,354.0148 1430.4388,373.5648" fill="none" id="RecompensaController-to-InvestigadorRepository" style="stroke:#181818;stroke-width:1;"/><polygon fill="#181818" points="1434.1,376.97,1430.2339,367.9117,1430.4388,373.5648,1424.7856,373.7696,1434.1,376.97" style="stroke:#181818;stroke-width:1;stroke-linejoin:miter;stroke-miterlimit:10;"/><text fill="#000000" font-family="sans-serif" font-size="13" lengthAdjust="spacing" textLength="152.4644" x="1402.5" y="343.4951">obtenerPerfil(investigador)</text></g><!--link RecompensaController to RecompensaRepository--><g class="link" data-entity-1="ent0005" data-entity-2="ent0006" data-link-type="dependency" data-source-line="26" id="lnk20"><path d="M1086.9,238.46 C864.2,262.92 262.5,329 262.5,329 C262.5,329 262.5,347 262.5,347 C262.5,347 427.6734,368.9027 534.6734,383.0927" fill="none" id="RecompensaController-to-RecompensaRepository" style="stroke:#181818;stroke-width:1;"/><polygon fill="#181818" points="539.63,383.75,531.234,378.6015,534.6734,383.0927,530.1823,386.5321,539.63,383.75" style="stroke:#181818;stroke-width:1;stroke-linejoin:miter;stroke-miterlimit:10;"/><text fill="#000000" font-family="sans-serif" font-size="13" lengthAdjust="spacing" textLength="317.9414" x="263.5" y="343.4951">obtenerPropiasDeProyectosCompletados(investigador)</text></g><!--link RecompensaController to RecompensaRepository--><g class="link" data-entity-1="ent0005" data-entity-2="ent0006" data-link-type="dependency" data-source-line="27" id="lnk21"><path d="M1086.9,244.34 C934.42,272.08 621.5,329 621.5,329 C621.5,329 621.5,347 621.5,347 C621.5,347 622.2079,358.2698 623.0579,371.8598" fill="none" id="RecompensaController-to-RecompensaRepository-1" style="stroke:#181818;stroke-width:1;"/><polygon fill="#181818" points="623.37,376.85,626.8004,367.6179,623.0579,371.8598,618.816,368.1172,623.37,376.85" style="stroke:#181818;stroke-width:1;stroke-linejoin:miter;stroke-miterlimit:10;"/><text fill="#000000" font-family="sans-serif" font-size="13" lengthAdjust="spacing" textLength="295.5532" x="622.5" y="343.4951">obtenerPropiasPorContexto(investigador, contexto)</text></g><!--link RecompensaController to RecompensaRepository--><g class="link" data-entity-1="ent0005" data-entity-2="ent0006" data-link-type="dependency" data-source-line="28" id="lnk22"><path d="M1129.75,247.52 C1068.08,276.19 954.5,329 954.5,329 C954.5,329 922.5,347 922.5,347 C922.5,347 802.1364,366.3849 714.0364,380.5749" fill="none" id="RecompensaController-to-RecompensaRepository-2" style="stroke:#181818;stroke-width:1;"/><polygon fill="#181818" points="709.1,381.37,718.6216,383.8879,714.0364,380.5749,717.3494,375.9897,709.1,381.37" style="stroke:#181818;stroke-width:1;stroke-linejoin:miter;stroke-miterlimit:10;"/><text fill="#000000" font-family="sans-serif" font-size="13" lengthAdjust="spacing" textLength="270.207" x="955.5" y="343.4951">buscarPropiasPorCriterio(investigador, criterio)</text></g><!--link RecompensaController to ProyectoRepository--><g class="link" data-entity-1="ent0005" data-entity-2="ent0007" data-link-type="dependency" data-source-line="29" id="lnk23"><path d="M1180.61,247.75 C1199.66,276.47 1234.5,329 1234.5,329 C1234.5,329 1245.7248,352.8941 1254.9048,372.4441" fill="none" id="RecompensaController-to-ProyectoRepository" style="stroke:#181818;stroke-width:1;"/><polygon fill="#181818" points="1257.03,376.97,1256.8254,367.1233,1254.9048,372.4441,1249.584,370.5236,1257.03,376.97" style="stroke:#181818;stroke-width:1;stroke-linejoin:miter;stroke-miterlimit:10;"/><text fill="#000000" font-family="sans-serif" font-size="13" lengthAdjust="spacing" textLength="130.7617" x="1243.5" y="343.4951">verificarCompletados()</text></g><!--link RecompensaRepository to Recompensa--><g class="link" data-entity-1="ent0006" data-entity-2="ent0009" data-link-type="association" data-source-line="30" id="lnk24"><path d="M624.5,415.24 C624.5,432.59 624.5,458.52 624.5,475.84" fill="none" id="RecompensaRepository-Recompensa" style="stroke:#181818;stroke-width:1;"/></g><!--link ProyectoRepository to Proyecto--><g class="link" data-entity-1="ent0007" data-entity-2="ent0010" data-link-type="association" data-source-line="31" id="lnk25"><path d="M1265.5,415.24 C1265.5,432.59 1265.5,458.52 1265.5,475.84" fill="none" id="ProyectoRepository-Proyecto" style="stroke:#181818;stroke-width:1;"/></g><!--link InvestigadorRepository to Investigador--><g class="link" data-entity-1="ent0008" data-entity-2="ent0011" data-link-type="association" data-source-line="32" id="lnk26"><path d="M1453.5,415.24 C1453.5,432.59 1453.5,458.52 1453.5,475.84" fill="none" id="InvestigadorRepository-Investigador" style="stroke:#181818;stroke-width:1;"/></g><!--link RecompensaController to GMN27--><g class="link" data-entity-1="ent0005" data-entity-2="ent0028" data-link-type="association" data-source-line="34" id="lnk29"><path d="M1248.97,209.49 C1381.7,178.13 1632,119 1632,119 C1632,119 2363,119 2363,119 C2363,119 2389.63,136.73 2421.46,157.91" fill="none" id="RecompensaController-GMN27" style="stroke:#181818;stroke-width:1;stroke-dasharray:7,7;"/></g><!--link ListarRecompensasView to EstadoSalida--><g class="link" data-entity-1="ent0004" data-entity-2="ent0012" data-link-type="dependency" data-source-line="43" id="lnk30"><path d="M1511.28,80.01 C1554.98,93.63 1607.5,110 1607.5,110 C1607.5,110 1676.7434,173.0733 1712.9334,206.0333" fill="none" id="ListarRecompensasView-to-EstadoSalida" style="stroke:#181818;stroke-width:1;stroke-dasharray:7,7;"/><polygon fill="#181818" points="1716.63,209.4,1712.6694,200.3826,1712.9334,206.0333,1707.2827,206.2972,1716.63,209.4" style="stroke:#181818;stroke-width:1;stroke-linejoin:miter;stroke-miterlimit:10;"/><text fill="#000000" font-family="sans-serif" font-size="13" lengthAdjust="spacing" textLength="130.7935" x="1626.5" y="124.4951">continuarNavegacion()</text></g><!--link ListarRecompensasView to AbrirRecompensa--><g class="link" data-entity-1="ent0004" data-entity-2="ent0013" data-link-type="dependency" data-source-line="44" id="lnk31"><path d="M1540.82,75.43 C1633.12,89.63 1765.5,110 1765.5,110 C1765.5,110 1859.5,158 1859.5,158 C1859.5,158 1911.886,186.4441 1949.806,207.0341" fill="none" id="ListarRecompensasView-to-AbrirRecompensa" style="stroke:#181818;stroke-width:1;stroke-dasharray:7,7;"/><polygon fill="#181818" points="1954.2,209.42,1948.1995,201.6102,1949.806,207.0341,1944.382,208.6406,1954.2,209.42" style="stroke:#181818;stroke-width:1;stroke-linejoin:miter;stroke-miterlimit:10;"/><text fill="#000000" font-family="sans-serif" font-size="13" lengthAdjust="spacing" textLength="111.2617" x="1799.5" y="124.4951">abrirRecompensa()</text></g><!--link ListarRecompensasView to AbrirPanelPrincipal--><g class="link" data-entity-1="ent0004" data-entity-2="ent0014" data-link-type="dependency" data-source-line="45" id="lnk32"><path d="M1540.6,70.97 C1675.48,84.87 1919.5,110 1919.5,110 C1919.5,110 2116.5,158 2116.5,158 C2116.5,158 2170.6257,186.5008 2209.7357,207.0908" fill="none" id="ListarRecompensasView-to-AbrirPanelPrincipal" style="stroke:#181818;stroke-width:1;stroke-dasharray:7,7;"/><polygon fill="#181818" points="2214.16,209.42,2208.0596,201.6879,2209.7357,207.0908,2204.3328,208.7668,2214.16,209.42" style="stroke:#181818;stroke-width:1;stroke-linejoin:miter;stroke-miterlimit:10;"/><text fill="#000000" font-family="sans-serif" font-size="13" lengthAdjust="spacing" textLength="117.7681" x="1989.5" y="124.4951">abrirPanelPrincipal()</text></g><?plantuml-src hPNVQzim4CVVzLSSsKi2Is5XBQiV2gxhGY1BJLBsMcHRyKGLdP6LR67iVz_9JU8VSU8MPlmY-NkVEzsTpiMhr3atV0rAQc5tkO0SrSuj63CYiLndIi2du26yzwzXu2t2uEbx5CwN_ej_FmqNp_u0U05XONcAeRQ6f_nBfsNapyFPIxIOpeDfvC_sva-dvXEMy-ILPm9uRAHPY0JNkT05wUWTj3U7em7yOK1FpUlDv3Pyl8MP971T_4EANsrjV1sdDz-WKWL8WQ1ImhIbZnC_-1hMf0kHOo4jcjqPQMHmHvlOAvpghIYip2WFfbTS1T3ZzXtEsD--IYyFfLxMYhNaIgQyqpAWtF4O3RSIDVZDUfM8rjvxAH7NGaL6waJcN5MavZvZpMw4iHdVTRU2Tz9YGvbMgr6JDFaOQSHOfnJ6AL6wsisZMzWoe4BcqeLLgzXdICX4_BOuEkVXh8ELL7IMBW-9aLOOISmkonBPtQCUO6o55YOIXl2DK2_0kYvHXNeBwa4S6ha8IAo4gqRnFpr4Q89zCi_c-8CEuasHy3f_dzWslp_VfyF3WotPh2Gvg2UapgZ4nAXFYbEQ4nmdHNTndQGnBJHQ0KPcFotWgdje7X8Ac2TqTxdos1WAgK6cGjioUYBjcpr5o5sga3IKyiiQu0cw9QFpPeeN9HWLkX5t_4daRvcdJoac11CUq5UDQsA2awQRnCL50esLfkGSXKpe5DnPpzomgwkxnY3qodwHUiFDd6z5nfs7uUY2TMi6dWoGVkFcsDi3cfi4-GS0?></g></svg>