<svg xmlns="http://www.w3.org/2000/svg" xmlns:xlink="http://www.w3.org/1999/xlink" contentStyleType="text/css" height="717px" preserveAspectRatio="none" style="width:1927px;height:717px;background:#FFFFFF;" version="1.1" viewBox="0 0 1927 717" width="1927px" zoomAndPan="magnify"><title>Diagrama de secuencia - responderPublicacion</title><defs/><g><text fill="#000000" font-family="sans-serif" font-size="14" font-weight="bold" lengthAdjust="spacing" textLength="315.1094" x="807.928" y="29.5332">Diagrama de secuencia - responderPublicacion</text><line style="stroke:#181818;stroke-width:0.5;stroke-dasharray:5.0,5.0;" x1="46" x2="46" y1="121.2188" y2="635.1953"/><line style="stroke:#181818;stroke-width:0.5;stroke-dasharray:5.0,5.0;" x1="276.4844" x2="276.4844" y1="121.2188" y2="635.1953"/><line style="stroke:#181818;stroke-width:0.5;stroke-dasharray:5.0,5.0;" x1="749.7749" x2="749.7749" y1="121.2188" y2="635.1953"/><line style="stroke:#181818;stroke-width:0.5;stroke-dasharray:5.0,5.0;" x1="982.7554" x2="982.7554" y1="121.2188" y2="635.1953"/><line style="stroke:#181818;stroke-width:0.5;stroke-dasharray:5.0,5.0;" x1="1111.2446" x2="1111.2446" y1="121.2188" y2="635.1953"/><line style="stroke:#181818;stroke-width:0.5;stroke-dasharray:5.0,5.0;" x1="1252.5269" x2="1252.5269" y1="121.2188" y2="635.1953"/><line style="stroke:#181818;stroke-width:0.5;stroke-dasharray:5.0,5.0;" x1="1404.2573" x2="1404.2573" y1="121.2188" y2="635.1953"/><line style="stroke:#181818;stroke-width:0.5;stroke-dasharray:5.0,5.0;" x1="1599.7739" x2="1599.7739" y1="121.2188" y2="635.1953"/><line style="stroke:#181818;stroke-width:0.5;stroke-dasharray:5.0,5.0;" x1="1877.1313" x2="1877.1313" y1="121.2188" y2="635.1953"/><text fill="#000000" font-family="sans-serif" font-size="14" lengthAdjust="spacing" textLength="77.0479" x="5" y="118.1426">Coordinador</text><ellipse cx="46.5239" cy="52.1094" fill="#E2E2F0" rx="8" ry="8" style="stroke:#181818;stroke-width:0.5;"/><path d="M46.5239,60.1094 L46.5239,87.1094 M33.5239,68.1094 L59.5239,68.1094 M46.5239,87.1094 L33.5239,102.1094 M46.5239,87.1094 L59.5239,102.1094 " fill="none" style="stroke:#181818;stroke-width:0.5;"/><text fill="#000000" font-family="sans-serif" font-size="14" lengthAdjust="spacing" textLength="77.0479" x="5" y="648.7285">Coordinador</text><ellipse cx="46.5239" cy="660.3047" fill="#E2E2F0" rx="8" ry="8" style="stroke:#181818;stroke-width:0.5;"/><path d="M46.5239,668.3047 L46.5239,695.3047 M33.5239,676.3047 L59.5239,676.3047 M46.5239,695.3047 L33.5239,710.3047 M46.5239,695.3047 L59.5239,710.3047 " fill="none" style="stroke:#181818;stroke-width:0.5;"/><rect fill="#E2E2F0" height="49.2188" rx="2.5" ry="2.5" style="stroke:#181818;stroke-width:0.5;" width="181.3369" x="186.4844" y="71"/><text fill="#000000" font-family="sans-serif" font-size="14" lengthAdjust="spacing" textLength="167.3369" x="193.4844" y="92.5332">responderPublicacionPage</text><text fill="#000000" font-family="sans-serif" font-size="14" lengthAdjust="spacing" textLength="45.8965" x="254.2046" y="110.1426">(React)</text><rect fill="#E2E2F0" height="49.2188" rx="2.5" ry="2.5" style="stroke:#181818;stroke-width:0.5;" width="181.3369" x="186.4844" y="634.1953"/><text fill="#000000" font-family="sans-serif" font-size="14" lengthAdjust="spacing" textLength="167.3369" x="193.4844" y="655.7285">responderPublicacionPage</text><text fill="#000000" font-family="sans-serif" font-size="14" lengthAdjust="spacing" textLength="45.8965" x="254.2046" y="673.3379">(React)</text><rect fill="#E2E2F0" height="49.2188" rx="2.5" ry="2.5" style="stroke:#181818;stroke-width:0.5;" width="146.2891" x="676.7749" y="71"/><text fill="#000000" font-family="sans-serif" font-size="14" lengthAdjust="spacing" textLength="132.2891" x="683.7749" y="92.5332">PublicacionController</text><text fill="#000000" font-family="sans-serif" font-size="14" lengthAdjust="spacing" textLength="82.4824" x="708.6782" y="110.1426">(Spring Boot)</text><rect fill="#E2E2F0" height="49.2188" rx="2.5" ry="2.5" style="stroke:#181818;stroke-width:0.5;" width="146.2891" x="676.7749" y="634.1953"/><text fill="#000000" font-family="sans-serif" font-size="14" lengthAdjust="spacing" textLength="132.2891" x="683.7749" y="655.7285">PublicacionController</text><text fill="#000000" font-family="sans-serif" font-size="14" lengthAdjust="spacing" textLength="82.4824" x="708.6782" y="673.3379">(Spring Boot)</text><rect fill="#E2E2F0" height="31.6094" rx="2.5" ry="2.5" style="stroke:#181818;stroke-width:0.5;" width="103.4893" x="931.7554" y="88.6094"/><text fill="#000000" font-family="sans-serif" font-size="14" lengthAdjust="spacing" textLength="89.4893" x="938.7554" y="110.1426">SesionService</text><rect fill="#E2E2F0" height="31.6094" rx="2.5" ry="2.5" style="stroke:#181818;stroke-width:0.5;" width="103.4893" x="931.7554" y="634.1953"/><text fill="#000000" font-family="sans-serif" font-size="14" lengthAdjust="spacing" textLength="89.4893" x="938.7554" y="655.7285">SesionService</text><rect fill="#E2E2F0" height="31.6094" rx="2.5" ry="2.5" style="stroke:#181818;stroke-width:0.5;" width="132.2822" x="1045.2446" y="88.6094"/><text fill="#000000" font-family="sans-serif" font-size="14" lengthAdjust="spacing" textLength="118.2822" x="1052.2446" y="110.1426">PublicacionService</text><rect fill="#E2E2F0" height="31.6094" rx="2.5" ry="2.5" style="stroke:#181818;stroke-width:0.5;" width="132.2822" x="1045.2446" y="634.1953"/><text fill="#000000" font-family="sans-serif" font-size="14" lengthAdjust="spacing" textLength="118.2822" x="1052.2446" y="655.7285">PublicacionService</text><rect fill="#E2E2F0" height="31.6094" rx="2.5" ry="2.5" style="stroke:#181818;stroke-width:0.5;" width="130.7305" x="1187.5269" y="88.6094"/><text fill="#000000" font-family="sans-serif" font-size="14" lengthAdjust="spacing" textLength="116.7305" x="1194.5269" y="110.1426">PoliticaPublicacion</text><rect fill="#E2E2F0" height="31.6094" rx="2.5" ry="2.5" style="stroke:#181818;stroke-width:0.5;" width="130.7305" x="1187.5269" y="634.1953"/><text fill="#000000" font-family="sans-serif" font-size="14" lengthAdjust="spacing" textLength="116.7305" x="1194.5269" y="655.7285">PoliticaPublicacion</text><rect fill="#E2E2F0" height="31.6094" rx="2.5" ry="2.5" style="stroke:#181818;stroke-width:0.5;" width="152.5166" x="1328.2573" y="88.6094"/><text fill="#000000" font-family="sans-serif" font-size="14" lengthAdjust="spacing" textLength="138.5166" x="1335.2573" y="110.1426">PublicacionRepository</text><rect fill="#E2E2F0" height="31.6094" rx="2.5" ry="2.5" style="stroke:#181818;stroke-width:0.5;" width="152.5166" x="1328.2573" y="634.1953"/><text fill="#000000" font-family="sans-serif" font-size="14" lengthAdjust="spacing" textLength="138.5166" x="1335.2573" y="655.7285">PublicacionRepository</text><rect fill="#E2E2F0" height="31.6094" rx="2.5" ry="2.5" style="stroke:#181818;stroke-width:0.5;" width="219.4473" x="1490.7739" y="88.6094"/><text fill="#000000" font-family="sans-serif" font-size="14" lengthAdjust="spacing" textLength="205.4473" x="1497.7739" y="110.1426">RespuestaPublicacionRepository</text><rect fill="#E2E2F0" height="31.6094" rx="2.5" ry="2.5" style="stroke:#181818;stroke-width:0.5;" width="219.4473" x="1490.7739" y="634.1953"/><text fill="#000000" font-family="sans-serif" font-size="14" lengthAdjust="spacing" textLength="205.4473" x="1497.7739" y="655.7285">RespuestaPublicacionRepository</text><text fill="#000000" font-family="sans-serif" font-size="14" lengthAdjust="spacing" textLength="91.834" x="1829.1313" y="118.1426">Base de Datos</text><path d="M1860.0483,67.6094 C1860.0483,57.6094 1878.0483,57.6094 1878.0483,57.6094 C1878.0483,57.6094 1896.0483,57.6094 1896.0483,67.6094 L1896.0483,93.6094 C1896.0483,103.6094 1878.0483,103.6094 1878.0483,103.6094 C1878.0483,103.6094 1860.0483,103.6094 1860.0483,93.6094 L1860.0483,67.6094 " fill="#E2E2F0" style="stroke:#181818;stroke-width:1.5;"/><path d="M1860.0483,67.6094 C1860.0483,77.6094 1878.0483,77.6094 1878.0483,77.6094 C1878.0483,77.6094 1896.0483,77.6094 1896.0483,67.6094 " fill="none" style="stroke:#181818;stroke-width:1.5;"/><text fill="#000000" font-family="sans-serif" font-size="14" lengthAdjust="spacing" textLength="91.834" x="1829.1313" y="648.7285">Base de Datos</text><path d="M1860.0483,661.8047 C1860.0483,651.8047 1878.0483,651.8047 1878.0483,651.8047 C1878.0483,651.8047 1896.0483,651.8047 1896.0483,661.8047 L1896.0483,687.8047 C1896.0483,697.8047 1878.0483,697.8047 1878.0483,697.8047 C1878.0483,697.8047 1860.0483,697.8047 1860.0483,687.8047 L1860.0483,661.8047 " fill="#E2E2F0" style="stroke:#181818;stroke-width:1.5;"/><path d="M1860.0483,661.8047 C1860.0483,671.8047 1878.0483,671.8047 1878.0483,671.8047 C1878.0483,671.8047 1896.0483,671.8047 1896.0483,661.8047 " fill="none" style="stroke:#181818;stroke-width:1.5;"/><polygon fill="#181818" points="265.1528,149.5703,275.1528,153.5703,265.1528,157.5703,269.1528,153.5703" style="stroke:#181818;stroke-width:1;"/><line style="stroke:#181818;stroke-width:1;" x1="46.5239" x2="271.1528" y1="153.5703" y2="153.5703"/><text fill="#000000" font-family="sans-serif" font-size="13" lengthAdjust="spacing" textLength="179.2007" x="53.5239" y="148.7139">Solicita responderPublicacion()</text><polygon fill="#181818" points="737.9194,179.9219,747.9194,183.9219,737.9194,187.9219,741.9194,183.9219" style="stroke:#181818;stroke-width:1;"/><line style="stroke:#181818;stroke-width:1;" x1="277.1528" x2="743.9194" y1="183.9219" y2="183.9219"/><text fill="#000000" font-family="sans-serif" font-size="13" lengthAdjust="spacing" textLength="448.7666" x="284.1528" y="179.0654">POST /api/publicaciones/{id}/respuestas + RespuestaCreateRequest + cookie</text><polygon fill="#181818" points="971.5,210.2734,981.5,214.2734,971.5,218.2734,975.5,214.2734" style="stroke:#181818;stroke-width:1;"/><line style="stroke:#181818;stroke-width:1;" x1="749.9194" x2="977.5" y1="214.2734" y2="214.2734"/><text fill="#000000" font-family="sans-serif" font-size="13" lengthAdjust="spacing" textLength="209.5806" x="756.9194" y="209.417">obtenerSesionActual(authentication)</text><polygon fill="#181818" points="760.9194,240.625,750.9194,244.625,760.9194,248.625,756.9194,244.625" style="stroke:#181818;stroke-width:1;"/><line style="stroke:#181818;stroke-width:1;stroke-dasharray:2.0,2.0;" x1="754.9194" x2="982.5" y1="244.625" y2="244.625"/><text fill="#000000" font-family="sans-serif" font-size="13" lengthAdjust="spacing" textLength="101.1753" x="766.9194" y="239.7686">Actor autenticado</text><polygon fill="#181818" points="1099.3857,270.9766,1109.3857,274.9766,1099.3857,278.9766,1103.3857,274.9766" style="stroke:#181818;stroke-width:1;"/><line style="stroke:#181818;stroke-width:1;" x1="749.9194" x2="1105.3857" y1="274.9766" y2="274.9766"/><text fill="#000000" font-family="sans-serif" font-size="13" lengthAdjust="spacing" textLength="177.0425" x="756.9194" y="270.1201">responder(id, contenido, actor)</text><polygon fill="#181818" points="1392.5156,301.3281,1402.5156,305.3281,1392.5156,309.3281,1396.5156,305.3281" style="stroke:#181818;stroke-width:1;"/><line style="stroke:#181818;stroke-width:1;" x1="1111.3857" x2="1398.5156" y1="305.3281" y2="305.3281"/><text fill="#000000" font-family="sans-serif" font-size="13" lengthAdjust="spacing" textLength="138.0171" x="1118.3857" y="300.4717">findByIdAndRetirada(id)</text><polygon fill="#181818" points="1866.0483,331.6797,1876.0483,335.6797,1866.0483,339.6797,1870.0483,335.6797" style="stroke:#181818;stroke-width:1;"/><line style="stroke:#181818;stroke-width:1;" x1="1404.5156" x2="1872.0483" y1="335.6797" y2="335.6797"/><text fill="#000000" font-family="sans-serif" font-size="13" lengthAdjust="spacing" textLength="392.3105" x="1411.5156" y="330.8232">SELECT * FROM publicaciones WHERE id = ? AND retirada = false</text><polygon fill="#181818" points="1415.5156,362.0313,1405.5156,366.0313,1415.5156,370.0313,1411.5156,366.0313" style="stroke:#181818;stroke-width:1;"/><line style="stroke:#181818;stroke-width:1;stroke-dasharray:2.0,2.0;" x1="1409.5156" x2="1877.0483" y1="366.0313" y2="366.0313"/><text fill="#000000" font-family="sans-serif" font-size="13" lengthAdjust="spacing" textLength="107.6689" x="1421.5156" y="361.1748">Publicacion / vacio</text><path d="M1257,379.0313 L1257,405.0313 L1531,405.0313 L1531,389.0313 L1521,379.0313 L1257,379.0313 " fill="#FEFFDD" style="stroke:#181818;stroke-width:0.5;"/><path d="M1521,379.0313 L1521,389.0313 L1531,389.0313 L1521,379.0313 " fill="#FEFFDD" style="stroke:#181818;stroke-width:0.5;"/><text fill="#000000" font-family="sans-serif" font-size="13" lengthAdjust="spacing" textLength="253.6396" x="1263" y="397.5264">Responsabilidad interna: permitirResponder</text><polygon fill="#181818" points="1588.4976,428.7344,1598.4976,432.7344,1588.4976,436.7344,1592.4976,432.7344" style="stroke:#181818;stroke-width:1;"/><line style="stroke:#181818;stroke-width:1;" x1="1111.3857" x2="1594.4976" y1="432.7344" y2="432.7344"/><text fill="#000000" font-family="sans-serif" font-size="13" lengthAdjust="spacing" textLength="93.209" x="1118.3857" y="427.8779">save(respuesta)</text><polygon fill="#181818" points="1866.0483,491.7891,1876.0483,495.7891,1866.0483,499.7891,1870.0483,495.7891" style="stroke:#181818;stroke-width:1;"/><line style="stroke:#181818;stroke-width:1;" x1="1600.4976" x2="1872.0483" y1="495.7891" y2="495.7891"/><text fill="#000000" font-family="sans-serif" font-size="13" lengthAdjust="spacing" textLength="221.8125" x="1607.4976" y="458.2295">INSERT INTO respuestas_publicacion</text><text fill="#000000" font-family="sans-serif" font-size="13" lengthAdjust="spacing" textLength="247.8823" x="1607.4976" y="474.5811">(publicacion_id, autor_id, contenido, fecha)</text><text fill="#000000" font-family="sans-serif" font-size="13" lengthAdjust="spacing" textLength="253.5508" x="1607.4976" y="490.9326">VALUES (?, ?, ?, CURRENT_TIMESTAMP)</text><polygon fill="#181818" points="1611.4976,522.1406,1601.4976,526.1406,1611.4976,530.1406,1607.4976,526.1406" style="stroke:#181818;stroke-width:1;"/><line style="stroke:#181818;stroke-width:1;stroke-dasharray:2.0,2.0;" x1="1605.4976" x2="1877.0483" y1="526.1406" y2="526.1406"/><text fill="#000000" font-family="sans-serif" font-size="13" lengthAdjust="spacing" textLength="105.5107" x="1617.4976" y="521.2842">Respuesta creada</text><polygon fill="#181818" points="760.9194,552.4922,750.9194,556.4922,760.9194,560.4922,756.9194,556.4922" style="stroke:#181818;stroke-width:1;"/><line style="stroke:#181818;stroke-width:1;stroke-dasharray:2.0,2.0;" x1="754.9194" x2="1110.3857" y1="556.4922" y2="556.4922"/><text fill="#000000" font-family="sans-serif" font-size="13" lengthAdjust="spacing" textLength="153.2134" x="766.9194" y="551.6357">Resultado del caso de uso</text><polygon fill="#181818" points="288.1528,582.8438,278.1528,586.8438,288.1528,590.8438,284.1528,586.8438" style="stroke:#181818;stroke-width:1;"/><line style="stroke:#181818;stroke-width:1;stroke-dasharray:2.0,2.0;" x1="282.1528" x2="748.9194" y1="586.8438" y2="586.8438"/><text fill="#000000" font-family="sans-serif" font-size="13" lengthAdjust="spacing" textLength="204.5088" x="294.1528" y="581.9873">201 Created (RespuestaResponse)</text><polygon fill="#181818" points="57.5239,613.1953,47.5239,617.1953,57.5239,621.1953,53.5239,617.1953" style="stroke:#181818;stroke-width:1;"/><line style="stroke:#181818;stroke-width:1;stroke-dasharray:2.0,2.0;" x1="51.5239" x2="276.1528" y1="617.1953" y2="617.1953"/><text fill="#000000" font-family="sans-serif" font-size="13" lengthAdjust="spacing" textLength="206.6289" x="63.5239" y="612.3389">Presenta PUBLICACION_ABIERTA</text><!--SRC=[VLDHRvim47xdLvpwHBPMsVQ8j5L0g1QfJIAWsqkbw88lgJLgCzjKggRzzvqX952ran3uxEyxttttuQIh2HOI3mQV40I1fQebLKc4Ap1a6wq4cKsxgsM5bTGgmCff0wdMHaY5GfkWGUDa9HjK3YxUucpmG0ygp8cvimj02pT6AqTAJBaZIihdHjSr6IOMZP7g08dMHthSo2cp8CkaWiophAY3z3llvfz2k_KhhAubHpZYT62_NxsycpUdHbl92hrqQ1zEiJdhqv9r-3-IRJgYG8Sxj0GNYN_pT1RejEr0YoG8HaE0gsydKICeV97IuPiJ36V1WFGirZA2pReeOOwDd3Td8Ddv7od-pirGieMFSAe_DOIESlhj8pwejFubAU1qFcilVmHwn_UGwSEuSYtM8RRkaPGNr_7cBEWFuMee9kuSngWU9FGvQJUewDnMACKbt-oRaK9VGcTEdx43UeuNCeAzL29vMOfOYPoSD2YGgRF0dthK8c7HijiiBU43tEJhEvZe03-_Pta6Ki1Nk8PujU0A-YoyiSVQKh18kWRwwqPgmnoU_I9GsX4OUNXqeFT76qMTd5fPtCbQ2XGWkHMZC8A6p1CRqEH3gzEcUeT4OF6PmjE0V4FzoT3KSbLaUScVSWtdEMv7tV7_DOgsNb2MNfljAsdtL3tYx47zY6_limB2wqled_G-pxDLkIsNTrbHndURsLcCeSoJQw1YsmWyDpCCdH5jxNZORFCQAhH-0Qqz3dzYxo-VFaDlFm7XAVLHIXhRcscZduG7mngmgn0szydjCetJvNgrZPCbQnJ_0m00]--></g></svg>