<svg xmlns="http://www.w3.org/2000/svg" xmlns:xlink="http://www.w3.org/1999/xlink" contentStyleType="text/css" data-diagram-type="DESCRIPTION" height="442px" preserveAspectRatio="none" style="width:1894px;height:442px;background:#FFFFFF;" version="1.1" viewBox="0 0 1894 442" width="1894px" zoomAndPan="magnify"><?plantuml 1.2026.5?><defs/><g><!--cluster editarCargaTrabajo--><g class="cluster" data-qualified-name="editarCargaTrabajo" data-source-line="4" id="ent0002"><path d="M331,6 L469.6963,6 A3.75,3.75 0 0 1 472.1963,8.5 L479.1963,29.6094 L1292,29.6094 A2.5,2.5 0 0 1 1294.5,32.1094 L1294.5,424.5 A2.5,2.5 0 0 1 1292,427 L331,427 A2.5,2.5 0 0 1 328.5,424.5 L328.5,8.5 A2.5,2.5 0 0 1 331,6" fill="none" style="stroke:#000000;stroke-width:1.5;"/><line style="stroke:#000000;stroke-width:1.5;" x1="328.5" x2="479.1963" y1="29.6094" y2="29.6094"/><text fill="#000000" font-family="sans-serif" font-size="14" font-weight="700" lengthAdjust="spacing" textLength="137.6963" x="332.5" y="22.5332">editarCargaTrabajo()</text></g><!--entity EditarCargaTrabajoView--><g class="entity" data-qualified-name="editarCargaTrabajo.EditarCargaTrabajoView" data-source-line="5" id="ent0003"><rect fill="#629EF9" height="37.6094" rx="2.5" ry="2.5" style="stroke:#181818;stroke-width:0.5;" width="172.5166" x="827" y="42"/><text fill="#000000" font-family="sans-serif" font-size="14" lengthAdjust="spacing" textLength="152.5166" x="837" y="66.5332">EditarCargaTrabajoView</text></g><!--entity CargaTrabajoController--><g class="entity" data-qualified-name="editarCargaTrabajo.CargaTrabajoController" data-source-line="6" id="ent0004"><rect fill="#B5BD68" height="37.6094" rx="2.5" ry="2.5" style="stroke:#181818;stroke-width:0.5;" width="166.2891" x="675.5" y="158"/><text fill="#000000" font-family="sans-serif" font-size="14" lengthAdjust="spacing" textLength="146.2891" x="685.5" y="182.5332">CargaTrabajoController</text></g><!--entity CargaTrabajoRepository--><g class="entity" data-qualified-name="editarCargaTrabajo.CargaTrabajoRepository" data-source-line="7" id="ent0005"><rect fill="#F2AC4E" height="37.6094" rx="2.5" ry="2.5" style="stroke:#181818;stroke-width:0.5;" width="172.5166" x="614" y="274"/><text fill="#000000" font-family="sans-serif" font-size="14" lengthAdjust="spacing" textLength="152.5166" x="624" y="298.5332">CargaTrabajoRepository</text></g><!--entity PersonaRepository--><g class="entity" data-qualified-name="editarCargaTrabajo.PersonaRepository" data-source-line="8" id="ent0006"><rect fill="#F2AC4E" height="37.6094" rx="2.5" ry="2.5" style="stroke:#181818;stroke-width:0.5;" width="139.0615" x="858" y="274"/><text fill="#000000" font-family="sans-serif" font-size="14" lengthAdjust="spacing" textLength="119.0615" x="868" y="298.5332">PersonaRepository</text></g><!--entity CargaTrabajo--><g class="entity" data-qualified-name="editarCargaTrabajo.CargaTrabajo" data-source-line="9" id="ent0007"><rect fill="#F2AC4E" height="37.6094" rx="2.5" ry="2.5" style="stroke:#181818;stroke-width:0.5;" width="105.5996" x="420.5" y="373"/><text fill="#000000" font-family="sans-serif" font-size="14" lengthAdjust="spacing" textLength="85.5996" x="430.5" y="397.5332">CargaTrabajo</text></g><!--entity Persona--><g class="entity" data-qualified-name="editarCargaTrabajo.Persona" data-source-line="10" id="ent0008"><rect fill="#F2AC4E" height="37.6094" rx="2.5" ry="2.5" style="stroke:#181818;stroke-width:0.5;" width="72.1445" x="961.5" y="373"/><text fill="#000000" font-family="sans-serif" font-size="14" lengthAdjust="spacing" textLength="52.1445" x="971.5" y="397.5332">Persona</text></g><!--entity EstadoEntrada--><g class="entity" data-qualified-name="EstadoEntrada" data-source-line="3" id="ent0001"><rect fill="#CDEBA5" height="37.6094" rx="2.5" ry="2.5" style="stroke:#181818;stroke-width:0.5;" width="304.7441" x="7" y="42"/><text fill="#000000" font-family="sans-serif" font-size="14" lengthAdjust="spacing" textLength="284.7441" x="17" y="66.5332">:OPCIONES_CARGA_TRABAJO_ABIERTAS</text></g><!--entity EstadoSalida--><g class="entity" data-qualified-name="EstadoSalida" data-source-line="13" id="ent0009"><rect fill="#CDEBA5" height="37.6094" rx="2.5" ry="2.5" style="stroke:#181818;stroke-width:0.5;" width="304.7441" x="1311" y="158"/><text fill="#000000" font-family="sans-serif" font-size="14" lengthAdjust="spacing" textLength="284.7441" x="1321" y="182.5332">:OPCIONES_CARGA_TRABAJO_ABIERTAS</text></g><!--entity AbrirPanelPrincipal--><g class="entity" data-qualified-name="AbrirPanelPrincipal" data-source-line="14" id="ent0010"><rect fill="#CDEBA5" height="37.6094" rx="2.5" ry="2.5" style="stroke:#181818;stroke-width:0.5;" width="229.3301" x="1651" y="158"/><text fill="#000000" font-family="sans-serif" font-size="14" lengthAdjust="spacing" textLength="209.3301" x="1661" y="182.5332">:Collaboration AbrirPanelPrincipal</text></g><!--link EstadoEntrada to EditarCargaTrabajoView--><g class="link" data-entity-1="ent0001" data-entity-2="ent0003" data-link-type="dependency" data-source-line="16" id="lnk11"><path d="M312.08,61 C467,61 696.39,61 821.91,61" fill="none" id="EstadoEntrada-to-EditarCargaTrabajoView" style="stroke:#181818;stroke-width:1;"/><polygon fill="#181818" points="826.91,61,817.91,57,821.91,61,817.91,65,826.91,61" style="stroke:#181818;stroke-width:1;stroke-linejoin:miter;stroke-miterlimit:10;"/><text fill="#000000" font-family="sans-serif" font-size="13" lengthAdjust="spacing" textLength="179.2007" x="480" y="54.4951">editarCargaTrabajo(idPersona)</text></g><!--link EditarCargaTrabajoView to CargaTrabajoController--><g class="link" data-entity-1="ent0003" data-entity-2="ent0004" data-link-type="dependency" data-source-line="18" id="lnk12"><path d="M827,70.53 C687.05,84.32 426.5,110 426.5,110 C426.5,110 426.5,128 426.5,128 C426.5,128 571.8615,149.0144 670.2015,163.2344" fill="none" id="EditarCargaTrabajoView-to-CargaTrabajoController" style="stroke:#181818;stroke-width:1;"/><polygon fill="#181818" points="675.15,163.95,666.8151,158.7032,670.2015,163.2344,665.6702,166.6208,675.15,163.95" style="stroke:#181818;stroke-width:1;stroke-linejoin:miter;stroke-miterlimit:10;"/><text fill="#000000" font-family="sans-serif" font-size="13" lengthAdjust="spacing" textLength="287.6123" x="427.5" y="124.4951">obtenerCargaDePersona(coordinador, idPersona)</text></g><!--link EditarCargaTrabajoView to CargaTrabajoController--><g class="link" data-entity-1="ent0003" data-entity-2="ent0004" data-link-type="dependency" data-source-line="19" id="lnk13"><path d="M854.22,80.01 C809.38,93.63 755.5,110 755.5,110 C755.5,110 755.5,128 755.5,128 C755.5,128 756.2079,139.2698 757.0579,152.8598" fill="none" id="EditarCargaTrabajoView-to-CargaTrabajoController-1" style="stroke:#181818;stroke-width:1;"/><polygon fill="#181818" points="757.37,157.85,760.8004,148.6179,757.0579,152.8598,752.816,149.1172,757.37,157.85" style="stroke:#181818;stroke-width:1;stroke-linejoin:miter;stroke-miterlimit:10;"/><text fill="#000000" font-family="sans-serif" font-size="13" lengthAdjust="spacing" textLength="113.4326" x="756.5" y="124.4951">validarHoras(datos)</text></g><!--link EditarCargaTrabajoView to CargaTrabajoController--><g class="link" data-entity-1="ent0003" data-entity-2="ent0004" data-link-type="dependency" data-source-line="20" id="lnk14"><path d="M902.84,80.03 C891.3,99.58 874.5,128 874.5,128 C874.5,128 839.5602,142.4585 806.6402,156.0785" fill="none" id="EditarCargaTrabajoView-to-CargaTrabajoController-2" style="stroke:#181818;stroke-width:1;"/><polygon fill="#181818" points="802.02,157.99,811.8655,158.2454,806.6402,156.0785,808.8071,150.8531,802.02,157.99" style="stroke:#181818;stroke-width:1;stroke-linejoin:miter;stroke-miterlimit:10;"/><text fill="#000000" font-family="sans-serif" font-size="13" lengthAdjust="spacing" textLength="338.1841" x="885.5" y="124.4951">actualizarCargaDePersona(coordinador, idPersona, datos)</text></g><!--link CargaTrabajoController to PersonaRepository--><g class="link" data-entity-1="ent0004" data-entity-2="ent0006" data-link-type="dependency" data-source-line="21" id="lnk15"><path d="M841.67,191.31 C930.45,205.51 1058.5,226 1058.5,226 C1058.5,226 1058.5,244 1058.5,244 C1058.5,244 1018.5147,258.6497 981.3447,272.2697" fill="none" id="CargaTrabajoController-to-PersonaRepository" style="stroke:#181818;stroke-width:1;"/><polygon fill="#181818" points="976.65,273.99,986.4768,274.6493,981.3447,272.2697,983.7243,267.1377,976.65,273.99" style="stroke:#181818;stroke-width:1;stroke-linejoin:miter;stroke-miterlimit:10;"/><text fill="#000000" font-family="sans-serif" font-size="13" lengthAdjust="spacing" textLength="142.3589" x="1059.5" y="240.4951">obtenerPorId(idPersona)</text></g><!--link CargaTrabajoController to CargaTrabajoRepository--><g class="link" data-entity-1="ent0004" data-entity-2="ent0005" data-link-type="dependency" data-source-line="22" id="lnk16"><path d="M675.28,188.65 C564.8,202.79 383.5,226 383.5,226 C383.5,226 383.5,244 383.5,244 C383.5,244 586.5,274 586.5,274 C586.5,274 593.1113,275.0397 608.8713,277.5297" fill="none" id="CargaTrabajoController-to-CargaTrabajoRepository" style="stroke:#181818;stroke-width:1;"/><polygon fill="#181818" points="613.81,278.31,605.5445,272.9545,608.8713,277.5297,604.296,280.8565,613.81,278.31" style="stroke:#181818;stroke-width:1;stroke-linejoin:miter;stroke-miterlimit:10;"/><text fill="#000000" font-family="sans-serif" font-size="13" lengthAdjust="spacing" textLength="179.937" x="384.5" y="240.4951">obtenerPorPersona(idPersona)</text></g><!--link CargaTrabajoController to CargaTrabajoRepository--><g class="link" data-entity-1="ent0004" data-entity-2="ent0005" data-link-type="dependency" data-source-line="25" id="lnk19"><path d="M700.72,196.01 C657.02,209.63 604.5,226 604.5,226 C604.5,226 604.5,244 604.5,244 C604.5,244 632.7679,258.1339 660.0079,271.7539" fill="none" id="CargaTrabajoController-to-CargaTrabajoRepository-1" style="stroke:#181818;stroke-width:1;"/><polygon fill="#181818" points="664.48,273.99,658.219,266.3874,660.0079,271.7539,654.6413,273.5428,664.48,273.99" style="stroke:#181818;stroke-width:1;stroke-linejoin:miter;stroke-miterlimit:10;"/><text fill="#000000" font-family="sans-serif" font-size="13" lengthAdjust="spacing" textLength="140.8926" x="605.5" y="240.4951">actualizar(cargaTrabajo)</text></g><!--link CargaTrabajoController to CargaTrabajoRepository--><g class="link" data-entity-1="ent0004" data-entity-2="ent0005" data-link-type="dependency" data-source-line="26" id="lnk20"><path d="M756.31,196.03 C753.95,215.58 750.5,244 750.5,244 C750.5,244 737.1674,256.7978 723.0074,270.3878" fill="none" id="CargaTrabajoController-to-CargaTrabajoRepository-2" style="stroke:#181818;stroke-width:1;"/><polygon fill="#181818" points="719.4,273.85,728.6631,270.504,723.0074,270.3878,723.1236,264.7322,719.4,273.85" style="stroke:#181818;stroke-width:1;stroke-linejoin:miter;stroke-miterlimit:10;"/><text fill="#000000" font-family="sans-serif" font-size="13" lengthAdjust="spacing" textLength="296.2451" x="753.5" y="240.4951">recalcularPrioridadParaProyectosLibres(idPersona)</text></g><!--link CargaTrabajoController to Persona--><g class="link" data-entity-1="ent0004" data-entity-2="ent0008" data-link-type="dependency" data-source-line="23" id="lnk17"><path d="M841.67,186.83 C972.21,200.7 1210.5,226 1210.5,226 C1210.5,226 1210.5,244 1210.5,244 C1210.5,244 1084.6153,330.8802 1027.7353,370.1302" fill="none" id="CargaTrabajoController-to-Persona" style="stroke:#181818;stroke-width:1;"/><polygon fill="#181818" points="1023.62,372.97,1033.2994,371.1507,1027.7353,370.1302,1028.7557,364.5662,1023.62,372.97" style="stroke:#181818;stroke-width:1;stroke-linejoin:miter;stroke-miterlimit:10;"/><text fill="#000000" font-family="sans-serif" font-size="13" lengthAdjust="spacing" textLength="209.5806" x="1166.5" y="298.4951">esInvestigadorDocenteSegunSede()</text></g><!--link CargaTrabajoController to CargaTrabajo--><g class="link" data-entity-1="ent0004" data-entity-2="ent0007" data-link-type="dependency" data-source-line="24" id="lnk18"><path d="M675.39,188.42 C562.75,202.53 375.5,226 375.5,226 C375.5,226 375.5,244 375.5,244 C375.5,244 397.5,312 397.5,312 C397.5,312 429.9538,345.7364 452.4038,369.0764" fill="none" id="CargaTrabajoController-to-CargaTrabajo" style="stroke:#181818;stroke-width:1;"/><polygon fill="#181818" points="455.87,372.68,452.5138,363.4206,452.4038,369.0764,446.7481,368.9665,455.87,372.68" style="stroke:#181818;stroke-width:1;stroke-linejoin:miter;stroke-miterlimit:10;"/><text fill="#000000" font-family="sans-serif" font-size="13" lengthAdjust="spacing" textLength="197.2471" x="398.5" y="298.4951">validarLimiteDocente(maximo16h)</text></g><!--link PersonaRepository to Persona--><g class="link" data-entity-1="ent0006" data-entity-2="ent0008" data-link-type="association" data-source-line="27" id="lnk21"><path d="M940.67,312.24 C953.18,329.59 971.9,355.52 984.39,372.84" fill="none" id="PersonaRepository-Persona" style="stroke:#181818;stroke-width:1;"/></g><!--link CargaTrabajoRepository to CargaTrabajo--><g class="link" data-entity-1="ent0005" data-entity-2="ent0007" data-link-type="association" data-source-line="28" id="lnk22"><path d="M658.34,312.02 C617.69,329.39 556.52,355.52 515.82,372.91" fill="none" id="CargaTrabajoRepository-CargaTrabajo" style="stroke:#181818;stroke-width:1;"/></g><!--link EditarCargaTrabajoView to EstadoSalida--><g class="link" data-entity-1="ent0003" data-entity-2="ent0009" data-link-type="dependency" data-source-line="29" id="lnk23"><path d="M1000.25,75.05 C1094.71,89.27 1232.5,110 1232.5,110 C1232.5,110 1290.5,128 1290.5,128 C1290.5,128 1344.682,143.0332 1393.772,156.6532" fill="none" id="EditarCargaTrabajoView-to-EstadoSalida" style="stroke:#181818;stroke-width:1;stroke-dasharray:7,7;"/><polygon fill="#181818" points="1398.59,157.99,1390.987,151.7295,1393.772,156.6532,1388.8482,159.4382,1398.59,157.99" style="stroke:#181818;stroke-width:1;stroke-linejoin:miter;stroke-miterlimit:10;"/><text fill="#000000" font-family="sans-serif" font-size="13" lengthAdjust="spacing" textLength="152.4644" x="1291.5" y="124.4951">cargaTrabajoActualizada()</text></g><!--link EditarCargaTrabajoView to EstadoSalida--><g class="link" data-entity-1="ent0003" data-entity-2="ent0009" data-link-type="dependency" data-source-line="30" id="lnk24"><path d="M1000.05,69.77 C1151.47,83.35 1448.5,110 1448.5,110 C1448.5,110 1453.8526,133.5442 1458.2926,153.0942" fill="none" id="EditarCargaTrabajoView-to-EstadoSalida-1" style="stroke:#181818;stroke-width:1;stroke-dasharray:7,7;"/><polygon fill="#181818" points="1459.4,157.97,1461.3074,148.3076,1458.2926,153.0942,1453.5061,150.0794,1459.4,157.97" style="stroke:#181818;stroke-width:1;stroke-linejoin:miter;stroke-miterlimit:10;"/><text fill="#000000" font-family="sans-serif" font-size="13" lengthAdjust="spacing" textLength="100.4326" x="1453.5" y="124.4951">cancelarEdicion()</text></g><!--link EditarCargaTrabajoView to AbrirPanelPrincipal--><g class="link" data-entity-1="ent0003" data-entity-2="ent0010" data-link-type="dependency" data-source-line="31" id="lnk25"><path d="M1000.02,68.4 C1176.71,81.47 1562.5,110 1562.5,110 C1562.5,110 1645.1652,136.8736 1705.2752,156.4236" fill="none" id="EditarCargaTrabajoView-to-AbrirPanelPrincipal" style="stroke:#181818;stroke-width:1;stroke-dasharray:7,7;"/><polygon fill="#181818" points="1710.03,157.97,1702.7084,151.3825,1705.2752,156.4236,1700.2341,158.9903,1710.03,157.97" style="stroke:#181818;stroke-width:1;stroke-linejoin:miter;stroke-miterlimit:10;"/><text fill="#000000" font-family="sans-serif" font-size="13" lengthAdjust="spacing" textLength="117.7681" x="1617.5" y="124.4951">abrirPanelPrincipal()</text></g><?plantuml-src fPHHRzem4CVVyoai-XAaKcdLYbOUAeMGRapLY0ZQAxhOfynhiAEpwSQcVVSTZBBG1CfOtcBzxtTt__FPFMfJ0S52bDgWNrKeAbkkrZz1G2WzcA94SH6Fac5q8pg3IHgF9v-IR1v7q_VHV3QDXj77oJmQZfFfBCew0fn8d0Tb4-C950GLo4SeKA3I7YW6Ac16aCDNkzPsciTXjoD-1eA_MW7zwzla_bOa3VLdZTzUYlERNFNVYReijboEBKkab-BxwoX-c-o9frXPfxsbrG5nYkIiWLTrTUXnLF3hV_tEeDHiTniaviOXjmHUMoEYd3IbOB1CIHkfAoWtc9Rp8DYRfUXHx-x030Oj0mwrshRNPL9hcEWfHhPFQY1ixj7Wdw0HRbcXj9QKDbmNNOfQYaCPZYHusfX67zWR5ohmrfs50UcNJFe1fvLwARQfsdcRL8qhjdCZjJHMTMkFKDflTHtrNEbflAs6X-t6vWcTryMwjv6LQ3ncM2nDXWh3aulQZU11BxJ7BIXSm7Uzi6_wNyxgxkyuGbcJdCNYVO9IBaiWtWfBNAfA-S5CoQvuqwnxq3cXgzlNc1ppTslUdcQjs7ih3jp1gwkxlMqVY7f_qNFR2iBklo2CHEwF0oI_3yT3Mnu9zhjvo9JV?></g></svg>