<svg xmlns="http://www.w3.org/2000/svg" xmlns:xlink="http://www.w3.org/1999/xlink" contentStyleType="text/css" data-diagram-type="DESCRIPTION" height="558px" preserveAspectRatio="none" style="width:2138px;height:558px;background:#FFFFFF;" version="1.1" viewBox="0 0 2138 558" width="2138px" zoomAndPan="magnify"><?plantuml 1.2026.6?><defs/><g><!--cluster editarCargaTrabajo--><g class="cluster" data-qualified-name="editarCargaTrabajo" data-source-line="4" id="ent0002"><path d="M331,6 L469.6963,6 A3.75,3.75 0 0 1 472.1963,8.5 L479.1963,29.6094 L1536,29.6094 A2.5,2.5 0 0 1 1538.5,32.1094 L1538.5,540.5 A2.5,2.5 0 0 1 1536,543 L331,543 A2.5,2.5 0 0 1 328.5,540.5 L328.5,8.5 A2.5,2.5 0 0 1 331,6" fill="none" style="stroke:#000000;stroke-width:1.5;"/><line style="stroke:#000000;stroke-width:1.5;" x1="328.5" x2="479.1963" y1="29.6094" y2="29.6094"/><text fill="#000000" font-family="sans-serif" font-size="14" font-weight="700" lengthAdjust="spacing" textLength="137.6963" x="332.5" y="22.5332">editarCargaTrabajo()</text></g><!--entity EditarCargaTrabajoView--><g class="entity" data-qualified-name="editarCargaTrabajo.EditarCargaTrabajoView" data-source-line="5" id="ent0003"><rect fill="#629EF9" height="37.6094" rx="2.5" ry="2.5" style="stroke:#181818;stroke-width:0.5;" width="172.5166" x="1071" y="42"/><text fill="#000000" font-family="sans-serif" font-size="14" lengthAdjust="spacing" textLength="152.5166" x="1081" y="66.5332">EditarCargaTrabajoView</text></g><!--entity CargaTrabajoController--><g class="entity" data-qualified-name="editarCargaTrabajo.CargaTrabajoController" data-source-line="6" id="ent0004"><rect fill="#B5BD68" height="37.6094" rx="2.5" ry="2.5" style="stroke:#181818;stroke-width:0.5;" width="166.2891" x="919.5" y="158"/><text fill="#000000" font-family="sans-serif" font-size="14" lengthAdjust="spacing" textLength="146.2891" x="929.5" y="182.5332">CargaTrabajoController</text></g><!--entity CargaTrabajoService--><g class="entity" data-qualified-name="editarCargaTrabajo.CargaTrabajoService" data-source-line="7" id="ent0005"><rect fill="#B5BD68" height="37.6094" rx="2.5" ry="2.5" style="stroke:#181818;stroke-width:0.5;" width="152.2822" x="492.5" y="274"/><text fill="#000000" font-family="sans-serif" font-size="14" lengthAdjust="spacing" textLength="132.2822" x="502.5" y="298.5332">CargaTrabajoService</text></g><!--entity SesionService--><g class="entity" data-qualified-name="editarCargaTrabajo.SesionService" data-source-line="8" id="ent0006"><rect fill="#B5BD68" height="37.6094" rx="2.5" ry="2.5" style="stroke:#181818;stroke-width:0.5;" width="109.4893" x="1040" y="274"/><text fill="#000000" font-family="sans-serif" font-size="14" lengthAdjust="spacing" textLength="89.4893" x="1050" y="298.5332">SesionService</text></g><!--entity CargaTrabajoRepository--><g class="entity" data-qualified-name="editarCargaTrabajo.CargaTrabajoRepository" data-source-line="9" id="ent0007"><rect fill="#F2AC4E" height="37.6094" rx="2.5" ry="2.5" style="stroke:#181818;stroke-width:0.5;" width="172.5166" x="614" y="390"/><text fill="#000000" font-family="sans-serif" font-size="14" lengthAdjust="spacing" textLength="152.5166" x="624" y="414.5332">CargaTrabajoRepository</text></g><!--entity PersonaRepository--><g class="entity" data-qualified-name="editarCargaTrabajo.PersonaRepository" data-source-line="10" id="ent0008"><rect fill="#F2AC4E" height="37.6094" rx="2.5" ry="2.5" style="stroke:#181818;stroke-width:0.5;" width="139.0615" x="1081" y="390"/><text fill="#000000" font-family="sans-serif" font-size="14" lengthAdjust="spacing" textLength="119.0615" x="1091" y="414.5332">PersonaRepository</text></g><!--entity CargaTrabajo--><g class="entity" data-qualified-name="editarCargaTrabajo.CargaTrabajo" data-source-line="11" id="ent0009"><rect fill="#F2AC4E" height="37.6094" rx="2.5" ry="2.5" style="stroke:#181818;stroke-width:0.5;" width="105.5996" x="420.5" y="489"/><text fill="#000000" font-family="sans-serif" font-size="14" lengthAdjust="spacing" textLength="85.5996" x="430.5" y="513.5332">CargaTrabajo</text></g><!--entity Persona--><g class="entity" data-qualified-name="editarCargaTrabajo.Persona" data-source-line="12" id="ent0010"><rect fill="#F2AC4E" height="37.6094" rx="2.5" ry="2.5" style="stroke:#181818;stroke-width:0.5;" width="72.1445" x="1183.5" y="489"/><text fill="#000000" font-family="sans-serif" font-size="14" lengthAdjust="spacing" textLength="52.1445" x="1193.5" y="513.5332">Persona</text></g><!--entity EstadoEntrada--><g class="entity" data-qualified-name="EstadoEntrada" data-source-line="3" id="ent0001"><rect fill="#CDEBA5" height="37.6094" rx="2.5" ry="2.5" style="stroke:#181818;stroke-width:0.5;" width="304.7441" x="7" y="42"/><text fill="#000000" font-family="sans-serif" font-size="14" lengthAdjust="spacing" textLength="284.7441" x="17" y="66.5332">:OPCIONES_CARGA_TRABAJO_ABIERTAS</text></g><!--entity EstadoSalida--><g class="entity" data-qualified-name="EstadoSalida" data-source-line="15" id="ent0011"><rect fill="#CDEBA5" height="37.6094" rx="2.5" ry="2.5" style="stroke:#181818;stroke-width:0.5;" width="304.7441" x="1555" y="158"/><text fill="#000000" font-family="sans-serif" font-size="14" lengthAdjust="spacing" textLength="284.7441" x="1565" y="182.5332">:OPCIONES_CARGA_TRABAJO_ABIERTAS</text></g><!--entity AbrirPanelPrincipal--><g class="entity" data-qualified-name="AbrirPanelPrincipal" data-source-line="16" id="ent0012"><rect fill="#CDEBA5" height="37.6094" rx="2.5" ry="2.5" style="stroke:#181818;stroke-width:0.5;" width="229.3301" x="1895" y="158"/><text fill="#000000" font-family="sans-serif" font-size="14" lengthAdjust="spacing" textLength="209.3301" x="1905" y="182.5332">:Collaboration AbrirPanelPrincipal</text></g><!--link EstadoEntrada to EditarCargaTrabajoView--><g class="link" data-entity-1="ent0001" data-entity-2="ent0003" data-link-type="dependency" data-source-line="18" id="lnk13"><path d="M312.16,61 C524.3,61 896.21,61 1065.7,61" fill="none" id="EstadoEntrada-to-EditarCargaTrabajoView" style="stroke:#181818;stroke-width:1;"/><polygon fill="#181818" points="1070.7,61,1061.7,57,1065.7,61,1061.7,65,1070.7,61" style="stroke:#181818;stroke-width:1;stroke-linejoin:miter;stroke-miterlimit:10;"/><text fill="#000000" font-family="sans-serif" font-size="13" lengthAdjust="spacing" textLength="179.2007" x="602" y="54.4951">editarCargaTrabajo(idPersona)</text></g><!--link EditarCargaTrabajoView to CargaTrabajoController--><g class="link" data-entity-1="ent0003" data-entity-2="ent0004" data-link-type="dependency" data-source-line="20" id="lnk14"><path d="M1071,70.53 C931.05,84.32 670.5,110 670.5,110 C670.5,110 670.5,128 670.5,128 C670.5,128 815.8615,149.0144 914.2015,163.2344" fill="none" id="EditarCargaTrabajoView-to-CargaTrabajoController" style="stroke:#181818;stroke-width:1;"/><polygon fill="#181818" points="919.15,163.95,910.8151,158.7032,914.2015,163.2344,909.6702,166.6208,919.15,163.95" style="stroke:#181818;stroke-width:1;stroke-linejoin:miter;stroke-miterlimit:10;"/><text fill="#000000" font-family="sans-serif" font-size="13" lengthAdjust="spacing" textLength="287.6123" x="671.5" y="124.4951">obtenerCargaDePersona(coordinador, idPersona)</text></g><!--link EditarCargaTrabajoView to CargaTrabajoController--><g class="link" data-entity-1="ent0003" data-entity-2="ent0004" data-link-type="dependency" data-source-line="24" id="lnk18"><path d="M1098.22,80.01 C1053.38,93.63 999.5,110 999.5,110 C999.5,110 999.5,128 999.5,128 C999.5,128 1000.2079,139.2698 1001.0579,152.8598" fill="none" id="EditarCargaTrabajoView-to-CargaTrabajoController-1" style="stroke:#181818;stroke-width:1;"/><polygon fill="#181818" points="1001.37,157.85,1004.8004,148.6179,1001.0579,152.8598,996.816,149.1172,1001.37,157.85" style="stroke:#181818;stroke-width:1;stroke-linejoin:miter;stroke-miterlimit:10;"/><text fill="#000000" font-family="sans-serif" font-size="13" lengthAdjust="spacing" textLength="113.4326" x="1000.5" y="124.4951">validarHoras(datos)</text></g><!--link EditarCargaTrabajoView to CargaTrabajoController--><g class="link" data-entity-1="ent0003" data-entity-2="ent0004" data-link-type="dependency" data-source-line="25" id="lnk19"><path d="M1146.84,80.03 C1135.3,99.58 1118.5,128 1118.5,128 C1118.5,128 1083.5602,142.4585 1050.6402,156.0785" fill="none" id="EditarCargaTrabajoView-to-CargaTrabajoController-2" style="stroke:#181818;stroke-width:1;"/><polygon fill="#181818" points="1046.02,157.99,1055.8655,158.2454,1050.6402,156.0785,1052.8071,150.8531,1046.02,157.99" style="stroke:#181818;stroke-width:1;stroke-linejoin:miter;stroke-miterlimit:10;"/><text fill="#000000" font-family="sans-serif" font-size="13" lengthAdjust="spacing" textLength="338.1841" x="1129.5" y="124.4951">actualizarCargaDePersona(coordinador, idPersona, datos)</text></g><!--link CargaTrabajoController to CargaTrabajoService--><g class="link" data-entity-1="ent0004" data-entity-2="ent0005" data-link-type="dependency" data-source-line="21" id="lnk15"><path d="M919.19,184.8 C756.98,198.04 414.5,226 414.5,226 C414.5,226 414.5,244 414.5,244 C414.5,244 462.2465,258.8822 505.9465,272.5022" fill="none" id="CargaTrabajoController-to-CargaTrabajoService" style="stroke:#181818;stroke-width:1;"/><polygon fill="#181818" points="510.72,273.99,503.3179,267.4932,505.9465,272.5022,500.9374,275.1308,510.72,273.99" style="stroke:#181818;stroke-width:1;stroke-linejoin:miter;stroke-miterlimit:10;"/><text fill="#000000" font-family="sans-serif" font-size="13" lengthAdjust="spacing" textLength="271.7051" x="415.5" y="240.4951">obtenerCargaPorPerfil(coordinador, personaId)</text></g><!--link CargaTrabajoController to CargaTrabajoService--><g class="link" data-entity-1="ent0004" data-entity-2="ent0005" data-link-type="dependency" data-source-line="22" id="lnk16"><path d="M919.17,192.34 C836.96,206.48 723.5,226 723.5,226 C723.5,226 691.5,244 691.5,244 C691.5,244 654.2079,258.5522 619.3079,272.1722" fill="none" id="CargaTrabajoController-to-CargaTrabajoService-1" style="stroke:#181818;stroke-width:1;"/><polygon fill="#181818" points="614.65,273.99,624.4884,274.4443,619.3079,272.1722,621.5799,266.9917,614.65,273.99" style="stroke:#181818;stroke-width:1;stroke-linejoin:miter;stroke-miterlimit:10;"/><text fill="#000000" font-family="sans-serif" font-size="13" lengthAdjust="spacing" textLength="322.2769" x="724.5" y="240.4951">actualizarCargaPorPerfil(coordinador, personaId, datos)</text></g><!--link CargaTrabajoController to SesionService--><g class="link" data-entity-1="ent0004" data-entity-2="ent0006" data-link-type="dependency" data-source-line="23" id="lnk17"><path d="M1022.54,196.15 C1037.55,209.74 1055.5,226 1055.5,226 C1055.5,226 1069.7584,250.1142 1081.2984,269.6642" fill="none" id="CargaTrabajoController-to-SesionService" style="stroke:#181818;stroke-width:1;"/><polygon fill="#181818" points="1083.84,273.97,1082.7097,264.1862,1081.2984,269.6642,1075.8204,268.2528,1083.84,273.97" style="stroke:#181818;stroke-width:1;stroke-linejoin:miter;stroke-miterlimit:10;"/><text fill="#000000" font-family="sans-serif" font-size="13" lengthAdjust="spacing" textLength="209.5806" x="1066.5" y="240.4951">obtenerSesionActual(authentication)</text></g><!--link CargaTrabajoService to PersonaRepository--><g class="link" data-entity-1="ent0005" data-entity-2="ent0008" data-link-type="dependency" data-source-line="26" id="lnk20"><path d="M644.75,301.5 C782,315 1056.5,342 1056.5,342 C1056.5,342 1092.8886,367.5459 1120.7186,387.0959" fill="none" id="CargaTrabajoService-to-PersonaRepository" style="stroke:#181818;stroke-width:1;"/><polygon fill="#181818" points="1124.81,389.97,1119.7448,381.5235,1120.7186,387.0959,1115.1462,388.0697,1124.81,389.97" style="stroke:#181818;stroke-width:1;stroke-linejoin:miter;stroke-miterlimit:10;"/><text fill="#000000" font-family="sans-serif" font-size="13" lengthAdjust="spacing" textLength="142.3589" x="1082.5" y="356.4951">obtenerPorId(idPersona)</text></g><!--link CargaTrabajoService to CargaTrabajoRepository--><g class="link" data-entity-1="ent0005" data-entity-2="ent0007" data-link-type="dependency" data-source-line="27" id="lnk21"><path d="M644.72,306.24 C733.31,320.46 867.5,342 867.5,342 C867.5,342 867.5,360 867.5,360 C867.5,360 815.3555,374.9889 767.9655,388.6089" fill="none" id="CargaTrabajoService-to-CargaTrabajoRepository" style="stroke:#181818;stroke-width:1;"/><polygon fill="#181818" points="763.16,389.99,772.9147,391.3484,767.9655,388.6089,770.705,383.6596,763.16,389.99" style="stroke:#181818;stroke-width:1;stroke-linejoin:miter;stroke-miterlimit:10;"/><text fill="#000000" font-family="sans-serif" font-size="13" lengthAdjust="spacing" textLength="179.937" x="868.5" y="356.4951">obtenerPorPersona(idPersona)</text></g><!--link CargaTrabajoService to CargaTrabajoRepository--><g class="link" data-entity-1="ent0005" data-entity-2="ent0007" data-link-type="dependency" data-source-line="30" id="lnk24"><path d="M499.09,312.01 C446.59,325.63 383.5,342 383.5,342 C383.5,342 383.5,360 383.5,360 C383.5,360 586.5,390 586.5,390 C586.5,390 593.1113,391.0397 608.8713,393.5297" fill="none" id="CargaTrabajoService-to-CargaTrabajoRepository-1" style="stroke:#181818;stroke-width:1;"/><polygon fill="#181818" points="613.81,394.31,605.5445,388.9545,608.8713,393.5297,604.296,396.8565,613.81,394.31" style="stroke:#181818;stroke-width:1;stroke-linejoin:miter;stroke-miterlimit:10;"/><text fill="#000000" font-family="sans-serif" font-size="13" lengthAdjust="spacing" textLength="140.8926" x="384.5" y="356.4951">actualizar(cargaTrabajo)</text></g><!--link CargaTrabajoService to CargaTrabajoRepository--><g class="link" data-entity-1="ent0005" data-entity-2="ent0007" data-link-type="dependency" data-source-line="31" id="lnk25"><path d="M565.85,312.15 C563.87,325.74 561.5,342 561.5,342 C561.5,342 561.5,360 561.5,360 C561.5,360 604.1737,374.7383 643.6237,388.3583" fill="none" id="CargaTrabajoService-to-CargaTrabajoRepository-2" style="stroke:#181818;stroke-width:1;"/><polygon fill="#181818" points="648.35,389.99,641.1481,383.2719,643.6237,388.3583,638.5374,390.8339,648.35,389.99" style="stroke:#181818;stroke-width:1;stroke-linejoin:miter;stroke-miterlimit:10;"/><text fill="#000000" font-family="sans-serif" font-size="13" lengthAdjust="spacing" textLength="296.2451" x="562.5" y="356.4951">recalcularPrioridadParaProyectosLibres(idPersona)</text></g><!--link CargaTrabajoController to Persona--><g class="link" data-entity-1="ent0004" data-entity-2="ent0010" data-link-type="dependency" data-source-line="28" id="lnk22"><path d="M1085.58,192.14 C1168.77,206.3 1284.5,226 1284.5,226 C1284.5,226 1284.5,244 1284.5,244 C1284.5,244 1239.8492,424.6459 1225.1692,484.0659" fill="none" id="CargaTrabajoController-to-Persona" style="stroke:#181818;stroke-width:1;"/><polygon fill="#181818" points="1223.97,488.92,1230.0118,481.1421,1225.1692,484.0659,1222.2453,479.2233,1223.97,488.92" style="stroke:#181818;stroke-width:1;stroke-linejoin:miter;stroke-miterlimit:10;"/><text fill="#000000" font-family="sans-serif" font-size="13" lengthAdjust="spacing" textLength="209.5806" x="1260.5" y="356.4951">esInvestigadorDocenteSegunSede()</text></g><!--link CargaTrabajoService to CargaTrabajo--><g class="link" data-entity-1="ent0005" data-entity-2="ent0009" data-link-type="dependency" data-source-line="29" id="lnk23"><path d="M496.08,312.01 C441.32,325.63 375.5,342 375.5,342 C375.5,342 375.5,360 375.5,360 C375.5,360 397.5,428 397.5,428 C397.5,428 429.9538,461.7364 452.4038,485.0764" fill="none" id="CargaTrabajoService-to-CargaTrabajo" style="stroke:#181818;stroke-width:1;"/><polygon fill="#181818" points="455.87,488.68,452.5138,479.4206,452.4038,485.0764,446.7481,484.9665,455.87,488.68" style="stroke:#181818;stroke-width:1;stroke-linejoin:miter;stroke-miterlimit:10;"/><text fill="#000000" font-family="sans-serif" font-size="13" lengthAdjust="spacing" textLength="197.2471" x="398.5" y="414.4951">validarLimiteDocente(maximo16h)</text></g><!--link PersonaRepository to Persona--><g class="link" data-entity-1="ent0008" data-entity-2="ent0010" data-link-type="association" data-source-line="32" id="lnk26"><path d="M1163.48,428.24 C1175.81,445.59 1194.26,471.52 1206.58,488.84" fill="none" id="PersonaRepository-Persona" style="stroke:#181818;stroke-width:1;"/></g><!--link CargaTrabajoRepository to CargaTrabajo--><g class="link" data-entity-1="ent0007" data-entity-2="ent0009" data-link-type="association" data-source-line="33" id="lnk27"><path d="M658.34,428.02 C617.69,445.39 556.52,471.52 515.82,488.91" fill="none" id="CargaTrabajoRepository-CargaTrabajo" style="stroke:#181818;stroke-width:1;"/></g><!--link EditarCargaTrabajoView to EstadoSalida--><g class="link" data-entity-1="ent0003" data-entity-2="ent0011" data-link-type="dependency" data-source-line="34" id="lnk28"><path d="M1244.25,75.05 C1338.71,89.27 1476.5,110 1476.5,110 C1476.5,110 1534.5,128 1534.5,128 C1534.5,128 1588.682,143.0332 1637.772,156.6532" fill="none" id="EditarCargaTrabajoView-to-EstadoSalida" style="stroke:#181818;stroke-width:1;stroke-dasharray:7,7;"/><polygon fill="#181818" points="1642.59,157.99,1634.987,151.7295,1637.772,156.6532,1632.8482,159.4382,1642.59,157.99" style="stroke:#181818;stroke-width:1;stroke-linejoin:miter;stroke-miterlimit:10;"/><text fill="#000000" font-family="sans-serif" font-size="13" lengthAdjust="spacing" textLength="152.4644" x="1535.5" y="124.4951">cargaTrabajoActualizada()</text></g><!--link EditarCargaTrabajoView to EstadoSalida--><g class="link" data-entity-1="ent0003" data-entity-2="ent0011" data-link-type="dependency" data-source-line="35" id="lnk29"><path d="M1244.05,69.77 C1395.47,83.35 1692.5,110 1692.5,110 C1692.5,110 1697.8526,133.5442 1702.2926,153.0942" fill="none" id="EditarCargaTrabajoView-to-EstadoSalida-1" style="stroke:#181818;stroke-width:1;stroke-dasharray:7,7;"/><polygon fill="#181818" points="1703.4,157.97,1705.3074,148.3076,1702.2926,153.0942,1697.5061,150.0794,1703.4,157.97" style="stroke:#181818;stroke-width:1;stroke-linejoin:miter;stroke-miterlimit:10;"/><text fill="#000000" font-family="sans-serif" font-size="13" lengthAdjust="spacing" textLength="100.4326" x="1697.5" y="124.4951">cancelarEdicion()</text></g><!--link EditarCargaTrabajoView to AbrirPanelPrincipal--><g class="link" data-entity-1="ent0003" data-entity-2="ent0012" data-link-type="dependency" data-source-line="36" id="lnk30"><path d="M1244.02,68.4 C1420.71,81.47 1806.5,110 1806.5,110 C1806.5,110 1889.1652,136.8736 1949.2752,156.4236" fill="none" id="EditarCargaTrabajoView-to-AbrirPanelPrincipal" style="stroke:#181818;stroke-width:1;stroke-dasharray:7,7;"/><polygon fill="#181818" points="1954.03,157.97,1946.7084,151.3825,1949.2752,156.4236,1944.2341,158.9903,1954.03,157.97" style="stroke:#181818;stroke-width:1;stroke-linejoin:miter;stroke-miterlimit:10;"/><text fill="#000000" font-family="sans-serif" font-size="13" lengthAdjust="spacing" textLength="117.7681" x="1861.5" y="124.4951">abrirPanelPrincipal()</text></g><?plantuml-src fPLTRzem58RlyoiiTXEaKcdLYbOkAeMGRapLY0ZQBJgnpwZNO4UsOMFJ_liEaBA491GsxcAzVix7UtomprBbO639CgdGRN9akSussm_FCyWTg4M6x4quYeR1BUiC9d4uddoEadaOJ3y4yzaq60QV9lDWE8wcio3fCB0iiWw4ZfGp8C3BWJ_30XaAwS24O1OmCv32DxtLTkh7VhV3VdcCVgK4-ZTtqSCTYshgBnA_7ulJsrJqtxEoBDIKZiuoD6U84pHhoR55cQ2LMhLe7cw2y5rKeKqnrrOwRJOjuXYDrGfUrPMXfr7Ux_zrBu5CadbDa93Q2AasuAWDB4YDD34ep68Z5PSvP3jCmxddLIQ3zKplliNHGSEu-58KvNM9r7YDzGGXctqVC9qwLBY_DCA2vNEjZP2AyZ9Nh1IYcS9wHm6AEQZIOss8yrLcLNg-Pu_5vNJWRaMM_8Jp0bmn0KxRat4gStp8VtyQxCBvi79Fg9paEw-xhLq_qVJrRf3CHveNwnT9_GFcgFxNx6kiloXr5wVsvWuDeDQEXTyo26L4ynilSrvoF6-g2WsDlXshDLed5zkgHfgJ1PZWOaLc2VJFo-ZG-KUvb0uBYh-47tAft_QVBg_hhmK-Bqak1z5IWOolCZ2q6hIX94LC_q6nqHjQDze-ojIWBNUjvXRn3xkkESnMKLcOBKDtVNrVMNa3LYukUAbPWD-z1A4uKdrqWTF3ENsrOLDIi-k7HFa3?></g></svg>