<svg xmlns="http://www.w3.org/2000/svg" xmlns:xlink="http://www.w3.org/1999/xlink" contentStyleType="text/css" height="434px" preserveAspectRatio="none" style="width:2261px;height:434px;background:#FFFFFF;" version="1.1" viewBox="0 0 2261 434" width="2261px" zoomAndPan="magnify"><defs/><g><!--cluster editarCargaTrabajo--><g id="cluster_editarCargaTrabajo"><path d="M331,6 L469.6963,6 A3.75,3.75 0 0 1 472.1963,8.5 L479.1963,29.6094 L1667,29.6094 A2.5,2.5 0 0 1 1669.5,32.1094 L1669.5,424.5 A2.5,2.5 0 0 1 1667,427 L331,427 A2.5,2.5 0 0 1 328.5,424.5 L328.5,8.5 A2.5,2.5 0 0 1 331,6 " fill="none" style="stroke:#000000;stroke-width:1.5;"/><line style="stroke:#000000;stroke-width:1.5;" x1="328.5" x2="479.1963" y1="29.6094" y2="29.6094"/><text fill="#000000" font-family="sans-serif" font-size="14" font-weight="bold" lengthAdjust="spacing" textLength="137.6963" x="332.5" y="22.5332">editarCargaTrabajo()</text></g><!--entity EditarCargaTrabajoView--><g id="elem_EditarCargaTrabajoView"><rect fill="#629EF9" height="37.6094" rx="2.5" ry="2.5" style="stroke:#181818;stroke-width:0.5;" width="172.5166" x="1178" y="42"/><text fill="#000000" font-family="sans-serif" font-size="14" lengthAdjust="spacing" textLength="152.5166" x="1188" y="66.5332">EditarCargaTrabajoView</text></g><!--entity CargaTrabajoController--><g id="elem_CargaTrabajoController"><rect fill="#B5BD68" height="37.6094" rx="2.5" ry="2.5" style="stroke:#181818;stroke-width:0.5;" width="166.2891" x="924.5" y="158"/><text fill="#000000" font-family="sans-serif" font-size="14" lengthAdjust="spacing" textLength="146.2891" x="934.5" y="182.5332">CargaTrabajoController</text></g><!--entity CargaTrabajoRepository--><g id="elem_CargaTrabajoRepository"><rect fill="#F2AC4E" height="37.6094" rx="2.5" ry="2.5" style="stroke:#181818;stroke-width:0.5;" width="172.5166" x="675" y="274"/><text fill="#000000" font-family="sans-serif" font-size="14" lengthAdjust="spacing" textLength="152.5166" x="685" y="298.5332">CargaTrabajoRepository</text></g><!--entity PersonaRepository--><g id="elem_PersonaRepository"><rect fill="#F2AC4E" height="37.6094" rx="2.5" ry="2.5" style="stroke:#181818;stroke-width:0.5;" width="139.0615" x="1514" y="274"/><text fill="#000000" font-family="sans-serif" font-size="14" lengthAdjust="spacing" textLength="119.0615" x="1524" y="298.5332">PersonaRepository</text></g><!--entity RecompensaRepository--><g id="elem_RecompensaRepository"><rect fill="#F2AC4E" height="37.6094" rx="2.5" ry="2.5" style="stroke:#181818;stroke-width:0.5;" width="169.4063" x="1028" y="274"/><text fill="#000000" font-family="sans-serif" font-size="14" lengthAdjust="spacing" textLength="149.4063" x="1038" y="298.5332">RecompensaRepository</text></g><!--entity CargaTrabajo--><g id="elem_CargaTrabajo"><rect fill="#F2AC4E" height="37.6094" rx="2.5" ry="2.5" style="stroke:#181818;stroke-width:0.5;" width="105.5996" x="435.5" y="373"/><text fill="#000000" font-family="sans-serif" font-size="14" lengthAdjust="spacing" textLength="85.5996" x="445.5" y="397.5332">CargaTrabajo</text></g><!--entity Persona--><g id="elem_Persona"><rect fill="#F2AC4E" height="37.6094" rx="2.5" ry="2.5" style="stroke:#181818;stroke-width:0.5;" width="72.1445" x="1312.5" y="373"/><text fill="#000000" font-family="sans-serif" font-size="14" lengthAdjust="spacing" textLength="52.1445" x="1322.5" y="397.5332">Persona</text></g><!--entity Recompensa--><g id="elem_Recompensa"><rect fill="#F2AC4E" height="37.6094" rx="2.5" ry="2.5" style="stroke:#181818;stroke-width:0.5;" width="102.4893" x="1061.5" y="373"/><text fill="#000000" font-family="sans-serif" font-size="14" lengthAdjust="spacing" textLength="82.4893" x="1071.5" y="397.5332">Recompensa</text></g><!--entity EstadoEntrada--><g id="elem_EstadoEntrada"><rect fill="#CDEBA5" height="37.6094" rx="2.5" ry="2.5" style="stroke:#181818;stroke-width:0.5;" width="304.7441" x="7" y="42"/><text fill="#000000" font-family="sans-serif" font-size="14" lengthAdjust="spacing" textLength="284.7441" x="17" y="66.5332">:OPCIONES_CARGA_TRABAJO_ABIERTAS</text></g><!--entity EstadoSalida--><g id="elem_EstadoSalida"><rect fill="#CDEBA5" height="37.6094" rx="2.5" ry="2.5" style="stroke:#181818;stroke-width:0.5;" width="304.7441" x="1686" y="158"/><text fill="#000000" font-family="sans-serif" font-size="14" lengthAdjust="spacing" textLength="284.7441" x="1696" y="182.5332">:OPCIONES_CARGA_TRABAJO_ABIERTAS</text></g><!--entity AbrirPanelPrincipal--><g id="elem_AbrirPanelPrincipal"><rect fill="#CDEBA5" height="37.6094" rx="2.5" ry="2.5" style="stroke:#181818;stroke-width:0.5;" width="229.3301" x="2026" y="158"/><text fill="#000000" font-family="sans-serif" font-size="14" lengthAdjust="spacing" textLength="209.3301" x="2036" y="182.5332">:Collaboration AbrirPanelPrincipal</text></g><!--link EstadoEntrada to EditarCargaTrabajoView--><g id="link_EstadoEntrada_EditarCargaTrabajoView"><path d="M312.28,61 C547.56,61 984.97,61 1171.9,61 " fill="none" id="EstadoEntrada-to-EditarCargaTrabajoView" style="stroke:#181818;stroke-width:1;"/><polygon fill="#181818" points="1177.9,61,1168.9,57,1172.9,61,1168.9,65,1177.9,61" style="stroke:#181818;stroke-width:1;"/><text fill="#000000" font-family="sans-serif" font-size="13" lengthAdjust="spacing" textLength="179.2007" x="655.5" y="54.4951">editarCargaTrabajo(idPersona)</text></g><!--link EditarCargaTrabajoView to CargaTrabajoController--><g id="link_EditarCargaTrabajoView_CargaTrabajoController"><path d="M1178,70.53 C1038.05,84.32 777.5,110 777.5,110 C777.5,110 777.5,128 777.5,128 C777.5,128 852.7066,143.6941 918.5866,157.4441 " fill="none" id="EditarCargaTrabajoView-to-CargaTrabajoController" style="stroke:#181818;stroke-width:1;"/><polygon fill="#181818" points="924.46,158.67,916.4671,152.9156,919.5655,157.6484,914.8326,160.7468,924.46,158.67" style="stroke:#181818;stroke-width:1;"/><text fill="#000000" font-family="sans-serif" font-size="13" lengthAdjust="spacing" textLength="287.6123" x="778.5" y="124.4951">obtenerCargaDePersona(coordinador, idPersona)</text></g><!--link EditarCargaTrabajoView to CargaTrabajoController--><g id="link_EditarCargaTrabajoView_CargaTrabajoController"><path d="M1205.22,80.01 C1160.38,93.63 1106.5,110 1106.5,110 C1106.5,110 1068.8515,135.0906 1039.5415,154.6406 " fill="none" id="EditarCargaTrabajoView-to-CargaTrabajoController-1" style="stroke:#181818;stroke-width:1;"/><polygon fill="#181818" points="1034.55,157.97,1044.2569,156.3036,1038.7096,155.1955,1039.8177,149.6483,1034.55,157.97" style="stroke:#181818;stroke-width:1;"/><text fill="#000000" font-family="sans-serif" font-size="13" lengthAdjust="spacing" textLength="113.4326" x="1107.5" y="124.4951">validarHoras(datos)</text></g><!--link EditarCargaTrabajoView to CargaTrabajoController--><g id="link_EditarCargaTrabajoView_CargaTrabajoController"><path d="M1253.84,80.03 C1242.3,99.58 1225.5,128 1225.5,128 C1225.5,128 1157.0096,143.0797 1095.1596,156.6997 " fill="none" id="EditarCargaTrabajoView-to-CargaTrabajoController-2" style="stroke:#181818;stroke-width:1;"/><polygon fill="#181818" points="1089.3,157.99,1098.9496,159.9609,1094.183,156.9147,1097.2292,152.1481,1089.3,157.99" style="stroke:#181818;stroke-width:1;"/><text fill="#000000" font-family="sans-serif" font-size="13" lengthAdjust="spacing" textLength="338.1841" x="1236.5" y="124.4951">actualizarCargaDePersona(coordinador, idPersona, datos)</text></g><!--link CargaTrabajoController to PersonaRepository--><g id="link_CargaTrabajoController_PersonaRepository"><path d="M1090.54,186.61 C1223.78,200.42 1470.5,226 1470.5,226 C1470.5,226 1513.9899,251.3924 1547.4399,270.9424 " fill="none" id="CargaTrabajoController-to-PersonaRepository" style="stroke:#181818;stroke-width:1;"/><polygon fill="#181818" points="1552.62,273.97,1546.8682,265.9752,1548.3032,271.447,1542.8314,272.8821,1552.62,273.97" style="stroke:#181818;stroke-width:1;"/><text fill="#000000" font-family="sans-serif" font-size="13" lengthAdjust="spacing" textLength="142.3589" x="1501.5" y="240.4951">obtenerPorId(idPersona)</text></g><!--link CargaTrabajoController to CargaTrabajoRepository--><g id="link_CargaTrabajoController_CargaTrabajoRepository"><path d="M966.98,196.01 C936.33,209.63 899.5,226 899.5,226 C899.5,226 867.5,244 867.5,244 C867.5,244 836.8158,257.8951 806.7358,271.5151 " fill="none" id="CargaTrabajoController-to-CargaTrabajoRepository" style="stroke:#181818;stroke-width:1;"/><polygon fill="#181818" points="801.27,273.99,811.1186,273.9216,805.8248,271.9276,807.8188,266.6338,801.27,273.99" style="stroke:#181818;stroke-width:1;"/><text fill="#000000" font-family="sans-serif" font-size="13" lengthAdjust="spacing" textLength="179.937" x="900.5" y="240.4951">obtenerPorPersona(idPersona)</text></g><!--link CargaTrabajoController to CargaTrabajoRepository--><g id="link_CargaTrabajoController_CargaTrabajoRepository"><path d="M924.32,184.4 C754.43,197.47 383.5,226 383.5,226 C383.5,226 383.5,244 383.5,244 C383.5,244 647.5,274 647.5,274 C647.5,274 653.1235,274.8836 668.8835,277.3736 " fill="none" id="CargaTrabajoController-to-CargaTrabajoRepository-1" style="stroke:#181818;stroke-width:1;"/><polygon fill="#181818" points="674.81,278.31,666.5445,272.9545,669.8713,277.5297,665.296,280.8565,674.81,278.31" style="stroke:#181818;stroke-width:1;"/><text fill="#000000" font-family="sans-serif" font-size="13" lengthAdjust="spacing" textLength="140.8926" x="384.5" y="240.4951">actualizar(cargaTrabajo)</text></g><!--link CargaTrabajoController to CargaTrabajoRepository--><g id="link_CargaTrabajoController_CargaTrabajoRepository"><path d="M924.4,186.94 C795.36,200.83 561.5,226 561.5,226 C561.5,226 561.5,244 561.5,244 C561.5,244 623.8757,258.9698 680.6257,272.5898 " fill="none" id="CargaTrabajoController-to-CargaTrabajoRepository-2" style="stroke:#181818;stroke-width:1;"/><polygon fill="#181818" points="686.46,273.99,678.642,268.0001,681.5981,272.8231,676.775,275.7792,686.46,273.99" style="stroke:#181818;stroke-width:1;"/><text fill="#000000" font-family="sans-serif" font-size="13" lengthAdjust="spacing" textLength="296.2451" x="562.5" y="240.4951">recalcularPrioridadParaProyectosLibres(idPersona)</text></g><!--link CargaTrabajoController to Persona--><g id="link_CargaTrabajoController_Persona"><path d="M1090.66,187.28 C1215.66,201.24 1437.5,226 1437.5,226 C1437.5,226 1437.5,244 1437.5,244 C1437.5,244 1285.5,274 1285.5,274 C1285.5,274 1285.5,312 1285.5,312 C1285.5,312 1311.5394,344.6487 1330.1494,367.9887 " fill="none" id="CargaTrabajoController-to-Persona" style="stroke:#181818;stroke-width:1;"/><polygon fill="#181818" points="1333.89,372.68,1331.4067,363.1494,1330.7729,368.7706,1325.1516,368.1368,1333.89,372.68" style="stroke:#181818;stroke-width:1;"/><text fill="#000000" font-family="sans-serif" font-size="13" lengthAdjust="spacing" textLength="209.5806" x="1286.5" y="298.4951">esInvestigadorDocenteSegunSede()</text></g><!--link CargaTrabajoController to CargaTrabajo--><g id="link_CargaTrabajoController_CargaTrabajo"><path d="M924.23,184.32 C752.61,197.36 375.5,226 375.5,226 C375.5,226 375.5,244 375.5,244 C375.5,244 397.5,312 397.5,312 C397.5,312 435.9795,345.4062 462.8595,368.7462 " fill="none" id="CargaTrabajoController-to-CargaTrabajo" style="stroke:#181818;stroke-width:1;"/><polygon fill="#181818" points="467.39,372.68,463.2169,363.759,463.6146,369.4018,457.9718,369.7996,467.39,372.68" style="stroke:#181818;stroke-width:1;"/><text fill="#000000" font-family="sans-serif" font-size="13" lengthAdjust="spacing" textLength="258.667" x="398.5" y="298.4951">calcularExcesoDocenteSiAplica(maximo16h)</text></g><!--link CargaTrabajoController to RecompensaRepository--><g id="link_CargaTrabajoController_RecompensaRepository"><path d="M1038.12,196.15 C1061.06,209.74 1088.5,226 1088.5,226 C1088.5,226 1096.7919,248.7804 1103.8919,268.3304 " fill="none" id="CargaTrabajoController-to-RecompensaRepository" style="stroke:#181818;stroke-width:1;"/><polygon fill="#181818" points="1105.94,273.97,1106.6275,264.1452,1104.2332,269.2703,1099.1081,266.876,1105.94,273.97" style="stroke:#181818;stroke-width:1;"/><text fill="#000000" font-family="sans-serif" font-size="13" lengthAdjust="spacing" textLength="333.1187" x="1095.5" y="240.4951">registrarCompensacionPendienteSiExcede(cargaTrabajo)</text></g><!--link PersonaRepository to Persona--><g id="link_PersonaRepository_Persona"><path d="M1539.85,312.02 C1495.12,330.48 1426.37,358.86 1384.6,376.1 " fill="none" id="PersonaRepository-Persona" style="stroke:#181818;stroke-width:1;"/></g><!--link CargaTrabajoRepository to CargaTrabajo--><g id="link_CargaTrabajoRepository_CargaTrabajo"><path d="M710.79,312.02 C661.91,329.39 588.35,355.52 539.4,372.91 " fill="none" id="CargaTrabajoRepository-CargaTrabajo" style="stroke:#181818;stroke-width:1;"/></g><!--link RecompensaRepository to Recompensa--><g id="link_RecompensaRepository_Recompensa"><path d="M1112.5,312.24 C1112.5,329.59 1112.5,355.52 1112.5,372.84 " fill="none" id="RecompensaRepository-Recompensa" style="stroke:#181818;stroke-width:1;"/></g><!--link EditarCargaTrabajoView to EstadoSalida--><g id="link_EditarCargaTrabajoView_EstadoSalida"><path d="M1351.25,75.05 C1445.71,89.27 1583.5,110 1583.5,110 C1583.5,110 1641.5,128 1641.5,128 C1641.5,128 1702.8505,142.9497 1758.7505,156.5697 " fill="none" id="EditarCargaTrabajoView-to-EstadoSalida" style="stroke:#181818;stroke-width:1;stroke-dasharray:7.0,7.0;"/><polygon fill="#181818" points="1764.58,157.99,1756.7827,151.9732,1759.7221,156.8064,1754.8889,159.7458,1764.58,157.99" style="stroke:#181818;stroke-width:1;"/><text fill="#000000" font-family="sans-serif" font-size="13" lengthAdjust="spacing" textLength="152.4644" x="1642.5" y="124.4951">cargaTrabajoActualizada()</text></g><!--link EditarCargaTrabajoView to EstadoSalida--><g id="link_EditarCargaTrabajoView_EstadoSalida"><path d="M1351.05,69.77 C1502.47,83.35 1799.5,110 1799.5,110 C1799.5,110 1813.25,133.253 1824.79,152.803 " fill="none" id="EditarCargaTrabajoView-to-EstadoSalida-1" style="stroke:#181818;stroke-width:1;stroke-dasharray:7.0,7.0;"/><polygon fill="#181818" points="1827.84,157.97,1826.7097,148.1862,1825.2984,153.6642,1819.8204,152.2528,1827.84,157.97" style="stroke:#181818;stroke-width:1;"/><text fill="#000000" font-family="sans-serif" font-size="13" lengthAdjust="spacing" textLength="100.4326" x="1810.5" y="124.4951">cancelarEdicion()</text></g><!--link EditarCargaTrabajoView to AbrirPanelPrincipal--><g id="link_EditarCargaTrabajoView_AbrirPanelPrincipal"><path d="M1351.14,68.35 C1529.16,81.39 1919.5,110 1919.5,110 C1919.5,110 2008.9311,136.7023 2074.3611,156.2523 " fill="none" id="EditarCargaTrabajoView-to-AbrirPanelPrincipal" style="stroke:#181818;stroke-width:1;stroke-dasharray:7.0,7.0;"/><polygon fill="#181818" points="2080.11,157.97,2072.6318,151.5608,2075.3193,156.5386,2070.3416,159.226,2080.11,157.97" style="stroke:#181818;stroke-width:1;"/><text fill="#000000" font-family="sans-serif" font-size="13" lengthAdjust="spacing" textLength="117.7681" x="1979.5" y="124.4951">abrirPanelPrincipal()</text></g><!--SRC=[fLHTRzem57tFhx3OIv1AfLKhMdce54AwCKqZ0hHNT6DVPLwD7LsRhcpQVwz3GnkQy36MjzZ7vznxxeUzbxe0WYLJKgDR5yWAezRbJn0GSWSwLyZUnQDa65sppc2InkF9jsIsYAFffsWndqR3wCja4Gt7oNGUpJeCB4ki0s4IxGW410NmUyYHeP0EA0RAOKwGmKzJOZlDux3RONy2vhzQ0Fshc-JkXYKDz7U9lzw2i-jCz3-oEYmsFXoZ5D9RyDrL57z8Ti1JB8oLpj1w3pX5iaR3KTmKkLaMgErnQ5t_iEfHhU3l_zPk1ahwqhMHnDv4o0o1aqQpA2D9AMXKAKdDPG5gGzDo7WGxVS5wrBlTKyz1IxE4KbJvTprJwpFM4vwolUe3PZA76fyVZR3Y2han9AJsST45gqdiKpWWyB0nZJvxRsmem1bx5Wrmj_9Cl-6qK2zO9TNEjv5gjEkB6wcXiQXRUu2bVKBgLDj8J-EhCBxOTgmVq3gPbxcD34VjS8RvIizGO7XoK0F6GV6L0aeUELgpPP9HeII7S0cFScdUzt-SbUPhNK9UWvp5vGUhYjIFXo7VDYBrMpWbi_OZP-nNcH7Q4triMpAbH2wjdpIAgqlkvpL5BUIp9wL5tjpTL1gDuWLUravxCYLYPtUrXLE2QljfprHSNjxkx9-odg-GQEk_WB3xBnIQOzaIGfOE77xQihPyuPk7dkK9]--></g></svg>