<svg xmlns="http://www.w3.org/2000/svg" xmlns:xlink="http://www.w3.org/1999/xlink" contentStyleType="text/css" data-diagram-type="STATE" height="1007px" preserveAspectRatio="none" style="width:1151px;height:1007px;background:#FFFFFF;" version="1.1" viewBox="0 0 1151 1007" width="1151px" zoomAndPan="magnify"><?plantuml 1.2026.6?><defs/><g><g class="entity" data-qualified-name="in1" data-source-line="3" id="ent0001"><rect fill="#F1F1F1" height="50" rx="12.5" ry="12.5" style="stroke:#181818;stroke-width:0.5;" width="202.0547" x="470.5" y="7"/><line style="stroke:#181818;stroke-width:0.5;" x1="470.5" x2="672.5547" y1="34.6094" y2="34.6094"/><text fill="#000000" font-family="sans-serif" font-size="14" lengthAdjust="spacing" textLength="182.0547" x="480.5" y="26.5332">ENTREGABLES_ABIERTOS</text></g><g class="entity" data-qualified-name="crearEntregable" data-source-line="6" id="ent0002"><path d="M19.5,118 L1123.5,118 A12.5,12.5 0 0 1 1136,130.5 L1136,145.6094 L7,145.6094 L7,130.5 A12.5,12.5 0 0 1 19.5,118" fill="#F1F1F1"/><rect fill="none" height="728.6094" rx="12.5" ry="12.5" style="stroke:#181818;stroke-width:0.5;" width="1129" x="7" y="118"/><line style="stroke:#181818;stroke-width:0.5;" x1="7" x2="1136" y1="145.6094" y2="145.6094"/><text fill="#000000" font-family="sans-serif" font-size="14" lengthAdjust="spacing" textLength="108.9375" x="517.0313" y="137.5332">crearEntregable()</text><g class="entity" data-qualified-name="crearEntregable.SolicitandoDatos" data-source-line="8" id="ent0003"><rect fill="#F1F1F1" height="50" rx="12.5" ry="12.5" style="stroke:#181818;stroke-width:0.5;" width="50" x="279" y="248.6094"/><line style="stroke:#181818;stroke-width:0.5;" x1="279" x2="329" y1="276.2188" y2="276.2188"/><text fill="#000000" font-family="sans-serif" font-size="14" lengthAdjust="spacing" textLength="3.8896" x="302.0552" y="268.1426">&#160;</text></g><g class="entity" data-qualified-name="crearEntregable.RegistrandoEntregable" data-source-line="9" id="ent0004"><rect fill="#F1F1F1" height="50" rx="12.5" ry="12.5" style="stroke:#181818;stroke-width:0.5;" width="50" x="279" y="533.6094"/><line style="stroke:#181818;stroke-width:0.5;" x1="279" x2="329" y1="561.2188" y2="561.2188"/><text fill="#000000" font-family="sans-serif" font-size="14" lengthAdjust="spacing" textLength="3.8896" x="302.0552" y="553.1426">&#160;</text></g><g class="entity" data-qualified-name="crearEntregable.ValidandoDatos" data-source-line="10" id="ent0005"><rect fill="#F1F1F1" height="50" rx="12.5" ry="12.5" style="stroke:#181818;stroke-width:0.5;" width="50" x="279" y="672.6094"/><line style="stroke:#181818;stroke-width:0.5;" x1="279" x2="329" y1="700.2188" y2="700.2188"/><text fill="#000000" font-family="sans-serif" font-size="14" lengthAdjust="spacing" textLength="3.8896" x="302.0552" y="692.1426">&#160;</text></g><g class="start_entity" data-qualified-name="crearEntregable..start.crearEntregable" data-source-line="12" id="ent0007"><ellipse cx="304" cy="166.6094" fill="#222222" rx="10" ry="10" style="stroke:#222222;stroke-width:1;"/></g><g class="end_entity" data-qualified-name="crearEntregable..end.crearEntregable" data-source-line="37" id="ent0011"><ellipse cx="542" cy="822.6094" fill="none" rx="11" ry="11" style="stroke:#222222;stroke-width:1;"/><ellipse cx="542" cy="822.6094" fill="#222222" rx="6" ry="6" style="stroke:#222222;stroke-width:1;"/></g><!--link *start*crearEntregable to SolicitandoDatos--><g class="link" data-entity-1="ent0007" data-entity-2="ent0003" data-link-type="dependency" data-source-line="12" id="lnk8"><path d="M304,176.9294 C304,192.7894 304,220.5194 304,243.2494" fill="none" id="*start*crearEntregable-to-SolicitandoDatos" style="stroke:#008000;stroke-width:1;"/><polygon fill="#008000" points="304,248.2494,308,239.2494,304,243.2494,300,239.2494,304,248.2494" style="stroke:#008000;stroke-width:1;stroke-linejoin:miter;stroke-miterlimit:10;"/><path d="M309,199.6094 L309,225.6094 L549,225.6094 L549,209.6094 L539,199.6094 L309,199.6094" fill="#FEFFDD" style="stroke:#181818;stroke-width:0.5;"/><path d="M539,199.6094 L539,209.6094 L549,209.6094 L539,199.6094" fill="#FEFFDD" style="stroke:#181818;stroke-width:0.5;"/><text fill="#000000" font-family="sans-serif" font-size="13" font-weight="700" lengthAdjust="spacing" textLength="77.9937" x="315" y="218.1045">Coordinador</text><text fill="#000000" font-family="sans-serif" font-size="13" lengthAdjust="spacing" textLength="138.0171" x="396.6055" y="218.1045">solicita crear entregable</text></g><!--link SolicitandoDatos to RegistrandoEntregable--><g class="link" data-entity-1="ent0003" data-entity-2="ent0004" data-link-type="dependency" data-source-line="17" id="lnk9"><path d="M304,298.7394 C304,352.2094 304,475.1294 304,528.5394" fill="none" id="SolicitandoDatos-to-RegistrandoEntregable" style="stroke:#008000;stroke-width:1;"/><polygon fill="#008000" points="304,533.5394,308,524.5394,304,528.5394,300,524.5394,304,533.5394" style="stroke:#008000;stroke-width:1;stroke-linejoin:miter;stroke-miterlimit:10;"/><path d="M309,321.6094 L309,510.6094 L728,510.6094 L728,331.6094 L718,321.6094 L309,321.6094" fill="#FEFFDD" style="stroke:#181818;stroke-width:0.5;"/><path d="M718,321.6094 L718,331.6094 L728,331.6094 L718,321.6094" fill="#FEFFDD" style="stroke:#181818;stroke-width:0.5;"/><text fill="#000000" font-family="sans-serif" font-size="13" font-weight="700" lengthAdjust="spacing" textLength="49.8608" x="315" y="340.1045">Sistema</text><text fill="#000000" font-family="sans-serif" font-size="13" lengthAdjust="spacing" textLength="345.4077" x="368.4727" y="340.1045">muestra y permite introducir los datos del nuevo entregable:</text><text fill="#000000" font-family="sans-serif" font-size="13" lengthAdjust="spacing" textLength="41.4058" x="315" y="356.4561">&#8226; T&#237;tulo</text><text fill="#000000" font-family="sans-serif" font-size="13" lengthAdjust="spacing" textLength="261.79" x="315" y="372.8076">&#8226; Tipo (informe / dataset / presentaci&#243;n / otro)</text><text fill="#000000" font-family="sans-serif" font-size="13" lengthAdjust="spacing" textLength="79.6948" x="315" y="389.1592">&#8226; Fecha l&#237;mite</text><text fill="#000000" font-family="sans-serif" font-size="13" lengthAdjust="spacing" textLength="248.8281" x="315" y="405.5107">&#8226; Estado (pendiente / en curso / entregado)</text><text fill="#000000" font-family="sans-serif" font-size="13" lengthAdjust="spacing" textLength="137.5029" x="315" y="421.8623">&#8226; Descripci&#243;n (opcional)</text><text fill="#000000" font-family="sans-serif" font-size="13" lengthAdjust="spacing" textLength="159.1992" x="315" y="438.2139">&#8226; Archivo adjunto (opcional)</text><text fill="#000000" font-family="sans-serif" font-size="13" lengthAdjust="spacing" textLength="3.6118" x="315" y="454.5654">&#160;</text><text fill="#000000" font-family="sans-serif" font-size="13" font-weight="700" lengthAdjust="spacing" textLength="49.8608" x="315" y="470.917">Sistema</text><text fill="#000000" font-family="sans-serif" font-size="13" lengthAdjust="spacing" textLength="94.6372" x="368.4727" y="470.917">permite solicitar:</text><text fill="#000000" font-family="sans-serif" font-size="13" lengthAdjust="spacing" textLength="106.4502" x="315" y="487.2686">&#8226; Crear entregable</text><text fill="#000000" font-family="sans-serif" font-size="13" lengthAdjust="spacing" textLength="189.541" x="315" y="503.6201">&#8226; Volver a entregables (cancelar)</text></g><!--link RegistrandoEntregable to ValidandoDatos--><g class="link" data-entity-1="ent0004" data-entity-2="ent0005" data-link-type="dependency" data-source-line="32" id="lnk10"><path d="M278.87,563.2994 C209.08,573.5494 18,601.6094 18,601.6094 C18,601.6094 18,653.6094 18,653.6094 C18,653.6094 204.1355,681.5962 273.9255,692.0862" fill="none" id="RegistrandoEntregable-to-ValidandoDatos" style="stroke:#008000;stroke-width:1;"/><polygon fill="#008000" points="278.87,692.8294,270.5645,687.5361,273.9255,692.0862,269.3754,695.4472,278.87,692.8294" style="stroke:#008000;stroke-width:1;stroke-linejoin:miter;stroke-miterlimit:10;"/><path d="M23,614.6094 L23,640.6094 L277,640.6094 L277,624.6094 L267,614.6094 L23,614.6094" fill="#FEFFDD" style="stroke:#181818;stroke-width:0.5;"/><path d="M267,614.6094 L267,624.6094 L277,624.6094 L267,614.6094" fill="#FEFFDD" style="stroke:#181818;stroke-width:0.5;"/><text fill="#000000" font-family="sans-serif" font-size="13" font-weight="700" lengthAdjust="spacing" textLength="77.9937" x="29" y="633.1045">Coordinador</text><text fill="#000000" font-family="sans-serif" font-size="13" lengthAdjust="spacing" textLength="151.7471" x="110.6055" y="633.1045">solicita crear el entregable</text></g><!--link ValidandoDatos to *end*crearEntregable--><g class="link" data-entity-1="ent0005" data-entity-2="ent0011" data-link-type="dependency" data-source-line="37" id="lnk12"><path d="M329.08,716.2594 C368.12,743.7294 439,793.6094 439,793.6094 C439,793.6094 500.2249,810.2586 526.5449,817.4086" fill="none" id="ValidandoDatos-to-*end*crearEntregable" style="stroke:#008000;stroke-width:1;"/><polygon fill="#008000" points="531.37,818.7194,523.7334,812.4999,526.5449,817.4086,521.6361,820.2201,531.37,818.7194" style="stroke:#008000;stroke-width:1;stroke-linejoin:miter;stroke-miterlimit:10;"/><path d="M444,746.6094 L444,788.6094 L761,788.6094 L761,756.6094 L751,746.6094 L444,746.6094" fill="#FEFFDD" style="stroke:#181818;stroke-width:0.5;"/><path d="M751,746.6094 L751,756.6094 L761,756.6094 L751,746.6094" fill="#FEFFDD" style="stroke:#181818;stroke-width:0.5;"/><text fill="#000000" font-family="sans-serif" font-size="13" font-weight="700" lengthAdjust="spacing" textLength="49.8608" x="450" y="765.1045">Sistema</text><text fill="#000000" font-family="sans-serif" font-size="13" lengthAdjust="spacing" textLength="243.5151" x="503.4727" y="765.1045">permite solicitar la creaci&#243;n del entregable</text><text fill="#000000" font-family="sans-serif" font-size="13" font-weight="700" lengthAdjust="spacing" textLength="49.8608" x="450" y="781.4561">Sistema</text><text fill="#000000" font-family="sans-serif" font-size="13" lengthAdjust="spacing" textLength="236.3105" x="503.4727" y="781.4561">presenta y visualiza el entregable creado</text></g><!--link ValidandoDatos to RegistrandoEntregable--><g class="link" data-entity-1="ent0005" data-entity-2="ent0004" data-link-type="dependency" data-source-line="43" id="lnk13"><path d="M304,672.2094 C304,647.2394 304,613.6794 304,588.7894" fill="none" id="ValidandoDatos-to-RegistrandoEntregable" style="stroke:#FF0000;stroke-width:1;"/><polygon fill="#FF0000" points="304,583.7894,300,592.7894,304,588.7894,308,592.7894,304,583.7894" style="stroke:#FF0000;stroke-width:1;stroke-linejoin:miter;stroke-miterlimit:10;"/><path d="M309,606.6094 L309,648.6094 L760,648.6094 L760,616.6094 L750,606.6094 L309,606.6094" fill="#FEFFDD" style="stroke:#181818;stroke-width:0.5;"/><path d="M750,606.6094 L750,616.6094 L760,616.6094 L750,606.6094" fill="#FEFFDD" style="stroke:#181818;stroke-width:0.5;"/><text fill="#000000" font-family="sans-serif" font-size="13" font-weight="700" lengthAdjust="spacing" textLength="49.8608" x="315" y="625.1045">Sistema</text><text fill="#000000" font-family="sans-serif" font-size="13" lengthAdjust="spacing" textLength="377.1841" x="368.4727" y="625.1045">muestra errores de introducci&#243;n (p.ej. t&#237;tulo vac&#237;o / fecha inv&#225;lida)</text><text fill="#000000" font-family="sans-serif" font-size="13" font-weight="700" lengthAdjust="spacing" textLength="49.8608" x="315" y="641.4561">Sistema</text><text fill="#000000" font-family="sans-serif" font-size="13" lengthAdjust="spacing" textLength="320.0742" x="368.4727" y="641.4561">permite introducir correcciones y mantiene el formulario</text></g><!--link RegistrandoEntregable to *end*crearEntregable--><g class="link" data-entity-1="ent0004" data-entity-2="ent0011" data-link-type="dependency" data-source-line="49" id="lnk14"><path d="M329.17,561.8994 C425.58,570.6594 766,601.6094 766,601.6094 C766,601.6094 766,793.6094 766,793.6094 C766,793.6094 602.5114,814.0496 557.7614,819.6396" fill="none" id="RegistrandoEntregable-to-*end*crearEntregable" style="stroke:#FF0000;stroke-width:1;"/><polygon fill="#FF0000" points="552.8,820.2594,562.2264,823.113,557.7614,819.6396,561.2348,815.1746,552.8,820.2594" style="stroke:#FF0000;stroke-width:1;stroke-linejoin:miter;stroke-miterlimit:10;"/><path d="M771,676.6094 L771,718.6094 L1112,718.6094 L1112,686.6094 L1102,676.6094 L771,676.6094" fill="#FEFFDD" style="stroke:#181818;stroke-width:0.5;"/><path d="M1102,676.6094 L1102,686.6094 L1112,686.6094 L1102,676.6094" fill="#FEFFDD" style="stroke:#181818;stroke-width:0.5;"/><text fill="#000000" font-family="sans-serif" font-size="13" font-weight="700" lengthAdjust="spacing" textLength="77.9937" x="777" y="695.1045">Coordinador</text><text fill="#000000" font-family="sans-serif" font-size="13" lengthAdjust="spacing" textLength="158.9644" x="858.6055" y="695.1045">solicita cancelar la creaci&#243;n</text><text fill="#000000" font-family="sans-serif" font-size="13" font-weight="700" lengthAdjust="spacing" textLength="49.8608" x="777" y="711.4561">Sistema</text><text fill="#000000" font-family="sans-serif" font-size="13" lengthAdjust="spacing" textLength="267.3823" x="830.4727" y="711.4561">presenta el listado de entregables sin cambios</text></g></g><g class="entity" data-qualified-name="ENTREGABLE_ABIERTO" data-source-line="56" id="ent0015"><rect fill="#F1F1F1" height="50" rx="12.5" ry="12.5" style="stroke:#181818;stroke-width:0.5;" width="183.3789" x="221" y="943"/><line style="stroke:#181818;stroke-width:0.5;" x1="221" x2="404.3789" y1="970.6094" y2="970.6094"/><text fill="#000000" font-family="sans-serif" font-size="14" lengthAdjust="spacing" textLength="163.3789" x="231" y="962.5332">ENTREGABLE_ABIERTO</text></g><g class="entity" data-qualified-name="ENTREGABLES_ABIERTOS" data-source-line="61" id="ent0017"><rect fill="#F1F1F1" height="50" rx="12.5" ry="12.5" style="stroke:#181818;stroke-width:0.5;" width="202.0547" x="655.5" y="943"/><line style="stroke:#181818;stroke-width:0.5;" x1="655.5" x2="857.5547" y1="970.6094" y2="970.6094"/><text fill="#000000" font-family="sans-serif" font-size="14" lengthAdjust="spacing" textLength="182.0547" x="665.5" y="962.5332">ENTREGABLES_ABIERTOS</text></g><!--link in1 to crearEntregable--><g class="link" data-entity-1="ent0001" data-entity-2="ent0002" data-link-type="dependency" data-source-line="4" id="lnk6"><path d="M571.5,57.11 C571.5,72.03 571.5,88.06 571.5,112.85" fill="none" id="in1-to-crearEntregable" style="stroke:#008000;stroke-width:1;"/><polygon fill="#008000" points="571.5,117.85,575.5,108.85,571.5,112.85,567.5,108.85,571.5,117.85" style="stroke:#008000;stroke-width:1;stroke-linejoin:miter;stroke-miterlimit:10;"/></g><!--link crearEntregable to ENTREGABLE_ABIERTO--><g class="link" data-entity-1="ent0002" data-entity-2="ent0015" data-link-type="dependency" data-source-line="56" id="lnk16"><path d="M251.79,847.1 C235.38,865.77 225.5,877 225.5,877 C225.5,877 225.5,913 225.5,913 C225.5,913 246.1714,925.8339 269.3314,940.2039" fill="none" id="crearEntregable-to-ENTREGABLE_ABIERTO" style="stroke:#008000;stroke-width:1;"/><polygon fill="#008000" points="273.58,942.84,268.0414,934.6961,269.3314,940.2039,263.8236,941.4939,273.58,942.84" style="stroke:#008000;stroke-width:1;stroke-linejoin:miter;stroke-miterlimit:10;"/><path d="M230.5,882 L230.5,908 L348.5,908 L348.5,892 L338.5,882 L230.5,882" fill="#FEFFDD" style="stroke:#181818;stroke-width:0.5;"/><path d="M338.5,882 L338.5,892 L348.5,892 L338.5,882" fill="#FEFFDD" style="stroke:#181818;stroke-width:0.5;"/><text fill="#000000" font-family="sans-serif" font-size="13" lengthAdjust="spacing" textLength="97.5444" x="236.5" y="900.4951">abrirEntregable()</text></g><!--link crearEntregable to ENTREGABLE_ABIERTO--><g class="link" data-entity-1="ent0002" data-entity-2="ent0015" data-link-type="dependency" data-source-line="66" id="lnk19"><path d="M390.23,847.3 C370.56,886.78 357.5,913 357.5,913 C357.5,913 347.8117,924.6296 335.8317,938.9996" fill="none" id="crearEntregable-to-ENTREGABLE_ABIERTO-1" style="stroke:#008000;stroke-width:1;"/><polygon fill="#008000" points="332.63,942.84,341.4654,938.4886,335.8317,938.9996,335.3207,933.3658,332.63,942.84" style="stroke:#008000;stroke-width:1;stroke-linejoin:miter;stroke-miterlimit:10;"/><path d="M377.5,882 L377.5,908 L502.5,908 L502.5,892 L492.5,882 L377.5,882" fill="#FEFFDD" style="stroke:#181818;stroke-width:0.5;"/><path d="M492.5,882 L492.5,892 L502.5,892 L492.5,882" fill="#FEFFDD" style="stroke:#181818;stroke-width:0.5;"/><text fill="#000000" font-family="sans-serif" font-size="13" lengthAdjust="spacing" textLength="104.0571" x="383.5" y="900.4951">editarEntregable()</text></g><!--link crearEntregable to ENTREGABLES_ABIERTOS--><g class="link" data-entity-1="ent0002" data-entity-2="ent0017" data-link-type="dependency" data-source-line="61" id="lnk18"><path d="M568.73,847.1 C568.59,865.77 568.5,877 568.5,877 C568.5,877 568.5,913 568.5,913 C568.5,913 617.7343,927.1396 667.8643,941.5396" fill="none" id="crearEntregable-to-ENTREGABLES_ABIERTOS" style="stroke:#FF0000;stroke-width:1;"/><polygon fill="#FF0000" points="672.67,942.92,665.1242,936.5907,667.8643,941.5396,662.9155,944.2797,672.67,942.92" style="stroke:#FF0000;stroke-width:1;stroke-linejoin:miter;stroke-miterlimit:10;"/><path d="M573.5,882 L573.5,908 L708.5,908 L708.5,892 L698.5,882 L573.5,882" fill="#FEFFDD" style="stroke:#181818;stroke-width:0.5;"/><path d="M698.5,882 L698.5,892 L708.5,892 L698.5,882" fill="#FEFFDD" style="stroke:#181818;stroke-width:0.5;"/><text fill="#000000" font-family="sans-serif" font-size="13" lengthAdjust="spacing" textLength="114.9053" x="579.5" y="900.4951">Creaci&#243;n cancelada</text></g><!--link crearEntregable to ENTREGABLES_ABIERTOS--><g class="link" data-entity-1="ent0002" data-entity-2="ent0017" data-link-type="dependency" data-source-line="71" id="lnk20"><path d="M710.65,847.17 C725.98,887.25 737.2139,916.5899 745.4139,938.0299" fill="none" id="crearEntregable-to-ENTREGABLES_ABIERTOS-1" style="stroke:#008000;stroke-width:1;"/><polygon fill="#008000" points="747.2,942.7,747.721,932.8649,745.4139,938.0299,740.2489,935.7227,747.2,942.7" style="stroke:#008000;stroke-width:1;stroke-linejoin:miter;stroke-miterlimit:10;"/><path d="M739.5,882 L739.5,908 L877.5,908 L877.5,892 L867.5,882 L739.5,882" fill="#FEFFDD" style="stroke:#181818;stroke-width:0.5;"/><path d="M867.5,882 L867.5,892 L877.5,892 L867.5,882" fill="#FEFFDD" style="stroke:#181818;stroke-width:0.5;"/><text fill="#000000" font-family="sans-serif" font-size="13" lengthAdjust="spacing" textLength="117.0508" x="745.5" y="900.4951">eliminarEntregable()</text></g><!--link crearEntregable to ENTREGABLES_ABIERTOS--><g class="link" data-entity-1="ent0002" data-entity-2="ent0017" data-link-type="dependency" data-source-line="76" id="lnk21"><path d="M866.26,847.1 C881.39,865.77 890.5,877 890.5,877 C890.5,877 890.5,913 890.5,913 C890.5,913 856.7578,926.6016 821.0878,940.9716" fill="none" id="crearEntregable-to-ENTREGABLES_ABIERTOS-2" style="stroke:#008000;stroke-width:1;"/><polygon fill="#008000" points="816.45,942.84,826.2927,943.1872,821.0878,940.9716,823.3033,935.7667,816.45,942.84" style="stroke:#008000;stroke-width:1;stroke-linejoin:miter;stroke-miterlimit:10;"/><path d="M895.5,882 L895.5,908 L1020.5,908 L1020.5,892 L1010.5,882 L895.5,882" fill="#FEFFDD" style="stroke:#181818;stroke-width:0.5;"/><path d="M1010.5,882 L1010.5,892 L1020.5,892 L1010.5,882" fill="#FEFFDD" style="stroke:#181818;stroke-width:0.5;"/><text fill="#000000" font-family="sans-serif" font-size="13" lengthAdjust="spacing" textLength="104.0444" x="901.5" y="900.4951">abrirEntregables()</text></g><?plantuml-src jLNDQXin4BxlKmpknIuaeTSI0edZba9fmJQvX536qYHHefKMIMjmIw6lqjvpwYFuJVea7UsklJ_U6BUqzaK_esy-VVFDoZygaw735BGo55OPGMRrAawIn0SC1Cgy0lGmc7oOJoTlpo_UJsQVpY_UJQRpZxD14dUFhb_SEI9pStG6mX6wYGcExd2Xjo2TvGAmipOS3U1BaW3_oZC3_dFSp6ebL40ZxIK6wtSZfdIdV70nef5v9-mAjP8rJ15m_VAcHRytcR4COasKwB5OE5sSZQrrKXcKrfsUBCx0LmVBcmArUP2H1KgPj9kanU3vo_JHc74ifLXGI7EA1s456RbK5QKBpifSA0UQqyWYcIGD9gUbRP1yNU3z-lO3vkkda6jRprLcOQZChNKfmKd4G4-1HvaZpmWerFgduRdbNAFjkJSaxX7q-YaIsQvEk22IyJ8MHF7XY4W6HEwyBOO58Td0kIGldChA94FB0sjGr_ldJjmhlWlAXzm4smpfqsYZpAPShhxvkAzmSUFAwYKvmCQUXw508qYZ6_KKkBU6hIftlFYtBjFxZTREqYB0nZ_8L3k2WIwpbnMHknIw09LDs9PBvNDcz1dRn0iuQG_YxqZ-coOXvompumjikwJoM7PC3ySGoZw09OhrK_JcRM5ePPRhxv7KQ9zOZRuJrZaIqPASR0Kfci36fwX0RAcS7QJidrYeKc1V_PvtJUNPLWtt5erfQbKsBIlLR02lk6ynNQZAlblwNvEa-xLl6gz-HZQlIDAw0owSQhqAIIrC3subHz_ZrCOTRprRgI1nF_B1Z4d6lZYSSW_mSwH9gvGB-N_0Eqhx9lHl?></g></svg>