<svg xmlns="http://www.w3.org/2000/svg" xmlns:xlink="http://www.w3.org/1999/xlink" contentStyleType="text/css" height="824px" preserveAspectRatio="none" style="width:1930px;height:824px;background:#FFFFFF;" version="1.1" viewBox="0 0 1930 824" width="1930px" zoomAndPan="magnify"><title>Diagrama de secuencia - abrirPublicacion</title><defs/><g><text fill="#000000" font-family="sans-serif" font-size="14" font-weight="bold" lengthAdjust="spacing" textLength="277.7715" x="828.0754" y="29.5332">Diagrama de secuencia - abrirPublicacion</text><line style="stroke:#181818;stroke-width:0.5;stroke-dasharray:5.0,5.0;" x1="46" x2="46" y1="121.2188" y2="742.6016"/><line style="stroke:#181818;stroke-width:0.5;stroke-dasharray:5.0,5.0;" x1="277.0015" x2="277.0015" y1="121.2188" y2="742.6016"/><line style="stroke:#181818;stroke-width:0.5;stroke-dasharray:5.0,5.0;" x1="509.4971" x2="509.4971" y1="121.2188" y2="742.6016"/><line style="stroke:#181818;stroke-width:0.5;stroke-dasharray:5.0,5.0;" x1="742.4775" x2="742.4775" y1="121.2188" y2="742.6016"/><line style="stroke:#181818;stroke-width:0.5;stroke-dasharray:5.0,5.0;" x1="870.9668" x2="870.9668" y1="121.2188" y2="742.6016"/><line style="stroke:#181818;stroke-width:0.5;stroke-dasharray:5.0,5.0;" x1="1012.249" x2="1012.249" y1="121.2188" y2="742.6016"/><line style="stroke:#181818;stroke-width:0.5;stroke-dasharray:5.0,5.0;" x1="1163.9795" x2="1163.9795" y1="121.2188" y2="742.6016"/><line style="stroke:#181818;stroke-width:0.5;stroke-dasharray:5.0,5.0;" x1="1359.4961" x2="1359.4961" y1="121.2188" y2="742.6016"/><line style="stroke:#181818;stroke-width:0.5;stroke-dasharray:5.0,5.0;" x1="1578.9434" x2="1578.9434" y1="121.2188" y2="742.6016"/><line style="stroke:#181818;stroke-width:0.5;stroke-dasharray:5.0,5.0;" x1="1880.0884" x2="1880.0884" y1="121.2188" y2="742.6016"/><text fill="#000000" font-family="sans-serif" font-size="14" lengthAdjust="spacing" textLength="77.0479" x="5" y="118.1426">Coordinador</text><ellipse cx="46.5239" cy="52.1094" fill="#E2E2F0" rx="8" ry="8" style="stroke:#181818;stroke-width:0.5;"/><path d="M46.5239,60.1094 L46.5239,87.1094 M33.5239,68.1094 L59.5239,68.1094 M46.5239,87.1094 L33.5239,102.1094 M46.5239,87.1094 L59.5239,102.1094 " fill="none" style="stroke:#181818;stroke-width:0.5;"/><text fill="#000000" font-family="sans-serif" font-size="14" lengthAdjust="spacing" textLength="77.0479" x="5" y="756.1348">Coordinador</text><ellipse cx="46.5239" cy="767.7109" fill="#E2E2F0" rx="8" ry="8" style="stroke:#181818;stroke-width:0.5;"/><path d="M46.5239,775.7109 L46.5239,802.7109 M33.5239,783.7109 L59.5239,783.7109 M46.5239,802.7109 L33.5239,817.7109 M46.5239,802.7109 L59.5239,817.7109 " fill="none" style="stroke:#181818;stroke-width:0.5;"/><rect fill="#E2E2F0" height="49.2188" rx="2.5" ry="2.5" style="stroke:#181818;stroke-width:0.5;" width="146.3027" x="204.0015" y="71"/><text fill="#000000" font-family="sans-serif" font-size="14" lengthAdjust="spacing" textLength="132.3027" x="211.0015" y="92.5332">abrirPublicacionPage</text><text fill="#000000" font-family="sans-serif" font-size="14" lengthAdjust="spacing" textLength="45.8965" x="254.2046" y="110.1426">(React)</text><rect fill="#E2E2F0" height="49.2188" rx="2.5" ry="2.5" style="stroke:#181818;stroke-width:0.5;" width="146.3027" x="204.0015" y="741.6016"/><text fill="#000000" font-family="sans-serif" font-size="14" lengthAdjust="spacing" textLength="132.3027" x="211.0015" y="763.1348">abrirPublicacionPage</text><text fill="#000000" font-family="sans-serif" font-size="14" lengthAdjust="spacing" textLength="45.8965" x="254.2046" y="780.7441">(React)</text><rect fill="#E2E2F0" height="49.2188" rx="2.5" ry="2.5" style="stroke:#181818;stroke-width:0.5;" width="146.2891" x="436.4971" y="71"/><text fill="#000000" font-family="sans-serif" font-size="14" lengthAdjust="spacing" textLength="132.2891" x="443.4971" y="92.5332">PublicacionController</text><text fill="#000000" font-family="sans-serif" font-size="14" lengthAdjust="spacing" textLength="82.4824" x="468.4004" y="110.1426">(Spring Boot)</text><rect fill="#E2E2F0" height="49.2188" rx="2.5" ry="2.5" style="stroke:#181818;stroke-width:0.5;" width="146.2891" x="436.4971" y="741.6016"/><text fill="#000000" font-family="sans-serif" font-size="14" lengthAdjust="spacing" textLength="132.2891" x="443.4971" y="763.1348">PublicacionController</text><text fill="#000000" font-family="sans-serif" font-size="14" lengthAdjust="spacing" textLength="82.4824" x="468.4004" y="780.7441">(Spring Boot)</text><rect fill="#E2E2F0" height="31.6094" rx="2.5" ry="2.5" style="stroke:#181818;stroke-width:0.5;" width="103.4893" x="691.4775" y="88.6094"/><text fill="#000000" font-family="sans-serif" font-size="14" lengthAdjust="spacing" textLength="89.4893" x="698.4775" y="110.1426">SesionService</text><rect fill="#E2E2F0" height="31.6094" rx="2.5" ry="2.5" style="stroke:#181818;stroke-width:0.5;" width="103.4893" x="691.4775" y="741.6016"/><text fill="#000000" font-family="sans-serif" font-size="14" lengthAdjust="spacing" textLength="89.4893" x="698.4775" y="763.1348">SesionService</text><rect fill="#E2E2F0" height="31.6094" rx="2.5" ry="2.5" style="stroke:#181818;stroke-width:0.5;" width="132.2822" x="804.9668" y="88.6094"/><text fill="#000000" font-family="sans-serif" font-size="14" lengthAdjust="spacing" textLength="118.2822" x="811.9668" y="110.1426">PublicacionService</text><rect fill="#E2E2F0" height="31.6094" rx="2.5" ry="2.5" style="stroke:#181818;stroke-width:0.5;" width="132.2822" x="804.9668" y="741.6016"/><text fill="#000000" font-family="sans-serif" font-size="14" lengthAdjust="spacing" textLength="118.2822" x="811.9668" y="763.1348">PublicacionService</text><rect fill="#E2E2F0" height="31.6094" rx="2.5" ry="2.5" style="stroke:#181818;stroke-width:0.5;" width="130.7305" x="947.249" y="88.6094"/><text fill="#000000" font-family="sans-serif" font-size="14" lengthAdjust="spacing" textLength="116.7305" x="954.249" y="110.1426">PoliticaPublicacion</text><rect fill="#E2E2F0" height="31.6094" rx="2.5" ry="2.5" style="stroke:#181818;stroke-width:0.5;" width="130.7305" x="947.249" y="741.6016"/><text fill="#000000" font-family="sans-serif" font-size="14" lengthAdjust="spacing" textLength="116.7305" x="954.249" y="763.1348">PoliticaPublicacion</text><rect fill="#E2E2F0" height="31.6094" rx="2.5" ry="2.5" style="stroke:#181818;stroke-width:0.5;" width="152.5166" x="1087.9795" y="88.6094"/><text fill="#000000" font-family="sans-serif" font-size="14" lengthAdjust="spacing" textLength="138.5166" x="1094.9795" y="110.1426">PublicacionRepository</text><rect fill="#E2E2F0" height="31.6094" rx="2.5" ry="2.5" style="stroke:#181818;stroke-width:0.5;" width="152.5166" x="1087.9795" y="741.6016"/><text fill="#000000" font-family="sans-serif" font-size="14" lengthAdjust="spacing" textLength="138.5166" x="1094.9795" y="763.1348">PublicacionRepository</text><rect fill="#E2E2F0" height="31.6094" rx="2.5" ry="2.5" style="stroke:#181818;stroke-width:0.5;" width="219.4473" x="1250.4961" y="88.6094"/><text fill="#000000" font-family="sans-serif" font-size="14" lengthAdjust="spacing" textLength="205.4473" x="1257.4961" y="110.1426">RespuestaPublicacionRepository</text><rect fill="#E2E2F0" height="31.6094" rx="2.5" ry="2.5" style="stroke:#181818;stroke-width:0.5;" width="219.4473" x="1250.4961" y="741.6016"/><text fill="#000000" font-family="sans-serif" font-size="14" lengthAdjust="spacing" textLength="205.4473" x="1257.4961" y="763.1348">RespuestaPublicacionRepository</text><rect fill="#E2E2F0" height="31.6094" rx="2.5" ry="2.5" style="stroke:#181818;stroke-width:0.5;" width="199.1992" x="1479.9434" y="88.6094"/><text fill="#000000" font-family="sans-serif" font-size="14" lengthAdjust="spacing" textLength="185.1992" x="1486.9434" y="110.1426">ArchivoPublicacionRepository</text><rect fill="#E2E2F0" height="31.6094" rx="2.5" ry="2.5" style="stroke:#181818;stroke-width:0.5;" width="199.1992" x="1479.9434" y="741.6016"/><text fill="#000000" font-family="sans-serif" font-size="14" lengthAdjust="spacing" textLength="185.1992" x="1486.9434" y="763.1348">ArchivoPublicacionRepository</text><text fill="#000000" font-family="sans-serif" font-size="14" lengthAdjust="spacing" textLength="91.834" x="1832.0884" y="118.1426">Base de Datos</text><path d="M1863.0054,67.6094 C1863.0054,57.6094 1881.0054,57.6094 1881.0054,57.6094 C1881.0054,57.6094 1899.0054,57.6094 1899.0054,67.6094 L1899.0054,93.6094 C1899.0054,103.6094 1881.0054,103.6094 1881.0054,103.6094 C1881.0054,103.6094 1863.0054,103.6094 1863.0054,93.6094 L1863.0054,67.6094 " fill="#E2E2F0" style="stroke:#181818;stroke-width:1.5;"/><path d="M1863.0054,67.6094 C1863.0054,77.6094 1881.0054,77.6094 1881.0054,77.6094 C1881.0054,77.6094 1899.0054,77.6094 1899.0054,67.6094 " fill="none" style="stroke:#181818;stroke-width:1.5;"/><text fill="#000000" font-family="sans-serif" font-size="14" lengthAdjust="spacing" textLength="91.834" x="1832.0884" y="756.1348">Base de Datos</text><path d="M1863.0054,769.2109 C1863.0054,759.2109 1881.0054,759.2109 1881.0054,759.2109 C1881.0054,759.2109 1899.0054,759.2109 1899.0054,769.2109 L1899.0054,795.2109 C1899.0054,805.2109 1881.0054,805.2109 1881.0054,805.2109 C1881.0054,805.2109 1863.0054,805.2109 1863.0054,795.2109 L1863.0054,769.2109 " fill="#E2E2F0" style="stroke:#181818;stroke-width:1.5;"/><path d="M1863.0054,769.2109 C1863.0054,779.2109 1881.0054,779.2109 1881.0054,779.2109 C1881.0054,779.2109 1899.0054,779.2109 1899.0054,769.2109 " fill="none" style="stroke:#181818;stroke-width:1.5;"/><polygon fill="#181818" points="265.1528,149.5703,275.1528,153.5703,265.1528,157.5703,269.1528,153.5703" style="stroke:#181818;stroke-width:1;"/><line style="stroke:#181818;stroke-width:1;" x1="46.5239" x2="271.1528" y1="153.5703" y2="153.5703"/><text fill="#000000" font-family="sans-serif" font-size="13" lengthAdjust="spacing" textLength="146.6689" x="53.5239" y="148.7139">Solicita abrirPublicacion()</text><polygon fill="#181818" points="497.6416,179.9219,507.6416,183.9219,497.6416,187.9219,501.6416,183.9219" style="stroke:#181818;stroke-width:1;"/><line style="stroke:#181818;stroke-width:1;" x1="277.1528" x2="503.6416" y1="183.9219" y2="183.9219"/><text fill="#000000" font-family="sans-serif" font-size="13" lengthAdjust="spacing" textLength="208.4888" x="284.1528" y="179.0654">GET /api/publicaciones/{id} + cookie</text><polygon fill="#181818" points="731.2222,210.2734,741.2222,214.2734,731.2222,218.2734,735.2222,214.2734" style="stroke:#181818;stroke-width:1;"/><line style="stroke:#181818;stroke-width:1;" x1="509.6416" x2="737.2222" y1="214.2734" y2="214.2734"/><text fill="#000000" font-family="sans-serif" font-size="13" lengthAdjust="spacing" textLength="209.5806" x="516.6416" y="209.417">obtenerSesionActual(authentication)</text><polygon fill="#181818" points="520.6416,240.625,510.6416,244.625,520.6416,248.625,516.6416,244.625" style="stroke:#181818;stroke-width:1;"/><line style="stroke:#181818;stroke-width:1;stroke-dasharray:2.0,2.0;" x1="514.6416" x2="742.2222" y1="244.625" y2="244.625"/><text fill="#000000" font-family="sans-serif" font-size="13" lengthAdjust="spacing" textLength="101.1753" x="526.6416" y="239.7686">Actor autenticado</text><polygon fill="#181818" points="859.1079,270.9766,869.1079,274.9766,859.1079,278.9766,863.1079,274.9766" style="stroke:#181818;stroke-width:1;"/><line style="stroke:#181818;stroke-width:1;" x1="509.6416" x2="865.1079" y1="274.9766" y2="274.9766"/><text fill="#000000" font-family="sans-serif" font-size="13" lengthAdjust="spacing" textLength="98.9917" x="516.6416" y="270.1201">obtener(id, actor)</text><polygon fill="#181818" points="1152.2378,301.3281,1162.2378,305.3281,1152.2378,309.3281,1156.2378,305.3281" style="stroke:#181818;stroke-width:1;"/><line style="stroke:#181818;stroke-width:1;" x1="871.1079" x2="1158.2378" y1="305.3281" y2="305.3281"/><text fill="#000000" font-family="sans-serif" font-size="13" lengthAdjust="spacing" textLength="138.0171" x="878.1079" y="300.4717">findByIdAndRetirada(id)</text><polygon fill="#181818" points="1869.0054,348.0313,1879.0054,352.0313,1869.0054,356.0313,1873.0054,352.0313" style="stroke:#181818;stroke-width:1;"/><line style="stroke:#181818;stroke-width:1;" x1="1164.2378" x2="1875.0054" y1="352.0313" y2="352.0313"/><text fill="#000000" font-family="sans-serif" font-size="13" lengthAdjust="spacing" textLength="183.5107" x="1171.2378" y="330.8232">SELECT * FROM publicaciones</text><text fill="#000000" font-family="sans-serif" font-size="13" lengthAdjust="spacing" textLength="205.188" x="1171.2378" y="347.1748">WHERE id = ? AND retirada = false</text><polygon fill="#181818" points="1175.2378,378.3828,1165.2378,382.3828,1175.2378,386.3828,1171.2378,382.3828" style="stroke:#181818;stroke-width:1;"/><line style="stroke:#181818;stroke-width:1;stroke-dasharray:2.0,2.0;" x1="1169.2378" x2="1880.0054" y1="382.3828" y2="382.3828"/><text fill="#000000" font-family="sans-serif" font-size="13" lengthAdjust="spacing" textLength="107.6689" x="1181.2378" y="377.5264">Publicacion / vacio</text><path d="M1017,395.3828 L1017,421.3828 L1279,421.3828 L1279,405.3828 L1269,395.3828 L1017,395.3828 " fill="#FEFFDD" style="stroke:#181818;stroke-width:0.5;"/><path d="M1269,395.3828 L1269,405.3828 L1279,405.3828 L1269,395.3828 " fill="#FEFFDD" style="stroke:#181818;stroke-width:0.5;"/><text fill="#000000" font-family="sans-serif" font-size="13" lengthAdjust="spacing" textLength="241.3506" x="1023" y="413.8779">Responsabilidad interna: permitirConsulta</text><polygon fill="#181818" points="1348.2197,445.0859,1358.2197,449.0859,1348.2197,453.0859,1352.2197,449.0859" style="stroke:#181818;stroke-width:1;"/><line style="stroke:#181818;stroke-width:1;" x1="871.1079" x2="1354.2197" y1="449.0859" y2="449.0859"/><text fill="#000000" font-family="sans-serif" font-size="13" lengthAdjust="spacing" textLength="216.7661" x="878.1079" y="444.2295">findByPublicacionIdOrderByFecha(id)</text><polygon fill="#181818" points="1869.0054,491.7891,1879.0054,495.7891,1869.0054,499.7891,1873.0054,495.7891" style="stroke:#181818;stroke-width:1;"/><line style="stroke:#181818;stroke-width:1;" x1="1360.2197" x2="1875.0054" y1="495.7891" y2="495.7891"/><text fill="#000000" font-family="sans-serif" font-size="13" lengthAdjust="spacing" textLength="240.6016" x="1367.2197" y="474.5811">SELECT * FROM respuestas_publicacion</text><text fill="#000000" font-family="sans-serif" font-size="13" lengthAdjust="spacing" textLength="263.3643" x="1367.2197" y="490.9326">WHERE publicacion_id = ? ORDER BY fecha</text><polygon fill="#181818" points="1371.2197,522.1406,1361.2197,526.1406,1371.2197,530.1406,1367.2197,526.1406" style="stroke:#181818;stroke-width:1;"/><line style="stroke:#181818;stroke-width:1;stroke-dasharray:2.0,2.0;" x1="1365.2197" x2="1880.0054" y1="526.1406" y2="526.1406"/><text fill="#000000" font-family="sans-serif" font-size="13" lengthAdjust="spacing" textLength="68.6499" x="1377.2197" y="521.2842">Respuestas</text><polygon fill="#181818" points="1567.543,552.4922,1577.543,556.4922,1567.543,560.4922,1571.543,556.4922" style="stroke:#181818;stroke-width:1;"/><line style="stroke:#181818;stroke-width:1;" x1="871.1079" x2="1573.543" y1="556.4922" y2="556.4922"/><text fill="#000000" font-family="sans-serif" font-size="13" lengthAdjust="spacing" textLength="286.8633" x="878.1079" y="551.6357">findByPublicacionIdOrderByFechaSubidaDesc(id)</text><polygon fill="#181818" points="1869.0054,599.1953,1879.0054,603.1953,1869.0054,607.1953,1873.0054,603.1953" style="stroke:#181818;stroke-width:1;"/><line style="stroke:#181818;stroke-width:1;" x1="1579.543" x2="1875.0054" y1="603.1953" y2="603.1953"/><text fill="#000000" font-family="sans-serif" font-size="13" lengthAdjust="spacing" textLength="225.418" x="1586.543" y="581.9873">SELECT * FROM archivos_publicacion</text><text fill="#000000" font-family="sans-serif" font-size="13" lengthAdjust="spacing" textLength="277.4624" x="1586.543" y="598.3389">WHERE publicacion_id = ? AND retirado = false</text><polygon fill="#181818" points="1590.543,629.5469,1580.543,633.5469,1590.543,637.5469,1586.543,633.5469" style="stroke:#181818;stroke-width:1;"/><line style="stroke:#181818;stroke-width:1;stroke-dasharray:2.0,2.0;" x1="1584.543" x2="1880.0054" y1="633.5469" y2="633.5469"/><text fill="#000000" font-family="sans-serif" font-size="13" lengthAdjust="spacing" textLength="50.5908" x="1596.543" y="628.6904">Adjuntos</text><polygon fill="#181818" points="520.6416,659.8984,510.6416,663.8984,520.6416,667.8984,516.6416,663.8984" style="stroke:#181818;stroke-width:1;"/><line style="stroke:#181818;stroke-width:1;stroke-dasharray:2.0,2.0;" x1="514.6416" x2="870.1079" y1="663.8984" y2="663.8984"/><text fill="#000000" font-family="sans-serif" font-size="13" lengthAdjust="spacing" textLength="153.2134" x="526.6416" y="659.042">Resultado del caso de uso</text><polygon fill="#181818" points="288.1528,690.25,278.1528,694.25,288.1528,698.25,284.1528,694.25" style="stroke:#181818;stroke-width:1;"/><line style="stroke:#181818;stroke-width:1;stroke-dasharray:2.0,2.0;" x1="282.1528" x2="508.6416" y1="694.25" y2="694.25"/><text fill="#000000" font-family="sans-serif" font-size="13" lengthAdjust="spacing" textLength="181.3779" x="294.1528" y="689.3936">200 OK (PublicacionResponse)</text><polygon fill="#181818" points="57.5239,720.6016,47.5239,724.6016,57.5239,728.6016,53.5239,724.6016" style="stroke:#181818;stroke-width:1;"/><line style="stroke:#181818;stroke-width:1;stroke-dasharray:2.0,2.0;" x1="51.5239" x2="276.1528" y1="724.6016" y2="724.6016"/><text fill="#000000" font-family="sans-serif" font-size="13" lengthAdjust="spacing" textLength="206.6289" x="63.5239" y="719.7451">Presenta PUBLICACION_ABIERTA</text><!--SRC=[ZLDXRzCm4FsUNt7QfnQOEl6n4g2aIQ5Yh5CwX90cJLVxsXvaTcGxaoh4VyTscZNPLk1BvDZldU_TUtRiAeASSMlm7a4IM18DAS48vu1hm-QwMLSiKB1M2Ggd3SoqDf8LIcsI6erZmJKg1sTFyTUufLirAidpncU05kP6AqTA3dazoioV6rrLP3nnLHjMMyYqFj3JceVC5LbFMf5vO44HqkwSh3-4nlKJhAxO_s6F4y5XN-nFrYsfrfRzTFOH7Nw7s99itP1r-3UIhPyJKoDs_A1Fqmw0o9JeS8sMu2mBN-zdZaxRYCkp9EbP1-Vl7-sOmYh8OuVFF1-DamuL6Dw1ANmiRc22DK_g8uxiv1VBt_0QXDO_cHAF38JMZodejIz1flrDXMkm6c7ZTgJ2j9tV72Vj8PntzwGnRXxLWgG-5etEFLOTiNm3CPoXI3mBi32IAMnOoMo_aAcI9JasAD7Znqau3QWyy_ABos9s0wzWNYw_m43MhVhsgIWBO0dlu0EaLpcOGnc_iS7AKf9diUdsljxmO08FOP4exGWCRtSEzEQGfMaqN2kBQwvOeWJsOpOAfr2JkVSfDFursAPoE1JLfgGJrhjk8PT6aidsSnAxJcIBVbcewK9fxtgQEyMzhRk3-cMP5oLats4JRZZgxbfwJBdjjznBw3-xNZLhFukSh8ZzzwWlIy0MyBy2UlRff_ODsapbZqRvftFKqQNIQmoUUBwa2WJQi8367j8vU5PlBovW-Hb6WzSRJQV-k_AStilq4VB6-CmZN7_DBXUpTBPONjsbsQ8eRz8_]--></g></svg>