<svg xmlns="http://www.w3.org/2000/svg" xmlns:xlink="http://www.w3.org/1999/xlink" contentStyleType="text/css" data-diagram-type="DESCRIPTION" height="463px" preserveAspectRatio="none" style="width:2113px;height:463px;background:#FFFFFF;" version="1.1" viewBox="0 0 2113 463" width="2113px" zoomAndPan="magnify"><?plantuml 1.2026.5?><defs/><g><!--cluster eliminarRecompensa--><g class="cluster" data-qualified-name="eliminarRecompensa" data-source-line="4" id="ent0002"><path d="M217,6 L368.1582,6 A3.75,3.75 0 0 1 370.6582,8.5 L377.6582,29.6094 L1114,29.6094 A2.5,2.5 0 0 1 1116.5,32.1094 L1116.5,445.5 A2.5,2.5 0 0 1 1114,448 L217,448 A2.5,2.5 0 0 1 214.5,445.5 L214.5,8.5 A2.5,2.5 0 0 1 217,6" fill="none" style="stroke:#000000;stroke-width:1.5;"/><line style="stroke:#000000;stroke-width:1.5;" x1="214.5" x2="377.6582" y1="29.6094" y2="29.6094"/><text fill="#000000" font-family="sans-serif" font-size="14" font-weight="700" lengthAdjust="spacing" textLength="150.1582" x="218.5" y="22.5332">eliminarRecompensa()</text></g><!--entity EliminarRecompensaView--><g class="entity" data-qualified-name="eliminarRecompensa.EliminarRecompensaView" data-source-line="5" id="ent0003"><rect fill="#629EF9" height="37.6094" rx="2.5" ry="2.5" style="stroke:#181818;stroke-width:0.5;" width="183.3994" x="701" y="42"/><text fill="#000000" font-family="sans-serif" font-size="14" lengthAdjust="spacing" textLength="163.3994" x="711" y="66.5332">EliminarRecompensaView</text></g><!--entity RecompensaController--><g class="entity" data-qualified-name="eliminarRecompensa.RecompensaController" data-source-line="6" id="ent0004"><rect fill="#B5BD68" height="37.6094" rx="2.5" ry="2.5" style="stroke:#181818;stroke-width:0.5;" width="163.1787" x="605" y="168.5"/><text fill="#000000" font-family="sans-serif" font-size="14" lengthAdjust="spacing" textLength="143.1787" x="615" y="193.0332">RecompensaController</text></g><!--entity RecompensaRepository--><g class="entity" data-qualified-name="eliminarRecompensa.RecompensaRepository" data-source-line="7" id="ent0005"><rect fill="#F2AC4E" height="37.6094" rx="2.5" ry="2.5" style="stroke:#181818;stroke-width:0.5;" width="169.4063" x="492" y="295"/><text fill="#000000" font-family="sans-serif" font-size="14" lengthAdjust="spacing" textLength="149.4063" x="502" y="319.5332">RecompensaRepository</text></g><!--entity ProyectoRepository--><g class="entity" data-qualified-name="eliminarRecompensa.ProyectoRepository" data-source-line="8" id="ent0006"><rect fill="#F2AC4E" height="37.6094" rx="2.5" ry="2.5" style="stroke:#181818;stroke-width:0.5;" width="142.165" x="721.5" y="295"/><text fill="#000000" font-family="sans-serif" font-size="14" lengthAdjust="spacing" textLength="122.165" x="731.5" y="319.5332">ProyectoRepository</text></g><!--entity Recompensa--><g class="entity" data-qualified-name="eliminarRecompensa.Recompensa" data-source-line="9" id="ent0007"><rect fill="#F2AC4E" height="37.6094" rx="2.5" ry="2.5" style="stroke:#181818;stroke-width:0.5;" width="102.4893" x="525.5" y="394"/><text fill="#000000" font-family="sans-serif" font-size="14" lengthAdjust="spacing" textLength="82.4893" x="535.5" y="418.5332">Recompensa</text></g><!--entity Proyecto--><g class="entity" data-qualified-name="eliminarRecompensa.Proyecto" data-source-line="10" id="ent0008"><rect fill="#F2AC4E" height="37.6094" rx="2.5" ry="2.5" style="stroke:#181818;stroke-width:0.5;" width="75.248" x="755" y="394"/><text fill="#000000" font-family="sans-serif" font-size="14" lengthAdjust="spacing" textLength="55.248" x="765" y="418.5332">Proyecto</text></g><!--entity EstadoEntrada--><g class="entity" data-qualified-name="EstadoEntrada" data-source-line="3" id="ent0001"><rect fill="#CDEBA5" height="37.6094" rx="2.5" ry="2.5" style="stroke:#181818;stroke-width:0.5;" width="191.1514" x="7" y="42"/><text fill="#000000" font-family="sans-serif" font-size="14" lengthAdjust="spacing" textLength="171.1514" x="17" y="66.5332">:RECOMPENSA_ABIERTA</text></g><!--entity EstadoSalidaExitosa--><g class="entity" data-qualified-name="EstadoSalidaExitosa" data-source-line="13" id="ent0009"><rect fill="#CDEBA5" height="37.6094" rx="2.5" ry="2.5" style="stroke:#181818;stroke-width:0.5;" width="209.8271" x="1132.5" y="168.5"/><text fill="#000000" font-family="sans-serif" font-size="14" lengthAdjust="spacing" textLength="189.8271" x="1142.5" y="193.0332">:RECOMPENSAS_ABIERTAS</text></g><!--entity EstadoSalidaCancelada--><g class="entity" data-qualified-name="EstadoSalidaCancelada" data-source-line="14" id="ent0010"><rect fill="#CDEBA5" height="37.6094" rx="2.5" ry="2.5" style="stroke:#181818;stroke-width:0.5;" width="191.1514" x="1378" y="168.5"/><text fill="#000000" font-family="sans-serif" font-size="14" lengthAdjust="spacing" textLength="171.1514" x="1388" y="193.0332">:RECOMPENSA_ABIERTA</text></g><!--entity AbrirRecompensas--><g class="entity" data-qualified-name="AbrirRecompensas" data-source-line="15" id="ent0011"><rect fill="#CDEBA5" height="37.6094" rx="2.5" ry="2.5" style="stroke:#181818;stroke-width:0.5;" width="229.3232" x="1604" y="168.5"/><text fill="#000000" font-family="sans-serif" font-size="14" lengthAdjust="spacing" textLength="209.3232" x="1614" y="193.0332">:Collaboration AbrirRecompensas</text></g><g class="entity" data-qualified-name="GMN23" data-source-line="30" id="ent0024"><path d="M1868,158 L1868,217.0547 L2098.5552,217.0547 L2098.5552,168 L2088.5552,158 L1868,158" fill="#FEFFDD" style="stroke:#181818;stroke-width:0.5;"/><path d="M2088.5552,158 L2088.5552,168 L2098.5552,168 L2088.5552,158" fill="#FEFFDD" style="stroke:#181818;stroke-width:1;"/><text fill="#000000" font-family="sans-serif" font-size="13" lengthAdjust="spacing" textLength="209.5552" x="1874" y="176.4951">La eliminacion borra la recompensa,</text><text fill="#000000" font-family="sans-serif" font-size="13" lengthAdjust="spacing" textLength="190.7725" x="1874" y="192.8467">pero no modifica el proyecto ni la</text><text fill="#000000" font-family="sans-serif" font-size="13" lengthAdjust="spacing" textLength="192.2324" x="1874" y="209.1982">carga de trabajo del investigador.</text></g><!--link EstadoEntrada to EliminarRecompensaView--><g class="link" data-entity-1="ent0001" data-entity-2="ent0003" data-link-type="dependency" data-source-line="17" id="lnk12"><path d="M198.08,61 C331,61 565.04,61 695.84,61" fill="none" id="EstadoEntrada-to-EliminarRecompensaView" style="stroke:#181818;stroke-width:1;"/><polygon fill="#181818" points="700.84,61,691.84,57,695.84,61,691.84,65,700.84,61" style="stroke:#181818;stroke-width:1;stroke-linejoin:miter;stroke-miterlimit:10;"/><text fill="#000000" font-family="sans-serif" font-size="13" lengthAdjust="spacing" textLength="130.7681" x="384.5" y="54.4951">eliminarRecompensa()</text></g><!--link EliminarRecompensaView to RecompensaController--><g class="link" data-entity-1="ent0003" data-entity-2="ent0004" data-link-type="dependency" data-source-line="19" id="lnk13"><path d="M700.79,70.31 C549.09,84.04 262.5,110 262.5,110 C262.5,110 262.5,128 262.5,128 C262.5,128 476.887,157.5763 600.047,174.5763" fill="none" id="EliminarRecompensaView-to-RecompensaController" style="stroke:#181818;stroke-width:1;"/><polygon fill="#181818" points="605,175.26,596.6315,170.067,600.047,174.5763,595.5376,177.9918,605,175.26" style="stroke:#181818;stroke-width:1;stroke-linejoin:miter;stroke-miterlimit:10;"/><text fill="#000000" font-family="sans-serif" font-size="13" lengthAdjust="spacing" textLength="139.4263" x="263.5" y="124.4951">solicitarConfirmacion(id)</text></g><!--link RecompensaController to EliminarRecompensaView--><g class="link" data-entity-1="ent0004" data-entity-2="ent0003" data-link-type="dependency" data-source-line="20" id="lnk14"><path d="M758.31,168.47 C826.77,151.28 919.5,128 919.5,128 C919.5,128 919.5,110 919.5,110 C919.5,110 880.8672,95.3976 844.8272,81.7776" fill="none" id="RecompensaController-to-EliminarRecompensaView" style="stroke:#181818;stroke-width:1;"/><polygon fill="#181818" points="840.15,80.01,847.1548,86.9333,844.8272,81.7776,849.9829,79.4499,840.15,80.01" style="stroke:#181818;stroke-width:1;stroke-linejoin:miter;stroke-miterlimit:10;"/><text fill="#000000" font-family="sans-serif" font-size="13" lengthAdjust="spacing" textLength="140.1626" x="920.5" y="124.4951">presentarConfirmacion()</text></g><!--link EliminarRecompensaView to RecompensaController--><g class="link" data-entity-1="ent0003" data-entity-2="ent0004" data-link-type="dependency" data-source-line="21" id="lnk15"><path d="M700.8,74.61 C597.4,88.83 443.5,110 443.5,110 C443.5,110 443.5,128 443.5,128 C443.5,128 535.3489,150.1097 606.7489,167.2997" fill="none" id="EliminarRecompensaView-to-RecompensaController-1" style="stroke:#181818;stroke-width:1;"/><polygon fill="#181818" points="611.61,168.47,603.7963,162.4745,606.7489,167.2997,601.9237,170.2523,611.61,168.47" style="stroke:#181818;stroke-width:1;stroke-linejoin:miter;stroke-miterlimit:10;"/><text fill="#000000" font-family="sans-serif" font-size="13" lengthAdjust="spacing" textLength="139.4263" x="444.5" y="124.4951">confirmarEliminacion(id)</text></g><!--link EliminarRecompensaView to RecompensaController--><g class="link" data-entity-1="ent0003" data-entity-2="ent0004" data-link-type="dependency" data-source-line="22" id="lnk16"><path d="M729.47,80.01 C681.79,93.63 624.5,110 624.5,110 C624.5,110 624.5,128 624.5,128 C624.5,128 645.3831,147.7089 663.5831,164.8789" fill="none" id="EliminarRecompensaView-to-RecompensaController-2" style="stroke:#181818;stroke-width:1;"/><polygon fill="#181818" points="667.22,168.31,663.4184,159.2244,663.5831,164.8789,657.9286,165.0435,667.22,168.31" style="stroke:#181818;stroke-width:1;stroke-linejoin:miter;stroke-miterlimit:10;"/><text fill="#000000" font-family="sans-serif" font-size="13" lengthAdjust="spacing" textLength="123.5444" x="625.5" y="124.4951">validarEliminacion(id)</text></g><!--link EliminarRecompensaView to RecompensaController--><g class="link" data-entity-1="ent0003" data-entity-2="ent0004" data-link-type="dependency" data-source-line="26" id="lnk20"><path d="M781.84,80.03 C770.3,99.58 753.5,128 753.5,128 C753.5,128 730.7668,147.852 711.0968,165.022" fill="none" id="EliminarRecompensaView-to-RecompensaController-3" style="stroke:#181818;stroke-width:1;"/><polygon fill="#181818" points="707.33,168.31,716.7407,165.405,711.0968,165.022,711.4798,159.3781,707.33,168.31" style="stroke:#181818;stroke-width:1;stroke-linejoin:miter;stroke-miterlimit:10;"/><text fill="#000000" font-family="sans-serif" font-size="13" lengthAdjust="spacing" textLength="124.2681" x="764.5" y="124.4951">cancelarEliminacion()</text></g><!--link RecompensaController to RecompensaRepository--><g class="link" data-entity-1="ent0004" data-entity-2="ent0005" data-link-type="dependency" data-source-line="23" id="lnk17"><path d="M643.97,206.53 C603.42,223.72 548.5,247 548.5,247 C548.5,247 548.5,265 548.5,265 C548.5,265 555.4724,276.9401 563.3924,290.5301" fill="none" id="RecompensaController-to-RecompensaRepository" style="stroke:#181818;stroke-width:1;"/><polygon fill="#181818" points="565.91,294.85,564.8343,285.0601,563.3924,290.5301,557.9224,289.0882,565.91,294.85" style="stroke:#181818;stroke-width:1;stroke-linejoin:miter;stroke-miterlimit:10;"/><text fill="#000000" font-family="sans-serif" font-size="13" lengthAdjust="spacing" textLength="93.939" x="549.5" y="261.4951">obtenerPorId(id)</text></g><!--link RecompensaController to RecompensaRepository--><g class="link" data-entity-1="ent0004" data-entity-2="ent0005" data-link-type="dependency" data-source-line="25" id="lnk19"><path d="M677.26,206.63 C665.72,229.25 647.5,265 647.5,265 C647.5,265 627.5927,278.4604 607.4827,292.0504" fill="none" id="RecompensaController-to-RecompensaRepository-1" style="stroke:#181818;stroke-width:1;"/><polygon fill="#181818" points="603.34,294.85,613.0366,293.1249,607.4827,292.0504,608.5573,286.4965,603.34,294.85" style="stroke:#181818;stroke-width:1;stroke-linejoin:miter;stroke-miterlimit:10;"/><text fill="#000000" font-family="sans-serif" font-size="13" lengthAdjust="spacing" textLength="64.2891" x="656.5" y="261.4951">eliminar(id)</text></g><!--link RecompensaController to ProyectoRepository--><g class="link" data-entity-1="ent0004" data-entity-2="ent0006" data-link-type="dependency" data-source-line="24" id="lnk18"><path d="M707.33,206.69 C727,223.86 753.5,247 753.5,247 C753.5,247 767.7584,271.1142 779.2984,290.6642" fill="none" id="RecompensaController-to-ProyectoRepository" style="stroke:#181818;stroke-width:1;"/><polygon fill="#181818" points="781.84,294.97,780.7097,285.1862,779.2984,290.6642,773.8204,289.2528,781.84,294.97" style="stroke:#181818;stroke-width:1;stroke-linejoin:miter;stroke-miterlimit:10;"/><text fill="#000000" font-family="sans-serif" font-size="13" lengthAdjust="spacing" textLength="247.1016" x="764.5" y="261.4951">verificarProyectoCompletado(recompensa)</text></g><!--link RecompensaRepository to Recompensa--><g class="link" data-entity-1="ent0005" data-entity-2="ent0007" data-link-type="association" data-source-line="27" id="lnk21"><path d="M576.5,333.24 C576.5,350.59 576.5,376.52 576.5,393.84" fill="none" id="RecompensaRepository-Recompensa" style="stroke:#181818;stroke-width:1;"/></g><!--link ProyectoRepository to Proyecto--><g class="link" data-entity-1="ent0006" data-entity-2="ent0008" data-link-type="association" data-source-line="28" id="lnk22"><path d="M792.5,333.24 C792.5,350.59 792.5,376.52 792.5,393.84" fill="none" id="ProyectoRepository-Proyecto" style="stroke:#181818;stroke-width:1;"/></g><!--link RecompensaController to GMN23--><g class="link" data-entity-1="ent0004" data-entity-2="ent0024" data-link-type="association" data-source-line="30" id="lnk25"><path d="M768.14,174.98 C896.98,155.21 1133,119 1133,119 C1133,119 1833,119 1833,119 C1833,119 1877.69,139.34 1918.36,157.85" fill="none" id="RecompensaController-GMN23" style="stroke:#181818;stroke-width:1;stroke-dasharray:7,7;"/></g><!--link EliminarRecompensaView to EstadoSalidaExitosa--><g class="link" data-entity-1="ent0003" data-entity-2="ent0009" data-link-type="dependency" data-source-line="34" id="lnk26"><path d="M884.35,77.92 C964.98,91.89 1069.5,110 1069.5,110 C1069.5,110 1143.4595,143.6781 1193.1395,166.2981" fill="none" id="EliminarRecompensaView-to-EstadoSalidaExitosa" style="stroke:#181818;stroke-width:1;stroke-dasharray:7,7;"/><polygon fill="#181818" points="1197.69,168.37,1191.1566,161.0001,1193.1395,166.2981,1187.8415,168.281,1197.69,168.37" style="stroke:#181818;stroke-width:1;stroke-linejoin:miter;stroke-miterlimit:10;"/><text fill="#000000" font-family="sans-serif" font-size="13" lengthAdjust="spacing" textLength="137.2808" x="1106.5" y="124.4951">recompensaEliminada()</text></g><!--link EliminarRecompensaView to EstadoSalidaCancelada--><g class="link" data-entity-1="ent0003" data-entity-2="ent0010" data-link-type="dependency" data-source-line="35" id="lnk27"><path d="M884.21,71.57 C1018.4,85.57 1252.5,110 1252.5,110 C1252.5,110 1351.3451,144.2143 1416.6851,166.8343" fill="none" id="EliminarRecompensaView-to-EstadoSalidaCancelada" style="stroke:#181818;stroke-width:1;stroke-dasharray:7,7;"/><polygon fill="#181818" points="1421.41,168.47,1414.2138,161.7458,1416.6851,166.8343,1411.5967,169.3056,1421.41,168.47" style="stroke:#181818;stroke-width:1;stroke-linejoin:miter;stroke-miterlimit:10;"/><text fill="#000000" font-family="sans-serif" font-size="13" lengthAdjust="spacing" textLength="135.8462" x="1300.5" y="124.4951">eliminacionCancelada()</text></g><!--link EliminarRecompensaView to AbrirRecompensas--><g class="link" data-entity-1="ent0003" data-entity-2="ent0011" data-link-type="dependency" data-source-line="36" id="lnk28"><path d="M884.19,68.75 C1063.77,81.97 1444.5,110 1444.5,110 C1444.5,110 1568.0943,144.5052 1649.0943,167.1252" fill="none" id="EliminarRecompensaView-to-AbrirRecompensas" style="stroke:#181818;stroke-width:1;stroke-dasharray:7,7;"/><polygon fill="#181818" points="1653.91,168.47,1646.3175,162.1967,1649.0943,167.1252,1644.1658,169.9019,1653.91,168.47" style="stroke:#181818;stroke-width:1;stroke-linejoin:miter;stroke-miterlimit:10;"/><text fill="#000000" font-family="sans-serif" font-size="13" lengthAdjust="spacing" textLength="117.7617" x="1504.5" y="124.4951">abrirRecompensas()</text></g><?plantuml-src dLJBRjj03BplLn3EnGPg7u8cQ7G8eAWA4A0FmovwBIWjxMoptXMeHLgZwB-NybFHmuQhaqGDXxD3BiiNumfaN84rZiAw82YyNLSVIZ7b0TtI4bmb7zE7-0O6qInDldwUfb_cyO_uuIcTVOi7W2MaPK3jKnSODQe2ynTS4f0rA-EGPvJxLK6kn0exQ8U7em7yKI1FhURjzLtwU0Tf2_tTqAycEBl9zEq7E88IBsAyjSHDwEDrdBnFQz0P5RuqmVEw1pfblvQWFmiySfvXKd_FsJlV-pkl6Jn7QpIclqM3bBYuFzlq15rEjkfJ5q4Ydc7c6OFn3kACJStvSaFM32hrflqmvl5zJziYw6g-47IYOQo5gQkd4PJUcjm4P0ak3Aym5xr3eqUg2m_Z4v8Aff9SashKAwfNKxxBvrtcGTB5JA-RJhLuUe_MDSmH-2oG8vvwVjAdyziJBXg8pSBaoFkVYUHQgZezv0FHnQBs0_1_nkJRuNtZJ5t2iPAGrEzZ-uGLu70VdGy4R9RF0VoYUurymhtsgYh87M44Yt3qufqgY3qu3oklDzv9XepNjWOu8t0bXYuHD85SbWn_UdcrODmhbS4inLkUA78QAa5zzamczrqB8Qf9sMLgx9_Z9ijXBqJrSnwYfucQEo42R4Ga_ny0?></g></svg>