<svg xmlns="http://www.w3.org/2000/svg" xmlns:xlink="http://www.w3.org/1999/xlink" contentStyleType="text/css" data-diagram-type="DESCRIPTION" height="442px" preserveAspectRatio="none" style="width:1097px;height:442px;background:#FFFFFF;" version="1.1" viewBox="0 0 1097 442" width="1097px" zoomAndPan="magnify"><?plantuml 1.2026.4?><defs/><g><!--cluster eliminarRecompensa--><g class="cluster" data-qualified-name="eliminarRecompensa" data-source-line="4" id="ent0002"><path d="M221,6 L372.1582,6 A3.75,3.75 0 0 1 374.6582,8.5 L381.6582,29.6094 L590,29.6094 A2.5,2.5 0 0 1 592.5,32.1094 L592.5,424.5 A2.5,2.5 0 0 1 590,427 L221,427 A2.5,2.5 0 0 1 218.5,424.5 L218.5,8.5 A2.5,2.5 0 0 1 221,6" fill="none" style="stroke:#000000;stroke-width:1.5;"/><line style="stroke:#000000;stroke-width:1.5;" x1="218.5" x2="381.6582" y1="29.6094" y2="29.6094"/><text fill="#000000" font-family="sans-serif" font-size="14" font-weight="700" lengthAdjust="spacing" textLength="150.1582" x="222.5" y="22.5332">eliminarRecompensa()</text></g><!--entity EliminarRecompensaView--><g class="entity" data-qualified-name="eliminarRecompensa.EliminarRecompensaView" data-source-line="5" id="ent0003"><rect fill="#629EF9" height="37.6094" rx="2.5" ry="2.5" style="stroke:#181818;stroke-width:0.5;" width="183.3994" x="365" y="42"/><text fill="#000000" font-family="sans-serif" font-size="14" lengthAdjust="spacing" textLength="163.3994" x="375" y="66.5332">EliminarRecompensaView</text></g><!--entity RecompensaController--><g class="entity" data-qualified-name="eliminarRecompensa.RecompensaController" data-source-line="6" id="ent0004"><rect fill="#B5BD68" height="37.6094" rx="2.5" ry="2.5" style="stroke:#181818;stroke-width:0.5;" width="163.1787" x="279" y="158"/><text fill="#000000" font-family="sans-serif" font-size="14" lengthAdjust="spacing" textLength="143.1787" x="289" y="182.5332">RecompensaController</text></g><!--entity RecompensaRepository--><g class="entity" data-qualified-name="eliminarRecompensa.RecompensaRepository" data-source-line="7" id="ent0005"><rect fill="#F2AC4E" height="37.6094" rx="2.5" ry="2.5" style="stroke:#181818;stroke-width:0.5;" width="169.4063" x="290" y="274"/><text fill="#000000" font-family="sans-serif" font-size="14" lengthAdjust="spacing" textLength="149.4063" x="300" y="298.5332">RecompensaRepository</text></g><!--entity Recompensa--><g class="entity" data-qualified-name="eliminarRecompensa.Recompensa" data-source-line="8" id="ent0006"><rect fill="#F2AC4E" height="37.6094" rx="2.5" ry="2.5" style="stroke:#181818;stroke-width:0.5;" width="102.4893" x="323.5" y="373"/><text fill="#000000" font-family="sans-serif" font-size="14" lengthAdjust="spacing" textLength="82.4893" x="333.5" y="397.5332">Recompensa</text></g><!--entity EstadoEntrada--><g class="entity" data-qualified-name="EstadoEntrada" data-source-line="3" id="ent0001"><rect fill="#CDEBA5" height="37.6094" rx="2.5" ry="2.5" style="stroke:#181818;stroke-width:0.5;" width="191.1514" x="7" y="42"/><text fill="#000000" font-family="sans-serif" font-size="14" lengthAdjust="spacing" textLength="171.1514" x="17" y="66.5332">:RECOMPENSA_ABIERTA</text></g><!--entity EstadoSalida--><g class="entity" data-qualified-name="EstadoSalida" data-source-line="11" id="ent0007"><rect fill="#CDEBA5" height="37.6094" rx="2.5" ry="2.5" style="stroke:#181818;stroke-width:0.5;" width="209.8271" x="608.5" y="158"/><text fill="#000000" font-family="sans-serif" font-size="14" lengthAdjust="spacing" textLength="189.8271" x="618.5" y="182.5332">:RECOMPENSAS_ABIERTAS</text></g><!--entity AbrirRecompensas--><g class="entity" data-qualified-name="AbrirRecompensas" data-source-line="12" id="ent0008"><rect fill="#CDEBA5" height="37.6094" rx="2.5" ry="2.5" style="stroke:#181818;stroke-width:0.5;" width="229.3232" x="854" y="158"/><text fill="#000000" font-family="sans-serif" font-size="14" lengthAdjust="spacing" textLength="209.3232" x="864" y="182.5332">:Collaboration AbrirRecompensas</text></g><!--link EstadoEntrada to EliminarRecompensaView--><g class="link" data-entity-1="ent0001" data-entity-2="ent0003" data-link-type="dependency" data-source-line="14" id="lnk9"><path d="M198.3,61 C250.1,61 308.76,61 359.9,61" fill="none" id="EstadoEntrada-to-EliminarRecompensaView" style="stroke:#181818;stroke-width:1;"/><polygon fill="#181818" points="364.9,61,355.9,57,359.9,61,355.9,65,364.9,61" style="stroke:#181818;stroke-width:1;stroke-linejoin:miter;stroke-miterlimit:10;"/><text fill="#000000" font-family="sans-serif" font-size="13" lengthAdjust="spacing" textLength="130.7681" x="216.5" y="54.4951">eliminarRecompensa()</text></g><!--link EliminarRecompensaView to RecompensaController--><g class="link" data-entity-1="ent0003" data-entity-2="ent0004" data-link-type="dependency" data-source-line="16" id="lnk10"><path d="M385.21,80.01 C331.3,93.63 266.5,110 266.5,110 C266.5,110 266.5,128 266.5,128 C266.5,128 294.1071,142.0959 320.7771,155.7159" fill="none" id="EliminarRecompensaView-to-RecompensaController" style="stroke:#181818;stroke-width:1;"/><polygon fill="#181818" points="325.23,157.99,319.034,150.3343,320.7771,155.7159,315.3955,157.4591,325.23,157.99" style="stroke:#181818;stroke-width:1;stroke-linejoin:miter;stroke-miterlimit:10;"/><text fill="#000000" font-family="sans-serif" font-size="13" lengthAdjust="spacing" textLength="140.8862" x="267.5" y="124.4951">eliminarRecompensa(id)</text></g><!--link EliminarRecompensaView to RecompensaController--><g class="link" data-entity-1="ent0003" data-entity-2="ent0004" data-link-type="dependency" data-source-line="17" id="lnk11"><path d="M444.48,80.03 C431.45,99.58 412.5,128 412.5,128 C412.5,128 398.5537,140.8683 383.8337,154.4583" fill="none" id="EliminarRecompensaView-to-RecompensaController-1" style="stroke:#181818;stroke-width:1;"/><polygon fill="#181818" points="380.16,157.85,389.4861,154.6839,383.8337,154.4583,384.0593,148.8059,380.16,157.85" style="stroke:#181818;stroke-width:1;stroke-linejoin:miter;stroke-miterlimit:10;"/><text fill="#000000" font-family="sans-serif" font-size="13" lengthAdjust="spacing" textLength="123.5444" x="424.5" y="124.4951">validarEliminacion(id)</text></g><!--link RecompensaController to RecompensaRepository--><g class="link" data-entity-1="ent0004" data-entity-2="ent0005" data-link-type="dependency" data-source-line="18" id="lnk12"><path d="M334.41,196.15 C314.87,209.74 291.5,226 291.5,226 C291.5,226 291.5,244 291.5,244 C291.5,244 315.2917,257.7569 338.7917,271.3469" fill="none" id="RecompensaController-to-RecompensaRepository" style="stroke:#181818;stroke-width:1;"/><polygon fill="#181818" points="343.12,273.85,337.3314,265.8818,338.7917,271.3469,333.3265,272.8071,343.12,273.85" style="stroke:#181818;stroke-width:1;stroke-linejoin:miter;stroke-miterlimit:10;"/><text fill="#000000" font-family="sans-serif" font-size="13" lengthAdjust="spacing" textLength="93.939" x="292.5" y="240.4951">obtenerPorId(id)</text></g><!--link RecompensaController to RecompensaRepository--><g class="link" data-entity-1="ent0004" data-entity-2="ent0005" data-link-type="dependency" data-source-line="19" id="lnk13"><path d="M371.84,196.15 C380.34,209.74 390.5,226 390.5,226 C390.5,226 390.5,244 390.5,244 C390.5,244 386.6611,255.5166 382.1311,269.1066" fill="none" id="RecompensaController-to-RecompensaRepository-1" style="stroke:#181818;stroke-width:1;"/><polygon fill="#181818" points="380.55,273.85,387.1908,266.5768,382.1311,269.1066,379.6013,264.0469,380.55,273.85" style="stroke:#181818;stroke-width:1;stroke-linejoin:miter;stroke-miterlimit:10;"/><text fill="#000000" font-family="sans-serif" font-size="13" lengthAdjust="spacing" textLength="64.2891" x="391.5" y="240.4951">eliminar(id)</text></g><!--link RecompensaRepository to Recompensa--><g class="link" data-entity-1="ent0005" data-entity-2="ent0006" data-link-type="association" data-source-line="20" id="lnk14"><path d="M374.5,312.24 C374.5,329.59 374.5,355.52 374.5,372.84" fill="none" id="RecompensaRepository-Recompensa" style="stroke:#181818;stroke-width:1;"/></g><!--link EliminarRecompensaView to EstadoSalida--><g class="link" data-entity-1="ent0003" data-entity-2="ent0007" data-link-type="dependency" data-source-line="21" id="lnk15"><path d="M497.22,80.06 C545.2,101.35 619.8896,134.4724 667.9696,155.8024" fill="none" id="EliminarRecompensaView-to-EstadoSalida" style="stroke:#181818;stroke-width:1;stroke-dasharray:7,7;"/><polygon fill="#181818" points="672.54,157.83,665.9353,150.524,667.9696,155.8024,662.6911,157.8367,672.54,157.83" style="stroke:#181818;stroke-width:1;stroke-linejoin:miter;stroke-miterlimit:10;"/><text fill="#000000" font-family="sans-serif" font-size="13" lengthAdjust="spacing" textLength="130.7935" x="600.5" y="124.4951">continuarNavegacion()</text></g><!--link EliminarRecompensaView to AbrirRecompensas--><g class="link" data-entity-1="ent0003" data-entity-2="ent0008" data-link-type="dependency" data-source-line="22" id="lnk16"><path d="M548.38,77.58 C631.02,91.6 739.5,110 739.5,110 C739.5,110 833.3157,137.0347 901.1157,156.5847" fill="none" id="EliminarRecompensaView-to-AbrirRecompensas" style="stroke:#181818;stroke-width:1;stroke-dasharray:7,7;"/><polygon fill="#181818" points="905.92,157.97,898.3806,151.633,901.1157,156.5847,896.1641,159.3199,905.92,157.97" style="stroke:#181818;stroke-width:1;stroke-linejoin:miter;stroke-miterlimit:10;"/><text fill="#000000" font-family="sans-serif" font-size="13" lengthAdjust="spacing" textLength="117.7617" x="801.5" y="124.4951">abrirRecompensas()</text></g><?plantuml-src dP71Qy8m5CRl-IiUtMKUz21JPWz2xI9uc9Dsx2glxQC4OrBIp25Z__kYcrXZEs6vvV7xlkJxNhqHgaA3Mv12aTrN19MM-yE5CKEvHLLAWhluYS-Y4GHXmkENvnLVfj4wcYruyXe5W3NmscAXkR862sGLvXii2KYAhL1e4ihrjY9Luu4DhiVtlG0-6RZJU7CydF3v1FWL_IRemuUpKLQC7-4CnTfzHaj9naVdmoX-u0qqeKhNmcgplucohrkrfATUqaOnAKhXUcbJnkwFc6c3LcW5KMP48sbzzF27Z5tK3NtJdtRK549RsSwWbOP-uPpQEcpr4KMlqwZJPtUimlpgSXVwwDC6UoxdDOMWCqkAp4gRHV4V_IcDfpqZJjjSUqVCmM1wiU4GSlUwKEzebhYZyYTVxo-vlzmGq9iu_JS0?></g></svg>