<svg xmlns="http://www.w3.org/2000/svg" xmlns:xlink="http://www.w3.org/1999/xlink" contentStyleType="text/css" data-diagram-type="DESCRIPTION" height="595px" preserveAspectRatio="none" style="width:2099px;height:595px;background:#FFFFFF;" version="1.1" viewBox="0 0 2099 595" width="2099px" zoomAndPan="magnify"><?plantuml 1.2026.6?><defs/><g><!--cluster eliminarRecompensa--><g class="cluster" data-qualified-name="eliminarRecompensa" data-source-line="4" id="ent0002"><path d="M217,6 L368.1582,6 A3.75,3.75 0 0 1 370.6582,8.5 L377.6582,29.6094 L1086,29.6094 A2.5,2.5 0 0 1 1088.5,32.1094 L1088.5,577.5 A2.5,2.5 0 0 1 1086,580 L217,580 A2.5,2.5 0 0 1 214.5,577.5 L214.5,8.5 A2.5,2.5 0 0 1 217,6" fill="none" style="stroke:#000000;stroke-width:1.5;"/><line style="stroke:#000000;stroke-width:1.5;" x1="214.5" x2="377.6582" y1="29.6094" y2="29.6094"/><text fill="#000000" font-family="sans-serif" font-size="14" font-weight="700" lengthAdjust="spacing" textLength="150.1582" x="218.5" y="22.5332">eliminarRecompensa()</text></g><!--entity EliminarRecompensaView--><g class="entity" data-qualified-name="eliminarRecompensa.EliminarRecompensaView" data-source-line="5" id="ent0003"><rect fill="#629EF9" height="37.6094" rx="2.5" ry="2.5" style="stroke:#181818;stroke-width:0.5;" width="183.3994" x="683" y="42"/><text fill="#000000" font-family="sans-serif" font-size="14" lengthAdjust="spacing" textLength="163.3994" x="693" y="66.5332">EliminarRecompensaView</text></g><!--entity RecompensaController--><g class="entity" data-qualified-name="eliminarRecompensa.RecompensaController" data-source-line="6" id="ent0004"><rect fill="#B5BD68" height="37.6094" rx="2.5" ry="2.5" style="stroke:#181818;stroke-width:0.5;" width="163.1787" x="578" y="176.5"/><text fill="#000000" font-family="sans-serif" font-size="14" lengthAdjust="spacing" textLength="143.1787" x="588" y="201.0332">RecompensaController</text></g><!--entity RecompensaService--><g class="entity" data-qualified-name="eliminarRecompensa.RecompensaService" data-source-line="7" id="ent0005"><rect fill="#B5BD68" height="37.6094" rx="2.5" ry="2.5" style="stroke:#181818;stroke-width:0.5;" width="149.1719" x="399" y="311"/><text fill="#000000" font-family="sans-serif" font-size="14" lengthAdjust="spacing" textLength="129.1719" x="409" y="335.5332">RecompensaService</text></g><!--entity SesionService--><g class="entity" data-qualified-name="eliminarRecompensa.SesionService" data-source-line="8" id="ent0006"><rect fill="#B5BD68" height="37.6094" rx="2.5" ry="2.5" style="stroke:#181818;stroke-width:0.5;" width="109.4893" x="646" y="311"/><text fill="#000000" font-family="sans-serif" font-size="14" lengthAdjust="spacing" textLength="89.4893" x="656" y="335.5332">SesionService</text></g><!--entity RecompensaRepository--><g class="entity" data-qualified-name="eliminarRecompensa.RecompensaRepository" data-source-line="9" id="ent0007"><rect fill="#F2AC4E" height="37.6094" rx="2.5" ry="2.5" style="stroke:#181818;stroke-width:0.5;" width="169.4063" x="322" y="427"/><text fill="#000000" font-family="sans-serif" font-size="14" lengthAdjust="spacing" textLength="149.4063" x="332" y="451.5332">RecompensaRepository</text></g><!--entity ProyectoRepository--><g class="entity" data-qualified-name="eliminarRecompensa.ProyectoRepository" data-source-line="10" id="ent0008"><rect fill="#F2AC4E" height="37.6094" rx="2.5" ry="2.5" style="stroke:#181818;stroke-width:0.5;" width="142.165" x="659.5" y="427"/><text fill="#000000" font-family="sans-serif" font-size="14" lengthAdjust="spacing" textLength="122.165" x="669.5" y="451.5332">ProyectoRepository</text></g><!--entity Recompensa--><g class="entity" data-qualified-name="eliminarRecompensa.Recompensa" data-source-line="11" id="ent0009"><rect fill="#F2AC4E" height="37.6094" rx="2.5" ry="2.5" style="stroke:#181818;stroke-width:0.5;" width="102.4893" x="355.5" y="526"/><text fill="#000000" font-family="sans-serif" font-size="14" lengthAdjust="spacing" textLength="82.4893" x="365.5" y="550.5332">Recompensa</text></g><!--entity Proyecto--><g class="entity" data-qualified-name="eliminarRecompensa.Proyecto" data-source-line="12" id="ent0010"><rect fill="#F2AC4E" height="37.6094" rx="2.5" ry="2.5" style="stroke:#181818;stroke-width:0.5;" width="75.248" x="693" y="526"/><text fill="#000000" font-family="sans-serif" font-size="14" lengthAdjust="spacing" textLength="55.248" x="703" y="550.5332">Proyecto</text></g><!--entity EstadoEntrada--><g class="entity" data-qualified-name="EstadoEntrada" data-source-line="3" id="ent0001"><rect fill="#CDEBA5" height="37.6094" rx="2.5" ry="2.5" style="stroke:#181818;stroke-width:0.5;" width="191.1514" x="7" y="42"/><text fill="#000000" font-family="sans-serif" font-size="14" lengthAdjust="spacing" textLength="171.1514" x="17" y="66.5332">:RECOMPENSA_ABIERTA</text></g><!--entity EstadoSalidaExitosa--><g class="entity" data-qualified-name="EstadoSalidaExitosa" data-source-line="15" id="ent0011"><rect fill="#CDEBA5" height="37.6094" rx="2.5" ry="2.5" style="stroke:#181818;stroke-width:0.5;" width="209.8271" x="1104.5" y="176.5"/><text fill="#000000" font-family="sans-serif" font-size="14" lengthAdjust="spacing" textLength="189.8271" x="1114.5" y="201.0332">:RECOMPENSAS_ABIERTAS</text></g><!--entity EstadoSalidaCancelada--><g class="entity" data-qualified-name="EstadoSalidaCancelada" data-source-line="16" id="ent0012"><rect fill="#CDEBA5" height="37.6094" rx="2.5" ry="2.5" style="stroke:#181818;stroke-width:0.5;" width="191.1514" x="1350" y="176.5"/><text fill="#000000" font-family="sans-serif" font-size="14" lengthAdjust="spacing" textLength="171.1514" x="1360" y="201.0332">:RECOMPENSA_ABIERTA</text></g><!--entity AbrirRecompensas--><g class="entity" data-qualified-name="AbrirRecompensas" data-source-line="17" id="ent0013"><rect fill="#CDEBA5" height="37.6094" rx="2.5" ry="2.5" style="stroke:#181818;stroke-width:0.5;" width="229.3232" x="1576" y="176.5"/><text fill="#000000" font-family="sans-serif" font-size="14" lengthAdjust="spacing" textLength="209.3232" x="1586" y="201.0332">:Collaboration AbrirRecompensas</text></g><g class="entity" data-qualified-name="GMN27" data-source-line="34" id="ent0028"><path d="M1840.5,158 L1840.5,233.4063 L2084.0806,233.4063 L2084.0806,168 L2074.0806,158 L1840.5,158" fill="#FEFFDD" style="stroke:#181818;stroke-width:0.5;"/><path d="M2074.0806,158 L2074.0806,168 L2084.0806,168 L2074.0806,158" fill="#FEFFDD" style="stroke:#181818;stroke-width:1;"/><text fill="#000000" font-family="sans-serif" font-size="13" lengthAdjust="spacing" textLength="222.5806" x="1846.5" y="176.4951">La anulacion conserva la recompensa,</text><text fill="#000000" font-family="sans-serif" font-size="13" lengthAdjust="spacing" textLength="177.0425" x="1846.5" y="192.8467">su concesion y su trazabilidad,</text><text fill="#000000" font-family="sans-serif" font-size="13" lengthAdjust="spacing" textLength="190.7725" x="1846.5" y="209.1982">pero no modifica el proyecto ni la</text><text fill="#000000" font-family="sans-serif" font-size="13" lengthAdjust="spacing" textLength="192.2324" x="1846.5" y="225.5498">carga de trabajo del investigador.</text></g><!--link EstadoEntrada to EliminarRecompensaView--><g class="link" data-entity-1="ent0001" data-entity-2="ent0003" data-link-type="dependency" data-source-line="19" id="lnk14"><path d="M198.07,61 C327.16,61 550.68,61 677.77,61" fill="none" id="EstadoEntrada-to-EliminarRecompensaView" style="stroke:#181818;stroke-width:1;"/><polygon fill="#181818" points="682.77,61,673.77,57,677.77,61,673.77,65,682.77,61" style="stroke:#181818;stroke-width:1;stroke-linejoin:miter;stroke-miterlimit:10;"/><text fill="#000000" font-family="sans-serif" font-size="13" lengthAdjust="spacing" textLength="130.7681" x="375.5" y="54.4951">eliminarRecompensa()</text></g><!--link EliminarRecompensaView to RecompensaController--><g class="link" data-entity-1="ent0003" data-entity-2="ent0004" data-link-type="dependency" data-source-line="21" id="lnk15"><path d="M682.96,70.58 C535.7,84.39 262.5,110 262.5,110 C262.5,110 262.5,128 262.5,128 C262.5,128 456.5787,160.5038 572.7887,179.9738" fill="none" id="EliminarRecompensaView-to-RecompensaController" style="stroke:#181818;stroke-width:1;"/><polygon fill="#181818" points="577.72,180.8,569.5047,175.3678,572.7887,179.9738,568.1828,183.2579,577.72,180.8" style="stroke:#181818;stroke-width:1;stroke-linejoin:miter;stroke-miterlimit:10;"/><text fill="#000000" font-family="sans-serif" font-size="13" lengthAdjust="spacing" textLength="139.4263" x="263.5" y="124.4951">solicitarConfirmacion(id)</text></g><!--link RecompensaController to EliminarRecompensaView--><g class="link" data-entity-1="ent0004" data-entity-2="ent0003" data-link-type="dependency" data-source-line="24" id="lnk18"><path d="M722.59,176.42 C791.29,156.72 891.5,128 891.5,128 C891.5,128 891.5,110 891.5,110 C891.5,110 856.2259,95.5277 823.0259,81.9077" fill="none" id="RecompensaController-to-EliminarRecompensaView" style="stroke:#181818;stroke-width:1;"/><polygon fill="#181818" points="818.4,80.01,825.2084,87.1266,823.0259,81.9077,828.2447,79.7252,818.4,80.01" style="stroke:#181818;stroke-width:1;stroke-linejoin:miter;stroke-miterlimit:10;"/><text fill="#000000" font-family="sans-serif" font-size="13" lengthAdjust="spacing" textLength="140.1626" x="892.5" y="124.4951">presentarConfirmacion()</text></g><!--link EliminarRecompensaView to RecompensaController--><g class="link" data-entity-1="ent0003" data-entity-2="ent0004" data-link-type="dependency" data-source-line="25" id="lnk19"><path d="M682.74,75.31 C584.78,89.51 443.5,110 443.5,110 C443.5,110 443.5,128 443.5,128 C443.5,128 532.0215,155.2482 595.9815,174.9482" fill="none" id="EliminarRecompensaView-to-RecompensaController-1" style="stroke:#181818;stroke-width:1;"/><polygon fill="#181818" points="600.76,176.42,593.3362,169.948,595.9815,174.9482,590.9813,177.5936,600.76,176.42" style="stroke:#181818;stroke-width:1;stroke-linejoin:miter;stroke-miterlimit:10;"/><text fill="#000000" font-family="sans-serif" font-size="13" lengthAdjust="spacing" textLength="130.0508" x="444.5" y="124.4951">confirmarAnulacion(id)</text></g><!--link EliminarRecompensaView to RecompensaController--><g class="link" data-entity-1="ent0003" data-entity-2="ent0004" data-link-type="dependency" data-source-line="26" id="lnk20"><path d="M714.84,80.01 C669.73,93.63 615.5,110 615.5,110 C615.5,110 615.5,128 615.5,128 C615.5,128 631.6907,152.4703 644.7207,172.1603" fill="none" id="EliminarRecompensaView-to-RecompensaController-2" style="stroke:#181818;stroke-width:1;"/><polygon fill="#181818" points="647.48,176.33,645.849,166.6171,644.7207,172.1603,639.1775,171.032,647.48,176.33" style="stroke:#181818;stroke-width:1;stroke-linejoin:miter;stroke-miterlimit:10;"/><text fill="#000000" font-family="sans-serif" font-size="13" lengthAdjust="spacing" textLength="114.1689" x="616.5" y="124.4951">validarAnulacion(id)</text></g><!--link EliminarRecompensaView to RecompensaController--><g class="link" data-entity-1="ent0003" data-entity-2="ent0004" data-link-type="dependency" data-source-line="30" id="lnk24"><path d="M763.84,80.03 C752.3,99.58 735.5,128 735.5,128 C735.5,128 706.5327,153.3472 684.0327,173.0372" fill="none" id="EliminarRecompensaView-to-RecompensaController-3" style="stroke:#181818;stroke-width:1;"/><polygon fill="#181818" points="680.27,176.33,689.677,173.4132,684.0327,173.0372,684.4086,167.3929,680.27,176.33" style="stroke:#181818;stroke-width:1;stroke-linejoin:miter;stroke-miterlimit:10;"/><text fill="#000000" font-family="sans-serif" font-size="13" lengthAdjust="spacing" textLength="114.8926" x="746.5" y="124.4951">cancelarAnulacion()</text></g><!--link RecompensaController to RecompensaService--><g class="link" data-entity-1="ent0004" data-entity-2="ent0005" data-link-type="dependency" data-source-line="22" id="lnk16"><path d="M611.95,214.67 C560.44,234.36 485.5,263 485.5,263 C485.5,263 481.2233,286.5004 477.6733,306.0504" fill="none" id="RecompensaController-to-RecompensaService" style="stroke:#181818;stroke-width:1;"/><polygon fill="#181818" points="476.78,310.97,482.3236,302.8295,477.6733,306.0504,474.4523,301.4002,476.78,310.97" style="stroke:#181818;stroke-width:1;stroke-linejoin:miter;stroke-miterlimit:10;"/><text fill="#000000" font-family="sans-serif" font-size="13" lengthAdjust="spacing" textLength="185.6816" x="486.5" y="277.4951">eliminar(id, motivo, coordinador)</text></g><!--link RecompensaController to SesionService--><g class="link" data-entity-1="ent0004" data-entity-2="ent0006" data-link-type="dependency" data-source-line="23" id="lnk17"><path d="M665.11,214.65 C672.92,239.88 685.5022,280.5334 693.3422,305.8734" fill="none" id="RecompensaController-to-SesionService" style="stroke:#181818;stroke-width:1;"/><polygon fill="#181818" points="694.82,310.65,695.9812,300.8698,693.3422,305.8734,688.3386,303.2344,694.82,310.65" style="stroke:#181818;stroke-width:1;stroke-linejoin:miter;stroke-miterlimit:10;"/><text fill="#000000" font-family="sans-serif" font-size="13" lengthAdjust="spacing" textLength="209.5806" x="685.5" y="277.4951">obtenerSesionActual(authentication)</text></g><!--link RecompensaService to RecompensaRepository--><g class="link" data-entity-1="ent0005" data-entity-2="ent0007" data-link-type="dependency" data-source-line="27" id="lnk21"><path d="M421.72,349.01 C382.56,362.63 335.5,379 335.5,379 C335.5,379 335.5,397 335.5,397 C335.5,397 355.4073,410.4604 375.5173,424.0504" fill="none" id="RecompensaService-to-RecompensaRepository" style="stroke:#181818;stroke-width:1;"/><polygon fill="#181818" points="379.66,426.85,374.4427,418.4965,375.5173,424.0504,369.9634,425.1249,379.66,426.85" style="stroke:#181818;stroke-width:1;stroke-linejoin:miter;stroke-miterlimit:10;"/><text fill="#000000" font-family="sans-serif" font-size="13" lengthAdjust="spacing" textLength="93.939" x="336.5" y="393.4951">obtenerPorId(id)</text></g><!--link RecompensaService to RecompensaRepository--><g class="link" data-entity-1="ent0005" data-entity-2="ent0007" data-link-type="dependency" data-source-line="29" id="lnk23"><path d="M462.88,349.06 C450.41,370.28 432.3632,400.9892 419.8232,422.3292" fill="none" id="RecompensaService-to-RecompensaRepository-1" style="stroke:#181818;stroke-width:1;"/><polygon fill="#181818" points="417.29,426.64,425.2983,420.9071,419.8232,422.3292,418.401,416.854,417.29,426.64" style="stroke:#181818;stroke-width:1;stroke-linejoin:miter;stroke-miterlimit:10;"/><text fill="#000000" font-family="sans-serif" font-size="13" lengthAdjust="spacing" textLength="215.3315" x="444.5" y="393.4951">anular(id, fecha, coordinador, motivo)</text></g><!--link RecompensaService to ProyectoRepository--><g class="link" data-entity-1="ent0005" data-entity-2="ent0008" data-link-type="dependency" data-source-line="28" id="lnk22"><path d="M546.67,349.01 C602,362.63 668.5,379 668.5,379 C668.5,379 691.7771,403.7753 710.1371,423.3253" fill="none" id="RecompensaService-to-ProyectoRepository" style="stroke:#181818;stroke-width:1;"/><polygon fill="#181818" points="713.56,426.97,710.3146,417.6712,710.1371,423.3253,704.4831,423.1478,713.56,426.97" style="stroke:#181818;stroke-width:1;stroke-linejoin:miter;stroke-miterlimit:10;"/><text fill="#000000" font-family="sans-serif" font-size="13" lengthAdjust="spacing" textLength="247.1016" x="685.5" y="393.4951">verificarProyectoCompletado(recompensa)</text></g><!--link RecompensaRepository to Recompensa--><g class="link" data-entity-1="ent0007" data-entity-2="ent0009" data-link-type="association" data-source-line="31" id="lnk25"><path d="M406.5,465.24 C406.5,482.59 406.5,508.52 406.5,525.84" fill="none" id="RecompensaRepository-Recompensa" style="stroke:#181818;stroke-width:1;"/></g><!--link ProyectoRepository to Proyecto--><g class="link" data-entity-1="ent0008" data-entity-2="ent0010" data-link-type="association" data-source-line="32" id="lnk26"><path d="M730.5,465.24 C730.5,482.59 730.5,508.52 730.5,525.84" fill="none" id="ProyectoRepository-Proyecto" style="stroke:#181818;stroke-width:1;"/></g><!--link RecompensaController to GMN27--><g class="link" data-entity-1="ent0004" data-entity-2="ent0028" data-link-type="association" data-source-line="34" id="lnk29"><path d="M741.21,181.47 C869.82,159.38 1105,119 1105,119 C1105,119 1805,119 1805,119 C1805,119 1845.3,138.58 1885.13,157.92" fill="none" id="RecompensaController-GMN27" style="stroke:#181818;stroke-width:1;stroke-dasharray:7,7;"/></g><!--link EliminarRecompensaView to EstadoSalidaExitosa--><g class="link" data-entity-1="ent0003" data-entity-2="ent0011" data-link-type="dependency" data-source-line="39" id="lnk30"><path d="M866.01,78.45 C943.3,92.35 1041.5,110 1041.5,110 C1041.5,110 1119.6333,149.2931 1168.9933,174.1231" fill="none" id="EliminarRecompensaView-to-EstadoSalidaExitosa" style="stroke:#181818;stroke-width:1;stroke-dasharray:7,7;"/><polygon fill="#181818" points="1173.46,176.37,1167.2175,168.7522,1168.9933,174.1231,1163.6224,175.8989,1173.46,176.37" style="stroke:#181818;stroke-width:1;stroke-linejoin:miter;stroke-miterlimit:10;"/><text fill="#000000" font-family="sans-serif" font-size="13" lengthAdjust="spacing" textLength="127.9053" x="1074.5" y="124.4951">recompensaAnulada()</text></g><!--link EliminarRecompensaView to EstadoSalidaCancelada--><g class="link" data-entity-1="ent0003" data-entity-2="ent0012" data-link-type="dependency" data-source-line="40" id="lnk31"><path d="M866.17,72.09 C994.05,86.17 1210.5,110 1210.5,110 C1210.5,110 1321.6551,149.9678 1390.6651,174.7878" fill="none" id="EliminarRecompensaView-to-EstadoSalidaCancelada" style="stroke:#181818;stroke-width:1;stroke-dasharray:7,7;"/><polygon fill="#181818" points="1395.37,176.48,1388.2548,169.6701,1390.6651,174.7878,1385.5474,177.198,1395.37,176.48" style="stroke:#181818;stroke-width:1;stroke-linejoin:miter;stroke-miterlimit:10;"/><text fill="#000000" font-family="sans-serif" font-size="13" lengthAdjust="spacing" textLength="126.4707" x="1255.5" y="124.4951">anulacionCancelada()</text></g><!--link EliminarRecompensaView to AbrirRecompensas--><g class="link" data-entity-1="ent0003" data-entity-2="ent0013" data-link-type="dependency" data-source-line="41" id="lnk32"><path d="M866.06,69.13 C1037.65,82.51 1390.5,110 1390.5,110 C1390.5,110 1533.5873,150.3043 1621.6973,175.1243" fill="none" id="EliminarRecompensaView-to-AbrirRecompensas" style="stroke:#181818;stroke-width:1;stroke-dasharray:7,7;"/><polygon fill="#181818" points="1626.51,176.48,1618.9317,170.1896,1621.6973,175.1243,1616.7626,177.8899,1626.51,176.48" style="stroke:#181818;stroke-width:1;stroke-linejoin:miter;stroke-miterlimit:10;"/><text fill="#000000" font-family="sans-serif" font-size="13" lengthAdjust="spacing" textLength="117.7617" x="1448.5" y="124.4951">abrirRecompensas()</text></g><?plantuml-src dLHDZzem4BtdLupe1IJWiEgkkXnMogPPQQL-85ZrMati0TmrTkGOMbhrltSC2maX0T6SaicRvvatprEyAfEZmoLePSXlSeBSwatuY297mgEPQu9toSVqCRw5pcYI9by_ZzClq_Xx_FYSJbxY3c01QU5HsjHuXnAZ7CKhpWb8gwKow2Oax38dKs30Tax3tLu7_aJ0J-NCkvlxzEaUqXFqDqK_w-3iDfDt7w049PQBiLgJkmYTabihGIsuAHNAcXRCqqsSl4yhN1FARQ6yTPiMwDZP3GVjHM39UO4f-djfLDFzhAQLOKrHAudfBww1ZxXwrhlq18qW7MRUH92m_fXPXvuLX3XpgZB5OajM3qRHaPLWu0OFBHOOGPEHcA0H3GF9J4t-645XjHBAe-FWJBab2gwtgsGlQiB3u8ZepHbbDPpOXwNrQctx8AnragFIkZDiHnuRWSqy6NAxQ2py2dKNLtv1nYkn5VCCLvjOkQE22MfDzbhbQbLBlEMxsAnqATNLFEkjWsei9xhM2CfhSv1fRDspF9DyUkFuR79gnbgw_S-44pK5vtNTWUMwSZ0qifl-ZCG2ZuQ_TyJ_wBsxOnMXgdML5J15TMcSjXq0XwLXh2TmQhxmO6VDU_CJxdeAPuQf5om1WaOe5Uf7nIhy4bkhmWRuao_kRynK6AxiHpav2yPo-tAhE5yJjkAk232AwI8Umnn1KiZCy8VbLmtAhAdmQXx46qPa98IAszGR3X-QrjgeKkfMFedjZgzp77RRg9JX43jFKzzgp52BSFu_?></g></svg>