<svg xmlns="http://www.w3.org/2000/svg" xmlns:xlink="http://www.w3.org/1999/xlink" contentStyleType="text/css" data-diagram-type="DESCRIPTION" height="479px" preserveAspectRatio="none" style="width:2099px;height:479px;background:#FFFFFF;" version="1.1" viewBox="0 0 2099 479" width="2099px" zoomAndPan="magnify"><?plantuml 1.2026.5?><defs/><g><!--cluster eliminarRecompensa--><g class="cluster" data-qualified-name="eliminarRecompensa" data-source-line="4" id="ent0002"><path d="M217,6 L368.1582,6 A3.75,3.75 0 0 1 370.6582,8.5 L377.6582,29.6094 L1086,29.6094 A2.5,2.5 0 0 1 1088.5,32.1094 L1088.5,461.5 A2.5,2.5 0 0 1 1086,464 L217,464 A2.5,2.5 0 0 1 214.5,461.5 L214.5,8.5 A2.5,2.5 0 0 1 217,6" fill="none" style="stroke:#000000;stroke-width:1.5;"/><line style="stroke:#000000;stroke-width:1.5;" x1="214.5" x2="377.6582" y1="29.6094" y2="29.6094"/><text fill="#000000" font-family="sans-serif" font-size="14" font-weight="700" lengthAdjust="spacing" textLength="150.1582" x="218.5" y="22.5332">eliminarRecompensa()</text></g><!--entity EliminarRecompensaView--><g class="entity" data-qualified-name="eliminarRecompensa.EliminarRecompensaView" data-source-line="5" id="ent0003"><rect fill="#629EF9" height="37.6094" rx="2.5" ry="2.5" style="stroke:#181818;stroke-width:0.5;" width="183.3994" x="683" y="42"/><text fill="#000000" font-family="sans-serif" font-size="14" lengthAdjust="spacing" textLength="163.3994" x="693" y="66.5332">EliminarRecompensaView</text></g><!--entity RecompensaController--><g class="entity" data-qualified-name="eliminarRecompensa.RecompensaController" data-source-line="6" id="ent0004"><rect fill="#B5BD68" height="37.6094" rx="2.5" ry="2.5" style="stroke:#181818;stroke-width:0.5;" width="163.1787" x="537" y="176.5"/><text fill="#000000" font-family="sans-serif" font-size="14" lengthAdjust="spacing" textLength="143.1787" x="547" y="201.0332">RecompensaController</text></g><!--entity RecompensaRepository--><g class="entity" data-qualified-name="eliminarRecompensa.RecompensaRepository" data-source-line="7" id="ent0005"><rect fill="#F2AC4E" height="37.6094" rx="2.5" ry="2.5" style="stroke:#181818;stroke-width:0.5;" width="169.4063" x="415" y="311"/><text fill="#000000" font-family="sans-serif" font-size="14" lengthAdjust="spacing" textLength="149.4063" x="425" y="335.5332">RecompensaRepository</text></g><!--entity ProyectoRepository--><g class="entity" data-qualified-name="eliminarRecompensa.ProyectoRepository" data-source-line="8" id="ent0006"><rect fill="#F2AC4E" height="37.6094" rx="2.5" ry="2.5" style="stroke:#181818;stroke-width:0.5;" width="142.165" x="752.5" y="311"/><text fill="#000000" font-family="sans-serif" font-size="14" lengthAdjust="spacing" textLength="122.165" x="762.5" y="335.5332">ProyectoRepository</text></g><!--entity Recompensa--><g class="entity" data-qualified-name="eliminarRecompensa.Recompensa" data-source-line="9" id="ent0007"><rect fill="#F2AC4E" height="37.6094" rx="2.5" ry="2.5" style="stroke:#181818;stroke-width:0.5;" width="102.4893" x="448.5" y="410"/><text fill="#000000" font-family="sans-serif" font-size="14" lengthAdjust="spacing" textLength="82.4893" x="458.5" y="434.5332">Recompensa</text></g><!--entity Proyecto--><g class="entity" data-qualified-name="eliminarRecompensa.Proyecto" data-source-line="10" id="ent0008"><rect fill="#F2AC4E" height="37.6094" rx="2.5" ry="2.5" style="stroke:#181818;stroke-width:0.5;" width="75.248" x="786" y="410"/><text fill="#000000" font-family="sans-serif" font-size="14" lengthAdjust="spacing" textLength="55.248" x="796" y="434.5332">Proyecto</text></g><!--entity EstadoEntrada--><g class="entity" data-qualified-name="EstadoEntrada" data-source-line="3" id="ent0001"><rect fill="#CDEBA5" height="37.6094" rx="2.5" ry="2.5" style="stroke:#181818;stroke-width:0.5;" width="191.1514" x="7" y="42"/><text fill="#000000" font-family="sans-serif" font-size="14" lengthAdjust="spacing" textLength="171.1514" x="17" y="66.5332">:RECOMPENSA_ABIERTA</text></g><!--entity EstadoSalidaExitosa--><g class="entity" data-qualified-name="EstadoSalidaExitosa" data-source-line="13" id="ent0009"><rect fill="#CDEBA5" height="37.6094" rx="2.5" ry="2.5" style="stroke:#181818;stroke-width:0.5;" width="209.8271" x="1104.5" y="176.5"/><text fill="#000000" font-family="sans-serif" font-size="14" lengthAdjust="spacing" textLength="189.8271" x="1114.5" y="201.0332">:RECOMPENSAS_ABIERTAS</text></g><!--entity EstadoSalidaCancelada--><g class="entity" data-qualified-name="EstadoSalidaCancelada" data-source-line="14" id="ent0010"><rect fill="#CDEBA5" height="37.6094" rx="2.5" ry="2.5" style="stroke:#181818;stroke-width:0.5;" width="191.1514" x="1350" y="176.5"/><text fill="#000000" font-family="sans-serif" font-size="14" lengthAdjust="spacing" textLength="171.1514" x="1360" y="201.0332">:RECOMPENSA_ABIERTA</text></g><!--entity AbrirRecompensas--><g class="entity" data-qualified-name="AbrirRecompensas" data-source-line="15" id="ent0011"><rect fill="#CDEBA5" height="37.6094" rx="2.5" ry="2.5" style="stroke:#181818;stroke-width:0.5;" width="229.3232" x="1576" y="176.5"/><text fill="#000000" font-family="sans-serif" font-size="14" lengthAdjust="spacing" textLength="209.3232" x="1586" y="201.0332">:Collaboration AbrirRecompensas</text></g><g class="entity" data-qualified-name="GMN23" data-source-line="30" id="ent0024"><path d="M1840.5,158 L1840.5,233.4063 L2084.0806,233.4063 L2084.0806,168 L2074.0806,158 L1840.5,158" fill="#FEFFDD" style="stroke:#181818;stroke-width:0.5;"/><path d="M2074.0806,158 L2074.0806,168 L2084.0806,168 L2074.0806,158" fill="#FEFFDD" style="stroke:#181818;stroke-width:1;"/><text fill="#000000" font-family="sans-serif" font-size="13" lengthAdjust="spacing" textLength="222.5806" x="1846.5" y="176.4951">La anulacion conserva la recompensa,</text><text fill="#000000" font-family="sans-serif" font-size="13" lengthAdjust="spacing" textLength="177.0425" x="1846.5" y="192.8467">su concesion y su trazabilidad,</text><text fill="#000000" font-family="sans-serif" font-size="13" lengthAdjust="spacing" textLength="190.7725" x="1846.5" y="209.1982">pero no modifica el proyecto ni la</text><text fill="#000000" font-family="sans-serif" font-size="13" lengthAdjust="spacing" textLength="192.2324" x="1846.5" y="225.5498">carga de trabajo del investigador.</text></g><!--link EstadoEntrada to EliminarRecompensaView--><g class="link" data-entity-1="ent0001" data-entity-2="ent0003" data-link-type="dependency" data-source-line="17" id="lnk12"><path d="M198.07,61 C327.16,61 550.68,61 677.77,61" fill="none" id="EstadoEntrada-to-EliminarRecompensaView" style="stroke:#181818;stroke-width:1;"/><polygon fill="#181818" points="682.77,61,673.77,57,677.77,61,673.77,65,682.77,61" style="stroke:#181818;stroke-width:1;stroke-linejoin:miter;stroke-miterlimit:10;"/><text fill="#000000" font-family="sans-serif" font-size="13" lengthAdjust="spacing" textLength="130.7681" x="375.5" y="54.4951">eliminarRecompensa()</text></g><!--link EliminarRecompensaView to RecompensaController--><g class="link" data-entity-1="ent0003" data-entity-2="ent0004" data-link-type="dependency" data-source-line="19" id="lnk13"><path d="M682.96,70.58 C535.7,84.39 262.5,110 262.5,110 C262.5,110 262.5,128 262.5,128 C262.5,128 426.805,158.6921 531.915,178.3221" fill="none" id="EliminarRecompensaView-to-RecompensaController" style="stroke:#181818;stroke-width:1;"/><polygon fill="#181818" points="536.83,179.24,528.7173,173.6557,531.915,178.3221,527.2486,181.5198,536.83,179.24" style="stroke:#181818;stroke-width:1;stroke-linejoin:miter;stroke-miterlimit:10;"/><text fill="#000000" font-family="sans-serif" font-size="13" lengthAdjust="spacing" textLength="139.4263" x="263.5" y="124.4951">solicitarConfirmacion(id)</text></g><!--link RecompensaController to EliminarRecompensaView--><g class="link" data-entity-1="ent0004" data-entity-2="ent0003" data-link-type="dependency" data-source-line="20" id="lnk14"><path d="M692.74,176.42 C773.58,156.72 891.5,128 891.5,128 C891.5,128 891.5,110 891.5,110 C891.5,110 856.2259,95.5277 823.0259,81.9077" fill="none" id="RecompensaController-to-EliminarRecompensaView" style="stroke:#181818;stroke-width:1;"/><polygon fill="#181818" points="818.4,80.01,825.2084,87.1266,823.0259,81.9077,828.2447,79.7252,818.4,80.01" style="stroke:#181818;stroke-width:1;stroke-linejoin:miter;stroke-miterlimit:10;"/><text fill="#000000" font-family="sans-serif" font-size="13" lengthAdjust="spacing" textLength="140.1626" x="892.5" y="124.4951">presentarConfirmacion()</text></g><!--link EliminarRecompensaView to RecompensaController--><g class="link" data-entity-1="ent0003" data-entity-2="ent0004" data-link-type="dependency" data-source-line="21" id="lnk15"><path d="M682.74,75.31 C584.78,89.51 443.5,110 443.5,110 C443.5,110 443.5,128 443.5,128 C443.5,128 514.1961,154.8637 566.0061,174.5537" fill="none" id="EliminarRecompensaView-to-RecompensaController-1" style="stroke:#181818;stroke-width:1;"/><polygon fill="#181818" points="570.68,176.33,563.6881,169.3936,566.0061,174.5537,560.8461,176.8718,570.68,176.33" style="stroke:#181818;stroke-width:1;stroke-linejoin:miter;stroke-miterlimit:10;"/><text fill="#000000" font-family="sans-serif" font-size="13" lengthAdjust="spacing" textLength="130.0508" x="444.5" y="124.4951">confirmarAnulacion(id)</text></g><!--link EliminarRecompensaView to RecompensaController--><g class="link" data-entity-1="ent0003" data-entity-2="ent0004" data-link-type="dependency" data-source-line="22" id="lnk16"><path d="M714.84,80.01 C669.73,93.63 615.5,110 615.5,110 C615.5,110 615.5,128 615.5,128 C615.5,128 616.5642,151.6451 617.4542,171.3351" fill="none" id="EliminarRecompensaView-to-RecompensaController-2" style="stroke:#181818;stroke-width:1;"/><polygon fill="#181818" points="617.68,176.33,621.2695,167.1586,617.4542,171.3351,613.2777,167.5198,617.68,176.33" style="stroke:#181818;stroke-width:1;stroke-linejoin:miter;stroke-miterlimit:10;"/><text fill="#000000" font-family="sans-serif" font-size="13" lengthAdjust="spacing" textLength="114.1689" x="616.5" y="124.4951">validarAnulacion(id)</text></g><!--link EliminarRecompensaView to RecompensaController--><g class="link" data-entity-1="ent0003" data-entity-2="ent0004" data-link-type="dependency" data-source-line="26" id="lnk20"><path d="M763.84,80.03 C752.3,99.58 735.5,128 735.5,128 C735.5,128 689.4568,154.1692 654.8168,173.8592" fill="none" id="EliminarRecompensaView-to-RecompensaController-3" style="stroke:#181818;stroke-width:1;"/><polygon fill="#181818" points="650.47,176.33,660.271,175.36,654.8168,173.8592,656.3177,168.405,650.47,176.33" style="stroke:#181818;stroke-width:1;stroke-linejoin:miter;stroke-miterlimit:10;"/><text fill="#000000" font-family="sans-serif" font-size="13" lengthAdjust="spacing" textLength="114.8926" x="746.5" y="124.4951">cancelarAnulacion()</text></g><!--link RecompensaController to RecompensaRepository--><g class="link" data-entity-1="ent0004" data-entity-2="ent0005" data-link-type="dependency" data-source-line="23" id="lnk17"><path d="M566.83,214.58 C510.57,234.28 428.5,263 428.5,263 C428.5,263 428.5,281 428.5,281 C428.5,281 448.4073,294.4604 468.5173,308.0504" fill="none" id="RecompensaController-to-RecompensaRepository" style="stroke:#181818;stroke-width:1;"/><polygon fill="#181818" points="472.66,310.85,467.4427,302.4965,468.5173,308.0504,462.9634,309.1249,472.66,310.85" style="stroke:#181818;stroke-width:1;stroke-linejoin:miter;stroke-miterlimit:10;"/><text fill="#000000" font-family="sans-serif" font-size="13" lengthAdjust="spacing" textLength="93.939" x="429.5" y="277.4951">obtenerPorId(id)</text></g><!--link RecompensaController to RecompensaRepository--><g class="link" data-entity-1="ent0004" data-entity-2="ent0005" data-link-type="dependency" data-source-line="25" id="lnk19"><path d="M602.2,214.65 C579.54,239.88 542.0811,281.5902 519.3211,306.9302" fill="none" id="RecompensaController-to-RecompensaRepository-1" style="stroke:#181818;stroke-width:1;"/><polygon fill="#181818" points="515.98,310.65,524.9698,306.6272,519.3211,306.9302,519.0181,301.2814,515.98,310.65" style="stroke:#181818;stroke-width:1;stroke-linejoin:miter;stroke-miterlimit:10;"/><text fill="#000000" font-family="sans-serif" font-size="13" lengthAdjust="spacing" textLength="215.3315" x="555.5" y="277.4951">anular(id, fecha, coordinador, motivo)</text></g><!--link RecompensaController to ProyectoRepository--><g class="link" data-entity-1="ent0004" data-entity-2="ent0006" data-link-type="dependency" data-source-line="24" id="lnk18"><path d="M662.49,214.67 C710.16,234.36 779.5,263 779.5,263 C779.5,263 795.677,287.2594 808.707,306.8094" fill="none" id="RecompensaController-to-ProyectoRepository" style="stroke:#181818;stroke-width:1;"/><polygon fill="#181818" points="811.48,310.97,809.817,301.2626,808.707,306.8094,803.1601,305.6994,811.48,310.97" style="stroke:#181818;stroke-width:1;stroke-linejoin:miter;stroke-miterlimit:10;"/><text fill="#000000" font-family="sans-serif" font-size="13" lengthAdjust="spacing" textLength="247.1016" x="791.5" y="277.4951">verificarProyectoCompletado(recompensa)</text></g><!--link RecompensaRepository to Recompensa--><g class="link" data-entity-1="ent0005" data-entity-2="ent0007" data-link-type="association" data-source-line="27" id="lnk21"><path d="M499.5,349.24 C499.5,366.59 499.5,392.52 499.5,409.84" fill="none" id="RecompensaRepository-Recompensa" style="stroke:#181818;stroke-width:1;"/></g><!--link ProyectoRepository to Proyecto--><g class="link" data-entity-1="ent0006" data-entity-2="ent0008" data-link-type="association" data-source-line="28" id="lnk22"><path d="M823.5,349.24 C823.5,366.59 823.5,392.52 823.5,409.84" fill="none" id="ProyectoRepository-Proyecto" style="stroke:#181818;stroke-width:1;"/></g><!--link RecompensaController to GMN23--><g class="link" data-entity-1="ent0004" data-entity-2="ent0024" data-link-type="association" data-source-line="30" id="lnk25"><path d="M700.2,182.65 C838.78,160.86 1105,119 1105,119 C1105,119 1805,119 1805,119 C1805,119 1845.3,138.58 1885.13,157.92" fill="none" id="RecompensaController-GMN23" style="stroke:#181818;stroke-width:1;stroke-dasharray:7,7;"/></g><!--link EliminarRecompensaView to EstadoSalidaExitosa--><g class="link" data-entity-1="ent0003" data-entity-2="ent0009" data-link-type="dependency" data-source-line="35" id="lnk26"><path d="M866.01,78.45 C943.3,92.35 1041.5,110 1041.5,110 C1041.5,110 1119.6333,149.2931 1168.9933,174.1231" fill="none" id="EliminarRecompensaView-to-EstadoSalidaExitosa" style="stroke:#181818;stroke-width:1;stroke-dasharray:7,7;"/><polygon fill="#181818" points="1173.46,176.37,1167.2175,168.7522,1168.9933,174.1231,1163.6224,175.8989,1173.46,176.37" style="stroke:#181818;stroke-width:1;stroke-linejoin:miter;stroke-miterlimit:10;"/><text fill="#000000" font-family="sans-serif" font-size="13" lengthAdjust="spacing" textLength="127.9053" x="1074.5" y="124.4951">recompensaAnulada()</text></g><!--link EliminarRecompensaView to EstadoSalidaCancelada--><g class="link" data-entity-1="ent0003" data-entity-2="ent0010" data-link-type="dependency" data-source-line="36" id="lnk27"><path d="M866.17,72.09 C994.05,86.17 1210.5,110 1210.5,110 C1210.5,110 1321.6551,149.9678 1390.6651,174.7878" fill="none" id="EliminarRecompensaView-to-EstadoSalidaCancelada" style="stroke:#181818;stroke-width:1;stroke-dasharray:7,7;"/><polygon fill="#181818" points="1395.37,176.48,1388.2548,169.6701,1390.6651,174.7878,1385.5474,177.198,1395.37,176.48" style="stroke:#181818;stroke-width:1;stroke-linejoin:miter;stroke-miterlimit:10;"/><text fill="#000000" font-family="sans-serif" font-size="13" lengthAdjust="spacing" textLength="126.4707" x="1255.5" y="124.4951">anulacionCancelada()</text></g><!--link EliminarRecompensaView to AbrirRecompensas--><g class="link" data-entity-1="ent0003" data-entity-2="ent0011" data-link-type="dependency" data-source-line="37" id="lnk28"><path d="M866.06,69.13 C1037.65,82.51 1390.5,110 1390.5,110 C1390.5,110 1533.5873,150.3043 1621.6973,175.1243" fill="none" id="EliminarRecompensaView-to-AbrirRecompensas" style="stroke:#181818;stroke-width:1;stroke-dasharray:7,7;"/><polygon fill="#181818" points="1626.51,176.48,1618.9317,170.1896,1621.6973,175.1243,1616.7626,177.8899,1626.51,176.48" style="stroke:#181818;stroke-width:1;stroke-linejoin:miter;stroke-miterlimit:10;"/><text fill="#000000" font-family="sans-serif" font-size="13" lengthAdjust="spacing" textLength="117.7617" x="1448.5" y="124.4951">abrirRecompensas()</text></g><?plantuml-src dLHDRzf04BtxLupe1IJW43LHuqCantMaIFs88Egr6di7iisoQyqwjBJgV-yiDDWrDeZwP8_Vl7txtkpwPsrBP5o1qPQgJKbGEhC97r74L5HebuRWJVe-kqqkOH3FilJpnuViqppvcjpUPxF7P03e8VCLAfVPYb5XL6BnZ4i2CdgbBVAC2hSgoNeCsC5XUJWQmAy8v6ciUNLndTrTGtQ0_gBfUnkSN-RgwXtKeDI966SCSHjwTv6aRxC6T4QbyxfolEc1Fh3RID6T1DQS9vYYtwVidR_wEsyOF4UZ5MO_H8CiSNO-k_OKRK4cvDH5a8fdc3l6IZiBISwwuRpVahMBKVHF_33XoKrFR35qXIy4dMYOA67goZG6xumkT8KinONc5HQYTwZLAEh2m-I8f9B9asrJZNf5zMeg_lPpObzCBUXidlKsfnPBxxQw1Za6brTaYHyStwlZ_OVJBGg8zK8NoAy_K-ar558UyfxeR54OTiGYPmmBAfvmB9OvLcAESZo6bQlqslsFyRkHRZZMb5Oh48hc6JtSUG3ipwXr5G7hvLC5Rj5zjNp0tPx2cY5-Jxn6C0YrIUF8luHV1Va0se1yoZdvYRaEAQjnL18xi4wshxQconcHcTo90Ak5Bf8abWYAGcUEtvoy6j1sJRxIos3UD2Ah82ZkSsywlUcwHUA6rArz2lj7lysnlqhYsePzxJXD-n8HXbP5-ly0?></g></svg>