<svg xmlns="http://www.w3.org/2000/svg" xmlns:xlink="http://www.w3.org/1999/xlink" contentStyleType="text/css" data-diagram-type="SEQUENCE" height="1240px" preserveAspectRatio="none" style="width:1452px;height:1240px;background:#FFFFFF;" version="1.1" viewBox="0 0 1452 1240" width="1452px" zoomAndPan="magnify"><title>Diagrama de secuencia - Iniciar sesi&#243;n</title><defs/><g><text fill="#000000" font-family="sans-serif" font-size="14" font-weight="bold" lengthAdjust="spacing" textLength="257.5576" x="598.3247" y="29.5332">Diagrama de secuencia - Iniciar sesi&#243;n</text><g><title>LoginPage</title><rect fill="#FFFFFF" height="958.7891" style="stroke:#181818;stroke-width:1;" width="10" x="298.9932" y="189.9219"/></g><g><title>AuthController</title><rect fill="#FFFFFF" height="107.4063" style="stroke:#181818;stroke-width:1;" width="10" x="518.0483" y="280.9766"/></g><g><title>AuthController</title><rect fill="#FFFFFF" height="390.9219" style="stroke:#181818;stroke-width:1;" width="10" x="518.0483" y="435.0859"/></g><g><title>AuthController</title><rect fill="#FFFFFF" height="107.4063" style="stroke:#181818;stroke-width:1;" width="10" x="518.0483" y="872.7109"/></g><g><title>Spring Security</title><rect fill="#FFFFFF" height="30.3516" style="stroke:#181818;stroke-width:1;" width="10" x="728.3672" y="311.3281"/></g><g><title>Spring Security</title><rect fill="#FFFFFF" height="30.3516" style="stroke:#181818;stroke-width:1;" width="10" x="728.3672" y="903.0625"/></g><g><title>AuthService</title><rect fill="#FFFFFF" height="220.4609" style="stroke:#181818;stroke-width:1;" width="10" x="837.5737" y="465.4375"/></g><g><title>UsuarioRepository</title><rect fill="#FFFFFF" height="91.0547" style="stroke:#181818;stroke-width:1;" width="10" x="1149.7661" y="495.7891"/></g><g><title>PostgreSQL</title><rect fill="#FFFFFF" height="30.3516" style="stroke:#181818;stroke-width:1;" width="10" x="1275.5869" y="526.1406"/></g><g><title>SesionService</title><rect fill="#FFFFFF" height="30.3516" style="stroke:#181818;stroke-width:1;" width="10" x="1378.4624" y="716.25"/></g><rect fill="none" height="496.5156" style="stroke:#000000;stroke-width:1.5;" width="1435.207" x="10" y="645.1953"/><g><title>Investigador</title><rect fill="#000000" fill-opacity="0.00000" height="1037.4922" width="8" x="57.1343" y="121.2188"/><line style="stroke:#181818;stroke-width:0.5;stroke-dasharray:5,5;" x1="61" x2="61" y1="121.2188" y2="1158.7109"/></g><g><title>LoginPage</title><rect fill="#000000" fill-opacity="0.00000" height="1037.4922" width="8" x="299.9932" y="121.2188"/><line style="stroke:#181818;stroke-width:0.5;stroke-dasharray:5,5;" x1="303.5176" x2="303.5176" y1="121.2188" y2="1158.7109"/></g><g><title>AuthController</title><rect fill="#000000" fill-opacity="0.00000" height="1037.4922" width="8" x="519.0483" y="121.2188"/><line style="stroke:#181818;stroke-width:0.5;stroke-dasharray:5,5;" x1="522.3037" x2="522.3037" y1="121.2188" y2="1158.7109"/></g><g><title>Spring Security</title><rect fill="#000000" fill-opacity="0.00000" height="1037.4922" width="8" x="729.3672" y="121.2188"/><line style="stroke:#181818;stroke-width:0.5;stroke-dasharray:5,5;" x1="732.9019" x2="732.9019" y1="121.2188" y2="1158.7109"/></g><g><title>AuthService</title><rect fill="#000000" fill-opacity="0.00000" height="1037.4922" width="8" x="838.5737" y="121.2188"/><line style="stroke:#181818;stroke-width:0.5;stroke-dasharray:5,5;" x1="841.8325" x2="841.8325" y1="121.2188" y2="1158.7109"/></g><g><title>UsuarioRepository</title><rect fill="#000000" fill-opacity="0.00000" height="1037.4922" width="8" x="1150.7661" y="121.2188"/><line style="stroke:#181818;stroke-width:0.5;stroke-dasharray:5,5;" x1="1154.187" x2="1154.187" y1="121.2188" y2="1158.7109"/></g><g><title>PostgreSQL</title><rect fill="#000000" fill-opacity="0.00000" height="1037.4922" width="8" x="1276.5869" y="121.2188"/><line style="stroke:#181818;stroke-width:0.5;stroke-dasharray:5,5;" x1="1280.4561" x2="1280.4561" y1="121.2188" y2="1158.7109"/></g><g><title>SesionService</title><rect fill="#000000" fill-opacity="0.00000" height="1037.4922" width="8" x="1379.4624" y="121.2188"/><line style="stroke:#181818;stroke-width:0.5;stroke-dasharray:5,5;" x1="1382.7178" x2="1382.7178" y1="121.2188" y2="1158.7109"/></g><g class="participant participant-head" data-participant="Investigador"><text fill="#000000" font-family="sans-serif" font-size="14" lengthAdjust="spacing" textLength="76.2686" x="20" y="118.1426">Investigador</text><ellipse cx="61.1343" cy="52.1094" fill="#E2E2F0" rx="8" ry="8" style="stroke:#181818;stroke-width:0.5;"/><path d="M61.1343,60.1094 L61.1343,87.1094 M48.1343,68.1094 L74.1343,68.1094 M61.1343,87.1094 L48.1343,102.1094 M61.1343,87.1094 L74.1343,102.1094" fill="none" style="stroke:#181818;stroke-width:0.5;"/></g><g class="participant participant-tail" data-participant="Investigador"><text fill="#000000" font-family="sans-serif" font-size="14" lengthAdjust="spacing" textLength="76.2686" x="20" y="1172.2441">Investigador</text><ellipse cx="61.1343" cy="1183.8203" fill="#E2E2F0" rx="8" ry="8" style="stroke:#181818;stroke-width:0.5;"/><path d="M61.1343,1191.8203 L61.1343,1218.8203 M48.1343,1199.8203 L74.1343,1199.8203 M61.1343,1218.8203 L48.1343,1233.8203 M61.1343,1218.8203 L74.1343,1233.8203" fill="none" style="stroke:#181818;stroke-width:0.5;"/></g><g class="participant participant-head" data-participant="Frontend"><rect fill="#E2E2F0" height="49.2188" rx="2.5" ry="2.5" style="stroke:#181818;stroke-width:0.5;" width="80.9512" x="263.5176" y="71"/><text fill="#000000" font-family="sans-serif" font-size="14" lengthAdjust="spacing" textLength="66.9512" x="270.5176" y="92.5332">LoginPage</text><text fill="#000000" font-family="sans-serif" font-size="14" lengthAdjust="spacing" textLength="45.8965" x="281.0449" y="110.1426">(React)</text></g><g class="participant participant-tail" data-participant="Frontend"><rect fill="#E2E2F0" height="49.2188" rx="2.5" ry="2.5" style="stroke:#181818;stroke-width:0.5;" width="80.9512" x="263.5176" y="1157.7109"/><text fill="#000000" font-family="sans-serif" font-size="14" lengthAdjust="spacing" textLength="66.9512" x="270.5176" y="1179.2441">LoginPage</text><text fill="#000000" font-family="sans-serif" font-size="14" lengthAdjust="spacing" textLength="45.8965" x="281.0449" y="1196.8535">(React)</text></g><g class="participant participant-head" data-participant="Api"><rect fill="#E2E2F0" height="49.2188" rx="2.5" ry="2.5" style="stroke:#181818;stroke-width:0.5;" width="103.4893" x="471.3037" y="71"/><text fill="#000000" font-family="sans-serif" font-size="14" lengthAdjust="spacing" textLength="89.4893" x="478.3037" y="92.5332">AuthController</text><text fill="#000000" font-family="sans-serif" font-size="14" lengthAdjust="spacing" textLength="82.4824" x="481.8071" y="110.1426">(Spring Boot)</text></g><g class="participant participant-tail" data-participant="Api"><rect fill="#E2E2F0" height="49.2188" rx="2.5" ry="2.5" style="stroke:#181818;stroke-width:0.5;" width="103.4893" x="471.3037" y="1157.7109"/><text fill="#000000" font-family="sans-serif" font-size="14" lengthAdjust="spacing" textLength="89.4893" x="478.3037" y="1179.2441">AuthController</text><text fill="#000000" font-family="sans-serif" font-size="14" lengthAdjust="spacing" textLength="82.4824" x="481.8071" y="1196.8535">(Spring Boot)</text></g><g class="participant participant-head" data-participant="Security"><rect fill="#E2E2F0" height="31.6094" rx="2.5" ry="2.5" style="stroke:#181818;stroke-width:0.5;" width="108.9307" x="678.9019" y="88.6094"/><text fill="#000000" font-family="sans-serif" font-size="14" lengthAdjust="spacing" textLength="94.9307" x="685.9019" y="110.1426">Spring Security</text></g><g class="participant participant-tail" data-participant="Security"><rect fill="#E2E2F0" height="31.6094" rx="2.5" ry="2.5" style="stroke:#181818;stroke-width:0.5;" width="108.9307" x="678.9019" y="1157.7109"/><text fill="#000000" font-family="sans-serif" font-size="14" lengthAdjust="spacing" textLength="94.9307" x="685.9019" y="1179.2441">Spring Security</text></g><g class="participant participant-head" data-participant="Auth"><rect fill="#E2E2F0" height="31.6094" rx="2.5" ry="2.5" style="stroke:#181818;stroke-width:0.5;" width="89.4824" x="797.8325" y="88.6094"/><text fill="#000000" font-family="sans-serif" font-size="14" lengthAdjust="spacing" textLength="75.4824" x="804.8325" y="110.1426">AuthService</text></g><g class="participant participant-tail" data-participant="Auth"><rect fill="#E2E2F0" height="31.6094" rx="2.5" ry="2.5" style="stroke:#181818;stroke-width:0.5;" width="89.4824" x="797.8325" y="1157.7109"/><text fill="#000000" font-family="sans-serif" font-size="14" lengthAdjust="spacing" textLength="75.4824" x="804.8325" y="1179.2441">AuthService</text></g><g class="participant participant-head" data-participant="Repo"><rect fill="#E2E2F0" height="31.6094" rx="2.5" ry="2.5" style="stroke:#181818;stroke-width:0.5;" width="129.1582" x="1090.187" y="88.6094"/><text fill="#000000" font-family="sans-serif" font-size="14" lengthAdjust="spacing" textLength="115.1582" x="1097.187" y="110.1426">UsuarioRepository</text></g><g class="participant participant-tail" data-participant="Repo"><rect fill="#E2E2F0" height="31.6094" rx="2.5" ry="2.5" style="stroke:#181818;stroke-width:0.5;" width="129.1582" x="1090.187" y="1157.7109"/><text fill="#000000" font-family="sans-serif" font-size="14" lengthAdjust="spacing" textLength="115.1582" x="1097.187" y="1179.2441">UsuarioRepository</text></g><g class="participant participant-head" data-participant="Database"><text fill="#000000" font-family="sans-serif" font-size="14" lengthAdjust="spacing" textLength="76.2617" x="1239.4561" y="118.1426">PostgreSQL</text><path d="M1262.5869,67.6094 C1262.5869,57.6094 1280.5869,57.6094 1280.5869,57.6094 C1280.5869,57.6094 1298.5869,57.6094 1298.5869,67.6094 L1298.5869,93.6094 C1298.5869,103.6094 1280.5869,103.6094 1280.5869,103.6094 C1280.5869,103.6094 1262.5869,103.6094 1262.5869,93.6094 L1262.5869,67.6094" fill="#E2E2F0" style="stroke:#181818;stroke-width:0.5;"/><path d="M1262.5869,67.6094 C1262.5869,77.6094 1280.5869,77.6094 1280.5869,77.6094 C1280.5869,77.6094 1298.5869,77.6094 1298.5869,67.6094" fill="none" style="stroke:#181818;stroke-width:0.5;"/></g><g class="participant participant-tail" data-participant="Database"><text fill="#000000" font-family="sans-serif" font-size="14" lengthAdjust="spacing" textLength="76.2617" x="1239.4561" y="1172.2441">PostgreSQL</text><path d="M1262.5869,1185.3203 C1262.5869,1175.3203 1280.5869,1175.3203 1280.5869,1175.3203 C1280.5869,1175.3203 1298.5869,1175.3203 1298.5869,1185.3203 L1298.5869,1211.3203 C1298.5869,1221.3203 1280.5869,1221.3203 1280.5869,1221.3203 C1280.5869,1221.3203 1262.5869,1221.3203 1262.5869,1211.3203 L1262.5869,1185.3203" fill="#E2E2F0" style="stroke:#181818;stroke-width:0.5;"/><path d="M1262.5869,1185.3203 C1262.5869,1195.3203 1280.5869,1195.3203 1280.5869,1195.3203 C1280.5869,1195.3203 1298.5869,1195.3203 1298.5869,1185.3203" fill="none" style="stroke:#181818;stroke-width:0.5;"/></g><g class="participant participant-head" data-participant="Sesion"><rect fill="#E2E2F0" height="31.6094" rx="2.5" ry="2.5" style="stroke:#181818;stroke-width:0.5;" width="103.4893" x="1331.7178" y="88.6094"/><text fill="#000000" font-family="sans-serif" font-size="14" lengthAdjust="spacing" textLength="89.4893" x="1338.7178" y="110.1426">SesionService</text></g><g class="participant participant-tail" data-participant="Sesion"><rect fill="#E2E2F0" height="31.6094" rx="2.5" ry="2.5" style="stroke:#181818;stroke-width:0.5;" width="103.4893" x="1331.7178" y="1157.7109"/><text fill="#000000" font-family="sans-serif" font-size="14" lengthAdjust="spacing" textLength="89.4893" x="1338.7178" y="1179.2441">SesionService</text></g><g><title>LoginPage</title><rect fill="#FFFFFF" height="958.7891" style="stroke:#181818;stroke-width:1;" width="10" x="298.9932" y="189.9219"/></g><g><title>AuthController</title><rect fill="#FFFFFF" height="107.4063" style="stroke:#181818;stroke-width:1;" width="10" x="518.0483" y="280.9766"/></g><g><title>AuthController</title><rect fill="#FFFFFF" height="390.9219" style="stroke:#181818;stroke-width:1;" width="10" x="518.0483" y="435.0859"/></g><g><title>AuthController</title><rect fill="#FFFFFF" height="107.4063" style="stroke:#181818;stroke-width:1;" width="10" x="518.0483" y="872.7109"/></g><g><title>Spring Security</title><rect fill="#FFFFFF" height="30.3516" style="stroke:#181818;stroke-width:1;" width="10" x="728.3672" y="311.3281"/></g><g><title>Spring Security</title><rect fill="#FFFFFF" height="30.3516" style="stroke:#181818;stroke-width:1;" width="10" x="728.3672" y="903.0625"/></g><g><title>AuthService</title><rect fill="#FFFFFF" height="220.4609" style="stroke:#181818;stroke-width:1;" width="10" x="837.5737" y="465.4375"/></g><g><title>UsuarioRepository</title><rect fill="#FFFFFF" height="91.0547" style="stroke:#181818;stroke-width:1;" width="10" x="1149.7661" y="495.7891"/></g><g><title>PostgreSQL</title><rect fill="#FFFFFF" height="30.3516" style="stroke:#181818;stroke-width:1;" width="10" x="1275.5869" y="526.1406"/></g><g><title>SesionService</title><rect fill="#FFFFFF" height="30.3516" style="stroke:#181818;stroke-width:1;" width="10" x="1378.4624" y="716.25"/></g><path d="M22,136.2188 L22,162.2188 L341,162.2188 L341,146.2188 L331,136.2188 L22,136.2188" fill="#FEFFDD" style="stroke:#181818;stroke-width:0.5;"/><path d="M331,136.2188 L331,146.2188 L341,146.2188 L331,136.2188" fill="#FEFFDD" style="stroke:#181818;stroke-width:0.5;"/><text fill="#000000" font-family="sans-serif" font-size="13" lengthAdjust="spacing" textLength="206.6353" x="73.9167" y="154.7139">Estado previo: SESION_CERRADA</text><g class="message" data-participant-1="Investigador" data-participant-2="Frontend"><polygon fill="#181818" points="286.9932,185.9219,296.9932,189.9219,286.9932,193.9219,290.9932,189.9219" style="stroke:#181818;stroke-width:1;"/><line style="stroke:#181818;stroke-width:1;" x1="61.1343" x2="292.9932" y1="189.9219" y2="189.9219"/><text fill="#000000" font-family="sans-serif" font-size="13" lengthAdjust="spacing" textLength="153.8989" x="68.1343" y="185.0654">Solicita acceder al sistema</text></g><g class="message" data-participant-1="Frontend" data-participant-2="Investigador"><polygon fill="#181818" points="72.1343,216.2734,62.1343,220.2734,72.1343,224.2734,68.1343,220.2734" style="stroke:#181818;stroke-width:1;"/><line style="stroke:#181818;stroke-width:1;stroke-dasharray:2,2;" x1="66.1343" x2="297.9932" y1="220.2734" y2="220.2734"/><text fill="#000000" font-family="sans-serif" font-size="13" lengthAdjust="spacing" textLength="176.3125" x="78.1343" y="215.417">Presenta formulario de acceso</text></g><g class="message" data-participant-1="Investigador" data-participant-2="Frontend"><polygon fill="#181818" points="286.9932,246.625,296.9932,250.625,286.9932,254.625,290.9932,250.625" style="stroke:#181818;stroke-width:1;"/><line style="stroke:#181818;stroke-width:1;" x1="61.1343" x2="292.9932" y1="250.625" y2="250.625"/><text fill="#000000" font-family="sans-serif" font-size="13" lengthAdjust="spacing" textLength="178.4961" x="68.1343" y="245.7686">Introduce usuario y contrase&#241;a</text></g><g class="message" data-participant-1="Frontend" data-participant-2="Api"><polygon fill="#181818" points="506.0483,276.9766,516.0483,280.9766,506.0483,284.9766,510.0483,280.9766" style="stroke:#181818;stroke-width:1;"/><line style="stroke:#181818;stroke-width:1;" x1="308.9932" x2="512.0483" y1="280.9766" y2="280.9766"/><text fill="#000000" font-family="sans-serif" font-size="13" lengthAdjust="spacing" textLength="104.7617" x="315.9932" y="276.1201">GET /api/auth/csrf</text></g><g class="message" data-participant-1="Api" data-participant-2="Security"><polygon fill="#181818" points="716.3672,307.3281,726.3672,311.3281,716.3672,315.3281,720.3672,311.3281" style="stroke:#181818;stroke-width:1;"/><line style="stroke:#181818;stroke-width:1;" x1="528.0483" x2="722.3672" y1="311.3281" y2="311.3281"/><text fill="#000000" font-family="sans-serif" font-size="13" lengthAdjust="spacing" textLength="112.709" x="535.0483" y="306.4717">obtenerTokenCsrf()</text></g><g class="message" data-participant-1="Security" data-participant-2="Api"><polygon fill="#181818" points="539.0483,337.6797,529.0483,341.6797,539.0483,345.6797,535.0483,341.6797" style="stroke:#181818;stroke-width:1;"/><line style="stroke:#181818;stroke-width:1;stroke-dasharray:2,2;" x1="533.0483" x2="732.3672" y1="341.6797" y2="341.6797"/><text fill="#000000" font-family="sans-serif" font-size="13" lengthAdjust="spacing" textLength="118.498" x="545.0483" y="336.8232">CsrfTokenResponse</text></g><g class="message" data-participant-1="Api" data-participant-2="Frontend"><polygon fill="#181818" points="319.9932,384.3828,309.9932,388.3828,319.9932,392.3828,315.9932,388.3828" style="stroke:#181818;stroke-width:1;"/><line style="stroke:#181818;stroke-width:1;stroke-dasharray:2,2;" x1="313.9932" x2="522.0483" y1="388.3828" y2="388.3828"/><text fill="#000000" font-family="sans-serif" font-size="13" lengthAdjust="spacing" textLength="44.0845" x="325.9932" y="367.1748">200 OK</text><text fill="#000000" font-family="sans-serif" font-size="13" lengthAdjust="spacing" textLength="118.498" x="325.9932" y="383.5264">CsrfTokenResponse</text></g><g class="message" data-participant-1="Frontend" data-participant-2="Api"><polygon fill="#181818" points="506.0483,431.0859,516.0483,435.0859,506.0483,439.0859,510.0483,435.0859" style="stroke:#181818;stroke-width:1;"/><line style="stroke:#181818;stroke-width:1;" x1="308.9932" x2="512.0483" y1="435.0859" y2="435.0859"/><text fill="#000000" font-family="sans-serif" font-size="13" lengthAdjust="spacing" textLength="119.958" x="315.9932" y="413.8779">POST /api/auth/login</text><text fill="#000000" font-family="sans-serif" font-size="13" lengthAdjust="spacing" textLength="165.8452" x="315.9932" y="430.2295">LoginRequest + token CSRF</text></g><g class="message" data-participant-1="Api" data-participant-2="Auth"><polygon fill="#181818" points="825.5737,461.4375,835.5737,465.4375,825.5737,469.4375,829.5737,465.4375" style="stroke:#181818;stroke-width:1;"/><line style="stroke:#181818;stroke-width:1;" x1="528.0483" x2="831.5737" y1="465.4375" y2="465.4375"/><text fill="#000000" font-family="sans-serif" font-size="13" lengthAdjust="spacing" textLength="179.9307" x="535.0483" y="460.5811">autenticar(usuario, contrasena)</text></g><g class="message" data-participant-1="Auth" data-participant-2="Repo"><polygon fill="#181818" points="1137.7661,491.7891,1147.7661,495.7891,1137.7661,499.7891,1141.7661,495.7891" style="stroke:#181818;stroke-width:1;"/><line style="stroke:#181818;stroke-width:1;" x1="847.5737" x2="1143.7661" y1="495.7891" y2="495.7891"/><text fill="#000000" font-family="sans-serif" font-size="13" lengthAdjust="spacing" textLength="178.458" x="854.5737" y="490.9326">findByNombreUsuario(usuario)</text></g><g class="message" data-participant-1="Repo" data-participant-2="Database"><polygon fill="#181818" points="1263.5869,522.1406,1273.5869,526.1406,1263.5869,530.1406,1267.5869,526.1406" style="stroke:#181818;stroke-width:1;"/><line style="stroke:#181818;stroke-width:1;" x1="1159.7661" x2="1269.5869" y1="526.1406" y2="526.1406"/><text fill="#000000" font-family="sans-serif" font-size="13" lengthAdjust="spacing" textLength="96.8208" x="1166.7661" y="521.2842">SELECT usuario</text></g><g class="message" data-participant-1="Database" data-participant-2="Repo"><polygon fill="#181818" points="1170.7661,552.4922,1160.7661,556.4922,1170.7661,560.4922,1166.7661,556.4922" style="stroke:#181818;stroke-width:1;"/><line style="stroke:#181818;stroke-width:1;stroke-dasharray:2,2;" x1="1164.7661" x2="1279.5869" y1="556.4922" y2="556.4922"/><text fill="#000000" font-family="sans-serif" font-size="13" lengthAdjust="spacing" textLength="90.3208" x="1176.7661" y="551.6357">Usuario o vac&#237;o</text></g><g class="message" data-participant-1="Repo" data-participant-2="Auth"><polygon fill="#181818" points="858.5737,582.8438,848.5737,586.8438,858.5737,590.8438,854.5737,586.8438" style="stroke:#181818;stroke-width:1;"/><line style="stroke:#181818;stroke-width:1;stroke-dasharray:2,2;" x1="852.5737" x2="1153.7661" y1="586.8438" y2="586.8438"/><text fill="#000000" font-family="sans-serif" font-size="13" lengthAdjust="spacing" textLength="108.3989" x="864.5737" y="581.9873">Optional&lt;Usuario&gt;</text></g><g class="message" data-participant-1="Auth" data-participant-2="Auth"><line style="stroke:#181818;stroke-width:1;" x1="847.5737" x2="889.5737" y1="617.1953" y2="617.1953"/><line style="stroke:#181818;stroke-width:1;" x1="889.5737" x2="889.5737" y1="617.1953" y2="630.1953"/><line style="stroke:#181818;stroke-width:1;" x1="848.5737" x2="889.5737" y1="630.1953" y2="630.1953"/><polygon fill="#181818" points="858.5737,626.1953,848.5737,630.1953,858.5737,634.1953,854.5737,630.1953" style="stroke:#181818;stroke-width:1;"/><text fill="#000000" font-family="sans-serif" font-size="13" lengthAdjust="spacing" textLength="278.1924" x="854.5737" y="612.3389">validarCredenciales(usuario, contrasena, activo)</text></g><path d="M10,645.1953 L70.1709,645.1953 L70.1709,653.5469 L60.1709,663.5469 L10,663.5469 L10,645.1953" fill="#EEEEEE" style="stroke:#000000;stroke-width:1.5;"/><rect fill="none" height="496.5156" style="stroke:#000000;stroke-width:1.5;" width="1435.207" x="10" y="645.1953"/><text fill="#000000" font-family="sans-serif" font-size="13" font-weight="bold" lengthAdjust="spacing" textLength="15.1709" x="25" y="659.6904">alt</text><text fill="#000000" font-family="sans-serif" font-size="11" font-weight="bold" lengthAdjust="spacing" textLength="215.2036" x="85.1709" y="658.6143">[Credenciales correctas y usuario activo]</text><g class="message" data-participant-1="Auth" data-participant-2="Api"><polygon fill="#181818" points="539.0483,681.8984,529.0483,685.8984,539.0483,689.8984,535.0483,685.8984" style="stroke:#181818;stroke-width:1;"/><line style="stroke:#181818;stroke-width:1;stroke-dasharray:2,2;" x1="533.0483" x2="841.5737" y1="685.8984" y2="685.8984"/><text fill="#000000" font-family="sans-serif" font-size="13" lengthAdjust="spacing" textLength="115.6289" x="545.0483" y="681.042">Usuario autenticado</text></g><g class="message" data-participant-1="Api" data-participant-2="Sesion"><polygon fill="#181818" points="1366.4624,712.25,1376.4624,716.25,1366.4624,720.25,1370.4624,716.25" style="stroke:#181818;stroke-width:1;"/><line style="stroke:#181818;stroke-width:1;" x1="528.0483" x2="1372.4624" y1="716.25" y2="716.25"/><text fill="#000000" font-family="sans-serif" font-size="13" lengthAdjust="spacing" textLength="142.3335" x="535.0483" y="711.3936">crearSesion(usuario, rol)</text></g><g class="message" data-participant-1="Sesion" data-participant-2="Api"><polygon fill="#181818" points="539.0483,742.6016,529.0483,746.6016,539.0483,750.6016,535.0483,746.6016" style="stroke:#181818;stroke-width:1;"/><line style="stroke:#181818;stroke-width:1;stroke-dasharray:2,2;" x1="533.0483" x2="1382.4624" y1="746.6016" y2="746.6016"/><text fill="#000000" font-family="sans-serif" font-size="13" lengthAdjust="spacing" textLength="98.2871" x="545.0483" y="741.7451">SesionResponse</text></g><g class="message" data-participant-1="Api" data-participant-2="Frontend"><polygon fill="#181818" points="319.9932,822.0078,309.9932,826.0078,319.9932,830.0078,315.9932,826.0078" style="stroke:#181818;stroke-width:1;"/><line style="stroke:#181818;stroke-width:1;stroke-dasharray:2,2;" x1="313.9932" x2="522.0483" y1="826.0078" y2="826.0078"/><text fill="#000000" font-family="sans-serif" font-size="13" lengthAdjust="spacing" textLength="155.7397" x="325.9932" y="772.0967">200 OK + cookie de sesi&#243;n</text><text fill="#000000" font-family="sans-serif" font-size="13" lengthAdjust="spacing" textLength="142.708" x="325.9932" y="788.4482">HttpOnly, SameSite=Lax</text><text fill="#000000" font-family="sans-serif" font-size="13" lengthAdjust="spacing" textLength="126.4707" x="325.9932" y="804.7998">Secure en producci&#243;n</text><text fill="#000000" font-family="sans-serif" font-size="13" lengthAdjust="spacing" textLength="98.2871" x="325.9932" y="821.1514">SesionResponse</text></g><g class="message" data-participant-1="Frontend" data-participant-2="Api"><polygon fill="#181818" points="506.0483,868.7109,516.0483,872.7109,506.0483,876.7109,510.0483,872.7109" style="stroke:#181818;stroke-width:1;"/><line style="stroke:#181818;stroke-width:1;" x1="308.9932" x2="512.0483" y1="872.7109" y2="872.7109"/><text fill="#000000" font-family="sans-serif" font-size="13" lengthAdjust="spacing" textLength="104.7617" x="315.9932" y="851.5029">GET /api/auth/csrf</text><text fill="#000000" font-family="sans-serif" font-size="13" lengthAdjust="spacing" textLength="190.0552" x="315.9932" y="867.8545">Renovar token tras autenticaci&#243;n</text></g><g class="message" data-participant-1="Api" data-participant-2="Security"><polygon fill="#181818" points="716.3672,899.0625,726.3672,903.0625,716.3672,907.0625,720.3672,903.0625" style="stroke:#181818;stroke-width:1;"/><line style="stroke:#181818;stroke-width:1;" x1="528.0483" x2="722.3672" y1="903.0625" y2="903.0625"/><text fill="#000000" font-family="sans-serif" font-size="13" lengthAdjust="spacing" textLength="112.709" x="535.0483" y="898.2061">obtenerTokenCsrf()</text></g><g class="message" data-participant-1="Security" data-participant-2="Api"><polygon fill="#181818" points="539.0483,929.4141,529.0483,933.4141,539.0483,937.4141,535.0483,933.4141" style="stroke:#181818;stroke-width:1;"/><line style="stroke:#181818;stroke-width:1;stroke-dasharray:2,2;" x1="533.0483" x2="732.3672" y1="933.4141" y2="933.4141"/><text fill="#000000" font-family="sans-serif" font-size="13" lengthAdjust="spacing" textLength="176.3188" x="545.0483" y="928.5576">CsrfTokenResponse renovado</text></g><g class="message" data-participant-1="Api" data-participant-2="Frontend"><polygon fill="#181818" points="319.9932,976.1172,309.9932,980.1172,319.9932,984.1172,315.9932,980.1172" style="stroke:#181818;stroke-width:1;"/><line style="stroke:#181818;stroke-width:1;stroke-dasharray:2,2;" x1="313.9932" x2="522.0483" y1="980.1172" y2="980.1172"/><text fill="#000000" font-family="sans-serif" font-size="13" lengthAdjust="spacing" textLength="44.0845" x="325.9932" y="958.9092">200 OK</text><text fill="#000000" font-family="sans-serif" font-size="13" lengthAdjust="spacing" textLength="176.3188" x="325.9932" y="975.2607">CsrfTokenResponse renovado</text></g><g class="message" data-participant-1="Frontend" data-participant-2="Investigador"><polygon fill="#181818" points="72.1343,1006.4688,62.1343,1010.4688,72.1343,1014.4688,68.1343,1010.4688" style="stroke:#181818;stroke-width:1;"/><line style="stroke:#181818;stroke-width:1;stroke-dasharray:2,2;" x1="66.1343" x2="297.9932" y1="1010.4688" y2="1010.4688"/><text fill="#000000" font-family="sans-serif" font-size="13" lengthAdjust="spacing" textLength="213.8589" x="78.1343" y="1005.6123">Abre PANEL_PRINCIPAL_ABIERTO</text></g><line style="stroke:#000000;stroke-width:1;stroke-dasharray:2,2;" x1="10" x2="1445.207" y1="1019.4688" y2="1019.4688"/><text fill="#000000" font-family="sans-serif" font-size="11" font-weight="bold" lengthAdjust="spacing" textLength="235.356" x="15" y="1030.8877">[Credenciales incorrectas o usuario inactivo]</text><g class="message" data-participant-1="Auth" data-participant-2="Api"><polygon fill="#181818" points="534.0483,1052.6563,524.0483,1056.6563,534.0483,1060.6563,530.0483,1056.6563" style="stroke:#181818;stroke-width:1;"/><line style="stroke:#181818;stroke-width:1;stroke-dasharray:2,2;" x1="528.0483" x2="841.5737" y1="1056.6563" y2="1056.6563"/><text fill="#000000" font-family="sans-serif" font-size="13" lengthAdjust="spacing" textLength="197.2661" x="540.0483" y="1051.7998">CredencialesIncorrectasException</text></g><g class="message" data-participant-1="Api" data-participant-2="Frontend"><polygon fill="#181818" points="319.9932,1083.0078,309.9932,1087.0078,319.9932,1091.0078,315.9932,1087.0078" style="stroke:#181818;stroke-width:1;"/><line style="stroke:#181818;stroke-width:1;stroke-dasharray:2,2;" x1="313.9932" x2="522.0483" y1="1087.0078" y2="1087.0078"/><text fill="#000000" font-family="sans-serif" font-size="13" lengthAdjust="spacing" textLength="102.6289" x="325.9932" y="1082.1514">401 Unauthorized</text></g><g class="message" data-participant-1="Frontend" data-participant-2="Investigador"><polygon fill="#181818" points="72.1343,1129.7109,62.1343,1133.7109,72.1343,1137.7109,68.1343,1133.7109" style="stroke:#181818;stroke-width:1;"/><line style="stroke:#181818;stroke-width:1;stroke-dasharray:2,2;" x1="66.1343" x2="297.9932" y1="1133.7109" y2="1133.7109"/><text fill="#000000" font-family="sans-serif" font-size="13" lengthAdjust="spacing" textLength="195.8188" x="78.1343" y="1112.5029">Presenta credenciales incorrectas</text><text fill="#000000" font-family="sans-serif" font-size="13" lengthAdjust="spacing" textLength="103.3208" x="78.1343" y="1128.8545">Permite reintentar</text></g><!--SRC=[dLNRJXin47tVhnZn16eGjEfJr2A54DgeKPBkXhT8QF0EgSN6tdgTYFIV-b3r4_YnZktiZP2K5ed8wvqpbpDdPgsq6S6Ln8N19K9AK91OaH8IuHI6IlB1y5qXdtwhA49XjU7hDHLMBZ3L9ihHMBRAKLau6kc5L5DSq5mTnyJM9qU01LmRhIofj6tSMzblVNvXT9QHOKII6waMSAdr5jVBPHkojKWuHoFjnXkL3xlE4p9hAIYuukUsnKsnGYDrJBak99SLlBd7A4MBTrWG74rrOHU6agyZ__Pg- -9PLaoFLireuIQAbBO4UarjpZer8OF2yWtaXjPITo4P9CF9-BO_YEFULIzY2t0kegW9XzEBoW53TCQ9M0GKWbAEX1aKih2qHDSkkKPEeOfN7k2KdJITTc5gg235ZkwrMQuonutJWtDRw0C935q7qvKWM0L6OGF2jPLvUlg5ZP0Nhg5T-3IOmHdcyWov9sUYCFTregxZ_EzioxvsGTyndinCFv3gi_dnIGsekbyUV6K-ZZFrc9YAN2lkMagxE1-jLT2xytEOV9chWtYNw4vbqqdIB2rpqp1NVYXY-hvY0k4DMESI-aby_MBPJgXTO3ptGWeqnrjMEnMf2XlrUrsx7uTrukt2lLJfvMQibtU6jY8ldJI0NkZknm5BNJi5ZWRzMTdAshnIVddmf8M0so2WOOtYwQTkybJXGgYgm4bkUK8m-x05NpH1FhUog62_naocQFg6DUwsKqR5Iynqm3lXGYFCB3JDsSeO4fR7SrD9DLX7m7yXNjdAigQg4McmQah0KU-HfM3Tq7T1648J7keKUScTUEE60lsES7VXM0SFpvNidiLj0FU9bsKcj7wG53QwtzvpzTdQVAAoJGSIN58YBNqSuUDS-LaWO5NcVf95C3-SXPEikth5UC_PYT9h_f04xRjUrSJwQ6rgIj-lsGJFEDrETM3rhni1Z4zijxSjH_-m8lOwtALhPm7tU5vXsXiFHhVJU3Zk3wUzqMtlSZY8PvE8CdRUahDKjQ1r9MYfzagwYHxMuC6Z83-CX_NTgl_z-LkuKQx1siWVbFv7jTNdHkmfQgwcP9OiKkPKEYyMZViYDXT5zLtx0m00]--></g></svg>