<?xml version="1.0" encoding="us-ascii" standalone="no"?><svg xmlns="http://www.w3.org/2000/svg" xmlns:xlink="http://www.w3.org/1999/xlink" contentStyleType="text/css" height="1240px" preserveAspectRatio="none" style="width:1668px;height:1240px;background:#FFFFFF;" version="1.1" viewBox="0 0 1668 1240" width="1668px" zoomAndPan="magnify"><defs/><g><text fill="#000000" font-family="sans-serif" font-size="14" font-weight="bold" lengthAdjust="spacing" textLength="270" x="700" y="29.5332">Diagrama de secuencia - Iniciar sesi&#243;n</text><rect fill="#FFFFFF" height="958.7891" style="stroke:#181818;stroke-width:1.0;" width="10" x="296.5" y="189.9219"/><rect fill="#FFFFFF" height="107.4063" style="stroke:#181818;stroke-width:1.0;" width="10" x="514.5" y="280.9766"/><rect fill="#FFFFFF" height="390.9219" style="stroke:#181818;stroke-width:1.0;" width="10" x="514.5" y="435.0859"/><rect fill="#FFFFFF" height="107.4063" style="stroke:#181818;stroke-width:1.0;" width="10" x="514.5" y="872.7109"/><rect fill="#FFFFFF" height="30.3516" style="stroke:#181818;stroke-width:1.0;" width="10" x="719.5" y="311.3281"/><rect fill="#FFFFFF" height="30.3516" style="stroke:#181818;stroke-width:1.0;" width="10" x="719.5" y="903.0625"/><rect fill="#FFFFFF" height="220.4609" style="stroke:#181818;stroke-width:1.0;" width="10" x="829.5" y="465.4375"/><rect fill="#FFFFFF" height="91.0547" style="stroke:#181818;stroke-width:1.0;" width="10" x="1127.5" y="495.7891"/><rect fill="#FFFFFF" height="30.3516" style="stroke:#181818;stroke-width:1.0;" width="10" x="1482.5" y="526.1406"/><rect fill="#FFFFFF" height="30.3516" style="stroke:#181818;stroke-width:1.0;" width="10" x="1594" y="716.25"/><rect fill="none" height="496.5156" style="stroke:#000000;stroke-width:1.5;" width="1651" x="10" y="645.1953"/><line style="stroke:#181818;stroke-width:0.5;stroke-dasharray:5.0,5.0;" x1="61" x2="61" y1="121.2188" y2="1158.7109"/><line style="stroke:#181818;stroke-width:0.5;stroke-dasharray:5.0,5.0;" x1="301.5" x2="301.5" y1="121.2188" y2="1158.7109"/><line style="stroke:#181818;stroke-width:0.5;stroke-dasharray:5.0,5.0;" x1="519" x2="519" y1="121.2188" y2="1158.7109"/><line style="stroke:#181818;stroke-width:0.5;stroke-dasharray:5.0,5.0;" x1="724.5" x2="724.5" y1="121.2188" y2="1158.7109"/><line style="stroke:#181818;stroke-width:0.5;stroke-dasharray:5.0,5.0;" x1="834.5" x2="834.5" y1="121.2188" y2="1158.7109"/><line style="stroke:#181818;stroke-width:0.5;stroke-dasharray:5.0,5.0;" x1="1132.5" x2="1132.5" y1="121.2188" y2="1158.7109"/><line style="stroke:#181818;stroke-width:0.5;stroke-dasharray:5.0,5.0;" x1="1487" x2="1487" y1="121.2188" y2="1158.7109"/><line style="stroke:#181818;stroke-width:0.5;stroke-dasharray:5.0,5.0;" x1="1599" x2="1599" y1="121.2188" y2="1158.7109"/><text fill="#000000" font-family="sans-serif" font-size="14" lengthAdjust="spacing" textLength="77" x="20" y="118.1426">Investigador</text><ellipse cx="61.5" cy="52.1094" fill="#E2E2F0" rx="8" ry="8" style="stroke:#181818;stroke-width:0.5;"/><path d="M61.5,60.1094 L61.5,87.1094 M48.5,68.1094 L74.5,68.1094 M61.5,87.1094 L48.5,102.1094 M61.5,87.1094 L74.5,102.1094 " fill="none" style="stroke:#181818;stroke-width:0.5;"/><text fill="#000000" font-family="sans-serif" font-size="14" lengthAdjust="spacing" textLength="77" x="20" y="1172.2441">Investigador</text><ellipse cx="61.5" cy="1183.8203" fill="#E2E2F0" rx="8" ry="8" style="stroke:#181818;stroke-width:0.5;"/><path d="M61.5,1191.8203 L61.5,1218.8203 M48.5,1199.8203 L74.5,1199.8203 M61.5,1218.8203 L48.5,1233.8203 M61.5,1218.8203 L74.5,1233.8203 " fill="none" style="stroke:#181818;stroke-width:0.5;"/><rect fill="#E2E2F0" height="49.2188" rx="2.5" ry="2.5" style="stroke:#181818;stroke-width:0.5;" width="82" x="260.5" y="71"/><text fill="#000000" font-family="sans-serif" font-size="14" lengthAdjust="spacing" textLength="68" x="267.5" y="92.5332">LoginPage</text><text fill="#000000" font-family="sans-serif" font-size="14" lengthAdjust="spacing" textLength="47" x="278" y="110.1426">(React)</text><rect fill="#E2E2F0" height="49.2188" rx="2.5" ry="2.5" style="stroke:#181818;stroke-width:0.5;" width="82" x="260.5" y="1157.7109"/><text fill="#000000" font-family="sans-serif" font-size="14" lengthAdjust="spacing" textLength="68" x="267.5" y="1179.2441">LoginPage</text><text fill="#000000" font-family="sans-serif" font-size="14" lengthAdjust="spacing" textLength="47" x="278" y="1196.8535">(React)</text><rect fill="#E2E2F0" height="49.2188" rx="2.5" ry="2.5" style="stroke:#181818;stroke-width:0.5;" width="105" x="467" y="71"/><text fill="#000000" font-family="sans-serif" font-size="14" lengthAdjust="spacing" textLength="91" x="474" y="92.5332">AuthController</text><text fill="#000000" font-family="sans-serif" font-size="14" lengthAdjust="spacing" textLength="84" x="477.5" y="110.1426">(Spring Boot)</text><rect fill="#E2E2F0" height="49.2188" rx="2.5" ry="2.5" style="stroke:#181818;stroke-width:0.5;" width="105" x="467" y="1157.7109"/><text fill="#000000" font-family="sans-serif" font-size="14" lengthAdjust="spacing" textLength="91" x="474" y="1179.2441">AuthController</text><text fill="#000000" font-family="sans-serif" font-size="14" lengthAdjust="spacing" textLength="84" x="477.5" y="1196.8535">(Spring Boot)</text><rect fill="#E2E2F0" height="31.6094" rx="2.5" ry="2.5" style="stroke:#181818;stroke-width:0.5;" width="110" x="669.5" y="88.6094"/><text fill="#000000" font-family="sans-serif" font-size="14" lengthAdjust="spacing" textLength="96" x="676.5" y="110.1426">Spring Security</text><rect fill="#E2E2F0" height="31.6094" rx="2.5" ry="2.5" style="stroke:#181818;stroke-width:0.5;" width="110" x="669.5" y="1157.7109"/><text fill="#000000" font-family="sans-serif" font-size="14" lengthAdjust="spacing" textLength="96" x="676.5" y="1179.2441">Spring Security</text><rect fill="#E2E2F0" height="31.6094" rx="2.5" ry="2.5" style="stroke:#181818;stroke-width:0.5;" width="90" x="789.5" y="88.6094"/><text fill="#000000" font-family="sans-serif" font-size="14" lengthAdjust="spacing" textLength="76" x="796.5" y="110.1426">AuthService</text><rect fill="#E2E2F0" height="31.6094" rx="2.5" ry="2.5" style="stroke:#181818;stroke-width:0.5;" width="90" x="789.5" y="1157.7109"/><text fill="#000000" font-family="sans-serif" font-size="14" lengthAdjust="spacing" textLength="76" x="796.5" y="1179.2441">AuthService</text><rect fill="#E2E2F0" height="31.6094" rx="2.5" ry="2.5" style="stroke:#181818;stroke-width:0.5;" width="130" x="1067.5" y="88.6094"/><text fill="#000000" font-family="sans-serif" font-size="14" lengthAdjust="spacing" textLength="116" x="1074.5" y="110.1426">UsuarioRepository</text><rect fill="#E2E2F0" height="31.6094" rx="2.5" ry="2.5" style="stroke:#181818;stroke-width:0.5;" width="130" x="1067.5" y="1157.7109"/><text fill="#000000" font-family="sans-serif" font-size="14" lengthAdjust="spacing" textLength="116" x="1074.5" y="1179.2441">UsuarioRepository</text><text fill="#000000" font-family="sans-serif" font-size="14" lengthAdjust="spacing" textLength="93" x="1438" y="118.1426">Base de Datos</text><path d="M1469.5,67.6094 C1469.5,57.6094 1487.5,57.6094 1487.5,57.6094 C1487.5,57.6094 1505.5,57.6094 1505.5,67.6094 L1505.5,93.6094 C1505.5,103.6094 1487.5,103.6094 1487.5,103.6094 C1487.5,103.6094 1469.5,103.6094 1469.5,93.6094 L1469.5,67.6094 " fill="#E2E2F0" style="stroke:#181818;stroke-width:1.5;"/><path d="M1469.5,67.6094 C1469.5,77.6094 1487.5,77.6094 1487.5,77.6094 C1487.5,77.6094 1505.5,77.6094 1505.5,67.6094 " fill="none" style="stroke:#181818;stroke-width:1.5;"/><text fill="#000000" font-family="sans-serif" font-size="14" lengthAdjust="spacing" textLength="93" x="1438" y="1172.2441">Base de Datos</text><path d="M1469.5,1185.3203 C1469.5,1175.3203 1487.5,1175.3203 1487.5,1175.3203 C1487.5,1175.3203 1505.5,1175.3203 1505.5,1185.3203 L1505.5,1211.3203 C1505.5,1221.3203 1487.5,1221.3203 1487.5,1221.3203 C1487.5,1221.3203 1469.5,1221.3203 1469.5,1211.3203 L1469.5,1185.3203 " fill="#E2E2F0" style="stroke:#181818;stroke-width:1.5;"/><path d="M1469.5,1185.3203 C1469.5,1195.3203 1487.5,1195.3203 1487.5,1195.3203 C1487.5,1195.3203 1505.5,1195.3203 1505.5,1185.3203 " fill="none" style="stroke:#181818;stroke-width:1.5;"/><rect fill="#E2E2F0" height="31.6094" rx="2.5" ry="2.5" style="stroke:#181818;stroke-width:0.5;" width="104" x="1547" y="88.6094"/><text fill="#000000" font-family="sans-serif" font-size="14" lengthAdjust="spacing" textLength="90" x="1554" y="110.1426">SesionService</text><rect fill="#E2E2F0" height="31.6094" rx="2.5" ry="2.5" style="stroke:#181818;stroke-width:0.5;" width="104" x="1547" y="1157.7109"/><text fill="#000000" font-family="sans-serif" font-size="14" lengthAdjust="spacing" textLength="90" x="1554" y="1179.2441">SesionService</text><rect fill="#FFFFFF" height="958.7891" style="stroke:#181818;stroke-width:1.0;" width="10" x="296.5" y="189.9219"/><rect fill="#FFFFFF" height="107.4063" style="stroke:#181818;stroke-width:1.0;" width="10" x="514.5" y="280.9766"/><rect fill="#FFFFFF" height="390.9219" style="stroke:#181818;stroke-width:1.0;" width="10" x="514.5" y="435.0859"/><rect fill="#FFFFFF" height="107.4063" style="stroke:#181818;stroke-width:1.0;" width="10" x="514.5" y="872.7109"/><rect fill="#FFFFFF" height="30.3516" style="stroke:#181818;stroke-width:1.0;" width="10" x="719.5" y="311.3281"/><rect fill="#FFFFFF" height="30.3516" style="stroke:#181818;stroke-width:1.0;" width="10" x="719.5" y="903.0625"/><rect fill="#FFFFFF" height="220.4609" style="stroke:#181818;stroke-width:1.0;" width="10" x="829.5" y="465.4375"/><rect fill="#FFFFFF" height="91.0547" style="stroke:#181818;stroke-width:1.0;" width="10" x="1127.5" y="495.7891"/><rect fill="#FFFFFF" height="30.3516" style="stroke:#181818;stroke-width:1.0;" width="10" x="1482.5" y="526.1406"/><rect fill="#FFFFFF" height="30.3516" style="stroke:#181818;stroke-width:1.0;" width="10" x="1594" y="716.25"/><path d="M22,136.2188 L22,162.2188 L339,162.2188 L339,146.2188 L329,136.2188 L22,136.2188 " fill="#FEFFDD" style="stroke:#181818;stroke-width:0.5;"/><path d="M329,136.2188 L329,146.2188 L339,146.2188 L329,136.2188 " fill="#FEFFDD" style="stroke:#181818;stroke-width:0.5;"/><text fill="#000000" font-family="sans-serif" font-size="13" lengthAdjust="spacing" textLength="205" x="73.75" y="154.7139">Estado previo: SESION_CERRADA</text><polygon fill="#181818" points="284.5,185.9219,294.5,189.9219,284.5,193.9219,288.5,189.9219" style="stroke:#181818;stroke-width:1.0;"/><line style="stroke:#181818;stroke-width:1.0;" x1="61.5" x2="290.5" y1="189.9219" y2="189.9219"/><text fill="#000000" font-family="sans-serif" font-size="13" lengthAdjust="spacing" textLength="157" x="68.5" y="185.0654">Solicita acceder al sistema</text><polygon fill="#181818" points="72.5,216.2734,62.5,220.2734,72.5,224.2734,68.5,220.2734" style="stroke:#181818;stroke-width:1.0;"/><line style="stroke:#181818;stroke-width:1.0;stroke-dasharray:2.0,2.0;" x1="66.5" x2="295.5" y1="220.2734" y2="220.2734"/><text fill="#000000" font-family="sans-serif" font-size="13" lengthAdjust="spacing" textLength="176" x="78.5" y="215.417">Presenta formulario de acceso</text><polygon fill="#181818" points="284.5,246.625,294.5,250.625,284.5,254.625,288.5,250.625" style="stroke:#181818;stroke-width:1.0;"/><line style="stroke:#181818;stroke-width:1.0;" x1="61.5" x2="290.5" y1="250.625" y2="250.625"/><text fill="#000000" font-family="sans-serif" font-size="13" lengthAdjust="spacing" textLength="178" x="68.5" y="245.7686">Introduce usuario y contrase&#241;a</text><polygon fill="#181818" points="502.5,276.9766,512.5,280.9766,502.5,284.9766,506.5,280.9766" style="stroke:#181818;stroke-width:1.0;"/><line style="stroke:#181818;stroke-width:1.0;" x1="306.5" x2="508.5" y1="280.9766" y2="280.9766"/><text fill="#000000" font-family="sans-serif" font-size="13" lengthAdjust="spacing" textLength="105" x="313.5" y="276.1201">GET /api/auth/csrf</text><polygon fill="#181818" points="707.5,307.3281,717.5,311.3281,707.5,315.3281,711.5,311.3281" style="stroke:#181818;stroke-width:1.0;"/><line style="stroke:#181818;stroke-width:1.0;" x1="524.5" x2="713.5" y1="311.3281" y2="311.3281"/><text fill="#000000" font-family="sans-serif" font-size="13" lengthAdjust="spacing" textLength="109" x="531.5" y="306.4717">obtenerTokenCsrf()</text><polygon fill="#181818" points="535.5,337.6797,525.5,341.6797,535.5,345.6797,531.5,341.6797" style="stroke:#181818;stroke-width:1.0;"/><line style="stroke:#181818;stroke-width:1.0;stroke-dasharray:2.0,2.0;" x1="529.5" x2="723.5" y1="341.6797" y2="341.6797"/><text fill="#000000" font-family="sans-serif" font-size="13" lengthAdjust="spacing" textLength="116" x="541.5" y="336.8232">CsrfTokenResponse</text><polygon fill="#181818" points="317.5,384.3828,307.5,388.3828,317.5,392.3828,313.5,388.3828" style="stroke:#181818;stroke-width:1.0;"/><line style="stroke:#181818;stroke-width:1.0;stroke-dasharray:2.0,2.0;" x1="311.5" x2="518.5" y1="388.3828" y2="388.3828"/><text fill="#000000" font-family="sans-serif" font-size="13" lengthAdjust="spacing" textLength="44" x="323.5" y="367.1748">200 OK</text><text fill="#000000" font-family="sans-serif" font-size="13" lengthAdjust="spacing" textLength="116" x="323.5" y="383.5264">CsrfTokenResponse</text><polygon fill="#181818" points="502.5,431.0859,512.5,435.0859,502.5,439.0859,506.5,435.0859" style="stroke:#181818;stroke-width:1.0;"/><line style="stroke:#181818;stroke-width:1.0;" x1="306.5" x2="508.5" y1="435.0859" y2="435.0859"/><text fill="#000000" font-family="sans-serif" font-size="13" lengthAdjust="spacing" textLength="120" x="313.5" y="413.8779">POST /api/auth/login</text><text fill="#000000" font-family="sans-serif" font-size="13" lengthAdjust="spacing" textLength="166" x="313.5" y="430.2295">LoginRequest + token CSRF</text><polygon fill="#181818" points="817.5,461.4375,827.5,465.4375,817.5,469.4375,821.5,465.4375" style="stroke:#181818;stroke-width:1.0;"/><line style="stroke:#181818;stroke-width:1.0;" x1="524.5" x2="823.5" y1="465.4375" y2="465.4375"/><text fill="#000000" font-family="sans-serif" font-size="13" lengthAdjust="spacing" textLength="179" x="531.5" y="460.5811">autenticar(usuario, contrasena)</text><polygon fill="#181818" points="1115.5,491.7891,1125.5,495.7891,1115.5,499.7891,1119.5,495.7891" style="stroke:#181818;stroke-width:1.0;"/><line style="stroke:#181818;stroke-width:1.0;" x1="839.5" x2="1121.5" y1="495.7891" y2="495.7891"/><text fill="#000000" font-family="sans-serif" font-size="13" lengthAdjust="spacing" textLength="175" x="846.5" y="490.9326">findByNombreUsuario(usuario)</text><polygon fill="#181818" points="1470.5,522.1406,1480.5,526.1406,1470.5,530.1406,1474.5,526.1406" style="stroke:#181818;stroke-width:1.0;"/><line style="stroke:#181818;stroke-width:1.0;" x1="1137.5" x2="1476.5" y1="526.1406" y2="526.1406"/><text fill="#000000" font-family="sans-serif" font-size="13" lengthAdjust="spacing" textLength="326" x="1144.5" y="521.2842">SELECT * FROM usuarios WHERE nombre_usuario = ?</text><polygon fill="#181818" points="1148.5,552.4922,1138.5,556.4922,1148.5,560.4922,1144.5,556.4922" style="stroke:#181818;stroke-width:1.0;"/><line style="stroke:#181818;stroke-width:1.0;stroke-dasharray:2.0,2.0;" x1="1142.5" x2="1486.5" y1="556.4922" y2="556.4922"/><text fill="#000000" font-family="sans-serif" font-size="13" lengthAdjust="spacing" textLength="88" x="1154.5" y="551.6357">Usuario o vac&#237;o</text><polygon fill="#181818" points="850.5,582.8438,840.5,586.8438,850.5,590.8438,846.5,586.8438" style="stroke:#181818;stroke-width:1.0;"/><line style="stroke:#181818;stroke-width:1.0;stroke-dasharray:2.0,2.0;" x1="844.5" x2="1131.5" y1="586.8438" y2="586.8438"/><text fill="#000000" font-family="sans-serif" font-size="13" lengthAdjust="spacing" textLength="108" x="856.5" y="581.9873">Optional&lt;Usuario&gt;</text><line style="stroke:#181818;stroke-width:1.0;" x1="839.5" x2="881.5" y1="617.1953" y2="617.1953"/><line style="stroke:#181818;stroke-width:1.0;" x1="881.5" x2="881.5" y1="617.1953" y2="630.1953"/><line style="stroke:#181818;stroke-width:1.0;" x1="840.5" x2="881.5" y1="630.1953" y2="630.1953"/><polygon fill="#181818" points="850.5,626.1953,840.5,630.1953,850.5,634.1953,846.5,630.1953" style="stroke:#181818;stroke-width:1.0;"/><text fill="#000000" font-family="sans-serif" font-size="13" lengthAdjust="spacing" textLength="274" x="846.5" y="612.3389">validarCredenciales(usuario, contrasena, activo)</text><path d="M10,645.1953 L71,645.1953 L71,653.5469 L61,663.5469 L10,663.5469 L10,645.1953 " fill="#EEEEEE" style="stroke:#000000;stroke-width:1.5;"/><rect fill="none" height="496.5156" style="stroke:#000000;stroke-width:1.5;" width="1651" x="10" y="645.1953"/><text fill="#000000" font-family="sans-serif" font-size="13" font-weight="bold" lengthAdjust="spacing" textLength="16" x="25" y="659.6904">alt</text><text fill="#000000" font-family="sans-serif" font-size="11" font-weight="bold" lengthAdjust="spacing" textLength="226" x="86" y="658.6143">[Credenciales correctas y usuario activo]</text><polygon fill="#181818" points="535.5,681.8984,525.5,685.8984,535.5,689.8984,531.5,685.8984" style="stroke:#181818;stroke-width:1.0;"/><line style="stroke:#181818;stroke-width:1.0;stroke-dasharray:2.0,2.0;" x1="529.5" x2="833.5" y1="685.8984" y2="685.8984"/><text fill="#000000" font-family="sans-serif" font-size="13" lengthAdjust="spacing" textLength="115" x="541.5" y="681.042">Usuario autenticado</text><polygon fill="#181818" points="1582,712.25,1592,716.25,1582,720.25,1586,716.25" style="stroke:#181818;stroke-width:1.0;"/><line style="stroke:#181818;stroke-width:1.0;" x1="524.5" x2="1588" y1="716.25" y2="716.25"/><text fill="#000000" font-family="sans-serif" font-size="13" lengthAdjust="spacing" textLength="141" x="531.5" y="711.3936">crearSesion(usuario, rol)</text><polygon fill="#181818" points="535.5,742.6016,525.5,746.6016,535.5,750.6016,531.5,746.6016" style="stroke:#181818;stroke-width:1.0;"/><line style="stroke:#181818;stroke-width:1.0;stroke-dasharray:2.0,2.0;" x1="529.5" x2="1598" y1="746.6016" y2="746.6016"/><text fill="#000000" font-family="sans-serif" font-size="13" lengthAdjust="spacing" textLength="98" x="541.5" y="741.7451">SesionResponse</text><polygon fill="#181818" points="317.5,822.0078,307.5,826.0078,317.5,830.0078,313.5,826.0078" style="stroke:#181818;stroke-width:1.0;"/><line style="stroke:#181818;stroke-width:1.0;stroke-dasharray:2.0,2.0;" x1="311.5" x2="518.5" y1="826.0078" y2="826.0078"/><text fill="#000000" font-family="sans-serif" font-size="13" lengthAdjust="spacing" textLength="158" x="323.5" y="772.0967">200 OK + cookie de sesi&#243;n</text><text fill="#000000" font-family="sans-serif" font-size="13" lengthAdjust="spacing" textLength="145" x="323.5" y="788.4482">HttpOnly, SameSite=Lax</text><text fill="#000000" font-family="sans-serif" font-size="13" lengthAdjust="spacing" textLength="126" x="323.5" y="804.7998">Secure en producci&#243;n</text><text fill="#000000" font-family="sans-serif" font-size="13" lengthAdjust="spacing" textLength="98" x="323.5" y="821.1514">SesionResponse</text><polygon fill="#181818" points="502.5,868.7109,512.5,872.7109,502.5,876.7109,506.5,872.7109" style="stroke:#181818;stroke-width:1.0;"/><line style="stroke:#181818;stroke-width:1.0;" x1="306.5" x2="508.5" y1="872.7109" y2="872.7109"/><text fill="#000000" font-family="sans-serif" font-size="13" lengthAdjust="spacing" textLength="105" x="313.5" y="851.5029">GET /api/auth/csrf</text><text fill="#000000" font-family="sans-serif" font-size="13" lengthAdjust="spacing" textLength="189" x="313.5" y="867.8545">Renovar token tras autenticaci&#243;n</text><polygon fill="#181818" points="707.5,899.0625,717.5,903.0625,707.5,907.0625,711.5,903.0625" style="stroke:#181818;stroke-width:1.0;"/><line style="stroke:#181818;stroke-width:1.0;" x1="524.5" x2="713.5" y1="903.0625" y2="903.0625"/><text fill="#000000" font-family="sans-serif" font-size="13" lengthAdjust="spacing" textLength="109" x="531.5" y="898.2061">obtenerTokenCsrf()</text><polygon fill="#181818" points="535.5,929.4141,525.5,933.4141,535.5,937.4141,531.5,933.4141" style="stroke:#181818;stroke-width:1.0;"/><line style="stroke:#181818;stroke-width:1.0;stroke-dasharray:2.0,2.0;" x1="529.5" x2="723.5" y1="933.4141" y2="933.4141"/><text fill="#000000" font-family="sans-serif" font-size="13" lengthAdjust="spacing" textLength="171" x="541.5" y="928.5576">CsrfTokenResponse renovado</text><polygon fill="#181818" points="317.5,976.1172,307.5,980.1172,317.5,984.1172,313.5,980.1172" style="stroke:#181818;stroke-width:1.0;"/><line style="stroke:#181818;stroke-width:1.0;stroke-dasharray:2.0,2.0;" x1="311.5" x2="518.5" y1="980.1172" y2="980.1172"/><text fill="#000000" font-family="sans-serif" font-size="13" lengthAdjust="spacing" textLength="44" x="323.5" y="958.9092">200 OK</text><text fill="#000000" font-family="sans-serif" font-size="13" lengthAdjust="spacing" textLength="171" x="323.5" y="975.2607">CsrfTokenResponse renovado</text><polygon fill="#181818" points="72.5,1006.4688,62.5,1010.4688,72.5,1014.4688,68.5,1010.4688" style="stroke:#181818;stroke-width:1.0;"/><line style="stroke:#181818;stroke-width:1.0;stroke-dasharray:2.0,2.0;" x1="66.5" x2="295.5" y1="1010.4688" y2="1010.4688"/><text fill="#000000" font-family="sans-serif" font-size="13" lengthAdjust="spacing" textLength="211" x="78.5" y="1005.6123">Abre PANEL_PRINCIPAL_ABIERTO</text><line style="stroke:#000000;stroke-width:1.0;stroke-dasharray:2.0,2.0;" x1="10" x2="1661" y1="1019.4688" y2="1019.4688"/><text fill="#000000" font-family="sans-serif" font-size="11" font-weight="bold" lengthAdjust="spacing" textLength="247" x="15" y="1030.8877">[Credenciales incorrectas o usuario inactivo]</text><polygon fill="#181818" points="530.5,1052.6563,520.5,1056.6563,530.5,1060.6563,526.5,1056.6563" style="stroke:#181818;stroke-width:1.0;"/><line style="stroke:#181818;stroke-width:1.0;stroke-dasharray:2.0,2.0;" x1="524.5" x2="833.5" y1="1056.6563" y2="1056.6563"/><text fill="#000000" font-family="sans-serif" font-size="13" lengthAdjust="spacing" textLength="197" x="536.5" y="1051.7998">CredencialesIncorrectasException</text><polygon fill="#181818" points="317.5,1083.0078,307.5,1087.0078,317.5,1091.0078,313.5,1087.0078" style="stroke:#181818;stroke-width:1.0;"/><line style="stroke:#181818;stroke-width:1.0;stroke-dasharray:2.0,2.0;" x1="311.5" x2="518.5" y1="1087.0078" y2="1087.0078"/><text fill="#000000" font-family="sans-serif" font-size="13" lengthAdjust="spacing" textLength="101" x="323.5" y="1082.1514">401 Unauthorized</text><polygon fill="#181818" points="72.5,1129.7109,62.5,1133.7109,72.5,1137.7109,68.5,1133.7109" style="stroke:#181818;stroke-width:1.0;"/><line style="stroke:#181818;stroke-width:1.0;stroke-dasharray:2.0,2.0;" x1="66.5" x2="295.5" y1="1133.7109" y2="1133.7109"/><text fill="#000000" font-family="sans-serif" font-size="13" lengthAdjust="spacing" textLength="197" x="78.5" y="1112.5029">Presenta credenciales incorrectas</text><text fill="#000000" font-family="sans-serif" font-size="13" lengthAdjust="spacing" textLength="103" x="78.5" y="1128.8545">Permite reintentar</text><!--SRC=[dLNRRjiu47tNLmpob6mJ92tsoTYcy4LfZNLZGqhH5mC1GqrSeZAf9McZxZ_reTXFo8zrXhHkSPDsDu05aJbpvdPcv9Kl4IPAhAnO2oWG7CeDQga4dC5KAtgnTEVKmxywIOJqnjBr5frNAr4OcrJ2Ua9LGdiucfcLqWknmgK-pf3G9qSW75nPeptgeWyURlodCVt3ch94InPvPPLUmSYOlTsmKdsJFIAd6Atokm2g3uVaETgjaXYfwDn7V70ROPN9i39EKLgHZOz98Rou4mxXQCHFgif4UEC2O39w51BLnkYkgtYJ9Dfu1BF5Vi5EssgapjCDL1QtoWmWJ_Ff_Ffsd6RPS39C205CaIHTSpYxR0Z8n9GKY1SWfCI2F8aId78Uru9xfRQ2GcZyrIzmHYHTqW4iB3hKH7Hlx7fJSc4uRQPrvfa0fjo-OYCHDh6Si0F9FQMwFNmN7PUNtCq1l4rlu5nKwbnGGywbi_TjeDnk-Z6sRke0p1tPexqndr6F2NvyqXeqhQzVGcR13qE3JOQkCjfXKk2XNV3MI-ZLnGNC_rxgP-qvq8FC5lEycrh9ex3KOI8o_6T31OGNu9aIndbszTEqMQK387lgXPB27k-hUjeKLOjE_a7K_61RLku0xfKkHhjhixwpk5TuJT8n32hd1njEHgozMJg-WJ_WAfk_htlfuEExD4j9XSnsMtVuDRnfcMWS9gDGm-X_xnCCR8Ly-6QwPIDizDbaEgyyZOee_zgRNNRX8SWwkuZVYb8LmeujYPrtL8dkPoKwXK126IUYzD254yfQb9xcTDTeDg8JeB_eh-vfdKtJaIAYkbhW7WJBMhay_GEG5eMDXpP4MdKd0ToHObWMV1TVM-VntEZlaT-EuLCg9hr9OpuhZ7izxF2bVkTzDTVbxXHoiSPSUNmz4r-MEWm50icp2YCj8_pvA5YxVFKRSxua4cssz3c9Gy2zQWiRlFLBKtF_pafuLDFzUCUg_d8rW0s17VQsH_GVTiMJX8VbEjZ4GnerM0olqzdj8fjUZwUBuUnsE9gcsSqymPB8Ut9MkXMqQGIjz9EIxbfFM-FqYyGmZC_hkvV_dnSluOFc1XkhlcBnFx9jlZloYQIMUe5sJIAbcYfcySBofx6xA9eFt0y0]--></g></svg>