<svg xmlns="http://www.w3.org/2000/svg" xmlns:xlink="http://www.w3.org/1999/xlink" contentStyleType="text/css" data-diagram-type="DESCRIPTION" height="442px" preserveAspectRatio="none" style="width:878px;height:442px;background:#FFFFFF;" version="1.1" viewBox="0 0 878 442" width="878px" zoomAndPan="magnify"><?plantuml 1.2026.4?><defs/><g><!--cluster eliminarPublicacion--><g class="cluster" data-qualified-name="eliminarPublicacion" data-source-line="4" id="ent0002"><path d="M239.5,6 L382.0859,6 A3.75,3.75 0 0 1 384.5859,8.5 L391.5859,29.6094 L598.5,29.6094 A2.5,2.5 0 0 1 601,32.1094 L601,424.5 A2.5,2.5 0 0 1 598.5,427 L239.5,427 A2.5,2.5 0 0 1 237,424.5 L237,8.5 A2.5,2.5 0 0 1 239.5,6" fill="none" style="stroke:#000000;stroke-width:1.5;"/><line style="stroke:#000000;stroke-width:1.5;" x1="237" x2="391.5859" y1="29.6094" y2="29.6094"/><text fill="#000000" font-family="sans-serif" font-size="14" font-weight="700" lengthAdjust="spacing" textLength="141.5859" x="241" y="22.5332">eliminarPublicacion()</text></g><!--entity EliminarPublicacionView--><g class="entity" data-qualified-name="eliminarPublicacion.EliminarPublicacionView" data-source-line="5" id="ent0003"><rect fill="#629EF9" height="37.6094" rx="2.5" ry="2.5" style="stroke:#181818;stroke-width:0.5;" width="172.5098" x="373.5" y="42"/><text fill="#000000" font-family="sans-serif" font-size="14" lengthAdjust="spacing" textLength="152.5098" x="383.5" y="66.5332">EliminarPublicacionView</text></g><!--entity PublicacionController--><g class="entity" data-qualified-name="eliminarPublicacion.PublicacionController" data-source-line="6" id="ent0004"><rect fill="#B5BD68" height="37.6094" rx="2.5" ry="2.5" style="stroke:#181818;stroke-width:0.5;" width="152.2891" x="300" y="158"/><text fill="#000000" font-family="sans-serif" font-size="14" lengthAdjust="spacing" textLength="132.2891" x="310" y="182.5332">PublicacionController</text></g><!--entity PublicacionRepository--><g class="entity" data-qualified-name="eliminarPublicacion.PublicacionRepository" data-source-line="7" id="ent0005"><rect fill="#F2AC4E" height="37.6094" rx="2.5" ry="2.5" style="stroke:#181818;stroke-width:0.5;" width="158.5166" x="309.5" y="274"/><text fill="#000000" font-family="sans-serif" font-size="14" lengthAdjust="spacing" textLength="138.5166" x="319.5" y="298.5332">PublicacionRepository</text></g><!--entity Publicacion--><g class="entity" data-qualified-name="eliminarPublicacion.Publicacion" data-source-line="8" id="ent0006"><rect fill="#F2AC4E" height="37.6094" rx="2.5" ry="2.5" style="stroke:#181818;stroke-width:0.5;" width="91.5996" x="343" y="373"/><text fill="#000000" font-family="sans-serif" font-size="14" lengthAdjust="spacing" textLength="71.5996" x="353" y="397.5332">Publicacion</text></g><!--entity EstadoEntrada--><g class="entity" data-qualified-name="EstadoEntrada" data-source-line="3" id="ent0001"><rect fill="#CDEBA5" height="37.6094" rx="2.5" ry="2.5" style="stroke:#181818;stroke-width:0.5;" width="209.8271" x="7" y="42"/><text fill="#000000" font-family="sans-serif" font-size="14" lengthAdjust="spacing" textLength="189.8271" x="17" y="66.5332">:MI_PUBLICACION_ABIERTA</text></g><!--entity EstadoSalida--><g class="entity" data-qualified-name="EstadoSalida" data-source-line="11" id="ent0007"><rect fill="#CDEBA5" height="37.6094" rx="2.5" ry="2.5" style="stroke:#181818;stroke-width:0.5;" width="247.1787" x="617.5" y="158"/><text fill="#000000" font-family="sans-serif" font-size="14" lengthAdjust="spacing" textLength="227.1787" x="627.5" y="182.5332">:MIS_PUBLICACIONES_ABIERTAS</text></g><!--link EstadoEntrada to EliminarPublicacionView--><g class="link" data-entity-1="ent0001" data-entity-2="ent0003" data-link-type="dependency" data-source-line="14" id="lnk8"><path d="M217.36,61 C267.27,61 321.16,61 368.42,61" fill="none" id="EstadoEntrada-to-EliminarPublicacionView" style="stroke:#181818;stroke-width:1;"/><polygon fill="#181818" points="373.42,61,364.42,57,368.42,61,364.42,65,373.42,61" style="stroke:#181818;stroke-width:1;stroke-linejoin:miter;stroke-miterlimit:10;"/><text fill="#000000" font-family="sans-serif" font-size="13" lengthAdjust="spacing" textLength="120.6563" x="235.25" y="54.4951">eliminarPublicacion()</text></g><!--link EliminarPublicacionView to PublicacionController--><g class="link" data-entity-1="ent0003" data-entity-2="ent0004" data-link-type="dependency" data-source-line="16" id="lnk9"><path d="M394.34,80.01 C344.68,93.63 285,110 285,110 C285,110 285,128 285,128 C285,128 311.6072,142.0379 337.4372,155.6579" fill="none" id="EliminarPublicacionView-to-PublicacionController" style="stroke:#181818;stroke-width:1;"/><polygon fill="#181818" points="341.86,157.99,335.7646,150.2539,337.4372,155.6579,332.0333,157.3304,341.86,157.99" style="stroke:#181818;stroke-width:1;stroke-linejoin:miter;stroke-miterlimit:10;"/><text fill="#000000" font-family="sans-serif" font-size="13" lengthAdjust="spacing" textLength="130.7744" x="286" y="124.4951">eliminarPublicacion(id)</text></g><!--link EliminarPublicacionView to PublicacionController--><g class="link" data-entity-1="ent0003" data-entity-2="ent0004" data-link-type="dependency" data-source-line="17" id="lnk10"><path d="M449.34,80.03 C437.8,99.58 421,128 421,128 C421,128 409.181,140.6136 396.431,154.2036" fill="none" id="EliminarPublicacionView-to-PublicacionController-1" style="stroke:#181818;stroke-width:1;"/><polygon fill="#181818" points="393.01,157.85,402.085,154.0233,396.431,154.2036,396.2507,148.5496,393.01,157.85" style="stroke:#181818;stroke-width:1;stroke-linejoin:miter;stroke-miterlimit:10;"/><text fill="#000000" font-family="sans-serif" font-size="13" lengthAdjust="spacing" textLength="123.5444" x="432" y="124.4951">validarEliminacion(id)</text></g><!--link PublicacionController to PublicacionRepository--><g class="link" data-entity-1="ent0004" data-entity-2="ent0005" data-link-type="dependency" data-source-line="18" id="lnk11"><path d="M349.91,196.15 C330.37,209.74 307,226 307,226 C307,226 307,244 307,244 C307,244 330.4647,257.7344 353.6847,271.3244" fill="none" id="PublicacionController-to-PublicacionRepository" style="stroke:#181818;stroke-width:1;"/><polygon fill="#181818" points="358,273.85,352.253,265.8517,353.6847,271.3244,348.2121,272.7561,358,273.85" style="stroke:#181818;stroke-width:1;stroke-linejoin:miter;stroke-miterlimit:10;"/><text fill="#000000" font-family="sans-serif" font-size="13" lengthAdjust="spacing" textLength="93.939" x="308" y="240.4951">obtenerPorId(id)</text></g><!--link PublicacionController to PublicacionRepository--><g class="link" data-entity-1="ent0004" data-entity-2="ent0005" data-link-type="dependency" data-source-line="19" id="lnk12"><path d="M387.34,196.15 C395.84,209.74 406,226 406,226 C406,226 406,244 406,244 C406,244 401.9083,255.5465 397.0983,269.1365" fill="none" id="PublicacionController-to-PublicacionRepository-1" style="stroke:#181818;stroke-width:1;"/><polygon fill="#181818" points="395.43,273.85,402.2037,266.7004,397.0983,269.1365,394.6621,264.0311,395.43,273.85" style="stroke:#181818;stroke-width:1;stroke-linejoin:miter;stroke-miterlimit:10;"/><text fill="#000000" font-family="sans-serif" font-size="13" lengthAdjust="spacing" textLength="64.2891" x="407" y="240.4951">eliminar(id)</text></g><!--link PublicacionRepository to Publicacion--><g class="link" data-entity-1="ent0005" data-entity-2="ent0006" data-link-type="association" data-source-line="20" id="lnk13"><path d="M389,312.24 C389,329.59 389,355.52 389,372.84" fill="none" id="PublicacionRepository-Publicacion" style="stroke:#181818;stroke-width:1;"/></g><!--link EliminarPublicacionView to EstadoSalida--><g class="link" data-entity-1="ent0003" data-entity-2="ent0007" data-link-type="dependency" data-source-line="21" id="lnk14"><path d="M504.53,80.06 C556.99,101.35 639.0169,134.6201 691.5869,155.9501" fill="none" id="EliminarPublicacionView-to-EstadoSalida" style="stroke:#181818;stroke-width:1;stroke-dasharray:7,7;"/><polygon fill="#181818" points="696.22,157.83,689.3842,150.7397,691.5869,155.9501,686.3764,158.1527,696.22,157.83" style="stroke:#181818;stroke-width:1;stroke-linejoin:miter;stroke-miterlimit:10;"/><text fill="#000000" font-family="sans-serif" font-size="13" lengthAdjust="spacing" textLength="130.7935" x="618" y="124.4951">continuarNavegacion()</text></g><?plantuml-src dP51IyCm5CVl-HIFUd67xJ3SS3qCsff1GMTPrUjuRK89ovAIPfCYVdSpSLjRMmHpI_YzVzxxlMedL8a6zo25uhOkEPHQrgSB8ORd5bKXETn43pGCPk3vJ_4sUGqVuoY8ukVrDWXZkda9FC0AQ6MHQQgiGOQan7o71GSknLueDCaXaoB7N6XrWhsUzzkH1ny4t6dyF9ykw6e1z3V-9lXxbyvc6PlVGuEAj6j8IybDbrrDW-YEDjaDBtKbh3Rrtopv71AKDWtHzEmeRKXAKGhdY92MCnYRyN9eKXzwZRc8VXx6p8NrYkYF4cmqd3KSTVmUnVnKNf9wwMxErRSFEhDSSPDe4xF_9Po7wbPV6LVTMk7Gk9F9ihKe7tBNWL07D6iyykBY_Wi0?></g></svg>