<svg xmlns="http://www.w3.org/2000/svg" xmlns:xlink="http://www.w3.org/1999/xlink" contentStyleType="text/css" data-diagram-type="DESCRIPTION" height="595px" preserveAspectRatio="none" style="width:1163px;height:595px;background:#FFFFFF;" version="1.1" viewBox="0 0 1163 595" width="1163px" zoomAndPan="magnify"><?plantuml 1.2026.6?><defs/><g><!--cluster eliminarPublicacion--><g class="cluster" data-qualified-name="eliminarPublicacion" data-source-line="4" id="ent0002"><path d="M235.5,6 L378.0859,6 A3.75,3.75 0 0 1 380.5859,8.5 L387.5859,29.6094 L883.5,29.6094 A2.5,2.5 0 0 1 886,32.1094 L886,577.5 A2.5,2.5 0 0 1 883.5,580 L235.5,580 A2.5,2.5 0 0 1 233,577.5 L233,8.5 A2.5,2.5 0 0 1 235.5,6" fill="none" style="stroke:#000000;stroke-width:1.5;"/><line style="stroke:#000000;stroke-width:1.5;" x1="233" x2="387.5859" y1="29.6094" y2="29.6094"/><text fill="#000000" font-family="sans-serif" font-size="14" font-weight="700" lengthAdjust="spacing" textLength="141.5859" x="237" y="22.5332">eliminarPublicacion()</text></g><!--entity View--><g class="entity" data-qualified-name="eliminarPublicacion.View" data-source-line="5" id="ent0003"><rect fill="#629EF9" height="37.6094" rx="2.5" ry="2.5" style="stroke:#181818;stroke-width:0.5;" width="170.958" x="485.5" y="42"/><text fill="#000000" font-family="sans-serif" font-size="14" lengthAdjust="spacing" textLength="150.958" x="495.5" y="66.5332">eliminarPublicacionView</text></g><!--entity PublicacionController--><g class="entity" data-qualified-name="eliminarPublicacion.PublicacionController" data-source-line="6" id="ent0004"><rect fill="#B5BD68" height="37.6094" rx="2.5" ry="2.5" style="stroke:#181818;stroke-width:0.5;" width="152.2891" x="495" y="158"/><text fill="#000000" font-family="sans-serif" font-size="14" lengthAdjust="spacing" textLength="132.2891" x="505" y="182.5332">PublicacionController</text></g><!--entity PublicacionService--><g class="entity" data-qualified-name="eliminarPublicacion.PublicacionService" data-source-line="7" id="ent0005"><rect fill="#B5BD68" height="37.6094" rx="2.5" ry="2.5" style="stroke:#181818;stroke-width:0.5;" width="138.2822" x="423" y="274"/><text fill="#000000" font-family="sans-serif" font-size="14" lengthAdjust="spacing" textLength="118.2822" x="433" y="298.5332">PublicacionService</text></g><!--entity SesionService--><g class="entity" data-qualified-name="eliminarPublicacion.SesionService" data-source-line="8" id="ent0006"><rect fill="#B5BD68" height="37.6094" rx="2.5" ry="2.5" style="stroke:#181818;stroke-width:0.5;" width="109.4893" x="604.5" y="274"/><text fill="#000000" font-family="sans-serif" font-size="14" lengthAdjust="spacing" textLength="89.4893" x="614.5" y="298.5332">SesionService</text></g><!--entity PoliticaPublicacion--><g class="entity" data-qualified-name="eliminarPublicacion.PoliticaPublicacion" data-source-line="9" id="ent0007"><rect fill="#B5BD68" height="37.6094" rx="2.5" ry="2.5" style="stroke:#181818;stroke-width:0.5;" width="136.7305" x="338.5" y="408.5"/><text fill="#000000" font-family="sans-serif" font-size="14" lengthAdjust="spacing" textLength="116.7305" x="348.5" y="433.0332">PoliticaPublicacion</text></g><!--entity PublicacionRepository--><g class="entity" data-qualified-name="eliminarPublicacion.PublicacionRepository" data-source-line="10" id="ent0008"><rect fill="#F2AC4E" height="37.6094" rx="2.5" ry="2.5" style="stroke:#181818;stroke-width:0.5;" width="158.5166" x="513.5" y="408.5"/><text fill="#000000" font-family="sans-serif" font-size="14" lengthAdjust="spacing" textLength="138.5166" x="523.5" y="433.0332">PublicacionRepository</text></g><!--entity Publicacion--><g class="entity" data-qualified-name="eliminarPublicacion.Publicacion" data-source-line="11" id="ent0009"><rect fill="#F2AC4E" height="37.6094" rx="2.5" ry="2.5" style="stroke:#181818;stroke-width:0.5;" width="91.5996" x="547" y="526"/><text fill="#000000" font-family="sans-serif" font-size="14" lengthAdjust="spacing" textLength="71.5996" x="557" y="550.5332">Publicacion</text></g><!--entity EstadoEntrada--><g class="entity" data-qualified-name="EstadoEntrada" data-source-line="3" id="ent0001"><rect fill="#CDEBA5" height="37.6094" rx="2.5" ry="2.5" style="stroke:#181818;stroke-width:0.5;" width="209.8271" x="7" y="42"/><text fill="#000000" font-family="sans-serif" font-size="14" lengthAdjust="spacing" textLength="189.8271" x="17" y="66.5332">:MI_PUBLICACION_ABIERTA</text></g><!--entity EstadoSalida--><g class="entity" data-qualified-name="EstadoSalida" data-source-line="14" id="ent0010"><rect fill="#CDEBA5" height="37.6094" rx="2.5" ry="2.5" style="stroke:#181818;stroke-width:0.5;" width="247.1787" x="902.5" y="158"/><text fill="#000000" font-family="sans-serif" font-size="14" lengthAdjust="spacing" textLength="227.1787" x="912.5" y="182.5332">:MIS_PUBLICACIONES_ABIERTAS</text></g><g class="entity" data-qualified-name="GMN20" data-source-line="28" id="ent0021"><path d="M902,390 L902,465.4063 L1129.6226,465.4063 L1129.6226,400 L1119.6226,390 L902,390" fill="#FEFFDD" style="stroke:#181818;stroke-width:0.5;"/><path d="M1119.6226,390 L1119.6226,400 L1129.6226,400 L1119.6226,390" fill="#FEFFDD" style="stroke:#181818;stroke-width:1;"/><text fill="#000000" font-family="sans-serif" font-size="13" lengthAdjust="spacing" textLength="134.4243" x="908" y="408.4951">Responsabilidad unica:</text><text fill="#000000" font-family="sans-serif" font-size="13" lengthAdjust="spacing" textLength="191.4707" x="908" y="424.8467">autoriza sin persistir ni presentar.</text><text fill="#000000" font-family="sans-serif" font-size="13" lengthAdjust="spacing" textLength="206.6226" x="908" y="441.1982">Permite ampliar reglas sin modificar</text><text fill="#000000" font-family="sans-serif" font-size="13" lengthAdjust="spacing" textLength="185.7324" x="908" y="457.5498">la coordinacion del caso de uso.</text></g><!--link EstadoEntrada to View--><g class="link" data-entity-1="ent0001" data-entity-2="ent0003" data-link-type="dependency" data-source-line="16" id="lnk11"><path d="M217.02,61 C298.26,61 404.34,61 480.27,61" fill="none" id="EstadoEntrada-to-View" style="stroke:#181818;stroke-width:1;"/><polygon fill="#181818" points="485.27,61,476.27,57,480.27,61,476.27,65,485.27,61" style="stroke:#181818;stroke-width:1;stroke-linejoin:miter;stroke-miterlimit:10;"/><text fill="#000000" font-family="sans-serif" font-size="13" lengthAdjust="spacing" textLength="120.6563" x="291.25" y="54.4951">eliminarPublicacion()</text></g><!--link View to PublicacionController--><g class="link" data-entity-1="ent0003" data-entity-2="ent0004" data-link-type="dependency" data-source-line="17" id="lnk12"><path d="M571,80.06 C571,101.28 571,131.3 571,152.64" fill="none" id="View-to-PublicacionController" style="stroke:#181818;stroke-width:1;"/><polygon fill="#181818" points="571,157.64,575,148.64,571,152.64,567,148.64,571,157.64" style="stroke:#181818;stroke-width:1;stroke-linejoin:miter;stroke-miterlimit:10;"/><text fill="#000000" font-family="sans-serif" font-size="13" lengthAdjust="spacing" textLength="203.7471" x="572" y="124.4951">eliminarPublicacion(solicitud, actor)</text></g><!--link PublicacionController to PublicacionService--><g class="link" data-entity-1="ent0004" data-entity-2="ent0005" data-link-type="dependency" data-source-line="18" id="lnk13"><path d="M536.86,196.01 C511.03,209.63 480,226 480,226 C480,226 480,244 480,244 C480,244 482.8598,255.4087 486.2498,268.9987" fill="none" id="PublicacionController-to-PublicacionService" style="stroke:#181818;stroke-width:1;"/><polygon fill="#181818" points="487.46,273.85,489.1628,264.1495,486.2498,268.9987,481.4006,266.0857,487.46,273.85" style="stroke:#181818;stroke-width:1;stroke-linejoin:miter;stroke-miterlimit:10;"/><text fill="#000000" font-family="sans-serif" font-size="13" lengthAdjust="spacing" textLength="134.3608" x="481" y="240.4951">retirar(id, motivo, actor)</text></g><!--link PublicacionController to SesionService--><g class="link" data-entity-1="ent0004" data-entity-2="ent0006" data-link-type="dependency" data-source-line="19" id="lnk14"><path d="M589.52,196.15 C603.4,209.74 620,226 620,226 C620,226 634.2584,250.1142 645.7984,269.6642" fill="none" id="PublicacionController-to-SesionService" style="stroke:#181818;stroke-width:1;"/><polygon fill="#181818" points="648.34,273.97,647.2097,264.1862,645.7984,269.6642,640.3204,268.2528,648.34,273.97" style="stroke:#181818;stroke-width:1;stroke-linejoin:miter;stroke-miterlimit:10;"/><text fill="#000000" font-family="sans-serif" font-size="13" lengthAdjust="spacing" textLength="209.5806" x="631" y="240.4951">obtenerSesionActual(authentication)</text></g><!--link PublicacionService to PublicacionRepository--><g class="link" data-entity-1="ent0005" data-entity-2="ent0008" data-link-type="dependency" data-source-line="20" id="lnk15"><path d="M495.55,312.03 C499.4,331.58 505,360 505,360 C505,360 538.9112,385.6251 564.9612,405.3151" fill="none" id="PublicacionService-to-PublicacionRepository" style="stroke:#181818;stroke-width:1;"/><polygon fill="#181818" points="568.95,408.33,564.1822,399.7121,564.9612,405.3151,559.3583,406.0941,568.95,408.33" style="stroke:#181818;stroke-width:1;stroke-linejoin:miter;stroke-miterlimit:10;"/><text fill="#000000" font-family="sans-serif" font-size="13" lengthAdjust="spacing" textLength="129.3398" x="506" y="356.4951">obtenerActivaPorId(id)</text></g><!--link PublicacionService to PublicacionRepository--><g class="link" data-entity-1="ent0005" data-entity-2="ent0008" data-link-type="dependency" data-source-line="22" id="lnk17"><path d="M547.53,312.01 C589.53,325.63 640,342 640,342 C640,342 640,360 640,360 C640,360 622.6463,384.5572 608.7263,404.2472" fill="none" id="PublicacionService-to-PublicacionRepository-1" style="stroke:#181818;stroke-width:1;"/><polygon fill="#181818" points="605.84,408.33,614.3016,403.2901,608.7263,404.2472,607.7692,398.6719,605.84,408.33" style="stroke:#181818;stroke-width:1;stroke-linejoin:miter;stroke-miterlimit:10;"/><text fill="#000000" font-family="sans-serif" font-size="13" lengthAdjust="spacing" textLength="189.2871" x="641" y="356.4951">retirar(publicacion, motivo, actor)</text></g><!--link PublicacionService to PoliticaPublicacion--><g class="link" data-entity-1="ent0005" data-entity-2="ent0007" data-link-type="dependency" data-source-line="21" id="lnk16"><path d="M422.91,309.72 C361.37,323.72 281,342 281,342 C281,342 281,360 281,360 C281,360 330.838,386.3063 368.148,405.9963" fill="none" id="PublicacionService-to-PoliticaPublicacion" style="stroke:#181818;stroke-width:1;"/><polygon fill="#181818" points="372.57,408.33,366.4773,400.5918,368.148,405.9963,362.7435,407.667,372.57,408.33" style="stroke:#181818;stroke-width:1;stroke-linejoin:miter;stroke-miterlimit:10;"/><text fill="#000000" font-family="sans-serif" font-size="13" lengthAdjust="spacing" textLength="182.0825" x="282" y="356.4951">exigirAutoria(actor, publicacion)</text></g><!--link PublicacionRepository to Publicacion--><g class="link" data-entity-1="ent0008" data-entity-2="ent0009" data-link-type="association" data-source-line="23" id="lnk18"><path d="M593,446.55 C593,468.12 593,504.02 593,525.7" fill="none" id="PublicacionRepository-Publicacion" style="stroke:#181818;stroke-width:1;"/></g><!--link View to EstadoSalida--><g class="link" data-entity-1="ent0003" data-entity-2="ent0010" data-link-type="dependency" data-source-line="25" id="lnk19"><path d="M650.92,80.01 C711.36,93.63 784,110 784,110 C784,110 883.3963,137.1038 955.0463,156.6538" fill="none" id="View-to-EstadoSalida" style="stroke:#181818;stroke-width:1;stroke-dasharray:7,7;"/><polygon fill="#181818" points="959.87,157.97,952.2403,151.742,955.0463,156.6538,950.1345,159.4598,959.87,157.97" style="stroke:#181818;stroke-width:1;stroke-linejoin:miter;stroke-miterlimit:10;"/><text fill="#000000" font-family="sans-serif" font-size="13" lengthAdjust="spacing" textLength="130.7935" x="849" y="124.4951">continuarNavegacion()</text></g><!--link PoliticaPublicacion to GMN20--><g class="link" data-entity-1="ent0007" data-entity-2="ent0021" data-link-type="association" data-source-line="28" id="lnk22"><path d="M433.6,408.39 C465.14,385.73 513.5,351 513.5,351 C513.5,351 868.5,351 868.5,351 C868.5,351 906.24,370.58 943.55,389.92" fill="none" id="PoliticaPublicacion-GMN20" style="stroke:#181818;stroke-width:1;stroke-dasharray:7,7;"/></g><?plantuml-src bLJ1RjD04BtlLup29PMQ72fQKHygES6L8a69OkYrcjXJTzJrhhMx3WJ4lpCs3R5JXu1FzkwRDpFlFTa_iwdGOGcQ3OLjHL1PlMq-b7AK1JI59dWpVv_CuaiOHHyN3yilim-BUJnVVBfxY6UBPFKv7W5wI7p0t2OcECnHLPWzOq50caisw9RrMdE66LlJW4S3v-Ep4VnG84-dyzN5TN9xFOY_P_hQTcvU3klMb-lywXrqu7ChercjoPt6fkGsdD4HO4h-96PfDGTXwv0U8cyluldRfDjsHPNr7ApRdiOgzVE8GsdNeYJTcPHsN4fHivYaUfx1n4rkMZ4Z6BH7DNSmoGKrgEjmcHSbCWvrVWwOoMvdQh0O9dtQ5taZKI6mGpTc8IXju8tz1wAUHH7OTI13xlTfd8KQzHZhy4IcyIZ8OO_ifUvmfBqzVnY5YpUuj6wHou37ILwdGSJwnWMxk1P2nd6xqZbKUyJ_ZhGJgaFnDyNsfKBQJrRhytHwqqjB19bepAP6TuSRAdQXKCO60iV5Km3xE1Zy5VdA6ezhReXog8tSH0hRrRyZU3PGaVFiPGCm39KZBzwWcwebkPAb0PQLPdIoPQ4bnqr9QND-52QdDCfmrkMIlVOFavE63BsL5wYzdIeoEJHp_W80?></g></svg>