<svg xmlns="http://www.w3.org/2000/svg" xmlns:xlink="http://www.w3.org/1999/xlink" contentStyleType="text/css" data-diagram-type="DESCRIPTION" height="479px" preserveAspectRatio="none" style="width:1163px;height:479px;background:#FFFFFF;" version="1.1" viewBox="0 0 1163 479" width="1163px" zoomAndPan="magnify"><?plantuml 1.2026.6?><defs/><g><!--cluster eliminarPublicacion--><g class="cluster" data-qualified-name="eliminarPublicacion" data-source-line="4" id="ent0002"><path d="M235.5,6 L378.0859,6 A3.75,3.75 0 0 1 380.5859,8.5 L387.5859,29.6094 L883.5,29.6094 A2.5,2.5 0 0 1 886,32.1094 L886,461.5 A2.5,2.5 0 0 1 883.5,464 L235.5,464 A2.5,2.5 0 0 1 233,461.5 L233,8.5 A2.5,2.5 0 0 1 235.5,6" fill="none" style="stroke:#000000;stroke-width:1.5;"/><line style="stroke:#000000;stroke-width:1.5;" x1="233" x2="387.5859" y1="29.6094" y2="29.6094"/><text fill="#000000" font-family="sans-serif" font-size="14" font-weight="700" lengthAdjust="spacing" textLength="141.5859" x="237" y="22.5332">eliminarPublicacion()</text></g><!--entity View--><g class="entity" data-qualified-name="eliminarPublicacion.View" data-source-line="5" id="ent0003"><rect fill="#629EF9" height="37.6094" rx="2.5" ry="2.5" style="stroke:#181818;stroke-width:0.5;" width="170.958" x="422.5" y="42"/><text fill="#000000" font-family="sans-serif" font-size="14" lengthAdjust="spacing" textLength="150.958" x="432.5" y="66.5332">eliminarPublicacionView</text></g><!--entity PublicacionController--><g class="entity" data-qualified-name="eliminarPublicacion.PublicacionController" data-source-line="6" id="ent0004"><rect fill="#B5BD68" height="37.6094" rx="2.5" ry="2.5" style="stroke:#181818;stroke-width:0.5;" width="152.2891" x="432" y="158"/><text fill="#000000" font-family="sans-serif" font-size="14" lengthAdjust="spacing" textLength="132.2891" x="442" y="182.5332">PublicacionController</text></g><!--entity PoliticaPublicacion--><g class="entity" data-qualified-name="eliminarPublicacion.PoliticaPublicacion" data-source-line="7" id="ent0005"><rect fill="#B5BD68" height="37.6094" rx="2.5" ry="2.5" style="stroke:#181818;stroke-width:0.5;" width="136.7305" x="338.5" y="292.5"/><text fill="#000000" font-family="sans-serif" font-size="14" lengthAdjust="spacing" textLength="116.7305" x="348.5" y="317.0332">PoliticaPublicacion</text></g><!--entity PublicacionRepository--><g class="entity" data-qualified-name="eliminarPublicacion.PublicacionRepository" data-source-line="8" id="ent0006"><rect fill="#F2AC4E" height="37.6094" rx="2.5" ry="2.5" style="stroke:#181818;stroke-width:0.5;" width="158.5166" x="513.5" y="292.5"/><text fill="#000000" font-family="sans-serif" font-size="14" lengthAdjust="spacing" textLength="138.5166" x="523.5" y="317.0332">PublicacionRepository</text></g><!--entity Publicacion--><g class="entity" data-qualified-name="eliminarPublicacion.Publicacion" data-source-line="9" id="ent0007"><rect fill="#F2AC4E" height="37.6094" rx="2.5" ry="2.5" style="stroke:#181818;stroke-width:0.5;" width="91.5996" x="547" y="410"/><text fill="#000000" font-family="sans-serif" font-size="14" lengthAdjust="spacing" textLength="71.5996" x="557" y="434.5332">Publicacion</text></g><!--entity EstadoEntrada--><g class="entity" data-qualified-name="EstadoEntrada" data-source-line="3" id="ent0001"><rect fill="#CDEBA5" height="37.6094" rx="2.5" ry="2.5" style="stroke:#181818;stroke-width:0.5;" width="209.8271" x="7" y="42"/><text fill="#000000" font-family="sans-serif" font-size="14" lengthAdjust="spacing" textLength="189.8271" x="17" y="66.5332">:MI_PUBLICACION_ABIERTA</text></g><!--entity EstadoSalida--><g class="entity" data-qualified-name="EstadoSalida" data-source-line="12" id="ent0008"><rect fill="#CDEBA5" height="37.6094" rx="2.5" ry="2.5" style="stroke:#181818;stroke-width:0.5;" width="247.1787" x="902.5" y="158"/><text fill="#000000" font-family="sans-serif" font-size="14" lengthAdjust="spacing" textLength="227.1787" x="912.5" y="182.5332">:MIS_PUBLICACIONES_ABIERTAS</text></g><g class="entity" data-qualified-name="GMN16" data-source-line="24" id="ent0017"><path d="M902,274 L902,349.4063 L1129.6226,349.4063 L1129.6226,284 L1119.6226,274 L902,274" fill="#FEFFDD" style="stroke:#181818;stroke-width:0.5;"/><path d="M1119.6226,274 L1119.6226,284 L1129.6226,284 L1119.6226,274" fill="#FEFFDD" style="stroke:#181818;stroke-width:1;"/><text fill="#000000" font-family="sans-serif" font-size="13" lengthAdjust="spacing" textLength="134.4243" x="908" y="292.4951">Responsabilidad unica:</text><text fill="#000000" font-family="sans-serif" font-size="13" lengthAdjust="spacing" textLength="191.4707" x="908" y="308.8467">autoriza sin persistir ni presentar.</text><text fill="#000000" font-family="sans-serif" font-size="13" lengthAdjust="spacing" textLength="206.6226" x="908" y="325.1982">Permite ampliar reglas sin modificar</text><text fill="#000000" font-family="sans-serif" font-size="13" lengthAdjust="spacing" textLength="185.7324" x="908" y="341.5498">la coordinacion del caso de uso.</text></g><!--link EstadoEntrada to View--><g class="link" data-entity-1="ent0001" data-entity-2="ent0003" data-link-type="dependency" data-source-line="14" id="lnk9"><path d="M217.08,61 C281.24,61 357.23,61 417.45,61" fill="none" id="EstadoEntrada-to-View" style="stroke:#181818;stroke-width:1;"/><polygon fill="#181818" points="422.45,61,413.45,57,417.45,61,413.45,65,422.45,61" style="stroke:#181818;stroke-width:1;stroke-linejoin:miter;stroke-miterlimit:10;"/><text fill="#000000" font-family="sans-serif" font-size="13" lengthAdjust="spacing" textLength="120.6563" x="259.75" y="54.4951">eliminarPublicacion()</text></g><!--link View to PublicacionController--><g class="link" data-entity-1="ent0003" data-entity-2="ent0004" data-link-type="dependency" data-source-line="15" id="lnk10"><path d="M508,80.06 C508,101.28 508,131.3 508,152.64" fill="none" id="View-to-PublicacionController" style="stroke:#181818;stroke-width:1;"/><polygon fill="#181818" points="508,157.64,512,148.64,508,152.64,504,148.64,508,157.64" style="stroke:#181818;stroke-width:1;stroke-linejoin:miter;stroke-miterlimit:10;"/><text fill="#000000" font-family="sans-serif" font-size="13" lengthAdjust="spacing" textLength="203.7471" x="509" y="124.4951">eliminarPublicacion(solicitud, actor)</text></g><!--link PublicacionController to PublicacionRepository--><g class="link" data-entity-1="ent0004" data-entity-2="ent0006" data-link-type="dependency" data-source-line="16" id="lnk11"><path d="M506.87,196.15 C506.02,209.74 505,226 505,226 C505,226 505,244 505,244 C505,244 538.9112,269.6251 564.9612,289.3151" fill="none" id="PublicacionController-to-PublicacionRepository" style="stroke:#181818;stroke-width:1;"/><polygon fill="#181818" points="568.95,292.33,564.1822,283.7121,564.9612,289.3151,559.3583,290.0941,568.95,292.33" style="stroke:#181818;stroke-width:1;stroke-linejoin:miter;stroke-miterlimit:10;"/><text fill="#000000" font-family="sans-serif" font-size="13" lengthAdjust="spacing" textLength="129.3398" x="506" y="240.4951">obtenerActivaPorId(id)</text></g><!--link PublicacionController to PublicacionRepository--><g class="link" data-entity-1="ent0004" data-entity-2="ent0006" data-link-type="dependency" data-source-line="18" id="lnk13"><path d="M557.53,196.01 C594.98,209.63 640,226 640,226 C640,226 640,244 640,244 C640,244 622.6463,268.5572 608.7263,288.2472" fill="none" id="PublicacionController-to-PublicacionRepository-1" style="stroke:#181818;stroke-width:1;"/><polygon fill="#181818" points="605.84,292.33,614.3016,287.2901,608.7263,288.2472,607.7692,282.6719,605.84,292.33" style="stroke:#181818;stroke-width:1;stroke-linejoin:miter;stroke-miterlimit:10;"/><text fill="#000000" font-family="sans-serif" font-size="13" lengthAdjust="spacing" textLength="189.2871" x="641" y="240.4951">retirar(publicacion, motivo, actor)</text></g><!--link PublicacionController to PoliticaPublicacion--><g class="link" data-entity-1="ent0004" data-entity-2="ent0005" data-link-type="dependency" data-source-line="17" id="lnk12"><path d="M434.83,196.01 C379.5,209.63 313,226 313,226 C313,226 313,244 313,244 C313,244 349.3983,269.7522 377.2283,289.4422" fill="none" id="PublicacionController-to-PoliticaPublicacion" style="stroke:#181818;stroke-width:1;"/><polygon fill="#181818" points="381.31,292.33,376.2732,283.8665,377.2283,289.4422,371.6526,290.3972,381.31,292.33" style="stroke:#181818;stroke-width:1;stroke-linejoin:miter;stroke-miterlimit:10;"/><text fill="#000000" font-family="sans-serif" font-size="13" lengthAdjust="spacing" textLength="182.0825" x="314" y="240.4951">exigirAutoria(actor, publicacion)</text></g><!--link PublicacionRepository to Publicacion--><g class="link" data-entity-1="ent0006" data-entity-2="ent0007" data-link-type="association" data-source-line="19" id="lnk14"><path d="M593,330.55 C593,352.12 593,388.02 593,409.7" fill="none" id="PublicacionRepository-Publicacion" style="stroke:#181818;stroke-width:1;"/></g><!--link View to EstadoSalida--><g class="link" data-entity-1="ent0003" data-entity-2="ent0008" data-link-type="dependency" data-source-line="21" id="lnk15"><path d="M589.79,80 C686.73,101.33 842.3968,135.5954 939.3268,156.9254" fill="none" id="View-to-EstadoSalida" style="stroke:#181818;stroke-width:1;stroke-dasharray:7,7;"/><polygon fill="#181818" points="944.21,158,936.28,152.1592,939.3268,156.9254,934.5606,159.9723,944.21,158" style="stroke:#181818;stroke-width:1;stroke-linejoin:miter;stroke-miterlimit:10;"/><text fill="#000000" font-family="sans-serif" font-size="13" lengthAdjust="spacing" textLength="130.7935" x="799" y="124.4951">continuarNavegacion()</text></g><!--link PoliticaPublicacion to GMN16--><g class="link" data-entity-1="ent0005" data-entity-2="ent0017" data-link-type="association" data-source-line="24" id="lnk18"><path d="M433.6,292.39 C465.14,269.73 513.5,235 513.5,235 C513.5,235 868.5,235 868.5,235 C868.5,235 906.24,254.58 943.55,273.92" fill="none" id="PoliticaPublicacion-GMN16" style="stroke:#181818;stroke-width:1;stroke-dasharray:7,7;"/></g><?plantuml-src dLF1Qjj04BtlLmpknG7RXz24neU0x2fWQ5DZfxs6aNQY3bdjYjbLMhVqtpiI1Ckfqa9rMcdVU_lUcrLyPD-WO0sEFQL3Gz04T-XUZ14g4_hA4RnPlyzNsGLCbXytzzlFgm-RTRRUVBgzprQRV7UNJG0Zv36X3RbFWXPDW-KZLWJak6QFicqBnoMM77m7denydvvDuAS1VGOdNvvVvJTNe_WlJD_waxl5IrvnKTZBTp20huDQ2ywHl8ODZfE21voNo9lpRFqs7whkg0cHKv33lx76_7gbrFsmrNp_tEj-KEmU7MklvgHccClyki-_XD56JRS7SwkeqIh6QL6RA3crTWPOQhOpCqg6-QdiiOibX2AH9ydAn4-u3RAnKxP_rVcpVJNtdIkMh5LDncdlPGRD4V4VneGI2yfqe3A3EgZDC9RsI5NHqs7srIuMroS3MaAfDjYtABVuHDNp78mFYK2u-feWF8pUjHt59lY81NT25bglEqk3VVeV294zD2IHeoO0pz08HV89PM6s93Nh0LWtZb4qPUNqwdIKEbX-K2Kn3jLS4AlZxlz3ImvAZ44NqCQmCEGjT3v_0m00?></g></svg>