<svg xmlns="http://www.w3.org/2000/svg" xmlns:xlink="http://www.w3.org/1999/xlink" contentStyleType="text/css" data-diagram-type="DESCRIPTION" height="434px" preserveAspectRatio="none" style="width:1649px;height:434px;background:#FFFFFF;" version="1.1" viewBox="0 0 1649 434" width="1649px" zoomAndPan="magnify"><defs/><g><!--cluster eliminarPublicacion--><g class="cluster" data-entity="eliminarPublicacion" data-source-line="4" data-uid="ent0003" id="cluster_eliminarPublicacion"><path d="M235.5,6 L378.0859,6 A3.75,3.75 0 0 1 380.5859,8.5 L387.5859,29.6094 L1132.5,29.6094 A2.5,2.5 0 0 1 1135,32.1094 L1135,424.5 A2.5,2.5 0 0 1 1132.5,427 L235.5,427 A2.5,2.5 0 0 1 233,424.5 L233,8.5 A2.5,2.5 0 0 1 235.5,6" fill="none" style="stroke:#000000;stroke-width:1.5;"/><line style="stroke:#000000;stroke-width:1.5;" x1="233" x2="387.5859" y1="29.6094" y2="29.6094"/><text fill="#000000" font-family="sans-serif" font-size="14" font-weight="bold" lengthAdjust="spacing" textLength="141.5859" x="237" y="22.5332">eliminarPublicacion()</text></g><!--entity EliminarPublicacionView--><g class="entity" data-entity="EliminarPublicacionView" data-source-line="5" data-uid="ent0004" id="entity_EliminarPublicacionView"><rect fill="#629EF9" height="37.6094" rx="2.5" ry="2.5" style="stroke:#181818;stroke-width:0.5;" width="172.5098" x="642.5" y="42"/><text fill="#000000" font-family="sans-serif" font-size="14" lengthAdjust="spacing" textLength="152.5098" x="652.5" y="66.5332">EliminarPublicacionView</text></g><!--entity PublicacionController--><g class="entity" data-entity="PublicacionController" data-source-line="6" data-uid="ent0005" id="entity_PublicacionController"><rect fill="#B5BD68" height="37.6094" rx="2.5" ry="2.5" style="stroke:#181818;stroke-width:0.5;" width="152.2891" x="570" y="158"/><text fill="#000000" font-family="sans-serif" font-size="14" lengthAdjust="spacing" textLength="132.2891" x="580" y="182.5332">PublicacionController</text></g><!--entity PublicacionRepository--><g class="entity" data-entity="PublicacionRepository" data-source-line="7" data-uid="ent0006" id="entity_PublicacionRepository"><rect fill="#F2AC4E" height="37.6094" rx="2.5" ry="2.5" style="stroke:#181818;stroke-width:0.5;" width="158.5166" x="565.5" y="274"/><text fill="#000000" font-family="sans-serif" font-size="14" lengthAdjust="spacing" textLength="138.5166" x="575.5" y="298.5332">PublicacionRepository</text></g><!--entity Publicacion--><g class="entity" data-entity="Publicacion" data-source-line="8" data-uid="ent0007" id="entity_Publicacion"><rect fill="#F2AC4E" height="37.6094" rx="2.5" ry="2.5" style="stroke:#181818;stroke-width:0.5;" width="91.5996" x="599" y="373"/><text fill="#000000" font-family="sans-serif" font-size="14" lengthAdjust="spacing" textLength="71.5996" x="609" y="397.5332">Publicacion</text></g><!--entity EstadoEntrada--><g class="entity" data-entity="EstadoEntrada" data-source-line="3" data-uid="ent0002" id="entity_EstadoEntrada"><rect fill="#CDEBA5" height="37.6094" rx="2.5" ry="2.5" style="stroke:#181818;stroke-width:0.5;" width="209.8271" x="7" y="42"/><text fill="#000000" font-family="sans-serif" font-size="14" lengthAdjust="spacing" textLength="189.8271" x="17" y="66.5332">:MI_PUBLICACION_ABIERTA</text></g><!--entity EstadoSalidaExitosa--><g class="entity" data-entity="EstadoSalidaExitosa" data-source-line="11" data-uid="ent0008" id="entity_EstadoSalidaExitosa"><rect fill="#CDEBA5" height="37.6094" rx="2.5" ry="2.5" style="stroke:#181818;stroke-width:0.5;" width="247.1787" x="1151.5" y="158"/><text fill="#000000" font-family="sans-serif" font-size="14" lengthAdjust="spacing" textLength="227.1787" x="1161.5" y="182.5332">:MIS_PUBLICACIONES_ABIERTAS</text></g><!--entity EstadoSalidaCancelada--><g class="entity" data-entity="EstadoSalidaCancelada" data-source-line="12" data-uid="ent0009" id="entity_EstadoSalidaCancelada"><rect fill="#CDEBA5" height="37.6094" rx="2.5" ry="2.5" style="stroke:#181818;stroke-width:0.5;" width="209.8271" x="1434" y="158"/><text fill="#000000" font-family="sans-serif" font-size="14" lengthAdjust="spacing" textLength="189.8271" x="1444" y="182.5332">:MI_PUBLICACION_ABIERTA</text></g><!--link EstadoEntrada to EliminarPublicacionView--><g class="link" data-entity-1="EstadoEntrada" data-entity-2="EliminarPublicacionView" data-source-line="15" data-uid="lnk10" id="link_EstadoEntrada_EliminarPublicacionView"><path d="M217.02,61 C336.9,61 524.79,61 636.39,61" fill="none" id="EstadoEntrada-to-EliminarPublicacionView" style="stroke:#181818;stroke-width:1;"/><polygon fill="#181818" points="642.39,61,633.39,57,637.39,61,633.39,65,642.39,61" style="stroke:#181818;stroke-width:1;"/><text fill="#000000" font-family="sans-serif" font-size="13" lengthAdjust="spacing" textLength="120.6563" x="369.75" y="54.4951">eliminarPublicacion()</text></g><!--link EliminarPublicacionView to PublicacionController--><g class="link" data-entity-1="EliminarPublicacionView" data-entity-2="PublicacionController" data-source-line="17" data-uid="lnk11" id="link_EliminarPublicacionView_PublicacionController"><path d="M642.36,71.28 C512.12,85.24 281,110 281,110 C281,110 281,128 281,128 C281,128 457.0112,151.1475 563.9812,165.2175" fill="none" id="EliminarPublicacionView-to-PublicacionController" style="stroke:#181818;stroke-width:1;"/><polygon fill="#181818" points="569.93,166,561.5285,160.8605,564.9727,165.348,560.4852,168.7922,569.93,166" style="stroke:#181818;stroke-width:1;"/><text fill="#000000" font-family="sans-serif" font-size="13" lengthAdjust="spacing" textLength="139.4263" x="282" y="124.4951">solicitarConfirmacion(id)</text></g><!--link PublicacionController to EliminarPublicacionView--><g class="link" data-entity-1="PublicacionController" data-entity-2="EliminarPublicacionView" data-source-line="18" data-uid="lnk12" id="link_PublicacionController_EliminarPublicacionView"><path d="M722.34,163.45 C808.86,149.23 938,128 938,128 C938,128 938,110 938,110 C938,110 872.5677,94.9731 813.2677,81.3531" fill="none" id="PublicacionController-to-EliminarPublicacionView" style="stroke:#181818;stroke-width:1;"/><polygon fill="#181818" points="807.42,80.01,815.2962,85.9232,812.2931,81.1293,817.087,78.1262,807.42,80.01" style="stroke:#181818;stroke-width:1;"/><text fill="#000000" font-family="sans-serif" font-size="13" lengthAdjust="spacing" textLength="140.1626" x="939" y="124.4951">presentarConfirmacion()</text></g><!--link EliminarPublicacionView to PublicacionController--><g class="link" data-entity-1="EliminarPublicacionView" data-entity-2="PublicacionController" data-source-line="19" data-uid="lnk13" id="link_EliminarPublicacionView_PublicacionController"><path d="M642.31,77.58 C564.35,91.6 462,110 462,110 C462,110 462,128 462,128 C462,128 518.9443,142.8555 571.1543,156.4755" fill="none" id="EliminarPublicacionView-to-PublicacionController-1" style="stroke:#181818;stroke-width:1;"/><polygon fill="#181818" points="576.96,157.99,569.2611,151.8477,572.1219,156.7279,567.2418,159.5887,576.96,157.99" style="stroke:#181818;stroke-width:1;"/><text fill="#000000" font-family="sans-serif" font-size="13" lengthAdjust="spacing" textLength="139.4263" x="463" y="124.4951">confirmarEliminacion(id)</text></g><!--link EliminarPublicacionView to PublicacionController--><g class="link" data-entity-1="EliminarPublicacionView" data-entity-2="PublicacionController" data-source-line="20" data-uid="lnk14" id="link_EliminarPublicacionView_PublicacionController"><path d="M696.49,80.15 C672.13,93.74 643,110 643,110 C643,110 643,128 643,128 C643,128 643.6455,138.2717 644.4955,151.8617" fill="none" id="EliminarPublicacionView-to-PublicacionController-2" style="stroke:#181818;stroke-width:1;"/><polygon fill="#181818" points="644.87,157.85,648.3004,148.6179,644.5579,152.8598,640.316,149.1172,644.87,157.85" style="stroke:#181818;stroke-width:1;"/><text fill="#000000" font-family="sans-serif" font-size="13" lengthAdjust="spacing" textLength="124.2681" x="644" y="124.4951">cancelarEliminacion()</text></g><!--link EliminarPublicacionView to PublicacionController--><g class="link" data-entity-1="EliminarPublicacionView" data-entity-2="PublicacionController" data-source-line="21" data-uid="lnk15" id="link_EliminarPublicacionView_PublicacionController"><path d="M745.63,80.15 C758.09,93.74 773,110 773,110 C773,110 773,128 773,128 C773,128 735.3026,142.2489 699.2626,155.8689" fill="none" id="EliminarPublicacionView-to-PublicacionController-3" style="stroke:#181818;stroke-width:1;"/><polygon fill="#181818" points="693.65,157.99,703.4829,158.5501,698.3272,156.2224,700.6548,151.0667,693.65,157.99" style="stroke:#181818;stroke-width:1;"/><text fill="#000000" font-family="sans-serif" font-size="13" lengthAdjust="spacing" textLength="123.5444" x="774" y="124.4951">validarEliminacion(id)</text></g><!--link PublicacionController to PublicacionRepository--><g class="link" data-entity-1="PublicacionController" data-entity-2="PublicacionRepository" data-source-line="22" data-uid="lnk16" id="link_PublicacionController_PublicacionRepository"><path d="M619.16,196.15 C599.05,209.74 575,226 575,226 C575,226 575,244 575,244 C575,244 593.7607,256.8681 613.5907,270.4581" fill="none" id="PublicacionController-to-PublicacionRepository" style="stroke:#181818;stroke-width:1;"/><polygon fill="#181818" points="618.54,273.85,613.3773,265.4627,614.4156,271.0234,608.8549,272.0617,618.54,273.85" style="stroke:#181818;stroke-width:1;"/><text fill="#000000" font-family="sans-serif" font-size="13" lengthAdjust="spacing" textLength="93.939" x="576" y="240.4951">obtenerPorId(id)</text></g><!--link PublicacionController to PublicacionRepository--><g class="link" data-entity-1="PublicacionController" data-entity-2="PublicacionRepository" data-source-line="23" data-uid="lnk17" id="link_PublicacionController_PublicacionRepository"><path d="M656.59,196.15 C664.51,209.74 674,226 674,226 C674,226 674,244 674,244 C674,244 667.2853,255.1261 659.0653,268.7161" fill="none" id="PublicacionController-to-PublicacionRepository-1" style="stroke:#181818;stroke-width:1;"/><polygon fill="#181818" points="655.96,273.85,664.0405,268.2193,658.5477,269.5717,657.1953,264.0789,655.96,273.85" style="stroke:#181818;stroke-width:1;"/><text fill="#000000" font-family="sans-serif" font-size="13" lengthAdjust="spacing" textLength="64.2891" x="675" y="240.4951">eliminar(id)</text></g><!--link PublicacionRepository to Publicacion--><g class="link" data-entity-1="PublicacionRepository" data-entity-2="Publicacion" data-source-line="24" data-uid="lnk18" id="link_PublicacionRepository_Publicacion"><path d="M645,312.24 C645,329.59 645,355.52 645,372.84" fill="none" id="PublicacionRepository-Publicacion" style="stroke:#181818;stroke-width:1;"/></g><!--link EliminarPublicacionView to EstadoSalidaExitosa--><g class="link" data-entity-1="EliminarPublicacionView" data-entity-2="EstadoSalidaExitosa" data-source-line="25" data-uid="lnk19" id="link_EliminarPublicacionView_EstadoSalidaExitosa"><path d="M815.9,73.62 C922.15,87.83 1088,110 1088,110 C1088,110 1162.8723,136.4224 1218.2423,155.9724" fill="none" id="EliminarPublicacionView-to-EstadoSalidaExitosa" style="stroke:#181818;stroke-width:1;stroke-dasharray:7,7;"/><polygon fill="#181818" points="1223.9,157.97,1216.7452,151.2018,1219.1853,156.3053,1214.0817,158.7454,1223.9,157.97" style="stroke:#181818;stroke-width:1;"/><text fill="#000000" font-family="sans-serif" font-size="13" lengthAdjust="spacing" textLength="130.7871" x="1139" y="124.4951">publicacionEliminada()</text></g><!--link EliminarPublicacionView to EstadoSalidaCancelada--><g class="link" data-entity-1="EliminarPublicacionView" data-entity-2="EstadoSalidaCancelada" data-source-line="26" data-uid="lnk20" id="link_EliminarPublicacionView_EstadoSalidaCancelada"><path d="M815.69,69.58 C970.39,83.11 1278,110 1278,110 C1278,110 1384.5832,136.9485 1461.8632,156.4985" fill="none" id="EliminarPublicacionView-to-EstadoSalidaCancelada" style="stroke:#181818;stroke-width:1;stroke-dasharray:7,7;"/><polygon fill="#181818" points="1467.68,157.97,1459.9359,151.8849,1462.8327,156.7437,1457.9739,159.6406,1467.68,157.97" style="stroke:#181818;stroke-width:1;"/><text fill="#000000" font-family="sans-serif" font-size="13" lengthAdjust="spacing" textLength="135.8462" x="1348" y="124.4951">eliminacionCancelada()</text></g><!--SRC=[dP9BRy8m48Jl_XMhz58EuO0AAZaWXTH8aVf0fFIADh6BB8mTEUa3LVtlTNY6a50fkMKrEnv_dcmbL8e6ro25ulacvP1gkIb-234yoL4j9OURu86E_JuutbEucCx7Zs7W1-7Byy8VXtJswZk06T0iHwQfoWqo92acArnou5AiXK8p_OYbI30HMXLYfsP-st7WXu3zIYSFUaCw6GAzbBy9_bLLn_sO3UwXf0gq3QIbvAQgdVJyu8wMjJEUwapascp-rvBV9a1HcH2D3eoY4gG8fM18l-rP6RRZlBC8K2LS5hm9EUCFhd57JTGygALlBUhru39hLWlLWqpRgSZHsE6xCEkTcM0TKhi0xhLSgU4PLrMpJdEmvbp9ti7iTu-nsdZjC9zPjJBwtBxQHQHcKhNjz437ELVSJBK9MJk7GmEgsoUDtJuhVDDrkzrHNQtjOvw4-rs6Lx1LVOxTFeRTtkumBVhw1m00]--></g></svg>