<svg xmlns="http://www.w3.org/2000/svg" xmlns:xlink="http://www.w3.org/1999/xlink" contentStyleType="text/css" data-diagram-type="DESCRIPTION" height="447px" preserveAspectRatio="none" style="width:1605px;height:447px;background:#FFFFFF;" version="1.1" viewBox="0 0 1605 447" width="1605px" zoomAndPan="magnify"><?plantuml 1.2026.5?><defs/><g><!--cluster eliminarPublicacion--><g class="cluster" data-qualified-name="eliminarPublicacion" data-source-line="4" id="ent0002"><path d="M235.5,6 L378.0859,6 A3.75,3.75 0 0 1 380.5859,8.5 L387.5859,29.6094 L1080.5,29.6094 A2.5,2.5 0 0 1 1083,32.1094 L1083,429.5 A2.5,2.5 0 0 1 1080.5,432 L235.5,432 A2.5,2.5 0 0 1 233,429.5 L233,8.5 A2.5,2.5 0 0 1 235.5,6" fill="none" style="stroke:#000000;stroke-width:1.5;"/><line style="stroke:#000000;stroke-width:1.5;" x1="233" x2="387.5859" y1="29.6094" y2="29.6094"/><text fill="#000000" font-family="sans-serif" font-size="14" font-weight="700" lengthAdjust="spacing" textLength="141.5859" x="237" y="22.5332">eliminarPublicacion()</text></g><!--entity EliminarPublicacionView--><g class="entity" data-qualified-name="eliminarPublicacion.EliminarPublicacionView" data-source-line="5" id="ent0003"><rect fill="#629EF9" height="37.6094" rx="2.5" ry="2.5" style="stroke:#181818;stroke-width:0.5;" width="172.5098" x="616.5" y="42"/><text fill="#000000" font-family="sans-serif" font-size="14" lengthAdjust="spacing" textLength="152.5098" x="626.5" y="66.5332">EliminarPublicacionView</text></g><!--entity PublicacionController--><g class="entity" data-qualified-name="eliminarPublicacion.PublicacionController" data-source-line="6" id="ent0004"><rect fill="#B5BD68" height="37.6094" rx="2.5" ry="2.5" style="stroke:#181818;stroke-width:0.5;" width="152.2891" x="596" y="158"/><text fill="#000000" font-family="sans-serif" font-size="14" lengthAdjust="spacing" textLength="132.2891" x="606" y="182.5332">PublicacionController</text></g><!--entity PublicacionRepository--><g class="entity" data-qualified-name="eliminarPublicacion.PublicacionRepository" data-source-line="7" id="ent0005"><rect fill="#F2AC4E" height="37.6094" rx="2.5" ry="2.5" style="stroke:#181818;stroke-width:0.5;" width="158.5166" x="727.5" y="276.5"/><text fill="#000000" font-family="sans-serif" font-size="14" lengthAdjust="spacing" textLength="138.5166" x="737.5" y="301.0332">PublicacionRepository</text></g><!--entity Publicacion--><g class="entity" data-qualified-name="eliminarPublicacion.Publicacion" data-source-line="8" id="ent0006"><rect fill="#F2AC4E" height="37.6094" rx="2.5" ry="2.5" style="stroke:#181818;stroke-width:0.5;" width="91.5996" x="761" y="378"/><text fill="#000000" font-family="sans-serif" font-size="14" lengthAdjust="spacing" textLength="71.5996" x="771" y="402.5332">Publicacion</text></g><!--entity EstadoEntrada--><g class="entity" data-qualified-name="EstadoEntrada" data-source-line="3" id="ent0001"><rect fill="#CDEBA5" height="37.6094" rx="2.5" ry="2.5" style="stroke:#181818;stroke-width:0.5;" width="209.8271" x="7" y="42"/><text fill="#000000" font-family="sans-serif" font-size="14" lengthAdjust="spacing" textLength="189.8271" x="17" y="66.5332">:MI_PUBLICACION_ABIERTA</text></g><!--entity EstadoSalidaExitosa--><g class="entity" data-qualified-name="EstadoSalidaExitosa" data-source-line="11" id="ent0007"><rect fill="#CDEBA5" height="37.6094" rx="2.5" ry="2.5" style="stroke:#181818;stroke-width:0.5;" width="247.1787" x="1099.5" y="158"/><text fill="#000000" font-family="sans-serif" font-size="14" lengthAdjust="spacing" textLength="227.1787" x="1109.5" y="182.5332">:MIS_PUBLICACIONES_ABIERTAS</text></g><!--entity EstadoSalidaCancelada--><g class="entity" data-qualified-name="EstadoSalidaCancelada" data-source-line="12" id="ent0008"><rect fill="#CDEBA5" height="37.6094" rx="2.5" ry="2.5" style="stroke:#181818;stroke-width:0.5;" width="209.8271" x="1382" y="158"/><text fill="#000000" font-family="sans-serif" font-size="14" lengthAdjust="spacing" textLength="189.8271" x="1392" y="182.5332">:MI_PUBLICACION_ABIERTA</text></g><g class="entity" data-qualified-name="GMN18" data-source-line="26" id="ent0019"><path d="M1099.5,274 L1099.5,316.7031 L1316.3125,316.7031 L1316.3125,284 L1306.3125,274 L1099.5,274" fill="#FEFFDD" style="stroke:#181818;stroke-width:0.5;"/><path d="M1306.3125,274 L1306.3125,284 L1316.3125,284 L1306.3125,274" fill="#FEFFDD" style="stroke:#181818;stroke-width:1;"/><text fill="#000000" font-family="sans-serif" font-size="13" lengthAdjust="spacing" textLength="165.4834" x="1105.5" y="292.4951">La retirada conserva autoria,</text><text fill="#000000" font-family="sans-serif" font-size="13" lengthAdjust="spacing" textLength="195.8125" x="1105.5" y="308.8467">metadatos y relaciones historicas.</text></g><!--link EstadoEntrada to EliminarPublicacionView--><g class="link" data-entity-1="ent0001" data-entity-2="ent0003" data-link-type="dependency" data-source-line="15" id="lnk9"><path d="M217.32,61 C331.15,61 505.43,61 611.39,61" fill="none" id="EstadoEntrada-to-EliminarPublicacionView" style="stroke:#181818;stroke-width:1;"/><polygon fill="#181818" points="616.39,61,607.39,57,611.39,61,607.39,65,616.39,61" style="stroke:#181818;stroke-width:1;stroke-linejoin:miter;stroke-miterlimit:10;"/><text fill="#000000" font-family="sans-serif" font-size="13" lengthAdjust="spacing" textLength="120.6563" x="356.75" y="54.4951">eliminarPublicacion()</text></g><!--link EliminarPublicacionView to PublicacionController--><g class="link" data-entity-1="ent0003" data-entity-2="ent0004" data-link-type="dependency" data-source-line="17" id="lnk10"><path d="M616.33,71.86 C492.83,85.91 281,110 281,110 C281,110 281,128 281,128 C281,128 476.9273,152.0507 590.7173,166.0207" fill="none" id="EliminarPublicacionView-to-PublicacionController" style="stroke:#181818;stroke-width:1;"/><polygon fill="#181818" points="595.68,166.63,587.2345,161.5631,590.7173,166.0207,586.2596,169.5035,595.68,166.63" style="stroke:#181818;stroke-width:1;stroke-linejoin:miter;stroke-miterlimit:10;"/><text fill="#000000" font-family="sans-serif" font-size="13" lengthAdjust="spacing" textLength="139.4263" x="282" y="124.4951">solicitarConfirmacion(id)</text></g><!--link PublicacionController to EliminarPublicacionView--><g class="link" data-entity-1="ent0004" data-entity-2="ent0003" data-link-type="dependency" data-source-line="18" id="lnk11"><path d="M748.05,158.94 C809.56,145.15 886,128 886,128 C886,128 886,110 886,110 C886,110 828.4264,94.8985 776.4964,81.2785" fill="none" id="PublicacionController-to-EliminarPublicacionView" style="stroke:#181818;stroke-width:1;"/><polygon fill="#181818" points="771.66,80.01,779.3508,86.1624,776.4964,81.2785,781.3803,78.4241,771.66,80.01" style="stroke:#181818;stroke-width:1;stroke-linejoin:miter;stroke-miterlimit:10;"/><text fill="#000000" font-family="sans-serif" font-size="13" lengthAdjust="spacing" textLength="140.1626" x="887" y="124.4951">presentarConfirmacion()</text></g><!--link EliminarPublicacionView to PublicacionController--><g class="link" data-entity-1="ent0003" data-entity-2="ent0004" data-link-type="dependency" data-source-line="19" id="lnk12"><path d="M616.33,79.26 C547.24,93.02 462,110 462,110 C462,110 462,128 462,128 C462,128 530.9156,143.7564 591.0156,157.4864" fill="none" id="EliminarPublicacionView-to-PublicacionController-1" style="stroke:#181818;stroke-width:1;"/><polygon fill="#181818" points="595.89,158.6,588.0069,152.696,591.0156,157.4864,586.2252,160.4951,595.89,158.6" style="stroke:#181818;stroke-width:1;stroke-linejoin:miter;stroke-miterlimit:10;"/><text fill="#000000" font-family="sans-serif" font-size="13" lengthAdjust="spacing" textLength="122.0908" x="463" y="124.4951">confirmarRetirada(id)</text></g><!--link EliminarPublicacionView to PublicacionController--><g class="link" data-entity-1="ent0003" data-entity-2="ent0004" data-link-type="dependency" data-source-line="20" id="lnk13"><path d="M673.89,80.15 C652.08,93.74 626,110 626,110 C626,110 626,128 626,128 C626,128 638.1196,140.6509 651.1496,154.2409" fill="none" id="EliminarPublicacionView-to-PublicacionController-2" style="stroke:#181818;stroke-width:1;"/><polygon fill="#181818" points="654.61,157.85,651.2686,148.5853,651.1496,154.2409,645.494,154.1219,654.61,157.85" style="stroke:#181818;stroke-width:1;stroke-linejoin:miter;stroke-miterlimit:10;"/><text fill="#000000" font-family="sans-serif" font-size="13" lengthAdjust="spacing" textLength="106.9326" x="627" y="124.4951">cancelarRetirada()</text></g><!--link EliminarPublicacionView to PublicacionController--><g class="link" data-entity-1="ent0003" data-entity-2="ent0004" data-link-type="dependency" data-source-line="21" id="lnk14"><path d="M716.23,80.15 C726.14,93.74 738,110 738,110 C738,110 738,128 738,128 C738,128 719.684,141.3195 700.994,154.9095" fill="none" id="EliminarPublicacionView-to-PublicacionController-3" style="stroke:#181818;stroke-width:1;"/><polygon fill="#181818" points="696.95,157.85,706.5815,155.7923,700.994,154.9095,701.8768,149.322,696.95,157.85" style="stroke:#181818;stroke-width:1;stroke-linejoin:miter;stroke-miterlimit:10;"/><text fill="#000000" font-family="sans-serif" font-size="13" lengthAdjust="spacing" textLength="106.209" x="739" y="124.4951">validarRetirada(id)</text></g><!--link PublicacionController to PublicacionRepository--><g class="link" data-entity-1="ent0004" data-entity-2="ent0005" data-link-type="dependency" data-source-line="22" id="lnk15"><path d="M670.87,196.15 C670.02,209.74 669,226 669,226 C669,226 669,244 669,244 C669,244 713.2745,260.2019 752.8745,274.6919" fill="none" id="PublicacionController-to-PublicacionRepository" style="stroke:#181818;stroke-width:1;"/><polygon fill="#181818" points="757.57,276.41,750.4926,269.5609,752.8745,274.6919,747.7435,277.0738,757.57,276.41" style="stroke:#181818;stroke-width:1;stroke-linejoin:miter;stroke-miterlimit:10;"/><text fill="#000000" font-family="sans-serif" font-size="13" lengthAdjust="spacing" textLength="93.939" x="670" y="240.4951">obtenerPorId(id)</text></g><!--link PublicacionController to PublicacionRepository--><g class="link" data-entity-1="ent0004" data-entity-2="ent0005" data-link-type="dependency" data-source-line="23" id="lnk16"><path d="M708.02,196.01 C735.26,209.63 768,226 768,226 C768,226 782.5265,251.5047 794.0765,271.7947" fill="none" id="PublicacionController-to-PublicacionRepository-1" style="stroke:#181818;stroke-width:1;"/><polygon fill="#181818" points="796.55,276.14,795.5739,266.3396,794.0765,271.7947,788.6214,270.2973,796.55,276.14" style="stroke:#181818;stroke-width:1;stroke-linejoin:miter;stroke-miterlimit:10;"/><text fill="#000000" font-family="sans-serif" font-size="13" lengthAdjust="spacing" textLength="214.5825" x="778" y="240.4951">retirar(id, fecha, investigador, motivo)</text></g><!--link PublicacionRepository to Publicacion--><g class="link" data-entity-1="ent0005" data-entity-2="ent0006" data-link-type="association" data-source-line="24" id="lnk17"><path d="M807,314.75 C807,332.7 807,359.95 807,377.87" fill="none" id="PublicacionRepository-Publicacion" style="stroke:#181818;stroke-width:1;"/></g><!--link PublicacionRepository to GMN18--><g class="link" data-entity-1="ent0005" data-entity-2="ent0019" data-link-type="association" data-source-line="26" id="lnk20"><path d="M886.68,295.5 C915.31,295.5 940.67,295.5 940.67,295.5 C940.67,295.5 1074.33,295.5 1074.33,295.5 C1074.33,295.5 1084.61,295.5 1099.48,295.5" fill="none" id="PublicacionRepository-GMN18" style="stroke:#181818;stroke-width:1;stroke-dasharray:7,7;"/></g><!--link EliminarPublicacionView to EstadoSalidaExitosa--><g class="link" data-entity-1="ent0003" data-entity-2="ent0007" data-link-type="dependency" data-source-line="29" id="lnk21"><path d="M789.62,74.49 C888.29,88.71 1036,110 1036,110 C1036,110 1111.8153,136.7553 1167.1853,156.3053" fill="none" id="EliminarPublicacionView-to-EstadoSalidaExitosa" style="stroke:#181818;stroke-width:1;stroke-dasharray:7,7;"/><polygon fill="#181818" points="1171.9,157.97,1164.7452,151.2018,1167.1853,156.3053,1162.0817,158.7454,1171.9,157.97" style="stroke:#181818;stroke-width:1;stroke-linejoin:miter;stroke-miterlimit:10;"/><text fill="#000000" font-family="sans-serif" font-size="13" lengthAdjust="spacing" textLength="122.8398" x="1087" y="124.4951">publicacionRetirada()</text></g><!--link EliminarPublicacionView to EstadoSalidaCancelada--><g class="link" data-entity-1="ent0003" data-entity-2="ent0008" data-link-type="dependency" data-source-line="30" id="lnk22"><path d="M789.78,70.09 C936.55,83.77 1218,110 1218,110 C1218,110 1328.9942,137.228 1408.6342,156.778" fill="none" id="EliminarPublicacionView-to-EstadoSalidaCancelada" style="stroke:#181818;stroke-width:1;stroke-dasharray:7,7;"/><polygon fill="#181818" points="1413.49,157.97,1405.7031,151.9397,1408.6342,156.778,1403.7959,159.7091,1413.49,157.97" style="stroke:#181818;stroke-width:1;stroke-linejoin:miter;stroke-miterlimit:10;"/><text fill="#000000" font-family="sans-serif" font-size="13" lengthAdjust="spacing" textLength="114.8926" x="1291" y="124.4951">retiradaCancelada()</text></g><?plantuml-src dPDHRzf03CVVxrDOz6L8m4ErLciUAeKibI9rAu9shvL935Yzt4M-AokQzjrtWPO6bhGIUOlpzz_EpxPxObEXO0cQ3VbDHL1PlQbVb1BAFPgb9ZXBlgVZ-09wqO_iSV8mlisIECdkVZx6uooTtiSzG0UfyrZOr7Z10bM5-HCk2KXpoGPbyZpNd6FErjJYNalyIxy7VnI4fr7vylmglRc2z7_vBwRVn-hvnRou_0ODLM93GrPhacFjpNcSV4sRsYbLrh6tilbSg_vs0Per2QMpDqQp1gGPQYumVGcr79x6UMUHeCb9rxoLEk0FGnbUTr6Be9L-i6ZNmx08PgrG8t0sHDcZXE22fToPST5NhGam_AYlIiYHEJRhTpVMtLV-wY1JybmZsVPqYj6EyRlFIIxhxRmEc-a6rBgK4TYv9qCoiP8Lfpd8jhw4v04iA5_X0DYioNbUXkMH0PJMyzeUEB_d1-U36p3M4mWlLnxiekEIRl6rQ5ZAC1D7iaR0v_2DSQ1A2akBuGnW4sHwcqmELkngGOvkfCWKK1Vgf3uQNRVTLTYcPaEV3k_OPdzRqVu7zg7wMFu1?></g></svg>