<svg xmlns="http://www.w3.org/2000/svg" xmlns:xlink="http://www.w3.org/1999/xlink" contentStyleType="text/css" data-diagram-type="STATE" height="805px" preserveAspectRatio="none" style="width:678px;height:805px;background:#FFFFFF;" version="1.1" viewBox="0 0 678 805" width="678px" zoomAndPan="magnify"><?plantuml 1.2026.6?><defs/><g><g class="entity" data-qualified-name="in1" data-source-line="4" id="ent0001"><rect fill="#F1F1F1" height="50" rx="12.5" ry="12.5" style="stroke:#181818;stroke-width:0.5;" width="219.9443" x="56" y="7"/><line style="stroke:#181818;stroke-width:0.5;" x1="56" x2="275.9443" y1="34.6094" y2="34.6094"/><text fill="#000000" font-family="sans-serif" font-size="14" lengthAdjust="spacing" textLength="199.9443" x="66" y="26.5332">OPCIONES_PERFIL_ABIERTO</text></g><g class="entity" data-qualified-name="in2" data-source-line="11" id="ent0002"><rect fill="#F1F1F1" height="50" rx="12.5" ry="12.5" style="stroke:#181818;stroke-width:0.5;" width="317.9648" x="311" y="7"/><line style="stroke:#181818;stroke-width:0.5;" x1="311" x2="628.9648" y1="34.6094" y2="34.6094"/><text fill="#000000" font-family="sans-serif" font-size="14" lengthAdjust="spacing" textLength="297.9648" x="321" y="26.5332">SOLICITUD_ELIMINACION_PERFIL_ABIERTA</text></g><g class="entity" data-qualified-name="abrirSolicitudesEliminacionPerfil" data-source-line="18" id="ent0003"><path d="M101.5,153 L534.5,153 A12.5,12.5 0 0 1 547,165.5 L547,180.6094 L89,180.6094 L89,165.5 A12.5,12.5 0 0 1 101.5,153" fill="#F1F1F1"/><rect fill="none" height="491.6094" rx="12.5" ry="12.5" style="stroke:#181818;stroke-width:0.5;" width="458" x="89" y="153"/><line style="stroke:#181818;stroke-width:0.5;" x1="89" x2="547" y1="180.6094" y2="180.6094"/><text fill="#000000" font-family="sans-serif" font-size="14" lengthAdjust="spacing" textLength="208.5166" x="213.7417" y="172.5332">abrirSolicitudesEliminacionPerfil()</text><g class="entity" data-qualified-name="abrirSolicitudesEliminacionPerfil.MostrandoLista" data-source-line="20" id="ent0004"><rect fill="#F1F1F1" height="50" rx="12.5" ry="12.5" style="stroke:#181818;stroke-width:0.5;" width="50" x="101" y="283.6094"/><line style="stroke:#181818;stroke-width:0.5;" x1="101" x2="151" y1="311.2188" y2="311.2188"/><text fill="#000000" font-family="sans-serif" font-size="14" lengthAdjust="spacing" textLength="3.8896" x="124.0552" y="303.1426">&#160;</text></g><g class="entity" data-qualified-name="abrirSolicitudesEliminacionPerfil.FiltrandoLista" data-source-line="21" id="ent0005"><rect fill="#F1F1F1" height="50" rx="12.5" ry="12.5" style="stroke:#181818;stroke-width:0.5;" width="50" x="101" y="487.6094"/><line style="stroke:#181818;stroke-width:0.5;" x1="101" x2="151" y1="515.2188" y2="515.2188"/><text fill="#000000" font-family="sans-serif" font-size="14" lengthAdjust="spacing" textLength="3.8896" x="124.0552" y="507.1426">&#160;</text></g><g class="start_entity" data-qualified-name="abrirSolicitudesEliminacionPerfil..start.abrirSolicitudesEliminacionPerfil" data-source-line="23" id="ent0008"><ellipse cx="126" cy="201.6094" fill="#222222" rx="10" ry="10" style="stroke:#222222;stroke-width:1;"/></g><g class="end_entity" data-qualified-name="abrirSolicitudesEliminacionPerfil..end.abrirSolicitudesEliminacionPerfil" data-source-line="38" id="ent0011"><ellipse cx="126" cy="620.6094" fill="none" rx="11" ry="11" style="stroke:#222222;stroke-width:1;"/><ellipse cx="126" cy="620.6094" fill="#222222" rx="6" ry="6" style="stroke:#222222;stroke-width:1;"/></g><!--link *start*abrirSolicitudesEliminacionPerfil to MostrandoLista--><g class="link" data-entity-1="ent0008" data-entity-2="ent0004" data-link-type="dependency" data-source-line="23" id="lnk9"><path d="M126,211.9294 C126,227.7894 126,255.5194 126,278.2494" fill="none" id="*start*abrirSolicitudesEliminacionPerfil-to-MostrandoLista" style="stroke:#008000;stroke-width:1;"/><polygon fill="#008000" points="126,283.2494,130,274.2494,126,278.2494,122,274.2494,126,283.2494" style="stroke:#008000;stroke-width:1;stroke-linejoin:miter;stroke-miterlimit:10;"/><path d="M131,234.6094 L131,260.6094 L467,260.6094 L467,244.6094 L457,234.6094 L131,234.6094" fill="#FEFFDD" style="stroke:#181818;stroke-width:0.5;"/><path d="M457,234.6094 L457,244.6094 L467,244.6094 L457,234.6094" fill="#FEFFDD" style="stroke:#181818;stroke-width:0.5;"/><text fill="#000000" font-family="sans-serif" font-size="13" font-weight="700" lengthAdjust="spacing" textLength="77.9937" x="137" y="253.1045">Coordinador</text><text fill="#000000" font-family="sans-serif" font-size="13" lengthAdjust="spacing" textLength="234.0952" x="218.6055" y="253.1045">solicita abrir solicitudes eliminacion perfil</text></g><!--link MostrandoLista to FiltrandoLista--><g class="link" data-entity-1="ent0004" data-entity-2="ent0005" data-link-type="dependency" data-source-line="28" id="lnk10"><path d="M126,333.9794 C126,372.9094 126,443.6894 126,482.4694" fill="none" id="MostrandoLista-to-FiltrandoLista" style="stroke:#008000;stroke-width:1;"/><polygon fill="#008000" points="126,487.4694,130,478.4694,126,482.4694,122,478.4694,126,487.4694" style="stroke:#008000;stroke-width:1;stroke-linejoin:miter;stroke-miterlimit:10;"/><path d="M131,356.6094 L131,464.6094 L523,464.6094 L523,366.6094 L513,356.6094 L131,356.6094" fill="#FEFFDD" style="stroke:#181818;stroke-width:0.5;"/><path d="M513,356.6094 L513,366.6094 L523,366.6094 L513,356.6094" fill="#FEFFDD" style="stroke:#181818;stroke-width:0.5;"/><text fill="#000000" font-family="sans-serif" font-size="13" font-weight="700" lengthAdjust="spacing" textLength="49.8608" x="137" y="375.1045">Sistema</text><text fill="#000000" font-family="sans-serif" font-size="13" lengthAdjust="spacing" textLength="271.7051" x="190.4727" y="375.1045">presenta las solicitudes de eliminacion de perfil</text><text fill="#000000" font-family="sans-serif" font-size="13" lengthAdjust="spacing" textLength="243.02" x="137" y="391.4561">&#8226; ID, nombre, campo de cada investigador</text><text fill="#000000" font-family="sans-serif" font-size="13" lengthAdjust="spacing" textLength="206.8574" x="137" y="407.8076">&#8226; Permite solicitar abrir una solicitud</text><text fill="#000000" font-family="sans-serif" font-size="13" lengthAdjust="spacing" textLength="276.231" x="137" y="424.1592">&#8226; Permite solicitar volver a las opciones de perfil</text><text fill="#000000" font-family="sans-serif" font-size="13" lengthAdjust="spacing" textLength="371.6045" x="137" y="440.5107">&#8226; Permite solicitar volver a las solicitudes de eliminacion de perfil</text><text fill="#000000" font-family="sans-serif" font-size="13" lengthAdjust="spacing" textLength="3.6118" x="137" y="456.8623">&#160;</text></g><!--link FiltrandoLista to *end*abrirSolicitudesEliminacionPerfil--><g class="link" data-entity-1="ent0005" data-entity-2="ent0011" data-link-type="dependency" data-source-line="38" id="lnk12"><path d="M126,537.6594 C126,560.2594 126,587.9894 126,604.4094" fill="none" id="FiltrandoLista-to-*end*abrirSolicitudesEliminacionPerfil" style="stroke:#008000;stroke-width:1;"/><polygon fill="#008000" points="126,609.4094,130,600.4094,126,604.4094,122,600.4094,126,609.4094" style="stroke:#008000;stroke-width:1;stroke-linejoin:miter;stroke-miterlimit:10;"/><path d="M131,560.6094 L131,586.6094 L392,586.6094 L392,570.6094 L382,560.6094 L131,560.6094" fill="#FEFFDD" style="stroke:#181818;stroke-width:0.5;"/><path d="M382,560.6094 L382,570.6094 L392,570.6094 L382,560.6094" fill="#FEFFDD" style="stroke:#181818;stroke-width:0.5;"/><text fill="#000000" font-family="sans-serif" font-size="13" font-weight="700" lengthAdjust="spacing" textLength="77.9937" x="137" y="579.1045">Coordinador</text><text fill="#000000" font-family="sans-serif" font-size="13" lengthAdjust="spacing" textLength="158.9897" x="218.6055" y="579.1045">solicita una de las opciones</text></g></g><g class="entity" data-qualified-name="SOLICITUD_ELIMINACION_PERFIL_ABIERTA" data-source-line="44" id="ent0013"><rect fill="#F1F1F1" height="50" rx="12.5" ry="12.5" style="stroke:#181818;stroke-width:0.5;" width="317.9648" x="7" y="741"/><line style="stroke:#181818;stroke-width:0.5;" x1="7" x2="324.9648" y1="768.6094" y2="768.6094"/><text fill="#000000" font-family="sans-serif" font-size="14" lengthAdjust="spacing" textLength="297.9648" x="17" y="760.5332">SOLICITUD_ELIMINACION_PERFIL_ABIERTA</text></g><g class="entity" data-qualified-name="OPCIONES_PERFIL_ABIERTO" data-source-line="50" id="ent0015"><rect fill="#F1F1F1" height="50" rx="12.5" ry="12.5" style="stroke:#181818;stroke-width:0.5;" width="219.9443" x="360" y="741"/><line style="stroke:#181818;stroke-width:0.5;" x1="360" x2="579.9443" y1="768.6094" y2="768.6094"/><text fill="#000000" font-family="sans-serif" font-size="14" lengthAdjust="spacing" textLength="199.9443" x="370" y="760.5332">OPCIONES_PERFIL_ABIERTO</text></g><!--link in1 to abrirSolicitudesEliminacionPerfil--><g class="link" data-entity-1="ent0001" data-entity-2="ent0003" data-link-type="dependency" data-source-line="5" id="lnk6"><path d="M175.92,57.12 C186.88,83.78 203,123 203,123 C203,123 205.9102,129.9574 213.6002,148.3374" fill="none" id="in1-to-abrirSolicitudesEliminacionPerfil" style="stroke:#0000FF;stroke-width:1;"/><polygon fill="#0000FF" points="215.53,152.95,215.7463,143.1035,213.6002,148.3374,208.3662,146.1913,215.53,152.95" style="stroke:#0000FF;stroke-width:1;stroke-linejoin:miter;stroke-miterlimit:10;"/><path d="M208,92 L208,118 L422,118 L422,102 L412,92 L208,92" fill="#FEFFDD" style="stroke:#181818;stroke-width:0.5;"/><path d="M412,92 L412,102 L422,102 L412,92" fill="#FEFFDD" style="stroke:#181818;stroke-width:0.5;"/><text fill="#000000" font-family="sans-serif" font-size="13" lengthAdjust="spacing" textLength="193.6226" x="214" y="110.4951">abrirSolicitudesEliminacionPerfil()</text></g><!--link in2 to abrirSolicitudesEliminacionPerfil--><g class="link" data-entity-1="ent0002" data-entity-2="ent0003" data-link-type="dependency" data-source-line="12" id="lnk7"><path d="M459.91,57.23 C450.79,79.12 438.2626,109.2244 421.9926,148.2844" fill="none" id="in2-to-abrirSolicitudesEliminacionPerfil" style="stroke:#008000;stroke-width:1;"/><polygon fill="#008000" points="420.07,152.9,427.2231,146.13,421.9926,148.2844,419.8382,143.0539,420.07,152.9" style="stroke:#008000;stroke-width:1;stroke-linejoin:miter;stroke-miterlimit:10;"/><path d="M449,92 L449,118 L663,118 L663,102 L653,92 L449,92" fill="#FEFFDD" style="stroke:#181818;stroke-width:0.5;"/><path d="M653,92 L653,102 L663,102 L653,92" fill="#FEFFDD" style="stroke:#181818;stroke-width:0.5;"/><text fill="#000000" font-family="sans-serif" font-size="13" lengthAdjust="spacing" textLength="193.6226" x="455" y="110.4951">abrirSolicitudesEliminacionPerfil()</text></g><!--link abrirSolicitudesEliminacionPerfil to SOLICITUD_ELIMINACION_PERFIL_ABIERTA--><g class="link" data-entity-1="ent0003" data-entity-2="ent0013" data-link-type="dependency" data-source-line="44" id="lnk14"><path d="M215.88,645.23 C199.63,684.25 187.1226,714.2844 178.0126,736.1544" fill="none" id="abrirSolicitudesEliminacionPerfil-to-SOLICITUD_ELIMINACION_PERFIL_ABIERTA" style="stroke:#008000;stroke-width:1;"/><polygon fill="#008000" points="176.09,740.77,183.2432,734.0001,178.0126,736.1544,175.8583,730.9239,176.09,740.77" style="stroke:#008000;stroke-width:1;stroke-linejoin:miter;stroke-miterlimit:10;"/><path d="M208,680 L208,706 L408,706 L408,690 L398,680 L208,680" fill="#FEFFDD" style="stroke:#181818;stroke-width:0.5;"/><path d="M398,680 L398,690 L408,690 L398,680" fill="#FEFFDD" style="stroke:#181818;stroke-width:0.5;"/><text fill="#000000" font-family="sans-serif" font-size="13" lengthAdjust="spacing" textLength="179.8926" x="214" y="698.4951">abrirSolicitudEliminacionPerfil()</text></g><!--link abrirSolicitudesEliminacionPerfil to OPCIONES_PERFIL_ABIERTO--><g class="link" data-entity-1="ent0003" data-entity-2="ent0015" data-link-type="dependency" data-source-line="50" id="lnk16"><path d="M420.12,645.23 C436.37,684.25 448.8774,714.2844 457.9874,736.1544" fill="none" id="abrirSolicitudesEliminacionPerfil-to-OPCIONES_PERFIL_ABIERTO" style="stroke:#0000FF;stroke-width:1;"/><polygon fill="#0000FF" points="459.91,740.77,460.1417,730.9239,457.9874,736.1544,452.7568,734.0001,459.91,740.77" style="stroke:#0000FF;stroke-width:1;stroke-linejoin:miter;stroke-miterlimit:10;"/><path d="M449,680 L449,706 L589,706 L589,690 L579,680 L449,680" fill="#FEFFDD" style="stroke:#181818;stroke-width:0.5;"/><path d="M579,680 L579,690 L589,690 L579,680" fill="#FEFFDD" style="stroke:#181818;stroke-width:0.5;"/><text fill="#000000" font-family="sans-serif" font-size="13" lengthAdjust="spacing" textLength="119.2026" x="455" y="698.4951">abrirOpcionesPerfil()</text></g><?plantuml-src lPJVQi8m5CRlynJ1tMn36VDQ1ASL2cf5tPM8fFPCWcbIqYh86EnPzcXxafsqrZPEhRjP2wLfpf_VzpL9lE4oOfg5L709oJu26YcnDmD2ueGbGBbyfYocDM_STRsHCrsEdKdV7ImxBwupcNarOW8QypjVR67HQ5FcQwwdIl0LJxO1n8xW8PTinPKSWtxZWaY5PPKqBJUaClp-WO0Cg4aY1LCpPPfw0xVhpbvxIsVW3jrHno3QW1q3s3I0QmqW_ukmCYdblw5qZRuJGl7AwjRmnioXYXFDPA067B__dkzpKPvF0-QF2yi6kmPDOopXvaFBRtULqW5I1KgtdlmsZJDUbcdCXmQVGi5FeynAKoHtnxoJu-EaVndj1FyIsHHd8MGfLQGX1ebr1CelCmLWOU6mHFRz-KNTNXshXxw6EbsnC58cPiK2Xiji1t72rqRwCHn_JCYH9RT17tpOIbRqlHAzKs87c9I2giX0PPGdM1MPjqcqx2-ij_srhCTLylULOBHZrx8Yk_C7gTv65iOjE_lQDgtOf3V1v2VQXPFlJ7ll8FvCony0?></g></svg>