<svg xmlns="http://www.w3.org/2000/svg" xmlns:xlink="http://www.w3.org/1999/xlink" contentStyleType="text/css" height="774px" preserveAspectRatio="none" style="width:1771px;height:774px;background:#FFFFFF;" version="1.1" viewBox="0 0 1771 774" width="1771px" zoomAndPan="magnify"><title>Diagrama de secuencia - Abrir entregables de proyecto</title><defs/><g><text fill="#000000" font-family="sans-serif" font-size="14" font-weight="bold" lengthAdjust="spacing" textLength="367.2402" x="703.8789" y="29.5332">Diagrama de secuencia - Abrir entregables de proyecto</text><line style="stroke:#181818;stroke-width:0.5;stroke-dasharray:5.0,5.0;" x1="46" x2="46" y1="121.2188" y2="692.25"/><line style="stroke:#181818;stroke-width:0.5;stroke-dasharray:5.0,5.0;" x1="294.5117" x2="294.5117" y1="121.2188" y2="692.25"/><line style="stroke:#181818;stroke-width:0.5;stroke-dasharray:5.0,5.0;" x1="614.2129" x2="614.2129" y1="121.2188" y2="692.25"/><line style="stroke:#181818;stroke-width:0.5;stroke-dasharray:5.0,5.0;" x1="847.252" x2="847.252" y1="121.2188" y2="692.25"/><line style="stroke:#181818;stroke-width:0.5;stroke-dasharray:5.0,5.0;" x1="973.7412" x2="973.7412" y1="121.2188" y2="692.25"/><line style="stroke:#181818;stroke-width:0.5;stroke-dasharray:5.0,5.0;" x1="1116.1406" x2="1116.1406" y1="121.2188" y2="692.25"/><line style="stroke:#181818;stroke-width:0.5;stroke-dasharray:5.0,5.0;" x1="1435.4854" x2="1435.4854" y1="121.2188" y2="692.25"/><line style="stroke:#181818;stroke-width:0.5;stroke-dasharray:5.0,5.0;" x1="1721.1641" x2="1721.1641" y1="121.2188" y2="692.25"/><text fill="#000000" font-family="sans-serif" font-size="14" lengthAdjust="spacing" textLength="77.0479" x="5" y="118.1426">Coordinador</text><ellipse cx="46.5239" cy="52.1094" fill="#E2E2F0" rx="8" ry="8" style="stroke:#181818;stroke-width:0.5;"/><path d="M46.5239,60.1094 L46.5239,87.1094 M33.5239,68.1094 L59.5239,68.1094 M46.5239,87.1094 L33.5239,102.1094 M46.5239,87.1094 L59.5239,102.1094 " fill="none" style="stroke:#181818;stroke-width:0.5;"/><text fill="#000000" font-family="sans-serif" font-size="14" lengthAdjust="spacing" textLength="77.0479" x="5" y="705.7832">Coordinador</text><ellipse cx="46.5239" cy="717.3594" fill="#E2E2F0" rx="8" ry="8" style="stroke:#181818;stroke-width:0.5;"/><path d="M46.5239,725.3594 L46.5239,752.3594 M33.5239,733.3594 L59.5239,733.3594 M46.5239,752.3594 L33.5239,767.3594 M46.5239,752.3594 L59.5239,767.3594 " fill="none" style="stroke:#181818;stroke-width:0.5;"/><rect fill="#E2E2F0" height="49.2188" rx="2.5" ry="2.5" style="stroke:#181818;stroke-width:0.5;" width="121.4131" x="234.5117" y="71"/><text fill="#000000" font-family="sans-serif" font-size="14" lengthAdjust="spacing" textLength="107.4131" x="241.5117" y="92.5332">EntregablesPage</text><text fill="#000000" font-family="sans-serif" font-size="14" lengthAdjust="spacing" textLength="45.8965" x="272.27" y="110.1426">(React)</text><rect fill="#E2E2F0" height="49.2188" rx="2.5" ry="2.5" style="stroke:#181818;stroke-width:0.5;" width="121.4131" x="234.5117" y="691.25"/><text fill="#000000" font-family="sans-serif" font-size="14" lengthAdjust="spacing" textLength="107.4131" x="241.5117" y="712.7832">EntregablesPage</text><text fill="#000000" font-family="sans-serif" font-size="14" lengthAdjust="spacing" textLength="45.8965" x="272.27" y="730.3926">(React)</text><rect fill="#E2E2F0" height="49.2188" rx="2.5" ry="2.5" style="stroke:#181818;stroke-width:0.5;" width="142.4063" x="543.2129" y="71"/><text fill="#000000" font-family="sans-serif" font-size="14" lengthAdjust="spacing" textLength="128.4063" x="550.2129" y="92.5332">EntregableController</text><text fill="#000000" font-family="sans-serif" font-size="14" lengthAdjust="spacing" textLength="82.4824" x="573.1748" y="110.1426">(Spring Boot)</text><rect fill="#E2E2F0" height="49.2188" rx="2.5" ry="2.5" style="stroke:#181818;stroke-width:0.5;" width="142.4063" x="543.2129" y="691.25"/><text fill="#000000" font-family="sans-serif" font-size="14" lengthAdjust="spacing" textLength="128.4063" x="550.2129" y="712.7832">EntregableController</text><text fill="#000000" font-family="sans-serif" font-size="14" lengthAdjust="spacing" textLength="82.4824" x="573.1748" y="730.3926">(Spring Boot)</text><rect fill="#E2E2F0" height="31.6094" rx="2.5" ry="2.5" style="stroke:#181818;stroke-width:0.5;" width="103.4893" x="796.252" y="88.6094"/><text fill="#000000" font-family="sans-serif" font-size="14" lengthAdjust="spacing" textLength="89.4893" x="803.252" y="110.1426">SesionService</text><rect fill="#E2E2F0" height="31.6094" rx="2.5" ry="2.5" style="stroke:#181818;stroke-width:0.5;" width="103.4893" x="796.252" y="691.25"/><text fill="#000000" font-family="sans-serif" font-size="14" lengthAdjust="spacing" textLength="89.4893" x="803.252" y="712.7832">SesionService</text><rect fill="#E2E2F0" height="31.6094" rx="2.5" ry="2.5" style="stroke:#181818;stroke-width:0.5;" width="128.3994" x="909.7412" y="88.6094"/><text fill="#000000" font-family="sans-serif" font-size="14" lengthAdjust="spacing" textLength="114.3994" x="916.7412" y="110.1426">EntregableService</text><rect fill="#E2E2F0" height="31.6094" rx="2.5" ry="2.5" style="stroke:#181818;stroke-width:0.5;" width="128.3994" x="909.7412" y="691.25"/><text fill="#000000" font-family="sans-serif" font-size="14" lengthAdjust="spacing" textLength="114.3994" x="916.7412" y="712.7832">EntregableService</text><rect fill="#E2E2F0" height="31.6094" rx="2.5" ry="2.5" style="stroke:#181818;stroke-width:0.5;" width="136.165" x="1048.1406" y="88.6094"/><text fill="#000000" font-family="sans-serif" font-size="14" lengthAdjust="spacing" textLength="122.165" x="1055.1406" y="110.1426">ProyectoRepository</text><rect fill="#E2E2F0" height="31.6094" rx="2.5" ry="2.5" style="stroke:#181818;stroke-width:0.5;" width="136.165" x="1048.1406" y="691.25"/><text fill="#000000" font-family="sans-serif" font-size="14" lengthAdjust="spacing" textLength="122.165" x="1055.1406" y="712.7832">ProyectoRepository</text><rect fill="#E2E2F0" height="31.6094" rx="2.5" ry="2.5" style="stroke:#181818;stroke-width:0.5;" width="148.6338" x="1361.4854" y="88.6094"/><text fill="#000000" font-family="sans-serif" font-size="14" lengthAdjust="spacing" textLength="134.6338" x="1368.4854" y="110.1426">EntregableRepository</text><rect fill="#E2E2F0" height="31.6094" rx="2.5" ry="2.5" style="stroke:#181818;stroke-width:0.5;" width="148.6338" x="1361.4854" y="691.25"/><text fill="#000000" font-family="sans-serif" font-size="14" lengthAdjust="spacing" textLength="134.6338" x="1368.4854" y="712.7832">EntregableRepository</text><text fill="#000000" font-family="sans-serif" font-size="14" lengthAdjust="spacing" textLength="91.834" x="1673.1641" y="118.1426">Base de Datos</text><path d="M1704.0811,67.6094 C1704.0811,57.6094 1722.0811,57.6094 1722.0811,57.6094 C1722.0811,57.6094 1740.0811,57.6094 1740.0811,67.6094 L1740.0811,93.6094 C1740.0811,103.6094 1722.0811,103.6094 1722.0811,103.6094 C1722.0811,103.6094 1704.0811,103.6094 1704.0811,93.6094 L1704.0811,67.6094 " fill="#E2E2F0" style="stroke:#181818;stroke-width:1.5;"/><path d="M1704.0811,67.6094 C1704.0811,77.6094 1722.0811,77.6094 1722.0811,77.6094 C1722.0811,77.6094 1740.0811,77.6094 1740.0811,67.6094 " fill="none" style="stroke:#181818;stroke-width:1.5;"/><text fill="#000000" font-family="sans-serif" font-size="14" lengthAdjust="spacing" textLength="91.834" x="1673.1641" y="705.7832">Base de Datos</text><path d="M1704.0811,718.8594 C1704.0811,708.8594 1722.0811,708.8594 1722.0811,708.8594 C1722.0811,708.8594 1740.0811,708.8594 1740.0811,718.8594 L1740.0811,744.8594 C1740.0811,754.8594 1722.0811,754.8594 1722.0811,754.8594 C1722.0811,754.8594 1704.0811,754.8594 1704.0811,744.8594 L1704.0811,718.8594 " fill="#E2E2F0" style="stroke:#181818;stroke-width:1.5;"/><path d="M1704.0811,718.8594 C1704.0811,728.8594 1722.0811,728.8594 1722.0811,728.8594 C1722.0811,728.8594 1740.0811,728.8594 1740.0811,718.8594 " fill="none" style="stroke:#181818;stroke-width:1.5;"/><polygon fill="#181818" points="283.2183,149.5703,293.2183,153.5703,283.2183,157.5703,287.2183,153.5703" style="stroke:#181818;stroke-width:1;"/><line style="stroke:#181818;stroke-width:1;" x1="46.5239" x2="289.2183" y1="153.5703" y2="153.5703"/><text fill="#000000" font-family="sans-serif" font-size="13" lengthAdjust="spacing" textLength="217.5088" x="53.5239" y="148.7139">Solicita abrir entregables del proyecto</text><polygon fill="#181818" points="602.416,196.2734,612.416,200.2734,602.416,204.2734,606.416,200.2734" style="stroke:#181818;stroke-width:1;"/><line style="stroke:#181818;stroke-width:1;" x1="295.2183" x2="608.416" y1="200.2734" y2="200.2734"/><text fill="#000000" font-family="sans-serif" font-size="13" lengthAdjust="spacing" textLength="295.1978" x="302.2183" y="179.0654">GET /api/proyectos/{proyectoId}/entregables?filtro=</text><text fill="#000000" font-family="sans-serif" font-size="13" lengthAdjust="spacing" textLength="99.728" x="302.2183" y="195.417">Cookie de sesion</text><polygon fill="#181818" points="835.9966,226.625,845.9966,230.625,835.9966,234.625,839.9966,230.625" style="stroke:#181818;stroke-width:1;"/><line style="stroke:#181818;stroke-width:1;" x1="614.416" x2="841.9966" y1="230.625" y2="230.625"/><text fill="#000000" font-family="sans-serif" font-size="13" lengthAdjust="spacing" textLength="209.5806" x="621.416" y="225.7686">obtenerSesionActual(authentication)</text><polygon fill="#181818" points="625.416,256.9766,615.416,260.9766,625.416,264.9766,621.416,260.9766" style="stroke:#181818;stroke-width:1;"/><line style="stroke:#181818;stroke-width:1;stroke-dasharray:2.0,2.0;" x1="619.416" x2="846.9966" y1="260.9766" y2="260.9766"/><text fill="#000000" font-family="sans-serif" font-size="13" lengthAdjust="spacing" textLength="142.3779" x="631.416" y="256.1201">Coordinador autenticado</text><polygon fill="#181818" points="961.9409,287.3281,971.9409,291.3281,961.9409,295.3281,965.9409,291.3281" style="stroke:#181818;stroke-width:1;"/><line style="stroke:#181818;stroke-width:1;" x1="614.416" x2="967.9409" y1="291.3281" y2="291.3281"/><text fill="#000000" font-family="sans-serif" font-size="13" lengthAdjust="spacing" textLength="128.5908" x="621.416" y="286.4717">listar(proyectoId, filtro)</text><polygon fill="#181818" points="1104.2231,317.6797,1114.2231,321.6797,1104.2231,325.6797,1108.2231,321.6797" style="stroke:#181818;stroke-width:1;"/><line style="stroke:#181818;stroke-width:1;" x1="973.9409" x2="1110.2231" y1="321.6797" y2="321.6797"/><text fill="#000000" font-family="sans-serif" font-size="13" lengthAdjust="spacing" textLength="116.3335" x="980.9409" y="316.8232">findById(proyectoId)</text><polygon fill="#181818" points="1710.0811,364.3828,1720.0811,368.3828,1710.0811,372.3828,1714.0811,368.3828" style="stroke:#181818;stroke-width:1;"/><line style="stroke:#181818;stroke-width:1;" x1="1116.2231" x2="1716.0811" y1="368.3828" y2="368.3828"/><text fill="#000000" font-family="sans-serif" font-size="13" lengthAdjust="spacing" textLength="161.0972" x="1123.2231" y="347.1748">SELECT * FROM proyectos</text><text fill="#000000" font-family="sans-serif" font-size="13" lengthAdjust="spacing" textLength="217.4771" x="1123.2231" y="363.5264">WHERE id = ? AND archivado = false</text><polygon fill="#181818" points="1127.2231,394.7344,1117.2231,398.7344,1127.2231,402.7344,1123.2231,398.7344" style="stroke:#181818;stroke-width:1;"/><line style="stroke:#181818;stroke-width:1;stroke-dasharray:2.0,2.0;" x1="1121.2231" x2="1721.0811" y1="398.7344" y2="398.7344"/><text fill="#000000" font-family="sans-serif" font-size="13" lengthAdjust="spacing" textLength="92.4854" x="1133.2231" y="393.8779">Proyecto / vacio</text><polygon fill="#181818" points="984.9409,425.0859,974.9409,429.0859,984.9409,433.0859,980.9409,429.0859" style="stroke:#181818;stroke-width:1;"/><line style="stroke:#181818;stroke-width:1;stroke-dasharray:2.0,2.0;" x1="978.9409" x2="1115.2231" y1="429.0859" y2="429.0859"/><text fill="#000000" font-family="sans-serif" font-size="13" lengthAdjust="spacing" textLength="92.4854" x="990.9409" y="424.2295">Proyecto / vacio</text><polygon fill="#181818" points="1423.8022,455.4375,1433.8022,459.4375,1423.8022,463.4375,1427.8022,459.4375" style="stroke:#181818;stroke-width:1;"/><line style="stroke:#181818;stroke-width:1;" x1="973.9409" x2="1429.8022" y1="459.4375" y2="459.4375"/><text fill="#000000" font-family="sans-serif" font-size="13" lengthAdjust="spacing" textLength="437.8613" x="980.9409" y="454.5811">findByProyectoIdAndRetiradoOrderByFechaCreacionDesc(proyectoId, filtro)</text><polygon fill="#181818" points="1710.0811,518.4922,1720.0811,522.4922,1710.0811,526.4922,1714.0811,522.4922" style="stroke:#181818;stroke-width:1;"/><line style="stroke:#181818;stroke-width:1;" x1="1435.8022" x2="1716.0811" y1="522.4922" y2="522.4922"/><text fill="#000000" font-family="sans-serif" font-size="13" lengthAdjust="spacing" textLength="172.6753" x="1442.8022" y="484.9326">SELECT * FROM entregables</text><text fill="#000000" font-family="sans-serif" font-size="13" lengthAdjust="spacing" textLength="262.2788" x="1442.8022" y="501.2842">WHERE proyecto_id = ? AND retirado = false</text><text fill="#000000" font-family="sans-serif" font-size="13" lengthAdjust="spacing" textLength="147.7607" x="1442.8022" y="517.6357">AND coincide_filtro = true</text><polygon fill="#181818" points="1446.8022,548.8438,1436.8022,552.8438,1446.8022,556.8438,1442.8022,552.8438" style="stroke:#181818;stroke-width:1;"/><line style="stroke:#181818;stroke-width:1;stroke-dasharray:2.0,2.0;" x1="1440.8022" x2="1721.0811" y1="552.8438" y2="552.8438"/><text fill="#000000" font-family="sans-serif" font-size="13" lengthAdjust="spacing" textLength="113.4517" x="1452.8022" y="547.9873">Entregables activos</text><polygon fill="#181818" points="984.9409,579.1953,974.9409,583.1953,984.9409,587.1953,980.9409,583.1953" style="stroke:#181818;stroke-width:1;"/><line style="stroke:#181818;stroke-width:1;stroke-dasharray:2.0,2.0;" x1="978.9409" x2="1434.8022" y1="583.1953" y2="583.1953"/><text fill="#000000" font-family="sans-serif" font-size="13" lengthAdjust="spacing" textLength="113.4517" x="990.9409" y="578.3389">Entregables activos</text><polygon fill="#181818" points="625.416,609.5469,615.416,613.5469,625.416,617.5469,621.416,613.5469" style="stroke:#181818;stroke-width:1;"/><line style="stroke:#181818;stroke-width:1;stroke-dasharray:2.0,2.0;" x1="619.416" x2="972.9409" y1="613.5469" y2="613.5469"/><text fill="#000000" font-family="sans-serif" font-size="13" lengthAdjust="spacing" textLength="212.4688" x="631.416" y="608.6904">List&lt;EntregableResumenResponse&gt;</text><polygon fill="#181818" points="306.2183,639.8984,296.2183,643.8984,306.2183,647.8984,302.2183,643.8984" style="stroke:#181818;stroke-width:1;"/><line style="stroke:#181818;stroke-width:1;stroke-dasharray:2.0,2.0;" x1="300.2183" x2="613.416" y1="643.8984" y2="643.8984"/><text fill="#000000" font-family="sans-serif" font-size="13" lengthAdjust="spacing" textLength="44.0845" x="312.2183" y="639.042">200 OK</text><polygon fill="#181818" points="57.5239,670.25,47.5239,674.25,57.5239,678.25,53.5239,674.25" style="stroke:#181818;stroke-width:1;"/><line style="stroke:#181818;stroke-width:1;stroke-dasharray:2.0,2.0;" x1="51.5239" x2="294.2183" y1="674.25" y2="674.25"/><text fill="#000000" font-family="sans-serif" font-size="13" lengthAdjust="spacing" textLength="224.6943" x="63.5239" y="669.3936">Presenta ENTREGABLES_ABIERTOS</text><!--SRC=[TLJ1Zjem4BtdAqQSe2fYrIFgxYeXOOjA5nIGUa52WpqBLhDsP1iaLFNVEqa8c5suX6JytioyDnwyyWL1gd1hyHr14ZWIUz928VGXtbXbWRItjCLDGQu2bDOSINWJ8JyiZ8onKccKnaObMg-4Ab5xw6GNsXotjDBTd9ZIwm0w65kZFMbvZpBYOskAWYpp5gLLUWk9CITsNAfhueASCdf1zg04rP0cSY_zDR9-luREJo9pAerJhFDOOyFmlTmVA3LKeiSDEe9EKZtPnHIzSJKWJQ8eC17wJsTtXh0m1PVm27XZ5CLb5YsZOhCxGtZ9bZ30KWrQY1lyRLydyjyWoFJyfWes-t6bkOq_YffRKDl7gQgCZPb3C1kkGRRvZ8NVOz75lTznCYNGSx0NDOVGRni9fJ6sWKfpILsxFuH2EO-sU-dnApHzLIbhJ0KF1p1aW9R9SI83LYyA8HKbJTZ6R9gDbl05nldirzarjzA_VsHv1ah28pn3_9e2Mh5J1swG8szOE8hIf1PpNRdzWW4SK2ZpeMeex1Cqa1FAc9yrn5hcv9NbBcPMaasEOn8x75cg-3eb9sxwT5znCErMSvjW7OYtfwgjzfMkei8e_Z-Gj6xgyA6t-xClZOHWsO6NN1sCYpvRSGjrTgEzC5E-2D_3TNBxTzByKnhjwAcvE5TByktX0MO_WntWq-3QLICWnnOWPA_BF7k9ascsMCV99CkNiyL_]--></g></svg>