<?xml version="1.0" encoding="us-ascii" standalone="no"?><svg xmlns="http://www.w3.org/2000/svg" xmlns:xlink="http://www.w3.org/1999/xlink" contentStyleType="text/css" height="774px" preserveAspectRatio="none" style="width:1646px;height:774px;background:#FFFFFF;" version="1.1" viewBox="0 0 1646 774" width="1646px" zoomAndPan="magnify"><defs/><g><text fill="#000000" font-family="sans-serif" font-size="14" font-weight="bold" lengthAdjust="spacing" textLength="387" x="631.25" y="29.5332">Diagrama de secuencia - Abrir entregables de proyecto</text><line style="stroke:#181818;stroke-width:0.5;stroke-dasharray:5.0,5.0;" x1="47" x2="47" y1="121.2188" y2="692.25"/><line style="stroke:#181818;stroke-width:0.5;stroke-dasharray:5.0,5.0;" x1="295" x2="295" y1="121.2188" y2="692.25"/><line style="stroke:#181818;stroke-width:0.5;stroke-dasharray:5.0,5.0;" x1="613" x2="613" y1="121.2188" y2="692.25"/><line style="stroke:#181818;stroke-width:0.5;stroke-dasharray:5.0,5.0;" x1="826.5" x2="826.5" y1="121.2188" y2="692.25"/><line style="stroke:#181818;stroke-width:0.5;stroke-dasharray:5.0,5.0;" x1="953.5" x2="953.5" y1="121.2188" y2="692.25"/><line style="stroke:#181818;stroke-width:0.5;stroke-dasharray:5.0,5.0;" x1="1153.5" x2="1153.5" y1="121.2188" y2="692.25"/><line style="stroke:#181818;stroke-width:0.5;stroke-dasharray:5.0,5.0;" x1="1307.5" x2="1307.5" y1="121.2188" y2="692.25"/><line style="stroke:#181818;stroke-width:0.5;stroke-dasharray:5.0,5.0;" x1="1595.5" x2="1595.5" y1="121.2188" y2="692.25"/><text fill="#000000" font-family="sans-serif" font-size="14" lengthAdjust="spacing" textLength="79" x="5" y="118.1426">Coordinador</text><ellipse cx="47.5" cy="52.1094" fill="#E2E2F0" rx="8" ry="8" style="stroke:#181818;stroke-width:0.5;"/><path d="M47.5,60.1094 L47.5,87.1094 M34.5,68.1094 L60.5,68.1094 M47.5,87.1094 L34.5,102.1094 M47.5,87.1094 L60.5,102.1094 " fill="none" style="stroke:#181818;stroke-width:0.5;"/><text fill="#000000" font-family="sans-serif" font-size="14" lengthAdjust="spacing" textLength="79" x="5" y="705.7832">Coordinador</text><ellipse cx="47.5" cy="717.3594" fill="#E2E2F0" rx="8" ry="8" style="stroke:#181818;stroke-width:0.5;"/><path d="M47.5,725.3594 L47.5,752.3594 M34.5,733.3594 L60.5,733.3594 M47.5,752.3594 L34.5,767.3594 M47.5,752.3594 L60.5,767.3594 " fill="none" style="stroke:#181818;stroke-width:0.5;"/><rect fill="#E2E2F0" height="49.2188" rx="2.5" ry="2.5" style="stroke:#181818;stroke-width:0.5;" width="123" x="234" y="71"/><text fill="#000000" font-family="sans-serif" font-size="14" lengthAdjust="spacing" textLength="109" x="241" y="92.5332">EntregablesPage</text><text fill="#000000" font-family="sans-serif" font-size="14" lengthAdjust="spacing" textLength="47" x="272" y="110.1426">(React)</text><rect fill="#E2E2F0" height="49.2188" rx="2.5" ry="2.5" style="stroke:#181818;stroke-width:0.5;" width="123" x="234" y="691.25"/><text fill="#000000" font-family="sans-serif" font-size="14" lengthAdjust="spacing" textLength="109" x="241" y="712.7832">EntregablesPage</text><text fill="#000000" font-family="sans-serif" font-size="14" lengthAdjust="spacing" textLength="47" x="272" y="730.3926">(React)</text><rect fill="#E2E2F0" height="49.2188" rx="2.5" ry="2.5" style="stroke:#181818;stroke-width:0.5;" width="145" x="541" y="71"/><text fill="#000000" font-family="sans-serif" font-size="14" lengthAdjust="spacing" textLength="131" x="548" y="92.5332">EntregableController</text><text fill="#000000" font-family="sans-serif" font-size="14" lengthAdjust="spacing" textLength="84" x="571.5" y="110.1426">(Spring Boot)</text><rect fill="#E2E2F0" height="49.2188" rx="2.5" ry="2.5" style="stroke:#181818;stroke-width:0.5;" width="145" x="541" y="691.25"/><text fill="#000000" font-family="sans-serif" font-size="14" lengthAdjust="spacing" textLength="131" x="548" y="712.7832">EntregableController</text><text fill="#000000" font-family="sans-serif" font-size="14" lengthAdjust="spacing" textLength="84" x="571.5" y="730.3926">(Spring Boot)</text><rect fill="#E2E2F0" height="31.6094" rx="2.5" ry="2.5" style="stroke:#181818;stroke-width:0.5;" width="104" x="774.5" y="88.6094"/><text fill="#000000" font-family="sans-serif" font-size="14" lengthAdjust="spacing" textLength="90" x="781.5" y="110.1426">SesionService</text><rect fill="#E2E2F0" height="31.6094" rx="2.5" ry="2.5" style="stroke:#181818;stroke-width:0.5;" width="104" x="774.5" y="691.25"/><text fill="#000000" font-family="sans-serif" font-size="14" lengthAdjust="spacing" textLength="90" x="781.5" y="712.7832">SesionService</text><rect fill="#E2E2F0" height="31.6094" rx="2.5" ry="2.5" style="stroke:#181818;stroke-width:0.5;" width="130" x="888.5" y="88.6094"/><text fill="#000000" font-family="sans-serif" font-size="14" lengthAdjust="spacing" textLength="116" x="895.5" y="110.1426">EntregableService</text><rect fill="#E2E2F0" height="31.6094" rx="2.5" ry="2.5" style="stroke:#181818;stroke-width:0.5;" width="130" x="888.5" y="691.25"/><text fill="#000000" font-family="sans-serif" font-size="14" lengthAdjust="spacing" textLength="116" x="895.5" y="712.7832">EntregableService</text><rect fill="#E2E2F0" height="31.6094" rx="2.5" ry="2.5" style="stroke:#181818;stroke-width:0.5;" width="138" x="1084.5" y="88.6094"/><text fill="#000000" font-family="sans-serif" font-size="14" lengthAdjust="spacing" textLength="124" x="1091.5" y="110.1426">ProyectoRepository</text><rect fill="#E2E2F0" height="31.6094" rx="2.5" ry="2.5" style="stroke:#181818;stroke-width:0.5;" width="138" x="1084.5" y="691.25"/><text fill="#000000" font-family="sans-serif" font-size="14" lengthAdjust="spacing" textLength="124" x="1091.5" y="712.7832">ProyectoRepository</text><rect fill="#E2E2F0" height="31.6094" rx="2.5" ry="2.5" style="stroke:#181818;stroke-width:0.5;" width="151" x="1232.5" y="88.6094"/><text fill="#000000" font-family="sans-serif" font-size="14" lengthAdjust="spacing" textLength="137" x="1239.5" y="110.1426">EntregableRepository</text><rect fill="#E2E2F0" height="31.6094" rx="2.5" ry="2.5" style="stroke:#181818;stroke-width:0.5;" width="151" x="1232.5" y="691.25"/><text fill="#000000" font-family="sans-serif" font-size="14" lengthAdjust="spacing" textLength="137" x="1239.5" y="712.7832">EntregableRepository</text><text fill="#000000" font-family="sans-serif" font-size="14" lengthAdjust="spacing" textLength="93" x="1546.5" y="118.1426">Base de Datos</text><path d="M1578,67.6094 C1578,57.6094 1596,57.6094 1596,57.6094 C1596,57.6094 1614,57.6094 1614,67.6094 L1614,93.6094 C1614,103.6094 1596,103.6094 1596,103.6094 C1596,103.6094 1578,103.6094 1578,93.6094 L1578,67.6094 " fill="#E2E2F0" style="stroke:#181818;stroke-width:1.5;"/><path d="M1578,67.6094 C1578,77.6094 1596,77.6094 1596,77.6094 C1596,77.6094 1614,77.6094 1614,67.6094 " fill="none" style="stroke:#181818;stroke-width:1.5;"/><text fill="#000000" font-family="sans-serif" font-size="14" lengthAdjust="spacing" textLength="93" x="1546.5" y="705.7832">Base de Datos</text><path d="M1578,718.8594 C1578,708.8594 1596,708.8594 1596,708.8594 C1596,708.8594 1614,708.8594 1614,718.8594 L1614,744.8594 C1614,754.8594 1596,754.8594 1596,754.8594 C1596,754.8594 1578,754.8594 1578,744.8594 L1578,718.8594 " fill="#E2E2F0" style="stroke:#181818;stroke-width:1.5;"/><path d="M1578,718.8594 C1578,728.8594 1596,728.8594 1596,728.8594 C1596,728.8594 1614,728.8594 1614,718.8594 " fill="none" style="stroke:#181818;stroke-width:1.5;"/><polygon fill="#181818" points="283.5,149.5703,293.5,153.5703,283.5,157.5703,287.5,153.5703" style="stroke:#181818;stroke-width:1.0;"/><line style="stroke:#181818;stroke-width:1.0;" x1="47.5" x2="289.5" y1="153.5703" y2="153.5703"/><text fill="#000000" font-family="sans-serif" font-size="13" lengthAdjust="spacing" textLength="218" x="54.5" y="148.7139">Solicita abrir entregables del proyecto</text><polygon fill="#181818" points="601.5,196.2734,611.5,200.2734,601.5,204.2734,605.5,200.2734" style="stroke:#181818;stroke-width:1.0;"/><line style="stroke:#181818;stroke-width:1.0;" x1="295.5" x2="607.5" y1="200.2734" y2="200.2734"/><text fill="#000000" font-family="sans-serif" font-size="13" lengthAdjust="spacing" textLength="294" x="302.5" y="179.0654">GET /api/proyectos/{proyectoId}/entregables?filtro=</text><text fill="#000000" font-family="sans-serif" font-size="13" lengthAdjust="spacing" textLength="100" x="302.5" y="195.417">Cookie de sesion</text><polygon fill="#181818" points="814.5,226.625,824.5,230.625,814.5,234.625,818.5,230.625" style="stroke:#181818;stroke-width:1.0;"/><line style="stroke:#181818;stroke-width:1.0;" x1="613.5" x2="820.5" y1="230.625" y2="230.625"/><text fill="#000000" font-family="sans-serif" font-size="13" lengthAdjust="spacing" textLength="189" x="620.5" y="225.7686">exigirCoordinador(authentication)</text><polygon fill="#181818" points="624.5,256.9766,614.5,260.9766,624.5,264.9766,620.5,260.9766" style="stroke:#181818;stroke-width:1.0;"/><line style="stroke:#181818;stroke-width:1.0;stroke-dasharray:2.0,2.0;" x1="618.5" x2="825.5" y1="260.9766" y2="260.9766"/><text fill="#000000" font-family="sans-serif" font-size="13" lengthAdjust="spacing" textLength="140" x="630.5" y="256.1201">Coordinador autenticado</text><polygon fill="#181818" points="941.5,287.3281,951.5,291.3281,941.5,295.3281,945.5,291.3281" style="stroke:#181818;stroke-width:1.0;"/><line style="stroke:#181818;stroke-width:1.0;" x1="613.5" x2="947.5" y1="291.3281" y2="291.3281"/><text fill="#000000" font-family="sans-serif" font-size="13" lengthAdjust="spacing" textLength="200" x="620.5" y="286.4717">listarPorProyecto(proyectoId, filtro)</text><polygon fill="#181818" points="1141.5,317.6797,1151.5,321.6797,1141.5,325.6797,1145.5,321.6797" style="stroke:#181818;stroke-width:1.0;"/><line style="stroke:#181818;stroke-width:1.0;" x1="953.5" x2="1147.5" y1="321.6797" y2="321.6797"/><text fill="#000000" font-family="sans-serif" font-size="13" lengthAdjust="spacing" textLength="176" x="960.5" y="316.8232">obtenerActivoPorId(proyectoId)</text><polygon fill="#181818" points="1584,364.3828,1594,368.3828,1584,372.3828,1588,368.3828" style="stroke:#181818;stroke-width:1.0;"/><line style="stroke:#181818;stroke-width:1.0;" x1="1153.5" x2="1590" y1="368.3828" y2="368.3828"/><text fill="#000000" font-family="sans-serif" font-size="13" lengthAdjust="spacing" textLength="162" x="1160.5" y="347.1748">SELECT * FROM proyectos</text><text fill="#000000" font-family="sans-serif" font-size="13" lengthAdjust="spacing" textLength="218" x="1160.5" y="363.5264">WHERE id = ? AND archivado = false</text><polygon fill="#181818" points="1164.5,394.7344,1154.5,398.7344,1164.5,402.7344,1160.5,398.7344" style="stroke:#181818;stroke-width:1.0;"/><line style="stroke:#181818;stroke-width:1.0;stroke-dasharray:2.0,2.0;" x1="1158.5" x2="1595" y1="398.7344" y2="398.7344"/><text fill="#000000" font-family="sans-serif" font-size="13" lengthAdjust="spacing" textLength="93" x="1170.5" y="393.8779">Proyecto / vacio</text><polygon fill="#181818" points="964.5,425.0859,954.5,429.0859,964.5,433.0859,960.5,429.0859" style="stroke:#181818;stroke-width:1.0;"/><line style="stroke:#181818;stroke-width:1.0;stroke-dasharray:2.0,2.0;" x1="958.5" x2="1152.5" y1="429.0859" y2="429.0859"/><text fill="#000000" font-family="sans-serif" font-size="13" lengthAdjust="spacing" textLength="93" x="970.5" y="424.2295">Proyecto / vacio</text><polygon fill="#181818" points="1296,455.4375,1306,459.4375,1296,463.4375,1300,459.4375" style="stroke:#181818;stroke-width:1.0;"/><line style="stroke:#181818;stroke-width:1.0;" x1="953.5" x2="1302" y1="459.4375" y2="459.4375"/><text fill="#000000" font-family="sans-serif" font-size="13" lengthAdjust="spacing" textLength="253" x="960.5" y="454.5811">buscarActivosPorProyecto(proyectoId, filtro)</text><polygon fill="#181818" points="1584,518.4922,1594,522.4922,1584,526.4922,1588,522.4922" style="stroke:#181818;stroke-width:1.0;"/><line style="stroke:#181818;stroke-width:1.0;" x1="1308" x2="1590" y1="522.4922" y2="522.4922"/><text fill="#000000" font-family="sans-serif" font-size="13" lengthAdjust="spacing" textLength="172" x="1315" y="484.9326">SELECT * FROM entregables</text><text fill="#000000" font-family="sans-serif" font-size="13" lengthAdjust="spacing" textLength="264" x="1315" y="501.2842">WHERE proyecto_id = ? AND retirado = false</text><text fill="#000000" font-family="sans-serif" font-size="13" lengthAdjust="spacing" textLength="148" x="1315" y="517.6357">AND coincide_filtro = true</text><polygon fill="#181818" points="1319,548.8438,1309,552.8438,1319,556.8438,1315,552.8438" style="stroke:#181818;stroke-width:1.0;"/><line style="stroke:#181818;stroke-width:1.0;stroke-dasharray:2.0,2.0;" x1="1313" x2="1595" y1="552.8438" y2="552.8438"/><text fill="#000000" font-family="sans-serif" font-size="13" lengthAdjust="spacing" textLength="113" x="1325" y="547.9873">Entregables activos</text><polygon fill="#181818" points="964.5,579.1953,954.5,583.1953,964.5,587.1953,960.5,583.1953" style="stroke:#181818;stroke-width:1.0;"/><line style="stroke:#181818;stroke-width:1.0;stroke-dasharray:2.0,2.0;" x1="958.5" x2="1307" y1="583.1953" y2="583.1953"/><text fill="#000000" font-family="sans-serif" font-size="13" lengthAdjust="spacing" textLength="113" x="970.5" y="578.3389">Entregables activos</text><polygon fill="#181818" points="624.5,609.5469,614.5,613.5469,624.5,617.5469,620.5,613.5469" style="stroke:#181818;stroke-width:1.0;"/><line style="stroke:#181818;stroke-width:1.0;stroke-dasharray:2.0,2.0;" x1="618.5" x2="952.5" y1="613.5469" y2="613.5469"/><text fill="#000000" font-family="sans-serif" font-size="13" lengthAdjust="spacing" textLength="212" x="630.5" y="608.6904">List&lt;EntregableResumenResponse&gt;</text><polygon fill="#181818" points="306.5,639.8984,296.5,643.8984,306.5,647.8984,302.5,643.8984" style="stroke:#181818;stroke-width:1.0;"/><line style="stroke:#181818;stroke-width:1.0;stroke-dasharray:2.0,2.0;" x1="300.5" x2="612.5" y1="643.8984" y2="643.8984"/><text fill="#000000" font-family="sans-serif" font-size="13" lengthAdjust="spacing" textLength="44" x="312.5" y="639.042">200 OK</text><polygon fill="#181818" points="58.5,670.25,48.5,674.25,58.5,678.25,54.5,674.25" style="stroke:#181818;stroke-width:1.0;"/><line style="stroke:#181818;stroke-width:1.0;stroke-dasharray:2.0,2.0;" x1="52.5" x2="294.5" y1="674.25" y2="674.25"/><text fill="#000000" font-family="sans-serif" font-size="13" lengthAdjust="spacing" textLength="224" x="64.5" y="669.3936">Presenta ENTREGABLES_ABIERTOS</text><!--SRC=[XLJ1Rjf04BtxAqQSe2eYoX4rYMpifAWq81kf5oGqs1CoYhDhxIweKTL_xzZ6i2H1lQpjtVVUpdixQyUk98WPjmPV4Ge2I_cELCu8GmWtXWsGSeQsk2d9re3Aw3VAdGvG1WCJhKt12WjjWWgDuvmhL0vwoOcsm2sjL3ybeGnwW1RkZLQEL769Cf5beykIZF2ooh3QGgJrWHrMV4xCoB9M6PazvzH0sfbBykV8vlqSkZYOJAdIbiNdMuFrfozflwCqq08TRj0IzA9wb1HZTDesW3WA0Yz46DuUqnb3falPmY7W9qTHdiwYOzHiIMSC3yaIHbZng8FOqP_kTLhy7NbATqzSIjWtAoLbl32rNT349rArOXlc6EWtRzbunVPnvvv5YdDqWXW4BHA6NHc-CS6sq4AVX9linr2oTMWMsdG9zq_5VeMsm5gzWTTC_oJ6e3SYJIRC7U-rg4mBZpy8V71DZYD9DfabaoLyWVjq_lCOf5sfNz-JD04ku0Rk87oC0Kt-p7kfMcQUiBGKn57ZyBo6xWj6iCUSzRjTVRSVe9wnLcopipaU_DZ_nNBPbdVAdR5EOEqvDEJOU0PNgfxDDSj_eA1rkuyiEhCxcc_hz2uvO5jjyD7lPwYZvQvLPj82t_nhP7UlfEHHQMNfjcsPiyjnVNK5ynzUxykgrt1rpcGb0eJaSPac3s4qIx9r64sJT3dF_W40]--></g></svg>