<svg xmlns="http://www.w3.org/2000/svg" xmlns:xlink="http://www.w3.org/1999/xlink" contentStyleType="text/css" height="1018px" preserveAspectRatio="none" style="width:2276px;height:1018px;background:#FFFFFF;" version="1.1" viewBox="0 0 2276 1018" width="2276px" zoomAndPan="magnify"><title>Diagrama de secuencia - Abrir solicitudes de eliminaci&#243;n de perfil</title><defs/><g><text fill="#000000" font-family="sans-serif" font-size="14" font-weight="bold" lengthAdjust="spacing" textLength="438.0264" x="920.1135" y="29.5332">Diagrama de secuencia - Abrir solicitudes de eliminaci&#243;n de perfil</text><rect fill="#FFFFFF" height="772.4609" style="stroke:#181818;stroke-width:1;" width="10" x="443.8618" y="153.5703"/><rect fill="#FFFFFF" height="486.8125" style="stroke:#181818;stroke-width:1;" width="10" x="791.8506" y="243.625"/><rect fill="#FFFFFF" height="55.7031" style="stroke:#181818;stroke-width:1;" width="10" x="1078.9102" y="273.9766"/><rect fill="#FFFFFF" height="323.7031" style="stroke:#181818;stroke-width:1;" width="10" x="1186.9443" y="360.0313"/><rect fill="#FFFFFF" height="522.1641" style="stroke:#181818;stroke-width:1;" width="10" x="1506.3877" y="131.2188"/><rect fill="none" height="630.0547" style="stroke:#000000;stroke-width:1.5;" width="2259.2534" x="10" y="288.9766"/><rect fill="none" height="249" style="stroke:#000000;stroke-width:1.5;" width="1123.5986" x="1135.6548" y="375.0313"/><line style="stroke:#181818;stroke-width:0.5;stroke-dasharray:5.0,5.0;" x1="61" x2="61" y1="121.2188" y2="936.0313"/><line style="stroke:#181818;stroke-width:0.5;stroke-dasharray:5.0,5.0;" x1="447.9209" x2="447.9209" y1="121.2188" y2="936.0313"/><line style="stroke:#181818;stroke-width:0.5;stroke-dasharray:5.0,5.0;" x1="796.3062" x2="796.3062" y1="121.2188" y2="936.0313"/><line style="stroke:#181818;stroke-width:0.5;stroke-dasharray:5.0,5.0;" x1="1083.1655" x2="1083.1655" y1="121.2188" y2="936.0313"/><line style="stroke:#181818;stroke-width:0.5;stroke-dasharray:5.0,5.0;" x1="1191.6548" x2="1191.6548" y1="121.2188" y2="936.0313"/><line style="stroke:#181818;stroke-width:0.5;stroke-dasharray:5.0,5.0;" x1="1510.7295" x2="1510.7295" y1="121.2188" y2="936.0313"/><line style="stroke:#181818;stroke-width:0.5;stroke-dasharray:5.0,5.0;" x1="2199.4194" x2="2199.4194" y1="121.2188" y2="936.0313"/><text fill="#000000" font-family="sans-serif" font-size="14" lengthAdjust="spacing" textLength="77.0479" x="20" y="118.1426">Coordinador</text><ellipse cx="61.5239" cy="52.1094" fill="#E2E2F0" rx="8" ry="8" style="stroke:#181818;stroke-width:0.5;"/><path d="M61.5239,60.1094 L61.5239,87.1094 M48.5239,68.1094 L74.5239,68.1094 M61.5239,87.1094 L48.5239,102.1094 M61.5239,87.1094 L74.5239,102.1094 " fill="none" style="stroke:#181818;stroke-width:0.5;"/><text fill="#000000" font-family="sans-serif" font-size="14" lengthAdjust="spacing" textLength="77.0479" x="20" y="949.5645">Coordinador</text><ellipse cx="61.5239" cy="961.1406" fill="#E2E2F0" rx="8" ry="8" style="stroke:#181818;stroke-width:0.5;"/><path d="M61.5239,969.1406 L61.5239,996.1406 M48.5239,977.1406 L74.5239,977.1406 M61.5239,996.1406 L48.5239,1011.1406 M61.5239,996.1406 L74.5239,1011.1406 " fill="none" style="stroke:#181818;stroke-width:0.5;"/><rect fill="#E2E2F0" height="49.2188" rx="2.5" ry="2.5" style="stroke:#181818;stroke-width:0.5;" width="217.8818" x="339.9209" y="71"/><text fill="#000000" font-family="sans-serif" font-size="14" lengthAdjust="spacing" textLength="203.8818" x="346.9209" y="92.5332">SolicitudesEliminacionPerfilPage</text><text fill="#000000" font-family="sans-serif" font-size="14" lengthAdjust="spacing" textLength="45.8965" x="425.9136" y="110.1426">(React)</text><rect fill="#E2E2F0" height="49.2188" rx="2.5" ry="2.5" style="stroke:#181818;stroke-width:0.5;" width="217.8818" x="339.9209" y="935.0313"/><text fill="#000000" font-family="sans-serif" font-size="14" lengthAdjust="spacing" textLength="203.8818" x="346.9209" y="956.5645">SolicitudesEliminacionPerfilPage</text><text fill="#000000" font-family="sans-serif" font-size="14" lengthAdjust="spacing" textLength="45.8965" x="425.9136" y="974.1738">(React)</text><rect fill="#E2E2F0" height="49.2188" rx="2.5" ry="2.5" style="stroke:#181818;stroke-width:0.5;" width="231.0889" x="681.3062" y="71"/><text fill="#000000" font-family="sans-serif" font-size="14" lengthAdjust="spacing" textLength="217.0889" x="688.3062" y="92.5332">SolicitudEliminacionPerfilController</text><text fill="#000000" font-family="sans-serif" font-size="14" lengthAdjust="spacing" textLength="82.4824" x="755.6094" y="110.1426">(Spring Boot)</text><rect fill="#E2E2F0" height="49.2188" rx="2.5" ry="2.5" style="stroke:#181818;stroke-width:0.5;" width="231.0889" x="681.3062" y="935.0313"/><text fill="#000000" font-family="sans-serif" font-size="14" lengthAdjust="spacing" textLength="217.0889" x="688.3062" y="956.5645">SolicitudEliminacionPerfilController</text><text fill="#000000" font-family="sans-serif" font-size="14" lengthAdjust="spacing" textLength="82.4824" x="755.6094" y="974.1738">(Spring Boot)</text><rect fill="#E2E2F0" height="31.6094" rx="2.5" ry="2.5" style="stroke:#181818;stroke-width:0.5;" width="103.4893" x="1032.1655" y="88.6094"/><text fill="#000000" font-family="sans-serif" font-size="14" lengthAdjust="spacing" textLength="89.4893" x="1039.1655" y="110.1426">SesionService</text><rect fill="#E2E2F0" height="31.6094" rx="2.5" ry="2.5" style="stroke:#181818;stroke-width:0.5;" width="103.4893" x="1032.1655" y="935.0313"/><text fill="#000000" font-family="sans-serif" font-size="14" lengthAdjust="spacing" textLength="89.4893" x="1039.1655" y="956.5645">SesionService</text><rect fill="#E2E2F0" height="31.6094" rx="2.5" ry="2.5" style="stroke:#181818;stroke-width:0.5;" width="92.5791" x="1145.6548" y="88.6094"/><text fill="#000000" font-family="sans-serif" font-size="14" lengthAdjust="spacing" textLength="78.5791" x="1152.6548" y="110.1426">PerfilService</text><rect fill="#E2E2F0" height="31.6094" rx="2.5" ry="2.5" style="stroke:#181818;stroke-width:0.5;" width="92.5791" x="1145.6548" y="935.0313"/><text fill="#000000" font-family="sans-serif" font-size="14" lengthAdjust="spacing" textLength="78.5791" x="1152.6548" y="956.5645">PerfilService</text><rect fill="#E2E2F0" height="31.6094" rx="2.5" ry="2.5" style="stroke:#181818;stroke-width:0.5;" width="237.3164" x="1392.7295" y="88.6094"/><text fill="#000000" font-family="sans-serif" font-size="14" lengthAdjust="spacing" textLength="223.3164" x="1399.7295" y="110.1426">SolicitudEliminacionPerfilRepository</text><rect fill="#E2E2F0" height="31.6094" rx="2.5" ry="2.5" style="stroke:#181818;stroke-width:0.5;" width="237.3164" x="1392.7295" y="935.0313"/><text fill="#000000" font-family="sans-serif" font-size="14" lengthAdjust="spacing" textLength="223.3164" x="1399.7295" y="956.5645">SolicitudEliminacionPerfilRepository</text><text fill="#000000" font-family="sans-serif" font-size="14" lengthAdjust="spacing" textLength="91.834" x="2151.4194" y="118.1426">Base de Datos</text><path d="M2182.3364,67.6094 C2182.3364,57.6094 2200.3364,57.6094 2200.3364,57.6094 C2200.3364,57.6094 2218.3364,57.6094 2218.3364,67.6094 L2218.3364,93.6094 C2218.3364,103.6094 2200.3364,103.6094 2200.3364,103.6094 C2200.3364,103.6094 2182.3364,103.6094 2182.3364,93.6094 L2182.3364,67.6094 " fill="#E2E2F0" style="stroke:#181818;stroke-width:1.5;"/><path d="M2182.3364,67.6094 C2182.3364,77.6094 2200.3364,77.6094 2200.3364,77.6094 C2200.3364,77.6094 2218.3364,77.6094 2218.3364,67.6094 " fill="none" style="stroke:#181818;stroke-width:1.5;"/><text fill="#000000" font-family="sans-serif" font-size="14" lengthAdjust="spacing" textLength="91.834" x="2151.4194" y="949.5645">Base de Datos</text><path d="M2182.3364,962.6406 C2182.3364,952.6406 2200.3364,952.6406 2200.3364,952.6406 C2200.3364,952.6406 2218.3364,952.6406 2218.3364,962.6406 L2218.3364,988.6406 C2218.3364,998.6406 2200.3364,998.6406 2200.3364,998.6406 C2200.3364,998.6406 2182.3364,998.6406 2182.3364,988.6406 L2182.3364,962.6406 " fill="#E2E2F0" style="stroke:#181818;stroke-width:1.5;"/><path d="M2182.3364,962.6406 C2182.3364,972.6406 2200.3364,972.6406 2200.3364,972.6406 C2200.3364,972.6406 2218.3364,972.6406 2218.3364,962.6406 " fill="none" style="stroke:#181818;stroke-width:1.5;"/><rect fill="#FFFFFF" height="772.4609" style="stroke:#181818;stroke-width:1;" width="10" x="443.8618" y="153.5703"/><rect fill="#FFFFFF" height="486.8125" style="stroke:#181818;stroke-width:1;" width="10" x="791.8506" y="243.625"/><rect fill="#FFFFFF" height="55.7031" style="stroke:#181818;stroke-width:1;" width="10" x="1078.9102" y="273.9766"/><rect fill="#FFFFFF" height="323.7031" style="stroke:#181818;stroke-width:1;" width="10" x="1186.9443" y="360.0313"/><rect fill="#FFFFFF" height="522.1641" style="stroke:#181818;stroke-width:1;" width="10" x="1506.3877" y="131.2188"/><polygon fill="#181818" points="431.8618,149.5703,441.8618,153.5703,431.8618,157.5703,435.8618,153.5703" style="stroke:#181818;stroke-width:1;"/><line style="stroke:#181818;stroke-width:1;" x1="61.5239" x2="437.8618" y1="153.5703" y2="153.5703"/><text fill="#000000" font-family="sans-serif" font-size="13" lengthAdjust="spacing" textLength="222.5488" x="68.5239" y="148.7139">Solicita abrir solicitudes de eliminaci&#243;n</text><line style="stroke:#181818;stroke-width:1;" x1="453.8618" x2="495.8618" y1="183.9219" y2="183.9219"/><line style="stroke:#181818;stroke-width:1;" x1="495.8618" x2="495.8618" y1="183.9219" y2="196.9219"/><line style="stroke:#181818;stroke-width:1;" x1="454.8618" x2="495.8618" y1="196.9219" y2="196.9219"/><polygon fill="#181818" points="464.8618,192.9219,454.8618,196.9219,464.8618,200.9219,460.8618,196.9219" style="stroke:#181818;stroke-width:1;"/><text fill="#000000" font-family="sans-serif" font-size="13" lengthAdjust="spacing" textLength="136.5635" x="460.8618" y="179.0654">Comprobar sesi&#243;n local</text><polygon fill="#181818" points="779.8506,239.625,789.8506,243.625,779.8506,247.625,783.8506,243.625" style="stroke:#181818;stroke-width:1;"/><line style="stroke:#181818;stroke-width:1;" x1="453.8618" x2="785.8506" y1="243.625" y2="243.625"/><text fill="#000000" font-family="sans-serif" font-size="13" lengthAdjust="spacing" textLength="318.9888" x="460.8618" y="222.417">GET /api/solicitudes-eliminacion-perfil?criterio={criterio}</text><text fill="#000000" font-family="sans-serif" font-size="13" lengthAdjust="spacing" textLength="99.728" x="460.8618" y="238.7686">Cookie de sesi&#243;n</text><polygon fill="#181818" points="1066.9102,269.9766,1076.9102,273.9766,1066.9102,277.9766,1070.9102,273.9766" style="stroke:#181818;stroke-width:1;"/><line style="stroke:#181818;stroke-width:1;" x1="801.8506" x2="1072.9102" y1="273.9766" y2="273.9766"/><text fill="#000000" font-family="sans-serif" font-size="13" lengthAdjust="spacing" textLength="209.5806" x="808.8506" y="269.1201">obtenerSesionActual(authentication)</text><path d="M10,288.9766 L70.1709,288.9766 L70.1709,297.3281 L60.1709,307.3281 L10,307.3281 L10,288.9766 " fill="#EEEEEE" style="stroke:#000000;stroke-width:1.5;"/><rect fill="none" height="630.0547" style="stroke:#000000;stroke-width:1.5;" width="2259.2534" x="10" y="288.9766"/><text fill="#000000" font-family="sans-serif" font-size="13" font-weight="bold" lengthAdjust="spacing" textLength="15.1709" x="25" y="303.4717">alt</text><text fill="#000000" font-family="sans-serif" font-size="11" font-weight="bold" lengthAdjust="spacing" textLength="162.583" x="85.1709" y="302.3955">[Sesi&#243;n de Coordinador activa]</text><polygon fill="#181818" points="812.8506,325.6797,802.8506,329.6797,812.8506,333.6797,808.8506,329.6797" style="stroke:#181818;stroke-width:1;"/><line style="stroke:#181818;stroke-width:1;stroke-dasharray:2.0,2.0;" x1="806.8506" x2="1082.9102" y1="329.6797" y2="329.6797"/><text fill="#000000" font-family="sans-serif" font-size="13" lengthAdjust="spacing" textLength="98.2871" x="818.8506" y="324.8232">SesionResponse</text><polygon fill="#181818" points="1174.9443,356.0313,1184.9443,360.0313,1174.9443,364.0313,1178.9443,360.0313" style="stroke:#181818;stroke-width:1;"/><line style="stroke:#181818;stroke-width:1;" x1="801.8506" x2="1180.9443" y1="360.0313" y2="360.0313"/><text fill="#000000" font-family="sans-serif" font-size="13" lengthAdjust="spacing" textLength="203.0298" x="808.8506" y="355.1748">listarSolicitudesPendientes(criterio)</text><path d="M1135.6548,375.0313 L1195.8257,375.0313 L1195.8257,383.3828 L1185.8257,393.3828 L1135.6548,393.3828 L1135.6548,375.0313 " fill="#EEEEEE" style="stroke:#000000;stroke-width:1.5;"/><rect fill="none" height="249" style="stroke:#000000;stroke-width:1.5;" width="1123.5986" x="1135.6548" y="375.0313"/><text fill="#000000" font-family="sans-serif" font-size="13" font-weight="bold" lengthAdjust="spacing" textLength="15.1709" x="1150.6548" y="389.5264">alt</text><text fill="#000000" font-family="sans-serif" font-size="11" font-weight="bold" lengthAdjust="spacing" textLength="64.7861" x="1210.8257" y="388.4502">[Sin criterio]</text><polygon fill="#181818" points="1494.3877,411.7344,1504.3877,415.7344,1494.3877,419.7344,1498.3877,415.7344" style="stroke:#181818;stroke-width:1;"/><line style="stroke:#181818;stroke-width:1;" x1="1196.9443" x2="1500.3877" y1="415.7344" y2="415.7344"/><text fill="#000000" font-family="sans-serif" font-size="13" lengthAdjust="spacing" textLength="251.437" x="1203.9443" y="410.8779">findByEstadoOrderByFechaCreacionDesc()</text><polygon fill="#181818" points="2188.3364,442.0859,2198.3364,446.0859,2188.3364,450.0859,2192.3364,446.0859" style="stroke:#181818;stroke-width:1;"/><line style="stroke:#181818;stroke-width:1;" x1="1516.3877" x2="2194.3364" y1="446.0859" y2="446.0859"/><text fill="#000000" font-family="sans-serif" font-size="13" lengthAdjust="spacing" textLength="664.9487" x="1523.3877" y="441.2295">SELECT * FROM solicitudes_eliminacion_perfil WHERE estado = 'PENDIENTE' ORDER BY fecha_creacion DESC</text><polygon fill="#181818" points="1527.3877,472.4375,1517.3877,476.4375,1527.3877,480.4375,1523.3877,476.4375" style="stroke:#181818;stroke-width:1;"/><line style="stroke:#181818;stroke-width:1;stroke-dasharray:2.0,2.0;" x1="1521.3877" x2="2199.3364" y1="476.4375" y2="476.4375"/><text fill="#000000" font-family="sans-serif" font-size="13" lengthAdjust="spacing" textLength="149.5889" x="1533.3877" y="471.5811">Resultado de persistencia</text><line style="stroke:#000000;stroke-width:1;stroke-dasharray:2.0,2.0;" x1="1135.6548" x2="2259.2534" y1="485.4375" y2="485.4375"/><text fill="#000000" font-family="sans-serif" font-size="11" font-weight="bold" lengthAdjust="spacing" textLength="69.0562" x="1140.6548" y="496.8564">[Con criterio]</text><polygon fill="#181818" points="1494.3877,518.625,1504.3877,522.625,1494.3877,526.625,1498.3877,522.625" style="stroke:#181818;stroke-width:1;"/><line style="stroke:#181818;stroke-width:1;" x1="1196.9443" x2="1500.3877" y1="522.625" y2="522.625"/><text fill="#000000" font-family="sans-serif" font-size="13" lengthAdjust="spacing" textLength="290.4434" x="1203.9443" y="517.7686">findByEstadoOrderByFechaCreacionDesc(criterio)</text><polygon fill="#181818" points="2188.3364,581.6797,2198.3364,585.6797,2188.3364,589.6797,2192.3364,585.6797" style="stroke:#181818;stroke-width:1;"/><line style="stroke:#181818;stroke-width:1;" x1="1516.3877" x2="2194.3364" y1="585.6797" y2="585.6797"/><text fill="#000000" font-family="sans-serif" font-size="13" lengthAdjust="spacing" textLength="522.7358" x="1523.3877" y="548.1201">SELECT s.* FROM solicitudes_eliminacion_perfil s JOIN usuarios u ON u.id = s.usuario_id</text><text fill="#000000" font-family="sans-serif" font-size="13" lengthAdjust="spacing" textLength="626.6089" x="1523.3877" y="564.4717">WHERE s.estado = 'PENDIENTE' AND (LOWER(u.nombre_completo) LIKE ? OR LOWER(s.motivo) LIKE ?)</text><text fill="#000000" font-family="sans-serif" font-size="13" lengthAdjust="spacing" textLength="209.5234" x="1523.3877" y="580.8232">ORDER BY s.fecha_creacion DESC</text><polygon fill="#181818" points="1527.3877,612.0313,1517.3877,616.0313,1527.3877,620.0313,1523.3877,616.0313" style="stroke:#181818;stroke-width:1;"/><line style="stroke:#181818;stroke-width:1;stroke-dasharray:2.0,2.0;" x1="1521.3877" x2="2199.3364" y1="616.0313" y2="616.0313"/><text fill="#000000" font-family="sans-serif" font-size="13" lengthAdjust="spacing" textLength="149.5889" x="1533.3877" y="611.1748">Resultado de persistencia</text><polygon fill="#181818" points="1207.9443,649.3828,1197.9443,653.3828,1207.9443,657.3828,1203.9443,653.3828" style="stroke:#181818;stroke-width:1;"/><line style="stroke:#181818;stroke-width:1;stroke-dasharray:2.0,2.0;" x1="1201.9443" x2="1510.3877" y1="653.3828" y2="653.3828"/><text fill="#000000" font-family="sans-serif" font-size="13" lengthAdjust="spacing" textLength="180.6416" x="1213.9443" y="648.5264">List&lt;SolicitudEliminacionPerfil&gt;</text><polygon fill="#181818" points="812.8506,679.7344,802.8506,683.7344,812.8506,687.7344,808.8506,683.7344" style="stroke:#181818;stroke-width:1;"/><line style="stroke:#181818;stroke-width:1;stroke-dasharray:2.0,2.0;" x1="806.8506" x2="1190.9443" y1="683.7344" y2="683.7344"/><text fill="#000000" font-family="sans-serif" font-size="13" lengthAdjust="spacing" textLength="217.4961" x="818.8506" y="678.8779">SolicitudesEliminacionPerfilResponse</text><polygon fill="#181818" points="464.8618,726.4375,454.8618,730.4375,464.8618,734.4375,460.8618,730.4375" style="stroke:#181818;stroke-width:1;"/><line style="stroke:#181818;stroke-width:1;stroke-dasharray:2.0,2.0;" x1="458.8618" x2="795.8506" y1="730.4375" y2="730.4375"/><text fill="#000000" font-family="sans-serif" font-size="13" lengthAdjust="spacing" textLength="44.0845" x="470.8618" y="709.2295">200 OK</text><text fill="#000000" font-family="sans-serif" font-size="13" lengthAdjust="spacing" textLength="217.4961" x="470.8618" y="725.5811">SolicitudesEliminacionPerfilResponse</text><line style="stroke:#181818;stroke-width:1;" x1="453.8618" x2="495.8618" y1="760.7891" y2="760.7891"/><line style="stroke:#181818;stroke-width:1;" x1="495.8618" x2="495.8618" y1="760.7891" y2="773.7891"/><line style="stroke:#181818;stroke-width:1;" x1="454.8618" x2="495.8618" y1="773.7891" y2="773.7891"/><polygon fill="#181818" points="464.8618,769.7891,454.8618,773.7891,464.8618,777.7891,460.8618,773.7891" style="stroke:#181818;stroke-width:1;"/><text fill="#000000" font-family="sans-serif" font-size="13" lengthAdjust="spacing" textLength="172.6943" x="460.8618" y="755.9326">Renderizar lista de solicitudes</text><polygon fill="#181818" points="72.5239,800.1406,62.5239,804.1406,72.5239,808.1406,68.5239,804.1406" style="stroke:#181818;stroke-width:1;"/><line style="stroke:#181818;stroke-width:1;stroke-dasharray:2.0,2.0;" x1="66.5239" x2="442.8618" y1="804.1406" y2="804.1406"/><text fill="#000000" font-family="sans-serif" font-size="13" lengthAdjust="spacing" textLength="358.3379" x="78.5239" y="799.2842">Presenta SOLICITUDES_ELIMINACION_PERFIL_ABIERTAS</text><line style="stroke:#000000;stroke-width:1;stroke-dasharray:2.0,2.0;" x1="10" x2="2269.2534" y1="813.1406" y2="813.1406"/><text fill="#000000" font-family="sans-serif" font-size="11" font-weight="bold" lengthAdjust="spacing" textLength="190.0723" x="15" y="824.5596">[Sesi&#243;n ausente o rol no autorizado]</text><polygon fill="#181818" points="807.8506,846.3281,797.8506,850.3281,807.8506,854.3281,803.8506,850.3281" style="stroke:#181818;stroke-width:1;"/><line style="stroke:#181818;stroke-width:1;stroke-dasharray:2.0,2.0;" x1="801.8506" x2="1082.9102" y1="850.3281" y2="850.3281"/><text fill="#000000" font-family="sans-serif" font-size="13" lengthAdjust="spacing" textLength="263.0596" x="813.8506" y="845.4717">SesionNoValidaException / AccesoDenegado</text><polygon fill="#181818" points="464.8618,876.6797,454.8618,880.6797,464.8618,884.6797,460.8618,880.6797" style="stroke:#181818;stroke-width:1;"/><line style="stroke:#181818;stroke-width:1;stroke-dasharray:2.0,2.0;" x1="458.8618" x2="795.8506" y1="880.6797" y2="880.6797"/><text fill="#000000" font-family="sans-serif" font-size="13" lengthAdjust="spacing" textLength="197.3042" x="470.8618" y="875.8232">401 Unauthorized / 403 Forbidden</text><polygon fill="#181818" points="72.5239,907.0313,62.5239,911.0313,72.5239,915.0313,68.5239,911.0313" style="stroke:#181818;stroke-width:1;"/><line style="stroke:#181818;stroke-width:1;stroke-dasharray:2.0,2.0;" x1="66.5239" x2="442.8618" y1="911.0313" y2="911.0313"/><text fill="#000000" font-family="sans-serif" font-size="13" lengthAdjust="spacing" textLength="145.9644" x="78.5239" y="906.1748">Presenta error de acceso</text><!--SRC=[jLNXZjeu4FwVfnZjdq8bs6sllz1rAq9CBoqbAB1NLK929fdTMWrsP2TLzqvzgZx2lTYD7K8I5dQhIaKYIfoPRoRVD_vSY29320I_qtp78KKmc9Ge4y5X0EEj5XgCoaGYYZ95OmCm4piXUIB- -o7jSuxwLcIUnvD2QPWefLDwdIhjvLmNb9bpMS35ia5XDOAI2vUyu7UubhqO2QD_0Tp0L2jPe4pFO3n0c52uLbc6cd2MkHRo3dobzcZZN1m1eQ7K9Ugl8a4NKgrqeoheJbJTm7xnPzkBCLT643_tNPXctKjvmRVS85puzah41hnGniK7lkUrY8N1zO6WKGt6WJ-bbfL8VEK5DlJMDrt8YThbMcqveH4jLkTC9JphH1Ed8tZBLd39St7PgZh0vki7rN2yIRGeK0lr-j_wxljQqXTz4LZDdEdsPmMZlwrJ2JC2jQNAgAl7SLAKFElnilYCaWJW1Itsc_ozcZmhtEr-KjiKLg4UqAyAXa7zKTLpZ2PNqg0BIV4OsgxM7HuDnGWoOGgkMnE_8D84TOgcLnFGTn0DxF5akRUsVo6Xpd6BhkMZw4uRpL2Du5R8rBzdr4wg8fsYzk-dc7pc4urEe01Dqki_n6qmB7JW4ojinYOhU0xJEFhGdh9DI-zDfJTy_8l53D2LXTVmRC7cGSZcA_OCeZXWCVYVuDRsiKdsZK30bfD37u7lv3ZvIIHCcJdWodmCaUqCosLZPgpGlvsphenFysQ6FyUSWNTHE8VIb9pG3PGGqTDGf4IZ6UwNDo9ToufZCpp9ydWUG6yMVMHnhnnAjTjgt2IqgpCiL1zcuNi6RqWAg4BCSATe3Wzl-cjvaCaCVvDGv3wdTq3B5CzoUtBRpQZ0d-TD-Fh1Ldwguc5I3jRmo25srZ1ExMnd7HtFVNbr1T7xjVoL4jOkxT9fDu_fIgFw3zcvCoRdk4sLeqnARVda21OQ3JaNXsKq2oVXweRqtx1P-26SZoTXDDyiM3mDPvkn7x9uDLvwRWVMhijBcuoWW4vda8eMY6Rg9LMFUEzS_SqpaNBsBS7SMZjSmZX9qAY0pe2xElaHL-uGyEhg1Tn8UrZOqfWIsgkhFs2gz5QaASgdwJnB2cfDXmaHobrxdftg5bADy3y0]--></g></svg>