<svg xmlns="http://www.w3.org/2000/svg" xmlns:xlink="http://www.w3.org/1999/xlink" contentStyleType="text/css" data-diagram-type="SEQUENCE" height="880px" preserveAspectRatio="none" style="width:1370px;height:880px;background:#FFFFFF;" version="1.1" viewBox="0 0 1370 880" width="1370px" zoomAndPan="magnify"><title>Diagrama de secuencia - Abrir opciones de perfil del Coordinador</title><defs/><g><text fill="#000000" font-family="sans-serif" font-size="14" font-weight="bold" lengthAdjust="spacing" textLength="437.2129" x="467.7471" y="29.5332">Diagrama de secuencia - Abrir opciones de perfil del Coordinador</text><g><title>PerfilPage</title><rect fill="#FFFFFF" height="634.7031" style="stroke:#181818;stroke-width:1;" width="10" x="391.8809" y="153.5703"/></g><g><title>PerfilController</title><rect fill="#FFFFFF" height="461.4609" style="stroke:#181818;stroke-width:1;" width="10" x="618.1851" y="131.2188"/></g><g><title>SesionService</title><rect fill="#FFFFFF" height="55.7031" style="stroke:#181818;stroke-width:1;" width="10" x="905.2446" y="368.8672"/></g><g><title>PerfilService</title><rect fill="#FFFFFF" height="91.0547" style="stroke:#181818;stroke-width:1;" width="10" x="1013.2788" y="454.9219"/></g><g><title>PerfilRepository</title><rect fill="#FFFFFF" height="30.3516" style="stroke:#181818;stroke-width:1;" width="10" x="1292.3003" y="485.2734"/></g><rect fill="none" height="127.5938" style="stroke:#000000;stroke-width:1.5;" width="338.8936" x="347.5845" y="211.9219"/><rect fill="none" height="397.4063" style="stroke:#000000;stroke-width:1.5;" width="1353.707" x="10" y="383.8672"/><g><title>Coordinador</title><rect fill="#000000" fill-opacity="0.00000" height="677.0547" width="8" x="57.5239" y="121.2188"/><line style="stroke:#181818;stroke-width:0.5;stroke-dasharray:5,5;" x1="61" x2="61" y1="121.2188" y2="798.2734"/></g><g><title>PerfilPage</title><rect fill="#000000" fill-opacity="0.00000" height="677.0547" width="8" x="392.8809" y="121.2188"/><line style="stroke:#181818;stroke-width:0.5;stroke-dasharray:5,5;" x1="396.5845" x2="396.5845" y1="121.2188" y2="798.2734"/></g><g><title>PerfilController</title><rect fill="#000000" fill-opacity="0.00000" height="677.0547" width="8" x="619.1851" y="121.2188"/><line style="stroke:#181818;stroke-width:0.5;stroke-dasharray:5,5;" x1="622.8921" x2="622.8921" y1="121.2188" y2="798.2734"/></g><g><title>SesionService</title><rect fill="#000000" fill-opacity="0.00000" height="677.0547" width="8" x="906.2446" y="121.2188"/><line style="stroke:#181818;stroke-width:0.5;stroke-dasharray:5,5;" x1="909.5" x2="909.5" y1="121.2188" y2="798.2734"/></g><g><title>PerfilService</title><rect fill="#000000" fill-opacity="0.00000" height="677.0547" width="8" x="1014.2788" y="121.2188"/><line style="stroke:#181818;stroke-width:0.5;stroke-dasharray:5,5;" x1="1017.9893" x2="1017.9893" y1="121.2188" y2="798.2734"/></g><g><title>PerfilRepository</title><rect fill="#000000" fill-opacity="0.00000" height="677.0547" width="8" x="1293.3003" y="121.2188"/><line style="stroke:#181818;stroke-width:0.5;stroke-dasharray:5,5;" x1="1296.8936" x2="1296.8936" y1="121.2188" y2="798.2734"/></g><g class="participant participant-head" data-participant="Coordinador"><text fill="#000000" font-family="sans-serif" font-size="14" lengthAdjust="spacing" textLength="77.0479" x="20" y="118.1426">Coordinador</text><ellipse cx="61.5239" cy="52.1094" fill="#E2E2F0" rx="8" ry="8" style="stroke:#181818;stroke-width:0.5;"/><path d="M61.5239,60.1094 L61.5239,87.1094 M48.5239,68.1094 L74.5239,68.1094 M61.5239,87.1094 L48.5239,102.1094 M61.5239,87.1094 L74.5239,102.1094" fill="none" style="stroke:#181818;stroke-width:0.5;"/></g><g class="participant participant-tail" data-participant="Coordinador"><text fill="#000000" font-family="sans-serif" font-size="14" lengthAdjust="spacing" textLength="77.0479" x="20" y="811.8066">Coordinador</text><ellipse cx="61.5239" cy="823.3828" fill="#E2E2F0" rx="8" ry="8" style="stroke:#181818;stroke-width:0.5;"/><path d="M61.5239,831.3828 L61.5239,858.3828 M48.5239,839.3828 L74.5239,839.3828 M61.5239,858.3828 L48.5239,873.3828 M61.5239,858.3828 L74.5239,873.3828" fill="none" style="stroke:#181818;stroke-width:0.5;"/></g><g class="participant participant-head" data-participant="Frontend"><rect fill="#E2E2F0" height="49.2188" rx="2.5" ry="2.5" style="stroke:#181818;stroke-width:0.5;" width="78.5928" x="357.5845" y="71"/><text fill="#000000" font-family="sans-serif" font-size="14" lengthAdjust="spacing" textLength="64.5928" x="364.5845" y="92.5332">PerfilPage</text><text fill="#000000" font-family="sans-serif" font-size="14" lengthAdjust="spacing" textLength="45.8965" x="373.9326" y="110.1426">(React)</text></g><g class="participant participant-tail" data-participant="Frontend"><rect fill="#E2E2F0" height="49.2188" rx="2.5" ry="2.5" style="stroke:#181818;stroke-width:0.5;" width="78.5928" x="357.5845" y="797.2734"/><text fill="#000000" font-family="sans-serif" font-size="14" lengthAdjust="spacing" textLength="64.5928" x="364.5845" y="818.8066">PerfilPage</text><text fill="#000000" font-family="sans-serif" font-size="14" lengthAdjust="spacing" textLength="45.8965" x="373.9326" y="836.416">(React)</text></g><g class="participant participant-head" data-participant="Api"><rect fill="#E2E2F0" height="49.2188" rx="2.5" ry="2.5" style="stroke:#181818;stroke-width:0.5;" width="106.5859" x="569.8921" y="71"/><text fill="#000000" font-family="sans-serif" font-size="14" lengthAdjust="spacing" textLength="92.5859" x="576.8921" y="92.5332">PerfilController</text><text fill="#000000" font-family="sans-serif" font-size="14" lengthAdjust="spacing" textLength="82.4824" x="581.9438" y="110.1426">(Spring Boot)</text></g><g class="participant participant-tail" data-participant="Api"><rect fill="#E2E2F0" height="49.2188" rx="2.5" ry="2.5" style="stroke:#181818;stroke-width:0.5;" width="106.5859" x="569.8921" y="797.2734"/><text fill="#000000" font-family="sans-serif" font-size="14" lengthAdjust="spacing" textLength="92.5859" x="576.8921" y="818.8066">PerfilController</text><text fill="#000000" font-family="sans-serif" font-size="14" lengthAdjust="spacing" textLength="82.4824" x="581.9438" y="836.416">(Spring Boot)</text></g><g class="participant participant-head" data-participant="Sesion"><rect fill="#E2E2F0" height="31.6094" rx="2.5" ry="2.5" style="stroke:#181818;stroke-width:0.5;" width="103.4893" x="858.5" y="88.6094"/><text fill="#000000" font-family="sans-serif" font-size="14" lengthAdjust="spacing" textLength="89.4893" x="865.5" y="110.1426">SesionService</text></g><g class="participant participant-tail" data-participant="Sesion"><rect fill="#E2E2F0" height="31.6094" rx="2.5" ry="2.5" style="stroke:#181818;stroke-width:0.5;" width="103.4893" x="858.5" y="797.2734"/><text fill="#000000" font-family="sans-serif" font-size="14" lengthAdjust="spacing" textLength="89.4893" x="865.5" y="818.8066">SesionService</text></g><g class="participant participant-head" data-participant="PerfilService"><rect fill="#E2E2F0" height="31.6094" rx="2.5" ry="2.5" style="stroke:#181818;stroke-width:0.5;" width="92.5791" x="971.9893" y="88.6094"/><text fill="#000000" font-family="sans-serif" font-size="14" lengthAdjust="spacing" textLength="78.5791" x="978.9893" y="110.1426">PerfilService</text></g><g class="participant participant-tail" data-participant="PerfilService"><rect fill="#E2E2F0" height="31.6094" rx="2.5" ry="2.5" style="stroke:#181818;stroke-width:0.5;" width="92.5791" x="971.9893" y="797.2734"/><text fill="#000000" font-family="sans-serif" font-size="14" lengthAdjust="spacing" textLength="78.5791" x="978.9893" y="818.8066">PerfilService</text></g><g class="participant participant-head" data-participant="PerfilRepository"><rect fill="#E2E2F0" height="31.6094" rx="2.5" ry="2.5" style="stroke:#181818;stroke-width:0.5;" width="112.8135" x="1240.8936" y="88.6094"/><text fill="#000000" font-family="sans-serif" font-size="14" lengthAdjust="spacing" textLength="98.8135" x="1247.8936" y="110.1426">PerfilRepository</text></g><g class="participant participant-tail" data-participant="PerfilRepository"><rect fill="#E2E2F0" height="31.6094" rx="2.5" ry="2.5" style="stroke:#181818;stroke-width:0.5;" width="112.8135" x="1240.8936" y="797.2734"/><text fill="#000000" font-family="sans-serif" font-size="14" lengthAdjust="spacing" textLength="98.8135" x="1247.8936" y="818.8066">PerfilRepository</text></g><g><title>PerfilPage</title><rect fill="#FFFFFF" height="634.7031" style="stroke:#181818;stroke-width:1;" width="10" x="391.8809" y="153.5703"/></g><g><title>PerfilController</title><rect fill="#FFFFFF" height="461.4609" style="stroke:#181818;stroke-width:1;" width="10" x="618.1851" y="131.2188"/></g><g><title>SesionService</title><rect fill="#FFFFFF" height="55.7031" style="stroke:#181818;stroke-width:1;" width="10" x="905.2446" y="368.8672"/></g><g><title>PerfilService</title><rect fill="#FFFFFF" height="91.0547" style="stroke:#181818;stroke-width:1;" width="10" x="1013.2788" y="454.9219"/></g><g><title>PerfilRepository</title><rect fill="#FFFFFF" height="30.3516" style="stroke:#181818;stroke-width:1;" width="10" x="1292.3003" y="485.2734"/></g><g class="message" data-participant-1="Coordinador" data-participant-2="Frontend"><polygon fill="#181818" points="379.8809,149.5703,389.8809,153.5703,379.8809,157.5703,383.8809,153.5703" style="stroke:#181818;stroke-width:1;"/><line style="stroke:#181818;stroke-width:1;" x1="61.5239" x2="385.8809" y1="153.5703" y2="153.5703"/><text fill="#000000" font-family="sans-serif" font-size="13" lengthAdjust="spacing" textLength="177.0361" x="68.5239" y="148.7139">Solicita abrir opciones de perfil</text></g><g class="message" data-participant-1="Frontend" data-participant-2="Frontend"><line style="stroke:#181818;stroke-width:1;" x1="401.8809" x2="443.8809" y1="183.9219" y2="183.9219"/><line style="stroke:#181818;stroke-width:1;" x1="443.8809" x2="443.8809" y1="183.9219" y2="196.9219"/><line style="stroke:#181818;stroke-width:1;" x1="402.8809" x2="443.8809" y1="196.9219" y2="196.9219"/><polygon fill="#181818" points="412.8809,192.9219,402.8809,196.9219,412.8809,200.9219,408.8809,196.9219" style="stroke:#181818;stroke-width:1;"/><text fill="#000000" font-family="sans-serif" font-size="13" lengthAdjust="spacing" textLength="142.3335" x="408.8809" y="179.0654">Comprobar sesi&#195;&#179;n local</text></g><path d="M347.5845,211.9219 L407.7554,211.9219 L407.7554,220.2734 L397.7554,230.2734 L347.5845,230.2734 L347.5845,211.9219" fill="#EEEEEE" style="stroke:#000000;stroke-width:1.5;"/><rect fill="none" height="127.5938" style="stroke:#000000;stroke-width:1.5;" width="338.8936" x="347.5845" y="211.9219"/><text fill="#000000" font-family="sans-serif" font-size="13" font-weight="bold" lengthAdjust="spacing" textLength="15.1709" x="362.5845" y="226.417">alt</text><text fill="#000000" font-family="sans-serif" font-size="11" font-weight="bold" lengthAdjust="spacing" textLength="72.1069" x="422.7554" y="225.3408">[Perfil propio]</text><g class="message" data-participant-1="Frontend" data-participant-2="Api"><polygon fill="#181818" points="606.1851,264.9766,616.1851,268.9766,606.1851,272.9766,610.1851,268.9766" style="stroke:#181818;stroke-width:1;"/><line style="stroke:#181818;stroke-width:1;" x1="401.8809" x2="612.1851" y1="268.9766" y2="268.9766"/><text fill="#000000" font-family="sans-serif" font-size="13" lengthAdjust="spacing" textLength="83.0845" x="408.8809" y="247.7686">GET /api/perfil</text><text fill="#000000" font-family="sans-serif" font-size="13" lengthAdjust="spacing" textLength="105.498" x="408.8809" y="264.1201">Cookie de sesi&#195;&#179;n</text></g><line style="stroke:#000000;stroke-width:1;stroke-dasharray:2,2;" x1="347.5845" x2="686.478" y1="277.9766" y2="277.9766"/><text fill="#000000" font-family="sans-serif" font-size="11" font-weight="bold" lengthAdjust="spacing" textLength="119.1899" x="352.5845" y="289.3955">[Perfil de investigador]</text><g class="message" data-participant-1="Frontend" data-participant-2="Api"><polygon fill="#181818" points="606.1851,327.5156,616.1851,331.5156,606.1851,335.5156,610.1851,331.5156" style="stroke:#181818;stroke-width:1;"/><line style="stroke:#181818;stroke-width:1;" x1="401.8809" x2="612.1851" y1="331.5156" y2="331.5156"/><text fill="#000000" font-family="sans-serif" font-size="13" lengthAdjust="spacing" textLength="148.1289" x="408.8809" y="310.3076">GET /api/perfiles/{perfilId}</text><text fill="#000000" font-family="sans-serif" font-size="13" lengthAdjust="spacing" textLength="105.498" x="408.8809" y="326.6592">Cookie de sesi&#195;&#179;n</text></g><g class="message" data-participant-1="Api" data-participant-2="Sesion"><polygon fill="#181818" points="893.2446,364.8672,903.2446,368.8672,893.2446,372.8672,897.2446,368.8672" style="stroke:#181818;stroke-width:1;"/><line style="stroke:#181818;stroke-width:1;" x1="628.1851" x2="899.2446" y1="368.8672" y2="368.8672"/><text fill="#000000" font-family="sans-serif" font-size="13" lengthAdjust="spacing" textLength="209.5806" x="635.1851" y="364.0107">obtenerSesionActual(authentication)</text></g><path d="M10,383.8672 L70.1709,383.8672 L70.1709,392.2188 L60.1709,402.2188 L10,402.2188 L10,383.8672" fill="#EEEEEE" style="stroke:#000000;stroke-width:1.5;"/><rect fill="none" height="397.4063" style="stroke:#000000;stroke-width:1.5;" width="1353.707" x="10" y="383.8672"/><text fill="#000000" font-family="sans-serif" font-size="13" font-weight="bold" lengthAdjust="spacing" textLength="15.1709" x="25" y="398.3623">alt</text><text fill="#000000" font-family="sans-serif" font-size="11" font-weight="bold" lengthAdjust="spacing" textLength="167.4707" x="85.1709" y="397.2861">[Sesi&#195;&#179;n de Coordinador activa]</text><g class="message" data-participant-1="Sesion" data-participant-2="Api"><polygon fill="#181818" points="639.1851,420.5703,629.1851,424.5703,639.1851,428.5703,635.1851,424.5703" style="stroke:#181818;stroke-width:1;"/><line style="stroke:#181818;stroke-width:1;stroke-dasharray:2,2;" x1="633.1851" x2="909.2446" y1="424.5703" y2="424.5703"/><text fill="#000000" font-family="sans-serif" font-size="13" lengthAdjust="spacing" textLength="205.8926" x="645.1851" y="419.7139">SesionResponse(COORDINADOR)</text></g><g class="message" data-participant-1="Api" data-participant-2="PerfilService"><polygon fill="#181818" points="1001.2788,450.9219,1011.2788,454.9219,1001.2788,458.9219,1005.2788,454.9219" style="stroke:#181818;stroke-width:1;"/><line style="stroke:#181818;stroke-width:1;" x1="628.1851" x2="1007.2788" y1="454.9219" y2="454.9219"/><text fill="#000000" font-family="sans-serif" font-size="13" lengthAdjust="spacing" textLength="259.416" x="635.1851" y="450.0654">obtenerOpcionesPerfil(coordinador, perfilId?)</text></g><g class="message" data-participant-1="PerfilService" data-participant-2="PerfilRepository"><polygon fill="#181818" points="1280.3003,481.2734,1290.3003,485.2734,1280.3003,489.2734,1284.3003,485.2734" style="stroke:#181818;stroke-width:1;"/><line style="stroke:#181818;stroke-width:1;" x1="1023.2788" x2="1286.3003" y1="485.2734" y2="485.2734"/><text fill="#000000" font-family="sans-serif" font-size="13" lengthAdjust="spacing" textLength="250.0215" x="1030.2788" y="480.417">obtenerPerfilPropioOInvestigador(contexto)</text></g><g class="message" data-participant-1="PerfilRepository" data-participant-2="PerfilService"><polygon fill="#181818" points="1034.2788,511.625,1024.2788,515.625,1034.2788,519.625,1030.2788,515.625" style="stroke:#181818;stroke-width:1;"/><line style="stroke:#181818;stroke-width:1;stroke-dasharray:2,2;" x1="1028.2788" x2="1296.3003" y1="515.625" y2="515.625"/><text fill="#000000" font-family="sans-serif" font-size="13" lengthAdjust="spacing" textLength="29.6182" x="1040.2788" y="510.7686">Perfil</text></g><g class="message" data-participant-1="PerfilService" data-participant-2="Api"><polygon fill="#181818" points="639.1851,541.9766,629.1851,545.9766,639.1851,549.9766,635.1851,545.9766" style="stroke:#181818;stroke-width:1;"/><line style="stroke:#181818;stroke-width:1;stroke-dasharray:2,2;" x1="633.1851" x2="1017.2788" y1="545.9766" y2="545.9766"/><text fill="#000000" font-family="sans-serif" font-size="13" lengthAdjust="spacing" textLength="143.0762" x="645.1851" y="541.1201">PerfilOpcionesResponse</text></g><g class="message" data-participant-1="Api" data-participant-2="Frontend"><polygon fill="#181818" points="412.8809,588.6797,402.8809,592.6797,412.8809,596.6797,408.8809,592.6797" style="stroke:#181818;stroke-width:1;"/><line style="stroke:#181818;stroke-width:1;stroke-dasharray:2,2;" x1="406.8809" x2="622.1851" y1="592.6797" y2="592.6797"/><text fill="#000000" font-family="sans-serif" font-size="13" lengthAdjust="spacing" textLength="44.0845" x="418.8809" y="571.4717">200 OK</text><text fill="#000000" font-family="sans-serif" font-size="13" lengthAdjust="spacing" textLength="143.0762" x="418.8809" y="587.8232">PerfilOpcionesResponse</text></g><g class="message" data-participant-1="Frontend" data-participant-2="Frontend"><line style="stroke:#181818;stroke-width:1;" x1="401.8809" x2="443.8809" y1="623.0313" y2="623.0313"/><line style="stroke:#181818;stroke-width:1;" x1="443.8809" x2="443.8809" y1="623.0313" y2="636.0313"/><line style="stroke:#181818;stroke-width:1;" x1="402.8809" x2="443.8809" y1="636.0313" y2="636.0313"/><polygon fill="#181818" points="412.8809,632.0313,402.8809,636.0313,412.8809,640.0313,408.8809,636.0313" style="stroke:#181818;stroke-width:1;"/><text fill="#000000" font-family="sans-serif" font-size="13" lengthAdjust="spacing" textLength="169.0952" x="408.8809" y="618.1748">Renderizar opciones de perfil</text></g><g class="message" data-participant-1="Frontend" data-participant-2="Coordinador"><polygon fill="#181818" points="72.5239,662.3828,62.5239,666.3828,72.5239,670.3828,68.5239,666.3828" style="stroke:#181818;stroke-width:1;"/><line style="stroke:#181818;stroke-width:1;stroke-dasharray:2,2;" x1="66.5239" x2="390.8809" y1="666.3828" y2="666.3828"/><text fill="#000000" font-family="sans-serif" font-size="13" lengthAdjust="spacing" textLength="241.3062" x="78.5239" y="661.5264">Presenta OPCIONES_PERFIL_ABIERTO</text></g><line style="stroke:#000000;stroke-width:1;stroke-dasharray:2,2;" x1="10" x2="1363.707" y1="675.3828" y2="675.3828"/><text fill="#000000" font-family="sans-serif" font-size="11" font-weight="bold" lengthAdjust="spacing" textLength="194.96" x="15" y="686.8018">[Sesi&#195;&#179;n ausente o rol no autorizado]</text><g class="message" data-participant-1="Sesion" data-participant-2="Api"><polygon fill="#181818" points="634.1851,708.5703,624.1851,712.5703,634.1851,716.5703,630.1851,712.5703" style="stroke:#181818;stroke-width:1;"/><line style="stroke:#181818;stroke-width:1;stroke-dasharray:2,2;" x1="628.1851" x2="909.2446" y1="712.5703" y2="712.5703"/><text fill="#000000" font-family="sans-serif" font-size="13" lengthAdjust="spacing" textLength="263.0596" x="640.1851" y="707.7139">SesionNoValidaException / AccesoDenegado</text></g><g class="message" data-participant-1="Api" data-participant-2="Frontend"><polygon fill="#181818" points="412.8809,738.9219,402.8809,742.9219,412.8809,746.9219,408.8809,742.9219" style="stroke:#181818;stroke-width:1;"/><line style="stroke:#181818;stroke-width:1;stroke-dasharray:2,2;" x1="406.8809" x2="622.1851" y1="742.9219" y2="742.9219"/><text fill="#000000" font-family="sans-serif" font-size="13" lengthAdjust="spacing" textLength="197.3042" x="418.8809" y="738.0654">401 Unauthorized / 403 Forbidden</text></g><g class="message" data-participant-1="Frontend" data-participant-2="Coordinador"><polygon fill="#181818" points="72.5239,769.2734,62.5239,773.2734,72.5239,777.2734,68.5239,773.2734" style="stroke:#181818;stroke-width:1;"/><line style="stroke:#181818;stroke-width:1;stroke-dasharray:2,2;" x1="66.5239" x2="390.8809" y1="773.2734" y2="773.2734"/><text fill="#000000" font-family="sans-serif" font-size="13" lengthAdjust="spacing" textLength="306.3569" x="78.5239" y="768.417">Presenta SESION_CERRADA o acceso no permitido</text></g><!--SRC=[ZLJDRjD04BxdAKOzfH9L0lJK0yXDN1I1wiWkd29L4ti88znTQtTJ5H0d7eatW1TZrklVA2sDv6WzE_FDp3VVsB4h2PQCEuDt20M1fNnFAcU4CuYsXWteAcUjoFhRYindBkLKma9hKx32Gfl917EdpSXKeN6SSuNAmScw3blZZZPgcf9udvu0MhWoMZbInJ7lXLmPNPPa92Qh3AiTN6hTH4OLZuCoib9bHkQUSwfTWkKOzD1hP3dcd5AbBKjxtmR-lN4o6NGDPs-wdYuWqwLWEGHyX4TF6z-Zevw8zZ16MkYxokWj6XcFvR-__lnMKEeS1Q5qJKaW7XNh2SXlY29CNS2x-0PcMF4i9DueAVehKnXuWpYXqb8B9XUixiawtjNZV0ugsTcFS5eLFnz98IrsJViPokFXmgmkG6yb0Pdm6kLkZ-KKz-uBAHaBEZ6Uzl7DW3q5MKUBf1iE93ZNvGTtE6kh3-yfsKehIzD5agJBrNMqJDBJsh-WmqpUsXGyaarNTzACEDnEyxwG5z0oypQWTzXZ0VghaQLFrckkozViLJtuP3MObwIMKJquVJJPGBrzljvOKtJGO7WzvEK9kAxybkvWRXbgQJ-EE6IZ9doq3Q_cSqZURzJp4BtA3jNROwNoJuQ_uz7z7CT9u41Qqf4XAy94IDQBLN8TPxVhEBrQVRYDBbTnUfE4XUgbYNllJg11lckWj1Y4DCbTw2S4Ugq_OSa5nWyvLNu3O0PHdfFLIv70hWr-GgsZXi_dB-6ZyZlbKrCXQEVprt2bpPQBWjJ_wNkKXYpEX8RRHPocqJAIDh4kqtSgVDwnOwdLVm46y2tiFm00]--></g></svg>