<?xml version="1.0" encoding="us-ascii" standalone="no"?><svg xmlns="http://www.w3.org/2000/svg" xmlns:xlink="http://www.w3.org/1999/xlink" contentStyleType="text/css" height="846px" preserveAspectRatio="none" style="width:1524px;height:846px;background:#FFFFFF;" version="1.1" viewBox="0 0 1524 846" width="1524px" zoomAndPan="magnify"><defs/><g><text fill="#000000" font-family="sans-serif" font-size="14" font-weight="bold" lengthAdjust="spacing" textLength="510" x="508.25" y="29.5332">Diagrama de secuencia - Abrir opciones de perfil propio del Coordinador</text><rect fill="#FFFFFF" height="600.5156" style="stroke:#181818;stroke-width:1.0;" width="10" x="325.5" y="153.5703"/><rect fill="#FFFFFF" height="314.8672" style="stroke:#181818;stroke-width:1.0;" width="10" x="578.5" y="243.625"/><rect fill="#FFFFFF" height="55.7031" style="stroke:#181818;stroke-width:1.0;" width="10" x="816.5" y="273.9766"/><rect fill="#FFFFFF" height="151.7578" style="stroke:#181818;stroke-width:1.0;" width="10" x="925" y="360.0313"/><rect fill="#FFFFFF" height="30.3516" style="stroke:#181818;stroke-width:1.0;" width="10" x="1136" y="451.0859"/><rect fill="none" height="458.1094" style="stroke:#000000;stroke-width:1.5;" width="1507.5" x="10" y="288.9766"/><line style="stroke:#181818;stroke-width:0.5;stroke-dasharray:5.0,5.0;" x1="62" x2="62" y1="121.2188" y2="764.0859"/><line style="stroke:#181818;stroke-width:0.5;stroke-dasharray:5.0,5.0;" x1="330" x2="330" y1="121.2188" y2="764.0859"/><line style="stroke:#181818;stroke-width:0.5;stroke-dasharray:5.0,5.0;" x1="583.5" x2="583.5" y1="121.2188" y2="764.0859"/><line style="stroke:#181818;stroke-width:0.5;stroke-dasharray:5.0,5.0;" x1="821.5" x2="821.5" y1="121.2188" y2="764.0859"/><line style="stroke:#181818;stroke-width:0.5;stroke-dasharray:5.0,5.0;" x1="929.5" x2="929.5" y1="121.2188" y2="764.0859"/><line style="stroke:#181818;stroke-width:0.5;stroke-dasharray:5.0,5.0;" x1="1141" x2="1141" y1="121.2188" y2="764.0859"/><line style="stroke:#181818;stroke-width:0.5;stroke-dasharray:5.0,5.0;" x1="1457.5" x2="1457.5" y1="121.2188" y2="764.0859"/><text fill="#000000" font-family="sans-serif" font-size="14" lengthAdjust="spacing" textLength="79" x="20" y="118.1426">Coordinador</text><ellipse cx="62.5" cy="52.1094" fill="#E2E2F0" rx="8" ry="8" style="stroke:#181818;stroke-width:0.5;"/><path d="M62.5,60.1094 L62.5,87.1094 M49.5,68.1094 L75.5,68.1094 M62.5,87.1094 L49.5,102.1094 M62.5,87.1094 L75.5,102.1094 " fill="none" style="stroke:#181818;stroke-width:0.5;"/><text fill="#000000" font-family="sans-serif" font-size="14" lengthAdjust="spacing" textLength="79" x="20" y="777.6191">Coordinador</text><ellipse cx="62.5" cy="789.1953" fill="#E2E2F0" rx="8" ry="8" style="stroke:#181818;stroke-width:0.5;"/><path d="M62.5,797.1953 L62.5,824.1953 M49.5,805.1953 L75.5,805.1953 M62.5,824.1953 L49.5,839.1953 M62.5,824.1953 L75.5,839.1953 " fill="none" style="stroke:#181818;stroke-width:0.5;"/><rect fill="#E2E2F0" height="49.2188" rx="2.5" ry="2.5" style="stroke:#181818;stroke-width:0.5;" width="79" x="291" y="71"/><text fill="#000000" font-family="sans-serif" font-size="14" lengthAdjust="spacing" textLength="65" x="298" y="92.5332">PerfilPage</text><text fill="#000000" font-family="sans-serif" font-size="14" lengthAdjust="spacing" textLength="47" x="307" y="110.1426">(React)</text><rect fill="#E2E2F0" height="49.2188" rx="2.5" ry="2.5" style="stroke:#181818;stroke-width:0.5;" width="79" x="291" y="763.0859"/><text fill="#000000" font-family="sans-serif" font-size="14" lengthAdjust="spacing" textLength="65" x="298" y="784.6191">PerfilPage</text><text fill="#000000" font-family="sans-serif" font-size="14" lengthAdjust="spacing" textLength="47" x="307" y="802.2285">(React)</text><rect fill="#E2E2F0" height="49.2188" rx="2.5" ry="2.5" style="stroke:#181818;stroke-width:0.5;" width="108" x="529.5" y="71"/><text fill="#000000" font-family="sans-serif" font-size="14" lengthAdjust="spacing" textLength="94" x="536.5" y="92.5332">PerfilController</text><text fill="#000000" font-family="sans-serif" font-size="14" lengthAdjust="spacing" textLength="84" x="541.5" y="110.1426">(Spring Boot)</text><rect fill="#E2E2F0" height="49.2188" rx="2.5" ry="2.5" style="stroke:#181818;stroke-width:0.5;" width="108" x="529.5" y="763.0859"/><text fill="#000000" font-family="sans-serif" font-size="14" lengthAdjust="spacing" textLength="94" x="536.5" y="784.6191">PerfilController</text><text fill="#000000" font-family="sans-serif" font-size="14" lengthAdjust="spacing" textLength="84" x="541.5" y="802.2285">(Spring Boot)</text><rect fill="#E2E2F0" height="31.6094" rx="2.5" ry="2.5" style="stroke:#181818;stroke-width:0.5;" width="104" x="769.5" y="88.6094"/><text fill="#000000" font-family="sans-serif" font-size="14" lengthAdjust="spacing" textLength="90" x="776.5" y="110.1426">SesionService</text><rect fill="#E2E2F0" height="31.6094" rx="2.5" ry="2.5" style="stroke:#181818;stroke-width:0.5;" width="104" x="769.5" y="763.0859"/><text fill="#000000" font-family="sans-serif" font-size="14" lengthAdjust="spacing" textLength="90" x="776.5" y="784.6191">SesionService</text><rect fill="#E2E2F0" height="31.6094" rx="2.5" ry="2.5" style="stroke:#181818;stroke-width:0.5;" width="93" x="883.5" y="88.6094"/><text fill="#000000" font-family="sans-serif" font-size="14" lengthAdjust="spacing" textLength="79" x="890.5" y="110.1426">PerfilService</text><rect fill="#E2E2F0" height="31.6094" rx="2.5" ry="2.5" style="stroke:#181818;stroke-width:0.5;" width="93" x="883.5" y="763.0859"/><text fill="#000000" font-family="sans-serif" font-size="14" lengthAdjust="spacing" textLength="79" x="890.5" y="784.6191">PerfilService</text><rect fill="#E2E2F0" height="31.6094" rx="2.5" ry="2.5" style="stroke:#181818;stroke-width:0.5;" width="114" x="1084" y="88.6094"/><text fill="#000000" font-family="sans-serif" font-size="14" lengthAdjust="spacing" textLength="100" x="1091" y="110.1426">PerfilRepository</text><rect fill="#E2E2F0" height="31.6094" rx="2.5" ry="2.5" style="stroke:#181818;stroke-width:0.5;" width="114" x="1084" y="763.0859"/><text fill="#000000" font-family="sans-serif" font-size="14" lengthAdjust="spacing" textLength="100" x="1091" y="784.6191">PerfilRepository</text><text fill="#000000" font-family="sans-serif" font-size="14" lengthAdjust="spacing" textLength="93" x="1408.5" y="118.1426">Base de Datos</text><path d="M1440,67.6094 C1440,57.6094 1458,57.6094 1458,57.6094 C1458,57.6094 1476,57.6094 1476,67.6094 L1476,93.6094 C1476,103.6094 1458,103.6094 1458,103.6094 C1458,103.6094 1440,103.6094 1440,93.6094 L1440,67.6094 " fill="#E2E2F0" style="stroke:#181818;stroke-width:1.5;"/><path d="M1440,67.6094 C1440,77.6094 1458,77.6094 1458,77.6094 C1458,77.6094 1476,77.6094 1476,67.6094 " fill="none" style="stroke:#181818;stroke-width:1.5;"/><text fill="#000000" font-family="sans-serif" font-size="14" lengthAdjust="spacing" textLength="93" x="1408.5" y="777.6191">Base de Datos</text><path d="M1440,790.6953 C1440,780.6953 1458,780.6953 1458,780.6953 C1458,780.6953 1476,780.6953 1476,790.6953 L1476,816.6953 C1476,826.6953 1458,826.6953 1458,826.6953 C1458,826.6953 1440,826.6953 1440,816.6953 L1440,790.6953 " fill="#E2E2F0" style="stroke:#181818;stroke-width:1.5;"/><path d="M1440,790.6953 C1440,800.6953 1458,800.6953 1458,800.6953 C1458,800.6953 1476,800.6953 1476,790.6953 " fill="none" style="stroke:#181818;stroke-width:1.5;"/><rect fill="#FFFFFF" height="600.5156" style="stroke:#181818;stroke-width:1.0;" width="10" x="325.5" y="153.5703"/><rect fill="#FFFFFF" height="314.8672" style="stroke:#181818;stroke-width:1.0;" width="10" x="578.5" y="243.625"/><rect fill="#FFFFFF" height="55.7031" style="stroke:#181818;stroke-width:1.0;" width="10" x="816.5" y="273.9766"/><rect fill="#FFFFFF" height="151.7578" style="stroke:#181818;stroke-width:1.0;" width="10" x="925" y="360.0313"/><rect fill="#FFFFFF" height="30.3516" style="stroke:#181818;stroke-width:1.0;" width="10" x="1136" y="451.0859"/><polygon fill="#181818" points="313.5,149.5703,323.5,153.5703,313.5,157.5703,317.5,153.5703" style="stroke:#181818;stroke-width:1.0;"/><line style="stroke:#181818;stroke-width:1.0;" x1="62.5" x2="319.5" y1="153.5703" y2="153.5703"/><text fill="#000000" font-family="sans-serif" font-size="13" lengthAdjust="spacing" textLength="177" x="69.5" y="148.7139">Solicita abrir opciones de perfil</text><line style="stroke:#181818;stroke-width:1.0;" x1="335.5" x2="377.5" y1="183.9219" y2="183.9219"/><line style="stroke:#181818;stroke-width:1.0;" x1="377.5" x2="377.5" y1="183.9219" y2="196.9219"/><line style="stroke:#181818;stroke-width:1.0;" x1="336.5" x2="377.5" y1="196.9219" y2="196.9219"/><polygon fill="#181818" points="346.5,192.9219,336.5,196.9219,346.5,200.9219,342.5,196.9219" style="stroke:#181818;stroke-width:1.0;"/><text fill="#000000" font-family="sans-serif" font-size="13" lengthAdjust="spacing" textLength="136" x="342.5" y="179.0654">Comprobar sesion local</text><polygon fill="#181818" points="566.5,239.625,576.5,243.625,566.5,247.625,570.5,243.625" style="stroke:#181818;stroke-width:1.0;"/><line style="stroke:#181818;stroke-width:1.0;" x1="335.5" x2="572.5" y1="243.625" y2="243.625"/><text fill="#000000" font-family="sans-serif" font-size="13" lengthAdjust="spacing" textLength="82" x="342.5" y="222.417">GET /api/perfil</text><text fill="#000000" font-family="sans-serif" font-size="13" lengthAdjust="spacing" textLength="100" x="342.5" y="238.7686">Cookie de sesion</text><polygon fill="#181818" points="804.5,269.9766,814.5,273.9766,804.5,277.9766,808.5,273.9766" style="stroke:#181818;stroke-width:1.0;"/><line style="stroke:#181818;stroke-width:1.0;" x1="588.5" x2="810.5" y1="273.9766" y2="273.9766"/><text fill="#000000" font-family="sans-serif" font-size="13" lengthAdjust="spacing" textLength="209" x="595.5" y="269.1201">obtenerSesionActual(authentication)</text><path d="M10,288.9766 L71,288.9766 L71,297.3281 L61,307.3281 L10,307.3281 L10,288.9766 " fill="#EEEEEE" style="stroke:#000000;stroke-width:1.5;"/><rect fill="none" height="458.1094" style="stroke:#000000;stroke-width:1.5;" width="1507.5" x="10" y="288.9766"/><text fill="#000000" font-family="sans-serif" font-size="13" font-weight="bold" lengthAdjust="spacing" textLength="16" x="25" y="303.4717">alt</text><text fill="#000000" font-family="sans-serif" font-size="11" font-weight="bold" lengthAdjust="spacing" textLength="169" x="86" y="302.3955">[Sesion de Coordinador activa]</text><polygon fill="#181818" points="599.5,325.6797,589.5,329.6797,599.5,333.6797,595.5,329.6797" style="stroke:#181818;stroke-width:1.0;"/><line style="stroke:#181818;stroke-width:1.0;stroke-dasharray:2.0,2.0;" x1="593.5" x2="820.5" y1="329.6797" y2="329.6797"/><text fill="#000000" font-family="sans-serif" font-size="13" lengthAdjust="spacing" textLength="202" x="605.5" y="324.8232">SesionResponse(COORDINADOR)</text><polygon fill="#181818" points="913,356.0313,923,360.0313,913,364.0313,917,360.0313" style="stroke:#181818;stroke-width:1.0;"/><line style="stroke:#181818;stroke-width:1.0;" x1="588.5" x2="919" y1="360.0313" y2="360.0313"/><text fill="#000000" font-family="sans-serif" font-size="13" lengthAdjust="spacing" textLength="184" x="595.5" y="355.1748">obtenerPerfilPropio(coordinador)</text><polygon fill="#181818" points="1129,386.3828,1139,390.3828,1129,394.3828,1133,390.3828" style="stroke:#181818;stroke-width:1.0;"/><line style="stroke:#181818;stroke-width:1.0;" x1="935" x2="1135" y1="390.3828" y2="390.3828"/><text fill="#000000" font-family="sans-serif" font-size="13" lengthAdjust="spacing" textLength="182" x="942" y="385.5264">obtenerPorUsuario(coordinador)</text><polygon fill="#181818" points="1446,416.7344,1456,420.7344,1446,424.7344,1450,420.7344" style="stroke:#181818;stroke-width:1.0;"/><line style="stroke:#181818;stroke-width:1.0;" x1="1141" x2="1452" y1="420.7344" y2="420.7344"/><text fill="#000000" font-family="sans-serif" font-size="13" lengthAdjust="spacing" textLength="293" x="1148" y="415.8779">SELECT * FROM usuarios WHERE usuario_id = ?</text><polygon fill="#181818" points="1157,447.0859,1147,451.0859,1157,455.0859,1153,451.0859" style="stroke:#181818;stroke-width:1.0;"/><line style="stroke:#181818;stroke-width:1.0;stroke-dasharray:2.0,2.0;" x1="1151" x2="1457" y1="451.0859" y2="451.0859"/><text fill="#000000" font-family="sans-serif" font-size="13" lengthAdjust="spacing" textLength="150" x="1163" y="446.2295">Resultado de persistencia</text><polygon fill="#181818" points="946,477.4375,936,481.4375,946,485.4375,942,481.4375" style="stroke:#181818;stroke-width:1.0;"/><line style="stroke:#181818;stroke-width:1.0;stroke-dasharray:2.0,2.0;" x1="940" x2="1140" y1="481.4375" y2="481.4375"/><text fill="#000000" font-family="sans-serif" font-size="13" lengthAdjust="spacing" textLength="29" x="952" y="476.5811">Perfil</text><polygon fill="#181818" points="599.5,507.7891,589.5,511.7891,599.5,515.7891,595.5,511.7891" style="stroke:#181818;stroke-width:1.0;"/><line style="stroke:#181818;stroke-width:1.0;stroke-dasharray:2.0,2.0;" x1="593.5" x2="929" y1="511.7891" y2="511.7891"/><text fill="#000000" font-family="sans-serif" font-size="13" lengthAdjust="spacing" textLength="87" x="605.5" y="506.9326">PerfilResponse</text><polygon fill="#181818" points="346.5,554.4922,336.5,558.4922,346.5,562.4922,342.5,558.4922" style="stroke:#181818;stroke-width:1.0;"/><line style="stroke:#181818;stroke-width:1.0;stroke-dasharray:2.0,2.0;" x1="340.5" x2="582.5" y1="558.4922" y2="558.4922"/><text fill="#000000" font-family="sans-serif" font-size="13" lengthAdjust="spacing" textLength="44" x="352.5" y="537.2842">200 OK</text><text fill="#000000" font-family="sans-serif" font-size="13" lengthAdjust="spacing" textLength="87" x="352.5" y="553.6357">PerfilResponse</text><line style="stroke:#181818;stroke-width:1.0;" x1="335.5" x2="377.5" y1="588.8438" y2="588.8438"/><line style="stroke:#181818;stroke-width:1.0;" x1="377.5" x2="377.5" y1="588.8438" y2="601.8438"/><line style="stroke:#181818;stroke-width:1.0;" x1="336.5" x2="377.5" y1="601.8438" y2="601.8438"/><polygon fill="#181818" points="346.5,597.8438,336.5,601.8438,346.5,605.8438,342.5,601.8438" style="stroke:#181818;stroke-width:1.0;"/><text fill="#000000" font-family="sans-serif" font-size="13" lengthAdjust="spacing" textLength="229" x="342.5" y="583.9873">Renderizar perfil y opciones disponibles</text><polygon fill="#181818" points="73.5,628.1953,63.5,632.1953,73.5,636.1953,69.5,632.1953" style="stroke:#181818;stroke-width:1.0;"/><line style="stroke:#181818;stroke-width:1.0;stroke-dasharray:2.0,2.0;" x1="67.5" x2="324.5" y1="632.1953" y2="632.1953"/><text fill="#000000" font-family="sans-serif" font-size="13" lengthAdjust="spacing" textLength="239" x="79.5" y="627.3389">Presenta OPCIONES_PERFIL_ABIERTO</text><line style="stroke:#000000;stroke-width:1.0;stroke-dasharray:2.0,2.0;" x1="10" x2="1517.5" y1="641.1953" y2="641.1953"/><text fill="#000000" font-family="sans-serif" font-size="11" font-weight="bold" lengthAdjust="spacing" textLength="94" x="15" y="652.6143">[Sesion ausente]</text><polygon fill="#181818" points="594.5,674.3828,584.5,678.3828,594.5,682.3828,590.5,678.3828" style="stroke:#181818;stroke-width:1.0;"/><line style="stroke:#181818;stroke-width:1.0;stroke-dasharray:2.0,2.0;" x1="588.5" x2="820.5" y1="678.3828" y2="678.3828"/><text fill="#000000" font-family="sans-serif" font-size="13" lengthAdjust="spacing" textLength="150" x="600.5" y="673.5264">SesionNoValidaException</text><polygon fill="#181818" points="346.5,704.7344,336.5,708.7344,346.5,712.7344,342.5,708.7344" style="stroke:#181818;stroke-width:1.0;"/><line style="stroke:#181818;stroke-width:1.0;stroke-dasharray:2.0,2.0;" x1="340.5" x2="582.5" y1="708.7344" y2="708.7344"/><text fill="#000000" font-family="sans-serif" font-size="13" lengthAdjust="spacing" textLength="101" x="352.5" y="703.8779">401 Unauthorized</text><polygon fill="#181818" points="73.5,735.0859,63.5,739.0859,73.5,743.0859,69.5,739.0859" style="stroke:#181818;stroke-width:1.0;"/><line style="stroke:#181818;stroke-width:1.0;stroke-dasharray:2.0,2.0;" x1="67.5" x2="324.5" y1="739.0859" y2="739.0859"/><text fill="#000000" font-family="sans-serif" font-size="13" lengthAdjust="spacing" textLength="175" x="79.5" y="734.2295">Presenta SESION_CERRADA</text><!--SRC=[XLHTRzim37ptho3wb0uesWrxAh0DZkrimRewiDljfK30s5mcJ9KCIIxM_VfH_eZjrCq2nB2euuaydko4amInmBt1HuIIm59Haoe4mWM4EoCCwAeGMf7rknMPdq92PNGbD0SaH5gRKYWijGa2B9msar25neb2LAWSd6sQx0tkwK4jCcBq-HcWXPNHof4gvz0HRnaj9HdEoIiZr1wMMdUPOIMcIJbPBZOdyoGAQY1jP8vwZ9f4vi0PLTeARkzvX1-2GOaETsW9pfR-oLh5wBHjmF4o24QYmCN7GylNa6l9Hpa4V4LjhwfuGaU3JltBb2dIZpoO7HeUekyPf2vGJi2irpLyJkxW4YjnsV8_AAxjjw1s-erOXnEzllptgQsErw1tJ4QcNOQ5gr4ki7Q_IB5aw3XuFkHtugDqtQi_P2n5Ymo0VntWeY-pNMTaAwqiBQ8qpUBrRHYdsNc3B-du61_jgftCyr1qPy36lOjYAACbFD1DpU2t9f61VvZ_S8GszxP6CtV0SP8dYfVSQNAJH7Vm1bPP-WtgDjt2Zoz9blJBhIZX0tngUE9bezBB6bYiMZe-i7EF5TOrbtcklv5vvujxAMExF5R_1Dr1iNweFROTwZpJMFXcd1ENlxkwWlJhWphDv8thG_Ct9UCd6V6NhqhtHNiUNJpXASLEaZsYO8wHTxaPGvPjZv1kedLwc-JRJPAjrZVRSBbEihiq86bxSmBM7aidh7whlwCK9IP_2gfSR-WJDf_qzFxgBTmhVnCrTqRb_nLvjPqyoRcTRPHaMHY7WV_YZ8XwWdy0]--></g></svg>