<svg xmlns="http://www.w3.org/2000/svg" xmlns:xlink="http://www.w3.org/1999/xlink" contentStyleType="text/css" height="846px" preserveAspectRatio="none" style="width:1557px;height:846px;background:#FFFFFF;" version="1.1" viewBox="0 0 1557 846" width="1557px" zoomAndPan="magnify"><title>Diagrama de secuencia - Abrir opciones de perfil propio del Coordinador</title><defs/><g><text fill="#000000" font-family="sans-serif" font-size="14" font-weight="bold" lengthAdjust="spacing" textLength="484.6475" x="537.2495" y="29.5332">Diagrama de secuencia - Abrir opciones de perfil propio del Coordinador</text><rect fill="#FFFFFF" height="600.5156" style="stroke:#181818;stroke-width:1;" width="10" x="326.8301" y="153.5703"/><rect fill="#FFFFFF" height="314.8672" style="stroke:#181818;stroke-width:1;" width="10" x="590.6216" y="243.625"/><rect fill="#FFFFFF" height="55.7031" style="stroke:#181818;stroke-width:1;" width="10" x="829.2021" y="273.9766"/><rect fill="#FFFFFF" height="151.7578" style="stroke:#181818;stroke-width:1;" width="10" x="937.2363" y="360.0313"/><rect fill="#FFFFFF" height="30.3516" style="stroke:#181818;stroke-width:1;" width="10" x="1170.7134" y="451.0859"/><rect fill="none" height="458.1094" style="stroke:#000000;stroke-width:1.5;" width="1540.1465" x="10" y="288.9766"/><line style="stroke:#181818;stroke-width:0.5;stroke-dasharray:5.0,5.0;" x1="61" x2="61" y1="121.2188" y2="764.0859"/><line style="stroke:#181818;stroke-width:0.5;stroke-dasharray:5.0,5.0;" x1="331.5337" x2="331.5337" y1="121.2188" y2="764.0859"/><line style="stroke:#181818;stroke-width:0.5;stroke-dasharray:5.0,5.0;" x1="595.3286" x2="595.3286" y1="121.2188" y2="764.0859"/><line style="stroke:#181818;stroke-width:0.5;stroke-dasharray:5.0,5.0;" x1="833.4575" x2="833.4575" y1="121.2188" y2="764.0859"/><line style="stroke:#181818;stroke-width:0.5;stroke-dasharray:5.0,5.0;" x1="941.9468" x2="941.9468" y1="121.2188" y2="764.0859"/><line style="stroke:#181818;stroke-width:0.5;stroke-dasharray:5.0,5.0;" x1="1175.1343" x2="1175.1343" y1="121.2188" y2="764.0859"/><line style="stroke:#181818;stroke-width:0.5;stroke-dasharray:5.0,5.0;" x1="1490.3125" x2="1490.3125" y1="121.2188" y2="764.0859"/><text fill="#000000" font-family="sans-serif" font-size="14" lengthAdjust="spacing" textLength="77.0479" x="20" y="118.1426">Coordinador</text><ellipse cx="61.5239" cy="52.1094" fill="#E2E2F0" rx="8" ry="8" style="stroke:#181818;stroke-width:0.5;"/><path d="M61.5239,60.1094 L61.5239,87.1094 M48.5239,68.1094 L74.5239,68.1094 M61.5239,87.1094 L48.5239,102.1094 M61.5239,87.1094 L74.5239,102.1094 " fill="none" style="stroke:#181818;stroke-width:0.5;"/><text fill="#000000" font-family="sans-serif" font-size="14" lengthAdjust="spacing" textLength="77.0479" x="20" y="777.6191">Coordinador</text><ellipse cx="61.5239" cy="789.1953" fill="#E2E2F0" rx="8" ry="8" style="stroke:#181818;stroke-width:0.5;"/><path d="M61.5239,797.1953 L61.5239,824.1953 M48.5239,805.1953 L74.5239,805.1953 M61.5239,824.1953 L48.5239,839.1953 M61.5239,824.1953 L74.5239,839.1953 " fill="none" style="stroke:#181818;stroke-width:0.5;"/><rect fill="#E2E2F0" height="49.2188" rx="2.5" ry="2.5" style="stroke:#181818;stroke-width:0.5;" width="78.5928" x="292.5337" y="71"/><text fill="#000000" font-family="sans-serif" font-size="14" lengthAdjust="spacing" textLength="64.5928" x="299.5337" y="92.5332">PerfilPage</text><text fill="#000000" font-family="sans-serif" font-size="14" lengthAdjust="spacing" textLength="45.8965" x="308.8818" y="110.1426">(React)</text><rect fill="#E2E2F0" height="49.2188" rx="2.5" ry="2.5" style="stroke:#181818;stroke-width:0.5;" width="78.5928" x="292.5337" y="763.0859"/><text fill="#000000" font-family="sans-serif" font-size="14" lengthAdjust="spacing" textLength="64.5928" x="299.5337" y="784.6191">PerfilPage</text><text fill="#000000" font-family="sans-serif" font-size="14" lengthAdjust="spacing" textLength="45.8965" x="308.8818" y="802.2285">(React)</text><rect fill="#E2E2F0" height="49.2188" rx="2.5" ry="2.5" style="stroke:#181818;stroke-width:0.5;" width="106.5859" x="542.3286" y="71"/><text fill="#000000" font-family="sans-serif" font-size="14" lengthAdjust="spacing" textLength="92.5859" x="549.3286" y="92.5332">PerfilController</text><text fill="#000000" font-family="sans-serif" font-size="14" lengthAdjust="spacing" textLength="82.4824" x="554.3804" y="110.1426">(Spring Boot)</text><rect fill="#E2E2F0" height="49.2188" rx="2.5" ry="2.5" style="stroke:#181818;stroke-width:0.5;" width="106.5859" x="542.3286" y="763.0859"/><text fill="#000000" font-family="sans-serif" font-size="14" lengthAdjust="spacing" textLength="92.5859" x="549.3286" y="784.6191">PerfilController</text><text fill="#000000" font-family="sans-serif" font-size="14" lengthAdjust="spacing" textLength="82.4824" x="554.3804" y="802.2285">(Spring Boot)</text><rect fill="#E2E2F0" height="31.6094" rx="2.5" ry="2.5" style="stroke:#181818;stroke-width:0.5;" width="103.4893" x="782.4575" y="88.6094"/><text fill="#000000" font-family="sans-serif" font-size="14" lengthAdjust="spacing" textLength="89.4893" x="789.4575" y="110.1426">SesionService</text><rect fill="#E2E2F0" height="31.6094" rx="2.5" ry="2.5" style="stroke:#181818;stroke-width:0.5;" width="103.4893" x="782.4575" y="763.0859"/><text fill="#000000" font-family="sans-serif" font-size="14" lengthAdjust="spacing" textLength="89.4893" x="789.4575" y="784.6191">SesionService</text><rect fill="#E2E2F0" height="31.6094" rx="2.5" ry="2.5" style="stroke:#181818;stroke-width:0.5;" width="92.5791" x="895.9468" y="88.6094"/><text fill="#000000" font-family="sans-serif" font-size="14" lengthAdjust="spacing" textLength="78.5791" x="902.9468" y="110.1426">PerfilService</text><rect fill="#E2E2F0" height="31.6094" rx="2.5" ry="2.5" style="stroke:#181818;stroke-width:0.5;" width="92.5791" x="895.9468" y="763.0859"/><text fill="#000000" font-family="sans-serif" font-size="14" lengthAdjust="spacing" textLength="78.5791" x="902.9468" y="784.6191">PerfilService</text><rect fill="#E2E2F0" height="31.6094" rx="2.5" ry="2.5" style="stroke:#181818;stroke-width:0.5;" width="129.1582" x="1111.1343" y="88.6094"/><text fill="#000000" font-family="sans-serif" font-size="14" lengthAdjust="spacing" textLength="115.1582" x="1118.1343" y="110.1426">UsuarioRepository</text><rect fill="#E2E2F0" height="31.6094" rx="2.5" ry="2.5" style="stroke:#181818;stroke-width:0.5;" width="129.1582" x="1111.1343" y="763.0859"/><text fill="#000000" font-family="sans-serif" font-size="14" lengthAdjust="spacing" textLength="115.1582" x="1118.1343" y="784.6191">UsuarioRepository</text><text fill="#000000" font-family="sans-serif" font-size="14" lengthAdjust="spacing" textLength="91.834" x="1442.3125" y="118.1426">Base de Datos</text><path d="M1473.2295,67.6094 C1473.2295,57.6094 1491.2295,57.6094 1491.2295,57.6094 C1491.2295,57.6094 1509.2295,57.6094 1509.2295,67.6094 L1509.2295,93.6094 C1509.2295,103.6094 1491.2295,103.6094 1491.2295,103.6094 C1491.2295,103.6094 1473.2295,103.6094 1473.2295,93.6094 L1473.2295,67.6094 " fill="#E2E2F0" style="stroke:#181818;stroke-width:1.5;"/><path d="M1473.2295,67.6094 C1473.2295,77.6094 1491.2295,77.6094 1491.2295,77.6094 C1491.2295,77.6094 1509.2295,77.6094 1509.2295,67.6094 " fill="none" style="stroke:#181818;stroke-width:1.5;"/><text fill="#000000" font-family="sans-serif" font-size="14" lengthAdjust="spacing" textLength="91.834" x="1442.3125" y="777.6191">Base de Datos</text><path d="M1473.2295,790.6953 C1473.2295,780.6953 1491.2295,780.6953 1491.2295,780.6953 C1491.2295,780.6953 1509.2295,780.6953 1509.2295,790.6953 L1509.2295,816.6953 C1509.2295,826.6953 1491.2295,826.6953 1491.2295,826.6953 C1491.2295,826.6953 1473.2295,826.6953 1473.2295,816.6953 L1473.2295,790.6953 " fill="#E2E2F0" style="stroke:#181818;stroke-width:1.5;"/><path d="M1473.2295,790.6953 C1473.2295,800.6953 1491.2295,800.6953 1491.2295,800.6953 C1491.2295,800.6953 1509.2295,800.6953 1509.2295,790.6953 " fill="none" style="stroke:#181818;stroke-width:1.5;"/><rect fill="#FFFFFF" height="600.5156" style="stroke:#181818;stroke-width:1;" width="10" x="326.8301" y="153.5703"/><rect fill="#FFFFFF" height="314.8672" style="stroke:#181818;stroke-width:1;" width="10" x="590.6216" y="243.625"/><rect fill="#FFFFFF" height="55.7031" style="stroke:#181818;stroke-width:1;" width="10" x="829.2021" y="273.9766"/><rect fill="#FFFFFF" height="151.7578" style="stroke:#181818;stroke-width:1;" width="10" x="937.2363" y="360.0313"/><rect fill="#FFFFFF" height="30.3516" style="stroke:#181818;stroke-width:1;" width="10" x="1170.7134" y="451.0859"/><polygon fill="#181818" points="314.8301,149.5703,324.8301,153.5703,314.8301,157.5703,318.8301,153.5703" style="stroke:#181818;stroke-width:1;"/><line style="stroke:#181818;stroke-width:1;" x1="61.5239" x2="320.8301" y1="153.5703" y2="153.5703"/><text fill="#000000" font-family="sans-serif" font-size="13" lengthAdjust="spacing" textLength="177.0361" x="68.5239" y="148.7139">Solicita abrir opciones de perfil</text><line style="stroke:#181818;stroke-width:1;" x1="336.8301" x2="378.8301" y1="183.9219" y2="183.9219"/><line style="stroke:#181818;stroke-width:1;" x1="378.8301" x2="378.8301" y1="183.9219" y2="196.9219"/><line style="stroke:#181818;stroke-width:1;" x1="337.8301" x2="378.8301" y1="196.9219" y2="196.9219"/><polygon fill="#181818" points="347.8301,192.9219,337.8301,196.9219,347.8301,200.9219,343.8301,196.9219" style="stroke:#181818;stroke-width:1;"/><text fill="#000000" font-family="sans-serif" font-size="13" lengthAdjust="spacing" textLength="136.5635" x="343.8301" y="179.0654">Comprobar sesion local</text><polygon fill="#181818" points="578.6216,239.625,588.6216,243.625,578.6216,247.625,582.6216,243.625" style="stroke:#181818;stroke-width:1;"/><line style="stroke:#181818;stroke-width:1;" x1="336.8301" x2="584.6216" y1="243.625" y2="243.625"/><text fill="#000000" font-family="sans-serif" font-size="13" lengthAdjust="spacing" textLength="83.0845" x="343.8301" y="222.417">GET /api/perfil</text><text fill="#000000" font-family="sans-serif" font-size="13" lengthAdjust="spacing" textLength="99.728" x="343.8301" y="238.7686">Cookie de sesion</text><polygon fill="#181818" points="817.2021,269.9766,827.2021,273.9766,817.2021,277.9766,821.2021,273.9766" style="stroke:#181818;stroke-width:1;"/><line style="stroke:#181818;stroke-width:1;" x1="600.6216" x2="823.2021" y1="273.9766" y2="273.9766"/><text fill="#000000" font-family="sans-serif" font-size="13" lengthAdjust="spacing" textLength="209.5806" x="607.6216" y="269.1201">obtenerSesionActual(authentication)</text><path d="M10,288.9766 L70.1709,288.9766 L70.1709,297.3281 L60.1709,307.3281 L10,307.3281 L10,288.9766 " fill="#EEEEEE" style="stroke:#000000;stroke-width:1.5;"/><rect fill="none" height="458.1094" style="stroke:#000000;stroke-width:1.5;" width="1540.1465" x="10" y="288.9766"/><text fill="#000000" font-family="sans-serif" font-size="13" font-weight="bold" lengthAdjust="spacing" textLength="15.1709" x="25" y="303.4717">alt</text><text fill="#000000" font-family="sans-serif" font-size="11" font-weight="bold" lengthAdjust="spacing" textLength="162.583" x="85.1709" y="302.3955">[Sesion de Coordinador activa]</text><polygon fill="#181818" points="611.6216,325.6797,601.6216,329.6797,611.6216,333.6797,607.6216,329.6797" style="stroke:#181818;stroke-width:1;"/><line style="stroke:#181818;stroke-width:1;stroke-dasharray:2.0,2.0;" x1="605.6216" x2="833.2021" y1="329.6797" y2="329.6797"/><text fill="#000000" font-family="sans-serif" font-size="13" lengthAdjust="spacing" textLength="98.2871" x="617.6216" y="324.8232">SesionResponse</text><polygon fill="#181818" points="925.2363,356.0313,935.2363,360.0313,925.2363,364.0313,929.2363,360.0313" style="stroke:#181818;stroke-width:1;"/><line style="stroke:#181818;stroke-width:1;" x1="600.6216" x2="931.2363" y1="360.0313" y2="360.0313"/><text fill="#000000" font-family="sans-serif" font-size="13" lengthAdjust="spacing" textLength="188.6016" x="607.6216" y="355.1748">obtenerPerfilPropio(coordinador)</text><polygon fill="#181818" points="1163.7134,386.3828,1173.7134,390.3828,1163.7134,394.3828,1167.7134,390.3828" style="stroke:#181818;stroke-width:1;"/><line style="stroke:#181818;stroke-width:1;" x1="947.2363" x2="1169.7134" y1="390.3828" y2="390.3828"/><text fill="#000000" font-family="sans-serif" font-size="13" lengthAdjust="spacing" textLength="204.4771" x="954.2363" y="385.5264">findByNombreUsuario(coordinador)</text><polygon fill="#181818" points="1479.2295,416.7344,1489.2295,420.7344,1479.2295,424.7344,1483.2295,420.7344" style="stroke:#181818;stroke-width:1;"/><line style="stroke:#181818;stroke-width:1;" x1="1175.7134" x2="1485.2295" y1="420.7344" y2="420.7344"/><text fill="#000000" font-family="sans-serif" font-size="13" lengthAdjust="spacing" textLength="291.5161" x="1182.7134" y="415.8779">SELECT * FROM usuarios WHERE usuario_id = ?</text><polygon fill="#181818" points="1191.7134,447.0859,1181.7134,451.0859,1191.7134,455.0859,1187.7134,451.0859" style="stroke:#181818;stroke-width:1;"/><line style="stroke:#181818;stroke-width:1;stroke-dasharray:2.0,2.0;" x1="1185.7134" x2="1490.2295" y1="451.0859" y2="451.0859"/><text fill="#000000" font-family="sans-serif" font-size="13" lengthAdjust="spacing" textLength="149.5889" x="1197.7134" y="446.2295">Resultado de persistencia</text><polygon fill="#181818" points="958.2363,477.4375,948.2363,481.4375,958.2363,485.4375,954.2363,481.4375" style="stroke:#181818;stroke-width:1;"/><line style="stroke:#181818;stroke-width:1;stroke-dasharray:2.0,2.0;" x1="952.2363" x2="1174.7134" y1="481.4375" y2="481.4375"/><text fill="#000000" font-family="sans-serif" font-size="13" lengthAdjust="spacing" textLength="29.6182" x="964.2363" y="476.5811">Perfil</text><polygon fill="#181818" points="611.6216,507.7891,601.6216,511.7891,611.6216,515.7891,607.6216,511.7891" style="stroke:#181818;stroke-width:1;"/><line style="stroke:#181818;stroke-width:1;stroke-dasharray:2.0,2.0;" x1="605.6216" x2="941.2363" y1="511.7891" y2="511.7891"/><text fill="#000000" font-family="sans-serif" font-size="13" lengthAdjust="spacing" textLength="88.1563" x="617.6216" y="506.9326">PerfilResponse</text><polygon fill="#181818" points="347.8301,554.4922,337.8301,558.4922,347.8301,562.4922,343.8301,558.4922" style="stroke:#181818;stroke-width:1;"/><line style="stroke:#181818;stroke-width:1;stroke-dasharray:2.0,2.0;" x1="341.8301" x2="594.6216" y1="558.4922" y2="558.4922"/><text fill="#000000" font-family="sans-serif" font-size="13" lengthAdjust="spacing" textLength="44.0845" x="353.8301" y="537.2842">200 OK</text><text fill="#000000" font-family="sans-serif" font-size="13" lengthAdjust="spacing" textLength="88.1563" x="353.8301" y="553.6357">PerfilResponse</text><line style="stroke:#181818;stroke-width:1;" x1="336.8301" x2="378.8301" y1="588.8438" y2="588.8438"/><line style="stroke:#181818;stroke-width:1;" x1="378.8301" x2="378.8301" y1="588.8438" y2="601.8438"/><line style="stroke:#181818;stroke-width:1;" x1="337.8301" x2="378.8301" y1="601.8438" y2="601.8438"/><polygon fill="#181818" points="347.8301,597.8438,337.8301,601.8438,347.8301,605.8438,343.8301,601.8438" style="stroke:#181818;stroke-width:1;"/><text fill="#000000" font-family="sans-serif" font-size="13" lengthAdjust="spacing" textLength="229.7915" x="343.8301" y="583.9873">Renderizar perfil y opciones disponibles</text><polygon fill="#181818" points="72.5239,628.1953,62.5239,632.1953,72.5239,636.1953,68.5239,632.1953" style="stroke:#181818;stroke-width:1;"/><line style="stroke:#181818;stroke-width:1;stroke-dasharray:2.0,2.0;" x1="66.5239" x2="325.8301" y1="632.1953" y2="632.1953"/><text fill="#000000" font-family="sans-serif" font-size="13" lengthAdjust="spacing" textLength="241.3062" x="78.5239" y="627.3389">Presenta OPCIONES_PERFIL_ABIERTO</text><line style="stroke:#000000;stroke-width:1;stroke-dasharray:2.0,2.0;" x1="10" x2="1550.1465" y1="641.1953" y2="641.1953"/><text fill="#000000" font-family="sans-serif" font-size="11" font-weight="bold" lengthAdjust="spacing" textLength="88.0215" x="15" y="652.6143">[Sesion ausente]</text><polygon fill="#181818" points="606.6216,674.3828,596.6216,678.3828,606.6216,682.3828,602.6216,678.3828" style="stroke:#181818;stroke-width:1;"/><line style="stroke:#181818;stroke-width:1;stroke-dasharray:2.0,2.0;" x1="600.6216" x2="833.2021" y1="678.3828" y2="678.3828"/><text fill="#000000" font-family="sans-serif" font-size="13" lengthAdjust="spacing" textLength="149.5952" x="612.6216" y="673.5264">SesionNoValidaException</text><polygon fill="#181818" points="347.8301,704.7344,337.8301,708.7344,347.8301,712.7344,343.8301,708.7344" style="stroke:#181818;stroke-width:1;"/><line style="stroke:#181818;stroke-width:1;stroke-dasharray:2.0,2.0;" x1="341.8301" x2="594.6216" y1="708.7344" y2="708.7344"/><text fill="#000000" font-family="sans-serif" font-size="13" lengthAdjust="spacing" textLength="102.6289" x="353.8301" y="703.8779">401 Unauthorized</text><polygon fill="#181818" points="72.5239,735.0859,62.5239,739.0859,72.5239,743.0859,68.5239,739.0859" style="stroke:#181818;stroke-width:1;"/><line style="stroke:#181818;stroke-width:1;stroke-dasharray:2.0,2.0;" x1="66.5239" x2="325.8301" y1="739.0859" y2="739.0859"/><text fill="#000000" font-family="sans-serif" font-size="13" lengthAdjust="spacing" textLength="175.5635" x="78.5239" y="734.2295">Presenta SESION_CERRADA</text><!--SRC=[XLHTRzim37ptho3wr0uesWrx2h0LSU9inReciDFjfK30s6n6J9KCIIxM_VfH_aZi9Cq2nB2euuaydkpPAu8fuyRYCq91u2YlIEUCS0dZjMKBfipPQ79XjoJxn0fAQqes4b0mCSOMhB4mDeemzyOEGYLQppcNg3sSBUhi1MxeKP-d9EYBCq07Cskq9rqSGqzaongbo4fELbhM6uYDQJF79G-JCd9IR4RsXNEg8Kta67KVDOWCmG-kGiicfT8ublvUUmcxO5IWnpKwWhCuF4MiANhZQl0qZgAUAd3vUTlp23AZv2oFW6_87MJb5_Iq4wfx6J9DpBDCPerMfXYQ1cLoL0Em23Q2ByaIhh3aguR_KKjjlvcQyTTgRKyC0ii_f3P2Zi2iXOniinpdla9rZfN_HLeqGo_1Yrr-gpugtxw6G_fIDCW8vDS2BhioctLAhZJQKGqfQ9yvHDi21pFSrjcQhdRiURux-Q9EtT8D3H2s1f4T_sxa8tXYNSIlz-PvRQcroU4H-sc1QXfBUybTCbd2EvYby-zGDUaEVdvDqgHRhhY0Jt1JyqpZMfh3AaIXIdaviBMCO-VhAtoimvvZZnTtA6IptDV_1DrMiswI7VRu90-bhmSwiFQ7wskOVtlKfvc2MqFe-FL8vKcM_yhzQBzZhxtRne6IruhS7eLmz0mhpLXoudM4-M9oExzFijKYIMUtTwjnV9kaotb4odNs1Am2baxu-zxyGCK59dzoAdrdwHD67_JqyVezFEXm_OnqHiN_5NcpdIp9f9tL94dJyNGSXSzCZwWZ-0S0]--></g></svg>