<svg xmlns="http://www.w3.org/2000/svg" xmlns:xlink="http://www.w3.org/1999/xlink" contentStyleType="text/css" data-diagram-type="STATE" height="703px" preserveAspectRatio="none" style="width:865px;height:703px;background:#FFFFFF;" version="1.1" viewBox="0 0 865 703" width="865px" zoomAndPan="magnify"><?plantuml 1.2026.6?><defs/><g><g class="entity" data-qualified-name="in1" data-source-line="3" id="ent0001"><rect fill="#F1F1F1" height="50" rx="12.5" ry="12.5" style="stroke:#181818;stroke-width:0.5;" width="182.5996" x="337" y="7"/><line style="stroke:#181818;stroke-width:0.5;" x1="337" x2="519.5996" y1="34.6094" y2="34.6094"/><text fill="#000000" font-family="sans-serif" font-size="14" lengthAdjust="spacing" textLength="162.5996" x="347" y="26.5332">PUBLICACION_ABIERTA</text></g><g class="entity" data-qualified-name="responderPublicacion" data-source-line="6" id="ent0002"><path d="M19.5,135 L837.5,135 A12.5,12.5 0 0 1 850,147.5 L850,162.6094 L7,162.6094 L7,147.5 A12.5,12.5 0 0 1 19.5,135" fill="#F1F1F1"/><rect fill="none" height="425.6094" rx="12.5" ry="12.5" style="stroke:#181818;stroke-width:0.5;" width="843" x="7" y="135"/><line style="stroke:#181818;stroke-width:0.5;" x1="7" x2="850" y1="162.6094" y2="162.6094"/><text fill="#000000" font-family="sans-serif" font-size="14" lengthAdjust="spacing" textLength="143.9648" x="356.5176" y="154.5332">responderPublicacion()</text><g class="entity" data-qualified-name="responderPublicacion.IntroduciendoRespuesta" data-source-line="7" id="ent0003"><rect fill="#F1F1F1" height="50" rx="12.5" ry="12.5" style="stroke:#181818;stroke-width:0.5;" width="50" x="343" y="281.6094"/><line style="stroke:#181818;stroke-width:0.5;" x1="343" x2="393" y1="309.2188" y2="309.2188"/><text fill="#000000" font-family="sans-serif" font-size="14" lengthAdjust="spacing" textLength="3.8896" x="366.0552" y="301.1426">&#160;</text></g><g class="entity" data-qualified-name="responderPublicacion.ValidandoRespuesta" data-source-line="8" id="ent0004"><rect fill="#F1F1F1" height="50" rx="12.5" ry="12.5" style="stroke:#181818;stroke-width:0.5;" width="50" x="280" y="403.6094"/><line style="stroke:#181818;stroke-width:0.5;" x1="280" x2="330" y1="431.2188" y2="431.2188"/><text fill="#000000" font-family="sans-serif" font-size="14" lengthAdjust="spacing" textLength="3.8896" x="303.0552" y="423.1426">&#160;</text></g><g class="start_entity" data-qualified-name="responderPublicacion..start.responderPublicacion" data-source-line="10" id="ent0006"><ellipse cx="368" cy="183.6094" fill="#222222" rx="10" ry="10" style="stroke:#222222;stroke-width:1;"/></g><g class="end_entity" data-qualified-name="responderPublicacion..end.responderPublicacion" data-source-line="21" id="ent0009"><ellipse cx="473" cy="536.6094" fill="none" rx="11" ry="11" style="stroke:#222222;stroke-width:1;"/><ellipse cx="473" cy="536.6094" fill="#222222" rx="6" ry="6" style="stroke:#222222;stroke-width:1;"/></g><!--link *start*responderPublicacion to IntroduciendoRespuesta--><g class="link" data-entity-1="ent0006" data-entity-2="ent0003" data-link-type="dependency" data-source-line="10" id="lnk7"><path d="M368,193.6994 C368,212.1694 368,249.5894 368,276.5794" fill="none" id="*start*responderPublicacion-to-IntroduciendoRespuesta" style="stroke:#008000;stroke-width:1;"/><polygon fill="#008000" points="368,281.5794,372,272.5794,368,276.5794,364,272.5794,368,281.5794" style="stroke:#008000;stroke-width:1;stroke-linejoin:miter;stroke-miterlimit:10;"/><path d="M373,216.6094 L373,258.6094 L651,258.6094 L651,226.6094 L641,216.6094 L373,216.6094" fill="#FEFFDD" style="stroke:#181818;stroke-width:0.5;"/><path d="M641,216.6094 L641,226.6094 L651,226.6094 L641,216.6094" fill="#FEFFDD" style="stroke:#181818;stroke-width:0.5;"/><text fill="#000000" font-family="sans-serif" font-size="13" font-weight="700" lengthAdjust="spacing" textLength="77.9937" x="379" y="235.1045">Coordinador</text><text fill="#000000" font-family="sans-serif" font-size="13" lengthAdjust="spacing" textLength="170.5425" x="460.6055" y="235.1045">solicita responder publicacion</text><text fill="#000000" font-family="sans-serif" font-size="13" font-weight="700" lengthAdjust="spacing" textLength="49.8608" x="379" y="251.4561">Sistema</text><text fill="#000000" font-family="sans-serif" font-size="13" lengthAdjust="spacing" textLength="204.5024" x="432.4727" y="251.4561">presenta el formulario de respuesta</text></g><!--link IntroduciendoRespuesta to ValidandoRespuesta--><g class="link" data-entity-1="ent0003" data-entity-2="ent0004" data-link-type="dependency" data-source-line="16" id="lnk8"><path d="M342.83,310.6294 C262.58,320.2594 18,349.6094 18,349.6094 C18,349.6094 18,385.6094 18,385.6094 C18,385.6094 204.8027,412.9453 274.8327,423.1953" fill="none" id="IntroduciendoRespuesta-to-ValidandoRespuesta" style="stroke:#008000;stroke-width:1;"/><polygon fill="#008000" points="279.78,423.9194,271.4542,418.6581,274.8327,423.1953,270.2956,426.5738,279.78,423.9194" style="stroke:#008000;stroke-width:1;stroke-linejoin:miter;stroke-miterlimit:10;"/><path d="M23,354.6094 L23,380.6094 L341,380.6094 L341,364.6094 L331,354.6094 L23,354.6094" fill="#FEFFDD" style="stroke:#181818;stroke-width:0.5;"/><path d="M331,354.6094 L331,364.6094 L341,364.6094 L331,354.6094" fill="#FEFFDD" style="stroke:#181818;stroke-width:0.5;"/><text fill="#000000" font-family="sans-serif" font-size="13" font-weight="700" lengthAdjust="spacing" textLength="77.9937" x="29" y="373.1045">Coordinador</text><text fill="#000000" font-family="sans-serif" font-size="13" lengthAdjust="spacing" textLength="216.0679" x="110.6055" y="373.1045">introduce contenido y solicita publicar</text></g><!--link ValidandoRespuesta to *end*responderPublicacion--><g class="link" data-entity-1="ent0004" data-entity-2="ent0009" data-link-type="dependency" data-source-line="21" id="lnk10"><path d="M305.31,453.8594 C305.6,476.7594 306,507.6094 306,507.6094 C306,507.6094 420.5088,526.8126 457.3688,532.9926" fill="none" id="ValidandoRespuesta-to-*end*responderPublicacion" style="stroke:#008000;stroke-width:1;"/><polygon fill="#008000" points="462.3,533.8194,454.0853,528.3863,457.3688,532.9926,452.7625,536.2761,462.3,533.8194" style="stroke:#008000;stroke-width:1;stroke-linejoin:miter;stroke-miterlimit:10;"/><path d="M311,476.6094 L311,502.6094 L623,502.6094 L623,486.6094 L613,476.6094 L311,476.6094" fill="#FEFFDD" style="stroke:#181818;stroke-width:0.5;"/><path d="M613,476.6094 L613,486.6094 L623,486.6094 L613,476.6094" fill="#FEFFDD" style="stroke:#181818;stroke-width:0.5;"/><text fill="#000000" font-family="sans-serif" font-size="13" font-weight="700" lengthAdjust="spacing" textLength="49.8608" x="317" y="495.1045">Sistema</text><text fill="#000000" font-family="sans-serif" font-size="13" lengthAdjust="spacing" textLength="238.4624" x="370.4727" y="495.1045">registra la respuesta con su autor y fecha</text></g><!--link ValidandoRespuesta to IntroduciendoRespuesta--><g class="link" data-entity-1="ent0004" data-entity-2="ent0003" data-link-type="dependency" data-source-line="26" id="lnk11"><path d="M328.85,403.1794 C337.87,393.9394 346,385.6094 346,385.6094 C346,385.6094 353.3425,359.5716 359.8025,336.6716" fill="none" id="ValidandoRespuesta-to-IntroduciendoRespuesta" style="stroke:#FF0000;stroke-width:1;"/><polygon fill="#FF0000" points="361.16,331.8594,354.8667,339.4353,359.8025,336.6716,362.5663,341.6073,361.16,331.8594" style="stroke:#FF0000;stroke-width:1;stroke-linejoin:miter;stroke-miterlimit:10;"/><path d="M361,354.6094 L361,380.6094 L610,380.6094 L610,364.6094 L600,354.6094 L361,354.6094" fill="#FEFFDD" style="stroke:#181818;stroke-width:0.5;"/><path d="M600,354.6094 L600,364.6094 L610,364.6094 L600,354.6094" fill="#FEFFDD" style="stroke:#181818;stroke-width:0.5;"/><text fill="#000000" font-family="sans-serif" font-size="13" font-weight="700" lengthAdjust="spacing" textLength="49.8608" x="367" y="373.1045">Sistema</text><text fill="#000000" font-family="sans-serif" font-size="13" lengthAdjust="spacing" textLength="174.8779" x="420.4727" y="373.1045">presenta errores de validacion</text></g><!--link IntroduciendoRespuesta to *end*responderPublicacion--><g class="link" data-entity-1="ent0003" data-entity-2="ent0009" data-link-type="dependency" data-source-line="31" id="lnk12"><path d="M393.45,311.8694 C457.26,322.5494 619,349.6094 619,349.6094 C619,349.6094 628,471.6094 628,471.6094 C628,471.6094 628,507.6094 628,507.6094 C628,507.6094 523.5903,526.47 488.5703,532.8" fill="none" id="IntroduciendoRespuesta-to-*end*responderPublicacion" style="stroke:#FF0000;stroke-width:1;"/><polygon fill="#FF0000" points="483.65,533.6894,493.218,536.0247,488.5703,532.8,491.795,528.1523,483.65,533.6894" style="stroke:#FF0000;stroke-width:1;stroke-linejoin:miter;stroke-miterlimit:10;"/><path d="M631,415.6094 L631,441.6094 L826,441.6094 L826,425.6094 L816,415.6094 L631,415.6094" fill="#FEFFDD" style="stroke:#181818;stroke-width:0.5;"/><path d="M816,415.6094 L816,425.6094 L826,425.6094 L816,415.6094" fill="#FEFFDD" style="stroke:#181818;stroke-width:0.5;"/><text fill="#000000" font-family="sans-serif" font-size="13" font-weight="700" lengthAdjust="spacing" textLength="77.9937" x="637" y="434.1045">Coordinador</text><text fill="#000000" font-family="sans-serif" font-size="13" lengthAdjust="spacing" textLength="92.4854" x="718.6055" y="434.1045">solicita cancelar</text></g></g><g class="entity" data-qualified-name="PUBLICACION_ABIERTA" data-source-line="37" id="ent0013"><rect fill="#F1F1F1" height="50" rx="12.5" ry="12.5" style="stroke:#181818;stroke-width:0.5;" width="182.5996" x="337" y="639"/><line style="stroke:#181818;stroke-width:0.5;" x1="337" x2="519.5996" y1="666.6094" y2="666.6094"/><text fill="#000000" font-family="sans-serif" font-size="14" lengthAdjust="spacing" textLength="162.5996" x="347" y="658.5332">PUBLICACION_ABIERTA</text></g><!--link in1 to responderPublicacion--><g class="link" data-entity-1="ent0001" data-entity-2="ent0002" data-link-type="dependency" data-source-line="4" id="lnk5"><path d="M428.5,57.12 C428.5,75.79 428.5,98.66 428.5,129.87" fill="none" id="in1-to-responderPublicacion" style="stroke:#008000;stroke-width:1;"/><polygon fill="#008000" points="428.5,134.87,432.5,125.87,428.5,129.87,424.5,125.87,428.5,134.87" style="stroke:#008000;stroke-width:1;stroke-linejoin:miter;stroke-miterlimit:10;"/><text fill="#000000" font-family="sans-serif" font-size="13" lengthAdjust="spacing" textLength="133.6816" x="429.5" y="101.4951">responderPublicacion()</text></g><!--link responderPublicacion to PUBLICACION_ABIERTA--><g class="link" data-entity-1="ent0002" data-entity-2="ent0013" data-link-type="dependency" data-source-line="37" id="lnk14"><path d="M354.8,561.33 C348.52,579.42 344.5,591 344.5,591 C344.5,591 344.5,609 344.5,609 C344.5,609 364.3537,621.7668 386.7137,636.1368" fill="none" id="responderPublicacion-to-PUBLICACION_ABIERTA" style="stroke:#008000;stroke-width:1;"/><polygon fill="#008000" points="390.92,638.84,385.5113,630.6092,386.7137,636.1368,381.1862,637.3392,390.92,638.84" style="stroke:#008000;stroke-width:1;stroke-linejoin:miter;stroke-miterlimit:10;"/><text fill="#000000" font-family="sans-serif" font-size="13" lengthAdjust="spacing" textLength="121.418" x="345.5" y="605.4951">Respuesta publicada</text></g><!--link responderPublicacion to PUBLICACION_ABIERTA--><g class="link" data-entity-1="ent0002" data-entity-2="ent0013" data-link-type="dependency" data-source-line="38" id="lnk15"><path d="M466.23,561.33 C469.44,579.42 471.5,591 471.5,591 C471.5,591 471.5,609 471.5,609 C471.5,609 462.3058,620.5596 450.8558,634.9296" fill="none" id="responderPublicacion-to-PUBLICACION_ABIERTA-1" style="stroke:#FF0000;stroke-width:1;"/><polygon fill="#FF0000" points="447.74,638.84,456.4769,634.2939,450.8558,634.9296,450.2202,629.3085,447.74,638.84" style="stroke:#FF0000;stroke-width:1;stroke-linejoin:miter;stroke-miterlimit:10;"/><text fill="#000000" font-family="sans-serif" font-size="13" lengthAdjust="spacing" textLength="125.0298" x="472.5" y="605.4951">Respuesta cancelada</text></g><?plantuml-src dPDDIyD048Rl-HL3lAXGnAkKGbiy54HB_RYK8jFij2vDTy9a8nJnlpj9KsFijXQJItPtFfxtdMo-iYv3mJMarf7VP0GPfvjo4KMvHqzWtJLW3l7uUN0t6lQ7euVxr_vWT3jvwiTHUTYPdYs5oCqwFH3ACtQ6P5pCKvjWOjd1JN3x_6BN8PXKjWodnV0HWJxRv5XVZHqvBsoAn98pFD6yWlHyF-u5Kskm5LC5JIzdBI57wZdMSage9gsgZUwyDsGMOnqQbkxLl0SvAw_rs6Y3hD6motgqkQSrLXcPHfBJ34fXmR8kKXJBOBRsDDsLfoBOOeSnMqe2YazLOUlg10axJyuQXasZhLOa0QxzfYqcTViWn4zJX9Qw4eGK6njA6CWBmCApAC-2aZSycK78_6E-uKc9i7wNCtglUdtFzjGXrJ37x3ZuPoNe4af_k_yPHS7hzDFzm4tMEzg0rNCrUB1KpVrNeHhHu1S0?></g></svg>