<svg xmlns="http://www.w3.org/2000/svg" xmlns:xlink="http://www.w3.org/1999/xlink" contentStyleType="text/css" height="692px" preserveAspectRatio="none" style="width:848px;height:692px;background:#FFFFFF;" version="1.1" viewBox="0 0 848 692" width="848px" zoomAndPan="magnify"><defs/><g><g id="in1"><rect fill="#F1F1F1" height="50" rx="12.5" ry="12.5" style="stroke:#181818;stroke-width:0.5;" width="182.5996" x="329.5" y="7"/><line style="stroke:#181818;stroke-width:0.5;" x1="329.5" x2="512.0996" y1="34.6094" y2="34.6094"/><text fill="#000000" font-family="sans-serif" font-size="14" lengthAdjust="spacing" textLength="162.5996" x="339.5" y="26.5332">PUBLICACION_ABIERTA</text></g><path d="M19.5,135 L822.5,135 A12.5,12.5 0 0 1 835,147.5 L835,162.6094 L7,162.6094 L7,147.5 A12.5,12.5 0 0 1 19.5,135 " fill="#F1F1F1" style="stroke:#F1F1F1;stroke-width:1;"/><rect fill="none" height="422.6094" rx="12.5" ry="12.5" style="stroke:#181818;stroke-width:0.5;" width="828" x="7" y="135"/><line style="stroke:#181818;stroke-width:0.5;" x1="7" x2="835" y1="162.6094" y2="162.6094"/><text fill="#000000" font-family="sans-serif" font-size="14" lengthAdjust="spacing" textLength="143.9648" x="349.0176" y="154.5332">responderPublicacion()</text><g id="responderPublicacion.IntroduciendoRespuesta"><rect fill="#F1F1F1" height="50" rx="12.5" ry="12.5" style="stroke:#181818;stroke-width:0.5;" width="50" x="343" y="281.6094"/><line style="stroke:#181818;stroke-width:0.5;" x1="343" x2="393" y1="309.2188" y2="309.2188"/><text fill="#000000" font-family="sans-serif" font-size="14" lengthAdjust="spacing" textLength="3.8896" x="366.0552" y="301.1426">&#160;</text></g><g id="responderPublicacion.ValidandoRespuesta"><rect fill="#F1F1F1" height="50" rx="12.5" ry="12.5" style="stroke:#181818;stroke-width:0.5;" width="50" x="280" y="403.6094"/><line style="stroke:#181818;stroke-width:0.5;" x1="280" x2="330" y1="431.2188" y2="431.2188"/><text fill="#000000" font-family="sans-serif" font-size="14" lengthAdjust="spacing" textLength="3.8896" x="303.0552" y="423.1426">&#160;</text></g><ellipse cx="368" cy="183.6094" fill="#222222" rx="10" ry="10" style="stroke:#222222;stroke-width:1;"/><ellipse cx="473" cy="536.6094" fill="none" rx="11" ry="11" style="stroke:#222222;stroke-width:1;"/><ellipse cx="473" cy="536.6094" fill="#222222" rx="6" ry="6" style="stroke:#222222;stroke-width:1;"/><!--link *start*responderPublicacion to IntroduciendoRespuesta--><g id="link_*start*responderPublicacion_IntroduciendoRespuesta"><path d="M368,193.6994 C368,212.1694 368,248.5894 368,275.5794 " fill="none" id="*start*responderPublicacion-to-IntroduciendoRespuesta" style="stroke:#008000;stroke-width:1;"/><polygon fill="#008000" points="368,281.5794,372,272.5794,368,276.5794,364,272.5794,368,281.5794" style="stroke:#008000;stroke-width:1;"/><path d="M373,216.6094 L373,258.6094 L651,258.6094 L651,226.6094 L641,216.6094 L373,216.6094 " fill="#FEFFDD" style="stroke:#181818;stroke-width:0.5;"/><path d="M641,216.6094 L641,226.6094 L651,226.6094 L641,216.6094 " fill="#FEFFDD" style="stroke:#181818;stroke-width:0.5;"/><text fill="#000000" font-family="sans-serif" font-size="13" font-weight="bold" lengthAdjust="spacing" textLength="77.9937" x="379" y="235.1045">Coordinador</text><text fill="#000000" font-family="sans-serif" font-size="13" lengthAdjust="spacing" textLength="170.5425" x="460.6055" y="235.1045">solicita responder publicacion</text><text fill="#000000" font-family="sans-serif" font-size="13" font-weight="bold" lengthAdjust="spacing" textLength="49.8608" x="379" y="251.4561">Sistema</text><text fill="#000000" font-family="sans-serif" font-size="13" lengthAdjust="spacing" textLength="204.5024" x="432.4727" y="251.4561">presenta el formulario de respuesta</text></g><!--link IntroduciendoRespuesta to ValidandoRespuesta--><g id="link_IntroduciendoRespuesta_ValidandoRespuesta"><path d="M342.83,310.6294 C262.58,320.2594 18,349.6094 18,349.6094 C18,349.6094 18,385.6094 18,385.6094 C18,385.6094 203.8133,412.8004 273.8433,423.0504 " fill="none" id="IntroduciendoRespuesta-to-ValidandoRespuesta" style="stroke:#008000;stroke-width:1;"/><polygon fill="#008000" points="279.78,423.9194,271.4542,418.6581,274.8327,423.1953,270.2956,426.5738,279.78,423.9194" style="stroke:#008000;stroke-width:1;"/><path d="M23,354.6094 L23,380.6094 L341,380.6094 L341,364.6094 L331,354.6094 L23,354.6094 " fill="#FEFFDD" style="stroke:#181818;stroke-width:0.5;"/><path d="M331,354.6094 L331,364.6094 L341,364.6094 L331,354.6094 " fill="#FEFFDD" style="stroke:#181818;stroke-width:0.5;"/><text fill="#000000" font-family="sans-serif" font-size="13" font-weight="bold" lengthAdjust="spacing" textLength="77.9937" x="29" y="373.1045">Coordinador</text><text fill="#000000" font-family="sans-serif" font-size="13" lengthAdjust="spacing" textLength="216.0679" x="110.6055" y="373.1045">introduce contenido y solicita publicar</text></g><!--link ValidandoRespuesta to *end*responderPublicacion--><g id="link_ValidandoRespuesta_*end*responderPublicacion"><path d="M305.31,453.8594 C305.6,476.7594 306,507.6094 306,507.6094 C306,507.6094 419.5226,526.6473 456.3826,532.8273 " fill="none" id="ValidandoRespuesta-to-*end*responderPublicacion" style="stroke:#008000;stroke-width:1;"/><polygon fill="#008000" points="462.3,533.8194,454.0853,528.3863,457.3688,532.9926,452.7625,536.2761,462.3,533.8194" style="stroke:#008000;stroke-width:1;"/><path d="M311,476.6094 L311,502.6094 L623,502.6094 L623,486.6094 L613,476.6094 L311,476.6094 " fill="#FEFFDD" style="stroke:#181818;stroke-width:0.5;"/><path d="M613,476.6094 L613,486.6094 L623,486.6094 L613,476.6094 " fill="#FEFFDD" style="stroke:#181818;stroke-width:0.5;"/><text fill="#000000" font-family="sans-serif" font-size="13" font-weight="bold" lengthAdjust="spacing" textLength="49.8608" x="317" y="495.1045">Sistema</text><text fill="#000000" font-family="sans-serif" font-size="13" lengthAdjust="spacing" textLength="238.4624" x="370.4727" y="495.1045">registra la respuesta con su autor y fecha</text></g><!--link ValidandoRespuesta to IntroduciendoRespuesta--><g id="link_ValidandoRespuesta_IntroduciendoRespuesta"><path d="M328.85,403.1794 C337.87,393.9394 346,385.6094 346,385.6094 C346,385.6094 353.071,360.534 359.531,337.634 " fill="none" id="ValidandoRespuesta-to-IntroduciendoRespuesta" style="stroke:#FF0000;stroke-width:1;"/><polygon fill="#FF0000" points="361.16,331.8594,354.8667,339.4353,359.8025,336.6716,362.5663,341.6073,361.16,331.8594" style="stroke:#FF0000;stroke-width:1;"/><path d="M361,354.6094 L361,380.6094 L610,380.6094 L610,364.6094 L600,354.6094 L361,354.6094 " fill="#FEFFDD" style="stroke:#181818;stroke-width:0.5;"/><path d="M600,354.6094 L600,364.6094 L610,364.6094 L600,354.6094 " fill="#FEFFDD" style="stroke:#181818;stroke-width:0.5;"/><text fill="#000000" font-family="sans-serif" font-size="13" font-weight="bold" lengthAdjust="spacing" textLength="49.8608" x="367" y="373.1045">Sistema</text><text fill="#000000" font-family="sans-serif" font-size="13" lengthAdjust="spacing" textLength="174.8779" x="420.4727" y="373.1045">presenta errores de validacion</text></g><!--link IntroduciendoRespuesta to *end*responderPublicacion--><g id="link_IntroduciendoRespuesta_*end*responderPublicacion"><path d="M393.45,311.8694 C457.26,322.5494 619,349.6094 619,349.6094 C619,349.6094 628,471.6094 628,471.6094 C628,471.6094 628,507.6094 628,507.6094 C628,507.6094 524.5743,526.2921 489.5543,532.6221 " fill="none" id="IntroduciendoRespuesta-to-*end*responderPublicacion" style="stroke:#FF0000;stroke-width:1;"/><polygon fill="#FF0000" points="483.65,533.6894,493.218,536.0247,488.5703,532.8,491.795,528.1523,483.65,533.6894" style="stroke:#FF0000;stroke-width:1;"/><path d="M631,415.6094 L631,441.6094 L826,441.6094 L826,425.6094 L816,415.6094 L631,415.6094 " fill="#FEFFDD" style="stroke:#181818;stroke-width:0.5;"/><path d="M816,415.6094 L816,425.6094 L826,425.6094 L816,415.6094 " fill="#FEFFDD" style="stroke:#181818;stroke-width:0.5;"/><text fill="#000000" font-family="sans-serif" font-size="13" font-weight="bold" lengthAdjust="spacing" textLength="77.9937" x="637" y="434.1045">Coordinador</text><text fill="#000000" font-family="sans-serif" font-size="13" lengthAdjust="spacing" textLength="92.4854" x="718.6055" y="434.1045">solicita cancelar</text></g><g id="PUBLICACION_ABIERTA"><rect fill="#F1F1F1" height="50" rx="12.5" ry="12.5" style="stroke:#181818;stroke-width:0.5;" width="182.5996" x="329.5" y="636"/><line style="stroke:#181818;stroke-width:0.5;" x1="329.5" x2="512.0996" y1="663.6094" y2="663.6094"/><text fill="#000000" font-family="sans-serif" font-size="14" lengthAdjust="spacing" textLength="162.5996" x="339.5" y="655.5332">PUBLICACION_ABIERTA</text></g><!--link in1 to responderPublicacion--><g id="link_in1_responderPublicacion"><path d="M421,57 C421,75.65 421,97.54 421,128.74 " fill="none" id="in1-to-responderPublicacion" style="stroke:#008000;stroke-width:1;"/><polygon fill="#008000" points="421,134.74,425,125.74,421,129.74,417,125.74,421,134.74" style="stroke:#008000;stroke-width:1;"/><text fill="#000000" font-family="sans-serif" font-size="13" lengthAdjust="spacing" textLength="133.6816" x="422" y="101.4951">responderPublicacion()</text></g><!--link responderPublicacion to PUBLICACION_ABIERTA--><g id="link_responderPublicacion_PUBLICACION_ABIERTA"><path d="M347.47,558.03 C341.09,576.29 337,588 337,588 C337,588 337,606 337,606 C337,606 356.0125,618.2261 378.3725,632.5961 " fill="none" id="responderPublicacion-to-PUBLICACION_ABIERTA" style="stroke:#008000;stroke-width:1;"/><polygon fill="#008000" points="383.42,635.84,378.0113,627.6092,379.2137,633.1368,373.6862,634.3392,383.42,635.84" style="stroke:#008000;stroke-width:1;"/><text fill="#000000" font-family="sans-serif" font-size="13" lengthAdjust="spacing" textLength="121.418" x="338" y="602.4951">Respuesta publicada</text></g><!--link responderPublicacion to PUBLICACION_ABIERTA--><g id="link_responderPublicacion_PUBLICACION_ABIERTA"><path d="M458.64,558.03 C461.91,576.29 464,588 464,588 C464,588 464,606 464,606 C464,606 455.429,616.7775 443.979,631.1475 " fill="none" id="responderPublicacion-to-PUBLICACION_ABIERTA-1" style="stroke:#FF0000;stroke-width:1;"/><polygon fill="#FF0000" points="440.24,635.84,448.9769,631.2939,443.3558,631.9296,442.7202,626.3085,440.24,635.84" style="stroke:#FF0000;stroke-width:1;"/><text fill="#000000" font-family="sans-serif" font-size="13" lengthAdjust="spacing" textLength="125.0298" x="465" y="602.4951">Respuesta cancelada</text></g><!--SRC=[dPDDIyD048Rl-HL3lAXGnAkKGbiy54HB_RYK8jFij2vDTy9a8nJnlpj9KsFijXQJItPtFfxtdMo-iYv3mJMarf7VP0GPfvjo4KMvHqzWtJLW3l7uUN0t6lQ7euVxr_vWT3jvwiTHUTYPdYs5oCqwFH3ACtQ6P5pCKvjWOjd1JN3x_6BN8PXKjWodnV0HWJxRv5XVZHqvBsoAn98pFD6yWlHyF-u5Kskm5LC5JIzdBI57wZdMSage9gsgZUwyDsGMOnqQbkxLl0SvAw_rs6Y3hD6motgqkQSrLXcPHfBJ34fXmR8kKXJBOBRsDDsLfoBOOeSnMqe2YazLOUlg10axJyuQXasZhLOa0QxzfYqcTViWn4zJX9Qw4eGK6njA6CWBmCApAC-2aZSycK78_6E-uKc9i7wNCtglUdtFzjGXrJ37x3ZuPoNe4af_k_yPHS7hzDFzm4tMEzg0rNCrUB1KpVrNeHhHu1S0]--></g></svg>