<svg xmlns="http://www.w3.org/2000/svg" xmlns:xlink="http://www.w3.org/1999/xlink" contentStyleType="text/css" data-diagram-type="DESCRIPTION" height="479px" preserveAspectRatio="none" style="width:1075px;height:479px;background:#FFFFFF;" version="1.1" viewBox="0 0 1075 479" width="1075px" zoomAndPan="magnify"><?plantuml 1.2026.6?><defs/><g><!--cluster responderPublicacion--><g class="cluster" data-qualified-name="responderPublicacion" data-source-line="4" id="ent0002"><path d="M211.5,6 L368.8584,6 A3.75,3.75 0 0 1 371.3584,8.5 L378.3584,29.6094 L814.5,29.6094 A2.5,2.5 0 0 1 817,32.1094 L817,461.5 A2.5,2.5 0 0 1 814.5,464 L211.5,464 A2.5,2.5 0 0 1 209,461.5 L209,8.5 A2.5,2.5 0 0 1 211.5,6" fill="none" style="stroke:#000000;stroke-width:1.5;"/><line style="stroke:#000000;stroke-width:1.5;" x1="209" x2="378.3584" y1="29.6094" y2="29.6094"/><text fill="#000000" font-family="sans-serif" font-size="14" font-weight="700" lengthAdjust="spacing" textLength="156.3584" x="213" y="22.5332">responderPublicacion()</text></g><!--entity View--><g class="entity" data-qualified-name="responderPublicacion.View" data-source-line="5" id="ent0003"><rect fill="#629EF9" height="37.6094" rx="2.5" ry="2.5" style="stroke:#181818;stroke-width:0.5;" width="184.9854" x="425.5" y="42"/><text fill="#000000" font-family="sans-serif" font-size="14" lengthAdjust="spacing" textLength="164.9854" x="435.5" y="66.5332">responderPublicacionView</text></g><!--entity PublicacionController--><g class="entity" data-qualified-name="responderPublicacion.PublicacionController" data-source-line="6" id="ent0004"><rect fill="#B5BD68" height="37.6094" rx="2.5" ry="2.5" style="stroke:#181818;stroke-width:0.5;" width="152.2891" x="442" y="158"/><text fill="#000000" font-family="sans-serif" font-size="14" lengthAdjust="spacing" textLength="132.2891" x="452" y="182.5332">PublicacionController</text></g><!--entity PoliticaPublicacion--><g class="entity" data-qualified-name="responderPublicacion.PoliticaPublicacion" data-source-line="7" id="ent0005"><rect fill="#B5BD68" height="37.6094" rx="2.5" ry="2.5" style="stroke:#181818;stroke-width:0.5;" width="136.7305" x="245.5" y="292.5"/><text fill="#000000" font-family="sans-serif" font-size="14" lengthAdjust="spacing" textLength="116.7305" x="255.5" y="317.0332">PoliticaPublicacion</text></g><!--entity PublicacionRepository--><g class="entity" data-qualified-name="responderPublicacion.PublicacionRepository" data-source-line="8" id="ent0006"><rect fill="#F2AC4E" height="37.6094" rx="2.5" ry="2.5" style="stroke:#181818;stroke-width:0.5;" width="158.5166" x="427.5" y="292.5"/><text fill="#000000" font-family="sans-serif" font-size="14" lengthAdjust="spacing" textLength="138.5166" x="437.5" y="317.0332">PublicacionRepository</text></g><!--entity Publicacion--><g class="entity" data-qualified-name="responderPublicacion.Publicacion" data-source-line="9" id="ent0007"><rect fill="#F2AC4E" height="37.6094" rx="2.5" ry="2.5" style="stroke:#181818;stroke-width:0.5;" width="91.5996" x="461" y="410"/><text fill="#000000" font-family="sans-serif" font-size="14" lengthAdjust="spacing" textLength="71.5996" x="471" y="434.5332">Publicacion</text></g><!--entity RespuestaRepository--><g class="entity" data-qualified-name="responderPublicacion.RespuestaRepository" data-source-line="10" id="ent0008"><rect fill="#F2AC4E" height="37.6094" rx="2.5" ry="2.5" style="stroke:#181818;stroke-width:0.5;" width="153.8477" x="622" y="292.5"/><text fill="#000000" font-family="sans-serif" font-size="14" lengthAdjust="spacing" textLength="133.8477" x="632" y="317.0332">RespuestaRepository</text></g><!--entity Respuesta--><g class="entity" data-qualified-name="responderPublicacion.Respuesta" data-source-line="11" id="ent0009"><rect fill="#F2AC4E" height="37.6094" rx="2.5" ry="2.5" style="stroke:#181818;stroke-width:0.5;" width="86.9307" x="655.5" y="410"/><text fill="#000000" font-family="sans-serif" font-size="14" lengthAdjust="spacing" textLength="66.9307" x="665.5" y="434.5332">Respuesta</text></g><!--entity EstadoEntrada--><g class="entity" data-qualified-name="EstadoEntrada" data-source-line="3" id="ent0001"><rect fill="#CDEBA5" height="37.6094" rx="2.5" ry="2.5" style="stroke:#181818;stroke-width:0.5;" width="186.4893" x="7" y="42"/><text fill="#000000" font-family="sans-serif" font-size="14" lengthAdjust="spacing" textLength="166.4893" x="17" y="66.5332">:PUBLICACION_ABIERTA</text></g><!--entity EstadoSalida--><g class="entity" data-qualified-name="EstadoSalida" data-source-line="13" id="ent0010"><rect fill="#CDEBA5" height="37.6094" rx="2.5" ry="2.5" style="stroke:#181818;stroke-width:0.5;" width="186.4893" x="833" y="158"/><text fill="#000000" font-family="sans-serif" font-size="14" lengthAdjust="spacing" textLength="166.4893" x="843" y="182.5332">:PUBLICACION_ABIERTA</text></g><g class="entity" data-qualified-name="GMN19" data-source-line="25" id="ent0020"><path d="M833,274 L833,349.4063 L1060.6226,349.4063 L1060.6226,284 L1050.6226,274 L833,274" fill="#FEFFDD" style="stroke:#181818;stroke-width:0.5;"/><path d="M1050.6226,274 L1050.6226,284 L1060.6226,284 L1050.6226,274" fill="#FEFFDD" style="stroke:#181818;stroke-width:1;"/><text fill="#000000" font-family="sans-serif" font-size="13" lengthAdjust="spacing" textLength="134.4243" x="839" y="292.4951">Responsabilidad unica:</text><text fill="#000000" font-family="sans-serif" font-size="13" lengthAdjust="spacing" textLength="191.4707" x="839" y="308.8467">autoriza sin persistir ni presentar.</text><text fill="#000000" font-family="sans-serif" font-size="13" lengthAdjust="spacing" textLength="206.6226" x="839" y="325.1982">Permite ampliar reglas sin modificar</text><text fill="#000000" font-family="sans-serif" font-size="13" lengthAdjust="spacing" textLength="185.7324" x="839" y="341.5498">la coordinacion del caso de uso.</text></g><!--link EstadoEntrada to View--><g class="link" data-entity-1="ent0001" data-entity-2="ent0003" data-link-type="dependency" data-source-line="15" id="lnk11"><path d="M193.03,61 C262.19,61 351.15,61 420.24,61" fill="none" id="EstadoEntrada-to-View" style="stroke:#181818;stroke-width:1;"/><polygon fill="#181818" points="425.24,61,416.24,57,420.24,61,416.24,65,425.24,61" style="stroke:#181818;stroke-width:1;stroke-linejoin:miter;stroke-miterlimit:10;"/><text fill="#000000" font-family="sans-serif" font-size="13" lengthAdjust="spacing" textLength="133.6816" x="242.75" y="54.4951">responderPublicacion()</text></g><!--link View to PublicacionController--><g class="link" data-entity-1="ent0003" data-entity-2="ent0004" data-link-type="dependency" data-source-line="16" id="lnk12"><path d="M518,80.06 C518,101.28 518,131.3 518,152.64" fill="none" id="View-to-PublicacionController" style="stroke:#181818;stroke-width:1;"/><polygon fill="#181818" points="518,157.64,522,148.64,518,152.64,514,148.64,518,157.64" style="stroke:#181818;stroke-width:1;stroke-linejoin:miter;stroke-miterlimit:10;"/><text fill="#000000" font-family="sans-serif" font-size="13" lengthAdjust="spacing" textLength="216.7725" x="519" y="124.4951">responderPublicacion(solicitud, actor)</text></g><!--link PublicacionController to PublicacionRepository--><g class="link" data-entity-1="ent0004" data-entity-2="ent0006" data-link-type="dependency" data-source-line="17" id="lnk13"><path d="M516.49,196.15 C514.4,221.38 511.0449,261.8272 508.9349,287.1672" fill="none" id="PublicacionController-to-PublicacionRepository" style="stroke:#181818;stroke-width:1;"/><polygon fill="#181818" points="508.52,292.15,513.253,283.513,508.9349,287.1672,505.2806,282.8491,508.52,292.15" style="stroke:#181818;stroke-width:1;stroke-linejoin:miter;stroke-miterlimit:10;"/><text fill="#000000" font-family="sans-serif" font-size="13" lengthAdjust="spacing" textLength="129.3398" x="514" y="240.4951">obtenerActivaPorId(id)</text></g><!--link PublicacionController to PoliticaPublicacion--><g class="link" data-entity-1="ent0004" data-entity-2="ent0005" data-link-type="dependency" data-source-line="18" id="lnk14"><path d="M441.71,193.78 C374.09,207.77 286,226 286,226 C286,226 286,244 286,244 C286,244 296.1198,268.0318 304.4098,287.7218" fill="none" id="PublicacionController-to-PoliticaPublicacion" style="stroke:#181818;stroke-width:1;"/><polygon fill="#181818" points="306.35,292.33,306.5443,282.4831,304.4098,287.7218,299.1711,285.5873,306.35,292.33" style="stroke:#181818;stroke-width:1;stroke-linejoin:miter;stroke-miterlimit:10;"/><text fill="#000000" font-family="sans-serif" font-size="13" lengthAdjust="spacing" textLength="216.7598" x="287" y="240.4951">permitirResponder(actor, publicacion)</text></g><!--link PublicacionController to RespuestaRepository--><g class="link" data-entity-1="ent0004" data-entity-2="ent0008" data-link-type="dependency" data-source-line="19" id="lnk15"><path d="M567.53,196.01 C604.98,209.63 650,226 650,226 C650,226 671.4518,262.9846 685.8618,287.8346" fill="none" id="PublicacionController-to-RespuestaRepository" style="stroke:#181818;stroke-width:1;"/><polygon fill="#181818" points="688.37,292.16,687.3155,282.3678,685.8618,287.8346,680.3949,286.3809,688.37,292.16" style="stroke:#181818;stroke-width:1;stroke-linejoin:miter;stroke-miterlimit:10;"/><text fill="#000000" font-family="sans-serif" font-size="13" lengthAdjust="spacing" textLength="110.5571" x="660" y="240.4951">guardar(respuesta)</text></g><!--link PublicacionRepository to Publicacion--><g class="link" data-entity-1="ent0006" data-entity-2="ent0007" data-link-type="association" data-source-line="20" id="lnk16"><path d="M507,330.55 C507,352.12 507,388.02 507,409.7" fill="none" id="PublicacionRepository-Publicacion" style="stroke:#181818;stroke-width:1;"/></g><!--link RespuestaRepository to Respuesta--><g class="link" data-entity-1="ent0008" data-entity-2="ent0009" data-link-type="association" data-source-line="21" id="lnk17"><path d="M699,330.55 C699,352.12 699,388.02 699,409.7" fill="none" id="RespuestaRepository-Respuesta" style="stroke:#181818;stroke-width:1;"/></g><!--link View to EstadoSalida--><g class="link" data-entity-1="ent0003" data-entity-2="ent0010" data-link-type="dependency" data-source-line="22" id="lnk18"><path d="M602.8,80.01 C666.93,93.63 744,110 744,110 C744,110 817.6797,136.7149 871.5697,156.2649" fill="none" id="View-to-EstadoSalida" style="stroke:#181818;stroke-width:1;stroke-dasharray:7,7;"/><polygon fill="#181818" points="876.27,157.97,869.1736,151.1405,871.5697,156.2649,866.4454,158.661,876.27,157.97" style="stroke:#181818;stroke-width:1;stroke-linejoin:miter;stroke-miterlimit:10;"/><text fill="#000000" font-family="sans-serif" font-size="13" lengthAdjust="spacing" textLength="130.7935" x="793" y="124.4951">continuarNavegacion()</text></g><!--link PoliticaPublicacion to GMN19--><g class="link" data-entity-1="ent0005" data-entity-2="ent0020" data-link-type="association" data-source-line="25" id="lnk21"><path d="M342.35,292.39 C375.97,269.73 427.5,235 427.5,235 C427.5,235 799.5,235 799.5,235 C799.5,235 837.24,254.58 874.55,273.92" fill="none" id="PoliticaPublicacion-GMN19" style="stroke:#181818;stroke-width:1;stroke-dasharray:7,7;"/></g><?plantuml-src dLDDRzim3BthLn3P9GMQ78grM7qeu7Wk4A1eW-pZEj0Mwn5L946IMwJ3_lje5rdYpcc1-IIBZu_aUrHyOEinu0OCMqfRJ-2TsNO_IWMg4zh647meFfUB_1mcsUhRucPPvCNoxlP7lbYMww_v13126HDgLzeKKAFoM3zWGn0eUcSrXLLR6QwnPcSxz6GiC3sPm2y5yXqKlZYxBAylnnE-CptrnRl3wyJglD8Nd-00NZZfpXb3uHZM6Ku2FiXvZRm-oukFvI7hchoBd5pOleyzWbZBR2s9WEzo_KMgt__XpXSqBEQeWLSm2xEhNi4CnbrHNH1cMc2ZQXx9Yw9cpQdLfu2rp7IYHhDXDkJTQv21gn9P2dcT-15NBYprbFMRFFywc86di97RiDvrEUtxEGM_Hxr5Ec9F1asBGMEOXbrmmB172iDW0qR8EiZUs5xi-Vngu5a6jVJ4LehUuYCrEsUKTKbU6JS_4xZxqGL-cJfYnHsHXjPA95FOIcb-HeXiEuKYHv48B8ENaSWc37ErwfKZm8qtZ45yReniKvUoSPhlXIaeWzAS2vhjo_FMPA36wEG0RNHpHLP3r-SV?></g></svg>