<svg xmlns="http://www.w3.org/2000/svg" xmlns:xlink="http://www.w3.org/1999/xlink" contentStyleType="text/css" data-diagram-type="DESCRIPTION" height="442px" preserveAspectRatio="none" style="width:1171px;height:442px;background:#FFFFFF;" version="1.1" viewBox="0 0 1171 442" width="1171px" zoomAndPan="magnify"><?plantuml 1.2026.4?><defs/><g><!--cluster responderPublicacion--><g class="cluster" data-qualified-name="responderPublicacion" data-source-line="4" id="ent0002"><path d="M211.5,6 L368.8584,6 A3.75,3.75 0 0 1 371.3584,8.5 L378.3584,29.6094 L691.5,29.6094 A2.5,2.5 0 0 1 694,32.1094 L694,424.5 A2.5,2.5 0 0 1 691.5,427 L211.5,427 A2.5,2.5 0 0 1 209,424.5 L209,8.5 A2.5,2.5 0 0 1 211.5,6" fill="none" style="stroke:#000000;stroke-width:1.5;"/><line style="stroke:#000000;stroke-width:1.5;" x1="209" x2="378.3584" y1="29.6094" y2="29.6094"/><text fill="#000000" font-family="sans-serif" font-size="14" font-weight="700" lengthAdjust="spacing" textLength="156.3584" x="213" y="22.5332">responderPublicacion()</text></g><!--entity ResponderPublicacionView--><g class="entity" data-qualified-name="responderPublicacion.ResponderPublicacionView" data-source-line="5" id="ent0003"><rect fill="#629EF9" height="37.6094" rx="2.5" ry="2.5" style="stroke:#181818;stroke-width:0.5;" width="190.4336" x="415" y="42"/><text fill="#000000" font-family="sans-serif" font-size="14" lengthAdjust="spacing" textLength="170.4336" x="425" y="66.5332">ResponderPublicacionView</text></g><!--entity PublicacionController--><g class="entity" data-qualified-name="responderPublicacion.PublicacionController" data-source-line="6" id="ent0004"><rect fill="#B5BD68" height="37.6094" rx="2.5" ry="2.5" style="stroke:#181818;stroke-width:0.5;" width="152.2891" x="272" y="158"/><text fill="#000000" font-family="sans-serif" font-size="14" lengthAdjust="spacing" textLength="132.2891" x="282" y="182.5332">PublicacionController</text></g><!--entity PublicacionRepository--><g class="entity" data-qualified-name="responderPublicacion.PublicacionRepository" data-source-line="7" id="ent0005"><rect fill="#F2AC4E" height="37.6094" rx="2.5" ry="2.5" style="stroke:#181818;stroke-width:0.5;" width="158.5166" x="281.5" y="274"/><text fill="#000000" font-family="sans-serif" font-size="14" lengthAdjust="spacing" textLength="138.5166" x="291.5" y="298.5332">PublicacionRepository</text></g><!--entity Publicacion--><g class="entity" data-qualified-name="responderPublicacion.Publicacion" data-source-line="8" id="ent0006"><rect fill="#F2AC4E" height="37.6094" rx="2.5" ry="2.5" style="stroke:#181818;stroke-width:0.5;" width="91.5996" x="315" y="373"/><text fill="#000000" font-family="sans-serif" font-size="14" lengthAdjust="spacing" textLength="71.5996" x="325" y="397.5332">Publicacion</text></g><!--entity EstadoEntrada--><g class="entity" data-qualified-name="EstadoEntrada" data-source-line="3" id="ent0001"><rect fill="#CDEBA5" height="37.6094" rx="2.5" ry="2.5" style="stroke:#181818;stroke-width:0.5;" width="186.4893" x="7" y="42"/><text fill="#000000" font-family="sans-serif" font-size="14" lengthAdjust="spacing" textLength="166.4893" x="17" y="66.5332">:PUBLICACION_ABIERTA</text></g><!--entity EstadoSalida--><g class="entity" data-qualified-name="EstadoSalida" data-source-line="11" id="ent0007"><rect fill="#CDEBA5" height="37.6094" rx="2.5" ry="2.5" style="stroke:#181818;stroke-width:0.5;" width="186.4893" x="710" y="158"/><text fill="#000000" font-family="sans-serif" font-size="14" lengthAdjust="spacing" textLength="166.4893" x="720" y="182.5332">:PUBLICACION_ABIERTA</text></g><!--entity AbrirPublicaciones--><g class="entity" data-qualified-name="AbrirPublicaciones" data-source-line="12" id="ent0008"><rect fill="#CDEBA5" height="37.6094" rx="2.5" ry="2.5" style="stroke:#181818;stroke-width:0.5;" width="226.2197" x="931" y="158"/><text fill="#000000" font-family="sans-serif" font-size="14" lengthAdjust="spacing" textLength="206.2197" x="941" y="182.5332">:Collaboration AbrirPublicaciones</text></g><!--link EstadoEntrada to ResponderPublicacionView--><g class="link" data-entity-1="ent0001" data-entity-2="ent0003" data-link-type="dependency" data-source-line="14" id="lnk9"><path d="M193.04,61 C259.31,61 343.1,61 409.84,61" fill="none" id="EstadoEntrada-to-ResponderPublicacionView" style="stroke:#181818;stroke-width:1;"/><polygon fill="#181818" points="414.84,61,405.84,57,409.84,61,405.84,65,414.84,61" style="stroke:#181818;stroke-width:1;stroke-linejoin:miter;stroke-miterlimit:10;"/><text fill="#000000" font-family="sans-serif" font-size="13" lengthAdjust="spacing" textLength="133.6816" x="237.5" y="54.4951">responderPublicacion()</text></g><!--link ResponderPublicacionView to PublicacionController--><g class="link" data-entity-1="ent0003" data-entity-2="ent0004" data-link-type="dependency" data-source-line="16" id="lnk10"><path d="M415.07,80.01 C343.28,93.63 257,110 257,110 C257,110 257,128 257,128 C257,128 283.6072,142.0379 309.4372,155.6579" fill="none" id="ResponderPublicacionView-to-PublicacionController" style="stroke:#181818;stroke-width:1;"/><polygon fill="#181818" points="313.86,157.99,307.7646,150.2539,309.4372,155.6579,304.0333,157.3304,313.86,157.99" style="stroke:#181818;stroke-width:1;stroke-linejoin:miter;stroke-miterlimit:10;"/><text fill="#000000" font-family="sans-serif" font-size="13" lengthAdjust="spacing" textLength="208.1143" x="258" y="124.4951">responderPublicacion(id, respuesta)</text></g><!--link ResponderPublicacionView to PublicacionController--><g class="link" data-entity-1="ent0003" data-entity-2="ent0004" data-link-type="dependency" data-source-line="17" id="lnk11"><path d="M499.34,80.03 C487.8,99.58 471,128 471,128 C471,128 433.7079,142.5522 398.8079,156.1722" fill="none" id="ResponderPublicacionView-to-PublicacionController-1" style="stroke:#181818;stroke-width:1;"/><polygon fill="#181818" points="394.15,157.99,403.9884,158.4443,398.8079,156.1722,401.0799,150.9917,394.15,157.99" style="stroke:#181818;stroke-width:1;stroke-linejoin:miter;stroke-miterlimit:10;"/><text fill="#000000" font-family="sans-serif" font-size="13" lengthAdjust="spacing" textLength="166.1943" x="482" y="124.4951">validarRespuesta(respuesta)</text></g><!--link PublicacionController to PublicacionRepository--><g class="link" data-entity-1="ent0004" data-entity-2="ent0005" data-link-type="dependency" data-source-line="18" id="lnk12"><path d="M321.91,196.15 C302.37,209.74 279,226 279,226 C279,226 279,244 279,244 C279,244 302.4647,257.7344 325.6847,271.3244" fill="none" id="PublicacionController-to-PublicacionRepository" style="stroke:#181818;stroke-width:1;"/><polygon fill="#181818" points="330,273.85,324.253,265.8517,325.6847,271.3244,320.2121,272.7561,330,273.85" style="stroke:#181818;stroke-width:1;stroke-linejoin:miter;stroke-miterlimit:10;"/><text fill="#000000" font-family="sans-serif" font-size="13" lengthAdjust="spacing" textLength="93.939" x="280" y="240.4951">obtenerPorId(id)</text></g><!--link PublicacionController to PublicacionRepository--><g class="link" data-entity-1="ent0004" data-entity-2="ent0005" data-link-type="dependency" data-source-line="19" id="lnk13"><path d="M359.34,196.15 C367.84,209.74 378,226 378,226 C378,226 378,244 378,244 C378,244 373.9083,255.5465 369.0983,269.1365" fill="none" id="PublicacionController-to-PublicacionRepository-1" style="stroke:#181818;stroke-width:1;"/><polygon fill="#181818" points="367.43,273.85,374.2037,266.7004,369.0983,269.1365,366.6621,264.0311,367.43,273.85" style="stroke:#181818;stroke-width:1;stroke-linejoin:miter;stroke-miterlimit:10;"/><text fill="#000000" font-family="sans-serif" font-size="13" lengthAdjust="spacing" textLength="172.707" x="379" y="240.4951">guardarRespuesta(respuesta)</text></g><!--link PublicacionRepository to Publicacion--><g class="link" data-entity-1="ent0005" data-entity-2="ent0006" data-link-type="association" data-source-line="20" id="lnk14"><path d="M361,312.24 C361,329.59 361,355.52 361,372.84" fill="none" id="PublicacionRepository-Publicacion" style="stroke:#181818;stroke-width:1;"/></g><!--link ResponderPublicacionView to EstadoSalida--><g class="link" data-entity-1="ent0003" data-entity-2="ent0007" data-link-type="dependency" data-source-line="21" id="lnk15"><path d="M565.16,80.01 C606.87,93.63 657,110 657,110 C657,110 715.3244,136.3593 758.5444,155.9093" fill="none" id="ResponderPublicacionView-to-EstadoSalida" style="stroke:#181818;stroke-width:1;stroke-dasharray:7,7;"/><polygon fill="#181818" points="763.1,157.97,756.5484,150.6163,758.5444,155.9093,753.2514,157.9053,763.1,157.97" style="stroke:#181818;stroke-width:1;stroke-linejoin:miter;stroke-miterlimit:10;"/><text fill="#000000" font-family="sans-serif" font-size="13" lengthAdjust="spacing" textLength="130.7935" x="697" y="124.4951">continuarNavegacion()</text></g><!--link ResponderPublicacionView to AbrirPublicaciones--><g class="link" data-entity-1="ent0003" data-entity-2="ent0008" data-link-type="dependency" data-source-line="22" id="lnk16"><path d="M605.17,76.01 C701.39,90.18 836,110 836,110 C836,110 920.8144,136.907 982.3944,156.457" fill="none" id="ResponderPublicacionView-to-AbrirPublicaciones" style="stroke:#181818;stroke-width:1;stroke-dasharray:7,7;"/><polygon fill="#181818" points="987.16,157.97,979.7923,151.4342,982.3944,156.457,977.3716,159.0592,987.16,157.97" style="stroke:#181818;stroke-width:1;stroke-linejoin:miter;stroke-miterlimit:10;"/><text fill="#000000" font-family="sans-serif" font-size="13" lengthAdjust="spacing" textLength="114.8799" x="892" y="124.4951">abrirPublicaciones()</text></g><?plantuml-src dP9HQy8m58NVyoiktOl2weDCcNqGQbUXC9nqSw_ZjhcKO9QKD7N8s7zV5CIghHlcBScvtpqvkTLQg18DVe8KYkos92YrtEusZ1dABQf24jn5J_4i784NB5UpvoGAe-HbyH7EaZXz2pt02kBA8jUniWOviXBpDHO4XgfIAqvcMMTIv9WBhNPgh-sYr_VWcu5RZSRZuIIUJo1jqRyB-ZgNPwECZn-XeOgqywIb97EkdG_3w25kQbCgTIMiDjk_jUpdbe1UKGgNJrjXv4nYfWtQNKXXPaJpiLJjAPV7Z9r43xxnfvrn1T0UF6DT5U1pnslDimCc-Ft-eYRdgty5tCtTx5CowO7IQ_1QIyvXnuyCG6UMb6klJSATkHi8HOtc7tQE9GvsCYgT6Gm6qvF1221tZeHo3HUueUBmFLS1bpCH05wSESel?></g></svg>