<svg xmlns="http://www.w3.org/2000/svg" xmlns:xlink="http://www.w3.org/1999/xlink" contentStyleType="text/css" data-diagram-type="DESCRIPTION" height="442px" preserveAspectRatio="none" style="width:1542px;height:442px;background:#FFFFFF;" version="1.1" viewBox="0 0 1542 442" width="1542px" zoomAndPan="magnify"><?plantuml 1.2026.4?><defs/><g><!--cluster abrirProyectos--><g class="cluster" data-qualified-name="abrirProyectos" data-source-line="4" id="ent0002"><path d="M247,6 L356.1445,6 A3.75,3.75 0 0 1 358.6445,8.5 L365.6445,29.6094 L589,29.6094 A2.5,2.5 0 0 1 591.5,32.1094 L591.5,424.5 A2.5,2.5 0 0 1 589,427 L247,427 A2.5,2.5 0 0 1 244.5,424.5 L244.5,8.5 A2.5,2.5 0 0 1 247,6" fill="none" style="stroke:#000000;stroke-width:1.5;"/><line style="stroke:#000000;stroke-width:1.5;" x1="244.5" x2="365.6445" y1="29.6094" y2="29.6094"/><text fill="#000000" font-family="sans-serif" font-size="14" font-weight="700" lengthAdjust="spacing" textLength="108.1445" x="248.5" y="22.5332">abrirProyectos()</text></g><!--entity ListarProyectosView--><g class="entity" data-qualified-name="abrirProyectos.ListarProyectosView" data-source-line="5" id="ent0003"><rect fill="#629EF9" height="37.6094" rx="2.5" ry="2.5" style="stroke:#181818;stroke-width:0.5;" width="146.8271" x="428" y="42"/><text fill="#000000" font-family="sans-serif" font-size="14" lengthAdjust="spacing" textLength="126.8271" x="438" y="66.5332">ListarProyectosView</text></g><!--entity ProyectoController--><g class="entity" data-qualified-name="abrirProyectos.ProyectoController" data-source-line="6" id="ent0004"><rect fill="#B5BD68" height="37.6094" rx="2.5" ry="2.5" style="stroke:#181818;stroke-width:0.5;" width="135.9375" x="308.5" y="158"/><text fill="#000000" font-family="sans-serif" font-size="14" lengthAdjust="spacing" textLength="115.9375" x="318.5" y="182.5332">ProyectoController</text></g><!--entity ProyectoRepository--><g class="entity" data-qualified-name="abrirProyectos.ProyectoRepository" data-source-line="7" id="ent0005"><rect fill="#F2AC4E" height="37.6094" rx="2.5" ry="2.5" style="stroke:#181818;stroke-width:0.5;" width="142.165" x="307.5" y="274"/><text fill="#000000" font-family="sans-serif" font-size="14" lengthAdjust="spacing" textLength="122.165" x="317.5" y="298.5332">ProyectoRepository</text></g><!--entity Proyecto--><g class="entity" data-qualified-name="abrirProyectos.Proyecto" data-source-line="8" id="ent0006"><rect fill="#F2AC4E" height="37.6094" rx="2.5" ry="2.5" style="stroke:#181818;stroke-width:0.5;" width="75.248" x="341" y="373"/><text fill="#000000" font-family="sans-serif" font-size="14" lengthAdjust="spacing" textLength="55.248" x="351" y="397.5332">Proyecto</text></g><!--entity EstadoEntrada--><g class="entity" data-qualified-name="EstadoEntrada" data-source-line="3" id="ent0001"><rect fill="#CDEBA5" height="37.6094" rx="2.5" ry="2.5" style="stroke:#181818;stroke-width:0.5;" width="220.7373" x="7" y="42"/><text fill="#000000" font-family="sans-serif" font-size="14" lengthAdjust="spacing" textLength="200.7373" x="17" y="66.5332">:PANEL_PRINCIPAL_ABIERTO</text></g><!--entity EstadoSalida--><g class="entity" data-qualified-name="EstadoSalida" data-source-line="11" id="ent0007"><rect fill="#CDEBA5" height="37.6094" rx="2.5" ry="2.5" style="stroke:#181818;stroke-width:0.5;" width="190.3721" x="607.5" y="158"/><text fill="#000000" font-family="sans-serif" font-size="14" lengthAdjust="spacing" textLength="170.3721" x="617.5" y="182.5332">:PROYECTOS_ABIERTOS</text></g><!--entity AbrirProyecto--><g class="entity" data-qualified-name="AbrirProyecto" data-source-line="12" id="ent0008"><rect fill="#CDEBA5" height="37.6094" rx="2.5" ry="2.5" style="stroke:#181818;stroke-width:0.5;" width="195.082" x="833" y="158"/><text fill="#000000" font-family="sans-serif" font-size="14" lengthAdjust="spacing" textLength="175.082" x="843" y="182.5332">:Collaboration AbrirProyecto</text></g><!--entity CrearProyecto--><g class="entity" data-qualified-name="CrearProyecto" data-source-line="13" id="ent0009"><rect fill="#CDEBA5" height="37.6094" rx="2.5" ry="2.5" style="stroke:#181818;stroke-width:0.5;" width="200.5303" x="1063" y="158"/><text fill="#000000" font-family="sans-serif" font-size="14" lengthAdjust="spacing" textLength="180.5303" x="1073" y="182.5332">:Collaboration CrearProyecto</text></g><!--entity AbrirPanelPrincipal--><g class="entity" data-qualified-name="AbrirPanelPrincipal" data-source-line="14" id="ent0010"><rect fill="#CDEBA5" height="37.6094" rx="2.5" ry="2.5" style="stroke:#181818;stroke-width:0.5;" width="229.3301" x="1299" y="158"/><text fill="#000000" font-family="sans-serif" font-size="14" lengthAdjust="spacing" textLength="209.3301" x="1309" y="182.5332">:Collaboration AbrirPanelPrincipal</text></g><!--link EstadoEntrada to ListarProyectosView--><g class="link" data-entity-1="ent0001" data-entity-2="ent0003" data-link-type="dependency" data-source-line="16" id="lnk11"><path d="M228.05,61 C292.2,61 366.23,61 422.8,61" fill="none" id="EstadoEntrada-to-ListarProyectosView" style="stroke:#181818;stroke-width:1;"/><polygon fill="#181818" points="427.8,61,418.8,57,422.8,61,418.8,65,427.8,61" style="stroke:#181818;stroke-width:1;stroke-linejoin:miter;stroke-miterlimit:10;"/><text fill="#000000" font-family="sans-serif" font-size="13" lengthAdjust="spacing" textLength="92.4663" x="282" y="54.4951">abrirProyectos()</text></g><!--link ListarProyectosView to ProyectoController--><g class="link" data-entity-1="ent0003" data-entity-2="ent0004" data-link-type="dependency" data-source-line="18" id="lnk12"><path d="M427.88,79.67 C370.85,93.36 301.5,110 301.5,110 C301.5,110 301.5,128 301.5,128 C301.5,128 322.6983,141.5652 343.9383,155.1552" fill="none" id="ListarProyectosView-to-ProyectoController" style="stroke:#181818;stroke-width:1;"/><polygon fill="#181818" points="348.15,157.85,342.7248,149.6301,343.9383,155.1552,338.4132,156.3688,348.15,157.85" style="stroke:#181818;stroke-width:1;stroke-linejoin:miter;stroke-miterlimit:10;"/><text fill="#000000" font-family="sans-serif" font-size="13" lengthAdjust="spacing" textLength="93.9072" x="302.5" y="124.4951">listarProyectos()</text></g><!--link ListarProyectosView to ProyectoController--><g class="link" data-entity-1="ent0003" data-entity-2="ent0004" data-link-type="dependency" data-source-line="19" id="lnk13"><path d="M481.69,80.06 C458.43,101.28 423.7244,132.9308 400.3244,154.2708" fill="none" id="ListarProyectosView-to-ProyectoController-1" style="stroke:#181818;stroke-width:1;"/><polygon fill="#181818" points="396.63,157.64,405.9753,154.531,400.3244,154.2708,400.5846,148.62,396.63,157.64" style="stroke:#181818;stroke-width:1;stroke-linejoin:miter;stroke-miterlimit:10;"/><text fill="#000000" font-family="sans-serif" font-size="13" lengthAdjust="spacing" textLength="134.3545" x="446.5" y="124.4951">filtrarProyectos(criterio)</text></g><!--link ProyectoController to ProyectoRepository--><g class="link" data-entity-1="ent0004" data-entity-2="ent0005" data-link-type="dependency" data-source-line="20" id="lnk14"><path d="M344.74,196.15 C320.96,209.74 292.5,226 292.5,226 C292.5,226 292.5,244 292.5,244 C292.5,244 317.2635,257.824 341.6235,271.414" fill="none" id="ProyectoController-to-ProyectoRepository" style="stroke:#181818;stroke-width:1;"/><polygon fill="#181818" points="345.99,273.85,340.0791,265.9721,341.6235,271.414,336.1816,272.9584,345.99,273.85" style="stroke:#181818;stroke-width:1;stroke-linejoin:miter;stroke-miterlimit:10;"/><text fill="#000000" font-family="sans-serif" font-size="13" lengthAdjust="spacing" textLength="88.8799" x="293.5" y="240.4951">obtenerTodos()</text></g><!--link ProyectoController to ProyectoRepository--><g class="link" data-entity-1="ent0004" data-entity-2="ent0005" data-link-type="dependency" data-source-line="21" id="lnk15"><path d="M380.28,196.15 C383.11,209.74 386.5,226 386.5,226 C386.5,226 386.5,244 386.5,244 C386.5,244 384.6138,255.3283 382.3438,268.9183" fill="none" id="ProyectoController-to-ProyectoRepository-1" style="stroke:#181818;stroke-width:1;"/><polygon fill="#181818" points="381.52,273.85,386.9481,265.632,382.3438,268.9183,379.0574,264.314,381.52,273.85" style="stroke:#181818;stroke-width:1;stroke-linejoin:miter;stroke-miterlimit:10;"/><text fill="#000000" font-family="sans-serif" font-size="13" lengthAdjust="spacing" textLength="148.8081" x="387.5" y="240.4951">buscarPorCriterio(criterio)</text></g><!--link ProyectoRepository to Proyecto--><g class="link" data-entity-1="ent0005" data-entity-2="ent0006" data-link-type="association" data-source-line="22" id="lnk16"><path d="M378.5,312.24 C378.5,329.59 378.5,355.52 378.5,372.84" fill="none" id="ProyectoRepository-Proyecto" style="stroke:#181818;stroke-width:1;"/></g><!--link ListarProyectosView to EstadoSalida--><g class="link" data-entity-1="ent0003" data-entity-2="ent0007" data-link-type="dependency" data-source-line="23" id="lnk17"><path d="M534.52,80.01 C559.49,93.63 589.5,110 589.5,110 C589.5,110 633.8532,135.897 667.3032,155.447" fill="none" id="ListarProyectosView-to-EstadoSalida" style="stroke:#181818;stroke-width:1;stroke-dasharray:7,7;"/><polygon fill="#181818" points="671.62,157.97,665.8682,149.9752,667.3032,155.447,661.8314,156.8821,671.62,157.97" style="stroke:#181818;stroke-width:1;stroke-linejoin:miter;stroke-miterlimit:10;"/><text fill="#000000" font-family="sans-serif" font-size="13" lengthAdjust="spacing" textLength="130.7935" x="620.5" y="124.4951">continuarNavegacion()</text></g><!--link ListarProyectosView to AbrirProyecto--><g class="link" data-entity-1="ent0003" data-entity-2="ent0008" data-link-type="dependency" data-source-line="24" id="lnk18"><path d="M575.09,75.69 C651.34,89.88 759.5,110 759.5,110 C759.5,110 828.4757,136.6189 879.1057,156.1689" fill="none" id="ListarProyectosView-to-AbrirProyecto" style="stroke:#181818;stroke-width:1;stroke-dasharray:7,7;"/><polygon fill="#181818" points="883.77,157.97,876.815,150.9966,879.1057,156.1689,873.9333,158.4596,883.77,157.97" style="stroke:#181818;stroke-width:1;stroke-linejoin:miter;stroke-miterlimit:10;"/><text fill="#000000" font-family="sans-serif" font-size="13" lengthAdjust="spacing" textLength="85.9663" x="805.5" y="124.4951">abrirProyecto()</text></g><!--link ListarProyectosView to CrearProyecto--><g class="link" data-entity-1="ent0003" data-entity-2="ent0009" data-link-type="dependency" data-source-line="25" id="lnk19"><path d="M575.43,70.92 C690.53,84.8 899.5,110 899.5,110 C899.5,110 1008.3494,137.2067 1086.5094,156.7567" fill="none" id="ListarProyectosView-to-CrearProyecto" style="stroke:#181818;stroke-width:1;stroke-dasharray:7,7;"/><polygon fill="#181818" points="1091.36,157.97,1083.5996,151.9057,1086.5094,156.7567,1081.6584,159.6666,1091.36,157.97" style="stroke:#181818;stroke-width:1;stroke-linejoin:miter;stroke-miterlimit:10;"/><text fill="#000000" font-family="sans-serif" font-size="13" lengthAdjust="spacing" textLength="89.5781" x="970.5" y="124.4951">crearProyecto()</text></g><!--link ListarProyectosView to AbrirPanelPrincipal--><g class="link" data-entity-1="ent0003" data-entity-2="ent0010" data-link-type="dependency" data-source-line="26" id="lnk20"><path d="M575.04,68.23 C728.46,81.21 1068.5,110 1068.5,110 C1068.5,110 1212.1691,137.4801 1314.3191,157.0301" fill="none" id="ListarProyectosView-to-AbrirPanelPrincipal" style="stroke:#181818;stroke-width:1;stroke-dasharray:7,7;"/><polygon fill="#181818" points="1319.23,157.97,1311.1423,152.3495,1314.3191,157.0301,1309.6385,160.2069,1319.23,157.97" style="stroke:#181818;stroke-width:1;stroke-linejoin:miter;stroke-miterlimit:10;"/><text fill="#000000" font-family="sans-serif" font-size="13" lengthAdjust="spacing" textLength="117.7681" x="1161.5" y="124.4951">abrirPanelPrincipal()</text></g><?plantuml-src bL9DQy904BtlhnZIIpteGQhK78IOHX14GvH2Jp99jhAutGsJs19A_tjNgKqsncfps-5zPURbEw4o97m3AHGloen3fcLvU316F2bGRIM7E_yfc7W3SDpGMmJpJHZD5luizEORRp8BelNI0SmXo0jCTQ0AmXHPXiaEjnmm9a4XwTAewVo0S-pHVSU1JmRcgnaE-wDWEeAvC9eLz5dmZoOo7iJfy15E65yRVoqbfoPmslVyX-0N6F5CvwBGL5u1igyBguYMBu6_NgvEIrZLjh12ASmIsdY-IOUn9Yo4Lk3LTt4Ki2OtAFZ4qLQm9ZTdGCLbI48b8aDPIsBD6REk35tgZjkkv4Bpo8ormA2R6lxvxLpJHmji-Atq2-nN8Ks-6ZqXKN0IkiFEuPPALGiNT5nmnMcjqsE0Vp3ZVPuOUqt-ZszBW0flPAgsjVrchpUsUkL2OZ88jKTQu3lVOcBEU6551wvLgSPf_g1PFJAUzUTLDwis9qzhQ2I-0G00?></g></svg>