<svg xmlns="http://www.w3.org/2000/svg" xmlns:xlink="http://www.w3.org/1999/xlink" contentStyleType="text/css" data-diagram-type="DESCRIPTION" height="517px" preserveAspectRatio="none" style="width:2012px;height:517px;background:#FFFFFF;" version="1.1" viewBox="0 0 2012 517" width="2012px" zoomAndPan="magnify"><?plantuml 1.2026.5?><defs/><g><!--cluster abrirProyectos--><g class="cluster" data-qualified-name="abrirProyectos" data-source-line="6" id="ent0004"><path d="M247,40.3564 L356.1445,40.3564 A3.75,3.75 0 0 1 358.6445,42.8564 L365.6445,63.9658 L805,63.9658 A2.5,2.5 0 0 1 807.5,66.4658 L807.5,499.8564 A2.5,2.5 0 0 1 805,502.3564 L247,502.3564 A2.5,2.5 0 0 1 244.5,499.8564 L244.5,42.8564 A2.5,2.5 0 0 1 247,40.3564" fill="none" style="stroke:#000000;stroke-width:1.5;"/><line style="stroke:#000000;stroke-width:1.5;" x1="244.5" x2="365.6445" y1="63.9658" y2="63.9658"/><text fill="#000000" font-family="sans-serif" font-size="14" font-weight="700" lengthAdjust="spacing" textLength="108.1445" x="248.5" y="56.8896">abrirProyectos()</text></g><!--entity ListarProyectosView--><g class="entity" data-qualified-name="abrirProyectos.ListarProyectosView" data-source-line="7" id="ent0005"><rect fill="#629EF9" height="37.6094" rx="2.5" ry="2.5" style="stroke:#181818;stroke-width:0.5;" width="146.8271" x="644" y="96.3564"/><text fill="#000000" font-family="sans-serif" font-size="14" lengthAdjust="spacing" textLength="126.8271" x="654" y="120.8896">ListarProyectosView</text></g><!--entity ProyectoController--><g class="entity" data-qualified-name="abrirProyectos.ProyectoController" data-source-line="8" id="ent0006"><rect fill="#B5BD68" height="37.6094" rx="2.5" ry="2.5" style="stroke:#181818;stroke-width:0.5;" width="135.9375" x="487.5" y="222.8564"/><text fill="#000000" font-family="sans-serif" font-size="14" lengthAdjust="spacing" textLength="115.9375" x="497.5" y="247.3896">ProyectoController</text></g><!--entity ProyectoRepository--><g class="entity" data-qualified-name="abrirProyectos.ProyectoRepository" data-source-line="9" id="ent0007"><rect fill="#F2AC4E" height="37.6094" rx="2.5" ry="2.5" style="stroke:#181818;stroke-width:0.5;" width="142.165" x="354.5" y="349.3564"/><text fill="#000000" font-family="sans-serif" font-size="14" lengthAdjust="spacing" textLength="122.165" x="364.5" y="373.8896">ProyectoRepository</text></g><!--entity Proyecto--><g class="entity" data-qualified-name="abrirProyectos.Proyecto" data-source-line="10" id="ent0008"><rect fill="#F2AC4E" height="37.6094" rx="2.5" ry="2.5" style="stroke:#181818;stroke-width:0.5;" width="75.248" x="388" y="448.3564"/><text fill="#000000" font-family="sans-serif" font-size="14" lengthAdjust="spacing" textLength="55.248" x="398" y="472.8896">Proyecto</text></g><!--entity EstadoEntrada1--><g class="entity" data-qualified-name="EstadoEntrada1" data-source-line="3" id="ent0001"><rect fill="#CDEBA5" height="37.6094" rx="2.5" ry="2.5" style="stroke:#181818;stroke-width:0.5;" width="220.7373" x="7" y="96.3564"/><text fill="#000000" font-family="sans-serif" font-size="14" lengthAdjust="spacing" textLength="200.7373" x="17" y="120.8896">:PANEL_PRINCIPAL_ABIERTO</text></g><!--entity EstadoEntrada2--><g class="entity" data-qualified-name="EstadoEntrada2" data-source-line="4" id="ent0002"><rect fill="#CDEBA5" height="37.6094" rx="2.5" ry="2.5" style="stroke:#181818;stroke-width:0.5;" width="171.6963" x="980.5" y="96.3564"/><text fill="#000000" font-family="sans-serif" font-size="14" lengthAdjust="spacing" textLength="151.6963" x="990.5" y="120.8896">:PROYECTO_ABIERTO</text></g><!--entity EstadoEntrada3--><g class="entity" data-qualified-name="EstadoEntrada3" data-source-line="5" id="ent0003"><rect fill="#CDEBA5" height="37.6094" rx="2.5" ry="2.5" style="stroke:#181818;stroke-width:0.5;" width="198.9238" x="1188" y="96.3564"/><text fill="#000000" font-family="sans-serif" font-size="14" lengthAdjust="spacing" textLength="178.9238" x="1198" y="120.8896">:INVESTIGADOR_ABIERTO</text></g><!--entity EstadoSalida--><g class="entity" data-qualified-name="EstadoSalida" data-source-line="13" id="ent0009"><rect fill="#CDEBA5" height="37.6094" rx="2.5" ry="2.5" style="stroke:#181818;stroke-width:0.5;" width="190.3721" x="823.5" y="222.8564"/><text fill="#000000" font-family="sans-serif" font-size="14" lengthAdjust="spacing" textLength="170.3721" x="833.5" y="247.3896">:PROYECTOS_ABIERTOS</text></g><!--entity AbrirProyecto--><g class="entity" data-qualified-name="AbrirProyecto" data-source-line="14" id="ent0010"><rect fill="#CDEBA5" height="37.6094" rx="2.5" ry="2.5" style="stroke:#181818;stroke-width:0.5;" width="195.082" x="1049" y="222.8564"/><text fill="#000000" font-family="sans-serif" font-size="14" lengthAdjust="spacing" textLength="175.082" x="1059" y="247.3896">:Collaboration AbrirProyecto</text></g><!--entity CrearProyecto--><g class="entity" data-qualified-name="CrearProyecto" data-source-line="15" id="ent0011"><rect fill="#CDEBA5" height="37.6094" rx="2.5" ry="2.5" style="stroke:#181818;stroke-width:0.5;" width="200.5303" x="1279" y="222.8564"/><text fill="#000000" font-family="sans-serif" font-size="14" lengthAdjust="spacing" textLength="180.5303" x="1289" y="247.3896">:Collaboration CrearProyecto</text></g><!--entity AbrirPanelPrincipal--><g class="entity" data-qualified-name="AbrirPanelPrincipal" data-source-line="16" id="ent0012"><rect fill="#CDEBA5" height="37.6094" rx="2.5" ry="2.5" style="stroke:#181818;stroke-width:0.5;" width="229.3301" x="1515" y="222.8564"/><text fill="#000000" font-family="sans-serif" font-size="14" lengthAdjust="spacing" textLength="209.3301" x="1525" y="247.3896">:Collaboration AbrirPanelPrincipal</text></g><g class="entity" data-qualified-name="GMN22" data-source-line="29" id="ent0023"><path d="M1779.5,212.3564 L1779.5,271.4111 L1997.7852,271.4111 L1997.7852,222.3564 L1987.7852,212.3564 L1779.5,212.3564" fill="#FEFFDD" style="stroke:#181818;stroke-width:0.5;"/><path d="M1987.7852,212.3564 L1987.7852,222.3564 L1997.7852,222.3564 L1987.7852,212.3564" fill="#FEFFDD" style="stroke:#181818;stroke-width:1;"/><text fill="#000000" font-family="sans-serif" font-size="13" lengthAdjust="spacing" textLength="107.6816" x="1785.5" y="230.8516">Contexto opcional:</text><text fill="#000000" font-family="sans-serif" font-size="13" lengthAdjust="spacing" textLength="181.3779" x="1785.5" y="247.2031">- sin identificador: listado global</text><text fill="#000000" font-family="sans-serif" font-size="13" lengthAdjust="spacing" textLength="197.2852" x="1785.5" y="263.5547">- con identificador: listado acotado</text></g><!--link EstadoEntrada1 to ListarProyectosView--><g class="link" data-entity-1="ent0001" data-entity-2="ent0005" data-link-type="dependency" data-source-line="18" id="lnk13"><path d="M228.25,115.3564 C349.3,115.3564 534.84,115.3564 638.8,115.3564" fill="none" id="EstadoEntrada1-to-ListarProyectosView" style="stroke:#181818;stroke-width:1;"/><polygon fill="#181818" points="643.8,115.3564,634.8,111.3564,638.8,115.3564,634.8,119.3564,643.8,115.3564" style="stroke:#181818;stroke-width:1;stroke-linejoin:miter;stroke-miterlimit:10;"/><text fill="#000000" font-family="sans-serif" font-size="13" lengthAdjust="spacing" textLength="92.4663" x="390" y="108.8516">abrirProyectos()</text></g><!--link EstadoEntrada2 to ListarProyectosView--><g class="link" data-entity-1="ent0002" data-entity-2="ent0005" data-link-type="dependency" data-source-line="19" id="lnk14"><path d="M980.4,115.3564 C922.28,115.3564 851.38,115.3564 796.09,115.3564" fill="none" id="EstadoEntrada2-to-ListarProyectosView" style="stroke:#181818;stroke-width:1;"/><polygon fill="#181818" points="791.09,115.3564,800.09,119.3564,796.09,115.3564,800.09,111.3564,791.09,115.3564" style="stroke:#181818;stroke-width:1;stroke-linejoin:miter;stroke-miterlimit:10;"/><text fill="#000000" font-family="sans-serif" font-size="13" lengthAdjust="spacing" textLength="153.8862" x="809.25" y="108.8516">abrirProyectos(idProyecto)</text></g><!--link EstadoEntrada3 to ListarProyectosView--><g class="link" data-entity-1="ent0003" data-entity-2="ent0005" data-link-type="dependency" data-source-line="20" id="lnk15"><path d="M1260.36,96.3364 C1225.8,72.1164 1170.5,33.3564 1170.5,33.3564 C1170.5,33.3564 963.5,33.3564 963.5,33.3564 C963.5,33.3564 851.9735,70.5355 779.3035,94.7555" fill="none" id="EstadoEntrada3-to-ListarProyectosView" style="stroke:#181818;stroke-width:1;"/><polygon fill="#181818" points="774.56,96.3364,784.363,97.2855,779.3035,94.7555,781.8335,89.696,774.56,96.3364" style="stroke:#181818;stroke-width:1;stroke-linejoin:miter;stroke-miterlimit:10;"/><text fill="#000000" font-family="sans-serif" font-size="13" lengthAdjust="spacing" textLength="173.4053" x="903" y="20.8516">abrirProyectos(idInvestigador)</text></g><!--link ListarProyectosView to ProyectoController--><g class="link" data-entity-1="ent0005" data-entity-2="ent0006" data-link-type="dependency" data-source-line="22" id="lnk16"><path d="M643.84,130.4964 C570.1,144.6564 467.5,164.3564 467.5,164.3564 C467.5,164.3564 467.5,182.3564 467.5,182.3564 C467.5,182.3564 498.146,202.7285 523.976,219.8985" fill="none" id="ListarProyectosView-to-ProyectoController" style="stroke:#181818;stroke-width:1;"/><polygon fill="#181818" points="528.14,222.6664,522.8592,214.353,523.976,219.8985,518.4305,221.0154,528.14,222.6664" style="stroke:#181818;stroke-width:1;stroke-linejoin:miter;stroke-miterlimit:10;"/><text fill="#000000" font-family="sans-serif" font-size="13" lengthAdjust="spacing" textLength="143.0508" x="468.5" y="178.8516">listarProyectos(contexto)</text></g><!--link ListarProyectosView to ProyectoController--><g class="link" data-entity-1="ent0005" data-entity-2="ent0006" data-link-type="dependency" data-source-line="23" id="lnk17"><path d="M693.94,134.4564 C663.23,158.0664 613.7749,196.0702 583.0449,219.6802" fill="none" id="ListarProyectosView-to-ProyectoController-1" style="stroke:#181818;stroke-width:1;"/><polygon fill="#181818" points="579.08,222.7264,588.6538,220.4151,583.0449,219.6802,583.7798,214.0713,579.08,222.7264" style="stroke:#181818;stroke-width:1;stroke-linejoin:miter;stroke-miterlimit:10;"/><text fill="#000000" font-family="sans-serif" font-size="13" lengthAdjust="spacing" textLength="134.3545" x="651.5" y="178.8516">filtrarProyectos(criterio)</text></g><!--link ProyectoController to ProyectoRepository--><g class="link" data-entity-1="ent0006" data-entity-2="ent0007" data-link-type="dependency" data-source-line="24" id="lnk18"><path d="M487.43,257.9964 C409.5,275.3264 292.5,301.3564 292.5,301.3564 C292.5,301.3564 292.5,319.3564 292.5,319.3564 C292.5,319.3564 333.1569,334.0291 370.8969,347.6491" fill="none" id="ProyectoController-to-ProyectoRepository" style="stroke:#181818;stroke-width:1;"/><polygon fill="#181818" points="375.6,349.3464,368.4923,342.5288,370.8969,347.6491,365.7766,350.0538,375.6,349.3464" style="stroke:#181818;stroke-width:1;stroke-linejoin:miter;stroke-miterlimit:10;"/><text fill="#000000" font-family="sans-serif" font-size="13" lengthAdjust="spacing" textLength="88.8799" x="293.5" y="315.8516">obtenerTodos()</text></g><!--link ProyectoController to ProyectoRepository--><g class="link" data-entity-1="ent0006" data-entity-2="ent0007" data-link-type="dependency" data-source-line="25" id="lnk19"><path d="M514.51,260.8864 C475.43,278.0764 422.5,301.3564 422.5,301.3564 C422.5,301.3564 422.5,319.3564 422.5,319.3564 C422.5,319.3564 423.2079,330.6262 424.0579,344.2162" fill="none" id="ProyectoController-to-ProyectoRepository-1" style="stroke:#181818;stroke-width:1;"/><polygon fill="#181818" points="424.37,349.2064,427.8004,339.9743,424.0579,344.2162,419.816,340.4737,424.37,349.2064" style="stroke:#181818;stroke-width:1;stroke-linejoin:miter;stroke-miterlimit:10;"/><text fill="#000000" font-family="sans-serif" font-size="13" lengthAdjust="spacing" textLength="174.1543" x="423.5" y="315.8516">obtenerPorContexto(contexto)</text></g><!--link ProyectoController to ProyectoRepository--><g class="link" data-entity-1="ent0006" data-entity-2="ent0007" data-link-type="dependency" data-source-line="26" id="lnk20"><path d="M570.11,261.0464 C583.91,278.2164 602.5,301.3564 602.5,301.3564 C602.5,301.3564 602.5,319.3564 602.5,319.3564 C602.5,319.3564 546.9657,334.4179 496.7357,348.0379" fill="none" id="ProyectoController-to-ProyectoRepository-2" style="stroke:#181818;stroke-width:1;"/><polygon fill="#181818" points="491.91,349.3464,501.6431,350.8517,496.7357,348.0379,499.5495,343.1305,491.91,349.3464" style="stroke:#181818;stroke-width:1;stroke-linejoin:miter;stroke-miterlimit:10;"/><text fill="#000000" font-family="sans-serif" font-size="13" lengthAdjust="spacing" textLength="148.8081" x="603.5" y="315.8516">buscarPorCriterio(criterio)</text></g><!--link ProyectoRepository to Proyecto--><g class="link" data-entity-1="ent0007" data-entity-2="ent0008" data-link-type="association" data-source-line="27" id="lnk21"><path d="M425.5,387.5964 C425.5,404.9464 425.5,430.8764 425.5,448.1964" fill="none" id="ProyectoRepository-Proyecto" style="stroke:#181818;stroke-width:1;"/></g><!--link ProyectoController to GMN22--><g class="link" data-entity-1="ent0006" data-entity-2="ent0023" data-link-type="association" data-source-line="29" id="lnk24"><path d="M623.6,224.4864 C703.15,204.1864 824,173.3564 824,173.3564 C824,173.3564 1744,173.3564 1744,173.3564 C1744,173.3564 1786.91,193.6964 1825.96,212.2064" fill="none" id="ProyectoController-GMN22" style="stroke:#181818;stroke-width:1;stroke-dasharray:7,7;"/></g><!--link ListarProyectosView to EstadoSalida--><g class="link" data-entity-1="ent0005" data-entity-2="ent0009" data-link-type="dependency" data-source-line="33" id="lnk25"><path d="M746.73,134.4564 C784.84,158.0664 846.859,196.4842 884.989,220.0942" fill="none" id="ListarProyectosView-to-EstadoSalida" style="stroke:#181818;stroke-width:1;stroke-dasharray:7,7;"/><polygon fill="#181818" points="889.24,222.7264,883.6939,214.5876,884.989,220.0942,879.4823,221.3893,889.24,222.7264" style="stroke:#181818;stroke-width:1;stroke-linejoin:miter;stroke-miterlimit:10;"/><text fill="#000000" font-family="sans-serif" font-size="13" lengthAdjust="spacing" textLength="130.7935" x="824.5" y="178.8516">continuarNavegacion()</text></g><!--link ListarProyectosView to AbrirProyecto--><g class="link" data-entity-1="ent0005" data-entity-2="ent0010" data-link-type="dependency" data-source-line="34" id="lnk26"><path d="M791.31,130.7564 C863.77,144.8964 963.5,164.3564 963.5,164.3564 C963.5,164.3564 1044.4069,198.178 1098.5169,220.798" fill="none" id="ListarProyectosView-to-AbrirProyecto" style="stroke:#181818;stroke-width:1;stroke-dasharray:7,7;"/><polygon fill="#181818" points="1103.13,222.7264,1096.3691,215.5647,1098.5169,220.798,1093.2836,222.9457,1103.13,222.7264" style="stroke:#181818;stroke-width:1;stroke-linejoin:miter;stroke-miterlimit:10;"/><text fill="#000000" font-family="sans-serif" font-size="13" lengthAdjust="spacing" textLength="85.9663" x="1003.5" y="178.8516">abrirProyecto()</text></g><!--link ListarProyectosView to CrearProyecto--><g class="link" data-entity-1="ent0005" data-entity-2="ent0011" data-link-type="dependency" data-source-line="35" id="lnk27"><path d="M791.22,125.6664 C901.72,139.6264 1097.5,164.3564 1097.5,164.3564 C1097.5,164.3564 1224.8345,198.8972 1308.2045,221.5172" fill="none" id="ListarProyectosView-to-CrearProyecto" style="stroke:#181818;stroke-width:1;stroke-dasharray:7,7;"/><polygon fill="#181818" points="1313.03,222.8264,1305.3914,216.6093,1308.2045,221.5172,1303.2966,224.3302,1313.03,222.8264" style="stroke:#181818;stroke-width:1;stroke-linejoin:miter;stroke-miterlimit:10;"/><text fill="#000000" font-family="sans-serif" font-size="13" lengthAdjust="spacing" textLength="89.5781" x="1158.5" y="178.8516">crearProyecto()</text></g><!--link ListarProyectosView to AbrirPanelPrincipal--><g class="link" data-entity-1="ent0005" data-entity-2="ent0012" data-link-type="dependency" data-source-line="36" id="lnk28"><path d="M791.03,122.9064 C938.53,136.0364 1256.5,164.3564 1256.5,164.3564 C1256.5,164.3564 1497.5,212.3564 1497.5,212.3564 C1497.5,212.3564 1514.8228,216.0903 1541.0128,221.7503" fill="none" id="ListarProyectosView-to-AbrirPanelPrincipal" style="stroke:#181818;stroke-width:1;stroke-dasharray:7,7;"/><polygon fill="#181818" points="1545.9,222.8064,1537.948,216.9956,1541.0128,221.7503,1536.2581,224.8151,1545.9,222.8064" style="stroke:#181818;stroke-width:1;stroke-linejoin:miter;stroke-miterlimit:10;"/><text fill="#000000" font-family="sans-serif" font-size="13" lengthAdjust="spacing" textLength="117.7681" x="1341.5" y="178.8516">abrirPanelPrincipal()</text></g><?plantuml-src bLDDRvj04BtlhnYv5_j0f3fDr728H0Yfa2mROIjIJz40QphATXSjcxHMrV_UnJ8rIo2nkS0ExxrvEn_rCyaADVu4GPARNSMXKcBN71ZJF3SeIy7XKtWVtGLNCF6JO1ajdf8qNePn4YoUWhiuIZUh2M0DKMsmK94q6WlyF4nFLz-ZSBCQvyq7UV7oCLfluc_1_IeTvrwo2lDdB3bWfaadMksibgeRuCGDJMSJ-CF0Ffrqr_ERwE465cH5Zz17uh_woEmgAww_Gei9bJMWXE2w3toO1-6Nw3ymvPMgoIYz-m38_h9t2xXkgx3kb66DWWeSv8NM7MPAeo4b8UZMOY_WH4vG23L7Ly69dEm19HU99fbJXQBZn8apveuMUDgx7MgJ3_qkkypvwKmgsk-UnkKv6h5yvRMXqjBrZB414dY5LNixIBxTI0SypUq__hlnCoWpeh8bOMrtPJGPhidAl8KxAiTPzK5bXakkDwhO5_LyPg9qUF3VkSWPEjbBdUDUvk1_u297l9Kvhf9KXeEcyeS1jHtQsTOPg2gteud2PnxK984ABWrjAM_wT-X8eQ0KAhDJwO6zoHW6SzMy6PS5D0O6ctPnSUkihjye6f8lg9Vuoajix4nderndQtlZzmxDMLMRitlyC9kpcMrE9sWb_W40?></g></svg>