<svg xmlns="http://www.w3.org/2000/svg" xmlns:xlink="http://www.w3.org/1999/xlink" contentStyleType="text/css" data-diagram-type="DESCRIPTION" height="517px" preserveAspectRatio="none" style="width:2248px;height:517px;background:#FFFFFF;" version="1.1" viewBox="0 0 2248 517" width="2248px" zoomAndPan="magnify"><?plantuml 1.2026.5?><defs/><g><!--cluster abrirProyectos--><g class="cluster" data-qualified-name="abrirProyectos" data-source-line="6" id="ent0004"><path d="M247,40.3564 L356.1445,40.3564 A3.75,3.75 0 0 1 358.6445,42.8564 L365.6445,63.9658 L999,63.9658 A2.5,2.5 0 0 1 1001.5,66.4658 L1001.5,499.8564 A2.5,2.5 0 0 1 999,502.3564 L247,502.3564 A2.5,2.5 0 0 1 244.5,499.8564 L244.5,42.8564 A2.5,2.5 0 0 1 247,40.3564" fill="none" style="stroke:#000000;stroke-width:1.5;"/><line style="stroke:#000000;stroke-width:1.5;" x1="244.5" x2="365.6445" y1="63.9658" y2="63.9658"/><text fill="#000000" font-family="sans-serif" font-size="14" font-weight="700" lengthAdjust="spacing" textLength="108.1445" x="248.5" y="56.8896">abrirProyectos()</text></g><!--entity ListarProyectosView--><g class="entity" data-qualified-name="abrirProyectos.ListarProyectosView" data-source-line="7" id="ent0005"><rect fill="#629EF9" height="37.6094" rx="2.5" ry="2.5" style="stroke:#181818;stroke-width:0.5;" width="146.8271" x="838" y="96.3564"/><text fill="#000000" font-family="sans-serif" font-size="14" lengthAdjust="spacing" textLength="126.8271" x="848" y="120.8896">ListarProyectosView</text></g><!--entity ProyectoController--><g class="entity" data-qualified-name="abrirProyectos.ProyectoController" data-source-line="8" id="ent0006"><rect fill="#B5BD68" height="37.6094" rx="2.5" ry="2.5" style="stroke:#181818;stroke-width:0.5;" width="135.9375" x="566.5" y="222.8564"/><text fill="#000000" font-family="sans-serif" font-size="14" lengthAdjust="spacing" textLength="115.9375" x="576.5" y="247.3896">ProyectoController</text></g><!--entity ProyectoRepository--><g class="entity" data-qualified-name="abrirProyectos.ProyectoRepository" data-source-line="9" id="ent0007"><rect fill="#F2AC4E" height="37.6094" rx="2.5" ry="2.5" style="stroke:#181818;stroke-width:0.5;" width="142.165" x="360.5" y="349.3564"/><text fill="#000000" font-family="sans-serif" font-size="14" lengthAdjust="spacing" textLength="122.165" x="370.5" y="373.8896">ProyectoRepository</text></g><!--entity Proyecto--><g class="entity" data-qualified-name="abrirProyectos.Proyecto" data-source-line="10" id="ent0008"><rect fill="#F2AC4E" height="37.6094" rx="2.5" ry="2.5" style="stroke:#181818;stroke-width:0.5;" width="75.248" x="394" y="448.3564"/><text fill="#000000" font-family="sans-serif" font-size="14" lengthAdjust="spacing" textLength="55.248" x="404" y="472.8896">Proyecto</text></g><!--entity EstadoEntrada1--><g class="entity" data-qualified-name="EstadoEntrada1" data-source-line="3" id="ent0001"><rect fill="#CDEBA5" height="37.6094" rx="2.5" ry="2.5" style="stroke:#181818;stroke-width:0.5;" width="220.7373" x="7" y="96.3564"/><text fill="#000000" font-family="sans-serif" font-size="14" lengthAdjust="spacing" textLength="200.7373" x="17" y="120.8896">:PANEL_PRINCIPAL_ABIERTO</text></g><!--entity EstadoEntrada2--><g class="entity" data-qualified-name="EstadoEntrada2" data-source-line="4" id="ent0002"><rect fill="#CDEBA5" height="37.6094" rx="2.5" ry="2.5" style="stroke:#181818;stroke-width:0.5;" width="171.6963" x="1113.5" y="96.3564"/><text fill="#000000" font-family="sans-serif" font-size="14" lengthAdjust="spacing" textLength="151.6963" x="1123.5" y="120.8896">:PROYECTO_ABIERTO</text></g><!--entity EstadoEntrada3--><g class="entity" data-qualified-name="EstadoEntrada3" data-source-line="5" id="ent0003"><rect fill="#CDEBA5" height="37.6094" rx="2.5" ry="2.5" style="stroke:#181818;stroke-width:0.5;" width="198.9238" x="1321" y="96.3564"/><text fill="#000000" font-family="sans-serif" font-size="14" lengthAdjust="spacing" textLength="178.9238" x="1331" y="120.8896">:INVESTIGADOR_ABIERTO</text></g><!--entity EstadoSalida--><g class="entity" data-qualified-name="EstadoSalida" data-source-line="13" id="ent0009"><rect fill="#CDEBA5" height="37.6094" rx="2.5" ry="2.5" style="stroke:#181818;stroke-width:0.5;" width="190.3721" x="1017.5" y="222.8564"/><text fill="#000000" font-family="sans-serif" font-size="14" lengthAdjust="spacing" textLength="170.3721" x="1027.5" y="247.3896">:PROYECTOS_ABIERTOS</text></g><!--entity AbrirProyecto--><g class="entity" data-qualified-name="AbrirProyecto" data-source-line="14" id="ent0010"><rect fill="#CDEBA5" height="37.6094" rx="2.5" ry="2.5" style="stroke:#181818;stroke-width:0.5;" width="195.082" x="1243" y="222.8564"/><text fill="#000000" font-family="sans-serif" font-size="14" lengthAdjust="spacing" textLength="175.082" x="1253" y="247.3896">:Collaboration AbrirProyecto</text></g><!--entity CrearProyecto--><g class="entity" data-qualified-name="CrearProyecto" data-source-line="15" id="ent0011"><rect fill="#CDEBA5" height="37.6094" rx="2.5" ry="2.5" style="stroke:#181818;stroke-width:0.5;" width="200.5303" x="1473" y="222.8564"/><text fill="#000000" font-family="sans-serif" font-size="14" lengthAdjust="spacing" textLength="180.5303" x="1483" y="247.3896">:Collaboration CrearProyecto</text></g><!--entity AbrirPanelPrincipal--><g class="entity" data-qualified-name="AbrirPanelPrincipal" data-source-line="16" id="ent0012"><rect fill="#CDEBA5" height="37.6094" rx="2.5" ry="2.5" style="stroke:#181818;stroke-width:0.5;" width="229.3301" x="1709" y="222.8564"/><text fill="#000000" font-family="sans-serif" font-size="14" lengthAdjust="spacing" textLength="209.3301" x="1719" y="247.3896">:Collaboration AbrirPanelPrincipal</text></g><g class="entity" data-qualified-name="GMN22" data-source-line="29" id="ent0023"><path d="M1973.5,212.3564 L1973.5,271.4111 L2233.686,271.4111 L2233.686,222.3564 L2223.686,212.3564 L1973.5,212.3564" fill="#FEFFDD" style="stroke:#181818;stroke-width:0.5;"/><path d="M2223.686,212.3564 L2223.686,222.3564 L2233.686,222.3564 L2223.686,212.3564" fill="#FEFFDD" style="stroke:#181818;stroke-width:1;"/><text fill="#000000" font-family="sans-serif" font-size="13" lengthAdjust="spacing" textLength="107.6816" x="1979.5" y="230.8516">Contexto opcional:</text><text fill="#000000" font-family="sans-serif" font-size="13" lengthAdjust="spacing" textLength="181.3779" x="1979.5" y="247.2031">- sin identificador: listado global</text><text fill="#000000" font-family="sans-serif" font-size="13" lengthAdjust="spacing" textLength="239.186" x="1979.5" y="263.5547">- con investigadorId: proyectos asociados</text></g><!--link EstadoEntrada1 to ListarProyectosView--><g class="link" data-entity-1="ent0001" data-entity-2="ent0005" data-link-type="dependency" data-source-line="18" id="lnk13"><path d="M228.32,115.3564 C393.04,115.3564 693.04,115.3564 832.92,115.3564" fill="none" id="EstadoEntrada1-to-ListarProyectosView" style="stroke:#181818;stroke-width:1;"/><polygon fill="#181818" points="837.92,115.3564,828.92,111.3564,832.92,115.3564,828.92,119.3564,837.92,115.3564" style="stroke:#181818;stroke-width:1;stroke-linejoin:miter;stroke-miterlimit:10;"/><text fill="#000000" font-family="sans-serif" font-size="13" lengthAdjust="spacing" textLength="92.4663" x="487" y="108.8516">abrirProyectos()</text></g><!--link EstadoEntrada2 to ListarProyectosView--><g class="link" data-entity-1="ent0002" data-entity-2="ent0005" data-link-type="dependency" data-source-line="19" id="lnk14"><path d="M1113.38,115.3564 C1072.59,115.3564 1029.38,115.3564 990.29,115.3564" fill="none" id="EstadoEntrada2-to-ListarProyectosView" style="stroke:#181818;stroke-width:1;"/><polygon fill="#181818" points="985.29,115.3564,994.29,119.3564,990.29,115.3564,994.29,111.3564,985.29,115.3564" style="stroke:#181818;stroke-width:1;stroke-linejoin:miter;stroke-miterlimit:10;"/><text fill="#000000" font-family="sans-serif" font-size="13" lengthAdjust="spacing" textLength="92.4663" x="1003.25" y="108.8516">abrirProyectos()</text></g><!--link EstadoEntrada3 to ListarProyectosView--><g class="link" data-entity-1="ent0003" data-entity-2="ent0005" data-link-type="dependency" data-source-line="20" id="lnk15"><path d="M1393.36,96.3364 C1358.8,72.1164 1303.5,33.3564 1303.5,33.3564 C1303.5,33.3564 1096.5,33.3564 1096.5,33.3564 C1096.5,33.3564 1013.6312,70.0906 958.9812,94.3106" fill="none" id="EstadoEntrada3-to-ListarProyectosView" style="stroke:#181818;stroke-width:1;"/><polygon fill="#181818" points="954.41,96.3364,964.2589,96.3468,958.9812,94.3106,961.0174,89.0329,954.41,96.3364" style="stroke:#181818;stroke-width:1;stroke-linejoin:miter;stroke-miterlimit:10;"/><text fill="#000000" font-family="sans-serif" font-size="13" lengthAdjust="spacing" textLength="173.4053" x="1066" y="20.8516">abrirProyectos(idInvestigador)</text></g><!--link ListarProyectosView to ProyectoController--><g class="link" data-entity-1="ent0005" data-entity-2="ent0006" data-link-type="dependency" data-source-line="22" id="lnk16"><path d="M837.92,125.5564 C726.41,139.4964 527.5,164.3564 527.5,164.3564 C527.5,164.3564 527.5,182.3564 527.5,182.3564 C527.5,182.3564 565.6929,203.2378 597.1329,220.4278" fill="none" id="ListarProyectosView-to-ProyectoController" style="stroke:#181818;stroke-width:1;"/><polygon fill="#181818" points="601.52,222.8264,595.5422,214.9992,597.1329,220.4278,591.7043,222.0185,601.52,222.8264" style="stroke:#181818;stroke-width:1;stroke-linejoin:miter;stroke-miterlimit:10;"/><text fill="#000000" font-family="sans-serif" font-size="13" lengthAdjust="spacing" textLength="182.0762" x="528.5" y="178.8516">listarProyectos(investigadorId?)</text></g><!--link ListarProyectosView to ProyectoController--><g class="link" data-entity-1="ent0005" data-entity-2="ent0006" data-link-type="dependency" data-source-line="25" id="lnk19"><path d="M852.59,134.3664 C808.04,147.9864 754.5,164.3564 754.5,164.3564 C754.5,164.3564 702.6361,197.4185 667.1561,220.0385" fill="none" id="ListarProyectosView-to-ProyectoController-1" style="stroke:#181818;stroke-width:1;"/><polygon fill="#181818" points="662.94,222.7264,672.6792,221.261,667.1561,220.0385,668.3786,214.5154,662.94,222.7264" style="stroke:#181818;stroke-width:1;stroke-linejoin:miter;stroke-miterlimit:10;"/><text fill="#000000" font-family="sans-serif" font-size="13" lengthAdjust="spacing" textLength="229.7471" x="755.5" y="178.8516">filtrarProyectos(criterio, investigadorId?)</text></g><!--link ProyectoController to ProyectoRepository--><g class="link" data-entity-1="ent0006" data-entity-2="ent0007" data-link-type="dependency" data-source-line="23" id="lnk17"><path d="M566.11,254.5564 C466.31,271.6264 292.5,301.3564 292.5,301.3564 C292.5,301.3564 292.5,319.3564 292.5,319.3564 C292.5,319.3564 335.1737,334.0947 374.6237,347.7147" fill="none" id="ProyectoController-to-ProyectoRepository" style="stroke:#181818;stroke-width:1;"/><polygon fill="#181818" points="379.35,349.3464,372.1481,342.6283,374.6237,347.7147,369.5374,350.1903,379.35,349.3464" style="stroke:#181818;stroke-width:1;stroke-linejoin:miter;stroke-miterlimit:10;"/><text fill="#000000" font-family="sans-serif" font-size="13" lengthAdjust="spacing" textLength="94.6499" x="293.5" y="315.8516">obtenerActivos()</text></g><!--link ProyectoController to ProyectoRepository--><g class="link" data-entity-1="ent0006" data-entity-2="ent0007" data-link-type="dependency" data-source-line="24" id="lnk18"><path d="M571.01,260.8864 C510.48,278.0764 428.5,301.3564 428.5,301.3564 C428.5,301.3564 428.5,319.3564 428.5,319.3564 C428.5,319.3564 429.2079,330.6262 430.0579,344.2162" fill="none" id="ProyectoController-to-ProyectoRepository-1" style="stroke:#181818;stroke-width:1;"/><polygon fill="#181818" points="430.37,349.2064,433.8004,339.9743,430.0579,344.2162,425.816,340.4737,430.37,349.2064" style="stroke:#181818;stroke-width:1;stroke-linejoin:miter;stroke-miterlimit:10;"/><text fill="#000000" font-family="sans-serif" font-size="13" lengthAdjust="spacing" textLength="266.6396" x="429.5" y="315.8516">obtenerActivosPorInvestigador(investigadorId)</text></g><!--link ProyectoController to ProyectoRepository--><g class="link" data-entity-1="ent0006" data-entity-2="ent0007" data-link-type="dependency" data-source-line="26" id="lnk20"><path d="M655.02,261.0464 C674.4,278.2164 700.5,301.3564 700.5,301.3564 C700.5,301.3564 700.5,319.3564 700.5,319.3564 C700.5,319.3564 587.1522,339.5776 507.4522,353.8076" fill="none" id="ProyectoController-to-ProyectoRepository-2" style="stroke:#181818;stroke-width:1;"/><polygon fill="#181818" points="502.53,354.6864,512.0929,357.0423,507.4522,353.8076,510.6868,349.1668,502.53,354.6864" style="stroke:#181818;stroke-width:1;stroke-linejoin:miter;stroke-miterlimit:10;"/><text fill="#000000" font-family="sans-serif" font-size="13" lengthAdjust="spacing" textLength="244.2007" x="701.5" y="315.8516">buscarPorCriterio(criterio, investigadorId?)</text></g><!--link ProyectoRepository to Proyecto--><g class="link" data-entity-1="ent0007" data-entity-2="ent0008" data-link-type="association" data-source-line="27" id="lnk21"><path d="M431.5,387.5964 C431.5,404.9464 431.5,430.8764 431.5,448.1964" fill="none" id="ProyectoRepository-Proyecto" style="stroke:#181818;stroke-width:1;"/></g><!--link ProyectoController to GMN22--><g class="link" data-entity-1="ent0006" data-entity-2="ent0023" data-link-type="association" data-source-line="29" id="lnk24"><path d="M702.62,229.6864 C812.82,210.0064 1018,173.3564 1018,173.3564 C1018,173.3564 1938,173.3564 1938,173.3564 C1938,173.3564 1987.14,193.6964 2031.87,212.2064" fill="none" id="ProyectoController-GMN22" style="stroke:#181818;stroke-width:1;stroke-dasharray:7,7;"/></g><!--link ListarProyectosView to EstadoSalida--><g class="link" data-entity-1="ent0005" data-entity-2="ent0009" data-link-type="dependency" data-source-line="33" id="lnk25"><path d="M942.5,134.5064 C965.72,148.0964 993.5,164.3564 993.5,164.3564 C993.5,164.3564 1044.904,197.4028 1080.094,220.0228" fill="none" id="ListarProyectosView-to-EstadoSalida" style="stroke:#181818;stroke-width:1;stroke-dasharray:7,7;"/><polygon fill="#181818" points="1084.3,222.7264,1078.8921,214.4951,1080.094,220.0228,1074.5663,221.2248,1084.3,222.7264" style="stroke:#181818;stroke-width:1;stroke-linejoin:miter;stroke-miterlimit:10;"/><text fill="#000000" font-family="sans-serif" font-size="13" lengthAdjust="spacing" textLength="130.7935" x="1019.5" y="178.8516">continuarNavegacion()</text></g><!--link ListarProyectosView to AbrirProyecto--><g class="link" data-entity-1="ent0005" data-entity-2="ent0010" data-link-type="dependency" data-source-line="34" id="lnk26"><path d="M985.27,130.6964 C1058.06,144.8364 1158.5,164.3564 1158.5,164.3564 C1158.5,164.3564 1238.9406,198.1691 1292.7606,220.7891" fill="none" id="ListarProyectosView-to-AbrirProyecto" style="stroke:#181818;stroke-width:1;stroke-dasharray:7,7;"/><polygon fill="#181818" points="1297.37,222.7264,1290.6229,215.5518,1292.7606,220.7891,1287.5232,222.9269,1297.37,222.7264" style="stroke:#181818;stroke-width:1;stroke-linejoin:miter;stroke-miterlimit:10;"/><text fill="#000000" font-family="sans-serif" font-size="13" lengthAdjust="spacing" textLength="85.9663" x="1198.5" y="178.8516">abrirProyecto()</text></g><!--link ListarProyectosView to CrearProyecto--><g class="link" data-entity-1="ent0005" data-entity-2="ent0011" data-link-type="dependency" data-source-line="35" id="lnk27"><path d="M985.41,125.6664 C1096.21,139.6264 1292.5,164.3564 1292.5,164.3564 C1292.5,164.3564 1419.3657,198.8928 1502.4357,221.5128" fill="none" id="ListarProyectosView-to-CrearProyecto" style="stroke:#181818;stroke-width:1;stroke-dasharray:7,7;"/><polygon fill="#181818" points="1507.26,222.8264,1499.6271,216.6024,1502.4357,221.5128,1497.5252,224.3213,1507.26,222.8264" style="stroke:#181818;stroke-width:1;stroke-linejoin:miter;stroke-miterlimit:10;"/><text fill="#000000" font-family="sans-serif" font-size="13" lengthAdjust="spacing" textLength="89.5781" x="1353.5" y="178.8516">crearProyecto()</text></g><!--link ListarProyectosView to AbrirPanelPrincipal--><g class="link" data-entity-1="ent0005" data-entity-2="ent0012" data-link-type="dependency" data-source-line="36" id="lnk28"><path d="M985.15,123.5264 C1036.74,128.5464 1096.5,134.3564 1096.5,134.3564 C1096.5,134.3564 1451.5,164.3564 1451.5,164.3564 C1451.5,164.3564 1691.5,212.3564 1691.5,212.3564 C1691.5,212.3564 1708.8228,216.0903 1735.0128,221.7503" fill="none" id="ListarProyectosView-to-AbrirPanelPrincipal" style="stroke:#181818;stroke-width:1;stroke-dasharray:7,7;"/><polygon fill="#181818" points="1739.9,222.8064,1731.948,216.9956,1735.0128,221.7503,1730.2581,224.8151,1739.9,222.8064" style="stroke:#181818;stroke-width:1;stroke-linejoin:miter;stroke-miterlimit:10;"/><text fill="#000000" font-family="sans-serif" font-size="13" lengthAdjust="spacing" textLength="117.7681" x="1536.5" y="178.8516">abrirPanelPrincipal()</text></g><?plantuml-src fLHHQzim47xNhpYobmJcmjArh7xeS5rt649Yd53OKpdRYdTKauoiPWjZ_xroQHR9TThG-Kawlk-xxqvtRkz9DgZn9mYIt6mR3eqIs-x2cEQbGLaB3X_Yw-GgEeDHc4NpP7QNvUayJhDeTXTTfKc-Mem0MqXQWvLAfD5OuQTXUhxudiIhnM7UT92Npc-JvIhz5bqlyiFSKzPWUOyr1omqwKohhTLIRGSS-Q7nP0H_6DZFINS-lKXkBc16LdGFlIN-guyipehg_0liCB6o1fGGNFU1DzCe_fpy0-QyKIqPfRTl0DbVzce3bxikB9qsB55GXOEysBh3Gcaqf2H4RY-U1Bp84GgnvkWhU96ZFQ3a8jCaIsfGE4wyE6F-Q46WWykXPmgX_ye-S_fkvkdnJAfIkU6jeThIzOIn0H84bLLxEJwXtKCFF2P7Aws-JjXB4WIErdx2Gb25uPBhg3IqUIhftTpC9dUCz5nDXaiyKE6QX6sfKsAfoN1DwYFyJx75GrjQLQNZPxbZTFS2LdU_V58P3fhg7mRKUcZBkoF_RHIefhJ3Z29a0RGaWIek3Qsfx58zlsQbe1Qgi7CSG6adttSJGkFyfrH9DjmoBYleN0nszkJaqjlui9Cr91zGpt73Q-myZIS7kTwoz-Rt5PgtuJQdUtqpcxVGkvnUq4ey0W00?></g></svg>