<svg xmlns="http://www.w3.org/2000/svg" xmlns:xlink="http://www.w3.org/1999/xlink" contentStyleType="text/css" data-diagram-type="DESCRIPTION" height="633px" preserveAspectRatio="none" style="width:2248px;height:633px;background:#FFFFFF;" version="1.1" viewBox="0 0 2248 633" width="2248px" zoomAndPan="magnify"><?plantuml 1.2026.6?><defs/><g><!--cluster abrirProyectos--><g class="cluster" data-qualified-name="abrirProyectos" data-source-line="6" id="ent0004"><path d="M247,40.3564 L356.1445,40.3564 A3.75,3.75 0 0 1 358.6445,42.8564 L365.6445,63.9658 L999,63.9658 A2.5,2.5 0 0 1 1001.5,66.4658 L1001.5,615.8564 A2.5,2.5 0 0 1 999,618.3564 L247,618.3564 A2.5,2.5 0 0 1 244.5,615.8564 L244.5,42.8564 A2.5,2.5 0 0 1 247,40.3564" fill="none" style="stroke:#000000;stroke-width:1.5;"/><line style="stroke:#000000;stroke-width:1.5;" x1="244.5" x2="365.6445" y1="63.9658" y2="63.9658"/><text fill="#000000" font-family="sans-serif" font-size="14" font-weight="700" lengthAdjust="spacing" textLength="108.1445" x="248.5" y="56.8896">abrirProyectos()</text></g><!--entity ListarProyectosView--><g class="entity" data-qualified-name="abrirProyectos.ListarProyectosView" data-source-line="7" id="ent0005"><rect fill="#629EF9" height="37.6094" rx="2.5" ry="2.5" style="stroke:#181818;stroke-width:0.5;" width="146.8271" x="838" y="96.3564"/><text fill="#000000" font-family="sans-serif" font-size="14" lengthAdjust="spacing" textLength="126.8271" x="848" y="120.8896">ListarProyectosView</text></g><!--entity ProyectoController--><g class="entity" data-qualified-name="abrirProyectos.ProyectoController" data-source-line="8" id="ent0006"><rect fill="#B5BD68" height="37.6094" rx="2.5" ry="2.5" style="stroke:#181818;stroke-width:0.5;" width="135.9375" x="672.5" y="222.8564"/><text fill="#000000" font-family="sans-serif" font-size="14" lengthAdjust="spacing" textLength="115.9375" x="682.5" y="247.3896">ProyectoController</text></g><!--entity ProyectoService--><g class="entity" data-qualified-name="abrirProyectos.ProyectoService" data-source-line="9" id="ent0007"><rect fill="#B5BD68" height="37.6094" rx="2.5" ry="2.5" style="stroke:#181818;stroke-width:0.5;" width="121.9307" x="398.5" y="349.3564"/><text fill="#000000" font-family="sans-serif" font-size="14" lengthAdjust="spacing" textLength="101.9307" x="408.5" y="373.8896">ProyectoService</text></g><!--entity SesionService--><g class="entity" data-qualified-name="abrirProyectos.SesionService" data-source-line="10" id="ent0008"><rect fill="#B5BD68" height="37.6094" rx="2.5" ry="2.5" style="stroke:#181818;stroke-width:0.5;" width="109.4893" x="686" y="349.3564"/><text fill="#000000" font-family="sans-serif" font-size="14" lengthAdjust="spacing" textLength="89.4893" x="696" y="373.8896">SesionService</text></g><!--entity ProyectoRepository--><g class="entity" data-qualified-name="abrirProyectos.ProyectoRepository" data-source-line="11" id="ent0009"><rect fill="#F2AC4E" height="37.6094" rx="2.5" ry="2.5" style="stroke:#181818;stroke-width:0.5;" width="142.165" x="360.5" y="465.3564"/><text fill="#000000" font-family="sans-serif" font-size="14" lengthAdjust="spacing" textLength="122.165" x="370.5" y="489.8896">ProyectoRepository</text></g><!--entity Proyecto--><g class="entity" data-qualified-name="abrirProyectos.Proyecto" data-source-line="12" id="ent0010"><rect fill="#F2AC4E" height="37.6094" rx="2.5" ry="2.5" style="stroke:#181818;stroke-width:0.5;" width="75.248" x="394" y="564.3564"/><text fill="#000000" font-family="sans-serif" font-size="14" lengthAdjust="spacing" textLength="55.248" x="404" y="588.8896">Proyecto</text></g><!--entity EstadoEntrada1--><g class="entity" data-qualified-name="EstadoEntrada1" data-source-line="3" id="ent0001"><rect fill="#CDEBA5" height="37.6094" rx="2.5" ry="2.5" style="stroke:#181818;stroke-width:0.5;" width="220.7373" x="7" y="96.3564"/><text fill="#000000" font-family="sans-serif" font-size="14" lengthAdjust="spacing" textLength="200.7373" x="17" y="120.8896">:PANEL_PRINCIPAL_ABIERTO</text></g><!--entity EstadoEntrada2--><g class="entity" data-qualified-name="EstadoEntrada2" data-source-line="4" id="ent0002"><rect fill="#CDEBA5" height="37.6094" rx="2.5" ry="2.5" style="stroke:#181818;stroke-width:0.5;" width="171.6963" x="1113.5" y="96.3564"/><text fill="#000000" font-family="sans-serif" font-size="14" lengthAdjust="spacing" textLength="151.6963" x="1123.5" y="120.8896">:PROYECTO_ABIERTO</text></g><!--entity EstadoEntrada3--><g class="entity" data-qualified-name="EstadoEntrada3" data-source-line="5" id="ent0003"><rect fill="#CDEBA5" height="37.6094" rx="2.5" ry="2.5" style="stroke:#181818;stroke-width:0.5;" width="198.9238" x="1321" y="96.3564"/><text fill="#000000" font-family="sans-serif" font-size="14" lengthAdjust="spacing" textLength="178.9238" x="1331" y="120.8896">:INVESTIGADOR_ABIERTO</text></g><!--entity EstadoSalida--><g class="entity" data-qualified-name="EstadoSalida" data-source-line="15" id="ent0011"><rect fill="#CDEBA5" height="37.6094" rx="2.5" ry="2.5" style="stroke:#181818;stroke-width:0.5;" width="190.3721" x="1017.5" y="222.8564"/><text fill="#000000" font-family="sans-serif" font-size="14" lengthAdjust="spacing" textLength="170.3721" x="1027.5" y="247.3896">:PROYECTOS_ABIERTOS</text></g><!--entity AbrirProyecto--><g class="entity" data-qualified-name="AbrirProyecto" data-source-line="16" id="ent0012"><rect fill="#CDEBA5" height="37.6094" rx="2.5" ry="2.5" style="stroke:#181818;stroke-width:0.5;" width="195.082" x="1243" y="222.8564"/><text fill="#000000" font-family="sans-serif" font-size="14" lengthAdjust="spacing" textLength="175.082" x="1253" y="247.3896">:Collaboration AbrirProyecto</text></g><!--entity CrearProyecto--><g class="entity" data-qualified-name="CrearProyecto" data-source-line="17" id="ent0013"><rect fill="#CDEBA5" height="37.6094" rx="2.5" ry="2.5" style="stroke:#181818;stroke-width:0.5;" width="200.5303" x="1473" y="222.8564"/><text fill="#000000" font-family="sans-serif" font-size="14" lengthAdjust="spacing" textLength="180.5303" x="1483" y="247.3896">:Collaboration CrearProyecto</text></g><!--entity AbrirPanelPrincipal--><g class="entity" data-qualified-name="AbrirPanelPrincipal" data-source-line="18" id="ent0014"><rect fill="#CDEBA5" height="37.6094" rx="2.5" ry="2.5" style="stroke:#181818;stroke-width:0.5;" width="229.3301" x="1709" y="222.8564"/><text fill="#000000" font-family="sans-serif" font-size="14" lengthAdjust="spacing" textLength="209.3301" x="1719" y="247.3896">:Collaboration AbrirPanelPrincipal</text></g><g class="entity" data-qualified-name="GMN26" data-source-line="33" id="ent0027"><path d="M1973.5,212.3564 L1973.5,271.4111 L2233.686,271.4111 L2233.686,222.3564 L2223.686,212.3564 L1973.5,212.3564" fill="#FEFFDD" style="stroke:#181818;stroke-width:0.5;"/><path d="M2223.686,212.3564 L2223.686,222.3564 L2233.686,222.3564 L2223.686,212.3564" fill="#FEFFDD" style="stroke:#181818;stroke-width:1;"/><text fill="#000000" font-family="sans-serif" font-size="13" lengthAdjust="spacing" textLength="107.6816" x="1979.5" y="230.8516">Contexto opcional:</text><text fill="#000000" font-family="sans-serif" font-size="13" lengthAdjust="spacing" textLength="181.3779" x="1979.5" y="247.2031">- sin identificador: listado global</text><text fill="#000000" font-family="sans-serif" font-size="13" lengthAdjust="spacing" textLength="239.186" x="1979.5" y="263.5547">- con investigadorId: proyectos asociados</text></g><!--link EstadoEntrada1 to ListarProyectosView--><g class="link" data-entity-1="ent0001" data-entity-2="ent0005" data-link-type="dependency" data-source-line="20" id="lnk15"><path d="M228.32,115.3564 C393.04,115.3564 693.04,115.3564 832.92,115.3564" fill="none" id="EstadoEntrada1-to-ListarProyectosView" style="stroke:#181818;stroke-width:1;"/><polygon fill="#181818" points="837.92,115.3564,828.92,111.3564,832.92,115.3564,828.92,119.3564,837.92,115.3564" style="stroke:#181818;stroke-width:1;stroke-linejoin:miter;stroke-miterlimit:10;"/><text fill="#000000" font-family="sans-serif" font-size="13" lengthAdjust="spacing" textLength="92.4663" x="487" y="108.8516">abrirProyectos()</text></g><!--link EstadoEntrada2 to ListarProyectosView--><g class="link" data-entity-1="ent0002" data-entity-2="ent0005" data-link-type="dependency" data-source-line="21" id="lnk16"><path d="M1113.38,115.3564 C1072.59,115.3564 1029.38,115.3564 990.29,115.3564" fill="none" id="EstadoEntrada2-to-ListarProyectosView" style="stroke:#181818;stroke-width:1;"/><polygon fill="#181818" points="985.29,115.3564,994.29,119.3564,990.29,115.3564,994.29,111.3564,985.29,115.3564" style="stroke:#181818;stroke-width:1;stroke-linejoin:miter;stroke-miterlimit:10;"/><text fill="#000000" font-family="sans-serif" font-size="13" lengthAdjust="spacing" textLength="92.4663" x="1003.25" y="108.8516">abrirProyectos()</text></g><!--link EstadoEntrada3 to ListarProyectosView--><g class="link" data-entity-1="ent0003" data-entity-2="ent0005" data-link-type="dependency" data-source-line="22" id="lnk17"><path d="M1393.36,96.3364 C1358.8,72.1164 1303.5,33.3564 1303.5,33.3564 C1303.5,33.3564 1096.5,33.3564 1096.5,33.3564 C1096.5,33.3564 1013.6312,70.0906 958.9812,94.3106" fill="none" id="EstadoEntrada3-to-ListarProyectosView" style="stroke:#181818;stroke-width:1;"/><polygon fill="#181818" points="954.41,96.3364,964.2589,96.3468,958.9812,94.3106,961.0174,89.0329,954.41,96.3364" style="stroke:#181818;stroke-width:1;stroke-linejoin:miter;stroke-miterlimit:10;"/><text fill="#000000" font-family="sans-serif" font-size="13" lengthAdjust="spacing" textLength="173.4053" x="1066" y="20.8516">abrirProyectos(idInvestigador)</text></g><!--link ListarProyectosView to ProyectoController--><g class="link" data-entity-1="ent0005" data-entity-2="ent0006" data-link-type="dependency" data-source-line="24" id="lnk18"><path d="M837.92,125.5564 C726.41,139.4964 527.5,164.3564 527.5,164.3564 C527.5,164.3564 527.5,182.3564 527.5,182.3564 C527.5,182.3564 607.4486,204.3121 670.0286,221.5021" fill="none" id="ListarProyectosView-to-ProyectoController" style="stroke:#181818;stroke-width:1;"/><polygon fill="#181818" points="674.85,222.8264,667.231,216.5854,670.0286,221.5021,665.112,224.2997,674.85,222.8264" style="stroke:#181818;stroke-width:1;stroke-linejoin:miter;stroke-miterlimit:10;"/><text fill="#000000" font-family="sans-serif" font-size="13" lengthAdjust="spacing" textLength="182.0762" x="528.5" y="178.8516">listarProyectos(investigadorId?)</text></g><!--link ListarProyectosView to ProyectoController--><g class="link" data-entity-1="ent0005" data-entity-2="ent0006" data-link-type="dependency" data-source-line="29" id="lnk23"><path d="M883.9,134.5064 C863.23,148.0964 838.5,164.3564 838.5,164.3564 C838.5,164.3564 796.6415,197.03 767.6615,219.65" fill="none" id="ListarProyectosView-to-ProyectoController-1" style="stroke:#181818;stroke-width:1;"/><polygon fill="#181818" points="763.72,222.7264,773.2759,220.342,767.6615,219.65,768.3535,214.0356,763.72,222.7264" style="stroke:#181818;stroke-width:1;stroke-linejoin:miter;stroke-miterlimit:10;"/><text fill="#000000" font-family="sans-serif" font-size="13" lengthAdjust="spacing" textLength="229.7471" x="839.5" y="178.8516">filtrarProyectos(criterio, investigadorId?)</text></g><!--link ProyectoController to ProyectoService--><g class="link" data-entity-1="ent0006" data-entity-2="ent0007" data-link-type="dependency" data-source-line="25" id="lnk19"><path d="M685.03,260.8864 C632.14,278.0764 560.5,301.3564 560.5,301.3564 C560.5,301.3564 521.1848,327.0402 491.2848,346.5902" fill="none" id="ProyectoController-to-ProyectoService" style="stroke:#181818;stroke-width:1;"/><polygon fill="#181818" points="487.1,349.3264,496.8217,347.7491,491.2848,346.5902,492.4437,341.0533,487.1,349.3264" style="stroke:#181818;stroke-width:1;stroke-linejoin:miter;stroke-miterlimit:10;"/><text fill="#000000" font-family="sans-serif" font-size="13" lengthAdjust="spacing" textLength="170.5044" x="561.5" y="315.8516">listar(criterio, investigadorId?)</text></g><!--link ProyectoController to SesionService--><g class="link" data-entity-1="ent0006" data-entity-2="ent0008" data-link-type="dependency" data-source-line="26" id="lnk20"><path d="M740.5,260.9564 C740.5,284.5664 740.5,320.6164 740.5,344.2264" fill="none" id="ProyectoController-to-SesionService" style="stroke:#181818;stroke-width:1;"/><polygon fill="#181818" points="740.5,349.2264,744.5,340.2264,740.5,344.2264,736.5,340.2264,740.5,349.2264" style="stroke:#181818;stroke-width:1;stroke-linejoin:miter;stroke-miterlimit:10;"/><text fill="#000000" font-family="sans-serif" font-size="13" lengthAdjust="spacing" textLength="209.5806" x="741.5" y="315.8516">obtenerSesionActual(authentication)</text></g><!--link ProyectoService to ProyectoRepository--><g class="link" data-entity-1="ent0007" data-entity-2="ent0009" data-link-type="dependency" data-source-line="27" id="lnk21"><path d="M398.26,386.9564 C350.6,400.6564 292.5,417.3564 292.5,417.3564 C292.5,417.3564 292.5,435.3564 292.5,435.3564 C292.5,435.3564 335.1737,450.0947 374.6237,463.7147" fill="none" id="ProyectoService-to-ProyectoRepository" style="stroke:#181818;stroke-width:1;"/><polygon fill="#181818" points="379.35,465.3464,372.1481,458.6283,374.6237,463.7147,369.5374,466.1903,379.35,465.3464" style="stroke:#181818;stroke-width:1;stroke-linejoin:miter;stroke-miterlimit:10;"/><text fill="#000000" font-family="sans-serif" font-size="13" lengthAdjust="spacing" textLength="94.6499" x="293.5" y="431.8516">obtenerActivos()</text></g><!--link ProyectoService to ProyectoRepository--><g class="link" data-entity-1="ent0007" data-entity-2="ent0009" data-link-type="dependency" data-source-line="28" id="lnk22"><path d="M447.78,387.5064 C439,401.0964 428.5,417.3564 428.5,417.3564 C428.5,417.3564 428.5,435.3564 428.5,435.3564 C428.5,435.3564 429.2079,446.6262 430.0579,460.2162" fill="none" id="ProyectoService-to-ProyectoRepository-1" style="stroke:#181818;stroke-width:1;"/><polygon fill="#181818" points="430.37,465.2064,433.8004,455.9743,430.0579,460.2162,425.816,456.4737,430.37,465.2064" style="stroke:#181818;stroke-width:1;stroke-linejoin:miter;stroke-miterlimit:10;"/><text fill="#000000" font-family="sans-serif" font-size="13" lengthAdjust="spacing" textLength="266.6396" x="429.5" y="431.8516">obtenerActivosPorInvestigador(investigadorId)</text></g><!--link ProyectoService to ProyectoRepository--><g class="link" data-entity-1="ent0007" data-entity-2="ent0009" data-link-type="dependency" data-source-line="30" id="lnk24"><path d="M520.63,381.5264 C592.02,395.7464 700.5,417.3564 700.5,417.3564 C700.5,417.3564 700.5,435.3564 700.5,435.3564 C700.5,435.3564 587.1522,455.5776 507.4522,469.8076" fill="none" id="ProyectoService-to-ProyectoRepository-2" style="stroke:#181818;stroke-width:1;"/><polygon fill="#181818" points="502.53,470.6864,512.0929,473.0423,507.4522,469.8076,510.6868,465.1668,502.53,470.6864" style="stroke:#181818;stroke-width:1;stroke-linejoin:miter;stroke-miterlimit:10;"/><text fill="#000000" font-family="sans-serif" font-size="13" lengthAdjust="spacing" textLength="244.2007" x="701.5" y="431.8516">buscarPorCriterio(criterio, investigadorId?)</text></g><!--link ProyectoRepository to Proyecto--><g class="link" data-entity-1="ent0009" data-entity-2="ent0010" data-link-type="association" data-source-line="31" id="lnk25"><path d="M431.5,503.5964 C431.5,520.9464 431.5,546.8764 431.5,564.1964" fill="none" id="ProyectoRepository-Proyecto" style="stroke:#181818;stroke-width:1;"/></g><!--link ProyectoController to GMN26--><g class="link" data-entity-1="ent0006" data-entity-2="ent0027" data-link-type="association" data-source-line="33" id="lnk28"><path d="M808.74,225.0164 C890.9,204.7264 1018,173.3564 1018,173.3564 C1018,173.3564 1938,173.3564 1938,173.3564 C1938,173.3564 1987.14,193.6964 2031.87,212.2064" fill="none" id="ProyectoController-GMN26" style="stroke:#181818;stroke-width:1;stroke-dasharray:7,7;"/></g><!--link ListarProyectosView to EstadoSalida--><g class="link" data-entity-1="ent0005" data-entity-2="ent0011" data-link-type="dependency" data-source-line="37" id="lnk29"><path d="M972.28,134.3664 C1018.25,147.9864 1073.5,164.3564 1073.5,164.3564 C1073.5,164.3564 1089.4478,195.6526 1100.9878,218.2726" fill="none" id="ListarProyectosView-to-EstadoSalida" style="stroke:#181818;stroke-width:1;stroke-dasharray:7,7;"/><polygon fill="#181818" points="1103.26,222.7264,1102.7331,212.8917,1100.9878,218.2726,1095.6069,216.5273,1103.26,222.7264" style="stroke:#181818;stroke-width:1;stroke-linejoin:miter;stroke-miterlimit:10;"/><text fill="#000000" font-family="sans-serif" font-size="13" lengthAdjust="spacing" textLength="130.7935" x="1082.5" y="178.8516">continuarNavegacion()</text></g><!--link ListarProyectosView to AbrirProyecto--><g class="link" data-entity-1="ent0005" data-entity-2="ent0012" data-link-type="dependency" data-source-line="38" id="lnk30"><path d="M985.36,127.7964 C1077.05,141.9864 1221.5,164.3564 1221.5,164.3564 C1221.5,164.3564 1272.904,197.4028 1308.094,220.0228" fill="none" id="ListarProyectosView-to-AbrirProyecto" style="stroke:#181818;stroke-width:1;stroke-dasharray:7,7;"/><polygon fill="#181818" points="1312.3,222.7264,1306.8921,214.4951,1308.094,220.0228,1302.5663,221.2248,1312.3,222.7264" style="stroke:#181818;stroke-width:1;stroke-linejoin:miter;stroke-miterlimit:10;"/><text fill="#000000" font-family="sans-serif" font-size="13" lengthAdjust="spacing" textLength="85.9663" x="1247.5" y="178.8516">abrirProyecto()</text></g><!--link ListarProyectosView to CrearProyecto--><g class="link" data-entity-1="ent0005" data-entity-2="ent0013" data-link-type="dependency" data-source-line="39" id="lnk31"><path d="M985.42,124.6064 C1108.36,138.3364 1341.5,164.3564 1341.5,164.3564 C1341.5,164.3564 1445.4716,198.6405 1514.0616,221.2605" fill="none" id="ListarProyectosView-to-CrearProyecto" style="stroke:#181818;stroke-width:1;stroke-dasharray:7,7;"/><polygon fill="#181818" points="1518.81,222.8264,1511.5156,216.2089,1514.0616,221.2605,1509.01,223.8065,1518.81,222.8264" style="stroke:#181818;stroke-width:1;stroke-linejoin:miter;stroke-miterlimit:10;"/><text fill="#000000" font-family="sans-serif" font-size="13" lengthAdjust="spacing" textLength="89.5781" x="1392.5" y="178.8516">crearProyecto()</text></g><!--link ListarProyectosView to AbrirPanelPrincipal--><g class="link" data-entity-1="ent0005" data-entity-2="ent0014" data-link-type="dependency" data-source-line="40" id="lnk32"><path d="M985.15,123.5264 C1036.74,128.5464 1096.5,134.3564 1096.5,134.3564 C1096.5,134.3564 1490.5,164.3564 1490.5,164.3564 C1490.5,164.3564 1641.687,199.0868 1740.137,221.7068" fill="none" id="ListarProyectosView-to-AbrirPanelPrincipal" style="stroke:#181818;stroke-width:1;stroke-dasharray:7,7;"/><polygon fill="#181818" points="1745.01,222.8264,1737.1343,216.9127,1740.137,221.7068,1735.3428,224.7095,1745.01,222.8264" style="stroke:#181818;stroke-width:1;stroke-linejoin:miter;stroke-miterlimit:10;"/><text fill="#000000" font-family="sans-serif" font-size="13" lengthAdjust="spacing" textLength="117.7681" x="1562.5" y="178.8516">abrirPanelPrincipal()</text></g><?plantuml-src dPHHQzim4CVVzIcEx2M1kR1qBQiVEbpN7OQIc3WKzbJEjf8UrIGZAzd2s7Uld2MDbTgDQPxYu_u_dVvtkkgPP8aQVu4WoSscv50giQa_6DCyDoYNWiEdy3Qw2IvWu2V19Bf_J6Rn98oJuFunk8cZsNmw0AmWgWmMAf96Ou5VskMpwSyed4-xTUDMNJnvYD9v_2EudSwwjUUinFmPbnmmqwGJhJQMfQewSU26XgC1_6LWVutZBiTNqTqLt9E57b8VYFy-pimkikBo6-npGcKBK49mVI8nvNfDEU_8Idb5IdRat8s3y6lqIfhnKbLabDwSI6J_sBkjIFT-fWr3KnHKOAikjFV4J6aqjbO8cgvk0Kwa1o7K75s24-bT0qek4aqofn95en8dpfWxfE1fxxgjuJuSpukh77zOUTvVIKKirxmojBHoFMAiHGHUOMbl1z6tBzf97bA35HVVH-oj2Bm6QpU7Uz0mrsIu9lKP-fASUVP1POPBhlz7WzoiK0nnPPwuD9HlMtaWxKHEGOUHVsLP2gst7dzCcDWBD2vpvD6etV0ElnSaR8CRXlSmx5IrsQhABLBfSCVg0pq0BFUm1wGo73GjdmoeHTlggl_oFqQ1AdFR31G-yw0Y2LJKBLhO9jcZTlDGA5WAbTadvK5k7w5RZGzbO_cgd6ouObmMK5VHQklPsRMpVFmQQqYkK4zmpPTOrpGSTMgTlNFqbDwHESl6djdyF7cQirlsPpf1YtW1?></g></svg>