<svg xmlns="http://www.w3.org/2000/svg" xmlns:xlink="http://www.w3.org/1999/xlink" contentStyleType="text/css" height="1045px" preserveAspectRatio="none" style="width:1933px;height:1045px;background:#FFFFFF;" version="1.1" viewBox="0 0 1933 1045" width="1933px" zoomAndPan="magnify"><title>Diagrama de secuencia - Desactivar perfil desde solicitud</title><defs/><g><text fill="#000000" font-family="sans-serif" font-size="14" font-weight="bold" lengthAdjust="spacing" textLength="382.8193" x="776.3472" y="29.5332">Diagrama de secuencia - Desactivar perfil desde solicitud</text><rect fill="#FFFFFF" height="799.9766" style="stroke:#181818;stroke-width:1;" width="10" x="443.8618" y="153.5703"/><rect fill="#FFFFFF" height="501.9766" style="stroke:#181818;stroke-width:1;" width="10" x="817.5205" y="406.2188"/><rect fill="#FFFFFF" height="30.3516" style="stroke:#181818;stroke-width:1;" width="10" x="1056.1011" y="436.5703"/><rect fill="#FFFFFF" height="364.2188" style="stroke:#181818;stroke-width:1;" width="10" x="1164.1353" y="497.2734"/><rect fill="#FFFFFF" height="30.3516" style="stroke:#181818;stroke-width:1;" width="10" x="1343.3633" y="588.3281"/><rect fill="#FFFFFF" height="30.3516" style="stroke:#181818;stroke-width:1;" width="10" x="1536.6006" y="709.7344"/><rect fill="none" height="747.625" style="stroke:#000000;stroke-width:1.5;" width="1916.5137" x="10" y="198.9219"/><line style="stroke:#181818;stroke-width:0.5;stroke-dasharray:5.0,5.0;" x1="61" x2="61" y1="121.2188" y2="963.5469"/><line style="stroke:#181818;stroke-width:0.5;stroke-dasharray:5.0,5.0;" x1="448.5654" x2="448.5654" y1="121.2188" y2="963.5469"/><line style="stroke:#181818;stroke-width:0.5;stroke-dasharray:5.0,5.0;" x1="821.9761" x2="821.9761" y1="121.2188" y2="963.5469"/><line style="stroke:#181818;stroke-width:0.5;stroke-dasharray:5.0,5.0;" x1="1060.3564" x2="1060.3564" y1="121.2188" y2="963.5469"/><line style="stroke:#181818;stroke-width:0.5;stroke-dasharray:5.0,5.0;" x1="1168.8457" x2="1168.8457" y1="121.2188" y2="963.5469"/><line style="stroke:#181818;stroke-width:0.5;stroke-dasharray:5.0,5.0;" x1="1347.7051" x2="1347.7051" y1="121.2188" y2="963.5469"/><line style="stroke:#181818;stroke-width:0.5;stroke-dasharray:5.0,5.0;" x1="1541.0215" x2="1541.0215" y1="121.2188" y2="963.5469"/><line style="stroke:#181818;stroke-width:0.5;stroke-dasharray:5.0,5.0;" x1="1866.6797" x2="1866.6797" y1="121.2188" y2="963.5469"/><text fill="#000000" font-family="sans-serif" font-size="14" lengthAdjust="spacing" textLength="77.0479" x="20" y="118.1426">Coordinador</text><ellipse cx="61.5239" cy="52.1094" fill="#E2E2F0" rx="8" ry="8" style="stroke:#181818;stroke-width:0.5;"/><path d="M61.5239,60.1094 L61.5239,87.1094 M48.5239,68.1094 L74.5239,68.1094 M61.5239,87.1094 L48.5239,102.1094 M61.5239,87.1094 L74.5239,102.1094 " fill="none" style="stroke:#181818;stroke-width:0.5;"/><text fill="#000000" font-family="sans-serif" font-size="14" lengthAdjust="spacing" textLength="77.0479" x="20" y="977.0801">Coordinador</text><ellipse cx="61.5239" cy="988.6563" fill="#E2E2F0" rx="8" ry="8" style="stroke:#181818;stroke-width:0.5;"/><path d="M61.5239,996.6563 L61.5239,1023.6563 M48.5239,1004.6563 L74.5239,1004.6563 M61.5239,1023.6563 L48.5239,1038.6563 M61.5239,1023.6563 L74.5239,1038.6563 " fill="none" style="stroke:#181818;stroke-width:0.5;"/><rect fill="#E2E2F0" height="49.2188" rx="2.5" ry="2.5" style="stroke:#181818;stroke-width:0.5;" width="134.5928" x="381.5654" y="71"/><text fill="#000000" font-family="sans-serif" font-size="14" lengthAdjust="spacing" textLength="120.5928" x="388.5654" y="92.5332">EliminarPerfilModal</text><text fill="#000000" font-family="sans-serif" font-size="14" lengthAdjust="spacing" textLength="45.8965" x="425.9136" y="110.1426">(React)</text><rect fill="#E2E2F0" height="49.2188" rx="2.5" ry="2.5" style="stroke:#181818;stroke-width:0.5;" width="134.5928" x="381.5654" y="962.5469"/><text fill="#000000" font-family="sans-serif" font-size="14" lengthAdjust="spacing" textLength="120.5928" x="388.5654" y="984.0801">EliminarPerfilModal</text><text fill="#000000" font-family="sans-serif" font-size="14" lengthAdjust="spacing" textLength="45.8965" x="425.9136" y="1001.6895">(React)</text><rect fill="#E2E2F0" height="49.2188" rx="2.5" ry="2.5" style="stroke:#181818;stroke-width:0.5;" width="231.0889" x="706.9761" y="71"/><text fill="#000000" font-family="sans-serif" font-size="14" lengthAdjust="spacing" textLength="217.0889" x="713.9761" y="92.5332">SolicitudEliminacionPerfilController</text><text fill="#000000" font-family="sans-serif" font-size="14" lengthAdjust="spacing" textLength="82.4824" x="781.2793" y="110.1426">(Spring Boot)</text><rect fill="#E2E2F0" height="49.2188" rx="2.5" ry="2.5" style="stroke:#181818;stroke-width:0.5;" width="231.0889" x="706.9761" y="962.5469"/><text fill="#000000" font-family="sans-serif" font-size="14" lengthAdjust="spacing" textLength="217.0889" x="713.9761" y="984.0801">SolicitudEliminacionPerfilController</text><text fill="#000000" font-family="sans-serif" font-size="14" lengthAdjust="spacing" textLength="82.4824" x="781.2793" y="1001.6895">(Spring Boot)</text><rect fill="#E2E2F0" height="31.6094" rx="2.5" ry="2.5" style="stroke:#181818;stroke-width:0.5;" width="103.4893" x="1009.3564" y="88.6094"/><text fill="#000000" font-family="sans-serif" font-size="14" lengthAdjust="spacing" textLength="89.4893" x="1016.3564" y="110.1426">SesionService</text><rect fill="#E2E2F0" height="31.6094" rx="2.5" ry="2.5" style="stroke:#181818;stroke-width:0.5;" width="103.4893" x="1009.3564" y="962.5469"/><text fill="#000000" font-family="sans-serif" font-size="14" lengthAdjust="spacing" textLength="89.4893" x="1016.3564" y="984.0801">SesionService</text><rect fill="#E2E2F0" height="31.6094" rx="2.5" ry="2.5" style="stroke:#181818;stroke-width:0.5;" width="92.5791" x="1122.8457" y="88.6094"/><text fill="#000000" font-family="sans-serif" font-size="14" lengthAdjust="spacing" textLength="78.5791" x="1129.8457" y="110.1426">PerfilService</text><rect fill="#E2E2F0" height="31.6094" rx="2.5" ry="2.5" style="stroke:#181818;stroke-width:0.5;" width="92.5791" x="1122.8457" y="962.5469"/><text fill="#000000" font-family="sans-serif" font-size="14" lengthAdjust="spacing" textLength="78.5791" x="1129.8457" y="984.0801">PerfilService</text><rect fill="#E2E2F0" height="31.6094" rx="2.5" ry="2.5" style="stroke:#181818;stroke-width:0.5;" width="237.3164" x="1229.7051" y="88.6094"/><text fill="#000000" font-family="sans-serif" font-size="14" lengthAdjust="spacing" textLength="223.3164" x="1236.7051" y="110.1426">SolicitudEliminacionPerfilRepository</text><rect fill="#E2E2F0" height="31.6094" rx="2.5" ry="2.5" style="stroke:#181818;stroke-width:0.5;" width="237.3164" x="1229.7051" y="962.5469"/><text fill="#000000" font-family="sans-serif" font-size="14" lengthAdjust="spacing" textLength="223.3164" x="1236.7051" y="984.0801">SolicitudEliminacionPerfilRepository</text><rect fill="#E2E2F0" height="31.6094" rx="2.5" ry="2.5" style="stroke:#181818;stroke-width:0.5;" width="129.1582" x="1477.0215" y="88.6094"/><text fill="#000000" font-family="sans-serif" font-size="14" lengthAdjust="spacing" textLength="115.1582" x="1484.0215" y="110.1426">UsuarioRepository</text><rect fill="#E2E2F0" height="31.6094" rx="2.5" ry="2.5" style="stroke:#181818;stroke-width:0.5;" width="129.1582" x="1477.0215" y="962.5469"/><text fill="#000000" font-family="sans-serif" font-size="14" lengthAdjust="spacing" textLength="115.1582" x="1484.0215" y="984.0801">UsuarioRepository</text><text fill="#000000" font-family="sans-serif" font-size="14" lengthAdjust="spacing" textLength="91.834" x="1818.6797" y="118.1426">Base de Datos</text><path d="M1849.5967,67.6094 C1849.5967,57.6094 1867.5967,57.6094 1867.5967,57.6094 C1867.5967,57.6094 1885.5967,57.6094 1885.5967,67.6094 L1885.5967,93.6094 C1885.5967,103.6094 1867.5967,103.6094 1867.5967,103.6094 C1867.5967,103.6094 1849.5967,103.6094 1849.5967,93.6094 L1849.5967,67.6094 " fill="#E2E2F0" style="stroke:#181818;stroke-width:1.5;"/><path d="M1849.5967,67.6094 C1849.5967,77.6094 1867.5967,77.6094 1867.5967,77.6094 C1867.5967,77.6094 1885.5967,77.6094 1885.5967,67.6094 " fill="none" style="stroke:#181818;stroke-width:1.5;"/><text fill="#000000" font-family="sans-serif" font-size="14" lengthAdjust="spacing" textLength="91.834" x="1818.6797" y="977.0801">Base de Datos</text><path d="M1849.5967,990.1563 C1849.5967,980.1563 1867.5967,980.1563 1867.5967,980.1563 C1867.5967,980.1563 1885.5967,980.1563 1885.5967,990.1563 L1885.5967,1016.1563 C1885.5967,1026.1563 1867.5967,1026.1563 1867.5967,1026.1563 C1867.5967,1026.1563 1849.5967,1026.1563 1849.5967,1016.1563 L1849.5967,990.1563 " fill="#E2E2F0" style="stroke:#181818;stroke-width:1.5;"/><path d="M1849.5967,990.1563 C1849.5967,1000.1563 1867.5967,1000.1563 1867.5967,1000.1563 C1867.5967,1000.1563 1885.5967,1000.1563 1885.5967,990.1563 " fill="none" style="stroke:#181818;stroke-width:1.5;"/><rect fill="#FFFFFF" height="799.9766" style="stroke:#181818;stroke-width:1;" width="10" x="443.8618" y="153.5703"/><rect fill="#FFFFFF" height="501.9766" style="stroke:#181818;stroke-width:1;" width="10" x="817.5205" y="406.2188"/><rect fill="#FFFFFF" height="30.3516" style="stroke:#181818;stroke-width:1;" width="10" x="1056.1011" y="436.5703"/><rect fill="#FFFFFF" height="364.2188" style="stroke:#181818;stroke-width:1;" width="10" x="1164.1353" y="497.2734"/><rect fill="#FFFFFF" height="30.3516" style="stroke:#181818;stroke-width:1;" width="10" x="1343.3633" y="588.3281"/><rect fill="#FFFFFF" height="30.3516" style="stroke:#181818;stroke-width:1;" width="10" x="1536.6006" y="709.7344"/><polygon fill="#181818" points="431.8618,149.5703,441.8618,153.5703,431.8618,157.5703,435.8618,153.5703" style="stroke:#181818;stroke-width:1;"/><line style="stroke:#181818;stroke-width:1;" x1="61.5239" x2="437.8618" y1="153.5703" y2="153.5703"/><text fill="#000000" font-family="sans-serif" font-size="13" lengthAdjust="spacing" textLength="136.5571" x="68.5239" y="148.7139">Solicita desactivar perfil</text><polygon fill="#181818" points="72.5239,179.9219,62.5239,183.9219,72.5239,187.9219,68.5239,183.9219" style="stroke:#181818;stroke-width:1;"/><line style="stroke:#181818;stroke-width:1;stroke-dasharray:2.0,2.0;" x1="66.5239" x2="442.8618" y1="183.9219" y2="183.9219"/><text fill="#000000" font-family="sans-serif" font-size="13" lengthAdjust="spacing" textLength="224.7197" x="78.5239" y="179.0654">Muestra confirmaci&#243;n de desactivaci&#243;n</text><path d="M10,198.9219 L70.1709,198.9219 L70.1709,207.2734 L60.1709,217.2734 L10,217.2734 L10,198.9219 " fill="#EEEEEE" style="stroke:#000000;stroke-width:1.5;"/><rect fill="none" height="747.625" style="stroke:#000000;stroke-width:1.5;" width="1916.5137" x="10" y="198.9219"/><text fill="#000000" font-family="sans-serif" font-size="13" font-weight="bold" lengthAdjust="spacing" textLength="15.1709" x="25" y="213.417">alt</text><text fill="#000000" font-family="sans-serif" font-size="11" font-weight="bold" lengthAdjust="spacing" textLength="125.3291" x="85.1709" y="212.3408">[Cancela desactivaci&#243;n]</text><polygon fill="#181818" points="431.8618,235.625,441.8618,239.625,431.8618,243.625,435.8618,239.625" style="stroke:#181818;stroke-width:1;"/><line style="stroke:#181818;stroke-width:1;" x1="61.5239" x2="437.8618" y1="239.625" y2="239.625"/><text fill="#000000" font-family="sans-serif" font-size="13" lengthAdjust="spacing" textLength="130.0762" x="68.5239" y="234.7686">Cancela desactivaci&#243;n</text><polygon fill="#181818" points="72.5239,265.9766,62.5239,269.9766,72.5239,273.9766,68.5239,269.9766" style="stroke:#181818;stroke-width:1;"/><line style="stroke:#181818;stroke-width:1;stroke-dasharray:2.0,2.0;" x1="66.5239" x2="442.8618" y1="269.9766" y2="269.9766"/><text fill="#000000" font-family="sans-serif" font-size="13" lengthAdjust="spacing" textLength="332.3252" x="78.5239" y="265.1201">Presenta SOLICITUD_ELIMINACION_PERFIL_ABIERTA</text><line style="stroke:#000000;stroke-width:1;stroke-dasharray:2.0,2.0;" x1="10" x2="1926.5137" y1="278.9766" y2="278.9766"/><text fill="#000000" font-family="sans-serif" font-size="11" font-weight="bold" lengthAdjust="spacing" textLength="131.4199" x="15" y="290.3955">[Confirma desactivaci&#243;n]</text><polygon fill="#181818" points="431.8618,312.1641,441.8618,316.1641,431.8618,320.1641,435.8618,316.1641" style="stroke:#181818;stroke-width:1;"/><line style="stroke:#181818;stroke-width:1;" x1="61.5239" x2="437.8618" y1="316.1641" y2="316.1641"/><text fill="#000000" font-family="sans-serif" font-size="13" lengthAdjust="spacing" textLength="135.1162" x="68.5239" y="311.3076">Confirma desactivaci&#243;n</text><line style="stroke:#181818;stroke-width:1;" x1="453.8618" x2="495.8618" y1="346.5156" y2="346.5156"/><line style="stroke:#181818;stroke-width:1;" x1="495.8618" x2="495.8618" y1="346.5156" y2="359.5156"/><line style="stroke:#181818;stroke-width:1;" x1="454.8618" x2="495.8618" y1="359.5156" y2="359.5156"/><polygon fill="#181818" points="464.8618,355.5156,454.8618,359.5156,464.8618,363.5156,460.8618,359.5156" style="stroke:#181818;stroke-width:1;"/><text fill="#000000" font-family="sans-serif" font-size="13" lengthAdjust="spacing" textLength="136.5635" x="460.8618" y="341.6592">Comprobar sesi&#243;n local</text><polygon fill="#181818" points="805.5205,402.2188,815.5205,406.2188,805.5205,410.2188,809.5205,406.2188" style="stroke:#181818;stroke-width:1;"/><line style="stroke:#181818;stroke-width:1;" x1="453.8618" x2="811.5205" y1="406.2188" y2="406.2188"/><text fill="#000000" font-family="sans-serif" font-size="13" lengthAdjust="spacing" textLength="344.6587" x="460.8618" y="385.0107">DELETE /api/solicitudes-eliminacion-perfil/{idSolicitud}/perfil</text><text fill="#000000" font-family="sans-serif" font-size="13" lengthAdjust="spacing" textLength="99.728" x="460.8618" y="401.3623">Cookie de sesi&#243;n</text><polygon fill="#181818" points="1044.1011,432.5703,1054.1011,436.5703,1044.1011,440.5703,1048.1011,436.5703" style="stroke:#181818;stroke-width:1;"/><line style="stroke:#181818;stroke-width:1;" x1="827.5205" x2="1050.1011" y1="436.5703" y2="436.5703"/><text fill="#000000" font-family="sans-serif" font-size="13" lengthAdjust="spacing" textLength="209.5806" x="834.5205" y="431.7139">obtenerSesionActual(authentication)</text><polygon fill="#181818" points="838.5205,462.9219,828.5205,466.9219,838.5205,470.9219,834.5205,466.9219" style="stroke:#181818;stroke-width:1;"/><line style="stroke:#181818;stroke-width:1;stroke-dasharray:2.0,2.0;" x1="832.5205" x2="1060.1011" y1="466.9219" y2="466.9219"/><text fill="#000000" font-family="sans-serif" font-size="13" lengthAdjust="spacing" textLength="98.2871" x="844.5205" y="462.0654">SesionResponse</text><polygon fill="#181818" points="1152.1353,493.2734,1162.1353,497.2734,1152.1353,501.2734,1156.1353,497.2734" style="stroke:#181818;stroke-width:1;"/><line style="stroke:#181818;stroke-width:1;" x1="827.5205" x2="1158.1353" y1="497.2734" y2="497.2734"/><text fill="#000000" font-family="sans-serif" font-size="13" lengthAdjust="spacing" textLength="305.6396" x="834.5205" y="492.417">eliminarPerfilDesdeSolicitud(coordinador, idSolicitud)</text><polygon fill="#181818" points="1336.3633,523.625,1346.3633,527.625,1336.3633,531.625,1340.3633,527.625" style="stroke:#181818;stroke-width:1;"/><line style="stroke:#181818;stroke-width:1;" x1="1174.1353" x2="1342.3633" y1="527.625" y2="527.625"/><text fill="#000000" font-family="sans-serif" font-size="13" lengthAdjust="spacing" textLength="114.8862" x="1181.1353" y="522.7686">findById(idSolicitud)</text><polygon fill="#181818" points="1855.5967,553.9766,1865.5967,557.9766,1855.5967,561.9766,1859.5967,557.9766" style="stroke:#181818;stroke-width:1;"/><line style="stroke:#181818;stroke-width:1;" x1="1348.3633" x2="1861.5967" y1="557.9766" y2="557.9766"/><text fill="#000000" font-family="sans-serif" font-size="13" lengthAdjust="spacing" textLength="241.6489" x="1355.3633" y="553.1201">SELECT * FROM usuarios WHERE id = ?</text><polygon fill="#181818" points="1364.3633,584.3281,1354.3633,588.3281,1364.3633,592.3281,1360.3633,588.3281" style="stroke:#181818;stroke-width:1;"/><line style="stroke:#181818;stroke-width:1;stroke-dasharray:2.0,2.0;" x1="1358.3633" x2="1866.5967" y1="588.3281" y2="588.3281"/><text fill="#000000" font-family="sans-serif" font-size="13" lengthAdjust="spacing" textLength="149.5889" x="1370.3633" y="583.4717">Resultado de persistencia</text><polygon fill="#181818" points="1185.1353,614.6797,1175.1353,618.6797,1185.1353,622.6797,1181.1353,618.6797" style="stroke:#181818;stroke-width:1;"/><line style="stroke:#181818;stroke-width:1;stroke-dasharray:2.0,2.0;" x1="1179.1353" x2="1347.3633" y1="618.6797" y2="618.6797"/><text fill="#000000" font-family="sans-serif" font-size="13" lengthAdjust="spacing" textLength="145.228" x="1191.1353" y="613.8232">SolicitudEliminacionPerfil</text><polygon fill="#181818" points="1529.6006,645.0313,1539.6006,649.0313,1529.6006,653.0313,1533.6006,649.0313" style="stroke:#181818;stroke-width:1;"/><line style="stroke:#181818;stroke-width:1;" x1="1174.1353" x2="1535.6006" y1="649.0313" y2="649.0313"/><text fill="#000000" font-family="sans-serif" font-size="13" lengthAdjust="spacing" textLength="190.7598" x="1181.1353" y="644.1748">save(idPerfil, fecha, coordinador)</text><polygon fill="#181818" points="1855.5967,675.3828,1865.5967,679.3828,1855.5967,683.3828,1859.5967,679.3828" style="stroke:#181818;stroke-width:1;"/><line style="stroke:#181818;stroke-width:1;" x1="1541.6006" x2="1861.5967" y1="679.3828" y2="679.3828"/><text fill="#000000" font-family="sans-serif" font-size="13" lengthAdjust="spacing" textLength="301.9961" x="1548.6006" y="674.5264">UPDATE usuarios SET activo = false WHERE id = ?</text><polygon fill="#181818" points="1557.6006,705.7344,1547.6006,709.7344,1557.6006,713.7344,1553.6006,709.7344" style="stroke:#181818;stroke-width:1;"/><line style="stroke:#181818;stroke-width:1;stroke-dasharray:2.0,2.0;" x1="1551.6006" x2="1866.5967" y1="709.7344" y2="709.7344"/><text fill="#000000" font-family="sans-serif" font-size="13" lengthAdjust="spacing" textLength="149.5889" x="1563.6006" y="704.8779">Resultado de persistencia</text><polygon fill="#181818" points="1185.1353,736.0859,1175.1353,740.0859,1185.1353,744.0859,1181.1353,740.0859" style="stroke:#181818;stroke-width:1;"/><line style="stroke:#181818;stroke-width:1;stroke-dasharray:2.0,2.0;" x1="1179.1353" x2="1540.6006" y1="740.0859" y2="740.0859"/><text fill="#000000" font-family="sans-serif" font-size="13" lengthAdjust="spacing" textLength="102.6099" x="1191.1353" y="735.2295">Perfil desactivado</text><polygon fill="#181818" points="1336.3633,766.4375,1346.3633,770.4375,1336.3633,774.4375,1340.3633,770.4375" style="stroke:#181818;stroke-width:1;"/><line style="stroke:#181818;stroke-width:1;" x1="1174.1353" x2="1342.3633" y1="770.4375" y2="770.4375"/><text fill="#000000" font-family="sans-serif" font-size="13" lengthAdjust="spacing" textLength="95.3735" x="1181.1353" y="765.5811">save(idSolicitud)</text><polygon fill="#181818" points="1855.5967,796.7891,1865.5967,800.7891,1855.5967,804.7891,1859.5967,800.7891" style="stroke:#181818;stroke-width:1;"/><line style="stroke:#181818;stroke-width:1;" x1="1348.3633" x2="1861.5967" y1="800.7891" y2="800.7891"/><text fill="#000000" font-family="sans-serif" font-size="13" lengthAdjust="spacing" textLength="472.4307" x="1355.3633" y="795.9326">UPDATE solicitudes_eliminacion_perfil SET estado = 'RESUELTA' WHERE id = ?</text><polygon fill="#181818" points="1359.3633,827.1406,1349.3633,831.1406,1359.3633,835.1406,1355.3633,831.1406" style="stroke:#181818;stroke-width:1;"/><line style="stroke:#181818;stroke-width:1;stroke-dasharray:2.0,2.0;" x1="1353.3633" x2="1866.5967" y1="831.1406" y2="831.1406"/><text fill="#000000" font-family="sans-serif" font-size="13" lengthAdjust="spacing" textLength="149.5889" x="1365.3633" y="826.2842">Resultado de persistencia</text><polygon fill="#181818" points="838.5205,857.4922,828.5205,861.4922,838.5205,865.4922,834.5205,861.4922" style="stroke:#181818;stroke-width:1;"/><line style="stroke:#181818;stroke-width:1;stroke-dasharray:2.0,2.0;" x1="832.5205" x2="1168.1353" y1="861.4922" y2="861.4922"/><text fill="#000000" font-family="sans-serif" font-size="13" lengthAdjust="spacing" textLength="169.0825" x="844.5205" y="856.6357">DesactivacionPerfilResponse</text><polygon fill="#181818" points="464.8618,904.1953,454.8618,908.1953,464.8618,912.1953,460.8618,908.1953" style="stroke:#181818;stroke-width:1;"/><line style="stroke:#181818;stroke-width:1;stroke-dasharray:2.0,2.0;" x1="458.8618" x2="821.5205" y1="908.1953" y2="908.1953"/><text fill="#000000" font-family="sans-serif" font-size="13" lengthAdjust="spacing" textLength="44.0845" x="470.8618" y="886.9873">200 OK</text><text fill="#000000" font-family="sans-serif" font-size="13" lengthAdjust="spacing" textLength="169.0825" x="470.8618" y="903.3389">DesactivacionPerfilResponse</text><polygon fill="#181818" points="72.5239,934.5469,62.5239,938.5469,72.5239,942.5469,68.5239,938.5469" style="stroke:#181818;stroke-width:1;"/><line style="stroke:#181818;stroke-width:1;stroke-dasharray:2.0,2.0;" x1="66.5239" x2="442.8618" y1="938.5469" y2="938.5469"/><text fill="#000000" font-family="sans-serif" font-size="13" lengthAdjust="spacing" textLength="358.3379" x="78.5239" y="933.6904">Presenta SOLICITUDES_ELIMINACION_PERFIL_ABIERTAS</text><!--SRC=[hLNDRjim3BxxAOXUcWuDKkmOO1kIsCMC9MrW9zYbGA3QJ2lCaGn9Bb0CUwezmbvibEKu_aco5bWEZasHdpv-52d3JORWS_Qas8v1Yg0nAL0adC4GVDGiCVo5ASXHRNb63jhwo8mdt1Ifvz6wL32JKgLSi5GgBsVAq6hEX86B8ECxigjb6RwGASiUn2122hkw0ARXLabXKAJji7Y_GHMVS2aSn8pSbSmoL8GJvugB9vXAMQ5DSju1GasXCQeNdc3fuYnjBmVTz6fPtiejmbngJdgykftsZWTx6scj2wQux8HriRoK6VR8DCB5r3v9VvyPgKjdV-fv3V5X-BbMTBmdOClQgQFdFWqUzD-_m90m6f1ZM1IeZMAGIB7bQaS9__ajB8qQjhHuB3CmOoB1Z7MNW7udQPw9EKrggL2ZeDpY-tau2rThVnFCmqLuDvc5ztURPH3TXlFDP1e6qMhYOKR2pIh-xoDt9kZ0hXsnovLy9Aqr7JKhLIOJblKYwAoEmG_cmIg04SlvgEugr4CydAsXAzde9q_h4_Lhv8mFWeZ_uEWQLzVCwlBQXh06-hTxkiC_1lb8B52vpqbY2fODM66UIL6UC4F6gpPErJNMvbxBYfGfkEy8TIw5nj8bnME15OTMQuq1MnF2j_EbJdEG7Cfo3OtyE-pQtMgNMfOoytupZc7BHJfz3TD13_g8kqNnfvGlbMosWWzm6zqle70zhE7xro0AY2DyWYybX3yjDJgwCQbLP8RIieMZKcgkJJbqEweVcI0dsVMbFJsfUbKwiL5Fnkvm6eDcBqZwkOLhs6BopAwXKRYh1b9VpVNIdr03r3B6mShbBqd8BRDzUqhPFfStojgRiCS9zWLTrfUWmqfbLyWpqFywZ9MGRp-8bNIDiR5fZ8rDTMDRGMb-Mr4-mMKKnEjWlffS_i_psicldcs7YNcu8OzFYNu3byEYDLS_tjp0_RS7yGxO_VHxppKIn6SkajYpLsLZXptoNm00]--></g></svg>