<svg xmlns="http://www.w3.org/2000/svg" xmlns:xlink="http://www.w3.org/1999/xlink" contentStyleType="text/css" data-diagram-type="DESCRIPTION" height="558px" preserveAspectRatio="none" style="width:1664px;height:558px;background:#FFFFFF;" version="1.1" viewBox="0 0 1664 558" width="1664px" zoomAndPan="magnify"><?plantuml 1.2026.6?><defs/><g><!--cluster editarEntregable--><g class="cluster" data-qualified-name="editarEntregable" data-source-line="4" id="ent0002"><path d="M213,6 L333.7998,6 A3.75,3.75 0 0 1 336.2998,8.5 L343.2998,29.6094 L931,29.6094 A2.5,2.5 0 0 1 933.5,32.1094 L933.5,540.5 A2.5,2.5 0 0 1 931,543 L213,543 A2.5,2.5 0 0 1 210.5,540.5 L210.5,8.5 A2.5,2.5 0 0 1 213,6" fill="none" style="stroke:#000000;stroke-width:1.5;"/><line style="stroke:#000000;stroke-width:1.5;" x1="210.5" x2="343.2998" y1="29.6094" y2="29.6094"/><text fill="#000000" font-family="sans-serif" font-size="14" font-weight="700" lengthAdjust="spacing" textLength="119.7998" x="214.5" y="22.5332">editarEntregable()</text></g><!--entity EditarEntregableView--><g class="entity" data-qualified-name="editarEntregable.EditarEntregableView" data-source-line="5" id="ent0003"><rect fill="#629EF9" height="37.6094" rx="2.5" ry="2.5" style="stroke:#181818;stroke-width:0.5;" width="154.6338" x="762" y="42"/><text fill="#000000" font-family="sans-serif" font-size="14" lengthAdjust="spacing" textLength="134.6338" x="772" y="66.5332">EditarEntregableView</text></g><!--entity EntregableController--><g class="entity" data-qualified-name="editarEntregable.EntregableController" data-source-line="6" id="ent0004"><rect fill="#B5BD68" height="37.6094" rx="2.5" ry="2.5" style="stroke:#181818;stroke-width:0.5;" width="148.4063" x="556.5" y="158"/><text fill="#000000" font-family="sans-serif" font-size="14" lengthAdjust="spacing" textLength="128.4063" x="566.5" y="182.5332">EntregableController</text></g><!--entity EntregableService--><g class="entity" data-qualified-name="editarEntregable.EntregableService" data-source-line="7" id="ent0005"><rect fill="#B5BD68" height="37.6094" rx="2.5" ry="2.5" style="stroke:#181818;stroke-width:0.5;" width="134.3994" x="350.5" y="274"/><text fill="#000000" font-family="sans-serif" font-size="14" lengthAdjust="spacing" textLength="114.3994" x="360.5" y="298.5332">EntregableService</text></g><!--entity SesionService--><g class="entity" data-qualified-name="editarEntregable.SesionService" data-source-line="8" id="ent0006"><rect fill="#B5BD68" height="37.6094" rx="2.5" ry="2.5" style="stroke:#181818;stroke-width:0.5;" width="109.4893" x="652" y="274"/><text fill="#000000" font-family="sans-serif" font-size="14" lengthAdjust="spacing" textLength="89.4893" x="662" y="298.5332">SesionService</text></g><!--entity EntregableRepository--><g class="entity" data-qualified-name="editarEntregable.EntregableRepository" data-source-line="9" id="ent0007"><rect fill="#F2AC4E" height="37.6094" rx="2.5" ry="2.5" style="stroke:#181818;stroke-width:0.5;" width="154.6338" x="275" y="390"/><text fill="#000000" font-family="sans-serif" font-size="14" lengthAdjust="spacing" textLength="134.6338" x="285" y="414.5332">EntregableRepository</text></g><!--entity ArchivoRepository--><g class="entity" data-qualified-name="editarEntregable.ArchivoRepository" data-source-line="10" id="ent0008"><rect fill="#F2AC4E" height="37.6094" rx="2.5" ry="2.5" style="stroke:#181818;stroke-width:0.5;" width="133.5996" x="513.5" y="390"/><text fill="#000000" font-family="sans-serif" font-size="14" lengthAdjust="spacing" textLength="113.5996" x="523.5" y="414.5332">ArchivoRepository</text></g><!--entity Entregable--><g class="entity" data-qualified-name="editarEntregable.Entregable" data-source-line="11" id="ent0009"><rect fill="#F2AC4E" height="37.6094" rx="2.5" ry="2.5" style="stroke:#181818;stroke-width:0.5;" width="87.7168" x="308.5" y="489"/><text fill="#000000" font-family="sans-serif" font-size="14" lengthAdjust="spacing" textLength="67.7168" x="318.5" y="513.5332">Entregable</text></g><!--entity ArchivoAdjunto--><g class="entity" data-qualified-name="editarEntregable.ArchivoAdjunto" data-source-line="12" id="ent0010"><rect fill="#F2AC4E" height="37.6094" rx="2.5" ry="2.5" style="stroke:#181818;stroke-width:0.5;" width="114.165" x="523.5" y="489"/><text fill="#000000" font-family="sans-serif" font-size="14" lengthAdjust="spacing" textLength="94.165" x="533.5" y="513.5332">ArchivoAdjunto</text></g><!--entity EstadoEntrada--><g class="entity" data-qualified-name="EstadoEntrada" data-source-line="3" id="ent0001"><rect fill="#CDEBA5" height="37.6094" rx="2.5" ry="2.5" style="stroke:#181818;stroke-width:0.5;" width="187.2686" x="7" y="42"/><text fill="#000000" font-family="sans-serif" font-size="14" lengthAdjust="spacing" textLength="167.2686" x="17" y="66.5332">:ENTREGABLE_ABIERTO</text></g><!--entity EstadoSalida--><g class="entity" data-qualified-name="EstadoSalida" data-source-line="15" id="ent0011"><rect fill="#CDEBA5" height="37.6094" rx="2.5" ry="2.5" style="stroke:#181818;stroke-width:0.5;" width="187.2686" x="950" y="158"/><text fill="#000000" font-family="sans-serif" font-size="14" lengthAdjust="spacing" textLength="167.2686" x="960" y="182.5332">:ENTREGABLE_ABIERTO</text></g><!--entity EliminarEntregable--><g class="entity" data-qualified-name="EliminarEntregable" data-source-line="16" id="ent0012"><rect fill="#CDEBA5" height="37.6094" rx="2.5" ry="2.5" style="stroke:#181818;stroke-width:0.5;" width="228.5576" x="1172" y="158"/><text fill="#000000" font-family="sans-serif" font-size="14" lengthAdjust="spacing" textLength="208.5576" x="1182" y="182.5332">:Collaboration EliminarEntregable</text></g><!--entity AbrirEntregables--><g class="entity" data-qualified-name="AbrirEntregables" data-source-line="17" id="ent0013"><rect fill="#CDEBA5" height="37.6094" rx="2.5" ry="2.5" style="stroke:#181818;stroke-width:0.5;" width="214.5508" x="1436" y="158"/><text fill="#000000" font-family="sans-serif" font-size="14" lengthAdjust="spacing" textLength="194.5508" x="1446" y="182.5332">:Collaboration AbrirEntregables</text></g><!--link EstadoEntrada to EditarEntregableView--><g class="link" data-entity-1="ent0001" data-entity-2="ent0003" data-link-type="dependency" data-source-line="19" id="lnk14"><path d="M194.09,61 C341.49,61 619.96,61 756.81,61" fill="none" id="EstadoEntrada-to-EditarEntregableView" style="stroke:#181818;stroke-width:1;"/><polygon fill="#181818" points="761.81,61,752.81,57,756.81,61,752.81,65,761.81,61" style="stroke:#181818;stroke-width:1;stroke-linejoin:miter;stroke-miterlimit:10;"/><text fill="#000000" font-family="sans-serif" font-size="13" lengthAdjust="spacing" textLength="104.0571" x="426" y="54.4951">editarEntregable()</text></g><!--link EditarEntregableView to EntregableController--><g class="link" data-entity-1="ent0003" data-entity-2="ent0004" data-link-type="dependency" data-source-line="21" id="lnk15"><path d="M761.97,79.81 C702.49,93.47 630.5,110 630.5,110 C630.5,110 630.5,133.42 630.5,152.97" fill="none" id="EditarEntregableView-to-EntregableController" style="stroke:#181818;stroke-width:1;"/><polygon fill="#181818" points="630.5,157.97,634.5,148.97,630.5,152.97,626.5,148.97,630.5,157.97" style="stroke:#181818;stroke-width:1;stroke-linejoin:miter;stroke-miterlimit:10;"/><text fill="#000000" font-family="sans-serif" font-size="13" lengthAdjust="spacing" textLength="285.4414" x="631.5" y="124.4951">editarEntregable(id, datos, archivo?, coordinador)</text></g><!--link EntregableController to EntregableService--><g class="link" data-entity-1="ent0004" data-entity-2="ent0005" data-link-type="dependency" data-source-line="22" id="lnk16"><path d="M556.47,193.12 C487.58,207.19 395.5,226 395.5,226 C395.5,226 395.5,244 395.5,244 C395.5,244 400.8664,255.7148 407.0964,269.3048" fill="none" id="EntregableController-to-EntregableService" style="stroke:#181818;stroke-width:1;"/><polygon fill="#181818" points="409.18,273.85,409.0656,264.0018,407.0964,269.3048,401.7934,267.3356,409.18,273.85" style="stroke:#181818;stroke-width:1;stroke-linejoin:miter;stroke-miterlimit:10;"/><text fill="#000000" font-family="sans-serif" font-size="13" lengthAdjust="spacing" textLength="262.2852" x="396.5" y="240.4951">actualizar(id, cambios, archivo?, coordinador)</text></g><!--link EntregableController to SesionService--><g class="link" data-entity-1="ent0004" data-entity-2="ent0006" data-link-type="dependency" data-source-line="23" id="lnk17"><path d="M644.49,196.15 C654.97,209.74 667.5,226 667.5,226 C667.5,226 681.7584,250.1142 693.2984,269.6642" fill="none" id="EntregableController-to-SesionService" style="stroke:#181818;stroke-width:1;"/><polygon fill="#181818" points="695.84,273.97,694.7097,264.1862,693.2984,269.6642,687.8204,268.2528,695.84,273.97" style="stroke:#181818;stroke-width:1;stroke-linejoin:miter;stroke-miterlimit:10;"/><text fill="#000000" font-family="sans-serif" font-size="13" lengthAdjust="spacing" textLength="209.5806" x="678.5" y="240.4951">obtenerSesionActual(authentication)</text></g><!--link EntregableService to EntregableRepository--><g class="link" data-entity-1="ent0005" data-entity-2="ent0007" data-link-type="dependency" data-source-line="24" id="lnk18"><path d="M357.84,312.01 C312.73,325.63 258.5,342 258.5,342 C258.5,342 258.5,360 258.5,360 C258.5,360 286.1071,374.0959 312.7771,387.7159" fill="none" id="EntregableService-to-EntregableRepository" style="stroke:#181818;stroke-width:1;"/><polygon fill="#181818" points="317.23,389.99,311.034,382.3343,312.7771,387.7159,307.3955,389.4591,317.23,389.99" style="stroke:#181818;stroke-width:1;stroke-linejoin:miter;stroke-miterlimit:10;"/><text fill="#000000" font-family="sans-serif" font-size="13" lengthAdjust="spacing" textLength="129.3398" x="259.5" y="356.4951">obtenerActivoPorId(id)</text></g><!--link EntregableService to EntregableRepository--><g class="link" data-entity-1="ent0005" data-entity-2="ent0007" data-link-type="dependency" data-source-line="25" id="lnk19"><path d="M410.94,312.03 C403.84,331.58 393.5,360 393.5,360 C393.5,360 382.8577,372.4584 371.2477,386.0484" fill="none" id="EntregableService-to-EntregableRepository-1" style="stroke:#181818;stroke-width:1;"/><polygon fill="#181818" points="368,389.85,376.8872,385.6053,371.2477,386.0484,370.8046,380.4089,368,389.85" style="stroke:#181818;stroke-width:1;stroke-linejoin:miter;stroke-miterlimit:10;"/><text fill="#000000" font-family="sans-serif" font-size="13" lengthAdjust="spacing" textLength="106.9453" x="400.5" y="356.4951">actualizar(entidad)</text></g><!--link EntregableService to ArchivoRepository--><g class="link" data-entity-1="ent0005" data-entity-2="ent0008" data-link-type="dependency" data-source-line="26" id="lnk20"><path d="M454.27,312.01 C482.08,325.63 515.5,342 515.5,342 C515.5,342 539.9819,366.8572 559.2319,386.4072" fill="none" id="EntregableService-to-ArchivoRepository" style="stroke:#181818;stroke-width:1;"/><polygon fill="#181818" points="562.74,389.97,559.2756,380.7506,559.2319,386.4072,553.5752,386.3635,562.74,389.97" style="stroke:#181818;stroke-width:1;stroke-linejoin:miter;stroke-miterlimit:10;"/><text fill="#000000" font-family="sans-serif" font-size="13" lengthAdjust="spacing" textLength="335.3022" x="533.5" y="356.4951">agregarVersionOpcional(entregable, archivo, coordinador)</text></g><!--link EntregableRepository to Entregable--><g class="link" data-entity-1="ent0007" data-entity-2="ent0009" data-link-type="association" data-source-line="27" id="lnk21"><path d="M352.5,428.24 C352.5,445.59 352.5,471.52 352.5,488.84" fill="none" id="EntregableRepository-Entregable" style="stroke:#181818;stroke-width:1;"/></g><!--link ArchivoRepository to ArchivoAdjunto--><g class="link" data-entity-1="ent0008" data-entity-2="ent0010" data-link-type="association" data-source-line="28" id="lnk22"><path d="M580.5,428.24 C580.5,445.59 580.5,471.52 580.5,488.84" fill="none" id="ArchivoRepository-ArchivoAdjunto" style="stroke:#181818;stroke-width:1;"/></g><!--link EditarEntregableView to EstadoSalida--><g class="link" data-entity-1="ent0003" data-entity-2="ent0011" data-link-type="dependency" data-source-line="29" id="lnk23"><path d="M872.01,80.15 C896.37,93.74 925.5,110 925.5,110 C925.5,110 971.9566,135.9785 1006.8966,155.5285" fill="none" id="EditarEntregableView-to-EstadoSalida" style="stroke:#181818;stroke-width:1;stroke-dasharray:7,7;"/><polygon fill="#181818" points="1011.26,157.97,1005.359,150.0847,1006.8966,155.5285,1001.4527,157.0661,1011.26,157.97" style="stroke:#181818;stroke-width:1;stroke-linejoin:miter;stroke-miterlimit:10;"/><text fill="#000000" font-family="sans-serif" font-size="13" lengthAdjust="spacing" textLength="130.7935" x="957.5" y="124.4951">continuarNavegacion()</text></g><!--link EditarEntregableView to EliminarEntregable--><g class="link" data-entity-1="ent0003" data-entity-2="ent0012" data-link-type="dependency" data-source-line="30" id="lnk24"><path d="M917.31,76.53 C992.95,90.66 1096.5,110 1096.5,110 C1096.5,110 1173.6071,136.7785 1229.8571,156.3285" fill="none" id="EditarEntregableView-to-EliminarEntregable" style="stroke:#181818;stroke-width:1;stroke-dasharray:7,7;"/><polygon fill="#181818" points="1234.58,157.97,1227.392,151.2371,1229.8571,156.3285,1224.7656,158.7937,1234.58,157.97" style="stroke:#181818;stroke-width:1;stroke-linejoin:miter;stroke-miterlimit:10;"/><text fill="#000000" font-family="sans-serif" font-size="13" lengthAdjust="spacing" textLength="117.0508" x="1147.5" y="124.4951">eliminarEntregable()</text></g><!--link EditarEntregableView to AbrirEntregables--><g class="link" data-entity-1="ent0003" data-entity-2="ent0013" data-link-type="dependency" data-source-line="31" id="lnk25"><path d="M917.09,70.58 C1041.92,84.39 1273.5,110 1273.5,110 C1273.5,110 1384.9231,137.2322 1464.8631,156.7822" fill="none" id="EditarEntregableView-to-AbrirEntregables" style="stroke:#181818;stroke-width:1;stroke-dasharray:7,7;"/><polygon fill="#181818" points="1469.72,157.97,1461.9279,151.9465,1464.8631,156.7822,1460.0274,159.7175,1469.72,157.97" style="stroke:#181818;stroke-width:1;stroke-linejoin:miter;stroke-miterlimit:10;"/><text fill="#000000" font-family="sans-serif" font-size="13" lengthAdjust="spacing" textLength="104.0444" x="1346.5" y="124.4951">abrirEntregables()</text></g><?plantuml-src dPDDJ-D038Rl-HLMkO3KSa0BWXnOfTrXXOG0jOWhScQiCaiw4pdJekwA_uxJLcsQ3rZe8MgSru_7djV5YtKvCiuWiux2CYV8VROiNwA8IGTqqupWOFHB3PDJwCNgzc6iVYV36_MK3A_L-E6k1rY0AW8QhrnWD1Zbg5zmIa361kGoIbDCXIFANZruUDI3Vn78hrBlxEH2NLs0gcaVBRtMfUbfQixEOISQUVdhiupuK-c4U64rTUWcL5ZlEZHN9ydeXwgmnfJxmWRFomvfmlhPBlodkXtoOr1Y_inTyD7RDsvgWfcLYshB6ydeCFMCGPe7bTcPTTKxM5CQuVzW9IdRIaQn8jM3KRJd9HZmuBBL1p4qdIJ9BKeOc9BHOf0MXZLzC1XyqGTSp_bd7xJtRAHVu_aeQWF1OA_2nZCne0vp6VLVv1LOuoortq7lMJ46dmPonEjeigfnYFFmJ2vOlHfsbRL9gvrnvyCjJqXog7lFrqQE-pL4fTFo50Oxynjx8CdJKiUFn6L3TxcMfxH4s_pjn3e7jiD9aUeEDSgLtsihrEgQu-FBlMs9fRHqvkR8jxWGONbAyLntScD9n6-Ds4U4-dB8f6eHoNu7?></g></svg>