<?xml version="1.0" encoding="us-ascii" standalone="no"?><svg xmlns="http://www.w3.org/2000/svg" xmlns:xlink="http://www.w3.org/1999/xlink" contentStyleType="text/css" height="434px" preserveAspectRatio="none" style="width:1284px;height:434px;background:#FFFFFF;" version="1.1" viewBox="0 0 1284 434" width="1284px" zoomAndPan="magnify"><defs/><g><!--cluster editarEntregable--><g id="cluster_editarEntregable"><path d="M209.5,6 L338.5,6 A3.75,3.75 0 0 1 341,8.5 L348,29.6094 L555.5,29.6094 A2.5,2.5 0 0 1 558,32.1094 L558,424.5 A2.5,2.5 0 0 1 555.5,427 L209.5,427 A2.5,2.5 0 0 1 207,424.5 L207,8.5 A2.5,2.5 0 0 1 209.5,6 " fill="none" style="stroke:#000000;stroke-width:1.5;"/><line style="stroke:#000000;stroke-width:1.5;" x1="207" x2="348" y1="29.6094" y2="29.6094"/><text fill="#000000" font-family="sans-serif" font-size="14" font-weight="bold" lengthAdjust="spacing" textLength="128" x="211" y="22.5332">editarEntregable()</text></g><!--entity EditarEntregableView--><g id="elem_EditarEntregableView"><rect fill="#629EF9" height="37.6094" rx="2.5" ry="2.5" style="stroke:#181818;stroke-width:0.5;" width="155" x="386.5" y="42"/><text fill="#000000" font-family="sans-serif" font-size="14" lengthAdjust="spacing" textLength="135" x="396.5" y="66.5332">EditarEntregableView</text></g><!--entity EntregableController--><g id="elem_EntregableController"><rect fill="#B5BD68" height="37.6094" rx="2.5" ry="2.5" style="stroke:#181818;stroke-width:0.5;" width="151" x="223.5" y="158"/><text fill="#000000" font-family="sans-serif" font-size="14" lengthAdjust="spacing" textLength="131" x="233.5" y="182.5332">EntregableController</text></g><!--entity EntregableRepository--><g id="elem_EntregableRepository"><rect fill="#F2AC4E" height="37.6094" rx="2.5" ry="2.5" style="stroke:#181818;stroke-width:0.5;" width="157" x="287.5" y="274"/><text fill="#000000" font-family="sans-serif" font-size="14" lengthAdjust="spacing" textLength="137" x="297.5" y="298.5332">EntregableRepository</text></g><!--entity Entregable--><g id="elem_Entregable"><rect fill="#F2AC4E" height="37.6094" rx="2.5" ry="2.5" style="stroke:#181818;stroke-width:0.5;" width="89" x="321.5" y="373"/><text fill="#000000" font-family="sans-serif" font-size="14" lengthAdjust="spacing" textLength="69" x="331.5" y="397.5332">Entregable</text></g><!--entity EstadoEntrada--><g id="elem_EstadoEntrada"><rect fill="#CDEBA5" height="37.6094" rx="2.5" ry="2.5" style="stroke:#181818;stroke-width:0.5;" width="184" x="7" y="42"/><text fill="#000000" font-family="sans-serif" font-size="14" lengthAdjust="spacing" textLength="164" x="17" y="66.5332">:ENTREGABLE_ABIERTO</text></g><!--entity EstadoSalida--><g id="elem_EstadoSalida"><rect fill="#CDEBA5" height="37.6094" rx="2.5" ry="2.5" style="stroke:#181818;stroke-width:0.5;" width="184" x="574" y="158"/><text fill="#000000" font-family="sans-serif" font-size="14" lengthAdjust="spacing" textLength="164" x="584" y="182.5332">:ENTREGABLE_ABIERTO</text></g><!--entity EliminarEntregable--><g id="elem_EliminarEntregable"><rect fill="#CDEBA5" height="37.6094" rx="2.5" ry="2.5" style="stroke:#181818;stroke-width:0.5;" width="231" x="793.5" y="158"/><text fill="#000000" font-family="sans-serif" font-size="14" lengthAdjust="spacing" textLength="211" x="803.5" y="182.5332">:Collaboration EliminarEntregable</text></g><!--entity AbrirEntregables--><g id="elem_AbrirEntregables"><rect fill="#CDEBA5" height="37.6094" rx="2.5" ry="2.5" style="stroke:#181818;stroke-width:0.5;" width="218" x="1060" y="158"/><text fill="#000000" font-family="sans-serif" font-size="14" lengthAdjust="spacing" textLength="198" x="1070" y="182.5332">:Collaboration AbrirEntregables</text></g><!--link EstadoEntrada to EditarEntregableView--><g id="link_EstadoEntrada_EditarEntregableView"><path d="M191.1,61 C251.4,61 323.3,61 380.43,61 " fill="none" id="EstadoEntrada-to-EditarEntregableView" style="stroke:#181818;stroke-width:1.0;"/><polygon fill="#181818" points="386.43,61,377.43,57,381.43,61,377.43,65,386.43,61" style="stroke:#181818;stroke-width:1.0;"/><text fill="#000000" font-family="sans-serif" font-size="13" lengthAdjust="spacing" textLength="102" x="237.75" y="54.4951">editarEntregable()</text></g><!--link EditarEntregableView to EntregableController--><g id="link_EditarEntregableView_EntregableController"><path d="M417.1,80.01 C381.63,93.63 339,110 339,110 C339,110 324.8782,133.2878 313.0382,152.8378 " fill="none" id="EditarEntregableView-to-EntregableController" style="stroke:#181818;stroke-width:1.0;"/><polygon fill="#181818" points="309.93,157.97,318.0137,152.3439,312.5202,153.6932,311.1708,148.1996,309.93,157.97" style="stroke:#181818;stroke-width:1.0;"/><text fill="#000000" font-family="sans-serif" font-size="13" lengthAdjust="spacing" textLength="282" x="340" y="124.4951">editarEntregable(id, datos, archivo?, coordinador)</text></g><!--link EntregableController to EntregableRepository--><g id="link_EntregableController_EntregableRepository"><path d="M283.88,196.15 C272.55,209.74 259,226 259,226 C259,226 259,244 259,244 C259,244 290.0156,257.9141 320.3756,271.5341 " fill="none" id="EntregableController-to-EntregableRepository" style="stroke:#181818;stroke-width:1.0;"/><polygon fill="#181818" points="325.85,273.99,319.2757,266.6566,321.288,271.9434,316.0012,273.9557,325.85,273.99" style="stroke:#181818;stroke-width:1.0;"/><text fill="#000000" font-family="sans-serif" font-size="13" lengthAdjust="spacing" textLength="126" x="260" y="240.4951">obtenerActivoPorId(id)</text></g><!--link EntregableController to EntregableRepository--><g id="link_EntregableController_EntregableRepository"><path d="M333.52,196.01 C359.62,209.63 391,226 391,226 C391,226 391,244 391,244 C391,244 385.3022,254.9388 378.2222,268.5288 " fill="none" id="EntregableController-to-EntregableRepository-1" style="stroke:#181818;stroke-width:1.0;"/><polygon fill="#181818" points="375.45,273.85,383.1557,267.7163,377.7602,269.4157,376.0608,264.0201,375.45,273.85" style="stroke:#181818;stroke-width:1.0;"/><text fill="#000000" font-family="sans-serif" font-size="13" lengthAdjust="spacing" textLength="106" x="392" y="240.4951">actualizar(entidad)</text></g><!--link EntregableRepository to Entregable--><g id="link_EntregableRepository_Entregable"><path d="M366,312.24 C366,329.59 366,355.52 366,372.84 " fill="none" id="EntregableRepository-Entregable" style="stroke:#181818;stroke-width:1.0;"/></g><!--link EditarEntregableView to EstadoSalida--><g id="link_EditarEntregableView_EstadoSalida"><path d="M525.16,80.01 C571.41,93.63 627,110 627,110 C627,110 640.75,133.253 652.29,152.803 " fill="none" id="EditarEntregableView-to-EstadoSalida" style="stroke:#181818;stroke-width:1.0;stroke-dasharray:7.0,7.0;"/><polygon fill="#181818" points="655.34,157.97,654.2097,148.1862,652.7984,153.6642,647.3204,152.2528,655.34,157.97" style="stroke:#181818;stroke-width:1.0;"/><text fill="#000000" font-family="sans-serif" font-size="13" lengthAdjust="spacing" textLength="127" x="638" y="124.4951">continuarNavegacion()</text></g><!--link EditarEntregableView to EliminarEntregable--><g id="link_EditarEntregableView_EliminarEntregable"><path d="M541.83,74.05 C633.65,88.27 774,110 774,110 C774,110 826.7502,135.7837 866.7202,155.3337 " fill="none" id="EditarEntregableView-to-EliminarEntregable" style="stroke:#181818;stroke-width:1.0;stroke-dasharray:7.0,7.0;"/><polygon fill="#181818" points="872.11,157.97,865.7828,150.4224,867.6185,155.7731,862.2678,157.6088,872.11,157.97" style="stroke:#181818;stroke-width:1.0;"/><text fill="#000000" font-family="sans-serif" font-size="13" lengthAdjust="spacing" textLength="115" x="811" y="124.4951">eliminarEntregable()</text></g><!--link EditarEntregableView to AbrirEntregables--><g id="link_EditarEntregableView_AbrirEntregables"><path d="M541.51,69.9 C675.21,83.52 935,110 935,110 C935,110 1030.0055,136.7905 1099.2855,156.3405 " fill="none" id="EditarEntregableView-to-AbrirEntregables" style="stroke:#181818;stroke-width:1.0;stroke-dasharray:7.0,7.0;"/><polygon fill="#181818" points="1105.06,157.97,1097.4846,151.6761,1100.2479,156.6121,1095.3119,159.3754,1105.06,157.97" style="stroke:#181818;stroke-width:1.0;"/><text fill="#000000" font-family="sans-serif" font-size="13" lengthAdjust="spacing" textLength="102" x="998" y="124.4951">abrirEntregables()</text></g><!--SRC=[dPBDJy904CNl_IiczG89vK24I0-OKXT3Oj0WyMgctGrkABlDTC6WyNztq0FzyhEdzkNDRpllRR7H9aV2BMJQA7V85UGsEnm_F8zKwj2iCmLdyPMOHaFmGx5OBSLrDBqHZz5qBfQhMn-m054ub5OOHoZHop7Tu5g1ajeX7LMrneGvxFJhOgVhmwi7_9JE6mt6OZO6KVC-QFLSjoR3H8uku6IABR_QB5DKjyu6KNmkIjQbocsXdQN3ZrRlxH-1t6EcEO-skPZ_41DBwBGr83AzrQQywYUb8V-25IMaInF51wakUbwbCWWecBJ67KApC1vkSK8WZuoM7beOMlP0ehD53v3I9xstbpr8hIN9-qfBNQyD147bX5Dz8TZ4AQCeIXspxYpD9P_nPmgcRiUTlI1rb77SNGLnSZAYV3TQu-Zt9vLh4F9-p3Gxf0NksPXoMnpcryEDzZd8XlOTeTuwBrXJUFeT]--></g></svg>