<?xml version="1.0" encoding="us-ascii" standalone="no"?><svg xmlns="http://www.w3.org/2000/svg" xmlns:xlink="http://www.w3.org/1999/xlink" contentStyleType="text/css" height="434px" preserveAspectRatio="none" style="width:1647px;height:434px;background:#FFFFFF;" version="1.1" viewBox="0 0 1647 434" width="1647px" zoomAndPan="magnify"><defs/><g><!--cluster editarEntregable--><g id="cluster_editarEntregable"><path d="M209.5,6 L338.5,6 A3.75,3.75 0 0 1 341,8.5 L348,29.6094 L918.5,29.6094 A2.5,2.5 0 0 1 921,32.1094 L921,424.5 A2.5,2.5 0 0 1 918.5,427 L209.5,427 A2.5,2.5 0 0 1 207,424.5 L207,8.5 A2.5,2.5 0 0 1 209.5,6 " fill="none" style="stroke:#000000;stroke-width:1.5;"/><line style="stroke:#000000;stroke-width:1.5;" x1="207" x2="348" y1="29.6094" y2="29.6094"/><text fill="#000000" font-family="sans-serif" font-size="14" font-weight="bold" lengthAdjust="spacing" textLength="128" x="211" y="22.5332">editarEntregable()</text></g><!--entity EditarEntregableView--><g id="elem_EditarEntregableView"><rect fill="#629EF9" height="37.6094" rx="2.5" ry="2.5" style="stroke:#181818;stroke-width:0.5;" width="155" x="749.5" y="42"/><text fill="#000000" font-family="sans-serif" font-size="14" lengthAdjust="spacing" textLength="135" x="759.5" y="66.5332">EditarEntregableView</text></g><!--entity EntregableController--><g id="elem_EntregableController"><rect fill="#B5BD68" height="37.6094" rx="2.5" ry="2.5" style="stroke:#181818;stroke-width:0.5;" width="151" x="424.5" y="158"/><text fill="#000000" font-family="sans-serif" font-size="14" lengthAdjust="spacing" textLength="131" x="434.5" y="182.5332">EntregableController</text></g><!--entity EntregableRepository--><g id="elem_EntregableRepository"><rect fill="#F2AC4E" height="37.6094" rx="2.5" ry="2.5" style="stroke:#181818;stroke-width:0.5;" width="157" x="269.5" y="274"/><text fill="#000000" font-family="sans-serif" font-size="14" lengthAdjust="spacing" textLength="137" x="279.5" y="298.5332">EntregableRepository</text></g><!--entity ArchivoRepository--><g id="elem_ArchivoRepository"><rect fill="#F2AC4E" height="37.6094" rx="2.5" ry="2.5" style="stroke:#181818;stroke-width:0.5;" width="135" x="506.5" y="274"/><text fill="#000000" font-family="sans-serif" font-size="14" lengthAdjust="spacing" textLength="115" x="516.5" y="298.5332">ArchivoRepository</text></g><!--entity Entregable--><g id="elem_Entregable"><rect fill="#F2AC4E" height="37.6094" rx="2.5" ry="2.5" style="stroke:#181818;stroke-width:0.5;" width="89" x="303.5" y="373"/><text fill="#000000" font-family="sans-serif" font-size="14" lengthAdjust="spacing" textLength="69" x="313.5" y="397.5332">Entregable</text></g><!--entity ArchivoAdjunto--><g id="elem_ArchivoAdjunto"><rect fill="#F2AC4E" height="37.6094" rx="2.5" ry="2.5" style="stroke:#181818;stroke-width:0.5;" width="115" x="516.5" y="373"/><text fill="#000000" font-family="sans-serif" font-size="14" lengthAdjust="spacing" textLength="95" x="526.5" y="397.5332">ArchivoAdjunto</text></g><!--entity EstadoEntrada--><g id="elem_EstadoEntrada"><rect fill="#CDEBA5" height="37.6094" rx="2.5" ry="2.5" style="stroke:#181818;stroke-width:0.5;" width="184" x="7" y="42"/><text fill="#000000" font-family="sans-serif" font-size="14" lengthAdjust="spacing" textLength="164" x="17" y="66.5332">:ENTREGABLE_ABIERTO</text></g><!--entity EstadoSalida--><g id="elem_EstadoSalida"><rect fill="#CDEBA5" height="37.6094" rx="2.5" ry="2.5" style="stroke:#181818;stroke-width:0.5;" width="184" x="937" y="158"/><text fill="#000000" font-family="sans-serif" font-size="14" lengthAdjust="spacing" textLength="164" x="947" y="182.5332">:ENTREGABLE_ABIERTO</text></g><!--entity EliminarEntregable--><g id="elem_EliminarEntregable"><rect fill="#CDEBA5" height="37.6094" rx="2.5" ry="2.5" style="stroke:#181818;stroke-width:0.5;" width="231" x="1156.5" y="158"/><text fill="#000000" font-family="sans-serif" font-size="14" lengthAdjust="spacing" textLength="211" x="1166.5" y="182.5332">:Collaboration EliminarEntregable</text></g><!--entity AbrirEntregables--><g id="elem_AbrirEntregables"><rect fill="#CDEBA5" height="37.6094" rx="2.5" ry="2.5" style="stroke:#181818;stroke-width:0.5;" width="218" x="1423" y="158"/><text fill="#000000" font-family="sans-serif" font-size="14" lengthAdjust="spacing" textLength="198" x="1433" y="182.5332">:Collaboration AbrirEntregables</text></g><!--link EstadoEntrada to EditarEntregableView--><g id="link_EstadoEntrada_EditarEntregableView"><path d="M191.2,61 C336.02,61 608.19,61 743.4,61 " fill="none" id="EstadoEntrada-to-EditarEntregableView" style="stroke:#181818;stroke-width:1.0;"/><polygon fill="#181818" points="749.4,61,740.4,57,744.4,61,740.4,65,749.4,61" style="stroke:#181818;stroke-width:1.0;"/><text fill="#000000" font-family="sans-serif" font-size="13" lengthAdjust="spacing" textLength="102" x="419.25" y="54.4951">editarEntregable()</text></g><!--link EditarEntregableView to EntregableController--><g id="link_EditarEntregableView_EntregableController"><path d="M750.46,80.01 C692.57,93.63 623,110 623,110 C623,110 575.3165,135.5822 538.8965,155.1322 " fill="none" id="EditarEntregableView-to-EntregableController" style="stroke:#181818;stroke-width:1.0;"/><polygon fill="#181818" points="533.61,157.97,543.4316,157.2377,538.0154,155.6052,539.6479,150.189,533.61,157.97" style="stroke:#181818;stroke-width:1.0;"/><text fill="#000000" font-family="sans-serif" font-size="13" lengthAdjust="spacing" textLength="282" x="624" y="124.4951">editarEntregable(id, datos, archivo?, coordinador)</text></g><!--link EntregableController to EntregableRepository--><g id="link_EntregableController_EntregableRepository"><path d="M424.49,192.79 C352.51,206.9 255,226 255,226 C255,226 255,244 255,244 C255,244 281.3882,257.6182 307.7782,271.2382 " fill="none" id="EntregableController-to-EntregableRepository" style="stroke:#181818;stroke-width:1.0;"/><polygon fill="#181818" points="313.11,273.99,306.9468,266.3079,308.6669,271.6969,303.2778,273.4169,313.11,273.99" style="stroke:#181818;stroke-width:1.0;"/><text fill="#000000" font-family="sans-serif" font-size="13" lengthAdjust="spacing" textLength="126" x="256" y="240.4951">obtenerActivoPorId(id)</text></g><!--link EntregableController to EntregableRepository--><g id="link_EntregableController_EntregableRepository"><path d="M469.38,196.15 C446.44,209.74 419,226 419,226 C419,226 392.8135,250.3338 371.7935,269.8838 " fill="none" id="EntregableController-to-EntregableRepository-1" style="stroke:#181818;stroke-width:1.0;"/><polygon fill="#181818" points="367.4,273.97,376.7144,270.7696,371.0612,270.5648,371.2661,264.9117,367.4,273.97" style="stroke:#181818;stroke-width:1.0;"/><text fill="#000000" font-family="sans-serif" font-size="13" lengthAdjust="spacing" textLength="106" x="420" y="240.4951">actualizar(entidad)</text></g><!--link EntregableController to ArchivoRepository--><g id="link_EntregableController_ArchivoRepository"><path d="M513.23,196.15 C523.14,209.74 535,226 535,226 C535,226 548.75,249.253 560.29,268.803 " fill="none" id="EntregableController-to-ArchivoRepository" style="stroke:#181818;stroke-width:1.0;"/><polygon fill="#181818" points="563.34,273.97,562.2097,264.1862,560.7984,269.6642,555.3204,268.2528,563.34,273.97" style="stroke:#181818;stroke-width:1.0;"/><text fill="#000000" font-family="sans-serif" font-size="13" lengthAdjust="spacing" textLength="329" x="546" y="240.4951">agregarVersionOpcional(entregable, archivo, coordinador)</text></g><!--link EntregableRepository to Entregable--><g id="link_EntregableRepository_Entregable"><path d="M348,312.24 C348,329.59 348,355.52 348,372.84 " fill="none" id="EntregableRepository-Entregable" style="stroke:#181818;stroke-width:1.0;"/></g><!--link ArchivoRepository to ArchivoAdjunto--><g id="link_ArchivoRepository_ArchivoAdjunto"><path d="M574,312.24 C574,329.59 574,355.52 574,372.84 " fill="none" id="ArchivoRepository-ArchivoAdjunto" style="stroke:#181818;stroke-width:1.0;"/></g><!--link EditarEntregableView to EstadoSalida--><g id="link_EditarEntregableView_EstadoSalida"><path d="M859.01,80.06 C896.72,101.35 953.7949,133.5508 991.5849,154.8808 " fill="none" id="EditarEntregableView-to-EstadoSalida" style="stroke:#181818;stroke-width:1.0;stroke-dasharray:7.0,7.0;"/><polygon fill="#181818" points="996.81,157.83,990.9385,149.9227,992.4557,155.3723,987.0061,156.8896,996.81,157.83" style="stroke:#181818;stroke-width:1.0;"/><text fill="#000000" font-family="sans-serif" font-size="13" lengthAdjust="spacing" textLength="127" x="941" y="124.4951">continuarNavegacion()</text></g><!--link EditarEntregableView to EliminarEntregable--><g id="link_EditarEntregableView_EliminarEntregable"><path d="M904.73,76.92 C978.12,91.01 1077,110 1077,110 C1077,110 1155.2969,136.4958 1213.0369,156.0458 " fill="none" id="EditarEntregableView-to-EliminarEntregable" style="stroke:#181818;stroke-width:1.0;stroke-dasharray:7.0,7.0;"/><polygon fill="#181818" points="1218.72,157.97,1211.4782,151.295,1213.9841,156.3665,1208.9126,158.8724,1218.72,157.97" style="stroke:#181818;stroke-width:1.0;"/><text fill="#000000" font-family="sans-serif" font-size="13" lengthAdjust="spacing" textLength="115" x="1130" y="124.4951">eliminarEntregable()</text></g><!--link EditarEntregableView to AbrirEntregables--><g id="link_EditarEntregableView_AbrirEntregables"><path d="M904.82,70.75 C1027.98,84.59 1254,110 1254,110 C1254,110 1367.8824,137.0336 1450.2024,156.5836 " fill="none" id="EditarEntregableView-to-AbrirEntregables" style="stroke:#181818;stroke-width:1.0;stroke-dasharray:7.0,7.0;"/><polygon fill="#181818" points="1456.04,157.97,1448.2078,151.9987,1451.1753,156.8147,1446.3593,159.7822,1456.04,157.97" style="stroke:#181818;stroke-width:1.0;"/><text fill="#000000" font-family="sans-serif" font-size="13" lengthAdjust="spacing" textLength="102" x="1329" y="124.4951">abrirEntregables()</text></g><!--SRC=[dP9DJy9048Rl_HKJl40278WGuO0fk1WI0mO9LpFjRd2bx3RJ1OF6_-vKZ9Isu4SFctRsdMSwyqwoqYP6mZL4sYYtYnN4Djgb7vv7AdHebf62Y-6D6FXjgFJ4P3uJj_xWJZpwWx6OpQSLm0H4ub1QOHoXH2_6S8LB1KfgXvH6rH83vh2oaWzMQnLuyu2VJBrEgoj6NH0vxKAhbxmqQ0UoSmK7qT3oguqYHNdfgEKFBqL6EbEnJRIpj3iXzIbyqblxe-w0F0_ovVF6EEkz_sEw3nXf7cvPtf3RnS0IEcqDY4YljSdERKyfX7_1yWFIcOpaavGFUjwH_z2WHh_KknuKtUVa4YKqPCeeCRM4eMKT93gRr07tSxwkGsWjIUvNMgfvPI1e75KuUDm36pXb5FcXOzQzfR7a6d-cOEWsxDahKbKPnzwTGnGsZVENgPGMYXAsOXg7V6AKihuGt-sUxFQ0uoBPBIsKI-zpIrhgIxFPFzh77fVcvim6QO9R5gP_oQwUJYwi8JjQY9qZvDUF9vMBSFO7]--></g></svg>