<svg xmlns="http://www.w3.org/2000/svg" xmlns:xlink="http://www.w3.org/1999/xlink" contentStyleType="text/css" data-diagram-type="DESCRIPTION" height="442px" preserveAspectRatio="none" style="width:1864px;height:442px;background:#FFFFFF;" version="1.1" viewBox="0 0 1864 442" width="1864px" zoomAndPan="magnify"><?plantuml 1.2026.4?><defs/><g><!--cluster abrirSolicitudEliminacionPerfil--><g class="cluster" data-qualified-name="abrirSolicitudEliminacionPerfil" data-source-line="4" id="ent0002"><path d="M375.5,6 L589.6445,6 A3.75,3.75 0 0 1 592.1445,8.5 L599.1445,29.6094 L935.5,29.6094 A2.5,2.5 0 0 1 938,32.1094 L938,424.5 A2.5,2.5 0 0 1 935.5,427 L375.5,427 A2.5,2.5 0 0 1 373,424.5 L373,8.5 A2.5,2.5 0 0 1 375.5,6" fill="none" style="stroke:#000000;stroke-width:1.5;"/><line style="stroke:#000000;stroke-width:1.5;" x1="373" x2="599.1445" y1="29.6094" y2="29.6094"/><text fill="#000000" font-family="sans-serif" font-size="14" font-weight="700" lengthAdjust="spacing" textLength="213.1445" x="377" y="22.5332">abrirSolicitudEliminacionPerfil()</text></g><!--entity DetalleSolicitudEliminacionPerfilView--><g class="entity" data-qualified-name="abrirSolicitudEliminacionPerfil.DetalleSolicitudEliminacionPerfilView" data-source-line="5" id="ent0003"><rect fill="#629EF9" height="37.6094" rx="2.5" ry="2.5" style="stroke:#181818;stroke-width:0.5;" width="250.3232" x="622" y="42"/><text fill="#000000" font-family="sans-serif" font-size="14" lengthAdjust="spacing" textLength="230.3232" x="632" y="66.5332">DetalleSolicitudEliminacionPerfilView</text></g><!--entity SolicitudEliminacionPerfilController--><g class="entity" data-qualified-name="abrirSolicitudEliminacionPerfil.SolicitudEliminacionPerfilController" data-source-line="6" id="ent0004"><rect fill="#B5BD68" height="37.6094" rx="2.5" ry="2.5" style="stroke:#181818;stroke-width:0.5;" width="237.0889" x="414.5" y="158"/><text fill="#000000" font-family="sans-serif" font-size="14" lengthAdjust="spacing" textLength="217.0889" x="424.5" y="182.5332">SolicitudEliminacionPerfilController</text></g><!--entity SolicitudEliminacionPerfilRepository--><g class="entity" data-qualified-name="abrirSolicitudEliminacionPerfil.SolicitudEliminacionPerfilRepository" data-source-line="7" id="ent0005"><rect fill="#F2AC4E" height="37.6094" rx="2.5" ry="2.5" style="stroke:#181818;stroke-width:0.5;" width="243.3164" x="434.5" y="274"/><text fill="#000000" font-family="sans-serif" font-size="14" lengthAdjust="spacing" textLength="223.3164" x="444.5" y="298.5332">SolicitudEliminacionPerfilRepository</text></g><!--entity SolicitudEliminacionPerfil--><g class="entity" data-qualified-name="abrirSolicitudEliminacionPerfil.SolicitudEliminacionPerfil" data-source-line="8" id="ent0006"><rect fill="#F2AC4E" height="37.6094" rx="2.5" ry="2.5" style="stroke:#181818;stroke-width:0.5;" width="176.3994" x="468" y="373"/><text fill="#000000" font-family="sans-serif" font-size="14" lengthAdjust="spacing" textLength="156.3994" x="478" y="397.5332">SolicitudEliminacionPerfil</text></g><!--entity EstadoEntrada--><g class="entity" data-qualified-name="EstadoEntrada" data-source-line="3" id="ent0001"><rect fill="#CDEBA5" height="37.6094" rx="2.5" ry="2.5" style="stroke:#181818;stroke-width:0.5;" width="349.8682" x="7" y="42"/><text fill="#000000" font-family="sans-serif" font-size="14" lengthAdjust="spacing" textLength="329.8682" x="17" y="66.5332">:SOLICITUDES_ELIMINACION_PERFIL_ABIERTAS</text></g><!--entity EstadoSalida--><g class="entity" data-qualified-name="EstadoSalida" data-source-line="11" id="ent0007"><rect fill="#CDEBA5" height="37.6094" rx="2.5" ry="2.5" style="stroke:#181818;stroke-width:0.5;" width="321.8545" x="954" y="158"/><text fill="#000000" font-family="sans-serif" font-size="14" lengthAdjust="spacing" textLength="301.8545" x="964" y="182.5332">:SOLICITUD_ELIMINACION_PERFIL_ABIERTA</text></g><!--entity AbrirSolicitudesEliminacionPerfil--><g class="entity" data-qualified-name="AbrirSolicitudesEliminacionPerfil" data-source-line="12" id="ent0008"><rect fill="#CDEBA5" height="37.6094" rx="2.5" ry="2.5" style="stroke:#181818;stroke-width:0.5;" width="311.0195" x="1311.5" y="158"/><text fill="#000000" font-family="sans-serif" font-size="14" lengthAdjust="spacing" textLength="291.0195" x="1321.5" y="182.5332">:Collaboration AbrirSolicitudesEliminacionPerfil</text></g><!--entity EliminarPerfil--><g class="entity" data-qualified-name="EliminarPerfil" data-source-line="13" id="ent0009"><rect fill="#CDEBA5" height="37.6094" rx="2.5" ry="2.5" style="stroke:#181818;stroke-width:0.5;" width="192.7373" x="1657.5" y="158"/><text fill="#000000" font-family="sans-serif" font-size="14" lengthAdjust="spacing" textLength="172.7373" x="1667.5" y="182.5332">:Collaboration EliminarPerfil</text></g><!--link EstadoEntrada to DetalleSolicitudEliminacionPerfilView--><g class="link" data-entity-1="ent0001" data-entity-2="ent0003" data-link-type="dependency" data-source-line="15" id="lnk10"><path d="M357.29,61 C442.99,61 539.15,61 616.92,61" fill="none" id="EstadoEntrada-to-DetalleSolicitudEliminacionPerfilView" style="stroke:#181818;stroke-width:1;"/><polygon fill="#181818" points="621.92,61,612.92,57,616.92,61,612.92,65,621.92,61" style="stroke:#181818;stroke-width:1;stroke-linejoin:miter;stroke-miterlimit:10;"/><text fill="#000000" font-family="sans-serif" font-size="13" lengthAdjust="spacing" textLength="179.8926" x="400" y="54.4951">abrirSolicitudEliminacionPerfil()</text></g><!--link DetalleSolicitudEliminacionPerfilView to SolicitudEliminacionPerfilController--><g class="link" data-entity-1="ent0003" data-entity-2="ent0004" data-link-type="dependency" data-source-line="17" id="lnk11"><path d="M624.68,80.01 C532.18,93.63 421,110 421,110 C421,110 421,128 421,128 C421,128 454.6043,142.4004 486.3843,156.0204" fill="none" id="DetalleSolicitudEliminacionPerfilView-to-SolicitudEliminacionPerfilController" style="stroke:#181818;stroke-width:1;"/><polygon fill="#181818" points="490.98,157.99,484.2834,150.7681,486.3843,156.0204,481.132,158.1213,490.98,157.99" style="stroke:#181818;stroke-width:1;stroke-linejoin:miter;stroke-miterlimit:10;"/><text fill="#000000" font-family="sans-serif" font-size="13" lengthAdjust="spacing" textLength="208.0952" x="422" y="124.4951">obtenerSolicitudEliminacionPerfil(id)</text></g><!--link DetalleSolicitudEliminacionPerfilView to SolicitudEliminacionPerfilController--><g class="link" data-entity-1="ent0003" data-entity-2="ent0004" data-link-type="dependency" data-source-line="18" id="lnk12"><path d="M716.4,80.03 C683.23,99.58 635,128 635,128 C635,128 604.734,142.2409 575.794,155.8609" fill="none" id="DetalleSolicitudEliminacionPerfilView-to-SolicitudEliminacionPerfilController-1" style="stroke:#181818;stroke-width:1;"/><polygon fill="#181818" points="571.27,157.99,581.1165,157.7768,575.794,155.8609,577.7099,150.5383,571.27,157.99" style="stroke:#181818;stroke-width:1;stroke-linejoin:miter;stroke-miterlimit:10;"/><text fill="#000000" font-family="sans-serif" font-size="13" lengthAdjust="spacing" textLength="246.4033" x="666" y="124.4951">prepararAccionesDisponibles(coordinador)</text></g><!--link SolicitudEliminacionPerfilController to SolicitudEliminacionPerfilRepository--><g class="link" data-entity-1="ent0004" data-entity-2="ent0005" data-link-type="dependency" data-source-line="19" id="lnk13"><path d="M506.91,196.15 C487.37,209.74 464,226 464,226 C464,226 464,244 464,244 C464,244 490.9473,258.0568 517.0473,271.6768" fill="none" id="SolicitudEliminacionPerfilController-to-SolicitudEliminacionPerfilRepository" style="stroke:#181818;stroke-width:1;"/><polygon fill="#181818" points="521.48,273.99,515.3516,266.2801,517.0473,271.6768,511.6505,273.3725,521.48,273.99" style="stroke:#181818;stroke-width:1;stroke-linejoin:miter;stroke-miterlimit:10;"/><text fill="#000000" font-family="sans-serif" font-size="13" lengthAdjust="spacing" textLength="93.939" x="465" y="240.4951">obtenerPorId(id)</text></g><!--link SolicitudEliminacionPerfilController to SolicitudEliminacionPerfilRepository--><g class="link" data-entity-1="ent0004" data-entity-2="ent0005" data-link-type="dependency" data-source-line="20" id="lnk14"><path d="M544.34,196.15 C552.84,209.74 563,226 563,226 C563,226 563,244 563,244 C563,244 561.3509,255.3122 559.3709,268.9022" fill="none" id="SolicitudEliminacionPerfilController-to-SolicitudEliminacionPerfilRepository-1" style="stroke:#181818;stroke-width:1;"/><polygon fill="#181818" points="558.65,273.85,563.9058,265.5207,559.3709,268.9022,555.9893,264.3673,558.65,273.85" style="stroke:#181818;stroke-width:1;stroke-linejoin:miter;stroke-miterlimit:10;"/><text fill="#000000" font-family="sans-serif" font-size="13" lengthAdjust="spacing" textLength="137.2427" x="564" y="240.4951">verificarPermisos(actor)</text></g><!--link SolicitudEliminacionPerfilRepository to SolicitudEliminacionPerfil--><g class="link" data-entity-1="ent0005" data-entity-2="ent0006" data-link-type="association" data-source-line="21" id="lnk15"><path d="M556,312.24 C556,329.59 556,355.52 556,372.84" fill="none" id="SolicitudEliminacionPerfilRepository-SolicitudEliminacionPerfil" style="stroke:#181818;stroke-width:1;"/></g><!--link DetalleSolicitudEliminacionPerfilView to EstadoSalida--><g class="link" data-entity-1="ent0003" data-entity-2="ent0007" data-link-type="dependency" data-source-line="22" id="lnk16"><path d="M812.29,80.01 C861.66,93.63 921,110 921,110 C921,110 999.8166,136.809 1057.2566,156.359" fill="none" id="DetalleSolicitudEliminacionPerfilView-to-EstadoSalida" style="stroke:#181818;stroke-width:1;stroke-dasharray:7,7;"/><polygon fill="#181818" points="1061.99,157.97,1054.7588,151.2835,1057.2566,156.359,1052.1812,158.8568,1061.99,157.97" style="stroke:#181818;stroke-width:1;stroke-linejoin:miter;stroke-miterlimit:10;"/><text fill="#000000" font-family="sans-serif" font-size="13" lengthAdjust="spacing" textLength="130.7935" x="974" y="124.4951">continuarNavegacion()</text></g><!--link DetalleSolicitudEliminacionPerfilView to AbrirSolicitudesEliminacionPerfil--><g class="link" data-entity-1="ent0003" data-entity-2="ent0008" data-link-type="dependency" data-source-line="23" id="lnk17"><path d="M872.19,78.42 C978.18,92.32 1113,110 1113,110 C1113,110 1260.5448,137.5032 1365.3548,157.0532" fill="none" id="DetalleSolicitudEliminacionPerfilView-to-AbrirSolicitudesEliminacionPerfil" style="stroke:#181818;stroke-width:1;stroke-dasharray:7,7;"/><polygon fill="#181818" points="1370.27,157.97,1362.1561,152.3875,1365.3548,157.0532,1360.6891,160.2519,1370.27,157.97" style="stroke:#181818;stroke-width:1;stroke-linejoin:miter;stroke-miterlimit:10;"/><text fill="#000000" font-family="sans-serif" font-size="13" lengthAdjust="spacing" textLength="193.6226" x="1208" y="124.4951">abrirSolicitudesEliminacionPerfil()</text></g><!--link DetalleSolicitudEliminacionPerfilView to EliminarPerfil--><g class="link" data-entity-1="ent0003" data-entity-2="ent0009" data-link-type="dependency" data-source-line="24" id="lnk18"><path d="M872.09,71.06 C1064.23,84.97 1410,110 1410,110 C1410,110 1553.2396,137.4775 1655.0896,157.0275" fill="none" id="DetalleSolicitudEliminacionPerfilView-to-EliminarPerfil" style="stroke:#181818;stroke-width:1;stroke-dasharray:7,7;"/><polygon fill="#181818" points="1660,157.97,1651.9154,152.3451,1655.0896,157.0275,1650.4073,160.2017,1660,157.97" style="stroke:#181818;stroke-width:1;stroke-linejoin:miter;stroke-miterlimit:10;"/><text fill="#000000" font-family="sans-serif" font-size="13" lengthAdjust="spacing" textLength="83.7891" x="1503" y="124.4951">eliminarPerfil()</text></g><?plantuml-src hLF1JkCm5BpxAvxAfJsK0m84EI25r9KYTKlLi7kjdFXHFU7QqRDXLI7-7RTQBKqNabJQt9oycV5avlbdihLYjG535iEsHgYTsUuEGZ1MGTcrGJZB9l8-lO91KZpCyYn__3cHnKhEyX_vFCtoX_bg8PVJVBPAxtEvV4oB0IWFqWUbdRI1bLQYLjMpMYEeaeaBPwYYyAAbeGrPLP6p2-GdCZlWe6DcE1h0cu3u75pn-k9MJczXWa4PWz-3Vn7-FiQMLwM-le7lGPcBBbpavMFez2BDBcKBT8crynGSRq-6YlUE45eYE4YWK8PY05ynPT6JAXsh44KXRVnszFzSQ4_QETL3wG-63sYRhuHej0V6FBxhbsq2dUqHeXSJZ7KKxLEA15mPq6ARAkbHNzdUgZNZRdivhNRVqK_8ryvIQT0FA-TOHwHsF19zw3fqFtlyr-t2SQxtnlup_oioFL6rByE6lFD3LOLs7v_mgDEsK_qoE3-_QsnF0bKqGlP5yLozude_FnoTmDQvDiV5_MBa9C7cGYM0ZNEa-W00?></g></svg>