<svg xmlns="http://www.w3.org/2000/svg" xmlns:xlink="http://www.w3.org/1999/xlink" contentStyleType="text/css" data-diagram-type="DESCRIPTION" height="434px" preserveAspectRatio="none" style="width:1856px;height:434px;background:#FFFFFF;" version="1.1" viewBox="0 0 1856 434" width="1856px" zoomAndPan="magnify"><defs/><g><!--cluster abrirSolicitudEliminacionPerfil--><g class="cluster" data-entity="abrirSolicitudEliminacionPerfil" data-source-line="4" data-uid="ent0003" id="cluster_abrirSolicitudEliminacionPerfil"><path d="M375.5,6 L589.6445,6 A3.75,3.75 0 0 1 592.1445,8.5 L599.1445,29.6094 L935.5,29.6094 A2.5,2.5 0 0 1 938,32.1094 L938,424.5 A2.5,2.5 0 0 1 935.5,427 L375.5,427 A2.5,2.5 0 0 1 373,424.5 L373,8.5 A2.5,2.5 0 0 1 375.5,6" fill="none" style="stroke:#000000;stroke-width:1.5;"/><line style="stroke:#000000;stroke-width:1.5;" x1="373" x2="599.1445" y1="29.6094" y2="29.6094"/><text fill="#000000" font-family="sans-serif" font-size="14" font-weight="bold" lengthAdjust="spacing" textLength="213.1445" x="377" y="22.5332">abrirSolicitudEliminacionPerfil()</text></g><!--entity DetalleSolicitudEliminacionPerfilView--><g class="entity" data-entity="DetalleSolicitudEliminacionPerfilView" data-source-line="5" data-uid="ent0004" id="entity_DetalleSolicitudEliminacionPerfilView"><rect fill="#629EF9" height="37.6094" rx="2.5" ry="2.5" style="stroke:#181818;stroke-width:0.5;" width="250.3232" x="622" y="42"/><text fill="#000000" font-family="sans-serif" font-size="14" lengthAdjust="spacing" textLength="230.3232" x="632" y="66.5332">DetalleSolicitudEliminacionPerfilView</text></g><!--entity SolicitudEliminacionPerfilController--><g class="entity" data-entity="SolicitudEliminacionPerfilController" data-source-line="6" data-uid="ent0005" id="entity_SolicitudEliminacionPerfilController"><rect fill="#B5BD68" height="37.6094" rx="2.5" ry="2.5" style="stroke:#181818;stroke-width:0.5;" width="237.0889" x="414.5" y="158"/><text fill="#000000" font-family="sans-serif" font-size="14" lengthAdjust="spacing" textLength="217.0889" x="424.5" y="182.5332">SolicitudEliminacionPerfilController</text></g><!--entity SolicitudEliminacionPerfilRepository--><g class="entity" data-entity="SolicitudEliminacionPerfilRepository" data-source-line="7" data-uid="ent0006" id="entity_SolicitudEliminacionPerfilRepository"><rect fill="#F2AC4E" height="37.6094" rx="2.5" ry="2.5" style="stroke:#181818;stroke-width:0.5;" width="243.3164" x="434.5" y="274"/><text fill="#000000" font-family="sans-serif" font-size="14" lengthAdjust="spacing" textLength="223.3164" x="444.5" y="298.5332">SolicitudEliminacionPerfilRepository</text></g><!--entity SolicitudEliminacionPerfil--><g class="entity" data-entity="SolicitudEliminacionPerfil" data-source-line="8" data-uid="ent0007" id="entity_SolicitudEliminacionPerfil"><rect fill="#F2AC4E" height="37.6094" rx="2.5" ry="2.5" style="stroke:#181818;stroke-width:0.5;" width="176.3994" x="468" y="373"/><text fill="#000000" font-family="sans-serif" font-size="14" lengthAdjust="spacing" textLength="156.3994" x="478" y="397.5332">SolicitudEliminacionPerfil</text></g><!--entity EstadoEntrada--><g class="entity" data-entity="EstadoEntrada" data-source-line="3" data-uid="ent0002" id="entity_EstadoEntrada"><rect fill="#CDEBA5" height="37.6094" rx="2.5" ry="2.5" style="stroke:#181818;stroke-width:0.5;" width="349.8682" x="7" y="42"/><text fill="#000000" font-family="sans-serif" font-size="14" lengthAdjust="spacing" textLength="329.8682" x="17" y="66.5332">:SOLICITUDES_ELIMINACION_PERFIL_ABIERTAS</text></g><!--entity EstadoSalida--><g class="entity" data-entity="EstadoSalida" data-source-line="11" data-uid="ent0008" id="entity_EstadoSalida"><rect fill="#CDEBA5" height="37.6094" rx="2.5" ry="2.5" style="stroke:#181818;stroke-width:0.5;" width="321.8545" x="954" y="158"/><text fill="#000000" font-family="sans-serif" font-size="14" lengthAdjust="spacing" textLength="301.8545" x="964" y="182.5332">:SOLICITUD_ELIMINACION_PERFIL_ABIERTA</text></g><!--entity AbrirSolicitudesEliminacionPerfil--><g class="entity" data-entity="AbrirSolicitudesEliminacionPerfil" data-source-line="12" data-uid="ent0009" id="entity_AbrirSolicitudesEliminacionPerfil"><rect fill="#CDEBA5" height="37.6094" rx="2.5" ry="2.5" style="stroke:#181818;stroke-width:0.5;" width="311.0195" x="1311.5" y="158"/><text fill="#000000" font-family="sans-serif" font-size="14" lengthAdjust="spacing" textLength="291.0195" x="1321.5" y="182.5332">:Collaboration AbrirSolicitudesEliminacionPerfil</text></g><!--entity EliminarPerfil--><g class="entity" data-entity="EliminarPerfil" data-source-line="13" data-uid="ent0010" id="entity_EliminarPerfil"><rect fill="#CDEBA5" height="37.6094" rx="2.5" ry="2.5" style="stroke:#181818;stroke-width:0.5;" width="192.7373" x="1657.5" y="158"/><text fill="#000000" font-family="sans-serif" font-size="14" lengthAdjust="spacing" textLength="172.7373" x="1667.5" y="182.5332">:Collaboration EliminarPerfil</text></g><!--link EstadoEntrada to DetalleSolicitudEliminacionPerfilView--><g class="link" data-entity-1="EstadoEntrada" data-entity-2="DetalleSolicitudEliminacionPerfilView" data-source-line="15" data-uid="lnk11" id="link_EstadoEntrada_DetalleSolicitudEliminacionPerfilView"><path d="M357.29,61 C442.99,61 538.15,61 615.92,61" fill="none" id="EstadoEntrada-to-DetalleSolicitudEliminacionPerfilView" style="stroke:#181818;stroke-width:1;"/><polygon fill="#181818" points="621.92,61,612.92,57,616.92,61,612.92,65,621.92,61" style="stroke:#181818;stroke-width:1;"/><text fill="#000000" font-family="sans-serif" font-size="13" lengthAdjust="spacing" textLength="179.8926" x="400" y="54.4951">abrirSolicitudEliminacionPerfil()</text></g><!--link DetalleSolicitudEliminacionPerfilView to SolicitudEliminacionPerfilController--><g class="link" data-entity-1="DetalleSolicitudEliminacionPerfilView" data-entity-2="SolicitudEliminacionPerfilController" data-source-line="17" data-uid="lnk12" id="link_DetalleSolicitudEliminacionPerfilView_SolicitudEliminacionPerfilController"><path d="M624.68,80.01 C532.18,93.63 421,110 421,110 C421,110 421,128 421,128 C421,128 453.6851,142.0065 485.4651,155.6265" fill="none" id="DetalleSolicitudEliminacionPerfilView-to-SolicitudEliminacionPerfilController" style="stroke:#181818;stroke-width:1;"/><polygon fill="#181818" points="490.98,157.99,484.2834,150.7681,486.3843,156.0204,481.132,158.1213,490.98,157.99" style="stroke:#181818;stroke-width:1;"/><text fill="#000000" font-family="sans-serif" font-size="13" lengthAdjust="spacing" textLength="208.0952" x="422" y="124.4951">obtenerSolicitudEliminacionPerfil(id)</text></g><!--link DetalleSolicitudEliminacionPerfilView to SolicitudEliminacionPerfilController--><g class="link" data-entity-1="DetalleSolicitudEliminacionPerfilView" data-entity-2="SolicitudEliminacionPerfilController" data-source-line="18" data-uid="lnk13" id="link_DetalleSolicitudEliminacionPerfilView_SolicitudEliminacionPerfilController"><path d="M716.4,80.03 C683.23,99.58 635,128 635,128 C635,128 605.6388,141.815 576.6988,155.435" fill="none" id="DetalleSolicitudEliminacionPerfilView-to-SolicitudEliminacionPerfilController-1" style="stroke:#181818;stroke-width:1;"/><polygon fill="#181818" points="571.27,157.99,581.1165,157.7768,575.794,155.8609,577.7099,150.5383,571.27,157.99" style="stroke:#181818;stroke-width:1;"/><text fill="#000000" font-family="sans-serif" font-size="13" lengthAdjust="spacing" textLength="246.4033" x="666" y="124.4951">prepararAccionesDisponibles(coordinador)</text></g><!--link SolicitudEliminacionPerfilController to SolicitudEliminacionPerfilRepository--><g class="link" data-entity-1="SolicitudEliminacionPerfilController" data-entity-2="SolicitudEliminacionPerfilRepository" data-source-line="19" data-uid="lnk14" id="link_SolicitudEliminacionPerfilController_SolicitudEliminacionPerfilRepository"><path d="M506.91,196.15 C487.37,209.74 464,226 464,226 C464,226 464,244 464,244 C464,244 490.0607,257.5942 516.1607,271.2142" fill="none" id="SolicitudEliminacionPerfilController-to-SolicitudEliminacionPerfilRepository" style="stroke:#181818;stroke-width:1;"/><polygon fill="#181818" points="521.48,273.99,515.3516,266.2801,517.0473,271.6768,511.6505,273.3725,521.48,273.99" style="stroke:#181818;stroke-width:1;"/><text fill="#000000" font-family="sans-serif" font-size="13" lengthAdjust="spacing" textLength="93.939" x="465" y="240.4951">obtenerPorId(id)</text></g><!--link SolicitudEliminacionPerfilController to SolicitudEliminacionPerfilRepository--><g class="link" data-entity-1="SolicitudEliminacionPerfilController" data-entity-2="SolicitudEliminacionPerfilRepository" data-source-line="20" data-uid="lnk15" id="link_SolicitudEliminacionPerfilController_SolicitudEliminacionPerfilRepository"><path d="M544.34,196.15 C552.84,209.74 563,226 563,226 C563,226 563,244 563,244 C563,244 561.495,254.3227 559.515,267.9127" fill="none" id="SolicitudEliminacionPerfilController-to-SolicitudEliminacionPerfilRepository-1" style="stroke:#181818;stroke-width:1;"/><polygon fill="#181818" points="558.65,273.85,563.9058,265.5207,559.3709,268.9022,555.9893,264.3673,558.65,273.85" style="stroke:#181818;stroke-width:1;"/><text fill="#000000" font-family="sans-serif" font-size="13" lengthAdjust="spacing" textLength="137.2427" x="564" y="240.4951">verificarPermisos(actor)</text></g><!--link SolicitudEliminacionPerfilRepository to SolicitudEliminacionPerfil--><g class="link" data-entity-1="SolicitudEliminacionPerfilRepository" data-entity-2="SolicitudEliminacionPerfil" data-source-line="21" data-uid="lnk16" id="link_SolicitudEliminacionPerfilRepository_SolicitudEliminacionPerfil"><path d="M556,312.24 C556,329.59 556,355.52 556,372.84" fill="none" id="SolicitudEliminacionPerfilRepository-SolicitudEliminacionPerfil" style="stroke:#181818;stroke-width:1;"/></g><!--link DetalleSolicitudEliminacionPerfilView to EstadoSalida--><g class="link" data-entity-1="DetalleSolicitudEliminacionPerfilView" data-entity-2="EstadoSalida" data-source-line="22" data-uid="lnk17" id="link_DetalleSolicitudEliminacionPerfilView_EstadoSalida"><path d="M812.29,80.01 C861.66,93.63 921,110 921,110 C921,110 998.87,136.4868 1056.31,156.0368" fill="none" id="DetalleSolicitudEliminacionPerfilView-to-EstadoSalida" style="stroke:#181818;stroke-width:1;stroke-dasharray:7,7;"/><polygon fill="#181818" points="1061.99,157.97,1054.7588,151.2835,1057.2566,156.359,1052.1812,158.8568,1061.99,157.97" style="stroke:#181818;stroke-width:1;"/><text fill="#000000" font-family="sans-serif" font-size="13" lengthAdjust="spacing" textLength="192.9053" x="974" y="124.4951">solicitudEliminacionPerfilAbierta()</text></g><!--link DetalleSolicitudEliminacionPerfilView to AbrirSolicitudesEliminacionPerfil--><g class="link" data-entity-1="DetalleSolicitudEliminacionPerfilView" data-entity-2="AbrirSolicitudesEliminacionPerfil" data-source-line="23" data-uid="lnk18" id="link_DetalleSolicitudEliminacionPerfilView_AbrirSolicitudesEliminacionPerfil"><path d="M872.23,76.04 C998.54,90.21 1175,110 1175,110 C1175,110 1294.8977,137.0967 1381.3577,156.6467" fill="none" id="DetalleSolicitudEliminacionPerfilView-to-AbrirSolicitudesEliminacionPerfil" style="stroke:#181818;stroke-width:1;stroke-dasharray:7,7;"/><polygon fill="#181818" points="1387.21,157.97,1379.3138,152.0836,1382.3331,156.8673,1377.5494,159.8866,1387.21,157.97" style="stroke:#181818;stroke-width:1;"/><text fill="#000000" font-family="sans-serif" font-size="13" lengthAdjust="spacing" textLength="193.6226" x="1254" y="124.4951">abrirSolicitudesEliminacionPerfil()</text></g><!--link DetalleSolicitudEliminacionPerfilView to EliminarPerfil--><g class="link" data-entity-1="DetalleSolicitudEliminacionPerfilView" data-entity-2="EliminarPerfil" data-source-line="24" data-uid="lnk19" id="link_DetalleSolicitudEliminacionPerfilView_EliminarPerfil"><path d="M872.12,70.47 C1075.66,84.25 1456,110 1456,110 C1456,110 1578.4821,137.122 1666.7121,156.672" fill="none" id="DetalleSolicitudEliminacionPerfilView-to-EliminarPerfil" style="stroke:#181818;stroke-width:1;stroke-dasharray:7,7;"/><polygon fill="#181818" points="1672.57,157.97,1664.6485,152.1177,1667.6884,156.8883,1662.9178,159.9283,1672.57,157.97" style="stroke:#181818;stroke-width:1;"/><text fill="#000000" font-family="sans-serif" font-size="13" lengthAdjust="spacing" textLength="83.7891" x="1536" y="124.4951">eliminarPerfil()</text></g><!--SRC=[hLF1Qjj04BtlLmpEnJuuXv24HeU08gz1u2R6Idir8-qa35bhnUosnPJ-UzUcD9ORIp9KjvNclRTFxur_uxf1mGrOhYbi6uB6sUtke9HG5R1-jGGNsKm_f3SmIegdHPxbprzckbZhHVuvVqop_EbnlTIhURvOfm-vNZsdnGZGW_O1ZTDr43Ie6gpUy9K0Is4fdEMAmpUZBM-unefTlIHvORi3ZdfcnfCH_5GGduChtbxTwVaTp2YWjNGQ_9Nfnp6sl2dDxISu3SfSTE4Yhnn3vrTfTgqxe2jgdEVWP7isLFtg2Q4ZWeC42hGS0_Y8AOkUi7I28Of2slhjvF-vq9wqTsg0qX-C7D2sNodLQWzCPNe_BDi4UjkZr20cc9eeEgGK2RWoK4rTgcmcGsK7gpP2k-sLjDfz9pzZtxYQIqj-N3ad9YADauaQGjUZ-zxZlswNJdApD_QV-R-Jy0jN-p9is3i_nYfq-tY7HvskdHgMmUNbVMjx4l0d0Md99077apEuUvVekCOVZ9mbs5wl1AXrZbI_0G00]--></g></svg>