<svg xmlns="http://www.w3.org/2000/svg" xmlns:xlink="http://www.w3.org/1999/xlink" contentStyleType="text/css" data-diagram-type="DESCRIPTION" height="558px" preserveAspectRatio="none" style="width:1864px;height:558px;background:#FFFFFF;" version="1.1" viewBox="0 0 1864 558" width="1864px" zoomAndPan="magnify"><?plantuml 1.2026.6?><defs/><g><!--cluster abrirSolicitudEliminacionPerfil--><g class="cluster" data-qualified-name="abrirSolicitudEliminacionPerfil" data-source-line="4" id="ent0002"><path d="M375.5,6 L589.6445,6 A3.75,3.75 0 0 1 592.1445,8.5 L599.1445,29.6094 L935.5,29.6094 A2.5,2.5 0 0 1 938,32.1094 L938,540.5 A2.5,2.5 0 0 1 935.5,543 L375.5,543 A2.5,2.5 0 0 1 373,540.5 L373,8.5 A2.5,2.5 0 0 1 375.5,6" fill="none" style="stroke:#000000;stroke-width:1.5;"/><line style="stroke:#000000;stroke-width:1.5;" x1="373" x2="599.1445" y1="29.6094" y2="29.6094"/><text fill="#000000" font-family="sans-serif" font-size="14" font-weight="700" lengthAdjust="spacing" textLength="213.1445" x="377" y="22.5332">abrirSolicitudEliminacionPerfil()</text></g><!--entity DetalleSolicitudEliminacionPerfilView--><g class="entity" data-qualified-name="abrirSolicitudEliminacionPerfil.DetalleSolicitudEliminacionPerfilView" data-source-line="5" id="ent0003"><rect fill="#629EF9" height="37.6094" rx="2.5" ry="2.5" style="stroke:#181818;stroke-width:0.5;" width="250.3232" x="622" y="42"/><text fill="#000000" font-family="sans-serif" font-size="14" lengthAdjust="spacing" textLength="230.3232" x="632" y="66.5332">DetalleSolicitudEliminacionPerfilView</text></g><!--entity SolicitudEliminacionPerfilController--><g class="entity" data-qualified-name="abrirSolicitudEliminacionPerfil.SolicitudEliminacionPerfilController" data-source-line="6" id="ent0004"><rect fill="#B5BD68" height="37.6094" rx="2.5" ry="2.5" style="stroke:#181818;stroke-width:0.5;" width="237.0889" x="431.5" y="158"/><text fill="#000000" font-family="sans-serif" font-size="14" lengthAdjust="spacing" textLength="217.0889" x="441.5" y="182.5332">SolicitudEliminacionPerfilController</text></g><!--entity PerfilService--><g class="entity" data-qualified-name="abrirSolicitudEliminacionPerfil.PerfilService" data-source-line="7" id="ent0005"><rect fill="#B5BD68" height="37.6094" rx="2.5" ry="2.5" style="stroke:#181818;stroke-width:0.5;" width="98.5791" x="444.5" y="274"/><text fill="#000000" font-family="sans-serif" font-size="14" lengthAdjust="spacing" textLength="78.5791" x="454.5" y="298.5332">PerfilService</text></g><!--entity SesionService--><g class="entity" data-qualified-name="abrirSolicitudEliminacionPerfil.SesionService" data-source-line="8" id="ent0006"><rect fill="#B5BD68" height="37.6094" rx="2.5" ry="2.5" style="stroke:#181818;stroke-width:0.5;" width="109.4893" x="593.5" y="274"/><text fill="#000000" font-family="sans-serif" font-size="14" lengthAdjust="spacing" textLength="89.4893" x="603.5" y="298.5332">SesionService</text></g><!--entity SolicitudEliminacionPerfilRepository--><g class="entity" data-qualified-name="abrirSolicitudEliminacionPerfil.SolicitudEliminacionPerfilRepository" data-source-line="9" id="ent0007"><rect fill="#F2AC4E" height="37.6094" rx="2.5" ry="2.5" style="stroke:#181818;stroke-width:0.5;" width="243.3164" x="430.5" y="390"/><text fill="#000000" font-family="sans-serif" font-size="14" lengthAdjust="spacing" textLength="223.3164" x="440.5" y="414.5332">SolicitudEliminacionPerfilRepository</text></g><!--entity SolicitudEliminacionPerfil--><g class="entity" data-qualified-name="abrirSolicitudEliminacionPerfil.SolicitudEliminacionPerfil" data-source-line="10" id="ent0008"><rect fill="#F2AC4E" height="37.6094" rx="2.5" ry="2.5" style="stroke:#181818;stroke-width:0.5;" width="176.3994" x="464" y="489"/><text fill="#000000" font-family="sans-serif" font-size="14" lengthAdjust="spacing" textLength="156.3994" x="474" y="513.5332">SolicitudEliminacionPerfil</text></g><!--entity EstadoEntrada--><g class="entity" data-qualified-name="EstadoEntrada" data-source-line="3" id="ent0001"><rect fill="#CDEBA5" height="37.6094" rx="2.5" ry="2.5" style="stroke:#181818;stroke-width:0.5;" width="349.8682" x="7" y="42"/><text fill="#000000" font-family="sans-serif" font-size="14" lengthAdjust="spacing" textLength="329.8682" x="17" y="66.5332">:SOLICITUDES_ELIMINACION_PERFIL_ABIERTAS</text></g><!--entity EstadoSalida--><g class="entity" data-qualified-name="EstadoSalida" data-source-line="13" id="ent0009"><rect fill="#CDEBA5" height="37.6094" rx="2.5" ry="2.5" style="stroke:#181818;stroke-width:0.5;" width="321.8545" x="954" y="158"/><text fill="#000000" font-family="sans-serif" font-size="14" lengthAdjust="spacing" textLength="301.8545" x="964" y="182.5332">:SOLICITUD_ELIMINACION_PERFIL_ABIERTA</text></g><!--entity AbrirSolicitudesEliminacionPerfil--><g class="entity" data-qualified-name="AbrirSolicitudesEliminacionPerfil" data-source-line="14" id="ent0010"><rect fill="#CDEBA5" height="37.6094" rx="2.5" ry="2.5" style="stroke:#181818;stroke-width:0.5;" width="311.0195" x="1311.5" y="158"/><text fill="#000000" font-family="sans-serif" font-size="14" lengthAdjust="spacing" textLength="291.0195" x="1321.5" y="182.5332">:Collaboration AbrirSolicitudesEliminacionPerfil</text></g><!--entity EliminarPerfil--><g class="entity" data-qualified-name="EliminarPerfil" data-source-line="15" id="ent0011"><rect fill="#CDEBA5" height="37.6094" rx="2.5" ry="2.5" style="stroke:#181818;stroke-width:0.5;" width="192.7373" x="1657.5" y="158"/><text fill="#000000" font-family="sans-serif" font-size="14" lengthAdjust="spacing" textLength="172.7373" x="1667.5" y="182.5332">:Collaboration EliminarPerfil</text></g><!--link EstadoEntrada to DetalleSolicitudEliminacionPerfilView--><g class="link" data-entity-1="ent0001" data-entity-2="ent0003" data-link-type="dependency" data-source-line="17" id="lnk12"><path d="M357.29,61 C442.99,61 539.15,61 616.92,61" fill="none" id="EstadoEntrada-to-DetalleSolicitudEliminacionPerfilView" style="stroke:#181818;stroke-width:1;"/><polygon fill="#181818" points="621.92,61,612.92,57,616.92,61,612.92,65,621.92,61" style="stroke:#181818;stroke-width:1;stroke-linejoin:miter;stroke-miterlimit:10;"/><text fill="#000000" font-family="sans-serif" font-size="13" lengthAdjust="spacing" textLength="179.8926" x="400" y="54.4951">abrirSolicitudEliminacionPerfil()</text></g><!--link DetalleSolicitudEliminacionPerfilView to SolicitudEliminacionPerfilController--><g class="link" data-entity-1="ent0003" data-entity-2="ent0004" data-link-type="dependency" data-source-line="19" id="lnk13"><path d="M624.68,80.01 C532.18,93.63 421,110 421,110 C421,110 421,128 421,128 C421,128 460.3038,142.6266 496.9138,156.2466" fill="none" id="DetalleSolicitudEliminacionPerfilView-to-SolicitudEliminacionPerfilController" style="stroke:#181818;stroke-width:1;"/><polygon fill="#181818" points="501.6,157.99,494.5596,151.1029,496.9138,156.2466,491.7701,158.6008,501.6,157.99" style="stroke:#181818;stroke-width:1;stroke-linejoin:miter;stroke-miterlimit:10;"/><text fill="#000000" font-family="sans-serif" font-size="13" lengthAdjust="spacing" textLength="208.0952" x="422" y="124.4951">obtenerSolicitudEliminacionPerfil(id)</text></g><!--link DetalleSolicitudEliminacionPerfilView to SolicitudEliminacionPerfilController--><g class="link" data-entity-1="ent0003" data-entity-2="ent0004" data-link-type="dependency" data-source-line="22" id="lnk16"><path d="M716.4,80.03 C683.23,99.58 635,128 635,128 C635,128 610.5644,141.8025 586.4844,155.3925" fill="none" id="DetalleSolicitudEliminacionPerfilView-to-SolicitudEliminacionPerfilController-1" style="stroke:#181818;stroke-width:1;"/><polygon fill="#181818" points="582.13,157.85,591.9339,156.91,586.4844,155.3925,588.0019,149.943,582.13,157.85" style="stroke:#181818;stroke-width:1;stroke-linejoin:miter;stroke-miterlimit:10;"/><text fill="#000000" font-family="sans-serif" font-size="13" lengthAdjust="spacing" textLength="246.4033" x="666" y="124.4951">prepararAccionesDisponibles(coordinador)</text></g><!--link SolicitudEliminacionPerfilController to SesionService--><g class="link" data-entity-1="ent0004" data-entity-2="ent0006" data-link-type="dependency" data-source-line="20" id="lnk14"><path d="M572.31,196.15 C589.01,209.74 609,226 609,226 C609,226 623.2584,250.1142 634.7984,269.6642" fill="none" id="SolicitudEliminacionPerfilController-to-SesionService" style="stroke:#181818;stroke-width:1;"/><polygon fill="#181818" points="637.34,273.97,636.2097,264.1862,634.7984,269.6642,629.3204,268.2528,637.34,273.97" style="stroke:#181818;stroke-width:1;stroke-linejoin:miter;stroke-miterlimit:10;"/><text fill="#000000" font-family="sans-serif" font-size="13" lengthAdjust="spacing" textLength="209.5806" x="620" y="240.4951">obtenerSesionActual(authentication)</text></g><!--link SolicitudEliminacionPerfilController to PerfilService--><g class="link" data-entity-1="ent0004" data-entity-2="ent0005" data-link-type="dependency" data-source-line="21" id="lnk15"><path d="M527.69,196.15 C510.99,209.74 491,226 491,226 C491,226 491,244 491,244 C491,244 491.7079,255.2698 492.5579,268.8598" fill="none" id="SolicitudEliminacionPerfilController-to-PerfilService" style="stroke:#181818;stroke-width:1;"/><polygon fill="#181818" points="492.87,273.85,496.3004,264.6179,492.5579,268.8598,488.316,265.1172,492.87,273.85" style="stroke:#181818;stroke-width:1;stroke-linejoin:miter;stroke-miterlimit:10;"/><text fill="#000000" font-family="sans-serif" font-size="13" lengthAdjust="spacing" textLength="112.0044" x="492" y="240.4951">obtenerSolicitud(id)</text></g><!--link PerfilService to SolicitudEliminacionPerfilRepository--><g class="link" data-entity-1="ent0005" data-entity-2="ent0007" data-link-type="dependency" data-source-line="23" id="lnk17"><path d="M479.63,312.15 C468.87,325.74 456,342 456,342 C456,342 456,360 456,360 C456,360 484.2679,374.1339 511.5079,387.7539" fill="none" id="PerfilService-to-SolicitudEliminacionPerfilRepository" style="stroke:#181818;stroke-width:1;"/><polygon fill="#181818" points="515.98,389.99,509.719,382.3874,511.5079,387.7539,506.1413,389.5428,515.98,389.99" style="stroke:#181818;stroke-width:1;stroke-linejoin:miter;stroke-miterlimit:10;"/><text fill="#000000" font-family="sans-serif" font-size="13" lengthAdjust="spacing" textLength="93.939" x="457" y="356.4951">obtenerPorId(id)</text></g><!--link PerfilService to SolicitudEliminacionPerfilRepository--><g class="link" data-entity-1="ent0005" data-entity-2="ent0007" data-link-type="dependency" data-source-line="24" id="lnk18"><path d="M517.06,312.15 C534.34,325.74 555,342 555,342 C555,342 555,360 555,360 C555,360 554.2921,371.2698 553.4421,384.8598" fill="none" id="PerfilService-to-SolicitudEliminacionPerfilRepository-1" style="stroke:#181818;stroke-width:1;"/><polygon fill="#181818" points="553.13,389.85,557.684,381.1172,553.4421,384.8598,549.6996,380.6179,553.13,389.85" style="stroke:#181818;stroke-width:1;stroke-linejoin:miter;stroke-miterlimit:10;"/><text fill="#000000" font-family="sans-serif" font-size="13" lengthAdjust="spacing" textLength="137.2427" x="556" y="356.4951">verificarPermisos(actor)</text></g><!--link SolicitudEliminacionPerfilRepository to SolicitudEliminacionPerfil--><g class="link" data-entity-1="ent0007" data-entity-2="ent0008" data-link-type="association" data-source-line="25" id="lnk19"><path d="M552,428.24 C552,445.59 552,471.52 552,488.84" fill="none" id="SolicitudEliminacionPerfilRepository-SolicitudEliminacionPerfil" style="stroke:#181818;stroke-width:1;"/></g><!--link DetalleSolicitudEliminacionPerfilView to EstadoSalida--><g class="link" data-entity-1="ent0003" data-entity-2="ent0009" data-link-type="dependency" data-source-line="26" id="lnk20"><path d="M812.29,80.01 C861.66,93.63 921,110 921,110 C921,110 999.8166,136.809 1057.2566,156.359" fill="none" id="DetalleSolicitudEliminacionPerfilView-to-EstadoSalida" style="stroke:#181818;stroke-width:1;stroke-dasharray:7,7;"/><polygon fill="#181818" points="1061.99,157.97,1054.7588,151.2835,1057.2566,156.359,1052.1812,158.8568,1061.99,157.97" style="stroke:#181818;stroke-width:1;stroke-linejoin:miter;stroke-miterlimit:10;"/><text fill="#000000" font-family="sans-serif" font-size="13" lengthAdjust="spacing" textLength="192.9053" x="974" y="124.4951">solicitudEliminacionPerfilAbierta()</text></g><!--link DetalleSolicitudEliminacionPerfilView to AbrirSolicitudesEliminacionPerfil--><g class="link" data-entity-1="ent0003" data-entity-2="ent0010" data-link-type="dependency" data-source-line="27" id="lnk21"><path d="M872.23,76.04 C998.54,90.21 1175,110 1175,110 C1175,110 1295.8731,137.3173 1382.3331,156.8673" fill="none" id="DetalleSolicitudEliminacionPerfilView-to-AbrirSolicitudesEliminacionPerfil" style="stroke:#181818;stroke-width:1;stroke-dasharray:7,7;"/><polygon fill="#181818" points="1387.21,157.97,1379.3138,152.0836,1382.3331,156.8673,1377.5494,159.8866,1387.21,157.97" style="stroke:#181818;stroke-width:1;stroke-linejoin:miter;stroke-miterlimit:10;"/><text fill="#000000" font-family="sans-serif" font-size="13" lengthAdjust="spacing" textLength="193.6226" x="1254" y="124.4951">abrirSolicitudesEliminacionPerfil()</text></g><!--link DetalleSolicitudEliminacionPerfilView to EliminarPerfil--><g class="link" data-entity-1="ent0003" data-entity-2="ent0011" data-link-type="dependency" data-source-line="28" id="lnk22"><path d="M872.12,70.47 C1075.66,84.25 1456,110 1456,110 C1456,110 1579.4584,137.3383 1667.6884,156.8883" fill="none" id="DetalleSolicitudEliminacionPerfilView-to-EliminarPerfil" style="stroke:#181818;stroke-width:1;stroke-dasharray:7,7;"/><polygon fill="#181818" points="1672.57,157.97,1664.6485,152.1177,1667.6884,156.8883,1662.9178,159.9283,1672.57,157.97" style="stroke:#181818;stroke-width:1;stroke-linejoin:miter;stroke-miterlimit:10;"/><text fill="#000000" font-family="sans-serif" font-size="13" lengthAdjust="spacing" textLength="83.7891" x="1536" y="124.4951">eliminarPerfil()</text></g><?plantuml-src dLHDJ-Cm4BtxLupA9JsK0rhGaWDII5qfKe6gOVTQJPo17U76aUs2gjN-ztNAQcc0D2cvEPdtuPatSKzSrMXn3PehyjkQe3Pwsno4iAGyLe-Qu2ITokla74PnVZVFqkp-nrJcApdFRhBR9CtkRbSBkPnbyrLodSdbVPAF01r8vx4qil8MInGrgYTy9C32iisDPiL-KqhDQwvGiQaMP1zODy1HJqqq7i5l0U7PitXnTYbdbp0bZrfJD_WdqyjxR75Ub1VVeHkKcd0B4tXj1_IrB2Vxp8gwwCa5mewQsLcIVfC7B2ofDewziTkZeU9Fpp0FZ79laZbg3eFyZ2aDlS72MFH159BM-CXzCBGZxQqQeFGFO_Tesw-4QAKG9dPoDImZCVIcK8X1J30fW-YGSCLW2ayL7LBbSYo6SC6a4TsFt1lxxcsY_0PrX1l_YohFQjVH8xXRaV_eV6TqO7y6jwUsrFokRAAQx-Icx6fJSQ79HSeOMmPaQUnOjCpr2BnjrlzRB8pDNc_mLQ9dilmGcjhaSCtEk0YLRvmDWGUTG-iyhAkdfrUjnOt1TGAIWibwZCP7SFVkx_iD-gJaAC7sPiT0hNEW-Wi0?></g></svg>