<svg xmlns="http://www.w3.org/2000/svg" xmlns:xlink="http://www.w3.org/1999/xlink" contentStyleType="text/css" data-diagram-type="STATE" height="715px" preserveAspectRatio="none" style="width:526px;height:715px;background:#FFFFFF;" version="1.1" viewBox="0 0 526 715" width="526px" zoomAndPan="magnify"><?plantuml 1.2026.6?><defs/><g><g class="entity" data-qualified-name="in2" data-source-line="4" id="ent0001"><rect fill="#F1F1F1" height="50" rx="12.5" ry="12.5" style="stroke:#181818;stroke-width:0.5;" width="210.6133" x="97" y="7"/><line style="stroke:#181818;stroke-width:0.5;" x1="97" x2="307.6133" y1="34.6094" y2="34.6094"/><text fill="#000000" font-family="sans-serif" font-size="14" lengthAdjust="spacing" textLength="190.6133" x="107" y="26.5332">PUBLICACIONES_ABIERTAS</text></g><g class="entity" data-qualified-name="abrirPublicacion" data-source-line="10" id="ent0002"><path d="M39.5,153 L365.5,153 A12.5,12.5 0 0 1 378,165.5 L378,180.6094 L27,180.6094 L27,165.5 A12.5,12.5 0 0 1 39.5,153" fill="#F1F1F1"/><rect fill="none" height="401.6094" rx="12.5" ry="12.5" style="stroke:#181818;stroke-width:0.5;" width="351" x="27" y="153"/><line style="stroke:#181818;stroke-width:0.5;" x1="27" x2="378" y1="180.6094" y2="180.6094"/><text fill="#000000" font-family="sans-serif" font-size="14" lengthAdjust="spacing" textLength="108.9307" x="148.0347" y="172.5332">abrirPublicacion()</text><g class="entity" data-qualified-name="abrirPublicacion.MostrandoPublicacion" data-source-line="12" id="ent0003"><rect fill="#F1F1F1" height="50" rx="12.5" ry="12.5" style="stroke:#181818;stroke-width:0.5;" width="50" x="39" y="283.6094"/><line style="stroke:#181818;stroke-width:0.5;" x1="39" x2="89" y1="311.2188" y2="311.2188"/><text fill="#000000" font-family="sans-serif" font-size="14" lengthAdjust="spacing" textLength="3.8896" x="62.0552" y="303.1426">&#160;</text></g><g class="start_entity" data-qualified-name="abrirPublicacion..start.abrirPublicacion" data-source-line="14" id="ent0005"><ellipse cx="64" cy="201.6094" fill="#222222" rx="10" ry="10" style="stroke:#222222;stroke-width:1;"/></g><g class="end_entity" data-qualified-name="abrirPublicacion..end.abrirPublicacion" data-source-line="19" id="ent0007"><ellipse cx="64" cy="530.6094" fill="none" rx="11" ry="11" style="stroke:#222222;stroke-width:1;"/><ellipse cx="64" cy="530.6094" fill="#222222" rx="6" ry="6" style="stroke:#222222;stroke-width:1;"/></g><!--link *start*abrirPublicacion to MostrandoPublicacion--><g class="link" data-entity-1="ent0005" data-entity-2="ent0003" data-link-type="dependency" data-source-line="14" id="lnk6"><path d="M64,211.9294 C64,227.7894 64,255.5194 64,278.2494" fill="none" id="*start*abrirPublicacion-to-MostrandoPublicacion" style="stroke:#008000;stroke-width:1;"/><polygon fill="#008000" points="64,283.2494,68,274.2494,64,278.2494,60,274.2494,64,283.2494" style="stroke:#008000;stroke-width:1;stroke-linejoin:miter;stroke-miterlimit:10;"/><path d="M69,234.6094 L69,260.6094 L334,260.6094 L334,244.6094 L324,234.6094 L69,234.6094" fill="#FEFFDD" style="stroke:#181818;stroke-width:0.5;"/><path d="M324,234.6094 L324,244.6094 L334,244.6094 L324,234.6094" fill="#FEFFDD" style="stroke:#181818;stroke-width:0.5;"/><text fill="#000000" font-family="sans-serif" font-size="13" font-weight="700" lengthAdjust="spacing" textLength="77.2954" x="75" y="253.1045">Investigador</text><text fill="#000000" font-family="sans-serif" font-size="13" lengthAdjust="spacing" textLength="163.3125" x="155.9072" y="253.1045">solicita abrir una publicaci&#243;n</text></g><!--link MostrandoPublicacion to *end*abrirPublicacion--><g class="link" data-entity-1="ent0003" data-entity-2="ent0007" data-link-type="dependency" data-source-line="19" id="lnk8"><path d="M64,333.9894 C64,381.8794 64,481.3994 64,514.4094" fill="none" id="MostrandoPublicacion-to-*end*abrirPublicacion" style="stroke:#008000;stroke-width:1;"/><polygon fill="#008000" points="64,519.4094,68,510.4094,64,514.4094,60,510.4094,64,519.4094" style="stroke:#008000;stroke-width:1;stroke-linejoin:miter;stroke-miterlimit:10;"/><path d="M69,356.6094 L69,496.6094 L354,496.6094 L354,366.6094 L344,356.6094 L69,356.6094" fill="#FEFFDD" style="stroke:#181818;stroke-width:0.5;"/><path d="M344,356.6094 L344,366.6094 L354,366.6094 L344,356.6094" fill="#FEFFDD" style="stroke:#181818;stroke-width:0.5;"/><text fill="#000000" font-family="sans-serif" font-size="13" font-weight="700" lengthAdjust="spacing" textLength="49.8608" x="75" y="375.1045">Sistema</text><text fill="#000000" font-family="sans-serif" font-size="13" lengthAdjust="spacing" textLength="211.0405" x="128.4727" y="375.1045">presenta contenido de la publicaci&#243;n</text><text fill="#000000" font-family="sans-serif" font-size="13" lengthAdjust="spacing" textLength="41.4058" x="75" y="391.4561">&#8226; T&#237;tulo</text><text fill="#000000" font-family="sans-serif" font-size="13" lengthAdjust="spacing" textLength="41.4058" x="75" y="407.8076">&#8226; Texto</text><text fill="#000000" font-family="sans-serif" font-size="13" lengthAdjust="spacing" textLength="39.9648" x="75" y="424.1592">&#8226; Autor</text><text fill="#000000" font-family="sans-serif" font-size="13" lengthAdjust="spacing" textLength="139.6929" x="75" y="440.5107">&#8226; Respuestas asociadas</text><text fill="#000000" font-family="sans-serif" font-size="13" font-weight="700" lengthAdjust="spacing" textLength="49.8608" x="75" y="456.8623">Sistema</text><text fill="#000000" font-family="sans-serif" font-size="13" lengthAdjust="spacing" textLength="94.6372" x="128.4727" y="456.8623">permite solicitar:</text><text fill="#000000" font-family="sans-serif" font-size="13" lengthAdjust="spacing" textLength="67.4312" x="75" y="473.2139">&#8226; responder</text><text fill="#000000" font-family="sans-serif" font-size="13" lengthAdjust="spacing" textLength="3.6118" x="75" y="489.5654">&#160;</text></g></g><g class="entity" data-qualified-name="PUBLICACION_ABIERTA" data-source-line="34" id="ent0009"><rect fill="#F1F1F1" height="50" rx="12.5" ry="12.5" style="stroke:#181818;stroke-width:0.5;" width="182.5996" x="7" y="651"/><line style="stroke:#181818;stroke-width:0.5;" x1="7" x2="189.5996" y1="678.6094" y2="678.6094"/><text fill="#000000" font-family="sans-serif" font-size="14" lengthAdjust="spacing" textLength="162.5996" x="17" y="670.5332">PUBLICACION_ABIERTA</text></g><g class="entity" data-qualified-name="PUBLICACIONES_ABIERTAS" data-source-line="44" id="ent0012"><rect fill="#F1F1F1" height="50" rx="12.5" ry="12.5" style="stroke:#181818;stroke-width:0.5;" width="210.6133" x="301" y="651"/><line style="stroke:#181818;stroke-width:0.5;" x1="301" x2="511.6133" y1="678.6094" y2="678.6094"/><text fill="#000000" font-family="sans-serif" font-size="14" lengthAdjust="spacing" textLength="190.6133" x="311" y="670.5332">PUBLICACIONES_ABIERTAS</text></g><!--link in2 to abrirPublicacion--><g class="link" data-entity-1="ent0001" data-entity-2="ent0002" data-link-type="dependency" data-source-line="5" id="lnk4"><path d="M202.5,57.05 C202.5,79.22 202.5,109.43 202.5,147.96" fill="none" id="in2-to-abrirPublicacion" style="stroke:#008000;stroke-width:1;"/><polygon fill="#008000" points="202.5,152.96,206.5,143.96,202.5,147.96,198.5,143.96,202.5,152.96" style="stroke:#008000;stroke-width:1;stroke-linejoin:miter;stroke-miterlimit:10;"/><path d="M207.5,92 L207.5,118 L329.5,118 L329.5,102 L319.5,92 L207.5,92" fill="#FEFFDD" style="stroke:#181818;stroke-width:0.5;"/><path d="M319.5,92 L319.5,102 L329.5,102 L319.5,92" fill="#FEFFDD" style="stroke:#181818;stroke-width:0.5;"/><text fill="#000000" font-family="sans-serif" font-size="13" lengthAdjust="spacing" textLength="101.1499" x="213.5" y="110.4951">abrirPublicacion()</text></g><!--link abrirPublicacion to PUBLICACION_ABIERTA--><g class="link" data-entity-1="ent0002" data-entity-2="ent0009" data-link-type="dependency" data-source-line="34" id="lnk10"><path d="M43.05,555.4 C28.73,573.4 19.5,585 19.5,585 C19.5,585 19.5,621 19.5,621 C19.5,621 37.9911,633.65 59.0311,648.02" fill="none" id="abrirPublicacion-to-PUBLICACION_ABIERTA" style="stroke:#008000;stroke-width:1;"/><polygon fill="#008000" points="63.16,650.84,57.984,642.4609,59.0311,648.02,53.472,649.0672,63.16,650.84" style="stroke:#008000;stroke-width:1;stroke-linejoin:miter;stroke-miterlimit:10;"/><path d="M24.5,590 L24.5,616 L154.5,616 L154.5,600 L144.5,590 L24.5,590" fill="#FEFFDD" style="stroke:#181818;stroke-width:0.5;"/><path d="M144.5,590 L144.5,600 L154.5,600 L144.5,590" fill="#FEFFDD" style="stroke:#181818;stroke-width:0.5;"/><text fill="#000000" font-family="sans-serif" font-size="13" lengthAdjust="spacing" textLength="109.8462" x="30.5" y="608.4951">Publicaci&#243;n abierta</text></g><!--link abrirPublicacion to PUBLICACION_ABIERTA--><g class="link" data-entity-1="ent0002" data-entity-2="ent0009" data-link-type="dependency" data-source-line="39" id="lnk11"><path d="M173.14,555.25 C167.6,593.04 163.5,621 163.5,621 C163.5,621 148.7262,633.2752 131.4262,647.6452" fill="none" id="abrirPublicacion-to-PUBLICACION_ABIERTA-1" style="stroke:#008000;stroke-width:1;"/><polygon fill="#008000" points="127.58,650.84,137.059,648.1663,131.4262,647.6452,131.9473,642.0124,127.58,650.84" style="stroke:#008000;stroke-width:1;stroke-linejoin:miter;stroke-miterlimit:10;"/><path d="M173.5,590 L173.5,616 L327.5,616 L327.5,600 L317.5,590 L173.5,590" fill="#FEFFDD" style="stroke:#181818;stroke-width:0.5;"/><path d="M317.5,590 L317.5,600 L327.5,600 L317.5,590" fill="#FEFFDD" style="stroke:#181818;stroke-width:0.5;"/><text fill="#000000" font-family="sans-serif" font-size="13" lengthAdjust="spacing" textLength="133.6816" x="179.5" y="608.4951">responderPublicacion()</text></g><!--link abrirPublicacion to PUBLICACIONES_ABIERTAS--><g class="link" data-entity-1="ent0002" data-entity-2="ent0012" data-link-type="dependency" data-source-line="44" id="lnk13"><path d="M330.25,555.39 C354.66,593.68 374.2716,624.4543 388.3716,646.5643" fill="none" id="abrirPublicacion-to-PUBLICACIONES_ABIERTAS" style="stroke:#008000;stroke-width:1;"/><polygon fill="#008000" points="391.06,650.78,389.5934,641.041,388.3716,646.5643,382.8482,645.3425,391.06,650.78" style="stroke:#008000;stroke-width:1;stroke-linejoin:miter;stroke-miterlimit:10;"/><path d="M371.5,590 L371.5,616 L506.5,616 L506.5,600 L496.5,590 L371.5,590" fill="#FEFFDD" style="stroke:#181818;stroke-width:0.5;"/><path d="M496.5,590 L496.5,600 L506.5,600 L496.5,590" fill="#FEFFDD" style="stroke:#181818;stroke-width:0.5;"/><text fill="#000000" font-family="sans-serif" font-size="13" lengthAdjust="spacing" textLength="114.8799" x="377.5" y="608.4951">abrirPublicaciones()</text></g><?plantuml-src fLDDQy904BtlhnZIIrkGGez5X2WU0lqGjIUHCiaEiXXdm-wcL4gXlwNtdleJ_2Vz9TqOeed6KkZaDDctxxsPlDYbuWmDhY1LJ6wT4MGwNHUD4DQX8r1y3MWX63tsRwD1E8WUxeUJfx0V3SVJS1A8uhmpEriO8fvtUe2nKMQKnwbAC56Q1MlFehbGM8h3q_CBGIoXm5I2Xv2j-l6z05w505_bhS0_7dYdhJF8KjSTR66potd3Poko03Ry5Y-wSI_YPx9EBL1gqxsAUs2rlwCSbcuXPuIiujbybKJxmOgkJQzXo1iygJzHrj4AjzAP8KlifHFDZbX93P8WRJ7m_Vu1qysdorEzx-d5xRimTzhikZ7PBFTp-ZsYrOb2YRRL0PcLyYQh9PYR7ONtbccML98sr_0cV1rztVeAQXch4jQCpwWseb-z8kEm5g3_aU-ydyhdN-bh_yVlwIVRuFVr0m00?></g></svg>