<svg xmlns="http://www.w3.org/2000/svg" xmlns:xlink="http://www.w3.org/1999/xlink" contentStyleType="text/css" height="717px" preserveAspectRatio="none" style="width:1966px;height:717px;background:#FFFFFF;" version="1.1" viewBox="0 0 1966 717" width="1966px" zoomAndPan="magnify"><title>Diagrama de secuencia - eliminarPublicacion</title><defs/><g><text fill="#000000" font-family="sans-serif" font-size="14" font-weight="bold" lengthAdjust="spacing" textLength="300.3369" x="834.6216" y="29.5332">Diagrama de secuencia - eliminarPublicacion</text><line style="stroke:#181818;stroke-width:0.5;stroke-dasharray:5.0,5.0;" x1="46" x2="46" y1="121.2188" y2="635.1953"/><line style="stroke:#181818;stroke-width:0.5;stroke-dasharray:5.0,5.0;" x1="388.5786" x2="388.5786" y1="121.2188" y2="635.1953"/><line style="stroke:#181818;stroke-width:0.5;stroke-dasharray:5.0,5.0;" x1="757.7983" x2="757.7983" y1="121.2188" y2="635.1953"/><line style="stroke:#181818;stroke-width:0.5;stroke-dasharray:5.0,5.0;" x1="990.7788" x2="990.7788" y1="121.2188" y2="635.1953"/><line style="stroke:#181818;stroke-width:0.5;stroke-dasharray:5.0,5.0;" x1="1119.2681" x2="1119.2681" y1="121.2188" y2="635.1953"/><line style="stroke:#181818;stroke-width:0.5;stroke-dasharray:5.0,5.0;" x1="1260.5503" x2="1260.5503" y1="121.2188" y2="635.1953"/><line style="stroke:#181818;stroke-width:0.5;stroke-dasharray:5.0,5.0;" x1="1412.2808" x2="1412.2808" y1="121.2188" y2="635.1953"/><line style="stroke:#181818;stroke-width:0.5;stroke-dasharray:5.0,5.0;" x1="1915.7461" x2="1915.7461" y1="121.2188" y2="635.1953"/><text fill="#000000" font-family="sans-serif" font-size="14" lengthAdjust="spacing" textLength="77.0479" x="5" y="118.1426">Coordinador</text><ellipse cx="46.5239" cy="52.1094" fill="#E2E2F0" rx="8" ry="8" style="stroke:#181818;stroke-width:0.5;"/><path d="M46.5239,60.1094 L46.5239,87.1094 M33.5239,68.1094 L59.5239,68.1094 M46.5239,87.1094 L33.5239,102.1094 M46.5239,87.1094 L59.5239,102.1094 " fill="none" style="stroke:#181818;stroke-width:0.5;"/><text fill="#000000" font-family="sans-serif" font-size="14" lengthAdjust="spacing" textLength="77.0479" x="5" y="648.7285">Coordinador</text><ellipse cx="46.5239" cy="660.3047" fill="#E2E2F0" rx="8" ry="8" style="stroke:#181818;stroke-width:0.5;"/><path d="M46.5239,668.3047 L46.5239,695.3047 M33.5239,676.3047 L59.5239,676.3047 M46.5239,695.3047 L33.5239,710.3047 M46.5239,695.3047 L59.5239,710.3047 " fill="none" style="stroke:#181818;stroke-width:0.5;"/><rect fill="#E2E2F0" height="49.2188" rx="2.5" ry="2.5" style="stroke:#181818;stroke-width:0.5;" width="167.3096" x="305.5786" y="71"/><text fill="#000000" font-family="sans-serif" font-size="14" lengthAdjust="spacing" textLength="153.3096" x="312.5786" y="92.5332">eliminarPublicacionPage</text><text fill="#000000" font-family="sans-serif" font-size="14" lengthAdjust="spacing" textLength="45.8965" x="366.2852" y="110.1426">(React)</text><rect fill="#E2E2F0" height="49.2188" rx="2.5" ry="2.5" style="stroke:#181818;stroke-width:0.5;" width="167.3096" x="305.5786" y="634.1953"/><text fill="#000000" font-family="sans-serif" font-size="14" lengthAdjust="spacing" textLength="153.3096" x="312.5786" y="655.7285">eliminarPublicacionPage</text><text fill="#000000" font-family="sans-serif" font-size="14" lengthAdjust="spacing" textLength="45.8965" x="366.2852" y="673.3379">(React)</text><rect fill="#E2E2F0" height="49.2188" rx="2.5" ry="2.5" style="stroke:#181818;stroke-width:0.5;" width="146.2891" x="684.7983" y="71"/><text fill="#000000" font-family="sans-serif" font-size="14" lengthAdjust="spacing" textLength="132.2891" x="691.7983" y="92.5332">PublicacionController</text><text fill="#000000" font-family="sans-serif" font-size="14" lengthAdjust="spacing" textLength="82.4824" x="716.7017" y="110.1426">(Spring Boot)</text><rect fill="#E2E2F0" height="49.2188" rx="2.5" ry="2.5" style="stroke:#181818;stroke-width:0.5;" width="146.2891" x="684.7983" y="634.1953"/><text fill="#000000" font-family="sans-serif" font-size="14" lengthAdjust="spacing" textLength="132.2891" x="691.7983" y="655.7285">PublicacionController</text><text fill="#000000" font-family="sans-serif" font-size="14" lengthAdjust="spacing" textLength="82.4824" x="716.7017" y="673.3379">(Spring Boot)</text><rect fill="#E2E2F0" height="31.6094" rx="2.5" ry="2.5" style="stroke:#181818;stroke-width:0.5;" width="103.4893" x="939.7788" y="88.6094"/><text fill="#000000" font-family="sans-serif" font-size="14" lengthAdjust="spacing" textLength="89.4893" x="946.7788" y="110.1426">SesionService</text><rect fill="#E2E2F0" height="31.6094" rx="2.5" ry="2.5" style="stroke:#181818;stroke-width:0.5;" width="103.4893" x="939.7788" y="634.1953"/><text fill="#000000" font-family="sans-serif" font-size="14" lengthAdjust="spacing" textLength="89.4893" x="946.7788" y="655.7285">SesionService</text><rect fill="#E2E2F0" height="31.6094" rx="2.5" ry="2.5" style="stroke:#181818;stroke-width:0.5;" width="132.2822" x="1053.2681" y="88.6094"/><text fill="#000000" font-family="sans-serif" font-size="14" lengthAdjust="spacing" textLength="118.2822" x="1060.2681" y="110.1426">PublicacionService</text><rect fill="#E2E2F0" height="31.6094" rx="2.5" ry="2.5" style="stroke:#181818;stroke-width:0.5;" width="132.2822" x="1053.2681" y="634.1953"/><text fill="#000000" font-family="sans-serif" font-size="14" lengthAdjust="spacing" textLength="118.2822" x="1060.2681" y="655.7285">PublicacionService</text><rect fill="#E2E2F0" height="31.6094" rx="2.5" ry="2.5" style="stroke:#181818;stroke-width:0.5;" width="130.7305" x="1195.5503" y="88.6094"/><text fill="#000000" font-family="sans-serif" font-size="14" lengthAdjust="spacing" textLength="116.7305" x="1202.5503" y="110.1426">PoliticaPublicacion</text><rect fill="#E2E2F0" height="31.6094" rx="2.5" ry="2.5" style="stroke:#181818;stroke-width:0.5;" width="130.7305" x="1195.5503" y="634.1953"/><text fill="#000000" font-family="sans-serif" font-size="14" lengthAdjust="spacing" textLength="116.7305" x="1202.5503" y="655.7285">PoliticaPublicacion</text><rect fill="#E2E2F0" height="31.6094" rx="2.5" ry="2.5" style="stroke:#181818;stroke-width:0.5;" width="152.5166" x="1336.2808" y="88.6094"/><text fill="#000000" font-family="sans-serif" font-size="14" lengthAdjust="spacing" textLength="138.5166" x="1343.2808" y="110.1426">PublicacionRepository</text><rect fill="#E2E2F0" height="31.6094" rx="2.5" ry="2.5" style="stroke:#181818;stroke-width:0.5;" width="152.5166" x="1336.2808" y="634.1953"/><text fill="#000000" font-family="sans-serif" font-size="14" lengthAdjust="spacing" textLength="138.5166" x="1343.2808" y="655.7285">PublicacionRepository</text><text fill="#000000" font-family="sans-serif" font-size="14" lengthAdjust="spacing" textLength="91.834" x="1867.7461" y="118.1426">Base de Datos</text><path d="M1898.6631,67.6094 C1898.6631,57.6094 1916.6631,57.6094 1916.6631,57.6094 C1916.6631,57.6094 1934.6631,57.6094 1934.6631,67.6094 L1934.6631,93.6094 C1934.6631,103.6094 1916.6631,103.6094 1916.6631,103.6094 C1916.6631,103.6094 1898.6631,103.6094 1898.6631,93.6094 L1898.6631,67.6094 " fill="#E2E2F0" style="stroke:#181818;stroke-width:1.5;"/><path d="M1898.6631,67.6094 C1898.6631,77.6094 1916.6631,77.6094 1916.6631,77.6094 C1916.6631,77.6094 1934.6631,77.6094 1934.6631,67.6094 " fill="none" style="stroke:#181818;stroke-width:1.5;"/><text fill="#000000" font-family="sans-serif" font-size="14" lengthAdjust="spacing" textLength="91.834" x="1867.7461" y="648.7285">Base de Datos</text><path d="M1898.6631,661.8047 C1898.6631,651.8047 1916.6631,651.8047 1916.6631,651.8047 C1916.6631,651.8047 1934.6631,651.8047 1934.6631,661.8047 L1934.6631,687.8047 C1934.6631,697.8047 1916.6631,697.8047 1916.6631,697.8047 C1916.6631,697.8047 1898.6631,697.8047 1898.6631,687.8047 L1898.6631,661.8047 " fill="#E2E2F0" style="stroke:#181818;stroke-width:1.5;"/><path d="M1898.6631,661.8047 C1898.6631,671.8047 1916.6631,671.8047 1916.6631,671.8047 C1916.6631,671.8047 1934.6631,671.8047 1934.6631,661.8047 " fill="none" style="stroke:#181818;stroke-width:1.5;"/><polygon fill="#181818" points="377.2334,149.5703,387.2334,153.5703,377.2334,157.5703,381.2334,153.5703" style="stroke:#181818;stroke-width:1;"/><line style="stroke:#181818;stroke-width:1;" x1="46.5239" x2="383.2334" y1="153.5703" y2="153.5703"/><text fill="#000000" font-family="sans-serif" font-size="13" lengthAdjust="spacing" textLength="166.1753" x="53.5239" y="148.7139">Solicita eliminarPublicacion()</text><polygon fill="#181818" points="745.9429,179.9219,755.9429,183.9219,745.9429,187.9219,749.9429,183.9219" style="stroke:#181818;stroke-width:1;"/><line style="stroke:#181818;stroke-width:1;" x1="389.2334" x2="751.9429" y1="183.9219" y2="183.9219"/><text fill="#000000" font-family="sans-serif" font-size="13" lengthAdjust="spacing" textLength="344.7095" x="396.2334" y="179.0654">DELETE /api/publicaciones/{id} + RetiradaRequest + cookie</text><polygon fill="#181818" points="979.5234,210.2734,989.5234,214.2734,979.5234,218.2734,983.5234,214.2734" style="stroke:#181818;stroke-width:1;"/><line style="stroke:#181818;stroke-width:1;" x1="757.9429" x2="985.5234" y1="214.2734" y2="214.2734"/><text fill="#000000" font-family="sans-serif" font-size="13" lengthAdjust="spacing" textLength="209.5806" x="764.9429" y="209.417">obtenerSesionActual(authentication)</text><polygon fill="#181818" points="768.9429,240.625,758.9429,244.625,768.9429,248.625,764.9429,244.625" style="stroke:#181818;stroke-width:1;"/><line style="stroke:#181818;stroke-width:1;stroke-dasharray:2.0,2.0;" x1="762.9429" x2="990.5234" y1="244.625" y2="244.625"/><text fill="#000000" font-family="sans-serif" font-size="13" lengthAdjust="spacing" textLength="101.1753" x="774.9429" y="239.7686">Actor autenticado</text><polygon fill="#181818" points="1107.4092,270.9766,1117.4092,274.9766,1107.4092,278.9766,1111.4092,274.9766" style="stroke:#181818;stroke-width:1;"/><line style="stroke:#181818;stroke-width:1;" x1="757.9429" x2="1113.4092" y1="274.9766" y2="274.9766"/><text fill="#000000" font-family="sans-serif" font-size="13" lengthAdjust="spacing" textLength="134.3608" x="764.9429" y="270.1201">retirar(id, motivo, actor)</text><polygon fill="#181818" points="1400.5391,301.3281,1410.5391,305.3281,1400.5391,309.3281,1404.5391,305.3281" style="stroke:#181818;stroke-width:1;"/><line style="stroke:#181818;stroke-width:1;" x1="1119.4092" x2="1406.5391" y1="305.3281" y2="305.3281"/><text fill="#000000" font-family="sans-serif" font-size="13" lengthAdjust="spacing" textLength="138.0171" x="1126.4092" y="300.4717">findByIdAndRetirada(id)</text><polygon fill="#181818" points="1904.6631,331.6797,1914.6631,335.6797,1904.6631,339.6797,1908.6631,335.6797" style="stroke:#181818;stroke-width:1;"/><line style="stroke:#181818;stroke-width:1;" x1="1412.5391" x2="1910.6631" y1="335.6797" y2="335.6797"/><text fill="#000000" font-family="sans-serif" font-size="13" lengthAdjust="spacing" textLength="392.3105" x="1419.5391" y="330.8232">SELECT * FROM publicaciones WHERE id = ? AND retirada = false</text><polygon fill="#181818" points="1423.5391,362.0313,1413.5391,366.0313,1423.5391,370.0313,1419.5391,366.0313" style="stroke:#181818;stroke-width:1;"/><line style="stroke:#181818;stroke-width:1;stroke-dasharray:2.0,2.0;" x1="1417.5391" x2="1915.6631" y1="366.0313" y2="366.0313"/><text fill="#000000" font-family="sans-serif" font-size="13" lengthAdjust="spacing" textLength="107.6689" x="1429.5391" y="361.1748">Publicacion / vacio</text><path d="M1265,379.0313 L1265,405.0313 L1558,405.0313 L1558,389.0313 L1548,379.0313 L1265,379.0313 " fill="#FEFFDD" style="stroke:#181818;stroke-width:0.5;"/><path d="M1548,379.0313 L1548,389.0313 L1558,389.0313 L1548,379.0313 " fill="#FEFFDD" style="stroke:#181818;stroke-width:0.5;"/><text fill="#000000" font-family="sans-serif" font-size="13" lengthAdjust="spacing" textLength="272.4224" x="1271" y="397.5264">Responsabilidad interna: permitirGestionGlobal</text><polygon fill="#181818" points="1400.5391,428.7344,1410.5391,432.7344,1400.5391,436.7344,1404.5391,432.7344" style="stroke:#181818;stroke-width:1;"/><line style="stroke:#181818;stroke-width:1;" x1="1119.4092" x2="1406.5391" y1="432.7344" y2="432.7344"/><text fill="#000000" font-family="sans-serif" font-size="13" lengthAdjust="spacing" textLength="127.8735" x="1126.4092" y="427.8779">save(id, motivo, actor)</text><polygon fill="#181818" points="1904.6631,491.7891,1914.6631,495.7891,1904.6631,499.7891,1908.6631,495.7891" style="stroke:#181818;stroke-width:1;"/><line style="stroke:#181818;stroke-width:1;" x1="1412.5391" x2="1910.6631" y1="495.7891" y2="495.7891"/><text fill="#000000" font-family="sans-serif" font-size="13" lengthAdjust="spacing" textLength="252.5288" x="1419.5391" y="458.2295">UPDATE publicaciones SET retirada = true,</text><text fill="#000000" font-family="sans-serif" font-size="13" lengthAdjust="spacing" textLength="480.124" x="1419.5391" y="474.5811">fecha_retirada = CURRENT_TIMESTAMP, motivo_retirada = ?, retirado_por_id = ?</text><text fill="#000000" font-family="sans-serif" font-size="13" lengthAdjust="spacing" textLength="205.188" x="1419.5391" y="490.9326">WHERE id = ? AND retirada = false</text><polygon fill="#181818" points="1423.5391,522.1406,1413.5391,526.1406,1423.5391,530.1406,1419.5391,526.1406" style="stroke:#181818;stroke-width:1;"/><line style="stroke:#181818;stroke-width:1;stroke-dasharray:2.0,2.0;" x1="1417.5391" x2="1915.6631" y1="526.1406" y2="526.1406"/><text fill="#000000" font-family="sans-serif" font-size="13" lengthAdjust="spacing" textLength="114.1753" x="1429.5391" y="521.2842">Publicacion retirada</text><polygon fill="#181818" points="768.9429,552.4922,758.9429,556.4922,768.9429,560.4922,764.9429,556.4922" style="stroke:#181818;stroke-width:1;"/><line style="stroke:#181818;stroke-width:1;stroke-dasharray:2.0,2.0;" x1="762.9429" x2="1118.4092" y1="556.4922" y2="556.4922"/><text fill="#000000" font-family="sans-serif" font-size="13" lengthAdjust="spacing" textLength="153.2134" x="774.9429" y="551.6357">Resultado del caso de uso</text><polygon fill="#181818" points="400.2334,582.8438,390.2334,586.8438,400.2334,590.8438,396.2334,586.8438" style="stroke:#181818;stroke-width:1;"/><line style="stroke:#181818;stroke-width:1;stroke-dasharray:2.0,2.0;" x1="394.2334" x2="756.9429" y1="586.8438" y2="586.8438"/><text fill="#000000" font-family="sans-serif" font-size="13" lengthAdjust="spacing" textLength="91.0635" x="406.2334" y="581.9873">204 No Content</text><polygon fill="#181818" points="57.5239,613.1953,47.5239,617.1953,57.5239,621.1953,53.5239,617.1953" style="stroke:#181818;stroke-width:1;"/><line style="stroke:#181818;stroke-width:1;stroke-dasharray:2.0,2.0;" x1="51.5239" x2="388.2334" y1="617.1953" y2="617.1953"/><text fill="#000000" font-family="sans-serif" font-size="13" lengthAdjust="spacing" textLength="318.7095" x="63.5239" y="612.3389">Presenta Listado correspondiente al contexto de origen</text><!--SRC=[fLF1Rjim3BtxAuYUaYr5Xc4d0rlXn6vNeEq29yKk1GB6Ob9YZkH9Sh1YsB-FakFLsThJBeP4liSdFjAUVKsGC-uixX4KWQEg9LqnmZbGpNlMQ1VjfkOAApOwmSeR2tDZh9AKCZPfq7gkk47juUm5oW9tzA179GbrV0ReuD8QxKchK-g0CfUyDNLDLeZBnhBUmSoO8prh-9Iv92Ua9Ta3LnGXNUJL-gVGUFuBQsgM6muu4HpYrTEhTKjgZ6Cnw2cYmpL957hSe2CucuMlU9oZDouYybcI3Bo4yqz_p4bX6SJOuqjp68sJ7XX8OaaAUN5Jh0gOOiFJvXbARlgJrIzuA-_nR55XITzRSbuYbJ7Vc1AXXogTQocOZTGbsrspohTOZx3rZwI39rw2uwHBmdaldiMz45G7KkQvQFGt1HlLxOZL1FR6yy5C86vJA1On0HuyIs7BMisUhbMcLVzeuOsJa0seV2RsIBlp5Ro1o_BBBPmq35y_5sK1hE0ZN41sbn_55KfWYxMZ99_5jtTo0sDX2eTmIBJn19PtZnxCzZZuLF2kCThXXcjMg81b15PZ2WtPlQoClH9ZfSnLRJPO_zkOmmEzvC2miVj5diaSJpjQ5gjX4zwsD7dGMweUSJs8p-_BihXRhLVNjyLobTqkUgKXw6BIbpBhnjXrvzE3_W_NUkHpn_rYY6DjxKLADh-62bquGEkE2tAoyU_VVO0x0_DuzuCD5zJWDn5fIquG23ViOktAM1j7erZY12XIWVp3HpaZWoJz6m00]--></g></svg>