<svg xmlns="http://www.w3.org/2000/svg" xmlns:xlink="http://www.w3.org/1999/xlink" contentStyleType="text/css" data-diagram-type="CLASS" height="1174px" preserveAspectRatio="none" style="width:1639px;height:1174px;background:#FFFFFF;" version="1.1" viewBox="0 0 1639 1174" width="1639px" zoomAndPan="magnify"><?plantuml 1.2026.5?><defs/><g><g class="title" data-source-line="3"><text fill="#000000" font-family="sans-serif" font-size="14" font-weight="700" lengthAdjust="spacing" textLength="406.1299" x="612.9351" y="24.5332">Clases de dise&#241;o - Iteraci&#243;n 1: Sesi&#243;n y navegaci&#243;n principal</text></g><!--cluster Frontend React--><g class="cluster" data-qualified-name="Frontend React" data-source-line="5" id="ent0001"><path d="M565.5,44.6094 L669.1758,44.6094 A3.75,3.75 0 0 1 671.6758,47.1094 L678.6758,68.2188 L1235.5,68.2188 A2.5,2.5 0 0 1 1238,70.7188 L1238,303.1094 A2.5,2.5 0 0 1 1235.5,305.6094 L565.5,305.6094 A2.5,2.5 0 0 1 563,303.1094 L563,47.1094 A2.5,2.5 0 0 1 565.5,44.6094" fill="none" style="stroke:#000000;stroke-width:1.5;"/><line style="stroke:#000000;stroke-width:1.5;" x1="563" x2="678.6758" y1="68.2188" y2="68.2188"/><text fill="#000000" font-family="sans-serif" font-size="14" font-weight="700" lengthAdjust="spacing" textLength="102.6758" x="567" y="61.1426">Frontend React</text></g><!--cluster API REST Spring Boot--><g class="cluster" data-qualified-name="API REST Spring Boot" data-source-line="19" id="ent0007"><path d="M551.5,329.6094 L701.0518,329.6094 A3.75,3.75 0 0 1 703.5518,332.1094 L710.5518,353.2188 L1262.5,353.2188 A2.5,2.5 0 0 1 1265,355.7188 L1265,480.1094 A2.5,2.5 0 0 1 1262.5,482.6094 L551.5,482.6094 A2.5,2.5 0 0 1 549,480.1094 L549,332.1094 A2.5,2.5 0 0 1 551.5,329.6094" fill="none" style="stroke:#000000;stroke-width:1.5;"/><line style="stroke:#000000;stroke-width:1.5;" x1="549" x2="710.5518" y1="353.2188" y2="353.2188"/><text fill="#000000" font-family="sans-serif" font-size="14" font-weight="700" lengthAdjust="spacing" textLength="148.5518" x="553" y="346.1426">API REST Spring Boot</text></g><!--cluster Servicios de aplicaci?n--><g class="cluster" data-qualified-name="Servicios de aplicaci.n" data-source-line="30" id="ent0010"><path d="M618.5,506.6094 L774.3477,506.6094 A3.75,3.75 0 0 1 776.8477,509.1094 L783.8477,530.2188 L1621.5,530.2188 A2.5,2.5 0 0 1 1624,532.7188 L1624,657.1094 A2.5,2.5 0 0 1 1621.5,659.6094 L618.5,659.6094 A2.5,2.5 0 0 1 616,657.1094 L616,509.1094 A2.5,2.5 0 0 1 618.5,506.6094" fill="none" style="stroke:#000000;stroke-width:1.5;"/><line style="stroke:#000000;stroke-width:1.5;" x1="616" x2="783.8477" y1="530.2188" y2="530.2188"/><text fill="#000000" font-family="sans-serif" font-size="14" font-weight="700" lengthAdjust="spacing" textLength="154.8477" x="620" y="523.1426">Servicios de aplicaci&#243;n</text></g><!--cluster Persistencia y dominio--><g class="cluster" data-qualified-name="Persistencia y dominio" data-source-line="44" id="ent0014"><path d="M618.5,685.1094 L771.9961,685.1094 A3.75,3.75 0 0 1 774.4961,687.6094 L781.4961,708.7188 L989.5,708.7188 A2.5,2.5 0 0 1 992,711.2188 L992,1157.1094 A2.5,2.5 0 0 1 989.5,1159.6094 L618.5,1159.6094 A2.5,2.5 0 0 1 616,1157.1094 L616,687.6094 A2.5,2.5 0 0 1 618.5,685.1094" fill="none" style="stroke:#000000;stroke-width:1.5;"/><line style="stroke:#000000;stroke-width:1.5;" x1="616" x2="781.4961" y1="708.7188" y2="708.7188"/><text fill="#000000" font-family="sans-serif" font-size="14" font-weight="700" lengthAdjust="spacing" textLength="152.4961" x="620" y="701.6426">Persistencia y dominio</text></g><!--cluster Contratos API--><g class="cluster" data-qualified-name="Contratos API" data-source-line="61" id="ent0018"><path d="M8.5,515.6094 L102.8379,515.6094 A3.75,3.75 0 0 1 105.3379,518.1094 L112.3379,539.2188 L589.5,539.2188 A2.5,2.5 0 0 1 592,541.7188 L592,818.1094 A2.5,2.5 0 0 1 589.5,820.6094 L8.5,820.6094 A2.5,2.5 0 0 1 6,818.1094 L6,518.1094 A2.5,2.5 0 0 1 8.5,515.6094" fill="none" style="stroke:#000000;stroke-width:1.5;"/><line style="stroke:#000000;stroke-width:1.5;" x1="6" x2="112.3379" y1="539.2188" y2="539.2188"/><text fill="#000000" font-family="sans-serif" font-size="14" font-weight="700" lengthAdjust="spacing" textLength="93.3379" x="10" y="532.1426">Contratos API</text></g><!--class LoginPage--><g class="entity" data-qualified-name="Frontend React.LoginPage" data-source-line="6" id="ent0002"><rect fill="#F1F1F1" height="48" rx="2.5" ry="2.5" style="stroke:#181818;stroke-width:0.5;" width="98.9512" x="844.5" y="80.6094"/><ellipse cx="859.5" cy="96.6094" fill="#ADD1B2" rx="11" ry="11" style="stroke:#181818;stroke-width:1;"/><path d="M862.2656,92.4844 Q862.4219,92.2656 862.6094,92.1563 Q862.7969,92.0469 863.0156,92.0469 Q863.3906,92.0469 863.625,92.3125 Q863.8594,92.5625 863.8594,93.1719 L863.8594,94.625 Q863.8594,95.2344 863.625,95.5 Q863.3906,95.7656 863.0156,95.7656 Q862.6719,95.7656 862.4688,95.5625 Q862.2656,95.375 862.1563,94.8594 Q862.1094,94.5 861.9219,94.3125 Q861.5938,93.9375 860.9844,93.7188 Q860.375,93.5 859.75,93.5 Q858.9844,93.5 858.3438,93.8281 Q857.7188,94.1563 857.2188,94.9063 Q856.7344,95.6563 856.7344,96.6875 L856.7344,97.7813 Q856.7344,99.0156 857.625,99.8438 Q858.5156,100.6563 860.1094,100.6563 Q861.0469,100.6563 861.7031,100.4063 Q862.0938,100.25 862.5156,99.8125 Q862.7813,99.5469 862.9219,99.4688 Q863.0781,99.3906 863.2813,99.3906 Q863.6094,99.3906 863.8594,99.6563 Q864.125,99.9063 864.125,100.25 Q864.125,100.5938 863.7813,101 Q863.2813,101.5781 862.4844,101.9063 Q861.4063,102.3594 860.1094,102.3594 Q858.5938,102.3594 857.3906,101.7344 Q856.4063,101.2344 855.7188,100.1719 Q855.0313,99.0938 855.0313,97.8125 L855.0313,96.6563 Q855.0313,95.3281 855.6406,94.1875 Q856.2656,93.0313 857.3594,92.4219 Q858.4531,91.7969 859.6875,91.7969 Q860.4219,91.7969 861.0625,91.9688 Q861.7188,92.125 862.2656,92.4844 Z " fill="#000000"/><text fill="#000000" font-family="sans-serif" font-size="14" lengthAdjust="spacing" textLength="66.9512" x="873.5" y="102.3379">LoginPage</text><line style="stroke:#181818;stroke-width:0.5;" x1="845.5" x2="942.4512" y1="112.6094" y2="112.6094"/><line style="stroke:#181818;stroke-width:0.5;" x1="845.5" x2="942.4512" y1="120.6094" y2="120.6094"/></g><!--class PanelPrincipalPage--><g class="entity" data-qualified-name="Frontend React.PanelPrincipalPage" data-source-line="7" id="ent0003"><rect fill="#F1F1F1" height="48" rx="2.5" ry="2.5" style="stroke:#181818;stroke-width:0.5;" width="154.1924" x="995" y="80.6094"/><ellipse cx="1010" cy="96.6094" fill="#ADD1B2" rx="11" ry="11" style="stroke:#181818;stroke-width:1;"/><path d="M1012.7656,92.4844 Q1012.9219,92.2656 1013.1094,92.1563 Q1013.2969,92.0469 1013.5156,92.0469 Q1013.8906,92.0469 1014.125,92.3125 Q1014.3594,92.5625 1014.3594,93.1719 L1014.3594,94.625 Q1014.3594,95.2344 1014.125,95.5 Q1013.8906,95.7656 1013.5156,95.7656 Q1013.1719,95.7656 1012.9688,95.5625 Q1012.7656,95.375 1012.6563,94.8594 Q1012.6094,94.5 1012.4219,94.3125 Q1012.0938,93.9375 1011.4844,93.7188 Q1010.875,93.5 1010.25,93.5 Q1009.4844,93.5 1008.8438,93.8281 Q1008.2188,94.1563 1007.7188,94.9063 Q1007.2344,95.6563 1007.2344,96.6875 L1007.2344,97.7813 Q1007.2344,99.0156 1008.125,99.8438 Q1009.0156,100.6563 1010.6094,100.6563 Q1011.5469,100.6563 1012.2031,100.4063 Q1012.5938,100.25 1013.0156,99.8125 Q1013.2813,99.5469 1013.4219,99.4688 Q1013.5781,99.3906 1013.7813,99.3906 Q1014.1094,99.3906 1014.3594,99.6563 Q1014.625,99.9063 1014.625,100.25 Q1014.625,100.5938 1014.2813,101 Q1013.7813,101.5781 1012.9844,101.9063 Q1011.9063,102.3594 1010.6094,102.3594 Q1009.0938,102.3594 1007.8906,101.7344 Q1006.9063,101.2344 1006.2188,100.1719 Q1005.5313,99.0938 1005.5313,97.8125 L1005.5313,96.6563 Q1005.5313,95.3281 1006.1406,94.1875 Q1006.7656,93.0313 1007.8594,92.4219 Q1008.9531,91.7969 1010.1875,91.7969 Q1010.9219,91.7969 1011.5625,91.9688 Q1012.2188,92.125 1012.7656,92.4844 Z " fill="#000000"/><text fill="#000000" font-family="sans-serif" font-size="14" lengthAdjust="spacing" textLength="122.1924" x="1024" y="102.3379">PanelPrincipalPage</text><line style="stroke:#181818;stroke-width:0.5;" x1="996" x2="1148.1924" y1="112.6094" y2="112.6094"/><line style="stroke:#181818;stroke-width:0.5;" x1="996" x2="1148.1924" y1="120.6094" y2="120.6094"/></g><!--class ConfirmarCierreSesionModal--><g class="entity" data-qualified-name="Frontend React.ConfirmarCierreSesionModal" data-source-line="8" id="ent0004"><rect fill="#F1F1F1" height="48" rx="2.5" ry="2.5" style="stroke:#181818;stroke-width:0.5;" width="212.5098" x="596.5" y="80.6094"/><ellipse cx="611.5" cy="96.6094" fill="#ADD1B2" rx="11" ry="11" style="stroke:#181818;stroke-width:1;"/><path d="M614.2656,92.4844 Q614.4219,92.2656 614.6094,92.1563 Q614.7969,92.0469 615.0156,92.0469 Q615.3906,92.0469 615.625,92.3125 Q615.8594,92.5625 615.8594,93.1719 L615.8594,94.625 Q615.8594,95.2344 615.625,95.5 Q615.3906,95.7656 615.0156,95.7656 Q614.6719,95.7656 614.4688,95.5625 Q614.2656,95.375 614.1563,94.8594 Q614.1094,94.5 613.9219,94.3125 Q613.5938,93.9375 612.9844,93.7188 Q612.375,93.5 611.75,93.5 Q610.9844,93.5 610.3438,93.8281 Q609.7188,94.1563 609.2188,94.9063 Q608.7344,95.6563 608.7344,96.6875 L608.7344,97.7813 Q608.7344,99.0156 609.625,99.8438 Q610.5156,100.6563 612.1094,100.6563 Q613.0469,100.6563 613.7031,100.4063 Q614.0938,100.25 614.5156,99.8125 Q614.7813,99.5469 614.9219,99.4688 Q615.0781,99.3906 615.2813,99.3906 Q615.6094,99.3906 615.8594,99.6563 Q616.125,99.9063 616.125,100.25 Q616.125,100.5938 615.7813,101 Q615.2813,101.5781 614.4844,101.9063 Q613.4063,102.3594 612.1094,102.3594 Q610.5938,102.3594 609.3906,101.7344 Q608.4063,101.2344 607.7188,100.1719 Q607.0313,99.0938 607.0313,97.8125 L607.0313,96.6563 Q607.0313,95.3281 607.6406,94.1875 Q608.2656,93.0313 609.3594,92.4219 Q610.4531,91.7969 611.6875,91.7969 Q612.4219,91.7969 613.0625,91.9688 Q613.7188,92.125 614.2656,92.4844 Z " fill="#000000"/><text fill="#000000" font-family="sans-serif" font-size="14" lengthAdjust="spacing" textLength="180.5098" x="625.5" y="102.3379">ConfirmarCierreSesionModal</text><line style="stroke:#181818;stroke-width:0.5;" x1="597.5" x2="808.0098" y1="112.6094" y2="112.6094"/><line style="stroke:#181818;stroke-width:0.5;" x1="597.5" x2="808.0098" y1="120.6094" y2="120.6094"/></g><!--class AuthServiceClient--><g class="entity" data-qualified-name="Frontend React.AuthServiceClient" data-source-line="9" id="ent0005"><rect fill="#F1F1F1" height="100.8281" rx="2.5" ry="2.5" style="stroke:#181818;stroke-width:0.5;" width="306.9229" x="579.5" y="188.6094"/><ellipse cx="673.0737" cy="204.6094" fill="#ADD1B2" rx="11" ry="11" style="stroke:#181818;stroke-width:1;"/><path d="M675.8394,200.4844 Q675.9956,200.2656 676.1831,200.1563 Q676.3706,200.0469 676.5894,200.0469 Q676.9644,200.0469 677.1987,200.3125 Q677.4331,200.5625 677.4331,201.1719 L677.4331,202.625 Q677.4331,203.2344 677.1987,203.5 Q676.9644,203.7656 676.5894,203.7656 Q676.2456,203.7656 676.0425,203.5625 Q675.8394,203.375 675.73,202.8594 Q675.6831,202.5 675.4956,202.3125 Q675.1675,201.9375 674.5581,201.7188 Q673.9487,201.5 673.3237,201.5 Q672.5581,201.5 671.9175,201.8281 Q671.2925,202.1563 670.7925,202.9063 Q670.3081,203.6563 670.3081,204.6875 L670.3081,205.7813 Q670.3081,207.0156 671.1987,207.8438 Q672.0894,208.6563 673.6831,208.6563 Q674.6206,208.6563 675.2769,208.4063 Q675.6675,208.25 676.0894,207.8125 Q676.355,207.5469 676.4956,207.4688 Q676.6519,207.3906 676.855,207.3906 Q677.1831,207.3906 677.4331,207.6563 Q677.6987,207.9063 677.6987,208.25 Q677.6987,208.5938 677.355,209 Q676.855,209.5781 676.0581,209.9063 Q674.98,210.3594 673.6831,210.3594 Q672.1675,210.3594 670.9644,209.7344 Q669.98,209.2344 669.2925,208.1719 Q668.605,207.0938 668.605,205.8125 L668.605,204.6563 Q668.605,203.3281 669.2144,202.1875 Q669.8394,201.0313 670.9331,200.4219 Q672.0269,199.7969 673.2612,199.7969 Q673.9956,199.7969 674.6362,199.9688 Q675.2925,200.125 675.8394,200.4844 Z " fill="#000000"/><text fill="#000000" font-family="sans-serif" font-size="14" lengthAdjust="spacing" textLength="111.2754" x="693.5737" y="210.3379">AuthServiceClient</text><line style="stroke:#181818;stroke-width:0.5;" x1="580.5" x2="885.4229" y1="220.6094" y2="220.6094"/><line style="stroke:#181818;stroke-width:0.5;" x1="580.5" x2="885.4229" y1="228.6094" y2="228.6094"/><g data-visibility-modifier="PUBLIC_METHOD"><ellipse cx="590.5" cy="242.9141" fill="#84BE84" rx="3" ry="3" style="stroke:#038048;stroke-width:1;"/></g><text fill="#000000" font-family="sans-serif" font-size="14" lengthAdjust="spacing" textLength="280.9229" x="599.5" y="247.1426">iniciarSesion(credenciales): SesionResponse</text><g data-visibility-modifier="PUBLIC_METHOD"><ellipse cx="590.5" cy="260.5234" fill="#84BE84" rx="3" ry="3" style="stroke:#038048;stroke-width:1;"/></g><text fill="#000000" font-family="sans-serif" font-size="14" lengthAdjust="spacing" textLength="122.1514" x="599.5" y="264.752">cerrarSesion(): void</text><g data-visibility-modifier="PUBLIC_METHOD"><ellipse cx="590.5" cy="278.1328" fill="#84BE84" rx="3" ry="3" style="stroke:#038048;stroke-width:1;"/></g><text fill="#000000" font-family="sans-serif" font-size="14" lengthAdjust="spacing" textLength="213.2402" x="599.5" y="282.3613">obtenerSesion(): SesionResponse</text></g><!--class PanelPrincipalClient--><g class="entity" data-qualified-name="Frontend React.PanelPrincipalClient" data-source-line="14" id="ent0006"><rect fill="#F1F1F1" height="65.6094" rx="2.5" ry="2.5" style="stroke:#181818;stroke-width:0.5;" width="299.9297" x="922" y="206.1094"/><ellipse cx="1005.0703" cy="222.1094" fill="#ADD1B2" rx="11" ry="11" style="stroke:#181818;stroke-width:1;"/><path d="M1007.8359,217.9844 Q1007.9922,217.7656 1008.1797,217.6563 Q1008.3672,217.5469 1008.5859,217.5469 Q1008.9609,217.5469 1009.1953,217.8125 Q1009.4297,218.0625 1009.4297,218.6719 L1009.4297,220.125 Q1009.4297,220.7344 1009.1953,221 Q1008.9609,221.2656 1008.5859,221.2656 Q1008.2422,221.2656 1008.0391,221.0625 Q1007.8359,220.875 1007.7266,220.3594 Q1007.6797,220 1007.4922,219.8125 Q1007.1641,219.4375 1006.5547,219.2188 Q1005.9453,219 1005.3203,219 Q1004.5547,219 1003.9141,219.3281 Q1003.2891,219.6563 1002.7891,220.4063 Q1002.3047,221.1563 1002.3047,222.1875 L1002.3047,223.2813 Q1002.3047,224.5156 1003.1953,225.3438 Q1004.0859,226.1563 1005.6797,226.1563 Q1006.6172,226.1563 1007.2734,225.9063 Q1007.6641,225.75 1008.0859,225.3125 Q1008.3516,225.0469 1008.4922,224.9688 Q1008.6484,224.8906 1008.8516,224.8906 Q1009.1797,224.8906 1009.4297,225.1563 Q1009.6953,225.4063 1009.6953,225.75 Q1009.6953,226.0938 1009.3516,226.5 Q1008.8516,227.0781 1008.0547,227.4063 Q1006.9766,227.8594 1005.6797,227.8594 Q1004.1641,227.8594 1002.9609,227.2344 Q1001.9766,226.7344 1001.2891,225.6719 Q1000.6016,224.5938 1000.6016,223.3125 L1000.6016,222.1563 Q1000.6016,220.8281 1001.2109,219.6875 Q1001.8359,218.5313 1002.9297,217.9219 Q1004.0234,217.2969 1005.2578,217.2969 Q1005.9922,217.2969 1006.6328,217.4688 Q1007.2891,217.625 1007.8359,217.9844 Z " fill="#000000"/><text fill="#000000" font-family="sans-serif" font-size="14" lengthAdjust="spacing" textLength="125.2891" x="1025.5703" y="227.8379">PanelPrincipalClient</text><line style="stroke:#181818;stroke-width:0.5;" x1="923" x2="1220.9297" y1="238.1094" y2="238.1094"/><line style="stroke:#181818;stroke-width:0.5;" x1="923" x2="1220.9297" y1="246.1094" y2="246.1094"/><g data-visibility-modifier="PUBLIC_METHOD"><ellipse cx="933" cy="260.4141" fill="#84BE84" rx="3" ry="3" style="stroke:#038048;stroke-width:1;"/></g><text fill="#000000" font-family="sans-serif" font-size="14" lengthAdjust="spacing" textLength="273.9297" x="942" y="264.6426">obtenerAcciones(): PanelPrincipalResponse</text></g><!--class AuthController--><g class="entity" data-qualified-name="API REST Spring Boot.AuthController" data-source-line="20" id="ent0008"><rect fill="#F1F1F1" height="100.8281" rx="2.5" ry="2.5" style="stroke:#181818;stroke-width:0.5;" width="314.7227" x="565.5" y="365.6094"/><ellipse cx="673.8667" cy="381.6094" fill="#ADD1B2" rx="11" ry="11" style="stroke:#181818;stroke-width:1;"/><path d="M676.6323,377.4844 Q676.7886,377.2656 676.9761,377.1563 Q677.1636,377.0469 677.3823,377.0469 Q677.7573,377.0469 677.9917,377.3125 Q678.2261,377.5625 678.2261,378.1719 L678.2261,379.625 Q678.2261,380.2344 677.9917,380.5 Q677.7573,380.7656 677.3823,380.7656 Q677.0386,380.7656 676.8354,380.5625 Q676.6323,380.375 676.5229,379.8594 Q676.4761,379.5 676.2886,379.3125 Q675.9604,378.9375 675.3511,378.7188 Q674.7417,378.5 674.1167,378.5 Q673.3511,378.5 672.7104,378.8281 Q672.0854,379.1563 671.5854,379.9063 Q671.1011,380.6563 671.1011,381.6875 L671.1011,382.7813 Q671.1011,384.0156 671.9917,384.8438 Q672.8823,385.6563 674.4761,385.6563 Q675.4136,385.6563 676.0698,385.4063 Q676.4604,385.25 676.8823,384.8125 Q677.1479,384.5469 677.2886,384.4688 Q677.4448,384.3906 677.6479,384.3906 Q677.9761,384.3906 678.2261,384.6563 Q678.4917,384.9063 678.4917,385.25 Q678.4917,385.5938 678.1479,386 Q677.6479,386.5781 676.8511,386.9063 Q675.7729,387.3594 674.4761,387.3594 Q672.9604,387.3594 671.7573,386.7344 Q670.7729,386.2344 670.0854,385.1719 Q669.3979,384.0938 669.3979,382.8125 L669.3979,381.6563 Q669.3979,380.3281 670.0073,379.1875 Q670.6323,378.0313 671.7261,377.4219 Q672.8198,376.7969 674.0542,376.7969 Q674.7886,376.7969 675.4292,376.9688 Q676.0854,377.125 676.6323,377.4844 Z " fill="#000000"/><text fill="#000000" font-family="sans-serif" font-size="14" lengthAdjust="spacing" textLength="89.4893" x="694.3667" y="387.3379">AuthController</text><line style="stroke:#181818;stroke-width:0.5;" x1="566.5" x2="879.2227" y1="397.6094" y2="397.6094"/><line style="stroke:#181818;stroke-width:0.5;" x1="566.5" x2="879.2227" y1="405.6094" y2="405.6094"/><g data-visibility-modifier="PUBLIC_METHOD"><ellipse cx="576.5" cy="419.9141" fill="#84BE84" rx="3" ry="3" style="stroke:#038048;stroke-width:1;"/></g><text fill="#000000" font-family="sans-serif" font-size="14" lengthAdjust="spacing" textLength="288.7227" x="585.5" y="424.1426">iniciarSesion(LoginRequest): SesionResponse</text><g data-visibility-modifier="PUBLIC_METHOD"><ellipse cx="576.5" cy="437.5234" fill="#84BE84" rx="3" ry="3" style="stroke:#038048;stroke-width:1;"/></g><text fill="#000000" font-family="sans-serif" font-size="14" lengthAdjust="spacing" textLength="197.6338" x="585.5" y="441.752">cerrarSesion(HttpSession): void</text><g data-visibility-modifier="PUBLIC_METHOD"><ellipse cx="576.5" cy="455.1328" fill="#84BE84" rx="3" ry="3" style="stroke:#038048;stroke-width:1;"/></g><text fill="#000000" font-family="sans-serif" font-size="14" lengthAdjust="spacing" textLength="213.2402" x="585.5" y="459.3613">obtenerSesion(): SesionResponse</text></g><!--class PanelPrincipalController--><g class="entity" data-qualified-name="API REST Spring Boot.PanelPrincipalController" data-source-line="25" id="ent0009"><rect fill="#F1F1F1" height="65.6094" rx="2.5" ry="2.5" style="stroke:#181818;stroke-width:0.5;" width="332.6191" x="915.5" y="383.1094"/><ellipse cx="1002.4668" cy="399.1094" fill="#ADD1B2" rx="11" ry="11" style="stroke:#181818;stroke-width:1;"/><path d="M1005.2324,394.9844 Q1005.3887,394.7656 1005.5762,394.6563 Q1005.7637,394.5469 1005.9824,394.5469 Q1006.3574,394.5469 1006.5918,394.8125 Q1006.8262,395.0625 1006.8262,395.6719 L1006.8262,397.125 Q1006.8262,397.7344 1006.5918,398 Q1006.3574,398.2656 1005.9824,398.2656 Q1005.6387,398.2656 1005.4355,398.0625 Q1005.2324,397.875 1005.123,397.3594 Q1005.0762,397 1004.8887,396.8125 Q1004.5605,396.4375 1003.9512,396.2188 Q1003.3418,396 1002.7168,396 Q1001.9512,396 1001.3105,396.3281 Q1000.6855,396.6563 1000.1855,397.4063 Q999.7012,398.1563 999.7012,399.1875 L999.7012,400.2813 Q999.7012,401.5156 1000.5918,402.3438 Q1001.4824,403.1563 1003.0762,403.1563 Q1004.0137,403.1563 1004.6699,402.9063 Q1005.0605,402.75 1005.4824,402.3125 Q1005.748,402.0469 1005.8887,401.9688 Q1006.0449,401.8906 1006.248,401.8906 Q1006.5762,401.8906 1006.8262,402.1563 Q1007.0918,402.4063 1007.0918,402.75 Q1007.0918,403.0938 1006.748,403.5 Q1006.248,404.0781 1005.4512,404.4063 Q1004.373,404.8594 1003.0762,404.8594 Q1001.5605,404.8594 1000.3574,404.2344 Q999.373,403.7344 998.6855,402.6719 Q997.998,401.5938 997.998,400.3125 L997.998,399.1563 Q997.998,397.8281 998.6074,396.6875 Q999.2324,395.5313 1000.3262,394.9219 Q1001.4199,394.2969 1002.6543,394.2969 Q1003.3887,394.2969 1004.0293,394.4688 Q1004.6855,394.625 1005.2324,394.9844 Z " fill="#000000"/><text fill="#000000" font-family="sans-serif" font-size="14" lengthAdjust="spacing" textLength="150.1855" x="1022.9668" y="404.8379">PanelPrincipalController</text><line style="stroke:#181818;stroke-width:0.5;" x1="916.5" x2="1247.1191" y1="415.1094" y2="415.1094"/><line style="stroke:#181818;stroke-width:0.5;" x1="916.5" x2="1247.1191" y1="423.1094" y2="423.1094"/><g data-visibility-modifier="PUBLIC_METHOD"><ellipse cx="926.5" cy="437.4141" fill="#84BE84" rx="3" ry="3" style="stroke:#038048;stroke-width:1;"/></g><text fill="#000000" font-family="sans-serif" font-size="14" lengthAdjust="spacing" textLength="306.6191" x="935.5" y="441.6426">obtenerPanelPrincipal(): PanelPrincipalResponse</text></g><!--class AuthService--><g class="entity" data-qualified-name="Servicios de aplicaci.n.AuthService" data-source-line="31" id="ent0011"><rect fill="#F1F1F1" height="65.6094" rx="2.5" ry="2.5" style="stroke:#181818;stroke-width:0.5;" width="275.792" x="632" y="560.1094"/><ellipse cx="727.9048" cy="576.1094" fill="#ADD1B2" rx="11" ry="11" style="stroke:#181818;stroke-width:1;"/><path d="M730.6704,571.9844 Q730.8267,571.7656 731.0142,571.6563 Q731.2017,571.5469 731.4204,571.5469 Q731.7954,571.5469 732.0298,571.8125 Q732.2642,572.0625 732.2642,572.6719 L732.2642,574.125 Q732.2642,574.7344 732.0298,575 Q731.7954,575.2656 731.4204,575.2656 Q731.0767,575.2656 730.8735,575.0625 Q730.6704,574.875 730.561,574.3594 Q730.5142,574 730.3267,573.8125 Q729.9985,573.4375 729.3892,573.2188 Q728.7798,573 728.1548,573 Q727.3892,573 726.7485,573.3281 Q726.1235,573.6563 725.6235,574.4063 Q725.1392,575.1563 725.1392,576.1875 L725.1392,577.2813 Q725.1392,578.5156 726.0298,579.3438 Q726.9204,580.1563 728.5142,580.1563 Q729.4517,580.1563 730.1079,579.9063 Q730.4985,579.75 730.9204,579.3125 Q731.186,579.0469 731.3267,578.9688 Q731.4829,578.8906 731.686,578.8906 Q732.0142,578.8906 732.2642,579.1563 Q732.5298,579.4063 732.5298,579.75 Q732.5298,580.0938 732.186,580.5 Q731.686,581.0781 730.8892,581.4063 Q729.811,581.8594 728.5142,581.8594 Q726.9985,581.8594 725.7954,581.2344 Q724.811,580.7344 724.1235,579.6719 Q723.436,578.5938 723.436,577.3125 L723.436,576.1563 Q723.436,574.8281 724.0454,573.6875 Q724.6704,572.5313 725.7642,571.9219 Q726.8579,571.2969 728.0923,571.2969 Q728.8267,571.2969 729.4673,571.4688 Q730.1235,571.625 730.6704,571.9844 Z " fill="#000000"/><text fill="#000000" font-family="sans-serif" font-size="14" lengthAdjust="spacing" textLength="75.4824" x="748.4048" y="581.8379">AuthService</text><line style="stroke:#181818;stroke-width:0.5;" x1="633" x2="906.792" y1="592.1094" y2="592.1094"/><line style="stroke:#181818;stroke-width:0.5;" x1="633" x2="906.792" y1="600.1094" y2="600.1094"/><g data-visibility-modifier="PUBLIC_METHOD"><ellipse cx="643" cy="614.4141" fill="#84BE84" rx="3" ry="3" style="stroke:#038048;stroke-width:1;"/></g><text fill="#000000" font-family="sans-serif" font-size="14" lengthAdjust="spacing" textLength="249.792" x="652" y="618.6426">autenticar(usuario, contrasena): Usuario</text></g><!--class SesionService--><g class="entity" data-qualified-name="Servicios de aplicaci.n.SesionService" data-source-line="34" id="ent0012"><rect fill="#F1F1F1" height="100.8281" rx="2.5" ry="2.5" style="stroke:#181818;stroke-width:0.5;" width="278.1504" x="943" y="542.6094"/><ellipse cx="1033.0806" cy="558.6094" fill="#ADD1B2" rx="11" ry="11" style="stroke:#181818;stroke-width:1;"/><path d="M1035.8462,554.4844 Q1036.0024,554.2656 1036.1899,554.1563 Q1036.3774,554.0469 1036.5962,554.0469 Q1036.9712,554.0469 1037.2056,554.3125 Q1037.4399,554.5625 1037.4399,555.1719 L1037.4399,556.625 Q1037.4399,557.2344 1037.2056,557.5 Q1036.9712,557.7656 1036.5962,557.7656 Q1036.2524,557.7656 1036.0493,557.5625 Q1035.8462,557.375 1035.7368,556.8594 Q1035.6899,556.5 1035.5024,556.3125 Q1035.1743,555.9375 1034.5649,555.7188 Q1033.9556,555.5 1033.3306,555.5 Q1032.5649,555.5 1031.9243,555.8281 Q1031.2993,556.1563 1030.7993,556.9063 Q1030.3149,557.6563 1030.3149,558.6875 L1030.3149,559.7813 Q1030.3149,561.0156 1031.2056,561.8438 Q1032.0962,562.6563 1033.6899,562.6563 Q1034.6274,562.6563 1035.2837,562.4063 Q1035.6743,562.25 1036.0962,561.8125 Q1036.3618,561.5469 1036.5024,561.4688 Q1036.6587,561.3906 1036.8618,561.3906 Q1037.1899,561.3906 1037.4399,561.6563 Q1037.7056,561.9063 1037.7056,562.25 Q1037.7056,562.5938 1037.3618,563 Q1036.8618,563.5781 1036.0649,563.9063 Q1034.9868,564.3594 1033.6899,564.3594 Q1032.1743,564.3594 1030.9712,563.7344 Q1029.9868,563.2344 1029.2993,562.1719 Q1028.6118,561.0938 1028.6118,559.8125 L1028.6118,558.6563 Q1028.6118,557.3281 1029.2212,556.1875 Q1029.8462,555.0313 1030.9399,554.4219 Q1032.0337,553.7969 1033.2681,553.7969 Q1034.0024,553.7969 1034.6431,553.9688 Q1035.2993,554.125 1035.8462,554.4844 Z " fill="#000000"/><text fill="#000000" font-family="sans-serif" font-size="14" lengthAdjust="spacing" textLength="89.4893" x="1053.5806" y="564.3379">SesionService</text><line style="stroke:#181818;stroke-width:0.5;" x1="944" x2="1220.1504" y1="574.6094" y2="574.6094"/><line style="stroke:#181818;stroke-width:0.5;" x1="944" x2="1220.1504" y1="582.6094" y2="582.6094"/><g data-visibility-modifier="PUBLIC_METHOD"><ellipse cx="954" cy="596.9141" fill="#84BE84" rx="3" ry="3" style="stroke:#038048;stroke-width:1;"/></g><text fill="#000000" font-family="sans-serif" font-size="14" lengthAdjust="spacing" textLength="243.5713" x="963" y="601.1426">crearSesion(usuario): SesionResponse</text><g data-visibility-modifier="PUBLIC_METHOD"><ellipse cx="954" cy="614.5234" fill="#84BE84" rx="3" ry="3" style="stroke:#038048;stroke-width:1;"/></g><text fill="#000000" font-family="sans-serif" font-size="14" lengthAdjust="spacing" textLength="122.1514" x="963" y="618.752">cerrarSesion(): void</text><g data-visibility-modifier="PUBLIC_METHOD"><ellipse cx="954" cy="632.1328" fill="#84BE84" rx="3" ry="3" style="stroke:#038048;stroke-width:1;"/></g><text fill="#000000" font-family="sans-serif" font-size="14" lengthAdjust="spacing" textLength="252.1504" x="963" y="636.3613">obtenerSesionActual(): SesionResponse</text></g><!--class PanelPrincipalService--><g class="entity" data-qualified-name="Servicios de aplicaci.n.PanelPrincipalService" data-source-line="39" id="ent0013"><rect fill="#F1F1F1" height="65.6094" rx="2.5" ry="2.5" style="stroke:#181818;stroke-width:0.5;" width="351.2881" x="1256.5" y="560.1094"/><ellipse cx="1359.8047" cy="576.1094" fill="#ADD1B2" rx="11" ry="11" style="stroke:#181818;stroke-width:1;"/><path d="M1362.5703,571.9844 Q1362.7266,571.7656 1362.9141,571.6563 Q1363.1016,571.5469 1363.3203,571.5469 Q1363.6953,571.5469 1363.9297,571.8125 Q1364.1641,572.0625 1364.1641,572.6719 L1364.1641,574.125 Q1364.1641,574.7344 1363.9297,575 Q1363.6953,575.2656 1363.3203,575.2656 Q1362.9766,575.2656 1362.7734,575.0625 Q1362.5703,574.875 1362.4609,574.3594 Q1362.4141,574 1362.2266,573.8125 Q1361.8984,573.4375 1361.2891,573.2188 Q1360.6797,573 1360.0547,573 Q1359.2891,573 1358.6484,573.3281 Q1358.0234,573.6563 1357.5234,574.4063 Q1357.0391,575.1563 1357.0391,576.1875 L1357.0391,577.2813 Q1357.0391,578.5156 1357.9297,579.3438 Q1358.8203,580.1563 1360.4141,580.1563 Q1361.3516,580.1563 1362.0078,579.9063 Q1362.3984,579.75 1362.8203,579.3125 Q1363.0859,579.0469 1363.2266,578.9688 Q1363.3828,578.8906 1363.5859,578.8906 Q1363.9141,578.8906 1364.1641,579.1563 Q1364.4297,579.4063 1364.4297,579.75 Q1364.4297,580.0938 1364.0859,580.5 Q1363.5859,581.0781 1362.7891,581.4063 Q1361.7109,581.8594 1360.4141,581.8594 Q1358.8984,581.8594 1357.6953,581.2344 Q1356.7109,580.7344 1356.0234,579.6719 Q1355.3359,578.5938 1355.3359,577.3125 L1355.3359,576.1563 Q1355.3359,574.8281 1355.9453,573.6875 Q1356.5703,572.5313 1357.6641,571.9219 Q1358.7578,571.2969 1359.9922,571.2969 Q1360.7266,571.2969 1361.3672,571.4688 Q1362.0234,571.625 1362.5703,571.9844 Z " fill="#000000"/><text fill="#000000" font-family="sans-serif" font-size="14" lengthAdjust="spacing" textLength="136.1787" x="1380.3047" y="581.8379">PanelPrincipalService</text><line style="stroke:#181818;stroke-width:0.5;" x1="1257.5" x2="1606.7881" y1="592.1094" y2="592.1094"/><line style="stroke:#181818;stroke-width:0.5;" x1="1257.5" x2="1606.7881" y1="600.1094" y2="600.1094"/><g data-visibility-modifier="PUBLIC_METHOD"><ellipse cx="1267.5" cy="614.4141" fill="#84BE84" rx="3" ry="3" style="stroke:#038048;stroke-width:1;"/></g><text fill="#000000" font-family="sans-serif" font-size="14" lengthAdjust="spacing" textLength="325.2881" x="1276.5" y="618.6426">obtenerAccionesDisponibles(rol): List&lt;AccionPanel&gt;</text></g><!--class UsuarioRepository--><g class="entity" data-qualified-name="Persistencia y dominio.UsuarioRepository" data-source-line="45" id="ent0015"><rect fill="#F1F1F1" height="65.6094" rx="2.5" ry="2.5" style="stroke:#181818;stroke-width:0.5;" width="342.7021" x="632.5" y="721.1094"/><ellipse cx="742.022" cy="737.1094" fill="#B4A7E5" rx="11" ry="11" style="stroke:#181818;stroke-width:1;"/><path d="M742.9751,733.75 L742.9751,740.4063 L744.6938,740.4063 Q745.3032,740.4063 745.5688,740.6406 Q745.8345,740.875 745.8345,741.2656 Q745.8345,741.6406 745.5688,741.875 Q745.3032,742.1094 744.6938,742.1094 L739.5532,742.1094 Q738.9438,742.1094 738.6782,741.875 Q738.4126,741.6406 738.4126,741.25 Q738.4126,740.875 738.6782,740.6406 Q738.9438,740.4063 739.5532,740.4063 L741.272,740.4063 L741.272,733.75 L739.5532,733.75 Q738.9438,733.75 738.6782,733.5156 Q738.4126,733.2813 738.4126,732.8906 Q738.4126,732.5156 738.6782,732.2813 Q738.9438,732.0469 739.5532,732.0469 L744.6938,732.0469 Q745.3032,732.0469 745.5688,732.2813 Q745.8345,732.5156 745.8345,732.8906 Q745.8345,733.2813 745.5688,733.5156 Q745.3032,733.75 744.6938,733.75 L742.9751,733.75 Z " fill="#000000"/><text fill="#000000" font-family="sans-serif" font-size="14" font-style="italic" lengthAdjust="spacing" textLength="115.1582" x="762.522" y="742.8379">UsuarioRepository</text><line style="stroke:#181818;stroke-width:0.5;" x1="633.5" x2="974.2021" y1="753.1094" y2="753.1094"/><line style="stroke:#181818;stroke-width:0.5;" x1="633.5" x2="974.2021" y1="761.1094" y2="761.1094"/><g data-visibility-modifier="PUBLIC_METHOD"><ellipse cx="643.5" cy="775.4141" fill="#84BE84" rx="3" ry="3" style="stroke:#038048;stroke-width:1;"/></g><text fill="#000000" font-family="sans-serif" font-size="14" lengthAdjust="spacing" textLength="316.7021" x="652.5" y="779.6426">findByNombreUsuario(usuario): Optional&lt;Usuario&gt;</text></g><!--class Usuario--><g class="entity" data-qualified-name="Persistencia y dominio.Usuario" data-source-line="48" id="ent0016"><rect fill="#F1F1F1" height="136.0469" rx="2.5" ry="2.5" style="stroke:#181818;stroke-width:0.5;" width="172.3027" x="718" y="864.6094"/><ellipse cx="775.7808" cy="880.6094" fill="#ADD1B2" rx="11" ry="11" style="stroke:#181818;stroke-width:1;"/><path d="M778.5464,876.4844 Q778.7026,876.2656 778.8901,876.1563 Q779.0776,876.0469 779.2964,876.0469 Q779.6714,876.0469 779.9058,876.3125 Q780.1401,876.5625 780.1401,877.1719 L780.1401,878.625 Q780.1401,879.2344 779.9058,879.5 Q779.6714,879.7656 779.2964,879.7656 Q778.9526,879.7656 778.7495,879.5625 Q778.5464,879.375 778.437,878.8594 Q778.3901,878.5 778.2026,878.3125 Q777.8745,877.9375 777.2651,877.7188 Q776.6558,877.5 776.0308,877.5 Q775.2651,877.5 774.6245,877.8281 Q773.9995,878.1563 773.4995,878.9063 Q773.0151,879.6563 773.0151,880.6875 L773.0151,881.7813 Q773.0151,883.0156 773.9058,883.8438 Q774.7964,884.6563 776.3901,884.6563 Q777.3276,884.6563 777.9839,884.4063 Q778.3745,884.25 778.7964,883.8125 Q779.062,883.5469 779.2026,883.4688 Q779.3589,883.3906 779.562,883.3906 Q779.8901,883.3906 780.1401,883.6563 Q780.4058,883.9063 780.4058,884.25 Q780.4058,884.5938 780.062,885 Q779.562,885.5781 778.7651,885.9063 Q777.687,886.3594 776.3901,886.3594 Q774.8745,886.3594 773.6714,885.7344 Q772.687,885.2344 771.9995,884.1719 Q771.312,883.0938 771.312,881.8125 L771.312,880.6563 Q771.312,879.3281 771.9214,878.1875 Q772.5464,877.0313 773.6401,876.4219 Q774.7339,875.7969 775.9683,875.7969 Q776.7026,875.7969 777.3433,875.9688 Q777.9995,876.125 778.5464,876.4844 Z " fill="#000000"/><text fill="#000000" font-family="sans-serif" font-size="14" lengthAdjust="spacing" textLength="48.2412" x="796.2808" y="886.3379">Usuario</text><line style="stroke:#181818;stroke-width:0.5;" x1="719" x2="889.3027" y1="896.6094" y2="896.6094"/><g data-visibility-modifier="PUBLIC_FIELD"><ellipse cx="729" cy="910.9141" fill="none" rx="3" ry="3" style="stroke:#038048;stroke-width:1;"/></g><text fill="#000000" font-family="sans-serif" font-size="14" lengthAdjust="spacing" textLength="49.8203" x="738" y="915.1426">id: Long</text><g data-visibility-modifier="PUBLIC_FIELD"><ellipse cx="729" cy="928.5234" fill="none" rx="3" ry="3" style="stroke:#038048;stroke-width:1;"/></g><text fill="#000000" font-family="sans-serif" font-size="14" lengthAdjust="spacing" textLength="140.0615" x="738" y="932.752">nombreUsuario: String</text><g data-visibility-modifier="PUBLIC_FIELD"><ellipse cx="729" cy="946.1328" fill="none" rx="3" ry="3" style="stroke:#038048;stroke-width:1;"/></g><text fill="#000000" font-family="sans-serif" font-size="14" lengthAdjust="spacing" textLength="146.3027" x="738" y="950.3613">contrasenaHash: String</text><g data-visibility-modifier="PUBLIC_FIELD"><ellipse cx="729" cy="963.7422" fill="none" rx="3" ry="3" style="stroke:#038048;stroke-width:1;"/></g><text fill="#000000" font-family="sans-serif" font-size="14" lengthAdjust="spacing" textLength="44.3447" x="738" y="967.9707">rol: Rol</text><g data-visibility-modifier="PUBLIC_FIELD"><ellipse cx="729" cy="981.3516" fill="none" rx="3" ry="3" style="stroke:#038048;stroke-width:1;"/></g><text fill="#000000" font-family="sans-serif" font-size="14" lengthAdjust="spacing" textLength="94.1787" x="738" y="985.5801">activo: boolean</text><line style="stroke:#181818;stroke-width:0.5;" x1="719" x2="889.3027" y1="992.6563" y2="992.6563"/></g><!--class Rol--><g class="entity" data-qualified-name="Persistencia y dominio.Rol" data-source-line="55" id="ent0017"><rect fill="#F1F1F1" height="83.2188" rx="2.5" ry="2.5" style="stroke:#181818;stroke-width:0.5;" width="118.5586" x="744.5" y="1060.6094"/><ellipse cx="789.0259" cy="1076.6094" fill="#EB937F" rx="11" ry="11" style="stroke:#181818;stroke-width:1;"/><path d="M787.8853,1077.4063 L787.8853,1079.9063 L792.2134,1079.9063 L792.2134,1078.9844 Q792.2134,1078.375 792.4478,1078.1094 Q792.6978,1077.8438 793.0728,1077.8438 Q793.4478,1077.8438 793.6821,1078.1094 Q793.9165,1078.375 793.9165,1078.9844 L793.9165,1081.6094 L785.9165,1081.6094 Q785.2915,1081.6094 785.0259,1081.375 Q784.7759,1081.1406 784.7759,1080.75 Q784.7759,1080.375 785.0415,1080.1406 Q785.3071,1079.9063 785.9165,1079.9063 L786.1821,1079.9063 L786.1821,1073.25 L785.9165,1073.25 Q785.2915,1073.25 785.0259,1073.0156 Q784.7759,1072.7813 784.7759,1072.3906 Q784.7759,1072.0156 785.0259,1071.7813 Q785.2915,1071.5469 785.9165,1071.5469 L793.5415,1071.5469 L793.5415,1074.1406 Q793.5415,1074.75 793.3071,1075.0156 Q793.0884,1075.2656 792.6978,1075.2656 Q792.3228,1075.2656 792.0884,1075.0156 Q791.854,1074.75 791.854,1074.1406 L791.854,1073.25 L787.8853,1073.25 L787.8853,1075.7031 L789.3696,1075.7031 Q789.3696,1075.0469 789.4946,1074.8594 Q789.7603,1074.4531 790.229,1074.4531 Q790.604,1074.4531 790.8384,1074.7188 Q791.0728,1074.9688 791.0728,1075.5781 L791.0728,1077.5469 Q791.0728,1078.0938 790.9478,1078.2813 Q790.6821,1078.6719 790.229,1078.6719 Q789.7603,1078.6719 789.4946,1078.2656 Q789.3696,1078.0781 789.3696,1077.4063 L787.8853,1077.4063 Z " fill="#000000"/><text fill="#000000" font-family="sans-serif" font-size="14" lengthAdjust="spacing" textLength="21.0068" x="809.5259" y="1082.3379">Rol</text><line style="stroke:#181818;stroke-width:0.5;" x1="745.5" x2="862.0586" y1="1092.6094" y2="1092.6094"/><text fill="#000000" font-family="sans-serif" font-size="14" lengthAdjust="spacing" textLength="106.5586" x="750.5" y="1111.1426">COORDINADOR</text><text fill="#000000" font-family="sans-serif" font-size="14" lengthAdjust="spacing" textLength="105.793" x="750.5" y="1128.752">INVESTIGADOR</text><line style="stroke:#181818;stroke-width:0.5;" x1="745.5" x2="862.0586" y1="1135.8281" y2="1135.8281"/></g><!--class LoginRequest--><g class="entity" data-qualified-name="Contratos API.LoginRequest" data-source-line="62" id="ent0019"><rect fill="#F1F1F1" height="83.2188" rx="2.5" ry="2.5" style="stroke:#181818;stroke-width:0.5;" width="139.6201" x="195" y="551.6094"/><ellipse cx="219.5493" cy="567.6094" fill="#ADD1B2" rx="11" ry="11" style="stroke:#181818;stroke-width:1;"/><path d="M222.3149,563.4844 Q222.4712,563.2656 222.6587,563.1563 Q222.8462,563.0469 223.0649,563.0469 Q223.4399,563.0469 223.6743,563.3125 Q223.9087,563.5625 223.9087,564.1719 L223.9087,565.625 Q223.9087,566.2344 223.6743,566.5 Q223.4399,566.7656 223.0649,566.7656 Q222.7212,566.7656 222.5181,566.5625 Q222.3149,566.375 222.2056,565.8594 Q222.1587,565.5 221.9712,565.3125 Q221.6431,564.9375 221.0337,564.7188 Q220.4243,564.5 219.7993,564.5 Q219.0337,564.5 218.3931,564.8281 Q217.7681,565.1563 217.2681,565.9063 Q216.7837,566.6563 216.7837,567.6875 L216.7837,568.7813 Q216.7837,570.0156 217.6743,570.8438 Q218.5649,571.6563 220.1587,571.6563 Q221.0962,571.6563 221.7524,571.4063 Q222.1431,571.25 222.5649,570.8125 Q222.8306,570.5469 222.9712,570.4688 Q223.1274,570.3906 223.3306,570.3906 Q223.6587,570.3906 223.9087,570.6563 Q224.1743,570.9063 224.1743,571.25 Q224.1743,571.5938 223.8306,572 Q223.3306,572.5781 222.5337,572.9063 Q221.4556,573.3594 220.1587,573.3594 Q218.6431,573.3594 217.4399,572.7344 Q216.4556,572.2344 215.7681,571.1719 Q215.0806,570.0938 215.0806,568.8125 L215.0806,567.6563 Q215.0806,566.3281 215.6899,565.1875 Q216.3149,564.0313 217.4087,563.4219 Q218.5024,562.7969 219.7368,562.7969 Q220.4712,562.7969 221.1118,562.9688 Q221.7681,563.125 222.3149,563.4844 Z " fill="#000000"/><text fill="#000000" font-family="sans-serif" font-size="14" lengthAdjust="spacing" textLength="86.3994" x="235.6714" y="573.3379">LoginRequest</text><line style="stroke:#181818;stroke-width:0.5;" x1="196" x2="333.6201" y1="583.6094" y2="583.6094"/><g data-visibility-modifier="PUBLIC_FIELD"><ellipse cx="206" cy="597.9141" fill="none" rx="3" ry="3" style="stroke:#038048;stroke-width:1;"/></g><text fill="#000000" font-family="sans-serif" font-size="14" lengthAdjust="spacing" textLength="90.2686" x="215" y="602.1426">usuario: String</text><g data-visibility-modifier="PUBLIC_FIELD"><ellipse cx="206" cy="615.5234" fill="none" rx="3" ry="3" style="stroke:#038048;stroke-width:1;"/></g><text fill="#000000" font-family="sans-serif" font-size="14" lengthAdjust="spacing" textLength="113.6201" x="215" y="619.752">contrasena: String</text><line style="stroke:#181818;stroke-width:0.5;" x1="196" x2="333.6201" y1="626.8281" y2="626.8281"/></g><!--class SesionResponse--><g class="entity" data-qualified-name="Contratos API.SesionResponse" data-source-line="66" id="ent0020"><rect fill="#F1F1F1" height="83.2188" rx="2.5" ry="2.5" style="stroke:#181818;stroke-width:0.5;" width="137.8477" x="22" y="551.6094"/><ellipse cx="37" cy="567.6094" fill="#ADD1B2" rx="11" ry="11" style="stroke:#181818;stroke-width:1;"/><path d="M39.7656,563.4844 Q39.9219,563.2656 40.1094,563.1563 Q40.2969,563.0469 40.5156,563.0469 Q40.8906,563.0469 41.125,563.3125 Q41.3594,563.5625 41.3594,564.1719 L41.3594,565.625 Q41.3594,566.2344 41.125,566.5 Q40.8906,566.7656 40.5156,566.7656 Q40.1719,566.7656 39.9688,566.5625 Q39.7656,566.375 39.6563,565.8594 Q39.6094,565.5 39.4219,565.3125 Q39.0938,564.9375 38.4844,564.7188 Q37.875,564.5 37.25,564.5 Q36.4844,564.5 35.8438,564.8281 Q35.2188,565.1563 34.7188,565.9063 Q34.2344,566.6563 34.2344,567.6875 L34.2344,568.7813 Q34.2344,570.0156 35.125,570.8438 Q36.0156,571.6563 37.6094,571.6563 Q38.5469,571.6563 39.2031,571.4063 Q39.5938,571.25 40.0156,570.8125 Q40.2813,570.5469 40.4219,570.4688 Q40.5781,570.3906 40.7813,570.3906 Q41.1094,570.3906 41.3594,570.6563 Q41.625,570.9063 41.625,571.25 Q41.625,571.5938 41.2813,572 Q40.7813,572.5781 39.9844,572.9063 Q38.9063,573.3594 37.6094,573.3594 Q36.0938,573.3594 34.8906,572.7344 Q33.9063,572.2344 33.2188,571.1719 Q32.5313,570.0938 32.5313,568.8125 L32.5313,567.6563 Q32.5313,566.3281 33.1406,565.1875 Q33.7656,564.0313 34.8594,563.4219 Q35.9531,562.7969 37.1875,562.7969 Q37.9219,562.7969 38.5625,562.9688 Q39.2188,563.125 39.7656,563.4844 Z " fill="#000000"/><text fill="#000000" font-family="sans-serif" font-size="14" lengthAdjust="spacing" textLength="105.8477" x="51" y="573.3379">SesionResponse</text><line style="stroke:#181818;stroke-width:0.5;" x1="23" x2="158.8477" y1="583.6094" y2="583.6094"/><g data-visibility-modifier="PUBLIC_FIELD"><ellipse cx="33" cy="597.9141" fill="none" rx="3" ry="3" style="stroke:#038048;stroke-width:1;"/></g><text fill="#000000" font-family="sans-serif" font-size="14" lengthAdjust="spacing" textLength="90.2686" x="42" y="602.1426">usuario: String</text><g data-visibility-modifier="PUBLIC_FIELD"><ellipse cx="33" cy="615.5234" fill="none" rx="3" ry="3" style="stroke:#038048;stroke-width:1;"/></g><text fill="#000000" font-family="sans-serif" font-size="14" lengthAdjust="spacing" textLength="44.3447" x="42" y="619.752">rol: Rol</text><line style="stroke:#181818;stroke-width:0.5;" x1="23" x2="158.8477" y1="626.8281" y2="626.8281"/></g><!--class PanelPrincipalResponse--><g class="entity" data-qualified-name="Contratos API.PanelPrincipalResponse" data-source-line="70" id="ent0021"><rect fill="#F1F1F1" height="83.2188" rx="2.5" ry="2.5" style="stroke:#181818;stroke-width:0.5;" width="204.999" x="370.5" y="551.6094"/><ellipse cx="394.7079" cy="567.6094" fill="#ADD1B2" rx="11" ry="11" style="stroke:#181818;stroke-width:1;"/><path d="M397.4735,563.4844 Q397.6297,563.2656 397.8172,563.1563 Q398.0047,563.0469 398.2235,563.0469 Q398.5985,563.0469 398.8329,563.3125 Q399.0672,563.5625 399.0672,564.1719 L399.0672,565.625 Q399.0672,566.2344 398.8329,566.5 Q398.5985,566.7656 398.2235,566.7656 Q397.8797,566.7656 397.6766,566.5625 Q397.4735,566.375 397.3641,565.8594 Q397.3172,565.5 397.1297,565.3125 Q396.8016,564.9375 396.1922,564.7188 Q395.5829,564.5 394.9579,564.5 Q394.1922,564.5 393.5516,564.8281 Q392.9266,565.1563 392.4266,565.9063 Q391.9422,566.6563 391.9422,567.6875 L391.9422,568.7813 Q391.9422,570.0156 392.8329,570.8438 Q393.7235,571.6563 395.3172,571.6563 Q396.2547,571.6563 396.911,571.4063 Q397.3016,571.25 397.7235,570.8125 Q397.9891,570.5469 398.1297,570.4688 Q398.286,570.3906 398.4891,570.3906 Q398.8172,570.3906 399.0672,570.6563 Q399.3329,570.9063 399.3329,571.25 Q399.3329,571.5938 398.9891,572 Q398.4891,572.5781 397.6922,572.9063 Q396.6141,573.3594 395.3172,573.3594 Q393.8016,573.3594 392.5985,572.7344 Q391.6141,572.2344 390.9266,571.1719 Q390.2391,570.0938 390.2391,568.8125 L390.2391,567.6563 Q390.2391,566.3281 390.8485,565.1875 Q391.4735,564.0313 392.5672,563.4219 Q393.661,562.7969 394.8954,562.7969 Q395.6297,562.7969 396.2704,562.9688 Q396.9266,563.125 397.4735,563.4844 Z " fill="#000000"/><text fill="#000000" font-family="sans-serif" font-size="14" lengthAdjust="spacing" textLength="152.5371" x="410.7541" y="573.3379">PanelPrincipalResponse</text><line style="stroke:#181818;stroke-width:0.5;" x1="371.5" x2="574.499" y1="583.6094" y2="583.6094"/><g data-visibility-modifier="PUBLIC_FIELD"><ellipse cx="381.5" cy="597.9141" fill="none" rx="3" ry="3" style="stroke:#038048;stroke-width:1;"/></g><text fill="#000000" font-family="sans-serif" font-size="14" lengthAdjust="spacing" textLength="44.3447" x="390.5" y="602.1426">rol: Rol</text><g data-visibility-modifier="PUBLIC_FIELD"><ellipse cx="381.5" cy="615.5234" fill="none" rx="3" ry="3" style="stroke:#038048;stroke-width:1;"/></g><text fill="#000000" font-family="sans-serif" font-size="14" lengthAdjust="spacing" textLength="178.999" x="390.5" y="619.752">acciones: List&lt;AccionPanel&gt;</text><line style="stroke:#181818;stroke-width:0.5;" x1="371.5" x2="574.499" y1="626.8281" y2="626.8281"/></g><!--class AccionPanel--><g class="entity" data-qualified-name="Contratos API.AccionPanel" data-source-line="74" id="ent0022"><rect fill="#F1F1F1" height="100.8281" rx="2.5" ry="2.5" style="stroke:#181818;stroke-width:0.5;" width="120.1719" x="413" y="703.6094"/><ellipse cx="432.6551" cy="719.6094" fill="#ADD1B2" rx="11" ry="11" style="stroke:#181818;stroke-width:1;"/><path d="M435.4208,715.4844 Q435.577,715.2656 435.7645,715.1563 Q435.952,715.0469 436.1708,715.0469 Q436.5458,715.0469 436.7801,715.3125 Q437.0145,715.5625 437.0145,716.1719 L437.0145,717.625 Q437.0145,718.2344 436.7801,718.5 Q436.5458,718.7656 436.1708,718.7656 Q435.827,718.7656 435.6239,718.5625 Q435.4208,718.375 435.3114,717.8594 Q435.2645,717.5 435.077,717.3125 Q434.7489,716.9375 434.1395,716.7188 Q433.5301,716.5 432.9051,716.5 Q432.1395,716.5 431.4989,716.8281 Q430.8739,717.1563 430.3739,717.9063 Q429.8895,718.6563 429.8895,719.6875 L429.8895,720.7813 Q429.8895,722.0156 430.7801,722.8438 Q431.6708,723.6563 433.2645,723.6563 Q434.202,723.6563 434.8583,723.4063 Q435.2489,723.25 435.6708,722.8125 Q435.9364,722.5469 436.077,722.4688 Q436.2333,722.3906 436.4364,722.3906 Q436.7645,722.3906 437.0145,722.6563 Q437.2801,722.9063 437.2801,723.25 Q437.2801,723.5938 436.9364,724 Q436.4364,724.5781 435.6395,724.9063 Q434.5614,725.3594 433.2645,725.3594 Q431.7489,725.3594 430.5458,724.7344 Q429.5614,724.2344 428.8739,723.1719 Q428.1864,722.0938 428.1864,720.8125 L428.1864,719.6563 Q428.1864,718.3281 428.7958,717.1875 Q429.4208,716.0313 430.5145,715.4219 Q431.6083,714.7969 432.8426,714.7969 Q433.577,714.7969 434.2176,714.9688 Q434.8739,715.125 435.4208,715.4844 Z " fill="#000000"/><text fill="#000000" font-family="sans-serif" font-size="14" lengthAdjust="spacing" textLength="77.8271" x="447.6896" y="725.3379">AccionPanel</text><line style="stroke:#181818;stroke-width:0.5;" x1="414" x2="532.1719" y1="735.6094" y2="735.6094"/><g data-visibility-modifier="PUBLIC_FIELD"><ellipse cx="424" cy="749.9141" fill="none" rx="3" ry="3" style="stroke:#038048;stroke-width:1;"/></g><text fill="#000000" font-family="sans-serif" font-size="14" lengthAdjust="spacing" textLength="85.6064" x="433" y="754.1426">codigo: String</text><g data-visibility-modifier="PUBLIC_FIELD"><ellipse cx="424" cy="767.5234" fill="none" rx="3" ry="3" style="stroke:#038048;stroke-width:1;"/></g><text fill="#000000" font-family="sans-serif" font-size="14" lengthAdjust="spacing" textLength="94.1719" x="433" y="771.752">etiqueta: String</text><g data-visibility-modifier="PUBLIC_FIELD"><ellipse cx="424" cy="785.1328" fill="none" rx="3" ry="3" style="stroke:#038048;stroke-width:1;"/></g><text fill="#000000" font-family="sans-serif" font-size="14" lengthAdjust="spacing" textLength="68.4756" x="433" y="789.3613">ruta: String</text><line style="stroke:#181818;stroke-width:0.5;" x1="414" x2="532.1719" y1="796.4375" y2="796.4375"/></g><!--link LoginPage to AuthServiceClient--><g class="link" data-entity-1="ent0002" data-entity-2="ent0005" data-link-type="dependency" data-source-line="81" id="lnk23"><path codeLine="81" d="M865.96,128.6894 C845.96,145.1494 822.1607,164.7321 797.2507,185.2321" fill="none" id="LoginPage-to-AuthServiceClient" style="stroke:#181818;stroke-width:1;"/><polygon fill="#181818" points="793.39,188.4094,802.8811,185.7789,797.2507,185.2321,797.7975,179.6018,793.39,188.4094" style="stroke:#181818;stroke-width:1;stroke-linejoin:miter;stroke-miterlimit:10;"/></g><!--link PanelPrincipalPage to PanelPrincipalClient--><g class="link" data-entity-1="ent0003" data-entity-2="ent0006" data-link-type="dependency" data-source-line="82" id="lnk24"><path codeLine="82" d="M1072,128.6894 C1072,150.0394 1072,176.9994 1072,200.8694" fill="none" id="PanelPrincipalPage-to-PanelPrincipalClient" style="stroke:#181818;stroke-width:1;"/><polygon fill="#181818" points="1072,205.8694,1076,196.8694,1072,200.8694,1068,196.8694,1072,205.8694" style="stroke:#181818;stroke-width:1;stroke-linejoin:miter;stroke-miterlimit:10;"/></g><!--link ConfirmarCierreSesionModal to AuthServiceClient--><g class="link" data-entity-1="ent0004" data-entity-2="ent0005" data-link-type="dependency" data-source-line="83" id="lnk25"><path codeLine="83" d="M708.23,128.6894 C711.95,145.1494 716.0062,163.0327 720.6462,183.5327" fill="none" id="ConfirmarCierreSesionModal-to-AuthServiceClient" style="stroke:#181818;stroke-width:1;"/><polygon fill="#181818" points="721.75,188.4094,723.6645,178.7484,720.6462,183.5327,715.8619,180.5144,721.75,188.4094" style="stroke:#181818;stroke-width:1;stroke-linejoin:miter;stroke-miterlimit:10;"/></g><!--link AuthServiceClient to AuthController--><g class="link" data-entity-1="ent0005" data-entity-2="ent0008" data-link-type="dependency" data-source-line="84" id="lnk26"><path codeLine="84" d="M730.16,289.7894 C728.8,313.5394 727.4641,336.8975 726.1141,360.6175" fill="none" id="AuthServiceClient-to-AuthController" style="stroke:#181818;stroke-width:1;"/><polygon fill="#181818" points="725.83,365.6094,730.3349,356.8512,726.1141,360.6175,722.3479,356.3966,725.83,365.6094" style="stroke:#181818;stroke-width:1;stroke-linejoin:miter;stroke-miterlimit:10;"/></g><!--link PanelPrincipalClient to PanelPrincipalController--><g class="link" data-entity-1="ent0006" data-entity-2="ent0009" data-link-type="dependency" data-source-line="85" id="lnk27"><path codeLine="85" d="M1073.83,272.2094 C1075.63,303.6794 1078.0748,346.4175 1079.8748,377.9275" fill="none" id="PanelPrincipalClient-to-PanelPrincipalController" style="stroke:#181818;stroke-width:1;"/><polygon fill="#181818" points="1080.16,382.9194,1083.6402,373.7059,1079.8748,377.9275,1075.6532,374.1622,1080.16,382.9194" style="stroke:#181818;stroke-width:1;stroke-linejoin:miter;stroke-miterlimit:10;"/></g><!--link AuthController to AuthService--><g class="link" data-entity-1="ent0008" data-entity-2="ent0011" data-link-type="dependency" data-source-line="86" id="lnk28"><path codeLine="86" d="M736.34,466.7894 C744.38,496.6994 753.0739,529.0803 760.0739,555.1603" fill="none" id="AuthController-to-AuthService" style="stroke:#181818;stroke-width:1;"/><polygon fill="#181818" points="761.37,559.9894,762.9002,550.2601,760.0739,555.1603,755.1737,552.334,761.37,559.9894" style="stroke:#181818;stroke-width:1;stroke-linejoin:miter;stroke-miterlimit:10;"/></g><!--link AuthController to SesionService--><g class="link" data-entity-1="ent0008" data-entity-2="ent0012" data-link-type="dependency" data-source-line="87" id="lnk29"><path codeLine="87" d="M841.18,466.7494 C872.62,479.9494 898,490.6094 898,490.6094 C898,490.6094 926,498.6094 926,498.6094 C926,498.6094 957.4312,517.4491 994.6912,539.7791" fill="none" id="AuthController-to-SesionService" style="stroke:#181818;stroke-width:1;"/><polygon fill="#181818" points="998.98,542.3494,993.3164,534.2918,994.6912,539.7791,989.204,541.1539,998.98,542.3494" style="stroke:#181818;stroke-width:1;stroke-linejoin:miter;stroke-miterlimit:10;"/></g><!--link PanelPrincipalController to SesionService--><g class="link" data-entity-1="ent0009" data-entity-2="ent0012" data-link-type="dependency" data-source-line="88" id="lnk30"><path codeLine="88" d="M1082,449.2094 C1082,475.2594 1082,507.4394 1082,537.3394" fill="none" id="PanelPrincipalController-to-SesionService" style="stroke:#181818;stroke-width:1;"/><polygon fill="#181818" points="1082,542.3394,1086,533.3394,1082,537.3394,1078,533.3394,1082,542.3394" style="stroke:#181818;stroke-width:1;stroke-linejoin:miter;stroke-miterlimit:10;"/></g><!--link PanelPrincipalController to PanelPrincipalService--><g class="link" data-entity-1="ent0009" data-entity-2="ent0013" data-link-type="dependency" data-source-line="89" id="lnk31"><path codeLine="89" d="M1146.2,449.2094 C1209.25,480.7294 1300.4279,526.3233 1363.4479,557.8333" fill="none" id="PanelPrincipalController-to-PanelPrincipalService" style="stroke:#181818;stroke-width:1;"/><polygon fill="#181818" points="1367.92,560.0694,1361.659,552.4667,1363.4479,557.8333,1358.0813,559.6222,1367.92,560.0694" style="stroke:#181818;stroke-width:1;stroke-linejoin:miter;stroke-miterlimit:10;"/></g><!--link AuthService to UsuarioRepository--><g class="link" data-entity-1="ent0011" data-entity-2="ent0015" data-link-type="dependency" data-source-line="90" id="lnk32"><path codeLine="90" d="M776.88,626.2894 C782.78,653.8694 790.1837,688.5201 796.0837,716.0901" fill="none" id="AuthService-to-UsuarioRepository" style="stroke:#181818;stroke-width:1;"/><polygon fill="#181818" points="797.13,720.9794,799.1581,711.3416,796.0837,716.0901,791.3352,713.0157,797.13,720.9794" style="stroke:#181818;stroke-width:1;stroke-linejoin:miter;stroke-miterlimit:10;"/></g><!--link UsuarioRepository to Usuario--><g class="link" data-entity-1="ent0015" data-entity-2="ent0016" data-link-type="dependency" data-source-line="91" id="lnk33"><path codeLine="91" d="M804,787.4794 C804,808.9794 804,832.9894 804,859.3494" fill="none" id="UsuarioRepository-to-Usuario" style="stroke:#181818;stroke-width:1;"/><polygon fill="#181818" points="804,864.3494,808,855.3494,804,859.3494,800,855.3494,804,864.3494" style="stroke:#181818;stroke-width:1;stroke-linejoin:miter;stroke-miterlimit:10;"/></g><!--link Usuario to Rol--><g class="link" data-entity-1="ent0016" data-entity-2="ent0017" data-link-type="dependency" data-source-line="92" id="lnk34"><path codeLine="92" d="M804,1000.7694 C804,1020.9794 804,1037.5294 804,1055.4494" fill="none" id="Usuario-to-Rol" style="stroke:#181818;stroke-width:1;"/><polygon fill="#181818" points="804,1060.4494,808,1051.4494,804,1055.4494,800,1051.4494,804,1060.4494" style="stroke:#181818;stroke-width:1;stroke-linejoin:miter;stroke-miterlimit:10;"/></g><!--link AuthController to LoginRequest--><g class="link" data-entity-1="ent0008" data-entity-2="ent0019" data-link-type="dependency" data-source-line="93" id="lnk35"><path codeLine="93" d="M565.28,451.8494 C464.65,474.0194 353,498.6094 353,498.6094 C353,498.6094 330.4877,522.5392 306.7677,547.7292" fill="none" id="AuthController-to-LoginRequest" style="stroke:#181818;stroke-width:1;stroke-dasharray:7,7;"/><polygon fill="#181818" points="303.34,551.3694,312.422,547.5593,306.7677,547.7292,306.5978,542.0749,303.34,551.3694" style="stroke:#181818;stroke-width:1;stroke-linejoin:miter;stroke-miterlimit:10;"/></g><!--link AuthController to SesionResponse--><g class="link" data-entity-1="ent0008" data-entity-2="ent0020" data-link-type="dependency" data-source-line="94" id="lnk36"><path codeLine="94" d="M565.36,440.6794 C404.4,464.7494 178,498.6094 178,498.6094 C178,498.6094 155.7561,522.519 132.3161,547.709" fill="none" id="AuthController-to-SesionResponse" style="stroke:#181818;stroke-width:1;stroke-dasharray:7,7;"/><polygon fill="#181818" points="128.91,551.3694,137.9693,547.5055,132.3161,547.709,132.1127,542.0558,128.91,551.3694" style="stroke:#181818;stroke-width:1;stroke-linejoin:miter;stroke-miterlimit:10;"/></g><!--link PanelPrincipalController to PanelPrincipalResponse--><g class="link" data-entity-1="ent0009" data-entity-2="ent0021" data-link-type="dependency" data-source-line="95" id="lnk37"><path codeLine="95" d="M1001.83,449.1294 C952.25,468.9394 898,490.6094 898,490.6094 C898,490.6094 616,498.6094 616,498.6094 C616,498.6094 578.025,523.4433 539.495,548.6333" fill="none" id="PanelPrincipalController-to-PanelPrincipalResponse" style="stroke:#181818;stroke-width:1;stroke-dasharray:7,7;"/><polygon fill="#181818" points="535.31,551.3694,545.0318,549.7925,539.495,548.6333,540.6541,543.0965,535.31,551.3694" style="stroke:#181818;stroke-width:1;stroke-linejoin:miter;stroke-miterlimit:10;"/></g><!--link PanelPrincipalResponse to AccionPanel--><g class="link" data-entity-1="ent0021" data-entity-2="ent0022" data-link-type="dependency" data-source-line="96" id="lnk38"><path codeLine="96" d="M473,634.6394 C473,655.6194 473,676.4094 473,698.5594" fill="none" id="PanelPrincipalResponse-to-AccionPanel" style="stroke:#181818;stroke-width:1;"/><polygon fill="#181818" points="473,703.5594,477,694.5594,473,698.5594,469,694.5594,473,703.5594" style="stroke:#181818;stroke-width:1;stroke-linejoin:miter;stroke-miterlimit:10;"/></g><?plantuml-src hLNDRjim3BxxAOIUEcmji6jH14ZJRGtGDO6pzQx8R4fK4Jr93X0CVQXXZz0N6_sJMBPbh0MQaoDI7ybF7qdtX2QNLcw5HWD-duF8IU_BFqdYqMiGCoqTE961oD31onyIPsBkmKg5Bt-D-7mXLk2gpxqmSWURnf1RD0fpgPCab-f9Ra2SVBLaF9XCf22LFn6_4y4_nH6SkAKDcYMx1MTBQK0l3q0zuupC0zgjj3C4Qw7CWintoZXYwpGj_ECAx0uLp3I2yKtCylSH3IgKjhvvgYnam96a1lUXhefC2Yuduw2zf3ZOyGxxxGYprafhhWy2SmJcURJ2OOeDtbGfHW5N8dQlz92V0xQdoxb8lwn-Y5Nv5XjnHTJZl6I7QVIMj0OxJatrDYdyAi3vrr9puttEd-NtUxCKpRZ1xBg-YQzQ9qYLs6MkKTLI7dBMA2eCBmiEx_cAFIrS8ItI9w7AHBbxZEGqVjQdWzhgqYE8hCSZcGta-yXogdnHK_CcsYCfzjHvZIKGhhc1Jlc1EC0jEdzPcokmIOJs9LZ7RbNhyGp9QClYemFfo0F3FaYEsn2OGauEFTbzcCa3ckngVqVRjON6CI1jaNlEGEhBnZGPbDeOEYsGSVvaDks92U6PFL-sLV04n-U-aUvnQ6TABaHAEX2DyhXZf3MH1cc2hC0Ksz8tI6YsMAJNyxlfzI8zditlxhd1vz-EXrrggqwHdXNDio0oRfkM3gik_bzTnpQKya5EhqBjS3AklHXcZCvQX-Ew2zguDNQQZZBSHF84ZqoLbv4A2jzdX9_WkCt4sTbak8MIuMQh76Fh81bVT2FWmwLty6j7PnBTF94SsXkzRT6B7JDtPbioEiNVw1eTIs7HbTTWN2J30HBu7QpLMQcgNZddvvDEpyJilN4wMaJfExALHcHVSTqgDla7?></g></svg>