<?xml version="1.0" encoding="us-ascii" standalone="no"?><svg xmlns="http://www.w3.org/2000/svg" xmlns:xlink="http://www.w3.org/1999/xlink" contentStyleType="text/css" height="846px" preserveAspectRatio="none" style="width:1462px;height:846px;background:#FFFFFF;" version="1.1" viewBox="0 0 1462 846" width="1462px" zoomAndPan="magnify"><defs/><g><text fill="#000000" font-family="sans-serif" font-size="14" font-weight="bold" lengthAdjust="spacing" textLength="461" x="501.75" y="29.5332">Diagrama de secuencia - Abrir opciones de perfil del Investigador</text><rect fill="#FFFFFF" height="600.5156" style="stroke:#181818;stroke-width:1.0;" width="10" x="324.5" y="153.5703"/><rect fill="#FFFFFF" height="314.8672" style="stroke:#181818;stroke-width:1.0;" width="10" x="515.5" y="243.625"/><rect fill="#FFFFFF" height="55.7031" style="stroke:#181818;stroke-width:1.0;" width="10" x="753.5" y="273.9766"/><rect fill="#FFFFFF" height="151.7578" style="stroke:#181818;stroke-width:1.0;" width="10" x="862" y="360.0313"/><rect fill="#FFFFFF" height="30.3516" style="stroke:#181818;stroke-width:1.0;" width="10" x="1074" y="451.0859"/><rect fill="none" height="458.1094" style="stroke:#000000;stroke-width:1.5;" width="1445.5" x="10" y="288.9766"/><line style="stroke:#181818;stroke-width:0.5;stroke-dasharray:5.0,5.0;" x1="61" x2="61" y1="121.2188" y2="764.0859"/><line style="stroke:#181818;stroke-width:0.5;stroke-dasharray:5.0,5.0;" x1="329" x2="329" y1="121.2188" y2="764.0859"/><line style="stroke:#181818;stroke-width:0.5;stroke-dasharray:5.0,5.0;" x1="520.5" x2="520.5" y1="121.2188" y2="764.0859"/><line style="stroke:#181818;stroke-width:0.5;stroke-dasharray:5.0,5.0;" x1="758.5" x2="758.5" y1="121.2188" y2="764.0859"/><line style="stroke:#181818;stroke-width:0.5;stroke-dasharray:5.0,5.0;" x1="866.5" x2="866.5" y1="121.2188" y2="764.0859"/><line style="stroke:#181818;stroke-width:0.5;stroke-dasharray:5.0,5.0;" x1="1079" x2="1079" y1="121.2188" y2="764.0859"/><line style="stroke:#181818;stroke-width:0.5;stroke-dasharray:5.0,5.0;" x1="1395.5" x2="1395.5" y1="121.2188" y2="764.0859"/><text fill="#000000" font-family="sans-serif" font-size="14" lengthAdjust="spacing" textLength="77" x="20" y="118.1426">Investigador</text><ellipse cx="61.5" cy="52.1094" fill="#E2E2F0" rx="8" ry="8" style="stroke:#181818;stroke-width:0.5;"/><path d="M61.5,60.1094 L61.5,87.1094 M48.5,68.1094 L74.5,68.1094 M61.5,87.1094 L48.5,102.1094 M61.5,87.1094 L74.5,102.1094 " fill="none" style="stroke:#181818;stroke-width:0.5;"/><text fill="#000000" font-family="sans-serif" font-size="14" lengthAdjust="spacing" textLength="77" x="20" y="777.6191">Investigador</text><ellipse cx="61.5" cy="789.1953" fill="#E2E2F0" rx="8" ry="8" style="stroke:#181818;stroke-width:0.5;"/><path d="M61.5,797.1953 L61.5,824.1953 M48.5,805.1953 L74.5,805.1953 M61.5,824.1953 L48.5,839.1953 M61.5,824.1953 L74.5,839.1953 " fill="none" style="stroke:#181818;stroke-width:0.5;"/><rect fill="#E2E2F0" height="49.2188" rx="2.5" ry="2.5" style="stroke:#181818;stroke-width:0.5;" width="79" x="290" y="71"/><text fill="#000000" font-family="sans-serif" font-size="14" lengthAdjust="spacing" textLength="65" x="297" y="92.5332">PerfilPage</text><text fill="#000000" font-family="sans-serif" font-size="14" lengthAdjust="spacing" textLength="47" x="306" y="110.1426">(React)</text><rect fill="#E2E2F0" height="49.2188" rx="2.5" ry="2.5" style="stroke:#181818;stroke-width:0.5;" width="79" x="290" y="763.0859"/><text fill="#000000" font-family="sans-serif" font-size="14" lengthAdjust="spacing" textLength="65" x="297" y="784.6191">PerfilPage</text><text fill="#000000" font-family="sans-serif" font-size="14" lengthAdjust="spacing" textLength="47" x="306" y="802.2285">(React)</text><rect fill="#E2E2F0" height="49.2188" rx="2.5" ry="2.5" style="stroke:#181818;stroke-width:0.5;" width="108" x="466.5" y="71"/><text fill="#000000" font-family="sans-serif" font-size="14" lengthAdjust="spacing" textLength="94" x="473.5" y="92.5332">PerfilController</text><text fill="#000000" font-family="sans-serif" font-size="14" lengthAdjust="spacing" textLength="84" x="478.5" y="110.1426">(Spring Boot)</text><rect fill="#E2E2F0" height="49.2188" rx="2.5" ry="2.5" style="stroke:#181818;stroke-width:0.5;" width="108" x="466.5" y="763.0859"/><text fill="#000000" font-family="sans-serif" font-size="14" lengthAdjust="spacing" textLength="94" x="473.5" y="784.6191">PerfilController</text><text fill="#000000" font-family="sans-serif" font-size="14" lengthAdjust="spacing" textLength="84" x="478.5" y="802.2285">(Spring Boot)</text><rect fill="#E2E2F0" height="31.6094" rx="2.5" ry="2.5" style="stroke:#181818;stroke-width:0.5;" width="104" x="706.5" y="88.6094"/><text fill="#000000" font-family="sans-serif" font-size="14" lengthAdjust="spacing" textLength="90" x="713.5" y="110.1426">SesionService</text><rect fill="#E2E2F0" height="31.6094" rx="2.5" ry="2.5" style="stroke:#181818;stroke-width:0.5;" width="104" x="706.5" y="763.0859"/><text fill="#000000" font-family="sans-serif" font-size="14" lengthAdjust="spacing" textLength="90" x="713.5" y="784.6191">SesionService</text><rect fill="#E2E2F0" height="31.6094" rx="2.5" ry="2.5" style="stroke:#181818;stroke-width:0.5;" width="93" x="820.5" y="88.6094"/><text fill="#000000" font-family="sans-serif" font-size="14" lengthAdjust="spacing" textLength="79" x="827.5" y="110.1426">PerfilService</text><rect fill="#E2E2F0" height="31.6094" rx="2.5" ry="2.5" style="stroke:#181818;stroke-width:0.5;" width="93" x="820.5" y="763.0859"/><text fill="#000000" font-family="sans-serif" font-size="14" lengthAdjust="spacing" textLength="79" x="827.5" y="784.6191">PerfilService</text><rect fill="#E2E2F0" height="31.6094" rx="2.5" ry="2.5" style="stroke:#181818;stroke-width:0.5;" width="114" x="1022" y="88.6094"/><text fill="#000000" font-family="sans-serif" font-size="14" lengthAdjust="spacing" textLength="100" x="1029" y="110.1426">PerfilRepository</text><rect fill="#E2E2F0" height="31.6094" rx="2.5" ry="2.5" style="stroke:#181818;stroke-width:0.5;" width="114" x="1022" y="763.0859"/><text fill="#000000" font-family="sans-serif" font-size="14" lengthAdjust="spacing" textLength="100" x="1029" y="784.6191">PerfilRepository</text><text fill="#000000" font-family="sans-serif" font-size="14" lengthAdjust="spacing" textLength="93" x="1346.5" y="118.1426">Base de Datos</text><path d="M1378,67.6094 C1378,57.6094 1396,57.6094 1396,57.6094 C1396,57.6094 1414,57.6094 1414,67.6094 L1414,93.6094 C1414,103.6094 1396,103.6094 1396,103.6094 C1396,103.6094 1378,103.6094 1378,93.6094 L1378,67.6094 " fill="#E2E2F0" style="stroke:#181818;stroke-width:1.5;"/><path d="M1378,67.6094 C1378,77.6094 1396,77.6094 1396,77.6094 C1396,77.6094 1414,77.6094 1414,67.6094 " fill="none" style="stroke:#181818;stroke-width:1.5;"/><text fill="#000000" font-family="sans-serif" font-size="14" lengthAdjust="spacing" textLength="93" x="1346.5" y="777.6191">Base de Datos</text><path d="M1378,790.6953 C1378,780.6953 1396,780.6953 1396,780.6953 C1396,780.6953 1414,780.6953 1414,790.6953 L1414,816.6953 C1414,826.6953 1396,826.6953 1396,826.6953 C1396,826.6953 1378,826.6953 1378,816.6953 L1378,790.6953 " fill="#E2E2F0" style="stroke:#181818;stroke-width:1.5;"/><path d="M1378,790.6953 C1378,800.6953 1396,800.6953 1396,800.6953 C1396,800.6953 1414,800.6953 1414,790.6953 " fill="none" style="stroke:#181818;stroke-width:1.5;"/><rect fill="#FFFFFF" height="600.5156" style="stroke:#181818;stroke-width:1.0;" width="10" x="324.5" y="153.5703"/><rect fill="#FFFFFF" height="314.8672" style="stroke:#181818;stroke-width:1.0;" width="10" x="515.5" y="243.625"/><rect fill="#FFFFFF" height="55.7031" style="stroke:#181818;stroke-width:1.0;" width="10" x="753.5" y="273.9766"/><rect fill="#FFFFFF" height="151.7578" style="stroke:#181818;stroke-width:1.0;" width="10" x="862" y="360.0313"/><rect fill="#FFFFFF" height="30.3516" style="stroke:#181818;stroke-width:1.0;" width="10" x="1074" y="451.0859"/><polygon fill="#181818" points="312.5,149.5703,322.5,153.5703,312.5,157.5703,316.5,153.5703" style="stroke:#181818;stroke-width:1.0;"/><line style="stroke:#181818;stroke-width:1.0;" x1="61.5" x2="318.5" y1="153.5703" y2="153.5703"/><text fill="#000000" font-family="sans-serif" font-size="13" lengthAdjust="spacing" textLength="177" x="68.5" y="148.7139">Solicita abrir opciones de perfil</text><line style="stroke:#181818;stroke-width:1.0;" x1="334.5" x2="376.5" y1="183.9219" y2="183.9219"/><line style="stroke:#181818;stroke-width:1.0;" x1="376.5" x2="376.5" y1="183.9219" y2="196.9219"/><line style="stroke:#181818;stroke-width:1.0;" x1="335.5" x2="376.5" y1="196.9219" y2="196.9219"/><polygon fill="#181818" points="345.5,192.9219,335.5,196.9219,345.5,200.9219,341.5,196.9219" style="stroke:#181818;stroke-width:1.0;"/><text fill="#000000" font-family="sans-serif" font-size="13" lengthAdjust="spacing" textLength="136" x="341.5" y="179.0654">Comprobar sesi&#243;n local</text><polygon fill="#181818" points="503.5,239.625,513.5,243.625,503.5,247.625,507.5,243.625" style="stroke:#181818;stroke-width:1.0;"/><line style="stroke:#181818;stroke-width:1.0;" x1="334.5" x2="509.5" y1="243.625" y2="243.625"/><text fill="#000000" font-family="sans-serif" font-size="13" lengthAdjust="spacing" textLength="82" x="341.5" y="222.417">GET /api/perfil</text><text fill="#000000" font-family="sans-serif" font-size="13" lengthAdjust="spacing" textLength="100" x="341.5" y="238.7686">Cookie de sesi&#243;n</text><polygon fill="#181818" points="741.5,269.9766,751.5,273.9766,741.5,277.9766,745.5,273.9766" style="stroke:#181818;stroke-width:1.0;"/><line style="stroke:#181818;stroke-width:1.0;" x1="525.5" x2="747.5" y1="273.9766" y2="273.9766"/><text fill="#000000" font-family="sans-serif" font-size="13" lengthAdjust="spacing" textLength="209" x="532.5" y="269.1201">obtenerSesionActual(authentication)</text><path d="M10,288.9766 L71,288.9766 L71,297.3281 L61,307.3281 L10,307.3281 L10,288.9766 " fill="#EEEEEE" style="stroke:#000000;stroke-width:1.5;"/><rect fill="none" height="458.1094" style="stroke:#000000;stroke-width:1.5;" width="1445.5" x="10" y="288.9766"/><text fill="#000000" font-family="sans-serif" font-size="13" font-weight="bold" lengthAdjust="spacing" textLength="16" x="25" y="303.4717">alt</text><text fill="#000000" font-family="sans-serif" font-size="11" font-weight="bold" lengthAdjust="spacing" textLength="80" x="86" y="302.3955">[Sesi&#243;n activa]</text><polygon fill="#181818" points="536.5,325.6797,526.5,329.6797,536.5,333.6797,532.5,329.6797" style="stroke:#181818;stroke-width:1.0;"/><line style="stroke:#181818;stroke-width:1.0;stroke-dasharray:2.0,2.0;" x1="530.5" x2="757.5" y1="329.6797" y2="329.6797"/><text fill="#000000" font-family="sans-serif" font-size="13" lengthAdjust="spacing" textLength="202" x="542.5" y="324.8232">SesionResponse(INVESTIGADOR)</text><polygon fill="#181818" points="850,356.0313,860,360.0313,850,364.0313,854,360.0313" style="stroke:#181818;stroke-width:1.0;"/><line style="stroke:#181818;stroke-width:1.0;" x1="525.5" x2="856" y1="360.0313" y2="360.0313"/><text fill="#000000" font-family="sans-serif" font-size="13" lengthAdjust="spacing" textLength="185" x="532.5" y="355.1748">obtenerPerfilPropio(investigador)</text><polygon fill="#181818" points="1067,386.3828,1077,390.3828,1067,394.3828,1071,390.3828" style="stroke:#181818;stroke-width:1.0;"/><line style="stroke:#181818;stroke-width:1.0;" x1="872" x2="1073" y1="390.3828" y2="390.3828"/><text fill="#000000" font-family="sans-serif" font-size="13" lengthAdjust="spacing" textLength="183" x="879" y="385.5264">obtenerPorUsuario(investigador)</text><polygon fill="#181818" points="1384,416.7344,1394,420.7344,1384,424.7344,1388,420.7344" style="stroke:#181818;stroke-width:1.0;"/><line style="stroke:#181818;stroke-width:1.0;" x1="1079" x2="1390" y1="420.7344" y2="420.7344"/><text fill="#000000" font-family="sans-serif" font-size="13" lengthAdjust="spacing" textLength="293" x="1086" y="415.8779">SELECT * FROM usuarios WHERE usuario_id = ?</text><polygon fill="#181818" points="1095,447.0859,1085,451.0859,1095,455.0859,1091,451.0859" style="stroke:#181818;stroke-width:1.0;"/><line style="stroke:#181818;stroke-width:1.0;stroke-dasharray:2.0,2.0;" x1="1089" x2="1395" y1="451.0859" y2="451.0859"/><text fill="#000000" font-family="sans-serif" font-size="13" lengthAdjust="spacing" textLength="150" x="1101" y="446.2295">Resultado de persistencia</text><polygon fill="#181818" points="883,477.4375,873,481.4375,883,485.4375,879,481.4375" style="stroke:#181818;stroke-width:1.0;"/><line style="stroke:#181818;stroke-width:1.0;stroke-dasharray:2.0,2.0;" x1="877" x2="1078" y1="481.4375" y2="481.4375"/><text fill="#000000" font-family="sans-serif" font-size="13" lengthAdjust="spacing" textLength="29" x="889" y="476.5811">Perfil</text><polygon fill="#181818" points="536.5,507.7891,526.5,511.7891,536.5,515.7891,532.5,511.7891" style="stroke:#181818;stroke-width:1.0;"/><line style="stroke:#181818;stroke-width:1.0;stroke-dasharray:2.0,2.0;" x1="530.5" x2="866" y1="511.7891" y2="511.7891"/><text fill="#000000" font-family="sans-serif" font-size="13" lengthAdjust="spacing" textLength="142" x="542.5" y="506.9326">PerfilOpcionesResponse</text><polygon fill="#181818" points="345.5,554.4922,335.5,558.4922,345.5,562.4922,341.5,558.4922" style="stroke:#181818;stroke-width:1.0;"/><line style="stroke:#181818;stroke-width:1.0;stroke-dasharray:2.0,2.0;" x1="339.5" x2="519.5" y1="558.4922" y2="558.4922"/><text fill="#000000" font-family="sans-serif" font-size="13" lengthAdjust="spacing" textLength="44" x="351.5" y="537.2842">200 OK</text><text fill="#000000" font-family="sans-serif" font-size="13" lengthAdjust="spacing" textLength="142" x="351.5" y="553.6357">PerfilOpcionesResponse</text><line style="stroke:#181818;stroke-width:1.0;" x1="334.5" x2="376.5" y1="588.8438" y2="588.8438"/><line style="stroke:#181818;stroke-width:1.0;" x1="376.5" x2="376.5" y1="588.8438" y2="601.8438"/><line style="stroke:#181818;stroke-width:1.0;" x1="335.5" x2="376.5" y1="601.8438" y2="601.8438"/><polygon fill="#181818" points="345.5,597.8438,335.5,601.8438,345.5,605.8438,341.5,601.8438" style="stroke:#181818;stroke-width:1.0;"/><text fill="#000000" font-family="sans-serif" font-size="13" lengthAdjust="spacing" textLength="167" x="341.5" y="583.9873">Renderizar opciones de perfil</text><polygon fill="#181818" points="72.5,628.1953,62.5,632.1953,72.5,636.1953,68.5,632.1953" style="stroke:#181818;stroke-width:1.0;"/><line style="stroke:#181818;stroke-width:1.0;stroke-dasharray:2.0,2.0;" x1="66.5" x2="323.5" y1="632.1953" y2="632.1953"/><text fill="#000000" font-family="sans-serif" font-size="13" lengthAdjust="spacing" textLength="239" x="78.5" y="627.3389">Presenta OPCIONES_PERFIL_ABIERTO</text><line style="stroke:#000000;stroke-width:1.0;stroke-dasharray:2.0,2.0;" x1="10" x2="1455.5" y1="641.1953" y2="641.1953"/><text fill="#000000" font-family="sans-serif" font-size="11" font-weight="bold" lengthAdjust="spacing" textLength="94" x="15" y="652.6143">[Sesi&#243;n ausente]</text><polygon fill="#181818" points="531.5,674.3828,521.5,678.3828,531.5,682.3828,527.5,678.3828" style="stroke:#181818;stroke-width:1.0;"/><line style="stroke:#181818;stroke-width:1.0;stroke-dasharray:2.0,2.0;" x1="525.5" x2="757.5" y1="678.3828" y2="678.3828"/><text fill="#000000" font-family="sans-serif" font-size="13" lengthAdjust="spacing" textLength="150" x="537.5" y="673.5264">SesionNoValidaException</text><polygon fill="#181818" points="345.5,704.7344,335.5,708.7344,345.5,712.7344,341.5,708.7344" style="stroke:#181818;stroke-width:1.0;"/><line style="stroke:#181818;stroke-width:1.0;stroke-dasharray:2.0,2.0;" x1="339.5" x2="519.5" y1="708.7344" y2="708.7344"/><text fill="#000000" font-family="sans-serif" font-size="13" lengthAdjust="spacing" textLength="101" x="351.5" y="703.8779">401 Unauthorized</text><polygon fill="#181818" points="72.5,735.0859,62.5,739.0859,72.5,743.0859,68.5,739.0859" style="stroke:#181818;stroke-width:1.0;"/><line style="stroke:#181818;stroke-width:1.0;stroke-dasharray:2.0,2.0;" x1="66.5" x2="323.5" y1="739.0859" y2="739.0859"/><text fill="#000000" font-family="sans-serif" font-size="13" lengthAdjust="spacing" textLength="175" x="78.5" y="734.2295">Presenta SESION_CERRADA</text><!--SRC=[ZLJRZjCm47tFLupwr29LMn1FbG2bJRfKB4sLT9UNIjKq6Og5ruvifm9-Yq_Wnx1pQP9kTY5I8diySsRcp74CCvmWO7XI-8YG4MXA2n8fGvY2VrHCWSnJ9WLfTvgJ-iguNN5OYpDfmqwOIULvc1gf-hOSbM4for4O66tBm2sUQ2_6CLdtoGXGmqf9OKXaGzvBUwGavwHiJ98h9awmaBAEz7FM3qf8speJKcUMKkbIMOQWkruzov1pJBdKpFRti-FV6hqC3HvH4umMxcjf2j18NJe72y_hiWBJzvUUvv18RdCP17o6QSShEwEXbgXcqKTQoiTSoICgEq3D_lmMm6MAlETj6Pl3RRY36ypPJPLWBvPIVcTKZRwCR7CwYkthOYigvo2F5erKjVLJKo0VOs6-aR2ieR76IHjVyu_Sb4jNLNNcWNsgKvWsbLNxc7GkXQRnUlCG9hlrhHz4yQGCoEWQsLdh0djJlDHPoqx9dCanwyoXGhpWzJNWZdgMDa4xzZQ7LFUwG3MOuJhA8GKBssnu5ovty0fMSVGPYYfUmvUFOHmssmFBu1ryA762HKdKqo8iNmKtDc4j6isqAU_lK8CTqGuNzvJ8QdlD_mjm5ygQkLRcgDPsCzzXnEu4oi7sHFvcDeFeqrxy7w9JhpCDNvZOVacnNpXuxVfnDh1xXsrBYhHLF4AqNQwZJPWSjc6yMjyT_CKwZ7UHHrnJg_d2ETCBej_81-Gim_17IhbfbFs2tdkjl9szXdlXRg6q3L7sRoAURoW94zlGOHd6iH_udllXT90QXBy0]--></g></svg>