<svg xmlns="http://www.w3.org/2000/svg" xmlns:xlink="http://www.w3.org/1999/xlink" contentStyleType="text/css" data-diagram-type="DESCRIPTION" height="558px" preserveAspectRatio="none" style="width:1326px;height:558px;background:#FFFFFF;" version="1.1" viewBox="0 0 1326 558" width="1326px" zoomAndPan="magnify"><?plantuml 1.2026.6?><defs/><g><!--cluster editarPerfil--><g class="cluster" data-qualified-name="editarPerfil" data-source-line="4" id="ent0002"><path d="M249.5,6 L332.9619,6 A3.75,3.75 0 0 1 335.4619,8.5 L342.4619,29.6094 L803.5,29.6094 A2.5,2.5 0 0 1 806,32.1094 L806,540.5 A2.5,2.5 0 0 1 803.5,543 L249.5,543 A2.5,2.5 0 0 1 247,540.5 L247,8.5 A2.5,2.5 0 0 1 249.5,6" fill="none" style="stroke:#000000;stroke-width:1.5;"/><line style="stroke:#000000;stroke-width:1.5;" x1="247" x2="342.4619" y1="29.6094" y2="29.6094"/><text fill="#000000" font-family="sans-serif" font-size="14" font-weight="700" lengthAdjust="spacing" textLength="82.4619" x="251" y="22.5332">editarPerfil()</text></g><!--entity EditarPerfilView--><g class="entity" data-qualified-name="editarPerfil.EditarPerfilView" data-source-line="5" id="ent0003"><rect fill="#629EF9" height="37.6094" rx="2.5" ry="2.5" style="stroke:#181818;stroke-width:0.5;" width="118.8135" x="598.5" y="42"/><text fill="#000000" font-family="sans-serif" font-size="14" lengthAdjust="spacing" textLength="98.8135" x="608.5" y="66.5332">EditarPerfilView</text></g><!--entity PerfilController--><g class="entity" data-qualified-name="editarPerfil.PerfilController" data-source-line="6" id="ent0004"><rect fill="#B5BD68" height="37.6094" rx="2.5" ry="2.5" style="stroke:#181818;stroke-width:0.5;" width="112.5859" x="432.5" y="158"/><text fill="#000000" font-family="sans-serif" font-size="14" lengthAdjust="spacing" textLength="92.5859" x="442.5" y="182.5332">PerfilController</text></g><!--entity PerfilService--><g class="entity" data-qualified-name="editarPerfil.PerfilService" data-source-line="7" id="ent0005"><rect fill="#B5BD68" height="37.6094" rx="2.5" ry="2.5" style="stroke:#181818;stroke-width:0.5;" width="98.5791" x="263.5" y="274"/><text fill="#000000" font-family="sans-serif" font-size="14" lengthAdjust="spacing" textLength="78.5791" x="273.5" y="298.5332">PerfilService</text></g><!--entity SesionService--><g class="entity" data-qualified-name="editarPerfil.SesionService" data-source-line="8" id="ent0006"><rect fill="#B5BD68" height="37.6094" rx="2.5" ry="2.5" style="stroke:#181818;stroke-width:0.5;" width="109.4893" x="524.5" y="274"/><text fill="#000000" font-family="sans-serif" font-size="14" lengthAdjust="spacing" textLength="89.4893" x="534.5" y="298.5332">SesionService</text></g><!--entity PerfilRepository--><g class="entity" data-qualified-name="editarPerfil.PerfilRepository" data-source-line="9" id="ent0007"><rect fill="#F2AC4E" height="37.6094" rx="2.5" ry="2.5" style="stroke:#181818;stroke-width:0.5;" width="118.8135" x="368.5" y="390"/><text fill="#000000" font-family="sans-serif" font-size="14" lengthAdjust="spacing" textLength="98.8135" x="378.5" y="414.5332">PerfilRepository</text></g><!--entity Perfil--><g class="entity" data-qualified-name="editarPerfil.Perfil" data-source-line="10" id="ent0008"><rect fill="#F2AC4E" height="37.6094" rx="2.5" ry="2.5" style="stroke:#181818;stroke-width:0.5;" width="51.8965" x="402" y="489"/><text fill="#000000" font-family="sans-serif" font-size="14" lengthAdjust="spacing" textLength="31.8965" x="412" y="513.5332">Perfil</text></g><!--entity EstadoEntrada--><g class="entity" data-qualified-name="EstadoEntrada" data-source-line="3" id="ent0001"><rect fill="#CDEBA5" height="37.6094" rx="2.5" ry="2.5" style="stroke:#181818;stroke-width:0.5;" width="223.834" x="7" y="42"/><text fill="#000000" font-family="sans-serif" font-size="14" lengthAdjust="spacing" textLength="203.834" x="17" y="66.5332">:OPCIONES_PERFIL_ABIERTO</text></g><!--entity EstadoSalida--><g class="entity" data-qualified-name="EstadoSalida" data-source-line="13" id="ent0009"><rect fill="#CDEBA5" height="37.6094" rx="2.5" ry="2.5" style="stroke:#181818;stroke-width:0.5;" width="223.834" x="822" y="158"/><text fill="#000000" font-family="sans-serif" font-size="14" lengthAdjust="spacing" textLength="203.834" x="832" y="182.5332">:OPCIONES_PERFIL_ABIERTO</text></g><!--entity AbrirOpcionesPerfil--><g class="entity" data-qualified-name="AbrirOpcionesPerfil" data-source-line="14" id="ent0010"><rect fill="#CDEBA5" height="37.6094" rx="2.5" ry="2.5" style="stroke:#181818;stroke-width:0.5;" width="230.875" x="1081.5" y="158"/><text fill="#000000" font-family="sans-serif" font-size="14" lengthAdjust="spacing" textLength="210.875" x="1091.5" y="182.5332">:Collaboration AbrirOpcionesPerfil</text></g><!--link EstadoEntrada to EditarPerfilView--><g class="link" data-entity-1="ent0001" data-entity-2="ent0003" data-link-type="dependency" data-source-line="16" id="lnk11"><path d="M231.01,61 C342.66,61 504.88,61 593.28,61" fill="none" id="EstadoEntrada-to-EditarPerfilView" style="stroke:#181818;stroke-width:1;"/><polygon fill="#181818" points="598.28,61,589.28,57,593.28,61,589.28,65,598.28,61" style="stroke:#181818;stroke-width:1;stroke-linejoin:miter;stroke-miterlimit:10;"/><text fill="#000000" font-family="sans-serif" font-size="13" lengthAdjust="spacing" textLength="70.7954" x="379.75" y="54.4951">editarPerfil()</text></g><!--link EditarPerfilView to PerfilController--><g class="link" data-entity-1="ent0003" data-entity-2="ent0004" data-link-type="dependency" data-source-line="18" id="lnk12"><path d="M598.45,72.95 C521.42,87.12 397,110 397,110 C397,110 397,128 397,128 C397,128 423.9473,142.0568 450.0473,155.6768" fill="none" id="EditarPerfilView-to-PerfilController" style="stroke:#181818;stroke-width:1;"/><polygon fill="#181818" points="454.48,157.99,448.3516,150.2801,450.0473,155.6768,444.6505,157.3725,454.48,157.99" style="stroke:#181818;stroke-width:1;stroke-linejoin:miter;stroke-miterlimit:10;"/><text fill="#000000" font-family="sans-serif" font-size="13" lengthAdjust="spacing" textLength="216.0552" x="398" y="124.4951">editarPerfilPropio(coordinador, datos)</text></g><!--link EditarPerfilView to PerfilController--><g class="link" data-entity-1="ent0003" data-entity-2="ent0004" data-link-type="dependency" data-source-line="21" id="lnk15"><path d="M647.34,80.03 C635.8,99.58 619,128 619,128 C619,128 579.3605,142.6382 542.4705,156.2582" fill="none" id="EditarPerfilView-to-PerfilController-1" style="stroke:#181818;stroke-width:1;"/><polygon fill="#181818" points="537.78,157.99,547.6084,158.6252,542.4705,156.2582,544.8375,151.1204,537.78,157.99" style="stroke:#181818;stroke-width:1;stroke-linejoin:miter;stroke-miterlimit:10;"/><text fill="#000000" font-family="sans-serif" font-size="13" lengthAdjust="spacing" textLength="130.0508" x="630" y="124.4951">validarCambios(datos)</text></g><!--link PerfilController to SesionService--><g class="link" data-entity-1="ent0004" data-entity-2="ent0006" data-link-type="dependency" data-source-line="19" id="lnk13"><path d="M508.28,196.15 C522.72,209.74 540,226 540,226 C540,226 554.2584,250.1142 565.7984,269.6642" fill="none" id="PerfilController-to-SesionService" style="stroke:#181818;stroke-width:1;"/><polygon fill="#181818" points="568.34,273.97,567.2097,264.1862,565.7984,269.6642,560.3204,268.2528,568.34,273.97" style="stroke:#181818;stroke-width:1;stroke-linejoin:miter;stroke-miterlimit:10;"/><text fill="#000000" font-family="sans-serif" font-size="13" lengthAdjust="spacing" textLength="209.5806" x="551" y="240.4951">obtenerSesionActual(authentication)</text></g><!--link PerfilController to PerfilService--><g class="link" data-entity-1="ent0004" data-entity-2="ent0005" data-link-type="dependency" data-source-line="20" id="lnk14"><path d="M432.26,191.75 C373.75,205.94 291,226 291,226 C291,226 291,244 291,244 C291,244 296.3664,255.7148 302.5964,269.3048" fill="none" id="PerfilController-to-PerfilService" style="stroke:#181818;stroke-width:1;"/><polygon fill="#181818" points="304.68,273.85,304.5656,264.0018,302.5964,269.3048,297.2934,267.3356,304.68,273.85" style="stroke:#181818;stroke-width:1;stroke-linejoin:miter;stroke-miterlimit:10;"/><text fill="#000000" font-family="sans-serif" font-size="13" lengthAdjust="spacing" textLength="239.1733" x="292" y="240.4951">actualizarPerfilPropio(coordinador, datos)</text></g><!--link PerfilService to PerfilRepository--><g class="link" data-entity-1="ent0005" data-entity-2="ent0007" data-link-type="dependency" data-source-line="22" id="lnk16"><path d="M308.84,312.15 C305.73,325.74 302,342 302,342 C302,342 302,360 302,360 C302,360 340.2976,374.5899 376.0476,388.2099" fill="none" id="PerfilService-to-PerfilRepository" style="stroke:#181818;stroke-width:1;"/><polygon fill="#181818" points="380.72,389.99,373.7338,383.0479,376.0476,388.2099,370.8856,390.5238,380.72,389.99" style="stroke:#181818;stroke-width:1;stroke-linejoin:miter;stroke-miterlimit:10;"/><text fill="#000000" font-family="sans-serif" font-size="13" lengthAdjust="spacing" textLength="186.4307" x="303" y="356.4951">obtenerPorUsuario(coordinador)</text></g><!--link PerfilService to PerfilRepository--><g class="link" data-entity-1="ent0005" data-entity-2="ent0007" data-link-type="dependency" data-source-line="23" id="lnk17"><path d="M362.94,307.24 C416.51,321.45 494,342 494,342 C494,342 494,360 494,360 C494,360 475.684,373.3195 456.994,386.9095" fill="none" id="PerfilService-to-PerfilRepository-1" style="stroke:#181818;stroke-width:1;"/><polygon fill="#181818" points="452.95,389.85,462.5815,387.7923,456.994,386.9095,457.8768,381.322,452.95,389.85" style="stroke:#181818;stroke-width:1;stroke-linejoin:miter;stroke-miterlimit:10;"/><text fill="#000000" font-family="sans-serif" font-size="13" lengthAdjust="spacing" textLength="106.9453" x="495" y="356.4951">actualizar(entidad)</text></g><!--link PerfilRepository to Perfil--><g class="link" data-entity-1="ent0007" data-entity-2="ent0008" data-link-type="association" data-source-line="24" id="lnk18"><path d="M428,428.24 C428,445.59 428,471.52 428,488.84" fill="none" id="PerfilRepository-Perfil" style="stroke:#181818;stroke-width:1;"/></g><!--link EditarPerfilView to EstadoSalida--><g class="link" data-entity-1="ent0003" data-entity-2="ent0009" data-link-type="dependency" data-source-line="25" id="lnk19"><path d="M701.73,80.06 C753.26,101.35 833.7587,134.5912 885.3987,155.9212" fill="none" id="EditarPerfilView-to-EstadoSalida" style="stroke:#181818;stroke-width:1;stroke-dasharray:7,7;"/><polygon fill="#181818" points="890.02,157.83,883.2287,150.6971,885.3987,155.9212,880.1746,158.0911,890.02,157.83" style="stroke:#181818;stroke-width:1;stroke-linejoin:miter;stroke-miterlimit:10;"/><text fill="#000000" font-family="sans-serif" font-size="13" lengthAdjust="spacing" textLength="130.7935" x="813" y="124.4951">continuarNavegacion()</text></g><!--link EditarPerfilView to AbrirOpcionesPerfil--><g class="link" data-entity-1="ent0003" data-entity-2="ent0010" data-link-type="dependency" data-source-line="26" id="lnk20"><path d="M717.85,71.77 C803.81,85.81 952,110 952,110 C952,110 1052.6823,137.1189 1125.2223,156.6689" fill="none" id="EditarPerfilView-to-AbrirOpcionesPerfil" style="stroke:#181818;stroke-width:1;stroke-dasharray:7,7;"/><polygon fill="#181818" points="1130.05,157.97,1122.4009,151.7658,1125.2223,156.6689,1120.3192,159.4902,1130.05,157.97" style="stroke:#181818;stroke-width:1;stroke-linejoin:miter;stroke-miterlimit:10;"/><text fill="#000000" font-family="sans-serif" font-size="13" lengthAdjust="spacing" textLength="119.2026" x="1018" y="124.4951">abrirOpcionesPerfil()</text></g><?plantuml-src dL9DJy904BttLqpmKXBXOCHe3oQbBWc9aGRKAvbsHznOTflP1OF6_-xo9HIACVQqdRmtRzwRiMzAbyWuXK9fSekIe3J5OlaJ14ovGpqf2CwIEz6DEz281cdI7po8qJWLmrx_VXnt-sBuE6W0MX3MeJH2EqQ9GOdv6qu8I2g7d1A_g6A9QkmNmcO3FWFmtvxOrSMDwDs0sCCzAte_X6MTJ5vTmngG62zhYeBuLzY8UAvoEe4PaLL6dy3qBkBaKcpw3AaqLZd3YrzXmTT_KnnXeNo8TUJ4syJCC3e_BCGPAnwKkN-JNQkksjJKWw2o8MXnw_OevGYg-_6a0mIqfESTnbxbfMnAPSBS69PAUqq-1udEs6PmI8IMxrP9FWAJETB4wsgSknaM8SxSAscdyfNl4tqgMuu0LrJryOUnZbtMcfolzi89JZDbR5Znj97TO-xEvCTJQlZ9pf2hO_ojnSvEk4n2ejpoTYXFtHxVaQLs-xPoNX7atfhIVfm7dDC4bzSIDkk9DGVb9pekUlut?></g></svg>