<svg xmlns="http://www.w3.org/2000/svg" xmlns:xlink="http://www.w3.org/1999/xlink" contentStyleType="text/css" data-diagram-type="DESCRIPTION" height="442px" preserveAspectRatio="none" style="width:1127px;height:442px;background:#FFFFFF;" version="1.1" viewBox="0 0 1127 442" width="1127px" zoomAndPan="magnify"><?plantuml 1.2026.4?><defs/><g><!--cluster editarPerfil--><g class="cluster" data-qualified-name="editarPerfil" data-source-line="4" id="ent0002"><path d="M249.5,6 L332.9619,6 A3.75,3.75 0 0 1 335.4619,8.5 L342.4619,29.6094 L604.5,29.6094 A2.5,2.5 0 0 1 607,32.1094 L607,424.5 A2.5,2.5 0 0 1 604.5,427 L249.5,427 A2.5,2.5 0 0 1 247,424.5 L247,8.5 A2.5,2.5 0 0 1 249.5,6" fill="none" style="stroke:#000000;stroke-width:1.5;"/><line style="stroke:#000000;stroke-width:1.5;" x1="247" x2="342.4619" y1="29.6094" y2="29.6094"/><text fill="#000000" font-family="sans-serif" font-size="14" font-weight="700" lengthAdjust="spacing" textLength="82.4619" x="251" y="22.5332">editarPerfil()</text></g><!--entity EditarPerfilView--><g class="entity" data-qualified-name="editarPerfil.EditarPerfilView" data-source-line="5" id="ent0003"><rect fill="#629EF9" height="37.6094" rx="2.5" ry="2.5" style="stroke:#181818;stroke-width:0.5;" width="118.8135" x="399.5" y="42"/><text fill="#000000" font-family="sans-serif" font-size="14" lengthAdjust="spacing" textLength="98.8135" x="409.5" y="66.5332">EditarPerfilView</text></g><!--entity PerfilController--><g class="entity" data-qualified-name="editarPerfil.PerfilController" data-source-line="6" id="ent0004"><rect fill="#B5BD68" height="37.6094" rx="2.5" ry="2.5" style="stroke:#181818;stroke-width:0.5;" width="112.5859" x="319.5" y="158"/><text fill="#000000" font-family="sans-serif" font-size="14" lengthAdjust="spacing" textLength="92.5859" x="329.5" y="182.5332">PerfilController</text></g><!--entity PerfilRepository--><g class="entity" data-qualified-name="editarPerfil.PerfilRepository" data-source-line="7" id="ent0005"><rect fill="#F2AC4E" height="37.6094" rx="2.5" ry="2.5" style="stroke:#181818;stroke-width:0.5;" width="118.8135" x="324.5" y="274"/><text fill="#000000" font-family="sans-serif" font-size="14" lengthAdjust="spacing" textLength="98.8135" x="334.5" y="298.5332">PerfilRepository</text></g><!--entity Perfil--><g class="entity" data-qualified-name="editarPerfil.Perfil" data-source-line="8" id="ent0006"><rect fill="#F2AC4E" height="37.6094" rx="2.5" ry="2.5" style="stroke:#181818;stroke-width:0.5;" width="51.8965" x="358" y="373"/><text fill="#000000" font-family="sans-serif" font-size="14" lengthAdjust="spacing" textLength="31.8965" x="368" y="397.5332">Perfil</text></g><!--entity EstadoEntrada--><g class="entity" data-qualified-name="EstadoEntrada" data-source-line="3" id="ent0001"><rect fill="#CDEBA5" height="37.6094" rx="2.5" ry="2.5" style="stroke:#181818;stroke-width:0.5;" width="223.834" x="7" y="42"/><text fill="#000000" font-family="sans-serif" font-size="14" lengthAdjust="spacing" textLength="203.834" x="17" y="66.5332">:OPCIONES_PERFIL_ABIERTO</text></g><!--entity EstadoSalida--><g class="entity" data-qualified-name="EstadoSalida" data-source-line="11" id="ent0007"><rect fill="#CDEBA5" height="37.6094" rx="2.5" ry="2.5" style="stroke:#181818;stroke-width:0.5;" width="223.834" x="623" y="158"/><text fill="#000000" font-family="sans-serif" font-size="14" lengthAdjust="spacing" textLength="203.834" x="633" y="182.5332">:OPCIONES_PERFIL_ABIERTO</text></g><!--entity AbrirOpcionesPerfil--><g class="entity" data-qualified-name="AbrirOpcionesPerfil" data-source-line="12" id="ent0008"><rect fill="#CDEBA5" height="37.6094" rx="2.5" ry="2.5" style="stroke:#181818;stroke-width:0.5;" width="230.875" x="882.5" y="158"/><text fill="#000000" font-family="sans-serif" font-size="14" lengthAdjust="spacing" textLength="210.875" x="892.5" y="182.5332">:Collaboration AbrirOpcionesPerfil</text></g><!--link EstadoEntrada to EditarPerfilView--><g class="link" data-entity-1="ent0001" data-entity-2="ent0003" data-link-type="dependency" data-source-line="14" id="lnk9"><path d="M231.27,61 C287.36,61 347.97,61 394.32,61" fill="none" id="EstadoEntrada-to-EditarPerfilView" style="stroke:#181818;stroke-width:1;"/><polygon fill="#181818" points="399.32,61,390.32,57,394.32,61,390.32,65,399.32,61" style="stroke:#181818;stroke-width:1;stroke-linejoin:miter;stroke-miterlimit:10;"/><text fill="#000000" font-family="sans-serif" font-size="13" lengthAdjust="spacing" textLength="70.7954" x="280.25" y="54.4951">editarPerfil()</text></g><!--link EditarPerfilView to PerfilController--><g class="link" data-entity-1="ent0003" data-entity-2="ent0004" data-link-type="dependency" data-source-line="16" id="lnk10"><path d="M399.33,79.46 C352.44,93.19 295,110 295,110 C295,110 295,128 295,128 C295,128 318.1382,141.7116 341.0782,155.3016" fill="none" id="EditarPerfilView-to-PerfilController" style="stroke:#181818;stroke-width:1;"/><polygon fill="#181818" points="345.38,157.85,339.6755,149.8214,341.0782,155.3016,335.598,156.7042,345.38,157.85" style="stroke:#181818;stroke-width:1;stroke-linejoin:miter;stroke-miterlimit:10;"/><text fill="#000000" font-family="sans-serif" font-size="13" lengthAdjust="spacing" textLength="119.939" x="296" y="124.4951">editarPerfil(id, datos)</text></g><!--link EditarPerfilView to PerfilController--><g class="link" data-entity-1="ent0003" data-entity-2="ent0004" data-link-type="dependency" data-source-line="17" id="lnk11"><path d="M448.34,80.03 C436.8,99.58 420,128 420,128 C420,128 408.469,140.5746 396.009,154.1646" fill="none" id="EditarPerfilView-to-PerfilController-1" style="stroke:#181818;stroke-width:1;"/><polygon fill="#181818" points="392.63,157.85,401.6605,153.9194,396.009,154.1646,395.7638,148.513,392.63,157.85" style="stroke:#181818;stroke-width:1;stroke-linejoin:miter;stroke-miterlimit:10;"/><text fill="#000000" font-family="sans-serif" font-size="13" lengthAdjust="spacing" textLength="130.0508" x="431" y="124.4951">validarCambios(datos)</text></g><!--link PerfilController to PerfilRepository--><g class="link" data-entity-1="ent0004" data-entity-2="ent0005" data-link-type="dependency" data-source-line="18" id="lnk12"><path d="M349.91,196.15 C330.37,209.74 307,226 307,226 C307,226 307,244 307,244 C307,244 328.8364,257.6158 350.6464,271.2058" fill="none" id="PerfilController-to-PerfilRepository" style="stroke:#181818;stroke-width:1;"/><polygon fill="#181818" points="354.89,273.85,349.3669,265.6955,350.6464,271.2058,345.1362,272.4853,354.89,273.85" style="stroke:#181818;stroke-width:1;stroke-linejoin:miter;stroke-miterlimit:10;"/><text fill="#000000" font-family="sans-serif" font-size="13" lengthAdjust="spacing" textLength="93.939" x="308" y="240.4951">obtenerPorId(id)</text></g><!--link PerfilController to PerfilRepository--><g class="link" data-entity-1="ent0004" data-entity-2="ent0005" data-link-type="dependency" data-source-line="19" id="lnk13"><path d="M387.34,196.15 C395.84,209.74 406,226 406,226 C406,226 406,244 406,244 C406,244 400.6336,255.7148 394.4036,269.3048" fill="none" id="PerfilController-to-PerfilRepository-1" style="stroke:#181818;stroke-width:1;"/><polygon fill="#181818" points="392.32,273.85,399.7066,267.3356,394.4036,269.3048,392.4344,264.0018,392.32,273.85" style="stroke:#181818;stroke-width:1;stroke-linejoin:miter;stroke-miterlimit:10;"/><text fill="#000000" font-family="sans-serif" font-size="13" lengthAdjust="spacing" textLength="106.9453" x="407" y="240.4951">actualizar(entidad)</text></g><!--link PerfilRepository to Perfil--><g class="link" data-entity-1="ent0005" data-entity-2="ent0006" data-link-type="association" data-source-line="20" id="lnk14"><path d="M384,312.24 C384,329.59 384,355.52 384,372.84" fill="none" id="PerfilRepository-Perfil" style="stroke:#181818;stroke-width:1;"/></g><!--link EditarPerfilView to EstadoSalida--><g class="link" data-entity-1="ent0003" data-entity-2="ent0007" data-link-type="dependency" data-source-line="21" id="lnk15"><path d="M502.73,80.06 C554.26,101.35 634.7587,134.5912 686.3987,155.9212" fill="none" id="EditarPerfilView-to-EstadoSalida" style="stroke:#181818;stroke-width:1;stroke-dasharray:7,7;"/><polygon fill="#181818" points="691.02,157.83,684.2287,150.6971,686.3987,155.9212,681.1746,158.0911,691.02,157.83" style="stroke:#181818;stroke-width:1;stroke-linejoin:miter;stroke-miterlimit:10;"/><text fill="#000000" font-family="sans-serif" font-size="13" lengthAdjust="spacing" textLength="130.7935" x="614" y="124.4951">continuarNavegacion()</text></g><!--link EditarPerfilView to AbrirOpcionesPerfil--><g class="link" data-entity-1="ent0003" data-entity-2="ent0008" data-link-type="dependency" data-source-line="22" id="lnk16"><path d="M518.85,71.77 C604.81,85.81 753,110 753,110 C753,110 853.6823,137.1189 926.2223,156.6689" fill="none" id="EditarPerfilView-to-AbrirOpcionesPerfil" style="stroke:#181818;stroke-width:1;stroke-dasharray:7,7;"/><polygon fill="#181818" points="931.05,157.97,923.4009,151.7658,926.2223,156.6689,921.3192,159.4902,931.05,157.97" style="stroke:#181818;stroke-width:1;stroke-linejoin:miter;stroke-miterlimit:10;"/><text fill="#000000" font-family="sans-serif" font-size="13" lengthAdjust="spacing" textLength="119.2026" x="819" y="124.4951">abrirOpcionesPerfil()</text></g><?plantuml-src dP5DQy9048Rl-ok6z1AXUf0gRGv2J5S851Eqz2gJx5OMuswOh1PR-j-xVhJ664ffJflXUVRTcQbMIfT8k8P2QMbtfOJI5Blz3sCaSujwMKYuYHxvE1o05oHf52TJFb-aV3Q9dnRXEEQpvyG3h81N5eNXsX8AP2NcArnAa49Pf5JIgohsb5Sl-1qFFXYuhnOsx3_moGFm6lUYv5iJomQP6Dx34OYCYpL58Qc9JVfXTCTFs4oMfbBMqEvNZ7t-j_iv5iertoP7xdcO6KAhZ8Om8qL9cRkph8wfXsjQwenTJ1Qwr1rTJIU0oxawgK50LpYlEQw6fyGj2BIcwhJuhVhsq355kCwKgVoJtEHgyda70PZCIYqfDHGBb_rd3tExSRdlIBxKrkN_g6VAgT_hl6gbrnjTB2o0t4KglK6QubOkSJz_lzCkjgp8lUYwwFml?></g></svg>