<svg xmlns="http://www.w3.org/2000/svg" xmlns:xlink="http://www.w3.org/1999/xlink" contentStyleType="text/css" height="434px" preserveAspectRatio="none" style="width:1216px;height:434px;background:#FFFFFF;" version="1.1" viewBox="0 0 1216 434" width="1216px" zoomAndPan="magnify"><defs/><g><!--cluster editarPerfil--><g id="cluster_editarPerfil"><path d="M249.5,6 L332.9619,6 A3.75,3.75 0 0 1 335.4619,8.5 L342.4619,29.6094 L701.5,29.6094 A2.5,2.5 0 0 1 704,32.1094 L704,424.5 A2.5,2.5 0 0 1 701.5,427 L249.5,427 A2.5,2.5 0 0 1 247,424.5 L247,8.5 A2.5,2.5 0 0 1 249.5,6 " fill="none" style="stroke:#000000;stroke-width:1.5;"/><line style="stroke:#000000;stroke-width:1.5;" x1="247" x2="342.4619" y1="29.6094" y2="29.6094"/><text fill="#000000" font-family="sans-serif" font-size="14" font-weight="bold" lengthAdjust="spacing" textLength="82.4619" x="251" y="22.5332">editarPerfil()</text></g><!--entity EditarPerfilView--><g id="elem_EditarPerfilView"><rect fill="#629EF9" height="37.6094" rx="2.5" ry="2.5" style="stroke:#181818;stroke-width:0.5;" width="118.8135" x="496.5" y="42"/><text fill="#000000" font-family="sans-serif" font-size="14" lengthAdjust="spacing" textLength="98.8135" x="506.5" y="66.5332">EditarPerfilView</text></g><!--entity PerfilController--><g id="elem_PerfilController"><rect fill="#B5BD68" height="37.6094" rx="2.5" ry="2.5" style="stroke:#181818;stroke-width:0.5;" width="112.5859" x="366.5" y="158"/><text fill="#000000" font-family="sans-serif" font-size="14" lengthAdjust="spacing" textLength="92.5859" x="376.5" y="182.5332">PerfilController</text></g><!--entity PerfilRepository--><g id="elem_PerfilRepository"><rect fill="#F2AC4E" height="37.6094" rx="2.5" ry="2.5" style="stroke:#181818;stroke-width:0.5;" width="118.8135" x="370.5" y="274"/><text fill="#000000" font-family="sans-serif" font-size="14" lengthAdjust="spacing" textLength="98.8135" x="380.5" y="298.5332">PerfilRepository</text></g><!--entity Perfil--><g id="elem_Perfil"><rect fill="#F2AC4E" height="37.6094" rx="2.5" ry="2.5" style="stroke:#181818;stroke-width:0.5;" width="51.8965" x="404" y="373"/><text fill="#000000" font-family="sans-serif" font-size="14" lengthAdjust="spacing" textLength="31.8965" x="414" y="397.5332">Perfil</text></g><!--entity EstadoEntrada--><g id="elem_EstadoEntrada"><rect fill="#CDEBA5" height="37.6094" rx="2.5" ry="2.5" style="stroke:#181818;stroke-width:0.5;" width="223.834" x="7" y="42"/><text fill="#000000" font-family="sans-serif" font-size="14" lengthAdjust="spacing" textLength="203.834" x="17" y="66.5332">:OPCIONES_PERFIL_ABIERTO</text></g><!--entity EstadoSalida--><g id="elem_EstadoSalida"><rect fill="#CDEBA5" height="37.6094" rx="2.5" ry="2.5" style="stroke:#181818;stroke-width:0.5;" width="223.834" x="720" y="158"/><text fill="#000000" font-family="sans-serif" font-size="14" lengthAdjust="spacing" textLength="203.834" x="730" y="182.5332">:OPCIONES_PERFIL_ABIERTO</text></g><!--entity AbrirOpcionesPerfil--><g id="elem_AbrirOpcionesPerfil"><rect fill="#CDEBA5" height="37.6094" rx="2.5" ry="2.5" style="stroke:#181818;stroke-width:0.5;" width="230.875" x="979.5" y="158"/><text fill="#000000" font-family="sans-serif" font-size="14" lengthAdjust="spacing" textLength="210.875" x="989.5" y="182.5332">:Collaboration AbrirOpcionesPerfil</text></g><!--link EstadoEntrada to EditarPerfilView--><g id="link_EstadoEntrada_EditarPerfilView"><path d="M231.25,61 C315.85,61 422.52,61 490.47,61 " fill="none" id="EstadoEntrada-to-EditarPerfilView" style="stroke:#181818;stroke-width:1;"/><polygon fill="#181818" points="496.47,61,487.47,57,491.47,61,487.47,65,496.47,61" style="stroke:#181818;stroke-width:1;"/><text fill="#000000" font-family="sans-serif" font-size="13" lengthAdjust="spacing" textLength="70.7954" x="328.75" y="54.4951">editarPerfil()</text></g><!--link EditarPerfilView to PerfilController--><g id="link_EditarPerfilView_PerfilController"><path d="M496.45,72.95 C419.42,87.12 295,110 295,110 C295,110 295,128 295,128 C295,128 333.032,142.2633 369.352,155.8833 " fill="none" id="EditarPerfilView-to-PerfilController" style="stroke:#181818;stroke-width:1;"/><polygon fill="#181818" points="374.97,157.99,367.9475,151.0846,370.2884,156.2344,365.1385,158.5752,374.97,157.99" style="stroke:#181818;stroke-width:1;"/><text fill="#000000" font-family="sans-serif" font-size="13" lengthAdjust="spacing" textLength="216.0552" x="296" y="124.4951">editarPerfilPropio(coordinador, datos)</text></g><!--link EditarPerfilView to PerfilController--><g id="link_EditarPerfilView_PerfilController"><path d="M545.34,80.03 C533.8,99.58 517,128 517,128 C517,128 490.2835,141.6411 463.6135,155.2611 " fill="none" id="EditarPerfilView-to-PerfilController-1" style="stroke:#181818;stroke-width:1;"/><polygon fill="#181818" points="458.27,157.99,468.1045,157.4591,462.7229,155.7159,464.466,150.3343,458.27,157.99" style="stroke:#181818;stroke-width:1;"/><text fill="#000000" font-family="sans-serif" font-size="13" lengthAdjust="spacing" textLength="130.0508" x="528" y="124.4951">validarCambios(datos)</text></g><!--link PerfilController to PerfilRepository--><g id="link_PerfilController_PerfilRepository"><path d="M379.48,196.01 C346.56,209.63 307,226 307,226 C307,226 307,244 307,244 C307,244 343.3606,258.1887 378.2606,271.8087 " fill="none" id="PerfilController-to-PerfilRepository" style="stroke:#181818;stroke-width:1;"/><polygon fill="#181818" points="383.85,273.99,376.9201,266.9917,379.1921,272.1722,374.0116,274.4443,383.85,273.99" style="stroke:#181818;stroke-width:1;"/><text fill="#000000" font-family="sans-serif" font-size="13" lengthAdjust="spacing" textLength="186.4307" x="308" y="240.4951">obtenerPorUsuario(coordinador)</text></g><!--link PerfilController to PerfilRepository--><g id="link_PerfilController_PerfilRepository"><path d="M451.73,196.15 C473.25,209.74 499,226 499,226 C499,226 499,244 499,244 C499,244 480.5558,256.8341 461.0158,270.4241 " fill="none" id="PerfilController-to-PerfilRepository-1" style="stroke:#181818;stroke-width:1;"/><polygon fill="#181818" points="456.09,273.85,465.7626,271.9951,460.1948,270.9951,461.1948,265.4273,456.09,273.85" style="stroke:#181818;stroke-width:1;"/><text fill="#000000" font-family="sans-serif" font-size="13" lengthAdjust="spacing" textLength="106.9453" x="500" y="240.4951">actualizar(entidad)</text></g><!--link PerfilRepository to Perfil--><g id="link_PerfilRepository_Perfil"><path d="M430,312.24 C430,329.59 430,355.52 430,372.84 " fill="none" id="PerfilRepository-Perfil" style="stroke:#181818;stroke-width:1;"/></g><!--link EditarPerfilView to EstadoSalida--><g id="link_EditarPerfilView_EstadoSalida"><path d="M599.73,80.06 C651.26,101.35 730.8344,134.2094 782.4744,155.5394 " fill="none" id="EditarPerfilView-to-EstadoSalida" style="stroke:#181818;stroke-width:1;stroke-dasharray:7.0,7.0;"/><polygon fill="#181818" points="788.02,157.83,781.2287,150.6971,783.3987,155.9212,778.1746,158.0911,788.02,157.83" style="stroke:#181818;stroke-width:1;"/><text fill="#000000" font-family="sans-serif" font-size="13" lengthAdjust="spacing" textLength="130.7935" x="711" y="124.4951">continuarNavegacion()</text></g><!--link EditarPerfilView to AbrirOpcionesPerfil--><g id="link_EditarPerfilView_AbrirOpcionesPerfil"><path d="M615.85,71.77 C701.81,85.81 850,110 850,110 C850,110 949.7167,136.8587 1022.2567,156.4087 " fill="none" id="EditarPerfilView-to-AbrirOpcionesPerfil" style="stroke:#181818;stroke-width:1;stroke-dasharray:7.0,7.0;"/><polygon fill="#181818" points="1028.05,157.97,1020.4009,151.7658,1023.2223,156.6689,1018.3192,159.4902,1028.05,157.97" style="stroke:#181818;stroke-width:1;"/><text fill="#000000" font-family="sans-serif" font-size="13" lengthAdjust="spacing" textLength="119.2026" x="916" y="124.4951">abrirOpcionesPerfil()</text></g><!--SRC=[dL5DQy905BpdLppi9KBr85Lg3a9CLn2A2ThsAY_PhIp6tV1sjTZI_zxr2vCOIcbEcyVCctapPYrLWOGRoAKITby8A7I-F_nu7edCebhb0kwY9pOE-z0AuYIQnZEsM2PiFfa-ByFnbCrVuXQW0MOiSisK9UJe5PYjSIL0S6cH4a7lCZ-WMkM1tsx1bmVkAuaDUaCs6G8huTwa-AZ3qdxA1uzm0aJQoUey5rI7JNfXzC3EiBaej95Mq_vNcFVzt-iNc4jtV1CvSlOmrOHMQWLXIfBY8dDlOKwgnpKDSy-h90iTwenkqWcWcgiZrH3GuOvNZwlAIqWNKlkPriIbSffq3nojDks6TOtRTiS0AC9DAhNnp-GwhaI-LXA0JgrGWX9DhsQBL7NovosOsQrpyOda2sMT6twXNb6EUkdwvh1kTrHfCu3CIKhb7Crm9rPuACTlDnCR-dEEReUE_mC0]--></g></svg>