<svg xmlns="http://www.w3.org/2000/svg" xmlns:xlink="http://www.w3.org/1999/xlink" contentStyleType="text/css" height="773px" preserveAspectRatio="none" style="width:1637px;height:773px;background:#FFFFFF;" version="1.1" viewBox="0 0 1637 773" width="1637px" zoomAndPan="magnify"><title>Diagrama de secuencia - abrirConvocatoria</title><defs/><g><text fill="#000000" font-family="sans-serif" font-size="14" font-weight="bold" lengthAdjust="spacing" textLength="288.6611" x="676.1494" y="29.5332">Diagrama de secuencia - abrirConvocatoria</text><rect fill="none" height="216.2969" style="stroke:#000000;stroke-width:1.5;" width="1135.7744" x="10" y="458.0859"/><line style="stroke:#181818;stroke-width:0.5;stroke-dasharray:5.0,5.0;" x1="61" x2="61" y1="121.2188" y2="691.3828"/><line style="stroke:#181818;stroke-width:0.5;stroke-dasharray:5.0,5.0;" x1="385.4702" x2="385.4702" y1="121.2188" y2="691.3828"/><line style="stroke:#181818;stroke-width:0.5;stroke-dasharray:5.0,5.0;" x1="641.4331" x2="641.4331" y1="121.2188" y2="691.3828"/><line style="stroke:#181818;stroke-width:0.5;stroke-dasharray:5.0,5.0;" x1="874.8584" x2="874.8584" y1="121.2188" y2="691.3828"/><line style="stroke:#181818;stroke-width:0.5;stroke-dasharray:5.0,5.0;" x1="1036.3477" x2="1036.3477" y1="121.2188" y2="691.3828"/><line style="stroke:#181818;stroke-width:0.5;stroke-dasharray:5.0,5.0;" x1="1215.7744" x2="1215.7744" y1="121.2188" y2="691.3828"/><line style="stroke:#181818;stroke-width:0.5;stroke-dasharray:5.0,5.0;" x1="1378.3945" x2="1378.3945" y1="121.2188" y2="691.3828"/><line style="stroke:#181818;stroke-width:0.5;stroke-dasharray:5.0,5.0;" x1="1587.126" x2="1587.126" y1="121.2188" y2="691.3828"/><text fill="#000000" font-family="sans-serif" font-size="14" lengthAdjust="spacing" textLength="77.0479" x="20" y="118.1426">Coordinador</text><ellipse cx="61.5239" cy="52.1094" fill="#E2E2F0" rx="8" ry="8" style="stroke:#181818;stroke-width:0.5;"/><path d="M61.5239,60.1094 L61.5239,87.1094 M48.5239,68.1094 L74.5239,68.1094 M61.5239,87.1094 L48.5239,102.1094 M61.5239,87.1094 L74.5239,102.1094 " fill="none" style="stroke:#181818;stroke-width:0.5;"/><text fill="#000000" font-family="sans-serif" font-size="14" lengthAdjust="spacing" textLength="77.0479" x="20" y="704.916">Coordinador</text><ellipse cx="61.5239" cy="716.4922" fill="#E2E2F0" rx="8" ry="8" style="stroke:#181818;stroke-width:0.5;"/><path d="M61.5239,724.4922 L61.5239,751.4922 M48.5239,732.4922 L74.5239,732.4922 M61.5239,751.4922 L48.5239,766.4922 M61.5239,751.4922 L74.5239,766.4922 " fill="none" style="stroke:#181818;stroke-width:0.5;"/><rect fill="#E2E2F0" height="49.2188" rx="2.5" ry="2.5" style="stroke:#181818;stroke-width:0.5;" width="157.1924" x="307.4702" y="71"/><text fill="#000000" font-family="sans-serif" font-size="14" lengthAdjust="spacing" textLength="143.1924" x="314.4702" y="92.5332">abrirConvocatoriaPage</text><text fill="#000000" font-family="sans-serif" font-size="14" lengthAdjust="spacing" textLength="45.8965" x="363.1182" y="110.1426">(React)</text><rect fill="#E2E2F0" height="49.2188" rx="2.5" ry="2.5" style="stroke:#181818;stroke-width:0.5;" width="157.1924" x="307.4702" y="690.3828"/><text fill="#000000" font-family="sans-serif" font-size="14" lengthAdjust="spacing" textLength="143.1924" x="314.4702" y="711.916">abrirConvocatoriaPage</text><text fill="#000000" font-family="sans-serif" font-size="14" lengthAdjust="spacing" textLength="45.8965" x="363.1182" y="729.5254">(React)</text><rect fill="#E2E2F0" height="49.2188" rx="2.5" ry="2.5" style="stroke:#181818;stroke-width:0.5;" width="157.1787" x="563.4331" y="71"/><text fill="#000000" font-family="sans-serif" font-size="14" lengthAdjust="spacing" textLength="143.1787" x="570.4331" y="92.5332">ConvocatoriaController</text><text fill="#000000" font-family="sans-serif" font-size="14" lengthAdjust="spacing" textLength="82.4824" x="600.7813" y="110.1426">(Spring Boot)</text><rect fill="#E2E2F0" height="49.2188" rx="2.5" ry="2.5" style="stroke:#181818;stroke-width:0.5;" width="157.1787" x="563.4331" y="690.3828"/><text fill="#000000" font-family="sans-serif" font-size="14" lengthAdjust="spacing" textLength="143.1787" x="570.4331" y="711.916">ConvocatoriaController</text><text fill="#000000" font-family="sans-serif" font-size="14" lengthAdjust="spacing" textLength="82.4824" x="600.7813" y="729.5254">(Spring Boot)</text><rect fill="#E2E2F0" height="31.6094" rx="2.5" ry="2.5" style="stroke:#181818;stroke-width:0.5;" width="103.4893" x="823.8584" y="88.6094"/><text fill="#000000" font-family="sans-serif" font-size="14" lengthAdjust="spacing" textLength="89.4893" x="830.8584" y="110.1426">SesionService</text><rect fill="#E2E2F0" height="31.6094" rx="2.5" ry="2.5" style="stroke:#181818;stroke-width:0.5;" width="103.4893" x="823.8584" y="690.3828"/><text fill="#000000" font-family="sans-serif" font-size="14" lengthAdjust="spacing" textLength="89.4893" x="830.8584" y="711.916">SesionService</text><rect fill="#E2E2F0" height="31.6094" rx="2.5" ry="2.5" style="stroke:#181818;stroke-width:0.5;" width="198.4268" x="937.3477" y="88.6094"/><text fill="#000000" font-family="sans-serif" font-size="14" lengthAdjust="spacing" textLength="184.4268" x="944.3477" y="110.1426">ConsultaConvocatoriaService</text><rect fill="#E2E2F0" height="31.6094" rx="2.5" ry="2.5" style="stroke:#181818;stroke-width:0.5;" width="198.4268" x="937.3477" y="690.3828"/><text fill="#000000" font-family="sans-serif" font-size="14" lengthAdjust="spacing" textLength="184.4268" x="944.3477" y="711.916">ConsultaConvocatoriaService</text><rect fill="#E2E2F0" height="31.6094" rx="2.5" ry="2.5" style="stroke:#181818;stroke-width:0.5;" width="141.6201" x="1145.7744" y="88.6094"/><text fill="#000000" font-family="sans-serif" font-size="14" lengthAdjust="spacing" textLength="127.6201" x="1152.7744" y="110.1426">PoliticaConvocatoria</text><rect fill="#E2E2F0" height="31.6094" rx="2.5" ry="2.5" style="stroke:#181818;stroke-width:0.5;" width="141.6201" x="1145.7744" y="690.3828"/><text fill="#000000" font-family="sans-serif" font-size="14" lengthAdjust="spacing" textLength="127.6201" x="1152.7744" y="711.916">PoliticaConvocatoria</text><rect fill="#E2E2F0" height="31.6094" rx="2.5" ry="2.5" style="stroke:#181818;stroke-width:0.5;" width="163.4063" x="1297.3945" y="88.6094"/><text fill="#000000" font-family="sans-serif" font-size="14" lengthAdjust="spacing" textLength="149.4063" x="1304.3945" y="110.1426">ConvocatoriaRepository</text><rect fill="#E2E2F0" height="31.6094" rx="2.5" ry="2.5" style="stroke:#181818;stroke-width:0.5;" width="163.4063" x="1297.3945" y="690.3828"/><text fill="#000000" font-family="sans-serif" font-size="14" lengthAdjust="spacing" textLength="149.4063" x="1304.3945" y="711.916">ConvocatoriaRepository</text><text fill="#000000" font-family="sans-serif" font-size="14" lengthAdjust="spacing" textLength="91.834" x="1539.126" y="118.1426">Base de Datos</text><path d="M1570.043,67.6094 C1570.043,57.6094 1588.043,57.6094 1588.043,57.6094 C1588.043,57.6094 1606.043,57.6094 1606.043,67.6094 L1606.043,93.6094 C1606.043,103.6094 1588.043,103.6094 1588.043,103.6094 C1588.043,103.6094 1570.043,103.6094 1570.043,93.6094 L1570.043,67.6094 " fill="#E2E2F0" style="stroke:#181818;stroke-width:1.5;"/><path d="M1570.043,67.6094 C1570.043,77.6094 1588.043,77.6094 1588.043,77.6094 C1588.043,77.6094 1606.043,77.6094 1606.043,67.6094 " fill="none" style="stroke:#181818;stroke-width:1.5;"/><text fill="#000000" font-family="sans-serif" font-size="14" lengthAdjust="spacing" textLength="91.834" x="1539.126" y="704.916">Base de Datos</text><path d="M1570.043,717.9922 C1570.043,707.9922 1588.043,707.9922 1588.043,707.9922 C1588.043,707.9922 1606.043,707.9922 1606.043,717.9922 L1606.043,743.9922 C1606.043,753.9922 1588.043,753.9922 1588.043,753.9922 C1588.043,753.9922 1570.043,753.9922 1570.043,743.9922 L1570.043,717.9922 " fill="#E2E2F0" style="stroke:#181818;stroke-width:1.5;"/><path d="M1570.043,717.9922 C1570.043,727.9922 1588.043,727.9922 1588.043,727.9922 C1588.043,727.9922 1606.043,727.9922 1606.043,717.9922 " fill="none" style="stroke:#181818;stroke-width:1.5;"/><polygon fill="#181818" points="374.0664,149.5703,384.0664,153.5703,374.0664,157.5703,378.0664,153.5703" style="stroke:#181818;stroke-width:1;"/><line style="stroke:#181818;stroke-width:1;" x1="61.5239" x2="380.0664" y1="153.5703" y2="153.5703"/><text fill="#000000" font-family="sans-serif" font-size="13" lengthAdjust="spacing" textLength="166.2197" x="68.5239" y="148.7139">Selecciona una convocatoria</text><polygon fill="#181818" points="630.0225,179.9219,640.0225,183.9219,630.0225,187.9219,634.0225,183.9219" style="stroke:#181818;stroke-width:1;"/><line style="stroke:#181818;stroke-width:1;" x1="386.0664" x2="636.0225" y1="183.9219" y2="183.9219"/><text fill="#000000" font-family="sans-serif" font-size="13" lengthAdjust="spacing" textLength="209.9233" x="393.0664" y="179.0654">GET /api/convocatorias/{id} + cookie</text><polygon fill="#181818" points="863.603,210.2734,873.603,214.2734,863.603,218.2734,867.603,214.2734" style="stroke:#181818;stroke-width:1;"/><line style="stroke:#181818;stroke-width:1;" x1="642.0225" x2="869.603" y1="214.2734" y2="214.2734"/><text fill="#000000" font-family="sans-serif" font-size="13" lengthAdjust="spacing" textLength="209.5806" x="649.0225" y="209.417">obtenerSesionActual(authentication)</text><polygon fill="#181818" points="653.0225,240.625,643.0225,244.625,653.0225,248.625,649.0225,244.625" style="stroke:#181818;stroke-width:1;"/><line style="stroke:#181818;stroke-width:1;stroke-dasharray:2.0,2.0;" x1="647.0225" x2="874.603" y1="244.625" y2="244.625"/><text fill="#000000" font-family="sans-serif" font-size="13" lengthAdjust="spacing" textLength="142.3779" x="659.0225" y="239.7686">Coordinador autenticado</text><polygon fill="#181818" points="1024.561,270.9766,1034.561,274.9766,1024.561,278.9766,1028.561,274.9766" style="stroke:#181818;stroke-width:1;"/><line style="stroke:#181818;stroke-width:1;" x1="642.0225" x2="1030.561" y1="274.9766" y2="274.9766"/><text fill="#000000" font-family="sans-serif" font-size="13" lengthAdjust="spacing" textLength="98.9917" x="649.0225" y="270.1201">obtener(id, actor)</text><polygon fill="#181818" points="1204.5845,301.3281,1214.5845,305.3281,1204.5845,309.3281,1208.5845,305.3281" style="stroke:#181818;stroke-width:1;"/><line style="stroke:#181818;stroke-width:1;" x1="1036.561" x2="1210.5845" y1="305.3281" y2="305.3281"/><text fill="#000000" font-family="sans-serif" font-size="13" lengthAdjust="spacing" textLength="119.9326" x="1043.561" y="300.4717">exigirConsulta(actor)</text><polygon fill="#181818" points="1367.0977,331.6797,1377.0977,335.6797,1367.0977,339.6797,1371.0977,335.6797" style="stroke:#181818;stroke-width:1;"/><line style="stroke:#181818;stroke-width:1;" x1="1036.561" x2="1373.0977" y1="335.6797" y2="335.6797"/><text fill="#000000" font-family="sans-serif" font-size="13" lengthAdjust="spacing" textLength="65.749" x="1043.561" y="330.8232">findById(id)</text><polygon fill="#181818" points="1576.043,378.3828,1586.043,382.3828,1576.043,386.3828,1580.043,382.3828" style="stroke:#181818;stroke-width:1;"/><line style="stroke:#181818;stroke-width:1;" x1="1379.0977" x2="1582.043" y1="382.3828" y2="382.3828"/><text fill="#000000" font-family="sans-serif" font-size="13" lengthAdjust="spacing" textLength="184.9453" x="1386.0977" y="361.1748">SELECT * FROM convocatorias</text><text fill="#000000" font-family="sans-serif" font-size="13" lengthAdjust="spacing" textLength="84.1636" x="1386.0977" y="377.5264">WHERE id = ?</text><polygon fill="#181818" points="1390.0977,408.7344,1380.0977,412.7344,1390.0977,416.7344,1386.0977,412.7344" style="stroke:#181818;stroke-width:1;"/><line style="stroke:#181818;stroke-width:1;stroke-dasharray:2.0,2.0;" x1="1384.0977" x2="1587.043" y1="412.7344" y2="412.7344"/><text fill="#000000" font-family="sans-serif" font-size="13" lengthAdjust="spacing" textLength="117.7808" x="1396.0977" y="407.8779">Convocatoria / vacio</text><polygon fill="#181818" points="1047.561,439.0859,1037.561,443.0859,1047.561,447.0859,1043.561,443.0859" style="stroke:#181818;stroke-width:1;"/><line style="stroke:#181818;stroke-width:1;stroke-dasharray:2.0,2.0;" x1="1041.561" x2="1378.0977" y1="443.0859" y2="443.0859"/><text fill="#000000" font-family="sans-serif" font-size="13" lengthAdjust="spacing" textLength="117.7808" x="1053.561" y="438.2295">Convocatoria / vacio</text><path d="M10,458.0859 L70.1709,458.0859 L70.1709,466.4375 L60.1709,476.4375 L10,476.4375 L10,458.0859 " fill="#EEEEEE" style="stroke:#000000;stroke-width:1.5;"/><rect fill="none" height="216.2969" style="stroke:#000000;stroke-width:1.5;" width="1135.7744" x="10" y="458.0859"/><text fill="#000000" font-family="sans-serif" font-size="13" font-weight="bold" lengthAdjust="spacing" textLength="15.1709" x="25" y="472.5811">alt</text><text fill="#000000" font-family="sans-serif" font-size="11" font-weight="bold" lengthAdjust="spacing" textLength="139.9653" x="85.1709" y="471.5049">[Convocatoria encontrada]</text><polygon fill="#181818" points="653.0225,494.7891,643.0225,498.7891,653.0225,502.7891,649.0225,498.7891" style="stroke:#181818;stroke-width:1;"/><line style="stroke:#181818;stroke-width:1;stroke-dasharray:2.0,2.0;" x1="647.0225" x2="1035.561" y1="498.7891" y2="498.7891"/><text fill="#000000" font-family="sans-serif" font-size="13" lengthAdjust="spacing" textLength="117.0635" x="659.0225" y="493.9326">ConvocatoriaDetalle</text><polygon fill="#181818" points="397.0664,525.1406,387.0664,529.1406,397.0664,533.1406,393.0664,529.1406" style="stroke:#181818;stroke-width:1;"/><line style="stroke:#181818;stroke-width:1;stroke-dasharray:2.0,2.0;" x1="391.0664" x2="641.0225" y1="529.1406" y2="529.1406"/><text fill="#000000" font-family="sans-serif" font-size="13" lengthAdjust="spacing" textLength="231.9561" x="403.0664" y="524.2842">200 OK (ConvocatoriaDetalleResponse)</text><polygon fill="#181818" points="72.5239,555.4922,62.5239,559.4922,72.5239,563.4922,68.5239,559.4922" style="stroke:#181818;stroke-width:1;"/><line style="stroke:#181818;stroke-width:1;stroke-dasharray:2.0,2.0;" x1="66.5239" x2="385.0664" y1="559.4922" y2="559.4922"/><text fill="#000000" font-family="sans-serif" font-size="13" lengthAdjust="spacing" textLength="223.9517" x="78.5239" y="554.6357">Presenta CONVOCATORIA_ABIERTA</text><line style="stroke:#000000;stroke-width:1;stroke-dasharray:2.0,2.0;" x1="10" x2="1145.7744" y1="568.4922" y2="568.4922"/><text fill="#000000" font-family="sans-serif" font-size="11" font-weight="bold" lengthAdjust="spacing" textLength="138.1392" x="15" y="579.9111">[Convocatoria inexistente]</text><polygon fill="#181818" points="653.0225,601.6797,643.0225,605.6797,653.0225,609.6797,649.0225,605.6797" style="stroke:#181818;stroke-width:1;"/><line style="stroke:#181818;stroke-width:1;stroke-dasharray:2.0,2.0;" x1="647.0225" x2="1035.561" y1="605.6797" y2="605.6797"/><text fill="#000000" font-family="sans-serif" font-size="13" lengthAdjust="spacing" textLength="85.2808" x="659.0225" y="600.8232">No encontrada</text><polygon fill="#181818" points="397.0664,632.0313,387.0664,636.0313,397.0664,640.0313,393.0664,636.0313" style="stroke:#181818;stroke-width:1;"/><line style="stroke:#181818;stroke-width:1;stroke-dasharray:2.0,2.0;" x1="391.0664" x2="641.0225" y1="636.0313" y2="636.0313"/><text fill="#000000" font-family="sans-serif" font-size="13" lengthAdjust="spacing" textLength="86.0044" x="403.0664" y="631.1748">404 Not Found</text><polygon fill="#181818" points="72.5239,662.3828,62.5239,666.3828,72.5239,670.3828,68.5239,666.3828" style="stroke:#181818;stroke-width:1;"/><line style="stroke:#181818;stroke-width:1;stroke-dasharray:2.0,2.0;" x1="66.5239" x2="385.0664" y1="666.3828" y2="666.3828"/><text fill="#000000" font-family="sans-serif" font-size="13" lengthAdjust="spacing" textLength="300.5425" x="78.5239" y="661.5264">Mantiene CONVOCATORIAS_ABIERTAS e informa</text><!--SRC=[VLF1Zjem4BtxAqPxWhO8LEqfKbib9BIetGK5r5vMgePubbhDsf5jK57LVz-niq1IQ962RCzxupTlnbxvcY1NkBNuX20975KxqfL2605khB9Je_UcGc-iGY6muWLCZR5IQPJ6YWQjLvLgK7kukM0iSKiFUb0I4uStW0vcrcXFMlQ9NGwllJLrJPQPgyOglONCc1T-sgW-TKLE6RqYkrSLHKXxSd61szKUknVrEN7T9orDhNZN8qLq25I7VvTGKcESukKXmiDMIFIuGKTmauL_zZfdi8k0F1EYOogCtfzyIbXQJLN55I7i-Akw3JcY0eETIU1ZiOOnDchSXRdnRoN_m6lccf-A12C3eVKf0RFX56JRRLhv7TO3tFaVf4FndW-7eWt2w7XFLorZMwWqvzJHpbFkWP9l80vFI1LZ0TRwc03zKjiuEB57WqjWS321HwLbTfXBpZOKuIY4yemjAhuKqpMyWbcvkEivv1xqjqz5MO2Iy0u-Y3oBDRJvkYs3CUoHNNx9swtXAanWxViHVZPXSb6Y0FwTr9yjEuDpyiWJ7e7Hibx7tquciFWCWokCabp3Dj4mKi_jPtwd9GaiBJbk2i9qSVzrCKtNYtAUVa-pUL6kKq4rJs1FlDBS0nVwIDVLtvk_2xpKVJkvPPo7cTdn0_-_m3j-D8f7eoTmTLIu0c99ZyO-eM3wCm00]--></g></svg>