<svg xmlns="http://www.w3.org/2000/svg" xmlns:xlink="http://www.w3.org/1999/xlink" contentStyleType="text/css" data-diagram-type="STATE" height="697px" preserveAspectRatio="none" style="width:2261px;height:697px;background:#FFFFFF;" version="1.1" viewBox="0 0 2261 697" width="2261px" zoomAndPan="magnify"><?plantuml 1.2026.6?><defs/><g><g class="entity" data-qualified-name="in1" data-source-line="3" id="ent0001"><rect fill="#F1F1F1" height="50" rx="12.5" ry="12.5" style="stroke:#181818;stroke-width:0.5;" width="223.0479" x="213" y="7"/><line style="stroke:#181818;stroke-width:0.5;" x1="213" x2="436.0479" y1="34.6094" y2="34.6094"/><text fill="#000000" font-family="sans-serif" font-size="14" lengthAdjust="spacing" textLength="203.0479" x="223" y="26.5332">INVESTIGADORES_ABIERTOS</text></g><g class="entity" data-qualified-name="in2" data-source-line="6" id="ent0002"><rect fill="#F1F1F1" height="50" rx="12.5" ry="12.5" style="stroke:#181818;stroke-width:0.5;" width="300.8545" x="471" y="7"/><line style="stroke:#181818;stroke-width:0.5;" x1="471" x2="771.8545" y1="34.6094" y2="34.6094"/><text fill="#000000" font-family="sans-serif" font-size="14" lengthAdjust="spacing" textLength="280.8545" x="481" y="26.5332">OPCIONES_CARGA_TRABAJO_ABIERTAS</text></g><g class="entity" data-qualified-name="in3" data-source-line="9" id="ent0003"><rect fill="#F1F1F1" height="50" rx="12.5" ry="12.5" style="stroke:#181818;stroke-width:0.5;" width="219.9443" x="807.5" y="7"/><line style="stroke:#181818;stroke-width:0.5;" x1="807.5" x2="1027.4443" y1="34.6094" y2="34.6094"/><text fill="#000000" font-family="sans-serif" font-size="14" lengthAdjust="spacing" textLength="199.9443" x="817.5" y="26.5332">OPCIONES_PERFIL_ABIERTO</text></g><g class="entity" data-qualified-name="in4" data-source-line="12" id="ent0004"><rect fill="#F1F1F1" height="50" rx="12.5" ry="12.5" style="stroke:#181818;stroke-width:0.5;" width="243.2891" x="1063" y="7"/><line style="stroke:#181818;stroke-width:0.5;" x1="1063" x2="1306.2891" y1="34.6094" y2="34.6094"/><text fill="#000000" font-family="sans-serif" font-size="14" lengthAdjust="spacing" textLength="223.2891" x="1073" y="26.5332">MIS_PUBLICACIONES_ABIERTAS</text></g><g class="entity" data-qualified-name="in5" data-source-line="15" id="ent0005"><rect fill="#F1F1F1" height="50" rx="12.5" ry="12.5" style="stroke:#181818;stroke-width:0.5;" width="210.6133" x="1341" y="7"/><line style="stroke:#181818;stroke-width:0.5;" x1="1341" x2="1551.6133" y1="34.6094" y2="34.6094"/><text fill="#000000" font-family="sans-serif" font-size="14" lengthAdjust="spacing" textLength="190.6133" x="1351" y="26.5332">PUBLICACIONES_ABIERTAS</text></g><g class="entity" data-qualified-name="in6" data-source-line="18" id="ent0006"><rect fill="#F1F1F1" height="50" rx="12.5" ry="12.5" style="stroke:#181818;stroke-width:0.5;" width="205.9375" x="1587.5" y="7"/><line style="stroke:#181818;stroke-width:0.5;" x1="1587.5" x2="1793.4375" y1="34.6094" y2="34.6094"/><text fill="#000000" font-family="sans-serif" font-size="14" lengthAdjust="spacing" textLength="185.9375" x="1597.5" y="26.5332">RECOMPENSAS_ABIERTAS</text></g><g class="entity" data-qualified-name="in7" data-source-line="21" id="ent0007"><rect fill="#F1F1F1" height="50" rx="12.5" ry="12.5" style="stroke:#181818;stroke-width:0.5;" width="186.4824" x="1828.5" y="7"/><line style="stroke:#181818;stroke-width:0.5;" x1="1828.5" x2="2014.9824" y1="34.6094" y2="34.6094"/><text fill="#000000" font-family="sans-serif" font-size="14" lengthAdjust="spacing" textLength="166.4824" x="1838.5" y="26.5332">PROYECTOS_ABIERTOS</text></g><g class="entity" data-qualified-name="abrirPanelPrincipal" data-source-line="25" id="ent0008"><path d="M928.5,118 L1440.5,118 A12.5,12.5 0 0 1 1453,130.5 L1453,145.6094 L916,145.6094 L916,130.5 A12.5,12.5 0 0 1 928.5,118" fill="#F1F1F1"/><rect fill="none" height="418.6094" rx="12.5" ry="12.5" style="stroke:#181818;stroke-width:0.5;" width="537" x="916" y="118"/><line style="stroke:#181818;stroke-width:0.5;" x1="916" x2="1453" y1="145.6094" y2="145.6094"/><text fill="#000000" font-family="sans-serif" font-size="14" lengthAdjust="spacing" textLength="126.8271" x="1121.0864" y="137.5332">abrirPanelPrincipal()</text><g class="entity" data-qualified-name="abrirPanelPrincipal.MostrandoPanel" data-source-line="27" id="ent0009"><rect fill="#F1F1F1" height="50" rx="12.5" ry="12.5" style="stroke:#181818;stroke-width:0.5;" width="50" x="928" y="248.6094"/><line style="stroke:#181818;stroke-width:0.5;" x1="928" x2="978" y1="276.2188" y2="276.2188"/><text fill="#000000" font-family="sans-serif" font-size="14" lengthAdjust="spacing" textLength="3.8896" x="951.0552" y="268.1426">&#160;</text></g><g class="start_entity" data-qualified-name="abrirPanelPrincipal..start.abrirPanelPrincipal" data-source-line="29" id="ent0017"><ellipse cx="953" cy="166.6094" fill="#222222" rx="10" ry="10" style="stroke:#222222;stroke-width:1;"/></g><g class="end_entity" data-qualified-name="abrirPanelPrincipal..end.abrirPanelPrincipal" data-source-line="34" id="ent0019"><ellipse cx="953" cy="512.6094" fill="none" rx="11" ry="11" style="stroke:#222222;stroke-width:1;"/><ellipse cx="953" cy="512.6094" fill="#222222" rx="6" ry="6" style="stroke:#222222;stroke-width:1;"/></g><!--link *start*abrirPanelPrincipal to MostrandoPanel--><g class="link" data-entity-1="ent0017" data-entity-2="ent0009" data-link-type="dependency" data-source-line="29" id="lnk18"><path d="M953,176.9294 C953,192.7894 953,220.5194 953,243.2494" fill="none" id="*start*abrirPanelPrincipal-to-MostrandoPanel" style="stroke:#008000;stroke-width:1;"/><polygon fill="#008000" points="953,248.2494,957,239.2494,953,243.2494,949,239.2494,953,248.2494" style="stroke:#008000;stroke-width:1;stroke-linejoin:miter;stroke-miterlimit:10;"/><path d="M958,199.6094 L958,225.6094 L1230,225.6094 L1230,209.6094 L1220,199.6094 L958,199.6094" fill="#FEFFDD" style="stroke:#181818;stroke-width:0.5;"/><path d="M1220,199.6094 L1220,209.6094 L1230,209.6094 L1220,199.6094" fill="#FEFFDD" style="stroke:#181818;stroke-width:0.5;"/><text fill="#000000" font-family="sans-serif" font-size="13" font-weight="700" lengthAdjust="spacing" textLength="77.2954" x="964" y="218.1045">Investigador</text><text fill="#000000" font-family="sans-serif" font-size="13" lengthAdjust="spacing" textLength="170.5298" x="1044.9072" y="218.1045">solicita abrir el panel principal</text></g><!--link MostrandoPanel to *end*abrirPanelPrincipal--><g class="link" data-entity-1="ent0009" data-entity-2="ent0019" data-link-type="dependency" data-source-line="34" id="lnk20"><path d="M953,298.6394 C953,349.4794 953,461.1394 953,496.3594" fill="none" id="MostrandoPanel-to-*end*abrirPanelPrincipal" style="stroke:#008000;stroke-width:1;"/><polygon fill="#008000" points="953,501.3594,957,492.3594,953,496.3594,949,492.3594,953,501.3594" style="stroke:#008000;stroke-width:1;stroke-linejoin:miter;stroke-miterlimit:10;"/><path d="M958,321.6094 L958,478.6094 L1429,478.6094 L1429,331.6094 L1419,321.6094 L958,321.6094" fill="#FEFFDD" style="stroke:#181818;stroke-width:0.5;"/><path d="M1419,321.6094 L1419,331.6094 L1429,331.6094 L1419,321.6094" fill="#FEFFDD" style="stroke:#181818;stroke-width:0.5;"/><text fill="#000000" font-family="sans-serif" font-size="13" font-weight="700" lengthAdjust="spacing" textLength="49.8608" x="964" y="340.1045">Sistema</text><text fill="#000000" font-family="sans-serif" font-size="13" lengthAdjust="spacing" textLength="397.4268" x="1017.4727" y="340.1045">presenta el panel principal y permite solicitar las siguientes acciones:</text><text fill="#000000" font-family="sans-serif" font-size="13" lengthAdjust="spacing" textLength="96.313" x="964" y="356.4561">&#8226; Abrir proyectos</text><text fill="#000000" font-family="sans-serif" font-size="13" lengthAdjust="spacing" textLength="123.7793" x="964" y="372.8076">&#8226; Abrir investigadores</text><text fill="#000000" font-family="sans-serif" font-size="13" lengthAdjust="spacing" textLength="117.9902" x="964" y="389.1592">&#8226; Abrir recompensas</text><text fill="#000000" font-family="sans-serif" font-size="13" lengthAdjust="spacing" textLength="142.5557" x="964" y="405.5107">&#8226; Abrir mis publicaciones</text><text fill="#000000" font-family="sans-serif" font-size="13" lengthAdjust="spacing" textLength="118.7266" x="964" y="421.8623">&#8226; Abrir publicaciones</text><text fill="#000000" font-family="sans-serif" font-size="13" lengthAdjust="spacing" textLength="141.8511" x="964" y="438.2139">&#8226; Abrir opciones de perfil</text><text fill="#000000" font-family="sans-serif" font-size="13" lengthAdjust="spacing" textLength="207.6255" x="964" y="454.5654">&#8226; Abrir opciones de carga de trabajo</text><text fill="#000000" font-family="sans-serif" font-size="13" lengthAdjust="spacing" textLength="86.9185" x="964" y="470.917">&#8226; Cerrar sesi&#243;n</text></g></g><g class="entity" data-qualified-name="PANEL_PRINCIPAL_ABIERTO" data-source-line="48" id="ent0021"><rect fill="#F1F1F1" height="50" rx="12.5" ry="12.5" style="stroke:#181818;stroke-width:0.5;" width="216.8477" x="7" y="633"/><line style="stroke:#181818;stroke-width:0.5;" x1="7" x2="223.8477" y1="660.6094" y2="660.6094"/><text fill="#000000" font-family="sans-serif" font-size="14" lengthAdjust="spacing" textLength="196.8477" x="17" y="652.5332">PANEL_PRINCIPAL_ABIERTO</text></g><g class="entity" data-qualified-name="OPCIONES_PERFIL_ABIERTO" data-source-line="53" id="ent0023"><rect fill="#F1F1F1" height="50" rx="12.5" ry="12.5" style="stroke:#181818;stroke-width:0.5;" width="219.9443" x="259.5" y="633"/><line style="stroke:#181818;stroke-width:0.5;" x1="259.5" x2="479.4443" y1="660.6094" y2="660.6094"/><text fill="#000000" font-family="sans-serif" font-size="14" lengthAdjust="spacing" textLength="199.9443" x="269.5" y="652.5332">OPCIONES_PERFIL_ABIERTO</text></g><g class="entity" data-qualified-name="OPCIONES_CARGA_TRABAJO_ABIERTAS" data-source-line="58" id="ent0025"><rect fill="#F1F1F1" height="50" rx="12.5" ry="12.5" style="stroke:#181818;stroke-width:0.5;" width="300.8545" x="515" y="633"/><line style="stroke:#181818;stroke-width:0.5;" x1="515" x2="815.8545" y1="660.6094" y2="660.6094"/><text fill="#000000" font-family="sans-serif" font-size="14" lengthAdjust="spacing" textLength="280.8545" x="525" y="652.5332">OPCIONES_CARGA_TRABAJO_ABIERTAS</text></g><g class="entity" data-qualified-name="PROYECTOS_ABIERTOS" data-source-line="63" id="ent0027"><rect fill="#F1F1F1" height="50" rx="12.5" ry="12.5" style="stroke:#181818;stroke-width:0.5;" width="186.4824" x="851.5" y="633"/><line style="stroke:#181818;stroke-width:0.5;" x1="851.5" x2="1037.9824" y1="660.6094" y2="660.6094"/><text fill="#000000" font-family="sans-serif" font-size="14" lengthAdjust="spacing" textLength="166.4824" x="861.5" y="652.5332">PROYECTOS_ABIERTOS</text></g><g class="entity" data-qualified-name="INVESTIGADORES_ABIERTOS" data-source-line="68" id="ent0029"><rect fill="#F1F1F1" height="50" rx="12.5" ry="12.5" style="stroke:#181818;stroke-width:0.5;" width="223.0479" x="1073" y="633"/><line style="stroke:#181818;stroke-width:0.5;" x1="1073" x2="1296.0479" y1="660.6094" y2="660.6094"/><text fill="#000000" font-family="sans-serif" font-size="14" lengthAdjust="spacing" textLength="203.0479" x="1083" y="652.5332">INVESTIGADORES_ABIERTOS</text></g><g class="entity" data-qualified-name="MIS_PUBLICACIONES_ABIERTAS" data-source-line="73" id="ent0031"><rect fill="#F1F1F1" height="50" rx="12.5" ry="12.5" style="stroke:#181818;stroke-width:0.5;" width="243.2891" x="1331" y="633"/><line style="stroke:#181818;stroke-width:0.5;" x1="1331" x2="1574.2891" y1="660.6094" y2="660.6094"/><text fill="#000000" font-family="sans-serif" font-size="14" lengthAdjust="spacing" textLength="223.2891" x="1341" y="652.5332">MIS_PUBLICACIONES_ABIERTAS</text></g><g class="entity" data-qualified-name="PUBLICACIONES_ABIERTAS" data-source-line="78" id="ent0033"><rect fill="#F1F1F1" height="50" rx="12.5" ry="12.5" style="stroke:#181818;stroke-width:0.5;" width="210.6133" x="1609" y="633"/><line style="stroke:#181818;stroke-width:0.5;" x1="1609" x2="1819.6133" y1="660.6094" y2="660.6094"/><text fill="#000000" font-family="sans-serif" font-size="14" lengthAdjust="spacing" textLength="190.6133" x="1619" y="652.5332">PUBLICACIONES_ABIERTAS</text></g><g class="entity" data-qualified-name="RECOMPENSAS_ABIERTAS" data-source-line="83" id="ent0035"><rect fill="#F1F1F1" height="50" rx="12.5" ry="12.5" style="stroke:#181818;stroke-width:0.5;" width="205.9375" x="1855.5" y="633"/><line style="stroke:#181818;stroke-width:0.5;" x1="1855.5" x2="2061.4375" y1="660.6094" y2="660.6094"/><text fill="#000000" font-family="sans-serif" font-size="14" lengthAdjust="spacing" textLength="185.9375" x="1865.5" y="652.5332">RECOMPENSAS_ABIERTAS</text></g><g class="entity" data-qualified-name="SESION_CERRADA" data-source-line="88" id="ent0037"><rect fill="#F1F1F1" height="50" rx="12.5" ry="12.5" style="stroke:#181818;stroke-width:0.5;" width="149.1445" x="2097" y="633"/><line style="stroke:#181818;stroke-width:0.5;" x1="2097" x2="2246.1445" y1="660.6094" y2="660.6094"/><text fill="#000000" font-family="sans-serif" font-size="14" lengthAdjust="spacing" textLength="129.1445" x="2107" y="652.5332">SESION_CERRADA</text></g><!--link in1 to abrirPanelPrincipal--><g class="link" data-entity-1="ent0001" data-entity-2="ent0008" data-link-type="dependency" data-source-line="4" id="lnk10"><path d="M394.88,57.02 C507.5,95.45 729.308,171.1551 910.958,233.1451" fill="none" id="in1-to-abrirPanelPrincipal" style="stroke:#008000;stroke-width:1;"/><polygon fill="#008000" points="915.69,234.76,908.4642,228.0676,910.958,233.1451,905.8804,235.6389,915.69,234.76" style="stroke:#008000;stroke-width:1;stroke-linejoin:miter;stroke-miterlimit:10;"/></g><!--link in2 to abrirPanelPrincipal--><g class="link" data-entity-1="ent0002" data-entity-2="ent0008" data-link-type="dependency" data-source-line="7" id="lnk11"><path d="M667.57,57.02 C722.92,85.87 815.8563,134.3186 911.2663,184.0586" fill="none" id="in2-to-abrirPanelPrincipal" style="stroke:#008000;stroke-width:1;"/><polygon fill="#008000" points="915.7,186.37,909.5685,178.6625,911.2663,184.0586,905.8703,185.7564,915.7,186.37" style="stroke:#008000;stroke-width:1;stroke-linejoin:miter;stroke-miterlimit:10;"/></g><!--link in3 to abrirPanelPrincipal--><g class="link" data-entity-1="ent0003" data-entity-2="ent0008" data-link-type="dependency" data-source-line="10" id="lnk12"><path d="M939.35,57.02 C953.24,72.28 969.3347,89.9821 991.2947,114.1121" fill="none" id="in3-to-abrirPanelPrincipal" style="stroke:#008000;stroke-width:1;"/><polygon fill="#008000" points="994.66,117.81,991.5607,108.4615,991.2947,114.1121,985.6441,113.8461,994.66,117.81" style="stroke:#008000;stroke-width:1;stroke-linejoin:miter;stroke-miterlimit:10;"/></g><!--link in4 to abrirPanelPrincipal--><g class="link" data-entity-1="ent0004" data-entity-2="ent0008" data-link-type="dependency" data-source-line="13" id="lnk13"><path d="M1184.5,57.02 C1184.5,72.28 1184.5,88.68 1184.5,112.81" fill="none" id="in4-to-abrirPanelPrincipal" style="stroke:#008000;stroke-width:1;"/><polygon fill="#008000" points="1184.5,117.81,1188.5,108.81,1184.5,112.81,1180.5,108.81,1184.5,117.81" style="stroke:#008000;stroke-width:1;stroke-linejoin:miter;stroke-miterlimit:10;"/></g><!--link in5 to abrirPanelPrincipal--><g class="link" data-entity-1="ent0005" data-entity-2="ent0008" data-link-type="dependency" data-source-line="16" id="lnk14"><path d="M1425.06,57.02 C1411.43,72.28 1395.6597,89.95 1374.1197,114.08" fill="none" id="in5-to-abrirPanelPrincipal" style="stroke:#008000;stroke-width:1;"/><polygon fill="#008000" points="1370.79,117.81,1379.7675,113.7597,1374.1197,114.08,1373.7994,108.4322,1370.79,117.81" style="stroke:#008000;stroke-width:1;stroke-linejoin:miter;stroke-miterlimit:10;"/></g><!--link in6 to abrirPanelPrincipal--><g class="link" data-entity-1="ent0006" data-entity-2="ent0008" data-link-type="dependency" data-source-line="19" id="lnk15"><path d="M1649.09,57.02 C1604.6,82.83 1534.2252,123.6515 1457.5852,168.1015" fill="none" id="in6-to-abrirPanelPrincipal" style="stroke:#008000;stroke-width:1;"/><polygon fill="#008000" points="1453.26,170.61,1463.0522,169.5548,1457.5852,168.1015,1459.0385,162.6345,1453.26,170.61" style="stroke:#008000;stroke-width:1;stroke-linejoin:miter;stroke-miterlimit:10;"/></g><!--link in7 to abrirPanelPrincipal--><g class="link" data-entity-1="ent0007" data-entity-2="ent0008" data-link-type="dependency" data-source-line="22" id="lnk16"><path d="M1861.19,57.02 C1772.49,92.34 1606.0052,158.64 1458.0352,217.57" fill="none" id="in7-to-abrirPanelPrincipal" style="stroke:#008000;stroke-width:1;"/><polygon fill="#008000" points="1453.39,219.42,1463.2313,219.8062,1458.0352,217.57,1460.2713,212.3739,1453.39,219.42" style="stroke:#008000;stroke-width:1;stroke-linejoin:miter;stroke-miterlimit:10;"/></g><!--link abrirPanelPrincipal to PANEL_PRINCIPAL_ABIERTO--><g class="link" data-entity-1="ent0008" data-entity-2="ent0021" data-link-type="dependency" data-source-line="48" id="lnk22"><path d="M915.85,403.88 C666.79,473.76 334.5,567 334.5,567 C334.5,567 243.4048,604.4396 178.5248,631.0996" fill="none" id="abrirPanelPrincipal-to-PANEL_PRINCIPAL_ABIERTO" style="stroke:#008000;stroke-width:1;"/><polygon fill="#008000" points="173.9,633,183.7449,633.2791,178.5248,631.0996,180.7043,625.8795,173.9,633" style="stroke:#008000;stroke-width:1;stroke-linejoin:miter;stroke-miterlimit:10;"/><path d="M339.5,572 L339.5,598 L485.5,598 L485.5,582 L475.5,572 L339.5,572" fill="#FEFFDD" style="stroke:#181818;stroke-width:0.5;"/><path d="M475.5,572 L475.5,582 L485.5,582 L475.5,572" fill="#FEFFDD" style="stroke:#181818;stroke-width:0.5;"/><text fill="#000000" font-family="sans-serif" font-size="13" lengthAdjust="spacing" textLength="125.0107" x="345.5" y="590.4951">Panel principal visible</text></g><!--link abrirPanelPrincipal to OPCIONES_PERFIL_ABIERTO--><g class="link" data-entity-1="ent0008" data-entity-2="ent0023" data-link-type="dependency" data-source-line="53" id="lnk24"><path d="M915.61,434.15 C753.25,497.95 577.5,567 577.5,567 C577.5,567 491.1688,604.3543 429.5588,631.0143" fill="none" id="abrirPanelPrincipal-to-OPCIONES_PERFIL_ABIERTO" style="stroke:#008000;stroke-width:1;"/><polygon fill="#008000" points="424.97,633,434.8184,633.0968,429.5588,631.0143,431.6413,625.7547,424.97,633" style="stroke:#008000;stroke-width:1;stroke-linejoin:miter;stroke-miterlimit:10;"/><path d="M582.5,572 L582.5,598 L722.5,598 L722.5,582 L712.5,572 L582.5,572" fill="#FEFFDD" style="stroke:#181818;stroke-width:0.5;"/><path d="M712.5,572 L712.5,582 L722.5,582 L712.5,572" fill="#FEFFDD" style="stroke:#181818;stroke-width:0.5;"/><text fill="#000000" font-family="sans-serif" font-size="13" lengthAdjust="spacing" textLength="119.2026" x="588.5" y="590.4951">abrirOpcionesPerfil()</text></g><!--link abrirPanelPrincipal to OPCIONES_CARGA_TRABAJO_ABIERTAS--><g class="link" data-entity-1="ent0008" data-entity-2="ent0025" data-link-type="dependency" data-source-line="58" id="lnk26"><path d="M915.86,485.92 C839.91,530.43 777.5,567 777.5,567 C777.5,567 732.5877,603.0882 699.4077,629.7482" fill="none" id="abrirPanelPrincipal-to-OPCIONES_CARGA_TRABAJO_ABIERTAS" style="stroke:#008000;stroke-width:1;"/><polygon fill="#008000" points="695.51,632.88,705.0313,630.361,699.4077,629.7482,700.0204,624.1247,695.51,632.88" style="stroke:#008000;stroke-width:1;stroke-linejoin:miter;stroke-miterlimit:10;"/><path d="M782.5,572 L782.5,598 L972.5,598 L972.5,582 L962.5,572 L782.5,572" fill="#FEFFDD" style="stroke:#181818;stroke-width:0.5;"/><path d="M962.5,572 L962.5,582 L972.5,582 L962.5,572" fill="#FEFFDD" style="stroke:#181818;stroke-width:0.5;"/><text fill="#000000" font-family="sans-serif" font-size="13" lengthAdjust="spacing" textLength="169.0698" x="788.5" y="590.4951">abrirOpcionesCargaTrabajo()</text></g><!--link abrirPanelPrincipal to PROYECTOS_ABIERTOS--><g class="link" data-entity-1="ent0008" data-entity-2="ent0027" data-link-type="dependency" data-source-line="63" id="lnk28"><path d="M1032.16,537.01 C1003.97,575.6 981.2987,606.622 965.1387,628.752" fill="none" id="abrirPanelPrincipal-to-PROYECTOS_ABIERTOS" style="stroke:#008000;stroke-width:1;"/><polygon fill="#008000" points="962.19,632.79,970.728,627.8805,965.1387,628.752,964.2672,623.1627,962.19,632.79" style="stroke:#008000;stroke-width:1;stroke-linejoin:miter;stroke-miterlimit:10;"/><path d="M1014.5,572 L1014.5,598 L1127.5,598 L1127.5,582 L1117.5,572 L1014.5,572" fill="#FEFFDD" style="stroke:#181818;stroke-width:0.5;"/><path d="M1117.5,572 L1117.5,582 L1127.5,582 L1117.5,572" fill="#FEFFDD" style="stroke:#181818;stroke-width:0.5;"/><text fill="#000000" font-family="sans-serif" font-size="13" lengthAdjust="spacing" textLength="92.4663" x="1020.5" y="590.4951">abrirProyectos()</text></g><!--link abrirPanelPrincipal to INVESTIGADORES_ABIERTOS--><g class="link" data-entity-1="ent0008" data-entity-2="ent0029" data-link-type="dependency" data-source-line="68" id="lnk30"><path d="M1184.5,537.01 C1184.5,575.6 1184.5,605.66 1184.5,627.79" fill="none" id="abrirPanelPrincipal-to-INVESTIGADORES_ABIERTOS" style="stroke:#008000;stroke-width:1;"/><polygon fill="#008000" points="1184.5,632.79,1188.5,623.79,1184.5,627.79,1180.5,623.79,1184.5,632.79" style="stroke:#008000;stroke-width:1;stroke-linejoin:miter;stroke-miterlimit:10;"/><path d="M1189.5,572 L1189.5,598 L1329.5,598 L1329.5,582 L1319.5,572 L1189.5,572" fill="#FEFFDD" style="stroke:#181818;stroke-width:0.5;"/><path d="M1319.5,572 L1319.5,582 L1329.5,582 L1319.5,572" fill="#FEFFDD" style="stroke:#181818;stroke-width:0.5;"/><text fill="#000000" font-family="sans-serif" font-size="13" lengthAdjust="spacing" textLength="119.2153" x="1195.5" y="590.4951">abrirInvestigadores()</text></g><!--link abrirPanelPrincipal to MIS_PUBLICACIONES_ABIERTAS--><g class="link" data-entity-1="ent0008" data-entity-2="ent0031" data-link-type="dependency" data-source-line="73" id="lnk32"><path d="M1354.61,537.01 C1386.09,575.6 1411.5397,606.7854 1429.5897,628.9154" fill="none" id="abrirPanelPrincipal-to-MIS_PUBLICACIONES_ABIERTAS" style="stroke:#008000;stroke-width:1;"/><polygon fill="#008000" points="1432.75,632.79,1430.1612,623.2875,1429.5897,628.9154,1423.9618,628.3439,1432.75,632.79" style="stroke:#008000;stroke-width:1;stroke-linejoin:miter;stroke-miterlimit:10;"/><path d="M1413.5,572 L1413.5,598 L1569.5,598 L1569.5,582 L1559.5,572 L1413.5,572" fill="#FEFFDD" style="stroke:#181818;stroke-width:0.5;"/><path d="M1559.5,572 L1559.5,582 L1569.5,582 L1559.5,572" fill="#FEFFDD" style="stroke:#181818;stroke-width:0.5;"/><text fill="#000000" font-family="sans-serif" font-size="13" lengthAdjust="spacing" textLength="135.0972" x="1419.5" y="590.4951">abrirMisPublicaciones()</text></g><!--link abrirPanelPrincipal to PUBLICACIONES_ABIERTAS--><g class="link" data-entity-1="ent0008" data-entity-2="ent0033" data-link-type="dependency" data-source-line="78" id="lnk34"><path d="M1453.01,489.4 C1524.62,532.32 1582.5,567 1582.5,567 C1582.5,567 1635.8989,603.4033 1674.9989,630.0633" fill="none" id="abrirPanelPrincipal-to-PUBLICACIONES_ABIERTAS" style="stroke:#008000;stroke-width:1;"/><polygon fill="#008000" points="1679.13,632.88,1673.9474,624.505,1674.9989,630.0633,1669.4406,631.1147,1679.13,632.88" style="stroke:#008000;stroke-width:1;stroke-linejoin:miter;stroke-miterlimit:10;"/><path d="M1638.5,572 L1638.5,598 L1773.5,598 L1773.5,582 L1763.5,572 L1638.5,572" fill="#FEFFDD" style="stroke:#181818;stroke-width:0.5;"/><path d="M1763.5,572 L1763.5,582 L1773.5,582 L1763.5,572" fill="#FEFFDD" style="stroke:#181818;stroke-width:0.5;"/><text fill="#000000" font-family="sans-serif" font-size="13" lengthAdjust="spacing" textLength="114.8799" x="1644.5" y="590.4951">abrirPublicaciones()</text></g><!--link abrirPanelPrincipal to RECOMPENSAS_ABIERTAS--><g class="link" data-entity-1="ent0008" data-entity-2="ent0035" data-link-type="dependency" data-source-line="83" id="lnk36"><path d="M1453.37,435.02 C1613.78,498.57 1786.5,567 1786.5,567 C1786.5,567 1857.0298,603.9019 1907.9798,630.5619" fill="none" id="abrirPanelPrincipal-to-RECOMPENSAS_ABIERTAS" style="stroke:#008000;stroke-width:1;"/><polygon fill="#008000" points="1912.41,632.88,1906.2902,625.1633,1907.9798,630.5619,1902.5812,632.2515,1912.41,632.88" style="stroke:#008000;stroke-width:1;stroke-linejoin:miter;stroke-miterlimit:10;"/><path d="M1856.5,572 L1856.5,598 L1994.5,598 L1994.5,582 L1984.5,572 L1856.5,572" fill="#FEFFDD" style="stroke:#181818;stroke-width:0.5;"/><path d="M1984.5,572 L1984.5,582 L1994.5,582 L1984.5,572" fill="#FEFFDD" style="stroke:#181818;stroke-width:0.5;"/><text fill="#000000" font-family="sans-serif" font-size="13" lengthAdjust="spacing" textLength="117.7617" x="1862.5" y="590.4951">abrirRecompensas()</text></g><!--link abrirPanelPrincipal to SESION_CERRADA--><g class="link" data-entity-1="ent0008" data-entity-2="ent0037" data-link-type="dependency" data-source-line="88" id="lnk38"><path d="M1453.13,406.35 C1693.26,475.93 2007.5,567 2007.5,567 C2007.5,567 2074.5867,603.8145 2123.1667,630.4745" fill="none" id="abrirPanelPrincipal-to-SESION_CERRADA" style="stroke:#008000;stroke-width:1;"/><polygon fill="#008000" points="2127.55,632.88,2121.5844,625.0434,2123.1667,630.4745,2117.7356,632.0568,2127.55,632.88" style="stroke:#008000;stroke-width:1;stroke-linejoin:miter;stroke-miterlimit:10;"/><path d="M2074.5,572 L2074.5,598 L2177.5,598 L2177.5,582 L2167.5,572 L2074.5,572" fill="#FEFFDD" style="stroke:#181818;stroke-width:0.5;"/><path d="M2167.5,572 L2167.5,582 L2177.5,582 L2167.5,572" fill="#FEFFDD" style="stroke:#181818;stroke-width:0.5;"/><text fill="#000000" font-family="sans-serif" font-size="13" lengthAdjust="spacing" textLength="82.3545" x="2080.5" y="590.4951">cerrarSesion()</text></g><?plantuml-src dPNjQjim58R_-of4zgSTbB5-mYW1nVMAHX8BEnkCKeBid0MjZYGajn36ODUoMzWbx4vs9PFbVDcrKwVE7qSwUjvNv-Z8ve4BnJHRe8mBo9SAa9BPilZZUIPdEI0ktYDcK8-ClmJnXDpYcp0AuYaUa22QX77FAm9ExjxCDO2uF-aZbcYkAHEGKSr5oXNBjgnJnmgfJyAnfVWukiNJIOG7-5EuOcB7FEtEFAioQH1z9CErmO9rrfrrxbWZOZ6V1qFYunLqrzfvTzo5mxMZBhgZBXqg2lnmH8DnZAkWo-wWgz9J57uDV5l0IYMlNiQiE0rpZjimVdJSGpyy3zcdNDkpFnixaYRNJCoa2oy3xjxULopKOeeG8Ir2YkB4FhY1wwHFn1EOdC_PJEhhTqaV6PdnbEUiz8aWGwe08BNPIB4InCpXIksgLiM6jTMg7NEJmu8vMQN1WB2opmNH4YdG2su1QtCQPJODXiyVkLq41h4qvLA0-U3O_txzHjZPLrek8SsbgOtpdMr3VL93AXSAX67rcGKtI3qcrWGhzUfoU-QaAeVH38hzVEFPde2KwJahNcnU4_PTRa9zqDfktu3XV_-8QYr-UbxJuTej1yNZO3Yb4HdxXE9DhtkLyj1Q_f-uuKa6thReBycqN2bL6GS9LvkcBYD7nwyHQRuBzuZvHNOdPMOFadpU-mqgT7tc3aAtV2KQ-AHoTWyIQR-U6tH6tD3TytnOfhggl5wYwKPl48YstNmGFWvYQtxg1r64Rt0LdBekZ6qJIh4B_Gy0?></g></svg>